<svg xmlns="http://www.w3.org/2000/svg" viewBox="0 0 24 24" fill="none" stroke-width="1.5">
  <path d="M6,16 L18,16 C20,16 21,14 21,12.5 C21,10 19,8 17,8 C17,4 14,2 11,2 C8,2 5,4 5,8 C3,8 2,10 2,12 C2,14 3,16 6,16 Z" stroke="#FFFFFF" />
  <path d="M8,17 L8,21" stroke="#52B7FF" />
  <path d="M6.5,18.5 L9.5,19.5" stroke="#52B7FF" />
  <path d="M6.5,20 L9.5,19" stroke="#52B7FF" />
  <path d="M12,17 L12,21" stroke="#52B7FF" />
  <path d="M10.5,18.5 L13.5,19.5" stroke="#52B7FF" />
  <path d="M10.5,20 L13.5,19" stroke="#52B7FF" />
  <path d="M16,17 L16,21" stroke="#52B7FF" />
  <path d="M14.5,18.5 L17.5,19.5" stroke="#52B7FF" />
  <path d="M14.5,20 L17.5,19" stroke="#52B7FF" />
</svg> 