<svg width="48" height="48" viewBox="0 0 48 48" fill="none" xmlns="http://www.w3.org/2000/svg">
<path d="M27.6732 45.8114C27.2587 45.6591 27.0389 45.3957 26.754 45.0784L21.3344 45.0855C20.5092 46.2885 19.5545 46.1529 18.3047 45.7742L14.3741 44.545C12.7165 44.0268 11.9163 43.7087 11.9174 41.852L11.9286 39.4804C12.063 36.9325 12.6397 33.9475 13.2745 31.5049L14.0273 28.6828C14.5131 26.7998 14.6649 25.2201 14.573 23.2541L14.5477 22.6494C14.4817 21.9185 14.352 21.1832 14.2232 20.4609L9.75168 32.5074L8.5423 36.0226C8.39657 36.4441 8.29513 36.9108 8.08574 37.3045C6.97527 39.3922 3.30029 38.1266 2.75625 36.316L2.7372 36.2502C2.63074 35.8161 2.78334 35.4237 2.87755 35.0035L5.38621 25.0747L6.71014 20.2746C7.77955 16.658 9.04058 13.1002 10.5233 9.63237L11.3707 7.71537C11.5531 7.31126 11.5956 7.02148 12.0016 6.8L15.8587 4.90109C16.2241 4.74322 16.6024 4.58713 16.9372 4.37007C17.4923 4.01028 18.5508 3.08946 18.8503 2.57272C19.0301 2.26233 19.0878 2.06943 19.4939 1.99583L28.2931 1.99219C28.769 1.99243 28.8469 2.17307 29.1123 2.54253C29.6196 3.24882 30.0187 3.47456 30.642 3.97161C31.3741 4.55538 31.5231 4.63373 32.4212 5.03056L35.3886 6.48622C35.6201 6.60786 36.0053 6.74618 36.1909 6.92993C36.3852 7.12231 37.2117 9.00936 37.3243 9.29234L38.7325 12.737L40.5103 17.8039C40.5512 17.9154 40.5666 18.0344 40.6082 18.1436L41.2678 20.2569C41.3893 20.5665 41.4363 20.916 41.5466 21.2303L42.0173 22.9054C42.2048 23.3866 42.2759 23.9029 42.4229 24.398L42.6566 25.2769C42.7459 25.6079 42.8638 25.9525 42.9255 26.2895L43.0195 26.6501C43.1031 27.1457 43.3012 27.6153 43.3945 28.1063L45.0091 34.7022C45.1311 35.0721 45.3223 35.9371 45.2281 36.3066L45.2202 36.3361C44.8318 37.9078 41.9146 38.9436 40.5401 38.0392C39.9404 37.6446 39.7805 37.0617 39.5638 36.4274L37.4802 30.4691L33.9764 21.0761C33.9072 20.8803 33.8218 20.6941 33.778 20.4902L33.7703 20.4537C33.6855 20.7599 33.6596 21.0682 33.6138 21.3808L33.4304 23.246C33.3867 23.9073 33.3449 24.5674 33.3806 25.2317L33.438 25.7925C33.525 26.7132 33.6213 27.3755 33.8442 28.3003C34.0134 29.0029 34.207 29.8947 34.4203 30.5587L34.7024 31.6139C34.8159 31.9591 34.8895 32.3291 34.9694 32.6832L35.3994 34.6938C35.5833 35.8747 35.7938 37.037 35.916 38.2293L36.0059 39.2339C36.0181 39.3912 36.0507 39.545 36.0582 39.7039L36.0701 41.3123C36.0701 41.9068 36.1244 42.5835 35.8347 43.1296L35.8123 43.1714C35.3443 44.0642 34.4893 44.2627 33.6035 44.5495L29.8093 45.697C29.0654 45.9192 28.4402 46.0515 27.6732 45.8114ZM23.8437 3.15562L19.8141 3.16551C19.6981 3.28688 19.6587 3.47802 19.5547 3.6201C19.2347 4.05745 18.7806 4.38744 18.3364 4.68903L18.3546 4.71537C18.6052 5.08306 18.7425 5.61561 18.8551 6.04498L19.8303 9.11675L21.6957 14.0879C22.2877 15.4151 22.2445 16.9085 22.3163 18.3271C22.3312 18.6215 22.3843 18.9148 22.3953 19.2084L22.4042 31.2637C22.403 31.9461 22.4533 32.6865 22.3434 33.3592L21.603 43.9057L24.2226 43.8941L26.4158 43.8949C26.3512 43.6629 26.3367 43.413 26.3079 43.1742L25.7638 37.0235C25.7539 36.8648 25.7199 36.712 25.7105 36.5521L25.5877 32.4425C25.5803 32.1824 25.5353 31.928 25.5302 31.668L25.5275 22.7717C25.5312 22.5283 25.5825 22.2946 25.5867 22.0511L25.5973 19.093L25.7759 16.5699C25.9224 14.5439 26.5146 13.6168 27.2249 11.7575L29.4764 5.02868C29.6669 4.52764 29.7391 4.69667 29.2999 4.40116C28.8425 4.09338 28.4149 3.67038 28.1643 3.17792C28.0046 3.15399 27.8353 3.16365 27.6738 3.1631L23.8437 3.15562ZM17.4734 5.36876L12.6294 7.72475L13.1551 10.2158C13.1977 10.366 13.2036 10.5239 13.2395 10.6753C13.4434 11.5347 13.6101 12.46 13.7979 13.3355L14.585 17.163C14.7356 18.0075 14.8303 18.909 15.1318 19.7176L15.3833 20.768C15.5482 21.6926 15.6653 22.5873 15.6809 23.5243L15.6998 24.5367C15.6899 27.1381 15.1148 28.9363 14.4469 31.414L13.6213 35.0573C13.4492 35.8852 13.3063 36.7489 13.2152 37.5893L13.1229 38.5084C13.0908 38.9863 13.0183 39.4558 13.015 39.9331L13.0115 40.9088C13.0083 41.7645 12.7875 42.7249 13.7556 43.1396L15.1582 43.604L18.4101 44.6266C18.8088 44.74 19.3153 44.9784 19.7381 44.915L19.7644 44.9116C20.4464 44.8092 20.4295 44.243 20.4702 43.7627L21.0937 37.5127L21.2008 35.8487L21.2166 33.023C21.2282 32.7252 21.2821 32.4256 21.2913 32.1232L21.2937 19.452L21.1255 16.9128C20.9979 15.1465 20.6698 14.5664 20.0129 12.9162L17.9379 6.86056C17.7842 6.37198 17.6645 5.84239 17.4734 5.36876ZM30.5603 5.38329C30.3044 5.93398 30.167 6.52428 29.9846 7.10084L27.9719 12.9087C27.3633 14.4022 26.9371 15.2459 26.8584 16.8614L26.7281 18.8445L26.7238 33.9136C26.7298 34.1551 26.7711 34.3997 26.7812 34.6425L26.794 35.6861C26.795 35.8805 26.7849 36.0847 26.8181 36.2764L26.8549 36.6886C26.9249 37.1817 26.8788 37.6993 26.9232 38.2003L27.5166 43.9332C27.6486 44.9881 28.4428 44.9072 29.2048 44.6783L32.8074 43.5932L33.9757 43.2097C34.3788 43.0674 34.6252 42.9787 34.8252 42.5855L34.8463 42.5446C34.9715 42.298 34.9601 42.0322 34.9618 41.7634L34.9539 39.6344C34.9448 39.4571 34.9148 39.2817 34.8998 39.105L34.677 36.9923L33.8648 32.8003L33.1685 30.0728C32.9557 29.2764 32.7286 28.4953 32.5677 27.685C32.0635 25.1461 32.2445 22.251 32.8553 19.7574C32.9728 19.278 33.1412 18.8175 33.2252 18.3298L34.545 10.7772C34.7541 9.73709 34.937 8.68761 35.2409 7.66943L30.5603 5.38329ZM36.0012 9.17534L35.9991 9.19536C35.9657 9.48992 35.8668 9.79704 35.8086 10.0895L35.3645 12.2856L34.3691 18.2097C34.3391 18.4371 34.2651 18.6282 34.3508 18.8518L36.6664 25.0999C36.698 25.1922 36.74 25.2768 36.7697 25.3707L38.7215 30.6472C38.7346 30.6919 38.7511 30.7303 38.7695 30.773L40.6431 36.1167C40.9844 37.0453 41.223 37.5126 42.3733 37.1948L42.3806 37.1915C43.088 37.002 43.6996 36.6649 44.1735 36.1014C44.1026 35.5685 43.9437 35.0248 43.8247 34.4996L42.8448 30.4767C41.4576 24.8808 39.9949 19.2757 37.9654 13.8729L36.5208 10.2558L36.0012 9.17534ZM11.8491 9.29637L11.8398 9.32708C11.7493 9.61662 11.6108 9.90434 11.4961 10.1866L9.16916 16.2131L6.93041 23.5702L3.90381 35.5027C3.85348 35.688 3.74553 35.8599 3.83917 36.0407C4.10787 36.5595 4.79596 36.9533 5.3368 37.1259L5.67711 37.2214C5.94046 37.2537 6.20666 37.2951 6.46827 37.23L6.503 37.2218C7.06864 37.0801 7.18677 36.5596 7.34103 36.0782L8.828 31.7865L13.6725 18.8043C13.7446 18.6342 13.6546 18.3624 13.6253 18.187L12.0793 10.5023C12.0019 10.113 11.8701 9.69097 11.8491 9.29637Z" fill="black"/>
</svg>
