<svg width="48" height="48" viewBox="0 0 48 48" fill="none" xmlns="http://www.w3.org/2000/svg">
<path d="M24.8403 41.4337C24.5899 40.6744 24.1265 39.1359 24.0411 38.3281L24.0117 38.3024C23.9896 38.5046 23.8946 38.7162 23.8476 38.919L23.685 39.6096C23.4264 40.6801 23.0624 42.1141 22.439 43.0411C20.1198 46.4898 14.9374 45.9858 11.8881 43.8894C11.3856 43.5439 10.6103 42.98 10.4878 42.3415C10.4257 42.0171 10.5475 41.6383 10.5955 41.317L12.8893 26.1449C13.0904 25.0853 12.8946 23.8595 12.7866 22.7934L12.5437 20.417L11.7538 16.3914C11.6838 16.1551 11.5929 15.9033 11.5502 15.6614L11.5459 15.6355C11.4065 14.8433 12.4335 14.3791 12.7615 15.1137L12.7734 15.141C13.0948 15.8689 13.2239 16.6813 13.4069 17.4496C13.8577 19.3418 14.0498 21.2954 14.2027 23.2327L14.3173 25.255C14.3176 25.4484 14.337 25.4384 14.4872 25.5486L17.2149 27.5668C17.4082 27.713 17.7555 27.9239 17.8095 28.1841L17.8209 28.2607C17.902 28.7844 17.4005 29.3317 16.8727 29.0288C16.6613 28.9076 16.4526 28.7316 16.2583 28.5839L14.4618 27.2587C14.3628 27.1847 14.257 27.1282 14.1664 27.0424L11.8726 42.0943C12.1308 42.3693 12.4407 42.5713 12.757 42.7732C14.8226 44.0924 18.0572 44.868 20.2383 43.3698C21.7034 42.3633 22.1231 40.3555 22.4648 38.7313L23.1829 35.1918C23.2878 34.6138 23.267 34.2816 23.2675 33.6903L23.2696 20.171C23.2708 19.6922 23.3238 19.2145 23.4849 18.7593C23.046 16.7004 22.0005 14.6969 20.6133 13.1243C20.3767 12.856 20.08 12.6232 19.829 12.3643C18.5964 11.0927 17.816 9.55124 17.0147 7.9926L15.6346 5.4522C15.5175 5.25045 15.4504 5.1126 15.515 4.87522L15.5039 4.82881C15.3019 4.96311 15.0274 5.05044 14.8027 5.14775L13.1232 5.84806C12.6578 6.03885 12.1667 6.19864 11.7484 6.48345C10.158 7.56636 10.076 9.11206 9.79774 10.8637L9.28905 15.1519L8.90599 20.178L8.86643 21.621C8.85644 21.8207 8.81421 22.0165 8.80502 22.2159L8.77619 23.8949C8.76799 24.0544 8.73288 24.2112 8.72594 24.3705L8.68455 25.9963C8.67476 26.6963 8.61054 27.3287 8.60651 28.0296L8.60463 35.6623C8.60599 36.0231 8.73105 36.9603 8.68788 37.1674C8.54711 37.8424 7.69765 37.916 7.39057 37.3357C7.28702 37.1401 7.32021 36.8177 7.31805 36.5981L7.3008 35.3653C7.29096 35.171 7.25388 34.9809 7.24676 34.7855L7.2439 27.4586L7.41911 21.9885C7.42924 21.752 7.48038 21.5189 7.49215 21.2813L7.52416 20.1006L7.94238 14.838C8.09346 13.2568 8.25147 11.6788 8.52518 10.1137C8.90627 7.93475 9.2868 6.01161 11.6046 4.97853L17.8359 2.34221L18.6693 1.92623C18.9451 1.7966 19.3554 1.78283 19.4451 1.7305C19.5968 1.64206 19.7263 1.54723 19.8992 1.50293C20.6343 1.54964 21.3887 1.51829 22.1261 1.51852L27.489 1.51698C28.0503 1.51174 28.0741 1.47266 28.5918 1.70317L36.1939 4.87414C37.5598 5.49781 38.5029 6.47033 39.0003 7.92228C39.492 9.35769 39.6168 10.9669 39.8071 12.4616L40.3269 18.3777C40.3339 18.466 40.3571 18.5518 40.3633 18.6401L40.658 24.898L40.7013 26.6669C40.7121 26.8602 40.7445 27.0509 40.7483 27.2444L40.752 35.5991C40.7507 36.0836 40.7888 36.6077 40.7094 37.086C40.5518 38.0348 39.4562 37.787 39.3749 37.2136C39.3529 37.0583 39.3852 36.8702 39.3894 36.7124L39.3815 27.4661L39.2775 24.7415C39.2624 24.4471 39.2079 24.153 39.2004 23.8598L39.1002 20.6238C39.0829 20.1234 39.0221 19.6198 38.9955 19.1032L38.2803 11.4325C38.0393 9.67428 37.8965 7.40586 36.1687 6.41352C35.7412 6.16799 35.2615 6.00153 34.8072 5.8115L32.571 4.87794C32.5451 5.35344 32.3022 5.62063 32.0745 6.02258L25.743 17.146C25.3507 17.8712 24.7719 18.6607 24.731 19.5136L24.7273 33.6559C24.7279 34.6643 24.8995 35.4178 25.0873 36.4073L26.0446 40.7113C26.5959 42.769 27.7845 43.784 29.8125 44.0871C31.8743 44.3954 34.2791 43.9702 35.8019 42.4473C36.1364 42.1128 36.1966 42.157 36.1124 41.7108L34.0649 28.5846C33.9944 28.0595 33.9531 27.5073 33.832 26.992C33.566 27.1114 33.3123 27.3438 33.0792 27.5181L31.8703 28.3598C31.4875 28.6271 31.0649 29.1172 30.5559 28.8886C29.8278 28.5615 30.1136 27.904 30.6357 27.531L33.3518 25.6528C33.5393 25.5246 33.6784 25.5595 33.6785 25.3109L33.7741 23.3519L34.1506 19.8285C34.342 18.5525 34.5806 17.2854 34.9201 16.0391C35.0207 15.6699 35.121 14.8438 35.568 14.7183L35.5979 14.7105C35.6957 14.6842 35.7713 14.6653 35.872 14.6885L35.9765 14.7148C36.1523 14.7674 36.3039 14.9128 36.3858 15.0734L36.4238 15.1439C36.5029 15.2879 36.4831 15.5322 36.4368 15.6863C35.9398 17.3419 35.6309 19.0396 35.4297 20.7543L35.123 24.1273C35.0812 25.0312 35.0126 25.475 35.1358 26.3732L37.5439 42.0004C37.6582 42.8996 36.4407 43.8005 35.8008 44.2175C34.3223 45.1808 32.866 45.5444 31.1415 45.5488C27.9365 45.5572 25.9359 44.5321 24.8403 41.4337ZM21.1169 2.98373L21.0468 3.00016C21.0119 3.10942 21.2775 4.21919 21.3182 4.3618L21.4116 4.76024C21.4495 4.89097 21.4606 5.02939 21.5028 5.15853L22.3491 8.92109C22.3832 9.04367 22.3926 9.16953 22.4182 9.29338L23.4893 14.3676C23.623 15.1718 23.7743 15.3115 24.0227 16.0317L24.0929 16.1958L24.5508 13.8679L26.9455 2.99315L21.1169 2.98373ZM19.6009 3.059L19.5785 3.07424C18.9999 3.462 18.285 3.61406 17.7907 3.93791C18.0123 4.2386 18.1242 4.55708 17.8146 4.89983C17.6294 5.10481 17.3332 5.12703 17.0798 5.18066C17.2998 5.68185 17.6301 6.15636 17.887 6.64377L19.2371 9.21552C19.5251 9.71211 19.8451 10.1844 20.1813 10.649C20.5398 11.0993 21.0436 11.7065 21.5675 11.9781C21.5142 11.5659 21.3949 11.152 21.3156 10.7418L19.8103 3.89585C19.7502 3.62807 19.7308 3.32929 19.6401 3.07182L19.6009 3.059ZM28.3432 3.0534L25.9488 13.8786L27.0038 12.0679C27.3267 11.4262 27.7115 10.8212 28.0718 10.2008L30.1116 6.63566C30.3773 6.15491 30.7222 5.67959 30.921 5.16908L30.8966 5.16795C30.4081 5.13941 29.9464 4.8567 30.0062 4.30851L30.0206 4.21354C30.0403 4.09823 30.124 4.03283 30.1658 3.92999L28.3432 3.0534Z" fill="black"/>
<path d="M33.7383 12.2754L30.4461 12.2765C30.3302 12.2767 30.1945 12.2882 30.0818 12.2667C29.4819 12.1523 29.2483 10.893 30.4049 10.8861L31.2013 10.8836C31.6868 10.8831 34.7171 10.8252 34.9207 10.9298L35.0329 10.9802C35.1788 11.0515 35.2823 11.169 35.3313 11.3237L35.3436 11.3676C35.5404 12.0557 35.1172 12.2768 34.5502 12.2756L33.7383 12.2754Z" fill="black"/>
</svg>
