<svg width="48" height="48" viewBox="0 0 48 48" fill="none" xmlns="http://www.w3.org/2000/svg">
<path d="M17.2057 41.7662L15.9098 41.2631C13.8282 40.4683 13.3351 40.1305 13.3335 37.9549L13.32 33.9632C13.3141 33.7788 13.2787 33.6038 13.2653 33.4214L13.2402 32.6971C13.2081 31.3234 13.1843 29.9302 13.1349 28.5581L13.0386 25.0952L12.9614 24.1994C12.9404 23.7392 12.9952 23.2348 12.9178 22.7834C12.8091 22.1499 12.8834 21.5012 12.7912 20.8669C12.2071 22.2365 11.7593 23.677 11.4024 25.1218L9.13462 35.5012L7.78977 41.1227C7.73568 41.3253 7.70521 41.5484 7.6102 41.7367L7.59515 41.7652C7.32023 42.2951 6.50849 42.0607 6.0352 42.0138L1.8985 41.5229C1.67432 41.5009 1.42073 41.5204 1.20661 41.4529L1.17191 41.441C0.592821 41.248 0.629145 40.7291 0.662979 40.2433L1.32532 35.0746L2.76572 27.9453L3.8384 23.9058C5.09601 19.3288 6.7056 14.845 8.60371 10.4948L8.98762 9.6026C9.39243 8.63013 9.23282 8.80929 10.2372 8.49251C11.6679 8.04119 12.6685 7.43515 14.0056 6.90326L14.8483 6.5779C15.2306 6.4444 15.0601 6.55868 15.2751 6.21959C16.4814 4.31698 18.7179 4.96212 20.3072 5.89315L23.9974 8.01335L26.8051 6.41355C27.9375 5.74376 28.9595 5.03754 30.3227 4.97857C31.2509 4.95499 32.0715 5.33632 32.6269 6.09143C33.0395 6.65248 32.8281 6.40934 33.5039 6.70301L34.9275 7.33315C35.5452 7.61121 36.1378 7.93713 36.7735 8.17432L38.0702 8.59015C38.4442 8.70007 38.6579 8.6741 38.8257 9.10465L41.5083 15.691L42.7656 19.2733L44.2341 24.1353C44.2427 24.182 44.25 24.2225 44.2647 24.2678L44.6139 25.5393C44.6624 25.8139 44.7417 26.1083 44.8131 26.3785L45.2435 28.105C45.2869 28.3061 45.3237 28.5115 45.3756 28.7105L46.7265 35.3917C46.7517 35.5199 46.7594 35.6523 46.7779 35.7816L47.3457 40.0425C47.401 40.7321 47.5875 41.4867 46.5237 41.5081L42.6257 41.9671L41.3814 42.0815C41.2418 42.0971 41.1101 42.1467 40.9708 42.1599C40.434 42.2104 40.2987 41.5454 40.2127 41.1558L38.8477 35.4077L36.6477 25.2941C36.2772 23.788 35.8188 22.2602 35.1822 20.8437C35.1452 21.1799 35.1434 21.4986 35.1276 21.8344L35.0487 23.7013C35.0389 24.0496 34.9625 24.386 34.9499 24.7345L34.9352 26.9177C34.9271 27.1497 34.8828 27.3749 34.8767 27.6073L34.8645 29.3976C34.857 29.582 34.8043 29.7565 34.7998 29.9402L34.7444 34.1949C34.7369 34.4641 34.6832 34.7251 34.678 34.9971L34.6694 37.6754C34.6691 39.8306 34.6009 40.2955 32.2844 41.155L29.2849 42.3399C27.6597 43.0175 26.1856 43.4051 24.732 41.9244C24.6773 41.8687 24.6234 41.7989 24.5557 41.7603C23.1195 43.0102 21.0878 43.2817 19.3081 42.6469C18.594 42.3922 17.9214 42.0236 17.2057 41.7662ZM17.353 6.35646C16.9813 6.43727 16.6656 6.58952 16.4577 6.92534L16.3722 7.08823L22.9702 18.4786L23.2947 19.049C23.3548 18.4832 23.3169 17.8814 23.3177 17.3106L23.3186 10.7682C23.3184 10.2472 23.358 9.69044 23.3095 9.17454L20.5773 7.62846C19.595 7.06516 18.549 6.24691 17.353 6.35646ZM30.1305 6.3574C29.0619 6.5373 28.0813 7.24844 27.1641 7.7823L24.9644 9.06424C24.8594 9.12649 24.7428 9.14951 24.6573 9.24077L24.6538 18.0984C24.6541 18.5037 24.6165 18.9455 24.6996 19.3421L25.2253 18.22C26.0644 16.4846 27.0615 14.8178 28.0412 13.159L31.5104 7.33943C31.5679 7.25144 31.6403 7.16149 31.6784 7.06399C31.2931 6.50477 30.7817 6.29721 30.1305 6.3574ZM15.2691 7.87127L13.7305 8.52898C12.7161 8.99257 11.682 9.55394 10.5933 9.82348C10.5321 9.83862 10.3756 9.85816 10.3321 9.88788C10.2857 9.91952 9.00702 12.9468 8.89809 13.2394L6.67659 19.1817C5.06488 23.941 3.84207 28.8319 2.91295 33.7682L2.06146 39.6118C2.04671 39.7928 2.04458 39.977 2.01826 40.1567L6.52767 40.7156L9.99923 25.1666L10.835 22.1967C11.2652 20.896 12.0546 19.0199 12.8342 17.8588L12.8578 17.8361C13.1258 17.5819 13.5508 17.524 13.811 17.8297C14.0099 18.0634 14.0288 18.4342 14.0362 18.7261L14.1668 21.1661C14.2101 21.7616 14.1919 22.6228 14.2884 23.1229C14.3322 23.3501 14.3296 23.5911 14.332 23.8216L14.4423 28.0425C14.4475 28.1921 14.4823 28.3381 14.4869 28.4878L14.5466 31.6948L14.6893 34.7748L14.6905 38.2406C14.6908 38.4906 14.6643 38.8154 14.7672 39.0464L14.7796 39.0762C14.8995 39.3549 15.1701 39.5211 15.4431 39.6261L17.929 40.5969C18.7438 40.9278 19.5074 41.314 20.3716 41.5063C21.7176 41.8059 22.885 41.4181 23.8555 40.5115C23.1008 38.1867 22.723 36.4552 22.5846 33.9543L22.5333 30.9037C22.5335 29.6779 22.5104 28.4444 22.6182 27.2222L22.8164 25.4131C22.9737 24.412 23.2451 23.4364 23.5212 22.4639C23.5927 22.2118 23.6057 22.2473 23.4734 22.0364L21.677 18.9746L15.2691 7.87127ZM32.7661 7.88627L26.9071 17.8824C25.6874 20.236 24.6583 22.746 24.1962 25.3677L24.0854 26.1371C24.0336 26.6344 23.992 26.9638 23.978 27.48L23.9875 35.0379C23.9927 35.1453 24.0099 35.237 24.0392 35.3405C24.1464 35.7195 24.1284 36.1655 24.1957 36.5592L24.4315 37.738C24.4987 38.0531 24.5746 38.3936 24.694 38.6928L25.0403 39.789C25.3521 40.9417 26.2643 41.7979 27.5441 41.5293C27.8573 41.4635 28.1576 41.3177 28.4532 41.1986L31.9911 39.7918C32.7256 39.4924 33.3012 39.4896 33.3053 38.596L33.3087 35.273C33.3123 34.9115 33.3691 34.5542 33.3751 34.1921L33.482 30.7819L33.494 27.773C33.4969 27.5293 33.5448 27.288 33.5534 27.0441L33.5729 25.3774C33.5836 25.1008 33.6325 24.8269 33.6473 24.5506L33.7363 22.6441C33.763 21.7891 33.8301 20.9771 33.8675 20.124L33.9614 18.8433C33.9933 18.3427 34.0344 17.5216 34.7815 17.653C35.0903 17.7073 35.2971 18.0755 35.4359 18.3277L35.5074 18.4613C35.7599 18.889 36.0253 19.3429 36.2171 19.8008L37.4552 23.1441L37.791 24.3797C37.7987 24.4174 37.8097 24.4507 37.8216 24.4871L38.6611 27.9859L39.3826 31.457C39.3886 31.4904 39.3958 31.517 39.4054 31.5491L40.6286 37.1499C40.6698 37.2801 40.6801 37.4184 40.7215 37.5483L40.9103 38.3921C40.9463 38.5102 40.9568 38.6346 40.9895 38.7535L41.2161 39.6701C41.2652 39.8986 41.3542 40.4944 41.4829 40.6848L45.2424 40.2356C45.5017 40.2107 45.7893 40.2003 46.0404 40.1336L45.3623 35.3712C44.5983 31.0517 43.6484 26.745 42.398 22.5383L40.024 15.5179L38.2352 11.1889C38.0554 10.7713 37.9082 10.2913 37.6805 9.90096L37.639 9.89051C36.8137 9.67816 36.0244 9.35084 35.251 8.99787L33.3306 8.11962C33.1611 8.04504 32.9467 7.91023 32.7661 7.88627Z" fill="black"/>
<path d="M19.9806 34.5379C19.7487 34.5675 19.5089 34.5557 19.2757 34.5551L16.8389 34.5512C16.6011 34.5506 16.3524 34.5641 16.116 34.5416C15.207 34.4551 15.1344 33.29 16.0794 33.1709C16.5235 33.1419 16.9997 33.1781 17.4472 33.1787L19.0973 33.1795C19.4088 33.1792 19.8652 33.1113 20.1563 33.2142C20.8745 33.4682 20.6891 34.3442 19.9806 34.5379Z" fill="black"/>
<path d="M31.9154 34.5279C31.1762 34.59 30.4121 34.5534 29.6708 34.5537L28.7256 34.5534C28.5556 34.5532 28.3739 34.5659 28.2052 34.5479C27.4137 34.4631 27.3764 33.3721 28.155 33.168L30.7261 33.1762C31.1123 33.1768 31.5327 33.1449 31.9154 33.1863C32.775 33.2792 32.6736 34.3558 31.9154 34.5279Z" fill="black"/>
</svg>
