<svg width="48" height="48" viewBox="0 0 48 48" fill="none" xmlns="http://www.w3.org/2000/svg">
<path d="M27.1583 41.9195C25.784 41.3704 25.1149 40.6563 24.2857 39.4951C23.2252 41.2348 21.502 42.3053 19.4508 42.4428C18.9156 42.4787 18.3607 42.4504 17.8236 42.4502L16.9038 42.4492C16.0468 42.4478 15.1238 42.2683 14.3307 41.9516C13.2711 41.5286 13.504 41.2042 13.5816 40.2592L14.5185 29.629L14.5731 28.6976C14.6504 27.5923 14.6317 26.5121 14.5714 25.4033L14.5347 24.4345C14.2513 20.9208 13.2565 16.078 11.0324 13.2744C10.509 12.6147 9.97815 12.4006 9.86078 11.4361L9.82473 11.0803C9.7629 9.9195 10.4849 8.74247 11.5061 8.20312C11.9027 7.99364 12.3218 7.88934 12.7408 7.74075L15.6212 6.73505C16.3976 6.45975 16.4893 6.56198 17.1026 6.03056C18.1351 5.13605 19.1049 4.99978 20.4389 4.93359L20.4464 4.94316C22.0562 4.93186 23.0713 5.60086 24.0202 6.82125C24.5355 6.32695 25.3544 6.10875 26.0143 5.877L27.5392 5.34192C28.3537 5.05106 28.3431 4.79588 29.1632 5.1293C29.2705 5.17294 29.3842 5.17069 29.4962 5.19113C30.4201 5.35955 30.8866 6.24427 31.3501 6.41906L35.3224 7.73686C36.6398 8.19459 37.6262 8.44622 38.157 9.97308C38.3065 10.4033 38.3566 10.8032 38.3088 11.2611L38.3047 11.2973C38.1666 12.5953 37.6204 12.5597 36.9591 13.3131C35.7813 14.655 34.8851 17.0558 34.4239 18.727L34.0725 20.127C33.9589 20.5826 33.8867 21.0614 33.8054 21.5241L33.4209 24.7608C33.4111 24.8861 33.3751 25.0077 33.3673 25.1367L33.3688 28.3699C33.3775 28.5662 33.4191 28.7535 33.435 28.947L33.8459 34.4301L34.2683 39.1836C34.3076 39.6637 34.5647 41.2736 34.3371 41.6198C34.0097 42.1178 31.683 42.3483 30.889 42.3906C29.6314 42.4576 28.3412 42.3884 27.1583 41.9195ZM20.2421 6.19744C19.8884 6.23625 19.5742 6.29902 19.248 6.4455L20.4843 8.70577C21.0096 9.702 21.5249 10.7175 21.9646 11.754L22.8146 13.8577C22.8903 14.0422 23.0199 14.2166 23.0835 14.3962L23.0769 9.41011C23.0747 9.06708 23.0502 8.76033 23.1369 8.42517C23.1644 8.31853 23.2805 8.15409 23.2116 8.06105C23.0413 7.83117 22.996 7.56202 22.8325 7.32933C22.2721 6.53203 21.1923 6.13064 20.2421 6.19744ZM28.3205 6.38714C27.1694 6.8827 24.8818 7.25705 24.445 8.35823L24.3248 8.694C24.2975 8.78362 24.2835 8.87794 24.2794 8.97136L24.2836 14.7485C24.2861 15.1548 24.2524 15.6244 24.3422 16.02L24.3765 16.0323C24.4512 15.8915 24.4793 15.7156 24.5243 15.5627L25.2596 13.3344L26.2985 10.6176L27.4771 8.11411C27.7554 7.54261 28.0022 6.93005 28.3539 6.39994L28.3205 6.38714ZM30.6815 7.58245L30.5987 7.60589C30.7288 8.01713 31.6041 8.00742 31.2455 9.07073C31.005 9.78403 30.7239 10.4792 30.3751 11.1476L29.032 13.5644C28.4126 14.5715 27.7097 15.5267 26.9705 16.4477L25.649 18.0529C25.3706 18.3816 25.0511 18.666 24.8319 19.0434C24.2058 20.121 23.4187 22.003 23.412 23.2982L23.4132 29.7395C23.4239 29.9819 23.4809 30.2152 23.5009 30.4561L23.6018 31.6802C23.6386 32.0557 23.6849 32.4289 23.7258 32.8041L23.8701 33.8053C23.8919 33.9409 23.9003 34.0846 23.9383 34.2161L24.763 37.4348C24.9202 37.8984 25.1121 38.3168 25.3343 38.7526C26.7877 41.6026 30.5491 41.316 33.1868 40.7646L32.9701 38.5965L32.0865 27.4708L32.084 26.4102C32.0841 26.257 32.1375 26.14 32.003 26.0345L31.9404 25.9968C31.8022 25.9156 31.6841 25.7792 31.5697 25.6678L29.4918 23.5808C29.3387 23.4267 29.1489 23.2829 29.0093 23.1195C28.521 22.5483 29.1969 21.7132 29.8262 22.1673C30.3966 22.5789 31.7595 23.9977 32.2168 24.5407C32.4089 20.9893 33.4353 16.1241 35.5415 13.1211C35.7899 12.7669 36.0425 12.4215 36.368 12.1324C36.5246 11.9933 36.742 11.8721 36.8556 11.6978L36.8739 11.671C37.3535 10.9464 36.9467 9.85252 36.2401 9.44184L36.1173 9.37533C35.7153 9.16472 35.247 9.05016 34.8157 8.91019L31.4427 7.78997C31.2141 7.71333 30.929 7.55531 30.6815 7.58245ZM16.9934 7.61798L12.8416 9.0487C12.2168 9.27366 11.5988 9.50306 11.2765 10.1399C10.7034 11.2726 11.2201 11.5943 11.8478 12.2991C12.6438 13.1929 13.214 14.2831 13.6862 15.3754L14.6616 18.1613L14.9435 19.2402C15.1167 19.7706 15.184 20.3493 15.2931 20.8952C15.5454 22.1571 15.7724 23.7521 15.825 25.051L15.8215 28.9784C15.8105 29.1766 15.7695 29.3696 15.7512 29.5668L14.8129 40.1371C14.7963 40.3461 14.7937 40.5539 14.7499 40.7598C15.8705 41.2932 17.2247 41.1584 18.4337 41.1563C21.0194 41.1667 22.518 40.4194 23.619 38.102L23.0149 35.8832C22.5908 34.153 22.323 32.069 22.2383 30.279L22.2254 23.9622C22.221 22.4269 22.337 21.6722 22.9234 20.1746L23.1722 19.5645C23.3702 19.1323 23.307 19.3222 22.775 18.9328C19.9071 16.8336 17.9048 13.4915 16.8015 10.1723C16.5035 9.27577 16.2302 8.66306 16.9854 7.93402C17.0722 7.85025 17.4324 7.61606 17.0776 7.61273L16.9934 7.61798ZM29.0315 7.79339C28.9062 8.07413 28.7501 8.33981 28.6128 8.61469L27.75 10.4067L25.8136 15.5483C25.756 15.7125 25.6867 15.8715 25.6508 16.0423L26.1137 15.4828C27.5476 13.7442 28.8788 11.6126 29.7432 9.52777L29.9527 8.97698C29.9779 8.90606 30.0176 8.82567 30.0119 8.75077L29.2681 8.0002C29.2238 7.95647 29.0825 7.80197 29.0315 7.79339ZM18.6657 7.92291C18.3519 8.27817 17.9462 8.60634 17.7176 9.02517C17.7928 9.2527 17.853 9.50705 17.9444 9.72619L19.1945 12.6523C19.8307 13.9818 21.5379 16.2628 22.6076 17.1105L23.1304 17.5751L18.6657 7.92291Z" fill="black"/>
<path d="M24.8525 25.2997C23.8343 25.2779 23.8119 24.1481 24.6843 23.9807C24.7458 23.9751 24.7978 23.9808 24.858 23.9915L24.8905 23.9975C25.5486 24.1104 25.5775 25.1364 24.8525 25.2997Z" fill="black"/>
<path d="M24.776 29.8255C23.8872 29.7614 23.7813 28.6573 24.7212 28.5312C24.9907 28.5422 25.2433 28.6385 25.3605 28.9002L25.3749 28.9338C25.5653 29.3637 25.2042 29.7966 24.776 29.8255Z" fill="black"/>
</svg>
