<svg width="48" height="48" viewBox="0 0 48 48" fill="none" xmlns="http://www.w3.org/2000/svg">
<path d="M34.4571 45.1322C33.4641 45.5837 32.4583 46.0018 31.3767 46.1857L29.5598 46.4182C29.4046 46.4329 29.2516 46.4679 29.0961 46.476L20.7202 46.4822C20.0116 46.4821 19.33 46.5035 18.6264 46.4225L17.7073 46.3245C15.3008 46.0757 14.3291 45.4654 12.1409 44.5075L11.4272 44.2038C10.7806 43.9328 10.5973 43.7769 10.6757 43.0954L11.7913 32.2344C11.8115 31.9432 11.8003 31.6467 11.8018 31.3547L11.8033 26.3471L11.6594 24.4534C11.6211 24.0722 11.5922 23.6822 11.5214 23.3055L11.3407 22.3313C11.2639 21.9083 11.0856 21.3477 11.6051 21.1252C12.4539 20.7617 12.5905 22.4502 12.6562 22.9339L12.8557 24.545C12.9243 25.2205 12.8595 25.9647 12.9637 26.5661C13.0134 26.8528 13.0076 27.1427 13.0082 27.4324L13.0074 32.156C13.7031 32.2139 14.3972 32.4585 15.0722 32.6309L16.0254 32.8794C16.2776 32.952 16.5976 33.0022 16.6874 33.2932L16.7282 33.4009C16.754 33.4932 16.7497 33.6669 16.7047 33.7517L16.6923 33.7737C16.3576 34.4503 15.4098 33.9703 14.8779 33.8378C14.2194 33.6737 13.5481 33.5458 12.9018 33.3366L11.8933 43.0379L12.0019 43.1015C12.1584 43.1822 12.3328 43.2391 12.496 43.3059L13.3127 43.6645C15.3594 44.6134 17.2797 45.5388 19.6117 44.8041C21.2689 44.2819 22.632 42.8076 23.1236 41.1538C23.3545 40.3773 23.3192 39.605 23.3191 38.8067L23.3176 23.7184C23.3193 22.9849 23.6691 22.2222 23.999 21.5795L23.3324 20.7856C21.5965 18.5364 20.7515 15.766 19.8672 13.1075L17.4167 5.90654C17.3771 5.80056 17.3249 5.71988 17.2611 5.62735L16.2771 6.87226L16.4702 6.94871C16.8907 7.14081 17.2169 7.49846 16.9057 7.94818C16.4825 8.55966 15.5616 7.73645 15.0442 7.83034C14.4211 7.9434 13.8109 8.18584 13.1956 8.34315L7.86826 9.5582C7.47249 9.62363 7.10134 9.7104 6.85913 10.0579L6.83495 10.0934C6.56621 10.477 6.65424 10.8786 6.60643 11.3167L5.3012 23.6201L4.1263 32.8831L3.7518 37.0305C3.71594 37.4372 3.74739 37.8542 3.69461 38.2584L3.66556 38.569C3.60927 38.9178 3.64169 39.3074 3.63104 39.662L3.56774 41.2736C3.56722 41.5612 3.60341 41.8879 3.56873 42.1704C3.48594 42.8447 2.45895 42.7895 2.37072 42.1122C2.33836 41.8637 2.36444 41.5766 2.36419 41.3246L2.46152 38.329C2.49425 37.8157 2.51856 37.2159 2.5663 36.7236L3.02566 31.9361L4.67515 18.2771L5.41478 10.8391C5.48729 9.86912 5.8097 9.08288 6.73431 8.60049C7.19124 8.36218 7.69524 8.33706 8.19165 8.24846L9.53931 7.96843L14.6581 6.67384C15.0056 6.57938 14.9443 6.62176 15.1626 6.33685L18.6135 2.06638C18.8673 1.75849 19.151 1.25659 19.6439 1.46472L21.3647 2.13255C22.7342 2.64904 23.7674 3.09717 25.3119 2.60912C25.6601 2.49909 25.9697 2.30844 26.3069 2.1739L28.5345 1.34216C28.9192 1.2874 29.0509 1.48524 29.2716 1.75095L29.7687 2.34404C30.6596 3.40355 31.5769 4.44322 32.3972 5.55962L32.9434 6.31332C33.0761 6.50602 33.0609 6.63151 33.3013 6.66962L40.3708 8.33232C41.9645 8.61685 42.4044 9.4794 42.5712 11.0393L43.5047 20.0511L44.7594 29.9785L45.6064 39.5772L45.6197 41.8502C45.6369 42.9417 44.5339 42.7367 44.4452 42.1945L44.4414 42.1644C44.3645 41.5792 44.4339 40.9527 44.4129 40.3607L44.131 35.5198L43.1493 27.1878L41.9438 16.805L41.3781 11.2662C41.2065 9.75034 41.2803 9.78896 39.6218 9.4502L33.6428 7.97551C32.8635 7.74067 32.9119 7.81702 32.1413 8.10812C31.0818 8.50824 30.4999 7.27581 31.8276 6.88857C31.4873 6.51751 31.2202 6.05481 30.9052 5.65852C30.8005 5.75448 30.7313 5.93846 30.6766 6.06887L29.8639 8.23674L28.1964 13.5706L26.5946 17.8652C26.3547 18.3957 26.0629 18.9017 25.8502 19.4438C26.1023 19.1974 26.3136 18.9284 26.5337 18.6542L27.515 17.339L32.503 9.66774C32.6477 9.45976 32.7749 9.12507 33.0595 9.08715C33.3989 9.04187 33.7101 9.25862 33.7548 9.60404L33.7584 9.6331C33.8312 10.1102 33.3113 10.595 33.0689 10.969L31.512 13.3817C29.9694 15.7807 28.5903 18.3834 26.6133 20.4659L25.8757 21.2059C25.2059 21.842 24.6698 22.5147 24.6749 23.5029L24.6782 38.5886C24.6788 39.3162 24.6425 40.0685 24.7983 40.7815C25.4294 43.6685 28.1091 45.4655 31.058 44.994C32.9489 44.6917 34.359 43.6633 36.0481 43.0614L36.0929 43.0459C36.1052 42.8171 36.0513 42.5688 36.0339 42.3392L35.1226 33.4133C34.8474 33.4577 34.5783 33.5574 34.3076 33.6245L32.6822 34.0004C32.4575 34.0509 32.2194 34.1326 31.9899 34.1483C31.4517 34.1851 30.8314 33.2457 32.1533 32.8924L34.9925 32.1721C35.0649 31.7831 34.9009 30.9045 34.8967 30.4573L34.9002 26.3792L35.0788 24.3118C35.1338 23.8151 35.4143 21.5122 35.819 21.2084C36.3288 20.8256 36.8655 21.3517 36.7154 21.9968C36.5464 22.7225 36.3868 23.4668 36.2932 24.2063L36.2289 24.9284C36.1019 26.1347 36.1148 27.3227 36.1141 28.5356L36.1434 30.765C36.1566 31.1892 36.1918 31.5872 36.2281 32.0105L37.3019 42.8998C37.3698 43.7951 37.3803 43.8248 36.578 44.1823L34.4571 45.1322ZM28.2825 2.73076C27.6979 2.88999 27.0709 3.11236 26.5156 3.35723C26.2108 3.49162 25.9198 3.66179 25.6072 3.77807C24.2048 4.29967 22.6392 3.91279 21.2944 3.40385L19.643 2.80279C19.7154 3.00383 19.8398 3.16843 19.9432 3.35345L22.2287 8.19713L23.4726 10.6998C23.664 11.0875 23.8246 11.4863 24.0607 11.8503L28.2665 3.23682C28.3324 3.0953 28.5228 2.79048 28.2825 2.73076ZM18.7907 3.73119L18.3216 4.39678C17.9787 4.89488 18.2739 4.74174 18.4682 5.34404L18.8792 6.42442L22.0595 15.7262L23.1797 18.3984C23.3439 18.7345 23.3709 18.6872 23.3417 18.3513L23.3059 14.3569C23.3022 14.1531 23.3074 13.9658 23.3535 13.765C23.5189 13.0445 22.8671 12.2272 22.5312 11.5487L20.3926 7.21904L19.0401 4.2075C18.9736 4.06125 18.9141 3.90498 18.821 3.77373L18.7907 3.73119ZM29.3249 3.75832L27.6838 7.32568L25.0302 12.6448C24.6072 13.5274 24.6732 13.8874 24.6767 14.8651L24.6781 17.8774C24.6773 18.1918 24.6522 18.5155 24.7149 18.8246L24.9686 18.3683C25.7077 16.9072 26.268 15.4094 26.8026 13.8639L28.9484 7.20456C29.2611 6.35438 29.6088 5.48593 30.0539 4.69557L29.3249 3.75832ZM23.9806 42.387L23.9726 42.4059C23.5499 43.3811 22.5864 44.6045 21.6453 45.1636C21.9557 45.2147 22.2774 45.2013 22.5912 45.2016L23.9944 45.2012L26.3476 45.1871L26.0828 44.9926C25.1288 44.3734 24.5564 43.3461 24.0073 42.386L23.9806 42.387Z" fill="black"/>
<path d="M18.9219 15.6205C18.3383 15.6807 18.1674 15.1922 17.8514 14.7973L14.5497 10.3949C14.2188 9.88186 13.9998 9.40486 14.7254 9.11958C15.1877 9.07519 15.2838 9.37772 15.5239 9.71517L18.9444 14.2445C19.071 14.3985 19.2325 14.5615 19.3232 14.7391L19.3608 14.8095C19.5105 15.1328 19.1898 15.4929 18.9219 15.6205Z" fill="black"/>
</svg>
