<svg width="48" height="48" viewBox="0 0 48 48" fill="none" xmlns="http://www.w3.org/2000/svg">
<path d="M36.4122 41.1521C35.9831 41.4848 35.4933 41.6371 34.9765 41.7754L32.707 42.2841L30.3971 42.9545L28.3263 43.7116C27.5796 43.9889 27.522 43.9345 26.8296 43.5873C25.5564 42.9489 24.7696 42.1497 23.9849 41.0028L23.5696 41.5874C23.1521 42.1345 22.6963 42.6376 22.1279 43.0311C21.8437 43.2278 20.6642 43.9771 20.3287 43.9072L20.2968 43.8996C19.9034 43.8113 19.5065 43.6132 19.1227 43.4795L16.7108 42.7066C15.0463 42.2257 13.9963 42.5343 12.3024 41.6243C11.3909 41.1346 10.8542 40.6997 10.8513 39.6568L10.8561 38.837C10.9182 36.3387 11.6967 33.3639 12.5246 31.0388C13.2804 28.9164 14.0512 27.0966 14.3385 24.8324L14.4479 23.7416C14.519 23.194 14.5139 22.6091 14.515 22.0567C14.5204 19.3058 14.2411 17.2764 13.2168 14.7485C13.0792 14.409 12.8584 14.0595 12.7642 13.7065C12.6279 13.1956 13.1726 12.7371 13.6463 12.9688C14.4824 13.3778 15.4277 17.1185 15.6096 18.3519L15.6713 18.9613C15.7761 19.7496 15.8191 20.5374 15.8203 21.3321L15.8163 23.2644C15.6578 26.8772 14.5325 29.1776 13.4173 32.5121C12.6866 34.6966 12.1738 37.1031 12.1637 39.4199C12.1627 39.6656 12.0949 39.8249 12.2948 39.9964C13.6484 41.158 14.6193 40.873 16.1367 41.181C16.5946 41.274 17.042 41.4131 17.4891 41.5472L20.3089 42.4897C20.3942 42.5246 20.7034 42.3227 20.7903 42.2777C21.8961 41.7049 22.5985 40.7333 23.171 39.6584L22.5253 37.9925C21.9045 36.1246 21.7897 34.3804 21.7881 32.4347L21.7888 27.605C21.7921 25.3954 22.0834 23.1673 23.0922 21.168C22.6189 20.4055 22.2736 19.98 21.8657 19.1183C21.399 18.1327 21.4349 18.1436 20.6669 17.3254L19.6757 16.2428C18.2089 14.6147 17.0295 12.7641 15.9988 10.8371C15.5234 9.94829 15.3327 9.88205 16.303 9.18643L17.856 8.07361C17.3688 7.65858 16.7783 7.2713 16.2332 6.94266L11.1413 9.21366C10.8148 9.35865 10.639 9.63507 10.5879 9.98138L10.2285 12.7546L10.0958 14.9019C10.08 15.1829 10.0167 15.458 10.0099 15.7416L10.0022 24.9526C10.0025 25.2803 10.0182 25.6164 9.99895 25.9428C9.97003 26.4337 9.44283 26.7429 8.99995 26.4862C8.5222 26.2092 8.65612 25.6816 8.65641 25.2204L8.66259 17.1531C8.66681 16.9768 8.70398 16.8052 8.70825 16.629L8.73164 14.8421C8.74031 14.6753 8.7788 14.5182 8.78981 14.3536L9.26011 9.95396C9.53606 8.45911 10.2332 8.08032 11.6367 7.59408L12.6979 7.16846L18.5094 4.37449C18.7192 4.26317 18.9348 4.12154 19.164 4.05722C19.4595 4.04686 19.7346 4.13089 19.8851 4.40972C20.3711 5.30977 20.7619 6.27029 21.1289 7.22316C21.4221 7.98465 21.6019 8.83055 21.8587 9.58421L23.7327 16.3646C23.8374 16.6595 23.8755 16.992 24.0258 17.2667C24.0623 17.2051 24.0689 17.1088 24.0845 17.0379L26.5867 7.99866L27.8377 4.94213C28.4723 3.65465 28.6907 4.00122 29.7115 4.50759L31.7025 5.47946C31.9149 5.57982 32.1581 5.59285 32.3805 5.69157L36.9285 7.7648C38.1104 8.35182 38.4329 8.66635 38.7185 9.90268C38.8876 10.6346 38.9436 11.3951 39.0106 12.1428L39.1993 14.4782C39.2059 14.5789 39.234 14.6741 39.24 14.7749L39.2886 16.348C39.2962 16.5405 39.3402 16.7314 39.346 16.9222L39.3507 24.8087C39.3503 25.1989 39.3743 25.6075 39.3382 25.9958C39.2969 26.4397 38.7801 26.7414 38.3906 26.5079L38.3621 26.4901C37.8665 26.1642 38.0353 25.3941 38.0351 24.8933L38.0241 16.2542C38.0184 16.0868 37.9844 15.9276 37.9663 15.7621L37.6289 11.5272C37.3572 9.39755 37.6001 9.56213 35.7827 8.74168L32.4727 7.23071C32.266 7.13874 32.0439 7.06079 31.8509 6.94215L31.8326 6.93057C31.2543 7.22236 30.659 7.65943 30.1579 8.07769L31.6797 9.15455C32.062 9.4254 32.5923 9.6811 32.3118 10.2659C31.0832 12.8272 29.4403 15.0371 27.5213 17.1097C26.7616 17.9303 25.8056 18.6317 25.2304 19.6049C24.8957 20.1712 24.7179 20.7765 24.4703 21.3775L24.0931 22.2074C23.8843 22.6841 23.6966 23.182 23.5575 23.6839L23.3566 24.5387C23.259 25.0536 23.2009 25.4995 23.1863 26.0287L23.2095 34.5472C23.2342 35.1818 23.3331 36.199 23.5479 36.7594L24.1182 38.4847C24.8376 40.2436 25.9446 41.7453 27.7128 42.5126C28.1138 42.3225 28.5439 42.1906 28.9603 42.0378L30.3632 41.5332L33.5663 40.7111C34.1792 40.5837 34.8694 40.4851 35.4257 40.1842C35.8239 39.9688 35.8332 39.9981 35.833 39.5849L35.7433 37.8418C35.5658 35.6183 34.8986 33.3644 34.146 31.2777C33.0705 28.2957 32.313 26.3598 32.18 23.0819L32.2477 19.6213C32.353 18.3285 32.5576 17.0561 32.9482 15.8165C33.1263 15.2514 33.8408 13.4666 34.3653 13.2093C34.8723 12.9606 35.445 13.5588 35.2184 14.0676L35.2042 14.098C35.1003 14.3329 34.9597 14.5471 34.8398 14.774C33.6742 16.9812 33.4944 19.5278 33.5054 21.9781C33.5126 23.5767 33.5904 25.232 34.0317 26.7777C34.0879 26.9747 34.1586 27.1745 34.2007 27.3753L35.1337 30.1431L36.3581 33.8892L36.8515 36.1815C37.0273 36.8157 37.0945 37.8232 37.1224 38.4706L37.137 39.3871C37.1537 39.8473 37.2162 40.0928 36.9602 40.5203L36.9367 40.5589C36.797 40.7931 36.6136 40.9703 36.4122 41.1521ZM19.0208 5.65069C18.6309 5.86111 18.1987 6.17096 17.7698 6.2933C18.1087 6.85093 20.0035 7.49865 19.4244 8.48288L19.407 8.51405C19.2731 8.74627 19.003 8.92941 18.7931 9.08879L17.1521 10.2275L17.9223 11.5763C18.7797 12.9796 19.777 14.3553 20.8893 15.5663L22.6647 17.3836C22.4967 17.0264 22.4097 16.6407 22.3045 16.2618L20.978 11.4278C20.5279 9.73046 20.0684 8.06672 19.371 6.45024L19.0208 5.65069ZM28.9714 5.68041C27.8664 8.11608 27.323 10.2772 26.6338 12.8623L25.4017 17.2678C25.9864 16.7907 26.7645 16.02 27.2404 15.407C28.0935 14.4606 28.8766 13.4454 29.5733 12.3785L30.8325 10.1984C30.5618 10.0439 30.318 9.84727 30.0646 9.66699L29.4919 9.24643C28.4902 8.52436 28.006 7.9861 29.2148 7.08976L29.8184 6.63582C29.9455 6.54193 30.0786 6.46196 30.1958 6.35513L28.9714 5.68041Z" fill="black"/>
</svg>
