<svg width="48" height="48" viewBox="0 0 48 48" fill="none" xmlns="http://www.w3.org/2000/svg">
<path d="M24.6988 43.4821L24.1729 41.015C24.1298 40.7978 24.0636 40.5828 24.0424 40.3621L24.0117 40.3317C23.9932 40.4819 23.9223 40.6311 23.8885 40.7816L23.6 42.1761C23.2961 43.6618 23.0207 45.3307 21.6738 46.2622C20.4316 47.1214 19.0607 47.2658 17.672 46.7051L12.2952 44.1652C11.332 43.7194 11.4633 43.8659 11.3374 42.9277C11.3179 42.7823 11.2867 42.6389 11.2737 42.4925L11.2322 41.4378C11.1076 38.9135 11.3565 36.3647 11.8313 33.8852L12.4686 31.2382C12.5848 30.8162 12.7381 30.3932 12.8269 29.9652L13.1518 28.1253C13.4516 26.5944 13.6822 25.04 13.805 23.4847L13.881 22.6644L13.8788 18.4203C13.7868 16.6967 13.369 14.7176 12.857 13.08L12.05 10.5981C11.79 9.71948 11.5803 8.84109 11.4369 7.93616L11.2409 6.87435C10.934 5.43496 11.2877 5.41082 12.5156 4.78331L19.3779 1.29942L19.4527 1.16048C19.608 0.917787 19.8175 0.839018 20.0842 0.778925L27.3095 0.765617C27.8018 0.765678 28.2111 0.692867 28.5236 1.17394C28.6569 1.37909 28.8737 1.43136 29.0822 1.5399L35.8548 4.97549C36.1986 5.14546 36.6536 5.31224 36.8278 5.68246L36.8441 5.71907C36.9945 6.02193 36.6763 7.3454 36.6106 7.7347L36.1866 9.71517L35.7428 11.1683C35.3519 12.4753 34.8906 13.749 34.6077 15.088C34.436 15.9004 34.3216 16.7088 34.2178 17.5316C34.1688 17.921 34.141 18.4814 34.1205 18.8909L34.1028 20.088C34.1019 21.0845 34.0866 22.0663 34.1644 23.0583L34.3163 24.8959L35.0038 29.1864C35.1135 29.7125 35.1804 30.2232 35.3578 30.7349C35.503 31.1533 35.5916 31.7593 35.7355 32.1157L35.7445 32.1371C35.9271 32.6115 35.9784 33.1735 36.0935 33.6683C36.4687 35.2808 36.6743 36.998 36.7587 38.6488L36.7798 40.5514C36.778 40.9671 36.7373 43.2099 36.5754 43.5564L36.5627 43.5824C36.4525 43.8176 36.2579 43.9093 36.0332 44.0216L30.0457 46.7846C27.4422 47.7772 25.24 46.0254 24.6988 43.4821ZM20.5684 2.22959L20.8714 3.33234C20.8974 3.42859 20.9073 3.52382 20.9435 3.61669L22.2252 7.98787C22.2322 8.02302 22.2437 8.05045 22.2567 8.08345L22.6293 9.34809C22.7037 9.56113 22.7505 9.78642 22.8287 9.99642L24.0533 13.8779C24.0978 13.5161 24.2247 13.1693 24.3262 12.8206L24.7851 11.1955L27.2977 2.6331C27.3252 2.53327 27.4033 2.33238 27.3868 2.23424L20.5684 2.22959ZM19.3239 2.89485L19.2848 2.91919C18.7557 3.24483 18.1639 3.51027 17.6096 3.7922L12.9621 6.10626C12.8109 6.18163 12.6126 6.25649 12.4855 6.36379L12.7099 7.38482C12.8449 8.12587 12.9282 8.90174 13.1649 9.61818L14.0187 12.3284C14.3098 13.127 14.5704 14.0012 14.7269 14.8406L15.2009 18.2439L15.2405 22.4183L15.0378 24.8792L14.496 28.3755C14.4387 28.7064 14.3509 29.0317 14.3125 29.3651L17.4609 29.9057C17.797 29.9651 18.1612 29.9742 18.3153 30.3402L18.3306 30.3755C18.3768 30.4863 18.3822 30.5731 18.3788 30.6917L18.3779 30.731C18.3739 30.8316 18.3402 30.898 18.2929 30.9848L18.2757 31.0172C18.0026 31.5151 17.431 31.3206 16.9881 31.2342L16.0477 31.0574C15.3878 30.9392 14.7102 30.801 14.043 30.741C13.3946 32.5919 13.0742 34.5027 12.8033 36.4352L12.6582 37.512C12.6171 37.8875 12.5803 38.2892 12.5651 38.6654L12.5636 41.7496L12.6579 42.794L17.1021 44.939C18.4192 45.5308 19.3066 46.0828 20.7043 45.2501C21.6545 44.6014 21.8363 43.8822 22.0769 42.8089L23.2363 37.4217C23.2811 37.1881 23.266 36.9442 23.2649 36.7074L23.2655 17.0023C23.2653 16.5995 22.5812 15.577 22.3411 15.1618L17.5999 7.23463C17.0557 6.32263 17.2599 6.30871 17.9651 5.73885C18.1597 5.58163 18.3586 5.38152 18.5676 5.24802L18.6821 5.1862C18.9741 5.04538 19.3896 5.26607 19.5131 5.54123L19.5418 5.60573C19.8015 6.12281 19.2558 6.4881 18.9297 6.78506L22.0028 11.8402L19.394 3.10023C19.3748 3.03411 19.3618 2.95227 19.3239 2.89485ZM28.6316 2.91829L26.0392 11.7931L29.1739 6.41779C29.4183 5.99807 29.8118 4.94306 30.4846 5.37656L30.5505 5.42592C30.6688 5.51723 30.741 5.6316 30.8011 5.76595L30.8136 5.79182C30.997 6.19438 30.5371 6.77657 30.3521 7.10437L24.7503 16.7372C24.6888 16.8438 24.7157 16.9843 24.7216 17.1034L24.7292 37.0349C24.7294 37.1916 24.7137 37.3772 24.7609 37.5277L25.537 40.9251C25.6453 41.3151 25.7098 41.7193 25.7929 42.1151L26.0368 43.1594C26.0849 43.3673 26.1123 43.6071 26.1942 43.8036L26.2245 43.8932C26.4801 44.7017 27.1858 45.2738 27.9602 45.5546C29.0658 45.8165 29.5478 45.4929 30.514 45.0761L34.0769 43.4405C34.4321 43.2642 35.0752 43.0469 35.3444 42.7738L35.4452 41.6588L35.4349 38.7794L35.3407 37.3969C35.2043 36.0634 34.9619 34.7456 34.6741 33.4372L33.9875 30.75C33.9463 30.7274 33.9694 30.732 33.9196 30.7409L31.1374 31.2288C30.8649 31.2816 30.5883 31.3528 30.3098 31.3602C29.5067 31.3813 29.264 30.2764 30.0072 30.0204C30.2402 29.9402 30.4977 29.9289 30.7382 29.8811L32.4492 29.5553C32.8631 29.4795 33.2923 29.4597 33.703 29.3755C33.2 27.5639 32.9116 24.7326 32.7988 22.8787L32.7441 19.1753C32.8892 16.0561 33.4279 13.9346 34.3847 11.0162L34.7614 9.84754C35.0967 8.64281 35.2086 7.50745 35.4977 6.32929L29.1994 3.16462C29.0697 3.10334 28.7511 2.90864 28.6316 2.91829Z" fill="black"/>
</svg>
