<svg width="48" height="48" viewBox="0 0 48 48" fill="none" xmlns="http://www.w3.org/2000/svg">
<path d="M20.9256 45.2375C20.652 45.3166 20.3554 45.4121 20.0703 45.433L20.0273 45.4359C18.5592 45.544 17.4636 45.0009 16.0928 44.5476L12.2336 43.2886C11.763 43.1318 11.2847 43.0775 10.8391 42.8399C9.94071 42.3608 9.24588 41.3878 9.2134 40.3478L9.21129 39.6628C9.21119 39.1523 8.94921 39.192 8.46335 38.8769L5.87182 37.1088C4.72423 36.2476 4.62292 35.2214 4.47588 33.9376L4.22616 31.3565C4.17813 30.9937 4.20727 30.5988 4.20444 30.2316L4.21161 24.367C4.22041 24.1788 4.26843 23.999 4.28357 23.8124L4.80621 18.2462L5.25405 15.771C5.92277 12.5025 7.05448 8.47973 8.91555 5.63784C9.50407 4.73916 9.42677 4.89413 10.3801 4.6012L15.4165 2.91451C16.6428 2.51999 18.1309 2.10028 19.4367 2.33787C20.0794 2.4548 20.6982 2.67961 21.3398 2.80056C23.0544 3.12378 24.9215 3.13429 26.6367 2.81217L28.011 2.49562C28.6339 2.35487 29.2864 2.23845 29.9236 2.19345C30.1208 2.18053 30.3123 2.17203 30.5049 2.22319L37.685 4.60993C37.9182 4.68171 38.2455 4.69908 38.4476 4.83422L38.4726 4.85194C39.0721 5.27053 40.3497 7.95005 40.6289 8.62411L41.3504 10.5284L42.3576 14.004C42.4181 14.3576 42.5257 14.7204 42.6089 15.0704L42.8379 16.2705C42.8513 16.3485 42.8816 16.4229 42.8961 16.501L43.1766 18.1569L43.6578 22.4389L43.7854 24.753L43.7815 30.7548C43.7727 30.9601 43.7022 31.1493 43.6918 31.3486L43.508 33.6373C43.3149 35.5424 43.178 36.3888 41.5896 37.4675L39.0674 39.2053C38.8042 39.3717 38.7927 39.2723 38.7931 39.5949C38.7934 39.9072 38.8333 40.2891 38.7633 40.592L38.6207 41.1603C38.2364 42.5016 37.1184 42.9514 35.9385 43.31L29.3011 45.4007C28.9128 45.5033 28.2168 45.4822 27.8203 45.4303C25.8575 45.1732 24.4925 43.5235 24.0406 41.6739L23.5124 42.9027C23.0036 44.0155 22.061 44.8139 20.9256 45.2375ZM19.3814 3.879C19.5111 4.25857 20.0199 4.5107 20.2507 4.84228C20.5518 5.27484 20.7317 5.82516 20.9173 6.31659L22.4061 9.94931C22.5841 10.3451 22.7571 10.7473 22.9017 11.1563L23.5707 12.8006C23.7179 13.1247 23.81 13.5163 24.0148 13.8062L25.5876 9.94406L27.2438 5.90152C27.384 5.56148 27.5168 5.19108 27.7274 4.88752C27.9988 4.49617 28.4418 4.2429 28.7389 3.86848L26.8946 4.29615C24.6403 4.7333 22.3916 4.61196 20.1734 4.07499L19.6318 3.92593C19.5544 3.90495 19.46 3.86816 19.3814 3.879ZM31.3241 4.04596C31.3548 5.16698 31.7366 6.04748 31.2184 7.20713L31.0183 7.58672C30.6829 8.1547 30.2171 8.48513 29.6394 8.77519L29.8379 9.39797C30.0808 10.076 29.6536 11.3601 29.3535 11.9627C28.2729 14.1331 27.1047 16.2449 26.1565 18.4806C24.8396 21.5857 24.0214 25.0987 23.7611 28.4462C23.7504 28.5847 23.7056 28.7181 23.6968 28.8637L23.6895 32.5672L23.8806 34.5231C23.9344 35.0115 24.0083 35.5162 24.1054 35.9971L24.6294 38.2979C24.7742 38.873 24.9632 39.7104 25.1633 40.2498L25.6436 41.7892C26.0647 43.0135 26.8728 43.7243 28.1951 43.9315C28.7579 44.0197 29.3491 43.8473 29.8802 43.6776L30.6072 43.4454C31.9289 43.084 33.2234 42.5907 34.5243 42.1602L35.5744 41.8204C37.0125 41.3799 37.2699 41.148 37.2471 39.7491L37.2287 36.2666L37.0313 33.2444L36.4744 28.2423L35.461 21.5743L35.3157 20.01C35.295 19.7409 35.2507 19.4745 35.2396 19.2032L35.2255 17.6438C35.103 13.4929 35.2006 9.80091 37.0448 6.018L31.3241 4.04596ZM16.6909 4.11338C15.6968 4.37222 14.7361 4.719 13.7695 5.06283L11.4532 5.84011C11.306 5.88337 11.1302 5.91389 10.996 5.98688L11.7512 7.93673L12.597 11.1444C12.6353 11.2879 12.6434 11.4365 12.6679 11.5823L12.9013 13.262C12.9444 13.7088 13.0012 14.2088 13.0167 14.6532L13.033 15.6656C13.0341 16.5473 13.0586 17.4371 12.9898 18.3168C12.903 19.4282 12.645 20.5289 12.4767 21.6306L11.3457 29.3673L10.9699 32.9767L10.7895 35.8356L10.7411 39.4806C10.7389 39.8436 10.6835 40.273 10.7721 40.6226L10.7815 40.6662C10.9306 41.3061 11.5553 41.5089 12.0969 41.6778L17.636 43.4782C18.1961 43.6595 18.7559 43.8941 19.3476 43.9463C20.4942 44.0475 21.6578 43.3418 22.1577 42.3179C22.3692 41.8846 22.4959 41.4079 22.6619 40.956L23.3555 39.18C22.4001 36.3469 22.0547 32.5347 22.2 29.6074L22.4387 26.6459C22.6126 25.2484 22.9049 23.8453 23.242 22.4784L23.4931 21.5904C23.5393 21.4295 23.5977 21.3985 23.4806 21.2806C23.0693 20.8663 22.8346 20.2763 22.5622 19.7669L18.5927 11.9025C18.4226 11.5407 18.2593 11.1743 18.1825 10.7801L18.1508 10.6632C18.0226 10.2319 18.1316 9.41034 18.2629 9.00492C18.2824 8.94459 18.361 8.7773 18.343 8.72977C17.4718 8.31253 17.0359 7.94147 16.6886 6.97275L16.5684 6.55008C16.443 6.13547 16.5004 5.30672 16.5906 4.88681L16.6909 4.11338ZM18.1808 4.58319C17.8414 5.51119 17.8275 6.87633 18.8357 7.3823L19.3305 7.18655L19.624 7.09997C19.4366 6.66764 19.2929 6.1942 19.0399 5.79534C18.766 5.36381 18.4533 5.06105 18.1808 4.58319ZM29.8432 4.67074C29.1851 5.66292 28.8094 5.86378 28.4314 7.11103C28.5719 7.13883 28.7033 7.17089 28.8386 7.21819L29.1781 7.36664C30.2528 6.79622 30.0595 5.62477 29.8432 4.67074ZM9.80205 7.01963L8.53254 9.66806L7.88313 11.4728C7.2213 13.4103 6.74655 15.4305 6.41791 17.451L5.85954 22.0819C5.84969 22.2067 5.82035 22.3286 5.81154 22.4531L5.70288 24.1768L5.70809 31.1065C5.71657 31.3106 5.76185 31.5064 5.77699 31.7089L5.95638 33.8749C6.11623 35.2979 6.03527 35.4273 7.38429 36.3165L8.18365 36.8511L8.8068 37.292C8.94743 37.3933 9.05013 37.4881 9.2126 37.5564L9.26145 37.5773C9.33105 36.7804 9.30349 35.9144 9.35998 35.0698L9.87457 29.5079L11.0846 20.9245C11.2171 19.9665 11.4656 19.0267 11.5352 18.0587C11.5728 17.5365 11.5496 16.9963 11.5503 16.4725L11.541 14.9026L11.3471 12.7751C11.1004 10.942 10.6364 9.14841 9.98609 7.41853C9.95665 7.34025 9.89515 7.02577 9.80205 7.01963ZM38.2293 7.05516C37.3582 8.60489 36.9839 10.7961 36.7968 12.5743L36.7061 13.7539C36.6974 13.8888 36.6705 14.0213 36.6645 14.1571L36.6646 17.6823C36.6729 17.853 36.7056 18.0201 36.7154 18.1911L36.7391 19.1712C36.7466 19.6044 36.8037 20.1052 36.8436 20.5431L37.1892 23.0102L38.352 31.8282L38.686 36.097L38.6961 37.1106C38.6997 37.2655 38.6947 37.437 38.726 37.5881L38.7425 37.5739C38.8212 37.5072 38.9098 37.4692 38.9929 37.4101L39.9261 36.7926L40.7773 36.2033C42.1582 35.2213 41.9857 34.3202 42.1222 32.7306L42.2821 30.3767L42.2834 24.5621L42.1814 22.2653L41.9333 19.834C41.5911 16.9627 41.0126 14.1109 40.079 11.3703L39.5423 9.855C39.1559 8.89486 38.6899 7.97967 38.2293 7.05516ZM20.263 8.53866C19.0776 9.69052 19.7034 10.7034 20.2752 11.8859L20.7322 12.865C20.8519 13.0982 21.0044 13.3462 21.0935 13.5905L24.1319 19.5175L27.8818 11.542C28.5532 10.3088 28.6213 9.68616 27.774 8.54672C27.4852 9.14363 27.2677 9.78867 27.0165 10.4032L25.0393 15.2875C24.8363 15.8363 24.463 16.8832 23.6687 16.4655C23.221 16.2301 22.8496 14.9621 22.6603 14.5176L20.6082 9.48923C20.4831 9.19439 20.3455 8.88286 20.2705 8.57128L20.263 8.53866Z" fill="black"/>
<path d="M17.8982 33.7246L13.7142 33.7315C13.228 33.7304 12.5885 33.5574 12.7165 32.9141L12.7437 32.7791C12.7923 32.595 12.9023 32.4479 13.0718 32.3594L13.2695 32.2774C13.7662 32.2493 17.8631 32.2288 18.021 32.3042L18.0469 32.3177C18.1766 32.3831 18.2887 32.4727 18.3609 32.6011L18.374 32.625C18.6484 33.0802 18.3715 33.578 17.8982 33.7246Z" fill="black"/>
<path d="M34.696 33.729L30.6887 33.7325C30.4569 33.7324 30.2035 33.773 29.9913 33.6621C29.274 33.2869 29.4839 32.4931 30.1762 32.2767L34.708 32.2715C35.0398 32.2994 35.3321 32.7505 35.2809 33.0638L35.2754 33.094C35.2321 33.3525 35.0913 33.5563 34.8482 33.6737L34.696 33.729Z" fill="black"/>
</svg>
