<svg width="48" height="48" viewBox="0 0 48 48" fill="none" xmlns="http://www.w3.org/2000/svg">
<path d="M27.8516 40.6659C27.4193 40.7988 26.9905 40.9473 26.5787 41.1351L25.8094 41.4983C24.6084 42.0376 24.4096 40.8741 24.0352 40.0426C23.6674 40.4457 23.7468 41.2425 23.2128 41.5236L23.1827 41.5387C22.7056 41.7842 22.1755 41.4019 21.7399 41.2294C20.0596 40.5637 17.5414 40.1777 15.6843 40.0965L14.3738 40.0853C13.2465 40.0809 12.2224 39.7504 11.7397 38.6018C11.5108 38.0571 11.5548 37.5059 11.5996 36.9314L11.6357 34.8865C11.6459 34.6625 11.694 34.4422 11.705 34.2178L12.5579 24.4548C12.6023 23.7776 12.5791 23.0315 12.4392 22.362C12.1309 20.8863 12.6158 18.9631 13.3236 17.6518C14.2565 15.9235 14.5449 13.7957 13.9673 11.9042C13.8011 11.3599 13.4986 10.8681 13.3263 10.3213C13.0767 9.52925 12.9632 8.7036 12.7258 7.9078L12.6688 7.91333C12.4376 7.94849 12.2085 8.05691 11.9999 8.15811C9.11881 9.55513 7.69807 12.9567 7.68757 16.0157C7.68396 17.0648 7.80078 18.1403 8.1702 19.1291L8.58542 20.2224C8.75178 20.846 7.68809 21.8653 6.97493 20.1421C6.64071 19.3345 6.43226 18.4539 6.30537 17.5903L6.23018 16.8756C6.20056 16.6501 6.2097 16.4171 6.20923 16.1899C6.20126 12.3389 8.29948 7.49928 12.3365 6.43883C12.6272 6.36247 12.7523 6.31977 13.0295 6.23127C13.2959 6.14624 13.5808 6.10663 13.8509 6.02347C14.687 5.76589 15.5321 5.36042 16.2755 4.89463C16.773 4.58294 16.7566 4.2127 17.318 3.85771C17.9683 3.44655 18.6223 3.29392 19.3789 3.22096C20.3599 3.16324 21.6834 3.34856 22.4649 3.94059C22.8394 4.22429 23.1303 4.63366 23.5371 4.86697L23.5729 4.88717C24.3181 5.31439 24.9552 4.24641 25.6295 3.83758C27.0552 2.97329 30.2013 2.92587 31.2075 4.30432C31.2997 4.43058 31.3582 4.61205 31.4699 4.71758C32.0562 5.27169 33.7695 5.94683 34.5117 6.16719C34.6823 6.21786 34.8624 6.21575 35.0354 6.25771C35.8874 6.46438 36.6339 6.71844 37.3727 7.205C39.107 8.34721 40.9194 10.7384 41.3314 12.8372L41.4251 13.1887C41.4669 13.416 41.5485 13.6427 41.5852 13.8718C41.9193 15.9579 41.8438 17.8717 41.1243 19.896C41.0151 20.2033 40.8642 20.7011 40.583 20.8968L40.4899 20.959C40.1566 21.1592 39.7184 20.9544 39.5496 20.6363C39.3478 20.2562 39.5673 19.8827 39.703 19.5223L39.94 18.8132C41.0388 14.9061 39.5328 9.09571 35.2873 7.91867C34.9324 8.75324 34.9091 9.70241 34.5901 10.559L34.0624 11.8247C33.6316 13.0098 33.6208 14.9746 34.0441 16.1756L34.2739 16.8455C34.588 17.6528 35.1551 18.3431 35.3305 19.2115L35.4695 19.7985C35.6696 20.7858 35.6665 22.076 35.4791 23.0559C35.3633 23.6611 35.4459 24.2363 35.4797 24.8365L36.3532 34.8637L36.4413 37.5783C36.4417 37.7375 36.4538 37.9183 36.4141 38.0735L36.3947 38.1545C36.1459 39.5137 34.9681 40.067 33.7073 40.0395L32.8629 40.0332C31.1592 40.0302 29.4932 40.1596 27.8516 40.6659ZM19.6912 4.72517C19.4538 4.7383 19.2147 4.76038 18.9811 4.80758L18.3953 4.94342L19.3111 6.41061L22.1219 11.8364C22.6739 12.9923 23.1261 14.1811 23.582 15.3755L23.893 16.3825C23.9127 16.4781 23.9452 16.5361 24.0027 16.6142L25.6626 12.2883L29.5248 4.97666C28.6021 4.64044 27.4657 4.64612 26.5669 5.07078C25.8504 5.40927 25.4801 6.10705 24.6561 6.37756L24.6211 6.38933C23.4373 6.78069 22.8176 6.21805 22.0381 5.51924C21.4316 4.97544 20.5013 4.68796 19.6912 4.72517ZM30.6431 5.96417L27.7569 11.3783L26.052 15.1454C25.6592 16.1677 25.3464 17.2365 25.0924 18.3001L24.8082 19.6294C24.7107 20.1911 24.7243 20.4189 24.7241 20.9993L24.7237 36.8007C24.7242 37.1885 24.7333 37.5118 24.8328 37.8857L24.9372 38.2153C25.1208 38.759 25.3073 39.3632 25.5655 39.873C25.6707 39.8566 25.7845 39.7955 25.8837 39.7557L27.8299 39.064C29.1173 38.7085 30.4978 38.5374 31.8317 38.4929L34.0708 38.505C34.5579 38.5143 34.8155 38.2136 34.9511 37.7866C34.9832 37.6394 34.9697 37.4826 34.9661 37.3328L34.8825 34.9191C34.8737 34.6846 34.8331 34.4553 34.8176 34.2226L34.7797 33.2302L30.4527 33.8541C29.9406 33.9263 29.1966 34.0317 29.1293 33.2575C29.0588 32.447 29.7403 32.4095 30.2898 32.3417L34.616 31.7059C34.5984 31.0417 34.4919 30.3698 34.4299 29.7075L34.0272 25.2575C33.9711 24.3981 33.9091 23.5888 34.0271 22.7348C34.3127 20.6681 34.0645 19.7365 33.1365 17.9301C32.1607 16.0308 31.9628 13.1781 32.7178 11.204C32.9197 10.676 33.1793 10.1816 33.3402 9.63669C33.5498 8.92752 33.5856 8.23081 33.8626 7.51536L33.8351 7.50856C32.672 7.21058 31.6405 6.60969 30.6431 5.96417ZM17.2972 6.01217C16.0592 6.82461 15.4593 7.03686 14.1444 7.50252C14.1365 7.5966 14.1865 7.67042 14.2156 7.75541L14.629 9.52428C14.6369 9.56614 14.6486 9.60003 14.6629 9.63969L14.7272 9.87125C14.8548 10.3748 15.2233 10.9832 15.4005 11.52L15.5938 12.3089C15.6398 12.4708 15.6372 12.6452 15.6598 12.811C15.8743 14.3789 15.6435 16.1892 14.9806 17.6394C14.8179 17.9954 14.6103 18.3292 14.4376 18.6801C13.4052 20.7785 14.1547 22.2735 14.0499 24.3525L13.3865 31.3498C13.3778 31.4562 13.3587 31.57 13.3731 31.6762C13.8776 31.7788 14.3937 31.8357 14.9027 31.9081L17.8241 32.3451C18.1584 32.392 18.512 32.4134 18.7227 32.7191L18.7674 32.7912C18.8739 32.9676 18.8845 33.1878 18.8399 33.3872C18.6935 34.0424 18.0577 33.9381 17.5714 33.8502L13.7873 33.2964C13.5955 33.2712 13.3988 33.2246 13.2054 33.2192C13.1836 33.816 13.1315 34.4311 13.1237 35.0135L13.11 36.1968C13.0962 36.7181 13.0323 37.2043 13.0323 37.7582L13.0901 37.9458C13.3857 38.8872 14.677 38.5005 15.4744 38.5502L18.5038 38.8392C18.9202 38.8896 19.3325 38.9918 19.7406 39.0854L22.4936 39.8582C22.7224 39.2453 23.1831 38.152 23.2484 37.5122C23.2809 37.1934 23.2552 36.8463 23.2553 36.5255L23.2549 20.7745C23.2548 20.366 23.2537 20.0169 23.1796 19.6176L22.9136 18.3691C22.4671 16.5539 21.8292 14.7879 21.0533 13.0876L17.5203 6.32155C17.4679 6.21992 17.4185 6.09106 17.3386 6.00917L17.2972 6.01217Z" fill="black"/>
</svg>
