<svg width="48" height="48" viewBox="0 0 48 48" fill="none" xmlns="http://www.w3.org/2000/svg">
<path d="M22.5113 42.7569C21.0908 44.2005 19.4843 44.4894 17.58 44.2642C15.6384 44.0344 13.6553 43.6134 11.8906 42.7411L11.4578 42.514C11.2828 42.4236 11.2336 42.5031 11.0515 42.5635L10.3551 42.7617C9.51362 42.9921 9.27657 42.8467 9.04984 41.9687L8.13887 38.8229C7.27079 35.757 6.69357 32.6342 6.40295 29.4609L6.2334 26.0391L6.30699 22.7554L7.02352 17.1562C7.32812 15.4223 8.64249 8.70647 10.2647 7.80731C11.4045 7.17567 12.6276 6.75647 13.8225 6.25064L14.6416 5.89326C15.1381 5.66292 16.0142 5.20697 16.3509 5.91797C16.4054 6.03291 16.4341 6.24989 16.3878 6.37303L16.295 6.58786C16.1427 6.89972 15.8054 6.95883 15.5063 7.06566C15.0077 7.24364 14.5295 7.4872 14.0388 7.686L12.1483 8.44823C11.808 8.59298 10.4506 9.10495 10.6965 9.67251C10.8055 9.92433 10.9539 10.1622 11.063 10.4141L12.6705 15.0071C12.7313 15.184 12.8006 15.382 12.8324 15.5657L13.3208 17.6421C13.3681 17.8071 13.3731 17.9737 13.4058 18.1406L13.5941 19.418C13.7422 20.5181 13.8342 21.5161 13.6074 22.6047L13.4138 23.6116L13.0797 26.5013C13.0145 27.1727 13.0489 27.8998 12.9556 28.5195C12.9164 28.7793 12.933 29.0585 12.9327 29.3215L12.9386 33.9765C12.944 34.1871 12.9853 34.3883 12.9921 34.5981L13.0374 36.1678C13.1067 37.3174 13.2435 38.5382 13.5349 39.6585C13.7904 40.641 14.0748 41.035 13.1793 41.7531C13.7911 42.067 14.4738 42.2399 15.1404 42.3954L16.9919 42.7722C19.1791 43.1399 20.8977 43.0418 22.1898 40.918C22.7213 40.0445 23.2548 38.374 23.2552 37.2945L23.2558 22.4191C23.2556 21.6458 23.2254 21.1455 23.0649 20.3837C22.5662 18.0172 21.7104 17.0996 20.3953 15.1906C19.3869 13.7269 17.3784 10.3264 17.1701 8.49155C17.1629 8.4278 16.9262 8.26589 16.8625 8.20561C16.1062 7.48955 16.6531 6.86161 17.0896 6.1875L18.372 4.25391C18.9012 3.40279 19.0105 3.56299 19.9159 3.5624L27.8511 3.55938L28.57 3.55479C29.6059 3.54733 29.6105 4.22724 30.1083 5.01844L30.8904 6.23437C31.1977 6.69919 31.7833 7.31855 31.438 7.90228L31.4191 7.93359C31.0736 8.53959 30.9096 8.11969 30.6564 9.13959L30.4565 9.81286C30.134 10.7525 29.7316 11.6576 29.258 12.531L27.8595 14.9286C26.541 16.9961 25.0857 19.1276 24.7449 21.6183C24.685 22.0556 24.7237 22.533 24.7241 22.9756L24.7247 35.824C24.7246 36.0799 24.6692 37.6784 24.7132 37.8292L25.2951 39.7722C25.427 40.2876 25.6689 40.801 25.9886 41.225C27.3674 43.0534 28.8546 43.1202 30.9207 42.7852C32.2401 42.5712 33.6721 42.3126 34.8977 41.7528C34.0367 41.0977 34.1944 40.9408 34.4646 39.9109L34.8732 37.582C34.9228 37.1525 34.9648 36.7105 34.9805 36.2786L35.0555 34.2569L35.0491 27.5591C34.9868 25.9425 34.7599 24.01 34.3726 22.4404C34.1319 21.465 34.2725 20.3747 34.3843 19.3867C34.7195 16.4253 35.6721 12.2148 37.2674 9.60408L37.2837 9.57792C37.0953 8.99878 36.775 8.87494 36.2506 8.63278L32.8825 7.22245C32.5591 7.0912 32.0871 6.95461 31.8384 6.7088C31.5243 6.39825 31.5753 5.97319 31.8983 5.6977C32.3 5.355 32.8004 5.64511 33.1963 5.82197L36.1169 7.03266C38.0585 7.83553 38.4391 8.2102 39.0923 10.1953L40.0201 13.1017C40.1541 13.7806 40.3921 14.4465 40.5428 15.1231C40.6249 15.4915 40.6961 15.863 40.781 16.2305L41.1146 17.9933L41.6093 21.8966C41.6591 22.3632 41.6829 22.8158 41.6973 23.2852L41.7117 27.2749C41.7035 27.7916 41.6426 28.2443 41.6241 28.7461L41.2971 31.957L40.5165 36.2876L39.7789 39.2018L38.9241 42.0501C38.6903 42.9732 38.4221 42.9818 37.4943 42.6914L36.8731 42.5279C36.6534 42.4815 36.6064 42.5286 36.404 42.6226L35.6778 42.9557C34.0385 43.6625 32.2323 44.0273 30.4683 44.2649C28.6582 44.5087 27.1788 44.2376 25.7801 43.0171C24.8015 42.1632 24.4817 41.4976 24.0007 40.3628C23.455 41.2852 23.3676 41.8703 22.5113 42.7569ZM20.5715 4.96237L20.344 4.97114C20.3451 5.01141 20.3384 4.99467 20.3569 5.02022C20.6326 5.39967 20.8238 5.90203 21.0006 6.33984L21.2925 7.11764L22.7235 11.8372C22.7608 11.9598 22.7799 12.0871 22.8212 12.208L23.5659 15.1184C23.637 15.3427 23.6707 15.582 23.7317 15.8086L23.9546 16.6783C23.9932 16.832 24.0062 17.0154 24.0837 17.1547L24.6599 14.2574L26.4135 7.92942C26.5999 7.34672 26.8252 6.77053 27.0666 6.20841L27.6844 4.97484L20.5715 4.96237ZM19.1099 5.62772L17.9906 7.39575C18.2744 7.58794 18.5597 7.81116 18.6953 8.13675L18.7088 8.16769C18.834 8.46661 18.7276 8.73361 18.7346 9.03516C18.7449 9.4823 19.2882 10.4762 19.488 10.8759L20.3656 12.5508L21.7708 14.7367L22.2567 15.4819L20.6645 9.74939C20.245 8.33072 19.8531 6.91955 19.1099 5.62772ZM28.8817 5.67755C28.1506 6.8798 27.7694 8.23847 27.3724 9.57422L25.8211 15.3062C25.7948 15.4144 25.7419 15.5505 25.7396 15.6599L26.2233 14.8943L27.2509 13.2594C27.8242 12.2887 28.9485 10.266 29.2625 9.16317C29.067 8.46042 29.3713 7.8922 29.9423 7.45008C29.9682 7.43006 29.9599 7.43592 29.9848 7.404L28.8817 5.67755ZM37.9778 11.168C37.027 13.3309 36.2645 15.8625 35.9131 18.1985L35.6915 20.168C35.6329 20.8407 35.5711 21.518 35.7188 22.1836L35.8698 22.8731C36.0079 23.5991 36.1082 24.3188 36.1877 25.0547L36.4401 28.1569L36.4359 34.4986C36.4301 34.7021 36.3887 34.9043 36.3825 35.1094L36.2618 37.4724C36.2027 38.1298 36.1015 38.8005 35.9605 39.4453L35.7742 40.2247C35.7422 40.3484 35.6839 40.5001 35.6789 40.6256C36.2141 40.8814 36.813 41.0529 37.3809 41.2243L37.7141 41.3394L39.229 35.7406C39.6718 33.7686 39.975 31.771 40.1573 29.7595L40.3242 27.7145L40.3255 23.1585C40.2125 21.1287 39.9315 19.0841 39.5537 17.0877L38.2401 11.9395C38.1609 11.6974 38.05 11.4327 38.0028 11.1839L37.9778 11.168ZM9.91927 11.1757L8.72148 15.5039L7.9802 19.8037L7.63327 23.4816L7.63857 27.8484C7.64457 27.9839 7.67166 28.1089 7.68638 28.2422L7.74938 29.0585C7.82673 30.1014 7.94668 31.7825 8.19704 32.7971L9.22299 37.6303L10.0467 40.5455C10.1367 40.8112 10.1731 41.1127 10.3066 41.3584L10.7163 41.2114L12.3557 40.6388C12.0846 39.6306 11.9123 38.5966 11.7893 37.5618L11.6888 36.5526C11.68 36.4539 11.6529 36.3612 11.6464 36.2592L11.6175 35.0227C11.6094 34.8103 11.5697 34.6026 11.563 34.3905L11.5582 28.6406C11.5677 28.4334 11.608 28.2268 11.6168 28.0195L11.643 26.9505C11.6508 26.778 11.6832 26.612 11.6955 26.4413L11.7535 25.5L12.2117 22.5117C12.3369 21.9594 12.3785 21.6637 12.3518 21.1008L12.1788 19.0898C11.9481 17.3655 11.457 15.6462 10.8975 14.0025L10.088 11.6474C10.0293 11.4912 9.95654 11.339 9.91927 11.1757Z" fill="black"/>
<path d="M18.874 30.3433C18.5404 30.4179 18.1679 30.2862 17.8385 30.2366L14.5019 29.7588C14.0188 29.6772 13.2749 29.5376 13.5199 28.7984C13.6024 28.5493 13.7808 28.4463 14.0014 28.3399C14.2257 28.3146 14.4203 28.3555 14.639 28.3927L18.2538 28.9651C18.7423 29.0283 19.6091 29.147 19.3489 29.9062C19.2707 30.1342 19.0773 30.2448 18.874 30.3433Z" fill="black"/>
<path d="M29.5838 30.4213C28.5424 30.4807 28.3342 29.5014 28.9707 29.1521L29.0037 29.1347C29.2672 28.9899 29.6971 29.009 30.0007 28.9696L31.4342 28.7364C32.2102 28.6185 32.9969 28.5164 33.7627 28.341C34.133 28.3081 34.4386 28.3812 34.5795 28.7731L34.5946 28.8166C35.0045 29.7418 33.5535 29.84 33.0398 29.9104L29.5838 30.4213Z" fill="black"/>
</svg>
