<svg width="48" height="48" viewBox="0 0 48 48" fill="none" xmlns="http://www.w3.org/2000/svg">
<path d="M26.7248 45.4415L21.1222 45.4482C21.0303 45.4669 20.7825 45.7534 20.6762 45.8314C19.0532 47.0212 17.2812 46.3907 15.6081 45.7347L11.9135 44.3683C10.3423 43.7444 10.6214 43.6232 10.9639 42.1672L14.3226 27.128C14.5627 25.8358 14.5195 24.5056 14.3812 23.2049C14.0094 19.7087 12.9166 16.2951 10.8314 13.4447L10.0486 12.3906C8.74176 10.471 8.44832 6.95055 10.5381 5.44703C11.1429 5.01184 12.3522 4.75731 13.137 4.4061L17.6488 2.20218C17.7809 2.13846 17.8522 2.02347 17.9497 1.91879C18.3413 1.49835 18.7699 1.53521 19.2542 1.40578C20.1009 1.17954 20.5571 0.923992 21.5149 0.877295C22.2326 0.849095 22.9232 0.966911 23.6352 1.00778C24.6998 1.06891 25.7849 0.769094 26.845 0.899373C27.4919 0.978873 28.1106 1.23078 28.7391 1.39509C29.1977 1.51502 29.3626 1.44355 29.8121 1.74037L29.8363 1.75681C30.0193 1.88018 30.1325 2.07168 30.3239 2.19326C30.5024 2.30666 30.7072 2.38019 30.9009 2.4637L35.2212 4.50045C35.7842 4.7335 36.3975 4.8512 36.9442 5.12041C37.6464 5.46625 38.3505 6.24283 38.6114 6.99944L38.6367 7.0667C38.7036 7.21745 38.7687 7.41128 38.8007 7.57356L38.8135 7.64055C39.027 8.41169 39.0344 9.40014 38.8832 10.1835C38.5817 11.7462 37.5659 12.8195 36.6996 14.0976C34.5817 17.2223 32.9386 23.2603 33.6572 27.082L37.0208 42.1547C37.0575 42.4332 37.1594 42.8073 37.2445 43.0709C37.6091 44.2011 35.7675 44.4932 34.9587 44.8033L32.9183 45.5632C32.4309 45.7509 31.9507 45.9617 31.4534 46.1228L30.6775 46.3384C29.5569 46.6103 28.2387 46.5965 27.2933 45.8574L26.9212 45.5386C26.8336 45.4626 26.8374 45.445 26.7248 45.4415ZM21.6711 2.47306L21.1922 2.51036C21.5932 2.75755 22.0989 2.97445 22.3122 3.4218L22.3241 3.44606C22.439 3.68346 22.4697 3.94624 22.512 4.20259L23.4863 11.0624C23.5108 11.2242 23.5144 11.3896 23.5406 11.551L23.9048 13.9101C23.9169 14.0654 23.8943 14.0837 23.9886 14.2081L24.0192 14.203C24.0788 14.0492 24.0856 13.8958 24.1115 13.7347L24.3742 12.1288L25.4837 4.20438C25.5736 3.69137 25.6243 3.28922 26.0732 2.94361L26.7363 2.51702C25.7827 2.39783 24.8241 2.60354 23.8653 2.59826C23.1356 2.59424 22.3982 2.43138 21.6711 2.47306ZM19.0296 3.12883L18.179 4.26904C18.9774 4.60938 19.5732 4.55484 19.814 5.49527C20.0031 6.23369 19.1485 5.86558 19.6178 7.15867L20.5687 10.4311L21.1225 12.6861C21.1693 12.8499 21.1726 13.0231 21.1967 13.1909C21.4138 14.7011 21.5004 15.468 22.4221 16.7769C22.5887 17.04 22.7782 17.2685 22.993 17.4926C22.7189 16.4503 22.5786 15.3483 22.4038 14.2851L21.1812 5.97648C21.1027 5.36603 20.9585 4.7425 20.9239 4.12904L19.0296 3.12883ZM28.9301 3.1438L27.0591 4.14161L25.6453 14.2407L25.3079 15.9499C25.2082 16.4558 25.1362 16.9849 25.0065 17.4825L25.5982 16.73C26.4308 15.4205 26.5353 14.7718 26.7619 13.3306L27.1171 11.5846L28.1839 7.78895C28.3102 7.3262 28.4814 6.84944 28.5305 6.37103C28.3095 6.05448 28.1299 5.77516 28.2036 5.3687L28.2428 5.23567C28.3446 4.94163 28.6119 4.73509 28.8845 4.60751L29.8211 4.27486C29.588 3.94597 29.2085 3.43205 28.9301 3.1438ZM16.2961 4.60539L16.2765 4.6195C15.4509 5.2053 13.806 5.89764 12.8734 6.23758L12.2367 6.45377C12.0007 6.52281 11.7408 6.56898 11.5314 6.70441C10.5542 7.33642 10.3517 9.16131 10.7269 10.2162C11.019 11.0376 11.3386 11.534 11.8673 12.2295L12.8151 13.573C13.3034 14.3271 13.7552 15.15 14.0859 15.9843L14.3465 16.5849L15.2924 19.4816C15.3464 19.7184 15.4361 19.9403 15.4764 20.1839L15.595 20.7136C15.6772 21.0119 15.703 21.3495 15.7518 21.6562L15.987 23.2616C16.1498 24.8027 16.061 26.2085 15.813 27.7214C15.7998 27.8021 15.6494 28.4823 15.6603 28.5136C15.6916 28.6038 16.8827 29.0738 17.0431 29.1429L18.4517 29.7903C18.9777 30.0323 19.9765 30.3837 19.4779 31.2101C19.0304 31.9519 18.1199 31.3652 17.5587 31.1159L15.2887 30.1108L12.526 42.5327L12.446 42.8575C12.6372 42.9974 12.9528 43.0739 13.1759 43.1597L16.7155 44.4697C19.2911 45.4485 19.9812 44.9804 21.0131 42.4044C21.9686 40.019 22.6209 37.5368 23.1018 35.0155L23.279 34.0693C23.3557 33.6219 23.3309 33.4 23.2709 32.9605L22.6754 28.7313C22.5067 27.5841 22.4259 27.3069 22.5931 26.1796L23.2656 21.6913C23.3433 21.1443 23.4711 20.5915 23.5221 20.0428C23.2114 19.738 22.8349 19.4788 22.4977 19.2011C20.6355 17.6671 20.0353 15.9649 19.6894 13.7155L19.3627 11.9602C19.2537 11.4913 19.0987 11.0318 18.9623 10.5702L18.1595 7.72647C17.9945 7.06206 17.8032 6.54658 18.1099 5.89998C17.0917 5.47694 16.5982 5.85358 16.3175 4.61484L16.2961 4.60539ZM31.6715 4.60539C31.6449 5.75997 30.7283 5.54795 29.9035 5.88077C30.2984 6.76464 29.7829 7.94167 29.5336 8.84758L28.6058 12.0872L28.1871 14.5448C27.8773 16.4312 26.7882 17.9856 25.4477 19.2858C25.2757 19.4526 25.1917 19.4558 25.1922 19.6945C25.193 20.1197 25.0679 20.5674 24.9881 20.9848L24.1542 26.2983C24.0403 27.0063 24.0521 27.2169 24.144 27.9374L25.4252 36.2577L25.9331 38.5712C26.1001 39.3095 26.2411 40.073 26.4726 40.7942L26.7293 41.7178C26.737 41.7505 26.7474 41.7793 26.7588 41.8107C27.605 44.1559 27.9913 45.5548 30.8558 44.6256L35.6127 42.8534L35.4089 42.0115L32.7049 30.0084L30.2039 31.2083C29.6582 31.4573 28.8952 31.9297 28.5145 31.1354L28.48 31.0623C28.1943 30.4382 28.7725 30.1345 29.2383 29.9196L32.2349 28.4835C32.3702 28.4117 32.3316 28.4302 32.2973 28.279C32.016 27.0404 31.7916 24.6908 32.0095 23.3832L32.194 21.9347C32.6788 18.9493 33.5995 15.8803 35.3156 13.3571C36.3475 11.8398 37.4362 10.9972 37.4317 9.03873C37.4267 6.91187 36.6067 6.71889 34.8052 6.0543C34.2743 5.85845 33.7711 5.60322 33.255 5.37367L32.2747 4.915C32.0726 4.8175 31.8609 4.72567 31.6715 4.60539ZM24.1154 37.7069C23.7892 39.2277 23.3102 40.7497 22.7771 42.2109L22.1237 43.8574L23.9359 43.8498L25.8985 43.8334C25.3754 43.2328 24.7308 40.2273 24.5299 39.4014C24.3954 38.8483 24.3096 38.2409 24.1154 37.7069Z" fill="black"/>
</svg>
