<svg width="48" height="48" viewBox="0 0 48 48" fill="none" xmlns="http://www.w3.org/2000/svg">
<path d="M25.7591 36.0886L24.2122 31.3589C24.1475 31.1204 24.0875 30.8574 23.9739 30.6369L23.0701 33.5673L20.8937 39.5917C20.3094 41.047 20.1774 41.6868 19.1289 42.8937C18.2408 43.9159 17.1289 44.7929 15.7004 44.7836C14.6389 44.7768 13.5671 44.2795 12.5623 43.9914L11.2733 43.6333C10.9096 43.5358 10.5124 43.4604 10.1764 43.2865C9.11131 42.7356 8.59531 41.5782 8.89362 40.4068L12.5555 22.2034C12.6516 21.7868 12.845 21.1383 13.454 21.4901C14 21.8056 13.6987 22.5266 13.6008 23.0009L10.0354 40.8336C9.95652 41.3118 10.122 41.8423 10.5755 42.0905L10.6029 42.105C10.9836 42.3084 11.4384 42.3862 11.8516 42.5004L14.4372 43.2732C16.3204 43.8466 17.3427 43.223 18.4732 41.7796C19.133 40.9371 19.2657 40.3906 19.6664 39.4079C20.8406 36.5285 21.8387 33.5549 22.7564 30.5845L23.3782 28.566C23.4802 28.2492 23.575 27.8696 23.7382 27.5801L22.4674 25.5856C22.0818 24.9969 21.7551 24.3539 21.4401 23.725L18.0911 16.8603L15.7897 11.7933C15.6117 11.4127 15.3965 11.0226 15.259 10.6259C15.0476 10.0156 15.8325 9.47959 16.2608 10.0425C16.4532 10.2954 16.5725 10.6547 16.7081 10.942L17.0843 11.6993C17.307 12.1954 17.508 12.7116 17.7552 13.1956L22.4037 22.9449C22.4906 23.1464 22.6023 23.3407 22.7035 23.5352L23.4999 24.9837C23.6122 24.7466 23.7175 24.5282 23.873 24.3155C23.5913 23.916 23.4809 23.3544 23.3271 22.8956L20.0351 12.7799L18.8369 7.97293L18.1747 4.7132C17.334 5.19802 17.3155 5.63466 16.2836 5.93959L12.0501 7.49293C11.6323 7.64757 11.1554 7.72009 10.7638 7.9306L10.5935 8.02782C8.92198 9.07393 8.42516 11.2926 7.91319 13.0496C7.1007 15.8379 6.60369 18.7245 6.23816 21.6026L5.91589 24.0278L5.63656 27.3727C5.58847 27.8083 5.53695 28.4621 5.52003 28.9116L5.50142 29.9462C5.48844 30.2626 5.43261 30.5758 5.42314 30.8919L5.49317 37.3955C5.50634 37.6433 5.65376 39.7743 5.59569 39.8901L5.58317 39.9136C5.3337 40.4318 4.53215 40.4599 4.43222 39.8399C4.39182 39.5893 4.40115 39.3227 4.38628 39.0692L4.23486 36.8218L4.23525 30.5418L4.39683 28.1228C4.43448 27.4069 4.46899 26.7325 4.53971 26.0166L5.33806 19.4761C5.73814 16.8863 6.2277 14.3065 7.00719 11.7999C7.59889 9.89715 8.26555 8.03391 10.0351 6.90845C10.4147 6.66699 10.7969 6.57235 11.219 6.44106L14.6742 5.18556C15.1548 5.00602 15.6333 4.8137 16.1248 4.66554C16.3548 4.59623 16.5722 4.32097 16.7557 4.16444C17.3063 3.69502 17.9262 3.27732 18.6422 3.12047C18.8033 3.11407 18.9573 3.19669 19.1061 3.24962L22.8162 4.50131C23.1536 4.61126 23.8003 4.94523 24.1453 4.84098L29.1153 3.17581C30.1812 2.86931 31.199 4.44474 32.1471 4.75909L36.1993 6.2911C36.732 6.48516 37.2892 6.55459 37.7894 6.83776C39.5727 7.84735 40.1608 9.41016 40.7812 11.1909C40.9407 11.6484 41.1238 12.1344 41.2335 12.6053L41.3284 12.9488C41.3439 13.0413 41.3774 13.1137 41.3999 13.2024L41.5784 13.9097C41.6356 14.1165 41.6671 14.3341 41.7185 14.5425L42.3285 17.4722C42.3497 17.5766 42.3528 17.6852 42.3751 17.7886L43.1737 23.1624L43.6589 28.635C43.6866 28.9485 43.6794 29.27 43.6854 29.5847C43.6941 30.044 43.7674 30.4844 43.7705 30.9486L43.7645 36.9241C43.7583 37.0966 43.709 37.2571 43.6949 37.4265L43.5734 39.5075C43.5404 40.5726 42.4876 40.5045 42.378 39.8105C42.3423 39.5843 42.3843 38.7105 42.4285 38.5088C42.5546 37.9326 42.4209 37.3155 42.5096 36.7378C42.6232 35.9979 42.5755 35.1996 42.576 34.452L42.5706 30.9972L42.4759 29.022C42.4603 28.566 42.4104 28.0195 42.3688 27.5644L42.0801 24.1853L40.8613 16.1903C40.4371 14.1714 39.6891 10.72 38.4417 9.02598C37.524 7.77976 37.1278 7.95441 35.9008 7.48909L31.5402 5.86581C31.296 5.80482 31.17 5.80224 30.9895 5.62074L30.6133 5.24523C30.3705 5.02482 30.0636 4.81468 29.7663 4.67487C29.7183 4.85504 29.7028 5.04221 29.6735 5.2261L28.4752 10.8511L27.384 14.7555L24.3893 23.776C24.3398 23.9258 24.2956 24.1118 24.2005 24.241L24.1768 24.2716C24.3394 24.5431 24.4261 24.8167 24.4842 25.1275L31.3003 10.8166C31.4105 10.5862 31.5105 10.3301 31.6504 10.1169C32.0559 9.49862 32.9515 9.95607 32.6927 10.6931C32.5532 11.0902 32.3308 11.475 32.1559 11.8589L26.0772 24.5563L25.4647 25.6499C25.1107 26.3007 24.7517 26.9865 24.3204 27.5902C24.5933 28.2583 24.718 28.9666 24.9524 29.6431L25.5771 31.7082C25.587 31.7523 25.5916 31.7874 25.6089 31.8295L27.2787 36.6792C27.552 37.5353 27.9635 38.3581 28.2842 39.1988C28.5129 39.7983 28.686 40.4669 28.9902 41.0316C29.7089 42.3654 30.8814 43.5879 32.515 43.5035C33.1529 43.4706 33.8106 43.1841 34.4206 43.0014L35.835 42.5929C37.1142 42.2132 38.2557 42.201 37.9037 40.4418L34.3979 23.0462C34.3359 22.7392 34.2599 22.4244 34.2314 22.1128C34.1728 21.4702 35.0729 21.1202 35.3534 21.772C35.4613 22.0226 35.4703 22.3492 35.5311 22.6167L35.8572 24.1659C35.9619 24.7242 36.0584 25.3121 36.188 25.8628L37.3475 31.4935C37.4431 31.94 37.4897 32.4032 37.5941 32.8472L38.2965 36.3042C38.4255 36.8625 38.4882 37.4352 38.6251 37.9917L39.0069 39.9002C39.191 40.8657 39.3696 41.5319 38.817 42.4102C38.1818 43.4197 37.1126 43.4978 36.071 43.8064L34.2504 44.3562C33.6202 44.5449 32.9898 44.7679 32.3234 44.7722C30.4133 44.7848 28.9137 43.3653 28.0231 41.7966C27.6935 41.216 27.515 40.5557 27.2708 39.9372L25.7591 36.0886ZM19.414 4.69876C19.4031 4.86999 19.4797 5.00523 19.5071 5.17116L20.35 9.11377C20.4002 9.38926 20.4746 9.72652 20.5699 9.99132L21.5079 13.4593C21.5796 13.6658 21.6157 13.8924 21.6945 14.0941L22.8911 17.8755C22.9398 17.9976 22.967 18.1242 23.0158 18.2456L23.2169 18.859C23.2895 19.0305 23.3117 19.2308 23.423 19.3886L23.4345 10.7272C23.4346 10.4379 23.3497 9.78188 23.4943 9.53265L23.5122 9.49951C23.7654 9.03652 24.4526 9.04599 24.572 9.61651L24.5855 9.70416C24.6324 9.96709 24.6114 10.2579 24.6113 10.5255L24.6095 18.5714C24.6094 18.8271 24.5923 19.0956 24.6191 19.3497C24.645 19.2283 24.668 19.1102 24.7142 18.9947L25.055 17.876L25.7109 15.9605C26.6218 13.1112 27.4603 10.2265 28.0677 7.29601L28.412 5.5419C28.465 5.25268 28.5336 4.96009 28.5666 4.66808C28.1256 4.87557 27.6508 5.01006 27.1873 5.1572L26.0052 5.54096C25.6659 5.64559 25.3205 5.73938 24.9933 5.87823L25.7187 6.88257C25.982 7.24946 26.4221 7.65521 26.1732 8.13235L26.1595 8.16015C25.8271 8.81499 25.3525 8.41295 25.0574 8.03841L24.479 7.27159C24.3193 7.0442 24.1751 6.79487 23.9802 6.59518L23.159 7.75735C22.9184 8.09518 22.5527 8.7983 22.0457 8.36912C21.5453 7.94555 21.8978 7.43232 22.171 7.01902L22.9386 5.85441C22.8805 5.80351 22.7472 5.7834 22.6717 5.76081L19.414 4.69876Z" fill="black"/>
</svg>
