<svg width="48" height="48" viewBox="0 0 48 48" fill="none" xmlns="http://www.w3.org/2000/svg">
<path d="M28.307 42.4623C27.0616 42.9545 25.5353 43.3128 24.409 42.3289C23.7708 41.7714 24.189 41.716 23.619 42.2292C23.2565 42.5556 22.746 42.7543 22.2774 42.8672L22.2328 42.8782C21.1841 43.1281 20.0065 42.6221 19.074 42.2024C17.1737 41.3469 15.7151 40.6369 15.2022 38.5024L12.1354 38.9732C11.9647 39.0035 11.7347 39.07 11.5653 39.0314L11.5313 39.0225C10.9375 38.8713 10.9411 38.4123 10.8897 37.9141L9.12897 26.6737L8.84214 24.1309C8.78964 23.4501 8.74905 22.8141 8.71014 22.1329L8.64893 16.4717C8.7206 14.7754 9.08444 11.8746 10.0333 10.3972C10.9256 9.0078 12.5079 8.39312 13.9622 7.76767L15.8369 6.97305C16.0806 6.87578 16.9616 6.5837 17.0811 6.40848L17.3846 5.99472C17.8646 5.39669 18.6268 5.0838 19.3713 5.0004C20.3066 4.98498 22.485 5.42992 23.3683 5.89L23.8654 6.16609C24.0357 6.25937 24.1119 6.11416 24.2638 6.02383C24.8947 5.64864 25.6237 5.49784 26.3321 5.3424L27.4212 5.08933C28.6509 4.84642 29.8649 5.05347 30.6871 6.06784C30.8535 6.27311 30.8728 6.4113 31.1183 6.52661L35.1855 8.28944C35.6416 8.5068 36.129 8.70845 36.5475 8.99387C37.5912 9.70562 38.4717 10.9911 38.7065 12.2506L38.8202 12.7138C39.1134 13.5822 39.3069 15.7378 39.3559 16.6503L39.3682 20.7007L39.2835 21.7138C39.2561 22.1616 39.2729 22.616 39.2336 23.0622L38.503 28.9738L37.043 37.9293C37.0175 38.1341 37.0435 38.4024 36.9521 38.5874L36.9392 38.613C36.6858 39.149 36.1537 39.0268 35.6897 38.9411L32.8003 38.5245C32.4315 40.3777 31.3427 41.0149 29.8463 41.7696C29.3464 42.0217 28.8377 42.2808 28.307 42.4623ZM19.4212 6.35903C19.1036 6.40412 18.8328 6.49506 18.5712 6.68476C18.8305 7.11747 19.2132 7.49176 19.52 7.89381L22.1405 11.3862L22.4144 11.6947L22.1163 8.50619C22.0445 7.86409 21.9963 7.54014 22.3566 6.97961C21.4455 6.71472 20.3921 6.25075 19.4212 6.35903ZM28.1018 6.35987C27.6759 6.4164 27.2697 6.52501 26.8536 6.62701L25.5757 6.94989C25.8683 7.34275 25.9885 7.60947 25.9177 8.092C25.8237 8.73306 25.8033 9.38026 25.7385 10.0235C25.6811 10.5938 25.5471 11.1932 25.5767 11.7661L26.0182 11.1946L29.4346 6.67633C29.0018 6.44012 28.6024 6.30283 28.1018 6.35987ZM24.5876 7.54905C24.1866 7.7928 23.803 7.93262 23.4138 7.58383C23.3717 8.00842 23.4591 8.43512 23.4963 8.85733L23.8464 12.3227L23.9005 12.7263C23.9118 12.84 23.9012 12.926 23.9649 13.0276L23.9955 13.0279C24.0808 12.8024 24.0958 12.5391 24.1281 12.3013L24.5167 8.43601C24.5433 8.14061 24.5834 7.84684 24.5876 7.54905ZM17.7092 7.71672L17.2735 8.03983C17.0731 8.19086 17.1 8.30495 17.0178 8.53375L16.3455 10.4971C16.6473 10.807 16.9971 11.0544 17.3286 11.3308L18.1173 12.0346C18.448 12.3222 18.9077 12.6675 19.0818 13.0779L19.0939 13.1053C19.2909 13.5953 18.8787 13.9247 18.6318 14.2737C18.5833 14.3424 17.7164 15.6865 17.7164 15.6892C18.8583 17.2778 20.0826 18.8319 21.5227 20.1639C21.8694 20.4887 22.2707 20.8933 22.6876 21.1189L22.8939 21.2155L22.9552 17.4958C22.9684 17.2027 22.9579 16.9079 22.9847 16.6155C23.1226 15.1107 23.4625 15.7255 22.6683 14.483L18.0244 8.13658C17.9223 7.99595 17.8301 7.84187 17.7092 7.71672ZM30.2973 7.72239L25.7797 13.8557C25.396 14.4168 24.9155 14.9808 24.6508 15.6091C24.5446 15.8611 24.5071 16.1321 24.3917 16.3772C24.3165 16.5368 24.2778 17.236 24.2683 17.4625L24.2564 22.109C24.2574 22.5039 24.2277 22.9383 24.3034 23.3257L24.34 23.6157C24.3651 23.7599 24.3598 23.9149 24.3633 24.0612L24.6103 28.4677C24.6185 28.7947 24.663 29.1157 24.6695 29.4101L24.6787 39.0699C24.6788 39.5421 24.5926 40.1233 24.7757 40.57L24.8999 40.8418C25.7627 42.5706 28.7605 40.7981 29.8653 40.2153C30.9065 39.6661 31.4987 39.0302 31.5029 37.8473L31.5206 36.9958C31.5283 36.8465 31.5579 36.701 31.5668 36.5524L32.098 29.9411L32.8774 23.6856C32.9289 23.3398 32.9574 22.9889 33.0253 22.6457L33.7332 18.2216L33.8761 16.6225C34.046 14.9122 34.5068 13.1698 35.0987 11.5621L35.468 10.6288C35.5483 10.4363 35.6402 10.2484 35.7022 10.0489L33.4631 9.00761C33.1225 8.85597 32.7778 8.66308 32.4256 8.54514L32.7671 9.51536C32.897 9.83715 33.1936 10.6361 33.0611 10.9083L32.999 11.0189C32.833 11.3245 32.5436 11.6127 32.3202 11.8825L28.7656 16.537C28.6083 16.7415 28.4392 16.9271 28.3166 17.156L28.3477 17.1781C28.6151 17.1303 28.8996 16.9727 29.1563 16.876L30.4238 16.3948C30.8721 16.2012 31.9046 15.677 32.0797 16.5371C32.1436 16.8507 31.9911 17.0579 31.8317 17.3085C32.1443 17.3781 32.5349 17.4238 32.7178 17.722C32.9451 18.0926 32.711 18.7105 32.2473 18.7381C32.0711 18.7487 31.8884 18.735 31.7116 18.7348L27.0738 18.7368C26.9068 18.7385 26.6967 18.7644 26.5392 18.7037C25.8318 18.4315 26.1396 17.7603 26.4562 17.3429L30.951 11.3957C31.1757 11.108 31.4043 10.8137 31.651 10.5445C31.6907 10.5013 31.6354 10.4201 31.6197 10.3684L30.9217 8.26801C30.8415 8.06294 30.5134 7.7793 30.2973 7.72239ZM15.5137 8.58958L12.3021 10.0516L13.5356 13.2199L14.0919 15.6259C14.1326 15.7967 14.1359 15.9743 14.1565 16.1482L14.3154 17.9178C14.3553 18.5368 14.3926 18.927 14.4899 19.551L15.1423 23.7068C15.173 23.897 15.1781 24.0913 15.2216 24.28L15.6969 28.0951C15.7354 28.2865 15.7373 28.4971 15.7542 28.6923L16.3612 35.531L16.4992 37.7693C16.5689 39.54 17.6311 39.9887 19.1235 40.7224C19.9848 41.1458 21.0386 41.7265 22.0337 41.5164L22.1304 41.49C22.5516 41.3535 22.8995 41.1392 23.1032 40.7326L23.2608 40.3512C23.3257 40.1746 23.2986 39.9318 23.2991 39.7439L23.2878 28.3844C23.2803 28.0239 23.2028 27.6694 23.1849 27.3073C23.161 26.8239 23.2188 26.3103 23.1424 25.8336L23.1155 25.5944C23.0475 25.1862 22.9921 24.1583 22.9804 23.7258L22.9617 23.0346C22.9581 22.9199 22.9657 22.7879 22.9381 22.6773L22.9135 22.6734C21.2591 22.3843 17.9854 18.4132 17.0903 17.1158L16.5521 16.3105C16.3752 16.0428 16.1744 15.8212 16.2323 15.4802L16.2377 15.447C16.2886 15.1718 16.5701 14.9208 16.729 14.695L17.6419 13.3872C17.4079 13.2108 17.2023 13.0093 16.9804 12.8196L15.6563 11.6716C14.6854 10.8035 14.713 11.0353 15.1758 9.68776L15.5137 8.58958ZM11.239 10.9306C10.4651 12.3946 10.1234 14.2777 10.0222 15.9385L9.94821 20.3158L10.0393 22.4921C10.0466 22.6088 10.0703 22.7225 10.079 22.8382L10.4227 26.4071L11.4908 32.897C11.543 33.2124 11.5787 33.5441 11.6551 33.8543L12.1931 37.551L13.6142 37.3426L14.7202 37.1709C14.8571 37.1471 14.9915 37.1473 15.1257 37.1065L14.7431 32.0974L13.9677 24.8267L13.1486 19.6755L12.9294 17.0974C12.7369 14.9658 12.1564 12.8637 11.239 10.9306ZM36.7315 10.9877L35.908 13.3474L35.3504 15.6638C35.2723 16.057 35.202 16.4723 35.1606 16.8712L35.0635 18.0818C35.0214 18.5725 34.992 19.0717 34.9152 19.5584L34.2375 23.4599L33.1677 32.8188L32.956 35.5603C32.9181 36.0781 32.8469 36.6092 32.8651 37.1291L34.4114 37.3387L35.7558 37.5691L37.5864 25.9919C37.7512 24.8642 37.8085 23.7279 37.8992 22.5935L38.0446 20.6887L38.0462 17.0723C38.0399 16.9195 37.9993 16.7707 37.9915 16.6169L37.9753 16.0814C37.8855 14.8158 37.5595 12.1084 36.8542 11.1676L36.7315 10.9877Z" fill="black"/>
</svg>
