<svg width="48" height="48" viewBox="0 0 48 48" fill="none" xmlns="http://www.w3.org/2000/svg">
<path d="M25.2415 12.8818C25.0789 13.333 25.0666 13.489 24.9497 13.9023C24.8945 14.0972 24.7912 14.2747 24.7513 14.4767C24.7057 14.7083 24.6858 15.2462 24.6231 15.4152L24.6113 15.4452C24.4202 15.9595 23.6766 16.148 23.4443 15.55L23.4315 15.5155C23.353 15.3099 23.1821 14.2301 23.1788 14.0363C23.1727 13.6862 23.0552 13.4874 22.9123 13.1682L20.3322 7.39632C20.1802 7.0629 20.0107 6.71382 19.8975 6.36526L19.8843 6.32387C17.8597 8.02032 14.7677 8.99167 12.1623 9.19951C12.1695 9.2447 12.1641 9.23378 12.1795 9.26729C12.6772 10.3507 12.9647 11.2712 13.321 12.3779L13.3936 12.6377C13.4012 12.676 13.408 12.7095 13.4208 12.7468L13.5093 13.0446C13.843 14.0228 13.978 15.2458 14.0636 16.2772C14.0824 16.5027 14.1237 16.7267 14.136 16.9525L14.1327 20.1687C14.1242 20.3674 14.092 20.5609 14.0746 20.7584L13.7411 24.4098L13.2172 28.7807L13.108 32.3924L13.0159 34.9619L12.6405 39.3339C12.3463 41.2145 10.1209 41.9007 9.16703 40.4679C8.74853 39.8392 8.83159 39.1484 8.83141 38.4336L8.82381 35.6761C8.81416 35.3469 8.76039 35.0249 8.74361 34.6991L8.63575 30.339C8.6305 30.1197 8.58658 29.9049 8.58203 29.6852L8.64587 22.792L8.72144 21.996L9.02467 17.3085L9.89209 11.4577C10.0645 10.5861 10.3255 9.71439 10.627 8.87987C11.0587 7.68479 11.2323 8.00462 12.3908 7.86568C14.2566 7.6419 16.1413 7.21445 17.8122 6.32992C18.6558 5.88339 19.0289 5.84668 19.0322 4.87065L19.0333 4.15632C19.0338 3.83769 19.0172 3.57761 19.3225 3.38362L19.356 3.36315C19.4793 3.28684 19.6122 3.29388 19.7527 3.29037L27.5692 3.29091C28.2134 3.29009 29.04 3.10614 29.1043 4.02663L29.1239 4.78942C29.1205 5.17417 29.0362 5.31362 29.337 5.57898C30.817 6.88487 33.0782 7.52439 35.0268 7.77296L35.5566 7.8166C36.2783 7.89146 36.9136 7.70828 37.2336 8.44979L38.0719 11.3271C38.1814 11.6931 38.2705 12.4023 38.3383 12.827L38.8473 16.3476L39.1545 19.6171L39.2914 22.1717C39.3088 22.5107 39.3615 22.8538 39.3696 23.1913L39.3707 30.3506C39.3657 30.5817 39.3026 30.7984 39.2977 31.0271L39.246 35.3164C39.2403 35.5 39.196 35.6768 39.1906 35.8604L39.1823 38.4841C39.181 38.938 39.2478 39.4216 39.093 39.8553C38.576 41.3044 36.7387 41.7141 35.7787 40.3881C35.4053 39.8723 35.4183 39.1555 35.333 38.5518L34.901 34.1983L34.8939 32.8661C34.8865 32.5329 34.8318 32.2075 34.8163 31.8756L34.5889 26.9919L33.8403 20.051C33.6242 16.7514 34.0658 14.4494 35.0952 11.2875L35.5452 9.99484C35.6351 9.73365 35.7344 9.47537 35.7782 9.20139C33.3605 8.94067 30.5257 8.46264 28.6273 6.81531C28.4492 6.66076 28.2875 6.49468 28.0995 6.35073L25.2415 12.8818ZM20.4381 4.62713L20.4588 4.67057C20.4737 4.70078 20.4843 4.72768 20.4958 4.75946L21.6576 7.19518C21.7203 7.33276 21.7993 7.46312 21.8516 7.60548L23.5831 11.4842C23.6629 11.6461 23.7407 11.8259 23.8005 11.9957C24.0076 12.5829 23.9936 12.4407 24.1751 11.9991L25.083 9.92317L27.4925 4.64661C26.9191 4.59952 26.3303 4.62485 25.7545 4.62443L21.1257 4.62258C20.9128 4.62256 20.6453 4.5918 20.4381 4.62713ZM11.4163 10.6798C11.2897 11.1152 11.2097 11.5543 11.1165 11.9969L10.5956 15.0585L10.219 18.3866L9.94263 22.3187L9.92214 23.4873C9.91384 23.7092 9.85909 23.925 9.85398 24.1503L9.84634 29.8835C9.85277 30.1961 9.91961 30.4988 9.92434 30.8085L9.93836 32.4819C9.94933 32.7721 9.99775 33.0598 10.0042 33.3514L10.0227 34.5936C10.0533 35.2803 10.1324 35.8459 10.1379 36.575L10.1417 38.8563C10.1425 39.2006 10.0103 39.6438 10.3591 39.8485C10.6285 40.0066 10.8893 39.8919 11.1161 39.7176C11.369 39.4471 11.3525 39.271 11.3948 38.9178L11.6173 36.6913C11.6808 36.0312 11.7331 35.3639 11.7358 34.7012L11.8228 30.1343C11.8288 29.9417 11.8613 29.7504 11.8742 29.558L11.9082 28.7551C11.9517 27.9466 12.0696 27.1224 12.1791 26.3202L12.8569 19.9675L12.8674 18.3563C12.8672 16.3032 12.6303 14.3032 11.9835 12.348L11.6168 11.2788C11.5472 11.0807 11.4608 10.8853 11.4163 10.6798ZM36.6438 10.7537C36.1826 11.8303 35.6727 13.7088 35.4358 14.8475L35.1529 16.4214C35.039 16.9628 35.0853 17.5959 35.0826 18.1459C35.076 19.4627 35.1692 20.7845 35.3434 22.0897L35.7684 25.3163L35.9629 28.0756C36.0044 28.6875 36.0751 29.2985 36.0796 29.911L36.0911 30.9478C36.0941 31.2197 36.154 31.4725 36.1641 31.7417L36.2 33.8876C36.2073 34.0572 36.2454 34.2219 36.2555 34.3899C36.2957 35.0594 36.3118 35.6422 36.3812 36.3183L36.5476 37.8948C36.5724 38.1121 36.8167 39.5863 36.8631 39.6884C36.9865 39.8072 37.0784 39.86 37.2413 39.9129C37.8202 39.8225 37.8043 39.5277 37.8053 39.0318L37.81 38.1227C37.8138 37.8802 37.8629 37.6456 37.8671 37.4034L37.8767 34.6445C37.8835 34.321 37.9486 34.0083 37.9664 33.6878L37.9955 32.5565C38.0031 32.386 38.0485 32.2245 38.0589 32.0547L38.1399 30.1807L38.145 24.4086L37.9952 21.841C37.9782 21.4928 37.9899 21.1347 37.9413 20.7889L36.6438 10.7537Z" fill="black"/>
<path d="M34.7267 43.6338C34.6536 43.6698 34.576 43.7002 34.498 43.724L30.9493 44.536C30.5269 44.5945 30.1496 44.62 29.7192 44.6227C26.89 44.6399 24.8207 42.4752 24.0692 39.8639C24.0127 39.932 23.9751 40.0775 23.9399 40.1635L23.6837 40.7283C22.9615 42.1804 21.7673 43.6425 20.2464 44.2618C18.3209 45.0458 15.8271 44.4376 13.9425 43.8309C12.8788 43.4885 12.8577 43.427 12.8616 42.4331L12.9643 39.551L13.8692 30.0977C13.9095 29.5291 13.7881 28.5211 14.4784 28.2952L14.5079 28.2858C14.68 28.2298 14.8599 28.2758 15.0329 28.3021L18.118 28.7923C18.6208 28.8798 18.6106 29.759 18.1098 29.8009C17.9078 29.8178 17.6614 29.7554 17.4578 29.7306L15.2124 29.4223C15.1813 29.4829 15.1859 29.5659 15.1816 29.6329L15.0525 31.6891L14.3051 39.4012C14.2945 39.5405 14.2632 39.6767 14.2538 39.8163L14.2174 40.8818C14.1897 41.4598 14.143 41.9329 14.1406 42.5436L16.6759 43.1481C20.6291 43.9197 22.248 41.5496 23.2895 37.9264C23.4453 37.3844 23.3038 37.2085 23.1987 36.6724L22.813 34.4313L22.3749 29.8255L22.3644 26.8806C22.3897 25.784 22.5272 24.7786 22.9055 23.7381L23.2744 22.8026C23.4866 22.2739 23.3056 22.4265 23.0339 21.8708C22.4329 20.6416 21.9556 19.3653 21.5221 18.0691L20.2892 13.7593L19.8841 11.8288C19.838 11.5343 19.8075 11.5418 19.5718 11.3448L19.0886 10.917C18.8774 10.7319 18.5079 10.4872 18.4522 10.2009C18.3667 9.76188 18.639 9.43919 19.0637 9.37891C19.4449 9.41125 19.6507 9.70394 19.9274 9.93231L20.6346 10.5221C21.1992 11.0036 21.0639 11.1308 21.1884 11.7775L21.5975 13.6759C21.6265 13.7901 21.6331 13.9135 21.6706 14.0244L22.2339 16.0731L23.8762 20.6293C23.9175 20.7259 23.9726 20.813 24.0272 20.9025C24.3758 19.7515 24.9058 18.6462 25.3002 17.5086L26.2184 14.4807L26.6596 12.5392C26.7382 12.2065 26.8418 11.1746 26.9195 11.0085C27.1036 10.6149 27.6518 10.2873 27.9735 10.0155L28.442 9.58881C28.7495 9.31497 29.1499 9.29298 29.423 9.63353C29.8424 10.1564 29.2922 10.6059 28.9447 10.9045L28.2558 11.498C28.0967 11.6295 27.9566 12.7662 27.8851 13.0487L27.4539 14.8767L26.328 18.4915L24.5009 23.2314C23.8518 24.9996 23.6771 25.3716 23.6738 27.2007L23.7815 31.0669C23.8552 32.3918 23.998 33.7105 24.2361 35.0157C24.3156 35.4515 24.3893 35.8895 24.4642 36.3262L24.5586 36.7957C24.6856 37.5084 25.0807 39.1472 25.4259 39.7983C25.4761 39.893 25.5166 39.9964 25.5548 40.0964C26.0084 41.2826 27.0066 42.5152 28.1767 43.0174C29.5965 43.6267 31.4336 43.1711 32.8726 42.8029C33.2188 42.7143 33.5573 42.5887 33.9095 42.5294C33.8373 41.8327 33.8367 41.2504 33.7906 40.564L33.4017 35.8835L32.9017 31.2846L32.5362 29.3817C32.3306 29.4071 32.1358 29.4613 31.9337 29.5016L30.1928 29.8243C29.4574 29.9507 29.426 29.201 29.805 28.9853C30.0293 28.8575 30.417 28.8344 30.6742 28.786L32.1681 28.5006C32.6493 28.4011 33.3661 28.019 33.6628 28.6245L33.7499 28.8048C33.9242 29.165 33.9689 29.7657 34.0273 30.1577L34.2724 31.6017L35.0635 39.8204C35.0776 39.9924 35.1073 40.1644 35.1134 40.3367C35.1338 40.9105 35.2687 42.7865 35.1872 43.0539L35.1486 43.1827C35.0744 43.3963 34.9246 43.5344 34.7267 43.6338Z" fill="black"/>
</svg>
