<svg width="48" height="48" viewBox="0 0 48 48" fill="none" xmlns="http://www.w3.org/2000/svg">
<path d="M26.2593 41.5316L24.1304 39.5234C23.8405 39.8141 23.5208 40.0604 23.2038 40.319L19.4747 43.4853C19.2843 43.6422 19.0851 43.866 18.8603 43.9685L18.8338 43.9801C18.106 44.3084 17.8581 43.6188 17.6702 43.054L16.5369 39.5476C16.4138 39.1482 16.2628 38.7341 16.188 38.323C14.6929 38.2564 13.3465 37.9192 12.0898 37.0652C11.8524 36.9039 11.564 36.7014 11.5086 36.4004L11.5041 36.3747C11.4347 36.0298 12.091 34.8267 12.2602 34.4488C12.2147 34.3635 12.0914 34.2774 12.0218 34.2067C10.7241 32.8882 10.4927 30.6078 10.2339 28.8718L9.72761 24.2012C9.7158 24.0663 9.68716 23.9335 9.6783 23.7958L9.58398 21.855L9.64173 16.1243C9.68673 15.3565 9.70094 14.6275 9.79816 13.8581L10.1126 11.0971C10.159 10.5152 10.1874 9.76969 10.2076 9.17171C10.2167 8.9011 10.1237 8.44678 10.2952 8.21653L10.3146 8.19108C10.6286 7.75374 12.5108 7.03421 13.0931 6.86185L16.0023 6.10149C16.689 5.88263 17.3482 5.58239 17.995 5.26636C18.4767 5.03091 18.6496 5.0401 18.8067 4.54776C19.0882 3.66548 19.8194 3.18736 20.7131 3.03092L26.6285 3.01588C26.8697 3.01567 27.159 2.9826 27.391 3.04427L27.7966 3.16322C28.4319 3.40022 28.8805 3.83689 29.1547 4.4528C29.2945 4.76696 29.3119 4.86474 29.609 5.04197L30.174 5.34802C31.5648 6.01561 32.239 6.15478 33.6831 6.49838C34.8908 6.78567 36.1175 7.22532 37.166 7.90285C37.4027 8.0558 37.4044 8.24025 37.4305 8.49577L37.4857 8.9161C37.5262 9.20072 37.6068 9.48844 37.6555 9.77311L37.7618 10.386C37.8469 10.9028 37.8956 11.423 37.9708 11.9411L38.4352 17.3786L38.422 22.4528C38.41 22.6674 38.3687 22.8827 38.3516 23.0973L38.1137 26.1517L37.879 28.0836C37.6758 29.685 37.2694 33.0771 35.9778 34.1587L36.4802 35.6429C36.844 36.6822 37.0234 36.8157 35.8632 37.3779C34.7109 37.9363 33.4192 38.3319 32.1285 38.3214C32.0271 38.561 31.9854 38.8833 31.935 39.1409L30.8269 44.2876C30.7799 44.5081 30.6781 44.698 30.4802 44.821L30.4567 44.835C30.2426 44.9645 29.948 44.9705 29.7449 44.815L26.2593 41.5316ZM20.8099 4.48216C20.3509 4.53946 19.8838 4.93786 20.0972 5.44214L21.0247 7.78092C21.7239 9.47264 22.9017 11.7135 23.9916 13.2313L25.2169 11.2568C26.157 9.6316 26.9453 7.93378 27.6204 6.18286L27.8628 5.5253C28.0148 5.08561 27.9488 4.80178 27.4966 4.56314L27.4455 4.53439C27.1801 4.37948 25.2255 4.48063 24.7988 4.48061L20.8099 4.48216ZM18.9469 6.30914C17.1792 7.38235 15.821 7.5061 14.025 8.13103C14.4753 9.01978 14.7345 9.75713 15.1125 10.6272L15.785 12.8446C15.9604 13.4043 16.0205 14.0094 16.1364 14.5836C16.6497 17.1269 16.5505 19.7714 16.1642 22.3268L15.428 26.3877L13.9689 33.7028C13.9189 33.9916 13.8987 34.297 13.7571 34.5583L13.0574 36.006C13.8827 36.6171 14.8284 36.7992 15.8145 36.9256C17.1263 37.0457 18.3987 36.5231 19.3941 35.6958C19.972 35.2155 20.2439 34.6121 20.6053 33.9696L22.5323 30.5551C22.6001 30.4402 22.7254 30.2887 22.7612 30.1651L22.6512 29.9984C21.7404 28.6177 21.7735 27.0058 21.7729 25.4229L21.7731 19.3535C21.7739 17.4048 21.6486 15.8318 23.1076 14.3283L22.4536 13.4235C21.4685 11.9252 20.6575 10.3106 19.9226 8.67741L19.2955 7.21158C19.1845 6.92897 19.1024 6.56536 18.9469 6.30914ZM29.067 6.31482L27.8978 9.08766C27.0246 11.0451 25.616 13.6555 24.1581 15.2371C23.0673 16.4204 23.2226 16.9466 23.2229 18.5074L23.2188 26.7616C23.219 28.397 23.5541 28.8892 24.4738 30.2479L26.9158 33.7477C28.2659 35.6829 29.3724 36.8769 31.978 36.9521C32.8223 36.9645 34.4111 36.6643 35.1511 36.1747L35.1235 36.1371C34.7493 35.621 34.5171 35.0283 34.1125 34.529C33.9438 34.3207 34.0611 34.0576 34.0255 33.8013L32.6086 26.4841C32.0859 23.9506 31.4403 21.013 31.432 18.4216C31.4304 17.8869 31.5065 17.3417 31.5644 16.8106L32.027 13.689C32.3083 12.3914 32.7693 10.6733 33.3299 9.46767C33.5477 8.99935 33.8227 8.59078 34.0702 8.14341C33.5283 7.93603 32.934 7.82503 32.3761 7.66261C31.2062 7.32202 30.1421 6.89419 29.067 6.31482ZM35.4644 8.46239C35.0474 9.06497 34.6749 9.74578 34.4073 10.4294L34.0725 11.4255C33.5007 13.1399 33.1563 14.9046 32.9538 16.6997L32.857 17.7132C32.8164 18.1756 32.8373 18.5539 32.8602 19.0195L33.0451 21.1556C33.0698 21.3484 33.08 21.5466 33.1135 21.738L33.4269 23.4837C33.5004 23.9345 33.5672 24.3861 33.6681 24.8317L34.4599 28.6915C34.5688 29.2501 34.6662 29.8088 34.7927 30.3632L34.981 31.3683C35.0365 31.6434 35.1078 31.9283 35.1456 32.205C35.1858 32.4515 35.2237 32.6999 35.3039 32.937C36.0356 31.4205 36.2992 29.7084 36.5004 28.0527L37.0355 22.5192L37.119 20.3286L37.0188 15.9363L36.6794 12.5036L36.3043 10.0192C36.2117 9.55692 36.2155 8.92936 35.8239 8.69541L35.4644 8.46239ZM12.7346 8.48883C12.3654 8.62599 11.9245 8.78316 11.5876 8.98599L11.5075 10.4997C11.4952 10.7788 11.5079 11.0602 11.481 11.3385L11.0546 14.9957L11.0328 15.6911C11.0229 15.8786 10.9867 16.0642 10.9784 16.2529L10.9319 21.559L10.9852 22.6812C10.9961 22.8307 11.0265 22.9783 11.0358 23.1283L11.0498 23.8388L11.4858 27.9841C11.5432 28.3467 11.5699 28.7185 11.6364 29.0798L11.8693 30.4181C11.9993 31.08 12.3366 32.4937 12.7236 32.9259L12.8247 32.3624L14.2102 25.3829C15.2501 20.1587 15.6629 16.4796 13.9199 11.3597C13.5834 10.3714 13.1313 9.45061 12.7346 8.48883ZM23.6042 31.4098L21.9649 34.3777C20.8789 36.3242 20.2207 37.4044 17.8215 38.0688L17.5358 38.148L18.6937 41.8138C18.7414 41.9515 18.7687 42.0644 18.8407 42.1939L23.4826 38.2986C24.0985 37.785 24.3102 37.731 24.8822 38.3219L29.7272 42.8666L30.7421 38.2481C27.798 37.4434 27.0969 36.4163 25.34 33.9264L24.0715 32.1091C23.9194 31.886 23.7537 31.6616 23.6151 31.4303L23.6042 31.4098Z" fill="black"/>
</svg>
