<svg width="48" height="48" viewBox="0 0 48 48" fill="none" xmlns="http://www.w3.org/2000/svg">
<path d="M19.2437 37.5164C18.5817 38.1096 17.83 38.6144 17.0906 39.1051C15.5778 40.1091 15.234 40.5211 13.5616 39.8622C12.51 39.4479 11.586 38.9311 10.6786 38.2592C9.51901 37.4006 9.02049 36.9885 9.12385 35.5181L9.21995 33.9974C9.22679 33.9009 9.25182 33.81 9.25909 33.7149L9.61159 29.9929C9.33732 29.9253 9.07402 29.8033 8.80126 29.7258C7.86366 29.4596 6.60887 29.3391 5.62009 29.4433C5.16188 29.4916 4.51313 29.7999 4.27974 29.0484C4.18983 28.7589 4.26787 28.396 4.2864 28.0983L4.99421 22.0075L5.33795 20.0856C5.9612 16.3936 7.23756 10.7606 9.07885 7.48796L9.88913 6.19904C10.0487 5.96415 10.1706 5.70479 10.4704 5.6274L10.5001 5.62041C10.7423 5.56173 10.9939 5.57448 11.2384 5.53229C11.9103 5.41637 12.6739 5.19873 13.2777 4.89948C13.7546 4.6631 13.9228 4.62325 14.3969 4.4448L17.4424 3.31332C18.6576 2.9224 18.8694 3.5658 19.7698 4.32341L23.9956 8.05505L28.8214 3.80685C29.1187 3.53725 29.364 3.25834 29.7626 3.14389C30.0739 3.09551 30.3236 3.25028 30.6061 3.35535L35.2073 5.07296C35.5598 5.21087 35.9303 5.36269 36.3004 5.44294L37.383 5.62515C37.8358 5.67835 37.987 5.99349 38.2157 6.34107C38.6471 6.99666 39.0316 7.68296 39.3721 8.3903L40.6683 11.7887L41.1434 13.3874C41.2316 13.8216 41.4106 14.3874 41.5317 14.8239L42.0462 16.945C42.1742 17.4745 42.2486 18.0215 42.3753 18.5505L42.7127 20.2316C42.7545 20.4858 42.7973 20.7389 42.8389 20.9935L43.0347 22.1614L43.6089 26.9306C43.6205 27.0491 43.6475 27.1642 43.655 27.2848L43.6876 28.1249C43.6899 28.3291 43.6797 28.5429 43.7023 28.7456C43.8163 29.7699 42.8761 29.4884 42.3507 29.4433C40.9998 29.3273 39.6645 29.5496 38.391 30.0019L38.7825 34.3233C38.7898 34.465 38.7795 34.6074 38.7889 34.749L38.8564 36.4779C38.8616 37.2391 38.8146 37.3752 38.1811 37.9L37.6476 38.3133C36.8477 38.8725 33.9529 40.396 32.9247 40.1905C32.7221 40.1501 32.5384 40.0261 32.3644 39.9207L31.3019 39.2277C28.8141 37.6393 26.6533 35.72 24.9916 33.2643L24.3264 32.1883C24.2268 32.0147 24.1462 31.8378 24.038 31.6681C23.7989 32.02 23.6152 32.4146 23.3774 32.7714C22.2192 34.5088 20.8738 36.1963 19.2437 37.5164ZM17.9872 4.56625L16.0723 5.26219C16.4605 5.60738 16.8846 5.90471 17.2929 6.22473L21.7544 9.53288C21.9489 9.68157 22.1476 9.8191 22.3267 9.9871C22.65 10.2779 23.0091 10.5775 23.2878 10.912L23.2982 9.72765C23.2988 9.58191 23.3221 9.38246 23.2833 9.24324L17.9872 4.56625ZM29.9934 4.59038L24.7465 9.22248C24.522 9.39807 24.6205 11.3292 24.6991 11.4255H24.7272C24.9485 11.0445 25.1573 10.7158 25.4463 10.38C26.5469 9.20551 27.8807 8.31399 29.1785 7.37373L30.7627 6.15118C31.1259 5.86993 31.5223 5.59594 31.8624 5.28826L29.9934 4.59038ZM14.5203 5.81696C13.8479 6.16018 12.8948 6.59424 12.126 6.66202L12.496 7.49832L12.9746 9.1936C13.1122 9.70777 13.1638 10.2862 13.2213 10.8131L13.382 12.236C13.3911 12.3759 13.3817 12.5161 13.3869 12.6559L13.391 17.0722C13.3644 17.587 13.3328 18.1719 13.2886 18.6794C13.1797 19.9304 13.0031 21.1818 12.6082 22.3778L12.2894 23.302C12.1181 23.859 11.9505 24.4272 11.8279 24.9976L11.3479 27.6316L10.4981 35.523C10.4521 36.3928 10.3621 36.1779 10.9749 36.7178C12.0426 37.6585 13.3694 38.4426 14.7596 38.7793C15.907 38.3203 17.0331 37.4698 17.9979 36.7209C20.2741 34.8698 22.0208 32.6423 23.3539 30.0356C22.7784 28.3991 22.4645 26.6413 22.2231 24.9281L21.9322 22.619C21.8397 21.5891 21.8311 21.6068 22.0014 20.611C22.1813 19.5592 22.4454 18.5303 22.718 17.4996L23.7305 13.9862C23.8329 13.6853 23.9197 13.7329 23.7004 13.512L22.3076 11.8823C21.3436 10.6873 20.4406 10.2731 19.2153 9.39587L14.5203 5.81696ZM33.3706 5.83707L28.6994 9.44584C26.5483 11.02 26.0086 11.4324 25.1662 13.9711L24.4216 16.3856C23.965 18.004 23.5193 19.6211 23.2432 21.2821L23.9695 21.2838C24.0726 21.2845 24.2148 21.2708 24.3116 21.3039C24.9991 21.5386 25.0896 22.6628 23.9065 22.6638L23.2943 22.6618L23.8823 26.6851C23.9212 26.9208 23.9675 27.1519 24.0132 27.3864L24.1968 28.1946C24.3156 28.7178 24.4888 29.2103 24.6695 29.7139L24.7994 30.0466C25.8038 32.4796 27.6185 34.8017 29.7025 36.4275C29.9172 36.6177 30.1518 36.7841 30.3796 36.9584L32.2583 38.2677C32.5641 38.4649 32.8774 38.6961 33.2079 38.8479C34.6076 38.6663 36.5319 37.5649 37.5675 36.6898C37.521 36.2209 37.5226 35.7559 37.5058 35.2859L37.1527 31.1254L36.6459 26.9851C36.4391 25.7193 36.188 24.4398 35.8106 23.2123C35.5866 22.4836 35.2556 21.7873 35.0853 21.0429C34.9713 20.5449 34.9204 20.0304 34.8686 19.5231L34.5784 15.9863C34.5651 15.8176 34.5306 15.6537 34.5216 15.4855L34.4861 14.0216C34.3705 11.2766 34.4221 9.2701 35.7495 6.7404L33.3706 5.83707ZM10.8974 6.96868C9.68424 8.84907 8.92759 11.0255 8.30874 13.1632L7.4199 16.4922L6.49056 21.1766L5.77477 26.3186L5.67863 27.6066C5.6746 27.7657 5.65684 27.9352 5.67235 28.0925L5.70235 28.0878C6.20724 28.0156 6.80738 28.0343 7.31415 28.0694C7.76513 28.1427 8.20177 28.1574 8.6453 28.2677C9.03938 28.3659 9.42198 28.5307 9.81765 28.611L9.96938 27.2809C10.1098 26.156 10.3192 25.0101 10.611 23.914C10.8833 22.8912 11.3079 21.9068 11.5274 20.8708C11.7398 19.8683 11.8468 18.821 11.9299 17.8005L12.0844 15.93C12.2011 13.6149 12.0177 10.209 11.3062 8.04994L10.8974 6.96868ZM37.1034 7.18327C35.4309 9.6616 35.7859 13.0717 35.9169 15.9559L36.1407 18.7145C36.2433 19.5518 36.2056 20.4627 36.5173 21.2575L37.3229 23.7829C37.3787 24.045 37.4598 24.3042 37.5084 24.5672L38.2347 28.5901C39.1845 28.3078 39.6706 28.2222 40.6357 28.0794L42.3792 28.0633C42.1969 25.7504 41.9364 23.4221 41.5197 21.1383L40.4385 16.0016C40.0202 14.2397 39.5432 12.4983 38.9031 10.8021C38.7409 10.3724 37.4388 7.24726 37.1034 7.18327Z" fill="black"/>
</svg>
