<svg width="48" height="48" viewBox="0 0 48 48" fill="none" xmlns="http://www.w3.org/2000/svg">
<path d="M21.5233 38.9585L19.9627 44.2027C19.67 44.9075 19.1138 45.4829 18.4039 45.7735C17.3231 46.216 16.2425 45.7295 15.2383 45.3358L13.9819 44.8489C12.1678 44.08 10.6377 43.0121 10.5344 40.8355C10.5106 40.3352 10.6014 39.7855 10.6466 39.2855L6.65293 38.9644C5.7061 38.8882 5.59393 38.8967 5.59154 37.9671L5.58737 36.6219C5.58352 36.4165 5.54134 36.2153 5.53613 36.0113L5.53862 28.9654C5.54424 28.7896 5.57682 28.6169 5.58348 28.4422L5.65023 26.4957L6.07787 21.6558C6.54816 17.3827 7.17887 13.0793 8.50477 8.97615C9.07618 7.20784 9.85487 4.30879 11.9647 3.94904C12.7414 3.81661 13.2558 3.86588 14.0657 3.61028L17.5183 2.28017C17.9874 2.11165 18.1729 2.28285 18.5944 2.47518C21.7952 3.93592 25.5954 3.99116 28.8046 2.5297C29.0773 2.4055 29.3405 2.26298 29.6215 2.1581C29.9088 2.14711 30.0208 2.24152 30.2758 2.35958L30.996 2.67068C32.2323 3.21075 33.5629 3.79642 34.924 3.90591C35.2987 3.93604 35.6217 3.93003 35.9864 4.0409C37.1686 4.40029 37.8345 5.39476 38.2601 6.48221L38.6956 7.59582L39.5761 10.2684L40.1326 12.5271C40.3219 13.1032 40.4859 14.211 40.589 14.8214L41.5779 21.6441C41.6411 22.1488 41.6754 22.6566 41.7218 23.1626L42.0126 26.5558C42.0257 26.6924 42.0552 26.8272 42.0639 26.9644L42.3581 31.5915L42.381 32.9829C42.3903 33.2165 42.4307 33.4461 42.4377 33.6795L42.4496 37.9007C42.4586 38.2906 42.5641 38.8078 42.0331 38.9137C41.5919 39.0017 41.0895 38.9579 40.6391 38.9966L36.7173 39.4247C36.7614 40.1155 36.9295 40.7493 36.833 41.4566C36.5454 43.5641 34.798 44.3597 33.1053 45.0954L32.0387 45.5322C31.6419 45.6916 31.228 45.8617 30.8011 45.9166C29.4924 46.0851 28.2623 45.4413 27.7174 44.2373C27.5181 43.7966 27.417 43.2991 27.2944 42.8324L25.0273 34.5352L22.8388 34.5394C22.75 34.6139 22.7538 34.7538 22.7225 34.8599L21.5233 38.9585ZM29.4217 3.51746C28.7672 3.76299 28.119 4.02689 27.4452 4.21638C24.3237 5.0942 21.2901 4.77165 18.3227 3.57052L17.9308 5.14688C17.86 5.37071 17.8832 5.38403 17.9588 5.60115L20.6491 12.234L21.6758 14.5084L23.6372 18.6429C23.6794 18.7317 23.73 18.8207 23.7883 18.8999L25.3637 15.9605C27.1399 12.5548 28.8108 9.05279 29.9872 5.39031L29.4217 3.51746ZM17.0917 3.71443C16.7095 3.80397 16.3253 3.98196 15.9608 4.1278C14.9674 4.52524 13.9962 4.89193 12.9267 5.00738C11.7836 5.13076 11.2714 5.16573 10.6725 6.41434C10.1421 7.52017 9.73084 8.70362 9.38143 9.87699L8.35257 13.8483L7.22105 21.0113L6.83555 25.2055L6.71345 27.9211C6.70449 28.1395 6.65232 28.351 6.64449 28.5717L6.63868 35.9257C6.6398 36.5523 6.61707 37.1934 6.68518 37.8165C7.27805 37.9352 7.90515 37.9502 8.50768 38.0005L10.896 38.2284C11.0504 37.3122 11.2769 36.4244 11.496 35.5225L12.6472 30.6075L13.2175 27.3043L13.7911 21.5409L13.8054 16.3678C13.8057 15.8154 14.3322 15.4585 14.7747 15.9019L14.7971 15.9239C14.9734 16.101 14.9052 16.4311 14.9054 16.6579L14.9006 20.7751L14.702 24.0175C14.6027 25.5098 14.3971 26.9832 14.1647 28.4598L13.8249 30.4918L12.0857 38.038C11.8599 39.1795 11.3688 40.5162 11.8475 41.6577C12.5216 43.2652 14.3129 43.7988 15.8176 44.3656C16.36 44.5699 16.9256 44.8705 17.5194 44.8206L17.5626 44.8172C18.8393 44.7041 19.0622 43.3593 19.3595 42.3746L22.7403 30.5214L23.2429 27.8785C23.3879 26.9501 23.5221 25.5691 23.545 24.6025L23.5929 22.341C23.6045 21.9742 23.5794 21.5609 23.6682 21.2039C23.6277 21.0759 23.5561 20.9692 23.5008 20.8482L21.7803 17.3617L19.8509 13.1342L17.2236 6.8042C16.6826 5.35121 16.7559 5.3882 17.094 3.90796C17.1119 3.82945 17.1643 3.7591 17.0917 3.71443ZM30.691 3.78474C30.588 3.96736 31.0971 4.89784 31.0561 5.43751C30.9909 6.29631 30.4376 7.53048 30.1196 8.32412L29.5132 9.85895L27.2622 14.7076L24.3564 20.0991C24.9446 21.0254 24.712 21.4101 24.6601 22.438L24.6403 24.9756C24.6207 25.5628 24.5041 26.151 24.518 26.7418C24.5333 27.394 24.68 28.0498 24.8033 28.6873L24.9851 29.5777C25.0154 29.7199 25.0294 29.8609 25.0682 30.0024L25.6009 32.3646L28.4145 42.7714C28.5619 43.4499 28.7918 44.1853 29.4088 44.5767C30.3294 45.1608 31.2622 44.6249 32.1392 44.2581C36.3521 42.4958 36.066 41.7663 35.2732 37.8746L34.4497 33.7931L33.4593 27.4469L33.0057 23.3724L32.8334 20.863L32.8288 16.7567C32.8291 16.5501 32.815 16.3306 32.8334 16.1252C32.8855 15.5398 33.891 15.5703 33.9331 16.2183C33.9573 16.5927 33.9346 16.9848 33.9347 17.3608L33.9386 20.6139C33.9466 20.848 33.9894 21.0784 34.0008 21.3119L34.0422 22.4954C34.0488 22.5982 34.0724 22.6965 34.0806 22.798L34.4155 26.2224L35.017 30.4332C35.1414 31.1713 35.1824 31.9633 35.3806 32.6859L36.5001 38.3059L41.3642 37.8302C41.2962 37.1429 41.3346 36.4198 41.3338 35.7291L41.3295 34.1012C41.3256 33.9049 41.2884 33.7099 41.2835 33.5125L41.0499 28.1807L40.308 20.1778L39.6857 16.0191C39.2874 13.5781 38.7679 11.1423 37.9663 8.79831L37.3924 7.27951C37.0269 6.35579 36.7586 5.5906 35.793 5.14702C35.5064 5.01535 35.1482 5.05524 34.8397 5.01882C33.1722 4.82185 32.1638 4.2561 30.691 3.78474ZM23.9827 30.0947C23.8135 30.4722 23.7723 30.8973 23.6881 31.3004L23.3348 32.7089C23.2835 32.9172 23.2395 33.1982 23.1526 33.3889L23.9237 33.3933L24.7437 33.3937L24.3566 31.831C24.2193 31.2739 24.0267 30.6662 23.9827 30.0947Z" fill="black"/>
</svg>
