<svg width="48" height="48" viewBox="0 0 48 48" fill="none" xmlns="http://www.w3.org/2000/svg">
<path d="M26.8073 43.103C25.652 42.9855 24.8261 42.5764 23.9172 41.9162C22.059 43.2564 20.574 43.3364 18.3284 42.752L11.0093 40.7691C9.73423 40.4686 9.65319 40.4327 10.0302 39.0364L11.5488 33.022C11.9034 31.421 12.2436 29.8216 12.4666 28.1958L12.599 26.9574C12.6634 26.3406 12.7497 25.7096 12.7668 25.0902L12.7742 23.5001C12.7741 22.9228 12.7659 22.386 12.6975 21.8142L12.563 20.7543C12.3802 19.5823 11.9914 18.4552 11.7437 17.2973L11.3401 14.8247C11.14 13.1842 11.0506 11.5879 11.2414 9.94113C11.4325 8.2916 11.8872 7.12853 13.6995 6.69278L17.1214 5.83338C17.3316 5.76541 17.3934 5.68085 17.5364 5.52142C17.9124 5.10227 19.6823 4.89039 20.2164 4.86222C20.5224 4.83007 20.8515 4.85482 21.1606 4.85453L27.3722 4.8566C27.7907 4.85894 28.1837 4.91472 28.594 4.99136L29.3154 5.16063C29.7226 5.25682 30.0547 5.34958 30.3173 5.69308C30.5173 5.95464 30.7043 5.86835 31.0082 5.93763L33.3502 6.54503C33.8486 6.66278 34.3233 6.67839 34.8056 6.87944C35.4816 7.16125 36.2097 7.72722 36.481 8.4273L36.5528 8.62136C37.2717 11.1883 36.8911 13.9789 36.4717 16.559L36.1896 18.1528C36.1322 18.4326 36.0957 18.7209 36.0279 18.9982L35.6015 20.6723C35.4332 21.2736 35.2445 21.8991 35.2136 22.5261L35.2115 24.2094C35.216 25.0413 35.2313 25.6721 35.3089 26.49L35.8612 30.4106C35.8865 30.5341 35.8891 30.6623 35.9148 30.7856L36.235 32.2504C36.3644 32.8219 36.546 33.4828 36.6447 34.0372L37.2073 36.2402C37.2475 36.4742 37.342 36.7046 37.3895 36.937L37.6759 38.0202C37.6997 38.1573 37.7495 38.3333 37.7946 38.4661L38.1438 39.6356C38.3598 40.6954 37.4411 40.6413 36.6146 40.8773L29.9956 42.6644C29.207 42.8625 28.4362 43.1053 27.6186 43.105L26.8073 43.103ZM20.9435 6.12133C20.333 6.12316 19.752 6.16774 19.1509 6.27569L23.5304 14.2968C23.6807 14.573 23.8254 14.8964 24.0159 15.1443L25.0658 13.2097L28.4182 6.9805C28.5395 6.75278 28.6813 6.53102 28.7774 6.29149C28.5206 6.25422 28.2672 6.1773 28.01 6.15236C27.2112 6.07488 26.3835 6.12128 25.5801 6.12124L20.9435 6.12133ZM29.8423 6.90278C29.7053 7.08836 29.6187 7.3046 29.5182 7.51122L25.2612 15.4859C25.0074 15.9709 24.6857 16.4661 24.521 16.9881L25.2765 16.5795L29.4023 14.0108L28.7409 12.0085C28.5497 11.4311 29.1121 11.1438 29.4813 10.8204L30.165 10.1949C30.3083 10.0615 30.3148 10.1058 30.2941 9.91244L30.0265 7.6788C29.9957 7.41166 30.0092 7.14855 29.8921 6.90053L29.8423 6.90278ZM18.0408 6.88638C17.9551 7.42432 18.0476 7.99136 17.9339 8.52035L17.7427 10.0963C17.9192 10.2873 18.0977 10.4799 18.292 10.653L18.9701 11.2386C19.5792 11.8023 19.2733 12.1971 19.0316 12.8793L18.762 13.6926C18.7207 13.8199 18.6524 13.963 18.6432 14.0966L22.789 16.6166C22.9987 16.7361 23.2096 16.87 23.4337 16.9611C23.4761 16.7731 23.4744 16.7143 23.3705 16.5495L18.4731 7.70219C18.3357 7.43603 18.2116 7.13121 18.0408 6.88638ZM16.7202 7.30122C16.2587 7.39267 15.8096 7.55599 15.3494 7.66089L14.4101 7.84605C14.1255 7.89461 13.8149 7.93371 13.5486 8.04602L13.5202 8.05769C12.5703 8.45941 12.4957 9.55549 12.4221 10.4347L12.368 10.9196C12.2309 12.9822 12.5063 15.1575 12.9869 17.1567C13.0757 17.5263 13.1343 17.9226 13.2532 18.2829L13.4433 19.0806C14.3961 22.2847 13.9823 26.7155 13.4154 29.9636L12.1526 35.8513L11.2124 39.535C11.4177 39.592 12.4901 39.9294 12.6054 39.8982L15.452 28.7347C15.5572 28.3526 15.6222 27.9219 15.7645 27.5545C16.023 26.8874 16.6202 27.1318 17.1463 27.2527L19.4637 27.6849C19.8822 27.7437 20.5452 27.7582 20.7372 28.1283C20.9077 28.457 20.8246 28.8251 20.4813 28.99C20.0567 29.1939 17.2714 28.5764 16.7808 28.4561L13.7694 40.2238C13.9088 40.292 14.0432 40.3198 14.1909 40.3614L18.1267 41.4127C18.6727 41.5565 19.2555 41.7648 19.8172 41.8218C20.868 41.9283 22.0265 41.7685 22.8852 41.1244C23.1526 40.9238 23.4438 40.4945 23.7659 40.4242L23.7901 40.4181C24.0377 40.3612 24.1792 40.5466 24.3401 40.6934C25.3427 41.6082 26.8189 42.0408 28.1518 41.8012L34.2208 40.2231L32.6999 34.4125L31.2732 28.7957C31.2456 28.6921 31.2269 28.5617 31.1762 28.4688L28.1775 29.0268C27.3408 29.1612 26.9982 28.0483 27.7468 27.8199C27.9025 27.7723 28.0613 27.7633 28.2207 27.7361L30.741 27.2448C31.3508 27.1104 31.9664 26.8241 32.2506 27.6098L32.6661 29.2242C32.7755 29.5868 32.8253 29.9758 32.9457 30.3349L33.7843 33.6591C33.8999 34.0104 33.9423 34.3943 34.0666 34.7433L35.1678 38.9997C35.2479 39.3152 35.3335 39.6343 35.4362 39.9428L36.8101 39.526L35.3864 34.0222C34.7695 31.4509 34.2437 28.8639 34.0517 26.2225L34.0194 24.9731C33.9866 23.9411 33.8916 22.9039 34.0628 21.8778C34.2327 20.8596 34.5462 19.8502 34.7806 18.8442C35.4065 16.1576 36.018 12.1464 35.4872 9.48443C35.203 8.059 34.3563 8.00243 33.0706 7.74021L31.2434 7.30296L31.383 10.19C31.3866 11.4396 30.7496 11.1559 30.0784 11.9814C30.1272 12.3064 30.3642 12.9335 30.4688 13.2778C30.6189 13.7712 31.0282 14.4449 30.4722 14.84C29.881 15.2601 29.2352 15.6169 28.6145 15.991L25.126 18.1317C24.6764 18.4113 24.1905 18.8745 23.6454 18.5741L18.2821 15.3411C18.0009 15.1699 17.4406 14.9321 17.3392 14.5828L17.3095 14.4582C17.162 13.8264 18.158 12.2061 17.9166 11.9976L17.1473 11.2972C16.1987 10.4608 16.4649 10.5101 16.5901 9.4106C16.6698 8.71085 16.692 7.99553 16.8096 7.30122C16.7632 7.28697 16.7641 7.291 16.7202 7.30122Z" fill="black"/>
<path d="M24.1694 21.6351C23.2697 21.7518 23.0363 20.7166 23.791 20.3463C24.1246 20.3239 24.4083 20.3579 24.577 20.6875L24.6093 20.7498C24.7617 21.1204 24.5219 21.5094 24.1694 21.6351Z" fill="black"/>
<path d="M24.156 27.6334C23.2323 27.7009 23.0269 26.7033 23.8138 26.3484C24.7988 26.2633 24.9347 27.368 24.156 27.6334Z" fill="black"/>
<path d="M24.0849 33.6278C23.2 33.6886 23.0692 32.4907 23.9008 32.325C24.3753 32.2924 24.8376 32.7215 24.604 33.2082L24.5749 33.2652C24.4697 33.4679 24.2953 33.5632 24.0849 33.6278Z" fill="black"/>
</svg>
