<svg width="48" height="48" viewBox="0 0 48 48" fill="none" xmlns="http://www.w3.org/2000/svg">
<path d="M26.7934 43.9341L26.0855 41.991L21.9237 41.9817C21.8633 42.0747 21.8466 42.1687 21.809 42.2716L20.7857 45.1629C20.2464 46.818 20.4607 47.4293 18.3749 47.2348C16.1075 47.0234 13.6688 46.0624 12.7206 43.8122C12.3717 42.984 12.409 42.1173 12.3717 41.2389L12.3168 38.405L12.5944 34.2461L12.9614 31.8049C13.0354 31.4007 12.8502 31.6165 12.7715 31.3278L12.7646 31.301C12.6764 30.9956 12.7454 30.6646 12.7574 30.3521L12.7705 24.4653C12.7701 23.5432 12.8098 22.599 12.7491 21.6798L12.2376 16.4768L11.7127 13.1634L11.2036 11.1184C10.7016 9.33358 9.23521 7.57389 10.2757 5.77834C10.8407 4.80334 11.7496 4.56229 12.7654 4.27993L15.5945 3.42081C16.4912 3.13996 17.3659 2.87967 18.2166 2.47418C18.5525 2.31409 18.4377 2.40375 18.5062 2.01825C18.606 1.45546 18.9078 0.928066 19.4962 0.776533L27.4059 0.765818C28.2392 0.766005 29.0316 0.572219 29.358 1.57966L29.4383 1.84009C29.4845 1.97707 29.5071 2.11431 29.5378 2.25534C29.9232 2.57503 30.4402 2.75126 30.9063 2.91879L34.7397 4.13021C36.074 4.51496 37.2662 4.68991 37.8757 6.12916C38.4484 7.48141 37.7294 8.69073 37.2302 9.89055C36.9198 10.6365 36.6777 11.4599 36.4934 12.2463L35.5332 18.1292L35.2337 21.9071L35.2608 26.8979C35.2736 27.4191 35.2633 27.7206 35.3083 28.2542L35.3944 29.563C35.4153 29.7821 35.4038 30.0155 35.4544 30.2296C35.6054 30.8683 35.5529 31.1958 35.0381 31.6401C34.9941 32.072 35.1421 32.5923 35.2085 33.0193L35.5195 35.7508C35.5492 36.1211 35.5895 36.4848 35.601 36.8562L35.6307 38.0371C35.6362 38.2674 35.6782 38.4932 35.684 38.7224L35.6908 40.938C35.6688 41.5774 35.6172 42.5658 35.4907 43.1447C34.9482 45.6273 32.1673 47.0581 29.8258 47.2367C29.4931 47.262 29.1478 47.2465 28.8139 47.246C27.6421 47.2446 27.7097 46.5772 27.3792 45.6144L26.7934 43.9341ZM19.971 2.23305L19.8778 2.25555C19.8316 2.4705 19.9213 2.80552 20.0062 3.00959L20.9167 6.3445C20.9266 6.38842 20.9406 6.42639 20.9547 6.469L21.4147 8.0493L23.8925 15.3789C24.0224 15.8006 24.0924 15.338 24.1431 15.176L25.0538 12.5374L26.2912 9.00278L28.0318 2.85963C28.0803 2.69346 28.1969 2.46227 28.141 2.28574L28.1225 2.24823C27.757 2.21034 27.3761 2.23127 27.0082 2.23109L19.971 2.23305ZM29.2394 3.76671L24.7696 17.7959C24.694 18.0367 24.7158 18.4138 24.7376 18.668C25.3427 18.2428 25.9296 17.7451 26.4697 17.238C28.1719 15.6491 29.9715 13.6311 31.263 11.6652L29.9882 9.32336C29.6813 8.79222 29.6662 8.67916 29.8192 8.07747L30.814 4.40383L29.2394 3.76671ZM18.7292 3.80884L17.4152 4.33849C17.3475 4.36296 17.2479 4.38337 17.1959 4.4327L17.3466 5.02984C17.3549 5.0703 17.3673 5.10152 17.3816 5.13963L18.2225 8.25213C18.2848 8.45148 18.3335 8.77474 18.2262 8.96167L16.7398 11.6698C17.915 13.345 19.1777 14.922 20.6293 16.3673C20.9399 16.6765 21.2558 17.0288 21.5967 17.3024C22.1136 17.7572 22.6344 18.2471 23.2143 18.6215L23.2951 18.672C23.2959 18.3088 23.3067 17.8954 23.1868 17.5514L20.6522 10.3079L19.9052 7.87525L18.8636 4.06706C18.8432 3.9843 18.8321 3.86949 18.7842 3.79876L18.7292 3.80884ZM15.7971 4.81666L12.4687 5.86253C11.1508 6.27428 11.135 7.10772 11.5409 8.227L11.7547 8.68281C11.9621 9.09573 12.1511 9.51714 12.2941 9.95669L12.781 11.6194C13.0212 12.5507 13.2329 13.528 13.3646 14.4793C13.4439 15.0523 13.5269 15.6229 13.6065 16.1952L14.0382 20.1331L14.2252 23.8082L14.2275 27.2148C14.2274 27.484 14.3358 27.4402 14.5603 27.5121L17.4726 28.5937C18.5726 28.9989 18.8039 28.8485 18.5578 30.0073C18.4276 30.6206 18.3546 31.1993 17.9772 31.724C17.4074 32.5164 16.5265 32.8057 15.5993 32.5221L14.8173 32.29C14.6643 32.242 14.4812 32.1573 14.3231 32.1441C14.0172 33.445 13.9241 34.8003 13.8358 36.1297L13.7167 37.7391L13.7756 41.7896C13.7988 42.2128 13.7534 42.6214 13.9101 43.0269L14.0111 43.2945C14.2963 43.9743 15.0659 44.6961 15.6981 45.0451C16.385 45.4001 17.2354 45.6678 18.0117 45.7519L19.1166 45.8189L20.976 40.4054C21.8769 37.7513 22.5927 35.0015 22.9982 32.2268L23.2398 30.4044C23.2735 30.0259 23.2627 29.6342 23.2628 29.2544L23.2685 20.3722C23.0611 20.2034 22.8075 20.0728 22.5868 19.917L21.2512 18.885C20.4217 18.1981 19.6649 17.4157 18.9321 16.6286L18.0642 15.7083C17.3451 14.8934 16.6835 14.0353 16.067 13.1421L15.5191 12.3273C15.1181 11.7079 15.2356 11.5495 15.5717 10.9066L16.7306 8.69509C16.8599 8.44155 16.8691 8.46555 16.7959 8.20886L16.0909 5.67067C16.0135 5.38375 15.9476 5.0935 15.8529 4.81183L15.7971 4.81666ZM32.1543 4.8167L31.1949 8.308C31.1328 8.57659 31.2291 8.65877 31.3615 8.89942L32.2313 10.5227C33.0661 12.0664 32.7874 11.9747 31.7808 13.3596L30.9011 14.56C29.3868 16.4947 27.2292 18.6853 25.2223 20.0515L24.8518 20.293C24.6575 20.4112 24.7295 20.4816 24.7287 20.7017L24.7296 30.2027C24.7351 30.3643 24.7464 30.5299 24.779 30.6882L25.4998 34.9104L25.9775 36.9077C25.985 36.944 25.9955 36.9712 26.008 37.0054L26.7672 39.6331L28.7354 45.3284C28.7972 45.4844 28.8395 45.6775 28.9268 45.8187C30.1196 45.841 31.2256 45.6088 32.2804 45.0498C33.1058 44.5611 33.8841 43.7705 34.1317 42.8187L34.1776 42.6187C34.2506 42.301 34.2268 41.9372 34.2413 41.6116L34.2243 36.8343L33.6943 32.3922C33.6702 32.2806 33.6617 32.1577 33.6186 32.0519C33.0271 32.3096 32.3598 32.4115 31.7182 32.4161C29.9622 32.4289 29.7606 31.2525 29.4237 29.9463C29.1392 28.8437 29.5766 28.9161 30.5358 28.5544L32.7346 27.74C33.0983 27.6056 33.4859 27.485 33.8384 27.3267C33.7511 26.4955 33.7675 25.6693 33.7684 24.8348L33.8642 21.4329C33.8784 21.1908 33.9186 20.9601 33.9294 20.7181L34.1563 18.0248L34.5898 14.8127L35.0655 12.2715C35.2506 11.4441 35.4572 10.631 35.7531 9.83505L36.1329 8.92572C36.4982 8.15425 36.969 7.28017 36.4864 6.44275C36.1665 5.88761 35.5072 5.85072 34.9511 5.68089L32.1543 4.8167ZM33.8432 28.8401L30.8858 29.947C30.9111 30.1547 30.9478 30.3268 31.0015 30.5282L31.0224 30.6047C31.0589 30.7319 31.1629 30.8393 31.2543 30.9306C31.5736 31.127 32.0786 31.0958 32.4374 31.0112L33.1806 30.8125C33.4751 30.72 33.7602 30.5969 34.0443 30.4772L33.8432 28.8401ZM14.213 28.8862C14.0843 29.4235 14.182 30.0143 14.1222 30.5632C14.4386 30.6942 14.7789 30.7925 15.1054 30.8966C15.6407 31.0671 16.3325 31.4334 16.802 30.9532C16.9826 30.6707 17.0489 30.2732 17.111 29.9465L14.213 28.8862ZM24.0052 34.5823L24.002 34.6046C23.958 34.8938 23.8413 35.3099 23.7774 35.6252L22.5851 40.0138C22.5411 40.1598 22.4547 40.3697 22.4546 40.5178L23.9941 40.518L25.5696 40.5022C25.5156 40.3773 25.4925 40.2434 25.4529 40.1138L24.3939 36.2581C24.2588 35.7092 24.1003 35.1459 24.0337 34.584L24.0052 34.5823Z" fill="black"/>
</svg>
