<svg width="48" height="48" viewBox="0 0 48 48" fill="none" xmlns="http://www.w3.org/2000/svg">
<path d="M25.9615 41.4286C24.4769 40.7494 23.1545 39.4106 22.3207 38.0145L22.2971 37.9741C22.2174 38.0723 22.1618 38.3285 22.1111 38.4532C21.3489 40.3284 19.9012 42.4349 17.6251 42.2497C17.1674 42.2124 16.7005 42.0617 16.2591 41.9412L12.1518 40.9953C11.7 40.8942 10.9338 40.8996 10.7584 40.3763L10.7461 40.3381C10.6248 39.9714 10.7444 39.4819 10.7729 39.1037C10.4551 39.0752 10.1246 39.0928 9.80551 39.0928L8.05459 39.0947C6.7052 39.0991 6.62893 39.1414 6.58037 37.6226L6.54395 31.2738L6.68476 28.251L7.05605 24.2224L7.43673 21.3631L8.11557 17.6808C8.45204 16.0194 8.81157 14.3811 9.29162 12.7531L9.77771 11.2616C10.1048 10.3323 10.1474 10.3606 11.0686 10.0104L16.9524 7.69946C17.4078 7.51046 17.6437 7.55612 17.8945 7.15834L18.6105 6.01332C18.7835 5.7489 18.9604 5.62271 19.2664 5.55957C19.518 5.5741 19.7776 5.64873 20.0248 5.70118L22.4729 6.03184C22.6459 6.04857 22.8164 6.08438 22.99 6.09395L24.4024 6.10145C24.9522 6.0999 25.4769 6.05626 26.0233 6.00348L26.7774 5.90368C27.3183 5.82976 28.4652 5.48752 28.9417 5.61952L29.0157 5.64315C29.3156 5.75293 29.4967 6.19529 29.6475 6.4568L30.0061 7.05249C30.2003 7.37401 30.1655 7.33421 30.5107 7.48173L35.3627 9.39812C35.973 9.62799 37.8353 10.1191 38.0468 10.7565L39.2038 14.679C39.2834 14.8948 39.3216 15.1607 39.3755 15.3865L39.7501 17.0271C40.0912 18.4569 40.331 19.9285 40.5507 21.3818L40.7227 22.5546C40.7865 22.9757 40.8337 23.4031 40.8774 23.8267L41.291 28.2846C41.3793 29.4119 41.413 30.448 41.4446 31.5755L41.4833 32.1142L41.4439 36.6326C41.4173 37.4666 41.7392 39.0917 40.6127 39.0947L38.2416 39.0975C37.8623 39.0977 37.4737 39.0804 37.0967 39.1208C37.1275 40.0944 37.535 40.6292 36.3205 40.9066L33.2876 41.5521L30.6844 42.2339C29.1356 42.5637 27.3507 42.1157 25.9615 41.4286ZM20.749 7.23024C20.8699 7.53948 21.0981 7.83034 21.2683 8.11791L22.7163 10.4948C22.8735 10.7436 22.9178 10.9072 22.7959 11.1961L22.7814 11.2314C22.5693 11.7264 21.9775 11.8817 21.6326 11.4039C21.4909 11.2075 21.3939 10.9739 21.2657 10.7673L19.5828 7.94012C19.4949 7.79307 19.4279 7.63773 19.3357 7.49185C19.2598 7.52284 18.4618 8.85854 18.3964 9.00802C18.6654 9.63723 19.8459 10.2425 19.5418 11.0345L19.5298 11.0635C19.1802 11.9352 18.7594 13.2123 19.069 14.1595L19.2086 14.7009C19.49 15.9316 20.6769 17.6682 21.4163 18.6585L24.0988 21.9394C24.4135 21.4256 24.7883 20.9454 25.1437 20.4589L27.157 17.586C27.434 17.1601 27.7245 16.7286 27.9575 16.2769C28.7974 14.805 29.3189 12.8534 28.5726 11.2363C28.0181 10.0349 29.4161 9.94027 29.6309 9.0046L28.7445 7.51435L24.9218 10.0583C24.7964 10.1335 24.6437 10.176 24.5417 10.2804L24.5368 15.7639C24.5366 15.9354 24.5565 16.1379 24.5243 16.3058C24.3818 17.0465 23.258 16.9414 23.2253 16.2158L23.2249 10.4191C23.2286 9.6384 23.14 9.5033 23.883 9.08977L26.2764 7.5744C26.3841 7.49457 26.4811 7.40457 26.6086 7.35704L23.0525 7.47432C22.2838 7.44845 21.5168 7.26268 20.749 7.23024ZM17.058 9.09502L11.4285 11.3144L12.4715 13.3591C12.5893 13.621 12.745 13.8756 12.8341 14.1491L13.457 15.8904C13.8028 16.8571 13.962 17.8638 14.0817 18.8781L14.1683 19.7983C14.178 19.9021 14.2048 20.001 14.2119 20.1047L14.2363 26.2115L14.1102 28.202L13.5698 32.06L12.6028 36.5807L12.1515 39.1433C12.1318 39.2957 12.0903 39.4397 12.0766 39.594L17.2326 40.7854C19.3581 41.3281 20.6686 38.9715 21.0918 37.2302L21.2737 36.1608C21.2931 36.0489 21.1526 35.8104 21.1054 35.7016L20.5747 34.2149C20.2088 32.9622 20.0791 31.4164 20.3056 30.1197L20.3983 29.5427C20.868 27.2554 22.0087 25.0286 23.3227 23.1032C23.2094 22.956 23.0769 22.8348 22.9515 22.699L20.6133 19.83C18.8489 17.5453 17.0315 14.7064 17.8477 11.7047C17.9318 11.3954 18.0579 11.096 18.1637 10.7935C17.5863 10.3229 17.1418 9.94862 17.0596 9.11649L17.058 9.09502ZM30.9799 9.09929C30.8533 9.71968 30.676 10.1738 30.1649 10.5993C29.7673 10.9305 29.8733 10.733 30.0384 11.3222L30.101 11.5925C30.6181 14.5258 29.5087 16.4899 27.9493 18.8232C26.4295 21.097 24.7204 23.2203 23.375 25.6108C22.3349 27.4591 21.1808 30.3076 21.5896 32.5024L21.7595 33.4861C21.792 33.6464 21.8349 33.8334 21.8916 33.9841L22.6129 35.8294C23.9611 38.4713 25.8148 40.6122 28.9549 40.9771C29.5384 41.0355 29.89 41.0263 30.4688 40.8974L35.7427 39.6401C35.7392 39.3243 35.6932 39.0457 35.6509 38.7347L35.1429 35.7537L34.5371 32.9339C34.1934 31.2953 33.9769 29.6394 33.8168 27.9745L33.6665 26.2537L33.6617 22.7693C33.6686 22.5497 33.723 22.3347 33.7329 22.114L33.7515 20.9407C33.7554 20.4139 33.8118 19.896 33.8575 19.3713L33.939 18.6391C33.9766 18.2368 34.0026 17.8252 34.0753 17.4274C34.4065 15.6166 35.6189 12.8238 36.5742 11.3061L30.9799 9.09929ZM10.6665 12.7615L9.47059 17.5896L8.49905 23.4115L8.15799 26.2849L7.86263 31.3359L7.85504 36.2151C7.8557 36.7081 7.81496 37.2538 7.9246 37.7357C8.1182 37.7739 8.37184 37.7377 8.57241 37.7371L10.2129 37.7373L10.9646 37.7559L12.4632 30.4846C12.6927 29.0853 12.872 27.4516 12.9276 26.0266L12.9366 20.9772C12.8381 18.2964 12.2602 15.9501 11.0796 13.5354C10.9537 13.2777 10.842 13.0092 10.6943 12.7628L10.6665 12.7615ZM37.2917 12.7615C37.0529 13.1666 36.8666 13.6045 36.6732 14.0326L35.8382 16.0947C35.5407 16.9274 35.4038 17.5874 35.2939 18.4568L35.0335 22.3357C35.0161 22.58 34.9801 22.8204 34.9737 23.0659L34.9756 25.4344C34.9859 25.6576 35.0305 25.8752 35.0442 26.0974L35.0661 26.9027L35.4854 30.5271C35.5124 30.6902 35.5164 30.8575 35.5545 31.0193L35.5729 31.0863C35.7223 31.652 35.7917 32.2452 35.9204 32.816L36.2349 34.2302C36.2566 34.3187 36.2595 34.4122 36.2821 34.4998L36.8916 37.4763C36.9084 37.5691 36.9098 37.6571 36.9424 37.7471L37.8926 37.7389L39.4519 37.7381C39.6546 37.7385 39.8994 37.7709 40.0967 37.7363C40.1458 37.1929 40.1409 36.6452 40.1425 36.1001L40.1354 30.9918C40.1249 30.6764 40.0715 30.3637 40.0559 30.0486L39.4666 23.0794L39.1261 20.8793C38.8202 18.8916 38.4308 16.9091 37.9127 14.9647L37.4176 13.1858C37.3805 13.0605 37.3515 12.8731 37.2917 12.7615Z" fill="black"/>
</svg>
