<svg width="48" height="48" viewBox="0 0 48 48" fill="none" xmlns="http://www.w3.org/2000/svg">
<path d="M24.753 40.3603L23.9976 38.7952C23.82 39.1953 23.6574 39.5957 23.4511 39.9827C22.3397 42.067 20.1096 44.5129 17.5836 44.5086C15.715 44.5055 13.206 42.8331 12.8574 40.9298C12.8179 40.7146 12.8301 40.483 12.829 40.2649L12.8455 37.1919C12.8553 36.9951 12.902 36.8087 12.9153 36.614L13.3622 32.093C13.4063 31.7457 13.4724 31.3734 13.481 31.0248L13.4142 25.8871L13.2065 23.2229C13.007 21.1778 12.7404 19.0955 12.2158 17.1039L11.8741 15.8985C11.8125 15.6944 11.7414 15.4937 11.7013 15.2838L11.696 15.2549C11.6004 15.5402 11.559 15.8298 11.4977 16.1224L11.1133 18.4052L10.5981 23.1839L10.4034 26.8325C10.3958 27.0194 10.3443 27.2009 10.3397 27.3882L10.3496 34.9827C10.3708 35.4022 10.3911 35.8456 10.4155 36.261L10.7626 39.7167C10.784 39.9417 10.8676 40.2463 10.8175 40.466C10.6707 41.109 9.86926 41.1277 9.58084 40.551C9.45596 40.3014 9.47584 39.9424 9.44546 39.6667L9.02246 34.0994L9.02345 28.0181L9.2094 24.503L9.54887 20.6746L10.0257 17.0277C10.2191 15.8491 10.4272 14.6616 10.8403 13.5356C10.925 13.3045 10.8837 12.9871 10.9035 12.7388L11.1448 10.4655C11.1909 10.0359 11.1599 9.62 11.2828 9.19906C11.6453 7.95678 12.8407 7.70501 13.9459 7.39967C14.8601 7.14701 15.7598 6.80206 16.7169 6.76198C17.2719 5.75201 18.6206 4.66821 19.6276 4.03001C20.3548 3.56922 21.2299 3.49161 22.0659 3.43226C22.6126 3.34398 23.6216 3.50429 24.1175 3.67753C24.212 3.71057 24.4149 3.81104 24.5037 3.79783C25.3228 3.67606 26.0835 3.38192 26.9303 3.48561L26.9769 3.49151C28.3901 3.65796 30.5255 5.45698 31.259 6.72533C31.3501 6.77693 31.5529 6.75336 31.6657 6.77197C32.2251 6.86431 32.7903 7.0362 33.3392 7.18043L34.6269 7.53711C35.365 7.75625 36.2054 8.06314 36.5583 8.8115L36.6562 9.02384C36.834 9.42636 36.804 9.88658 36.8466 10.3129L37.0663 12.6918C37.0931 12.9486 37.057 13.2586 37.1492 13.5004L37.2964 13.9895C37.3423 14.2174 37.4415 14.4397 37.4843 14.668L37.6969 15.6019C37.7443 15.7513 37.753 15.9034 37.7763 16.0573L38.4009 20.2579L38.971 27.7807L38.9691 34.0289C38.9618 34.2551 38.9213 34.4813 38.9155 34.7049L38.8777 35.7822C38.8613 36.4212 38.8191 37.0507 38.7651 37.6881L38.5433 39.8606C38.5133 40.1084 38.5333 40.4374 38.3923 40.6505C38.0644 41.1461 37.2744 41.0284 37.1736 40.4092C37.144 40.2273 37.2017 40.0289 37.2253 39.8471L37.5965 35.8872L37.6714 33.6167L37.6627 27.8531L37.3989 23.3793L36.8368 18.1681L36.3146 15.2805C36.1878 15.7133 36.0203 16.1318 35.9099 16.5707L35.3471 19.0902L34.9228 22.0434C34.8761 22.4097 34.8092 22.7796 34.7839 23.1479L34.6835 24.434C34.618 25.2842 34.5254 26.2486 34.4979 27.0973L34.4907 30.727C34.4915 31.1466 34.5543 31.551 34.592 31.9684L35.1222 37.0312C35.1409 37.2424 35.1322 37.4507 35.1376 37.662L35.1555 40.1143C35.1535 41.2587 34.8898 41.8463 34.1286 42.7474C33.3807 43.6328 31.8586 44.4094 30.6702 44.4988C28.1149 44.6911 25.9609 42.4025 24.753 40.3603ZM21.8091 4.76684C20.9277 4.82834 20.2663 5.11789 19.621 5.70031L21.3087 9.7497L23.8978 16.8743C23.9289 16.9617 23.9742 17.0329 24.025 17.1101C24.1693 16.436 24.4671 15.8204 24.6821 15.1694L27.7185 7.18822C27.9272 6.6725 28.1245 6.15556 28.3837 5.66258C27.8716 5.19209 27.1983 4.78175 26.4792 4.80898C25.7811 4.83547 25.0972 5.16429 24.4104 5.13654C24.1702 5.12679 23.909 5.00665 23.676 4.94558C23.0657 4.7855 22.4402 4.71968 21.8091 4.76684ZM18.6036 6.50984C18.4254 6.69725 18.2043 6.89211 18.0746 7.11608L18.086 7.14256C18.5052 8.13729 17.6742 8.25158 16.9839 8.25504L16.1223 8.28256C16.1287 8.56512 16.1689 8.96248 16.2574 9.22658L16.4174 9.76245C16.5273 10.0825 16.678 10.3981 16.8167 10.707L17.9986 13.1137L22.3615 20.7689L23.1748 22.139C23.2252 22.2282 23.2911 22.2877 23.3216 22.3917L23.334 20.6228C23.3353 19.4677 23.3902 19.2623 22.9903 18.2113L19.0156 7.54419C18.8912 7.20345 18.7779 6.82662 18.6036 6.50984ZM29.4134 6.51908L27.4703 11.3442L25.1899 17.6816C25.0179 18.1741 24.8034 18.6856 24.6873 19.1935C24.6424 19.3902 24.6436 22.1299 24.6875 22.2334C24.7553 22.3928 24.9536 21.8711 24.9864 21.8142L25.653 20.6853L28.1788 16.3825L30.8193 11.447C31.3188 10.4195 31.7581 9.41736 31.8616 8.26109C31.526 8.25293 30.4707 8.31898 30.2347 8.18178L30.2036 8.16467C29.7598 7.91497 29.7016 7.49319 29.9562 7.08865L29.4134 6.51908ZM14.7314 8.54337L13.7921 8.84248C12.3015 9.32093 12.5498 9.21814 12.4314 10.6551L12.2294 12.7041C12.1839 13.27 12.1322 13.2716 12.398 13.7542L12.6623 14.2772C13.2242 15.4656 13.5427 17.0601 13.7937 18.3391L14.3945 22.1259L14.5798 24.1096C14.6464 24.9612 14.6948 25.7303 14.7295 26.5875C14.7413 26.8798 14.7864 27.1682 14.7895 27.4611L14.7917 28.075C14.7921 28.3564 14.8104 28.3754 14.9781 28.6085L15.9608 29.8835C16.228 30.2029 16.5782 30.4192 16.5078 30.8793L16.5041 30.9077C16.4613 31.2132 16.1393 31.5406 15.8127 31.4877C15.4689 31.4319 15.216 31.0495 15.0275 30.7856L14.8022 30.4548L14.3496 34.7185C14.32 34.9593 14.324 35.2068 14.3035 35.4491L14.172 36.8891C14.1131 37.7658 14.1538 38.6706 14.1543 39.5503L14.1555 40.309C14.1561 40.5596 14.1332 40.7521 14.2494 40.9809L14.3048 41.1018C14.8098 42.2249 16.2447 43.1494 17.4905 43.1787C20.2113 43.1993 23.0771 39.0339 23.3284 36.4847C23.3519 36.246 23.3329 35.9901 23.3327 35.7495L23.3305 25.4631C23.3301 25.2482 23.4037 24.8521 23.2542 24.6776C22.9747 24.3512 22.7619 23.9472 22.5354 23.5805L16.9711 13.9647C16.2109 12.4977 15.3669 10.9935 14.9572 9.38014L14.8516 8.91842C14.8306 8.7995 14.8452 8.6404 14.7995 8.53184L14.7314 8.54337ZM33.1503 8.52978C33.1115 8.78234 33.0996 9.04447 33.0424 9.29337C32.6172 11.1435 31.4268 13.1995 30.5273 14.8526L28.8419 17.8933L25.1114 24.1661C24.8145 24.683 24.6707 24.6422 24.6701 25.2175L24.6716 36.3494C24.6832 36.8089 24.8908 37.5248 25.0667 37.9464L25.7139 39.4201C26.482 41.0219 28.683 43.3585 30.5572 43.1547C31.9806 42.9746 33.841 41.8921 33.8442 40.2855L33.7525 36.0671L33.2379 31.5238C33.2002 31.2185 33.2248 30.9039 33.1699 30.6022C32.9687 30.9095 32.6309 31.4065 32.2523 31.4913C31.6604 31.6239 31.2706 30.786 31.6356 30.3514L33.1278 28.509C33.2432 28.3827 33.2122 28.1959 33.2129 28.0363L33.2145 27.2174C33.2201 26.9335 33.261 26.6522 33.2743 26.3686L33.4063 23.9808L34.0613 18.9965C34.3212 17.497 34.6216 15.8786 35.2503 14.4786L35.5994 13.7545C35.8034 13.3502 35.7722 13.3401 35.7516 12.8795L35.5589 10.4547C35.4455 9.3094 35.5598 9.22025 34.3179 8.85912L33.1503 8.52978Z" fill="black"/>
</svg>
