<svg width="48" height="48" viewBox="0 0 48 48" fill="none" xmlns="http://www.w3.org/2000/svg">
<path d="M26.15 43.019C25.0617 42.5919 24.7389 42.1856 24.0393 41.3857C22.2905 43.7386 19.4206 43.684 16.7927 43.1067C15.6852 42.8633 12.3393 41.8482 11.9774 41.1094C11.8104 40.7685 12.0183 40.2835 12.1171 39.9505L12.4232 38.868C12.621 38.1209 12.7624 37.3596 12.8822 36.5966L13.168 34.1814C13.1831 34.0145 13.2172 33.8532 13.226 33.6832L13.3264 30.3053C13.3762 29.5762 13.4829 28.8481 13.6255 28.1317C13.8688 26.9085 13.8891 26.9032 13.8138 25.638C13.6962 23.6636 13.3955 21.7096 12.9929 19.7737C12.6867 18.301 13.8874 18.3737 14.0846 19.0284L14.6331 21.7564C14.742 22.1632 14.763 22.6094 14.8148 23.027L15.0103 24.9299C15.1634 26.6983 15.1369 26.9877 14.8077 28.6583C14.715 29.129 14.6704 29.6023 14.6343 30.0802L14.4 34.5607L14.159 36.5036C14.0504 37.2915 13.927 38.086 13.7349 38.859L13.2875 40.4938C14.2768 41.132 16.5862 41.8493 17.6851 41.9889L19.0786 42.1235C20.8527 42.2407 22.288 41.822 23.2994 40.2398C23.4122 40.0635 23.4497 39.8516 23.5675 39.6789C23.7454 39.4183 23.646 39.2293 23.6557 38.9308C23.6629 38.7042 23.7313 38.5159 23.7327 38.2008L23.736 21.0148C23.7412 20.7793 23.6635 20.7901 23.4867 20.6306L22.1423 19.3277L18.2689 14.43L17.5225 13.3108C17.0736 12.5824 17.1963 12.4062 17.8657 11.8473C18.1063 11.6465 18.331 11.4307 18.5903 11.2535C18.4568 11.144 18.3128 11.058 18.1703 10.9613L17.3504 10.4303C16.4872 9.92611 16.227 9.81553 16.6149 8.75372L13.5772 10.697C12.4288 11.5229 12.1561 12.4661 11.8608 13.7809L11.1707 17.4723L10.4157 24.1723L10.1747 27.6794C10.1613 27.8443 10.1297 28.0047 10.121 28.1715L10.0084 30.768L9.99714 32.8901C9.98969 33.0946 9.94567 33.2942 9.94033 33.4981L9.92247 34.935C9.90855 35.2029 9.85933 35.4642 9.8508 35.7341L9.84409 36.8981C9.84376 37.05 9.86397 37.2356 9.8327 37.384C9.7487 37.7826 8.99678 37.9351 8.72284 37.5073L8.70114 37.4725C8.54786 37.2373 8.63716 36.8134 8.63748 36.5439L8.64775 34.7849C8.66106 34.4748 8.71065 34.1707 8.71694 33.8566L8.73034 31.5019L8.83422 28.8871L9.30376 21.9606L9.98983 16.5231L10.3652 14.6037C11.099 11.1339 11.3271 10.5677 14.3832 8.66386L16.9416 7.07555C17.1308 6.96656 17.1666 7.00828 17.2061 6.78891C17.4324 5.53111 18.1352 4.75491 19.4421 4.52944L27.3625 4.52167C27.761 4.52193 28.1876 4.49239 28.5833 4.52938C29.6625 4.63028 30.604 5.53477 30.7941 6.59287C30.855 6.93202 30.7531 6.8843 31.0311 7.05839L33.0929 8.38341C35.4331 9.78928 36.5199 10.3525 37.2195 13.1833L37.8754 16.3708C38.1334 17.6505 38.2565 18.9466 38.4389 20.238C38.7467 22.4169 38.905 24.6215 39.0112 26.819L39.1006 28.8098C39.1105 29.0332 39.1651 29.2518 39.174 29.4723L39.1897 31.4622C39.1979 31.6784 39.2369 31.8915 39.2435 32.1072L39.2901 34.277C39.2995 34.4893 39.348 34.6986 39.3609 34.9098C39.4002 35.5539 39.4117 36.5279 39.3852 37.1796C39.3612 37.7706 38.6388 37.9012 38.3026 37.4839L38.281 37.4565C38.0331 37.1515 38.1711 36.0288 38.1416 35.6146L38.0395 33.4627C38.0272 33.2315 37.9849 33.0049 37.9773 32.7735L37.8824 28.5286L37.7753 26.3226L37.2325 20.4363L36.4915 15.6559C36.1886 13.9792 35.9018 11.8413 34.42 10.7572L31.4544 8.92097L31.5307 9.20433C31.7986 9.90764 31.2301 10.1308 30.7018 10.4322L29.9474 10.8898C29.7753 10.9956 29.5941 11.0942 29.4325 11.2153C29.7324 11.571 30.4511 11.9642 30.6417 12.2907L30.6561 12.3161C30.9912 12.8649 30.2596 13.5428 29.9713 13.9528L27.745 16.9567L25.5103 19.7088C25.2931 19.964 25.0094 20.1729 24.9968 20.5076L24.9768 39.3045C24.9745 39.4972 24.9785 39.7088 24.9241 39.8946L24.8114 40.2856C24.8522 40.3815 24.9253 40.4736 24.986 40.5583C26.86 43.1752 31.1763 42.072 33.6678 40.9684L34.7423 40.4594C34.7358 40.2817 34.6713 40.0882 34.6253 39.9165L33.8798 36.0885L33.6861 34.5231L33.3759 30.3278C33.3164 29.8208 33.2664 29.2986 33.1742 28.7971C32.9201 27.4156 32.7714 26.9408 32.9111 25.5047L33.6344 20.3301C33.7129 19.9207 33.7579 19.4764 33.8917 19.081C34.1604 18.2876 35.2332 18.5946 35.0902 19.359L34.8032 20.8546L34.2096 25.488C34.1483 26.1946 34.0618 26.85 34.2188 27.5505C34.3443 28.1104 34.4326 28.6563 34.5004 29.2262L35.0578 35.5696C35.1175 36.1069 35.2276 36.857 35.344 37.3942L35.625 38.777C35.7248 39.1938 36.1555 40.7004 36.0306 41.0314C35.8941 41.3932 35.4065 41.558 35.0857 41.7188L33.3537 42.4959C31.3621 43.3222 28.2397 43.8751 26.15 43.019ZM19.4696 5.88895C18.8381 5.98012 18.5193 6.48806 18.4263 7.09083L21.1949 7.34789L23.5194 7.6177C24.098 7.6778 24.6451 7.59492 25.2226 7.53877L27.5391 7.30641C27.7649 7.27969 27.9927 7.23881 28.2205 7.23759L29.6602 7.10016C29.5507 6.6967 29.3754 6.2453 28.9904 6.02897L28.7826 5.93648C28.4828 5.80645 27.8003 5.88802 27.4633 5.88792L19.4696 5.88895ZM18.0699 8.35036C17.9312 8.61497 17.8264 8.86898 17.7436 9.15642L19.6984 10.43C20.6666 11.0197 20.3942 11.3845 19.7279 11.9511L19.0671 12.5202C18.9465 12.624 18.8019 12.7301 18.7036 12.8535L22.2663 17.4575C22.5529 17.8292 22.8616 18.1595 23.212 18.465L23.2255 8.91202C23.0648 8.86725 22.8975 8.86275 22.7327 8.83992L19.0674 8.44495C18.735 8.40891 18.4014 8.39906 18.0699 8.35036ZM29.8644 8.35612L24.4518 8.89898C24.4335 9.17236 24.4459 9.44644 24.4461 9.72019L24.4457 18.072C24.4454 18.3607 24.3917 18.6797 24.4506 18.9617L25.3713 17.8725L29.2543 12.7548C28.5899 12.0639 26.8353 11.3415 28.3358 10.4011L30.2823 9.13978C30.2014 8.90297 30.1144 8.57105 29.9787 8.36058L29.8644 8.35612Z" fill="black"/>
</svg>
