<svg width="48" height="48" viewBox="0 0 48 48" fill="none" xmlns="http://www.w3.org/2000/svg">
<path d="M23.7293 32.3852C23.6989 32.454 23.7135 32.6353 23.7068 32.7178L23.4436 34.779C23.2462 36.2136 22.9802 37.6561 22.636 39.0638L22.1986 40.8822C21.9418 41.8227 20.6484 45.6616 19.7585 45.8006C19.4718 45.8454 19.111 45.6462 18.8512 45.5382L16.4648 44.8167C16.0698 44.7192 15.6704 44.6125 15.2696 44.5418L14.5324 44.4339C13.5983 44.3176 13.4017 44.3998 13.4009 43.3311L13.3973 26.3079C13.3925 26.0171 13.3439 25.733 13.3381 25.4419L13.2257 21.6468L12.8439 15.4338L12.5342 11.9777L11.9841 7.81086C11.7169 8.64927 11.6095 9.53854 11.4852 10.4064L11.2498 11.8862L10.8438 16.5631C10.8014 17.244 10.7982 17.9681 10.7466 18.6213L10.6782 19.2863L10.6758 25.536C10.6856 25.8095 10.7322 26.0778 10.7467 26.3503L10.9668 29.7636L11.6646 34.7347C11.7945 35.3687 11.9166 36.0043 12.0483 36.643C12.1494 37.133 11.7179 37.7188 11.2149 37.3286C11.0027 37.164 10.9781 36.8467 10.9252 36.601L10.7744 35.8975C10.2765 33.4706 10.0004 31.0129 9.78341 28.5471L9.68642 27.0119C9.65136 26.2852 9.57406 25.5711 9.57153 24.8426L9.57603 19.8869C9.58639 19.5737 9.64738 19.2658 9.66196 18.9527L9.69613 17.2425L10.0636 12.6495L10.3129 10.781C10.4639 9.66369 10.8773 5.93544 12.1657 5.65138C12.2831 5.62546 12.4091 5.63001 12.5289 5.61407L13.1229 5.53143C15.0875 5.29668 17.5207 4.17693 18.8283 2.62634C19.0955 2.30945 20.4893 2.19096 20.8621 2.20001C21.2133 2.20854 21.5825 2.2853 21.9321 2.33022C23.7514 2.56396 24.9285 2.4582 26.7395 2.25176C26.9126 2.23202 27.072 2.17906 27.2496 2.16631C28.7484 2.00396 29.1774 2.59974 30.2716 3.49982C31.5521 4.55305 33.008 5.11011 34.6231 5.42596L35.2937 5.54985C36.2778 5.69366 36.4374 5.65926 36.8435 6.78533L37.1705 7.89861C37.4087 8.76365 37.5515 9.99993 37.688 10.8986L37.932 12.689L38.2571 16.8711C38.2684 17.0564 38.3045 17.2377 38.3142 17.4232L38.3386 18.4338C38.3583 18.7725 38.4063 19.1035 38.4144 19.4444L38.4178 24.3494C38.4158 24.6111 38.4305 24.8938 38.394 25.1517L38.3598 25.4914C38.2942 25.8352 38.3314 26.2183 38.3188 26.5688L38.2143 28.2004C38.0245 30.931 37.7091 33.64 37.126 36.3166L37.0338 36.7385C36.9508 37.1472 36.7029 37.7177 36.1832 37.3127C35.7359 36.9642 35.9988 36.4483 36.0929 36.0002L36.9132 30.8513L37.1504 27.7614C37.1664 27.5331 37.2091 27.3119 37.2203 27.0851L37.3234 24.9608L37.319 19.4022L36.9215 13.4592L36.179 8.46393C36.1348 8.22711 36.0743 8.00127 36.0497 7.76104C35.8408 8.54057 35.7907 9.33177 35.6722 10.1252L35.349 12.7389L34.9712 18.0461L34.7843 21.393L34.7544 22.7705C34.745 23.0552 34.6941 23.3304 34.6817 23.6135L34.6545 25.3488C34.646 25.6004 34.5972 25.8501 34.5906 26.0999L34.5896 42.3718C34.5902 42.8815 34.6154 43.4023 34.589 43.9103C34.5653 44.3659 33.9487 44.3763 33.6189 44.4326L33.1528 44.5311C32.4792 44.6638 31.8138 44.8619 31.1537 45.0485L29.0344 45.6717C28.3169 45.9417 28.2647 45.8983 27.7652 45.219C26.698 43.7675 26.0373 41.7008 25.5938 39.9869L24.563 34.6525L24.2264 32.1958L24.0079 29.2223L23.9556 29.426C23.8782 29.7745 23.9196 30.1449 23.8999 30.5002L23.7293 32.3852ZM27.3644 3.31452L25.7733 3.48145C24.6206 3.61907 23.6625 3.66559 22.5118 3.52697L21.6319 3.42632C21.1389 3.36373 20.2593 3.24851 19.7803 3.42427L23.1614 14.339C23.1676 14.382 23.1779 14.4166 23.1937 14.457L23.5788 15.6564C23.7507 16.1157 23.8204 16.6111 24.033 17.0548C24.1421 16.491 24.3528 15.9269 24.5285 15.3801L28.273 3.36833C27.9764 3.3147 27.6662 3.27891 27.3644 3.31452ZM29.2261 4.00425L24.5219 19.4699C24.634 19.5845 24.7106 19.7062 24.773 19.8518L24.7903 19.8825C24.8435 19.9995 24.8205 20.2161 24.8207 20.3447L24.8284 24.9941C24.8409 25.5356 24.8987 26.0139 24.9104 26.5354L24.9218 27.709C24.9273 27.9682 24.9677 28.2094 24.9862 28.4627L25.5494 33.9334C25.5702 34.1019 25.5763 34.2766 25.6046 34.4438L25.924 36.1994L26.9136 40.6671C26.9214 40.7015 26.9334 40.7327 26.9455 40.7657L27.2368 41.6721C27.5463 42.5301 28.0792 43.8269 28.6436 44.5681L33.5027 43.2872L33.5092 42.8146L33.518 28.1997C33.1109 28.1015 31.6789 28.3269 31.2161 28.3735L30.4848 28.4231C30.2151 28.4483 29.8845 28.5263 29.6179 28.4754C29.0824 28.3731 29.039 27.4836 29.5548 27.3418L29.58 27.3345C29.689 27.3062 29.8232 27.3139 29.9364 27.3102L32.366 27.1275C32.7403 27.1022 33.1332 27.1193 33.5029 27.0742L33.531 24.633C33.5372 24.4937 33.5667 24.3551 33.5754 24.2152L34.0185 15.9944C34.0619 15.2353 34.1009 14.5242 34.1668 13.7657L34.9337 7.84944L35.1986 6.68872C33.0155 6.2009 30.8113 5.75699 29.2261 4.00425ZM18.854 4.11376C17.2968 5.79575 15.0445 6.35249 12.8878 6.75275L13.3646 9.72397L13.7354 13.0197L13.9737 16.2046C13.9827 16.3454 14.0111 16.4806 14.0225 16.6202L14.1667 19.0658C14.18 19.2607 14.2192 19.4527 14.2284 19.6477L14.3129 21.3544C14.358 22.1041 14.4113 22.9683 14.4278 23.7195L14.4342 24.6605C14.4358 25.1376 14.4875 25.5333 14.5001 25.9775C14.5098 26.3215 14.4822 26.6739 14.5111 27.0163L18.0761 27.3324C18.3971 27.358 18.6181 27.3667 18.7978 27.6799L18.8125 27.7049C18.8622 27.7995 18.862 28.0101 18.8305 28.1112C18.6661 28.6398 17.867 28.4614 17.4779 28.4318L15.7767 28.2807C15.3536 28.2297 14.9342 28.1602 14.5071 28.1416L14.5044 42.9045C14.5061 43.01 14.4799 43.2338 14.5203 43.3232C15.739 43.4348 17.0241 43.7248 18.1858 44.1035L19.5474 44.5977L19.8955 43.966C20.6886 42.4199 21.1078 40.7191 21.4947 39.0353L22.4017 34.3171L22.8977 29.6369C22.9132 29.4439 22.9544 29.2553 22.9673 29.0625L23.0806 25.2775C23.088 25.1248 23.1224 24.9747 23.1282 24.8196L23.1524 20.4071C23.1527 20.0761 23.1779 19.8323 23.2485 19.5119L23.4181 18.7643L18.854 4.11376Z" fill="black"/>
</svg>
