<svg width="48" height="48" viewBox="0 0 48 48" fill="none" xmlns="http://www.w3.org/2000/svg">
<path d="M24.9897 4.8969C22.9681 4.88279 20.837 4.81707 18.9262 5.5838L19.7685 8.19675C19.8701 8.7053 20.0303 9.21057 20.1567 9.71508L20.3788 10.5279C20.4731 10.8808 20.5576 11.2726 20.6138 11.635L21.1957 14.3445C21.2418 14.4922 21.2494 14.6401 21.2815 14.7893L21.7864 17.3997C21.8126 17.536 21.8183 17.6765 21.8442 17.8127L22.741 23.3829C22.8095 23.9051 22.8814 24.4325 22.9368 24.9558L23.1682 27.4542C23.2379 28.2663 23.2252 29.0568 23.2251 29.8731L23.1683 33.3274C23.087 34.6897 23.0363 35.5862 22.7291 36.9651L22.5128 37.836C22.3357 38.6189 21.9819 39.4073 21.6841 40.1487C20.8535 42.2167 19.628 43.5189 17.3085 43.9406C16.236 44.1356 14.3055 43.8219 13.2566 43.6291C11.2097 43.253 9.65864 42.4584 9.84769 40.1721C9.89724 39.5729 10.2763 39.0034 10.5281 38.4713L11.0081 37.3349C11.6461 35.6196 12.1561 33.8238 12.4507 32.0159L12.7516 29.5182L12.7677 26.3854C12.7567 25.9385 12.7074 25.4913 12.6532 25.0475L12.4572 23.8479C12.2326 22.7821 11.9009 21.7441 11.6139 20.6946L11.4436 20.1271L8.32833 42.5122C8.27264 42.744 8.07961 43.0372 7.81631 43.0478L2.93877 43.0515C1.7947 43.051 1.79539 42.9959 1.66803 41.9804L1.38044 39.0605C1.37012 38.8936 1.34304 38.7286 1.33691 38.5615L1.42943 33.899L1.82054 29.4664L2.74345 22.7581L3.48248 19.3904C3.94384 17.4952 4.47558 15.6392 5.1652 13.8132L6.19833 11.3722C6.86677 9.97158 7.71094 8.37469 9.38911 8.07652C9.71353 8.01886 10.0459 8.01516 10.371 7.96622C11.8263 7.74732 12.5684 7.30674 13.8638 6.6893C14.8042 6.24108 15.7524 5.82929 16.664 5.32121L17.5571 4.77244C18.7306 3.97999 19.5533 3.77831 20.9808 3.5979L23.1202 3.44894L24.5359 3.44531C26.3055 3.44552 28.2911 3.44664 29.8591 4.36716C30.3195 4.63742 30.7259 4.983 31.1959 5.24475C32.9764 6.2364 35.4834 7.03336 37.4062 7.68591L38.3437 7.98708C39.6815 8.38805 40.3695 8.85783 41.0636 10.0315C41.9378 11.5094 42.6679 13.1642 43.1942 14.801L44.1426 17.8507C44.2413 18.3367 44.4329 18.8133 44.5149 19.301L44.613 19.7355C44.6258 19.8347 44.6608 19.9242 44.6814 20.0213L45.2345 22.8049C45.3274 23.2636 45.3883 23.7271 45.4688 24.1877L45.9784 27.753L46.5686 33.7385L46.603 34.9231C46.6105 35.1044 46.6452 35.2823 46.6522 35.4631L46.6478 38.0632C46.641 38.2516 46.6124 38.4357 46.5982 38.6231L46.2341 42.2406C46.0865 43.2004 45.7689 43.1115 44.8613 43.1117L41.3396 43.1127C40.1164 43.1191 39.6856 43.309 39.6273 41.9029L39.4969 39.2771C39.4814 38.9231 39.4998 38.5691 39.4737 38.2151L38.5957 30.7439L37.9604 26.8602L36.7263 20.9768C36.5885 20.3266 36.66 20.0238 36.4389 20.7241L35.7469 23.1213C35.2045 25.1995 35.075 28.1689 35.3073 30.3401L35.4849 31.676C35.5068 31.8077 35.5081 31.9438 35.5319 32.0745L35.8476 33.5406C35.9101 33.7787 35.939 34.028 36.0146 34.2639L36.2631 35.1331C36.2728 35.1749 36.28 35.2125 36.2947 35.2529L37.1033 37.5502C37.5075 38.7338 38.4564 39.9348 38.1191 41.2287C37.7565 42.6201 36.5632 43.1288 35.3412 43.566C34.4911 43.8701 33.5857 44.1614 32.6781 44.2198C30.5078 44.3596 28.0215 43.3172 26.8909 41.4177C26.0305 39.9719 25.3089 37.5796 25.0649 35.9688L24.7749 33.2643L24.7683 28.2758C24.7691 27.6737 24.8183 27.2557 24.8842 26.6655L25.6292 21.0679L26.521 15.9681C26.9628 13.5533 27.4226 11.151 28.0562 8.77758L29.0683 5.57471C27.6119 4.9779 26.5091 4.90346 24.9897 4.8969ZM30.8017 6.65991L31.0385 7.47165C31.0882 7.69543 31.1783 7.9133 31.2276 8.14327L31.7244 10.2335C31.7949 10.4899 31.8342 10.7623 31.8883 11.0227L32.2211 12.8189C32.2692 13.12 32.2082 13.1901 32.5334 13.1515C33.0144 13.0945 33.3951 13.1614 33.5704 13.6784L33.5992 13.7656C33.7657 14.2335 33.0865 16.0244 32.9222 16.4974L30.5152 22.5031L29.5395 25.2256C28.8681 27.2321 28.1405 29.2175 26.9081 30.9579L26.4027 31.6839C26.1405 32.0481 26.2056 31.9533 26.2073 32.4263C26.2087 32.8426 26.1961 33.2668 26.2269 33.6819L26.3145 34.3948C26.3583 34.8455 26.3817 35.3067 26.4801 35.7506L26.6318 36.5781C26.7015 36.985 26.7942 37.4676 26.9443 37.85L27.288 38.8508C27.345 39.0361 27.4315 39.2366 27.5153 39.4104C28.3079 41.0524 28.3876 41.5918 30.3046 42.3771C32.1346 43.1268 33.9133 42.6334 35.6717 41.8937C36.0804 41.7219 36.4844 41.5171 36.6616 41.083L36.7144 40.9325C36.7746 40.7544 36.7768 40.5447 36.7549 40.3596L36.7516 40.3287C36.7343 40.19 36.6565 40.046 36.5959 39.9206L35.8692 38.2583L34.886 35.3924C33.9548 32.3845 33.4933 28.3728 33.8771 25.1877C34.0629 23.6464 34.456 22.1434 34.8855 20.6546L36.1157 16.8551L36.5852 15.7106C36.7744 15.2898 37.0138 14.8398 37.5809 15.0668C37.8115 15.1591 37.9302 15.322 37.9904 15.551L38.0031 15.5897C38.0417 15.736 37.9665 15.9248 37.9217 16.0652L37.7042 16.7119C37.534 17.1801 37.473 17.329 37.5533 17.8049L38.6805 23.262C38.7756 23.6774 38.8357 24.1021 38.9202 24.5197L39.8543 29.7803C40.366 32.7429 40.7042 35.7527 40.931 38.7499L40.983 40.0198C40.9918 40.2039 41.0328 40.3875 41.0383 40.5706L41.0647 41.6629L44.9541 41.6681C45 41.4642 44.9909 41.2532 45.0151 41.0464L45.2766 38.2298L45.2784 35.3023C45.2702 35.0566 45.2341 34.8156 45.216 34.5711L45.0703 32.5176L44.4309 26.6449C43.9955 23.4025 43.3678 20.1381 42.4364 16.9986L42.1007 16.0013C41.4579 14.0468 40.6882 12.0743 39.5887 10.3276C39.0996 9.55064 37.7497 9.2904 36.9354 9.0354L35.7633 8.63696C34.0752 8.05754 32.4222 7.40635 30.8017 6.65991ZM17.0611 6.73852C16.7633 6.86054 16.476 7.0524 16.1853 7.19696L14.406 8.03035C13.0572 8.68955 11.835 9.32246 10.3035 9.43838C9.75422 9.47996 9.2993 9.5243 8.8306 9.8693C8.21016 10.326 7.60139 11.6884 7.30411 12.3989L6.52435 14.2583L5.37028 17.719L4.935 19.3979L3.80811 25.1174L3.28272 29.0745L2.85927 34.2563C2.84815 34.4115 2.81798 34.5644 2.80998 34.7229L2.78516 37.307C2.78634 38.5412 2.77525 39.7557 2.9528 40.9807C2.98039 41.1711 2.96902 41.3943 3.02811 41.5765L7.00481 41.5959L7.11431 39.831C7.13119 39.3331 7.10653 38.8279 7.14042 38.3318C7.44075 33.9376 8.14163 29.3015 8.95547 24.9729L9.90952 20.4548C10.0773 19.7086 10.6068 18.0103 10.4541 17.3562L10.1625 16.2771C10.1122 16.0949 10.0286 15.8826 10.0357 15.6916C10.0603 15.0226 10.9946 14.8562 11.3023 15.469L11.9078 17.0821L13.2274 21.121C13.2353 21.1521 13.2464 21.18 13.2577 21.2098L13.7904 23.1623C13.8669 23.5657 13.9732 23.9601 14.0301 24.3701C14.2596 26.023 14.2705 27.6819 14.1695 29.3448L14.1106 30.3718C14.0337 31.2098 13.8996 32.0738 13.7418 32.9004L12.4938 37.3451L12.0283 38.5662C11.8091 39.1385 11.4239 39.7308 11.2611 40.3025C10.7588 42.0657 13.9093 42.3309 15.0338 42.4643C17.6613 42.7757 19.2438 42.2927 20.3923 39.6342C21.3754 37.3587 21.7628 34.9809 21.7783 32.5103C21.7813 32.033 21.8546 32.1121 21.6031 31.7468L21.1596 31.0828C20.5765 30.1566 20.0891 29.1797 19.6252 28.1896L15.8319 18.6075L14.3891 14.3188C14.2784 13.9083 14.1935 13.4641 14.6066 13.1849C14.9269 12.9683 15.3647 13.1408 15.7207 13.1525L17.1567 6.73852H17.0611ZM29.7494 7.99693L28.9873 10.8166L27.4753 18.6615L26.7277 23.3426L26.3036 26.8014C26.2179 27.6826 26.2044 28.3441 26.2061 29.2417C26.7569 28.5635 27.1646 27.8018 27.4695 26.9863L32.0357 14.6155L31.2538 14.7471C30.7736 14.8431 30.0075 15.0287 29.9272 14.244C29.8608 13.5955 30.3865 13.4692 30.8935 13.3156L29.7494 7.99693ZM18.2584 8.04291C18.0044 8.80908 17.8579 9.61163 17.6837 10.3981L17.0936 13.3617C17.3953 13.4165 17.7807 13.4445 17.9713 13.7229C18.2061 14.0659 18.0893 14.5778 17.7278 14.7826C17.3955 14.9708 16.315 14.6394 15.9248 14.5531C16.0186 14.9818 16.1825 15.4039 16.3283 15.8174L16.8756 17.3791C16.9688 17.6382 17.0833 17.8959 17.1638 18.1586L20.6116 26.9239L21.6292 29.0626C21.678 29.1511 21.7431 29.2248 21.7819 29.318C21.7422 28.6881 21.7949 28.0541 21.7471 27.4238L21.0243 21.6042L19.4013 12.6256L18.4527 8.71533C18.3879 8.4931 18.3078 8.26852 18.2584 8.04291Z" fill="black"/>
</svg>
