<svg width="48" height="48" viewBox="0 0 48 48" fill="none" xmlns="http://www.w3.org/2000/svg">
<path d="M26.0224 38.611L23.9874 36.5336L18.8191 41.7803C18.521 42.0902 18.2272 42.4243 17.8862 42.6882C15.8524 44.2621 12.5065 43.294 11.949 40.7824L10.694 40.6186C10.1756 40.5618 9.69422 40.6122 9.43059 40.0689L9.41362 40.0331C9.3322 39.869 9.36558 39.6008 9.36609 39.4192L9.38147 35.8359C9.39314 35.5258 9.45572 35.2206 9.46523 34.9075L9.56845 31.6626L9.69262 26.8833L9.87084 22.9511L9.96107 20.924L10.1532 17.299C10.163 17.1484 10.1979 17.0032 10.2084 16.8523L10.488 12.956C10.6041 11.6302 10.6605 9.291 11.803 8.3789C12.0262 8.20073 12.1918 8.20579 12.4524 8.12957L15.5157 7.05646C16.3118 6.77695 17.1462 6.54585 17.9032 6.17076C18.735 5.75859 19.1767 4.96448 19.8956 4.52959L28.0079 4.52051C28.0842 4.52412 28.1369 4.54001 28.1993 4.58454L28.2274 4.60518C28.808 5.02284 29.2136 5.64318 29.8298 6.03534C30.1718 6.25303 30.544 6.37757 30.9227 6.51032L35.0945 7.9994C35.3761 8.09329 35.7032 8.12296 35.9712 8.23495C37.3098 8.79421 37.3626 11.7421 37.5021 13.0427C37.518 13.1911 37.5509 13.3365 37.5642 13.4861L37.6018 14.1728C37.615 14.3157 37.6452 14.4549 37.6548 14.5987L37.6911 15.4333L37.886 18.5153C37.8956 18.6958 37.9312 18.874 37.9396 19.0544L37.9757 20.2153C37.9895 20.4045 38.0346 20.5863 38.0448 20.7781L38.0665 22.195C38.0726 22.4122 38.116 22.6251 38.1255 22.8396L38.241 26.7791C38.25 27.2689 38.3291 27.6553 38.3325 28.174L38.3497 29.4936C38.3566 29.71 38.4066 29.9153 38.4202 30.1286C38.4534 30.6487 38.427 31.1773 38.4402 31.6989C38.4455 31.9069 38.4928 32.1085 38.5 32.3143L38.559 35.5062C38.5865 35.9834 38.6177 36.3248 38.6176 36.8232L38.625 39.1782C38.6599 40.1072 38.6204 40.4679 37.5582 40.6058L36.0269 40.7399C35.3359 43.3895 32.3332 44.2239 30.1686 42.7302C29.5428 42.2983 29.0448 41.6551 28.5135 41.1138L26.0224 38.611ZM20.3113 5.75512C20.137 5.93676 19.9204 6.15135 19.7844 6.37743L23.5664 16.172C23.6894 16.4612 23.8024 17.0977 23.9753 17.3144C24.1751 16.9527 24.2929 16.5104 24.4336 16.1215L25.0076 14.6043L28.2449 6.3397C28.1814 6.2557 27.8276 5.77767 27.7312 5.76431L20.3113 5.75512ZM18.7844 7.06612L18.7667 7.07831C18.4009 7.32721 17.9774 7.47801 17.5645 7.62895L14.4844 8.72184C13.9143 8.92654 13.3458 9.14132 12.7618 9.30417C12.7618 9.36028 12.7783 9.37096 12.797 9.42159L13.1606 10.5712C13.4729 11.5727 13.6094 12.7567 13.7941 13.7894L14.8706 21.9782L15.0657 24.3472C15.0964 24.7297 15.0925 25.1057 15.07 25.4887L14.8653 28.482L14.1038 37.0235L13.9683 38.1936C13.8901 39.0457 13.9998 40.2636 13.2019 40.7926C13.8152 42.0191 15.2038 42.5592 16.4929 42.0674L16.8937 41.8771C17.0841 41.7564 17.2588 41.632 17.4244 41.4784L22.9735 35.8296C23.0521 35.742 23.1897 35.6429 23.2423 35.5416C22.408 34.123 21.8119 31.5192 21.5945 29.9058L21.4634 28.5914C21.383 27.7289 21.3115 26.8654 21.7149 26.0639C22.0089 25.4797 21.9574 25.693 22.1055 25.0276L23.3408 19.4411C23.3631 19.3134 23.3984 19.1772 23.3508 19.0534L19.1155 7.84429C19.0236 7.60424 18.96 7.29126 18.8174 7.08004L18.7844 7.06612ZM29.2056 7.08956C29.0726 7.33692 28.9799 7.59389 28.8758 7.85381L24.7635 18.747C24.716 18.8911 24.6615 19.0275 24.6324 19.1772L23.8939 22.3632C23.8327 22.7429 23.527 23.69 23.5542 24.0052C23.9727 23.7421 24.8262 22.7907 25.2069 23.5075L25.2348 23.5611C25.5734 24.2127 24.9636 24.4584 24.5496 24.8093C23.8771 25.3792 23.0492 26.0468 22.6974 26.8701C22.4653 27.4132 22.5899 28.0159 22.6457 28.5852L22.6898 29.2076C22.7764 29.9779 22.9743 31.1423 23.197 31.9033L23.6744 33.5622C24.0317 34.5888 24.3247 35.1595 25.0765 35.9165L29.6624 40.5583L30.411 41.3339C30.5963 41.5143 30.7861 41.6955 31.0027 41.8386C32.3115 42.7027 34.1438 42.1829 34.7771 40.7687L34.7426 40.7481C34.2588 40.4567 34.2423 40.0516 34.1824 39.5548L33.2097 29.6677L33.0898 27.8288C32.9815 26.2892 32.8627 25.2404 32.9956 23.7042L34.0254 15.0039C34.3064 13.0706 34.6223 11.1589 35.2267 9.29507C34.6859 9.15562 34.1538 8.93371 33.6253 8.75095L29.7309 7.33171C29.5762 7.26145 29.3671 7.1197 29.2056 7.08956ZM11.9596 10.5796C11.7575 11.2494 11.7336 11.9608 11.6931 12.656L11.4924 15.581L11.3133 18.2776C11.3023 18.4762 11.2604 18.669 11.2492 18.8684L11.1975 20.2219C11.1869 20.4253 11.1517 20.6253 11.145 20.8303L11.0418 23.9772C11.0236 24.2832 10.9732 24.5816 10.9672 24.8903L10.9555 25.9582C10.9546 26.218 10.9666 26.4809 10.9288 26.7384L10.8977 27.0081C10.8647 27.1846 10.8706 27.3734 10.8692 27.5528L10.7675 29.6635L10.7514 31.3482C10.7384 31.6409 10.6914 31.9303 10.685 32.2245L10.6727 34.2847C10.6638 34.5964 10.5944 34.9012 10.5846 35.2146L10.4973 38.9734C10.497 39.1023 10.4772 39.2703 10.5079 39.3941L12.4915 39.6059L12.6506 39.6306C12.7089 39.5587 12.6948 39.285 12.701 39.1822L13.8614 26.0043C13.8981 25.4986 13.9536 25.0007 13.9026 24.4986L13.0593 16.8982L12.2899 12.0397C12.1935 11.5477 12.1058 11.0602 11.9596 10.5796ZM36.0725 10.6205C35.707 11.4692 35.658 12.4796 35.4994 13.3842L35.1617 15.2987L34.2198 23.0505L34.1774 23.8568C34.1529 24.192 34.0879 24.5303 34.0823 24.8669C34.0656 25.8753 34.2101 26.8975 34.2812 27.9021L34.4636 30.2088C34.5086 30.727 34.5472 31.245 34.5892 31.7635L34.7418 33.1847C34.7912 33.6978 34.8331 34.2112 34.8821 34.7246L35.3101 39.0051C35.3269 39.1777 35.3159 39.3991 35.3789 39.5602L35.4915 39.5589L37.0091 39.4311C37.1617 39.4173 37.3116 39.4166 37.4623 39.3846L37.4585 39.3659C37.3927 39.0062 37.4302 38.582 37.4296 38.2149L37.4256 36.0051C37.4218 35.4526 37.3466 34.907 37.326 34.3556L37.3107 32.1409C37.3068 31.8097 37.2568 31.4826 37.2445 31.1516L37.1214 27.5245L37.0295 25.293C37.0233 24.9747 36.9729 24.6613 36.9607 24.3443L36.9447 23.0312L36.782 20.2228L36.4762 14.7834L36.2191 11.6815C36.1837 11.3279 36.1602 10.9664 36.0725 10.6205Z" fill="black"/>
<path d="M29.562 30.0729C28.7752 29.9306 28.7734 29.0201 29.3741 28.8701C29.5991 28.8139 29.8404 28.8035 30.0705 28.7807L32.4052 28.4875L32.4212 28.4829C32.93 28.4147 33.1238 29.1587 32.859 29.4965C32.6425 29.7728 32.3126 29.6952 32.0041 29.7393L29.562 30.0729Z" fill="black"/>
<path d="M18.5528 30.0232C17.8921 30.0237 17.2361 29.9047 16.5821 29.8258L15.7742 29.7326C15.3567 29.6717 14.8032 29.4362 15.0558 28.8999L15.0685 28.8746C15.1642 28.6788 15.3054 28.5838 15.4989 28.5012C15.7513 28.4913 15.9993 28.5457 16.2468 28.5857L17.4778 28.7138C17.9158 28.7629 18.7427 28.7607 18.9441 29.114L18.9821 29.1809C19.1248 29.4998 18.9267 29.9013 18.6035 30.0077L18.5528 30.0232Z" fill="black"/>
<path d="M24.1077 30.5879C23.7639 30.5888 23.4848 30.4687 23.4101 30.0962L23.4054 30.0716C23.3261 29.6829 23.5822 29.4157 23.9124 29.2749C24.1668 29.2665 24.4548 29.3678 24.5591 29.6236L24.6078 29.7329C24.6499 29.8419 24.6517 30.0768 24.6022 30.1836L24.5335 30.3116C24.43 30.4666 24.2846 30.5469 24.1077 30.5879Z" fill="black"/>
</svg>
