<svg width="48" height="48" viewBox="0 0 48 48" fill="none" xmlns="http://www.w3.org/2000/svg">
<path d="M19.0869 48C18.8425 47.9109 18.554 47.8964 18.2992 47.8322C15.7559 47.1881 14.223 45.1009 13.9949 42.5039C13.9701 42.2214 13.9747 41.9304 13.9641 41.6466C13.0383 41.481 12.6589 41.6956 12.6655 40.601C12.6703 39.8055 12.705 39.0222 12.7764 38.2298L13.2045 34.793L13.5302 31.3888L13.5361 20.7693L13.4418 19.7215C13.3087 18.0621 13.164 16.3466 12.6569 14.7516C12.5789 14.5062 12.472 14.2602 12.4092 14.0116C12.273 13.4728 12.8085 12.8045 13.3551 13.2028L13.3816 13.2228C14.3999 13.9737 14.815 20.4031 14.8738 21.6141L14.878 22.1836C14.8871 22.3761 14.9159 22.5623 14.9178 22.7565L14.9221 27.9992C14.9213 28.2275 14.9052 28.4579 14.9293 28.6851L20.3239 30.1454C20.5208 30.2164 20.6513 30.3343 20.7332 30.5288L20.7452 30.5615C20.8738 30.89 20.6267 31.3643 20.2626 31.4116L20.2382 31.4145C19.7576 31.4882 17.5351 30.7313 16.9328 30.5667L15.3522 30.1439C15.2033 30.1037 15.0497 30.0953 14.9031 30.0471L13.9709 40.3559C14.0564 40.406 14.1967 40.4103 14.297 40.4272L18.7968 41.3662C19.9811 41.6037 21.113 41.8528 22.1834 41.0468C23.0917 40.363 23.3125 39.4487 23.3075 38.3887L23.2945 22.5693C23.1808 20.5205 22.2768 18.0291 21.4764 16.177L18.7924 10.7079C18.6733 10.4582 18.509 10.1767 18.5476 9.89105C18.6288 9.291 19.3506 9.12295 19.6693 9.62292L21.0213 12.23C21.0882 12.3534 21.1514 12.4632 21.2361 12.5763C21.3385 12.1113 21.2961 11.5846 21.3028 11.1097C21.3075 10.7767 21.3583 10.4483 21.3684 10.1154C21.3858 9.54525 21.3554 8.96845 21.4287 8.40234C21.4526 8.21803 21.4093 8.28159 21.2343 8.22675C20.067 7.8607 19.2002 7.02675 18.4534 6.08391C17.3067 6.56297 16.0465 6.89044 14.8217 7.09542L12.3632 7.47708C11.0646 7.68984 9.98536 7.69041 9.80161 9.35911L9.4777 11.5499C9.4499 11.688 9.45328 11.8369 9.40364 11.9697C9.13153 12.6977 8.09067 12.3775 8.14565 11.6716C8.17917 11.2412 8.28379 10.8202 8.3414 10.3934C8.56284 8.75334 8.55787 7.26408 10.414 6.48567C11.1333 6.18398 11.8753 6.19491 12.6327 6.07416C14.1725 5.82872 15.6885 5.61173 17.1728 5.11111C17.9111 4.86211 18.3946 4.71389 18.6922 3.88471L18.7066 3.84375C18.8789 3.36665 18.8628 2.90734 18.8641 2.41012C18.869 0.501867 20.8432 0.179757 22.384 0.0730186C22.6352 0.0556172 22.892 0.0552436 23.1393 0.00517683L23.1639 0H24.9301C25.2878 0.0633563 25.6492 0.0547177 26.0103 0.0793828C27.2012 0.160726 28.772 0.560414 29.0976 1.8959C29.2547 2.54045 29.0349 3.21961 29.2871 3.85185C29.6402 4.73691 30.1252 4.89103 31.0064 5.17411C32.4786 5.64708 33.9881 5.85998 35.5147 6.08897C36.9561 6.30516 38.2646 6.36009 39.0915 7.82812L39.294 8.23467C39.3367 8.33681 39.3674 8.43694 39.3974 8.54297L39.4101 8.5793C39.5059 8.87531 39.5258 9.22209 39.5542 9.53091L39.6641 10.3828C39.7325 10.8286 39.839 11.2887 39.8639 11.7393C39.9027 12.4422 38.7063 12.5264 38.5552 11.7773C38.4984 11.4958 38.4723 11.1933 38.433 10.9077L38.2774 9.88425C38.1682 9.07266 38.1374 8.48222 37.4413 7.953L37.2047 7.80858C36.7208 7.54017 36.0798 7.54552 35.5429 7.45917L31.9106 6.82608C31.4737 6.72872 31.0407 6.61603 30.6177 6.46884L29.555 6.09436C28.9982 6.96778 27.7727 7.92272 26.8124 8.20809C26.7555 8.22502 26.575 8.23205 26.5755 8.29964L26.603 8.97291C26.6093 9.49523 26.7113 12.3206 26.7772 12.433C26.8455 12.3905 26.8721 12.306 26.9078 12.2344L27.4804 11.0819L28.8097 8.78925C29.4326 7.79695 30.1933 8.65641 30.0511 9.15159C29.988 9.3713 29.8432 9.60239 29.7341 9.80377L28.4408 12.1643C27.3577 14.2688 26.3567 16.4247 25.5944 18.668L25.1705 20.0874C24.6098 22.074 24.6778 23.194 24.6722 25.242L24.6712 37.8078C24.6716 38.5615 24.6109 39.356 24.9683 40.0484C25.4572 40.9956 26.6645 41.7135 27.7499 41.6214C28.0325 41.5974 28.3384 41.5226 28.6177 41.468L33.4255 40.4705C33.6054 40.4287 33.8842 40.4198 34.0405 40.3374L33.0963 30.122L29.3193 31.2144C29.148 31.2718 28.964 31.3449 28.7867 31.3756C28.0884 31.4964 27.7544 30.511 28.2943 30.1357C28.4958 29.9955 28.7951 29.9473 29.0314 29.8817L32.7104 28.8083C32.8066 28.7827 32.9964 28.7527 33.0665 28.6881L33.0801 22.3008C33.089 22.0526 33.1578 21.8151 33.1728 21.567L33.3672 18.457C33.4567 17.5485 33.8773 13.9042 34.5219 13.2714C34.9295 12.8714 35.4186 13.1893 35.5566 13.6406L35.5698 13.6769C35.6205 13.8675 35.0549 15.7217 34.9849 16.1133L34.5486 20.0742C34.5149 20.6174 34.4636 21.2259 34.4422 21.7628L34.4426 30.9507C34.4496 31.127 34.489 31.3011 34.4964 31.4778L34.5075 32.0602C34.516 32.1901 34.5512 32.3163 34.5621 32.4468L34.6965 33.9588C34.948 35.8125 35.271 37.6474 35.2962 39.5249C35.3043 40.1259 35.502 41.3965 34.7351 41.5882C34.2523 41.7089 34.1524 41.3927 34.1244 41.9143L34.0941 42.3324C33.8631 45.0431 32.2537 47.295 29.5479 47.8561C29.2803 47.9119 28.9832 47.9189 28.7256 48H28.1109C27.9856 47.948 27.8323 47.9362 27.6982 47.9128L27.0454 47.7745C25.7364 47.4422 24.9079 46.8398 24.0203 45.8867C23.9779 45.884 23.9431 45.9491 23.916 45.9812C23.0684 46.9856 21.8639 47.5814 20.5888 47.8566C20.2999 47.9189 19.9799 47.9123 19.7022 48H19.0869ZM23.5011 1.43746C22.5921 1.44308 21.2332 1.38945 20.43 1.88304C20.6563 2.16141 20.9565 2.39027 21.2235 2.63015L22.818 4.04005C23.2108 4.38299 23.5847 4.81064 24.0176 5.10211L24.3351 4.82452L27.1342 2.28085C27.2748 2.15734 27.4344 2.0421 27.5403 1.88672L27.5699 1.84407C26.6529 1.2895 24.5354 1.43512 23.5011 1.43746ZM20.1597 3.48047C20.1016 4.05264 19.8602 4.65284 19.5127 5.1105C19.4028 5.2553 19.6677 5.4712 19.761 5.58459C20.2463 6.17442 21.0634 6.86245 21.8191 7.06622L22.1332 6.8453L23.0142 6.05916L20.5671 3.82552C20.4504 3.7082 20.3272 3.55282 20.1801 3.47725L20.1597 3.48047ZM27.813 3.46025L25.2374 5.83036C25.1643 5.89847 25.0683 5.96227 25.0076 6.04064L25.9465 6.89691C26.0116 6.94908 26.0826 7.01972 26.1614 7.04831C27.1547 6.69173 27.915 6.07312 28.5181 5.19581C28.1659 4.58959 27.9885 4.16098 27.813 3.46025ZM24.0129 6.97467L22.7559 8.0865L22.6688 10.9263C22.6545 11.1633 22.6099 11.3986 22.5988 11.6367L22.4626 14.438C22.4187 15.177 22.5878 15.3342 22.8527 16.0211L23.3788 17.4157C23.4943 17.6998 23.934 19.2036 24.0116 19.2581L25.2523 15.8011C25.3538 15.5587 25.4967 15.2895 25.5471 15.033C25.5898 14.8159 25.4937 13.0357 25.4554 12.8698C25.4129 12.686 25.4184 12.4793 25.4153 12.291L25.2556 8.70234C25.2391 8.37647 25.3644 8.112 25.0705 7.92295L25.0482 7.90941C24.6942 7.69055 24.3599 7.24298 24.0129 6.97467ZM24.6937 41.7357C24.6368 42.1901 24.6669 42.6702 24.6681 43.1276L24.6712 43.8983C24.6727 44.1353 24.6548 44.3558 24.7474 44.5781L24.7591 44.6115C24.8463 44.842 25.0056 45.0254 25.1709 45.2031C26.8865 47.0461 30.1308 47.0733 31.7227 45.0543L31.9198 44.7915C32.4596 43.9091 32.6819 43.033 32.8194 42.0133C32.4359 42.0534 32.0522 42.1524 31.6757 42.2359L29.734 42.6509C28.1743 42.9765 26.4997 43.274 25.1475 42.164L24.6937 41.7357ZM23.2542 41.8242C22.453 42.8919 20.4542 43.0624 19.2522 42.8322L15.2577 41.999C15.297 42.4637 15.3372 43.0567 15.5071 43.4982L15.6618 43.9378C15.7658 44.2502 15.9449 44.5498 16.1214 44.8261C16.6442 45.6389 17.555 46.28 18.5023 46.4866L18.8451 46.5386C20.2957 46.7986 22.8345 46.0147 23.2302 44.451C23.2925 44.2046 23.3878 42.1026 23.29 41.8259L23.2542 41.8242Z" fill="black"/>
</svg>
