<svg width="48" height="48" viewBox="0 0 48 48" fill="none" xmlns="http://www.w3.org/2000/svg">
<path d="M22.88 39.5274C21.5351 41.3862 20.6663 41.7593 18.5357 41.3787C17.1877 41.1379 15.6999 40.7759 14.514 40.0638C13.6291 39.5324 13.569 39.4817 13.5683 38.5259L13.5944 36.0197L14.1862 30.4334L14.4657 28.8948C14.6317 28.0984 14.664 27.9927 14.6561 27.1971L14.531 24.6017L13.8597 19.8338L12.5042 14.0037L12.1679 11.9675C12.1147 11.5384 11.9427 11.0531 12.3577 10.7458L12.3883 10.7239C12.7285 10.4784 15.4371 9.61294 15.8708 9.49215C16.1321 9.4194 16.3347 9.43894 16.5837 9.31214L17.8443 8.76558C18.2233 8.62988 18.133 8.5876 18.3602 8.30668C19.1798 7.29333 19.3268 6.46393 20.7382 6.47105C21.7952 6.47635 22.8251 6.75239 23.8805 6.76941C24.9321 6.78633 25.9564 6.51929 27.0028 6.45525C28.117 6.42793 28.1887 6.43543 28.896 7.359L29.4781 8.11904C29.6054 8.28554 29.749 8.53364 29.9104 8.65964C29.9973 8.72752 30.943 9.04365 31.21 9.18502C31.727 9.45886 32.1172 9.48043 32.6719 9.65827L33.7111 9.99849C34.0881 10.1248 35.5407 10.5363 35.72 10.804L35.737 10.831C36.1002 11.4036 35.5376 13.8925 35.3831 14.5544L34.4086 18.41L33.8465 21.5037L33.4674 24.7239C33.4362 25.0825 33.4715 25.4627 33.4177 25.8157L33.3871 26.1518C33.2989 26.7946 33.3164 27.7111 33.4214 28.3392L33.6019 29.3439C33.7064 29.854 33.7524 30.3784 33.8436 30.8904C34.0258 31.9131 34.1301 32.945 34.2162 33.9797L34.3294 35.285C34.3473 35.4516 34.3736 35.6122 34.3824 35.7808L34.421 38.9794C34.421 39.0948 34.4341 39.2435 34.3699 39.3444L34.3521 39.3711C33.7399 40.3722 29.4293 41.6023 27.9671 41.5288C26.2255 41.4414 25.064 39.711 24.4159 38.2792L24.0882 37.4691C24.0599 37.4074 24.0419 37.3215 23.9975 37.2726L23.5895 38.2553C23.3883 38.7016 23.1462 39.1172 22.88 39.5274ZM21.3904 7.88654C23.2947 8.92271 24.4366 8.68829 26.2796 8.01643L26.6525 7.88236C26.1099 7.88621 25.5913 7.98704 25.0547 8.0393C24.4515 8.09804 23.8028 8.0956 23.1979 8.06194C22.8286 8.04141 21.6837 7.79977 21.3904 7.88654ZM28.1342 8.6131L25.8484 19.9918L26.9269 18.1469C27.2134 17.7453 27.4336 17.2621 27.6657 16.8251L29.0742 13.974C29.324 13.418 29.5717 12.8783 29.7293 12.2874C29.4529 12.1367 29.0914 11.983 28.9966 11.6534C28.7698 10.8645 29.6704 10.5951 30.193 10.2486C29.6525 10.0181 29.1282 9.82983 28.7408 9.36699C28.659 9.26939 28.23 8.59299 28.1342 8.6131ZM19.8261 8.60457C19.1261 9.672 19.0607 9.74358 17.8208 10.2339L18.4615 10.6505C18.8502 10.8932 19.1503 11.0394 19.0372 11.5779L19.0314 11.6076C18.947 12.009 18.5389 12.0706 18.2443 12.2449C18.2632 12.3283 18.2838 12.4038 18.3131 12.4841L18.4767 12.9668C18.5527 13.193 18.6701 13.4195 18.7647 13.6396L20.1556 16.4998C20.4009 16.9413 20.6652 17.3977 20.8804 17.8538L21.1088 18.2484L21.6269 19.1393C21.7936 19.4315 21.9472 19.7394 22.1528 20.0057L19.8261 8.60457ZM21.2995 9.27118L23.858 21.867C23.9023 22.1056 23.9127 22.3055 24.0322 22.5221L24.5909 19.7985L26.6723 9.26199C25.2188 9.93558 23.4962 10.1173 21.9739 9.55646L21.2995 9.27118ZM16.2933 10.7459C15.7814 10.8695 13.9072 11.5029 13.4577 11.7294C13.568 12.3682 13.6259 13.3864 13.8199 13.9738L15.4048 21.1036C15.4451 21.2665 15.4519 21.4377 15.4726 21.6039L15.8046 24.2989L15.9789 27.41C15.9874 27.8588 15.9395 27.6904 16.3008 27.9776C16.6939 28.2901 17.0611 28.6085 17.4912 28.8734L18.2444 29.2984C18.4709 29.4179 18.6417 29.4566 18.7512 29.7068L18.764 29.7342C19.0347 30.3198 18.4023 30.8146 17.8477 30.5615C17.1231 30.2307 16.312 29.7673 15.7204 29.2186C15.6657 29.4401 15.6477 29.6583 15.6103 29.8818L14.9662 35.4252C14.9524 35.6233 14.9162 35.818 14.906 36.0177L14.8925 38.7543C15.1888 39.0439 15.9614 39.3098 16.3433 39.4546C17.1431 39.7129 17.9405 39.8972 18.7617 40.0679C20.3694 40.4021 21.0792 40.0174 21.9595 38.5076C22.8511 36.9786 23.3259 35.2851 23.3183 33.5205L23.3146 24.8498C23.3144 24.6791 23.3226 24.5054 23.2962 24.3363L23.2777 24.3152C23.1445 24.1614 23.0568 23.9938 22.9484 23.8238L19.594 18.2342C18.8047 16.806 18.0501 15.3648 17.4384 13.85C17.1983 13.2556 16.7626 12.4913 17.0776 11.8512L17.0913 11.8228C17.1481 11.7121 17.2644 11.6213 17.355 11.5382C17.0044 11.4028 16.5144 11.1787 16.3565 10.8151L16.2933 10.7459ZM31.7132 10.7537C31.514 11.0707 31.2829 11.2863 30.9293 11.4264L30.6728 11.566C31.4832 12.2221 30.7776 13.3002 30.4767 14.0437C30.0594 15.0746 29.5606 16.0625 29.0447 17.047L27.6117 19.6404L25.2262 23.5432C25.1283 23.7068 24.7123 24.3261 24.7083 24.4861L24.7122 33.2919C24.7102 33.786 24.6762 34.2937 24.744 34.7845C25.026 36.8248 26.3821 40.9017 28.9812 40.0879L31.5055 39.4539L32.8062 38.9178C32.9079 38.873 33.0393 38.8474 33.1043 38.7507L33.0891 36.1728L32.892 33.5853L32.2856 29.2792C31.6524 29.7915 30.9136 30.3384 30.1407 30.6154L30.1103 30.6268C29.376 30.8946 28.7484 29.8022 29.7956 29.3248C30.1108 29.1811 31.9249 27.9648 32.0352 27.7291C32.051 27.6954 32.1386 25.2241 32.1743 24.7002L32.759 20.0623L33.318 17.3502L34.2191 13.8162C34.2869 13.4896 34.5679 11.9625 34.5213 11.6573L31.7132 10.7537Z" fill="black"/>
</svg>
