<svg width="48" height="48" viewBox="0 0 48 48" fill="none" xmlns="http://www.w3.org/2000/svg">
<path d="M12.2097 40.0253L12.683 33.384L13.0325 28.2903L13.2338 24.5903L13.3294 22.1414L13.3402 18.1096C13.3394 16.8024 13.3333 15.6969 13.2482 14.3979C13.2232 14.0156 13.2564 13.6316 13.2542 13.2492C13.2447 11.6222 12.4927 9.8434 11.3505 8.66773C11.249 8.56315 11.13 8.46504 11.0551 8.33899L11.0221 8.28068C10.6693 7.61641 11.6905 7.23016 12.0927 7.04149L14.7426 5.90276C15.3489 5.64607 15.9392 5.34082 16.5641 5.12909L17.9504 4.73431C18.0139 4.71649 18.1772 4.69746 18.2246 4.66353C18.6793 4.33804 19.6402 2.74598 20.1415 3.92199L20.1562 3.96082C20.2943 4.30186 20.4259 5.08901 20.5318 5.49598L21.094 7.83973C21.1494 8.0629 21.2324 8.28509 21.2703 8.51163L22.2027 12.2784C22.2111 12.3241 22.2184 12.3619 22.2341 12.4058L22.391 12.9789C22.4668 13.374 22.6769 14.2946 22.798 14.6215C22.8827 14.8498 22.9035 15.1074 22.9699 15.3397C23.1435 15.9478 23.3001 16.5586 23.4727 17.1679C23.5984 17.6115 23.7976 18.3027 23.8863 18.7499L23.8989 18.8184C24.052 19.4078 24.2802 18.0941 24.3074 17.9858L27.6098 4.66257C27.7411 4.13303 27.7184 3.64787 28.345 3.51991L28.3659 3.52051C28.6764 3.54041 28.8004 3.71335 29.0108 3.91619L29.6948 4.52618C29.9744 4.75929 30.1507 4.83715 30.4923 4.93877L31.1873 5.16804L36.1234 7.16468C36.6035 7.39043 37.4066 7.70595 36.8734 8.4237C35.5962 10.1428 35.1258 11.219 34.8748 13.4406L34.7688 14.4513C34.7001 15.3063 34.6788 16.15 34.6769 17.0088L34.687 23.1688C34.6927 23.3519 34.7324 23.5251 34.7399 23.7066L34.8751 27.0838L35.2538 32.6835L35.7299 39.3199C35.7787 39.8469 35.8877 40.4201 35.7578 40.9419L35.7379 41.0188C35.4546 41.9545 34.6639 42.2842 33.832 42.5651L30.179 43.8049C28.8368 44.2773 27.738 44.7105 26.4225 43.9492C25.4931 43.4114 24.3143 41.8472 24.0359 40.7691L23.1881 42.3608C21.8612 44.3978 20.5779 44.6986 18.4222 43.9723L15.0558 42.8667C14.0002 42.5197 12.3567 42.1643 12.2148 40.781C12.1899 40.5384 12.2087 40.2701 12.2097 40.0253ZM19.2609 5.64874L18.2753 7.18863C18.1409 7.40023 17.9182 7.66235 17.8366 7.89438L18.5344 8.27262C18.8392 8.42557 19.3126 8.56596 19.4174 8.93177L19.4413 8.99482C19.6712 9.54354 19.1901 9.86857 18.8324 10.1736L17.6944 11.1029L21.02 16.3088L22.4372 18.213L19.3825 6.04306C19.3489 5.91931 19.3238 5.75979 19.2609 5.64874ZM28.6625 5.6246L25.4725 18.4202L26.8891 16.4066L30.3044 11.1148C29.8755 10.7171 28.9077 10.0623 28.5989 9.6544L28.578 9.62721C28.3648 9.33757 28.4868 8.81299 28.7699 8.61077C28.9187 8.50446 29.1271 8.43748 29.2931 8.35882L30.1416 7.92377L28.6625 5.6246ZM17.3087 6.24598C17.0197 6.33007 16.7518 6.45227 16.4726 6.56224L13.2258 7.9107C13.025 7.99231 12.7564 8.06998 12.5827 8.19654C13.6212 9.47782 14.4299 11.259 14.5002 12.9304L14.6007 16.3884L14.6058 20.3501C14.6043 21.241 14.5701 22.1599 14.5501 23.0544L14.4292 25.8386C14.4219 26.0455 14.317 26.8129 14.3643 26.9439C14.8826 27.0351 15.4068 27.0702 15.9277 27.1387L19.0281 27.5591C19.242 27.5809 19.4436 27.5697 19.6497 27.644L19.681 27.6547C20.2422 27.8566 20.2209 28.6675 19.6398 28.8608C19.4057 28.9386 18.9866 28.8284 18.7446 28.7957L14.2735 28.2036C14.0867 29.5336 14.1237 30.9022 14.0151 32.2413L13.4681 39.9945C13.4429 40.2932 13.3875 40.4965 13.5246 40.7811L13.5374 40.8093C13.6369 41.0125 13.9131 41.1624 14.1215 41.2263L19.2019 42.9141C19.4486 42.9943 19.6916 43.0789 19.9503 43.1148C21.5834 43.341 22.9211 40.5233 23.1699 39.2508C23.2339 38.924 23.2373 38.5674 23.3192 38.25C23.4195 37.861 23.2091 37.2614 23.5029 36.957L23.5326 36.9258C24.0216 36.4185 24.6021 36.7742 24.6348 37.4431L24.6615 38.0377C24.6953 38.5777 24.7974 39.2412 24.9853 39.7499L25.0813 40.0546C25.5176 41.1839 26.1211 42.4349 27.2837 42.9664C28.2282 43.3983 29.2482 42.7779 30.141 42.4693L33.5339 41.3382C34.6462 40.998 34.6074 40.7965 34.5242 39.8554L34.2966 36.642C34.2867 36.4961 34.2563 36.3561 34.2479 36.2108L34.2107 35.0842C34.1636 34.4145 34.0602 33.7367 34.0539 33.0643L33.7766 29.0072C33.7612 28.7462 33.7734 28.4687 33.7296 28.2111C33.2953 28.2307 32.8683 28.3192 32.4379 28.3752L29.391 28.7903C28.9055 28.8473 27.93 29.1056 27.9119 28.2997C27.8967 27.6257 28.5364 27.6108 29.0452 27.5564L33.633 26.9271L33.5696 24.7952C33.5544 24.4733 33.484 24.1546 33.4771 23.8358L33.4042 21.2712L33.3996 16.9804L33.4917 14.7064C33.6353 12.4626 34.1282 10.0794 35.4315 8.21262C35.2465 8.11231 35.0464 8.04485 34.8519 7.96502L30.559 6.23895L31.225 7.26551C31.36 7.47466 31.5161 7.68396 31.5951 7.92176L31.6334 8.03585C31.8853 8.8107 30.556 8.97054 30.1266 9.33002L31.2174 10.1765C31.4663 10.3526 31.5951 10.4208 31.7074 10.7225L31.7169 10.7471C31.8881 11.2211 30.4067 13.4131 30.1121 13.8714L28.4348 16.3452L24.6465 21.4469C24.3323 21.8085 23.9159 22.0952 23.4925 21.6913C23.4105 21.6131 23.3609 21.4801 23.2936 21.3863L21.0551 18.5205L18.5783 14.9605C17.9255 13.9754 17.2748 12.9633 16.7337 11.9117C16.2067 10.8876 15.9802 10.8094 16.871 10.1084L17.8753 9.30748L17.1104 8.95296C16.5794 8.69023 16.1374 8.36595 16.4401 7.73599L17.3422 6.26941C17.3178 6.24752 17.33 6.25362 17.3087 6.24598Z" fill="black"/>
</svg>
