<svg width="48" height="48" viewBox="0 0 48 48" fill="none" xmlns="http://www.w3.org/2000/svg">
<path d="M28.505 43.8479C26.9656 43.9959 25.7299 43.909 24.6222 42.6535L24.0621 41.956C23.6441 42.4151 23.3059 42.9075 22.7863 43.269C20.7051 44.7169 16.8881 43.3777 14.8491 42.3228L12.3076 40.8562C11.5102 40.3681 10.9723 40.2803 11.2017 39.1753C11.2914 38.7433 11.3057 38.2882 11.3821 37.8512C11.5704 36.7753 11.8288 35.7038 12.1285 34.6532L13.6521 29.9678C14.07 28.6716 14.5727 26.5944 14.604 25.212L14.6003 23.5244C14.5486 22.356 14.3517 21.1245 14.065 19.9945L13.3127 17.3903C13.1914 16.9724 13.0311 16.499 12.9833 16.066C12.9328 15.6094 13.4003 15.2285 13.8279 15.4159C14.2554 15.6032 14.3828 16.8361 14.5449 17.3018L15.1077 19.1529C15.5707 20.4739 15.8204 22.6286 15.8211 24.0909L15.8192 25.3278C15.9565 25.4164 16.175 25.4047 16.3357 25.4355L18.386 25.8777C18.7869 25.9393 19.3341 25.9358 19.5163 26.3742L19.5276 26.402C19.7104 26.8257 19.3264 27.2137 18.9108 27.2132C18.55 27.2128 18.1253 27.0812 17.7714 27.009L15.6965 26.5756C15.6431 26.6787 15.6368 26.8437 15.6224 26.9601L15.2896 28.667C15.8117 28.7723 16.3485 28.8198 16.8748 28.8989L18.6091 29.1525C18.753 29.1682 18.9122 29.1576 19.0488 29.2093L19.0779 29.221C19.7588 29.4793 19.5303 30.3811 18.8813 30.4055C18.3632 30.4249 17.793 30.2902 17.2781 30.2139L14.9663 29.8838C14.8764 30.0869 14.8219 30.3142 14.758 30.527L14.4717 31.3881C13.5109 34.1244 12.787 36.5602 12.3929 39.4198C12.7347 39.6873 13.1341 39.8855 13.5031 40.1136C15.4845 41.3386 16.8683 42.045 19.1248 42.4905C21.2447 42.9091 21.9279 42.7365 23.3113 40.9366L21.7614 36.5506C21.4714 35.6154 21.2164 34.6388 21.021 33.6789L20.8005 32.4015C20.6937 31.7796 20.5851 31.1529 20.5615 30.521L20.627 28.2194C20.6475 25.9104 20.7212 25.2664 21.7914 23.2675L22.7556 21.5387C22.9387 21.2258 23.1442 20.9179 23.3128 20.5974L18.1205 12.2195C17.9012 11.8397 17.1925 10.7856 17.1989 10.3611C17.2038 10.0356 17.3671 10.1059 17.0768 9.86846L16.6322 9.51633C15.6092 8.76825 15.8082 8.58839 16.1808 7.55428L17.1792 4.8495C17.3287 4.43598 17.4108 4.15757 17.899 4.05722L21.3085 4.4372C21.9182 4.49565 22.5009 4.52297 23.1167 4.52474L25.9978 4.5162C26.4046 4.50901 27.0015 4.43603 27.4072 4.38482L29.8826 4.0599C30.2421 4.01783 30.5039 4.16076 30.6636 4.49675L31.5943 7.00866C31.7221 7.47267 32.2974 8.48944 32.0802 8.86749L32.0643 8.89416C31.9593 9.07692 31.7637 9.19505 31.5987 9.32077L30.7377 9.96657C30.7453 10.1205 30.7761 10.2666 30.8073 10.417C30.6162 11.0066 30.2346 11.5507 29.9177 12.0804L25.4579 19.4725C25.2524 19.8118 25.052 20.1695 24.8279 20.4955L25.5936 21.6146C27.4008 24.1673 27.3839 24.5987 27.3788 27.8026L27.2909 31.7926C27.191 32.9267 26.9501 33.9962 26.5484 35.0677L25.054 38.7535C24.9899 38.9757 24.5667 40.5879 24.6312 40.7081C24.7259 40.8846 24.9306 41.0743 25.0657 41.2308C26.2189 42.5669 26.6405 42.8198 28.3581 42.5928C30.2867 42.3379 32.1054 41.5297 33.7626 40.535L35.0527 39.7437C35.2322 39.6343 35.3998 39.513 35.5866 39.4153L35.4255 38.145C35.2661 37.199 35.0144 36.2668 34.7574 35.3434L33.4422 31.1138C33.3157 30.7455 33.1349 30.342 33.0611 29.9625L33.0562 29.9356C32.811 29.932 32.5393 30.0234 32.2964 30.062L29.8701 30.3848C29.3354 30.4341 28.7195 30.5767 28.5334 29.898C28.3361 29.1784 29.3518 29.1998 29.7073 29.1454C30.721 28.9902 31.7408 28.8886 32.7463 28.6781L32.3572 26.5991L29.9571 27.1051C29.713 27.1554 29.4621 27.2401 29.2146 27.2616C28.5218 27.3216 28.1959 26.3543 28.9069 26.0673C29.1623 25.9642 29.4604 25.9254 29.7302 25.8713L32.1936 25.3294C32.1103 24.3721 32.1864 23.3595 32.2733 22.4059L32.6676 19.9485L33.5075 17.0925C33.6382 16.6599 33.7243 16.2049 33.8803 15.7815C34.1444 15.0647 35.1084 15.3723 35.0014 16.1273C34.9566 16.4432 34.8636 16.731 34.7828 17.0387L34.0311 19.5465C33.7534 20.5061 33.5553 21.5763 33.4649 22.5763L33.381 24.0161C33.3549 25.0613 33.4497 26.1487 33.6562 27.1754L33.8319 28.0648C33.8384 28.1054 33.8451 28.1415 33.8574 28.181L35.7047 34.1638C35.7124 34.2005 35.7195 34.2326 35.7332 34.2678C35.9209 34.7523 36.1904 35.7713 36.2693 36.29L36.694 38.3654C36.785 38.8114 36.9444 39.8201 36.7058 40.1598C36.5718 40.3506 36.288 40.4629 36.0926 40.5835L33.3063 42.2322C31.7801 43.0586 30.2136 43.59 28.505 43.8479ZM18.2852 5.37853L17.2095 8.31699C17.5815 8.69227 18.2143 8.93611 18.4027 9.45666L18.4178 9.49369C18.5103 9.76163 18.282 9.92564 18.4144 10.2052L21.4116 15.3609L21.7387 15.9142C21.7841 15.9852 21.8293 16.0731 21.8922 16.1295L19.6331 8.78996C19.308 7.67363 18.9197 6.55674 18.7112 5.41205C18.5723 5.40225 18.4235 5.37361 18.2852 5.37853ZM29.6227 5.37853L29.3143 5.39241C29.2355 5.82769 29.103 6.23161 28.9765 6.65424L26.5084 14.8644C26.3617 15.2967 26.1785 15.7067 26.0564 16.1483L26.5931 15.2447L29.6706 10.0428C29.3833 9.39338 29.7901 9.07617 30.2948 8.71678L30.6143 8.49371C30.6619 8.4616 30.7964 8.40127 30.8027 8.37736C30.8152 8.33011 30.4959 7.57627 30.454 7.46822L29.6227 5.37853ZM19.9994 5.58947C20.0365 5.94675 20.1963 6.33305 20.2976 6.67931L22.2578 13.2736L23.6726 17.3434C23.7801 17.6229 23.8446 17.9171 24.0209 18.1635L25.1319 15.0689L28.0234 5.5973L25.6459 5.78171L22.3426 5.78658L20.4255 5.62571C20.2889 5.613 20.132 5.61924 19.9994 5.58947ZM24.1019 21.6421L23.563 22.6406C23.0096 23.6104 22.3878 24.6143 22.0437 25.6828C21.6941 26.7683 21.8434 27.9958 21.8204 29.121C21.8108 29.5965 21.7455 30.0632 21.7813 30.5416C21.8611 31.6108 22.2686 34.137 22.6317 35.1394L22.7924 35.7176C22.9428 36.3115 23.2808 37.4223 23.5476 37.9911L23.7133 38.4232C23.7324 38.477 23.7999 38.6746 23.845 38.566L23.8488 38.5417C24.0429 37.3564 24.9296 35.9588 25.3567 34.7926C25.7662 33.6744 26.0098 32.5759 26.1085 31.3964L26.1736 26.4424C26.1714 25.0263 25.8723 24.2436 25.1057 23.0985L24.1019 21.6421Z" fill="black"/>
<path d="M23.9487 27.3241C23.6731 27.3253 23.4747 27.1811 23.3347 26.9449L23.314 26.9089C23.0413 26.454 23.4558 26.0129 23.8815 25.9019C24.1407 25.8924 24.3639 26.0024 24.479 26.2438L24.4986 26.2853C24.5333 26.3577 24.5559 26.4173 24.5667 26.4975L24.5707 26.5296C24.6352 26.9934 24.3881 27.238 23.9487 27.3241Z" fill="black"/>
<path d="M24.0892 31.0725C23.2679 31.3197 22.8418 30.0338 23.7758 29.6754C24.2679 29.6353 24.8072 30.0764 24.5775 30.6063L24.5439 30.6845C24.4502 30.8827 24.2875 30.9966 24.0892 31.0725Z" fill="black"/>
</svg>
