<svg width="48" height="48" viewBox="0 0 48 48" fill="none" xmlns="http://www.w3.org/2000/svg">
<path d="M11.8929 31.8247L12.9204 25.4155L13.4963 20.7764L13.566 16.2877C13.5663 16.0567 13.5288 15.7378 13.5886 15.515C13.7327 14.9783 14.5377 14.8079 14.8246 15.3242L14.8391 15.3516C14.9749 15.5992 14.924 15.9328 14.9222 16.2071L14.915 19.4935C14.9117 20.2291 14.8833 20.7247 14.8159 21.4377L14.4867 24.3633L13.5976 29.6719L12.8539 35.3025L12.536 39.1119C12.5218 39.3704 12.4801 39.6241 12.4741 39.8835L12.5471 43.6019C12.6801 43.6748 12.8264 43.692 12.9723 43.7269L18.6684 44.9291C19.1991 45.032 19.7987 45.2158 20.341 45.1016L20.3676 45.0958C21.2756 44.9275 21.6714 43.94 21.9764 43.1822L22.533 41.7016C23.1201 40.0279 23.6156 38.7286 23.7435 36.961L23.8063 36.2648C23.9257 33.7447 23.5559 30.3343 22.9387 27.9003L22.2443 25.3948C22.1044 24.9428 21.9178 24.4985 21.8222 24.0352C21.5377 22.6551 22.4761 20.1057 23.1249 18.915C22.7381 18.6111 22.5397 18.1833 22.3157 17.7573L17.7504 8.04602C17.5846 7.68274 17.3993 7.3046 17.2828 6.92214C17.0432 6.13549 17.9571 5.64982 18.4411 6.31047C18.6165 6.54991 18.7228 6.87649 18.852 7.14283L19.405 8.2969C19.5622 8.65882 19.732 9.01647 19.8973 9.37502L20.5326 10.7461C20.6209 10.9436 20.7165 11.1378 20.8086 11.3332L21.607 13.0078C21.6976 13.2083 21.7775 13.4223 21.8771 13.618L22.8235 15.6094C22.8841 15.7256 22.9569 15.8283 23.0327 15.9348C23.0658 14.9773 23.335 14.9888 22.993 13.8985L21.7301 9.8395L20.145 5.16396C20.0246 4.79233 19.9342 4.40152 19.7489 4.05597C19.5618 4.19017 19.4044 4.36693 19.2271 4.51452C18.4257 5.18172 17.3926 5.54463 16.436 5.91799L13.3169 7.13674C12.1753 7.58735 11.5353 8.02038 10.7011 8.89483C9.12615 10.5457 7.9569 12.5469 7.05465 14.6321C7.20216 14.8539 7.40982 15.054 7.5871 15.2538L9.82669 18.1916L11.2246 20.4323C11.5855 21.0523 12.785 22.9423 12.5766 23.509L12.5636 23.543C12.5053 23.6986 12.4121 23.8232 12.2584 23.8964C11.5528 24.2323 11.3 23.4737 11.0408 22.9799L9.5724 20.4209L7.56446 17.4727L6.05119 15.592C5.63682 15.0941 5.39935 14.9921 5.67296 14.313C6.63029 11.937 8.01709 9.65121 9.79955 7.80574C11.288 6.26463 12.251 5.99833 14.2094 5.27796L16.921 4.19803C17.673 3.87631 19.0424 3.00208 19.4504 2.25204C19.6468 1.89081 19.5654 1.72176 20.0409 1.5283L26.9251 1.51682C27.2826 1.51688 27.8099 1.39714 28.1026 1.63959C28.5537 2.01327 28.403 2.42944 28.2191 2.88283L27.9611 3.57044L25.407 11.7539L24.6588 14.7656L24.3226 16.4754C24.3021 16.6092 24.257 16.7348 24.27 16.8714L24.3051 16.8969C24.3661 16.8399 24.3977 16.7131 24.4326 16.6357L28.7168 7.14761C28.9099 6.72583 29.0838 6.24864 29.3259 5.85466C29.7091 5.23071 30.7608 5.68882 30.4867 6.47814L29.5365 8.76968L26.4571 15.6652L25.3401 17.7908C24.8452 18.669 24.3116 19.5344 23.9087 20.461C23.6701 21.0097 22.9756 23.1636 23.1711 23.7385L24.1116 26.8682C24.1571 26.9906 24.163 27.1219 24.2037 27.2447L24.3631 27.8947C24.4623 28.4543 24.6108 28.9983 24.7089 29.5826L25.1386 33.3444C25.227 34.6574 25.1266 35.9022 25.1633 37.1749C25.1724 37.4925 25.2367 37.807 25.2706 38.1215L25.4953 39.8611C25.5934 40.4307 25.8028 41.447 25.9835 42.0088L26.2584 43.1822C26.3778 43.5343 26.3698 43.9657 26.575 44.2892C26.8134 44.6648 27.2469 45.0138 27.6926 45.0991L27.7317 45.1059C28.0354 45.1624 28.4332 45.1292 28.7326 45.0563L35.3604 43.6728L35.4518 42.4997L35.4435 37.1691L34.6794 30.3047L33.4945 24L33.1305 20.8589C33.0547 20.1759 33.0893 19.4937 33.0711 18.8086L33.0319 16.605C33.0319 16.0554 32.8886 15.1472 33.645 15.0242C34.5162 14.8825 34.4084 15.8834 34.4089 16.3788L34.416 19.1836C34.426 19.3605 34.4652 19.5335 34.4727 19.711L34.6443 22.1699C34.6767 22.5017 34.697 22.8391 34.7518 23.168L36.1345 30.6277C36.1658 30.7764 36.1676 30.9285 36.1892 31.0781L36.7342 35.8423L36.8205 37.1956L36.8875 40.3382C36.8808 40.4961 36.8533 40.6523 36.8483 40.8104L36.7658 42.8988C36.6638 44.3076 36.9355 44.7967 35.3882 45.1329L28.9797 46.4643C27.2678 46.7719 25.5748 46.1109 25.0702 44.3016C24.9275 43.7899 24.8736 43.2467 24.7541 42.7266C24.6126 42.1104 24.4084 41.5105 24.3051 40.8853C24.0737 41.4285 23.9155 41.9811 23.7249 42.5378L23.072 44.1829C22.5246 45.3898 21.7062 46.463 20.2856 46.5665C19.7044 46.6088 19.1259 46.4476 18.5564 46.3533L14.5552 45.5783C13.8107 45.4127 13.0774 45.1996 12.3252 45.07C11.0469 44.8498 11.1919 43.6895 11.141 42.668L11.1086 40.5461C11.1137 40.3751 11.1427 40.207 11.1453 40.0354L11.165 38.7238C11.1873 38.2595 11.2371 37.798 11.2693 37.3335L11.6198 34.0547C11.7017 33.3198 11.7416 32.5482 11.8929 31.8247ZM21.0066 2.98346L20.9184 2.99581C20.8899 3.08097 20.9598 3.21337 20.9865 3.29568L22.4058 7.51174C22.5327 7.88974 22.6873 8.34897 22.8293 8.71877L23.8248 11.7933C23.8505 11.8662 23.8921 11.9364 23.9283 12.0048L24.5167 9.77964L26.7412 2.99609L21.0066 2.98346Z" fill="black"/>
<path d="M36.2236 23.9179L36.1624 23.9414C35.7938 24.0415 35.41 23.7784 35.3178 23.4167L35.3119 23.3919C35.1864 22.8829 35.734 22.1314 35.9753 21.7035C37.3539 19.2583 39.039 16.6765 40.9764 14.6179C39.8186 12.1856 37.8301 8.60179 35.2889 7.39213C34.9849 7.24748 34.6559 7.14116 34.3404 7.02309L29.9024 5.28552C29.5608 5.14082 28.4762 4.75077 28.2953 4.43517L28.2573 4.36158C28.0974 3.95564 28.4634 3.53995 28.8241 3.42397C29.2128 3.39004 29.6316 3.64527 29.9789 3.78552L34.5003 5.5604C36.7422 6.36505 37.6746 7.00926 39.2156 8.98865C40.2603 10.3306 41.1249 11.7328 41.8595 13.266C42.0399 13.6423 42.2618 14.0236 42.4002 14.4166L42.4097 14.4444C42.6009 14.9901 42.2453 15.2381 41.9179 15.6286L40.8662 16.8806L38.5498 20.1097L37.0634 22.6546C36.8374 23.0939 36.6698 23.6544 36.2236 23.9179Z" fill="black"/>
<path d="M25.5718 25.2092C24.3074 25.0835 24.9412 22.6231 25.2502 21.7823C25.8471 20.1584 26.9556 18.6895 28.0073 17.3347L29.6435 15.3032C30.7385 14.0559 32.0084 12.8662 32.7906 11.3817L33.0584 10.8468C33.2394 10.4515 33.2998 10.2498 33.7703 10.1533C34.0437 10.1721 34.3173 10.2951 34.3954 10.5826L34.4076 10.6286C34.4529 10.7668 34.4814 10.8823 34.4429 11.0285L34.4303 11.0739C34.1631 12.1764 33.0698 13.6213 32.3479 14.4482L31.0067 15.8872L29.0315 18.3003L27.6472 20.2182C26.9285 21.299 26.2643 22.5298 26.2027 23.8546L26.1883 24.4722C26.1855 24.598 26.1973 24.7462 26.1186 24.8521L26.1024 24.8728C25.948 25.0776 25.8238 25.1671 25.5718 25.2092Z" fill="black"/>
</svg>
