<svg width="48" height="48" viewBox="0 0 48 48" fill="none" xmlns="http://www.w3.org/2000/svg">
<g clip-path="url(#clip0_1_161)">
<path d="M39.8262 30.8457C39.0654 30.858 38.334 30.8821 37.5822 30.762L36.4218 30.5866C35.234 30.3538 34.047 29.9651 32.9413 29.4748L28.2658 27.1074C27.5069 28.2525 26.5731 28.4333 25.3269 28.4345L22.7571 28.434C21.5198 28.4322 20.7689 28.228 19.9518 27.1735L16.2582 29.0376C14.0799 30.1957 11.6167 30.8459 9.14924 30.847L8.49304 30.8481C7.76254 30.8451 7.7361 30.341 7.59571 29.7295L6.92802 26.9126C6.54834 25.0586 6.48215 23.2331 6.87041 21.3636L7.67024 18.2678C7.81523 17.6631 7.76249 17.1922 8.49745 17.1428C10.9482 17.1169 13.1976 17.6372 15.4513 18.6248L19.7128 20.7073C19.9922 20.847 19.9315 20.8299 20.1493 20.5888C20.5519 20.1432 21.1062 19.8601 21.687 19.7326L21.7148 19.7267C22.0453 19.6538 22.4024 19.6662 22.7391 19.6651L25.3187 19.6642C26.5495 19.6663 27.5152 19.8779 28.226 21.0253C28.3484 21.0679 29.381 20.5247 29.5699 20.4377L33.1665 18.7277C35.0904 17.8551 37.0922 17.1891 39.2278 17.1356C40.5359 17.1028 40.1724 17.5155 40.5144 18.5598L41.2577 21.458C41.6852 22.8235 41.5576 25.2947 41.2747 26.674L40.3168 30.4105C40.274 30.5967 40.1303 30.7433 39.9514 30.8104L39.8262 30.8457ZM9.06196 18.5906C8.89227 19.0744 8.79496 19.5853 8.66277 20.0803C8.22215 21.7305 8.03849 22.5196 8.03924 24.1895C8.03938 24.5646 8.01745 24.9525 8.09301 25.3212L8.53912 27.685C8.5597 27.7965 8.90315 29.2997 8.94093 29.3635C9.32798 29.3612 9.72801 29.3773 10.1132 29.3445C12.2928 29.1588 14.6849 28.3257 16.6262 27.375L18.5294 26.4347C18.8512 26.2736 19.1619 26.0974 19.4933 25.9559C19.3582 25.9751 19.2343 26.021 19.1014 26.0462L18.1784 26.2112C16.1603 26.5469 14.1208 26.8486 12.2173 27.6287C11.7899 27.8038 11.3195 28.1437 10.8732 27.8203C10.6231 27.6391 10.5471 27.2274 10.7352 26.9769C11.1269 26.4552 14.0249 25.7043 14.6661 25.5558C15.6757 25.3123 16.6972 25.1839 17.7193 25.0163C18.3285 24.9163 18.9562 24.7662 19.5712 24.7245C19.5705 24.5359 19.584 24.335 19.5582 24.1484L19.5289 24.1466C18.9077 24.104 18.2766 23.9783 17.6601 23.8907C16.326 23.7011 11.6575 23.1548 10.7825 22.1486C10.4028 21.712 10.8312 20.7378 11.7356 21.2848C12.5152 21.7564 13.5533 21.9698 14.4374 22.1254L18.2297 22.718C18.4143 22.7456 19.4305 22.9323 19.5216 22.8761C19.5193 22.7513 19.5293 22.6139 19.4963 22.4931L18.6542 22.0428C15.5988 20.5032 13.1846 19.1424 9.76166 18.6645C9.53066 18.6323 9.28945 18.6364 9.06196 18.5906ZM38.8938 18.6889C37.0827 18.9478 35.7455 19.3876 34.1109 20.1808L29.3028 22.6393C29.0842 22.7406 28.8593 22.8277 28.6594 22.963L28.5893 23.0082C28.9947 22.9771 29.3988 22.8843 29.8002 22.8176L31.0898 22.6177C32.8267 22.3264 34.7276 22.1889 36.2777 21.2751C36.6233 21.0714 36.9248 20.8164 37.3043 21.1407C38.5196 22.1794 34.9351 23.2347 34.3575 23.3634L28.5975 24.2599L28.5921 24.6949L33.3522 25.3998C33.997 25.4711 37.0009 25.9577 37.4219 26.4676C37.8201 26.95 37.2751 27.5864 36.7067 27.4474C36.5225 27.4023 36.3481 27.3103 36.164 27.2579L34.5568 26.8807L28.6911 25.932L33.0569 28.0154C34.8552 28.7717 37.1677 29.4055 39.1506 29.4342C39.6414 27.0025 40.4841 25.3484 40.1157 22.737C40.0021 21.9318 39.7628 21.1354 39.5387 20.3558L39.1602 18.9701C39.1371 18.888 39.1107 18.7697 39.062 18.7007L38.8938 18.6889ZM23.2439 21.2235L22.406 21.2263C22.1892 21.2275 21.9667 21.2051 21.7659 21.2964L21.7076 21.3193C21.2624 21.4983 21.1062 21.8102 21.1075 22.2477L21.1283 22.9927C21.1354 23.2178 21.1319 23.4467 21.1291 23.6722L21.1864 23.6696C21.2028 23.7845 21.1988 23.9882 21.2402 24.0882C21.3072 24.2502 21.3367 24.4321 21.3998 24.5496L21.4753 24.5576C21.6125 24.4381 21.5379 24.1736 21.6792 24.0766C21.8409 24.2264 21.7579 24.4242 22.0024 24.5285L22.0439 24.5208C22.4847 24.4548 22.6113 25.354 21.9987 25.7568C21.8127 25.756 21.417 25.6904 21.3398 25.9222L21.3043 25.924C21.1291 25.9375 21.2109 25.9995 21.1406 25.8167L21.1289 25.7815C21.0862 25.8751 21.1156 26.0135 21.1459 26.1095L21.1568 26.1452C21.4202 26.9832 22.0962 26.9072 22.7886 26.9054L25.6194 26.905C26.1881 26.9034 26.8356 26.7893 26.9548 26.1097L26.9602 26.0812C26.9828 25.9528 26.96 25.8146 26.9584 25.6841L26.9571 22.9339C26.958 22.3109 27.1079 21.7075 26.4609 21.3516L26.424 21.331C26.0684 21.1362 25.5907 21.2246 25.2001 21.2239L23.2439 21.2235ZM21.1291 23.9183C21.1383 23.947 21.1375 23.9723 21.164 23.9886C21.1549 23.9567 21.1584 23.9359 21.1291 23.9183Z" fill="black"/>
<path d="M48.0002 21.3576V21.9227C47.4223 23.0347 46.8455 23.938 45.566 24.3862C46.5655 25.0611 47.088 25.3345 47.7255 26.4823C47.8076 26.6301 47.8746 26.9106 48.0002 27.0081V27.3552C47.463 28.2591 46.8808 28.0582 46.4166 27.1565C45.9154 26.1833 45.1421 25.7245 44.1516 25.3212C43.6014 25.0971 43.0533 24.8081 43.236 24.1052C43.4926 23.118 45.5696 23.3846 46.4857 21.6249C46.6125 21.3814 46.9296 20.7071 47.3388 20.8367L47.463 20.87C47.7148 20.9446 47.8273 21.1218 47.9412 21.3394L48.0002 21.3576Z" fill="black"/>
<path d="M0 22.1149V21.4699C0.341756 20.9776 0.997214 20.9152 1.24032 21.5392C1.62749 22.5329 2.46954 23.3473 3.46806 23.7172L3.98438 23.9044C4.67076 24.1362 4.73297 24.9133 4.1966 25.1512C3.93552 25.267 3.64256 25.3236 3.37557 25.4367C2.74505 25.7037 1.63251 26.4377 1.34457 27.1141C1.06803 27.7637 0.311126 27.8254 0.0426699 27.1387C0.0305267 27.1077 0.0216214 27.0901 0 27.0653V26.7927C0.0226386 26.7646 0.0358765 26.742 0.0455264 26.707C0.296226 25.7973 1.42468 24.9785 2.17675 24.4898C1.06638 23.7004 0.684797 23.4289 0 22.1149Z" fill="black"/>
</g>
<defs>
<clipPath id="clip0_1_161">
<rect width="48" height="48" fill="white"/>
</clipPath>
</defs>
</svg>
