<svg width="48" height="48" viewBox="0 0 48 48" fill="none" xmlns="http://www.w3.org/2000/svg">
<path d="M48 17.7458V17.9126V17.925V22.0017C47.9119 22.2671 47.8842 22.5651 47.8303 22.8404L47.5673 23.9671C47.018 26.0515 46.4843 27.2113 45.4469 29.0584C45.0515 29.7624 45.0223 30.4996 43.9752 30.6529C43.4506 30.7297 43.2129 30.4148 43.0206 30.9547L41.2094 35.6489C40.8089 36.7061 40.4293 37.4928 39.1886 37.7434L38.9709 37.7771C37.4333 37.9035 36.9104 37.2411 36.0298 36.2223L32.2057 32.1159L26.9251 27.0771C26.5149 26.7283 26.0923 26.3635 25.6586 26.0454C25.2742 25.7635 24.8633 25.5081 24.5002 25.1987C23.4383 25.2657 22.7347 25.869 21.9187 26.4901C20.0318 27.9261 18.3237 29.5892 16.6481 31.2617L13.2525 34.7423L11.2413 36.9966C10.0438 38.4436 7.84341 38.3446 6.90234 36.689C6.60605 36.1677 6.4912 35.5499 6.29742 34.9855L4.83619 30.5822C3.22955 30.7453 3.2663 30.3679 2.5882 29.217C1.2652 26.9715 0.385848 24.561 0.0788348 21.96C0.0567642 21.773 0.0494222 21.5901 0.00852295 21.4054L0 21.3677V18.4771C0.0918783 18.1193 0.096638 17.7242 0.143111 17.3564L0.403265 15.8876C0.724636 14.3717 1.42965 12.4387 2.07587 11.0559L2.72445 9.81412C3.07697 9.15796 3.19794 8.62495 4.07423 8.52178L4.22523 8.50757C4.39946 8.50275 4.57789 8.52482 4.75256 8.53153L6.75544 8.71879C11.2842 9.22645 14.9984 10.9957 18.4285 13.9056L19.9462 15.3094C21.3702 14.3289 21.9991 14.3135 23.6045 14.3136L24.8848 14.3159C25.9374 14.3211 26.6917 14.4804 27.6387 14.9219L28.038 15.1175C28.0995 15.1459 28.0949 15.1631 28.1408 15.1218L29.1982 14.157C33.4424 10.567 37.4845 8.95551 43.0195 8.5275C44.8684 8.38453 44.8411 8.91103 45.5178 10.3483L46.6018 12.7927C46.743 13.1501 46.8439 13.5233 46.9837 13.877L47.3606 15.0504C47.5673 15.5554 47.6564 16.1435 47.767 16.6762L47.8983 17.4239C47.917 17.5149 47.9325 17.6455 47.9822 17.7237L48 17.7458ZM43.6206 10.0669C42.9361 10.1757 42.2413 10.1825 41.5547 10.2849L40.125 10.5061C39.3176 10.6581 38.5211 10.8701 37.7344 11.1048L36.6044 11.4525C34.4404 12.217 32.1041 13.8068 30.3302 15.2779L29.0201 16.4616C29.4483 17.5881 29.2584 17.3988 29.2484 18.4969L29.2435 21.2342C29.235 21.4552 29.2221 21.6868 29.167 21.9011L29.0352 22.447C29.8134 23.0997 30.7061 23.6593 31.5591 24.2106L34.6554 26.1231C37.6892 27.8535 40.0995 29.1633 43.7012 29.1081C43.7656 29.0012 43.7991 28.8883 43.8506 28.7762C44.0885 28.2581 44.4307 27.7946 44.6869 27.2862C47.6217 21.4638 46.744 16.3574 43.9414 10.6713L43.7372 10.2661C43.7054 10.1991 43.686 10.1062 43.6206 10.0669ZM4.35435 10.1031C3.80105 10.9847 3.28471 12.055 2.9075 13.0317L2.44607 14.4036C2.23005 15.0778 2.01775 15.7672 1.87915 16.4619L1.52242 18.6733C1.46071 18.963 1.49459 19.3204 1.49216 19.6168C1.48302 20.7336 1.55926 21.7225 1.77534 22.8254L2.07291 24.0525C2.08052 24.0898 2.09117 24.1229 2.10255 24.159L2.55084 25.5807C3.04847 26.6999 3.42776 27.6515 4.10118 28.7237C4.32125 29.0742 4.2126 29.1072 4.6591 29.0909C5.11805 29.0742 5.41748 28.9018 5.8403 28.8993L6.50747 28.8942C7.74117 28.8479 9.13036 28.2652 10.2244 27.7512L13.3711 26.0891L18.9057 22.6322C18.8501 22.5027 18.7957 22.3811 18.7667 22.2427L18.7585 22.2074C18.6271 21.6286 18.71 20.9793 18.7372 20.3911L18.7815 19.352C18.824 18.8476 18.9065 18.293 18.7949 17.7929C18.7345 17.5223 18.7521 17.1853 18.8428 16.9254C18.8678 16.8537 19.0273 16.6157 18.9684 16.5685C18.6812 16.3385 18.4262 16.0449 18.1639 15.7866C16.5829 14.2301 14.0997 12.5612 12.0388 11.6751C10.2373 10.9005 8.3137 10.48 6.375 10.2399C5.70544 10.157 5.02434 10.1657 4.35435 10.1031ZM22.629 15.9186C21.7296 16.0305 20.558 16.6218 20.3048 17.5787L20.2955 17.6122C20.233 17.8529 20.2674 18.1671 20.2673 18.4177L20.2543 21.7171C20.2574 21.8065 20.2897 21.8894 20.3184 21.9731L20.328 22.0017C20.4029 22.2156 20.5795 22.4225 20.7363 22.5809C21.7637 23.6182 22.7544 23.7135 24.0993 23.7162C24.5339 23.7171 24.9352 23.7178 25.3651 23.6413C26.0147 23.5354 26.7182 23.1679 27.108 22.6295L27.135 22.5919C27.6602 21.8709 27.7518 21.0997 27.7533 20.2337L27.7572 18.4377C27.7635 18.136 27.8985 17.7637 27.8035 17.4843L27.7912 17.4475C27.49 16.5928 26.3767 16.066 25.5222 15.9486C25.0582 15.8849 24.56 15.9166 24.0913 15.9164L22.629 15.9186ZM28.2618 23.8523C27.8914 24.1725 27.5187 24.5059 27.0827 24.7358L26.865 24.8653L28.793 26.5078L31.5371 29.1507L36.8187 34.7154C37.1542 35.0973 37.4779 35.516 37.8405 35.8704C38.3888 36.4064 39.134 36.3465 39.4573 35.6457L41.3694 30.5481C38.998 30.2472 36.9459 29.2126 34.8816 28.0677L30.9698 25.7297L28.6217 24.1115C28.5046 24.0225 28.3751 23.9455 28.2618 23.8523ZM19.8109 23.9339C19.1484 24.2818 18.5503 24.7725 17.9122 25.1655L14.2155 27.407C12.5838 28.3676 10.93 29.2852 9.14039 29.9224C8.28989 30.2253 7.48261 30.2916 6.67861 30.5205C6.72816 30.7351 6.79533 30.9709 6.87891 31.1736L8.18213 35.0932C8.29706 35.3861 8.31759 35.6867 8.49886 35.9572C8.62102 36.1252 8.80106 36.2478 9 36.3052L9.02752 36.3134C9.1778 36.3542 9.35653 36.3281 9.50494 36.2934L9.53512 36.2868C9.88898 36.2004 10.1604 35.7857 10.3824 35.5268L14.6298 30.9797L19.0337 26.7161L21.2202 24.8933C20.6647 24.5515 20.3406 24.3442 19.8109 23.9339Z" fill="black"/>
</svg>
