<svg width="48" height="48" viewBox="0 0 48 48" fill="none" xmlns="http://www.w3.org/2000/svg">
<path d="M4.94065 36.7267L4.91182 36.7236C3.63903 36.5766 3.34258 35.8315 2.86484 34.8281L1.88765 32.6818C1.37478 31.4444 1.03671 30.13 1.5296 28.8215C2.35721 26.6244 5.51932 25.68 5.63679 24.0651C5.71005 23.0586 5.1326 22.6664 4.41771 22.1416C3.09471 21.1704 1.75631 20.0729 1.34259 18.3985C0.972065 16.8989 1.30447 15.246 2.01108 13.8935L2.60115 12.8745C3.56017 11.1736 4.04678 10.9788 6.04596 11.5391L8.0388 12.0905C10.167 12.6348 12.3467 13.2194 14.3201 14.2025C16.7816 15.4288 19.5312 17.6535 21.2532 19.863C21.7639 19.5624 22.4057 19.3235 23.0049 19.3175L24.8167 19.3154C25.6003 19.3184 26.0733 19.4965 26.7534 19.9197L27.2819 19.2251C27.7634 18.6314 28.3151 18.1315 28.8653 17.605C32.3778 14.244 35.791 13.1404 40.3932 11.9782L42.1697 11.4818C42.5233 11.3841 42.8716 11.2742 43.2376 11.2366C44.4044 11.0413 44.9492 11.8818 45.4686 12.7033C46.2823 13.9903 46.5749 14.5438 46.9807 15.9588L47.1705 16.6334C47.2713 17.0115 47.3829 17.4248 47.2947 17.8157L47.2849 17.8572C47.0533 18.868 46.4558 19.8317 45.685 20.5124L43.8941 22.0371C40.5896 25.1856 45.7923 26.3792 46.5607 29.0206C46.9094 30.2193 46.6854 31.3846 46.2186 32.5197L44.9061 35.3322C44.0477 37.1859 42.6919 36.7515 41.1188 36.3495L39.2377 35.8446C34.5035 34.4799 29.768 32.2013 26.7993 28.1294C26.2311 28.4249 26.0535 28.4971 25.4866 28.7115L25.4202 28.7357C25.3007 28.7721 25.1607 28.7642 25.0369 28.765L23.3227 28.7661C22.3967 28.7633 22 28.5576 21.1714 28.1177L19.4021 30.2212C16.3156 33.2935 11.9785 34.9951 7.85173 36.1021L6.14294 36.5382C5.74282 36.6304 5.35319 36.7277 4.94065 36.7267ZM43.3205 12.3799L37.2888 14.0679C34.1596 15.0542 31.7018 16.4346 29.3318 18.7739L27.9002 20.3069C27.7762 20.4534 27.6253 20.6019 27.5303 20.7686L27.5199 20.7875C28.0137 21.4896 28.2653 22.1701 28.4144 23.0045C30.6438 22.2316 32.9288 21.6255 35.2422 21.1636L38.2821 20.6256C39.1321 20.5116 39.9566 20.3656 40.8177 20.3595C41.2198 20.3568 41.7272 20.2227 41.9091 20.6955L41.9217 20.7261C41.969 20.8431 41.9835 20.9351 41.9603 21.0588L41.9523 21.1041C41.8756 21.4815 41.5778 21.5584 41.2571 21.5607C38.4167 21.5814 34.6579 22.4112 31.9485 23.1516L29.6175 23.8498C29.4327 23.9026 29.2492 23.9798 29.0625 24.0211L31.7631 24.8755C33.0371 25.2506 34.3128 25.6073 35.6157 25.8682L37.9996 26.2412C38.5277 26.3157 39.0753 26.3609 39.6081 26.3631L40.8925 26.3622C41.066 26.3615 41.2751 26.3325 41.4438 26.3622C41.9419 26.45 42.0285 27.1881 41.5918 27.4327C41.2763 27.6094 40.7473 27.5488 40.3945 27.5539L38.6716 27.4752C35.121 27.1921 31.7788 26.1355 28.3972 25.0735C28.2207 26.0237 27.9872 26.4253 27.5643 27.2187C30.4483 31.2423 34.6519 33.2309 39.2314 34.6127L41.6951 35.2742C43.6048 35.7333 43.43 35.7176 44.2092 34.0788C44.9214 32.581 46.2527 30.4281 45.1714 28.7979L45.1501 28.7653C44.9066 28.3984 44.5321 28.1109 44.2043 27.8209L43.6175 27.2652C40.441 24.3697 41.3308 22.5534 44.1595 20.2319C44.5181 19.9376 44.913 19.6674 45.2301 19.3266C46.8723 17.5625 45.5374 15.0989 44.5205 13.4036C44.2019 12.8725 44.0487 12.3425 43.3205 12.3799ZM4.5751 12.4015C4.23516 12.4844 4.07604 12.6644 3.8974 12.9591C2.15418 15.8338 1.27574 18.3528 4.51941 20.7589C5.2128 21.2732 5.97119 21.6761 6.41712 22.4539C6.73193 23.0031 6.95393 23.8529 6.76127 24.4702L6.73582 24.5755C6.14623 27.3966 1.1301 27.636 2.74536 31.6874L3.93434 34.3361C4.35085 35.1528 4.31869 35.7134 5.43101 35.4751L9.46849 34.4067L12.172 33.4296C14.5673 32.4456 17.0037 31.0325 18.8064 29.1417C19.3672 28.5534 19.8476 27.8934 20.3638 27.2667C19.9367 26.5182 19.7318 25.9261 19.5245 25.109L16.8367 25.9664C15.8037 26.2842 14.7548 26.5928 13.6884 26.7771C13.2479 26.8532 10.6896 27.1367 10.3026 26.9227L10.1445 26.8116C9.67858 26.4396 9.93907 25.7525 10.5063 25.7259C10.6851 25.7175 10.8785 25.7561 11.061 25.7574C14.0327 25.779 16.1212 24.8918 18.9101 24.0661C18.2634 23.8033 17.5621 23.6439 16.8846 23.4789L12.5255 22.5486C12.3597 22.5208 12.1689 22.5126 12.0109 22.4567C11.4808 22.2688 11.4287 21.5332 11.9531 21.3238C12.1529 21.244 12.4324 21.3392 12.6326 21.3745L15.6158 21.9728L19.5341 22.9585C19.7311 22.1014 19.8984 21.4557 20.4203 20.7073C19.8888 19.9151 19.1457 19.2259 18.4551 18.5724C15.6936 15.9594 13.2147 14.7749 9.63255 13.7359L5.83905 12.7116C5.43326 12.6004 5.0006 12.415 4.5751 12.4015ZM22.8685 20.5138C22.7272 20.5307 22.6083 20.5506 22.4725 20.5941L22.4348 20.6057C20.0187 21.375 19.9782 26.4816 22.406 27.4464L22.6913 27.5448C23.0355 27.6777 24.7694 27.6261 25.1538 27.5864C25.6348 27.5236 26.0823 27.2041 26.3788 26.8329C27.7543 25.1111 27.7148 22.2398 25.9343 20.807C25.602 20.5396 25.2532 20.5116 24.848 20.5112H24.0749C23.6782 20.5115 23.2633 20.4865 22.8685 20.5138Z" fill="black"/>
<path d="M24.1703 26.6022C22.7115 26.6879 21.5853 25.8499 21.2485 24.4295L21.2383 24.3888C21.0986 23.8029 21.3262 23.0016 21.6385 22.5062C22.112 21.7551 22.9654 21.3686 23.8267 21.3145C25.0345 21.2819 26.1027 22.0225 26.5462 23.1447L26.5857 23.2461C27.1459 24.8979 25.7972 26.4331 24.1703 26.6022ZM23.6993 22.5062C23.1666 22.6375 22.708 22.8897 22.481 23.4139L22.462 23.4565C22.3604 23.6869 22.3294 24.1925 22.4257 24.4274L22.4631 24.5029C22.6915 24.953 23.1008 25.3264 23.6137 25.4079L23.6519 25.4141C23.839 25.4431 24.0281 25.4356 24.2165 25.4258C26.1566 25.1511 25.8447 22.3039 23.6993 22.5062Z" fill="black"/>
</svg>
