<svg width="48" height="48" viewBox="0 0 48 48" fill="none" xmlns="http://www.w3.org/2000/svg">
<path d="M41.6518 33.9162C40.5819 33.919 39.5367 33.5976 38.5287 33.2647L36.7553 32.6395C34.9841 31.9279 33.2593 31.0208 31.622 30.0436L30.152 29.1303C29.7656 28.874 29.4005 28.5755 28.9886 28.3609L28.6595 28.9608C27.5757 30.7334 26.0635 30.9476 24.2231 30.9476C21.901 30.9475 20.2536 30.6878 19.2273 28.2708C16.2106 30.2774 12.9924 32.1165 9.54879 33.2798C8.26784 33.7125 6.5493 34.3491 5.30726 33.5668C4.57152 33.1034 4.3949 32.3617 4.16318 31.5918L3.63832 29.911C3.18928 28.5307 2.5526 27.1795 2.37111 25.7258C2.34865 25.5459 2.35798 25.3485 2.31287 25.1739L2.29032 25.0902C2.03915 23.7262 2.44147 21.0962 2.88938 19.8583L3.38256 18.6761L4.18324 16.2904C4.31387 15.8505 4.41743 15.3728 4.68651 14.9917L4.71373 14.9534C5.11113 14.3884 5.81144 14.0246 6.4991 13.9784L6.52123 13.9734C7.27413 13.8908 8.08999 14.2366 8.7971 14.4629C12.538 15.6605 16.0606 17.4048 19.3154 19.5989L19.6197 18.9326C20.1255 18.0181 21.0146 17.284 22.0279 17.0042C22.8302 16.7827 25.1001 16.7706 25.9306 16.9665C27.1714 17.2592 28.3988 18.319 28.7161 19.5628L31.9741 17.6634L37.195 15.1913L38.265 14.8034C39.0049 14.5302 40.2495 14.0795 41.0412 13.9853L41.0759 13.9815C42.1951 13.8469 43.2371 14.6097 43.6191 15.6381C43.6904 15.8301 43.7271 16.0376 43.7989 16.2279L44.0429 17.0394C44.0535 17.0802 44.061 17.1172 44.0765 17.1566L44.1339 17.3206C44.5876 18.9122 45.3814 20.2486 45.6194 21.9353C45.8503 23.5718 45.7685 25.2662 45.3821 26.8724L43.5578 32.5405C43.3065 33.1036 42.8334 33.5326 42.2664 33.762L41.6518 33.9162ZM6.68159 15.5032C6.26754 15.5466 5.93065 15.7077 5.80423 16.1341L4.05263 21.1651C3.55435 22.5687 3.67926 25.0902 4.04343 26.5198L4.23047 27.1614C4.34582 27.536 4.5109 27.8913 4.65616 28.2542L5.89844 32.0434C6.45452 33.4874 13.2943 29.9998 14.2939 29.4756C15.7809 28.6961 17.1542 27.7324 18.5828 26.8576L19.9435 26.0322C20.2336 25.8615 20.2424 25.9334 20.246 25.5983C20.2485 25.3638 20.2744 25.0796 20.2316 24.8505L13.1902 26.5232C12.3307 26.7053 11.4674 26.9691 10.5944 27.0739C9.59937 26.9101 9.55779 25.7128 10.4179 25.5114L15.9254 24.3464C16.4665 24.2319 17.0098 24.0682 17.5553 23.9822L11.2207 22.6651C10.9158 22.6092 10.5641 22.563 10.273 22.4576C9.44196 22.1568 9.76019 20.8725 10.5895 20.9634C10.97 21.0051 11.3499 21.1026 11.7242 21.182L20.2089 22.8827L20.219 22.0616C19.9936 21.9591 19.8116 21.8155 19.6128 21.6711L17.1801 20.0678L13.6459 18.134C11.9291 17.3029 10.1752 16.5894 8.36684 15.9824L7.30432 15.6371C7.10299 15.5787 6.89182 15.5144 6.68159 15.5032ZM41.2423 15.5477C40.2098 15.6946 39.1631 16.1278 38.2075 16.5245L32.5935 19.141L29.4497 21.029C29.18 21.2116 28.9066 21.4831 28.6177 21.6235C28.4286 21.7154 28.4756 21.8964 28.4744 22.0749L28.4796 22.752C29.1379 22.6342 29.7555 22.5026 30.4214 22.3925L36.1871 21.2511C36.6257 21.1627 37.3976 20.8898 37.8332 21.0393L37.8712 21.0521C38.1737 21.1572 38.3087 21.3572 38.3734 21.6547L38.3791 21.6794C38.5287 22.3709 37.6744 22.5213 37.201 22.6162L32.7887 23.5291C32.1155 23.666 31.4294 23.8036 30.7687 23.9928C30.8786 24.0315 30.9873 24.0734 31.1012 24.0981L37.2778 25.3933C37.7024 25.495 38.0383 25.5363 38.188 26.0312L38.1972 26.0593C38.405 26.7336 37.7837 27.0344 37.1957 26.9707L28.712 25.1605C28.6314 25.1408 28.5368 25.1051 28.4544 25.1026L28.4644 25.8037C28.4653 25.9109 28.4449 26.0549 28.4844 26.1522L28.5093 26.1564C28.7259 26.1997 28.9518 26.4247 29.1304 26.5535L30.134 27.2656C31.5271 28.2049 32.947 29.0722 34.4279 29.8668L35.4752 30.3817C36.4124 30.8369 37.3897 31.2624 38.3786 31.5949L40.8178 32.2736C42.1366 32.5591 42.1278 32.068 42.46 30.9459L42.9413 29.3743C43.3699 28.0565 44.013 26.7292 44.1567 25.3374C44.3136 23.8181 44.2975 22.3527 43.8629 20.8829C43.6195 20.0593 43.2164 19.2805 42.9307 18.4697L42.3997 16.8167C42.1734 16.0936 42.1378 15.5034 41.2423 15.5477ZM23.3347 18.4032C22.0007 18.4944 21.0935 18.9345 20.651 20.3441L20.6641 20.4027C20.8491 20.5102 20.9978 20.3813 21.1715 20.306C21.9278 19.9783 22.4868 19.9647 23.2848 19.9645L24.5579 19.9647C25.1744 19.9604 25.7394 19.9357 26.3462 20.047L27.3596 20.2748C27.0446 18.7892 25.8244 18.4006 24.4856 18.4013L23.3347 18.4032ZM22.4858 21.4528C22.2592 21.5789 22.0706 21.6983 21.8106 21.7628L21.7864 26.2775C22.1834 26.5116 22.8671 26.4576 23.3108 26.4582L25.6517 26.4575C25.8323 26.457 26.0381 26.4681 26.2159 26.4363L26.8641 26.249C26.9532 25.8368 26.9121 25.352 26.9123 24.9308L26.9142 22.2256C26.9145 22.0027 27.0161 21.5759 26.6735 21.6214L26.6003 21.6348C26.3325 21.6807 26.1413 21.4859 25.8885 21.4688C25.6395 21.452 25.3806 21.4678 25.1303 21.4688L22.9134 21.4675C22.7711 21.4633 22.6274 21.4391 22.4858 21.4528ZM20.7429 27.4573L20.5888 27.6203C21.0749 28.4926 21.2476 28.8933 22.3208 29.2911L22.3554 29.3042C22.6083 29.3962 22.907 29.3908 23.1732 29.3917L24.0887 29.3933C25.2048 29.3941 26.3117 29.4908 27.0869 28.4976C27.3405 28.1901 27.5405 27.8851 27.6432 27.4962C26.4867 28.1267 25.2786 28.0068 24.0059 28.003C23.0078 28 22.1204 28.0854 21.1938 27.6345C21.0647 27.5717 20.8928 27.4172 20.7429 27.4573Z" fill="black"/>
</svg>
