<svg width="48" height="48" viewBox="0 0 48 48" fill="none" xmlns="http://www.w3.org/2000/svg">
<path d="M6.64036 35.4353L6.50377 35.417C4.50508 35.1593 3.24669 32.1632 2.70656 30.5272C1.81303 27.8206 1.40914 25.2019 1.59191 22.3475L1.70686 21.3095C1.79725 20.5088 1.99355 19.5138 2.19901 18.7446L2.88117 16.242C3.24014 14.7586 3.67635 14.1455 5.10923 13.4071C6.62325 12.6269 7.33172 12.5263 8.83298 13.1814L12.6678 14.7185C14.0694 15.3022 15.4706 15.9994 16.711 16.8812L19.373 19.0102C19.7612 19.3086 19.7071 19.1779 20.1548 19.3244L20.6717 19.4996C21.2128 19.7019 21.7287 19.6799 22.3022 19.6811L24.7393 19.6822C25.1467 19.6822 25.5895 19.6469 25.9907 19.701C26.0572 19.7099 26.1714 19.5949 26.232 19.5584C26.5743 19.352 27.0988 19.1576 27.4857 19.1264C28.134 19.074 27.8423 19.2802 28.3705 18.8172C29.0333 18.2364 29.6966 17.6299 30.4122 17.1145C32.8016 15.3935 34.9165 14.5782 37.6598 13.5689L39.4784 12.9256C39.9831 12.7592 40.4618 12.5881 40.9969 12.5489C43.0319 12.1795 44.4837 14.8019 45.0937 16.3357C45.4089 17.1285 45.2221 17.8941 45.6199 18.8587L45.894 19.5905C47.2949 23.7988 46.2039 30.7276 43.1066 34.1215C41.7356 35.6238 41.0923 35.546 39.2811 34.9734L35.2071 33.7507C32.8726 32.9276 29.7773 31.0437 28.0584 29.1577C27.5795 29.2651 26.9215 29.241 26.4862 29.0058C26.4322 28.9767 26.3941 28.9525 26.3303 28.9514L22.0674 28.9642C21.5082 28.9567 21.5592 28.946 21.0253 29.1363C20.5826 29.2942 20.0002 29.3039 19.5475 29.1802C19.5184 29.1723 18.8563 29.7689 18.7695 29.8441C17.046 31.3366 15.1063 32.611 12.9725 33.4385L8.66677 34.9578C7.80276 35.2865 7.58133 35.4441 6.64036 35.4353ZM41.07 13.9737C40.5601 14.0847 40.0705 14.257 39.5781 14.4276L37.9892 14.989C35.3814 15.939 32.9047 16.9645 30.7191 18.7201C30.2284 19.1143 29.7851 19.5448 29.3257 19.9729C29.7309 20.4759 30.0932 21.0687 30.1975 21.7176L31.9396 21.3817L34.453 20.9304C35.7899 20.6907 37.1143 20.4924 38.391 20.0032C39.3139 19.6496 40.1277 19.1117 41.0038 18.6673C41.9302 18.1974 42.9078 17.9258 43.9245 17.7352C43.8446 16.9492 43.5954 16.3757 43.2028 15.6963C42.7012 14.8284 42.201 13.931 41.07 13.9737ZM7.16034 14.2099C6.51839 14.3172 5.92116 14.6012 5.36798 14.9375C4.78158 15.294 4.54053 15.5858 4.36871 16.2495L4.18529 16.9608C4.14718 17.1348 4.08288 17.3115 4.06447 17.4884C5.52727 17.8945 5.98008 18.2675 7.19681 19.0235C8.43727 19.7942 9.86142 20.2312 11.2749 20.5559L15.7439 21.5032L17.6718 21.949C17.7988 21.2608 17.9217 20.646 18.3304 20.0551C15.6294 17.4194 12.662 16.2597 9.22214 14.9147L8.06958 14.4495C7.79348 14.339 7.46756 14.1556 7.16034 14.2099ZM3.62453 18.8724C3.07625 20.7213 2.98469 22.1266 2.96944 23.9935C2.96527 24.5039 2.94315 25.0594 3.0261 25.5629L3.36706 27.648L3.75877 29.1824C3.78622 29.2924 3.83854 29.5598 3.92564 29.6256C5.82061 29.3635 7.36734 27.9655 9.06061 27.1537C9.92784 26.738 10.8465 26.4922 11.7692 26.2404L13.1664 25.8701L17.5502 24.9257L17.5516 23.3591L13.1055 22.4311C10.8045 21.9611 8.51602 21.5204 6.48727 20.2755C5.27095 19.5291 5.00433 19.3037 3.62453 18.8724ZM44.0785 19.1781C43.2713 19.3078 42.442 19.5872 41.7069 19.9442L39.3514 21.1754C38.0047 21.8 36.5117 22.0778 35.058 22.3194L31.88 22.8692C31.4323 22.9573 30.9462 22.9897 30.5131 23.1257L30.4802 23.1357C29.9134 23.317 30.1282 24.1384 30.1579 24.5645L30.1706 25.165C30.2 25.2122 30.2912 25.2257 30.3452 25.2386L34.3416 26.1912C35.0767 26.3859 35.829 26.4962 36.5703 26.6622C38.2372 27.0353 39.1253 27.5251 40.5715 28.3462C41.649 28.958 42.7913 29.3806 44.0085 29.6125C44.9377 26.8319 45.2021 23.4626 44.6109 20.5662C44.5145 20.0939 44.3712 19.6412 44.2381 19.1792C44.1854 19.159 44.133 19.1714 44.0785 19.1781ZM27.6841 20.5377L27.3529 20.6225C27.9949 21.7036 28.1102 21.9611 28.112 23.2454L28.0967 26.7814C28.0833 27.017 28.0196 27.2498 28.0025 27.4897C28.2116 27.424 28.3379 27.356 28.4819 27.1902C28.8647 26.631 28.9078 26.2097 28.816 25.5687L28.7258 24.8121C28.6816 24.406 28.6792 23.9889 28.6856 23.581C28.6916 23.2031 28.9537 22.9069 28.9582 22.5512C28.9657 21.9619 28.3944 20.5638 27.6841 20.5377ZM19.6692 20.7068C19.0981 21.0153 19.002 22.5103 18.9872 23.0813L18.9533 24.6505C18.9755 25.6001 19.0212 26.529 19.587 27.3386C19.6722 27.4284 19.8522 27.6248 19.9701 27.6455L19.9479 20.7202C19.8849 20.6778 19.7632 20.6908 19.69 20.7025L19.6692 20.7068ZM21.3536 21.1209L21.3508 26.6292C21.352 26.9092 21.3413 27.2276 21.3949 27.5016L25.9855 27.4905C26.1555 27.4904 26.3346 27.504 26.5017 27.4728L26.5378 27.2858L26.6969 26.3341C26.7369 26.1666 26.7271 25.9683 26.7292 25.796L26.7314 23.5637C26.7292 22.871 26.716 21.702 26.045 21.2874L25.9445 21.2303C25.5278 21.0082 24.5829 21.1206 24.1155 21.1204L21.3536 21.1209ZM17.5947 26.3787L12.4252 27.5712C11.0772 27.9391 9.80948 28.3028 8.60123 29.0263C7.25751 29.8309 5.97698 30.8234 4.36292 31.0077C4.78134 31.885 5.18147 32.6807 5.81658 33.4282C6.03966 33.6587 6.28219 33.8813 6.60923 33.9419L6.64214 33.9482C7.38389 34.0853 8.18255 33.5643 8.86294 33.3352L11.1561 32.5313C13.9057 31.5546 15.5606 30.6956 17.8338 28.7236C18.0479 28.5379 18.2829 28.3545 18.4781 28.1499C18.0054 27.5079 17.9402 27.1094 17.6881 26.3742L17.5947 26.3787ZM30.2486 26.7068C30.1101 27.3625 29.8144 27.9464 29.3241 28.4076C32.81 31.5216 34.7094 32.1367 38.9484 33.3572L39.7877 33.6356C40.7394 33.9888 41.1472 34.1027 41.9206 33.2877C42.5773 32.5942 43.103 31.8436 43.511 30.9796C42.2731 30.6746 41.3081 30.3786 40.1634 29.7704C38.8698 29.083 38.1445 28.5646 36.694 28.1961L30.8038 26.843C30.6527 26.8018 30.3955 26.6895 30.2486 26.7068Z" fill="black"/>
</svg>
