<svg width="48" height="48" viewBox="0 0 48 48" fill="none" xmlns="http://www.w3.org/2000/svg">
<path d="M11.6981 34.739C11.4161 34.7038 10.276 34.3739 10.2615 34.3749C10.117 34.3851 9.93072 34.4616 9.78367 34.4927C9.46497 34.5599 9.16863 34.5713 8.8435 34.571C6.50683 34.5687 5.11994 32.9724 4.31215 30.9551L3.58783 29.0388C3.16094 27.8622 2.69427 26.6966 2.56128 25.4418C2.46218 24.5069 2.34875 23.5251 2.48073 22.5914L2.57448 21.7407C2.69515 20.8573 2.87804 19.9161 3.23511 19.0925L4.27263 16.7266C5.16189 14.7918 7.08691 12.5992 9.4195 13.6991C9.47444 13.7249 10.4452 13.2294 11.1235 13.144C14.1747 12.7595 17.6757 15.3396 19.8061 17.4423L20.517 18.2023L20.8316 18.0021C21.4346 17.6786 22.0049 17.5658 22.6752 17.5618L23.651 17.5597C24.3341 17.5588 25.0418 17.5206 25.7224 17.5709C26.5646 17.6331 26.8336 17.92 27.4948 18.1984L27.9702 17.6736C28.4035 17.205 28.8989 16.7893 29.3838 16.376C31.2329 14.8001 33.535 13.2003 36.0554 13.1137C36.8664 13.0512 37.7305 13.3139 38.4353 13.6982C38.4949 13.7307 38.5501 13.6896 38.6123 13.672L39.0936 13.5365C39.8248 13.3524 40.5204 13.466 41.2127 13.7569C42.3825 14.2485 43.0178 15.4784 43.6172 16.5195C44.0914 17.343 44.5785 18.2173 44.7976 19.1517C44.8064 19.1894 44.8144 19.224 44.8273 19.2607L45.1192 20.2905C45.3336 20.9719 45.4305 21.884 45.4778 22.5889L45.5348 23.1911C45.6528 25.8249 44.8855 28.3902 43.8234 30.7739C43.1267 32.3376 42.4172 33.6315 40.6939 34.2975C40.062 34.5417 39.1027 34.6749 38.4156 34.548L37.9021 34.433C37.7305 34.392 37.7132 34.3778 37.5497 34.4367L37.137 34.5714C35.5826 35.0064 34.3054 34.5896 32.9442 33.8879C30.7584 32.7613 29.2694 31.5198 27.5118 29.8105L26.8374 30.1085C26.267 30.3064 25.7346 30.3275 25.141 30.3269L22.821 30.3275C21.9989 30.3272 21.2208 30.2272 20.4683 29.8564L18.5077 31.6535C17.547 32.4467 16.5026 33.0812 15.4171 33.6852C14.2271 34.3472 13.0968 34.8711 11.6981 34.739ZM11.7054 14.4478C9.59519 14.6511 8.83544 15.7596 8.113 17.5544L7.4177 19.3415L6.86181 21.2741C6.33592 23.16 6.727 25.7894 7.36127 27.5856L8.62839 31.1265C8.68572 31.3033 8.79859 31.4804 8.89895 31.6362C9.80974 33.049 11.5218 33.7365 13.1599 33.254C15.5145 32.5604 18.166 30.324 19.8625 28.4827L20.2211 28.0957C20.2983 28.0202 20.3936 27.9527 20.4593 27.8676C19.5302 27.1244 19.5232 26.8499 19.0182 25.9461L15.2243 27.5122L13.3705 28.282C12.9152 28.4619 12.355 28.6675 12.1177 28.0661C11.9427 27.6229 12.244 27.2517 12.6473 27.1085L18.8909 24.5707L18.8844 23.2881C18.7517 23.2307 18.6152 23.1973 18.48 23.1474L12.945 20.9566C12.6583 20.8388 12.2355 20.7272 12.1199 20.4021C11.928 19.8626 12.3952 19.3553 12.9537 19.5254C13.4572 19.6788 13.9485 19.9294 14.4361 20.1303L17.3851 21.2926C17.6872 21.411 18.6764 21.766 18.8933 21.918C18.8764 20.9256 19.0332 19.973 19.5795 19.1299C19.3924 18.9626 19.229 18.7754 19.0527 18.5974L17.9806 17.5581C16.5624 16.3029 13.739 14.3219 11.7411 14.4452L11.7054 14.4478ZM36.1248 14.4481C33.5182 14.6301 30.3798 16.9518 28.6765 18.9099L28.4441 19.1706C28.4847 19.2871 28.5614 19.395 28.6182 19.5047C29.0037 20.248 29.0585 21.0499 29.1202 21.8666C29.7427 21.6875 30.3347 21.4029 30.9351 21.1629L34.5573 19.703C35.0327 19.5113 35.5931 19.2675 35.8668 19.8735L35.8787 19.8987C35.9328 20.018 35.9354 20.2619 35.885 20.3809L35.812 20.5092C35.5602 20.906 34.3933 21.2076 33.96 21.3892L29.4431 23.1923C29.3927 23.2101 29.1498 23.246 29.132 23.2726C29.1046 23.3134 29.1287 24.5196 29.1385 24.5986C29.2377 24.6684 29.3417 24.661 29.4507 24.7019L35.1805 27.0311C35.4738 27.1597 35.832 27.2703 35.904 27.6325C36.0052 28.1419 35.5874 28.5904 35.082 28.4428C34.7641 28.35 34.4389 28.179 34.1331 28.0496L32.5603 27.4119L28.931 25.9394C28.7585 26.7001 28.1882 27.3795 27.5666 27.8211C27.8844 28.1313 28.1534 28.4856 28.4454 28.8197C29.7118 30.2685 32.9061 32.742 34.863 33.2777C36.5707 33.7452 38.4788 32.908 39.2687 31.3119C39.5728 30.6974 39.7568 30.0057 39.9741 29.3559C41.5793 24.556 41.9335 22.8715 39.983 17.9518C39.2087 15.9987 38.4774 14.5523 36.1248 14.4481ZM7.99244 14.8005C7.80124 14.8239 7.63413 14.8635 7.45422 14.9358L7.41597 14.9509C6.09325 15.4908 5.43452 17.4754 4.88819 18.6954L4.36451 19.7869C4.1859 20.2085 4.08444 20.6456 4.00046 21.0935L3.84599 21.9372C3.71591 22.8594 3.63997 24.3944 3.87002 25.3314C4.06884 26.1413 4.11829 26.6489 4.41674 27.5031L5.55095 30.477C6.06194 31.5658 6.17594 32.1307 7.36924 32.8385C7.71508 33.0252 8.09734 33.1859 8.49227 33.2178C7.62522 32.4276 7.31744 31.3638 6.92116 30.3002C4.80874 24.6311 4.73884 22.1608 7.02583 16.6561C7.27314 16.0608 7.54174 15.5309 7.94336 15.0223C7.98367 14.9712 8.10119 14.8495 8.08525 14.7948L7.99244 14.8005ZM39.9253 14.8005L39.8488 14.8239C40.2141 15.3238 40.3785 15.5294 40.6707 16.1302L41.3935 17.8825C41.4864 18.0907 41.5776 18.3096 41.6447 18.5271L41.6746 18.6091C42.6448 21.3148 42.8993 23.647 42.2384 26.506C41.9324 27.83 41.476 29.1479 41.0178 30.4264C40.6209 31.5337 40.3509 32.3881 39.4854 33.2317C39.9266 33.1491 40.2464 33.0367 40.6507 32.8213C41.7548 32.1511 42.0891 31.3996 42.6032 30.2374L43.2061 28.8509C44.897 24.4368 44.5315 20.5562 42.1121 16.5748C41.6908 15.8814 40.8732 14.6963 39.9253 14.8005ZM22.4409 18.9195C21.2092 19.0273 20.6413 19.7695 20.286 20.8591C20.1907 21.1515 20.2337 21.5483 20.2331 21.8552L20.2317 23.3571C20.2315 24.0606 20.0891 25.0666 20.3657 25.7224C20.9675 27.1493 22.0761 27.1891 23.4509 27.1898L25.5843 27.1901C27.0434 26.9092 27.7652 26.1323 27.7685 24.6792L27.7698 22.0483C27.7692 21.7077 27.8001 21.3353 27.7334 21.0018C27.5296 19.9824 26.8181 19.11 25.7612 18.9286C25.5466 18.8917 25.2998 18.9152 25.0803 18.915L22.8474 18.918C22.7171 18.9182 22.5694 18.9043 22.4409 18.9195ZM26.3325 28.4079C25.9108 28.5344 25.5855 28.569 25.1505 28.5681L24.158 28.565C23.5393 28.5633 22.908 28.5962 22.2909 28.5644C21.6225 28.5298 21.9447 28.1835 21.361 28.7301L21.6985 28.8626C22.1354 28.9727 22.3581 28.9876 22.8114 28.9868L25.1502 28.9866C25.6745 28.9875 26.1523 28.9773 26.6368 28.736C26.5725 28.6242 26.4991 28.4595 26.3786 28.4014L26.3325 28.4079Z" fill="black"/>
</svg>
