<svg width="48" height="48" viewBox="0 0 48 48" fill="none" xmlns="http://www.w3.org/2000/svg">
<path d="M8.51386 36.3479L8.42157 36.3665C6.77635 36.6135 5.0641 35.5298 4.81097 33.8322C4.72979 33.2878 4.83971 32.7632 4.85204 32.2242C4.86029 31.8649 4.65577 30.4931 4.44889 30.195C4.39198 30.113 4.16486 30.0122 4.07618 29.9414C3.74195 29.6746 3.72055 29.157 3.64888 28.767L3.03563 25.9131C2.56121 23.4581 2.9205 21.3432 3.6286 18.9801C3.77726 18.484 3.87529 17.8333 4.30648 17.4896C4.36522 17.4427 4.478 17.3875 4.51627 17.3264L4.53171 17.2922C4.91335 16.4719 4.81636 15.5878 4.72158 14.7256C4.51555 12.8516 5.65988 11.2638 7.65338 11.2687C8.75883 11.2715 9.92143 11.8241 10.9097 12.2722C13.9724 13.6608 17.0291 15.69 19.3368 18.1711C19.4027 18.1562 19.4668 18.0984 19.5233 18.0611L19.8582 17.8635C20.7713 17.3731 21.6306 17.3179 22.6541 17.3223L24.2134 17.3258C25.6408 17.3243 26.9774 17.1806 28.2675 17.8958L28.6387 18.1151C28.6757 18.1394 28.7657 18.2361 28.801 18.2003L29.2784 17.7001C31.8461 15.1091 34.1935 13.2904 37.5676 11.9645C38.3195 11.6691 39.1264 11.3412 39.9363 11.2601C41.2992 11.0729 42.6512 11.9264 43.1426 13.1925C43.5759 14.3086 43.0672 15.2412 43.2884 16.2072C43.3304 16.3904 43.4257 17.0976 43.5184 17.2267C43.5733 17.3032 43.6948 17.3394 43.77 17.3953C44.2025 17.7166 44.1203 18.1855 44.2657 18.6365L44.8296 20.2523C44.9856 20.6978 45.1901 21.1447 45.271 21.613L45.4915 22.9279C45.6384 23.6048 45.5436 24.9432 45.443 25.6325L45.2789 26.4846C45.0901 27.3748 44.7298 28.1758 44.3689 29.0041C44.1594 29.4851 44.0962 30.0016 43.4605 30.0745L43.4385 30.0768C43.2072 30.6888 43.0425 31.5452 43.1513 32.1892C43.2341 32.6786 43.3131 33.5643 43.1645 34.0493C42.6309 35.7908 41.3633 36.4914 39.6567 36.3615L39.5852 36.3558C39.3186 36.3279 39.031 36.249 38.773 36.178L37.4562 35.7541C34.18 34.5709 31.3718 32.5114 29.0813 29.9167L28.567 29.2796C28.4513 29.2561 28.2687 29.4178 28.1641 29.4697C26.9936 30.0509 26.4415 29.9611 25.2707 29.9204L23.8965 29.9055C23.6472 29.9014 23.3552 29.867 23.1132 29.9291C22.2025 30.1627 20.6213 29.8252 19.8288 29.3926C19.5783 29.2558 19.6139 29.1646 19.4165 29.3686L18.3223 30.5709C15.7414 33.2757 12.2432 35.6149 8.51386 36.3479ZM7.60271 12.9251C7.14394 12.979 6.6668 13.2014 6.46285 13.6408L6.44246 13.6839C6.2288 14.14 6.38747 14.6077 6.43093 15.0695C6.50771 15.8851 6.41316 16.6337 6.26091 17.4358C9.47874 17.6956 12.5584 18.7564 15.4928 20.0625L16.9081 20.74L17.4214 20.995C17.5614 20.4168 17.8117 19.8482 18.146 19.3556C17.891 19.0147 17.543 18.7202 17.2316 18.4296C15.0413 16.3858 12.4052 14.6883 9.63329 13.5481C9.04083 13.3043 8.39841 13.0289 7.76143 12.942L7.60271 12.9251ZM40.2719 12.9246C38.9824 13.0122 36.5303 14.1748 35.4218 14.8225C34.6407 15.2789 33.9262 15.828 33.2251 16.3965L30.2593 19.0942C30.1706 19.1876 30.0606 19.2751 29.9794 19.3731L29.9517 19.4096C30.1293 19.6821 30.2862 19.9554 30.4149 20.2546C30.5758 20.6288 30.6381 21.1142 30.8823 21.4406C31.015 21.3302 31.1533 21.2345 31.3043 21.1506C34.2256 19.4671 38.4497 17.6817 41.8211 17.284C41.6903 16.7447 41.6037 16.2036 41.6068 15.6475L41.6312 14.7863C41.6856 13.7702 41.5708 13.0189 40.2719 12.9246ZM42.535 18.926C39.6339 19.1101 36.2579 20.7193 33.6862 21.9688L30.8636 23.4032L30.8878 24.2447L34.609 26.0204C36.8515 27.0725 40.3543 28.2677 42.8916 28.3425L43.4334 26.9164C44.1705 24.6697 44.0107 23.0941 43.3005 20.8768L42.8699 19.6546C42.7787 19.4152 42.6619 19.1711 42.6017 18.9226L42.535 18.926ZM22.1175 18.9967C20.0923 19.1108 18.8506 20.514 18.9342 22.5386C18.9496 22.9114 19.1676 22.8254 19.1055 23.6107L19.0166 24.6818C18.8791 26.2912 19.5323 27.6134 21.1579 28.1673L21.352 28.2221C22.2196 28.4156 23.0357 28.2141 23.9067 28.2138L24.7267 28.2007C25.1679 28.207 25.5855 28.3231 26.0287 28.314C27.5026 28.2698 28.6749 27.2846 29.1036 25.8823C29.2922 25.2653 29.3557 22.926 29.2449 22.1955C28.835 19.4925 27.1675 18.7672 24.7354 19.1084C24.0688 19.2019 24.3169 19.2061 23.6654 19.1012C23.1756 19.0224 22.6148 18.9588 22.1175 18.9967ZM5.33733 19.0908C5.15325 19.5601 5.04994 20.0621 4.91972 20.5549C4.34209 22.7411 4.28228 24.5251 4.91175 26.6741L4.97668 26.9811C4.98268 27.0145 4.98999 27.0411 4.99955 27.0731C5.16516 27.6248 5.10896 28.2381 5.28689 28.7734C6.61149 28.8199 8.10652 28.3166 9.31829 27.7959L13.4369 25.7749C14.671 25.1648 16.0078 24.529 17.391 24.3722L17.3226 22.7869C17.209 22.725 17.0954 22.6939 16.9813 22.6392L15.9961 22.16C13.2882 20.865 10.3451 19.6881 7.35854 19.2362C6.68213 19.1338 6.018 19.1247 5.33733 19.0908ZM30.7789 26.0646C30.512 26.8434 30.2971 27.5183 29.7483 28.161C31.8661 30.7929 34.9884 33.144 38.1838 34.2339C38.9226 34.4859 39.8873 34.9051 40.6745 34.6226C40.981 34.4812 41.2065 34.2936 41.3867 34.008L41.4065 33.9771C41.7834 33.3736 41.4689 32.3862 41.4814 31.704C41.4922 31.1135 41.5742 30.4621 41.7306 29.892C41.4603 29.8333 41.1844 29.8204 40.9108 29.7858L40.2319 29.6651C38.467 29.3097 36.8115 28.8108 35.1494 28.1102L32.3208 26.7675C31.8092 26.5168 31.3185 26.254 30.7789 26.0646ZM17.3018 26.1169C16.1153 26.3308 14.9841 26.8791 13.9129 27.4122L10.1212 29.2896C9.2378 29.6779 8.29421 29.9907 7.35375 30.2072L6.22088 30.4291C6.36282 30.8743 6.46243 31.2964 6.4771 31.7636L6.45943 32.9238C6.41611 33.6331 6.46739 34.19 7.19579 34.5672L7.31443 34.6216C8.14575 34.9329 10.0918 34.1974 10.9385 33.8139C14.1061 32.3787 16.0945 30.67 18.2888 28.0915C17.9049 27.5992 17.6247 26.9744 17.4635 26.3713C17.4423 26.2921 17.4249 26.1448 17.3559 26.1079L17.3018 26.1169Z" fill="black"/>
</svg>
