<svg width="48" height="48" viewBox="0 0 48 48" fill="none" xmlns="http://www.w3.org/2000/svg">
<path d="M43.3333 41.6046L43.1941 41.6029C41.266 41.5476 38.8934 39.9865 37.3825 38.9263L35.7021 37.6817L32.7734 35.1027L30.1169 32.3085C29.7264 31.8749 29.3301 31.3977 28.9844 30.9278L28.7143 30.5451C28.6439 30.4362 28.5701 30.2982 28.4823 30.2051C27.6986 31.3475 26.7888 31.48 25.5551 31.4805L22.2239 31.4799C20.78 31.4785 20.4814 31.371 19.4359 30.299L18.959 30.9891C18.1108 32.0658 17.1733 33.0823 16.2173 34.0624L14.2377 36.0232C12.3133 37.7906 9.5953 39.8997 7.19417 40.9335C4.32659 42.1682 3.06705 41.7378 1.89308 39.0049C1.38122 37.8134 1.00045 36.6184 0.843291 35.3277C0.570914 33.0908 0.962321 31.0364 2.17048 29.1167L2.60725 28.4792C2.73894 28.2953 2.88621 28.1152 3.00787 27.9256L3.01648 19.9207C3.0128 19.4926 2.75918 19.3614 2.45158 18.991C0.0104697 16.0518 0.584452 12.3123 1.88045 9.00608C2.38464 7.71987 2.94015 6.55855 4.46155 6.31203L5.0856 6.30458C6.11342 6.35544 7.57874 7.20931 8.43397 7.72109L9.78378 8.54637C12.527 10.3498 15.054 12.5549 17.3078 14.9365L20.2993 18.2872C20.3608 18.3055 20.4763 18.2342 20.541 18.2109L21.006 18.0692C21.2047 18.0063 21.4126 18.0183 21.6186 18.0179L25.9688 18.0173C26.6271 18.0183 26.9758 18.0323 27.5852 18.3456C27.648 18.3354 27.7833 18.1385 27.831 18.0846C29.8543 15.8027 31.9209 13.5409 34.2301 11.5422L36.7402 9.55986C38.1315 8.53067 40.6389 6.90139 42.3114 6.43353C44.2263 5.89784 45.2596 6.99847 45.9489 8.66328L46.604 10.3495C46.8703 11.0277 47.0795 12.1627 47.1475 12.8783L47.1733 13.4062C47.3875 15.8227 46.8972 17.3853 45.2983 19.2811L45.0709 19.5462C44.9646 19.6685 44.9761 19.6805 44.9729 19.8468L44.9694 27.1257C44.9692 27.9787 44.8899 27.7955 45.379 28.4531C47.0228 30.6635 47.4573 32.9352 47.1203 35.6741C46.9914 36.7198 46.6425 37.7294 46.2355 38.6952C45.7248 39.9071 45.01 41.5262 43.4734 41.5996L43.3333 41.6046ZM43.1517 7.74434C42.1649 7.84737 40.8695 8.60684 40.0426 9.11628C37.403 10.7426 35.0632 12.635 32.8616 14.8161L31.55 16.1391L28.8262 19.215C28.6716 19.4065 28.6794 19.4287 28.8145 19.6207L32.1251 17.7113L33.6559 16.852C35.1082 16.027 36.8608 15.1092 38.5733 15.0258C38.8754 15.011 39.2156 15.0756 39.5061 15.0117C41.4065 14.5932 43.246 14.5741 44.4491 16.3969C44.6593 16.7153 44.7405 17.0612 44.8819 17.4076C45.5383 16.501 45.7718 15.4641 45.7728 14.3711C45.7744 12.7207 45.4369 11.2535 44.839 9.722C44.5577 9.00167 44.2448 7.9347 43.3723 7.76572L43.1517 7.74434ZM4.61709 7.76286C4.50966 7.78522 4.41821 7.81536 4.31781 7.85909L4.29315 7.8695C3.83913 8.06722 3.61745 8.58167 3.43609 9.00537L3.09307 9.8554C2.47879 11.4676 2.22321 12.7114 2.22753 14.4282C2.2287 14.8909 2.21792 15.3868 2.38133 15.8273L2.53864 16.3356C2.64504 16.7168 2.86541 17.1163 3.08855 17.443C3.41018 16.3834 3.85736 15.7292 4.86964 15.1827C5.76125 14.7013 7.45358 14.7838 8.43149 15.0942C8.87952 15.2363 8.69999 15.2233 9.19222 15.1578C10.3371 15.0052 11.8067 15.7651 12.8136 16.2252L15.8094 17.6901L18.4209 19.0703C19.451 19.6295 19.211 19.3441 18.6541 18.6562L15.285 14.9507C13.0134 12.6874 10.4959 10.6124 7.72846 8.9832C6.94733 8.52336 5.56546 7.63789 4.61709 7.76286ZM41.1449 16.2286L40.1866 16.3457C40.4773 17.0378 40.4732 17.7188 40.4735 18.4502L40.4723 29.9408C40.4717 30.9074 40.4668 31.0535 40.042 31.9633L41.3115 31.9318C41.5356 31.9195 41.7925 31.9144 42.0058 31.8402C43.7541 31.2861 43.5183 29.7512 43.5186 28.3341L43.5178 18.8907C43.5176 18.5116 43.5707 18.065 43.4517 17.7028C43.1695 16.8441 42.5365 16.3504 41.6639 16.2345C41.5332 16.2171 41.2708 16.1945 41.1449 16.2286ZM6.10044 16.3179C5.26986 16.4822 4.50484 17.0973 4.47695 17.9982L4.47865 29.9465C4.5393 31.2098 5.58364 31.8436 6.75411 31.9985C7.15325 32.0602 7.54391 32.0947 7.94896 32.0847C7.59266 31.3738 7.51935 30.7057 7.51841 29.933L7.51724 18.2242C7.51728 17.7163 7.47828 17.2376 7.64225 16.7493L7.75321 16.4275C7.20158 16.3493 6.6598 16.2747 6.10044 16.3179ZM38.6535 16.4648C37.8248 16.6562 37.004 17.0125 36.2384 17.378L35.2629 17.8394L29.2994 21.229C29.1603 21.3119 28.9908 21.3896 28.8727 21.499L28.875 27.59C29.1055 27.7658 29.3748 27.9059 29.6247 28.0531L31.905 29.3083C33.571 30.1758 35.2422 30.9745 37.0192 31.5936C37.4083 31.7292 37.8146 31.9068 38.2183 31.987C38.5623 31.5199 39.0031 31.1032 39.0169 30.4933L39.0186 18.9888C39.0183 18.1962 39.1303 17.3012 38.7603 16.5691L38.6535 16.4648ZM9.53502 16.6226C9.31241 16.7134 9.15842 16.8337 9.06121 17.063L9.00833 17.1798C8.93071 17.3342 8.97514 17.7054 8.97486 17.8863L8.97496 29.8547C8.9758 30.5761 9.03796 31.3376 9.53549 31.9039C11.4169 31.8274 13.087 30.7385 14.6826 29.8424C14.9824 29.674 15.2869 29.4486 15.597 29.3059L18.5477 27.5594C18.624 27.5174 18.7178 27.5041 18.7766 27.4378L18.7631 20.9413C18.6396 20.8427 18.4945 20.7928 18.3579 20.7133L16.6726 19.7968C14.8223 18.825 12.9796 17.8361 11.0417 17.0457C10.645 16.8839 10.021 16.5537 9.57786 16.6156L9.53502 16.6226ZM21.3027 19.5011C20.407 19.7188 20.2282 20.279 20.2258 21.0841L20.2273 28.1628C20.2613 29.0651 20.4996 29.7105 21.4439 29.9891C21.6715 30.0563 21.9913 30.0175 22.2318 30.0177L25.3768 30.0179C25.71 30.0176 26.0529 30.0344 26.3841 29.9991C27.6317 29.6044 27.4273 28.4538 27.4226 27.4217L27.4272 20.9352C27.4329 19.772 27.1908 19.5002 25.9346 19.4986L21.3027 19.5011ZM18.2754 29.4257C17.3151 29.9234 16.4077 30.5236 15.4801 31.0783L13.2485 32.2856C12.3462 32.7372 11.2878 33.2448 10.2661 33.3478C10.1399 33.3605 10.0119 33.3508 9.88602 33.3669L9.00655 33.4744C6.92371 33.6804 4.47047 33.4974 3.38797 31.415C3.23939 31.1292 3.10841 30.7769 3.07893 30.4568C2.24428 31.8747 1.95576 34.2216 2.37181 35.8069L2.60591 36.7917C2.64139 36.9476 2.69614 37.1406 2.75673 37.2887L2.90907 37.7059C2.97996 37.9378 3.10889 38.1838 3.21005 38.4065L3.64702 39.311C3.79433 39.5854 3.95784 39.8809 4.24078 40.0368L4.27441 40.0555C5.39192 40.6618 8.89124 38.363 9.75294 37.7535C12.4485 35.8468 14.9085 33.5377 17.03 31.0092L17.947 29.9016C18.06 29.7611 18.213 29.6051 18.3005 29.4483L18.2754 29.4257ZM30.0622 29.9671L30.9727 31.0975C32.8309 33.2483 35.2814 35.5979 37.5817 37.3086L38.4199 37.8857C39.5885 38.6971 41.1733 39.7099 42.5836 40.0503C43.8289 40.351 44.0758 39.8803 44.5795 38.8437C44.9017 38.1807 45.2029 37.4788 45.3995 36.7676C45.836 35.1223 45.9885 33.3394 45.474 31.6906C45.3378 31.2543 45.1358 30.8591 44.9612 30.4405C44.4466 31.9348 43.8489 32.8718 42.1597 33.3003L42.131 33.3079C41.8548 33.3797 41.551 33.3733 41.2673 33.3744L40.259 33.3766C39.7479 33.3777 39.3812 33.3721 38.8825 33.4594C38.2532 33.5696 37.6391 33.3224 37.052 33.1338C34.8522 32.4267 32.0968 31.1773 30.0734 29.9741L30.0622 29.9671Z" fill="black"/>
</svg>
