<svg width="48" height="48" viewBox="0 0 48 48" fill="none" xmlns="http://www.w3.org/2000/svg">
<path d="M36.1112 37.9583L34.018 36.8699C32.9546 36.2457 31.9713 35.5399 31.0158 34.7634L29.9801 33.876C28.2688 32.305 26.8817 30.5134 25.7305 28.493C25.2766 27.6964 24.7593 26.8585 24.4623 25.985L23.4763 25.9941L21.3758 29.8122C19.1059 33.28 14.0051 37.5162 9.92281 38.3608C9.48813 38.4507 8.96215 38.2165 8.84482 37.7571C8.78435 37.5203 8.83301 37.258 8.78473 37.0134C8.52621 35.7034 7.63193 34.8381 6.75884 33.8903C5.92259 32.9826 5.23109 31.6936 4.99188 30.4809L4.98677 30.454C3.39428 30.4005 2.94354 29.3165 2.52308 27.9198C2.26219 27.0531 2.12632 26.2139 2.04336 25.3154L1.97559 22.2974C1.98124 21.8594 2.03608 21.4023 2.09048 20.9674C2.21182 19.9974 2.88776 17.4452 3.88109 16.9725L3.91533 16.9567C4.49897 16.6833 4.89453 16.8673 5.46893 17.0031C5.78993 15.7331 6.25395 14.5263 7.18179 13.5692C8.17779 12.5418 8.5984 12.1015 9.17473 10.7719C9.40418 10.2426 9.48588 9.68196 10.1536 9.57129C10.5058 9.59126 10.8562 9.66743 11.2024 9.73451C15.8396 10.6328 19.4514 13.2237 21.8521 17.2193L22.6026 18.5078C22.7364 18.7429 22.8985 18.9802 22.9974 19.2323L23.0051 19.2529C23.5512 19.1566 24.1849 19.0707 24.7331 19.2059C24.9633 19.2626 24.9433 19.2814 25.0543 19.0714C27.2348 14.9478 29.8399 12.0611 34.3362 10.4103C35.0074 10.1639 37.5615 9.35918 38.1226 9.63555C38.3135 9.72963 38.4618 9.8757 38.5278 10.0821C39.1303 11.9647 39.4947 12.2749 40.8039 13.5302C41.3801 14.0826 41.7542 14.7661 42.0921 15.4802L42.5844 16.8615C42.6625 17.0598 43.0868 16.8144 43.2986 16.7927C44.6131 16.6577 45.1131 18.1943 45.4844 19.1752L45.6646 19.7799C46.0075 20.8045 46.0278 22.5941 46.0286 23.6532C46.0301 25.531 45.8524 27.2999 45.0348 29.033C44.5409 30.0799 44.1115 30.6494 42.8761 30.326L42.0074 30.0987L41.6546 31.2986C40.9472 33.3544 39.0415 35.0907 38.7214 37.0759C38.5579 38.0903 38.4784 38.7307 37.3113 38.4051C36.9 38.2904 36.4976 38.1401 36.1112 37.9583ZM37.3729 10.9266C33.6613 11.6914 30.1148 13.6035 27.9873 16.8171L26.4476 19.2751C26.3834 19.3831 26.0761 19.82 26.0936 19.913C26.6399 20.4931 26.8424 21.0964 26.8859 21.8953L29.272 21.0697L41.3697 17.3576C41.048 16.3135 40.6908 15.2767 39.8951 14.4872C38.8015 13.4019 38.2553 12.9913 37.6374 11.4442C37.5847 11.3121 37.5184 11.0165 37.4299 10.9233L37.3729 10.9266ZM10.5554 10.9373C9.73892 12.8989 9.26407 13.2196 7.94402 14.6874C7.29659 15.4073 6.92951 16.4742 6.71524 17.4026L18.8263 21.1479L21.0501 21.9641C21.0866 21.4843 21.1002 21.0667 21.2974 20.6186L21.3153 20.5774C21.4401 20.2959 21.6342 20.0824 21.8629 19.8822L20.2948 17.238C18.1512 14.0833 15.3536 12.0769 11.5984 11.1561L10.5554 10.9373ZM43.418 18.0817C43.1097 18.1326 42.7959 18.2487 42.5019 18.3541L36.8406 20.3824L34.6646 21.0434L31.2542 21.8457L27.5596 23.0416C27.581 23.0928 27.8815 23.2301 27.9432 23.2555L32.6235 25.4299L36.8259 27.062L41.8831 28.6905C42.4039 28.8482 42.9431 29.0092 43.4771 29.1139C44.5591 27.2399 44.7396 25.5462 44.7401 23.3859C44.7404 21.7513 44.6187 20.021 43.7979 18.5666C43.7288 18.4441 43.5823 18.0657 43.418 18.0817ZM4.50396 18.1213C3.90662 18.9615 3.573 19.8626 3.4287 20.8727C3.16351 22.7291 3.08183 27.4459 4.4476 28.9974C4.93578 29.5519 8.07738 28.4221 8.67077 28.2075L10.6186 27.4422L15.4377 25.1434L20.2667 23.3545C20.3925 23.3101 20.51 23.2528 20.6436 23.238C20.5074 23.0801 19.9826 22.9278 19.7875 22.8558L14.6475 21.124L7.15165 18.8523C6.27284 18.6111 5.39787 18.2989 4.50396 18.1213ZM23.6466 20.4929C22.865 20.6122 22.3843 21.0575 22.3815 21.8531L22.3804 23.408C22.3809 23.6208 22.3354 23.8433 22.4619 24.0274L22.5063 24.0934C22.6436 24.2954 22.9419 24.6319 23.2063 24.6711L24.3635 24.6792C25.4063 24.6838 25.5741 23.8882 25.5724 23.0066L25.57 22.1943C25.5668 20.9705 25.2454 20.5024 23.9299 20.5005C23.8362 20.5004 23.7393 20.4798 23.6466 20.4929ZM26.8128 24.1587C26.5725 24.781 26.3097 25.2326 25.735 25.6151C26.952 28.3918 28.6541 30.8657 30.88 32.9175L31.6216 33.5941C33.2208 34.9427 35.4349 36.3137 37.4116 37.0887C37.4808 36.478 37.656 35.9275 37.8893 35.361C38.83 33.2741 40.1878 32.1656 40.7217 29.7093C40.2402 29.5055 39.711 29.3775 39.2131 29.2158L36.3737 28.2767C33.6809 27.3784 31.067 26.236 28.5223 24.982L27.4313 24.4668C27.2282 24.372 27.0024 24.2777 26.8128 24.1587ZM21.2418 24.4257L15.6938 26.4743L13.5471 27.4689C12.468 28.0074 11.4078 28.5723 10.2862 29.0213L7.42142 30.0205C7.13257 30.1082 6.54288 30.1816 6.31779 30.282C6.47482 31.4637 7.34806 32.6055 8.12993 33.4496C8.56746 33.922 9.00879 34.3458 9.3394 34.9064C9.42387 35.062 9.52502 35.2253 9.59093 35.3882L9.76957 35.8087C9.9289 36.1693 9.9942 36.5756 10.0668 36.96C11.0445 36.7005 11.9604 36.2354 12.8449 35.7534C16.1353 33.9604 19.0366 31.2926 20.9234 28.0486L21.9662 26.0622C22.0381 25.9121 22.1517 25.7343 22.1877 25.5744C21.7271 25.2854 21.433 24.9352 21.2418 24.4257Z" fill="black"/>
</svg>
