<svg width="48" height="48" viewBox="0 0 48 48" fill="none" xmlns="http://www.w3.org/2000/svg">
<path d="M38.4166 35.1133C38.0163 34.9599 37.6689 34.7369 37.2924 34.538L33.3651 32.8235C30.8491 31.6066 28.6145 29.7638 27.0429 27.4438C26.7899 27.0703 26.5966 26.672 26.3671 26.2865L25.3551 26.6393C25.0505 26.7446 24.6723 26.7178 24.3525 26.719C23.3505 26.7226 22.6019 26.73 21.6689 26.3213L21.1207 27.1961C19.5686 29.6481 17.327 31.5023 14.7223 32.7728L10.771 34.5753C9.35268 35.3356 8.09315 35.7234 6.59305 34.6858L6.56273 34.6645C5.43543 33.8832 5.14363 32.6583 4.66689 31.4561C4.25558 30.4189 3.65958 29.3294 3.8178 28.1714C3.96353 27.1047 4.47043 26.2883 5.32213 25.6423L4.97315 25.4128C3.74467 24.5503 3.4952 23.3753 3.50934 21.994C3.53545 19.4435 4.04577 16.6842 4.82427 14.2752C5.3796 12.5569 6.09866 10.8395 8.10046 10.5309C9.04968 10.4599 9.74788 10.8855 10.6167 11.1794C13.6108 12.1922 16.6676 13.6154 19.0572 15.7109L20.537 17.0968C20.5752 17.0732 20.5611 17.0855 20.5905 17.0538L20.7725 16.8761C22.3118 15.5465 26.0268 15.4417 27.4192 17.1155L29.6717 15.0679C31.0791 13.9739 32.6915 13.0771 34.3209 12.3578L37.1187 11.2552C37.9735 10.9307 38.9189 10.4124 39.8607 10.5391C41.8918 10.8123 42.704 12.7176 43.1975 14.4727L43.3888 15.0821C43.5271 15.7177 43.7357 16.3577 43.8837 17.0274C44.2333 18.6096 44.4659 20.2017 44.4796 21.8269C44.4928 23.4044 44.2206 24.7501 42.7005 25.592L42.6652 25.6113C43.3161 26.1502 43.8695 26.753 44.0491 27.6126L44.0716 27.7072C44.4279 28.8695 43.8546 30.0291 43.4496 31.0896L42.9407 32.461C42.7497 32.966 42.5792 33.4627 42.2393 33.893C41.2798 35.1074 39.8837 35.5428 38.4166 35.1133ZM8.20045 12.2645C7.06251 12.4814 6.66276 14.0303 6.38277 14.9672L6.10237 15.8961C5.59982 17.8753 5.20809 20.0208 5.20429 22.0716C5.20105 23.804 5.77171 24.0876 7.43334 24.6348C8.12816 24.3713 8.6946 24.0727 9.44591 23.8294L11.5198 23.2259C11.8759 23.1246 12.224 22.9804 12.5767 22.8664L14.7159 22.189C15.7624 21.8376 16.8274 21.4863 17.821 20.9989C17.5845 20.8254 17.3239 20.6883 17.0727 20.5374L15.743 19.7694L14.2281 19.028C13.7424 18.8103 13.0424 18.6701 12.8518 18.0989L12.8107 17.9259C12.6724 17.2879 13.305 16.8186 13.8862 16.9918C15.0534 17.3396 17.2514 18.603 18.2594 19.2365L18.9546 19.7136C19.0998 19.8178 19.2385 19.9301 19.3985 20.0112L19.3972 19.9818C19.3859 19.6773 19.399 19.3266 19.4819 19.032L19.5816 18.6107C19.3319 18.2627 18.957 17.9458 18.6469 17.6448C16.2345 15.304 13.0967 13.8408 9.94499 12.7739L9.26966 12.5339C8.89509 12.3851 8.61257 12.2212 8.20045 12.2645ZM39.4331 12.262C38.8163 12.3943 38.2031 12.6875 37.6093 12.9028C34.6331 13.9818 31.6844 15.3449 29.4021 17.5942C29.048 17.9433 28.6849 18.2842 28.3934 18.689C28.5693 19.1927 28.5065 19.6721 28.6085 20.0265C30.0384 18.9681 31.608 18.1124 33.2239 17.3719C33.5294 17.2318 33.9109 17.0224 34.2424 16.966L34.279 16.9595C35.0079 16.8417 35.4411 17.7172 35.0714 18.2897L35.0513 18.3214C34.766 18.7568 34.0131 18.9216 33.5627 19.1264L32.05 19.8938L30.332 20.8935C31.1208 21.3347 31.9548 21.6847 32.7973 22.0086L38.3472 23.8493L40.1283 24.5391C40.8608 24.8591 42.2373 23.9984 42.5718 23.3409C43.3001 21.9096 42.1918 16.8036 41.6293 15.1341C41.2895 14.1257 40.8562 12.126 39.4331 12.262ZM23.4129 17.673C22.3414 17.7372 21.4043 18.306 21.1597 19.3957C21.0715 19.7882 21.0794 20.0668 21.0784 20.4676L21.0744 22.6327C21.0739 22.7991 21.0479 23.0475 21.1193 23.1995L21.1312 23.2231C21.4897 23.9792 21.6441 24.4613 22.5633 24.8266L22.8342 24.915C23.0242 24.972 23.2377 24.9696 23.4352 24.9754L24.5337 24.9796C26.0709 24.8702 26.8349 24.0153 26.8373 22.5421L26.8375 20.1446C26.8374 19.8033 26.864 19.5062 26.7511 19.1807C26.3549 18.0384 25.4771 17.6726 24.3733 17.6694L23.4129 17.673ZM28.5729 21.8789C28.5648 22.0153 28.5228 23.1114 28.5802 23.1795C28.7864 23.4241 29.0815 23.6336 29.319 23.8517C30.824 25.2338 32.7261 26.1641 34.6343 26.851L41.6504 29.1679C41.8655 29.2376 42.2673 29.4649 42.3506 29.244C42.391 29.0898 42.4449 28.9277 42.4662 28.7696C42.6964 27.0548 40.884 26.7059 39.7385 26.2513L35.5804 24.753C33.3027 24.0123 30.9031 23.3585 28.875 22.044C28.8044 21.9981 28.6832 21.9007 28.6034 21.8812L28.5729 21.8789ZM19.3874 22.1368C18.5236 22.6137 17.5968 23.0401 16.686 23.3744L9.58007 25.6078L8.06455 26.232C7.02637 26.6806 5.85993 27.0013 5.5312 28.2305C5.47213 28.4515 5.47321 28.9919 5.56321 29.2008L5.59405 29.2149C5.95044 29.143 6.30041 29.0233 6.64776 28.9169L14.1325 26.5362C15.68 25.9644 17.1286 25.0988 18.4139 24.0693L19.0762 23.5283C19.1621 23.4589 19.4519 23.2823 19.4395 23.1631C19.4051 22.8332 19.4723 22.463 19.4081 22.1422L19.3874 22.1368ZM20.1233 24.9727L18.8026 25.9512C16.3224 27.7037 14.7274 28.186 11.9129 29.057L6.59005 30.767C6.49644 30.7946 6.36702 30.8141 6.29343 30.8754L6.47568 31.4117C6.48684 31.453 6.50094 31.4845 6.51744 31.5235L6.70738 32.0157C6.83788 32.3188 6.96013 32.5951 7.14909 32.8678C7.55202 33.4055 8.31609 33.7489 8.98424 33.5393C9.29605 33.4415 9.55021 33.2386 9.83324 33.0828L13.5705 31.4023C16.0442 30.262 18.1964 28.5524 19.6886 26.2517C19.8842 25.95 20.427 25.2773 20.1675 24.9846L20.1233 24.9727ZM27.8904 24.9563L27.718 25.1763C29.1433 27.906 31.2493 29.8734 34.0402 31.2222L37.1076 32.5236C37.4651 32.6762 37.8256 32.8442 38.1616 33.0403C38.4654 33.2176 38.6856 33.4346 39.0292 33.547C39.6596 33.7532 40.458 33.3668 40.8629 32.8891C41.2457 32.3398 41.3953 31.5848 41.6781 30.9769L36.9174 29.4123C34.1441 28.4817 31.7003 27.8059 29.3118 26.0519L27.8904 24.9563Z" fill="black"/>
</svg>
