<svg width="48" height="48" viewBox="0 0 48 48" fill="none" xmlns="http://www.w3.org/2000/svg">
<path d="M38.209 33.6721C36.9785 33.8653 36.4259 33.0341 35.5407 32.5981C35.0663 32.3644 34.6309 32.2868 34.1183 32.1948L32.431 32.0448C30.7669 31.75 29.3061 30.9177 28.2956 29.5489L27.7728 28.781C27.3764 28.1351 27.6135 28.2235 27.0701 28.6135C26.0733 29.3288 25.0772 29.2326 23.9255 29.2323C22.534 29.2318 21.6623 29.3054 20.4953 28.3282L19.7757 29.4358C18.8654 30.7121 17.5848 31.5394 16.0774 31.9383C14.8947 32.2512 13.9251 31.9845 12.7242 32.4721C11.9738 32.7769 11.4874 33.4486 10.6737 33.6264C9.58588 33.864 8.46533 33.3491 7.84152 32.4482C6.97358 31.1946 6.03913 27.7646 5.74925 26.3266C5.67031 25.935 5.67931 25.5258 5.59564 25.1422C5.429 24.378 5.60108 22.2077 5.75188 21.4916C6.04705 20.0905 6.52583 18.7605 7.00747 17.4152C7.49839 16.0443 7.92519 14.6994 9.58049 14.3813L9.78238 14.3523C10.6982 14.2444 11.218 14.5588 11.9065 15.0445C13.25 15.9924 14.217 15.6364 15.6251 15.8824C18.2958 16.349 19.184 17.7337 20.5699 19.7021C21.1966 19.1887 21.9098 18.8815 22.7251 18.8484L24.2922 18.8428C25.5652 18.8437 26.419 18.8141 27.4467 19.7606C28.6917 17.7402 29.9199 16.1769 32.5088 15.8614L33.551 15.7805C34.5206 15.7406 35.2064 15.5974 36.0467 15.0224C36.2813 14.8619 36.5012 14.6839 36.7635 14.5694C38.256 13.9179 39.9015 14.6921 40.5147 16.1658L41.8901 20.1521C42.2085 21.7349 42.6575 23.3659 42.4175 25.008L42.1812 26.672C42.1138 27.0266 42.008 27.3738 41.9141 27.7219L41.1976 30.0118C40.6873 31.4519 40.2268 33.2901 38.4777 33.6392L38.209 33.6721ZM10.0079 15.7116C9.22949 15.8207 8.90071 16.3133 8.63835 16.9837L8.26302 18.0034C7.52024 20.0747 6.93735 21.6373 6.9351 23.8753C6.93477 24.2103 6.90608 24.5764 6.95164 24.9079L7.05571 25.7579C7.16502 26.4166 7.38936 27.5819 7.63302 28.2163L8.46275 30.5474C8.68499 31.1301 8.91992 31.879 9.53933 32.1529C10.3586 32.5152 10.7874 32.0275 11.4162 31.592C13.6128 30.0704 16.1816 31.556 18.3565 28.984C18.8454 28.4059 19.136 27.6851 19.6221 27.1153C19.4195 26.5887 19.1732 25.95 19.1365 25.3782L15.4157 26.0279L14.0042 26.281C13.529 26.3658 12.8586 26.5021 12.7578 25.8165C12.6616 25.1625 13.1244 25.006 13.6639 24.9019L17.8714 24.1591C18.1388 24.1099 18.3998 24.038 18.6711 24.0075L18.6961 24.0049C18.1869 23.8653 17.652 23.7805 17.1331 23.6806L13.874 23.0716C13.507 23.0037 13.0463 22.9993 12.8416 22.6321C12.6674 22.3197 12.7559 21.8323 13.0942 21.6677L13.2061 21.6184C13.5021 21.4958 13.949 21.6694 14.2433 21.7302L18.7101 22.5666C18.8503 22.5939 18.9941 22.636 19.1354 22.6524C19.1866 22.2892 19.253 21.9211 19.3659 21.5717L19.5721 21.024C19.6876 20.7247 19.4022 20.5199 19.2174 20.2423C17.7496 18.0375 17.1042 17.3824 14.486 17.2132C13.5158 17.1505 12.4625 16.9893 11.6071 16.4934C11.1252 16.214 10.6044 15.6918 10.0079 15.7116ZM37.655 15.7339C37.1845 15.8479 36.8716 16.1899 36.4683 16.4296C34.7001 17.4801 33.4924 16.9277 31.8635 17.4404C30.37 17.9104 29.6146 18.9774 28.7874 20.2451L28.3094 20.9419C28.5002 21.3622 28.6931 21.8059 28.7922 22.2569L28.8882 22.5799L33.7346 21.7386C34.1717 21.6423 34.7727 21.3994 35.084 21.8673L35.1028 21.895C35.3779 22.3091 35.2293 22.8797 34.7152 23.0058C34.2289 23.1251 33.7118 23.1816 33.2171 23.2618L29.932 23.84C29.7932 23.8647 29.6338 23.8812 29.5022 23.9271L34.0901 24.8435C34.3959 24.9052 34.93 24.9469 35.1109 25.2423L35.1887 25.4081C35.2421 25.5324 35.2486 25.7506 35.1959 25.8759L35.1743 25.9267C34.9139 26.5432 34.3298 26.3267 33.8217 26.2187L31.9755 25.8578L28.9241 25.2521L28.7495 26.0275C28.6513 26.3831 28.5103 26.7351 28.3792 27.0798L28.3924 27.0953C28.5651 27.3029 28.6911 27.5596 28.8223 27.7943L29.2374 28.4643C30.2142 29.9435 31.6389 30.5656 33.3514 30.7372L34.1174 30.7759C34.949 30.8363 35.8734 31.1087 36.5734 31.5753C37.25 32.0262 37.8458 32.7121 38.7699 31.9746C39.2446 31.5958 39.4413 30.7962 39.6454 30.2477C41.4351 25.4397 41.5684 23.1697 39.7805 18.1227L39.3637 17.0219C39.1076 16.4092 38.7492 15.7587 37.9925 15.7281L37.655 15.7339ZM22.6747 20.2326C20.7745 20.5079 20.4135 22.5009 20.4133 24.0925C20.4131 25.2199 20.5895 26.711 21.581 27.405C21.8668 27.6051 22.2168 27.7793 22.5681 27.7846L25.368 27.7921C27.1749 27.6285 27.5847 25.4895 27.584 24.0015C27.5835 22.4866 27.1669 20.601 25.43 20.2456C25.1706 20.1925 24.8331 20.2315 24.566 20.2314L22.6747 20.2326Z" fill="black"/>
<path d="M24.3703 26.4836L24.3326 26.4919C22.3425 26.8877 20.5378 24.4394 21.8089 22.595C22.2418 21.9668 22.8646 21.6339 23.5998 21.4988C24.7177 21.3994 25.8926 21.9456 26.3323 23.0308L26.4381 23.2965C26.9478 24.7869 25.8302 26.2277 24.3703 26.4836ZM23.7915 22.8578C22.184 23.1776 22.6539 25.3767 24.1628 25.1222C25.6732 24.9253 25.3558 22.7866 23.7915 22.8578Z" fill="black"/>
</svg>
