<svg width="48" height="48" viewBox="0 0 48 48" fill="none" xmlns="http://www.w3.org/2000/svg">
<path d="M40.494 37.7452C36.1346 38.6337 30.7572 33.7435 28.3146 30.6556L26.72 28.3451C26.1412 28.6383 25.6551 28.7393 25.0178 28.7413L23.0485 28.7451C22.4326 28.7454 21.8361 28.7018 21.306 28.3397L20.5146 29.4994C19.5205 30.9869 18.2431 32.3597 16.9343 33.569L15.0087 35.1608C12.7331 36.8327 8.78908 39.0217 6.03236 37.1433C4.22478 35.9116 3.88892 33.3594 4.93394 31.5191C5.11975 31.1918 5.34944 30.8901 5.56671 30.5836C3.99636 30.1237 3.58243 29.3488 3.10059 27.9469C2.65903 26.6622 2.34504 25.3494 2.17986 24.0002L2.00431 22.2282C1.93717 21.5763 1.95937 20.8983 1.96033 20.243L1.98287 18.314C2.04339 17.2952 2.18621 16.2454 2.38619 15.2462L3.23041 11.9927C3.66426 10.6614 4.39076 9.54653 5.92558 9.39419L6.02735 9.38495C7.04838 9.21123 7.81094 9.73426 8.69721 10.0994L16.3113 13.2204C17.7636 13.8994 18.8742 14.9465 19.8558 16.2047L20.4698 17.0358C21.3546 16.3036 21.5942 16.1623 22.8515 16.16L24.0378 16.1593C25.3262 16.1597 26.5857 15.9483 27.5058 17.0742C28.9682 14.8833 30.2919 13.7715 32.673 12.8163L40.1223 9.68631C41.8107 8.97934 43.8376 9.50355 44.5437 11.3118L44.9842 12.7909C45.0536 13.152 45.1885 13.503 45.2749 13.8625L45.5884 15.1844C45.6718 15.5009 45.7009 15.8483 45.75 16.172L46.0078 18.4839L46.0028 22.3059C45.8984 24.0905 45.4949 26.1677 44.9308 27.8556C44.4933 29.1644 44.0715 30.1428 42.5494 30.5182L42.9374 31.2541C43.0838 31.5279 43.2081 31.8403 43.3122 32.133L43.5176 32.8393C44.0239 34.6118 43.0679 36.6625 41.3853 37.446C41.097 37.5802 40.7986 37.6593 40.494 37.7452ZM6.17716 10.9324C4.90657 11.0924 4.71841 12.364 4.41678 13.4171L3.85894 15.6916C3.69004 16.5241 3.56479 17.4434 3.53852 18.2971C4.309 18.0625 4.91505 17.9763 5.722 17.9588L7.59729 17.9935C9.72691 18.1196 11.4223 18.3831 13.4761 18.8445L17.7581 19.9248L19.9656 20.6268L19.9956 20.0232C20.036 19.4658 19.8897 19.2115 19.6247 18.7196C18.8202 17.2265 17.6641 15.7364 16.1576 14.8993C15.5203 14.5452 14.8141 14.308 14.1423 14.0287L7.41011 11.2283C7.02583 11.0335 6.77979 10.9431 6.34033 10.928L6.17716 10.9324ZM41.5292 10.9321C40.8272 10.9865 40.1978 11.3793 39.5622 11.6561L32.6027 14.5454C30.5434 15.4298 29.0145 17.2595 28.1232 19.2788C28.0298 19.4902 28.0215 19.5795 28.0218 19.8181L28.0315 20.5765L30.4512 19.8939L33.1636 19.1472C35.1285 18.6526 37.1075 18.2516 39.1285 18.0836L41.2639 18.0158C41.7363 18.0155 42.2223 17.9946 42.6929 18.0257L44.4383 18.2545C44.4088 16.6379 43.9007 14.6094 43.4598 13.0768C43.1134 11.8732 42.9888 10.9673 41.5292 10.9321ZM22.5738 17.7447C22.3441 17.7674 22.1256 17.7696 21.925 17.8943L21.8968 17.9114C21.197 18.3434 21.5489 19.1351 21.543 19.8405L21.5385 24.3029C21.5386 24.9437 21.4173 25.8298 21.6326 26.4228C21.9463 27.2869 22.7236 27.1607 23.4513 27.1603L25.5132 27.154C26.2278 27.0207 26.4863 26.4017 26.4895 25.7567L26.4875 20.0663C26.4856 19.4448 26.6897 18.6724 26.4064 18.1773C26.07 17.5891 25.1865 17.7432 24.6287 17.7433L22.5738 17.7447ZM5.81838 19.5314L4.76866 19.6094C4.15457 19.714 3.58981 19.9635 3.5106 20.6444C3.4904 20.818 3.54018 21.0189 3.54685 21.1967L3.55917 22.0696C3.56487 22.6588 3.65302 23.5846 3.75057 24.1408C3.96078 25.3392 4.20618 26.5149 4.64251 27.6564L4.7448 27.9549C4.98714 28.7292 5.81543 29.3248 6.63302 29.0259L14.0801 25.424L18.3277 23.9979C18.8681 23.8442 19.4309 23.6199 19.9918 23.564L19.9888 22.2562C19.8098 22.1734 19.5935 22.135 19.4021 22.0757L15.048 20.8478C11.9972 20.0547 8.97897 19.4751 5.81838 19.5314ZM39.9738 19.5946C36.3366 19.8383 33.0432 20.7897 29.5542 21.8005C29.3682 21.8544 28.1058 22.1765 28.0307 22.2575C28.0304 22.6568 27.9888 23.1026 28.0408 23.4961C28.5559 23.6508 29.09 23.7211 29.6058 23.8914C30.3833 24.148 31.1488 24.4694 31.9014 24.7905L35.2395 26.3167L38.3081 27.7162C39.1663 28.0928 40.0308 28.45 40.9273 28.7265C42.4459 29.1949 42.8806 29.0903 43.4572 27.3614C43.9936 25.753 44.336 24.0735 44.4367 22.3801L44.4636 21.422C44.4942 20.581 44.5674 19.8619 43.5563 19.6823C42.8044 19.5487 40.8292 19.5178 39.9738 19.5946ZM28.0544 25.1369C28.0038 25.7297 28.0433 26.2771 27.8715 26.8545C27.8111 27.0572 27.7639 27.0389 27.8636 27.225L28.1238 27.6574C30.2996 31.0136 33.2796 34.1709 37.0262 35.7246C38.3758 36.2843 40.0005 36.6625 41.2574 35.6697C43.0285 34.0349 41.5367 31.9774 40.6851 30.2825C40.0052 30.066 39.3449 29.8628 38.6876 29.5816L36.076 28.4276C33.6896 27.3308 31.3401 26.1043 28.8277 25.312L28.2936 25.167C28.217 25.1495 28.1322 25.123 28.0544 25.1369ZM19.8877 25.2072C19.2696 25.2859 18.6206 25.537 18.0315 25.7224C15.2499 26.5979 12.5814 27.6698 9.99532 29.0194C9.02191 29.5274 8.01194 29.9425 7.32241 30.8344L6.72747 31.685C5.97588 32.7616 5.48608 33.7418 6.21054 35.0501L6.23618 35.1013C6.35486 35.3493 6.59027 35.5859 6.7984 35.7613C7.93352 36.6105 9.46211 36.2895 10.6753 35.8133C14.3795 34.3591 18.3145 30.5853 20.2128 27.0422C19.9634 26.3135 20.0335 25.9127 19.9713 25.2012L19.8877 25.2072Z" fill="black"/>
</svg>
