<svg width="48" height="48" viewBox="0 0 48 48" fill="none" xmlns="http://www.w3.org/2000/svg">
<path d="M11.5777 38.1167C10.6295 37.7766 9.78156 37.2002 9.57447 36.123C9.50059 35.7388 9.49014 35.3506 9.3992 34.9692C9.19201 34.1003 8.47993 33.4168 7.90722 32.7722C7.75778 32.604 7.71254 32.4287 7.4784 32.4693C4.85279 32.9238 2.73955 31.4971 2.74078 28.7984C2.74101 28.2807 2.80858 27.7428 2.83398 27.2114L2.91772 25.4541C2.92485 25.2319 2.96987 25.0189 2.98252 24.8001L2.99451 23.3238C2.99508 22.8562 3.01726 22.3724 2.97282 21.9071C2.90121 21.1575 2.66881 20.4363 2.56818 19.6924C2.27121 17.4974 3.89922 15.2901 6.16431 15.2809C6.59195 15.2792 6.97206 15.3051 7.3914 15.3913L8.25498 14.251C8.69326 13.6864 9.30081 13.104 9.43061 12.3776C9.49183 12.0352 9.46492 11.6851 9.5432 11.3442C9.86233 9.95422 11.3784 9.28508 12.6916 9.60693C13.7534 9.86718 15.3465 11.2415 16.182 12.0418C18.0199 13.8026 19.9432 16.3567 21.2601 18.5226C21.8264 18.3999 22.3411 18.4006 22.9215 18.3998L25.909 18.3997C26.1773 18.4 26.4548 18.3834 26.719 18.4353L26.7467 18.441C26.8896 18.2919 26.9993 18.1108 27.1191 17.943L28.0107 16.6528C29.6975 14.2817 31.6349 11.8756 34.0676 10.2224C34.7391 9.76612 35.1693 9.55185 35.992 9.50296C36.2983 9.48604 36.6609 9.5099 36.9499 9.62085L37.2485 9.74179C37.6485 9.94082 38.0275 10.656 38.0989 11.0798L38.3167 12.0795C38.685 14.0043 39.2679 14.0023 40.4125 15.4069C40.5063 15.4142 40.6057 15.3706 40.6962 15.3485C42.8675 14.8187 45.3156 16.2171 45.4328 18.5473L45.4418 27.9395C45.4416 28.4624 45.4896 29.0335 45.3922 29.545C45.1168 30.9915 43.9631 32.2582 42.4797 32.4974C42.1385 32.5524 41.7846 32.5332 41.4402 32.5326L40.9078 32.532C40.849 32.5319 40.7391 32.5171 40.6847 32.5368C40.3607 32.6539 39.1198 34.6363 38.8977 35.1833C38.7791 35.4753 38.7466 35.7798 38.6703 36.0826C38.2624 37.7034 36.4507 38.5592 34.8971 38.106C32.3078 37.3506 28.2302 32.1353 26.7674 29.481C26.3669 29.5632 25.9492 29.557 25.5421 29.5579L22.7524 29.5592C22.2444 29.5595 21.7771 29.5631 21.2748 29.4775L18.9606 32.8748L17.735 34.3521C16.7154 35.5268 15.5544 36.6786 14.2813 37.5786C13.4178 38.189 12.5831 38.2849 11.5777 38.1167ZM35.9586 11.0044C34.558 11.9106 33.8815 12.302 32.7049 13.4937L31.4755 14.7879C30.4744 15.9418 28.9307 17.9761 28.2319 19.3237C28.4066 19.6059 28.6409 19.9384 28.6984 20.2704L28.7498 20.452L30.2225 19.6154C32.9212 18.1266 35.7679 16.8973 38.7248 16.0211C37.6852 14.8999 36.8926 13.9087 36.6856 12.3176C36.6302 11.8918 36.676 10.8421 35.9586 11.0044ZM11.8951 11.1636C11.7946 11.1805 11.6986 11.1975 11.602 11.2308L11.5765 11.2394C11.1812 11.3805 11.1194 11.7097 11.1015 12.0724L11.0549 12.6218C10.8934 13.9291 9.69104 14.8945 9.08345 15.9295L12.5388 17.1477C14.4159 17.8696 16.2597 18.7549 18.0097 19.7429L19.502 20.6319C19.5261 20.2612 19.6188 19.9652 19.8004 19.6419C19.9836 19.3157 19.8952 19.4221 19.6922 19.0897C18.7707 17.5809 17.6962 16.1205 16.5329 14.7898C15.708 13.8462 13.2692 11.2625 12.0942 11.1655L11.8951 11.1636ZM41.5305 16.8851C40.7806 16.9692 40.3855 17.2507 39.6978 17.4644L36.1118 18.6952L33.1303 19.9551L28.9643 22.2595C28.8936 22.3026 28.7575 22.3585 28.7085 22.4217C28.673 22.4674 28.6917 25.2939 28.7151 25.5237C28.8332 25.6333 28.9751 25.7134 29.11 25.8006L29.7778 26.2234C31.042 26.9919 32.3394 27.6739 33.68 28.2992C35.6997 29.2145 37.8058 30.0509 39.9614 30.5844C41.2059 30.8924 42.6255 31.239 43.4993 30.0249C43.7873 29.6247 43.8781 29.1505 43.8791 28.6709L43.8797 19.5049C43.8796 19.253 43.8916 18.9936 43.8718 18.7427C43.7753 17.5172 42.6647 16.8328 41.5305 16.8851ZM6.26284 16.9086C5.25011 17.0131 4.42439 17.603 4.20681 18.6531C4.12951 19.0262 4.17635 19.4937 4.22343 19.8684L4.5328 21.2466C4.60003 21.4768 4.59431 21.7224 4.59488 21.9596L4.58078 25.5854C4.57172 25.8448 4.51803 26.1012 4.50489 26.3608L4.37346 28.7432C4.36232 29.0042 4.35193 29.3412 4.4447 29.5875L4.56078 29.886C4.74836 30.3058 5.19508 30.6559 5.61662 30.8116C7.2775 31.425 12.1439 29.3477 13.7779 28.5761L14.4316 28.2669L15.6918 27.6571C16.7493 27.1089 17.7654 26.5018 18.768 25.8597C18.9042 25.7724 19.2866 25.5675 19.3805 25.4578L19.3855 22.5529C16.9808 20.7111 13.2659 19.1404 10.4657 18.1358L7.624 17.1773C7.19064 17.0302 6.72864 16.8688 6.26284 16.9086ZM24.7574 20.0826L22.76 20.0828C22.3012 20.0833 21.2631 19.9695 21.2667 20.687L21.2727 26.997C21.2694 27.4858 21.193 27.5428 21.6215 27.8221L21.6468 27.8391C21.8166 27.946 23.2925 27.8946 23.595 27.8946L25.5235 27.8953C27.2336 27.8944 27.0425 27.6093 27.0435 26.1758L27.0427 21.7886C27.0434 21.1735 27.2654 20.4447 26.6723 20.1583L26.6339 20.1389C26.4083 20.0311 26.0743 20.0766 25.8282 20.0774L24.7574 20.0826ZM19.4658 27.3666C19.2211 27.5063 18.9945 27.6774 18.7558 27.8274L14.1567 30.1917L9.97436 31.8648C9.79623 31.9235 9.58633 32.0091 9.40056 32.0289C10.2648 32.9318 11.0561 34.0735 11.1231 35.3641C11.1334 35.5323 11.1369 35.7026 11.2033 35.8598L11.2164 35.8919C11.4881 36.5428 12.1562 36.6294 12.7702 36.4724C13.1452 36.3765 13.5162 36.058 13.8228 35.8301C15.7676 34.3844 17.3072 32.4687 18.6739 30.486C18.8712 30.1998 19.8691 28.8029 19.9334 28.5156C19.6779 28.154 19.5687 27.7917 19.4658 27.3666ZM28.6894 27.4568C28.5285 27.9556 28.4445 28.1995 28.1559 28.6385C29.347 30.6432 30.7416 32.5746 32.3903 34.2286L33.1233 34.9505C33.6925 35.4636 34.703 36.3177 35.3911 36.5391L35.419 36.5485C35.9076 36.7034 36.8221 36.3481 37.0575 35.8989C37.1595 35.7042 37.1409 35.4814 37.1751 35.2688C37.4155 34.0498 38.2305 32.9695 38.9981 32.0233L37.797 31.6138C35.1719 30.7405 32.5941 29.7239 30.1862 28.3481C29.6883 28.0636 29.1545 27.7921 28.6894 27.4568Z" fill="black"/>
</svg>
