<svg width="48" height="48" viewBox="0 0 48 48" fill="none" xmlns="http://www.w3.org/2000/svg">
<path d="M42.3864 36.1608C41.6575 36.1027 41.0258 35.8999 40.3284 35.6901L37.4196 34.7019C34.4804 33.6041 27.8233 30.2122 26.4689 27.2465C26.012 27.215 21.5724 27.2116 21.5181 27.2472C21.4321 27.3036 21.205 27.7106 21.1343 27.8155C20.7896 28.327 20.4493 28.8058 20.0399 29.2688C17.6266 31.9982 11.7772 34.395 8.44581 35.4617C7.31977 35.8223 6.14368 36.315 4.94565 36.069C3.01021 35.6715 1.94865 33.5366 1.96522 31.6981C1.97704 30.3854 2.56051 29.2889 2.95694 28.0677C3.21652 27.268 3.38255 26.3364 3.4102 25.4906L3.42241 23.5545C3.41838 21.7174 3.30508 20.6599 2.63673 18.9294C2.11015 17.5659 1.61635 16.094 2.0647 14.6248C2.45539 13.3445 3.52785 12.2 4.86399 11.9255L5.45832 11.8453C6.40431 11.7665 7.47142 12.2611 8.34409 12.558L10.7318 13.384C13.7618 14.4946 18.6962 16.9856 20.8398 19.4715C21.0762 19.7457 21.3882 20.064 21.5366 20.3955C21.6437 20.6346 21.9286 20.5404 22.1536 20.5398L26.6298 20.5365C26.7551 20.389 26.9152 20.0301 27.053 19.8203C29.4161 16.2225 35.8847 13.8034 39.9012 12.4918L41.131 12.0897C41.6296 11.936 42.127 11.7944 42.6558 11.8727C44.298 12.1162 45.1975 13.0899 45.764 14.6679L45.9859 15.4099C46.2995 16.7272 45.6686 18.1899 45.1921 19.3826C44.6132 20.8313 44.5815 22.0376 44.5725 23.5492C44.5654 24.7463 44.5164 26.167 44.8133 27.3396C44.9566 27.906 45.1591 28.4435 45.3524 28.995L45.4695 29.2849C46.7131 32.0309 46.0348 35.9901 42.3864 36.1608ZM5.33813 13.2725C4.94227 13.3377 4.62596 13.4896 4.28912 13.7114L4.31855 13.708C5.94221 13.5388 7.59957 14.1469 8.84171 15.188C9.52998 15.7649 9.97088 16.596 10.7204 17.1157C12.2417 18.1705 14.2919 18.1617 16.0123 18.7146C17.0808 19.0581 18.0378 19.5909 19.0526 20.0566L19.772 20.3487C18.1815 18.5022 14.155 16.359 11.9642 15.4068C10.6555 14.838 9.30071 14.3631 7.94546 13.9186C7.13767 13.6538 6.21193 13.1619 5.33813 13.2725ZM42.443 13.2758C41.6646 13.3294 40.9404 13.6696 40.2023 13.9001L35.6991 15.5523L32.8222 16.9573C31.2135 17.8067 29.7533 18.6939 28.5506 20.0876L28.4874 20.1639C29.6157 19.5719 30.6913 19.1924 31.9044 18.8341L33.6636 18.3207C35.7504 17.7515 37.916 17.2682 39.4516 15.6304C40.283 14.7437 40.7514 13.6589 42.2393 13.6337C42.792 13.6244 43.3595 14.0395 43.0624 14.6298L43.0433 14.6687C42.8154 15.1166 42.2311 14.9745 41.8301 15.1791L41.7944 15.1966C41.3062 15.4418 40.9833 16.0818 40.618 16.478C40.3234 16.7975 39.9995 17.0879 39.6615 17.3606C38.0272 18.5773 37.0427 18.8798 35.138 19.4005L32.7239 20.1048C32.1213 20.2787 31.5068 20.4195 30.9144 20.6269C29.7609 21.0307 28.7726 21.7352 27.5467 21.9661L27.5424 22.905L32.2731 22.3467L35.8011 22.1291C36.0249 22.1204 36.2473 22.0785 36.4719 22.0691C38.4265 21.9868 40.3069 22.1127 42.1412 22.8274L43.1588 23.2666C43.0891 22.0959 43.2651 20.8095 43.593 19.6918C44.1256 17.876 45.2745 16.4049 44.1294 14.5492C43.6892 13.8359 43.3599 13.3194 42.443 13.2758ZM4.72468 15.0799C4.43176 15.0947 3.59542 15.1546 3.36208 15.3641C3.33122 15.9123 3.31709 16.6454 3.50783 17.1762L4.12621 18.8787C4.20366 19.0909 4.26924 19.3123 4.35142 19.5209L4.50953 20.0769C4.60495 20.5698 4.66902 21.1207 4.76954 21.5817C8.52488 23.8382 11.1848 23.8548 15.571 23.465L18.7792 23.1175L20.6124 22.9068L20.6021 22.0168L19.9457 21.8863C18.4616 21.525 17.2055 20.5987 15.7674 20.1197C13.1253 19.2397 10.8658 19.6337 8.80538 17.2791C7.85462 16.1925 7.20606 15.4766 5.64245 15.147L5.5982 15.1374C5.3237 15.0795 5.00523 15.069 4.72468 15.0799ZM22.0275 21.9941L22.031 25.322C22.0313 25.4739 22.022 25.6294 22.0476 25.7795C22.4514 25.7798 26.02 25.8079 26.0746 25.7719L26.0819 22.405C26.0818 22.2763 26.0959 22.1314 26.0722 22.0051L22.0275 21.9941ZM4.85434 23.3084L4.78763 25.7927C4.74174 26.747 4.60836 27.5816 4.30928 28.4998L3.77919 29.9763C3.27873 31.3246 3.17297 32.2604 3.85581 33.5393C4.71535 35.1493 5.88217 34.7508 7.30243 34.3288C8.87996 33.86 10.4519 33.3363 11.9564 32.6642L14.7624 31.2944L17.4504 29.6367C18.195 29.115 19.1823 28.2841 19.6676 27.486L13.4183 29.3897C11.8673 29.8819 10.5425 30.2532 9.32406 31.4205C8.94404 31.7792 8.58962 32.157 8.25296 32.5565C8.0131 32.8411 7.80638 33.1673 7.54342 33.43C7.11024 33.863 6.09235 34.3698 5.47299 34.1482L5.43863 34.1363C4.94804 33.9578 4.7409 33.1175 5.28685 32.8943C5.40324 32.8467 5.53852 32.8399 5.66167 32.8199C6.51263 32.6821 6.8956 31.9179 7.40429 31.324C8.71042 29.7989 10.0208 29.016 11.8597 28.3765L20.0941 25.8541C20.2485 25.8076 20.4446 25.7931 20.5774 25.7087L20.5983 24.3738C20.0734 24.3802 19.5508 24.4717 19.0316 24.5429L14.8509 24.9641C14.7071 24.9786 14.5672 25.011 14.4223 25.0199L12.8439 25.0384C10.0704 25.0452 7.83015 24.8118 5.34779 23.5676C5.21485 23.501 4.99074 23.3255 4.85434 23.3084ZM36.7191 23.5132C36.4247 23.5148 36.1219 23.5038 35.8286 23.5249L32.9095 23.7356L28.3562 24.2558C28.102 24.281 27.784 24.2608 27.5431 24.33L27.5408 25.7547C28.2781 25.8821 28.741 26.0431 29.4378 26.3415L30.5316 26.795C31.1252 27.0581 31.7118 27.3495 32.3335 27.5415C34.4407 28.1923 37.0054 28.0434 38.6319 29.7845C38.8218 29.9626 39.0089 30.1414 39.1761 30.3418L39.7682 31.113C40.7657 32.2871 42.2189 33.011 43.7811 32.8526C44.0904 32.8213 44.5766 32.8265 44.6292 32.4373L44.6345 32.3995C44.7832 31.254 44.3574 30.3356 43.9515 29.2897C43.4216 27.9244 43.1389 26.3795 43.1483 24.9084C42.0097 24.1163 40.004 23.591 38.6638 23.5199L36.7191 23.5132ZM28.2541 27.4163C31.0006 30.4654 36.4291 33.0143 40.2166 34.1719L41.4578 34.5649C42.18 34.7766 42.8264 34.8342 43.5115 34.4278L43.7466 34.2381C42.1596 34.4373 40.6317 33.7498 39.4127 32.7765C38.5593 32.0951 38.096 31.0363 37.1862 30.4071C35.7449 29.4103 33.5793 29.4104 31.9134 28.8922C31.2161 28.6753 30.5685 28.3452 29.8976 28.0636L28.2541 27.4163Z" fill="black"/>
</svg>
