<svg width="48" height="48" viewBox="0 0 48 48" fill="none" xmlns="http://www.w3.org/2000/svg">
<path d="M24.2698 38.2385L19.8864 38.2254C19.6424 38.2179 19.408 38.1695 19.1654 38.1599L17.9374 38.138C17.7169 38.127 17.4999 38.086 17.2802 38.0716L12.5292 37.6976L9.11689 37.2203C7.94389 36.9972 5.8393 36.5972 5.34946 35.3171L5.33554 35.2797C4.72489 33.676 7.03157 33.045 8.16477 32.9304L8.1628 28.2284C8.16557 27.7453 8.22336 27.2511 8.28899 26.7719L8.5745 25.0785C9.16794 21.9959 10.9378 18.1057 13.6101 16.2821C15.0988 15.2662 16.7884 14.6431 18.5388 14.2496L20.4021 13.907L21.6299 13.7796C21.4036 13.2259 21.2035 12.737 21.2952 12.119L21.3009 12.0824C21.468 10.8732 22.4564 9.8941 23.6759 9.75933C25.9588 9.54591 27.3197 11.7757 26.3388 13.7438C29.0877 14.0604 31.7361 14.6156 34.1069 16.1132C36.1027 17.3739 36.8579 18.8021 37.9618 20.8369C38.6177 22.0458 39.2729 24.1279 39.5211 25.4918L39.7157 26.904C39.8056 27.7153 39.8221 28.3768 39.8463 29.1939C39.8532 29.426 39.9014 29.6525 39.907 29.8842L39.912 32.9845L40.8737 33.2544C41.7119 33.5099 43.0944 34.08 42.7164 35.2151L42.704 35.2504C42.3555 36.3079 41.0436 36.6859 40.0878 36.9484C37.7468 37.5914 35.2796 37.7775 32.868 37.9689L31.3473 38.0767C31.1708 38.0898 31.0012 38.1327 30.8225 38.1405L29.3218 38.1657C29.0404 38.1771 28.7628 38.2246 28.4825 38.2323L24.2698 38.2385ZM23.8698 10.954C23.7368 10.9709 23.6231 10.9947 23.4958 11.0389L23.4621 11.0503C22.9473 11.2307 22.3693 12.0149 22.5294 12.5915L22.5523 12.7023C22.5827 12.8665 22.6467 12.9875 22.7256 13.1326L22.7414 13.1632C23.0873 13.8137 23.4601 13.785 24.0906 13.7824C24.2603 13.7859 24.4186 13.8038 24.5739 13.7263L24.6143 13.707C24.9354 13.5514 25.2309 13.2457 25.344 12.9058L25.3693 12.8303C25.6931 11.86 24.8647 10.8968 23.8698 10.954ZM23.6985 14.9133C21.5524 14.9411 19.5047 15.1861 17.4496 15.8313L16.6265 16.0924C15.0327 16.685 13.4256 17.6518 12.4612 19.0849L10.9696 21.6215C10.1482 23.2979 9.57388 25.7283 9.43368 27.6332C9.37307 28.4562 9.40583 29.2836 9.37939 30.1077L24.3161 30.0924L38.6008 30.1006L38.5898 28.2543C38.564 25.4474 37.542 22.7648 36.2327 20.3114C35.287 18.5394 34.6096 17.7625 32.8203 16.7986C30.1671 15.3693 27.1265 14.9054 24.1421 14.9119L23.6985 14.9133ZM17.3255 31.3289L9.40269 31.3475C9.38155 31.5677 9.347 32.5334 9.40855 32.746C10.0064 32.8752 10.6196 32.939 11.2234 33.0329L13.6685 33.369L19.0452 33.7223C19.2268 33.7315 19.4065 33.7618 19.5882 33.7668L28.3548 33.7687C28.5384 33.7639 28.7196 33.7387 28.9025 33.7269L29.7645 33.6858C30.0173 33.6686 30.2828 33.6931 30.533 33.666L35.5384 33.2351C36.6107 33.097 37.584 32.9786 38.6268 32.6835L38.6449 31.3366L17.3255 31.3289ZM9.23957 33.9973L8.64819 34.0942C7.97038 34.1953 6.96393 34.3029 6.43199 34.7956C7.21021 35.6689 9.02338 35.9499 10.1203 36.1293L15.8151 36.7502L18.2919 36.8808C18.5602 36.8975 18.8202 36.9583 19.0879 36.9693L29.3568 36.9751C29.6256 36.9656 29.879 36.8975 30.1481 36.8849L32.7843 36.7449L38.771 35.9839L40.3639 35.5397C40.662 35.4425 40.9603 35.3372 41.2301 35.1745C41.7559 34.8575 41.4129 34.7676 41.0003 34.5838C40.6396 34.423 38.9957 33.9421 38.5784 34.0163L35.109 34.565L30.8372 34.8947C30.6144 34.914 30.392 34.9529 30.1685 34.9613L27.0265 35.0398L20.6716 35.0401C20.4621 35.0346 20.2596 34.9812 20.048 34.9757L18.3396 34.9583C18.0405 34.9474 17.7471 34.8918 17.4485 34.8751L14.0153 34.6461L11.0982 34.2817C10.4932 34.1847 9.84979 34.0192 9.23957 33.9973Z" fill="black"/>
<path d="M24.0004 27.1147C23.5457 26.9941 22.5315 28.2823 21.6899 27.6693C21.5235 27.5481 21.3282 27.3146 21.3003 27.1063L21.2974 27.0819C21.2392 26.6946 21.3773 26.2323 21.4492 25.8515L21.5162 25.4062C21.5742 24.9651 20.7536 24.6151 20.4626 24.1731L20.4418 24.1401C20.2811 23.8948 20.3028 23.4709 20.4682 23.2382C20.7586 22.8295 21.5066 22.7631 21.968 22.6849L22.4638 22.5828C22.9512 21.9313 23.0659 20.8641 23.7665 20.6747C24.3093 20.6318 24.4399 20.8792 24.6561 21.3163L25.2433 22.5563C25.9296 22.8044 27.5886 22.7913 27.3442 23.9208C27.2699 24.2649 26.5602 24.9066 26.2278 25.1097C26.1906 25.1323 26.2189 25.2352 26.2245 25.2812L26.3439 25.9686C26.4275 26.3605 26.6502 26.981 26.4983 27.3792L26.4609 27.4762C26.0974 28.3661 24.5979 27.377 24.0004 27.1147ZM23.8713 22.6346C23.2271 24.0908 23.412 23.5655 21.9964 23.9107C22.2775 24.2221 22.7338 24.5269 22.8371 24.952C22.9399 25.3745 22.7068 25.8759 22.6656 26.3005C23.0546 26.1619 23.4073 25.8764 23.8125 25.7994L23.8414 25.7972C24.375 25.7618 24.7182 26.1223 25.182 26.2971C24.9386 25.1624 24.6084 24.6988 25.6608 23.9483L24.9872 23.776C24.8091 23.7385 24.594 23.715 24.4332 23.6282L24.4095 23.6156C24.1388 23.4579 23.9719 22.9098 23.8713 22.6346Z" fill="black"/>
</svg>
