<svg width="48" height="48" viewBox="0 0 48 48" fill="none" xmlns="http://www.w3.org/2000/svg">
<path d="M19.5173 38.6078C19.2442 38.6039 18.9624 38.5555 18.6887 38.5401L16.8412 38.4457C13.984 38.2459 4.42694 37.4853 3.46933 34.4226L3.42133 34.2734C2.77467 31.8893 6.86015 30.9393 8.4404 30.6064L9.04747 30.4829C9.22719 30.4534 9.41038 30.4373 9.58668 30.3907L9.59432 28.3226C9.59947 28.1721 9.63435 28.0261 9.64255 27.8766L9.82987 25.6091C10.0619 23.7246 10.4254 21.8559 11.2804 20.1443C12.8687 16.9648 15.9422 15.0161 19.221 13.9326C18.6595 13.19 18.3073 12.4812 18.4017 11.5068C18.5485 9.99084 19.8614 9.14812 21.3127 9.29034C22.4334 9.40012 23.3781 10.0369 24.0765 10.8899L24.3121 10.601C24.999 9.84243 26.0388 9.33449 27.0565 9.26812C29.046 9.07748 30.5144 11.1455 29.6744 13.0331C29.5217 13.3762 29.3097 13.6153 29.0762 13.9011C29.2428 13.9806 29.4368 14.011 29.613 14.0671L30.3849 14.349C33.7396 15.6195 36.6113 18.2768 37.6618 21.7615L37.9201 22.7342C38.3989 24.7429 38.5794 28.1556 38.3505 30.3059L39.7146 30.5819C41.3248 30.9315 45.2101 31.9607 44.5547 34.2944L44.5461 34.324C43.88 36.7033 38.4863 37.5594 36.3817 37.8849L31.7244 38.4022L29.1715 38.5394C28.8796 38.5534 28.5931 38.6067 28.2998 38.6179L25.9873 38.6367C25.7888 38.6413 25.5945 38.6782 25.3958 38.6824L21.5761 38.6797C21.4179 38.6752 21.263 38.6442 21.1052 38.6386L19.5173 38.6078ZM20.7057 10.6702C20.5856 10.6894 20.4816 10.7154 20.3669 10.7574L20.3386 10.7675C20.0994 10.8561 19.9287 11.0589 19.8261 11.285L19.8128 11.3137C19.4945 12.0293 20.0817 13.1042 20.7574 13.3895L20.8426 13.4237C21.0213 13.4974 21.2125 13.4777 21.4018 13.4777L22.3388 13.4774C22.5813 13.4776 22.847 13.443 23.0658 13.5629L23.0969 13.5794C23.7021 13.9095 23.5345 14.5385 22.9893 14.8626C19.7623 16.781 17.5768 20.771 17.0664 24.4517C16.9663 25.1743 17.1619 25.9433 17.0033 26.66C16.9646 26.8347 16.8819 27.0306 16.8671 27.2036L30.1521 27.192L30.857 27.1958C30.4978 26.2657 30.6442 24.7472 30.4591 23.6519C29.9084 20.3928 27.8804 16.8259 25.1013 14.9522C24.698 14.6803 24.1844 14.5357 24.3887 13.937L24.3982 13.9082C24.5763 13.3991 25.1991 13.476 25.6248 13.4761L26.5636 13.4809C26.7921 13.4868 27.0093 13.5206 27.2341 13.46L27.4282 13.4058C28.1168 13.2011 28.7315 12.319 28.5321 11.5947L28.5233 11.5604C28.1037 9.97809 25.3255 10.6353 24.7947 12.3974C24.6524 12.8695 24.4794 13.4289 23.8339 13.2644C23.1672 13.0947 23.4509 11.8114 22.406 11.1586C21.9032 10.8446 21.3097 10.6073 20.7057 10.6702ZM27.3666 15.0212L28.5854 16.3668C29.4414 17.4051 30.1459 18.5854 30.6994 19.81L31.267 21.2811C31.4811 21.8354 31.6231 22.4382 31.7435 23.0211C31.9579 24.0591 31.8944 26.5545 32.3083 27.3033C32.7676 27.4031 33.2714 27.3778 33.738 27.4034L36.6303 27.7922C36.7685 27.8189 36.9115 27.8623 37.0531 27.8553L37.0346 26.482L36.7737 24.1053C36.1537 20.2674 34.4474 17.871 30.8472 16.0962C29.803 15.5814 28.5495 15.0411 27.3666 15.0212ZM20.3549 15.0818C19.5561 15.2097 18.7874 15.5241 18.055 15.8585C13.162 18.0926 11.6389 21.1651 11.1128 26.3981C11.0651 26.8731 11.0032 27.3543 10.9934 27.8318L11.0739 27.844L15.3409 27.3508L15.6494 26.4397C15.7854 25.9115 15.595 25.0066 15.7196 24.3492C15.7898 23.9788 15.8105 23.6015 15.8929 23.2301C16.4556 20.6959 17.6466 18.0684 19.4009 16.1447L20.2065 15.3324C20.2484 15.2903 20.4486 15.1116 20.4255 15.0675L20.3549 15.0818ZM21.0172 28.5075L16.7888 28.6002C16.7808 29.3388 16.7177 29.4233 16.4983 30.1296C16.3476 30.6144 16.0569 31.7593 15.8327 32.1743L27.0114 32.1734L32.1374 32.1741L31.0429 28.6641L21.0172 28.5075ZM15.2329 28.721L10.957 29.2567L10.9693 30.5038C10.97 31.2876 10.8887 31.4389 10.7892 32.1504C10.8467 32.1866 10.896 32.1749 10.9626 32.175L14.3859 32.1761C14.4385 32.0653 14.4612 31.9511 14.5036 31.8371L15.2714 29.4764C15.3394 29.2604 15.4699 28.9476 15.4401 28.7225C15.3668 28.7139 15.3063 28.714 15.2329 28.721ZM32.4753 28.7249C32.5023 28.855 32.5274 28.9935 32.5784 29.1326L33.0205 30.483C33.0982 30.6748 33.1499 30.8912 33.2107 31.0896L33.4465 31.8038C33.4847 31.9225 33.4724 32.0847 33.5728 32.1726L37.113 32.1798C37.1222 32.1395 37.1209 32.1587 37.1192 32.1224C36.8943 31.1943 37.0024 30.2311 37.0561 29.3128C35.7653 28.9806 33.8451 28.7436 32.4753 28.7249ZM38.4501 31.7411C38.5322 32.2998 39.1634 33.2766 38.3724 33.5346C38.2316 33.5805 38.0123 33.5509 37.86 33.5507L9.91232 33.5527C9.60721 33.5572 9.33454 33.3967 9.26657 33.0759L9.2481 32.9827C9.22935 32.8965 9.24158 32.828 9.25537 32.742L9.43799 31.8289C8.34749 31.9544 4.16767 32.9366 4.81612 34.0773L4.83135 34.1056C5.26522 34.8763 7.40483 35.5555 8.24287 35.7771L8.64285 35.882L10.945 36.3742L16.6145 37.0284L17.5847 37.0638C17.8349 37.0792 18.071 37.126 18.3261 37.1337L19.8737 37.159C20.1123 37.1684 20.342 37.2235 20.581 37.2323L27.4825 37.2395C27.7974 37.2294 28.1098 37.1688 28.4268 37.1544L29.7711 37.1316C29.9154 37.1239 30.0493 37.084 30.1886 37.0729L34.2896 36.744C36.2609 36.5244 38.2307 36.2086 40.1391 35.6616C40.587 35.5333 43.8383 34.4803 43.197 33.5692C42.532 32.6244 39.5217 31.9191 38.4501 31.7411Z" fill="black"/>
</svg>
