<svg width="48" height="48" viewBox="0 0 48 48" fill="none" xmlns="http://www.w3.org/2000/svg">
<path d="M24.1638 33.6618L18.6373 34.203L16.3762 34.2117C15.2938 34.2114 14.349 34.1762 13.2763 34.0971L11.8125 33.9185C8.799 33.4886 5.84358 32.5305 3.10993 31.1991L1.8599 30.5764C1.47488 30.3771 0.770622 30.0767 0.743116 29.566C0.714297 29.031 1.01548 28.8884 1.44577 28.7251L9.30145 26.0868C9.35935 26.0648 9.53363 26.0151 9.57333 25.9756C9.61519 25.934 10.9228 20.6414 11.0525 20.1096C11.2073 19.4752 11.2919 18.8087 11.5323 18.1988C13.0636 14.3137 18.8071 12.7454 22.5134 12.4712L23.5598 12.4287L25.7346 12.4619C29.1393 12.6626 34.456 14.0731 36.1824 17.4242C36.8238 18.6691 36.8312 19.6544 37.2314 20.8392L37.4842 21.6743C37.6757 22.6264 38.0718 23.5326 38.2551 24.4844L38.3347 24.8442C39.768 24.9767 41.5295 25.3828 42.8908 25.7828L43.8518 26.0636C44.8523 26.3969 46.825 27.1041 47.1714 28.1933L47.1855 28.2386C47.2947 28.551 47.3275 29.1547 47.2188 29.475L47.2071 29.5074C46.8136 30.644 45.3754 31.0661 44.2921 31.0028C43.6819 30.9671 43.0813 30.8038 42.4699 30.7583C40.5362 30.6143 39.4718 30.9516 37.6658 31.436L34.2256 32.2144L25.2943 33.5297C24.9214 33.5841 24.5394 33.6324 24.1638 33.6618ZM24.6108 13.7621L23.7433 15.0582C22.9778 16.3212 21.9371 18.5204 21.5202 19.9892L26.1444 19.8765L28.8233 19.583C29.5455 19.4541 30.2039 19.3757 30.5867 20.1793L30.6053 20.2177C30.6398 20.2901 30.6587 20.3489 30.678 20.4254L30.6948 20.4737C30.7935 20.7642 30.7453 21.1656 30.7451 21.4759L30.7477 23.1531L32.1455 22.7906C32.491 22.7089 32.83 22.5891 33.167 22.4782L34.7547 21.9256C35.1732 21.77 35.6937 21.6199 36.0528 21.3541L35.7091 20.1902C35.6059 19.7642 35.541 19.3057 35.4016 18.8924C34.0718 14.9499 28.178 13.814 24.6108 13.7621ZM22.4439 13.8413C19.2389 14.069 14.1711 15.3945 12.7836 18.5766C12.6838 18.8055 12.6487 19.0362 12.5948 19.2769L11.8082 22.5908C11.9577 22.6564 12.0975 22.6815 12.2547 22.7192L13.0603 22.9097L17.9516 23.6518L17.9482 21.2563C17.9482 21.0941 17.9388 20.9436 17.9948 20.7886L18.0076 20.7518C18.472 19.4586 19.5597 20.1935 20.1407 20.0301C20.7159 18.0467 21.8309 15.5431 22.9805 13.8227L22.4439 13.8413ZM29.3653 20.8907C28.697 20.9937 28.0907 21.0431 27.4811 21.1056L25.1241 21.2691C24.8919 21.2808 24.662 21.3276 24.4267 21.3363L19.2841 21.3525C19.2402 21.6572 19.2697 22.0007 19.266 22.3101L19.2617 23.351C19.2612 23.5407 19.2478 23.7323 19.2619 23.9212L19.5552 23.9608C19.9476 24.0283 20.7265 24.0759 21.1658 24.0982L25.4941 24.0383C25.8307 24.0196 26.1731 24.0266 26.508 23.9939L28.18 23.7955C28.6006 23.7361 29.0255 23.6656 29.4492 23.6348L29.4481 20.8874L29.3653 20.8907ZM36.3819 22.6754C35.0135 23.3408 33.5553 23.7692 32.0978 24.1906L30.8451 24.5298C30.6765 24.5722 30.4918 24.5936 30.3278 24.6462C30.1624 24.6993 30.0675 24.8371 29.8771 24.8802C28.8194 25.1197 27.3116 25.3097 26.2533 25.3854L23.2554 25.4765C22.5667 25.4766 21.8925 25.4738 21.2057 25.4204C20.7133 25.3821 20.1623 25.4535 19.6823 25.3452L11.7948 23.9878C11.7053 23.971 11.5226 23.8759 11.4464 23.8907L10.8184 26.2956L11.2429 26.5053C12.9951 27.2301 15.0116 27.4366 16.8854 27.5918L18.3972 27.6957C18.5992 27.7067 18.7951 27.7565 18.9975 27.7637L24.9846 27.7604C25.1623 27.7512 25.3355 27.7207 25.5119 27.7036L31.0281 27.0299C32.9861 26.6897 35.4258 26.2997 37.0882 25.1157L36.3819 22.6754ZM37.9331 26.1504C36.3015 27.2439 34.9685 27.5851 33.0682 28.0256C31.0917 28.4837 29.1073 28.7699 27.0903 28.979L26.0098 29.0821C25.8176 29.1021 25.631 29.1416 25.4376 29.1516L20.0968 29.1626C19.3141 29.1589 18.4113 29.1041 17.6319 29.0273C15.2429 28.7918 12.3363 28.5981 10.1739 27.4641C9.89222 27.3163 9.9233 27.2939 9.61599 27.3998L3.71503 29.3444C3.47651 29.4306 3.17586 29.5675 2.92535 29.5906C4.5994 30.5276 6.44119 31.221 8.27363 31.7781C8.86903 31.959 9.48586 32.0628 10.0841 32.2285L13.2938 32.7227C13.7791 32.758 14.2517 32.8182 14.7383 32.8296L18.5646 32.8222C18.7723 32.8141 18.974 32.7773 19.1801 32.7621L25.383 32.1523L35.3206 30.5465L37.2779 30.0679C37.8062 29.9211 38.3202 29.7542 38.8596 29.6462L39.9224 29.4654C41.017 29.3348 42.2246 29.2725 43.3106 29.4768L43.7762 29.566C44.4462 29.7141 45.795 29.825 45.9654 28.9449L45.9715 28.9151C46.1985 27.666 40.4738 26.5629 39.4945 26.3923L37.9331 26.1504Z" fill="black"/>
<path d="M34.0909 20.4758C33.536 20.4337 33.4261 20.0762 33.2799 19.6097C32.7002 17.7592 29.8914 16.9538 28.2479 16.5258L27.5035 16.3537C27.318 16.3145 27.0965 16.2888 26.9293 16.1952C26.3615 15.8773 26.6211 15.09 27.2322 14.958C27.445 14.9469 27.6731 15.0339 27.8785 15.0816C30.2816 15.6401 33.5117 16.5803 34.5 19.1017C34.7068 19.6293 34.8041 20.3033 34.0909 20.4758Z" fill="black"/>
</svg>
