<svg width="48" height="48" viewBox="0 0 48 48" fill="none" xmlns="http://www.w3.org/2000/svg">
<path d="M20.9477 35.3843L11.7316 34.3972L9.69013 34.318C8.69881 34.3191 8.62934 34.5023 7.8193 35.0445C5.90703 36.3242 4.17386 34.67 5.16134 33.2443L5.18492 33.2109C5.57375 32.6512 6.20975 32.3998 6.79986 32.1068L10.7123 30.1754C11.8228 29.6395 11.6443 29.9929 11.7402 28.8235L11.8861 27.0449L11.9237 25.4924C11.932 25.3189 11.9647 25.153 11.9776 24.9816L12.0814 23.5187C12.3304 20.5727 12.7369 18.1067 14.9697 15.863C16.4089 14.4168 18.8051 13.4669 20.8003 12.9885L22.5935 12.6474C23.7608 12.4506 24.9666 12.3159 26.1505 12.3105L28.8996 12.3781C32.2727 12.534 35.6962 13.0813 38.5311 15.0459C40.2548 16.2405 41.2646 18.0248 41.9317 19.9684C42.057 20.3334 42.2037 20.7164 42.2697 21.0975L42.6757 23.3937C42.7455 23.7512 42.7379 24.1311 42.7639 24.4939C42.8495 25.6881 42.871 26.8675 42.8348 28.0663C42.9102 28.1925 42.9828 28.3258 43.0204 28.4689L43.0309 28.5113C43.1435 28.8954 43.1246 29.3211 43.124 29.7193C43.1226 30.7005 42.9563 31.7018 42.1278 32.3492C41.5475 32.8027 40.2648 32.8636 39.542 33.0835C38.6826 33.3449 37.8718 33.7294 37.0032 33.9714C35.7272 34.327 34.4227 34.5618 33.1194 34.7902L28.0036 35.5516C27.2748 35.6662 26.551 35.6328 25.8142 35.6344L23.8875 35.6253L21.7579 35.4438C21.4883 35.4149 21.2181 35.4196 20.9477 35.3843ZM29.5652 13.851C32.8988 15.0398 37.2462 17.085 38.8229 20.3625L39.2069 21.2177C39.3574 21.5505 39.4577 21.9276 39.5623 22.277L40.3491 25.3067C40.4126 25.5353 40.4556 25.8514 40.3426 26.0668L40.3264 26.0989C39.9423 26.8337 39.1088 26.2291 38.9557 25.5817L38.3099 22.9192C38.1233 22.2867 37.9241 21.6583 37.6251 21.0681C36.3467 18.5452 33.3067 16.8457 30.77 15.7917L26.393 14.1403C26.3146 15.1329 26.1203 16.1186 25.9763 17.1039L25.0096 25.379C24.9746 25.8452 24.9343 26.4903 24.9245 26.9473L24.9131 27.9149C24.9125 28.0585 24.9304 28.2321 24.8831 28.3693C24.6527 29.0385 23.8881 29.0085 23.5871 28.3463C23.5053 28.1663 23.5483 27.8254 23.5483 27.6281L23.7503 23.8674L24.8001 15.5851C24.8822 15.0902 24.9892 14.5838 25.0416 14.0859C22.0583 14.7602 19.0989 16.9241 17.4852 19.4768L17.2955 19.7889C17.1016 20.0878 16.925 20.391 16.7627 20.7083L16.4629 21.3038C16.3358 21.5563 16.2248 21.7924 15.9138 21.8475L15.8802 21.8536C15.4939 21.9185 15.1318 21.5838 15.1067 21.2015C15.0611 20.5093 16.4238 18.5097 16.8909 17.9055C17.9549 16.5292 19.0156 15.6505 20.3966 14.5955C20.0596 14.6764 19.7401 14.7933 19.4126 14.9045C16.1111 16.026 14.3455 17.985 13.7386 21.3675L13.5986 22.1435L13.3729 25.1831C13.3679 25.418 13.3753 25.6605 13.3387 25.8927L13.0935 29.5485L19.406 30.2807L21.6679 30.4634L26.1794 30.3758C26.3838 30.3655 26.5858 30.3293 26.7901 30.3219L28.1481 30.2792C28.3578 30.2664 28.5612 30.2219 28.7717 30.212L29.6581 30.1902C29.8839 30.1783 30.1109 30.1436 30.3361 30.1382L31.781 30.1235C32.7881 30.0821 33.8435 29.869 34.7923 29.5389L37.4227 28.5402C38.4071 28.2295 39.4122 28.0328 40.4294 27.8683L41.4567 27.7445L41.3745 24.3611C41.1873 22.0435 40.4552 18.7709 38.7258 17.0453C36.4505 14.7751 32.7184 13.8547 29.5652 13.851ZM41.4313 29.1422C40.0613 29.2758 38.6442 29.57 37.3435 30.0242L35.057 30.9259C34.1876 31.2281 33.1667 31.4396 32.2406 31.5025L28.388 31.6769L24.8057 31.8534L21.2123 31.849C19.657 31.7625 18.1032 31.513 16.5583 31.3217L12.5275 30.9083C12.1813 30.8783 11.4806 31.3717 11.1548 31.5359L7.02064 33.589C6.78022 33.7143 6.53309 33.8227 6.30617 33.9723L6.29886 34.0078C6.50666 34.1783 6.70358 34.0428 6.90022 33.9129C8.20986 33.036 8.38794 32.9216 9.89075 32.9212L11.1966 32.929C11.3755 32.9385 11.5517 32.9787 11.7306 32.9933L17.8812 33.5946L20.6774 33.9364C22.8365 34.1531 25.0158 34.3164 27.1835 34.165L32.1794 33.5447L36.3864 32.6934C37.3008 32.4481 37.9923 32.1157 38.8529 31.828C39.3789 31.6522 39.9333 31.5398 40.4763 31.4295C41.278 31.2667 41.5338 31.2262 41.6973 30.3827C41.7758 29.9775 41.7584 29.5409 41.7839 29.1292C41.6847 29.1327 41.5244 29.1189 41.4313 29.1422Z" fill="black"/>
<path d="M14.4428 28.1002C14.0567 28.1157 13.7299 27.9069 13.6601 27.5084L13.6556 27.4809C13.6332 27.3565 13.6622 27.2406 13.6816 27.1176L13.8838 26.1246C14.0193 25.4834 14.1358 24.8325 14.3174 24.202C14.4613 23.7023 14.4572 23.4493 14.9872 23.2562C15.0955 23.2501 15.2656 23.234 15.3622 23.2865L15.3865 23.3008C15.9585 23.6177 15.7342 24.0731 15.6443 24.5615L15.0972 27.1176C14.996 27.6349 15.0501 27.9662 14.4428 28.1002Z" fill="black"/>
</svg>
