<svg width="48" height="48" viewBox="0 0 48 48" fill="none" xmlns="http://www.w3.org/2000/svg">
<path d="M20.2385 40.4815L17.1553 40.4806C15.8917 40.4778 14.6691 39.8082 14.4606 38.4609C14.3841 37.9672 14.4311 37.4165 14.4319 36.9152L14.4355 23.8865C14.4143 23.9343 14.4004 23.9658 14.3557 23.9958L14.2823 24.0432C14.1769 24.1157 14.0882 24.2278 14.0001 24.3212L13.5191 24.8298C12.2619 26.1685 11.7603 26.2785 12.0441 28.1521L12.5383 32.168C12.5924 32.8636 12.6928 33.6528 11.7512 33.7707L8.66653 34.045C7.85976 34.1379 7.15401 34.0603 6.80868 33.1481C6.69497 32.8478 6.68025 32.4944 6.62747 32.1797L5.90648 27.0586C5.56992 23.8548 6.06361 22.2028 8.12179 19.8812L11.3276 16.2294C11.7996 15.6235 12.2404 14.9908 12.6474 14.3396C13.897 12.3402 13.6007 12.1973 15.956 11.3536L17.3322 10.8356C17.6542 10.7157 17.6195 10.757 17.6195 10.3999L17.6212 9.6827C17.6261 8.71867 18.2299 7.82219 19.2208 7.66417L19.2658 7.65714C19.577 7.60422 19.806 7.68916 20.1022 7.70636C20.4653 7.72745 20.836 7.71189 21.2002 7.71198L27.7454 7.70547C27.9535 7.69534 28.1564 7.64303 28.3661 7.62794C29.1166 7.55214 29.9069 8.11694 30.2013 8.77694L30.264 8.92919C30.3689 9.29823 30.3779 9.49103 30.3778 9.88047L30.3795 10.8151C30.4815 10.8987 30.6765 10.9116 30.8058 10.9558L31.9604 11.3577C33.2712 11.7894 34.1406 12.0807 34.7998 13.4457C34.9244 13.7039 35.0205 13.9721 35.1556 14.2266C35.9414 15.7063 37.2115 16.9535 38.3465 18.1614L39.8812 19.8481C40.5502 20.5928 41.3178 21.3591 41.7312 22.287L42.095 23.1914C43.0416 25.4125 42.0349 28.9005 41.5354 31.1133C41.3151 32.0896 41.2259 33.8358 40.017 34.082L39.9895 34.0874C39.6565 34.1561 39.3082 34.0648 38.9774 34.0292L36.4179 33.7613C34.6098 33.575 35.2769 32.2192 35.5647 30.9485L35.9611 28.9004C36.4356 26.4938 36.3753 26.5613 34.7532 25.032C34.3799 24.6801 34.0008 24.2866 33.6585 23.902L33.6121 37.1696C33.6126 37.5423 33.6599 37.9879 33.5878 38.3522C33.3592 39.5065 32.5233 40.2519 31.3757 40.455C31.0165 40.5185 30.6031 40.4811 30.2375 40.4812L20.2385 40.4815ZM19.3764 9.18995C18.9871 9.31553 19.0763 9.47387 19.0779 9.84133L19.0828 10.793C19.0839 11.003 19.041 11.3129 19.1224 11.507C19.8171 13.1645 21.4464 13.677 23.1224 13.8123C23.1862 13.8145 23.2499 13.8151 23.313 13.8255L23.3141 10.6427C22.8884 10.4843 22.4752 10.3094 22.0389 10.1773C21.3933 9.98177 20.6138 9.88009 20.0275 9.53434C19.8151 9.40905 19.6346 9.18522 19.3764 9.18995ZM28.4856 9.19923C28.312 9.31061 28.1691 9.46816 27.9846 9.55895C27.0549 10.0162 25.868 10.0824 24.7728 10.6518L24.7559 13.7871L25.2136 13.7347C26.9828 13.5711 28.0277 13.0598 28.9477 11.4978L28.9435 10.078C28.9426 9.77406 29.0176 9.13009 28.5149 9.19319L28.4856 9.19923ZM23.568 9.23214C23.9874 9.43848 24.0931 9.64783 24.4873 9.38523L24.6005 9.29298C24.4162 9.19337 23.7759 9.22577 23.568 9.23214ZM17.8643 12.2695L16.4347 12.7891C15.3696 13.1681 14.9359 13.207 14.3616 14.2112L12.5567 16.9789C11.9969 17.7234 11.3972 18.4598 10.7689 19.1484L9.09103 20.9807C7.04962 23.3039 7.12233 24.5533 7.45008 27.6353L8.09831 32.2211C8.11593 32.3303 8.11279 32.4589 8.15123 32.5613L11.1313 32.3658C11.0864 32.1196 11.0825 31.8699 11.0521 31.622L10.6213 28.5173C10.5365 27.9276 10.4125 27.3533 10.5391 26.7539L10.5476 26.7118C10.9904 24.5829 13.522 23.3093 14.5474 21.4022C14.793 20.9455 14.9037 20.235 15.5978 20.373C16.4912 20.5505 16.0053 22.4181 15.9376 23.0391L15.863 31.8926L15.8586 32.8503C15.8576 33.0567 15.8434 33.2621 15.873 33.4669L17.6897 33.0399C18.9792 32.7377 19.4234 32.651 19.4252 31.2328L19.4262 30.4116C19.4265 30.2886 19.4055 30.1121 19.4395 29.9945C19.6301 29.3357 20.6737 29.2586 20.8078 29.9844C20.855 30.2394 20.8221 30.5495 20.8228 30.8115L20.8236 31.7463C20.8204 33.8416 19.1716 34.234 17.451 34.6019L15.8969 34.9506C15.8415 34.9631 15.8659 35.0182 15.8638 35.0712L15.8607 37.3329C15.861 37.5847 15.8344 37.8608 15.8631 38.1094L15.8845 38.2142C15.9409 38.4746 16.11 38.7152 16.3361 38.8579L16.5452 38.9664C16.8037 39.0965 17.2722 39.0164 17.5556 39.0164L23.3212 39.0123L23.3349 15.2151C21.362 15.0391 19.4138 14.6929 18.2594 12.8499L18.054 12.503C18.0111 12.4233 17.9763 12.3197 17.9053 12.2632L17.8643 12.2695ZM30.0904 12.2869C29.3106 13.8508 27.9644 14.6556 26.3147 15.008L25.6232 15.1348C25.3551 15.1955 25.0437 15.1718 24.7688 15.175C24.7213 15.6939 24.7556 16.2417 24.7559 16.7635L24.756 38.0956C24.7559 38.3882 24.7227 38.7293 24.7647 39.0165L30.6263 39.0155C31.9689 39.0142 32.177 38.8176 32.179 37.3653C32.1801 36.5763 32.1455 35.7704 32.1884 34.9841L29.991 34.495C28.3647 34.0996 27.2125 33.4634 27.2073 31.5141L27.207 30.6093C27.2074 30.4276 27.1725 30.1384 27.2227 29.9707C27.3554 29.5267 27.948 29.3112 28.3205 29.5937L28.3491 29.6145C28.5058 29.7309 28.5447 29.8419 28.6081 30.0117L28.6282 30.0503C28.6861 30.168 28.666 30.3816 28.6662 30.5127L28.6666 31.5246C28.668 32.553 29.1373 32.7873 30.1231 33.0146L32.1754 33.5258L32.179 31.2762L32.1779 22.7664C32.1675 22.0631 31.6644 20.6947 32.3818 20.4258L32.4095 20.4152C33.1634 20.1322 33.2889 20.8488 33.561 21.3277C34.0393 22.1697 34.7251 22.9093 35.403 23.5914C36.0766 24.2692 36.9642 24.9186 37.3416 25.8237L37.5186 26.2583C37.9042 27.177 37.6024 28.2055 37.4146 29.131L36.8009 32.3445L39.7089 32.6273C39.772 32.4905 39.7869 32.3042 39.8231 32.1552L40.6707 28.3347C41.2477 25.3068 41.3632 23.797 39.3493 21.4357L35.4701 17.2003C34.7996 16.4388 34.2016 15.5692 33.73 14.6707C33.3636 13.9724 33.4275 13.5238 32.6065 13.1519L30.0904 12.2869Z" fill="black"/>
</svg>
