<svg width="48" height="48" viewBox="0 0 48 48" fill="none" xmlns="http://www.w3.org/2000/svg">
<path d="M25.1131 39.7309L18.6485 39.7309C18.4071 39.7309 18.1339 39.7538 17.8958 39.7188C16.4433 39.5048 15.0668 38.407 14.8394 36.9029C14.6783 35.8371 15.0778 34.345 15.4987 33.3445C15.7284 32.7983 16.0242 32.2804 16.2423 31.7289C16.6255 30.7602 17.1573 28.8963 17.0458 27.8171C16.9928 27.3045 16.8245 26.847 16.6217 26.3776C16.59 26.4207 16.5833 26.5014 16.5711 26.5539L14.9456 33.5854L13.0312 40.7691C12.9155 41.2296 12.8357 41.7197 12.675 42.166C12.2906 43.2333 11.2454 44.1256 10.1019 44.2121C8.76066 44.3136 7.12449 43.0688 7.0464 41.6817C7.0163 41.1468 7.07466 40.6217 7.11422 40.091L7.58237 36.0201L8.39504 30.8199L9.90802 23.1551L10.9395 19.216C11.2576 17.795 11.3753 16.5049 11.8127 15.0464L12.1219 14.1335C12.2925 13.6291 12.3236 13.328 12.6855 12.9253L13.1088 12.4705C13.6876 11.8851 14.3733 11.3619 15.1112 10.9973L16.6907 10.2829C17.7317 9.79699 18.3166 9.46423 18.3808 8.29282C18.4874 6.34605 21.5926 5.69576 23.2246 5.63459C25.1138 5.53807 28.2212 5.80132 29.4724 7.49351C29.5609 7.61318 29.6557 7.74021 29.7054 7.88187L29.7188 7.92143C29.87 8.29601 29.7697 8.7222 29.9761 9.07957L29.9979 9.11674C30.4064 9.82629 30.9844 10.0239 31.6839 10.3429L32.8018 10.8928C33.4598 11.2408 34.2193 11.6006 34.741 12.1403C35.4524 12.8759 36.006 14.0634 36.2347 15.0464C36.339 15.4949 36.3639 15.9681 36.4686 16.4175L37.3587 20.6246C37.5738 21.4876 37.9015 22.5821 38.0506 23.4411L38.9901 27.5787C39.0209 27.8377 39.1027 28.1056 39.1452 28.3645L39.7976 32.8241C39.9369 33.6088 40.0672 34.3944 40.2135 35.1778L40.5392 36.7979C40.5674 36.9248 40.5688 37.0571 40.5947 37.1831L41.0185 40.2662C41.0466 40.4937 41.0505 40.728 41.0837 40.9536C41.2896 42.3506 40.2529 43.8186 38.8449 44.0281C37.3544 44.2499 35.9064 43.4531 35.3112 42.0574C35.1061 41.5766 35.0188 41.0335 34.8895 40.5273L32.4942 31.5092L31.9593 28.5993L31.4713 26.66C31.4339 26.4939 31.378 26.3339 31.3532 26.1649L31.3498 26.1409C30.6266 27.6089 30.817 29.5456 31.3272 31.0625L31.8013 32.3021C32.2583 33.1835 32.7465 34.4402 33.0252 35.3733C33.5675 37.1897 32.4413 39.1693 30.576 39.6203C30.1247 39.7294 29.6741 39.7299 29.2136 39.7302L25.1131 39.7309ZM23.4936 7.01191C22.7971 7.05209 19.2211 7.48887 19.8311 8.78862L19.8477 8.82612C20.2475 9.71623 22.0904 9.94765 22.9246 9.96837C23.4084 9.98041 23.3528 9.95351 23.7921 9.81804C23.9884 9.75748 24.2554 9.77707 24.4627 9.7722C25.0862 9.76943 28.7297 9.76109 28.3925 8.51909C28.1022 7.44991 25.5889 7.06446 24.7144 7.01707L23.4936 7.01191ZM19.1936 10.0581L18.7962 10.4014C19.4773 11.9194 21.437 12.4158 22.9741 12.4736C23.0508 12.4776 23.1935 12.5053 23.2594 12.4732L23.2534 11.2832C21.7414 11.2605 20.397 11.1256 19.1936 10.0581ZM28.9897 10.2264C28.1939 10.8202 27.3128 11.0034 26.3448 11.1241C25.7668 11.1961 25.2896 11.2195 24.7146 11.2503L24.7295 12.4449C24.773 12.4646 24.8238 12.4494 24.8711 12.4444L25.5232 12.3663C26.4631 12.2215 28.431 11.8778 29.0278 11.0632C29.306 10.6835 29.3156 10.5392 28.9897 10.2264ZM17.69 11.2847C16.1907 12.0386 15.0718 12.2401 13.736 13.5771L14.0894 14.245C14.3118 14.6785 14.403 15.1228 14.5692 15.5691L15.2889 18.1511C15.2964 18.1871 15.3077 18.2188 15.32 18.2533L15.6659 19.4395C15.7178 19.6633 15.788 19.925 15.8696 20.1394L16.7113 23.273C16.9489 23.9744 17.2942 24.4901 17.5374 25.1228L18.103 26.4149C18.6908 28.4476 18.2748 30.5234 17.449 32.4434C17.1733 33.0844 16.8261 33.6836 16.5997 34.3472C16.3103 35.1953 15.9968 36.4154 16.4412 37.2393L16.4588 37.2727C16.6421 37.6149 16.9626 37.8895 17.3061 38.0617L17.7404 38.2294C17.8832 38.2836 18.0661 38.2666 18.2171 38.2668L22.5499 38.2663C22.7814 38.2661 23.0302 38.2842 23.2593 38.2528L23.2557 13.9014C23.0413 13.8664 22.8239 13.8644 22.6075 13.848L21.7249 13.7504C20.2981 13.5508 18.4535 12.7728 17.7939 11.3902L17.7537 11.3074C17.7319 11.2976 17.7138 11.2878 17.69 11.2847ZM30.4012 11.2622C29.7504 13.1597 26.4292 13.6479 24.7304 13.7862L24.73 38.2689L29.4803 38.2663C29.8891 38.2658 30.2112 38.2677 30.6031 38.1419C31.153 37.8986 31.5383 37.5111 31.7502 36.9437C32.0255 36.2064 31.5936 35.3901 31.3196 34.7201C30.4381 32.5643 29.5441 30.7567 29.531 28.3514C29.529 27.9822 29.4958 27.5699 29.5848 27.2105C29.918 25.8663 30.6423 24.6365 31.1059 23.3325C31.3244 22.718 31.464 22.0769 31.637 21.4488L33.3895 15.7772C34.0168 13.8877 34.6912 13.5052 32.6408 12.3621L30.4012 11.2622ZM13.0636 15.5738L13.0569 15.6206C13.0323 15.7779 12.9722 15.9329 12.9384 16.0894L12.6769 17.3986C12.5279 18.1658 12.4451 18.9549 12.2459 19.7106L11.1579 23.6246L10.4145 27.4324L8.66555 38.7246L8.47997 40.7222C8.45279 41.1015 8.38098 41.4395 8.49915 41.8121C8.71632 42.497 9.52768 42.8865 10.2068 42.7797L10.2465 42.774C10.4323 42.7455 10.5999 42.6485 10.7463 42.5335C11.2819 42.1008 11.4137 41.5836 11.5989 40.9551L13.2013 34.9785L15.1792 26.0882C15.3095 25.592 15.5296 25.1321 15.6667 24.643L13.1119 15.6552C13.0986 15.6031 13.1079 15.6137 13.0708 15.5773L13.0636 15.5738ZM34.8735 15.7144L33.0936 21.5503L32.7357 23.0291C32.5958 23.7348 32.4233 24.4599 32.5439 25.1785C32.7291 26.2827 33.1055 27.3452 33.3391 28.4366L33.4766 29.2227C33.6982 30.3124 33.8497 31.4156 34.1616 32.486L34.2271 32.7709C34.2344 32.8093 34.2456 32.8425 34.2581 32.8793L35.1643 36.3848C35.1718 36.4209 35.1837 36.4522 35.1958 36.4867L35.5404 37.8225C35.5494 37.8665 35.564 37.9027 35.5788 37.9449L35.9154 39.1583C35.9226 39.1939 35.9328 39.2217 35.9453 39.2553L36.5613 41.5175C36.6652 41.8997 37.0213 42.2627 37.3591 42.4502L37.483 42.5121C38.1613 42.777 39.047 42.7097 39.4631 42.0345C39.7558 41.5597 39.6684 41.1082 39.6008 40.589L38.2805 31.7105C38.0315 30.0947 37.7979 28.4629 37.391 26.8771L35.9631 21.1331L35.2784 17.7886C35.2371 17.5704 34.9202 15.7488 34.8735 15.7144Z" fill="black"/>
</svg>
