<svg width="48" height="48" viewBox="0 0 48 48" fill="none" xmlns="http://www.w3.org/2000/svg">
<path d="M24.0999 42.7276L17.7973 42.7272C17.1183 42.7267 16.6581 42.641 15.9899 42.5235C14.405 42.2449 13.491 41.5475 12.8333 40.135C12.2408 40.5999 11.5431 41.033 10.7766 41.121C8.82221 41.3452 7.16864 40.2738 6.87638 38.2847C6.78577 37.6677 6.80246 37.0514 6.83246 36.4317L7.24378 31.2886L7.95408 25.9331C8.05069 25.2415 8.16347 24.819 8.32978 24.1362L9.62199 18.8558C10.1191 16.6983 10.5872 14.3027 12.8158 13.2671C13.6343 12.8867 17.1291 12.2494 18.0416 12.1568L18.0293 12.021C17.9851 11.441 18.0202 10.8303 18.0202 10.247C18.0203 9.07661 17.8397 7.90337 18.6713 6.94623C19.8911 5.54223 21.9473 5.42402 23.6668 5.30987C26.2876 5.21167 29.9694 5.71464 29.9775 9.00498L29.9796 11.5262C29.9788 12.1978 29.7861 12.1076 30.3988 12.2183L33.0251 12.7378C33.6271 12.856 34.2396 12.9352 34.8224 13.1372C36.3551 13.6685 37.4857 15.1748 37.8585 16.7315C37.8939 16.8791 37.9351 17.045 37.9842 17.1891L38.2378 18.2043C38.279 18.421 38.3491 18.6403 38.4009 18.8551L38.9635 21.2925C39.0308 21.5642 39.1213 21.829 39.1753 22.1043L39.7861 24.5921C39.9146 25.016 39.964 25.4967 40.0323 25.9331L40.3138 27.9136L41.0749 35.5442C41.2307 37.5211 41.462 40.0223 39.1519 40.9062C37.703 41.4606 36.3916 40.9505 35.0434 40.3748C34.9332 40.5355 34.8646 40.7318 34.7559 40.8984C34.0821 41.9308 33.0562 42.3337 31.872 42.5626L31.1131 42.6871C30.8207 42.7499 30.5084 42.7273 30.2109 42.7276L24.0999 42.7276ZM23.6633 6.70708C22.4326 6.74031 19.1046 7.08297 19.4886 8.90345L19.4937 8.92951C19.5742 9.31595 19.9534 9.69236 20.2438 9.93194C22.144 11.4992 25.2751 11.626 27.3402 10.2646C27.7924 9.96644 28.3429 9.41889 28.4821 8.884L27.6147 9.16881C26.1895 9.52628 24.763 9.21386 23.3147 9.26055C22.8336 9.27606 21.8199 9.62908 21.4185 9.38969C21.0909 9.19426 20.9508 8.80084 21.1778 8.47075C21.663 7.76509 24.2571 7.85809 25.0013 7.88238L25.9588 7.96061C26.6221 7.99717 27.3316 7.91547 27.9077 7.56278C26.8499 6.70173 24.9823 6.67862 23.6682 6.70652L23.6633 6.70708ZM19.4964 11.1441C19.4621 11.4353 19.4313 11.8585 19.4937 12.149C20.7826 13.108 21.4734 13.6052 23.2386 13.7226L23.262 13.7095L23.2759 12.8667C23.2778 12.788 23.3106 12.6271 23.2815 12.5602C22.1099 12.4605 20.7822 12.0723 19.82 11.3626C19.7358 11.3005 19.5977 11.1549 19.4964 11.1441ZM28.4512 11.1522C27.5144 11.9792 25.984 12.471 24.7311 12.546L24.7341 13.7312C26.0787 13.608 27.4252 13.2443 28.4364 12.3135L28.4512 11.1522ZM18.7681 13.4614L15.5968 14.0712C14.5763 14.2775 13.5073 14.3614 12.6622 15.0361C12.8183 15.244 13.005 15.4132 13.1533 15.6318C13.4551 16.0769 13.6464 16.5816 13.8994 17.0524L14.1635 17.6221C14.4022 18.2675 14.7331 18.8879 14.9974 19.523C15.4052 20.5029 15.1587 21.581 15.2743 22.5988L15.4843 24.1432C15.6342 25.0563 15.8348 25.9572 15.9063 26.8834C15.9398 27.317 15.8445 28.3807 15.9252 28.7028L17.221 28.7022L23.265 28.703L23.2752 15.1681C22.0437 15.0447 20.8462 14.7328 19.7811 14.0834C19.5675 13.9532 18.9757 13.4312 18.7681 13.4614ZM29.3219 13.4878C28.0221 14.472 26.3764 15.1401 24.7306 15.1416L24.7291 28.7027L30.797 28.7022L31.7665 28.7006C31.9214 28.7003 32.0957 28.7166 32.2484 28.6931L32.2487 27.0464C32.2455 26.5874 32.232 26.1469 32.27 25.6881L32.7154 22.3197C32.7846 21.6148 32.7155 20.8566 32.8911 20.1677C33.2843 18.6251 34.3414 16.18 35.3295 15.0643C34.6453 14.2711 33.1159 14.211 32.1603 14.015L29.9453 13.5749C29.7603 13.546 29.5047 13.4534 29.3219 13.4878ZM11.8554 16.2658C11.4824 16.9836 11.2968 17.8936 11.1248 18.676L9.51202 25.2306L12.8299 26.7176L14.4548 27.4285C14.4441 26.3894 14.3806 25.9544 14.1933 24.9288L13.9634 23.4175C13.8952 22.8822 13.8157 22.3499 13.8067 21.8081L13.8063 20.838C13.8071 20.386 13.7843 20.3683 13.6154 19.9545C13.3321 19.2606 12.3312 16.7869 11.8554 16.2658ZM36.1765 16.3C35.5268 17.2477 34.3596 19.5571 34.2213 20.6949C34.1792 21.0407 34.1939 21.3953 34.1754 21.7431L33.7466 24.9932C33.6975 25.398 33.5213 27.126 33.6375 27.4976L35.1414 26.7968L38.4625 25.2104C38.311 24.6774 38.2251 24.127 38.0912 23.5894L37.1413 19.8223C36.9165 18.868 36.6711 17.1321 36.1765 16.3ZM38.6784 26.6831L33.7428 29.0399C33.782 29.5574 33.8648 30.1197 33.9463 30.6309L35.1173 38.2366C35.1848 38.7468 35.1732 38.7149 35.6194 39.005C36.3439 39.4308 37.4007 39.9391 38.2594 39.7137C40.0948 39.2319 39.8153 37.2776 39.6949 35.8203L39.0906 29.3594L38.7181 26.7183C38.6902 26.6837 38.706 26.6917 38.6784 26.6831ZM9.25088 26.6817C9.15914 27.1508 9.12071 27.6379 9.06357 28.1128L8.7211 30.6792L8.29828 35.5444C8.28155 35.7736 8.2418 35.9996 8.23177 36.2298L8.22732 37.3399C8.22802 37.7135 8.22042 38.0565 8.34403 38.4136C8.99527 40.2955 11.2816 40.0607 12.2341 38.6043C12.4714 38.263 12.3876 37.9053 12.491 37.4658L14.1152 30.1974C14.2022 29.7876 14.2755 29.346 14.399 28.9465L9.25088 26.6817ZM25.9821 30.1221L24.7289 30.1258L24.7292 38.2703L31.7585 38.2698C31.9837 38.27 32.2412 38.2959 32.4633 38.2693L33.6752 38.2939L32.5552 30.8081C32.5298 30.5929 32.5461 30.3204 32.4809 30.1172L25.9821 30.1221ZM15.5677 30.1234L13.8004 38.2561C13.8648 38.3025 20.7708 38.2694 21.5277 38.2693L23.272 38.272L23.271 30.133L15.5677 30.1234ZM14.2027 39.7311L14.2538 39.8866C14.2894 39.9698 14.3709 40.0568 14.4267 40.129C15.1863 41.1127 16.3094 41.2665 17.4443 41.2673L23.2928 41.2668C23.2741 41.0878 23.3042 39.8169 23.2525 39.7283L14.2027 39.7311ZM24.7272 39.727L24.7305 41.2661L30.5477 41.2668C30.8678 41.2663 31.1978 41.2831 31.5121 41.2142L31.5892 41.1977C32.1427 41.0787 32.6172 40.9287 33.1054 40.6336C33.4305 40.3746 33.5949 40.1263 33.7449 39.7407L24.7272 39.727Z" fill="black"/>
</svg>
