<svg width="48" height="48" viewBox="0 0 48 48" fill="none" xmlns="http://www.w3.org/2000/svg">
<path d="M28.9035 44.9225C28.3564 44.9223 27.7904 44.8963 27.2454 44.9345L25.1932 45.1036C24.7831 45.1288 24.3884 45.1653 23.9764 45.1652C22.749 45.165 21.5722 44.9128 20.2984 44.9152L18.8315 44.9167C17.5397 44.915 16.2539 45.0442 14.9647 44.9203C12.7093 44.7037 10.4305 43.6713 9.79603 41.283C9.68597 40.8687 9.76359 40.4304 9.76509 40.0061L9.75604 35.9344C9.74723 35.7355 9.68629 35.5483 9.68203 35.349L9.67092 32.7494L9.40575 27.2719C9.37092 26.5018 9.30862 25.7722 9.27722 25.0014L9.20343 23.9689C9.08831 22.2132 8.83223 21.089 9.66904 19.4356C9.81581 19.1457 9.99318 18.8781 10.1238 18.579C10.7877 17.0593 10.7944 14.9159 10.5977 13.2652C10.4581 12.0935 9.94509 10.8387 10.5006 9.69825C11.3235 8.00887 12.3478 8.06901 13.8397 7.78026C14.3949 7.67278 16.214 7.27186 16.6522 6.95962C17.6652 6.23789 17.2111 5.30625 17.4275 4.46026L17.4357 4.42945C17.6267 3.65092 18.339 3.09774 19.1219 3.00881C19.4347 2.95858 19.8213 3.02569 20.1438 3.02969L28.1132 3.02468C29.1472 2.98834 30.3258 3.08215 30.6468 4.34096L30.6571 4.38258C30.8174 4.91414 30.6912 5.50917 30.7898 6.06558L30.8405 6.28101C31.0858 7.25944 32.6249 7.47581 33.437 7.61161L34.4062 7.773C34.9415 7.83755 35.4524 7.8622 35.953 8.08964C37.1054 8.61319 37.8393 9.79547 37.8243 11.0505C37.8171 11.6594 37.5985 12.2787 37.5041 12.8797C37.2776 14.3214 37.1322 16.4252 37.6082 17.8092L37.8363 18.4756C37.9474 18.7877 38.143 19.0653 38.2936 19.3591C39.2547 21.2337 38.7882 23.1318 38.6643 25.1657L38.6017 26.3438C38.5715 26.8497 38.5171 27.3463 38.4949 27.8544L38.4247 29.7845C38.4142 30.057 38.3624 30.3252 38.3517 30.5974L38.3387 31.8973C38.3289 32.0639 38.2858 32.2282 38.2797 32.3933L38.2811 38.5896C38.2979 39.3979 38.5793 40.232 38.4214 41.0394L38.3753 41.2554C38.004 42.9705 35.8683 44.3957 34.2817 44.7899C33.3607 45.0187 32.5846 44.9352 31.6507 44.9229L28.9035 44.9225ZM19.3868 4.29472C19.2804 4.31353 19.1765 4.33498 19.078 4.38112L18.8896 4.48737C19.6315 5.04075 20.6552 5.43155 21.5624 5.53205C21.7801 5.55619 22.0419 5.48644 22.2471 5.5703C22.7138 5.76112 22.7679 6.31964 22.8951 6.73805L23.2919 8.03419C23.3831 8.34895 23.4538 8.69414 23.5702 8.99761L23.8139 9.72028C23.8559 9.84576 23.9345 9.95967 24.0204 10.0585L25.129 6.36984C25.3782 5.36644 25.6927 5.60461 26.4201 5.52698C27.3947 5.42306 28.3662 5.05983 29.1438 4.45855C28.5918 4.19433 28.1484 4.39803 27.5741 4.45501C27.3014 4.48206 27.0136 4.46383 26.7396 4.4633L20.5824 4.45754C20.17 4.45468 19.6581 4.27731 19.3868 4.29472ZM18.7071 5.94117C18.5995 6.249 18.5336 6.57422 18.397 6.87178C18.2952 7.0934 18.1447 7.28451 18.0423 7.50183C19.0836 8.78522 20.31 9.60984 21.9518 9.95161L22.4882 10.0196L21.7335 7.39345C21.6877 7.23661 21.6465 7.03345 21.5693 6.89123L21.5488 6.89015C20.8128 6.84417 20.0011 6.54787 19.3405 6.24586L18.9659 6.06609C18.8832 6.02137 18.8001 5.96034 18.7071 5.94117ZM29.337 5.96461C28.4243 6.52008 27.3808 6.76725 26.3305 6.90487C26.2854 7.16869 26.1969 7.42528 26.1239 7.68239L25.746 8.98439C25.6423 9.33605 25.52 9.67748 25.4389 10.0357L25.9762 9.9533C27.2433 9.73551 28.3562 9.13711 29.2861 8.25605C29.5143 8.03986 29.8403 7.76105 29.975 7.47389C29.525 6.78019 29.5986 6.62231 29.391 5.96901L29.337 5.96461ZM17.0234 8.3318C16.2548 8.60339 15.4576 8.83767 14.6601 9.00745L13.5351 9.23583C13.1772 9.29728 12.848 9.2842 12.5108 9.44437C11.5893 9.88223 11.5248 10.7782 11.6806 11.6677L11.8604 12.7029C12.1904 14.8522 12.1383 17.0765 11.3273 19.1172C10.8147 20.4071 10.2931 20.7081 10.3636 22.3947L10.6505 22.3104C12.5069 21.7723 13.3006 19.1556 13.5788 17.4776C13.7826 16.2488 13.7271 15.3234 13.6029 14.1209L13.3816 12.7717C13.3362 12.552 13.2622 12.282 13.2647 12.0586C13.2714 11.4591 14.2896 11.103 14.5488 12.0232C14.7407 12.7043 14.839 13.4106 14.9194 14.1113C15.2804 17.2582 14.5955 22.352 11.0986 23.5914L10.6622 23.7238C10.396 23.7961 10.5466 24.0489 10.5577 24.2701C10.58 24.7118 10.5383 25.2 10.6238 25.6329L10.6408 25.7007C10.7891 26.2938 10.5883 26.9482 10.7305 27.5561C10.7677 27.7152 10.751 27.9104 10.7568 28.0741L10.79 29.4959C10.7948 29.6713 10.8309 29.846 10.8419 30.0216L10.8767 31.1716C10.8842 31.3065 10.9127 31.4369 10.9228 31.5697L11.0359 32.9572C11.0441 33.0533 10.9962 33.2242 11.0644 33.2961C11.0705 33.816 11.1291 34.3631 11.1443 34.8633L11.1454 40.2661C11.1432 40.9275 11.0856 41.0719 11.4517 41.6663C12.2369 42.9413 13.7609 43.5113 15.2017 43.5637L19.6432 43.5139C20.122 43.5137 20.6685 43.4656 21.1367 43.5652L23.3439 43.8062L23.3463 13.326C23.346 12.6961 23.4245 12.4128 23.1566 11.8335L22.9503 11.3721C20.75 11.3537 18.6309 10.3323 17.2537 8.60016C17.2 8.53266 17.1023 8.36142 17.0234 8.3318ZM30.9678 8.36076C29.583 10.0752 27.3356 11.5552 25.0505 11.3406C24.7775 12.2218 24.7027 11.8147 24.7045 12.8725L24.7032 43.3015C24.7006 43.4551 24.6714 43.6085 24.6829 43.7615L25.4052 43.7118C26.116 43.6771 26.8551 43.5709 27.5344 43.5551L31.4049 43.5461C32.3161 43.5463 33.2796 43.6312 34.1681 43.4055C35.3326 43.1097 36.7736 42.0755 37.0786 40.8396L37.0872 40.8075C37.1538 40.5476 37.0767 40.2122 37.0554 39.949L37.0202 39.3165C36.9962 39.0391 36.9535 38.76 36.9471 38.4819L36.9421 34.0955L37.0496 30.2341C37.0604 30.0323 37.1021 29.8334 37.1105 29.6303L37.1337 28.4736C37.1426 28.1427 37.2057 27.8371 37.2173 27.5096L37.2421 26.6107C37.2507 26.4546 37.2822 26.3031 37.2934 26.1479L37.4107 24.1953C35.2479 22.9981 34.1161 21.6658 33.4137 19.2623C32.8713 17.4064 32.8575 15.3389 33.1663 13.4403C33.2069 13.1908 33.2335 12.771 33.3562 12.5592L33.4067 12.4822C33.7237 12.0254 34.4892 12.2496 34.5613 12.79C34.5886 12.9945 34.5366 13.2175 34.5014 13.4177L34.4046 14.0451C34.0418 16.9875 34.4493 20.7619 37.2517 22.435C37.3462 22.4915 37.4482 22.5113 37.5237 22.5951L37.5316 21.8674C37.5664 20.6019 37.218 20.3062 36.6878 19.1973C35.8341 17.412 35.8282 14.8743 36.1314 12.9508L36.316 11.9637C36.5422 10.8937 36.6512 9.73856 35.3194 9.27815C35.0512 9.18544 34.7638 9.19209 34.4865 9.14873C33.7094 9.02728 31.5998 8.75255 30.9678 8.36076Z" fill="black"/>
<path d="M14.7864 38.7886C14.0922 38.8365 13.9904 38.3694 13.9893 37.831L13.9883 36.9907C13.9875 35.7349 13.9791 34.4858 14.079 33.2332L14.253 31.8525C14.4264 30.5281 14.6793 29.2193 14.977 27.9176L15.2391 26.8257C15.34 26.4249 15.3694 26.1582 15.8173 26.0167C16.1089 25.9973 16.353 26.1141 16.4854 26.3849L16.4993 26.414C16.7344 26.8751 16.3248 27.8617 16.223 28.3359L15.8534 30.1291L15.3567 33.6102C15.3262 33.8261 15.3408 34.0439 15.3291 34.2612L15.2934 37.8868C15.2932 38.3355 15.2527 38.597 14.7864 38.7886Z" fill="black"/>
<path d="M33.4689 38.8039C32.7344 38.888 32.677 38.2044 32.684 37.6947L32.6877 36.9171C32.6862 35.6082 32.706 34.5297 32.5665 33.2293L32.4186 31.857L31.6394 27.7984C31.51 27.1734 31.1685 26.2759 31.9932 26.0164C32.4699 25.9878 32.6194 26.3202 32.7201 26.7305L33.0353 27.9927C33.0964 28.2213 33.1352 28.4667 33.183 28.6993L33.3368 29.3911C33.3846 29.6513 33.4174 29.9167 33.4697 30.1758L33.657 31.3125C33.825 32.3939 33.9571 33.4821 33.997 34.5775L34.0006 37.9563C34.0004 38.0763 34.0185 38.2464 33.9613 38.3548L33.9479 38.3789C33.8318 38.6049 33.7036 38.7108 33.4689 38.8039Z" fill="black"/>
</svg>
