<svg width="48" height="48" viewBox="0 0 48 48" fill="none" xmlns="http://www.w3.org/2000/svg">
<path d="M19.535 40.3054C17.3138 39.7143 15.4708 37.7358 15.2104 35.4219C15.1577 34.9542 15.1775 34.4712 15.1855 34.0017L15.2916 31.4035C15.3024 30.9344 15.3574 30.4571 15.3967 29.9887L15.5871 26.94L15.6963 25.6649C15.8523 24.1953 15.6233 23.7461 15.4554 22.3292C15.1519 22.8063 14.9015 23.3194 14.625 23.8129L12.032 28.4397C11.8218 28.8509 11.6466 29.1236 11.378 29.502L7.74294 34.7479C7.29275 35.4359 6.64949 36.0477 5.72727 35.7704C5.42933 35.6808 5.15694 35.4806 4.88211 35.3349C3.73616 34.7273 1.85588 34.1129 2.34802 32.4247C2.40805 32.2187 2.52306 32.018 2.60212 31.8168L5.55777 24.4926C5.87858 23.707 6.4153 22.9583 6.96055 22.3112C7.28099 21.931 7.6086 21.5978 7.86336 21.1654L10.9799 15.5362C12.232 13.3737 12.0278 13.3163 14.2657 12.2612L17.2257 10.8135C17.3689 10.7435 17.5056 10.6505 17.6533 10.5916L17.5375 9.75475C17.4727 9.45761 17.4043 9.14101 17.4497 8.83511L17.4551 8.80122C17.624 7.66375 19.0567 7.56948 19.9598 7.57178C21.0981 7.57469 21.3599 7.9292 22.3664 8.13358C24.4352 8.55367 26.2505 7.75862 28.2343 7.5573C28.2769 7.54286 28.3551 7.55144 28.4009 7.55064C29.1543 7.53761 30.1332 7.80925 30.4797 8.54176L30.5622 8.71919C30.6834 8.97236 30.673 9.35964 30.5988 9.62622L30.3869 10.4503C30.3199 10.7259 31.0158 10.8749 31.2885 10.9902L32.976 11.7197C33.2951 11.8532 33.6442 11.9532 33.9486 12.1169C35.3287 12.8591 36.0493 13.8322 36.8031 15.1293L39.4966 19.9652C39.8429 20.5844 40.1249 21.2392 40.5872 21.786C41.0068 22.2824 41.5098 22.7346 41.8282 23.3088C42.3423 24.236 42.7249 25.201 43.1243 26.1801L45.3992 31.9106C46.0975 33.8678 45.4781 34.135 43.8121 34.9809L42.6256 35.6039C41.5521 36.1157 40.9391 35.6361 40.3258 34.8308L36.7158 29.7568C36.2443 29.1086 36.048 28.8411 35.6621 28.1109L33.4164 23.9887C33.1206 23.4682 32.8012 22.948 32.5477 22.4057C32.5318 22.5797 32.4835 22.757 32.4522 22.93L32.2265 24.2157C32.1645 24.6414 32.1854 24.9503 32.2287 25.3758L32.6311 31.0939C32.641 31.254 32.6783 31.4093 32.6879 31.5693L32.8274 33.8676C33.1829 37.0129 31.2131 39.9991 27.9486 40.4702C27.3016 40.5635 26.583 40.5492 25.9303 40.5177L23.2821 40.3816C22.8953 40.3816 22.5045 40.3715 22.1186 40.3975L21.2572 40.4901C20.6927 40.5477 20.0808 40.4402 19.535 40.3054ZM28.3755 8.93894L24.8969 9.51794C24.0776 9.65092 22.436 9.571 21.67 9.35214C20.6074 9.04858 19.9996 8.69945 18.785 9.11359C18.8671 9.8043 19.2311 10.4337 19.2164 11.1522C19.2099 11.4713 19.1881 11.7761 19.2101 12.0959C19.3264 13.7873 20.6676 14.9236 21.8276 15.9851C22.5369 16.6602 23.0991 17.1867 23.6485 18.0166C23.7882 18.2275 23.8847 18.4609 24.0214 18.673C24.9047 16.4744 27.2846 15.5403 28.3253 13.501C28.6719 12.8218 28.6056 12.4429 28.7313 11.736L29.3102 9.11664C29.0271 9.00016 28.6847 8.90209 28.3755 8.93894ZM30.1673 11.9066C30.0177 12.5561 29.936 13.198 29.6705 13.8168C28.3974 16.7839 24.876 17.521 24.6865 21.2039L24.6747 38.2385C24.6745 38.5084 24.657 38.7911 24.6833 39.0592L26.0251 39.107C26.6711 39.131 27.4028 39.2306 28.0299 39.0342C29.8273 38.6769 31.2291 37.0772 31.4845 35.2856C31.5575 34.7736 31.4887 34.1928 31.4486 33.6801L31.0226 27.0489C30.9683 26.2078 30.822 25.3587 30.8511 24.5146C30.8767 23.7722 31.0668 23.0043 31.2189 22.2778L31.3936 21.5267C31.6511 20.5296 31.3946 20.4973 31.2212 19.5482C30.8298 17.4066 30.979 15.9162 31.918 14.0052L32.318 13.232C32.3478 13.1784 32.486 12.989 32.4868 12.9377L30.9796 12.2756C30.7131 12.1584 30.4155 12.0582 30.1673 11.9066ZM17.8716 12.0143L15.8623 13.0132C15.9454 13.3492 16.013 13.6879 16.125 14.0161C16.3555 14.6916 16.6375 15.1426 16.7965 15.8793C17.0293 16.958 17.061 18.274 16.8393 19.3601L16.5579 20.5298C16.5182 20.7372 16.5141 20.7888 16.5551 20.9993L17.0166 23.5551C17.0815 23.9056 17.1256 24.2642 17.1266 24.6202L17.1222 25.2863C17.1158 25.4382 17.0844 25.5857 17.0677 25.7365L16.9724 26.6604C16.9456 26.9707 16.9611 27.2835 16.9415 27.5947L16.6824 31.1677C16.6445 31.9328 16.5895 32.6656 16.5602 33.434C16.5366 34.0521 16.4197 34.6774 16.5304 35.2936C16.888 37.2849 18.2177 38.7209 20.2756 39.043C21.0697 39.1906 21.5313 39.0344 22.2416 39.0182L22.9434 39.011C23.0507 39.0101 23.1912 39.0259 23.2935 38.998L23.2942 23.0386C23.2941 20.845 23.4027 19.4083 21.7232 17.7265L20.8335 16.85C19.5564 15.6722 18.1199 14.3691 17.9228 12.5357C17.905 12.3698 17.9146 12.1726 17.8716 12.0143ZM33.6804 13.5295L33.0168 14.839C32.4893 15.9784 32.2954 16.8674 32.4044 18.1217C32.4386 18.5147 32.4333 18.9691 32.5361 19.3509L34.4886 18.5152L36.6114 17.5422L35.3418 15.3198C34.9174 14.6265 34.4027 13.9359 33.6804 13.5295ZM14.559 13.6293C13.5449 14.065 13.214 14.2807 12.6822 15.262L11.3881 17.5164L13.4106 18.4688L15.4591 19.4168C15.7091 18.3637 15.7559 17.0647 15.4565 16.0051C15.3264 15.5449 15.1129 15.1055 14.9506 14.6555L14.7448 14.045C14.7043 13.9075 14.6773 13.7392 14.612 13.6131L14.559 13.6293ZM10.7383 18.7153L9.84397 20.3325C9.19499 21.576 8.95377 22.0835 8.03933 23.1225C7.08003 24.2123 6.80624 25.0067 6.27186 26.3157L3.96266 32.0275C3.57639 33.0166 3.32928 32.973 4.23983 33.4432L4.86533 33.7808C5.30469 34.0214 5.75684 34.3188 6.22316 34.4981L6.83844 33.6098L10.7379 28.0317C10.9767 27.6497 11.1726 27.2325 11.3893 26.837L14.8716 20.5955L11.217 18.9228C11.0674 18.8548 10.8964 18.7542 10.7383 18.7153ZM37.2603 18.7247L33.0766 20.5801C33.2757 21.0256 33.5293 21.4477 33.7673 21.8731L36.2872 26.3779C36.6254 27.0099 36.931 27.6548 37.3157 28.2613C37.6533 28.7935 38.0606 29.2877 38.427 29.8012L41.138 33.606L41.775 34.469C42.1943 34.3121 42.6073 34.0523 43.0072 33.8454L44.3882 33.143C44.2589 32.5022 43.9378 31.8821 43.7075 31.2714L41.4922 25.7687C41.2509 25.1893 41.0412 24.6349 40.7185 24.0916C40.1856 23.1941 39.3828 22.5895 38.8446 21.6245L37.3806 18.9307C37.3507 18.8752 37.3047 18.764 37.2603 18.7247Z" fill="black"/>
</svg>
