<svg width="48" height="48" viewBox="0 0 48 48" fill="none" xmlns="http://www.w3.org/2000/svg">
<path d="M32.1905 39.7028C30.9173 40.4732 29.9245 40.2965 28.5402 40.2417C27.0646 40.1833 25.6353 40.1064 24.1599 40.1045L21.4262 40.1118C21.2326 40.1198 21.0428 40.1567 20.8502 40.1765L19.2562 40.3345C18.3292 40.473 17.8575 40.5694 16.9632 40.2565C15.3848 39.7042 14.4511 38.6924 14.1102 36.991C14.038 36.6309 14.0672 36.2394 14.067 35.8724L14.0869 29.4895L12.6577 34.6642C12.1816 36.2323 10.948 40.2755 9.50092 41.2159C8.53154 41.8458 7.60759 41.6619 6.55422 41.4671L5.18636 41.2094C4.22775 40.9954 3.5453 39.9928 3.60081 39.0267C3.61721 38.7414 3.69071 38.4474 3.74824 38.1681L6.63521 23.0627L7.02934 20.6017C7.28392 18.6726 7.52186 17.2451 8.13423 15.3832C8.26342 14.9903 8.43104 14.5952 8.53511 14.196C8.5914 13.98 8.51781 13.7484 8.57162 13.5236C9.17457 11.0069 11.2883 8.06814 14.2232 8.7752C14.341 7.49565 14.9116 6.47655 16.3054 6.31337C16.4389 6.27695 16.6376 6.32256 16.7721 6.34834L22.2183 7.42816C25.3277 8.05923 25.7395 8.01273 28.6402 7.22228L30.2308 6.81334C31.1333 6.56945 32.0096 6.25919 32.872 6.8417L32.9058 6.8649C33.2598 7.1042 33.4732 7.43626 33.655 7.81656L33.7507 8.05094C33.7912 8.15031 33.8306 8.25498 33.8393 8.3628L33.921 8.89548L34.7677 8.68375C35.3773 8.56459 35.9432 8.77337 36.4707 9.064C37.8559 9.82712 39.297 12.0861 39.4004 13.7014C39.4104 13.8567 39.3724 14.022 39.4138 14.1734L39.4227 14.2033C39.5078 14.5009 39.6699 14.796 39.7797 15.0881C40.0671 15.8528 40.2992 16.6924 40.4459 17.4926L44.4671 38.9845C44.5028 39.1689 44.4994 39.4253 44.451 39.6065L44.4343 39.6755C44.2891 40.4421 43.5812 41.1213 42.8439 41.3056C42.1766 41.4723 41.4667 41.4735 40.7896 41.6312L40.7222 41.6466C39.9266 41.8032 39.1281 41.6722 38.4586 41.2002C37.3311 40.4055 35.98 36.6288 35.5763 35.3679L34.6786 32.2332C34.4291 31.3472 34.1669 30.4616 33.9954 29.5562L33.9793 29.672C33.9127 30.1572 33.9812 30.6879 33.9836 31.1772L33.9847 34.7764C33.9844 35.4656 34.0408 36.2097 33.9322 36.8932L33.8419 37.3447C33.67 38.2973 32.9555 39.1587 32.1905 39.7028ZM16.3082 7.78426C16.0381 7.86798 15.8565 7.98803 15.7128 8.23844L15.6967 8.26539C15.5444 8.53159 15.5905 8.96392 15.5231 9.26148C15.592 9.42339 16.211 9.50959 16.3749 9.5559L21.4566 10.969L22.2418 11.1159C23.2115 11.3179 25.4044 11.2553 26.375 11.0347L31.5366 9.5837L32.589 9.30222C32.4392 8.58775 32.4114 7.74578 31.4227 8.00622L28.6892 8.73086C28.0757 8.90523 27.4514 9.12995 26.8252 9.2448C25.2168 9.53983 23.5644 9.21109 21.9908 8.88165L17.2559 7.92873C16.9569 7.8715 16.611 7.76481 16.3082 7.78426ZM13.1186 10.252C12.9058 10.2774 12.7165 10.3105 12.5163 10.3896L12.473 10.4065C11.4385 10.8163 10.8046 11.8537 10.3911 12.8295L10.2069 13.3742C10.5083 13.6369 10.876 13.8567 11.2027 14.0886L12.9097 15.3055C15.2965 17.0633 15.6692 18.1422 15.6666 21.0267L15.6612 22.9281L15.5597 25.1608L15.5511 34.2211C15.551 34.699 15.4644 36.0071 15.9371 36.3298C16.0361 36.3514 16.1445 36.2971 16.2372 36.2637C17.4787 35.8163 18.7999 35.5957 20.1035 35.4278L21.2105 35.3136C21.3619 35.2987 21.5098 35.2704 21.6623 35.2625L24.7613 35.2616L27.6008 35.4724C28.8621 35.5765 30.1794 35.7265 31.3755 36.1616C31.7296 36.2905 32.0642 36.3996 32.4207 36.1844L32.479 21.4915C32.4772 19.2502 32.5063 17.9505 34.2641 16.2135L36.1305 14.6356L37.3119 13.717C37.5016 13.5747 37.691 13.4209 37.8957 13.3013C37.3511 12.0424 36.3792 10.1007 34.7222 10.2715C34.3643 10.3084 34.0243 10.4353 33.6793 10.53L29.8238 11.6284C27.3691 12.3709 26.176 12.7877 23.5556 12.7122C23.5019 13.3392 23.5364 13.9919 23.5361 14.622L23.5375 33.2796C23.5375 34.8242 22.1787 34.244 22.1147 33.6212C22.0896 33.3766 22.1033 33.1214 22.1032 32.8752L22.1038 13.2673C22.1037 12.7985 22.268 12.595 21.8405 12.5457L21.8003 12.5414C21.5353 12.5117 21.2639 12.4369 21.0044 12.3747L15.2003 10.7584C14.5587 10.573 13.7968 10.2047 13.1186 10.252ZM38.1932 14.9295L36.2239 16.4432C34.2241 18.0991 33.8097 18.9734 33.8213 21.5603C33.8236 22.0795 33.8428 22.5587 33.9263 23.0693L34.5569 25.9618C34.6651 26.4381 34.757 26.9346 34.9084 27.3998L36.1959 32.3541L37.2691 35.8595C37.777 37.169 38.2928 38.6942 39.1259 39.8424L39.2272 39.9417C39.3752 40.0794 39.572 40.1893 39.773 40.2213L39.8099 40.2274C40.0418 40.2632 40.2932 40.2067 40.523 40.1683L41.7418 39.9625C43.2147 39.7526 43.1793 39.6923 42.8724 38.1095L39.398 20.2033C39.2536 19.4703 39.2298 19.1371 39.177 18.4168C39.1251 17.7086 38.6126 15.5032 38.1932 14.9295ZM9.83453 14.965C8.9935 16.9107 8.7842 18.5421 8.49043 20.5734L7.93159 24.1022L5.11257 38.7328C4.97917 39.3912 5.14304 39.7738 5.80342 39.8763L6.34234 39.9728C6.89879 40.0767 7.51389 40.2942 8.08553 40.225L8.12073 40.2217C8.42003 40.1919 8.69645 40.0048 8.90007 39.7936C9.89073 38.7199 10.8095 35.7903 11.2136 34.4289L13.3892 26.4276C13.7785 24.7727 13.9747 23.3402 14.0849 21.633C14.2489 19.0943 14.2084 18.0387 12.1272 16.5422L10.8211 15.6211C10.515 15.4069 10.2056 15.1263 9.87334 14.9615L9.83453 14.965ZM22.5962 36.7202L21.3685 36.7396C20.6815 36.7812 19.6935 36.9305 19.0322 37.0578L17.8629 37.3217C17.2145 37.4986 16.624 37.7194 15.943 37.7108C16.2649 38.336 17.0236 38.7765 17.6832 38.9249C18.1575 39.0316 18.5747 38.9041 19.0491 38.8405L19.7808 38.7428C20.4126 38.6761 20.9092 38.6599 21.5416 38.631C21.7249 38.6226 21.9033 38.5786 22.087 38.5717L25.4092 38.6289L29.5398 38.8365C29.8321 38.8368 30.1694 38.8666 30.4566 38.8121L30.7189 38.7416C31.3347 38.5918 31.7961 38.1823 32.1807 37.6997C32.1451 37.6856 32.1398 37.6902 32.1026 37.6945C31.393 37.7773 30.697 37.4339 30.0187 37.2815C29.5144 37.1682 28.9888 37.0944 28.4762 37.0304L26.4094 36.8325L22.5962 36.7202Z" fill="black"/>
<path d="M25.1283 24.8315C24.2171 24.7687 24.3651 23.8593 24.3656 23.1891L24.3669 15.6711C24.3672 15.0343 24.3202 14.5092 25.0744 14.373C25.5244 14.3889 25.786 14.6545 25.7904 15.084L25.7838 24.1874C25.7814 24.2676 25.7631 24.3292 25.7251 24.4002L25.6588 24.5139C25.5252 24.704 25.3515 24.7931 25.1283 24.8315Z" fill="black"/>
</svg>
