<svg width="48" height="48" viewBox="0 0 48 48" fill="none" xmlns="http://www.w3.org/2000/svg">
<path d="M29.4493 38.2317L18.6042 38.2316C18.2526 38.2314 17.8423 38.2711 17.4962 38.2175C15.695 37.9382 14.5254 36.6167 14.523 34.8185L14.5262 29.0669C14.5259 28.4891 14.3961 28.0598 14.1562 27.5299L10.7886 36.8544C10.5598 37.6199 10.519 37.5159 9.99742 38.1355L9.06948 39.2647C7.83188 40.8026 8.12692 40.5871 6.32401 40.1523L2.95127 39.3079C1.94471 39.0908 1.79335 39.0156 1.78839 38.0377L1.69703 35.0959C1.68448 34.5651 1.67284 34.6539 1.89988 34.2015L2.20328 33.5318L8.48378 16.8387C8.7691 16.083 8.97442 15.338 9.39512 14.6381C10.5903 12.6498 12.4109 12.0769 14.5114 11.7225L15.9376 11.4628C16.4535 11.3696 16.9751 11.2914 17.4849 11.1655C17.8019 10.111 18.3932 8.99598 19.6135 8.84433C19.7109 8.83285 19.8121 8.84471 19.9063 8.87012L19.9454 8.88104C20.1825 8.94507 20.3703 9.08049 20.5849 9.19496C22.4027 10.1648 25.5456 10.2259 27.3909 9.20101C27.5618 9.10604 27.7363 8.98698 27.9172 8.91357C29.2171 8.38641 30.2198 10.1047 30.5025 11.1691L32.8739 11.6125C36.5136 12.2376 38.1891 12.9511 39.3901 16.4862L43.6646 27.9142L46.2516 34.5877C46.3689 34.9368 46.2947 35.4142 46.2943 35.7786L46.2348 37.8048C46.2258 38.102 46.3489 38.6971 46.1369 38.9309L46.1133 38.956C45.7522 39.3456 45.0923 39.3704 44.6022 39.4806L40.9776 40.3364C39.5733 40.6395 39.6532 40.1587 38.8629 39.1986L37.9149 38.0563C37.2505 37.2696 37.4469 37.6404 37.138 36.6452L34.2109 28.5292C34.0979 28.2164 33.9578 27.8975 33.8735 27.5764L33.5931 28.2526C33.399 28.6523 33.5187 29.8181 33.5182 30.2986L33.5119 34.9216C33.4891 36.653 32.1633 38.0393 30.4329 38.2231C30.1151 38.2569 29.77 38.2322 29.4493 38.2317ZM27.6324 10.7462C25.2349 11.6307 22.9479 11.6022 20.5333 10.8176C20.9883 11.9181 21.5511 12.8508 22.4362 13.669C23.0404 14.2979 23.5417 14.9949 23.9193 15.7829L24.0941 16.0675C24.6676 14.7893 24.9938 14.2758 25.9545 13.3087C26.5003 12.7591 27.4927 11.545 27.6662 10.7496L27.6324 10.7462ZM19.0858 11.1375C18.8003 11.6801 18.6616 12.4712 18.8923 13.0548L19.0644 13.467C19.6397 14.6694 20.7991 15.6334 22.045 16.0818L22.3766 16.1912C22.4262 16.2111 22.4747 16.2318 22.5268 16.2443C22.3234 15.8998 22.1124 15.5503 21.861 15.2378C20.7763 13.8892 19.5631 12.9597 19.0858 11.1375ZM29.0993 11.2479C28.7571 12.0062 28.3858 12.7599 27.8629 13.4111C27.7457 13.5571 25.0191 16.3631 25.8105 16.1393C27.0989 15.7394 28.3155 14.7528 28.9394 13.5543C29.3543 12.7575 29.3259 12.07 29.0993 11.2479ZM17.3102 12.8321C16.6374 12.9016 15.9632 13.063 15.295 13.1742C13.3524 13.4976 11.5077 13.6689 10.4686 15.6932C10.2848 16.0512 10.1756 16.4533 10.0382 16.8311L8.15767 21.8179C7.96979 22.3045 7.8189 22.8153 7.61138 23.2926L7.39853 23.8754L13.1347 26.0937C13.3033 25.6035 13.5299 25.1138 14.1329 25.2142L14.1641 25.2189C14.3537 25.2489 14.5156 25.3644 14.6266 25.5193L15.0931 26.2642C15.3871 26.7543 15.5848 27.2289 15.7848 27.7577C15.8743 27.9944 15.8684 28.2717 15.9163 28.5164L23.2562 28.8536L23.2637 17.9417C23.0957 17.8663 22.866 17.8559 22.6812 17.8161C20.226 17.2877 17.8258 15.4121 17.3543 12.8447L17.3102 12.8321ZM30.7248 12.8161C30.0316 15.6769 27.5994 17.5348 24.7277 17.9265L24.7034 28.8344C25.0303 28.8675 25.3677 28.8511 25.6962 28.8508L29.5882 28.7932C29.7932 28.7867 29.9859 28.7368 30.1888 28.7241L31.3255 28.6464C31.5587 28.6347 31.7945 28.6432 32.0267 28.6219C32.0535 27.7431 32.4797 27.0394 32.8758 26.283C33.0901 25.9222 33.3088 25.3593 33.7454 25.2349C34.2209 25.0994 34.6843 25.3875 34.7843 25.8684L34.8348 26.0925L40.6079 23.8543L37.8332 16.3918C37.3871 15.2141 36.6401 14.2985 35.4587 13.771C34.7688 13.4631 34.0094 13.3903 33.2734 13.2538L30.7248 12.8161ZM41.0397 25.254L35.3728 27.4567C35.4026 27.5591 35.4333 27.6545 35.4727 27.7537L37.1383 32.4198C37.1839 32.5551 37.2407 32.8473 37.3477 32.9321L37.4721 32.8958L43.1772 30.7399L41.1194 25.254C41.0644 25.2437 41.091 25.243 41.0397 25.254ZM6.86846 25.2533L4.84918 30.7581C5.25648 30.9687 5.72209 31.1015 6.14935 31.2703L10.6224 32.9651L12.6371 27.4387L6.86846 25.2533ZM15.9588 30.0118L15.9402 32.6029C16.0931 32.6369 16.2483 32.6379 16.4035 32.655L19.4873 32.9955C19.9696 33.0252 20.4632 33.0063 20.9471 33.0064L23.1446 32.9978L23.2561 30.3319L18.6782 30.2586C18.5031 30.2485 18.3339 30.2133 18.1599 30.2016L16.315 30.0628C16.2073 30.0476 16.0644 29.9954 15.9588 30.0118ZM32.0553 30.0587L24.7286 30.3304L24.7591 32.7639L32.0675 32.3466L32.0805 30.8557C32.0802 30.6009 32.1012 30.3229 32.0701 30.0714L32.0553 30.0587ZM43.6185 32.1212L37.8517 34.3056L38.5899 36.3613C38.6597 36.5714 38.837 36.7259 38.9771 36.8907L39.8938 37.9584L40.3141 38.4879C40.381 38.5752 40.4518 38.6994 40.5382 38.7661L44.1797 37.9664C44.3766 37.927 44.5745 37.8753 44.7752 37.862C44.8352 37.2245 44.805 36.5807 44.826 35.9415C44.8462 35.3226 44.9611 35.2993 44.7028 34.7061L43.6824 32.1136L43.6185 32.1212ZM4.34035 32.1292L3.39889 34.4884C3.18002 35.004 3.17169 35.0186 3.18575 35.5628L3.23667 36.9376C3.24793 37.1984 3.21941 37.5049 3.27099 37.7596L7.40509 38.7431L8.1466 37.8897L9.04285 36.8954C9.14743 36.7705 9.2686 36.6589 9.32565 36.504L10.1457 34.3276L4.34035 32.1292ZM31.6134 33.8087L24.7115 34.2197L24.7059 36.7636L25.1837 36.7662L29.7503 36.7656C30.4701 36.7647 31.0497 36.6224 31.5835 36.0841C32.1506 35.5125 32.0843 34.8316 32.0767 34.0899L32.0717 33.8004L31.6134 33.8087ZM15.9469 34.1044C15.8886 35.1863 16.0156 36.1059 17.1352 36.5837L17.5845 36.7311C17.7712 36.7971 18.0299 36.7667 18.2289 36.7668L23.2404 36.7662L23.2562 34.4906C21.9035 34.4431 20.5362 34.5573 19.1854 34.4774C18.1103 34.4138 16.9865 34.1491 15.9469 34.1044Z" fill="black"/>
</svg>
