<svg width="48" height="48" viewBox="0 0 48 48" fill="none" xmlns="http://www.w3.org/2000/svg">
<path d="M24.088 40.3819L20.8743 40.3823C18.8603 40.3821 17.0691 40.4941 15.45 38.9886C13.7898 37.4448 13.6438 35.8598 13.6391 33.798L13.4999 28.3183L12.3348 31.6885C12.1475 32.2117 11.9263 32.3074 11.9259 32.8185L11.9275 33.8504C11.9286 34.3533 11.9505 34.6955 11.4653 34.9888L11.4325 35.0082C11.1714 35.1672 10.7081 35.0842 10.4147 35.0845L7.97309 35.0888C6.83347 35.0982 6.69908 34.7264 6.70273 33.7538L6.71065 32.4245C6.71117 32.3244 6.7362 32.1076 6.68136 32.0279C5.70322 31.4362 5.19237 30.1053 5.49223 29.0031C5.63473 28.4793 5.88397 27.9784 6.08736 27.4754L9.77281 18.6707C10.1547 17.7865 10.4838 16.8356 10.9852 16.0115C12.0573 14.2493 13.4854 13.3641 15.3751 12.7489L16.744 12.3C17.6634 12.0014 18.5892 11.658 19.5266 11.4285L19.5258 10.166C19.5264 9.90211 19.5092 9.60497 19.57 9.34739L19.5805 9.30427C19.8945 7.926 22.3288 7.63383 23.4466 7.58091C24.6915 7.56089 27.9097 7.60744 28.3764 9.1747C28.5349 9.70697 28.3309 11.1044 28.4727 11.4254L33.1993 12.9374C35.3121 13.6774 36.6222 15.0874 37.5291 17.0738C37.6207 17.2745 37.6954 17.4869 37.7939 17.6839L42.2267 28.2282C42.6027 29.1355 42.7316 30.0733 42.2101 30.9641C41.8868 31.5165 41.9065 31.2749 41.906 32.0048L41.907 34.3581C41.9058 35.0168 41.3728 35.0768 40.8222 35.0793L37.7601 35.0828C36.6011 35.0816 36.0327 35.3568 36.0262 33.9466L36.0269 32.7886C36.0285 32.6947 36.0665 32.5102 36.032 32.4305L35.9365 32.2613C35.8453 32.1202 35.796 31.9488 35.7347 31.792L35.4277 31.0049C35.1393 30.2571 34.8171 29.519 34.5935 28.7478C34.5083 29.2663 34.4983 29.7764 34.4527 30.2978L34.3656 31.43C34.3404 31.7191 34.3001 32.0002 34.2987 32.2917L34.3045 34.3419C34.3078 34.659 34.3431 34.9787 34.3181 35.2951C34.0707 38.4168 31.6498 40.3783 28.6092 40.3823L24.088 40.3819ZM23.3191 8.98092L21.7116 9.21281C22.7232 9.50559 23.6907 9.50161 24.7325 9.47325L26.2259 9.23934C25.0591 8.95369 24.5042 8.97713 23.3191 8.98092ZM20.9291 10.4879L20.9178 10.5226C20.8457 11.4252 21.2112 12.3162 20.0157 12.753C19.6166 12.8989 19.2023 13.0009 18.7969 13.1286L16.3828 13.9144C14.3128 14.5751 12.8234 15.258 11.84 17.4231L11.4987 18.2534C11.7216 18.2662 11.9558 18.2679 12.1754 18.3076C14.1386 18.6629 14.7888 20.2178 14.7903 21.9806L14.7942 27.6267C14.797 28.0294 14.8631 28.4167 14.8863 28.818L14.9559 30.3246C14.9767 30.2588 14.996 30.2168 15.038 30.1629C15.4111 29.6839 15.8216 28.3668 16.4649 28.2661C16.952 28.1899 17.3665 28.6941 17.2076 29.1633C17.1498 29.334 17.0499 29.5028 16.9673 29.6633L15.5323 32.3438C15.0522 33.2085 15.1461 32.7666 15.0241 33.7035L15.0505 35.0341C15.0626 35.2589 15.0633 35.4888 15.1264 35.7054L15.1381 35.7619C15.487 37.4688 16.9045 38.6823 18.592 38.9331C19.0499 39.0012 19.5637 38.9577 20.0274 38.9575L23.2963 38.9672L23.2954 10.8536C22.81 10.8253 22.3224 10.7874 21.8446 10.6927L21.2592 10.5625C21.1745 10.5398 21.0119 10.4622 20.9291 10.4879ZM27.0196 10.4879C26.2583 10.7083 25.4903 10.8389 24.7049 10.8269L24.7057 38.2017C24.7049 38.4453 24.6732 38.7165 24.7022 38.9557L28.2589 38.9583C28.8696 38.9585 29.443 38.9624 30.0382 38.7996C31.632 38.3638 32.8556 36.7464 32.9241 35.1152C32.9491 34.5218 32.8892 33.9181 32.9568 33.3277C32.9469 33.019 32.628 32.6399 32.4844 32.369L30.9654 29.5222C30.4001 28.455 31.443 27.9692 31.8968 28.4175C32.1511 28.6688 32.569 29.4768 32.7018 29.7966L33.056 30.4847L33.1249 29.3785C33.1476 29.1362 33.1857 28.8955 33.1955 28.6519L33.2016 22.1374C33.2007 20.8402 33.2075 20.0558 34.3009 19.0833C34.9528 18.5034 35.6518 18.3347 36.4909 18.2303C34.9674 14.4416 32.7747 14.2664 29.177 13.1214C27.7328 12.6617 27.0439 12.6536 27.0468 10.9825C27.047 10.8689 27.0839 10.5832 27.0326 10.4917L27.0196 10.4879ZM36.6504 19.6505C34.9076 19.7654 34.6124 20.6516 34.6096 22.1832C34.6082 22.983 34.5383 24.3542 34.8199 25.0991L36.8147 30.6558C36.8586 30.7677 36.8602 30.8487 36.9289 30.9553L39.2403 30.9518C39.5206 30.9506 39.8642 30.9849 40.1367 30.933C41.1134 30.7468 41.3572 29.7949 41.0118 28.955L37.1122 19.644C36.9624 19.6448 36.7983 19.632 36.6504 19.6505ZM11.215 19.6719L10.8366 19.7471C10.6739 20.0857 10.5478 20.4414 10.4048 20.7886L7.11748 28.6716C7.00901 28.939 6.85742 29.2143 6.79569 29.4957L6.78804 29.5283C6.66233 30.0903 7.12025 30.6468 7.57737 30.9005C7.72414 30.9819 7.92969 30.9546 8.09229 30.9546L9.01179 30.9518L11.1518 30.9588C11.2769 30.4936 11.4423 30.0507 11.5932 29.5943L13.0223 25.2515C13.2598 24.5194 13.3989 24.3657 13.4056 23.5875L13.4084 22.3533C13.4087 21.3208 13.4545 20.272 12.2469 19.7902C11.9133 19.6572 11.5707 19.6361 11.215 19.6719ZM40.4961 32.2144L40.4413 32.2327C40.1216 32.3506 39.653 32.3038 39.3191 32.3043L37.9386 32.307C37.7563 32.3076 37.5396 32.2849 37.3611 32.3185L37.3837 33.1078C37.3833 33.2999 37.3709 33.4971 37.3973 33.6875L37.4493 33.7053L40.5139 33.7081C40.5355 33.546 40.5214 33.3697 40.5213 33.2061L40.4961 32.2144ZM8.18904 32.3726L8.10931 32.3918C8.07711 32.5011 8.102 32.658 8.10261 32.7743L8.10392 33.7071L10.4884 33.7075L10.5944 33.7453C10.6238 33.3164 10.6458 32.7984 10.5938 32.3712L8.18904 32.3726Z" fill="black"/>
</svg>
