<svg width="48" height="48" viewBox="0 0 48 48" fill="none" xmlns="http://www.w3.org/2000/svg">
<path d="M24.3205 41.3941C22.1469 41.4017 20.0053 41.0469 18.0138 40.1489C15.4773 39.005 14.131 37.2743 14.3417 34.5113C14.4261 33.4049 14.6143 32.2877 14.8458 31.203C15.1802 29.6362 15.5724 28.1132 15.3609 26.4982L15.1767 25.4093L12.6396 31.3692L9.83239 37.4912C9.21317 38.9232 9.03214 39.7547 7.28178 39.7272C6.66777 39.7176 6.08844 39.6568 5.55519 39.331C4.71495 38.8178 4.15579 37.7143 4.45794 36.7357C4.5522 36.4305 4.68354 36.1329 4.79998 35.8355L7.77031 27.819L11.003 18.4315C11.3482 17.4887 11.5934 16.4546 12.1382 15.6016C13.3112 13.765 14.4734 13.5086 16.3205 12.9317L17.2566 12.612C17.4027 12.5611 17.5404 12.4955 17.6924 12.463L17.7172 12.458C17.7287 12.3294 17.7348 12.1957 17.7639 12.0698L18.1997 10.0596C18.3664 9.31974 18.5031 8.69415 19.0515 8.13034C20.1915 6.95827 22.0623 6.57535 23.6351 6.55482C25.3047 6.51277 27.006 6.72226 28.4239 7.67288C29.669 8.50763 29.7394 9.6557 30.0937 11.0034L30.4751 12.5649C30.6676 12.6739 31.0195 12.6911 31.2404 12.7473C33.3592 13.2862 35.0522 13.674 36.1282 15.8573C36.2888 16.183 36.3648 16.5205 36.4833 16.8584L36.5482 17.0882C36.5746 17.2183 36.6259 17.3663 36.6715 17.4914L38.734 23.5601L42.9809 35.3199C43.0663 35.5658 43.1266 35.8392 43.2417 36.0728L43.418 36.5229C43.8028 37.73 43.5374 38.8476 42.2981 39.4366C41.6668 39.7366 40.3901 39.8519 39.7442 39.618C38.9053 39.3142 38.5487 38.7295 38.2402 37.9538L32.8498 25.2969L32.7168 26.2527C32.6728 26.739 32.6239 28.2169 32.736 28.7024L33.3838 32.6447C33.5932 33.4465 33.7239 35.1326 33.6393 35.8985C33.3172 38.8132 30.5031 40.0961 28.0276 40.7942C26.8015 41.1399 25.598 41.3695 24.3205 41.3941ZM24.035 7.86901C23.7132 7.86948 23.3741 7.84946 23.0544 7.88026C22.4874 7.93482 19.6791 8.49643 19.9243 9.43313L19.9344 9.47241C20.2662 10.7001 22.9902 10.9514 23.9705 10.9471C25.2149 10.9385 27.7993 10.8129 28.109 9.23087C27.5483 8.09059 25.2187 7.86943 24.035 7.86901ZM19.3089 10.8394L18.9882 12.6691C18.9364 13.0203 18.8826 13.3878 18.9859 13.7339L19.0013 13.7922C19.3619 15.1291 21.7609 15.8739 22.9505 15.9632L23.2659 15.9945L23.2947 12.2635C22.0453 12.1708 20.6453 11.9398 19.6441 11.1205C19.5455 11.0398 19.4257 10.878 19.3089 10.8394ZM28.6806 10.8488C27.6103 11.8149 26.1472 12.2601 24.7147 12.2583C24.6491 12.2582 24.674 12.3261 24.671 12.3864L24.6674 16.0147L25.0489 15.9657C26.3027 15.8588 27.9093 15.4502 28.74 14.4344C29.5424 13.4533 28.9213 11.9253 28.6806 10.8488ZM17.5735 13.8863C14.3767 14.7535 13.3576 15.3501 12.4439 18.4743C12.6971 18.6556 12.9671 18.8053 13.2278 18.9745L14.2976 19.7373C15.665 20.7661 15.9994 21.4313 16.22 23.0661L16.331 23.8562C16.6054 25.6723 16.935 27.3766 16.6242 29.2144L16.265 31.0394C16.0198 32.1973 15.376 35.1145 15.7888 36.2437C16.2306 37.4523 17.1499 38.242 18.2908 38.7831L18.3131 38.7936C19.7179 39.4451 21.6958 40.0283 23.2729 40.033L23.2822 17.7969C23.2871 17.6616 23.3216 17.4744 23.285 17.3457C22.9028 17.2829 22.5105 17.2754 22.1288 17.2038C20.0611 16.816 18.3689 15.9286 17.6348 13.8766L17.5735 13.8863ZM30.4538 13.9097C30.3468 14.1559 30.2919 14.4145 30.1675 14.6601C29.467 16.0423 27.825 16.803 26.3632 17.1154L25.3828 17.2924C24.4504 17.4795 24.6705 16.9415 24.6712 18.387L24.6718 38.8349C24.6718 39.2297 24.636 39.6623 24.683 40.0531C26.0585 39.9156 26.8019 39.7889 28.1547 39.3284L29.4901 38.8461C32.4182 37.5586 32.6165 36.1684 32.1948 33.2854L31.7681 30.7066C31.4936 29.1371 31.2535 27.6477 31.4337 26.0503L31.6821 24.3042C31.8795 22.8543 31.9234 21.4183 33.0508 20.3305C33.5086 19.8888 35.1063 18.6501 35.5976 18.3696C34.7754 15.5399 34.6825 15.0686 31.8865 14.32L30.4538 13.9097ZM35.9893 19.7088C35.7043 19.876 35.456 20.1171 35.1896 20.3137C34.4228 20.8796 33.5374 21.3903 33.2767 22.3759C33.1857 22.7202 33.3199 22.9633 33.4418 23.2847L34.3355 25.4527L39.3669 37.1762C39.5083 37.5444 39.6215 37.9305 39.8773 38.2381C39.9111 38.2686 39.9455 38.2973 39.9842 38.3216L40.1972 38.4203C40.3634 38.4894 40.6506 38.3998 40.8262 38.3766C41.464 38.2924 42.1014 38.3425 42.3375 37.6036L42.3463 37.5751C42.4828 37.1138 42.0281 36.3682 41.8647 35.9291L36.413 20.907C36.2748 20.5141 36.1753 20.0812 35.9893 19.7088ZM11.9796 19.7955C11.5069 20.938 11.1692 22.1492 10.7645 23.3176L8.636 29.4511L6.00847 36.4341C5.90867 36.6736 5.7867 36.9343 5.71892 37.1831C5.5887 37.6608 6.0725 38.1563 6.47661 38.3147C6.68281 38.3956 6.95244 38.3507 7.17167 38.3736C7.64127 38.4226 7.91459 38.5225 8.26981 38.1058C8.51928 37.7214 8.67823 37.2837 8.85884 36.8644L14.3304 23.9206C14.4965 23.5374 14.8827 23.0218 14.7908 22.5913C14.5831 21.6193 13.9224 21.1341 13.1523 20.595L11.9796 19.7955Z" fill="black"/>
</svg>
