<svg width="48" height="48" viewBox="0 0 48 48" fill="none" xmlns="http://www.w3.org/2000/svg">
<path d="M25.2283 38.0104C24.9418 37.7677 24.6851 37.5154 24.4475 37.225L24.0011 36.6382C22.7329 38.3408 21.4489 39.2744 19.1959 39.4358C17.2025 39.5787 15.004 39.5036 13.7738 37.6614L12.4826 41.3048C12.1073 42.5668 11.4653 42.8483 10.1201 42.756L8.90022 42.6606C7.97823 42.5984 7.07186 42.7012 6.50317 41.806L6.48301 41.7739C6.40197 41.646 6.32884 41.5065 6.28248 41.3619L6.27086 41.3249C6.04544 40.6401 6.28942 39.789 6.3738 39.0935L6.83205 35.4841L7.726 25.7454C7.7373 25.566 7.77376 25.3916 7.77916 25.2097L7.78234 17.6101C7.78323 17.2023 7.77161 16.7883 7.80986 16.3818C8.02412 14.1042 9.50941 11.6316 11.6265 10.682C12.3193 10.3712 13.0579 10.1594 13.7716 9.90187L14.1797 9.75102C14.3178 9.7027 14.3013 9.73429 14.3265 9.59142L14.4133 9.18304C14.7511 7.90467 15.5944 7.13413 16.6594 6.43626C18.3434 5.33277 19.4704 4.92102 21.5351 4.7204L26.5531 4.70409C26.8493 4.70437 27.1517 4.69232 27.4467 4.71524C29.5651 4.87996 32.1608 6.19729 33.1182 8.20284C33.26 8.49988 33.5219 9.17001 33.5522 9.51093L33.5623 9.59737C33.6066 9.76227 33.659 9.77596 33.8173 9.83235L35.9239 10.6978C36.3044 10.8588 36.7036 11.0166 37.0646 11.2182C40.0647 12.8929 40.2201 16.2839 40.3235 19.3119L40.3251 23.7957C40.3218 24.0043 40.2851 24.2042 40.2771 24.4099L40.2738 26.5971C40.2938 27.1694 40.3637 27.7249 40.441 28.2913L41.384 34.483L41.6987 37.4027C41.7107 37.5431 41.7129 37.6988 41.7399 37.8365C41.8564 38.4307 41.7318 39.0263 41.7226 39.6208L41.7181 40.6935C41.7173 40.9221 41.7297 41.1676 41.6863 41.3924L41.6794 41.4255C41.4912 42.4034 40.6618 42.6057 39.8465 42.6564L38.086 42.7479C37.7713 42.768 37.4942 42.8421 37.1715 42.8157C35.9617 42.7164 35.6976 41.8355 35.3644 40.92L34.2777 37.679C33.532 38.4871 32.82 39.1917 31.6469 39.366L31.5137 39.3887C31.0447 39.493 29.1177 39.4917 28.6139 39.4027L27.79 39.2706C26.7905 39.0607 26.0167 38.627 25.2283 38.0104ZM21.8103 6.2902L20.7277 6.38643C19.4782 6.57454 18.503 7.07662 17.4723 7.76071C16.2258 8.5881 15.6053 9.44868 15.7908 11.0563C15.8105 11.2272 15.8158 11.3949 15.8787 11.5569L15.9115 11.6606C16.0413 12.1013 16.4627 12.6331 16.8675 12.8449L21.2596 14.5959C20.9028 13.7808 20.6505 12.9179 20.3839 12.0698L20.1076 11.1325C19.9534 10.5537 19.913 9.89892 20.6087 9.61602L20.7316 9.56882C21.0693 9.4416 21.5345 9.51182 21.8882 9.51145L26.2181 9.51154L26.8442 9.50756C27.2863 9.50676 27.6124 9.61129 27.847 10.031L27.8695 10.0701C27.9124 10.1459 27.932 10.2185 27.9585 10.3005L27.9726 10.3359C28.0361 10.5052 27.9865 10.7539 27.9375 10.9216L26.6884 14.6503L29.1658 13.6977C30.3825 13.2216 31.2278 13.0014 31.7772 11.7074C32.302 10.4714 32.0684 8.9691 31.0919 8.01956C29.8816 6.84262 28.2229 6.28621 26.5537 6.28598L21.8103 6.2902ZM21.9233 11.0968C21.8598 11.0999 21.7932 11.0973 21.7312 11.1111C21.7637 11.3112 21.8094 11.5033 21.8819 11.6937L22.7818 14.2405C22.8681 14.4982 23.0171 14.7686 23.1466 15.0081L23.7051 15.9966C23.8043 16.1634 23.8841 16.3305 24.0001 16.4888L24.7476 15.0501C25.2235 14.1474 25.598 13.1955 25.918 12.228L26.1337 11.4828C26.1677 11.3572 26.1929 11.2128 26.2477 11.0949L21.9233 11.0968ZM14.2589 11.4255L13.0001 11.8383C12.6175 11.9693 12.2309 12.0845 11.8781 12.2883C10.3084 13.1949 9.44069 15.3237 9.30555 17.0548C9.27592 17.4343 9.29701 17.8244 9.29805 18.2054L9.3048 19.9216C9.3077 20.0913 9.34216 20.2587 9.34867 20.4283L9.34811 24.4802L9.05041 29.3911L7.77372 40.5847C7.70364 41.359 8.26183 41.0413 8.95708 41.0907L10.2426 41.1897C10.4429 41.2043 10.6451 41.2329 10.846 41.2282C11.4453 39.4044 12.2173 37.635 12.6446 35.7574C12.8306 34.9401 12.8747 34.0984 12.973 33.2692L13.1558 31.7555C13.2184 31.1446 13.1987 30.7568 13.1494 30.1521L12.9458 27.5856C12.922 27.2943 12.8712 27.0051 12.8594 26.7143L12.832 25.4877C12.8242 25.2811 12.7922 25.0777 12.789 24.871L12.7828 23.71C12.78 23.1772 12.704 22.6551 12.5507 22.1415C12.2341 21.0807 11.7775 20.0422 11.6437 18.9326C11.5687 18.3109 11.4288 16.7017 12.0263 16.3616L12.0463 16.3521C12.199 16.2835 12.3503 16.2596 12.5153 16.2846L12.5532 16.2895C13.1342 16.3731 13.135 16.985 13.1275 17.4385C13.1147 18.2195 13.1784 19.0958 13.4447 19.8363L13.979 21.5959C14.2461 22.6927 14.2648 23.1976 14.2668 24.305L14.3601 28.6052C14.3705 28.7241 14.3985 28.8397 14.4058 28.9596L14.5053 30.2714C14.5292 30.4782 14.5435 30.6826 14.5519 30.8903L14.5352 33.2068C14.4748 34.0679 14.319 34.9673 14.5466 35.8137C14.8103 36.7942 15.8513 37.7167 16.8469 37.865C17.4396 37.9532 19.2188 37.8704 19.7581 37.7634C21.3448 37.4487 22.7474 36.2382 23.1505 34.6521C23.2961 34.0786 23.2534 33.5442 23.2537 32.9561L23.2528 19.3851C23.2523 17.7186 22.815 16.9577 21.3278 16.3138L17.5006 14.8246C15.8207 14.1589 14.5928 13.6034 14.299 11.5077C14.2926 11.4619 14.2966 11.4797 14.2769 11.4344L14.2589 11.4255ZM33.5098 11.4145C33.124 12.734 32.5821 13.8468 31.3069 14.5505C30.7112 14.8792 30.0481 15.0491 29.4137 15.284L27.397 16.0921C26.3862 16.4811 25.4724 16.7909 25.0105 17.8591L24.8764 18.2279C24.7665 18.585 24.8123 19.0237 24.8124 19.3964L24.8164 34.1829C24.8288 34.4485 24.8925 34.7434 24.985 34.9919L25.1247 35.3507C25.5962 36.6106 27.0642 37.5518 28.3356 37.7791C28.824 37.8664 29.2912 37.877 29.7857 37.8775L30.5804 37.8771C30.8199 37.8766 31.0422 37.8844 31.277 37.8259L31.3224 37.8153C32.3847 37.5632 33.4052 36.6319 33.5527 35.5084C33.5893 35.2303 33.5475 34.8967 33.5469 34.6124L33.5363 31.6759C33.5689 30.9032 33.7385 30.1445 33.8355 29.3786L34.0174 27.0576L34.0329 23.9905C34.0209 22.7505 33.9961 21.9989 34.5041 20.8176C35.0204 19.6171 35.092 19.3264 34.8679 18.0014C34.8163 17.6961 34.6873 17.296 34.7394 16.9885C34.8409 16.389 35.4314 16.1572 35.9327 16.4395L35.9595 16.4621C36.2335 16.6961 36.2348 16.8808 36.2926 17.2148L36.4315 18.009C36.5999 19.1749 36.5937 20.3454 35.9879 21.4019C35.4554 22.3305 35.6282 23.3882 35.6349 24.4054L35.5796 27.7727C35.522 29.1612 35.245 30.3817 35.1188 31.7096C35.0784 32.1348 35.0692 33.5722 35.139 33.9945L35.7288 37.0302L37.0415 41.0206C37.0662 41.1021 37.1153 41.1776 37.1465 41.258L38.1159 41.1705C38.5298 41.1486 39.8078 41.2334 40.0932 41.0505C40.1787 40.8641 40.1612 40.6259 40.1622 40.4235L40.1543 37.5902C40.1423 37.3636 40.1455 37.1336 40.1068 36.9094L38.7467 27.2049C38.6621 26.6834 38.6617 25.4307 38.703 24.8511C38.7161 24.6678 38.7646 24.4914 38.7722 24.3056L38.7646 19.3825C38.7553 19.1114 38.7634 18.8356 38.7156 18.5678C38.337 16.4484 38.7975 14.3749 36.6557 12.8597C36.2022 12.539 35.6742 12.3268 35.163 12.117L33.5098 11.4145Z" fill="black"/>
<path d="M18.0862 35.9822C17.6273 35.9825 17.1839 35.728 17.209 35.2013C17.2381 34.5921 17.3391 33.9673 17.4206 33.3631L18.3494 26.6834C18.4255 26.187 18.504 25.8446 19.0477 25.6897C19.7794 25.6761 19.9424 26.2437 19.8666 26.8951L18.8562 34.2537C18.7751 34.923 18.8833 35.7406 18.0862 35.9822Z" fill="black"/>
<path d="M30.1158 35.9779C29.4104 35.9864 29.2879 35.4704 29.2341 34.8578L28.9132 31.0345C28.8643 30.47 28.8004 29.7512 28.7911 29.1861L28.7731 28.2992C28.765 28.0855 28.7287 27.8761 28.7146 27.663L28.6968 26.8552C28.6889 26.2752 28.7583 25.8587 29.4092 25.7148C30.2824 25.7148 30.2379 26.6152 30.2442 27.2298L30.2652 28.168C30.2733 28.4799 30.3336 28.7675 30.3458 29.0779L30.7481 34.5531C30.7721 34.8459 30.9004 35.2126 30.7645 35.4931L30.7516 35.5192C30.6281 35.7836 30.4005 35.9223 30.1158 35.9779Z" fill="black"/>
</svg>
