<svg width="48" height="48" viewBox="0 0 48 48" fill="none" xmlns="http://www.w3.org/2000/svg">
<path d="M18.3225 38.655L15.8189 38.9219C14.7519 38.9546 13.5725 38.0451 13.5036 36.9356C13.489 36.6993 13.605 36.1491 13.3942 35.9847C13.0608 35.7247 12.7225 34.7459 12.6499 34.3619C12.4758 34.4484 12.3149 34.5661 12.1421 34.6574C9.75553 35.9178 6.75051 34.6542 6.58706 31.8511C6.54262 31.0897 6.77578 30.432 6.96365 29.7067L10.2892 16.3458C10.4957 15.4992 10.433 15.5225 10.4339 14.722C10.4363 12.5982 12.3169 11.0922 14.3321 10.9465C15.0491 10.8947 15.7757 10.9165 16.4947 10.9164C16.514 10.236 16.8016 9.60457 17.4452 9.28825L17.4778 9.2726C18.1897 8.91503 19.4193 9.10019 20.2094 9.29153L21.7828 9.73783C23.6616 10.177 25.7003 10.0512 27.5462 9.52628C28.0913 9.37122 28.6109 9.14819 29.166 9.02735C30.0796 8.96369 31.1912 9.418 31.3997 10.4125L31.4839 10.8198C32.4093 10.8605 33.3724 10.7442 34.2846 10.8999C35.5929 11.1232 36.741 12.0929 37.2186 13.3238L37.3232 13.655C37.5873 14.3601 37.342 15.1159 37.5175 15.6779L38.9882 21.6475C39.0751 22.1397 39.2729 22.6126 39.3598 23.1026L39.6389 24.2456C39.7942 25.0899 40.0679 25.9084 40.2755 26.7406L40.8756 29.1206C41.1785 30.2954 41.6248 31.4412 41.2803 32.6575C40.9311 33.8909 39.8295 34.8733 38.5782 35.1155L38.5026 35.1303C37.3574 35.3345 36.3129 34.9032 35.3851 34.2685C35.3162 34.3991 35.2858 34.5725 35.2365 34.714C34.9761 35.4625 34.5334 35.8359 34.516 36.5722C34.4908 37.6408 33.8168 38.6237 32.7354 38.8602L32.6992 38.8679C32.2555 38.9701 31.7937 38.8566 31.3517 38.7951L26.8461 38.3518L22.2703 38.3492L18.3225 38.655ZM29.3782 10.5038L27.5029 11.0909C25.4639 11.6295 23.1093 11.6995 21.0714 11.1123L19.9993 10.792C19.687 10.7136 19.3774 10.6844 19.0633 10.6278C18.4861 10.524 18.0918 10.3825 17.8907 11.0583C18.5596 11.9171 19.1273 12.5704 20.0748 13.15L22.7456 14.719C23.2119 14.9865 23.6946 15.2366 24.1274 15.5569C24.4586 15.3192 24.8082 15.0879 25.1613 14.8836L27.9636 13.2463C28.6422 12.8065 29.2806 12.3942 29.7657 11.7293C30.1325 11.2267 30.1702 10.4561 29.3782 10.5038ZM31.4702 12.2833C31.3832 12.2934 31.2703 12.2819 31.1886 12.3092C30.4821 13.291 29.6311 14.0106 28.6074 14.6478L25.2552 16.6043C25.2035 16.6342 24.9343 16.7492 24.9154 16.7821C24.9049 16.8003 24.8845 32.7052 24.9134 34.2375L26.5436 34.2376C26.872 34.2394 27.2249 34.2247 27.5489 34.2775L31.5699 34.6805L33.0344 34.9044C33.1352 34.9221 33.3798 35.0152 33.4656 34.9799C34.5824 32.8393 34.0088 31.1624 33.5016 29.0314L32.6235 25.3941C31.9747 22.6968 31.9888 22.3018 33.3568 19.6805L35.5336 15.7028C35.8784 15.1185 36.0727 14.6169 35.8558 13.9279L35.835 13.8604C35.5934 13.0667 34.8207 12.4203 33.9997 12.2947C33.734 12.254 33.4302 12.28 33.1593 12.2798L31.4702 12.2833ZM15.2609 12.4018C14.9353 12.4051 14.5957 12.3891 14.2729 12.4299C13.1853 12.5673 12.1242 13.4142 11.9752 14.5425C11.9217 14.9475 12.1123 15.1645 12.3084 15.4961L14.9204 20.2674C15.132 20.6439 15.3506 20.9991 15.4943 21.4097L15.6889 22.0668C16.0361 23.2546 15.5595 24.6203 15.293 25.7514L14.1221 30.5763C14.0716 30.8145 13.9831 31.057 13.9571 31.2994C13.863 32.1767 13.8448 33.4458 14.1942 34.2882L14.4541 34.9129C14.4692 34.9502 14.4846 34.9772 14.5078 35.0097L17.9006 34.5307L22.7626 34.1755C22.9753 34.1726 23.2208 34.1914 23.4276 34.1496L23.4299 17.1566C23.4298 17.0583 23.4475 16.916 23.4178 16.8235L19.3594 14.4639C18.5779 13.9621 17.6899 13.3728 17.1776 12.5793C17.1336 12.5111 17.078 12.4561 17.0174 12.4029L15.2609 12.4018ZM36.3843 17.2493L34.3919 20.8771C34.1073 21.4074 33.8305 21.9037 33.7479 22.5113L33.7426 22.548C33.6976 22.8891 33.6808 23.4254 33.7862 23.749L34.1611 25.4202C34.2731 25.8002 34.3173 26.2085 34.4456 26.5841L35.0714 29.2202C35.0789 29.2583 35.09 29.2916 35.102 29.3283L35.4665 30.8785C35.5731 31.2548 35.5767 31.7285 35.5777 32.1146L35.5781 32.4952C35.5779 32.6262 35.6114 32.6572 35.7345 32.731L35.7789 32.7541C36.3476 33.0601 36.6862 33.4029 37.37 33.649C37.6487 33.6939 37.9467 33.6939 38.2266 33.6604L38.26 33.6573C39.2207 33.5612 40.0272 32.4352 39.9248 31.5036C39.8614 30.9263 39.6562 30.3306 39.5066 29.7685L36.5564 17.9138C36.5086 17.6906 36.4249 17.4734 36.3843 17.2493ZM11.5843 17.2706C11.5043 17.548 11.459 17.8232 11.3954 18.1034L8.49763 29.7808C8.36324 30.35 8.15929 30.9144 8.0872 31.4954C7.90907 32.9319 9.37682 33.9307 10.7474 33.646C11.2854 33.4809 12.0031 33.0188 12.4167 32.6104C12.3441 31.3048 12.7033 30.1239 13.0053 28.8694L13.8163 25.5705C14.1078 24.442 14.5224 23.2818 14.1742 22.1201C14.0303 21.6401 13.7414 21.2448 13.5007 20.812L11.7887 17.6435C11.7221 17.518 11.6363 17.4031 11.5843 17.2706ZM23.6146 35.7053L22.418 35.7339C22.2345 35.7416 22.0521 35.7723 21.8672 35.7776L20.3672 35.8042C20.2035 35.8139 20.0384 35.8447 19.875 35.861L15.4382 36.3459C15.3116 36.36 15.1583 36.3561 15.0469 36.4212C14.7773 36.7913 15.2585 37.4268 15.6797 37.4265C15.9255 37.4263 16.1754 37.3745 16.4183 37.3437L18.05 37.1387C19.9394 36.9303 22.4566 36.6914 24.3691 36.821C25.866 36.8236 27.3606 36.8261 28.8516 36.9679L31.2539 37.242C31.5806 37.2851 31.9365 37.3925 32.2639 37.3914C32.7054 37.39 33.1218 36.8656 32.962 36.4366C32.8422 36.376 32.6978 36.3713 32.5664 36.3505L28.4744 35.8653C28.183 35.8435 27.8984 35.8019 27.6042 35.7923L24.3985 35.7897C24.1158 35.7794 23.9502 35.6942 23.6146 35.7053Z" fill="black"/>
<path d="M30.3106 31.0038C29.6359 31.0479 29.5325 30.4547 29.3914 29.9526L27.8821 24.0991C27.7517 23.5187 27.8412 22.9829 28.5049 22.8557C28.779 22.8345 28.9957 22.9181 29.139 23.162L29.1561 23.1915C29.26 23.3612 29.2908 23.6085 29.3446 23.8008L29.6255 24.9258C29.6806 25.1403 29.7577 25.3649 29.7959 25.5821L30.0806 26.6836C30.1014 26.8074 30.1496 26.9181 30.172 27.0417L30.9758 30.0991C31.0916 30.5568 30.7401 30.9216 30.3106 31.0038Z" fill="black"/>
<path d="M18.3103 31.0601C17.7322 31.2593 17.3448 30.6613 17.4464 30.0859C17.4954 29.808 17.5827 29.525 17.6575 29.2527L18.5936 25.7922C18.7352 25.2679 18.7252 24.7827 19.2989 24.5651C19.6723 24.5549 19.9967 24.6681 20.1424 25.0508L20.1565 25.0901C20.3009 25.4339 20.142 25.7651 20.048 26.1008L19.0177 30.0226C18.9037 30.5025 18.8451 30.9095 18.3103 31.0601Z" fill="black"/>
</svg>
