<svg width="48" height="48" viewBox="0 0 48 48" fill="none" xmlns="http://www.w3.org/2000/svg">
<path d="M24.8687 45.5958L19.1782 45.589C18.9736 45.5845 18.7746 45.5478 18.5717 45.5408L17.3408 45.527C17.1599 45.5205 16.9835 45.4877 16.8047 45.4779L14.9648 45.4481C14.7882 45.4375 14.6171 45.3927 14.4413 45.3816L12.2399 45.2882C11.084 45.1876 10.3302 44.8203 9.40229 44.1042C8.49404 43.4033 8.0477 42.9704 8.04746 41.8112L8.04995 40.8455C8.05065 40.4611 8.01273 40.0293 8.0664 39.6497C8.15429 39.0282 8.70784 38.2645 9.32589 38.1158L9.37567 22.8899C9.37586 20.6471 9.31618 19.0759 10.997 17.2298C11.1605 17.0503 11.3505 16.9012 11.5179 16.7261C12.7004 15.4894 12.675 13.3259 12.0691 11.8003C11.9137 11.4089 11.6356 11.0641 11.512 10.6632C11.2788 9.90658 11.6765 9.10685 12.3522 8.73982C12.7709 8.51238 13.2677 8.45036 13.7182 8.30505L16.1156 7.55303C16.4143 7.45835 16.7095 7.32583 17.0091 7.24155C17.2907 7.16233 17.2389 7.10013 17.2783 6.83646C17.4381 5.7678 17.2097 4.66063 18.0494 3.80968C19.3456 2.49602 21.366 2.37743 23.1017 2.37305L25.7811 2.3809C25.9045 2.38739 26.0222 2.41306 26.1443 2.42533L27.7132 2.61283C29.1032 2.85402 29.9177 3.16163 30.4696 4.58158C30.7974 5.4251 30.5545 6.33339 30.6552 7.21249C31.1051 7.30957 31.545 7.48221 31.9887 7.60755L34.0805 8.22232C34.9234 8.48744 35.9513 8.77825 36.2955 9.69986L36.3641 9.88432C36.6325 10.8278 35.9439 11.7393 35.7353 12.7144C35.631 13.2019 35.4935 14.2435 35.6445 14.7427L35.7175 14.9995C36.0029 16.0724 36.5615 16.4326 37.1987 17.203C37.9689 18.1343 38.966 20.3273 38.7176 21.6089C38.6903 21.7497 38.6434 21.8789 38.6372 22.024L38.6557 38.0321C38.7476 38.0978 38.8553 38.1358 38.952 38.194C39.9189 38.7747 39.943 39.7441 39.9457 40.7392L39.947 41.8388C39.9469 42.0457 39.9769 42.3044 39.9064 42.5005C39.4028 43.9031 37.6649 44.9071 36.2929 45.2375C35.9167 45.3281 35.476 45.2904 35.0875 45.3047L32.8988 45.4563L29.957 45.5422C29.7776 45.5475 29.6013 45.5853 29.4212 45.5897L24.8687 45.5958ZM22.5054 3.82073C22.2096 3.82433 21.8807 3.8021 21.5915 3.871L21.5454 3.8834C20.8535 4.05302 20.305 4.01142 19.6053 4.42842C21.333 5.65132 23.111 6.142 25.2187 5.79846C25.3182 5.78224 25.4293 5.74722 25.5289 5.7438L26.3291 5.56582C27.1112 5.31841 28.008 5.01747 28.5474 4.3561C27.3585 3.84014 26.0162 3.8205 24.7441 3.82066L22.5054 3.82073ZM18.7846 5.61283C18.7457 5.92071 18.7662 6.23139 18.7401 6.53993L18.6002 8.01335C18.3579 10.2327 18.9244 10.1706 20.4032 11.3826C21.4353 12.2285 22.6497 13.9899 22.8826 15.3423L23.2143 16.9859L23.2585 7.31505C21.7336 7.22196 20.106 6.63424 18.8977 5.67489C18.8571 5.64269 18.8373 5.60683 18.7846 5.61283ZM29.1639 5.88667C27.69 6.73722 26.5134 7.25777 24.7311 7.2918L24.7123 16.7782C24.6977 17.1466 24.6194 17.526 24.6668 17.8938C24.7076 17.7955 24.7502 17.7003 24.7727 17.5957C24.8463 17.1934 24.8475 16.798 24.8984 16.396C25.1783 14.1851 26.0636 12.6042 27.8223 11.2154C28.4616 10.7105 29.239 10.2418 29.4296 9.38402C29.4997 9.06869 29.5233 8.15411 29.4032 7.87207C29.1149 7.19496 29.2152 6.59364 29.1639 5.88667ZM17.0227 8.82377L13.7751 9.83121C12.4881 10.2519 12.8376 9.89725 13.3268 11.1312C14.1215 13.1362 14.0384 15.7113 12.7456 17.4771C12.5002 17.8122 12.1921 18.0841 11.9081 18.3845C10.7533 19.6061 10.8208 21.028 10.824 22.5881L10.8257 37.1308C10.826 37.6907 10.8479 38.2608 10.8154 38.8194C11.5512 39.053 12.3366 39.1414 13.1015 39.2122L16.2129 39.4653L23.2565 39.5292L23.2612 20.8238C23.2609 20.6692 23.2638 20.6091 23.1311 20.5226C22.3664 20.0242 21.8934 17.8316 21.7057 16.8705C21.3638 15.1189 21.0362 13.8671 19.6054 12.6163C18.193 11.3815 17.0645 10.9991 17.0862 8.82377C17.0379 8.81899 17.0591 8.81744 17.0227 8.82377ZM30.9664 8.80788C30.9277 9.21592 30.9166 9.35768 30.8339 9.75564C30.521 11.2606 29.1597 11.9326 28.1315 12.8785C26.597 14.2901 26.6114 15.3251 26.3051 17.1363C26.1768 17.8949 25.5884 19.9727 24.883 20.4447C24.8255 20.4831 24.7772 20.5377 24.7286 20.5867L24.7249 38.874C24.7249 39.0917 24.7098 39.3222 24.7333 39.5382L31.6817 39.46L33.2077 39.369C34.0917 39.3022 34.9839 39.1733 35.8589 39.0312L36.8437 38.8333C36.9659 38.8052 37.0929 38.7872 37.2114 38.7456L37.2015 22.7529C37.2012 21.0857 37.2461 19.6436 36.112 18.2591C35.8294 17.9141 35.5202 17.6075 35.2531 17.2458C34.0245 15.5818 33.8926 13.4794 34.5142 11.5586L34.7488 10.8896C34.8259 10.6992 35.0366 10.3953 34.9275 10.1912C34.7434 9.847 33.1913 9.4916 32.7841 9.37488L31.6802 9.04164C31.4422 8.96932 31.195 8.90707 30.9664 8.80788ZM9.51461 39.7613C9.37211 40.1372 9.4374 41.7286 9.46586 42.1482C9.62936 42.3708 9.86504 42.5436 10.0772 42.7186C11.7647 44.1108 12.016 43.7981 14.0643 43.901L16.6168 44.0253C16.7898 44.0341 16.9605 44.0654 17.1342 44.0713L19.7967 44.0822C20.1452 44.0841 20.4804 44.1464 20.8286 44.1508L27.9941 44.1536C28.2857 44.1489 28.5703 44.0967 28.8608 44.0883L31.193 44.0701L34.4648 43.8778C36.4368 43.7718 36.5077 43.866 38.0976 42.5929C38.2419 42.4697 38.421 42.3439 38.5239 42.1839L38.5347 40.9278C38.5338 40.5786 38.5577 40.1826 38.4775 39.8406C38.3658 39.8688 38.2591 39.9285 38.1524 39.9722L37.6472 40.152C36.873 40.3869 36.067 40.5386 35.2666 40.6517L31.2138 40.9852L24.3447 40.9869C20.753 40.9859 17.1392 41.1141 13.5615 40.7473C12.3992 40.6282 11.0697 40.5317 10.0034 40.002C9.87236 39.937 9.65279 39.7727 9.51461 39.7613Z" fill="black"/>
<path d="M15.3924 35.2255C15.2701 35.2356 15.1192 35.2417 15.0044 35.1929L14.9766 35.1803C14.6589 35.0415 14.5552 34.7152 14.5548 34.3985L14.5547 27.1975C14.5628 26.87 14.8703 26.6545 15.1542 26.5587C16.0959 26.5229 15.9835 27.3713 15.9841 28.0167L15.9839 34.6176C15.9735 34.9056 15.6329 35.1378 15.3924 35.2255Z" fill="black"/>
<path d="M32.8814 35.2253C32.437 35.2787 32.0281 35.0086 32.0063 34.5245L32.0125 27.1993C32.0243 26.8905 32.2938 26.6645 32.5605 26.5584C33.2882 26.5285 33.427 26.8783 33.4285 27.5577L33.4284 33.3626C33.4291 33.6123 33.4816 34.6543 33.3984 34.7942L33.3839 34.8165C33.2522 35.0214 33.1089 35.14 32.8814 35.2253Z" fill="black"/>
</svg>
