<svg width="48" height="48" viewBox="0 0 48 48" fill="none" xmlns="http://www.w3.org/2000/svg">
<path d="M24.9314 43.968L20.5125 43.9662C20.2826 43.9645 20.0351 43.9805 19.8117 43.9206L19.0401 43.7491C16.6151 43.1021 14.8627 41.0969 14.3962 38.637C14.2696 37.9694 14.3026 37.306 14.3387 36.6331C14.4331 34.8731 14.6771 33.1585 15.3175 31.5049L15.782 30.3416C16.4517 28.7721 16.9117 27.4033 15.8034 25.8186C15.2334 26.4756 14.9084 27.2419 14.6017 28.0437L11.9337 35.3032C11.2836 36.8639 10.0741 36.7902 8.72386 36.287L6.90923 35.5599C6.23264 35.2854 5.70961 35.2134 5.40103 34.4311C5.1698 33.8449 5.3902 33.3601 5.57817 32.8143L9.60863 19.8903C9.84849 19.1307 10.0253 18.332 10.3457 17.6008C11.0704 15.9479 12.6069 14.684 14.2732 14.0626C15.1273 13.7441 16.0205 13.5418 16.872 13.208C16.8551 13.0944 16.8012 12.9806 16.7618 12.8726L16.594 12.3824C15.02 7.56837 18.2789 4.4652 22.8899 3.97059L23.9984 3.95471C24.285 3.9548 24.5761 3.9446 24.8619 3.96428C28.526 4.21654 31.7812 6.47825 31.7834 10.35C31.7841 11.4337 31.5623 12.2352 31.1969 13.24C31.3813 13.3482 31.5911 13.4101 31.7927 13.4778L32.9347 13.8198C35.4644 14.5488 36.9244 15.7821 37.8751 18.176C38.0701 18.6671 38.1619 19.2015 38.344 19.6995L39.2676 22.7846C39.3357 23.123 39.4635 23.4866 39.5787 23.8108L41.8886 31.1956C41.9355 31.3902 42.0228 31.5767 42.075 31.7717L42.5738 33.3214C42.7863 33.8904 42.6711 34.6024 42.2081 35.0151C41.9168 35.2747 41.4833 35.4039 41.1239 35.5449L40.2302 35.9076C38.2495 36.7106 36.912 37.3422 35.9683 34.9275L33.5531 28.5448C33.2127 27.594 32.9233 26.6002 32.2391 25.8265C32.1516 25.9245 32.0882 26.0564 32.0251 26.171C30.8053 28.3873 31.9729 29.4055 32.6395 31.5L33.2115 33.3117C33.5692 34.3819 33.8032 37.2111 33.617 38.4647C33.246 40.9618 31.4157 43.1568 28.9223 43.7622C28.4986 43.865 28.1033 43.9653 27.6643 43.9669L24.9314 43.968ZM22.9419 5.32329C20.677 5.49383 18.2223 6.54645 17.6195 8.96028C17.4434 9.66561 17.3382 10.4658 17.5701 11.1747L17.7267 11.746C17.7343 11.7776 17.7453 11.805 17.7574 11.835L17.9327 12.3334C18.0667 12.6604 18.1403 13.0101 18.2821 13.3362C18.9764 14.9328 20.6513 16.2815 22.3992 16.4979C21.7924 14.937 20.8915 14.2079 19.7843 13.0649C18.8795 12.1308 17.7043 10.7019 17.9471 9.30495L17.9539 9.26478C18.2974 7.29753 20.4006 6.24495 22.1934 5.93356C22.9278 5.80601 23.9973 5.65812 24.7444 5.80306C24.8282 5.83742 24.9839 5.81712 25.0896 5.83147L25.693 5.94167C27.5409 6.28822 29.3756 7.37768 29.8504 9.28854L29.8703 9.37325C30.2017 10.8142 29.5001 11.8155 28.5749 12.7896L27.3697 13.9984C26.6515 14.702 26.031 15.5262 25.6953 16.4832C26.7801 16.3096 27.8465 15.7586 28.6203 14.9838C29.8721 13.7304 30.7 11.4858 30.4767 9.69537C30.2149 7.5965 28.3609 5.99843 26.3733 5.54281C25.2178 5.27792 24.1185 5.32058 22.9419 5.32329ZM23.5164 7.10811C22.0947 7.19759 19.6379 7.73539 19.2645 9.38698L19.2553 9.42589C19.2126 9.61048 19.2065 9.79911 19.2473 9.98408L19.2558 10.0262C19.312 10.2979 19.4704 10.7478 19.683 10.9143C20.5002 8.96267 22.6403 8.37092 24.5964 8.60815C26.3205 8.79007 27.7426 9.4617 28.376 11.123C29.6334 8.76626 26.7359 7.26973 24.6925 7.11673C24.3053 7.08772 23.9051 7.10623 23.5164 7.10811ZM23.7357 9.90139C22.5348 9.938 20.7548 10.4057 20.788 11.9087L20.8016 12.032C20.8564 12.4564 21.2709 12.7265 21.5478 13.0062L22.1405 13.6446C22.4566 14.0115 22.7517 14.397 23.0036 14.811L23.469 15.6319C23.7222 16.1204 23.6453 15.8453 24.3078 15.9121L24.5133 15.9175C24.914 14.8906 25.566 13.9515 26.3333 13.1629L26.8457 12.668C27.016 12.5082 27.0966 12.4555 27.1411 12.2229C27.4889 10.4044 25.1048 9.84823 23.7357 9.90139ZM30.619 14.4083C29.4807 16.2542 28.2024 17.2626 26.0268 17.7797C25.3469 17.9412 25.2022 17.8513 24.632 17.8692L24.6277 42.2654C24.6283 42.3773 24.6044 42.5687 24.6436 42.6705L26.6873 42.6699C27.0506 42.6696 27.4427 42.696 27.8028 42.6485C30.3371 42.3144 32.3989 40.2099 32.3888 37.6056C32.3807 35.5283 32.0963 33.5339 31.3005 31.6115C30.2283 29.0212 29.5833 27.7591 31.0757 25.231L32.5908 22.7994C32.9351 22.1981 33.2328 20.9443 34.0592 21.5026C34.5492 21.8337 34.2227 22.4004 34.0314 22.7932C33.7189 23.4348 33.3597 24.0864 32.9615 24.68C33.6766 25.574 34.0289 26.0945 34.4526 27.2187C34.5801 27.5572 34.6711 27.9114 34.8061 28.2469L36.5036 32.8572L37.3738 34.909C37.7323 35.7834 38.8493 35.0624 39.4216 34.8263L41.4124 33.9931C41.3289 33.6234 41.1985 33.2641 41.0856 32.9025L37.2633 20.5784C37.0058 19.7345 36.815 18.8288 36.4333 18.0319C35.3393 15.7479 33.6818 15.456 31.5959 14.7838C31.2801 14.6821 30.9007 14.5889 30.619 14.4083ZM17.334 14.4729L16.2022 14.8278C14.0782 15.4439 12.3356 16.0526 11.4243 18.3583C11.1215 19.1246 10.9315 19.9565 10.6951 20.7467L6.54924 33.9712C6.86194 34.1791 7.27763 34.3061 7.62614 34.4499L9.13364 35.055C9.45605 35.1732 9.77241 35.2915 10.1122 35.351C10.8608 35.1008 11.0674 33.9542 11.3247 33.2892L12.9518 28.8445C13.491 27.3498 13.9047 25.9031 15.0494 24.733C14.7267 24.0539 14.2702 23.4397 13.9394 22.7581C13.1385 21.1079 14.6273 21.1395 14.8922 21.776C15.4175 23.0387 16.2951 24.0948 16.971 25.2696C17.8507 26.7853 18.0251 28.2218 17.3427 29.9065L16.8521 31.1487C15.9865 33.2933 15.6339 34.8247 15.6278 37.0968C15.6258 37.8519 15.6029 38.4884 15.8724 39.208C16.807 41.7026 18.7156 42.6709 21.2125 42.6705L23.3621 42.6702L23.3601 18.7946C23.3601 18.5226 23.3798 18.2334 23.3531 17.9633C21.128 17.6945 19.3564 17.1091 17.887 15.2348C17.7143 15.0145 17.5286 14.6003 17.4013 14.4624L17.334 14.4729Z" fill="black"/>
</svg>
