<svg width="48" height="48" viewBox="0 0 48 48" fill="none" xmlns="http://www.w3.org/2000/svg">
<path d="M25.0017 41.5844C24.704 41.5809 23.6735 41.6821 23.5645 41.6446C23.333 41.5649 23.0509 41.5854 22.8072 41.5847L15.8289 41.5851C15.2954 41.5903 14.8023 41.6034 14.2746 41.4905C12.4113 41.0917 11.2099 39.4464 11.2643 37.5771C11.274 37.2447 11.3358 36.9421 11.3764 36.6146C10.3598 36.5221 9.3844 36.4186 8.40748 36.1221L6.35145 35.5181C5.76565 35.3506 5.29667 35.1416 5.48595 34.3945L9.43367 20.762C10.1149 18.4222 10.6788 16.4454 13.1228 15.2399C13.5749 15.0169 14.0685 14.9029 14.5375 14.7211L17.0057 13.6301C17.9298 13.2178 17.6491 13.5223 17.7594 12.5124L18.0809 9.60966C18.1137 9.30423 18.0862 8.97376 18.1702 8.67746C18.658 6.95649 21.5375 6.41068 23.0378 6.3144L24.7379 6.30371C26.3569 6.37613 28.9944 6.84563 29.7305 8.4383C29.8916 8.78677 29.8779 9.08312 29.9176 9.45854L30.0448 10.4964C30.0665 10.7016 30.0706 10.9268 30.1146 11.1274L30.3753 13.1248C30.446 13.5084 30.4727 13.4168 30.8313 13.5691L34.8742 15.1627C36.5001 15.8814 37.7971 17.2567 38.3883 18.9401C38.5451 19.3866 38.6239 19.8463 38.7317 20.3054L40.6758 27.8232C40.7392 28.1755 40.8791 28.523 40.9514 28.8748L41.045 29.2264C41.0682 29.3465 41.1148 29.4564 41.1391 29.5768L41.4215 30.6516C41.513 31.1465 41.7543 31.9038 41.8975 32.418C41.9957 32.7706 42.072 33.1724 42.2046 33.5108C42.3329 33.8384 42.3549 34.2246 42.4856 34.5525C42.8248 35.4034 42.1655 35.539 41.4852 35.731L39.2504 36.2754C38.7031 36.3954 38.1748 36.5434 37.6169 36.6154C37.2668 36.6606 36.905 36.6092 36.5531 36.636C36.5782 37.2956 36.8022 37.6797 36.6581 38.4725C36.392 39.935 35.2538 41.1501 33.8005 41.4906C33.2689 41.6152 32.7541 41.5846 32.2153 41.5842L25.0017 41.5844ZM23.6191 7.69496C22.5965 7.75299 20.0004 8.00059 19.5215 9.12479L19.5727 9.29448C19.8465 10.1379 22.2816 10.3671 23.0269 10.1827C23.6671 10.0243 23.7791 9.83284 24.4144 10.1195C25.6092 10.6209 27.9286 10.2692 28.5327 9.08321C27.6915 7.84623 25.0064 7.68338 23.6191 7.69496ZM28.6792 10.9132C27.2987 11.7006 26.2649 11.77 24.7338 11.7132L24.7282 25.6658L33.1955 25.658L32.9992 24.1861C32.7757 22.4622 33.4975 22.9044 34.029 21.9161C34.3602 21.3004 34.0872 20.5805 34.531 20.3024C34.9742 20.0246 35.3953 20.2268 35.5665 20.6756L35.5816 20.7141C35.9195 21.6425 35.1582 22.9004 34.5332 23.5169C34.2947 23.7521 34.3206 23.6916 34.3636 24.0238L34.5413 25.1812C34.5685 25.335 34.5852 25.4932 34.6294 25.6431L35.7708 31.6227C35.7967 31.7495 35.8012 32.0649 35.8799 32.1469L37.1099 32.1494C37.4314 32.1474 37.7708 32.0693 38.0165 32.3294L38.1038 32.4399C38.2189 32.5952 38.2683 32.8091 38.2425 32.9998C38.1732 33.5129 37.6801 33.5459 37.2917 33.5469L36.0481 33.5473C36.0588 33.8326 36.1119 34.1055 36.1459 34.3867L36.2339 34.9732C36.2468 35.0495 36.2458 35.1275 36.2673 35.2021C37.3288 35.2064 37.5365 35.2178 38.5579 34.985L40.9824 34.3665L37.4564 21.0454C37.2889 20.3666 37.2019 19.6529 36.9071 19.0126C36.0866 17.23 34.961 16.7348 33.2953 16.08L30.3516 14.9342C29.0348 14.4255 29.0169 13.7475 28.8614 12.41L28.6792 10.9132ZM19.3285 10.9366C19.2924 11.1774 19.2862 11.42 19.2674 11.6626L19.1946 12.502C19.0804 14.2644 18.7616 14.4296 17.2735 15.0932L15.361 15.9247C13.3848 16.7142 12.3465 16.8965 11.3672 19.1646C11.0957 19.7934 10.9706 20.505 10.7797 21.1639L7.00559 34.2098L9.45711 34.9156C9.85086 35.0169 10.1205 35.0522 10.5205 35.0965L11.6906 35.256L11.9611 33.5596L10.734 33.5518C10.5584 33.5523 10.3021 33.5837 10.1344 33.5353C9.49667 33.3511 9.64278 32.2935 10.2228 32.1664C10.4819 32.1096 12.1738 32.1872 12.2091 32.148C12.2392 32.1146 12.2683 31.7906 12.2817 31.7166L13.7456 23.601C13.04 22.9284 12.5352 22.1174 12.5151 21.1178C12.4953 20.1324 13.7469 19.58 13.8824 21.0233C14.0022 22.2983 14.6535 22.2106 15.0198 22.8983L15.0323 22.9212C15.2135 23.2582 15.1372 23.6154 15.096 23.9764L14.9213 25.1242C14.8932 25.2937 14.8954 25.4758 14.8521 25.6404L23.2734 25.6493L23.2708 11.6412C22.2372 11.8565 20.2739 11.592 19.3475 10.951L19.3285 10.9366ZM14.5615 27.0066C14.5286 27.1761 14.5195 27.3426 14.4887 27.5068L13.1837 34.8724C13.0178 35.8715 12.4453 37.5025 12.7506 38.449C13.1073 39.5547 14.1303 40.1458 15.2477 40.1466L21.5216 40.1469L23.2929 40.164L23.2721 27.0218C22.9311 26.9753 22.5557 27.0054 22.2111 27.0052L14.5615 27.0066ZM25.0885 27.0066L24.7283 27.0245L24.7299 40.1477L32.2976 40.1465C33.1367 40.1461 33.6737 40.1445 34.3987 39.6275C35.4735 38.7573 35.3448 37.944 35.1073 36.7264L34.4849 32.3188L33.6822 28.0669C33.6283 27.7235 33.5774 27.3512 33.4797 27.0187L25.0885 27.0066Z" fill="black"/>
</svg>
