<svg width="48" height="48" viewBox="0 0 48 48" fill="none" xmlns="http://www.w3.org/2000/svg">
<path d="M24.4828 44.4009C24.3548 44.3558 24.0019 44.2291 23.865 44.2569L22.8728 44.4926C20.146 44.9791 17.13 44.2499 14.8648 42.6963L14.7928 42.6465C13.3013 41.5659 12.2179 39.7182 11.9403 37.9148C11.7224 38.6428 11.4622 39.3715 11.1306 40.0557L10.4454 41.3505C9.9053 42.3976 9.7815 42.835 8.62753 42.6568L5.71781 42.1334C5.26364 42.0581 4.54677 42.0111 4.42602 41.4386L4.42121 41.4136C4.36134 41.1388 4.42238 40.8582 4.35108 40.5755L4.26239 40.13C3.76559 37.9962 3.92666 35.7243 4.30515 33.5855L4.83 30.9858C5.22769 29.3161 5.75142 27.6677 6.32414 26.0502L9.4095 17.6921C10.2921 15.032 10.7346 14.1756 13.565 14.1739L16.0334 14.1699C17.0727 14.1453 17.9252 13.2403 17.8092 12.1921C17.7635 11.7793 17.5948 11.3578 17.4927 10.9543C17.3586 10.4243 17.1969 9.63774 17.1821 9.08157L17.1793 8.10423C17.1869 4.72285 20.4065 3.43238 23.3565 3.36303C25.6985 3.27748 29.6713 3.89315 30.578 6.48779L30.6564 6.73782C30.9963 7.76987 30.7958 9.7696 30.5702 10.8008C30.3188 11.9506 29.6829 13.152 31.1328 13.9271C31.5973 14.1755 32.0389 14.1715 32.5545 14.1724L34.6229 14.1729C34.95 14.1732 35.3074 14.1455 35.6302 14.1851C36.7302 14.3199 37.6661 15.2106 38.0801 16.2003C38.2383 16.5783 38.3235 16.9847 38.4503 17.3719L41.6983 26.1105C41.7745 26.3784 41.899 26.6341 41.9775 26.9058L42.4828 28.5041C42.6719 29.034 42.7789 29.5799 42.9375 30.1167L43.2537 31.3402C43.3178 31.5845 43.3459 31.8409 43.4062 32.0855L43.8909 34.8863C44.1304 36.4915 44.0864 38.8374 43.6303 40.4442C43.4646 41.0281 43.8103 41.9105 43.0223 42.1321C42.7419 42.2109 42.4399 42.2409 42.1522 42.2813L39.7907 42.6635C38.5614 42.874 38.3465 42.6823 37.7312 41.648C37.0649 40.5277 36.4076 39.2327 36.1202 37.9479C35.9758 38.4131 35.887 38.8921 35.7175 39.3511C34.1364 43.6327 28.6182 45.2743 24.4828 44.4009ZM23.3099 4.68967C21.677 4.82031 18.989 5.37938 18.5744 7.29479C20.274 5.97128 22.6199 5.84635 24.6912 5.90415C25.1612 5.92018 25.621 5.95412 26.0857 6.02645L26.9554 6.2041C27.743 6.35926 28.5411 6.68785 29.2198 7.12182C29.2696 7.15374 29.3768 7.25434 29.4285 7.26128C28.881 4.97068 25.1797 4.62664 23.3099 4.68967ZM23.7546 7.23643C22.3548 7.24763 19.5929 7.57768 18.9082 8.92192C19.8479 9.97224 21.675 10.3137 23.0272 10.3969L24.3338 10.4058C25.6761 10.3974 27.1284 10.1872 28.3257 9.54563C28.8231 9.2791 29.4158 8.99921 28.7967 8.45429C27.6324 7.42932 25.2082 7.20526 23.7546 7.23643ZM18.7853 10.5662L19.0571 11.733C19.5492 13.3087 18.2442 15.1349 16.6251 15.4472C16.2258 15.5242 15.7956 15.4928 15.3899 15.4933L13.5111 15.4943C13.2193 15.4944 12.8622 15.4602 12.5767 15.5187C11.3055 15.7791 11.0703 16.876 10.7333 17.9305L10.2194 19.4292C10.0707 19.8811 9.94467 20.3797 9.74991 20.8126L9.79167 20.8015C11.5655 20.3381 13.5598 21.6536 14.0997 23.3871C14.4117 24.3886 14.1304 25.3599 13.9763 26.3523L13.745 28.0535L12.3075 36.694C13.1171 36.8279 13.1282 36.9739 13.2262 37.7096C13.3378 38.5458 13.7327 39.5537 14.2778 40.221C15.9916 42.4775 18.8781 43.2558 21.5895 43.2414C21.8959 43.2398 22.2585 43.2507 22.552 43.1596C22.5064 42.7217 22.5189 42.2803 22.5189 41.8406L22.516 11.6993C22.252 11.6316 21.9674 11.6299 21.698 11.5831C20.8124 11.4293 19.8457 11.1667 19.0636 10.7129L18.7853 10.5662ZM29.197 10.605C28.0078 11.2514 26.7791 11.6368 25.4154 11.7179C24.9367 11.7463 24.4504 11.716 23.9738 11.7574L23.9916 42.8609C24.1635 42.9821 24.7301 43.072 24.9457 43.1159C27.5022 43.6366 31.1129 42.9081 32.9676 41.0612C33.8714 40.2128 34.4838 39.2314 34.749 38.0109C34.9096 37.2722 34.8233 36.754 35.7688 36.7373C35.6775 36.0046 35.5059 35.2717 35.3752 34.5449L33.9687 25.8271C33.862 25.2045 33.7166 24.7319 33.7765 24.085C33.9562 22.1429 35.8763 20.6028 37.8016 20.7446C37.946 20.7552 38.088 20.7902 38.2319 20.8048L37.0624 17.3612C36.4973 15.602 36.0996 15.4928 34.4905 15.4914L32.4324 15.4904C31.7682 15.4896 31.3726 15.4532 30.7584 15.1988C29.724 14.7702 28.9034 13.6858 28.892 12.5459C28.8854 11.8919 29.0778 11.313 29.2307 10.6855C29.2397 10.6486 29.2531 10.6406 29.2294 10.6073L29.197 10.605ZM37.3922 22.0877C36.2094 22.1893 34.7784 23.4628 35.0886 24.6666C35.1694 24.9801 35.1947 25.3189 35.2615 25.6371L35.6769 28.1669C35.7238 28.5091 35.7519 28.8641 35.8145 29.2027L36.0528 30.6726C36.0731 30.8045 36.0786 30.9414 36.1026 31.0719L36.423 32.9292C36.4485 33.0599 36.4511 33.1951 36.4763 33.325L36.9855 35.9761C37.0725 36.3695 37.1229 36.7998 37.2578 37.1799L37.5498 38.1324C37.8177 38.8717 38.0872 39.6103 38.5046 40.2827C38.5959 40.3184 38.9613 40.2054 39.0703 40.1792L40.0919 39.9687L42.2592 39.6751C42.3183 39.6707 42.3983 39.678 42.4467 39.6453C43.3612 35.0356 41.5828 29.5906 39.9847 25.3003L39.3778 23.6407C39.0175 22.6749 38.6687 21.9704 37.3922 22.0877ZM10.2006 22.1082C9.41077 22.2229 9.11222 22.4942 8.84991 23.1685L7.66298 26.273C6.48909 29.5366 4.9965 34.6267 5.31178 38.1792C5.33306 38.419 5.3272 38.6555 5.36991 38.8941L5.51278 39.6759C6.47827 39.6867 7.39251 39.9259 8.33817 40.0502L9.43969 40.3253C10.6992 38.347 11.0171 35.9075 11.3886 33.6424L12.7782 25.3238C13.002 24.119 12.9277 23.1596 11.7716 22.4355C11.291 22.1344 10.7558 22.0624 10.2006 22.1082ZM41.2206 41.1143L40.8633 41.1909C40.912 41.2051 40.9401 41.204 40.9898 41.1953C41.1121 41.1749 41.2351 41.1583 41.3536 41.1206C41.2983 41.1016 41.2771 41.1066 41.2206 41.1143Z" fill="black"/>
</svg>
