<svg width="48" height="48" viewBox="0 0 48 48" fill="none" xmlns="http://www.w3.org/2000/svg">
<path d="M26.6357 39.3698C25.9692 39.0127 24.9805 38.7093 24.407 38.3213C24.3577 38.2878 24.1506 38.3284 24.0792 38.3367C22.5605 38.5129 21.4187 39.4744 20.0129 39.9417C16.882 40.9825 13.1905 39.8335 12.3754 36.293C12.2257 35.643 12.2544 35.0236 12.2501 34.3589L12.2104 33.4922C12.1953 32.8185 12.2141 32.1579 12.1487 31.4851L10.348 39.293C10.0824 40.4775 9.28661 40.9667 8.15842 40.9691L4.74761 40.967C4.63568 40.9614 4.52373 40.9404 4.41542 40.9121L4.37107 40.9002C1.70627 40.2006 2.96809 36.9052 3.34378 35.1025L4.42646 29.7481L5.77732 25.4456L7.41541 20.6276L10.2752 12.879C10.4119 12.5275 10.5378 12.1749 10.6989 11.8333C11.7699 9.56087 13.8666 9.39405 16.0482 9.03752C16.7148 8.92858 17.4061 8.87561 17.9821 8.48373C18.9644 7.81534 19.1953 7.05442 20.596 6.9707C21.237 6.99184 21.8793 7.11644 22.5206 7.15117C24.0195 7.23231 25.5204 7.16538 27.0103 6.99981C28.9456 6.7847 29.0504 8.00838 30.2868 8.68825C30.6451 8.88522 31.0458 8.94902 31.4414 9.02308L33.8829 9.40005C35.3982 9.61117 36.6532 10.4843 37.3125 11.8712L39.1991 16.7766L42.8588 27.3765L43.6725 30.2227C43.7325 30.5773 43.858 30.9304 43.9309 31.2844L44.9525 36.3985C45.089 37.2043 45.2493 38.6597 45.0923 39.44L45.0696 39.5391C44.7182 40.6958 43.7305 40.966 42.6781 40.9682L40.1475 40.9697C38.1205 40.9678 37.8479 40.3169 37.5004 38.6133L35.8721 31.2824C35.8025 31.7431 35.8168 32.2069 35.8157 32.6713L35.7969 34.2657C35.7873 34.848 35.7873 35.4069 35.6872 35.9854C35.1933 38.8401 32.7137 40.4298 29.935 40.3211C28.7275 40.2739 27.7082 39.9127 26.6357 39.3698ZM20.4557 8.32623C20.3268 8.35877 20.1516 8.41694 20.0574 8.51781L20.0444 8.54144L23.5664 17.5826C23.7231 17.966 23.8056 18.3976 24.0263 18.7494L25.0321 15.9781L27.99 8.54884C27.5898 8.22648 27.1844 8.31137 26.7024 8.3643L25.3135 8.5127C24.9283 8.53787 24.5332 8.52391 24.1471 8.52409L21.3909 8.39322C21.075 8.35994 20.7744 8.30687 20.4557 8.32623ZM18.9686 9.41186C18.5554 9.87634 18.0643 10.518 17.7424 11.0567C17.855 11.1858 17.9813 11.2911 18.1024 11.4111L18.8043 12.1106C19.0646 12.3654 19.6014 12.7689 19.4527 13.2C19.1934 13.9519 19.1616 14.359 19.454 15.1758L19.7591 15.9743C20.0932 16.8601 21.3632 18.5783 21.9304 19.3242C22.1518 19.6154 22.4148 19.8877 22.6117 20.1963C22.8333 20.4475 23.0237 20.7074 23.2748 20.9317C23.2598 20.4823 23.1223 20.1787 22.9714 19.7631L19.3916 10.422C19.264 10.0836 19.1608 9.71997 18.9686 9.41186ZM29.0138 9.43366L27.4173 13.4225L24.7662 20.5062C24.6371 20.8482 24.4756 21.2468 24.4408 21.613L25.0686 20.7524L26.8968 18.1721C27.6873 17.0093 28.9818 15.1221 28.7202 13.6387C28.6463 13.2193 28.3559 13.1002 28.6742 12.6489C28.8543 12.3933 29.1453 12.1685 29.3715 11.9515L30.2643 11.0665L29.0138 9.43366ZM16.5532 10.3243L14.9767 10.5824C12.6532 10.9924 12.2697 11.4315 11.4613 13.4649L7.53513 24.3253L5.84247 29.555L4.99197 33.2406L4.51063 35.8943C4.32171 36.7292 4.07643 37.573 4.0195 38.4304C3.95592 39.3882 4.33124 39.6459 5.19119 39.6412L7.57328 39.6386C7.86691 39.6382 8.16888 39.6538 8.46091 39.6254L8.49222 39.6227C9.00471 39.5654 9.04347 39.013 9.12996 38.6355L10.6052 32.1152L11.4796 29.3585C11.791 28.5076 12.167 27.6479 12.3514 26.7587C12.5819 25.6471 12.6683 24.4938 12.7833 23.3653C12.9303 21.9219 13.4007 20.2191 12.0184 19.2757C11.4939 18.9177 10.2912 18.6293 10.7691 17.7555L10.7903 17.731C11.1406 17.3345 11.4813 17.4928 11.8879 17.6862C13.1393 18.2813 14.0695 19.1631 14.2627 20.5712L14.2748 20.6397C14.3319 20.9357 14.2831 21.2428 14.259 21.5394L14.1218 23.4203L13.6134 27.0821C13.4748 27.7877 13.4075 28.0735 13.4081 28.8017L13.4312 30.3685C13.4399 30.5088 13.4724 30.6445 13.4797 30.7838L13.5081 32.5665C13.5134 32.7709 13.5591 32.9725 13.565 33.1786L13.57 34.809C13.5706 35.2768 13.5776 35.7031 13.6846 36.1592C13.9699 37.3762 15.0721 38.4281 16.2436 38.782C17.9076 39.2846 19.5736 38.8101 21.0498 38.0052C21.8482 37.5699 22.4218 37.3899 23.2719 37.1305C22.3885 35.9388 22.0078 34.9537 22.0065 33.4756L22.006 26.1439C22.0052 25.6131 21.8833 25.4052 22.1915 24.9014L23.3472 23.0885L22.7091 22.4026C21.8727 21.4484 21.0804 20.4414 20.3465 19.4063C19.2056 17.7973 17.8313 15.8928 17.9546 13.8119C17.9655 13.6285 18.0187 13.4498 18.0218 13.2655L16.7965 11.9614C16.2633 11.4048 15.8684 11.164 16.5682 10.385C16.6008 10.3486 16.589 10.3648 16.6114 10.3203L16.5532 10.3243ZM31.4231 10.3477C31.5442 10.5068 31.6523 10.6574 31.7357 10.8399L31.7481 10.8654C31.9466 11.3067 31.507 11.6405 31.2421 11.9281L30.1352 13.1326C29.9346 13.3698 29.996 13.3444 30.0437 13.6482C30.3978 15.9052 27.9644 18.985 26.7238 20.7071L24.5157 23.7423C24.0182 24.4083 23.6297 25.0212 23.3264 25.7969C23.2561 25.9767 23.3224 26.1974 23.323 26.3852L23.3245 34.1251C23.3441 35.3475 24.719 37.088 25.7892 37.5625C26.08 37.6914 26.3986 37.7584 26.6911 37.8911C27.2444 38.1422 27.7585 38.4742 28.3292 38.6868C30.7645 39.5941 34.1282 38.4717 34.4189 35.5877C34.458 35.2001 34.4276 34.7947 34.4374 34.4044C34.4434 34.1653 34.489 33.9325 34.4947 33.6934L34.5772 28.807C34.5779 28.5302 34.6096 28.2198 34.5585 27.9493L34.2423 26.3087L33.8492 22.6748C33.7814 21.9326 33.6488 21.1282 33.7666 20.3855C33.9959 18.9386 35.2122 17.9454 36.5158 17.4477C36.7195 17.37 36.9857 17.5331 37.1307 17.6703C37.2909 17.9094 37.3402 18.1144 37.2053 18.3789C36.7469 19.2778 34.8025 19.027 35.0566 21.5981C35.0708 21.7418 35.1095 21.8832 35.1185 22.027L35.4858 25.6876C35.5533 26.179 35.5849 26.6896 35.7503 27.1621L36.7987 30.0587L37.4459 32.2937L38.8188 38.5942C38.99 39.6067 39.2772 39.6453 40.2187 39.6417L42.6324 39.6374C43.0624 39.6364 43.4968 39.6674 43.7631 39.248C44.1895 38.5765 43.2183 34.3545 43.0124 33.3108L42.1297 29.4959C41.6791 27.825 41.0755 26.1886 40.5199 24.5504L38.4056 18.4046L36.6465 13.79C35.6489 11.1114 35.5055 11.0838 32.5898 10.5705L31.7919 10.427C31.6726 10.403 31.5429 10.352 31.4231 10.3477Z" fill="black"/>
<path d="M32.7599 31.0348C32.2148 31.0404 31.6562 30.6643 31.1655 30.4574L29.4371 29.7307C29.2174 29.6388 28.9519 29.5855 28.7611 29.44C28.2223 29.029 28.5708 28.2913 29.1704 28.2236L29.3382 28.2507C29.6138 28.3112 29.9011 28.4855 30.164 28.5942L32.1837 29.4429C32.5075 29.5813 33.0678 29.6998 33.2624 30.0207L33.2781 30.0472C33.55 30.4844 33.1879 30.9331 32.7599 31.0348Z" fill="black"/>
<path d="M15.4504 31.0091C14.956 31.0219 14.4386 30.6181 14.6678 30.0754C14.7662 29.8425 15.0109 29.7857 15.2191 29.6927L18.6861 28.2474C19.0151 28.2075 19.4071 28.3596 19.5041 28.7057C19.6803 29.3348 19.0758 29.5322 18.6319 29.7231L16.2936 30.6921C16.0225 30.8101 15.7378 30.9416 15.4504 31.0091Z" fill="black"/>
<path d="M24.6185 30.9682C23.6659 30.9682 23.3866 29.8446 24.3642 29.5353C25.4406 29.4913 25.4928 30.744 24.6185 30.9682Z" fill="black"/>
</svg>
