<svg width="48" height="48" viewBox="0 0 48 48" fill="none" xmlns="http://www.w3.org/2000/svg">
<path d="M25.0021 42.5092C24.4411 42.6525 23.9106 42.8948 23.3562 43.0607C22.6944 43.2588 22.1772 43.3039 21.5496 43.4359L21.4336 43.4581C21.1164 43.501 20.7794 43.4806 20.4588 43.4807L19.3335 43.4717L14.7402 42.9711C12.9943 42.7619 11.7632 41.9294 12.088 40.0519L12.4043 38.0759C12.4488 37.735 12.4842 37.4207 12.5076 37.0769L12.5763 33.5092C12.5762 32.2888 12.5326 31.1504 12.4927 29.9416L12.4122 28.3875C12.3475 28.4481 12.3686 28.5614 12.3593 28.645L12.038 31.1453L10.9913 36.7029C10.5823 38.5234 10.0688 40.3973 9.04561 41.9835C7.10592 44.9906 3.01386 42.9903 3.02101 39.7617L3.27279 35.4779C3.80049 28.2048 5.01993 22.1455 8.29054 15.5085L10.8774 10.9102C12.027 9.1297 12.6233 9.26681 14.6108 8.72479C15.5402 8.47134 16.534 8.11738 17.3437 7.58995C17.5429 7.4602 17.6723 7.25653 17.8632 7.12148C17.9962 7.02735 18.1378 6.95081 18.2671 6.84993L19.1539 6.1312C20.4375 5.18971 21.7284 4.69485 23.3002 4.53325C25.3003 4.49634 26.92 4.79343 28.6289 5.96104C28.9412 6.17446 29.2331 6.43631 29.5334 6.6682L30.2475 7.20304C30.3523 7.28704 30.4325 7.39734 30.5327 7.48621C31.1394 8.02443 32.786 8.58834 33.537 8.78296C36.2183 9.47779 36.2321 9.42763 37.766 11.9919C38.6591 13.4851 39.4874 15.0028 40.2057 16.589L41.9302 20.8477C42.0852 21.2776 42.2614 21.7253 42.3669 22.1699L43.3604 25.7695L43.7359 27.5625C43.969 28.6757 44.0854 29.8135 44.2528 30.9375L44.78 35.9812L44.9103 39.0241C44.9168 39.1136 44.9471 39.1897 44.9542 39.2764C45.1937 42.1897 42.3252 44.6912 39.7448 42.849C38.869 42.2238 38.53 41.1963 38.17 40.2275L37.4316 38.0625C36.8705 36.1406 36.5159 34.1707 36.1703 32.2018L35.5228 28.1455C35.4558 28.8557 35.5187 29.5865 35.4934 30.3002C35.4874 30.4714 35.4462 30.6377 35.4401 30.8086L35.4384 35.0814C35.4453 35.3473 35.4914 35.6098 35.5 35.875C35.5175 36.4138 35.4686 36.961 35.5155 37.4979C35.5961 38.4201 35.8965 39.3852 35.9614 40.2383C36.0614 41.5532 35.1781 42.583 33.9663 42.9587C33.5452 43.0893 33.1021 43.1009 32.6675 43.1442L30.5999 43.3279C28.8689 43.4688 26.9669 43.6899 25.3919 42.6974C25.2841 42.6295 25.1278 42.4996 25.0021 42.5092ZM23.6289 6.00721C21.8555 6.1927 20.6479 6.70602 19.2704 7.91418C20.3324 9.01326 20.6191 9.69042 19.6471 11.0913L18.7338 12.2992L23.1246 17.8445C23.4554 17.6272 23.8445 17.4997 24.2421 17.5801L24.4859 17.645L24.5134 17.6561C24.635 17.7066 24.7364 17.7921 24.8549 17.8395L29.3175 12.2872L28.6627 11.4844C27.8035 10.481 27.4709 9.78285 28.3164 8.63456L28.8709 7.94835C28.4747 7.70601 28.121 7.39757 27.7302 7.14679C26.5089 6.36309 25.0952 5.90067 23.6289 6.00721ZM18.1522 8.8484C17.1762 9.39023 15.6839 10.0927 14.5572 10.2754C14.6399 10.431 14.7492 10.5698 14.813 10.7344L14.9219 11.0192C15.3786 12.1169 15.0326 14.4525 14.657 15.5039L14.0103 17.0783C13.6439 18.0178 13.4771 18.9607 13.4749 19.9615L13.5618 24.136L13.8885 29.0331C13.931 29.741 13.8982 30.7501 14.0176 31.3594C14.0532 31.541 14.0377 31.7436 14.0378 31.9286L14.0344 36.2122C14.0287 36.4038 13.9897 36.5897 13.9758 36.78L13.9425 37.9812C14.355 38.0744 14.7683 38.1772 15.1871 38.2383L16.6239 38.3803C16.8184 38.3963 17.0075 38.4306 17.2029 38.4404L19.5703 38.4554L23.2545 38.4568L23.2553 19.5768C23.0709 19.5616 22.8804 19.558 22.7091 19.483L22.6784 19.47C22.4969 19.3895 22.3237 19.1811 22.1913 19.0329L17.5069 13.125C16.9262 12.3479 17.0024 12.1717 17.6029 11.3776C18.0276 10.8159 18.462 10.2822 18.7775 9.6479C18.609 9.33679 18.3929 9.10509 18.1522 8.8484ZM30.0147 8.89865C29.7453 9.18435 29.4833 9.48613 29.2834 9.82588C29.5451 10.3584 29.9931 10.8075 30.3697 11.2617C31.0401 12.0702 31.1178 12.2914 30.5414 13.1L27.3788 17.167L26.0144 18.75C25.5419 19.3004 25.5064 19.5863 24.7331 19.5642L24.7284 38.4584L28.1894 38.4554L30.0264 38.4561C31.2488 38.4552 32.4101 38.4126 33.5489 37.8854L33.8916 37.7206C33.9639 37.6849 34.046 37.6764 34.0409 37.5829L33.9615 31.6597L34.0503 29.5017C34.0814 28.8865 34.0987 27.9531 34.1908 27.4102L34.4675 23.141C34.5618 22.4816 34.5165 21.7731 34.517 21.107C34.5183 19.2449 34.5322 18.3845 33.8176 16.6748C33.151 15.0798 32.8008 13.5544 32.9324 11.8284C32.9737 11.2868 33.1832 10.7256 33.4764 10.2755C32.5771 10.0622 30.7492 9.50849 30.0147 8.89865ZM12.9002 10.8034C12.4371 10.9996 12.2279 11.4973 11.9684 11.8985C10.8631 13.6067 9.48867 16.1182 8.72086 18.0419L7.39171 21.4029C6.87229 22.9011 6.43921 24.4288 6.06712 25.968L5.7284 27.4051L4.96964 32.5312L4.57346 37.5988C4.47987 39.183 4.0659 40.6351 5.52384 41.6942C6.59957 42.2933 7.36776 41.886 7.9589 40.8982L8.41968 40.0722C8.95396 39.0461 9.20132 37.893 9.46429 36.7748L11.108 28.0063L11.896 24.5146C12.0608 23.8642 12.0203 23.4324 12.0202 22.7627L12.0194 20.6794C12.0188 19.0655 12.1328 17.8422 12.7401 16.3271C12.9732 15.7454 13.2399 15.1814 13.4188 14.5792C13.6025 13.9604 14.0206 10.9585 13.0195 10.8074L12.9002 10.8034ZM35.0287 10.8537C34.3577 11.0104 34.3821 12.0402 34.3807 12.5671L34.4116 13.68C34.4471 14.1737 34.6047 14.7501 34.7822 15.2109L35.4406 16.8516C35.5101 17.0514 35.5965 17.2549 35.6425 17.4617L35.728 17.7935C35.9383 18.8175 35.9726 19.256 35.9731 20.2881L35.9732 22.5271C35.9729 22.984 35.9345 23.4763 35.9785 23.9288C36.0117 24.2703 36.1175 24.6762 36.227 25.0047L36.5094 26.2589C36.5771 26.4926 36.5999 26.7413 36.6576 26.9766L37.3605 30.5391C37.3863 30.6799 37.3916 30.8247 37.4179 30.9657L37.9283 33.6819C38.0625 34.4149 38.1689 35.1799 38.3799 35.8958L38.6605 37.0098C38.7888 37.4374 38.8885 37.8794 39.0476 38.2969L39.3952 39.3984C39.6581 40.1638 40.1963 41.6775 41.0197 41.8984L41.0742 41.9105C41.5974 42.0266 41.9887 41.9725 42.4471 41.688L42.5309 41.6317C43.0402 41.2427 43.4165 40.7025 43.502 40.0547L43.5074 40.0166C43.5337 39.8153 43.5078 39.6066 43.5026 39.4042L43.4797 38.3789L43.0348 32.7285L42.4623 28.6055L42.0585 26.6275C41.4101 23.647 40.4562 20.7234 39.2226 17.933L37.7329 14.906L35.8923 11.7183C35.6947 11.4074 35.5227 10.8643 35.0916 10.8519L35.0287 10.8537ZM34.239 39.2461C32.6215 39.972 31.1966 40.0099 29.4368 40.0121L17.7229 40.0056C17.5897 39.9983 17.4592 39.9696 17.3265 39.9567L16.0781 39.8277C15.2858 39.7506 14.4901 39.6722 13.7281 39.4295L13.5457 40.2422C13.4924 40.4789 13.4549 40.597 13.5504 40.8281L13.5625 40.8585C13.7594 41.3332 14.2949 41.4306 14.7477 41.4644L16.5219 41.6577C18.7788 41.9194 21.0078 42.215 23.2094 41.4961L24.464 41.0741C25.5655 40.7202 25.2501 40.9166 26.1092 41.4291C27.2732 42.1235 28.8638 41.9808 30.164 41.8559L32.5389 41.652C33.2129 41.5961 34.4432 41.4738 34.5215 40.5697C34.5373 40.387 34.3763 39.2179 34.239 39.2461Z" fill="black"/>
</svg>
