<svg width="48" height="48" viewBox="0 0 48 48" fill="none" xmlns="http://www.w3.org/2000/svg">
<path d="M38.2597 42.2908L36.4704 42.1599C35.9202 42.1155 35.585 42.0676 35.0426 42.1629L31.575 42.6746C29.4147 42.8859 27.2692 42.6103 25.8245 40.7497L22.281 40.7654C22.1913 40.8078 21.7455 41.2666 21.6057 41.3829C19.3804 43.2333 17.8158 42.7712 15.1642 42.5518L13.0348 42.3935C12.7692 42.3756 12.4988 42.3817 12.2345 42.3554C12.0432 42.3363 11.8702 42.2253 11.684 42.2166C11.441 42.2053 11.1884 42.2369 10.9454 42.2485L9.87375 42.3105C8.75465 42.416 8.32893 42.6456 8.1337 41.3086L7.62834 37.4442L7.44 35.2874C7.36542 34.6949 7.4249 34.0724 7.39537 33.4751L7.33936 28.5607L7.42007 26.1035C7.42964 25.9253 7.47262 25.7593 7.48406 25.5828L7.53014 24.5237L8.43248 17.1797L9.09984 13.468C9.70275 10.5152 10.8659 6.66023 14.2543 5.93845C14.7304 5.83706 15.2129 5.80007 15.6915 5.71762C16.8677 5.51498 17.9042 5.15081 18.9502 4.57848C19.2214 4.43003 19.4337 4.24049 19.7487 4.20039C19.997 4.22315 20.2268 4.2596 20.3519 4.50862L20.4378 4.69926C20.5253 4.90931 20.5634 5.12732 20.6258 5.34379L21.198 7.48832C21.2524 7.68356 21.3215 7.88667 21.3576 8.08598L23.139 14.553C23.1883 14.7683 23.2774 15.0344 23.3615 15.2414L23.6974 16.2188C23.7656 16.4707 23.8497 16.7883 23.9835 17.0072C24.4249 15.8736 24.7514 14.7006 25.098 13.5361L27.3472 5.45034C27.4693 5.02814 27.5379 4.3609 28.0511 4.22224L28.0782 4.21545C28.4805 4.10906 28.7425 4.36481 29.0605 4.55226C29.7972 4.9866 30.6705 5.32701 31.4977 5.51957L33.1876 5.83584C35.1493 6.24862 36.585 7.14464 37.4187 9.01054L38.3577 11.5814L39.1759 14.8198L40.238 21.0862C40.2937 21.3513 40.2944 21.6333 40.3298 21.9024C40.4402 22.7423 40.4995 23.6117 40.5494 24.4579L40.6633 26.5729L40.6652 32.4816L40.553 34.7387L40.1871 38.9379L39.8571 41.0508C39.6361 42.3489 39.6427 42.4515 38.2597 42.2908ZM28.6051 6.05864L26.9419 12.167C26.8626 12.3968 26.7136 12.7387 26.737 12.9819C26.8475 12.8593 26.956 12.7286 27.0432 12.5881C27.8467 11.4135 29.4707 9.01223 29.2779 7.50004C29.2335 7.15228 28.9048 6.2841 28.6227 6.06557L28.6051 6.05864ZM19.3865 6.08985C19.0185 6.58382 18.5821 7.28592 18.6997 7.92693C18.8333 8.65546 19.0744 9.32006 19.4077 9.98442L20.1915 11.37C20.4202 11.7564 20.6464 12.1635 20.9195 12.5209C21.0083 12.6824 21.1265 12.8317 21.2457 12.9719L19.3865 6.08985ZM30.4723 6.71489C30.72 7.59089 30.6933 8.14003 30.4692 8.98832C29.9579 10.9233 28.7752 12.5589 27.6421 14.1779L24.7262 18.3053C24.3601 18.8409 24.6014 18.6963 24.7985 19.3946C24.8946 19.7349 24.9131 20.0807 24.9133 20.4323L24.9143 35.4987C24.914 35.7648 24.9252 36.0354 24.8945 36.2999L24.8064 36.8504C24.7523 37.1194 24.735 37.0968 24.8998 37.3188L25.3126 37.8633C27.8359 41.2821 28.6292 41.6777 32.867 41.0963L34.1485 40.8994C34.3068 40.8718 34.4635 40.857 34.6196 40.8172L34.9586 40.7617L34.5622 39.7221C34.1986 38.6123 33.8426 36.8294 33.7738 35.6458C33.7552 35.3258 33.8485 34.0129 33.7128 33.791C33.5234 33.4813 33.3942 33.1232 33.2543 32.7891C32.3553 30.6426 32.1271 28.3889 32.1285 26.0909C32.1288 25.5683 32.1128 25.032 32.1651 24.5121L32.4645 21.8729C32.5491 21.0123 32.5773 20.7234 32.3729 19.8164C32.3035 19.3721 31.9774 18.581 32.124 18.1563L32.1354 18.1217C32.2597 17.7623 32.6208 17.5797 32.9805 17.7111C33.3307 17.839 33.4107 18.2314 33.4789 18.5545L34.3224 22.1184C34.3302 22.1564 34.341 22.1908 34.3526 22.2275L35.0167 24.4454C35.0878 24.641 35.1187 24.8524 35.1945 25.0412C35.5793 26.0003 35.5818 28.4546 35.5139 29.6047L35.2933 32.3037C35.098 34.2942 35.0248 35.795 35.4855 37.7579C35.6221 38.3397 35.7342 38.9449 35.9542 39.5039L36.4116 40.7164L38.4761 40.9026C38.5656 40.5208 38.6007 40.1129 38.6621 39.7243L39.0839 35.931L39.2826 31.9253V26.4265L39.1987 24.6329C38.9748 20.9209 38.2369 16.39 37.2496 12.7706C36.4887 9.98114 36.0569 7.97817 32.9712 7.26098L30.4723 6.71489ZM17.4285 6.7852C16.9004 6.915 16.372 7.05478 15.835 7.14421C15.48 7.20337 15.12 7.22015 14.7674 7.29234C11.5445 7.95234 10.9066 11.6597 10.3605 14.341L9.62643 18.6364L9.09557 22.5821L8.88989 24.8386C8.85154 25.4152 8.81142 26.0668 8.80153 26.6438L8.73511 32.2147L8.81292 35.1352C8.82047 35.2615 8.85492 35.377 8.86401 35.4999L9.00089 37.3477L9.48618 40.9016L11.759 40.7312L12.1436 38.5912C12.3525 37.5867 12.6494 36.5277 12.6775 35.4958L12.6725 34.2475L12.4917 31.0121L12.4859 27.1487C12.4872 26.7604 12.5308 26.4032 12.5967 26.0213L12.7706 25.2284L13.8563 21.4469L14.3452 19.2822C14.4335 18.8951 14.5119 18.4836 14.6426 18.1089C14.8158 17.612 15.5766 17.4469 15.8309 17.9526L15.8723 18.0347C16.072 18.4168 15.6326 19.7699 15.5925 20.3019C15.5748 20.5376 15.6339 20.8188 15.6484 21.0595C15.6968 21.8673 15.7732 22.6771 15.8196 23.4727L15.8537 24.1852C15.8689 24.3668 15.9015 24.5451 15.9106 24.7277L15.9162 25.6859C15.9133 28.9151 15.3022 30.8568 14.2801 33.8881L14.158 34.1589C14.0947 34.3277 14.0855 35.9707 14.0189 36.3918L13.1941 40.7813C13.186 40.8576 13.1598 40.9523 13.1773 41.0263L13.7956 41.0478C13.9251 39.1013 14.5898 36.272 15.1642 34.4432L16.3402 31.0829C16.7063 29.9438 17.0722 30.0964 18.0858 30.0944L19.6986 30.0964C20.0963 30.1118 20.4172 30.5544 20.3508 30.9375L20.3466 30.9636C20.2449 31.5424 19.7009 31.4886 19.2667 31.4883L17.9477 31.4871C17.4569 31.4868 17.6329 31.6179 17.4355 32.168L16.3504 35.3391C16.2323 35.7372 16.104 36.1489 16.018 36.5545L15.2017 41.1284L16.6159 41.2827C19.3031 41.5683 20.3333 40.9798 22.066 38.8094C23.171 37.4254 23.499 36.9636 23.5026 35.2473L23.5046 21.4115C23.5035 19.6862 23.3973 19.1194 22.5008 17.5181C21.1395 15.0866 16.8948 10.0801 17.3612 7.25095C17.3851 7.10559 17.4749 6.92653 17.4719 6.7875L17.4285 6.7852ZM14.4899 24.3424C13.8632 26.3446 13.8501 27.1134 13.8501 29.1842L13.8494 29.9297C13.8479 30.1332 13.8305 30.3233 13.8754 30.5243L13.8907 30.5915C14.2194 29.2613 14.4637 27.8067 14.4964 26.4354L14.5045 24.9452C14.5027 24.7478 14.4672 24.537 14.4899 24.3424ZM33.5676 24.4287L33.5394 24.6115C33.4893 24.9418 33.5107 25.3013 33.5085 25.635C33.5007 26.8765 33.5197 28.6738 33.8379 29.8829C33.8478 29.9204 33.972 30.6977 34.0351 30.4805L34.1467 27.998C34.1471 26.8027 34.1124 25.5219 33.5676 24.4287ZM23.9969 38.543L23.4435 39.3627L24.0997 39.3608L24.6316 39.3285C24.3976 39.1005 24.2782 38.7634 24.0277 38.5489L23.9969 38.543Z" fill="black"/>
<path d="M32.5142 35.201C31.5129 35.0784 30.8436 33.1347 30.5606 32.2944C30.5399 32.2331 30.345 31.4896 30.3386 31.4844C30.2996 31.4527 28.4673 31.5157 28.2171 31.4702C27.3189 31.3068 27.334 30.19 28.2551 30.0552L30.0851 30.0582C30.7313 30.0566 31.4456 29.9462 31.5923 30.7996C31.7363 31.637 32.0955 32.5698 32.5282 33.305L32.8279 33.7816C33.2031 34.319 33.3987 34.9963 32.5142 35.201Z" fill="black"/>
</svg>
