<svg width="48" height="48" viewBox="0 0 48 48" fill="none" xmlns="http://www.w3.org/2000/svg">
<path d="M31.4923 43.4789C30.364 43.783 29.2697 44.2067 28.0869 44.2054C26.2486 44.2034 25.2039 43.5613 23.9944 42.3488C22.9296 43.5089 21.4212 44.2326 19.8309 44.2193C19.0909 44.2131 18.347 43.9895 17.6449 43.7773L12.9324 42.3342C12.7907 43.0141 12.8531 44.6589 12.1449 44.8163L12.1197 44.8214C12.0202 44.8422 11.9304 44.8321 11.8309 44.8167L8.49137 44.1691C7.71915 44.0249 7.17151 44.0921 7.29863 43.0557L9.46248 25.4763L10.9602 12.1249C11.3458 8.81333 11.6171 8.00413 14.2897 5.61763L16.5937 3.68339C16.9608 3.40009 17.2389 3.07713 17.7169 3.00586C18.3532 3.03766 18.4693 3.39983 18.7738 3.883C20.2254 6.18655 21.351 6.77076 24.066 6.76944C26.2201 6.76837 28.2146 5.96737 29.2148 3.90782C29.3948 3.53712 29.4766 3.23132 29.903 3.07402L29.9431 3.05979C30.0741 3.01242 30.2684 2.99771 30.4045 3.03667L30.4336 3.04576C30.6643 3.11619 30.8221 3.23351 31.0144 3.37648L34.3557 6.00215C35.4885 6.97865 36.1531 7.9131 36.6567 9.36304L36.7851 9.78285C36.9107 10.2756 36.9059 10.7632 36.9487 11.2639L38.2534 23.5427L40.6887 42.7146C40.8847 43.9583 40.7711 43.986 39.6083 44.1936L36.7265 44.7202C36.2355 44.8249 35.5417 45.0714 35.3671 44.3009L35.0547 42.4241L31.4923 43.4789ZM31.149 5.21507C30.9915 5.5184 30.8898 5.84155 30.7617 6.15735L25.7183 17.9346C25.5306 18.3793 24.5498 20.3713 24.5706 20.7345L24.5872 20.7639C24.7894 21.1357 24.728 21.4804 24.727 21.8849L24.728 25.5304C24.7284 25.721 24.7194 25.9129 24.7578 26.1007C25.5188 24.2364 27.9604 24.3512 28.4294 26.1912L28.4426 26.2318C28.5212 26.483 28.5063 26.9469 28.4373 27.192L28.427 27.2303C27.9697 28.8924 25.353 28.936 24.8094 27.3357L24.7607 27.1628C24.6857 27.5564 24.7271 27.9885 24.7279 28.3892L24.7261 40.7739C24.7252 41.1424 24.89 41.2658 25.1381 41.5219C25.8246 42.2302 26.6609 42.5702 27.6178 42.7299C28.4551 42.8697 29.312 42.5864 30.1074 42.3562L32.0805 41.7674C32.9728 41.4999 33.8971 41.2875 34.7656 40.9496L33.2743 31.8266C32.8042 31.9402 32.3422 32.0524 31.8619 32.1174L30.92 32.21C30.3549 32.2799 27.8256 32.3183 27.4173 31.9802C27.3082 31.8899 27.2385 31.777 27.2061 31.6404L27.1998 31.6152C27.1138 31.237 27.3488 30.8124 27.7477 30.7504C27.9669 30.7162 28.2001 30.767 28.4201 30.7842L29.1135 30.8124C30.5413 30.8438 31.8907 30.7206 33.2421 30.2616L33.0204 27.6065L32.8897 25.4963C32.8168 24.4433 32.8006 24.3913 32.976 23.3502L34.2567 15.2555C34.464 14.274 35.7438 14.3801 35.6163 15.6382C35.582 15.9766 35.503 16.319 35.4454 16.6546L34.5589 22.4319C34.3918 23.498 34.2131 24.1416 34.2869 25.2185C34.3407 26.0057 34.3536 26.8301 34.4078 27.6112L34.6516 30.7315C34.6895 31.1879 34.6849 31.5485 34.7649 32.0148L35.8608 38.6716C35.9469 39.198 35.9942 39.7413 36.1012 40.2636L36.5158 42.574C36.5542 42.8119 36.555 43.0469 36.6219 43.2809L39.2121 42.7748L36.7736 23.074L35.6488 12.0583C35.385 9.20179 35.1926 8.48319 32.7846 6.52129L31.149 5.21507ZM17.9799 5.30755L20.8385 11.6716L23.7286 18.6317C23.7445 18.6748 23.7653 18.7119 23.7875 18.752L25.9326 13.7401L28.9242 6.81449C28.9879 6.67687 29.0874 6.52072 29.1308 6.37729C27.3102 8.07594 24.9564 8.46946 22.526 8.12596C20.9824 7.9078 19.7083 7.27977 18.6548 6.13644C18.4134 5.87437 18.2318 5.55224 17.9799 5.30755ZM16.5981 5.47771L15.0173 6.85874C13.5503 8.14288 12.7356 9.09388 12.4654 11.1244L11.3051 21.6378L9.80588 34.3405L8.7773 42.4607C8.76802 42.535 8.73657 42.6429 8.74318 42.7155L11.3993 43.3153L13.1215 32.1677L13.71 25.7047C13.7739 24.9385 13.8513 24.7836 13.7177 24.0156L13.1116 20.2402C12.9253 19.143 12.7527 18.045 12.5862 16.9451L12.4688 16.0356C12.3998 15.5118 12.2104 14.4789 13.1524 14.5959L13.2841 14.6225C13.6562 14.7062 13.757 15.0733 13.7857 15.4063L14.8461 22.2601L15.1742 24.2837C15.2489 24.8674 15.1317 25.4581 15.095 26.0388L14.7438 30.4811C15.8491 30.8955 18.0757 30.9216 19.1781 30.7364L19.7595 30.6344C20.3669 30.5199 20.7893 30.8446 20.9512 31.4519C20.7667 32.1619 19.9457 32.1835 19.3033 32.2286C18.5034 32.2848 16.9139 32.3081 16.125 32.215C15.7566 32.1715 14.8538 31.9158 14.5877 31.9246L13.1026 40.9261C13.9725 41.2448 14.8887 41.4643 15.7734 41.7423L17.6292 42.3137C19.7686 42.9666 21.4186 43.0398 23.0198 41.3046C23.4054 40.8867 23.3441 41.0416 23.3442 40.4283L23.3425 21.7741C23.3446 21.4696 23.2066 21.2296 23.1024 20.9516L22.207 18.6548L16.9556 6.27608C16.8425 6.0089 16.7416 5.73069 16.5981 5.47771ZM26.5232 26.1335C26.3691 26.1787 26.244 26.2334 26.1607 26.3787L26.0723 26.5752C26.0056 26.8379 26.3038 27.1731 26.5546 27.2045L26.6888 27.2046C27.3514 27.0349 27.2536 26.1031 26.5232 26.1335Z" fill="black"/>
</svg>
