<svg width="48" height="48" viewBox="0 0 48 48" fill="none" xmlns="http://www.w3.org/2000/svg">
<path d="M26.8596 42.8278C25.346 42.3006 24.7613 41.4505 23.9904 40.1918C23.5117 41.4411 22.2001 42.5519 20.902 42.9042C19.1151 43.3894 17.2176 42.6641 15.5276 42.1175L13.512 41.4602C12.4694 41.0731 10.3306 40.3466 10.7051 38.8893L10.7134 38.8598C10.7746 38.636 10.8943 38.4204 10.989 38.2087C11.4948 37.0782 11.7163 35.7814 11.7375 34.5457L11.7348 31.7151L11.4228 27.3997L10.8185 22.2689L9.93507 16.6254C9.78919 15.8962 9.59307 15.1573 9.36811 14.4487L8.94615 13.2198C8.60836 12.2058 8.59965 11.0067 9.34768 10.1591L9.3774 10.126C10.1503 9.25624 10.4728 9.43619 11.3498 9.16586L12.8334 8.64583C13.4386 8.4213 14.183 8.22194 14.6446 7.74804C14.9123 7.47339 14.9428 7.17897 15.0848 6.84025C15.5355 5.76508 16.5506 5.03318 17.7202 4.95593L28.825 4.95218C31.1852 4.95035 32.131 5.03379 33.094 7.32461C33.3199 7.86204 33.5756 7.87685 34.099 8.08943L35.2017 8.54482C35.6329 8.72608 36.0701 8.95089 36.5139 9.09532C36.9128 9.22516 37.3221 9.26266 37.7146 9.42372C39.0242 9.96105 39.631 11.4783 39.1784 12.7856C38.9896 13.3305 38.6206 13.8108 38.3446 14.3125C37.8455 15.2196 37.5245 16.3385 37.3908 17.3644L37.2964 18.1098C37.215 18.9061 37.1173 19.7261 37.1046 20.527C37.0959 21.0695 37.1553 21.6659 37.0684 22.1994L37.0197 22.5473C36.9957 22.7216 37.0056 22.903 37.0055 23.079L36.9978 39.6161C36.9978 39.7326 37.01 39.8711 36.9813 39.9845C36.9033 40.293 35.5118 41.0631 35.1931 41.2265C33.2688 42.2135 28.9731 43.4998 26.8596 42.8278ZM20.3495 6.26505L18.8689 6.27494C18.9868 6.69461 19.1905 7.08804 19.3504 7.49313L21.2818 12.2816C21.4412 12.6755 21.6296 13.0641 21.7681 13.4652L23.9096 18.9473C23.932 19.0217 23.9787 19.0953 24.0261 19.1565L25.0072 16.5737L29.0385 6.27419L20.3495 6.26505ZM17.4243 6.3168C16.6722 6.58816 16.4295 7.09708 16.1435 7.79857C15.5885 9.15991 14.0899 9.59861 12.8235 10.0425L11.5844 10.4788C11.2906 10.5719 11.0035 10.5451 10.7229 10.7089C10.1045 11.07 9.89143 11.7674 10.024 12.4413C10.0782 12.7171 10.2376 13.0016 10.3335 13.2679L11.1122 15.9731L11.9416 20.8509C12.0351 21.3858 12.0983 21.925 12.1713 22.4628L12.7493 27.8327C12.7571 27.9894 12.7475 28.1593 12.8088 28.3056C13.1065 28.3635 13.4527 28.3253 13.7576 28.3337C14.3983 28.3514 14.9204 28.4209 15.6025 28.3803L16.0178 28.3406C16.858 28.2933 17.645 28.2223 18.4573 27.9978C18.6561 27.9428 18.8701 27.862 19.0761 27.8505C19.8395 27.8078 19.9816 28.8938 19.2424 29.1603C17.5963 29.7538 14.6846 29.8532 12.8656 29.6312C12.8722 29.7706 12.8982 29.9066 12.9098 30.0456L13.0257 33.4726C13.0232 35.6673 12.8832 37.1271 11.9777 39.2002C13.0132 40.0151 15.8641 40.9465 17.2971 41.3262L18.5668 41.6186C21.0904 42.1563 23.0296 40.5776 23.336 38.032C23.3801 37.6659 23.3412 37.2472 23.3412 36.8766V34.3773L23.341 28.3653C23.3408 27.7859 23.3865 27.2963 23.1016 26.772L15.6347 14.6688C15.0455 13.6868 15.2658 13.6963 15.5786 12.6408L16.0488 11.1059C16.1122 10.9177 16.1704 10.6352 16.3126 10.491C16.804 9.99236 17.5703 10.5107 17.3761 11.2104L16.579 13.766L18.6619 17.0236L23.1557 24.3402C23.2132 24.4363 23.2973 24.5249 23.3431 24.6265L23.3463 21.4699C23.3468 21.3046 23.3691 21.1285 23.308 20.9729L17.4243 6.3168ZM30.4425 6.32336L24.7971 20.8037C24.7607 20.9063 24.7059 21.0098 24.678 21.1139C24.6224 21.3213 24.6323 24.4848 24.6835 24.6104L24.725 24.6449L31.1682 14.1098C31.2428 13.9968 31.3291 13.887 31.3818 13.7617C31.2796 13.3846 31.1416 13.0193 31.018 12.649L30.7343 11.7277C30.6338 11.4046 30.4523 11.0978 30.5783 10.7533L30.5889 10.7234C30.7043 10.4155 31.1147 10.2243 31.4222 10.356C31.6988 10.4745 31.7359 10.7575 31.8298 11.0043L32.5806 13.2426C32.6817 13.5162 32.8133 13.8714 32.6802 14.1538L25.0935 26.5356C24.802 27.0397 24.6551 27.0281 24.6537 27.5934L24.6589 37.4703C24.6939 38.838 25.2423 40.3158 26.3899 41.1255L26.8596 41.4166C27.7224 41.8657 28.6372 41.7219 29.5549 41.5557L32.6335 40.8384C33.1535 40.6819 35.3935 39.7221 35.7152 39.3514C35.761 38.8671 35.7249 38.3458 35.7251 37.8578L35.7446 22.6807C35.7519 22.4919 35.7956 22.3063 35.8036 22.1155C35.8335 21.4044 35.7688 20.6763 35.8265 19.9691L35.9951 18.2582C36.1903 16.4996 36.4849 15.014 37.3467 13.4671C37.8668 12.5337 38.6466 11.3415 37.2023 10.6494C37.0573 10.58 36.8841 10.5588 36.727 10.5263C35.8666 10.3481 35.0721 9.89979 34.2685 9.56097C33.541 9.25427 32.7947 9.06911 32.2567 8.45078C31.5885 7.68288 31.8427 6.77313 30.4425 6.32336Z" fill="black"/>
<path d="M34.7525 29.6288C34.3965 29.6772 34.0109 29.651 33.6522 29.6502L32.2562 29.6379C31.4197 29.5954 30.5685 29.4773 29.7407 29.355C29.2189 29.2779 27.9062 29.189 28.3157 28.2745C28.4109 28.0619 28.5755 27.9557 28.7811 27.8709C28.9991 27.8504 29.1381 27.9009 29.3451 27.942L31.7156 28.2597C31.9068 28.2755 32.0909 28.311 32.2845 28.3187L34.5037 28.3185C35.4772 28.3027 35.3709 29.4584 34.7525 29.6288Z" fill="black"/>
</svg>
