<svg width="48" height="48" viewBox="0 0 48 48" fill="none" xmlns="http://www.w3.org/2000/svg">
<path d="M25.1081 39.6221L23.9742 37.3435C23.8905 37.4141 23.8425 37.6356 23.8046 37.7417L23.2122 39.1007C22.4053 40.6544 21.4768 42.1205 20.4635 43.5471C19.792 44.4925 18.6942 45.1634 17.5174 44.9206C16.4018 44.6904 15.273 44.0313 15.0612 42.823C15.0001 42.4741 15.0989 42.0751 15.1049 41.7184L15.1603 37.4389C14.8392 37.3186 12.8261 38.2358 12.5261 38.4045C12.0548 38.6696 11.4071 39.3079 10.9516 38.6343L10.9336 38.6072C10.7239 38.2986 10.8088 37.801 10.7898 37.4456L10.4789 32.8883C10.4689 32.7512 10.4397 32.6168 10.431 32.4783L10.2458 29.0421L10.2451 24.737L10.4409 21.3829L11.3428 14.2028L11.879 11.5694C12.516 8.90181 13.2336 7.9141 15.8479 6.70112C16.8152 6.25234 16.9227 6.36442 17.6681 5.60054L19.2992 3.98394C19.7285 3.58278 20.1455 3.12831 20.7419 3.00684L26.5309 3.01428C27.3348 3.00526 27.4851 2.93883 28.1497 3.49405L30.1234 5.39823C30.5596 5.85301 30.6427 6.05659 31.2232 6.31267L31.9109 6.63868C33.6264 7.49635 35.2253 8.60045 35.7916 10.5466C35.8965 10.9074 36.0013 11.2586 36.0946 11.6247L36.4088 12.9038C36.4781 13.1658 36.5084 13.4451 36.5631 13.7106L36.8442 15.3747C36.9747 16.0088 37.0454 16.6549 37.129 17.2966L37.606 22.2777C37.6176 22.4342 37.6541 22.5868 37.6635 22.7458L37.6999 23.9528C37.7097 24.1392 37.7449 24.3236 37.7509 24.5106L37.7507 29.6153L37.559 33.3183C37.5507 33.4495 37.5241 33.5779 37.5117 33.7087L37.222 37.4755C37.1853 37.9369 37.2584 39.0213 36.4623 38.9849C36.2251 38.974 35.9404 38.7105 35.7439 38.5858C34.8668 38.0287 33.8252 37.6111 32.8003 37.4577C32.7758 37.6901 32.7908 37.9389 32.7907 38.1731L32.8022 39.5513L32.9134 42.2402C32.9232 42.5442 32.9605 42.8716 32.8626 43.1652L32.8486 43.2067C32.5302 44.1819 31.1463 44.8551 30.2104 44.9711C28.5966 45.1712 27.7014 43.8486 26.932 42.678L25.1081 39.6221ZM20.9011 4.19612C20.4756 4.51992 20.0398 4.89245 19.7271 5.3275C20.0377 5.84851 20.2678 6.40487 20.5311 6.9489L23.671 13.6989C23.7837 13.9411 23.8442 14.1809 24.004 14.4012L24.9601 12.278L27.0522 7.72515C27.4364 6.90976 27.7743 6.06409 28.2804 5.31395L27.2426 4.27623C27.206 4.23798 27.1774 4.22133 27.1316 4.19652L20.9011 4.19612ZM29.1448 6.04445L25.22 14.5987C25.0616 14.9301 24.888 15.2566 24.75 15.5973C24.5985 15.9716 24.4354 16.9798 23.7774 16.6403C23.5867 16.5419 23.5007 16.1626 23.4209 15.9808L18.8234 6.10276L18.0129 6.98814L18.407 7.70035C18.5192 7.93768 18.6588 8.16029 18.7859 8.38904L23.2668 16.1126C23.6255 16.7377 23.787 17.2218 24.0671 17.8427L24.382 17.0938L27.1705 11.7997L29.9035 6.95823L29.1448 6.04445ZM30.9314 7.50446L26.9216 14.7917C25.6084 17.2872 24.7042 18.9211 24.3735 21.7834L24.1867 24.0817L24.1847 29.9519C24.3078 32.5463 24.9491 36.0791 27.9759 36.6494C29.4555 36.9282 30.2148 36.2799 31.5043 35.9317C31.4552 35.1685 31.3327 34.406 31.3176 33.6414L31.3215 30.7262C31.3276 30.5164 31.3665 30.307 31.3817 30.0974L31.4146 28.9607C30.6399 28.687 29.8263 28.5105 29.0388 28.2748C28.6759 28.1662 28.2091 28.1521 28.1195 27.7028L28.1133 27.6745C28.0456 27.3486 28.2197 27.0002 28.5586 26.9281L28.6003 26.9181C28.7973 26.8792 29.1206 27.0458 29.3135 27.1013L31.4944 27.7327L31.6835 25.838C31.7272 25.0813 31.8404 24.3282 31.9425 23.5779L32.0627 22.7904C32.1431 22.2417 32.1034 21.2643 32.7071 21.1584L32.735 21.1534C33.023 21.1068 33.2259 21.2875 33.3406 21.527L33.3611 21.5688C33.4598 21.7912 33.3211 22.2644 33.2873 22.4933L32.7141 27.28L32.5255 30.2163L32.5082 33.7145C32.5208 34.522 32.6992 35.3379 32.6956 36.2017C32.8911 36.2777 33.0896 36.2708 33.293 36.3101C34.1035 36.4669 34.8273 36.7684 35.5678 37.1267C35.7235 37.2021 35.8933 37.3426 36.0598 37.38L36.4841 31.5915L36.5709 29.5661L36.5679 24.5097L36.4467 22.4545C36.4418 22.4042 36.4183 22.3621 36.4143 22.3107L36.2753 20.1846L35.6548 15.3747C35.4488 14.0177 35.068 11.699 34.48 10.4445C33.7853 8.96246 32.3866 8.14004 30.9314 7.50446ZM16.9488 7.55828C13.9946 8.76775 13.7038 9.21587 12.9936 12.0679C12.6092 13.6116 12.3617 15.1695 12.1567 16.7458L11.7207 20.2731L11.5046 23.9294C11.4956 24.1875 11.441 24.4442 11.4303 24.7028L11.4242 28.2482C11.4266 28.8453 11.5075 29.4255 11.5096 30.0209L11.5397 30.9989C11.5468 31.1118 11.576 31.2186 11.5836 31.3298L11.636 32.5483C11.6441 32.668 11.6701 32.7838 11.6803 32.9031L11.7821 34.2249C11.8235 34.7019 11.8358 35.2305 11.8673 35.7234L11.9121 36.8226C11.9237 36.9912 11.9286 37.1877 11.9768 37.349C13.0142 36.748 14.1043 36.3929 15.2775 36.1785L15.4051 34.277C15.417 34.0612 15.4512 33.8479 15.4577 33.6317L15.4594 31.0027L15.3792 29.134L14.6798 21.8829C14.5443 21.0617 15.732 20.82 15.8529 21.7326L16.3354 25.9908C16.4218 26.5329 16.3744 27.213 16.467 27.6856L18.1055 27.2556C18.4448 27.1635 19.0832 26.8568 19.418 26.9686L19.4483 26.9778C19.6743 27.0502 19.8191 27.2273 19.8548 27.4567L19.8599 27.4882C19.9376 28.0185 19.3839 28.1318 19.0082 28.2452C18.2621 28.4703 17.4834 28.7136 16.7165 28.8504C16.5551 28.8791 16.554 28.8335 16.5648 28.9915L16.5794 29.3222C16.594 29.9734 16.5543 30.6371 16.6215 31.2857C16.7268 32.3022 16.6379 33.0283 16.6015 33.9915C16.5846 34.4367 16.6176 34.9311 16.5293 35.3669L16.4681 35.91C16.9151 36.1054 17.3883 36.3116 17.8477 36.4682C20.3118 37.3079 22.1516 35.8936 23.1199 33.6519C23.3475 33.1248 23.3545 33.2776 23.2688 32.762L23.0487 30.3252C23.0307 30.0927 22.9831 29.8661 22.9748 29.6327L22.9712 24.657L23.0934 22.5348C23.2225 20.8882 23.7621 20.2095 23.084 18.5104C22.5567 17.189 21.8079 15.9794 21.0782 14.7637L18.9474 11.1231L17.2794 8.07254C17.201 7.91978 17.1166 7.67382 17.0024 7.55171L16.9488 7.55828ZM23.1394 35.9645C21.3671 37.9351 19.291 38.4342 16.8589 37.3565L16.5703 37.2191C16.508 37.1906 16.4348 37.175 16.3789 37.1354L16.3585 37.8971C16.3499 38.0954 16.3206 38.2904 16.3183 38.4898L16.3099 41.3895C16.3062 41.7135 16.1495 42.6642 16.3109 42.9056C16.7797 43.5368 17.6553 43.8609 18.4225 43.6949L18.4524 43.6889C19.2244 43.5226 19.8389 42.3821 20.2323 41.7853L20.9457 40.6941C21.6954 39.4875 22.857 37.4168 23.1535 35.9909L23.1394 35.9645ZM24.7368 36.0064C24.9431 36.6866 25.6141 38.066 25.9687 38.7184L28.314 42.5973C28.5537 42.9472 28.8319 43.3789 29.2187 43.5834C30.001 43.9971 31.1576 43.577 31.6838 42.9265C31.8276 42.687 31.7029 42.4224 31.699 42.1637L31.6189 39.2255C31.5932 38.5478 31.6589 37.8464 31.5626 37.1747C31.2371 37.2841 30.9328 37.4393 30.6094 37.5516C28.8425 38.1655 27.0112 38.0503 25.532 36.765L24.7368 36.0064Z" fill="black"/>
<path d="M22.7382 6.18964L21.3718 6.18931C21.1443 6.18884 20.7079 6.22827 20.5234 6.09069C20.06 5.74522 20.2772 5.14297 20.8204 5.03483C20.9874 5.00159 21.1773 5.01144 21.3473 5.0112L25.1592 5.00966L26.5013 5.00703C26.7013 5.0068 27.0379 4.9647 27.2181 5.04725L27.2461 5.06094C27.919 5.35789 27.747 6.05009 27.2813 6.17122C27.1549 6.20408 26.9966 6.18819 26.8658 6.18842L22.7382 6.18964Z" fill="black"/>
</svg>
