<svg width="48" height="48" viewBox="0 0 48 48" fill="none" xmlns="http://www.w3.org/2000/svg">
<path d="M24.616 42.938C23.9978 42.2661 24.1508 41.8862 23.3419 42.7856C22.5651 43.6493 21.6727 43.7956 20.5975 43.7977L17.4563 43.7997C16.7648 43.7989 16.2016 43.8019 15.5417 43.5748C14.1317 43.0896 13.4667 41.7769 13.4971 40.365C13.5148 39.5436 13.6624 38.7306 13.6917 37.9115L8.96505 36.8757C7.68063 36.5911 7.92321 36.2855 8.0561 35.227L8.49944 32.4965L9.82811 25.5707L10.301 22.2831L11.4337 13.1705C11.4913 12.6441 11.4583 12.1043 11.5407 11.5831C11.7524 10.244 12.8718 8.99244 14.1269 8.54498C14.6958 8.34215 15.2523 8.27245 15.8381 8.14959L17.0564 7.83857C17.2699 7.78302 17.4881 7.76624 17.6955 7.6843C18.3611 7.42134 19.1022 6.64274 19.5971 6.15013L20.3727 5.3744C21.3197 4.38339 21.311 4.16838 22.9011 4.1642L24.8796 4.16483C25.2098 4.16528 25.6262 4.11869 25.9429 4.19629L26.0301 4.2146C26.6901 4.31456 27.0711 4.77112 27.5071 5.23105C28.2749 6.0412 28.9712 6.97054 29.8989 7.60795C31.8498 8.94838 35.0088 8.67196 36.1227 11.0334C36.4866 11.8048 36.382 12.4251 36.4791 13.2217L37.5482 20.9653C37.5708 21.0966 37.5703 21.2341 37.5951 21.3637L37.8343 22.7628C37.8523 22.8694 37.8551 22.9816 37.8773 23.0864L38.7655 28.3364L39.8877 34.9061C39.9377 35.2083 39.9639 35.541 40.0409 35.8354L40.079 36.0088C40.1758 36.6796 39.7634 36.7849 39.226 36.8728L34.2197 37.7168C34.1852 37.7789 34.4515 40.6771 34.4777 40.8583C34.6787 42.2515 33.7338 43.7249 32.3038 43.7922L27.2728 43.8016C26.4304 43.8014 25.4897 43.7476 24.8311 43.1468L24.616 42.938ZM25.0319 20.131C25.0889 20.06 25.1136 19.9374 25.1493 19.852L26.492 17.1394C27.0973 15.9756 27.714 14.7975 28.1838 13.5712L29.1108 10.7669C29.28 10.1772 29.4178 9.58499 29.6267 9.00632L28.5377 8.14607L27.4361 7.08023L25.0319 20.131ZM22.2246 5.51381C22.1081 5.53152 22.0103 5.54695 21.9025 5.59748L21.8762 5.60957C21.7348 5.67688 21.6339 5.79552 21.533 5.91112L22.178 10.2602C22.1986 10.3978 22.2049 10.5398 22.2291 10.6762L23.1107 16.3246C23.1347 16.4599 23.134 16.6003 23.1588 16.7348L23.5666 19.1068C23.6227 19.3957 23.6378 19.6892 23.7097 19.9763L23.7693 20.2538L24.0884 18.5215L26.3278 6.13284C26.3987 5.79238 26.2279 5.53616 25.8635 5.51573L22.2246 5.51381ZM20.4086 7.19291C19.6006 7.96485 18.9582 8.45418 18.051 9.05601L19.7373 14.3676L20.7279 16.9928L21.8638 19.3944L21.8758 19.4136C22.0061 19.6244 22.5897 20.864 22.6882 20.9306C22.1941 19.2908 22.0402 17.5611 21.7507 15.8793L20.4086 7.19291ZM16.744 9.24651C16.1799 9.45637 15.6061 9.54032 15.019 9.65601C13.88 9.88045 12.9825 10.8095 12.772 11.9372C12.7023 12.31 12.7504 12.7257 12.7109 13.1089L11.678 21.5059L11.1267 25.5635L9.65753 33.1645C9.50458 33.971 9.44289 34.8023 9.26603 35.6031L13.8732 36.6836L14.7106 29.1332C14.8092 28.2606 14.8217 27.742 14.7468 26.865L14.1338 21.5065C14.1024 21.2813 14.0597 21.0689 14.0837 20.8378C14.1466 20.2333 15.1158 20.1024 15.3008 20.9064L15.3182 20.9671C15.351 21.0817 15.3574 21.2123 15.3731 21.3309L15.9582 26.0915L15.9636 26.1197C16.218 27.5087 15.9999 28.9445 15.8455 30.3285C15.7884 30.8403 15.753 31.3652 15.6602 31.8713L18.2101 32.3224C18.5814 32.411 18.8664 32.8414 18.6814 33.2114L18.667 33.242C18.3945 33.8002 17.7159 33.5534 17.2488 33.4784L15.5458 33.1963L14.9944 37.8833C15.3804 38.009 15.8052 38.0315 16.2058 38.0868L19.301 38.4703C19.6508 38.4981 19.9917 38.5506 20.344 38.5268C21.7476 38.4318 23.422 37.3714 23.5067 35.8649C23.5392 35.2849 23.5101 34.6845 23.5102 34.1027L23.5108 27.9786C23.5104 26.5077 23.4626 25.2723 22.7502 23.9038L20.6145 19.7141C20.066 18.6049 19.5095 17.48 19.0743 16.3205L16.9845 9.92793C16.9203 9.70434 16.8712 9.4633 16.7896 9.2466L16.744 9.24651ZM30.7768 9.49209C30.553 10.1085 30.4005 10.7505 30.21 11.378C29.879 12.4676 29.5085 13.5693 29.0735 14.6219L26.643 19.5923C25.9201 21.0686 25.1871 22.5342 24.5738 24.0606L24.4038 24.5043C24.3315 24.6918 24.4438 24.9963 24.5043 25.1853L24.6631 25.8565C24.7447 26.3583 24.7449 26.617 24.7449 27.1362L24.7422 35.1838C24.7414 35.953 24.8185 36.5983 25.2487 37.2597L25.2719 37.296C26.2382 38.7741 27.9877 38.546 29.466 38.3803L32.9319 37.9076L32.3378 32.9043C31.6409 32.9273 30.2713 33.2279 29.7053 33.165C29.3233 33.1226 29.0705 32.634 29.2191 32.2921L29.2328 32.26C29.4494 31.7718 30.0498 31.8259 30.4924 31.7805L32.1838 31.6139L31.9733 29.715C31.8737 28.8446 31.8395 28.5437 31.8822 27.6918L31.9573 26.5046C31.974 26.2426 31.9789 25.9685 32.0187 25.7095L32.5341 21.5541C32.5645 21.3064 32.5805 21.0459 32.6497 20.8051C32.7886 20.3221 33.4652 20.1511 33.7521 20.6115L33.8183 20.7378C33.9747 21.073 33.7133 21.9901 33.664 22.3531L33.2285 26.0085C33.0917 27.5471 33.0717 28.237 33.2299 29.7289L33.7005 33.7833C33.7251 33.9816 33.7355 34.1843 33.7763 34.3801L33.8787 35.1581C33.9679 35.5575 33.915 36.0326 34.0434 36.4136L38.7411 35.6214L37.8097 30.3754L36.2115 20.4028L35.1955 12.8793C35.1143 12.0253 35.2192 11.3792 34.3737 10.8221C33.1941 10.0448 31.9309 10.0235 30.7768 9.49209ZM24.0831 37.88L24.0673 37.9026C23.2715 39.0231 22.1426 39.5871 20.8124 39.8057C20.2207 39.9029 19.3009 39.8155 18.711 39.7524L14.8473 39.229C14.8191 39.2896 14.7487 40.5014 14.7485 40.6528C14.7471 41.52 15.5075 42.3448 16.3549 42.4646C16.6256 42.5029 16.9304 42.4794 17.2049 42.4796H20.505C20.7868 42.4793 21.1148 42.5129 21.3896 42.4585L21.5515 42.4102C22.7345 42.0184 22.6822 40.9377 23.9776 40.9155C24.6664 41.0121 24.8903 41.2911 25.3244 41.7887C26.0005 42.5635 26.7428 42.4809 27.6995 42.4818L31.4104 42.4839C32.5361 42.4839 33.2878 42.4776 33.2125 41.1455L33.0641 39.2407L29.1504 39.7625C27.3837 39.9544 25.6007 39.7851 24.3961 38.2973C24.2865 38.1619 24.1961 38.0144 24.0831 37.88Z" fill="black"/>
</svg>
