<svg width="48" height="48" viewBox="0 0 48 48" fill="none" xmlns="http://www.w3.org/2000/svg">
<path d="M21.1617 41.946C20.77 42.0233 20.3102 41.9816 19.9121 41.9818L17.9672 41.9766C17.7917 41.9682 17.6227 41.9295 17.4484 41.9114L16.5805 41.8292C15.6412 41.7174 14.7005 41.5175 13.9082 40.9696C13.7283 40.8452 13.5669 40.6945 13.384 40.576L13.3516 40.5554C13.0768 40.3756 12.5199 40.4837 12.2034 40.4836L9.52923 40.4841C8.7482 40.4837 8.69467 39.7966 8.62 39.1756L8.26136 34.8695L8.25391 29.4267C8.25667 28.5196 8.3327 27.5882 8.37241 26.6741L8.42688 26.0157C8.52813 24.5107 8.71441 23.5931 8.99809 22.1249L10.9391 12.0681C11.237 10.5377 11.1238 9.20299 12.7496 8.39609C13.124 8.21027 13.5664 8.15412 13.9727 8.07063L17.599 7.06999C18.0736 6.94596 18.6297 6.88099 19.0428 6.76577C19.4642 6.64831 19.3338 5.80807 20.5815 5.99271L21.7479 6.17107C22.1455 6.2306 22.5879 6.27251 22.9886 6.29337L24.608 6.30232C25.183 6.29918 25.5862 6.2419 26.1337 6.20323L26.8628 6.12991C27.2627 6.07821 27.65 5.96716 28.048 5.91401C28.7279 5.73012 28.9921 6.56538 29.3618 6.70629C29.8636 6.89759 30.4222 7.01552 30.9413 7.16009L33.6839 7.92715C35.4695 8.40307 36.1425 8.38348 36.7606 10.441L38.4261 18.6795C38.4364 18.7629 38.4648 18.8332 38.4835 18.914L39.4324 23.2617L39.6475 24.6881C39.6916 25.0067 39.7148 25.721 39.729 26.0801L39.729 33.5424L39.3685 39.1672C39.3336 39.6899 39.3768 40.1505 38.8314 40.4068L38.7908 40.4257C38.614 40.5091 38.3857 40.4821 38.1941 40.4823L37.4289 40.4828C36.6228 40.483 35.8067 40.4535 35.0035 40.5129C34.7217 40.5337 34.5665 40.7081 34.3456 40.8649C33.318 41.5935 31.9884 41.9681 30.7375 41.9796L28.4782 41.9815C26.4454 41.9801 25.6213 41.8583 24.183 40.4455C23.3063 41.2559 22.3424 41.7589 21.1617 41.946ZM20.9064 7.56293L21.4769 9.49127C21.4862 9.53332 21.501 9.56909 21.5161 9.6093L23.8316 17.0739L24.0826 17.7747L24.8577 15.1845L27.001 8.24993C27.0647 8.04251 27.1622 7.80898 27.1803 7.59316L25.521 7.75948C23.9702 7.85881 22.4421 7.77476 20.9064 7.56293ZM19.5355 7.99137L18.4285 9.0821C18.2422 9.26313 17.971 9.47093 17.833 9.68477C18.1891 10.7079 19.0976 12.2133 19.7457 13.0299L20.9113 14.3877L21.7475 15.2767L19.5355 7.99137ZM28.5655 7.97351L26.3317 15.2627L27.1641 14.3273L27.8618 13.5214C28.6729 12.5284 29.7771 10.9256 30.2517 9.70156L28.5655 7.97351ZM31.4012 8.87102C31.9451 9.53388 31.7466 9.93677 31.4339 10.6462C31.0658 11.4816 30.59 12.3133 30.0666 13.0622L29.5105 13.7947C28.5158 15.1045 27.4615 16.0962 26.4504 17.3265C25.2996 18.7268 24.9365 20.592 24.9371 22.3682L24.928 30.9814C24.9215 31.1773 24.8907 31.3653 24.8636 31.5585L24.4442 35.3217C24.3901 35.9159 24.3235 36.5073 24.3288 37.1052C24.3445 38.8902 25.5955 40.2447 27.3746 40.4786C27.7686 40.5303 28.2202 40.4882 28.619 40.4881C30.1692 40.4878 31.6974 40.6099 33.1026 39.8526L33.9196 39.3462L33.9406 30.6532C33.8128 30.5919 33.7002 30.5817 33.565 30.5507L29.9645 29.5651C29.6625 29.4831 29.29 29.4424 29.0163 29.2961C28.346 28.9376 28.7403 27.7508 29.4743 27.8721C29.7594 27.9192 30.0456 28.0504 30.3278 28.1252L32.8644 28.8186L33.669 29.0432C33.5358 28.4496 33.5237 27.8176 33.4702 27.2121L33.0878 21.1874C33.0768 20.8962 32.991 20.5879 33.1502 20.3178C33.477 19.7633 34.2249 19.9287 34.4285 20.5077L34.4415 20.5389C34.5376 20.7896 34.5494 21.0989 34.5925 21.3632L35.014 24.17L35.3569 28.1132C35.3695 28.3595 35.4107 28.6042 35.4179 28.8515L35.4312 36.1865C35.4285 36.3861 35.3836 36.5751 35.3749 36.7722L35.3693 39.0041L37.9667 39.0138L38.0087 38.1307C38.0188 37.9949 38.0513 37.8664 38.0584 37.7298L38.1803 35.2734C38.2002 34.9604 38.2502 34.649 38.2613 34.3346L38.273 29.0719C38.2736 26.6663 38.3354 25.0643 37.8032 22.7226L35.4604 11.4374C35.3275 10.7908 35.3434 10.0843 34.6637 9.74979L34.6265 9.73123C34.2705 9.55709 33.8244 9.50107 33.4392 9.41009L31.6516 8.94134C31.5882 8.92179 31.4648 8.8579 31.4012 8.87102ZM16.6356 8.89446L14.0431 9.58671C12.6248 9.87588 12.6816 10.3926 12.484 11.6007L10.2191 23.3202C10.0643 24.2088 9.8988 25.1138 9.84147 26.0148L9.81634 27.2169C9.8147 27.8699 9.72892 28.4342 9.72695 29.1052L9.73633 35.332C9.74383 35.5608 9.79328 35.7847 9.8102 36.0124L10.0217 38.7618C10.0282 38.8362 10.0246 38.9318 10.0598 38.9987L12.6201 38.98C12.5821 38.7118 12.5878 38.4375 12.5863 38.1671L12.5888 33.7367L12.7689 29.1548C12.7772 28.9665 12.818 28.7842 12.8287 28.5975L12.8682 27.5597L13.4779 21.1844C13.5168 20.8811 13.5448 20.5117 13.735 20.2616C14.133 19.7383 14.9788 20.0146 15.0127 20.6539C15.028 20.9421 14.9432 21.2424 14.9075 21.5273L14.7194 23.0507L14.3132 28.5053C14.3043 28.6971 14.2719 28.8913 14.2748 29.0824C14.5998 29 14.9762 28.9481 15.286 28.8234L18.0836 28.0548C18.4993 27.9349 18.934 27.8562 19.2248 28.2843L19.2411 28.3077C19.4737 28.6475 19.3512 29.1106 19.0075 29.3217C18.7975 29.4506 18.5671 29.4809 18.336 29.5481L14.4912 30.574C14.3836 30.6004 14.2577 30.6178 14.1595 30.6687C14.1148 31.2453 14.14 31.8199 14.1254 32.3968C14.119 32.6481 14.0703 32.8927 14.0643 33.1448L14.0607 38.1787C14.0613 38.5237 14.0435 38.8834 14.0927 39.2251C15.1054 40.1177 15.7579 40.2014 17.0626 40.3372C17.4025 40.3726 17.7423 40.4581 18.0836 40.4855C18.5157 40.5203 18.9715 40.4872 19.4059 40.4865C20.8938 40.4838 21.7644 40.5608 23.0198 39.4973C23.1018 39.4278 23.2303 39.341 23.2881 39.2543L23.3073 39.2164C22.7865 37.7424 22.8114 37.0863 22.9631 35.5264L23.3413 32.0759C23.3884 31.6659 23.4524 31.2879 23.4558 30.8729L23.4587 22.245C23.4592 21.6243 23.4827 20.7915 23.7283 20.2144C23.3175 19.5798 23.0166 18.8536 22.5336 18.2693C22.3491 18.0461 22.1368 17.8402 21.939 17.6284L19.1425 14.5898C18.1447 13.4204 16.7356 11.449 16.4217 9.89055L16.4155 9.86131C16.3487 9.52568 16.465 9.22099 16.6438 8.94134L16.6356 8.89446Z" fill="black"/>
</svg>
