<svg width="48" height="48" viewBox="0 0 48 48" fill="none" xmlns="http://www.w3.org/2000/svg">
<path d="M20.8011 40.8134C20.4915 40.7385 20.1198 40.7585 19.8026 40.7569L18.2112 40.7521C17.2253 40.7496 15.3391 40.652 14.6461 39.7982C14.1626 39.2025 14.3604 38.4546 14.4242 37.7608L14.5105 36.5152C14.567 36.1117 14.345 35.6984 14.238 35.315L13.8063 33.4918L12.7476 27.6363L11.1008 20.3238C10.9208 19.3551 10.8465 18.3563 10.7781 17.3751L10.7031 15.2969C10.7078 13.455 11.0921 11.6143 12.8524 10.6494C13.218 10.4489 13.6277 10.3396 14.0211 10.2091L16.6507 9.34476C17.7408 8.94369 18.2805 8.62902 19.134 7.79432C19.7382 7.20336 20.0878 6.76949 20.8081 7.45701C21.2491 7.87785 21.7955 8.0653 22.3609 8.26358L22.4651 8.29944C22.8838 8.44372 23.4316 8.34899 23.8696 8.34913L24.8151 8.34796C25.6488 8.34543 26.4275 8.0946 27.0823 7.56641C27.3479 7.35219 27.4588 7.16118 27.828 7.10558L27.9621 7.1165C28.3169 7.151 28.5119 7.45429 28.7557 7.68486C29.7042 8.58186 30.1288 8.88571 31.3128 9.3156L33.3529 10.0005C34.8106 10.4839 35.973 10.8089 36.7555 12.287C37.1574 13.0461 37.3044 14.3361 37.3105 15.2133L37.0321 19.3238C36.9975 19.6531 36.9724 19.982 36.9128 20.3082L35.1598 28.0543L34.1724 33.7613C33.9478 34.8187 33.4072 35.9283 33.5189 36.9769L33.5746 37.7107C33.6152 38.1337 33.7538 38.7582 33.6166 39.1727L33.603 39.2106C33.3801 39.869 32.8374 40.02 32.242 40.2199C30.4566 40.8191 28.8647 41.1011 27.0472 40.517C26.154 40.23 25.3253 39.709 24.645 39.0687C23.7486 40.6409 22.5715 40.9303 20.8011 40.8134ZM19.8046 9.01241C19.0419 9.74366 18.0879 10.3836 17.8684 11.5003C18.046 11.757 18.3145 11.9666 18.5714 12.1418C19.7887 12.9719 19.9108 12.8552 19.6037 14.2146L19.377 15.1871C18.5438 18.2152 19.0064 18.5312 20.434 21.1988L21.8669 23.7301C22.1281 24.1744 22.3819 24.6504 22.6917 25.0628C23.0704 25.5725 23.5104 25.9636 24.1409 26.1299C24.4814 26.0286 24.2533 25.2014 24.2105 24.9723L23.1414 20.2214L19.8046 9.01241ZM28.1747 9.05821L24.7477 20.3199C24.4863 21.0966 24.8479 21.837 25.0459 22.6285L25.2746 23.5809C25.3183 23.7986 25.352 24.0211 25.4132 24.2342L25.4651 24.3714C25.5528 24.3128 25.6337 24.1554 25.6943 24.0648L26.1994 23.3206C27.3786 21.5966 29.0632 19.2169 29.0656 17.0246C29.0666 16.0511 28.7706 15.1344 28.5176 14.2027C28.2554 13.2372 28.1534 13.0133 29.0628 12.3763C29.4216 12.125 29.8695 11.8874 30.111 11.5091C29.8724 10.4856 29.0343 9.69266 28.2286 9.05301L28.1747 9.05821ZM21.2597 9.31602L21.8463 11.2125C21.9013 11.4464 21.9863 11.7129 22.0704 11.9367L23.5386 16.8071C23.546 16.8418 23.5576 16.8726 23.5697 16.9058L23.8923 17.9969C23.9224 18.1111 23.9669 18.211 24.028 18.3116L24.7088 15.9308L26.7292 9.33679L25.3524 9.70382C25.0527 9.76986 24.6864 9.73058 24.3782 9.731L23.3869 9.73049C22.8122 9.72861 22.2202 9.64302 21.6749 9.45318C21.5827 9.42111 21.3491 9.30379 21.2597 9.31602ZM31.303 10.733C31.4977 11.5302 31.482 12.1393 30.8815 12.7401C30.7036 12.9181 29.6971 13.5872 29.697 13.5875C29.6913 13.6011 29.832 13.992 29.8477 14.0348L30.2243 15.4476C31.2637 19.1098 27.8165 23.406 25.8582 26.1714L24.5899 27.9772C23.919 28.9896 23.6333 29.5634 23.6306 30.7575L23.6295 33.283C23.6305 34.3421 23.7258 34.6242 23.9942 35.6661L24.1037 35.9646C24.8833 38.2127 27.2658 39.7017 29.6188 39.4767C30.3687 39.405 31.1811 39.1651 31.887 38.9049L32.35 38.7348L32.1813 37.1832C32.1079 36.0335 31.9301 34.93 31.7193 33.7953L31.6188 33.2717C31.5241 32.8165 30.5037 32.4378 30.0895 32.2328L28.4078 31.4054C28.0406 31.2291 27.3177 31.0406 27.2053 30.5856L27.1988 30.5604C27.088 30.0886 27.5216 29.5699 28.0198 29.722C28.2503 29.7923 28.4823 29.949 28.6997 30.0569L29.5629 30.4595L31.3193 31.3505L31.2599 30.9C31.2207 30.6771 31.2281 30.4487 31.2267 30.2232L31.2269 27.9864C31.234 27.5692 31.2881 27.164 31.3462 26.7514L31.5608 25.4527C31.8791 23.8153 32.3261 22.1825 32.8395 20.5958C32.9533 20.2441 33.0419 19.8351 33.2075 19.5061C33.6144 18.6977 34.6597 19.2009 34.4065 20.0621L33.8892 21.6608C33.1401 24.13 32.3196 27.2917 32.5097 29.904L32.6873 31.7954C32.738 32.297 32.8277 32.7717 32.9363 33.2604L34.0599 26.7887L35.6087 20.0423C35.6821 19.6446 35.709 19.2339 35.7435 18.8316L35.9947 16.0905C36.0486 14.6437 35.9558 12.4573 34.43 11.8166L31.303 10.733ZM16.6477 10.816C16.0964 10.9416 13.6946 11.7045 13.3225 11.9424C11.5546 13.0729 11.998 16.3253 12.1676 18.1088C12.2285 18.7486 12.2564 19.4099 12.387 20.0401L13.7256 25.854L15.0453 32.9856C15.538 31.7974 15.5443 28.7976 15.3991 27.5504C15.1976 25.8207 14.8064 24.1188 14.3236 22.446L13.792 20.7194C13.7099 20.4475 13.6203 20.1825 13.561 19.9041C13.4 19.1494 14.5016 18.6252 14.8376 19.7106L15.3048 21.1285C15.4373 21.5477 15.5469 21.9758 15.6797 22.3941L16.0547 23.8004C16.1178 24.0374 16.1845 24.2786 16.2266 24.5204L16.3507 25.0578C16.7578 26.6273 16.8429 28.6136 16.8309 30.213C16.8281 30.5798 16.7813 30.9403 16.7857 31.3071L18.9353 30.2356L19.548 29.9355C19.6877 29.8656 19.8406 29.7602 19.9931 29.7256C20.7288 29.5591 21.1223 30.5159 20.5667 30.9359C19.8229 31.4982 16.6995 32.6438 16.425 33.0699C16.337 33.2065 16.3076 33.5043 16.2774 33.6676L15.8406 36.5727L15.6255 38.9064C16.2985 39.3197 17.2092 39.385 17.9794 39.388L19.3942 39.3934C19.6222 39.3978 19.8575 39.4322 20.0862 39.4457L21.2872 39.4689C22.4432 39.4724 23.2693 39.2864 23.5544 38.0248C23.5922 37.8577 23.5935 37.8793 23.5093 37.734L23.3058 37.3717C22.7226 36.2558 22.3288 35.0444 22.3287 33.7798L22.3274 32.4026C22.3255 30.1671 22.0826 29.1992 23.4445 27.3202C22.1489 26.7167 21.7435 26.1423 21.0393 24.9592L18.8437 21.0699C17.937 19.4269 17.3211 17.9231 17.778 15.9853L18.3353 13.8315C18.3877 13.5903 18.4262 13.6533 18.2124 13.5167C17.2346 12.8924 16.1488 12.1476 16.6907 10.8288L16.6477 10.816Z" fill="black"/>
</svg>
