<svg width="48" height="48" viewBox="0 0 48 48" fill="none" xmlns="http://www.w3.org/2000/svg">
<path d="M26.1672 44.0572C25.3435 43.4141 24.6146 42.2472 24.0972 41.341L22.7425 43.0582C21.4418 44.7703 19.3775 45.6364 17.2858 45.0355C15.9196 44.643 14.3724 43.9867 14.1816 42.3702L14.1783 42.3397C14.1458 42.0599 14.1382 41.7527 14.1719 41.4726L14.1777 41.4256C14.2915 40.4694 14.6677 39.4138 14.8067 38.367L15.0916 35.2856L15.087 32.3607C14.971 30.1657 14.5419 27.9636 13.9428 25.8513L13.1288 23.3744C13.1075 23.5104 13.0667 23.641 13.0448 23.7756L10.0585 38.4608C10.0195 38.6363 10.0074 38.8201 9.9495 38.9908L9.93802 39.0233C9.78731 39.4632 9.34838 39.6958 8.90653 39.6373L5.82788 39.2057C5.1112 39.1052 4.06051 39.2063 3.85621 38.2861C3.83754 38.202 3.84056 38.1091 3.81844 38.0272L3.79527 37.9569C3.75564 37.7986 3.76298 37.6048 3.75554 37.4412L3.73901 33.7975L3.81713 32.9156C4.03785 30.0116 4.55889 27.1603 5.04506 24.2928L6.82533 13.7225C6.90961 13.2104 6.95189 12.6844 7.08422 12.1815C7.46878 10.7202 8.49159 9.3669 9.82261 8.64366C10.6078 8.21706 11.4884 7.97166 12.3332 7.69238L14.4608 6.95279C15.6401 6.56054 16.0395 6.52848 16.9611 5.71098L18.111 4.71357C18.5923 4.31888 18.9881 3.97861 19.6157 3.84965C20.2574 3.78561 20.9335 4.02172 21.5673 4.11606C23.1484 4.35141 24.7343 4.33213 26.3159 4.12447L27.4454 3.93148C27.8106 3.86614 28.2126 3.77757 28.5819 3.86982L28.6485 3.88864C29.287 4.08217 29.7753 4.57643 30.2663 5.00682L30.9212 5.57335C31.1533 5.79207 31.4453 6.12146 31.7369 6.26162C32.6081 6.6804 33.5575 6.97023 34.4765 7.26577L35.953 7.77788C36.7466 8.04324 37.5659 8.24373 38.283 8.69415C39.417 9.40632 40.5683 10.6838 40.8616 12.0381L40.976 12.5292C41.0259 12.6972 41.0404 12.8671 41.0693 13.0391L41.9464 18.2044C41.9685 18.3285 41.9768 18.4616 42.0084 18.5829L43.1142 25.1737L44.0935 31.8915C44.1548 32.2713 44.1469 32.6616 44.1668 33.0446L44.2359 35.9625C44.2356 36.7195 44.298 37.5639 44.155 38.3084C43.988 39.1779 43.0911 39.1225 42.4229 39.202L39.3364 39.5941C38.2386 39.7892 38.0653 39.1994 37.8818 38.2858L34.8685 23.3806L33.8519 26.6198C33.3786 28.3674 32.9748 30.7101 32.8861 32.5541L32.9111 35.8176L33.0585 37.2695C33.1202 37.8209 33.1786 38.3842 33.2813 38.9295L33.4193 39.5888C33.4882 39.9746 33.5475 40.4024 33.672 40.7736L33.7607 41.0769C34.1835 42.2076 33.5612 43.6058 32.6002 44.2476C32.1615 44.5407 30.7007 45.0803 30.1913 45.1673C28.9179 45.3848 27.551 45.0571 26.5034 44.303L26.1672 44.0572ZM19.8876 5.22193C19.9306 5.47215 19.9997 5.74529 20.0883 5.98323L20.1589 6.24746C20.1673 6.28848 20.1795 6.31956 20.1942 6.35809L20.7252 8.18232C20.8253 8.66138 21.1316 9.66348 21.3195 10.1559L23.8316 18.4217C23.8782 18.592 23.9391 18.7388 24.029 18.8903C24.1252 18.7225 24.1561 18.4823 24.2091 18.2957L25.0914 15.3333L28.1379 5.4287C28.2052 5.18738 28.0047 5.22643 27.8484 5.25273L27.2226 5.35946C25.4 5.69377 23.5178 5.73432 21.6796 5.50623L20.5221 5.31882C20.3144 5.28249 20.0979 5.22966 19.8876 5.22193ZM18.6953 6.00348C18.0639 6.55496 17.4323 7.14812 16.7337 7.61387L17.8407 8.89435C18.1851 9.27512 18.651 9.59682 18.4692 10.1717L18.4619 10.1964C18.411 10.3587 18.2922 10.5158 18.2046 10.6607C17.2849 12.183 18.3466 13.2223 19.3029 14.2986L20.9365 16.1696L21.8437 17.1795C21.9659 17.3208 22.0654 17.4695 22.2045 17.5981L18.6953 6.00348ZM29.3619 6.01923L25.7761 17.5812L27.0253 16.1309L29.2105 13.7086C30.0588 12.7765 30.4966 11.9228 29.7921 10.6748C29.3013 9.80551 29.4103 9.77757 29.9944 9.10337L30.7926 8.18424C30.9642 7.99463 31.1533 7.82045 31.3133 7.62071L31.0966 7.46616C30.7191 7.22991 30.3834 6.88787 30.0457 6.59879L29.578 6.19257C29.5068 6.1329 29.428 6.08527 29.3619 6.01923ZM15.3695 8.09748L12.7382 8.98815C12.1055 9.20954 11.4398 9.3962 10.8323 9.68129C8.67188 10.6952 8.46816 12.0318 8.11477 14.055L5.50542 29.6717L5.15424 32.4373L5.03991 35.4931C5.04099 36.2419 5.02959 36.9841 5.14045 37.7259C5.50964 37.825 5.92378 37.8523 6.30459 37.8977L7.49991 38.0607C7.92103 38.1065 8.35008 38.126 8.76642 38.2126L12.1669 21.4408C12.2296 21.1756 12.2763 21.0597 12.2037 20.7945L11.5238 17.9178C11.4409 17.451 11.2656 16.9109 11.8476 16.6852L11.8793 16.6725C12.3588 16.4848 12.6933 16.875 12.7641 17.3266L12.9748 18.4362C13.1401 19.0629 13.2196 19.7365 13.4537 20.3436L14.835 24.2225L15.2891 25.7398L15.6632 27.1939C15.6951 27.3886 15.755 27.5911 15.7987 27.785L15.9854 28.7342C16.2221 29.8891 16.3311 31.1025 16.3871 32.2779C16.6561 32.3069 16.9427 32.2739 17.2148 32.273L19.1691 32.2716C19.635 32.2721 20.1739 32.1696 20.3931 32.7069L20.406 32.7378C20.5392 33.0879 20.3408 33.3895 20.0507 33.571L20.0262 33.587C19.8549 33.6907 19.0536 33.6373 18.8191 33.6375L16.4294 33.635C16.3136 34.2695 16.44 35.4549 16.3785 36.1968L16.2157 37.6021C16.1524 38.2172 16.0994 38.8339 15.9755 39.4411L15.6299 40.9929C15.3702 42.0866 15.3155 42.753 16.4626 43.2729C18.6081 44.2455 20.1127 44.1733 21.7373 42.1644L23.4259 39.9984C23.2434 39.6548 23.1586 39.2562 23.0583 38.8826C22.6306 37.2899 22.6108 36.5506 22.6101 34.9071L22.6092 27.36C22.6095 26.7309 22.5713 26.0781 22.6214 25.4529C22.7192 24.2312 22.9938 22.9024 23.359 21.7425L23.5528 21.1588L17.5912 14.3657C16.4525 12.9978 16.1455 11.6865 17.0258 9.99723C16.7226 9.68274 16.4428 9.33188 16.1628 8.99602L15.8472 8.63935C15.7139 8.47393 15.5859 8.22395 15.433 8.08534L15.3695 8.09748ZM32.6103 8.07676L32.468 8.29618C32.2555 8.62393 31.9479 8.92421 31.6875 9.21549L30.987 10.0384C32.0674 12.5459 31.2291 13.496 29.4756 15.4361L26.6476 18.6324C25.6238 19.8159 25.0417 20.5954 24.6253 22.1473L24.4695 22.6756C23.9158 24.8038 23.917 26.1732 23.9165 28.2959L23.915 35.3012C23.9147 35.7212 23.8713 36.1942 23.9355 36.6063C24.1111 37.7354 24.3438 38.8907 24.8315 39.9318C25.4588 41.2711 26.4972 42.8627 27.8651 43.538C29.1711 44.1828 29.8472 43.8896 31.0321 43.4462C32.8348 42.7718 32.6636 42.2534 32.2721 40.6697L31.805 38.074L31.542 35.261L31.5409 33.6523C31.1687 33.6224 30.7886 33.6371 30.4152 33.6369L27.8997 33.6413C27.3838 33.6451 26.8322 33.4081 27.0612 32.7811L27.0739 32.7452C27.2218 32.346 27.4946 32.2725 27.8722 32.2723L31.5874 32.2736C31.7069 30.1201 32.0961 27.9123 32.6684 25.8345L34.2422 21.3279C34.5521 20.4505 34.8053 19.5568 34.9887 18.6444L35.1484 17.8348C35.2272 17.3822 35.2506 16.4073 36.0702 16.6435C36.6958 16.8237 36.5486 17.4479 36.4703 17.9178C36.381 18.4534 36.2983 18.9939 36.1672 19.5218L35.7754 20.8869C35.7559 20.9648 35.7222 21.0496 35.747 21.1265L39.2087 38.2071L42.9009 37.8037C43.0091 36.3446 42.9769 34.2998 42.8547 32.8626L42.3766 28.8094L39.8736 13.992C39.57 12.146 39.3214 10.7998 37.453 9.77443C36.9511 9.49899 36.393 9.34402 35.8526 9.16379L34.4126 8.6709C33.8156 8.47988 33.1926 8.30668 32.6103 8.07676Z" fill="black"/>
<path d="M25.4352 27.4444C24.4952 27.481 24.4377 26.2682 25.2843 26.0664C25.5815 26.0891 25.8573 26.1773 25.9865 26.4801L26.0009 26.5195C26.0418 26.6219 26.0583 26.7754 26.0321 26.8843L26.0196 26.9297C25.9439 27.2117 25.7132 27.3783 25.4352 27.4444Z" fill="black"/>
<path d="M25.4404 33.56C24.9724 33.5537 24.4703 33.0908 24.7123 32.6036L24.7253 32.5786C24.8509 32.3198 25.0146 32.178 25.3142 32.1399C25.5773 32.1142 25.8295 32.2461 25.9585 32.4766L25.9752 32.5072C26.226 32.9531 25.8831 33.4344 25.4404 33.56Z" fill="black"/>
</svg>
