<svg width="48" height="48" viewBox="0 0 48 48" fill="none" xmlns="http://www.w3.org/2000/svg">
<path d="M26.0219 40.2241C24.0468 40.6879 22.6928 40.3615 20.7827 39.8901L17.8497 39.1808C17.1091 38.9989 16.3257 38.9028 15.6158 38.6168C14.1647 38.0324 13.0138 36.6569 12.9187 35.0597C12.8664 34.1816 12.9635 33.4354 13.0196 32.5901L13.0488 31.5535C13.0562 31.3693 13.0915 31.1896 13.1026 31.0078L13.129 29.9087C12.9421 30.5056 12.6965 31.1028 12.4718 31.6875L11.3477 34.3828C11.0644 35.0093 10.7604 35.5977 10.3591 36.1571C9.69117 37.0881 9.32405 37.2557 8.33888 36.8943L4.32742 35.5615C3.49295 35.3001 3.67885 34.3404 4.36039 34.041C4.41419 34.0174 4.46603 33.8071 4.48866 33.7418L11.1669 13.638C11.9255 11.5352 13.6502 10.172 15.8556 9.77631L18.047 9.4855C18.3216 9.4442 18.4464 9.44022 18.6533 9.25675L19.0172 8.93294C20.0825 7.98316 20.6534 7.66848 22.0261 7.53264L25.5361 7.51562C27.1603 7.51769 28.3104 8.07391 29.3879 9.35228C29.7263 9.75381 34.8907 9.07052 36.5697 13.005C36.7242 13.367 36.8179 13.6718 36.9519 14.0161L43.5821 34.0157L43.7345 34.0763C43.9162 34.1596 44.0823 34.3212 44.1449 34.5153L44.1575 34.5586C44.4097 35.3268 43.6994 35.5501 43.1285 35.7457L39.4187 37.0002C37.7945 37.5039 36.8791 35.007 36.3964 33.9024L35.4181 31.4759C35.1992 30.8969 34.9773 30.3179 34.8048 29.7228L34.8862 31.5938C34.8968 31.7327 34.9291 31.8682 34.9376 32.0084L35.0542 34.4111C35.0678 34.7249 35.0934 35.0441 35.0457 35.3561C34.7343 37.3912 33.1902 38.4763 31.3372 38.9136L26.0219 40.2241ZM22.4687 8.98506C22.1629 8.99045 21.8694 8.98216 21.5743 9.06977L22.3629 11.625L23.8913 15.8547C23.9213 15.934 23.9656 16.0153 24.0187 16.0812L24.4276 15.0166L26.4699 9.09025C25.8568 8.93931 25.2181 8.98591 24.5901 8.98548L22.4687 8.98506ZM20.2252 9.91356C19.4155 10.6264 18.3126 11.4139 18.7895 12.725C19.009 13.3286 19.3576 13.8522 19.6715 14.4085L21.5657 17.5781L23.5115 20.6665C25.2602 19.4562 25.2669 19.4592 26.4024 17.6301L28.5661 13.9964C28.7416 13.6832 28.9233 13.3758 29.069 13.0473C29.3044 12.46 29.3473 11.8848 29.0913 11.2947C28.8191 10.6674 28.2202 10.4047 27.8044 9.90845C27.6549 10.2305 27.5598 10.5823 27.4494 10.9199L25.005 17.753C24.4481 19.1952 23.6658 19.3778 23.0363 17.7891L20.8432 11.8789L20.3505 10.2739C20.3181 10.1642 20.286 10.0089 20.2252 9.91356ZM30.6192 11.0999L30.7592 11.8369C30.8904 12.8564 30.4747 13.6171 30.0177 14.4859L27.1861 19.2594C26.3365 20.6036 25.4023 21.3538 24.0516 22.1548L24.3165 23.0879C24.5665 23.887 24.5582 24.8205 24.4715 25.6406L23.9142 29.3981L23.8571 30.087C23.6748 31.9362 23.8236 33.2284 25.1269 34.6875C26.6572 36.4006 29.3362 38.0863 31.6987 37.2016C32.6466 36.8465 33.5506 35.9703 33.5705 34.9014C33.5792 34.436 33.5301 33.9832 33.4998 33.5206L33.3756 30.6397C33.361 30.3795 33.313 30.1234 33.3042 29.8646L33.1384 26.4234C33.1249 26.1674 33.2156 25.7081 33.1524 25.5046L31.6952 20.7618C31.6888 20.6521 31.6762 20.545 31.7041 20.4375L31.7114 20.4077C31.8169 20.0034 32.2137 19.7242 32.627 19.8437L32.6642 19.8542C32.8575 19.9131 32.983 20.0414 33.0777 20.2153L33.0949 20.25C33.1473 20.3536 33.1718 20.4445 33.2041 20.5547L34.8302 25.6524L36.8643 30.9961C36.9814 31.2835 37.0849 31.5737 37.2005 31.8617L37.8968 33.5156C38.1004 34.052 38.5993 35.1108 38.9675 35.4467L40.893 34.8404C41.2878 34.7046 41.7345 34.5916 42.1069 34.4058L42.0976 34.385C42.0057 34.1748 41.9453 33.9468 41.8711 33.7292L35.7437 15.2234C35.2015 13.5856 34.8608 12.3696 33.0599 11.6481C32.263 11.3289 31.4431 11.2923 30.6192 11.0999ZM17.3095 11.1445C14.8926 11.3465 13.1607 12.1179 12.4337 14.6678L5.87185 34.4086L8.9483 35.4809C9.53297 34.8063 9.91383 33.9054 10.2674 33.0938L11.5728 29.8673L13.6568 24.1846L14.5353 21.409C14.6591 21.0099 14.7359 20.5369 14.9298 20.168C15.2513 19.556 16.069 19.7333 16.3102 20.4276C16.3588 20.9489 16.1018 21.457 15.9456 21.9431L14.8739 25.3162C14.787 25.6136 14.8715 26.1365 14.8566 26.4868L14.7893 28.1719C14.7768 28.3614 14.7383 28.5475 14.7296 28.7386L14.6719 30.4088C14.6644 30.5645 14.6311 30.7142 14.6253 30.8731L14.4989 33.3038C14.4779 33.7683 14.4991 34.2669 14.4235 34.7253C14.2093 36.0231 15.8467 37.3646 17.0626 37.4035C17.3698 37.4133 17.6553 37.3745 17.9594 37.3406L19.2774 37.156C20.912 36.9012 22.4218 36.5262 23.5319 35.1791C22.1336 33.2475 22.0907 31.3113 22.4383 28.9991L22.7366 27.1289C23.1613 24.7686 23.0603 23.0779 21.9038 20.965C21.7489 20.6819 21.561 20.4227 21.3905 20.1494L18.292 15.0795C17.7942 14.1909 17.2552 13.2866 17.1831 12.2445C17.159 11.8974 17.3777 11.2674 17.3557 11.1469L17.3095 11.1445ZM24.5635 36.3483C23.5532 37.3521 22.5921 37.9431 21.2172 38.381C22.0948 38.6682 23.0689 38.9074 23.9956 38.9067C25.0911 38.9036 26.2572 38.6346 27.3017 38.2917C26.8526 38.0159 26.3746 37.7951 25.9436 37.4883C25.4436 37.1324 25.035 36.7167 24.5635 36.3483Z" fill="black"/>
<path d="M25.7701 29.6256C24.6301 29.6628 24.5871 28.0644 25.5228 27.8009C25.8236 27.7863 26.059 27.8432 26.2304 28.1206L26.2474 28.1488C26.5561 28.6526 26.3443 29.4319 25.7701 29.6256Z" fill="black"/>
</svg>
