<svg width="48" height="48" viewBox="0 0 48 48" fill="none" xmlns="http://www.w3.org/2000/svg">
<path d="M24.3553 41.9627L24.0053 41.4716L23.7428 41.8621C23.0345 42.8432 21.846 43.5003 20.6602 43.6839C19.867 43.8067 19.1045 43.6418 18.3236 43.5341L14.6001 43.0463C12.9713 42.8619 11.497 42.1674 11.1901 40.3473C11.0442 39.4814 11.2568 38.62 11.3362 37.7589L12.1435 30.5083C12.2614 29.6278 12.3211 29.4872 12.2198 28.6051L12.1313 27.7727C12.0931 27.4551 12.0897 27.1423 12.0388 26.8224L11.6279 27.7973C11.1984 28.9358 10.8622 30.1706 10.7717 31.3907C10.7464 31.732 10.7479 32.0632 10.69 32.4028C10.5783 33.0583 9.59816 33.1974 9.44127 32.5415L9.43522 32.5138C9.36655 32.2113 9.43803 31.8128 9.46395 31.5054C9.63036 29.5284 10.1669 27.7199 11.0185 25.9431L11.7305 24.6572C11.965 24.2653 11.7296 23.4707 11.6497 23.016L11.148 20.6537C11.0427 20.23 10.875 19.7897 10.8102 19.3598C10.6961 18.603 11.6761 18.2732 12.0118 18.9565C12.1398 19.2172 12.2007 19.5382 12.2811 19.8168L12.7893 21.7998C12.852 22.0617 12.8925 22.344 12.9332 22.6106L13.2346 25.1254C13.248 25.2862 13.2766 25.4442 13.2845 25.6059L13.6204 29.2035C13.6412 29.3334 13.6162 29.4614 13.6027 29.5912L12.605 38.2464C12.4667 39.2068 12.2184 40.0604 12.842 40.9106L12.9185 41.01C13.3007 41.4412 13.8688 41.6009 14.4181 41.6622L18.5946 42.225C18.9164 42.2806 19.2512 42.358 19.5766 42.3789C21.383 42.4947 23.2284 41.2537 23.3184 39.3687L23.3202 16.7197C23.325 15.7711 23.383 16.0997 22.9189 15.3558L18.5698 7.36739L17.2627 8.78902C17.6877 9.04758 18.5756 9.24811 18.4836 9.8797C18.4344 10.2177 18.055 10.5462 17.7042 10.4835C17.4351 10.4354 17.143 10.2314 16.8939 10.1137C16.301 9.83358 15.5324 9.70355 15.7324 8.85628L13.244 9.28927C11.9418 9.52467 11.5749 9.45581 10.653 10.5584L10.0535 11.3038C7.5688 14.6456 6.37883 18.5206 5.67345 22.5825L4.95748 27.9837L4.87456 29.8598C4.85459 30.0579 4.81602 30.2448 4.80898 30.4475L4.82619 36.3281L4.9753 38.5551L5.44845 42.5746C5.47808 42.7376 5.46884 42.7473 5.61228 42.73L9.42195 42.4687C9.70723 42.4575 10.0254 42.4046 10.2775 42.5633C10.7853 42.8831 10.7628 43.5798 10.1421 43.7617C9.96331 43.8142 9.746 43.8087 9.56047 43.8188L8.96272 43.8598C7.99831 43.8844 7.08256 43.9761 6.1347 44.0328L5.32039 44.0564C5.14217 44.0683 4.92589 44.1191 4.75105 44.0728L4.72273 44.0645C4.21045 43.9224 4.28015 43.46 4.22718 43.0351L3.63475 37.9116C3.5373 36.6121 3.49183 35.3225 3.49121 34.0175L3.49668 31.1348L3.63942 28.4323C3.74515 26.8182 3.88869 25.1997 4.15029 23.602L4.37885 22.3777C5.19186 17.7407 6.47717 13.5261 9.55236 9.80241C10.6357 8.49061 11.4368 8.24916 12.9962 7.96477L15.2528 7.53834C15.6863 7.44867 16.1738 7.3747 16.5817 7.203C17.3009 6.90028 18.326 5.62814 19.0573 5.0963C20.1489 4.30243 21.5173 4.09775 22.8254 3.97098L24.1377 3.95508C24.5901 3.95532 25.0068 3.96296 25.454 4.01814L26.3501 4.11595C28.3126 4.36635 28.914 4.86511 30.2827 6.23161C31.3275 7.27472 31.3551 7.30823 32.7306 7.61447L35.0613 8.05041C36.9503 8.31202 37.0244 8.20261 38.3336 9.74808C40.1743 11.9211 41.4217 14.3962 42.3904 17.0707L43.2361 19.9313C43.2754 20.0353 43.2863 20.1435 43.3131 20.2504L43.5475 21.2817C43.6014 21.522 43.6388 21.7669 43.6876 22.0082L43.8335 22.7244C44.028 23.8898 44.1548 25.0665 44.2611 26.2432L44.5396 30.27C44.5491 30.4825 44.5856 30.6918 44.592 30.9043L44.5899 34.5619C44.5835 34.7344 44.5458 34.903 44.5394 35.0754L44.298 39.0825L43.799 43.272C43.6866 44.1753 43.3833 44.0826 42.5653 44.056L38.6107 43.9068C38.2769 43.8915 37.9092 43.9365 37.6212 43.7337C37.2031 43.4392 37.3481 42.679 37.8532 42.5784C38.145 42.5203 39.0527 42.5686 39.3455 42.5984C40.0336 42.6685 40.6283 42.6324 41.2897 42.685L42.1641 42.7518C42.293 42.7578 42.4312 42.7807 42.5593 42.7652C42.6079 42.0206 42.7491 41.2885 42.8294 40.5482L43.1249 37.1489L43.2295 34.9809L43.2288 29.5336C43.2214 29.339 43.1791 29.1568 43.1641 28.966L42.8477 25.1483C42.1986 20.0189 40.6997 14.4986 37.2439 10.5307C36.4117 9.57516 36.4474 9.62044 35.3099 9.43228C34.3536 9.27413 33.3609 9.17691 32.427 8.9145L32.4116 9.33398C32.192 9.71892 31.776 9.87459 31.3981 10.0665L30.6796 10.4242C30.0704 10.6969 29.4476 10.153 29.6856 9.57539C29.819 9.25181 30.4958 9.01073 30.7993 8.86819L29.5132 7.42209L25.2345 15.2963C25.0894 15.5346 24.9547 15.7882 24.7604 15.9915L24.7279 16.0245C24.6887 16.2796 24.7064 16.5599 24.7059 16.8183L24.6956 39.012C24.6993 39.3904 24.6866 39.8722 24.8637 40.2228L25.0171 40.5654C25.6007 41.8662 27.0024 42.4158 28.3444 42.3738C28.6981 42.3628 29.0712 42.2698 29.4212 42.2177L33.3751 41.6755C34.4314 41.5373 35.51 41.2397 35.6313 39.9285C35.6586 39.633 35.6114 39.3615 35.5712 39.071L34.5943 31.2895C34.4707 30.1269 34.3596 29.7555 34.4989 28.601L34.6737 27.0096C34.7044 26.7117 34.699 26.4124 34.7114 26.1137L34.8108 24.562C34.8715 23.8593 34.9985 23.1459 35.1308 22.4535L35.5292 20.4145C35.6241 19.9776 35.6926 19.4961 35.8477 19.0773C36.0839 18.4393 37.0177 18.573 37.0943 19.2592C37.1243 19.5283 37.0298 19.8745 36.9699 20.1398L36.4285 22.7752C36.3646 23.12 36.2898 23.4651 36.2519 23.8141L36.219 24.0869C36.1791 24.3284 36.2807 24.411 36.4006 24.6215L36.8021 25.364C37.1437 26.0407 37.4173 26.7502 37.6887 27.4575L38.258 29.4499C38.4454 30.0207 38.7159 32.0883 38.6249 32.4965C38.4986 33.0632 37.6674 33.1812 37.4095 32.6336L37.3983 32.6088C37.301 32.4042 37.3082 32.1665 37.2923 31.9444L37.0311 30.0707C36.8647 29.2598 36.6482 28.4755 36.3527 27.701L35.9893 26.8565L35.8506 28.2882C35.7939 28.802 35.6259 29.3717 35.738 29.887L36.9077 39.0461C37.1334 40.6695 36.3313 42.28 34.7152 42.8265C34.2584 42.981 33.8222 42.9877 33.3508 43.0369L29.8653 43.5103C29.0332 43.6321 28.235 43.7866 27.3888 43.6742C26.2402 43.5216 25.0774 42.8755 24.3553 41.9627ZM23.6973 5.26392C22.4739 5.27184 20.4508 5.49731 19.5467 6.39216C19.6075 6.53625 19.6898 6.65911 19.7618 6.79678L23.484 13.641C23.6807 13.9808 23.8362 14.3413 24.0835 14.6486L24.187 14.448L27.8081 7.70142C28.0445 7.28344 28.2613 6.82673 28.549 6.44269C28.095 5.81245 27.3887 5.63372 26.6614 5.51653L23.6973 5.26392Z" fill="black"/>
</svg>
