<svg width="48" height="48" viewBox="0 0 48 48" fill="none" xmlns="http://www.w3.org/2000/svg">
<path d="M24.9901 45.096L21.721 45.0925C21.3575 45.0885 21.0106 45.0312 20.6515 44.979L19.8514 44.8281C19.2527 44.7007 18.67 44.5078 18.0682 44.3951L13.4762 43.6135C12.7473 43.4952 12.4773 43.4491 12.5979 42.5757L13.9212 31.6893C13.9869 31.2099 13.9886 30.7664 13.9891 30.2812L13.9895 28.5155C13.9893 27.8896 14.0328 27.2262 13.9736 26.6043C13.8952 25.7791 13.6986 24.9664 13.535 24.1553C13.399 24.4263 13.315 24.7014 13.2156 24.9859L9.68998 34.9136C9.37282 35.7754 9.3994 35.7964 8.3367 35.6419L6.04877 35.3566C4.67919 35.2093 3.98708 35.5219 4.41682 33.8078L8.62231 17.5544L9.99593 11.592C10.0583 11.303 10.1042 11.0154 10.1883 10.7309C10.6218 9.26381 12.0606 8.01009 13.535 7.69978C15.3026 7.32773 15.8133 7.82184 17.3822 6.34963C17.9408 5.82538 18.3878 5.21756 18.9069 4.65998C20.0438 3.43876 21.5044 3.00762 23.1181 2.84488C25.134 2.8004 27.3194 2.9712 28.8619 4.43694C29.9221 5.44443 30.8752 7.12846 32.4139 7.43535C32.9598 7.5442 33.5131 7.54504 34.061 7.62332C35.5783 7.84017 37.036 8.82815 37.606 10.2822C37.7685 10.6967 37.8612 11.0805 37.9689 11.5075L38.813 15.1638C38.8726 15.4017 38.9487 15.6518 38.9884 15.8933L41.0515 24.2605C41.1768 24.9934 41.457 25.7049 41.6081 26.4354L42.11 28.3221C42.2342 28.6643 42.2793 29.042 42.389 29.3881L43.3894 33.091C43.3981 33.1335 43.4046 33.1724 43.4186 33.2137L43.6708 34.0756C43.9913 35.4359 43.0441 35.2326 42.0965 35.3584L39.5547 35.6924C38.4659 35.7921 38.5587 35.647 38.1888 34.6274L34.4531 24.1241C34.1942 24.8111 34.0028 26.7434 34.0043 27.4455L34.0039 28.7867C34.003 29.7036 33.9529 30.6534 34.0348 31.5646L35.3386 42.1245C35.4474 43.0223 35.7356 43.426 34.5657 43.6157L30.2313 44.3595L28.8835 44.6511C27.3952 45.0267 26.5535 45.0972 24.9901 45.096ZM23.4583 4.13216C21.9769 4.23831 20.6673 4.61083 19.6769 5.74926L18.8019 6.7754C18.4718 7.12603 18.0975 7.44365 17.7056 7.72265C17.9192 7.96851 18.1319 8.18938 18.2388 8.50753L18.2505 8.54052C18.3076 8.71551 18.2976 8.9669 18.2417 9.14118L18.0774 9.66585C18.5254 10.4759 19.0723 11.2214 19.5906 11.988L21.0957 14.2028C21.5173 14.8101 21.9739 15.4255 22.3392 16.0679L22.5323 16.3506L20.0158 8.99507C19.7314 8.15503 19.3617 7.56956 20.1184 6.8429C21.1755 5.82764 23.072 5.58426 24.4641 5.65837C25.5132 5.77345 28.6005 6.33281 28.3743 7.87298C28.3317 8.16299 28.1729 8.48854 28.0737 8.76688L25.826 15.2599C25.7068 15.6023 25.5627 15.9296 25.4582 16.2783L29.5718 10.3071C29.687 10.1377 29.8283 9.93253 29.8936 9.73659C29.682 8.81156 29.5586 8.46449 30.2869 7.74473C29.9739 7.37067 29.5312 7.09312 29.1874 6.73917L28.0897 5.50813C26.9471 4.33703 25.0445 4.02136 23.4583 4.13216ZM23.7073 6.94378C22.9246 7.01207 21.5573 7.17946 20.9738 7.78851C21.0337 8.12109 21.3732 9.09168 21.498 9.41746L23.352 14.837C23.4504 15.2096 23.8335 16.2011 24.0276 16.5024L24.1225 16.2826L27.0521 7.77998C26.2361 7.19938 24.7278 6.8099 23.7073 6.94378ZM16.6842 8.47921C15.6544 8.82356 15.1233 8.77771 14.1301 8.93737C11.779 9.31537 11.4757 10.8056 11.0607 12.7146L9.2531 20.3669L6.23182 32.0036L5.72177 33.8236C5.70945 33.8778 5.68624 33.9456 5.69262 34L8.53568 34.3638L11.1922 26.7622L12.7993 22.4611C12.8674 22.269 12.978 22.0196 12.9864 21.8142C12.9985 21.5157 12.7617 21.2344 12.9053 20.9214L12.9203 20.8875C13.0436 20.6206 13.4381 20.4165 13.7205 20.5604L13.7824 20.5936C13.9182 20.6673 13.9956 20.7474 14.0646 20.8825L14.0874 20.9243C14.131 21.0076 14.1471 21.1132 14.1671 21.2048L14.7324 23.6599C15.1032 25.1184 15.249 26.3069 15.2494 27.7877L15.2499 29.8204C15.2501 30.1551 15.2324 30.4981 15.2592 30.8311L18.1757 30.8163L19.2774 30.8168C19.4615 30.8173 19.681 30.7935 19.8588 30.8435C20.5212 31.0297 20.5287 32.0477 19.8383 32.1676C19.6925 32.1929 19.5335 32.1788 19.386 32.1768L15.2684 32.1642C15.1115 32.1637 15.1093 32.1349 15.0947 32.3128L13.9174 42.372C14.3412 42.4737 14.7742 42.528 15.2038 42.5958L18.7015 43.1984C19.404 43.3586 20.0992 43.5798 20.8142 43.679L21.3949 43.733C21.53 43.7482 21.6567 43.7781 21.7936 43.7843L23.3413 43.8266L23.3386 19.9681C23.3378 19.8427 23.3545 19.6725 23.2575 19.5773C22.904 19.2299 22.6426 18.7626 22.3533 18.3568L17.7183 11.4992C17.1842 10.6751 16.3765 9.89259 16.9812 8.86846C16.9045 8.75732 16.7926 8.55665 16.6842 8.47921ZM31.3879 8.47668C31.2488 8.58628 31.1141 8.69165 30.996 8.82417C31.1071 9.26203 31.3774 9.59737 31.1631 10.0968L31.1286 10.1765C30.9959 10.4865 30.8012 10.7682 30.614 11.0472L24.9828 19.3573C24.7668 19.6516 24.6561 19.5814 24.6559 19.972L24.6559 43.0506C24.6559 43.3024 24.6438 43.5607 24.6612 43.8117L24.6916 43.8091C25.2761 43.7639 25.8696 43.8319 26.4533 43.7705C27.357 43.6754 28.1944 43.4621 29.0778 43.2516L32.8241 42.5861C33.2509 42.5167 33.6668 42.4557 34.0863 42.3459L32.8609 32.1634L28.6757 32.1667C28.1975 32.1682 27.7439 32.2089 27.6311 31.6052L27.6243 31.5718C27.5655 31.2749 27.7406 31.049 27.9725 30.8973L27.9974 30.8801C28.1421 30.7854 28.4156 30.8176 28.5819 30.817L29.8768 30.8163L32.7345 30.8195L32.739 27.9012C32.7391 27.4387 32.7108 26.9539 32.7492 26.4941C32.869 25.0581 33.2667 23.6279 33.5967 22.229L33.7858 21.4299C33.8454 21.178 33.8819 20.877 34.0725 20.6864C34.5316 20.2269 35.2132 20.6881 35.1454 21.2927C35.1025 21.676 34.941 21.7614 35.0933 22.1599L36.8296 26.8845C36.8408 26.9222 36.8543 26.9551 36.8693 26.9912L37.4167 28.5344C37.4503 28.6305 37.491 28.7179 37.5205 28.8161L38.9081 32.8214C38.9183 32.8596 38.9306 32.8925 38.9457 32.9289L39.3842 34.164C39.4012 34.2208 39.4345 34.332 39.4811 34.3676L42.3349 34.0041L38.5632 19.5644L36.7823 12.0583C36.6958 11.6772 36.6253 11.2814 36.4827 10.9167C36.0419 9.78998 34.9167 8.96812 33.703 8.90498C33.0945 8.87329 32.4983 8.8222 31.908 8.65598C31.7326 8.60657 31.5642 8.51859 31.3879 8.47668Z" fill="black"/>
</svg>
