<svg width="48" height="48" viewBox="0 0 48 48" fill="none" xmlns="http://www.w3.org/2000/svg">
<path d="M28.7167 40.6167C27.5811 40.393 26.8626 39.997 26.0006 39.2852C24.9395 38.4089 23.5133 38.1746 22.3358 39.0211C21.9544 39.2953 21.6215 39.6271 21.2217 39.8768C18.7927 41.3937 14.7259 40.8222 13.1986 38.3101L12.5309 40.9407C12.2598 41.9271 11.8757 41.979 11.0479 41.9801L7.58197 41.9806C7.25295 41.9804 6.90101 42.0061 6.57462 41.9751C5.91716 41.9125 6.03603 41.2374 6.09139 40.8402L8.94931 18.6426L9.74694 12.6682C9.90762 11.2856 10.1208 10.0004 11.5624 9.29588C11.8106 9.17461 12.0704 9.15521 12.3305 9.08311L13.4135 8.75888C13.8678 8.61338 14.3177 8.41964 14.7608 8.24222L17.6133 6.97285C17.9568 6.81202 18.2477 6.7433 18.4923 6.44504C18.7133 6.17546 18.9632 6.02569 19.3116 5.98543C20.1139 5.91675 20.6016 6.55843 21.1799 6.99577C22.8121 8.23004 24.8434 8.49108 26.5577 7.19035C27.2174 6.68982 27.9653 5.77149 28.8959 6.00239C29.2351 6.08654 29.4341 6.34379 29.6968 6.54619C30.354 7.05239 31.3546 7.37368 32.1139 7.69941C33.2325 8.17927 34.4143 8.75504 35.6171 8.99494L35.9866 9.09333C36.6682 9.30947 37.3759 9.91336 37.6986 10.5504L37.8761 10.9103C38.1732 11.5257 38.1872 12.2329 38.2611 12.8997L40.5534 30.4392C40.5723 30.6203 40.5785 30.8138 40.6179 30.9912L40.8973 33.0591C40.9447 33.2987 40.9468 33.5444 40.9852 33.7853L41.8234 40.301C41.9079 40.856 42.1794 41.5319 41.6668 41.8742L41.6371 41.8937C41.4093 42.0505 41.106 41.9807 40.844 41.9808L37.3374 41.9805C36.101 41.9794 35.704 42.0791 35.3577 40.5968L35.1481 39.7066C35.0345 39.2372 34.8922 38.7593 34.8103 38.2843C33.6303 40.2676 30.8619 40.9879 28.7167 40.6167ZM19.4213 7.31283L18.0306 9.88711L18.812 10.2585C19.2691 10.4975 19.6949 10.7726 20.1082 11.0809L20.8561 11.7631L20.4702 10.1896C20.3386 9.62213 19.9977 7.72444 19.5033 7.37129L19.4213 7.31283ZM28.4404 7.34785C28.3454 7.51013 28.3185 7.70569 28.2781 7.88691L27.6684 10.442C27.5391 10.9749 27.2673 11.8261 27.2336 12.3469C27.5148 12.022 27.7658 11.6551 28.0978 11.3785C28.7156 10.7897 29.4324 10.2995 30.1908 9.91013C30.0013 9.555 28.8375 7.23385 28.4404 7.34785ZM31.1244 8.74102L31.1327 8.76507C31.2803 9.18164 31.5968 9.53279 31.7387 9.96113L31.751 9.99596C32.0157 10.7938 31.1198 11.0134 30.5794 11.2817C28.1602 12.483 26.8404 15.3769 25.882 17.7879L23.6349 23.2518C23.19 24.4431 23.2059 24.7994 23.2071 26.0407L23.2063 31.2075C23.2064 32.2699 23.1784 33.3849 23.5789 34.3947L24.8766 37.2091C26.4351 37.4319 27.0622 38.8489 28.8285 39.2285C31.1099 39.7188 34.1357 38.5296 34.1265 35.8557L33.4973 26.361L33.1663 20.0587C33.1599 19.9849 33.1388 19.9008 33.1401 19.8284C33.0115 18.4865 34.4834 18.5827 34.5057 19.6212L34.7861 24.7268C34.7944 24.887 34.83 25.0433 34.8385 25.2027L34.8821 26.4611L35.4842 35.215C35.5091 35.4302 35.5107 35.6347 35.5723 35.8448L36.5712 39.9597C36.6537 40.3366 36.6007 40.5242 36.9772 40.5242L40.4867 40.5312L36.8747 12.6635C36.656 11.0614 36.456 10.6551 34.9132 10.2272L32.3793 9.3016C31.9563 9.12675 31.5233 8.96799 31.1244 8.74102ZM16.9152 8.82441L13.8561 10.0556L12.8652 10.3506C12.155 10.5375 11.6496 10.6733 11.3446 11.4387L11.3315 11.4728C11.1452 11.9476 11.1631 12.462 11.1014 12.9608L10.2338 19.4822L7.56139 40.2438C7.55351 40.3328 7.52914 40.4504 7.55117 40.5359L9.70719 40.5224C10.2106 40.5226 10.7281 40.4953 11.2285 40.5478L12.0723 37.1337C12.2028 36.6492 12.3684 36.1629 12.4691 35.6721C12.5954 35.0561 12.5154 34.4161 12.6247 33.8039C12.6873 33.4538 12.6664 33.0764 12.6828 32.7213L12.967 28.1786C12.9913 27.7856 13.0272 27.3941 13.0492 26.9996L13.3109 22.6835C13.326 22.3231 13.3115 21.9558 13.3551 21.5978L13.472 20.0686C13.4952 19.6729 13.4324 19.265 13.7713 18.9811C14.0346 18.7606 14.4799 18.8037 14.6913 19.0759C14.8762 19.3141 14.8292 19.5956 14.8127 19.8766L14.7928 19.8928L14.7979 19.9232C14.8559 20.724 14.7389 21.5617 14.6989 22.3616L14.3994 27.4727C14.3385 28.1592 14.3877 28.9377 14.2795 29.5635L14.0893 32.3709C14.0392 32.739 14.0604 33.1257 14.0301 33.4982L13.913 35.0506C13.8551 35.7775 13.8487 36.3076 14.0555 37.0022C14.284 37.7694 15.0297 38.3915 15.7079 38.7556C17.1669 39.5386 19.233 39.5982 20.6267 38.6174C21.6615 37.8891 21.9195 37.475 23.2885 37.1581L22.7866 36.115C21.8996 34.0885 21.773 32.7123 21.7737 30.5277L21.774 26.1543C21.7756 24.8275 21.9197 23.9798 22.3735 22.698L23.6367 19.7075C23.4496 19.369 23.3007 19.0067 23.1395 18.6552L22.0921 16.2623C21.8392 15.6533 21.621 15.0528 21.2745 14.4881C20.4904 13.2106 18.9179 11.6721 17.5114 11.1503C16.0057 10.5918 16.4598 10.0776 16.9702 8.82882L16.9152 8.82441ZM26.5536 8.82441C25.1412 9.51643 23.6487 9.61018 22.1583 9.09938L21.5199 8.82371L21.5742 9.07055C21.5818 9.10997 21.5919 9.14536 21.6039 9.18347L22.1613 11.3686C22.1975 11.4883 22.212 11.6151 22.2523 11.7329L23.3595 15.627L23.9689 17.1593C24.0871 17.4361 24.2016 17.7143 24.357 17.9732L26.5536 8.82441Z" fill="black"/>
<path d="M24.8266 27.7678C23.8979 27.8381 23.5769 26.7076 24.5257 26.3689C25.5145 26.3005 25.7273 27.5663 24.8266 27.7678Z" fill="black"/>
<path d="M19.6464 31.0482L17.2903 31.046C16.9324 31.0471 16.5138 31.0923 16.1652 31.0348C15.4213 30.9121 15.3637 29.7742 16.3286 29.6568L18.3146 29.6475C18.6986 29.6475 19.5779 29.5421 19.9071 29.7014L19.9339 29.7149C20.6662 30.0694 20.4452 30.9842 19.6464 31.0482Z" fill="black"/>
<path d="M31.7873 31.0304L28.2383 31.0418C27.6919 31.0398 27.0428 30.7783 27.3053 30.1097L27.3166 30.083C27.4366 29.7954 27.6794 29.687 27.9676 29.6571L31.2935 29.6475C31.7048 29.648 32.1447 29.6259 32.3321 30.0786L32.3431 30.1058C32.5312 30.5436 32.2236 30.9306 31.7873 31.0304Z" fill="black"/>
</svg>
