<svg width="48" height="48" viewBox="0 0 48 48" fill="none" xmlns="http://www.w3.org/2000/svg">
<path d="M25.2778 44.4812C24.8511 44.2435 24.4453 43.9036 24.1821 43.4892L24.0107 43.1948C22.9531 44.7092 21.8588 44.9776 20.1717 44.979L16.3026 44.9791C15.9869 44.9789 15.5897 45.0224 15.2832 44.9525C13.7935 44.6125 12.8341 43.6081 12.8232 42.0729L12.821 30.9353C12.8188 30.7493 12.7886 30.5704 12.7783 30.3859L12.669 27.0063C12.6623 26.6946 12.6133 26.3831 12.596 26.0712L12.5016 24.4573C12.381 23.1808 12.2762 21.927 11.9875 20.6725L11.8191 20.0123C11.7627 19.8242 11.6817 19.6037 11.6691 19.4071C11.6278 18.7599 12.84 18.2448 13.1133 19.7383L13.4468 21.3237C13.6242 22.333 13.7135 23.3488 13.7933 24.3699L13.8677 25.1567L13.9793 28.5663C13.9885 28.8042 14.0352 29.0363 14.0444 29.2743L14.0599 30.1873C14.0622 30.3608 14.0499 30.5488 14.0865 30.7181L18.7032 31.8975C19.5873 32.1518 20.4228 33.276 20.1227 34.2184L20.1105 34.2541C19.8512 35.0754 19.1506 35.6604 18.2756 35.6494C17.762 35.6429 17.1978 35.4475 16.6993 35.3216L14.175 34.6747L14.1772 42.2811C14.1864 42.4486 14.2031 42.6566 14.2849 42.8062L14.2997 42.8323C14.7082 43.5718 15.3098 43.563 16.0376 43.5593L20.0005 43.5586C20.4626 43.5587 20.9822 43.6025 21.4379 43.5251L21.4723 43.5189C22.2909 43.3772 23.0107 42.6137 23.2302 41.8378C23.372 41.3363 23.3183 40.754 23.3183 40.2369L23.3177 25.9575C23.3176 25.2003 23.2221 24.4265 23.4895 23.7031C23.3354 23.5091 23.2508 23.2804 23.1255 23.0695C22.8287 22.5701 22.4137 22.1783 22.0151 21.7635L21.1138 20.7763C19.727 19.201 18.404 17.5309 17.3199 15.7301L16.012 13.3187C15.7247 12.7388 15.188 11.8138 15.3583 11.1541L15.3702 11.1096C15.5083 10.5811 15.8506 10.1634 16.2499 9.80626L15.73 8.83847C14.3028 9.01857 13.0156 9.15924 11.9337 10.2426C10.6286 11.5493 10.2456 13.6202 10.0431 15.3828L9.94129 16.4282C9.91039 16.8397 9.84285 17.2418 9.82902 17.6523L9.83764 22.126C9.84561 22.342 9.89408 22.5467 9.90875 22.7581L10.0287 27.2009C10.0394 27.4878 10.0988 27.7687 10.1083 28.0549L10.1305 29.8813C10.1395 30.1282 10.1946 30.3661 10.2024 30.6119L10.2278 32.5561C10.2348 32.7812 10.2792 33.0028 10.2857 33.2286L10.3235 35.0817C10.3354 35.3214 10.3816 35.5599 10.3908 35.799L10.4026 37.562C10.4082 37.8721 10.4665 38.176 10.4766 38.4846L10.4886 40.1721C10.4928 40.3772 10.5471 40.5627 10.5612 40.7651L10.5994 42.1587C10.6083 42.4011 10.6971 42.7682 10.6233 42.9958L10.5821 43.1155C10.5202 43.2587 10.3961 43.3672 10.2528 43.4247L10.2212 43.4367C9.92502 43.5511 9.62511 43.4451 9.44919 43.183L9.4265 43.1485C9.2023 42.8145 9.31166 41.7805 9.30032 41.3711L9.11647 37.7694L9.09824 36.2415L8.91683 32.7527L8.906 31.1492L8.74283 27.3617L8.63005 23.1368C8.59982 22.4981 8.53157 21.9825 8.52979 21.3142L8.54019 17.4485C8.5498 17.2352 8.59729 17.0312 8.61299 16.8186C8.96924 11.9896 9.90829 7.95779 15.4454 7.52138C16.0763 7.47169 17.3862 6.20279 17.8638 5.79587L19.9104 4.0565C20.3162 3.71771 20.7471 3.23127 21.2748 3.09152L21.5152 3.02889L25.9475 3.01855C27.1929 3.02076 27.3163 3.41007 28.2375 4.17753L30.2203 5.83791C30.9974 6.47715 31.7191 7.37612 32.7495 7.55907L33.8321 7.71043C36.1176 8.12626 37.5522 9.3983 38.4366 11.5901L38.8211 12.7861C39.1572 13.785 39.325 15.8416 39.3861 16.8834L39.461 21.5967C39.4379 22.6837 39.3902 23.7427 39.3604 24.8323C39.35 25.2089 39.2828 25.5807 39.2654 25.9559L39.2421 27.571C39.2328 27.7562 39.1852 27.9348 39.1758 28.1203L39.0649 32.2968C39.0572 32.5342 39.0172 32.7694 39.0042 33.0057L38.9379 35.0159C38.9249 35.1464 38.8994 35.2749 38.8934 35.4062L38.8768 37.1429C38.8693 37.3588 38.8262 37.5694 38.8161 37.7815L38.7334 41.006C38.7252 41.1501 38.6961 41.2949 38.6903 41.4377L38.69 42.4532C38.6898 42.6214 38.7132 42.8526 38.6428 43.0059L38.6302 43.0315C38.3639 43.6203 37.4728 43.6533 37.3859 42.9414C37.3531 42.6728 37.3967 42.3556 37.4012 42.0816L37.4113 41.0757C37.417 40.5422 37.4931 40.0216 37.4987 39.4868L37.5138 37.7581L37.6314 34.824C37.6419 34.5827 37.6881 34.3441 37.6967 34.1L37.7127 32.6113L37.8706 29.2159L37.8866 27.5867C37.9062 27.2446 37.9739 26.9121 37.9822 26.5659C37.9966 25.9695 37.9491 25.3529 38.0319 24.762C38.113 24.1825 38.047 23.5765 38.0804 22.9924L38.1681 21.9876L38.1635 17.8639C38.1547 17.6191 38.1133 17.3848 38.0959 17.1424L38.0019 15.8894C37.659 12.8634 37.0821 9.61018 33.5743 9.00868L32.3545 8.85741L31.7808 9.73313C32.2204 10.333 33.0113 10.9379 32.7317 11.7888C32.5437 12.3609 32.2297 12.907 31.9538 13.4414C30.5867 16.0885 28.8528 18.5011 27.0427 20.8596L25.8644 22.4109C25.4253 22.9954 24.7083 23.7379 24.6778 24.5098L24.6812 41.2366C24.7281 42.155 25.1313 42.9041 25.9691 43.351C26.6748 43.7275 27.9734 43.5601 28.7602 43.5607L32.4163 43.5609C33.6444 43.5505 33.822 42.7775 33.8183 41.7543L33.817 34.6787L30.504 35.5338C30.2317 35.6053 29.9297 35.6942 29.646 35.6585L29.2986 35.6C28.0108 35.2732 27.3915 33.7047 28.2651 32.6388L28.2941 32.6038C28.7756 32.0041 29.3835 31.8446 30.0938 31.6874L32.9423 30.9527C33.1868 30.8881 33.4432 30.7856 33.6913 30.7487L33.957 30.6868L33.9699 29.0294L34.1107 26.7666L34.3196 23.048C34.3972 22.2147 34.5289 21.3623 34.7045 20.544L34.9334 19.6388C35.0603 19.1766 35.2356 18.6096 35.8664 18.7666C36.5695 18.9415 36.24 19.7732 36.1146 20.2347L35.9136 21.1171C35.6912 22.1958 35.5836 23.3116 35.5122 24.4104L35.4864 25.0516C35.4729 25.2289 35.4362 25.4012 35.4295 25.5827L35.4094 26.8176L35.2479 30.0813C35.2306 30.3469 35.1848 30.5961 35.1838 30.8655L35.1768 41.2552C35.1762 42.2296 35.2686 42.9313 34.6829 43.7815L34.6577 43.8188C33.8732 44.9496 32.6483 44.9785 31.4492 44.9792L27.6116 44.9791C26.7703 44.9783 26.036 44.9098 25.2778 44.4812ZM25.4942 4.2293L22.4644 4.28176C22.0998 4.27139 21.7774 4.25575 21.4656 4.48999L22.6356 4.67259C23.8658 4.87955 25.305 4.69294 26.5377 4.48798C26.203 4.20347 25.9584 4.19268 25.5151 4.22605L25.4942 4.2293ZM20.595 5.4729L23.0727 15.1584C23.1013 15.2935 23.1346 15.4329 23.1681 15.5671L23.4851 16.7698C23.5821 17.1016 23.6438 17.4458 23.7306 17.7802L23.8663 18.3006C23.9111 18.5016 23.9563 18.7989 24.0782 18.9649L24.7918 15.7793L27.3955 5.48766L25.6881 5.88352C25.1849 5.98065 24.6681 5.9791 24.1582 5.97901L22.9818 5.97226C22.5608 5.94938 22.1114 5.86426 21.6986 5.77543L21.0934 5.6228C20.9615 5.58338 20.723 5.46615 20.595 5.4729ZM28.5667 6.1478C28.3935 6.68963 28.2728 7.25321 28.1327 7.80451L25.0934 20.13C24.9817 20.6224 24.8137 21.117 24.7902 21.6237L26.4887 19.4247L27.5381 17.9973C28.5638 16.5984 29.5484 15.1423 30.3847 13.6211L31.4734 11.4355L30.9424 10.8122C30.7546 10.6116 30.5376 10.4186 30.3778 10.1956L30.3568 10.1664C30.0293 9.69887 30.8081 8.77899 31.156 8.35412L28.5667 6.1478ZM19.441 6.19885L17.1366 8.1488C17.0646 8.20552 16.9456 8.27058 16.8947 8.34474L17.3372 9.00966C17.4728 9.20316 17.6315 9.38968 17.7194 9.60962L17.7378 9.65138C17.9106 10.0614 17.5392 10.3567 17.2844 10.6174C16.9315 10.9786 16.5374 11.2136 16.7091 11.6838L16.7943 11.902C16.9693 12.3707 17.2274 12.7993 17.451 13.2446C18.2704 14.8761 19.2604 16.4094 20.3829 17.8496L21.7306 19.4829L22.6614 20.5291C22.906 20.8177 23.1471 21.1847 23.43 21.4298C23.37 20.9693 23.1632 20.512 23.0329 20.0648L19.7188 7.23849C19.628 6.89279 19.5703 6.53251 19.441 6.19885ZM14.161 32.0792L14.1673 33.331C14.2683 33.4048 14.4027 33.407 14.5223 33.4328L17.1332 34.0776C17.6427 34.2072 18.2361 34.5054 18.7048 34.1476C19.1826 33.5214 18.4723 33.1812 17.9255 33.0549L15.3913 32.4076C14.9894 32.3056 14.548 32.2228 14.161 32.0792ZM33.8489 32.0979L30.9845 32.8312C30.4836 32.9609 29.4102 33 29.2021 33.5745L29.1891 33.6097C29.1462 33.7336 29.1693 33.8508 29.2051 33.9729L29.2116 33.9992C29.2399 34.1037 29.3186 34.1691 29.3934 34.2421C29.7595 34.5421 30.5126 34.1665 30.9058 34.0668L33.8862 33.2521C33.8422 32.8783 33.8785 32.4748 33.886 32.0979H33.8489Z" fill="black"/>
</svg>
