<svg width="48" height="48" viewBox="0 0 48 48" fill="none" xmlns="http://www.w3.org/2000/svg">
<path d="M25.0498 37.651C24.588 37.0282 24.3082 36.3064 23.9963 35.6047C23.1223 37.6534 22.141 39.149 20.0114 40.1711C18.5156 40.8889 15.9764 41.188 14.6732 39.9419C13.457 38.7791 13.3332 37.556 13.3321 35.9652L13.3174 28.0109C13.2678 28.2472 13.1311 28.497 13.0467 28.7264L11.0623 34.7695C10.7714 35.6458 10.5299 37.4922 9.4612 37.5999L9.34997 37.612C8.88942 37.6529 8.41364 37.5411 7.95698 37.5008L5.56636 37.2892C5.11772 37.2462 4.55277 37.301 4.18666 36.9875C3.3932 36.3081 3.73545 35.5741 3.99605 34.7273L9.6675 16.8935C9.89676 16.3024 10.1766 15.7339 10.4591 15.1669C11.5276 13.0226 11.9256 12.9052 14.2229 12.0629L15.5182 11.5636C16.1739 11.3027 16.4866 11.202 16.951 10.6696L18.9075 8.50118C19.5532 7.82529 19.9845 7.27151 20.9745 7.20532L26.4075 7.19238C27.8318 7.19346 27.9758 7.34651 28.932 8.35127L31.1575 10.7485C31.4319 11.0469 31.4899 11.1324 31.8746 11.2785L33.9021 12.0514C36.0775 12.8978 37.0535 13.5887 37.9685 15.914C38.094 16.2329 38.2301 16.5679 38.3222 16.8984L40.8576 24.796C40.8993 24.9631 40.9619 25.1247 41.0146 25.289L41.9825 28.3585C42.0788 28.7529 42.2461 29.1376 42.3535 29.5312L44.2591 35.7205C44.5506 36.5539 43.9208 37.1562 43.1249 37.2429L39.2305 37.6059C37.6036 37.7472 37.6726 37.2563 37.2551 35.9603L34.6248 27.9438L34.5923 34.881C34.5923 35.8708 34.6456 36.8775 34.5135 37.858C34.3253 39.2552 33.1707 40.5395 31.7643 40.7659C31.4937 40.8094 31.1899 40.7869 30.9146 40.7864C28.4778 40.7816 26.4586 39.5738 25.0498 37.651ZM20.658 8.60857C20.6562 8.77334 20.71 8.88935 20.7742 9.0319C21.7277 11.1484 24.5312 12 26.2891 10.2491C26.7238 9.7714 27.0819 9.25193 27.2413 8.62066L20.658 8.60857ZM19.6322 9.90227L19.5457 9.97259C19.5572 10.1646 19.7288 10.4782 19.8164 10.6536L19.8773 10.7752C19.9755 10.9651 20.0892 11.1986 20.1571 11.4016L21.4229 14.3437L23.7473 20.9035C23.8258 21.1135 23.8674 21.3413 23.9753 21.539L24.0276 21.6354L25.785 16.4823L27.9492 10.8808C28.0966 10.546 28.254 10.2101 28.3216 9.84818C28.0027 10.1443 27.795 10.5666 27.5194 10.9069C25.6387 13.2275 21.9744 13.1487 20.2499 10.7203C20.151 10.581 19.7849 9.89815 19.6498 9.89749L19.6322 9.90227ZM29.4265 10.8866L28.6635 12.8094C28.6111 12.9563 28.5269 13.1248 28.5011 13.2766C29.4202 13.6355 30.0577 13.8438 30.266 14.8808C30.5431 16.2604 29.534 16.9501 28.5346 17.5129L26.6003 18.547C26.3504 18.6619 26.3901 18.8484 26.3047 19.0952L25.2215 22.1999C25.0721 22.6401 24.9014 23.1266 24.6506 23.5195C24.7609 24.2072 24.8197 24.2673 24.8203 25.0235L24.8197 31.317C24.8195 31.6742 24.8322 32.037 24.8086 32.3935C24.78 32.8277 24.7396 32.9254 24.7992 33.3702C25.1084 35.6778 26.382 37.8384 28.5234 38.881L29.0248 39.0907C29.7955 39.3457 30.8142 39.5355 31.6273 39.3798C32.4902 39.2145 33.1325 38.3459 33.2158 37.4993C33.2714 36.9348 33.2294 36.323 33.2301 35.7541L33.2319 27.0512C33.2316 25.2387 33.3804 23.2684 32.7632 21.5291C32.4546 20.6595 32.1458 19.8946 32.4225 18.9544L32.9962 17.1769C33.313 16.1746 33.5982 15.186 34.1248 14.2692C34.2102 14.1205 34.3804 13.9286 34.4317 13.7723C33.9412 13.5039 33.3726 13.333 32.8502 13.1338L31.645 12.642C31.3577 12.5333 30.9918 12.4757 30.7435 12.2954C30.4055 12.0499 29.5823 10.915 29.4265 10.8866ZM18.4884 10.9952L17.9783 11.5997C17.5068 12.184 17.2761 12.3372 16.5736 12.6441L14.4851 13.4389C14.1626 13.5521 13.788 13.653 13.4911 13.8192L13.9073 14.3579C14.7652 15.5837 14.9074 16.4086 15.3116 17.733C15.7116 19.0436 15.4721 20.8701 15.111 22.1999C14.8857 23.0297 14.6269 23.6442 14.6755 24.5147L14.6989 36.4842C14.6998 36.7475 14.6677 37.0721 14.724 37.3278C15.1509 39.268 16.6829 39.7762 18.481 39.2322L18.9549 39.0853C21.7295 38.0206 23.1505 35.2348 23.4401 32.4203C23.4937 31.8996 23.4543 31.3372 23.4547 30.8119L23.4574 25.3773C23.4572 24.1601 23.4176 24.1067 23.0181 22.9354L21.3638 18.1795C20.4958 17.9494 18.7249 17.1559 18.2741 16.3708L18.2543 16.3359C18.128 16.1196 18.0401 15.9094 17.9734 15.6679L17.9614 15.6258C17.6335 14.4078 18.3903 13.5713 19.5122 13.3138L18.6532 11.342C18.603 11.2292 18.5578 11.0959 18.4884 10.9952ZM35.5697 14.4591C35.1645 15.0829 34.8421 15.821 34.6054 16.5249L33.6763 19.394C33.5504 19.8091 33.7967 20.4109 33.9363 20.8007L34.14 21.4322C34.3449 22.0556 34.3623 22.7065 34.5117 23.3384C34.5885 23.6633 34.7018 23.972 34.8164 24.2846L37.7903 33.3551C37.8006 33.3948 37.8158 33.4304 37.8302 33.4687L38.3923 35.1562C38.4631 35.3421 38.5087 35.5339 38.5787 35.7187L38.7627 36.271L40.8512 36.0673L42.9036 35.8747C42.8121 35.4912 42.6726 35.1099 42.5583 34.732L37.7176 19.4277C37.223 17.8854 36.7372 15.6485 35.5697 14.4591ZM19.9899 14.5195C19.3072 14.8241 19.0948 14.8354 19.3632 15.539L19.3757 15.5737C19.4569 15.7921 19.5839 15.8446 19.782 15.9456L20.2981 16.2155C20.4595 16.3052 20.6389 16.3836 20.7892 16.4896L19.9899 14.5195ZM27.9648 14.4899C27.8852 14.6777 27.1213 16.6714 27.1256 16.7223L27.8103 16.3534C28.2142 16.1425 28.7543 15.9018 28.9013 15.4314C29.0092 15.086 28.9642 14.9869 28.655 14.8366L27.9648 14.4899ZM12.3495 14.581C11.9209 15.1411 11.2337 16.6298 10.9804 17.2742L10.1321 19.7745L5.30587 35.0239C5.22614 35.289 5.11973 35.563 5.06615 35.8338L7.12069 36.0473L9.16242 36.2318C9.23901 36.1338 9.27469 35.9529 9.31073 35.8318L13.1899 23.9996L13.9054 21.4223C14.0942 20.6284 14.229 19.7728 14.1324 18.9569C13.9545 17.4536 13.4674 15.6828 12.3495 14.581Z" fill="black"/>
</svg>
