<svg width="48" height="48" viewBox="0 0 48 48" fill="none" xmlns="http://www.w3.org/2000/svg">
<path d="M22.1477 37.867C21.082 38.8468 20.3921 39.0383 19.1035 39.3899L18.9343 39.4319C17.4715 39.6761 15.8136 39.1664 14.6266 38.3295L14.3591 40.3473C14.1628 41.5727 13.683 42.5016 12.3047 42.709C11.907 42.7687 11.5359 42.6844 11.142 42.6562L9.20934 42.4854C6.98231 42.2539 7.29816 41.3383 7.68192 39.4496L8.04586 37.2931L8.42873 34.0754L10.3379 16.1958L11.0445 11.5317C11.1916 10.6958 11.4676 8.70637 12.3793 8.32823L12.4162 8.31327C12.5798 8.24263 12.7383 8.24202 12.9141 8.22763L13.5131 8.16581C14.4482 8.04107 15.3179 7.63959 16.1852 7.29135L17.1445 6.93637C17.651 6.74727 17.9017 6.68929 18.2497 6.27927C19.2547 5.09521 19.1511 5.07177 20.5105 5.40665C21.8092 5.72652 23.0664 5.83949 24.4046 5.82731C25.9282 5.81338 26.7683 5.53842 28.2231 5.18371C29.167 5.12095 29.7129 6.50442 30.2711 6.64945C30.5251 6.71545 30.7773 6.86043 31.0222 6.96426L31.928 7.33007C32.7721 7.69045 33.6043 8.06751 34.5286 8.17002C34.7936 8.19941 35.0831 8.17949 35.3422 8.23771L35.3672 8.24367C36.4049 8.48292 36.8205 10.5848 36.9917 11.5144L37.2539 13.1125C37.4254 14.1197 37.4763 15.1472 37.5953 16.1606L37.829 18.0591L39.4212 33.2934L39.8447 36.8442L40.3695 39.4042C40.5709 40.3755 41.0579 41.7983 39.7524 42.2872L39.7236 42.2977C39.4002 42.422 39.0537 42.4327 38.7144 42.48L36.9141 42.7191C36.6339 42.7582 36.3296 42.8095 36.0477 42.8008C34.9378 42.7664 33.9615 41.9014 33.728 40.827C33.6708 40.5638 33.6587 40.2981 33.6254 40.0317L33.421 38.3675L32.1783 39.0175C29.1585 40.267 25.9412 38.889 24.4504 36.0618C24.2701 35.7199 24.1345 35.3567 23.991 34.9985C23.3035 36.0449 23.1935 36.8259 22.1477 37.867ZM27.1311 6.94968C25.4783 7.26121 23.8969 7.35281 22.2225 7.17609L21.3045 7.05473C21.151 7.02932 20.9934 6.98385 20.8395 6.96988L21.4769 9.1521C21.484 9.18562 21.495 9.21248 21.5071 9.24412L22.9875 13.1681L23.206 13.7114C23.4763 14.2993 23.6523 15.1631 24.0226 15.6717L27.1311 6.94968ZM28.6378 7.11374C28.5135 7.35318 28.459 7.63471 28.3829 7.8929L27.9341 9.34996L25.8631 14.6736L26.8404 13.7179L30.498 10.1909L29.5093 8.32077C29.2932 7.8989 29.0614 7.39434 28.6603 7.11534L28.6378 7.11374ZM19.422 7.11543C18.6339 8.04384 18.3998 8.59016 17.857 9.69768C17.7841 9.84642 17.6581 10.0305 17.6175 10.1873L21.1927 13.717L22.0836 14.6296C21.7573 13.9614 21.5199 13.2564 21.2554 12.563L20.3756 10.3381L19.422 7.11543ZM31.2246 8.56363C31.4279 9.03159 31.7707 9.44892 31.9262 9.93796L31.9367 9.9704C32.1796 10.7442 31.2568 11.5085 30.7713 11.9973L27.1801 15.3681L24.7275 17.7899C24.9985 18.1125 24.9606 18.45 24.9624 18.8462L24.9641 30.462C24.9634 31.6992 24.8663 32.9991 25.2185 34.1958C26.2985 37.8651 30.1249 39.2079 33.1518 36.7833L32.547 32.7455L29.0088 33.2887C28.7599 33.3191 28.4935 33.3983 28.2422 33.3577L28.2105 33.3528C27.5713 33.2403 27.4616 32.2757 28.0195 31.974C28.197 31.878 28.3805 31.8716 28.5741 31.8391L31.5469 31.3371C31.809 31.2895 32.0822 31.2529 32.3398 31.1849C32.1933 30.4886 32.1477 29.7509 32.0528 29.044L31.6959 26.4534C31.5735 25.4967 31.5363 25.2661 31.7096 24.3313L32.0865 22.4749C32.2305 21.806 32.3391 21.1206 32.5169 20.4601L32.8652 18.9298C32.987 18.3942 33.039 17.5261 33.8515 17.7309C34.075 17.7873 34.2639 17.9918 34.343 18.2047L34.3524 18.2293C34.4587 18.5244 34.3018 18.9228 34.2313 19.2105L33.2416 23.9067C32.9533 25.3519 32.954 25.2544 33.1457 26.6673L33.5242 29.4434C33.6587 30.438 33.7804 31.4349 33.9382 32.4262L34.735 37.7114C34.7894 38.0658 34.8315 38.4226 34.8841 38.7772L35.0563 40.039C35.0864 40.2654 35.1013 40.5261 35.1914 40.7347L35.2087 40.7775C35.3247 41.0562 35.646 41.3107 35.9531 41.3466L35.9826 41.3502C36.218 41.3744 36.4767 41.3316 36.7108 41.3026L39.2615 40.9641L38.5596 37.6645L38.1565 34.57L36.0969 15.0575L35.7654 12.6794C35.5969 11.6591 35.4022 10.6794 35.028 9.71132C33.7327 9.53568 32.3736 9.21117 31.2246 8.56363ZM16.7229 8.61374L15.8104 9.00135C14.945 9.34724 13.9035 9.67649 12.9601 9.68976C12.7857 10.3184 12.6045 10.9342 12.4754 11.5754L11.7209 16.3833L10.3559 29.3508L9.42769 37.6189L9.09422 39.5278C8.99986 40.0288 8.91581 40.5453 8.76497 41.0328C9.14667 41.0762 9.5317 41.0599 9.91406 41.0906L11.04 41.1931C12.2805 41.3223 12.7769 41.5129 12.9708 39.9891L14.0363 32.7648L14.9441 25.9692C15.0085 25.5024 15.0245 25.1512 14.9387 24.6919L13.7655 19.0316C13.7078 18.7647 13.5727 18.4241 13.6232 18.1528C13.7418 17.5162 14.6237 17.3909 14.9053 17.9653L14.9183 17.9916C14.9648 18.0864 14.9962 18.1805 15.0245 18.2817L15.4757 20.3762C15.4834 20.4257 15.496 20.47 15.5102 20.5179L16.434 24.964C16.486 25.1884 16.4288 25.4144 16.4027 25.6371L15.8138 30.1622C15.7685 30.5258 15.6776 30.8942 15.6463 31.2582C15.838 31.3001 16.0257 31.3144 16.2188 31.343L18.9887 31.7729C19.5624 31.8653 20.0713 31.8393 20.2764 32.4731L20.2892 32.5049C20.3973 32.8572 20.0471 33.299 19.709 33.3659C19.5018 33.4069 19.2205 33.3326 19.0134 33.2973L15.4619 32.7784C15.4101 32.8725 15.416 33.0381 15.4005 33.1476L14.8724 36.7437C15.9576 37.5944 17.2297 38.1417 18.6311 37.9811C19.9909 37.8252 21.2499 37.0474 21.9067 35.8286L23.4549 32.6691C23.5534 32.4316 23.5737 32.3425 23.5601 32.0846L23.5597 18.3449C23.4206 18.1124 23.2153 17.9003 23.0351 17.697L16.8164 11.3691C15.7374 10.2141 16.0532 9.91973 16.7848 8.62654C16.7644 8.62152 16.7439 8.61585 16.7229 8.61374Z" fill="black"/>
</svg>
