<svg width="48" height="48" viewBox="0 0 48 48" fill="none" xmlns="http://www.w3.org/2000/svg">
<path d="M19.529 38.8182C18.089 38.6464 16.5275 38.1738 15.6519 36.9357C15.349 36.5075 15.4018 36.7002 14.7655 36.7027L10.5004 36.7059C10.0588 36.7149 9.48296 36.7806 9.34843 36.2212L9.34215 36.1923C9.30212 36.0132 9.35396 35.8071 9.36226 35.6248L9.56063 31.9199C9.58871 31.4074 9.60408 30.8852 9.70594 30.3799L11.2184 23.9744L13.0345 14.3617C13.1011 13.9358 13.126 13.521 13.2461 13.1045C13.7141 11.4818 15.2856 10.2253 16.9312 9.97248C17.2753 9.9196 17.6404 9.91913 17.9881 9.91313C18.1314 9.6099 18.2199 9.18709 18.5789 9.07243L18.6091 9.06343C18.7512 9.02007 18.9349 9.06882 19.0849 9.06938L28.2164 9.07168C28.4461 9.07187 29.1937 9.12746 29.3601 9.04384L29.3847 9.03114C29.5118 9.01365 29.6748 8.99251 29.7894 9.06034L29.8351 9.08846C30.1028 9.2559 30.2327 9.5896 30.3054 9.8822L31.1367 9.96174C32.7303 10.167 34.411 11.2926 34.8908 12.8692L34.9772 13.1844C35.0265 13.3347 35.0367 13.4859 35.0628 13.6404L35.9542 18.5154C35.9741 18.6197 35.9777 18.729 36.0003 18.8319L36.7978 22.8631C36.8195 22.9674 36.8214 23.0764 36.844 23.1795L37.641 27.1639C37.6936 27.3989 37.7211 27.6452 37.7813 27.8787L38.1565 29.5428C38.3062 30.183 38.4007 30.767 38.4514 31.4195L38.5246 32.5601C38.5377 33.1538 38.5801 33.6835 38.6039 34.2591L38.6299 35.6484C38.6379 35.8024 38.699 35.9504 38.695 36.1053C38.6787 36.755 37.9462 36.705 37.5261 36.7052L33.8431 36.7071C33.3906 36.7088 32.9322 36.7287 32.4808 36.7003C31.8074 38.1085 30.087 38.7294 28.649 38.9174C27.3888 39.0821 26.3294 38.9045 25.1931 38.3066C24.7871 38.093 25.0137 38.0812 24.5926 38.287C23.3836 38.8777 22.378 38.912 21.0826 38.9088C20.6767 38.9078 20.195 38.9432 19.7987 38.8572L19.529 38.8182ZM25.4525 19.6621C25.5144 19.6325 25.5728 19.5506 25.6179 19.4985L26.0109 19.0115C27.5235 16.9957 28.9732 14.2515 29.9506 11.9052C29.7887 11.7553 29.6525 11.5936 29.5187 11.4185C29.4541 11.2836 29.3836 11.1425 29.293 11.0233C28.9739 11.3378 28.6516 11.5816 28.2843 11.8353C28.1891 12.1217 28.1398 12.4183 28.0411 12.7092L25.9103 18.4739C25.7679 18.8716 25.5801 19.2616 25.4525 19.6621ZM20.07 10.2954L19.8632 10.3178C19.8632 10.5163 20.4516 10.8353 20.5898 10.9983C20.6956 11.1232 20.761 11.2831 20.8309 11.4293L23.5591 18.3272C23.7835 18.8036 23.9253 19.3106 24.1871 19.7712C24.2703 19.3842 24.4202 19.0169 24.5592 18.6475L25.2293 16.8766L27.0975 11.8134C27.4834 10.599 27.6078 11.0757 28.2686 10.3142L20.07 10.2954ZM18.8301 11.074C18.7074 11.2884 18.5775 11.5039 18.4127 11.6892C18.349 11.7609 18.1373 11.9235 18.1245 12.0002L18.9447 13.6784C19.6844 15.1286 20.4956 16.5438 21.3867 17.9071L22.455 19.4529C22.5694 19.6031 22.6655 19.7695 22.79 19.9114L23.1475 20.3388L20.5982 14.1052L19.8253 11.9998C19.736 11.6605 19.0891 11.3638 18.8301 11.074ZM30.8782 11.0809C31.4066 11.615 31.3523 11.7593 31.052 12.3743L29.686 15.2422C28.7831 17.0162 27.1103 20.1392 25.4551 21.3333C24.8637 21.7601 24.7379 22.0899 24.3885 22.7299C23.8766 23.6674 23.1529 24.8019 23.1301 25.91L23.1264 31.8225C23.1264 32.5201 23.1884 33.1854 23.3451 33.867C23.9333 36.4261 26.1522 38.2004 28.8076 37.6681C30.1403 37.4009 31.5232 36.7197 31.7896 35.2561C31.9848 34.1832 31.5463 32.7482 31.5102 31.6179C31.362 31.5092 31.1487 31.4482 30.9763 31.3805L28.0078 30.2833C27.6819 30.1663 27.0848 30.1085 27.0061 29.6835L26.9923 29.5738C26.9495 29.2067 27.1832 28.9004 27.56 28.8633C27.8319 28.8366 28.4146 29.1569 28.7168 29.2644L30.8945 30.0626C31.0254 30.1141 31.1708 30.1881 31.3095 30.2093L30.7496 25.4057C30.7099 25.067 30.6091 24.6352 30.6911 24.299L30.6982 24.2694C30.8493 23.7142 31.6671 23.7362 31.8195 24.4531C31.8644 24.6644 31.8667 24.8976 31.8945 25.1135L32.4755 29.8155C32.5762 30.5163 32.6383 31.2258 32.7316 31.9274L32.8765 33.1522C32.9528 33.9099 33.004 34.6229 32.9537 35.3888C32.9514 35.4234 32.9524 35.4122 32.9648 35.4518L37.4283 35.4509L37.3379 33.0372C37.2725 31.2709 37.1905 30.5037 36.7862 28.7823L34.2442 15.8201L33.9612 14.2147C33.6278 12.2267 32.8602 11.6726 30.8782 11.0809ZM17.1039 11.1678C16.0634 11.4191 15.2206 11.918 14.6538 12.8449C14.1959 13.5939 14.2186 14.5368 14.0545 15.3781L12.2416 24.8904L11.3064 28.8039C11.0562 29.8187 10.8076 30.7941 10.7393 31.8376L10.5646 35.0105C10.562 35.1569 10.5363 35.3019 10.5493 35.4481L15.0787 35.453L15.1016 34.3767L16.0267 25.8124C16.0791 25.2883 16.1041 24.7397 16.203 24.2234C16.3331 23.5438 17.4194 23.3687 17.3381 24.5474L16.831 29.4841C16.7964 29.7578 16.7464 30.0303 16.7569 30.3068L19.3441 29.3231L20.2129 28.9768C20.4348 28.9049 20.6363 28.7893 20.8711 28.9006C21.4223 29.1617 21.3341 29.8425 20.8125 30.0511L16.5798 31.6583L16.357 33.8182C16.2818 34.4651 16.146 35.1357 16.372 35.768C17.0867 37.7679 21.122 37.9144 22.8632 37.5715C23.2073 37.5038 23.5241 37.3947 23.8479 37.2627C22.9771 36.3246 22.4208 35.1404 22.1536 33.8942C21.9833 33.0998 21.9569 32.5772 21.9563 31.7725L21.9569 25.9559C21.9571 25.7807 21.9441 25.5938 21.9888 25.423L22.1218 24.812C22.2423 24.3503 22.4284 23.9079 22.6429 23.4824L23.0863 22.6446C23.1507 22.5237 23.2311 22.4043 23.2805 22.2773L22.5977 21.5568C20.7619 19.5399 18.3649 15.4749 17.2884 12.9823L17.0411 12.4246C16.6921 11.6848 16.7609 11.8008 17.1229 11.1826L17.1039 11.1678Z" fill="black"/>
<path d="M24.5593 27.277C23.6354 27.3259 23.431 26.2666 24.3497 25.9936C25.1502 25.9692 25.4477 27.062 24.5593 27.277Z" fill="black"/>
<path d="M24.6157 32.7009C24.4859 32.7005 24.339 32.7131 24.2181 32.6604L24.1222 32.6153C23.9849 32.5416 23.8513 32.3846 23.811 32.2329L23.8044 32.2065C23.6887 31.7687 23.9565 31.4922 24.3696 31.4111C24.6282 31.4259 24.8838 31.4579 25.031 31.7096L25.0995 31.8397C25.2623 32.2351 24.9818 32.5796 24.6157 32.7009Z" fill="black"/>
</svg>
