<svg width="48" height="48" viewBox="0 0 48 48" fill="none" xmlns="http://www.w3.org/2000/svg">
<path d="M29.6867 0C29.9475 0.0873225 30.2459 0.115872 30.5169 0.16822C32.2036 0.494006 33.409 1.54036 34.3133 2.97656C35.0029 4.07174 34.8261 4.64623 34.5961 5.91797C34.0925 8.70422 32.9768 11.3512 31.7958 13.9099L31.3742 14.8428C31.1991 15.2327 31.013 15.7369 30.5215 15.8004L30.4922 15.8037C30.1052 15.8497 29.8657 15.5655 29.5966 15.3432L27.6444 13.6145C26.8682 12.864 27.3362 12.4027 27.7807 11.5999L28.7549 9.792C29.5906 8.22773 30.1844 6.57117 30.6607 4.86675L27.5472 4.52981C27.1262 4.44121 26.6282 4.48292 26.1969 4.48238L22.1 4.48221C21.7066 4.48267 21.2589 4.44727 20.8743 4.52399L17.3575 4.91836L17.7944 6.39844C17.824 6.51155 17.8714 6.61472 17.9038 6.72656L19.0257 9.35156L20.7704 12.6417C20.8227 12.7797 20.7966 13.0509 20.7343 13.182L20.722 13.207C20.5926 13.4856 20.3219 13.6646 20.1017 13.868L19.1719 14.7174C18.1606 15.626 17.5003 16.6193 16.633 14.7812L16.1756 13.8035C14.9801 11.2419 13.8668 8.61825 13.404 5.8125C13.1685 4.38498 12.9804 4.03773 13.7766 2.84394C15.0124 0.991219 16.0332 0.534112 18.3082 0.209022C18.762 0.144178 19.2263 0.107949 19.6725 0H29.6867ZM22.2062 1.4815C21.8944 1.48912 21.5823 1.48612 21.2742 1.53842L19.9571 1.70039C19.6292 1.74459 17.4822 2.07548 17.2901 2.31009C17.1708 2.45587 17.1379 3.25447 17.1356 3.47707L21.4454 3.02417C21.9402 2.99181 22.4519 3.01672 22.9486 3.01659L25.8575 3.01678L30.8686 3.40604L30.8978 2.76562C30.9033 2.60095 30.9205 2.43757 30.9024 2.27315C29.6663 1.79315 28.3337 1.6366 27.0198 1.55138L22.2062 1.4815ZM32.4804 3.02931C32.4279 3.26985 32.4199 3.51155 32.379 3.75323L32.0713 5.36269C31.4573 7.92098 30.2459 10.4584 28.867 12.6876L29.9527 13.7185L30.128 13.8941C30.4013 13.4205 30.6086 12.8999 30.8351 12.402C31.8851 10.0939 32.795 7.66448 33.225 5.1578L33.3152 4.41016C33.3377 4.14218 33.2785 4.08226 33.1234 3.86175L32.4804 3.02931ZM15.5092 3.05883C15.3625 3.22524 14.7324 3.99917 14.6939 4.1825C14.632 4.47771 14.8402 5.64417 14.918 5.97056L15.3871 7.7805L16.7861 11.5485L17.8834 13.9068L18.1668 13.6233L19.1532 12.7255L17.8477 10.3806C16.9419 8.63016 15.972 6.17545 15.6751 4.19785C15.6186 3.82143 15.5931 3.42878 15.5092 3.05883Z" fill="black"/>
<path d="M25.7105 47.2695L25.6574 47.3074C24.1338 48.3814 23.0466 47.8329 21.6969 46.8462L19.0834 44.7594C17.7561 43.653 17.3646 43.5409 17.6826 41.5901L20.3412 25.5237L21.3591 19.1292C21.3721 19.0664 21.2395 18.8252 21.205 18.7439L20.7144 17.5783C20.5004 17.0991 20.1669 16.5655 20.0826 16.0467L20.0511 15.8372C19.9382 14.8175 20.631 13.9809 21.6479 13.884L25.9281 13.877C27.0921 13.8788 28.0988 14.4796 27.9844 15.7971C27.8965 16.8085 26.6545 18.4497 26.6927 19.1647C26.7156 19.5957 26.8 20.0337 26.8543 20.4629L27.6202 25.6902C27.6682 25.9938 27.692 26.313 27.7523 26.6135L27.9859 27.9143C28.0068 28.038 28.0075 28.1668 28.0324 28.2893L28.7818 32.719C28.807 32.8824 28.848 33.0434 28.8652 33.208L29.6345 37.7426C29.8052 38.3762 29.8725 39.3276 30.0014 40.0081L30.282 41.6253C30.6204 43.5169 30.1316 43.7319 28.858 44.7942L25.7105 47.2695ZM25.5288 15.3504L21.9702 15.351C21.6182 15.3517 21.5868 15.297 21.4487 15.6454L21.8305 16.4715C21.9464 16.7165 22.4187 17.9147 22.5088 18.012L25.4932 18.0156L26.3544 16.14C26.4486 15.9398 26.6956 15.5018 26.3522 15.3543L25.5288 15.3504ZM23.0103 19.4847L22.7819 19.4993C22.7287 19.5968 22.7393 19.7459 22.7233 19.8558L21.8645 25.3387L23.4968 24.2585L25.3222 22.8064C25.4248 22.716 25.5753 22.6181 25.6481 22.5052L25.2397 19.5067C25.1511 19.4552 24.8256 19.4837 24.712 19.4836L23.0103 19.4847ZM25.8227 23.9985L22.6839 26.3483C22.5602 26.43 21.6631 26.8924 21.6248 26.9611C21.604 26.9985 21.5994 27.1033 21.5902 27.1491L20.9431 31.0156L21.328 30.799C22.625 30.0608 23.8278 29.1991 25.0348 28.3245C25.4847 27.9985 25.9739 27.6941 26.3863 27.3228L26.0066 25.0204C25.9486 24.6864 25.9215 24.3207 25.8227 23.9985ZM26.6158 28.945L24.6604 30.4103C23.51 31.2368 21.9337 32.2241 20.6251 32.8258L19.9455 36.8423L20.3762 36.6432C21.3531 36.1634 22.2899 35.5703 23.2184 35.0036L25.3988 33.6107C26.019 33.2003 26.6545 32.7789 27.2218 32.2973L26.6158 28.945ZM27.4623 33.8909L24.6097 35.8795C23.7501 36.4275 22.8838 36.978 21.9807 37.4522L19.8025 38.519C19.667 38.5777 19.6932 38.5627 19.6629 38.7089L19.1642 41.6449C19.0681 42.1657 18.8411 42.7375 19.3487 43.1173L19.6557 42.9772C22.0761 41.844 24.432 40.4667 26.5783 38.8716L28.146 37.6174L27.6853 35.0159C27.6163 34.6458 27.5808 34.2491 27.4623 33.8909ZM28.3982 39.275L27.0369 40.3316C25.2587 41.6332 22.6772 43.3129 20.5893 44.1147L22.22 45.413L23.041 46.0113C24.2008 46.8085 24.625 46.2975 25.6179 45.542L28.5358 43.1681C28.6496 43.0703 28.7986 42.9613 28.8858 42.8398C29.0324 42.6351 28.806 41.6096 28.7544 41.3667L28.3982 39.275Z" fill="black"/>
</svg>
