<svg width="48" height="48" viewBox="0 0 48 48" fill="none" xmlns="http://www.w3.org/2000/svg">
<path d="M29.2194 40.7283L24.9654 45.5714C24.6844 45.906 24.3386 46.476 23.8082 46.2553L23.7776 46.242C23.361 46.0694 23.0585 45.5538 22.7712 45.226L17.4197 39.111C16.9959 38.6445 17.079 38.3319 17.1707 37.7683L18.5567 27.1643L19.9031 15.9109C19.9726 15.3368 20.0852 14.7643 20.1164 14.1864C18.7336 13.9857 17.3265 13.929 15.9703 13.575C12.7309 12.7293 11.5534 8.41946 10.8275 5.59402C10.766 5.35468 10.6354 5.10915 10.6019 4.86802C10.4274 3.61027 11.37 2.12347 12.5965 1.81964C12.7643 1.77806 12.9424 1.76475 13.114 1.74398L34.0669 1.73832C34.9014 1.73836 35.5674 1.72297 36.2697 2.27393C37.4978 3.23727 37.3473 4.26446 37.0421 5.58286C36.9475 5.99138 36.9077 6.41335 36.7975 6.8205C36.4961 7.93322 36.1159 9.00568 35.6392 10.0562C34.5056 12.5544 33.7247 13.3846 30.8322 13.7915L28.6155 14.1124C27.686 14.2575 27.8296 14.0376 27.9792 15.1133L29.8508 30.1447C29.8809 30.332 29.8863 30.5281 29.9088 30.717L30.7518 37.1955C30.9794 38.6649 31.1334 38.5066 30.1862 39.6096L29.2194 40.7283ZM13.6323 3.28157C12.8169 3.27707 12.3745 3.40316 12.1982 4.26985C12.3648 4.30251 12.5298 4.31226 12.6962 4.33919L19.9221 5.53065C20.0177 5.547 20.1166 5.55207 20.2073 5.58774C20.4706 5.69129 20.8483 5.60935 21.1331 5.6469C21.2382 5.66072 21.3193 5.72382 21.4304 5.73638C21.9092 5.79043 22.4103 5.76704 22.8924 5.77936L25.469 5.78072C26.0829 5.76291 26.4363 5.706 27.0063 5.65079C27.2196 5.63011 27.4388 5.6439 27.6506 5.61399L31.0549 5.03804C31.7837 4.91185 32.5136 4.74769 33.2493 4.66738L35.7833 4.28947C35.8104 4.12007 35.6735 3.82203 35.5759 3.68403C35.2593 3.23622 34.8304 3.27733 34.3503 3.27793L13.6323 3.28157ZM12.4997 5.85493L12.8491 7.22532C12.9165 7.51632 13.0641 7.83005 13.175 8.10957L14.1682 10.2701C15.2704 12.2698 16.8984 12.2483 18.892 12.4963L19.7815 12.5936C19.9245 12.6075 20.0715 12.6441 20.2154 12.6349L20.2294 12.6213L20.2537 12.2442C19.6311 11.5787 19.7085 10.7877 19.7079 9.95166L19.7083 7.43058C19.7083 7.32502 19.7773 7.03224 19.6591 7.01682L14.7858 6.1996C14.0257 6.08129 13.2533 6.00961 12.4997 5.85493ZM35.2855 5.91544L28.2942 7.04232L28.2927 9.49899C28.2927 10.3782 28.4837 11.5912 27.7516 12.2397C27.7493 12.3539 27.7133 12.5999 27.7619 12.6943C27.7834 12.6904 27.8568 12.6696 27.8736 12.6748C28.1846 12.6065 28.4925 12.59 28.8055 12.5454L30.4338 12.3052C30.7836 12.258 31.1574 12.2346 31.5017 12.1681C33.2497 11.8304 33.9183 10.269 34.5299 8.79338C34.9232 7.84435 35.252 6.92658 35.4626 5.91816C35.403 5.89491 35.348 5.90897 35.2855 5.91544ZM21.2182 7.37841C21.1693 7.53558 21.2006 7.73265 21.2026 7.90379L21.2043 10.0761C21.2043 10.3228 21.1899 10.5809 21.2131 10.8261L26.7481 10.8554C26.7617 10.8432 26.7783 10.8331 26.7873 10.8173L26.7808 7.3778L21.2182 7.37841ZM22.1259 12.3541L21.8953 12.3816C21.827 12.4793 21.8178 12.5926 21.7993 12.7079L21.6256 13.859L22.6433 13.1675L23.7942 12.3592L22.1259 12.3541ZM26.1395 12.5744C25.7096 12.8171 25.3288 13.1331 24.9261 13.4161L21.4112 15.9438C21.3142 16.4238 21.2933 16.9268 21.2354 17.4128L20.4845 23.7215C20.4396 24.1008 20.3433 24.4966 20.3401 24.8777L20.8724 24.5123L27.0499 20.2016L26.2776 13.5999C26.2464 13.3418 26.2966 12.7937 26.1884 12.5742L26.1395 12.5744ZM27.2626 21.9494C26.5599 22.4971 25.7914 22.981 25.059 23.4904L20.3606 26.8007C20.212 26.9091 20.0855 26.9595 20.0618 27.1496L19.0004 35.5459C18.9798 35.6862 18.9208 35.8618 18.9356 36.0023L19.5672 35.5752L28.2733 29.5754L27.3974 22.6174C27.3766 22.3969 27.373 22.1601 27.321 21.9451L27.2626 21.9494ZM28.4918 31.313C28.3228 31.4049 28.1705 31.5231 28.0105 31.6291L19.0197 37.8673C18.8865 37.9661 18.7276 38.0436 18.6042 38.1531L21.9454 41.984L24.018 44.3655L29.401 38.2232L28.4918 31.313Z" fill="black"/>
</svg>
