<svg width="48" height="48" viewBox="0 0 48 48" fill="none" xmlns="http://www.w3.org/2000/svg">
<path d="M29.7794 0C30.0438 0.0928444 30.3006 0.150916 30.5454 0.293801C31.6543 0.940833 32.1433 2.21351 31.742 3.42723C31.6277 3.77272 31.4223 4.0878 31.2367 4.39858L29.8938 7.06711L29.5174 7.95886C29.1772 8.68505 28.5472 9.32198 27.7897 9.59634L27.967 10.0898C28.2569 11.0088 27.7198 11.7918 27.0818 12.3728C27.0909 12.4945 27.1461 12.5827 27.1706 12.6997L27.2958 13.1669C27.5076 13.777 27.5154 14.3595 27.5668 14.9884C27.5861 15.2257 27.6627 15.2032 27.8596 15.329C28.9525 16.0273 29.8544 17.1808 30.2807 18.3984L30.4778 19.1215C30.5453 19.3453 30.5499 19.5809 30.5952 19.8092L33.2004 37.2172C33.5515 39.2669 32.1486 40.3399 30.8953 41.563L26.9109 45.5236C26.6629 45.7771 26.441 46.0664 26.1727 46.2985C25.0711 47.2514 23.1536 47.3962 22.0098 46.4222C21.6314 46.1 21.3043 45.711 20.9517 45.3593L16.7046 41.2094C16.3413 40.8479 15.9522 40.516 15.6209 40.1232C14.6389 38.9589 14.67 37.9805 14.894 36.6347L16.0283 29.4141L17.3324 20.4512C17.6035 18.3418 17.9738 17.0771 19.7707 15.6482L20.3127 15.2528C20.7263 14.9641 20.4948 14.778 20.5492 14.2148C20.6088 13.5967 20.747 12.9498 20.9622 12.3684C20.872 12.2805 20.7629 12.2148 20.6702 12.1291C19.9925 11.5024 19.8138 10.4549 20.2331 9.63708C20.1441 9.55781 19.9788 9.50348 19.8704 9.44541C18.5675 8.74762 18.2506 7.27922 17.646 6.05948L16.9334 4.69172C16.2948 3.54361 15.7165 2.59681 16.4474 1.29603C16.9208 0.453599 17.4862 0.234921 18.3368 0H29.7794ZM18.9034 1.48275C18.3508 1.52738 17.8785 1.70988 17.6718 2.25L17.6579 2.28461C17.4734 2.76252 18.192 3.7423 18.4032 4.16811L19.6857 6.76172C19.9939 7.46911 20.2959 8.25366 21.1905 8.30067C21.3828 8.3108 21.5899 8.26847 21.7863 8.26697L25.9646 8.26734C26.9191 8.26772 27.6749 8.41847 28.1013 7.29966L29.8247 3.76103C30.1278 3.20993 30.6084 2.59901 30.1815 1.9968L30.1583 1.96376C29.7149 1.34745 29.0406 1.48196 28.3823 1.48175L18.9034 1.48275ZM22.4886 9.73317C22.0061 9.77611 21.5409 10.0218 21.5553 10.582L21.5558 10.613C21.5678 10.872 21.7974 11.1001 21.9821 11.2546L22.0916 11.336C22.1375 11.3667 22.2203 11.3595 22.2733 11.3607L25.6129 11.3715C26.5928 11.3262 26.8098 9.89794 25.7532 9.74386C25.4254 9.69609 25.0535 9.73237 24.7199 9.73223L22.4886 9.73317ZM22.5333 12.8197L18.9982 38.0872C19.591 38.7781 20.3188 39.3825 20.9909 39.9945L24.1785 42.9808C24.3584 43.1555 24.5809 43.3062 24.6837 43.5426L24.7008 43.5803C24.974 44.224 24.2325 44.7657 23.639 44.4515C23.1942 44.2161 22.6928 43.6252 22.3287 43.2773L18.5964 39.826C18.126 39.384 17.5517 39.1053 17.5494 38.3948C17.5482 38.0377 17.5551 37.7211 17.6163 37.3711L20.3727 18.2467C20.4344 17.8051 20.5216 17.3596 20.5353 16.9133C19.4872 17.7825 18.9702 18.9241 18.8417 20.2469L17.4949 29.791L16.3709 36.9314C16.2611 37.5626 16.1594 38.1462 16.4963 38.7422L16.6602 38.999C16.8067 39.2046 17.0057 39.3795 17.1851 39.5561L18.5872 40.8933L22.3636 44.6162C22.8173 45.0891 23.3055 45.5748 24.0115 45.5801L24.2384 45.565C24.9665 45.5112 25.4664 44.8395 25.9424 44.3643L29.9745 40.3559C30.6526 39.691 31.8739 38.7046 31.7556 37.6187C31.7054 37.1583 31.5887 36.7099 31.5192 36.2534L29.1826 20.534C28.9857 18.8624 28.8465 18.3432 27.7196 17.1114L27.8023 17.7659C27.8223 17.9289 27.8216 18.0952 27.8442 18.2578L27.9857 19.2187C28.0139 19.4107 28.0122 19.6078 28.0407 19.7992L29.2977 29.2617C29.3227 29.4206 29.3225 29.5837 29.3467 29.7422L30.4762 37.873C30.5574 38.3187 30.5847 38.8505 30.0466 39.0046L30.0101 39.0153C29.3632 39.1985 29.1006 38.5686 29.0069 38.0495L26.4108 18.8204L25.9122 15.3296C25.874 15.0707 25.6224 12.9303 25.4759 12.825L22.5333 12.8197Z" fill="black"/>
</svg>
