<svg width="48" height="48" viewBox="0 0 48 48" fill="none" xmlns="http://www.w3.org/2000/svg">
<path d="M29.4759 40.7088L25.8284 44.7058C25.6219 44.9426 25.4585 45.1595 25.1962 45.3401C24.533 45.7967 23.485 45.8535 22.8402 45.3169C22.6359 45.1469 22.4815 44.945 22.3021 44.7523L17.8789 39.8751C16.0775 37.9794 16.1514 37.4589 16.7547 34.8914L21.236 15.3764L20.066 13.5936C19.5282 12.8402 19.3266 11.8693 19.9669 11.1111L13.4425 3.84016C13.2588 3.58585 13.1739 3.34654 13.2319 3.03199L13.2382 3.00027C13.3158 2.5822 13.611 2.34138 14.0268 2.28027L34.003 2.28089C34.4283 2.28094 34.8265 2.2684 35.072 2.69557L35.0915 2.73074C35.1965 2.91531 35.231 3.26568 35.1225 3.44465L35.1069 3.46902C34.9212 3.77995 34.6568 4.06569 34.4158 4.336L28.7348 10.5003C28.5303 10.7369 28.3421 11.0119 28.1135 11.2241L28.0975 11.2386C28.1562 11.4158 28.268 11.5405 28.3033 11.7344L28.352 11.9362C28.4879 12.7555 27.9584 13.3696 27.504 13.9716L26.9253 14.7667C26.9399 14.989 27.0055 15.2113 27.048 15.4288L27.4102 17.0776C27.436 17.1881 27.4413 17.3049 27.4693 17.4143L28.1602 20.3516C28.26 20.7196 28.305 21.1166 28.4212 21.4791L28.516 21.8543C28.5838 22.0549 28.6445 22.3055 28.677 22.5163L30.7588 31.3499C30.8441 31.6019 30.8694 31.8868 30.938 32.1448L31.3605 33.9143C31.5 34.4535 31.6629 35.5267 31.8701 35.9417C32.0945 36.3912 31.9742 37.1759 31.8342 37.6626C31.5758 38.5606 30.9761 39.1654 30.3408 39.8133L29.4759 40.7088ZM15.3752 3.76327C15.9522 4.58483 16.7239 5.31252 17.4119 6.03852L18.7487 7.50665C19.5884 8.4052 20.4443 9.28987 21.2212 10.2438L21.6948 10.2218L17.4392 4.16995C17.359 4.05944 17.2699 3.83629 17.159 3.77029L15.3752 3.76327ZM20.6708 3.76345L19.0513 3.80549C19.4786 4.32139 19.8291 4.92055 20.2111 5.47124L22.9946 9.48107C23.2672 9.85809 23.2235 9.7529 23.6868 9.75088C24.1549 9.74887 24.6472 9.71723 25.112 9.77151L26.2216 8.24774L29.3864 3.77594L20.6708 3.76345ZM31.31 3.76609L30.1246 5.30512L27.2067 9.4333C27.0605 9.63407 26.8711 9.8654 26.7699 10.0905C26.8374 10.125 26.9144 10.1752 26.9887 10.1871L27.658 9.43795L32.3362 4.41152C32.4437 4.29426 32.8213 3.82256 32.8848 3.77272L31.31 3.76609ZM23.3917 11.4189C22.8709 11.4599 22.366 11.5586 21.8611 11.6864C21.4436 11.7921 20.8332 11.8811 21.1269 12.4362C21.1985 12.5714 22.0795 13.9787 22.1851 14.047L24.5243 14.0361L25.701 14.0126C25.9092 13.6252 27.0462 12.2759 26.8712 11.9807L26.8525 11.9475C26.7215 11.7227 26.4923 11.6099 26.2481 11.5475L25.7228 11.4638C25.4164 11.4041 25.082 11.4177 24.7705 11.4169L23.3917 11.4189ZM22.7324 15.5849L21.7115 19.903L23.2742 18.5704L24.8189 17.0689C25.4572 16.4402 25.7081 16.5111 25.5387 15.6005C25.2331 15.559 24.896 15.5849 24.5859 15.5847L22.7324 15.5849ZM26.0925 17.9824L24.7481 19.3375C24.2448 19.822 23.7111 20.2734 23.1677 20.7121L21.3664 22.0766C21.2195 22.1853 21.2 22.1902 21.1565 22.3629L19.076 31.2893C19.0185 31.5204 18.9262 31.7599 18.9149 31.9986L19.6059 31.5059C22.1595 29.648 24.278 27.3642 25.9398 24.6769L27.1849 22.4687L26.0925 17.9824ZM27.6528 24.6229C27.2014 25.5295 26.6395 26.3779 26.0482 27.1977L25.1975 28.3479C23.5909 30.3621 21.5454 32.2199 19.3455 33.5682L18.8833 33.8323C18.593 33.9837 18.7177 34.2789 18.4529 34.4534L17.8253 36.7678C17.5551 37.7199 19.2528 39.1302 19.8015 39.7432C19.9027 39.8641 20.0249 40.058 20.1504 40.1488C23.6409 38.4771 26.2856 35.6933 28.4342 32.5437L29.2594 31.3099L27.6528 24.6229ZM29.7065 33.3245C27.5669 36.6152 24.7517 39.5268 21.2128 41.3009L23.0061 43.3208L23.3709 43.7451C23.5557 43.9661 23.683 44.1819 24.0042 44.197C24.5037 44.2205 25.2781 43.0796 25.5945 42.7296L29.2149 38.8371C30.4415 37.5739 30.7325 37.4475 30.3229 35.7891L29.7961 33.6624C29.7719 33.5482 29.7268 33.4386 29.7065 33.3245Z" fill="black"/>
</svg>
