<svg width="48" height="48" viewBox="0 0 48 48" fill="none" xmlns="http://www.w3.org/2000/svg">
<path d="M28.4698 0L31.0166 0.211366C31.5846 0.262575 32.1627 0.361431 32.7249 0.457031C34.621 0.77948 36.484 1.38566 37.218 3.38672L37.2923 3.59766C37.888 5.73558 37.0846 6.56981 36.0236 8.21634L32.2633 13.9233C31.4306 15.2168 30.556 15.9896 28.9338 15.7065C28.7993 15.683 28.6513 15.617 28.5197 15.5754L27.7356 17.4158C27.7653 17.7428 27.9334 18.3097 28.0462 18.6129L28.5805 20.3831C28.6215 20.588 28.7001 20.794 28.7394 21.001L30.9843 34.1484C31.0426 34.4698 31.084 34.7883 31.1603 35.1071L31.2734 35.6146C31.3353 35.9192 31.4189 36.2342 31.509 36.5315C31.8172 37.5487 30.78 39.0511 30.1871 39.7969L28.7955 41.3812L25.3937 44.7611C25.18 44.9736 24.9666 45.2122 24.7158 45.3816L24.6835 45.4028C23.8265 45.9752 23.219 45.3786 22.6288 44.7873L20.4676 42.6805C19.1921 41.4638 17.7405 40.1576 16.926 38.5649C16.1483 37.044 16.6178 36.1102 16.932 34.5264L17.6947 30.521L19.2699 20.8382L19.6025 19.513C19.7976 18.8723 20.3355 17.7744 20.0993 17.1628L19.5058 15.6222C17.4168 16.0007 16.7242 15.4723 15.5676 13.6997L11.2548 7.15416C10.9279 6.65934 10.6253 6.11611 10.5271 5.52281C10.227 3.70868 11.412 1.82602 13.0299 1.06168C13.9272 0.637744 14.9513 0.488817 15.9262 0.3661L19.0077 0.0766392C19.2497 0.0624305 19.4987 0.0584091 19.7362 0.00678103L19.7658 0H28.4698ZM24.499 1.47047L19.271 1.59031L16.5116 1.83984C15.9865 1.90655 15.4566 1.96596 14.9388 2.07872C15.0468 2.24132 15.2012 2.32823 15.3464 2.45256L22.2365 8.0647C22.6932 7.79798 23.1131 7.63636 23.6368 7.55137C24.3956 7.46634 25.1561 7.65164 25.7825 8.08622C25.79 8.09147 25.796 8.10347 25.805 8.10197C25.8211 8.0993 32.7556 2.45302 33.1216 2.05647C30.5953 1.50682 27.0587 1.47202 24.499 1.47047ZM13.228 2.66731C12.4004 3.28867 11.7813 4.29031 11.99 5.3632L12.0217 5.47448C12.1975 6.0352 12.6491 6.53719 12.965 7.02853L16.4846 12.408C16.7791 12.8608 17.0545 13.3349 17.3784 13.7667C18.2269 14.8979 19.4939 13.9881 20.314 13.4749C21.3351 12.8359 22.3885 12.2568 23.2349 11.3842C23.3872 11.227 23.4955 10.992 23.6838 10.8764C24.148 10.5913 24.6058 11.149 24.9356 11.3991L27.6178 13.3957C28.4294 13.9621 29.6565 14.8294 30.5373 13.8451C30.6815 13.6839 30.7919 13.4892 30.9088 13.3076L32.8842 10.3237C33.227 9.79959 33.5393 9.24277 33.9171 8.74336L35.1277 6.88636C35.6607 6.06919 36.1812 5.46455 36.0075 4.42234L35.985 4.33105C35.8079 3.70115 35.3821 3.00193 34.786 2.67847L34.7449 2.65915L26.6955 9.32855C26.4572 9.53902 26.0587 10.1392 25.6784 9.97059L25.6548 9.96066C25.0553 9.6848 25.1306 8.73042 23.4795 9.08761C23.0377 9.18314 22.8926 9.5932 22.5353 9.76556L22.5139 9.77611C22.3994 9.82898 22.2772 9.81169 22.1603 9.77981L22.1307 9.77208C21.963 9.72567 21.8159 9.60347 21.6786 9.50105L13.228 2.66731ZM24.0765 12.6157C23.6495 13.0346 23.1892 13.4252 22.6964 13.7654L21.9259 14.2476C21.5571 14.4766 21.1909 14.7141 20.7943 14.8941L21.2534 16.1133C21.2885 16.2195 21.3073 16.444 21.3806 16.5173L23.8537 16.5158L26.609 16.5184L27.1547 14.8995L24.0765 12.6157ZM22.269 17.9827L21.7182 17.9928C21.5605 18.1757 21.173 19.4652 21.1156 19.7217C21.2752 19.9559 21.5116 20.1619 21.7084 20.3665L26.1823 24.9291C26.6759 25.4239 27.213 25.8855 27.6776 26.408L28.2285 26.9602C28.1112 26.5881 28.0973 26.1656 28.0284 25.7803L27.3676 21.7148C27.1359 20.4407 26.6679 19.2135 26.2692 17.9866L22.269 17.9827ZM20.6243 21.4069L20.1204 24.5768C20.0545 25.0593 19.9605 25.527 19.9411 26.0152L29.5724 35.8553L29.9707 36.2462C29.6722 35.5038 29.5577 34.6834 29.428 33.8968L28.9984 31.3828C28.8918 30.7667 28.7921 30.157 28.6242 29.5533L28.6169 29.5263C28.5856 29.4251 28.4272 29.302 28.349 29.2236L20.6243 21.4069ZM19.6491 27.832C19.5857 28.0279 19.572 28.2227 19.5395 28.4244L18.8218 32.403C18.9817 32.6256 19.1665 32.8081 19.3483 33.0117L27.1266 40.9449L27.9728 40.0823L29.06 38.8125C29.2619 38.552 29.464 38.2863 29.6198 37.9947L29.3167 37.7377C28.9618 37.4053 28.6449 37.0266 28.3028 36.6799L20.0711 28.3497C19.9505 28.2109 19.8018 27.9219 19.6491 27.832ZM18.4666 34.2514L18.0584 36.4149C17.8347 37.6147 18.3743 38.2729 19.1414 39.1923C19.5758 39.7129 20.0485 40.224 20.5329 40.6989L23.6019 43.65C23.7321 43.7816 23.8495 43.9237 23.9877 44.0475L24.8076 43.2397L25.729 42.3467C25.8306 42.2494 26.0242 42.108 26.091 41.988L18.4666 34.2514Z" fill="black"/>
</svg>
