<svg width="48" height="48" viewBox="0 0 48 48" fill="none" xmlns="http://www.w3.org/2000/svg">
<path d="M19.5207 42.7122C18.8958 42.107 18.3394 41.4052 17.7528 40.7607L17.1646 40.13C16.4268 39.387 15.7127 38.5557 15.7939 37.4262C15.8213 37.0453 15.9513 36.6925 16.0271 36.3218L18.274 23.8355L19.0256 19.0729L19.2504 17.0198L19.769 13.9528C19.2279 13.9857 18.7533 13.9459 18.4343 13.4377L18.4102 13.3983C18.0207 12.7759 18.2688 12.3799 18.0627 11.9732L14.3767 5.5314C13.7323 4.40134 13.2797 3.26361 14.3597 2.17585C14.8905 1.64123 15.3015 1.51704 16.0103 1.51547L32.3035 1.51309C34.13 1.41311 34.6418 3.5909 33.9447 4.97419C33.7237 5.4128 33.4341 5.81902 33.1914 6.24676L30.2919 11.345C30.189 11.5256 30.0889 11.7479 29.9649 11.9131C29.703 12.2619 29.8754 12.6415 29.7302 13.035L29.7185 13.0659C29.4167 13.8842 28.8684 13.9323 28.0787 13.9677C28.0684 14.34 28.1496 14.9017 28.2193 15.2808L28.5411 17.2854C28.5639 17.4283 28.5704 17.577 28.5961 17.7183L28.9218 19.4527C28.9848 19.8007 29.0104 20.1624 29.0905 20.5074L30.0087 25.7046C30.0523 25.857 30.0614 26.0097 30.0883 26.1648L30.2261 26.7911C30.2869 27.071 30.3123 27.3652 30.3757 27.6441L31.3477 32.7676C31.3785 32.9126 31.3841 33.0652 31.4111 33.2105L31.6329 34.3615C31.6974 34.6323 31.7201 34.919 31.7817 35.1909L32.1158 36.7397C32.4847 38.6292 31.5303 39.3849 30.3857 40.62L26.7305 44.6668C26.4325 45.0068 26.1489 45.3858 25.8197 45.6947C24.988 46.4751 23.6726 46.7011 22.6853 46.0704C22.2067 45.7646 21.8825 45.3087 21.5043 44.896L19.5207 42.7122ZM18.1705 2.98188C17.9079 2.98534 17.6321 2.97114 17.3733 3.01812C17.5544 3.312 17.8302 3.54056 18.0604 3.79653L19.7924 5.70788C20.0023 5.93776 20.1934 6.2071 20.4258 6.4141C20.999 5.75944 21.7291 5.91151 22.5146 5.91038L26.2511 5.90551C26.8613 5.90419 27.2648 5.81583 27.612 6.43552L28.4241 5.50257C28.7006 5.20149 30.6257 3.12223 30.6464 3.01047C30.201 2.94797 29.7152 2.98245 29.2653 2.98238L18.1705 2.98188ZM15.4124 3.48001C15.06 3.85932 15.5661 4.37484 15.7519 4.71048L18.3977 9.33938C18.5491 9.60516 18.6785 9.87746 18.8492 10.1319L19.0313 9.60362L19.652 7.95085L16.0816 4.01354C15.9269 3.85024 15.703 3.51244 15.4691 3.46541L15.4124 3.48001ZM32.4528 3.52688C32.2803 3.61155 32.1172 3.81005 31.9824 3.94843L28.6088 7.6823C28.5307 7.77188 28.4333 7.86484 28.3717 7.96571L29.0472 9.72085C29.0914 9.87455 29.1487 10.0157 29.2138 10.1612C29.4851 9.53734 29.8564 8.93405 30.192 8.34221L31.9739 5.19751C32.1131 4.9449 33.0314 3.73125 32.5198 3.51514L32.4528 3.52688ZM26.3084 7.46438L21.5306 7.51243C21.4581 7.62029 21.4436 7.72829 21.3956 7.84477L19.9343 11.8379C19.8889 11.9846 19.8255 12.1431 19.8064 12.2953C20.2641 12.1826 21.2851 11.9938 21.709 12.0019L26.1753 12.0115C26.3525 12.0105 26.5307 11.9946 26.7071 12.0148L26.7385 12.0179C27.1803 12.0651 27.6978 12.298 28.1396 12.2463C27.6019 10.4462 27.1425 9.16759 26.3558 7.46359L26.3084 7.46438ZM23.1971 13.5989L21.4294 13.6103L21.1468 15.1542C21.1145 15.3627 21.0715 15.5646 21.0583 15.7761L24.1929 15.3935L26.6545 15.0597L26.4173 13.6101L23.1971 13.5989ZM26.7997 16.6519L21.353 17.362C21.1875 17.3809 21.0193 17.4143 20.853 17.4179L20.4284 20.1077L22.4297 18.3773C22.6911 18.1517 22.9553 17.8764 23.3321 17.9309C23.9677 18.023 24.2029 18.7909 23.7931 19.2468C23.4353 19.6449 22.9583 19.9825 22.5549 20.3363L20.3058 22.3539C20.1008 22.5259 20.1388 22.5327 20.0805 22.7965L19.2316 27.2281L18.5049 31.3902C20.3657 28.3475 23.362 24.7108 25.992 22.4198C26.455 22.0164 26.9369 21.5813 27.471 21.2763C27.6779 21.1582 27.6236 21.2042 27.5871 20.9761L26.8635 16.6636C26.8184 16.6442 26.84 16.6459 26.7997 16.6519ZM27.9215 22.8489C27.6405 23.0438 27.3908 23.2842 27.1289 23.504C24.3029 25.8764 21.8536 29.2375 19.7841 32.2495L18.6972 33.9123C18.2952 34.5579 17.8488 35.2212 17.7119 35.9818L17.5076 36.8848C17.4624 37.0615 17.3989 37.2557 17.3824 37.4371L17.6372 37.2598C19.5906 35.6929 21.1602 33.6523 22.6991 31.6945L25.3377 28.3959L27.2526 26.1756C27.6011 25.8075 27.9538 25.4396 28.344 25.1151L28.0607 23.5542C28.019 23.3317 28.0022 23.0597 27.9215 22.8489ZM28.6441 26.9085L23.3649 33.4321C21.817 35.3797 20.2453 37.4075 18.2331 38.9011L20.2792 41.2066L21.0341 42.0084C22.6788 39.2127 26.8947 34.8406 29.824 33.0641C29.6907 32.578 29.639 32.0611 29.5437 31.5656L28.9141 28.2797C28.8296 27.831 28.7762 27.3447 28.6441 26.9085ZM30.077 34.7456L28.0664 36.3749L26.263 38.0981C25.0305 39.3427 23.8786 40.6555 22.8594 42.0816L22.2704 42.9634C22.2185 43.0444 22.1238 43.1524 22.0979 43.2429L23.1869 44.4203C23.3839 44.6229 23.5446 44.7964 23.836 44.8379L23.8677 44.8438C24.3748 44.9336 24.6733 44.5976 24.9767 44.263L29.5923 39.1545C31.01 37.6597 30.7489 37.9234 30.3987 36.1402C30.3089 35.6827 30.2496 35.2094 30.1395 34.7574L30.077 34.7456Z" fill="black"/>
</svg>
