<svg width="48" height="48" viewBox="0 0 48 48" fill="none" xmlns="http://www.w3.org/2000/svg">
<path d="M28.7432 43.1315L25.6229 46.0884C25.0807 46.6208 24.4691 47.1457 23.6429 46.9118L23.6016 46.9001C23.0713 46.7503 22.7517 46.3959 22.3635 46.0276L17.5618 41.4769C15.9888 40.0466 16.2916 40.1886 16.5805 38.0974L18.4602 25.7576L20.0499 14.7577L19.4717 14.463C18.3495 13.7723 18.0215 12.7618 18.0205 11.5171L18.0206 10.2575C18.021 9.55069 18.1846 9.65241 17.7038 9.31932C15.7327 7.95404 14.1966 5.75855 13.8058 3.37477C13.5965 2.09784 14.1887 1.05142 15.5051 0.851428L31.7933 0.84375C32.8079 0.844481 33.6162 0.82943 34.1255 1.93847C34.5951 2.96115 34.0269 4.57378 33.5686 5.52521C32.8918 6.93061 31.8716 8.37647 30.5581 9.26419C30.1783 9.52083 30.2578 9.30113 30.2579 9.81647L30.2585 11.1226C30.2584 11.8805 30.2587 12.5595 29.871 13.2368C29.4401 13.9895 28.7901 14.5493 27.9545 14.778L28.4087 18.3279L30.3288 30.949C30.3889 31.2489 30.4204 31.5605 30.4686 31.8631L31.6513 39.3054C31.8047 40.5037 31.2212 40.7658 30.4915 41.4466L28.7432 43.1315ZM27.0761 2.14747L16.6939 2.14878C15.5964 2.14979 14.9109 2.01918 15.255 3.4989C15.2768 3.59243 15.2848 3.68249 15.3197 3.77251L15.4785 4.28916C15.8988 5.60682 17.0878 7.03721 18.121 7.90205C18.429 6.46154 19.5517 5.67685 20.9707 5.57977L26.7152 5.57982C27.0729 5.58029 27.4489 5.56547 27.7999 5.64268C28.7355 5.84841 29.7724 6.60436 30.0164 7.57847L30.0997 7.8293C31.3613 6.51816 32.3038 5.49849 32.7595 3.62983C33.0104 2.60115 33.1519 2.14698 31.8304 2.14653L27.0761 2.14747ZM20.7222 7.03252C19.662 7.27932 19.4324 7.85316 19.4447 8.84968L19.4525 11.4443C19.453 11.7922 19.3838 12.2197 19.5502 12.5388C20.1346 13.6598 20.9936 13.4554 22.0509 13.4549L26.2927 13.4551C26.7232 13.4548 27.1797 13.4842 27.6033 13.4028C28.6547 13.007 28.8754 12.3413 28.86 11.3239L28.8565 9.13627C28.8565 8.34043 28.7858 7.55846 27.9469 7.18819C27.4923 6.98752 27.1079 7.02999 26.6197 7.02961L20.7222 7.03252ZM21.4582 14.9003L20.3138 22.7173L23.2057 20.1856L26.8202 17.1544L26.5493 14.9003H21.4582ZM27.129 19.0665C26.6574 19.4176 26.2284 19.8389 25.7813 20.2212L20.1412 25.1178C20.0644 25.1807 19.9726 25.2312 19.9092 25.3077L18.7279 33.301L19.2587 32.8389L28.0987 25.5229L27.129 19.0665ZM28.3709 27.5506L18.3067 35.9038L17.7435 39.6496L19.0542 40.9338L19.514 41.3482L29.2204 32.9158L28.452 27.9138C28.4336 27.7956 28.4337 27.6671 28.3981 27.5532L28.3709 27.5506ZM29.5451 34.9818C29.2779 35.1794 29.0325 35.4063 28.7772 35.6189L21.5992 41.794C21.3159 42.0448 20.9892 42.2838 20.7303 42.5566L22.7037 44.3976L23.4541 45.0818C24.0901 45.6611 23.9085 45.6948 24.5317 45.0886L28.7918 41.0784C29.2755 40.6294 29.7328 40.1237 30.261 39.7287C30.295 39.7034 30.2819 39.7152 30.3095 39.6814L29.5451 34.9818Z" fill="black"/>
</svg>
