<svg width="48" height="48" viewBox="0 0 48 48" fill="none" xmlns="http://www.w3.org/2000/svg">
<path d="M24.7071 46.2529C24.4718 46.532 24.0403 46.7468 23.6729 46.6259L23.6486 46.617C23.4728 46.555 23.373 46.3927 23.2627 46.252L16.4305 36.7454C16.3365 36.5998 16.2419 36.4318 16.2164 36.2589L16.2115 36.2226C16.0893 35.4546 16.6392 34.2851 16.8639 33.5497L21.3606 18.894C21.702 17.8012 22.1133 16.7269 22.3951 15.6164C22.5471 15.017 22.0873 14.4693 21.7795 13.9407L21.0348 12.6692C20.869 12.4008 20.6184 12.1381 20.5324 11.8311C20.2332 10.7628 20.6166 9.82621 21.4748 9.12529L17.2156 5.25262C16.935 5.00887 16.6372 4.76521 16.4123 4.46667C15.6988 3.51946 16.0881 2.13496 17.1472 1.65657C18.0356 1.2553 20.4832 0.964402 21.4442 0.878405L22.8533 0.787004C25.1449 0.70238 27.4767 0.892491 29.7148 1.39161C30.6164 1.5927 31.3879 1.71413 31.7814 2.68359C32.2349 3.8006 31.6207 4.55769 30.8611 5.27732L27.9223 7.98402C27.4741 8.38129 26.9773 8.74729 26.551 9.16602C27.3088 9.80662 27.7917 10.7328 27.4779 11.7476L27.4685 11.7773C27.3512 12.1584 27.1053 12.465 26.9078 12.8054C26.4623 13.5734 25.9805 14.3426 25.5995 15.1446C25.521 15.3096 25.5484 15.3768 25.6092 15.5429C25.9818 16.5611 26.2705 17.7956 26.5846 18.8488L26.8488 19.7074C27.0601 20.4007 27.2368 21.1201 27.4837 21.8014L28.3892 24.6946C28.3984 24.7305 28.4074 24.7643 28.4208 24.7991L30.6395 31.92C30.6647 32.0452 30.7187 32.1553 30.7547 32.2769C31.004 33.1184 31.2921 34.1823 31.6083 34.9932C32.1527 36.3893 31.4558 36.8592 30.7178 37.9352L24.7071 46.2529ZM23.4317 2.21735C22.7701 2.22716 22.145 2.24308 21.4897 2.31109L18.7846 2.70743C18.5037 2.75839 17.6164 2.87176 17.4354 3.061C17.2371 3.26833 17.4116 3.62572 17.6017 3.77094L17.6234 3.78789C17.7904 3.91209 18.0068 3.92937 18.1993 3.98633C18.7724 4.15592 19.608 5.25112 20.017 5.69324L21.0053 6.70124C21.4641 7.17941 22.1877 7.99851 22.835 8.22412C23.3802 8.12305 24.0193 8.0976 24.5709 8.14218C25.2117 8.16791 25.0082 8.29959 25.481 7.91812L27.8508 5.91304L28.8004 4.93898C29.1654 4.54986 29.5469 4.08052 30.07 3.91826C30.8322 3.68184 30.8993 3.07683 29.9414 2.86584L27.0652 2.37236C26.58 2.31475 25.9447 2.24013 25.4589 2.23184L23.4317 2.21735ZM24.0057 9.42927C22.9657 9.46476 22.2777 9.84102 21.7737 10.7916C21.5791 11.1586 21.7988 11.5763 21.9943 11.8916L22.3957 11.6125L24.9603 9.46705C24.6457 9.41249 24.3238 9.4244 24.0057 9.42927ZM25.9271 10.3321L22.7337 13.0651L23.1409 13.7695C23.2735 13.9878 23.4427 14.2074 23.5307 14.4477L23.5404 14.4668C23.5895 14.5672 23.6043 14.7484 23.687 14.8159L24.3591 14.8096C24.3907 14.7661 24.3939 14.7306 24.4041 14.6789C24.46 14.3949 24.6672 14.1171 24.8109 13.8702L26.0855 11.662C26.1669 11.5123 26.2571 11.3702 26.2975 11.2031L26.3051 11.1727C26.3762 10.8687 26.1231 10.5405 25.9271 10.3321ZM24.3933 16.043L23.6037 16.0584C23.564 16.2233 23.5238 16.3752 23.494 16.5433L24.3731 17.2901L24.9226 17.7476L24.4503 16.0664C24.4036 16.0443 24.4233 16.0501 24.3933 16.043ZM23.0543 17.8411L22.293 20.2412L27.0957 27.8947C27.2632 28.1898 27.6831 28.4824 27.9528 28.6841L28.4143 28.99C28.2541 28.6303 28.166 28.2264 28.0558 27.8485L25.7376 20.4284C25.6383 20.1139 25.5712 20.0506 25.3308 19.8243L23.0543 17.8411ZM21.8151 21.8011C21.7227 22.0539 21.1131 23.7882 21.1767 23.9212C21.2263 24.0253 21.3041 24.1226 21.3673 24.2194L29.4385 36.1875C29.5687 36.3785 29.7169 36.6687 29.8978 36.8086L29.9591 36.802C30.1679 36.5013 30.5645 36.1322 30.4922 35.7433C30.4154 35.3305 30.2559 34.9157 30.1256 34.517L29.1871 31.4875C29.0632 31.0838 29.0212 31.1516 28.7046 30.8975L26.8765 29.4443C26.144 28.8533 26.2499 28.987 25.7607 28.1247L22.0349 22.1601C21.9674 22.0465 21.9034 21.899 21.8151 21.8011ZM20.6817 25.4872C20.6275 25.6118 20.5759 25.7312 20.5422 25.8633L19.7877 28.4867C20.0531 28.7601 20.2693 29.1382 20.4926 29.4489L23.9793 34.2758L27.7943 39.8426L27.9925 39.5522L29.1214 37.9258C29.0402 37.7459 28.7494 37.4418 28.6221 37.257L20.8936 25.8105C20.8273 25.7065 20.7624 25.5799 20.6817 25.4872ZM19.3099 29.9796L18.2342 33.3032L20.9083 36.0195C21.4421 36.5842 22.0015 37.1256 22.5 37.7227L25.949 42.3194L26.979 40.9028L19.3797 30.0841C19.3522 30.0508 19.3315 30.0169 19.3099 29.9796ZM17.8436 34.7608L17.4551 35.8937L23.9622 45.016L24.332 44.5371L25.1528 43.4119L21.467 38.4876C21.2967 38.2808 21.0991 38.0909 20.9185 37.8923L18.3771 35.2815C18.2053 35.1068 18.0379 34.9099 17.8436 34.7608Z" fill="black"/>
</svg>
