<svg width="48" height="48" viewBox="0 0 48 48" fill="none" xmlns="http://www.w3.org/2000/svg">
<path d="M27.672 43.2458L25.5595 45.3214C25.1228 45.7079 24.5173 46.4012 23.8696 46.3007L23.8352 46.2948C23.5613 46.2508 23.3093 46.0745 23.097 45.9038L21.717 44.716C20.6196 43.7083 19.6288 42.6103 18.6523 41.4883L16.9403 39.5055L14.6104 36.3486C14.1067 35.6232 13.8353 35.1153 13.9803 34.1586L16.9758 18.7144C17.2436 17.0602 18.6773 16.2467 20.2568 16.5323L20.6017 14.6686C19.1387 13.9199 18.9848 12.4996 19.243 11.0744C19.2513 11.0286 19.2799 10.937 19.2755 10.8939C19.2647 10.786 15.9602 6.96597 15.6578 6.61422C15.4471 6.36897 15.193 6.15236 15.0038 5.88925C14.3208 4.93947 14.5211 3.56428 15.2615 2.70661C15.817 2.06316 16.4862 1.80823 17.3142 1.74477L29.418 1.73908C29.9776 1.73917 30.5923 1.68861 31.1416 1.79009L31.1712 1.79576C32.1118 1.9661 33.1186 2.8389 33.27 3.79716C33.2753 3.83062 33.2786 3.86195 33.2895 3.89433C33.5855 4.77527 33.1206 5.66941 32.5306 6.30011L29.7141 9.55263C29.3627 9.96738 28.9934 10.3521 28.6824 10.8008L28.8752 11.2855C28.9149 11.3872 28.9502 11.4965 28.9699 11.6042L28.9768 11.6487C29.2563 13.2286 28.6478 13.9758 27.3974 14.7205L27.5302 15.7727C27.5613 16.0164 27.5766 16.2539 27.6368 16.4933C28.2111 16.4411 28.5244 16.3197 29.1551 16.5575L29.3637 16.6354C31.0735 17.3452 30.9972 19.3874 31.3115 20.9183L32.8648 29.123C32.9372 29.5123 33.024 29.8976 33.0874 30.2876L33.5244 32.479C33.6727 33.2589 34.0893 34.4139 33.9029 35.1522L33.8806 35.2424C33.7463 35.773 33.4726 36.1336 33.1602 36.5693L30.9906 39.4148L27.672 43.2458ZM17.2033 3.35527C16.8208 3.42745 16.5127 3.59674 16.3056 3.93768L16.283 3.97325C15.7524 4.83269 16.9066 5.64588 17.4581 6.28155L20.488 9.817C21.127 9.50495 21.4965 9.48034 22.1845 9.47983L26.3444 9.48405C26.4763 9.48606 26.633 9.48011 26.758 9.52703L27.4714 9.80364L28.7639 8.2135L31.4335 5.10011C31.5515 4.96417 31.7017 4.83091 31.7898 4.67456C32.0053 4.29224 31.4138 3.41465 30.8724 3.36109C30.6828 3.34234 30.4836 3.35371 30.293 3.35365L17.2033 3.35527ZM21.8491 11.047C21.1688 11.1496 20.461 11.7704 20.7167 12.5243L20.8268 12.7705C21.3379 13.8313 23.2895 13.4998 24.287 13.4998L25.5683 13.499C25.8276 13.4986 26.1374 13.5326 26.3849 13.4547L26.5962 13.3984C27.7198 13.0602 27.8305 11.6597 26.7408 11.1714L26.5369 11.0956C26.3118 11.0157 26.0305 11.0465 25.7935 11.0463L21.8491 11.047ZM22.1137 15.0504C22.0522 15.3151 22.0366 15.5875 21.9873 15.8583L21.6623 17.8332C21.6201 18.1389 21.6477 18.4818 21.5611 18.7737L17.9017 38.0941C18.1513 38.476 18.454 38.8163 18.7445 39.1668L21.1365 41.9098C22.0369 42.8659 22.9974 43.7442 24.0121 44.5768L24.8993 43.7634C26.3036 42.5062 27.5192 41.0245 28.7284 39.583C29.1031 39.1363 29.5336 38.7121 29.8669 38.2341L28.208 29.5171L27.42 26.18L27.0312 24.0228L26.2519 18.9715C26.1643 18.4379 26.1551 18.1967 26.1363 17.641L26.0688 16.6661C26.0274 16.1342 25.9168 15.6033 25.8923 15.0695L22.1137 15.0504ZM28.2293 18.054C28.0771 18.0781 27.96 18.1018 27.8236 18.1771L27.9851 19.4769C28.0083 19.6006 28.0097 19.7283 28.0314 19.8519L28.2586 21.2347C28.3356 21.6914 28.3393 22.1756 28.4473 22.6255L31.1614 36.5787C31.262 36.4645 31.3391 36.3096 31.4235 36.1817L32.2039 35.1261C32.3328 34.9443 32.2666 34.221 32.2247 34.0198L32.1909 33.8847C32.1307 33.651 32.1 33.3963 32.0474 33.1584L29.5543 20.0276C29.4368 19.3608 29.4103 18.2149 28.5579 18.0694L28.5185 18.0623C28.4194 18.0456 28.3291 18.0465 28.2293 18.054ZM19.4285 18.0745C18.5355 18.2715 18.5594 18.9237 18.4387 19.6409L16.0014 32.6651C15.95 33.008 15.8978 33.3819 15.7939 33.7127C15.6984 34.0166 15.4616 34.373 15.5379 34.6995L15.545 34.7315C15.5996 34.9564 15.7613 35.1581 15.8816 35.3512L16.4069 36.1987L16.6445 36.5231L20.0543 18.1443C19.8358 18.0685 19.6583 18.0538 19.4285 18.0745Z" fill="black"/>
<path d="M25.3303 6.69123L21.2962 6.69522C20.8041 6.69705 20.1827 6.68613 20.1563 5.98394C20.1235 5.10948 20.8688 5.12542 21.4526 5.12378L22.8143 5.12205L25.7208 5.12097C26.0073 5.12097 27.1289 5.06706 27.3347 5.17431L27.3595 5.18786C28.0395 5.53666 28.087 6.18053 27.4615 6.60677C27.2418 6.75644 26.8852 6.69095 26.6328 6.69128L25.3303 6.69123Z" fill="black"/>
</svg>
