<svg width="48" height="48" viewBox="0 0 48 48" fill="none" xmlns="http://www.w3.org/2000/svg">
<path d="M25.0024 45.1384C24.7984 45.264 24.5854 45.4009 24.3578 45.4793L24.3276 45.4894C24.1001 45.5708 23.8393 45.5916 23.6134 45.4919L23.5774 45.4754C23.1553 45.2871 22.7708 45.0056 22.394 44.7416L20.8148 43.5919C19.5922 42.6583 16.9694 40.212 16.7971 38.8375L16.7927 38.8005C16.6968 38.0448 16.9734 37.2724 17.1137 36.538L20.5589 17.555C20.6002 17.2266 20.67 17.1582 20.4933 16.8679L20.1491 16.2936C20.0244 16.0736 19.9028 15.8429 19.812 15.6067L19.8038 15.5849C19.4373 16.1711 18.8735 16.5533 18.1887 16.6396L18.0145 16.6583C16.4237 16.7431 14.6772 14.1197 14.2202 12.8705C13.7726 11.6469 13.6811 10.1879 13.7987 8.90275C13.9041 7.75103 14.1795 5.81054 14.9305 5.00157C16.674 3.12351 20.2789 2.63849 22.7959 2.54465L24.6082 2.53223C25.6202 2.53394 26.5925 2.60702 27.5972 2.75005L28.8727 2.98971C30.6006 3.35779 32.9972 4.13615 33.6691 5.9492L33.7502 6.17551C33.8589 6.47195 33.8961 6.81212 33.9467 7.12403L34.0899 8.04521C34.148 8.56656 34.1934 9.0759 34.1947 9.60147L34.1879 10.7259C34.0897 12.5097 33.3706 14.0768 32.1649 15.3952C30.9344 16.7406 29.4308 17.273 28.1913 15.6266L27.1142 17.283L27.3338 18.78C27.4171 19.2881 27.482 19.7995 27.5625 20.3083L29.5391 32.0112L30.4097 35.7902C30.4375 35.8935 30.4475 36.0019 30.4847 36.1023L30.6391 36.6535C30.6479 36.6966 30.6545 36.7347 30.6695 36.7764L30.9215 37.6205C30.9753 37.8458 31.0673 38.0638 31.112 38.2884L31.1255 38.3552C31.3963 39.2521 30.8716 39.869 30.3383 40.5004C28.7963 42.3261 27.0064 43.8475 25.0024 45.1384ZM22.7925 4.0116C21.4079 4.06275 15.216 4.72089 15.7334 6.81732L15.7398 6.84446C15.8871 7.42782 16.5968 8.02764 17.0508 8.36162C17.1537 8.35435 17.2627 8.2764 17.3611 8.24036C18.3181 7.89039 19.6306 7.74512 20.6663 7.70003L25.2065 7.69178L27.2436 7.70261C27.5013 7.71414 27.7522 7.75197 28.0081 7.77676L29.196 7.90614C29.5364 7.95859 29.8991 8.02 30.23 8.11712C30.5574 8.21321 30.7627 8.43287 31.0073 8.25897C32.4378 7.24206 32.8995 6.18878 31.0134 5.22198C28.5818 3.97554 25.4474 4.00545 22.7925 4.0116ZM15.1787 8.60345C14.9973 11.1058 15.2695 13.1275 17.2945 14.8569C17.4376 14.9791 17.5765 15.1065 17.7514 15.1819L17.8598 15.2175C17.9559 15.2437 18.1058 15.2136 18.191 15.1631L18.2487 15.1281C18.5026 14.9707 18.7909 14.5867 18.8508 14.2937L18.8967 13.9483C19.0411 13.0644 19.5191 12.7619 20.1462 12.1812C19.9904 12.0558 19.819 11.954 19.6537 11.8419L18.7436 11.2328C17.4963 10.4122 16.265 9.63315 15.1787 8.60345ZM32.7822 8.60495L31.8064 9.44842C31.1657 9.95026 30.4611 10.3966 29.7879 10.855L28.6062 11.6498C28.3669 11.8143 28.1159 11.9733 27.9084 12.178L28.0043 12.2775C28.3102 12.6005 28.7513 12.8817 28.9231 13.3122L28.9349 13.3409C29.0405 13.601 29.0526 13.8691 29.0669 14.146L29.1189 14.3148C29.2104 14.667 29.6968 15.3286 30.1378 15.1986C31.1202 14.9091 32.346 12.8488 32.6155 11.9169L32.7722 11.2642C32.8294 11.0429 32.8274 10.7985 32.8293 10.5707L32.8285 9.63039C32.8271 9.32546 32.872 8.89323 32.7822 8.60495ZM21.3565 9.14893C20.4268 9.16182 19.5137 9.25576 18.5973 9.41575C19.3866 10.0316 20.7561 10.8342 21.6418 11.2665C22.244 11.0254 22.7548 11.0403 23.3981 11.0596L24.3796 11.0598C25.0637 11.0506 25.5995 10.9412 26.2533 11.222L26.3439 11.2614C26.4586 11.2657 26.4695 11.2388 26.5675 11.1759L26.9619 10.926C27.6842 10.4769 28.7182 9.95331 29.3461 9.39381L27.1875 9.15929C26.4556 9.11603 25.7061 9.14668 24.9725 9.14682L21.3565 9.14893ZM22.8635 12.473C21.868 12.711 21.2374 13.1627 20.4986 13.8116L21.2827 15.4685C21.379 15.6684 21.5913 16.1507 21.6981 16.3114L25.2373 16.3131L25.7444 16.3149C26.2393 16.3166 27.2539 14.3572 27.4976 13.8392C27.2455 13.6167 26.9521 13.3555 26.6938 13.1532C26.1775 12.7487 25.3177 12.3849 24.6612 12.5102L24.6382 12.515C23.9773 12.6481 23.4561 12.4205 22.8635 12.473ZM23.9713 17.7333L21.9609 17.7386C21.9092 17.9017 21.9021 18.0565 21.8735 18.2231L20.9071 23.6833L18.1059 38.6617C18.0388 39.0165 19.097 40.0637 19.3337 40.306L20.5368 41.4907C21.5876 42.4365 22.7205 43.2795 23.92 44.0271L23.9995 44.0602C24.2744 43.9411 24.5401 43.7367 24.7913 43.5706C26.4402 42.4804 27.9654 41.1075 29.2415 39.6004C29.4298 39.3781 29.6555 39.1431 29.7916 38.8857L28.2518 32.8037L27.6411 29.4575L25.8711 18.4428C25.8433 18.2087 25.8027 17.9795 25.7964 17.7429L23.9713 17.7333Z" fill="black"/>
</svg>
