<svg width="48" height="48" viewBox="0 0 48 48" fill="none" xmlns="http://www.w3.org/2000/svg">
<path d="M12.0761 48C11.0281 47.5809 11.1552 47.3794 11.0379 46.4243L10.6193 42.5188L10.6152 38.9333L11.0117 34.3373L11.6903 30.2451L12.6958 25.1595C12.8703 24.339 12.6756 24.709 12.589 24.1384C12.5566 23.9245 12.5752 23.6941 12.5752 23.4779L12.576 18.2027C12.5761 17.2217 12.6253 16.2324 12.474 15.2613C12.2601 13.8895 11.4253 12.7603 11.0737 11.4262C10.2069 8.13764 11.9305 6.15445 12.1766 3.10656C12.3144 1.40021 12.3007 0.479845 14.1885 0H19.2105L22.7127 0.721453C23.4502 0.899466 24.8807 0.758981 25.7104 0.652533L26.3803 0.554306C26.5942 0.52012 26.8125 0.455316 27.0238 0.40431L28.0831 0.148964C28.2422 0.107705 28.4582 0.0817889 28.5985 0H34.0928C34.7369 0.213636 35.2286 0.548639 35.5429 1.16895L35.6454 1.41562C36.0489 2.34304 35.6465 3.79893 35.9325 4.85925L36.2266 5.79295C36.3264 6.02658 36.4261 6.25847 36.5579 6.47662C37.0971 7.36969 37.4811 8.17031 37.2614 9.24609C37.1174 9.95086 36.8132 10.624 36.5624 11.2969L35.8135 13.5234C35.5698 14.3034 35.4288 15.097 35.4274 15.9155L35.4234 23.5694C35.4231 23.7617 35.4327 23.9622 35.4115 24.1534C35.353 24.6834 35.0777 24.3974 35.3799 25.1358L36.0094 27.1099C36.0169 27.1488 36.0279 27.1825 36.0404 27.2199L36.9561 31.5781C37.0014 31.748 37.0039 31.925 37.032 32.0977L37.3475 34.8683C37.3852 35.1703 37.402 35.7097 37.4177 36.0448L37.4218 42.2953L37.3563 43.5498C37.35 43.6596 37.3264 43.7661 37.3149 43.875L37.0264 46.575C36.8923 47.678 36.8523 47.4703 36.0926 48H30.0893C29.1435 47.6662 28.7541 47.5327 28.1728 46.6555C26.9424 44.7994 26.8084 42.4707 26.3543 40.3507C26.1045 39.1845 25.2097 36.2737 24.157 35.6405C23.5787 35.2926 23.3463 36.0242 23.1308 36.3819C21.7635 38.6516 21.0465 41.281 20.558 43.8633L20.3533 45.0721C20.1927 46.1716 20.0838 47.3569 18.8922 47.8303C18.7093 47.903 18.5109 47.932 18.3252 48H12.0761ZM28.8221 1.44141L26.4144 2.01698C24.7314 2.32525 23.0211 2.30803 21.3401 1.97198L19.0668 1.44472C19.0066 1.55737 19.0071 1.70335 18.983 1.82812L18.7685 2.83609C18.5454 3.7022 18.9375 4.15936 19.6196 4.63325C22.0325 6.17864 26.0966 6.25688 28.4936 4.53644C29.0854 4.11168 29.3689 3.72471 29.2814 2.96484C29.2541 2.7273 29.1094 1.40079 28.8221 1.44141ZM14.0797 1.48347C13.6036 1.78023 13.6851 2.14745 13.6328 2.63459C13.5036 3.8376 13.349 5.00269 12.9947 6.16341L12.6176 7.25644C12.2609 8.39513 12.0362 10.1233 12.495 11.278L13.6175 13.9336C13.8222 14.5877 13.9377 15.2764 13.9569 15.9609L13.9578 23.2269C13.9467 24.0994 14.1497 24.017 14.8887 24.0171L33.5613 24.0165C34.0962 24.0114 34.0195 23.5502 34.0165 23.1317L34.0127 17.5271C34.0133 16.6607 33.9557 15.7516 34.0727 14.8924C34.2573 13.5369 34.7407 12.2333 35.1846 10.9453L35.6433 9.73167C36.1513 8.37567 35.8272 8.11097 35.1631 6.90234C34.6445 5.95866 34.4275 4.83666 34.4238 3.76451L34.4207 2.69419C34.4189 2.07053 34.341 1.48931 33.6159 1.48234L31.329 1.47991C31.0516 1.47986 30.7649 1.46274 30.4891 1.48507L30.693 2.81152C30.8869 3.69769 30.3161 5.67844 29.9161 6.41452C29.4508 7.36486 28.6648 8.25155 27.8579 8.93302C26.9151 9.72914 26.6237 9.6817 26.6222 10.9476L26.6181 16.9084C26.6175 17.076 26.6317 17.2674 26.5989 17.4314C26.4786 18.0329 25.6443 18.177 25.2944 17.5781L25.2767 17.5488C25.2349 17.4775 25.2206 17.4112 25.2174 17.3289L25.2166 10.722C25.2194 8.55291 27.2632 7.94217 28.3386 6.30848C26.6448 7.12467 24.7847 7.33964 22.9241 7.19944C22.1314 7.13972 21.2815 6.93858 20.5337 6.67373L19.6118 6.29531C20.7727 7.97527 22.7798 8.54513 22.7795 10.8095L22.7802 16.5149C22.78 16.756 22.8579 17.352 22.7315 17.5506L22.6465 17.6568C22.1889 18.2175 21.4064 17.907 21.3897 17.3906L21.3802 11.1889C21.3794 9.64659 20.8081 9.59292 19.8508 8.69198C17.9355 6.88931 16.909 4.58635 17.4746 1.98901C17.5113 1.82054 17.5664 1.65504 17.5871 1.48372L14.0797 1.48347ZM33.9833 25.4648L14.0483 25.4839C13.9818 25.6904 13.9736 25.9135 13.9373 26.1265L12.6572 32.8711L12.0593 38.0625L12.0113 42.3488C12.0171 42.4729 12.0445 42.5931 12.0537 42.7164L12.4525 46.4955C12.6139 46.6183 13.1541 46.5076 13.3526 46.506H17.4358C18.0647 46.506 18.6707 46.633 18.8418 45.7969L20.0121 40.0603C20.4159 38.778 21.8056 34.9204 23.1117 34.2721C24.8665 33.4012 26.1887 35.6718 26.7477 36.9804C26.8982 37.3327 27.0811 37.6927 27.1792 38.0632L27.6931 39.8458L28.0752 41.7999C28.2958 43.0913 28.7849 46.5024 30.4442 46.506L35.6001 46.5231C35.6616 46.4489 35.6592 46.0822 35.6772 45.9609L36.0057 42.5855L36.024 36.659C36.0231 36.2958 36.0359 35.9236 36.0013 35.5621L35.7232 32.8858C35.4358 30.7971 35.001 28.7229 34.4196 26.6955L34.1576 25.8378C34.1231 25.7281 34.0906 25.5586 34.0236 25.4661L33.9833 25.4648Z" fill="black"/>
</svg>
