<svg width="48" height="48" viewBox="0 0 48 48" fill="none" xmlns="http://www.w3.org/2000/svg">
<path d="M24.4631 38.7574L24.0044 38.0655C23.9198 38.1097 23.6144 38.6868 23.5251 38.8117C20.557 42.967 12.7724 42.7642 12.7691 36.5302V28.9521C12.7706 28.7809 12.7992 28.5989 12.789 28.43C12.3764 28.6523 11.9596 28.8359 11.4866 28.8827C9.52069 29.0774 8.89308 27.9986 7.70494 26.7811L6.46669 25.5373C6.17189 25.2423 5.85282 24.9589 5.61596 24.6138C4.82827 23.466 4.8705 21.9593 5.73736 20.8685L10.885 14.8668C12.6138 12.7721 13.7434 12.1558 16.377 11.8535L16.7969 10.0065C16.8247 9.88593 16.8797 9.74099 16.8653 9.61715L16.8555 9.53947C16.6337 6.66988 20.8991 6.42627 22.8905 6.33735C23.8616 6.32657 24.854 6.29976 25.8233 6.35493L26.8823 6.46204C28.42 6.63046 31.1027 7.20365 31.0984 9.17896C31.0968 9.9029 31.1834 9.65587 31.2983 10.209L31.6324 11.6119C31.684 12.0012 31.9586 11.8914 32.3198 11.9289C33.9046 12.0938 35.3699 12.9018 36.4444 14.0639L41.6303 20.1111C41.8442 20.3656 42.084 20.5911 42.287 20.8575C43.0599 21.8724 43.1724 23.3831 42.489 24.4698C42.3001 24.77 42.0574 25.0034 41.8088 25.2519L39.7393 27.3935C39.4486 27.7038 39.1632 28.0482 38.8217 28.3041C37.7753 29.0881 36.3386 29.1063 35.2455 28.3896C35.248 28.4964 35.2473 28.6069 35.2722 28.7113L35.2888 28.7759C35.3341 28.9874 35.3187 29.2211 35.319 29.4362V36.0683C35.3188 36.3814 35.3549 36.7368 35.3043 37.0434C34.992 38.9367 33.9796 40.7492 32.0386 41.3438C31.7106 41.4443 31.3869 41.4917 31.053 41.5598L30.7327 41.6011C28.2071 41.7023 25.9875 40.9079 24.4631 38.7574ZM24.0008 7.85999L21.732 8.03502C20.755 8.13505 19.5102 8.20944 18.673 8.78249L18.6441 8.80194C18.4853 8.91201 18.4088 9.09787 18.3529 9.27608C18.8445 10.3117 20.919 10.8861 21.937 11.0626L23.0218 11.2217C23.3223 11.274 23.6503 11.2527 23.955 11.2518C25.4585 11.2537 27.1244 11.029 28.4602 10.3093C31.288 8.78554 27.9485 8.11232 26.6011 7.97605L25.8512 7.92646C25.6929 7.91282 25.5435 7.87321 25.3823 7.86618L24.0008 7.85999ZM18.0434 11.1684L17.9191 11.9304C19.9175 13.0846 20.5046 14.3419 23.1489 14.6371L23.2283 12.7295C21.9576 12.675 20.7097 12.3982 19.5323 11.9176L18.8717 11.6137C18.7294 11.5401 18.1356 11.1629 18.0434 11.1684ZM29.9357 11.1684C28.5345 12.1871 26.5227 12.7202 24.7807 12.7312C24.7081 13.199 24.7276 14.2649 24.7733 14.7309C24.8232 14.7541 24.8648 14.7422 24.9174 14.7352C27.3046 14.2577 28.1608 13.1335 30.1002 11.9652C30.1213 11.9148 30.0897 11.828 30.0793 11.7738L29.9357 11.1684ZM16.3105 13.4579C14.9655 13.5619 13.5173 14.1381 12.6224 15.1795L7.64944 21.0356C6.01388 22.902 6.28955 23.2005 7.84041 24.7525L9.04182 25.9778C9.9098 26.8778 10.5525 27.9094 12 27.1229C12.468 26.8685 12.7696 26.4513 12.9167 25.9457L13.6988 22.3544C13.7922 21.9571 13.8254 21.3698 14.1929 21.1267C14.6785 20.8056 15.3142 21.1533 15.3248 21.7387C15.3273 21.8714 15.2967 21.9931 15.2766 22.1226L14.7101 24.9813C14.5733 25.6962 14.6071 25.4716 15.3803 25.456L23.2286 25.4547L23.231 16.1771C21.5193 15.9225 20.4504 15.6616 18.9661 14.5951C18.3351 14.1417 17.8019 13.4578 17.0513 13.4533L16.3105 13.4579ZM30.4551 13.5728C28.7426 14.8389 27.0913 15.9707 24.9309 16.2168C24.8773 16.2229 24.7706 16.2112 24.7563 16.2696L24.7565 25.448C24.8556 25.4989 25.0988 25.4615 25.2183 25.4593L33.3396 25.4611L32.8003 22.6156C32.7524 22.3438 32.6645 22.0154 32.6746 21.7387C32.7026 20.9732 33.7738 20.6544 34.1031 21.5812C34.1793 21.7956 34.4908 23.2219 34.5065 23.4616C34.5552 23.6016 34.5683 23.7401 34.605 23.8803L34.8587 24.9891C34.9577 25.4654 35.0413 25.9962 35.3066 26.4161C35.895 27.3474 37.2128 27.7402 38.0762 26.944C38.4921 26.5605 38.8498 26.0973 39.2456 25.6901L40.3878 24.5217C40.6038 24.3032 40.839 24.0926 41.039 23.86C41.7892 22.987 41.414 22.305 40.7635 21.5377L36.3399 16.335C34.8843 14.548 34.2732 13.8528 31.9331 13.6288C31.4423 13.5819 30.9484 13.5482 30.4551 13.5728ZM14.5409 26.981L14.4159 28.7042L18.6114 28.7052C19.3296 28.706 19.9665 28.9213 20.2517 29.6723L20.2635 29.7025C20.6691 30.7585 20.0257 31.9003 19.1384 32.4797C18.7617 32.7257 18.3036 32.8959 17.8823 33.0489L14.6423 34.3308C14.5217 34.3754 14.407 34.3884 14.2977 34.4616L14.2965 35.9764C14.2959 37.4558 14.3828 38.7813 15.9006 39.6149C16.3118 39.8407 16.6915 39.9287 17.1503 40.0015C17.9619 40.1586 19.2623 39.9487 20.002 39.6681C21.7389 39.0092 23.0098 37.3645 23.2137 35.5199C23.2642 35.0639 23.2269 34.5696 23.2271 34.109L23.2299 28.4331C23.2297 27.9631 23.267 27.4509 23.2074 26.9856L14.5409 26.981ZM24.7758 26.985C24.7244 27.5622 24.7514 28.1533 24.7516 28.7292L24.7528 34.847C24.7541 35.466 24.8491 36.1268 25.0825 36.7035L25.29 37.1652C26.2989 39.4671 29.3499 40.5974 31.6931 39.7971C33.2517 39.2648 33.7571 37.6336 33.7597 36.1477L33.7576 34.566C33.6536 34.4605 33.4958 34.4436 33.3654 34.3803L30.1088 33.0795C29.1679 32.6893 28.2433 32.3636 27.8008 31.3481C27.3708 30.3613 27.6338 29.0612 28.7776 28.7327C28.9569 28.6813 29.1645 28.7029 29.35 28.703L33.7339 28.7063L33.6119 27.9529C33.5835 27.7826 33.6203 27.0878 33.5637 26.9939L24.7758 26.985ZM29.1597 30.2316L29.0914 30.2391C29.0773 30.3178 29.0766 30.3571 29.0972 30.4356L29.1101 30.4988C29.2037 30.9485 29.5502 31.1865 29.947 31.3645L33.7638 32.8825L33.7628 30.2539L29.1597 30.2316ZM14.2958 30.2477L14.2799 32.4607C14.277 32.5802 14.2653 32.6955 14.3078 32.8096L17.6426 31.5159L17.9271 31.3958C18.0963 31.3195 18.2598 31.2373 18.4097 31.127L18.4403 31.1048C18.6925 30.9135 18.8497 30.5767 18.9008 30.273C18.8206 30.2098 14.837 30.2481 14.2958 30.2477Z" fill="black"/>
</svg>
