<svg width="48" height="48" viewBox="0 0 48 48" fill="none" xmlns="http://www.w3.org/2000/svg">
<path d="M25.8344 40.5509L16.395 40.5492C16.0989 40.5365 15.7835 40.4693 15.4997 40.3873L14.5895 40.0907C14.3981 40.0376 14.403 40.0364 14.2192 40.1096L13.5564 40.3689C12.8109 40.6197 11.9557 40.8366 11.1625 40.8713L10.1465 40.8855C9.52407 40.8792 8.79362 40.8477 8.31638 40.3869C7.80915 39.8972 7.88063 39.3877 7.89357 38.7495C7.92549 37.1733 7.64917 36.833 7.24792 35.3457C7.12548 34.892 7.11113 34.4052 7.01696 33.9448L6.64337 32.1048C6.47143 31.3208 6.26204 30.5248 6.23631 29.7184C6.1802 27.9577 6.62045 26.3615 7.01209 24.6601L8.34399 19.2726C9.18423 16.5153 11.3049 13.8604 14.0986 12.8999C14.4235 12.7882 14.7799 12.6858 15.1232 12.6622C15.2886 12.6507 15.3058 12.7002 15.3657 12.5524L15.8677 11.5074C17.4579 8.42513 18.9992 7.34911 22.3141 7.11084L23.3299 7.03814L24.9301 7.03125C28.3395 7.04217 30.3589 8.00414 32.2867 10.9809C32.5631 11.4077 32.8956 11.9135 33.0648 12.3987L33.0859 12.4649C33.2114 12.7892 33.4925 12.6435 33.7865 12.6919C36.3054 13.1066 38.4104 15.1022 39.6178 17.2664C39.7339 17.4744 39.863 17.7001 39.9494 17.922L40.3294 18.9893C40.5389 19.5105 40.6121 20.1067 40.7957 20.6421L41.4553 22.8835C41.4959 22.9887 41.5077 23.1007 41.5455 23.2054L41.7369 23.8563C41.8134 24.0519 41.8464 24.2779 41.9073 24.4801L42.0944 25.1481C42.7014 27.123 42.8557 27.6665 42.8464 29.782L42.8307 30.6145C42.8087 31.1666 42.7057 31.7315 42.6298 32.2798L42.2349 34.5348C41.9724 35.8098 41.5175 37.0105 41.531 38.3316C41.5353 38.7588 41.6515 39.1691 41.5463 39.5961C41.288 40.6437 40.5135 40.8788 39.5831 40.8825C38.6549 40.8861 37.7243 40.8157 36.8207 40.5904L35.1428 40.1677C34.6647 40.0567 34.6442 40.0292 34.1768 40.2039C32.9192 40.6737 31.6229 40.5515 30.308 40.5512L25.8344 40.5509ZM22.4476 8.51058C19.6833 8.65266 18.5041 9.48445 17.1881 11.9612C16.0969 14.0151 15.8542 15.1192 16.7373 17.3318C17.6439 19.6032 20.2351 23.1508 22.2954 24.1975L21.0598 21.7758L18.6553 16.6675C17.759 14.6385 17.8465 11.4545 20.105 10.3561C20.561 10.1343 21.1751 10.0035 21.6882 9.96628L23.3338 9.89241L25.3598 9.94205C25.6867 9.95531 26.0198 9.93806 26.3447 9.97758C27.9489 10.2783 29.2944 10.5359 30.0744 12.2574L30.2186 12.6024C31.2819 15.5757 29.8827 18.5346 28.4771 21.1402L26.5113 24.4619C28.6581 23.6961 30.4799 21.35 31.4115 19.3824C32.4927 17.0989 32.8784 15.3439 31.8336 12.9939C31.2588 11.7012 30.0761 10.0254 28.8871 9.30291C27.4897 8.45358 25.9649 8.50636 24.4023 8.50697L22.4476 8.51058ZM23.2167 11.3002C22.5077 11.3145 21.3898 11.3561 20.7257 11.6129C19.4484 12.1069 19.2305 14.4375 19.718 15.5894L21.2855 19.1012L24.3792 25.1399L24.8369 24.4562C26.3748 22.1311 28.6526 18.5951 29.1503 15.8317C29.3754 14.5812 29.2009 12.6707 28.0381 11.9094C26.8649 11.1412 24.5987 11.2984 23.2167 11.3002ZM33.6809 14.0738L33.6808 14.0983C33.681 14.1606 33.6847 14.2144 33.6982 14.2749C34.0917 16.038 33.5951 17.8607 32.886 19.4766C31.617 22.3684 29.2396 25.3783 26.0297 26.0718L25.5338 26.1607L25.4621 26.8374C25.3238 27.5572 25.0914 28.4677 24.6038 29.0469C24.4477 29.2324 24.5969 29.2363 24.7479 29.3785L27.8702 32.3744C28.0613 32.5552 28.3271 32.7502 28.4598 32.9741L28.4832 33.0129C28.55 33.1351 28.549 33.2678 28.5156 33.3979L28.5079 33.4284C28.4511 33.6337 28.2857 33.7784 28.1099 33.8817L34.3939 33.8864L34.4235 31.6006C34.4267 29.1713 34.3219 28.5015 33.4115 26.1145C33.2818 25.7939 33.0759 25.3395 33.2237 24.9995C33.377 24.6468 33.787 24.4797 34.1337 24.6475C34.4352 24.7935 34.6109 25.3169 34.7157 25.6168L34.9944 26.3713C35.3242 27.1849 35.7557 28.8399 35.7938 29.7592L35.7366 34.2436C36.6965 34.527 38.2441 34.6646 39.295 34.6961C39.7806 34.7107 40.2754 34.6759 40.7583 34.7302C40.8986 34.5503 41.4152 31.1589 41.445 30.8518C41.5863 29.3919 41.4841 27.9064 41.0794 26.4961L39.2827 20.2868C39.0956 19.6225 38.9315 18.9251 38.6344 18.3C37.7109 16.3564 36.2462 14.8694 34.1489 14.2023C34.0147 14.1596 33.8329 14.0745 33.6951 14.071L33.6809 14.0738ZM14.7955 14.1207C12.8316 14.7418 11.2392 16.3104 10.301 18.1165C9.66727 19.3366 9.3841 20.6922 9.06788 22.0192L8.49652 24.3367C7.78088 27.4062 7.25293 28.6622 7.9809 31.8687L8.30776 33.4721C8.38117 33.9112 8.47098 34.3422 8.54251 34.7807C9.31135 34.7651 12.8281 34.5819 13.4522 34.191C13.4106 33.9034 13.4168 33.6142 13.4164 33.3243L13.4156 32.226C13.4145 30.9094 13.3302 29.5315 13.5546 28.2267L14.0313 25.988C14.1257 25.6267 14.2271 24.9492 14.5538 24.7217C14.8566 24.5109 15.2845 24.5875 15.4698 24.9137L15.5316 25.0467C15.6758 25.3896 15.432 25.9313 15.3707 26.2797C14.8651 28.1647 14.7054 29.3709 14.7025 31.2679L14.6971 33.8651L19.0064 33.8281C18.9182 33.7746 18.8801 33.7177 18.8252 33.6324L18.7991 33.5926C18.3361 32.882 19.4738 32.2149 19.9812 31.7294L22.7592 29.0234C23.6311 28.1685 24.0296 27.4012 24.184 26.1622C22.1345 25.8818 20.8731 25.1716 19.382 23.6865C17.4311 21.7433 14.4491 17.3952 14.8389 14.4957L14.9101 14.1207C14.8556 14.0936 14.8519 14.1064 14.7955 14.1207ZM23.5622 30.159L20.5422 33.1314C20.2889 33.3944 20.0013 33.7252 19.6717 33.8899L23.6137 33.8668L27.1323 33.869C27.2244 33.8691 27.3434 33.8853 27.4302 33.8599L27.4103 33.8487C27.282 33.7722 27.2019 33.6525 27.0945 33.5518L23.5622 30.159ZM14.5839 35.2523L14.5009 36.907C14.4766 37.2563 14.3574 37.6648 14.4863 38.0035L14.4976 38.0361C14.9874 39.4067 17.1386 39.1633 18.2596 39.1634L30.9105 39.1657C31.8614 39.1694 32.9589 39.2657 33.8291 38.7877C34.2497 38.5248 34.3329 38.2385 34.3327 37.7867L34.3309 35.8783C34.3307 35.6787 34.3505 35.4535 34.3198 35.2576L14.5839 35.2523ZM35.6938 35.6363L35.6994 37.0606C35.6999 37.6952 35.706 38.2822 35.5126 38.8948C36.0952 38.9535 36.6566 39.1377 37.225 39.2718C37.8663 39.423 39.5685 39.6342 40.2337 39.4258C40.2167 38.6757 40.1586 37.9282 40.2326 37.1786C40.268 36.8198 40.3744 36.4707 40.4206 36.1145C40.2331 36.0792 40.0349 36.0826 39.8445 36.0772L38.7407 36.0657C37.7897 36.0554 36.7334 35.9596 35.8244 35.6728C35.7889 35.6616 35.7294 35.6331 35.6938 35.6363ZM13.178 35.7301L13.1545 35.7366C12.5236 35.9074 11.8419 35.9476 11.1936 36.0098L8.95042 36.1557L9.13262 36.9172C9.25571 37.3934 9.25642 37.9035 9.25684 38.3918C9.25702 38.5842 9.19459 39.2443 9.24048 39.3686L9.29982 39.4062C9.81971 39.557 10.6929 39.5221 11.2275 39.4346L11.8246 39.3607C12.3611 39.2706 12.8934 39.1387 13.4067 38.9583C13.1348 38.3635 13.0528 37.8584 13.0834 37.213L13.1626 36.152C13.1701 36.0549 13.2219 35.8161 13.178 35.7301Z" fill="black"/>
</svg>
