<svg width="48" height="48" viewBox="0 0 48 48" fill="none" xmlns="http://www.w3.org/2000/svg">
<g clip-path="url(#clip0_1_229)">
<path d="M23.9918 0C24.2022 0.081518 24.502 0.062933 24.7313 0.107415C27.7891 0.700523 29.6349 3.96548 30.6782 6.60938C30.9625 7.32998 31.2555 8.12625 31.389 8.89453L31.6408 10.125C31.8156 11.2105 31.8115 12.9751 31.6066 14.05C31.735 14.1457 31.8828 14.2031 32.0268 14.2711L34.2104 15.2718C36.2349 16.1508 36.2814 16.209 37.8103 17.8834L38.9463 19.0678L42.6236 22.7159L43.445 23.6198C43.8725 24.0757 44.7789 24.7785 44.898 25.417L44.9071 25.4648C45.4884 27.4099 40.9657 30.5592 39.5547 31.3133C37.2059 32.5685 36.8333 31.5839 35.6648 29.7963C35.3302 29.2844 34.4737 28.2903 35.425 27.8255L35.454 27.8119C35.6099 27.7373 35.7073 27.7606 35.8701 27.7448C36.3465 27.6983 39.0674 25.2551 39.4473 24.8726L40.8686 23.2987C40.8302 23.1854 40.5845 22.9938 40.4899 22.8992L37.2773 19.5825L36.2964 18.472C35.2514 17.2797 34.833 17.2704 33.4223 16.6448L30.5932 15.318C29.8674 14.9654 29.8969 14.8235 30.0021 14.1202L30.1765 12.9278C30.6169 9.2452 27.9137 1.50833 23.7752 1.68757C19.9826 1.85183 17.729 9.11822 17.7303 12.0949C17.7305 12.7431 17.814 13.3763 17.9014 14.0164C17.955 14.4095 18.1844 14.8161 17.8051 15.1149C17.5216 15.3381 17.0956 15.4873 16.7684 15.6465L14.7427 16.5953C14.1589 16.8537 13.5458 17.0907 12.9853 17.3951C12.0886 17.8819 11.4135 18.8415 10.7332 19.5758L8.85613 21.5508C8.27001 22.1737 7.7256 22.7999 7.0799 23.367C7.79456 24.2019 9.14629 25.5271 10.0311 26.2541L11.3892 27.3187C11.4894 27.4005 11.6357 27.4883 11.7192 27.5836C12.0618 27.9747 12.6832 27.4718 12.9558 28.1784L12.9791 28.2371C13.0426 28.3928 13.0177 28.6498 12.9521 28.7996L12.9158 28.8875C12.8372 29.0691 12.6897 29.241 12.5757 29.4023L11.7546 30.5612C11.4268 31.0387 11.2189 31.5555 10.6465 31.7904L10.6059 31.8068C9.66895 32.1886 8.39165 31.3774 7.63959 30.8962C6.22335 29.9899 2.52398 27.2044 3.06058 25.4725L3.14314 25.2422C3.28332 24.927 3.56817 24.6825 3.79624 24.4304L11.065 16.86C12.2372 15.7371 12.824 15.7118 14.2591 15.0892C15.0192 14.7595 15.7461 14.3606 16.5204 14.0618C16.2399 13.3973 16.257 11.5431 16.3193 10.8494C16.6453 7.21997 18.8094 1.26458 22.7527 0.202132C23.1059 0.10696 23.474 0.101935 23.8219 0H23.9918ZM42.0161 24.3887L40.814 25.7574C40.2119 26.3923 39.5447 26.9903 38.8721 27.5494L37 28.9783C37.2203 29.4369 37.577 29.9409 37.9124 30.3263L38.28 30.1814C39.6797 29.6027 42.7282 27.3199 43.4535 25.8522L42.0161 24.3887ZM6.1191 24.6491C5.79464 24.9158 4.88737 25.7839 4.61684 26.127C5.81779 27.5996 7.2651 28.8977 8.92767 29.831L9.45276 30.1114C9.50868 30.139 9.58204 30.1868 9.64157 30.2022L9.98854 30.3559L10.9992 28.8972C9.92653 28.4604 7.87031 26.406 7.04582 25.592C6.73476 25.2849 6.44624 24.947 6.12332 24.6538L6.1191 24.6491Z" fill="black"/>
<path d="M24.1237 9.68474C23.1129 9.68066 21.7933 9.61457 21.1757 10.601C20.7388 11.2989 20.6988 12.1899 20.8585 12.9845L20.9916 13.7105C21.0937 14.1724 21.3167 15.2347 21.4854 15.6631C21.5734 15.8868 21.5953 16.1222 21.6706 16.3454L21.8269 16.9188C21.8355 16.9638 21.8427 17.0025 21.8576 17.046L21.9264 17.2903C21.9515 17.4296 21.9996 17.5915 22.0453 17.7244L22.2043 18.2745C22.2333 18.4074 22.2829 18.5467 22.3269 18.6753L22.5811 19.5637C22.7424 20.447 22.8941 20.9952 22.9186 21.9611L22.9236 23.7693C22.9236 24.0962 22.9615 24.474 22.9165 24.7958C22.8601 25.2003 22.4537 25.5422 22.0372 25.4668L22.0075 25.4608C21.4243 25.3496 21.3239 24.8048 21.3228 24.3118L21.3247 22.1849C21.3318 21.9942 21.3722 21.7987 21.3709 21.6095C21.364 20.6161 20.7548 18.8537 20.4699 17.8892L19.5789 14.5331C19.183 12.8224 18.8497 10.9563 20.0509 9.4603C20.7344 8.60915 21.7546 8.21221 22.8129 8.09502C23.234 8.0218 24.6975 8.05185 25.1168 8.08527C26.6589 8.20823 28.0783 9.07696 28.594 10.5822C29.0557 11.9298 28.6656 13.4772 28.338 14.8126L27.3698 18.5275C26.9665 19.9764 26.6011 21.397 26.6273 22.9191C26.6319 23.1905 26.6887 23.4509 26.6933 23.7221C26.7044 24.3796 25.7677 24.5544 25.3569 24.1337C25.0272 23.7961 25.0744 23.2513 25.0743 22.813C25.0737 20.8966 25.4163 19.6182 25.9333 17.7636L26.8074 14.4578C27.4925 11.4689 27.7127 9.66983 24.1237 9.68474Z" fill="black"/>
<path d="M17.493 48.0003L17.4601 47.9919C17.0565 47.8883 16.6008 47.8883 16.1846 47.8367C14.292 47.6 10.0409 46.9962 10.7387 44.1703L10.753 44.1193C10.7856 43.9941 10.796 43.858 10.8188 43.7302L11.428 40.6936L12.6285 32.8839C12.7414 32.1375 12.7777 30.8862 13.8456 30.8436L33.4569 30.8383C34.0039 30.8368 34.6012 30.8175 34.9297 31.3544L35.0756 31.6568C35.138 31.8078 35.1462 31.9616 35.1683 32.121L36.1089 39.6008L36.3716 41.0851C36.43 41.3636 36.5183 41.6404 36.5704 41.9227L36.7587 42.6842C36.8225 43.0344 36.9102 43.3909 37.0381 43.7239C37.2735 44.3371 37.7073 44.8102 37.2257 45.5506C36.5526 46.5856 33.2061 47.6342 32.0913 47.8386C31.81 47.8906 31.5091 47.9215 31.2354 48.0003H17.493ZM14.2909 32.4212L12.74 41.981C13.6827 42.6661 15.9099 43.2238 17.0219 43.3974L17.8123 43.5018C18.2209 43.5394 18.6217 43.605 19.0315 43.6122L27.2749 43.6172C29.2468 43.6168 30.925 43.6472 32.8306 42.9543C33.5792 42.7289 34.2297 42.3261 34.9446 42.0319C34.7233 41.26 34.6758 40.4958 34.5807 39.7043L33.868 33.0823C33.8456 32.8658 33.8409 32.6459 33.7984 32.4318L14.2909 32.4212ZM12.4072 43.5823C12.2395 44.2869 12.0102 44.7631 12.5746 45.216C13.2832 45.7846 14.5688 46.0803 15.4585 46.2171L17.7745 46.4737C17.9298 46.4905 18.0661 46.5388 18.2153 46.5633C19.115 46.7112 20.06 46.6335 20.9672 46.6333L27.7577 46.6346C28.3673 46.635 28.9807 46.6511 29.5889 46.6051L31.9221 46.2451C33.3462 45.954 34.2871 45.6097 35.5515 44.9554L35.8509 44.8076L35.5702 44.1619C35.508 44 35.4591 43.751 35.3633 43.612L35.3408 43.6255C35.1226 43.7541 34.8736 43.8466 34.6415 43.9474C32.1241 45.0413 30.3879 45.26 27.6919 45.2605L19.5475 45.2563C17.1586 45.1614 14.5717 44.6996 12.453 43.5935C12.4276 43.5803 12.4376 43.5841 12.4072 43.5823Z" fill="black"/>
</g>
<defs>
<clipPath id="clip0_1_229">
<rect width="48" height="48" fill="white"/>
</clipPath>
</defs>
</svg>
