<svg width="48" height="48" viewBox="0 0 48 48" fill="none" xmlns="http://www.w3.org/2000/svg">
<path d="M36.0405 43.6303C34.6237 44.0769 34.0452 43.8108 32.7342 43.3234C31.0692 42.7044 29.4803 42.8935 28.0475 44.0149C27.7775 44.2262 27.5403 44.4762 27.2711 44.6888C25.6262 45.9876 22.9292 46.0103 21.1589 44.9486C20.7104 44.6796 20.407 44.3263 20.0306 43.9767C18.887 42.9146 17.1882 42.7763 15.7498 43.2204C14.6238 43.5681 14.073 43.9823 12.8436 43.8528L12.7166 43.8372C12.0648 43.7327 11.4116 43.4374 10.8533 43.092C8.7928 41.817 10.0669 40.6176 10.5073 39.0714C10.6612 38.5313 10.6819 37.9675 10.7791 37.4175C10.813 37.2257 10.9052 37.0551 10.9418 36.8592L11.3693 34.5815C11.951 31.8822 12.8303 29.172 14.0771 26.7033L15.2167 24.646C16.0549 23.2701 16.5544 22.4989 17.0015 20.8755C17.2468 19.9849 17.1494 19.3715 16.9979 18.4754C16.712 16.784 16.2206 14.1151 14.9364 12.8784C14.7154 12.6656 14.4605 12.4906 14.2371 12.2808C12.9416 11.0637 12.9919 9.84162 12.8257 8.21923C12.6402 6.40747 12.227 4.50962 14.0974 3.35632C14.7421 2.95878 16.8564 2.37629 17.7135 2.2095C17.9595 2.18532 18.1701 2.34159 18.2957 2.54396L18.3162 2.57793C18.4025 2.71482 18.3854 2.86865 18.3853 3.02485L18.3836 5.80484C18.3834 6.14792 18.3504 6.53206 18.3987 6.8697L18.4109 6.95525C18.5665 7.91487 19.229 8.26695 20.0272 8.6L20.7039 8.9179C22.1447 9.66823 22.9597 10.5301 23.9843 11.7061C24.975 10.5479 25.7881 9.80009 27.199 9.09134C29.2235 8.07439 29.5947 8.16982 29.5973 5.54614L29.601 3.14771C29.6017 3.01742 29.5949 2.85585 29.6397 2.73223L29.6497 2.70654C29.7567 2.41683 30.0306 2.1887 30.3556 2.24078L30.4187 2.25097C30.514 2.26581 30.5978 2.30214 30.6908 2.32491L31.4997 2.51492C32.9569 2.84833 34.4598 3.03807 35.0627 4.60498L35.1665 4.91422C35.3706 5.47104 35.3322 6.08572 35.2616 6.66143L35.061 8.94968C34.9657 10.4089 34.8281 11.3828 33.608 12.4501C32.488 13.4299 32.0277 13.8578 31.6047 15.433L31.3082 16.4757C31.1326 17.2228 31.0174 17.9859 30.9032 18.7444C30.7447 19.7974 30.7376 19.7865 30.9251 20.7822C31.1258 21.8481 31.6263 22.8741 32.1545 23.812L34.0392 27.1803C34.2033 27.5025 34.3839 27.8445 34.5111 28.183L35.5317 30.855C35.7611 31.5441 35.978 32.2761 36.1393 32.9832L36.8972 36.6532C37.0298 37.6659 36.9797 37.6448 37.3586 38.6011L38.2676 41.0891C38.7036 42.4014 37.055 43.3147 36.0405 43.6303ZM30.8093 3.60291L30.7927 5.69379C30.7902 8.50461 30.2857 8.94504 27.9888 10.0981C26.572 10.8094 25.4837 11.6719 24.6555 13.019C24.2934 13.6082 23.8399 14.0854 23.4044 13.2035C22.7207 11.8189 21.4144 10.6775 20.0433 9.98407C18.5429 9.22517 17.7318 8.99511 17.2221 7.31557C17.1381 7.03854 17.1773 6.6942 17.1771 6.40484L17.1762 4.58384C17.1762 4.27716 17.2008 3.95049 17.164 3.6477L16.1278 3.92346C15.6106 4.06487 15.0886 4.16928 14.6366 4.47301L14.6063 4.49301C14.2462 4.73637 13.9391 5.18286 13.8663 5.61382L13.8439 5.78131C13.7905 6.16114 13.8758 6.54997 13.924 6.92529L14.2017 9.48523C14.2816 10.0831 14.3826 10.52 14.7557 11.0112L15.1387 11.4261C16.6544 12.6589 17.1113 13.9835 17.6615 15.751L17.7563 16.0987C18.0089 16.9095 18.2725 18.5216 18.3632 19.3899L29.5695 19.3795C29.8401 17.2079 30.4484 13.6481 32.0755 12.1282C32.527 11.7064 33.0323 11.3706 33.3609 10.8314C33.9396 9.88175 33.8647 8.65601 33.9725 7.58928L34.0688 6.65548C34.2511 5.15004 33.9382 4.36358 32.4144 4.00469L31.3395 3.75258C31.1643 3.7083 30.9768 3.66988 30.8093 3.60291ZM18.3198 20.6286C17.8775 22.7069 17.1929 23.7111 16.0957 25.4746C14.846 27.483 13.8012 30.0127 13.1893 32.3198L12.844 33.5151L12.1967 36.8678C12.8485 37.5848 15.0464 38.0121 15.9723 38.0532C16.655 38.0834 17.0532 37.5993 17.5473 37.2484C18.2165 36.7733 19.1173 36.8246 19.7619 37.3249C21.0761 38.3449 22.5324 38.6343 24.1949 38.4256L25.4764 38.231C26.1379 38.0973 26.7946 37.8842 27.4359 37.6762L28.4609 37.3376C29.3109 37.0419 30.1253 36.6756 31.0119 37.1111C31.5569 37.3788 31.9262 38.0151 32.5949 38.0239C32.9853 38.0291 33.4258 37.8473 33.8015 37.742L35.7219 37.1553L35.4256 35.2813C34.9846 32.9987 34.312 30.7374 33.341 28.6219L30.7697 23.851C30.3332 22.9983 29.7587 21.6067 29.6285 20.6303L18.3198 20.6286ZM11.9256 38.2378L11.7481 39.3276C11.7149 39.5223 11.7025 39.7014 11.6366 39.8894L11.6261 39.9199C11.4116 40.5229 11.036 40.9523 10.9266 41.6386C11.4344 42.126 12.6575 42.6927 13.3762 42.6763C13.7797 42.6671 14.1857 42.4556 14.5542 42.3047L15.4257 41.9876C17.058 41.4719 18.9002 41.7045 20.3339 42.6478C20.7822 42.9428 21.0961 43.3552 21.5097 43.6793C22.2552 44.2634 23.1613 44.4614 24.087 44.457C25.9476 44.4482 26.2408 43.7785 27.5106 42.8275C29.5848 41.2739 31.3467 41.4811 33.5713 42.2907L34.1043 42.4917C34.6417 42.703 35.1147 42.6195 35.6564 42.4204C35.9938 42.3044 37.0454 41.8441 37.1694 41.4604C37.1456 41.1806 36.8929 40.8393 36.7884 40.5744L35.9563 38.346C35.4275 38.5883 34.8506 38.7412 34.2925 38.901C33.3924 39.1586 32.6069 39.4152 31.6951 39.0692C31.1836 38.8751 30.9199 38.3716 30.369 38.2518C29.7752 38.1228 29.0628 38.4813 28.511 38.6597C27.7355 38.9105 26.9504 39.1641 26.1575 39.3536L24.0976 39.7037C22.9827 39.8857 21.0224 39.4893 20.0171 39.008C19.6072 38.8119 19.3092 38.3813 18.8744 38.2616C18.3462 38.1161 18.0336 38.4813 17.6416 38.7454C16.1568 39.7456 13.6216 39.1667 12.1887 38.3683L11.9858 38.2514C11.9538 38.2338 11.9657 38.2391 11.9256 38.2378Z" fill="black"/>
</svg>
