<svg width="48" height="48" viewBox="0 0 48 48" fill="none" xmlns="http://www.w3.org/2000/svg">
<path d="M11.3271 44.3826C10.8412 44.2801 9.70828 44.2793 9.46097 44.1215C8.94244 43.7905 9.34214 42.9593 9.44967 42.5158L11.973 32.1245C12.5508 29.9398 13.1985 27.6536 14.2774 25.6527C15.5033 23.3791 16.2382 22.6016 16.2401 19.9448C16.2413 18.1907 15.9679 16.5584 15.302 14.9184L14.5708 13.1998C14.4202 12.7956 14.3106 12.378 14.2117 11.9586L14.0095 11.9941C12.5167 12.2058 11.0693 11.0348 10.8831 9.58323L10.8792 9.55117C10.8404 9.2657 10.8495 8.97475 10.8503 8.68703C10.8561 6.59846 11.5981 3.77308 13.2744 2.36046C13.9432 1.79688 17.4356 -0.0784225 18.014 1.28177L18.0259 1.31212C18.169 1.60556 18.0705 2.02381 18.1038 2.34414C18.219 3.44915 18.7543 5.26262 19.6606 5.9904C19.7953 6.0985 20.0023 6.13928 20.1639 6.19342L20.759 6.41706C21.8579 6.87981 22.8931 7.69825 23.5972 8.66068C24.1491 9.41528 23.8545 9.56204 24.3105 8.87148C25.0596 7.73715 26.1956 6.84573 27.4514 6.33751C28.0245 6.10553 28.2903 6.1952 28.6965 5.68131C29.4722 4.70007 29.9175 3.35024 29.9446 2.09779C29.9495 1.87075 29.9089 1.49281 30.0137 1.29316L30.0675 1.1971C30.2118 0.95988 30.4218 0.819471 30.6903 0.758993C30.9815 0.754226 31.2915 0.834058 31.5743 0.899913C34.8404 1.66044 35.9072 2.75772 36.7501 5.80117C36.9465 6.51025 37.2759 8.8472 37.11 9.59096C36.759 11.1651 35.537 12.1785 33.9348 12.0202C33.382 14.181 31.6901 16.5019 31.9491 18.7889L31.9903 19.3186C32.0067 19.463 32.0426 19.6 32.046 19.7465L32.0524 20.9408C32.0549 21.1007 32.0378 21.2976 32.0774 21.4517L32.3265 22.6293C32.3851 22.9254 32.5214 23.2529 32.6394 23.5325L33.9495 26.2148L34.758 28.1751L35.5133 30.4574C35.5844 30.7836 35.7292 31.1 35.7953 31.4281L36.4526 33.8859C36.4951 34.1228 36.593 34.3571 36.6383 34.5941L37.765 39.1366C37.8037 39.3499 37.8674 39.564 37.9225 39.7738L38.5312 42.7152C38.5816 42.9902 38.6827 43.3484 38.6318 43.6238L38.6143 43.7018C38.5176 44.0173 38.1868 44.1404 37.8936 44.1857L37.3176 44.2621C34.9864 44.6817 34.092 46.2677 31.5159 46.4647C30.4231 46.5483 29.4198 46.085 28.3422 46.0385C27.2837 45.9928 26.3074 46.236 25.2653 46.3738C24.0801 46.5306 22.9482 46.3866 21.7765 46.1862C19.776 45.8441 19.4437 46.1332 17.6022 46.4053C15.497 46.7163 14.4003 46.0138 12.772 45.0247C12.3116 44.745 11.8453 44.5304 11.3271 44.3826ZM31.4146 2.5161C31.3577 2.77607 31.3461 3.04468 31.2996 3.30792C31.145 4.18283 30.8467 5.07662 30.4396 5.86684C30.9926 5.93593 31.888 6.12939 32.2625 6.59804C32.3156 6.53373 32.3212 6.42611 32.3403 6.346C32.533 5.62046 32.7492 4.93 33.0585 4.24447L33.5328 3.2887C32.8909 2.92472 32.123 2.7128 31.4146 2.5161ZM16.5529 2.54336C16.009 2.69632 15.4554 2.90066 14.9495 3.15202C14.6893 3.28133 14.4363 3.44974 14.1699 3.56078C14.7599 4.30649 15.3203 5.21453 15.6651 6.10004L15.8501 6.52332C16.402 6.13989 16.9928 5.91817 17.6573 5.82128C17.2313 4.87918 16.8803 4.34139 16.7109 3.22304C16.6766 2.99628 16.6684 2.76556 16.5882 2.54775L16.5529 2.54336ZM34.6413 4.44179C34.3298 5.08764 34.0405 5.78753 33.8319 6.47392L33.458 7.77151C33.6247 8.09467 33.757 8.44426 33.8792 8.7856L34.0609 9.56607C34.1525 9.94731 33.9799 10.519 34.4526 10.5272C36.0877 10.2578 35.642 7.93815 35.4278 6.76675C35.2788 5.95126 35.0269 5.19451 34.6748 4.44571L34.6413 4.44179ZM13.2196 4.8925C12.6179 6.1074 12.357 7.37856 12.3501 8.7302C12.349 8.94259 12.3145 9.23893 12.376 9.44261L12.4101 9.52342C12.6676 10.0701 13.0985 10.6266 13.7995 10.4762C13.8761 10.4443 13.9247 10.431 13.964 10.3715C13.966 9.44809 14.1121 8.52062 14.6642 7.75037C14.4604 6.96798 13.8256 5.56656 13.2675 4.9457L13.2196 4.8925ZM17.9375 7.37242C15.4168 7.54004 15.1904 10.6067 15.893 12.4926L16.7279 14.473L17.3962 16.8523C17.6066 18.0224 17.6958 19.2726 17.6432 20.4606C17.5331 22.951 16.9194 23.8591 15.7785 25.9538C14.3681 28.5436 13.4994 32.1862 12.8167 35.0277L11.7652 39.3751C11.9283 39.4845 12.2113 39.5326 12.4013 39.6058C14.5072 40.4176 14.9666 42.5477 17.6508 42.0157C17.9691 41.9526 18.2657 41.8181 18.5741 41.7217C20.013 41.2715 20.9508 41.7313 22.3333 41.9964C23.2406 42.1704 24.7304 42.151 25.6265 41.9831C27.0456 41.7172 27.8729 41.2008 29.4719 41.7423C30.5791 42.1173 31.6185 42.3745 32.7266 41.667C33.9045 40.915 34.0506 40.1606 35.7186 39.5639L36.2528 39.4007L34.738 33.2624L33.8788 30.2609C33.7198 29.7491 33.5658 29.2324 33.3684 28.7338L31.4193 24.5284C30.964 23.5317 30.6285 22.4299 30.5506 21.3335C30.525 20.9736 30.552 20.6112 30.5298 20.2513L30.4657 19.2543C30.3198 17.6409 30.7134 16.0986 31.3205 14.6078C32.1069 12.6767 33.1223 11.2616 32.3072 9.15395L32.025 8.50679C31.5274 7.52153 30.5621 7.27928 29.5444 7.39309C26.928 7.68582 24.7938 9.67154 24.7281 12.348L26.8244 12.3479C27.3997 12.3477 28.2113 12.1794 28.4413 12.8816L28.4505 12.9082C28.5687 13.2771 28.4138 13.5781 28.107 13.7753L28.0785 13.7941C27.9525 13.8738 27.8024 13.8567 27.6597 13.8571L27.0839 13.8581C26.3093 13.8591 25.515 13.8211 24.744 13.8724C24.6784 14.571 24.7241 15.3068 24.7244 16.0094C24.7245 16.3898 24.818 16.7854 24.4934 17.0656C24.081 17.4215 23.3866 17.2236 23.2716 16.6853C23.217 16.4295 23.2557 16.0892 23.2554 15.8254L23.2548 13.8606L21.0266 13.8582C20.5911 13.8581 20.0874 13.9872 19.7503 13.6429L19.6719 13.5427C19.6194 13.4694 19.593 13.3983 19.5665 13.3129L19.5539 13.2731C19.4441 12.9103 19.695 12.4501 20.0715 12.3658C20.3466 12.3043 20.7131 12.3462 20.9967 12.3464L23.3105 12.3687C23.1096 9.75146 21.447 7.95414 18.8957 7.45506C18.6044 7.39811 18.231 7.34387 17.9375 7.37242ZM11.4017 40.8944L11.0173 42.7443C12.78 43.1623 12.9952 43.5032 14.5155 44.3137C15.7774 44.9865 16.8134 45.0461 18.1874 44.7164C20.0387 44.272 20.9319 44.5084 22.7428 44.8065C24.0945 45.029 25.3465 44.8 26.6717 44.5557C27.6478 44.3757 28.6572 44.4474 29.6213 44.6605C30.2847 44.8072 30.8815 44.9731 31.5706 44.9139C33.4426 44.753 34.7193 43.2149 36.5188 42.8448C36.6533 42.8171 36.826 42.8023 36.9496 42.7444L36.9009 42.4771L36.6799 41.3676C36.65 41.216 36.6438 41.0506 36.5899 40.9059C35.4425 41.2241 35.1233 41.555 34.3475 42.343C33.0946 43.6155 31.2634 43.9111 29.59 43.402C27.672 42.8185 27.7445 43.1261 26.0075 43.4677C24.7126 43.7223 23.2478 43.726 21.955 43.4588C19.7349 42.9998 20.1749 42.985 17.9764 43.5271C16.3524 43.9275 14.7865 43.408 13.5948 42.2913C12.7181 41.4698 12.6828 41.3105 11.4017 40.8944Z" fill="black"/>
</svg>
