<svg width="48" height="48" viewBox="0 0 48 48" fill="none" xmlns="http://www.w3.org/2000/svg">
<path d="M17.6072 41.3298C16.3733 39.8493 16.7212 40.2796 14.8607 40.1073C13.2001 39.9535 11.7391 38.264 12.0213 36.5864C12.094 36.1541 12.2829 35.7419 12.4432 35.3366L13.1559 33.5563C15.0574 28.6624 17.172 23.5282 16.8642 18.1673C16.7682 16.4946 16.433 14.8688 16.0868 13.2334C15.7816 13.2149 15.4777 13.2594 15.1716 13.2203C14.288 13.1076 13.5754 12.3151 13.4407 11.4562C13.4191 11.3183 13.4289 11.1743 13.4134 11.0346C13.3029 10.0426 12.6538 9.89701 11.8611 9.55585C11.0285 9.19744 10.3719 8.32838 10.5121 7.39257L10.5175 7.35919C10.6506 6.46627 11.3146 5.83501 12.1691 5.58193C13.0721 5.31451 12.6631 5.5193 12.9325 4.52452C13.1715 3.64217 13.8086 2.84257 14.686 2.53436L14.987 2.43465C16.0022 2.19448 16.7099 2.40466 17.608 1.67191C18.0278 1.32937 18.3311 0.65797 18.9882 0.90563C19.485 1.09284 19.4314 1.49658 19.6171 1.90558C19.9666 2.67511 20.3521 3.31254 21.0559 3.81413C23.5425 5.58638 26.9311 4.86249 28.2994 2.10592C28.5598 1.58134 28.4881 0.97702 29.2056 0.851442C29.703 0.812517 29.8937 1.18573 30.193 1.49673C31.3223 2.67004 32.4815 1.99283 33.6397 2.68978C35.2825 3.67839 35.1402 5.34694 35.239 5.41829C35.3605 5.50599 35.6111 5.51968 35.7544 5.55497C36.4466 5.72551 37.1811 6.25791 37.3956 6.96807L37.407 7.00763C37.7878 8.09504 37.0845 9.18474 36.0766 9.61041C34.7809 10.1577 34.8437 10.0146 34.5914 11.449C34.455 12.2243 33.7791 13.1044 32.9536 13.2174C32.6366 13.2608 32.2708 13.2245 31.9498 13.2219C31.8986 13.3517 31.8818 13.4826 31.8501 13.617L31.5491 14.9647C31.1215 17.0881 31.0175 19.2289 31.2322 21.3851L31.3983 22.6949C31.4757 23.21 31.5702 23.7402 31.6967 24.2459L32.0503 25.6053C32.1005 25.9129 32.2194 26.2342 32.3105 26.5337L33.2025 29.2102C33.2656 29.3887 33.3249 29.5681 33.3899 29.7459L35.8515 36.0999C36.4848 38.0596 34.9559 40.0291 32.9302 40.1208L32.2599 40.123C31.9773 40.1224 31.7189 40.157 31.4641 40.2906L31.4302 40.3087C30.6669 40.7004 30.3578 41.5932 29.5968 42.011C28.4902 42.6185 26.8364 42.6151 25.7769 41.8641C25.3437 41.557 25.0102 41.0802 24.4791 40.9365C24.0773 40.8277 23.5349 40.8567 23.1737 41.0864L23.135 41.1144C22.9162 41.2699 22.7449 41.4737 22.541 41.6468C21.1886 42.7947 18.7682 42.7174 17.6072 41.3298ZM18.4347 2.8589C17.916 3.21361 17.3824 3.49515 16.7694 3.64654C15.792 3.88791 14.567 3.572 14.2808 4.99346C14.249 5.15161 14.2587 5.31211 14.2327 5.46976C13.9375 7.26169 12.0489 6.69211 11.9063 7.55841C11.8829 7.70068 11.9431 7.87238 12.0323 7.98497L12.099 8.05585C12.2415 8.19291 12.5316 8.25657 12.7156 8.32937C13.8834 8.79094 14.3707 9.34529 14.7519 10.4819C14.9089 10.9496 14.7233 11.6825 15.3872 11.7918L15.4192 11.7975C15.5625 11.8198 15.7511 11.8002 15.8929 11.7683C15.8883 10.9295 15.9996 10.2481 16.0472 9.45197L16.0884 8.54021C16.102 8.05571 16.0959 7.53549 16.8104 7.55396L16.9224 7.56741C17.103 7.59394 17.2718 7.62085 17.3918 7.7776L17.453 7.87646C17.5796 8.0986 17.5039 9.08105 17.4802 9.34355L17.332 10.5247C17.1864 12.111 17.6266 13.6312 17.9066 15.1756L18.0356 15.9517C18.0963 16.3553 18.1486 17.532 18.2463 17.8172L29.7477 17.8264L29.8941 16.2669C29.9392 15.8899 29.982 15.4897 30.0784 15.1222C30.2889 13.8828 30.6694 12.6667 30.7026 11.4022C30.7269 10.4716 30.4325 9.51943 30.5551 8.60241C30.7052 7.4798 31.9074 7.55377 31.9569 8.27588C31.973 8.51124 31.941 8.75813 31.9468 8.99555C31.9576 9.44452 32.0194 9.94693 32.091 10.3911C32.1661 10.8574 32.096 11.3408 32.1355 11.8103C33.449 11.8056 33.0084 11.2988 33.3169 10.2675C33.568 9.42779 34.3049 8.6858 35.1236 8.38111C35.5627 8.21776 36.4045 7.98933 36.0325 7.32769L36.0194 7.30215C35.7699 6.83297 33.9796 6.99488 33.7768 5.59955C33.7514 5.42447 33.7646 5.24358 33.7379 5.0708C33.5414 3.79987 32.5576 3.82184 31.6032 3.72359C30.9272 3.654 30.1031 3.30337 29.5785 2.87244C29.4642 3.00185 29.3818 3.19215 29.289 3.34007C27.193 6.68063 22.6334 7.14347 19.74 4.5752C19.1909 4.08781 18.7972 3.48955 18.4347 2.8589ZM18.2724 19.2709C18.2534 20.0152 18.2326 20.6693 18.1707 21.4028L18.0683 22.3358C18.0365 22.6107 17.9751 22.8908 17.9288 23.1642L17.6895 24.4729C17.1433 27.1163 16.1566 29.6741 15.2138 32.196L13.8271 35.7191C13.6928 36.0695 13.487 36.4357 13.4006 36.7993C13.2207 37.5564 14.1112 38.5571 14.841 38.645C15.2321 38.6921 15.644 38.6488 16.0387 38.6696C16.9858 38.7198 17.8288 39.3037 18.4108 40.0205C18.5408 40.1805 18.6581 40.364 18.8011 40.5114C19.343 41.0697 20.29 41.0868 20.9908 40.879C21.4789 40.7344 21.6918 40.3496 22.0723 40.0628C23.2534 39.1726 25.0004 39.2356 26.091 40.2322C26.7787 40.8606 27.0276 41.0941 28.0879 40.9837L28.0892 40.9831C29.01 40.8744 29.2364 40.3998 29.8126 39.7615C30.7535 38.7193 31.5404 38.6771 32.7789 38.6574C33.6612 38.6434 34.4715 38.0271 34.5968 37.1248L34.6025 37.0885C34.653 36.7379 34.4484 36.3639 34.3192 36.05L32.5807 31.6612L30.8291 26.5148C30.2969 24.6633 29.8045 22.4287 29.7409 20.4844C29.7281 20.0936 29.7733 19.6492 29.7026 19.2663L18.2724 19.2709Z" fill="black"/>
<path d="M25.0387 45.2923C23.8746 45.0383 22.7003 45.5676 21.5497 45.7213C21.2809 45.7572 19.4805 45.8059 19.231 45.7194C18.5167 45.4719 18.6589 44.5854 19.2776 44.3356C19.6389 44.1896 20.942 44.3016 21.4112 44.266C22.25 44.2025 23.0252 43.8373 23.8777 43.7918C25.0681 43.6802 25.7839 44.1708 26.8689 44.2644C27.1128 44.2854 27.3651 44.2749 27.6099 44.275L28.9171 44.2739C29.4201 44.274 29.9646 44.2163 30.2023 44.7791L30.2141 44.8111C30.3493 45.144 30.0999 45.6591 29.7289 45.7239C29.5692 45.7518 29.3957 45.7411 29.2342 45.7417L27.3497 45.7418C26.5418 45.7378 25.8016 45.569 25.0387 45.2923Z" fill="black"/>
</svg>
