<svg width="48" height="48" viewBox="0 0 48 48" fill="none" xmlns="http://www.w3.org/2000/svg">
<path d="M34.6745 43.7973L34.6042 43.9335C33.9465 45.1431 32.5049 45.2879 31.2769 45.0468C30.7013 44.9338 30.1944 44.7564 29.5961 44.9398L28.2497 45.4C27.2291 45.7085 26.1644 45.8195 25.1011 45.74C23.9564 45.6544 23.9377 45.5895 22.7838 45.8088C21.6406 46.026 20.5486 46.0725 19.4785 45.5678C18.1254 44.9295 18.0935 44.6663 16.6042 45.0479C15.0667 45.4419 13.2591 44.8332 13.1041 43.0431C13.0518 42.4395 13.29 41.9505 13.3901 41.3745L14.1337 37.0782L14.9175 32.0883C14.997 31.5653 14.9736 31.0324 15.0727 30.5103C15.2311 29.6755 15.467 28.855 15.7148 28.043L17.2842 23.9254C17.8718 22.6509 18.2971 21.9817 17.5304 20.6501L16.9187 19.5864C16.1869 18.1595 15.6355 16.6845 15.2719 15.1238C14.9748 13.849 14.7605 12.9764 15.2961 11.7607L15.8599 10.5196C16.6468 8.65667 17.0082 6.49841 16.3129 4.54705C16.081 3.89607 16.2888 3.02324 16.7398 2.52053C17.2923 1.90462 17.91 1.78809 18.6822 1.74479C19.6494 1.70957 20.7452 2.02482 20.993 3.1049C21.1145 3.63472 21.1119 4.19812 21.1988 4.73755L21.7287 7.00799C22.0266 8.09835 23.0746 10.625 24.5571 9.7986C25.9185 9.03955 26.7745 5.66511 26.8952 4.05772C26.9143 3.80386 26.8967 3.52448 26.9655 3.2784L27.0021 3.14593C27.3336 2.02627 28.2329 1.75703 29.247 1.75435C29.5782 1.75348 29.9407 1.73051 30.2596 1.83429C31.3584 2.19195 32.0961 3.43011 31.7124 4.55812C31.2917 5.79514 31.1444 7.78068 31.6091 9.04466L31.9607 10.114C32.2523 10.9747 33.0014 12.1033 33.0014 12.9102C33.0014 15.067 32.1019 17.5633 31.1397 19.4505L30.3252 20.9043C30.0247 21.4777 30.0016 22.1578 30.2014 22.7676L30.2141 22.8049C30.3913 23.3935 30.7423 23.9128 30.9491 24.4863L31.968 27.0588L32.6124 29.0744C32.705 29.6426 32.8723 30.2 32.9495 30.7754L33.0893 32.1946C33.0994 32.2875 33.1311 32.3762 33.1445 32.4687L33.316 33.5192C33.352 33.6954 33.3636 33.8785 33.4097 34.0527L33.7392 35.8313C33.7684 36.112 33.8466 36.3988 33.8995 36.6757L34.7808 41.8713C34.9403 42.5527 34.9937 43.1497 34.6745 43.7973ZM18.6021 3.33743C18.4363 3.35818 18.2953 3.37893 18.1425 3.45145L18.1177 3.46296C17.6863 3.67155 17.8805 4.19138 17.9896 4.53858L18.1415 5.09783C18.6972 7.39597 17.9187 9.96102 16.9807 12.0405C16.71 12.6407 16.4828 12.9308 16.6358 13.6025L17.0704 15.5897C17.078 15.621 17.0889 15.6486 17.1005 15.6785L17.3552 16.3943C17.4297 16.6385 18.4024 16.5172 18.6723 16.5172L30.6025 16.5171C30.7197 16.1843 30.8239 15.8271 30.9193 15.4877C31.0672 14.9615 31.5619 13.287 31.342 12.7714L30.5627 11.0235C29.8092 8.95911 29.3519 6.48753 30.0582 4.33784C30.0941 4.22848 30.1683 4.08052 30.1758 3.96707C30.2211 3.28313 29.2362 3.24076 28.7863 3.41302C28.4211 3.55284 28.5099 3.76963 28.4793 4.09639L28.3463 5.23644C28.0574 7.29547 27.1446 10.4359 25.1138 11.3785C24.5083 11.6595 23.7632 11.7204 23.135 11.4824C20.7795 10.5903 19.7061 6.76522 19.51 4.39833C19.4495 3.66809 19.6117 3.25265 18.6021 3.33743ZM18.0489 18.1545C18.0892 18.2626 18.1332 18.3655 18.1886 18.4689L18.6582 19.3596C18.7634 19.5567 18.8652 19.8343 19.0167 19.996L29.0143 19.9963L29.3097 19.3973L29.7648 18.5158C29.8206 18.4033 29.8552 18.2902 29.9173 18.1802L18.0489 18.1545ZM26.8968 21.7039L19.5465 21.7029C19.5656 23.3265 18.9074 24.2817 18.301 25.758C17.6304 27.3906 16.8513 29.5412 16.6008 31.3103L15.8941 36.7145L15.244 40.3109C15.2119 40.4872 15.1663 40.6631 15.1641 40.8433L16.1292 40.5325C17.3419 40.1921 18.5007 40.2035 19.6143 40.8288C20.1848 41.1492 20.7129 41.4119 21.378 41.4673C22.6172 41.646 23.81 41.2716 25.0386 41.2677L26.0259 41.2653C26.5753 41.2635 27.0878 41.2088 27.6025 41.0052L28.441 40.6421C29.1651 40.3609 30.4531 40.1534 31.2344 40.3712L32.918 40.8487C32.8361 40.4718 32.8159 40.0837 32.7501 39.7033L31.5406 33.2093C31.4537 32.635 31.4626 32.0469 31.4169 31.4685C31.2783 29.7157 30.4262 27.4897 29.758 25.8957L29.2671 24.7228C28.709 23.458 28.4901 23.0625 28.4967 21.7046L26.8968 21.7039ZM17.4502 41.9866C16.4709 42.0605 15.8253 42.5962 14.681 42.6515C14.7398 43.8268 15.9404 43.5237 16.7213 43.2952C18.0785 42.8982 18.8904 43.4257 20.0922 44.0109C21.6158 44.7527 23.2148 43.7118 24.8082 44.0335C25.373 44.1475 26.2229 44.1434 26.7863 44.058C28.0584 43.865 29.2199 43.0256 30.5344 43.1915L30.5853 43.1978C31.3314 43.2749 32.4235 43.7868 32.9692 43.3235C33.1287 43.188 33.2916 42.9674 33.3029 42.7502L33.2955 42.6187C33.0365 42.5675 32.7748 42.5833 32.5164 42.515C31.311 42.1965 30.7336 41.6624 29.2847 42.1162C28.069 42.497 27.8113 42.9199 26.3404 42.9223L24.8577 42.9295C24.0991 42.971 23.4976 43.1988 22.6145 43.2023L21.6367 43.1998C19.8286 43.1697 18.8987 41.9382 17.4502 41.9866Z" fill="black"/>
</svg>
