<svg width="48" height="48" viewBox="0 0 48 48" fill="none" xmlns="http://www.w3.org/2000/svg">
<path d="M31.8723 43.8295L31.1696 44.2191C30.2582 44.6294 29.2878 44.635 28.309 44.6079C27.1441 44.5757 27.1963 44.6059 26.0795 45.0548C24.7192 45.6017 23.2604 45.5939 21.9106 44.9889C20.7195 44.4552 20.7515 44.4785 19.4553 44.6052C18.1865 44.7292 16.84 44.4695 15.7532 43.7998C15.4796 43.6312 15.254 43.4122 14.9609 43.2693C14.3189 42.9564 13.4567 43.1393 12.7634 43.0954C11.7027 43.0283 8.46503 41.6407 8.6259 40.4534C8.65253 40.2566 8.78505 40.0449 8.87195 39.8678L9.34159 38.9367C9.69615 38.2568 9.78503 38.083 10.0142 37.3752L15.3238 20.8301C15.8022 19.2225 15.8825 19.1907 15.5185 17.4341L14.6055 13.8117C14.4608 13.3075 14.2311 12.7889 14.1695 12.2669L11.792 10.9412C11.3691 10.7077 10.9756 10.4995 11.1148 9.9577C11.2407 9.46762 11.4689 8.98073 11.6448 8.50527C11.9374 7.71449 12.162 6.86887 12.5845 6.13527C13.7257 4.15376 15.0817 3.72198 17.0349 3.05533C17.6319 2.85155 18.2191 2.60397 18.8286 2.4404C19.1136 2.43248 19.3474 2.46931 19.5079 2.74409L19.527 2.77757C19.6076 2.91001 19.5989 3.04214 19.6175 3.19181C19.8837 5.32841 21.8434 6.78538 23.9393 6.84252C25.918 6.89643 27.8761 5.46848 28.3375 3.51585C28.3862 3.30937 28.3583 3.04302 28.4391 2.85723C28.7286 2.19182 29.3875 2.50895 29.8711 2.68162L32.0347 3.42233C34.0421 4.08752 35.5064 5.6602 36.0717 7.71116L36.8674 9.89085C37.0473 10.4011 36.757 10.6402 36.3641 10.8489L35.8501 11.128C35.2002 11.481 34.5539 11.8629 33.8776 12.1625C33.7908 12.4555 33.7464 12.719 33.6402 13.0408L32.4841 17.4377C32.0498 19.3918 32.163 19.1816 32.7472 21.1174C32.8058 21.3114 32.8533 21.5177 32.9207 21.7076L33.3574 23.0862C33.4168 23.3139 33.4997 23.549 33.577 23.7726L38.154 37.8987C38.2358 38.1321 38.3707 38.3374 38.4857 38.5549L39.0266 39.6406C39.0981 39.7851 39.1903 39.9213 39.2511 40.0701L39.4335 40.5064C39.205 41.3971 38.2981 41.8943 37.5456 42.3015C36.0461 43.113 35.5773 43.1256 33.9733 43.0902C32.886 43.0662 32.7784 43.2805 31.8723 43.8295ZM18.4271 3.92601L17.0112 4.41991C16.7531 4.51327 16.4553 4.66125 16.1859 4.69968C16.4297 5.10318 16.5011 5.48348 16.6275 5.91895C16.8895 6.82176 16.6408 8.27971 16.3548 9.12913C15.9506 10.3296 15.0322 11.1134 15.5091 12.5244L16.0415 14.2458L16.7257 16.9959C16.7593 17.1269 16.7671 17.2611 16.793 17.3931L16.932 18.1498C16.9603 18.347 16.9517 18.6839 17.0378 18.8581L30.6656 18.8492C30.7651 18.8502 30.8847 18.8646 30.9813 18.8467L31.9756 14.2371L32.3453 12.9737C32.6121 12.1372 32.7486 11.6843 32.4574 10.8071C32.3111 10.3664 32.014 9.98774 31.8305 9.56259C31.0758 7.81448 31.1377 6.40677 31.7852 4.7009L29.5293 3.90888C28.9351 6.24909 26.9667 7.81406 24.6127 8.05781L24.6326 9.91443C24.6313 10.3645 24.6593 11.0892 23.9532 11.0632C22.813 11.0213 23.6113 8.3879 23.3628 8.04862C23.3582 8.04243 22.5384 7.89688 22.4646 7.87851C20.7002 7.43943 19.3059 6.22973 18.6484 4.53483C18.5974 4.40328 18.5512 3.96884 18.4271 3.92601ZM15.0454 5.28538C13.8436 6.14723 13.5976 6.89231 13.1327 8.14256L12.519 9.85551L13.4214 10.347L14.2352 10.7997C14.4911 9.98282 14.8553 9.49176 15.1405 8.76318C15.4644 7.93635 15.6674 5.93381 15.102 5.28435L15.0454 5.28538ZM32.9213 5.28416C32.4764 6.1672 32.438 7.40877 32.7336 8.3489L32.9091 8.85566C33.055 9.3261 33.3799 9.77165 33.5921 10.2162C33.6775 10.3952 33.7207 10.607 33.8163 10.7769L34.6994 10.2835L35.5046 9.83802L35.038 8.57835C34.5753 7.25202 34.2763 6.36065 33.1524 5.44687C33.0791 5.38724 32.9924 5.34524 32.9213 5.28416ZM16.8465 20.1336L11.2087 37.8368C11.7857 38.2923 12.7865 38.436 13.4836 38.3547C14.7178 38.2105 15.552 37.9859 16.6788 38.8686C16.9371 39.0711 17.1589 39.3186 17.4178 39.5205C18.8493 40.637 20.5266 38.9567 22.2956 40.0093C22.5897 40.1843 22.8367 40.4137 23.1553 40.5517C23.8578 40.856 24.8252 40.7283 25.4687 40.3537C26.3063 39.8661 27.2515 39.7018 28.2119 39.6861C28.7532 39.6773 29.2306 39.6913 29.7603 39.5797C31.1006 39.2957 31.016 38.0659 33.592 38.2324C35.1981 38.3362 35.3528 38.6791 36.7901 37.7504L31.2494 20.507C31.2166 20.3856 31.2145 20.2422 31.1504 20.1334L16.8465 20.1336ZM37.2061 39.0119C36.258 39.6036 35.3288 39.8013 34.2188 39.6201C33.0418 39.4281 32.2345 39.4655 31.3052 40.2046C30.3105 40.9957 29.2761 40.9927 28.0506 40.9986C27.0549 41.0033 26.9025 41.0809 26.0075 41.5498C25.0216 42.0663 23.3047 42.2101 22.3122 41.5706C22.1213 41.4476 21.962 41.2785 21.7691 41.1558C20.4112 40.292 18.7136 42.1934 16.5967 40.4984C15.8453 39.8967 15.6017 39.2962 14.3736 39.4993L13.6039 39.6327C12.5317 39.8475 11.641 39.4454 10.7037 39.0182L9.99128 40.48L10.6693 40.9188C11.306 41.3143 11.9857 41.7191 12.7472 41.8032C14.0999 41.9526 14.7141 41.5892 16 42.396C16.2077 42.5262 16.4019 42.6823 16.6135 42.8051C17.6334 43.3971 18.7137 43.3978 19.8369 43.2522C20.1952 43.2057 20.7666 43.1903 21.1036 43.3048L21.1991 43.3294C21.6055 43.4233 21.9762 43.6056 22.3525 43.7789C25.0466 45.0192 26.0625 43.0576 28.043 43.2622C28.8433 43.345 29.607 43.3836 30.3929 43.1308C31.876 42.6534 31.9159 41.7512 33.9719 41.8066L34.8741 41.8166C36.0707 41.8172 37.1297 41.1613 38.027 40.4223L37.2061 39.0119Z" fill="black"/>
</svg>
