<svg width="48" height="48" viewBox="0 0 48 48" fill="none" xmlns="http://www.w3.org/2000/svg">
<path d="M22.6067 28.0607C22.5628 28.2381 22.4844 28.4076 22.4301 28.5822C22.1353 29.5309 21.9939 30.2477 21.9052 31.2324L21.8415 31.8223C21.8231 32.1244 21.8305 32.4295 21.7976 32.7307L20.9588 41.6252C20.9317 41.9667 20.8876 42.2958 20.8857 42.6412L20.8813 43.6193C20.863 47.3144 14.5511 46.8991 13.5743 44.4847L13.5603 44.4494C13.2918 43.7928 13.5796 41.9159 13.7057 41.1808L14.0588 39.3518C14.3065 37.8269 14.2351 36.5792 14.2808 35.065C14.2876 34.8412 14.3323 34.622 14.3381 34.3976L14.3534 14.0935C14.3626 13.8838 14.4006 13.6777 14.4138 13.4687C14.4742 12.5083 14.5056 11.543 14.636 10.588L15.1682 7.08546C15.1985 6.82853 15.1673 6.56041 15.1653 6.3018L15.1634 4.86307C15.1676 3.69814 15.2127 2.88248 16.2803 2.15923C17.771 1.14937 18.9149 1.34019 20.5048 1.59209L21.0801 1.68636C21.2665 1.70874 21.4889 1.70699 21.6679 1.75919C22.3205 1.94946 25.2324 1.84275 26.0273 1.77939L29.3045 1.36938C30.3709 1.25527 31.2795 1.57551 32.0976 2.23673C32.3485 2.43952 32.6001 2.66444 32.7324 2.96647L32.7984 3.13799C32.924 3.55099 32.8776 3.78213 32.8768 4.20739L32.8769 6.28478C32.878 6.79516 32.9394 7.20649 33.0072 7.71114C33.1801 8.99688 33.2171 10.3064 33.258 11.6018L33.3843 15.3504L33.5388 17.2971C33.5858 17.9202 33.5913 18.6317 33.6204 19.2772L33.6279 21.0705C33.6324 21.23 33.6615 21.3872 33.6647 21.5471L33.6763 24.094C33.6826 24.2801 33.7311 24.4613 33.7367 24.6447L33.7449 28.603C33.7478 28.9211 33.8156 29.2261 33.8164 29.5469L33.8412 31.6317C33.856 32.4191 33.9335 33.193 33.9348 33.9789L33.9383 35.5792C33.9394 35.9041 33.9827 36.211 33.9972 36.5316L34.0105 38.9244C34.0119 39.1443 34.0013 39.3786 34.046 39.5946C34.1505 40.099 34.1433 40.9972 34.1826 41.5898L34.2743 43.0271C34.2938 43.2739 34.2806 43.5431 34.3351 43.7851L34.3473 43.8384C34.6186 45.3159 32.6265 45.9251 31.5161 46.1362C29.6906 46.4832 27.1221 46.0747 27.116 43.763L27.1121 42.7264L26.7475 37.1838C26.5816 34.7298 26.3706 31.8975 25.7929 29.4959C25.2956 27.4287 24.4126 25.5104 24.0194 23.3962C23.8981 24.1249 23.7288 24.8531 23.5086 25.5588L22.6067 28.0607ZM18.7012 2.61111C17.9391 2.68736 17.1135 2.92512 16.5259 3.43486C17.0545 3.58823 17.607 3.66934 18.1449 3.78536L21.7101 4.34873C22.3273 4.41133 22.8735 4.42995 23.4992 4.43057L25.2782 4.41348C26.4748 4.34958 28.1662 4.10498 29.2787 3.78139L31.5814 3.34498C31.1709 2.91828 30.6198 2.68388 30.0351 2.62295L29.9882 2.61763C29.5835 2.57394 29.1586 2.64172 28.7576 2.69217L25.7217 3.05858C24.5374 3.20988 22.2716 3.1016 21.1313 2.95466L20.1595 2.79637C19.7128 2.70657 19.1576 2.54899 18.7012 2.61111ZM31.6385 4.60567L29.5311 4.98527C28.8443 5.12922 28.1768 5.31021 27.4804 5.41417C24.1556 5.91072 21.0024 5.67667 17.7484 4.97449C17.3001 4.87774 16.8283 4.81971 16.3874 4.69971L16.383 5.93571L16.3944 6.01867C16.9873 6.17692 17.6177 6.21649 18.2226 6.31703L21.996 6.7526C22.5291 6.78892 23.0705 6.77411 23.6048 6.77435L25.4776 6.75241L28.7343 6.46764L31.6668 6.12457C31.7271 6.05242 31.6964 4.76913 31.6855 4.64441L31.6385 4.60567ZM16.4089 7.30099L15.9053 10.5656C16.2274 10.4722 16.508 10.3153 16.7632 10.0972C17.2749 9.61769 17.6124 9.08627 17.6374 8.36599L17.6495 7.51174L16.8836 7.38157C16.754 7.35564 16.5338 7.27928 16.4089 7.30099ZM31.6484 7.39474L31.0803 7.47438C30.8933 7.49228 30.6203 7.46711 30.4483 7.52847L30.4436 8.38619C30.4434 8.61967 30.4125 8.86042 30.5222 9.07272L30.5403 9.10947C30.7303 9.49038 30.9794 9.79633 31.2924 10.085C31.5144 10.2648 31.7323 10.4235 31.9951 10.5388L31.8054 8.39083C31.7788 8.06782 31.7992 7.70336 31.7292 7.38888L31.6484 7.39474ZM18.9245 7.6601C18.9146 7.91088 18.9278 8.17061 18.9048 8.42003C18.7565 10.0321 17.6425 11.4654 16.0414 11.8466C15.9997 11.8565 15.7994 11.8855 15.7775 11.9139C15.6908 12.0265 15.551 14.3893 15.5433 14.6657L15.5485 25.3967C15.5529 25.6519 15.6186 25.8998 15.6232 26.1579L15.6249 32.5946C15.6209 32.8695 15.5551 33.1371 15.5499 33.4166L15.533 36.9458L15.4269 38.5776C15.3175 39.8823 14.8899 41.1266 14.7797 42.4349L14.6949 43.4416C14.6448 44.1479 14.8117 44.2826 15.4218 44.6001C16.3437 45.0798 17.7924 45.3175 18.7793 44.8685C19.6249 44.4768 19.6786 44.0746 19.6841 43.2391L19.6939 41.927C19.6998 41.7372 19.7426 41.5517 19.7574 41.3629L19.8129 40.2696L20.6205 31.7891C20.6795 31.1303 20.7168 30.4681 20.8188 29.814C21.0551 28.2992 21.7625 26.8875 22.2424 25.4416C22.6301 24.2734 22.8037 23.0575 23.019 21.8509C23.1316 21.22 23.2806 20.5843 23.3418 19.9455C23.4558 18.7556 23.4121 17.5588 23.4118 16.3639L23.4076 8.33013C23.4042 7.89738 23.3805 8.03472 22.8983 8.00875L21.4452 7.94763C20.7057 7.92377 19.6218 7.80325 18.9245 7.6601ZM29.0261 7.72061L24.6349 8.04016L24.6414 19.2883C24.6994 20.6148 24.9023 21.9578 25.2256 23.2467L25.3783 23.8396C25.4527 24.1632 25.5152 24.5175 25.6328 24.829L26.9413 28.9709C27.0244 29.2314 27.0533 29.5113 27.112 29.7775L27.7112 33.7525C27.7725 34.3978 27.861 35.05 27.9055 35.6955L28.1284 39.4188C28.1392 39.6018 28.1819 39.777 28.1911 39.9608L28.2145 40.9722C28.2258 41.1877 28.2681 41.3956 28.281 41.6096L28.3475 44.1256C28.3466 44.2183 28.412 44.324 28.4809 44.3845L28.5572 44.4427C28.7355 44.5795 28.8926 44.6853 29.1023 44.7718C30.3422 45.2021 32.1377 44.9605 33.1374 44.1046L32.8368 40.0691L32.8111 38.4648C32.8031 38.2514 32.7557 38.0436 32.7492 37.8286L32.6918 34.291C32.6847 34.0958 32.638 33.9065 32.6319 33.7085L32.6205 31.7985C32.6131 31.5447 32.5605 31.299 32.5553 31.0442L32.4886 26.2184C32.4752 25.9918 32.4459 25.7722 32.4441 25.5437L32.4378 21.3689C32.4337 21.1215 32.3757 20.8849 32.3717 20.6365L32.3565 18.6999C32.3473 18.4344 32.2912 18.1757 32.2782 17.9117L32.2482 16.5626C32.2306 16.3079 32.1763 16.0613 32.1679 15.8053L32.074 12.4281C32.0701 12.2604 32.0763 12.0847 32.0433 11.92C30.1077 11.2065 29.0015 9.94563 29.1998 7.72286C29.1409 7.7028 29.0863 7.71367 29.0261 7.72061Z" fill="black"/>
</svg>
