<svg width="48" height="48" viewBox="0 0 48 48" fill="none" xmlns="http://www.w3.org/2000/svg">
<path d="M25.636 37.0833L23.9351 28.0862C23.8596 28.2882 23.835 28.4886 23.7952 28.6984L21.4462 42.1085C21.2277 43.1842 21.2108 43.2003 20.0421 43.2011L15.2885 43.2016C14.009 43.2014 13.3234 43.5785 13.2009 42.0575C13.1874 41.8891 13.1603 41.7237 13.1532 41.5544L13.1208 40.6252C13.1142 40.5084 13.1217 40.372 13.0913 40.2594L13.0799 40.2185C13.0158 39.9106 13.0515 39.5348 13.0392 39.2168L12.9498 37.0791L12.7657 33.1959L12.5866 29.9646L12.4951 27.8346L12.3806 24.1679C12.3643 23.8769 12.3136 23.5872 12.3043 23.2966L12.2883 21.7174L12.123 19.258L12.1842 12.0907C12.2446 10.7386 12.372 9.79588 12.6161 8.44002C12.6851 8.05654 12.7746 7.64352 12.8362 7.27705L13.0135 6.08788C13.0928 5.5206 13.019 4.85165 13.7421 4.76479L34.0785 4.76465C34.8815 4.78138 34.8937 5.5522 34.9696 6.18721L35.1008 7.16254C35.1416 7.46132 35.1863 7.70873 35.3281 7.97849C35.6787 8.6459 35.2415 8.2611 35.4129 8.82393C35.5739 9.35263 35.6587 9.85649 35.7257 10.406L35.8135 11.1813C35.844 11.6173 35.8321 12.0676 35.8326 12.5047L35.8216 20.4255L35.7251 23.4296L35.6283 25.1826C35.5905 26.4033 35.5441 27.6465 35.4868 28.8659L35.4139 30.2124C35.3955 30.4431 35.3504 30.6714 35.3401 30.9026L35.3154 32.6227C35.3091 32.7897 35.2778 32.9548 35.2693 33.1222L35.1067 37.113L34.7651 41.9364C34.7518 42.1757 34.7985 42.494 34.6991 42.714L34.6551 42.8167C34.441 43.2692 34.0543 43.203 33.6391 43.2029L27.4149 43.2028C27.3381 43.2012 27.2428 43.2035 27.1755 43.1629L27.1189 43.1272C26.8039 42.9276 26.7783 42.612 26.6979 42.2815L25.636 37.0833ZM22.3165 6.25724L20.4653 6.25663C20.4458 6.58865 20.4126 7.41838 20.473 7.74351L23.2722 7.73305C23.2724 7.58005 23.2624 7.43362 23.3166 7.28877L23.3302 7.24944C23.4978 6.78088 23.9787 6.62399 24.3572 6.92549L24.3785 6.94195C24.4657 7.01118 24.5191 7.1188 24.5645 7.21846L24.5768 7.24452C24.6435 7.3904 24.637 7.5644 24.6425 7.72237L24.7385 7.73535C25.0787 7.77698 25.4402 7.75354 25.7835 7.75298L27.5636 7.75663L27.5567 6.26165L22.3165 6.25724ZM33.0986 6.24477L31.0124 6.25696L31.0365 7.7338C31.1161 7.73854 31.691 7.73521 31.7053 7.75105L33.0171 7.75124C33.2573 7.75227 33.5448 7.78504 33.7765 7.73352C33.6727 7.24045 33.5951 6.7619 33.56 6.25907L33.0986 6.24477ZM14.4487 6.25724L14.2533 7.72926L16.7095 7.75462L16.9078 7.7653L16.9085 6.26029L14.4487 6.25724ZM18.3765 6.26029L18.3745 7.18996C18.3745 7.37549 18.3642 7.57007 18.3862 7.75438L19.0133 7.7527L19.0066 6.26305L18.3765 6.26029ZM28.9953 6.25724L29.007 7.21598C29.0073 7.39134 28.9839 7.58174 29.0177 7.75349L29.5584 7.75518L29.5502 6.26666L28.9953 6.25724ZM23.7197 9.18923L23.7669 14.5424C23.7664 14.864 23.6355 15.5171 24.0474 15.0875L24.054 15.0813C24.4014 14.6227 24.2572 14.1101 24.2575 13.5407L24.2571 9.8113C24.2572 9.64809 24.2809 9.44446 24.2554 9.28466L23.7197 9.18923ZM13.9729 9.21829L13.7858 10.3327C13.7104 10.888 13.6711 11.4456 13.6642 12.0055C14.4492 11.9306 15.1995 11.7247 15.8281 11.2295C16.6304 10.4551 16.6106 10.1678 16.8946 9.23545L13.9729 9.21829ZM18.3883 9.21365C18.1919 10.6363 17.684 11.6764 16.4962 12.5795L16.3578 12.6739C15.5011 13.2392 14.5855 13.4823 13.568 13.5087L13.5818 19.5114C13.5894 19.7864 13.6632 20.0463 13.673 20.32L13.6932 21.9021C13.6981 22.0556 13.73 22.2102 13.7384 22.3645L13.8682 25.9487C13.8787 26.175 13.9227 26.3985 13.9304 26.6247L13.984 28.4391C13.9961 28.625 14.036 28.8062 14.0453 28.9936L14.0698 30.2572L14.2233 32.8818C14.2622 33.6793 14.3086 34.5133 14.3162 35.3087L14.3495 36.5622C14.3557 36.7882 14.4105 37.007 14.4145 37.2301L14.4395 38.1389C14.4472 38.3119 14.4445 38.4892 14.485 38.6578L14.5022 38.7363L20.5951 38.7368L22.3997 27.8605L23.147 22.5592C23.1728 22.4188 23.1781 22.2859 23.2215 22.1481L23.2324 22.1115C23.4424 21.4256 24.3299 21.3581 24.5955 22.3244C24.6384 22.4802 24.6436 22.668 24.6669 22.8299L25.5985 28.8617L27.1936 37.4743C27.2385 37.6955 27.3257 37.9386 27.3406 38.1615L27.4087 38.4662C27.4338 38.5571 27.4412 38.6536 27.4522 38.7471L32.5476 38.7374C32.8798 38.7375 33.2151 38.728 33.5457 38.7651L34.3506 13.6753C31.9372 13.2846 29.7748 11.9391 29.594 9.23887L29.0219 9.21248C29.016 9.67429 29.0375 10.1439 28.9732 10.6019C28.881 11.2587 28.1357 11.4609 27.6619 10.7891C27.5315 10.6042 27.568 10.3975 27.5671 10.1821L27.5699 9.23601L25.745 9.21421L25.7587 14.0075C25.7566 15.3582 25.268 16.4521 23.8992 16.9454L23.914 18.091C23.9198 18.3289 23.9733 18.5929 23.9107 18.8264C23.7153 19.555 22.6545 19.4696 22.5375 18.738L22.5317 18.7043C22.4674 18.3035 22.5097 17.859 22.484 17.4511C22.4705 17.2363 22.4278 17.0254 22.4175 16.8101L22.4002 10.0774C22.3994 9.79645 22.4127 9.50657 22.3898 9.22687L20.4645 9.2158C20.4405 9.65938 20.5705 10.3568 20.3599 10.754L20.3416 10.7904C20.0295 11.4035 19.2215 11.2869 19.0321 10.7106C18.9942 10.5952 19.0052 10.4305 19.0042 10.3094L19.0017 9.5653C19.0021 9.46171 19.0199 9.33341 18.9894 9.2362L18.3883 9.21365ZM31.0621 9.21787C31.1888 10.14 31.6427 10.872 32.3883 11.4293C32.9984 11.8854 33.6963 11.9838 34.4101 12.1373C34.3597 11.1518 34.2649 10.1828 34.039 9.22073L31.0621 9.21787ZM15.0323 40.2199C14.8915 40.2337 14.7139 40.2198 14.5792 40.2541L14.6201 41.7258L19.9039 41.7353L20.0563 41.7341C20.1025 41.6576 20.1012 41.5281 20.1188 41.4384L20.2364 40.7447C20.2655 40.579 20.3111 40.3931 20.3115 40.2249L15.0323 40.2199ZM28.3396 40.2202L27.7886 40.2615C27.8204 40.4862 28.0111 41.5446 28.1051 41.7349L32.9123 41.7353L33.3502 41.7394L33.3936 40.2205L28.3396 40.2202Z" fill="black"/>
</svg>
