<svg width="48" height="48" viewBox="0 0 48 48" fill="none" xmlns="http://www.w3.org/2000/svg">
<path d="M25.5422 35.841L23.9394 27.7549L21.0284 41.8239C20.8829 42.4656 20.8985 43.4208 20.1859 43.5964C19.0844 43.8678 17.938 43.9491 16.8072 43.9498L15.4837 43.9414C14.3578 43.8829 12.8874 43.641 11.8087 43.374L9.92376 42.8105C9.54576 42.6997 9.0802 42.5943 8.95804 42.1593L8.93662 42.081C8.86631 41.758 8.9669 41.3313 8.9939 41.0059L9.21435 36.7813L9.31448 34.9918C9.32385 34.8144 9.35578 34.6404 9.36965 34.4645L9.39637 33.6124L9.58331 30.0506C9.59306 29.8879 9.62887 29.7313 9.63993 29.5699L9.7754 26.5462L9.93571 23.8908L9.9532 21.2731C9.95104 20.8237 9.93712 20.3699 9.96914 19.9215L10.506 15.3747C10.7602 13.7585 11.0282 12.1196 11.5078 10.5531L11.9618 9.20637C12.2182 8.55185 12.3892 8.36285 12.3914 7.64074L12.3935 6.6079C12.3937 6.34746 12.3671 6.05501 12.4064 5.79973C12.57 4.73928 13.502 4.09159 14.5187 4.04098L32.0524 4.03516C33.078 4.0354 34.0583 4.11449 34.5116 5.28467C34.6288 5.58724 34.6821 5.86751 34.6843 6.19343L34.675 7.17556C34.6892 7.53138 34.7778 7.9819 34.8892 8.3156L35.5179 10.4176C35.572 10.7487 35.6977 11.085 35.7757 11.4139C35.8934 11.9103 35.989 12.4145 36.0933 12.9137L36.5173 15.2457L37.3116 21.5153C37.3877 22.4331 37.3333 23.353 37.4164 24.2691L38.8981 40.108C38.9436 40.6694 39.0663 41.2347 39.0883 41.797C39.1153 42.4886 38.6949 42.6474 38.1092 42.8328L36.9654 43.1783C35.2316 43.6562 33.4975 43.9481 31.7008 43.9494L30.4794 43.9412C29.9416 43.9151 29.3986 43.8455 28.8641 43.7816L27.8842 43.6275C26.9849 43.4572 27.0615 42.8392 26.897 42.0765L25.5422 35.841ZM26.9684 5.37185C26.6373 5.41362 26.3009 5.48876 25.9711 5.51342C24.9935 5.58659 23.9915 5.5444 23.0107 5.54337L19.0648 5.53629C18.9885 5.95765 19.0026 6.4166 19.001 6.8449L18.9899 8.73513L20.2616 8.73706L27.5327 8.73748C27.7432 8.73762 27.9959 8.76724 28.1999 8.72763C28.0695 7.68012 28.0471 6.44257 28.118 5.3802C27.8663 5.31645 27.2321 5.35376 26.9684 5.37185ZM14.3974 5.42534C13.7294 5.4731 13.7526 5.97396 13.751 6.44074C13.749 7.02218 13.8554 8.2016 13.6144 8.73012C13.7322 8.77146 13.8704 8.74831 13.9929 8.74217L17.0752 8.73706L17.641 8.7641C17.6617 7.59153 17.6059 6.5906 17.7756 5.42271L14.3974 5.42534ZM30.4273 5.42646L29.4404 5.43003L29.5165 8.49884C29.5226 8.57853 29.5181 8.66271 29.5411 8.73954L32.6776 8.73706L33.6017 8.74428C33.493 8.28663 33.3697 7.82937 33.3521 7.35645L33.3477 6.43859C33.3489 6.08028 33.365 5.79846 33.0468 5.55438L33.0117 5.52701C32.7601 5.33759 32.4036 5.42281 32.1082 5.42285L30.4273 5.42646ZM19.0133 10.1047C18.9487 11.1363 18.7296 12.3605 18.409 13.3596C17.6319 15.7817 15.1644 17.2722 12.6647 17.1145C12.5483 17.1072 12.4359 17.0985 12.323 17.0695L11.6763 16.9487C11.4685 17.8185 11.2459 20.0761 11.2499 20.9213C11.2541 21.8158 11.3567 22.5753 11.3023 23.5215L11.0726 27.0816L11.0406 28.4486C11.033 28.637 10.9941 28.8214 10.9832 29.0095L10.9238 30.8551C10.9136 31.0227 10.8784 31.1897 10.8694 31.3593L10.8453 32.4371L10.5419 37.293C10.537 37.3667 10.5148 37.4355 10.5104 37.5104L10.2866 41.4854C11.2612 41.8082 12.264 42.037 13.2723 42.2223L13.8738 42.3229C13.9796 42.3401 14.0902 42.3695 14.1975 42.3695C14.5714 42.3996 14.9435 42.4704 15.3171 42.4911L18.0862 42.4888L19.5877 42.3454C19.6106 41.8488 19.7721 41.3485 19.8741 40.8629L22.6487 27.0258C22.8775 25.797 22.9937 25.3459 22.9939 24.0964L22.9958 11.5578C22.9952 11.0918 22.9724 10.6131 23.0104 10.1491L19.0133 10.1047ZM24.5745 10.1519L24.3827 10.1513C24.3187 10.4531 24.3535 10.8184 24.3531 11.1274L24.3516 14.907C24.3518 15.2713 24.3255 15.658 24.3708 16.0194L24.7462 15.6247C25.3412 14.7493 25.3277 14.3341 25.3288 13.3444L25.3295 10.6742C25.3294 10.5007 25.3439 10.3144 25.3193 10.1426L24.7353 10.1444C24.7077 10.1449 24.5936 10.1372 24.5745 10.1519ZM27.6851 10.1519L26.6527 10.1509C26.6105 10.4797 26.6388 10.841 26.639 11.1736L26.6386 13.2506C26.6383 13.8484 26.6816 14.3939 26.5349 14.9762C26.28 15.988 25.6797 16.8853 24.7404 17.3707C24.6342 17.4256 24.4215 17.4568 24.3498 17.5385L24.3538 24.0231C24.3538 24.2401 24.2973 24.2913 24.4828 24.4229C24.8148 24.6585 24.7952 25.1325 24.885 25.4845L28.3064 42.296C29.6994 42.6304 32.7393 42.6678 34.1962 42.3437L34.2006 42.3405C35.3962 42.1757 36.5844 41.9164 37.7143 41.4859L35.4293 17.0219C35.1405 17.0543 34.8483 17.1097 34.5592 17.1273C31.8598 17.2914 29.0159 15.6852 28.6991 12.8247L28.332 10.135C28.1264 10.138 27.8855 10.1158 27.6851 10.1519ZM14.6407 10.1519L13.0417 10.1638C12.9727 10.2881 12.961 10.422 12.9247 10.5569L12.29 12.9627L11.9159 15.0562C11.8857 15.2267 11.8761 15.399 11.8413 15.5693C12.8197 15.7954 13.6689 15.7695 14.6426 15.4598C16.2712 14.8161 16.8764 13.8779 17.2569 12.3065L17.6786 10.1524L14.6407 10.1519ZM29.6403 10.153L29.8525 11.547C29.9201 12.0181 29.9626 12.5406 30.0934 12.9957C30.6982 15.1003 32.9639 16.0667 35.0038 15.6292L35.1262 15.5933L35.1981 15.5812C35.2083 15.3409 35.1246 15.0482 35.0896 14.8057L34.6688 12.4624L34.1027 10.1632L29.6403 10.153Z" fill="black"/>
</svg>
