<svg width="48" height="48" viewBox="0 0 48 48" fill="none" xmlns="http://www.w3.org/2000/svg">
<path d="M25.0295 26.5963L24.0292 18.1964C24.0014 18.3591 23.9481 18.5246 23.9268 18.6857L23.2987 24.8789L22.93 27.3873L20.7304 39.1024L20.488 41.4232C20.4635 41.6942 20.4132 41.959 20.4022 42.232L20.3934 44.4756C20.3932 44.8025 20.4438 45.2148 20.3564 45.5286L20.3194 45.6591C20.0576 46.4603 19.404 46.4822 18.7386 46.4831L15.2396 46.4838C15.1359 46.4831 15.0204 46.4915 14.9216 46.4578L14.8919 46.4467C13.9496 46.1062 14.0829 45.2459 14.0805 44.4445L14.0744 42.1651C14.0724 41.7378 14.0099 41.4098 13.9973 41.0284L13.8762 37.7308L13.7184 35.056C13.7058 34.7969 13.7248 34.5218 13.6827 34.2661L13.6551 34.0005C13.5556 33.5243 13.5558 32.334 13.5273 31.7343L13.5122 30.7851C13.5052 30.5685 13.4437 30.3597 13.4346 30.1465L13.4405 16.7377C13.4484 16.2685 13.5129 15.8115 13.5145 15.3445L13.5203 13.289C13.5225 13.1539 13.5429 13.0189 13.5429 12.8842L13.5217 11.5195C13.524 11.283 13.5758 11.0584 13.5849 10.8259L13.7167 7.11178L14.0542 2.80873C14.1001 2.22475 14.0394 1.64692 14.7372 1.50488L33.252 1.50689C33.7228 1.52716 33.8912 1.96573 33.9158 2.3579L34.2292 6.37823C34.2769 7.03631 34.2398 7.95126 34.3434 8.50392C34.3837 8.71851 34.3758 8.94436 34.3775 9.16228L34.4254 14.4377C34.4296 14.6792 34.4919 14.9068 34.4954 15.1469L34.5024 17.7595C34.5099 17.9797 34.5822 18.1874 34.5854 18.405L34.5837 29.857C34.5786 30.0548 34.5147 30.2309 34.5028 30.4218C34.4817 30.763 34.5032 31.1093 34.4915 31.4515L34.3707 33.9338C34.3623 34.0867 34.327 34.2351 34.315 34.3872L34.1883 36.9281C34.1829 37.2888 34.1265 37.6327 34.1129 37.9916L33.9855 41.943C33.9804 42.131 33.9399 42.3127 33.9319 42.5004L33.9192 45.0479C33.9183 45.5987 33.9105 46.0548 33.3652 46.3768L33.3345 46.3945C33.0213 46.5776 32.5375 46.4836 32.1867 46.4839L29.1909 46.4866C28.5819 46.4877 27.8751 46.3695 27.6964 45.6397C27.6334 45.3823 27.6705 45.0469 27.6708 44.7817L27.6668 43.2765C27.6348 41.2488 27.2571 38.9057 26.9302 36.914L25.3126 28.3007C25.205 27.7402 25.0833 27.1646 25.0295 26.5963ZM22.8161 2.63059L20.6722 2.64033C20.5608 2.98464 20.4292 4.47204 20.4112 4.83L25.1367 4.8269L27.4896 4.84715L27.291 2.63241L22.8161 2.63059ZM17.6893 2.67759L15.2656 2.68594C15.2428 2.85597 15.2431 3.02508 15.2236 3.19422L15.0918 4.49995C15.086 4.59729 15.0595 4.73681 15.0853 4.82962L16.9659 4.8269L19.2296 4.84936C19.2367 4.11744 19.3591 3.39361 19.4454 2.6665L17.6893 2.67759ZM28.518 2.67759L28.6983 4.83909L32.9334 4.85175C32.919 4.5054 32.864 4.16625 32.8379 3.82026L32.7834 3.03141C32.7736 2.9234 32.7759 2.7869 32.7414 2.68502L28.518 2.67759ZM14.9145 6.0719C14.8531 6.49078 14.8989 6.91669 14.875 7.33922L14.7923 11.1926C14.7921 11.5711 14.746 11.9592 14.7645 12.3346C15.2163 12.1855 15.482 11.9637 15.7919 11.6098C16.2924 10.8689 16.3546 10.078 16.4404 9.20826L16.6106 6.07247L14.9145 6.0719ZM17.8214 6.07195C17.7416 6.597 17.8055 7.15406 17.7863 7.68469C17.7666 8.22801 17.6831 8.78644 17.6274 9.32808L17.5726 9.99839C17.3685 11.6637 16.5761 13.3976 14.7148 13.557C14.6658 14.242 14.7059 14.935 14.6913 15.6215C14.6848 15.9298 14.6176 16.2293 14.6101 16.5391L14.6087 29.8314C14.6167 30.0959 14.6745 30.3556 14.6855 30.6184L14.8062 33.4177L15.0103 36.9682C15.0259 37.1738 15.0634 37.375 15.0731 37.582L15.0993 38.8969C15.1091 39.102 15.1448 39.3022 15.1604 39.506L15.2196 41.789C15.2236 41.9455 15.2024 42.142 15.2489 42.29L19.2488 42.2524C19.209 41.9832 19.2632 41.6674 19.2874 41.3956L19.4012 40.2029C19.6821 37.4887 20.1719 34.7973 20.7141 32.1227L21.8387 26.4893L22.7616 18.3427C22.8293 17.7375 22.8047 15.4024 23.5574 15.307C23.8902 15.2648 23.8436 15.3159 24.2148 15.2229C25.1018 15.0009 25.0774 16.8124 25.1723 17.414L25.4691 19.8325C25.4877 20.0156 25.497 20.2083 25.5371 20.3881L27.0924 31.1902L27.0966 31.2316C27.1194 31.431 27.1904 31.6532 27.2359 31.8515L28.2594 37.493L28.7623 41.7897C28.7729 41.937 28.7508 42.1586 28.7939 42.2945L32.7601 42.2684C32.6998 41.7328 32.7664 41.1906 32.7853 40.6561L32.9273 37.4132C32.9371 37.2367 32.9833 37.0698 32.9939 36.8944L33.0282 35.7033C33.0361 35.5519 33.0659 35.4045 33.0753 35.2548L33.1344 34.0231C33.1458 33.8704 33.1759 33.7225 33.1849 33.5691L33.298 30.9279C33.3159 30.5662 33.395 30.2075 33.4075 29.8479L33.4146 20.3134C33.4122 19.5103 33.3613 18.8319 33.3251 18.041L33.2806 15.1676C33.2796 14.6477 33.3086 14.1025 33.2515 13.5853L33.225 13.5827C31.3243 13.3631 30.6466 11.628 30.4469 9.97336L30.2136 7.0394C30.2012 6.71958 30.2206 6.396 30.1914 6.07739L23.5569 6.07219C23.5278 6.3112 23.5612 6.56259 23.5658 6.8033L23.5806 12.6823C25.4332 11.9842 24.9443 10.8843 25.5688 10.6411C26.1033 10.4329 26.4105 10.8991 26.3483 11.3671L26.3452 11.3962C26.1756 12.9092 24.3475 14.123 22.8984 13.9668C22.2451 13.8965 22.38 13.2798 22.3802 12.838L22.3814 6.0757L17.8214 6.07195ZM31.391 6.0719C31.3496 7.06669 31.4542 8.02922 31.5515 9.01167C31.6791 10.3001 31.7599 11.9294 33.2819 12.3236L33.1116 6.08437L31.391 6.0719ZM17.3143 43.4856L16.0216 43.4873C15.7794 43.4877 15.5232 43.4718 15.283 43.4989L15.28 44.8117C15.2804 44.9525 15.2547 45.1526 15.2919 45.2826L17.1914 45.2878L19.2165 45.2805L19.2204 44.173C19.2198 43.9521 19.2333 43.7201 19.2033 43.5012L17.3143 43.4856ZM29.4746 43.4856L28.8459 43.4932L28.857 45.2663C28.9845 45.3325 31.8589 45.288 32.2324 45.2878C32.3944 45.2892 32.5817 45.3093 32.7403 45.2824L32.7372 43.497L29.4746 43.4856Z" fill="black"/>
</svg>
