<svg width="48" height="48" viewBox="0 0 48 48" fill="none" xmlns="http://www.w3.org/2000/svg">
<path d="M24.966 32.6071L24.0229 25.5573C23.9933 25.7162 23.9479 25.8761 23.9238 26.0346L22.418 37.8574L22.2422 41.2944C22.2392 41.4369 22.2453 41.5911 22.1817 41.722L22.1649 41.754C21.8931 42.2991 21.446 42.5392 20.8655 42.5411L16.8276 42.5417C16.3805 42.5409 15.9706 42.566 15.552 42.3704C14.385 41.8248 14.2566 40.8636 14.3412 39.7546L15.0863 30.2646L15.0912 23.3535C15.0832 23.0474 15.0282 22.7514 15.0229 22.4421L15.0224 12.262L15.1245 10.3638L15.5748 6.61599C15.647 6.13327 15.6003 5.73282 16.0755 5.46249L31.7234 5.4541C32.1467 5.45837 32.268 5.81884 32.3439 6.1876L32.6784 8.39293C32.6966 8.54391 32.6967 8.69743 32.7193 8.84776L32.8266 9.78516C32.909 10.5686 32.8602 11.3579 32.9556 12.137C33.0182 12.6475 32.9764 13.2062 32.9766 13.7224L32.9022 23.5151L32.9036 30.6213C32.9115 30.8411 32.9601 31.0545 32.9698 31.2737L32.9821 31.9056L33.5702 39.08C33.6221 39.5733 33.6845 40.0742 33.6785 40.5712C33.6662 41.6032 32.7934 42.4539 31.7813 42.5335C31.4659 42.5584 31.1382 42.5418 30.8216 42.542L27.6265 42.5415C26.8805 42.5408 26.1342 42.5896 25.8391 41.6997L25.8263 41.6603C25.7451 41.4238 25.7528 41.1631 25.7444 40.9155L25.5912 38.1117L24.966 32.6071ZM31.0199 6.52627L17.0972 6.5401C16.9561 6.5401 16.8009 6.52749 16.6618 6.54943C16.5905 6.84952 16.593 7.19649 16.5651 7.50512L17.0598 7.51754L31.4529 7.50385C31.3898 7.18473 31.3346 6.85824 31.3215 6.53316C31.2274 6.51146 31.1168 6.52473 31.0199 6.52627ZM22.4579 8.57345L22.4571 9.32654C22.6058 9.3391 22.7502 9.33277 22.8985 9.33765L25.0155 9.37187C25.3038 9.37187 25.9394 9.25529 26.168 9.45582L26.2041 9.48723C26.6074 9.84048 26.4252 10.4131 25.8946 10.4289L24.684 10.4093L24.7065 17.095C25.0914 16.9606 25.5428 16.5455 25.7762 16.2186L25.8017 16.1841C26.2936 15.5125 26.2956 14.8149 26.2967 14.0233L26.2969 12.4515C26.2973 11.959 26.1962 11.5634 26.7832 11.4084C26.9784 11.4479 27.1341 11.4838 27.2507 11.6654L27.3077 11.7798C27.3789 11.9649 27.3602 12.2019 27.3606 12.3985L27.3612 13.303C27.361 13.9149 27.3922 14.5466 27.3457 15.1562C27.245 16.4783 26.1289 17.7062 24.9615 18.2117C24.8536 18.2584 24.7497 18.2708 24.655 18.3466C24.6524 19.2558 24.4901 20.1618 24.5726 21.0665L25.7372 30.0353C25.7619 30.2453 25.771 30.4593 25.8042 30.6681L26.5045 36.3868L26.7161 38.8998C26.7309 39.1074 26.778 39.309 26.7852 39.5157L26.8155 41.0257C26.8162 41.1648 26.8003 41.3078 26.863 41.4362L29.2559 41.4484L31.0187 41.4483C31.6002 41.4477 32.2044 41.5232 32.5115 40.8868L32.5248 40.86C32.6949 40.5071 32.597 40.1621 32.5579 39.7914L32.0508 34.1108C31.1301 34.4219 30.2589 33.8352 29.9701 32.9561L29.7317 31.4155C29.6607 30.9129 29.536 30.3832 29.6239 29.8751C29.7732 29.0112 30.6324 28.0124 31.4967 27.85C31.5963 27.8313 31.7262 27.8366 31.8158 27.7925L31.8125 25.2854C31.2765 25.6018 30.7767 25.953 30.5192 26.5518C30.4019 26.8246 30.4661 27.0447 30.1346 27.1802C29.2802 27.5294 29.309 26.4892 29.626 25.8699C30.0007 25.1379 30.777 24.4343 31.5669 24.1726L31.831 24.1037L31.8533 11.6822C29.8884 12.2003 27.3507 11.2207 27.1181 8.97666C27.1045 8.84588 27.1125 8.71566 27.0905 8.58554L22.4579 8.57345ZM18.9604 8.58915L16.3943 8.59862L16.1913 10.512C16.4571 10.6123 16.7635 10.6392 17.044 10.6871C18.7285 10.7079 19.4977 10.1761 19.8609 8.60396L18.9604 8.58915ZM29.1431 8.58915L28.1717 8.5936C28.2319 9.26527 28.4232 9.70932 28.9466 10.1623L29.0625 10.2444C29.6594 10.6335 30.2684 10.7169 30.9668 10.686C31.2613 10.648 31.5441 10.5931 31.826 10.4984L31.6362 8.58484L29.1431 8.58915ZM20.8945 8.61024C20.7195 10.691 19.0663 11.9769 17.0006 11.7794L16.1427 11.6309C16.0725 12.0534 16.1028 12.5043 16.1026 12.9324L16.1051 22.3154C16.1083 22.9031 16.1818 23.5105 16.1781 24.0585C17.1536 24.4329 17.9667 24.9667 18.4216 25.9454L18.6001 26.4365C18.6972 26.7567 18.6138 27.1168 18.2344 27.1915L18.2031 27.1981C17.6215 27.3074 17.6142 26.6902 17.4258 26.3312C17.2272 25.9526 16.6478 25.3401 16.1951 25.2495L16.1998 27.7322C16.3355 27.8033 16.4865 27.8193 16.6289 27.8716C17.2805 28.1108 17.9338 28.6865 18.2032 29.3208C18.5618 30.1651 18.3132 31.0118 18.1898 31.8751C18.0509 32.8471 18.0535 33.7931 16.8465 34.138C16.4988 34.2373 16.2665 34.1545 15.9327 34.1152L15.629 37.5526L15.4295 39.7094C15.3725 40.3631 15.2298 41.245 16.1818 41.4376C16.3252 41.4667 16.5131 41.4476 16.6604 41.448L21.1704 41.4414C21.2258 40.8779 21.1662 40.3058 21.1992 39.7412C21.2097 39.5623 21.2517 39.3887 21.2638 39.211L21.3038 38.1915C21.3157 38.0122 21.35 37.8304 21.3676 37.6508L22.162 30.6775L23.262 22.7931C23.2867 22.5195 23.3398 22.2493 23.3546 21.9747L23.409 20.9681C23.4506 20.2868 23.585 19.6099 23.626 18.9308L23.6325 10.4026L22.2278 10.3906C21.4136 10.3887 21.3987 10.3547 21.3969 9.43974L21.3968 8.77899C21.397 8.59627 21.4274 8.61788 21.2349 8.60832L20.8945 8.61024ZM16.1787 28.841C16.1937 29.3064 16.2209 29.7789 16.1384 30.2393C16.0581 30.6872 16.1134 31.2063 16.0986 31.6642C16.0865 32.0375 16.0179 32.4115 16.0086 32.7867C15.9964 33.2806 16.68 33.082 16.8918 32.8218L16.9034 32.8059C17.0507 32.5363 17.0606 32.171 17.0985 31.8697L17.2889 30.5978C17.396 29.8565 17.125 29.3491 16.4329 28.9727L16.1787 28.841ZM31.7955 28.9103C31.2851 29.1381 30.9424 29.4244 30.7272 29.9298L30.7084 29.9732C30.616 30.1899 30.6654 30.3757 30.7049 30.5978L30.9885 32.5763C31.0002 32.6615 31.0197 32.7582 31.0698 32.8291C31.3208 33.0686 31.5465 33.1699 31.8686 33.0156L31.9417 32.9797L31.7955 28.9103Z" fill="black"/>
</svg>
