<svg width="48" height="48" viewBox="0 0 48 48" fill="none" xmlns="http://www.w3.org/2000/svg">
<path d="M25.1005 32.395C25.0463 32.2077 25.0341 31.9967 25.0012 31.8042L24.3476 27.7219C24.2336 27.057 24.1042 26.3828 24.0407 25.7113L24.0121 25.7126C23.9772 25.9963 23.8774 26.3648 23.8315 26.6833L22.9714 32.2144C22.7544 33.6044 22.6117 35.0281 22.2879 36.398C22.0277 37.4988 21.5222 38.6383 21.2921 39.6731L20.5065 43.9899C20.2256 45.2367 19.0459 44.9805 18.1056 44.9809L13.4389 44.9808C13.1807 44.9805 12.8428 45.0237 12.5981 44.9595C11.7968 44.7497 11.5301 44.2236 11.5284 43.4801L11.4566 41.1641C11.4432 40.5052 11.3887 39.9818 11.3361 39.3359L11.1882 36.9133L11.1826 32.2298L11.273 30.218L11.7506 24.5961L13.0158 13.0308C13.2514 10.8962 13.5487 9.68044 14.2966 7.61325L13.9721 7.42547C12.9382 6.81342 12.4027 5.06531 13.5356 4.29736C13.9166 4.03909 14.395 3.8964 14.8039 3.67842C15.2493 3.441 15.5591 3.13958 16.0637 3.02769L31.0106 3.01631C31.2144 3.01636 31.5176 2.9771 31.7034 3.05805L31.7348 3.07242C32.2023 3.26806 32.6399 3.56114 33.0915 3.79489C33.91 4.21856 34.4613 4.28686 34.7899 5.26195L34.8168 5.35129C34.9213 5.83734 34.7857 6.39225 34.5241 6.80709L34.501 6.84328C34.2091 7.30687 33.9335 7.34789 33.703 7.61672C34.1064 8.46806 34.1578 9.14508 34.4216 9.94664L34.6017 10.6987C34.7159 11.0484 34.7311 11.449 34.7855 11.812L35.0244 13.4295L35.4386 17.8237L35.9459 21.9803L36.5093 27.2987L36.9066 32.7109L36.9075 35.5215C36.9015 35.7332 36.8535 35.9416 36.8499 36.1519C36.8306 37.2998 36.8924 38.4567 36.8163 39.6026L36.7035 40.5933C36.5788 41.3767 36.6286 42.148 36.6281 42.9391C36.6276 43.7991 36.5722 44.5597 35.6511 44.9206L35.6245 44.9308C35.2695 45.0708 34.7727 44.9805 34.3969 44.9808L29.9452 44.9806C29.166 44.9811 28.2328 45.1063 27.8502 44.1689C27.6992 43.7988 27.7176 43.3219 27.6531 42.9259C27.3914 41.3188 26.6508 39.8291 26.2108 38.2721C25.7789 36.7433 25.5363 35.1794 25.304 33.6106L25.1005 32.395ZM16.2569 4.43056C15.8424 4.67774 15.4339 4.93312 15.0009 5.14528C14.7663 5.26026 14.4712 5.3295 14.256 5.46534C14.2113 5.89931 14.7189 6.42919 15.1344 6.46701L31.4652 6.47339L32.2987 6.47629C32.4625 6.47901 32.6308 6.50479 32.7925 6.47672L32.8372 6.4695C33.0432 6.42783 33.3011 6.1672 33.3995 5.98912C33.7043 5.4374 32.9567 5.31417 32.5492 5.10684L31.4323 4.49242C31.1311 4.32515 29.9766 4.42975 29.5884 4.43003L16.2569 4.43056ZM32.0751 7.81523L29.1836 7.84369C29.4467 8.64947 30.1767 9.46031 30.9026 9.86245C31.5845 10.2573 32.382 10.4451 33.1673 10.4534C33.0694 10.0931 32.5358 8.01258 32.2978 7.8149L32.0751 7.81523ZM15.9199 7.83661L15.6534 7.84434L14.8427 10.4745C15.7255 10.3939 16.3933 10.2784 17.1951 9.8333C17.8571 9.44086 18.4971 8.71256 18.7927 7.98708L18.8657 7.84345C18.8425 7.8232 18.8587 7.83248 18.8107 7.83253L15.9199 7.83661ZM23.6429 7.83684L20.3199 7.8419C20.2456 7.96401 20.2324 8.07815 20.1817 8.20589C19.2296 10.6058 17.1614 11.8987 14.5604 11.8541C14.5294 12.0254 14.54 12.1923 14.517 12.3625L13.7256 19.8249L13.2161 24.1006L12.5096 32.1663C12.4965 32.2957 12.4603 32.4147 12.4546 32.551L12.47 37.3941C12.481 37.5935 12.5258 37.7871 12.5381 37.9876L12.6131 39.2153C12.6303 39.537 12.6307 39.8655 12.6861 40.1835C13.425 39.94 14.0775 39.8418 14.8604 39.8198L19.8412 39.8612C20.1178 38.4957 20.7158 37.2179 21.0003 35.8472L22.3999 27.1227L23.2039 20.7733C23.303 20.0484 23.2728 19.341 23.2734 18.6089L23.2738 17.5139C23.2767 16.3069 23.5363 16.58 24.3475 16.3472L24.3889 16.3358C25.8796 15.9135 26.2678 14.6942 26.269 13.3383L26.2704 7.83239L23.6429 7.83684ZM27.6897 7.83937C27.624 8.02973 27.6309 8.23744 27.6305 8.43347L27.6297 13.7452C27.6286 14.2836 27.5648 14.7305 27.3772 15.2404C26.9537 16.3913 26.0651 17.2127 24.9161 17.5932C24.8278 17.6225 24.6895 17.6385 24.6167 17.6914L24.6056 18.8156C24.5983 19.0747 24.5209 19.35 24.6376 19.5923C24.8305 19.993 24.8109 20.5069 24.851 20.9436L25.0144 22.4761C25.0786 23.0702 25.1522 23.6644 25.2272 24.2573L26.1611 30.5685L27.1996 36.7147L28.0825 39.6558C28.1429 39.8284 28.188 40.194 28.3076 40.3262C29.694 39.8825 30.9032 39.7686 32.3683 39.7707C33.3822 39.7693 34.4114 39.8552 35.3635 40.2228C35.3941 39.9048 35.4439 39.5901 35.4598 39.2708L35.4652 35.9294C35.4675 35.5632 35.5339 35.213 35.5544 34.8511L35.5561 32.5358C35.5448 32.2298 35.4879 31.9258 35.4659 31.6204L35.0694 26.9917L34.1493 18.7144L33.8486 15.0895L33.5545 12.7847C33.5089 12.4839 33.4226 12.1872 33.3844 11.8854C31.0096 11.746 28.9344 10.8199 27.9716 8.45081C27.8948 8.26205 27.8465 8.00039 27.7369 7.83408L27.6897 7.83937ZM14.8765 41.1395L14.7354 41.1439C14.1155 41.166 13.2911 41.3282 12.7839 41.677L12.7879 41.7144C12.823 42.0577 12.7524 43.3032 12.8245 43.5064C13.318 43.5585 13.857 43.5168 14.3549 43.5167L17.4262 43.5153L19.1331 43.5183C19.1914 42.7207 19.4605 41.944 19.508 41.148L14.8765 41.1395ZM30.7897 41.2302C30.3971 41.2628 28.9024 41.4665 28.6011 41.7254L28.7899 42.5012C28.8603 42.8428 28.9166 43.1605 28.9598 43.5091L33.0824 43.5153L35.2511 43.5208L35.2543 42.3459C35.2536 42.1125 35.2703 41.8641 35.2418 41.6335C34.1731 41.2886 33.5097 41.2255 32.3851 41.226L30.7897 41.2302Z" fill="black"/>
</svg>
