<svg width="48" height="48" viewBox="0 0 48 48" fill="none" xmlns="http://www.w3.org/2000/svg">
<path d="M25.3655 32.9287L23.9801 24.9769C23.7688 25.8702 23.6566 26.8003 23.4848 27.7035L22.4182 34.5248L22.1244 37.5238C22.0671 38.1496 22.0991 41.3042 22.0006 41.4605L21.9845 41.4847C21.862 41.6825 21.6402 41.9405 21.3869 41.9518L15.1126 41.9631C14.2673 41.9709 14.1577 41.4769 14.1261 40.8127L13.717 34.5966L13.6953 33.4157C13.6865 33.1344 13.6347 32.8602 13.6212 32.5808L13.5892 31.2779C13.5813 31.1377 13.5521 31.0035 13.5418 30.8645L13.4002 27.7298L13.3044 24.9378C13.2976 24.7443 13.2508 24.5548 13.2443 24.3639L13.2393 20.0165C13.2373 16.1778 13.3789 14.0172 14.8077 10.4118C14.6555 10.332 14.4859 10.3279 14.3339 10.2261C13.8423 9.89691 13.8104 9.42342 13.8057 8.89261L13.8027 7.9642C13.8028 7.1168 13.802 6.28514 14.8911 6.05297C15.031 6.0428 15.1655 6.06075 15.3049 6.06295L32.5778 6.06136C32.7461 6.05325 32.9596 6.01973 33.1237 6.06173L33.3928 6.1365C33.6671 6.24272 33.9419 6.54947 34.0574 6.81445L34.1142 6.92339C34.188 7.07522 34.1829 7.2742 34.184 7.43817L34.1872 8.0722C34.1891 8.56575 34.2766 9.17958 34.0928 9.65076L34.0297 9.7972C33.8403 10.1587 33.5729 10.292 33.196 10.4043L33.2121 10.4529C33.2582 10.6057 33.3372 10.7457 33.3905 10.8964L33.8287 12.2151C33.8374 12.2517 33.8456 12.2856 33.8585 12.3211L33.9468 12.6209C33.9873 12.7327 34.0017 12.8471 34.0317 12.9613L34.3377 14.3206C34.5458 15.1326 34.7023 16.4978 34.7488 17.3792L34.7563 25.0626C34.7511 25.2758 34.6955 25.4781 34.6904 25.6895L34.6717 27.5589C34.6589 27.8786 34.6007 28.1917 34.5832 28.5111L34.5571 29.9398C34.5491 30.0833 34.518 30.2219 34.5059 30.3636L34.3622 33.1484L34.0304 38.2581C33.9835 38.8627 33.9421 39.5666 33.9237 40.1778L33.8754 41.0092C33.7808 41.9851 33.3098 41.9498 32.4495 41.9512L28.018 41.9512C27.1346 41.95 25.9836 42.2537 25.9713 40.9846L25.908 38.4784C25.895 38.061 25.9218 37.5953 25.8471 37.1854L25.3655 32.9287ZM15.1704 7.46728L15.1603 8.97108L20.6018 9.47226L22.3824 9.55303L27.7363 9.45717L32.3676 9.01697C32.5209 8.99944 32.6803 9.00319 32.8314 8.97544L32.8333 7.46123L15.1704 7.46728ZM16.2197 10.4417L15.4699 12.5277C15.4079 12.7171 14.9879 14.1821 15.036 14.3443C15.7384 14.3411 16.3146 14.2559 16.9404 13.9494C17.9446 13.254 18.6696 11.93 18.5171 10.6794C17.7815 10.4811 16.9732 10.532 16.2197 10.4417ZM31.6008 10.4886L29.3673 10.6725C29.3295 11.9813 29.9515 13.2962 31.1015 13.9569C31.7323 14.2501 32.2717 14.3113 32.9634 14.31C32.6939 12.9988 32.2479 11.7302 31.7698 10.4827C31.712 10.4814 31.6584 10.4823 31.6008 10.4886ZM19.8785 10.8097C19.774 12.4478 19.5007 13.5988 18.1731 14.7542C17.2268 15.5778 16.0986 15.7327 14.9097 15.7283C14.6992 15.7275 14.726 15.7008 14.7082 15.9245C14.67 16.4074 14.6335 17.0705 14.6159 17.5591L14.6127 25.8244C14.6208 26.0412 14.6716 26.255 14.6794 26.473L14.7317 28.2191C14.7406 28.4035 14.7794 28.5853 14.788 28.7699L14.9162 31.8636C14.9279 32.0638 14.9702 32.2607 14.9817 32.4613L15.007 33.6831C15.0131 33.787 15.0408 33.8852 15.0487 33.9867L15.1897 36.7503C15.1974 36.8858 15.2291 37.0177 15.2377 37.1508L15.2922 38.4427C15.3019 38.6139 15.3361 38.7816 15.345 38.9535L15.4132 40.1956C15.4245 40.3225 15.4154 40.4554 15.4499 40.5785L20.7386 40.5719L20.749 38.1991L21.0354 34.5435L21.6082 30.4492L23.2642 21.9237C23.3138 21.7094 23.3535 21.4237 23.5124 21.2619C23.8809 20.8866 24.4912 20.9975 24.6579 21.516C24.8392 22.0797 24.8896 22.6972 25.0321 23.2738L25.7356 26.8597C25.7597 26.9714 25.7589 27.0885 25.7827 27.1995L26.3557 30.4151C26.4075 30.6914 26.4765 30.9805 26.4986 31.2602L26.5738 31.7428C26.7047 32.3429 26.7394 32.9678 26.8303 33.5745L27.1754 36.8945C27.1944 37.1788 27.238 37.4608 27.2463 37.7453L27.2561 39.6749C27.2562 39.9641 27.2298 40.283 27.2681 40.5686L32.487 40.5695C32.5312 40.5695 32.5433 40.58 32.5753 40.5498L32.6281 39.2797C32.643 38.8715 32.697 38.4791 32.7188 38.0743L32.7481 37.2308C32.7565 37.0117 32.7941 36.7982 32.8078 36.5805L33.0307 32.4759C33.0398 32.3019 33.0732 32.1333 33.0844 31.9602L33.2886 28.0785C33.3151 27.2404 33.384 26.4006 33.3869 25.5726L33.4289 18.9198L33.1992 15.7306C32.4179 15.73 31.6942 15.6661 30.9514 15.3937C29.5447 14.8779 28.4665 13.4965 28.1641 12.0515L28.0556 11.4495C28.0304 11.2763 28.0563 11.0104 27.9744 10.862L26.8272 10.8689C26.566 10.8707 26.3019 10.8642 26.0422 10.896L26.0579 12.7527C26.0686 12.9419 26.1248 13.1085 26.1313 13.2968L26.1535 14.2563C26.1642 14.715 26.2293 15.1597 26.239 15.6198C26.2733 17.234 26.0555 18.7273 24.1225 19.1328C24.016 19.1552 23.9088 19.185 23.801 19.1602L23.7621 19.1517C23.5583 19.1042 23.3947 18.985 23.2878 18.8021C23.2072 18.6642 23.2533 17.21 23.2533 16.9327L23.2542 11.4305C23.2542 10.6987 23.2546 10.8811 22.3927 10.8739L20.9951 10.8667C20.6209 10.8652 20.2481 10.8773 19.8785 10.8097ZM24.5923 10.9603C24.5455 11.3587 24.5746 11.7739 24.5749 12.1748L24.5729 16.3604C24.5727 16.7126 24.5416 17.0963 24.5913 17.4438L24.7511 17.2274C24.9747 16.8071 24.8839 16.3529 24.8761 15.9013L24.8681 11.2935C24.8679 11.2154 24.879 11.1104 24.8642 11.0355L24.5923 10.9603Z" fill="black"/>
</svg>
