<svg width="48" height="48" viewBox="0 0 48 48" fill="none" xmlns="http://www.w3.org/2000/svg">
<path d="M25.0952 37.5675C25.1058 37.5061 25.0689 37.3791 25.0623 37.3117L24.0329 28.0201C23.9023 28.2956 23.8868 29.0284 23.8563 29.3435L22.4138 41.9544C22.3027 42.6976 22.4342 43.1073 21.5881 43.1077L13.5607 43.113C12.9044 43.0988 12.9519 42.2794 12.9108 41.8158L12.785 40.4209L12.4052 34.8011L12.3742 33.5882C12.3638 33.4062 12.324 33.2283 12.3109 33.0466L12.0906 28.7724C12.085 28.6705 12.092 28.5318 12.0593 28.4358L12.0293 28.3474C11.975 28.1286 11.9918 27.8486 11.9883 27.6227L11.9824 12.5651C11.9836 11.921 11.9819 11.5358 12.0672 10.9068L12.119 10.3943C12.1911 9.88421 12.3045 9.36615 12.432 8.86749C12.5235 8.50899 12.6885 8.12719 12.719 7.76007C12.7613 7.25073 12.728 6.7142 12.7283 6.20209C12.7288 5.56951 12.6366 4.9802 13.4048 4.83301L34.2268 4.84726C34.6362 4.84801 34.9489 4.80287 35.1765 5.2126L35.1929 5.24274C35.4162 5.64287 35.1168 7.36552 35.3579 8.15237C35.5259 8.70057 35.6903 9.25904 35.78 9.82585C35.865 10.3621 35.9592 11.0225 35.9812 11.5662L35.9927 28.1919L35.8659 30.3982C35.8569 30.5273 35.8302 30.6564 35.819 30.7849L35.4105 37.4412L35.0735 41.6309C34.9992 42.8679 35.2038 43.1078 33.737 43.1082L26.1727 43.1127C25.653 43.0893 25.6364 42.5871 25.5812 42.1809L25.0952 37.5675ZM14.0499 6.18535L14.0424 7.04973L33.9355 7.05427L33.9176 6.18755L14.0499 6.18535ZM19.699 8.40765C19.6902 8.68913 19.6873 8.99776 19.646 9.29138C19.2817 11.8833 17.3762 13.6613 14.8375 13.9906C14.3799 14.05 13.3245 13.9958 13.308 14.0124C13.2998 14.0207 13.3008 14.2276 13.3001 14.2623L13.3036 27.1675C13.3168 27.4968 13.3832 27.8911 13.4032 28.2525L13.7855 35.0872C13.7961 35.2738 13.8355 35.4537 13.8455 35.6413L13.8795 36.656C13.8877 36.7703 13.9128 36.8822 13.9227 36.9959L14.0375 38.7881C14.0382 38.8534 14.0243 38.9418 14.0531 39.0005L16.9102 39.0022L21.3882 39.0013L23.1912 23.375C23.2148 23.2049 23.2436 23.024 23.283 22.8568C23.4134 22.3047 23.3174 21.7563 23.2762 21.1957L23.2419 8.70174C23.2416 8.61488 23.2571 8.49502 23.2287 8.41557L19.699 8.40765ZM13.9346 8.41716C13.8682 8.8981 13.7092 9.36934 13.6077 9.83734C13.4627 10.5062 13.2467 11.971 13.3332 12.6695L14.1934 12.6698C15.1455 12.6676 16.0072 12.3689 16.7703 11.7819C17.6527 11.0546 18.1897 10.0708 18.2965 8.93002L18.3304 8.41538L13.9346 8.41716ZM24.5661 8.41557L24.5836 17.994C24.8112 17.72 25.0155 17.7873 25.2932 17.2329C25.5863 16.444 25.442 15.5248 25.4422 14.699L25.4439 9.73623C25.4505 8.35871 25.8974 8.75673 26.0408 8.49432C25.593 8.35055 25.0356 8.41482 24.5661 8.41557ZM26.8264 8.41763L26.6807 8.44623C26.7661 8.93269 26.7869 9.43384 26.7876 9.92663L26.7871 15.9318C26.7868 16.3772 26.7892 16.7893 26.717 17.2296C26.5412 18.3012 25.6763 19.2134 24.6084 19.4085L26.6045 39.0105L32.4023 39.0022L33.4413 39.0028C34.185 39.0027 33.8791 39.0888 34.0067 38.3767C34.0786 37.9757 34.0355 37.5369 34.0576 37.1298C34.0802 36.7118 34.1191 36.2896 34.1467 35.8709L34.4942 30.9419L34.6294 28.2039C34.6442 28.017 34.6747 27.8304 34.6819 27.6431L34.6724 14.0266C34.5628 13.9966 34.412 14.015 34.297 14.0152C33.5798 14.016 32.8722 14.0149 32.1754 13.813C29.9322 13.1631 28.3751 11.0193 28.3463 8.70273C28.3452 8.61076 28.357 8.51152 28.3337 8.42209L26.8264 8.41763ZM29.7188 8.41557C29.632 10.0449 30.5114 11.5404 31.9922 12.2579C32.8316 12.6646 33.7506 12.6891 34.6645 12.6714L34.6762 12.641C34.6505 12.4173 34.6699 12.1736 34.6661 11.9471C34.656 11.3474 34.3205 8.93396 34.0442 8.4167L29.7188 8.41557ZM14.1666 40.3464C14.1278 40.4188 14.2098 41.5891 14.2455 41.7896L20.3111 41.7901C20.5644 41.7905 20.8365 41.8104 21.0876 41.7805L21.0992 41.7058L21.2443 40.3482L14.1666 40.3464ZM28.7461 40.339L26.6996 40.3724C26.7637 40.7167 26.7591 41.5436 26.8597 41.7709C27.0372 41.8345 27.3814 41.7909 27.5813 41.7908L31.8164 41.79L33.753 41.7901L33.8281 40.3558C33.3578 40.3148 32.8715 40.3384 32.3992 40.3382L29.1157 40.339C29.0021 40.3391 28.8565 40.3563 28.7461 40.339Z" fill="black"/>
</svg>
