<svg width="48" height="48" viewBox="0 0 48 48" fill="none" xmlns="http://www.w3.org/2000/svg">
<path d="M22.5382 36.5446C22.4477 36.9858 22.4168 37.4426 22.3554 37.8885L21.6639 43.523C21.6316 43.9497 21.5856 44.4823 21.0305 44.5446L21.0001 44.5474C20.6093 44.5852 20.1968 44.56 19.8038 44.5601L14.329 44.5671C13.8838 44.5711 13.44 44.5327 13.2261 44.0597L13.212 44.027C13.1314 43.851 13.1425 43.6842 13.1168 43.4965L12.9651 41.982C12.942 41.6835 12.9205 41.3939 12.8812 41.0973L12.0849 29.8237C12.0024 29.3216 12.0118 28.8076 11.984 28.301L11.841 26.273C11.7988 25.5978 11.7544 24.9206 11.7166 24.2457L11.6376 22.9282C11.6089 22.3918 11.5545 21.8914 11.5322 21.3392L11.533 17.3904C11.5546 16.8175 11.6769 16.2418 11.6954 15.6676L11.6663 13.5993C11.6883 12.2367 11.9794 10.6001 12.3055 9.28086L12.646 7.90381C12.8034 7.20955 12.8443 6.55372 12.8187 5.83808C12.8036 5.41803 12.7593 4.97385 12.8192 4.55688C12.9175 3.87155 13.5437 3.34822 14.2418 3.46068L16.5777 3.83318L20.9638 4.1429L26.9806 4.14179L31.2775 3.8387L33.854 3.42922C34.0163 3.40918 34.2233 3.44664 34.3713 3.51422L34.5685 3.61592C35.2254 4.03447 35.2242 4.69128 35.2255 5.37561L35.2243 6.59253C35.2239 6.88349 35.1829 7.23739 35.2791 7.51517L35.7964 9.27716C35.8271 9.43072 35.8709 9.59642 35.9199 9.74422L36.1297 10.4662C36.5883 11.7378 36.7633 14.1541 36.8563 15.5343C36.8694 15.7284 36.9168 15.916 36.9261 16.1129L36.9384 27.6587C36.9291 27.9086 36.8636 28.1551 36.8525 28.4082C36.8348 28.8088 36.8613 29.2117 36.8341 29.612L35.3523 42.9762C35.1918 44.2644 35.3301 44.5765 33.9562 44.5627L28.1853 44.5629C27.9004 44.565 27.4777 44.6461 27.2189 44.5035L27.0587 44.4044C26.9084 44.2873 26.7624 44.1021 26.7377 43.9087L24.0099 27.8976C23.8913 28.1461 23.864 28.4331 23.8214 28.7019L22.5382 36.5446ZM33.7716 4.81602L31.8164 5.12727L29.4109 5.3488C29.213 5.3645 29.0184 5.40528 28.8205 5.41724L26.1435 5.50892L20.7137 5.47611L16.867 5.22167L14.1355 4.84869C14.1185 5.00891 14.1479 5.14953 14.1531 5.30821L14.1558 6.29258C14.2074 6.34902 14.2955 6.34677 14.3703 6.35956L19.527 7.01089C19.7427 7.0551 19.9841 7.04281 20.2041 7.04464L21.3653 7.05706C21.6633 7.06836 21.9537 7.12742 22.2509 7.13764L27.8495 7.14144C28.0806 7.1316 28.3045 7.09166 28.532 7.07305L30.0001 6.96116C31.0402 6.87224 32.094 6.76105 33.1056 6.49124C33.2963 6.44038 33.7203 6.37635 33.863 6.32042L33.8624 5.396C33.8621 5.20236 33.8736 5.0016 33.8491 4.80927L33.7716 4.81602ZM14.0976 7.65388L13.7493 9.12852C13.3853 10.6333 13.1954 11.6312 13.1025 13.1598L13.0235 16.4263C14.3114 16.3383 15.2977 16.1277 16.3532 15.2955C17.7056 14.118 17.8677 12.9892 18.129 11.3361L18.5914 8.27769L14.0976 7.65388ZM33.8906 7.69883C33.4979 7.81006 33.0908 7.88591 32.6903 7.96428L30.3294 8.30338C30.1701 8.31777 29.9946 8.31913 29.8396 8.35714L29.9388 9.07921C30.0131 9.4558 30.0524 10.1965 30.0649 10.6053L30.0714 11.472C30.0724 11.911 30.1698 12.353 30.3301 12.7613L30.4973 13.1924C30.9089 14.139 31.3962 14.9721 32.2612 15.5728C33.0009 16.0456 34.6082 16.5168 35.4975 16.3294C35.5071 15.8396 35.4931 15.3591 35.449 14.8707L35.3681 14.191C35.2725 13.1265 35.1227 12.0521 34.8597 11.0135L34.0433 8.11269C34.0146 7.99747 33.995 7.78836 33.9219 7.70099L33.8906 7.69883ZM19.964 8.38991C19.8907 8.68461 19.8293 8.9938 19.7891 9.29928L19.7227 9.9043C19.5531 10.9892 19.4438 12.09 19.188 13.1598C18.4592 16.2074 15.8753 17.7963 12.8716 17.7873C12.818 18.3682 12.8199 18.9501 12.8198 19.5329L12.8268 20.8235C12.8378 21.0934 12.8937 21.3529 12.9125 21.6207L13.2856 27.3945L13.3219 28.3855C13.3286 28.4849 13.3551 28.5812 13.3614 28.6787L13.4167 29.9326C13.4251 30.0724 13.4558 30.2063 13.4627 30.3462L13.5075 31.359L14.1976 40.631C14.2038 40.7163 14.1921 40.8178 14.2204 40.8973H18.8321L20.6263 40.8965L21.318 35.4315L22.5936 27.7613L23.4264 23.5065C23.6395 22.5138 23.6652 22.9389 24.3049 22.4985C25.5414 21.6474 26.2043 20.0279 25.8408 18.554C25.6361 17.7244 25.598 16.8898 25.5959 16.042L25.5927 9.11389C25.5929 8.93024 25.62 8.69431 25.585 8.51736L19.964 8.38991ZM27.1577 8.5077L26.9826 8.52749C26.9233 8.75328 26.9638 9.0717 26.9646 9.30631L26.972 17.0778C26.9761 17.2491 26.9948 17.4232 27.0339 17.59L27.2171 18.6433C27.6007 20.2651 26.6891 22.3944 25.3829 23.3865C25.3174 23.4362 24.7446 23.7837 24.7385 23.7954C24.7131 23.844 25.0083 25.8173 25.0551 26.027L27.0486 36.4215L27.4659 39.0753C27.4771 39.1667 27.5094 39.2537 27.521 39.3451L27.6931 40.6076C27.7108 40.7067 27.6967 40.8043 27.7391 40.8973L32.8943 40.8973L34.2367 40.8974L35.4532 29.818L35.4847 29.0646C35.501 28.8247 35.5368 28.5858 35.5432 28.3454L35.6089 25.8197L35.6107 18.2671C35.6099 18.0952 35.6207 17.9133 35.599 17.7427C32.155 17.8797 29.9309 16.1574 28.9343 12.9217C28.7809 12.4238 28.6985 11.9441 28.6955 11.4245L28.6896 10.1268C28.668 9.59113 28.5715 9.04541 28.4992 8.5146C28.3683 8.48356 28.1928 8.50438 28.0562 8.50536L27.1577 8.5077ZM14.3631 42.2592C14.3499 42.5415 14.3823 42.8936 14.4216 43.1719L20.3656 43.1744L20.4422 42.2609L14.3631 42.2592ZM27.9368 42.2617C27.921 42.5741 27.9922 42.8847 28.0162 43.1897L33.9764 43.1747L34.0522 42.2696C33.7634 42.239 33.4544 42.2588 33.1631 42.2587L29.1256 42.259C28.7326 42.2592 28.3284 42.2406 27.9368 42.2617Z" fill="black"/>
</svg>
