<svg width="48" height="48" viewBox="0 0 48 48" fill="none" xmlns="http://www.w3.org/2000/svg">
<path d="M25.4075 23.6961C25.1271 22.7656 24.9216 21.8557 24.7743 20.8943L24.484 19.0423C24.4096 18.6836 24.3841 18.3881 24.1104 18.1189C23.5366 18.2091 23.559 19.0366 23.4864 19.4763L22.5492 23.531C22.4119 23.996 22.2009 24.4509 22.1261 24.933C22.1045 25.0727 22.1026 25.2248 22.0708 25.3612C21.9447 25.9017 22.1001 26.4728 21.9865 27.0032C21.8847 27.4786 21.8685 27.9928 21.8014 28.476L21.4236 30.8787C21.0483 33.3393 20.579 35.7801 20.3529 38.2615L20.3069 39.2409C20.2957 39.4514 20.2485 39.6562 20.2389 39.867L20.2301 42.4783C20.2278 43.3918 19.4095 43.1992 18.7689 43.1997L15.0573 43.1999C14.0185 43.1994 13.6158 43.4019 13.6211 42.0818C13.6307 39.715 14.2736 37.4052 14.4341 35.0474L14.5285 33.0308C14.5481 31.9773 14.486 30.9085 14.5443 29.8578L14.7394 26.3999C14.7911 25.7274 14.9307 25.0793 14.9059 24.3982C14.8878 23.9003 14.796 23.3956 14.7516 22.899L14.5459 20.2425C14.5204 19.883 14.5314 19.5156 14.5301 19.1552L14.5326 15.4592C14.5404 13.7037 14.7541 11.9486 15.1732 10.242L15.6885 8.35683C15.8028 7.90229 15.8594 7.10358 15.6506 6.70351C15.2483 5.93274 15.6985 4.95915 16.5797 4.79865C16.7936 4.75965 17.0337 4.77788 17.2512 4.77788L30.6704 4.77755C30.8512 4.77324 31.0325 4.75243 31.2126 4.77493L31.2542 4.78069C32.2332 4.9036 32.6623 5.86205 32.2046 6.73332C32.0081 7.10743 32.0872 7.34471 32.0141 7.73776C31.9987 7.82077 32.1187 8.03335 32.1563 8.12087L32.8218 10.3948C33.1299 11.3186 33.3029 12.9788 33.3765 13.9802L33.5391 16.2795L33.5375 19.8115L33.3868 21.9148C33.3157 22.7442 33.2625 23.5774 33.1242 24.4003C33.0381 24.9129 33.1268 26.1733 33.204 26.7654L33.5361 29.6013L33.7464 33.4075C33.7578 33.6548 33.8083 33.894 33.8158 34.1419L33.8352 36.0674C33.8447 36.2967 33.8982 36.5223 33.911 36.7498C33.9329 37.14 33.9089 37.5296 33.9462 37.9201C34.026 38.7548 34.1898 39.5533 34.3601 40.3709C34.4993 41.0386 34.7424 43.1039 33.9423 43.1905C33.5829 43.2294 33.1901 43.1993 32.8277 43.1996L29.0075 43.1999C28.6111 43.1997 28.2267 43.3079 27.9737 42.9293L27.9531 42.8978C27.8225 42.7043 27.8638 42.4398 27.8637 42.2138L27.8549 41.1781C27.8448 40.7661 27.7825 40.3626 27.7523 39.95L27.4394 36.3954L26.913 32.6546L26.3892 29.8426L26.0025 26.5505C25.877 25.2367 25.8629 24.9703 25.4075 23.6961ZM16.873 6.02752L16.8098 6.05007C16.8514 6.27587 16.9669 6.50016 17.0246 6.72708L17.1265 7.14821C17.1533 7.27908 17.1559 7.38005 17.2247 7.49776L22.8461 7.50043C23.0612 7.50019 23.3347 7.5308 23.5391 7.46569L23.3486 7.20802L23.3293 7.18276C23.2591 7.08826 23.2302 7.01668 23.2016 6.90212L23.1935 6.87099C23.163 6.74607 23.1813 6.63155 23.2314 6.5154L23.2412 6.49126C23.3095 6.33657 23.5178 6.18474 23.6715 6.13041L16.873 6.02752ZM24.9513 6.02715C24.7853 6.04158 24.6101 6.04013 24.4484 6.08054L24.4643 6.33666C25.0906 6.85374 24.7612 7.02493 24.5623 7.45191C24.8701 7.50507 25.1775 7.49748 25.4886 7.49808L30.4453 7.50019L30.7658 7.49963C30.8025 7.02343 31.049 6.33277 31.0587 6.02822L24.9513 6.02715ZM20.555 8.78677L16.9521 8.79619C16.9302 9.0069 16.9001 9.20358 16.8518 9.41021C17.3669 9.22941 17.6042 9.06493 18.1702 9.11879L18.2035 9.12277C18.5968 9.17358 18.9698 9.35358 19.3424 9.48113C20.1561 9.75962 20.56 9.77269 21.4147 9.77105L21.5235 8.77576L20.555 8.78677ZM24.862 8.76122C24.9189 9.19777 24.9347 9.63038 24.9081 10.0707L24.7215 11.9529C24.5965 12.9152 24.4329 13.9217 24.5953 14.8913C24.7018 15.5265 24.7148 16.2854 24.6232 16.9211C25.4819 17.4142 25.6355 18.3178 25.7932 19.2203L26.1109 21.1756C26.2224 21.8456 26.3203 22.529 26.563 23.1677L26.807 23.8338C27.137 24.8771 27.1777 25.3778 27.2646 26.4538L27.6786 29.9177L28.4673 34.437C28.5597 35.0638 28.6402 35.6899 28.6938 36.3205L29.0433 39.9882L29.1066 41.915L33.2458 41.9206C33.2374 40.6649 32.9427 39.9504 32.7662 38.7409C32.6531 37.9664 32.6472 37.2331 32.6278 36.4567C32.6211 36.1915 32.5713 35.9329 32.563 35.6692L32.553 33.7966C32.5474 33.4133 32.4998 33.0343 32.4764 32.6525L32.0015 27.2633C31.8956 26.2515 31.8186 25.2183 31.8892 24.2009L32.2531 20.0857L32.273 15.6616C31.6946 15.65 31.1002 15.6918 30.5251 15.6478C28.2844 15.4762 26.3067 13.8411 25.7266 11.6714C25.5697 11.0844 25.5009 10.4478 25.4096 9.84694L25.3045 9.18179C25.2476 8.79277 25.3328 8.76521 24.9167 8.76038L24.862 8.76122ZM22.8212 8.7901C22.6619 9.42572 22.6666 10.0876 22.5611 10.7362C22.2327 12.7564 20.6211 14.8479 18.6093 15.4143C17.7007 15.6702 16.714 15.7318 15.7733 15.6288C15.7023 16.1199 15.7488 16.6669 15.7491 17.1638L15.7632 19.0949C15.7702 19.2688 15.8025 19.4386 15.8142 19.6115L15.9071 21.2288C15.9261 21.5538 15.9148 21.8805 15.9482 22.2054L16.0349 23.0902C16.1166 23.7403 16.2601 24.4511 16.1466 25.1015C16.043 25.6946 16.0185 26.3305 15.9925 26.9317L15.8488 29.816L15.8105 32.6278L15.6064 36.1011L15.417 37.6873C15.3246 38.2981 14.7408 41.5057 14.8955 41.9204H15.4104L19.0095 41.9209L19.026 39.6715C19.0278 39.1219 19.054 38.7665 19.1028 38.2397L19.6308 33.9256L20.5273 28.406L20.7917 25.7693C20.8154 25.47 20.7986 25.1541 20.8485 24.8588C21.0162 23.8668 21.4361 22.9292 21.6718 21.9501L22.1902 19.5232C22.3666 18.6035 22.4248 17.5988 23.2825 17.0332C23.4014 16.9548 23.3856 16.9826 23.3973 16.8371L23.4263 16.3925C23.4576 15.7355 23.3356 15.0901 23.302 14.436C23.2693 13.8011 23.2864 13.0892 23.3681 12.4568L23.5086 11.5596C23.6291 10.6633 23.7034 9.69699 23.6303 8.79099L22.8212 8.7901ZM26.5422 8.7924L26.6076 9.30385C26.6437 9.75132 26.5248 9.83612 26.9934 9.67918L27.5732 9.49276C28.6535 9.19294 29.6303 9.09821 30.7509 9.21338L30.7556 9.16618L31.2415 9.31908C31.2003 9.18779 31.1402 8.89121 31.0427 8.79652L26.5422 8.7924ZM17.9103 10.4344C17.3126 10.5731 17.0349 10.7232 16.3968 10.7775C16.1766 11.5499 16.0848 12.3382 15.9787 13.1314L15.8913 13.9216C15.8781 14.0676 15.8504 14.2264 15.8603 14.3717C16.9319 14.4204 17.7577 14.4274 18.7501 13.9932C19.8465 13.4079 20.7927 12.4423 21.1539 11.2276L21.202 11.0587C20.8583 11.0454 20.4794 11.0693 20.1448 10.9957L18.3545 10.5218C18.2168 10.4842 18.054 10.424 17.9103 10.4344ZM29.4744 10.4629C28.5834 10.5286 27.6862 10.7497 26.865 11.1039C26.8855 11.1897 26.9067 11.2631 26.9417 11.3441L27.0498 11.6482C27.5157 12.754 28.2228 13.5414 29.343 14.0425L29.8276 14.2228C30.5782 14.4105 31.3844 14.4849 32.1544 14.3713C32.0958 13.6524 31.8836 11.3811 31.6233 10.7697C31.0338 10.5748 30.1088 10.3522 29.4744 10.4629Z" fill="black"/>
</svg>
