<svg width="48" height="48" viewBox="0 0 48 48" fill="none" xmlns="http://www.w3.org/2000/svg">
<path d="M24.782 29.2077C24.7401 28.7867 24.6472 28.3683 24.5873 27.9496L24.1296 25.0425C24.0294 24.3951 24.03 23.6993 23.8453 23.073L23.8131 23.1684C23.7855 23.2423 23.7655 23.2982 23.7598 23.3784L23.6632 24.9068L21.7982 37.8871L21.4832 39.7241C21.3768 40.4617 21.343 41.2036 21.1635 41.9301C20.4923 44.6473 17.7887 46.5452 15.0231 46.1874C13.9018 46.0423 11.2924 45.4043 10.5048 44.8238C9.09344 43.7837 8.59923 42.2419 8.80726 40.5702L10.5922 28.477L11.1896 22.9769L12.494 12.7035C12.6327 12.0038 12.829 11.3031 13.1006 10.6436L14.0843 8.32986C14.4119 7.47219 14.46 7.28895 14.459 6.39486L14.4586 5.07716C14.4587 4.81391 14.4403 4.53493 14.4632 4.27328C14.5884 2.8407 15.8689 1.71022 17.2521 1.53195L29.8862 1.51758C31.3035 1.52227 32.7107 2.42479 33.0397 3.85602L33.0497 3.90275C33.1562 4.3734 33.1084 4.91361 33.1083 5.39544L33.153 6.68314C33.2413 8.08405 33.681 8.59006 34.307 9.82072C34.6412 10.4779 34.8941 11.1645 35.17 11.8455C35.8058 13.4153 35.8285 15.131 36.0946 16.7817L36.9099 23.4179L37.5979 29.7426L38.5317 35.9067C38.5579 36.0694 38.6005 36.2333 38.6159 36.3974L38.8984 38.0816C38.908 38.1942 38.9397 38.2955 38.9591 38.4056L39.1372 39.3785C39.2605 40.1923 39.4581 41.0327 39.3779 41.8604C39.1807 43.8952 37.6527 45.1554 35.8517 45.8141C35.326 46.0063 34.8754 46.1473 34.318 46.162L33.5623 46.1868C32.9748 46.2097 32.3509 46.2493 31.7655 46.1989C29.8166 46.0309 27.9332 44.6025 27.1759 42.8136C26.8892 42.1364 26.8281 41.4662 26.7151 40.7507L24.782 29.2077ZM17.1605 2.98335C15.7776 3.2139 15.6549 4.68945 15.7777 5.83189C15.948 5.92522 19.2659 5.87741 19.7515 5.87755L30.4446 5.87736L31.7982 5.90628L31.8022 5.00258C31.8043 3.54697 31.3105 2.98233 29.8934 2.98184L17.1605 2.98335ZM15.8105 7.20252C15.7413 7.6213 15.6129 7.99916 15.4696 8.40275L14.3411 11.1567C14.2308 11.4298 14.0921 11.7255 14.0315 12.0135C14.7404 11.9946 15.3869 11.897 16.0244 11.5696C17.7179 10.8048 18.1173 8.88936 18.1928 7.19919L15.8105 7.20252ZM19.5178 7.20467C19.2524 9.16414 19.2228 10.9141 17.4511 12.2599C16.4386 13.0289 14.989 13.4927 13.7134 13.3724L12.9347 19.0084L12.4137 23.9184L11.8608 28.8476L10.1669 40.7365C10.0429 41.7349 10.1333 42.3489 10.7046 43.1722C11.2724 43.9906 12.2909 44.0722 13.1789 44.2888L14.3732 44.6237C14.6161 44.6902 14.8715 44.7783 15.1179 44.8251C17.2254 45.2258 19.3479 43.6012 19.8748 41.602C20.0194 41.0532 20.0177 40.4643 20.1014 39.9028L21.8431 28.4887L22.8359 20.751C22.9329 20.1682 23.0173 19.8301 23.5733 19.5843L23.5473 19.5701C23.2472 19.4031 22.9733 19.1638 22.7165 18.937C21.2722 17.6606 20.7894 16.5322 20.5089 14.713C20.4034 14.0286 20.4205 13.6554 20.4189 12.958L20.3637 7.21766L19.5178 7.20467ZM24.7442 7.20308L24.6473 7.22216C24.6192 7.38088 24.6287 7.55014 24.6284 7.71135L24.6268 16.9881C24.6278 17.7404 24.4965 18.1781 25.1479 17.3293C25.9223 16.3532 25.8816 14.7686 25.7396 13.5573C25.6186 12.5251 25.7612 11.4904 25.6739 10.4635C25.6592 10.2898 25.6216 10.1203 25.6165 9.9455L25.6039 8.47466C25.5928 8.21024 25.5595 7.39672 25.5223 7.21053L24.7442 7.20308ZM26.8643 7.20383C26.8126 7.42091 26.8774 7.70525 26.8861 7.92711L26.92 9.70864C26.9329 9.91105 26.9823 10.1135 26.9861 10.3152L27.0032 12.4518C27.0178 12.7234 27.0758 12.9872 27.0844 13.2595C27.0973 13.6649 27.0585 14.0734 27.076 14.477L27.0944 15.593C27.0925 17.314 26.3247 18.1946 25.0263 19.1777C24.8794 19.2889 24.6882 19.4568 24.5204 19.5271C25.2565 20.1185 25.1118 20.7737 25.197 21.689L25.5409 25.1409C25.5665 25.3276 25.5724 25.5221 25.6038 25.7067L26.9069 34.2426L27.9858 40.3832C28.0952 40.9739 28.1022 41.559 28.3137 42.1293C28.8875 43.6769 30.4945 44.7858 32.1231 44.9016C33.3602 44.9896 34.0652 44.9267 35.2093 44.5998C36.8579 44.0903 38.2291 43.0399 38.0871 41.098C38.0591 40.7155 37.9761 40.3271 37.9135 39.9483L36.493 31.3246L34.6884 16.0598L34.3009 13.4044C34.0804 13.365 33.836 13.3876 33.6114 13.3753C31.798 13.2763 30.0341 12.3974 28.9915 10.8899C28.4702 10.1362 28.3095 9.33078 28.1097 8.45928L27.8184 7.20552L26.8643 7.20383ZM29.3735 7.20252L29.2038 7.21606C29.1636 7.31141 29.2761 7.6107 29.3006 7.72306L29.4878 8.59025C29.9431 10.7574 31.5772 11.9066 33.6978 12.0133L33.792 12.0181C33.7133 11.1232 32.1754 8.9323 31.9047 7.6108C31.8779 7.47988 31.8752 7.34867 31.8426 7.2177L29.3735 7.20252ZM21.7361 7.20355L21.7262 13.2719C21.7272 14.0748 21.7826 14.9762 22.0705 15.7356L22.1543 15.982C22.3749 16.5761 22.8047 17.2138 23.2862 17.6395L23.3189 17.6137L23.3362 7.90775C23.3317 7.6895 23.3511 7.42874 23.3076 7.21724L21.7361 7.20355Z" fill="black"/>
</svg>
