<svg width="48" height="48" viewBox="0 0 48 48" fill="none" xmlns="http://www.w3.org/2000/svg">
<path d="M25.7862 34.214L24.3904 27.1765C24.3035 26.8189 23.7134 26.7885 23.5869 27.2897C23.5363 27.4903 23.52 27.6887 23.4848 27.891L22.0787 35.2016L21.1033 39.9653C21.0022 40.7406 21.0207 40.9022 20.3586 41.4258C18.574 42.8369 16.8549 42.9363 14.7423 42.7804L12.4761 42.5754C10.659 42.3911 7.43729 42.0939 6.63447 40.0785C6.50026 39.7416 6.56209 39.2484 6.56195 38.8865L6.57437 35.5536C6.58618 35.2539 6.63897 34.957 6.64768 34.6584L6.66582 32.805L6.82993 30.6705C7.08714 27.209 7.46814 23.5096 8.53272 20.1837L8.79404 19.4418C8.86398 19.2601 8.93851 19.0887 8.97653 18.8956L11.2336 6.90895C11.2629 6.74296 11.2706 6.57529 11.3076 6.4102C11.6438 4.90992 13.7293 4.50304 15.0137 4.41647C15.1233 4.38753 15.2891 4.40662 15.4041 4.40598L31.8352 4.40549C33.327 4.40541 35.912 4.46331 36.5814 6.04978C36.7567 6.46532 36.7475 6.98184 36.8439 7.41839L37.4938 11.0105L38.9817 18.3403C39.004 18.4568 39.0529 18.562 39.0768 18.6781L40.7098 27.6166C40.8045 28.05 40.8369 28.5301 40.8855 28.9723L41.2601 33.2499C41.2691 33.4052 41.3054 33.5533 41.3128 33.7107L41.3528 35.2994C41.361 35.5169 41.4138 35.7258 41.4222 35.9409L41.4449 39.4634C41.4475 41.0879 39.49 41.9288 38.1453 42.2178L34.3069 42.7669C34.165 42.7798 34.0257 42.8092 33.8828 42.819L32.4015 42.8896C30.9774 42.9316 29.3808 42.5939 28.1839 41.8258C27.0987 41.1293 27.0149 41.011 26.8727 39.8394L25.7862 34.214ZM22.2243 5.76098L17.5314 5.76103C16.2119 5.7614 14.8953 5.65199 13.6224 6.07012C15.1924 6.90778 16.8055 7.15176 18.5699 7.26454L19.4326 7.33982L25.7696 7.34831L29.7071 7.24326C30.9502 7.15101 33.342 6.85064 34.3899 6.06679L34.366 6.06309C34.1994 6.0352 34.0422 5.97548 33.879 5.9339C33.1676 5.7524 32.5197 5.76014 31.7902 5.76018L22.2243 5.76098ZM12.5618 7.01995C12.4696 7.30026 12.4574 7.58882 12.4069 7.87753L12.0372 10.0542L36.0097 10.0981L35.8087 8.95598L35.4639 7.00565C34.3693 7.91953 32.0881 8.40974 30.7285 8.59767L29.4015 8.71467C29.198 8.73192 28.9964 8.77673 28.7931 8.78746L27.6258 8.79478C26.3103 8.79454 25.0618 8.70801 23.7276 8.75062C23.5556 8.7561 23.3856 8.78606 23.2136 8.79084L19.2518 8.78882C17.257 8.71026 14.6042 8.29837 12.9221 7.25765C12.8002 7.18223 12.6879 7.08759 12.5618 7.01995ZM11.813 11.4776L10.6466 17.8337C11.7992 17.8267 13.0571 17.2669 13.9532 16.5669C15.1737 15.6166 16.1214 14.1226 16.3193 12.5726L16.3827 11.4865L11.813 11.4776ZM21.4004 11.4846L18.0602 11.4822C17.9528 11.4815 17.8285 11.4674 17.7243 11.4871C17.7181 11.8804 17.7296 12.2933 17.6777 12.6834C17.205 16.2337 14.1324 19.0725 10.5546 19.212C10.5107 19.2137 10.3747 19.2026 10.3433 19.2188C10.2945 19.2439 10.0268 20.0287 9.98495 20.16L9.30653 22.5929L8.40128 28.4853L8.10662 32.0547C8.09786 32.2428 8.05136 32.4225 8.0469 32.6137L8.03584 34.9269C8.02707 35.2557 7.97228 35.5786 7.95789 35.9067L7.94054 39.4578C7.94209 39.8761 8.10667 39.9042 8.4947 40.1603C9.66517 40.9329 10.9906 41.0399 12.3517 41.1819L14.9542 41.4011C16.4888 41.4974 18.6608 41.376 19.7012 40.0929C19.7597 39.2881 19.9584 38.4878 20.1215 37.699L22.1246 27.7035C22.2384 27.0215 22.3244 26.4077 22.8812 25.9237C23.8085 25.1175 25.4271 25.5802 25.6933 26.8042L27.8219 37.1669C27.8745 37.5366 27.9634 37.9837 28.0317 38.3559L28.2564 39.8021C28.2861 40.0247 28.2464 40.0642 28.4006 40.2327C29.3778 41.3003 31.3833 41.492 32.7211 41.4588L36.0034 41.1836C37.5443 40.9823 38.7414 40.7947 39.9871 39.8363C40.222 39.6556 40.1056 39.1639 40.1054 38.8997L40.0539 34.8437L39.9429 32.756L39.3681 27.1879L38.105 20.5611C38.0159 20.1329 37.9064 19.7053 37.8438 19.2722C37.5132 19.2487 37.1747 19.236 36.8473 19.1839C33.4333 18.6402 30.6629 15.9926 30.2998 12.4994C30.265 12.1642 30.2777 11.8206 30.2613 11.4839L23.7188 11.4989C23.9045 12.1208 23.9826 12.793 24.0537 13.4357C24.0957 13.8156 24.1647 14.2437 24.1757 14.6194L24.1887 18.3989C24.1918 18.5253 24.2237 18.6404 24.2335 18.763L24.4227 20.4965C24.5569 21.2789 25.2127 20.8832 25.4194 21.6061L25.4436 21.6804C25.5443 22.023 25.232 22.4071 24.9039 22.4702C24.5591 22.5364 24.1834 22.2795 23.917 22.0851C23.3548 21.6746 23.0842 21.0794 22.9868 20.4002L22.8736 19.2631C22.8528 19.0352 22.8187 18.8201 22.8115 18.5887L22.7994 14.8474C22.7683 14.2064 22.7013 13.5481 22.5821 12.9172L22.2726 11.4837L21.4004 11.4846ZM31.6218 11.4937C31.5989 11.7255 31.6306 11.9324 31.6468 12.1606C31.8545 15.0874 34.2669 17.5006 37.172 17.8371C37.2992 17.8518 37.4365 17.8844 37.5642 17.8715L36.1985 11.4872L32.0243 11.4828C31.9003 11.4829 31.7416 11.4672 31.6218 11.4937Z" fill="black"/>
</svg>
