<svg width="48" height="48" viewBox="0 0 48 48" fill="none" xmlns="http://www.w3.org/2000/svg">
<path d="M26.3401 35.6609L25.4445 32.2814C25.2793 31.5803 25.2512 30.8665 25.1205 30.1625C24.9924 29.4725 24.5212 28.1221 24.0062 27.5958C22.8674 28.612 22.8634 30.8739 22.5658 32.2173C22.4606 32.6924 22.3056 33.1665 22.1694 33.634L21.7431 35.2304C21.4318 36.4819 21.218 37.7648 21.0015 39.0352L20.6368 41.985C20.566 42.5423 20.5439 44.492 20.4519 44.6643C20.1459 45.2372 19.8408 45.1685 19.2743 45.169L14.7096 45.1696C12.2532 45.1685 10.7504 45.04 8.52858 43.6246C8.06119 43.3268 7.98525 43.114 7.97728 42.6016L7.60748 38.2323L7.05515 34.0899L7.00903 33.2597C6.94265 32.4575 6.94528 31.8072 6.93272 31.0023L6.8894 29.5913L7.05979 26.0982L7.6192 21.9962L10.0042 12.4988C10.1774 11.8206 10.3547 11.1287 10.4142 10.4294C10.5065 9.34361 10.3117 9.74884 10.7609 8.68333L12.8566 3.97371C13.0652 3.55202 13.1916 3.19117 13.7114 3.09948L33.3562 3.09375C34.9733 3.09557 34.703 3.12567 35.3563 4.47763L37.3994 9.0797C37.5291 9.36836 37.5808 9.50162 37.5849 9.82319L37.5957 10.4904C37.614 10.8837 37.6898 11.3522 37.782 11.7305L38.8125 15.6915C38.9713 16.2841 39.1156 16.8826 39.2817 17.4727C39.4726 18.1514 39.6262 19.0927 39.8604 19.7207L40.0784 20.5313C40.2216 21.1048 40.3093 21.7022 40.4157 22.2839C40.6978 23.8259 40.9453 25.5813 41.0451 27.1509L41.0688 28.8108C41.0721 28.9899 41.1006 29.1654 41.1068 29.3438L41.1074 30.6782C41.1039 30.8684 41.0715 31.0553 41.0688 31.2456L40.9746 33.5397C40.9245 34.3755 40.8636 35.2136 40.7402 36.0432L40.4987 37.5254L40.0997 41.2032C40.0805 41.4122 40.0433 41.6173 40.036 41.8281L40.0208 42.9814C39.9989 43.3927 39.4991 43.6035 39.1904 43.7799C37.1669 44.9363 35.9825 45.168 33.7673 45.1686L29.1913 45.169C28.0177 45.1695 27.4905 45.4379 27.4909 43.9219C27.4915 41.3701 26.9335 38.113 26.3401 35.6609ZM14.1975 4.5734L12.3459 8.75884L33.7729 8.76301L35.6585 8.75697L33.8055 4.57847L14.1975 4.5734ZM12.8233 10.2712L11.8922 10.2754C11.8469 11.0341 11.7256 11.8143 11.5338 12.5509L21.6681 12.5453L22.3611 12.555C22.5175 12.5575 22.6861 12.5548 22.8369 12.5992L22.8364 10.285C22.6585 10.2361 22.3665 10.273 22.1743 10.2726L12.8233 10.2712ZM24.3039 10.2712L24.2991 11.6702C24.298 11.9518 24.2602 12.2779 24.3034 12.5546L36.3634 12.5439L36.4105 12.5508C36.4441 12.4733 36.1703 10.9597 36.1465 10.7522C36.1298 10.6064 36.1643 10.4098 36.1252 10.2739L24.3039 10.2712ZM15.4244 13.971C15.242 14.5313 15.0496 15.0814 14.9079 15.6446C14.7943 16.0962 14.7032 16.5492 14.5468 16.989C13.7961 19.0981 11.6703 20.9474 9.34631 20.9335L8.72737 24.3714L8.42044 27.8479L8.40754 28.9959C8.39972 29.3203 8.35833 29.6384 8.35931 29.965L8.41969 32.3521C8.4217 32.8195 8.48156 33.2802 8.51625 33.7462L8.94605 37.1719C8.97201 37.3404 8.95931 37.6173 9.0337 37.7695C10.2844 38.5201 12.0765 39.2397 13.4649 39.5617L14.7029 39.787C16.3762 40.0466 17.6991 39.9914 19.3935 39.9614C19.509 38.8507 19.7065 37.752 19.9271 36.6578L20.8124 33.0107C21.1054 31.9984 21.1656 31.4576 21.3183 30.417C21.5046 29.1469 22.4494 25.7388 24.219 25.9755C24.7085 26.0409 25.0587 26.5273 25.332 26.901L25.878 27.7969C26.145 28.3351 26.2911 28.8709 26.4724 29.4388L26.5634 29.8409C26.7012 30.3503 26.713 31.1343 26.8239 31.6993C26.9654 32.4206 27.1918 33.1307 27.4103 33.8334L27.7845 35.3229C27.8201 35.4351 27.8279 35.5502 27.8556 35.6631L28.479 39.1055C28.5043 39.2934 28.5472 39.4823 28.5598 39.6711C28.5827 40.0815 28.618 39.9781 29.066 39.985L29.8892 39.9887C33.1156 40.0271 35.3955 39.5411 38.23 38.1437C38.4812 38.0199 38.7343 37.8749 38.998 37.7805L39.4715 33.9123C39.5018 33.4691 39.5692 33.037 39.576 32.5935L39.5894 31.4578C39.5981 31.2607 39.6296 31.0655 39.635 30.8672L39.4766 26.1637L39.1743 23.7354L38.6379 20.9764C36.0614 20.8329 33.9246 18.9043 33.2441 16.4732C33.0162 15.6589 32.8729 14.8059 32.5509 14.0188L30.3177 14.0177C30.2466 15.1456 30.2904 16.2979 30.2895 17.4289C30.2891 17.9872 30.3284 18.5635 30.2225 19.1133C29.664 22.0139 26.8825 23.2892 24.1928 23.5415C22.9092 23.6619 22.8482 23.5429 22.8502 22.3933L22.8518 14.7946C22.8517 14.5241 22.8666 14.246 22.8441 13.9767L15.4244 13.971ZM11.1676 14.0123L9.7583 19.4185C10.4525 19.2797 11.015 19.0127 11.5901 18.6017C13.4347 17.115 13.1443 15.9944 13.8208 14.0231C13.5562 13.9786 13.2292 14.015 12.9587 14.0153L11.1676 14.0123ZM34.1442 14.0187L34.6943 16.1514C34.7192 16.265 34.7637 16.392 34.8086 16.4993L34.9751 16.8782C35.535 18.1276 36.7825 19.0906 38.1103 19.4008C38.1523 19.4106 38.2218 19.4398 38.2618 19.4304C38.0981 18.8928 36.8949 14.0735 36.8363 14.0179L34.1442 14.0187ZM24.3195 14.0247C24.2733 14.5878 24.3004 15.1419 24.3005 15.6813L24.3027 20.7676C24.303 21.1632 24.2597 21.6285 24.341 22.0144C25.4992 21.8081 26.6414 21.5806 27.5735 20.8094C28.3105 20.1002 28.8284 19.2189 28.8518 18.1706L28.854 14.5731C28.8539 14.3927 28.8649 14.2052 28.8457 14.0258L24.3195 14.0247ZM9.25673 39.5176C9.21539 39.9762 9.33281 40.4417 9.35615 40.8985C9.38161 41.3958 9.33506 41.9275 9.42361 42.4174C10.2375 42.8971 11.0768 43.2918 12.0069 43.4931L12.5157 43.5943C12.9552 43.6619 13.3775 43.6937 13.8224 43.6946L19.0665 43.6929C19.072 43.6611 19.0763 43.632 19.078 43.5997L19.2026 41.4613L15.9975 41.4339C13.6732 41.2671 11.2857 40.6941 9.25673 39.5176ZM38.6938 39.5743C36.1656 40.8438 33.6538 41.4578 30.8094 41.5013L29.8202 41.4916C29.4758 41.4735 29.1302 41.4337 28.7852 41.4378L28.944 43.6055L34.1446 43.6954C35.5793 43.6946 36.9697 43.3406 38.2238 42.6251C38.3361 42.561 38.4823 42.4959 38.578 42.411L38.6938 39.5743Z" fill="black"/>
</svg>
