<svg width="48" height="48" viewBox="0 0 48 48" fill="none" xmlns="http://www.w3.org/2000/svg">
<path d="M24.8445 26.9242L23.8448 21.3852C23.6676 21.9176 23.5893 22.4656 23.4871 23.0153L23.346 23.7305C23.2305 24.4281 23.1831 25.1345 23.1163 25.8374L22.9633 27.3589L22.3591 34.043L21.6607 40.3258L21.4835 42.6446C21.4536 43.082 21.473 43.5497 21.3298 43.9703L21.297 44.0809C21.0633 44.9819 20.0602 45.7586 19.138 45.8525C18.2424 45.9437 17.3752 45.7868 16.4879 45.7521L15.2608 45.7441C13.45 45.7334 11.7633 44.6005 11.1227 42.885C10.941 42.3984 10.8649 41.8839 10.7708 41.3759L10.2516 37.803L9.94251 33.6132L9.83732 28.8399L9.77441 17.8411C9.77638 17.5881 9.83113 17.3473 9.83685 17.0974L9.91663 14.0274C9.92034 13.4071 9.7851 12.7839 9.89376 12.1641C9.99655 11.5775 9.99876 10.9639 10.0599 10.3721L10.25 8.63007C10.2754 8.3926 10.3218 8.15743 10.3307 7.91832L10.3331 6.45718C10.3329 6.22576 10.3074 5.96448 10.3583 5.73976C10.6669 4.37623 11.6347 3.12162 13.0909 2.89516C13.3712 2.85157 13.6428 2.92938 13.916 2.89031C15.2425 2.70059 16.5039 2.13649 17.8538 2.0727L19.2332 2.06404C19.685 2.06399 20.1497 2.0446 20.6 2.07632C21.2914 2.12503 21.9661 2.24252 22.667 2.24928L26.049 2.1783C26.3447 2.16094 26.6372 2.09491 26.9315 2.07636C28.0479 2.00598 29.2377 2.05115 30.3363 2.23834L34.1715 2.9987C34.5185 3.05482 34.8455 3.09391 35.1793 3.21519C36.1935 3.5836 37.1646 4.6052 37.4998 5.64849L37.5163 5.69321C37.6974 6.2026 37.5407 7.39131 37.6008 8.01568L38.0523 12.2158C38.0682 12.5025 38.0889 12.8035 38.085 13.0899L38.0623 16.3583C38.0686 16.6065 38.1141 16.8511 38.1212 17.0977L38.1626 19.2305C38.1703 19.4233 38.2163 19.6131 38.2224 19.8047L38.2219 31.2559C38.2172 31.4624 38.1671 31.659 38.1609 31.8624L38.1152 33.6914C38.1086 33.8395 38.0781 33.9819 38.0677 34.1286L37.927 36.9374L37.7646 38.5607C37.6589 39.6477 37.5569 40.2928 37.3371 41.3321C36.8827 43.4814 35.7154 45.4451 33.2959 45.7272C32.8091 45.784 32.0481 45.7909 31.5113 45.8112L29.6745 45.8179C29.3586 45.8192 29.0262 45.8421 28.7129 45.8164C27.4319 45.7117 26.4568 44.3562 26.432 43.1259L26.417 42.4277C26.4098 42.2804 26.381 42.1352 26.3728 41.9883L26.0504 37.5754L25.6264 33.4426C25.607 33.2772 25.6086 33.1077 25.5929 32.9415L24.8445 26.9242ZM18.6606 3.31316C18.2819 3.30888 17.9006 3.30887 17.5249 3.36386C16.3979 3.52882 14.8774 4.18131 13.8476 4.15578C13.6713 4.15141 13.4898 4.10558 13.3151 4.14339C12.4448 4.33172 11.8456 5.07437 11.6387 5.91493L11.5926 6.16679C12.2825 6.32523 13.2767 6.49346 13.9879 6.33278C14.6683 6.17907 15.3636 6.21877 16.0543 6.19102C16.6159 6.16848 17.0774 6.11171 17.6677 6.11073L18.5688 6.10909C19.3466 6.10721 20.0986 6.0197 20.9016 6.01876L29.5376 6.01702L33.691 6.31009C34.2877 6.37299 35.1258 6.46904 35.7184 6.33713L36.3658 6.16393C35.9463 4.96267 35.1185 4.46323 33.9663 4.25578L31.1479 3.69146C29.4608 3.32989 28.5394 3.24063 26.8054 3.38431C26.3872 3.41896 25.9772 3.47933 25.5561 3.48211L21.8502 3.47456C21.3826 3.45701 20.9221 3.37436 20.4555 3.3417L18.6606 3.31316ZM24.8011 7.25448L23.6099 7.26559L23.6003 15.7174C23.6004 16.1072 23.5649 16.533 23.6174 16.9176C23.741 16.8742 23.8435 16.8172 23.9547 16.7486C25.6628 15.6399 25.3297 12.9149 25.3304 11.1428L25.3314 7.25429L24.8011 7.25448ZM26.6011 7.26479L26.5902 13.2943C26.4739 15.5668 25.9868 17.7422 23.4254 18.2818C22.1549 18.5494 22.3375 17.3657 22.3371 16.5546L22.337 7.91649C22.3369 7.71132 22.3525 7.49209 22.3279 7.2887C21.7449 7.24145 21.0893 7.23484 20.5048 7.2767L16.6893 7.39234C16.3338 7.39613 15.9734 7.38498 15.6195 7.42267C15.4465 9.35373 14.8903 11.4392 13.3432 12.7383C12.7243 13.2581 12.0013 13.6906 11.1822 13.768L11.0775 17.2149C11.0664 17.4121 11.0272 17.6039 11.0224 17.8029L11.0199 27.2028C11.0226 27.5172 11.0775 27.823 11.08 28.1395L11.0893 31.9789C11.0951 32.1517 11.1239 32.3229 11.1278 32.4961L11.1522 34.1954C11.1632 34.4309 11.2179 34.6626 11.225 34.8985L11.3427 37.356C11.3555 37.5333 11.3914 37.7102 11.409 37.8879L11.6727 39.9844C11.6893 40.1019 11.6874 40.2217 11.7111 40.3381L12.795 40.2913C12.9507 40.2813 13.1023 40.2533 13.2591 40.2493L17.3097 40.2524C17.873 40.2749 18.5835 40.3339 19.1391 40.3924L20.3951 40.5311L21.4205 30.7087C21.4641 30.4181 21.4764 30.1317 21.5062 29.8404L22.066 23.7696L22.3035 22.4213C22.4593 21.5671 22.779 19.0833 24.1988 19.6414L24.2296 19.6533C24.9014 19.928 25.1569 21.5545 25.3238 22.3011L26.1082 26.8296L27.1599 36.0919L27.4133 39.1366C27.4492 39.5849 27.4329 40.0684 27.5226 40.5077L30.8327 40.2453L34.4431 40.2477C34.9742 40.2587 35.7995 40.4425 36.2772 40.3173L36.6554 36.8618C36.6914 36.1458 36.7486 35.4384 36.7778 34.7227L36.8486 32.5899C36.8595 32.1325 36.9391 31.6806 36.9493 31.2194L36.9563 18.5085C36.9555 18.2465 36.9705 17.9741 36.95 17.7136C36.9408 17.5973 36.8545 17.5233 36.846 17.3951C36.8299 17.1522 36.8416 16.8998 36.8408 16.6558L36.8395 15.1898C36.8393 14.9698 36.8113 14.7609 36.8019 14.5431L36.7955 13.8488C34.2169 13.3456 32.8456 11.1201 32.4674 8.64273L32.3679 7.75787C32.3609 7.66196 32.411 7.47488 32.291 7.45041C31.9926 7.38966 31.6777 7.39674 31.3754 7.36857L30.5338 7.28556L26.6011 7.26479ZM11.6062 7.4649C11.585 8.39274 11.451 9.31018 11.3455 10.2305L11.2003 11.7372C11.1684 11.9987 11.1272 12.2496 11.1306 12.5142C11.7952 12.3674 12.3903 11.9058 12.8515 11.4235C13.8809 10.2593 14.0845 9.10515 14.3255 7.59254C13.2473 7.60337 12.7956 7.73092 11.6062 7.4649ZM36.257 7.53521C35.2489 7.76471 34.5656 7.61476 33.6239 7.61729C33.634 8.20651 33.7731 8.84565 33.9381 9.41021L34.1292 9.99291C34.2476 10.4176 34.7693 11.292 35.1521 11.5791C35.6051 12.0079 36.2162 12.4496 36.8392 12.5765L36.3194 7.55476C36.2984 7.54674 36.2795 7.53774 36.257 7.53521ZM31.798 41.5291L27.6742 41.7667C27.6178 41.8466 27.6571 42.8994 27.6841 43.0574L27.7391 43.4491C27.799 43.7904 28.0936 44.1634 28.3718 44.3533L28.5641 44.4615C28.9492 44.6641 29.5579 44.5407 29.9827 44.5399C30.6156 44.5387 31.2617 44.5672 31.8923 44.5294L33.1621 44.4428C34.5882 44.354 35.7493 42.8904 35.9659 41.5588C35.4918 41.5027 34.9875 41.5323 34.5102 41.5307L31.798 41.5291ZM13.6684 41.5323L12.0296 41.6072C12.0555 41.7673 12.0914 41.9164 12.1425 42.0704L12.2838 42.4607C12.6641 43.5006 13.6854 44.2567 14.7623 44.4386C15.1066 44.4968 15.4958 44.4544 15.8456 44.4651L16.7409 44.5324C17.4002 44.5573 18.0468 44.5407 18.7061 44.5981C19.7849 44.6273 20.2407 43.7 20.2607 42.7371L20.2701 41.7548L13.6684 41.5323Z" fill="black"/>
</svg>
