<svg width="48" height="48" viewBox="0 0 48 48" fill="none" xmlns="http://www.w3.org/2000/svg">
<path d="M25.112 28.0136L24.1743 23.6347C24.1289 23.4014 24.0634 23.1697 24.0384 22.9334L24.0353 22.903C23.9299 23.1202 23.8993 23.3281 23.8521 23.5617L21.3605 34.5656L20.3695 38.7069C20.017 40.192 19.653 40.7307 17.9386 40.735L16.7186 40.7363C16.313 40.7363 15.8632 40.7768 15.4632 40.7216C14.6467 40.609 13.8656 39.8828 13.795 39.039L13.7918 38.9956C13.7606 38.6011 13.8233 38.2174 13.8718 37.828L14.7889 28.7685L15.3933 21.7017C15.416 21.4199 15.47 21.144 15.4837 20.8607L15.4889 12.5806C15.4885 12.2567 15.369 12.082 15.2676 11.7921L15.2423 11.7193C15.0765 11.1167 15.2486 9.46284 15.5463 8.95396C15.9094 8.33343 16.4402 7.89956 17.1452 7.73484L17.1914 7.72462C17.3783 7.68192 17.5693 7.68131 17.7602 7.67404L29.8793 7.66214C30.9468 7.65881 31.9888 7.95989 32.4726 9.01031C32.5393 9.15511 32.5722 9.31659 32.6337 9.45693L32.6525 9.48961C32.7731 9.71348 32.73 10.1664 32.736 10.4175L32.7588 10.9101C32.7586 11.1545 32.7447 11.4486 32.6848 11.6838C32.6456 11.8377 32.534 12.0099 32.5295 12.1649L32.5281 19.8124C32.5285 20.4361 32.5325 21.0301 32.5835 21.6497L33.0966 27.7733L34.1277 38.0858C34.1743 38.4701 34.2726 38.921 34.1614 39.3014C33.8184 40.4744 33.0273 40.7323 31.9725 40.7347L30.6883 40.7358C29.4415 40.735 28.3672 40.8271 27.8191 39.4646C27.6725 39.1005 27.6425 38.6808 27.5541 38.2996L25.112 28.0136ZM23.619 8.99484L18.0701 8.99489C16.7227 8.99512 16.4644 9.55111 16.5073 10.8397L16.518 10.9782L24.4512 10.974L31.4431 10.977C31.4195 10.5829 31.4946 10.1206 31.3577 9.7499C31.0492 8.9144 30.4346 8.99489 29.7082 8.99484H23.619ZM16.7885 12.3093C16.7828 12.4711 16.756 12.7013 16.8124 12.8535C17.1414 12.8799 19.3945 12.9367 19.5233 12.842L19.6342 12.3236L16.7885 12.3093ZM21.2758 12.3104L21.0012 12.3275L20.6362 13.8163C20.4952 14.3966 20.5169 14.4082 20.2072 14.9856C19.4666 16.3658 18.4631 17.3492 16.7794 17.4227L15.3207 37.1285L18.0312 37.1311C18.5877 37.1398 18.7846 37.1474 19.3077 37.3608C19.3682 37.0035 19.4724 36.6561 19.5525 36.303L21.0518 30.0261L23.258 20.0724C23.2794 19.9738 23.3478 19.8999 23.3639 19.8059C23.435 19.3898 23.3396 18.6712 23.373 18.1964L23.4813 16.6097C23.4887 16.5034 23.5151 16.4035 23.5211 16.2964L23.5569 15.0854L23.7888 12.3207L21.2758 12.3104ZM25.224 12.308L25.1298 12.3331C25.0937 12.5707 25.0927 12.812 25.0684 13.0509L24.8002 16.3824C24.7841 16.5893 24.7493 16.7747 24.7565 16.9842C25.7954 16.3169 25.3933 14.9533 25.9151 14.5963C26.2025 14.3996 26.6407 14.4856 26.8252 14.7825C26.945 14.9753 26.8933 15.571 26.8371 15.7879L26.8252 15.8324C26.7712 16.0413 26.742 16.2559 26.6823 16.4647C26.1789 18.2265 24.7549 18.363 24.6347 18.5564L24.6312 19.3035C24.6299 19.6596 24.6675 19.7752 24.7738 20.1093L28.4471 36.2809C28.4554 36.307 28.4599 36.3316 28.4629 36.3587L28.7216 37.3545C29.6348 37.0904 29.5122 37.1302 30.5162 37.1305L32.6745 37.1386L32.6187 36.2483L31.4332 23.8259L31.3364 22.5468C31.2929 22.136 31.2323 21.5611 31.2296 21.1516L31.2211 17.4274C29.0073 17.1044 27.5624 15.3781 27.3049 13.2187C27.2895 13.0896 27.2601 12.3539 27.2091 12.3136L25.224 12.308ZM28.5461 12.3098C28.5153 14.1904 29.3527 15.5564 31.2346 16.0894L31.2167 12.3076L28.5461 12.3098ZM16.7643 14.1539L16.7714 16.0889C17.3875 15.9985 17.9392 15.7777 18.4048 15.3483C18.6373 15.0738 18.8319 14.7974 19 14.4773C19.0552 14.3722 19.0677 14.248 19.1424 14.1552C18.9149 14.1549 16.785 14.1381 16.7643 14.1539ZM15.369 38.4409L15.1441 38.4685C15.0781 38.5575 15.0798 38.7177 15.0975 38.8241L15.1509 38.9933C15.2465 39.2935 15.5044 39.4007 15.7863 39.4036L16.3869 39.4052C16.9385 39.4066 18.186 39.5201 18.6577 39.3499C18.881 39.2006 19.123 38.8441 18.8911 38.598L18.8748 38.5798C18.6639 38.3602 15.7809 38.4351 15.3721 38.4405L15.369 38.4409ZM30.2009 38.4418C29.9148 38.4572 29.5832 38.4481 29.3057 38.5128C28.8976 38.6079 28.9802 39.0836 29.2734 39.2834L29.3086 39.3081C29.5637 39.483 29.9 39.4043 30.1934 39.4041L31.7531 39.4043C32.4111 39.4055 32.9164 39.4339 32.8821 38.6228L32.8711 38.4755C32.5456 38.415 32.1795 38.4428 31.8488 38.4415L30.2009 38.4418Z" fill="black"/>
</svg>
