<svg width="48" height="48" viewBox="0 0 48 48" fill="none" xmlns="http://www.w3.org/2000/svg">
<path d="M16.236 35.9381C14.129 35.425 12.4092 34.5573 10.8006 33.0647C10.098 32.4128 9.44023 31.6994 8.55851 31.285C6.79583 30.4563 5.73303 31.367 4.74561 30.9081C3.28457 30.2291 3.48316 28.8078 4.49122 27.8122C6.48354 25.8446 10.665 25.3251 13.2816 25.3388C13.5167 21.637 16.8918 18.3093 19.9122 16.5372C22.2957 15.1387 24.6518 14.6215 27.4354 14.6778C28.4113 14.6976 28.995 14.7125 29.9562 14.588C29.7626 12.9203 28.8566 12.8905 28.7208 12.3289C28.6048 11.8492 28.8782 11.5676 29.3205 11.4646C30.0937 11.411 30.9032 12.6211 31.1254 13.231L31.2287 13.583C31.3543 13.914 31.2875 14.3135 31.3393 14.6605L32.5894 14.833C37.2438 15.6722 41.4871 19.5281 42.3583 24.2305L42.5154 24.9966C42.5931 25.4409 42.6294 25.8951 42.6686 26.3441L42.7182 26.7865C42.7632 27.4946 42.7262 28.2283 42.7249 28.9399L42.723 29.5878C42.7145 31.4911 40.876 32.7733 39.1519 33.0668L37.8859 33.218C37.3976 33.2816 36.6882 33.3209 36.1691 33.3506L33.7972 33.3507C32.9293 33.2787 33.1804 33.2982 32.3032 33.5928L27.9136 34.9237C23.8122 36.1583 20.6078 36.9587 16.236 35.9381ZM30.4114 16.085C29.9226 16.1935 29.4069 16.2647 28.9328 16.4238C27.3391 16.9587 25.8823 18.3024 24.9966 19.6886L24.7872 20.0512C25.4011 20.4006 26.743 20.5613 27.0501 21.2114L27.0635 21.2377C27.1268 21.371 27.1055 21.6311 27.0511 21.7665L25.6582 24.7279L27.2888 25.2993L30.6153 26.4112C31.2321 26.619 31.8547 26.9003 32.488 27.0449C32.5382 26.2419 32.5262 25.4124 32.4792 24.6099L32.354 22.8112L32.2004 21.7145C31.9818 20.215 31.6198 18.6919 31.034 17.2899L30.6896 16.5273C30.6166 16.3787 30.5427 16.1925 30.4114 16.085ZM26.004 16.2058C22.618 16.3288 19.6164 17.9227 17.3127 20.3925L16.3571 21.4853L17.8526 22.0199C18.2697 22.155 18.6894 22.3674 19.1114 22.47L20.5948 20.0101C21.262 18.9091 21.1558 18.8241 22.3258 19.2121C22.6855 19.3314 23.0432 19.4481 23.3899 19.6024L24.0072 18.6125C24.6337 17.6947 25.4446 16.8661 26.3385 16.2071C26.2452 16.205 26.0927 16.1851 26.004 16.2058ZM32.1252 16.233L32.5785 17.3442L33.223 19.5025L33.5788 21.246C33.6092 21.3744 33.6141 21.5055 33.6326 21.6357L33.9074 24.7872L33.9151 31.8909L35.7904 31.8816C35.97 31.8738 36.1466 31.8415 36.3254 31.8264L37.5171 31.7311C38.5997 31.6431 39.5307 31.5957 40.4632 30.9881C41.5489 30.1656 41.304 29.1484 41.2966 27.9353C41.2939 27.4886 41.3084 27.0336 41.278 26.588C40.9248 21.4265 37.5984 17.4782 32.5415 16.3233C32.4056 16.2922 32.2553 16.28 32.1252 16.233ZM21.9189 20.6192L20.4912 22.9524C20.5902 23.0246 20.7247 23.0572 20.841 23.0949L23.0048 23.8308C23.3519 23.9461 23.717 24.0553 24.0522 24.2006L24.2579 24.275L25.4131 21.8652L21.9189 20.6192ZM15.5293 22.7743C15.0714 23.6171 14.7632 24.5399 14.6637 25.494C14.808 25.5747 14.9561 25.618 15.1097 25.6758L24.5188 28.9245L31.9157 31.3733L32.4855 31.5486C32.506 31.2162 32.5242 28.6405 32.4758 28.5974C32.3811 28.513 32.1903 28.504 32.0678 28.466L16.6767 23.163C16.2998 23.0303 15.8963 22.9294 15.5293 22.7743ZM12.4917 26.8193C10.7275 26.8871 6.77431 27.4703 5.47203 28.8722C4.43087 29.9928 6.07193 29.4225 6.60889 29.3931C7.78512 29.3289 9.06729 29.7269 10.0079 30.4373L11.7024 31.9046C14.4853 34.3263 17.4126 35.0621 20.9995 34.8689L22.9653 34.6675C23.4499 34.5616 23.9385 34.499 24.4214 34.377L30.6664 32.5611L14.9313 27.199C14.3406 26.9801 14.1396 26.8262 13.4877 26.8189L12.4917 26.8193Z" fill="black"/>
<path d="M37.0588 30.254C35.8614 30.146 35.8124 29.0818 36.5758 28.8059C36.8461 28.7082 37.8735 28.7993 38.4149 28.6677C38.6333 28.6147 38.8319 28.5158 39.0488 28.4575C39.3882 28.4074 39.7778 28.5617 39.9323 28.8793L39.9796 28.9812C40.4423 30.1267 37.621 30.2453 37.0588 30.254Z" fill="black"/>
</svg>
