<svg width="48" height="48" viewBox="0 0 48 48" fill="none" xmlns="http://www.w3.org/2000/svg">
<path d="M24.7427 42.067L22.6311 42.0642C20.1877 41.9622 17.6754 41.6392 15.29 41.0947L9.90064 39.7285C8.41953 39.2935 6.98248 38.726 5.57379 38.0976C3.97481 37.3843 1.22808 36.064 0.861464 34.1188C0.598322 32.7227 1.03661 32.1758 1.85517 31.196C2.26482 30.7057 2.67884 30.2244 3.13987 29.7807L3.68291 29.3004C3.80776 29.1825 3.89924 29.0311 4.00754 28.8986C5.56681 26.9912 9.41 25.4831 11.9184 25.0032C11.9351 24.6659 12.0111 24.3319 12.068 23.9999L12.2839 22.662C12.4767 21.4343 12.6189 20.1642 13.0519 18.9929C14.7855 14.3041 19.099 12.4981 23.8133 12.3276C24.0586 11.1134 24.4955 9.90509 24.9485 8.75431C25.3941 7.62246 25.8489 6.203 27.2021 5.93407C27.5428 5.90285 27.8575 5.92156 28.1764 6.05089L28.2186 6.06828C28.75 6.28245 29.1755 6.93612 29.4022 6.88053L29.7834 6.78739C31.7457 6.39912 33.3943 9.18059 32.1574 10.6264C31.566 11.3176 29.6119 12.6441 28.8508 12.9556L29.525 13.2465C32.0457 14.3584 34.0783 16.157 35.0814 18.7968C35.2651 19.2803 35.4103 19.7313 35.5246 20.2336L36.0006 22.1835C36.0581 22.3947 36.129 22.6111 36.1707 22.8259L36.6841 25.0429C36.7313 25.086 36.7638 25.1036 36.8249 25.1218L37.754 25.3903C39.6105 25.9853 41.7939 26.8318 43.2805 28.1511C43.6089 28.4427 43.8508 28.7937 44.1481 29.1103L46.2883 31.3408C46.5273 31.6148 46.7906 31.9227 46.9555 32.2484L47.0919 32.5559C47.4003 33.457 47.1889 34.3515 46.6068 35.0771C43.4608 38.9972 34.5579 41.125 29.4049 41.7737L26.493 42.0075C25.9204 42.0292 25.3362 42.0022 24.7663 42.0642L24.7427 42.067ZM27.3854 7.48821C27.2073 7.54924 27.0935 7.77523 27.0146 7.93615L26.6189 8.81243C26.4824 9.11951 26.1664 9.6851 26.185 10.0295C26.3248 9.89525 26.4379 9.75678 26.5547 9.60181L28.0511 7.82431C27.903 7.60845 27.6514 7.44654 27.3854 7.48821ZM30.1835 8.32362C29.3184 8.5024 28.5199 9.67006 28.0276 10.32L26.9338 11.8988L27.6493 11.7015C28.4301 11.3716 30.7258 10.1779 30.9466 9.57078C31.1221 9.08843 30.7198 8.34307 30.1835 8.32362ZM24.0222 13.858C19.57 13.9422 15.0837 16.063 14.1576 20.7538L13.2034 26.6686C14.1073 27.7882 17.7819 28.7019 19.1176 28.9084L20.1151 29.0601L24.6409 29.3176L26.2975 29.2464C28.9728 29.0712 31.9866 28.4526 34.3549 27.1828L35.1669 26.7412C35.2272 26.7071 35.3205 26.6746 35.3717 26.631L34.25 21.6286C34.0872 20.9475 33.954 20.263 33.7252 19.5994C32.5361 16.1487 29.0028 14.1611 25.4996 13.8769C25.0105 13.8372 24.5126 13.8548 24.0222 13.858ZM11.6569 26.707C11.2914 26.7884 10.9427 26.9231 10.5864 27.036L9.61831 27.339C8.44259 27.7551 7.27043 28.3015 6.22568 28.9835C5.03637 29.7599 4.79557 30.2052 5.5662 31.4251C6.91376 33.5583 9.4864 34.7261 11.8123 35.4375L13.446 35.8593C14.4367 36.0994 15.427 36.311 16.4362 36.4592L18.8097 36.7423L21.7698 36.9469L26.6065 36.9457L31.9803 36.3988C32.449 36.3233 32.9328 36.2588 33.3953 36.1527L34.2303 35.9756C36.7486 35.3383 39.3521 34.5669 41.3294 32.7961C41.8212 32.3507 42.2599 31.9001 42.6006 31.3249C43.2118 30.2932 42.8516 29.7476 41.9061 29.0837C40.9357 28.4023 39.7975 27.878 38.6952 27.4445L36.9723 26.8053C37.0167 27.4006 37.2619 28.8412 37.4068 29.414C38.2648 32.8032 31.3065 34.2314 28.6634 34.567C27.7305 34.6855 26.7897 34.7343 25.8514 34.7781L23.338 34.8461L20.2766 34.6509C17.5612 34.3629 11.8265 33.4865 11.194 30.2775C11.1379 29.993 11.2062 29.6952 11.25 29.414L11.563 27.6103C11.6172 27.321 11.6986 27.0064 11.6974 26.7114L11.6569 26.707ZM35.5097 28.3476C33.6412 29.334 32.2369 29.8751 30.122 30.3126C25.4244 31.2844 18.3946 31.2388 13.937 29.0146C13.6134 28.8531 13.3108 28.6452 12.9884 28.4879C12.9364 28.6781 12.6802 30.0739 12.7743 30.2448L12.797 30.2812C12.8816 30.4315 13.0222 30.6464 13.1646 30.7489C14.6719 32.1049 17.1453 32.5453 19.07 32.8462L21.5797 33.1437C21.6951 33.1525 21.8059 33.1796 21.9229 33.1864L26.0466 33.1939C26.2021 33.1852 26.3533 33.1569 26.5077 33.1413L28.7928 32.9041C30.711 32.6378 34.3656 31.9105 35.6878 30.4379L35.9322 30.1038C35.8944 29.7455 35.6558 28.33 35.5097 28.3476ZM3.70556 31.2773L3.68368 31.3086C3.15953 32.0368 2.11006 32.6838 2.23027 33.7031C2.44878 35.5558 8.79097 37.7216 10.4345 38.2313L13.0836 38.9839L17.2381 39.9359C18.4067 40.1656 19.586 40.3115 20.7692 40.4396L22.4923 40.5985L25.4952 40.5999C25.6636 40.5923 25.8291 40.5609 25.9969 40.5475L30.1639 40.1204C34.2465 39.4759 38.5694 38.4186 42.2342 36.4504L43.7261 35.568C44.2819 35.2151 44.8181 34.8502 45.2811 34.3774C45.5146 34.1117 45.7677 33.7867 45.7474 33.4095C45.7113 32.7414 44.8028 31.793 44.3277 31.3391L44.3183 31.3625C43.3762 33.6736 41.0072 35.2569 38.7691 36.1936L37.2186 36.7985C35.8185 37.2706 34.3782 37.5972 32.9295 37.8768L30.9529 38.2208C29.5951 38.3976 28.2142 38.4773 26.8475 38.5291L21.9608 38.5816L18.117 38.3189C16.6303 38.1644 15.1581 37.9075 13.6996 37.5834C10.3101 36.8303 5.4042 35.08 3.86571 31.5927C3.83336 31.5194 3.78727 31.2877 3.70556 31.2773Z" fill="black"/>
<path d="M17.0922 27.7876C16.0182 27.9101 16.2451 26.6718 16.3102 26.0863C16.6523 23.0102 17.4161 19.7871 19.5435 17.4246C19.8046 17.1348 20.078 16.8365 20.4454 16.6897C20.7752 16.6781 21.0246 16.7464 21.209 17.0511C21.5732 17.6527 21.0915 17.9916 20.7075 18.4208C19.6341 19.6205 18.8974 21.2035 18.4918 22.7464L18.2287 23.877C18.0842 24.4364 17.9844 25.0453 17.9016 25.6178L17.7909 26.5705C17.7331 27.1584 17.7507 27.5883 17.0922 27.7876Z" fill="black"/>
</svg>
