<svg width="48" height="48" viewBox="0 0 48 48" fill="none" xmlns="http://www.w3.org/2000/svg">
<path d="M25.2869 42.73C24.6283 42.7311 23.9769 42.6029 23.319 42.5753L21.2851 42.552C21.0134 42.5418 20.7445 42.4897 20.473 42.4715L17.7055 42.3419C15.038 42.1603 12.3881 41.9049 9.74884 41.4668L8.46085 41.2584C6.94688 40.9936 6.02612 40.3317 6.02269 38.6215L6.02246 36.5313C6.0241 35.4111 6.28459 34.4276 7.45866 33.9456L7.08085 30.6792C7.01649 30.2898 7.05071 29.8641 7.05146 29.4684C7.06346 23.1229 12.1164 17.0631 18.1523 15.3741C18.4671 15.286 18.7845 15.1849 19.1075 15.1319C18.4536 14.2809 17.9546 13.3332 17.8328 12.2514C17.4749 9.07631 19.7518 6.39013 22.8884 6.03276L24.2856 6.01855C25.2515 6.01912 26.2336 6.16232 27.1053 6.6052C28.2768 7.20041 29.4108 8.24432 29.8255 9.52438L30.0351 10.155C30.5302 11.7993 30.0001 14.0171 28.7467 15.1709L29.7082 15.4574C34.2277 16.7541 37.9842 20.1243 39.8517 24.4154C40.6776 26.3131 41.0459 28.2791 41.044 30.3464C41.0433 31.0538 41.0176 31.4883 40.9227 32.1801L40.7797 33.1985C40.7543 33.4476 40.7582 33.7165 40.7004 33.9605C40.6806 34.0438 40.8541 34.1047 40.9187 34.1498C41.8366 34.7895 41.9737 35.6605 41.975 36.6974L41.9718 38.6821C41.9707 38.8724 41.9796 39.0729 41.9347 39.2587L41.9205 39.3221C41.6775 40.6543 40.6471 41.0442 39.5064 41.2621L35.905 41.8749L29.9545 42.5341L28.3081 42.6194C28.0572 42.6284 27.8021 42.6178 27.5522 42.6401C27.4494 42.6492 27.3811 42.7199 27.2867 42.7279C27.07 42.7463 26.8376 42.7304 26.6194 42.7305L25.2869 42.73ZM19.62 16.4315L19.6497 16.4317C20.1487 16.4375 20.6693 16.7452 20.472 17.2951C20.3226 17.7113 19.8788 17.7744 19.5116 17.9075L18.784 18.1997C13.6801 20.4798 10.5046 25.8414 10.6087 31.3715L10.6497 32.0245C10.6915 32.9579 9.52534 33.037 9.29879 32.245L9.2912 32.2066C9.18099 31.7047 9.21835 30.4284 9.25337 29.8764C9.6061 24.3197 13.4619 18.7879 18.6844 16.719C18.8784 16.6421 19.0802 16.6031 19.2721 16.5159C19.1092 16.5178 18.9323 16.5864 18.7783 16.6359L18.2799 16.7891C13.9684 18.2226 10.2392 21.7618 8.94512 26.1684C8.80355 26.6504 8.66415 27.1398 8.60059 27.6394C8.44716 28.8732 8.3979 29.4239 8.49798 30.6335L8.52957 31.1886C8.54068 31.3051 8.57523 31.4178 8.58723 31.5347L8.71871 32.9418C8.74595 33.2203 8.79076 33.4848 8.79863 33.7667L39.3526 33.7497C39.3938 33.6411 39.3716 33.4637 39.383 33.3438L39.4929 32.3559C39.5421 31.9061 39.6311 31.4485 39.6582 30.9979C40.0432 24.6095 35.6304 18.7566 29.5847 16.8583C29.1149 16.7108 27.4418 16.2446 27.0242 16.3815L26.058 16.6907C25.4418 16.8507 24.904 16.8625 24.2709 16.8621C22.5112 16.8608 22.2112 16.8391 20.614 16.2061L20.0535 16.3268C19.9055 16.356 19.7564 16.3625 19.62 16.4315ZM22.7616 7.48115C20.9471 7.68965 19.4139 9.23976 19.2093 11.0489C19.1361 11.696 19.1861 12.3441 19.4171 12.9557C20.2917 15.2706 22.2947 15.4794 24.4265 15.4721C24.6446 15.4713 25.004 15.5122 25.2059 15.4409L25.2241 15.4293C27.4598 15.1782 29.0686 13.3212 28.79 11.0539L28.7661 10.9106C28.4515 9.19162 27.0757 7.66968 25.2831 7.48804C24.8997 7.44918 24.4885 7.47824 24.1025 7.47852L22.7616 7.48115ZM8.26641 35.2244C7.92812 35.2317 7.61555 35.3496 7.48515 35.7016L7.4446 35.8633C7.37837 36.1769 7.44798 36.5576 7.44924 36.8789L7.45126 38.2883C7.45196 38.7316 7.34143 39.4997 7.90262 39.6701C8.25779 39.7779 8.4676 39.3789 8.70066 39.1714C9.94445 38.0639 11.8106 37.3276 13.4062 36.9909L14.9774 36.7362C16.3651 36.5532 17.3346 36.5565 18.7411 36.5565L20.3004 36.561C20.8518 36.5643 21.1915 36.6024 21.7177 36.6456L26.2786 36.7693C26.6051 36.7694 26.9627 36.7397 27.2864 36.7742C28.1784 36.8694 28.2769 38.0766 27.328 38.2077C26.0431 38.3853 24.4788 38.178 23.1412 38.1409L21.0296 38.0172C20.8293 38.0033 20.6321 37.9705 20.431 37.9628L16.7141 37.9659C14.6916 38.0759 11.5972 38.6666 9.93019 39.9302L9.74771 40.0889C10.3176 40.2122 10.9169 40.2712 11.496 40.3408L12.5316 40.4887L19.5942 41.0619L22.046 41.1769L22.0931 41.194C22.2943 41.1647 22.5311 41.1983 22.7352 41.2032L27.6399 41.2652C28.4918 41.2634 28.1392 41.3404 28.2397 40.4851C28.8337 35.4294 34.9021 34.6138 38.3051 38.0814C38.6313 38.4138 38.9396 38.7704 39.2318 39.1332C39.5207 39.4919 39.7936 40.0932 40.3345 39.5043L40.4733 39.3066C40.5171 39.2475 40.5192 39.1594 40.522 39.0878L40.5278 36.2166C40.532 35.8425 40.4783 35.2507 39.9726 35.2281L8.26641 35.2244ZM33.0124 37.3697C30.9318 37.5311 29.5892 39.1223 29.5989 41.175L34.3183 40.6795L38.2528 40.1083C38.0969 39.8751 37.8802 39.6657 37.6921 39.4574C36.4824 38.1186 35.0653 37.301 33.1896 37.3614C33.1471 37.3627 33.0499 37.3544 33.0124 37.3697Z" fill="black"/>
</svg>
