<svg width="48" height="48" viewBox="0 0 48 48" fill="none" xmlns="http://www.w3.org/2000/svg">
<path d="M23.9939 38.522L11.3414 38.5248C11.1866 38.5247 11.0169 38.5326 10.8663 38.4949C8.96233 38.0173 8.60463 36.6277 8.86956 34.9491C8.73836 34.8748 8.60336 34.7855 8.48913 34.6871L8.46072 34.6622C6.79994 33.223 7.01467 30.5145 9.03456 29.4685C9.28389 29.3394 9.31572 29.429 9.33981 29.1432L9.50017 27.2218C10.1887 21.2811 13.015 15.7313 18.559 12.9305L19.016 12.7035C19.2369 12.6065 19.261 12.6221 19.3543 12.4104L19.5323 12.0385C20.446 10.2862 22.0694 9.37334 24.0004 9.37207C25.9693 9.39546 27.5973 10.3776 28.5168 12.1528L28.6729 12.4901C28.7581 12.6689 28.8495 12.651 29.0271 12.7262C31.8417 13.9171 34.5986 16.8069 36.071 19.3991C36.3133 19.8257 36.5789 20.2775 36.7609 20.7338L37.2316 21.8616L38.0146 24.5386C38.1224 24.9857 38.1826 25.455 38.2501 25.9097L38.4944 28.0931C38.5092 28.4975 38.4924 28.9233 38.5486 29.3236C41.1382 30.1948 41.3282 33.4183 39.1777 34.9646C39.1809 35.017 39.1845 35.0681 39.1982 35.119C39.5992 36.6072 38.6329 38.2221 37.0882 38.4932C36.6834 38.5642 36.2122 38.5213 35.8008 38.5216L23.9939 38.522ZM23.7415 10.6734C22.669 10.7597 21.8189 11.2178 21.112 11.9989C22.133 11.6147 23.2126 11.6387 24.2828 11.6394C25.1345 11.6405 26.0627 11.738 26.8759 12.0036C26.1971 11.2518 25.2662 10.7235 24.2373 10.669L23.7415 10.6734ZM23.8188 12.972C18.2396 13.0597 13.7707 17.4951 11.9142 22.5059C11.4279 23.8185 11.1236 25.2008 10.92 26.5825L10.7278 28.2469C10.7036 28.5323 10.6689 28.8119 10.664 29.0997L24.0642 29.087L37.2363 29.0864C37.1781 28.4642 37.1763 27.8336 37.1095 27.2105L36.8331 25.3211C35.6802 19.1614 30.5538 12.7886 23.8188 12.972ZM11.2613 30.4242C10.8572 30.4259 10.3327 30.3617 9.96072 30.5179C8.48425 31.1379 8.12772 32.8763 9.47064 33.7927L9.56228 33.8463C10.0968 34.1414 10.3172 34.1252 10.9184 34.1254L36.697 34.1254C37.0325 34.1263 37.4034 34.1583 37.7346 34.1193C38.4952 34.0297 39.2079 33.2952 39.3018 32.548L39.3065 32.5074C39.4275 31.573 38.7665 30.5619 37.7926 30.4424C37.4825 30.4043 37.1524 30.4238 36.8402 30.4237L11.2613 30.4242ZM37.8862 35.4253L10.077 35.4393C10.0223 35.7169 10.0416 35.9951 10.1085 36.2691L10.1147 36.2949C10.1678 36.5038 10.3139 36.6933 10.4567 36.8495C10.9624 37.3275 11.5419 37.2132 12.1824 37.2133L36.6531 37.2105C37.6105 37.1728 38.0556 36.3161 37.9334 35.4431L37.8862 35.4253Z" fill="black"/>
<path d="M33.6747 27.3558C32.9942 27.3638 32.9526 26.8434 32.8989 26.2814L32.7896 25.3126C32.3914 22.3772 31.4423 19.6622 29.4246 17.4259C29.0337 16.9926 28.5572 16.6255 28.1131 16.2494C27.783 15.9698 27.4304 15.7343 27.6757 15.247C27.7825 15.0349 27.9634 14.9271 28.1819 14.8614C28.2476 14.8574 28.3058 14.8541 28.3697 14.8748L28.4952 14.9163C28.7384 15.022 28.976 15.264 29.1866 15.427C30.9081 16.759 32.3903 18.896 33.1082 20.9743L33.4699 22.09C33.6113 22.5859 33.7148 23.1923 33.8544 23.6452C34.0214 24.1868 34.3231 26.7348 34.1825 26.9968C34.0763 27.1948 33.8831 27.2982 33.6747 27.3558Z" fill="black"/>
<path d="M29.9028 27.289C29.1518 27.2836 29.1672 26.6651 29.0477 26.0668L28.7112 24.4787C28.3557 23.0002 27.8627 21.6001 27.184 20.2384L26.5946 19.1231C26.4347 18.8345 26.0536 18.3298 26.2113 17.9816L26.2249 17.9532C26.3461 17.6905 26.5191 17.5818 26.8101 17.5383C27.3295 17.5261 27.5175 18.0503 27.7379 18.4338C28.3094 19.4285 28.7972 20.4749 29.2099 21.5439L29.4681 22.284C29.5642 22.5735 29.6379 22.8718 29.7329 23.1614L29.8386 23.5322C29.873 23.636 29.8802 23.7435 29.9073 23.8477L30.3703 26.0817C30.4666 26.646 30.5711 27.0796 29.9028 27.289Z" fill="black"/>
<path d="M26.7262 33.7281C26.0118 33.6872 26.072 33.0586 26.073 32.5518C26.0741 31.9719 25.8585 31.1613 26.6479 31.0361C26.7559 31.0426 26.8626 31.0438 26.961 31.0941L26.9886 31.1091C27.082 31.1591 27.1834 31.2452 27.2426 31.3347C27.3054 31.4297 27.3494 32.9079 27.292 33.1749L27.2834 33.2109C27.222 33.4837 26.986 33.6577 26.7262 33.7281Z" fill="black"/>
<path d="M31.231 33.7286L31.1129 33.72C30.9322 33.6878 30.7608 33.549 30.66 33.4L30.6442 33.3758C30.4651 33.1141 30.5604 32.6926 30.561 32.3933C30.5621 31.8102 30.3704 31.1825 31.1247 31.0352C31.8028 31.0517 31.7839 31.5295 31.7864 32.0369L31.7878 32.8694C31.7872 33.3023 31.6896 33.5776 31.231 33.7286Z" fill="black"/>
<path d="M34.9824 33.7374L34.882 33.7123C34.6728 33.6535 34.526 33.5175 34.423 33.3308L34.4024 33.2931C34.2532 33.0249 34.3325 32.6263 34.333 32.3316C34.3338 31.7492 34.2498 31.1154 35.0015 31.0381C35.3076 31.0631 35.4751 31.2238 35.5776 31.5142C35.624 31.6456 35.6311 33.2261 35.5804 33.3164C35.4629 33.5262 35.207 33.6801 34.9824 33.7374Z" fill="black"/>
<path d="M13.3269 33.6919C12.6697 33.8449 12.5723 33.2098 12.5773 32.754L12.5793 31.9843C12.581 31.4887 12.5234 31.2804 13.0391 31.0588C13.9374 30.9764 13.791 31.755 13.7993 32.3563C13.8028 32.6159 13.8592 32.9344 13.7942 33.1862L13.7751 33.2525C13.7088 33.4641 13.5105 33.593 13.3269 33.6919Z" fill="black"/>
<path d="M17.8086 33.7022C17.5319 33.716 17.3646 33.6347 17.1931 33.4018L17.1681 33.3671C17.0211 33.1668 17.0317 31.6009 17.1165 31.4086C17.2029 31.2129 17.4034 31.1275 17.5888 31.0577C17.7144 31.0516 17.8201 31.0454 17.9387 31.0971L17.974 31.1134C18.4389 31.3239 18.3018 31.8727 18.3053 32.2885C18.3076 32.553 18.4169 33.1409 18.2496 33.3628L18.2305 33.3869C18.109 33.5444 17.9944 33.6278 17.8086 33.7022Z" fill="black"/>
<path d="M22.3264 33.7064C21.7773 33.8316 21.5784 33.3243 21.5781 32.879L21.5803 31.9715C21.5828 31.4698 21.5391 31.2809 22.0607 31.0572L22.1036 31.0555C22.6388 31.029 22.7884 31.2936 22.7916 31.7537L22.7981 32.5182C22.8148 33.0633 22.9072 33.4464 22.3264 33.7064Z" fill="black"/>
</svg>
