<svg width="48" height="48" viewBox="0 0 48 48" fill="none" xmlns="http://www.w3.org/2000/svg">
<path d="M23.8846 40.6077L7.08742 40.6058C3.18425 40.5834 2.96998 35.3758 6.32247 34.9317C6.79113 34.8696 7.30033 34.9088 7.77452 34.9087L10.3768 34.9141C10.4268 34.6027 10.3862 34.22 10.3865 33.8992L10.4853 29.0204C10.6404 26.5853 11.0303 24.1245 12.0278 21.877C13.498 18.5644 16.0797 15.6216 19.5157 14.2935C19.2093 13.8412 18.9317 13.3779 18.8685 12.8217C18.694 11.2864 19.7744 9.75379 21.353 9.58007L21.3817 9.57711C21.7515 8.37139 22.6897 7.44932 23.9944 7.32186C24.3154 7.31211 24.6703 7.28019 24.9849 7.35435L25.3857 7.46272C26.4789 7.84532 27.3151 8.80279 27.4509 9.95985L27.604 10.007C28.7396 10.2632 29.4472 11.3336 29.7268 12.3947L29.7364 12.4304C29.9313 13.1776 29.6672 13.9711 29.2963 14.6142C29.8215 14.9069 30.3561 15.1908 30.8557 15.5271C33.147 17.0699 35.3448 19.922 36.255 22.5816L36.469 23.191C36.8702 24.2326 37.1155 25.4088 37.2731 26.5116L37.5949 30.0221L37.6034 34.9021C37.6978 34.9252 37.8051 34.9142 37.9022 34.914L40.5584 34.9092C42.0978 34.9059 43.1717 35.0639 43.8748 36.7496C43.992 37.0305 44.0357 37.39 44.0383 37.6903C44.0541 39.5256 42.6336 40.6011 40.9155 40.604L23.8846 40.6077ZM24.2725 8.61069C23.4779 8.69108 22.9355 9.08661 22.6788 9.82893C22.9662 10.8115 22.6816 11.0113 21.7263 10.9203C21.4825 10.897 21.257 10.9528 21.0381 11.0527L20.9967 11.0703C19.8554 11.6098 19.9495 13.1735 20.8805 13.8538C21.3932 13.7135 21.9056 13.6172 22.4309 13.5381C22.9435 13.4608 24.6157 13.3161 24.8959 13.4574L26.1971 13.6261C26.8548 13.7358 27.4702 13.9405 28.0963 14.1609C28.7755 13.0097 28.5439 11.6836 27.1685 11.2577C26.7291 11.1216 26.1115 11.4301 25.8314 10.9311C25.4959 10.3336 26.0707 10.0903 26.1078 9.97682C26.1335 9.89863 25.9967 9.59839 25.9568 9.52082C25.6558 8.93469 24.93 8.55744 24.2725 8.61069ZM23.7592 14.7537C20.8188 14.8196 17.9997 16.1189 15.9686 18.2429C13.3743 20.956 12.2526 24.3499 11.8577 27.9948L11.7287 29.3082L11.6768 34.9122L24.3515 34.9123L36.334 34.9033L36.3187 30.0073L36.2187 28.7688C35.8632 24.3364 34.5031 20.0852 30.889 17.1834C28.8882 15.5771 26.4383 14.7242 23.8744 14.7515L23.7592 14.7537ZM6.57766 36.2076C6.88225 36.823 7.11578 37.6032 6.88159 38.2836L6.86153 38.3315C6.73544 38.6399 6.74008 39.0094 6.51878 39.2859L9.48274 39.3103L9.76736 38.1118C9.8665 37.6521 9.84541 37.1718 10.3709 36.9861L10.4091 36.9723C10.5405 36.9296 10.6988 36.9843 10.816 37.0501C11.2464 37.2915 11.1187 37.7529 11.0425 38.1356L10.8831 38.9485C10.8645 39.0388 10.8691 39.1349 10.8428 39.2232L10.8148 39.297L13.9351 39.3004L14.1468 38.1637C14.1919 37.9129 14.2078 37.6003 14.3084 37.3653C14.5258 36.8571 15.3458 36.8679 15.4698 37.441L15.4781 37.4748C15.5766 37.9053 15.3067 38.8266 15.27 39.3008L18.5892 39.3066L18.7336 38.0053C18.7844 37.5665 18.7862 36.9627 19.4234 37.0095L19.532 37.0267C20.2311 37.1441 19.973 38.1853 19.9289 38.7632L19.8751 39.2988L22.1921 39.2979C22.5852 39.298 23.0246 39.2605 23.4107 39.3223L23.4102 38.0451C23.4105 37.8409 23.3807 37.5712 23.4375 37.3761C23.5833 36.8753 24.5117 36.8758 24.637 37.3941C24.6738 37.5465 24.6525 37.7383 24.6528 37.8965L24.6537 38.9582C24.6537 39.041 24.6318 39.2381 24.6679 39.3013L28.1903 39.2999C28.1409 38.9864 28.0059 37.7909 28.0348 37.5464C28.0958 37.0307 28.7154 36.843 29.0886 37.1669C29.4944 37.5192 29.332 38.7512 29.4883 39.3013L32.7792 39.2784C32.7361 39.153 32.7335 39.0303 32.7087 38.9021L32.5599 38.0846C32.5276 37.7916 32.466 37.4728 32.6613 37.2237C32.8583 36.9725 33.2342 36.9023 33.4877 37.107L33.5181 37.1312C33.635 37.2274 33.6983 37.3241 33.749 37.4644L33.7588 37.4892C33.8306 37.6775 33.8204 37.9134 33.8553 38.112L34.0076 38.9473C34.0232 39.0504 34.0168 39.2091 34.0622 39.2985L37.1817 39.3097L36.9593 38.2261C36.9167 37.9687 36.865 37.7045 36.928 37.4471L36.9363 37.4108C37.0723 36.8551 37.8592 36.8615 38.0888 37.3369C38.1518 37.4675 38.1453 37.6161 38.1655 37.7553C38.1973 37.9739 38.4053 39.1103 38.4888 39.3007L41.5654 39.2895C41.132 38.5591 40.7569 36.8961 41.4397 36.2202L6.57766 36.2076ZM5.47056 36.9073C5.1978 37.3722 5.10349 37.9884 5.44356 38.4488C5.758 38.2215 5.64564 37.244 5.47056 36.9073ZM42.4762 36.9096C42.4063 37.1492 42.3108 37.4021 42.3489 37.6519L42.4108 37.9896C42.4367 38.1091 42.4944 38.3558 42.5793 38.4462L42.6063 38.4254C42.8586 37.8344 42.8373 37.4174 42.4762 36.9096Z" fill="black"/>
</svg>
