<svg width="48" height="48" viewBox="0 0 48 48" fill="none" xmlns="http://www.w3.org/2000/svg">
<path d="M24.4347 33.8605L37.8529 33.8625L37.8521 32.6236C37.8517 32.4079 37.8344 32.1749 37.866 31.961C37.9419 31.4466 38.7024 31.2512 39.1074 31.8262C39.2447 32.0211 39.187 32.3968 39.1867 32.6318L39.1879 33.7025C39.1891 34.0887 39.1943 33.9858 39.5163 34.1652C40.3698 34.6406 40.7623 35.5293 40.8136 36.4603L40.8226 41.2061C40.8217 42.4775 40.6328 43.3668 39.3783 44.0229L39.1733 44.1184C38.897 44.223 38.6125 44.2825 38.3171 44.2948L9.55098 44.2939C8.5606 44.2467 7.63754 43.4228 7.32437 42.5185C7.14709 42.0067 7.18763 41.5289 7.18749 40.9939L7.18679 37.2307C7.18318 36.0123 7.16466 35.0926 8.30635 34.2975C8.3657 34.2562 8.81752 34.0352 8.82132 34.0295C8.85882 33.9734 8.82971 29.7782 8.83984 29.3013C8.87776 27.5143 9.0961 25.3298 9.46965 23.6035C10.6436 18.1779 13.9239 13.5842 19.1363 11.5315C19.3311 11.4548 19.5355 11.3538 19.7409 11.3108L19.7615 11.3068C19.654 11.0937 19.5299 10.8959 19.4307 10.6775C17.9628 7.44499 20.5226 3.55153 23.9604 3.7025C25.9501 3.63788 27.7713 4.94313 28.5919 6.7151L28.6868 6.94947C29.2493 8.40292 29.0574 9.93438 28.2822 11.2819L29.9801 12.0113C33.1631 13.5867 35.6294 16.249 37.1211 19.4599L37.6325 20.651C37.7062 20.8407 37.7928 21.0278 37.8518 21.2229L37.9514 21.5118C37.978 21.6095 38.0204 21.6979 38.0434 21.7971L38.3284 22.7932C38.366 22.9902 38.4332 23.195 38.4843 23.3909C38.8678 24.8613 39.0266 26.4463 39.0987 27.9572C39.1111 28.2178 39.1879 28.5068 39.1023 28.7619C38.9925 29.089 38.5715 29.3154 38.2448 29.1832C37.6704 28.9509 37.7293 28.1705 37.6971 27.6688L37.5973 26.5475C37.0991 22.0537 35.3725 17.6519 31.7397 14.7664C28.2206 11.9713 23.377 11.3396 19.2183 13.0312C16.5651 14.1104 14.4182 16.156 12.9492 18.5862C12.2865 19.6826 11.7458 20.8467 11.3439 22.0667C10.7274 23.9379 10.4226 25.9532 10.3035 27.9153L10.2792 28.9104C10.268 29.2036 10.2198 29.4961 10.2167 29.7893L10.2001 33.8612L24.4347 33.8605ZM23.9901 5.1213C20.9543 5.16784 19.3082 8.48303 21.2087 10.9741C22.1708 10.7788 23.1195 10.7039 24.0991 10.7051C24.9444 10.7046 25.9652 10.7672 26.7792 10.979C26.948 10.7388 27.1213 10.4929 27.2526 10.2298C28.4236 7.88435 26.5629 5.00345 23.9901 5.1213ZM9.6976 35.2317C9.17068 35.3159 8.59815 35.7296 8.57579 36.3066L8.57082 41.2086C8.57143 42.5416 8.91465 42.9009 10.3194 42.8994L11.7557 42.8983C12.0269 42.8996 12.3325 42.9344 12.6001 42.9102L12.5913 37.6019C12.5913 37.3629 12.5744 37.1075 12.6039 36.8702C12.6893 36.184 13.5685 36.0399 13.8913 36.6799L13.9029 36.7013C13.9986 36.8888 13.9446 38.0796 13.9447 38.3931L13.9448 42.9051L15.1945 42.9091L15.2004 37.3886C15.2006 37.2006 15.1801 36.982 15.2162 36.7985C15.3536 36.1025 16.4409 36.0985 16.5341 36.8674C16.5615 37.0935 16.5445 37.338 16.5447 37.566L16.5387 42.8962L18.5807 42.9082L18.5804 37.3668C18.5806 37.1753 18.5614 36.9556 18.5976 36.7673C18.7219 36.1208 19.8114 36.1261 19.9365 36.8088C19.9661 36.9708 19.947 37.1673 19.9471 37.333L19.9486 42.8983L21.2203 42.9103C21.2475 42.8245 21.2327 42.7081 21.2327 42.6182L21.2318 37.3034C21.2322 37.1267 21.2111 36.9161 21.2594 36.7463C21.4212 36.1771 22.5896 35.9606 22.5911 37.0768L22.5903 42.3167C22.5901 42.5079 22.5761 42.7113 22.5962 42.9011L24.8165 42.9021C24.8911 42.9026 25.3007 42.9291 25.3306 42.9039L25.3312 37.4487C25.3309 37.2392 25.3117 37.0115 25.3376 36.8047C25.4226 36.1254 26.5624 36.0796 26.6901 36.8535C26.7111 36.981 26.6968 37.133 26.697 37.2627L26.6978 41.0077L26.6991 42.9078L28.0103 42.91L28.0142 37.3393C28.0148 37.1461 27.9928 36.9114 28.0322 36.7219C28.1426 36.1918 29.0001 36.1447 29.2536 36.6096L29.268 36.6351C29.4623 36.9862 29.3428 38.0439 29.343 38.473L29.3441 42.5312C29.3442 42.65 29.3297 42.7918 29.3547 42.9069L31.3386 42.9163L31.3363 37.648C31.3367 37.3543 31.3038 37.0201 31.3925 36.7385L31.4026 36.7048C31.5007 36.4014 31.8499 36.2641 32.1441 36.2936L32.1764 36.2965C32.3143 36.3111 32.4686 36.4023 32.5545 36.5118L32.6206 36.6152C32.7464 36.8257 32.6934 37.1051 32.6936 37.3397L32.6921 41.8C32.6922 42.1592 32.6537 42.5591 32.7029 42.9107L34.0095 42.9104L34.0111 37.4873C34.0114 37.2533 33.9961 37.0054 34.0272 36.7737C34.1114 36.1459 35.2787 36.1091 35.3313 36.762L35.3349 36.803C35.3776 37.3186 35.3428 37.8595 35.343 38.3785L35.3437 42.4308C35.3437 42.5816 35.3258 42.7592 35.3527 42.9068L37.3137 42.899C38.1207 42.8987 39.1909 43.0255 39.4114 41.9182C39.4517 41.7162 39.4353 41.4906 39.4366 41.2845L39.4341 36.5025C39.4232 35.9533 39.1276 35.4387 38.5868 35.252C38.4391 35.2011 38.1912 35.2307 38.032 35.2307L9.6976 35.2317Z" fill="black"/>
</svg>
