<svg width="48" height="48" viewBox="0 0 48 48" fill="none" xmlns="http://www.w3.org/2000/svg">
<path d="M24.1459 41.3215L20.9658 41.337C20.6966 41.3472 20.4344 41.3895 20.1677 41.408L13.2007 41.9101C12.4051 41.9897 11.6002 42.1062 10.7996 42.1004C9.5209 42.0912 8.27486 41.3325 7.78989 40.1251C7.49932 39.4015 7.57291 38.6901 7.57244 37.9227L7.58575 29.1795L7.90882 26.3604C8.80179 20.8179 12.3167 15.7578 16.9457 12.6592C17.8953 12.0235 18.8901 11.4321 19.952 11.0035C19.8332 10.6817 19.7292 10.3983 19.6465 10.0652L19.6206 9.93468C19.5001 8.69596 20.2632 7.53543 21.3751 7.03152C21.9729 6.76058 21.7928 6.86591 22.2716 6.42894C22.744 5.99788 23.3327 5.82712 23.9562 5.77607C24.6312 5.72301 25.3497 6.05694 25.8598 6.46748C26.025 6.60046 26.2024 6.78669 26.4093 6.84613C27.4974 7.15883 28.0031 7.91596 28.3214 8.92415L28.3319 8.95663C28.529 9.5863 28.2733 10.4043 27.9797 10.954L30.3859 12.2289C34.59 14.7809 37.8966 18.8461 39.3746 23.5551C39.4655 23.8446 39.5794 24.1444 39.6394 24.4424L39.9684 25.7465C40.3137 27.297 40.4102 28.9223 40.4118 30.5065L40.4105 38.7178C40.4103 38.9779 40.4313 39.2579 40.3931 39.5153C40.1993 40.8208 38.9504 41.886 37.6808 42.0734C36.979 42.177 36.2351 42.0456 35.5353 41.993L26.3904 41.332L24.1459 41.3215ZM23.9038 7.13263C23.4436 7.24208 23.2253 7.38576 22.9653 7.77318C22.7231 8.13374 22.472 8.10257 22.0929 8.23865L22.0615 8.24971C21.3034 8.52154 20.8184 9.41507 21.0991 10.19L21.1963 10.4215C21.2682 10.6189 21.4273 10.5246 21.5862 10.4811L22.0914 10.3561C22.7002 10.1898 23.4711 10.1646 24.1071 10.1696L24.9328 10.2137C25.4817 10.2778 25.9523 10.3807 26.4784 10.5401C27.3878 9.67335 27.0084 8.32808 25.7799 8.15933C25.1366 8.07098 25.1572 7.06026 23.9038 7.13263ZM23.8987 11.6151C21.6954 11.6121 19.6356 12.5681 17.8266 13.7487C13.0633 16.8574 9.86036 21.9014 9.14885 27.5511C9.06879 28.187 8.97925 28.8249 8.97658 29.4667L8.97696 33.0434C9.0304 33.0613 9.10825 33.0369 9.16521 33.0283L12.5499 32.4658L19.4919 31.7144L24.0876 31.6356L26.2474 31.6392C26.4782 31.6458 26.7049 31.6867 26.9349 31.6936L31.6638 31.997L36.7497 32.6564L39.0092 33.0658C39.0486 32.9591 39.0219 32.7633 39.022 32.6425L39.0218 31.4312C39.0215 30.6482 39.0555 29.8475 39.0124 29.0665C38.6786 23.0108 35.5744 17.5147 30.63 14.063C29.0777 12.9793 27.3723 12.0524 25.4878 11.7376L24.8258 11.652C24.5384 11.6028 24.1911 11.6061 23.8987 11.6151ZM22.1389 33.063L20.6864 33.0714L15.5729 33.5277L9.54475 34.3952C9.35191 34.43 9.15208 34.4786 8.9561 34.4873L8.98057 36.9121C9.49854 36.7913 10.0377 36.727 10.5637 36.6476L17.2986 35.8434L18.1812 35.8036C18.4076 35.7873 18.6294 35.7487 18.8568 35.7388L20.7654 35.6517L25.9275 35.6432L27.3695 35.6562C27.5913 35.6666 27.809 35.7092 28.0316 35.7182L30.449 35.8461L35.7771 36.4059L38.291 36.7855C38.5151 36.8196 38.7893 36.9151 39.011 36.9126L39.0208 35.1947C39.0206 35.0008 39.0627 34.6771 39.0066 34.4979C38.4209 34.3591 37.815 34.2747 37.221 34.1758L29.988 33.2796L27.863 33.1489C27.64 33.1352 27.4215 33.0933 27.1975 33.083L22.1389 33.063ZM22.7847 37.0684L20.0076 37.1215L18.4042 37.2124L9.61352 38.2317C9.41186 38.2604 9.16577 38.2612 8.97593 38.3307L8.97724 39.0149C8.98207 39.9188 9.66368 40.4196 10.4822 40.675C10.9011 40.8056 12.3426 40.5717 12.8141 40.5291L19.488 40.0303C19.7541 40.0179 20.016 39.9589 20.2819 39.9501L21.9956 39.9409C22.1487 39.9387 22.298 39.9112 22.4504 39.9049L24.7029 39.8968C24.8549 39.8968 25.0333 39.9157 25.183 39.8971L27.3883 39.9516C27.6275 39.9617 27.8625 40.0111 28.1013 40.0242L30.556 40.1549L36.0872 40.6239C36.6234 40.6871 37.2857 40.8079 37.7927 40.5938C38.3371 40.364 38.9037 39.9123 39.0072 39.2919C39.0352 39.1243 39.052 38.4642 39.0039 38.3127L33.1872 37.5678L29.6253 37.2279L27.6663 37.1197L22.7847 37.0684Z" fill="black"/>
<path d="M30.8381 29.6975L23.7331 29.6999C23.548 29.6999 23.2037 29.7427 23.0415 29.668L22.9521 29.6216C22.4467 29.3185 22.5408 28.8884 22.5416 28.392L22.5463 19.9106C22.5639 19.5063 22.8187 19.2701 23.2057 19.1776C23.6213 19.1415 24.0572 19.17 24.4757 19.17L29.6095 19.1686C29.9952 19.1686 30.4088 19.1388 30.7917 19.1718C31.5921 19.241 31.4506 20.1354 31.4507 20.6576L31.4494 29.0628C31.4468 29.1598 31.4282 29.2448 31.3695 29.3235L31.3479 29.3518C31.2049 29.5484 31.074 29.6397 30.8381 29.6975ZM24.3186 20.6066L23.9277 20.6211L23.9253 24.9465C23.9295 25.0973 23.918 25.2553 23.9523 25.4025L29.6545 25.4087L30.0471 25.4064L30.0474 20.6084L24.3186 20.6066ZM23.9448 26.8115C23.8892 27.1101 23.8842 27.9372 23.9295 28.2455L30.0533 28.2571L30.0438 26.8141L23.9448 26.8115Z" fill="black"/>
</svg>
