<svg width="48" height="48" viewBox="0 0 48 48" fill="none" xmlns="http://www.w3.org/2000/svg">
<path d="M24.4334 40.8277L9.21496 40.8279C6.88579 40.824 4.94498 39.3122 4.72523 36.9008C4.6811 36.4164 4.70648 35.9127 4.70648 35.4262L4.70681 30.4408C4.70704 30.0151 4.69007 29.5807 4.71534 29.156C5.16815 21.5347 9.77254 14.0542 17.3519 11.7994C18.004 11.6054 18.6736 11.4205 19.3544 11.3627C19.4186 11.3573 19.4075 11.2676 19.4153 11.2142C19.7146 9.17595 21.6598 7.64187 23.6577 7.50992C23.7769 7.48634 23.9261 7.4997 24.0487 7.50134C26.2983 7.53134 28.2772 9.1558 28.5963 11.3838C34.5056 12.5428 38.7576 15.9635 41.3707 21.4674L42.2824 23.8244C42.7865 25.1973 43.0764 27.149 43.2037 28.5898L43.2833 29.7114L43.2874 35.8109C43.2873 36.3017 43.2951 36.7686 43.2318 37.2551C42.9971 39.0604 41.5747 40.3878 39.8244 40.7307C39.0868 40.8752 38.3303 40.83 37.5826 40.8294L24.4334 40.8277ZM23.7221 8.98587C22.3765 9.128 21.3434 9.9364 20.912 11.2005L24.363 11.2002L27.0868 11.2007C26.5785 9.80666 25.231 8.82172 23.7221 8.98587ZM21.1155 12.659C20.1741 12.7185 19.2467 12.82 18.3291 13.0464C12.1733 14.5656 7.8419 20.219 6.56268 26.2267C6.37847 27.0919 6.27843 27.9837 6.19598 28.8633C6.111 29.77 6.22378 30.6898 6.14156 31.5955L8.44898 31.5951L14.8109 31.5957C14.9551 31.5957 15.164 31.622 15.3009 31.5836L15.3019 25.8777C15.3025 24.9802 15.4124 24.5083 15.6247 23.6248C16.5595 19.7353 18.8891 16.0123 22.1931 13.6972C22.5889 13.4198 23.0272 13.1923 23.4118 12.9033C23.1097 12.7169 22.8076 12.7148 22.4651 12.6903L21.1155 12.659ZM25.3189 12.6595C25.5344 12.8558 25.7262 13.0791 25.9334 13.2777C28.5486 15.7858 30.8704 18.801 31.9931 22.2892L32.0823 22.5705C32.1717 22.8748 32.2564 23.1807 32.3448 23.4845L32.5447 24.3093C32.7421 25.2685 32.6914 25.796 32.6921 26.7742L32.7129 31.596L40.9095 31.5958C41.2088 31.596 41.5492 31.6363 41.8426 31.605C41.8359 30.8233 41.8647 30.0257 41.8066 29.2457C41.5408 25.6718 40.5348 22.3734 38.4879 19.4277C35.3421 14.9006 30.8348 12.6273 25.4188 12.6552L25.3189 12.6595ZM24.5219 13.946L23.3663 14.6685C20.1142 16.8271 17.8265 20.4465 16.9694 24.2228L16.8062 25.0124C16.7072 25.3661 16.7528 25.8071 16.7531 26.1732L16.7565 31.5977L23.5603 31.5951L31.2584 31.5953L31.2503 25.9138C31.2492 24.9029 31.0841 24.3018 30.7883 23.3214C29.791 20.0157 27.7855 17.1189 25.3222 14.7316L24.5219 13.946ZM6.1627 33.0542L6.17222 35.9116C6.18126 36.4366 6.1514 37.0177 6.32953 37.5236C6.60918 38.3177 7.33631 39.019 8.16773 39.1911L8.18273 39.1056C8.22422 38.5493 8.20373 37.9812 8.20378 37.4234L8.20415 33.6502C8.20429 33.4554 8.19473 33.256 8.21751 33.0624L6.1627 33.0542ZM9.66 33.0547L9.64875 38.8892C9.64931 39.0132 9.62428 39.2133 9.66239 39.3251L13.8945 39.3283L13.8971 33.0643L9.66 33.0547ZM15.7348 33.0556L15.3357 33.068L15.3266 39.3172L17.1384 39.3224L17.5324 39.3467L17.5259 33.0638L15.7348 33.0556ZM18.9651 33.0542L18.9667 39.3285L22.8472 39.3265L22.8521 33.0631L18.9651 33.0542ZM24.3051 33.0542C24.2633 33.4685 24.2836 33.8967 24.2834 34.3155L24.2824 38.3489C24.2824 38.6672 24.2579 39.0078 24.29 39.3237L28.2757 39.3224L28.2786 33.0627L24.3051 33.0542ZM31.4029 33.06L30.2852 33.0567C30.1001 33.0572 29.8998 33.0417 29.7175 33.0658L29.7101 39.3267L30.1433 39.3224L31.8906 39.3269L31.8945 33.0535L31.4029 33.06ZM33.361 33.053L33.332 39.3256L37.5151 39.3414L37.5181 33.063L33.361 33.053ZM40.2024 33.0547L39.3542 33.0572C39.2443 33.0576 39.0824 33.0361 38.9792 33.0696L38.9707 38.9844C38.9688 39.078 38.9425 39.2468 38.9742 39.3319C39.4684 39.3041 39.9196 39.2235 40.3652 38.9987C41.9776 38.1971 41.8335 36.6607 41.8352 35.1313L41.8361 33.0574L40.2024 33.0547Z" fill="black"/>
</svg>
