<svg width="48" height="48" viewBox="0 0 48 48" fill="none" xmlns="http://www.w3.org/2000/svg">
<path d="M33.1846 30.8635C33.2403 30.8801 33.3312 30.8677 33.3922 30.8675L33.8896 30.8722C34.0993 30.8783 34.3028 30.9228 34.512 30.9318L37.5206 31.0523C38.0263 31.0841 38.5318 31.1717 39.0329 31.2442C39.0532 31.1848 39.0264 31.06 39.0246 30.9937L39.0208 26.806C39.0163 26.6073 38.9986 26.4049 38.9671 26.2085L38.8907 25.5941C38.4022 22.2283 36.7118 19.2157 34.2372 16.9204C32.1586 14.9925 29.2429 13.4079 26.4058 13.083C26.1789 13.0569 25.8507 13.1114 25.6585 12.9634L25.6352 12.945C25.4076 12.7769 25.2359 12.4229 25.3746 12.1479L25.3897 12.1201C25.4802 11.9507 25.6608 11.8419 25.8152 11.7351L26.6248 11.2033C26.8583 11.0485 27.0848 10.8856 27.2978 10.7036C26.9787 10.3053 26.6246 10.2437 26.3788 9.98495C26.1794 9.77504 26.0843 9.33132 25.9771 9.0601L25.5865 8.13137C25.2678 8.36326 25.0515 8.79746 24.6243 8.86538L24.512 8.87921C24.1227 8.88352 23.7621 8.42893 23.5103 8.17496C23.3543 8.27237 23.0842 9.54887 22.8877 9.82116C22.7076 10.0709 21.9303 10.1715 21.3856 10.84L22.6853 11.7482C22.8688 11.8898 23.0571 12.0354 23.1156 12.2739C23.2799 12.9447 22.5273 12.9935 22.1241 13.0421C16.4982 13.7211 11.6282 17.6138 9.75139 22.9926C9.2855 24.3276 8.97768 25.7834 8.97557 27.202L8.97458 29.077C8.97416 29.3188 8.98602 29.6015 8.84544 29.811L8.82407 29.8416C8.74489 29.9575 8.65316 30.0505 8.52252 30.1079L8.49594 30.1191C8.13008 30.2785 7.76971 30.0638 7.59674 29.7331L7.58122 29.7029C7.49441 29.5393 7.52164 29.3514 7.52108 29.1729L7.59336 26.5316C8.11878 20.3769 11.9531 15.0751 17.7267 12.7366C18.6062 12.3804 19.4968 12.1541 20.4005 11.8769C20.2901 11.7474 20.146 11.6366 20.0444 11.5033C19.5527 10.8576 20.2749 10.4549 20.3423 10.1873C20.3449 10.1772 20.2699 10.1009 20.2454 10.0736C20.0908 9.90156 19.9733 9.74452 19.9532 9.50513C19.8719 8.53759 21.1325 8.64488 21.7625 8.64545C21.864 8.49516 21.9036 8.24902 21.9701 8.07202C22.1761 7.52354 22.5448 6.51587 23.1732 6.3542L23.3376 6.35059C23.7268 6.3609 24.217 6.89223 24.4851 7.17713C25.3761 6.37956 26.1201 5.78106 26.7303 7.30848C27.1349 8.32107 26.9054 7.80231 27.7632 7.95995L27.7967 7.96632C28.0486 8.00706 28.3374 8.13188 28.3992 8.40681L28.4082 8.4496C28.4526 8.59979 28.4902 8.77309 28.4349 8.9296L28.4259 8.95351C28.3498 9.17476 28.2026 9.28018 28.03 9.42882C28.3343 9.74471 28.7836 9.94726 28.9534 10.3787L28.9685 10.4184C29.237 11.0508 28.4429 11.6229 27.9776 11.9041L30.8276 12.9704C35.6415 15.1878 39.1235 19.5226 40.1616 24.7034L40.3446 25.8477C40.4734 26.8787 40.4773 27.8977 40.4778 28.9344L40.4776 31.6748C40.5141 31.7009 40.5452 31.7229 40.5881 31.7373C41.6096 32.0825 41.9765 32.8291 41.9781 33.8199L41.9788 37.9041C41.9785 38.1159 41.9922 38.3395 41.9727 38.55C41.8282 40.1057 38.322 40.7141 37.157 40.8861L33.9491 41.2489L30.9405 41.4981L28.5263 41.6066C28.3338 41.6131 28.1451 41.6493 27.9516 41.6518L20.9498 41.6476C20.7695 41.6423 20.5922 41.6092 20.4126 41.6042L17.5592 41.5016L14.8264 41.3194L10.8969 40.8861C9.59211 40.6948 6.03008 40.088 6.02239 38.4354L6.02197 33.7432C6.02286 33.1704 6.05764 32.7752 6.49691 32.3384C7.76094 31.0812 9.95169 31.1067 11.613 31.021C11.8092 31.0109 11.9959 30.9619 12.1963 30.9526L15.8202 30.8578C16.0395 30.852 16.2494 30.7832 16.4654 30.7776L30.7457 30.7749C31.0426 30.7768 31.3055 30.8382 31.5936 30.8585C32.1141 30.895 32.6614 30.8634 33.1846 30.8635ZM26.6511 32.1666L26.6428 36.5358L27.3999 36.5212C27.5315 36.5206 27.6599 36.5467 27.7887 36.5122L27.7768 35.6125C27.7782 35.2878 27.7781 34.9699 27.858 34.6527L27.8669 34.6167C28.0352 33.9559 28.6156 33.3288 29.2616 33.0938L29.6884 32.9643C30.2089 32.8218 30.8254 32.9617 31.2838 33.2283C32.4601 33.9125 32.479 34.8999 32.483 36.0528C32.4836 36.2312 32.4567 36.4426 32.5409 36.6049C32.7448 36.7219 32.7501 36.5748 32.7591 36.411L32.7771 35.2696C32.7921 34.7821 32.8803 34.4542 33.1437 34.03L33.1689 33.9932C33.9074 32.9229 35.4371 32.6336 36.5034 33.3841L36.8186 33.6373C37.3299 33.2232 37.7336 33.1402 38.3678 33.1972C38.4721 33.2065 38.5103 33.2461 38.5376 33.141L38.6562 32.5884C37.8984 32.4247 37.1183 32.4509 36.3506 32.3937L32.7184 32.1679L26.6511 32.1666ZM16.3867 32.2292L16.3825 36.1433C16.3824 36.2903 16.3644 36.4377 16.383 36.5837L18.7245 36.5412C18.7743 36.1856 18.7615 35.8212 18.7622 35.4639L18.7611 32.6522C18.7605 32.5249 18.779 32.3516 18.7441 32.2311L16.3867 32.2292ZM20.1392 32.2309L20.1282 36.1206C20.1282 36.2516 20.1103 36.4059 20.1381 36.5322L21.3921 36.5395L21.3928 32.6209C21.3928 32.4983 21.4099 32.3465 21.3816 32.229L20.1392 32.2309ZM22.7845 32.2291L22.7804 36.0845C22.7804 36.2281 22.7664 36.3887 22.7886 36.5302L25.2374 36.53C25.2403 36.0272 25.2803 32.3418 25.2246 32.2287L22.7845 32.2291ZM13.9701 32.3142C13.4382 32.3173 12.8494 32.2789 12.3281 32.3848C11.6094 32.5308 10.6045 32.378 9.82105 32.5869L9.79386 33.4201C11.1513 34.2552 11.4226 34.682 11.4186 36.1631L11.4165 36.7442L14.9709 36.6397C14.9992 36.4524 14.9908 36.2583 14.9919 36.0691L14.9795 32.2994L13.9701 32.3142ZM8.30961 32.848C7.94221 32.9835 7.45799 33.1422 7.4525 33.5571L7.44847 36.3702C7.44782 36.6731 7.40774 37.007 7.44243 37.3048C7.98121 37.0741 8.28247 37.0512 8.78052 36.9112C9.17619 36.8505 9.59689 36.8754 9.98389 36.7984L9.99758 36.189C10.0217 35.8531 10.1386 35.4588 9.87346 35.1976C9.06125 34.3975 8.16899 34.5895 8.39127 32.9887L8.40613 32.8598L8.30961 32.848ZM39.9276 32.959C39.8855 33.691 39.8647 34.4055 39.0467 34.7372L39.0176 34.7495C38.6622 34.8931 37.7896 34.2718 37.4766 34.8916L37.477 36.802L38.3495 36.8458C39.1066 36.8782 39.8332 37.0119 40.541 37.2932L40.5371 37.2631C40.4808 36.7754 40.573 33.419 40.5068 33.3166C40.4143 33.1735 40.0809 33.0131 39.9276 32.959ZM30.0015 34.3641C29.8813 34.3924 29.7813 34.4171 29.6747 34.4827L29.6444 34.5008C29.5103 34.583 29.4104 34.6844 29.327 34.8168L29.3055 34.8503C29.2484 34.9425 29.2356 35.0158 29.2225 35.1215L29.2174 35.1579C29.1581 35.6048 29.1702 36.086 29.1752 36.5375L30.3163 36.541L31.099 36.5483L31.1038 35.7527C31.1031 35.1003 30.9214 34.3307 30.1053 34.3521L30.0015 34.3641ZM34.9796 34.3908C34.8817 34.4175 34.7951 34.4468 34.7044 34.4921L34.6692 34.5094C34.1702 34.7626 34.1499 35.2374 34.1481 35.7252L34.1564 36.6485L35.3729 36.6553L36.0504 36.7208L36.0565 35.4402C36.0536 35.2832 36.0714 35.0703 36.0277 34.9196C35.9106 34.5158 35.3448 34.3472 34.9796 34.3908ZM21.9511 37.9466L17.2113 37.9508C16.8759 37.9545 16.5412 38.0126 16.1994 38.0141L13.7686 38.0225L10.6314 38.1863C9.71188 38.2481 8.73908 38.1796 7.89547 38.6271C8.78614 39.2611 10.5604 39.4623 11.6144 39.5905L12.874 39.7477L18.2999 40.1339L19.5714 40.1448C19.7368 40.1488 19.8993 40.1756 20.064 40.1821L26.0916 40.2281L29.9476 40.1268C30.1775 40.1166 30.4016 40.0713 30.6317 40.0592L31.5936 40.0312C31.822 40.0208 32.0486 39.9781 32.2779 39.9642L36.3631 39.5869C37.4339 39.4402 39.1836 39.2466 40.1215 38.66C39.2153 38.1373 37.9947 38.2386 36.9842 38.177L34.3238 38.0243L31.5875 38.0135C31.309 38.0125 31.0372 37.9541 30.7573 37.9506L22.3599 37.9447C22.2281 37.9449 22.0803 37.9299 21.9511 37.9466Z" fill="black"/>
</svg>
