<svg width="48" height="48" viewBox="0 0 48 48" fill="none" xmlns="http://www.w3.org/2000/svg">
<path d="M24.5506 43.3181C23.9358 43.3514 23.3023 43.3208 22.6856 43.3207L19.3057 43.2135C15.9283 42.9643 12.7751 42.3561 9.60687 41.1419C9.09921 40.9473 8.57337 40.7696 8.12084 40.4617C7.16018 39.8081 6.61643 38.3915 6.49498 37.2592C6.46123 36.9446 6.44726 35.8355 6.51415 35.5483L6.6874 34.6688C6.95745 33.5837 7.58149 32.72 8.72271 32.5769C8.76579 31.8914 8.73462 31.1868 8.7349 30.499L8.74437 24.8569C8.7507 24.6677 8.79602 24.4929 8.80882 24.3069C9.00509 21.4491 9.72213 18.3623 11.285 15.9256C13.0162 13.2265 16.0177 11.3338 19.1291 10.6504L19 9.92315C18.7053 7.24106 20.9256 4.91062 23.5136 4.62625C25.613 4.45744 27.8014 5.6445 28.6069 7.63669L28.7899 8.13417C29.0419 8.89209 29.123 9.82514 28.8808 10.5956L30.4924 11.1363C34.0071 12.4311 36.1354 14.4693 37.6864 17.777L38.5144 20.1765C38.705 21.0951 38.8802 21.8649 39.0139 22.816L39.1989 24.4449C39.2193 24.6412 39.2526 24.8294 39.2634 25.028L39.2966 32.5593C39.3907 32.6135 39.5454 32.6093 39.6535 32.6324C40.4561 32.804 40.9497 33.8192 41.1826 34.5113C41.7675 36.2495 41.7858 38.7904 40.4165 40.1308C39.339 41.1855 34.3077 42.4477 32.8709 42.7133L28.5445 43.2402C28.3382 43.26 28.1343 43.2992 27.9268 43.308L24.5506 43.3181ZM23.8055 6.00942C22.0887 6.20433 20.7195 7.22348 20.3783 8.99962L20.3702 9.03703C20.296 9.39047 20.3106 9.89522 20.4004 10.2405L20.4236 10.3384C20.924 10.3225 21.447 10.1767 21.9448 10.2318L21.9743 10.2345C22.3692 10.2774 22.6583 10.6868 22.5868 11.0738C22.4687 11.7127 21.7785 11.5928 21.3521 11.6287C21.2259 11.6394 21.1017 11.6761 20.9764 11.6946L19.6873 11.9098C18.9585 12.068 18.2693 12.3138 17.5784 12.5887C13.1694 14.3425 11.2136 17.7635 10.4149 22.2779C10.1758 23.6286 10.0333 25.1359 10.0676 26.5068L24.3338 26.509L37.9384 26.514C37.9379 25.9202 37.9302 25.307 37.8793 24.7157L37.6807 22.9215C36.8033 16.4256 33.0532 12.0983 26.1444 11.6109C25.1374 11.5399 25.0372 10.1846 26.4084 10.2317L27.5742 10.3378C28.2256 8.10229 26.0743 5.91117 23.8055 6.00942ZM10.044 27.916L10.0256 32.9822C10.1974 33.0663 10.3781 33.1159 10.5575 33.1804L11.6085 33.5518C14.4179 34.5213 17.3651 34.9286 20.3201 35.1007L20.9986 35.1607L25.2303 35.2061L28.5853 35.0603C31.0571 34.8783 33.8185 34.4189 36.184 33.6257L36.3223 33.5758L37.6252 33.1035C37.7425 33.0592 37.877 33.0356 37.9798 32.9623L37.9757 27.915L10.044 27.916ZM8.70415 33.9553C8.47427 34.1017 8.34551 34.2789 8.22626 34.5231C7.53724 35.9338 7.57104 38.4631 9.05866 39.4098L9.24312 39.5223L9.38655 39.5866C9.43052 39.5542 9.42002 39.5634 9.42743 39.5139L10.129 34.4556L9.38979 34.1871C9.17004 34.0984 8.93899 33.994 8.70415 33.9553ZM39.2423 33.9723C38.8074 34.0714 38.3652 34.2957 37.9503 34.4625L38.2981 37.2067C38.3293 37.4029 38.3309 37.6054 38.3751 37.7989L38.6089 39.5868L38.8453 39.4979C38.979 39.4311 39.1245 39.3677 39.2474 39.2827C41.0441 38.0393 39.8756 33.9372 39.2423 33.9723ZM36.598 34.9098L34.2582 35.5864L34.3549 36.1723C34.3893 36.3288 34.3897 36.4922 34.4155 36.6498L34.9803 39.8031C35.0291 40.0815 35.0985 40.3679 35.1113 40.6506L35.1444 40.7496C35.3771 40.8226 37.0654 40.1925 37.2927 40.0864L37.3369 40.0612C37.2266 39.547 37.1977 39.0213 37.1143 38.5034L36.8322 36.4312C36.769 35.9354 36.6813 35.4207 36.672 34.9215C36.6183 34.9015 36.6433 34.9025 36.598 34.9098ZM11.4027 34.9081L10.7028 40.0798L12.8418 40.7846L12.8705 40.5882L13.7691 35.6002C13.4668 35.4187 11.9826 35.1653 11.4027 34.9081ZM32.9106 35.8942L28.7958 36.4488L27.8014 36.4772C27.3326 36.5032 27.0629 36.5655 26.5316 36.5495C26.4984 36.7109 26.5054 36.8739 26.505 37.0378L26.5031 41.3557C26.5037 42.2569 26.4832 41.8295 27.4744 41.9186L31.8866 41.4608C32.54 41.3624 33.2126 41.268 33.85 41.0895L32.9106 35.8942ZM15.0823 35.9055L14.1339 41.1349L20.5756 41.904L21.4797 41.9252L21.4889 37.2901C21.4886 37.0448 21.5051 36.7862 21.4759 36.5429C21.1024 36.5403 20.7483 36.4978 20.3787 36.4805L19.2164 36.4343L15.6033 35.9975C15.4352 35.9755 15.2422 35.9596 15.0823 35.9055ZM22.8 36.5656L22.7894 41.9896L25.1916 41.9766L25.216 37.1931C25.2155 36.9886 25.2304 36.77 25.1971 36.5684L22.8 36.5656Z" fill="black"/>
</svg>
