<svg width="48" height="48" viewBox="0 0 48 48" fill="none" xmlns="http://www.w3.org/2000/svg">
<path d="M27.949 42.071L8.27676 42.0712C7.63982 42.071 7.17313 42.0606 6.59399 41.7339C5.30366 41.006 5.27629 39.9283 5.27502 38.6598L5.27441 35.7475C5.27643 34.6306 5.47063 33.7344 6.50146 33.065C6.60585 32.9971 6.70855 32.9279 6.83038 32.8968L6.86915 32.8874C7.1758 32.8068 7.0274 32.3578 7.02745 32.0313L7.02965 28.5115C7.03246 28.0468 7.08468 27.772 7.11749 27.3465C7.60452 21.031 11.2365 15.0414 17.0388 12.2795L17.9458 11.8751C18.224 11.7534 18.4844 11.6359 18.7811 11.5635C18.1069 10.6544 17.765 10.2771 17.8354 8.98851C17.8733 8.29514 18.2756 7.61901 18.7742 7.16081L18.5305 6.51585C18.1024 4.84457 19.4394 3.16959 21.1216 3.01017L21.1276 3.00884C22.1589 2.93059 23.1908 3.38001 23.964 4.04026L24.4496 3.69949C25.4654 3.07913 26.732 2.72968 27.858 3.27148C29.1725 3.90392 29.9005 5.5799 29.3191 6.94945C29.265 7.07695 29.2019 7.08693 29.2926 7.19503C29.5935 7.55339 29.8702 7.89412 30.0349 8.34342C30.4311 9.42407 30.0586 10.7391 29.2311 11.514L29.2081 11.5352C29.3968 11.6467 29.6433 11.707 29.8487 11.7875L30.8762 12.2324C34.0549 13.7253 36.4463 16.121 38.2615 19.0721L38.957 20.3339C39.1073 20.6264 39.2785 20.9383 39.3867 21.2488L40.1258 23.2737C40.2971 23.7697 40.3904 24.275 40.4997 24.7854L40.8162 26.6703C40.8729 27.1073 40.9515 27.7218 40.9596 28.1593L40.9667 31.4922C40.9667 31.9242 40.9387 32.3785 40.975 32.808C41.6864 33.2345 42.092 33.3203 42.4677 34.2424L42.5462 34.4478C42.5683 34.5277 42.6096 34.596 42.6309 34.6743L42.6374 34.6994C42.7215 35.0138 42.6822 35.4196 42.684 35.7459L42.6835 39.0893C42.682 40.3251 42.4127 41.4377 41.0562 41.9119L41.0271 41.9218C40.3739 42.1473 39.6816 42.071 39.0022 42.0711L27.949 42.071ZM21.3069 4.43919C21.1004 4.45781 20.908 4.48446 20.7185 4.57379L20.6924 4.58579C20.4042 4.72232 20.1865 4.94657 20.0395 5.22679L20.0221 5.25848C19.8395 5.59809 19.8608 5.90198 19.9307 6.25603C20.0003 6.60904 20.3111 6.74334 20.4181 7.05848C20.6479 7.73498 20.1049 7.89618 19.7489 8.16346C19.579 8.29101 19.4515 8.50626 19.36 8.69554L19.347 8.72174C18.9858 9.47264 19.4014 10.2886 20.0661 10.7087C20.6909 11.1037 21.5316 10.9289 22.204 10.767L22.4938 10.6754C23.1208 10.4948 23.4055 10.008 23.824 9.86751L23.8476 9.8594C24.2515 9.73387 24.5459 10.1482 24.8439 10.3443C25.4759 10.76 26.1111 10.8497 26.8422 10.9484C28.6068 10.9473 29.4228 9.08699 28.1993 8.17485C27.8209 7.89267 27.2218 7.64634 27.6069 6.93642C27.7138 6.7394 27.8993 6.6096 27.9841 6.39867L27.9975 6.3667C28.2839 5.66521 27.8686 4.81101 27.1773 4.53774C25.6574 3.93686 24.4601 5.81057 23.8369 5.68776C23.4097 5.60357 22.7747 4.62227 21.6912 4.47288L21.3069 4.43919ZM24.0011 11.4592C23.4484 11.8566 22.8695 12.1391 22.1921 12.2516L21.1862 12.3969C14.6648 13.6523 9.73438 19.3074 8.7193 25.758L8.49426 27.7149C8.47452 27.9357 8.43623 28.1553 8.42577 28.3773L8.41532 32.3214C8.41532 32.4203 8.39896 32.5499 8.42418 32.6449L23.9939 32.6415L39.5736 32.638L39.5741 30.2575C39.5733 29.2207 39.5744 28.195 39.4684 27.1619C38.7535 20.1914 33.8916 13.6512 26.7654 12.3826L25.7083 12.2329C25.0903 12.1191 24.4799 11.876 24.0011 11.4592ZM14.5407 34.0729L7.84649 34.0875C7.35918 34.1151 6.90074 34.4174 6.74666 34.9027C6.68666 35.0916 6.72501 35.3977 6.72459 35.5982L6.72866 39.7619C6.73213 39.8237 6.74488 39.8743 6.77521 39.9282L6.82101 40.0102C7.10259 40.5482 7.48537 40.6159 8.01726 40.6176L33.5974 40.6175L39.7254 40.6181C39.9631 40.618 40.2177 40.6371 40.4529 40.6035L40.4814 40.5997C41.3881 40.4585 41.2881 39.5237 41.2884 38.8892L41.2867 35.6354C41.2863 35.4304 41.3161 35.1689 41.2709 34.9731C41.0789 34.1427 40.3017 34.0729 39.6351 34.0731L15.1151 34.0724C14.931 34.0725 14.7224 34.0531 14.5407 34.0729Z" fill="black"/>
<path d="M34.0298 21.9389C33.3495 22.0001 33.1593 21.4094 32.805 20.9368C32.354 20.3352 31.8772 19.7939 31.3538 19.254L30.2309 18.1788C30.1515 18.1001 30.0524 18.012 30.0006 17.912L29.9586 17.824C29.7921 17.4101 30.1431 17.0165 30.5034 16.8784C30.8406 16.8633 30.993 16.9652 31.2419 17.1827L32.8332 18.7438C33.2775 19.2317 34.2169 20.3523 34.4872 20.9732L34.5411 21.1074C34.5804 21.2354 34.5744 21.3692 34.5162 21.4899L34.5035 21.5157C34.4026 21.7341 34.2392 21.8398 34.0298 21.9389Z" fill="black"/>
<path d="M35.3921 37.8274L13.3527 37.8309C13.1097 37.8311 12.8501 37.852 12.6093 37.8295C11.7631 37.7505 11.7991 36.4844 12.695 36.4064L34.9462 36.4129C35.1064 36.413 35.3317 36.3861 35.4813 36.4399L35.5077 36.4502C36.2214 36.7158 36.1279 37.6114 35.3921 37.8274Z" fill="black"/>
</svg>
