<svg width="48" height="48" viewBox="0 0 48 48" fill="none" xmlns="http://www.w3.org/2000/svg">
<path d="M24.78 42.8461L10.4096 43.3535C10.2302 43.3584 10.0379 43.3717 9.86101 43.3354L9.76437 43.3178C7.34521 43.0496 5.46772 41.2002 5.11253 38.8157C4.64512 35.6776 7.24491 32.9388 10.2992 32.8025L10.2431 30.9403C10.2435 30.8053 10.2663 30.6725 10.2689 30.5381L10.274 29.6801C10.5472 22.8789 13.2133 16.8385 19.9242 14.1672L19.0431 13.826C18.3894 13.5659 17.8997 13.1691 17.6205 12.5136C17.225 11.5852 17.5851 10.3317 18.5673 9.92591L18.5859 9.91844C18.5889 9.81914 18.4963 9.67516 18.4609 9.57777C17.9511 8.17553 19.2332 6.4844 20.7536 6.77021C20.9868 6.81408 21.1942 6.87908 21.4178 6.95799C21.7782 6.0406 22.2496 5.31614 23.3233 5.18917C24.4564 5.10568 25.0068 5.93902 25.4491 6.79726C25.5795 6.7737 25.7092 6.69945 25.8366 6.65874C26.8228 6.34367 27.9957 6.71804 28.4644 7.68883L28.5504 7.88733C28.7067 8.21591 28.7515 8.68618 28.6505 9.04214L28.4426 9.63882C28.711 9.87371 28.9842 10.0249 29.1888 10.3345C29.5456 10.8743 29.6615 11.5171 29.4792 12.1424C29.1444 13.2909 28.2477 13.4325 27.401 13.8869L28.4576 14.2539C31.3277 15.2914 33.9636 17.4398 35.5401 20.0721L36.2928 21.4131L37.1696 23.5184L37.6293 25.0883C37.782 25.5925 37.8614 26.1415 37.9417 26.6622L38.194 28.6432C38.2138 28.8251 38.2546 29.0004 38.267 29.1843L38.3793 31.7933C38.642 31.8446 38.9219 31.7442 39.1991 31.8142L40.1145 32.0121C41.5728 32.4603 42.7027 33.3728 43.4255 34.713L43.5624 35.0011C43.9495 36.0672 44.1445 37.1474 43.8837 38.2697C43.428 40.2304 41.8658 41.7368 39.9207 42.2076C39.2016 42.3816 38.4464 42.3604 37.7105 42.3869L24.78 42.8461ZM23.2506 6.43611C22.2243 6.90619 22.8658 8.10024 22.1648 8.46207C21.8164 8.64191 21.0906 8.09913 20.6541 7.99737L20.6243 7.99012C20.1921 7.8942 19.7818 8.17153 19.6296 8.56731L19.6177 8.59756C19.551 8.77394 19.5533 9.00983 19.6309 9.18158L19.6955 9.30935C19.891 9.68823 20.4022 9.88123 20.2722 10.3912C20.1815 10.7476 19.8893 10.8061 19.5823 10.8553C19.1184 10.9297 18.4867 11.4119 18.7213 11.947L18.7533 12.0032C18.9107 12.3021 19.1181 12.5393 19.4426 12.6642L19.5156 12.6894C19.8843 12.814 20.6232 12.8557 20.8181 13.2381L20.8561 13.3212C20.9326 13.4959 20.9269 13.692 20.9332 13.8792L21.5516 13.7753C22.2533 13.6507 22.94 13.6584 23.6519 13.6341C24.5519 13.6021 25.4316 13.5541 26.3287 13.6691C26.232 11.9913 28.1532 12.9879 28.3203 11.6067L28.3251 11.5732C28.346 11.4149 28.3151 11.289 28.2411 11.1496L28.226 11.1197C28.1286 10.9308 27.9796 10.8029 27.7919 10.7097L27.7648 10.6959C27.4333 10.5334 27.0648 10.571 26.9129 10.1518C26.709 9.5893 27.3323 9.32084 27.4313 8.83502L27.4409 8.7901C27.6208 7.9322 26.7191 7.55215 25.966 7.93626C25.5428 8.15212 24.9227 8.72672 24.5154 8.16346C24.3375 7.91737 24.3649 7.584 24.2897 7.30094L24.2803 7.26359C24.1489 6.75155 23.7929 6.37173 23.2506 6.43611ZM22.4425 14.9261C17.1407 15.6709 13.7211 19.5583 12.2548 24.5593C11.6827 26.5104 11.6208 28.0864 11.5081 30.0447C11.4666 30.7676 11.4205 32.0169 11.5247 32.7439L25.7255 32.2386L37.169 31.8197L36.9281 28.2717C36.3737 23.4661 34.3775 18.8602 30.0546 16.3427C28.4309 15.3971 26.5525 14.8351 24.6653 14.8463L22.4425 14.9261ZM12.4441 33.9446L10.9337 34.0007C9.3253 34.0615 7.81119 34.4826 6.92622 35.9733C6.13188 37.3113 6.06512 38.7895 6.84022 40.1289C7.91431 41.9849 9.54373 42.1428 11.4128 42.0767L36.6494 41.1805L38.1534 41.1285C38.4759 41.117 38.8131 41.1242 39.1334 41.0891C40.7515 40.9117 42.2018 39.7468 42.6538 38.1686C43.2579 36.0595 41.8906 33.7764 39.797 33.1972L39.241 33.0757C38.8489 32.9888 38.4168 33.0249 38.0186 33.0383L12.4441 33.9446Z" fill="black"/>
<path d="M37.0232 37.6304L12.0688 38.5161C11.4875 38.5142 11.2836 37.5268 12.0343 37.2931L36.1412 36.4311C36.5772 36.4155 37.3735 36.2433 37.4798 36.8689L37.4843 36.8963C37.5582 37.2792 37.3737 37.5163 37.0232 37.6304Z" fill="black"/>
</svg>
