<svg width="48" height="48" viewBox="0 0 48 48" fill="none" xmlns="http://www.w3.org/2000/svg">
<path d="M24.533 41.0189C24.3358 41.0371 24.1189 41.0195 23.9192 41.0195L20.884 41.0096C20.6864 41.0024 20.4933 40.9627 20.296 40.9564L19.3273 40.944L14.6533 40.5767L12.9086 40.3341C11.1197 40.0549 9.36811 39.679 7.6164 39.224C7.23085 39.1238 6.83246 39.0947 6.46571 38.9317C3.07883 37.4263 4.52237 32.6646 7.89258 33.0477L7.8931 29.6063C7.89319 29.0216 7.86066 28.416 7.90322 27.8345C8.37586 21.3794 13.3531 15.4392 19.6287 13.8672C19.2738 12.9515 19.0575 12.0858 19.2294 11.1093C19.5987 9.01217 21.3107 7.30503 23.4766 7.13506C23.785 7.12545 24.1036 7.10919 24.411 7.13084C26.3469 7.2673 27.9477 8.61209 28.594 10.418L28.675 10.678C28.9362 11.9806 28.8612 12.6681 28.3744 13.8526L30.0759 14.4453C33.9151 15.9894 37.3466 19.1509 38.919 23.0271L39.6369 25.1251L40.0591 27.4283C40.1108 27.6485 40.1016 27.8956 40.1053 28.1215L40.1099 33.0434C43.765 32.824 44.6813 37.5661 41.5594 38.9143C41.1199 39.1041 40.6139 39.1675 40.15 39.29C38.2113 39.802 36.2284 40.1967 34.242 40.4707L29.3194 40.9402L27.8904 40.9568C27.6827 40.9626 27.4789 41.0076 27.2737 41.0133L24.533 41.0189ZM23.8296 8.4477C21.7856 8.64561 20.2728 10.2323 20.5088 12.293L20.5137 12.3393C20.5515 12.6777 20.7047 13.0236 20.8423 13.3317L20.9435 13.5521L22.4412 13.3336C23.0172 13.2755 23.6031 13.287 24.1814 13.2882C24.8603 13.2972 25.3483 13.2826 26.0187 13.3904L27.0453 13.5477C27.9722 11.9134 27.4257 9.96219 25.839 8.96558L25.5701 8.81675C25.0343 8.56137 24.4265 8.41278 23.8296 8.4477ZM23.3329 14.6349C15.9573 14.9346 9.63821 20.7764 9.20021 28.254C9.15399 29.0435 9.18999 29.8556 9.18971 30.6472L9.19411 33.3852C9.21591 33.8832 10.3574 33.8907 10.8119 33.9727L12.6144 34.3036L17.6375 34.8699L19.7472 34.9967L24.6701 35.0115L28.4692 35.0008C28.808 34.9889 29.1461 34.9231 29.4867 34.9037L34.1716 34.4959L38.3552 33.7511C38.9912 33.5917 38.8103 33.2101 38.8108 32.6417L38.7996 28.0317C38.446 21.3099 32.6627 15.5928 26.0496 14.7538C25.1468 14.6393 24.2412 14.6307 23.3329 14.6349ZM7.37654 34.3912C5.3993 34.6884 5.17899 37.3572 7.65441 37.8845L9.44026 38.3358L13.5935 39.0933L18.4366 39.5674L20.7174 39.6707L27.3121 39.6726L29.6868 39.567L35.0623 38.9967L37.8982 38.4603L40.7528 37.7811C41.6266 37.475 42.3432 36.6754 42.0796 35.6837L42.0683 35.64C41.8403 34.7779 41.0473 34.2606 40.1679 34.3904C39.5742 34.8268 39.152 34.9407 38.4373 35.0927L35.4356 35.6667C33.265 36.002 31.0729 36.1782 28.8801 36.2806C28.5578 36.2956 28.2381 36.3506 27.9154 36.3608L21.1227 36.3655C20.2713 36.3639 19.4363 36.2873 18.5857 36.2547L17.0347 36.1583C15.4498 36.0562 13.8437 35.8598 12.2773 35.5968L10.4529 35.2578C9.71832 35.1237 8.95322 35.0405 8.29585 34.6617C7.93379 34.4531 7.81154 34.3557 7.37654 34.3912Z" fill="black"/>
<path d="M11.9619 29.4262C11.8366 29.4802 11.6935 29.5155 11.5584 29.4738L11.5312 29.4648C10.9953 29.2961 10.9958 28.7969 10.9972 28.3159C11.0149 22.0847 16.4047 16.882 22.4227 16.1576C23.3253 15.9275 23.8509 17.0992 22.9827 17.4259C22.7637 17.5083 22.4197 17.4971 22.1836 17.5329C17.2116 18.2883 12.7738 22.5833 12.3432 27.6791C12.3199 27.9558 12.3965 28.8502 12.2946 29.0306L12.2824 29.0509C12.2012 29.2119 12.1041 29.3175 11.9619 29.4262Z" fill="black"/>
<path d="M11.8332 32.6329C10.8547 32.7107 10.9968 31.677 11.0014 31.0025C11.0048 30.5189 11.0028 30.248 11.5091 30.0281C11.8777 29.9797 12.2608 30.1342 12.3138 30.5547C12.3394 30.758 12.3832 32.0331 12.3063 32.2308C12.2326 32.4203 12.0157 32.5685 11.8332 32.6329Z" fill="black"/>
</svg>
