<svg width="48" height="48" viewBox="0 0 48 48" fill="none" xmlns="http://www.w3.org/2000/svg">
<path d="M24.3865 43.6715L12.2119 43.6723C11.5898 43.6722 10.9179 43.7362 10.3135 43.5901C8.76742 43.2162 8.24734 42.0821 8.24603 40.6493L8.24734 38.3577C8.24786 38.1395 8.22606 37.8805 8.28418 37.6693L8.29239 37.641C8.5659 36.6464 9.02861 37.5789 8.51931 36.3121C8.07418 35.2049 8.08464 34 8.69753 32.9535C8.95436 32.5149 9.02551 32.6569 9.02533 32.0956L9.03184 27.8868C9.03934 27.7252 9.07098 27.5666 9.08139 27.4057L9.11383 26.7191C9.24217 25.389 9.46689 24.0353 9.84667 22.7521C11.461 17.2972 15.7653 12.995 21.3653 11.8512C21.0328 11.6034 20.7157 11.1556 20.5202 10.7919C19.1742 8.28749 20.8909 5.4771 23.6405 5.11893C23.7301 5.09554 23.8602 5.10787 23.9551 5.10679C25.7085 5.0872 27.1637 6.19649 27.7505 7.82849C28.2246 9.14718 27.7466 10.9548 26.6746 11.83L28.2619 12.2626C32.4064 13.5519 35.9003 17.0422 37.5145 21.0302L38.0625 22.5004C38.1869 22.8804 38.3073 23.273 38.3982 23.6625L38.6707 25.0082C38.8104 25.8409 38.932 26.9907 38.9644 27.8548L38.9744 32.0234C38.9744 32.2246 38.9003 32.4777 39.0582 32.6331C39.4067 32.976 39.5569 33.5774 39.6853 34.0295L39.6956 34.0636C39.9686 35.0631 39.6282 36.0972 39.1492 36.9711C39.382 37.0874 39.5589 37.2113 39.6423 37.4685L39.6561 37.5121C39.8839 38.1339 39.7502 39.0595 39.7512 39.7239L39.7512 40.8025C39.7508 41.014 39.7652 41.2355 39.7276 41.4437L39.6558 41.7543C39.2857 43.0714 38.1021 43.6723 36.8233 43.6732L24.3865 43.6715ZM23.8014 6.50052C22.6485 6.6816 21.8125 7.32388 21.5145 8.50818C21.3989 8.96741 21.8184 8.44129 21.949 8.34548C22.5941 7.87199 23.376 7.65595 24.1696 7.69954C25.1059 7.73699 25.8092 8.15038 26.4834 8.74766C26.4327 7.4332 25.1351 6.35559 23.827 6.49612L23.8014 6.50052ZM23.8049 9.10302C23.0904 9.20657 22.5198 9.54196 22.083 10.1226L21.9227 10.3577C22.4627 10.9945 22.9092 11.4432 23.8244 11.5214L24.1696 11.5205C24.9233 11.4434 25.5308 11.0804 26.006 10.4962L26.089 10.3924C25.5851 9.63641 24.7479 9.0313 23.8049 9.10302ZM23.1647 13.0101C20.2687 13.2038 17.445 14.4592 15.3372 16.4449L14.0957 17.7206C11.8317 20.2908 10.7169 23.8687 10.4673 27.226L10.4098 27.7972C10.3694 28.5196 10.4024 29.2624 10.4024 29.9867L10.4138 32.0792L24.8845 32.0751L37.594 32.0791C37.6393 31.3172 37.6053 30.537 37.6044 29.7733L37.5956 27.787C37.5359 26.6307 37.3536 25.261 37.0917 24.1492C35.7529 18.4648 30.9996 13.3672 24.962 13.0122L23.1647 13.0101ZM21.0462 33.4574L19.0918 33.4682C18.7265 33.4687 18.3335 33.4371 17.974 33.4967L17.9828 37.2434L21.0714 37.2516L21.0462 33.4574ZM10.3055 33.4703L9.91562 33.5225C9.69273 34.3111 9.31468 34.6543 9.70581 35.6254C9.91206 36.1375 10.1732 36.7999 10.6287 37.1377L10.6548 37.1575C10.8146 37.2757 11.1636 37.2485 11.3556 37.2537L11.3611 37.2461L12.0777 37.2608L12.0861 33.861C12.086 33.7343 12.1006 33.5918 12.0713 33.4681L10.3055 33.4703ZM13.4571 33.4692L13.4326 37.2472L16.5818 37.2493L16.5858 33.4694L13.4571 33.4692ZM22.601 33.4676L22.4614 33.4878C22.4377 33.5707 22.4493 33.6773 22.4493 33.7638L22.4472 36.5212C22.4468 36.7592 22.4152 37.0096 22.4343 37.245L25.3551 37.2551L25.5429 37.2543L25.5419 33.4713L22.601 33.4676ZM26.9281 33.4717L26.9063 37.2515L30.0115 37.2617C30.05 37.1646 30.0325 37.0391 30.0305 36.9368L30.0354 33.4681L26.9281 33.4717ZM31.4166 33.4676L31.4025 36.8569C31.4025 36.9825 31.3895 37.1219 31.412 37.2454L34.5692 37.2426L34.5706 33.4685L31.4166 33.4676ZM35.9489 33.4676L35.94 37.2531L36.8031 37.248C37.1169 37.248 37.2898 37.2676 37.5198 37.0199L37.5995 36.9175C37.9872 36.3779 38.0606 35.7504 37.9547 35.1057L37.6332 33.4742L35.9489 33.4676ZM9.62303 38.2386C9.59228 38.7822 9.61848 39.3418 9.61679 39.8873L9.61403 40.8168C9.61361 40.9874 9.59626 41.1792 9.63934 41.3441L9.65045 41.3873C9.66283 41.4282 9.68176 41.4597 9.70286 41.4965L9.80214 41.6701C10.1391 42.2581 10.7609 42.2922 11.3494 42.2944L37.008 42.2916C37.1523 42.2882 37.2848 42.2772 37.423 42.2317L37.4481 42.2237C37.76 42.1209 38.0055 41.933 38.2073 41.6763C38.4467 41.2799 38.412 40.8781 38.4114 40.4266L38.4078 38.6236C38.4062 38.0717 38.2754 38.3212 37.8631 38.4825C37.6021 38.5845 37.2721 38.6537 36.9922 38.6666L11.8566 38.6678C11.266 38.6673 10.623 38.6919 10.0721 38.4412C9.95673 38.3887 9.73389 38.2354 9.62303 38.2386Z" fill="black"/>
<path d="M16.4266 28.5111C15.9926 28.7428 15.5034 28.4573 15.4472 27.9811C15.4259 27.8011 15.45 27.5992 15.4527 27.4171C15.5339 22.0029 17.732 15.6002 23.968 14.9623C24.0708 14.9138 24.3118 14.9709 24.4219 14.9945C25.1258 15.145 25.1377 16.0226 24.4874 16.3125C24.2549 16.4161 23.927 16.3691 23.6719 16.4049C22.694 16.5424 21.8057 16.9325 20.9935 17.4861C18.1472 19.4262 16.9721 23.3455 16.8475 26.6717L16.8121 27.6864C16.7862 28.0568 16.7671 28.284 16.4266 28.5111Z" fill="black"/>
</svg>
