<svg width="48" height="48" viewBox="0 0 48 48" fill="none" xmlns="http://www.w3.org/2000/svg">
<path d="M24.551 40.4723L20.765 40.4654L18.4068 40.3105C16.9934 40.204 15.5898 40.0609 14.1916 39.8231C12.1205 39.4708 9.58601 38.8785 8.57698 36.7979C8.37987 36.3914 8.32558 35.9096 8.24037 35.469L7.77551 33.0285C7.67487 32.5749 7.51329 32.0363 7.6076 31.568C7.82069 30.5101 8.91612 30.2841 8.94809 30.2275C9.04071 30.0635 8.97251 27.7889 8.98896 27.4069C9.00251 27.0925 9.07169 26.7952 9.10127 26.4857C9.46873 22.6395 10.7416 19.1461 13.2661 16.1518C15.5019 13.5001 18.4839 11.315 21.882 10.4595L22.6994 10.2491C22.9499 10.1971 23.2262 10.18 23.4814 10.1585C24.0266 10.1232 24.6238 10.1395 25.1604 10.2427C30.3083 11.233 34.8347 15.0838 37.0666 19.7639L38.0767 22.3165C38.2908 22.9192 38.4663 23.5783 38.5876 24.2054C38.778 25.1896 38.9766 26.5456 38.9999 27.5628L39.0327 29.9417C39.0475 30.1764 38.9729 30.1818 39.2054 30.2623C39.9637 30.5249 40.5213 31.3365 40.3924 32.1497L39.6806 35.7684C39.6084 36.1011 39.5747 36.4218 39.439 36.7395C38.3008 39.4028 34.1969 39.8212 31.596 40.1336L28.0189 40.4128C27.8442 40.4203 27.6727 40.4529 27.4978 40.4585L24.551 40.4723ZM23.8823 11.5374C23.0621 11.745 22.9788 12.8693 22.9733 13.588L22.9728 14.2297C22.9732 14.6085 22.8019 14.9303 22.383 15.0051L22.3524 15.0111C21.843 15.1022 21.5626 14.6425 21.5633 14.1865L21.5655 13.6296C21.5691 13.0662 21.5888 12.6125 21.7386 12.0663L21.7582 11.9959C20.9808 12.2692 20.2278 12.5558 19.4935 12.935C15.5081 14.9926 12.4021 18.8551 11.1664 23.1658L10.6117 25.8653L11.2695 25.7269C12.4542 25.5264 13.6486 25.4125 14.844 25.3046L16.5988 25.147L20.9037 24.9527L23.0565 24.9475C23.4279 24.9473 23.8125 24.9236 24.1819 24.9478L26.6989 24.9516L31.4346 25.1469L32.1318 25.2161C33.8967 25.3416 35.6651 25.5201 37.4031 25.8595L37.2096 24.6917C36.1864 19.1768 31.7875 13.6103 26.2635 12.0115L26.3798 12.6053C26.4505 12.908 26.5326 14.1768 26.4515 14.4565L26.4438 14.4859C26.2584 15.1625 25.2436 15.2123 25.062 14.5316L25.0556 14.5082C25.0306 14.4079 25.0402 14.288 25.0387 14.1844L25.0315 13.5683C25.0185 12.9277 24.9294 11.8061 24.258 11.5764L24.2224 11.5639C24.1092 11.5268 23.9993 11.5333 23.8823 11.5374ZM23.4888 26.4291L20.6396 26.4378L16.6049 26.6315L11.385 27.2016C11.0613 27.2558 10.7432 27.3413 10.4182 27.3869L10.3864 30.0016L24.5276 29.4425L37.5928 29.9988C37.6382 29.9132 37.6008 29.6116 37.5996 29.5064L37.5323 27.4025C37.4607 27.3311 36.8566 27.2417 36.7139 27.2151L32.6135 26.7171L27.0784 26.4382L23.4888 26.4291ZM17.8673 30.9133C17.5441 30.9165 17.2155 30.9063 16.8931 30.9265L14.8844 31.0329L9.80979 31.5447C9.52301 31.5871 9.27452 31.6021 9.01273 31.7346L9.68585 35.3274C9.72734 35.4949 9.70938 35.74 9.78368 35.8874L10.9157 35.8915C11.0094 35.8908 11.1959 35.9066 11.2736 35.861L11.2729 33.6586C11.2735 33.1362 11.1706 31.9947 12.0639 32.0852C12.2446 32.1035 12.4479 32.2954 12.5543 32.4311L12.5705 32.4517C12.7447 32.681 12.6712 33.0748 12.6719 33.3425L12.6742 34.9379C12.6744 35.1919 12.6504 35.4711 12.6795 35.7215L14.3217 35.7205C14.2532 35.0217 14.2928 34.2975 14.2933 33.5942L14.2948 32.7956C14.2955 32.5827 14.2755 32.3556 14.3617 32.1566L14.3719 32.1311C14.5252 31.7557 15.0093 31.5453 15.3499 31.8097L15.3868 31.8381C15.5327 31.9514 15.6114 32.0703 15.6608 32.2503L15.6728 32.2917C15.7157 32.4463 15.7057 32.6143 15.7062 32.7733L15.7064 33.5919C15.7075 34.2752 15.7524 34.9921 15.6835 35.6711L16.6932 35.672C16.8741 35.6755 17.1472 35.7239 17.3164 35.6762C17.2453 34.9598 17.2923 34.1989 17.2928 33.4764L17.2939 32.6799C17.2948 32.2454 17.289 31.8745 17.7541 31.6661L17.7829 31.6529C18.11 31.5112 18.4978 31.729 18.6263 32.0414L18.6715 32.1644C18.7612 32.3813 18.7295 32.6574 18.73 32.8889L18.731 33.8798C18.731 34.4683 18.7937 35.0723 18.6585 35.6498C18.8378 35.682 19.045 35.6653 19.2274 35.6662L20.3556 35.642C20.2559 35.395 20.2724 35.0957 20.2721 34.836L20.2723 32.9287C20.2732 32.6275 20.2207 32.1907 20.4049 31.9285C20.8009 31.3647 21.3841 31.6096 21.6566 32.1037C21.7839 32.3345 21.7444 35.2629 21.6841 35.6635L23.349 35.6405C23.2399 35.3447 23.2699 35.0011 23.2696 34.6904L23.2697 33.6761C23.2704 33.055 23.0466 31.823 23.8624 31.628C24.2521 31.5348 24.4356 31.7944 24.6445 32.0519C24.8022 32.2464 24.7324 35.2172 24.6883 35.652L26.1134 35.6669L26.3322 35.6736C26.3652 35.5816 26.2831 35.3525 26.2775 35.2418L26.2725 32.7062C26.2732 32.5122 26.2582 32.2976 26.3235 32.1121C26.5422 31.4897 27.3086 31.4784 27.6127 32.016L27.6278 32.0418C27.8304 32.4016 27.7065 33.0132 27.7074 33.412L27.7107 34.7572C27.711 35.0513 27.7216 35.3522 27.6879 35.6447L29.3379 35.6155C29.2589 35.3277 29.2729 35.0256 29.2727 34.7303L29.2736 33.6449C29.2749 33.0935 29.1045 32.1525 29.6018 31.761L29.6265 31.7413C30.1106 31.3694 30.6387 31.8029 30.6922 32.3151C30.7266 32.6456 30.7022 33.0008 30.7029 33.334L30.7043 35.18C30.7027 35.3354 30.652 35.5337 30.6703 35.6803L31.8256 35.6736C31.9612 35.6751 32.2061 35.7118 32.3303 35.6754C32.2747 35.085 32.2145 32.8527 32.3205 32.2543C32.4599 31.4668 33.4462 31.58 33.683 32.2621L33.6967 32.2975C33.732 32.4135 33.7178 32.5723 33.7178 32.6937L33.7135 34.8145C33.7133 35.105 33.7511 35.4633 33.6683 35.7405L34.7486 35.7313C34.9295 35.7339 35.1453 35.7671 35.3214 35.7427L35.3214 33.5873C35.322 33.0797 35.2104 32.0513 36.0574 32.0796C36.3368 32.089 36.5647 32.3174 36.6569 32.5667L36.6998 32.6716C36.7402 32.7655 36.73 32.8972 36.7303 32.9982L36.7317 33.635C36.7326 34.3826 36.7656 35.1468 36.7109 35.8924L38.1715 35.9015L38.6798 33.3533C38.7789 32.8185 38.9254 32.2551 38.9541 31.7123C38.4954 31.5212 37.9848 31.5177 37.4966 31.4547L32.1399 31.0085C31.5062 30.9962 30.9336 30.9201 30.2764 30.9168L18.1752 30.914C18.0779 30.914 17.9621 30.9261 17.8673 30.9133ZM18.627 37.1537L16.4728 37.1575C16.2559 37.162 16.0432 37.1971 15.8253 37.1991L13.0181 37.206C12.4759 37.2273 11.5325 37.2557 11.0566 37.3258L11.2592 37.471C11.6851 37.8006 12.8472 38.0979 13.3616 38.2092L16.4651 38.6623L20.6721 38.9931L28.0593 38.9437C28.4793 38.9262 28.9091 38.9371 29.3261 38.8796L33.0588 38.462C34.1137 38.3077 36.0806 38.0337 36.9483 37.3493C36.3769 37.2411 35.7784 37.2988 35.1982 37.2774L34.0864 37.2061L18.627 37.1537Z" fill="black"/>
</svg>
