<svg width="48" height="48" viewBox="0 0 48 48" fill="none" xmlns="http://www.w3.org/2000/svg">
<path d="M24.1995 41.7012L8.0949 41.702C5.37465 41.7017 2.80841 39.3498 3.25373 36.5384C3.53234 34.7796 4.84173 33.3511 6.51526 32.8061C6.56809 32.7889 6.87109 32.7465 6.89392 32.7105C6.92129 32.6675 6.89556 31.2001 6.90334 30.9754L6.96217 29.8103C7.41939 22.7655 10.9992 16.1473 17.7372 13.3984C18.5338 13.0734 19.3924 12.7555 20.2457 12.6222L20.137 12.418C18.7541 10.1178 20.3485 7.01906 22.9221 6.37546C23.2201 6.30093 23.5139 6.27482 23.8183 6.24454C23.928 6.20863 24.1405 6.23892 24.2547 6.25087C27.4536 6.58626 29.361 9.79387 27.7659 12.6175C28.0389 12.6624 28.2931 12.739 28.5588 12.8123C34.293 14.3932 38.1806 18.8845 40.046 24.36L40.6024 26.5685C40.7098 26.9003 40.7276 27.2876 40.7821 27.633L40.9793 29.4007C41.0183 29.8268 41.0405 30.2162 41.0449 30.6448L41.0642 32.687C41.1298 32.7285 41.2212 32.7268 41.2971 32.7441C42.3335 32.9809 43.2813 33.7087 43.9057 34.5463C46.233 37.6683 43.6572 41.7002 39.9654 41.7009L24.1995 41.7012ZM23.6417 7.48298C21.8658 7.69138 20.6559 9.28856 20.888 11.0489C20.946 11.4884 21.259 12.0439 21.5278 12.402L22.0215 12.3084C22.22 12.2808 22.423 12.2805 22.6228 12.2692L24.3811 12.2282C25.1856 12.229 25.728 12.3082 26.4876 12.3958C26.9731 11.652 27.2955 10.8111 27.0778 9.91354C26.78 8.68598 25.77 7.62487 24.4791 7.48635C24.2053 7.45701 23.917 7.4751 23.6417 7.48298ZM23.3372 13.4101C22.6646 13.4564 21.9888 13.4935 21.3242 13.6082C13.8177 14.9044 9.184 21.2816 8.30354 28.5055L8.13043 29.8441C8.08717 30.3633 8.09743 30.8975 8.09495 31.4185L8.08689 32.5718L24.6917 32.5633L39.8822 32.5704C39.8553 31.5954 39.9098 30.6129 39.8346 29.6404C39.4378 24.5094 37.457 19.7707 33.2923 16.5242C30.1403 14.0671 27.1833 13.385 23.3372 13.4101ZM7.92765 33.7546C6.27479 33.8057 4.45381 35.2786 4.3978 36.9755C4.97692 36.6867 5.59975 36.4634 6.23462 36.3319C6.7375 36.2278 7.23756 36.2036 7.74864 36.1975L40.096 36.1891C41.6427 36.1363 42.2836 36.4962 43.5894 36.9894C43.5607 36.7847 43.5452 36.5767 43.4912 36.3763C43.1133 34.974 41.8063 33.932 40.3713 33.7659C40.0458 33.7283 39.6917 33.7545 39.3637 33.7544L7.92765 33.7546ZM8.34489 37.3733C8.29567 38.1528 8.31747 38.9501 8.31798 39.74L8.31812 40.2483C8.31836 40.3351 8.30837 40.4369 8.33069 40.5207L17.6911 40.5184L17.7147 38.4277C17.7145 38.0804 17.738 37.7124 17.7021 37.3683L8.89408 37.3717C8.74117 37.3711 8.48917 37.3357 8.34489 37.3733ZM18.8519 37.3733C18.8462 37.7053 18.8138 40.4449 18.8594 40.5197L29.1255 40.5182L29.1325 37.6971C29.1324 37.5918 29.1436 37.4717 29.1221 37.3689L18.8519 37.3733ZM30.2991 37.3733C30.2539 38.0468 30.2867 38.7582 30.2863 39.4512L30.286 40.1548C30.2859 40.2713 30.2737 40.4039 30.2939 40.5179L39.6047 40.517L39.6086 37.5355C39.6085 37.4848 39.6188 37.4147 39.5947 37.371L30.2991 37.3733ZM40.8019 37.3948L40.7804 39.2291C40.7806 39.6031 40.7397 40.0317 40.8023 40.3993C41.4289 40.2326 41.9695 39.9838 42.4485 39.5377C42.8372 39.1389 43.1483 38.7118 43.3681 38.1967C42.8898 37.9404 41.3626 37.3493 40.8019 37.3948ZM7.0389 37.4392C6.20495 37.5458 5.3147 37.7614 4.61021 38.1811C4.78712 38.6938 5.17323 39.275 5.59825 39.6173C5.9454 39.928 6.41622 40.2042 6.87986 40.3002C6.97065 40.319 7.07673 40.32 7.1559 40.3686L7.16115 38.4C7.16064 38.0844 7.18258 37.7486 7.15065 37.4352L7.0389 37.4392Z" fill="black"/>
</svg>
