<svg width="48" height="48" viewBox="0 0 48 48" fill="none" xmlns="http://www.w3.org/2000/svg">
<path d="M24.4487 39.3305L13.6246 39.3317C13.0071 39.3332 12.3899 39.3819 11.7836 39.2486C10.4709 38.9599 9.34837 37.899 9.12041 36.5545C9.02109 35.9687 9.15271 36.3298 8.66798 35.9032C8.44602 35.7078 8.25852 35.4922 8.09751 35.2448L8.01248 35.1076C7.69059 34.5296 7.61999 33.9923 7.61816 33.3467L7.61877 31.1552C7.62327 30.2579 7.81171 29.534 8.49595 28.8824C8.61205 28.7719 8.57662 28.7552 8.5769 28.5925L8.5792 27.923C8.5858 26.4378 8.7471 24.9243 9.11821 23.4843C10.346 18.7203 13.9321 14.2919 18.5587 12.4537L19.7531 12.0103C20.091 11.8966 20.0336 12.0224 20.1085 11.6835C20.4605 10.0907 21.9749 8.84877 23.5796 8.70524C23.6752 8.67796 23.8297 8.68836 23.9304 8.68897C25.7579 8.70008 27.5664 9.96439 27.9292 11.8058C27.9738 12.0317 29.0826 12.2959 29.3878 12.4262C35.7228 15.1311 39.4836 21.3793 39.4442 28.2421C39.443 28.4544 39.3176 28.7046 39.4707 28.8645C40.2018 29.6279 40.3401 30.1503 40.342 31.1426L40.3432 33.0086C40.3428 34.223 40.2743 35.3327 39.0884 36.0736C38.7892 36.2605 38.9373 36.2066 38.8719 36.5484C38.6056 37.9408 37.5144 39.0025 36.1272 39.2687C35.6275 39.3646 35.1064 39.3312 34.5991 39.3313L24.4487 39.3305ZM23.978 10.0165C22.8139 10.1024 22.014 10.6175 21.4781 11.6264C22.3218 11.4397 23.1719 11.3865 24.0332 11.3886L26.5129 11.6084L26.423 11.4266C26.024 10.595 24.8526 10.0552 23.978 10.0165ZM23.147 12.731C16.7474 13.0762 11.5386 18.4438 10.2254 24.5147C9.99257 25.5913 9.94616 26.6776 9.91194 27.7733C9.90824 27.8927 9.86891 28.0736 9.88701 28.1858L24.8747 28.2142L38.1398 28.2146C38.1117 27.6229 38.141 27.0135 38.0749 26.4257C37.3003 19.5428 32.2664 13.3943 25.1624 12.7553C24.4988 12.6957 23.8132 12.729 23.147 12.731ZM10.1978 29.5345C10.0722 29.5578 9.95305 29.5788 9.83052 29.6132L9.7993 29.6216C9.41423 29.7288 8.9788 30.2067 8.91238 30.6166C8.8679 30.8912 8.90559 31.2265 8.90521 31.5102L8.90591 33.0977C8.90643 33.3616 8.87029 33.6879 8.93905 33.943C9.34209 35.4381 10.6415 35.2477 11.8439 35.248L35.8754 35.2477C36.4621 35.2475 37.0595 35.2693 37.6452 35.2361L37.6554 35.235C38.8768 35.0187 39.0198 34.2501 39.0219 33.1903L39.0212 30.8583C39.0193 30.1039 38.5185 29.5561 37.7425 29.5332L10.1978 29.5345ZM10.4821 36.5288C10.578 37.2307 11.5199 37.9681 12.2151 37.9866L35.6814 37.9872C36.1582 37.9812 36.6413 37.7379 36.9866 37.4199C37.2175 37.1777 37.4389 36.8807 37.4889 36.5409L10.4821 36.5288Z" fill="black"/>
<path d="M18.28 34.5432C17.8112 34.6567 17.5318 34.2591 17.5303 33.8483L17.5293 30.803C17.5307 30.3576 17.5611 30.2049 18.0442 30.0486C18.3362 30.0297 18.7013 30.1621 18.7667 30.4862L18.7713 30.5118C18.8272 30.7862 18.7974 31.1035 18.7977 31.3837L18.8044 33.5735C18.8194 34.0534 18.7703 34.3254 18.28 34.5432Z" fill="black"/>
<path d="M22.1778 34.5447C21.9271 34.6335 21.6553 34.4677 21.514 34.2646L21.4969 34.2394C21.3578 34.0376 21.4113 33.7529 21.4107 33.5209L21.4071 31.199C21.4068 30.9701 21.3257 30.541 21.4744 30.3494L21.4917 30.3277C21.6062 30.1772 21.7055 30.1143 21.8798 30.0508C22.1667 30.0116 22.4523 30.0861 22.6083 30.3519L22.6481 30.4187C22.6744 30.4728 22.6822 30.5493 22.6838 30.609L22.6986 33.717C22.7085 34.1325 22.6003 34.3771 22.1778 34.5447Z" fill="black"/>
<path d="M26.1139 34.5207C26.0249 34.5518 25.9002 34.5617 25.8089 34.5351L25.7816 34.5265C25.6143 34.477 25.5081 34.414 25.3956 34.2781L25.371 34.2475C25.2488 34.1002 25.2871 33.9209 25.2865 33.7419L25.2897 30.6137C25.2927 30.5356 25.2953 30.4399 25.34 30.3734L25.3557 30.3517C25.4688 30.1873 25.5684 30.1194 25.7489 30.0469C25.9163 30.0363 26.0772 30.051 26.2231 30.1422L26.2504 30.16C26.518 30.3322 26.5368 30.5118 26.5372 30.805L26.5408 33.518C26.5434 33.6923 26.6203 33.9118 26.5467 34.0767L26.5345 34.1017C26.4439 34.2999 26.306 34.4227 26.1139 34.5207Z" fill="black"/>
<path d="M29.9032 34.5474C29.4237 34.6117 29.1702 34.3086 29.1759 33.8671L29.1787 30.6139C29.1903 30.3033 29.414 30.1357 29.6973 30.0492C30.0329 30.0296 30.4316 30.2195 30.447 30.5913L30.4485 33.749C30.4476 34.1625 30.3199 34.3836 29.9032 34.5474Z" fill="black"/>
<path d="M10.4589 34.5279L10.3005 34.5167C10.1125 34.4855 9.97664 34.3374 9.87623 34.1864L9.85715 34.1574C9.73935 33.9827 9.76842 33.8146 9.76795 33.6121L9.76851 31.3458C9.76884 31.1031 9.69478 30.6851 9.82645 30.4695L9.85682 30.4197C9.9696 30.2334 10.14 30.125 10.3492 30.0735C11.1396 29.9945 11.0395 30.7022 11.0398 31.1791L11.039 33.928C11.036 34.252 10.7662 34.4528 10.4589 34.5279Z" fill="black"/>
<path d="M14.5969 34.4975C13.786 34.6448 13.8447 33.9874 13.8451 33.4786L13.8398 31.1719C13.8316 30.6746 13.6997 30.2948 14.2798 30.074C14.3802 30.0695 14.4739 30.0629 14.5731 30.0836L14.6485 30.0992C14.7722 30.1272 14.9059 30.2307 14.9719 30.3373L14.9877 30.3636C15.192 30.6943 15.0726 31.2945 15.0724 31.67L15.0702 34.0496C14.9666 34.2498 14.8003 34.3974 14.5969 34.4975Z" fill="black"/>
<path d="M33.7073 34.4943C33.6205 34.5126 33.5384 34.5335 33.45 34.5144L33.3253 34.4816C33.2112 34.4398 32.9869 34.2643 32.9406 34.1477C32.8951 34.0331 32.9171 30.46 32.9405 30.4062C33.0107 30.2452 33.2279 30.1286 33.3805 30.073C34.26 29.9905 34.1478 30.8351 34.1481 31.4177L34.1649 33.6979C34.1711 34.0883 34.0707 34.2896 33.7073 34.4943Z" fill="black"/>
<path d="M37.7495 34.4878C37.4006 34.5928 36.9795 34.4124 36.9573 34.0038C36.9381 33.6499 36.9247 30.5624 36.9702 30.4417C37.0341 30.2725 37.243 30.1645 37.3943 30.0966L37.6846 30.0957C38.2059 30.1585 38.169 30.7522 38.17 31.1288L38.1768 32.8888C38.2032 33.5396 38.3723 34.1043 37.7495 34.4878Z" fill="black"/>
</svg>
