<svg width="48" height="48" viewBox="0 0 48 48" fill="none" xmlns="http://www.w3.org/2000/svg">
<path d="M25.2859 42.8597L9.43931 43.4219C7.97114 43.4725 6.86594 42.6005 6.53443 41.1643C6.47439 40.9042 6.49026 40.6006 6.48048 40.3341L6.33776 36.3343C6.29915 35.2267 6.19816 34.3323 7.01343 33.4549C7.06542 33.3989 7.24992 33.2763 7.26982 33.2308C7.28246 33.2019 7.07997 31.6865 7.07057 31.4781L6.99953 29.3548L7.04795 27.6888C7.18222 25.4027 7.60961 23.0867 8.42743 20.9425C10.2177 16.2488 13.7608 12.0421 18.7683 10.8022C18.7687 10.7492 18.7704 10.769 18.7644 10.7216C18.4074 7.86653 20.2174 5.61102 22.9871 5.22255C25.1003 5.03006 27.3638 6.37328 28.0061 8.41863L28.0266 8.48445C28.1788 8.89448 28.3503 9.75293 28.3082 10.2069L28.2999 10.4459L29.3621 10.6992C33.6312 11.8381 37.0309 15.1293 39.1174 18.9385C39.4659 19.5749 39.8469 20.2772 40.071 20.9722L40.7556 23.0816C40.9537 23.7906 41.1015 24.5749 41.1953 25.3018L41.3054 26.6031C41.4618 28.3597 41.4418 30.118 41.2343 31.8701C41.9722 32.3755 42.4511 33.0821 42.5256 33.9804L42.7076 39.0016C42.7242 39.4838 42.7385 39.9319 42.6023 40.4015C42.2238 41.7069 41.036 42.2997 39.7697 42.345L25.2859 42.8597ZM23.1166 6.62552C21.5007 6.82777 20.2786 8.06071 20.1152 9.67775C20.0518 10.3048 20.2221 11.2302 20.6503 11.7236L20.6617 11.7047C21.0746 11.0478 22.0577 10.5362 22.7806 10.3822L22.8146 10.3751C23.1784 10.2969 23.496 10.2678 23.8731 10.2672C24.9743 10.4117 25.7732 10.7386 26.5984 11.5355C27.5904 9.00926 25.9556 6.4641 23.1166 6.62552ZM23.3998 11.6994C21.4629 11.9718 20.8145 13.9744 20.346 15.6105C19.6179 18.1528 19.2736 20.7859 19.2147 23.4298C19.2109 23.5989 19.2408 23.8005 19.2089 23.9641C19.0621 24.719 17.9118 24.6777 17.864 23.9044C17.8359 23.449 17.8661 22.995 17.8819 22.5416C17.977 19.8239 18.4887 16.0736 19.5701 13.5285L19.7627 13.0827C19.8665 12.8419 19.4674 12.4299 19.3068 12.1075C14.5415 13.1146 11.0773 17.5131 9.52917 21.932C8.85713 23.8502 8.53378 25.8844 8.4208 27.907L8.41475 31.0503C8.44313 31.4671 8.48481 32.1794 8.5572 32.5431L24.4927 32.0276L39.8987 31.4808L39.9888 30.258C40.0043 30.0091 40.0361 29.7604 40.0391 29.511L39.9359 26.5149C39.6324 23.0442 38.4148 19.8034 36.2364 17.0669C34.5679 14.9711 32.4472 13.1872 29.8917 12.2897C29.2688 12.071 28.6288 11.9396 27.9884 11.7864C27.8218 12.1167 27.6634 12.3898 27.4963 12.7033L27.757 13.2176C29.1063 15.7958 29.8978 19.9336 30.1462 22.8001C30.1688 23.0598 30.273 23.4497 30.1627 23.6933C29.8918 24.2913 29.2042 24.2294 28.9093 23.7179L28.8933 23.6923C28.7761 23.4943 28.8253 23.0863 28.8007 22.8492L28.6498 21.5902C28.3354 19.424 27.8788 17.3008 27.106 15.2476C26.4374 13.4715 25.5877 11.5505 23.3998 11.6994ZM8.83412 34.0031C8.15555 34.1137 7.68483 34.546 7.70797 35.241L7.73716 36.0387C8.09911 36.3658 9.40545 37.0649 9.8266 37.2426C10.0813 37.0693 10.3122 36.8633 10.5608 36.681C11.2845 36.1503 12.5048 35.7299 13.4172 35.9036C14.2963 36.071 14.9991 36.4635 15.7073 36.9985C16.0109 36.762 16.2986 36.4993 16.6224 36.2899C17.9239 35.4483 19.5738 35.5286 20.8624 36.353C21.2644 36.6101 21.3523 36.9076 21.6904 36.6458C21.9566 36.4397 22.2083 36.2184 22.496 36.041C23.7629 35.2602 25.3848 35.3009 26.6327 36.0926C26.8571 36.235 27.0615 36.4074 27.2893 36.5454C29.1576 35.0732 30.5797 34.7759 32.7321 36.1969C32.7769 36.2265 32.9968 36.4043 33.0315 36.4083C33.0847 36.4145 33.9123 35.7424 34.0194 35.6742C34.3889 35.4392 34.8229 35.2714 35.2469 35.1674L35.2766 35.1496C36.5028 34.777 38.0422 35.3681 38.96 36.1874C39.2263 36.087 41.0175 35.0874 41.1331 34.8687C41.1686 34.8015 41.1139 33.8336 41.0757 33.7416C40.93 33.3901 40.6959 33.1294 40.3366 32.9903L40.159 32.9284C39.9392 32.8474 39.5676 32.9097 39.3293 32.9181L8.83412 34.0031ZM12.6051 37.3009C12.0177 37.3891 11.5863 37.6626 11.1193 38.0139C11.8362 38.2385 12.2396 38.2819 12.9804 38.2529C13.499 38.2215 14.0055 38.1328 14.4545 37.8534C14.0139 37.484 13.1974 37.1394 12.6051 37.3009ZM24.2141 36.8886C23.6581 36.9756 23.2104 37.2356 22.7858 37.5958C23.4552 37.8284 24.0165 37.8663 24.7159 37.8353C25.2042 37.7939 25.648 37.6837 26.0711 37.4263C25.6367 37.0485 24.7919 36.7447 24.2141 36.8886ZM35.7801 36.4778C35.0801 36.5988 34.8932 36.9006 34.3777 37.1445C34.9949 37.4751 35.6753 37.4489 36.3521 37.4229C36.7808 37.3859 37.3667 37.2998 37.7148 37.0284C37.1732 36.5961 36.5329 36.3902 35.8399 36.4686L35.7801 36.4778ZM18.2745 37.1191C17.7722 37.224 17.3758 37.4844 16.9795 37.7966C17.6777 38.0546 18.2828 38.0664 19.0125 38.0386C19.4372 37.9906 19.8749 37.8789 20.2382 37.6445L20.1067 37.543C19.6094 37.1419 18.9286 37.0462 18.3133 37.1147L18.2745 37.1191ZM29.8595 36.71C29.3601 36.7923 28.9381 37.0378 28.5559 37.3598C29.1953 37.6533 29.7931 37.6582 30.4783 37.6315C30.9201 37.5887 31.3573 37.4746 31.75 37.2663C31.3812 36.9074 30.7713 36.6829 30.2573 36.6883L29.8595 36.71ZM7.82338 37.7547L7.87302 38.3879C8.01153 38.3125 8.19265 38.3031 8.34196 38.238L8.49278 38.1756C8.47166 38.1178 8.4019 38.0902 8.34982 38.0579L7.82338 37.7547ZM41.1626 36.5876L40.4518 37.0205L40.7271 37.1203L41.201 37.263L41.1626 36.5876ZM15.7505 38.6747C15.3874 38.9271 15.0282 39.1651 14.6172 39.3345C13.3 39.8773 11.4563 39.7925 10.2158 39.1209C10.1053 39.0611 9.99238 38.9105 9.86673 38.9721C9.0531 39.3705 8.847 39.5789 7.87734 39.8658L7.89889 40.6325C7.90691 40.8481 7.88376 41.0759 7.9962 41.266C8.28348 41.7519 8.69381 42.0315 9.25558 42.0117L36.1852 41.0549L38.967 40.9568C39.8819 40.9238 40.792 41.1088 41.2451 40.0882L41.2644 40.047C41.3817 39.7878 41.3127 38.9985 41.2696 38.6953C40.7495 38.6081 40.2413 38.4251 39.7599 38.2123C39.2694 37.9955 39.2229 37.7289 38.865 37.971C37.3312 39.0087 35.3365 39.1305 33.6704 38.3591C32.7606 37.9379 33.3386 38.0157 32.4316 38.5061C30.8939 39.3374 28.9788 39.2133 27.4911 38.3411C27.2748 38.2142 27.2362 38.3388 27.0312 38.4772C25.3212 39.6321 23.391 39.4519 21.6469 38.5427C21.6005 38.5185 21.5582 38.4669 21.5117 38.4988C19.7962 39.6728 17.5843 39.8855 15.7927 38.7054L15.7505 38.6747Z" fill="black"/>
</svg>
