<svg width="48" height="48" viewBox="0 0 48 48" fill="none" xmlns="http://www.w3.org/2000/svg">
<path d="M24.2376 39.4473L7.96956 39.4472C6.0114 39.4468 4.61562 38.0531 4.61358 36.1302L4.61297 30.9659C4.61313 30.718 4.59497 30.4538 4.62353 30.2078C4.76753 28.9679 5.72012 27.7542 6.93268 27.3827C6.99629 27.3632 7.13176 27.3323 7.18239 27.295C7.19495 27.2857 7.21787 26.5396 7.2347 26.2463C7.27853 25.4808 7.3696 24.7091 7.49584 23.9534L7.82809 22.1679C8.48809 19.326 9.85351 16.639 11.7659 14.4371C13.2829 12.6904 15.1356 11.8809 17.3351 11.1967L19.0125 10.7408C19.0163 10.6183 18.9565 10.4756 18.9426 10.3493C18.6785 7.95274 20.3093 5.58757 22.6669 5.0006C23.0432 4.9069 23.4067 4.87333 23.7918 4.83827C23.9412 4.80401 24.1428 4.83729 24.2958 4.85008C26.2475 5.01344 28.217 6.25165 28.7945 8.20558L28.875 8.47291C29.0924 9.15518 29.1375 10.0451 28.9455 10.7251C29.1362 10.7924 29.346 10.8294 29.5424 10.8791L30.4762 11.1403C31.8145 11.5522 34.1682 12.4868 35.2512 13.4533C36.9289 14.9506 38.2368 17.007 39.1398 19.0535L39.5425 20.0862C39.7143 20.6996 39.9508 21.2958 40.1059 21.9166C40.3922 23.0629 40.5975 24.2619 40.6886 25.4417L40.7735 26.4584C40.7881 26.737 40.7716 27.0246 40.8212 27.2995C40.8754 27.3585 41.0664 27.3799 41.1494 27.4067C41.992 27.6787 42.7236 28.4093 43.0782 29.2055C43.3868 29.8987 43.3638 30.6831 43.3648 31.4225L43.3686 35.5546C43.3694 35.9122 43.3922 36.286 43.3615 36.6413C43.2514 37.9162 42.2232 38.9912 41.0151 39.3272C40.5859 39.4465 40.1512 39.4467 39.7095 39.4467L24.2376 39.4473ZM23.9213 6.29266C22.8521 6.3484 21.9478 6.7466 21.2293 7.54568C20.5949 8.25124 20.0946 9.55291 20.4137 10.494L24.1053 10.2418C24.5607 10.2425 25.0507 10.2113 25.4994 10.2838L27.5516 10.4929C27.6436 10.374 27.6125 9.48799 27.5916 9.32172C27.3614 7.48774 25.6871 6.30851 23.9213 6.29266ZM23.008 11.7236C20.1806 11.831 17.8746 12.3408 15.351 13.5471C14.6396 13.8872 13.8774 14.271 13.3337 14.8552C10.0218 18.414 8.80965 22.5027 8.60401 27.2733L25.0659 27.2658L39.3956 27.2572C39.3481 25.9133 39.1921 24.5899 38.9378 23.2689L38.7943 22.5486C38.2316 20.2752 37.2503 18.0684 35.812 16.211C34.7773 14.8746 34.2338 14.3278 32.7066 13.5618C29.8464 12.1269 26.2359 11.5793 23.0282 11.7224L23.008 11.7236ZM7.76814 28.6926C7.43753 28.7426 7.1776 28.8177 6.8942 28.9986L6.85895 29.0205C6.47696 29.2632 6.22375 29.6815 6.09034 30.1057L6.08139 30.1336C6.00681 30.3852 6.04707 30.7317 6.0466 30.9965L6.04675 32.5416L40.2241 32.5348L41.9443 32.5128C41.9228 32.3034 41.9333 32.0867 41.9333 31.8762L41.9337 30.7792C41.9337 30.5795 41.957 30.3401 41.9087 30.147C41.5765 28.8199 40.5835 28.6903 39.4811 28.6895L7.76814 28.6926ZM16.0461 33.9375L13.9618 33.9366L13.9482 37.9918L17.683 37.9896L19.7354 37.9913L19.7331 33.9407L16.0461 33.9375ZM29.2668 33.9375C29.1243 33.9376 28.2798 33.9145 28.2243 33.9598L28.2126 37.9913L33.0346 37.9896L33.6791 37.9952C33.7914 37.9964 33.9132 38.0086 34.0239 37.9909L34.0124 33.938L29.2668 33.9375ZM7.48126 33.9375L6.04867 33.9513L6.04942 36.2952C6.0511 36.4634 6.04309 36.6286 6.11129 36.7854C6.69048 38.1171 7.53217 37.989 8.70292 37.9899L11.2027 37.9896L12.5567 37.9935L12.5453 33.9526L7.48126 33.9375ZM22.3644 33.9375L21.1671 33.9531L21.1359 37.9902L25.5834 37.9896L26.808 38.0053L26.8134 33.9662L22.3644 33.9375ZM35.4378 33.941L35.4153 37.992L39.9421 37.989C40.6029 37.988 40.9212 37.9369 41.4513 37.4661C41.8349 37.0324 41.9465 36.693 41.9417 36.1326L41.9381 33.9469L35.4378 33.941Z" fill="black"/>
</svg>
