<svg width="48" height="48" viewBox="0 0 48 48" fill="none" xmlns="http://www.w3.org/2000/svg">
<path d="M24.6678 44.2275L9.7155 44.2287C9.46955 44.2285 9.23831 44.2342 8.99634 44.1846L8.62833 44.1204C5.52497 43.4403 4.18747 39.6667 6.6098 37.3708C6.94059 37.0573 7.30983 36.8186 7.69467 36.5775C7.76456 36.2801 7.89937 35.3928 7.87017 35.0811C7.84252 34.7861 7.67695 34.4753 7.77272 34.1745C7.84856 33.9363 7.82986 33.7412 7.83459 33.4966L8.00109 31.2481C8.77617 24.9043 10.725 19.1638 15.0177 14.3565C16.3 12.9205 16.9829 12.3126 18.7732 11.4927C17.8799 9.86773 17.9129 8.0073 19.2926 6.6611C19.5209 6.4384 19.8157 6.28652 20.034 6.05913C20.2997 5.78215 20.4923 5.42187 20.755 5.13452C21.4361 4.38976 22.2984 3.99801 23.3057 3.94896C26.1889 3.80848 28.6801 5.41226 29.7182 8.07396L29.7948 8.2849C30.1388 9.57448 30.198 10.5321 29.2894 11.5615L29.6483 11.7186C30.9937 12.2981 31.5256 13.1109 32.468 14.1907C34.5604 16.5883 36.7133 19.6026 37.8428 22.6224L38.7954 25.2771L39.5037 27.9661C39.6146 28.4318 39.6727 28.9193 39.756 29.3904L40.2137 33.0728C40.2381 33.4503 40.1862 33.8736 40.2807 34.2417L40.5767 35.763C40.6011 35.9048 40.6488 36.1004 40.7012 36.2349L40.8727 36.7029C40.9938 37.0194 41.1302 37.1311 41.3721 37.366C43.65 39.5781 42.617 43.4577 39.4725 44.11C38.6947 44.2714 37.9135 44.2277 37.1237 44.2279L24.6678 44.2275ZM23.4311 5.35151C21.3668 5.60379 21.9909 6.50843 20.7806 7.27662C19.8922 7.84043 19.2636 9.15715 19.7232 10.1794L19.7561 10.2625C19.8379 10.4814 19.9661 10.683 20.0714 10.8911L20.1719 11.0671C21.068 10.8804 21.9874 10.7468 22.9035 10.7123L24.8291 10.7077C25.5417 10.7284 26.2605 10.7971 26.966 10.9016L27.5339 11.0036C27.8243 11.0651 27.745 11.0905 27.9738 10.8719C28.2205 10.6362 28.4325 10.4168 28.5469 10.0896L28.5599 10.0541C28.6508 9.79474 28.6065 9.49709 28.5541 9.23412C28.1031 6.96893 25.7596 5.14596 23.4311 5.35151ZM24.0392 12.1574C21.764 12.1681 19.1922 12.3676 17.3978 13.9392C17.0267 14.2643 16.7097 14.654 16.3781 15.018L14.9415 16.6943C11.9732 20.4732 10.3571 25.2914 9.61767 29.9833L9.33183 32.5115C9.31434 32.7522 9.27661 32.9868 9.27872 33.2288L23.275 33.2304L23.2835 16.1756C23.2842 15.5339 23.343 15.001 24.1248 15.0242C24.7669 15.2347 24.7103 15.6471 24.7104 16.2145L24.708 33.2351L38.8345 33.2299C38.3981 26.4269 36.0986 20.449 31.5874 15.3701L30.5504 14.141C29.0148 12.3526 26.2333 12.1666 24.0392 12.1574ZM9.25584 34.6899L9.22228 36.2521L39.199 36.2403L39.2693 36.3075C39.2867 36.2487 39.2601 36.1922 39.2465 36.1327L39.1395 35.6716C39.068 35.3543 38.9939 35.0314 38.9662 34.7069L9.25584 34.6899ZM9.45722 37.6933C7.54369 37.7804 6.13898 39.5614 7.06069 41.3379C7.52091 42.2248 8.35664 42.6822 9.31641 42.7903C9.45389 42.8058 9.70542 42.7413 9.73809 42.9244C9.79331 42.9491 9.86344 42.9709 9.92348 42.9536L10.0052 42.8029C10.2391 42.7298 10.5617 42.7673 10.8091 42.7669L38.4642 42.7663C38.6417 42.7617 38.8309 42.7673 39.0062 42.7407C41.6589 42.3379 42.0525 38.657 39.2986 37.7737C38.8566 37.6319 38.273 37.6915 37.8113 37.6914L9.45722 37.6933Z" fill="black"/>
<path d="M34.8576 42.2772C31.8678 42.5942 31.2513 38.7627 34.1766 38.3528L34.1939 38.3495C37.1769 38.0916 37.5988 41.8911 34.8576 42.2772ZM34.3146 39.7794C32.8761 40.1482 34.1037 40.9899 34.6461 40.8593C35.8662 40.5141 35.1524 39.7322 34.3146 39.7794Z" fill="black"/>
</svg>
