<svg width="48" height="48" viewBox="0 0 48 48" fill="none" xmlns="http://www.w3.org/2000/svg">
<path d="M24.0645 42.4867L9.33801 42.4851C9.15491 42.4822 8.93774 42.4895 8.7621 42.4396L7.97854 42.205C4.25017 40.7563 4.23648 35.5104 7.92524 33.8894C8.04327 33.8376 7.98998 33.722 7.99204 33.6017L8.18109 30.7856C8.9392 23.4384 11.87 14.7075 19.1713 11.4785C18.2848 8.39811 20.7862 5.5894 23.8753 5.44845C24.3037 5.43406 24.7072 5.46795 25.1216 5.57553C27.9801 6.31765 29.337 8.64547 28.8538 11.459L29.2377 11.6429C32.8054 13.4915 35.0597 16.1749 36.8739 19.7709L38.0629 22.559C38.1874 22.8919 38.3204 23.2366 38.417 23.5785L38.7996 24.9027C38.8561 25.2424 38.9749 25.5863 39.0538 25.923L39.4311 27.7981L39.845 31.2074L40.0173 33.8358L40.2395 33.9169C41.1349 34.3238 42.1095 35.284 42.4463 36.2382L42.6175 36.6875C43.4979 39.3618 41.6212 42.4757 38.7071 42.4858L24.0645 42.4867ZM28.2694 40.0723C28.2709 40.3846 28.2373 40.7032 28.1288 40.9983L28.118 41.0271C28.2895 41.0584 28.4895 41.0402 28.6643 41.04L33.4102 41.0355C33.3849 40.3568 33.0496 39.686 33.7012 39.1886C32.5584 39.1723 31.7114 39.5437 30.6678 38.6267C30.5921 38.5602 30.5637 38.6229 30.4907 38.6697L30.177 38.8639C29.479 39.2518 28.6262 39.3703 27.8396 39.2176L27.8145 39.2124C27.9314 39.2832 28.0352 39.3606 28.1083 39.4782L28.1241 39.5043C28.2162 39.6515 28.2529 39.8741 28.2673 40.0445L28.2694 40.0723ZM23.593 6.92168C21.6439 7.12831 20.2217 8.86733 20.4454 10.8168L20.484 11.009L21.9438 10.6371L23.0969 10.4748C23.5102 10.3917 24.0059 10.4272 24.4277 10.435C25.4799 10.5118 26.4681 10.7094 27.4815 10.9912C27.5044 10.7716 27.553 10.5525 27.5593 10.3319C27.6107 8.51703 26.0637 7.08786 24.3273 6.92314L23.593 6.92168ZM23.3909 11.9086C19.9539 12.2286 17.0811 13.9244 14.8729 16.5725C11.5821 20.5186 10.103 25.7921 9.61982 30.8216C9.53437 31.7111 9.43574 32.5946 9.44629 33.4899L24.6973 33.4872L38.6466 33.4878L38.0531 27.9731C36.8506 21.0079 32.65 12.5241 24.6892 11.9158C24.2617 11.8832 23.8199 11.9064 23.3909 11.9086ZM11.3079 34.9493L11.1681 35.143C11.426 35.3463 11.6139 35.4747 11.7203 35.8012L11.7332 35.8398C11.9662 36.5583 11.4065 37.0093 11.6849 37.3959C12.1804 38.0842 13.256 37.7453 13.8804 37.7327C14.6652 37.717 15.4695 38.0513 16.1615 37.5305L16.3622 37.3071C16.0764 36.6282 15.8402 35.7845 16.472 35.2278C16.575 35.137 16.7486 34.9732 16.4414 34.9544L11.3079 34.9493ZM17.6884 34.9617C17.5311 35.1581 17.8026 35.2448 17.9239 35.3958C18.3513 35.9285 18.2376 36.7731 18.0164 37.36C18.6395 38.0234 19.1873 37.7851 19.9999 37.7135C20.9045 37.6339 22.1395 38.1199 22.8676 37.5069C22.9324 37.4305 22.9889 37.3563 23.04 37.27L22.8347 36.6414C22.4572 35.2831 23.9767 34.9579 22.8575 34.9583L17.6884 34.9617ZM9.16738 34.9758C7.69691 35.2887 6.96407 36.267 6.63749 37.6283L8.26176 37.6365L9.20404 37.6377C9.55799 37.6372 9.72187 37.6512 10.0101 37.4415C9.9156 37.3044 9.81848 37.169 9.76874 37.0082L9.71207 36.8146C9.50212 36.0695 9.86066 35.5266 10.4322 35.1289C10.2553 34.8679 9.47217 34.9514 9.16738 34.9758ZM24.352 34.9675L24.2643 35.0433C24.2737 35.1178 24.3121 35.1505 24.3703 35.1966C24.9833 35.6817 24.9402 36.6143 24.6256 37.2628C25.5105 38.3082 26.8757 37.4565 28.0163 37.772C28.3278 37.8581 28.7412 37.8584 29.0557 37.7934L29.0883 37.7869C29.2668 37.7478 29.4333 37.625 29.5773 37.5177C29.648 37.4437 29.7239 37.3724 29.7786 37.2855C29.4869 36.6198 29.3649 35.753 29.96 35.2147C30.2618 34.9417 29.9493 34.9643 29.7272 34.964L24.352 34.9675ZM31.1549 34.9668L31.0574 35.0277C31.0615 35.1055 31.0994 35.1416 31.155 35.1969L31.222 35.2555C31.3715 35.3843 31.4561 35.5356 31.5205 35.7192L31.5366 35.7638C31.7517 36.3984 31.3333 37.3822 31.3354 37.3873C31.3655 37.4624 31.6343 37.6337 31.7115 37.6755C32.4275 38.0633 33.8443 37.4893 34.9042 37.7695C35.3092 37.8765 35.9148 37.8589 36.2703 37.6519L36.3621 37.5897C36.4822 37.4724 36.5781 37.3677 36.638 37.2067L36.3944 36.6332C36.2376 36.1648 36.2045 35.6222 36.5617 35.2394C36.695 35.0964 36.8172 35.0002 36.5299 34.974C36.2821 34.9515 36.024 34.9643 35.7751 34.9639L31.1549 34.9668ZM37.739 34.9676C37.6821 35.006 37.6248 35.0176 37.6055 35.0817L37.8267 35.2705C38.059 35.4506 38.1869 35.7127 38.272 35.9887L38.2851 36.0243C38.3869 36.3082 38.4437 36.9229 38.317 37.184L38.2501 37.2966C38.6888 37.7174 38.8966 37.6339 39.4805 37.636L41.1387 37.6365L41.3832 37.6446C41.1826 36.4213 40.3189 35.3743 39.1121 35.0283C38.6894 34.9071 38.1782 34.9616 37.739 34.9676ZM23.9378 38.5515C23.5034 38.8342 23.1055 39.0653 22.6015 39.2067L22.575 39.215C22.122 39.35 21.4626 39.2701 21.007 39.2096L21.0352 39.2263C21.7659 39.6703 21.3051 40.5022 21.2879 41.0026C21.417 41.0854 21.8755 41.0382 22.0399 41.0383L23.9473 41.0382L25.723 41.0354C26.0125 41.0344 26.3456 41.0568 26.6305 41.0167C26.553 40.3647 26.2914 39.689 26.9017 39.2165L25.8478 39.2601C25.1433 39.2578 24.5441 39.0626 23.991 38.5972L23.9378 38.5515ZM37.5304 38.5491C36.69 39.2195 35.8372 39.3534 34.7739 39.2355L34.6255 39.2321C34.7775 39.2968 34.8725 39.3976 34.9343 39.551L34.9602 39.6222C35.0286 39.815 35.0402 39.9338 35.0408 40.144C35.0424 40.6742 34.9138 41.0108 34.9378 41.0322L38.2793 41.0382C39.6943 41.037 40.7255 40.3941 41.2554 39.0928L39.3787 39.0838C38.6177 39.0841 38.1469 39.0918 37.5304 38.5491ZM17.262 38.5717C16.0714 39.4531 15.3328 39.2509 13.956 39.2045C14.0729 39.2422 14.1771 39.2773 14.2821 39.3431L14.3069 39.3581C14.4783 39.4667 14.5929 39.7053 14.6293 39.8961L14.6373 39.9461C14.692 40.3027 14.656 40.683 14.5026 41.016C14.5603 41.0587 16.566 41.0382 16.8286 41.0382L19.758 41.0222C19.792 40.4749 19.3027 39.862 19.9897 39.2554L20.0336 39.2183C18.9717 39.3019 18.1637 39.3391 17.2965 38.602L17.262 38.5717ZM10.9805 38.5907C10.6675 38.7977 10.3515 38.9585 9.98441 39.048L9.95071 39.0567C9.65756 39.1269 9.2804 39.0865 8.97641 39.0864L7.2891 39.0852C7.16802 39.0855 6.88546 39.0575 6.78088 39.1064C7.14623 40.1145 8.08776 40.8936 9.15838 41.0118L9.20423 41.0289C9.46265 41.007 9.74976 41.0383 10.0124 41.0383L12.1288 41.0333C12.3734 41.0307 12.6517 41.0593 12.891 41.0225C13.0262 40.7696 12.5387 39.6839 13.2351 39.2826C12.2829 39.2443 11.7558 39.3252 10.9805 38.5907Z" fill="black"/>
</svg>
