<svg width="48" height="48" viewBox="0 0 48 48" fill="none" xmlns="http://www.w3.org/2000/svg">
<path d="M24.3396 43.9225L10.8229 43.923C10.2926 43.9238 9.7256 43.9639 9.19877 43.9158C7.47939 43.7586 5.95042 42.6583 5.32319 41.0329C5.23619 40.8074 5.1896 40.5793 5.11872 40.3508L5.10635 40.3121C5.02755 40.0575 5.0501 39.7504 5.04958 39.4848L5.04888 36.7138C5.04916 36.3821 5.02511 36.0229 5.07208 35.695C5.2923 34.1573 6.35861 32.7358 7.79303 32.1235C7.84905 32.0996 8.05141 32.0571 8.04939 31.993L8.05408 28.3541C8.443 22.0388 13.2479 16.441 19.2065 14.5684C18.9497 14.332 18.7759 14.0933 18.662 13.7603L18.6475 13.7171C18.589 13.5457 18.5552 13.3757 18.5324 13.1963L18.5271 13.1526C18.4946 12.8981 18.56 12.6171 18.6723 12.3886L18.6878 12.3578C18.6055 12.2598 18.5057 12.1892 18.4148 12.1004C17.3669 11.0774 17.4499 9.19521 18.7848 8.45444L18.7287 8.04344C18.4301 6.34812 20.2466 5.10246 21.8087 5.5668C21.87 5.58504 22.0637 5.1394 22.118 5.05451C22.4848 4.48185 23.0366 4.19166 23.6804 4.05965C24.8483 3.96786 25.8257 4.45898 26.2843 5.57937C26.6426 5.52607 27.0445 5.4964 27.4047 5.54557L27.445 5.55152C28.7169 5.72965 29.566 7.10182 29.2211 8.34766C29.1843 8.48074 29.2186 8.44516 29.3372 8.52148C29.9228 8.89807 30.1712 9.36832 30.3831 9.99518C30.6865 10.8927 30.0839 11.8625 29.4001 12.4003C29.8013 13.1072 29.3695 14.0818 28.8328 14.6048C29.6424 14.9333 30.449 15.2274 31.2305 15.6244C34.6253 17.3494 36.7636 19.8844 38.5287 23.1559C38.7298 23.5286 39.1327 24.5682 39.2598 25.0192L39.3574 25.3239C39.4649 25.8137 39.6161 26.2944 39.7084 26.7898L39.821 27.4936C39.8679 27.8948 39.9222 28.28 39.9314 28.6853L39.9369 30.0125C39.9372 30.6761 39.9691 31.3546 39.9223 32.0153C42.0069 32.7455 42.9293 34.6485 42.9345 36.7328L42.9355 38.6176C42.9351 39.1016 42.9576 39.5958 42.8979 40.0766C42.6653 41.9485 41.0982 43.5018 39.2729 43.8582C38.6924 43.9716 38.0502 43.9222 37.461 43.9223L24.3396 43.9225ZM23.8983 5.44249C22.518 5.83249 23.4789 7.03451 22.5167 7.28744C22.0113 7.42024 21.4912 6.74787 20.8005 6.90705L20.7598 6.91619C20.3085 7.02344 19.8263 7.61913 20.1972 8.04377L20.2158 8.06529C20.5885 8.47521 21.4718 8.0839 21.6565 8.76532L21.6666 8.80066C21.834 9.40291 21.3289 9.64066 20.8381 9.63616C20.0556 9.62899 19.2864 9.42677 19.019 10.3633C19.1073 10.6992 19.2067 10.9732 19.5251 11.1567L19.6424 11.2199C20.1592 11.4857 20.7594 11.0891 21.0308 11.8049L21.0408 11.8297C21.3693 12.6647 20.0559 12.6874 19.9731 12.8355C19.9163 12.937 19.9354 13.1342 19.973 13.2407L20.0679 13.4542C20.4668 14.161 21.3408 13.9663 21.8927 13.5693C22.0758 13.4376 22.2057 13.2462 22.4177 13.1551L22.4451 13.1431C23.3531 12.7903 23.4058 14.7136 24.2212 14.1941C24.721 13.8651 24.5807 12.9523 25.4328 13.1364C25.6057 13.1738 25.7676 13.3272 25.8856 13.4538C26.1132 13.6977 26.7209 13.9063 27.0583 13.9703L27.0891 13.9765C27.1685 13.9915 27.2256 13.9885 27.3044 13.976L27.3283 13.9729C27.8198 13.8985 28.4328 13.1792 27.9988 12.7349C27.7043 12.7193 27.3488 12.7411 27.1368 12.4962C26.876 12.1951 26.8916 11.6999 27.2367 11.4634C27.67 11.1666 28.6824 11.5434 29.0148 10.652L29.0275 10.6187C29.189 10.1762 28.7351 9.73235 28.3474 9.61493C27.7323 9.42869 26.6117 10.0282 26.3171 9.18719L26.3047 9.15349C26.011 8.31734 27.1419 8.31073 27.5185 8.21074L27.5506 8.20268C28.3672 7.99348 27.8634 6.39349 26.2029 7.12821C25.8017 7.30573 25.5371 7.39769 25.22 7.04266L25.199 7.01946C24.9981 6.7894 25.0965 6.35463 24.9756 6.06719L24.9619 6.03288C24.784 5.60046 24.3466 5.39866 23.8983 5.44249ZM22.4691 14.8906C21.5934 15.4346 20.6553 15.5978 19.6792 15.8853C14.2309 17.4896 9.90808 22.6346 9.44069 28.3135C9.36681 29.2109 9.34328 30.7776 9.40235 31.7087L26.1677 31.7066L38.5734 31.7091L38.5641 29.5945C38.5555 23.2633 34.143 17.8099 28.206 15.8579L26.59 15.4039C26.2041 15.2756 25.853 15.1069 25.5017 14.9046C25.42 14.9795 25.353 15.0707 25.2662 15.1399C24.5226 15.7336 23.0695 15.7073 22.4691 14.8906ZM9.4196 33.1199C7.82828 33.271 6.53711 34.49 6.41444 36.1229C6.36738 36.7499 6.39597 37.3972 6.3956 38.0271C6.39513 38.901 6.25094 39.9107 6.67539 40.7141L6.75447 40.866C7.57005 42.4689 8.99575 42.5298 10.5097 42.53L38.4724 42.5306L39.0261 42.4727C40.5799 42.2402 41.5497 40.8308 41.5522 39.3208L41.553 38.241C41.5531 37.5842 41.5819 36.9105 41.5452 36.2556C41.4576 34.6931 40.3781 33.456 38.8635 33.1591L38.7771 33.1454C38.3837 33.0885 37.9664 33.115 37.5691 33.1154L9.4196 33.1199Z" fill="black"/>
<path d="M11.984 27.1415C11.1703 27.1654 11.1417 26.5459 11.263 25.9434C11.8945 22.8079 14.1081 20.0455 16.8211 18.4382C17.1909 18.2192 17.563 17.9774 17.9802 17.8629C18.5371 17.8039 18.9975 18.4988 18.6223 18.9533C18.4353 19.1797 18.0387 19.3275 17.785 19.4737L17.0089 19.9566C14.8567 21.4084 13.2432 23.6597 12.6004 26.1804C12.487 26.6253 12.4814 26.9698 11.984 27.1415Z" fill="black"/>
</svg>
