<svg width="48" height="48" viewBox="0 0 48 48" fill="none" xmlns="http://www.w3.org/2000/svg">
<path d="M24.4812 43.5691L8.55706 43.5697C7.97905 43.5697 7.52014 43.5268 7.02228 43.1735L6.85362 43.0526C6.07494 42.4619 5.98438 41.8747 5.98438 40.9922L5.99623 31.7209C6.00673 31.3641 6.07395 31.009 6.08764 30.6499L6.11066 29.3998C6.12073 29.1932 6.1618 28.9928 6.17469 28.7863C6.66744 20.9019 8.46181 14.158 16.2054 10.8693L18.5039 10.07C18.7761 9.98795 19.0509 9.8874 19.334 9.85637L19.244 9.36667C18.9617 6.69493 20.8596 4.44836 23.5307 4.15757C25.4224 4.09369 27.0906 4.74507 28.1204 6.44321C28.7095 7.4147 28.9865 8.68562 28.6954 9.79998L30.4458 10.3659C34.6758 11.7768 37.3463 13.9853 39.3759 17.8474L39.952 19.0989L40.862 21.9489C40.9238 22.3155 41.0482 22.6799 41.1197 23.0473L41.5704 25.8434L41.8262 28.9462C41.8304 29.0168 41.8521 29.0815 41.8558 29.1507L41.9178 30.8324C41.9342 31.109 41.9821 31.3813 41.9897 31.6588L42.0021 41.357C41.9999 42.5279 41.1651 43.3396 40.0353 43.536C39.5406 43.6219 38.9823 43.5689 38.4784 43.569L24.4812 43.5691ZM23.6584 5.51546C21.7139 5.68332 20.0584 7.62371 20.6345 9.59776C22.1441 9.33699 22.8785 9.27821 24.4118 9.2799C25.4103 9.28496 26.3862 9.40473 27.3667 9.59199C27.965 7.32151 25.8765 5.29201 23.6584 5.51546ZM22.8317 10.6025C21.2023 12.6651 20.1277 15.1552 19.3926 17.6622L19.0428 18.8968C19.0099 19.0028 19.0098 19.1051 18.9536 19.2071C18.6532 19.7529 17.7608 19.6309 17.7116 18.9982C17.633 17.9872 19.3804 13.7381 19.8262 12.856L20.4818 11.6364C20.6244 11.3875 20.7844 11.1523 20.9151 10.8963C12.6092 12.3541 8.80602 17.4672 7.8432 25.4996L7.49938 28.7902C7.47266 29.209 7.51841 29.6689 7.42109 30.0763C7.36836 30.2969 7.382 30.5634 7.37713 30.7905L7.36719 32.3942C7.36358 32.5917 7.31708 32.7832 7.31094 32.9816L7.29748 35.7265L25.2605 35.7322L40.6864 35.7373L40.6849 33.1071C40.6795 32.8891 40.6251 32.6791 40.6216 32.4583L40.6094 30.5027C40.6001 30.2171 40.5479 29.9334 40.5344 29.6474C40.1074 20.615 38.0106 13.7395 28.6724 11.2326L27.5367 10.9621C27.4004 10.9336 27.2371 10.8825 27.0993 10.8765L27.079 10.8782C27.5296 11.6065 27.9909 12.3744 28.3341 13.1599L29.1849 15.1638L30.2164 18.3858C30.6873 19.6541 29.2819 19.9583 28.985 18.9905L28.3557 16.8466C27.7102 14.8804 26.5633 12.1622 25.2068 10.6125L22.8317 10.6025ZM7.41753 37.0615L7.3108 37.0764C7.28206 37.2458 7.30194 37.4477 7.30227 37.621L7.30466 40.5426C7.3047 40.8717 7.22023 41.3145 7.37834 41.613L7.38992 41.6371C7.47139 41.8026 7.66564 41.9935 7.81709 42.0927L7.85605 42.1185C7.9423 42.175 8.00656 42.2042 8.11006 42.2158L8.95395 42.2451C9.01531 41.4433 8.97242 40.6094 8.97355 39.8042C8.97411 39.4007 8.86616 38.8885 9.21514 38.5905C9.58817 38.272 10.182 38.4785 10.2831 38.9612C10.3275 39.1728 10.2928 39.4652 10.293 39.6839L10.2917 41.5587C10.2901 41.7876 10.2586 42.0222 10.2701 42.2495L11.9566 42.2522L11.9757 39.9621C11.9758 39.4654 11.8333 38.4623 12.5983 38.4329L15.5565 38.4335C16.5007 38.4382 16.3834 38.9246 16.3833 39.636L16.3709 41.9177C16.3669 42.0238 16.3463 42.1391 16.3558 42.244L17.9554 42.2506C18.0244 41.4413 17.9763 40.597 17.9779 39.7839C17.9786 39.4617 17.898 39.0671 18.0705 38.7771L18.0908 38.7423C18.3459 38.3224 18.9385 38.3552 19.1962 38.7419L19.2159 38.77C19.4053 39.0466 19.2943 39.6141 19.2945 39.9369L19.2898 42.2502L21.1896 42.2446L21.1893 40.0453C21.1895 39.7465 21.0927 39.077 21.251 38.8239L21.272 38.7893C21.5113 38.4021 21.7931 38.422 22.1943 38.4296L24.5015 38.433C24.7428 38.4332 25.2439 38.3482 25.4491 38.4933L25.5122 38.5371C25.9847 38.8569 25.8553 39.3841 25.8554 39.8772L25.8454 42.2516L28.2697 42.2543L28.2675 39.936C28.2676 39.6401 28.2305 39.2845 28.2845 38.995C28.4094 38.325 29.4355 38.2228 29.5507 38.8967C29.5995 39.1826 29.573 39.5118 29.5736 39.8028L29.5746 41.5449L29.5773 42.2496L31.1484 42.2388L31.1482 39.3557C31.1492 38.7671 31.3411 38.4331 32.0088 38.4307L34.8111 38.4282C35.3969 38.4346 35.6051 38.7312 35.6049 39.2822L35.6023 42.2497L37.5219 42.2346L37.5249 39.3859C37.5313 38.5116 38.3279 38.0744 38.7174 38.7185L38.7414 38.756C38.9118 39.0257 38.8303 39.395 38.8304 39.6975L38.8296 41.3196C38.8292 41.6292 38.8139 41.9468 38.8406 42.2552L39.5972 42.2374C40.394 42.2168 40.6923 41.8704 40.6904 41.0465L40.6893 37.0637L7.41753 37.0615ZM14.2272 39.739L13.2954 39.7443L13.2698 42.2523L14.098 42.2439L15.0416 42.2482L15.0466 39.7367L14.2272 39.739ZM32.6806 39.739L32.4925 39.7425C32.4679 39.875 32.4822 40.0247 32.4821 40.1599L32.4806 40.9581C32.4791 41.3883 32.4464 41.8207 32.4642 42.2504L34.0559 42.2439L34.287 42.2454L34.2891 40.5516C34.289 40.2897 34.3103 40.0031 34.2804 39.7443L32.6806 39.739ZM22.507 39.7398L22.4883 42.2536L24.5297 42.2514L24.5391 39.7494L22.507 39.7398Z" fill="black"/>
</svg>
