<svg width="48" height="48" viewBox="0 0 48 48" fill="none" xmlns="http://www.w3.org/2000/svg">
<path d="M24.3218 41.6427L12.4689 41.6438C11.8809 41.6438 11.272 41.6764 10.6875 41.613C9.34407 41.4674 7.98793 40.5715 7.26221 39.458C7.08919 39.1925 7.0524 39.2667 6.7681 39.1376C5.45124 38.5392 4.54276 37.2533 4.48316 35.7897C4.46861 35.4327 4.46078 34.1949 4.53629 33.902L4.65534 33.4152C5.14618 31.8348 6.45413 30.8601 8.03443 30.5789L8.54794 27.9241C9.80762 22.7665 12.9434 17.8777 17.8937 15.6113C18.4358 15.3631 18.9882 15.1043 19.5627 14.942C16.7439 11.3315 19.2686 6.55493 23.5987 6.27129C26.0625 6.10521 28.5319 7.60704 29.3442 9.97282L29.6096 11.0861C29.8004 12.5001 29.3409 13.7935 28.4856 14.9203C28.5225 14.948 28.5412 14.9545 28.5841 14.9694C32.2456 16.2394 35.1356 18.8029 37.1134 22.1302C37.4645 22.7209 37.754 23.3294 38.0621 23.9416L38.9837 26.2718L39.5704 28.4665C39.6159 28.6088 39.6241 28.7536 39.6563 28.8986L39.961 30.5716L40.6607 30.747C42.1844 31.2135 43.0353 32.3225 43.4077 33.797C43.4965 34.149 43.5485 35.9114 43.4449 36.3088C43.1128 37.5823 42.2683 38.9742 40.8952 39.2812C40.8373 39.2941 40.7796 39.4225 40.7474 39.4735C40.0988 40.5021 38.8915 41.2784 37.7228 41.5311C37.0119 41.6849 36.2929 41.6423 35.5691 41.6425L24.3218 41.6427ZM23.5909 7.60095C20.147 8.02826 18.3868 11.6901 20.7388 14.3302C20.8142 14.4148 20.9004 14.5323 20.9928 14.5964C21.5936 14.4273 22.1916 14.3557 22.8069 14.2649C21.7479 13.2122 21.8698 11.337 23.1918 10.6525C23.5133 10.4861 23.9909 10.3583 24.3448 10.4751L24.3698 10.4813C24.9575 10.6333 25.5045 11.1385 25.7198 11.7102L25.8187 12.0015C26.0507 12.7851 25.7947 13.7215 25.2113 14.2964C25.834 14.3751 26.3955 14.3924 26.9951 14.6008C29.8826 11.6923 27.6693 7.48845 23.8858 7.58989C23.7998 7.59223 23.6723 7.58 23.5909 7.60095ZM23.941 11.7541C23.1555 12.0331 23.3441 13.3082 23.9763 13.6193L24.0353 13.5956C24.9331 13.0355 24.5219 11.6037 23.941 11.7541ZM23.5932 15.5691C15.9354 15.9124 11.1185 21.9732 9.61702 29.1701C9.52135 29.6286 9.40805 30.0931 9.35349 30.5584L24.4162 30.5412L38.6603 30.5022C38.4351 29.5273 38.2977 28.5842 38.0118 27.5931C36.0166 20.676 31.0967 15.5208 23.5932 15.5691ZM8.34652 31.8532C7.12379 32.012 6.03938 32.8721 5.80323 34.1211L5.78921 34.2198C5.7144 34.7756 5.72096 36.0928 5.94155 36.5397C6.2723 37.2098 6.76552 37.7453 7.47709 38.0105L7.87604 38.1346C8.10582 38.2083 8.44557 38.1659 8.69068 38.1658L39.5558 38.164C39.8191 38.1627 40.0585 38.1645 40.3126 38.0837C41.944 37.565 42.2102 36.4318 42.2057 34.9758C42.2015 33.6004 41.7859 32.6097 40.4177 32.0368C39.8063 31.7807 39.2149 31.8506 38.5655 31.8501L8.34652 31.8532ZM30.627 39.4442L9.67651 39.4454C9.49309 39.4462 9.25337 39.4294 9.07679 39.4792L9.0999 39.4948C9.83991 40.0042 9.86658 40.0023 10.7707 40.2807C11.0494 40.3665 11.4108 40.328 11.7028 40.3285L17.3791 40.3287L36.4021 40.3285C36.658 40.3284 36.9337 40.3406 37.1837 40.2832L37.3095 40.2518C37.8717 40.1026 38.5026 39.9345 38.9044 39.4789L30.627 39.4442Z" fill="black"/>
<path d="M12.006 37.5214C11.2312 37.5554 11.3072 36.8148 11.307 36.2877L11.3101 33.7624C11.3107 33.2339 11.1988 32.6751 11.8568 32.5096C12.5755 32.4746 12.5604 32.9685 12.5615 33.4833L12.5622 36.1976C12.5616 36.7393 12.7177 37.3879 12.006 37.5214Z" fill="black"/>
<path d="M36.0169 37.5363C35.3975 37.4953 35.3454 37.1111 35.3446 36.6183L35.3467 33.9583C35.3473 33.3746 35.1682 32.626 35.9557 32.5137L36.1521 32.5346C36.2807 32.5617 36.4026 32.673 36.4742 32.7777L36.4957 32.8103C36.5633 32.9093 36.5796 33.0096 36.584 33.1293L36.5789 36.6378C36.58 37.1207 36.5631 37.3922 36.0169 37.5363Z" fill="black"/>
<path d="M21.028 37.5216C20.4451 37.544 20.3492 37.0813 20.349 36.6441L20.3499 33.979C20.3508 33.4085 20.1692 32.6566 20.9293 32.5366C21.1513 32.5181 21.3589 32.6051 21.4802 32.798L21.4993 32.8295C21.6307 33.0421 21.5776 33.3067 21.5775 33.5451L21.5774 36.174C21.5799 36.7181 21.7277 37.3633 21.028 37.5216Z" fill="black"/>
<path d="M25.5288 37.5211C24.8261 37.5544 24.8439 36.9242 24.8438 36.4229L24.8458 33.7672C24.8468 33.2218 24.736 32.6249 25.4664 32.5391C26.1326 32.5472 26.1037 33.1602 26.081 33.6695L26.0784 36.9841C26.0717 37.2807 25.7988 37.46 25.5288 37.5211Z" fill="black"/>
<path d="M17.1047 37.509C16.16 37.7421 16.3101 36.5972 16.3098 36.0651L16.311 33.3812C16.3117 32.9261 16.3195 32.756 16.7824 32.5571C17.0675 32.5352 17.305 32.5891 17.4539 32.8677L17.4694 32.8977C17.6381 33.2049 17.5505 33.7074 17.5509 34.0467L17.5615 36.5627C17.5648 36.71 17.5854 36.8816 17.5552 37.0261L17.5375 37.0997C17.4769 37.2747 17.2618 37.4299 17.1047 37.509Z" fill="black"/>
<path d="M30.4194 37.5385C29.6826 37.4726 29.7381 36.8891 29.7375 36.2951L29.7376 34.7683C29.7379 34.3534 29.6228 33.2695 29.8117 32.9385L29.8307 32.906C29.9495 32.6944 30.1016 32.6285 30.3238 32.5557C30.9127 32.5303 31.0025 32.9713 31.003 33.4218L31.0035 36.0548C31.0032 36.6535 31.1756 37.3483 30.4194 37.5385Z" fill="black"/>
</svg>
