<svg width="48" height="48" viewBox="0 0 48 48" fill="none" xmlns="http://www.w3.org/2000/svg">
<path d="M24.499 43.945L11.5019 43.9451C11.0067 43.9455 10.4788 43.9857 9.98889 43.9358C8.45266 43.7793 6.88671 42.5407 6.7765 40.9236C6.7601 40.683 6.77139 40.4357 6.77107 40.1942L6.77139 37.8404C6.7736 36.6074 7.20335 35.4503 8.30116 34.7647C8.38966 34.7094 8.49349 34.6312 8.59493 34.6045L8.63974 34.5935C8.88705 34.5205 8.81932 34.4407 8.82578 34.2045L8.92263 29.8167C8.93172 29.6497 8.96519 29.4931 8.97944 29.328L9.45321 25.1724C10.0279 21.7947 11.1296 18.337 13.508 15.78C14.0022 15.2487 14.5531 14.7595 15.0826 14.263C15.5859 13.791 16.0619 13.286 16.5906 12.8421C17.6653 11.9398 19.1747 11.134 20.5001 10.6813L20.2731 10.3025C18.8152 7.6697 20.7063 4.31261 23.676 4.13535C27.1454 3.74543 29.5615 8.00598 27.4256 10.7197L29.1915 11.5824C32.673 13.4284 35.5956 16.5119 37.1368 20.1481L37.6888 21.5628C37.7458 21.725 37.8151 21.8882 37.8577 22.055L38.0452 22.6866C38.1368 23.1129 38.2631 23.5339 38.3556 23.9633C38.6347 25.2601 38.8091 26.5549 38.9446 27.8743L38.9947 28.6669C39.0096 28.9595 39.0467 29.2453 39.0635 29.5381L39.1683 33.5468C39.1699 33.8524 39.1535 34.1713 39.1949 34.4746C39.2669 34.5572 39.4656 34.6026 39.5694 34.6606C41.4715 35.7223 41.2281 37.617 41.2273 39.4154L41.2259 40.4501C41.2217 42.1346 40.0708 43.5666 38.3907 43.8746C37.7892 43.9849 37.1563 43.9447 36.5464 43.9448L24.499 43.945ZM23.7743 5.61104C22.1276 5.80553 20.845 7.34256 21.2812 8.95346C21.418 9.45836 21.7153 9.89786 22.016 10.3191L22.0466 10.3095C22.7295 10.1009 23.5647 10.0495 24.2755 10.097C24.8433 10.1328 25.327 10.203 25.8738 10.3764C26.42 9.73876 26.8685 9.04365 26.8021 8.164C26.6814 6.56762 25.3209 5.53628 23.7743 5.61104ZM23.5715 11.5653C21.535 11.7251 19.4908 12.4451 17.8595 13.6905C17.3162 14.1053 16.8504 14.5911 16.3487 15.052C15.7354 15.6155 15.0968 16.1662 14.5551 16.8008C13.1241 18.4775 12.031 20.5354 11.4997 22.6835L11.1567 23.9652C10.9736 24.7686 10.8495 25.5912 10.7424 26.4076L10.3632 30.4082C10.289 31.6651 10.3633 32.9262 10.2653 34.138L24.504 34.1412L37.7554 34.1339C37.6751 33.3538 37.7176 32.5512 37.708 31.7671L37.5931 29.2187L37.4304 27.5277C37.062 23.7439 35.9951 19.9672 33.5362 16.989C31.3254 14.3111 27.0896 11.3426 23.5751 11.5644L23.5715 11.5653ZM10.498 35.6095C9.61357 35.6341 8.8046 35.9344 8.39153 36.7809L8.26807 37.0854C8.19625 37.2638 8.23 37.5427 8.22963 37.7343L8.22893 40.2115C8.23043 41.2147 8.48496 41.969 9.54944 42.3533L9.73071 42.4052C10.117 42.4939 10.491 42.4727 10.8866 42.4728L37.4725 42.4726C38.6168 42.4667 39.2489 42.1151 39.7262 41.0366C39.8962 40.6525 39.7901 39.433 39.7895 38.9645C39.7889 38.4536 39.9019 37.4544 39.7177 37.0057C39.2534 35.8747 38.5046 35.6094 37.3804 35.6088L10.498 35.6095Z" fill="black"/>
<path d="M14.1064 42.2291C13.705 42.1864 13.3932 41.9767 13.3617 41.5322C13.3164 40.893 13.3562 40.2255 13.356 39.5829C13.3557 39.0169 13.247 37.3942 13.4158 36.9361L13.4291 36.9021C13.5279 36.6444 13.7508 36.5119 14.0194 36.4754C14.1302 36.4719 14.274 36.4782 14.3706 36.5342L14.3972 36.5506C14.5632 36.6476 14.6552 36.7642 14.722 36.9421L14.7541 37.0314C14.7943 37.1712 14.7685 37.3676 14.7687 37.516L14.767 41.6365C14.755 41.9655 14.3867 42.1672 14.1064 42.2291Z" fill="black"/>
<path d="M18.2326 42.1982L18.1969 42.196C17.3924 42.1294 17.5424 41.1975 17.5422 40.6444L17.5413 37.5608C17.5396 37.0317 17.5293 36.5473 18.2203 36.4805C18.4827 36.4826 18.71 36.5429 18.8427 36.7987L18.8598 36.8322C19.0312 37.1514 18.9453 37.5761 18.9451 37.9279L18.9434 41.042C18.943 41.6 18.9771 42.1463 18.2326 42.1982Z" fill="black"/>
<path d="M34.0282 42.1996L33.9667 42.2061C33.5286 42.2294 33.2561 41.9048 33.2431 41.4843L33.2436 37.6147C33.2438 37.3572 33.1807 36.9508 33.3814 36.7475L33.4018 36.7275C33.5578 36.5689 33.6837 36.5077 33.9028 36.4753C34.1721 36.4654 34.4439 36.5615 34.5605 36.8258L34.5733 36.8554C34.6941 37.1229 34.6636 37.3496 34.6639 37.6386L34.6648 40.6802C34.6648 41.2816 34.8254 42.0505 34.0282 42.1996Z" fill="black"/>
<path d="M24.1549 42.1855C23.8708 42.1991 23.6045 42.1446 23.4462 41.8743L23.429 41.8442C23.2824 41.614 23.3413 41.3425 23.341 41.0797L23.3415 38.0559C23.342 37.6555 23.2138 36.9731 23.5556 36.6811L23.5799 36.6612C23.685 36.5746 23.7919 36.5376 23.9184 36.4941C24.2712 36.4829 24.5228 36.5671 24.672 36.9178L24.6843 36.9497C24.7669 37.1422 24.7281 37.373 24.7284 37.5774L24.7293 40.5869C24.7292 40.835 24.8108 41.5547 24.6816 41.755L24.6659 41.7778C24.5269 41.9893 24.3854 42.0937 24.1549 42.1855Z" fill="black"/>
<path d="M29.9691 42.185C29.6218 42.2307 29.3072 42.1212 29.1624 41.7758L29.1387 41.7206C29.0561 41.5343 29.0898 41.2552 29.0898 41.0548L29.0895 37.3147C29.0902 36.894 29.1914 36.6729 29.6054 36.4969C30.6032 36.3947 30.5006 37.1256 30.4996 37.8127L30.5059 41.4625C30.4929 41.8373 30.3214 42.0334 29.9691 42.185Z" fill="black"/>
</svg>
