<svg width="48" height="48" viewBox="0 0 48 48" fill="none" xmlns="http://www.w3.org/2000/svg">
<path d="M25.1152 41.5301L9.96633 41.532C9.77954 41.536 9.59086 41.5552 9.40435 41.541C7.97452 41.4326 6.72755 40.281 6.58997 38.8452C6.56771 38.613 6.58158 38.3693 6.58121 38.1359L6.58069 35.5705C6.58041 35.3342 6.56621 35.0849 6.58693 34.85C6.6706 33.9008 7.41244 32.8867 8.28643 32.5426C8.33321 32.5241 8.31629 32.5203 8.31629 32.4712L8.31901 30.3505C8.33715 23.1112 12.2993 15.8681 19.3944 13.406C19.8038 13.2639 20.2487 13.0925 20.6725 13.0067L20.7166 12.9982C20.288 12.4386 20.0223 11.9049 19.8413 11.2116C19.6788 10.5887 19.8151 9.64586 20.6497 9.85445L20.6891 9.86481C20.9772 8.43578 22.1927 7.33637 23.6602 7.22786C23.756 7.204 23.9009 7.21726 24.0016 7.22012C25.5873 7.26503 26.9031 8.31128 27.1877 9.87423C27.6256 9.79834 28.1966 9.7502 28.3145 10.3079L28.3201 10.3355C28.4122 10.7179 28.2134 11.0141 27.8758 11.1842C27.4925 11.3773 27.5436 11.3644 27.3325 11.7279L26.6775 12.8526C27.0678 12.9783 27.4793 13.0547 27.8756 13.1617C31.8814 14.2433 35.3546 17.4181 37.326 20.9866C37.6279 21.5331 37.9461 22.1143 38.1669 22.6986L38.9236 24.8509C39.0533 25.1788 39.1035 25.5667 39.1876 25.9097C39.4304 26.8984 39.6401 28.4898 39.6578 29.5442L39.6599 31.4761C39.6591 31.8129 39.6476 32.1534 39.6681 32.4895L39.8565 32.5704C40.5443 32.9097 41.0309 33.5978 41.2763 34.3073C41.5527 35.1066 41.4289 35.9918 41.4298 36.8242L41.4299 38.1448C41.4278 39.8027 40.8218 40.9737 39.0936 41.4819C38.8827 41.5439 38.6513 41.5299 38.4335 41.5304L25.1152 41.5301ZM23.707 8.53628C22.7201 8.73507 22.0155 9.32434 21.9359 10.3516C21.8965 10.8598 21.3247 10.9875 21.1846 11.2062C21.4011 11.8436 21.7767 12.3639 22.3438 12.7341L22.3684 12.7284C22.8184 12.6258 23.3276 12.6373 23.7895 12.6256C24.2978 12.6229 24.7982 12.6144 25.3038 12.6698C25.544 11.9824 26.05 11.504 26.2233 11.0221C26.1498 10.9097 26.0762 10.8054 26.0382 10.6754L26.0265 10.6367C25.9634 10.4207 25.9555 10.192 25.8967 9.97314C25.6361 9.00371 24.6695 8.44867 23.707 8.53628ZM23.2086 13.9483C19.5898 14.1913 16.1911 16.0613 13.8172 18.7671C10.563 22.4763 9.33751 27.3692 9.59705 32.2111L24.8085 32.2506L38.3927 32.2382L38.3899 30.2555C38.3882 29.893 38.4017 29.5226 38.373 29.1613L38.2803 28.3941C37.8017 24.148 36.0805 20.2624 32.8202 17.3933C30.6451 15.4793 27.4643 13.9519 24.4986 13.9439L23.2086 13.9483ZM9.49163 33.5288C8.28877 33.6467 7.85283 34.4764 7.85091 35.5494L7.85054 38.1384C7.85091 38.3563 7.80563 38.6909 7.88438 38.8885L7.91011 38.9415C7.92563 38.9716 7.9313 39.0016 7.93941 39.0341C8.20585 40.1024 9.23185 40.2181 10.1099 40.2123L11.4842 40.1978L11.5287 40.1273C11.8966 39.4018 12.8193 38.3093 12.6573 37.5344L12.506 36.8531C12.2981 35.8907 12.375 34.4012 12.927 33.5394L9.49163 33.5288ZM14.4664 33.5204C13.958 34.3215 13.4843 35.3152 13.7035 36.295L13.913 37.3668C13.9952 37.6996 14.0157 38.0903 13.9058 38.4178L13.8915 38.4611C13.6789 39.0926 13.2676 39.6281 12.9578 40.209L16.2956 40.2118C16.4445 40.2115 17.1593 40.2399 17.2457 40.1813L17.2616 40.1338L17.7119 39.1592C17.988 38.5964 18.3642 38.0167 18.3852 37.3764C18.2471 37.1439 18.0909 36.922 17.9748 36.6771C17.4593 35.5897 17.8407 34.4532 18.5103 33.5409C17.2142 33.4664 15.6856 33.6512 14.4664 33.5204ZM25.6429 33.5191C25.2465 34.1008 24.7985 34.7755 24.5719 35.4537C25.3312 37.036 24.9469 38.0185 24.2371 39.5513C24.1507 39.7381 23.9726 39.9947 23.9427 40.1952L27.7557 40.2133L27.7886 40.1969C27.8992 40.1831 28.1362 40.2326 28.2108 40.1657L28.2223 40.1297C28.2901 39.9268 28.4017 39.7224 28.4915 39.5278L29.0936 38.2238C29.2352 37.9031 29.5007 37.4312 29.3612 37.0766L29.205 36.6793C28.8287 35.6159 28.9575 34.5441 29.3969 33.528L25.6429 33.5191ZM33.527 33.5306L30.8634 33.531C30.7877 33.629 30.7754 33.7254 30.7254 33.8316C30.4212 34.4792 30.1811 35.0672 30.2838 35.813C30.3373 36.2018 30.5666 36.5308 30.6754 36.9019L30.6902 36.938C30.8442 37.3287 30.6179 37.9381 30.483 38.2991L29.6197 40.2107L31.4172 40.2133L33.8156 40.2166C33.9018 39.9301 34.0323 39.6793 34.1551 39.4078L34.7724 38.0639C34.893 37.8079 35.0791 37.4887 35.129 37.2135C34.0108 35.9432 34.146 34.97 34.9833 33.5396L33.527 33.5306ZM36.514 33.5291C36.2419 33.9965 35.475 35.0661 35.6191 35.5916L35.6901 35.7963C35.8029 36.0835 36.0297 36.2363 36.2143 36.4646C36.7651 37.1458 36.2218 38.0401 35.9081 38.6949L35.5055 39.5789C35.4108 39.7875 35.2876 39.9918 35.2228 40.2122L38.0235 40.2133C38.3984 40.2132 38.7501 40.2452 39.0992 40.0854L39.1368 40.0686C40.1071 39.6262 40.1416 38.9038 40.143 38.0064L40.1424 35.6117C40.1416 35.1869 40.1455 34.8884 39.9562 34.4962L39.8041 34.2461C39.3179 33.5298 38.7687 33.5325 38.0185 33.5308L36.514 33.5291ZM20.0488 33.5308L19.7023 34.0978C18.7256 35.5954 18.8353 35.3904 19.4991 36.7352C19.9863 37.7221 19.3148 38.8927 18.8527 39.7577L18.633 40.1969L21.2317 40.2137C21.5989 40.2131 22.0047 40.1775 22.368 40.2178C22.6127 40.1935 22.6491 39.8893 22.7451 39.6875L23.2123 38.6606C23.4423 38.1437 23.8108 37.4032 23.6998 36.8149L23.6696 36.6714C23.6141 36.4086 23.4668 36.1753 23.3922 35.9176C23.1995 35.2514 23.6498 34.0733 24.0767 33.5349L20.0488 33.5308Z" fill="black"/>
</svg>
