<svg width="48" height="48" viewBox="0 0 48 48" fill="none" xmlns="http://www.w3.org/2000/svg">
<path d="M23.9353 42.7284L11.8613 42.7283C11.4529 42.7282 10.9775 42.7742 10.5762 42.702C8.6225 42.3509 7.02374 41.0931 6.77821 39.0047C6.72317 38.5368 6.73091 37.1162 6.77792 36.6604C6.905 35.4277 7.68913 34.2487 8.76814 33.6415L9.23413 33.4073C9.43274 33.3071 9.36697 33.2615 9.40011 33.0472L10.2749 28.5121C11.5537 23.3568 14.4814 17.4421 19.6639 15.2815L20.7418 14.8591L20.0623 14.58C17.0759 13.2108 17.5179 8.73258 20.6623 8.08495C20.7361 8.06977 20.7251 7.96983 20.7388 7.89891C21.0247 6.41827 22.3291 5.4136 23.8008 5.28342C23.8632 5.26566 23.9587 5.27494 24.0243 5.27447C25.5633 5.26271 27.1124 6.47728 27.2599 8.04872C27.369 8.13802 27.605 8.15757 27.7417 8.20941C28.597 8.53369 29.4091 9.23278 29.7088 10.1112L29.8001 10.3819C30.0413 11.3095 30.024 12.2419 29.5413 13.1005C29.1486 13.7991 28.4169 14.5151 27.6253 14.7277L28.8049 15.3248C32.8354 17.6186 35.165 21.145 36.7618 25.4394C36.9156 25.8531 37.0895 26.2797 37.1983 26.7074L37.2961 27.0198C37.3425 27.2482 37.4402 27.4618 37.486 27.6945L38.3803 31.7573L38.5983 33.331C39.5381 33.6724 40.399 34.4818 40.8162 35.3772C41.3293 36.4785 41.3561 38.505 41.055 39.6868C40.6759 41.1752 39.3554 42.3145 37.8725 42.6166C37.1365 42.7666 36.4061 42.7285 35.6588 42.7287L23.9353 42.7284ZM23.7075 6.73355C23.457 6.77128 23.2271 6.84624 23.0091 6.97702L22.9772 6.99591C22.4517 7.31072 22.0578 7.8705 22.0673 8.49647C22.0694 8.63592 22.0972 8.78471 22.0517 8.91835L22.0427 8.94689C21.8895 9.40327 21.5179 9.39202 21.1287 9.42844C19.0877 9.61931 18.6956 13.0461 21.2136 13.4852C22.1545 13.6493 21.7267 13.2776 22.308 14.1958C22.7387 14.8761 23.5488 15.1092 24.3097 15.0421C25.9005 14.8316 25.7443 13.5875 26.318 13.5038C26.4633 13.4826 26.6143 13.492 26.761 13.4758C27.5135 13.3922 28.1579 12.8344 28.4286 12.141L28.4448 12.1009C28.8498 11.0691 28.1579 9.71888 27.0809 9.46238C26.8362 9.40406 26.5492 9.47081 26.3173 9.35785C25.8097 9.11072 25.9461 8.64774 25.8903 8.20744C25.7594 7.17572 24.6727 6.65564 23.7075 6.73355ZM26.2522 15.751C24.8014 16.712 23.5627 16.7194 22.1093 15.8995C22.0848 15.8857 21.6536 16.0626 21.5823 16.0868L20.7623 16.3725C19.8422 16.728 17.8998 17.7553 17.2121 18.4928C17.7515 18.7193 18.2638 18.9947 18.8114 19.2066C19.6467 19.5296 20.4944 19.6894 21.3692 19.8541L22.0193 19.9126C24.9576 20.2147 28.1624 19.9386 30.7723 18.4784L30.1593 17.9355C28.9658 16.968 27.7001 16.2459 26.2522 15.751ZM16.1677 19.5404C15.2093 20.6389 14.1628 22.2766 13.5336 23.627C15.3944 24.5686 18.3598 25.1229 20.3845 25.348L21.9982 25.503C23.1582 25.5696 24.9277 25.58 26.0954 25.4992L27.5959 25.3404C28.5303 25.2366 29.468 25.12 30.3865 24.9119L32.5595 24.3287L34.4934 23.6566C33.9752 22.6099 33.3702 21.5671 32.6834 20.6209L31.8495 19.5382L30.4159 20.2422C26.9797 21.7609 22.1149 21.8186 18.591 20.6324C17.7399 20.3458 16.9716 19.9281 16.1677 19.5404ZM12.9419 24.9402C12.3869 26.109 11.8246 28.065 11.5398 29.3033L10.9184 32.4986C10.8922 32.6351 10.8251 32.8665 10.842 33.0022L37.0662 33.0171L37.146 33.0121C37.1592 32.8546 37.1117 32.6655 37.0834 32.5099L36.5403 29.6317C36.1672 28.0356 35.6631 26.4766 35.0878 24.9432C33.632 25.4812 32.1765 25.9733 30.656 26.2982L28.0189 26.7308L25.1499 26.9749L21.9959 26.9083C19.2138 26.7561 15.5312 26.1207 12.9419 24.9402ZM10.6782 34.4824C9.40836 34.6098 8.23081 35.5977 8.22692 36.92L8.2258 37.637C8.22561 38.094 8.19074 38.583 8.23138 39.0368C8.33314 40.1734 9.66936 41.2206 10.7554 41.2635L36.0069 41.2667C36.4642 41.2666 36.9322 41.2866 37.3883 41.2573C38.6865 41.1706 39.766 39.9086 39.7701 38.6038L39.7712 37.7664C39.7711 37.3186 39.8559 36.8042 39.6998 36.3754C39.3499 35.4141 38.4827 34.5468 37.4134 34.4838C37.079 34.464 36.7338 34.4804 36.3983 34.4803L10.6782 34.4824Z" fill="black"/>
<path d="M16.6404 40.3288C16.2844 40.3664 15.9939 40.1899 15.8441 39.8623L15.8278 39.8262C15.7353 39.6246 15.7702 39.3778 15.7699 39.1623L15.7704 37.2137C15.7715 36.6944 15.7709 36.2274 16.372 36.0753C16.7044 36.0533 17.0334 36.1453 17.1431 36.5016L17.1969 36.6478C17.2479 36.8065 17.2302 37.0091 17.2306 37.1744L17.2309 39.2698C17.23 39.7838 17.2265 40.1435 16.6404 40.3288Z" fill="black"/>
<path d="M24.0197 40.3128C23.6656 40.3185 23.287 40.1133 23.2492 39.7201L23.2328 39.5732C23.2085 39.2489 23.2461 38.8919 23.2466 38.5636L23.2475 37.1971C23.2474 36.6598 23.1788 36.2206 23.8533 36.0764C23.9326 36.0718 24.005 36.0741 24.0836 36.0875L24.117 36.0935C24.3245 36.129 24.4764 36.303 24.5467 36.4949L24.5956 36.62C24.6427 36.777 24.6224 36.9753 24.6195 37.1387L24.6151 39.0988C24.615 39.3089 24.6782 39.6675 24.5727 39.8561L24.5544 39.886C24.4196 40.1146 24.2687 40.2264 24.0197 40.3128Z" fill="black"/>
<path d="M26.4735 40.3178C25.6167 40.3188 25.6765 39.6846 25.678 39.1099L25.6785 37.2029C25.6662 36.6733 25.6572 36.15 26.3107 36.0771C26.6027 36.0989 26.8679 36.1641 26.9848 36.4721L27.0438 36.5993C27.0921 36.727 27.0722 36.9329 27.0726 37.0701L27.0732 39.1047C27.0722 39.6517 27.1226 40.1182 26.4735 40.3178Z" fill="black"/>
<path d="M31.6819 40.3166C31.325 40.3892 31.0148 40.2587 30.8349 39.9326L30.8188 39.9025C30.726 39.7345 30.7673 39.5173 30.7673 39.333L30.7685 37.2419C30.7689 37.0017 30.6965 36.6302 30.8473 36.4249L30.8672 36.3986C31.007 36.2093 31.125 36.1256 31.3564 36.0748C31.8416 36.0516 32.1666 36.2818 32.2099 36.792C32.2675 37.4716 32.2292 38.1806 32.2285 38.8631L32.2273 39.4497C32.2255 39.8713 32.0944 40.1323 31.6819 40.3166Z" fill="black"/>
<path d="M19.2255 40.28C18.5223 40.4622 18.3395 39.8888 18.3419 39.345L18.3447 37.2107C18.3457 36.7227 18.2638 36.3135 18.8052 36.0987L19.1507 36.0957C19.3682 36.1197 19.6747 36.3612 19.686 36.598L19.6914 39.4871C19.6915 39.8981 19.618 40.0784 19.2255 40.28Z" fill="black"/>
<path d="M21.6372 40.2926C20.5646 40.4624 20.7857 39.1607 20.7863 38.5156L20.7872 37.252C20.7858 36.7189 20.6978 36.3518 21.2634 36.0976C21.6033 36.0678 21.9472 36.1256 22.0823 36.4943L22.0956 36.5348C22.1781 36.7689 22.1389 37.1192 22.1397 37.3703L22.1424 39.4389C22.1418 39.8512 22.0555 40.1086 21.6372 40.2926Z" fill="black"/>
<path d="M29.0197 40.3005C28.1453 40.4074 28.1919 39.559 28.1918 39.0072L28.1936 36.9513C28.1948 36.5009 28.2266 36.2776 28.6956 36.0962C29.4697 36.0811 29.5263 36.4419 29.5268 37.1618L29.5318 39.371C29.5321 39.5117 29.584 39.7713 29.5032 39.8924L29.4875 39.9144C29.3579 40.1082 29.2411 40.2167 29.0197 40.3005Z" fill="black"/>
</svg>
