<svg width="48" height="48" viewBox="0 0 48 48" fill="none" xmlns="http://www.w3.org/2000/svg">
<path d="M24.1816 40.5665L11.6641 40.5675C11.187 40.5673 10.6748 40.6067 10.203 40.5565C8.63842 40.39 7.50835 39.3494 7.08362 37.8412C7.00131 37.5489 7.04668 37.1368 7.04645 36.8325L7.04682 34.1663C7.04757 32.7714 7.91532 31.3048 9.30278 30.9207L9.32757 30.9141C9.03699 30.086 9.11321 29.2461 9.11434 28.3833C9.12235 22.2104 12.25 16.0804 17.8895 13.2967C17.9925 13.2459 18.8876 12.8559 18.8996 12.8409C18.9307 12.8019 18.8912 12.4322 18.8912 12.3598C18.8902 9.99308 20.8026 7.95875 23.0829 7.54264C23.3346 7.49671 23.5979 7.49042 23.8524 7.46282C24.0373 7.44416 24.2254 7.46839 24.4101 7.48396C27.3125 7.72794 29.1414 10.0475 29.1299 12.8511C29.3057 12.9777 29.5703 13.0295 29.7717 13.1263C34.616 15.4526 37.7562 20.0969 38.6247 25.3239L38.8652 27.4691L38.8796 29.2322C38.8785 29.8076 38.8729 30.3383 38.6791 30.8894C39.3349 31.2137 39.785 31.4425 40.2538 32.0681C40.5227 32.4269 40.9044 33.2199 40.9375 33.6861C40.9889 34.4116 40.949 35.1629 40.9493 35.8913L40.9488 37.1782C40.9461 38.781 39.9046 40.1369 38.3036 40.4645C37.5851 40.6115 36.8373 40.568 36.1076 40.5671L24.1816 40.5665ZM24.0149 8.70627C22.0524 8.78239 20.1107 10.2641 20.1294 12.3278L20.1289 12.4034C21.4096 12.0531 22.7069 11.8521 24.0354 11.8488L24.0409 11.8523C24.941 11.86 25.8755 11.9516 26.7574 12.1353L27.8943 12.4132C27.7685 10.2978 26.1027 8.78178 24.0149 8.70627ZM23.3131 13.1286C15.9682 13.6944 11.1645 19.7092 10.4073 26.7067L10.3196 28.9882C10.3188 29.4863 10.2902 30.0305 10.4528 30.5089L10.5206 30.6771L24.7148 30.673L37.4938 30.6778C37.8298 29.3462 37.6924 27.7578 37.5351 26.3939C36.9377 21.2158 33.9828 16.4244 29.1393 14.2169C27.2135 13.3393 25.3921 13.1174 23.3131 13.1286ZM10.3261 31.9511C8.99054 32.0711 8.24574 33.0706 8.25095 34.3445L8.25081 36.6183C8.2502 36.8668 8.23482 37.1277 8.25367 37.3751C8.32745 38.3433 9.26096 39.2323 10.2187 39.2871C10.5688 39.3072 10.9272 39.2934 11.2783 39.2937L37.5332 39.2945C38.5895 39.2543 39.6349 38.5655 39.7293 37.4293C39.7744 36.8858 39.7344 36.3058 39.7329 35.7585C39.7314 35.1506 39.7631 34.5294 39.7269 33.9238C39.6722 33.0108 38.7155 32.0018 37.8142 31.9514C37.4206 31.9294 37.0147 31.9495 36.62 31.9493L10.3261 31.9511Z" fill="black"/>
<path d="M12.305 38.7605L12.1229 38.727C11.5561 38.5561 11.6535 37.9172 11.6531 37.4634L11.6519 33.3284C11.6526 32.8863 11.7895 32.708 12.2272 32.5558C12.9324 32.544 12.8452 33.1719 12.8457 33.651V37.2684C12.8468 37.8563 13.0799 38.6313 12.305 38.7605Z" fill="black"/>
<path d="M19.0549 38.7799C18.3752 38.6703 18.4207 38.1054 18.4207 37.5343L18.4214 34.3388C18.4221 33.6812 18.2165 32.7406 18.9987 32.5605L19.1486 32.575C19.3808 32.6224 19.5854 32.8027 19.5932 33.047L19.5939 38.2883C19.5846 38.5521 19.2763 38.7137 19.0549 38.7799Z" fill="black"/>
<path d="M32.6558 38.7558C32.3161 38.7408 32.0017 38.5707 31.9839 38.1846L31.9852 33.4005C31.9863 32.9478 32.0006 32.7043 32.503 32.5561C32.7299 32.5349 32.9841 32.6574 33.0764 32.873L33.1475 33.0236C33.195 33.1749 33.1652 33.411 33.1655 33.5722L33.1639 38.2443C33.1538 38.514 32.9017 38.698 32.6558 38.7558Z" fill="black"/>
<path d="M35.905 38.7525C35.5505 38.7941 35.1786 38.5852 35.1634 38.191L35.1656 33.6195C35.1668 33.1 35.065 32.8061 35.6029 32.5561C36.235 32.5298 36.3532 32.8711 36.3536 33.3927L36.3536 37.2872C36.3538 37.8413 36.546 38.4836 35.905 38.7525Z" fill="black"/>
<path d="M15.6152 38.7617C14.8419 38.8121 14.925 38.0138 14.9246 37.5492L14.9248 34.0212C14.9252 33.4238 14.7263 32.7928 15.4471 32.5806C15.732 32.5607 16.0881 32.744 16.1027 33.0587L16.1034 37.6056C16.1046 37.8218 16.1785 38.1399 16.0926 38.3415L16.0447 38.4462C15.9463 38.6181 15.7991 38.7073 15.6152 38.7617Z" fill="black"/>
<path d="M22.5259 38.7639C21.8163 38.806 21.8211 38.1795 21.8208 37.7106L21.8242 33.1193C21.8386 32.8171 22.0338 32.6743 22.3068 32.58C22.4144 32.5752 22.5093 32.5645 22.6118 32.6067L22.6955 32.643C23.1368 32.8563 23.0107 33.4912 23.0116 33.8859L23.0107 38.1384C23.0058 38.2369 22.9892 38.3626 22.9372 38.4473L22.9203 38.4729C22.8128 38.6393 22.7063 38.7002 22.5259 38.7639Z" fill="black"/>
<path d="M25.9572 38.7534C25.6491 38.8036 25.289 38.4829 25.2493 38.1766C25.2232 37.976 25.2441 37.7456 25.2438 37.5422L25.2444 34.1305C25.2449 33.7666 25.2053 33.3439 25.2765 32.9892L25.284 32.9552C25.3278 32.7433 25.5473 32.6431 25.7351 32.581C26.1347 32.541 26.4138 32.7528 26.4351 33.1476L26.4415 37.9801C26.4411 38.1035 26.45 38.2328 26.4064 38.3501L26.3768 38.4274C26.3024 38.5906 26.1214 38.7014 25.9572 38.7534Z" fill="black"/>
<path d="M29.3099 38.7473C28.4128 38.8082 28.6142 37.6602 28.6138 37.0989L28.6143 33.5583C28.6147 33.0483 28.5568 32.7655 29.1304 32.5813C29.358 32.563 29.5871 32.6217 29.7153 32.8297L29.7306 32.8553C29.8617 33.0668 29.8055 33.3304 29.8056 33.5672L29.7979 38.2381C29.7874 38.4938 29.5412 38.6861 29.3099 38.7473Z" fill="black"/>
</svg>
