<svg width="48" height="48" viewBox="0 0 48 48" fill="none" xmlns="http://www.w3.org/2000/svg">
<path d="M24.9023 37.9244L11.9094 37.9247C10.8831 37.9246 9.85558 37.9875 8.94939 37.3989C7.68648 36.5786 7.24328 35.3938 7.24028 33.9522L7.23948 32.7119C7.24019 31.4717 7.19401 30.5027 8.09561 29.4836C8.30266 29.2496 8.37972 29.3161 8.36251 28.991L8.18012 26.646L8.17169 24.9446C8.1723 24.2505 8.20352 23.7437 8.2772 23.0618L8.4617 21.8789C9.92523 14.7418 16.0207 10.4035 23.0515 10.0683L24.876 10.0566C30.6535 10.3364 36.3023 13.4193 38.6201 18.9141L38.9372 19.7266C39.0968 20.1479 39.2852 20.6303 39.3637 21.074L39.4772 21.556C39.6841 22.2359 39.7038 22.9975 39.7632 23.706L39.8228 25.5569C39.8223 25.946 39.8382 26.3433 39.8123 26.7312L39.6344 28.9197C39.615 29.2624 39.7221 29.2485 39.9353 29.5116C40.5689 30.2936 40.7559 31.0311 40.7572 32.0317L40.7578 33.178C40.7574 34.4318 40.8826 35.1177 40.2131 36.2578L40.0065 36.5599C39.4862 37.2473 38.6551 37.7579 37.795 37.8721L37.6777 37.89C37.2925 37.9705 36.8275 37.9246 36.4335 37.9247L24.9023 37.9244ZM23.2174 11.3693L22.7879 11.3928C22.7574 11.495 22.7334 11.5857 22.7259 11.6929L22.6163 12.7221C22.5107 13.3753 22.6536 14.5781 22.7958 15.2443L22.9774 15.9486C22.9847 15.9822 22.9954 16.0096 23.0076 16.0414L23.3831 17.0883C23.7797 17.9937 24.255 18.8552 24.8615 19.6395C25.5503 20.5303 26.3477 21.3144 26.8327 22.3477L27.2247 23.2515C27.3816 23.6781 27.4853 24.176 26.9362 24.3684C26.2642 24.6039 26.0804 23.8129 25.8868 23.3787C25.3154 22.0969 24.897 21.7911 24.1272 20.8105C22.3194 18.5072 21.1316 15.812 21.3329 12.8142L21.3987 11.9412C21.4116 11.8071 21.4608 11.6475 21.4452 11.5156C19.7489 11.7065 17.585 12.507 16.1237 13.3198L16.1829 14.101C16.1972 14.435 16.1721 14.7943 16.2523 15.1187L16.5359 16.5958L16.9811 18.001L17.5557 19.3125C17.8289 19.9813 17.1567 20.3555 16.6934 20.1158C16.4366 19.983 16.2786 19.6103 16.16 19.3595C15.3728 17.695 14.9739 15.9156 14.8693 14.0797C14.7088 14.2401 14.53 14.3732 14.3575 14.5204L13.3945 15.3752C12.4232 16.2938 11.5817 17.4451 10.97 18.6328L10.4932 19.6731L15.4622 21.5688C17.3065 22.3838 18.5669 23.2428 19.7186 24.9353L19.8294 25.1331C19.9833 25.4172 19.7918 25.7848 19.5176 25.9113L19.4589 25.9373C18.8735 26.1783 18.5582 25.5034 18.2627 25.139L17.7611 24.5681C16.888 23.6316 15.788 23.111 14.6242 22.6155L11.4997 21.4078C11.016 21.2338 10.5336 21.028 10.0406 20.8835L9.58098 22.975C9.52675 23.2624 9.56439 23.573 9.48887 23.854C9.37473 24.2785 9.43291 26.3033 9.46248 26.7564L9.58084 28.1102C9.5853 28.1853 9.58309 28.289 9.62083 28.3543C10.5602 28.0483 10.8652 28.1418 11.8519 28.1419L36.0436 28.1422C36.8078 28.1423 37.6689 28.0087 38.373 28.3733L38.4052 28.3904C38.3886 27.8267 38.506 27.2765 38.5341 26.7185L38.548 25.3147C38.5466 24.3743 38.4615 22.1848 38.0642 21.3363C33.6125 20.482 28.7779 17.649 27.833 12.8933C27.7585 12.5185 27.6969 12.1261 27.7034 11.7432L25.7506 11.4491C25.5084 11.4015 25.2359 11.4027 24.9888 11.3915L23.2174 11.3693ZM29.0393 12.0768C29.0613 12.3688 29.0956 12.7407 29.1947 13.017L29.3688 13.5741C30.4085 16.1525 32.087 17.7514 34.6711 18.8818L37.6628 19.9537C37.4058 19.4117 37.1776 18.8595 36.8779 18.3386C35.1816 15.3901 32.5954 13.3417 29.429 12.2095L29.0393 12.0768ZM10.5189 29.4517C9.26959 29.6944 8.81641 30.4614 8.5465 31.5748L12.8554 31.5912C13.0717 31.591 13.339 31.6152 13.5468 31.5575C13.8313 31.4784 14.036 31.5888 14.3013 31.5924L18.5133 31.5889C18.7153 31.5841 18.9042 31.5228 19.108 31.5236C19.2809 31.5243 19.4297 31.5876 19.5965 31.5905L23.7538 31.5906C24.0779 31.5813 24.317 31.496 24.6511 31.5717C24.8057 31.6067 24.97 31.5944 25.1281 31.5947L28.9804 31.59C29.1625 31.5851 29.3381 31.5284 29.5195 31.525C29.8786 31.5183 30.3858 31.5906 30.8108 31.5909L34.237 31.5915C34.4311 31.5901 34.6135 31.5222 34.808 31.5256C34.9325 31.5277 35.0441 31.5844 35.1679 31.5904L37.2011 31.5912L39.4782 31.5713C39.2966 30.6299 38.6269 29.5566 37.5754 29.4662C37.2797 29.4408 36.9651 29.4607 36.6677 29.4605L10.5189 29.4517ZM8.51252 32.8518L8.50642 33.9881C8.50792 34.2612 8.49405 34.5655 8.57734 34.8282L8.60509 34.9183C8.81373 35.5929 9.23941 36.1413 9.89641 36.4337L10.1606 36.539C10.2519 36.5769 10.3393 36.589 10.4372 36.5934L37.3261 36.6011C37.4957 36.5982 37.7128 36.6068 37.8696 36.539L37.8999 36.5252C39.2453 35.9268 39.4891 35.1973 39.4885 33.757C39.4884 33.4618 39.5125 33.1473 39.4742 32.8561L35.4391 32.8487C35.402 33.4057 35.4149 33.967 35.415 34.525L35.4147 35.021C35.4131 35.87 34.3072 35.813 34.165 35.1789C34.1242 34.9968 34.147 34.7684 34.1469 34.5817L34.1469 33.3399L34.1431 32.8597L30.2024 32.8518C30.1645 33.0709 30.1856 33.3172 30.1858 33.5399L30.1858 34.8125C30.1856 34.9512 30.2116 35.1658 30.166 35.2948C30.0834 35.5293 29.7173 35.7151 29.4812 35.6574L29.4158 35.6404C29.1527 35.5718 29.0135 35.4035 28.9392 35.1563L28.9311 35.1308C28.8854 34.9782 28.9067 34.7528 28.9063 34.5913L28.9047 33.4707C28.9045 33.271 28.9214 33.0534 28.8947 32.8565L24.9656 32.8509C24.9256 33.068 24.9426 33.3079 24.9412 33.5286L24.9397 34.7899C24.9396 34.9245 24.9646 35.133 24.925 35.2594C24.7659 35.7679 23.9406 35.7783 23.7152 35.3124C23.6096 35.0939 23.6909 33.2752 23.6654 32.8576L19.795 32.8457C19.7683 33.223 19.8694 35.1995 19.6935 35.3789L19.6631 35.4103C19.2932 35.7905 18.6185 35.6694 18.5447 35.2398C18.5041 35.0032 18.5304 34.7213 18.5297 34.4789L18.5245 32.8563L14.4723 32.8472C14.4516 33.0202 14.4655 33.1887 14.4621 33.3622L14.4516 34.6505C14.4517 34.8335 14.478 35.0673 14.4394 35.2442C14.3835 35.5013 14.0078 35.7063 13.7628 35.6671L13.6778 35.6474C13.1577 35.5167 13.1949 35.0687 13.1941 34.6429L13.1842 32.914C13.1833 32.8657 13.1932 32.8835 13.1629 32.8567L8.91316 32.8506C8.79006 32.8501 8.63148 32.8308 8.51252 32.8518Z" fill="black"/>
</svg>
