<svg width="48" height="48" viewBox="0 0 48 48" fill="none" xmlns="http://www.w3.org/2000/svg">
<path d="M24.3869 40.4805L8.74137 40.4801C7.35734 40.479 6.05366 39.9909 5.48361 38.603C5.39202 38.3801 5.28477 38.0581 5.27262 37.8132L5.26953 35.0669C5.27084 34.4067 5.50831 33.7015 5.9773 33.2228C6.04648 33.1522 6.04728 33.0763 6.0447 32.9833L6.12106 28.9671C6.12866 28.8476 6.15495 28.7359 6.16541 28.6174L6.32483 27.183C7.30119 20.5883 11.4746 13.6695 18.0705 11.4781L19.4885 11.0625C19.6604 11.0182 19.9681 11.0181 19.9989 10.8699C20.3921 8.9752 21.735 7.74183 23.6874 7.53295C23.9653 7.49034 24.2834 7.52991 24.5589 7.57238C26.3568 7.84964 27.7386 9.14423 28.0556 10.93L29.289 11.2621C34.2353 12.6942 37.7909 16.5522 39.9025 21.1572L40.7022 23.1836C40.831 23.5381 40.9663 23.9401 41.0484 24.3083L41.4895 26.2057C41.6182 26.9817 41.7398 27.7854 41.7881 28.5705L41.8108 32.5758C41.7977 32.9654 41.7131 32.8785 41.954 33.1642C42.4162 33.7123 42.7223 34.3212 42.7238 35.0476L42.7243 37.248C42.7239 37.4692 42.754 37.7573 42.7003 37.9723C42.2986 39.5793 41.1204 40.4795 39.4381 40.4799L24.3869 40.4805ZM23.8957 8.93958C22.7721 9.0517 21.7895 9.54534 21.4139 10.707L24.1829 10.5205C24.78 10.5223 26.0518 10.5824 26.6155 10.7089C26.1216 9.6308 25.108 8.85642 23.8957 8.93958ZM22.6197 11.9811C19.6122 12.1555 16.6082 13.2096 14.267 15.1264C10.9045 17.8792 8.54689 22.3441 7.80083 26.5665L7.50575 28.6441C7.42423 29.3528 7.3887 30.0495 7.38589 30.762L7.38613 32.3781L7.66109 32.3112C7.88305 32.2449 8.13163 32.2665 8.36112 32.2661L25.301 32.2663L39.4993 32.2668C39.7121 32.2668 39.939 32.2509 40.1502 32.2716C40.236 32.28 40.4377 32.3573 40.5066 32.3344C40.4697 30.982 40.5381 29.6438 40.4088 28.2939C39.9425 23.4269 37.7765 18.9007 34.2203 15.5563C31.4378 12.9394 27.9151 11.9768 24.1906 11.9781L22.6197 11.9811ZM7.92341 33.6355C6.84988 33.8559 6.59436 34.5482 6.59502 35.482L6.60022 37.2895C6.60102 37.4455 6.59136 37.6152 6.61934 37.7687C6.73339 38.3957 7.44172 39.0082 8.08672 39.017L8.61345 39.0171L9.86089 39.0205L9.85691 33.6361L7.92341 33.6355ZM14.1281 33.636C14.0875 34.0265 14.1164 34.4324 14.1149 34.8173L14.1085 38.4495C14.1071 38.6322 14.0766 38.8405 14.1107 39.0186L17.3202 39.018L17.3383 34.1706C17.3383 33.9992 17.3584 33.801 17.33 33.6324L14.1281 33.636ZM18.6511 33.633C18.6139 33.9949 18.6318 34.3699 18.6317 34.7349L18.6323 38.2922C18.6322 38.5319 18.6095 38.7795 18.6321 39.0177L21.8563 39.0208L21.8551 33.6332L18.6511 33.633ZM26.1384 33.633C26.092 33.9512 26.1165 34.2855 26.116 34.6067L26.1105 38.1768C26.1102 38.4519 26.0851 38.7444 26.1085 39.0167L29.3233 39.0171L29.3382 34.2234C29.3381 34.0326 29.3557 33.8216 29.3315 33.6331L26.1384 33.633ZM30.6403 33.633L30.6227 39.0162L33.8438 39.021L33.8507 33.6345L30.6403 33.633ZM38.138 33.633C38.073 34.2196 38.1183 34.848 38.1176 35.4368L38.1124 39.0118C38.4986 39.0387 38.8985 39.0198 39.2862 39.0192C39.9881 39.0182 40.2906 39.0571 40.8775 38.5837C41.0803 38.3834 41.2058 38.2056 41.3159 37.9398L41.3272 37.9132C41.3832 37.7748 41.3672 37.5926 41.3677 37.4451L41.369 36.7404C41.3696 36.1648 41.3963 35.574 41.365 34.9998C41.3303 34.3663 40.7102 33.7274 40.076 33.6418C39.8707 33.6142 39.6393 33.6335 39.4308 33.6331L38.138 33.633ZM11.4125 33.633C11.3436 33.6699 11.2791 33.6616 11.2297 33.6915L11.2275 39.0187L12.6344 39.0171L12.7704 39.0119L12.7706 34.2338C12.7704 34.0498 12.7868 33.8505 12.7585 33.6687C12.3137 33.6025 11.8352 33.7058 11.4125 33.633ZM23.229 33.6449L23.2287 39.0178L24.7745 39.0171L24.77 34.2489C24.7698 34.0547 24.7877 33.8409 24.7554 33.6496L23.229 33.6449ZM35.9994 33.639L35.2383 33.6562C35.192 33.8633 35.2274 34.155 35.2277 34.3723L35.2272 38.0668C35.2271 38.376 35.1993 38.7118 35.2272 39.0175L36.0729 39.0171L36.77 39.019L36.7703 34.2232C36.7703 34.037 36.7862 33.8348 36.7618 33.6506L35.9994 33.639Z" fill="black"/>
<path d="M15.0867 29.9539L15.0793 29.9541C14.2383 30.0022 14.3345 29.1414 14.3418 28.5519L14.3555 27.7523C14.3688 27.3684 14.4316 26.8686 14.4762 26.4837C14.5487 25.8582 14.6356 25.2341 14.7683 24.6179L15.1475 23.0177C15.8287 20.662 16.973 18.433 18.2532 16.3511C18.3885 16.1311 18.5129 16.0483 18.7606 15.9881C19.2496 15.9532 19.6725 16.446 19.4673 16.919C19.3512 17.1865 19.1939 17.4313 19.0482 17.6834L18.316 18.9707C16.9407 21.5471 16.0407 24.2251 15.7538 27.1295L15.6714 28.2098C15.6005 28.8866 15.89 29.6615 15.0867 29.9539Z" fill="black"/>
<path d="M33.0608 29.9744C32.3284 30.0125 32.321 29.3041 32.3198 28.8158L32.2914 27.9137C32.286 27.5396 32.2637 27.1923 32.2115 26.823L32.0713 25.6332C31.7452 23.5934 31.079 21.5752 30.0784 19.7639L29.6532 19.0523C29.2837 18.4761 28.8617 17.7147 29.8453 17.4865C30.1599 17.4614 30.373 17.6621 30.5331 17.9102L31.3998 19.3359C31.8625 20.1455 32.6905 22.0947 32.8931 23.0656C32.8995 23.0961 32.9048 23.1252 32.917 23.1541L32.9386 23.2041C33.0162 23.4071 33.037 23.6386 33.0945 23.8473C33.3817 24.8916 33.5005 26.0174 33.5758 27.0926L33.6558 28.7994C33.6582 29.3678 33.7059 29.7616 33.0608 29.9744Z" fill="black"/>
</svg>
