<svg width="48" height="48" viewBox="0 0 48 48" fill="none" xmlns="http://www.w3.org/2000/svg">
<path d="M36.2066 41.5037C35.3368 41.7378 34.4532 41.8983 33.5677 42.0572L28.5741 42.6817C28.3574 42.6985 28.1382 42.7469 27.9228 42.7591L21.7303 42.9766L19.781 42.9648L16.4305 42.7869L13.8479 42.5244C13.4827 42.4779 13.1231 42.3885 12.7598 42.3295L11.1194 42.0963C9.96004 41.9147 9.12105 41.0505 8.74519 39.9774C8.58352 39.5157 8.61002 39.0896 8.59267 38.6037L8.35581 31.9055C8.33695 31.3362 8.43768 30.7352 8.95205 30.3739C9.09325 30.2746 9.09044 30.2492 9.08464 30.0808L9.06806 29.5908C8.9784 26.9473 9.47984 24.431 10.816 22.1136C9.68693 20.9508 10.1877 19.5316 10.883 18.2568C12.3994 15.4766 15.5987 12.7538 18.6951 11.8441C18.6008 11.5038 18.518 11.1835 18.478 10.8313C18.1721 8.14182 20.2861 5.66029 22.9491 5.38281C25.085 5.19198 27.2528 6.20371 28.121 8.24508L28.2068 8.45512C28.3234 8.73304 28.5054 9.23411 28.4353 9.53591C28.3695 9.81948 27.9423 10.0301 27.6731 9.95888L27.6465 9.95116C27.0797 9.79338 26.932 9.01152 26.6578 8.57137C25.32 6.4242 22.1541 6.17077 20.6558 8.22844C19.936 9.21711 19.7202 10.2727 20.1155 11.4635C20.3995 11.4233 20.6812 11.3342 20.9637 11.2816L22.6147 11.0545C28.0098 10.4985 33.9373 12.6338 36.803 17.4448C37.4381 18.511 38.1563 20.0588 37.1467 21.1512L37.8702 22.4121C38.2819 23.2034 38.6653 24.1083 38.855 24.9874L39.2357 26.8643C39.3954 27.6095 39.3266 28.4171 39.4003 29.1743C39.5518 29.3287 39.7236 29.414 39.8516 29.6059L40.0653 29.9537C40.2837 30.3663 40.2337 30.823 40.2501 31.2764L40.4789 37.7259C40.4866 37.9462 40.5258 38.2188 40.4662 38.4318L40.38 38.8075C39.9638 40.2978 39.0569 40.7254 37.7384 41.0986L36.2066 41.5037ZM23.1689 12.5017C21.6923 12.5684 20.1142 12.8994 18.7358 13.4242C15.9784 14.474 12.6119 17.1221 11.6971 20.0712C11.6415 20.2501 11.4815 20.7072 11.7348 20.8171C11.8533 20.7194 11.9366 20.572 12.0292 20.4497L12.3825 20.0289C14.865 17.1755 18.9838 15.2938 22.6896 14.9098C23.1995 14.8569 23.7269 14.8555 24.2394 14.8392C28.4485 14.8063 32.4017 16.1972 35.4646 19.1799C35.6902 19.3995 35.9122 19.69 36.1677 19.8667L36.2387 19.9178C36.2236 19.2444 35.843 18.6281 35.4979 18.0678C33.225 14.378 28.9675 12.5373 24.7502 12.456L23.1689 12.5017ZM23.5635 16.3345C17.529 16.6485 11.5741 20.7365 10.6154 26.955C10.5256 27.5375 10.3716 29.3667 10.5133 29.8875L24.4897 29.3966L37.9879 28.9215C37.9622 28.2692 37.938 27.6129 37.8433 26.9662C36.8378 20.1033 30.5598 16.0343 23.869 16.3136C23.7794 16.3173 23.6455 16.3083 23.5635 16.3345ZM10.1297 31.3759C9.6224 31.5479 9.77794 32.1297 9.79225 32.5482L9.86034 34.4948C9.86276 34.5643 9.85526 34.6432 9.88242 34.7077L38.6186 33.6847L38.9204 33.6845L38.8236 30.8448C38.8075 30.5066 38.6055 30.3657 38.27 30.3769L10.1297 31.3759ZM10.0012 36.1399L9.93598 36.1596C9.89616 36.4676 9.94356 36.8268 9.95461 37.138L10.0252 39.0671L39.0285 38.0345L39.0073 35.9821C38.9976 35.7143 39.0239 35.3711 38.9641 35.1133L10.0012 36.1399ZM12.0547 40.4292C11.7921 40.4428 11.4821 40.4295 11.2328 40.5184C11.9266 40.8064 13.3254 40.9501 14.0765 41.0572C15.69 41.2871 17.3413 41.4291 18.9714 41.4705L19.761 41.4728C19.9571 41.477 20.1433 41.5174 20.3396 41.519L27.2028 41.3274C27.3674 41.317 27.5291 41.2818 27.6938 41.2715L28.7642 41.2154C28.9648 41.1993 29.1531 41.1459 29.3538 41.1277L31.6802 40.863C33.1257 40.6642 34.5605 40.4129 35.9736 40.0445L37.7764 39.5618C37.4619 39.5064 37.1329 39.5393 36.8153 39.5502L12.0547 40.4292Z" fill="black"/>
</svg>
