<svg width="48" height="48" viewBox="0 0 48 48" fill="none" xmlns="http://www.w3.org/2000/svg">
<path d="M24.4569 38.9789L21.8516 38.9723L18.9257 38.7261L16.2535 38.3382C13.3287 37.7724 9.01276 36.5935 7.27496 33.9667C6.48939 32.7792 6.65678 31.8512 6.95842 30.562L7.27998 29.0851C7.528 27.9947 7.56948 27.5992 7.57032 26.4771L7.58382 23.6948C7.6015 23.2926 7.67331 22.8843 7.75084 22.489C8.89079 16.678 13.7088 12.901 19.3497 11.6621L20.3905 11.4631C20.7471 11.392 20.5813 11.4377 20.6678 11.0738C20.9713 9.79659 22.4051 9.16092 23.591 9.03206C25.2104 8.95055 27.1304 9.60839 27.359 11.4158C27.5961 11.4967 27.8925 11.5162 28.1415 11.5644L29.3603 11.8359C33.3914 12.8427 37.7717 15.8472 39.3866 19.7157C39.5795 20.1778 39.8021 20.6502 39.9201 21.1388L40.0768 21.7042C40.2507 22.3998 40.3858 23.1905 40.4049 23.9116L40.4072 26.4124C40.4072 26.7975 40.3795 27.2105 40.4312 27.5923C40.4835 27.9795 40.6045 28.344 40.6706 28.7222L41.0705 30.4246C41.2198 30.9388 41.3879 32.0516 41.2812 32.5125L41.2614 32.607C40.7908 35.9459 35.311 37.5656 32.4931 38.1661L30.9602 38.4749C29.5494 38.7085 28.1291 38.8343 26.7028 38.9168L24.4569 38.9789ZM23.6394 10.5061C23.2319 10.5812 22.8512 10.682 22.5147 10.9358L22.4827 10.9596C22.2012 11.1709 22.0296 11.4511 22.1132 11.8021L22.1229 11.8466C22.2855 12.4945 23.3538 12.7973 23.9363 12.8082L24.3335 12.7968L24.6259 12.7541C25.5031 12.6471 26.4834 11.6518 25.4087 10.8922L25.2294 10.7768C24.7671 10.4927 24.1642 10.4713 23.6394 10.5061ZM26.9434 12.9039C25.7669 14.4546 23.2239 14.7718 21.6831 13.5705C21.4583 13.3953 21.27 13.2 21.0828 12.9861C20.8468 12.7165 17.806 13.6367 17.4139 13.784C13.3074 15.3267 9.60521 18.7638 9.15779 23.3224C9.47832 23.5113 9.85262 23.6409 10.1972 23.783C11.5931 24.3585 13.3756 24.9807 14.8554 25.3552C15.3074 22.4353 16.11 19.8807 17.5151 17.2468L19.3479 14.1894C19.4943 13.9462 19.6231 13.6575 19.8515 13.4802L19.8765 13.4603C20.0092 13.3582 20.1662 13.3387 20.3285 13.3608L20.4317 13.3841C20.5239 13.4046 20.5839 13.4441 20.66 13.498L20.6888 13.5179C21.581 14.1574 20.0805 15.762 19.6803 16.4388C19.0447 17.5138 18.4291 18.6118 17.9293 19.7576L17.5307 20.7886C17.334 21.2971 17.141 21.8043 16.9894 22.3287L16.7288 23.3996C16.5781 23.9983 16.2957 25.1306 16.3126 25.752C16.5073 25.8276 16.7205 25.8712 16.927 25.9009C17.4752 26.0249 18.0324 26.0951 18.5861 26.1857L19.3155 26.2918C19.4736 26.3134 19.6337 26.3484 19.7937 26.3446C20.1107 23.783 23.0014 22.2042 25.4105 23.0388C26.8178 23.5263 27.9791 24.8925 28.2041 26.3728L29.9296 26.0929C30.4261 26.0092 30.9579 25.944 31.4413 25.8049L31.7449 25.7119C31.5167 23.9712 31.0994 22.2518 30.4367 20.6221L29.8564 19.3148C29.7494 19.0886 29.5807 18.8375 29.5253 18.5954C29.4361 18.2053 29.674 17.7755 30.0819 17.7128L30.115 17.7075C30.7115 17.6195 30.9027 18.1289 31.124 18.5738C31.4598 19.249 31.7487 19.9209 32.0167 20.6245L32.3625 21.6308C32.4526 21.8456 32.4918 22.0917 32.565 22.3133L33.0407 24.4994C33.1087 24.7661 33.1267 25.0623 33.1749 25.3347C33.7688 25.1993 34.3634 24.9997 34.9434 24.8138L37.1047 24.0819L38.8576 23.3354C38.7545 22.6879 38.6697 22.0639 38.4768 21.4336C36.9722 16.518 31.7901 13.5681 26.9434 12.9039ZM23.7957 24.3136C23.5274 24.3434 23.2861 24.3802 23.0301 24.4682C19.9472 25.5287 21.1069 30.2971 24.1582 29.9342C27.4732 29.7023 27.6226 24.741 24.4803 24.3483L24.2373 24.3176C24.1022 24.3015 23.9297 24.2921 23.7957 24.3136ZM9.03386 24.9253C8.92609 25.4937 8.98642 27.2095 9.02739 27.7891C10.2898 28.7573 12.7839 30.1483 14.3434 30.751L14.4063 29.6497C14.4159 29.4587 14.3929 29.2328 14.4423 29.0481C14.6173 28.3938 15.5059 28.4149 15.7974 28.9566L15.812 28.9819C15.9269 29.1944 15.8613 30.0837 15.8274 30.3472L15.7168 31.289C16.3399 31.505 16.9605 31.7144 17.603 31.8663L20.7438 32.351C21.2129 32.3894 21.6675 32.4475 22.1388 32.4514L24.977 32.4421L27.1734 32.2875C29.1196 32.119 30.4872 31.8711 32.2981 31.2324C32.2384 30.8456 32.0392 30.1449 32.2256 29.8145L32.2834 29.7254C32.6888 29.1237 33.4261 29.3513 33.5941 29.9878L33.6823 30.7603C35.239 30.0692 36.7733 29.2963 38.1901 28.3478C38.4497 28.1595 38.7734 27.975 38.9958 27.747L38.9917 27.7056C38.9663 27.44 38.9755 27.1701 38.9753 26.9034L38.9752 25.5961C38.9753 25.3976 39.0088 25.1313 38.9671 24.9399C37.507 25.5986 35.5771 26.2292 34.0525 26.6332C33.868 26.6821 33.6182 26.7825 33.4311 26.7919C33.2781 27.2187 32.93 27.6577 32.4257 27.4516L32.3816 27.4338C32.023 27.278 32.2344 27.1424 31.7563 27.2463L30.5741 27.493C29.8073 27.6365 29.0114 27.7778 28.2314 27.8075C28.1681 28.0633 28.0996 28.3235 28.0051 28.5698C26.6494 32.1024 22.0883 32.4081 20.2532 29.1863C20.039 28.8102 19.7976 28.2618 19.7699 27.8256C18.3891 27.7534 17.3192 27.4188 16.0325 27.2236L16.0089 27.2461C15.5937 27.6375 14.925 27.5935 14.7901 27.0277L14.7354 26.8404L11.0332 25.6885L9.24367 25.0038C9.18043 24.9776 9.10061 24.9342 9.03386 24.9253ZM8.70137 29.4019L8.30795 31.2782C8.1834 31.7707 8.06762 32.2042 8.27818 32.6934C8.73479 33.7545 9.76201 34.462 10.7494 34.9866C13.6359 36.5202 17.0163 37.089 20.2469 37.3454L21.6837 37.4525C21.8552 37.4651 22.0244 37.4932 22.1963 37.5L25.6324 37.4998L28.4042 37.3003C31.7237 36.9867 37.4776 35.9251 39.5317 33.1086C39.9854 32.3566 39.8482 31.8508 39.6827 31.0224L39.3148 29.3648C35.7213 31.9582 31.2588 33.5072 26.859 33.8141L25.0897 33.9285C23.9514 33.9916 22.7708 33.9943 21.6327 33.9245L21.0313 33.8613C18.7397 33.696 16.4992 33.2768 14.3823 32.3753L12.6044 31.5766C11.9594 31.2641 11.3147 30.9603 10.693 30.6022L9.24156 29.7377C9.12231 29.6644 8.83046 29.4166 8.70137 29.4019Z" fill="black"/>
</svg>
