<svg width="48" height="48" viewBox="0 0 48 48" fill="none" xmlns="http://www.w3.org/2000/svg">
<path d="M24.434 40.1959L9.87369 40.196C8.75084 40.1956 7.65167 39.3247 7.59481 38.1771L7.58984 33.4516C7.58998 32.7894 7.60892 32.3595 8.04195 31.8047C8.21459 31.5835 8.34608 31.6357 8.34594 31.3092L8.34861 26.0734C8.35264 25.6356 8.41184 25.2126 8.46523 24.7778L8.67228 23.3767C9.7325 17.7021 13.7674 13.3759 19.3129 11.8998C21.119 11.419 20.1142 11.8198 20.4875 10.7799C21.0408 9.23869 21.9167 8.34117 23.6411 8.11763L23.6423 8.11688C25.2355 7.99181 26.6089 8.82113 27.2811 10.2773L27.3752 10.5C27.5205 10.8715 27.5412 11.2236 27.56 11.6165L28.8863 11.926C32.8913 13.0751 35.853 15.4398 37.8755 19.0195L38.7955 21.2716L39.1956 22.6641C39.2907 22.9555 39.3206 23.2881 39.3755 23.5898L39.564 24.9492C39.6567 25.9869 39.6349 26.87 39.6346 27.9096L39.6312 31.4824C39.8382 31.7857 40.014 31.7385 40.2191 32.2617L40.25 32.3368C40.4517 32.8732 40.4036 33.4376 40.4041 33.9987L40.4048 37.3935C40.4042 38.5166 40.2867 39.5502 39.013 40.0243L38.7756 40.1068C38.2271 40.2658 37.6739 40.1959 37.1083 40.1962L24.434 40.1959ZM23.7571 9.45394C22.6808 9.58899 21.8586 10.332 21.7454 11.4202L24.3037 11.2939C24.6137 11.2931 24.9323 11.2806 25.2411 11.3055L25.8907 11.3606C26.0029 11.3726 26.1312 11.404 26.2428 11.3966C26.0723 10.2175 24.9447 9.32142 23.7571 9.45394ZM22.963 12.6366C16.2478 13.052 11.2697 17.1766 9.9388 23.8359L9.74905 25.0463C9.69692 25.4715 9.65192 25.8964 9.65112 26.3243L9.6387 31.01L25.0668 31.008L38.341 31.0081L38.3399 27.5043C38.3398 26.8869 38.367 26.2548 38.3266 25.6391C37.8589 18.5033 32.9907 13.5169 25.9261 12.7223L25.3034 12.6468C24.5705 12.591 23.807 12.6305 23.0711 12.6338L22.963 12.6366ZM29.924 32.337L28.4325 32.3383C28.1715 32.3387 27.8968 32.3214 27.6375 32.3497L27.6283 38.1575C27.6282 38.3814 27.6042 38.6271 27.6346 38.8478L30.0179 38.8408L32.3104 38.8507L32.3093 32.3474C32.0554 32.3112 31.769 32.3364 31.5117 32.3363L29.924 32.337ZM36.346 32.337L33.6316 32.3459L33.6192 38.8423L36.3871 38.8408L37.8205 38.8401C38.3351 38.8388 38.988 38.7962 39.0915 38.1111C39.1287 37.8653 39.1044 37.5853 39.1044 37.3351L39.1015 34.0495C39.1006 33.5271 39.2145 32.4016 38.4197 32.3422L36.346 32.337ZM9.52273 32.3406C9.22827 32.448 8.89784 32.7299 8.88116 33.0653L8.87731 37.4255C8.87825 38.2863 8.88284 38.8481 10.0142 38.8448L13.6996 38.8408L14.3045 38.8431L14.314 32.3405L9.52273 32.3406ZM15.6391 32.337L15.6186 38.8582L20.3186 38.8408L20.3192 32.3387L15.6391 32.337ZM21.6389 32.3375L21.6287 38.2034C21.6282 38.4154 21.6002 38.6535 21.6335 38.8609L26.264 38.8444L26.3238 32.8008C26.3236 32.6818 26.3494 32.4444 26.3064 32.3402L21.6389 32.3375Z" fill="black"/>
</svg>
