<svg width="48" height="48" viewBox="0 0 48 48" fill="none" xmlns="http://www.w3.org/2000/svg">
<path d="M24.762 46.478L10.7104 46.4784C9.39651 46.4753 8.1465 45.7931 7.6995 44.4939C7.56365 44.0991 7.53886 43.6941 7.50347 43.2811L6.50508 35.0806C6.32231 33.7483 7.26895 32.327 8.49412 31.8333C9.1304 31.5768 8.88825 31.8501 8.88895 30.7841L8.89097 26.7384C8.89134 26.0624 8.85347 25.3653 8.90147 24.6924L8.98364 23.9996C9.64617 18.6784 12.3483 14.7937 17.445 12.8017C17.9789 12.593 18.5764 12.3692 19.1398 12.2664L18.6819 11.5309C17.7637 9.95963 17.2584 8.22272 17.6583 6.40632C18.2644 3.65386 20.5147 1.6946 23.3542 1.51315C26.8552 1.31821 29.5635 3.01082 30.4104 6.59335C30.8965 8.64952 30.0422 10.5741 28.8436 12.2206L30.3086 12.7053C35.9081 14.821 39.1788 19.7704 39.1818 25.691L39.1716 31.7063C39.2527 31.7498 39.33 31.7663 39.4163 31.7956C40.6633 32.2183 41.4907 33.4993 41.5023 34.7916C41.5071 35.3296 41.417 35.842 41.3557 36.3736L40.5051 43.4056C40.3494 44.9761 39.6446 46.1464 37.9383 46.4578C37.5797 46.5232 37.1458 46.4783 36.7803 46.4784L24.762 46.478ZM23.8758 2.8465C23.5501 2.86399 23.2201 2.8673 22.8979 2.92028C21.0321 3.22709 19.3968 4.64305 19.005 6.52763L18.8827 7.09876C18.4819 8.72326 19.6662 10.6963 20.561 11.9587L20.5839 11.9536C21.0753 11.8473 21.9288 11.7584 22.4578 11.7297L24.2874 11.7189C24.8412 11.72 25.4283 11.6843 25.9773 11.7546L26.8409 11.854C27.0165 11.8786 27.3009 11.9658 27.4685 11.9304C28.1886 10.6302 29.1132 9.72516 29.234 8.10629C29.3439 6.6338 28.5641 4.90332 27.4535 3.96938C26.4783 3.14932 25.1325 2.77858 23.8758 2.8465ZM23.8834 13.0428C23.3357 13.0564 22.7836 13.0469 22.2373 13.09C18.9888 13.3461 15.8643 14.6047 13.5456 16.9304C11.9262 18.5546 10.95 20.6126 10.4853 22.8534L10.3142 23.9293C10.2613 24.4083 10.2034 24.8544 10.2013 25.3382L10.1991 31.5395L12.3753 31.4043C12.6027 31.3897 12.8268 31.3457 13.0565 31.3352L16.7486 31.2391C16.9576 31.2381 17.2047 31.2615 17.4075 31.2191L17.7064 31.1876C18.006 31.139 18.3252 31.1443 18.6285 31.1415L24.145 31.1366L37.8523 31.5202L37.8549 27.3812C37.8546 26.619 37.8892 25.8401 37.8484 25.0797C37.53 19.1508 33.8299 14.6494 27.9378 13.407C27.1641 13.2438 26.1702 13.096 25.3707 13.0744L23.8834 13.0428ZM22.0136 32.4799L19.0337 32.4827C18.7874 32.4895 18.5483 32.5441 18.2998 32.5486L14.5563 32.6145L13.6493 32.6914L10.4185 32.8793C9.37055 32.9476 8.4059 33.014 7.9455 34.1598L7.92801 34.2019C7.63481 34.9152 8.04075 36.653 8.13262 37.441L8.86026 43.5348C8.87934 43.6954 8.87475 43.8521 8.93437 44.0058L8.96597 44.0823C9.10336 44.4516 9.45103 44.7772 9.80719 44.9348L9.92967 44.9871C10.0923 45.0554 10.3627 45.0223 10.5375 45.0224L25.9807 45.0204L37.9024 45.0175C38.0112 45.0124 38.0959 44.9876 38.1956 44.9436L38.2344 44.9268C39.0706 44.5567 39.1366 43.82 39.2062 43.0255L39.9669 36.7145C40.0898 35.4699 40.5948 33.634 38.9505 33.0453C38.4944 32.882 37.9574 32.8959 37.4785 32.8605L33.2684 32.6184L29.5693 32.5495C29.3534 32.5437 29.1434 32.4903 28.9245 32.4858L22.0136 32.4799Z" fill="black"/>
<path d="M21.7726 41.9082C20.8424 41.993 20.9547 41.1117 20.9542 40.4868L20.9599 35.5041C20.9781 35.104 21.0924 34.8819 21.4878 34.7369C21.5713 34.7328 21.6505 34.7281 21.7322 34.7497L21.7616 34.758C21.9642 34.813 22.048 34.9062 22.1691 35.0646L22.2021 35.1053C22.2498 35.1808 22.2619 35.2804 22.2661 35.3681L22.2678 40.6619C22.2672 41.2337 22.3783 41.6252 21.7726 41.9082Z" fill="black"/>
<path d="M26.5256 41.9109C26.1462 41.9686 25.9374 41.8019 25.7689 41.4675L25.7459 41.4245C25.6743 41.2302 25.7103 40.9272 25.7099 40.7194L25.7134 35.3789C25.7174 35.2998 25.7275 35.2317 25.7661 35.1609L25.7824 35.1327C25.9029 34.9145 26.0363 34.8135 26.2686 34.7362C26.6233 34.7208 26.9587 34.9085 27.0163 35.2902L27.0197 35.3179C27.0724 35.7002 27.0454 36.1135 27.046 36.5003L27.0494 40.4491C27.0494 40.9895 27.1986 41.7034 26.5256 41.9109Z" fill="black"/>
<path d="M15.7715 41.9295C15.4539 42.0074 15.1588 41.7742 15.0345 41.4947C14.9674 41.3437 14.9807 35.3325 15.0366 35.2027C15.1326 34.9803 15.2857 34.8682 15.5013 34.7824C15.7766 34.7794 16.034 34.8134 16.1899 35.0809L16.2071 35.1117C16.3366 35.3409 16.2887 35.5844 16.2889 35.8373L16.2868 41.3022C16.2749 41.6018 16.048 41.8324 15.7715 41.9295Z" fill="black"/>
<path d="M32.4785 41.9327C32.0632 41.9421 31.7268 41.6911 31.7081 41.2423C31.6873 40.744 31.6765 35.3376 31.7244 35.2217C31.8179 34.9952 32.017 34.8648 32.2364 34.7843C33.2238 34.7434 32.9978 35.8856 32.9983 36.5352L32.9993 40.5307C33.0001 41.0923 33.1629 41.7154 32.4785 41.9327Z" fill="black"/>
<path d="M36.9618 41.8385C36.2343 41.7113 36.2901 41.169 36.2945 40.5476L36.2972 36.9008C36.2972 36.2358 36.0664 35.4462 36.9375 35.2773L37.0663 35.2912C37.2582 35.3326 37.4011 35.4408 37.5112 35.6009L37.5355 35.6372C37.6642 35.8246 37.6059 36.0854 37.6062 36.3006L37.6098 41.2387C37.6078 41.3107 37.6049 41.3872 37.5635 41.4487L37.4936 41.5487C37.3499 41.7438 37.192 41.8051 36.9618 41.8385Z" fill="black"/>
<path d="M11.1469 41.8115C10.87 41.8202 10.6951 41.7655 10.5305 41.5188L10.5059 41.4814C10.3308 41.2255 10.4051 40.9341 10.4049 40.639L10.4085 36.959C10.4089 36.659 10.319 35.9153 10.4731 35.6695L10.5517 35.5463C10.6718 35.3799 10.8381 35.3355 11.028 35.3018C11.6313 35.2748 11.7075 35.7775 11.7079 36.2171L11.7054 40.965C11.7059 41.4229 11.6201 41.642 11.1469 41.8115Z" fill="black"/>
</svg>
