<svg width="48" height="48" viewBox="0 0 48 48" fill="none" xmlns="http://www.w3.org/2000/svg">
<path d="M24.3863 44.2293L9.30291 44.2289C9.12839 44.2286 8.94051 44.2408 8.76891 44.2039L8.29453 44.1062C4.85855 43.1606 4.35645 38.7999 7.54861 37.0258C7.38755 36.7374 7.23783 36.4785 7.11731 36.1677C6.68184 35.0447 7.18233 33.6215 8.25141 33.0465C8.28975 33.0259 8.27995 33.0429 8.27784 32.9974L8.27817 28.4145C8.52216 21.4506 11.2504 14.5688 17.7958 11.284C18.4789 10.9412 19.1893 10.6687 19.907 10.4099C19.5518 9.8092 19.2526 9.21065 19.1484 8.5094C18.7384 5.75104 20.8564 3.37674 23.5327 3.03185C25.9281 2.93888 28.0446 4.28873 28.7222 6.61064C29.1132 7.95018 28.8197 9.24886 28.1574 10.4319L28.8579 10.6807C33.6926 12.6171 37.1145 16.7103 38.6248 21.6208C38.7176 21.9225 38.831 22.2314 38.8892 22.5426L38.9839 22.9161C39.0201 23.1188 39.0816 23.3264 39.1299 23.5276L39.3331 24.5808C39.4824 25.5187 39.576 26.4623 39.637 27.4098L39.729 32.0893C39.7283 32.6414 39.5597 32.8832 39.9449 33.148C41.2229 34.0267 41.3081 35.7713 40.4515 37.0084L40.6289 37.1173C41.7752 37.7349 42.0884 38.4699 42.477 39.586C42.6333 40.0348 42.6185 40.7338 42.5054 41.1949C42.1011 42.8423 40.9062 43.9293 39.228 44.2047C38.7772 44.2786 38.2603 44.229 37.8027 44.2291L24.3863 44.2293ZM23.6148 4.48274C21.8257 4.66847 20.054 6.54698 20.5612 8.37042L20.7137 8.95087C20.8308 9.3329 21.1329 9.74268 21.3927 10.043C22.4148 9.81136 23.4307 9.76842 24.4742 9.77006L25.7196 9.87942C26.0252 9.91884 26.3217 9.98489 26.6233 10.0441C27.1285 9.60037 27.4334 8.7592 27.4768 8.09976C27.6264 5.82525 25.7717 4.36257 23.6148 4.48274ZM23.5001 11.2339C19.9388 11.3677 16.6492 13.1789 14.2573 15.7577C12.5512 17.597 11.4116 19.8856 10.6649 22.2621C11.5539 21.7586 12.6588 21.5174 13.6617 21.7892L13.6988 21.7995C14.706 22.0747 15.3735 22.5868 16.0414 23.3519L16.058 23.3293C17.1804 21.8287 19.2573 21.3087 20.9864 21.9195C21.9546 22.2615 22.6771 22.9042 23.2795 23.7182C23.6577 23.1469 24.0702 22.7092 24.6611 22.3389C25.4439 21.8617 26.7549 21.4881 27.6793 21.7077L27.7536 21.7285C28.7598 22.0152 29.4462 22.2326 30.2089 23.0567C30.401 23.2642 30.5593 23.5017 30.7497 23.706L30.7597 23.6885C32.1722 21.2554 35.7814 20.9524 37.5763 23.1347C36.5489 19.0722 34.2362 15.3162 30.5831 13.1276C28.2263 11.7157 26.1821 11.2141 23.5001 11.2339ZM19.4325 23.1425C17.7997 23.2643 17.069 24.0582 16.6278 25.4983C18.8306 25.5977 18.1766 28.8781 16.1173 29.195L16.0018 29.2113C14.5163 29.4209 13.2989 27.6236 14.484 27.0682L14.5118 27.0547C14.6438 26.9962 14.7902 27.0419 14.9261 27.0124C14.9505 26.5622 15.0199 26.1137 15.1019 25.6701L15.2022 25.2334C15.2981 24.8487 14.9017 24.2414 14.6553 23.9708C13.7384 22.9643 11.6945 22.8096 10.861 24.0114L10.8364 24.0453C10.7688 24.1616 10.7773 24.3973 10.7699 24.5336L10.7492 26.1259C10.749 26.6499 10.8492 27.5196 10.2007 27.7369C9.66384 27.9167 9.70411 27.276 9.68766 28.0857L9.67617 32.5943C9.68058 32.6964 9.68901 32.8113 9.72769 32.9064L9.80283 33.0597C10.0832 33.6354 10.4714 33.749 11.0277 33.7496L35.0126 33.749C35.5611 33.749 37.1379 33.8722 37.5804 33.6237L37.6153 33.6034C37.8996 33.4402 38.0745 33.2633 38.2201 32.9686C38.3167 32.6887 38.3166 32.3609 38.3172 32.0664L38.3298 28.717C38.3324 28.5618 38.3109 28.4088 38.3157 28.2531C38.1688 28.6155 37.9565 28.9757 37.581 29.1365C37.1759 29.3099 36.715 29.1338 36.5595 28.7133C36.4357 28.3784 36.623 28.0933 36.7156 27.775C36.7892 27.5223 36.7674 27.2283 36.7682 26.9668L36.769 25.8626C36.7681 24.5985 36.7367 23.6517 35.1858 23.2334C33.6215 22.8116 31.9825 23.7621 31.5731 25.3249L31.5306 25.501C32.4869 25.5466 32.9193 25.7932 32.9699 26.8499C33.0885 29.3247 29.6385 30.2014 28.6805 27.7951C28.3959 27.0802 28.4327 25.9112 29.273 25.5783C29.8162 25.3631 30.0905 25.8281 29.7572 24.9897C28.7004 22.3313 24.6472 22.6118 24.051 25.48L24.0594 25.4983C24.4607 25.5256 24.8426 25.5021 25.1376 25.8362C25.8869 26.685 25.342 28.2464 24.4533 28.8489C22.8157 29.959 20.715 28.4004 21.0389 26.6484L21.0582 26.5638C21.1614 26.1373 21.3508 25.7586 21.773 25.5815L21.81 25.5655C22.0022 25.4901 22.25 25.5117 22.4547 25.5101C21.9471 24.0938 21.1291 23.0665 19.4325 23.1425ZM16.4839 26.9176L16.1597 27.6539C16.2616 27.562 16.7069 27.0486 16.4839 26.9176ZM23.9614 26.9176L23.9332 26.9288C23.5702 27.0194 23.161 26.9839 22.7891 26.978C22.4849 26.9732 22.3075 26.8946 22.5347 27.2997L22.5527 27.3323C22.5967 27.4109 22.646 27.4808 22.7016 27.5514C23.1029 27.8324 23.5728 27.8833 23.8755 27.4413L23.9489 27.3216C24.0128 27.2093 24.0097 27.0786 24.0149 26.9528L23.9614 26.9176ZM31.4609 26.9176L31.4298 26.9274C30.9979 27.0336 30.5299 26.9827 30.0892 26.9752C29.7397 26.9691 30.0769 27.4079 30.1905 27.5412C30.6598 27.8866 31.2049 27.8658 31.4588 27.2813L31.4707 27.2549C31.5109 27.1588 31.504 27.0438 31.5057 26.9411L31.4609 26.9176ZM9.00473 34.3239C8.80856 34.4428 8.62476 34.5889 8.51222 34.7926L8.49314 34.8265C7.98712 35.751 9.07701 36.7159 9.95616 36.7623C10.6621 36.7996 11.3866 36.7669 12.0941 36.7671L37.3049 36.7664C37.5987 36.7663 37.9363 36.7973 38.224 36.7444L38.4452 36.6854C38.7305 36.6005 38.9759 36.4438 39.1928 36.2445C39.6761 35.6913 39.8299 34.9318 39.1939 34.4192L39.0195 34.2983C38.6564 34.5479 38.3178 34.8005 37.8746 34.8789L37.8446 34.8848C37.5787 34.9354 37.289 34.8903 37.0191 34.8872L10.7479 34.8883C10.6071 34.8916 10.4639 34.9167 10.3238 34.9135C9.63136 34.8977 9.12211 34.3049 9.00473 34.3239ZM9.08526 38.1435C7.65741 38.2772 6.45727 39.5001 6.89175 40.9801L6.96591 41.224C7.31517 42.1329 8.26894 42.7662 9.23653 42.7666L36.9861 42.7663C37.678 42.7662 38.3858 42.796 39.0756 42.7565C39.467 42.7267 39.9035 42.5104 40.2158 42.2813C41.8746 41.0642 41.2758 38.2547 39.0816 38.2035C38.9085 38.1995 38.7347 38.2205 38.5616 38.2235L9.5738 38.2227C9.40401 38.2165 9.2633 38.136 9.08526 38.1435Z" fill="black"/>
<path d="M12.0798 41.9545C11.7287 41.9704 11.4147 41.7613 11.308 41.4181L11.286 41.3211C11.2494 41.1296 11.273 40.8983 11.2728 40.7028C11.2722 40.0893 11.1211 39.1867 11.9524 39.0762C12.2141 39.0774 12.5953 39.2438 12.6558 39.5267L12.6644 39.5739C12.7563 39.9687 12.7817 40.9218 12.6882 41.3368L12.681 41.3669C12.6115 41.6738 12.3795 41.8704 12.0798 41.9545Z" fill="black"/>
<path d="M18.0815 41.9551C17.1994 41.9998 17.273 41.071 17.2725 40.4818C17.272 39.8894 17.169 39.2296 17.931 39.0738C18.8561 39.0468 18.7033 40.1008 18.7061 40.7225C18.7085 41.2933 18.7432 41.7669 18.0815 41.9551Z" fill="black"/>
<path d="M24.0675 41.9595C23.262 41.9743 23.274 41.1675 23.2736 40.5635C23.273 39.954 23.158 39.2101 23.9609 39.0752C24.2492 39.0996 24.5221 39.1881 24.6259 39.4923C24.7278 39.7905 24.7704 41.2645 24.6383 41.5169C24.511 41.7603 24.3212 41.8779 24.0675 41.9595Z" fill="black"/>
<path d="M30.0722 41.9483C29.2113 42.0158 29.2721 41.0583 29.2717 40.4888C29.2715 40.224 29.2215 39.8182 29.3277 39.5741L29.3439 39.5388C29.4592 39.2794 29.648 39.1323 29.9327 39.0733C30.8193 39.0626 30.7183 40.0072 30.7208 40.6429C30.7232 41.2393 30.7597 41.7546 30.0722 41.9483Z" fill="black"/>
<path d="M36.0961 41.9401C35.7465 42.0056 35.463 41.7633 35.3427 41.4516L35.3119 41.3758C35.209 41.0991 35.2384 39.7708 35.3433 39.5353L35.3951 39.4238C35.4914 39.2509 35.7074 39.1222 35.8929 39.0743C37.1347 39.0154 36.7937 41.3607 36.6654 41.5055C36.4798 41.7149 36.3872 41.857 36.0961 41.9401Z" fill="black"/>
</svg>
