<svg width="48" height="48" viewBox="0 0 48 48" fill="none" xmlns="http://www.w3.org/2000/svg">
<path d="M24.3399 40.9211L9.61819 40.9229C9.15056 40.9228 8.71819 40.9398 8.26552 40.7999C6.654 40.3019 6.51947 39.098 6.51774 37.7182C6.51642 36.7043 6.42792 35.2322 7.5525 34.6807L7.58255 34.6665C7.74703 34.5866 7.70916 34.5593 7.7092 34.3927L7.70934 28.0366C7.71094 26.8584 7.80464 26.2676 8.98819 25.6933C8.98763 25.5711 8.94436 25.4451 8.93227 25.3222L8.87817 24.6032C8.83172 24.0234 8.87053 23.4305 8.91281 22.8514C9.34266 16.9606 13.5023 12.1242 19.0517 10.4136L20.067 10.1445C20.2729 10.0972 20.4803 10.0415 20.6917 10.0273L20.7236 10.0255C20.9346 8.39833 22.0381 7.1657 23.7329 7.04092C24.9894 6.83036 26.5594 7.78764 27.0131 8.97259L27.0939 9.19905C27.4732 10.1842 26.8003 9.95491 27.9634 10.1872C32.381 11.0693 36.3745 14.4247 38.0704 18.6031C38.9192 20.6945 39.3504 23.066 39.0924 25.3123C39.0782 25.4359 39.0432 25.5635 39.0461 25.6878L39.3541 25.8439C39.7524 26.0927 40.1205 26.5423 40.2211 27.01L40.2302 27.0584C40.3032 27.3587 40.2834 27.6847 40.2841 27.9928L40.2832 33.8001C40.2817 34.53 40.0868 34.3861 40.5101 34.7043C41.2579 35.2663 41.4753 36.032 41.4778 36.9299L41.4777 37.9107C41.477 38.2398 41.5076 38.6046 41.4455 38.9267L41.4378 38.9647C41.252 39.9707 40.3755 40.7213 39.3855 40.8863C38.8832 40.9699 38.3253 40.9225 37.816 40.9224L24.3399 40.9211ZM23.8411 8.51612C23.1645 8.59422 22.2081 9.22605 22.1997 9.97412L24.2093 9.98078L25.7889 9.97159C25.5075 9.08233 24.8503 8.41848 23.8411 8.51612ZM25.2885 11.4891C22.8668 11.5833 20.507 12.7553 18.8675 14.5194C17.0656 16.4583 16.4321 18.7355 16.1187 21.2694C16.0599 21.7442 16.1197 22.2354 16.0571 22.7089C15.9658 23.4008 14.6224 23.8412 14.6207 22.2715L14.6235 21.6416C14.6633 18.1499 16.4316 14.2411 19.24 12.1519C19.4231 12.0157 19.6253 11.9037 19.8037 11.7627C18.862 12.054 17.9461 12.3922 17.0734 12.8541C13.8644 14.5525 11.685 17.4315 10.7298 20.9295C10.6748 21.1313 10.6049 21.3485 10.5859 21.5574L10.5069 21.931C10.2925 23.0687 10.239 24.3742 10.4319 25.5099L17.1862 25.5164C18.9673 25.5165 37.5073 25.5512 37.5957 25.4953C37.7284 24.5364 37.7013 23.5727 37.595 22.6128L37.3957 21.3614C36.8799 18.8956 35.667 16.8489 33.9084 15.0892C31.5058 12.6853 28.6586 11.4576 25.2885 11.4891ZM9.93563 26.9815C9.84563 26.9891 9.69141 26.9762 9.61158 27.0154L9.53564 27.0659C9.11756 27.3414 9.18586 27.5476 9.18563 27.9935L9.18558 34.2449L38.0225 34.2186C38.2721 34.2455 38.5528 34.2783 38.7967 34.2447L38.7981 28.0123C38.7989 27.635 38.8798 27.4722 38.593 27.1858L38.4387 27.0525C38.3657 26.9981 38.2983 26.9903 38.2091 26.9866L9.93563 26.9815ZM19.2214 35.7319L19.0175 35.7433C18.9776 35.9593 18.9989 36.2076 18.9986 36.4279L18.9969 38.785C18.9967 38.9928 18.9796 39.2139 19.0107 39.4192L22.6934 39.4178L22.8946 39.3913L22.8945 36.8943C22.8944 36.5211 22.9322 36.1041 22.8849 35.738L19.2214 35.7319ZM27.2645 35.7334L27.2551 38.0015C27.2552 38.4702 27.2244 38.9614 27.2742 39.426L28.6599 39.4184C28.7327 39.4185 28.9954 39.4402 29.0432 39.4049L29.0494 36.1232C29.0479 36 29.0603 35.8515 29.0316 35.7322L27.2645 35.7334ZM8.91989 35.7431L8.75813 35.7683C7.93088 35.8779 7.96861 36.6542 7.96847 37.2404C7.96828 37.9042 7.809 39.3305 8.82427 39.4092L13.7051 39.4178L14.585 39.4155L14.5792 36.2139C14.5792 36.0637 14.5963 35.8919 14.571 35.7443L8.91989 35.7431ZM16.0569 35.7471C16.0158 36.022 16.0283 36.2972 16.0282 36.5668L16.0294 38.8779C16.0298 39.0568 16.0165 39.2441 16.0413 39.421L17.5492 39.4208L17.5503 35.7464L16.0569 35.7471ZM24.3689 35.7431C24.3183 36.5192 24.349 37.3139 24.3493 38.0933L24.35 38.9337C24.3503 39.0935 24.3395 39.2597 24.3634 39.4179L25.8297 39.4232L25.8213 35.748L24.3689 35.7431ZM30.4961 35.7431C30.4516 36.4877 30.4847 37.2489 30.4843 37.9955L30.4831 38.8955C30.4828 39.0748 30.4718 39.2562 30.4947 39.4343L32.026 39.4178L32.0146 36.2534C32.0137 36.0851 32.0225 35.9104 32.0008 35.7435L30.4961 35.7431ZM33.5028 35.7474C33.4233 36.2617 33.4669 36.8227 33.467 37.3366L33.4717 39.4212L38.5837 39.4157C39.0366 39.4149 39.3293 39.4408 39.698 39.1352C40.0718 38.7249 40.0095 38.3797 40.0104 37.8566C40.0116 37.1614 40.197 36.2127 39.4688 35.8108L39.4336 35.7899C39.3435 35.7448 39.2222 35.7482 39.1233 35.7457L33.5028 35.7474Z" fill="black"/>
</svg>
