<svg width="48" height="48" viewBox="0 0 48 48" fill="none" xmlns="http://www.w3.org/2000/svg">
<path d="M24.8408 41.2161L12.9826 41.6374C12.4436 41.6564 11.8818 41.7115 11.3452 41.6499C9.67414 41.4581 8.12082 40.1194 7.76198 38.4634L7.21938 38.4375C5.66904 38.378 4.25487 37.0822 3.95508 35.5762C3.5183 33.3819 5.14436 31.2757 7.36105 31.1836L8.18984 31.1535C8.27726 30.3143 8.10125 29.1751 8.12612 28.2764C8.13014 28.1313 8.16741 27.9945 8.17277 27.8513L8.19621 26.8355C8.48974 22.0415 9.98508 17.0841 13.5904 13.7356L14.8608 12.6452C16.141 11.5385 16.0784 11.5551 17.8035 11.297C18.4691 11.1974 18.9474 11.1577 19.6331 11.1349C19.5613 8.85163 20.8252 6.98151 23.2332 6.73529C25.3575 6.48539 27.8328 8.58037 27.3723 10.8239C27.6966 10.874 28.0723 10.83 28.4016 10.8213C29.3615 10.7957 30.6386 10.816 31.4551 11.4128C31.7869 11.6553 32.2585 12.218 32.6374 12.5479L34.1946 13.8309C36.1796 15.5998 37.2186 17.1415 38.3133 19.4916L39.2025 21.9523L39.5442 23.2538C39.5952 23.4098 39.6069 23.5658 39.6442 23.723L39.8703 24.9293L40.2396 27.7756C40.2937 28.5388 40.3759 29.2203 40.4096 30.0091C40.7704 29.9963 41.1448 29.9629 41.5045 29.9775C43.0591 30.0408 44.6415 31.4258 44.8413 32.9987C45.1157 35.159 43.797 36.9917 41.6464 37.2524C41.6264 37.3177 41.6111 37.3862 41.6025 37.454C41.4088 38.9795 40.0991 40.2963 38.6301 40.6458C37.9998 40.7958 37.3153 40.7744 36.6693 40.7968L24.8408 41.2161ZM23.3633 8.1832C21.9657 8.38387 20.9095 9.49039 21.0925 10.9475C21.0985 10.9958 21.1154 11.0401 21.1367 11.0836L23.6035 10.9919L24.9902 10.9417C25.4828 10.9233 25.6604 11.0663 25.8901 10.603C26.1161 10.1469 25.746 9.4516 25.4692 9.08854L25.4418 9.05229C24.9941 8.46309 24.1033 8.11275 23.3633 8.1832ZM23.3192 12.4326C22.9283 12.4447 22.5289 12.5375 22.1573 12.6542C18.187 13.9018 16.0119 18.9294 15.4886 22.7763L15.3645 24.1901C15.3511 24.4314 15.3293 24.6639 15.3336 24.907L15.3524 25.5569C15.3568 25.6989 15.3716 25.8437 15.3368 25.9828L15.3305 26.0085C15.1622 26.6097 14.2946 26.7178 13.9614 26.0537C13.9021 25.9355 13.9276 25.666 13.9232 25.5315L13.8988 24.6892C13.8867 24.221 13.9286 23.7356 13.9669 23.2683C14.3093 19.0993 15.9963 15.3942 19.1635 12.6355C18.6459 12.6439 18.1447 12.7248 17.6354 12.8082C16.9204 12.9252 16.6578 12.9698 16.1139 13.4467L15.4767 14.0077C15.0538 14.3816 14.6169 14.7353 14.2233 15.1418C11.724 17.7226 10.1858 21.483 9.82142 25.0544L9.62756 27.2744C9.59627 27.8381 9.571 28.4599 9.58085 29.0235L9.62442 30.5034C9.65184 31.268 9.50772 31.1087 10.3395 31.0789L11.5813 31.0335L38.9701 30.0381C38.9277 29.655 38.9435 29.2643 38.9087 28.8798L38.5366 25.6943L38.1241 23.6067C37.3603 20.2149 35.7578 16.9603 33.0135 14.7448L31.4068 13.4025C30.3926 12.4942 30.5608 12.3353 29.039 12.2918L27.4875 12.298C27.9797 12.6381 30.0577 14.4299 30.1725 15.0293C30.2928 15.6568 29.5852 16.1947 29.0485 15.764C28.8451 15.6007 28.6955 15.3831 28.5249 15.1882L27.9621 14.5809C26.6504 13.2128 25.237 12.3219 23.3192 12.4326ZM7.4115 32.6018C4.857 32.9534 4.63315 36.1845 6.92573 36.9104C7.29464 37.0272 7.59211 36.9884 7.97751 36.9748L40.3674 35.8282C40.5049 35.8234 41.3166 35.8207 41.3771 35.7886C42.5801 35.683 43.5711 34.6787 43.431 33.4414C43.3131 32.4008 42.4576 31.4759 41.3866 31.3987C41.0411 31.3738 40.6589 31.4201 40.3115 31.4324L7.4115 32.6018ZM9.46186 38.3617L9.28345 38.395C9.30234 38.541 9.40966 38.6982 9.48636 38.8217C10.4049 40.3003 11.4638 40.2353 12.928 40.1839L36.1627 39.3594C37.4117 39.316 38.3967 39.4755 39.4067 38.5847C39.771 38.2 39.9854 37.8205 40.139 37.3138C39.5539 37.28 38.9738 37.3104 38.3886 37.3307L9.46186 38.3617Z" fill="black"/>
<path d="M31.6995 20.6741C30.9271 20.8684 30.7403 20.1709 30.5962 19.5625L30.0913 17.9831C29.8749 17.4334 29.7722 17.0572 30.4347 16.7549C31.0452 16.6549 31.3356 17.0835 31.5087 17.6215L32.0509 19.2994C32.251 19.8677 32.3128 20.3823 31.6995 20.6741Z" fill="black"/>
<path d="M32.2078 25.8853C31.4992 25.9716 31.3634 25.479 31.3409 24.9453L31.2732 23.0199C31.2548 22.4408 31.2235 21.9869 31.8902 21.8117C32.7346 21.7697 32.675 22.4242 32.6925 22.9548L32.7696 25.2166C32.775 25.5783 32.5379 25.7611 32.2078 25.8853Z" fill="black"/>
</svg>
