<svg width="48" height="48" viewBox="0 0 48 48" fill="none" xmlns="http://www.w3.org/2000/svg">
<path d="M21.4336 42.9844L10.4731 42.9943C9.42553 43.0038 8.436 42.4278 8.1886 41.3527C8.14275 41.1536 8.16169 40.9068 8.1608 40.7021L8.15855 39.541C8.06311 39.4924 7.95689 39.4796 7.85489 39.4526C7.25766 39.2947 6.73463 38.6459 6.56363 38.0822L6.55322 38.047C6.3616 37.4126 6.46875 36.6787 6.4695 36.0237L6.47147 35.1167C6.47541 33.9772 7.1986 32.9686 8.34408 32.728C8.66475 32.6607 9.06605 32.7011 9.39605 32.7057C9.42408 32.6003 9.41583 32.4853 9.42619 32.377L9.49632 31.0944C9.99985 26.0855 11.7854 21.1909 15.7647 17.8722C16.6788 17.1098 17.665 16.5053 18.6968 15.9193C18.3782 15.2296 18.4035 14.572 18.9301 13.9634L18.9564 13.9332C18.4549 13.6161 17.8519 13.2926 17.5153 12.7825C16.5735 11.3553 17.2398 9.51598 18.9258 9.14519C19.1721 9.09101 19.4271 9.08332 19.678 9.06499C19.3981 7.75179 19.8035 6.48523 21.1834 6.05857L21.3443 6.01376C22.151 5.85101 22.8179 6.10708 23.485 6.54832L23.8012 6.10423C24.2932 5.50207 24.9916 5.03379 25.7772 4.95504C26.8263 4.80316 27.692 5.56123 28.1415 6.44969L28.3136 6.85544C28.5612 7.49369 28.5242 8.30309 28.3542 8.95343C28.402 8.98844 28.4862 8.99693 28.5438 9.0116L28.9549 9.12668C30.1568 9.51738 31.2608 10.7571 30.9038 12.0931L30.8808 12.1796C30.6502 13.0549 30.0157 13.6322 29.1439 13.8908L29.1182 13.8982C29.4031 14.3593 29.745 14.9547 29.6249 15.5156C29.6151 15.5614 29.5679 15.6704 29.5713 15.7101C29.5786 15.7953 30.7704 16.6157 30.9409 16.7412C33.4347 18.5778 35.5356 21.2174 36.7505 24.082L37.6724 26.6163C37.7732 27.0514 37.9086 27.5094 38.0171 27.9492L38.3439 29.7656C38.522 30.7332 38.6363 31.7365 38.7011 32.7188C39.0278 32.7372 39.3654 32.6688 39.6914 32.7292C40.4118 32.8628 41.3893 33.8078 41.4966 34.5503C41.5327 34.8003 41.5257 35.067 41.5264 35.3192L41.527 37.2433C41.5267 37.4536 41.5368 37.6693 41.4951 37.8764L41.468 38.0183C41.317 38.7932 40.5706 39.3526 39.84 39.5186C39.7761 40.286 40.0055 41.2038 39.59 41.8915C39.057 42.7737 38.3495 42.9839 37.4009 42.9856L21.4336 42.9844ZM25.8008 6.28502C25.6852 6.32144 25.5775 6.35862 25.4687 6.41304L25.4343 6.42987C24.6626 6.8194 24.0653 8.52757 23.2189 7.98044C22.8772 7.75957 22.5284 7.48005 22.1367 7.35949L22.0963 7.3466C21.6066 7.19468 21.0585 7.50682 20.91 7.99216C20.5753 9.08571 22.1792 9.59341 22.2906 10.3242L22.2963 10.3573C22.3183 10.4951 22.2975 10.6102 22.2305 10.7316L22.216 10.7583C21.7237 11.6254 20.1874 10.1854 19.1947 10.4695L19.1567 10.4799C18.7596 10.5935 18.2925 11.0793 18.3896 11.5312L18.3963 11.5642C18.6247 12.6138 20.0483 12.7568 20.5733 13.2266C21.3803 13.9487 19.6919 14.5212 19.8332 15.2109C19.8575 15.3293 19.9698 15.4381 20.0713 15.4955L20.1923 15.5521C20.474 15.5929 20.7347 15.5271 21.0118 15.4998L22.2715 15.3871C23.1876 15.3257 24.125 15.3221 25.043 15.352L27.5544 15.6059C27.6747 15.619 27.7947 15.6454 27.9142 15.6167L27.9401 15.6108C29.0055 15.3527 27.5086 14.2973 27.3447 13.899L27.3324 13.8696C26.9275 12.8343 29.4481 12.9051 29.6257 11.7304L29.6311 11.699C29.6736 11.432 29.5249 11.1502 29.3691 10.9415C28.7 10.0455 27.3705 10.467 26.9489 9.92276C26.5828 9.45012 27.1865 8.50643 27.184 7.8889C27.181 7.1374 26.6278 6.22437 25.8008 6.28502ZM23.0924 16.6721L21.1676 16.8396C20.7626 16.9112 20.2073 16.9136 19.8001 16.8488L18.6235 17.4996C15.1081 19.5108 12.589 23.2446 11.5419 27.127L11.1349 28.8232L33.8229 28.824L36.8369 28.7773C36.7838 28.5896 36.7588 28.3893 36.7148 28.1983L36.3354 26.7873C35.3591 23.7252 33.627 20.7213 31.1647 18.6046C30.4028 17.9495 29.551 17.4225 28.7578 16.808L28.74 16.8206C28.4623 17.0117 28.0105 16.9506 27.6867 16.9519L27.7146 16.9829C27.9249 17.2322 28.7311 18.9659 28.8664 19.3102L29.5793 21.0469L30.0367 22.5018C30.2697 23.2625 29.1972 23.7404 28.8233 22.9213C28.694 22.638 28.6052 22.3209 28.5083 22.0249L28.0816 20.845C27.6031 19.6423 27.004 18.4999 26.3979 17.3589C25.9874 16.5858 26.209 16.6768 25.3127 16.6733L23.0924 16.6721ZM12.833 30.1462L10.9411 30.1562C10.8822 30.4446 10.8766 30.7603 10.8503 31.0547L10.7828 31.582C10.7495 31.9474 10.7359 32.3356 10.7386 32.7032L35.291 32.6997L37.3747 32.6947L37.1519 30.6487C37.132 30.5026 37.1383 30.2645 37.0598 30.1457L12.833 30.1462ZM8.95664 34.0381L8.70816 34.059C8.63035 34.0669 8.55947 34.0862 8.48438 34.1072L8.45063 34.1162C7.82949 34.2903 7.76002 34.8027 7.75941 35.3345L7.76185 37.1975C7.76339 37.6148 7.85724 38.2039 8.40235 38.2585L14.1141 38.2659L15.2103 38.2634L15.208 34.0554L8.95664 34.0381ZM18.3827 34.0374L16.5307 34.0511L16.5316 37.9236C16.5416 38.4183 16.5293 38.2691 17.08 38.2678L18.5566 38.2659L19.6922 38.2639C19.9125 38.2635 20.1387 38.2742 20.3575 38.2509L20.3549 35.4026C20.3549 34.9637 20.3949 34.4794 20.3457 34.0449L18.3827 34.0374ZM23.0745 34.0378L21.658 34.051L21.6565 38.2662L24.7793 38.2659L26.0501 38.2683C26.0957 38.2096 26.0729 34.4468 26.0743 34.0536C25.719 34.0171 25.3498 34.037 24.9927 34.0369L23.0745 34.0378ZM28.2831 34.0376L27.617 34.043C27.5599 34.0435 27.4097 34.0288 27.3739 34.0617L27.3639 38.2633L30.3464 38.2659L31.1574 38.2536L31.1481 34.0545C30.8132 34.0146 30.4557 34.038 30.1181 34.0377L28.2831 34.0376ZM32.7142 34.0391L32.4627 34.0537C32.4446 34.384 32.4266 38.1824 32.4739 38.2687L39.5031 38.2644C39.5933 38.2602 39.6608 38.2456 39.7383 38.2004L39.8442 38.1383C40.0363 37.9639 40.2018 37.8092 40.2145 37.5343L40.222 35.8565C40.2228 35.1521 40.3469 34.339 39.4805 34.0792L39.4531 34.0704C39.2289 34.0032 38.9318 34.0366 38.6967 34.0364L32.7142 34.0391ZM12.6637 39.5203L9.47958 39.5267C9.44166 40.006 9.37355 41.0699 9.68724 41.4056L9.8626 41.5471C9.96085 41.6208 10.0247 41.6389 10.1463 41.6447L35.4023 41.645L37.5286 41.6446C37.7209 41.6441 37.8969 41.6614 38.0742 41.5737L38.1127 41.5552C38.2675 41.4784 38.378 41.3665 38.4603 41.2148L38.4751 41.1889C38.5841 40.9862 38.526 39.8358 38.5253 39.5299L12.6637 39.5203Z" fill="black"/>
</svg>
