<svg width="48" height="48" viewBox="0 0 48 48" fill="none" xmlns="http://www.w3.org/2000/svg">
<path d="M25.435 39.1999L24.2354 37.529C23.587 38.0996 22.972 38.7334 22.372 39.3544C21.1677 40.601 21.0788 40.7626 19.1379 40.759C17.4326 40.7559 15.7672 40.45 14.3086 39.529C12.9109 38.6465 13.6238 36.9924 13.8478 35.7062L14.799 30.734C14.8985 30.0845 14.9011 29.4471 14.9456 28.7943L15.0355 27.2861C15.0507 27.0678 15.0918 26.8534 15.1004 26.6341L15.1136 25.4062C15.1429 24.2658 15.1657 23.9143 14.9365 22.7525L9.65869 34.8984C9.11841 36.1518 8.87766 37.0109 7.28959 37.368L6.94257 37.418C5.6453 37.5327 4.18209 37.0022 3.02261 36.467C1.15135 35.6032 1.5497 34.8774 2.33556 33.1534L11.1915 12.7876C11.6906 11.5781 12.0499 10.4114 13.6585 10.2832C14.0239 10.2541 14.3918 10.2857 14.7577 10.2684C16.5469 10.1842 18.0807 9.14034 19.3254 7.92773C20.0096 7.26108 19.7426 7.22817 20.8718 7.20703L27.0579 7.2052C28.248 7.2029 27.9276 7.22442 28.7918 8.03428C30.0009 9.16729 31.4236 10.1669 33.1289 10.2523C33.7348 10.2825 34.3706 10.1815 34.9454 10.405C35.9277 10.7869 36.3082 11.5353 36.6712 12.4505L45.1067 31.8876C45.2883 32.2432 45.4191 32.6361 45.5797 33.0029L46.0401 34.0474C46.2092 34.4614 46.3553 34.8936 46.2309 35.3455C45.8739 36.6427 42.3016 37.4671 41.1573 37.4131C40.9958 37.4055 40.823 37.4068 40.6668 37.3612L40.4766 37.308C39.0056 36.8458 38.6712 35.7618 38.1259 34.4791L33.2599 23.2031C33.2026 23.068 33.155 22.9234 33.0871 22.7934C32.7469 23.8073 32.8445 24.773 32.8832 25.8047L32.9195 27.0469C32.9308 27.2135 32.9654 27.378 32.9741 27.5457L32.9973 28.711C33.0163 29.0787 33.0559 29.7028 33.101 30.0535L33.8843 34.3888C33.9727 34.8138 34.0316 35.2489 34.1255 35.6719L34.4171 37.207C34.4836 37.5468 34.614 37.9731 34.5373 38.3204L34.5313 38.3466C34.1363 40.3297 30.3664 40.7574 28.7969 40.7595C27.0742 40.7617 26.476 40.4973 25.435 39.1999ZM25.234 8.64478L21.2625 8.6849C21.4007 8.97675 21.4874 9.33379 21.5829 9.64453L21.8571 10.4941C21.9331 10.7211 21.9956 10.957 22.0802 11.1797L23.0079 13.9908C23.0734 14.1585 23.1197 14.3373 23.18 14.5078L23.5793 15.668C23.6095 15.7501 23.6256 15.8402 23.6604 15.9199L23.7669 16.2656C23.9794 16.836 23.9156 17.1902 24.177 16.3912L25.8996 11.1445C26.1727 10.323 26.3949 9.4425 26.7697 8.66231C26.2685 8.60658 25.7385 8.64272 25.234 8.64478ZM28.0234 9.29297L26.1575 14.8711L24.6295 20.0156L23.9988 22.6289C23.6785 23.9966 23.6955 24.5031 23.6948 25.9021L23.6956 31.0486C23.6962 31.9553 23.7316 32.9497 24.0389 33.8166L24.7807 35.6895C25.2796 36.7379 26.0872 37.7566 26.8655 38.6082C27.6359 39.4512 27.8953 39.3044 29.0602 39.2967C29.5537 39.2934 30.0521 39.2581 30.5391 39.1722C31.3057 39.037 32.5763 38.7174 33.1309 38.104C33.1175 37.781 33.0219 37.4755 32.9597 37.1602L31.7175 30.4836C31.6523 30.0705 31.6192 29.6146 31.6118 29.1952L31.4327 25.9468L31.42 24.7812C31.4186 23.4003 31.5635 22.7343 31.9922 21.3799L32.23 20.6806C32.3435 20.359 32.4661 19.9657 32.8569 19.8999L32.9124 19.8911C33.4577 19.8088 33.6259 20.3617 33.7745 20.7656L34.013 21.3451L35.9349 25.7771C35.9887 25.9016 36.0554 26.0249 36.0987 26.1533L39.9607 35.1104C40.0647 35.36 40.2617 35.5767 40.4883 35.7204L40.5212 35.742C41.4872 36.3699 43.9355 35.4441 44.8373 34.8958C44.7097 34.5041 44.5276 34.1285 44.3622 33.7516L35.478 13.2902C35.0724 12.3136 35.0771 11.7213 33.8675 11.7235L33.1165 11.7219C31.8367 11.6857 30.4454 11.1057 29.4076 10.3986C29.2302 10.2777 28.0705 9.30136 28.0234 9.29297ZM19.9593 9.30708C18.2622 10.8286 16.5191 11.7535 14.2229 11.7315C13.7272 11.7267 13.29 11.7131 12.9864 12.1992L7.41048 24.9667L3.38291 34.3183C3.31067 34.4848 3.19264 34.6838 3.15975 34.8579C3.88378 35.4326 5.94849 36.0831 6.75901 35.9892L7.11999 35.9095C7.97391 35.6974 8.21377 34.6565 8.51373 33.964L14.0258 21.2282L14.3222 20.5321C14.4856 20.1365 14.7342 19.6755 15.2898 19.9361C15.4952 20.0324 15.5793 20.1977 15.6491 20.4016L16.3496 22.6147C16.517 23.1292 16.5579 23.7524 16.5715 24.293L16.5575 25.959L16.3884 28.4156C16.3565 29.1245 16.3553 29.8338 16.2639 30.5391C16.1225 31.6319 15.8791 32.7116 15.6648 33.7916L14.9621 37.4343C14.8944 37.7965 14.7493 38.0708 15.0934 38.3061C16.2566 39.1016 17.7312 39.2962 19.1068 39.2988C20.4209 39.3014 20.3441 39.3761 21.1892 38.5048L22.598 37.0728C22.8681 36.803 23.1445 36.4829 23.4648 36.2741C22.5506 34.3658 22.2608 32.9283 22.2599 30.8679L22.2604 26.1693C22.261 25.1043 22.2523 24.089 22.4408 23.0392L23.1827 19.8633C23.2997 19.3889 23.335 19.2926 23.1691 18.8468L20.1751 9.96867C20.1004 9.74883 20.0423 9.52387 19.9593 9.30708Z" fill="black"/>
<path d="M25.3162 27.7329L25.0773 27.7259C24.6961 27.6791 24.3329 27.2457 24.4111 26.855L24.4178 26.8247C24.4913 26.4844 24.7524 26.3233 25.0804 26.2552C26.0947 26.2088 26.2971 27.4528 25.3162 27.7329Z" fill="black"/>
<path d="M25.3198 30.7353C24.9593 30.7692 24.5743 30.6337 24.4681 30.2473L24.4603 30.2175C24.4142 30.0598 24.4016 29.926 24.4542 29.7672L24.5022 29.6422C24.625 29.4106 24.8402 29.3182 25.0783 29.2528C26.0648 29.1963 26.3054 30.4607 25.3198 30.7353Z" fill="black"/>
</svg>
