<svg width="48" height="48" viewBox="0 0 48 48" fill="none" xmlns="http://www.w3.org/2000/svg">
<path d="M26.0743 43.4793L22.7999 43.4796C22.2566 43.4794 21.6892 43.5133 21.1483 43.4733C19.7205 43.368 18.3054 42.9119 16.9058 42.6312L15.556 42.3928C14.0201 42.1511 12.7097 41.728 12.4337 39.9044C12.3627 39.4354 12.5172 38.9723 12.6277 38.5222L14.6113 30.4551C14.821 29.6354 15.2594 27.7757 14.9668 26.9917L13.681 23.3054C13.5916 23.592 13.4082 23.8829 13.2801 24.156C12.7128 25.3651 12.0608 26.5382 11.5558 27.7765L10.6888 29.9292C9.67473 32.6866 8.7618 35.7562 8.34016 38.676L7.97744 41.5087L7.89939 42.7495C7.82439 43.5219 7.18084 43.4813 6.60592 43.4799C5.96608 43.4784 3.47929 43.5135 3.05699 42.9614C2.86656 42.7124 2.9971 41.5838 3.01993 41.2361L3.20282 38.5649L3.86994 32.6831L4.55177 28.6402L6.4337 20.6384C7.32784 17.2835 8.31086 13.9436 9.75386 10.7775L10.1328 9.93529C10.5583 8.92748 10.5535 8.88042 11.6837 8.62425L14.5729 8.03568C15.0662 7.9372 15.5485 7.82911 16.0496 7.77229L16.1445 7.64953C16.9017 6.63047 19.1023 5.32411 20.2209 4.90968C20.7539 4.7122 21.2984 4.61221 21.8589 4.53173L25.5062 4.51562C27.7751 4.51983 30.131 5.86162 31.6764 7.44787C32.2126 7.99832 31.9369 7.73915 32.7306 7.89506L36.1507 8.58965C37.2505 8.84681 37.3789 8.73164 37.7724 9.7949L39.0132 13.005L41.0767 19.0831L41.8907 21.9784C41.912 22.0935 41.9589 22.1969 41.9829 22.3112L42.9747 26.5026C43.0035 26.6085 43.0077 26.7176 43.0314 26.8237L44.0079 32.5583L45.0044 41.5191C45.0474 41.8969 45.2038 42.4436 44.9986 42.7814C44.548 43.5227 42.4863 43.4808 41.613 43.4763C41.2745 43.4745 40.819 43.5142 40.5235 43.3384L40.4728 43.3086C40.1269 43.0907 40.1204 42.684 40.0655 42.3232L39.5877 39.8902C38.8746 36.4412 37.9576 33.0491 36.7178 29.7495L35.1717 25.9603C34.8668 25.2102 34.5207 24.4065 34.3405 23.6142L34.3344 23.5861C34.1597 24.0217 34.0487 24.4784 33.87 24.9135C33.7513 25.2028 32.7867 26.9795 32.8229 27.1346C32.9013 27.4708 32.8662 27.8032 32.8937 28.1438C32.9221 28.4967 33.0153 28.891 33.0941 29.2378L34.1256 33.5269C34.1564 33.6348 34.19 33.741 34.2075 33.8523L34.7708 36.1554C34.8046 36.3856 34.9184 36.8112 34.9773 37.0495L35.1565 37.7691C35.2785 38.1877 35.5704 39.2475 35.5785 39.6045C35.6038 40.7182 34.9093 41.6721 33.8907 42.0753C33.3425 42.2924 32.7253 42.3437 32.1529 42.4801L28.7685 43.2666C27.8647 43.4374 26.9889 43.4812 26.0743 43.4793ZM22.3366 5.98176C20.7569 6.05479 19.0159 7.03036 17.8184 8.06812C18.4514 8.65406 18.7369 9.18239 19.0615 9.94772L19.5931 11.2027L23.8964 20.4242C23.9268 20.4972 23.9722 20.5563 24.0195 20.6191L24.5388 19.4176L28.6395 10.6504C29.0376 9.73959 29.2809 8.80973 30.0967 8.16445C30.1248 8.14223 30.1449 8.11987 30.1657 8.09076C29.5531 7.43868 28.0777 6.60567 27.2815 6.31612C26.3157 5.96484 25.7289 5.98186 24.7224 5.98153L22.3366 5.98176ZM16.7403 9.12843C16.4796 9.6472 16.3122 10.2787 16.2297 10.8533L16.1424 11.5778C16.288 11.9608 16.4901 12.3085 16.6845 12.6675L18.273 15.4668L19.216 16.898C19.9653 18.0055 20.7975 18.9497 21.8103 19.8321L22.1693 20.1615C22.0806 19.9302 21.9591 19.7213 21.8493 19.5005L18.0459 11.3138C17.7262 10.5741 17.503 9.579 16.7681 9.12717L16.7403 9.12843ZM31.24 9.15187C30.4595 9.54412 30.1443 10.8702 29.8175 11.5995L26.0743 19.5958C25.9905 19.7557 25.8943 19.9137 25.8374 20.0858L26.2187 19.7983C27.6405 18.5677 28.4436 17.4983 29.4409 15.8949L30.7731 13.6543C31.136 13.0008 31.5152 12.346 31.8242 11.665C31.977 11.3283 31.477 9.58322 31.3437 9.25157L31.24 9.15187ZM32.9275 9.4297C33.1271 10.2004 33.4515 11.3002 33.2192 12.0997L33.2088 12.1366C33.1227 12.4351 32.9362 12.7352 32.7908 13.0094L29.9765 17.7667C29.0851 19.0964 28.0931 20.2691 26.8149 21.2462L24.9283 22.6674C24.8915 22.6949 24.8216 22.7194 24.8538 22.7656L24.8964 22.8063C26.204 24.0142 27.4489 25.5837 27.6664 27.3921C27.7292 27.9142 27.7199 28.4303 27.7644 28.9528L28.4184 37.5108C28.4237 37.5848 28.4428 37.6502 28.452 37.7222C28.6592 39.3452 28.3611 40.6486 27.2957 41.947C27.5667 41.9742 28.823 41.8188 29.0917 41.6883L32.8029 40.8126C33.4979 40.6428 34.3321 40.3611 34.0861 39.404L31.9894 30.8198C31.7062 29.645 31.362 28.4261 31.3778 27.2105C31.3895 26.3122 31.9725 25.5365 32.3409 24.7477C33.1315 23.0552 33.3643 21.1734 33.7062 19.3552L34.2773 16.8525L35.6716 12.2808C35.8892 11.578 36.1481 10.8531 36.2815 10.1297L32.9275 9.4297ZM14.9872 9.48L11.6994 10.1124L13.8862 17.2195L14.28 18.78C14.3639 19.0379 14.3956 19.3336 14.4512 19.5997L15.1042 22.9559C15.1556 23.1655 15.231 23.367 15.273 23.58L15.6622 24.8009C15.881 25.5089 16.3098 26.1737 16.4181 26.9141C16.5342 27.7071 16.4945 28.5237 16.3514 29.3142L14.059 38.7886C13.8519 39.6226 13.6495 40.324 14.7211 40.7375C14.9918 40.842 15.3095 40.8623 15.5952 40.9048L16.763 41.1029C18.2137 41.3945 20.0273 41.9636 21.4864 41.9986L23.2261 42.0135C23.5479 42.0132 23.8948 42.0375 24.2118 41.9856C25.7653 41.7311 27.0634 40.4409 27.044 38.8247L26.7423 34.6753L26.2828 28.4456C26.1718 26.3956 25.7292 25.8797 24.3576 24.3792L22.6621 22.6317C21.5074 21.5219 20.2472 20.5127 19.1837 19.3114C17.9521 17.9201 16.8013 15.8996 15.893 14.2949L15.2192 13.0387C14.4236 11.5025 14.7223 11.1162 15.045 9.48H14.9872ZM10.8012 11.9919L9.47777 15.3822L7.93347 20.6597L6.84512 24.9019L5.72551 30.1102L4.78258 37.0894L4.59384 39.2925L4.45087 41.9264L6.48616 42.0057L6.5192 41.5954L7.11995 37.282C7.76298 33.8282 8.9155 30.1803 10.3246 26.9645L12.4947 22.3488C12.6882 21.8679 12.8518 21.2385 13.2002 20.8498C12.9086 18.938 12.3607 17.0535 11.7728 15.2137L11.1107 13.062C11.005 12.7077 10.8803 12.353 10.8012 11.9919ZM37.1736 12.2925L35.9153 16.4121L35.2853 18.8797C35.1327 19.5447 34.9905 20.1922 34.917 20.8719C35.3695 21.5938 35.4138 22.5235 35.7563 23.2951L36.504 25.3871L38.2087 29.5777L39.8785 34.8289L40.9138 39.1202C41.1384 39.9988 41.2048 41.0927 41.4551 41.911C42.1188 41.9624 42.9317 42.0377 43.5844 41.8517L43.1493 37.4058L41.7071 27.4772L41.2756 25.5295C40.4645 21.9212 39.4097 18.3808 38.1507 14.904L37.1736 12.2925Z" fill="black"/>
</svg>
