<svg width="48" height="48" viewBox="0 0 48 48" fill="none" xmlns="http://www.w3.org/2000/svg">
<path d="M27.7914 42.778C26.3529 42.7696 25.154 42.1724 23.9995 41.3696C22.5906 42.467 20.9304 43.2064 19.1184 42.6146C18.6316 42.4556 18.1919 42.1757 17.7377 41.9447L15.2459 40.7902C14.5471 40.489 13.9166 40.1758 13.3693 39.6343C12.8548 39.1252 12.9983 39.1378 12.2721 38.8935C11.0339 38.477 9.79599 38.3247 8.50079 38.3222C8.32098 38.3218 8.0889 38.3525 7.92685 38.2667L7.89887 38.2514C7.45135 38.02 7.4926 37.6442 7.49359 37.1995L7.50638 34.7472C7.51665 34.4755 7.57135 34.2033 7.58809 33.9292C7.71352 31.8747 7.91377 29.8267 8.29187 27.8014L11.4938 12.4746C11.5436 12.2565 11.5343 12.0259 11.5357 11.8035L11.5399 10.9136C11.5458 9.74144 12.2791 8.57425 13.4101 8.17577L16.8787 7.09694C17.4728 6.89626 17.6586 6.88183 18.0965 6.43C18.5179 5.99509 18.9335 5.42959 19.4965 5.18392C19.8113 5.14412 19.9601 5.2413 20.2444 5.34606C22.2145 6.07206 24.4981 6.18339 26.5298 5.68801C27.0375 5.56422 27.5129 5.38042 28.0082 5.22325L28.0692 5.20403C28.7611 5.00856 29.6286 6.30728 30.1885 6.68908C30.4852 6.89139 30.9283 6.95978 31.2716 7.06375L33.1599 7.6757C33.6793 7.83977 34.2564 7.94762 34.733 8.21898C36.0545 8.97151 36.2451 10.0644 36.3744 11.3971C36.4172 11.8386 36.5367 12.2691 36.615 12.7042L36.8536 14.0792L39.0945 24.9371C39.5127 26.549 39.8319 28.2099 40.0787 29.859L40.4732 34.4869C40.5151 35.13 40.4774 35.7992 40.4777 36.445L40.4787 37.2887C40.4785 37.4987 40.527 37.8329 40.3767 38.0064L40.3584 38.027C40.2899 38.1088 40.2354 38.1626 40.1421 38.2173L40.106 38.2379C39.8947 38.3604 39.6203 38.3209 39.382 38.3211C37.7877 38.3222 36.6824 38.5754 35.227 39.0957C35.06 39.1554 34.9675 39.3108 34.8495 39.4373L34.4417 39.8392C34.0023 40.2356 33.4622 40.433 32.928 40.6652L30.4447 41.9127C29.5019 42.4486 28.9313 42.748 27.7914 42.778ZM27.1861 7.13636L25.5971 7.44892C25.2875 7.52805 24.8942 7.486 24.5754 7.48666C23.0269 7.48989 22.2473 7.50039 20.6994 7.12802C20.7215 7.3923 20.8594 7.63984 20.9132 7.90084C21.0094 8.36852 21.3133 9.3018 21.507 9.772L22.8563 13.4191L23.7985 15.6258C23.8312 15.7191 23.8892 15.8085 23.9371 15.895C25.1197 13.938 25.9601 11.6847 26.5927 9.49328L27.1861 7.13636ZM28.7386 7.55823L27.8533 10.6949C27.1623 12.8722 26.323 14.9104 25.1711 16.8805C24.9456 17.2662 24.6579 17.371 24.7997 17.7067L25.372 18.9142C25.4285 19.0362 25.4754 19.3056 25.5942 19.3749C25.8616 19.2205 26.1035 19.0173 26.3347 18.8135C27.4402 17.7509 27.9836 16.2572 27.6768 14.7418C27.4933 13.8352 27.4809 13.8104 28.2323 13.1823L29.0665 12.4726C29.1758 12.3809 29.8875 11.8429 29.8013 11.7077C29.7348 11.6035 29.643 11.5063 29.5668 11.4081L28.8071 10.5058C28.2669 9.87897 28.2729 9.75662 28.6375 9.05378L29.2514 7.95391L28.7386 7.55823ZM19.185 7.62756L18.5815 8.14497C18.4584 8.24519 18.3179 8.33748 18.2087 8.45209L18.6754 9.33948C18.8914 9.74673 19.2886 10.1986 19.0668 10.6841L19.0487 10.7245C18.8526 11.1421 18.4212 11.4001 18.2086 11.7935C18.7008 12.3291 19.3061 12.7858 19.8608 13.2552C20.2712 13.6025 20.689 13.8564 20.4695 14.49C19.7893 16.4535 20.1931 16.6859 21.3307 18.3278L25.9895 25.0526L26.5039 25.802C26.643 26.0062 26.7699 26.2386 26.953 26.408C26.8525 25.314 26.3477 24.5882 25.8747 23.6129L24.0194 19.7455C22.9302 17.3954 21.7702 15.0732 20.8542 12.6475L19.4844 8.57083C19.3925 8.25602 19.3099 7.93075 19.185 7.62756ZM30.777 8.54889L30.1232 9.64576C30.5735 10.1 31.2247 10.6877 31.3282 11.3527C31.4982 12.4454 31.0749 12.808 30.3461 13.4559L29.2202 14.443C29.1926 14.4659 29.2033 14.4491 29.2146 14.5007L29.29 14.9687C29.5511 16.2495 28.9124 17.9907 28.1989 19.043C27.6733 19.8183 27.0148 20.3192 26.2447 20.8302C26.3781 21.0859 26.5257 21.3337 26.6446 21.5973L28.2393 24.9947C28.6492 25.9039 28.4621 26.9448 28.1738 27.8595C27.9914 28.4381 28.0038 28.2094 28.1357 28.7683L28.3497 29.5734C28.5426 30.2875 28.5419 31.601 28.4949 32.3274C28.3665 34.31 27.6762 36.1443 26.6725 37.841L25.0429 40.1877C25.1793 40.3117 25.3645 40.3925 25.5235 40.4861C26.9474 41.3248 28.0287 41.5881 29.4245 40.6803C29.6268 40.5488 29.8386 40.4309 30.0526 40.3194L32.1489 39.2856C32.7343 39.0139 33.43 38.8626 33.7596 38.2531L32.8373 28.945C32.7782 28.3003 32.6724 27.5959 32.7602 26.9485L33.5694 21.7188L33.809 20.7032C33.9789 20.0781 34.3836 19.3455 35.0981 19.8502L35.124 19.8683C35.2609 19.9681 35.3154 20.1206 35.3675 20.2731L35.3807 20.3041C35.4249 20.4279 35.4075 20.5885 35.3829 20.7161L35.0651 22.1246L34.4077 26.1793C34.3081 27.0688 34.2879 27.4073 34.3516 28.2791L35.111 36.2575C35.1524 36.6473 35.1684 37.0384 35.2433 37.4242L36.8915 36.9815L38.119 36.7969C38.3875 36.7422 38.7015 36.7685 38.9753 36.7686L38.9501 34.3473C38.9338 33.9489 38.869 33.5501 38.8391 33.152L38.5269 30.0348C38.2801 28.2049 37.8251 26.4285 37.4392 24.6264L34.91 12.1232C34.7703 11.3955 34.8898 10.4424 34.3204 9.87606C33.9222 9.48002 33.2638 9.34295 32.7426 9.18541L31.6951 8.85878C31.3878 8.76419 31.0728 8.67559 30.777 8.54889ZM16.5848 8.87073L14.4262 9.51728C12.882 9.97497 13.1673 10.5655 13.0977 11.8261C13.0609 12.4907 12.9471 13.124 12.8165 13.7749L11.291 21.3172L10.0335 27.0114L9.4839 30.0956L9.01004 35.4371L8.99485 36.7671C9.29574 36.7711 9.58102 36.8051 9.87934 36.8345L10.4277 36.8762C11.0755 36.9559 11.7848 37.0765 12.406 37.2909C12.5363 37.3358 12.6767 37.4053 12.8121 37.4268L13.4347 30.5906C13.5261 29.574 13.697 28.5368 13.6828 27.515C13.6663 26.3275 13.4461 25.1011 13.2543 23.9336C13.1225 23.1311 13.0008 22.305 12.8013 21.5163L12.7171 21.1206C12.616 20.7089 12.4666 20.2 12.8416 19.8836C13.1215 19.6474 13.6227 19.6408 13.8695 19.9332C14.186 20.3083 14.2405 20.9104 14.3579 21.3813L15.0439 25.4707C15.0948 25.8592 15.1411 26.2471 15.1694 26.6376L15.1952 28.4586L14.4103 37.0219C14.3865 37.3052 14.2187 38.1977 14.3375 38.4154L14.3495 38.4382C14.6042 38.8813 15.6229 39.2305 16.0634 39.4276L18.7443 40.7222C19.0466 40.8918 19.3497 41.0859 19.6918 41.1642C21.6374 41.6098 22.9886 40.2799 24.0684 38.8824C26.3623 35.9136 28.2561 31.3854 26.0015 27.8953L19.9051 19.0216C19.1358 17.8943 18.3363 16.7837 18.6178 15.3289L18.8092 14.4756L17.2573 13.0746C16.5099 12.3381 16.4347 11.317 17.1598 10.503L17.3921 10.26L16.9848 9.46703C16.8841 9.26228 16.792 9.05177 16.6563 8.86722L16.5848 8.87073Z" fill="black"/>
</svg>
