<svg width="48" height="48" viewBox="0 0 48 48" fill="none" xmlns="http://www.w3.org/2000/svg">
<path d="M28.2048 42.647L26.7649 42.8219C25.9132 42.8902 25.1667 42.934 24.4774 42.3521C23.5368 42.7866 22.7576 42.9833 21.6792 42.7991C21.2002 42.7173 20.6963 42.7113 20.2119 42.6582L17.4063 42.2542C16.1836 42.0451 14.9515 41.8451 13.8894 41.1676C13.4585 40.8927 12.7669 40.3962 12.6552 39.8652L12.6473 39.8262C12.5403 39.3588 12.6846 38.9363 12.8056 38.4885L14.0267 33.6677C14.269 32.7078 14.5548 31.7383 14.7176 30.7614C15.0381 28.8383 14.9141 26.5978 14.4374 24.6911L14.0535 23.4136C13.845 23.8058 13.6746 24.2287 13.4941 24.6351L13.1023 25.5094C12.3532 27.3433 11.7724 29.3668 11.5462 31.3356L11.0196 37.3094C10.814 38.7542 9.6659 38.6646 8.5867 38.5507L6.98437 38.3458C6.5055 38.2669 6.03792 38.1381 5.56758 38.0209C4.94831 37.8665 4.3332 37.679 4.21498 36.923C4.09194 36.1361 4.12238 35.327 4.11958 34.533L4.12696 29.5808C4.14676 28.8832 4.20245 28.0965 4.25108 27.3994C4.41636 25.0303 4.71844 22.7104 5.37909 20.4227L7.95487 12.6862C8.63836 10.5128 8.8402 10.2169 10.938 9.07596C12.303 8.33356 13.7185 7.72193 15.1383 7.09498L18.2112 5.71915C18.639 5.51496 19.0974 5.23873 19.5523 5.11277C19.8 5.09238 20.0442 5.16809 20.2841 5.22345L20.8668 5.33173C21.6768 5.46898 22.5074 5.5752 23.3284 5.62043L24.3188 5.62568C25.3503 5.6239 26.4538 5.51707 27.4661 5.32132L27.969 5.20573C28.1447 5.15918 28.371 5.08329 28.55 5.1274L28.5823 5.13579C28.8347 5.19865 29.0741 5.37584 29.3107 5.48806L36.0413 8.61893C37.2969 9.21523 38.8344 9.74159 39.5316 11.0447C39.8344 11.6104 39.9416 12.2465 40.1256 12.8552L40.5004 14.0856C40.5743 14.3106 40.6233 14.5485 40.7018 14.7693L42.4699 20.3317C42.6715 20.9066 42.7878 21.4895 42.9445 22.0767L43.3137 23.7184C43.5835 25.1033 43.6928 26.4691 43.7944 27.8682L43.8861 29.095L43.8862 35.2721C43.853 36.5901 44.0448 37.6691 42.4878 37.989L41.6487 38.1576C40.7478 38.3355 39.8107 38.5576 38.8918 38.6011C37.2098 38.6807 37.0964 37.6058 36.938 36.3234L36.3753 30.527C36.1067 28.6222 35.4966 26.8999 34.7362 25.1481L33.9287 23.4137C33.6901 23.8183 33.3507 25.8474 33.2978 26.3114L33.2348 27.07C33.0486 28.5986 33.1528 30.2805 33.5252 31.7658L33.6645 32.3739C33.7304 32.6222 33.7707 32.9046 33.8575 33.1432L34.7683 36.4502C34.7759 36.4874 34.7832 36.5204 34.7957 36.5566L35.2385 38.1019C35.2872 38.351 35.3753 38.6021 35.4026 38.857C35.5497 40.2311 34.4444 41.1551 33.282 41.6426C32.7016 41.8861 32.0667 41.9726 31.4534 42.0947L29.3147 42.486C28.9478 42.5456 28.575 42.614 28.2048 42.647ZM20.5776 6.78485L21.4244 9.44501L23.8632 15.6839C23.8907 15.7609 23.9406 15.833 23.9829 15.9027L25.0341 13.1769L26.8606 8.50751C27.0559 7.95785 27.2678 7.40609 27.419 6.84251L26.1446 7.00521C24.2862 7.16763 22.4168 7.11593 20.5776 6.78485ZM19.122 6.92552L18.3465 7.28271L18.6899 8.19279C18.8478 8.59343 19.034 9.09359 19.0777 9.51532C19.1984 10.6776 18.2609 10.8072 18.5794 11.6733L20.548 16.5223L22.8739 21.4526L23.2083 22.1682C23.2373 22.2423 23.292 22.3016 23.3238 22.3826L23.3365 18.4802C23.348 17.9772 23.258 17.92 23.0475 17.4536L21.0308 12.5111L19.3599 7.75751C19.2787 7.48076 19.2199 7.19735 19.122 6.92552ZM28.9195 6.94892L24.747 17.8974C24.7021 18.0194 24.7243 18.1906 24.7245 18.3206L24.7263 21.0799C24.7265 21.4132 24.7018 21.7679 24.7455 22.0983L25.1541 21.1481L29.1443 12.4568C29.3048 12.0494 29.4748 11.6468 29.5386 11.2105C29.0823 10.4088 28.7887 10.0146 29.0651 8.99843L29.6512 7.27198C29.4304 7.18854 29.1462 6.98107 28.9195 6.94892ZM17.0518 7.89115L14.0729 9.16015L11.476 10.4584C9.58162 11.48 9.85715 11.4877 9.1958 13.5618L7.32389 19.1546C6.38306 21.8846 5.93522 24.0027 5.71045 26.9281L5.53275 30.0877L5.52951 35.1267C5.53706 35.3691 5.56908 36.3805 5.60283 36.5103C6.02381 36.8138 8.98012 37.1145 9.57961 37.1148L10.0653 31.6369C10.2982 29.4858 10.8329 27.3625 11.615 25.3451L13.2339 21.9054C13.3316 21.7312 13.4231 21.541 13.5582 21.392L12.9265 17.3505C12.8358 16.785 12.6214 15.906 13.4416 15.7741C13.7512 15.7243 14.0255 15.9587 14.1556 16.2184L14.1678 16.2422C14.2195 16.3448 14.2451 16.4522 14.26 16.5654L15.0484 21.6091C15.0739 21.767 15.0813 21.9212 15.1327 22.0744L15.2875 22.5654L15.5809 23.3999C15.7083 23.7286 15.7921 24.1393 15.8509 24.4838L16.079 25.6286C16.1545 26.0849 16.1905 26.5395 16.2282 26.9997L16.2866 27.4922C16.3385 28.2305 16.3349 29.0246 16.2792 29.7617L16.0935 31.2645C16.0702 31.4219 16.0262 31.5677 16.011 31.7283L17.9912 31.9636C18.2632 31.9942 18.5467 31.9784 18.8099 32.0624C19.5016 32.2832 19.4014 33.4316 18.6475 33.483C18.2992 33.5067 15.71 33.1352 15.6402 33.1781C15.618 33.1917 15.4864 33.7645 15.4691 33.8434L14.0526 39.4256C14.717 40.2838 16.1983 40.5395 17.1875 40.7241L21.2781 41.2905C21.8235 41.3452 23.864 41.6747 23.523 40.6774C23.4791 40.5492 23.4798 40.3909 23.4766 40.2565L23.4569 25.7018C23.4446 25.4144 23.219 25.2019 23.0796 24.956L19.9028 18.6741L17.4059 12.6227C17.2786 12.3134 17.1372 11.9796 17.0838 11.6481L17.0775 11.6103C16.9775 10.9606 17.1683 10.4443 17.5025 9.90284C17.7074 9.57106 17.6443 9.69288 17.5159 9.29899L17.0518 7.89115ZM30.9904 7.88393L30.373 9.6949C30.5819 10.0039 30.7516 10.3204 30.8628 10.6755L30.8766 10.711C31.2047 11.5787 30.4148 13.2768 30.0253 14.0974L24.9727 24.7474C24.9406 24.8069 24.9179 24.8546 24.9157 24.9229L24.9184 40.0512C24.9191 40.5357 25.0222 40.9781 25.4416 41.2724L25.4694 41.2921C25.7343 41.4717 26.1225 41.392 26.4181 41.3688L27.9651 41.1836C28.7025 41.0804 29.4563 40.9971 30.1842 40.8409L31.8166 40.5233C32.6177 40.3513 33.4438 40.0869 33.917 39.3647C34.0566 39.1516 33.986 39.02 33.9337 38.78L32.3542 33.1136L30.067 33.3967C29.5944 33.463 28.8571 33.5419 28.7844 32.8783C28.6966 32.0771 29.1491 32.0262 29.7057 31.9498L31.4497 31.7502C31.6357 31.725 31.8345 31.7157 32.0156 31.6661C31.7124 30.3889 31.718 29.1195 31.7682 27.82L31.809 26.7302C31.9305 25.1261 32.2948 23.7154 32.8228 22.2085C32.8927 21.989 32.912 21.7883 32.9505 21.5644L33.6467 17.2192C33.739 16.7139 33.7426 15.4874 34.6999 15.8398C35.4647 16.1214 35.0677 17.2895 34.9845 17.8708L34.4806 21.0713C34.4413 21.3046 34.5138 21.3649 34.624 21.5739L35.8371 24.0466L36.8637 26.5452L37.2537 27.8051C37.284 27.8877 37.304 27.9783 37.3211 28.0645L37.5343 28.9235C37.8133 29.7929 37.9502 31.5146 38.0283 32.4218L38.1679 34.4898C38.2174 35.056 38.2646 35.6379 38.3544 36.1989L38.4892 36.9999C38.5266 37.252 38.9896 37.0928 39.2041 37.0666L41.9976 36.5779C42.1344 36.5491 42.2723 36.5498 42.4055 36.5043L42.4698 34.2599L42.4682 29.2885L42.3053 26.9645C42.037 23.7066 41.3013 21.3395 40.2681 18.2341L38.7308 13.1933C38.3356 11.8462 38.3483 11.3896 36.9737 10.6886L32.7476 8.70138C32.1651 8.43673 31.5514 8.19012 30.9904 7.88393Z" fill="black"/>
</svg>
