<svg width="48" height="48" viewBox="0 0 48 48" fill="none" xmlns="http://www.w3.org/2000/svg">
<path d="M21.5685 43.5394C20.5042 44.0204 19.1874 44.0823 18.0627 43.7765C17.142 43.5262 16.3637 42.9682 15.4675 42.667C14.3158 42.2797 13.1026 42.0488 11.9195 41.7763C11.0536 41.577 10.037 41.4351 9.37612 40.7824C9.3464 40.753 9.25551 40.7755 9.21328 40.779C7.94587 40.8844 6.80868 40.8447 5.55112 40.6946L4.33511 40.5237C3.17278 40.3114 3.20789 40.0872 3.11648 39.1051L2.93836 37.3356C2.89783 36.8597 2.83122 36.2725 2.8236 35.8045L2.75098 30.8715C2.75657 30.6919 2.79662 30.5175 2.80471 30.3395L2.84018 29.0336C2.84645 28.9296 2.8761 28.8337 2.88313 28.7325L3.18201 25.4861L4.33705 18.1168L6.80803 8.26137C7.23131 6.75551 7.86501 5.4372 9.62793 5.42722L10.3787 5.42501C12.4429 5.42098 14.3706 5.39206 16.3829 4.77884L17.3735 4.42763C18.1309 4.12154 18.2446 4.04042 19.053 4.04231L27.0361 4.05016C27.4386 4.04919 27.8351 4.05842 28.2343 3.99752C28.8703 3.94805 29.562 4.00062 30.1616 4.22923L30.9061 4.54846C32.4745 5.13354 34.7456 5.47845 36.4509 5.5339L38.0251 5.53892C38.2843 5.53859 38.563 5.52045 38.82 5.55551C39.8115 5.69089 40.7464 6.56661 40.9546 7.53673L42.5513 13.4277C42.5957 13.7194 42.7631 14.2787 42.8437 14.5895L43.5078 17.5055C43.8593 18.9708 44.1186 20.4686 44.3381 21.9605L44.5781 23.484L45.1457 28.6634L45.2495 30.4214L45.2474 34.3747C45.2409 34.5531 45.2 34.7256 45.1943 34.9022L45.1645 36.1646L44.8442 39.4911C44.7237 40.6394 43.7257 40.593 42.7908 40.7081L41.6134 40.8461C41.2991 40.8671 40.9788 40.8565 40.664 40.8559L39.6124 40.8462C39.2898 40.8301 38.9598 40.769 38.6388 40.7289L38.3273 41.0226C37.8078 41.4472 36.9374 41.533 36.309 41.6926L35.1117 42.0079C33.6965 42.3509 32.28 42.6581 30.9493 43.265C30.4799 43.4792 30.0383 43.7248 29.5359 43.8583C27.7789 44.3249 25.8527 43.5542 24.5032 42.4351C24.2354 42.2129 23.9992 41.9352 23.7487 41.6926C23.2961 42.4752 22.3661 43.1704 21.5685 43.5394ZM18.948 5.53719C18.4324 5.7455 18.7257 5.88879 18.5966 6.29042L17.6043 9.04526C17.74 9.18851 17.9042 9.30144 18.0622 9.41862L18.879 9.9995C19.1655 10.199 19.4685 10.3782 19.623 10.7055L19.6397 10.7403C19.8269 11.1485 19.5605 11.5146 19.6234 11.9059L19.6903 12.1871C19.7124 12.2706 19.7576 12.3532 19.7934 12.4319L22.9144 18.0608C22.9351 18.0223 22.9403 17.9971 22.9502 17.9548C23.1167 17.2463 23.4257 17.1209 23.1548 16.4645L20.9363 11.1493C20.8394 10.8948 20.6631 10.639 20.6226 10.3707L20.6167 10.3362C20.5493 9.90012 20.767 9.54969 21.1642 9.39458L21.2017 9.37925C21.3013 9.3477 21.4357 9.35384 21.5403 9.35286L22.144 9.34962C22.5728 9.34451 22.6463 9.09706 22.8646 8.74086L23.1786 8.22275C23.7019 7.35308 24.156 7.17458 24.7578 8.14039L25.2682 8.96C25.4558 9.23408 25.5063 9.34667 25.8517 9.35267C26.5864 9.36542 26.9684 9.19362 27.3331 9.90734C27.3944 10.1145 27.393 10.3015 27.3165 10.5039L24.7809 17.1467C24.6496 17.5231 24.4656 17.9337 24.4334 18.3326C25.1868 17.7709 25.719 17.14 26.1339 16.3093L28.2106 12.4098C28.4146 11.9935 28.4026 11.884 28.342 11.4484C28.1934 10.3814 29.078 10.0245 29.8209 9.49868C30.0232 9.35548 30.2289 9.18354 30.4433 9.06275C30.2223 8.29779 29.4541 6.98736 29.3601 6.40123C29.2537 5.73781 29.787 5.53236 28.6167 5.5354C28.0315 5.53695 27.464 5.59728 26.9082 5.59967L20.9324 5.59976C20.6659 5.59859 20.4112 5.56437 20.1463 5.55064L18.948 5.53719ZM30.8881 6.17337L31.7988 8.30117C31.9535 8.64565 31.9983 9.02928 31.9102 9.39847L31.9024 9.43381C31.7797 9.9664 31.4396 10.2117 31.0284 10.5263L30.1543 11.1728C29.8817 11.3593 29.8823 11.3044 29.8811 11.6221C29.8775 12.5512 29.5639 13.1368 29.1181 13.9415L27.6645 16.6705C26.966 18.0521 26.3073 19.0282 24.9413 19.8702L24.211 20.2944C24.0349 20.3902 23.9256 20.3851 23.8653 20.5858L23.7281 21.0749C23.5337 21.8523 23.3041 22.9259 23.244 23.7289C23.1898 24.4538 23.2303 25.2077 23.231 25.9359L23.2282 33.7402C23.2271 35.9308 23.2148 37.9102 24.3254 39.8525C25.2238 41.4236 27.5022 43.0278 29.3827 42.3122C29.7702 42.1647 30.1334 41.9615 30.5069 41.7834C31.623 41.2512 32.8496 40.9823 34.0431 40.6871L37.3316 39.8524C37.7014 37.347 36.8014 34.9279 35.9702 32.6093L34.0537 27.1989C33.774 26.2749 33.6749 25.4116 33.674 24.446C33.673 23.2501 33.6313 22.0497 33.8184 20.8641C33.9577 19.6567 34.224 18.4178 34.5704 17.2538C34.7156 16.7658 34.8715 16.0861 35.5516 16.1966L35.659 16.2187C36.1388 16.3284 36.2358 16.9061 36.1314 17.3082L36.1039 17.3987C35.9245 17.9514 35.7989 18.5401 35.6773 19.1084L35.4433 20.1877C35.2956 21.0023 35.1992 21.8624 35.162 22.6916L35.1557 24.2412C35.157 25.059 35.1808 25.8588 35.4759 26.6331L35.9129 27.9431C35.9237 27.985 35.9381 28.0148 35.9543 28.0543L37.8309 33.2809C37.8979 33.4501 37.9365 33.6308 38.0066 33.7954L38.448 35.2541L38.78 36.7536C38.8946 37.4266 38.9051 38.0816 38.907 38.7605C38.9074 38.8998 38.8972 39.0449 38.9274 39.1812C39.8846 39.3325 40.8314 39.3526 41.797 39.2745L43.3534 39.0942L43.7198 34.7904L43.7223 30.2332L43.4006 26.221L42.6253 20.777L40.446 11.3981L39.687 8.69154C39.4829 8.00984 39.4441 7.40923 38.7071 7.12564L38.6814 7.11528C38.4822 7.03953 38.1783 7.07858 37.963 7.07862L36.5395 7.06859C34.9728 6.99031 32.3963 6.72739 30.8881 6.17337ZM16.895 6.26919C15.4871 6.64578 13.7581 6.92108 12.2824 6.94943L10.5722 6.9559C9.1882 6.95965 8.68903 6.98398 8.3144 8.54112L6.24618 16.5275L5.72573 18.8747C5.20673 21.5551 4.79746 24.2616 4.54135 26.9793L4.29153 30.2944L4.32345 35.3186L4.55625 38.3153C4.57635 38.5091 4.5687 38.7234 4.60433 38.9123L4.62312 38.984C6.01828 39.3502 7.67911 39.3732 9.09942 39.259C9.13664 39.1395 9.13195 38.9926 9.1439 38.8671L9.41714 36.9817L10.6412 31.6697L11.9434 27.4606C12.3615 26.125 12.8432 24.8063 12.8653 23.3903C12.888 21.9257 12.6706 20.3674 12.3313 18.9492L12.065 17.964C11.971 17.651 11.8144 17.2889 11.8118 16.9631C11.8052 16.1387 12.9025 15.92 13.2317 16.6632L13.2487 16.7056C13.4568 17.2131 13.5579 17.7395 13.7223 18.2587L14.0493 19.8457C14.1678 20.6997 14.2954 21.5582 14.3396 22.4207L14.3463 23.3362C14.343 24.8813 14.076 25.7119 13.6261 27.1989L12.5767 30.5084L11.1161 36.214L10.6494 39.1744C10.6293 39.3588 10.5642 39.5679 10.5746 39.7511C11.0352 40.032 11.6907 40.1357 12.2133 40.2569L13.5938 40.5931C14.8037 40.8725 15.7889 41.1184 16.93 41.6392C18.044 42.1475 19.0506 42.6466 20.3087 42.3526C21.4768 42.0796 22.2116 41.3078 22.8312 40.3301C22.1565 39.0419 21.7691 37.5112 21.7673 36.0542L21.7669 24.3224C21.768 23.3406 21.8602 22.4266 22.0648 21.4606L22.3198 20.4182C22.4342 19.9881 22.4799 20.1222 22.2301 19.7692L21.4663 18.5969L18.9555 14.1288C18.5282 13.3179 18.0825 12.5393 18.09 11.603C18.0928 11.2523 18.1205 11.3659 17.8425 11.1706L17.1388 10.6451C15.8568 9.73911 15.8939 9.11811 16.408 7.79131L16.9698 6.26919C16.9349 6.25442 16.9305 6.26131 16.895 6.26919ZM24.0184 9.77881C23.753 10.1501 23.3447 10.6996 22.8634 10.7834L22.4437 10.8378L23.3473 13.0543C23.4621 13.3498 23.8759 14.4899 24.0352 14.7109C24.1226 14.5668 24.1683 14.3817 24.2217 14.2225L25.2307 11.6523C25.3389 11.3896 25.4715 11.1233 25.5608 10.8546C24.8375 10.8233 24.3935 10.3325 24.0184 9.77881Z" fill="black"/>
<path d="M16.3092 31.245C15.7932 31.2725 15.2615 31.2908 15.0725 30.7026L15.0616 30.6676C14.9549 30.3334 15.1309 29.982 15.438 29.8253L15.4687 29.8101C15.6493 29.7184 15.8978 29.7414 16.0954 29.7406L19.4884 29.7393L19.5001 29.7349C19.732 29.697 20.2252 29.7022 20.4149 29.8453L20.4373 29.8628C20.9153 30.2194 20.8671 31.1064 20.2281 31.2308C20.1037 31.255 19.9626 31.2431 19.8358 31.2435L16.3092 31.245Z" fill="black"/>
<path d="M32.2432 31.2407L28.2118 31.2449C27.7523 31.2444 27.185 31.2604 27.0846 30.6615C26.995 30.1268 27.2815 29.7899 27.81 29.7507L31.6581 29.7386C31.8895 29.7385 32.2858 29.6688 32.4942 29.7792L32.598 29.8391C33.2128 30.274 32.9578 31.1612 32.2432 31.2407Z" fill="black"/>
</svg>
