<svg width="48" height="48" viewBox="0 0 48 48" fill="none" xmlns="http://www.w3.org/2000/svg">
<path d="M18.7446 42.3641C16.578 42.8224 13.8122 42.3431 13.037 39.9563C12.7329 39.0202 12.7981 38.0485 12.7982 37.0776L12.791 27.7568C12.7332 25.5416 11.3991 23.6823 10.7582 21.6269C10.5863 21.0758 10.5008 20.5396 10.3931 19.9759L9.36402 15.3265C9.07391 14.1351 8.69712 12.9467 9.02637 11.7183C9.57256 9.6807 11.2704 8.68494 13.0651 7.92641L15.5664 7.01609C16.865 6.6597 18.0253 4.98308 19.4395 5.39567C19.8305 5.50972 19.9275 5.79448 20.0752 6.13245L20.5513 7.27283C21.7781 7.95397 25.5603 7.81152 26.9934 7.44317C27.1328 7.40731 27.3413 7.35462 27.4545 7.26402C27.9056 6.90308 27.9504 5.53287 28.8785 5.32433C29.2595 5.28031 29.5037 5.45384 29.8358 5.60975L36.061 8.48825C37.1076 8.97191 38.3127 10.0125 38.7159 11.1374L39.0112 12.1148C39.112 12.4281 39.1499 12.9711 39.0807 13.3062L38.6606 15.3496C38.566 15.8487 38.4344 16.3383 38.2899 16.8248L36.5757 21.968C36.2967 22.7753 35.9603 23.569 35.7402 24.3951C35.3825 25.738 35.2071 27.1115 35.206 28.4973L35.21 38.0162C35.2104 38.4032 35.2225 38.7892 35.1665 39.1732C34.9379 40.7401 33.752 42.005 32.2217 42.3966C30.1461 42.928 29.2334 42.7966 27.3732 41.6911L27.326 41.7417C26.5784 42.4817 25.663 42.6987 24.655 42.7017L23.3563 42.7008C22.2583 42.6955 21.3613 42.489 20.537 41.6697C20.0001 42.0157 19.3558 42.2022 18.7446 42.3641ZM30.2492 7.3003L30.6703 8.70472C31.0597 8.80789 31.6575 9.06097 31.81 9.46573L31.8205 9.48847C32.0772 10.0782 31.458 10.33 31.0577 10.5361L30.0824 11.0598C29.6672 11.2722 29.7823 11.1755 29.6558 11.603L28.1002 16.312L24.8666 24.689C24.7108 25.0688 24.536 25.4555 24.445 25.8574C24.3664 26.2046 24.727 27.0174 24.7286 27.5958L24.7293 33.7049C24.7324 36.6297 26.3358 39.9307 29.1524 41.0786C29.7594 41.3259 29.9412 41.3557 30.5504 41.2815C31.1479 41.2088 31.7858 41.1791 32.3455 40.9343C33.286 40.5231 33.9433 39.4558 33.9439 38.4351L33.9258 32.8677C33.9245 32.745 33.9469 32.5474 33.9075 32.4335L30.8296 32.73C30.3786 32.7719 28.6949 33.0198 28.313 32.8398L28.2837 32.8263C27.7227 32.555 27.8911 31.7197 28.4394 31.552C28.6279 31.4944 28.8298 31.5024 29.0246 31.4856L32.423 31.2093C32.9234 31.1683 33.4163 31.1087 33.92 31.0976L33.9427 27.1693C34.0314 25.6557 34.3592 24.1808 34.865 22.7538L36.3332 18.406C36.6254 17.5362 36.973 16.6889 37.1936 15.7961C37.345 15.183 37.4158 14.5526 37.5304 13.9331C37.5876 13.623 37.8075 13.2769 37.7985 12.9722C37.7651 11.8377 37.0451 10.5541 36.0356 9.98698C35.6623 9.77731 35.2543 9.62258 34.8675 9.43883L30.6268 7.43281C30.5415 7.39461 30.365 7.2875 30.2744 7.29448L30.2492 7.3003ZM19.0914 7.32359C18.9198 7.8388 18.7196 9.04625 18.5259 9.42087C18.4469 9.57373 18.287 9.65478 18.2059 9.79273C18.6064 9.97906 19.1246 10.098 19.2948 10.553L21.3942 17.2964L23.6749 23.6235C23.6992 23.7024 23.7483 23.7785 23.7878 23.8507L25.6303 19.0502L27.2266 14.7407L28.4848 10.8871C28.7368 10.1922 28.8608 10.0626 29.5649 9.74628L29.7058 9.68403C29.4163 9.39828 29.3536 9.06416 29.2441 8.68077L28.8791 7.5357C28.1368 9.12041 25.7897 9.092 24.2607 9.09378L22.6239 9.07578C21.8693 9.03045 20.6809 8.89048 20.0507 8.55814C19.5804 8.31012 19.3004 7.79131 19.0914 7.32359ZM17.6531 7.42297C16.648 8.13317 16.6378 8.06994 15.5395 8.4387L13.5564 9.19977C12.3256 9.69669 10.9189 10.1691 10.3847 11.519L10.2411 11.9708C10.1539 12.3082 10.1438 12.937 10.2563 13.2679L11.4747 18.5172C11.509 18.6402 11.5213 18.7658 11.5472 18.8901L11.7852 20.213C11.8257 20.4356 11.8667 20.6946 11.9457 20.9056L13.5634 24.8496C14.0337 26.2146 14.1654 27.5733 14.1666 29.0071L14.1633 31.0487L17.886 31.2555C18.0313 31.2654 18.1711 31.2974 18.3155 31.3077L19.1322 31.3316C19.5377 31.3358 19.9989 31.3266 20.2106 31.7541L20.2308 31.7943C20.3999 32.1475 20.274 32.5471 19.9 32.7002C19.7098 32.778 19.467 32.7346 19.2662 32.7261L14.1804 32.4462L14.1671 38.066L14.2099 38.7317C14.2202 38.9505 14.2069 39.1842 14.2808 39.3921L14.3053 39.4792C14.5604 40.5232 15.533 40.942 16.4887 41.0975C20.2257 41.7052 22.8523 38.2991 23.3392 34.9296C23.3859 34.6064 23.3645 34.2657 23.3646 33.9389L23.383 27.5737C23.3791 27.2327 22.9458 25.6626 22.8278 25.2815L20.6734 19.3003L18.8145 13.7156L18.1205 11.2785C17.3987 10.8358 14.7982 10.0072 16.677 9.05277C16.7685 9.00627 17.3346 8.75141 17.3427 8.67767C17.3888 8.2602 17.5513 7.83247 17.6531 7.42297ZM24.1007 37.3119L23.7651 38.1089C23.4438 38.7875 23.0169 39.4669 22.5198 40.0307L22.0014 40.5627C21.8982 40.6595 21.7863 40.745 21.6959 40.8545L22.131 41.0972C22.4131 41.2662 22.5222 41.2723 22.8586 41.2723L23.9594 41.27L25.0326 41.2693C25.6211 41.2673 25.7978 41.1535 26.2925 40.8076C25.536 40.079 24.9302 39.1675 24.4867 38.2153L24.1007 37.3119Z" fill="black"/>
</svg>
