<svg width="48" height="48" viewBox="0 0 48 48" fill="none" xmlns="http://www.w3.org/2000/svg">
<path d="M36.0751 43.176C33.409 43.9639 30.6745 44.5386 27.9033 44.7926L25.0725 44.9782C23.5139 45.0186 21.964 44.94 20.4127 44.8012L19.0524 44.6826C17.6877 44.5266 16.3311 44.2925 14.9887 44.004L12.1051 43.278C10.9937 42.9487 9.90287 42.8148 10.3652 41.3439L12.7244 34.445C13.6574 31.761 14.5312 29.9919 14.5339 27.0587C14.5352 25.6478 14.3342 24.7785 13.9071 23.4743C13.7764 23.686 13.7014 23.9538 13.5983 24.1821L9.37656 33.3048C8.82114 34.588 8.65187 35.3703 7.18544 34.8022L6.23823 34.4544C5.56694 34.2293 4.85847 34.0727 4.20301 33.8081C3.21926 33.4109 2.50741 32.2509 2.36686 31.2423C2.27643 30.5934 2.39536 29.9561 2.51051 29.3205L4.02283 21.5392L5.71473 11.1681L5.89886 9.61758C6.26631 6.73055 7.94022 4.70034 10.848 3.99073L12.5504 3.65686C13.7217 3.38726 14.9132 3.12282 16.1049 2.96174C16.6075 2.84596 17.3781 3.17793 17.6295 3.61222C17.7719 3.8582 17.8866 4.11548 18.0415 4.35505C19.5909 6.75244 21.4746 7.93753 23.9792 9.0675C26.3378 8.03302 28.2021 7.04288 29.6934 4.79606C29.9421 4.42143 30.1365 4.03364 30.3565 3.64371C30.9103 2.66249 32.1971 3.0129 33.0705 3.17592L36.6897 3.92592C37.0526 4.00148 37.4141 4.05742 37.7702 4.16584C39.8084 4.7865 41.5654 6.64664 41.981 8.75705C42.0414 9.06314 42.0659 9.3728 42.1065 9.68184L43.1617 16.6399L45.7353 30.1173C45.8906 31.6186 45.2003 33.124 43.8115 33.7818C43.2166 34.0636 42.5385 34.2118 41.9176 34.4388L41.1189 34.7449C40.99 34.7931 40.8532 34.858 40.7169 34.8796L40.6881 34.884C39.4952 35.0841 38.9603 33.7677 38.5448 32.9042L34.3123 23.9887C34.2549 23.848 34.1707 23.7181 34.1291 23.5715L34.1242 23.5529C33.9675 23.843 33.8854 24.244 33.7975 24.5626C33.4495 25.8238 33.3748 28.0414 33.6568 29.379L33.8264 30.0693C33.8746 30.3038 33.954 30.5775 34.0506 30.7934L36.5427 37.9572L37.6814 41.4311C37.9994 42.2548 37.5845 42.6246 36.8525 42.9007L36.0751 43.176ZM16.1869 4.67444C15.3651 4.74056 14.5314 4.96823 13.7238 5.13558C13.6238 5.81756 13.5648 6.67388 13.8193 7.33528L14.0035 7.90027C14.2002 8.37333 14.4065 8.83181 14.69 9.26161C15.7097 10.8073 17.7697 11.9994 19.6594 11.5694L19.7155 11.5573C20.2923 11.4446 21.8862 10.6546 22.344 10.2158L21.0156 9.49659C19.27 8.44992 17.7331 6.99033 16.6396 5.26955C16.5197 5.08092 16.3806 4.87791 16.3004 4.66901L16.1869 4.67444ZM31.7146 4.6599C30.285 7.26867 28.4289 9.01931 25.639 10.197C26.5928 10.8585 27.2495 11.345 28.389 11.618C28.655 11.646 28.9291 11.6948 29.1963 11.6975C32.5223 11.7303 34.6683 8.18353 34.3177 5.12817L31.7146 4.6599ZM11.8527 5.54311C9.70909 6.01172 8.13269 6.86381 7.60305 9.24258C7.51661 9.63075 7.51933 10.0641 7.47531 10.461L7.18267 12.7648L6.24573 18.5072L4.36567 28.6031C4.0288 30.3644 3.34259 31.7482 5.63608 32.4539L7.30183 33.0292C7.38948 33.0646 7.52425 33.1409 7.61509 33.1439L13.048 21.3654L11.6293 18.1849C11.334 17.5039 10.123 14.6081 10.3273 13.8926L10.3346 13.8656C10.4485 13.4809 10.936 13.1995 11.3248 13.3294L11.4174 13.3691C11.6536 13.4745 11.8103 13.7052 11.8961 13.9429L12.498 15.7924L14.8205 21.3049C14.8987 21.5659 15.0353 21.8374 15.1439 22.0879L15.604 23.2501C16.1475 24.8212 16.2227 25.822 16.2116 27.4341C16.2068 28.1271 16.1444 28.791 16.0393 29.4759C15.9539 30.0326 15.8237 30.5872 15.6648 31.1274L14.4504 34.6464C14.3772 34.8515 13.8587 36.1442 13.9088 36.2775C15.4565 37.0289 18.6389 37.5441 20.3022 37.7205L21.5511 37.8331C21.6765 37.8443 21.7934 37.8733 21.9216 37.8798L26.0856 37.8806C26.289 37.8707 26.4868 37.8349 26.6891 37.8201L29.6715 37.4716C31.2247 37.211 32.6978 36.7539 34.2029 36.3089C34.092 35.934 33.9397 35.5664 33.808 35.1978L33.121 33.2355C32.4204 31.3357 31.9892 30.2179 31.8412 28.212C31.5729 25.9103 32.0779 24.3366 32.8738 22.258L35.2295 16.5172L35.9695 14.3439C36.0451 14.1098 36.1064 13.8071 36.2588 13.6087C36.6171 13.1423 37.3033 13.2458 37.5948 13.7111L37.6099 13.7346C37.9992 14.3557 36.741 17.2338 36.4674 17.9298C36.2768 18.4147 34.9464 21.2037 34.9724 21.4297C34.979 21.4871 35.0552 21.6139 35.0817 21.6713L39.9618 31.8973C40.1255 32.2425 40.2736 32.6122 40.4628 32.9433L40.5536 33.0928L42.2858 32.4923C42.6237 32.3818 43.0107 32.305 43.3091 32.1041C43.8955 31.7092 44.1695 30.9631 44.065 30.2762L41.6563 17.8343L40.6288 11.4621C40.4679 10.4279 40.4949 9.36234 40.0904 8.38341C39.2822 6.42741 37.9016 5.91938 36.0489 5.54452C36.0269 6.19814 36.0062 6.85528 35.8744 7.49883C35.2964 10.3224 33.0404 12.9986 30.0579 13.3185C27.8381 13.5565 26.8684 13.0212 25.155 11.9193L24.1213 11.22C24.0923 11.2009 24.0328 11.1498 24.0043 11.172C23.6072 11.4804 23.1263 11.7321 22.6989 12.0022C21.054 13.0416 19.9907 13.5645 17.8877 13.2848C14.5393 12.8395 12.1542 9.54942 11.9545 6.31927C11.938 6.05292 12.0806 5.50181 11.8527 5.54311ZM13.3107 37.912L12.0982 41.4743C14.6969 42.3547 18.4059 42.9543 21.1417 43.1251L23.0194 43.2179L27.152 43.1177L28.5452 42.9655C29.863 42.8163 31.1747 42.6244 32.4723 42.3452L34.9623 41.7084L35.895 41.4319L34.7363 37.9163C33.389 38.4807 30.9087 39.0466 29.484 39.2574L25.4921 39.6302L21.6786 39.5687C18.872 39.3888 15.9527 38.9098 13.3107 37.912Z" fill="black"/>
</svg>
