<svg width="48" height="48" viewBox="0 0 48 48" fill="none" xmlns="http://www.w3.org/2000/svg">
<path d="M34.7637 39.9825L27.4573 40.8533L25.4834 40.9385L22.0496 40.9339L20.4495 40.8505L15.3284 40.2926L12.574 39.8533C12.446 39.8376 12.299 39.8352 12.1791 39.7856L12.065 39.7327C11.9087 39.643 11.7789 39.4461 11.7377 39.2734L11.7318 39.2466C11.6669 38.9619 11.7942 38.6966 11.8713 38.4277L13.0612 34.166C13.7176 31.9056 14.1407 30.3256 14.0159 27.907L13.5264 28.0397C12.296 28.3322 10.8215 28.5327 9.54771 28.3812C6.4405 28.0117 3.73269 25.6996 2.00102 23.2149C1.5727 22.6004 1.16118 22.0276 2.14035 21.6402L2.76136 21.394C6.07572 19.9581 7.23686 17.144 8.82466 14.1144L10.547 11.1303C10.7256 10.8441 10.8691 10.5272 11.0645 10.2551C11.6021 9.50648 12.7272 9.09089 13.5354 8.71973L17.0042 7.21837C17.2491 7.10461 17.4747 6.98288 17.7465 6.94336C18.5014 6.98817 18.4111 7.76498 18.4562 8.32392C18.5913 10.0013 19.8543 11.4993 21.4126 12.0676C21.9664 12.2696 22.4859 12.2973 23.0681 12.2984L25.1855 12.2979C27.3089 12.2935 29.1745 10.6689 29.5242 8.57461C29.5862 8.20355 29.5356 7.80609 29.6229 7.44187C29.8327 6.56625 30.781 7.0905 31.249 7.28189L32.9534 7.96762C34.2079 8.45784 36.0161 9.09141 36.874 10.1659C37.0921 10.4392 37.2231 10.7819 37.4111 11.0785C37.7682 11.6424 38.139 12.1931 38.4596 12.7796L40.2416 16.1649C41.6046 18.5745 42.7961 20.4852 45.4807 21.4698C46.0537 21.6799 46.7464 21.993 46.3111 22.7466C45.6704 23.8555 44.4243 25.0996 43.4808 25.9341C41.3944 27.7791 39.0862 28.6953 36.2951 28.3842C35.5098 28.2967 34.7486 28.1015 33.9904 27.8872L33.9781 27.9029C33.9146 28.8604 33.9551 30.1136 34.1254 31.0669L34.3549 32.1077C34.4317 32.4341 34.4991 32.7817 34.6082 33.0986L36.0352 38.0278C36.5311 39.6255 36.4773 39.6957 34.7637 39.9825ZM30.8832 8.62594C30.5263 11.305 28.293 13.4849 25.5855 13.6894C24.8484 13.7451 22.9648 13.7715 22.2614 13.6775L22.162 13.6584C19.5492 13.1286 17.5001 11.4345 17.1145 8.66512L12.3088 10.9028L13.7372 15.645L13.8146 16.0897C13.8723 16.3453 13.852 16.6173 13.9127 16.8696L15.3694 27.2524C15.4098 27.4852 15.3882 27.7629 15.3925 28.001L15.3793 30.0339C15.3702 30.205 15.3366 30.3737 15.3263 30.5445L15.0416 32.2619C15.3161 32.3558 15.597 32.4123 15.8792 32.4756L20.5539 33.1896C21.6792 33.2827 22.8043 33.2976 23.9327 33.2977L26.0315 33.2911C26.2357 33.283 26.4356 33.2426 26.6391 33.2298L27.551 33.1824C28.8209 33.0698 30.0871 32.9047 31.3362 32.6497L33.0063 32.3095C32.5046 30.3231 32.4921 28.1618 32.7512 26.1333L33.4676 22.2309L34.0369 18.0122L34.0693 17.1908C34.1677 15.7577 34.5461 14.6644 34.9849 13.3068C35.2512 12.483 35.4771 11.6341 35.6597 10.7877C34.176 9.82303 32.5138 9.27825 30.8832 8.62594ZM11.3194 12.4575L11.3013 12.4972C11.1186 12.8893 10.8646 13.2822 10.6498 13.6589L9.32341 16.1852C7.66919 19.3614 6.54049 21.1694 3.29329 22.6532L4.15148 23.6622C4.96493 24.5638 5.89844 25.4056 6.92758 26.054C8.63224 27.0953 10.7981 27.2587 12.7234 26.8026C13.1081 26.7114 13.5592 26.6315 13.922 26.4804L12.6829 18.865C12.6028 17.9208 12.5898 16.9611 12.4115 16.0282C12.2716 15.2965 11.6551 13.163 11.3332 12.4667L11.3194 12.4575ZM36.6583 12.4575C36.3894 13.6298 35.8525 14.7346 35.6177 15.9099C35.421 16.8937 35.4162 17.9092 35.315 18.906L34.7394 22.9197L34.1747 26.0258C34.1558 26.1571 34.0791 26.369 34.1178 26.496C36.2919 27.1715 38.5852 27.3795 40.6533 26.2903L41.0953 26.0345C42.09 25.4167 43.0354 24.5592 43.8232 23.6956L44.6978 22.6603C40.9558 20.9708 39.7883 18.3281 37.978 14.7873L37.129 13.2105C36.9869 12.9612 36.817 12.7139 36.6861 12.4613L36.6583 12.4575ZM14.6426 33.5978L14.2316 35.2171C15.329 35.5042 16.4568 35.6839 17.578 35.8447L20.5077 36.1883C20.879 36.2166 21.2531 36.1943 21.6243 36.2143L25.4768 36.2813L27.2999 36.1825L31.0232 35.7557L33.2191 35.3621C33.2879 35.3483 33.3805 35.3435 33.444 35.3164L33.8073 35.2359L33.3629 33.6398C31.8338 33.9753 30.311 34.2809 28.7552 34.4674L27.0305 34.6073C26.775 34.6257 26.5222 34.6634 26.2656 34.6723L21.6565 34.6691L19.7932 34.4992C18.0622 34.3153 16.3243 34.0609 14.6426 33.5978ZM13.8247 36.5513L13.255 38.5509C13.6492 38.6413 14.0542 38.6911 14.4532 38.7544L19.3094 39.376L22.2386 39.5466L25.7868 39.5476L28.6151 39.3658L34.3798 38.632L34.7864 38.574L34.1756 36.5549L31.0105 37.1752L27.6507 37.5713L25.7198 37.6669L21.9945 37.6624L18.4994 37.3735L15.9846 37.0081C15.7114 36.9584 13.9305 36.5439 13.8247 36.5513Z" fill="black"/>
</svg>
