<svg width="48" height="48" viewBox="0 0 48 48" fill="none" xmlns="http://www.w3.org/2000/svg">
<path d="M33.2988 43.2015L27.3579 43.8054C27.2464 43.8164 27.1389 43.8425 27.0253 43.8505L24.9677 43.9447C23.6706 43.9774 22.3627 43.949 21.0692 43.8538L9.33971 42.5787C8.91643 42.5275 8.46686 42.4416 8.34207 41.9533L8.33387 41.9182C8.21561 41.4588 8.55559 40.8553 8.70137 40.4315L10.3475 35.8128C11.7067 32.0678 13.5482 26.8083 12.6669 22.7576C12.461 21.8116 12.0234 20.9953 11.6469 20.1144C10.226 20.978 8.35482 21.5393 7.40115 19.6523C7.1432 19.1417 7.10954 18.5265 6.92828 17.984C6.2379 15.9186 5.16184 14.5395 5.56407 12.2058C5.97381 9.82894 8.11365 8.01633 9.83898 6.52519C11.1281 5.41097 12.5953 4.15535 14.3826 4.04423C14.7504 4.02136 15.1158 4.04862 15.4831 4.00093C15.7542 3.94315 16.1216 4.18695 16.3592 4.28531C18.7117 5.25891 20.9875 5.45095 23.4778 5.45109L25.269 5.44402C27.263 5.36663 29.6772 5.05964 31.5257 4.34367C32.2209 4.0744 32.1531 3.95416 32.9061 4.0241L33.5624 4.05561C35.1422 4.18256 36.3783 5.0565 37.5816 6.0247L38.8475 7.10091C39.9911 8.09231 41.0523 9.12464 41.8113 10.4416L41.9369 10.6946C42.6435 12.0653 42.6528 13.7089 42.2162 15.1675C41.8801 16.2905 41.2256 17.3141 40.9826 18.4626C40.753 19.5477 40.4948 20.505 39.2477 20.8403L39.0045 20.8929C38.2166 21.009 37.0428 20.6321 36.3915 20.1356L36.3738 20.1218C35.5627 21.741 35.1205 22.8923 35.1166 24.7833L35.1244 25.8518C35.1765 26.7808 35.336 28.0583 35.5397 28.9644L35.9067 30.5393C35.9375 30.6528 35.9723 30.7824 36.014 30.8925L36.0943 31.1487C36.1971 31.4076 36.2868 31.699 36.3554 31.969L36.8215 33.4104C36.8811 33.6128 36.9724 33.8106 37.0377 34.0125L39.4812 40.9338C39.566 41.163 39.6963 41.436 39.7201 41.6794C39.8045 42.5432 38.6341 42.6014 38.0673 42.6542L33.2988 43.2015ZM14.6302 5.65805L14.0345 5.73919C11.921 6.22903 8.57884 9.60047 7.52326 11.3297C6.98396 12.2131 6.88323 13.6001 7.25692 14.5536L8.15654 16.8401C8.30514 17.2211 8.43737 17.5988 8.55962 17.9885C8.77136 18.6634 8.70437 19.4985 9.67956 19.317L9.70534 19.313C9.87292 19.2854 10.0431 19.1961 10.1944 19.1209L11.0257 18.682C10.5903 17.1366 10.8286 15.6743 11.5994 14.2936C11.8611 13.8249 12.2616 13.01 12.9257 13.1885L12.9586 13.197C13.1679 13.2542 13.3082 13.3759 13.4192 13.5588L13.4345 13.5834C13.7762 14.1451 13.3259 14.5317 13.0614 15.0052C12.8014 15.4704 12.572 15.9495 12.4704 16.4768C12.1066 18.3645 13.2515 19.4093 13.7982 21.0588L14.1912 22.4209C14.281 22.7118 14.4032 23.6343 14.4172 24.0002L14.4347 24.9796C14.438 27.0401 14.1272 29.0897 13.592 31.0784L12.8012 33.6507L19.0808 34.3458C20.2999 34.4751 21.5302 34.6131 22.7571 34.6427L25.3825 34.6387L27.6561 34.4915L35.2265 33.6574L34.3435 30.7699C33.4873 27.5528 33.0032 23.1397 34.6003 20.1361C34.905 19.5631 35.2252 18.9693 35.4236 18.3508C35.7363 17.1093 35.567 16.0275 34.9111 14.9264C34.7049 14.5802 34.3564 14.2763 34.4527 13.8368C34.5477 13.4031 34.9667 13.0745 35.4178 13.1885C35.8313 13.293 36.1075 13.7905 36.3068 14.1374L36.6827 14.8584C36.7728 15.0616 36.8688 15.2636 36.9309 15.4778L37.0403 15.8718C37.2013 16.7208 37.2488 17.5809 37.0696 18.4333C37.0152 18.6918 36.961 18.6586 37.2143 18.7949C37.6318 19.0193 38.3268 19.487 38.8164 19.3129C39.307 19.1383 39.5065 17.699 39.7029 17.1458C40.03 16.2238 40.4995 15.3527 40.7517 14.4033C41.3783 12.0437 40.0907 10.501 38.4724 8.96883C37.6725 8.21147 36.8618 7.49597 35.9815 6.83166C34.8299 5.9625 34.6371 5.92945 33.3357 5.65059C33.2828 5.90925 33.244 6.15427 33.1687 6.40899L32.8335 7.39477C31.7554 10.3617 29.2587 14.3452 26.8944 16.3054L25.11 17.5072L25.9726 19.5188C26.1122 19.9209 26.3272 20.3015 26.4596 20.7073L26.4737 20.7389C26.7475 21.45 25.5982 22.1177 25.1076 21.4124C24.8214 21.0009 24.6352 20.4553 24.442 19.9924L23.98 18.9063L23.3374 20.5335C23.2215 20.8167 23.1073 21.1608 22.9386 21.4149C22.5905 21.9391 21.7999 21.7671 21.5696 21.2332C21.3934 20.8247 21.7393 20.2039 21.9022 19.8255L22.8914 17.5103C21.1868 16.4352 19.806 15.3296 18.5172 13.7957L17.8209 12.9495C16.4678 11.1277 15.4682 8.99311 14.9603 6.78216L14.75 5.66667C14.6952 5.64324 14.6869 5.65078 14.6302 5.65805ZM16.4043 6.00947C16.4826 6.28284 16.5299 6.58749 16.6311 6.85073L17.0181 8.06274C17.9574 10.575 19.5428 12.7719 21.5892 14.4983C22.3537 15.1432 23.1911 15.703 23.9333 16.3763C24.3363 16.0721 24.7966 15.8444 25.208 15.5482C26.4932 14.6229 27.5456 13.4501 28.4531 12.16C29.7422 10.225 30.8628 8.21222 31.6277 6.00947C29.864 6.62414 27.4768 6.95869 25.5832 7.03472L21.863 7.03842L21.002 6.95873C19.5972 6.83639 17.7208 6.57506 16.4043 6.00947ZM12.2819 35.1539L11.4629 37.45L20.4725 38.4627C20.8445 38.4961 21.2161 38.569 21.5892 38.5823L26.1591 38.5797L35.7424 37.5537L36.5839 37.4923C36.3337 36.7195 35.9542 35.9637 35.7714 35.17L26.8891 36.1617L25.0897 36.2584L22.8786 36.2595C22.5573 36.2527 22.2327 36.2061 21.9107 36.189L12.8762 35.2442C12.6843 35.223 12.4653 35.214 12.2819 35.1539ZM10.8935 38.9834L10.1582 41.0835L21.4539 42.2873L22.4913 42.3226C23.3912 42.3668 24.0567 42.3624 24.9365 42.3219L26.3395 42.2838L37.1896 41.1614L37.8796 41.0942L37.1147 38.9943C36.4222 39.043 35.7296 39.1727 35.0392 39.2494L27.2342 40.1052L24.1425 40.1972L20.4386 40.0755L12.5975 39.1875C12.0351 39.1276 11.4479 39.094 10.8935 38.9834Z" fill="black"/>
</svg>
