<svg width="48" height="48" viewBox="0 0 48 48" fill="none" xmlns="http://www.w3.org/2000/svg">
<path d="M29.7272 42.0907C29.1617 41.547 28.9353 40.5735 28.6286 40.3733C28.0299 39.9824 27.3805 40.4733 26.8577 40.7399C25.2143 41.5775 23.1922 41.725 21.5123 40.8829C20.998 40.6251 20.3107 40.1178 19.7091 40.2565L19.6757 40.2648C19.2102 40.3759 19.1357 40.6348 18.9849 41.0415C18.5723 42.1542 17.5704 42.8263 16.3882 42.824C14.2879 42.8199 12.8945 40.814 12.4223 38.9631L11.0167 38.7658C9.97952 38.5327 6.04305 37.2841 6.32495 35.7756L9.97661 20.365L12.2717 9.39319C12.2975 9.20962 12.2952 9.02259 12.3377 8.84156C12.6423 7.5419 13.7205 6.44344 15.0769 6.30801C15.3643 6.27933 15.662 6.32503 15.9491 6.30108C16.1011 6.28842 16.4979 5.27217 17.7663 5.16567C18.5566 5.01698 19.3305 5.50265 19.7671 6.12595C20.5104 7.1872 21.5035 7.42345 22.6703 7.64531L22.7168 7.65478C23.1789 7.73901 24.5466 7.71895 25.0455 7.67883C25.9917 7.60275 27.0354 7.26651 27.7733 6.65719C28.1744 6.32606 28.3435 5.83453 28.7853 5.54025C29.2641 5.22131 29.8902 5.07567 30.4593 5.19337L30.6531 5.23711C31.0958 5.36728 31.6621 5.7008 31.8885 6.12037C32.0409 6.4028 32.266 6.29653 32.5515 6.30051C33.8052 6.318 35.0556 7.11965 35.497 8.31314C35.5735 8.51981 35.5985 8.72062 35.6536 8.93006L38.8955 24.1097C38.9677 24.6183 39.1725 25.1255 39.265 25.6364L40.6762 31.5371C40.6828 31.5769 40.6897 31.611 40.7024 31.6496L41.4408 34.7272C41.5723 35.4675 41.7994 35.8302 41.4054 36.5344C40.4113 38.3104 38.7408 39.3411 36.699 39.5337C36.2742 39.5737 35.843 39.5631 35.4166 39.5768C35.354 39.659 35.3265 39.7737 35.2851 39.8686C34.563 41.5245 33.9457 42.1349 32.3526 42.7594L32.3111 42.775C31.4821 43.034 30.3562 42.6523 29.7272 42.0907ZM29.9629 6.68315L29.9253 6.69614C29.6191 6.80344 29.5144 7.03739 29.3186 7.27805C27.9721 8.93301 25.864 9.26184 23.871 9.2594C22.0024 9.25706 20.0345 8.86547 18.7788 7.36397C18.627 7.18233 18.478 6.90389 18.2831 6.77531C17.9177 6.53433 17.0897 6.81769 17.3507 7.53178C17.4633 7.84003 17.6377 8.16736 17.8144 8.44495C18.3896 9.4298 19.5189 10.2819 20.6339 10.5826C21.3514 10.7761 22.1364 10.7081 22.8754 10.7084L24.5536 10.7078C24.8944 10.7074 25.2423 10.7214 25.5818 10.6923C27.5391 10.5242 30.2305 9.42098 30.7269 7.29145C30.809 6.93914 30.2394 6.66286 29.9629 6.68315ZM32.1811 7.86323C31.1397 10.3094 29.3588 11.5304 26.8394 12.0652L25.8032 12.2369C25.5776 12.278 25.3334 12.262 25.1046 12.2626L23.9349 12.264C24.0496 13.0313 24.2585 13.8227 24.5181 14.5546L24.7052 15.0937L26.2517 18.375C27.3442 20.3199 28.7283 22.1804 30.1757 23.8722C30.4769 24.2243 30.744 24.6226 31.0686 24.9497L31.3476 21.3988L31.869 18.5742C32.1069 17.0587 32.1535 15.5388 32.1595 14.0094C32.1617 13.4516 32.088 12.7753 32.7773 12.5889C33.115 12.4975 33.4056 12.6701 33.5817 12.9492L33.6042 12.984C33.7248 13.1762 33.7 13.3661 33.7 13.583L33.6769 15.9288C33.6686 16.1002 33.636 16.2659 33.6235 16.4357L33.3716 18.8212C33.1868 20.1472 32.8611 21.4351 32.7206 22.7695L32.6275 23.9789L32.5975 25.9384C32.5973 26.276 32.5699 26.6413 32.617 26.9748L32.6326 26.9909C33.3781 27.7702 34.3382 29.4132 34.7191 30.3668L35.1913 31.57C35.4638 32.2268 35.6679 33.001 35.7759 33.6997L35.8948 34.7278C35.9365 35.0449 35.9183 35.3869 35.92 35.7075L35.8949 37.0581C35.8767 37.3743 35.8522 37.7023 35.7924 38.0138C36.1023 38.0053 36.4262 38.0129 36.7334 37.9738C38.0576 37.805 39.5553 36.9975 40.096 35.7046L36.1049 18.7808L34.2494 9.86714C34.148 9.16992 34.0953 8.55122 33.4335 8.13126L33.2661 8.04248C32.9448 7.88564 32.5331 7.8719 32.1811 7.86323ZM15.4352 7.88381C14.8161 7.96312 14.2502 8.17875 13.9642 8.76558L13.9434 8.80776C13.786 9.13059 13.7953 9.50475 13.7401 9.85256L12.4421 16.3007L11.6063 20.0561L7.89217 35.7298C8.69261 36.5437 11.0851 37.2666 12.1461 37.3577C12.0543 36.4883 12.0436 35.423 12.1132 34.5499C12.3145 32.025 13.4024 30.0844 14.2855 27.7802C15.0388 25.8146 15.3387 23.5795 15.0875 21.4932C14.9626 20.4555 14.689 19.4377 14.5552 18.3984L14.4178 17.0745C14.4006 16.8984 14.3627 16.7244 14.3533 16.5471L14.2751 13.7085C14.2727 13.2332 14.261 12.846 14.789 12.6312L14.8183 12.6184C15.4018 12.3737 15.8148 12.9427 15.8183 13.5124L15.8307 15.3551C15.8358 15.6281 15.888 15.8806 15.9038 16.1466L15.9452 17.0859C16.0416 18.1986 16.2522 19.2946 16.4633 20.3885C16.9382 22.85 16.7032 25.4034 15.9035 27.7744C15.3335 29.4643 14.4302 31.0208 13.9832 32.7572C13.669 33.9779 13.4274 36.4371 13.7295 37.6952C14.0367 38.9746 14.2937 40.5028 15.6734 41.1314C16.3312 41.431 17.1918 41.3229 17.5064 40.5937C17.5867 40.4076 17.644 40.2135 17.7336 40.0304C18.1962 39.084 19.1583 38.585 20.1913 38.7097C20.8307 38.7868 21.4072 39.0886 21.9702 39.389C23.034 39.9565 24.4159 40.0854 25.5477 39.6246C26.021 39.4319 26.4517 39.1489 26.9239 38.9637C28.408 38.3511 29.7638 38.7501 30.3917 40.2921L30.6062 40.7613C30.7218 40.9757 30.9901 41.1799 31.2267 41.2417L31.3096 41.2581C33.2594 41.6064 34.0602 39.0009 34.3038 37.5525C34.7974 34.6166 33.7633 31.1591 32.0497 28.7936L29.0665 25.014C26.3171 21.5878 22.9279 16.8103 22.396 12.283C21.6925 12.2222 21.2602 12.3026 20.5404 12.1319L20.86 13.5365C20.9453 13.8718 21.0249 14.2176 21.1427 14.5429L22.0137 16.837C23.3817 19.9838 25.3 22.7381 27.4181 25.4242L30.9511 29.9119C31.1333 30.1647 31.2894 30.4486 31.143 30.7617C30.778 31.542 30.064 31.3144 29.6304 30.7267L24.471 24.0626L23.7018 23.0063C21.5206 19.8303 19.8274 16.3127 19.0542 12.5273C18.7764 11.1667 19.12 11.7436 18.0887 10.9804C17.1763 10.3051 16.3198 9.2902 15.9683 8.19576L15.8814 7.87603C15.7376 7.87669 15.5764 7.8629 15.4352 7.88381Z" fill="black"/>
</svg>
