<svg width="48" height="48" viewBox="0 0 48 48" fill="none" xmlns="http://www.w3.org/2000/svg">
<path d="M31.8575 39.1568L13.515 39.1592C12.0538 39.1631 12.4464 38.0491 12.6279 36.9964L13.8918 31.0615C11.3084 30.8225 9.56183 29.8767 7.86683 27.9138C7.68369 27.7017 7.46178 27.4759 7.38421 27.1998L7.35646 27.0974C7.22417 26.5059 7.96433 26.1844 8.33052 25.899C9.64813 24.8718 10.0918 23.5322 10.4554 21.9649L11.8605 16.3659C12.1018 15.3611 12.2362 14.381 12.7775 13.4769C13.52 12.2366 14.623 11.2351 16.0517 10.879L16.6749 10.7391C16.9835 10.6775 16.9187 10.6063 17.0978 10.351L17.689 9.57602C17.9848 9.18789 18.1621 8.87125 18.6585 8.74647C19.2608 8.71535 19.6227 9.18841 20.0372 9.55108C22.4065 11.624 25.1614 11.8446 27.591 9.87255L28.1957 9.34975C29.1854 8.44117 29.5349 8.53103 30.3448 9.58694L30.9527 10.391C31.1768 10.7089 31.0388 10.6837 31.4209 10.7581L32.0353 10.9008C33.6027 11.3359 35.1418 12.7392 35.6398 14.3216L38.024 23.6793C38.3033 24.4919 39.2611 25.8535 40.1251 26.1815C40.5457 26.3411 40.8478 26.8131 40.627 27.2547L40.6134 27.2815C40.455 27.6158 40.1807 27.9031 39.934 28.1754C38.3529 29.9211 36.4781 30.9231 34.1297 31.0404C34.1667 31.3705 34.2839 31.7275 34.3605 32.0511L35.2133 35.9453C35.2551 36.1929 35.2965 36.4397 35.3385 36.6876L35.5373 38.1923C35.6081 39.326 34.7098 39.1577 33.8695 39.1563L31.8575 39.1568ZM29.1919 10.5186C28.1592 11.4449 27.0937 12.1272 25.7462 12.5198C25.4338 12.6108 25.1015 12.6304 24.7953 12.7244L25.6761 14.098C25.8992 14.4363 26.1149 14.7848 26.3737 15.0974C26.6055 15.4179 26.8884 15.8706 27.2635 16.0235C29.4283 15.6143 30.6654 12.2185 29.1919 10.5186ZM18.8448 10.5507C17.3105 12.1801 18.6366 15.6145 20.7142 16.0259C21.1229 15.8613 21.3782 15.4465 21.6272 15.0983L23.1979 12.7098C21.5141 12.5135 20.0825 11.6709 18.8448 10.5507ZM31.3704 12.2804C31.2614 12.7627 31.2346 13.2607 31.118 13.7459C30.7314 15.3553 28.907 17.9098 26.9884 17.4885L26.9477 17.4798C26.5146 17.3839 26.2011 17.1791 25.9158 16.8444C25.8277 17.0098 25.9026 17.6207 25.9078 17.8407L25.9179 20.7471C25.9183 21.3541 25.949 21.9775 25.9138 22.5817C25.7836 24.8219 22.327 24.9648 22.095 22.5697C22.0393 21.9947 22.0818 21.3794 22.0822 20.8007L22.0534 16.9402C21.0971 17.9973 19.3796 17.4071 18.4958 16.5642C17.3784 15.4984 16.7149 13.8229 16.6769 12.2912C15.5505 12.5525 14.7162 13.1818 14.0993 14.1746C13.5959 14.9846 13.5115 15.9177 13.2775 16.8218L11.5625 23.6136C11.2057 24.95 10.3718 26.3257 9.22897 27.1158C10.1055 28.3041 11.6621 29.2261 13.1036 29.4427L14.233 29.5629C14.2865 29.1678 14.4102 28.7839 14.5031 28.3968C15.0768 26.0069 15.1832 24.5995 14.9142 22.1087L14.7962 21.1836C14.771 21.0046 14.7343 20.8381 14.7269 20.6561C14.6972 19.9331 15.9341 19.2914 16.2306 20.8356C16.3103 21.2505 16.354 21.6689 16.3881 22.0901L16.51 23.9179C16.5607 25.5288 16.4374 27.2209 15.9505 28.7638L14.1581 36.7503L14.0341 37.6466L33.9794 37.6144C33.9482 37.4534 33.9429 37.2864 33.9182 37.1236L31.7662 27.4573C31.4286 25.9321 31.4039 24.3629 31.5179 22.808L31.6702 21.4272C31.7128 21.0682 31.7233 20.4936 31.9494 20.2016C32.2088 19.8664 32.6851 19.8157 33.0063 20.0898C33.3608 20.3924 33.2872 20.8869 33.198 21.2875C33.0899 21.7737 33.0345 22.324 32.9986 22.8244L32.9505 24.643C32.9516 25.0489 32.9391 25.498 33.0034 25.8987L33.5714 28.6701C33.6275 28.9478 33.7029 29.2913 33.8175 29.5496C35.7715 29.4938 37.5578 28.6909 38.8063 27.1461L38.543 26.935C36.7943 25.6583 36.3942 23.4164 35.8985 21.4612L34.7344 16.8301C34.2861 15.025 34.047 13.2531 31.9689 12.4719C31.775 12.3991 31.5581 12.3614 31.3704 12.2804ZM23.892 15.1058L23.8577 15.1374C23.7831 15.2035 23.6731 15.1946 23.5781 15.2029L23.5753 21.7462C23.575 22.0895 23.4466 22.8318 24.0001 22.8288L24.1213 22.812C24.4974 22.6039 24.4216 22.458 24.4216 22.0688L24.4223 15.31C24.2496 15.2435 24.0529 15.1947 23.892 15.1058Z" fill="black"/>
</svg>
