<svg width="48" height="48" viewBox="0 0 48 48" fill="none" xmlns="http://www.w3.org/2000/svg">
<path d="M29.1407 44.1063C28.9336 44.163 28.6318 44.1617 28.4271 44.0983L28.218 44.0292C27.4704 43.7267 27.2899 43.0605 27.0599 42.3606L26.7296 41.3941C26.6011 40.9756 26.4911 40.5266 26.3254 40.1227L21.9151 40.1367C21.5864 40.1403 21.6853 40.1947 21.5511 40.4976L20.902 41.9778C20.6667 42.5653 20.5261 43.2818 20.0134 43.7008C19.3356 44.255 18.8475 44.1954 18.1146 43.8899L13.1943 41.8339C11.7903 41.2414 11.3566 41.5249 11.6183 39.6683L12.0763 37.059C12.1335 36.6274 12.0617 36.1777 12.1251 35.7462L13.0196 31.9072C13.1708 31.1991 13.2545 30.4713 13.3398 29.7534L13.5168 28.0316L13.5348 24.5628L13.4463 23.6188C13.1919 20.8635 12.6808 17.9715 10.9204 15.7466C10.1654 14.7924 9.69708 14.6994 10.6372 13.7C12.0665 12.1805 12.7507 10.0513 12.5728 7.98669C12.4495 6.55677 12.1132 6.36299 13.8063 5.93567C14.8494 5.67238 16.2312 5.20124 17.1728 4.70628L18.0229 4.20404C18.2334 4.07132 18.4299 3.93423 18.6651 3.84795C19.3383 3.82266 19.5272 4.18257 19.7158 4.79328L19.988 5.42609C20.6111 6.65459 22.1153 7.57344 23.4578 7.68833C25.5219 7.86491 27.5213 6.74928 28.2896 4.80645C28.4109 4.49969 28.4073 4.22744 28.6939 3.99912C29.0665 3.7022 29.4471 3.84295 29.805 4.05105L30.3806 4.37555C31.5591 4.99906 32.8075 5.42947 34.0854 5.79453C34.5198 5.91861 34.9958 5.96905 35.3049 6.33748L35.3537 6.3995C35.6293 6.77642 35.5378 7.35402 35.4668 7.78714C35.3266 8.64097 35.3517 9.74792 35.64 10.5808L35.7327 10.8935C36.0984 11.884 36.4741 12.5966 37.1463 13.4385C37.4461 13.8141 38.0399 14.1888 37.8466 14.7597L37.8353 14.7904C37.7686 14.9775 37.6418 15.1097 37.5122 15.2549L36.471 16.5706C35.1954 18.4533 34.7782 21.102 34.5486 23.3068L34.4494 24.1995L34.4605 28.1488L34.6037 29.8165L35.1396 32.9013C35.16 33.0167 35.2081 33.1199 35.2318 33.2344L35.5383 34.2882C35.7309 34.8575 35.8101 35.6024 35.8525 36.1945C35.8734 36.4868 35.8161 36.857 35.9221 37.1345C36.2619 38.0245 36.3738 39.2414 36.3868 40.1772C36.4048 41.48 36.3027 41.3904 35.0162 41.8554L30.4985 43.6066C30.0468 43.7787 29.6039 43.9665 29.1407 44.1063ZM30.0136 5.98738C29.9354 6.50825 29.936 7.04356 29.852 7.56411C29.5034 9.72542 28.8845 12.275 28.1565 14.3511L26.944 17.215C26.6587 17.7726 26.3589 18.3397 26.0154 18.8638L24.8727 20.5228C24.6908 20.7496 24.7574 20.9306 24.7561 21.212L24.7459 33.5399C24.7417 33.839 24.8534 33.9429 24.9972 34.1982L25.8117 35.6417L27.0467 38.2642C27.2326 38.6689 27.4272 39.1124 27.6568 39.4933L30.7347 38.07L34.2738 36.5064C34.149 35.3916 34.024 34.8514 33.7452 33.7703C33.2395 31.81 32.9911 29.8363 32.8952 27.8154L32.8977 24.1641C32.9145 23.8735 32.9679 23.5867 32.9936 23.2972L33.0336 22.6953C33.3462 19.996 33.933 17.1021 35.68 14.9363L36.0262 14.5552C34.4953 12.934 33.7792 10.5446 33.8424 8.35578L33.9393 7.41702L30.0136 5.98738ZM17.9716 6.11759C16.9941 6.611 16.0042 6.93814 14.9609 7.25595L14.1007 7.55024C14.424 9.89141 13.7097 12.3775 12.2689 14.2309C12.1893 14.3332 12.0745 14.4312 12.0144 14.5432C13.5648 16.5449 14.3876 18.919 14.7703 21.4016L15.1082 24.6566C15.2368 27.0673 15.022 29.7177 14.5885 32.0857C14.3185 33.5608 13.8087 34.9714 13.6543 36.4723C13.8241 36.5704 14.0122 36.6375 14.1932 36.7122L17.2863 38.0848L20.3003 39.5453C20.9658 37.5612 22.0989 35.3859 23.1964 33.6214L23.2111 33.5981C23.3022 33.4389 23.2513 33.1894 23.2516 33.0138L23.2513 20.8976C23.2508 20.3058 23.2057 20.4117 22.8738 19.9847L22.393 19.348C21.2407 17.7766 20.3309 15.7918 19.7073 13.9549L18.3973 9.03547L18.0351 6.78589C18.0054 6.5652 18.0166 6.33514 17.9716 6.11759ZM19.7305 7.67609C19.7449 7.85947 19.9273 8.82763 20.0055 9.03186L21.2064 13.3011C21.6481 14.7638 22.3388 16.1431 23.1204 17.4523L23.1538 17.4027L23.1785 9.2877L22.5644 9.1738C21.467 8.9173 20.7151 8.46533 19.8755 7.76609C19.8282 7.72677 19.7932 7.68158 19.7305 7.67609ZM28.1893 7.69428L27.6396 8.13284C26.8531 8.69966 25.7967 9.23764 24.7996 9.27102L24.7463 17.1385C24.7355 17.4324 24.6784 17.7587 24.7101 18.0501L25.9178 15.6097C26.8016 13.6147 27.4402 11.4207 27.8897 9.28911L28.1291 8.14813C28.1525 8.00544 28.1928 7.8387 28.1893 7.69428ZM23.9366 35.5274C23.7038 35.9537 22.4626 38.1752 22.4364 38.5547L23.9232 38.5557L25.4346 38.552C25.199 37.9355 24.3602 36.051 23.9366 35.5274ZM34.5215 38.1683L28.2325 41.0169L28.7131 42.3693L28.8248 42.578C29.1847 42.4668 29.5289 42.3093 29.8791 42.1715L34.3921 40.383C34.5306 40.3303 34.6731 40.2957 34.7946 40.2077C34.7886 39.6755 34.791 38.6257 34.5806 38.1513L34.5215 38.1683ZM13.5102 38.1635L13.1622 40.0804L18.9899 42.5454L19.0904 42.288L19.6378 40.9783L13.5102 38.1635Z" fill="black"/>
</svg>
