<svg width="48" height="48" viewBox="0 0 48 48" fill="none" xmlns="http://www.w3.org/2000/svg">
<path d="M33.0687 44.8779L32.9113 44.9733C31.5352 45.7824 27.33 46.369 25.7216 46.4733C25.2403 46.5045 24.742 46.4814 24.2589 46.481L22.7635 46.4752L20.5545 46.288C19.3463 46.145 17.5521 45.8265 16.3686 45.5136C14.3883 44.9901 12.7323 43.176 12.4965 41.1179C12.4228 40.4749 12.5101 39.6448 12.5975 38.9867L12.8913 37.0277C13.2223 35.1105 13.6818 33.2095 14.2101 31.3375L15.8589 26.1424C15.9798 25.8032 15.9448 25.9158 15.7653 25.5934L7.98574 11.6973C7.53231 10.9018 6.9482 10.1676 6.80045 9.23649C6.5972 7.95549 7.18835 6.69127 8.24819 5.96452C8.76438 5.61056 9.36681 5.36747 9.92974 5.09733L12.8506 3.68417C13.0967 3.56615 13.0907 3.56113 13.2129 3.32266C13.7405 2.29244 14.6639 1.70396 15.8094 1.53088C17.1972 1.49531 16.9303 1.63674 18.0935 2.31797C21.487 4.30537 25.8805 4.50674 29.3658 2.61189L30.1506 2.15587C30.3901 2.02573 31.1516 1.5869 31.293 1.55154C32.556 1.23562 34.0829 2.1125 34.7107 3.21207C34.8472 3.45111 34.8386 3.55536 35.0898 3.67385L37.8574 5.00799C39.2034 5.62927 40.652 6.14171 41.0974 7.73752C41.5225 9.26011 40.8613 10.2489 40.1365 11.4884L32.0374 25.9607L32.8881 28.4294L34.2023 32.9018C34.2603 33.2078 34.3464 33.532 34.4305 33.8317L34.9223 36.0583C35.2351 37.4346 35.6662 40.1102 35.4325 41.4516L35.4207 41.5203C35.1578 42.9197 34.2185 44.0918 33.0687 44.8779ZM31.8037 3.11061L31.1663 4.6031C30.0732 6.89414 28.5123 9.40791 26.5523 11.0573C26.2227 11.3347 25.8617 11.5423 25.5131 11.7881L26.504 12.4803C26.8738 12.7538 27.2062 13.0613 27.5423 13.3739L28.0325 13.8617C28.4006 13.6942 28.7823 13.6191 29.1517 13.4693C30.5522 12.9018 30.8809 11.2305 31.1268 9.91374C31.3514 8.7106 31.6152 7.50595 32.2821 6.45947C32.7018 5.80083 33.4297 5.20219 33.3968 4.35544C33.3632 3.49016 32.5052 3.21411 31.8037 3.11061ZM16.023 3.14817C15.5614 3.21937 15.0302 3.38293 14.7466 3.78483C14.1482 4.63273 15.0869 5.62355 15.5594 6.2692C15.884 6.71283 16.1803 7.28756 16.3342 7.81608L16.927 10.1954C16.9999 10.6124 17.0541 11.0512 17.2041 11.4489L17.3787 11.8884C18.4176 14.106 19.7537 13.1212 20.3011 14.0153L20.3255 14.0545C20.5281 14.389 20.3382 14.8481 20.4836 15.2223C20.8921 16.273 21.6711 17.0046 22.8865 16.6663C23.4064 16.5216 23.8676 15.9901 24.4411 16.2988C24.6138 16.3918 24.6864 16.5498 24.8219 16.6777C25.1357 16.9735 25.5648 17.2458 25.9601 17.4202C26.6839 17.7104 27.7648 17.8845 27.6021 16.7811C27.3609 15.1452 26.167 14.0712 24.823 13.2371L23.0154 12.1637C20.3113 10.4601 18.5193 8.11749 17.1069 5.24784L16.4366 3.76832C16.3548 3.57643 16.2837 3.31135 16.1717 3.14128L16.023 3.14817ZM18.4771 4.3049C18.5853 4.5868 18.7353 4.83806 18.871 5.10684C19.8138 6.97495 21.7558 9.76449 23.7493 10.6622L24.0024 10.7633C25.5316 10.0009 26.5174 8.96531 27.5148 7.63074C28.2727 6.62245 28.9527 5.49685 29.4755 4.34781L29.4492 4.3616C26.8235 5.7157 22.6913 5.79802 19.887 4.88292C19.4321 4.73447 18.8817 4.55984 18.4771 4.3049ZM13.1111 5.3317L10.041 6.81286C9.379 7.13152 8.7468 7.34555 8.46911 8.08927L8.37677 8.41102C8.24692 8.88089 8.45045 9.31936 8.67114 9.71963L16.801 24.1989C17.7366 25.9171 17.754 25.5208 17.1678 27.2249L15.5128 32.5685L14.8612 35.2109C14.7927 35.5145 14.8206 35.4831 15.1096 35.6439C16.069 36.1779 17.0317 36.6985 18.071 37.0658C22.0024 38.4552 27.0877 38.3509 30.9373 36.6547L32.0912 36.0836C32.467 35.8879 32.8495 35.6935 33.1999 35.4546L31.8475 30.3845L30.9135 27.536C30.4544 26.1748 30.1617 26.2023 30.8095 24.8903L38.6004 10.9532C39.0236 10.209 39.8278 9.26283 39.613 8.34342C39.5177 7.93524 39.3223 7.54627 38.9575 7.3178L34.8294 5.31952C34.6289 6.02747 34.2348 6.48103 33.8091 7.04274C32.751 8.43886 32.8413 10.1206 32.3867 11.7067C31.9514 13.2252 30.8911 14.707 29.2849 15.0943C29.1929 15.1164 28.9151 15.1389 28.8551 15.1934L29.0982 15.9925C29.219 16.348 29.2222 16.7405 29.2218 17.1098C29.2203 18.7527 27.7952 19.3198 26.3246 19.1616C25.8077 19.1059 25.3142 18.9057 24.8722 18.6388L24.0228 18.0095C22.003 18.782 19.8574 18.1138 19.0526 16.0075L18.9682 15.7637C18.8923 15.542 18.8701 15.3227 18.8369 15.0937C16.9504 14.6216 15.9362 13.1593 15.523 11.2946L15.3603 10.4245C15.1315 9.29138 14.9088 8.06602 14.2035 7.11741C13.8467 6.63764 13.4857 6.22791 13.2715 5.66091C13.2343 5.56242 13.2334 5.3783 13.1384 5.32481L13.1111 5.3317ZM14.4797 37.113C14.4261 37.2579 14.4186 37.4087 14.3986 37.5606L14.115 39.68C14.0446 40.2567 13.9923 40.776 14.1555 41.3434L14.2586 41.6463C14.5257 42.4957 15.2526 43.2944 16.0311 43.6899C16.9148 44.139 19.9679 44.6119 20.972 44.7233L21.7689 44.8126C23.8453 44.98 25.7937 44.905 27.867 44.6196L29.742 44.2728C31.3335 43.9691 32.4648 43.7423 33.4009 42.3189C34.1409 41.0169 33.9571 40.2346 33.773 38.8122C33.7001 38.2487 33.6333 37.6624 33.5183 37.1065C30.6385 38.8213 27.4835 39.5832 24.1466 39.5864L22.4597 39.5535C20.2118 39.4008 17.9702 38.8637 15.9411 37.8771L14.9007 37.3425C14.8002 37.2879 14.5807 37.1195 14.4797 37.113Z" fill="black"/>
</svg>
