<svg width="48" height="48" viewBox="0 0 48 48" fill="none" xmlns="http://www.w3.org/2000/svg">
<path d="M35.0172 36.3333L35.8083 40.3526C35.9566 41.3164 35.4251 41.5375 34.5535 41.7282L30.7385 42.375C29.6497 42.5447 29.3635 42.6403 28.3846 43.0499C26.8775 43.6806 25.5368 43.7037 23.957 43.7041C22.7751 43.7043 21.5907 43.7004 20.4432 43.3693C19.7777 43.1773 19.1987 42.7938 18.5241 42.6191C18.0159 42.4876 17.4927 42.4234 16.9747 42.3445L13.5557 41.7324C12.1162 41.4205 12.0755 41.21 12.2817 39.9317L13.9555 31.4882C14.1274 30.4318 14.1648 29.3684 14.1927 28.3014L14.1872 25.8575C14.1495 24.6431 14.071 23.4412 13.9104 22.2365L13.747 21.1602C13.7052 20.9484 13.7327 20.9696 13.5553 20.8508L7.66599 16.6596C7.15843 16.2811 6.6541 16.0896 6.65528 15.383C6.65781 13.8727 7.51098 12.5042 9.02213 12.0742L9.89682 10.2925C11.0049 8.23881 12.1224 6.97609 14.4485 6.24358C15.503 5.91147 16.1831 5.76156 17.051 5.05806C17.3389 4.82472 17.5097 4.63845 17.8753 4.55095C18.2294 4.52281 18.5402 4.68756 18.7283 4.98836L18.745 5.0155C18.885 5.23783 18.8805 5.54237 18.7719 5.77623L18.7547 5.81237C18.6263 6.09081 18.2175 6.31141 17.9757 6.49211C17.9559 6.98547 18.1423 7.94205 18.2964 8.38792L18.6452 9.3775C19.3084 10.9854 20.6663 12.8592 22.4299 13.3523C23.5542 13.6667 23.2017 14.1205 22.9503 14.8928C22.8111 15.3204 23.0479 15.2974 23.2907 14.9799C23.8219 14.2849 24.241 14.2655 24.6945 14.9688C25.0396 15.504 25.2162 15.2183 25.0329 14.8056C24.6721 13.993 24.6292 13.5983 25.5384 13.351C27.7161 12.7586 29.1954 10.1368 29.7514 8.13269C29.7966 7.96989 30.101 6.62158 30.0242 6.496C29.8969 6.28792 29.2795 6.12559 29.1826 5.60144C29.1026 5.16878 29.4476 4.64657 29.8927 4.58799L29.9248 4.58412C30.0136 4.5728 30.0882 4.56854 30.177 4.58363L30.2112 4.58976C30.5905 4.65329 30.8921 4.99755 31.1816 5.23052C32.1169 5.98328 33.3222 6.06963 34.4019 6.5118C36.4592 7.35442 38.059 9.74167 38.8672 11.7845C38.9471 11.9867 38.9499 12.098 39.1539 12.1727C40.4411 12.6445 41.3502 13.8561 41.3448 15.2555C41.3418 16.0368 40.8881 16.2822 40.3182 16.6885L35.1698 20.3616C34.2724 20.9995 34.3428 20.6369 34.1788 21.6686L33.8109 25.138L33.8111 29.1327L33.9014 30.1702C33.9357 30.5828 33.9666 30.997 34.0323 31.4061L34.549 33.996C34.7094 34.771 34.8202 35.567 35.0172 36.3333ZM16.3491 7.42638C13.8924 8.35586 13.0805 8.13573 11.5546 10.8081C11.2727 11.3019 11.0233 11.9033 10.755 12.3483C13.0796 14.021 14.6599 16.9175 15.1967 19.7151L15.4228 20.871C15.5401 21.4757 15.601 22.1056 15.6656 22.7181L15.7982 23.9413L15.9143 28.0077C15.9088 28.227 15.8707 28.4447 15.8587 28.6639L15.7973 30.0603C15.6966 31.1324 15.4885 30.93 16.683 31.1483L17.7643 31.3475C19.2088 31.614 20.9148 31.8206 22.393 31.8812L25.6409 31.8796C27.7091 31.7847 30.314 31.4637 32.2897 30.9332C32.2362 30.5453 32.1879 30.1402 32.1681 29.7498L32.091 26.4776L32.2306 23.9657C32.2539 23.626 32.2602 23.2871 32.3172 22.9504C32.7077 19.0437 33.6981 15.2435 36.8323 12.6676C36.9577 12.5645 37.1333 12.4711 37.2404 12.3551C36.4956 10.6751 35.4402 8.78458 33.6619 8.09528L31.6282 7.41967C31.2215 10.0589 29.886 12.6141 27.7044 14.2079L26.7783 14.8521C26.854 15.3948 26.8097 15.8618 26.492 16.3194L26.4663 16.357C26.0772 16.9141 25.2004 17.1216 24.5649 16.9431C23.8532 16.7432 24.3185 16.5985 23.6018 16.8763C22.2163 17.4132 20.956 16.1775 21.216 14.7673C18.754 13.537 16.5787 10.2085 16.3491 7.42638ZM9.74321 13.7169C8.91029 13.8852 8.57921 14.3049 8.35131 15.0675L12.2245 17.7845L13.062 18.3498L12.5218 17.132C12.1829 16.4125 11.699 15.6154 11.1571 15.0268L10.1809 14.0658C10.0575 13.9477 9.92279 13.8449 9.80884 13.717L9.74321 13.7169ZM38.3343 13.7059C36.7106 14.7984 35.8532 16.2154 35.0949 17.9611C35.0446 18.0767 34.9921 18.2361 34.98 18.3612L35.7749 17.7871L39.626 15.0774C39.4282 14.3205 39.0333 13.9668 38.3343 13.7059ZM32.4865 32.6366L30.1018 33.1045L27.0906 33.4805C26.915 33.4961 26.7454 33.5326 26.5683 33.5444L25.4987 33.5798C23.4907 33.6487 21.5014 33.5623 19.5042 33.3428L15.9423 32.7546C15.8074 32.7235 15.5925 32.6425 15.4574 32.6503L15.0583 34.6941L15.4826 34.7871L17.0407 35.0975L21.3814 35.6755C22.0522 35.7176 22.7463 35.6965 23.4191 35.6974L26.2534 35.6628C26.5832 35.6468 26.9129 35.5888 27.2423 35.5586L28.759 35.4231C30.1683 35.2472 31.5631 34.9611 32.9522 34.6717L32.4865 32.6366ZM14.6872 36.3632L14.4219 37.6929C14.7001 37.7989 14.9846 37.8494 15.2745 37.9082L16.6592 38.1913C17.6201 38.3843 18.5942 38.5288 19.5706 38.6185L21.5291 38.7729L23.9132 38.7843C24.7046 38.7836 25.5087 38.8054 26.2982 38.7533L30.1174 38.3398L33.3278 37.7495C33.4094 37.7279 33.4952 37.6984 33.5795 37.692L33.2924 36.3548C32.5998 36.5624 31.8791 36.6496 31.1696 36.7803L27.0652 37.337C26.106 37.4216 25.3259 37.4167 24.3602 37.4168L21.6592 37.4017L18.4924 37.0996L15.1235 36.4753C15.0045 36.4434 14.8043 36.3559 14.6872 36.3632ZM14.1027 39.4196C13.9284 40.1476 13.8688 40.0477 14.4531 40.1594L18.8245 40.894C19.7349 41.0851 20.4908 41.6366 21.4074 41.8053C22.8808 42.0765 25.5529 42.1308 27.0588 41.6947C27.7441 41.4963 28.3536 41.1116 29.0483 40.926C29.7434 40.7403 30.4747 40.6803 31.1838 40.5632L32.8247 40.3019C32.975 40.2811 33.1188 40.2424 33.2709 40.2265L34.0436 40.0617C33.9847 39.8465 33.9528 39.6348 33.9203 39.4144L26.7985 40.4545C26.574 40.5007 26.3195 40.4955 26.0897 40.5016L21.1369 40.4868C19.4477 40.3994 17.7895 40.1478 16.1286 39.8384L14.7164 39.5619C14.5185 39.5189 14.2931 39.4857 14.1027 39.4196Z" fill="black"/>
</svg>
