<svg width="48" height="48" viewBox="0 0 48 48" fill="none" xmlns="http://www.w3.org/2000/svg">
<path d="M27.1854 16.2345L27.291 16.5818C27.3911 16.8446 27.4128 17.13 27.4693 17.4023C27.7381 18.6977 26.4167 18.7461 26.0317 18.0822C25.9427 17.9289 25.9143 17.7253 25.8744 17.5546L25.6764 16.8279C25.5089 16.2894 25.2476 15.7778 24.9629 15.2933C24.9516 15.7015 25.0055 16.1288 25.0462 16.5351C25.2283 18.3533 25.0693 20.2343 24.5156 21.9773L24.2516 22.6842C23.912 23.4785 23.1581 23.7792 22.4133 23.2011C21.2456 22.2949 20.9751 19.9344 20.9724 18.482C20.9697 17.0301 21.2399 15.5058 22.1672 14.3419C19.0232 13.7016 16.5902 11.3264 15.8847 8.22118L14.3737 8.59567C12.5335 9.06338 11.0599 9.48877 10.2768 11.381C10.0795 11.8579 10.0093 12.4188 9.89236 12.9219L8.92898 17.0741L7.98469 22.3814L7.21467 28.3593C7.188 28.6081 7.19283 28.8599 7.17361 29.1093L6.93319 32.2616L6.91791 37.0205C6.91851 37.6461 6.94828 38.2884 6.8827 38.9105C7.21603 39.0446 7.58498 39.1249 7.93125 39.2226L10.0169 39.8015C10.4032 39.9169 10.8388 39.9548 10.9665 40.4225L10.9784 40.4684C11.0297 40.6283 11.0434 40.786 10.9815 40.9486L10.9686 40.9804C10.598 41.9387 9.52364 41.4113 8.83406 41.2116L6.82237 40.6164C5.53087 40.2227 5.25516 40.4148 5.268 38.8788L5.27334 33.2443L5.45944 30.0585C5.87428 24.6602 6.74334 19.2661 7.96566 13.9921L8.49534 11.7995C8.59814 11.4023 8.68505 10.9992 8.83781 10.6171C9.42783 9.14176 10.8958 7.85237 12.3875 7.38807C13.0244 7.18984 13.6857 7.0681 14.3297 6.89476L15.6209 6.55998C15.874 6.49037 16.1181 6.39849 16.3788 6.35977C17.1165 6.1944 17.2558 6.96442 17.3431 7.44132C17.4366 7.95193 17.5872 8.57298 17.8337 9.03709L18.126 9.61796C20.935 14.7191 29.6164 13.6296 30.648 7.45463C30.8189 6.43126 31.0125 6.21985 31.9873 6.44588L33.3092 6.78807C34.1533 7.00937 35.0334 7.16837 35.8532 7.4701C37.5923 8.11023 38.8587 9.54746 39.4675 11.2734C39.6692 11.8451 39.7138 12.4548 39.843 13.0429L41.4886 21.8727C42.0292 25.3871 42.4926 28.9071 42.669 32.4609L42.7215 33.7148C42.7268 33.891 42.7581 34.0652 42.763 34.2421L42.7711 38.5604C42.7698 39.9468 43.0239 40.0207 41.5545 40.4555L39.8706 40.9636C39.2349 41.159 38.6005 41.4021 37.9545 41.5588C37.0693 41.7734 36.5296 40.5153 37.3124 40.0309C37.4745 39.9305 37.6703 39.8964 37.8514 39.8441L40.5336 39.0267C40.7147 38.9726 41.0291 38.9333 41.1778 38.8323L41.1609 33.9592L40.761 28.4972L39.6443 20.5756L38.1141 12.4971C37.7947 11.0338 36.7808 9.53987 35.3295 9.01937C34.9297 8.87593 34.5016 8.7999 34.0901 8.69551L32.1547 8.22193C32.1009 8.24302 32.0688 8.46887 32.0517 8.5344C31.3083 11.3702 29.0625 13.5912 26.1804 14.2317L26.7407 15.1786C26.9209 15.4886 27.0723 15.8937 27.1854 16.2345ZM23.3308 15.5438C22.6311 16.4301 22.4807 18.1028 22.6028 19.1629L22.6237 19.289C22.6847 19.6344 22.6989 19.9748 22.7783 20.3202L22.9028 20.8354C22.911 20.866 22.9639 21.0324 22.9549 21.0527L23.0929 21.3647C23.2933 20.1181 23.4579 19.3057 23.4585 18.0433L23.4481 16.6992C23.4287 16.3118 23.38 15.9284 23.3308 15.5438Z" fill="black"/>
<path d="M34.2285 15.7094L33.9027 16.4714C33.1469 18.1368 33.577 19.901 33.4237 21.6566C33.3748 22.2172 33.2182 22.7594 33.1116 23.309C32.9245 24.2733 32.8351 25.1603 32.9487 26.1333L33.0572 26.7966C33.0953 26.9948 33.1369 27.203 33.2023 27.3942L33.2612 27.598C33.3585 27.9792 33.5286 28.3403 33.6686 28.7059L34.3439 30.1339C34.6743 30.8115 35.0197 31.5262 35.2319 32.252L35.5394 33.2447C35.7354 33.815 35.8665 34.8048 35.8918 35.4212L35.9016 37.8154C35.8712 38.5115 35.1849 38.7982 34.6768 39.1355C32.8393 40.3551 30.6043 41.0217 28.4324 41.3102L23.8373 41.5747L20.7193 41.4125C18.1229 41.194 15.5026 40.5861 13.2973 39.1435C12.4998 38.6218 12.1066 38.5284 12.1016 37.5548L12.1024 35.5961C12.105 35.2091 12.1651 34.859 12.2021 34.4768C12.392 32.5158 13.2685 30.6953 14.0878 28.9335C14.8524 27.2892 15.3078 26.4072 15.1295 24.5895L14.9067 22.6761C14.8117 22.0971 14.6833 21.5194 14.6259 20.9346C14.4845 19.4947 14.7852 18.1988 14.2886 16.7698C14.1573 16.3919 13.9499 16.0541 13.7935 15.6885C13.4978 14.9974 13.2872 13.7825 14.3155 13.6499C15.0987 13.7299 14.9971 14.3261 15.2306 14.9167C15.3526 15.2252 15.5416 15.5055 15.6706 15.8108C16.0591 16.7307 16.208 17.6542 16.2113 18.6489L16.2135 20.0962C16.2143 20.5116 16.264 21.2426 16.3502 21.633L16.7128 24.0666C16.7503 24.2414 16.7479 24.4276 16.754 24.6062L16.7587 25.6732C16.7489 26.3759 16.7275 26.4371 16.5911 27.0988C16.2749 28.6326 14.9656 30.6758 14.3829 32.277C14.0108 33.2993 13.8174 34.3797 13.7366 35.4613L13.6931 36.6852C13.6923 36.9244 13.6835 37.1658 13.7087 37.4039C15.7954 39.059 19.1108 39.7196 21.7388 39.8495L26.2485 39.8427C26.3671 39.836 26.4772 39.8048 26.5955 39.7951L28.9468 39.5521C30.4649 39.2937 31.9447 38.8186 33.278 38.0408L33.8233 37.7023C33.9779 37.6018 34.1728 37.5245 34.3119 37.4103C34.3283 35.2142 34.1611 33.6634 33.2261 31.5789L32.377 29.8277C31.446 27.7524 31.0409 25.7435 31.4335 23.4613C31.5696 22.67 31.7737 21.9169 31.8383 21.1106C31.9858 19.2694 31.5429 17.9818 32.2977 16.0668C32.5002 15.5528 32.7752 15.1051 32.8831 14.555C32.9071 14.4331 32.9156 14.3005 32.9623 14.1847L32.9744 14.1566C33.3529 13.2574 34.9884 13.3443 34.2285 15.7094Z" fill="black"/>
</svg>
