<svg width="48" height="48" viewBox="0 0 48 48" fill="none" xmlns="http://www.w3.org/2000/svg">
<path d="M11.6271 41.9652L11.629 18.4795C11.3164 18.8002 10.5098 19.4006 10.0902 19.03C9.79871 18.7725 9.52866 18.4721 9.25322 18.1962L3.53027 12.5174C3.15097 12.1258 2.72176 11.6766 3.17611 11.1236C3.55632 10.6609 4.00066 10.2369 4.43109 9.8212L7.78678 6.59803C9.66305 4.74135 10.3505 4.59159 12.7831 4.5915L16.9007 4.59313C17.2823 4.59381 17.5247 4.53392 17.7076 4.93879L17.7203 4.96912C17.8478 5.21896 17.8371 5.5552 17.9203 5.82745L18.296 6.95939C18.4169 7.2411 18.5218 7.55156 18.6777 7.81635L19.2168 8.78943C19.6292 9.48173 20.1888 10.2001 20.8155 10.7076C22.3458 11.9467 24.8722 12.1405 26.5892 11.149C27.1369 10.8327 27.6199 10.3798 28.072 9.94167C29.0945 8.95096 30.2389 7.4137 30.306 5.91834C30.3298 5.38767 30.1808 4.64774 30.9345 4.5791L34.8079 4.59191C35.4982 4.59208 36.2191 4.55151 36.9056 4.61718C39.4366 4.85934 40.8886 6.8617 42.5582 8.52314L44.5395 10.4958C44.9635 10.9369 45.5785 11.3422 45.0043 11.985C44.6123 12.4238 44.1574 12.8111 43.74 13.2248L39.1061 17.8147C38.3655 18.5616 37.7994 19.632 36.799 18.7476L36.4238 18.4247L36.4314 42.1297C36.441 42.9123 36.5568 43.3882 35.6468 43.3882L12.3029 43.3888C12.2043 43.3887 12.0531 43.4006 11.9647 43.352L11.9417 43.3381C11.6359 43.1589 11.6292 42.9562 11.6277 42.639L11.6271 41.9652ZM11.7834 5.86729C10.258 5.94576 9.55135 6.58256 8.54039 7.59328L7.11239 9.00637C6.89925 9.21632 6.70111 9.4402 6.47635 9.63782L10.8724 13.9249C11.8353 14.8279 12.714 16.0336 12.8331 17.3865C12.8578 17.667 12.8478 17.9538 12.8483 18.2353L12.8531 39.7136L35.211 39.7198L35.2252 17.3073C35.2708 16.25 36.1469 14.9012 36.8444 14.1658L38.0074 13.0506L41.706 9.44484L40.3627 8.06953C39.3465 7.04615 38.2587 5.943 36.7092 5.87385L32.1364 5.8754L32.2853 6.46373C32.5162 7.25231 32.4375 8.48582 32.283 9.2647C31.5022 13.1976 28.6324 15.3109 24.6388 15.5907L24.6494 32.3206C24.6496 32.7997 24.7861 33.262 24.2816 33.5184L24.2557 33.5319C23.7624 33.772 23.4356 33.2718 23.4332 32.7912L23.43 16.5784C23.4277 15.3382 23.6692 15.6739 22.6774 15.5317C18.4441 14.9249 15.0338 11.3582 15.3852 6.97003L15.5778 5.8702L11.7834 5.86729ZM16.7085 6.34218C16.5125 7.17548 16.5248 8.32978 16.8202 9.12679L17.021 9.79725C19.3693 15.9014 29.4702 15.9843 30.9701 9.40139L31.1098 8.64825L31.2213 7.27589C30.9549 8.32082 30.4541 9.2226 29.7386 10.0284L28.9227 10.8604C27.3331 12.4298 25.4768 13.2459 23.2438 12.9971C20.8619 12.7318 19.1745 11.2458 18.0159 9.24257L16.7085 6.34218ZM42.5878 10.2786C42.164 10.7702 41.6589 11.2131 41.1942 11.6673L38.7101 14.1053C38.1755 14.6311 37.5931 15.1364 37.167 15.7572C36.8933 16.1562 36.756 16.5851 36.5436 17.0111L37.0601 17.4275C37.1753 17.5191 37.2957 17.6392 37.4267 17.7045L37.5893 17.5473L43.7565 11.4559L42.5878 10.2786ZM5.52638 10.4396L4.39137 11.6059L9.94238 17.12C10.1072 17.2839 10.2729 17.4838 10.4542 17.627L10.5824 17.7394C10.8201 17.5913 11.3041 17.2329 11.4818 17.0459C11.1881 16.0788 10.6082 15.3777 9.87619 14.7186L5.52638 10.4396ZM12.8489 40.9497L12.852 42.1121L35.2276 42.1253L35.2105 40.9483L12.8489 40.9497Z" fill="black"/>
</svg>
