<svg width="48" height="48" viewBox="0 0 48 48" fill="none" xmlns="http://www.w3.org/2000/svg">
<path d="M30.7055 40.9582C30.3199 41.0188 29.9287 41.1374 29.5436 41.2146C27.7152 41.581 25.9227 41.6985 24.0605 41.6975L20.9719 41.5958C18.6282 41.3899 16.2442 40.8362 14.0385 40.0233L12.8679 39.5735C11.9622 39.2068 11.7626 39.136 11.8721 38.0433C12.1052 35.715 12.6331 34.2663 13.469 32.0619C14.1725 30.2067 14.6555 28.9062 14.8064 26.8904C14.834 26.5215 14.8203 26.1493 14.8551 25.781L14.9358 24.1239C15.0344 22.3533 15.0631 22.6049 14.6176 20.9532C13.9307 21.2413 13.2034 22.4163 12.8804 23.0388C12.6548 23.4738 12.3793 24.3258 11.6394 23.9494C9.58466 22.904 7.5681 21.4343 5.77012 20.0101L3.73008 18.3169C3.33744 17.9587 2.62099 17.5139 2.86957 16.873L2.88337 16.8396C2.96602 16.634 3.07201 16.5224 3.23579 16.3732L11.4111 9.46474C12.8602 8.362 13.764 7.95883 15.5037 7.46618L16.8681 7.04135C17.2114 6.93368 17.6824 6.91999 17.8969 6.60771C18.0991 6.31324 18.2775 6.09316 18.646 6.00438C18.7733 5.99575 18.9307 6.00269 19.047 6.06016L19.0778 6.07619C19.2984 6.18607 19.471 6.39743 19.6583 6.55643C20.3374 7.13294 21.0273 7.78891 21.8555 8.14282C23.8633 9.00086 26.0381 8.35094 27.6794 7.06394L28.286 6.57705C28.9565 6.0115 29.3365 5.59525 30.0181 6.53791C30.3057 6.93569 30.7396 6.93916 31.1853 7.07243C33.4573 7.75197 34.5252 7.92194 36.4334 9.35697L43.8457 15.5219C44.2951 15.8886 44.9196 16.2518 45.12 16.8279L45.1459 16.9031C45.264 17.3724 44.9337 17.6545 44.6131 17.9156L44.22 18.2554C42.0671 20.1326 39.4985 22.1951 36.9887 23.5999C35.8671 24.2277 35.7535 24.2774 35.1031 22.9991C34.7346 22.2749 34.1361 21.502 33.4341 21.0775C33.3329 21.2335 33.3003 21.5186 33.2729 21.7026L32.9998 24.4009L32.9788 25.7133C32.9709 26.993 33.0638 28.3722 33.4821 29.5956L34.9686 33.7497C35.4916 34.9498 35.7719 36.308 35.8337 37.6169L35.861 38.4044C35.8622 38.6394 35.8907 38.8275 35.763 39.0354C35.3337 39.7346 31.6128 40.7336 30.7055 40.9582ZM29.025 7.91866C27.7385 9.03921 26.1783 9.90541 24.4334 9.9649C24.3051 9.9693 24.1439 9.94647 24.0217 9.97296L24.0357 9.99288C24.3601 10.463 24.4492 11.0539 24.5991 11.5923L24.6477 11.8595C24.6614 11.9833 24.6856 12.089 24.7226 12.2076C25.1876 12.2105 25.7011 12.2551 26.1593 12.1945C27.3935 12.0314 29.1486 10.3927 29.2739 9.12865C29.321 8.65352 29.2011 8.34766 29.025 7.91866ZM18.9436 7.95677C18.6754 8.66013 18.5287 9.03597 18.8819 9.73207C19.3877 10.7292 20.3214 11.6437 21.3801 12.0378C21.9107 12.2353 22.4208 12.2114 22.9744 12.2108L23.2073 12.2119C23.1216 11.7468 22.7661 10.2656 22.2889 10.0315C21.2958 9.54419 20.2934 9.06419 19.439 8.34752C19.3753 8.29418 19.0084 7.94313 18.9436 7.95677ZM30.7239 8.4919C30.7311 8.87257 30.7741 9.23777 30.6877 9.61469C30.2494 11.5272 28.0496 13.5833 26.0598 13.6931C25.6259 13.7171 25.1748 13.681 24.7455 13.7241L24.7341 15.7918C25.0259 15.9045 25.2683 16.0217 25.4164 16.3168L25.4483 16.3853C25.696 16.8848 25.3951 17.5002 24.9021 17.718L24.7671 17.7656C24.741 18.2866 24.7057 18.8603 24.7692 19.3758C25.0849 19.5544 25.2988 19.6622 25.4573 20.0154L25.4687 20.0403C25.8853 20.9822 24.244 22.0558 23.4795 21.5098C22.8586 21.0664 23.5191 21.0968 22.4191 20.881C21.497 20.7 21.5699 19.3943 22.4998 19.3181L23.316 19.334L23.3164 18.2802C23.3135 17.2381 23.3146 17.8527 22.4004 17.4684L22.3604 17.452C21.5076 17.0939 21.4913 16.0948 22.3281 15.8287C22.6167 15.7369 22.9475 15.764 23.248 15.7683L23.3137 13.7241C22.7911 13.7186 22.2728 13.7328 21.7534 13.659C19.8557 13.3896 17.4731 11.3401 17.236 9.36419C17.2021 9.08224 17.2349 8.79068 17.2229 8.50675L17.1981 8.5181C17.0971 8.56296 17.0027 8.57725 16.8982 8.6065L15.5546 9.0258C14.723 9.2659 14.0234 9.5095 13.2845 9.97244C13.3035 11.3046 13.5209 12.9828 13.9158 14.2696L14.3001 15.5622L15.7706 19.5466L16.1592 20.8135C16.2517 21.0977 16.338 21.4458 16.3756 21.7391L16.4117 21.9249C16.462 22.2396 16.4728 22.4796 16.4734 22.8053L16.3766 25.0621C16.315 26.0788 16.3135 27.1173 16.16 28.1257C15.9164 29.7261 15.4972 30.9655 14.9054 32.4841C14.7657 32.8425 14.6596 33.2165 14.4968 33.5652C16.363 34.2791 18.8772 34.7156 20.8378 34.8695L22.6362 34.9744L25.3029 34.9761L27.091 34.8647C29.2011 34.688 31.3474 34.2863 33.3421 33.5628C33.1452 33.1167 32.9927 32.6595 32.8223 32.2032C32.0499 30.1347 31.5861 28.7315 31.5907 26.5369L31.6515 22.8529C31.7196 21.4398 32.033 20.4824 32.4885 19.1321L33.9484 15.414C34.4693 14.0624 34.7799 12.5947 34.8489 11.1475L34.8501 9.99532C34.3149 9.48752 31.5403 8.7619 30.7239 8.4919ZM11.8002 11.0542L4.65483 17.1674L8.87113 20.4515L10.8023 21.7217C11.0711 21.8863 11.3447 22.0697 11.6261 22.2093L11.6356 22.1867C12.0672 21.1795 12.896 20.2534 13.8197 19.6576C14.2885 19.3553 14.2304 19.5556 13.9212 18.7739C13.0531 16.5799 12.1885 14.4105 11.9075 12.0471C11.8693 11.7262 11.7914 11.3777 11.8002 11.0542ZM36.2334 11.1443C36.1394 13.2687 35.68 15.1301 34.8572 17.1058C34.5291 17.8936 34.0182 18.7726 33.8804 19.6217C35.1429 20.3608 35.5969 20.9284 36.3869 22.2041L39.181 20.3608L42.9576 17.3537C43.0852 17.2515 43.2193 17.1618 43.3366 17.0472C43.058 16.785 42.7472 16.5585 42.4527 16.3145L36.7409 11.5165C36.5968 11.4005 36.418 11.2104 36.2476 11.143L36.2334 11.1443ZM13.9946 34.9802C13.6839 35.9832 13.379 37.1013 13.357 38.161C13.8831 38.4082 14.4785 38.5832 15.0293 38.7745C17.8008 39.7371 19.9709 40.0348 22.8279 40.1482C22.9794 40.1542 23.1264 40.1923 23.28 40.1969L25.3123 40.1474C27.9779 40.0274 30.1327 39.7442 32.7027 38.8155L33.5678 38.5166L34.4181 38.2155C34.3796 37.5015 34.2923 36.7777 34.1261 36.0818L33.9261 35.3156C33.8963 35.2082 33.8475 35.0944 33.8316 34.985C31.634 35.7833 28.8678 36.336 26.5178 36.4681L23.9477 36.4892C22.8421 36.4878 21.9822 36.4954 20.8854 36.395C18.8264 36.2066 16.8583 35.9021 14.8873 35.2706C14.7377 35.2227 14.0995 34.9706 13.9946 34.9802Z" fill="black"/>
</svg>
