<svg width="48" height="48" viewBox="0 0 48 48" fill="none" xmlns="http://www.w3.org/2000/svg">
<path d="M30.5941 39.2938L29.679 39.874C27.0772 41.6224 22.2952 41.7161 19.4797 40.4879C17.6872 39.7059 17.2629 38.6039 14.8145 38.5975L13.9577 38.6015C13.2236 38.6258 12.8097 38.5607 12.4043 37.7984L12.1929 38.0796C11.5605 38.9682 10.8214 38.6266 9.97331 38.3453C8.76164 37.9434 6.23339 37.1805 6.02831 35.6363C5.96278 35.1429 6.10641 34.6776 6.19697 34.1984L9.83175 14.3014C9.93061 13.5507 9.98255 12.8072 10.1749 12.0713C10.664 10.2 12.1928 7.9576 14.1662 7.44094C14.432 7.37138 14.7068 7.34953 14.9772 7.30964L18.2263 6.78469C18.6797 6.71442 19.1057 6.58491 19.5231 6.52369L19.642 6.51685C20.0955 6.50635 20.376 6.83714 20.6567 7.14108L24.0028 10.5436C24.2704 10.3126 24.5016 10.0056 24.7552 9.75319L27.4138 7.05188C28.1947 6.18741 28.7594 6.62335 29.7638 6.78769L33.0966 7.30369C35.4059 7.64513 36.8335 9.32785 37.6438 11.4562C37.8881 12.0979 37.9966 12.7635 38.0783 13.4409L39.0886 19.445L41.901 34.7164C41.9597 35.0484 42.0573 35.3437 41.9806 35.6882C41.6167 37.3225 39.2523 37.9793 37.888 38.4266C36.7462 38.801 36.2894 38.8895 35.5822 37.7531C35.0103 38.5496 34.9526 38.6224 33.8316 38.5973C32.5995 38.5697 31.7235 38.7015 30.5941 39.2938ZM19.3913 8.33156L18.7974 8.48949C18.9483 10.2655 20.2545 11.7435 21.6762 12.7108C21.9205 12.8769 22.1335 13.0028 22.4357 12.9183C22.8303 12.7696 23.0785 12.4867 23.0588 12.0581C22.8118 11.7067 22.472 11.397 22.1711 11.0905L19.9137 8.81091C19.7592 8.64872 19.6097 8.4713 19.4425 8.32252L19.3913 8.33156ZM28.5586 8.33635L26.5873 10.3488C26.1454 10.7902 25.1379 11.588 24.9331 12.1573C25.0575 12.6123 25.2595 12.8794 25.7388 12.945C26.0889 12.8829 26.3405 12.7207 26.6308 12.5218C27.9903 11.5905 29.0344 10.1045 29.3227 8.47205C29.0751 8.44533 28.7939 8.4196 28.5586 8.33635ZM17.0782 8.72991L15.1882 9.01022C15.2183 9.324 15.3173 10.0704 15.4337 10.2941C15.6702 10.7485 16.1056 10.8461 16.3973 11.5435L16.4266 11.604C16.6425 12.024 16.5203 12.4813 16.9473 12.7645C17.2756 12.9824 17.6016 13.1558 17.8784 13.4453C18.2967 13.8825 18.5166 14.6541 19.1491 14.8355C19.416 14.9121 19.6619 14.8859 19.9308 14.9249C20.9678 15.0751 21.4656 16.2255 22.3998 16.2143C22.6981 16.2107 23.0186 16.09 23.3155 16.0518C23.767 15.9937 24.3291 15.9985 24.7808 16.0708C25.3295 16.1585 25.8908 16.323 26.4051 15.997C27.0988 15.5572 27.1356 15.0078 28.2802 14.9135C28.4501 14.8995 28.6171 14.9118 28.7832 14.8664L28.8237 14.8557C29.6289 14.6378 29.7955 13.5659 30.6876 13.0036C31.2804 12.63 31.3061 12.6856 31.4494 12.0118C31.5529 11.5254 31.7886 11.1175 32.1372 10.7649C32.4886 10.454 32.5768 10.4516 32.6776 9.97908C32.7405 9.6841 32.8039 9.36539 32.8225 9.06445L32.8265 8.99325L31.0393 8.72583C30.5435 10.6001 29.7921 12.0412 28.3402 13.3275C27.3183 14.2328 25.695 15.2956 24.3952 14.213C24.2504 14.0924 24.1335 13.9488 23.9938 13.8248L23.9836 13.841C23.2984 14.8842 21.7009 14.7975 20.7742 14.1691C19.091 13.0278 17.5359 11.1907 17.1449 9.13608L17.0782 8.72991ZM13.583 9.64294C12.4741 10.547 11.8112 11.8718 11.6271 13.2769C11.5731 13.689 11.5558 14.1107 11.4881 14.5204L7.75219 34.9563C7.65398 35.5382 7.84434 35.574 8.3707 35.8882C9.03942 36.2874 10.2168 36.711 11.0129 36.8859C12.5202 34.4536 12.9217 32.509 12.6396 29.5964C12.4504 27.6432 12.4323 26.092 13.353 24.3085C13.5516 23.9239 13.8035 23.5778 14.0152 23.2027C14.7022 21.9851 14.6319 20.5507 14.4362 19.2124C14.3864 18.8714 14.2455 18.4712 14.3125 18.1284L14.3203 18.0873C14.4564 17.4008 15.3795 17.1713 15.7413 17.7923C16.2984 18.7487 16.2849 21.3411 16.0717 22.4101C15.8961 23.291 15.4957 23.9714 15.0462 24.7258C14.2084 26.1316 14.1601 27.1958 14.2994 28.7573L14.3889 30.1419C14.4797 31.8418 14.2535 33.3128 13.9758 34.9733L13.8256 36.1854C13.7967 36.4225 13.6973 36.6639 13.8772 36.8682L13.9025 36.8902C15.5886 36.7421 17.1619 37.0796 18.6155 37.9848C19.2375 38.3722 19.804 38.7844 20.4946 39.0509C22.1551 39.6916 24.2585 39.7429 26.0163 39.4272C27.6219 39.1388 27.9851 38.8751 29.3076 38.0698C30.5534 37.3111 31.9554 36.8263 33.4225 36.8531C34.0212 36.864 34.3136 37.0125 34.2272 36.187L33.7927 33.2488C33.7233 32.687 33.6973 32.1089 33.6935 31.543L33.8514 28.7227C33.9883 26.5537 33.591 25.8138 32.5762 24.1086C31.9196 23.0052 31.5788 20.9463 31.8475 19.6913C31.9831 19.0581 31.9022 17.9393 32.4847 17.563C32.9785 17.244 33.5237 17.5061 33.6816 18.0464L33.6941 18.0826C33.7438 18.2638 33.7144 18.5347 33.6678 18.7143C33.3164 20.0687 33.2732 21.921 33.9806 23.161C34.4864 24.0476 34.947 24.7299 35.2398 25.7238L35.3852 26.3047C35.5755 26.9571 35.6301 28.6274 35.5117 29.3667C35.2198 31.1895 35.2489 33.3825 36.0254 35.1045C36.1554 35.3928 36.8442 36.7366 37.0191 36.918C38.2271 36.5369 39.3688 36.2224 40.3321 35.37L38.6124 25.5816L36.5983 14.8181C36.2066 12.4168 36.2986 11.4413 34.4481 9.64781C34.3583 10.4169 34.1992 11.1083 33.6408 11.6969L33.3137 12.0227C33.1118 12.2092 33.121 12.2253 33.0832 12.5048C32.9823 13.2501 32.376 13.9921 31.755 14.3711C31.1451 14.7433 31.4095 14.5508 31.0729 15.1073C30.4522 16.1332 29.4706 16.5876 28.317 16.6829C27.8539 16.7211 27.2149 18.1515 25.0238 17.8628C23.9888 17.7265 23.951 17.7664 22.93 17.8719C22.1347 17.9541 21.1406 17.812 20.5011 17.2918C19.9146 16.8148 20.1823 16.7473 19.3564 16.6446C18.4048 16.5263 17.4315 15.9507 16.9701 15.0933C16.7509 14.686 16.7527 14.66 16.3522 14.4218C15.6573 14.0085 15.1913 13.4155 14.9786 12.6242C14.8946 12.3115 14.9019 12.1772 14.6547 11.9606L14.3928 11.7111C13.8247 11.13 13.6893 10.4165 13.583 9.64294Z" fill="black"/>
</svg>
