<svg width="48" height="48" viewBox="0 0 48 48" fill="none" xmlns="http://www.w3.org/2000/svg">
<path d="M39.973 11.002L39.6448 9.0191C39.3571 7.27254 38.1801 6.26014 36.4907 5.94429L35.8133 8.81281C35.5879 9.80792 35.443 10.8391 35.3042 11.849C35.0934 13.3834 34.8155 14.9848 34.9334 16.5355L35.0384 17.7761L35.2292 21.0258L35.2624 22.137C35.2733 22.356 35.3081 22.5744 35.314 22.7933L35.3419 24.0823C35.358 24.4069 35.4159 24.7288 35.4273 25.055L35.4405 26.6847C35.4467 26.8737 35.4808 27.0589 35.4868 27.2464L35.5412 31.2849C35.5473 31.4686 35.5898 31.6456 35.5957 31.8272L35.6004 35.3894C35.5999 35.6328 35.5719 35.8285 35.5397 36.0627C35.3607 37.367 34.3016 38.4671 33.0648 38.8411C32.4813 39.0175 31.8996 38.9779 31.2981 38.9781L16.1047 38.9722L14.9163 38.8717C13.8932 38.7686 12.3983 38.4711 11.4712 37.966L11.4358 37.9463C11.3779 38.387 11.4131 38.8655 11.4131 39.3108L11.4126 42.5416C11.4124 42.9519 11.2556 43.4573 10.7578 43.4789L6.64591 43.4797C6.23281 43.4791 5.99384 43.5216 5.74985 43.1211L5.7311 43.0895C5.52818 42.7617 5.62516 42.3334 5.62493 41.9659L5.61326 36.939L5.36309 33.2705L5.32868 31.4243C5.29976 30.7286 5.2541 30.1396 5.25293 29.4176L5.25959 23.2972L5.35695 21.0905C5.50966 18.3356 5.87402 15.3155 6.3266 12.598L6.82521 10.0507C6.97727 9.29567 6.99513 8.50615 7.25079 7.77771C7.91163 5.89503 9.79324 4.6969 11.7348 4.53342C12.4465 4.48825 13.1813 4.52455 13.8952 4.52434L15.1759 4.52441C16.366 4.52497 15.9214 4.47027 16.6797 5.34392C18.3484 7.2664 21.4734 8.06885 23.9032 8.06829C24.6902 8.06815 25.4844 8.01026 26.2617 7.87081C28.1875 7.52529 30.2566 6.65782 31.5169 5.11535C31.8007 4.7681 31.9054 4.52689 32.383 4.52557L35.8143 4.52387C37.81 4.52652 39.8037 5.55823 40.6053 7.46435C40.7033 7.69742 40.8116 7.9339 40.862 8.18346L41.0039 8.88331C41.0401 9.11923 41.0311 9.36232 41.0719 9.59796L41.485 11.5902C41.6168 12.2172 41.7223 12.8569 41.8076 13.4916L42.5057 19.4207L42.6709 22.1605C42.6899 22.3972 42.7311 22.629 42.7393 22.8673L42.7558 24.9806C42.7596 25.1794 42.7965 25.3738 42.8006 25.5724L42.7354 32.2057C42.7259 32.433 42.6774 32.6545 42.6658 32.8821L42.6446 34.2297C42.6278 34.8095 42.4118 36.5709 42.4961 36.816C42.7796 36.8839 43.0229 37.0822 43.1143 37.3662L43.1267 37.4066C43.1669 37.4993 43.1842 37.5569 43.1876 37.6599L43.1915 42.2842C43.1914 42.7788 43.182 43.4141 42.4729 43.4757C42.1012 43.508 41.7024 43.4794 41.3284 43.4797L37.3184 43.4792C36.7369 43.4787 35.9278 43.5779 35.8731 42.6947L35.8374 41.4882L35.5196 38.8184C35.3764 38.0152 35.1363 37.0598 36.312 36.7861C36.4624 36.7511 36.6426 36.7679 36.797 36.7677L41.1108 36.7676C41.1479 36.6301 41.1375 36.4727 41.146 36.3308L41.3457 33.023L41.4375 30.6203L41.4311 23.995C41.4259 23.8497 41.397 23.7087 41.3908 23.5645L41.3495 22.2525C41.3253 21.7642 41.2841 21.2674 41.2535 20.7747L41.0781 18.4774L40.4411 13.5431C40.3034 12.6914 40.1739 11.8427 39.973 11.002ZM14.8136 5.94823L12.7436 5.94753C12.7787 6.21785 12.8404 6.48345 12.893 6.75031L13.5097 11.5286L13.7478 14.4619L13.753 15.9582C13.7515 16.5876 13.7152 17.1467 13.6976 17.7542L13.6795 19.6431L13.4829 24.6609L13.2199 28.8916C13.1942 29.3101 13.2301 29.7761 13.1524 30.1843L12.6826 34.1329C12.7893 34.1622 12.9425 34.1433 13.0549 34.1425L34.2327 34.1467L33.7756 19.4648C33.7376 18.2059 33.5318 16.9504 33.5538 15.6914C33.5909 13.5752 34.0513 10.6694 34.4649 8.62526L35.007 6.2996C35.0344 6.18748 35.0531 6.04343 35.1072 5.94232L32.8362 5.94692C32.7617 5.94668 32.6694 5.93196 32.6021 5.96839C31.6591 7.12423 30.6364 7.69085 29.3639 8.36323L29.3944 8.39932C29.9515 9.0725 30.6917 10.6817 30.986 11.5902L31.5299 13.5764C31.7083 14.2106 31.6343 14.9983 30.8029 15.0016C30.5959 15.0024 30.3767 14.9847 30.1721 15.0167C30.2035 15.867 30.7346 16.2462 30.93 16.8921C31.0695 17.3532 30.7299 17.8422 30.2344 17.8071C29.4167 17.7492 28.6313 15.4131 28.8399 14.7025L28.8512 14.6631C29.0501 13.989 29.5404 13.7426 30.1995 13.6969C29.8394 12.1503 29.0542 10.043 28.0298 8.85898C26.3402 9.35496 24.6414 9.51673 22.8867 9.37981L22.3242 9.34371C20.101 9.09795 17.7597 8.25598 16.1131 6.69003L15.5804 6.15185C15.2875 5.83437 15.2456 5.93393 14.8136 5.94823ZM11.3264 5.96515C9.85395 6.24884 8.52049 7.44804 8.34579 8.97687C8.32657 9.14501 8.3283 9.31278 8.30252 9.48125L7.41387 14.3304L6.84349 19.2659L6.71623 21.5848C6.69832 21.929 6.66799 22.2753 6.65037 22.6292L6.61254 28.8262L6.66335 31.8559C6.6724 32.0844 6.71777 32.3095 6.72551 32.5384C6.74234 33.0359 6.68341 33.5884 6.76676 34.0784C6.86749 34.6707 6.75265 35.3003 6.88113 35.8804C6.99523 36.3957 6.71496 36.5814 7.1733 36.5524L7.70351 36.5105L10.7843 36.3964C10.9806 35.7879 11.0959 35.1507 11.2173 34.5241L11.6169 32.0872L11.9046 28.8678L12.0288 25.9361C12.0372 25.7528 12.0745 25.5744 12.0857 25.3916L12.281 20.9716L12.3683 18.5289L12.3712 14.0635L12.2696 12.4797L11.3965 5.97631C11.3474 5.95718 11.371 5.95901 11.3264 5.96515ZM12.3637 35.5098C12.3045 35.9289 12.2085 36.3141 12.0995 36.7222C12.7516 37.1579 14.4557 37.4581 15.2032 37.5254C15.6115 37.5623 16.0369 37.5415 16.4474 37.5418L31.7164 37.5447C32.4456 37.5451 32.9108 37.547 33.4946 37.0464C33.8923 36.6835 34.1656 36.167 34.2164 35.6284L34.2271 35.5183L12.3637 35.5098ZM9.24949 37.7857L6.96485 37.9241C6.93148 38.3607 6.92576 41.9706 7.00474 42.0711C7.24268 42.0628 7.52004 42.0815 7.75198 42.0447L10.0736 42.0482L10.0737 37.7803L9.45855 37.7839C9.41023 37.7842 9.28821 37.7709 9.24949 37.7857ZM36.8534 38.1388L36.7805 38.1602L37.2073 42.0412L41.7305 42.065L41.8188 38.1375L36.8534 38.1388Z" fill="black"/>
</svg>
