<svg width="48" height="48" viewBox="0 0 48 48" fill="none" xmlns="http://www.w3.org/2000/svg">
<path d="M34.5087 39.6225C32.7679 42.1401 30.7277 42.3715 27.9739 42.6209C27.5127 42.6627 26.9995 42.5859 26.5486 42.6863C26.3228 42.7365 26.0872 42.7307 25.857 42.7312L22.9653 42.7271L19.3939 42.5412C16.7431 42.3794 14.9771 41.6976 13.4091 39.5069C13.2836 39.3315 13.1013 39.1016 13.0512 38.8909L13.0457 38.8649C12.9076 38.2854 13.3848 37.299 13.5485 36.7348C14.1004 34.8319 14.511 32.3804 14.6385 30.3814L14.7013 28.0453C14.6962 25.6621 14.507 25.4066 13.6203 23.2501L10.2589 15.7796C9.93307 15.1167 9.56421 14.4849 9.41003 13.754C8.97293 11.6819 10.402 9.80016 12.416 9.38284C13.1133 9.23837 13.3288 9.43084 13.9793 9.10149L15.521 8.25737C16.7939 7.52841 17.4366 7.04926 18.5074 6.01862C18.8371 5.70127 19.1018 5.30105 19.5756 5.20801C20.5102 5.2651 20.494 6.16051 20.7186 6.86729L22.6096 12.6999C22.665 12.8562 22.6677 12.8843 22.7988 12.9908C23.2695 13.3731 23.6522 13.7825 24.0477 14.2452C24.2371 14.0045 24.4241 13.7748 24.6365 13.5536L25.1572 13.056C25.3646 12.8584 25.3601 12.7524 25.4403 12.4752L27.4335 6.36985C27.5149 6.10398 27.5707 5.78471 27.7301 5.55259C28.4501 4.50442 29.6796 6.22243 30.2468 6.71663C31.1893 7.53802 32.2572 8.15129 33.3592 8.73287L34.0748 9.11012C34.2638 9.21512 34.3125 9.27751 34.528 9.28412L34.9569 9.30549C37.5523 9.49515 39.4679 11.589 38.6382 14.1887C38.4939 14.6409 38.2473 15.059 38.0272 15.4767L37.269 16.9883L34.1356 23.8547C33.9355 24.3219 33.7404 24.7648 33.5914 25.2518C33.4372 25.7558 33.3736 26.4739 33.3722 27.0126L33.3713 27.8488C33.372 30.8397 33.8346 33.8186 34.6879 36.6798C34.8378 37.1821 35.0645 38.5486 34.8783 39.0001C34.7874 39.2206 34.6408 39.4248 34.5087 39.6225ZM19.3202 7.27745L18.2718 8.17416C18.7828 9.5589 18.5372 11.0762 20.1002 11.8923C21.2143 12.3447 20.861 12.0718 20.5876 11.219L19.4601 7.68507C19.4209 7.56212 19.3899 7.41052 19.3334 7.29577L19.3202 7.27745ZM28.6954 7.26226C28.4769 7.79598 28.33 8.36705 28.159 8.91807L27.2853 11.604C27.2365 11.7313 27.0918 12.0013 27.1054 12.1266C27.3765 12.0766 27.6293 12.0029 27.8818 11.8914C28.5932 11.4929 29.0162 10.966 29.2368 10.1802L29.719 8.15776L28.6954 7.26226ZM30.9812 9.0587L30.9734 9.0773C30.8351 9.4187 30.8134 9.83626 30.7306 10.196C30.4249 11.5235 29.7693 12.6629 28.4623 13.2314C28.1054 13.3866 27.7402 13.456 27.3686 13.5603C26.1897 13.8914 25.4878 14.5774 24.8358 15.6178C24.8926 15.7234 24.9449 15.8242 24.9851 15.9376L25.2153 16.6312C25.235 16.7246 25.2749 16.8164 25.3083 16.9059C25.4644 16.591 25.6582 16.2461 25.8732 15.9674C26.4368 15.1179 27.2081 14.7624 28.1718 14.6202C30.3392 14.3004 32.3836 12.6924 32.871 10.5094C32.8949 10.4024 32.9409 10.2743 32.935 10.1648L31.3259 9.27235C31.2322 9.21198 31.0888 9.0729 30.9812 9.0587ZM17.0017 9.08213L15.0799 10.1544C15.2911 12.3127 17.3936 14.1857 19.4923 14.5418C19.8016 14.5943 20.1371 14.6031 20.4379 14.6859C21.5218 14.9842 22.3617 15.9002 22.7454 16.9405L23.2036 18.2579C23.2763 18.4473 23.2999 18.6606 23.3802 18.8415L23.5423 19.2586C23.686 19.5101 23.8209 19.7389 23.9921 19.9735C24.755 21.0186 24.2216 18.9357 24.1698 18.7074L23.9882 17.7469C23.5833 15.9322 22.4804 13.9328 20.5077 13.5053C17.9873 12.9592 17.4597 11.3707 17.0561 9.07487L17.0017 9.08213ZM13.6931 10.7462C13.148 10.7705 12.6378 10.7739 12.1288 10.9944C11.2072 11.3935 10.617 12.4063 10.8109 13.4049L10.8761 13.6984C10.9312 13.9725 11.1187 14.2623 11.2493 14.5079L12.2089 16.4841L15.7763 24.6446C16.1422 25.7815 16.1343 26.9649 16.1299 28.1454L16.1214 29.8919L15.7975 32.9809L15.5448 34.5092C15.5003 34.76 15.4344 35.0183 15.4155 35.2719L32.1898 35.27C32.3922 35.2712 32.6074 35.2576 32.8074 35.2862L32.2773 32.6017L31.9329 29.053L31.9245 27.6772C31.9228 26.1491 31.9761 25.2703 32.5555 23.8576L36.5734 15.1145C37.1053 14.0409 37.8589 12.9989 36.9587 11.7853C36.5136 11.1852 35.8919 10.902 35.1678 10.7977L34.3189 10.7574C34.2087 11.1278 34.1335 11.4742 33.9848 11.836C33.112 13.9599 31.087 15.4626 28.8776 15.9662C28.5159 16.0486 28.0897 16.0505 27.7548 16.2029L27.7301 16.2132C27.2618 16.4114 27.0233 16.8503 26.7945 17.2735L26.3367 18.1138C26.1573 18.4321 25.9435 18.7341 25.7781 19.0594C25.7902 19.5286 25.8903 19.9817 25.7881 20.4493L25.7799 20.4908C25.7415 20.6487 25.6584 20.8059 25.5852 20.95C25.028 22.0475 24.2134 21.984 23.3718 21.3717C21.6962 20.1526 22.1251 18.1821 20.9438 16.741C20.3807 16.0541 20.1451 16.153 19.3541 16.0115C16.8505 15.5636 14.5548 13.6792 13.8298 11.2201L13.6931 10.7462ZM15.674 36.7331L15.0317 36.7422C14.9108 36.9609 14.9382 37.2729 14.8221 37.5163L32.6542 37.5221L33.4076 37.537L33.241 36.758C33.1131 36.6919 16.7508 36.733 15.674 36.7331ZM15.7752 38.9823C15.4778 38.9854 15.1657 38.9714 14.871 39.0087L14.9622 39.1314C15.0631 39.2782 15.1962 39.3968 15.3197 39.524C16.7284 40.9752 18.3564 40.9706 20.2228 41.1047L21.8203 41.19C22.0639 41.2049 22.3039 41.2478 22.5476 41.2569L26.1128 41.2578C26.3652 41.249 26.6129 41.1967 26.8645 41.1845L29.354 41.0081C30.0434 40.9225 30.7313 40.804 31.3542 40.4782C32.0424 40.1571 32.6602 39.6187 33.1148 39.0121C32.8708 38.9772 32.6242 38.9839 32.3783 38.9831L15.7752 38.9823Z" fill="black"/>
</svg>
