<svg width="48" height="48" viewBox="0 0 48 48" fill="none" xmlns="http://www.w3.org/2000/svg">
<path d="M13.2184 42.4224L11.9544 41.8562C11.5887 41.686 11.2001 41.4848 11.0585 41.0783L11.0453 41.0387C10.7168 40.0733 12.0139 34.2265 12.2988 33.0874L13.6494 28.2724C14.431 25.7548 14.5522 25.4577 13.9863 22.932L13.6403 21.4489C13.5801 21.4884 13.258 22.2641 13.1985 22.39L11.2502 26.5432C11.0491 26.9953 10.9178 27.8026 10.3851 27.9819L10.3592 27.9901C9.9491 28.1276 9.4173 27.9089 9.01961 27.7984C6.69508 27.1527 4.8978 26.386 4.53721 23.7438C4.37607 22.5631 5.04485 21.1505 5.50717 20.1096L6.02402 18.8402C6.52225 17.5271 6.92463 16.1247 7.03802 14.7194L7.14963 12.9699C7.41536 10.3068 8.79063 7.07377 11.7134 6.59345C11.9688 6.55145 12.2289 6.54282 12.4871 6.52895L13.3479 6.49646C14.3799 6.41054 15.2552 6.05982 16.1297 5.53951C16.8777 5.09448 17.1581 5.43634 17.5988 6.08523L18.8291 7.99623C20.0387 9.68884 22.3184 10.8563 24.394 10.6625C26.4996 10.466 28.2869 9.38049 29.4228 7.62207L30.3723 6.14827C30.649 5.72537 30.7607 5.36696 31.3203 5.33105L31.4178 5.34329C31.6808 5.37934 31.9572 5.61516 32.1852 5.74763C34.315 6.98523 35.8463 6.09188 37.5897 6.93165C38.8537 7.54046 39.8665 9.12043 40.2883 10.4416L40.535 11.1604C40.7265 11.7736 40.846 12.4435 40.9133 13.0835C40.9778 13.6964 40.9966 14.3222 41.0497 14.9383L41.1514 15.7176C41.2548 16.4195 41.4908 17.3403 41.734 17.9955L42.4661 20.0393C42.6859 20.651 43.049 21.2335 43.2015 21.8669L43.3701 22.4946C43.5925 23.5155 43.4448 24.5898 42.8701 25.4768C42.0292 26.7746 40.8615 27.2729 39.4501 27.6655L38.2311 27.9938C37.3005 28.2054 37.1528 27.5862 36.8702 26.9009L34.3648 21.3943C34.1892 21.9476 34.1073 22.5307 33.9859 23.0979C33.693 24.4669 33.4148 25.3576 33.8579 26.7638L35.3267 31.7092C35.3705 31.9347 35.4641 32.1513 35.5137 32.3791L35.6084 32.7163C35.6478 32.9223 35.718 33.1283 35.7639 33.3335L36.1744 35.1499C36.5284 36.7553 36.8048 38.4077 36.9397 40.0471C37.0581 41.4866 36.9158 41.4723 35.5486 42.098L33.5038 42.968C31.219 43.8523 29.1308 44.228 26.7075 44.2295L20.4795 44.2236C18.0108 44.1101 15.4627 43.4186 13.2184 42.4224ZM16.4359 7.11352C15.4705 7.62849 14.5272 7.91499 13.4295 8.02679C12.9917 8.07137 12.5264 7.98802 12.0948 8.05993C9.64886 8.4676 8.84969 11.1164 8.62661 13.2893L8.50061 15.0326C8.42566 15.7537 8.29342 16.4617 8.11881 17.1647L7.71681 18.5934C7.49041 19.2774 7.1995 19.9584 6.92622 20.6258L6.47725 21.6175C5.99838 22.7734 5.73166 23.7053 6.50613 24.8172C7.22753 25.8531 8.54481 26.1138 9.68992 26.4224C10.0397 25.5211 10.4704 24.652 10.8789 23.7765L13.094 19.0489C13.1592 18.9078 13.2183 18.8737 13.1553 18.7299L12.6241 17.6288C11.9491 16.1271 11.2897 14.399 11.2648 12.7246C11.2616 12.5043 11.2188 12.1893 11.3023 11.9874L11.3475 11.8985C11.424 11.7573 11.5393 11.6679 11.6834 11.6039L11.7153 11.5891C11.838 11.5359 12.0355 11.5351 12.1639 11.5727L12.1989 11.5828C12.4692 11.6653 12.613 11.8706 12.6837 12.1291L12.6947 12.1625C12.8019 12.55 12.7555 13.1957 12.8819 13.695L13.2677 15.1643C13.4666 15.7163 13.6353 16.2835 13.8962 16.8115C14.2371 17.5019 14.62 18.1528 14.7262 18.9246L15.6608 23.6934C15.8328 24.5934 15.656 24.4734 16.4097 24.8606C17.7866 25.5678 19.0688 25.7996 20.5864 26.0115L21.3232 26.0839C21.593 26.1066 21.5496 26.1177 21.7092 25.8927C22.8997 24.2146 25.3601 24.4249 26.3985 26.1123C28.1204 26.0465 30.2125 25.6338 31.7114 24.7832L31.9989 24.6184C32.0431 24.5953 32.115 24.5719 32.1508 24.5413C32.1565 24.5365 32.5223 22.7953 32.5534 22.6406L33.0928 19.8987C33.351 18.5651 33.3785 18.3965 33.9527 17.1725L34.5459 15.762C34.8102 15.0455 35.0304 14.3033 35.1631 13.55L35.3132 12.5627C35.3399 12.3836 35.3419 12.1742 35.408 12.0044C35.6193 11.4615 36.4834 11.3043 36.7277 11.9053L36.762 11.9964C37.0389 12.6943 36.1686 15.6718 35.9076 16.3412L35.3928 17.5907C35.2597 17.8853 34.7459 18.6362 34.8502 18.9161L38.3308 26.3991C39.5929 26.082 40.9394 25.7885 41.6489 24.5793C42.4385 23.2335 41.5301 21.6909 41.0226 20.4212L39.871 16.9268C39.6888 16.1578 39.575 15.374 39.5068 14.5879L39.4768 13.8214C39.3464 11.8549 38.4166 8.3349 36.1756 8.05421C35.7205 7.99716 35.2293 8.04629 34.7694 8.03649C33.7627 8.01512 32.5677 7.74076 31.725 7.20479C31.6703 7.17001 31.614 7.12866 31.5526 7.10762L30.6862 8.46643C30.3584 9.00062 30.3945 8.9513 30.2642 9.56274C29.7396 12.0247 28.2061 14.4534 26.3291 16.1401L25.261 17.0517C25.1771 17.1199 24.769 17.41 24.7305 17.4907C24.5677 17.8312 24.868 20.4791 24.7086 21.19C24.554 21.8794 23.4026 21.8938 23.2673 21.1235C23.2158 20.8312 23.2557 20.4672 23.2556 20.1676L23.2549 17.5888C23.2549 17.3635 22.9342 17.2269 22.7395 17.0574L22.1341 16.5276C20.2268 14.8776 18.5822 12.6951 17.9181 10.226L17.7481 9.51587C17.7184 9.37224 17.7034 9.22252 17.6597 9.08227C17.5972 8.88198 16.6408 7.30355 16.487 7.10462L16.4359 7.11352ZM19.7119 10.8329C20.4299 12.6628 21.7053 14.1375 23.1644 15.4209L23.7278 15.9001C23.8227 15.9793 23.9186 16.077 24.0253 16.1383C24.7846 15.4782 26.1844 14.3277 26.731 13.4865C27.2776 12.7836 27.9213 11.8208 28.2051 10.9691C27.4192 11.3917 26.6683 11.7631 25.7921 11.9681L24.9315 12.1254C23.3381 12.4447 21.2262 11.8671 19.9197 10.9882L19.7119 10.8329ZM15.7887 26.2151L14.7471 29.7659C14.0592 32.1045 13.4315 34.4555 12.998 36.8559L12.5394 40.0784C12.5302 40.2025 12.5054 40.3401 12.5201 40.4637C12.9659 40.7 13.4466 40.8871 13.9124 41.0809L15.3352 41.6395C17.7153 42.4564 19.8051 42.7528 22.2818 42.7541L28.1065 42.6846C29.1976 42.593 30.2883 42.4081 31.3377 42.0862L34.4716 40.9233L35.4996 40.4377L35.3406 38.9299L34.5307 34.6876L33.1131 29.3359C32.7873 28.2981 32.4301 27.2774 32.2359 26.2036C30.5833 27.1486 28.6761 27.3585 26.8225 27.5904C26.5236 31.0645 21.7174 31.1761 21.1548 27.9207C21.136 27.8121 21.1466 27.644 21.1027 27.5477C19.4416 27.4606 17.7476 27.1502 16.234 26.4391C16.099 26.3757 15.9308 26.2429 15.7887 26.2151ZM23.9224 26.2129C22.0704 26.4308 22.2921 28.8251 24.0503 28.8067L24.2397 28.781C24.8037 28.696 25.3913 28.0201 25.2999 27.4336L25.2741 27.3231C25.1169 26.7176 24.598 26.1492 23.9224 26.2129Z" fill="black"/>
</svg>
