<svg width="48" height="48" viewBox="0 0 48 48" fill="none" xmlns="http://www.w3.org/2000/svg">
<path d="M36.2634 40.6646L36.2262 40.7141C35.4659 41.7187 33.8839 41.6279 32.7493 41.7265L28.7815 42.0662C27.5966 42.1433 26.3347 42.287 25.1609 42.2958L20.8093 42.2749L15.6389 41.7653L12.723 41.1394C11.8467 40.948 11.3623 40.4905 11.4641 39.4952C11.5066 39.08 11.7786 38.6721 11.9196 38.2828L12.6022 36.1585C13.0131 34.6598 13.3265 33.094 13.4863 31.5483L13.596 30.155L13.6079 27.0477L13.3598 24.3315C13.2655 24.3271 13.1595 24.3571 13.0667 24.3745L12.5064 24.4784C11.8873 24.5901 11.0592 24.6359 10.4361 24.4977L9.26619 24.2103C7.55047 23.6434 6.29811 22.2011 5.1726 20.8665L4.50465 20.0273C3.89331 19.2243 3.86 19.1097 4.39687 18.3528L4.7781 17.7707C6.6883 14.7315 7.10488 10.7029 9.91101 8.29672C11.1324 7.24935 11.8701 7.17791 13.3552 6.69674L15.4955 6.01682C15.8142 5.91814 16.1311 5.79275 16.458 5.72497C17.2587 5.66539 17.2326 6.42753 17.3385 6.95619C17.3835 7.18063 17.4612 7.39578 17.512 7.61713C17.9037 9.32385 19.7327 10.9661 21.3252 11.5443C24.9368 12.8557 29.4055 11.363 30.5367 7.41557C30.6437 7.04216 30.6628 6.66247 30.76 6.29197C31.011 5.33497 32.0216 5.88946 32.5873 6.05441L36.1021 7.11078C38.519 7.89828 40.0348 10.3408 40.9193 12.5859C41.6344 14.401 42.249 16.2763 43.3125 17.9296C43.5788 18.3436 44.082 18.7235 43.9483 19.2695C43.7771 19.9683 41.7414 22.1367 41.1451 22.6851C39.1473 24.5224 37.1807 24.882 34.6547 24.2906C34.6034 24.5678 34.5891 24.845 34.5631 25.1249L34.4609 26.2221C34.4512 26.3556 34.4098 26.4799 34.4015 26.6171L34.3927 30.3484C34.3998 30.4962 34.4412 30.6293 34.4533 30.7734L34.7766 33.4496C34.8427 33.8783 34.9622 34.4641 35.0635 34.8867L35.5321 36.6679C35.5996 36.8886 35.646 37.1496 35.7341 37.3594L35.8854 37.8163C35.9417 38.0194 36.0365 38.2146 36.0997 38.4165L36.2898 38.8993C36.5638 39.4993 36.6959 40.0802 36.2634 40.6646ZM15.9341 7.39447L12.4656 8.47621C12.2588 8.54136 11.9802 8.60867 11.8042 8.73467C11.5266 10.0081 11.524 11.3631 11.6123 12.6555L11.774 14.2763C11.9212 15.753 12.1481 17.3536 12.8068 18.7004L13.5365 20.0207C13.8319 20.5687 14.0923 21.1537 14.2725 21.7499L14.6566 23.3804C14.6924 23.5063 14.6961 23.6442 14.7138 23.7739L15.0172 26.6069L15.0476 28.426C15.0488 29.6764 15.0052 30.9191 14.8536 32.1613L14.489 34.4681C14.4663 34.5923 14.4021 34.7766 14.4214 34.8978L33.6022 34.8577C33.5371 34.6722 33.5207 34.436 33.481 34.24C33.2589 33.1407 33.1228 32.0362 33.0253 30.9199C32.7975 27.77 32.9342 22.935 34.3645 20.2139C34.7085 19.5594 35.1019 18.956 35.3879 18.2695C36.0133 16.7682 36.1688 15.0566 36.3071 13.4531L36.3767 12.8369C36.477 11.5978 36.5526 9.88991 36.1858 8.68878L32.0185 7.39133C31.9018 7.9776 31.6858 8.51028 31.4243 9.04541C29.9356 12.0915 26.7261 13.7197 23.3557 13.4622C20.0176 13.207 16.7782 10.9388 16.0298 7.56866C16.0122 7.4893 16.0263 7.4135 15.9418 7.39546L15.9341 7.39447ZM37.8555 10.0841C37.8475 10.2693 37.8691 10.4448 37.8732 10.6288L37.8709 12.0883C37.8613 12.4003 37.8195 12.7057 37.7922 13.0154L37.5531 15.3293C37.3596 16.8301 37.0371 18.3712 36.2994 19.7094L35.7316 20.6717C35.3578 21.3701 35.0923 22.1067 34.9274 22.881C36.0183 23.3083 37.2948 23.1956 38.3725 22.8036L38.8926 22.5606C40.0009 21.9006 40.8603 20.9876 41.6899 20.0131L42.4199 19.128C41.3827 17.8041 40.5925 15.755 39.9932 14.2028C39.4913 12.903 38.8175 11.1313 37.8555 10.0841ZM10.141 10.099C9.16363 11.2172 8.56668 12.6876 8.04575 14.0619L7.5899 15.2812C7.20622 16.1761 6.80601 17.0803 6.34021 17.9357L5.62635 19.1298C6.65085 20.4108 7.69072 21.789 9.15679 22.5927C10.2315 23.1361 10.8533 23.1874 11.9768 23.0803C12.3107 23.0484 12.6777 23.013 12.9968 22.9093L13.0807 22.8808C12.6433 21.4429 12.4438 21.0488 11.7366 19.7707C10.8875 18.2365 10.4901 16.1859 10.3429 14.4275L10.243 13.3828C10.1989 12.7976 10.1427 12.3318 10.1409 11.7382L10.141 10.099ZM14.0666 36.3608L12.8833 39.6997C13.7349 39.9577 14.6343 40.1084 15.5106 40.2538L20.3623 40.7869L24.1956 40.8633C24.9032 40.8321 25.8815 40.8652 26.5024 40.7718C26.9026 40.7116 27.297 40.7094 27.7002 40.6874L33.3696 40.2284C33.9367 40.1886 34.623 40.1465 35.1254 39.8614L33.9767 36.3688L14.0666 36.3608Z" fill="black"/>
<path d="M20.9594 20.6921C20.393 20.7339 19.9661 20.1427 20.2308 19.6274L20.305 19.4979C20.4237 19.3379 20.5914 19.2593 20.7834 19.2248C21.7384 19.1618 21.88 20.4838 20.9594 20.6921Z" fill="black"/>
<path d="M25.4628 20.684L23.6216 20.6922C23.2708 20.6924 22.8739 20.7293 22.5273 20.6818C21.8939 20.5949 21.674 19.3668 22.6135 19.2235L25.2678 19.2178C25.6293 19.2181 25.9348 19.2863 26.0721 19.6762L26.0837 19.7107C26.1313 19.8496 26.1351 20.0838 26.0778 20.2199L26.0349 20.3151C25.9557 20.4714 25.8063 20.5906 25.641 20.6451L25.4628 20.684Z" fill="black"/>
<path d="M27.3367 20.6934C26.3322 20.7253 26.2039 19.4089 27.136 19.223C27.2315 19.2154 27.366 19.219 27.4562 19.2549L27.48 19.265C27.6504 19.3358 27.7718 19.4591 27.8549 19.6227L27.9177 19.7494C28.0879 20.1997 27.7402 20.564 27.3367 20.6934Z" fill="black"/>
</svg>
