<svg width="48" height="48" viewBox="0 0 48 48" fill="none" xmlns="http://www.w3.org/2000/svg">
<path d="M13.8712 40.6707C13.603 40.6745 13.1547 40.7341 12.9113 40.6306L12.8786 40.6158C12.0264 40.2518 11.8368 39.429 12.373 38.7094L12.7722 38.1776C14.6417 35.6297 15.0078 32.2304 14.8386 29.1631C14.7647 27.8238 14.5315 25.2939 13.5776 24.2271C13.0439 24.6142 12.6448 25.2275 12.2487 25.7461C11.9788 26.0997 11.7559 26.456 11.235 26.3538L11.1088 26.3244C10.9691 26.276 10.8331 26.1703 10.7095 26.0903L4.47914 22.0732C3.62204 21.5351 3.59362 21.2868 4.12537 20.5314L10.2836 12.2322L11.4916 10.7351C11.6594 10.5108 11.5726 10.3688 11.6719 10.1368C11.8791 9.65323 12.8325 9.31198 13.2705 9.08422L16.2768 7.45142C16.6892 7.22272 16.979 6.9725 17.4675 7.21058C18.0121 7.47598 18.0194 8.13917 18.3012 8.58861C19.0713 9.81654 21.7292 10.3361 23.0388 10.4515C25.0677 10.6302 27.1521 10.3835 28.8377 9.15181C29.1567 8.9187 29.5054 8.62644 29.7142 8.28308C29.7912 8.15642 29.8424 8.00979 29.9704 7.92533C30.1523 7.80523 29.9816 7.31923 30.7723 7.10506C31.1985 7.08083 31.4991 7.34684 31.8513 7.54883L35.4006 9.42514C36.8806 10.1635 36.0024 10.1528 36.5331 10.8403L43.9098 20.6251C43.9969 20.7384 44.0882 20.84 44.1426 20.9748L44.1807 21.0599C44.2498 21.2071 44.227 21.4109 44.1693 21.5589L44.1443 21.6285C43.9889 22.0356 43.0433 22.4677 42.6884 22.697L37.6962 25.8999C37.4701 26.045 37.2504 26.2286 37.0067 26.3421L36.9768 26.3556C36.335 26.6526 36.0433 26.066 35.731 25.6386C35.4037 25.1906 34.99 24.6496 34.5461 24.3054L34.4602 24.233C33.4812 25.2078 33.2221 27.7801 33.1542 29.0626C32.9839 32.2811 33.3455 35.9516 35.4615 38.545C35.781 38.9367 36.0319 39.3809 35.8268 39.9055L35.814 39.9376C35.5364 40.6687 34.9434 40.6706 34.3027 40.6707L13.8712 40.6707ZM16.7001 9.00945L13.0801 10.9319L13.4186 12.7351C13.6655 14.1455 13.7994 15.5585 13.8862 16.9875L13.9757 19.1486C13.9842 19.3905 14.0303 19.6275 14.0366 19.8695C14.059 20.7291 14.0465 21.6808 14.2486 22.5236L14.2588 22.5675C14.2916 22.6965 14.3367 22.7788 14.4379 22.8634C15.2019 23.5019 15.4615 24.4153 15.7893 25.3106L16.1984 27.0984L16.3162 28.201C16.4245 29.1458 16.4079 29.9473 16.4047 30.8965L16.3853 31.6993C16.3694 32.0559 16.305 32.5739 16.2572 32.9254C16.1491 33.7198 16.0322 34.5389 15.819 35.3129C15.8085 35.3511 15.8123 35.3357 15.8064 35.3817L32.1912 35.4022C31.9574 34.5536 31.8026 33.6762 31.7111 32.8009L31.6607 32.0626C31.649 31.9199 31.6177 31.7804 31.6099 31.637L31.6095 28.7111C31.6873 27.1895 32.0828 25.124 32.8193 23.817C33.1372 23.2526 33.5829 23.0679 33.6878 22.562C33.7823 22.1058 33.873 21.6458 33.9262 21.1827C33.979 20.7224 34.0302 20.2505 34.0405 19.7876L34.063 18.8936L34.2383 15.5628L34.4048 13.8986C34.5166 12.8986 34.6492 11.9018 34.8855 10.9221L31.2338 8.99656C30.0931 12.0854 28.6035 14.8433 25.0961 15.2989C25.536 16.4541 26.544 17.5314 27.7549 17.8738C27.9937 17.9413 28.2394 17.9621 28.4358 18.134C28.9895 18.6184 28.5858 19.6399 27.5549 19.415C26.3271 19.1472 25.2036 18.3229 24.4727 17.3195C24.3026 17.0862 24.1755 16.8262 24.0066 16.5965C23.157 17.9509 22.0303 19.035 20.4278 19.4427L20.3905 19.4526C19.5021 19.6783 18.6145 18.2838 20.189 17.8831C21.4439 17.5637 22.3617 16.449 22.9112 15.331C19.8167 14.8842 18.23 12.7275 17.0608 9.96247C16.9296 9.65229 16.8462 9.31081 16.7001 9.00945ZM28.4993 11.1447C27.3856 11.8516 25.4809 12.0445 24.2071 12.0467C22.5492 12.0495 20.9577 11.8922 19.4317 11.2097C19.6264 11.5899 19.9909 11.9376 20.2542 12.2745C21.1854 13.2676 22.2139 13.7555 23.5825 13.7985C25.9031 13.8713 27.3945 13.1447 28.5393 11.1476L28.4993 11.1447ZM11.8463 12.7355L5.67823 20.9959C5.98601 21.2527 6.34662 21.4614 6.68112 21.6825L8.42669 22.8211L11.1935 24.5548C11.6729 23.9189 12.1397 23.3922 12.7663 22.8963C12.6432 22.372 12.6083 21.8565 12.5709 21.3213L12.3186 16.7148C12.2189 15.39 12.1212 14.0374 11.8463 12.7355ZM36.1071 12.7595C36.0359 13.1193 36.0048 13.4855 35.9591 13.8492L35.6756 18.2628L35.4803 21.0613C35.4554 21.3983 35.3929 21.7384 35.3486 22.0734L35.2863 22.6759C35.2376 23.0564 35.5663 23.1408 35.8559 23.4126C36.2187 23.7532 36.5944 24.1693 36.8643 24.5865L39.653 22.8082L41.9004 21.3343C41.9945 21.2716 42.2501 21.1534 42.3033 21.0656L36.1071 12.7595ZM20.6995 36.9536L15.2218 36.9544C15.1298 37.0769 15.1089 37.228 15.0418 37.364C14.8489 37.755 14.3441 38.7862 14.0405 39.0839C14.1657 39.1368 14.3554 39.1128 14.4905 39.1117L27.3864 39.1107L33.244 39.1115C33.47 39.1114 33.7135 39.1298 33.9375 39.1023L33.9076 39.0732C33.5846 38.7451 32.9085 37.3667 32.7916 36.9677L20.6995 36.9536Z" fill="black"/>
</svg>
