<svg width="48" height="48" viewBox="0 0 48 48" fill="none" xmlns="http://www.w3.org/2000/svg">
<path d="M35.8882 44.1378L33.5705 44.8591C31.8741 45.3191 30.1022 45.5138 28.3553 45.6571L25.543 45.8127L22.858 45.813L19.6984 45.6505C15.1126 45.3031 11.7768 44.362 7.86886 42.0835C6.78375 41.4508 7.05103 39.9669 7.46471 39.0018L7.71057 38.4778C7.77103 38.3516 7.84857 38.2224 7.83797 38.0782C7.72791 36.5813 8.33255 34.2189 8.80482 32.8361L11.0358 27.1451L12.3261 23.1851C10.6609 23.1435 9.85819 22.161 9.10969 20.7519C8.58239 19.7591 7.98319 18.8095 7.17103 18.0212C6.72014 17.5836 6.19744 17.3127 5.87293 16.7515L5.85769 16.7248C5.60227 16.271 5.43802 15.567 5.5891 15.0455L5.63288 14.8936C5.89107 14.0199 6.53658 13.5723 7.23436 13.0607L12.3966 9.54077C13.3043 8.96365 14.2114 8.40255 15.1755 7.92138C15.3652 7.82669 15.4984 7.52341 15.6297 7.35368L16.5673 6.23205C16.9066 5.83127 17.2561 5.24787 17.7818 5.08713L17.906 5.08657C18.2373 5.11029 18.5215 5.44591 18.7649 5.64959C20.1267 6.7894 21.1288 8.12735 22.0816 9.60916L22.9802 10.9374C23.3135 11.4294 23.6357 11.9484 24.0091 12.4099C24.0576 12.4118 24.5748 11.6165 24.6443 11.5102C25.973 9.47613 27.3029 7.43594 29.0976 5.77296C29.3761 5.51491 29.8559 4.93826 30.2977 5.11666L30.3278 5.12937C30.5349 5.21135 30.6531 5.37096 30.7982 5.53104L31.2758 6.05838C31.7663 6.6034 32.2986 7.16505 32.717 7.76848C32.8273 7.92766 32.936 7.93226 33.0993 8.01982L38.0453 11.1548L40.3687 12.8133C40.831 13.1657 41.3281 13.4815 41.7303 13.9061C42.4973 14.7158 42.7279 15.8544 42.096 16.8277C41.7988 17.2853 41.3586 17.5617 40.9698 17.9302C40.2359 18.626 39.6085 19.4438 39.1197 20.3284C38.2921 21.8262 37.6303 23.0046 35.6943 23.0195C35.7595 23.6231 36.0017 24.4895 36.2025 25.0737L36.263 25.2654C36.3585 25.6462 36.5046 26.0257 36.6327 26.3978L39.0001 32.4256C39.6653 34.0966 40.2679 36.5338 40.1887 38.3003C40.1853 38.3765 40.2557 38.4609 40.2902 38.53L40.5936 39.1756C40.9129 39.9464 41.1753 41.318 40.4793 41.9342C40.3091 42.0849 40.0756 42.1772 39.8794 42.2899C38.6061 43.0212 37.2666 43.63 35.8882 44.1378ZM30.0819 6.62899C28.4552 8.21426 27.5378 9.46943 26.3071 11.3535L25.1753 13.0451C24.3055 14.329 24.0398 14.8655 22.9357 13.153L20.0986 8.98676C19.5287 8.20409 18.7043 7.25852 17.9374 6.65088L16.9092 7.84779C16.6951 8.11329 16.4715 8.38329 16.2848 8.66866C16.3588 8.84655 16.4731 8.99815 16.5653 9.16596L17.4067 10.63C18.5107 12.5337 19.3566 13.8239 21.2092 15.0094C22.3766 15.7565 22.8314 15.6235 23.715 17.0506C23.8165 17.2144 23.9004 17.385 24.0222 17.5362C24.6998 16.4595 25.0259 15.9454 26.2497 15.3254C28.1765 14.3495 29.1933 13.2397 30.3514 11.367L30.9998 10.2067C31.278 9.70709 31.5654 9.21148 31.7977 8.68812L30.0819 6.62899ZM15.1804 9.39705L14.5379 9.79727L14.9346 10.9893C16.1678 13.8061 18.5124 16.9191 21.7033 17.4759C21.787 17.4904 21.9025 17.5278 21.9853 17.5252C22.1872 17.5607 22.3477 17.6125 22.5297 17.7098L22.5198 17.6907C22.0183 16.727 21.1445 16.5271 20.2995 15.9916C18.3188 14.7366 17.0693 12.6855 15.924 10.7007C15.6774 10.2735 15.455 9.80477 15.1804 9.39705ZM32.9454 9.38674L31.6929 11.6506C30.4467 13.7612 28.994 15.4558 26.7762 16.5346C26.2363 16.7973 25.8665 17.0631 25.5566 17.6069L26.0671 17.5057C29.4591 16.9062 31.9365 14.0239 33.1492 10.9294L33.5554 9.77604L32.9454 9.38674ZM13.3892 10.463L8.61582 13.6747C10.6395 14.9089 12.514 17.375 13.4326 19.4985L13.8026 20.4788C14.1311 21.468 13.8905 22.4087 13.6111 23.3693L11.5028 29.5128C10.6252 31.7047 9.65414 33.8235 9.28486 36.1742L9.18071 36.9263C9.15839 37.1458 9.14728 37.3683 9.10158 37.5844C9.59921 37.9084 10.1573 38.1841 10.6835 38.461C13.5554 39.9724 16.3029 40.7122 19.5466 41.0932L22.9591 41.3405L26.9177 41.2514C27.9666 41.1929 29.2896 41.0581 30.2957 40.8448L32.1034 40.4681C34.0964 39.9653 35.9956 39.2139 37.8002 38.2297L38.5205 37.844C38.6393 37.7813 38.7807 37.7317 38.8859 37.6482C38.8006 36.9504 38.7532 36.2459 38.5834 35.5608C37.9981 32.8765 36.7348 30.3843 35.7691 27.8251C35.2921 26.561 34.8924 25.2478 34.5682 23.9362L34.0749 21.655C33.8936 20.8024 34.4188 19.7897 34.7764 19.0546C35.8739 16.7989 37.2526 15.0431 39.3143 13.633L34.7363 10.504C34.6359 10.6937 34.5756 10.8877 34.4968 11.0857C33.1914 14.3664 30.839 17.4614 27.3513 18.5621C26.9997 18.673 25.8802 18.9755 25.5765 18.8084C25.319 18.6667 25.273 18.4356 25.189 18.1774C24.8538 18.5847 24.6047 19.3675 24.0379 19.4284C23.3748 19.4999 23.1327 18.5562 22.7049 18.0463C22.6684 18.1632 22.6864 18.2884 22.6479 18.4099L22.6406 18.4346C22.3654 19.3016 20.6236 18.5721 20.0989 18.3661C17.3787 17.2979 15.0658 14.5413 13.9357 11.9358L13.3892 10.463ZM7.51477 14.4874C7.27374 14.6381 7.03364 14.8804 6.91275 15.1404L6.89466 15.1781C6.52111 15.9804 7.34897 16.4244 7.82789 16.8689C8.69785 17.6763 9.43871 18.6468 10.0199 19.6812C10.4362 20.4221 10.7185 21.2647 11.5241 21.6832L11.6944 21.7672C11.8238 21.8265 11.9452 21.8541 12.0839 21.8839C12.5129 21.916 12.7426 21.8528 12.6946 21.3645L12.6809 21.2555C12.6265 20.8085 12.3893 20.3327 12.1989 19.9294C11.2061 17.8259 9.57197 15.6686 7.51477 14.4874ZM40.4702 14.5339C38.6801 15.2451 36.9765 17.6145 36.1427 19.2394C35.9336 19.6469 34.4924 22.1908 35.9951 21.7209C36.6323 21.5808 37.0367 21.303 37.3935 20.7463L38.2146 19.3167C38.7631 18.4168 39.4728 17.496 40.2752 16.8008C40.6216 16.5007 41.0874 16.2424 41.1571 15.7498L41.1627 15.714C41.2287 15.2615 40.8348 14.7663 40.4702 14.5339ZM8.92275 38.9801C8.61553 39.4703 8.32449 40.2365 8.39921 40.8161C8.71411 41.0861 9.05963 41.2818 9.42019 41.4828L10.7107 42.1416C12.9118 43.1485 15.1059 43.7797 17.5193 44.0942L20.3579 44.3929C20.5068 44.4044 20.6497 44.4336 20.8 44.4407L26.2568 44.4577C26.5756 44.4524 26.8984 44.4564 27.216 44.4314L31.0193 44.047C33.2343 43.7184 35.3766 43.0383 37.4109 42.1071L39.3708 41.1127L39.6512 40.8861C39.6388 40.4583 39.4178 39.3712 39.0818 39.0473C38.8276 39.1306 38.5755 39.2904 38.3381 39.4144L37.1196 40.0375C33.0747 42.0034 28.6195 42.643 24.1529 42.6421L20.9878 42.5603L19.4294 42.3943C16.5183 42.0483 13.613 41.4 10.9802 40.0676L8.92275 38.9801Z" fill="black"/>
<path d="M24.1489 21.8072L24.1114 21.8105C23.1831 21.8971 22.9817 20.8193 23.7969 20.4412C24.363 20.4211 24.876 20.813 24.6239 21.3821L24.6101 21.4103C24.5123 21.6155 24.3505 21.7218 24.1489 21.8072Z" fill="black"/>
<path d="M24.117 24.417C23.7408 24.4805 23.3925 24.2581 23.3197 23.8732L23.3129 23.8356C23.2429 23.4589 23.4839 23.1764 23.8155 23.041L23.8418 23.0407C24.1371 23.0324 24.4451 23.1024 24.5784 23.4025L24.5903 23.4339C24.7773 23.8782 24.5404 24.2542 24.117 24.417Z" fill="black"/>
</svg>
