<svg width="48" height="48" viewBox="0 0 48 48" fill="none" xmlns="http://www.w3.org/2000/svg">
<path d="M30.8788 46.4802L11.5945 46.4798C11.1074 46.4791 10.708 46.4133 10.2674 46.1835C8.86279 45.4509 9.01865 44.2239 9.24604 42.9759L9.67152 40.8359L11.3085 34.3268L12.0766 31.7334L13.4742 27.785C13.7827 27.0035 14.1021 26.2194 14.4969 25.4774L14.2269 24.8323C12.5241 25.5233 11.8365 27.8384 10.0966 28.4937L9.85794 28.575C8.0713 29.0565 6.69562 28.1267 5.44996 26.9801C2.73094 24.4773 2.08969 22.1778 4.51131 19.3291L5.80907 17.8132C7.69602 15.4739 9.27946 12.9343 10.6256 10.2501L11.6919 8.12814C12.5 6.59585 13.3771 5.59366 15.069 4.95232L15.5653 4.77292C15.7986 4.69586 15.7271 4.67706 15.7402 4.41844C15.7785 3.6647 16.1969 3.29038 16.7124 2.80286C17.2462 2.29797 17.757 1.71618 18.4918 1.5285C19.0476 1.50139 19.6042 1.73939 20.1428 1.86367C22.2078 2.34014 24.3867 2.52574 26.4853 2.14649L28.1168 1.79545C29.8327 1.36228 29.7032 1.33368 31.1251 2.65641C31.3848 2.89799 31.7167 3.16042 31.9113 3.45877L31.9335 3.49424C32.213 3.93381 32.2362 4.69361 32.2461 4.70758C32.2693 4.74049 32.6996 4.85861 32.7703 4.88566C34.1353 5.40714 35.3154 6.25985 36.0214 7.57624L38.372 12.0909C38.9296 13.0633 39.4933 14.0279 40.1278 14.9535L42.0992 17.6705L43.3249 19.1489C43.9954 19.95 44.5698 20.713 44.8303 21.7387C45.4963 24.3604 43.4863 26.2912 41.5507 27.6213C40.1217 28.6033 38.5145 29.2216 36.9264 28.0411C35.6983 27.1281 35.4713 25.56 33.7127 24.816C33.4104 25.1491 33.2436 25.5649 32.9735 25.9223C33.0171 26.1238 33.1187 26.3123 33.1828 26.5082L34.7338 30.6449C34.8504 30.9422 34.9367 31.2539 35.0629 31.5473L37.572 38.3324L38.0453 39.7958C38.0974 40.0158 38.1861 40.2316 38.2325 40.4527L38.7453 42.6745C38.8752 43.2282 38.9918 44.147 38.8823 44.671C38.6144 45.953 37.5059 46.4792 36.3155 46.48L30.8788 46.4802ZM18.4103 3.48675L17.8244 4.05324C17.64 4.24097 17.4365 4.4481 17.3117 4.68145C17.4326 5.38389 17.6745 6.09972 17.9062 6.77383C18.2576 7.79622 18.6988 8.77038 19.1498 9.75039L20.8821 12.7897L21.5964 12.2857C22.0887 11.9018 22.6496 11.5344 23.0941 11.0976L22.0544 9.97258C20.7767 8.5076 19.5866 6.84944 18.877 5.03013C18.6785 4.52129 18.5903 3.99521 18.4103 3.48675ZM29.5722 3.55117C29.5187 3.69884 29.4901 3.85192 29.4459 4.00217C28.7735 6.28919 27.4076 8.30842 25.8378 10.0784L24.8884 11.0771C25.0143 11.2357 25.1805 11.3474 25.3369 11.473L26.4518 12.3213L27.144 12.7899C28.159 11.3045 29.0457 9.41064 29.6864 7.74808L30.3573 5.88939L30.6632 4.69192C30.5481 4.46723 29.8762 3.62221 29.6032 3.55447L29.5722 3.55117ZM20.1046 3.57417C20.5295 5.35436 22.1235 7.46524 23.2787 8.80792C23.5139 9.0813 23.7401 9.37347 24.0097 9.61385L25.8943 7.29194C26.5359 6.39546 27.1071 5.49147 27.5305 4.46906L27.8507 3.60036C26.9008 3.78437 25.9432 3.94312 24.9762 4.00107L23.9479 4.01197C22.5829 4.00853 21.4543 3.8939 20.1046 3.57417ZM31.9408 6.36367L30.876 9.33635L30.4711 10.1957C30.1064 10.9959 29.7021 11.8112 29.2585 12.5711L28.619 13.5952C27.8956 14.7499 27.7549 15.0819 26.3408 14.2269C25.5178 13.7292 24.696 13.2052 24.0145 12.5215C23.4543 13.0177 21.3001 14.7438 20.6205 14.693C20.0764 14.6524 19.8678 14.347 19.6028 13.936L18.5935 12.2901C17.5354 10.4223 16.6736 8.42983 16.0531 6.37521C14.3431 7.10496 13.8539 7.46646 12.9801 9.23477L12.186 10.8595C10.7076 13.7538 9.07593 16.3632 7.06049 18.9101L5.94909 20.219C5.45671 20.7857 4.88165 21.3871 4.74313 22.1533L4.71084 22.3374C4.65226 22.6804 4.70268 23.1551 4.82905 23.4848L4.9101 23.6947C5.31379 24.6061 7.22427 26.5177 8.19712 26.8919L8.51366 26.9857C9.45599 27.2479 10.017 26.5708 10.5732 25.9456C11.3867 25.0309 12.1608 24.007 13.243 23.3934C12.3201 21.2635 13.2284 18.1634 13.7202 16.0153L13.9387 14.9545C14.0606 14.3275 14.3048 13.4563 15.209 13.8945C15.924 14.2411 15.6159 15.0995 15.4808 15.6794L15.2533 16.7966L14.9091 18.2699C14.6638 19.3587 14.2705 21.5271 14.6863 22.5351C14.9601 23.1987 15.5925 23.5773 15.8692 24.2329C15.9457 24.4141 15.9478 24.6119 16.0008 24.8016C16.2567 24.8775 16.5347 25.0481 16.7984 25.0514L30.8101 25.0511C31.8791 25.044 31.9259 24.3428 32.3831 23.7179C32.5095 23.545 32.6835 23.4114 32.8354 23.2621C33.7131 22.3995 33.5361 21.0646 33.3988 19.9574C33.2269 18.5719 32.9035 17.2241 32.6107 15.861L32.4347 15.0906C32.1274 13.7051 33.5212 13.4973 33.9371 14.2855L33.9583 14.3248C34.1293 14.6577 34.1382 15.2039 34.232 15.5707L34.8509 18.3287L35.0832 20.052C35.1921 20.9986 35.2428 22.115 34.9208 23.0193C34.8784 23.1385 34.8017 23.2641 34.7719 23.3832C35.4111 23.8438 35.9929 24.3313 36.5196 24.919C37.2187 25.6989 37.7702 27.1882 39.0539 26.9936C39.6866 26.8978 40.2506 26.4851 40.7592 26.1256C42.0362 25.2231 43.5537 23.9838 43.2347 22.2183C43.049 21.1907 42.1662 20.3694 41.527 19.6023L39.677 17.2379L37.0615 13.19L35.1753 9.62678C34.1509 7.55346 33.9845 7.24047 31.9408 6.36367ZM15.8364 26.569C14.3421 29.4818 13.2892 33.3748 12.4367 36.5108L11.9067 38.4613L10.829 43.5703C10.7435 44.0084 10.5761 44.7404 11.2739 44.7552L32.2858 44.7492L36.3628 44.7535C36.8375 44.7573 37.245 44.7174 37.245 44.143C37.245 42.376 36.3525 39.8905 35.7759 38.2294L31.7805 27.5093C31.4301 26.5357 31.6527 26.7142 30.911 26.7681L18.6102 26.7868C17.7219 26.7866 16.6836 26.8949 15.8364 26.569Z" fill="black"/>
</svg>
