<svg width="48" height="48" viewBox="0 0 48 48" fill="none" xmlns="http://www.w3.org/2000/svg">
<path d="M27.8815 41.9682C25.2482 40.3289 25.7311 38.0555 25.0925 35.4766L24.5058 33.5014C24.3043 32.9016 24.0882 32.3169 23.9399 31.7C23.4557 32.6043 23.1212 34.6177 22.9709 35.6133C22.7326 37.192 22.5643 38.975 21.6704 40.3422C19.7977 43.207 15.11 43.4745 12.1683 42.4637C10.9208 42.035 9.56948 41.2206 9.03506 39.9606C8.739 39.2626 8.80968 38.5046 8.69723 37.7695L7.98656 32.6719L7.1632 27.4384C7.03457 26.5886 6.93421 25.3686 7.07653 24.5664L7.95787 20.0149L8.38987 16.7913C8.62528 15.2991 9.02971 13.819 9.61664 12.4268L10.5455 10.3706C10.984 9.31052 11.3498 7.89536 11.3467 6.73253C11.3454 6.27344 11.1651 5.09242 11.3465 4.81005L11.4102 4.70589C11.5459 4.51274 11.7352 4.42626 11.9595 4.38874C12.2061 4.37021 12.4624 4.48305 12.6915 4.5556L17.6715 5.9845C21.7565 6.91544 24.0195 7.12202 28.289 6.40455C30.7556 5.99008 33.2045 5.44183 35.613 4.76523C36.0129 4.6529 36.4666 4.70847 36.6434 5.14445L36.6558 5.1797C36.8269 5.61278 36.6519 6.21105 36.6572 6.66798C36.6659 7.4185 36.9585 8.78481 37.2319 9.51639L37.2892 9.69142C37.4667 10.3114 37.7422 10.9369 37.9962 11.5295L38.8271 13.649L39.4531 15.6974C39.6066 16.5577 39.8424 17.3074 39.9723 18.2227L40.1714 20.0742C40.2594 21 40.3863 21.6418 40.5481 22.5586L40.7278 23.7891C40.8596 24.661 40.8754 25.5867 40.8765 26.4654L40.737 29.8218C40.5945 31.3482 40.2947 32.8784 40.0051 34.3828L39.0097 39.312C38.8675 40.2642 38.8732 40.4631 38.0706 41.1292C35.8332 42.9859 31.5983 43.5281 28.8515 42.4246L27.8815 41.9682ZM12.8456 6.1728C12.8419 6.73398 12.8971 7.38812 12.7738 7.93361L12.357 9.90198C12.7929 10.3467 14.664 10.6504 15.2922 10.8086L15.6952 10.895L15.7052 6.99569L12.8456 6.1728ZM35.0965 6.48048L32.3374 7.17095L32.3131 10.6643C32.3085 10.7435 32.289 10.837 32.3078 10.9145L32.9006 10.7845L35.4902 10.1003C35.5726 10.0779 35.7301 10.0534 35.7972 10.0037C35.409 8.73831 35.2184 7.78005 35.1579 6.48048H35.0965ZM17.1851 7.44395L17.1767 11.2005C17.6515 11.3412 18.9983 11.5599 19.4938 11.6133C19.5208 11.565 19.5164 11.5242 19.5167 11.4704L19.5184 9.61169C19.519 8.97644 19.5119 8.56408 19.7212 7.9563L17.1851 7.44395ZM30.7937 7.51173L28.2536 7.95681C28.5084 8.56844 28.4735 8.9508 28.4737 9.60498L28.4735 11.6602L30.8406 11.3522L30.7937 7.51173ZM21.1032 8.9822L20.9824 9.00278L20.9783 21.5159L23.2548 21.5211C24.4103 21.5231 25.1897 21.6264 26.1117 20.7979C27.2317 19.6668 27.0178 18.6222 27.0182 17.1836L27.0181 10.5394C27.0179 10.0351 27.0584 9.49197 27.0089 8.99158L21.1032 8.9822ZM11.7471 11.3977L10.8374 13.4621C10.2352 14.9992 9.74128 17.3339 9.6329 19.0337C9.92587 19.2281 11.865 18.5128 12.1783 18.3436C13.7842 17.4931 14.7371 15.8286 14.9127 14.0536C14.9707 13.4682 14.9522 12.8672 14.9517 12.2793C13.6463 12.0214 12.9648 11.9024 11.7471 11.3977ZM36.2709 11.4727L36.2514 11.4823C35.8412 11.681 35.3616 11.7917 34.9218 11.9079L33.0683 12.3685C33.0668 13.4179 33.0349 14.5206 33.4226 15.5156C33.9064 16.7569 34.707 17.7751 35.9382 18.3633L35.994 18.3885C36.7869 18.7477 37.6385 18.9932 38.514 19.012L38.241 17.2671C37.9468 15.8119 37.4776 14.4211 36.9545 13.0347L36.2709 11.4727ZM16.5795 12.6745L16.365 14.6928C15.8122 18.2205 12.896 20.5425 9.38587 20.6072L8.87564 23.167C8.57704 24.5623 8.42582 25.6719 8.6361 27.0835L8.85946 28.5469C8.90976 28.8717 8.93634 29.2095 9.00173 29.5313L9.50512 32.6367C9.53325 32.8118 9.54314 32.9883 9.56278 33.1641L9.85396 35.4763C9.91354 35.8729 9.95076 36.288 10.0348 36.6797L10.1863 37.3965C10.2836 37.953 10.1972 38.687 10.3019 39.0823C10.6597 40.4336 12.881 41.1611 14.0624 41.3368L14.6967 41.4113C14.9838 41.4572 15.2896 41.4396 15.5797 41.4385C17.5941 41.4311 19.9046 40.8433 20.742 38.8082C20.9262 38.3607 21.0253 37.8825 21.124 37.4109L21.374 36.082C21.5062 35.2239 21.6097 34.3538 21.7948 33.5045C21.9419 32.83 23.0212 29.0391 23.5454 28.6507C24.1575 28.1973 24.6008 28.7225 24.7714 29.2852L26.3553 34.2935C26.3836 34.4058 26.4228 34.5124 26.4463 34.6273L26.7659 36.0938C27.0804 37.9378 26.9444 39.8082 28.9176 40.7838L29.2266 40.9219L29.4445 41.0077C31.7057 41.8719 35.1504 41.4447 37.0903 39.9977C37.439 39.7376 37.473 39.6175 37.5262 39.2068L37.972 36.5094L38.4179 34.5301C38.8807 32.3501 39.2673 30.1244 39.3681 27.8953L39.3783 26.7068C39.3789 26.2171 39.3989 25.7177 39.3626 25.2296C39.2462 23.6676 38.8913 22.1543 38.6851 20.6057C35.0169 20.4798 31.9577 18.1562 31.6262 14.3794C31.5777 13.8269 31.6113 13.2747 31.5367 12.7218C31.1579 12.8437 30.7427 12.8932 30.3515 12.9657L28.4812 13.2724L28.4734 17.4939C28.4733 18.1857 28.5343 18.9325 28.4031 19.6131C28.0547 21.4207 26.6584 22.7023 24.88 23.02C24.5927 23.0714 24.2571 23.0406 23.9643 23.0409L20.7369 23.0406C19.6479 23.0388 19.5158 22.9745 19.5174 21.9588L19.5179 13.7863C19.5179 13.5796 19.5339 13.3615 19.5065 13.1573L17.7206 12.8731C17.349 12.8125 16.9413 12.7747 16.5795 12.6745Z" fill="black"/>
</svg>
