<svg width="48" height="48" viewBox="0 0 48 48" fill="none" xmlns="http://www.w3.org/2000/svg">
<path d="M26.3539 34.8731L24.1076 26.1485C24.0694 26.524 23.9792 26.8886 23.9067 27.2579L23.4862 29.0626L22.4487 32.2066C22.1374 33.1766 21.8998 34.1893 21.6591 35.1798L20.5311 41.3258C20.4904 41.6311 20.4724 41.9522 20.3563 42.2407L20.3444 42.2696C20.178 42.6834 19.7123 42.9504 19.288 43.0226L19.0902 43.0705C18.8816 43.1279 18.6543 43.1217 18.4396 43.123L16.1345 43.1181C13.7346 42.9915 9.80178 41.8269 9.09612 39.1463C8.95456 38.6085 8.99342 37.6941 9.02843 37.1236L9.1744 35.2356C9.20614 34.5975 9.25235 33.9491 9.28067 33.3175L9.58404 28.3208L10.2397 20.128L11.2124 12.5443L11.931 9.2126C12.0077 8.93154 12.0827 8.63524 12.2106 8.37279C12.2299 8.33314 12.0567 7.95406 12.0326 7.87029C11.9922 7.73079 11.9973 7.5792 11.9952 7.4351L11.9932 6.74651C11.9941 5.84487 11.9577 5.08803 13.0849 4.7854L34.2448 4.79089C34.4942 4.79074 34.8176 4.75362 35.0527 4.8342L35.0861 4.84639C35.4509 4.97126 35.7683 5.25748 35.8926 5.62789L35.9071 5.67195C35.9275 5.72885 35.9465 5.7806 35.9592 5.83976L35.9658 5.87117C36.0666 6.34114 36.0396 7.83743 35.845 8.19448L35.8197 8.23995C35.7964 8.28832 35.8057 8.34396 35.8246 8.39234L36.0107 8.94031C36.2454 9.48082 36.3413 10.1263 36.4686 10.6993L36.8791 12.7273C36.9115 12.8746 36.9167 13.0235 36.938 13.1719L38.0049 21.6416L38.6678 29.4024L38.9187 33.9669C38.9329 34.2066 38.9724 34.4423 38.9808 34.6833L38.9931 36.9383C38.9943 38.0908 39.1324 39.0276 38.4798 40.0451C36.9645 42.4076 33.6107 43.1245 30.9629 43.1271C29.6561 43.1284 27.7667 43.3249 27.3345 41.7468C27.257 41.4641 27.2811 41.107 27.2581 40.8109L27.0832 39.0148C26.9136 37.6159 26.6266 36.2536 26.3539 34.8731ZM34.3766 6.26928L31.3247 6.29787L31.0518 7.46492L31.2141 7.50092L34.5247 7.49989L34.5246 6.27645L34.3766 6.26928ZM13.4641 6.28357L13.4551 7.48521L16.9425 7.49839C16.8989 7.2206 16.7706 6.55249 16.68 6.28193L13.4641 6.28357ZM18.4499 6.2921L18.2345 6.30246C18.2063 6.34437 18.2339 6.42889 18.2438 6.48129L18.4143 7.12043C18.4455 7.24301 18.4193 7.3902 18.4878 7.49923L29.5477 7.47331L29.7859 6.30448C29.3183 6.25629 28.8326 6.28306 28.3623 6.28282L18.4499 6.2921ZM26.7899 8.97345L26.7813 16.6221C26.7809 16.9744 26.8099 17.3539 26.7394 17.6997L26.5919 18.438C26.2687 19.7225 25.5466 20.7358 24.5392 21.5639C24.3925 21.6845 24.5408 21.8671 24.5699 22.0473L25.0418 24.0462L25.9778 27.315C25.9853 27.3487 25.9959 27.3765 26.008 27.4085L27.0347 31.2904C27.2301 31.9111 27.3154 32.562 27.485 33.1876L27.8556 34.8698C28.1044 35.9663 28.319 37.0797 28.462 38.1969L28.7298 40.7889C28.8336 41.7297 28.6823 41.4644 29.5548 41.562C31.2301 41.7492 33.1586 41.5868 34.7412 40.9946C35.7039 40.6459 36.9416 39.9621 37.3964 38.9906C37.6325 38.4863 37.5285 37.8416 37.5286 37.3009L37.5102 35.2127L37.4102 33.0057L36.6592 22.8986L36.2223 18.8979C36.1132 17.9429 36.0296 16.9713 35.8594 16.0249L35.8377 16.0311C34.7166 16.341 33.419 16.0587 32.4269 15.4884C30.2351 14.2284 29.8536 12.1961 29.5653 9.91953L29.5008 9.31737C29.4906 9.20853 29.4924 9.07873 29.4548 8.97706L26.7899 8.97345ZM13.5395 8.97551C13.3933 9.42828 13.2957 9.88695 13.1827 10.3481L12.4365 14.4374C13.3744 14.8662 14.5204 14.4713 15.3078 13.9028C16.4217 13.0372 16.7973 11.6817 16.9663 10.336L17.0608 8.97814L13.5395 8.97551ZM18.5468 8.97546C18.5241 10.7457 18.2269 12.7017 17.1526 14.1563C16.159 15.5018 14.3184 16.3647 12.6372 16.0824C12.4975 16.059 12.366 16.0097 12.2242 15.993C12.1234 16.499 12.1039 17.0322 12.0429 17.5451L11.3474 24.211L11.1128 27.8673C11.1043 28.0051 11.0772 28.1402 11.0648 28.2774L10.7556 33.011L10.662 35.1966C10.6525 35.3838 10.6101 35.5637 10.5952 35.7499L10.5464 37.208C10.5213 37.7143 10.3699 38.3229 10.5481 38.8126L10.5942 38.9487C10.6375 39.0828 10.7364 39.2104 10.8165 39.3255C11.709 40.6064 13.6289 41.296 15.1204 41.467C16.5196 41.6948 17.7037 41.6255 19.0867 41.4786L19.7228 37.3024C20.0091 35.723 20.3562 34.1436 20.7927 32.5984L21.9988 28.8673C22.3329 27.7599 22.5698 26.6365 22.7774 25.5001L23.0045 23.8946C23.099 23.1139 23.1574 22.7573 23.0037 21.9985L22.9091 21.4543C22.8091 20.8865 22.7724 20.3214 22.7699 19.7455L22.7621 8.97649L18.5468 8.97546ZM24.2611 8.97804C24.2434 9.24003 24.258 9.49418 24.2581 9.74642L24.2565 18.3969C24.255 18.8525 24.2017 19.339 24.267 19.7897L24.6739 19.1613C25.1165 18.3462 25.3032 17.5662 25.304 16.6529L25.3059 9.86857C25.3057 9.58929 25.3434 9.25015 25.2971 8.97659L24.2611 8.97804ZM30.9591 8.97448C31.0572 10.0408 31.1276 11.2534 31.5277 12.2579C32.2054 13.959 33.7509 14.9087 35.5501 14.5092L35.6166 14.4962C35.6508 14.4034 35.5684 14.1401 35.5549 14.0274C35.3719 12.4992 35.1131 10.9468 34.6272 9.48171C34.5783 9.33443 34.5453 9.13282 34.4765 8.99806L30.9591 8.97448Z" fill="black"/>
</svg>
