<svg width="48" height="48" viewBox="0 0 48 48" fill="none" xmlns="http://www.w3.org/2000/svg">
<path d="M25.2487 27.095L23.8902 19.8763C23.8467 19.9935 23.7921 20.1159 23.7681 20.2385L22.808 25.2778L22.5393 28.0785L22.006 31.8637C21.7041 33.6111 20.9447 35.2697 20.7227 37.0299L20.4965 40.1105C20.4851 40.3423 20.4468 40.5705 20.4405 40.8035L20.3249 43.5508C20.2887 44.0195 20.3628 44.5957 19.8946 44.8725L19.8601 44.8925C19.6388 45.0288 19.3947 44.9811 19.1449 44.9816L14.7655 44.9798C14.686 44.9765 14.621 44.967 14.553 44.9243L14.5311 44.91C13.9354 44.5485 13.9907 43.6724 13.8649 43.0668C13.7954 42.732 13.67 42.3968 13.6223 42.059C13.5846 41.7927 13.6853 41.5589 13.7132 41.3004C13.8329 40.1902 13.6093 38.3449 13.4951 37.2224L12.2225 27.3945C11.9635 24.999 11.8741 21.5337 12.2142 19.1489L12.7747 16.2426L13.477 13.4085C13.6011 12.9285 13.7486 12.4512 13.8475 11.9653L13.9256 11.4636C14.0455 10.8703 13.8987 10.2314 14.0166 9.63746C14.0592 9.42314 14.0682 9.2033 14.094 8.98664L14.295 7.44436C14.3627 7.02389 14.4748 6.61046 14.5652 6.19463L14.9264 4.40667C15.0396 3.84456 14.9606 3.26002 15.6171 3.02825L32.2642 3.0166C33.0525 3.02319 32.9353 3.85031 32.9855 4.41986C33.0488 5.13769 33.142 6.18942 33.3827 6.87783C33.5807 7.44427 33.8925 9.28561 33.9303 9.87933L33.944 10.8625C33.9699 11.8936 34.152 12.9873 34.4065 13.9809L34.5942 14.7309C34.6522 14.9357 34.7215 15.1429 34.7623 15.352L34.9497 16.0551C35.019 16.4111 35.1495 16.7451 35.2322 17.0981L35.5585 18.4575C35.8727 19.7293 35.9679 21.0187 35.971 22.3217L35.9182 24.645C35.8975 25.0584 35.9029 25.4745 35.8634 25.8871L35.6699 28.1606L34.828 34.4653L34.2821 40.5089C34.2697 40.8303 34.2261 41.2338 34.324 41.541C34.4482 41.9311 34.3334 42.302 34.2395 42.6801L34.046 43.5434C33.8223 44.5441 34.0223 44.9776 32.8372 44.9813L28.3762 44.9792C28.3031 44.9764 28.2382 44.9651 28.1744 44.928L28.1483 44.9121C28.0146 44.8318 27.9203 44.7387 27.8514 44.5972L27.8352 44.5628C27.7548 44.3951 27.7432 44.2237 27.723 44.0414L27.5185 41.6371L27.5078 39.3189C27.4956 39.0044 27.4519 38.6907 27.4183 38.378L27.3472 37.6278C27.2255 36.692 27.0475 35.7728 26.8022 34.8615L26.1933 32.5626L25.2487 27.095ZM16.3389 4.44723C16.2619 4.63663 16.2208 4.84857 16.1725 5.05167L15.9394 6.17621C15.9013 6.37017 15.8822 6.57221 15.8232 6.76135L18.2736 6.76622L18.7085 6.76008C18.7557 6.37013 18.7526 5.97647 18.7547 5.58436L18.7496 4.43662L16.3389 4.44723ZM22.7397 4.44816L20.1353 4.4517L20.1274 6.17696C20.1274 6.34116 20.084 6.60699 20.1366 6.75361C20.6673 6.80883 21.2408 6.76664 21.7756 6.76669L25.2684 6.76622L27.8127 6.76341L27.8075 5.13633C27.8069 4.93913 27.8452 4.62943 27.7924 4.44973L22.7397 4.44816ZM29.2116 4.45161L29.2349 6.765L31.958 6.75746L31.6614 4.45242L29.2116 4.45161ZM26.1924 8.136L25.6855 8.13882C25.6161 8.54363 25.6604 9.01571 25.6604 9.42783L25.6602 13.1719C25.6592 14.1382 25.4608 14.8774 24.5846 15.4545L24.327 15.6002C24.3487 16.0275 24.3902 16.4588 24.4594 16.881L25.1391 19.6469C25.2281 19.9802 25.3468 20.3151 25.4152 20.6533L26.2981 25.0317L27.2401 30.8212L27.6203 32.736C27.6986 33.0702 27.7647 33.4244 27.8833 33.7474L28.414 35.8363L28.6444 37.1344L28.795 38.938C28.8095 39.1429 28.8423 39.3456 28.8481 39.5512L28.8534 40.516L32.8709 40.5167L32.9603 40.5121C32.9899 40.3673 32.9771 40.205 32.9783 40.0571L33.2127 36.6332L34.3895 27.4099L34.6613 23.1035C34.7226 21.1772 34.4001 19.233 33.9106 17.3746L33.1842 14.6254C32.9874 13.8605 32.7736 13.0336 32.728 12.2434L32.7026 12.2441C30.7717 12.2829 28.9798 10.7056 28.3308 8.95946L28.1378 8.39246C28.1152 8.31755 28.1099 8.18199 28.0621 8.12578L26.1924 8.136ZM16.7672 8.14032L15.5964 8.1548C15.5559 8.29613 15.5524 8.43666 15.5279 8.58033L15.3751 9.50906C15.3084 9.86485 15.3011 10.5291 15.3353 10.8895C15.7443 10.8486 16.1887 10.7015 16.5348 10.4805C17.2624 10.0234 17.8129 9.48638 18.1823 8.70221C18.2659 8.52478 18.3078 8.32111 18.3937 8.1525L16.7672 8.14032ZM19.8087 8.14032C19.4339 10.1678 17.5002 12.1636 15.3619 12.2613C15.2485 12.2665 15.1901 12.2178 15.1637 12.3301L14.6789 14.2708C14.4324 15.2172 14.1516 16.1603 13.9654 17.1215L13.3387 21.4366C13.289 21.6784 13.298 21.95 13.2937 22.1963L13.308 23.8032C13.3169 23.9704 13.3501 24.1312 13.3596 24.2975L13.4079 25.5825C13.4156 25.6979 13.4411 25.8083 13.4533 25.9223L14.0304 30.9586C14.0553 31.127 14.0679 31.2956 14.1046 31.4621L14.7519 36.2887C14.8039 36.5297 14.7996 36.8024 14.8241 37.0494L15.035 40.184C15.0434 40.2964 15.0351 40.4043 15.0529 40.5168L16.6625 40.5169L18.3154 40.5163C18.5797 40.5161 18.8721 40.5411 19.1333 40.5062L19.3069 37.6645C19.3865 36.935 19.471 36.2081 19.6432 35.4927L20.6871 31.5461C20.9112 30.382 21.0713 29.188 21.1855 28.0082L21.6967 23.6606L22.5402 19.6337C22.7296 18.858 22.9806 18.0681 23.0998 17.2799C23.1775 16.7662 22.9952 16.1221 22.9928 15.5882L22.9899 10.5651C22.9897 9.76538 23.0299 8.94253 22.9825 8.14519L19.8087 8.14032ZM24.3095 8.064C24.2352 8.31174 24.211 8.55891 24.1983 8.81292L24.1869 12.9379C24.188 13.239 24.1305 13.6053 24.2694 13.8823C24.453 13.6069 24.3544 12.7417 24.3545 12.4128L24.3533 8.88296C24.3528 8.62486 24.4004 8.3101 24.3095 8.064ZM32.093 8.1451L29.4857 8.1541C29.6476 8.84241 30.2595 9.66666 30.7887 10.0986C31.362 10.533 31.9004 10.7679 32.6199 10.8669L32.5939 10.0712C32.5499 9.43158 32.4386 8.76019 32.2566 8.14458L32.093 8.1451ZM15.2029 41.8381L15.0936 41.8569C15.051 41.9446 15.0674 42.1054 15.0739 42.2045L19.0134 42.2346L19.0943 42.2465L19.0935 41.8421L15.2029 41.8381ZM29.8008 41.8381C29.4921 41.8406 29.1626 41.8205 28.8569 41.8572C28.8646 41.967 28.8578 42.1091 28.903 42.2095L32.0285 42.2118L32.9533 42.2113C32.9485 42.0979 32.9455 41.9866 32.9246 41.8747C32.8045 41.7938 30.1634 41.838 29.8008 41.8381ZM15.5332 43.5323L15.2817 43.5924L18.8026 43.6012L18.9765 43.5668C18.8525 43.4913 15.9388 43.5334 15.5332 43.5323ZM31.1308 43.5358L29.8477 43.5367C29.5757 43.5371 29.2818 43.5128 29.0162 43.5741L30.3284 43.5906L31.6455 43.5989C31.9497 43.5988 32.2671 43.6199 32.566 43.5591L31.1308 43.5358Z" fill="black"/>
<path d="M24.0507 6.02995C22.8773 6.02535 22.95 4.65857 23.9559 4.50977C24.3058 4.52251 24.6225 4.67815 24.7396 5.03723L24.7755 5.12807C24.8205 5.24137 24.8154 5.44059 24.7655 5.5514L24.7525 5.57849C24.6208 5.87554 24.3639 5.98977 24.0507 6.02995Z" fill="black"/>
</svg>
