<svg width="48" height="48" viewBox="0 0 48 48" fill="none" xmlns="http://www.w3.org/2000/svg">
<path d="M28.1351 38.5206C27.6743 38.0926 27.5946 37.4467 27.4551 36.8669L27.0821 35.4313C26.3792 32.8297 25.5154 29.739 24.1998 27.3658C23.9022 27.3121 23.8561 27.2972 23.7042 27.5727L23.3881 28.1743C22.7665 29.4051 22.2479 30.6732 21.8444 31.9926L20.5592 36.8676C20.3564 37.6486 20.2766 38.6147 19.2952 38.7692L19.2657 38.7735C19.1549 38.7905 19.0597 38.7875 18.9493 38.7683L8.2266 36.6581C7.4758 36.5124 6.77104 36.3675 6.47043 35.5581L6.45707 35.5212C6.31143 35.13 6.42608 34.6847 6.46438 34.2813L7.1526 28.3761L8.43538 20.7191L9.11854 17.2621L10.2839 12.3696C10.3406 12.1592 10.3986 10.7134 10.4065 10.3635C10.4202 9.7652 10.3307 9.39254 10.9771 9.1224C11.2685 9.09751 11.4438 9.18713 11.7178 9.26579L16.1321 10.4096L19.6089 11.0876L22.3309 11.3849L25.5938 11.4004L28.5821 11.0589L32.5236 10.2258L36.3022 9.27676C36.7617 9.15999 37.3498 9.00512 37.5664 9.6204C37.6568 9.87742 37.6631 10.6754 37.6649 10.9971L37.6844 11.8578C37.7114 12.3717 37.9909 13.7535 38.1709 14.3071L38.9418 17.7278C39.0478 18.1326 39.1047 18.5511 39.1954 18.9589L40.4061 25.6293L41.0089 29.5536L41.5441 34.3625C41.5774 34.6987 41.6553 35.0761 41.5703 35.4108L41.562 35.4417C41.319 36.4084 40.4727 36.4866 39.6604 36.6528L30.1654 38.5545C29.4692 38.704 28.7683 39.02 28.1351 38.5206ZM11.8506 10.8687L11.8194 12.2637L16.4273 13.2324L16.4428 12.0227L11.8506 10.8687ZM36.1131 10.8871L31.5164 12.0498C31.4923 12.1079 31.538 13.0623 31.5543 13.2124L31.6253 13.2176L34.8744 12.486C35.0752 12.4428 36.0699 12.2761 36.1837 12.1845L36.1653 11.3702C36.1649 11.2497 36.1985 10.9856 36.1418 10.8833L36.1131 10.8871ZM29.9902 12.3637L27.2734 12.7597C26.7414 12.8254 26.2016 12.9065 25.6666 12.9386L22.1964 12.9202L18.4481 12.4625C18.275 12.4329 18.0967 12.4151 17.9276 12.3669L17.9225 13.0805C17.9231 13.2292 17.9147 13.3808 17.9435 13.5271L18.0112 13.5548L21.1995 14.019C21.5836 14.0625 21.976 14.1237 22.3616 14.1441L25.1003 14.1522C25.2501 14.1445 25.397 14.1177 25.546 14.1065L29.5744 13.6215C29.7218 13.5995 29.8811 13.5988 30.0229 13.5538L29.9902 12.3637ZM36.3646 13.6762C35.8347 13.7633 35.3062 13.9281 34.7827 14.0523C34.4974 14.12 34.1671 14.1574 33.8938 14.2538C33.895 15.6871 34.621 17.0892 35.8301 17.8819C36.2931 18.1734 37.0146 18.5779 37.5762 18.6133L36.6035 14.2007C36.5567 14.0102 36.5513 13.64 36.3646 13.6762ZM11.5508 13.7465L10.3764 18.6388C11.0417 18.4973 11.6353 18.2394 12.1975 17.8581C13.3201 16.9798 13.9382 15.8079 14.1059 14.4165L14.1164 14.2655L12.2551 13.8803C12.0397 13.836 11.7682 13.7409 11.5508 13.7465ZM32.3542 14.5902C32.1526 14.6401 31.9135 14.6593 31.7222 14.731C31.5849 15.3136 30.9289 15.4848 30.456 15.1303C30.2748 14.9945 30.3579 15.0108 30.1118 15.0602L27.9177 15.3871C27.4628 15.4488 26.9957 15.5356 26.5361 15.5446C26.5042 15.7485 26.5102 15.9549 26.4963 16.1605L26.3113 18.1891C26.2941 18.3425 26.2565 18.4887 26.2466 18.6444L26.2214 20.16C26.1419 21.536 25.5053 23.0623 23.9723 23.2238C23.6542 23.2573 23.3057 23.2314 22.9834 23.2307C21.4403 23.2276 21.677 22.7264 21.676 21.5061L21.6818 20.2167L22.0823 15.5628L18.1055 15.1332C17.8037 15.087 17.6923 14.9901 17.4351 15.1709C17.1164 15.395 16.4911 15.3438 16.3472 14.9285C16.226 14.5786 16.4128 14.6977 15.7561 14.6281L15.6305 14.6198C15.5528 14.9994 15.4928 15.3935 15.3835 15.7652C14.7505 17.9179 13.1615 19.4815 11.011 20.0525C10.7057 20.1336 10.371 20.2091 10.0546 20.2094L8.91487 26.6938L8.30202 31.4687C8.2843 31.6424 8.24877 31.8036 8.2469 31.9795L14.5838 32.8194L19.8741 33.5027L20.4724 31.4544C20.8255 30.3292 22.0933 26.4325 23.2852 25.9569L23.3204 25.9423C24.081 25.6312 25.0837 25.8879 25.4978 26.6254C25.9923 27.506 26.5115 28.5333 26.8293 29.4965L28.1409 33.5957L38.3555 32.18C38.8277 32.1115 39.3312 32.0591 39.7884 31.9227L37.9112 20.1906C35.1804 20.0958 32.6156 17.5691 32.4 14.8565C32.3936 14.7761 32.405 14.6499 32.3542 14.5902ZM23.6138 15.7321C23.5294 16.1689 23.5269 16.6108 23.4786 17.0552L23.2317 20.0415L23.228 21.7696C23.4272 21.7561 23.6172 21.7442 23.8116 21.6951L23.857 21.6845C24.0347 21.6414 24.1575 21.5614 24.2883 21.4373C24.9237 20.6487 24.723 19.3245 24.8231 18.297L24.8753 17.5704C24.8883 17.4336 24.9185 17.2997 24.9294 17.1634L24.9824 15.7415L23.6138 15.7321ZM39.9171 33.434L28.5349 35.0331L29.0444 36.9793C29.1155 37.3119 29.172 37.2085 29.461 37.148L39.4073 35.1729C39.6379 35.126 39.8927 35.091 40.1159 35.019L39.9171 33.434ZM8.08874 33.4635C8.01594 33.7942 7.86191 34.6997 7.89871 35.045C8.28299 35.1457 8.67618 35.2076 9.06529 35.2855L18.6343 37.155C18.7256 37.1738 18.8364 37.2149 18.9286 37.2095L18.9883 36.9519L19.471 34.9734L8.08874 33.4635Z" fill="black"/>
</svg>
