<svg width="48" height="48" viewBox="0 0 48 48" fill="none" xmlns="http://www.w3.org/2000/svg">
<path d="M26.3011 35.2314L25.0552 28.3823C24.9139 27.4343 24.6381 25.5811 24.0752 24.7862L23.882 24.8849C23.2026 25.3281 23.1923 26.7024 23.1167 27.4102L22.9293 28.8402L22.056 33.8681C22.0006 34.163 21.9577 34.4595 21.8846 34.7511L21.695 35.5503C21.3565 36.7167 20.736 37.8235 20.1209 38.8625C19.844 39.3301 19.6437 39.8414 19.0175 39.7282L10.8281 38.0911C9.76787 37.8915 9.56968 37.9203 9.56711 36.7051L9.46454 33.3737C9.45582 33.1942 9.418 33.0202 9.40637 32.8409L9.29617 30.023L9.18264 26.6836C9.17832 26.4721 9.13243 26.2682 9.12503 26.0595L9.12034 24.5714C9.11884 23.9983 9.01759 23.6197 9.00878 23.0805L9.00732 21.1136C9.01346 20.6665 9.07782 20.2275 9.11518 19.7817L9.84072 13.3237C9.93545 12.674 10.0083 12.0202 10.1534 11.3784C10.2955 10.7502 10.6737 10.097 10.6877 9.45107C10.6927 9.22326 10.6227 8.77344 10.7638 8.58829L10.7817 8.56593C10.9133 8.39249 11.0371 8.34107 11.2376 8.27797L36.374 8.26794C36.711 8.26879 37.0101 8.2168 37.2033 8.56279L37.2177 8.58937C37.3979 8.90816 37.3241 9.33168 37.4069 9.67921L38.0117 12.8667C38.057 13.2299 38.0826 13.6084 38.1139 13.9742L38.6683 18.2375C38.8691 19.7314 38.8746 21.2362 38.911 22.7391C38.9176 23.0114 38.9669 23.2774 38.9712 23.5506L38.9679 26.0114C38.9601 26.239 38.9186 26.4634 38.9119 26.6901L38.7812 30.5398C38.7647 30.7992 38.7198 31.052 38.7111 31.313C38.6786 32.2801 38.6545 33.2696 38.6093 34.2346C38.58 34.8599 38.5077 35.3402 38.5065 36.0153L38.5045 36.8838C38.5005 38.0811 37.9833 37.9272 37.008 38.1264L29.717 39.5915C28.9552 39.7508 28.5751 39.9878 28.1205 39.2386L27.7195 38.5233C27.1456 37.4602 26.5981 36.4092 26.3011 35.2314ZM12.1914 9.72927L11.837 10.8323C11.8028 10.9349 11.6953 11.1609 11.7036 11.2617L35.8398 11.2679L36.2676 11.2607C36.1683 10.7565 36.1083 10.2201 35.9578 9.72871L12.1914 9.72927ZM11.3855 12.7322L11.2269 13.8512L27.7043 13.8568C27.7889 13.861 27.8544 13.8698 27.9259 13.917L27.9594 13.9383C28.2473 14.125 28.4147 14.4641 28.3187 14.8003L28.3113 14.8287C28.1813 15.3 27.7079 15.306 27.3185 15.3076L26.2323 15.3126L26.229 18.3465C26.2295 19.9126 26.3547 21.4831 24.5627 22.2211C24.4891 22.2514 24.4169 22.2894 24.3375 22.3003L24.3482 22.3664C24.5445 22.6854 24.6974 23.0403 24.8846 23.3677C25.8724 25.0951 25.9923 25.3228 26.3529 27.3931L26.4852 28.1831C26.5137 28.3783 26.5268 28.572 26.5732 28.7649L27.6561 34.7222L27.8944 35.5308C28.0018 35.8141 28.1038 36.1028 28.2355 36.376L29.22 38.2097L37.0798 36.5986L37.5206 24.4198C37.2029 24.3605 36.8621 24.3905 36.5378 24.3308C35.1078 24.0674 33.8892 23.2755 33.0615 22.0775C32.2751 20.9394 32.0844 19.4896 31.8761 18.1528L31.5457 15.6089C31.5243 15.3454 31.5773 15.3527 31.3962 15.1634C31.1263 14.8812 31.339 14.2905 31.5839 14.0673L31.6309 14.0269C31.8755 13.8084 32.1202 13.8573 32.432 13.8549L36.6546 13.8637L36.5425 12.7405L11.3855 12.7322ZM11.3777 15.3044L11.0689 15.3024L10.4943 20.3811C10.4377 21.0817 10.3931 22.2571 10.4488 22.9731C11.4377 22.9281 12.2305 22.6845 13.0071 22.0618C14.2779 20.9881 14.6899 18.6959 14.8274 17.062L14.9334 15.3078L11.3777 15.3044ZM36.5536 15.2927L34.1695 15.3065C33.7855 15.3069 33.3591 15.2714 32.9806 15.3204C33.0024 16.0415 33.1273 16.7545 33.2315 17.4666C33.4848 19.1982 33.5599 20.8222 34.9536 22.0241C35.6717 22.6065 36.5637 22.9704 37.4982 22.9788C37.5567 22.2105 37.4871 21.4526 37.4338 20.6883L37.1201 17.3686C37.0281 16.6836 36.8833 15.9973 36.8362 15.307L36.5536 15.2927ZM16.3417 15.3072C16.2919 15.764 16.3198 16.22 16.2895 16.6741C16.1981 18.0442 15.9711 19.5764 15.5275 20.8878C14.7699 23.1277 12.8162 24.3342 10.535 24.3997C10.5028 25.0835 10.5706 25.7629 10.5839 26.4447L10.5967 28.3686C10.6033 28.5946 10.658 28.8151 10.6696 29.0386L10.7854 32.2261C10.8166 32.7953 10.8151 33.7723 10.9091 34.2299C10.9542 34.4498 10.9478 34.7177 10.9519 34.9426L10.967 35.9811C10.9676 36.1825 10.947 36.4106 10.9966 36.606L17.7133 37.9278C18.0879 38.0103 18.4789 38.0661 18.8425 38.1899C20.2097 35.957 20.4089 34.8073 20.8694 32.2565L21.5492 28.168C21.7676 26.519 21.7061 24.5033 23.2865 23.5153L22.9319 22.6528C22.9076 22.5915 22.873 22.5368 22.8384 22.481C22.0624 22.4848 21.7731 22.2814 21.7717 21.4671L21.7722 15.3076L16.3417 15.3072ZM23.4319 15.3072L23.2429 15.327C23.212 15.4186 23.2276 15.5522 23.227 15.6509L23.2274 20.4801C23.2275 20.6428 23.2059 20.8436 23.2355 21.002C23.6638 20.9991 23.9785 20.96 24.3369 20.701C24.4414 20.596 24.5192 20.4996 24.5935 20.3715L24.6106 20.3427C24.7914 20.0244 24.7679 19.7164 24.7684 19.3654L24.7705 15.308L23.4319 15.3072Z" fill="black"/>
</svg>
