<svg width="48" height="48" viewBox="0 0 48 48" fill="none" xmlns="http://www.w3.org/2000/svg">
<path d="M25.2348 30.7441L24.3163 25.6111C24.2633 25.342 24.2186 24.7864 24.146 24.5718L23.7618 24.5259C23.7124 24.5767 23.5154 25.7636 23.4844 25.9222L22.3155 33.2347L21.7604 39.4269C21.6948 40.2445 21.6328 41.1237 21.6287 41.941L21.629 43.0316C21.6384 43.2372 21.7345 43.3547 21.6685 43.5711L21.6286 43.6995C21.1288 44.8519 17.5951 45.3595 16.207 45.4556C15.7477 45.4874 15.2738 45.4664 14.813 45.4667L12.4442 45.4571C12.2004 45.4469 11.9653 45.4022 11.724 45.3806L9.50549 45.1219C8.41963 44.9416 7.88389 44.7266 7.06002 43.9712C6.5315 43.4865 6.0815 42.9751 5.84103 42.2877L5.83086 42.2581C5.75989 42.062 5.79552 41.8548 5.79589 41.6501L5.80142 31.8764C5.81295 31.5162 5.87858 31.1584 5.89438 30.7972L5.93347 29.4782L6.68863 22.4405L8.0563 14.4612L9.44675 4.50771C9.64138 3.53238 9.72941 3.52558 10.6992 3.37327L14.1695 2.80411C14.9689 2.66727 15.7951 2.50272 16.6065 2.47425L29.2633 2.459C30.1772 2.45914 30.8109 2.45414 31.7125 2.54392L37.4154 3.36958C37.7227 3.42185 38.0842 3.44036 38.2423 3.76359L38.3451 3.99639C38.4002 4.13569 38.4165 4.27344 38.4488 4.41827L39.5199 11.9833L40.2162 16.8094L40.8332 20.0895L42.1426 29.9696L42.3446 32.3957L42.339 38.1691C42.331 38.3847 42.288 38.5951 42.2855 38.8112L42.2487 40.2813C42.2356 40.8282 42.2326 41.3766 42.1402 41.9183C41.8488 43.6271 40.5798 44.999 38.8409 45.3221C38.5217 45.3814 37.8084 45.4382 37.4626 45.4562L30.7924 45.4548C30.5448 45.443 30.3039 45.4018 30.0585 45.3786L28.4316 45.2023C27.7626 45.0988 26.8379 45.0909 26.4556 44.4367L26.436 44.4026C26.2831 44.1439 26.3498 43.737 26.3489 43.4493L26.3381 40.4863C26.3314 40.3081 26.2907 40.1354 26.2846 39.9578L26.2581 38.6315L25.9115 35.2855L25.3882 31.651C25.3407 31.3578 25.2712 31.061 25.2372 30.7667L25.2348 30.7441ZM30.0148 4.0024L17.7916 4.00455C16.4483 4.00472 15.8772 4.05604 14.5445 4.28881L11.6015 4.75099C11.3907 4.78357 11.0783 4.79177 10.884 4.87432L9.38202 16.0068C12.1121 15.9981 14.5305 14.4288 15.2705 11.7551C15.466 11.0484 15.5592 9.37235 15.7979 8.89971C16.0351 8.43021 16.7868 8.42608 17.0196 8.89483L17.0313 8.91729C17.1104 9.08186 17.0759 9.35646 17.0698 9.53594C16.9285 13.6495 14.6572 16.9866 10.425 17.449L9.31016 17.5359C9.27106 17.5377 9.05816 17.5353 9.03538 17.5511C8.99038 17.5822 8.86756 18.4195 8.84694 18.5266L8.30178 21.8958L7.50186 28.7464L7.17425 32.4571L7.16928 41.5525C7.17172 41.6366 7.16684 41.7492 7.2058 41.8256L7.2305 41.8645C8.10392 43.2916 8.8888 43.5306 10.4032 43.7204L11.5351 43.8357C11.6593 43.8469 11.7791 43.8738 11.9042 43.8806L14.1739 43.8979C14.9694 43.8971 15.5907 43.8892 16.3762 43.8264L18.8885 43.5116C19.2884 43.44 19.8073 43.2483 20.1513 43.033L20.1654 40.6175L20.2824 38.5632C20.2896 38.4468 20.3148 38.335 20.3232 38.2197L20.75 33.4339L21.5163 28.2116L22.3498 23.9618C22.451 23.5275 22.4379 23.4782 22.3646 23.0159L22.1492 21.598L21.8313 17.1098C21.8248 16.9034 21.7843 16.7011 21.7793 16.4937L21.773 9.8845C21.7733 9.72813 21.7636 9.57522 21.8415 9.4339L21.8563 9.40657C21.9533 9.22985 22.1043 9.06644 22.3058 9.01061L22.3956 8.99266C22.7193 8.9366 22.9867 9.11069 23.1494 9.37591L23.1669 9.40197C23.3225 9.64741 23.2246 11.106 23.2248 11.4749L23.2267 16.2043C23.2336 16.6143 23.2883 17.0231 23.3112 17.432L23.4801 19.7133C23.5145 20.0194 23.5225 20.3245 23.5894 20.6258C25.01 20.0849 25.1436 19.2686 25.1449 17.8951L25.146 10.1229C25.1463 9.84982 25.1098 9.57658 25.2359 9.32702C25.4899 8.82461 26.2661 8.7723 26.4761 9.32538C26.5277 9.46122 26.4977 9.69569 26.4977 9.84129L26.4929 19.341C26.4292 20.8525 25.0641 21.7262 23.7747 22.1392C23.8232 22.3921 23.887 22.6594 23.9055 22.9157C23.9443 23.4528 25.5069 22.8457 25.603 23.9876L27.0412 32.1636C27.0753 32.3023 27.0792 32.4497 27.105 32.5901L27.3021 33.8909C27.5109 35.1074 27.6678 36.5974 27.7302 37.8464L27.7556 39.1528C27.7624 39.3689 27.8081 39.5784 27.8109 39.7969C27.827 41.0517 27.7619 42.3228 27.8417 43.5743C27.9486 43.6169 28.0931 43.6127 28.2082 43.6288L30.1523 43.8798L35.9215 43.9645L37.8313 43.8947C41.2372 43.8221 40.743 40.8044 40.8014 38.4026L40.8809 37.21V32.8574L40.3138 27.1352L38.8884 17.5263C38.0415 17.5029 37.2099 17.4433 36.384 17.2317C33.8893 16.5926 31.8934 14.5902 31.2382 12.1068C31.1185 11.6531 30.7515 9.64258 30.9065 9.20819L30.9167 9.17838C31.0505 8.80225 31.4737 8.52686 31.8686 8.67241L31.982 8.72763C32.0989 8.79096 32.1908 8.89469 32.2488 9.01202L32.2693 9.05107C32.321 9.15579 32.3413 9.31216 32.3574 9.42752C32.5002 10.4539 32.586 11.3233 32.9182 12.3211C33.6519 14.5245 36.2012 16.1163 38.482 15.9955L36.9969 4.84033C36.1779 4.63322 35.2908 4.57671 34.4531 4.46207L31.7796 4.08585C31.1115 4.00951 30.7056 3.99467 30.0148 4.0024Z" fill="black"/>
<path d="M27.1935 7.15024C27.0262 7.16618 26.8528 7.18545 26.6837 7.18741L21.2672 7.1937C21.1279 7.19374 20.9702 7.20729 20.8335 7.18418C20.1365 7.0662 19.9733 5.81295 21.0615 5.68066L26.5013 5.68746C26.7536 5.6877 27.0165 5.67246 27.2665 5.7057L27.3048 5.71113C27.5656 5.74301 27.7648 5.90234 27.8629 6.15035L27.8845 6.20529C27.9407 6.34906 27.9197 6.53496 27.8584 6.6738L27.8453 6.70268C27.7155 6.99687 27.4977 7.11073 27.1935 7.15024Z" fill="black"/>
</svg>
