<svg width="48" height="48" viewBox="0 0 48 48" fill="none" xmlns="http://www.w3.org/2000/svg">
<path d="M21.103 36.8732L20.5315 38.7421C19.9819 40.6216 19.545 41.8616 17.1952 41.9194C16.3658 41.9398 15.6574 41.7306 14.8547 41.555L12.1174 40.9758C11.4722 40.8376 10.7388 40.7918 10.1331 40.5324C9.11276 40.0955 8.40467 39.1369 8.27042 38.038C8.19012 37.3807 8.34518 36.7188 8.43298 36.0702L9.6694 26.7824C9.69715 26.4511 9.67938 26.1131 9.69143 25.7806L9.77173 21.4761L9.96856 18.0935L10.5283 11.9046L11.124 7.42627C11.2782 6.39245 11.3641 6.14068 12.4114 6.1839L20.7512 6.88951C20.9443 6.90137 21.135 6.93915 21.3289 6.94712L23.8788 6.95368C24.6327 6.95377 25.4039 6.9856 26.1559 6.94154L30.5575 6.54929L35.4983 5.96387C36.4604 5.98388 36.5053 7.01401 36.7507 7.79288C36.8116 7.98596 36.8861 8.18462 36.9253 8.38332L37.1727 9.53898C37.2456 9.94262 37.2782 10.3609 37.3245 10.7688L38.1008 18.7851C38.1406 19.1495 38.1417 19.5326 38.1584 19.8995L38.4196 23.221L38.4409 24.4353C38.4703 25.2951 38.4709 26.2237 38.5319 27.0621L39.736 37.0735C39.7527 37.2099 39.7882 37.3385 39.8011 37.4765C39.9253 38.8079 38.8799 40.1957 37.6291 40.5647C37.4114 40.629 37.1833 40.6592 36.9612 40.703L32.8713 41.6246C32.3075 41.7636 31.7272 41.9894 31.147 42.0192C29.933 42.0816 28.6529 41.5409 28.0586 40.4347C27.7059 39.7782 27.5474 38.9849 27.34 38.2714L24.0157 27.7382C23.9785 27.9564 23.7839 28.4917 23.7079 28.7399L21.103 36.8732ZM34.9212 7.62882L30.1717 8.22301C30.0011 8.24565 29.8278 8.24541 29.66 8.28624C29.7469 8.68159 29.9024 9.06568 29.997 9.45924L32.1455 8.98791C32.5744 8.90134 32.9711 8.84907 33.4025 8.8007L35.2456 8.57841L35.0041 7.64588C34.9539 7.61593 34.9814 7.6223 34.9212 7.62882ZM12.6629 7.7963C12.6545 7.94588 12.6352 8.1046 12.6442 8.25362L17.9649 9.42413L18.0071 9.18849L18.2058 8.2958L12.6629 7.7963ZM27.8223 8.40432L19.8186 8.44093C19.6947 8.8028 19.5492 9.3698 19.5396 9.76234L20.4084 9.92434L23.2408 10.2884C24.3334 10.4903 27.2471 10.0866 28.4349 9.78793L28.0641 8.40226C27.9889 8.37315 27.9018 8.39513 27.8223 8.40432ZM12.4015 9.8431C12.3152 10.3016 12.2949 10.782 12.241 11.2464L11.7073 16.3633C11.695 16.5424 11.6337 16.8051 11.702 16.9743C12.0426 16.6932 12.3317 16.3794 12.608 16.0355C13.7685 14.4624 14.1856 12.192 14.2993 10.2602L12.4015 9.8431ZM35.4624 10.1579L34.0359 10.3373C33.9929 10.4562 34.0909 10.7435 34.1069 10.8842L34.2849 12.8213C34.3896 14.0586 34.6119 14.7895 35.301 15.8294L35.6134 16.2249L36.3108 16.9403L35.6406 10.156C35.5775 10.1479 35.5252 10.1516 35.4624 10.1579ZM32.3798 10.5819L27.7532 11.5327C27.7612 11.5724 27.7716 11.5974 27.7871 11.6339L27.9731 12.1608C28.1591 12.6847 28.1349 13.3209 28.1352 13.8655L28.1372 16.4061C28.1352 18.0529 27.3218 19.5256 25.7695 20.2142C25.6601 20.2628 25.5404 20.329 25.4233 20.3532L25.3521 20.3645C25.2896 20.3757 25.2317 20.4059 25.1747 20.433C25.1734 20.8082 25.1209 21.1746 25.1101 21.5489C25.0952 22.0663 25.1248 22.5889 25.0831 23.1049L24.9751 24.325C24.9415 24.6491 24.8618 24.9242 24.9764 25.2389L26.0629 28.8749C26.1641 29.2217 26.2581 29.5861 26.3794 29.9258L27.9853 35.0858C28.0199 35.1782 28.0323 35.2741 28.0692 35.3652L28.3036 36.1237C28.3392 36.2717 28.4016 36.4295 28.4547 36.5741L29.1014 38.6342C29.361 39.3233 29.5239 40.2058 30.4036 40.3318C30.9961 40.4853 31.5681 40.3026 32.1447 40.1487L35.7424 39.3038C36.6549 39.1078 37.8586 39.093 38.1728 38.0038L38.2108 37.7787C38.2805 37.3024 37.9861 35.7884 37.9152 35.2585L37.0569 28.4648C36.9661 27.5724 36.9659 26.7559 36.9209 25.8734C36.9114 25.6869 36.8742 25.5034 36.8672 25.317L36.8385 23.4998L36.5843 19.8133C36.5695 19.5991 36.5839 19.3505 36.5308 19.1439C34.752 17.9952 33.3043 16.2941 32.8589 14.1762L32.3798 10.5819ZM15.8484 10.6238C15.8211 11.4825 15.6838 12.2777 15.4969 13.118C14.9382 15.6286 14.0168 17.3994 11.8262 18.9505C11.4853 19.1919 11.5254 19.0311 11.4853 19.4648L11.4269 20.1714C11.3981 20.9118 11.3203 21.5216 11.3179 22.2807L11.2541 25.7343C11.241 26.2715 11.2618 26.8133 11.2126 27.3489L9.90982 36.9318C9.86431 37.2583 9.79901 37.5646 9.82226 37.8983C9.86206 38.4688 10.4731 38.9866 10.9904 39.1051L14.7192 39.877C15.63 40.0669 16.6761 40.5027 17.6193 40.3006C18.35 40.0776 18.5584 39.7394 18.777 39.0637L22.8908 26.0454C23.2788 24.8499 23.3629 24.5975 23.4679 23.3312L23.6235 20.2476C22.9604 20.1926 22.2669 20.2343 21.6006 20.2342C20.4577 20.2339 20.3802 20.1594 20.3827 18.8643L20.3848 11.5189C19.9324 11.4749 19.4944 11.3865 19.0486 11.3017L15.8484 10.6238ZM26.4569 11.7773C25.9984 11.8434 25.5716 11.9049 25.1063 11.9087L25.1042 17.8772C25.1047 18.1152 25.0609 18.482 25.1384 18.7046L25.2064 18.6786C26.4454 17.9566 26.5788 17.1814 26.5814 15.9354L26.5775 12.6967C26.5744 12.4415 26.6463 12.0001 26.4921 11.7834L26.4569 11.7773ZM21.9414 11.7801L21.9463 18.7054L23.5431 18.7181C23.6115 18.6294 23.564 18.5287 23.5588 18.4199L23.5518 11.9258C23.1311 11.8989 22.6759 11.9309 22.2658 11.8373L21.9414 11.7801Z" fill="black"/>
</svg>
