<svg width="48" height="48" viewBox="0 0 48 48" fill="none" xmlns="http://www.w3.org/2000/svg">
<path d="M27.3624 42.3064C27.2552 41.9971 27.1908 41.6616 27.1038 41.3451L25.4305 35.9886L24.4606 32.6537C24.2579 31.9142 24.0313 31.1708 23.8919 30.4163L21.0831 40.9636C20.7637 41.9729 20.4212 42.9719 20.0037 43.945C19.7325 44.5771 19.3312 45.6827 18.4138 45.3223L11.6953 42.3948C10.0753 41.7201 8.4764 41.0424 6.7019 40.9481L4.72012 40.9361C3.70538 40.9331 3.2221 40.8635 3.47925 39.7593L8.06868 21.2555L10.2566 8.91703C10.4474 7.75467 10.5222 7.16044 10.5216 5.99288L10.5203 3.11667C10.5211 2.70794 10.635 2.52989 11.0415 2.37145C11.6513 2.35139 12.2736 2.56159 12.8635 2.70426L15.5209 3.34881L20.494 4.2988L21.1884 4.35756C22.5123 4.4922 23.8551 4.5606 25.1869 4.49716L27.8542 4.30019L32.8711 3.37403L35.5465 2.70511C36.2351 2.52072 37.4617 1.88419 37.47 3.16093L37.4748 7.02155C37.4816 7.17769 37.5182 7.33092 37.5326 7.48617L37.5895 8.30963C37.6187 8.59083 37.6856 8.88502 37.7354 9.16439L38.9005 15.614L39.6045 18.7922L40.418 22.9332C40.4736 23.1667 40.5452 23.4065 40.5831 23.6432L40.7706 24.4121C40.8462 24.94 41.107 25.9746 41.2501 26.473L41.5319 27.6449C41.5587 27.7508 41.5972 27.8489 41.613 27.9582L41.9827 29.5199C42.0329 29.8138 42.112 30.1515 42.2021 30.4327L43.8581 37.2647C43.9612 37.84 44.2642 39.0042 44.4528 39.5611L44.5462 39.8855C44.7021 40.3202 44.5875 40.6155 44.1676 40.8532L44.1328 40.8722C43.9096 40.9977 43.5108 40.9418 43.2524 40.9409L41.9495 40.9369C41.2311 40.9397 40.7946 41.039 40.094 41.206L38.7112 41.5401C37.872 41.7784 37.0674 42.1454 36.2578 42.4661L34.8903 42.9867L30.549 44.8845C30.163 45.0679 29.7769 45.3141 29.362 45.4209C28.1404 45.7354 27.8511 44.0757 27.6378 43.2926L27.3624 42.3064ZM11.9861 3.92611C11.9189 4.2973 11.9592 5.91502 11.9839 6.29836C12.0996 6.36774 12.2144 6.36661 12.3409 6.40411L17.6016 8.08425C18.2473 8.27747 18.8956 8.49788 19.5586 8.62552C22.2904 9.15159 25.2441 9.26264 27.9726 8.69513L30.7266 7.96655L35.3913 6.4995L35.7099 6.41049C35.8138 6.38574 35.9221 6.37716 36.0226 6.34022L36.0218 4.73409C36.0216 4.51634 36.055 4.23566 36.0113 4.02454L35.9736 4.03831C35.7051 4.1327 35.3984 4.18096 35.1211 4.25028L31.195 5.2237C29.4502 5.5807 27.687 5.81147 25.9101 5.91816L22.7029 5.97614C22.5192 5.96831 22.3371 5.93091 22.1535 5.91577L20.7193 5.78147C19.7498 5.64863 18.7859 5.40928 17.8242 5.22675L15.0871 4.71661L11.9861 3.92611ZM11.8197 7.72655L10.8538 13.5751C11.5714 13.4315 12.2155 13.1341 12.7958 12.6855C13.8699 11.836 14.4717 10.5806 14.6282 9.23442L14.7024 8.63719L11.8197 7.72655ZM36.0935 7.74642L33.2487 8.68378C33.4146 10.3772 33.8576 11.4812 35.1217 12.5837C35.6886 13.0073 36.3792 13.3728 37.0862 13.475L36.0935 7.74642ZM31.8326 9.08236L30.2775 9.57263C29.2089 9.88106 28.0999 10.1118 27.0002 10.271L27.2171 11.3756C27.3171 11.7889 27.3478 12.2148 27.3488 12.6373L27.3447 16.335C27.2587 18.1775 25.1278 19.2529 23.5217 19.4863C23.4233 19.5006 23.321 19.499 23.2261 19.5304L23.2256 22.5499C23.226 22.7917 23.2131 22.9987 23.2924 23.2309L24.01 25.9474C24.0198 25.9928 24.0335 26.0309 24.0486 26.0745L25.6972 31.9735C25.7048 32.0114 25.7156 32.0443 25.7274 32.0808L27.2362 37.0433C27.32 37.2771 27.423 37.5489 27.4742 37.7901L29.0705 43.3354C29.1151 43.5412 29.2052 43.7491 29.2869 43.9421L32.5933 42.4514L35.4629 41.2649C38.3184 40.1596 39.9406 39.5832 42.97 39.5811C42.899 39.155 42.7874 38.7355 42.6883 38.3153L38.7419 21.6566L37.6758 16.4783C37.5698 15.9775 37.4593 15.4716 37.3987 14.9631C34.6133 14.4861 32.7253 12.9722 32.0626 10.0902C31.9866 9.7597 31.9145 9.41897 31.8886 9.08006L31.8326 9.08236ZM16.0526 9.08161C15.6048 11.7767 14.5301 13.897 11.707 14.8125C10.4935 15.2059 10.6267 14.6642 10.4081 15.9495L7.31765 30.1368L5.04173 39.2525C5.02026 39.3572 5.00601 39.4897 4.95843 39.5846C7.50182 39.5795 8.61993 39.6723 11.1121 40.6511L13.8337 41.757L18.5413 43.8653L19.9937 39.8441L21.6576 34.1677C22.1356 32.3287 22.5064 30.4696 22.7205 28.5815L22.8214 27.5377C22.8412 27.2745 22.8687 27.0511 22.8091 26.7894L21.8054 22.9266C21.7393 22.6964 21.7692 22.4171 21.7688 22.1772L21.7692 18.1058C21.7686 15.3147 21.252 12.9691 20.8755 10.223C20.1716 10.1454 19.4641 10.0398 18.7742 9.8782L17.3243 9.48042C16.9131 9.36549 16.4394 9.25931 16.0526 9.08161ZM22.309 10.512C22.3202 10.6512 22.3547 10.7746 22.3775 10.9109L23.0292 15.2646L23.1625 16.723C23.2155 17.2007 23.18 17.6113 23.2241 18.0461C24.0159 17.9858 24.6778 17.8422 25.3217 17.3196C25.9303 16.8055 25.9867 16.3644 25.9881 15.6285L25.9892 14.4684C25.9893 13.6228 26.0388 12.802 25.8989 11.9652L25.6783 10.5183L23.2696 10.5735C23.005 10.5711 22.5404 10.4698 22.309 10.512Z" fill="black"/>
</svg>
