<svg width="48" height="48" viewBox="0 0 48 48" fill="none" xmlns="http://www.w3.org/2000/svg">
<path d="M25.1186 30.6321L24.0345 23.7292C24.0163 23.7526 24.0202 23.7419 24.0148 23.7707L22.0723 35.5012L21.1091 40.4927C21.0766 40.7158 21.0757 40.9442 21.048 41.1681L20.5208 45.6673C20.5024 45.8914 20.5437 46.163 20.4792 46.3781L20.4631 46.4181C20.261 46.9276 19.7594 47.0218 19.2815 47.0907C17.795 47.3049 15.7964 47.184 14.3362 46.9655C13.4383 46.8309 12.5138 46.8233 12.5511 45.7292L12.5618 45.1594C12.565 44.4714 12.5305 43.7635 12.5747 43.0782L12.6798 41.754L14.0338 31.3243L14.2756 27.3755C14.2897 27.0758 14.345 26.7788 14.3538 26.4801L14.3657 23.2765L14.5671 20.0509L15.1175 13.5821L15.5477 10.4063C15.6483 9.45951 15.6263 8.45549 16.0248 7.5704C16.2687 7.0288 16.5217 6.60444 16.5769 5.99441C16.6044 5.69024 16.5288 5.41209 16.5208 5.11157L16.5193 1.42938C16.52 0.78993 16.4893 0.382488 17.1959 0.118825C17.4672 0.0988187 17.6675 0.266706 17.9047 0.370724C18.6612 0.702409 19.5374 0.966545 20.3471 1.11697L22.6815 1.45818C23.6332 1.59111 25.2736 1.53727 26.2382 1.40298C27.4859 1.22927 28.7598 0.966358 29.9201 0.459363C30.1393 0.363556 30.3665 0.205666 30.5996 0.152202C31.0178 0.0563364 31.28 0.411553 31.4173 0.737795C31.5137 0.96655 31.4775 1.3119 31.4779 1.55794L31.4764 5.05087C31.4695 5.6009 31.3452 5.92363 31.5179 6.51276L31.7627 7.42977C31.7729 7.47159 31.779 7.50637 31.7957 7.54616L31.8539 7.71102C32.0805 8.53077 32.3113 9.24276 32.4909 10.0991C32.7133 11.16 32.8684 12.2136 33.003 13.2891L33.575 20.8664C33.5903 21.0713 33.6269 21.274 33.6372 21.4802L33.6651 22.5152C33.6778 22.7728 33.729 23.0257 33.7372 23.2843L33.7554 24.7268C33.7845 25.5098 33.7702 26.6092 33.8637 27.3173C34.007 28.4024 33.9119 29.5325 33.9411 30.6259C33.9474 30.8583 33.9917 31.0854 34.0008 31.3181L34.0375 32.5785L34.3595 35.6485C34.4689 36.4197 34.5644 37.1945 34.697 37.9619L34.91 39.4984C34.9678 39.9802 35.0233 40.7114 35.0408 41.2074L35.2271 45.5264C35.2276 46.3534 35.3544 46.6211 34.3896 46.7948L32.4608 47.1268C31.4482 47.236 30.4267 47.2318 29.4096 47.2309C28.4165 47.2304 27.7553 47.4109 27.7022 46.1197L27.66 45.1839C27.6052 44.4335 27.4879 43.6698 27.3751 42.9259L26.2878 37.4353L25.1186 30.6321ZM17.9637 1.86304L17.979 4.51477L30.0367 4.52104L30.0265 3.54486L30.0253 2.53066C30.0248 2.33368 30.0357 2.13126 30.0121 1.9358C26.875 3.11717 23.4765 3.22377 20.2119 2.51705C19.4754 2.35762 18.6877 2.19288 18.0013 1.88026L17.9637 1.86304ZM22.2831 5.97027L22.2804 5.99648C22.2662 6.1859 22.307 6.38465 22.3171 6.5743L22.3333 7.59473C22.2348 10.6035 20.1151 12.8849 17.1556 13.2428L16.6733 13.2914C16.6535 13.2927 16.5621 13.2921 16.5548 13.2977C16.5285 13.3181 16.3219 15.1379 16.3095 15.3303L15.9065 20.8878C15.8918 21.1403 15.8437 21.3838 15.8319 21.6385L15.8135 22.8743C15.8026 23.1505 15.7588 23.4183 15.7561 23.6964L15.7367 27.0953C15.7249 27.4369 15.6681 27.7723 15.6494 28.1132L15.3332 32.444L14.6715 37.5813C14.3947 39.4068 14.0588 41.2378 13.937 43.0825C13.9012 43.6228 13.9261 44.1812 13.9209 44.7243L13.915 45.239C13.9058 45.5599 13.9245 45.5377 14.2373 45.6015L15.0462 45.7324C15.4952 45.784 15.951 45.8516 16.4024 45.8573L18.2929 45.8576C18.5615 45.8555 18.8435 45.8584 19.1067 45.8025L19.5646 41.9424C19.678 40.9551 19.756 39.9609 19.9309 38.9818L21.1872 32.672L22.0848 27.0587L23.1469 19.0963L23.2522 17.672C23.3019 16.8509 23.2715 16.0153 23.2708 15.1927L23.2705 7.72518C23.2707 7.14594 23.2969 6.55251 23.2618 5.97534L22.2831 5.97027ZM28.5272 5.96985C28.4166 6.13419 28.643 6.67129 28.6943 6.84993C28.9342 7.68562 29.792 8.32644 30.6233 8.50185C30.4278 7.65529 30.0828 6.83634 30.0415 5.95977L28.5272 5.96985ZM18.0107 5.9744C17.9195 6.45318 17.8422 6.90599 17.673 7.35946C17.5563 7.67221 17.2606 8.08813 17.2147 8.40318C17.572 8.58477 18.2706 8.20377 18.5559 7.98613C19.4337 7.37601 19.4642 6.81154 19.7744 5.97759L18.0107 5.9744ZM24.704 5.9744L24.7065 12.1056C24.704 12.3418 24.6758 12.5647 24.7065 12.8008C24.9333 12.6389 25.1003 12.4769 25.2532 12.2438L25.2987 12.1743C25.5433 11.7207 25.5699 11.3108 25.6189 10.8048L25.82 9.20183C25.9374 8.51765 25.8638 8.41312 25.7178 7.75719C25.5852 7.16123 25.5243 6.5856 25.5481 5.97519L24.704 5.9744ZM26.9467 5.98837C26.8348 6.23066 26.948 6.97626 27.0373 7.27837L27.289 8.26068C27.3552 8.58819 27.4982 8.96577 27.6301 9.2713C28.3797 11.007 29.6303 11.7574 31.4348 11.8936L31.0019 9.87552C29.0596 10.091 27.3881 8.15741 27.1144 6.35268C27.0924 6.2076 27.1408 5.97759 26.9467 5.98837ZM20.9379 6.99618C20.4855 8.16683 19.6806 9.07457 18.5266 9.59048C17.8898 9.87515 17.1658 9.75571 17.0278 9.81501C16.9678 10.1658 16.9628 10.52 16.9167 10.8721L16.827 11.5146C16.8082 11.638 16.778 11.7405 16.7752 11.868C19.0069 11.6281 20.5264 10.3471 20.9049 8.03957C20.9538 7.7413 21.0242 7.31634 20.9477 7.01451L20.9379 6.99618ZM27.0341 10.9604C26.8343 12.3131 26.576 13.4172 25.1764 14.1089C25.0507 14.171 24.7999 14.2129 24.7066 14.298L24.7156 16.7316C24.7197 17.107 24.6944 17.4991 24.7457 17.8712L24.7505 17.9075C24.8019 18.2842 24.8204 18.6042 24.8622 18.9727L25.0302 20.9181L25.5988 24.9444L26.994 33.7507L28.7356 42.6915L29.0256 44.9189C29.0518 45.199 29.0116 45.4961 29.0563 45.7707L31.5292 45.7585L33.8214 45.5048L31.6128 13.2891C29.8441 13.256 27.9932 12.5118 27.0341 10.9604Z" fill="black"/>
</svg>
