<svg width="48" height="48" viewBox="0 0 48 48" fill="none" xmlns="http://www.w3.org/2000/svg">
<path d="M24.6313 36.8318L24.2469 35.2331L24.1302 35.5254C23.7148 36.948 23.1423 38.3346 22.785 39.7732L22.4119 41.5544C22.1329 43.2049 21.9391 44.5758 20.0037 44.9614C19.6516 45.0315 19.2537 44.9962 18.8944 44.9958L15.6828 44.9972C15.4007 44.9977 15.1027 45.018 14.824 44.9749C12.7932 44.6606 12.635 42.7211 12.4082 41.0572C12.2837 40.1438 12.2517 38.971 12.2204 38.0181L12.2124 33.5893C12.2103 33.2105 12.1599 32.8457 12.1478 32.4724L12.1252 30.4451C12.1127 30.1284 12.0615 29.8121 12.0371 29.4958L11.8872 27.8112C11.7206 26.6089 11.5536 25.4855 11.5557 24.2715L11.5665 23.1284C11.5746 22.9575 11.6094 22.7893 11.6166 22.6184L11.6369 21.6115C11.6493 21.0651 11.7119 20.5137 11.7352 19.9534L12.2116 15.2224L12.374 14.2368C12.3967 14.0557 12.4145 14.0324 12.3339 13.8724C12.0628 13.3346 12.6892 11.7036 12.8132 11.0505L13.4248 6.67499L13.472 5.60732C13.4769 4.98416 13.4208 4.56134 13.8992 4.0836C14.7717 3.21216 16.2744 3.01498 17.4669 3.01421L23.1272 3.01327L29.1246 3.01074C30.5559 3.00997 33.8525 3.16996 34.3949 4.55094L34.4067 4.58178C34.5861 5.02733 34.4292 6.08844 34.4942 6.64053C34.5421 7.04717 34.6377 7.4548 34.734 7.85132L34.9689 8.95288C35.4755 10.8269 36.0895 12.7343 36.2383 14.6812L36.3297 16.6408C36.3342 17.1816 36.2943 17.7565 36.3666 18.2921L37.132 22.5232C37.2805 23.4532 37.3126 24.3357 37.3134 25.2775L37.3187 28.7143C37.3237 28.8675 37.3516 29.0182 37.3567 29.171L37.5054 34.4911L37.6607 37.2185L37.7913 40.3304C37.7976 40.5792 37.837 40.8242 37.8479 41.0724L37.8531 42.2951C37.8525 42.4935 37.8722 42.7377 37.8187 42.9295L37.788 43.0671C37.5377 44.2396 36.6624 44.6442 35.6007 44.7268L34.6004 44.8088C34.3907 44.8239 34.1838 44.8705 33.9771 44.8872L32.2271 44.9878L29.5674 44.9904C29.4159 44.9892 29.2539 44.9954 29.1064 44.9568L28.5467 44.8174C27.381 44.451 26.9744 43.6458 26.6168 42.5443L26.2025 41.3251C25.6596 39.8393 25.0048 38.3728 24.6313 36.8318ZM22.1388 4.61189L18.9039 4.61161C17.7349 4.61192 16.1837 4.57938 15.1052 5.12713C15.8697 6.0028 17.4185 6.67742 18.4824 7.02055L19.4946 7.29655C19.6709 7.35392 19.9203 7.32369 20.1066 7.32369L26.0037 7.32205C28.1881 7.32163 30.9298 7.49675 32.5939 5.82191C32.7673 5.64744 32.9114 5.48216 33.02 5.25871C31.8906 4.73455 29.85 4.61116 28.6419 4.6118L22.1388 4.61189ZM14.9614 7.16385L14.8688 8.40083L14.2147 12.0439C14.1593 12.2746 14.0835 12.5139 14.0474 12.7478C15.1948 12.8565 16.1235 12.7774 17.0742 12.0635C18.0711 11.2718 18.554 9.97527 18.7833 8.75975C17.6739 8.48567 15.9084 7.85694 14.9614 7.16385ZM32.9939 7.57766C31.5113 8.53522 30.1786 8.82664 28.4069 8.91027C28.384 10.3496 29.2799 11.9514 30.4362 12.777C31.4273 13.4103 32.6694 13.5487 33.8084 13.2914C34.59 13.115 34.3548 12.9465 34.16 12.1409L33.2425 8.52697C33.1659 8.20963 33.1098 7.88361 32.9939 7.57766ZM25.5082 9.0493L25.5011 14.8557C25.4981 16.3112 25.1522 17.3064 23.6772 17.9309C23.6912 18.0698 23.8381 18.9635 23.9026 19.0849C23.9246 19.1262 24.1369 19.2428 24.1888 19.2845C24.6504 19.6552 24.8762 20.4375 25.1256 20.9529L25.969 22.8513C26.0947 23.1688 26.243 23.4776 26.3544 23.8007L27.0189 25.7244C27.1114 25.9665 27.1471 26.2381 27.2229 26.4861L27.3158 26.8728C27.6554 27.9416 27.8254 29.3702 28.0428 30.4836L28.8832 34.9918L29.7725 38.0368C29.9348 38.4508 30.3965 39.7755 30.797 39.9581C30.9598 40.0323 31.1842 40.0067 31.3599 40.0069L32.6243 40.0067C33.1256 40.0063 33.6156 39.9291 33.8787 40.4617L33.8941 40.492C33.9731 40.6558 33.9831 40.8436 33.9457 41.0182L33.9399 41.0491C33.7869 41.8321 32.7399 41.6986 32.1542 41.6985C29.7071 41.6984 29.3699 41.3242 28.4047 38.906C27.4447 36.5007 26.9911 33.9006 26.5631 31.3565L26.0436 28.4464C25.8406 27.5134 25.6034 26.6041 25.3089 25.6957C25.1603 25.2373 24.9668 24.7879 24.8412 24.3228L24.9041 26.0694C24.9122 26.2655 24.8802 26.5617 24.9332 26.7442L24.9378 27.8904C24.9451 28.0899 24.9816 28.2858 24.9924 28.4843L25.1331 30.7146L25.4066 32.824L25.8353 34.9464C25.9762 35.5797 26.0736 36.2393 26.2892 36.8519L28.1443 42.0094C28.1942 42.1237 28.2146 42.2442 28.2574 42.36L28.3475 42.6119C28.6031 43.2324 29.0798 43.3143 29.6629 43.315L32.8543 43.3116L35.0154 43.1233C35.297 43.09 35.5378 43.0562 35.8182 43.1179C36.3042 43.2248 36.279 42.0877 36.2791 41.8429L35.9478 35.4724L35.8803 32.8595C35.8729 32.6569 35.8268 32.4628 35.8176 32.2606L35.8053 30.1423C35.8026 29.9659 35.7603 29.8004 35.7509 29.626L35.74 25.805C35.7397 23.7734 35.5526 22.4237 35.143 20.4021C35.0159 19.7746 34.8531 19.1441 34.7938 18.5052L34.7061 16.821C34.7015 16.1401 34.7329 15.4287 34.6342 14.7534C34.1599 14.9408 33.6676 14.9941 33.1623 15.0201C29.4639 15.2098 27.1176 12.7133 26.8081 9.04916L25.5082 9.0493ZM20.3327 9.06941C19.9887 11.6717 18.0781 14.3305 15.2609 14.4274L14.2187 14.4304C14.159 14.4283 13.9381 14.3694 13.9272 14.4333L13.3187 19.863L13.1642 23.9195C13.1574 25.0579 13.2299 26.0614 13.3913 27.1792L13.6918 30.2432C13.7365 30.8578 13.7319 31.4578 13.7497 32.074L13.7863 33.8318C13.7923 34.0006 13.8257 34.1663 13.8292 34.3357L13.8449 39.4106C13.8514 39.6792 13.9055 39.9261 13.9264 40.1906L13.9666 40.7917C14.0173 41.2841 14.1171 41.7858 14.2303 42.2667C14.4554 43.2224 14.5273 43.2607 15.4664 43.3018L19.5032 43.3147C20.7912 43.3135 20.6862 42.2526 20.8629 41.2146C20.9799 40.5269 21.1149 39.8415 21.2934 39.1666L22.9578 33.6312C23.3213 32.1779 23.4459 31.0378 23.4003 29.5357L23.3646 28.9892C23.3465 28.2379 23.4061 27.4545 23.2871 26.7106C23.2404 26.4185 23.2554 26.0948 23.2525 25.7993L23.2464 24.122C23.245 23.8685 23.2675 23.555 23.216 23.3083L23.1811 23.3787C23.0713 23.6531 22.9954 23.9413 22.9082 24.2227L21.671 28.6145L20.733 32.6599L20.0634 35.9998L19.4184 40.5773C19.3527 40.973 19.3194 41.3338 18.935 41.5478L18.8719 41.5813C18.5693 41.7241 17.7055 41.6205 17.3416 41.6211L16.5332 41.6276C16.3357 41.6323 16.1028 41.674 15.9148 41.5978C15.2597 41.3322 15.1637 40.4467 15.7615 40.0826L15.7904 40.0647C15.9831 39.9506 17.6203 40.0031 17.92 40.027C17.94 39.5808 18.0227 39.1458 18.0742 38.703C18.2889 36.8604 18.6228 35.0613 18.9987 33.2458L20.9081 25.3123L22.4794 20.3726C22.5253 20.2158 22.436 19.958 22.4034 19.7909L22.204 18.7008C22.0856 18.0613 21.7485 16.9217 22.4529 16.5271C22.7012 16.388 22.9959 16.46 23.2519 16.324L23.2839 16.3076C24.107 15.8763 23.9973 14.9536 23.9981 14.1777L23.9979 10.1749C23.9975 9.80928 24.0137 9.43358 23.9857 9.06955L20.3327 9.06941Z" fill="black"/>
</svg>
