<svg width="48" height="48" viewBox="0 0 48 48" fill="none" xmlns="http://www.w3.org/2000/svg">
<path d="M41.0091 16.762L41.9468 23.5337L42.0968 25.1363C42.1354 25.5442 42.1491 26.2743 42.2256 26.5865C42.2809 26.8123 42.7896 27.693 42.9475 28.0668L43.0417 28.339C43.0716 28.4186 43.0986 28.5017 43.1141 28.5856L43.2264 29.0793C43.7542 31.0223 43.2481 33.931 42.5738 35.8051C41.3305 39.2605 38.5438 44.197 34.7118 44.8797C33.0686 45.1725 30.1822 44.762 28.7693 44.0351C28.2083 43.7465 27.7443 43.3557 27.2304 42.9999C25.7504 41.975 23.7678 41.7234 22.159 42.5924C21.7931 42.7899 21.4535 43.0354 21.1034 43.2589C19.9236 44.0119 17.9174 44.9143 16.546 44.9694C16.2189 44.9825 15.8864 44.9426 15.5615 44.9107C11.381 44.5006 8.94282 42.4598 6.76187 38.9481C5.42499 36.7956 4.15973 33.3186 4.62602 30.7369C4.73626 30.1266 4.62797 29.5451 4.73555 29.0956C4.91096 28.3629 5.13512 27.7264 5.51944 27.0729C5.74847 26.6833 5.89046 26.5501 5.90841 26.0741L6.68288 19.1068L7.52597 13.2652L8.90401 4.89803C9.01454 4.14439 8.92702 3.23609 9.86832 3.02723L12.775 3.0216C13.2873 3.0213 13.7334 3.05379 13.9756 3.58583L13.9862 3.60969C14.1739 4.0062 13.8886 4.61869 13.7805 5.01522L13.3157 6.77303L11.826 15.0872L11.301 19.0511C11.1526 20.2547 10.9894 21.4598 10.9358 22.6728C11.7784 23.2648 12.1951 23.5093 13.1068 23.945L14.8123 24.8211C18.5982 26.9816 21.3468 30.3909 22.3791 34.6871C22.4254 34.8799 22.458 35.0857 22.5106 35.2751C22.7804 36.2445 22.2912 35.9312 23.4847 35.8355C24.1398 35.783 24.8464 35.8086 25.4798 35.9843C26.0291 31.2844 28.9598 27.0883 33.0943 24.843C34.3638 24.1535 35.8836 23.7362 36.9953 22.7925C37.1989 22.6196 37.147 22.6374 37.1285 22.3695L35.4256 9.37619L34.625 4.49993C34.4782 3.41299 34.7429 3.02471 35.9333 3.02159L36.9772 3.0204C38.2326 3.02043 39.1034 2.69642 39.2812 4.32381L41.0091 16.762ZM36.3914 4.74779C36.3881 4.98545 36.47 5.24842 36.5159 5.48397L37.1676 9.54944L38.2632 17.4137L38.8133 22.6165C39.3257 23.0471 39.7546 23.5253 40.2186 24.0011L40.3006 24.1021C40.3202 23.8911 40.2592 23.6409 40.2339 23.4298L39.5356 18.3746L37.7108 5.3199C37.6871 5.13676 37.6893 4.95053 37.6377 4.77203L36.3914 4.74779ZM10.6216 4.78178C10.5709 4.98803 10.5762 5.20356 10.5467 5.40461L9.56251 11.2144L7.8414 23.5178C7.81683 23.693 7.77699 23.883 7.7754 24.0595L8.47951 23.4053L9.05504 22.912C9.28182 22.7163 9.21629 22.6892 9.23691 22.4099L9.59255 18.7965L10.2635 13.8551L10.8741 10.2183C11.2015 8.3987 11.506 6.57681 11.9678 4.78365L10.6216 4.78178ZM10.1802 24.2329C9.03066 25.0205 7.35507 27.2299 6.74916 28.3941C6.14279 29.5591 6.42812 29.4884 6.63282 30.5091C6.82154 31.4501 6.84137 32.1374 7.13668 33.1001L7.32676 33.5889C8.13047 35.5573 9.91679 36.9883 11.839 37.7883C12.9845 38.2651 14.9647 38.5753 16.2366 38.348C16.4913 38.3025 16.8122 38.2959 17.0506 38.2052C18.4999 37.887 19.7481 37.2161 21.021 36.4795C20.141 31.316 17.5178 28.0642 12.9197 25.7241L11.3203 24.9429C10.9266 24.7326 10.5497 24.4829 10.1802 24.2329ZM38.0977 24.2455C37.5569 24.6213 37.0146 25.0094 36.4226 25.3015C35.5913 25.7117 34.7146 26.0045 33.8992 26.4541C30.6738 28.2322 27.9296 31.6164 27.2777 35.3023C27.2075 35.6994 27.1004 36.1402 27.084 36.5396C28.2718 37.2978 29.6235 37.9059 30.9657 38.3157C32.0034 38.5891 33.0562 38.7452 34.116 38.5501C35.2514 38.341 36.3196 37.8194 37.3109 37.2407C39.7557 35.8134 41.3553 33.1756 41.5633 30.3631C41.7201 28.2432 40.1325 26.3807 38.7743 24.8977C38.5732 24.6782 38.3469 24.4068 38.0977 24.2455ZM7.69318 37.1129C7.77277 37.3462 7.90796 37.5729 8.02932 37.7878L8.55835 38.6642C8.92979 39.2222 9.30169 39.762 9.75127 40.2625C11.2124 41.8892 13.4564 43.0341 15.6496 43.2322C19.1084 43.5447 20.7227 40.3069 24.2226 40.3111C25.6236 40.3128 27.1526 40.8585 28.3019 41.6359L29.2396 42.3307C30.2989 43.0698 33.0381 43.4539 34.393 43.2029C36.2269 42.8632 37.7473 41.0946 38.7535 39.6078L38.8089 39.5255L40.0459 37.3371C38.7995 38.536 37.2113 39.38 35.5811 39.931C33.0459 40.788 30.3205 40.1379 27.9827 38.982C27.2234 38.6065 26.5128 38.0702 25.7108 37.7856C24.3977 37.3197 22.7724 37.5557 21.5506 38.179L20.079 38.9551C18.2505 39.8231 15.8681 40.3748 13.8267 40.0786C11.8863 39.797 10.0902 39.0739 8.56243 37.831L7.94513 37.286C7.87116 37.2196 7.80408 37.106 7.69318 37.1129Z" fill="black"/>
</svg>
