<svg width="48" height="48" viewBox="0 0 48 48" fill="none" xmlns="http://www.w3.org/2000/svg">
<path d="M41.9975 25.3296C42.0599 25.5788 42.1933 25.8717 42.2968 26.1113L42.4669 26.5549C42.5858 26.9173 42.758 27.2846 42.8308 27.6598L43.1336 28.9143C43.3028 29.458 43.316 30.0803 43.4286 30.6392C43.507 31.0279 43.4663 31.4403 43.5267 31.8303L43.5376 31.8991C43.6243 32.5271 43.5674 33.2654 43.5071 33.8908L43.3668 35.2177C42.7412 39.2675 39.4331 42.3016 35.3435 42.6726L34.8927 42.721C33.0874 42.827 32.1096 42.3585 30.5357 41.6641C28.6272 40.8219 26.4965 40.4835 24.4177 40.4803L22.7994 40.4846C21.2548 40.5151 19.1954 40.9781 17.7889 41.5317L16.2889 42.1862C15.827 42.3735 15.3418 42.5287 14.851 42.6194L14.3728 42.685C12.0959 43.035 9.35216 42.1116 7.58839 40.6134C6.56085 39.7407 5.68363 38.5828 5.17836 37.3294C4.1206 34.7056 4.31488 31.0542 5.04407 28.3968C5.25341 27.6338 5.53588 26.8894 5.81821 26.151L7.40361 21.9626C7.72138 21.0023 8.02438 19.0779 8.46791 18.4286C8.99853 17.6518 9.7535 17.2729 10.6538 17.1031C10.7104 16.4416 10.6723 15.7719 10.703 15.1087C10.7136 14.8813 10.7594 14.662 10.7713 14.4356L10.9088 11.5755C10.9149 11.4841 10.9389 11.3976 10.945 11.3092L11.3393 6.60485C11.3923 5.99267 11.3786 5.46837 12.0831 5.30065C12.4263 5.27998 12.775 5.40143 12.9313 5.72956L12.9424 5.75407C13.1094 6.10615 12.8876 7.07318 12.8474 7.47692L12.6294 9.94634L12.4253 13.8586C12.4138 14.1043 12.3703 14.3467 12.3631 14.593L12.3505 15.7384C12.3438 15.9214 12.3096 16.1044 12.2976 16.2876L12.2658 17.2179C13.116 17.4588 13.9297 17.8909 14.7023 18.3127C18.562 20.4195 22.3346 24.5887 23.5808 28.7727L23.8215 29.6771C24.0459 30.4157 23.9738 31.3464 24.2148 31.987C24.3488 31.454 24.4287 30.9102 24.5782 30.3789C25.808 26.011 28.9317 21.3547 32.6727 18.6709C33.6181 17.9927 34.6843 17.3846 35.8408 17.1687C35.8139 16.6346 35.751 16.0988 35.7233 15.5462L35.6566 14.7189C35.5268 12.7617 35.4222 10.7912 35.0512 8.8602L34.4079 6.33856C34.2231 5.60281 34.9681 4.97834 35.6053 5.42782L35.6348 5.44939C36.0011 5.7132 36.1556 6.47459 36.2602 6.87907L36.7307 8.91359C37.0413 10.5454 37.1485 12.242 37.2642 13.8975L37.393 16.0262C37.4334 16.4015 37.4406 16.7852 37.5046 17.1585C37.959 17.2476 38.3622 17.3433 38.7556 17.6058L38.7889 17.6284C39.9802 18.4178 40.0125 19.2815 40.313 20.4963L40.9496 22.5953C41.0026 22.7945 41.0928 23.054 41.1824 23.2369L41.9975 25.3296ZM10.7826 18.7564C9.56132 19.0568 9.56858 20.0777 9.33786 21.0917L8.46524 23.9011L7.38435 26.6126L7.96391 26.7173L8.50921 26.795C8.61252 26.8122 8.73327 26.8467 8.83733 26.8377C9.00519 26.2546 9.24472 25.6842 9.44821 25.112C9.923 23.777 10.4105 22.4232 10.7686 21.0515C10.9642 20.302 11.024 19.5095 11.1559 18.746L10.7826 18.7564ZM36.9346 18.7853C36.9677 19.4719 37.3357 21.2318 37.5392 21.8177L38.9556 26.133C39.048 26.3616 39.1062 26.6218 39.2161 26.8404C39.6467 26.8067 40.1306 26.6647 40.5287 26.6484C40.595 26.6387 40.6622 26.6315 40.7268 26.6134L39.0445 21.9957C38.6265 20.7147 38.738 18.9914 37.1762 18.7993C37.0994 18.7899 37.0099 18.7677 36.9346 18.7853ZM35.2763 19.0666C31.2234 20.7692 27.122 26.7419 26.0713 31.0856L25.8138 32.3504C25.7682 32.5936 25.6771 32.9319 25.6884 33.1764L26.9355 32.0108C28.3333 30.726 29.037 29.9605 30.7651 29.0995C32.9073 28.0322 35.2194 27.5244 37.5711 27.1665C37.4447 26.6722 37.2509 26.1761 37.0862 25.6922L36.1245 22.8001C35.8988 22.0698 35.7087 21.3381 35.5677 20.5866L35.2763 19.0666ZM12.7307 19.1838L12.6306 19.9684C12.4418 21.1891 12.1266 22.3277 11.7281 23.4939L10.4853 27.0937C10.6097 27.1829 10.8868 27.1947 11.0365 27.2228L12.5644 27.508C14.9294 28.018 17.4073 28.8766 19.3057 30.4292C19.6971 30.7492 20.0439 31.1147 20.4057 31.4662L21.7662 32.77C21.901 32.9002 22.0386 33.0287 22.1642 33.1679L22.5073 33.5528C23.1419 34.3083 22.849 33.6696 22.7506 33.191L22.5297 32.0191C22.4143 31.3369 22.3649 30.6448 22.2068 29.9692C21.34 26.2651 18.8202 23.3316 15.8728 21.0637C15.4908 20.7698 13.0739 19.1189 12.7307 19.1838ZM6.84313 28.1907C6.06055 29.9744 5.82322 33.3306 6.28007 35.3088L6.75107 36.8522C7.70863 39.4333 10.7397 41.087 13.4122 41.0814C15.4979 41.077 16.9175 40.2148 18.2753 38.729C19.1793 37.7289 20.071 36.7001 20.8546 35.6017L21.414 34.742C20.8966 34.168 20.3303 33.6675 19.7798 33.13C19.2075 32.5713 18.6786 31.9794 18.0302 31.5046C16.499 30.3836 14.6287 29.6739 12.7968 29.2273L6.84313 28.1907ZM41.2117 28.2072L38.3436 28.6654C35.5926 29.144 32.2088 29.7726 29.9272 31.5189C28.7057 32.4538 27.7132 33.6679 26.5138 34.6407C27.4149 36.1 28.5021 37.411 29.6615 38.6707C31.1506 40.1619 32.1486 41.0882 34.4832 41.081C37.8692 41.0704 41.0894 38.7424 41.702 35.3142C41.8503 34.4839 41.9319 33.7252 41.9313 32.8846L41.9186 31.8756C41.8418 30.6338 41.6028 29.4171 41.2771 28.2189C41.2308 28.1997 41.2529 28.2013 41.2117 28.2072ZM24.8789 35.6355L23.4575 35.6518C22.5467 35.6526 22.8296 35.6132 22.2722 36.4012L20.9887 38.1247C20.7144 38.4673 20.4046 38.7943 20.1491 39.1493L23.1507 38.8383L24.677 38.8377C25.1212 38.8385 25.5296 38.8571 25.9686 38.9037L27.8245 39.1485L25.1764 35.634C25.0817 35.6334 24.9716 35.621 24.8789 35.6355Z" fill="black"/>
</svg>
