<svg width="48" height="48" viewBox="0 0 48 48" fill="none" xmlns="http://www.w3.org/2000/svg">
<path d="M44.2505 25.8643L45.3169 28.0605C45.9059 29.3075 46.0252 29.2524 45.7693 30.6387C44.777 36.0128 41.2849 40.1802 35.7768 41.0191C35.615 41.0438 35.4445 41.0419 35.2853 41.075L35.0051 41.1147C32.6699 41.3165 28.8525 40.4247 26.9421 39.2367C25.9647 38.6289 25.129 37.8172 24.2521 37.0779L21.6322 38.994C18.6552 40.8284 14.7326 41.6465 11.283 40.8463C6.24183 39.677 2.80776 35.2537 2.15989 30.2473C2.12384 29.9687 2.02541 29.6537 2.09875 29.3705L2.10637 29.3438C2.17992 29.0792 2.31226 28.8275 2.42783 28.5793L4.36905 24.5761L4.8824 23.6742C6.02208 21.5318 6.86254 19.339 7.19601 16.9206L7.31109 16.0261C7.479 14.1562 7.56811 12.2208 7.28972 10.3595C7.11093 9.16409 6.32081 7.15288 8.286 6.8997C8.46623 6.87622 8.66353 6.89183 8.84536 6.8915L10.9042 6.8892C11.7775 6.88925 12.4068 7.21817 12.5241 8.20114C12.5638 8.53367 12.5407 8.87628 12.5774 9.21102L12.7252 10.9358L12.7326 13.2269C12.7327 13.7994 12.7683 14.3968 12.711 14.9649L12.2285 18.891C12.2163 19.0263 12.1867 19.1596 12.1785 19.2953L12.1078 22.1724C12.1086 22.2796 12.0782 22.5691 12.1215 22.6443C12.2511 22.8692 15.3065 24.2486 15.7916 24.504L17.187 25.3251C19.7499 26.9297 22.3634 29.2985 23.8698 31.8981C24.4127 32.835 24.243 32.9559 24.5832 32.1474C25.9534 28.8904 28.4917 26.5512 31.5015 24.8201L35.4142 22.8287C35.7992 22.6062 35.9271 22.7003 35.9279 22.3009L35.9282 21.7645C35.9281 20.6212 35.9171 19.4889 35.7824 18.3516L35.3773 15.5338C35.3219 15.0718 35.2658 14.6197 35.2641 14.1536L35.2713 10.9454L35.4272 9.02839C35.5216 7.74439 35.5397 6.8945 37.0256 6.89028L39.2249 6.88991C39.809 6.89103 40.2673 6.8848 40.6725 7.40295L40.6994 7.43802C41.2776 8.18248 40.9479 9.04625 40.8056 9.87898C40.6757 10.6397 40.5747 11.4358 40.5531 12.2071L40.5596 14.4856L40.8756 17.461L41.1403 18.8389C41.1488 18.8855 41.1557 18.9246 41.1711 18.9697L41.5461 20.2106C41.8523 21.0854 42.1983 21.9437 42.6222 22.7702L44.2505 25.8643ZM8.63465 8.56133C8.64112 8.65995 8.6482 8.74086 8.67801 8.8303C8.87409 9.41863 8.96479 10.8167 9.00623 11.4376L9.06154 12.1083C9.12919 13.6078 9.04106 15.1289 8.85886 16.6171L8.52783 18.7089C8.51789 18.7717 8.48273 18.8966 8.49651 18.9544C8.58159 19.3114 10.1062 21.1487 10.4255 21.3063L10.4533 21.3192C10.4748 21.2785 10.4764 21.2668 10.4789 21.2227C10.5237 20.5146 10.51 19.9223 10.572 19.2027L11.095 14.1339C11.1516 13.2266 11.1273 12.3406 11.0903 11.431L10.9165 8.55913L8.63465 8.56133ZM37.1083 8.55955C37.0187 9.21411 36.9687 10.0702 36.9305 10.7523L36.9098 12.7735C36.9098 13.337 36.884 13.9239 36.9315 14.4851L37.5459 20.3555C37.5532 20.6871 37.5113 21.0571 37.5671 21.3828L38.6786 20.1785L39.2523 19.4521C39.3573 19.3094 39.4826 19.1528 39.5494 18.9877C39.3712 18.2645 39.2643 17.5359 39.1711 16.7983L38.933 14.0608C38.9101 13.2547 39.0579 9.30425 39.4011 8.56241L37.1083 8.55955ZM7.90003 20.9595C7.79465 21.1999 7.71797 21.4539 7.62586 21.7L7.20595 22.709L4.60352 27.8533L4.08962 29.0601C3.99049 29.318 3.93986 29.6273 3.74874 29.836C3.73163 30.3476 4.06701 31.5938 4.2188 32.0743L4.78467 33.5126C4.88123 33.7721 5.03868 34.0211 5.1644 34.2675C6.28579 36.466 8.63897 38.3166 10.957 39.0462C13.2377 39.7641 16.3987 39.5411 18.6178 38.5763C20.0354 38.0437 22.586 36.3778 23.6869 35.2612C23.3857 34.6002 23.127 33.9276 22.7904 33.2814C21.8769 31.5275 20.5298 30.014 19.0314 28.7378L18.2463 28.1187C17.2424 27.3052 16.195 26.548 15.0418 25.9571C12.4947 24.652 10.5246 23.9864 8.5709 21.7799C8.33704 21.5158 8.14247 21.2129 7.90003 20.9595ZM40.1204 21.0426C39.0681 22.3793 37.8277 23.3906 36.3443 24.2128L33.2346 25.787C30.1663 27.4058 27.6865 29.6577 26.1557 32.836C25.7133 33.7545 25.4951 34.7218 25.1513 35.6689L26.2879 36.6617C27.7015 37.9163 28.1538 38.1644 29.9872 38.7679C30.8796 39.0343 31.7938 39.2419 32.7173 39.3652C38.1197 40.0866 42.4174 36.7061 43.9143 31.5861L44.2732 29.7661C44.2927 29.6429 44.2304 29.5596 44.1807 29.4534L41.167 23.5077C40.7769 22.7177 40.3547 21.895 40.1204 21.0426Z" fill="black"/>
</svg>
