<svg width="48" height="48" viewBox="0 0 48 48" fill="none" xmlns="http://www.w3.org/2000/svg">
<path d="M43.4633 26.6301L43.7023 27.1372C43.8634 27.5329 44.0506 27.9629 44.1395 28.3809L44.4589 29.8946C44.5872 30.5606 44.5024 31.9734 44.3617 32.5943C43.4343 36.6862 40.1821 39.2574 35.9541 39.2585C34.79 39.2588 33.7888 39.0466 32.7279 38.5518C31.8223 38.1294 31.0713 37.4798 30.121 37.1416C28.3392 36.5075 25.0097 36.0088 23.2164 36.099C21.6033 36.1801 18.9822 36.6702 17.4757 37.3585C16.8116 37.662 16.232 38.1059 15.5861 38.4394C12.3727 40.0987 7.74337 39.2076 5.41499 36.4655C2.7224 33.2945 3.03582 28.8945 5.09549 25.4884C5.44555 24.9094 5.82965 24.3537 6.15177 23.7573L8.14298 19.7209C9.16082 17.4082 9.86624 14.932 10.213 12.4271L10.424 10.4527C10.4767 9.792 10.3222 8.86537 11.169 8.69855C11.3463 8.69128 11.5372 8.69601 11.69 8.79862L11.7173 8.81794C11.8421 8.90466 11.9363 9.03117 11.9956 9.17128L12.0062 9.19931C12.1956 9.65372 11.7753 12.6541 11.6791 13.2657L10.9245 16.6876C10.8152 17.1013 10.7932 16.9801 10.9976 17.3399L11.4616 18.2128C12.318 19.717 13.3307 20.961 14.8478 21.8495C15.5659 22.27 16.2967 22.6352 16.9788 23.1181C18.7123 24.3456 20.8685 27.1065 21.5757 29.1785L21.7928 29.7654C21.869 30.0178 21.971 30.2737 22.0186 30.5325C22.0704 30.8143 22.0754 30.808 22.3279 30.8029L25.9388 30.7965C26.218 28.0157 28.9881 24.3522 31.2132 22.8684C31.8211 22.463 32.484 22.1842 33.1162 21.8265C34.6004 20.9866 35.6633 19.6712 36.4978 18.2091L36.9566 17.385C37.0876 17.159 37.1675 17.1714 37.0997 16.9089L36.3165 13.2548L36.164 11.9884C36.1002 11.4692 35.8227 9.51773 36.0728 9.10556C36.4465 8.48976 37.4035 8.62556 37.5056 9.38175L37.5107 9.42197C37.556 9.76181 37.5368 10.1018 37.5631 10.4421L37.7228 11.8C37.774 12.1801 37.8057 12.573 37.8768 12.9493L38.1498 14.3854C38.2299 14.7696 38.3528 15.1537 38.4206 15.5392L38.7321 16.7403L39.5092 18.9692L40.2511 20.6946L41.9291 24.0351L43.4633 26.6301ZM10.1268 19.0665L9.20352 21.147C9.08076 21.4102 8.97998 21.69 8.82702 21.9372C9.10809 22.1026 9.42965 22.2315 9.72496 22.3732C13.507 24.1885 18.1686 28.1236 19.3132 32.399L19.7149 33.909L19.8385 34.326C20.3994 33.2069 20.7957 31.7733 20.3899 30.5551C19.5768 28.1138 17.8689 25.6862 15.7583 24.1993C15.1429 23.7658 14.454 23.4675 13.8164 23.0723C12.405 22.1978 10.8417 20.6316 10.1544 19.0702L10.1268 19.0665ZM37.8583 19.0441C36.8783 20.6809 35.7171 22.1991 34.026 23.1446C33.4734 23.4536 32.9009 23.7032 32.3631 24.0416C30.0213 25.5148 28.205 28.182 27.5038 30.8634C27.3336 31.514 27.456 32.6105 27.704 33.2579L27.7558 33.4246C27.8261 33.7097 27.9766 34.0511 28.1422 34.2884L28.2318 33.8615C29.074 30.7706 29.9571 28.9489 32.2723 26.682C33.5541 25.4268 34.9895 24.3067 36.5481 23.4157L39.1102 22.0662C39.0686 21.8375 38.924 21.5739 38.8297 21.3593C38.5018 20.6133 38.0616 19.8371 37.8583 19.0441ZM8.11176 23.4024C7.61535 24.5581 6.80844 25.5336 6.23601 26.6447C5.58027 27.9175 4.7369 30.6312 5.09085 32.08L5.24095 32.8118C5.40262 33.657 5.98016 34.6298 6.51951 35.2717C7.99293 37.0251 9.73813 37.6362 11.9566 37.654C12.9597 37.662 13.8206 37.5196 14.727 37.0618C15.7395 36.5514 16.6244 35.8689 17.7147 35.5116L18.1642 35.3681C18.2453 35.345 18.3577 35.3345 18.4287 35.2912C18.2253 34.1221 17.8407 32.8832 17.3805 31.79C16.5801 29.8888 15.6278 28.7883 14.1761 27.4079L12.7679 26.1801C11.4837 25.1456 10.0541 24.1704 8.52435 23.5487C8.41635 23.5049 8.2221 23.3957 8.11176 23.4024ZM39.8766 23.5196C37.4808 24.5148 34.9394 26.2803 33.1166 28.0823C31.451 29.7289 30.7917 30.9891 30.0728 33.2813L29.59 34.9732C29.5722 35.0475 29.4945 35.2436 29.512 35.3072C30.5151 35.5401 31.3435 35.9072 32.2236 36.4337C32.5648 36.6378 32.8911 36.875 33.2489 37.0497C34.7589 37.7937 36.6908 37.8285 38.2921 37.3288C41.4384 36.3467 43.4781 32.9973 42.8265 29.744C42.6204 28.715 42.3233 27.778 41.7825 26.8635L40.2403 24.2048C40.1355 23.9772 40.0455 23.737 39.9316 23.5147L39.8766 23.5196ZM22.1382 32.4014L21.5787 34.6251C22.5809 34.4471 24.0739 34.445 25.0986 34.5205L25.9509 34.6233L26.5281 34.7063C26.2895 34.0207 26.0362 33.3067 25.9098 32.5913C25.9018 32.5458 25.8971 32.4108 25.8494 32.399L22.1382 32.4014Z" fill="black"/>
</svg>
