<svg width="48" height="48" viewBox="0 0 48 48" fill="none" xmlns="http://www.w3.org/2000/svg">
<path d="M44.0242 27.2284C44.1111 27.5171 44.0323 28.9555 44.001 29.2597C44.1743 29.265 44.3607 29.2601 44.528 29.3077L44.5665 29.3192C45.5158 29.5792 45.7544 30.3172 45.53 31.2027L45.3818 31.9019C44.4548 36.727 39.737 40.7104 34.7783 40.4624C31.7541 40.3113 29.618 39.898 27.0175 38.2242C25.9213 37.5187 25.3348 37.0603 23.953 37.0888C22.5605 37.1174 21.9633 37.6221 20.8838 38.3082C18.8344 39.6106 16.4948 40.2433 14.0945 40.4069L13.4022 40.4706C8.93947 40.6779 5.17831 37.9153 3.25694 33.9588C2.87668 33.1757 2.62524 32.3455 2.41076 31.5045C2.18404 30.6155 2.1775 29.7982 3.14013 29.352L3.17957 29.3342C3.50034 29.1841 3.74506 29.1732 4.09168 29.1972L4.12895 29.1999C3.83736 26.8431 4.33476 24.6998 5.63094 22.7271L6.347 21.7094C6.95052 20.8175 7.49867 19.892 7.90667 18.8928C7.99161 18.6848 8.06698 18.4422 8.19148 18.2547C8.46777 17.8385 8.36853 18.066 8.36914 17.4932L8.36802 9.11634C8.36788 8.82918 8.28669 8.23846 8.42047 7.98595L8.43688 7.95661C8.56845 7.70967 8.70706 7.61742 8.96361 7.52503C9.16775 7.50529 9.38042 7.51828 9.55109 7.64437L9.5743 7.6619C9.66481 7.72725 9.71398 7.78593 9.76981 7.881L9.79334 7.92145C9.85034 8.01543 9.85653 8.106 9.85995 8.2139L9.8637 16.6636C9.86506 16.9994 9.90711 17.3567 9.87148 17.6893L9.86816 17.7169C10.9029 19.0056 11.9332 20.1267 13.3595 20.9894L15.9122 22.4271C18.1808 23.7887 20.2267 26.2799 21.556 28.5247C22.3962 29.9436 22.8566 31.1512 23.4276 32.6467C23.7613 32.6092 24.168 32.5915 24.4981 32.6465L24.5297 32.652C26.3048 28.0522 28.7166 24.3224 33.0424 21.855C35.0471 20.7116 36.0018 20.2247 37.5864 18.394L37.9102 18.0233C38.1221 17.7987 38.083 17.79 38.0829 17.4772L38.0851 8.205C38.0892 8.12198 38.1002 8.05218 38.1427 7.97939L38.1596 7.95182C38.5827 7.23342 39.5217 7.5254 39.5642 8.08936C39.5859 8.37646 39.568 8.67539 39.5681 8.964L39.5675 17.523C39.5666 18.2041 39.707 17.9669 39.937 18.5152L40.1239 19.0074C40.3637 19.6713 40.7736 20.3675 41.1608 20.9527L42.3528 22.7579C43.2257 24.1616 43.862 25.5734 44.0242 27.2284ZM9.31967 19.418L8.62845 20.8509C8.44733 21.2049 8.234 21.5412 8.024 21.8786L6.71666 23.782C5.71264 25.2944 5.44452 26.9287 5.58148 28.697C5.6038 28.9852 5.59063 29.3998 5.74095 29.6597L6.47375 31.1246C7.55417 33.089 9.22649 35.0991 11.3715 35.8745C13.0424 36.4784 15.8895 36.1369 17.5121 35.4806C18.72 35.1045 20.9375 34.0082 21.9958 33.2019L21.0695 30.9605C20.3325 29.3815 19.4412 27.893 18.3156 26.5579L17.589 25.7727C17.1965 25.3605 16.7999 24.9457 16.3591 24.5838C13.8343 22.5112 11.5365 22.3148 9.31967 19.418ZM38.7229 19.4092C37.7362 20.6557 36.6048 21.5927 35.2225 22.3739L33.281 23.4496C29.8766 25.5144 27.487 29.1158 26.1141 32.8047C26.0726 32.9163 25.9962 33.0553 25.982 33.171C27.0744 33.9444 28.2474 34.5974 29.4712 35.1389L30.3965 35.5096C32.3356 36.1577 35.1513 36.6094 37.0037 35.6959C38.8097 34.8053 40.2324 33.3318 41.2404 31.5988C41.5708 31.0309 41.8078 30.3814 42.2896 29.926C42.8295 27.6877 42.0968 25.1495 40.9102 23.2114C40.1481 21.9666 39.1354 20.8448 38.7229 19.4092ZM4.52299 30.7144C4.29406 30.7282 4.01727 30.7202 3.79841 30.7811C4.16379 33.3758 5.69736 35.6751 7.76708 37.2345C10.4508 39.2564 13.0735 39.3031 16.2905 38.6093C17.5677 38.3338 18.8928 37.7727 19.9999 37.0707C20.3921 36.822 20.7633 36.5441 21.165 36.3097C22.5355 35.5102 24.066 35.3808 25.574 35.7693C26.6976 36.0587 27.542 36.8311 28.5297 37.391C29.8247 38.1251 31.3709 38.7708 32.8831 38.8324L34.8104 38.9294C38.1227 39.1563 41.4347 37.0273 42.9434 34.125C43.2662 33.504 43.4933 32.8535 43.6959 32.1855L44.0432 30.7132C43.8061 30.7394 43.4807 30.8323 43.2744 30.9509L43.2693 30.9703C43.1149 31.5449 42.7469 32.1312 42.4253 32.6279C40.6516 35.3677 38.1204 37.6869 34.6984 37.6884C31.6721 37.6897 28.9779 36.7558 26.3812 35.208L25.2963 34.5386C23.7567 33.6118 23.1529 34.2705 21.7516 35.1421L20.6901 35.7414C18.8942 36.698 16.9227 37.3807 14.8957 37.6048C13.7308 37.7336 12.572 37.7702 11.4223 37.4715C8.54947 36.7251 6.32066 34.0464 5.00009 31.5377L4.71861 30.9777C4.67184 30.8775 4.65872 30.7051 4.52299 30.7144Z" fill="black"/>
</svg>
