<svg width="48" height="48" viewBox="0 0 48 48" fill="none" xmlns="http://www.w3.org/2000/svg">
<path d="M46.1936 31.7934C46.1929 32.2927 46.2551 35.0707 46.1384 35.2797L46.121 35.309C45.828 35.8167 45.4865 35.7669 44.9859 35.8473L40.371 36.7197L38.4899 36.9577C37.2318 37.1096 36.3929 37.1345 35.1131 37.1331C34.4229 37.1324 33.719 37.1539 33.0307 37.1091L30.1446 36.8946C29.9541 36.8813 29.7695 36.8406 29.5781 36.832L26.4463 36.8155C26.0758 36.81 25.7106 36.7473 25.3369 36.7403L19.546 36.7343C18.7775 36.7408 18.0083 36.8531 17.2413 36.909L14.6046 37.1121L10.844 37.1105L10.0541 37.0399C9.05676 36.9636 8.06972 36.8613 7.08295 36.6938L3.06596 35.9079C2.56091 35.8148 2.14991 35.8459 1.88298 35.3239L1.84525 35.2508C1.79489 35.135 1.80474 34.9964 1.80409 34.8732L1.80518 29.152C1.81298 28.9028 2.03778 28.6585 2.26045 28.5763L2.29425 28.5642C2.60012 28.4469 4.11364 28.8036 4.48207 28.917L4.30643 28.5223C3.30749 25.8613 3.72609 22.2789 5.45709 20.0128C5.89242 19.4428 6.41109 18.9904 6.90534 18.4765C8.50748 16.8104 9.13589 14.4825 9.11465 12.2231C9.10959 11.6845 9.00197 11.0745 9.66393 10.8811L9.76368 10.8574C10.0345 10.8787 10.276 10.9503 10.3933 11.2269L10.4069 11.2621C10.4284 11.3094 10.4476 11.3442 10.458 11.3963L10.4639 11.4262C10.5857 11.9984 10.3089 12.1806 10.7782 12.6771L11.3933 13.3245C12.7938 14.7526 14.3606 15.9969 16.0036 17.1336C19.3136 19.4235 20.9795 20.3234 23.4058 23.8341C24.2428 25.0451 23.7639 24.9948 24.6396 23.7239C26.9699 20.3417 28.8104 19.3388 32.102 17.0619C33.7597 15.9152 35.3073 14.6385 36.7267 13.2064L37.3542 12.5348C37.4972 12.3744 37.4936 12.3969 37.4925 12.1859L37.4947 11.6058C37.5156 10.773 38.4966 10.6149 38.7981 11.2448L38.8117 11.2739C38.8944 11.4407 38.8801 11.6242 38.8784 11.8056L38.8721 12.4351C38.8646 13.2231 38.9495 14.2125 39.2013 14.9729L39.5605 16.0082C39.8882 16.9394 40.4765 17.8543 41.1616 18.5588C41.5025 18.9093 41.8765 19.217 42.1957 19.5905C43.1283 20.6816 43.7935 22.0896 44.0304 23.5022L44.1319 24.3168C44.3613 25.7409 44.139 27.5106 43.5863 28.853C44.0156 28.7962 44.4442 28.6745 44.871 28.5941C46.1179 28.3592 46.1927 28.8475 46.194 29.9917L46.1936 31.7934ZM10.3808 14.3559L10.1505 15.3653C9.71156 17.0034 8.8515 18.5949 7.62764 19.7811C7.39682 20.0048 7.14347 20.2087 6.92306 20.4425C5.84489 21.5862 5.28689 23.2967 5.22267 24.8367L5.22543 26.0253C5.26148 27.3774 5.66175 28.867 7.01958 29.4515C7.96153 29.857 10.1733 30.1237 11.1631 30.1802L14.7353 30.1845L15.4707 30.1294C16.1559 30.0851 16.8572 30.0535 17.534 29.9368C19.6923 29.6557 20.9607 28.7598 22.2389 27.1028L23.0433 25.9332L22.1541 24.5799C20.2684 21.7954 18.9904 20.8949 16.3571 19.1164L13.0915 16.7637L10.6753 14.6093C10.5921 14.5251 10.4933 14.3971 10.3808 14.3559ZM37.6044 14.3559L37.575 14.3885C36.1729 15.9238 33.7706 17.6769 32.0742 18.8183C29.5799 20.4966 28.0761 21.4828 26.2473 23.9301C25.7852 24.5486 25.3073 25.2141 24.9662 25.9079C25.8852 27.5353 27.5131 29.3702 29.3303 29.8726L30.3224 30.084L31.1153 30.1736C31.5352 30.2004 31.9583 30.1897 32.3789 30.1896L35.7815 30.1898C37.0009 30.1891 40.6077 29.8485 41.6074 29.0623C42.8318 28.0993 42.9052 25.8905 42.7532 24.417C42.6022 22.9531 41.9874 21.4344 40.9639 20.3553L40.0415 19.4491C38.9418 18.2791 38.1459 16.6909 37.7849 15.1314C37.7612 15.0291 37.6544 14.3797 37.6044 14.3559ZM24.003 27.105C23.5999 27.7089 23.166 28.3048 22.6619 28.8295L22.1074 29.3971C21.9644 29.5331 21.8039 29.6994 21.6402 29.8086L24.1353 29.8454L26.3809 29.8835C25.9607 29.47 25.5048 29.0662 25.1296 28.6112L24.3309 27.5775C24.2182 27.4221 24.1237 27.2544 24.003 27.105ZM44.6772 30.059L43.7525 30.2474C43.2796 30.3325 42.7999 30.3999 42.3325 30.512L40.5585 30.9869C39.8234 31.175 39.0708 31.3124 38.3203 31.4216L37.2693 31.562C36.1428 31.6565 34.9852 31.5979 33.8547 31.6003L31.8632 31.6047C31.1406 31.6061 30.4557 31.6139 29.7446 31.4699C29.3884 31.3977 29.0675 31.3407 28.6992 31.3223L23.9903 31.3082C23.8132 31.3036 23.6378 31.276 23.4609 31.2675L18.5389 31.2672C18.1821 31.2857 17.8406 31.3493 17.4877 31.3901L15.7775 31.56C15.3188 31.6025 14.8537 31.5923 14.3935 31.6076L13.6508 31.6532C10.2583 31.7304 7.81429 31.1993 4.51451 30.3703L3.60783 30.1611C3.4738 30.1317 3.32271 30.1173 3.19542 30.0683L3.18546 30.961C3.18599 31.1404 3.17037 31.3373 3.20701 31.5131L3.39938 31.5596L6.50386 32.2497C7.82995 32.5134 9.18497 32.7085 10.5334 32.8127L11.9329 32.8914C12.4954 32.9222 13.0953 32.9275 13.6588 32.8983L15.881 32.707C16.5375 32.6408 17.3478 32.5725 18.0104 32.5556L22.4882 32.5567C22.7211 32.5627 22.9535 32.6085 23.1888 32.6127L28.6491 32.6185C29.5696 32.6199 30.2599 32.6134 31.1722 32.6992L33.6651 32.902C35.7526 32.9885 37.8001 32.8067 39.8554 32.4619L42.4804 31.8746C43.1696 31.6944 43.8734 31.3638 44.4891 31.89C44.6152 31.9978 44.5925 31.9645 44.7539 31.9126C44.8173 31.3995 44.8255 30.5792 44.7659 30.0535L44.6772 30.059ZM44.4823 32.4731C44.2135 33.1201 43.9726 32.9942 43.3716 33.1148L42.4015 33.3448C41.5792 33.5605 40.7482 33.765 39.9102 33.9102L38.2734 34.1282C37.1099 34.2685 36.3733 34.3105 35.1944 34.3104L33.2497 34.2954C33.07 34.2867 32.8985 34.2544 32.7207 34.2369L31.7114 34.1395C31.3194 34.098 30.9186 34.112 30.5249 34.0929L29.5122 34.0185L18.2647 33.9624L16.5183 34.0947C15.3164 34.1889 14.3189 34.3086 13.1077 34.3089L10.4531 34.2221C8.88089 34.1005 7.32168 33.8783 5.77715 33.5561L3.43452 33.0272C3.35889 33.0077 3.26782 32.9712 3.19056 32.9715L3.18446 34.4892L3.39476 34.5281L5.51948 34.9686C6.64092 35.1858 7.78247 35.4075 8.91792 35.5319L10.9765 35.7234C11.8555 35.7761 13.1638 35.7759 14.0404 35.7225L18.8138 35.363L27.6546 35.3581C27.8997 35.3597 28.1509 35.4301 28.4014 35.438L29.9437 35.4619L32.7369 35.6657C32.9181 35.6793 33.0958 35.7131 33.2772 35.723L35.0216 35.7363C35.5813 35.7364 36.1501 35.7562 36.7086 35.7181L41.7421 35.0369C42.7544 34.8388 43.7495 34.5956 44.7766 34.4789L44.7855 33.2774C44.7853 32.9554 44.9221 32.4388 44.4823 32.4731Z" fill="black"/>
</svg>
