<svg width="48" height="48" viewBox="0 0 48 48" fill="none" xmlns="http://www.w3.org/2000/svg">
<path d="M47.6951 27.0014C47.7124 28.3098 47.4917 29.6619 47.0032 30.8741L43.9098 37.9592C43.7443 38.3282 43.542 39.2492 43.0285 39.2501L35.4267 39.2359L32.6984 39.0034C29.5271 38.6318 26.8852 38.0254 24.7321 35.5078C23.6587 34.2527 24.3027 34.3126 23.2503 35.5392C21.1968 37.9328 18.6273 38.6412 15.6326 38.998L14.024 39.1729C12.0739 39.2976 10.1042 39.2431 8.15055 39.2439L5.99547 39.2444C4.69422 39.2445 4.7538 39.503 4.20087 38.2484L1.57006 32.1973C0.630541 30.0695 0.353702 29.4354 0.344847 27.0959C0.337803 25.2345 0.637615 23.93 1.51547 22.2337L1.98593 21.3941C2.94109 19.5714 3.53404 17.4816 3.77912 15.4482L3.87406 14.6498C3.95793 13.4531 3.96933 11.487 3.81445 10.3269C3.72075 9.62499 3.64743 8.86617 4.56323 8.77495C5.26183 8.73009 5.98446 8.76413 6.68552 8.76399L7.33329 8.76417C7.63619 8.76431 7.8791 8.77008 8.06168 9.06099L8.08155 9.0937C8.25485 9.37167 8.17235 9.8107 8.17235 10.1244L8.17136 17.5843C8.17155 18.0737 8.14094 18.5521 8.30707 19.0209C8.55236 19.7131 9.28357 20.3298 10.0125 20.4459C10.5309 20.5285 11.0763 20.4783 11.6013 20.5002C16.5474 20.7058 20.8506 24.1305 21.5188 29.1631C21.5911 29.7071 21.4105 29.7889 21.8843 29.7888L26.431 29.7897C26.4621 27.9119 27.3914 25.8006 28.525 24.353C30.2116 22.1992 32.8628 20.8827 35.553 20.5545C37.0714 20.3692 39.1274 20.9055 39.7336 18.8798C39.864 18.4441 39.8179 17.9638 39.8181 17.5132L39.8171 9.89358C39.8186 8.44195 40.5874 8.76328 41.6987 8.76441L42.9817 8.76549C43.5004 8.76464 44.0398 8.67778 44.2376 9.29639L44.2496 9.33961C44.407 9.89808 44.1802 10.5583 44.1412 11.1298L44.1178 12.2195C44.113 13.4096 44.0649 14.651 44.2517 15.8318L44.5255 17.3264C44.5887 17.6713 44.7856 18.4497 44.9195 18.7966L44.9804 18.9724C45.3086 20.181 45.9723 21.316 46.5367 22.4221L47.1574 23.8357C47.5043 24.6483 47.6951 26.0748 47.6951 27.0014ZM5.13241 10.0832L5.1753 11.1562C5.27182 12.4185 5.25232 13.649 5.15613 14.9064L5.10963 15.5945C4.90844 17.416 4.42961 19.2288 3.68483 20.9049L3.04211 22.2304C2.51497 23.2236 1.98478 24.1704 1.78912 25.2937C1.67959 25.9225 1.60071 27.635 1.72761 28.2701C1.83655 28.8153 1.78417 29.2871 2.01708 29.8709C3.66657 34.0053 9.4533 34.5725 13.2729 34.1636C13.4945 34.1399 13.7204 34.1292 13.9399 34.0911L14.9105 33.9145C15.8198 33.7108 16.7331 33.4466 17.5973 33.0953L13.6943 27.4576C12.3148 25.4663 11.4706 24.2805 9.66499 22.7049L8.59872 21.7468C7.65311 20.9034 7.16726 20.489 6.89374 19.1898L6.88586 19.1535C6.83411 18.8946 6.85704 18.6006 6.85685 18.3366L6.85943 10.5922C6.85938 10.4358 6.88371 10.2275 6.8404 10.0787L5.13241 10.0832ZM42.3165 10.0885L41.1394 10.0917C41.1153 10.3694 41.1259 10.6512 41.1258 10.9299L41.1255 16.704C41.1255 17.4751 41.1828 18.2863 41.064 19.0453C40.7755 20.8881 38.7942 22.2465 37.5367 23.4211C36.0355 24.8232 34.974 26.4985 33.8112 28.1753L30.4092 33.0847C31.5765 33.6276 33.4921 34.0417 34.7398 34.1537C38.8204 34.6535 45.6066 33.7904 46.2324 28.6817C46.4599 26.8236 46.263 25.0887 45.4905 23.3768L44.5171 21.4185C43.5342 19.3215 42.9624 17.0032 42.8209 14.6926L42.7988 11.862L42.8721 10.7224C42.8918 10.5098 42.9293 10.298 42.9389 10.0849L42.3165 10.0885ZM11.1302 21.8665L10.7813 21.872C11.8295 22.7778 12.7725 23.8525 13.6011 24.9619L18.1252 31.5147C18.602 32.1701 18.7867 32.9768 19.65 32.256C21.1565 30.7548 19.7219 27.0441 18.7329 25.6109C17.0598 23.1865 14.2074 21.8686 11.2842 21.8633C11.2353 21.8632 11.1777 21.8577 11.1302 21.8665ZM36.3561 21.8701C31.4309 22.1213 27.4261 25.8875 27.7336 31.0015C27.766 31.5397 28.1671 32.2048 28.6673 32.4249C29.3451 32.5801 29.3046 32.3171 29.7161 31.7323L33.7499 25.8891C34.3121 25.1102 34.8475 24.3248 35.4892 23.6077L36.5523 22.4883C36.6777 22.362 37.0545 21.955 37.174 21.8666L36.3561 21.8701ZM21.5934 31.128L21.463 31.7495C21.4452 31.8207 21.4335 31.9065 21.3875 31.9644L26.4431 31.9446L26.6194 31.9377C26.6462 31.8477 26.4695 31.274 26.4372 31.1423L21.5934 31.128ZM22.5319 33.2944C21.8938 33.295 21.2136 33.2451 20.585 33.3626C20.3631 33.4041 20.1138 33.5921 19.8967 33.6796L17.484 34.5818C14.6841 35.5611 11.6348 35.8723 8.68765 35.4949L7.65213 35.3196C6.74294 35.1405 5.79461 34.8473 4.95222 34.4566L3.77282 33.8423L4.60497 35.8106C4.62144 35.8511 4.63964 35.8875 4.66092 35.9257C4.7314 36.1305 4.83143 36.3218 4.91304 36.522L5.32427 37.4968C5.37836 37.6168 5.42332 37.8005 5.52293 37.8865L13.2506 37.8605L14.8445 37.7254C17.484 37.4582 19.8861 37.0372 21.8088 35.0812C22.3066 34.5748 22.8473 33.9573 23.1388 33.3058L22.5319 33.2944ZM25.0323 33.2944C24.9784 33.2919 24.9243 33.2937 24.8714 33.3052C24.9678 33.8182 25.9268 34.8079 26.2838 35.1574C27.9749 36.813 29.5833 37.1581 31.8933 37.5349L34.4661 37.831C34.6263 37.842 34.7841 37.8697 34.9446 37.877L42.498 37.8794L43.5063 35.5623L44.2188 33.8693C41.932 35.11 39.6725 35.6227 37.103 35.6265L35.7316 35.6145C33.8571 35.5073 31.6291 35.0894 29.877 34.3413C29.6594 34.2484 29.4572 34.1221 29.2381 34.0326C28.9305 33.9069 28.5996 33.833 28.288 33.7146L27.8003 33.5091C27.3263 33.2834 26.885 33.2974 26.364 33.2948L25.0323 33.2944Z" fill="black"/>
</svg>
