<svg width="48" height="48" viewBox="0 0 48 48" fill="none" xmlns="http://www.w3.org/2000/svg">
<path d="M32.0615 36.0001C30.9294 36.004 30.3234 36.0191 29.2329 35.7063L27.9366 35.2958C26.9688 35.0154 25.6186 34.7368 24.775 34.1767L24.7558 34.1637C24.7072 34.7499 24.7406 35.3632 24.7398 35.9525L24.7386 36.469C24.7384 36.5648 24.7271 36.6753 24.7519 36.7675L25.3763 36.767C26.1844 36.7686 26.5161 37.5423 26.012 38.0599C25.7001 38.38 25.1862 38.3242 24.7791 38.3221C24.6707 39.2528 24.7295 39.6933 24.4339 40.6207C24.3988 40.7308 24.2963 40.8155 24.3689 40.9212C24.6784 41.3715 25.1511 41.7644 25.5369 42.1524L27.7236 44.3466C27.9282 44.5501 28.2955 44.7541 28.393 45.0283L28.4065 45.0707C28.6223 45.6665 28.1647 46.1449 27.5785 46.1278C27.2238 46.1174 27.0322 45.8334 26.811 45.6005L23.6752 42.4525C23.0646 43.4814 22.349 44.3491 21.4954 45.1946C21.1209 45.5656 20.493 46.2883 19.9079 45.8997C19.5568 45.6665 19.3957 45.1567 19.6466 44.793C19.7806 44.5987 20.031 44.4455 20.207 44.2855C21.2509 43.3363 21.7076 42.5504 22.5327 41.4304L22.0749 41.1026C21.5758 40.6703 21.0628 39.9034 21.0197 39.2284C20.93 37.8249 21.8927 36.8473 23.2519 36.7652L23.25 34.1231C22.487 34.6738 20.9916 35.0568 20.0951 35.3071C18.4961 35.7536 17.1788 36.196 15.4805 35.9604C13.7292 35.7175 10.993 34.5959 9.6559 33.5784C7.09494 31.6295 6.60153 29.2153 6.11937 26.2738C6.03256 25.7441 5.94186 25.208 5.80287 24.6888L5.46772 23.4278C5.38311 23.1276 5.15783 22.6674 5.2662 22.3515C5.45994 21.7868 6.59923 21.4992 7.08819 21.2652C7.21395 20.7614 7.36339 20.535 7.77022 20.2338L8.25861 19.8547C10.1665 18.2982 11.3906 15.9447 11.9727 13.5864C12.0112 13.4303 12.0032 13.2663 12.0036 13.1062L11.9909 10.6528L11.3303 3.78886C11.2602 3.13833 11.0922 2.55076 11.8452 2.2763C12.1813 2.25831 12.5003 2.36692 12.6683 2.68834L12.683 2.7179C12.8224 2.9907 12.8532 3.8356 12.8937 4.16168L12.941 4.65271C13.2071 6.49217 13.4172 8.5791 13.4762 10.4418L13.4805 13.415C13.4793 13.7065 13.9297 13.7314 14.2398 13.8731C17.4291 15.3301 20.2728 17.7028 22.0627 20.7328C22.6046 21.65 22.963 22.6082 23.3615 23.5856L23.4486 23.8397C23.6981 24.486 23.756 25.1699 23.8788 25.8443C23.9045 25.9858 23.8713 26.221 23.9291 26.3383L23.9803 26.4297C24.0832 26.3079 24.0846 25.9696 24.1078 25.8118L24.5539 23.8331C26.0212 19.0353 29.6743 15.8192 34.0623 13.7332C34.1584 13.6875 34.4495 13.61 34.5017 13.529C34.5674 13.4271 34.476 11.062 34.5148 10.4832L35.1622 3.60392C35.1856 3.35606 35.1887 3.08908 35.2504 2.84802C35.4385 2.11401 36.6364 2.10301 36.7061 2.84386L36.7083 2.87146C36.7448 3.22496 36.6771 3.58077 36.6395 3.932L36.0951 9.41853L36.048 10.4643C36.0394 10.6139 35.9997 10.7609 35.9929 10.913L35.984 12.6233C35.9844 13.0899 35.9545 13.4946 36.1084 13.9421L36.202 14.2546C36.9913 16.4285 37.5598 17.8797 39.3574 19.5219L39.9832 20.0502C40.3093 20.3011 40.6751 20.5102 40.923 20.8485C41.4138 21.5182 42.3252 21.5424 42.639 22.1943L42.6552 22.2308C42.835 22.6088 42.4712 23.6555 42.3704 24.0941L41.918 26.1428C41.7732 26.9501 41.6723 27.7713 41.4857 28.5707C40.743 31.7533 38.8682 33.6566 35.9828 34.8871C34.7336 35.4198 33.4322 35.9487 32.0615 36.0001ZM13.1191 15.018C12.3399 17.6247 10.7891 19.9349 8.58237 21.5545L8.60595 21.5844C9.20745 22.3571 9.31067 23.4504 9.67869 24.3402L10.2009 25.4886C11.5638 28.1734 14.7755 30.5673 17.9246 29.8324C18.8298 29.6698 19.5933 29.0952 20.382 28.663C21.0916 28.2743 21.8594 27.9476 22.5166 27.4746C22.3325 22.5455 19.1398 18.3268 14.9532 15.9606L13.1191 15.018ZM34.8642 15.048C34.3652 15.2352 33.8731 15.5164 33.4022 15.7667C29.0093 18.1021 25.6472 22.4249 25.475 27.5036L27.7032 28.7094C28.5105 29.1414 29.2247 29.6801 30.1464 29.8493C32.4344 30.3546 34.8163 29.165 36.3634 27.5177C37.3646 26.4515 38.141 25.0153 38.5822 23.6257C38.7961 22.952 38.9054 22.159 39.4069 21.6239C37.1838 19.8248 35.6817 17.8728 34.8642 15.048ZM40.6522 22.5824C40.1566 23.3314 40.0239 24.3064 39.6724 25.1287C38.3759 28.1609 35.9299 30.6951 32.5975 31.368L32.086 31.4512C31.3277 31.6123 29.6952 31.3805 29.0188 31.125C28.3542 30.8739 27.8019 30.4999 27.1823 30.1662L25.3212 29.1729C24.8425 28.8931 24.3962 28.6119 24.0302 28.192C23.6894 28.5678 23.2681 28.8376 22.8327 29.0926L20.7952 30.1902C20.3132 30.4587 19.8702 30.7768 19.3543 30.983C17.9152 31.5584 16.3754 31.6456 14.8776 31.2314C11.8007 30.3808 9.59319 28.067 8.37542 25.1983L8.1575 24.6385C8.06984 24.3834 7.65097 22.9169 7.46755 22.7907L6.94334 22.9894L6.99312 23.1905C7.00039 23.2234 7.01051 23.2519 7.02186 23.2833L7.33297 24.4381C7.39939 24.646 7.44547 24.9317 7.47167 25.152L8.02611 28.1445C8.49139 30.3999 9.9192 32.2458 12.0357 33.2107L13.8516 33.941C16.2049 34.7717 17.0986 34.5834 19.298 33.9342C20.7283 33.512 21.7741 33.3315 23.0139 32.4056C24.2224 31.503 23.9966 31.6464 25.0088 32.4605C25.983 33.244 27.2038 33.5014 28.3798 33.8319L29.9415 34.3112C31.4549 34.6974 32.6503 34.4554 34.0696 33.9785C37.3305 32.8828 39.4031 31.3246 40.1078 27.6797L40.368 26.1132C40.563 25.0066 40.7837 23.9319 41.1252 22.8627C40.9717 22.7562 40.8228 22.661 40.6522 22.5824ZM23.1459 38.3324C22.9334 38.3636 22.7702 38.5129 22.6504 38.6791C22.3908 39.0392 22.6425 39.4107 22.8746 39.6984C22.9197 39.7399 23.0188 39.8564 23.0732 39.8675C23.1147 39.6608 23.4982 38.2969 23.1459 38.3324Z" fill="black"/>
</svg>
