<svg width="48" height="48" viewBox="0 0 48 48" fill="none" xmlns="http://www.w3.org/2000/svg">
<path d="M41.0389 23.6187L41.0449 24.7763C40.9936 28.0035 38.7878 30.6665 36.2956 32.5089L33.5005 34.3208C30.8811 35.9413 28.7834 38.4965 28.1496 41.5538L28.0404 42.1073C28.0069 42.3085 28.048 42.5951 27.9485 42.7718L27.934 42.7965C27.7688 43.0844 27.5241 43.1532 27.2223 43.1598L20.7495 43.165C20.1118 43.1389 20.0718 42.2934 19.9638 41.8257C19.3094 38.9916 17.2905 36.0919 14.8759 34.4228C12.8957 33.0541 11.4342 32.5715 9.69143 30.7192L9.23609 30.1843C9.13606 30.0578 9.02525 29.8834 8.88607 29.7994L8.71878 29.6936C8.34664 29.4212 7.65697 27.7934 7.47711 27.332C6.74159 25.4455 6.61236 22.9253 7.30409 20.982C7.94661 19.177 9.31695 17.6556 10.4398 16.1406C10.2881 15.5569 10.0541 14.9931 9.83731 14.4313L8.52476 11.0299C7.84854 9.26597 6.77117 8.17795 4.86331 7.66598C4.44302 7.55316 4.02778 7.43428 3.9541 6.92634L3.9506 6.89902C3.90184 6.53667 4.10249 6.16861 4.45937 6.05166L4.66155 6.00586C4.97712 6.00666 5.25828 6.10008 5.5542 6.20062C7.16 6.74611 8.68456 7.75753 9.50393 9.28172C9.71998 9.68362 9.86262 10.1021 10.0316 10.523L11.7012 14.9293C12.3068 17.4011 16.476 18.2697 18.5103 19.0312C19.7729 19.5039 20.9519 20.0826 21.846 21.123L23.2593 22.8759C23.3828 23.0291 23.4861 23.1928 23.6159 23.341L24.2013 23.3422C24.5269 23.3428 24.4459 23.1819 24.6446 22.9386L25.5523 21.9254C25.9163 21.4995 26.2306 21.045 26.6408 20.6593C29.3383 18.1225 33.5627 18.393 35.8224 15.9791C36.0184 15.7698 36.077 15.6919 36.154 15.4203L37.5586 11.5263C38.4424 9.34256 38.891 7.88827 41.2403 6.69272C41.851 6.38194 43.5207 5.47331 43.9574 6.44283L43.9887 6.50925C44.4036 7.44403 43.0019 7.66359 42.5269 7.85161C40.2169 8.766 39.8659 10.0009 39.0709 12.0338L37.7065 15.6736C37.6095 15.959 37.5757 16.0551 37.7594 16.3223L38.5865 17.4367C39.4879 18.669 40.331 20.0476 40.6728 21.5536L40.7701 21.9172C40.882 22.5478 40.9829 22.9417 41.0389 23.6187ZM11.4154 17.4957L10.8563 18.1883C10.3667 18.819 9.66082 19.719 9.31273 20.4451C9.60462 20.5807 9.91479 20.6765 10.2188 20.7815L13.1764 21.742C15.2748 22.3974 16.8448 22.701 18.9787 22.9404C19.4254 22.947 19.851 22.9374 20.2924 22.8619L21.0428 22.6955C20.4223 21.4218 18.6721 20.7572 17.4268 20.3306C15.3229 19.6098 13.2112 19.002 11.4856 17.5302C11.4548 17.5039 11.4587 17.496 11.4154 17.4957ZM36.6315 17.4873C35.208 18.5516 34.4003 18.9707 32.7192 19.5096L30.4596 20.282C29.1935 20.7951 27.7201 21.4707 27.0056 22.6996C27.7162 22.793 28.2279 23.013 28.9865 22.9501C30.1166 22.8685 31.2006 22.6288 32.2975 22.3603L34.9453 21.6532L38.1731 20.6355C38.3147 20.5889 38.4895 20.5561 38.6192 20.4845C38.503 20.212 38.3424 19.9555 38.1876 19.7032L37.3117 18.398C37.0951 18.0952 36.8769 17.7674 36.6315 17.4873ZM8.66342 21.9722L8.54454 22.6221C8.37289 23.3468 8.52584 25.4342 8.75722 26.0469L9.02562 26.7652C9.20014 27.2586 9.46611 27.8163 9.76086 28.2408L12.8866 28.2275C15.264 28.1364 16.7643 27.6494 18.7149 26.4361C19.4341 25.9329 20.1955 25.234 20.6072 24.4506C18.8155 24.6622 17.0391 24.3906 15.2925 23.9751L9.72757 22.3029C9.5795 22.2527 8.75032 21.9462 8.66342 21.9722ZM39.1231 22.0191L33.4571 23.7203C31.351 24.2836 29.552 24.7962 27.3697 24.4071C28.0395 25.4186 28.4781 25.7957 29.429 26.5694C31.7456 28.0711 33.6042 28.3021 36.3677 28.2999L37.5716 28.2979C38.0651 28.2965 38.1744 28.4314 38.4175 28.0572L38.6734 27.6558C39.674 25.9209 39.6865 23.9341 39.1758 22.036L39.1231 22.0191ZM22.3092 24.3863C21.7585 26.1928 20.1159 27.595 18.4922 28.451C16.7023 29.3947 14.6267 29.7995 12.6141 29.8156L11.403 29.8651C11.3457 29.8691 11.1471 29.8602 11.1099 29.889C12.2005 31.0619 13.6359 31.7404 14.9766 32.5695C17.9914 34.4339 20.487 37.6063 21.4354 41.0538C21.4766 41.2037 21.4525 41.4359 21.5592 41.5488L26.4727 41.549L26.5707 41.5425C26.6265 41.3443 26.6452 41.136 26.6933 40.935C27.348 38.1982 28.9834 35.7521 31.1872 34.0112C32.9221 32.6407 35.4779 31.5811 36.8811 29.9034C36.1531 29.8967 35.4096 29.931 34.6844 29.888C30.9762 29.6679 27.1882 28.0112 25.6772 24.3909C25.3815 24.7064 25.1158 25.1066 24.6349 25.126C24.4452 25.1337 24.309 25.0121 24.1216 25.0061C23.9257 24.9998 23.7579 25.062 23.5691 25.0961C22.723 25.2492 22.6198 24.4452 22.3092 24.3863Z" fill="black"/>
</svg>
