<svg width="48" height="48" viewBox="0 0 48 48" fill="none" xmlns="http://www.w3.org/2000/svg">
<path d="M7.07857 16.4119C7.15873 16.0081 7.19585 15.5954 7.24868 15.1876L7.50842 12.4638L7.5109 9.78912C7.50021 9.34441 7.28599 7.89523 7.34435 7.58763C7.41996 7.18882 7.85787 6.90982 8.25082 6.99832L8.28518 7.00648C9.05103 7.17804 8.99239 8.09594 9.05037 8.71718C9.08271 9.06344 9.1122 9.40685 9.12471 9.75476L9.00204 13.7344C8.80901 15.9273 8.53653 17.6883 7.88234 19.7787L6.67789 23.153C6.89632 23.2543 7.14157 23.3198 7.37163 23.3943L10.8894 24.5777C12.5403 25.2078 14.1574 25.9495 15.6719 26.8616L17.0728 27.7713C18.9625 29.0886 19.8745 31.0821 20.7342 33.1524C20.9927 33.7749 21.2951 34.4069 21.4534 35.0649L22.0169 37.229C23.2776 37.0556 24.5729 37.0033 25.839 37.1722C25.9971 35.8788 26.2845 34.581 26.6306 33.3255C27.3103 30.8596 28.3771 29.0191 30.5447 27.4893C32.4786 26.1244 35.3938 25.0544 37.6289 24.3764L39.1289 23.9898C39.8007 23.8121 40.465 23.6291 41.1563 23.5388L40.0038 19.7974C39.425 17.5975 39.0354 15.3516 38.937 13.0763L38.9378 9.48902C38.9438 9.34826 38.9767 9.21096 38.9847 9.07038L39.005 8.12449C39.0185 7.60994 39.0691 7.20068 39.5987 6.98238L39.6387 6.96612C40.9568 6.79366 40.5971 8.15491 40.5915 8.92769L40.5966 12.9254C40.605 13.1148 40.6364 13.3016 40.6504 13.4903L40.9697 16.418L41.2978 18.0821C41.3186 18.1668 41.3216 18.2561 41.3438 18.3399L41.5314 19.1485C41.6003 19.4116 41.6465 19.6995 41.7337 19.955L42.1699 21.4688C42.2165 21.6671 42.2985 21.858 42.3533 22.0548L42.7253 23.086C43.1113 24.2365 43.8249 25.276 44.0513 26.5586L44.2929 27.8438C44.3833 28.4322 44.4321 29.034 44.4338 29.6287L44.4309 31.8557C44.4267 32.3758 44.3414 32.9387 44.2275 33.4454C43.5074 36.651 40.8734 39.4925 37.788 40.5485C36.6719 40.9306 35.9278 40.9751 34.7714 40.9667C32.7206 40.952 30.6243 40.3836 28.6812 39.7871L26.5159 39.0476C26.3936 39.0088 26.2774 38.942 26.1538 38.9104C24.9486 38.6018 22.7481 38.6777 21.4805 39.0018C21.0946 39.1005 20.72 39.2489 20.3472 39.3876L18.7947 39.946C16.994 40.5409 15.1002 40.9627 13.196 40.9683C12.6744 40.9698 12.1282 41.0043 11.6133 40.9202C9.55371 40.5834 7.63793 39.5786 6.22399 38.0357C3.14179 34.6723 2.99345 29.4418 4.26036 25.2821L5.02357 23.0299C5.10406 22.8112 5.21496 22.6053 5.30004 22.3886L6.34465 19.5696C6.67596 18.5495 6.90143 17.4685 7.07857 16.4119ZM6.21462 24.7638C5.83484 25.736 5.52603 26.7654 5.35226 27.7949C5.15065 28.9893 5.03674 30.2372 5.20292 31.4415L5.30285 32.2771C5.32118 32.3913 5.32573 32.5124 5.35081 32.6247L5.53123 33.3985C5.59948 33.6468 5.66787 33.9229 5.76678 34.1602L5.91903 34.5518C6.10081 35.0092 6.34503 35.483 6.61953 35.8913L6.93518 36.3188C8.52973 38.6013 11.2949 39.5509 13.987 39.3099C15.4917 39.1751 16.9182 38.8284 18.3465 38.3427L20.4225 37.5911C20.0977 35.6394 18.4971 31.583 17.2235 30.0608C16.5369 29.2403 15.0276 28.3523 14.1057 27.8552L10.4749 26.1972L6.21462 24.7638ZM41.7896 25.1133C38.8896 25.612 36.0262 26.4982 33.3773 27.784C32.7524 28.0872 32.0924 28.4006 31.5297 28.8111C29.6667 30.1699 28.702 31.9421 28.1243 34.1485C27.8279 35.2807 27.547 36.4219 27.4356 37.5894C28.015 37.8929 28.849 38.1643 29.4896 38.3399C32.1056 39.2047 35.45 39.9361 38.0058 38.6536C42.3422 36.4776 43.2808 32.5111 42.6833 28.1051C42.5756 27.3101 42.4075 26.5791 42.1231 25.8253C42.035 25.5919 41.9223 25.363 41.8477 25.1256L41.7896 25.1133Z" fill="black"/>
<path d="M31.2116 24.0073C32.0055 23.6207 36.4239 21.8272 37.1248 21.9288L37.1603 21.9345C37.9429 22.0542 38.1521 23.1332 37.4181 23.5056C37.2633 23.5842 37.0764 23.6142 36.9094 23.6596L33.5529 24.7849C29.7793 26.2792 26.9795 28.1969 25.6283 32.2855L24.8695 34.9287C24.807 35.1493 24.7986 35.4066 24.7007 35.6137C24.4741 36.0932 23.7988 36.2521 23.4259 35.8452C23.2508 35.6543 23.1554 35.3832 23.0485 35.1496L21.418 31.6807C20.3755 29.4764 19.7985 28.3845 17.7962 27.0401C16.1352 25.925 14.3306 25.0534 12.47 24.3228L10.9472 23.7663C10.5129 23.6131 9.89491 23.5018 9.77332 22.9715L9.76451 22.9277C9.67563 22.5028 9.88854 22.0699 10.3277 21.9512C10.6355 21.868 11.0058 22.0347 11.2911 22.1374L13.8736 23.1035L16.9353 24.5743L18.537 25.5396C17.677 23.8906 16.9603 22.8028 15.2465 21.8617C13.8795 21.1109 12.7438 20.9374 11.5764 19.7723C10.9167 19.1138 10.8666 18.9027 10.5055 18.144L10.4786 18.0881C10.4401 17.9992 10.4311 17.8955 10.4279 17.7997L10.4263 9.05745C10.4298 8.60838 10.6841 8.41967 11.1008 8.27627C11.292 8.25888 11.4652 8.28626 11.6238 8.40115L11.6483 8.41948C11.7767 8.51126 11.862 8.60384 11.9225 8.75187L11.9328 8.77779C12.0203 8.99346 11.9887 9.27485 11.9882 9.50468L11.9846 16.6001C11.9847 16.9193 11.9098 17.383 12.0505 17.6796L12.0934 17.7778C12.5944 18.8669 13.8427 19.4501 14.8895 19.8688C17.0111 20.7175 19.0016 22.4233 19.8877 24.5743L20.2589 25.6985C20.5711 26.5555 20.1227 26.6008 20.8386 27.4553C21.5948 28.358 22.2399 29.4503 22.6997 30.5276L23.7453 32.7506C23.8515 32.4619 23.9031 32.1556 24.0072 31.8649C24.5913 30.235 25.322 28.7986 26.4059 27.4505C26.5321 27.2936 26.9919 26.7187 27.0308 26.5579L27.1502 26.0593C27.9702 23.1236 30.4563 20.5515 33.0791 19.1127C34.2447 18.4733 34.931 18.23 35.9118 17.2958C36.1544 17.0646 36.0573 17.1175 36.0376 16.7661L36.023 9.50145C36.0231 9.30846 35.9993 9.07024 36.0419 8.88181C36.2011 8.1784 37.2157 8.10804 37.5574 8.72552C37.7276 9.03326 37.6884 9.27434 37.6902 9.62304L37.6959 15.7901C37.6969 16.0527 37.729 16.3054 37.7405 16.5656L37.7513 17.5669C37.7508 17.6569 37.7455 17.7373 37.7015 17.8179L37.6841 17.8481C36.896 19.2469 34.3518 20.2048 33.0339 21.0917C31.848 21.8898 29.9835 23.6173 29.3863 24.9824L31.2116 24.0073Z" fill="black"/>
</svg>
