<svg width="48" height="48" viewBox="0 0 48 48" fill="none" xmlns="http://www.w3.org/2000/svg">
<path d="M44.9747 31.2222C44.9766 33.0065 44.9535 33.9764 44.1587 35.6955C43.0253 38.1471 40.8533 39.9202 38.2522 40.6191C36.9525 40.9684 35.6899 40.9839 34.3557 40.9776L33.35 40.9664C32.9451 40.9562 32.5495 40.8949 32.1462 40.853L31.2873 40.7255C30.1661 40.5215 29.0502 40.2185 28.0078 39.7528C27.1528 39.3708 26.3743 38.7981 25.4915 38.4841C23.6145 37.8165 22.5146 38.4901 21.0048 39.3241C19.6099 40.0948 17.9855 40.504 16.4228 40.751L15.7507 40.8515C15.3677 40.8937 14.9979 40.9613 14.6121 40.9679L13.7123 40.9767C11.0264 40.9911 8.8055 40.8041 6.52892 39.0774C4.60233 37.6162 3.1997 35.2282 3.02677 32.7898C2.99269 32.3093 3.01894 31.8102 3.01872 31.328L3.01892 25.7938C3.02297 24.7032 4.30794 24.2821 5.12605 23.7168C8.22055 21.5787 8.91861 18.989 8.86466 15.3664C8.83991 13.7014 8.55655 12.1784 7.86069 10.6421L7.57198 10.008C7.49516 9.84464 7.40778 9.68372 7.36067 9.5086L7.3512 9.4711C7.21972 8.96892 7.69016 8.68421 8.02733 8.42625C8.56723 8.01319 9.57809 7.24308 10.2355 7.03435C10.9701 7.01044 11.0422 7.36303 11.3595 7.95117L12.1992 9.48699L14.8155 13.6459L21.3507 22.8813L23.5628 26.3817C23.7317 26.6831 23.8185 27.0011 24.0799 27.237L24.5358 25.7937C25.5591 22.8904 27.7449 20.1336 29.5576 17.6838L34.0898 11.3228C34.6268 10.504 35.1458 9.63811 35.582 8.76075L35.9149 8.05027C36.0292 7.78899 36.1048 7.46592 36.333 7.27917C36.9889 6.7425 37.6778 7.41933 38.2248 7.78139C38.7012 8.09677 39.8081 8.66888 40.0429 9.18727L40.0612 9.22838C40.1448 9.40978 40.1704 9.62175 40.1007 9.81324L40.0898 9.84174C39.9587 10.1944 39.755 10.52 39.6313 10.8764C39.0729 12.4858 38.8647 14.6697 39.2108 16.3557L39.3643 17.34C39.4241 17.9112 39.7157 19.1085 39.9377 19.6409L40.0454 19.9223C40.7924 21.6475 42.0221 23.2381 43.5469 24.3497C43.9539 24.6465 44.5682 24.9004 44.8702 25.3138L44.8943 25.3479C45.0471 25.5592 44.9744 25.9397 44.9746 26.1861L44.9747 31.2222ZM10.1038 8.87625L9.08281 9.55346L9.86755 11.586C10.3917 13.0636 10.4113 14.7218 10.4073 16.2723L10.384 17.1451C10.3655 17.507 10.3086 17.8652 10.2566 18.2242L9.9035 19.9922C9.84955 20.2049 9.76527 20.28 9.89206 20.4758C11.0251 22.2259 14.3331 23.7053 16.0527 25.2135C17.4729 26.4592 18.4912 28.27 19.2805 29.9613L20.1654 32.2883C20.1935 32.3905 20.2365 32.4857 20.2634 32.5901L20.399 32.9309L20.8137 32.3223C21.7513 30.9341 22.3223 30.0047 23.0074 28.4708L19.1971 22.5237L14.1222 15.3868C12.6771 13.2763 11.2864 11.1465 10.1038 8.87625ZM37.1983 8.98852C37.0398 9.37978 36.836 9.72975 36.6343 10.0987L33.7712 14.5946L30.4253 19.159C29.3446 20.6588 24.8844 26.6118 25.6319 28.556L26.1101 29.8905C26.4774 30.7998 27.1241 32.0236 27.6934 32.8217C27.9489 31.9933 28.3253 31.1977 28.705 30.4193C30.9482 25.8204 33.0023 23.8091 37.1941 21.1867C37.3702 21.0765 38.4948 20.427 38.524 20.3678C38.5251 20.3658 38.4915 20.2602 38.4888 20.251C38.1547 19.1464 37.8908 18.0393 37.7113 16.8987L37.5425 15.3713C37.4045 14.3798 37.4869 13.1542 37.6731 12.1514C37.7935 11.5032 37.9805 10.8653 38.2066 10.2466C38.2541 10.1169 38.3712 9.89442 38.3826 9.76627C38.1824 9.6143 37.43 9.07861 37.1983 8.98852ZM39.2268 21.782L38.1471 22.4367C34.2825 24.7632 32.0667 26.9145 30.1489 31.0387L29.2994 32.9922C29.1905 33.2696 29.0701 33.5561 28.9828 33.8406L28.9722 33.8842C29.8934 34.5627 32.3032 35.2136 33.3572 35.2564C34.336 35.3262 35.2715 35.4001 36.2461 35.2352L37.1601 35.038C40.0376 34.276 42.625 32.0339 43.2824 29.0627L43.3975 28.4808C43.457 28.0819 43.5035 27.7243 43.5044 27.319L43.4991 26.1541C43.3891 26.0372 43.0255 25.8721 42.863 25.7641C41.816 25.0681 40.8669 24.1103 40.115 23.105L39.5551 22.3208C39.4415 22.1444 39.3499 21.9513 39.2268 21.782ZM9.03322 21.8428L8.33605 22.8113C7.82722 23.4731 7.21747 24.0949 6.56051 24.6099L5.95419 25.0484C5.75755 25.178 4.58313 25.8722 4.53633 25.9783C4.32683 26.4531 4.5831 28.9215 4.82853 29.5666L5.25317 30.653C5.32728 30.8449 5.4628 31.0384 5.56639 31.2173C7.11589 33.8916 10.1641 35.347 13.1872 35.3453C13.4821 35.3452 13.7732 35.3538 14.0646 35.3023L14.3955 35.2664C15.4869 35.1603 16.618 34.8408 17.6562 34.5076C18.0698 34.3748 18.5066 34.1786 18.9291 34.0903C18.1826 31.6249 16.9348 28.1318 14.9825 26.3693C14.5395 25.9695 14.0209 25.6395 13.5234 25.3123L12.2477 24.479C11.1755 23.786 9.83628 22.8557 9.03322 21.8428ZM24.2639 29.5198L24.2556 29.5448C24.1679 29.7998 24.0286 30.0538 23.9045 30.2932L23.3442 31.318C23.2215 31.5203 23.0025 31.9493 22.8618 32.1067L24.0176 32.1061L25.4414 32.0898C25.2105 31.5363 24.8781 31.0193 24.6411 30.4656L24.3449 29.7295C24.321 29.67 24.3002 29.5665 24.2639 29.5198ZM4.5743 32.4856C4.60314 33.1395 4.76848 33.8399 4.99756 34.4497C6.09364 37.3675 8.46894 38.9677 11.4621 39.3757C11.9754 39.4456 12.5459 39.4304 13.0642 39.4291C15.1948 39.4234 17.2507 39.1642 19.2657 38.4166C20.3538 38.0129 21.2493 37.2393 22.3813 36.9139C23.8355 36.4959 25.4515 36.6363 26.7949 37.3403C27.6062 37.7654 28.3567 38.2813 29.23 38.5794C31.3878 39.3158 33.939 39.5985 36.2268 39.3926C39.3794 39.1088 41.9508 37.2758 43.0334 34.3131C43.2179 33.7445 43.3838 33.1248 43.4212 32.5265C43.1397 32.8827 42.8738 33.2536 42.5595 33.5828C38.9195 37.3938 33.5517 37.6716 28.9169 35.6439C27.532 35.038 27.2404 34.8339 26.386 33.6831L21.8731 33.7009C20.8806 34.8777 20.4761 35.193 18.9961 35.7193L17.1053 36.2975C13.0962 37.3396 9.44905 37.0908 6.17548 34.3189C5.57459 33.8101 4.97019 33.1702 4.5743 32.4856Z" fill="black"/>
</svg>
