<svg width="48" height="48" viewBox="0 0 48 48" fill="none" xmlns="http://www.w3.org/2000/svg">
<path d="M9.75724 19.1656C9.94741 18.5492 10.0461 17.9085 10.1499 17.2737C10.3319 16.1596 10.1165 16.1521 9.47351 15.2867C8.72637 14.2811 7.96708 13.281 7.13697 12.3415L5.79401 10.8406C5.11024 10.0963 4.20192 9.34841 4.82524 8.2296C5.4904 7.03569 7.21746 7.16708 8.2969 7.64141C9.43582 8.14185 10.5255 9.39205 10.9641 10.5758L11.1961 11.141C11.3666 11.5464 11.5 11.9983 11.5877 12.4299L11.7501 13.4803C11.8114 13.8469 11.811 14.246 11.8127 14.6174C11.8316 18.6914 10.4958 22.6142 8.13054 25.9302C11.9578 25.4758 14.5536 26.9985 17.4938 29.1563L21.0849 32.0575C21.654 31.898 22.2437 31.7939 22.7434 31.4512C22.9095 31.3372 23.0277 31.1575 23.1985 31.0545C23.8087 30.6866 24.0654 31.2738 24.4939 31.5374C24.8793 31.7743 25.2911 31.9148 25.7313 32.0087C26.0331 32.073 25.9706 32.0407 26.1983 31.8281L27.1628 30.9526C30.6575 27.875 34.9443 24.9722 39.8225 26.0092C39.8198 25.9648 38.6054 23.914 38.4677 23.6594C37.5389 21.9431 36.8339 20.051 36.4931 18.1292L36.3152 17.0087C36.1374 15.6545 36.1109 14.2292 36.3198 12.8784C36.7366 10.1824 38.3763 7.33925 41.4011 7.33175C41.6959 7.32838 41.9924 7.30335 42.266 7.43047L42.5749 7.58619C42.906 7.80008 43.2167 8.16247 43.3032 8.55308L43.3518 8.72863C43.5077 9.54842 42.921 10.0372 42.4401 10.5771L41.0058 12.1964L38.5001 15.3684C38.3072 15.6316 37.8187 16.1097 37.7585 16.4318C37.6984 16.753 37.8907 17.757 37.9701 18.1057L38.1402 18.8405C38.1486 18.8858 38.1558 18.925 38.1706 18.9688L38.4521 19.9069C38.921 21.313 39.4944 22.4979 40.2211 23.7983L41.3572 25.7897C41.4747 26.0274 41.5856 26.3409 41.7486 26.5454C41.9813 26.8373 42.8234 26.8662 43.1142 27.434L43.1259 27.4573C43.266 27.7023 43.2575 28.01 43.3134 28.2776C43.8871 31.024 44.1975 32.7374 42.7491 35.4378C42.1437 36.5666 41.2592 37.6764 40.1693 38.3743C39.4134 38.8584 37.618 39.7129 36.7737 39.9663C35.4198 40.3727 33.9097 40.3811 32.5315 40.1023C31.9485 39.9843 31.3824 39.8081 30.7951 39.7046L29.0706 39.4518C27.2047 39.1491 25.7571 38.7211 24.1025 37.8301C22.4132 38.5878 20.6067 39.1433 18.7766 39.4339C18.1399 39.535 17.4851 39.5415 16.8539 39.6533L13.1956 40.3585C12.9785 40.4053 12.7432 40.4436 12.5393 40.5332C12.217 40.6749 10.7339 40.606 10.409 40.5306L9.52432 40.3586C5.71915 39.4343 2.83463 36.2511 2.83203 32.286L2.83892 31.2705L3.15688 28.0153C3.25262 27.1298 3.7109 27.1433 4.46333 26.8614L5.59708 26.4158C5.8983 26.2948 6.00823 26.2718 6.22174 26.0122L6.6529 25.4751C8.07101 23.5927 9.10802 21.4264 9.75724 19.1656ZM6.71632 8.80002C6.06026 8.80616 5.8503 8.77245 6.40272 9.35581L9.74022 13.1916C9.8508 13.3259 9.94249 13.468 10.062 13.5959L10.3362 13.9203C10.2617 13.4771 10.2148 13.0331 10.1135 12.5937C9.71702 10.8735 8.70396 8.8581 6.71632 8.80002ZM40.9812 8.82017C38.7527 9.18702 37.7963 11.9426 37.6733 13.9499C37.8302 13.8163 37.9784 13.5918 38.0958 13.4197C38.413 12.9687 38.7813 12.5503 39.1373 12.1297L41.5385 9.39983C41.6735 9.25255 41.8142 9.11478 41.9164 8.94167C41.7919 8.7336 41.1759 8.79777 40.9812 8.82017ZM37.5671 27.3477C34.1044 27.3537 30.995 29.59 28.4759 31.7601L27.0465 33.0639C27.641 35.2677 29.5176 37.1886 31.542 38.1498L32.2322 38.4388C34.6565 39.2759 36.4105 38.6283 38.5416 37.5977C40.9312 36.4421 42.6067 33.5617 42.3435 30.917C42.2527 30.005 41.9709 29.106 41.8014 28.2064C40.3392 27.5384 39.1307 27.3481 37.5671 27.3477ZM8.98582 27.3543C7.48324 27.4644 5.99496 27.8738 4.58088 28.3753C4.36738 29.7845 4.11015 32.1545 4.40153 33.5849C5.03946 36.7164 8.22879 39.0437 11.3662 39.1117C11.6128 39.1171 11.9223 39.1406 12.1626 39.0873L14.792 38.561C17.2816 38.0881 19.2705 36.0744 19.9106 33.6543C19.9584 33.4733 20.0198 33.2735 20.0346 33.0866L17.0919 30.7024C14.6524 28.8532 12.1969 27.1741 8.98582 27.3543ZM23.5686 32.6476C22.9503 33.0233 22.2155 33.4082 21.485 33.4849C21.0711 35.178 20.3911 36.6322 19.1206 37.843C19.9842 37.6753 20.8563 37.4731 21.6917 37.1952L23.3676 36.5072C23.6079 36.396 23.8183 36.2842 24.0885 36.2684L24.1137 36.269C24.49 36.2808 24.7875 36.5289 25.1067 36.7023C25.8997 37.133 27.5109 37.7402 28.4403 37.849L28.4205 37.8327C27.2238 36.8198 26.2627 35.3501 25.7677 33.8764C25.6289 33.4633 25.7745 33.5326 25.3524 33.433C24.705 33.2802 24.1303 33.001 23.5686 32.6476Z" fill="black"/>
<path d="M33.6978 37.5519C32.5376 37.4282 32.5453 36.2089 33.4172 36.0703L33.4572 36.0645C33.7118 36.0237 33.9854 36.0897 34.2462 36.0835C36.8216 36.0223 39.6009 34.0118 40.0178 31.4108C40.1008 30.893 40.0656 30.6099 40.6253 30.3779C41.5785 30.3449 41.5548 31.2011 41.4071 31.9233C40.7924 34.9302 37.7716 37.2498 34.7684 37.5533C34.4167 37.5888 34.0508 37.5617 33.6978 37.5519Z" fill="black"/>
<path d="M17.3671 35.1936C16.6142 36.9569 14.8559 37.3518 13.1251 37.5976L12.0009 37.7515C8.20481 38.0918 5.36915 35.1475 5.36427 31.4757C5.36362 30.9704 5.38012 30.6997 5.91388 30.4712C6.2811 30.4593 6.57224 30.5124 6.74212 30.8862L6.75356 30.914C6.86362 31.1419 6.80521 31.5108 6.8167 31.764C6.86146 32.7513 7.24907 33.7569 7.83454 34.5441C9.18618 36.3617 10.8511 36.3971 12.8884 36.1229C14.0536 35.9661 15.9263 35.7168 16.12 34.2447L16.1492 34.0319C16.2091 33.6463 16.6327 33.3557 17.0139 33.4383L17.0509 33.4468C17.8406 33.6249 17.5816 34.6659 17.3671 35.1936Z" fill="black"/>
</svg>
