<svg width="48" height="48" viewBox="0 0 48 48" fill="none" xmlns="http://www.w3.org/2000/svg">
<path d="M31.9561 10.851C33.6954 11.9571 34.966 14.959 35.3266 17.0001L35.5737 18.6256C35.6016 18.8269 35.5988 19.0328 35.6321 19.2341C36.1581 22.4027 39.7101 23.2635 40.2989 25.8661L40.4163 26.3781C40.5467 26.8567 40.4604 27.4809 40.4206 27.9664L40.3583 28.8397C40.3204 29.2037 40.2458 29.5836 40.1787 29.9444L40.0434 30.5205C39.9727 30.9032 39.8053 31.2891 39.6616 31.6477C37.9887 35.8235 33.6743 38.5949 29.1213 37.5002C28.3773 37.3214 27.7232 36.9888 27.0149 36.7168C25.9463 36.3066 25.1146 36.2601 24.0045 36.2598L22.9009 36.2682C21.3414 36.3512 20.6271 36.9431 19.3065 37.3756C16.4873 38.2991 13.1609 37.3728 10.9651 35.4632C8.83948 33.6147 7.81587 30.9557 7.58304 28.1902C7.54517 27.7404 7.49337 27.2952 7.51081 26.8421C7.59279 24.7096 9.29145 23.6039 10.5713 22.2439C11.4642 21.2953 11.9189 20.5506 12.149 19.2978L12.3997 17.9531C12.9197 15.3506 14.5106 10.5748 17.702 10.2516C19.0408 10.1764 19.9406 11.0361 19.9159 12.3445C19.871 14.7226 15.454 19.7644 13.9805 21.4773L13.4722 22.0745C13.0562 22.5902 12.595 23.1071 11.9082 23.2441C11.782 23.2693 11.6494 23.2591 11.5266 23.2912C10.5379 24.2361 9.22095 25.2503 8.92142 26.6538C8.88888 26.8063 8.85124 27.5249 8.94481 27.6679C9.50712 27.4612 9.82423 26.7779 10.2066 26.3467C11.9606 24.3683 14.4728 23.7159 16.9842 24.2955C17.5775 24.4325 18.1303 24.6801 18.7306 24.7859C20.2472 25.0533 21.6429 25.9036 22.6134 27.0973C22.851 27.3896 23.0253 27.7005 23.2375 28.0062C23.396 28.02 24.6829 28.045 24.752 28.0049C24.7806 27.9883 24.8577 27.8458 24.8791 27.8133C26.3874 25.5278 27.8247 25.1197 30.2555 24.514C30.9045 24.3523 31.5326 24.1651 32.2016 24.0959C34.2493 23.8838 36.207 24.6973 37.6336 26.1518C38.1118 26.6394 38.4057 27.4363 39.0511 27.7051C39.2628 26.0423 38.3826 25.1021 37.2195 24.0264C36.9457 23.7732 36.6966 23.5081 36.402 23.277C35.5633 23.2825 34.9149 22.5115 34.4249 21.9257L31.9997 19.1623C30.8285 17.7479 29.7159 16.186 28.8377 14.5702C28.279 13.5425 27.7512 12.4604 28.3133 11.3C28.984 9.91527 30.8313 10.1028 31.9561 10.851ZM17.701 11.6801C15.8026 11.9676 14.3523 15.5226 13.9722 17.2851L13.5177 19.8429L13.9157 19.3824C14.8438 18.2841 18.6392 13.6971 18.5159 12.1984L18.4958 12.0773C18.4242 11.666 18.0477 11.6416 17.701 11.6801ZM30.0255 11.6784C29.0092 11.865 29.6076 13.008 29.9087 13.5835C30.4054 14.5327 30.9896 15.4096 31.61 16.2816L32.8618 17.9643C33.2154 18.4036 33.6379 18.8047 33.9689 19.2603C34.0576 19.3535 34.154 19.4445 34.23 19.5484C34.1198 18.4453 34.0778 17.2913 33.703 16.2352C33.1528 14.6853 31.9021 11.5781 30.0255 11.6784ZM14.8302 25.509C13.3472 25.713 12.0849 26.299 11.0992 27.4719C10.36 28.3514 10.4619 28.758 9.13062 29.1214C9.17445 29.5769 9.25788 30.03 9.40554 30.4635L9.85053 31.6575C10.673 33.8338 13.3531 35.8418 15.6096 36.1869C16.8197 36.372 18.1701 36.328 19.3108 35.871C19.8356 35.6608 20.3314 35.3866 20.8744 35.2213C22.9451 34.5906 25.6346 34.6259 27.6386 35.4503C28.9521 35.9907 29.6031 36.2821 31.0634 36.2737C31.9972 36.2684 32.7907 36.2056 33.6796 35.8369L34.7031 35.3627C36.9662 34.1179 38.5542 31.7014 38.8631 29.1444C37.4623 28.6972 37.4333 28.0074 36.5826 27.1109C34.606 25.028 32.0745 25.1781 29.6841 26.4096C28.6144 26.9608 28.4445 27.4615 27.6755 28.15C25.7105 29.9092 21.7796 29.9469 20.0334 27.8478C19.8591 27.6382 19.7253 27.4228 19.5245 27.2328C18.3362 26.1085 16.4661 25.3965 14.8302 25.509Z" fill="black"/>
<path d="M16.26 34.9669C15.3277 34.874 15.0612 33.5826 16.3916 33.5795C16.7663 33.5787 17.1784 33.6131 17.5455 33.538C18.9134 33.2584 20.1389 32.4071 20.6712 31.0902C20.8377 30.6782 20.9322 30.3574 21.4234 30.2633C21.8701 30.2172 22.2249 30.6333 22.1712 31.0666C22.1402 31.3176 22.035 31.5619 21.9291 31.789C20.9363 33.9185 18.5928 35.2181 16.26 34.9669Z" fill="black"/>
<path d="M31.9884 34.9659C31.9178 34.9604 31.8042 34.9788 31.7291 34.9789L31.0711 34.9755C29.1103 34.9563 27.4065 33.9549 26.3488 32.3186C25.9721 31.736 25.4191 30.4554 26.4742 30.2612C27.0314 30.2271 27.1781 30.7911 27.3571 31.1987C28.0914 32.8709 29.694 33.5756 31.4178 33.5792C31.9359 33.5802 32.7332 33.6521 32.5493 34.4371L32.5397 34.4767C32.4765 34.7468 32.2392 34.8896 31.9884 34.9659Z" fill="black"/>
<path d="M24.4394 33.5058C23.8463 33.4619 23.6965 33.0566 23.5407 32.5305C23.3421 31.8597 23.0071 30.9582 23.9907 30.7803C24.6811 30.8444 24.6652 31.5492 24.8655 32.051C25.0798 32.5879 25.3725 33.35 24.4394 33.5058Z" fill="black"/>
</svg>
