<svg width="48" height="48" viewBox="0 0 48 48" fill="none" xmlns="http://www.w3.org/2000/svg">
<path d="M42.2294 24.1332L43.594 27.0003C44.2932 28.5863 44.5338 30.6018 44.3572 32.3202L44.2249 33.5042C43.9186 35.4284 43.0031 37.2531 41.8456 38.7989C40.2247 40.9637 38.3937 41.7464 35.7804 41.7463C33.0093 41.7461 30.0142 40.8592 27.8634 39.0522C27.6562 38.8781 27.4419 38.607 27.2084 38.4773C26.152 37.8905 22.7464 38.0112 21.4688 38.2954C20.8757 38.4273 20.8977 38.4082 20.4441 38.8011C18.3512 40.6143 15.6243 41.5957 12.8673 41.7322C10.2981 41.8594 8.31782 41.3821 6.63843 39.4191C4.74388 37.2045 3.58804 34.4604 3.58352 31.5142C3.58262 30.9217 3.60569 30.3287 3.68819 29.7406C4.08953 26.8792 5.37145 25.3693 6.34317 22.8211C6.48102 22.4596 6.56732 22.0854 6.71788 21.7268C6.92067 21.2437 7.19592 20.7873 7.40587 20.304C8.65382 17.4312 9.31678 13.9547 9.55574 10.8479L9.58542 10.1136C9.60515 9.80639 9.6449 9.51136 9.64654 9.20184L9.65006 8.1938C9.65451 7.11839 10.0479 6.40364 11.2416 6.21839L12.7206 6.21173C13.7177 6.21155 14.7107 6.39567 14.9917 7.57828C15.1136 8.09105 15.0289 8.43544 15.0116 8.94586C14.9334 11.2628 14.6308 13.583 14.1784 15.8551L13.1181 20.4648C12.8089 21.7028 12.8892 21.4533 13.5874 22.5618L14.7473 24.4853C14.918 24.7575 14.885 24.7247 15.2051 24.7492C18.7296 25.0182 21.3264 27.9842 22.4638 31.1386C22.5885 31.4845 22.7078 31.8465 22.7705 32.2086L22.8845 32.7165C22.9362 32.8946 22.9389 33.0863 22.9752 33.2692C23.1178 33.3293 24.8381 33.2829 25.0186 33.2677C25.6127 29.6695 27.8839 26.6647 31.3845 25.4293L31.8819 25.2542C32.1269 25.1753 32.1095 25.1338 32.2483 24.9066L32.8886 23.8468C33.108 23.5174 33.3519 23.2061 33.6332 22.927C34.2006 22.3638 35.0264 21.9844 35.4156 21.2699C35.6714 20.8002 35.5748 20.5516 35.4479 20.0696L34.5352 16.0786L33.8763 11.4261C33.8354 10.9335 33.767 10.3668 33.7551 9.88313L33.737 8.17303C33.7297 6.86789 34.4436 6.21839 35.6754 6.21272L36.5885 6.21094C37.7132 6.21094 38.5446 6.27422 39.0014 7.55892C39.1882 8.08448 39.0573 9.40458 39.1031 10.0316L39.1913 11.473L39.6598 15.3228C39.8303 16.4134 40.0589 17.568 40.3477 18.6285L40.5461 19.4535C40.6485 19.8196 40.7364 20.193 40.8374 20.5611L41.229 21.7738C41.3234 22.1048 41.5818 22.6715 41.7346 23.0175L42.2294 24.1332ZM16.2895 26.908L16.3163 26.9424C16.6011 27.3029 16.9402 27.613 17.2182 27.9839C18.4787 29.6655 19.5988 31.8243 20.275 33.8324L20.4857 34.43C20.5615 34.6404 20.6116 34.848 20.6672 35.0628L20.6757 35.1125C20.6901 35.1991 20.7259 35.2787 20.7469 35.3637L20.9149 34.9874C21.2307 34.2901 21.2493 34.0278 21.1172 33.2699C20.6648 30.6744 19.1557 28.1763 16.6917 27.0609L16.2895 26.908ZM11.4386 8.0415C11.3668 8.79858 11.3827 9.7103 11.3456 10.512L11.3007 11.6318C11.118 13.8571 10.591 16.6783 9.91373 18.762L8.83992 21.6154L10.785 22.4618L11.0104 22.5818C11.0043 21.3344 11.1365 20.9171 11.4569 19.6797L12.7446 13.6292C12.894 12.7765 12.9779 11.9013 13.0574 11.0394L13.159 9.88102C13.2157 9.28148 13.1775 8.56786 13.2683 8.04117L11.4386 8.0415ZM35.513 8.04863L35.5836 10.1622C35.7232 12.3262 36.035 14.4807 36.4822 16.6009L37.3428 20.1737C37.5916 20.9709 37.1945 21.893 36.84 22.6026L38.1503 22.023L39.2479 21.5954L38.3321 17.8892C37.9821 16.2721 37.693 14.6436 37.5236 12.9964L37.3882 11.1077C37.3731 10.8871 37.3267 10.6757 37.3209 10.4536L37.3074 8.76563C37.3045 8.53575 37.3268 8.26627 37.2777 8.04239L35.513 8.04863ZM8.10782 23.3042L7.06321 25.6532C5.95213 28.0449 5.12723 29.6147 5.4367 32.41C5.51446 33.1123 5.67998 33.8936 5.90657 34.5589L6.03524 34.9043C6.91504 37.1596 8.38682 39.4103 10.946 39.831C12.5662 40.0973 14.4065 39.8169 15.9327 39.2759C17.4235 38.7334 18.0531 38.3063 19.2491 37.3983C19.2219 36.6384 19.0134 35.85 18.7806 35.1296L18.4209 34.0552C17.8191 32.4708 17.0113 30.8422 16.015 29.473C15.1131 28.2337 13.8635 27.3918 12.724 26.3992L11.4429 25.1725C10.4987 24.3022 9.31823 23.7067 8.10782 23.3042ZM39.9234 23.3247C39.08 23.6574 38.2862 23.9932 37.5209 24.4878C36.6587 25.045 35.9921 25.8067 35.2237 26.473L34.0596 27.3871C32.42 28.7348 31.8739 29.4231 30.8999 31.2722L30.1081 32.8623L29.5048 34.43C29.1537 35.4147 28.9077 36.3524 28.7802 37.3882C29.2833 38.0802 31.36 39.0756 32.1277 39.3084C34.1766 39.985 36.6978 40.2519 38.6723 39.2651C39.3759 38.9136 39.9264 38.3026 40.3893 37.6801C43.0632 34.0846 43.2289 30.1271 41.2662 26.2557L39.9234 23.3247ZM31.0302 27.5745C29.004 28.7074 27.6242 30.4478 26.9979 32.6655C26.8185 33.3007 26.6624 34.0121 26.9415 34.6408L27.1185 35.0532L27.2761 35.3221C27.5639 34.2683 27.9242 33.2356 28.3603 32.2328L28.8457 31.2162C29.3526 30.1596 29.8971 29.0748 30.6182 28.1437C30.7635 27.956 30.9484 27.7861 31.0677 27.5815L31.0302 27.5745ZM22.8526 35.1312C22.7112 35.5146 22.6083 35.9229 22.3965 36.2862L23.0865 36.2116C23.7592 36.1642 24.524 36.1691 25.1898 36.2517L25.6429 36.2522C25.4673 36.0038 25.3292 35.6268 25.2498 35.3353L25.1939 35.1452C24.9967 35.107 24.7499 35.1338 24.5477 35.1334L22.8526 35.1312Z" fill="black"/>
<path d="M8.51552 36.138C7.79088 36.2621 7.50954 35.6314 7.26152 35.0729C6.01741 32.2711 6.03387 30.0903 7.46988 27.4634L7.93029 26.6673C8.19574 26.2113 8.36951 25.847 8.89849 25.692C9.51682 25.6715 10.0542 26.1474 9.94615 26.8095L9.93935 26.8479C9.88591 27.1732 9.6221 27.4711 9.44426 27.7426L8.94916 28.5527C7.94379 30.3842 7.97252 31.7315 8.63599 33.6264C8.72309 33.8751 8.8032 34.137 8.92245 34.3725L9.23998 35.0621C9.41599 35.577 8.95981 36.0031 8.51552 36.138Z" fill="black"/>
<path d="M36.8618 38.9331C36.0256 38.944 35.474 38.2333 35.9085 37.5282C36.1273 37.173 36.3961 37.1549 36.7598 37.0642C37.9105 36.7771 38.8366 35.7721 39.3816 34.7636L39.6822 34.1664C39.8986 33.6862 40.0117 33.3729 40.5843 33.2383C40.9628 33.2044 41.4224 33.4703 41.5194 33.8493L41.5738 34.0315C41.6884 34.7017 40.8931 35.9674 40.5142 36.4783C39.6566 37.6348 38.3232 38.7189 36.8618 38.9331Z" fill="black"/>
</svg>
