<svg width="48" height="48" viewBox="0 0 48 48" fill="none" xmlns="http://www.w3.org/2000/svg">
<path d="M43.6822 26.1917L43.6834 27.9379C43.6925 33.3872 40.2419 37.4258 34.8514 38.5029L33.7556 38.6756C32.8681 38.7741 31.8475 38.8798 30.9572 38.743L30.4424 38.6882C29.2052 38.5222 28.2487 38.079 27.0705 37.747C24.8773 37.129 23.056 37.237 20.8803 37.7756C20.1252 37.9625 19.4192 38.3333 18.6905 38.6023C18.1597 38.7983 17.6411 38.8951 17.0968 39.0152L17.0513 39.0254C16.222 39.206 14.4906 39.0029 13.6795 38.8657C9.01053 38.0758 5.30769 34.6488 4.44978 29.9547C4.41468 29.7627 4.40027 29.5692 4.358 29.3779L4.34989 29.3422C4.29798 29.0988 4.31917 28.8204 4.31863 28.5717L4.31589 25.8351C4.3161 24.7156 4.19836 24.7895 5.17189 24.0893L5.78253 23.6133C7.57264 22.0992 8.93328 19.8084 9.52053 17.5466C9.77365 16.5717 9.91751 15.5579 10.0954 14.5668C10.2096 13.9302 10.2352 13.2161 10.5679 12.6437C10.883 12.1013 10.7847 12.4152 10.7855 11.6945L10.7835 10.3164C10.7828 10.0614 10.7202 9.58891 10.8597 9.37807L10.8772 9.35201C11.0207 9.12251 11.1725 9.01891 11.4268 8.93374C12.3392 8.89418 12.4534 9.43146 12.4544 10.153L12.4561 11.4054C12.4575 11.8586 12.4881 12.1832 12.563 12.6215L13.0762 15.2583C13.1323 15.4959 13.1549 15.765 13.234 15.9943L13.9123 18.2585C14.6994 20.4092 15.7949 22.0691 17.4525 23.6096L18.9884 24.956C20.0995 26.0299 21.1217 27.1931 22.0869 28.3983L22.997 29.592C23.1061 29.7427 23.2633 29.9224 23.3331 30.094C23.5098 30.5279 23.9508 30.3118 24.4523 30.3443C25.4684 28.6616 27.3177 26.5768 28.7056 25.2372L30.8727 23.2761C33.3766 20.9015 34.5078 17.6678 35.1263 14.3559L35.4113 12.809C35.4945 12.3332 35.5325 11.8861 35.5328 11.4024L35.5319 10.0987C35.5315 9.93911 35.5002 9.67554 35.5531 9.52708C35.8443 8.71015 37.0205 8.74821 37.18 9.55286C37.2244 9.77716 37.1969 10.0464 37.1972 10.2765L37.1962 11.8261C37.196 12.6249 37.178 12.1419 37.4693 12.7023C37.7508 13.2438 37.7779 13.9138 37.8839 14.5033L38.4376 17.4145C38.5303 17.7751 38.6216 18.1511 38.7576 18.4977L39.1066 19.3451C40.1451 21.5563 41.1127 22.7839 43.0047 24.2281C43.5373 24.6347 43.6721 24.7291 43.6775 25.3896L43.6822 26.1917ZM11.546 16.2533C11.4769 16.5156 11.4483 16.7793 11.3948 17.0443L11.091 18.2403C10.3585 20.8383 8.7643 23.4161 6.66092 25.1037L6.1947 25.4575C6.14351 25.4963 6.04498 25.5568 6.01105 25.6105C5.98095 25.6581 6.00528 27.5897 6.01737 27.7906C6.07573 27.8768 6.65342 28.3595 6.75378 28.4434C8.26016 29.7023 10.4955 30.8339 12.3865 31.218L13.5705 31.4019C14.0952 31.4621 14.5964 31.5056 15.125 31.5067L16.0726 31.5072C16.7845 31.5074 17.3307 31.4866 18.031 31.395L19.5123 31.1563C19.6688 31.1247 19.8248 31.1098 19.9792 31.0666L21.6452 30.6423C21.4992 30.4047 21.3205 30.1942 21.1515 29.9728L19.5538 28.0447C18.8951 27.2785 18.1867 26.5061 17.4367 25.8273L16.2613 24.834C14.208 22.9194 12.8915 20.7486 12.0311 18.0653L11.6549 16.7107C11.6165 16.5605 11.5932 16.4004 11.546 16.2533ZM36.4561 16.2154L36.1451 17.4913C35.3098 20.3378 33.868 22.9422 31.6286 24.9061L30.4224 25.9564C28.9159 27.3855 27.5241 28.9582 26.3036 30.6382C27.473 31.0236 28.7271 31.2752 29.9529 31.4008L30.5081 31.4457C30.9618 31.5026 31.3861 31.5074 31.8455 31.5072C34.8145 31.5202 37.7724 30.7433 40.2762 29.1223C40.6435 28.8845 41.7469 28.126 41.9796 27.8004L41.9981 26.0148C41.9976 25.6009 42.0845 25.6562 41.7466 25.4137L41.2049 25.0018C39.112 23.3402 37.498 20.4842 36.8125 17.9535C36.6569 17.3793 36.6063 16.786 36.4561 16.2154ZM6.26417 30.2231C6.23914 30.6005 6.68384 31.6023 6.84552 31.9458C8.396 35.2397 11.7196 37.1045 15.256 37.3421C16.1881 37.4047 16.8568 37.4441 17.782 37.1103C18.7524 36.7601 19.7082 36.3267 20.7098 36.0733L22.324 35.7441C22.664 35.6911 23.0049 35.6444 23.3487 35.6418L24.087 35.6391C24.6128 35.6388 24.8553 35.648 25.3592 35.7179L26.246 35.8481C27.5921 36.1046 28.8089 36.7578 30.1404 37.0331C33.6688 37.7629 38.081 36.3942 40.2389 33.4068C41.0702 32.2532 41.3126 31.4903 41.7275 30.2097C38.8652 32.3255 35.4051 33.1616 31.9037 33.1646C31.3335 33.1651 30.741 33.1978 30.1754 33.1248L27.4824 32.6842L25.8232 32.2711C23.979 31.7978 23.3995 31.9609 21.5693 32.4223L19.4566 32.8836C18.7339 33.0097 18.0068 33.1197 17.2732 33.1572L14.1743 33.1533C11.5246 33.0184 9.10119 32.0711 6.89187 30.6556C6.69167 30.5273 6.48036 30.3169 6.26417 30.2231Z" fill="black"/>
<path d="M24.4945 34.6216C23.5635 34.4761 22.5822 34.9634 22.2896 34.9069C21.7694 34.8064 21.3283 34.5092 21.4579 33.9192L21.4648 33.8904C21.6341 33.1654 22.9534 32.9613 23.5702 32.9159C24.3033 32.8724 26.3999 32.9883 26.5338 33.9493L26.5384 33.9841C26.5888 34.3297 26.4814 34.6165 26.1581 34.788L26.1327 34.8009C25.5878 35.088 25.0508 34.7088 24.4945 34.6216Z" fill="black"/>
</svg>
