<svg width="48" height="48" viewBox="0 0 48 48" fill="none" xmlns="http://www.w3.org/2000/svg">
<path d="M44.2175 23.4978L44.6184 24.2106C45.1001 25.1414 45.92 26.9212 46.1142 27.9763L46.3216 28.9123C46.3758 29.0808 46.3775 29.2527 46.4068 29.4253C46.8368 31.9559 46.4116 34.4997 45.4018 36.8516L44.9282 37.8672C44.0743 39.8076 43.8453 41.2099 43.8762 43.3527C43.6035 43.8052 43.2208 43.8029 42.7508 43.8889C42.2019 43.9894 41.6451 44.0957 41.0905 44.1552L39.0002 44.3632C38.8508 44.3754 38.7067 44.4084 38.5565 44.4167L35.4119 44.4188C33.4981 44.3271 31.4823 44.0329 29.6417 43.4784L28.2808 43.0315C27.0752 42.5806 25.8864 42.0447 24.5742 42.0035C22.4629 41.9372 21.3658 42.4673 19.4543 43.1548L17.9571 43.6164C15.0701 44.4604 12.1398 44.6541 9.16469 44.3598L5.37701 43.8737C3.88715 43.6553 4.08939 43.3501 4.05327 41.9268C4.02161 40.679 3.74258 39.4474 3.23719 38.3061L2.40236 36.5304C0.823427 32.7962 1.21791 28.7418 2.90159 25.1245C3.28916 24.2919 3.76999 23.5157 4.19524 22.7043L4.89129 21.2563C5.10293 20.7784 5.25401 20.1708 5.74535 19.8961C5.78974 19.8713 5.97269 19.8206 5.98863 19.7983C6.00265 19.7786 6.02651 19.0574 6.03396 18.9762L6.35088 15.3383L6.8748 8.22753L7.01946 6.71431C7.05405 6.31676 7.03019 5.91528 7.08738 5.51904C7.25674 4.34577 8.15965 3.53309 9.32369 3.45527C10.6595 3.33132 11.6918 4.50969 11.7033 5.81201C11.7095 6.50693 11.59 7.20326 11.5276 7.89439L11.1741 11.5713C11.1408 11.8091 11.1375 12.0536 11.1105 12.2925L10.2764 20.8446C10.2303 21.3148 10.1947 21.131 10.774 21.4342C12.5534 22.3655 14.2998 23.4826 15.8267 24.7896L16.3623 25.2374C17.3369 26.1265 18.3023 27.1769 19.0817 28.2417L19.6603 29.1182C20.3631 30.1989 20.9826 31.3381 21.4204 32.5542L21.9424 34.1722C22.0813 34.1942 22.2318 34.1851 22.3724 34.1865L26.0616 34.1987L26.2759 33.3979C28.178 27.4634 32.5146 23.874 37.8115 21.1426C37.6771 20.4091 37.6449 19.6422 37.5697 18.9001L36.3709 6.9455C36.3075 6.39204 36.1846 5.8137 36.3132 5.26053C36.8578 2.9168 40.275 2.95656 40.7789 5.03862L40.8015 5.12079C40.8612 5.28964 40.8659 5.45389 40.8855 5.6292L42.0727 19.748C42.4334 19.8957 42.6139 20.1365 42.7689 20.4844L44.2175 23.4978ZM9.32627 5.18197C8.99908 5.27304 8.85658 5.41732 8.8263 5.7552L8.49236 10.6252L7.73257 20.0706L8.4791 20.4017L8.54299 20.4357C8.60655 20.3667 8.58115 20.2895 8.58986 20.1999L9.87611 6.58297C9.91924 6.09523 10.1955 5.12168 9.32627 5.18197ZM38.463 5.20648C37.9389 5.31964 38.0238 5.73987 38.06 6.15968L39.4194 19.5347C39.4566 19.8284 39.4561 20.1282 39.4989 20.4215L39.8586 20.2555L40.3678 20.0144L39.7744 13.7808L39.2241 6.686C39.1992 6.37268 39.2436 6.01193 39.1493 5.71207L39.1371 5.67115C39.0356 5.34087 38.8051 5.17789 38.463 5.20648ZM6.65529 21.5251L4.40717 25.9448C2.98834 28.8741 2.80659 31.8283 3.66588 34.914L4.25393 36.3413L4.76946 37.3502C4.99619 37.9049 5.21932 38.4832 5.34785 39.0706C5.36126 39.1318 5.40208 39.192 5.43232 39.2466C6.01357 39.3856 6.56688 39.6275 7.15169 39.7546C10.0098 40.3758 13.1613 40.329 16.0196 39.725L16.728 39.5415L20.8378 38.1596C20.7 36.6627 20.4243 35.1582 19.9391 33.7319C18.2112 28.6517 14.0203 24.8359 9.2291 22.6284L7.58754 21.9071C7.28224 21.7806 6.9483 21.6747 6.65529 21.5251ZM41.2714 21.5737C34.0328 24.405 28.0181 29.3399 27.2342 37.5364C27.2053 37.8375 27.0229 38.0975 27.3591 38.2149L31.3642 39.5667C31.9331 39.7022 32.5031 39.8483 33.0821 39.9353L34.1657 40.0679C34.4302 40.0995 34.6948 40.1426 34.9609 40.1582L36.5021 40.1787C38.9418 40.1895 40.3549 39.9072 42.6009 39.216C42.9018 37.7788 43.519 36.9501 44.0224 35.6748C44.5866 34.2452 44.8377 32.8241 44.8351 31.2926C44.8314 29.0693 44.0199 26.948 42.9957 25.006L42.026 23.2601C41.7529 22.719 41.5739 22.052 41.326 21.5823L41.2714 21.5737ZM22.3297 35.9127L22.5554 37.8239C23.3614 37.7087 24.2336 37.6888 25.0443 37.7705C25.1243 37.7786 25.3854 37.8231 25.429 37.7793L25.4385 37.6674L25.674 35.9225L22.3297 35.9127ZM23.785 39.4768L22.9752 39.5308C22.3029 39.6158 21.6248 39.736 20.9766 39.9404L16.9368 41.3001L15.6738 41.5561C12.145 42.2158 9.19347 42.058 5.77751 41.1742L5.81576 42.1414C5.93655 42.1902 6.06138 42.1991 6.18865 42.2189L8.36754 42.5595C11.7414 42.9666 15.2804 42.6697 18.5156 41.6239L21.0012 40.7252C21.3154 40.6257 23.9585 40.0485 24.1897 40.2613C25.1962 40.2752 26.1787 40.4369 27.139 40.7524L28.8181 41.3954C30.6281 42.0737 33.0618 42.5581 35.0118 42.6646L38.3974 42.6631L41.6899 42.3024C41.8507 42.2764 42.0043 42.269 42.1638 42.2301L42.2093 41.1412C38.3569 42.3297 33.6217 42.1773 29.7743 40.9097L27.5255 40.0811C26.3226 39.671 25.0544 39.4594 23.785 39.4768Z" fill="black"/>
<path d="M5.44489 31.9017C4.43426 31.9067 4.42582 31.2283 4.42578 30.3894C4.42575 29.815 4.45495 29.4463 4.5233 28.8871L4.64771 28.1595C4.87653 27.0307 6.34517 23.284 7.61998 22.9731C8.0037 22.9569 8.36291 23.0744 8.52308 23.4576L8.57427 23.5727C8.64467 23.7445 8.65292 23.9923 8.58078 24.1643L8.56662 24.1964C8.43345 24.5229 8.1793 24.77 7.97192 25.0498C6.94658 26.4331 6.27777 28.1248 6.1662 29.8456L6.13545 30.6657C6.13283 30.87 6.14211 31.0814 6.11403 31.2841L6.10812 31.3246C6.09617 31.4109 6.07517 31.4502 6.01953 31.5184L5.99577 31.5473C5.84141 31.7441 5.69211 31.8463 5.44489 31.9017Z" fill="black"/>
</svg>
