<svg width="48" height="48" viewBox="0 0 48 48" fill="none" xmlns="http://www.w3.org/2000/svg">
<path d="M44.0733 24.814L44.6115 26.4489L44.9432 28.1171C45.5932 32.7691 43.518 37.5999 39.1561 39.7003C38.021 40.2469 36.7421 40.5782 35.4792 40.3803C35.0788 40.3175 34.6285 40.1356 34.2212 40.1862C33.8341 40.2343 33.4613 40.3381 33.0772 40.3989C30.847 40.7518 29.4668 39.6728 27.9858 38.2812C27.3199 37.6554 26.514 36.9748 26.0571 36.1668L26.0417 36.1392C25.5983 36.0754 25.0998 36.1164 24.6494 36.1167L22.0349 36.1159C21.9937 36.1466 21.9627 36.1685 21.9405 36.216L21.9256 36.2503C21.6957 36.7528 20.0837 38.2184 19.6407 38.6229C18.1442 39.9894 16.8576 40.7653 14.6652 40.3126C13.3987 40.0511 13.6869 40.1119 12.4141 40.3568C11.3418 40.5631 10.1452 40.3372 9.15577 39.8915C5.10511 38.0665 2.97896 34.2589 2.97481 29.9405C2.97433 29.4447 2.96686 28.9422 3.01534 28.4484C3.24641 26.0942 4.65026 22.2591 6.40139 20.509C6.6391 20.2714 6.88753 20.1816 6.88139 19.8537L7.02694 16.4815C7.20005 14.0179 7.52485 11.5648 8.05969 9.152C8.1646 8.6787 8.17627 7.77692 8.75039 7.60512L8.90081 7.57662L8.9431 7.5724C10.1924 7.47598 9.59949 9.1295 9.48614 9.75448L9.09624 12.0582L8.52296 16.7464L8.41571 19.6638C14.4148 19.9627 20.3223 24.3045 22.3871 29.9725C22.6624 30.7283 22.9441 31.5126 23.0496 32.3116L24.9384 32.2908C26.1481 25.5746 32.742 19.9652 39.5456 19.6763C39.5691 19.4303 39.5579 19.1766 39.5584 18.9296L39.2061 14.0973L38.3806 9.26609C38.2766 8.75098 37.9952 7.70862 38.7967 7.59186L38.8243 7.58811C38.923 7.57236 38.9986 7.56978 39.0986 7.58567L39.1407 7.59284C39.6257 7.67159 39.754 8.22608 39.8261 8.63684L40.1768 10.2783L40.8576 14.8744L41.0698 18.5936C41.0737 18.7365 41.1013 18.8767 41.1075 19.0192L41.1067 19.8079C41.1011 20.0096 41.0629 20.0182 41.2123 20.1609L41.5532 20.4859C42.3521 21.2751 43.5452 23.3575 43.9416 24.4918C43.9563 24.5338 43.9671 24.5704 43.9876 24.6102L44.0733 24.814ZM26.9297 30.7924L28.5615 28.5212L29.4727 27.4578C31.6157 25.0444 33.9343 23.4813 36.9686 22.3777L39.5301 21.4574C39.6191 21.4271 39.7488 21.4021 39.8196 21.3396L39.7818 21.2942L39.6613 21.2701C39.2506 21.2187 38.8413 21.3013 38.4369 21.3565C34.1726 21.9379 30.05 24.897 27.9324 28.642C27.7326 28.9954 27.5685 29.3683 27.3931 29.7342L27.1151 30.3092C27.0419 30.4583 26.9516 30.6259 26.9297 30.7924ZM8.19047 21.2383L7.9658 21.3234C9.38808 21.8427 10.8644 22.2682 12.2566 22.8629C15.0974 24.0765 16.9814 25.6851 18.9475 27.9647L20.387 29.8122C20.554 30.0476 20.7316 30.2734 20.8817 30.5203L20.9568 30.5504C20.4372 29.3808 19.8695 28.2402 19.1078 27.2054C16.8788 24.1778 13.2255 21.9071 9.52678 21.3308C9.08686 21.2623 8.63644 21.1978 8.19047 21.2383ZM6.71067 22.5858C5.87635 23.9741 5.12035 25.7121 4.78275 27.3043L4.5963 28.3707C4.31586 30.4233 4.57016 32.6214 5.55366 34.4613C6.47597 36.1866 7.94967 37.6989 9.78202 38.4472C11.2568 39.0495 11.489 38.8696 12.8672 38.6471C13.25 38.5853 13.7427 38.603 14.128 38.6339C14.7039 38.6802 15.2416 38.9267 15.8314 38.8996C16.644 38.8622 17.3517 38.514 17.9815 38.018C19.3446 36.7882 20.775 35.6167 21.3351 33.7918L21.3162 33.7752C21.1452 33.6212 21.0218 33.4401 20.8883 33.2548L17.9114 29.1821C15.5898 26.3094 13.2926 24.8232 9.88336 23.6569L7.1715 22.743C7.02089 22.6955 6.85181 22.6547 6.71067 22.5858ZM41.1586 22.6051C39.6288 23.1691 38.0474 23.602 36.5408 24.2284C33.6435 25.4329 31.2846 27.5215 29.4192 30.0146L27.0067 33.4412C26.9105 33.5744 26.7688 33.6728 26.6777 33.7973L26.666 33.8248C27.4347 35.4955 27.6955 35.9389 29.1557 37.2518L29.7412 37.7738C29.8679 37.8879 29.9862 38.012 30.1239 38.113C30.8649 38.6863 31.7794 39.0062 32.7224 38.8859C33.6073 38.7729 33.7925 38.5636 34.7997 38.6476C35.3244 38.6914 35.7963 38.9037 36.3351 38.8804C36.9313 38.8546 37.5252 38.6846 38.0754 38.4605C41.2309 37.1757 43.2416 34.0184 43.4919 30.6726C43.6907 28.0144 42.6966 24.8265 41.2383 22.5929L41.1586 22.6051ZM23.147 33.8254L22.9289 33.8948C22.9181 34.0219 22.8335 34.465 22.7419 34.5454L24.918 34.5451L25.2663 34.5492L25.0778 33.8397C24.8488 33.8107 24.606 33.8245 24.375 33.8242L23.147 33.8254Z" fill="black"/>
</svg>
