<svg width="48" height="48" viewBox="0 0 48 48" fill="none" xmlns="http://www.w3.org/2000/svg">
<path d="M42.1833 24.7387C42.8894 25.9612 43.9791 27.1935 45.2079 27.9177C46.1526 28.4744 46.0671 28.5742 45.8418 29.6287C45.6198 30.6677 44.934 31.7204 44.383 32.6081C43.787 33.5684 43.3904 34.6494 42.9252 35.6745L40.4533 41.0129C39.9674 42.0511 40.0276 41.9953 38.7903 41.9116L38.0524 41.883C36.8813 41.8363 35.7088 41.6865 34.547 41.5402L27.9149 40.429L26.1635 40.2225C25.6193 40.1787 25.0584 40.2003 24.5121 40.2004L21.9797 40.2844C21.1877 40.3439 20.4088 40.388 19.6354 40.5865C18.8898 40.7779 18.1818 41.0721 17.4215 41.221L14.004 41.6939L11.5869 41.8827L8.90124 41.939C7.89502 41.9543 7.88288 41.7967 7.45519 40.8684L4.79527 35.0599C3.95167 33.1287 2.54011 31.4369 2.06516 29.355C1.86825 28.492 2.01362 28.3579 2.77765 27.9455C5.00039 26.7459 6.33488 24.8379 6.82364 22.3377L6.99671 21.1522C7.03463 20.7949 6.99816 20.2683 7.35858 20.0489L7.39022 20.0299C7.53966 19.9315 7.58714 18.7245 7.60088 18.3975L7.61452 13.0837C7.61405 12.5562 7.6306 12.0194 7.59882 11.493L7.2878 7.53155C7.26267 7.24749 7.17436 6.89958 7.27805 6.62625L7.28935 6.5978C7.41202 6.27802 7.66636 6.10861 7.99425 6.027L10.3217 6.02077C10.6832 6.02246 10.9605 6.08002 11.1672 6.42272L11.1874 6.45717C11.378 6.77494 11.2946 7.96777 11.314 8.39241L11.3765 9.5475C11.3919 9.76613 11.424 9.98831 11.4277 10.2072L11.4374 12.2178C11.4508 12.6461 11.4824 13.0974 11.4986 13.5353L11.5322 13.9689C11.5719 15.2023 11.6175 16.4137 11.6234 17.6487L11.7031 19.6287C11.7184 19.8863 11.6932 19.8752 11.9177 19.9889L14.8912 21.3719C15.8123 21.7934 16.7397 22.1986 17.5913 22.753C19.8404 24.2169 21.4082 26.8475 21.9022 29.474C22.0796 30.4178 22.2068 31.6822 22.0679 32.6508L21.8464 34.1697L26.1502 34.1417L25.9106 32.3118C25.5592 28.3449 27.7868 24.18 31.2423 22.2201C31.9044 21.8445 32.6405 21.5596 33.3411 21.2614L36.1529 20.0071C36.6706 19.7629 36.6346 19.9351 36.632 19.4152L36.6337 10.9712C36.6372 10.7064 36.6917 10.4505 36.6947 10.1881L36.7037 7.06383C36.7067 6.8836 36.6924 6.648 36.7796 6.48661L36.7966 6.45717C37.0201 6.05377 37.286 6.02147 37.693 6.02002L39.4846 6.0196C39.6727 6.01969 39.9054 5.9956 40.0871 6.04392L40.1186 6.05311C40.736 6.22871 40.7753 6.65147 40.7494 7.16846L40.6477 9.01186C40.6074 9.69131 40.5774 10.3118 40.5528 10.9972L40.4992 12.1173C40.4918 12.2579 40.4654 12.3963 40.4611 12.5376L40.452 15.6609C40.4485 16.7295 40.407 17.8171 40.4737 18.883L40.543 19.5088C40.6147 20.2107 40.8271 19.9235 40.9593 20.3541L40.97 20.3908C41.0694 20.6513 41.0376 20.9152 41.0668 21.1875C41.1187 21.671 41.192 22.2281 41.357 22.6903L42.1833 24.7387ZM8.88375 7.57622C8.87785 7.98952 8.9423 8.39414 8.97155 8.79961L9.16552 11.6603L9.18671 17.4944C9.18671 17.8112 9.20499 18.1412 9.1478 18.4535L9.0713 19.4205L10.052 19.426L10.1578 19.4337C10.1707 19.3956 10.1016 17.8201 10.0858 17.7072C10.0155 17.2035 10.042 16.6797 10.0247 16.172L9.93492 13.4421C9.93127 13.1873 9.87478 12.9435 9.86991 12.6878L9.86091 9.59906C9.85669 9.34613 9.81399 9.08485 9.80339 8.82985L9.77438 7.58471L8.88375 7.57622ZM38.3023 7.57153L38.2283 19.1901L38.6603 19.1966C38.7465 19.201 38.8382 19.2223 38.9235 19.2149L38.9256 18.9813C38.8725 18.6929 38.8875 18.3951 38.886 18.1046L38.896 12.066C38.9078 11.8542 38.9704 11.6491 38.9878 11.4376L39.1677 7.5728L38.3023 7.57153ZM38.5858 20.7524C38.341 20.7731 38.115 20.7924 37.8868 20.8879L37.8476 20.904C37.5758 21.0178 37.3245 21.1914 37.0611 21.3253L33.0922 23.0878C32.6604 23.2845 32.2272 23.4694 31.816 23.7082C28.6976 25.5195 27.1123 29.1782 27.4838 32.6951C27.5216 33.0535 27.6021 33.4017 27.6637 33.7558L27.8228 34.3423C28.0549 34.4193 28.3121 34.4586 28.5517 34.513L29.4259 34.7381C30.526 35.0329 32.1286 35.5991 33.2521 35.6221C34.0493 35.6617 34.8639 35.6873 35.6594 35.6187C39.5173 35.2859 43.141 33.0177 44.3421 29.228C42.0371 27.7087 40.3086 25.3954 39.745 22.6563C39.7022 22.4484 39.5003 21.0211 39.44 20.9811C39.2013 20.8225 38.8731 20.7315 38.5858 20.7524ZM9.02996 20.9799L8.54391 21.0626L8.30869 22.8219C7.83174 25.1333 6.32677 27.7853 4.18369 28.9645L3.79697 29.1562C3.60858 29.2443 3.61608 29.2657 3.70358 29.4611L3.79782 29.7189C3.98167 30.1948 4.17087 30.6711 4.42763 31.1134C6.41161 34.5313 10.795 35.8967 14.5665 35.6284C14.7478 35.6154 14.9243 35.572 15.1056 35.5542C16.8704 35.3713 18.4728 34.609 20.2169 34.351C20.3675 33.6789 20.4975 33.0039 20.5446 32.3154C20.7608 29.1589 19.3665 25.9302 16.7699 24.0882C16.3976 23.8241 15.9722 23.6305 15.5635 23.4308L11.1172 21.3657C10.6249 21.164 10.213 20.9798 9.67903 20.9765L9.02996 20.9799ZM41.2817 35.379C38.3556 37.2342 34.6399 37.6331 31.2965 36.8867C30.3393 36.673 29.4269 36.3225 28.4767 36.0959C26.9056 35.7213 25.7977 35.6994 24.2169 35.7009L21.9654 35.7776C20.2238 35.8983 19.5422 36.0352 17.9415 36.5623C14.297 37.7625 9.94444 37.3946 6.66178 35.3861L7.73203 37.7907L8.93841 40.3939L12.8907 40.2156L16.8634 39.7254C17.7109 39.5756 18.4751 39.2498 19.2993 39.04C20.3016 38.7848 21.3711 38.7389 22.401 38.6541L25.0583 38.6283C25.4529 38.6291 25.8641 38.6075 26.2568 38.6436L26.8347 38.7153C27.2346 38.7515 27.6435 38.7801 28.0389 38.8515L34.244 39.929L37.7414 40.3128L38.5326 40.3443C38.7002 40.3545 38.8667 40.3818 39.034 40.388L41.1836 35.7058C41.2224 35.6138 41.3052 35.478 41.3103 35.3804L41.2817 35.379Z" fill="black"/>
</svg>
