<svg width="48" height="48" viewBox="0 0 48 48" fill="none" xmlns="http://www.w3.org/2000/svg">
<path d="M33.0655 35.8087L32.051 36.1877C31.2191 36.539 30.4141 36.9987 29.6743 37.5153C29.292 38.2739 29.0872 39.1644 28.8713 39.9822L27.6046 45.2152C27.42 46.0395 27.4645 46.3277 26.4867 46.4577C25.5591 46.581 24.6206 46.6618 23.6838 46.6411L22.6156 46.566C22.3005 46.5421 21.8835 46.3918 21.5774 46.4361C21.4414 46.4558 21.2683 46.476 21.1343 46.4385L20.9651 46.3816C20.5816 46.1979 20.5223 45.5955 20.4329 45.2319L18.9288 39.1714C18.7625 38.6102 18.5415 38.0754 18.3487 37.5246C16.9609 36.5945 15.3436 35.6658 13.641 35.521C13.2426 35.4871 12.9098 35.5214 12.6588 35.1275C12.0092 34.1083 13.7706 28.3423 14.2119 27.0766L14.8062 25.3068C15.4014 23.5234 15.628 22.6146 15.1396 20.7253C14.8919 19.7672 14.5506 18.8556 14.2321 17.9207L13.9952 17.203C13.8157 16.563 13.764 16.6047 13.4956 16.0385C12.4628 13.8599 12.6761 12.3818 13.6015 10.2958L14.5713 8.21712C14.831 7.62945 14.8333 7.77711 14.7544 7.16L14.2967 3.96894C14.1395 2.88109 14.0008 1.61216 15.4473 1.39072C16.1925 1.24981 16.9657 1.9321 17.1715 2.60096C17.3848 3.29414 17.4473 4.01408 17.4994 4.73421L17.5784 7.29242C17.6273 7.34365 17.6658 7.38106 17.7349 7.40159L17.7694 7.41162C17.8925 7.45086 18.0095 7.51901 18.1286 7.56964L18.8102 7.86186C20.7555 8.7379 22.0593 9.80534 23.2554 11.5349C23.4642 11.8369 23.7177 12.1731 23.8767 12.5037C24.042 12.8473 24.0602 12.6251 24.1883 12.3983L24.5633 11.7669C25.5991 10.1422 26.9537 8.95723 28.682 8.1289L30.1967 7.46098C30.2609 7.43196 30.4376 7.39357 30.4739 7.33807C30.5011 7.29636 30.4888 6.11154 30.4912 5.96056C30.4952 5.72121 30.5305 5.48586 30.5445 5.24726L30.6478 3.93086C30.7404 2.92774 30.9614 1.59625 32.1818 1.40293L32.2151 1.39786C32.9151 1.28732 33.5873 1.73489 33.8295 2.39298C33.976 2.79101 33.8873 3.17184 33.8342 3.57552L33.3319 7.38584C33.3035 7.69414 33.3343 7.72596 33.4513 8.0239L34.0428 9.48603C34.3209 10.2007 34.795 10.9102 34.9538 11.6619L35.0798 12.1346C35.2812 12.7532 35.2534 13.7852 35.087 14.3861L34.9883 14.7823C34.8081 15.6663 34.3633 16.1496 34.0945 16.956L32.9972 20.2147C32.6086 21.502 32.3623 22.8802 32.8283 24.1896L34.6777 30.0204C34.7963 30.7068 35.067 31.3857 35.1458 32.081L35.4603 34.3422C35.4872 34.5114 35.5086 34.7104 35.4517 34.8754L35.4389 34.91C35.2252 35.5212 34.8214 35.4678 34.3064 35.543C33.8897 35.6038 33.4683 35.6855 33.0655 35.8087ZM32.3774 2.89437C32.137 3.10219 32.0797 3.95851 32.0584 4.25197L31.9031 6.54748C31.8906 6.64503 31.922 6.77182 31.9485 6.86562L32.3831 3.39705C32.3938 3.30657 32.5021 2.90308 32.3774 2.89437ZM15.6036 2.91781C15.6101 3.10198 15.6495 3.29803 15.6931 3.47655L15.7386 3.74252C15.8246 4.15606 16.0258 6.57425 16.1454 6.75125L16.1917 6.76156C16.1625 6.11571 16.0629 2.88544 15.6036 2.91781ZM16.1684 8.33871L15.5226 9.65182C15.0698 10.5624 13.9636 12.6778 14.265 13.7379L14.2736 13.7688C14.3073 13.8882 14.3348 14.0186 14.3825 14.1326L14.495 14.4545C14.5493 14.6277 14.6446 14.8005 14.7463 14.9502L14.7683 14.9834C15.8613 16.5938 18.1009 17.063 19.9161 16.6637L21.853 16.1554C23.2398 15.8592 24.2836 15.8989 25.6455 16.0588C26.3961 16.1469 27.1142 16.3935 27.8408 16.5874C29.6452 17.069 31.5604 16.7586 32.94 15.4276C33.6248 14.7669 33.8226 14.0051 33.7504 13.0487C33.6599 12.1926 33.3405 11.5247 32.9911 10.7463L32.4508 9.48457C32.2904 9.11173 32.1196 8.74526 31.9883 8.36079L30.1793 9.07446C27.8882 10.0466 26.6454 11.0522 25.3885 13.2385L24.8845 14.1308C24.1074 15.5002 23.6197 14.8906 22.9456 13.8128C21.2443 11.0922 20.6354 10.2147 17.5496 8.90178L16.1684 8.33871ZM23.5959 17.4421C20.8378 17.6263 18.9087 19.0296 16.0384 17.7983C15.9221 17.7484 15.8102 17.6805 15.6927 17.6363L16.4455 19.9764C16.9958 21.4457 16.9818 23.1076 16.5545 24.6051L14.8215 29.9816C14.5455 30.9275 14.33 31.9018 14.1645 32.8729L13.996 34.0658C14.2803 34.1487 14.5789 34.186 14.8682 34.2537C15.8031 34.4726 16.7898 34.8698 17.6223 35.3422L18.5933 35.9277C20.8999 37.1696 22.7013 37.7612 23.6139 40.4114C24.013 41.5702 24.1737 43.4647 23.6347 44.5897C23.5407 44.786 23.4182 44.9655 23.3247 45.1621C23.6433 45.2386 24.051 45.1938 24.3811 45.1931L24.6431 45.1871C24.5498 44.9755 24.4311 44.7796 24.3408 44.5676C23.8362 43.382 24.0706 42.0044 24.3482 40.7895C25.0033 37.9228 26.9262 37.2476 29.1804 36.0552C30.1138 35.5614 31.0036 34.9188 32.0238 34.6042L32.8129 34.3428C33.2044 34.2314 33.5997 34.1734 33.9971 34.094L33.7405 32.3968C33.6121 31.6743 33.4306 30.9408 33.231 30.2342L31.9304 26.1606C31.4539 24.7389 30.9241 23.1843 31.1919 21.6632L31.2707 21.0702C31.3537 20.5953 31.4909 20.1136 31.6369 19.6544L32.0987 18.2863C32.1621 18.0911 32.2462 17.8781 32.2762 17.6761L32.2566 17.6872C30.7387 18.5251 28.749 18.3882 27.1485 17.9166C25.9025 17.5495 24.8907 17.4314 23.5959 17.4421ZM20.2538 38.4643L20.35 38.8145C20.4106 39.0403 20.4949 39.2583 20.5369 39.4897L21.7575 44.4823C21.7967 44.6427 21.8469 44.6452 21.9353 44.5199L22.1565 44.191C23.1857 42.4829 22.1141 39.5861 20.4535 38.5886L20.2538 38.4643ZM27.7107 38.4959C26.1724 39.3976 25.7677 40.77 25.5444 42.4033C25.4419 43.1533 25.47 43.7 25.913 44.3571C25.9759 44.4577 26.0946 44.6567 26.2135 44.6917L27.7107 38.4959Z" fill="black"/>
<path d="M20.6771 14.9992C19.9948 15.0157 19.958 14.7728 19.6351 14.2217C19.0246 13.1795 18.2023 12.3844 17.1587 11.7605C16.7174 11.4967 16.0311 11.239 16.4535 10.499C16.5766 10.2834 16.7662 10.2104 16.9941 10.1511C17.1502 10.1334 17.3443 10.2074 17.4828 10.276C18.864 10.9604 20.1087 12.0774 20.8681 13.4216C21.1981 14.0056 21.5997 14.7434 20.6771 14.9992Z" fill="black"/>
<path d="M27.587 15.0025C26.6636 15.134 26.6638 14.2896 26.9936 13.6539C27.6455 12.3975 29.4232 10.6024 30.8366 10.151C31.2371 10.1034 31.5057 10.2856 31.6207 10.6642L31.6336 10.7012C31.8175 11.3857 31.2047 11.5348 30.7624 11.8202C29.6584 12.5326 28.7873 13.3662 28.1646 14.5354C28.0252 14.7974 27.8729 14.9154 27.587 15.0025Z" fill="black"/>
</svg>
