<svg width="48" height="48" viewBox="0 0 48 48" fill="none" xmlns="http://www.w3.org/2000/svg">
<path d="M48 16.9426V23.9749C47.8931 24.0039 47.8631 24.102 47.7891 24.1754C47.3794 24.5815 46.6287 24.432 46.5127 23.8638C46.4812 23.7093 46.501 23.52 46.5008 23.3613L46.4962 17.758C46.3935 15.619 45.2305 13.9419 43.7017 12.5676C43.6379 12.7136 43.6111 12.8663 43.5706 13.0192L43.3038 14.01C42.7775 15.7753 42.0082 17.5263 41.07 19.1124L40.0123 20.7773C39.7019 21.3229 39.1734 22.5026 39.0008 23.1219L38.9921 23.1541C38.7242 24.1045 39.9589 25.3871 40.3257 26.395L40.8833 28.164C41.4652 30.1257 40.88 33.252 39.8908 34.9551C38.7804 36.8667 36.8818 38.4638 34.7236 39.0492C31.1084 40.03 27.3834 38.4988 25.6943 35.1248C25.446 34.6288 24.9184 33.4844 25.8243 33.28L25.8516 33.2742C26.5814 33.1108 26.6767 33.7154 26.9218 34.2008C28.8742 38.0666 33.4904 38.9765 36.8056 36.2563C39.6601 33.9142 40.4124 29.6629 38.6771 26.4462C38.5227 26.1601 38.3164 25.9048 38.1493 25.6268C37.3538 24.3035 37.2734 23.35 37.8215 21.9302C38.1281 21.1359 38.4555 20.3541 38.8997 19.6253L39.8104 18.2268C40.7744 16.6032 42.1133 13.4622 42.3084 11.5034C41.9603 10.4986 39.9255 10.1785 39.0319 10.096C39.0019 10.1503 39.0027 10.2446 38.9957 10.3078L38.6622 13.1156C38.3777 14.9315 37.915 16.6982 37.4328 18.4684L36.871 20.4254C36.4207 21.9547 35.9502 23.4261 34.5476 24.3295C34.1535 24.5833 33.72 24.7662 33.3022 24.9755C31.9193 25.6685 30.9293 26.7136 29.8611 27.81C28.4523 29.256 26.7751 30.2873 24.7969 30.7019L24.6084 30.7313C22.2584 30.9618 19.9638 29.5808 18.3346 28.0013C17.0598 26.7653 16.3729 25.8376 14.7517 25.0014C14.1571 24.6947 13.5524 24.4582 13.0312 24.0245C11.9472 23.1225 11.6025 21.8517 11.18 20.5672L9.98175 16.214C9.68466 14.9622 9.39923 13.7068 9.21108 12.4332L8.97178 10.1156C8.02791 10.1948 6.15267 10.5254 5.71261 11.4142C5.58802 11.6658 5.65111 12.1433 5.74116 12.4164L6.0157 13.3185L6.69413 14.9296L9.66816 20.5952L10.3132 22.1832C10.7125 23.3121 10.5644 24.3393 9.96497 25.3789C9.6727 25.8858 9.34444 26.3382 9.11316 26.8808C8.2703 28.8578 8.10816 31.1104 8.91797 33.1354C10.0099 35.8658 12.5521 37.7898 15.5488 37.7977C15.8314 37.7984 16.1294 37.8034 16.4062 37.7412L16.8291 37.666C17.0705 37.6151 17.3035 37.5389 17.5382 37.4645L17.6381 37.4324C18.9615 36.9784 20.0932 35.8977 20.7884 34.7057C21.0437 34.2678 21.2285 33.4178 21.7703 33.2615L21.8086 33.2511C22.431 33.0789 22.8296 33.789 22.6448 34.3176C21.6067 37.2867 18.6601 39.36 15.53 39.3537C11.9008 39.3464 8.67698 36.9468 7.45397 33.5527C6.54881 31.0407 6.7343 28.1519 7.93331 25.7698C8.34525 24.9516 9.13477 24.2099 9.0158 23.2121C8.96095 22.752 8.71912 22.2568 8.53814 21.8343L7.23141 19.1422C5.99203 16.866 4.86173 15.1948 4.25459 12.6326C2.60554 13.9073 1.68085 15.8011 1.48291 17.8543C1.43981 18.3014 1.47244 18.7778 1.47264 19.2277L1.47315 23.2608C1.47305 23.4696 1.49761 23.714 1.45958 23.9176C1.39058 24.287 0.869869 24.4637 0.549445 24.3868C0.258049 24.3169 0.149574 24.1424 0 23.9015V17.2816C0.056835 17.1063 0.0719475 16.916 0.101795 16.7347C0.456143 14.5821 2.00003 12.1571 3.90276 11.0307C4.08423 10.9233 4.18038 10.9541 4.29722 10.7674L4.50799 10.4493C5.54962 9.02247 7.92141 8.57421 9.59939 8.55176C9.98878 8.54651 10.2793 8.5256 10.4847 8.92408L10.4993 8.95277C10.5942 9.13554 10.5738 9.32247 10.557 9.52122C12.9262 10.4796 15.4443 11.2095 17.9687 11.6186L21.6681 12.0264L26.0478 12.0312C26.3502 12.0188 26.6419 11.9655 26.9414 11.9397L28.4648 11.7927C31.5329 11.3484 34.494 10.5368 37.4261 9.54288C37.358 8.65432 37.764 8.53001 38.5122 8.55855C40.1472 8.62094 42.1111 8.91115 43.2623 10.2017C43.422 10.3808 43.5497 10.6307 43.7208 10.7893C43.8605 10.9188 44.2995 11.1318 44.5453 11.3295C46.1884 12.6506 47.4075 14.3857 47.8444 16.4744C47.8758 16.6246 47.8964 16.7927 47.9592 16.9321L48 16.9426ZM10.5975 11.1911C10.5943 11.3367 10.62 11.443 10.6384 11.5844L11.0742 14.202C11.1314 14.4684 11.2128 14.7363 11.2575 15.0048L11.9455 17.8207L13.1602 21.6603C13.6607 22.8693 14.4745 23.1313 15.5386 23.6931C16.1478 24.0147 16.7361 24.4 17.2728 24.8317C19.4573 26.5886 20.3035 28.549 23.4258 29.1937C25.1934 29.5586 27.3606 28.1259 28.5416 26.9546L29.3851 26.0516C30.3179 25.0816 31.3818 24.2338 32.5788 23.6118C32.9193 23.4349 33.2681 23.3088 33.5999 23.1103C34.3712 22.6049 34.7493 22.0005 35.0305 21.1517L35.3344 20.2196C36.2233 17.417 37.0019 14.5258 37.329 11.5961C37.3433 11.468 37.3924 11.3011 37.3763 11.1763L31.9922 12.7062C30.7135 12.9996 29.4082 13.2172 28.1064 13.3758L26.2862 13.534C26.1415 13.5462 25.9992 13.5754 25.8539 13.5829L21.4453 13.5823C19.8702 13.4945 17.9184 13.2131 16.4003 12.876L14.0649 12.3202L11.191 11.397C11.036 11.3399 10.758 11.1903 10.5975 11.1911Z" fill="black"/>
</svg>
