<svg width="48" height="48" viewBox="0 0 48 48" fill="none" xmlns="http://www.w3.org/2000/svg">
<path d="M42.9824 26.947L42.999 27.7574C42.9913 27.8528 43.0055 27.9067 43.0426 27.9943C43.3899 28.8144 43.3515 29.7637 43.3521 30.6328L43.3469 35.7716C43.3388 36.6263 43.0611 36.7742 42.3047 37.1427L41.5133 37.5306C38.477 38.9515 33.6186 40.7001 30.162 40.083C29.3804 39.9434 28.624 39.7138 27.838 39.589C25.5262 39.2222 22.4504 39.2011 20.1935 39.5733C19.403 39.7037 18.6434 39.9412 17.8574 40.0846C15.2803 40.5547 11.5031 39.5221 9.1117 38.6637C8.15601 38.3207 7.24518 37.8915 6.32802 37.4602C5.80059 37.2122 5.09245 36.9982 4.83102 36.4242L4.81659 36.3912C4.77229 36.2917 4.76305 36.1961 4.75879 36.0887L4.76066 27.7774C4.87124 25.1161 6.43466 22.5288 8.08148 20.5332L8.55599 19.9557C8.63826 19.8542 9.01823 19.4943 9.01907 19.4411L9.01931 9.54521C9.0194 9.18882 9.00149 8.82151 9.02343 8.46624C9.06937 7.72168 9.75824 7.78126 10.2446 7.78065L11.9568 7.78135L13.0532 7.79527C13.2462 7.84304 13.4325 8.01615 13.5227 8.1879L13.5424 8.22629C13.5786 8.28671 13.6015 8.31746 13.6159 8.38815L13.6215 8.41763C13.6544 8.58066 13.6413 8.75579 13.6416 8.92182L13.6403 20.2292C13.6392 21.7611 13.4377 21.2461 14.9292 22.0531C16.0962 22.6846 17.264 23.3685 18.3118 24.185C19.809 25.3519 21.7787 27.4669 22.6052 29.2313L22.623 29.27C23.5762 29.3206 24.3741 29.1026 25.4536 29.3046C25.5144 29.2398 25.5466 29.1199 25.5845 29.0376L25.8219 28.5741C27.1796 26.2002 29.3152 24.2547 31.6487 22.8681L34.0968 21.5352C34.4806 21.3299 34.5047 21.4659 34.5088 21.036L34.5109 9.21216C34.5119 8.71421 34.4042 7.83971 35.1564 7.78547C35.7373 7.74361 36.3509 7.78097 36.9346 7.78093L37.9045 7.78233C38.1727 7.78313 38.5481 7.7356 38.7675 7.92755L38.7892 7.94701C38.8907 8.03208 38.9538 8.10568 39.0177 8.22301L39.0309 8.24972C39.175 8.52362 39.0857 9.14569 39.0859 9.4568L39.0853 19.0392C39.0865 19.7105 38.9767 19.374 39.3298 19.7714C40.94 21.584 42.7461 24.5738 42.9824 26.947ZM10.7312 9.42104L10.7534 19.7589C11.1946 19.9214 11.581 20.2238 11.9767 20.4722L12.0073 9.44147C11.9554 9.40688 11.7763 9.42554 11.7082 9.42526L10.7312 9.42104ZM36.117 9.42221C36.0521 10.2113 36.0939 11.0276 36.094 11.822L36.0959 19.1264C36.0961 19.5556 36.0485 20.0492 36.1197 20.4706L36.923 19.9833C37.0583 19.9012 37.3682 19.7753 37.4491 19.6571L37.4474 9.42024L36.117 9.42221ZM9.91541 21.1175C8.51371 22.6532 6.89591 25.4032 6.56868 27.3804C7.23763 28.537 8.03301 29.3847 9.21679 30.0383C11.2688 31.1714 15.3116 32.5887 17.557 31.7899C18.5403 31.5536 19.2851 30.8258 20.133 30.3294L20.7515 30.0063C20.8577 29.9551 20.9885 29.9129 21.0821 29.8426C20.1688 28.0109 17.9321 25.8222 16.2725 24.7252C15.1176 23.9619 13.8635 23.3516 12.6465 22.6957L10.751 21.64C10.4742 21.4766 10.1638 21.3205 9.91541 21.1175ZM38.2468 21.1283L32.1916 24.4522C30.2386 25.6421 28.3319 27.4727 27.1913 29.4863C27.1265 29.6007 27.0371 29.7295 26.9908 29.8512L26.9807 29.886C27.2866 30.0708 27.6148 30.2172 27.9171 30.4099C28.7712 30.9542 29.2873 31.4223 30.2657 31.7622C33.26 32.5957 38.8326 30.7843 40.7033 28.4384C40.9024 28.1887 41.0741 27.9158 41.2858 27.6768C41.1367 25.6312 39.5332 22.8126 38.2468 21.1283ZM41.731 29.8474C39.4424 32.2133 33.3494 34.3532 29.9506 33.3645C28.6668 32.9911 28.0637 32.3972 27.0119 31.7563C24.9406 30.4942 22.6649 30.6297 20.6382 31.9457C20.2417 32.2031 19.8817 32.5119 19.467 32.7422C15.9884 34.6749 11.0088 33.0032 7.86632 31.1246C7.43502 30.8668 6.99557 30.5967 6.63398 30.2449L6.40359 30.0125C6.38934 30.2617 6.35943 31.2278 6.41999 31.4646L6.45955 31.5034C7.34165 32.323 7.85512 32.6482 8.94182 33.2147C11.7738 34.6912 15.9575 36.0946 18.9809 34.5463C19.5024 34.2793 19.9607 33.926 20.4497 33.6078C22.7001 32.143 25.1124 32.0791 27.4323 33.5404C27.9506 33.8669 28.4559 34.244 29.0016 34.5225C32.3601 36.2367 37.2029 34.409 40.1834 32.6074L41.0375 32.0685C41.215 31.9495 41.6185 31.727 41.7436 31.5834L41.731 29.8474ZM6.36534 33.5271L6.3952 35.156C6.39791 35.3281 6.37138 35.4916 6.40082 35.6633C6.84941 35.992 7.41327 36.1954 7.9169 36.428C10.7549 37.7386 14.6849 38.8864 17.7924 38.4261C18.4469 38.3291 19.0776 38.0923 19.7346 37.9921L21.1987 37.8166C21.6475 37.7746 22.1136 37.7011 22.5603 37.6933L23.3894 37.6873C25.8784 37.6813 27.4511 37.8515 29.8361 38.3619C31.0456 38.6208 32.3201 38.6079 33.5392 38.4201L35.6306 37.971C37.758 37.4333 39.7976 36.6088 41.732 35.5788C41.7793 35.4897 41.7443 35.1876 41.7444 35.0778L41.7487 33.5974L41.6914 33.5928C41.0096 33.9729 40.371 34.3965 39.6778 34.7449C36.2529 36.4666 31.5683 37.8731 27.9827 35.8005C27.3082 35.4106 26.68 34.9133 25.9846 34.5648C24.5878 33.8648 23.0284 33.9882 21.6845 34.7452C21.0355 35.1107 20.465 35.6012 19.8003 35.9429C16.0538 37.8691 11.0141 36.2763 7.56313 34.3005L6.7672 33.8041C6.63421 33.7146 6.50413 33.6054 6.36534 33.5271Z" fill="black"/>
</svg>
