<svg width="48" height="48" viewBox="0 0 48 48" fill="none" xmlns="http://www.w3.org/2000/svg">
<path d="M42.4168 28.5954L42.4529 28.7294C42.4628 28.7759 42.4682 28.8139 42.4846 28.8589C42.7711 29.6487 42.9425 30.9771 43.0007 31.805L43.0688 32.6205C43.1997 35.965 42.5447 39.3598 41.1801 42.4189C40.5727 43.7807 40.1584 43.3577 39.1173 42.9621L33.5059 40.9952L28.3807 39.4346L26.1026 38.9177C23.6482 38.5674 21.4828 38.8364 19.1262 39.6359L14.7711 40.9696L9.1188 42.8997C7.82726 43.3865 7.4464 43.7807 6.74191 42.1708C5.80587 40.0317 5.12965 37.4554 4.9743 35.1125L4.94679 33.4752C4.94604 32.923 4.92663 32.3569 4.96277 31.806C5.09937 29.7231 5.77287 27.4352 6.72016 25.6004L7.09427 24.9071C8.22701 22.5953 8.84815 19.5395 9.00068 16.963L9.07052 14.3504C9.07544 12.3143 8.91569 10.2996 8.61766 8.28565L8.33459 6.54448C8.18276 5.69623 7.86087 4.7996 8.97818 4.52788L12.7774 4.5184C13.0459 4.5185 13.3756 4.46756 13.6258 4.58655L13.6525 4.59947C13.859 4.69545 14.0032 4.82426 14.1154 5.02259L14.1367 5.06103C14.2861 5.32831 14.2407 5.74245 14.2625 6.04362L14.3936 7.58065C14.4285 8.0501 14.4816 8.52176 14.4964 8.99126L14.8388 14.3779L14.8329 18.5857C14.7754 19.6673 14.8238 20.6479 15.3135 21.6332L15.7425 22.4535C16.2093 23.1951 16.7567 23.8341 17.4256 24.4019L18.4406 25.2427C19.2216 25.9378 19.9088 26.7229 20.5294 27.5622L20.7749 27.9042C21.002 28.2237 22.5743 28.3287 22.9593 28.3448L23.8126 28.3625C24.4364 28.3642 25.1049 28.399 25.7228 28.3183C25.9175 28.2929 27.0419 28.0945 27.1833 27.9815C27.2867 27.899 27.38 27.7 27.4516 27.5868L27.8225 27.0599C28.2165 26.5555 28.6541 26.0646 29.1168 25.6221C30.9227 23.8949 32.1619 23.3866 32.9475 20.7552C33.2574 19.7175 33.1735 19.1981 33.1262 18.1444L33.1296 15.1407C33.1373 14.9649 33.1749 14.7942 33.1808 14.6179L33.2787 12.8173C33.3276 12.0015 33.3278 11.1614 33.3981 10.3361L33.7243 6.10685C33.781 5.49626 33.6625 4.90582 34.3213 4.59439L34.3545 4.57904C34.6217 4.45134 34.9946 4.51885 35.2824 4.51848L38.3517 4.51791C39.9748 4.51839 39.9348 5.08249 39.6782 6.40624L39.4994 7.39338C39.3284 8.40274 39.2348 9.43863 39.1421 10.4575L38.9681 12.5154L38.9656 16.5583C38.9768 16.8362 39.0164 17.1143 39.0454 17.3904L39.3915 20.0938C39.4924 20.7679 39.6423 21.507 39.8568 22.1545L40.7292 24.5603L41.7809 26.7705C42.0408 27.3693 42.1986 27.9864 42.4168 28.5954ZM10.1269 6.28353C10.1344 6.58057 10.2297 6.87842 10.2715 7.16538L10.7812 11.8148L10.8303 15.5037L10.7484 17.1895C10.7405 17.4016 10.7468 17.6138 10.7149 17.824L10.542 19.2867C10.2979 20.9025 9.94793 22.594 9.35271 24.1248L7.97018 27.0935C7.64168 27.8299 7.39765 28.6136 7.20077 29.3939L9.93124 29.8474C12.8243 30.4951 15.5586 31.6266 18.1753 33.0035L20.0928 34.1419C20.2939 33.5657 20.7313 32.1504 20.6122 31.5252C20.3184 29.9839 18.3757 27.6154 17.1389 26.4857C16.884 26.2528 16.6056 26.0573 16.3435 25.8352C14.6276 24.3816 13.405 22.5009 13.0632 20.2485C12.9514 19.5112 13.0307 18.7613 13.0526 18.0206L12.8377 10.4804L12.5839 7.25543C12.5624 6.93565 12.5644 6.59867 12.5131 6.2832L10.1269 6.28353ZM35.493 6.27804L35.1588 10.4412C35.0881 11.3266 35.0752 12.2741 35.0222 13.1658C35.0092 13.3846 34.9585 13.5957 34.9526 13.8186L34.9446 18.075C34.9475 18.745 35.0053 19.4619 34.9231 20.1265C34.6479 22.3525 33.3326 24.3915 31.64 25.8154C30.0544 27.1494 28.6825 28.7031 27.7659 30.5735C27.6132 30.8852 27.3303 31.3031 27.3918 31.6638L27.4078 31.7599C27.4689 32.1312 27.4936 32.4915 27.5899 32.8591L27.8498 33.8204C27.8711 33.9231 27.9334 34.0174 27.9599 34.1209C28.2507 33.9183 28.5534 33.7499 28.8579 33.5696L31.3554 32.2279C33.4943 31.2054 35.738 30.3301 38.0626 29.8338L39.9845 29.4919C40.2356 29.4537 40.5504 29.4638 40.7863 29.3901C40.2798 27.4181 39.3797 26.0984 38.7033 24.2985C38.0867 22.6578 37.6702 20.9056 37.439 19.1689L37.2859 17.4367C37.2724 17.2656 37.2275 17.0966 37.2185 16.9167L37.2031 12.3469C37.2079 12.0026 37.2063 11.6308 37.2791 11.2939L37.8389 6.28432L35.493 6.27804ZM21.9939 30.0179C22.0809 30.1891 22.1753 30.3584 22.2416 30.5388L22.3474 30.8728C22.4191 31.0874 22.4029 31.4126 22.4029 31.6395C22.4029 33.4422 21.7485 35.345 20.6679 36.795C20.5234 36.9888 20.3619 37.1675 20.242 37.3782C22.0617 36.9065 24.2194 36.8687 26.0636 37.1082L27.8139 37.4213C27.5001 36.9565 27.1773 36.5092 26.9134 36.0124C26.2816 34.8232 25.1362 31.8893 25.7809 30.5292C26.1105 29.834 26.0101 30.1187 25.2482 30.1617L24.1854 30.1691C23.7358 30.169 23.3221 30.1599 22.8776 30.1115L21.9939 30.0179ZM7.53026 31.2302C7.52435 31.9517 7.58144 32.8869 7.82023 33.549L7.99826 34.1203C9.60494 38.2843 14.429 39.4304 17.9191 36.9738C18.4208 36.5964 18.8591 36.1842 19.2251 35.6723C16.1247 33.6985 12.5903 32.2226 8.99852 31.4715L7.92855 31.2687C7.82824 31.2521 7.66305 31.2074 7.5633 31.2201L7.53026 31.2302ZM40.3766 31.2283L38.6247 31.5628C36.0165 32.1217 33.5821 33.0679 31.2131 34.297L28.7738 35.6684C29.1721 36.2105 29.6656 36.6899 30.2231 37.0677C33.2041 39.0329 37.2863 38.5426 39.3061 35.4399C40.0964 34.226 40.4535 32.6725 40.512 31.2292L40.3766 31.2283ZM6.90087 36.0583C6.96579 37.0961 7.2551 38.1247 7.51179 39.1279L8.30932 41.2849L11.1271 40.2566L12.0898 39.9045C11.7157 39.745 11.3178 39.6454 10.9392 39.4952C9.79807 39.0427 8.60857 38.2748 7.81057 37.3236L7.11326 36.3853C7.05663 36.2996 6.97671 36.1122 6.90087 36.0583ZM41.0824 36.0865C40.9024 36.4381 40.6193 36.7701 40.3702 37.0759C39.0364 38.7139 37.8057 39.2203 35.9391 39.8772C36.2836 40.0545 36.6361 40.1671 36.9973 40.3032L39.7356 41.2549C39.8929 40.7151 40.1326 40.1875 40.3136 39.6532C40.5826 38.8589 41.0519 36.9673 41.0824 36.0865Z" fill="black"/>
</svg>
