<svg width="48" height="48" viewBox="0 0 48 48" fill="none" xmlns="http://www.w3.org/2000/svg">
<path d="M6.29403 21.6268L6.80928 20.2465C6.95952 19.8083 6.9426 19.9391 6.94827 19.4235L6.94288 15.719L6.7881 13.8635C6.51838 11.4293 6.12772 9.06675 5.41218 6.71869L5.05461 5.56055C4.93072 5.18714 4.63232 4.62535 4.76061 4.22466L4.80932 4.08847C4.91464 3.84344 5.10139 3.70166 5.34388 3.607L5.41386 3.58135C6.3141 3.31885 6.56886 4.28341 6.77333 4.92211C6.95057 5.47575 7.15724 6.02461 7.29646 6.58969L8.10889 9.9143L8.2505 10.7932C8.55477 12.5014 8.71607 14.225 8.79458 15.9555L8.7958 19.6877C8.7381 20.6701 8.9586 20.7492 9.38853 21.6279C10.1667 23.2183 12.4199 24.5929 13.7939 25.6164C16.9993 28.0041 19.1039 30.9043 20.7192 34.512L21.4529 36.6986C21.4921 36.9093 21.5383 37.1153 21.5744 37.3282L26.402 37.329C26.4583 37.245 26.4578 37.0778 26.4817 36.9758L26.9702 35.2564C28.23 31.5848 30.6372 28.4178 33.682 26.042C35.6778 24.4847 37.9836 23.2979 38.996 20.8402L39.0632 20.6716C39.3025 20.0557 39.1635 19.5607 39.1269 18.9167C39.0949 18.3518 39.1056 17.7667 39.1259 17.2011L39.3515 13.7932C39.6301 11.0448 40.124 8.34112 40.9542 5.70244L41.3234 4.56981C41.5021 4.06785 41.6299 3.6711 42.2113 3.54319C42.4008 3.52864 42.6022 3.53322 42.7667 3.64091L42.7963 3.66109C42.9442 3.75979 43.0579 3.87274 43.1375 4.03293L43.1864 4.129C43.2624 4.30303 43.252 4.61819 43.1902 4.79714L42.225 8.07445C41.9007 9.29526 41.6368 10.5104 41.4514 11.7607L41.1199 14.631C41.1027 14.8981 41.0611 15.1558 41.0504 15.4236L41.0436 19.4504C41.0465 19.6206 41.0306 19.824 41.0981 19.9822L41.1337 20.0632C41.2314 20.2865 41.2894 20.5445 41.3652 20.7776L41.7188 21.7151C42.2023 22.835 42.787 23.9099 43.4049 24.9612L45.5909 28.4491C45.9824 29.0977 46.4104 29.7415 46.6206 30.4795C46.7495 30.9317 46.8444 32.5907 46.7282 33.1062L46.5908 33.7551C46.5279 34.0745 46.3604 34.4113 46.2035 34.6953C45.9461 35.1609 45.9382 35.2593 45.799 35.7659L44.2012 40.8848C44.032 41.3808 43.9172 41.9598 43.6025 42.3875C42.8687 43.3849 41.6731 43.6327 40.5276 43.8707C37.5436 44.4909 32.5215 44.7637 29.5867 43.8845C27.8558 43.366 27.0927 43.2217 25.2284 43.0998L24.3338 43.0201C24.0334 43.0014 23.728 43.0138 23.4269 43.0109L22.8986 42.9877C21.9943 42.9843 21.0183 43.0845 20.1466 43.3267C18.6661 43.7383 17.6273 44.2024 16.0623 44.319C15.1774 44.3849 14.4147 44.4232 13.5175 44.4231L11.6626 44.4145C10.0292 44.349 8.38339 44.1163 6.80333 43.6949C4.39194 43.0518 4.28316 42.4631 3.5196 40.1132L2.03266 35.2027C1.95607 34.9563 1.79993 34.7377 1.68778 34.5056C1.1397 33.3709 1.06925 31.4625 1.47243 30.2502C1.65123 29.7125 1.94598 29.2375 2.23455 28.7544L2.99359 27.4906C4.16047 25.5754 5.41536 23.698 6.29403 21.6268ZM7.8643 22.6785C7.26744 24.1321 6.42571 25.4804 5.59358 26.8065L3.71941 29.8766C3.11556 30.8293 3.08803 31.0653 3.08652 32.1862C3.08618 32.4446 3.06518 32.736 3.1193 32.9885L3.13706 33.0705C3.56958 35.0946 5.66216 36.8976 7.4436 37.7686C9.58602 38.8161 11.9266 38.8442 14.2607 38.7331C14.4417 38.7245 14.6172 38.6734 14.7948 38.6654C16.3848 38.5347 17.2045 38.2893 18.637 37.7504L19.6931 37.388C18.7257 33.2503 15.9748 29.6166 12.6352 27.0689L10.0527 25.1604C9.28396 24.5436 8.29466 23.5885 7.8643 22.6785ZM40.1335 22.7218C39.5195 23.718 38.7532 24.561 37.8448 25.2981L35.6122 26.9356C32.1525 29.5266 29.2123 33.1241 28.2765 37.4284L29.8017 38.0401C30.9004 38.448 31.9567 38.6385 33.1115 38.7614L35.1912 38.8135C37.3328 38.8093 39.0196 38.5889 40.9364 37.5476C42.4311 36.7355 44.7947 34.5538 44.9204 32.7049C45.0387 30.9667 44.7745 30.6539 43.8693 29.205L42.4588 26.9493C41.8937 26.0604 41.3364 25.1567 40.8471 24.2236L40.1335 22.7218ZM4.85694 38.3115L5.88627 41.2934C5.92096 41.3823 5.96436 41.4177 6.04021 41.4729L6.06036 41.488C6.66018 41.9159 9.29788 42.3204 10.09 42.4084L11.7101 42.5289C12.595 42.5782 13.4896 42.6043 14.3764 42.5671L14.9112 42.5185C15.5347 42.4812 16.1575 42.4661 16.7735 42.3478C18.1377 42.0857 19.4096 41.5074 20.7892 41.2751L21.8483 41.1435C22.4641 41.0798 23.0618 41.0543 23.683 41.0882L25.6759 41.2486C26.4015 41.3143 27.1331 41.3259 27.8494 41.479L29.297 41.8409C30.5481 42.2155 31.7899 42.5651 33.1066 42.573L35.8956 42.5693C37.5236 42.5049 39.1202 42.2937 40.7018 41.9025C41.4821 41.7095 41.9368 41.765 42.2029 41.0048L42.5987 39.8148L43.0845 38.3378C42.6307 38.7932 42.0037 39.1149 41.4324 39.3948C38.7544 40.707 36.6851 40.6916 33.8556 40.6733C32.3499 40.6635 30.826 40.3847 29.4115 39.8722L28.1017 39.3756C27.5897 39.1866 27.4679 39.207 26.9181 39.2074L20.379 39.1937C19.8709 39.2067 18.0242 40.0001 17.2853 40.1743C15.4619 40.6042 13.0918 40.7241 11.2433 40.6136C9.37761 40.5021 6.25841 39.6693 4.85694 38.3115Z" fill="black"/>
</svg>
