<svg width="48" height="48" viewBox="0 0 48 48" fill="none" xmlns="http://www.w3.org/2000/svg">
<path d="M9.21691 20.1275C8.3059 16.0095 9.97188 12.8625 12.9325 10.005L13.583 9.42694C13.9516 9.12042 13.8114 9.24403 13.81 8.7285L13.8072 7.3252C13.8068 6.91308 13.7087 6.41559 14.115 6.15197C14.4164 5.95641 14.9157 6.04912 15.1057 6.35967L15.1257 6.39347C15.2613 6.6165 15.2013 7.07883 15.2017 7.34259L15.2029 8.76605C15.2044 9.30614 15.1648 9.14461 15.4857 9.56175L17.1785 11.9114C17.7796 12.6738 18.4306 13.3785 19.1358 14.0456C19.707 14.586 20.3555 14.9976 20.9646 15.486C22.1785 16.4592 23.2817 18.1312 23.8713 19.5944C23.9115 19.6942 23.9651 19.7819 24.0209 19.8736C24.5521 18.3879 25.6251 16.6656 26.8358 15.6615C28.2199 14.5136 29.215 13.8662 30.3857 12.4395L32.5012 9.56105C32.855 9.09966 32.8086 9.29189 32.8101 8.65945L32.8117 7.20961C32.8126 6.63347 32.7558 6.25936 33.3881 6.02681C33.8932 6.00117 34.1719 6.32489 34.1742 6.78966L34.1825 8.84034C34.1834 9.14034 34.1106 9.18178 34.3443 9.37659L34.905 9.846C36.0753 10.9091 37.0857 12.268 37.8457 13.6446L38.3569 14.6851C38.5825 15.1263 38.7732 15.7242 38.8695 16.2175L38.9808 16.9196C39.1301 17.7192 38.9652 19.3896 38.7605 20.1259L38.6447 20.5523C38.1991 22.3445 36.5468 24.3179 35.0422 25.274C32.3723 26.9707 29.5338 26.8312 26.7701 25.5419C25.9648 25.1662 25.0582 24.5854 24.1458 24.5831C22.9816 24.5802 22.1144 25.1717 21.1023 25.6342C15.9416 27.9923 10.7246 25.4079 9.21691 20.1275ZM14.447 10.5401C14.2014 10.7004 13.9907 10.9395 13.7824 11.145C12.1447 12.7599 10.7222 14.6352 10.4098 16.9575C10.2904 17.845 10.3183 19.1867 10.6332 20.0142L10.7888 20.4615C10.8166 20.5553 10.8677 20.6488 10.9039 20.7405C11.9123 23.2959 14.7874 25.331 17.5702 25.117C18.1051 25.0758 18.621 24.9501 19.142 24.8334C19.5343 24.7029 19.9248 24.5999 20.3056 24.4317C21.2213 24.0272 22.0671 23.4799 23.0709 23.3092L22.97 23.0946C22.6736 22.455 23.3773 21.9661 23.3316 21.8501L22.946 20.918C22.3092 19.4615 21.5211 17.8458 20.308 16.7774C19.9615 16.4722 19.5656 16.2372 19.2037 15.9549C17.7707 14.8373 16.5336 13.4727 15.4824 11.9935L14.8984 11.1564C14.759 10.9512 14.6189 10.7191 14.447 10.5401ZM33.5406 10.5423C33.1585 10.9875 32.8547 11.5097 32.5121 11.9865C31.556 13.3174 30.438 14.6471 29.1465 15.6675C28.6755 16.0397 28.1696 16.3758 27.715 16.7666C26.525 17.7895 25.7654 19.2968 25.1533 20.7173C24.9869 21.1037 24.7641 21.5123 24.6665 21.9241L24.7018 21.955C24.8147 22.058 24.9016 22.1976 24.9658 22.3342L24.9833 22.3702C25.0846 22.5906 25.0851 22.9444 24.9948 23.1682L24.9294 23.3133C26.3815 23.5954 27.5215 24.5463 28.9277 24.8463C30.3521 25.2209 31.814 25.246 33.1877 24.653C36.4345 23.2514 38.4589 19.4553 37.3632 16.043C36.6844 13.929 35.2048 11.9691 33.5406 10.5423Z" fill="black"/>
<path d="M22.3534 40.5296L25.9746 40.5616C27.7736 40.6032 30.6864 40.5845 32.1928 39.5267C32.4337 39.3575 32.6749 39.0485 32.9865 39.035C33.621 39.0072 34.0082 39.7741 33.5507 40.2517C32.332 41.5238 29.7436 41.9066 28.0859 41.9793L24.3749 41.9123L22.908 41.9232C22.688 41.9345 22.4758 41.9778 22.2547 41.9811L20.0185 41.9776C18.4445 41.904 15.999 41.5442 14.8238 40.3809L14.7913 40.3826C14.6532 41.0111 13.7325 40.9148 13.5463 40.3614C13.4938 40.2054 13.5159 40.004 13.5159 39.8388L13.5176 33.281C13.5143 33.204 13.4934 33.1541 13.4539 33.089C12.9112 32.1953 13.3005 30.9862 13.9992 30.2879C15.9015 28.3867 18.8905 28.1769 21.4335 27.9337L23.1392 27.8516L25.161 27.8517C25.8872 27.8543 26.5949 27.9104 27.3167 27.971L28.8749 28.1486C31.0062 28.4284 34.8079 29.5476 34.7977 32.0857C34.7943 32.9309 34.3563 33.5858 33.7722 34.1615C33.7365 34.2792 33.7393 34.418 33.7334 34.5409L33.7249 37.6053C33.7227 37.9609 33.4287 38.2423 33.069 38.2688C32.2592 38.3285 32.3253 37.4002 32.3267 36.8967C32.3284 36.29 32.3528 35.6739 32.3177 35.0684L30.8436 35.6239C29.2991 36.0823 27.6031 36.2915 25.9967 36.35L21.2977 36.2825C18.914 36.1206 17.0473 35.7929 14.9368 34.6335C14.9039 34.718 14.9108 34.8456 14.9105 34.9356L14.9098 37.2324C14.9102 37.529 14.8646 37.9048 14.9466 38.1882L14.9545 38.2146C15.0668 38.6331 15.4488 39.0712 15.7668 39.3564C17.1632 40.6089 20.6267 40.6309 22.3534 40.5296ZM23.2132 29.2528L20.0643 29.5068C18.8594 29.6573 13.465 30.5098 14.8583 32.7001C15.4514 33.6325 17.4269 34.2818 18.4804 34.5001L20.747 34.8162C20.9108 34.8356 21.068 34.877 21.2343 34.8879L24.8544 34.9125L26.4081 34.9012C27.3481 34.8532 28.7672 34.6884 29.6366 34.4744L30.7541 34.148C33.4733 33.2736 34.5649 31.6853 31.6405 30.3733C29.8409 29.5659 27.8067 29.4128 25.8632 29.3042L23.2132 29.2528Z" fill="black"/>
</svg>
