<svg width="48" height="48" viewBox="0 0 48 48" fill="none" xmlns="http://www.w3.org/2000/svg">
<path d="M13.2247 6.79969L13.2345 6.79978C13.6716 6.77143 14.1143 7.07836 14.5033 7.23652C14.956 7.4206 15.461 7.56586 15.9376 7.67635L17.866 8.05003L20.197 8.28371C20.7009 8.32674 21.1957 8.39564 21.7026 8.40971L24.723 8.40628C24.8955 8.40085 25.0647 8.36517 25.2378 8.36105L26.9318 8.35289C27.1274 8.34764 27.3184 8.31666 27.513 8.30171L28.3472 8.24789C30.1097 8.09236 31.991 7.86525 33.6429 7.185C33.9761 7.0478 34.5066 6.69764 34.8836 6.81146L35.062 6.86836C35.2199 6.94088 35.306 7.05633 35.3613 7.21796L35.3745 7.25855C35.4445 7.46499 35.398 7.65628 35.3638 7.86385L35.0704 9.6473C34.9549 10.7351 35.0822 12.0079 35.5495 12.9915C35.6915 13.2903 35.8798 13.5638 35.9957 13.8756L37.7017 18.7332L38.327 20.8557C38.3506 20.9826 38.4043 21.0968 38.4251 21.2251L38.9873 23.7284C39.0214 23.9419 39.0883 24.165 39.1409 24.3756L39.7972 28.3365C39.8837 28.8991 39.8949 29.4645 39.9406 30.0297L40.1029 33.0255C40.1109 33.2058 40.1484 33.382 40.1553 33.5648L40.1738 36.2901C40.1736 37.0875 40.242 37.7904 39.8913 38.534C38.7799 40.8905 36.3978 41.9312 34.0957 42.7628C30.9438 43.6507 26.5543 44.1105 24.0504 41.6039C23.7051 41.8725 23.3653 42.1479 22.9909 42.3761C19.7077 44.3771 14.1972 43.2638 11.0508 41.5319C9.79649 40.8415 8.40252 39.6562 7.99335 38.2157C7.79676 37.5238 7.85052 36.8041 7.85033 36.0917L7.86594 34.2218C7.89051 33.4069 7.82146 32.5854 7.86787 31.7701C7.88287 31.5069 7.95538 31.2506 7.9753 30.9844C7.99841 30.6764 7.98299 30.3664 7.99518 30.0578L8.08958 28.9795L8.93034 23.8248C9.27243 22.2303 9.70283 20.6328 10.2026 19.0811L11.8919 14.1548C12.7125 11.9096 13.2133 11.3942 12.847 8.83425C12.791 8.44252 12.5404 7.5016 12.7329 7.17216L12.7471 7.149C12.8698 6.94407 13.0069 6.87052 13.2247 6.79969ZM24.6843 13.2076C24.744 13.9858 24.6605 14.6405 24.5102 15.4042L23.9251 18.2349C23.8091 18.924 23.7169 19.6265 23.6822 20.3249L23.6676 22.261C23.6686 23.9422 23.6652 25.2093 25.3835 26.0523C25.6894 26.2023 25.896 26.2834 25.9889 26.6373C26.0776 26.9751 25.8394 27.3192 25.5225 27.4132C25.1181 27.5331 24.5577 27.1998 24.2156 27.0007C22.3384 25.9083 22.2169 23.9009 22.2224 21.9638C22.2242 21.3511 22.1964 20.725 22.2332 20.1141C22.3295 18.5169 22.75 15.8749 23.256 14.3064L19.3328 14.3236C18.7262 14.3237 18.8918 14.2528 18.7338 14.8317L16.6004 22.3299C16.3047 23.2239 15.9277 23.8466 15.5737 24.6609C15.0408 25.8867 14.6293 27.1786 14.3366 28.4832L13.7334 31.9298C13.6844 32.292 13.6094 32.6566 13.5778 33.0206L13.5006 34.0236C13.4804 34.6855 13.4264 35.2782 13.3948 35.9223L13.3649 36.8993C13.3549 37.2313 13.2973 37.5623 13.2875 37.8983L13.2848 39.6217C13.2749 40.0833 13.1883 40.5244 13.1875 41.04C13.3133 41.1642 13.5534 41.2089 13.7205 41.2749C16.1693 42.2424 21.0982 42.6225 23.1 40.6029C23.2168 40.4851 23.3177 40.367 23.34 40.1981L23.3388 31.2061C23.3385 30.881 23.3113 30.536 23.3391 30.2138C23.3983 29.5268 24.5706 29.4557 24.6247 30.1265C24.6481 30.4165 24.6269 30.7264 24.6268 31.018L24.6256 39.8189C24.6257 39.9623 24.5991 40.1842 24.6368 40.32C24.6756 40.4598 25.5798 41.1502 25.7199 41.2411C26.8464 41.9715 28.1659 42.0267 29.4595 42.0271C31.4346 42.0278 31.9562 41.8848 33.8024 41.3836L34.4124 41.2125C34.5179 41.1835 34.6802 41.1689 34.7673 41.1054L34.7724 38.8365C34.7672 38.6731 34.731 38.5087 34.7237 38.3438L34.4057 32.9099C34.1242 29.9582 33.5039 27.0294 32.2667 24.3249L31.6893 23.0911C31.3241 22.198 31.0662 21.2369 30.803 20.309L29.0857 14.582C29.0564 14.4906 29.0507 14.4015 28.9908 14.3224L27.7769 14.3236C27.5536 14.324 27.3194 14.31 27.0981 14.3363L27.8563 17.6652C27.9698 18.2445 28.3329 19.22 27.5034 19.453C26.8791 19.6284 26.6789 18.9742 26.5463 18.5209L25.3435 14.8772C25.2613 14.6432 24.822 13.2963 24.6843 13.2076ZM32.2058 14.3229L30.3965 14.3435L30.4359 14.4902C30.466 14.6311 30.5346 14.7788 30.5785 14.9185L32.5221 21.4709C32.6348 21.9239 32.8331 22.4036 33.0204 22.8287L33.5034 23.8105C33.8373 24.5173 34.2254 25.5464 34.417 26.2966L35.0983 29.0182C35.2107 29.4057 35.2911 29.8123 35.3551 30.2101L35.8683 34.6551L35.9131 36.0123C35.9299 36.4804 35.9971 36.895 36.0005 37.4018L36.0655 39.6461C36.1023 40.4832 35.9023 40.5654 36.6862 40.0731C37.5675 39.4674 37.7003 39.3212 38.3113 38.539C38.6778 38.07 38.8344 38.0228 38.8361 37.3298L38.8293 32.852L38.6228 29.6686L38.0615 25.5853C37.8304 24.1974 37.51 22.7977 37.1352 21.4414L34.8912 14.6409C34.8539 14.5309 34.8567 14.4125 34.7746 14.3243L32.2058 14.3229ZM9.20113 32.9123L9.1611 37.055C9.1618 37.3621 9.14479 37.5531 9.26329 37.8356L9.38043 38.091C9.94049 39.0669 10.8664 39.9404 11.8833 40.4436C11.9664 39.8615 11.9184 39.2454 11.9282 38.6578L12.0096 35.7471C12.0172 35.5043 12.0656 35.2637 12.08 35.0207C12.2806 31.6279 12.8106 27.7211 14.1598 24.5715C14.4842 23.8141 14.9237 23.0973 15.199 22.3211L17.4976 14.3274L13.2656 14.3203C13.1762 14.4257 13.1421 14.6038 13.092 14.7353L11.7401 18.5948L10.6902 22.149L10.1635 24.4913C9.73635 26.5632 9.4761 28.1978 9.36815 30.2888L9.28419 31.3599C9.26493 31.8589 9.29858 32.3864 9.20751 32.8785L9.20113 32.9123ZM14.156 8.54166C14.1373 10.403 14.463 11.0608 13.8548 12.9607L22.7578 12.9592L22.7006 12.6724C22.666 12.4843 22.6714 12.2539 22.7275 12.0709L22.7395 12.0307C22.9723 11.287 23.8389 10.7841 24.5945 11.0284C25.4406 11.302 26.598 12.8799 26.9094 12.9014L32.9672 12.9605C33.3384 12.9598 33.7529 12.9961 34.1181 12.9432C33.6677 11.3613 33.7613 10.1443 33.8917 8.56341L32.4487 8.95678C29.5861 9.64721 27.5481 9.73252 24.6353 9.73411C22.7651 9.73514 20.9035 9.74639 19.04 9.56461L17.7871 9.42225C16.7378 9.25247 15.1758 8.86496 14.156 8.54166ZM9.38043 38.091L9.26329 37.8356C9.14479 37.5531 9.1618 37.3621 9.1611 37.055L9.20113 32.9123L9.15899 32.9057C9.15477 33.0799 9.14174 33.2339 9.14619 33.411L9.14404 37.4134C9.13879 37.533 9.11521 37.6417 9.14694 37.7582L9.1543 37.7949C9.1633 37.8335 9.17798 37.8534 9.19654 37.8871L9.20713 37.9099C9.23638 37.963 9.28443 37.9794 9.3043 38.0395L9.38043 38.091Z" fill="black"/>
<path d="M9.3806 38.0906L9.30448 38.039C9.2846 37.979 9.23656 37.9625 9.20731 37.9095L9.19671 37.8867C9.17815 37.853 9.16348 37.8331 9.15448 37.7944L9.14712 37.7578C9.11538 37.6412 9.13896 37.5325 9.14421 37.413L9.14637 33.4105C9.14192 33.2334 9.15495 33.0795 9.15917 32.9053L9.20131 32.9118L9.16128 37.0546C9.16198 37.3616 9.14496 37.5526 9.26346 37.8351L9.3806 38.0906Z" fill="black"/>
</svg>
