<svg width="48" height="48" viewBox="0 0 48 48" fill="none" xmlns="http://www.w3.org/2000/svg">
<path d="M13.3046 6.77832C13.6699 6.80401 14.028 7.02446 14.3563 7.17287C16.0305 7.92976 18.2691 8.11838 20.0818 8.27541C20.6511 8.32473 21.2127 8.39785 21.7851 8.41402L26.8718 8.35224C27.1232 8.34559 27.3727 8.30902 27.6233 8.28971L28.4231 8.23576C30.1538 8.04981 31.8965 7.8383 33.5372 7.2264C34.0302 7.04255 35.0509 6.39615 35.3582 7.18374L35.3713 7.21843C35.4571 7.43748 35.3826 7.67518 35.3455 7.89812L35.0701 9.65888C34.9633 10.6066 35.0985 11.5081 35.3427 12.4216C35.4841 12.9503 35.8057 13.3831 35.9995 13.8864L38.0493 19.9137C38.1179 20.2493 38.2508 20.5964 38.3438 20.9294L38.9414 23.5111C39.2142 24.5747 39.4062 25.668 39.5632 26.7536L39.8247 28.5498L40.0972 31.8142L40.1686 34.0516L40.174 36.9786C40.1712 40.23 36.6285 41.9251 33.9665 42.803C33.3932 42.9542 32.8238 43.1154 32.2383 43.2143L31.5955 43.3006C31.3389 43.3258 31.0868 43.3903 30.832 43.4043L29.71 43.4242C27.4722 43.446 25.812 43.2069 24.0432 41.6101C23.6839 41.8918 23.3274 42.1776 22.9318 42.4082C19.6382 44.3277 14.291 43.3113 11.1556 41.5905C9.85858 40.8787 8.40461 39.6683 7.99145 38.1904C7.8145 37.5573 7.84384 36.9309 7.84567 36.2809L7.89953 31.6118C7.91078 31.3581 7.97013 31.1106 7.98208 30.8542C8.06083 29.1615 8.22438 27.7774 8.51538 26.0856L8.93163 23.8005C9.33559 21.9511 9.84217 20.0959 10.4599 18.3066L11.8829 14.1647C12.1979 13.3063 12.6311 12.5166 12.825 11.613C13.0684 10.4778 12.9246 9.33474 12.7502 8.2028C12.6498 7.55115 12.5089 6.96624 13.3046 6.77832ZM22.9649 14.317L18.871 14.3227C18.8027 14.4213 18.8058 14.5888 18.7776 14.7052L17.4544 19.3918C17.0962 20.6062 16.8045 21.8396 16.3437 23.0209C16.1453 23.5294 15.8898 24.0002 15.6574 24.4919C14.5818 26.7675 14.0663 29.345 13.7485 31.8242L13.5914 32.9042L13.4738 35.0796C13.4591 35.2817 13.4195 35.4805 13.4088 35.6826L13.2883 37.8559L13.285 39.5856C13.275 40.0746 13.1897 40.5085 13.1934 41.0428C13.3 41.1537 13.4681 41.1719 13.6096 41.2292C16.1226 42.2476 21.0329 42.6237 23.0762 40.6312C23.2874 40.4251 23.3412 40.3607 23.3428 40.0741L23.3403 31.101C23.3401 30.8055 23.3087 30.487 23.3385 30.1944C23.4048 29.5429 24.5167 29.4521 24.6208 30.0911C24.651 30.2762 24.6262 30.5049 24.6263 30.6937L24.6259 39.9604C24.6265 40.4311 24.6262 40.3156 24.9666 40.6272C26.2194 41.7738 27.4254 42.0283 29.1274 42.0272C30.2274 42.0294 31.3247 42.0466 32.4023 41.785L34.3771 41.2225C34.519 41.1799 34.6613 41.1568 34.7928 41.0844L34.7715 38.8591C34.7671 38.68 34.7327 38.4989 34.7258 38.3183L34.4092 32.9192C34.1297 30.0124 33.5261 27.0772 32.3086 24.4087C32.0005 23.7336 31.6712 23.1044 31.4371 22.395L28.9189 14.3137L24.6542 14.3194C24.3418 15.5817 24.0946 16.8852 23.9233 18.1742L23.8773 18.677C23.8201 19.1302 23.7336 19.587 23.7031 20.0436C23.6448 20.9164 23.5634 23.6748 23.8594 24.4098L24.0106 24.7759C24.4944 25.9604 25.711 25.9199 25.968 26.5426L25.9868 26.583C26.1242 26.9079 25.8363 27.2996 25.5387 27.412C25.2125 27.5354 24.8432 27.3252 24.5551 27.1853C22.1628 26.0232 22.2165 23.7079 22.2244 21.4083C22.2297 19.868 22.3268 18.6836 22.6326 17.1433L23.0642 15.2575C23.141 14.9474 23.2531 14.6139 23.301 14.3004L22.9649 14.317ZM30.4317 14.3317L31.7895 19.1004C31.7969 19.1338 31.8077 19.1616 31.8197 19.1933L32.7689 22.195L33.8534 24.6677C33.8851 24.7593 33.9281 24.8445 33.9591 24.9372L34.2571 25.7563L34.8169 27.8923C34.8825 28.1081 34.9255 28.3337 34.9815 28.5524L35.2983 29.8591C35.4051 30.3565 35.4587 30.8679 35.5313 31.3708L35.8255 34.179C35.8349 34.3053 35.8621 34.4273 35.8695 34.5546L35.9144 36.0195C35.9263 36.2534 35.9798 36.4837 35.9857 36.7189L36.0078 38.9587C36.0192 39.283 36.0511 40.131 36.101 40.4009C36.6502 40.1704 37.3248 39.6985 37.7358 39.2657C37.9795 39.0225 38.1329 38.7634 38.3449 38.5003C38.8446 37.8802 38.8367 37.9039 38.8379 37.0172L38.8378 33.7641C38.837 32.8093 38.7672 31.8516 38.7171 30.8956L37.9591 25.0314L37.2156 21.7497C36.8229 20.281 36.3081 18.8338 35.8127 17.3968L34.9033 14.6713C34.7995 14.3523 34.8805 14.3192 34.5265 14.3193L30.4317 14.3317ZM9.20097 32.9815L9.16174 37.0711C9.16202 37.3019 9.11941 37.5531 9.22938 37.7645L9.33494 38.0007C10.0638 39.2732 10.6605 39.6127 11.8706 40.4295C11.9299 40.3871 11.8942 40.0513 11.8968 39.969L12.0115 35.6624C12.2217 31.9746 12.7832 27.6878 14.2765 24.302C14.5805 23.613 14.9778 22.9652 15.2234 22.2507L17.4955 14.3263L13.2767 14.3111C13.1456 14.477 13.0686 14.7841 12.9969 14.988L11.7408 18.5928L10.6795 22.1896L10.1239 24.6794L9.47022 28.5583C9.39761 29.1574 9.39348 29.7761 9.36381 30.3788L9.28478 31.4059C9.26739 31.9288 9.29313 32.4647 9.20097 32.9815ZM33.8868 8.56102L32.7899 8.8733C31.0919 9.30254 29.1666 9.70712 27.4007 9.72962L25.8338 9.73112C25.3491 9.73135 24.8828 9.69188 24.4155 9.8387C23.7487 10.0482 23.0996 10.9469 23.3448 11.6109L23.4971 11.9546C23.616 12.2357 23.8486 12.4239 24.0741 12.6159C24.9093 13.1089 25.2919 12.9525 26.2353 12.9527L32.3605 12.9523C32.9402 12.9522 33.539 12.9822 34.1167 12.9414C33.7997 11.9497 33.5782 10.3004 33.8042 9.33409C33.8558 9.11335 33.8937 8.78523 33.8868 8.56102ZM14.154 8.54241C14.1581 9.97651 14.3748 10.9262 13.984 12.4162C13.9371 12.5949 13.9187 12.7823 13.8541 12.956L22.5351 12.9182C21.8283 11.6276 21.7045 11.1823 22.4391 9.76126C21.8264 9.68673 21.1908 9.74565 20.572 9.6946C19.6707 9.62021 18.7593 9.56448 17.8643 9.43112C16.7991 9.27235 15.1728 8.85887 14.154 8.54241ZM9.33494 38.0007L9.22938 37.7645C9.11941 37.5531 9.16202 37.3019 9.16174 37.0711L9.20097 32.9815L9.15559 32.981C9.15433 33.0474 9.16511 33.1302 9.13202 33.1872L9.14523 37.28C9.13909 37.445 9.11491 37.5938 9.14805 37.7573L9.15522 37.7977C9.16309 37.8331 9.17889 37.8552 9.19586 37.8863L9.20744 37.9106C9.23369 37.9562 9.28736 37.9826 9.33494 38.0007Z" fill="black"/>
<path d="M9.33484 38.0011C9.28726 37.9831 9.23359 37.9567 9.20734 37.9111L9.19576 37.8867C9.17879 37.8557 9.16299 37.8336 9.15512 37.7981L9.14795 37.7578C9.11481 37.5943 9.13899 37.4454 9.14513 37.2805L9.13192 33.1876C9.16501 33.1307 9.15423 33.0479 9.15549 32.9814L9.20087 32.982L9.16163 37.0716C9.16192 37.3024 9.11931 37.5536 9.22927 37.7649L9.33484 38.0011Z" fill="black"/>
<path d="M25.4846 10.5971C26.5014 10.5144 26.8304 11.6381 25.893 11.9462C24.9203 12.1755 24.4932 10.9491 25.4846 10.5971Z" fill="black"/>
</svg>
