<svg width="48" height="48" viewBox="0 0 48 48" fill="none" xmlns="http://www.w3.org/2000/svg">
<path d="M21.6137 41.9482C21.3603 42.5205 21.276 43.595 20.5196 43.7488C19.9257 43.8696 18.6545 43.9352 17.9769 43.9593L14.0904 43.963C13.8651 43.9601 13.6239 43.967 13.4017 43.9282L10.9937 43.5521C9.16365 43.1136 7.28584 42.3088 5.76085 41.1852C4.73401 40.4286 4.8827 40.3235 4.96491 39.1772L5.17168 36.0788C5.18241 35.7086 5.23838 35.3383 5.27382 34.9684L5.74829 31.2767L6.27029 28.4852L7.06407 21.8298L7.58837 18.6859L8.39865 14.8622L9.62012 10.9005C9.71973 10.6088 9.68837 10.27 9.68874 9.96434L9.69034 5.03154C9.69216 3.83195 10.3676 4.02996 11.2507 4.02952L37.0995 4.0282C38.0825 3.97444 38.3139 4.27207 38.315 5.16471L38.3141 9.07873C38.3135 9.89965 38.2487 10.6562 38.5456 11.4394L39.484 14.4807L40.3213 18.0387C40.3699 18.1945 40.3829 18.3565 40.4102 18.517L40.5527 19.3424C40.8142 21.0026 40.997 22.5679 41.1941 24.2344C41.2589 24.7828 41.2659 25.3379 41.3443 25.8863L41.7133 28.1546L42.5158 31.898C42.6121 32.4127 42.648 32.9593 42.7055 33.4801C42.845 34.7442 42.585 36.1757 42.8112 37.3371L43.119 38.9915C43.1316 39.0766 43.1287 39.1674 43.1483 39.2509L43.1606 39.2972C43.2049 39.5003 43.1908 39.7424 43.196 39.9515C43.2113 40.5649 42.9661 40.6827 42.4954 41.0496C40.4666 42.6314 37.882 43.5304 35.3428 43.8434C35.1291 43.8698 34.8962 43.8632 34.6876 43.9106L34.6672 43.9158C34.4613 43.9628 34.2355 43.9594 34.0248 43.9622L30.396 43.9485C30.1574 43.9385 29.9309 43.9026 29.6954 43.8778L28.0546 43.688C27.0309 43.5213 26.8548 43.308 26.5225 42.3118C26.2212 41.4084 26.0344 40.4646 25.9089 39.5214L25.7034 37.6669C25.4813 35.9878 25.0673 34.4268 24.5289 32.822L24.1633 31.7535C24.1188 31.6129 24.0624 31.4739 24.0361 31.3285L24.0326 31.3079C23.9266 31.4863 23.8843 31.6765 23.8264 31.8733L22.9135 34.6347C22.8739 34.7729 22.8166 34.9084 22.7903 35.0502L21.6137 41.9482ZM11.1588 5.53873L11.1557 6.33884L14.6134 6.8426L17.5079 7.12709L20.6933 7.2986L27.4337 7.30151C27.6562 7.29551 27.8788 7.25131 28.1017 7.23945L30.2943 7.11485L35.9744 6.4617L36.8328 6.33673L36.8234 5.55096L11.1588 5.53873ZM11.1592 7.86527L11.1574 9.30973C11.3076 9.35895 11.4592 9.37235 11.6134 9.40184L12.5088 9.59726C14.4068 10.0099 16.3536 10.2085 18.2923 10.3159L20.1336 10.4017L27.3689 10.3977L29.3302 10.3181C29.5072 10.3102 29.6784 10.2715 29.8524 10.2601L32.0509 10.1125C33.6407 9.9642 35.2351 9.70938 36.7837 9.31601C36.8722 9.24185 36.8446 9.03663 36.8446 8.94495L36.8383 7.86738L32.1739 8.50029L29.0513 8.72628C28.8004 8.74109 28.5526 8.79335 28.3009 8.8017L24.9048 8.88162L21.5814 8.87459L17.7281 8.69032L12.4265 8.06726C12.0076 8.00913 11.5708 7.96324 11.1592 7.86527ZM11.1306 10.8418L9.60376 16.233C10.4842 16.5012 11.3718 16.7378 12.2845 16.8659L13.0087 16.9656C13.479 17.0117 13.9811 17.0715 14.4484 17.074L16.2792 17.1247L32.8052 17.1268L34.8033 17.066C34.9804 17.0577 35.1555 17.0276 35.3321 17.0143L38.5271 16.8034L38.0491 14.8059L37.2581 12.2392C37.124 11.7731 36.9864 11.3352 36.9227 10.8521C36.5901 10.9135 36.2649 11.0133 35.9354 11.0882L34.1368 11.4147L29.8923 11.8132C29.6649 11.8271 29.4421 11.8727 29.2139 11.8817L24.7429 11.9486L24.7283 13.8687C24.7284 14.0957 24.7629 14.3803 24.7193 14.5982C24.5679 15.3535 23.3765 15.3267 23.2589 14.5129C23.2215 14.2538 23.2527 13.9458 23.2532 13.6823L23.2521 11.9507L20.2914 11.9447C20.1009 11.9421 19.9133 11.9102 19.7233 11.9038L17.8939 11.8157C17.2177 11.7642 16.5303 11.7472 15.8567 11.6674C14.4987 11.5067 12.4248 11.293 11.1306 10.8418ZM9.29804 17.7878L6.41302 39.7926C6.80392 40.1465 7.3486 40.4249 7.80863 40.6845C9.75113 41.7806 11.8942 42.3257 14.1136 42.4455L17.4884 42.448L19.9372 42.304C20.4649 40.5183 20.5598 38.9977 20.8459 37.1781L21.5078 34.1775L22.694 30.4009C22.114 30.0473 20.3747 28.3155 20.176 27.5855L20.1691 27.5609C20.0081 26.9444 20.7252 26.3915 21.2597 26.7517C21.4767 26.898 21.6557 27.2301 21.8201 27.4383C22.176 27.8892 23.086 28.8894 23.5883 29.1223C23.981 28.9152 24.2914 28.7396 24.5999 29.1547C25.7271 28.47 26.8193 26.6784 27.1171 25.4607L27.2332 24.8974C27.5811 23.4244 27.0258 21.5294 26.3561 20.2366C26.0855 19.7141 25.7382 19.2231 25.5089 18.6813C25.426 18.627 25.0868 18.6598 24.9762 18.6597L14.4437 18.6462L12.9779 18.522C12.1817 18.427 11.3906 18.2647 10.6056 18.1045L9.66531 17.8895C9.5469 17.8577 9.40965 17.8349 9.29804 17.7878ZM38.6193 18.2902L27.2117 18.6815C27.4096 18.9243 28.1375 20.4986 28.2286 20.7888L28.7166 22.6021C28.8078 22.967 28.792 23.3865 28.7996 23.7593C28.8496 26.2161 27.482 29.1059 25.3738 30.4378L26.8504 35.5923C26.9241 35.8784 26.967 36.1833 27.0166 36.4751L27.4232 39.398C27.5045 40.0664 27.5554 40.7869 27.7881 41.422L27.8439 41.5974L27.8608 41.6448C28.0305 42.1084 27.9972 42.1473 28.4661 42.2226L30.3968 42.4034C30.5464 42.4138 30.6934 42.4427 30.8439 42.4489L33.707 42.4499C34.6358 42.4103 35.9439 42.293 36.8525 42.0335L37.9454 41.7147C38.8666 41.3972 39.773 40.9759 40.6105 40.4773L41.7221 39.7437L38.8685 18.2819C38.7974 18.2597 38.694 18.2834 38.6193 18.2902Z" fill="black"/>
</svg>
