<svg width="48" height="48" viewBox="0 0 48 48" fill="none" xmlns="http://www.w3.org/2000/svg">
<path d="M27.9841 35.3522L27.3731 33.8723C27.1285 33.2844 26.5866 31.4722 25.7477 31.7017L24.8169 31.9049C24.1809 32.0438 23.349 31.9378 22.728 31.799L22.3326 31.6976C21.5257 31.4738 21.0391 32.9003 20.7953 33.4466L19.5945 36.4686C19.2859 37.2529 18.2406 37.4528 17.5143 37.5834L16.0559 37.7937C14.1504 37.9893 9.1926 38.1966 8.15474 36.1559C7.97844 35.8092 7.87537 35.434 7.76502 35.0629L5.94121 27.4197C5.76093 26.5019 5.60001 25.3097 5.55402 24.3664L5.54736 23.0503C5.5469 21.1241 5.65532 19.7021 6.18557 17.7892C6.53174 16.5405 7.04572 15.3458 7.37132 14.0923C7.48719 13.646 7.42818 13.2013 7.44969 12.7491C7.50735 11.5387 8.4524 10.6072 9.60636 10.3711C9.90079 10.3108 10.8319 10.2612 11.1977 10.2479L13.5467 10.2339C13.7798 10.2311 13.9941 10.1676 14.2223 10.1584L16.0469 10.1436L33.7279 10.1589C34.2176 10.1707 34.6881 10.2353 35.1785 10.2367L36.3816 10.2422C36.9569 10.25 37.5211 10.3173 38.0975 10.3248C39.07 10.3374 40.123 11.049 40.397 11.9791L40.4602 12.1757C40.5178 12.3551 40.5495 12.5445 40.557 12.7334L40.5621 13.5216C40.5642 13.8812 40.6535 14.335 40.7961 14.6718L41.6085 17.105C41.694 17.5378 41.847 17.9688 41.9517 18.3983L42.3743 20.953C42.4482 21.5039 42.4666 22.0173 42.4676 22.5764L42.3855 25.0663C42.299 26.3694 42.2111 27.3573 41.9093 28.6171L40.3209 34.6694C40.2006 35.1022 40.1202 35.5753 39.9424 35.9883C39.3654 37.3285 37.6709 37.6613 36.3636 37.7879L34.395 37.8751C32.999 37.8764 31.8727 37.8433 30.4873 37.5895C28.4983 37.2252 28.6307 36.9833 27.9841 35.3522ZM19.5314 11.6652L17.6214 11.6919C18.0249 11.7418 18.4268 11.8385 18.8292 11.9031L21.09 12.1876C21.3062 12.2095 21.5263 12.1989 21.7432 12.2124L24.7002 12.2914C25.0767 12.2883 25.4408 12.2491 25.8155 12.223L27.6443 12.0817C27.7498 12.0696 28.0005 12.0026 28.0958 12.0263L30.3001 11.6828L19.5314 11.6652ZM9.93027 11.8928C9.23493 11.967 8.98874 12.3564 8.96235 13.0266C9.28752 13.2281 9.70902 13.3318 10.0707 13.4541C12.0389 14.1199 14.0804 14.5047 16.1239 14.8439L17.5779 15.0939L21.0234 15.4719C21.5369 15.5149 22.0479 15.574 22.5625 15.5773L25.9803 15.5662C26.1363 15.5579 26.2825 15.5211 26.4358 15.51L28.3006 15.3629L32.5598 14.7381C34.3762 14.4359 36.1981 14.0356 37.9511 13.464C38.2651 13.3724 38.8241 13.2393 39.0901 13.0406C38.9916 11.9432 38.3855 11.7974 37.4011 11.9348C36.0598 12.1221 34.74 12.4724 33.4078 12.7173C31.0878 13.1437 28.7612 13.5336 26.4085 13.7153L25.8834 13.7721L22.0159 13.7757C21.8383 13.7656 21.6687 13.726 21.4932 13.7105L17.5304 13.2118L11.9489 12.1792C11.3032 12.0453 10.593 11.8594 9.93027 11.8928ZM8.78582 14.5676C8.31196 16.0394 7.73793 17.5056 7.40919 19.0194L7.13066 20.7014C7.06771 21.1394 7.01183 21.5811 7.01085 22.0233L7.03621 24.5038C7.04366 24.6281 7.07141 24.7488 7.08299 24.8722L7.31732 26.6887C7.43708 27.3903 7.64629 28.1545 7.79591 28.8749L8.07524 30.0527C8.13744 30.2932 8.20368 30.8066 8.31538 30.996C9.84205 31.8344 11.5522 32.1863 13.2799 32.2652L14.9167 32.2742C15.5756 32.2734 16.2093 32.2687 16.8629 32.199L17.9759 32.0894C18.6294 32.0191 19.3224 31.9462 19.9548 31.762C20.1216 31.7134 20.153 31.5199 20.2342 31.3828C20.4422 31.032 20.7523 30.7211 21.0793 30.4825C20.9783 29.9252 20.8942 29.3747 20.7398 28.828L20.4594 27.8907C20.392 27.6743 20.3058 27.4535 20.2779 27.2273C20.1904 26.5177 21.2577 26.1992 21.6569 26.9999L21.9372 27.6498C22.08 28.2024 22.266 28.7389 22.3794 29.301L22.473 29.8423C22.4876 29.9496 22.487 30.0979 22.5339 30.1934C23.2609 30.422 24.0839 30.4544 24.8436 30.3875L24.8775 30.3848C25.0752 30.366 25.3112 30.2625 25.5 30.1973C25.5461 29.1531 25.9009 27.5373 26.2606 26.592C26.4974 25.9697 26.8838 25.4332 27.15 24.8288C27.908 23.1079 27.3409 21.5069 25.7956 20.5641C24.1523 19.5616 23.3028 19.2888 22.8643 17.1924C22.8243 17.0013 22.7568 17.0716 22.5584 17.0652L19.8745 16.8749C17.3682 16.6527 14.8373 16.2631 12.3899 15.671L9.36046 14.7853C9.17277 14.7175 8.96319 14.6573 8.78582 14.5676ZM39.1979 14.5897L39.1678 14.6049C38.3291 15.0205 37.3254 15.2258 36.4244 15.4515L35.0623 15.7989C32.2933 16.4093 29.4971 16.8082 26.6721 17.0342C25.9097 17.0952 25.1331 17.0138 24.3755 17.0848L24.3847 17.1052C24.461 17.2783 24.515 17.4689 24.5909 17.6467C25.291 19.2882 27.6745 19.0402 28.6882 21.7968L28.7056 21.8383C28.9195 22.3618 29.0451 23.5501 28.8876 24.1342L28.7624 24.6999C28.5303 25.588 28.1278 25.9947 27.8276 26.7494C27.608 27.3013 27.4123 27.8848 27.2818 28.4647L27.0779 29.4892L26.9888 30.5347C27.2413 30.6935 27.4734 30.9799 27.6491 31.2205L27.9115 31.6047C28.0525 31.8251 28.137 31.7803 28.3835 31.8193L29.5601 31.9713C30.0479 32.0123 30.536 32.0708 31.0248 32.0757L32.1711 32.0914C32.344 32.1008 32.5135 32.1349 32.687 32.1425L36.0883 32.0837C37.5693 31.9791 38.5611 31.6619 39.8453 30.8837C40.1944 29.9165 40.6232 27.7272 40.7774 26.6601L40.9779 24.5498L40.9975 23.0139C40.9918 20.3776 40.5744 18.7094 39.7803 16.297L39.457 15.276C39.3882 15.0519 39.3269 14.8074 39.2309 14.594L39.1979 14.5897ZM8.73608 32.867L9.40307 35.2259C9.45622 35.3788 9.48918 35.5175 9.56441 35.6625C10.7798 36.2981 12.2734 36.3892 13.6218 36.3921L16.3945 36.2296C16.9068 36.1635 17.4392 36.1055 17.9342 35.9505L18.2897 35.8141L18.4574 35.2322L19.1996 33.428C17.7119 33.8382 15.676 33.7814 14.1326 33.7762C12.5866 33.7711 10.0731 33.6153 8.73608 32.867ZM39.1372 32.9413C37.9554 33.4187 36.6933 33.6348 35.424 33.6368L32.1948 33.6315L29.9061 33.493C29.5154 33.4516 29.1261 33.4643 28.7354 33.4013L29.5692 35.3967L29.744 35.8547C30.653 36.1844 31.7549 36.3185 32.7215 36.3742L34.2396 36.3926C34.79 36.392 35.318 36.3838 35.8633 36.3261L36.7146 36.221C37.1377 36.1514 38.3318 35.9741 38.4958 35.4932L39.1982 32.9411C39.1474 32.9383 39.1676 32.9358 39.1372 32.9413Z" fill="black"/>
</svg>
