<svg width="48" height="48" viewBox="0 0 48 48" fill="none" xmlns="http://www.w3.org/2000/svg">
<path d="M32.215 39.703L29.7665 39.7014C29.3117 39.7005 28.8065 39.74 28.36 39.6583C25.8762 39.2038 25.5069 37.2709 25.022 35.2346C24.8601 34.5546 24.6767 33.8703 24.5717 33.1788L23.5176 33.1703C23.4371 33.3592 23.3898 33.5846 23.3424 33.7856L22.5722 36.862C22.2409 38.2128 21.1005 39.4101 19.6994 39.6316C19.2348 39.705 18.7717 39.7038 18.3033 39.7041L16.8494 39.7043C13.0454 39.7037 10.4594 39.8868 7.11061 37.8768C6.40073 37.4507 5.70768 36.9658 5.11598 36.3847C4.32618 35.609 4.29388 35.5389 4.51653 34.5573L5.52164 30.0043L8.15081 16.271C8.27686 15.5946 8.54395 14.5766 8.54587 13.9244L8.5454 10.242C8.54372 9.43998 8.2267 8.38998 9.24961 8.28264L37.7763 8.2967C38.5867 8.29703 39.4454 8.04705 39.446 9.17828L39.4485 13.9025C39.4512 14.2318 39.5107 14.4933 39.5778 14.8129L40.7813 21.5747L42.3757 29.5903L43.0717 32.6744C43.0931 32.7698 43.1026 32.8731 43.1324 32.9655L43.6548 35.2509C43.417 36.1278 42.4453 36.8191 41.7427 37.3231C39.342 39.0453 36.9872 39.6978 34.1035 39.7025L32.215 39.703ZM16.0489 9.69709L9.84407 9.69827L9.84126 11.0735L13.6336 11.0627C13.9196 11.057 14.1961 11.0025 14.4818 10.9982L16.8963 10.9812L20.0684 10.8027L22.2039 10.7219L26.8124 10.7845C27.3598 10.8094 27.9293 10.7578 28.4717 10.8279L31.8568 10.9904L38.1421 11.0685C38.2162 10.9098 38.1626 9.87522 38.1455 9.69123L16.0489 9.69709ZM22.6845 12.0768L9.84318 12.398L9.84197 13.5886C9.84445 14.1811 9.80564 14.0312 10.4181 14.0902L15.8804 14.6247L18.8673 14.7421C19.0562 14.7506 19.2387 14.7944 19.4298 14.8005L25.385 14.8092L29.3196 14.8009C29.5162 14.7938 29.7101 14.7504 29.9079 14.7415L32.3585 14.6212C32.4835 14.613 32.6052 14.5849 32.7296 14.5745L36.9728 14.1803C37.3561 14.1381 37.7588 14.1162 38.1382 14.0537C38.1819 13.6729 38.2177 12.7822 38.1459 12.3942L22.6845 12.0768ZM9.67378 15.3406L8.50275 21.9541C9.34233 22.066 10.1704 22.1636 10.9965 22.36C13.9872 23.0708 16.5651 24.6877 18.425 27.1252L19.505 28.6411C20.5315 30.0513 21.9984 31.8082 23.9047 31.7968C25.1105 31.7897 25.4085 31.6763 26.4517 30.8774C27.6351 29.9711 28.399 28.7139 29.2456 27.5189C31.4795 24.3653 34.8345 22.5711 38.6448 22.063C38.9293 22.0251 39.2142 22.0054 39.4965 21.9514L38.9469 18.9232L38.3573 15.3753L22.527 16.1956C22.4368 16.8714 22.4851 18.7252 22.5532 19.3654C22.7776 21.473 24.3812 23.1095 26.412 23.6176C26.537 23.6488 26.6648 23.653 26.7892 23.6902L26.8235 23.7001C27.7522 23.9808 27.5455 25.1821 26.5079 25.0152C23.7619 24.5734 21.4815 22.279 21.218 19.486C21.1766 19.0475 21.2086 18.5778 21.2085 18.1351L21.2093 16.147L9.67378 15.3406ZM8.23045 23.3093L7.98965 24.5096L9.1642 24.6812C11.8057 25.1384 14.4661 26.3816 16.142 28.5213C16.8322 29.4025 17.4282 30.3407 18.1828 31.174C19.2519 32.3548 20.4571 33.1986 21.8556 33.9345C21.872 33.9184 21.8881 33.9033 21.9025 33.8853L22.1714 32.803C19.7231 31.8666 18.4923 29.2955 16.9216 27.3752C14.7789 24.7555 11.5136 23.5623 8.23045 23.3093ZM39.507 23.3311C36.4132 23.5087 33.2207 24.9538 31.1654 27.2681C30.5134 28.0022 29.9995 28.8417 29.4337 29.6406C28.5352 30.9092 27.2512 32.1692 25.8334 32.7976L26.0943 33.9387C26.1604 33.938 26.2632 33.876 26.3217 33.8425C27.6977 33.105 28.8629 32.2429 29.8964 31.0745L31.7185 28.6905C33.5041 26.398 35.9774 25.2085 38.8126 24.6814L40.0096 24.5013L39.7816 23.3214L39.507 23.3311ZM7.79897 25.818C7.54275 26.771 7.37559 27.7397 7.17703 28.7057L5.8792 34.5792C5.84461 34.7485 5.77439 34.9377 5.76501 35.1088C5.95237 35.3906 6.27393 35.6351 6.53775 35.8465C8.53668 37.4488 10.7742 38.2799 13.3194 38.2925L19.5294 38.2952C21.1302 37.913 21.2189 36.5791 21.6015 35.2614C18.9192 34.1518 17.5162 32.5518 15.8401 30.3626L14.9502 29.1609C13.2064 27.036 10.4272 26.1966 7.79897 25.818ZM40.0186 25.8613C37.4577 26.1283 34.583 27.2631 32.9538 29.2868L32.1441 30.4003C30.9416 32.0015 29.7044 33.4556 27.946 34.4818L26.8495 35.0511C26.701 35.1212 26.5416 35.1728 26.3965 35.2481L26.7298 36.5585C26.9813 37.4574 27.6815 38.1576 28.6115 38.2976L34.5309 38.2937C37.2878 38.2878 40.0739 37.298 42.0441 35.3245L42.2495 35.1067L40.2459 25.8395L40.0186 25.8613Z" fill="black"/>
</svg>
