<svg width="48" height="48" viewBox="0 0 48 48" fill="none" xmlns="http://www.w3.org/2000/svg">
<path d="M28.3424 36.6834L27.9473 36.5173C25.9289 35.5446 26.3764 34.8529 25.9185 33.0505C25.7168 32.2568 25.4196 31.4987 25.1509 30.7268L23.9061 27.1568L22.6208 31.4048C22.4322 31.9946 22.1856 32.7819 22.0442 33.3862L21.8658 34.2389C21.8049 34.5918 21.7605 35.0182 21.5845 35.3369L21.5672 35.3674C20.9448 36.4852 17.4605 36.9757 16.0548 37.057L14.6723 37.0776C12.2916 37.0891 6.64413 36.6702 5.5683 33.9451C5.46888 33.6932 5.48473 33.434 5.48384 33.1687L5.50896 31.9338C5.58232 26.7742 7.22824 20.1854 9.41023 15.5073C9.54579 15.2167 9.44004 14.851 9.41763 14.5432C9.36349 13.7988 9.43835 10.919 10.3909 10.6686L36.9431 10.6668C37.602 10.6661 37.932 10.6185 38.1701 11.3643L38.3447 11.9651C38.6436 12.8961 38.6202 13.9606 38.5323 14.9299C38.5161 15.1091 38.4745 15.2566 38.5414 15.4325L39.0122 16.4645L40.2328 19.6946L41.2316 23.3323C41.3815 24.063 41.5549 24.8309 41.7194 25.5588L42.4772 30.7828L42.5131 32.8362C42.5143 33.1346 42.5731 33.5351 42.4819 33.8182L42.4691 33.8557C42.2806 34.4306 41.705 34.9915 41.2195 35.3323C38.4559 37.2721 32.6694 37.5476 29.2641 36.9312L28.3424 36.6834ZM10.9683 11.9819C10.7411 12.6725 10.6525 13.4131 10.6842 14.1384L37.0587 14.2682L37.3121 14.2538C37.3091 13.8442 37.2338 12.171 36.9988 11.9835L10.9683 11.9819ZM10.7618 15.4368L10.4623 16.348L14.7565 16.8135C14.9163 16.8302 15.0738 16.8666 15.234 16.8789L16.129 16.9055C16.4309 16.9236 16.7272 16.9766 17.0308 16.9884L18.5084 16.9981C18.7676 17.0039 19.0222 17.0573 19.2849 17.0597L20.2226 17.0632C20.8163 17.0657 21.3109 17.1189 21.9311 17.1101L29.4089 17.0604C29.6598 17.0548 29.9062 17.0065 30.1577 17.0013L32.2895 16.9785C32.5019 16.97 32.702 16.9279 32.9106 16.9126L36.211 16.6223C36.3688 16.5982 36.5296 16.5939 36.6864 16.5633C36.9493 16.5223 37.3202 16.5123 37.5595 16.4064C37.4953 16.2721 37.2659 15.5767 37.2273 15.5495L10.7618 15.4368ZM9.90096 17.5863C8.54909 20.7614 7.43248 25.3043 7.0308 28.737L6.77159 33.0193C6.77219 33.6377 6.79146 33.6265 7.25688 34.0265C8.30599 34.9283 9.72799 35.2585 11.0589 35.47L12.0469 35.6187C12.2779 35.6473 12.5156 35.6447 12.7481 35.6582L14.4235 35.722C14.8305 35.7223 15.2461 35.7392 15.6508 35.6952L16.793 35.616C17.4966 35.5417 19.8346 35.1479 20.4219 34.7187L20.5196 34.2364L20.6593 33.5357C20.6915 33.3902 20.7594 33.1596 20.7469 33.016C19.6207 33.3811 18.5456 33.5802 17.3524 33.6348L15.444 33.6418C13.6054 33.6406 12.1574 33.5087 10.3243 33.1253L9.34662 32.9081C8.40785 32.6859 8.34068 32.5893 8.34391 31.7201L8.35048 30.88C8.35502 30.5461 8.40771 30.2297 8.44821 29.9002L9.07038 26.8817C9.54907 25.1187 10.2079 23.403 10.8203 21.6839L12.1457 17.8932L10.8312 17.7307C10.5196 17.6916 10.2056 17.6685 9.90096 17.5863ZM38.0702 17.6838L36.8204 17.8766C36.5948 17.9132 36.3559 17.9284 36.1376 17.998L36.8282 19.6434C36.9854 20.0749 37.1984 20.4905 37.3344 20.9299L38.7562 25.432C39.1383 26.7177 39.9366 31.789 39.6498 32.3557C39.3664 32.9157 37.9963 33.0307 37.4415 33.1266C35.9925 33.3772 34.7754 33.4928 33.3107 33.4916L31.5665 33.476L27.9087 33.0059C27.6772 32.9599 27.4373 32.9203 27.2131 32.8456L27.4237 34.1135C27.4474 34.2865 27.4461 34.4086 27.5305 34.5661L27.5508 34.6085C28.5664 36.0232 32.182 35.968 33.8514 35.8928L35.183 35.8101C35.9299 35.7483 37.1379 35.5952 37.8701 35.3793L38.6433 35.1658C39.4862 34.8965 40.3892 34.4728 40.9829 33.7979C41.4453 33.2723 41.2526 33.2159 41.2505 32.4406C41.2407 28.9417 40.3822 24.8705 39.4254 21.5377L38.879 19.6952L38.0702 17.6838ZM13.5099 18.0818C13.3072 18.5169 13.1644 18.9774 13.0065 19.4299L10.9291 25.2927C10.4959 26.5814 10.0748 27.8949 9.84537 29.2385L9.63166 31.1856C9.60691 31.6888 9.53126 31.597 10.0313 31.7148L11.4962 32.0057C13.0102 32.2807 14.4844 32.4466 16.0251 32.4469L16.9643 32.4389C18.0714 32.3785 19.2817 32.2225 20.3021 31.7889C20.5909 31.6661 20.8985 31.3842 21.2156 31.4222L21.2764 31.3992C21.3791 30.9426 21.553 30.4743 21.6946 30.0271L23.077 25.1573C23.1725 24.8553 23.2235 24.3646 23.5264 24.1886L23.6045 24.1495C23.9737 23.9788 24.3444 24.2058 24.4841 24.5561L24.9862 26.2502L26.731 31.3136C26.7409 31.3481 26.7516 31.3767 26.7671 31.4088L27.0754 31.5039L30.7521 32.0988C32.2149 32.251 33.7513 32.2401 35.2178 32.0974L37.9789 31.6807C38.1192 31.6562 38.2517 31.6158 38.3944 31.6035C38.1712 28.7166 37.7728 26.4495 36.8755 23.6425L36.4444 22.3105L34.7832 18.1394L33.8111 18.2028C32.9104 18.3024 32.2291 18.288 31.329 18.313L30.1902 18.3921L18.8317 18.3944L14.8747 18.184C14.4274 18.1567 13.9506 18.1566 13.5099 18.0818Z" fill="black"/>
</svg>
