<svg width="48" height="48" viewBox="0 0 48 48" fill="none" xmlns="http://www.w3.org/2000/svg">
<path d="M32.5254 36.5595C31.9092 36.5358 31.2904 36.444 30.6754 36.3915C29.4808 36.2896 28.2726 36.3616 27.1825 35.7617C26.6703 35.4798 25.9618 35.0793 25.7177 34.5234C25.2238 33.3991 25.6223 32.2602 24.4375 31.3238C24.3534 31.2573 24.1657 31.168 24.1057 31.0897C24.0683 31.0407 24.0975 30.9795 24.0333 30.9448L24 31.0546C23.9672 31.1446 23.8846 31.1524 23.8033 31.1956C22.5461 31.8635 22.6482 33.3958 22.2989 34.4844C21.7918 36.0645 19.1336 36.5039 17.6393 36.571L13.8442 36.5995L12.1523 36.4831C10.4691 36.3456 8.8046 36.1022 7.34964 35.2006C7.10688 35.0502 6.83308 34.9087 6.71018 34.6354C6.63518 34.4688 6.6603 29.7437 6.68088 29.1327C6.72236 27.9022 7.11063 26.6418 7.39202 25.4514L9.23027 17.0356C9.46347 16.1475 9.48775 16.0231 9.48822 15.0466L9.48902 12.1049C9.48921 11.7567 9.58099 11.5225 9.94319 11.3957L37.4632 11.3977C37.8276 11.3976 38.209 11.3142 38.4268 11.6865L38.4384 11.7069C38.5265 11.8495 38.5195 11.9948 38.5242 12.1576L38.5303 14.9219C38.5308 15.3149 38.4943 15.7517 38.571 16.1363L40.1601 23.4617C40.2418 23.7912 40.3405 24.1394 40.3949 24.474L40.9765 26.9986C41.1969 27.6447 41.1681 28.3102 41.2714 28.9707L41.3206 34.145C41.3202 34.4588 41.3729 34.6621 41.1341 34.8977C40.7556 35.2711 40.201 35.523 39.7202 35.7335C37.8633 36.5464 36.7102 36.5646 34.7803 36.5653L32.5254 36.5595ZM10.7132 12.6363C10.6879 12.8136 10.6456 13.1734 10.7083 13.3353L37.2822 13.3347L37.2864 12.6395L10.7132 12.6363ZM10.7106 14.5822L10.6845 15.7028L37.2972 15.7122L37.2863 14.5878L10.7106 14.5822ZM11.066 16.9258L10.5163 16.9357L10.4171 17.401C10.3092 17.7822 10.267 18.1794 10.1854 18.5656L8.69388 25.3592C8.30336 27.006 7.92232 28.2819 7.9203 29.9801L7.92086 33.1655C7.92119 33.4834 7.90943 33.8068 7.93314 34.1239C8.85935 34.7911 11.0637 35.1721 12.2771 35.2524L13.1466 35.2807C13.2976 35.2883 13.4455 35.3221 13.5965 35.3284L17.702 35.2769C17.955 35.2632 18.2086 35.2732 18.4599 35.2335L19.06 35.1332C19.6856 34.983 20.6912 34.7267 21.0663 34.1366C21.2243 33.8881 21.3671 32.6681 21.5005 32.2704C21.7837 31.4262 22.0267 31.261 22.4459 30.631L22.4113 30.6173C22.0216 30.458 21.6374 30.1776 21.3078 29.9179C19.1765 28.2392 18.5408 26.3443 18.3638 23.7819L18.1922 21.1613L18.1788 17.663C18.178 17.4228 18.1957 17.1643 18.1681 16.9264L11.066 16.9258ZM20.2042 16.9229L19.4108 16.9299L19.4114 19.8434C19.4178 20.1298 19.4686 20.4121 19.476 20.6985L19.4914 22.3241C19.5016 22.5213 19.5533 22.7047 19.5646 22.9039L19.6564 24.2122C19.8629 26.7109 21.0265 28.5503 23.3232 29.6835C23.4861 29.7638 23.6082 29.8509 23.7433 29.9737C23.9502 29.8707 23.9995 29.8483 24.1852 29.9914C24.8922 29.4557 25.6023 29.204 26.3446 28.5629C27.7536 27.2626 28.3308 25.4879 28.4088 23.622L28.5325 20.2028C28.5368 19.9997 28.5735 19.8011 28.5783 19.5975L28.5739 16.925L20.2042 16.9229ZM29.8252 16.9229L29.8017 20.9764C29.7944 21.3296 29.7363 21.6784 29.7223 22.0311L29.6365 23.9237C29.4255 26.8471 28.2984 29.192 25.5797 30.6278C26.0286 31.1401 26.4163 31.8087 26.5399 32.4886L26.8067 33.8185C26.8297 34.001 26.9423 34.1053 27.0803 34.2103C27.9133 34.8443 28.7439 35.0286 29.7746 35.0979L31.1569 35.1886C31.3053 35.1982 31.4432 35.2335 31.5906 35.2435L33.1433 35.2853C33.2928 35.2898 33.4376 35.3242 33.5869 35.3313L35.7948 35.2777C37.1518 35.2689 38.2985 35.0393 39.5365 34.4231C39.8418 34.2713 40.0762 34.2469 40.0813 33.9234L40.0887 30.6741C40.0893 28.7018 39.8684 27.8171 39.4296 25.8741L37.519 17.1523C37.5081 17.0823 37.5093 16.9797 37.4678 16.9238L29.8252 16.9229Z" fill="black"/>
</svg>
