<svg width="48" height="48" viewBox="0 0 48 48" fill="none" xmlns="http://www.w3.org/2000/svg">
<path d="M33.9911 37.0203L29.9852 38.9631C28.1181 39.7458 28.103 39.3137 27.4444 37.8678L26.0115 34.6878C25.2753 34.5949 24.5798 34.2542 24.1059 33.6761C23.5006 34.2372 22.8534 34.538 22.0522 34.7186C21.7987 34.9935 21.5179 35.755 21.3605 36.1019L20.2198 38.5681C19.8382 39.4383 19.5025 39.4628 18.6562 39.1936L18.0702 38.9994C17.1299 38.6606 16.2394 38.1682 15.3515 37.7129L12.505 36.2231C10.5319 35.1659 8.59709 34.1692 6.45195 33.5042L5.5076 33.2527C3.75972 32.859 3.40146 32.3898 3.5565 30.4903C3.64155 29.4482 3.80472 28.4426 4.03698 27.4232C4.19806 26.7163 4.24215 26.4725 4.24197 25.722L4.24134 24.1558C4.24373 23.8937 4.28302 23.6399 4.29921 23.3792C4.47108 20.6132 5.03698 17.7231 6.01127 15.1252L7.08781 12.5738C7.27695 12.1668 7.24043 12.1666 7.24099 11.7036L7.24095 9.95359C7.24052 9.35898 7.08448 8.73953 7.82946 8.55723C8.07513 8.54195 8.35095 8.64189 8.58827 8.70133L10.8596 9.16909L15.9958 9.93334L17.8286 10.1215L21.1873 10.3195L26.7647 10.32L33.4746 9.7494L38.121 8.99828L39.936 8.59389C40.256 8.5308 40.6444 8.65164 40.7127 9.01473L40.7171 9.03995C40.7747 9.31965 40.7423 9.65312 40.7426 9.93962L40.7445 11.605C40.7456 12.0066 40.7039 12.0583 40.8605 12.4174L41.1562 13.1371C41.5694 14.0288 41.8796 14.96 42.2022 15.8851L42.8333 18.1111C42.8438 18.1819 42.8709 18.2373 42.8892 18.305L43.2671 20.0628C43.4426 20.8893 43.4938 21.746 43.6006 22.5824L43.7363 23.8678C43.7644 24.3181 43.6672 26.4482 43.7945 26.7261C44.0863 27.363 44.6715 30.9791 44.4499 31.7787L44.3987 31.9659C44.1369 32.7521 43.5677 33.0389 42.8203 33.2019L42.0459 33.3915C40.0987 33.9332 38.2686 34.7815 36.4796 35.7121L33.9911 37.0203ZM8.51023 10.0052L8.50995 11.424C8.95034 11.8709 14.4232 12.7808 15.1721 12.8762L17.0388 13.1199L20.6069 13.408L25.7431 13.5074C26.0236 13.4984 26.2995 13.4477 26.5787 13.4327L27.728 13.4039C27.8614 13.3958 27.9866 13.3622 28.1177 13.3528L32.6341 12.9313L36.9726 12.1614C37.7082 11.9958 38.4704 11.8064 39.1865 11.5699L39.4815 11.4984L39.4575 10.0375C38.1956 10.3673 36.8968 10.5119 35.6142 10.7247L32.3646 11.221L27.3435 11.6461L21.0816 11.6572C20.8983 11.6497 20.7156 11.6184 20.5325 11.6043L17.3989 11.395L11.8142 10.6383L9.2532 10.1665C9.00977 10.1139 8.74784 10.0746 8.51023 10.0052ZM8.35929 12.7792C8.2002 13.2434 7.98054 13.6961 7.78198 14.1449L7.31979 15.2852C6.94695 16.25 6.66837 17.2476 6.40962 18.2464L6.11112 19.4649C5.89057 20.5079 5.7507 21.5824 5.62681 22.641C5.51398 23.6055 5.43101 24.8387 5.51065 25.777C5.83301 25.8223 6.15026 25.9024 6.46868 25.9699L8.72229 26.5399C12.1582 27.5748 15.065 29.0131 18.0724 30.948L20.9633 32.9579C21.1855 33.1057 21.4278 33.2385 21.6796 33.3273L21.7185 33.3416C21.8639 33.3934 22.0234 33.4102 22.1752 33.3842L22.201 33.3803C22.5859 33.3152 23.0897 32.8933 23.3321 32.5931L23.0507 31.1599C22.404 28.3359 21.4061 26.5908 19.4024 24.5426C19.1275 24.2616 18.786 24.0365 18.5545 23.7185C17.5378 22.3218 17.032 19.6155 16.9489 17.9381L16.9427 15.0534C16.9427 14.8444 16.9629 14.6107 16.9365 14.4047C16.2753 14.3625 15.6101 14.249 14.9531 14.1647L11.6071 13.6098C10.5167 13.3945 9.40709 13.1532 8.35929 12.7792ZM39.6003 12.7855C37.6734 13.4798 35.5711 13.8151 33.5566 14.1239L31.297 14.3858C31.2236 14.3936 31.0886 14.3917 31.03 14.4308L31.0107 17.5919C31.0106 18.0449 31.0292 18.51 30.9946 18.9617C30.8697 20.5914 30.1728 22.982 28.915 24.139C28.5096 24.5118 28.0686 24.8248 27.6814 25.2216C26.3375 26.5986 25.6049 28.4124 25.5052 30.322C25.4528 31.326 25.9117 32.0771 25.2245 32.8616C25.0747 33.0327 25.9506 33.3926 26.1028 33.4199C26.5384 33.2884 26.957 33.0094 27.324 32.7437L30.9563 30.2783C33.9372 28.4072 37.2094 26.9796 40.6406 26.1804C41.2535 26.0376 41.8779 25.9661 42.4935 25.8473L42.4838 24.1409C42.4588 23.6072 42.3815 23.0678 42.3231 22.5362L42.1757 21.1946C41.8837 19.2986 41.4245 17.4324 40.7782 15.6258L40.2493 14.3149C40.0488 13.8122 39.8817 13.2785 39.6547 12.7891L39.6003 12.7855ZM18.2118 14.5293C18.1857 14.8339 18.2344 15.1291 18.225 15.4328C18.1513 17.8023 18.227 20.9154 19.5994 22.9117C19.7767 23.1695 20.0569 23.4009 20.2843 23.6176L20.8856 24.2312C21.9942 25.3956 23.4136 27.4394 23.8046 29.0416C23.9283 29.5484 24.0806 30.2101 24.2233 30.6899C24.2806 30.1803 24.2544 29.6473 24.3384 29.1449C24.5118 28.1065 24.8437 26.9245 25.458 26.0458C25.9359 25.2251 26.579 24.4457 27.2771 23.8046C27.5449 23.5586 27.8547 23.353 28.1092 23.0945C29.5151 21.6668 29.7642 19.135 29.7697 17.1954L29.7818 14.5743L27.7189 14.7254C27.4072 14.7461 27.0951 14.7958 26.7837 14.806L21.5625 14.8071L19.0493 14.6215C18.7731 14.5986 18.4827 14.5898 18.2118 14.5293ZM5.41938 27.0859C5.12693 28.2519 4.94768 29.4422 4.83443 30.6371C4.80452 30.9529 4.62434 31.5802 4.96999 31.7762L5.00206 31.7948C5.07762 31.8377 5.14259 31.8627 5.22649 31.8823L6.19498 32.1007C7.5836 32.463 8.93777 32.9978 10.2388 33.598L15.5469 36.3611C16.0399 36.6179 18.6245 37.9483 19.0493 37.9742L19.3945 37.2527L20.7864 34.3527C20.2523 34.0583 19.7883 33.7071 19.2888 33.3633L15.0979 30.6507C12.7959 29.3498 10.3652 28.3366 7.81498 27.6324L6.17004 27.2406C5.92029 27.1869 5.6666 27.1512 5.41938 27.0859ZM42.5333 27.1474C40.4107 27.5389 38.3066 28.092 36.3206 28.948L35.2502 29.4489C33.9248 30.0641 32.6551 30.7387 31.4267 31.5333L29.6917 32.6947C28.8896 33.2597 28.1043 33.845 27.2509 34.3319L28.6049 37.343L28.9146 37.9922C29.5798 37.8456 30.9867 37.0817 31.6204 36.7621L34.2907 35.4062C36.4401 34.2668 38.5888 33.0652 40.9335 32.3695L42.3515 31.971C43.403 31.7069 43.2814 31.757 43.1571 30.5473C43.0388 29.3968 42.8818 28.2788 42.621 27.1501C42.5774 27.1378 42.5816 27.1349 42.5333 27.1474Z" fill="black"/>
</svg>
