<svg width="48" height="48" viewBox="0 0 48 48" fill="none" xmlns="http://www.w3.org/2000/svg">
<path d="M40.1336 36.2272L38.0645 37.0769C36.0623 37.8899 34.001 38.6698 31.8752 39.092C30.9491 39.276 28.7129 39.5896 27.7735 39.397L27.504 39.3549C26.5464 39.196 26.4364 38.9617 26.1897 38.1317L25.8429 36.9672C25.3937 35.4923 24.9095 34.1206 24.0101 32.8486C23.3268 33.8062 22.7932 34.9483 22.4337 36.0649L21.8679 37.9972C21.7939 38.2502 21.7588 38.6037 21.6059 38.8168C21.1902 39.3963 20.204 39.4258 19.5389 39.4276L18.3611 39.3878C14.6429 39.1142 11.2496 37.6229 7.85173 36.213L5.06267 34.9936C4.17502 34.5925 3.12945 34.4708 3.37199 33.3401L4.97703 26.9844L5.51009 25.3312C6.09083 23.6767 6.45926 22.5009 6.56994 20.7262L6.58948 19.6843C6.64728 18.2893 6.89014 16.9024 7.37136 15.5897L7.61886 14.9534C7.7285 14.6959 7.75508 14.6118 7.75405 14.3334L7.75311 9.94393C7.75972 8.29454 8.7904 7.53854 10.2951 7.4873L37.6811 7.49668C37.8743 7.49701 38.124 7.4694 38.3091 7.52448C39.376 7.84177 40.2153 8.48762 40.2717 9.70337L40.2785 11.0035C40.2784 11.3566 40.3715 11.7519 40.122 12.0354L40.0716 12.0929C39.7868 12.3998 39.3419 12.4186 38.9579 12.4938L36.715 12.8446C34.6833 13.1439 32.6344 13.3869 30.5831 13.5024L29.4439 13.5745L29.4347 15.1151L32.395 15.0391C33.7675 14.9465 35.1415 14.7991 36.4924 14.532L38.5119 14.0701C39.5763 13.7974 39.7515 13.6362 40.2336 14.7022C40.7963 15.9465 41.1427 17.2277 41.2979 18.5862L41.7127 22.59C41.831 23.1787 41.9713 23.7458 42.1528 24.3199L43.3903 28.261C43.4984 28.8351 43.7116 29.4154 43.8359 29.9899L44.6202 33.3172C44.7191 33.7624 44.8004 34.0434 44.3422 34.3428C43.9428 34.6038 43.4345 34.7726 42.9963 34.9693L40.1336 36.2272ZM15.6704 8.94165C14.9946 8.94174 9.84523 8.87682 9.63397 9.01487C9.06706 9.38527 9.1819 9.91168 9.18162 10.4953C9.18158 10.6619 9.15434 10.8812 9.19386 11.0418L18.47 12.0634C18.8682 12.1144 19.2891 12.1724 19.6893 12.193L21.8811 12.288L26.075 12.295C26.2876 12.2885 26.486 12.2334 26.695 12.2219L28.1181 12.2035L31.7695 11.9254C31.8364 11.9188 32.0245 11.9231 32.0682 11.8959L38.508 11.0876C38.6148 11.0707 38.7331 11.0794 38.833 11.0357L38.8325 10.1673C38.8318 9.9369 38.8704 9.65307 38.7541 9.44705L38.738 9.41729C38.6535 9.26434 38.5427 9.16651 38.4025 9.0691L38.3677 9.04459C38.2525 8.96499 38.1725 8.95491 38.0347 8.94807L15.6704 8.94165ZM9.19611 12.4918L9.18073 13.9974C9.28611 14.0634 9.40147 14.0731 9.52058 14.1019L10.1144 14.2585C11.9238 14.7242 14.1538 15.038 16.0388 15.1045L18.5132 15.1038L18.5081 13.5769C15.9619 13.3482 13.3997 13.1771 10.8735 12.7685L9.65862 12.5798C9.50722 12.5525 9.34269 12.5361 9.19611 12.4918ZM19.9533 13.6935L19.9493 14.6248C19.9516 14.7822 19.9422 14.9563 19.9638 15.1114L21.1913 15.1112C21.5013 15.1115 21.8409 15.0428 22.0761 15.2958L22.1369 15.374C22.3216 15.6201 22.2747 15.8788 22.2788 16.1747L22.2924 21.6882C22.2929 21.9276 22.2848 22.1539 22.3478 22.387L22.5088 23.1668C22.5337 23.2836 22.5826 23.4223 22.6291 23.5306L22.896 24.176C23.6661 25.9134 25.3418 25.8926 25.6444 26.5315L25.6562 26.5535C25.8121 26.8566 25.5963 27.2783 25.3095 27.4106L25.2493 27.4383C24.9228 27.5835 24.3486 27.3326 24.0424 27.2065C22.3852 26.524 21.3248 24.7938 21.0331 23.0747C20.9588 22.6369 20.9142 22.2171 20.9121 21.773L20.9118 16.5794C17.0172 16.5397 14.0721 16.6938 10.2306 15.8191L8.948 15.48C8.10997 17.4534 8.10955 18.6075 8.02245 20.5997C7.93395 22.6239 7.58928 23.7626 6.93748 25.6268L6.09584 28.2893L4.85909 33.2884C5.14372 33.5001 5.53545 33.631 5.86123 33.7753L7.65069 34.5518C11.1444 36.038 15.3213 37.9664 19.2045 37.9701C19.5488 37.9704 20.0328 38.057 20.3556 37.9296L20.426 37.8806C20.9697 35.7181 21.6115 33.702 22.9575 31.8973C23.1857 31.5915 23.4204 31.1199 23.8244 31.0279L23.8524 31.0212C24.0087 30.9866 24.1955 31.0182 24.3357 31.0936L24.3626 31.1078C25.1608 31.5584 26.3581 34.0696 26.6758 34.8987L27.518 37.5706C27.563 37.6991 27.5961 37.8138 27.6595 37.936C31.3506 38.4332 36.8529 36.0341 40.1663 34.6335L42.7347 33.5062C42.857 33.45 43.0176 33.3933 43.1239 33.3132L41.6405 27.3422L40.9946 25.3798C40.3712 23.5744 40.1251 22.272 39.9689 20.3397C39.8347 18.6782 39.815 17.6245 39.2376 16.0335C39.1661 15.8364 39.0556 15.6346 38.9971 15.4368L37.8339 15.7665C36.9868 15.9735 36.0982 16.1235 35.2362 16.2541L33.3985 16.4735L31.4279 16.5706L27.2914 16.5756C27.0725 16.5754 26.7254 16.6219 26.5344 16.5056L26.4826 16.4752C25.9652 16.181 25.9511 15.2533 26.6044 15.1192C26.7395 15.0915 26.9167 15.1108 27.0554 15.1106L28.0105 15.1085C28.0709 14.9226 28.0353 13.8766 28.0111 13.6921L26.6369 13.6984C26.4372 13.7056 26.242 13.7498 26.0392 13.7535L20.5512 13.6876C20.3658 13.6842 20.129 13.6502 19.9533 13.6935Z" fill="black"/>
<path d="M24.2801 22.1045C23.3421 22.1212 23.4606 21.0668 23.4597 20.404L23.4596 16.5637C23.4603 15.9906 23.3035 15.2169 24.0886 15.1007L24.1877 15.0977C24.8639 15.1242 24.8753 15.7917 24.8796 16.2678L24.8791 20.5461C24.8739 20.8956 24.9827 21.466 24.7713 21.7658L24.7491 21.7968C24.6328 21.9608 24.47 22.0498 24.2801 22.1045Z" fill="black"/>
</svg>
