<svg width="48" height="48" viewBox="0 0 48 48" fill="none" xmlns="http://www.w3.org/2000/svg">
<path d="M28.0983 23.3946L27.3403 18.9198C27.2278 18.4184 27.2855 17.8213 27.2846 17.3057L27.2815 14.5514C27.0905 14.5194 26.8612 14.5425 26.666 14.5428L20.7152 14.5698C20.6918 14.6384 20.7073 14.7763 20.7085 14.8514L20.7092 18.2898C20.6932 19.3084 20.4891 20.3474 20.3021 21.348L19.9192 23.3423C19.8401 23.9257 19.7909 24.6501 19.984 25.2228L20.1577 25.7692C20.5295 26.804 21.3027 27.6139 22.2632 28.1365C23.5874 28.857 23.5865 28.5268 23.1827 30.0114L21.4886 35.961C21.431 36.2029 21.4271 36.4751 21.3857 36.7236C20.7198 40.725 14.497 39.8541 11.7137 39.2033C10.0248 38.8084 8.42881 38.1263 6.84627 37.4337L5.79641 36.9591C4.18456 36.2438 4.13199 36.3992 4.46839 34.5929L5.60689 28.6286L6.13911 24.6079L7.28075 18.7423L8.17175 15.5819L8.95766 13.3869C9.10864 13.0042 8.78206 13.0734 8.74372 12.7233C8.72675 12.5687 8.73936 12.4013 8.73903 12.2456L8.73899 10.0014C8.73955 9.64424 8.67524 9.33829 8.92002 9.04795C9.37306 8.51071 10.2801 8.3587 10.9401 8.28262L35.842 8.26855C36.8154 8.26902 39.2467 8.31191 39.253 9.62329L39.2546 11.8967C39.2542 12.2618 39.3807 12.8365 39.0809 13.119L38.9985 13.195L40.3284 17.2581L40.9576 19.7988C40.9925 20.0109 41.062 20.2262 41.1032 20.4387L41.6784 23.4998L43.0116 32.6247C43.0199 32.7136 43.0852 33.1614 43.1122 33.2549L43.6988 35.2914C43.8299 35.6542 43.5308 36.1268 43.3169 36.4047C42.0195 38.0908 38.5761 39.3017 36.5951 39.625L35.9992 39.6989C35.5857 39.7577 35.1504 39.7314 34.7327 39.7315L30.9388 39.7307C29.1906 39.7292 27.7111 39.3403 26.9207 37.561C26.7159 37.1 26.6368 36.6195 26.5254 36.1323L24.7886 29.9017C24.4513 28.6757 24.4716 28.7126 25.4877 28.2566C27.4432 27.3792 28.3051 25.4324 28.0983 23.3946ZM13.3159 9.59699L11.9836 9.60435C11.4748 9.60323 10.9773 9.59648 10.4713 9.66295C11.9289 10.1021 12.8651 10.2069 14.4 10.3413L16.254 10.5071L31.9737 10.5088C32.2237 10.4995 32.4719 10.457 32.7214 10.4373L34.4976 10.2824C34.9939 10.205 35.5036 10.1902 35.9956 10.0874L36.8256 9.88912C37.0196 9.83507 37.2165 9.75079 37.4166 9.72918C37.1748 9.60534 36.5808 9.61016 36.3145 9.60252L13.3159 9.59699ZM10.0026 10.863L10.0081 12.0331C10.1646 12.0989 10.3173 12.0971 10.4797 12.1367C11.8792 12.4784 13.336 12.6473 14.7691 12.7765L18.5521 13.0746C18.7303 13.0862 18.9036 13.1229 19.0847 13.1314L22.1639 13.214L25.6366 13.2215C26.4575 13.2193 27.173 13.1886 27.9768 13.16L29.4817 13.1259C29.6848 13.1132 29.8811 13.0715 30.0849 13.0573L33.7751 12.7359L37.9058 12.0817L37.9564 12.0808L37.9062 10.8721C37.3309 11.2731 34.9824 11.5611 34.2688 11.6269L33.0118 11.7471L28.8795 11.8829L16.7677 11.8269C16.6274 11.822 16.4893 11.7975 16.349 11.7936L15.4673 11.7777C13.7397 11.679 11.678 11.5214 10.0482 10.8703C10.0226 10.8601 10.0326 10.8631 10.0026 10.863ZM10.3083 13.4308L9.2901 16.3663C8.69928 18.2775 8.26714 20.223 7.87649 22.1833L7.2103 26.3587C7.12808 27.0079 7.10994 27.6767 6.9928 28.3202L6.25044 32.1911C6.21767 32.3614 6.14853 32.5436 6.15069 32.7168C8.59574 34.2232 11.6536 35.4678 14.5075 35.6592L16.4528 35.6943C17.1425 35.693 17.8455 35.7054 18.5334 35.6545L20.2494 35.4753L21.9586 29.4709C20.3672 28.757 19.0514 27.0881 18.6945 25.4051L18.6064 24.8668C18.5328 24.5187 18.5569 23.5609 18.6291 23.2338L19.3811 18.4896C19.4473 18.0502 19.4131 17.5681 19.4135 17.1238L19.4204 14.4368L17.7024 14.3515C17.0832 14.3208 16.4702 14.2908 15.8538 14.2211L13.9772 14.0292C13.0977 13.9422 12.2063 13.7894 11.3382 13.6231C11.0036 13.559 10.6337 13.5294 10.3083 13.4308ZM37.6424 13.4646L28.5688 14.4608L28.5812 18.3396C28.5884 18.4839 28.6355 18.6124 28.6483 18.7527L28.697 19.403C28.9596 21.5268 29.7953 23.6275 29.215 25.7704C28.8333 27.1799 27.9518 28.2803 26.7305 29.0587L26.0248 29.4613L27.6014 35.1062C27.7824 35.635 27.6396 35.4588 28.2189 35.5591C28.5905 35.6235 28.9953 35.7101 29.373 35.7227L30.1655 35.7894L34.0908 35.7196C36.4459 35.5436 38.8459 34.9131 40.8684 33.674L41.7582 33.0708C41.6791 32.6762 41.6602 32.2406 41.6176 31.8396L40.7757 25.7729L40.3009 22.9854C39.9231 20.9223 39.4533 18.8668 38.8486 16.8575L37.7352 13.4646C37.6965 13.4577 37.6821 13.4559 37.6424 13.4646ZM5.90867 34.0896C5.84099 34.2806 5.81802 34.4831 5.78272 34.6819L5.63132 35.4214L8.09202 36.5545C10.7129 37.659 13.2959 38.4434 16.1531 38.4444C17.1415 38.4447 18.4025 38.4507 19.2426 37.8344C19.3627 37.7357 19.4708 37.6424 19.5711 37.5231L19.5981 37.4917C19.7676 37.291 19.8837 37.0534 19.9885 36.8146L18.2353 36.9546C18.0593 36.9685 17.8851 36.9977 17.7087 37.0057L15.3424 37.0059C13.128 36.9104 10.9346 36.4798 8.89452 35.6039C7.8643 35.1616 6.91044 34.5855 5.90867 34.0896ZM42.105 34.4411C39.7469 35.8481 37.1803 36.8402 34.4132 37.0062L30.177 37.0746C29.4615 37.0431 28.7537 36.9465 28.0498 36.819L28.1374 37.0191C28.2613 37.3036 28.4817 37.5836 28.6967 37.8035C29.3866 38.3679 29.9005 38.4382 30.7708 38.4392L34.3359 38.4398C34.7304 38.4396 35.1358 38.4584 35.5293 38.4313C37.6268 38.2869 40.2543 37.4166 41.8829 35.9979C42.05 35.8524 42.2627 35.6442 42.3674 35.4486C42.3305 35.2951 42.1716 34.4944 42.105 34.4411Z" fill="black"/>
</svg>
