<svg width="48" height="48" viewBox="0 0 48 48" fill="none" xmlns="http://www.w3.org/2000/svg">
<path d="M15.8764 34.5569C12.7627 32.7135 8.79909 31.6146 5.20481 31.1077L4.48925 31.0195C3.39007 30.9244 3.08887 30.9216 3.08496 29.8317L3.0856 28.9512C3.09888 25.1094 4.1485 20.5398 5.5545 16.9925L6.58181 14.6164C7.04522 13.6193 7.64044 12.5311 7.81233 11.4302L8.00414 9.71534C8.19966 8.3893 8.31933 7.76741 9.76453 8.32869L11.637 8.90811C12.7173 9.20234 13.8245 9.41558 14.9299 9.58578L17.7776 9.93748L20.6026 10.1316L26.9664 10.1318L29.5701 9.97588C32.1262 9.81992 34.6409 9.46625 37.0938 8.70931L38.0355 8.39047C38.3303 8.27923 38.6325 8.10481 38.9479 8.07017C39.32 8.03019 39.6145 8.31444 39.737 8.64505L39.751 8.68386C39.9675 9.272 40.093 10.2656 40.1604 10.8843C40.1895 11.1521 40.1531 11.4655 40.2371 11.721L40.4987 12.5628L42.1879 16.3948L43.766 21.0589C43.8165 21.3425 43.8964 21.6477 43.9692 21.926L44.5195 24.6917L44.8208 27.5628C44.8381 27.752 44.879 27.9352 44.8885 28.1263L44.9022 30.0881C44.9011 30.9754 44.2504 30.9619 43.594 31.0336L40.9278 31.4503C37.7486 32.0423 34.4823 33.2481 31.8163 35.1015C30.8019 35.8067 28.3555 38.5199 27.2612 36.782L27.24 36.7475C27.0665 36.4699 27.0324 36.2108 26.9756 35.8976C26.7526 34.6685 25.5798 31.5746 24.3188 31.2037C22.7867 30.7532 21.5618 34.0399 21.2132 35.1672C21.1147 35.4858 21.1102 35.8177 21.0259 36.1336L20.9984 36.2456C20.9709 36.3958 20.92 36.5372 20.8385 36.6669L20.815 36.7034C20.5456 37.1283 20.1186 37.3347 19.6293 37.3201C18.7322 37.2933 18.3155 36.5027 17.7173 35.9633C17.1337 35.4372 16.5522 34.9616 15.8764 34.5569ZM38.4806 9.76198C35.5143 10.8102 32.5095 11.272 29.3883 11.4423L25.5982 11.6019L20.3647 11.5473L17.8641 11.3888C15.5876 11.1949 13.3155 10.8493 11.1085 10.2499L9.90075 9.89769C9.7552 9.85503 9.59972 9.83033 9.45797 9.77811L9.32442 10.6481L9.90516 10.8204C11.0243 11.1682 12.1749 11.3929 13.3127 11.6668L15.3942 12.1813C17.978 12.7834 19.9611 12.9948 22.5693 12.99C24.9317 12.9857 26.8394 12.7511 29.1916 12.3606L32.0504 11.855C34.2612 11.5193 36.5504 11.4162 38.679 10.6722L38.5373 9.78542C38.4975 9.76034 38.5171 9.76602 38.4806 9.76198ZM9.13931 12.1062C8.98608 12.6315 8.81433 13.1558 8.60747 13.6628L7.04348 17.1507C6.29761 18.9623 5.72034 20.8565 5.30958 22.7714L4.97541 24.3449L4.64642 26.7671C4.59574 27.205 4.40014 29.1845 4.51006 29.563L6.22772 29.7891L6.28448 29.3415C6.64102 27.2306 7.08605 25.8518 8.21048 23.9613L9.39183 22.0486C11.1586 18.9425 11.6071 16.159 11.2462 12.6533L9.86981 12.2982C9.63108 12.2374 9.36919 12.1921 9.13931 12.1062ZM38.8279 12.176L36.7305 12.663C36.5221 14.2776 36.4912 16.382 36.9784 17.9734L37.1325 18.5421C37.1401 18.5764 37.1519 18.6072 37.1636 18.64L37.4265 19.4534C37.7702 20.6097 38.5426 21.9988 39.1843 23.0233L39.8909 24.1292C40.491 25.1598 40.9435 26.192 41.2868 27.3297L41.3793 27.6812C41.4381 27.8643 41.7424 29.1815 41.6884 29.3618L41.7314 29.8317L43.4715 29.5962L43.4283 27.8704C43.2558 25.0743 42.7039 22.28 41.8429 19.6155L41.273 17.9555L39.5858 14.14L38.9842 12.53C38.9559 12.4321 38.9354 12.2449 38.8663 12.1758L38.8279 12.176ZM35.1012 12.9476L25.7592 14.3194C21.5381 14.7801 18.203 14.3185 14.1565 13.3799C13.681 13.2696 13.206 13.1152 12.7268 13.0273L12.8182 14.3866C12.8862 17.0081 12.283 19.4738 11.1423 21.823L10.5256 23.0267L9.37425 24.844C8.40727 26.447 7.81083 28.1923 7.65802 30.0612L11.2125 31.0083C13.4267 31.6894 15.7253 32.5441 17.5856 33.9644L18.6006 34.7908C18.9551 35.1246 19.2562 35.4486 19.5602 35.8245C19.9705 34.2456 20.3779 32.9495 21.2932 31.5478C24.0898 27.2653 27.2093 31.206 28.1436 34.5706L28.4544 35.8344C29.0702 35.5385 29.6048 35.05 30.1174 34.6063C32.3873 32.6414 35.3631 31.4332 38.2078 30.5944L40.3171 30.0851C40.1555 28.2294 39.61 26.5479 38.6737 24.926L37.6076 23.218C36.4689 21.3189 35.5287 18.9197 35.2777 16.701C35.2522 16.4753 35.2496 16.2319 35.2014 16.0105C35.094 15.5175 35.2419 12.9472 35.2385 12.9399L35.1012 12.9476Z" fill="black"/>
</svg>
