<svg width="48" height="48" viewBox="0 0 48 48" fill="none" xmlns="http://www.w3.org/2000/svg">
<path d="M15.7841 40.6867C15.3313 40.7209 14.8527 40.6607 14.4033 40.6211C12.2995 40.4355 10.282 39.9359 8.24456 39.3875L5.01173 38.5165C4.34348 38.3501 3.54366 38.1665 3.53827 37.2952C3.53233 36.3356 3.66893 35.3734 3.73141 34.4174L4.14449 28.6158L4.6716 22.4048C4.6881 22.0957 4.66628 21.7695 4.73081 21.4657C4.99115 20.24 5.01421 18.9716 5.32856 17.7497C5.64149 16.5335 6.23399 15.4239 6.49617 14.1912C6.62353 13.5922 6.56596 12.9071 6.56592 12.2939L6.56995 8.88431C6.57885 7.81767 7.36232 7.33181 8.32434 7.33101C8.78465 7.33059 9.22256 7.37873 9.67982 7.40756L10.6876 7.44923C10.8831 7.46105 11.0783 7.49353 11.2736 7.50084L14.4142 7.6364C14.6596 7.65239 14.901 7.6912 15.1471 7.69964L18.8403 7.79489L22.2372 7.88348C22.4054 7.88911 22.5675 7.92703 22.7345 7.93416L24.1248 7.94161C24.3349 7.94536 24.5413 7.9868 24.7501 7.99017L31.8435 7.98511L37.5551 7.57336C38.3002 7.49883 39.0471 7.33781 39.7928 7.29966C40.5187 7.24828 41.3095 7.9169 41.4027 8.6415C41.422 8.7914 41.4117 8.95101 41.4118 9.10237L41.4104 13.3755C41.4108 13.7832 41.5012 13.8117 41.6372 14.174L42.3902 16.3459C42.8303 17.6692 42.914 19.7969 43.0337 21.187L43.7749 29.367L44.1293 32.8531C44.1439 33.0144 44.147 33.1859 44.1799 33.344L44.1906 33.3938C44.2581 33.7894 44.2305 34.2311 44.2589 34.633C44.3215 35.5199 44.4088 36.4094 44.4143 37.299C44.4172 37.7651 44.4931 38.3489 43.901 38.5054C43.4429 38.6265 42.936 38.6568 42.4664 38.731L37.8541 39.7186C36.9767 39.9172 36.0927 40.0743 35.1988 40.1735L32.09 40.3727C31.6758 40.3901 31.2357 40.3629 30.826 40.4156L29.955 40.5196C29.4237 40.5946 28.9738 40.7158 28.4415 40.5465C27.2625 40.1715 27.007 39.0642 26.7424 38.0077L25.931 34.7789C25.8109 34.3552 25.6874 33.92 25.4809 33.5294C25.0763 32.7641 24.1594 32.1324 23.307 32.6011L23.1798 32.6717C22.2547 33.2159 22.0769 34.1728 21.8145 35.1324C21.6394 35.773 21.4406 36.4089 21.3023 37.0589L21.1126 38.1281C20.9692 38.958 21 40.0198 20.0653 40.4039L20.0304 40.4177C19.6207 40.5845 18.7919 40.6462 18.3163 40.6741L15.7841 40.6867ZM8.08968 8.86683L8.10651 10.0557C9.78871 10.9167 11.8609 11.0785 13.7135 11.286L17.6975 11.5602C17.9777 11.5727 18.2374 11.6461 18.5187 11.655L26.0684 11.6649C26.5409 11.6615 26.992 11.6587 27.4616 11.6202L29.5332 11.5297C29.6911 11.5177 29.8453 11.4817 30.0028 11.4717L34.6831 11.0894L38.965 10.5239C39.0783 10.5021 39.1997 10.4929 39.3102 10.4606L39.8654 10.3752L39.8652 8.8808C39.3186 8.89387 38.8028 8.98476 38.2633 9.05709L31.8846 9.54778L26.3673 9.55125L24.8673 9.49106C24.6577 9.48159 24.4519 9.4537 24.2412 9.45117L20.7716 9.44086C20.5754 9.43528 20.3809 9.39647 20.1847 9.38911L17.9146 9.33291C17.7186 9.324 17.5257 9.28519 17.3301 9.27516L15.6347 9.25701L11.7288 9.07434C11.5345 9.06347 11.3479 9.02433 11.1563 9.0112L9.28495 8.89926C8.8874 8.87742 8.48563 8.90241 8.08968 8.86683ZM8.08996 11.7068L8.0586 13.1251C8.16951 13.1952 8.27507 13.2182 8.39662 13.2575L10.8102 14.0152C13.0946 14.6112 15.3938 15.1267 17.7306 15.4674L21.5969 15.8445L23.367 15.8599L23.1259 13.2638L19.3757 13.215C19.2084 13.2111 19.0431 13.1843 18.8761 13.178L15.883 13.0189C13.5789 12.861 10.2303 12.6422 8.08996 11.7068ZM39.8394 11.9412L36.6329 12.4374L32.4967 12.8558L28.3712 13.1291C27.9539 13.1504 27.5438 13.2092 27.1244 13.2142C26.3031 13.2241 25.4697 13.1878 24.6508 13.2372L24.9112 15.7452L24.9282 15.8368C25.0649 15.8721 25.2351 15.8511 25.3772 15.8514L30.1431 15.5487C32.9033 15.2163 35.9482 14.682 38.5628 13.6792L39.5848 13.2636C39.6949 13.2154 39.7811 13.2108 39.8704 13.1245L39.8394 11.9412ZM7.91282 14.6923C7.67728 15.8138 7.34882 16.4031 7.03331 17.4138C6.81946 18.0986 6.29128 20.4935 6.36379 21.2357C6.70513 21.1147 7.05224 20.9017 7.32613 20.6663C8.54062 19.5634 9.1731 17.915 9.37035 16.3072L9.4529 15.231C8.94079 15.0888 8.39348 14.9193 7.91282 14.6923ZM40.1605 14.6878C36.9037 16.1131 32.5681 16.9744 28.9806 17.2276L26.953 17.3613C26.3186 17.3757 25.6721 17.3356 25.0403 17.3854C25.1148 17.875 25.1876 18.8373 25.1945 19.36C25.2005 19.8198 25.1518 20.3337 25.2259 20.7848C26.384 20.4857 26.3077 19.4956 26.9124 19.3245L27.0295 19.3006C27.36 19.2416 27.6661 19.4826 27.7993 19.7693L27.8114 19.7943C27.8777 19.943 27.8559 20.2045 27.8042 20.3552C27.3784 21.598 26.0958 22.3843 24.8233 22.5022C24.5097 22.5312 23.0407 22.5485 22.7524 22.4519C22.0514 22.2171 21.816 20.9035 23.0954 20.9162L23.7152 20.9258L23.5787 18.327C23.5083 17.3188 23.8257 17.3785 22.7731 17.372L19.5188 17.2318L15.5213 16.6626C13.9854 16.3832 12.4536 16.0815 10.9485 15.6618C10.8116 16.7332 10.8167 17.4765 10.4398 18.5719C9.79888 20.4345 8.28304 22.6104 6.16865 22.9023L5.41232 31.9748L5.29443 33.5397C5.28126 33.7441 5.2439 33.9375 5.25131 34.1441C5.57231 34.2966 5.98485 34.3535 6.33112 34.4454L8.10951 34.917C11.0189 35.6549 13.4895 36.2971 16.5033 36.2964L18.4295 36.2899C18.6322 36.2829 18.8325 36.2487 19.0348 36.2367L19.9602 36.1804C20.0443 35.453 20.6698 33.4115 20.9913 32.8117C22.2097 30.5387 24.9228 30.2351 26.5184 32.2877C26.8687 32.7384 27.0395 33.2185 27.2278 33.7472L27.9628 36.5492L42.7015 33.7444L41.4604 20.9177C41.3292 19.1604 41.1088 16.2003 40.1605 14.6878ZM42.6855 35.329L28.3361 38.0129L28.3664 38.1811C28.411 38.4367 28.5583 38.81 28.7363 38.988C28.8822 39.0672 29.0256 39.0485 29.1864 39.0387L31.0666 38.8327L33.6727 38.7366C35.4089 38.6412 37.0803 38.3015 38.7658 37.8941C39.9478 37.6084 41.7254 37.1594 42.9412 37.1152L42.8601 35.3302C42.8085 35.3061 42.742 35.3242 42.6855 35.329ZM5.11513 35.7347L5.08096 36.5478C5.07524 36.6575 5.03887 36.8358 5.10778 36.9196L8.12123 37.7351C10.1207 38.2703 12.3774 38.9237 14.4374 39.1093C15.2426 39.1819 16.0613 39.1673 16.8692 39.1653L18.5106 39.103C18.8268 39.0787 19.1562 39.058 19.4682 38.9983L19.6191 37.8091L15.1502 37.8135L12.8321 37.5616C10.96 37.2736 9.12042 36.7858 7.29309 36.2989C6.57351 36.1072 5.8206 35.97 5.11513 35.7347Z" fill="black"/>
</svg>
