<svg width="48" height="48" viewBox="0 0 48 48" fill="none" xmlns="http://www.w3.org/2000/svg">
<path d="M13.2007 36.7796L11.6212 36.6537L8.5554 36.6081C7.77212 36.6258 6.59612 36.8462 5.85338 36.7134C4.86498 36.5365 4.02384 35.6999 3.85049 34.7114C3.76692 34.2349 3.81724 33.6833 3.81751 33.1982L3.84889 31.1131C4.09753 26.5466 5.75091 18.4757 8.9567 15.1651C9.15502 14.9603 9.37295 14.684 9.61074 14.5307C9.78516 14.4182 9.76866 14.4181 9.76866 14.2253L9.76857 11.6357C9.76885 11.278 9.66437 10.7635 9.8498 10.4417L9.88937 10.374C10.2645 9.73398 10.7821 10.0239 11.3093 10.1912L12.6092 10.5669C14.204 10.9708 15.8597 11.2817 17.4947 11.4551L21.1287 11.7472L27.3394 11.7401C27.6427 11.7294 27.9407 11.6744 28.2444 11.6555C30.8879 11.4909 32.7512 11.2207 35.2906 10.4905L37.1813 9.94149C37.5497 9.9166 37.8749 9.95659 38.0719 10.3208L38.0858 10.3475C38.1112 10.3949 38.1344 10.4347 38.1483 10.4872L38.1576 10.5233C38.2458 10.7297 38.2206 10.96 38.2209 11.1834L38.223 14.9637C38.2283 15.1795 38.4115 15.3264 38.536 15.4937L38.886 15.9725C39.6239 16.9928 40.3414 18.0502 40.9639 19.1454L41.3401 19.8748C41.7596 20.6489 42.303 21.8436 42.5428 22.7108L43.3518 25.5595L44.0027 29.5427C44.0732 29.9141 44.0871 30.3551 44.1072 30.7381L44.1624 32.9604C44.1759 33.4645 44.2633 33.9555 44.1977 34.4624C44.045 35.6415 43.2199 36.5556 42.0115 36.7202C41.4199 36.8009 40.8529 36.6768 40.2677 36.6497L37.65 36.6376C36.9098 36.6497 36.2573 36.6889 35.5212 36.7663L33.023 37.0578L27.7771 37.9368C27.2129 38.0079 26.6146 38.0351 26.0461 38.0384C24.7154 38.0461 24.8167 37.4958 24.3663 36.3585C24.213 35.9712 24.0296 35.5806 23.9147 35.1804C23.7119 35.6175 23.5909 36.1239 23.4475 36.585L23.1473 37.4769C22.958 38.106 22.3456 38.0556 21.7989 38.0454C20.9075 38.0289 20.0766 37.838 19.205 37.6587L14.9497 36.9444L13.2007 36.7796ZM36.5578 11.8709L33.3964 12.7105C32.4678 12.9213 31.531 13.0801 30.5845 13.1833L29.2491 13.2906L29.2442 14.915C29.2442 15.0001 29.2183 15.3062 29.263 15.3631C31.3369 15.3362 33.8751 15.04 35.8592 14.6496C36.3654 14.55 36.586 14.7035 36.5856 14.234L36.5842 12.4652C36.5839 12.2807 36.6082 12.0564 36.5709 11.8768L36.5578 11.8709ZM11.4025 11.9424L11.3923 14.4774C11.7073 14.5665 12.0346 14.6121 12.3575 14.66L14.5544 14.9944L18.8659 15.3073L18.8631 13.2504L17.1192 13.0901L13.4639 12.4969C12.7957 12.3623 12.0324 12.2175 11.4025 11.9424ZM20.513 13.4154C20.465 13.8673 20.4729 14.9266 20.5094 15.4001L21.4483 15.4137C21.9665 15.4346 22.3077 15.5124 22.8824 15.5117L26.4185 15.5057C26.8023 15.5035 27.2047 15.5207 27.5851 15.4734L27.603 14.1132C27.6033 13.8849 27.6227 13.6377 27.5969 13.4125L20.513 13.4154ZM10.5308 16.0031C9.20026 16.9361 8.42537 18.9609 7.88659 20.4534L6.68743 24.199L5.90265 27.4691C5.7301 28.4538 5.51068 29.4066 5.43207 30.4079C5.36331 31.2831 5.41402 32.1941 5.41693 33.0728L5.42026 33.8402C5.4234 34.37 5.56984 34.9968 6.20251 35.0888L6.25988 35.0987C6.42174 35.083 6.64056 35.0848 6.7906 35.0251C6.77091 34.7093 6.7809 34.3895 6.78184 34.073L6.88224 31.2108L7.20343 28.5233C7.59704 25.7635 8.35951 23.1602 9.39062 20.5776L11.3097 16.1763C11.0427 16.1453 10.7923 16.0488 10.5308 16.0031ZM36.8878 16.16L35.5425 16.4526C34.3566 16.6586 33.1537 16.7802 31.955 16.8821L28.3823 17.1044C28.1004 17.1117 27.799 17.0865 27.5207 17.1228C27.4084 17.5596 27.3235 18.0234 27.2761 18.4718L27.188 20.1573C27.1873 20.6045 27.2368 21.0256 27.2837 21.4682L27.6528 25.1834C27.683 25.5875 27.7097 25.9742 27.7364 26.3789C27.8818 28.5798 27.2966 30.6075 25.5326 31.9906C25.2867 32.1833 24.9855 32.3844 24.7719 32.6117L24.9859 33.3045C25.1882 33.8626 25.3624 34.4319 25.593 34.9803C25.7298 35.3059 25.8896 35.6653 25.9781 36.0059L26.0975 36.3318L29.642 35.9136L34.8316 35.1466C35.6883 35.0519 36.5445 34.9539 37.4072 34.9321L40.1079 34.9634C40.6843 34.9957 41.3035 35.1142 41.8771 35.0588C42.5828 34.9907 42.5541 34.2133 42.5456 33.7293L42.3588 29.6371L42.1258 27.911C42.0738 27.5888 42.039 27.2597 41.9696 26.9407L41.6067 25.3112C40.8914 22.5542 39.959 20.7519 38.4578 18.4088L36.8878 16.16ZM12.9978 16.5063L12.3706 17.8123C10.6107 21.469 9.29902 25.3643 8.72527 29.3904L8.52427 31.2225C8.44501 32.2171 8.42443 33.2197 8.41918 34.2172C8.41459 35.0807 8.23041 34.8479 9.18887 34.8467L11.4094 34.8662C11.7437 34.8756 12.0651 34.9255 12.3957 34.9455L15.8436 35.2801L18.9303 35.8475C19.5076 35.9692 20.0843 36.1437 20.6696 36.2207C21.0034 36.2996 21.4432 36.3853 21.7872 36.3774L22.8939 32.8196C22.1863 32.4535 21.3307 31.7458 20.7532 31.1762C19.0376 29.4841 18.5112 26.5175 19.642 24.3812C19.9233 23.8498 20.3284 23.398 20.6171 22.8684C21.4753 21.2943 21.5294 19.4308 21.0174 17.7444L20.879 17.3436C20.8465 17.2397 20.8363 17.1332 20.7764 17.0403L17.7432 16.9406L14.6635 16.6916C14.1204 16.6358 13.5283 16.63 12.9978 16.5063ZM22.5895 17.2059C23.2253 19.6138 23.1255 21.8643 21.8313 24.0866C21.6284 24.4351 21.3387 24.7175 21.1498 25.074C20.8207 25.6951 20.6306 27.2813 20.8294 27.9928L20.8502 28.0593C21.2731 29.3927 21.9091 30.1299 23.1092 30.9164L23.6873 31.2599L23.9366 31.0831C24.9062 30.4998 25.6815 29.6571 25.9604 28.5402C26.2423 27.4112 25.9567 26.4294 25.8948 25.3351L25.6285 21.9408C25.5586 21.4362 25.5191 20.9489 25.5183 20.44L25.6246 17.8922C25.6478 17.6676 25.723 17.4289 25.7313 17.2067L22.5895 17.2059Z" fill="black"/>
</svg>
