<svg width="48" height="48" viewBox="0 0 48 48" fill="none" xmlns="http://www.w3.org/2000/svg">
<path d="M37.591 39.8508C36.31 40.0189 35.0544 40.3413 33.7807 40.553L31.1008 40.8627L28.0187 40.8688C27.5638 40.8642 27.1388 40.7908 26.7027 40.6536C25.2548 40.1977 24.8176 39.5834 23.9917 38.4929C23.9454 38.512 23.8402 38.748 23.8046 38.8084C23.4921 39.3386 23.0145 39.724 22.5146 40.066C21.6443 40.6615 20.6588 40.8699 19.6247 40.8692L18.5578 40.8624C18.3347 40.8516 18.1119 40.8094 17.8888 40.7895L15.7382 40.5695C14.496 40.4154 13.3076 40.0846 12.0869 39.8293L8.54292 39.2046L2.91343 38.4424C2.6062 38.3979 2.2738 38.3577 1.97767 38.2639C1.82444 38.2154 1.7684 38.1052 1.59869 38.1093C1.48961 38.1119 1.38744 38.1183 1.28414 38.0774L1.25386 38.0643C0.650318 37.807 0.910634 37.1001 1.00084 36.6289L3.1494 24.7075L3.64581 22.5018C4.13203 20.3254 4.69824 16.9055 5.72864 14.9365C6.84338 12.8061 6.963 13.0077 6.94922 10.6653L6.9518 8.37725C6.95958 7.70028 7.48411 7.20045 8.13352 7.05903C8.33161 7.03897 8.46863 7.07515 8.65739 7.11486L15.0764 7.87226C15.8312 7.90667 16.5818 7.95706 17.3359 7.9962L21.1345 8.16256L27.7331 8.16284L30.9162 7.99864C31.3784 7.96887 31.9031 8.03497 32.3524 7.93151C32.4599 7.90676 32.5921 7.91051 32.7034 7.90367L37.1576 7.48367L38.8242 7.21681C39.1107 7.16187 39.4345 7.06372 39.7227 7.05087C40.3219 7.02415 41.0043 7.502 41.1472 8.09028L41.1568 8.13265C41.2476 8.46073 41.2232 8.7987 41.2233 9.137L41.223 10.8516C41.2235 11.5961 41.2985 12.8647 41.5456 13.541L41.7733 14.1744C42.195 15.2019 42.7675 15.7358 43.0139 16.9681L44.14 21.3631L47.151 37.2646C47.2621 38.0373 47.0179 38.2418 46.3007 38.3449L40.0478 39.4818C39.2362 39.6308 38.4131 39.7748 37.591 39.8508ZM39.7208 8.56625L38.2722 8.85036L33.9024 9.3529L30.2845 9.49967C30.1308 9.50914 29.9778 9.53661 29.8242 9.54181L28.4563 9.5585C28.1941 9.56567 27.94 9.61911 27.6773 9.62515L21.6329 9.62595C21.3874 9.61948 21.1403 9.5689 20.8903 9.5629L16.513 9.43353L10.8675 8.96759L8.36982 8.56836L8.36138 9.32965L10.0369 9.92867C11.7593 10.5463 13.5512 11.0685 15.3354 11.4751L17.7773 11.9991L20.3162 12.3547C20.9302 12.4282 21.6109 12.4849 22.2278 12.4877L25.6555 12.4921C27.317 12.4821 29.1032 12.287 30.7265 11.9754L32.6015 11.5539C34.58 11.0629 37.9738 10.1605 39.7637 9.13587L39.7208 8.56625ZM39.7987 10.7225L35.2006 12.3987C31.9034 13.4159 28.5611 13.9703 25.1066 13.9981L25.1296 15.055C26.3405 15.3991 27.3274 15.9689 27.9776 17.1221C28.1439 17.417 28.4347 17.9438 28.2885 18.2822C28.1194 18.6734 27.6631 18.8127 27.296 18.6187C26.7563 18.3335 26.5614 16.6016 24.7463 16.5736C24.6892 16.9849 24.7248 17.4392 24.7248 17.8555L24.7253 20.308C24.7253 20.822 24.8543 22.0661 23.9187 21.9235C23.2551 21.8223 23.2786 21.0924 23.2786 20.584L23.2866 16.3713C21.285 16.9528 21.2816 18.5587 20.609 18.7402C20.2557 18.8355 19.8408 18.5864 19.7803 18.2184L19.7699 18.1585C19.6925 17.7379 20.0689 17.0959 20.3081 16.7609C20.9661 15.8395 22.0681 15.0503 23.2068 14.8523L23.4691 14.8068L23.4908 14.0091L21.2933 13.9423L17.4379 13.4577L14.495 12.8086L10.4079 11.6L8.41439 10.8485L8.39953 11.7889C8.32435 12.5406 8.15757 13.2118 7.926 13.9282C7.79124 14.266 7.6388 14.6088 7.45805 14.925L7.09196 15.5007C6.687 16.1713 6.46988 16.8769 6.25027 17.6226L4.78936 23.8111C5.65641 24.1571 7.50169 24.2838 8.44917 24.404C10.6967 24.689 12.8285 25.4312 14.774 26.5926C16.1024 27.3856 17.0698 28.0291 18.5555 28.6052L20.2725 29.1812C21.5817 29.5903 22.8575 29.9319 24.233 29.9307C27.2002 29.928 30.0569 28.6291 32.5471 27.11C33.5515 26.4973 34.5375 25.8529 35.6398 25.4292C37.271 24.802 39.014 24.3672 40.7416 24.1126L42.7425 23.846C42.9027 23.8279 43.0691 23.8241 43.2247 23.7806C42.9953 22.4357 42.6341 21.0987 42.2958 19.7779C41.983 18.5565 41.7206 17.08 41.1129 15.9631C40.4629 14.7683 40.2015 14.2458 39.9669 12.8194C39.9337 12.6175 39.936 12.4122 39.8955 12.2108C39.7994 11.7315 39.9353 11.1971 39.8199 10.7275L39.7987 10.7225ZM4.49349 25.2419L3.47081 30.4686L2.53121 35.9647C2.48382 36.2654 2.45574 36.6074 2.34113 36.8905L2.35542 36.9515C2.43717 36.9961 2.49865 37.0181 2.5898 37.0332L8.01483 37.7191L11.5898 38.2917L14.9309 38.9931C15.4633 39.0954 16.0059 39.1583 16.5443 39.2198L19.3474 39.4115C19.7903 39.4127 20.3063 39.4513 20.7314 39.3213L21.01 39.2532C22.1356 38.8595 23.1046 37.7272 23.2625 36.5262C23.2939 36.2879 23.2792 36.0371 23.2796 35.7967L23.3002 31.2935L19.1751 30.3162C17.0021 29.6826 15.8984 28.9096 14.0258 27.8128C12.3471 26.8295 10.458 26.1414 8.53116 25.8613L5.1105 25.3644C4.90739 25.323 4.69327 25.294 4.49349 25.2419ZM43.3973 25.2757C41.1677 25.4735 37.4135 26.3154 35.458 27.1491C34.6706 27.4848 33.9417 27.9473 33.2081 28.3829L31.8089 29.1612C30.5428 29.8329 28.3104 30.6558 26.932 30.9796L24.7494 31.3823L24.7248 35.9328C24.7256 36.361 24.7329 36.7672 24.8924 37.1717C25.2812 38.1585 26.1244 39.052 27.1815 39.3008C27.775 39.4637 28.4139 39.4132 29.0248 39.4106L30.5792 39.3977C30.8839 39.3828 31.1794 39.3314 31.4818 39.3027L33.3937 39.0819C34.3629 38.9295 35.3089 38.6742 36.2692 38.478L45.6655 37.1198L43.5351 25.282C43.4859 25.2595 43.4493 25.2691 43.3973 25.2757Z" fill="black"/>
</svg>
