<svg width="48" height="48" viewBox="0 0 48 48" fill="none" xmlns="http://www.w3.org/2000/svg">
<path d="M31.0836 38.0082C30.5237 38.1417 28.7717 38.5061 28.2082 38.428L28.1717 38.4224C27.0061 38.2562 26.989 36.8822 26.6575 35.982C26.5602 35.7176 26.4122 35.4898 26.3003 35.2339L24.7012 31.9763C24.4827 31.5897 24.2602 31.1759 23.9851 30.828C23.4699 31.6672 22.9524 32.5372 22.5243 33.4236L21.7262 35.2654C21.5862 35.5954 21.4104 35.9117 21.2811 36.2461C20.6962 37.7584 21.0682 38.5599 19.0427 38.3471C15.8007 38.0064 13.2635 36.8003 10.3226 35.4592L9.33512 35.004C8.11637 34.4674 7.06408 33.8829 6.87287 32.3864C6.79862 31.805 6.96109 31.2185 7.05536 30.6509L10.1529 13.3267C10.2234 12.9204 10.241 12.8848 10.2415 12.4343L10.2418 11.3255C10.2422 10.4138 10.6359 9.63162 11.674 9.57232C12.0223 9.54138 12.4041 9.66321 12.7445 9.73273L15.2056 10.2832C15.8187 10.4302 16.078 10.5602 16.7152 10.547C18.0557 10.5192 18.7295 10.8173 19.8702 11.5321C21.0719 10.9359 21.4063 10.8548 22.7305 10.8526L25.6731 10.8562C26.5823 10.866 27.278 11.0432 28.0651 11.5429L28.9621 11.0134C30.1183 10.4458 30.4894 10.5722 31.6052 10.5647C32.0814 10.5615 32.614 10.3391 33.0701 10.2214L35.2029 9.74749C35.7544 9.64038 36.2361 9.47037 36.7893 9.65998C38.1443 10.1245 37.6221 11.8301 37.7589 12.9123C37.8192 13.3891 37.9797 13.9934 38.0668 14.4981L39.0471 20.2266C39.1444 20.7687 39.2363 21.3135 39.333 21.8574L39.5166 22.875C39.57 23.1507 39.6107 23.436 39.6518 23.7144L39.786 24.4314C39.813 24.5592 39.8159 24.6937 39.8439 24.8203L40.5073 28.3053C40.5447 28.4425 40.5663 28.5854 40.5819 28.7267L41.0723 31.4114C41.1178 31.5955 41.1199 31.7701 41.124 31.958C41.1624 33.7173 40.1263 34.3753 38.7381 34.9648L37.5459 35.4847C35.339 36.4586 33.4331 37.411 31.0836 38.0082ZM11.5836 10.8843C11.5302 11.3569 11.5142 11.9006 11.5555 12.3745L14.5499 13.0412L14.5464 12.6973C14.5597 12.2557 14.6971 11.9288 14.9388 11.5644C14.6424 11.5184 14.3465 11.4388 14.0543 11.3712L12.5857 11.0425C12.261 10.9744 11.9152 10.8934 11.5836 10.8843ZM36.2476 10.9077L33.0536 11.5744C33.4553 12.1907 33.4021 12.2822 33.4807 12.9499L33.4802 13.0232C33.5755 13.0303 33.6819 12.9974 33.7757 12.9783L35.7435 12.5274C35.9734 12.4748 36.2054 12.4086 36.4387 12.3749L36.4314 11.3859C36.4298 11.1061 36.5387 10.864 36.2476 10.9077ZM17.0284 11.8921C16.4657 11.9466 16.027 12.1792 15.8242 12.7096C16.0021 13.2382 16.2437 13.2246 16.7147 13.409C17.1886 13.5946 17.6034 13.7542 18.1157 13.811L18.938 13.8991C18.935 13.4669 18.914 13.0329 19.1288 12.64C18.504 12.2274 17.7999 11.8549 17.0284 11.8921ZM30.6702 11.892C30.0152 11.9688 29.3724 12.2793 28.8305 12.6461C29.0463 13.0564 29.0415 13.4531 29.0402 13.9021L30.1909 13.7389C30.5547 13.6788 31.8761 13.3169 32.068 13.0108L32.0891 12.9777C32.5289 12.2624 31.2554 11.8502 30.6702 11.892ZM22.974 12.2006C22.1727 12.1918 21.2864 12.0997 20.6632 12.7133C20.3913 12.981 20.1734 13.4267 20.2383 13.8164L20.2418 13.8426C20.2869 14.1524 20.4803 14.1374 20.741 14.1321L23.3929 14.1441L23.3767 12.1909L22.974 12.2006ZM24.7486 12.1917L24.6665 14.1268L27.6512 14.1184C27.6844 13.9522 27.7524 13.7329 27.7509 13.5659C27.7458 13.0005 27.1222 12.5042 26.6482 12.3271L26.6131 12.3137C26.2571 12.1813 25.8696 12.1881 25.4961 12.1888L24.7486 12.1917ZM11.3881 13.6791L10.7459 17.572L8.15814 31.7227C8.12326 31.9451 8.12017 32.1797 8.20356 32.3906L8.24528 32.5259C8.38239 32.9663 8.80403 33.2899 9.19942 33.4808L14.3435 35.8143C15.7453 36.3721 18.1197 37.0396 19.6772 37.065L19.9014 36.3329L19.9318 36.2227C19.8675 36.1601 19.7575 36.1451 19.6719 36.1172L16.2123 35.0619C14.2477 34.404 12.3228 33.5371 10.472 32.609C10.1045 32.4247 9.22061 32.1746 9.20364 31.6579L9.20715 31.5326C9.21939 31.3107 9.29181 31.079 9.34253 30.862L12.881 15.2386C12.9658 14.8559 13.0268 14.4696 13.1306 14.0911L11.3881 13.6791ZM36.5627 13.7227L34.9119 14.0757L37.9147 27.6292C37.9487 27.7388 37.9549 27.8567 37.982 27.968L38.495 30.0952C38.8249 31.3833 39.115 31.4904 37.781 32.1576L33.678 34.0899C32.2932 34.7007 30.7552 35.3583 29.2905 35.7033L28.4862 35.8771C27.8233 35.9954 28.0221 35.833 28.1417 36.4102L28.2267 36.725C28.2527 36.8493 28.2983 37.0023 28.3516 37.1147C31.6377 36.8084 33.724 35.7349 36.6871 34.4189L38.3084 33.7033C39.2414 33.2915 39.9796 32.9604 39.86 31.7632L36.6562 13.7227C36.618 13.7164 36.6019 13.715 36.5627 13.7227ZM33.5707 14.3555L27.972 15.4038C27.6701 15.4771 27.3081 15.4422 26.9969 15.4432L25.3054 15.4452C24.4388 15.4464 24.6672 15.3614 24.6681 16.4047L24.6694 19.8938C24.6694 20.2444 24.6491 20.5989 24.6874 20.9477C25.4686 20.3203 26.0145 19.5302 26.2578 18.5599C26.3705 18.1108 26.3186 17.5646 26.8103 17.3368L26.8466 17.3196C28.3997 16.6142 27.8064 21.3183 24.3045 22.6907C24.0029 22.8089 23.7357 22.7527 23.5478 22.4811L23.5228 22.4461C23.287 22.0975 23.4175 20.467 23.4171 19.9858L23.4112 15.4487L19.6638 15.2898C18.973 15.2379 18.3018 15.1749 17.6176 15.0572C16.9447 14.9413 14.8932 14.3014 14.3619 14.3908L10.9807 29.4454L10.5827 31.205C10.7135 31.3065 10.8645 31.3625 11.0135 31.4315L16.1482 33.6548L20.0979 34.8964C20.2081 34.9266 20.3429 34.9774 20.4559 34.9772C21.047 33.3489 22.0064 31.3593 23.0146 29.9922C23.7993 28.9283 24.2328 28.8867 25.055 30.0703C25.7554 31.0788 26.5115 32.4225 26.9881 33.5754L27.4491 34.6438C28.7798 34.5966 29.969 34.1441 31.1951 33.6574L33.1957 32.8474L37.3645 30.8784L33.6677 14.3456C33.6345 14.3474 33.6032 14.3479 33.5707 14.3555Z" fill="black"/>
</svg>
