<svg width="48" height="48" viewBox="0 0 48 48" fill="none" xmlns="http://www.w3.org/2000/svg">
<path d="M31.6351 38.6806L28.711 38.3476C27.55 38.2165 25.9705 38.1215 25.4486 36.8822C25.2607 36.4359 25.2426 35.9125 25.1419 35.4398L24.3102 31.6026C24.2464 31.2993 24.1986 30.9899 24.1183 30.6905C23.9034 29.8888 23.6518 31.8326 23.6288 31.945L22.7706 35.884C22.4 37.9231 21.6481 38.0076 19.8625 38.2646L14.4032 38.8764L12.7585 38.958L9.48611 38.9732C9.29406 38.966 9.11027 38.9227 8.91981 38.9071L8.34391 38.8746C7.1342 38.7506 5.89169 38.4722 4.81544 37.8902C4.16943 37.5409 3.1801 36.8412 3.33692 35.98L5.13147 27.5483L7.68639 15.0232C7.79284 14.5067 7.80639 14.1356 7.88144 13.6548L8.41333 10.4169C8.50511 9.85876 8.41605 9.19328 9.08702 9.00297C9.32523 8.99336 9.51751 9.05443 9.74809 9.08823L14.5899 9.64581C16.6976 9.82937 18.8058 9.82501 20.92 9.82426L32.0478 9.75911C32.4861 9.74973 32.9241 9.68486 33.3637 9.65565L38.3036 9.06822C39.7431 8.80928 39.4903 9.87465 39.6506 10.8973L40.3079 14.9714L42.1026 23.9411C42.1492 24.1461 42.2053 24.3515 42.2438 24.5582L44.485 35.0505C44.575 35.4382 44.7168 35.9337 44.6712 36.3194C44.4917 37.8372 41.2658 38.7222 39.8282 38.8804C38.8429 38.9888 37.8596 38.9782 36.8702 38.9777L35.811 38.9756C35.581 38.9746 35.3338 38.9833 35.1063 38.9488L34.8434 38.9242C34.4288 38.8562 33.9908 38.9198 33.5742 38.8591L31.6351 38.6806ZM9.76548 10.4714L9.27573 13.6878C9.69137 13.8086 10.139 13.8431 10.5664 13.9076L14.2322 14.5217L18.2842 14.9047C18.5047 14.9134 18.7142 14.6748 18.9963 14.6673L27.9112 14.6629C28.307 14.6629 28.7295 14.6317 29.1212 14.6741C29.4026 14.7046 29.5368 14.9206 29.8325 14.9108L33.9753 14.48C34.3705 14.4223 34.7847 14.3919 35.1742 14.3047L37.729 13.879C38.0379 13.842 38.4234 13.8082 38.7081 13.6838L38.2511 10.4916C38.069 10.5037 37.8917 10.5397 37.711 10.5629L32.3204 11.1324L31.4522 11.1619C31.2619 11.171 31.0747 11.21 30.8846 11.2172L17.0188 11.2191L10.5964 10.5867C10.3196 10.5521 10.0376 10.535 9.76548 10.4714ZM9.04694 15.0818L4.69492 36.0906C4.79772 36.2453 4.93431 36.3379 5.08319 36.4444C6.76206 37.6455 9.08228 37.5527 11.0537 37.5502L13.3101 37.5405L18.276 37.057L19.8751 36.8672C20.334 36.8142 20.9154 36.7775 21.2658 36.4383L22.5953 30.2746C19.6982 29.3557 17.9155 27.2052 17.373 24.1882C17.2399 23.448 17.2442 22.6898 17.2426 21.9411C17.2382 19.8204 17.2842 18.3741 17.7533 16.2522L14.2585 15.921L9.50734 15.1391C9.37759 15.1201 9.17294 15.0596 9.04694 15.0818ZM38.8209 15.1019L30.2227 16.2495L30.4039 17.0862C30.7413 18.2092 30.7525 20.4278 30.7526 21.6173C30.7526 22.1085 30.7784 22.618 30.7427 23.1075C30.5478 25.776 29.3493 28.279 26.9532 29.6303C26.4653 29.9054 25.9463 30.1679 25.3853 30.2516L25.5322 30.7551C25.5655 30.8724 25.5785 30.9947 25.6042 31.1138L26.6733 36.2341C26.7696 36.6254 26.7836 36.5943 27.2021 36.7035C27.5544 36.7954 27.9063 36.8395 28.266 36.8871L29.8986 37.1144L34.7227 37.5377L37.5288 37.5513C39.2661 37.5512 42.0062 37.4389 43.3204 36.0991L39.0191 15.4591C38.9954 15.3425 39.0107 15.1714 38.918 15.0882L38.8209 15.1019ZM19.2529 16.0615C18.9062 17.0009 18.7248 18.1809 18.6475 19.1876L18.5623 22.5466C18.5858 23.1441 18.7 24.2334 18.8817 24.7445L18.9862 25.0779C19.5328 26.5748 20.5589 27.8789 22.0132 28.5886C23.9482 29.5329 25.7115 29.0997 27.2745 27.7066C28.2583 26.7964 28.9733 25.6008 29.2342 24.2781C29.659 22.1245 29.4399 17.9856 28.747 16.0592L19.2529 16.0615Z" fill="black"/>
</svg>
