<svg width="48" height="48" viewBox="0 0 48 48" fill="none" xmlns="http://www.w3.org/2000/svg">
<path d="M30.4158 40.6731C29.5816 40.8739 28.5961 41.0676 27.7304 40.9542L27.6913 40.9487C26.0706 40.7382 25.6633 39.6392 25.1127 38.372L24.0008 35.8801C23.9195 36.0063 23.8693 36.1553 23.8118 36.2933L22.4411 39.4042C21.5961 41.2672 19.312 41.1606 17.6366 40.6878L16.2186 40.2239C14.4816 39.636 12.7263 39.0671 10.8779 39.0074L9.02011 39.0126C7.17403 38.9274 5.44017 37.6659 5.00377 35.8232C4.88667 35.3289 4.85377 34.8246 4.76892 34.3254L4.44668 32.6836L4.14761 30.4691C4.09115 29.7621 4.07189 29.0389 4.01797 28.348L3.95703 26.2656C3.95921 21.9408 5.15625 16.8269 7.39936 13.1814L7.69313 12.713C7.95938 12.3142 7.92628 12.1411 8.04446 11.6896C8.67136 9.2941 9.35175 7.08723 12.3459 7.0194L35.129 7.01855C36.6526 7.01884 37.7874 7.21238 38.7805 8.59632C39.5652 9.68973 39.7365 11.1352 40.0943 12.3988C40.1352 12.5436 40.2271 12.6496 40.3079 12.7738L41.0888 14.1564L41.7415 15.5628C41.8771 15.8638 42.0237 16.1669 42.1372 16.4769L43.2022 19.7313C43.3694 20.6089 43.6545 21.4538 43.7694 22.3441L43.9036 23.3863C44.0362 24.1775 44.0356 25.2984 44.0342 26.101L44.0253 27.7972C44.0012 28.2401 43.9668 28.8335 43.9218 29.2602L43.2182 34.6197C42.9391 36.5672 42.3278 38.0101 40.2772 38.7745C39.7355 38.9764 39.3143 39.004 38.7429 39.0037L37.1035 39.0061C34.7687 39.1003 32.6293 40.0373 30.4158 40.6731ZM12.0453 8.32318C10.6076 8.54387 9.99736 9.54718 9.62096 10.8647L9.21919 12.3292C9.9098 12.7065 11.6084 12.623 12.3763 12.6049L13.4026 12.5857L19.1835 12.0357L20.4016 12.0076C20.6483 11.9986 20.8949 11.958 21.1405 11.9531L27.1227 11.9582L30.9725 12.2179L34.3475 12.5677C34.6396 12.5913 34.9622 12.561 35.2481 12.6028L36.9488 12.6027C37.3217 12.601 37.7397 12.6269 38.1049 12.549L38.7708 12.4225L38.4606 11.1749C38.2016 10.2013 37.9214 9.26766 37.0168 8.69143C36.3107 8.24157 35.5937 8.32023 34.7962 8.31999L12.0453 8.32318ZM23.1128 13.2956C23.143 13.5984 23.1374 13.9287 23.1376 14.2586L23.1314 15.4253C23.1204 15.6519 23.0825 15.8761 23.0633 16.1019L22.9275 17.5536C22.6748 19.4476 22.1894 21.3334 21.4777 23.107L19.9855 26.4831L18.6723 30.269L18.2729 31.7443C18.123 32.2879 17.4445 32.4065 17.1344 31.9105L17.1198 31.8877C16.6795 31.1736 18.933 25.6497 19.3024 24.7884C19.6487 23.9809 20.069 23.2162 20.3815 22.3906C21.1715 20.304 21.6308 18.1256 21.7815 15.9027L21.8438 15.3454C21.86 15.1358 21.8561 14.924 21.857 14.7139L21.8593 13.6878C21.8592 13.5834 21.8836 13.3821 21.837 13.2965L18.5555 13.4084C15.9309 13.6367 11.2084 14.3829 8.67943 13.5842C7.66566 15.0237 6.72094 17.4857 6.30469 19.152C6.75783 19.2825 7.20427 19.3761 7.64532 19.5523C10.3911 20.6497 12.7874 23.1577 13.8947 25.9105L14.6596 28.0094L15.1053 30.0736C15.1489 30.3053 15.2239 30.5776 15.2004 30.8142C15.1174 31.6493 13.9865 31.6205 13.8854 30.8102C13.5808 28.3695 12.8316 25.9732 11.3085 24.0015L10.8787 23.494C9.33272 21.6699 8.14814 21.0166 5.93747 20.453C5.74228 21.1767 5.60485 21.9219 5.49432 22.6623L5.3446 23.6253C5.307 23.9776 5.26641 24.4944 5.24907 24.8558L5.24991 27.7922L5.49835 30.8628C5.64661 32.1663 5.96025 33.4063 6.09792 34.6751L6.19228 35.3073C6.50546 37.023 7.98596 37.7017 9.57047 37.6944L10.9673 37.6938C12.2251 37.7312 13.6289 38.0254 14.8265 38.3935L16.6302 38.9825C17.7257 39.3567 20.2114 40.2626 21.1154 39.1006C21.3476 38.8021 21.4631 38.3829 21.6187 38.0376L23.3057 34.1839C23.4218 33.9106 23.5304 33.627 23.8592 33.5609L23.8928 33.5536C24.2345 33.486 24.4624 33.684 24.5877 33.9847L24.681 34.1852L26.5423 38.4262C27.0988 39.9608 28.5652 39.8005 29.8845 39.4616C30.1973 39.3813 30.4961 39.2497 30.8024 39.1491L33.5573 38.2776C34.8577 37.9247 36.2888 37.6461 37.6441 37.6646C38.3704 37.6745 39.1313 37.796 39.8323 37.538C41.439 36.9467 41.6978 35.8816 41.9355 34.4183L42.6385 29.1271L42.7452 27.5469L42.7434 24.9763C42.693 23.8435 42.5468 22.7145 42.3257 21.6036L42.0379 20.3388C42.0075 20.2221 41.9933 20.0859 41.9496 19.9755L41.9178 19.9031C41.8223 19.8783 41.6352 19.9697 41.5382 20.0049C37.3343 21.5269 34.8793 25.6872 34.22 29.93L34.1262 30.5394C33.9886 31.563 33.2331 31.8036 32.8453 30.9643C32.7368 30.7292 32.8551 30.3414 32.8944 30.0882C33.5463 25.8874 35.4375 22.0141 39.1647 19.7086C39.6566 19.4043 40.1731 19.1086 40.7108 18.8919L41.5483 18.5833L39.3352 13.6172C38.0963 14.0564 35.4841 13.9654 34.1154 13.8597L28.2538 13.3602C28.0563 13.3466 27.8617 13.3126 27.6628 13.3037L26.1551 13.2966C25.9968 14.478 26.2316 16.9011 26.4466 18.1348L26.7754 19.7006C26.8542 20.0405 26.9241 20.3977 27.0391 20.7271L27.103 20.9644C27.1129 21.0059 27.1279 21.0422 27.1422 21.0824L27.2924 21.5555C27.3903 21.8776 27.5287 22.2556 27.6765 22.5556L29.3428 26.3558C29.4896 26.7331 29.6205 27.1174 29.7685 27.4925L30.4103 29.4574C30.609 30.0167 30.6808 30.6505 30.8813 31.1897C31.1161 31.8209 30.6582 32.5501 30.0465 32.1973C29.755 32.0291 29.6899 31.6489 29.6076 31.3524L29.4077 30.6053C28.9801 29.0371 28.4408 27.4543 27.8085 25.9571L26.842 23.884C26.2818 22.6233 25.8195 21.2883 25.5017 19.9456L24.8881 15.715C24.8153 15.3028 24.8318 13.6969 24.8878 13.2909L23.7445 13.2927C23.5379 13.292 23.3174 13.2729 23.1128 13.2956Z" fill="black"/>
</svg>
