<svg width="48" height="48" viewBox="0 0 48 48" fill="none" xmlns="http://www.w3.org/2000/svg">
<path d="M27.742 40.9893C27.2211 40.4295 27.093 39.7846 26.8983 39.0751L26.5224 37.8996C26.2432 37.1453 25.8695 36.4436 25.566 35.7019C24.775 33.7688 24.3601 31.753 24.1456 29.6849L24.1174 29.1604C24.1123 29.0136 24.1152 28.7544 23.8866 28.8717C23.8139 29.2867 23.8531 30.0408 23.8046 30.5629L23.7491 31.0316C23.5588 32.7164 22.9687 34.393 22.3226 35.949C22.0539 36.5962 21.742 37.2169 21.4984 37.876L21.1028 39.0523C20.9318 39.6261 20.8505 40.2102 20.4943 40.7103C19.9238 41.5108 19.1531 41.689 18.2423 41.6833L17.01 41.638C13.4693 41.3839 9.66346 40.1321 6.99594 37.7134C5.63708 36.4813 5.79524 36.0687 5.79515 34.4208L5.8086 26.1716C5.82074 25.9269 5.88243 25.6881 5.89607 25.4428L5.93038 24.3926L6.50033 18.1345L7.1571 12.8639C7.24626 12.3492 7.43118 11.6936 7.34507 11.1679L7.33902 11.1332C7.27677 10.7323 6.99074 10.3956 6.87102 10.009L6.80718 9.80187C6.30557 8.06028 7.65899 6.51495 9.34762 6.33828C9.52035 6.30757 9.7693 6.31826 9.94354 6.34156L17.8829 7.22089L20.0224 7.34112C20.2478 7.35298 20.4658 7.3985 20.6902 7.40946L25.6587 7.46975C25.8729 7.46707 26.0826 7.43553 26.2958 7.42826L27.3326 7.39835C27.4716 7.388 27.6026 7.3475 27.745 7.33971L28.6053 7.31L37.1226 6.45687C37.934 6.36195 38.7063 6.20023 39.5021 6.50759C40.9173 7.0541 41.6077 8.63731 41.1212 10.0583C41.0192 10.3563 40.5723 10.9869 40.5959 11.2704L41.8308 21.182C41.8989 21.56 41.8799 21.9709 41.914 22.3556L42.0141 23.6668C42.0204 23.7451 42.0433 23.8183 42.0482 23.8984L42.1088 25.3667C42.1201 25.5808 42.1673 25.7898 42.1744 26.0043L42.1968 34.5872C42.1961 35.5338 42.3315 36.0888 41.7695 36.91C41.3311 37.5505 40.6633 38.0535 40.0316 38.4896C37.2541 40.4071 33.6576 41.6489 30.2511 41.6828C29.2695 41.6925 28.5099 41.6668 27.742 40.9893ZM9.50408 7.86012C8.91318 7.92265 8.31688 8.3292 8.23485 8.95859C8.16791 9.47201 8.44246 9.80107 8.64088 10.2365C8.86391 10.7259 8.88032 11.2292 8.88126 11.7543L14.5079 12.8427L19.0176 13.2684C19.1829 13.2809 19.3472 13.3094 19.5126 13.3171L21.0821 13.3342C21.2428 13.3397 21.3984 13.3871 21.5609 13.3923L26.2345 13.3977C26.4481 13.3902 26.6523 13.3391 26.8648 13.332L28.0629 13.3182L33.1759 12.8277L37.254 12.1183C37.5718 12.0582 37.9145 12.0271 38.2245 11.9389L38.6837 11.8364C38.8163 11.81 38.9958 11.8174 39.1101 11.7425C39.1112 11.2196 39.1151 10.7548 39.3343 10.2678C39.4552 9.99912 39.6389 9.7452 39.731 9.46512C39.9748 8.72314 39.4111 8.02067 38.7005 7.87071C38.3872 7.80462 38.0194 7.89734 37.7062 7.93592L33.129 8.49973L27.7618 8.91162C27.369 8.92812 26.979 8.98943 26.5858 8.99384L20.8447 8.98892L16.547 8.68132L10.2441 7.93798C9.9974 7.90887 9.7536 7.85848 9.50408 7.86012ZM8.65837 13.2897C8.56415 13.6504 8.54155 14.0546 8.50649 14.4261L8.15751 17.2621L7.44768 24.8407C7.43943 24.9324 7.41121 25.0218 7.40469 25.1174L7.36551 26.5902C7.35772 26.7726 7.32149 26.9532 7.31544 27.1373L7.30368 29.8021C7.30274 29.9927 7.28544 30.1854 7.36077 30.3636C8.00685 31.8923 10.2213 33.2775 11.5996 34.0943C14.3884 35.7469 16.9453 36.862 20.1828 37.0582L20.1882 37.0395C20.2945 36.6852 20.4859 36.3423 20.6405 36.0069L21.1453 34.8088C21.8518 33.0118 22.379 30.9988 22.3836 29.0528C22.3868 27.6854 22.0243 26.7372 20.9375 25.8067C20.5728 25.4945 20.0109 25.2176 19.736 24.8255C19.4386 24.4017 19.7716 23.7988 20.2501 23.7128L20.2811 23.7071C20.5745 23.6564 20.8502 23.7958 21.0807 23.963C22.2435 24.8065 23.107 25.6895 23.6392 27.076L23.7155 27.254L24.3318 27.2586C24.7674 26.0527 25.3144 25.3401 26.32 24.5005C26.7851 24.1122 27.8069 23.1723 28.2862 24.0979L28.3262 24.1777C28.6511 24.7954 27.8734 25.2366 27.4757 25.5388C25.2133 27.2583 25.4655 29.1412 25.9522 31.6438C26.0242 32.0138 26.0752 32.4275 26.1955 32.7852L26.7308 34.5187L27.5642 36.4599L27.8058 36.975C27.9651 36.9951 28.1414 36.973 28.3022 36.966C30.9631 36.8509 33.5588 35.6611 35.8484 34.3947C37.2928 33.5959 39.6679 32.2038 40.4796 30.68L40.6505 30.2751C40.7259 30.0887 40.6955 29.8341 40.6933 29.6364L40.6781 26.6368L40.3794 22.1634L39.3653 13.2865L32.0157 14.6L29.6754 14.8239C29.4972 14.8361 29.3202 14.868 29.1422 14.8756L27.9799 14.9157C27.711 14.9191 27.4158 14.8969 27.1506 14.9338L27.1679 18.266C27.1667 20.0002 27.151 21.8102 25.2423 22.458L25.2104 22.4691C25.1011 22.5064 24.9879 22.5261 24.8748 22.5478C24.7558 23.501 23.5418 23.5766 23.3446 22.5316C21.5715 22.3643 20.8824 20.9871 20.8813 19.394L20.8815 14.9279L18.0938 14.8123C15.4931 14.6244 12.8852 14.2353 10.3389 13.6711L9.25579 13.4413C9.05971 13.3985 8.84455 13.3623 8.65837 13.2897ZM22.4706 14.9252L22.3878 14.9591L22.3811 19.2791C22.3821 19.8703 22.4542 20.7483 23.18 20.9298L23.2344 20.9418C23.3183 20.9073 23.3077 20.9291 23.3084 20.8728L23.3075 15.1158C23.3057 15.0542 23.3081 14.9978 23.2866 14.9392L22.4706 14.9252ZM24.805 14.9593L24.8201 20.4613C24.8132 20.9427 24.7765 21.1517 25.2908 20.5931L25.2977 20.5859C25.6138 20.2156 25.6294 19.9356 25.6355 19.4628L25.6373 14.9771L24.805 14.9593ZM7.32622 32.862L7.31151 35.6085C7.31183 35.753 7.28441 35.8719 7.38772 35.9886L7.44693 36.0448C7.77552 36.3468 8.0758 36.6688 8.4291 36.9462C10.1454 38.2933 12.42 39.2943 14.551 39.7343L16.2958 40.0276C16.8687 40.1073 18.6342 40.2708 18.9455 40.0909L18.9741 40.0747C19.1072 39.9982 19.1827 39.9088 19.2696 39.7851C19.467 39.4058 19.5368 38.9553 19.6329 38.5415C17.6818 38.4267 15.7658 37.8721 13.9833 37.0843L12.212 36.2017C10.4576 35.2862 8.78193 34.2096 7.32622 32.862ZM40.685 32.8777C39.7914 33.764 38.9519 34.3514 37.891 35.0075C35.3994 36.5487 31.393 38.5042 28.3754 38.5148C28.4177 38.944 28.5131 39.4837 28.7837 39.8293C29.0646 40.2028 29.3919 40.1443 29.8096 40.1417C32.8685 40.1223 35.9936 39.261 38.5782 37.6129C38.9317 37.3875 40.6013 36.2113 40.6786 35.8525L40.685 32.8777Z" fill="black"/>
</svg>
