<svg width="48" height="48" viewBox="0 0 48 48" fill="none" xmlns="http://www.w3.org/2000/svg">
<path d="M26.5547 38.1217C25.0709 36.6894 24.8807 34.9407 24.5778 33.0455C24.44 32.183 24.287 31.316 24.2179 30.4442L24.1405 29.103C24.0764 28.5017 23.872 28.4676 23.8504 29.0642L23.6896 31.4017L23.3458 33.7262C22.8547 36.7787 21.6584 38.8661 18.5743 39.8634C15.7069 40.7907 11.4744 39.7365 9.18907 37.9098C6.9206 36.0965 5.97579 33.4196 5.72102 30.6189L5.64574 29.9673C5.60904 29.4173 5.62029 28.8633 5.62024 28.3123L5.64368 26.7055C5.91415 22.4278 7.49988 15.9592 9.95965 12.4539L10.5156 11.7337C11.2323 10.7723 11.5809 9.94817 11.5482 8.76252C11.5339 8.24187 11.5231 7.89964 12.0994 7.73633L35.2013 7.7608C35.5361 7.76061 35.9681 7.68191 36.2473 7.90662C36.6377 8.22092 36.4036 8.92583 36.4495 9.36148C36.5781 10.5806 37.2902 11.4398 38.0018 12.3883C38.7242 13.3512 39.2712 14.4633 39.7482 15.5621L40.501 17.6012C40.6107 17.9134 40.6872 18.2385 40.7969 18.5462L41.1723 19.931C41.2961 20.2915 41.3486 20.6878 41.4379 21.0582L41.8813 23.1847C41.9805 23.6855 42.0154 24.1995 42.0949 24.7027L42.2965 26.4128C42.309 26.5397 42.3347 26.6621 42.343 26.792L42.3783 28.586C42.3803 29.8275 42.3109 31.0873 42.0697 32.3082C41.1075 37.177 37.4336 39.7078 32.7657 40.1361C30.4497 40.3486 28.2457 39.8425 26.5547 38.1217ZM12.9262 9.16667L12.9268 9.21252C12.9342 10.1014 12.6425 10.8533 12.2493 11.6381C12.9991 11.8125 13.7437 11.923 14.5036 12.0397L19.1134 12.5387L21.1211 12.5618C21.7889 12.5624 22.4659 12.5905 23.1295 12.5069C23.6275 12.4442 24.3088 12.4493 24.8087 12.5002C24.9274 12.5123 25.0327 12.5547 25.1544 12.5586L28.2775 12.5543L32.5665 12.1837L33.9222 11.9902C34.0474 11.9725 34.1696 11.9353 34.2949 11.9213L35.7721 11.6096C35.3456 10.8534 35.0886 10.0356 35.0792 9.16517L12.9262 9.16667ZM11.3388 12.8806L10.9685 13.3872C10.037 14.7914 9.23473 16.4698 8.81037 18.1121C13.1346 18.7383 20.3491 21.9075 22.6405 26.0035C22.7696 26.2345 22.8244 26.519 23.0052 26.7162C23.3004 27.038 23.8809 27.1947 24.2931 27.1041L24.3228 27.0981C25.1038 26.9269 25.0736 26.6026 25.3194 26.0738C26.3153 23.9317 29.3104 21.9551 31.2961 20.8877C33.3357 19.7913 36.8374 18.2333 39.2304 18.1402C38.977 17.0921 38.4825 16.0782 38.0237 15.108C37.6278 14.3596 37.2062 13.5347 36.6384 12.899L32.2017 13.6549L28.8048 13.936L25.4927 13.9723C25.8979 15.4727 25.8721 17.0996 25.8739 18.6423C25.8746 19.274 26.1791 21.035 25.09 20.84L25.0547 20.8341C24.3419 20.705 24.512 19.7624 24.5161 19.253C24.5244 18.2205 24.5344 17.2249 24.4146 16.2L24.115 14.0689C24.0225 13.5334 23.8811 14.0153 23.8444 14.2752L23.5755 16.2159C23.5467 16.453 23.4894 16.6887 23.4767 16.9275L23.4598 19.9915C23.4594 20.1116 23.4737 20.2633 23.4374 20.3785C23.2355 21.0197 22.1259 21.1029 22.1239 20.0183L22.1259 17.4728C22.1277 16.31 22.2728 15.0819 22.51 13.9467L19.4225 13.9389C19.2266 13.9335 19.0346 13.8957 18.8396 13.888L17.7006 13.8474L12.5174 13.126L11.3388 12.8806ZM8.34574 19.515L7.40674 23.7301C7.0293 26.0009 6.74369 29.0065 7.17237 31.3121C7.27694 31.8747 7.33062 32.4853 7.53907 33.0222L7.83349 33.8434C8.61218 35.699 9.97076 37.0925 11.8106 37.9052C14.2694 38.9912 17.8774 39.2524 20.0684 37.5191C21.033 36.6602 21.5791 35.687 21.8422 34.4059L22.0662 32.996C22.2038 32.1246 22.3625 31.2378 22.4148 30.3564L22.4996 29.2027C22.5279 28.8352 22.5475 28.4764 22.648 28.1188C21.7711 27.6156 21.7222 27.1054 21.2149 26.3287C19.3256 23.4362 15.3113 21.5704 12.1876 20.4354C10.925 19.9766 9.69016 19.5926 8.34574 19.515ZM39.4125 19.533C35.4737 19.9183 28.659 23.2324 26.7277 26.4517C26.3211 27.1295 26.0855 27.7186 25.3927 28.1666L25.4459 28.381C25.4711 28.4847 25.4631 28.604 25.4725 28.7105L25.568 29.8003C25.6264 30.8447 25.7779 31.8572 25.9325 32.8926L26.1104 34.0309C26.4059 35.6242 26.7919 36.6687 28.1814 37.7208C29.2519 38.4608 30.3832 38.7721 31.6637 38.7704C36.3082 38.7645 39.9398 36.5573 40.7766 31.7105L41.0045 29.3794C41.0133 29.193 41.0363 29.0071 41.0379 28.8205L40.9683 26.6517L40.8048 25.2184C40.7638 24.8699 40.7266 24.5124 40.6615 24.1674L39.6664 19.5228L39.4125 19.533Z" fill="black"/>
</svg>
