<svg width="48" height="48" viewBox="0 0 48 48" fill="none" xmlns="http://www.w3.org/2000/svg">
<path d="M34.1773 36.0786L31.3861 36.9771C29.6033 37.4651 27.2336 37.9045 25.568 36.9413C24.496 36.3213 23.5729 34.9593 24.3095 33.7432L24.3276 33.7136C24.092 33.6996 23.866 33.6755 23.6374 33.6139C23.7001 33.8071 23.8366 33.9704 23.8815 34.1698L23.896 34.2334C24.3081 36.0319 22.8544 37.0293 21.2756 37.4376C18.7839 38.0821 14.0032 36.2557 11.5908 35.0876C10.2626 34.4446 9.0049 33.6918 7.74237 32.9328C6.03748 31.9077 4.94848 30.8885 4.46401 28.9204C3.93038 26.7527 5.12084 22.496 6.04456 20.599C6.28207 20.1113 6.53435 19.5393 6.90462 19.133C7.12109 18.8956 7.14771 18.7913 7.27156 18.4946L7.87952 17.0904L8.65488 15.6781C9.32763 14.4151 9.90448 12.9149 10.1134 11.4968C10.1876 10.9928 10.175 10.6224 10.7258 10.4316C10.9735 10.419 11.1137 10.5078 11.3339 10.6044L11.9968 10.8976C12.8592 11.2789 13.7691 11.5693 14.6667 11.8528L15.8752 12.2371C17.9608 12.8132 20.1022 13.1321 22.2592 13.2469L25.4487 13.2521C28.9381 13.0852 32.0636 12.3942 35.3056 11.1446L36.915 10.4833C37.6926 10.2032 37.7843 10.9589 37.8774 11.4727L38.0164 12.1406C38.067 12.3436 38.0982 12.5554 38.1705 12.7532L38.7154 14.25C38.8851 14.5984 39.0172 14.9718 39.202 15.3124C39.5922 16.0317 40.0935 16.6895 40.4649 17.4214C40.8099 18.1012 41.0484 18.8285 41.388 19.5089L41.8345 20.334C42.2029 21.0775 42.7204 22.2829 42.9206 23.1086L43.1137 23.7933C43.1194 23.8243 43.1233 23.8535 43.1342 23.8833L43.1545 23.9399C43.1862 24.0425 43.1922 24.1576 43.209 24.2638L43.3135 24.7617C43.7187 26.4018 43.9028 28.7017 43.1517 30.2087C42.2977 31.9221 41.3491 32.5695 39.7659 33.4687C38.0232 34.4585 36.0876 35.4365 34.1773 36.0786ZM11.3438 12.0821L10.7864 14.002C11.2002 14.2023 11.6478 14.3547 12.081 14.5081L15.0494 15.4176C16.8885 15.9131 18.7556 16.285 20.6485 16.4974L21.2239 16.5386C25.8822 17 30.9265 16.2368 35.348 14.6975L36.7564 14.1793C36.9163 14.1175 37.0798 14.0422 37.2462 14.0011C37.0367 13.3563 36.7687 12.7218 36.6399 12.054L34.7717 12.7891C33.1015 13.3964 31.3406 13.8842 29.5899 14.1971L27.4801 14.4927C26.8042 14.5762 26.1252 14.6396 25.4442 14.6446L22.1117 14.6278L18.5157 14.2093C17.0827 13.9698 15.6794 13.5966 14.2969 13.1538L12.5736 12.5463C12.1658 12.3888 11.7627 12.2087 11.3438 12.0821ZM10.3442 15.2544L8.97415 17.8843C8.64284 18.5579 8.36618 19.255 8.11817 19.9628C8.34181 20.2555 8.6419 20.5174 8.91387 20.7659C11.3319 22.976 14.8772 24.3836 17.9559 25.345C21.0225 26.3027 23.6601 26.7374 26.845 26.2376C29.6856 25.7919 34.2775 23.981 36.6568 22.5671C37.3965 22.1129 38.1356 21.6391 38.7946 21.0711L39.5527 20.3626C39.6835 20.2365 39.8119 20.093 39.9622 19.9908C39.7877 19.5485 39.7442 19.0735 39.5549 18.633C39.368 18.1982 39.1202 17.7904 38.8884 17.3786L37.6803 15.2691C35.2328 16.2281 32.6995 17.0002 30.1093 17.4646L25.7331 17.9842L22.1056 17.9832C18.5571 17.7842 13.7208 16.7433 10.4965 15.3245L10.3442 15.2544ZM7.27249 21.0821L6.83299 22.0694C6.53801 22.8228 6.3222 23.5931 6.10643 24.3711C6.01681 24.6941 5.98521 25.032 5.89188 25.3558C7.39727 26.1531 8.94307 26.8463 10.5138 27.5051L12.2227 28.2191L18.8907 30.5649C19.3006 30.7004 19.7007 30.8653 20.1212 30.9665L20.1915 30.9927C20.2394 30.8851 20.2313 30.7278 20.2425 30.6094C20.3439 29.5406 20.8917 28.5359 21.4663 27.6524C17.2345 26.9091 10.3328 24.4201 7.33606 21.1319C7.30217 21.0948 7.32096 21.1111 7.27249 21.0821ZM40.7463 21.0811L40.02 21.792C37.5229 24.1072 33.8653 25.5497 30.6563 26.628C30.025 26.8402 29.4026 27.0657 28.7579 27.2368L27.3376 27.5664C27.0723 27.6145 26.7882 27.6263 26.5294 27.6954C27.1389 28.6004 27.53 29.5184 27.722 30.5911C27.745 30.7196 27.7399 31.0644 27.8204 31.1514L27.9024 31.1361L31.5938 29.7432C34.7877 28.5664 38.0139 27.4068 41.0785 25.9158C41.3842 25.7671 41.8407 25.6192 42.0896 25.3811L41.782 23.9766C41.6214 23.323 41.1143 21.6717 40.7463 21.0811ZM5.66904 26.8008C5.62723 27.1101 5.58992 27.4736 5.60731 27.7852C5.72735 29.9358 6.86895 30.8513 8.62137 31.9281C11.4764 33.6825 19.3682 37.7068 22.0662 35.6616C23.2513 34.7986 22.591 34.4626 21.8929 33.6946C21.8309 33.6264 21.7953 33.5307 21.7316 33.468C21.5319 33.2712 21.2034 33.1607 20.9773 32.9811C20.2746 32.4231 20.83 32.5536 19.8307 32.2962L14.3971 30.5467L8.43424 28.1081L6.68435 27.291C6.36799 27.1328 6.0386 26.9018 5.70499 26.7944L5.66904 26.8008ZM42.263 26.8477C41.8843 27.0682 41.4855 27.2463 41.09 27.4336L38.4902 28.5827L28.4298 32.3535C28.0377 32.4812 27.5697 32.4612 27.3213 32.7527C27.0588 33.0608 26.4132 33.4394 26.0232 33.8087C25.3461 34.4498 25.0097 34.9722 26.0072 35.6698C27.5467 36.5679 29.0817 36.1449 30.7266 35.7408C33.2646 35.1172 35.6732 34.1023 37.9868 32.8972C39.7861 31.9599 41.8051 30.92 42.256 28.7317C42.378 28.1395 42.4267 27.4583 42.3049 26.8619L42.263 26.8477ZM22.9772 27.8376C22.1119 28.951 21.3933 30.0273 21.5449 31.5572C22.0538 32.0418 23.7273 32.4077 24.3901 32.3908L25.0255 32.3296C25.3188 32.2555 26.2696 32.081 26.4833 31.8944C26.4273 30.3757 26.2606 29.5513 25.2878 28.2507C25.1734 28.0978 25.0302 27.9724 24.9144 27.8229L22.9772 27.8376Z" fill="black"/>
</svg>
