<svg width="48" height="48" viewBox="0 0 48 48" fill="none" xmlns="http://www.w3.org/2000/svg">
<path d="M31.8209 37.1026C30.2427 37.1061 27.2625 36.956 26.9299 34.9073C26.8658 34.5123 26.8364 34.2199 26.6725 33.8433L25.0267 30.2268C24.8939 29.9224 24.703 29.6067 24.5979 29.2952L24.5139 29.0796L23.1432 29.0627C23.1051 29.1828 23.1197 29.3308 23.1075 29.4568C23.041 30.1427 22.7598 30.6602 22.4894 31.2805L21.5594 33.4449C21.337 33.942 21.1119 34.2356 21.0634 34.7899C20.9215 36.4139 18.7163 36.7452 17.3884 36.8199L16.4036 36.8271C16.1301 36.8269 15.8474 36.8396 15.5748 36.8147L14.2493 36.6326C13.3213 36.4905 12.4191 36.2847 11.5376 35.9571L10.1602 35.3905L6.57194 33.7714C6.15691 33.6003 5.71938 33.4866 5.29183 33.3519C4.24473 33.0222 4.0814 32.8864 4.36039 31.7352L6.90925 21.1576C7.32911 19.347 7.48919 18.1944 8.3537 16.4916L8.57974 16.0611C8.64367 15.9475 8.74802 15.8398 8.7445 15.7034L8.74249 12.0666C8.74295 11.5205 8.83394 11.056 9.49628 10.9507C9.67502 10.9406 9.84067 10.9638 10.0181 10.9781L17.6605 11.7464C17.8097 11.7626 17.9562 11.7994 18.1055 11.8115L20.466 12.0028L22.3836 12.0585L27.8672 12.0182C28.5085 12.015 29.1335 11.9432 29.7739 11.9109L37.7813 11.061C38.0341 11.0317 38.3406 10.9393 38.5906 11.0233L38.6606 11.0466C39.3481 11.2661 39.2452 11.9126 39.2457 12.4757C39.2461 12.9274 39.1902 15.5467 39.3048 15.7457C39.4385 15.978 39.5294 16.2571 39.6535 16.4996L40.2318 17.8235C40.5307 18.5739 40.7222 19.3399 40.87 20.1303L41.0977 21.1368C41.1231 21.2458 41.13 21.3603 41.1572 21.4683L42.2344 25.898C42.3298 26.2547 42.3709 26.6326 42.4691 26.9879L42.9854 29.0621C43.0422 29.2681 43.0753 29.4865 43.1256 29.6949L43.4514 30.9605C43.5427 31.3387 43.893 32.3939 43.7533 32.7176L43.7417 32.7425C43.5307 33.2188 43.0429 33.2297 42.5953 33.3647L41.0106 33.9054C40.6365 34.0522 40.2792 34.2379 39.9141 34.4046L38.2373 35.1667C36.1945 36.1156 34.1132 37.0436 31.8209 37.1026ZM10.3558 13.0075L10.3811 14.9237L12.3985 15.4393L15.002 15.9287L18.3265 16.2631C18.4638 16.2761 18.5953 16.3034 18.7341 16.312L19.8867 16.3406C20.082 16.3527 20.2748 16.3903 20.4697 16.4065L24.0735 16.4715L27.1793 16.4172C27.4596 16.408 27.7356 16.3461 28.0164 16.3342L29.141 16.3148C29.3025 16.3072 29.4559 16.2758 29.6137 16.2633L31.7461 16.1123L35.0524 15.6724L37.3945 15.2126C37.4688 15.1987 37.5435 15.1998 37.6093 15.1604L37.618 15.0264L37.6148 13.7556C37.6146 13.5361 37.6311 13.3006 37.6033 13.0836C35.8513 13.6452 34.0455 14.0776 32.2184 14.3062L30.5309 14.4511C29.9059 14.5052 29.4983 14.5335 28.8463 14.5362L22.4814 14.5308L17.2389 14.2093C15.5797 14.0573 13.8912 13.7993 12.2631 13.4447L10.9805 13.1586C10.7758 13.1103 10.5541 13.0749 10.3558 13.0075ZM10.2233 16.591C9.53988 17.6503 8.94147 18.9895 8.79002 20.2591C9.04863 20.3708 9.3326 20.423 9.6047 20.4929L15.7888 22.1324C17.9179 22.6959 19.3773 23.3625 20.7475 25.2394C21.0108 25.6002 21.1891 26.0157 21.478 26.3621C22.7227 27.8547 25.54 27.8298 26.659 26.1884C26.8954 25.8416 27.0782 25.4656 27.329 25.127C29.1149 22.7151 30.8872 22.5751 33.4507 21.8072L39.2402 20.2522L39.0192 19.3589C38.7729 18.5011 38.437 17.6411 38.0326 16.8456L34.2393 17.5864L31.2774 17.8785L27.9162 18.0119L27.0908 18.0852L23.7947 18.1468L17.9424 17.959L14.2242 17.5873C13.5661 17.4852 12.9103 17.3377 12.2694 17.1572L10.2233 16.591ZM8.3891 21.9019L7.78572 24.5738C7.84249 24.6474 10.1847 25.044 10.5586 25.1463C14.0943 26.1132 17.9429 28.8951 19.2298 32.4491L19.3521 32.7038L20.0442 32.7001L20.328 32.0706L21.1391 30.363C21.2388 30.1384 21.3544 29.9065 21.4265 29.6714L21.437 29.6387C21.5319 29.3179 21.4922 28.8879 21.5175 28.5506C21.0842 28.251 20.663 27.9219 20.3186 27.5207C19.756 26.8655 19.4253 26.0755 18.8008 25.4727C17.6097 24.3229 16.4722 24.073 14.9227 23.6364L9.40066 22.1569C9.15442 22.0889 8.6231 21.8626 8.3891 21.9019ZM39.5602 21.9019L31.881 23.9792C30.4851 24.4217 29.446 24.9447 28.5638 26.221C27.5898 27.63 27.5901 27.9161 26.0586 28.706L27.5678 31.834C27.7034 32.1184 27.821 32.419 27.9687 32.6947L28.6993 32.6851C28.8346 32.4685 28.925 32.189 29.0386 31.9551C30.7051 28.5264 33.9297 25.9776 37.6434 25.12L40.2472 24.5984L39.7948 22.7413C39.7348 22.4741 39.712 22.1508 39.6183 21.8979L39.5602 21.9019ZM7.39483 26.244C7.23475 26.7954 7.12999 27.3661 7 27.9254L6.17781 31.2921C6.13736 31.4572 6.07117 31.643 6.05495 31.8109L7.19636 32.2349L11.1951 34.0148C13.3181 34.8858 15.7243 35.3805 18.0179 35.0627C18.4268 35.0229 19.4535 34.9499 19.3927 34.3634C19.2351 34.1891 18.555 34.4916 18.1946 34.0727C18.0202 33.87 17.9354 33.5484 17.833 33.3043L17.5038 32.6021C15.9661 29.5414 13.1086 27.5189 9.81081 26.6867L8.20014 26.3635C7.93328 26.3207 7.65916 26.3012 7.39483 26.244ZM40.5471 26.2613C39.0955 26.5084 37.6289 26.7618 36.2576 27.3185C33.7089 28.353 31.6574 30.263 30.481 32.7408L30.118 33.5627C29.7324 34.4625 29.4736 34.2433 28.5791 34.3198L28.5885 34.3447C28.7626 34.8206 28.6242 34.9417 29.1797 35.0838L30.1158 35.2652C31.9695 35.4633 33.6447 35.2086 35.4004 34.5466L40.0334 32.4678C40.4349 32.2921 40.8667 32.1389 41.2866 32.0149L41.7188 31.8959C41.8076 31.8739 41.9187 31.8641 41.9993 31.8221L40.6478 26.2679C40.5972 26.2482 40.5971 26.2532 40.5471 26.2613Z" fill="black"/>
</svg>
