<svg width="48" height="48" viewBox="0 0 48 48" fill="none" xmlns="http://www.w3.org/2000/svg">
<path d="M31.2672 39.3806L28.9369 39.8425C27.4218 40.1364 27.5364 40.0631 27.0066 38.6963L24.6006 32.172C24.5263 31.9632 24.2615 31.0537 24.141 30.9412C23.7387 30.5658 23.359 32.2977 23.2683 32.5484L20.9996 39.1276C20.717 40.0054 20.6754 40.2146 19.63 39.972L12.955 38.4731L3.7265 36.6817C2.79589 36.4899 2.68598 36.2487 2.80473 35.4139L6.11956 16.5351L6.83581 12.5081C6.96832 11.3146 6.99898 10.7264 7.71729 9.75869C7.83298 9.60283 7.83898 9.6326 7.80973 9.44622L7.58417 7.92625C7.4915 7.32874 7.21484 6.44641 8.08212 6.28629C8.28528 6.28305 8.45192 6.33152 8.64837 6.36719L13.2485 6.9274L17.7222 7.26269C17.8797 7.27408 18.0328 7.30919 18.1924 7.31683L19.3755 7.3376C19.6202 7.34922 19.8609 7.40079 20.1058 7.40983L21.522 7.41972C21.7137 7.42418 21.9004 7.46083 22.0907 7.46529L26.3858 7.46355C26.5452 7.45929 26.7007 7.4313 26.8593 7.42436L29.8359 7.30915L36.8028 6.74543L38.9062 6.4646C39.433 6.38201 40.1552 6.06982 40.4833 6.69729L40.4981 6.72654C40.641 6.99747 40.5306 7.27886 40.4906 7.55782L40.3599 8.47263C40.2952 8.85982 40.2104 9.25122 40.2184 9.64451L40.2758 9.69138C40.2858 9.7669 40.3359 9.82521 40.3751 9.8884L40.6288 10.3074C41.1067 11.178 41.045 11.658 41.1729 12.5859L41.8641 16.6077C41.9081 16.8842 41.9385 17.1772 42.0008 17.4492L42.8384 22.1095C42.895 22.4321 42.9822 22.7596 43.0204 23.0852L44.521 31.4276C44.547 31.6756 44.6228 31.9342 44.6721 32.1797L45.1876 35.414C45.2365 35.7224 45.366 36.1916 45.2001 36.4819L45.1873 36.5039C45.0942 36.6752 44.9627 36.798 44.7742 36.8599L44.7421 36.87C44.5966 36.9161 44.4467 36.9221 44.2968 36.9461L34.8163 38.6259L31.2672 39.3806ZM9.08965 8.00941L9.34592 9.70929C9.74304 9.92219 10.2097 9.98885 10.6488 10.0681L12.3689 10.3454C13.2824 10.4998 14.1837 10.6885 15.1072 10.7866L19.6171 11.0863C19.903 11.0983 20.1841 11.1455 20.4748 11.1527L27.6467 11.1464C27.8939 11.1393 28.1326 11.0958 28.3776 11.0853L32.9648 10.7778L37.0228 10.1548C37.4131 10.075 37.8015 10.0051 38.1842 9.89022L38.4787 9.78358C38.7613 9.64591 38.7124 9.50013 38.7575 9.21091L38.9228 8.01794L35.9584 8.40733L29.5135 8.887L27.1945 8.97579L20.5342 8.97771L18.2562 8.89179C18.0487 8.88143 17.8415 8.84355 17.6339 8.82677L11.2499 8.30561C10.5304 8.22522 9.809 8.06093 9.08965 8.00941ZM39.3335 11.0145C38.8921 11.3403 38.4267 11.4113 37.8959 11.5208L33.0226 12.3478L29.3759 12.6427L18.9609 12.6465C18.6896 12.6379 18.4197 12.5986 18.1491 12.5778L12.697 12.0604L10.4063 11.6518C9.61943 11.486 9.26482 11.3899 8.549 11.0929C8.33131 11.8421 8.411 12.4542 8.26184 13.1141L5.3779 29.3554C5.35812 29.4515 5.303 29.6145 5.32329 29.7104C6.17098 29.968 7.00151 30.2036 7.87334 30.3702C10.3748 30.8484 12.9767 30.9901 15.3927 31.8624C16.9476 32.3655 18.4051 33.0381 19.7841 33.915L20.9418 34.7161C21.1921 33.807 21.5341 32.9105 21.8467 32.0206C22.0591 31.4159 22.2404 30.7151 22.5682 30.1632C23.3485 28.8491 25.0555 29.1662 25.6218 30.6211L26.3788 32.6718C26.6258 33.2567 26.8363 34.21 27.1187 34.7094C28.797 33.3283 30.708 32.3995 32.78 31.7633L34.582 31.2843C35.8644 30.9537 37.1838 30.735 38.496 30.5599L42.7789 30.0602L39.7737 13.2422L39.6804 12.5156C39.6226 11.9618 39.6186 11.5096 39.3335 11.0145ZM5.05423 31.1812L4.33955 35.2651C4.64709 35.3705 4.98429 35.4141 5.30506 35.4667L10.6034 36.4113L19.6171 38.4347L19.6624 38.3789L20.4163 36.2199C18.0527 34.3367 15.2098 33.114 12.2574 32.4984C10.0588 32.04 7.07829 31.9937 5.05423 31.1812ZM43.0113 31.5586C41.9029 31.6112 40.7861 31.789 39.6861 31.9336L37.1295 32.3368C34.19 32.8471 31.0465 33.6395 28.6093 35.4526C28.2865 35.6928 27.911 35.9593 27.6311 36.2477L27.963 37.0312C28.0978 37.3765 28.3181 38.0259 28.4801 38.3233L28.5117 38.3892C28.6414 38.4233 28.9039 38.3221 29.0385 38.2902L33.9927 37.1534L43.7373 35.5438L43.0113 31.5586Z" fill="black"/>
<path d="M23.5987 22.7225C22.8831 22.7559 22.7655 22.2816 22.7933 21.6697L23.2077 16.9839C23.2336 16.7152 23.2838 16.4221 23.272 16.1536C22.7142 16.1921 21.8558 16.3146 21.6099 16.9097C21.5223 17.1216 21.5183 17.1082 21.7152 17.2038C21.8965 17.2918 22.0467 17.407 22.1232 17.6001L22.1367 17.6359C22.3871 18.2815 21.8275 18.7974 21.2 18.6368C19.8729 18.2972 19.8274 16.646 20.5823 15.6989C21.2423 14.8708 22.348 14.7178 23.3273 14.6025C23.368 13.892 23.1217 13.0529 23.9716 12.7755C24.3018 12.7605 24.6089 12.9011 24.7639 13.2155L24.7818 13.2534C24.8706 13.4344 24.8509 13.6096 24.8495 13.8059L24.8415 14.5655C24.9886 14.6194 25.1418 14.6218 25.2938 14.6533C26.2736 14.8566 27.3854 15.2569 27.7629 16.2796L27.7739 16.312C28.0331 17.0085 27.9497 17.8327 27.3525 18.3358C26.2411 19.2721 25.2751 17.9248 26.1805 17.2688L26.4368 17.0796C26.206 16.3029 25.4676 16.247 24.7652 16.1021C24.7344 16.3247 24.7374 16.5413 24.7207 16.7641L24.298 21.5269C24.2713 21.7496 24.2926 22.0465 24.2015 22.2496L24.189 22.2769C24.077 22.5372 23.8742 22.6627 23.5987 22.7225Z" fill="black"/>
</svg>
