<svg width="48" height="48" viewBox="0 0 48 48" fill="none" xmlns="http://www.w3.org/2000/svg">
<path d="M35.1199 41.5584C34.7979 41.5479 34.443 41.5762 34.1183 41.5762L31.9486 41.5736C30.8586 41.5651 29.7663 41.4097 28.6947 41.2201C26.4606 40.8249 25.1144 40.3197 23.9426 38.3335C22.9365 40.1865 21.3863 40.8921 19.4032 41.2439L17.9836 41.4474C16.8817 41.5861 15.7847 41.5806 14.6745 41.5794C11.5045 41.576 7.59304 41.0416 4.52576 40.1146C4.25748 40.0336 3.98639 39.9345 3.85092 39.6668L3.83681 39.6375C3.61757 39.1912 3.94672 38.0047 4.02736 37.5232L5.50589 28.6053L6.02714 23.889L6.82101 19.6343L8.16717 14.8746L8.75062 13.1765C8.87118 12.8463 9.01753 12.5775 9.0179 12.2167L9.01851 8.53781C9.01837 8.12484 8.89903 7.18744 9.10021 6.8483L9.14596 6.77006C9.28265 6.54675 9.45721 6.45802 9.70542 6.4027L37.8608 6.39844C38.7344 6.39909 38.997 6.54478 38.9971 7.53984L38.9981 12.062C38.9985 12.7983 39.4063 13.4733 39.6054 14.1711L40.6723 17.7125C40.6989 17.8561 40.7394 18.0133 40.7819 18.1522L41.1894 19.7071C41.3421 20.2148 41.4342 20.7646 41.5257 21.2862L41.7665 22.5584C41.8313 22.9095 41.8624 23.2711 41.9084 23.6248L42.0936 25.4061C42.1095 25.5939 42.1535 25.7781 42.1694 25.9677C42.2042 26.3843 42.1457 26.8124 42.1908 27.2258C42.2588 27.8501 42.3986 28.463 42.5088 29.0798L44.2439 39.1361C44.3287 39.9795 43.6898 40.0388 43.0364 40.2412L39.8264 41.0393L37.452 41.4059C36.6735 41.4962 35.9015 41.5176 35.1199 41.5584ZM12.4477 7.82794C12.2442 7.82855 10.5874 7.8008 10.5106 7.85208C10.4804 8.22633 10.4578 8.70562 10.5142 9.07786L35.5665 9.09178L37.498 9.10148L37.4993 7.82789L12.4477 7.82794ZM10.5052 10.6406L10.5052 12.2929L37.5171 12.3057L37.5009 10.6456L10.5052 10.6406ZM10.1362 13.8577C9.81965 14.6057 9.6179 15.3943 9.38596 16.1689C8.85698 17.9353 8.34159 19.7162 7.97653 21.5247L7.55873 24.0743C7.47276 24.7195 7.34151 25.4356 7.38426 26.0895C8.26776 26.1024 9.13462 26.2167 10.0109 26.3237C13.0004 26.6886 16.1889 27.2489 18.5782 29.2251C19.107 29.6625 19.5622 30.17 20.0744 30.6244C22.6396 32.9003 25.8048 32.6831 28.2487 30.3107C31.2518 27.3955 33.88 26.8507 38.0073 26.2895L39.7267 26.0861C40.0127 26.0574 40.3396 26.0546 40.6174 25.9814L40.5804 25.5078C40.3098 22.1111 39.4607 18.8509 38.4619 15.6046L38.0859 14.4276C38.0322 14.2536 37.9952 14.0132 37.9132 13.8557L31.3328 13.8567C31.2717 14.0337 31.2807 14.2133 31.2523 14.3957C30.7466 17.642 29.4946 21.1584 26.3439 22.688C24.9901 23.3453 23.6995 23.4259 22.2661 22.9228C18.6301 21.6465 17.0649 17.4259 16.6826 13.869L10.1362 13.8577ZM18.2205 13.8569C18.2761 14.6725 18.7689 16.6305 19.0551 17.3318C19.3979 18.1718 20.2158 19.8156 20.9884 20.3693L21.0054 20.2554L20.8777 18.666C20.8097 17.7541 20.6717 14.539 20.955 13.8558L18.2205 13.8569ZM22.6639 13.857C22.5665 13.9592 22.5124 14.038 22.4535 14.1678L22.4402 14.1955C22.2297 14.6495 22.3141 15.4557 22.3147 15.9435L22.4101 19.1014C22.4542 19.6868 22.5965 20.9017 22.7827 21.4281C23.281 21.6751 23.8676 21.833 24.425 21.7116L24.6997 21.6574C24.848 21.6289 25.0026 21.5602 25.1372 21.492C25.1982 21.4561 25.2578 21.4215 25.3134 21.3774L25.6769 18.1594L25.6825 16.0962C25.6817 15.606 25.7335 15.0441 25.6346 14.5635L25.6254 14.5095C25.5635 14.1607 25.5264 13.8562 25.1342 13.856L22.6639 13.857ZM27.0351 13.8569L27.1325 14.2072C27.211 14.5017 27.1957 14.8267 27.1955 15.1287L27.1695 18.8903C27.1411 19.3738 27.0465 19.8578 27.0483 20.3411C27.5039 19.9355 27.8839 19.4348 28.1843 18.9035C28.9314 17.7268 29.3128 16.353 29.5945 14.9998L29.7878 13.857L27.0351 13.8569ZM40.6799 27.574L36.5158 28.1228C34.1829 28.5317 31.7869 29.1234 29.9964 30.7681L29.2279 31.5236C27.9063 32.7859 26.5373 33.399 24.7713 33.7305L24.7571 34.9806C24.7582 35.441 24.7507 35.9835 24.8394 36.438C25.0767 37.6534 25.8908 38.7892 27.0422 39.2792L27.3692 39.3967C27.9661 39.5931 28.5846 39.6868 29.2028 39.785L30.6442 39.9773C31.2996 40.0497 31.9278 40.0482 32.5887 40.048L34.2307 40.0405L35.9039 39.8898C37.618 39.7288 39.3224 39.4977 40.9995 39.1015L42.174 38.8438C42.3239 38.8069 42.4919 38.7803 42.6335 38.7196L40.6799 27.574ZM7.19526 27.6218L5.38692 38.7576C5.77003 38.8774 6.17076 38.9536 6.56264 39.0401L8.5229 39.4087C10.1898 39.6715 11.8651 39.9361 13.5523 40.033L17.2516 40.0333C18.1096 39.9833 20.001 39.7756 20.7715 39.4351C22.0616 38.8419 23.0969 37.4064 23.2424 35.9764C23.2693 35.7121 23.254 35.4354 23.254 35.1697L23.2527 33.7493C23.1969 33.7119 23.1076 33.712 23.0407 33.7021L22.6574 33.639C21.3959 33.4126 20.1949 32.7601 19.2324 31.921L18.1985 30.9269C16.1107 28.9765 13.4434 28.3624 10.6785 27.9811L7.53529 27.6539C7.43104 27.6432 7.2974 27.6132 7.19526 27.6218Z" fill="black"/>
</svg>
