<svg width="48" height="48" viewBox="0 0 48 48" fill="none" xmlns="http://www.w3.org/2000/svg">
<path d="M28.2826 36.9968L24.4316 27.7329C24.2833 27.7707 24.143 27.8018 23.989 27.7992C23.8813 27.7974 23.6604 27.6816 23.6055 27.794L20.2058 35.8753C19.6994 37.1035 19.8242 37.4793 18.4335 37.5932C14.6616 37.9022 9.9471 36.1532 7.04038 33.6633C6.28837 33.0191 5.35584 32.0851 5.48409 30.9958C5.51831 30.7053 5.62143 30.4328 5.69648 30.1524L9.40785 15.4143C9.58017 14.6907 9.68315 14.4037 9.67879 13.665L9.67729 11.8836C9.67827 11.2522 9.57946 10.5121 10.3976 10.4144L37.2056 10.4073C37.663 10.4079 37.9849 10.3822 38.2346 10.8426L38.2517 10.8747C38.3999 11.1414 38.3133 11.5757 38.3135 11.8716L38.3145 13.7604C38.3152 14.4436 38.4471 14.901 38.6252 15.5739L38.8127 16.3708C38.8387 16.4737 38.8733 16.5697 38.8908 16.6755L39.8316 20.5254C39.8761 20.7738 39.9639 21.0478 40.0321 21.2927L40.5939 23.5427C40.6977 23.9188 40.7684 24.322 40.8897 24.6898L41.8937 28.6105C42.0868 29.6624 42.6697 30.6976 42.4063 31.7866L42.3931 31.8441C41.994 33.4086 38.7612 35.2334 37.4591 35.8701C35.2779 36.9366 31.242 38.1404 28.7632 37.4719C28.4921 37.3988 28.4116 37.2248 28.2826 36.9968ZM11.0657 11.8128C11.0322 12.2413 11.0013 13.2795 11.0589 13.7055L17.6748 13.7034L17.6712 11.8168L11.0657 11.8128ZM19.0724 11.8117L19.0575 13.704L22.9402 13.7062C23.0559 13.7062 23.2054 13.7238 23.3171 13.6992C23.3159 13.3455 23.2373 12.8024 23.4988 12.5308C23.8184 12.1989 24.3833 12.3464 24.5649 12.7497L24.5819 12.7848C24.7027 13.0442 24.6595 13.4126 24.66 13.6943L27.5507 13.7047L28.369 13.7034C28.5376 13.703 28.7131 13.7133 28.8802 13.6895L28.8883 11.8289L19.0724 11.8117ZM30.2777 11.8117L30.2674 13.7057L36.9406 13.7053L36.9525 12.3412C36.9519 12.2093 36.9808 11.9423 36.9292 11.8277L30.2777 11.8117ZM23.9995 15.0366C22.3799 15.1167 21.1733 16.1134 20.994 17.7935C20.9731 17.9891 21.0026 18.2285 20.9294 18.4105C20.6387 19.1334 19.6538 18.9065 19.6174 18.1755C19.5487 16.7964 20.0334 16.1429 20.7026 15.1076L10.9065 15.0979C10.8187 15.2874 10.7945 15.5341 10.7449 15.738L9.43579 21.0883L7.74599 27.698L6.81374 31.2415C7.08515 31.8806 7.64638 32.3763 8.17907 32.8017C10.4231 34.5936 13.6465 35.9747 16.4765 36.2016C17.1736 36.2575 17.898 36.2393 18.5969 36.2142L22.3851 27.088C21.7551 26.4294 21.2317 25.7178 20.8082 24.911C20.5939 24.5026 20.4189 24.1315 20.8107 23.7578C21.6212 22.9847 22.115 24.5028 22.472 25.0076C22.8281 25.5112 23.2804 25.9029 23.6678 26.3759L24.0044 26.3416L24.4075 26.3558C24.7256 25.8982 25.1503 25.5289 25.4695 25.0702C25.722 24.7074 25.9818 24.0798 26.2089 23.801C26.5443 23.3892 27.1294 23.525 27.3379 23.9987L27.35 24.0252C27.415 24.1815 27.3703 24.4096 27.3163 24.5639L27.2803 24.6559C27.0429 25.2173 26.7185 25.749 26.3543 26.2368L25.8761 26.8187C25.7341 26.9785 25.617 26.9877 25.7026 27.1989L28.7984 34.7215C28.9072 34.9356 29.3419 36.1603 29.4862 36.2117C29.5751 36.2434 29.7338 36.2295 29.831 36.2301L30.6628 36.2289C32.7547 36.2146 34.763 35.6085 36.6397 34.719C37.7189 34.2075 40.8943 32.469 41.1751 31.2582L37.1307 15.0961L27.257 15.1171C27.5943 15.4432 27.894 15.9671 28.056 16.4059L28.1486 16.6755C28.2938 17.0577 28.3511 17.5479 28.3687 17.9501C28.4174 19.0617 27.264 19.1502 27.0312 18.3079C26.9823 18.131 27.0163 17.9126 26.9816 17.7258C26.6884 16.1449 25.595 15.1197 23.9995 15.0366Z" fill="black"/>
</svg>
