<svg width="48" height="48" viewBox="0 0 48 48" fill="none" xmlns="http://www.w3.org/2000/svg">
<path d="M10.8647 31.5541C10.3132 31.3809 9.73594 31.2674 9.17298 31.1376C5.75883 30.3498 3.41384 28.8115 3.87339 25.0993L5.71398 15.2928C5.89548 14.2229 6.38054 14.5323 7.21168 14.7599L9.84024 15.3171C10.47 15.4421 11.1215 15.5108 11.7583 15.5897L15.7 15.9607C15.8944 15.9745 16.0856 16.0216 16.2803 16.0348L17.3428 16.0635C17.5598 16.0744 17.7728 16.1189 17.9885 16.1295L20.5584 16.2259L26.9304 16.226C27.2017 16.2173 27.4687 16.1671 27.7408 16.1572L29.3474 16.1285L35.0393 15.6474L39.133 14.9934L40.5121 14.6769C40.8886 14.582 41.2584 14.4668 41.6454 14.4242C42.2758 14.3024 42.2951 15.3083 42.3757 15.6795L43.6961 22.5889C43.7848 22.9741 43.8653 23.3671 43.9325 23.7565L44.1011 24.739C44.2207 25.4893 44.2173 26.8006 43.9933 27.4968L43.9638 27.5946C43.5448 29.2699 41.538 30.398 39.9591 30.8616C39.567 30.9767 39.163 31.0443 38.7669 31.1443L36.3557 31.7928C34.4936 32.3714 31.9221 33.6692 30.7473 35.2507C30.5149 35.5635 30.4165 35.9607 30.0991 36.1965C29.4713 36.6629 28.5796 36.8612 27.8074 36.9402C27.6009 36.9613 27.662 37.0004 27.5276 37.1533C27.1573 37.5745 25.8832 37.648 25.3596 37.6885C23.9135 37.8003 22.4439 37.8108 21.0278 37.4493C20.4307 37.2969 20.5471 37.0183 19.8987 36.9115L19.2999 36.7832C18.4509 36.5564 17.9462 36.3938 17.4997 35.6327C16.3348 33.6471 12.9585 32.0948 10.8647 31.5541ZM41.0823 15.9021L38.2477 16.5028L34.8594 16.9801L32.1414 17.2499C31.9757 17.2629 31.812 17.301 31.6476 17.3122L29.6493 17.4328L25.7755 17.5203C25.5001 17.5222 25.2038 17.5089 24.9339 17.5694C25.1599 17.9203 25.4136 18.2928 25.5476 18.6912C25.6611 19.0285 25.6999 19.4012 25.8209 19.7326C26.2658 20.9522 27.1606 21.6618 28.4145 21.8524C29.1208 21.9598 29.445 23.5718 27.4892 22.9717C24.3391 22.005 24.5663 18.814 23.8795 18.643C23.586 18.5699 23.136 19.2741 23.0379 19.4764L23.0203 19.5114C22.8966 19.7639 22.866 20.071 22.7641 20.3369C22.3663 21.3754 21.6409 22.3619 20.568 22.7705C20.1318 22.9366 19.3636 23.2892 18.9026 23.0821C18.386 22.85 18.3081 22.0899 18.8997 21.8864C19.0526 21.8338 19.2317 21.8439 19.3915 21.8014C20.8853 21.4041 21.3094 20.7092 21.6328 19.3488C21.7862 18.7037 22.0958 18.0962 22.5125 17.5802C22.1043 17.5431 21.8705 17.5148 21.4335 17.5136L19.6057 17.5117L16.4065 17.3374L11.8116 16.9332L10.219 16.6941C9.10084 16.5244 7.98123 16.3397 6.88768 16.046L6.4171 18.4037L5.26576 24.4583C5.16633 25.0289 5.05023 25.647 5.06466 26.2266C10.518 25.878 18.9189 28.3676 21.1197 33.7967L21.2031 33.9907C21.2604 34.1222 21.2824 34.2768 21.3164 34.4162C21.8961 34.4335 22.4894 34.5343 23.062 34.6254C23.3267 34.6676 23.5962 34.7593 23.8674 34.7522C24.8031 34.7277 25.714 34.4389 26.6577 34.4553C26.9415 33.3507 27.6605 32.2361 28.4079 31.3775C30.415 29.0717 33.5826 27.6837 36.4759 26.9216L37.9221 26.5964C39.5502 26.2539 41.2521 26.1028 42.9149 26.2221C42.9161 25.8617 42.9169 25.5144 42.8715 25.1564L41.0823 15.9021ZM5.99935 27.4646L5.36823 27.4865C6.1674 28.8157 7.56657 29.4026 9.01655 29.7638L10.6017 30.1313C13.3075 30.8208 16.768 32.2966 18.3981 34.6851C18.8062 35.2831 18.9828 35.4346 19.7869 35.5579C19.9648 35.605 20.1325 35.6372 20.3158 35.6532C20.0953 33.864 18.7847 32.1506 17.3948 31.0673C14.34 28.6865 9.85435 27.5004 6.00446 27.4585L5.99935 27.4646ZM41.0308 27.4681C39.1944 27.6213 37.503 27.9702 35.7561 28.5193L34.8774 28.7956C31.8914 29.8676 28.6491 31.8668 27.7755 35.0942C27.7442 35.2097 27.6664 35.431 27.6792 35.5449L27.6916 35.6031C27.8013 35.6561 28.7613 35.3865 28.9465 35.3206L28.954 35.3161C29.2449 35.1914 29.2953 35.1767 29.4544 34.9158L29.7152 34.5194C31.1909 32.4789 33.9889 31.1722 36.3329 30.4293C38.1586 29.8506 41.6453 29.5302 42.5765 27.5662L42.6168 27.4868C42.1034 27.4257 41.5486 27.4601 41.0308 27.4681ZM21.5986 35.7574C21.5784 35.9113 21.5574 36.0606 21.5638 36.2163C22.5872 36.4452 23.7159 36.4394 24.7554 36.4023C25.0276 36.3926 26.3414 36.3139 26.4384 36.199L26.4296 36.1796C26.3737 36.0524 26.343 35.9159 26.3074 35.782C24.4184 36.0554 23.5524 36.1366 21.5986 35.7574Z" fill="black"/>
</svg>
