<svg width="48" height="48" viewBox="0 0 48 48" fill="none" xmlns="http://www.w3.org/2000/svg">
<path d="M24.3341 27.0395L24.0273 25.9198C23.6592 26.4873 23.2108 29.4959 23.0382 30.3064L22.3901 33.0098C22.2016 33.738 21.9615 34.4341 21.703 35.1393L21.2078 36.4763L19.2855 40.6251C19.0579 41.0902 18.9032 41.5612 18.5816 41.978C17.7929 43 16.8589 43.1681 15.716 43.4231L15.3999 43.4758C14.1705 43.5624 12.6641 43.274 11.7188 42.4377C11.0349 41.8327 10.6322 41.0214 10.1455 40.2649C8.29055 37.3818 7.52292 35.1485 7.19775 31.6441C7.12036 30.8102 7.15097 30.1479 7.13377 29.3216C7.12922 29.1021 7.07339 28.8931 7.06261 28.6752C7.03149 28.0478 7.0897 27.4366 7.11895 26.813L7.14816 25.9594L7.64517 22.5467C8.02017 20.7981 8.54981 19.1091 9.1852 17.438C9.66469 16.1769 10.2281 14.9704 10.5596 13.6543L11.6198 8.93017C11.79 8.11914 11.7932 7.20704 12.3858 6.56368C13.7196 5.11557 19.7859 4.67254 21.6372 4.5857L22.4407 4.53125L25.8313 4.53345C25.9845 4.5396 26.1334 4.5716 26.286 4.58083L28.1221 4.68386C29.9883 4.81937 31.4552 5.02876 33.2767 5.51697C34.9479 5.9649 35.8466 6.16557 36.1968 7.98648L36.9845 11.6489C37.0066 11.7414 37.0092 11.8381 37.0311 11.9302L37.3588 13.313C37.4756 13.7297 37.5484 14.1757 37.7018 14.5813L38.8744 17.6536L40.0143 21.1763L40.8034 25.6224C40.872 25.9403 40.8616 26.3043 40.878 26.6287L40.9396 27.3821C40.9808 28.1193 40.9114 28.6854 40.8843 29.3866L40.8555 31.1489L40.5962 33.7388C40.2984 35.917 39.5052 38.595 38.5095 40.5886C37.6162 42.3772 35.6979 43.5377 33.6932 43.4295C33.0302 43.3937 31.0682 43.0499 30.4847 42.7494L30.4453 42.7286C29.5079 42.2436 29.015 41.4163 28.5962 40.477L28.1035 39.386C27.0826 37.1591 26.0503 34.9261 25.4527 32.5403L24.7883 29.3458C24.6438 28.5763 24.5264 27.7994 24.3341 27.0395ZM21.6264 5.98225L18.2042 6.25014C18.1742 6.30076 18.2813 6.74472 18.3008 6.83251L18.5918 8.32379C18.6358 8.51429 18.6355 8.71182 18.6647 8.90457L19.0273 12.1142C19.0366 12.2551 19.0326 12.3878 19.0646 12.527C19.4541 12.5752 19.8413 12.5602 20.2304 12.5919L22.0776 12.7508L25.7838 12.7615C25.9776 12.7536 26.1684 12.722 26.3614 12.7075L28.9199 12.5399L29.8379 6.23748C29.5506 6.18503 29.2593 6.17322 28.9687 6.15222L27.048 5.99387L21.6264 5.98225ZM31.1699 6.45751L30.7963 8.35909L30.325 11.8209C30.3107 11.9868 30.2839 12.1421 30.2833 12.3099L34.0598 11.7442L35.0201 11.5404C35.1845 11.5022 35.3904 11.4721 35.5395 11.3958L34.9066 8.45917C34.8201 7.9885 34.8739 7.51131 34.3828 7.31139C34.0872 7.19106 31.4554 6.39957 31.1699 6.45751ZM16.8038 6.48095C16.2758 6.59298 13.596 7.10654 13.331 7.47067C13.1925 7.66103 13.2087 7.9922 13.1619 8.21706L12.6725 10.4427C12.6011 10.7521 12.5544 11.0697 12.4627 11.3743C12.8782 11.5458 13.4204 11.6596 13.8675 11.7255L17.6708 12.2777L17.5343 10.5359L16.9916 7.12004C16.9635 6.97722 16.9213 6.58684 16.8323 6.48681L16.8038 6.48095ZM12.1295 12.7696C11.952 13.6448 11.7428 14.4935 11.4551 15.3403L10.0479 19.0311L9.30225 21.4303C9.05578 22.3466 8.86374 23.2755 8.71285 24.212L11.25 23.25L17.1903 21.7223C18.2295 21.5057 19.2936 21.4729 20.2938 21.0852C20.7785 20.8974 21.2168 20.591 21.6904 20.3728C21.5512 19.8157 21.5213 19.2575 21.4665 18.6896L21.3458 17.0987C21.3336 16.9262 21.3032 16.7579 21.2963 16.5848L21.283 14.0342C20.913 13.9945 20.532 14.012 20.1594 13.9906L19.4248 13.933C19.3088 13.9244 19.175 13.9007 19.0603 13.916C18.9982 14.318 18.9121 14.7931 18.5528 15.0444C18.2397 15.2635 17.7863 15.1982 17.6005 14.851C17.4345 14.5408 17.6348 14.0421 17.7018 13.7193C17.2224 13.6163 16.7252 13.5974 16.2397 13.5292L12.9572 12.9491C12.6838 12.8883 12.3981 12.846 12.1295 12.7696ZM35.7674 12.7856L30.2929 13.6979C30.2652 13.7554 30.2801 13.8377 30.301 13.8981L30.3198 13.9446C30.5464 14.5017 30.4499 15.4712 29.6015 15.1235L29.5706 15.1119C29.3273 15.0154 29.1624 14.7347 29.0685 14.5042L29.0366 14.4145C28.9782 14.2502 28.9422 14.0839 28.9044 13.914L27.0842 14.016C26.9656 14.0187 26.8259 14.0037 26.7129 14.035L26.4123 19.6251C26.5935 19.6727 26.7817 19.6872 26.9665 19.7161L28.0716 19.9106C29.281 20.1782 30.2456 20.7548 31.3116 21.3539C33.401 22.5079 35.3033 22.8485 37.5478 23.5561L38.5216 23.8844C38.7563 23.9671 39.0298 24.0922 39.28 24.1133L39.2705 24.0755C39.2248 23.8885 39.2115 23.6952 39.1757 23.5066L38.8994 22.2341C38.6773 21.2765 38.3781 20.3285 38.0685 19.3954L36.2757 14.4971L35.8531 12.7798C35.8224 12.7795 35.7977 12.7792 35.7674 12.7856ZM22.6007 14.1169L22.9362 19.8909L25.049 19.6132L25.3817 14.1572L22.6007 14.1169ZM24.8309 21.0017C24.0083 21.109 23.1131 21.2208 22.3519 21.568C21.606 21.9082 20.9227 22.3803 20.1259 22.6032C19.6233 22.7438 19.0966 22.8062 18.5818 22.8868L16.991 23.1719C14.4744 23.6583 12.0442 24.3673 9.66413 25.3182C9.28889 25.4682 8.86641 25.5865 8.50964 25.7697C8.49905 26.5689 8.35116 27.3696 8.39288 28.1706C8.94708 28.0232 9.49847 27.8087 10.0355 27.6075L12.1886 26.7942L15.5976 25.7435L20.5429 24.7752L22.2978 24.5763C23.9891 24.4166 22.8698 24.5356 23.4427 23.4828L23.4596 23.4584C23.8054 22.9769 24.3546 23.1342 24.5628 23.6138L24.5745 23.6405C24.6645 23.8481 24.6744 24.0504 24.7148 24.2699L39.5928 28.0526C39.6327 27.8972 39.5833 26.8504 39.5714 26.6711L39.4513 25.7167C39.1675 25.6273 38.8931 25.4963 38.6126 25.3947L34.0664 23.9974C32.6093 23.5644 31.2552 22.9628 29.9546 22.1777C29.4543 21.8758 29.0198 21.4802 28.45 21.3111C27.2975 20.9691 26.0243 20.9861 24.8309 21.0017ZM25.3869 25.8169C25.4118 26.031 25.4735 26.2566 25.5359 26.4634L26.9158 32.8356C26.9236 32.8683 26.9345 32.8971 26.9459 32.9284L27.4254 34.4067L30.1991 40.6938C30.413 41.1049 30.7776 41.4123 31.2209 41.5502L31.4909 41.6227C32.4714 41.8296 33.4868 42.1346 34.5013 42.0073C35.7798 41.8469 36.8121 40.9653 37.355 39.8281C38.1611 37.9529 38.8535 36.1192 39.1848 34.0903L39.4694 31.6816C39.5391 30.96 39.4398 30.2233 39.5398 29.505C39.1859 29.3486 38.8083 29.2364 38.4409 29.1157L36.5039 28.4966C33.6977 27.6123 30.8854 26.8528 27.996 26.2899L25.3869 25.8169ZM22.3278 25.9554C19.1923 26.2885 16.08 26.9356 13.0898 27.9388L9.80855 29.1564C9.35719 29.3126 8.90644 29.4707 8.43896 29.5717C8.45649 29.7689 8.4871 29.9667 8.4946 30.1645L8.57953 31.981C8.6633 32.7794 8.84883 34.2398 9.13289 34.9913L9.19242 35.2094C9.22022 35.3455 9.27174 35.4973 9.31608 35.6284L9.69825 36.6613C9.95325 37.2725 10.2501 37.8812 10.5883 38.4507L11.2635 39.5131L12.0629 40.7033C12.8441 41.8451 13.355 42.0232 14.8198 42.0242C15.7646 42.0248 16.8083 41.9818 17.477 41.1932C17.7546 40.8659 17.9194 40.3496 18.0982 39.9597L19.7232 36.51C20.4438 34.8507 21.0286 33.1241 21.4423 31.3629C21.8649 29.5638 22.0641 27.7124 22.6071 25.9412L22.3278 25.9554Z" fill="black"/>
</svg>
