<svg width="48" height="48" viewBox="0 0 48 48" fill="none" xmlns="http://www.w3.org/2000/svg">
<path d="M26.3302 36.7674L25.2732 34.0973C25.1495 33.7598 24.998 33.4314 24.9187 33.0797C24.3557 33.1089 23.8336 33.169 23.2689 33.0875L23.2233 33.0806C23.1526 33.1815 23.1102 33.3197 23.0618 33.4333L20.9117 38.036C20.6948 38.4575 20.634 38.8657 20.1736 39.1013L20.1364 39.1173C19.6993 39.3115 17.5462 39.2107 17.0537 39.1738C14.145 38.956 11.2997 38.0514 8.61325 36.9526L6.83739 36.1826C6.08453 35.8564 5.36115 35.4929 4.64265 35.0968C3.40574 34.4147 3.54509 34.3347 3.8339 32.9434L6.23959 21.3747C6.35364 20.8865 6.39133 20.5342 6.5349 20.0475C6.68814 19.5278 6.71326 18.9646 6.76098 18.4267L6.91979 17.2725C7.00159 16.6649 7.04758 16.0759 7.04851 15.4616L7.04987 13.7418C7.05011 13.3422 7.02151 12.923 7.06347 12.527C7.27267 10.5535 8.7354 9.63175 10.5169 9.37408L14.8359 8.84064L15.6977 8.80441C15.8912 8.79236 16.0786 8.74211 16.2734 8.734L17.9161 8.72266L32.8136 8.73278L34.9517 8.83366L36.4101 8.9987C36.9785 9.06283 37.5806 9.10117 38.1397 9.21813C39.3981 9.48133 40.5017 10.3975 40.8164 11.6754C40.9701 12.2995 40.9408 12.9644 40.9412 13.6L40.9422 16.4374C40.9429 16.7933 41.0837 17.1785 41.1569 17.5309L41.3023 18.3104C41.4072 18.988 41.5258 19.663 41.6195 20.3434L41.9938 22.5948L44.0259 32.3865C44.1035 32.765 44.1592 33.1608 44.2581 33.5345L44.3441 33.8903C44.5755 34.718 44.2974 34.9704 43.5242 35.3136L37.8984 37.5455C36.4807 38.0447 35.0274 38.4492 33.5507 38.729L32.1783 38.9636C30.8051 39.131 29.3796 39.2092 28.0058 39.0078C27.1199 38.878 27.1537 38.6497 26.8007 37.8535L26.3302 36.7674ZM16.7173 10.246C15.7139 10.2565 14.7219 10.3598 13.7264 10.4729L10.6959 10.8614C9.76783 10.9863 8.71736 11.3428 8.60054 12.445L8.51443 13.054C8.57847 13.0835 8.653 13.082 8.722 13.0921L18.0739 14.6093L20.6601 14.8433C20.8701 14.859 21.0743 14.9009 21.2853 14.9117L24.8975 14.9962L27.3984 14.8398C28.5116 14.754 29.6438 14.6875 30.7446 14.4886L39.3958 13.0983C39.3956 12.8177 39.4232 12.4989 39.3833 12.2229C39.1907 10.892 37.789 10.6926 36.7285 10.5653L33.5039 10.2563L16.7173 10.246ZM8.55611 14.5714L8.54228 15.3193C8.54251 15.4458 8.5247 15.5944 8.5644 15.715C9.11879 15.94 9.76553 16.0308 10.3476 16.1743L14.7773 17.0955L18.8789 17.6525L20.9849 17.8511C21.1402 17.8637 21.2929 17.8958 21.4478 17.9046L23.9413 17.9876L26.1347 17.904L31.7226 17.2462L38.1797 16.107C38.5035 16.0508 38.833 15.9722 39.1602 15.942L39.3948 15.9076C39.4258 15.7728 39.3976 15.5975 39.3962 15.4567L39.3946 14.5687C39.05 14.6462 38.6819 14.6756 38.332 14.7333L29.2404 16.1843L25.875 16.4753L23.922 16.4818C23.3344 16.4818 22.736 16.5075 22.1504 16.4736L15.3322 15.7043L8.55611 14.5714ZM8.40658 17.2228C8.25231 17.7657 8.20984 18.3486 8.11506 18.9041L7.92498 20.0908C7.91106 20.1939 7.86198 20.3276 7.87829 20.4284C8.1475 20.539 8.43644 20.5974 8.71872 20.6662L9.77734 20.9469C11.8456 21.5509 12.8696 22.0081 14.6485 23.1479L14.9243 22.3067L16.3332 18.8801L10.2187 17.6956L8.96097 17.374C8.78012 17.3253 8.57978 17.29 8.40658 17.2228ZM39.5553 17.3758L31.5617 18.8007L31.7061 19.0953C32.0522 19.7635 32.6405 21.0235 32.8345 21.6911L33.0384 22.2951L33.3245 23.1634C34.9481 22.1755 36.2471 21.4504 38.1422 20.99L39.4755 20.721C39.6781 20.6875 39.9593 20.6788 40.1501 20.6136L39.664 17.3843C39.615 17.3666 39.6047 17.3685 39.5553 17.3758ZM29.9405 19.0636C27.4332 19.3913 24.9037 19.5627 22.374 19.474L18.1757 19.1095C18.1058 19.0996 18.0023 19.0719 17.9347 19.089L17.0796 21.0069C16.7411 21.787 16.0697 23.3409 15.9855 24.1994C16.3627 24.6192 16.8025 24.9806 17.1764 25.4076C17.9902 26.3372 18.646 27.424 19.3025 28.4688L19.7178 29.0784C19.7759 29.1587 19.8612 29.2479 19.9055 29.3347C20.8325 30.413 21.5987 31.3698 23.0742 31.5518C25.4526 31.845 26.652 31.3366 28.0458 29.2739L29.1812 27.429C29.9668 26.2421 30.8862 25.1991 31.9538 24.2592C31.7688 22.9084 31.2504 21.7052 30.6923 20.4715C30.5932 20.2523 30.1215 19.021 29.9405 19.0636ZM7.60792 21.913L5.16053 33.6535C5.37222 33.8241 5.65989 33.934 5.90439 34.0539L7.05465 34.6185C9.48264 35.7818 12.1234 36.7759 14.7656 37.3115L16.4657 37.59C17.0393 37.66 19.027 37.8068 19.2786 37.6542C19.3771 37.6458 19.5323 37.6539 19.616 37.6052L21.8245 32.7535C20.204 32.0745 18.7356 30.2974 17.7479 28.837C17.2882 28.1571 16.8738 27.4208 16.3476 26.7897C14.1425 24.1454 12.075 23.1108 8.85114 22.2515C8.44328 22.1429 8.00458 22.0545 7.60792 21.913ZM40.2598 22.0661C36.3665 22.7732 33.558 24.1916 31.0664 27.4644L30.6219 28.0498C29.947 29.0347 29.3625 30.0813 28.5469 30.9635C28.0353 31.5168 27.0048 32.4612 26.3201 32.7096L26.7215 33.7644C26.7347 33.8088 26.7513 33.8477 26.7689 33.8903L28.2381 37.5211C28.4744 37.5691 28.7155 37.5941 28.957 37.5942C29.6991 37.6023 30.412 37.6096 31.1494 37.5381L34.7226 36.9126C36.7313 36.4099 38.6979 35.6735 40.6106 34.8864L42.1907 34.2362C42.4075 34.1457 42.6793 34.0644 42.8716 33.9331L40.2598 22.0661Z" fill="black"/>
</svg>
