<svg width="48" height="48" viewBox="0 0 48 48" fill="none" xmlns="http://www.w3.org/2000/svg">
<path d="M10.3139 32.2925C9.57804 32.1703 8.84576 32.0699 8.1552 31.7701C6.43461 31.0233 5.36679 29.4977 5.36084 27.6307L5.36093 26.4825C5.3675 22.8036 5.73204 18.6447 7.68879 15.4172C7.98336 14.9314 7.93559 14.9392 7.99507 14.3762L8.99703 7.58236C9.11286 6.72539 9.28559 6.18961 10.2069 6.60984L12.2694 7.40559C13.9594 7.94034 15.723 8.21625 17.4661 8.50884L20.203 8.83748C20.3487 8.85188 20.4917 8.88783 20.6366 8.90203L23.5524 9.10158L26.917 9.10027C27.1266 9.09103 27.3288 9.04903 27.5378 9.03581L31.4592 8.65566C34.0718 8.2958 35.0731 8.11181 37.3557 6.83414C37.6103 6.69164 37.8305 6.51628 38.1107 6.42375C38.6273 6.38766 38.9026 6.69666 38.948 7.20783C38.9863 7.63936 39.0709 8.06569 39.1345 8.49389L40.0148 14.4551C40.0329 14.6364 40.0055 14.9101 40.1093 15.0694C40.719 16.0046 41.3395 17.3957 41.6087 18.4606C41.6179 18.4966 41.6267 18.5304 41.6397 18.5654L41.9887 19.8325C42.0258 20.0456 42.0924 20.2607 42.1342 20.4742L42.3154 21.5277C42.4002 22.0229 42.4368 22.5371 42.4828 23.0373L42.5776 24.5861C42.5855 24.7546 42.6141 24.9221 42.6183 25.0902L42.6288 27.8779C42.6241 28.3247 42.5441 28.7406 42.3933 29.1641C41.6689 31.1983 39.8652 31.9724 37.916 32.262L34.0224 32.726C33.6666 32.7791 33.3002 32.8342 32.9502 32.9183L31.6657 33.2427C29.3307 33.7283 26.191 33.2409 24.2882 31.7077C23.9734 31.454 24.0865 31.4529 23.7546 31.6936C21.6196 33.2419 18.8816 33.766 16.3038 33.2319L14.0547 32.7296L10.3139 32.2925ZM10.27 8.11828C10.2106 8.38434 10.2057 8.65327 10.16 8.92158L9.32239 14.6541C9.29876 14.7944 9.24532 14.9618 9.25742 15.1045C9.67076 15.3723 10.2128 15.5377 10.6737 15.7096C12.8165 16.5089 15.0192 17.0625 17.285 17.3693L18.8016 17.5717C19.3118 16.0436 20.4288 14.7693 21.9769 14.2702C23.1064 13.906 21.1896 13.8829 20.9843 13.0912L20.9677 13.012C20.9043 12.684 21.1303 12.3437 21.4569 12.277L21.4875 12.2706C22.0677 12.156 23.3967 12.9185 23.6312 13.5706L23.6432 13.6032C23.7613 13.9283 23.7327 14.3894 23.5914 14.6994C23.0554 15.8751 21.3222 15.259 20.3562 17.4495C20.3179 17.5362 20.2867 17.609 20.2357 17.6915C21.5143 17.7942 22.8247 17.7393 24.1074 17.7388L26.0173 17.7376C26.5971 17.7371 27.167 17.7408 27.745 17.6863C26.7468 15.1904 24.9337 15.9305 24.4128 14.6542L24.3366 14.422C23.9928 13.2819 25.2519 12.5673 26.1796 12.3032L26.2194 12.2914C26.5511 12.1967 26.8564 12.3063 27.0237 12.6097L27.0384 12.6358C27.0864 12.7285 27.0806 12.8497 27.0843 12.9519C26.9997 13.4298 26.6003 13.5816 26.2035 13.7625C25.4305 14.1149 25.6413 14.1317 26.2573 14.377C27.6462 14.9299 28.6656 16.0777 29.1507 17.4932C29.2051 17.6519 29.2653 17.572 29.4257 17.5546C31.8153 17.2955 34.1667 16.8047 36.4452 16.0291L37.9569 15.4689C38.2361 15.3576 38.5087 15.2244 38.797 15.138L37.6955 8.14955C37.3859 8.38298 37.0129 8.55178 36.6594 8.70867C34.0805 9.85275 31.1711 10.2197 28.3825 10.4177C28.1551 10.4338 27.9361 10.485 27.7057 10.4964L22.654 10.4976C22.2767 10.4815 21.9133 10.4244 21.5389 10.3911L18.2564 10.0688C15.7249 9.70763 12.6279 9.18202 10.27 8.11828ZM39.3109 16.3642C38.9019 16.5772 38.4773 16.7336 38.0497 16.9031C35.6023 17.8733 32.2178 18.7594 29.5371 18.9415L29.5424 20.109C29.536 21.1436 29.2594 22.2478 28.7473 23.1471L28.4097 23.6779C28.2289 23.9501 28.2389 24.009 28.1721 24.3193C27.7886 26.1021 26.4389 27.8577 24.6775 28.4175C24.6351 28.8507 24.6133 29.8532 24.6776 30.2888C25.1633 30.8115 26.4327 31.4589 27.0768 31.6254C28.4683 32.1047 30.0809 32.1778 31.5233 31.8699L32.7593 31.5531C33.1347 31.4659 33.5285 31.4136 33.9093 31.3504L37.5743 30.8788C39.2443 30.648 40.6051 30.2984 41.2178 28.4271C41.3479 28.0296 41.3417 27.6093 41.3393 27.1969L41.1431 22.9379C40.9625 20.9761 40.3195 18.135 39.329 16.391L39.3109 16.3642ZM8.67214 16.3854L8.07139 17.6806C7.09948 19.9462 6.85742 22.4679 6.72757 24.9027L6.65604 26.7638C6.65562 27.1327 6.62426 27.5343 6.66495 27.898C6.86201 29.6607 8.21225 30.5305 9.80848 30.7863L14.6795 31.4417C15.1549 31.5212 15.5908 31.6593 16.0546 31.7802C17.6362 32.1925 19.4277 32.1427 20.9709 31.6088C21.3135 31.4924 23.1875 30.6046 23.3329 30.3318C23.3684 30.2653 23.3391 28.5623 23.3397 28.3532C23.2208 28.3042 23.1025 28.2983 22.9804 28.2653C20.6693 27.6405 19.6863 25.5511 19.1176 23.4128L18.5961 21.1675C18.4585 20.4706 18.4416 19.6519 18.5142 18.943C15.8822 18.6263 13.3197 18.0963 10.8117 17.2239L9.16067 16.5837C8.999 16.5153 8.83118 16.4599 8.67214 16.3854ZM19.8596 19.0513C19.8728 20.2112 19.7998 20.6263 20.1107 21.8089L20.286 22.5492C20.3564 22.7927 20.3874 23.0595 20.4767 23.2959L20.6367 23.8575C20.97 25.0424 21.6745 26.0966 22.7694 26.6939C23.2615 26.9623 23.8672 27.2612 24.4344 27.0874C25.33 26.8129 25.9753 25.9448 26.4122 25.161C26.8174 24.4257 26.8581 23.5706 27.3246 22.8772C27.9687 21.92 28.2471 20.8841 28.241 19.7477C28.24 19.5473 28.2511 19.2825 28.1957 19.0896L19.8596 19.0513Z" fill="black"/>
</svg>
