<svg width="48" height="48" viewBox="0 0 48 48" fill="none" xmlns="http://www.w3.org/2000/svg">
<path d="M29.6241 37.7643C28.8161 37.6935 27.9898 37.5992 27.2277 37.3089C26.5766 37.061 26.3194 36.716 25.9322 36.1616C24.7534 34.4739 24.4299 32.5487 24.4027 30.54L23.5469 30.5395C23.4805 30.6516 23.5315 31.8229 23.516 32.0275C23.396 33.623 22.7053 34.9554 21.9835 36.3397C21.8328 36.6286 21.6801 37.0687 21.4253 37.2775C20.8064 37.7846 17.6641 37.8592 16.6024 37.7514C14.3307 37.5208 12.1167 36.5548 10.3561 35.109C9.79855 34.6511 9.33552 34.2762 9.07208 33.5926C8.91205 33.1774 9.05314 31.757 9.12046 31.3244C9.21922 30.6894 9.16152 30.6105 9.11347 30.0557C9.08085 29.6797 9.09022 29.2933 9.08821 28.9161L9.10114 26.7405L9.66613 22.1375C9.70203 21.951 9.77127 21.7685 9.81589 21.5834L10.9888 15.5116C11.0843 14.8942 11.0792 14.5579 11.08 13.9225L11.0823 11.0471C11.0838 10.6274 11.1974 10.4215 11.606 10.246C12.1632 10.2266 12.732 10.2858 13.2884 10.3113L16.2202 10.4402C16.379 10.452 16.5311 10.4878 16.6916 10.4975L19.5809 10.614C19.8063 10.6247 20.0256 10.6637 20.2501 10.6798L22.1583 10.7771L25.8722 10.7698L32.9696 10.3364L35.7597 10.264C37.177 10.2128 36.9173 10.7639 36.9189 11.8531L36.9209 13.9045C36.9214 14.4496 36.9084 14.7714 36.9897 15.3052L37.0881 15.8954C37.1293 16.1349 37.1738 16.3721 37.2142 16.6122L37.4533 17.7775C37.5389 18.1511 37.6344 18.575 37.6771 18.9569L38.353 22.5209C38.4508 22.8779 38.4684 23.2715 38.532 23.6369L38.824 25.9979C38.8348 26.1278 38.8601 26.255 38.8669 26.3856L38.8862 28.8677C38.8847 29.2851 38.9362 29.7914 38.8369 30.195C38.7213 30.6647 38.7956 31.167 38.8516 31.6379C39.0144 33.0076 39.119 33.7172 38.043 34.738C36.1493 36.5344 33.2321 37.7569 30.6462 37.7639L29.6241 37.7643ZM12.5475 11.5809C14.0856 12.396 15.5747 12.7637 17.304 13.0665L18.6854 13.3031C21.0022 13.5957 23.3468 13.701 25.681 13.6142L27.0635 13.5439C28.6263 13.4338 31.002 13.1638 32.5315 12.7147L34.401 12.0867L35.4123 11.5896L12.5475 11.5809ZM12.3161 12.9025L12.3002 14.3577C12.95 14.869 15.6639 15.3361 16.5308 15.4591L20.3706 15.8459L22.2245 15.9427L26.2277 15.9485C27.0571 15.9466 28.0278 15.9016 28.8517 15.8369C30.8247 15.6821 32.8417 15.4636 34.7202 14.8126L35.3767 14.5535C35.7608 14.3973 35.6687 14.3847 35.6552 13.971L35.6222 12.9352C35.5488 13.0009 35.4297 13.0229 35.3406 13.065C32.9142 14.2124 29.4181 14.7589 26.7189 14.896L22.2995 14.9164C22.0467 14.9097 21.7878 14.9128 21.5364 14.8838L17.1069 14.3294C15.4236 14.0356 13.9404 13.65 12.392 12.9229C12.362 12.9089 12.3501 12.8974 12.3161 12.9025ZM12.268 15.8092L11.0971 21.7442C12.9258 22.5497 14.0874 23.1606 15.7025 24.4626C16.8635 25.3984 17.849 26.5303 19.007 27.4632C21.293 29.3051 24.2412 29.7666 26.9507 28.7039C28.5544 28.075 29.7249 26.8066 30.9392 25.6448L32.3128 24.4525C33.5527 23.4449 35.3908 22.2596 36.922 21.6928L35.8003 15.8687C35.6596 15.882 35.4916 15.9642 35.3556 16.0095L34.627 16.2307C33.6698 16.4932 32.6824 16.7254 31.6979 16.8559L28.0783 17.1584C27.8527 17.1665 27.6317 17.2124 27.4048 17.2199L22.2508 17.222L17.1339 16.8388L15.4689 16.6027C14.9929 16.5299 14.5199 16.4641 14.0509 16.3508L12.9297 16.021C12.71 15.9511 12.4833 15.8911 12.268 15.8092ZM37.165 22.9694C35.7544 23.513 34.3646 24.4737 33.1864 25.3947L32.2172 26.1885L30.8051 27.5882C29.3175 29.0174 27.7277 30.0239 25.6927 30.381C25.6856 31.5372 25.7249 32.5908 26.1129 33.7033L26.3816 34.3712C26.6223 34.8485 26.8723 35.2837 27.1766 35.7242C27.3987 35.9826 27.5114 36.0555 27.8371 36.1557C31.1558 37.1756 34.6479 35.9835 37.1991 33.7859L37.7381 33.24L37.664 32.3573C37.557 31.3503 37.5625 30.9445 37.6176 29.96L37.6624 28.2357C37.6741 27.0911 37.5463 25.9676 37.43 24.8322L37.3308 24.0143C37.2918 23.6714 37.2594 23.3023 37.165 22.9694ZM10.7952 22.9784L10.408 25.9923L10.3691 26.916C10.3574 27.1133 10.322 27.3035 10.3176 27.503V29.0247C10.3265 29.2449 10.3672 29.4637 10.3789 29.6837L10.3986 31.1617C10.3963 31.4269 10.3384 31.673 10.315 31.9337L10.2795 32.71C10.2696 32.8861 10.2371 33.0745 10.2448 33.2489C12.6156 35.9433 16.5636 36.9595 20.025 36.3122C20.2144 36.2768 20.3986 36.2604 20.5837 36.2029L20.861 35.685C21.6826 34.1778 22.2559 33.0464 22.2813 31.2574C22.2851 30.9934 22.3235 30.6288 22.2733 30.3755C20.2299 30.001 18.5956 28.9116 17.104 27.4907L14.7255 25.3302C13.5415 24.3877 12.2188 23.5157 10.7952 22.9784Z" fill="black"/>
</svg>
