<svg width="48" height="48" viewBox="0 0 48 48" fill="none" xmlns="http://www.w3.org/2000/svg">
<path d="M27.0533 34.9188L26.5414 32.0095C26.3721 31.0519 25.3552 26.0424 23.8152 26.3488C22.978 26.5154 22.9341 27.279 22.7709 27.9447L20.8444 34.1908C20.6181 34.8791 20.4001 35.5617 20.3476 36.2902C20.3072 36.8514 20.4514 37.5347 20.1257 38.0266C19.5082 38.9595 17.5573 38.9807 16.5182 38.98C13.4765 38.978 10.4049 38.4621 7.49635 37.5833L6.36263 37.2103C5.07826 36.7711 5.05233 36.8984 5.05533 35.6692L5.06973 31.2263C5.07863 31.0626 5.11501 30.9046 5.1301 30.7419L5.24485 29.4522C5.55268 26.5008 6.08677 23.5804 6.90929 20.7259L7.74615 18.0233C8.33438 16.285 8.91043 15.2957 9.14504 13.4122L9.19233 13.0083C9.20565 12.8337 8.51673 12.2977 8.34737 11.8329L8.33185 11.7891C8.14496 11.2872 8.35937 10.6583 8.69926 10.2733C9.59851 9.25483 11.1562 9.12259 12.4182 9.0333L35.2044 9.02148C36.277 9.02392 37.7137 9.19694 38.6266 9.75634C39.276 10.1542 39.911 10.896 39.6972 11.7149L39.6879 11.7484C39.5526 12.2704 39.2017 12.5861 38.8139 12.9303C38.811 13.0577 38.8405 13.1761 38.8524 13.3019L38.9578 14.1659C39.0315 14.622 39.1408 15.0874 39.2816 15.5273L39.9001 17.3349C40.1261 17.9962 40.4241 18.6568 40.5789 19.3398C40.5874 19.3774 40.5957 19.4114 40.6089 19.448L40.7819 20.0742C40.8956 20.4218 40.9587 20.781 41.0771 21.1246L41.5179 22.7461C41.5385 22.8703 41.5855 22.9819 41.6085 23.1058L42.1292 25.4088C42.2045 25.674 42.2397 25.9733 42.2813 26.2471L42.8558 30.7099C42.8699 30.8855 42.9216 31.0549 42.9313 31.2333L42.945 35.0463C42.9457 35.308 42.9995 36.3594 42.9067 36.5166L42.8927 36.539C42.6771 36.9078 42.3159 36.9508 41.9389 37.0796L37.7172 38.3061C35.9761 38.704 28.487 39.8479 27.46 37.8734L27.4429 37.8398C27.3624 37.6874 27.3783 37.508 27.3756 37.3404L27.3508 36.9033C27.2972 36.2417 27.1744 35.5713 27.0533 34.9188ZM12.4626 10.5036C11.8175 10.5689 10.2109 10.6965 9.75821 11.2413L9.6946 11.323C10.6565 12.8845 15.3158 13.6413 16.9632 13.776C17.7878 13.8434 18.6784 13.8876 19.5069 13.9118L21.2441 13.9601L20.5511 13.7899C20.0015 13.6837 18.9752 13.5233 19.2428 12.6625C19.455 11.9798 20.1859 12.1615 20.6951 12.2804C21.7623 12.5296 23.7133 13.0253 23.082 14.5749C22.9151 14.9845 22.5216 15.2771 22.2309 15.5971C21.1486 16.7883 20.4759 17.8986 20.6012 19.5312C20.6175 19.7432 20.6734 19.9525 20.6214 20.1632C20.4495 20.86 19.4537 20.7728 19.2526 20.1391C19.0934 19.6376 19.0766 18.9665 19.1419 18.4401C19.2302 17.7283 19.9769 15.9148 20.5169 15.4218L16.6114 15.2456C14.8698 15.1063 12.2079 14.6142 10.6223 13.7604C10.378 15.0639 10.0904 15.8157 9.63582 17.0081L8.74932 19.5976L7.33655 25.0429L6.56148 30.8086L6.50321 35.7183C6.62237 35.8173 6.72141 35.8109 6.85988 35.8525L8.56623 36.3754C9.91102 36.7447 11.3105 37.0253 12.6912 37.2182L15.6724 37.4943L16.7298 37.5013C17.1378 37.5009 18.6219 37.458 18.9209 37.1759C18.9536 35.3383 19.1192 34.8835 19.6569 33.1632L21.3674 27.5724C21.456 27.2239 21.4762 26.8236 21.6119 26.4942C22.1974 25.0735 23.9859 24.4157 25.2991 25.3039C26.0254 25.7951 26.8555 27.41 27.1 28.3181L27.5705 29.9341L28.4876 34.7748L28.7476 36.4492C28.7641 36.6031 28.7632 37.114 28.8552 37.2104C29.9526 37.5687 31.4274 37.5524 32.5691 37.4928L33.9725 37.3992L36.3812 37.0489C36.9674 36.9427 37.5597 36.8314 38.1322 36.6654C38.0131 36.0401 37.9539 35.4 37.8691 34.7695L37.4792 32.2771L36.3631 26.6115L35.2355 22.0477C35.0874 21.4827 34.8543 20.9271 34.8082 20.3409C34.6776 18.6796 35.9352 17.427 37.3906 16.8867C37.6276 16.7987 37.9254 16.7369 38.1475 16.625L37.4442 14.1069C37.4194 13.9976 37.4074 13.8852 37.3662 13.7806L35.9412 14.3431C33.9678 15.0142 31.7894 15.379 29.6975 15.3987L27.3286 15.4045C26.864 15.4057 26.3861 15.3857 25.924 15.4383C26.5351 16.1866 27.0683 17.0883 27.2989 18.0351L27.4319 18.624C27.589 19.5241 27.6981 21.9224 26.9426 22.3534C26.5629 22.5701 26.1127 22.3787 25.9319 22.0026C25.7507 21.6259 25.9812 21.0415 26.0473 20.6514C26.3206 19.0372 25.7463 17.6469 24.8231 16.3593C24.3916 15.7575 23.9038 15.3082 24.251 14.4528L24.3039 14.3437C24.8046 13.3451 25.9591 12.7616 26.9742 12.4101C27.3604 12.2764 28.0771 12.0414 28.4647 12.2376C28.875 12.4454 29.007 12.9306 28.7756 13.3278C28.5144 13.7763 27.5465 13.7575 26.9837 13.9491L29.7736 13.8782C29.9435 13.87 30.11 13.8391 30.2791 13.8262L31.6283 13.7155C32.2618 13.6501 32.9238 13.6026 33.5413 13.441L34.4142 13.244C35.5309 12.9564 36.6863 12.5744 37.664 11.95C38.4807 11.4285 38.4878 11.2395 37.5125 10.8549C36.8312 10.5861 36.0509 10.5565 35.3294 10.5567L29.1074 10.5534C28.8309 10.5524 28.5558 10.5057 28.2768 10.5044L12.4626 10.5036ZM38.6397 18.0351C37.0896 18.5155 35.8526 19.0984 36.4237 21L37.3705 24.68C37.4894 25.1459 37.5805 25.6222 37.7056 26.0859L39.0438 32.8187C39.0955 33.1881 39.1373 33.5617 39.1974 33.9295L39.4462 35.7854C39.45 35.8209 39.4695 35.8919 39.461 35.9243C39.4834 36.3451 39.5219 36.2876 39.8805 36.1869L41.1524 35.7985C41.2742 35.7616 41.4316 35.7664 41.5222 35.6675C41.4993 34.018 41.5524 32.3702 41.4342 30.7233L41.2768 29.2616C40.9242 26.1817 40.1831 23.1996 39.3347 20.2229L38.8167 18.4284C38.7859 18.3291 38.7623 18.0473 38.6397 18.0351Z" fill="black"/>
</svg>
