<svg width="48" height="48" viewBox="0 0 48 48" fill="none" xmlns="http://www.w3.org/2000/svg">
<path d="M38.8084 35.0163L30.455 37.7919C27.2019 38.8651 24.1347 39.279 20.7624 38.6953C19.6075 38.4954 18.4874 38.1005 17.3806 37.7249L7.35995 34.3894C5.62384 33.8165 4.11684 33.1515 2.27319 32.9821C1.7911 32.9378 1.2565 33.087 0.962452 32.6084L0.943205 32.5761C0.818682 32.3696 0.834446 32.1177 0.824593 31.8837L0.814941 30.9773C0.906179 28.5752 1.31572 26.9012 2.20296 24.6187L3.47209 21.3607C4.01534 19.8954 4.57805 18.4309 4.68924 16.8567L4.77235 15.1506C4.78932 14.7547 4.7431 14.3057 4.81951 13.9203C4.8969 13.5302 4.90951 12.5792 4.86437 12.1637C4.80948 11.6582 4.78178 11.4597 4.78065 10.9056L4.77873 9.94262C4.77887 9.78718 4.74109 9.50298 4.84046 9.37347L4.85729 9.35181C4.98057 9.17622 5.08435 9.10539 5.27828 9.02743L41.7261 9.01717C42.1792 9.01736 42.8381 8.86215 43.1327 9.30859L43.1525 9.34009C43.324 9.60868 43.2215 10.1064 43.2212 10.4139L43.2118 12.6189C43.2087 13.2923 43.2227 13.695 43.3078 14.3884C43.443 15.4906 43.2482 16.5223 43.4087 17.5784L43.7611 19.1487C43.7717 19.1904 43.7799 19.228 43.7952 19.2684L44.7743 22.0423C44.8809 22.3364 44.9757 22.6466 45.1129 22.9281L46.0466 25.3436L46.6319 27.147C47.0334 28.4507 47.175 29.8576 47.1947 31.2135L47.2021 31.9961C47.2026 32.2031 47.2434 32.4531 47.092 32.6185L47.0634 32.6487C46.7803 32.9646 46.662 32.9423 46.2557 32.9548L45.4733 32.9994C44.0898 33.1134 42.7331 33.6663 41.4375 34.1242L38.8084 35.0163ZM6.14443 10.4859L6.17242 11.1112C6.17335 11.1793 6.15442 11.3555 6.1757 11.4129C6.27095 11.6696 7.85335 12.0778 8.11754 12.1311L10.7109 12.5546L15.3975 12.9733C15.572 12.9843 15.7392 13.023 15.9135 13.0325L18.5156 13.1387L29.7348 13.1375C30.0927 13.1304 30.4409 13.0692 30.7943 13.0607L31.9776 13.0508C32.5539 13.0455 33.2066 12.9772 33.799 12.9441L39.9032 12.2062C40.2266 12.1561 40.5733 12.114 40.8882 12.0282C41.0153 12.0086 41.8734 11.8998 41.9136 11.8569L41.9049 10.4854L6.14443 10.4859ZM6.19417 12.9669C6.18901 13.4004 6.2094 13.8351 6.17739 14.2675C6.10454 15.2531 5.81415 14.9835 6.85543 15.3405L11.8454 17.2436C15.2729 18.8015 18.2597 21.1937 20.2867 24.3849C21.6544 26.5383 21.7891 27.6574 23.9356 29.2607C25.4427 28.3562 26.2457 27.0399 27.0509 25.5599C28.5605 22.7852 30.33 20.8756 32.9719 19.0622C34.8991 17.7845 36.9424 16.8384 39.1136 16.0554L40.9468 15.4293C41.2935 15.3109 41.7039 15.2095 42.0178 15.022C41.9834 14.791 41.9452 14.5575 41.9304 14.3243L41.8893 13.6377C41.8833 13.5166 41.8925 13.377 41.8575 13.2618L39.6077 13.656L33.9626 14.3207L30.2274 14.5265L18.7419 14.5282C18.5862 14.5242 18.4331 14.496 18.2781 14.4902L13.2481 14.2172L10.4297 13.8845C9.06221 13.7033 7.46335 13.5567 6.19417 12.9669ZM6.05785 16.5152C5.99678 16.8708 5.99954 17.2327 5.95159 17.5902C5.85348 18.322 5.68398 19.0227 5.47937 19.7311L4.79279 21.7555C4.67294 22.084 4.53016 22.4089 4.44409 22.7484L7.58659 23.2573C7.71437 23.2714 7.83526 23.3203 7.95971 23.3506L9.2695 23.7175C14.0534 25.1437 17.4699 28.5932 19.1742 33.2346L19.9071 35.8009C20.0414 36.2481 20.0266 36.7449 20.1611 37.1912L21.8554 37.4374C22.5425 37.5115 23.1959 37.5266 23.8895 37.5262L25.4086 37.517C26.0184 37.4908 27.412 37.3354 27.8829 37.1452C27.9196 36.7528 27.998 36.3587 28.0683 35.9709C29.1878 29.7978 33.4622 25.1169 39.4637 23.4963L41.6372 23.0212L43.5828 22.7638L43.0996 21.4091C42.4805 19.6907 42.0381 18.4083 42.0004 16.5796C41.2425 16.7405 40.5422 17.0372 39.8123 17.2847C35.5416 18.7324 31.4981 21.066 28.9925 24.927C28.619 25.5027 28.3282 26.1051 27.9953 26.7025C27.1102 28.2911 25.9834 29.7293 24.3464 30.5916C24.2514 30.6417 24.1445 30.7077 24.0382 30.7284C23.6172 30.8102 22.4726 29.8521 22.1314 29.5432C20.8621 28.394 20.1735 26.9135 19.3308 25.4607C17.099 21.6129 13.4264 19.2892 9.37923 17.6986L6.05785 16.5152ZM3.90474 24.0774L3.28976 25.6541C2.68299 27.3007 1.89693 29.9049 2.14373 31.606C4.09937 31.7067 5.92107 32.4475 7.74662 33.0868L17.3722 36.2745L18.7057 36.7172C17.381 29.6544 12.9603 25.4169 5.8231 24.2973L3.90474 24.0774ZM43.9367 24.1037L40.8281 24.5668C34.6613 25.9063 30.193 30.4071 29.318 36.7086L30.8849 36.2016L43.0281 32.1283C43.9771 31.8439 44.927 31.6602 45.9157 31.5921C45.8997 30.2356 45.6893 28.8858 45.3324 27.5782L44.7755 25.8433C44.5758 25.2618 44.3841 24.6608 44.1182 24.1057C44.0567 24.1014 43.9983 24.0975 43.9367 24.1037Z" fill="black"/>
</svg>
