<svg width="48" height="48" viewBox="0 0 48 48" fill="none" xmlns="http://www.w3.org/2000/svg">
<path d="M29.0312 40.1247C28.2912 39.8349 27.3795 39.4405 26.906 38.7692L26.8787 38.73C26.6638 38.4257 26.5524 38.0634 26.4298 37.7157L24.4133 31.7973C24.3144 31.5216 24.1894 31.2473 24.122 30.9625C23.8922 31.5087 23.7372 32.0902 23.5339 32.6472L21.4134 38.138C20.5312 40.2404 19.4952 40.3888 17.2775 40.4378C16.0422 40.4652 15.1203 40.4029 13.878 40.3155L12.0509 40.1794C9.54898 39.9001 7.00025 39.2819 4.75878 38.1182C3.70163 37.5694 3.78384 37.4668 3.99953 36.3024L4.58829 32.6128C4.86509 30.5276 5.34097 29.4587 6.03542 27.4986L7.15489 23.7994C7.45958 22.6 7.72437 21.3503 7.86833 20.1206L8.03211 18.3394C8.14639 16.8736 8.05784 15.4161 8.37003 13.9683C8.5888 12.9537 9.07962 11.9858 9.19878 10.9533C9.25053 10.5045 9.25273 10.0425 9.25409 9.59114L9.25737 8.64745C9.25841 8.45672 9.23183 8.19731 9.31386 8.02238L9.36294 7.92586C9.50244 7.68384 9.73048 7.59745 9.98291 7.52559L38.2046 7.51758C38.2843 7.51912 38.3625 7.51617 38.4342 7.55602L38.5363 7.61367C39.1325 7.96781 38.9733 8.84095 38.9726 9.42023L38.9702 11.0284C38.9708 11.2588 38.9351 11.5779 39.0082 11.7962L39.083 12.0687C39.1697 12.5801 39.4447 13.0711 39.5471 13.5876C39.6153 13.9318 39.6951 14.2625 39.7497 14.6128L39.981 16.485C40.0035 16.7624 39.9946 17.0428 40.0242 17.3198L40.4093 20.6597L40.8236 23.2733L41.3263 25.5458C41.3857 25.862 41.5195 26.1726 41.6039 26.4839L42.5388 29.2027C42.7282 29.7975 42.9061 30.335 43.0795 30.937L43.2666 31.7222C43.4156 32.3255 43.4786 32.9548 43.5876 33.5657L43.7716 34.5911C43.8021 34.7563 43.8459 34.9211 43.8638 35.0882L44.105 36.3262C44.2923 37.5748 44.5774 37.8028 43.1953 38.3413L42.1078 38.7527C40.293 39.4171 38.4573 39.9501 36.5406 40.2248L35.4328 40.3739C34.405 40.463 33.3689 40.4785 32.3382 40.4792L30.6977 40.4238C30.2721 40.3949 29.8533 40.3622 29.4395 40.2523L29.0312 40.1247ZM10.9521 9.25819L10.9468 10.3281C11.0087 10.3685 11.1871 10.3495 11.2636 10.3457L17.9573 10.3367C18.768 10.3372 19.9853 10.3608 20.7759 10.5379C22.6291 10.9531 23.6496 11.2731 25.6758 10.861C26.0247 10.79 26.3595 10.6484 26.7071 10.5732C27.512 10.3993 28.3464 10.3361 29.167 10.3357L36.5508 10.336L37.2002 10.348L37.2113 9.26138L10.9521 9.25819ZM12.0939 12.0714L10.9175 12.072C10.8378 12.2372 10.8055 12.433 10.7408 12.6068C10.409 13.4975 10.1389 14.3662 9.98244 15.3015L9.80492 16.6173C9.78927 16.7865 9.7542 16.948 9.74553 17.1185L9.72566 18.3787C9.7235 18.596 9.73555 18.8506 9.69509 19.0635C10.2469 18.9906 10.729 18.8592 11.2405 18.6377C12.534 17.9538 13.3303 16.8089 13.757 15.4137L13.9082 14.7957C14.2071 13.6805 13.8645 13.0431 13.7895 12.0717L12.0939 12.0714ZM15.6518 12.0789C15.7714 13.0799 15.8689 13.3779 15.7512 14.3902C15.4814 16.7107 14.4147 18.9677 12.2967 20.1234C11.4402 20.5907 10.5259 20.7307 9.56056 20.8073L9.18594 22.8511C8.87075 24.3185 8.44953 25.7478 8.00656 27.1798C7.60995 28.4618 7.00775 29.6766 6.67812 30.9785C6.41426 32.0205 6.36425 32.9417 6.17886 33.9474C6.4925 34.0477 6.81547 34.0923 7.13675 34.1617L16.031 35.8434C17.439 36.0621 18.8496 36.2798 20.2789 36.2808C20.3731 36.1756 20.4146 35.9784 20.4661 35.8458L22.949 29.1295C23.0596 28.8201 23.2892 28.4079 23.2704 28.0763L23.167 26.6245C23.1377 25.5436 23.2661 25.3822 24.0145 24.7349C26.0514 22.9733 27.1384 20.2459 27.3051 17.6001C27.3586 16.751 28.9624 16.4547 28.944 17.9465C28.9414 18.1656 28.9471 18.3931 28.9214 18.6109L28.7767 19.472C28.7114 19.851 28.6402 20.2552 28.5105 20.6179L28.0459 21.9177C27.4881 23.281 26.5374 24.8452 25.4343 25.8567L25.0106 26.2082C24.7943 26.4056 24.9651 27.7356 25.031 28.0191L26.0109 31.227L26.1957 31.8029C26.327 32.1419 26.4197 32.5016 26.5324 32.8472L27.2356 34.9173C27.3727 35.3336 27.4987 35.7624 27.6824 36.1615C27.7927 36.1947 27.9477 36.1748 28.0655 36.1733L31.4697 36.0909C31.6285 36.0862 31.7777 36.0557 31.9342 36.0414L32.6426 35.9857C33.6516 35.8792 34.6352 35.6731 35.625 35.4587L41.9868 34.042C41.8254 33.0814 41.7081 32.109 41.4346 31.1714C41.1381 30.1555 40.7184 29.199 40.3651 28.2053C39.9161 26.9421 39.5865 25.6605 39.305 24.3511L38.9915 22.4409L38.3743 17.7536L38.0576 14.7799C37.9486 14.083 37.7456 13.39 37.5322 12.7189L37.4232 12.3628C37.397 12.2619 37.3893 12.166 37.3365 12.0733L34.4352 12.0748C34.3788 12.2317 34.3858 12.3898 34.3545 12.5503C34.1802 13.4446 34.0945 14.6149 34.4446 15.4911L34.51 15.6953C34.8034 16.7531 35.7613 17.9519 36.5435 18.6934C36.7625 18.901 37.0352 19.0566 37.1737 19.3355L37.1867 19.3607C37.2486 19.4904 37.2455 19.7731 37.1934 19.9041C36.8196 20.8445 35.9088 20.3347 35.3813 19.9095C33.2182 18.1662 32.4231 15.6663 32.5324 12.9945C32.5444 12.7013 32.6787 12.3708 32.6451 12.0861L29.9516 12.0749C29.3063 12.0753 28.6361 12.0388 27.9961 12.1172C26.8185 12.2615 25.83 12.6485 24.5404 12.7218L23.7094 12.7283C22.8613 12.7274 21.9723 12.6094 21.1463 12.4204C20.382 12.2455 19.9103 12.0744 19.1189 12.0738L15.6518 12.0789ZM5.90755 35.5425L5.75464 36.625C8.81234 37.8946 11.1785 38.4414 14.5331 38.7473L15.4072 38.847C16.404 38.9233 17.7851 38.905 18.7205 38.5136L18.9237 38.4189L19.1558 38.2809C19.3022 38.1882 19.4037 38.0518 19.5478 37.9697C19.2725 37.9642 18.9888 37.9679 18.7149 37.9424L18.1797 37.8729C16.3675 37.7269 14.5573 37.4531 12.7735 37.0992L10.4732 36.6126C9.92262 36.4861 6.0965 35.4912 5.90755 35.5425ZM42.1902 35.6831L37.1398 36.8795C35.3251 37.3263 33.1535 37.7808 31.2777 37.8505L28.3716 37.8814C28.5602 38.1681 28.8333 38.3398 29.1424 38.4787C30.7974 39.1328 33.505 38.8997 35.2243 38.6603L36.8203 38.4194C37.8324 38.238 38.8581 37.9454 39.843 37.6489L42.4861 36.7195L42.293 35.6818C42.2477 35.6723 42.238 35.6721 42.1902 35.6831Z" fill="black"/>
</svg>
