<svg width="48" height="48" viewBox="0 0 48 48" fill="none" xmlns="http://www.w3.org/2000/svg">
<path d="M20.3504 37.374L20.2098 37.6033C18.8608 39.6417 16.6387 40.7879 14.2214 40.7864C9.5761 40.7834 6.15062 37.3855 5.29083 32.9873C5.12082 32.1174 5.15682 31.2227 5.15879 30.3413L5.16718 28.9452C5.17763 28.7431 5.21766 28.5446 5.23262 28.3431L5.56505 24.9645L6.28294 20.4677L6.60915 19.0693C7.1881 16.6853 8.2831 13.0454 9.67876 11.0038C9.85646 10.7438 9.86973 10.3275 9.94543 10.02L10.4287 8.34402C10.8032 7.08332 10.7543 7.21508 11.9718 7.2156L34.8872 7.21635L36.2434 7.21101C37.2812 7.20871 37.3124 7.25844 37.5867 8.33952C37.7527 8.99347 37.9761 9.64269 38.1186 10.3004C38.2242 10.7877 38.2517 10.9013 38.4963 11.3353L40.0485 14.8431L40.6093 16.5545C40.9098 17.3863 41.1901 18.4419 41.3991 19.3011L41.772 20.9188L42.6145 26.4972L42.7553 28.2303C42.7668 28.4046 42.8096 28.5732 42.819 28.7488L42.8315 31.6994C42.8302 31.9125 42.8481 32.16 42.7959 32.3671L42.4508 34.1437C42.352 34.5377 42.1775 34.9335 42.0086 35.3025C40.6684 38.2304 37.8818 40.4783 34.6214 40.7698C31.7514 41.0263 29.0282 39.8032 27.562 37.2439C27.177 36.5719 26.8901 35.8401 26.579 35.132L24.7511 30.8995C24.245 29.7238 24.6391 30.2898 23.631 30.1274L21.3878 35.1651C21.0536 35.9081 20.7563 36.6656 20.3504 37.374ZM16.84 8.71818L13.225 8.72029C13.291 9.00219 14.9116 10.4188 15.2117 10.6471C18.9081 13.4584 25.7867 13.7335 30.1582 12.0846L31.7921 11.2606C32.3872 10.9048 32.9542 10.4829 33.4579 10.0064C33.6149 9.85799 34.5464 8.92771 34.5809 8.74391L34.5823 8.7224C34.3457 8.67927 34.1198 8.78657 33.8879 8.75183C33.2736 8.65991 32.6042 8.71686 31.9825 8.71776L16.84 8.71818ZM36.2262 9.0419C34.0399 12.0955 31.3113 13.6905 27.5547 14.3119L25.2591 14.5539C25.1123 14.5629 24.8588 14.5433 24.7276 14.598L24.7267 19.6048C25.288 19.6486 25.8443 19.7518 26.3948 19.8677L27.3166 20.0641C28.5978 20.3964 29.8473 20.9021 31.0175 21.5177L33.8663 23.1561L35.3028 24.0071C36.7849 24.8359 38.3175 25.5499 39.9648 25.9815L40.6484 26.1338C40.7851 26.1625 40.9406 26.2074 41.0804 26.2076L40.7821 24.219C40.3129 24.1052 39.9184 23.8896 39.5142 23.6336C37.531 22.3771 36.8339 20.6957 36.2092 18.5272C35.9262 17.545 35.6437 16.5156 35.5504 15.493C35.3813 13.6391 35.2629 12.1926 36.4947 10.6345C36.6789 10.4014 36.6514 10.4693 36.5694 10.1854L36.2262 9.0419ZM11.6829 9.17929C11.6071 9.42079 11.564 9.66983 11.4934 9.91185L11.3791 10.2903C11.3584 10.3526 11.3274 10.4104 11.3291 10.4772C12.2871 12.2362 12.4733 12.3999 12.4676 14.5964C12.4655 15.419 12.4696 15.9228 12.3575 16.7296C11.915 19.9148 10.4963 22.8541 7.43649 24.1754C7.39182 24.1947 7.15702 24.2735 7.13869 24.3001C7.03505 24.4506 6.93366 25.9949 6.93183 26.205C9.6054 25.966 12.1075 24.6078 14.2874 23.1315C16.7633 21.4284 19.9642 19.8637 22.9598 19.6373C23.4085 19.6034 23.2589 19.5617 23.2562 19.1334L23.2559 14.585C22.2358 14.5023 21.2258 14.4398 20.2145 14.2703C17.0623 13.7418 14.3191 12.3079 12.2438 9.8646L11.6829 9.17929ZM37.2143 12.1756C36.58 13.6067 36.9596 15.3794 37.2869 16.8399C37.4147 17.41 37.5196 18.036 37.7264 18.5839L38.0189 19.453C38.6427 21.0201 39.0624 21.511 40.3695 22.431C40.4326 22.4634 40.4982 22.5032 40.5657 22.5244C40.1579 19.9741 38.7137 14.3193 37.2467 12.1811L37.2143 12.1756ZM10.6789 12.2467C10.5741 12.471 10.4431 12.6865 10.3271 12.9057L9.25496 15.4452C8.74613 16.7953 8.30471 18.1731 7.97968 19.5799L7.42215 22.5326L7.66238 22.4045C9.90493 20.9726 10.8421 18.2038 11.0092 15.6553L11.0309 14.578C11.05 13.6656 11.0335 13.1199 10.6789 12.2467ZM24.0763 21.0617L23.0195 23.032C22.5492 23.9656 21.7655 25.7589 22.0321 26.8329L22.0676 26.9271C22.1293 27.0687 22.1496 27.2294 22.2194 27.3748C22.6427 28.2571 23.5111 28.8095 24.4971 28.5758C26.4495 27.9988 26.9691 26.2442 26.426 24.3992C25.9912 22.9218 25.0237 22.1179 24.0763 21.0617ZM22.274 21.1991C20.1921 21.549 17.9696 22.4832 16.1838 23.6276L14.3749 24.8686C13.5121 25.4335 12.5799 25.9638 11.6428 26.395L10.575 26.8251C9.7598 27.136 8.98079 27.3454 8.12237 27.5042L7.28823 27.6445C7.11563 27.6673 6.91618 27.6663 6.74991 27.7125C6.71668 27.9965 6.67107 28.2896 6.65382 28.5742L6.62471 30.8961C6.62438 31.3881 6.59035 31.9113 6.65705 32.3989C6.94801 34.5253 8.04863 36.5472 9.79519 37.8231C12.7846 40.0751 17.5316 39.8323 19.3355 36.1732C19.6162 35.6039 22.2139 29.6976 22.2052 29.5735C19.2803 27.3921 20.8492 23.9825 22.2145 21.4238C22.2422 21.3718 22.3396 21.2434 22.3229 21.1934L22.274 21.1991ZM26.3892 21.3493C27.0162 22.2404 27.5647 23.1378 27.881 24.1886C28.4144 25.9609 27.857 28.2679 26.2988 29.3695L25.8444 29.6668C25.9081 29.9365 26.0518 30.2396 26.1731 30.4907L28.0489 34.8543C28.3532 35.5045 28.6076 36.1689 28.9836 36.785C30.5878 39.414 34.1673 39.8741 36.8099 38.6257L37.8914 38.0121C39.6497 36.8079 40.842 34.9847 41.2408 32.8875C41.4112 31.9909 41.4952 29.2077 41.3285 28.2308L41.2697 27.7077C37.8367 27.1195 35.777 26.0256 32.7659 24.2378C31.2527 23.3394 29.7213 22.3602 28.0323 21.8206C27.5125 21.6545 26.9622 21.557 26.452 21.3714L26.3892 21.3493Z" fill="black"/>
<path d="M26.3959 11.6416L22.1144 11.6463C21.9282 11.6461 21.725 11.6593 21.541 11.6318C20.7417 11.5121 20.6499 10.3257 21.6318 10.1793L25.8971 10.1694C26.0642 10.1697 26.2464 10.1555 26.4118 10.1767C27.35 10.2969 27.2968 11.5371 26.3959 11.6416Z" fill="black"/>
</svg>
