<svg width="48" height="48" viewBox="0 0 48 48" fill="none" xmlns="http://www.w3.org/2000/svg">
<path d="M24.419 30.701L24.2642 30.2466C24.1956 30.0178 24.2388 29.6677 23.8946 29.8211L23.754 30.2926C23.4806 31.2239 22.9885 32.0842 22.553 32.9469C22.1457 33.7538 21.6353 35.1357 20.8008 35.5997L20.7202 35.6421C20.5707 35.7112 20.3709 35.6948 20.2094 35.6952L16.7342 35.7039C16.3419 35.7121 15.9612 35.7823 15.5717 35.8046L13.8403 35.8219C12.3062 35.8236 9.24597 35.7032 8.63819 34.1109C8.54106 33.8563 8.55409 33.558 8.55273 33.2904L8.55714 30.9796C8.70662 28.0711 9.37023 24.8254 10.0899 22.0234C10.4239 20.7231 10.8459 19.4471 11.1166 18.1303C11.2061 17.6946 11.2053 17.255 11.2663 16.8178L11.8291 13.8044C12.0359 12.8913 12.2297 12.2044 13.2971 12.2038L22.8107 12.2031H33.6176C34.7111 12.2033 35.8161 11.9656 36.0781 13.4014L36.3841 14.7695C36.7036 15.746 36.6819 16.8481 36.8383 17.8369L37.1191 19.2036C37.1474 19.3373 37.1881 19.4952 37.2342 19.6251L37.576 20.813C37.5852 20.8566 37.5938 20.8952 37.6084 20.9375L37.6737 21.1686C37.6818 21.206 37.6898 21.2403 37.702 21.2768L38.3519 23.8246C38.439 24.0824 38.4735 24.3857 38.526 24.6541L39.3184 29.3842L39.3881 30.3942C39.4496 31.2001 39.4406 31.9869 39.44 32.7959L39.4391 33.4838C39.4387 33.7355 39.456 33.9264 39.3515 34.1606C38.6591 35.7123 35.6609 35.8254 34.2609 35.8239L32.6394 35.7911L28.8408 35.5429C28.4159 35.5129 27.6898 35.6511 27.3112 35.5223L27.2813 35.5115C26.5229 35.2516 25.6954 33.4446 25.3665 32.7776L24.419 30.701ZM19.6118 13.4472L16.3953 13.4511C15.6943 13.4513 14.9728 13.4151 14.2772 13.504L14.524 13.6116C15.7442 14.2306 18.463 14.6138 19.9454 14.7311L22.002 14.8113L27.1448 14.7652C27.6215 14.7508 28.1004 14.7642 28.5715 14.6789L30.6446 14.4215C31.2796 14.3103 33.5277 13.8441 34.0318 13.5074C33.4412 13.4094 32.8099 13.4517 32.212 13.4508L19.6118 13.4472ZM12.9293 14.2667L12.5643 16.313C12.5461 16.4272 12.5477 16.5391 12.5118 16.6503L15.1641 17.3453L19.4976 18.2199C20.359 18.3541 22.534 18.6548 23.3949 18.4611L23.4069 18.4515C23.1193 18.1928 22.5368 17.8255 22.513 17.4431C22.4819 16.942 22.9998 16.7496 23.4112 16.9512C23.582 17.0349 24.0999 17.4949 24.2399 17.4578C24.5428 17.3775 24.7502 17.0232 25.0782 16.9176L25.1026 16.9093C25.5797 16.7605 25.9326 17.4057 25.7075 17.8013L25.6901 17.8324C25.5422 18.0804 25.2351 18.2446 25.0495 18.4856C26.1964 18.622 28.9301 18.2106 30.0741 17.9862L32.0798 17.537L35.5311 16.639L35.1045 14.3776C32.3288 15.5694 29.3606 15.9983 26.3523 16.093L20.9415 16.0327C18.2115 15.914 15.4137 15.4333 12.9293 14.2667ZM12.3556 17.8549C12.3119 18.1338 12.2828 18.4167 12.2227 18.6925L11.1654 22.6088L10.0889 27.9187C9.88455 29.2442 9.72578 30.5723 9.72597 31.9156L9.7292 33.0941C9.73019 33.2914 9.71205 33.5131 9.74753 33.7066C10.4753 34.6403 13.6456 34.6693 14.9701 34.5921L15.674 34.5214L19.579 34.4383C19.8165 34.4383 20.0992 34.4675 20.3321 34.4359L20.8547 33.6098L21.7451 31.8746C22.1356 31.0936 22.4912 30.3928 22.6988 29.5419L22.6518 29.5336C21.0498 29.2384 19.6729 27.7121 19.1817 26.2308C18.7228 24.8469 18.8043 22.4374 19.0742 20.9336L19.3406 19.4378L12.3556 17.8549ZM35.5958 17.8716L28.6433 19.4858L28.9242 21.0473C29.0744 22.0934 29.204 23.8117 29.1215 24.8513C28.9615 26.8672 27.6643 28.8393 25.6768 29.4524C25.4841 29.5118 25.3337 29.4582 25.371 29.6905C25.4032 29.8911 25.4759 30.1149 25.5497 30.3052L26.4675 32.3165C26.7702 33.0116 27.1899 33.6708 27.5977 34.3079C27.6677 34.3343 27.7167 34.3367 27.7911 34.3335C28.6623 34.3297 29.2602 34.3457 30.1117 34.4187C30.489 34.451 30.872 34.4216 31.25 34.4501L34.3799 34.5992C35.6011 34.5981 37.2723 34.5579 38.2509 33.7228C38.2933 33.2635 38.27 32.7875 38.2701 32.3262L38.2502 30.664C38.1043 28.2969 37.5313 25.2592 36.9359 22.9927L35.9287 19.2959L35.5958 17.8716ZM24.1613 19.4653C22.8841 19.9481 23.0964 21.2589 23.833 22.1841C24.0046 22.3997 24.187 22.5932 24.3175 22.839L24.3391 22.8786C24.5237 23.2236 24.6632 23.7045 24.65 24.0906C24.4501 24.456 24.0817 24.6882 23.695 24.4036C23.4788 24.2446 23.4487 23.9076 23.3494 23.6718C22.795 22.3554 21.4599 21.6799 22.1856 19.7644L20.5422 19.6379L20.1622 21.6676C20.07 22.3026 20.0439 22.9996 20.0389 23.6389C20.0247 25.4556 20.3426 26.703 21.7796 27.8279C24.1154 29.3762 27.1972 28.1568 27.838 25.3716C27.9511 24.8801 27.9439 24.3672 27.9446 23.8671L27.9335 22.8705C27.9018 22.3524 27.8278 21.8187 27.7493 21.3052L27.4345 19.6357L25.8217 19.7112C26.0594 20.6367 25.8012 21.824 24.9934 22.4043C24.6974 22.617 24.3957 22.6457 24.1524 22.3431L24.1321 22.318C23.5408 21.5629 24.8258 21.4418 24.6612 20.2856L24.6573 20.2573C24.6257 20.0404 24.4483 19.4412 24.1613 19.4653Z" fill="black"/>
</svg>
