<svg width="48" height="48" viewBox="0 0 48 48" fill="none" xmlns="http://www.w3.org/2000/svg">
<path d="M32.2678 39.6786C30.0452 40.3469 27.9276 40.5803 26.3763 38.3501C26.1043 37.959 25.9068 37.5275 25.6995 37.1004L25.0949 35.8912C24.819 35.3456 24.4661 34.8123 24.2627 34.2358L23.753 34.2767C23.6376 34.6191 23.4226 34.9253 23.2325 35.2294L22.8291 35.9275C22.3219 36.8347 21.9402 38.0249 21.2769 38.8081C19.4058 41.0179 16.6957 39.9827 14.4279 39.3163L8.38394 37.6284L4.62946 36.9492C3.88557 36.8557 3.10367 36.9509 3.21588 35.8827C3.25741 35.4874 3.36467 35.09 3.4378 34.6991L5.80089 22.4196C5.92506 21.6625 5.93861 20.8949 6.02383 20.1327C6.35912 17.1337 7.08737 15.2059 8.22311 12.4455L8.68787 11.2928C9.03001 10.4264 8.65033 8.6773 8.88798 8.24212L8.91255 8.20138C9.05087 7.95824 9.25225 7.80571 9.5357 7.76465L37.8897 7.77009C38.9658 7.76812 39.1614 7.93668 39.1611 9.10973L39.1605 10.4136C39.1608 10.905 39.2236 11.067 39.3978 11.5194L40.4453 14.1349C41.2031 16.0954 41.694 17.9899 41.9515 20.0858L42.0761 21.3303C42.1039 21.701 42.1105 22.1008 42.1884 22.4647L43.324 28.3641C43.3825 28.643 43.457 28.9394 43.4891 29.2221L43.9566 31.6415C43.9706 31.7534 44.0058 31.8591 44.0257 31.9697L44.6253 34.9686C44.7477 35.5697 45.0805 36.5158 44.3381 36.8519L44.3084 36.8652C44.1353 36.9476 43.986 36.9516 43.7975 36.9692L42.4203 37.1071C41.9111 37.1704 41.4145 37.2822 40.912 37.3801L37.921 38.0741L32.2678 39.6786ZM10.4287 9.36838L10.4245 10.1337C10.8348 10.2727 11.3023 10.2835 11.729 10.3472C12.7921 10.5058 14.1556 10.6562 15.2401 10.6955L33.5975 10.6929L37.1416 10.3147C37.2578 10.2855 37.4745 10.2645 37.5668 10.1986C37.5682 9.93159 37.5919 9.63693 37.5564 9.37373L10.4287 9.36838ZM10.2445 11.7455L9.26847 14.0246C10.7227 14.8756 14.0958 15.2674 15.7339 15.3716L21.492 15.4341C21.6273 15.4296 21.7606 15.4053 21.8956 15.3991L22.8494 15.39C22.9895 15.3891 23.1572 15.4035 23.2926 15.3706L23.335 15.3569C23.1809 15.195 23.0329 15.0613 22.8631 14.914L22.3227 14.4022C21.8767 13.9843 21.2889 13.4871 22.0635 12.9025C22.5885 12.5062 22.9027 12.8663 23.3284 13.2338L24.015 13.8182L24.6561 13.2654C25.0014 12.9635 25.3854 12.5472 25.8388 12.8092L25.8652 12.8242C26.8786 13.4158 26.0996 14.1092 25.5503 14.6003L24.7941 15.3216C25.5013 15.4252 26.2283 15.3924 26.9413 15.3926L30.9211 15.3919C31.0464 15.3918 31.2094 15.3724 31.3299 15.3928C33.4844 15.3172 36.7405 14.9505 38.7345 14.029L37.8509 11.7797C36.8317 12.057 35.3547 12.2164 34.2654 12.2675L15.1581 12.2738C14.8903 12.2656 14.6266 12.2211 14.3597 12.2043L13.2543 12.1506L10.6412 11.8206C10.5126 11.7966 10.3686 11.7837 10.2445 11.7455ZM8.67269 15.5453L8.25156 16.8447C7.89072 18.1122 7.42975 20.4301 7.47836 21.7914C10.8788 21.9233 14.906 22.8268 17.6207 25.0027C18.6753 25.848 19.4436 26.9222 20.0822 28.1044L21.2014 30.9371C21.9971 33.051 25.105 33.2861 26.5007 31.801C26.7283 31.559 26.7711 31.3419 26.8708 31.0298L27.3923 29.3469C28.2706 26.8918 29.8204 25.2123 32.0177 23.9179C34.8386 22.3319 37.3911 21.9477 40.501 21.7287C40.4168 19.6225 40.0186 17.543 39.3186 15.5555L36.7963 16.3094C34.3024 16.9482 32.5315 16.9935 29.9582 16.9955L22.819 16.9979C22.5974 17.0017 22.3792 17.0411 22.1571 17.045L16.2772 16.9953C14.1588 16.8935 10.7195 16.534 8.76198 15.5928L8.67269 15.5453ZM40.3767 23.3777C38.9703 23.4048 37.6235 23.6245 36.2694 23.9977L34.9865 24.3599C34.6194 24.4836 34.2672 24.645 33.9136 24.8019C31.7355 25.7685 29.902 27.2286 29.0041 29.5239C28.2219 31.5234 28.4915 33.0161 25.9217 34.0164L27.0104 36.1867C27.4889 37.1272 27.8106 37.9439 28.8272 38.3933C29.6203 38.6891 30.4844 38.5411 31.2772 38.3179L37.3358 36.5639C39.2238 36.0417 41.1589 35.6479 43.1027 35.4043L40.7903 23.3854L40.3767 23.3777ZM7.20981 23.4162L4.94087 35.4052C5.51481 35.5298 6.11575 35.5665 6.69484 35.6649C7.93867 35.8762 9.16497 36.1385 10.3826 36.4714L15.4473 37.9431C16.7054 38.2963 18.2522 38.9687 19.496 38.2236C20.4748 37.5711 20.5974 36.6946 21.1053 35.7158L21.8108 34.4598C21.902 34.3052 22.03 34.1505 22.101 33.9877C19.9487 33.1845 19.7917 31.4156 19.0562 29.6695C18.0133 27.1941 16.3985 25.6536 13.8321 24.6912C12.1795 24.0715 10.437 23.6684 8.68 23.5035L8.10198 23.4332C7.8069 23.4106 7.50573 23.4141 7.20981 23.4162Z" fill="black"/>
</svg>
