<svg width="48" height="48" viewBox="0 0 48 48" fill="none" xmlns="http://www.w3.org/2000/svg">
<path d="M27.0451 37.9938C26.8598 37.5739 26.8686 37.0396 26.8301 36.5846C26.7181 35.2612 26.352 33.2455 25.7677 32.0312C25.5963 31.675 25.3651 31.3748 25.1608 31.04C24.8005 30.4496 24.4752 29.13 24.0078 28.7351C23.8172 28.9258 23.6958 29.1721 23.5822 29.4136L23.0742 30.5942C22.8857 31.0015 22.605 31.3352 22.3819 31.7207C21.657 32.9732 21.3428 35.1152 21.1978 36.5408C21.1086 37.4175 21.2207 38.4526 20.101 38.676C19.6663 38.7627 19.2072 38.7772 18.7673 38.828C16.872 39.0473 14.9541 39.0537 13.0656 38.7687L10.0332 38.142C8.20997 37.7237 8.21485 36.607 8.34216 34.9221L9.86761 22.3474L10.4779 19.3001C10.7074 18.2473 10.9612 17.222 11.0023 16.1429L10.9907 10.9568C11.0025 10.5152 11.3314 10.3579 11.73 10.3219L36.4218 10.3164C36.4933 10.3185 36.5715 10.3215 36.6331 10.3618L36.6562 10.378C36.9905 10.6068 36.9923 10.7614 36.9934 11.1377L36.9949 14.9104C36.9935 15.6457 36.9669 16.3489 37.0873 17.0751L38.0232 21.6409L38.9531 27.9021L39.6652 35.8943C39.6784 36.227 39.7228 36.5433 39.6137 36.8688L39.6003 36.9067C39.2157 38.0335 38.0519 38.1552 37.0491 38.3552C34.4422 38.8751 31.7753 39.0911 29.1218 38.8308C28.3292 38.753 27.4853 38.7855 27.0451 37.9938ZM12.2125 11.6012L12.2086 12.887C12.2097 13.1736 12.1888 13.4763 12.2267 13.7601L35.6613 13.7743L35.7542 13.7668L35.7588 11.6003L12.2125 11.6012ZM12.2581 15.0259C12.1763 15.5136 12.2417 16.0071 12.2319 16.488C12.2231 16.9179 12.1323 17.3853 12.0618 17.8102L11.1717 22.053L10.0815 29.6671C9.97496 30.6804 9.82641 31.712 9.81656 32.7313L20.4996 33.4671L20.5764 33.0605C20.7686 32.3068 21.0027 31.5465 21.4335 30.8913C21.5716 30.6812 21.7318 30.4813 21.8498 30.2589C22.2488 29.5066 22.5849 28.1247 23.236 27.6497C23.4498 27.4938 23.3876 27.369 23.388 27.1244L23.3864 24.9415C23.3856 24.692 23.4061 24.4184 23.3686 24.1719C22.7572 24.1285 22.1518 23.9441 21.5857 23.7173C18.229 22.3728 15.8819 19.1956 15.6115 15.5763L15.5967 15.1389C15.594 15.0141 15.595 15.0367 15.459 15.0287L12.2581 15.0259ZM16.9105 15.0234L16.8515 15.0435C16.7127 15.3263 17.0232 16.9238 17.2035 17.3786L17.2999 17.6716C18.4268 20.5845 21.4749 23.3905 24.7919 22.8862C25.9323 22.7127 28.0113 21.3314 28.8362 20.5381C30.4141 18.9632 31.1146 17.2157 31.2702 15.0468L16.9105 15.0234ZM32.4923 15.0233C32.4746 17.4299 31.4325 19.7515 29.7183 21.439C28.636 22.5044 26.0921 24.1424 24.6155 24.171C24.5991 24.454 24.5806 27.4698 24.6088 27.5439L24.6457 27.5664C25.4274 28.0687 25.7775 29.6516 26.2358 30.4493C26.4671 30.852 26.725 31.135 26.9339 31.5905L27.4955 33.3821C27.6113 33.4266 27.8293 33.3981 27.9567 33.3977L29.355 33.3713C29.6601 33.3531 29.9554 33.3033 30.2636 33.2986L38.2098 32.6899L38.0385 30.7168L37.017 23.0069L36.2455 19.0875C36.0608 18.1998 35.8047 17.2896 35.7623 16.3795C35.7535 16.1904 35.7794 15.1005 35.7356 15.0276L32.4923 15.0233ZM9.66141 33.9632C9.63056 34.1846 9.63778 34.4016 9.62011 34.6227L9.55331 35.2245C9.45971 36.59 9.33778 36.6789 10.5829 36.9805L12.3163 37.3484C12.834 37.4494 13.3601 37.5505 13.8861 37.5972C14.481 37.6501 14.9173 37.7002 15.529 37.7029L17.4868 37.6913C17.6427 37.6842 17.7863 37.6472 17.9378 37.6353L19.1718 37.5434C19.3742 37.5223 19.6262 37.5298 19.8163 37.4636L19.8758 37.4287C20.0499 36.6146 19.9891 35.6477 20.1906 34.7491C20.1983 34.7147 20.1987 34.7287 20.1944 34.703L18.0474 34.6715L10.4841 34.0343C10.21 34.0072 9.93347 34.0127 9.66141 33.9632ZM38.0775 33.9945L27.8151 34.6727L28.0906 36.8765C28.1329 37.2917 28.0163 37.4219 28.4471 37.4927L29.6483 37.6161L31.8098 37.6412C32.3484 37.6394 32.8943 37.6504 33.4299 37.5878L37.1562 37.047C37.5535 36.9646 38.081 36.9652 38.3541 36.622L38.3964 36.5683C38.5585 36.3618 38.3863 34.4859 38.316 33.9993L38.0775 33.9945Z" fill="black"/>
</svg>
