<svg width="48" height="48" viewBox="0 0 48 48" fill="none" xmlns="http://www.w3.org/2000/svg">
<path d="M29.1506 38.472C27.4492 38.0619 27.2624 36.6832 26.6942 35.3317L25.85 33.3081C25.1868 31.813 24.4293 30.2797 24.0993 28.6665C23.9262 29.1044 23.8114 29.5604 23.6531 30.0027C23.2863 31.0278 22.7704 32.0955 22.1466 32.9917C21.6333 33.7291 21.5345 33.8768 21.1734 34.7242L20.5905 36.0817C20.3312 36.6949 20.0212 37.2966 19.8095 37.9283C19.7452 38.1204 19.5712 38.2529 19.3918 38.3387L19.3636 38.3516C18.4161 38.7927 16.0163 38.8343 14.9978 38.8324L13.4249 38.8085L9.93845 38.4517C8.90988 38.31 7.89208 38.1334 6.88722 37.8678C4.79402 37.3145 3.28836 35.8247 3.36616 33.5128C3.38703 32.8926 3.59014 32.1597 4.03672 31.714C4.21287 31.5382 4.13788 31.3 4.13646 31.0717L4.1348 29.7457C4.1372 29.244 4.18686 28.7632 4.24633 28.2653L4.45937 26.9528C4.92006 24.387 5.87458 21.8119 7.11152 19.5148C7.17597 19.3951 7.23696 19.2675 7.31378 19.1555C8.54528 17.3594 9.20828 14.3443 9.56233 12.2106L9.73891 10.8645C9.7871 10.3182 9.66766 9.76167 10.3063 9.56315C10.6087 9.55181 10.7857 9.73715 11.0379 9.87047C12.1196 10.4423 14.199 10.5479 15.504 10.5964L17.8482 10.654C18.0657 10.661 18.2797 10.7023 18.4962 10.7055L30.6706 10.7013C30.8567 10.6961 31.0391 10.663 31.2246 10.6542L35.0508 10.4032C35.6851 10.327 36.4519 10.1978 37.0024 9.84455C38.0358 9.1814 38.1693 9.75248 38.2558 10.8044L38.3394 11.5863C38.3984 12.086 38.5013 12.5851 38.582 13.0818L39.0939 15.4215L39.3763 16.2898C39.4934 16.7112 39.6872 17.1504 39.8582 17.5536L41.824 21.6206L42.9155 24.5153C43.0332 24.9141 43.2155 25.3191 43.299 25.726L43.3135 25.7926C43.5149 26.4212 43.6413 27.083 43.7888 27.7258L44.1592 29.7184C44.1902 29.9372 44.2324 30.1597 44.2484 30.3806L44.2893 31.4712C44.3072 31.9731 44.2758 31.8272 44.4223 32.2612L44.4382 32.3083C44.4721 32.3943 44.5011 32.4779 44.5185 32.5693L44.5944 32.8687C44.6828 33.3074 44.689 33.9396 44.6013 34.3723C44.1175 36.7616 42.482 37.5875 40.2751 38.1194C38.7412 38.4891 37.165 38.7104 35.5898 38.8107L34.6008 38.836C32.8924 38.9061 31.1352 38.8947 29.456 38.541L29.1506 38.472ZM10.9551 11.2554C10.8159 13.2091 10.1999 15.7666 9.50397 17.5497L8.90313 18.9017L14.4263 18.843C14.5921 18.8327 14.7558 18.7975 14.9224 18.7846L18.991 18.3087C19.7052 18.1991 20.4315 18.1252 21.1381 17.9708L20.7153 17.4683C20.185 16.7778 19.8856 15.8944 19.8717 15.027C19.861 14.3642 19.8447 13.2605 20.6356 13.037C20.8598 13.1173 21.0549 13.1909 21.1641 13.423L21.2014 13.5141C21.4246 14.0161 20.7993 14.9151 21.416 16.195L21.428 16.2224C22.6355 18.9558 27.6484 17.876 26.7689 14.0858C26.7273 13.907 26.7107 13.6654 26.7815 13.4944L26.7984 13.4522C27.054 12.8251 27.7751 13.0072 27.9624 13.6029L27.9708 13.6305C27.9995 13.7237 28.0293 13.8126 28.0437 13.9094L28.0972 14.1676C28.237 15.2395 28.0396 16.1632 27.5267 17.0994C27.3426 17.3991 27.1501 17.6349 26.9313 17.9059L30.5977 18.4603L34.4341 18.843L35.5782 18.8675C36.5034 18.903 38.1014 18.9653 39.0226 18.8239C38.0527 16.6032 37.5605 14.95 37.2071 12.4968L37.0435 11.2842C36.3432 11.546 35.6328 11.6482 34.8945 11.731L31.8843 11.9402C31.7369 11.9486 31.594 11.9904 31.4451 11.9985L17.2266 12.0027C16.9982 11.9944 16.7721 11.951 16.5436 11.9379L14.7891 11.8337C13.5125 11.7192 12.1645 11.7438 10.9551 11.2554ZM23.685 19.0644C22.9578 19.0889 22.2417 19.1289 21.52 19.2223L18.8739 19.6629L13.503 20.2172L9.25567 20.2271C8.89633 20.2268 8.54214 20.2351 8.1851 20.1873L6.85596 23.198L6.42039 24.506C6.15236 25.34 5.89502 26.1964 5.73269 27.0583L5.48641 28.7754C5.39805 29.598 5.33139 31.0266 5.47685 31.8337C5.60706 32.5562 5.104 32.4133 4.8566 32.7892L4.83911 32.8149C4.59688 33.1887 4.57004 33.9084 4.68114 34.3117C5.20666 36.2191 6.72911 36.5485 8.4573 36.8786L11.3574 37.3082L13.8835 37.5087L15.5288 37.5164C16.5866 37.5157 17.7111 37.4924 18.7324 37.1782L19.609 35.1249C19.848 34.564 20.0678 33.9985 20.3439 33.4537C20.6608 32.8282 21.1327 32.3069 21.462 31.6898C22.6582 29.4483 23.3411 27.0659 23.5659 24.547L23.659 23.1149L23.6982 21.3443C23.6996 21.0422 23.6688 20.6977 23.7241 20.4023C23.8557 19.699 24.987 19.9468 24.9889 20.5894C24.9897 20.8593 24.9425 21.1279 24.9399 21.4008L24.9266 23.9141C24.907 24.4867 24.7486 25.0045 24.883 25.5888C24.9378 25.8277 24.912 26.0963 24.9464 26.3409C25.0425 27.0243 25.2168 28.1773 25.4456 28.8359L25.9974 30.5362L27.4608 33.8174C28.0756 33.7766 28.699 33.7972 29.315 33.7972L34.1302 33.7793C35.8312 33.7042 37.9318 33.2917 39.5391 32.8124L42.6948 31.7217C42.7933 31.6856 42.9533 31.6782 43.0272 31.6089C43.0406 28.8575 41.897 25.0761 40.8626 22.6055L40.1401 20.9864C40.016 20.7254 39.8604 20.4656 39.7503 20.2003L38.7168 20.2618C38.5069 20.2791 38.3085 20.3262 38.0966 20.3348L34.1484 20.3246C33.9731 20.3148 33.8065 20.2782 33.6328 20.2647L30.3935 19.92L27.2519 19.4308C26.3376 19.2792 24.6057 18.9637 23.685 19.0644ZM43.2064 32.9176L39.9196 34.0487C36.8975 34.9298 34.9458 35.1159 31.8238 35.1162L27.9954 35.1135L28.3323 35.961C28.4874 36.3069 28.5604 36.589 28.833 36.8736C29.2668 37.2938 30.9339 37.4682 31.6563 37.507L34.9868 37.5143C35.3035 37.5092 35.602 37.4674 35.9142 37.4447L38.1873 37.2055L39.4337 36.9606C41.3267 36.5656 43.3722 36.0199 43.3627 33.5754C43.362 33.4111 43.3773 33.0362 43.2238 32.9257L43.2064 32.9176Z" fill="black"/>
</svg>
