<svg width="48" height="48" viewBox="0 0 48 48" fill="none" xmlns="http://www.w3.org/2000/svg">
<path d="M37.1542 42.2819C37.0085 42.3097 36.861 42.3755 36.7179 42.419L35.6499 42.7371C33.4397 43.3594 30.549 43.7532 28.3228 43.2212C26.9725 42.8985 26.7988 42.6251 26.5193 41.4518L24.2041 30.823C24.1531 30.5538 24.0609 30.2898 24.0324 30.0176L24.029 29.9839C23.8566 30.5163 23.7936 31.0782 23.6722 31.6258L21.6572 40.6873C21.2274 42.6349 21.3091 42.9818 18.984 43.3611C17.8104 43.5526 16.6307 43.4645 15.457 43.3245C12.1284 42.9274 7.58804 41.7963 5.9566 38.6281C5.34043 37.4315 5.13029 35.9382 5.00049 34.617C4.90543 33.6495 4.68821 32.1951 4.73973 31.2395C4.78805 30.3442 4.97607 29.4539 5.04995 28.5584L5.46891 23.6674L6.65284 15.0115C7.05723 12.5512 7.48144 10.095 8.29585 7.73061C8.89974 5.97729 9.53794 4.80959 11.579 4.53184L18.4478 4.5215C18.8814 4.52171 19.2119 4.47645 19.3921 4.97361L19.4067 5.01542C19.5482 5.36928 19.3668 5.87248 18.9634 5.95315C18.8207 5.98175 18.6374 5.95929 18.4905 5.95925L12.1992 5.94762C11.4277 5.92156 10.9208 5.88443 10.3263 6.52297C11.9197 7.77317 13.9723 8.47559 15.9046 9.01048L17.5899 9.39462C19.6852 9.81401 21.7303 10.0347 23.8657 10.0345L25.2799 10.0295L29.3555 9.59768C31.8427 9.17023 34.5628 8.44545 36.7564 7.19351L37.7784 6.57579C37.5322 6.21997 36.9438 5.92236 36.7984 5.55458C36.6818 5.25945 36.8305 4.78981 37.1602 4.69817C37.6418 4.56421 38.022 4.98364 38.3299 5.29212C39.1279 6.09172 39.535 7.03648 39.8235 8.10917L40.0461 8.80789C40.2042 9.25704 40.2891 9.72373 40.4067 10.1834L41.1101 13.5935L41.7664 17.7889L42.5386 24.345L42.8386 27.8729C42.8922 28.5587 42.951 29.3367 42.9767 30.0196L42.9977 32.0371C42.9996 34.7434 43.461 39.1689 40.6344 40.7202C39.6703 41.2494 38.1617 41.9204 37.1542 42.2819ZM9.6788 7.69179L9.10266 9.47215C9.83251 10.1862 11.3987 10.8688 12.3208 11.2584L16.6398 12.8693C19.0838 13.6 21.8632 13.9888 24.3962 13.9615L25.4531 13.8975C27.1006 13.8049 28.74 13.5277 30.3399 13.1251L34.3242 11.812C35.6268 11.2977 36.9092 10.7574 38.1222 10.0523L38.9078 9.54322C38.9337 9.42036 38.4655 7.97656 38.383 7.74617C34.7733 9.89881 31.1854 10.8496 26.982 11.2552L23.4258 11.3952L21.6433 11.3247C17.5963 11.0277 13.0762 9.96833 9.6788 7.69179ZM8.75143 10.8631C8.63405 11.2388 8.56885 11.6323 8.48851 12.0173L7.22302 19.8464L6.55341 25.5689L6.24573 29.4214C6.15774 30.5062 5.9671 31.3951 6.10224 32.4959C6.31529 34.2312 6.26982 36.7337 7.22818 38.2579C9.00793 41.0884 14.3161 42.0958 17.4005 42.1083C17.7867 42.1099 18.1949 42.1301 18.5771 42.0775L18.7225 42.0501C19.2051 41.9464 19.6318 41.9212 20.0977 41.7037L20.1385 41.6417L23.273 26.9975C23.3178 26.7306 23.3726 26.467 23.3653 26.1946C21.3479 25.5493 20.2604 25.1214 19.5804 22.8155C19.4591 22.4043 19.5327 21.9213 19.5129 21.494C19.3786 18.6112 17.3959 15.1952 14.8359 13.7566C14.1909 13.3941 13.5023 13.172 12.8203 12.8963L11.4126 12.2825C10.8411 12.0273 10.2788 11.7768 9.73309 11.4681C9.58923 11.3867 8.85671 10.8536 8.75143 10.8631ZM39.2658 10.8376C38.0312 11.721 36.5976 12.3334 35.1899 12.8902C34.5787 13.1321 33.9277 13.3349 33.3517 13.6557C30.6649 15.1516 28.7371 18.2817 28.4863 21.3534C28.4319 22.0193 28.5316 22.6616 28.2994 23.3098C27.6915 25.007 26.3051 25.7929 24.6565 26.1525C24.6714 26.3995 24.7035 26.6564 24.7353 26.9018L25.6521 31.4836C25.9015 32.6141 26.1011 33.7585 26.3554 34.8881L27.4329 39.7644C27.5671 40.3302 27.6613 40.9287 27.8435 41.4794C27.8482 41.5707 27.8876 41.6316 27.9319 41.7099C29.5076 42.4515 32.7458 42.0637 34.4883 41.649C35.1527 41.4909 35.8154 41.3454 36.4607 41.1135L39.199 39.9685C41.1307 39.0355 41.4406 38.333 41.6476 36.086L41.7292 35.1769L41.7275 30.6433L41.3513 25.3688L40.666 19.2005L39.586 12.3631C39.488 11.8581 39.4079 11.3322 39.2658 10.8376ZM17.8417 14.5428L18.5889 15.5131C19.8817 17.2854 20.7992 19.5129 20.8131 21.7245C20.8214 23.063 21.2454 23.963 22.5441 24.5756L23.8403 24.9739C24.0751 25.0607 25.3551 24.6094 25.574 24.503C27.0985 23.7622 27.2101 22.7973 27.2065 21.3455C27.4433 18.5893 28.4914 16.6666 30.132 14.5611L27.9375 14.976C26.68 15.1776 25.4467 15.2622 24.1776 15.2628L22.8166 15.2585C21.1785 15.1926 19.4262 14.932 17.8417 14.5428Z" fill="black"/>
</svg>
