<svg width="48" height="48" viewBox="0 0 48 48" fill="none" xmlns="http://www.w3.org/2000/svg">
<path d="M26.7546 43.0172L25.7116 39.0708L24.9884 35.9786C24.7461 34.9312 24.5831 33.6037 23.9997 32.6764C23.7307 33.1065 23.5197 33.669 23.4261 34.1701L21.2037 43.1778C21.0631 43.6329 20.7427 43.7861 20.3106 43.7909L19.5366 43.7921C16.1164 43.7887 13.134 42.9874 10.0559 41.4547C8.92884 40.8935 7.67741 40.2451 6.77638 39.3464C6.07743 38.6492 6.09023 38.2915 6.17277 37.3869L6.93543 31.6411L8.5543 21.0942L10.1477 12.7739L10.9351 9.65158C11.1636 8.91161 11.1189 8.26352 11.0523 7.48071L10.8892 5.96458C10.85 5.62249 10.6948 5.06543 10.8378 4.73922L10.9052 4.59783C11.0246 4.39161 11.2359 4.27539 11.4611 4.22266L14.6252 4.34004C14.8657 4.35479 15.0987 4.40252 15.3417 4.41187L16.4242 4.43698C17.1259 4.48089 17.8369 4.56645 18.5508 4.60421L20.8046 4.69868L26.8036 4.7014C27.0939 4.6945 27.3772 4.64088 27.6664 4.62804L29.4251 4.60342C29.7143 4.5934 29.9978 4.54526 30.2859 4.5276L31.5975 4.5017C31.9999 4.48357 33.0707 4.43622 33.3823 4.3664C33.7572 4.28235 34.6354 4.29681 35.1251 4.26202L36.1405 4.22893C36.5534 4.21981 36.9149 4.21194 37.1122 4.65477L37.1266 4.68794C37.2971 4.98466 37.1691 5.50952 37.1321 5.83961L36.9844 7.1606C36.9431 7.47035 36.8621 8.97447 36.9521 9.2831L37.0206 9.517C37.0277 9.5516 37.0329 9.5786 37.0461 9.61207L37.2365 10.2262C37.2996 10.3844 37.3605 10.6085 37.3906 10.7763L37.5078 11.273C37.6241 11.6285 37.8085 12.5712 37.8634 12.9581L37.9762 13.4906C38.025 13.6532 38.0347 13.8165 38.0694 13.9809L38.5165 16.355C38.5468 16.5269 38.5944 16.6972 38.614 16.8707L39.8334 23.8193C39.8582 24.0806 39.9379 24.3607 39.9847 24.6215L41.6713 36.1411C41.7639 36.7553 42.0011 38.201 41.7865 38.6264C41.1409 39.9061 38.2707 41.3806 36.8145 41.9887L34.4251 42.8573C32.8956 43.342 31.2763 43.6874 29.6719 43.7781L28.3562 43.7942C27.5163 43.797 27.036 43.9453 26.7546 43.0172ZM12.431 5.81604L12.5992 7.96572C12.6034 8.07227 12.5937 8.16855 12.6125 8.27496L14.2618 8.43761L20.1103 8.83915L21.1875 8.94499L26.7851 8.92797C27.0646 8.9111 27.3377 8.85269 27.6171 8.83652C27.9369 8.81805 28.282 8.85002 28.5966 8.79869L35.3321 8.25035L35.5558 5.82452C35.3954 5.77179 35.1002 5.81819 34.9247 5.82588L33.2534 5.91105C33.028 5.92718 32.809 5.96824 32.5842 5.97766L26.8293 6.26782C26.005 6.30944 25.1911 6.25357 24.3665 6.34108C24.1724 6.36171 23.9286 6.36977 23.7358 6.33775C23.0171 6.21841 22.2533 6.29749 21.5274 6.2734L15.194 5.96979L13.6993 5.87435C13.2727 5.85138 12.8599 5.81032 12.431 5.81604ZM35.4282 9.85591L25.166 10.5919L25.446 11.6446C25.513 11.8414 25.5864 12.0635 25.6113 12.27L25.7286 12.3035L31.1256 12.2982C32.1798 12.2973 33.2429 12.1864 34.2766 11.9778L36.0274 11.5847L35.5184 9.85704L35.4282 9.85591ZM12.4461 9.90879L11.9987 11.6152L13.2207 11.8481C14.2069 12.0311 15.2013 12.1413 16.2013 12.2161L17.1954 12.2945L21.8211 12.2937C21.9175 12.2924 22.0884 12.3099 22.1728 12.2686L22.1994 12.2086L22.7768 10.5898C22.4425 10.5585 22.1066 10.5734 21.7713 10.5644L13.8756 10.001C13.4016 9.97736 12.9217 9.8929 12.4461 9.90879ZM23.9398 11.8021C23.8425 12.0692 23.7437 12.3528 23.6958 12.6333C23.7334 12.6646 23.7814 12.6528 23.8295 12.6531L24.0411 12.6264C24.0945 12.3904 23.9665 12.0412 23.9398 11.8021ZM36.2639 13.1372C35.0369 13.464 33.4568 13.7829 32.1774 13.8602L26.9747 13.8762C25.952 13.8792 25.9868 13.6715 26.2978 14.4965L26.8232 16.0713C27.1098 17.4551 27.2004 18.8563 26.8613 20.2457C26.5828 21.3872 25.9473 22.6253 24.7721 23.0303C24.7324 23.4737 24.752 23.9366 24.7517 24.3825L24.755 30.8972C24.773 31.2484 25.4219 32.0236 25.6114 32.4197C25.8369 32.891 25.9474 33.3961 26.0983 33.8924L26.6615 36.2493C26.8602 36.9543 27.0009 37.8218 27.1671 38.5499C30.4057 38.0977 34.0481 36.827 36.8609 35.2098C37.8441 34.6445 38.7543 33.9786 39.7104 33.3727L38.4979 25.1805L36.4953 13.9587C36.4453 13.6896 36.4081 13.3981 36.328 13.1372H36.2639ZM11.7539 13.1853L8.2859 33.3546C8.71316 33.6787 9.19026 33.9643 9.63955 34.2588L11.1229 35.2044C13.2038 36.41 15.4955 37.3193 17.8235 37.9203L19.7378 38.3361C20.0273 38.3906 20.3422 38.4128 20.6252 38.4886L20.7774 38.5047C20.8656 38.4264 20.9062 38.1251 20.9331 38.0007L21.492 35.566C21.7843 34.2788 22.0323 32.9203 22.7265 31.7763L23.0813 31.2315C23.375 30.8117 23.2476 30.8212 23.2482 30.2835L23.248 23.7236C23.2478 23.495 23.2597 23.2567 23.2222 23.0309L23.1914 23.0205C20.8033 22.1823 20.7581 18.5499 21.1317 16.4059L21.5498 14.4903C21.5998 14.3011 21.7099 14.0501 21.719 13.8623L16.8164 13.8581C16.5775 13.8463 16.3424 13.8057 16.1039 13.7869L13.5169 13.5052C12.9332 13.4188 12.3216 13.3473 11.7539 13.1853ZM24.2863 13.5808L23.395 13.6404L22.719 16.4319C22.4897 17.7293 22.1459 21.0236 23.7897 21.5706C25.2325 21.8102 25.5068 19.3502 25.5053 18.2943C25.5041 17.4697 25.4188 16.5888 25.1399 15.8073L24.595 14.4228C24.4956 14.1343 24.4523 13.83 24.3633 13.5696L24.2863 13.5808ZM8.00971 35.0171L7.67282 38.0299C9.22612 39.6886 13.2556 41.2206 15.3516 41.7192L17.0101 42.0333C17.4877 42.112 17.9765 42.1912 18.4616 42.2067L19.8299 42.2365C19.8733 42.1766 19.8839 42.1004 19.9018 42.0291L20.4177 40.0188C20.3496 39.9805 20.2489 39.9793 20.1704 39.9676L17.3748 39.4338C14.5742 38.7223 11.847 37.5501 9.41212 35.9946L8.00971 35.0171ZM39.9429 35.0668C37.1381 37.2904 32.9252 38.9156 29.4844 39.7062C28.8511 39.8518 28.2061 39.9043 27.5711 40.0265L28.1225 42.1125C28.1872 42.2839 28.295 42.2295 28.4422 42.2241L29.0066 42.2136C32.4186 42.1954 36.6121 40.6769 39.3806 38.8012C40.3126 38.1698 40.3679 38.3184 40.246 37.3184L40.0149 35.4577C39.9973 35.326 39.9599 35.1989 39.9429 35.0668Z" fill="black"/>
</svg>
