<svg width="48" height="48" viewBox="0 0 48 48" fill="none" xmlns="http://www.w3.org/2000/svg">
<path d="M30.5453 39.9203L30.4334 39.897C28.5111 39.4474 27.3175 38.4225 26.7676 36.5183L26.5518 35.6367C26.3151 34.732 26.0141 33.9763 25.5189 33.1891L24.8174 32.0991C24.5384 31.6949 24.2277 31.306 23.9687 30.8889C22.6675 32.0698 21.7566 33.8753 21.3868 35.573C21.2674 36.1209 21.2581 36.6759 21.056 37.2056C20.2235 39.3878 18.002 40.1668 15.835 40.0969C15.2286 40.0774 14.639 39.9486 14.0453 39.8384L7.19539 38.6972C6.67892 38.625 6.13592 38.5286 5.61486 38.5148L4.91698 38.5101C4.52133 38.5076 4.28358 38.392 4.13246 37.9892L4.11776 37.9486C3.96712 37.5445 4.01382 35.9095 4.05053 35.4494L4.30989 33.1283C4.40585 31.8708 4.38556 30.6214 4.62541 29.377L5.501 25.6704L6.08712 22.5234L6.49733 18.549L7.30986 13.4296C7.39058 13.0131 7.37909 12.5445 7.38008 12.1206L7.38116 10.5344C7.3813 10.226 7.35589 9.87516 7.42147 9.57417C7.62955 8.619 8.49303 8.05542 9.41094 7.93064L9.41356 7.92928C9.85147 7.8826 10.3265 7.92249 10.763 7.96177L15.8724 8.43464L20.2072 8.64853L21.4117 8.73652L27.0135 8.73806L29.85 8.62069C29.9884 8.61239 30.1234 8.58502 30.2617 8.57372L37.0473 8.04994C37.7195 7.98146 38.5269 7.81763 39.1777 8.04169C40.1217 8.36667 40.5905 9.16224 40.5923 10.1172L40.5924 12.8903C40.5906 13.185 40.5352 13.57 40.6374 13.8457L40.8615 14.5566C40.9845 15.1485 41.1464 15.7129 41.2347 16.3172L41.345 17.3085C41.3615 17.4544 41.3921 17.5973 41.4024 17.7443L41.6259 20.3671L42.0952 24.0937L42.7122 27.6241C42.8135 28.1044 42.9108 28.5864 43.0316 29.0625L43.1359 29.5212C43.1601 29.6163 43.1956 29.7037 43.2088 29.8025L43.5823 31.5002C43.596 31.6093 43.6324 31.7113 43.6511 31.8191L43.8279 32.9296C43.9104 33.491 43.949 34.067 43.983 34.6332L44.0336 35.1764C44.0651 35.7938 44.0407 36.4045 43.9879 37.0186C43.9457 37.5086 43.9442 38.4699 43.2657 38.5325C43.0751 38.5501 42.9068 38.4908 42.7227 38.4914C42.2052 38.4928 41.6689 38.5569 41.1576 38.632L35.7321 39.4829C33.9325 39.82 32.6256 40.3463 30.7685 39.9668L30.5453 39.9203ZM9.57739 9.45127C8.90244 9.5948 8.89292 9.9428 8.89015 10.5257L8.88533 12.571C8.88523 12.7753 8.87333 12.9887 8.89592 13.1915L16.5001 13.8748L21.7105 14.1669L26.2735 14.1687C26.3992 14.1646 26.5232 14.1433 26.6485 14.1354L29.0416 14.0614C29.2081 14.0519 29.3709 14.0178 29.5378 14.0065L31.8282 13.8654L38.4197 13.2841C38.5927 13.2643 38.9283 13.2587 39.0749 13.1713C39.1141 12.4931 39.0899 11.803 39.0896 11.1236C39.0889 9.91299 39.3826 9.4456 37.9654 9.5355L32.7922 9.99071L28.3605 10.3013L25.8629 10.3137C25.5994 10.3157 25.3444 10.3671 25.083 10.3764L23.4311 10.3725C23.1234 10.3694 22.8134 10.3198 22.5041 10.312L20.876 10.3011L17.0267 10.0859C16.8695 10.0769 16.7138 10.0411 16.555 10.0303L12.262 9.66642C11.3686 9.56775 10.4704 9.42882 9.57739 9.45127ZM8.61823 14.6641C8.50278 15.0555 8.47245 15.481 8.40242 15.8834L8.28814 16.5204C8.25945 16.6741 8.21525 16.8355 8.22205 16.9931C9.12612 16.7213 10.0611 16.4242 10.8872 15.9578L12.3093 15.122L8.61823 14.6641ZM39.338 14.6835L35.8405 15.1057L37.4142 16.0558C38.1878 16.4568 39.016 16.7946 39.8547 17.0317C39.7887 16.6482 39.5593 14.9532 39.3676 14.686L39.338 14.6835ZM33.5192 15.2475L26.663 15.7462C28.0327 16.3131 29.2765 17.7514 29.4473 19.234C29.4844 19.556 29.5592 19.905 29.3372 20.1836C29.0096 20.5947 28.3683 20.5318 28.1201 20.0625L28.1038 20.0323C27.989 19.8068 27.9952 19.4964 27.9205 19.2484C27.4759 17.772 26.1766 16.953 24.6889 16.9498L22.9616 16.9506C21.7203 16.9547 20.5019 17.8995 20.1128 19.0699C19.9541 19.5472 20.0868 20.1214 19.5587 20.3876C19.172 20.5825 18.6981 20.3205 18.5472 19.9448C18.4646 19.739 18.5007 19.5225 18.5274 19.3098C18.7295 17.6992 19.627 16.5247 21.0862 15.7904L21.2715 15.7077C20.8937 15.7132 20.5212 15.6561 20.1446 15.6399L14.9096 15.3209C14.7589 15.309 14.7625 15.3116 14.6442 15.4089L14.2618 15.7475C12.6252 17.1401 10.1141 18.0638 8.02705 18.6389L7.54189 22.6176L6.98145 25.7921L5.91842 30.914C5.86634 31.3043 5.84089 31.9792 5.82205 32.4068L5.6345 35.344C5.5963 35.8921 5.60267 36.443 5.60684 36.9921L10.8339 37.697L13.1716 38.0976C14.7266 38.4092 16.2623 38.7727 17.8328 38.2661C19.1275 37.8484 19.4812 37.0533 19.7142 35.8366L19.9127 34.9614C20.4022 33.0339 21.4863 31.4475 22.769 29.9516L23.1848 29.468C23.9832 28.5405 24.4505 28.9529 25.055 29.7376C25.8766 30.8043 26.8558 32.0411 27.4078 33.2827C27.9003 34.3905 27.9953 35.3109 28.3139 36.3984C28.5884 37.3353 29.4409 38.0684 30.3787 38.2717L31.3922 38.4513C32.8056 38.5883 34.1068 38.248 35.4845 37.9927L38.1252 37.5831C39.5662 37.3276 40.9947 37.0302 42.4594 36.9532L42.5333 35.7539C42.5859 33.099 41.9849 31.2429 41.3668 28.7226L40.907 26.389L40.0555 20.0976C40.0107 19.615 39.9794 19.1261 39.9011 18.6471L39.8741 18.6426C37.7031 18.261 35.1361 16.6612 33.5192 15.2475Z" fill="black"/>
</svg>
