<svg width="48" height="48" viewBox="0 0 48 48" fill="none" xmlns="http://www.w3.org/2000/svg">
<path d="M34.693 39.2713L33.6092 39.6054C32.6193 39.884 31.6319 40.1294 30.6209 40.3167C28.3364 40.7399 25.139 40.3509 24.0081 38.0579C23.9047 38.2174 23.8187 38.3904 23.7051 38.543C22.612 40.0116 20.6718 40.4843 18.9295 40.4808C18.6642 40.4802 18.3808 40.4983 18.1191 40.4535L17.2532 40.3167C15.7363 40.0539 14.2849 39.5788 12.8201 39.1191L8.51639 37.8181L4.54677 36.8643C3.49944 36.619 2.30795 36.6836 2.50187 35.283L2.8398 33.2688L3.8174 28.8995C4.71693 25.3809 5.9002 22.015 7.69092 18.8514L8.34796 17.7843C9.53085 15.7873 9.76476 14.2356 9.76612 11.9939L9.76762 8.301C9.77076 7.87987 9.96276 7.68051 10.3649 7.52803L12.0104 7.52568L19.4986 8.0655L21.3581 8.11551C21.8992 8.13815 22.4456 8.21967 22.9846 8.22754C23.8894 8.24076 24.7874 8.16398 25.6908 8.12376L27.932 8.05457L35.4782 7.52339L36.9192 7.51743C37.1142 7.51781 37.437 7.47487 37.614 7.54008L37.637 7.54978C38.1296 7.77248 38.2239 8.01407 38.2402 8.50893L38.2506 12.104C38.2506 12.5787 38.2117 13.0901 38.2736 13.5591L38.3385 14.2703C38.419 14.8794 38.6185 15.51 38.827 16.0867L39.1475 16.8947C39.5163 17.7735 40.1527 18.5389 40.6091 19.3732C41.5533 21.0994 42.2704 22.9296 42.9376 24.7738C43.1664 25.4061 43.4107 26.0545 43.5742 26.7074L43.671 27.0198C43.7154 27.241 43.8135 27.4559 43.8583 27.677L44.6087 30.7152C44.6252 30.8145 44.6598 30.9042 44.6803 31.0019L45.3704 34.623C45.6153 36.267 45.7634 36.2925 44.0079 36.72L41.0154 37.41L34.693 39.2713ZM11.3231 9.22298L11.3401 9.99862C11.7711 10.1116 12.1799 10.3048 12.6031 10.4455C13.1804 10.6374 13.8035 10.7655 14.4022 10.8736L17.4913 11.3413L22.4797 11.7246L25.3401 11.7282L29.6224 11.4232L31.5701 11.18C33.0157 10.9872 34.4423 10.7877 35.8203 10.2884C35.931 10.2452 36.5792 10.0548 36.5911 10.0109L36.5915 9.22565C36.5074 9.20245 36.4139 9.21806 36.3268 9.22209L34.6873 9.28523L29.4052 9.6682C29.2022 9.68432 29.005 9.72229 28.801 9.73167L27.7458 9.75792C27.5312 9.76992 27.3199 9.81206 27.1053 9.82073L25.273 9.84361C25.0844 9.84904 24.8995 9.89357 24.7095 9.90154L22.7115 9.90937C22.3462 9.90407 21.9905 9.85167 21.627 9.83831L20.2754 9.82336C20.0446 9.81422 19.8159 9.77484 19.5856 9.76092L18.3707 9.72361L13.159 9.32737C12.9052 9.309 11.4597 9.15079 11.3231 9.22298ZM11.3275 11.8178L11.319 13.4474C11.319 13.869 11.3526 14.3145 11.2612 14.7274L11.1547 15.3519C10.9304 16.4522 10.4668 17.523 9.91359 18.4939L8.33976 21.2705L10.188 20.2478C12.2872 18.8504 13.8783 16.4135 14.0732 13.865C14.1067 13.4264 14.087 12.9752 14.086 12.5351C13.1467 12.4042 12.2094 12.1752 11.3275 11.8178ZM36.5425 11.8714C35.6606 12.1499 34.7626 12.4547 33.8478 12.5727C33.8532 13.5394 33.9113 14.6791 34.2571 15.5949L34.6905 16.7113C35.2958 18.0665 36.3455 19.169 37.5429 20.0195C37.879 20.2582 38.2823 20.4371 38.4375 20.848L38.4473 20.8735C38.7328 21.6417 37.9119 22.1597 37.1964 21.7803C36.7336 21.5348 36.3132 21.2366 35.9061 20.9093C33.258 18.7807 32.2528 16.1134 32.1739 12.8495L28.1174 13.2848L29.0718 16.9845C29.2461 17.8819 29.3387 18.6358 29.1077 19.5706L28.9252 20.1849C27.6501 23.9071 22.6477 24.8577 19.998 21.8089C18.894 20.5386 18.4872 18.6724 18.892 17.0518L19.8333 13.263L15.8033 12.8608C15.7735 16.8481 13.9019 20.0751 10.4309 22.1354C9.44971 22.7112 8.41213 23.1784 7.32923 23.5272C6.96688 24.3339 6.68578 25.206 6.42098 26.0495L5.39357 29.6346C5.29931 30.031 5.17199 30.4197 5.13656 30.8279C6.72379 31.042 9.19729 31.5553 10.728 32.0954C11.9348 32.521 13.0694 33.0841 14.2306 33.6167C16.652 34.7273 19.1023 35.828 21.7085 36.4245C21.9957 36.4902 22.6655 36.6658 22.9559 36.6197C23.1084 36.4255 23.2587 36.2729 23.4842 36.1652L23.5194 36.1481C24.035 35.9084 24.5939 36.1813 24.9395 36.5856C26.7795 36.5467 29.5589 35.4105 31.2475 34.6959L33.6915 33.6379C34.7333 33.1629 35.7674 32.643 36.8436 32.2506C37.7264 31.9286 38.6272 31.7137 39.5389 31.4946L42.877 30.8117C42.3215 27.6607 40.7658 23.4079 39.3346 20.6212C38.2067 18.4251 37.0027 17.2278 36.6869 14.4847L36.6444 13.8751C36.6296 13.6927 36.6029 13.5148 36.5992 13.3311L36.5957 12.4232C36.596 12.2421 36.6068 12.0553 36.5813 11.8758L36.5425 11.8714ZM26.3091 13.3696C25.0349 13.5121 22.9019 13.4864 21.6116 13.3871L20.7841 16.6359C20.6742 17.0658 20.4751 17.5352 20.4362 17.9756C20.3134 19.3658 20.9954 20.6466 22.1436 21.4185C24.9839 23.0372 28.2641 20.3981 27.441 17.4267L26.3969 13.3778C26.3595 13.3664 26.349 13.3631 26.3091 13.3696ZM43.2293 32.473L40.6404 33.0015C39.4927 33.2568 38.3436 33.5206 37.242 33.9407L31.8722 36.3084C30.3068 36.9801 28.0615 37.9323 26.3421 38.0635C26.6123 38.2665 26.9084 38.3924 27.228 38.5005L28.1853 38.7279C29.0211 38.8851 29.9962 38.7128 30.8114 38.5381L33.4803 37.8474L37.9036 36.4626L42.02 35.4135C42.578 35.293 43.1716 35.0883 43.7411 35.0554L43.3494 32.8922C43.3207 32.7627 43.3179 32.6084 43.2661 32.4872L43.2293 32.473ZM4.73826 32.4964C4.51388 33.2247 4.33955 34.2873 4.25926 35.0527C6.17737 35.4848 8.09971 35.8766 9.98559 36.4435L14.2622 37.7761C16.5923 38.4883 18.3284 39.1274 20.7398 38.4986C20.9884 38.4039 21.2978 38.2808 21.515 38.1261C18.8637 37.7064 15.4334 36.0644 13.0208 34.9491C11.5365 34.2629 10.5581 33.795 8.97637 33.3748L5.3017 32.5904C5.15095 32.5612 4.8801 32.4707 4.73826 32.4964Z" fill="black"/>
</svg>
