<svg width="48" height="48" viewBox="0 0 48 48" fill="none" xmlns="http://www.w3.org/2000/svg">
<path d="M33.1525 37.4789L28.9486 37.4783C28.1531 37.4771 27.335 37.2486 26.6966 36.7588C25.5412 35.872 25.2499 34.8273 25.1216 33.4616L24.9714 31.9163C24.9519 31.7406 24.9574 31.5661 24.9322 31.3896L23.0535 31.3775C23.0227 31.5239 23.0197 31.6679 23.008 31.8164L22.9424 32.754C22.767 35.9363 21.6786 37.4765 18.4422 37.4792L11.8302 37.473C9.61696 37.3617 6.44245 36.716 5.0774 34.7897L4.97976 34.6475C4.46431 33.8367 4.32586 33.0501 4.32383 32.1209L4.32227 29.2898C4.32426 28.7457 4.3771 28.228 4.4341 27.6873L4.63249 26.3163L6.0201 20.6711L6.62212 18.9141C6.83652 18.327 7.05365 17.7418 7.3236 17.1772L7.90757 16.0355C8.22646 15.4783 8.16773 15.8838 8.16876 15.1142L8.17274 11.4646C8.17335 11.3249 8.15207 11.1394 8.20738 11.0099L8.2281 10.9689C8.3496 10.7131 8.47016 10.6297 8.72427 10.5281L38.4128 10.5186C39.9676 10.5186 39.8283 10.7414 39.8275 12.1246L39.8266 14.4342C39.8267 15.6145 39.6946 15.3349 40.2306 16.3128C40.6175 17.0186 40.94 17.7403 41.2186 18.4961L42.264 21.7028C42.2954 21.8399 42.3377 21.9776 42.3753 22.1134L42.6539 23.2378C42.7233 23.5523 42.8243 23.8621 42.9002 24.1745L43.0665 24.8523C43.3952 26.0959 43.587 27.4243 43.6677 28.7111L43.6926 30.4974C43.6941 32.2997 43.7808 34.014 42.4128 35.3753C40.9454 36.8354 38.145 37.364 36.124 37.4721L33.1525 37.4789ZM10.275 11.8901L9.49509 11.8981C9.45295 12.1425 9.46982 12.4045 9.46945 12.6521L9.46968 14.8366C9.46996 15.0165 9.45838 15.2052 9.48341 15.383L37.4945 15.3886C37.8204 15.3894 38.1927 15.4259 38.5125 15.3757L38.5278 12.2721C38.527 12.1544 38.539 12.0147 38.5113 11.901L10.275 11.8901ZM22.0837 16.7312L19.9598 16.7318C19.6438 16.7321 19.3019 16.705 18.9898 16.7333C18.8472 16.7463 18.8213 16.887 18.7526 16.9923L17.7288 18.3944C17.6372 18.5151 17.5142 18.6314 17.4375 18.7608L25.9572 18.7695L30.6154 18.7626C30.1474 18.2311 29.5098 17.5119 29.234 16.847L29.1959 16.7598C28.9342 16.7048 28.64 16.7315 28.3722 16.7314L22.0837 16.7312ZM9.06862 16.7312L8.10501 18.7509C8.12498 18.7708 8.11232 18.7646 8.14499 18.7651L15.147 18.7693C15.3331 18.7693 15.4739 18.8224 15.6134 18.683L15.9212 18.3653C16.215 18.0861 17.1014 17.1442 17.2678 16.7628C16.9328 16.7164 16.5826 16.735 16.2448 16.7342L9.06862 16.7312ZM30.7224 16.7312C31.0337 17.1531 31.3413 17.5935 31.7001 17.9743L32.137 18.4104C32.2191 18.4855 32.4457 18.7494 32.5483 18.7686L39.9215 18.7573C39.8516 18.5736 38.9959 16.7787 38.9501 16.7344L30.7224 16.7312ZM35.6312 20.1324L7.62299 20.1329C7.54129 20.2768 7.51705 20.4485 7.46498 20.6049L6.95554 22.3244C6.87098 22.6408 6.77891 22.955 6.71784 23.2771C7.6686 23.3752 8.68724 23.3529 9.68099 23.4314L11.2198 23.5653C13.1648 23.8074 15.2995 24.3813 16.9404 25.4977C17.4284 25.8286 17.886 26.2395 18.2893 26.6691L19.2195 27.711C20.8758 29.4661 22.7326 30.4603 25.168 29.9806C27.5971 29.5021 28.6059 27.5931 30.284 26.1172C32.4074 24.2496 35.3916 23.6526 38.1278 23.4329L40.754 23.3022C40.9326 23.2912 41.1137 23.3012 41.2906 23.2718C41.1998 22.7769 41.0498 22.2911 40.9082 21.8087L40.3892 20.1211L35.6312 20.1324ZM6.3719 24.589C5.95171 26.2109 5.71518 27.64 5.66432 29.3058L5.69198 32.6134C5.91482 35.1962 9.19687 35.9008 11.3219 36.0871C11.7208 36.1221 12.1345 36.1019 12.535 36.1022L19.3728 36.0945C19.7833 36.0766 20.1917 35.8789 20.5281 35.6568C20.8262 35.417 21.0729 35.1563 21.2331 34.8048L21.2502 34.7679C21.4349 34.3607 21.4689 33.9275 21.5221 33.4906L21.6771 31.4837C21.6813 31.3498 21.7199 31.1819 21.6966 31.0534C19.2008 30.2699 18.3866 28.3911 16.6347 26.9551C14.9849 25.6029 12.6116 25.0918 10.546 24.8608L7.95716 24.6545C7.42841 24.6224 6.90037 24.6378 6.3719 24.589ZM41.43 24.5968L39.9562 24.658L36.7888 24.9412C35.0828 25.1706 32.9556 25.7291 31.5587 26.8152C29.7434 28.2268 28.6384 30.3703 26.2466 31.0889C26.254 31.2804 26.2992 31.4635 26.3127 31.6537L26.4714 33.4837C26.5811 34.4153 26.7489 35.2341 27.6204 35.7633C28.3903 36.2147 29.3597 36.1014 30.2197 36.101L35.0527 36.1003C37.1113 36.0991 40.8401 35.7481 41.9549 33.7744C42.5386 32.7411 42.3733 31.4028 42.3719 30.2654C42.3714 29.758 42.4073 29.2132 42.3368 28.7111L41.6284 24.5896L41.43 24.5968Z" fill="black"/>
</svg>
