<svg width="48" height="48" viewBox="0 0 48 48" fill="none" xmlns="http://www.w3.org/2000/svg">
<path d="M29.1047 38.5971L23.9629 31.605C23.7128 31.8756 23.5182 32.2356 23.2946 32.5333L19.3172 38.0294C17.6692 40.2906 16.3411 40.5788 13.5119 40.2276C12.0803 40.0499 10.6849 39.7416 9.27258 39.455C7.28462 39.0515 5.13127 39.0684 3.98029 37.0775C3.40626 36.0847 3.45838 35.484 3.55801 34.4008L4.24999 28.3359C4.79129 25.1277 5.53262 21.9651 6.56972 18.8792L8.67207 13.6281C9.09301 12.6945 8.99776 12.4799 8.99865 11.4221C8.99888 11.1203 8.95576 10.7407 9.03596 10.449C9.45755 8.91607 10.3275 7.99807 11.9656 7.71738L35.1105 7.70393C35.4042 7.70398 35.7127 7.68588 36.0051 7.70913C37.3181 7.81348 38.4687 8.84716 38.8585 10.0781C39.1683 11.0562 38.8496 12.1398 39.0784 13.1303C39.1298 13.3527 39.3012 13.5875 39.3893 13.8045L41.0811 17.9882C41.3304 18.6783 41.6151 19.376 41.7957 20.0883L42.4523 22.3096C42.5536 22.9018 42.7658 23.4932 42.8989 24.0825L43.5518 27.2C43.9372 29.3183 44.1721 31.4677 44.3512 33.6133C44.4158 34.3873 44.5771 35.1679 44.4333 35.9396L44.3501 36.2592C43.7544 38.4464 41.9636 38.9131 40.0477 39.1991L38.9884 39.391C35.9413 39.9799 31.3018 41.5915 29.1047 38.5971ZM12.6317 9.29557C12.1218 9.30368 11.6761 9.34488 11.2501 9.65758L11.1615 9.72269C10.3686 10.3005 10.518 11.3361 10.5174 12.1866C10.5173 12.411 10.4884 12.6698 10.5198 12.8899L35.5431 12.89L36.8639 12.8921C37.063 12.8924 37.2967 12.9163 37.4918 12.8843L37.4946 11.7888C37.4934 10.5684 37.1551 9.29679 35.6955 9.29257L12.6317 9.29557ZM9.98701 14.4654C7.24876 20.5705 5.74754 26.8275 5.20815 33.4965C5.49019 33.292 5.73774 32.9628 5.9686 32.6991C8.17641 29.8551 9.11785 26.5516 9.88032 23.0717L11.5255 14.4809C11.4748 14.4382 10.1855 14.4623 9.98701 14.4654ZM13.1114 14.4686L11.9195 20.7824C11.0661 25.0482 9.52702 32.5681 5.61399 35.2612L5.05997 35.599L5.14351 35.8967C5.52863 37.2011 6.96765 37.4291 8.1053 37.6288L12.5052 38.4726C12.8047 38.5247 13.1056 38.5925 13.4082 38.6247L14.0801 38.7103C15.0152 38.901 16.4191 38.7545 17.1692 38.1517C17.3279 38.0214 17.4714 37.882 17.5978 37.7197L22.8473 30.4647C22.898 30.3948 22.9754 30.3147 22.9952 30.2309C22.5189 28.6591 22.4719 26.6846 22.474 25.0383C22.4746 24.5611 22.4564 24.0698 22.5088 23.5956C21.6641 23.0495 20.8375 22.0927 20.6289 21.0732L20.6134 20.9808L20.5788 21.0415C20.528 21.3025 20.298 21.5808 20.0392 21.6609L20.0048 21.672C19.5646 21.8068 19.1101 21.59 18.9997 21.1312C18.9302 20.8423 19.0323 20.5435 19.1062 20.2654L20.8911 14.844C20.9246 14.7322 20.9484 14.5826 21.0061 14.4829L13.1114 14.4686ZM22.6232 14.4636C22.1245 16.183 21.5956 17.7997 21.8876 19.6171L21.9957 20.1512C22.1131 20.6647 22.2586 21.2161 22.6122 21.621L23.3734 14.467L22.6232 14.4636ZM24.9249 14.4636L24.0078 24.2855L24.0004 25.498C24.0005 25.9148 23.964 26.3722 24.0399 26.7808L24.4583 29.5837C24.4661 29.6344 24.4778 29.6683 24.5085 29.71L30.3921 37.6966C31.4449 39.0133 33.0754 38.8655 34.5861 38.6169L38.8478 37.806C40.2266 37.5049 41.9781 37.5902 42.7419 36.1464L42.9635 35.6299L42.2669 35.1765C38.9415 32.5944 37.4463 27.3102 36.5997 23.4171L35.056 15.4303C35.0104 15.1433 34.9314 14.8561 34.8939 14.5687L34.8827 14.4726L27.7804 14.4779C27.7411 14.8839 27.7651 15.3119 27.7647 15.7206L27.767 18.6317C27.7757 19.6068 26.8252 19.889 26.389 19.289L26.3053 19.1472C26.2058 18.9692 26.2614 18.2025 26.2618 17.9653L26.265 15.3491C26.2649 15.0716 26.2989 14.7398 26.2533 14.4682L24.9249 14.4636ZM36.491 14.467C36.4676 14.5754 36.4996 14.6648 36.5183 14.7656L37.6 20.6417L38.728 25.6098C38.7358 25.6478 38.7465 25.6813 38.7586 25.7179L39.4231 27.8437L40.1485 29.6249C40.6169 30.8157 41.864 32.8492 42.8045 33.5471L42.3634 29.5547L42.0289 27.5624C41.6035 25.1697 41.0412 22.8041 40.3077 20.4863L38.2974 15.1362C38.206 14.9166 38.0994 14.7101 38.045 14.4769L36.491 14.467Z" fill="black"/>
</svg>
