<svg width="48" height="48" viewBox="0 0 48 48" fill="none" xmlns="http://www.w3.org/2000/svg">
<path d="M11.034 42.0509C10.6753 41.9963 10.3117 42.0028 9.95182 41.9698C7.97276 41.7884 4.3688 41.4163 3.6929 39.1499C3.09902 37.1584 3.86937 34.5389 4.20055 32.5542L6.83299 18.5294C6.97207 17.6015 7.07501 16.6634 7.11289 15.7259L7.13239 13.6222C7.13914 13.1001 7.18146 12.5241 7.25712 12.0085L8.04523 7.52298C8.09684 7.23484 8.12351 6.92073 8.20404 6.6407C8.42459 5.87368 9.50332 5.94784 9.5126 6.75385C9.51429 6.90352 9.47792 7.07809 9.45748 7.22729L8.86048 10.7925C8.75984 11.3735 8.64382 11.9484 8.59353 12.5369C8.75656 12.6427 8.94232 12.7111 9.1196 12.7895C12.0102 14.0664 15.2301 13.9799 18.3274 13.9801L32.8994 13.9755C33.088 13.9693 33.2711 13.9344 33.4588 13.9219L35.2384 13.7783C36.9636 13.5622 37.9229 13.3025 39.4294 12.5315L38.5046 6.93601C38.43 6.48399 38.6437 6.17134 39.097 6.09863C39.1998 6.11063 39.2989 6.1029 39.3967 6.14448L39.4235 6.15662C39.5644 6.21863 39.6669 6.32635 39.7348 6.46355L39.7483 6.49173C39.8933 6.76895 39.8946 7.11563 39.9526 7.41751L40.7307 11.6433C40.8659 12.4745 40.8023 13.3277 40.7935 14.165C40.7914 14.3652 40.7537 14.6281 40.8071 14.8178L41.2578 16.642C41.4544 17.2837 41.4512 18.0181 41.5572 18.6792L43.2188 28.3238C43.3782 29.092 43.5243 29.876 43.6509 30.6498L44.0219 32.7718C44.3094 34.357 44.9431 36.8703 44.6805 38.4839C44.4456 39.9272 43.7679 40.6781 42.4465 41.1855C41.2086 41.6608 39.7724 41.901 38.4458 41.9875L37.6175 42.016C36.6987 42.0594 35.7917 42.0845 34.8753 42.012L33.6916 41.9198C31.5195 41.7058 28.9663 41.0669 26.9811 40.0916C25.9841 39.6017 26.1794 39.2087 25.9557 38.1502L24.4373 30.474C23.8321 30.6421 23.9707 30.351 23.8434 30.9956L22.0338 38.9527C21.8276 39.8395 21.8239 39.876 20.915 40.2282L17.9203 41.2967C15.6171 41.9637 13.4101 42.0681 11.034 42.0509ZM8.49096 14.0087L8.17123 18.74C8.29545 18.8324 8.44521 18.8931 8.58462 18.9595L9.2621 19.2741C10.4358 19.7862 11.6588 20.181 12.9142 20.4371C13.5486 20.5666 14.1979 20.6416 14.8195 20.8254C16.6019 21.3526 18.4916 22.4571 19.9066 23.6309C20.4581 23.0578 21.0638 22.5668 21.791 22.2317C22.3264 22.0215 22.8494 21.8674 23.4282 21.8356L23.4434 15.3742L14.8396 15.3694C14.1936 15.3442 13.5462 15.2706 12.9051 15.189L10.3738 14.7181C9.75607 14.5549 9.04362 14.3449 8.49096 14.0087ZM39.4114 14.1031C37.7904 14.733 36.8029 15.0528 34.9911 15.2522L34.4019 15.296C32.5307 15.471 25.1306 15.2415 24.8184 15.393C24.7841 15.5655 24.8098 15.7556 24.81 15.932L24.8 21.9006C25.606 22.1397 25.8623 22.1814 26.6607 22.6537C27.2927 23.0872 27.3638 23.3218 27.8207 23.7311C29.3734 22.5003 30.8894 21.5716 32.7736 20.9144L38.1447 19.218C38.8172 19.014 39.4828 18.8102 40.1741 18.6773C40.0985 18.086 40.0432 17.4952 39.9253 16.9097L39.6334 15.6982C39.4822 15.1284 39.3576 14.7003 39.4114 14.1031ZM40.3264 20.0738L36.4662 21.2259C34.4122 21.8523 32.3039 22.4121 30.4544 23.5423C29.2521 24.2769 27.484 25.6763 27.0881 27.0374C26.7359 28.2483 26.7551 28.7522 25.6369 29.7011C25.7863 30.2551 25.8656 30.819 25.9732 31.3815L26.888 35.916C26.9576 36.2706 27.0208 36.6312 27.1009 36.9829L27.2764 37.8465C27.3207 38.1073 27.4695 38.7564 27.4741 38.759C28.1378 39.1257 28.8867 39.4195 29.6074 39.6578C31.7487 40.3971 33.9401 40.6182 36.1893 40.6218L38.141 40.6073C39.1284 40.5541 40.1693 40.3868 41.1219 40.14C42.8444 39.6937 43.3369 39.2606 43.3358 37.5297C43.3347 35.6564 42.8317 33.8023 42.4992 31.9683L40.6296 21.2905C40.5577 20.8989 40.5378 20.45 40.4127 20.0738H40.3264ZM7.89331 20.1909L5.50048 33.109L5.15792 34.7574C4.95973 35.8218 4.54166 38.1573 5.17587 39.0662C5.65493 39.7527 6.72532 40.0939 7.51774 40.2215L8.54314 40.4048L11.1702 40.6322C13.6294 40.7197 16.2235 40.4957 18.546 39.6231L20.4566 38.9166C20.5289 38.8893 20.6003 38.8747 20.6574 38.8208L22.6835 29.8752C21.7587 29.1286 21.2169 28.4484 20.7934 27.3235C20.5925 26.7899 20.3939 26.2792 20.0481 25.8181C18.9256 24.3216 16.293 22.6872 14.412 22.1589C13.8004 21.9871 13.1609 21.9145 12.5383 21.7922C11.2678 21.5427 9.94662 21.1362 8.76921 20.5937L8.18051 20.3139C8.09684 20.2735 7.98481 20.2005 7.89331 20.1909ZM23.3771 23.2346C22.3497 23.3459 21.5254 23.9239 20.9106 24.6434C21.2969 25.1654 21.5952 25.6867 21.8619 26.278L22.1812 27.0878C22.6766 28.2466 23.2006 28.4694 24.0605 29.1721C24.3505 28.8173 24.8142 28.5717 25.151 28.2049C25.6823 27.5049 25.5807 27.1197 25.8622 26.3594C26.0925 25.7376 26.4455 25.2514 26.8371 24.7242C26.4474 24.2069 25.9154 23.7881 25.33 23.5153C25.1691 23.4404 24.9724 23.402 24.8219 23.3171L24.8149 23.9417C24.8144 24.3741 24.7964 24.8387 24.2814 24.9409L24.2502 24.9473C23.9564 25.0024 23.5797 24.8779 23.488 24.562L23.4784 24.53C23.4346 24.3671 23.4428 24.1826 23.4409 24.0144L23.3771 23.2346Z" fill="black"/>
</svg>
