<svg width="48" height="48" viewBox="0 0 48 48" fill="none" xmlns="http://www.w3.org/2000/svg">
<path d="M32.0096 35.6282C31.1737 35.9775 30.3289 36.2704 29.5148 36.6762L28.5564 37.164C27.6084 37.6618 27.5877 37.2895 26.9719 36.4922C25.995 35.2274 24.2575 32.3925 23.9904 30.752L23.5557 32.0031C23.1394 33.0879 21.3387 36.6192 20.3239 37.3025C19.9918 37.5261 19.7787 37.3415 19.4794 37.1707L17.3641 36.1611L13.6218 34.7494C11.5114 33.9713 9.37133 33.2661 7.61802 31.8015C6.51425 30.8795 6.24997 30.3459 6.0628 28.957L5.90225 27.3154C5.88814 27.1045 5.84473 26.905 5.83152 26.6952L5.75 22.8578L5.83977 20.6345L6.31719 16.3146L7.12156 11.3788C7.19431 10.9588 7.17003 10.6967 7.59969 10.4805L40.3595 10.4892C40.5568 10.507 40.7444 10.7157 40.7793 10.9014L40.8837 11.4456C40.9285 11.6107 40.94 11.7762 40.9646 11.9447L41.6721 16.4999C41.6958 16.6516 41.6984 16.8057 41.7201 16.957L42.1042 20.7036C42.1166 20.8857 42.1585 21.0622 42.1694 21.246L42.178 26.1896L41.9276 29.3256C41.5722 32.0779 37.5104 33.598 35.2478 34.4435L32.0096 35.6282ZM8.19308 11.6079C8.13973 11.8433 8.14161 12.0977 8.11784 12.3426L8.03239 12.9896C8.53991 13.03 9.0717 13.0056 9.57308 13.0991C10.0212 13.1827 10.4998 13.1216 10.9543 13.1629C11.0857 13.1749 11.2127 13.2147 11.3439 13.2235L12.2726 13.2568C12.4288 13.269 12.5752 13.3075 12.7332 13.3163L14.7663 13.3659C15.3054 13.3813 15.6589 13.3706 16.1863 13.3632L18.7082 13.3562C19.1362 13.355 19.5553 13.4221 19.9775 13.4232L30.9142 13.4198C31.1153 13.4174 31.3145 13.3871 31.5147 13.3745L34.5954 13.3236C34.7961 13.3193 34.9918 13.273 35.1916 13.2616L36.5634 13.221C36.7833 13.2086 36.9997 13.1689 37.2196 13.1598L38.4464 13.1337C38.8146 13.1123 39.1747 13.0559 39.5451 13.0573C39.6993 13.0513 39.8538 13.0531 40.0067 13.031L39.8693 12.0655C39.8493 11.9282 39.8529 11.7247 39.7855 11.6056L8.19308 11.6079ZM7.81058 14.121L7.12869 18.832L6.98525 20.8949C6.97409 21.0769 6.93763 21.2574 6.92891 21.443L6.93411 26.084L7.09156 27.9168C7.10886 28.1705 7.09784 28.4519 7.15316 28.6996C9.78552 28.4163 12.9956 26.2248 14.5848 24.2477L14.9678 23.7548L20.7753 14.6027L7.81058 14.121ZM39.8184 14.1895C39.2272 14.2537 38.5024 14.1653 37.9411 14.2907C37.6401 14.358 37.2844 14.3351 36.9749 14.3494L35.0407 14.4242C34.7276 14.4264 34.4289 14.4936 34.1208 14.5003L28.5953 14.5087C28.1606 14.509 27.7004 14.4802 27.2702 14.5378L27.3398 14.6478C27.4262 14.7843 27.5342 14.8918 27.6364 15.0156L28.0979 15.61C28.6098 16.3053 29.0587 17.1761 29.3495 17.9972L29.908 19.215C30.5336 20.8417 31.9033 22.9941 32.9842 24.325C35.0774 26.6793 37.5114 28.5344 40.8155 28.7267L40.9464 27.8286C41.0321 27.3508 40.9761 26.8182 40.9945 26.332L41.0837 22.6636C41.0829 22.1795 41.1266 21.6231 41.0202 21.151L40.1824 14.1717C40.0796 14.176 39.9139 14.1624 39.8184 14.1895ZM25.8116 14.5663L25.019 14.5738C24.8526 14.5749 24.6826 14.5668 24.5185 14.5974C25.1602 15.3956 25.7123 15.6992 26.1256 16.7929L26.3773 17.5477C26.9673 19.2973 25.5335 19.2643 25.417 18.6079L25.3249 18.0018C25.1511 17.1364 24.5655 16.1309 23.855 15.5776L23.5086 16.2421C23.1753 16.8605 22.8281 17.503 22.6889 18.1991C22.6548 18.37 22.6483 18.5535 22.5782 18.7148C22.3918 19.144 21.3897 19.2598 21.5709 18.0286C21.7809 16.6022 22.5425 15.8073 23.0689 14.6267C22.004 14.6302 22.1758 14.7798 21.4805 15.6279C20.1986 17.1915 19.2566 18.8973 18.2936 20.6674L17.8213 21.477C15.2363 26.0054 12.4583 28.6971 7.37052 29.8691C7.64159 30.2264 7.90892 30.6012 8.25223 30.8944C10.6778 32.9655 15.8309 34.1545 18.9279 35.605L19.9024 36.1034C21.0394 34.7882 22.1261 32.6818 22.6855 31.0803L23.0514 29.9245C23.1398 29.628 23.2106 29.3235 23.3121 29.0318C23.5606 28.3175 24.3183 28.3728 24.5628 29.0155L24.8934 30.0351L25.7843 32.414C26.2317 33.3676 27.3345 35.3519 28.1288 36.0925C29.0001 35.6233 29.8998 35.2031 30.8253 34.8506L36.9611 32.5333C38.2811 31.9486 39.8553 31.1529 40.6181 29.8554C40.0777 29.779 39.5401 29.7274 39.0083 29.5972C33.8634 28.3372 30.8628 24.0081 28.7855 19.481L28.194 18.1884C27.7312 17.1526 27.2698 16.3232 26.5339 15.4436C26.2935 15.1564 26.0399 14.8887 25.8315 14.5757L25.8116 14.5663Z" fill="black"/>
</svg>
