<svg width="48" height="48" viewBox="0 0 48 48" fill="none" xmlns="http://www.w3.org/2000/svg">
<path d="M26.755 38.2556L23.9971 29.2939C23.8836 29.6152 23.8061 29.9414 23.7172 30.2694L20.7477 39.7851C20.1037 41.8403 19.694 42.4935 17.5144 42.4961C16.6387 42.4972 15.7887 42.4268 14.9297 42.2509L11.0158 41.444L8.37301 41.1597C7.91907 41.1286 7.40795 41.1664 6.96442 41.0766C6.40928 40.9642 5.79779 41.1225 5.2426 41.019C4.54925 40.8898 3.7699 40.3728 3.66042 39.6205C3.59272 39.1552 3.65464 38.6318 3.65812 38.1601L3.66447 36.958C3.66576 36.3176 3.73438 35.6852 3.76992 35.039L4.4336 29.4843C4.67329 28.0927 4.98029 26.7149 5.43174 25.3751L6.2941 23.0868C6.82749 21.5774 7.06618 20.0416 7.2466 18.4575L7.43424 16.9806C7.67274 14.9996 8.06992 13.0791 8.42743 11.1217C8.54129 10.4984 8.52465 10.255 8.52517 9.60633L8.52615 6.87188C8.52296 6.07866 8.73395 5.98899 9.55389 5.89978L13.3119 5.49764C15.3126 5.41167 17.3037 5.62594 19.2774 5.93147L21.5508 6.2806L24.8657 6.56892L29.3083 6.57839C29.6733 6.57108 30.0233 6.52017 30.3853 6.49739L34.1363 6.17597L38.5313 5.56181C38.8533 5.52849 39.1966 5.53153 39.3774 5.85858L39.3922 5.88661C39.5125 6.1042 39.4821 6.3067 39.4822 6.5497L39.4964 10.327C39.5047 11.3411 39.4691 12.1493 39.8594 13.1288C40.2568 14.1264 40.2777 15.2198 40.4259 16.2666L41.1507 21.1005C41.2627 21.6752 41.4442 22.2203 41.6027 22.7812L42.5785 25.4308C42.6407 25.578 42.6926 25.7559 42.7324 25.9101L43.046 27.0534C43.1246 27.282 43.1653 27.5373 43.219 27.7733L43.5002 29.1562L44.0039 32.6678L44.1684 34.8597C44.1809 35.0438 44.2174 35.2247 44.2278 35.4101L44.3395 38.7489C44.3484 40.8664 43.3815 40.9965 41.4727 41.0571C41.2637 41.0637 41.0727 41.1166 40.8652 41.1292C40.1054 41.1751 39.362 41.1829 38.5946 41.2612L36.349 41.5429C34.2782 41.8739 32.796 42.511 30.56 42.5004C28.8147 42.4921 27.9919 42.0548 27.4692 40.4384L26.755 38.2556ZM13.8491 6.97781L9.94135 7.29333L9.93531 8.51067C9.93531 8.65894 9.90615 8.88886 9.95218 9.02705C10.4347 9.30727 12.3415 9.53189 12.8812 9.56391L15.1322 9.63347C16.451 9.62822 16.9028 9.60736 18.1992 9.84244L19.9053 10.1154C22.8314 10.5017 25.7567 10.5114 28.6672 10.0169L30.6281 9.68344C31.8605 9.53433 33.1086 9.5835 34.3477 9.58388C35.2214 9.55842 37.2602 9.44316 38.0608 9.15525L38.0611 7.84678C38.0611 7.60852 38.0779 7.35549 38.0523 7.1191L34.1295 7.66425L29.8125 8.03784C27.6384 8.1967 25.4321 8.12503 23.2608 7.94269L19.4063 7.46119C18.3239 7.29863 17.2508 7.10499 16.1584 7.01513C15.3956 6.95236 14.6141 6.97617 13.8491 6.97781ZM9.89237 10.5234L9.80663 12.0501C11.4263 12.5075 12.9527 13.8249 13.7673 15.2833L14.4739 17.0644C14.6915 17.756 14.6925 18.5035 14.6927 19.2202C14.6934 21.7565 13.392 23.9974 12.4805 26.2956C11.9479 27.6384 11.5232 29.0493 11.1566 30.4452L10.93 31.4183C10.6105 32.7616 10.3115 34.1147 10.1268 35.4843L9.92875 37.9224C9.9204 38.9833 8.98515 39.4196 8.56164 38.6662C8.35318 38.2954 8.49053 37.6583 8.52371 37.2538L8.56229 36.6093C8.74178 34.5869 9.15549 32.5803 9.65303 30.614L10.1141 28.8627C10.4913 27.668 10.8428 26.4714 11.3217 25.3117C11.7617 24.2463 12.302 23.2177 12.6998 22.1366C13.9979 18.6086 13.1718 14.9165 9.45962 13.4701L8.91137 16.7526L8.53918 19.7371C8.35393 21.0421 8.09621 22.2972 7.65235 23.5444L6.47007 26.8593C5.71074 29.6755 5.39321 32.5614 5.15804 35.4608L5.11389 36.6998C5.10428 36.8203 5.07924 36.9388 5.07404 37.0594L5.06204 38.7228C5.05801 39.0202 4.90782 39.5381 5.42856 39.574C6.0969 39.6202 6.78742 39.6158 7.48374 39.6598L8.33415 39.6846C8.53834 39.6956 8.73826 39.7324 8.94142 39.7484L10.3687 39.8817C11.1815 39.9942 12.001 40.0912 12.8044 40.2612L15.456 40.8682C16.3397 41.025 17.3591 41.115 18.2578 41.0044L18.2831 41.0015C18.8894 40.9283 18.9699 40.5962 19.1393 40.0955L23.0765 27.3211C23.1696 26.9847 23.2165 26.5778 23.3876 26.2714C23.6367 25.8252 24.336 25.7242 24.5648 26.2499C24.6503 26.4464 24.7105 26.6304 24.7675 26.8358L25.49 29.3101C25.6336 29.7954 25.7345 30.3069 25.9133 30.7808L28.8871 40.1765C29.101 40.833 29.33 40.9367 29.9766 41.0101C32.1541 41.2574 34.1789 40.3818 36.29 40.0581C37.6523 39.8491 39.0471 39.7205 40.4239 39.6624L42.2628 39.5782C43.1182 39.5729 42.9703 39.2737 42.9593 38.6249C42.9424 37.6302 42.9246 36.5881 42.8349 35.5983L42.4654 31.7614L41.8232 28.0127C41.6049 27.108 41.3633 26.208 41.0462 25.3321L40.4882 23.9775C39.5958 21.6415 39.4465 19.1052 39.1305 16.6474C38.9959 15.601 38.9117 14.4604 38.5457 13.4641C37.1092 13.9682 35.9088 15.059 35.2508 16.4296C34.567 17.8536 34.5672 20.0818 35.101 21.5819L35.2987 22.1718C35.4462 22.5529 35.5898 22.9269 35.7661 23.2968L36.5921 25.1444L37.6994 28.3006C37.712 28.3485 37.7043 28.3227 37.721 28.3671L38.6619 32.0177C38.776 32.4229 38.8171 32.8481 38.9068 33.2577C39.202 34.6048 39.3486 35.9987 39.4803 37.3715C39.5113 37.6947 39.5788 38.0436 39.5549 38.3693C39.5103 38.9768 38.8607 39.2163 38.4007 38.8668C37.984 38.5504 38.0487 37.0155 37.9677 36.3628C37.603 33.4242 36.9541 30.4843 36.0062 27.6776L34.8755 24.7733C34.2654 23.3797 33.6402 22.0369 33.4094 20.5197C33.2673 19.5863 33.2378 18.5529 33.3976 17.6198C33.8276 15.1101 35.7383 12.7539 38.2283 12.0513L38.2223 12.0317C38.1024 11.6089 38.1767 11.0651 38.1316 10.6219L25.4401 11.8948C25.7171 12.3517 26.0548 12.7765 26.352 13.2212L27.2367 14.6479C27.466 15.009 27.7242 15.3795 27.9082 15.7652C28.2134 16.4049 27.2055 17.1358 26.7155 16.5087C26.4797 16.2069 26.2988 15.8481 26.0912 15.526L24.7057 13.3504L24.7074 16.0313C24.7073 16.5835 24.8379 17.5693 23.9281 17.532C23.4077 17.5106 23.27 16.9901 23.2688 16.5739L23.2457 13.4548C23.1999 13.5635 23.1259 13.6301 23.0662 13.7292L21.7166 15.8734C21.4494 16.3155 21.1558 16.958 20.5143 16.7021C20.0943 16.5346 19.9349 16.0625 20.1436 15.6696C20.6234 14.7665 21.9736 12.6211 22.7123 11.8631L19.0082 11.4947L17.6333 11.2348C17.0247 11.107 16.663 11.0518 16.045 11.0882L15.3339 11.1053C14.4226 11.1112 13.4902 11.1143 12.5824 11.0333L11.4029 10.8776C10.9026 10.8031 10.3642 10.7086 9.89237 10.5234Z" fill="black"/>
</svg>
