<svg width="48" height="48" viewBox="0 0 48 48" fill="none" xmlns="http://www.w3.org/2000/svg">
<path d="M38.209 12.4827L34.4832 13.3696L31.582 13.754L27.0351 14.0545L22.3929 14.0604C21.9234 14.058 21.4327 14.0651 20.9673 13.9968C20.491 13.927 19.9735 13.9751 19.4904 13.9536L16.8364 13.7495C15.8973 13.6656 14.9391 13.564 14.0106 13.4013L9.28203 12.2352C9.10461 12.962 9.00097 13.704 8.87656 14.4409L8.62105 15.9155C8.51 16.7806 8.45155 17.6439 8.29916 18.5043C8.07069 19.7947 7.70802 21.0554 7.32097 22.3055L11.2031 23.2542C11.592 23.3605 11.9784 23.5106 12.3563 23.6517C15.6568 24.8844 17.3637 26.4635 19.2348 29.2905C20.1905 30.7344 21.4714 32.276 23.217 32.751C23.3519 32.7877 23.4595 32.879 23.5268 32.9998L23.5447 33.0333C23.7148 33.3451 23.5138 33.9409 23.4599 34.2678L22.7897 37.7075C22.5854 38.662 22.3516 38.8818 21.3513 39.1561C17.9349 40.0929 11.177 39.06 7.8867 38.252C6.72134 37.9659 5.55416 37.6462 4.42967 37.2249C3.44128 36.8545 3.26573 36.9625 3.265 35.9178L3.26529 34.8444C3.26606 34.1161 3.23112 33.3669 3.27764 32.6417L3.40232 31.2292C3.66725 28.7782 4.43185 26.4468 5.20981 24.1192L6.14844 21.3093C6.57617 19.9893 6.94747 18.6377 7.11313 17.2566C7.1698 16.7845 7.16539 16.3039 7.22952 15.83L8.55955 8.54186C8.66347 8.10363 8.72966 7.7335 9.20356 7.59663C9.62328 7.58425 10.0742 7.69923 10.488 7.76997L16.3945 8.43114L17.3996 8.47614C17.565 8.48711 17.729 8.52428 17.8945 8.53248L18.8356 8.55761C19.0529 8.56858 19.2652 8.61175 19.4838 8.61789L28.3841 8.61925L30.4044 8.53666C30.5649 8.52888 30.7146 8.49588 30.8732 8.48261L32.096 8.39392C34.1935 8.22859 36.2802 8.00763 38.3542 7.64617C38.5138 7.61838 38.7733 7.57783 38.9272 7.64444L39.0971 7.72919C39.3615 7.90483 39.3958 8.35877 39.4697 8.63716L39.7021 9.65669C39.7238 9.76098 39.727 9.86969 39.7504 9.97309L40.6555 15.0756C40.7704 15.7555 40.8068 16.356 40.8798 17.0247L41.0515 18.2155C41.1934 19.5615 41.8227 21.1762 42.2415 22.4532C42.3255 22.7094 42.3888 23.0012 42.494 23.2463L43.5761 26.5551L44.2969 29.4145C44.452 30.1109 44.5325 30.8192 44.5456 31.5309C44.5484 31.6776 44.5466 31.8392 44.5918 31.9799L44.6263 32.0864C44.7292 32.3766 44.7632 32.7235 44.778 33.029L44.7868 35.9192C44.7862 36.103 44.7965 36.3084 44.7485 36.4868L44.7402 36.5161C44.6236 36.9436 44.1395 37.0709 43.7707 37.2153L41.1254 38.1215C37.6946 39.1659 34.801 39.4928 31.2656 39.4951L29.1171 39.4718C28.1419 39.4164 26.4601 39.2673 25.6714 38.7182C25.2014 38.3911 25.2236 37.7683 25.1188 37.2562L24.4921 33.7153C24.3726 32.9903 24.5004 32.8547 25.133 32.6337C26.6777 32.0941 27.7711 30.7796 28.6691 29.4696L29.657 27.9965C32.1679 24.5416 36.6076 22.9269 40.71 22.2795C40.2851 20.9785 39.9116 19.6117 39.6841 18.261L39.3805 15.8772L38.8049 12.333L38.209 12.4827ZM9.8473 9.08495L9.49817 10.8652C10.0801 11.0897 10.7159 11.2393 11.3225 11.3829C13.8083 11.9713 15.8325 12.2791 18.3994 12.4702L19.7812 12.5693C20.4756 12.5899 21.1632 12.6263 21.8533 12.6438L27.4395 12.59C28.2941 12.5506 29.1076 12.5238 29.9648 12.4589L31.9958 12.27L35.1914 11.7853L37.6279 11.1767C37.9358 11.1005 38.261 11.0245 38.5549 10.905L38.1936 9.08725C37.6007 9.1412 37.0109 9.2612 36.4219 9.34689L34.2879 9.62341L28.9219 10.0292L19.6438 10.0442C19.2599 10.0333 18.8745 9.96897 18.4893 9.94722L15.8061 9.80055L9.8473 9.08495ZM6.87673 23.6025C6.48767 24.5659 6.15781 25.5757 5.87108 26.5742L5.34538 28.3481C5.11691 29.2263 4.78297 30.6954 4.77795 31.6128C5.31177 31.9199 5.98822 32.0597 6.57125 32.2625C9.08792 33.1379 11.6961 33.6973 14.3439 33.9655L16.2123 34.122L19.5881 34.0373L21.8059 33.693C20.3033 32.9117 19.2343 31.7446 18.2816 30.352L17.294 28.8964C15.1287 26.0034 12.3786 24.8905 8.91228 24.0985L7.68725 23.8144C7.44223 23.7588 7.09733 23.7183 6.87673 23.6025ZM41.0756 23.6307C36.7107 24.4775 32.9506 25.5769 30.3027 29.4903L29.3166 30.9602C28.4987 32.0804 27.5879 32.9577 26.381 33.6456C27.1451 33.7707 27.8602 34.004 28.6461 34.0497C28.9123 34.0654 29.1767 34.1122 29.442 34.1228L33.0117 34.0552C35.3928 33.8884 37.6641 33.4289 39.947 32.7278L42.75 31.7803C42.9059 31.7214 43.0609 31.6455 43.2209 31.5995C42.9965 29.2487 42.2795 27.0212 41.5518 24.7869L41.3182 24.0416C41.2773 23.9062 41.2455 23.7434 41.168 23.6242L41.0756 23.6307ZM43.3495 33.0122C43.0851 33.1421 42.8115 33.2269 42.5398 33.3283L40.4668 34.0266C38.1273 34.748 35.7945 35.261 33.3533 35.4465L30.9841 35.5255C29.1078 35.5268 27.8747 35.3992 26.0858 35.0057L26.5406 37.2637L26.636 37.6883C27.8742 38.1452 29.2476 38.0942 30.5431 38.0922L33.1023 38.0779C35.8706 37.9492 38.9855 37.3689 41.6067 36.4988L43.0819 35.9834C43.1644 35.9515 43.2563 35.9403 43.3356 35.9055L43.3817 35.8809L43.3495 33.0122ZM4.62373 33.0396L4.61014 35.815C4.93156 35.9758 5.32991 36.0606 5.6728 36.1811C7.86359 36.9518 10.176 37.3901 12.4672 37.72L15.1619 38.0153C15.3255 38.028 15.484 38.0578 15.6496 38.067L17.5924 38.0965C18.7506 38.1091 20.0935 38.1329 21.2107 37.7692L21.3615 37.7053L21.4601 37.279L21.9052 35.0794C21.0215 35.3036 19.8697 35.4662 18.941 35.5138L15.8788 35.5158C11.8234 35.3485 8.38986 34.3615 4.62373 33.0396Z" fill="black"/>
</svg>
