<svg width="48" height="48" viewBox="0 0 48 48" fill="none" xmlns="http://www.w3.org/2000/svg">
<path d="M36.4746 38.8502C35.7669 38.9714 35.0466 38.9796 34.3315 38.9799L33.0499 38.9758C29.8327 38.8641 27.2066 37.3188 25.0446 35.0144C24.2859 35.1597 23.8467 35.2028 23.0617 34.9764C22.8438 34.9136 22.799 35.1008 22.6629 35.2491L21.9591 35.984C19.6156 38.2662 17.005 38.9815 13.8535 38.9798L12.8373 38.9739C8.4512 38.7792 4.71081 36.9329 3.93522 32.3784C3.8125 31.6578 3.8281 30.4113 3.87218 29.6585C4.07519 26.1919 5.08548 21.9613 6.35331 18.7964C6.54517 18.3174 6.70872 17.816 6.9549 17.3623C6.94342 17.282 6.80814 17.1537 6.76314 17.0721C6.50908 16.6115 6.45194 16.1004 6.44936 15.5854L6.4465 14.6553C6.44598 14.3008 6.39911 13.8659 6.48344 13.5239C6.78587 12.2976 7.70069 11.3382 9.01178 11.236C9.17992 11.2048 9.43089 11.218 9.59903 11.2431L9.6445 11.2502C9.8403 11.2791 10.0235 11.3667 10.2091 11.4327L10.9677 11.6796C11.8813 11.9497 12.8395 12.1595 13.7812 12.3006L19.0015 12.8544L20.2555 12.8815C20.4677 12.8894 20.6737 12.9336 20.8847 12.9398L26.8408 12.9449L30.7553 12.6898L34.81 12.1914C35.6406 12.0514 36.482 11.8263 37.2888 11.5856L37.8953 11.3935C39.4316 10.8471 41.0752 11.8047 41.4761 13.3468C41.6133 13.8747 41.5996 14.4682 41.6014 15.0078C41.6045 15.878 41.6288 16.572 41.0727 17.3137L42.3583 20.8972L42.9208 22.8015C42.9852 23.1317 43.0885 23.4732 43.1733 23.8003L43.6464 26.0285L44.1035 29.3368C44.2119 30.0369 44.1448 31.6495 44.0519 32.3621C43.6626 35.3502 41.6273 37.4208 38.8367 38.3337C38.0772 38.5821 37.2639 38.7307 36.4746 38.8502ZM9.02837 12.9193L8.73189 13.0478C8.06523 13.4048 8.07545 13.9946 8.0755 14.6506C8.07559 16.6177 8.14164 16.7252 10.1382 17.357L11.2734 17.7186C12.1946 17.9668 13.147 18.2061 14.0859 18.3738L18.1127 18.9331L22.4326 19.2564C22.1292 19.1127 21.868 18.8875 21.5319 18.814C21.341 18.7723 21.1385 18.7683 20.9516 18.7109C19.8979 18.3878 19.8066 16.5457 21.6211 17.0621C22.0944 17.1968 22.5692 17.3408 22.9891 17.607L23.3499 17.876C23.8316 18.2922 24.1325 18.7946 24.5268 19.2721C25.884 17.2995 27.3421 16.9163 29.5839 16.9176C29.9615 16.9178 30.3109 16.8826 30.5717 17.2171L30.5937 17.2447C30.7596 17.4553 30.897 17.7717 30.7787 18.0347L30.7615 18.0736C30.6519 18.3153 30.4955 18.5081 30.2393 18.6013L30.186 18.6202C30.0395 18.6692 29.8416 18.6514 29.688 18.6514C28.6205 18.6516 27.4634 18.6626 26.5844 19.3379L29.5603 19.1425C30.0081 19.1078 30.4521 19.0226 30.8973 18.9658L33.2715 18.5971C33.9966 18.4669 34.7228 18.3369 35.4361 18.149L37.5544 17.4929C39.6821 16.7957 39.9213 16.71 39.917 14.6155C39.9157 13.9847 39.9384 13.4468 39.3047 13.0803L39.2819 13.0669C38.9656 12.8882 38.7171 12.9338 38.3906 13.0329L36.6914 13.5482C34.8002 14.0232 32.8641 14.2744 30.9259 14.4454L27.9023 14.612C27.7204 14.6185 27.5424 14.6586 27.3578 14.6634L20.4609 14.6652C20.2801 14.659 20.0993 14.6222 19.9174 14.6149L18.6765 14.5952L14.7422 14.2119C13.4839 14.0262 12.216 13.7934 10.9851 13.4713L9.92406 13.1455C9.62214 13.0396 9.3558 12.8771 9.02837 12.9193ZM8.29126 18.5273L6.94769 22.1812C6.64951 23.1296 6.45222 24.11 6.24639 25.0809L5.90781 26.7651L5.58625 29.432C5.52264 30.1505 5.46555 30.8632 5.50469 31.5864C5.74473 36.025 10.0853 37.2234 13.7752 37.2612C16.625 37.2905 19.0325 36.58 21.063 34.467C21.1877 34.3373 21.3722 34.1927 21.4742 34.0509L21.485 34.0288C20.4151 33.0039 19.2654 31.5556 19.2347 29.9878L19.2303 29.0313C19.2321 27.7211 20.1243 26.4102 21.4499 26.1822C21.9775 26.0914 22.265 26.1163 22.7226 25.804C23.5663 25.228 23.8091 24.1846 23.8103 23.2212L23.8106 22.2872C23.8106 21.8952 23.8475 21.4635 23.8035 21.0756L22.5117 21.0558L20.7538 20.9733C20.6143 20.9652 20.4785 20.9351 20.3395 20.9228L14.8711 20.3079L11.5329 19.6286C10.8381 21.2326 10.3596 22.9253 9.82004 24.5855C9.45184 25.7183 8.99237 26.8025 8.78148 27.9816C8.74319 28.1956 8.79076 28.4862 8.791 28.7098L8.79114 31.335C8.79259 32.4719 9.88492 33.1967 10.9246 33.3563C11.3559 33.4226 12.0632 33.2855 12.4163 33.3948C13.169 33.6277 13.2291 34.5991 12.5636 34.9637C12.0479 35.2462 10.3477 34.9957 9.82956 34.8305C8.80276 34.5029 7.97439 33.7979 7.48937 32.8363C7.25326 32.3682 7.14447 31.8292 7.14269 31.3108L7.14053 30.3573C7.13931 29.9599 7.08972 29.532 7.15112 29.1396C7.26076 28.439 7.53615 27.7581 7.70284 27.0672L9.2463 21.0581L9.94619 19.1361L8.29126 18.5273ZM39.6611 18.5503L38.6601 18.9382C37.999 19.1757 38.0867 18.9638 38.2699 19.5933L39.6783 23.9644L40.0097 25.1187C40.4707 26.9328 41.1467 30.1776 40.9227 32.043C40.8217 32.8844 40.2419 33.8234 39.5976 34.3524C38.7419 35.0551 37.8591 34.3859 38.1274 33.6323L38.1414 33.592C38.24 33.3177 38.4534 33.168 38.6487 32.9652C39.5658 32.0128 39.3088 30.7017 39.1333 29.5209L38.9022 27.8752C38.6345 26.439 38.29 24.9921 37.863 23.5946L36.519 19.6482C34.4812 20.3392 31.3576 20.7463 29.2533 20.9136L26.7344 21.0686C26.348 21.0747 25.9247 21.0333 25.5436 21.0802C25.4971 21.26 25.5109 21.4533 25.5103 21.6379L25.5091 22.4409C25.5079 23.4466 25.5239 24.447 25.1362 25.3892C24.5599 26.657 23.4849 27.6085 22.0885 27.804C21.9532 27.8229 21.7983 27.8194 21.6688 27.861C20.5771 28.2121 20.7956 30.0548 21.1439 30.8667C21.6922 32.145 22.9745 33.4109 24.4539 33.3993C25.7141 33.3893 25.4618 32.8907 26.4032 34.0022C28.3451 36.2951 31.0131 37.2639 33.9299 37.2644C37.3264 37.265 41.4361 36.4579 42.3212 32.6319C42.4749 31.9673 42.4923 31.5218 42.4922 30.8314L42.2828 28.0013L42.0315 26.5301C41.6206 24.1637 40.7841 20.7728 39.7148 18.5631L39.6611 18.5503Z" fill="black"/>
</svg>
