<svg width="48" height="48" viewBox="0 0 48 48" fill="none" xmlns="http://www.w3.org/2000/svg">
<path d="M32.4724 36.1519L29.5761 37.0002L28.3995 37.2327C27.1698 37.4775 26.9821 37.4926 26.6755 36.2861L25.9296 33.7228C25.4921 32.2325 25.1088 30.651 24.0275 29.4732C23.4494 30.0657 22.8085 31.1664 22.6041 31.9333L21.4912 36.4351C21.4598 36.5823 21.4542 36.7383 21.3869 36.8759L21.3734 36.9022C21.2781 37.0926 21.0858 37.248 20.8904 37.3299L20.8598 37.3422C20.2956 37.5758 16.4632 36.5003 15.7849 36.2804L13.8623 35.6207C11.4843 34.7119 9.19748 33.5766 6.91162 32.4611L5.76539 31.8979C4.64479 31.3654 4.61179 31.4574 4.61133 30.0962L4.61611 28.7681C4.6242 28.5972 4.65623 28.4291 4.66882 28.2583L4.80609 26.6835C4.91986 25.784 5.11373 24.8753 5.31 23.9902C6.19861 19.9833 7.43831 17.0502 10.4969 14.2577L8.55946 14.025C8.31318 13.9582 8.10337 13.7595 7.98103 13.5407L7.9612 13.5043C7.83956 13.2888 7.88128 13.0733 7.88114 12.8344L7.88442 10.2402C7.8847 9.93314 7.80515 9.44273 7.95768 9.16401L7.96945 9.14306C8.11181 8.88281 8.27559 8.75948 8.55468 8.67389C8.85028 8.65894 8.964 8.72751 9.21539 8.871L9.54993 9.04083C11.4436 9.97176 13.5245 10.4623 15.6091 10.7178L17.6866 10.9635L21.9714 11.252L26.0623 11.2554L29.6979 11.0543C32.1316 10.8165 34.2955 10.6074 36.624 9.81056L38.0037 9.27975C38.364 9.1259 38.7439 8.92978 39.1267 8.84278C39.5346 8.75001 40.0432 9.12262 40.101 9.53972C40.1351 9.78544 40.1115 10.0643 40.1117 10.3134L40.1082 13.0578C40.1052 13.6856 40.0462 14.1512 39.2367 14.1558L38.6491 14.1638C38.3981 14.1791 38.1502 14.2243 37.9007 14.2534L38.7215 15.247C40.193 17.0951 41.3574 19.1054 42.0403 21.3735L42.5037 23.0895C42.7183 23.8781 42.9089 25.0047 43.031 25.8046C43.2811 27.444 43.5723 29.3409 43.3765 30.9955L43.372 31.0312C43.3288 31.4884 42.6913 31.6952 42.3387 31.8574L41.2333 32.3745C38.377 33.7725 35.4807 35.1127 32.4724 36.1519ZM9.42168 10.6472L9.42314 11.9747C9.42159 12.5833 9.25959 12.5471 9.78468 12.6034L12.9607 13.0552L16.113 13.6869L19.9258 14.2408L21.7717 14.3807C21.9698 14.394 22.164 14.4339 22.362 14.4433L25.1987 14.4492L30.9841 13.8712L36.8313 12.8329C37.3849 12.7455 37.9927 12.5976 38.553 12.5976L38.5686 12.4191L38.5317 10.765C38.4391 10.8326 38.2789 10.8589 38.1677 10.8998L37.003 11.3212C35.6061 11.8029 34.2352 12.0859 32.7727 12.3L29.2531 12.6621C28.9798 12.6791 28.707 12.7296 28.4348 12.74L20.4097 12.7403C20.2116 12.7329 20.0177 12.6956 19.8204 12.6791L16.6873 12.4437L13.5466 11.9754C12.5718 11.7838 10.2846 11.2045 9.42168 10.6472ZM36.0543 14.5194L26.6304 15.8707L27.2932 17.9413C27.4386 18.6216 27.7602 19.4652 27.5974 20.1488L27.5894 20.1841C27.21 21.8127 25.0666 22.2492 24.1287 20.8334L24.0444 20.712C23.9556 20.7437 23.7863 20.9975 23.7077 21.0764C22.6599 22.1279 20.9368 21.7356 20.4504 20.3525C20.1222 19.4192 20.6152 17.7243 20.925 16.8029L21.1191 16.2781C21.1682 16.1584 21.2367 16.0197 21.2537 15.8917C20.9508 15.8419 20.6422 15.8326 20.3371 15.8031L18.6209 15.6169C16.7437 15.3891 14.8867 15.0804 13.0414 14.6626C12.971 14.6467 12.6001 14.5434 12.5602 14.572C9.82992 16.5256 7.81218 19.7276 7.149 22.9946L8.81784 23.5524C10.1283 24.0704 11.439 24.5992 12.6605 25.3074C13.4573 25.7693 14.1717 26.3529 14.952 26.8388C17.2303 28.2573 19.8127 28.9608 22.4843 28.943C22.5549 28.8844 22.5951 28.7741 22.6527 28.6991L23.0725 28.1799C23.9962 27.0429 24.323 27.4765 25.1214 28.4062L25.5615 28.9027C25.7414 28.949 26.612 28.9376 26.7968 28.9248C30.5908 28.6615 32.3636 27.0961 35.2849 25.2024C36.6841 24.2955 38.3219 23.6558 39.9319 23.2609C40.2438 23.1844 40.5938 23.178 40.8959 23.0655L40.439 21.4491C39.8347 19.6492 38.9068 18.023 37.7527 16.5239L36.0543 14.5194ZM24.8313 16.0897C24.6069 16.4516 24.7223 17.4622 24.7226 17.9015C24.7229 18.2065 24.6751 18.618 24.7525 18.9098C24.8645 19.3321 25.3753 20.4231 25.9454 20.0505C26.275 19.7301 26.0117 19.1554 25.9184 18.7733C25.7774 18.1959 25.3625 16.5306 24.9273 16.1217L24.8313 16.0897ZM23.003 16.1366C22.5294 16.3324 21.7391 19.4536 21.9217 19.9101C21.9587 20.0025 22.0582 20.0808 22.1363 20.1383C22.7849 20.2992 23.1833 19.0834 23.1934 18.5131L23.1996 17.8371C23.2033 17.2816 23.2305 16.7142 23.1999 16.1601L23.003 16.1366ZM6.76767 24.5048C6.57759 25.1394 6.49073 25.8046 6.39084 26.458C6.65868 26.6763 6.9854 26.8365 7.28625 27.0058L13.1816 30.0601C15.3496 31.0449 17.0883 31.5988 19.3719 32.1177L20.1912 32.2872C20.3856 32.3256 20.6649 32.4092 20.8621 32.391L20.9477 32.1154L21.5221 30.4855C19.2114 30.4457 16.6446 29.649 14.6413 28.461C13.0463 27.5152 11.8927 26.52 10.1372 25.7695L8.93198 25.2948C8.21418 25.0054 7.51973 24.7001 6.76767 24.5048ZM41.0844 24.6653C38.3677 25.0547 36.9238 25.9907 34.7943 27.4442C32.719 28.8607 30.4344 30.0861 27.9003 30.3779L27.1878 30.4371C26.971 30.4451 26.7476 30.4375 26.5336 30.4749L26.7481 31.1201C26.9016 31.5201 27.0009 31.9365 27.153 32.3319L27.1755 32.406C28.1137 32.2954 29.0465 32.0812 29.9576 31.8361L31.9455 31.2346C32.8107 30.9317 33.6529 30.5632 34.488 30.187L40.9533 26.9021C41.1742 26.7829 41.3868 26.6381 41.6104 26.5271L41.247 24.6679C41.1906 24.6612 41.1411 24.6607 41.0844 24.6653ZM6.1964 28.1486C6.13495 28.4299 6.07275 29.9979 6.11489 30.3061C6.40293 30.4889 6.73514 30.6252 7.04137 30.7767L12.0565 33.1768C14.2639 34.152 16.5378 34.9399 18.8904 35.4795L19.7994 35.6601C19.8808 35.6758 19.9713 35.7121 20.0538 35.7077L20.1159 35.4553L20.4872 33.8982L19.0041 33.6257C16.1049 33.0179 13.5871 32.0046 10.9359 30.679L6.1964 28.1486ZM41.7738 28.2538C41.2677 28.4642 40.7962 28.7499 40.3259 29.0083L35.9591 31.2112L33.692 32.2289C32.4084 32.7401 31.0999 33.1886 29.7526 33.5033L28.406 33.7984C27.6789 33.9371 27.4852 33.7021 27.7877 34.4838L28.0504 35.3953L28.155 35.7288L30.2006 35.2249C32.9107 34.5066 35.5582 33.3473 38.0797 32.1435L41.8337 30.3391C41.864 30.3257 41.8542 30.3294 41.881 30.2989L41.8528 28.7614C41.8459 28.6102 41.8673 28.3945 41.8114 28.2546L41.7738 28.2538Z" fill="black"/>
</svg>
