<svg width="48" height="48" viewBox="0 0 48 48" fill="none" xmlns="http://www.w3.org/2000/svg">
<path d="M17.4199 37.5047C15.7211 37.5189 13.9427 37.1271 12.3444 36.5934C10.8115 36.0816 9.21896 35.2904 7.58199 35.83C6.71354 36.1163 6.41551 36.1332 5.85756 35.2465C5.19198 34.1887 4.90988 32.8016 5.20131 31.5721C5.43756 30.5755 5.55413 29.5417 5.74768 28.5355L6.93352 21.8264L7.46073 19.4553L8.63377 15.9438C8.95196 15.1553 9.37707 14.53 9.3849 13.6532L9.39104 12.8203C9.40013 11.8593 9.59645 10.5035 10.8119 10.5084L11.4342 10.5099C13.0704 10.5158 14.1235 11.0249 15.668 11.4079C18.6356 12.1439 20.6003 12.2735 23.5172 11.6043C24.7877 11.3128 25.1359 11.1548 26.4431 11.1541L29.6529 11.1418C29.8982 11.1317 30.1375 11.0888 30.3841 11.0826L31.2331 11.0734C31.5621 11.0687 31.8722 11.0144 32.1992 10.9942L36.1273 10.6079C36.4912 10.5535 36.8485 10.5213 37.208 10.4332C37.357 10.4214 37.4863 10.4199 37.6252 10.4805L37.6641 10.4984C38.3766 10.8214 38.4781 11.981 38.5315 12.6566L38.5823 13.1495C38.6031 13.4977 38.5821 13.9967 38.7392 14.3197L39.9178 17.4379C39.9544 17.572 39.9989 17.7106 40.0456 17.8412L40.5779 19.6762L42.0823 27.6215C42.1158 27.8842 42.195 28.1575 42.2399 28.4202L42.668 30.7841C43.0096 32.4218 43.1048 33.8494 42.1064 35.2979C41.4304 36.2786 41.2589 36.0408 40.4347 35.7736C38.6809 35.2051 36.7437 36.2057 35.1158 36.7372C32.6002 37.5586 29.0507 37.7921 26.4487 37.1806C25.9082 37.0536 25.8035 36.7396 25.6813 36.2527L24.2082 30.0189C24.1857 29.8863 24.1767 29.6694 24.0977 29.5598C23.9863 29.4052 23.8544 29.5298 23.8232 29.7003L22.4068 36.0355C22.332 36.3608 22.3298 36.7055 22.0689 36.9497C21.5666 37.42 19.3044 37.4982 18.5147 37.5015L17.4199 37.5047ZM10.9959 12.0042C10.8112 12.5778 10.8843 13.2262 10.8304 13.833L17.2734 14.4374L22.1201 14.5042L24.1343 14.3912L31.7344 14.3603C31.9185 14.3523 32.0919 14.308 32.2739 14.2934L36.0264 14.0188C36.4084 13.9842 36.7874 13.9576 37.1659 13.8913L37.1356 13.1996C37.0923 12.7872 37.0377 12.3652 36.9301 11.9648C36.3326 12.1801 35.6372 12.2068 35.0105 12.2851L33.7551 12.448L31.0791 12.5529C30.514 12.5785 30.0442 12.6562 29.4474 12.6599L26.8847 12.6627C25.4068 12.6626 25.1903 12.7491 23.7352 13.119C21.922 13.5801 20.035 13.6485 18.1875 13.4095L16.0822 13.0531L14.4273 12.6138C13.7395 12.3967 11.6982 11.822 10.9959 12.0042ZM10.5329 15.3048C9.85913 16.6732 9.31482 18.1612 8.92909 19.6362L8.4002 22.0997C10.8614 22.2972 13.4055 22.7744 15.5023 24.161C16.163 24.598 16.7593 25.1097 17.4039 25.5653C18.4058 26.2737 19.5356 26.8376 20.6779 27.2806C21.0164 27.4063 21.3939 27.5889 21.7484 27.6525C21.5656 26.7726 21.3296 25.9146 21.216 25.0189C21.0985 24.0923 21.082 23.1802 21.0817 22.2476L21.1719 19.3151C21.2337 18.4375 21.341 16.791 21.7446 16.0109L18.1758 15.9802L11.3767 15.39C11.097 15.3574 10.81 15.3538 10.5329 15.3048ZM37.49 15.3626L33.2123 15.7312L30.887 15.8359L24.5149 15.8469C22.8433 15.8518 22.9136 16.9101 22.7473 18.3044L22.5506 20.8246C22.4571 22.2825 22.4951 23.7413 22.7349 25.184L22.9234 26.1683C22.9495 26.2766 22.9565 26.3942 22.9903 26.4996L23.3839 28.0094L24.5567 28.0073C26.7427 27.8576 29.1429 26.6125 30.8829 25.3697L31.9635 24.5297C34.1446 22.8903 36.8987 22.2359 39.5856 22.1203C39.5981 22.0386 39.5687 21.9382 39.5539 21.8573L39.4123 21.1861C39.0481 19.5347 38.3614 16.8771 37.5586 15.3561L37.49 15.3626ZM8.13362 23.6196L6.72029 31.4166C6.42353 32.8555 6.47368 33.2041 7.0742 34.4369C8.60101 34.0041 9.88018 34.1287 11.3948 34.6527L12.9953 35.2396C13.8891 35.5284 14.7887 35.7059 15.7149 35.8465L16.7892 36.0019C17.1164 36.0353 17.4617 36.0195 17.7909 36.0205L19.2108 36.0123C19.4271 36.0009 19.6374 35.9658 19.8516 35.9382L20.4554 35.8763L20.9708 35.7987L22.4224 29.3615L21.2453 29.0607C19.2954 28.4846 17.5543 27.5815 15.9538 26.3415C13.5383 24.4702 11.2448 23.6928 8.14379 23.6071L8.13362 23.6196ZM39.4118 23.6122C37.6566 23.669 35.7729 24.0794 34.2114 24.8999C33.181 25.4413 32.3064 26.1817 31.3644 26.8536C29.8021 27.968 27.4983 29.0436 25.5526 29.3098L25.6026 29.5367C25.6284 29.6737 25.671 29.8057 25.693 29.9461L27.1198 35.8075C27.4082 35.8772 27.6933 35.9195 27.9902 35.9332C28.1964 35.9491 28.4002 35.9924 28.6055 36.0042L29.8035 36.0208C30.4455 36.0207 31.0528 36.0154 31.6884 35.9345L32.6734 35.7985C33.4436 35.6613 34.2107 35.4682 34.9554 35.2278L36.4866 34.6697C37.8195 34.2407 39.5078 33.9674 40.8567 34.3974C41.7978 33.4288 41.3862 31.9203 41.1798 30.7855L40.0599 24.7738C39.9955 24.3943 39.9697 23.9677 39.8459 23.6048L39.4118 23.6122Z" fill="black"/>
</svg>
