<svg width="48" height="48" viewBox="0 0 48 48" fill="none" xmlns="http://www.w3.org/2000/svg">
<path d="M34.7077 33.9998L27.8554 35.1561C27.7149 35.1897 27.5483 35.2423 27.4035 35.2125L27.375 35.2059C26.869 35.0949 26.6921 34.2397 26.5446 33.8295L26.1562 32.6951C26.0747 32.4484 25.9853 32.1982 25.9329 31.944C25.6047 31.9887 25.1628 32.0097 24.832 31.9578C24.6044 31.922 24.4615 31.7714 24.2531 31.9117C23.7771 32.2319 23.9095 31.8464 23.3528 31.9508C23.006 32.0159 22.5492 32.0067 22.1981 31.9697C22.1413 31.9637 22.0574 32.2138 22.0345 32.2732L21.4575 33.8512C20.8674 35.4279 20.9458 35.2548 19.4232 34.9814L5.35211 32.5951C4.94721 32.5297 4.51379 32.5489 4.28241 32.1441C4.16318 31.9356 4.07664 30.174 4.05304 29.6692L4.04834 27.2554C4.051 26.8639 4.11603 26.4438 4.179 26.0576L4.53798 24.3357C4.78328 23.3653 5.15721 22.4053 5.50511 21.467L6.21269 19.5349L7.61669 16.404C7.86967 15.9206 7.80382 16.1804 7.80466 15.5738L7.80288 14.0255C7.80185 13.5867 7.69699 12.9583 8.31827 12.8909L8.49611 12.877L39.193 12.8872C39.361 12.8872 39.5865 12.8608 39.7483 12.902L39.7734 12.9091C39.9026 12.9446 39.9968 13.0136 40.0745 13.1232L40.0898 13.1453C40.2684 13.3922 40.1874 13.7661 40.1874 14.0523L40.1885 15.5125C40.1893 16.1874 40.2048 16.0028 40.5006 16.5818L41.4686 18.7235L42.9534 22.8729L43.5086 24.9764C43.7356 25.7032 43.6493 26.4518 43.8078 27.0685L43.8319 27.1638C43.8881 27.4808 43.8686 27.8537 43.8699 28.1761L43.8682 31.1499C43.8633 32.4317 43.9464 32.3654 42.6093 32.6324L34.7077 33.9998ZM38.4526 14.1051L8.9935 14.117L8.9786 15.8078C9.49966 16.0897 10.8467 16.4989 11.4018 16.6164C12.5572 17.0028 13.7918 17.2337 14.9845 17.4741L17.8968 17.9917C18.057 18.015 18.2201 18.0113 18.3805 18.0323L22.2352 18.3785L25.955 18.3765L30.0586 17.9976L32.1093 17.6495C34.166 17.2753 36.7511 16.729 38.6581 15.9169C38.7588 15.874 38.8841 15.8629 38.9749 15.8138L39.0291 14.0954L38.4526 14.1051ZM39.353 16.9395L39 17.113C38.3854 17.3578 37.7578 17.5315 37.125 17.7204L34.7811 18.3286C34.7707 18.5764 34.7701 18.8329 34.7298 19.0779L34.602 19.6787C34.548 19.9986 34.4147 20.326 34.3126 20.6339C33.6519 22.6275 32.632 24.4851 31.7263 26.372C31.5315 26.778 31.3925 27.2003 31.2124 27.6103C30.3722 29.5232 28.9444 30.8322 27.0653 31.6409C27.0835 31.7291 27.0998 31.8126 27.1324 31.8969L27.8329 33.9006L29.6561 33.5933C29.8147 33.5639 29.981 33.5579 30.1345 33.5072L42.7031 31.4238L42.7295 29.2729C42.7316 26.8441 42.4855 25.3067 41.7402 22.9477L40.5654 19.6509L39.7276 17.7165C39.6108 17.4612 39.5065 17.1737 39.353 16.9395ZM8.62994 16.9861L7.39108 19.7652L6.75836 21.4671C5.69632 24.3186 5.03763 26.331 5.21641 29.3629L5.32511 31.3528C5.47094 31.3957 5.6125 31.41 5.7603 31.4397L16.9922 33.3739C17.3018 33.4214 17.6407 33.4412 17.9428 33.5192L20.1871 33.9197L20.9777 31.6499C19.5081 31.2774 17.8121 29.4971 17.1004 28.2433C16.7124 27.5597 16.5023 26.8092 16.1638 26.105L14.2816 22.1654C13.822 21.1176 13.4119 20.0852 13.2429 18.949L13.1709 18.3237L8.62994 16.9861ZM14.3954 18.5974C14.4281 18.8958 14.4765 19.2755 14.5698 19.5612L14.9177 20.6601C15.0305 20.9669 15.1819 21.2601 15.3078 21.5616L16.1545 23.4093C16.5419 24.3092 17.066 25.153 17.4587 26.0519C17.6889 26.5787 17.8364 27.1197 18.1233 27.6277C18.9632 29.1142 21.5245 31.4127 23.3977 30.6678L23.5021 30.6209C23.5401 30.5181 23.4767 30.2848 23.4728 30.1618L23.4568 19.6027C22.7164 19.501 21.7764 19.575 20.9565 19.5123L18.8212 19.3191L14.3954 18.5974ZM33.542 18.6209L31.5937 19.0015L26.6956 19.5658C26.0136 19.6102 25.3229 19.5552 24.6392 19.5898C24.6057 20.075 24.6294 20.5721 24.6293 21.059L24.6379 30.3033C24.6425 30.4779 24.6219 30.5797 24.7693 30.6885C24.9649 30.7775 25.1089 30.7769 25.3085 30.7745C27.3205 30.7499 29.2557 28.9424 30.0879 27.1932L31.01 25.0922L32.7092 21.5012C33.0977 20.5814 33.4603 19.6407 33.5725 18.6411L33.542 18.6209Z" fill="black"/>
</svg>
