<svg width="48" height="48" viewBox="0 0 48 48" fill="none" xmlns="http://www.w3.org/2000/svg">
<path d="M17.8433 35.1409C17.3663 34.8774 16.8555 34.6707 16.353 34.4625L10.5015 32.2575L6.92561 31.0669L3.9874 30.2921C2.84385 30.0629 2.88234 29.8534 3.19528 28.8885L5.27064 22.4713C5.34278 22.2674 5.42908 22.0467 5.44333 21.8292C5.58184 19.7157 6.38978 17.6833 7.6802 16.0067C8.88222 14.4449 9.60442 13.5798 9.80467 11.5539C9.90587 10.53 9.8725 10.0188 11.0341 10.368L12.9074 10.8044L15.6913 11.245L17.9427 11.4441C18.1895 11.4724 18.4285 11.5164 18.6776 11.5264L20.7475 11.5255L22.6107 11.4359L32.6951 10.6849L37.2761 10.2042C37.6153 10.1311 37.9204 10.2764 38.0826 10.5817L38.0974 10.6101C38.2137 10.8174 38.1632 11.2112 38.184 11.4522L38.2902 12.2561C38.5381 13.6132 39.0313 14.3368 39.8597 15.3747L40.5279 16.2616C41.0432 16.9724 41.4745 17.8005 41.8112 18.6092L42.1882 19.6404C42.4534 20.4388 42.4417 21.0826 42.562 21.8787C42.6226 22.2795 42.8105 22.6707 42.9168 23.0623L44.8843 29.1326C45.1007 29.8838 45.1134 30.1136 44.2381 30.2715C43.5807 30.3901 42.9337 30.5891 42.2881 30.7572C39.7755 31.4114 37.3107 32.2765 34.8769 33.1763L31.6233 34.4487C30.291 35.0264 28.9383 35.7125 27.997 36.8544C27.7228 37.1869 27.4923 37.6698 27.0551 37.8053C26.3243 38.0318 26.0937 37.2289 25.8934 36.7197L24.5863 33.3737C24.4368 32.9779 24.2594 32.5905 24.1546 32.1798L23.8787 32.1534L22.0537 36.8619C21.8753 37.2917 21.649 37.9397 21.053 37.839L21.0233 37.8334C20.6863 37.7733 20.5666 37.5237 20.3596 37.2836C19.5249 36.315 18.994 35.7533 17.8433 35.1409ZM36.5923 11.751L30.6815 12.356L24.7615 12.7575C24.2192 12.7968 23.7073 12.7988 23.1839 12.8354C23.0107 12.8475 22.8453 12.9059 22.672 12.9173L19.6046 13.0026L17.1092 12.8511C15.698 12.7294 14.3072 12.5533 12.9149 12.2914L11.1908 11.9334L11.0246 12.8502C10.9054 13.3929 10.7269 13.8894 10.5158 14.4017L11.5105 14.6169L16.16 15.2828L19.617 15.5651L21.7225 15.6237C21.9803 15.634 22.2559 15.6415 22.5115 15.6719C22.6187 15.6846 22.7183 15.7455 22.8206 15.7493L26.916 15.7388C27.1511 15.7293 27.3802 15.6857 27.6153 15.6753L29.9647 15.5548L33.0236 15.2194C33.9418 15.1042 34.8593 14.9766 35.7655 14.7848L37.4655 14.3533C37.2198 13.7185 36.9942 13.1183 36.8733 12.4452L36.7792 11.7349L36.5923 11.751ZM38.2383 15.6317C36.4893 16.1777 34.6697 16.5204 32.8544 16.7534L29.0455 17.1249C28.1788 17.195 27.2436 17.0512 26.3913 17.2274L26.4116 17.2627C26.7882 17.9292 26.992 18.5726 27.1018 19.3357C27.1748 19.8433 27.3249 21.0507 26.8638 21.3865L26.8369 21.4065C26.4137 21.7059 25.9136 21.3637 25.7567 20.9412L25.7433 20.9077C25.6437 20.6372 25.7578 20.3092 25.7493 20.0271C25.7278 19.3133 25.4982 18.6056 25.16 17.9818C25.0304 17.7428 24.8637 17.4923 24.7962 17.2264C24.5063 17.2437 24.1691 17.2586 23.8842 17.2032C23.7015 18.1419 23.7205 19.0468 23.7865 19.9892C23.8916 21.4923 24.411 22.8479 25.6474 23.7917C25.8362 23.9358 26.1032 24.0505 26.2415 24.2459C26.7023 24.8967 25.9464 25.6389 25.2588 25.2495C22.87 23.8965 22.1005 20.8881 22.3328 18.3057L22.4279 17.4871C22.4416 17.3678 22.4724 17.2361 22.4697 17.1173L15.8338 16.6941C13.7801 16.4889 11.73 16.2129 9.7383 15.6572L8.36317 17.5318C7.60764 18.7199 7.04987 20.0218 6.90953 21.4345C7.26705 21.5121 7.64406 21.54 8.00598 21.5966L9.9842 21.9783C13.261 22.7529 18.6695 24.7633 20.6182 27.7992L21.4266 29.511C21.7211 30.0598 22.5738 30.4824 23.134 30.6431C23.4163 30.7242 23.7417 30.6858 24.0112 30.8051C25.0676 30.5346 25.9409 30.5852 26.6272 29.4248C26.7553 29.2082 26.8078 28.953 26.8964 28.7187C28.4932 24.4939 37.0421 21.8259 41.1146 21.4618C40.8147 19.1688 39.6477 17.3848 38.2383 15.6317ZM6.64623 22.8496C6.52469 23.1333 6.44603 23.4256 6.35134 23.7185L4.70659 28.9723L6.54376 29.4457L12.8119 31.5584L16.6951 33.0615C17.8442 33.5518 19.0305 34.0588 19.998 34.8686C20.2577 35.086 20.4947 35.3383 20.7628 35.5447L20.9506 35.7509L22.3746 32.1726C22.4106 32.0868 22.4639 32.0011 22.48 31.9094C21.4764 31.5673 20.5563 30.9746 20.0737 29.9957C19.942 29.7284 19.863 29.4405 19.7473 29.1663C18.3414 25.8339 11.4849 23.7507 7.96858 23.0699L6.64623 22.8496ZM41.2976 22.9099C40.14 23.0517 38.9941 23.2465 37.8642 23.5409L34.9289 24.4752L33.3645 25.1432C31.4731 25.9895 28.9019 27.3617 28.1462 29.4352C27.6748 30.7286 26.9412 31.5034 25.5654 31.9178L25.7879 32.537C25.7994 32.5772 25.8138 32.6099 25.8299 32.6482L27.0258 35.7767L27.2878 35.4701C28.7334 34.0935 30.2863 33.3254 32.1561 32.621L39.9965 29.8818C41.0835 29.5477 42.1861 29.2089 43.3095 29.026C43.1571 28.2788 42.8688 27.5418 42.6287 26.8185L41.4022 22.9305C41.3541 22.9009 41.3538 22.9024 41.2976 22.9099Z" fill="black"/>
</svg>
