<svg width="48" height="48" viewBox="0 0 48 48" fill="none" xmlns="http://www.w3.org/2000/svg">
<path d="M33.7557 40.2586C32.9735 40.3749 32.1801 40.3893 31.3914 40.389L29.415 40.3256C28.6517 40.2663 27.8836 40.1852 27.1299 40.0482C26.0589 39.8535 25.9587 39.8564 25.7818 38.6834L25.5853 37.5492C25.4481 36.8617 25.2352 36.2031 25.0592 35.5269C24.9549 35.1255 24.8871 34.7059 24.7703 34.3101L23.2593 34.3159C23.1739 34.6208 23.1597 34.9474 23.0723 35.2572C22.8714 35.9689 22.5902 36.661 22.4296 37.3826L22.2212 38.6014C22.0962 39.5362 22.1339 39.8378 21.0922 40.0398L19.8336 40.2342C19.3875 40.2936 18.9273 40.359 18.4778 40.3817L15.7498 40.3812C13.3111 40.2524 10.782 39.6432 8.59984 38.5379C6.26814 37.3569 5.25193 35.7576 5.24903 33.2036C5.24706 31.4885 6.10346 29.9649 6.37234 28.2889L7.39932 21.9139L8.63232 13.5088C8.70451 12.8901 8.71084 12.4196 9.39067 12.2151C9.54142 12.1988 9.67225 12.2479 9.81545 12.2861L13.9454 13.1229L16.6054 13.4084L21.6405 13.644L28.8618 13.6022C29.0661 13.5927 29.2667 13.5562 29.4707 13.5423L33.3282 13.2147L36.3759 12.7146L38.3711 12.2615C38.6862 12.2056 39.0307 12.3333 39.1732 12.6341L39.187 12.6678C39.2705 12.8394 39.2728 13.0544 39.3011 13.2428L40.7858 23.1443L41.4765 27.0884C41.587 27.6797 41.6011 28.2877 41.7127 28.88C41.8591 29.6574 42.1606 30.3958 42.4043 31.1453L42.6093 31.8514C43.0033 33.4958 42.6604 35.509 41.622 36.8479C40.0764 38.8409 36.1117 39.965 33.7557 40.2586ZM10.192 14.0655L9.88248 16.4134C10.0418 16.4683 10.2003 16.4995 10.3624 16.5423L12.006 16.9129C13.2843 17.1687 14.5615 17.3349 15.8572 17.4706L17.3485 17.6228L20.9302 17.8231L27.4574 17.8187L29.4907 17.7195C29.6722 17.7103 29.8519 17.6764 30.0332 17.662L30.879 17.6137C33.2205 17.4272 35.5292 17.0567 37.8228 16.5568L38.1334 16.4744L37.8163 14.0829C37.0886 14.302 36.3261 14.419 35.5782 14.5485L31.8883 15.0654L28.0194 15.2779C27.8426 15.2822 27.6696 15.3157 27.4927 15.3198L21.4599 15.3229C21.2485 15.319 21.041 15.2816 20.8296 15.2783L18.8887 15.2595L16.1049 15.0609L11.7612 14.4238C11.2368 14.3237 10.7015 14.2268 10.192 14.0655ZM9.65837 18.0593L9.21695 20.9867C9.52571 21.1373 9.87414 21.2332 10.1979 21.3514L11.5978 21.8611L15.5626 23.0655L16.6876 23.5309C19.7185 24.8248 21.9445 26.9394 23.0371 30.1433L23.1753 30.5776C23.4114 31.2331 23.4752 32.0161 23.5146 32.714L24.5399 32.7169C24.5608 32.4192 24.5511 32.111 24.5921 31.8162C25.0281 28.6846 27.0527 25.8794 29.7718 24.3044L30.7661 23.79C31.3677 23.5278 31.948 23.2366 32.5672 23.0145L38.8007 21.0244L38.4103 18.2973C38.4036 18.2396 38.4021 18.1627 38.3694 18.1134L35.735 18.6863C34.7836 18.8694 33.8074 18.9835 32.845 19.0935L29.892 19.3758C28.8894 19.4463 27.7924 19.4966 26.7926 19.4993L20.4427 19.4874C20.1531 19.4794 19.8696 19.4348 19.5816 19.4188L13.607 18.908C12.5949 18.7585 11.6017 18.5324 10.6093 18.2866L9.65837 18.0593ZM8.90382 22.6334L8.39504 25.9112C8.36504 26.0969 8.32014 26.2872 8.30982 26.4747C8.8885 26.6139 9.53875 26.674 10.1539 26.806C12.5228 27.3146 14.7872 28.2065 16.7813 29.6009C18.3047 30.6663 19.4409 31.9551 21.3806 32.3838C21.5351 32.428 21.6984 32.4784 21.8591 32.4908C21.5905 29.6968 20.0661 27.3898 17.6942 25.8784C15.7757 24.656 13.4714 24.1345 11.3182 23.4843L8.90382 22.6334ZM39.0333 22.6756L33.961 24.2857C30.9456 25.2417 28.377 26.684 26.9271 29.6767C26.5107 30.5362 26.2073 31.528 26.1752 32.4871L26.7843 32.3426C28.7839 31.7065 29.4159 30.9138 31.0688 29.7157C33.5375 27.9263 36.7099 26.8211 39.7283 26.4973C39.7226 26.3634 39.6702 26.2247 39.6456 26.0919L39.2242 23.5301C39.1754 23.2469 39.1427 22.9684 39.0729 22.6884L39.0333 22.6756ZM8.02435 28.0766L7.92071 28.7898C7.83132 29.3213 7.7065 29.9211 7.51178 30.4262L6.95687 32.1711C6.6527 33.156 6.85642 34.3715 7.28889 35.2914C7.71259 36.1927 8.59525 36.7343 9.45709 37.1496C12.1972 38.47 15.3038 38.9366 18.3238 38.7332L20.2442 38.5216C20.3646 38.498 20.4871 38.4792 20.6025 38.4369C20.7075 36.9502 21.3208 35.5567 21.6638 34.1209C20.0455 33.811 18.6097 33.0901 17.3199 32.074C16.7623 31.6348 16.2182 31.1594 15.62 30.7767C13.251 29.2607 10.7967 28.5101 8.02435 28.0766ZM39.9154 28.1131C37.5444 28.3352 34.4345 29.4296 32.5062 30.7186L30.0608 32.5331C28.7827 33.427 27.8157 33.758 26.3678 34.123L27.453 38.4394L27.8877 38.5181L29.6554 38.7331C30.1569 38.7713 30.6643 38.764 31.167 38.7626C34.0477 38.7546 40.1437 37.8463 41.0016 34.464C41.0954 34.0941 41.1569 33.7069 41.1595 33.3259C41.1702 31.8015 40.245 30.2681 40.0554 28.6287C40.0353 28.4547 40.0361 28.2773 39.9962 28.1063L39.9154 28.1131Z" fill="black"/>
</svg>
