<svg width="48" height="48" viewBox="0 0 48 48" fill="none" xmlns="http://www.w3.org/2000/svg">
<path d="M21.3477 33.4892L20.3477 39.6442C20.1173 41.0156 20.3312 41.6113 18.5244 41.1875C17.1951 40.8756 15.9032 40.4563 14.6291 39.9671L13.0495 39.3106C11.071 38.5059 5.24257 36.0522 5.00303 33.9736C4.97336 33.7161 5.13911 33.3355 5.2015 33.0809L7.46107 23.064L8.33083 18.8247L8.80919 14.3905L8.90355 11.4515C8.9036 11.2027 8.92455 10.9251 8.88218 10.68L8.54805 8.98543C8.49653 8.67971 8.48228 8.39945 8.67232 8.13667L8.70457 8.09467C9.11097 7.60234 9.316 8.04315 9.81733 7.59817L10.2775 7.21895C11.0624 6.52318 10.9038 6.51559 11.9133 6.73796L14.6363 7.11976L18.5997 7.39013L26.8304 7.39989C27.2212 7.39332 27.6466 7.40706 28.0326 7.34654L36.6979 6.59481C37.2102 6.55196 37.5151 6.97553 37.8446 7.28799L38.4398 7.80404C38.8526 7.72407 39.3234 7.97434 39.4564 8.3822L39.4693 8.42546C39.6049 8.83923 39.3896 9.33667 39.2814 9.73796C39.1371 10.2725 39.0954 10.717 39.0951 11.2649L39.0981 12.4972C39.1004 12.7917 39.1466 13.0749 39.1583 13.3673L39.1719 14.071L39.6568 18.5973L39.9443 20.238C40.0535 20.7539 40.1587 21.2688 40.2668 21.7848L42.0943 30.0583C42.1807 30.426 42.3026 30.802 42.3641 31.1737L42.8285 33.1816C42.8367 33.2281 42.8426 33.267 42.858 33.3121L42.9248 33.5423C42.9311 33.5734 42.9359 33.6035 42.9465 33.6338C43.567 35.4108 37.9992 37.9826 36.7551 38.5426L33.0119 40.0356C31.8366 40.4721 30.6543 40.9315 29.428 41.2069C28.8181 41.3438 28.1614 41.5391 27.8516 40.8227L27.8361 40.7855C27.7642 40.6177 27.7612 40.4407 27.7412 40.2618L25.3367 24.9255C25.2843 24.5744 25.2505 24.1956 25.1239 23.8615C24.9722 23.461 24.3553 22.4753 23.8239 22.7033C23.0823 23.0214 22.8486 23.8175 22.7341 24.5387L21.3477 33.4892ZM11.2535 8.56407L10.8191 8.92642C10.6582 9.04768 10.4616 9.15831 10.3199 9.29865L10.3275 9.32846C10.5583 10.2636 10.5221 11.1314 10.5223 12.0884L10.4029 15.3681C10.3132 16.7537 10.1665 18.1449 9.90166 19.5096L9.2208 22.705C9.14266 23.0008 9.05224 23.283 9.01197 23.5873C9.2118 23.4632 9.40047 23.1995 9.54602 23.0151C11.399 20.6954 12.1583 17.5735 12.3743 14.659L12.3981 13.9684C12.4227 13.4379 12.504 12.899 12.4431 12.3672C12.3214 11.3054 11.7616 9.56532 11.2535 8.56407ZM36.8008 8.55324C36.3874 9.33751 36.1065 10.2512 35.8749 11.105C35.4947 12.5064 35.4856 12.7674 35.6182 14.2173L35.9071 16.6755L36.2198 18.0854C36.3116 18.4464 36.3917 18.8209 36.5177 19.1716L37.3818 21.2765C37.6541 21.8553 38.0403 22.3692 38.4113 22.8857L38.9785 23.4705C38.8191 22.9603 38.7306 22.4453 38.6134 21.9251L37.8056 17.4723L37.5225 14.5075L37.5131 10.8261C37.5134 10.3592 37.5278 9.96601 37.632 9.50996L37.6843 9.29823C37.7003 9.23551 37.7199 9.24943 37.6594 9.21507C37.3436 9.03596 37.0578 8.80839 36.8008 8.55324ZM34.8687 8.58953L24.7862 9.0856L24.8238 13.0725L25.235 13.0851C25.3111 12.4488 25.5273 11.7944 25.8452 11.2376C25.9723 11.0273 26.154 10.7513 26.4126 10.6953C26.8448 10.6018 27.31 10.83 27.3681 11.2966C27.4118 11.6474 27.2241 12.0052 27.111 12.3276L26.877 13.0793L28.9338 12.9246C30.6211 12.7611 32.3137 12.4293 33.9478 11.9832C34.1259 10.8137 34.5363 9.69737 34.9336 8.58882L34.8687 8.58953ZM13.0581 8.59234L13.8219 10.8258L14.0061 11.609C14.0401 11.7273 14.036 11.873 14.0488 11.9961C15.0694 12.4695 18.0634 12.7872 19.196 12.8933L21.1229 13.0636L20.6617 11.5923C20.625 11.4573 20.634 11.2579 20.6892 11.1309L20.7045 11.095C21.0371 10.3397 21.8156 10.6142 22.1923 11.2243C22.4225 11.6035 22.6209 12.0827 22.6953 12.5204L22.7966 13.0664L23.2042 13.0792L23.2054 9.07965L13.0581 8.59234ZM13.9185 13.7493C13.8828 14.0087 13.8979 14.2689 13.8828 14.5303L13.5982 17.3276C13.1336 20.3094 11.6388 24.5179 8.63355 25.8317C8.47038 25.903 8.52822 26.015 8.49264 26.1807L6.71275 33.7022C8.32127 35.5844 10.5678 36.56 12.786 37.512L14.7072 38.3444C15.7817 38.7799 16.8973 39.1525 18.0251 39.4219L18.4709 39.527C18.5341 39.5419 18.6179 39.5733 18.6816 39.5758L18.7043 39.5701C18.7226 39.4029 18.7618 39.2072 18.7504 39.0409L21.0919 24.6442C21.2806 23.4181 21.7775 21.6733 23.0768 21.2202C23.3035 21.1412 23.2042 20.6837 23.2043 20.4473L23.1916 14.8924L22.7689 14.8273C22.7229 15.6405 22.5648 17.4852 21.5422 17.681L21.514 17.6866C21.1346 17.7529 20.78 17.4589 20.7154 17.0973L20.7088 17.0651C20.6402 16.7036 20.8622 16.3394 20.9383 15.9981C21.0273 15.5997 21.0532 15.1859 21.1413 14.7898C20.7155 14.7197 20.2942 14.7165 19.8652 14.6931L18.6828 14.5974C17.0787 14.4448 15.4839 14.1275 13.9185 13.7493ZM33.7987 13.7927C32.0923 14.2442 30.3227 14.484 28.5721 14.6865L28.0935 14.7178C27.7613 14.7505 27.1133 14.769 26.846 14.8242C26.9277 15.2507 26.9951 15.691 27.1068 16.1104L27.3197 16.7838C27.5089 17.4434 26.6495 17.9169 26.124 17.5261C25.4762 17.0443 25.331 15.7211 25.2463 14.9913L25.2375 14.8853C25.0965 14.8801 24.9438 14.8853 24.8046 14.8641L24.8156 20.8168C24.8161 21.3528 24.9422 21.1927 25.3248 21.4573L25.4056 21.5181C25.9675 21.95 26.4093 22.5452 26.6445 23.2145L26.7393 23.4738C26.8489 23.7411 26.8825 24.065 26.9224 24.3488L27.1413 25.6989C27.2028 26.0106 27.2373 26.3356 27.2769 26.6509L27.8884 30.6854C27.9484 31.0778 27.9767 31.4977 28.0725 31.8822L29.1967 39.1914L29.2404 39.4276C29.8673 39.2924 30.5173 39.0976 31.1195 38.8788L35.1284 37.3705L37.3361 36.3302C38.9285 35.5179 39.9262 34.8581 41.3118 33.8026L39.463 25.8671C39.1526 25.6774 38.8127 25.5413 38.5166 25.3238C36.2549 23.6617 35.2029 21.0206 34.5627 18.3816L33.908 13.7864C33.8667 13.7822 33.8388 13.7812 33.7987 13.7927Z" fill="black"/>
</svg>
