<svg width="48" height="48" viewBox="0 0 48 48" fill="none" xmlns="http://www.w3.org/2000/svg">
<path d="M32.3666 37.5222C31.4445 37.7319 29.5407 37.3379 28.7364 36.9311C27.2448 36.1768 26.3828 34.7668 25.9946 33.1906C25.7252 32.0968 25.5839 31.6056 24.7215 30.7338C24.4947 30.7384 23.3443 30.6991 23.2382 30.7659C23.1346 30.8311 23.0564 30.9789 22.9729 31.0715C22.0355 32.1098 22.1417 33.0297 21.6551 34.2301C20.7548 36.4513 19.1707 37.3101 16.8046 37.5017L13.6264 37.5666L11.0729 37.3731C9.61171 37.2537 8.21479 36.8684 6.84843 36.3461C5.27034 35.7428 5.18784 35.2424 5.42212 33.5504L6.57098 25.1031C6.64307 24.5469 6.56831 23.9755 6.5931 23.4137C6.70617 20.8543 7.17464 18.3243 8.07473 15.9217C8.36517 15.1466 8.85351 14.3588 8.85004 13.5114L8.85173 12.5733C8.85618 11.5358 9.27304 10.7012 10.4093 10.5068C10.5562 10.4848 10.7785 10.4892 10.9244 10.5145L10.9569 10.5206C11.4424 10.6087 11.9047 10.845 12.3667 11.0155C14.0102 11.6221 15.5678 11.8761 17.3085 11.9931L20.1142 12.1356C20.3293 12.148 20.5404 12.1908 20.756 12.1974L27.4246 12.1965L31.3593 11.9305C32.9243 11.7904 34.4535 11.563 35.9225 10.9794C36.2399 10.8533 36.5441 10.678 36.8701 10.5769L37.1052 10.509C38.1789 10.3199 39.1062 11.2066 39.1494 12.2594L39.1569 13.4965C39.1577 13.6509 39.1321 13.8905 39.1892 14.0345L40.032 16.277C40.0927 16.4402 40.1631 16.6008 40.2028 16.7715L40.5153 17.7629C41.0764 19.4455 41.3024 21.8974 41.3983 23.6662C41.429 24.2324 41.4133 24.707 41.4806 25.278L42.6744 34.2872C42.8694 35.6403 41.9018 36.0758 40.7889 36.4796C39.0695 37.1034 37.2913 37.4546 35.4608 37.4754C34.4364 37.4871 33.3857 37.4211 32.3666 37.5222ZM10.5867 11.8133C10.4882 11.8581 10.3923 11.8989 10.3084 11.969L10.2862 11.9879C10.1029 12.1416 10.2216 13.7843 10.1782 14.1487C11.2177 14.4305 11.9829 14.7177 13.1132 14.9051L17.121 15.3771L21.9784 15.6338L25.8682 15.6413C26.1179 15.6363 26.3577 15.5778 26.609 15.5711L28.0327 15.5484L32.4077 15.2185C34.3465 15.0137 35.8956 14.7659 37.742 14.1794L37.8198 12.7521C37.8187 12.2362 37.9549 12.0236 37.3926 11.8185C36.8322 11.9835 36.2906 12.2544 35.7406 12.457C34.1568 13.0401 32.3774 13.2109 30.7084 13.3354L26.4837 13.5679L21.5429 13.565L17.4904 13.3304C15.7689 13.2127 14.1172 13.0237 12.4747 12.4427L11.4582 12.0674C11.197 11.9679 10.8662 11.7941 10.5867 11.8133ZM9.72867 15.3629C9.10195 16.8459 8.60039 18.3846 8.33146 19.9738C10.2676 21.9222 11.8225 23.2902 14.1093 24.8697L15.2607 25.6685C16.8021 26.6825 18.9352 27.9609 20.7445 28.3535C20.7406 27.892 20.7035 27.3816 20.7582 26.9241C20.9331 25.5535 21.9593 24.1449 23.3951 23.9881C23.6673 23.9584 23.5579 23.702 23.5576 23.4406L23.5546 17.0057L18.2075 16.8467L13.9811 16.4278C12.9852 16.2769 11.9834 16.0994 11.0155 15.8166L10.2604 15.566C10.1286 15.517 9.86081 15.3608 9.72867 15.3629ZM38.2761 15.3803C35.9944 16.2838 33.1427 16.5992 30.7178 16.7748L29.1352 16.8749C28.8699 16.8877 28.6075 16.9375 28.3417 16.9467L26.414 16.9569C26.2682 16.9605 26.1242 16.9853 25.9786 16.9898L24.8811 16.9963L24.8858 23.9642C25.9645 24.3136 26.8189 24.7607 27.2123 25.9567L27.3172 26.3226C27.4138 26.6605 27.4186 27.1147 27.38 27.4628L27.378 27.4944C27.3559 27.8009 27.2616 28.0744 27.1581 28.3613C29.4508 27.8392 31.7919 26.1996 33.7047 24.8854C36.0419 23.2795 37.6573 21.9647 39.6656 19.9855C39.3855 18.5513 38.9208 16.7162 38.2761 15.3803ZM8.07192 21.6102C7.98145 22.0842 7.96996 22.5708 7.93274 23.0504C7.86918 23.87 7.79873 23.6932 8.36657 24.2693L8.92701 24.8243C9.32517 25.2047 9.77235 25.5606 10.2069 25.8994C13.0594 28.1233 17.4813 30.7135 21.1407 31.3636L21.3742 30.9242L21.999 30.0492C21.9103 29.9693 21.8261 29.8998 21.7235 29.8375L21.6953 29.82C21.6703 29.8091 21.0753 29.7792 20.9402 29.7532C19.783 29.5305 18.7594 29.1482 17.714 28.6236L16.1834 27.8026C13.7867 26.4117 11.5217 24.784 9.46143 22.9297C9.03853 22.5491 8.57639 22.1993 8.20954 21.7619L8.07192 21.6102ZM39.9244 21.6162C39.6791 21.8302 39.4621 22.0757 39.2252 22.2993L37.9763 23.3945L34.7592 25.8173C32.4691 27.4172 29.6739 29.2905 26.88 29.7951C25.3865 30.0648 25.9485 29.7741 26.5474 30.8902C26.6077 30.973 26.6673 31.0499 26.7074 31.1446L26.8416 31.3969C31.4134 30.3118 36.7827 27.2407 40.0618 23.8825C40.1264 23.5637 39.9766 21.952 39.9244 21.6162ZM23.5315 25.3473C23.067 25.4533 22.6409 25.7403 22.3969 26.1349L22.2731 26.355C22.0874 26.7054 22.1028 27.0144 22.1027 27.3985L22.1087 28.4091C22.114 28.7257 22.0479 29.1049 22.3159 29.3385C22.5196 29.4714 22.5464 29.4555 22.7894 29.439L23.568 29.3853L23.5738 25.3592C23.5416 25.3438 23.5562 25.3449 23.5315 25.3473ZM24.9194 25.3448L24.9165 28.8428C25.0216 28.6917 25.3767 28.4606 25.545 28.2876C26.5282 27.2395 26.0919 25.9335 24.9194 25.3448ZM40.1867 25.5911C36.9171 28.4969 33.0305 30.8919 28.8515 32.2475C28.3279 32.4173 27.7826 32.5182 27.2506 32.6589C27.4418 33.8203 28.0612 35.0005 29.0973 35.6107C30.6033 36.4692 31.8146 36.1654 33.3508 36.1137L36.2058 36.1018C37.0567 36.0667 38.0475 35.9144 38.86 35.6963L40.4483 35.189C40.7492 35.0778 41.0503 34.987 41.31 34.7926L41.3654 34.7521C41.3721 34.2302 41.2621 33.727 41.1888 33.2121L40.1867 25.5911ZM7.8126 25.6286C7.76789 25.8773 7.75851 26.1327 7.72879 26.384L6.65015 34.2248C6.63262 34.3713 6.60131 34.5836 6.64331 34.7249C7.23271 35.3848 10.1965 35.9652 11.0056 36.0102L14.8767 36.2191C16.167 36.22 17.7714 36.2635 18.9186 35.5951C19.9352 34.9629 20.4584 33.9728 20.7187 32.8356L20.7151 32.6237C20.1451 32.5326 19.5784 32.3554 19.0277 32.1869C15.3454 31.061 11.1975 28.6451 8.29579 26.0245C8.21367 25.9503 7.90101 25.6193 7.8126 25.6286Z" fill="black"/>
</svg>
