<svg width="48" height="48" viewBox="0 0 48 48" fill="none" xmlns="http://www.w3.org/2000/svg">
<path d="M16.9738 38.8798L8.01855 36.5084C7.56485 36.3834 7.08509 36.2962 6.65098 36.1137C5.73579 35.7288 4.9669 34.8384 4.81048 33.8434C4.7554 33.4933 4.79337 33.0863 4.79543 32.7306L4.80434 31.7649L5.11254 28.883L5.87355 24.5416C6.09059 23.2996 5.9313 21.613 5.79274 20.3739L5.64851 19.1978C5.51965 17.5311 5.53802 15.7982 5.84107 14.1514C5.90599 13.7987 6.02651 13.3979 6.0281 13.0416L6.02252 10.5157C6.02252 9.72553 5.91668 8.51339 7.07248 8.7067L12.4182 9.55449L17.6867 10.0561C17.9077 10.0703 18.121 10.1184 18.343 10.1288L22.579 10.3057L26.1401 10.3072L28.3824 10.2223L34.5077 9.73603L37.355 9.31608C38.5855 9.10927 39.8391 8.95336 41.0513 8.65139C41.439 8.63255 41.7924 8.88117 41.8991 9.26011L41.9076 9.29264C42.0236 9.56808 41.9751 9.95269 41.9749 10.2543L41.9695 12.7599C41.9674 13.3084 42.0965 13.7333 42.1826 14.2688L42.2928 14.9863C42.5064 16.7703 42.4517 18.5235 42.2476 20.3102C42.0963 21.6353 41.9317 22.5166 42.0493 23.8552L42.0949 24.514C42.1539 25.0842 42.2655 25.8046 42.3829 26.3645L42.7204 28.0366L43.1738 31.6246L43.219 32.9699C43.2207 33.3456 43.2359 33.6438 43.1487 34.0117L43.0386 34.3651C42.543 35.7383 41.3948 36.1629 40.1183 36.4885L30.1756 39.1049C28.7771 39.4671 27.3997 39.4676 26.5452 38.0242C26.1566 37.3678 26.0521 36.573 25.8663 35.8415L24.6983 31.0596C24.4811 30.1098 24.3865 29.083 23.9865 28.1895C23.8112 28.6421 23.7235 29.1051 23.6245 29.5778L21.8096 37.1839C21.4702 38.5046 20.3399 39.4032 18.9656 39.3265C18.3065 39.2896 17.6111 39.0502 16.9738 38.8798ZM7.5288 10.3473L7.54718 13.1318C7.76946 13.2632 8.80235 13.4857 9.05791 13.5308C8.91054 12.6548 8.79673 11.509 8.97269 10.6231L8.10616 10.4685C7.94023 10.4346 7.69282 10.3382 7.5288 10.3473ZM40.3975 10.3942L38.9798 10.6375C39.0874 11.3465 39.1229 12.0194 39.0595 12.7412C39.0365 13.0032 38.9676 13.2629 38.9431 13.5263L40.1057 13.2406C40.3535 13.1674 40.4295 13.2224 40.4292 12.9377L40.4267 10.4176C40.4029 10.3929 40.4152 10.3952 40.3975 10.3942ZM10.5236 10.8454C10.3194 11.7091 10.2775 13.1708 10.8647 13.8741C11.193 13.9439 11.5347 13.9949 11.8709 13.995L11.9412 13.9981C11.9564 13.7032 11.8448 13.3578 11.825 13.0562L11.7604 11.9594C11.7555 11.6492 11.7859 11.3072 11.7465 11.0016L10.5236 10.8454ZM37.397 10.9091L36.136 11.0685C36.2083 11.6216 36.2155 12.5107 36.1183 13.0568C36.0989 13.166 35.9619 13.9873 35.9646 14.0348L36.1682 14.0107L37.1823 13.8679C37.5756 13.1577 37.5716 12.292 37.5405 11.5005C37.5336 11.3243 37.5691 11.0572 37.4549 10.9098L37.397 10.9091ZM13.3147 11.3044C13.2516 11.8928 13.2653 13.3832 13.5288 13.9497L13.6105 14.1521L22.7808 14.3496L22.7899 12.5877C22.7905 12.3543 22.8239 12.066 22.7853 11.8383L13.3147 11.3044ZM34.2101 11.353L27.453 11.8109C27.4182 12.218 27.3786 13.9366 27.4518 14.3454L27.8877 14.3464L31.8086 14.3435L33.7655 14.21C33.9465 14.196 34.1339 14.194 34.3129 14.1651C34.6975 13.3359 34.649 12.2335 34.6175 11.3376C34.4846 11.3405 34.341 11.3337 34.2101 11.353ZM24.3031 11.8755L24.3266 13.9913C24.3268 14.1028 24.3109 14.2422 24.3406 14.3476L25.8984 14.3463L25.9304 11.8975L24.3031 11.8755ZM7.32133 14.7079C7.18357 15.4396 7.12146 16.3601 7.1209 17.1107L7.12854 18.363C7.1374 18.534 7.1658 18.7042 7.18216 18.8743L7.36174 20.8152L7.44016 22.7809C7.44443 23.7663 7.31815 24.7597 7.1876 25.734L6.99827 26.9273C7.59274 27.3868 8.42168 27.6714 9.1368 27.8888C9.59421 28.0278 10.0712 28.0719 10.3118 28.5348L10.3341 28.5762C10.4041 28.7151 10.4053 28.998 10.3518 29.144C10.1153 29.7883 9.50238 29.5675 9.00841 29.4373L6.68477 28.7102C6.64244 28.9139 6.63105 29.1225 6.6019 29.3283L6.3468 32.5075C6.33696 32.7649 6.27926 33.0231 6.2914 33.2809C6.3521 34.5731 7.48329 34.7314 8.51351 35.013L16.6541 37.1731C17.4856 37.383 19.0756 38.0794 19.8162 37.5698L19.8937 37.5106C20.2441 37.1366 20.3096 36.7967 20.43 36.3162L22.0139 29.85C22.2468 28.8496 22.3046 27.6457 22.9817 26.8186C22.1183 25.275 21.6594 24.0944 21.4924 22.2755C21.4437 21.744 21.4797 21.1763 21.4795 20.6404L21.4661 15.9189L19.8644 15.9157C19.7004 16.3352 19.7673 16.8901 19.9061 17.3071C20.2607 18.372 18.8519 19.2435 18.3353 17.3221C18.2141 16.8713 18.2134 16.3797 18.2921 15.9222C17.6531 15.8554 16.987 15.9439 16.3423 15.9081C16.1559 15.8977 15.9714 15.8648 15.7849 15.8576L14.3549 15.8174L10.6873 15.4434C9.56426 15.2794 8.41132 15.0197 7.32133 14.7079ZM40.6331 14.7301L37.622 15.4136C37.3769 15.453 37.1269 15.4583 36.8809 15.4928L34.9931 15.732C34.1443 15.7937 33.3872 15.8319 32.5315 15.8532L29.7011 15.9159C29.6424 16.6752 29.6095 17.4348 29.4991 18.1904C29.1251 20.7515 27.8793 23.1225 26.1568 25.0316L25.033 26.2657C24.9523 26.3516 24.7228 26.4588 24.7993 26.5722L25.2214 27.3044C25.4296 27.6695 25.6288 27.9968 25.7037 28.4169L26.6612 32.7205L27.477 35.9586C27.5281 36.2341 27.5967 36.5701 27.6941 36.8283C28.1188 37.9541 28.826 37.8485 29.8504 37.5729L30.9435 37.2825C31.3203 37.1835 31.7337 37.116 32.0984 36.9838L32.1191 36.9756C32.8362 36.8347 33.5532 36.6046 34.2593 36.4128L39.5405 35.01C41.1619 34.5722 41.7844 34.462 41.6787 32.4656C41.6636 32.18 41.6736 31.8881 41.6439 31.6044L41.4044 29.6784C40.4691 30.2404 37.4243 31.5025 36.6684 31.2922C36.2085 31.1643 35.9491 30.6757 36.1254 30.2276C36.2919 29.8046 36.6568 29.787 37.0355 29.7L38.0154 29.4339C39.117 29.0843 40.1465 28.5779 41.1422 27.9964C40.5732 25.6659 40.4264 23.3157 40.6142 20.9329C40.7451 19.2718 41.009 17.8206 40.8718 16.1279L40.6331 14.7301ZM22.9701 15.9178L23.0491 22.3677C23.1138 23.2433 23.4202 24.4429 23.8648 25.1965C23.9612 25.1139 24.0476 25.0312 24.1315 24.9359C24.2434 24.8256 24.3989 24.7256 24.4001 24.5622L24.3934 16.7325C24.3933 16.473 24.4247 16.1712 24.3834 15.9188L22.9701 15.9178ZM25.9192 15.9158L25.9406 22.1111C25.9355 22.2843 25.8566 22.6873 25.9337 22.8439C26.2776 22.4484 26.5478 21.9354 26.8019 21.477C27.705 19.7225 28.1316 17.8784 28.1176 15.9182L25.9192 15.9158Z" fill="black"/>
</svg>
