<svg width="48" height="48" viewBox="0 0 48 48" fill="none" xmlns="http://www.w3.org/2000/svg">
<path d="M35.1721 37.932L32.9204 38.5669C30.7321 39.14 28.514 39.612 26.2637 39.8568L25.6237 39.927C24.44 40.0637 24.4956 39.2443 24.052 38.6185C23.5964 39.3254 23.6967 39.8233 22.7319 39.7886L22.0545 39.7585C21.2826 39.7135 20.5206 39.5834 19.7599 39.4519L17.6996 39.0519C16.2928 38.7253 14.9089 38.2909 13.5456 37.8166L9.93955 36.5458L6.19058 35.5579C5.81413 35.4621 5.53799 35.4995 5.32091 35.0967L5.30235 35.0614C5.26902 34.9989 5.24624 34.9408 5.22819 34.8719L5.22018 34.8401C5.18722 34.7125 5.19205 34.5639 5.20902 34.4336L5.98546 26.443C6.04752 25.8989 6.02277 25.5066 6.12416 24.9248L6.59596 21.9936C6.68193 21.3459 6.58836 20.6804 6.70991 20.0451C6.78777 19.6383 6.80094 19.2082 6.87008 18.7971C7.2095 16.7784 7.85183 14.7413 8.96347 13.0063L9.21782 12.6135C9.35671 12.4145 9.40227 12.4207 9.40311 12.1667L9.40293 9.70301C9.40236 9.34545 9.30791 8.54524 9.5225 8.23873L9.56047 8.18557C9.70513 7.98677 9.87477 7.96395 10.098 7.93066L13.3243 7.99568L15.8744 8.07438C16.0546 8.07916 16.2281 8.11634 16.4064 8.12351L19.3478 8.16827L22.2473 8.34429L26.1699 8.34316C26.4224 8.3337 26.6713 8.2841 26.9228 8.27374L28.3798 8.25293C28.7508 8.23226 29.1167 8.17596 29.4898 8.16621L31.1368 8.11957C31.3548 8.11052 31.5778 8.07518 31.7942 8.07284L33.3385 8.06562C33.9743 8.0553 34.5309 7.98902 35.1813 7.98668L37.0692 7.9796C37.3636 7.97698 37.7001 7.90629 37.9866 7.96057L38.0158 7.96643C38.6105 8.07321 38.5941 8.66749 38.5952 9.13531L38.5955 12.3105C38.596 12.4045 38.6343 12.4867 38.7013 12.5526C39.2691 13.1111 39.8755 14.8506 40.1252 15.5861L40.3889 16.5002C40.4572 16.8676 40.5698 17.2378 40.6538 17.6032L41.0208 19.4777L42.0447 26.3557L42.7428 34.0495C42.8289 34.9532 42.9501 34.9678 41.9694 35.3915L38.5774 36.7669L35.1721 37.932ZM10.8283 9.4383L10.8531 12.1812C11.2957 12.2925 11.7757 12.3446 12.227 12.4089L20.0392 13.3132L21.7618 13.4181L26.6028 13.4179C26.8651 13.4077 27.122 13.3612 27.3831 13.3439L31.7644 12.9729L35.297 12.4936C35.6469 12.4331 36.008 12.4055 36.3548 12.3355L37.0461 12.2121C37.0936 12.204 37.1063 12.2016 37.1452 12.1708L37.1451 10.2469C37.1451 10.0127 37.1839 9.69949 37.1346 9.47341L34.2243 9.49057C33.9835 9.49774 33.7498 9.54738 33.508 9.55343L29.1128 9.67732C27.6237 9.76057 26.127 9.81916 24.6348 9.81598L22.0207 9.81513L17.0018 9.56449C15.9073 9.52409 14.806 9.50234 13.7111 9.47041L11.7169 9.43737C11.4226 9.43666 11.1213 9.42124 10.8283 9.4383ZM10.3421 13.5399C9.13232 15.0808 8.37322 18.2456 8.15047 20.1092C8.06989 20.7835 8.16257 21.3447 8.04547 22.0663L7.87644 23.2151C7.79774 23.7537 7.74725 24.3086 7.63161 24.8404L9.82396 25.2572C11.0991 25.5332 12.4063 25.9264 13.6141 26.4206L14.0863 26.5996C14.0098 26.0664 13.917 25.5344 13.8766 24.9961C13.707 22.7383 14.1728 20.5018 14.7421 18.3298L15.7986 14.8837C15.8284 14.7776 15.9157 14.5501 15.895 14.445L12.4923 13.9645C11.7776 13.8505 11.0387 13.7374 10.3421 13.5399ZM37.678 13.5554L27.9658 14.8615C27.3616 14.9513 26.7173 14.8965 26.1066 14.9152L22.6222 14.974L17.3872 14.5948L15.856 20.029C15.7363 20.5503 15.6199 21.0854 15.5458 21.615L15.4652 22.1744C15.4475 22.3511 15.4462 22.5559 15.4003 22.7258C15.2394 23.3219 15.3532 24.6334 15.4454 25.3284L15.8395 27.3588C15.9794 27.4768 16.1329 27.5314 16.2899 27.6206L17.0158 28.0566C18.2822 28.8621 19.3121 29.8212 20.1535 31.0758C20.3199 31.3022 20.4821 31.5389 20.6665 31.7509C22.2733 33.5974 25.499 34.5049 27.0718 32.1988C27.2926 31.8751 27.4521 31.5164 27.6667 31.1888C29.6758 28.1225 33.7424 26.3032 37.2678 25.5319L39.2111 25.1495C39.591 25.0929 39.9922 25.067 40.3657 24.9778L39.5537 19.4561L38.9388 16.6106C38.6831 15.6582 38.2987 14.3531 37.678 13.5554ZM7.39968 26.3396L6.64864 34.1386C6.87046 34.2422 7.12007 34.2927 7.35833 34.3444L10.2625 35.0928L16.2072 37.1258L17.7736 37.5379C18.6053 37.743 19.4481 37.9386 20.297 38.0572L22.4604 38.3157L22.5051 38.1505C22.6438 37.546 22.8693 36.9629 23.049 36.3699L23.2567 35.659C23.3167 35.4326 23.3758 35.1839 23.4782 34.9729C21.4397 34.4317 20.369 33.912 19.0723 32.0569C18.6052 31.3886 18.1264 30.7266 17.4942 30.201C15.4057 28.4647 12.0713 27.3454 9.45168 26.7356L7.39968 26.3396ZM40.5302 26.4729C36.6078 26.7571 31.1056 28.6011 28.9771 31.9597C28.7299 32.3499 28.5167 32.7526 28.2432 33.1271C27.5484 34.0783 26.2804 34.8647 25.0828 34.984L24.7569 35.7299C24.6612 35.9547 24.6729 35.9794 24.7503 36.2112L24.846 36.486C24.8589 36.53 24.8756 36.5678 24.894 36.6096L25.5129 38.1992C25.5288 38.2458 25.5502 38.2856 25.5732 38.329L25.6056 38.39C25.7209 38.4073 25.8531 38.379 25.9689 38.3668L26.8663 38.2594C29.0315 38.0172 31.9191 37.3405 33.9909 36.7129L40.2186 34.4981C40.5734 34.3703 40.9585 34.2509 41.2983 34.0882L40.5917 26.4848C40.571 26.4793 40.5518 26.472 40.5302 26.4729Z" fill="black"/>
<path d="M9.74873 22.4893C8.90625 22.564 8.9145 21.8864 8.9339 21.2978C8.99221 19.5292 9.65189 17.5849 10.5521 16.0621C10.7216 15.7753 10.8534 15.6054 11.185 15.5175C11.5564 15.4955 11.7798 15.6686 11.9177 16.0101L11.9597 16.1181C12.0896 16.5608 11.6261 17.0985 11.4423 17.4713C10.9215 18.5283 10.4773 19.6991 10.3861 20.881L10.3332 21.5692C10.3038 22.0753 10.316 22.3139 9.74873 22.4893Z" fill="black"/>
</svg>
