<svg width="48" height="48" viewBox="0 0 48 48" fill="none" xmlns="http://www.w3.org/2000/svg">
<path d="M29.2253 40.9827C28.7153 41.0208 28.5909 40.8732 28.3275 40.4535L28.0254 39.9685C27.5222 39.1388 27.0343 38.2959 26.6209 37.417L24.781 32.8605C24.5424 32.2576 24.2414 31.6649 24.0517 31.0448L24.0451 31.0228C23.8828 31.3324 23.7777 31.6667 23.6491 31.9909L21.389 37.3058L20.0411 40.1177C19.5981 41.0135 19.6159 40.9814 18.5453 40.9814L16.9556 40.9822C15.7703 40.9827 14.5662 41.0239 13.3828 40.9559L12.6786 40.8823C9.89078 40.6385 7.25495 39.9743 4.63908 38.9809L2.69046 38.1326C2.33117 37.9555 1.57138 37.671 1.51758 37.1994L1.5036 37.0837C1.49445 36.891 1.54132 36.6941 1.57463 36.5054L3.56701 26.5054L4.65066 21.6419C5.27008 19.3146 6.07004 17.0505 6.9204 14.8001C7.46987 13.3459 7.68662 12.0963 7.67908 10.5566L7.67608 8.50556C7.67579 7.41211 7.51689 7.02159 8.77304 6.99314L39.5868 6.99023C40.219 7.00842 40.3113 7.404 40.312 7.91016L40.3125 10.9245C40.3113 11.8043 40.2988 12.4628 40.6094 13.3341L41.906 17.0864L42.733 19.71C42.7421 19.7528 42.7489 19.7906 42.7638 19.832L42.9204 20.3432C42.9436 20.456 42.989 20.5596 43.0134 20.6723L43.7693 23.6296C43.7927 23.7624 43.8454 23.8859 43.8638 24.0208L46.3953 36.3802C46.4403 36.65 46.5915 36.9448 46.4693 37.2176L46.4568 37.2426C46.1739 37.8353 43.1662 39.0438 42.5273 39.2838C40.0149 40.2275 37.3436 40.8026 34.6615 40.9514L29.2253 40.9827ZM9.12025 8.46633C9.05837 9.00197 9.03911 10.5852 9.1059 11.1302L14.5355 11.2551L17.7379 11.3564C17.9214 11.3641 18.0996 11.4071 18.283 11.414L26.4522 11.4124C26.6388 11.4061 26.8215 11.3592 27.0099 11.3525L31.6574 11.2635L35.3466 11.073L37.3896 11.0623C37.7509 11.0615 38.1432 11.0285 38.5007 11.0645L38.8808 11.0387L38.8838 8.66466C38.8838 8.60245 38.8943 8.52558 38.8677 8.46952L9.12025 8.46633ZM38.7273 12.527L27.049 12.8119L27.4772 17.9826C27.4923 18.2157 27.5396 18.4459 27.5507 18.6789L27.5643 20.7976C27.5646 21.6432 27.561 22.4666 27.4841 23.309C27.3029 25.295 26.8994 26.694 24.9662 27.7671C24.8083 27.8548 24.5874 27.9325 24.4531 28.0466L27.6334 36.1072C27.6771 36.2035 27.7152 36.3257 27.7832 36.4068L29.6267 36.3972L36.4218 35.8084C38.3962 35.5723 40.5908 35.0578 42.4342 34.3577C43.0779 34.1132 43.6881 33.8053 44.3132 33.5201L38.9727 12.5242L38.7273 12.527ZM9.0084 12.5859L8.69289 13.9575C8.55208 14.4902 8.34297 15.01 8.1557 15.5278L7.40758 17.602L5.90898 22.5004L4.41486 29.4659L3.02533 36.6245L4.1926 37.2279L4.36075 36.4977L6.06362 28.3752C6.51348 25.9895 6.94515 23.594 7.61833 21.2582L8.1227 19.7017C8.34761 19.0379 8.57631 18.3952 8.8757 17.7605L9.65617 16.2435C10.5268 14.7231 10.828 14.3301 11.0517 12.5828L9.0084 12.5859ZM12.4941 12.645C12.457 12.9201 12.4614 13.1944 12.4101 13.4687C12.0478 15.4072 11.1892 16.203 10.4227 17.8339C10.1476 18.4192 9.87015 19.0369 9.64759 19.6435L8.91794 21.9581L7.99347 25.8871L6.67281 32.6098C6.55539 33.1478 6.48719 33.7073 6.3452 34.2392C6.70661 34.3913 7.07945 34.5091 7.44958 34.6373L9.59762 35.3053C10.9199 35.6589 12.2373 35.9628 13.5893 36.1818L16.1172 36.4742L18.6569 36.5659C19.1508 36.5663 19.6689 36.5979 20.1602 36.5573L20.1776 36.5346L22.9081 30.0095C23.0264 29.7241 23.1729 29.4339 23.2666 29.14C23.3336 28.9297 22.8278 28.1351 23.1548 27.3928C23.4233 26.783 24.0435 26.6395 24.5597 26.3024C25.9948 25.365 26.0192 23.8379 26.0987 22.2778L26.0754 18.3131L25.6155 12.9259L19.3632 12.9204L16.1423 12.791C15.9846 12.7804 15.8282 12.7526 15.6679 12.7452L14.5547 12.7259C14.3711 12.719 14.1884 12.6836 14.0039 12.6744L12.821 12.6565C12.7237 12.6551 12.5848 12.624 12.4941 12.645ZM44.5737 35.0278L43.2018 35.6137C40.0949 36.7896 37.5159 37.1997 34.2068 37.512L30.6129 37.7892C29.9585 37.8291 29.0876 37.82 28.4988 37.9065C28.541 38.0392 28.6394 38.1556 28.7089 38.2754L29.2721 39.1905C29.3312 39.3081 29.3921 39.4161 29.4677 39.5242L32.1839 39.5193C32.8529 39.5183 33.536 39.5462 34.2034 39.5065L37.207 39.1841L38.9799 38.8287C41.0735 38.3418 43.1338 37.6073 44.9931 36.5173L44.5737 35.0278ZM6.05059 35.7108L5.56567 37.7632C7.21286 38.3682 9.06161 38.9201 10.8047 39.187L13.67 39.5022L18.7364 39.526C18.7919 39.4628 18.8111 39.3966 18.8373 39.3176L19.4793 38.0006L16.4062 37.9624C13.8192 37.8191 10.9158 37.2214 8.44061 36.488L6.73084 35.9286C6.5094 35.8541 6.26209 35.8083 6.05059 35.7108Z" fill="black"/>
</svg>
