<svg width="48" height="48" viewBox="0 0 48 48" fill="none" xmlns="http://www.w3.org/2000/svg">
<path d="M28.6691 40.3505L28.1798 40.1289C26.633 39.2806 26.1345 38.1801 25.609 36.6379L24.0242 31.1698C23.951 31.1975 23.8369 31.7528 23.8032 31.8659L22.5957 35.9416C22.0057 37.8719 21.197 39.9885 18.9136 40.437L18.8674 40.4458C17.6628 40.6811 16.649 39.8017 15.6681 39.2455C13.9514 38.272 12.2004 38.3232 10.3125 38.3228C9.90549 38.3227 9.47508 38.3517 9.0705 38.3113C8.21185 38.2257 6.69929 37.7768 6.13074 37.0383L6.10566 37.0049C6.00839 36.8766 5.92725 36.7534 5.88052 36.5978L5.87007 36.5618C5.71979 36.0722 5.87944 34.5825 5.92871 34.0666L6.78661 27.4433L8.99508 13.6174L9.65049 8.37224C9.71555 7.95421 9.76711 7.69565 10.1997 7.52648L37.2505 7.51799C37.647 7.51884 38.0143 7.47013 38.2344 7.88142L38.2496 7.91034C38.3281 8.05406 38.3236 8.21038 38.3454 8.36737L38.9097 12.9027L39.5212 16.657C39.6078 17.1743 39.6467 17.71 39.7506 18.2228L41.1098 26.6252C41.2418 27.429 41.3294 28.2437 41.4378 29.051L41.9416 33.0477C42.0396 33.7397 42.1022 34.4524 42.1544 35.15L42.1757 35.8024C42.2163 36.4978 42.1776 36.8824 41.5732 37.3335C40.3842 38.2209 39.0005 38.3227 37.5889 38.3227C35.3618 38.3227 33.8809 38.2815 31.8586 39.5418C30.7748 40.2172 29.9945 40.697 28.6691 40.3505ZM10.9198 8.98115C10.8662 9.29053 10.8687 9.60909 10.845 9.91584L13.8181 10.6291C14.9012 10.828 15.7938 10.9019 16.8862 10.9024L33.7167 10.9017C34.568 10.9014 35.3145 10.9286 36.084 10.4821L36.3897 10.2909L37.1224 9.64978C37.0749 9.43143 37.0673 9.20798 37.0541 8.9856L10.9198 8.98115ZM37.3185 11.2619C36.5968 12.1297 34.9029 12.2573 33.8195 12.2579L16.82 12.2564C15.134 12.2557 13.6578 12.058 12.0027 11.6621L10.6284 11.2872L10.4802 12.6213L10.4885 12.7073C10.6611 12.7666 10.9128 12.7565 11.0978 12.7735L15.6787 13.2213L16.4921 13.2426C16.6557 13.2517 16.8173 13.2837 16.9815 13.2904L31.4533 13.2928C31.9454 13.2706 32.7852 13.259 33.2004 13.1782L37.526 12.7607L37.3185 11.2619ZM10.3048 14.0619L7.63289 31.2942C9.10547 31.9339 11.8314 32.4546 13.3846 32.6163L15.4455 32.7627C16.0372 32.8017 16.6016 32.8332 17.1995 32.8193L18.258 32.7438C18.9358 32.7005 19.6622 32.6491 20.3261 32.4999C20.7246 32.4296 21.9908 32.2631 22.313 32.0885L23.2786 28.5497C23.3787 28.1962 23.1223 27.422 22.9589 27.1161C22.7283 26.6844 22.5499 26.2494 22.3474 25.8056C21.035 22.9289 21.1138 22.3137 21.1131 19.1493L21.1127 14.6899L10.3048 14.0619ZM37.6504 14.1213L26.8982 14.6711C26.8697 14.8767 26.879 15.0871 26.8787 15.2942L26.8774 21.2666C26.8764 22.5477 26.31 24.6178 25.5875 25.7325C25.343 26.1098 24.9225 26.3136 24.9164 26.8208C24.913 27.1038 24.9375 27.4068 24.8548 27.6803L24.7224 28.2779C24.6771 28.497 24.7988 28.8971 24.8821 29.1178L25.3027 30.6315C25.3295 30.7806 25.3885 30.9949 25.4445 31.1364L25.5326 31.4326C25.7906 32.1387 25.4665 31.9352 26.2502 32.1601C26.7451 32.3022 27.2599 32.4745 27.7686 32.5528C28.8669 32.7746 29.9949 32.8319 31.1126 32.8332L32.9436 32.8119L34.3093 32.6605C35.5535 32.5015 36.7709 32.2775 37.9924 31.992L39.4186 31.6147C39.7443 31.5168 40.0663 31.4214 40.3708 31.267L37.8124 14.7306C37.7823 14.564 37.7863 14.2576 37.7055 14.1175L37.6504 14.1213ZM22.503 14.676C22.4542 15.0493 22.4734 15.4289 22.4731 15.7978L22.4905 21.8674C22.515 22.2814 22.6598 23.0257 22.7963 23.3871C22.9073 23.6806 23.667 25.6119 24.0643 25.5119L24.5733 24.6004C25.5616 22.9425 25.5192 21.6769 25.5196 19.8066L25.5194 15.3126C25.5193 15.1097 25.5435 14.8724 25.5114 14.6733L22.503 14.676ZM40.5154 32.6838C39.9198 32.9244 39.2761 33.1049 38.6569 33.2752L37.4064 33.6122C35.9616 33.9372 34.5013 34.1313 33.0254 34.2367L30.85 34.3125C29.5052 34.311 28.5468 34.2542 27.2105 33.9408L26.5543 33.7779C26.4154 33.7386 26.2613 33.6743 26.119 33.6592L26.7273 35.7459C26.7348 35.7773 26.746 35.8041 26.7575 35.834L27.1892 37.0666C27.2391 37.1891 27.3442 37.3421 27.3757 37.463C27.916 38.4321 28.8277 39.2757 29.9967 39.0029C30.3125 38.9293 30.6518 38.6908 30.9226 38.5173L31.695 38.0476C32.8327 37.3967 34.321 36.9991 35.6423 36.9534L37.6489 36.9487C38.7545 36.9483 39.9317 36.9164 40.8515 36.2068C40.8384 35.2697 40.7262 33.6331 40.5531 32.7101L40.5154 32.6838ZM7.46119 32.7036C7.34588 33.2277 7.07649 35.6251 7.18379 36.1762C7.38427 36.4649 8.29036 36.7763 8.64525 36.8392C9.9151 37.0639 11.1776 36.8832 12.4557 36.9573C13.951 37.044 15.4981 37.5389 16.7668 38.3221C17.2564 38.6244 17.8201 39.0734 18.4221 39.0916C19.3605 39.1199 20.1842 38.1734 20.6093 37.4404C20.796 37.0682 20.9203 36.6848 21.0556 36.2922L21.5993 34.6272C21.7028 34.2941 21.79 33.9135 21.9373 33.5992L18.7105 34.0928C18.4838 34.1299 18.2453 34.125 18.0158 34.1276L14.0594 34.0383C13.0111 33.9517 11.9552 33.8284 10.9221 33.629L9.4531 33.2875C8.79188 33.1243 8.09466 32.9557 7.46119 32.7036Z" fill="black"/>
</svg>
