<svg width="48" height="48" viewBox="0 0 48 48" fill="none" xmlns="http://www.w3.org/2000/svg">
<path d="M33.8085 37.2904L30.7573 37.2907C29.2617 37.2904 27.5837 37.4455 26.2107 36.7252C25.7029 36.4588 25.5616 36.175 25.4368 35.6491L24.1291 31.0989C24.0152 31.5144 23.8603 31.9133 23.7212 32.3204L22.6244 35.3138C22.5313 35.5692 22.4706 35.8607 22.354 36.103L22.3356 36.1407C21.8388 37.1794 19.7235 37.2909 18.6455 37.292L14.3511 37.2923C12.007 37.2896 10.1782 37.0694 7.90874 36.2783C7.54785 36.1525 7.1638 36.0496 6.81444 35.8953C5.55665 35.34 4.59729 33.91 4.58895 32.5316C4.58392 31.6992 4.80097 30.8626 4.94854 30.0469L6.92563 18.6558C6.97743 18.3145 6.98432 17.4055 7.3341 17.2118C7.68749 17.0161 7.51771 16.7327 7.51761 16.2654L7.51729 11.5984C7.51757 11.1057 7.6205 10.8693 8.12685 10.6914L39.8458 10.6918C39.9341 10.6939 40.0063 10.7002 40.082 10.7485L40.1067 10.7648C40.5052 11.0092 40.5012 11.2195 40.5013 11.6335L40.5015 15.3896C40.5015 15.9795 40.48 16.5788 40.5268 17.1669C40.6714 17.2647 40.8034 17.4233 40.863 17.5879L40.8759 17.6251C40.9431 17.7823 40.9506 17.9314 40.9792 18.0974L41.7754 22.8867C41.8203 23.1441 41.8588 23.4031 41.9062 23.6602L42.0885 24.7318C42.1015 24.8104 42.1315 24.8854 42.1449 24.9642L42.5667 27.3751C42.6776 27.9536 42.7894 28.5323 42.8959 29.1113L43.3124 31.4364C43.3758 31.7854 43.4945 32.1396 43.4638 32.4994C43.2529 34.9775 40.2568 36.8215 38.0228 37.1825C37.307 37.2982 36.5972 37.2907 35.8754 37.291L33.8085 37.2904ZM8.9841 12.1914C8.95607 12.5079 8.97683 12.8259 8.97702 13.1358L8.97683 16.3813C8.97669 17.1906 8.78868 17.0643 9.40129 17.1945L10.3551 17.367C10.4557 17.3828 10.552 17.4191 10.6523 17.4369L14.5975 17.9957L18.2929 18.29L29.8996 18.295C30.2 18.2848 30.4998 18.2328 30.8018 18.219L35.4963 17.8008L37.6405 17.4186C37.7611 17.3987 37.8763 17.3633 37.9981 17.3471L39.0349 17.1238L39.0242 12.1897L8.9841 12.1914ZM8.46144 18.5508L6.02957 32.296C5.99624 32.4633 6.08188 32.8132 6.14136 32.9766C6.56394 34.138 7.07108 34.3847 8.23977 34.7842L9.3074 35.1394C11.0038 35.625 12.4181 35.7703 14.1531 35.771L18.4574 35.769C19.3422 35.7681 20.1548 35.772 20.9697 35.3573L21.0672 35.3087L23.3146 28.8886C20.953 28.2745 19.2771 26.5195 19.2131 24.0498C19.1934 23.2926 19.2859 22.623 19.4032 21.879L19.6966 19.8835C19.1249 19.8001 18.5147 19.8815 17.9353 19.8435L12.8437 19.3546L8.92039 18.6558C8.7981 18.6285 8.57943 18.5439 8.46144 18.5508ZM39.5203 18.7149L38.4575 18.9635C36.9133 19.2734 35.3472 19.4654 33.78 19.6055L31.0457 19.7806C30.8491 19.7896 30.6534 19.8313 30.457 19.8437C30.2888 19.8542 28.5237 19.8392 28.4958 19.87C28.5248 20.0656 28.5682 20.2669 28.6084 20.4606L28.9233 22.0782C29.5896 25.2103 28.5082 27.9428 25.1998 28.8832C25.0691 28.9203 25.1072 28.9395 25.1367 29.0756L25.7893 31.5114C25.7964 31.5479 25.8078 31.5779 25.8203 31.6126L26.7674 34.9219C26.8605 35.2269 26.8422 35.4144 27.1702 35.5175C28.2276 35.8589 28.7249 35.7663 29.8323 35.7669L35.6653 35.7671C36.2701 35.7674 36.883 35.7952 37.4847 35.7266C39.2369 35.5269 41.3719 34.4111 41.9459 32.648C42.0682 32.2725 41.824 31.5006 41.7486 31.1107L39.5639 18.7277L39.5203 18.7149ZM23.0833 19.8543L21.2712 19.8616C21.2189 20.0094 21.2045 20.1634 21.1768 20.3169L20.7801 22.6055C20.644 23.5916 20.5997 24.5021 21.0414 25.4259C22.1838 27.8147 25.3407 28.1313 26.9706 26.0224C27.7181 24.865 27.7114 23.9577 27.5004 22.6862L27.2608 21.296C27.1684 20.8173 27.0637 20.3385 27.0125 19.8535L25.582 19.8543C24.688 19.8561 24.8398 19.6993 24.8376 20.6237L24.8352 21.8016C24.8343 22.2283 24.8948 22.5067 24.5328 22.804C24.1336 23.1317 23.6656 22.9142 23.4598 22.4883L23.4456 22.4606C23.3797 22.3245 23.3908 22.1602 23.3904 22.0126L23.3897 19.8731L23.0833 19.8543Z" fill="black"/>
<path d="M20.2473 17.0432C19.2118 16.9499 19.5013 15.642 19.5024 14.8924C19.5035 14.2177 19.2627 13.1916 20.1607 13.0108C20.8854 13.0067 20.8795 13.7028 20.8812 14.228L20.8819 16.0863C20.8807 16.6029 20.8208 16.9256 20.2473 17.0432Z" fill="black"/>
<path d="M24.066 17.0406C23.7133 17.053 23.5261 16.9306 23.366 16.6059L23.353 16.5809C23.243 16.363 23.263 16.0875 23.2613 15.8505L23.2583 15.0695C23.258 14.381 23.0533 13.3852 23.8121 13.0357C24.6741 12.9351 24.6266 13.666 24.6266 14.3007C24.6266 14.62 24.6794 16.4735 24.5777 16.6285L24.5609 16.6527C24.4322 16.8499 24.2912 16.9659 24.066 17.0406Z" fill="black"/>
<path d="M27.9349 17.037C27.5929 17.0506 27.3796 16.9856 27.1968 16.6647L27.1628 16.6042C27.0142 16.3313 27.11 15.1688 27.1102 14.8089L27.1096 13.9203C27.1103 13.4388 27.1363 13.2301 27.6383 13.0354C28.2883 13.0103 28.4728 13.3712 28.4751 13.9972L28.4757 15.8717C28.475 16.4022 28.5398 16.8071 27.9349 17.037Z" fill="black"/>
<path d="M22.3035 16.3279C21.9775 16.3965 21.7406 16.2773 21.5268 16.0209C21.3752 15.8391 21.4442 15.4956 21.4439 15.2775C21.4429 14.6896 21.2569 14.0636 21.8958 13.7845C22.8717 13.7164 22.7621 14.7298 22.7593 15.4108C22.7588 15.5434 22.775 15.7322 22.7308 15.8587L22.6895 15.9718C22.618 16.1587 22.4776 16.2481 22.3035 16.3279Z" fill="black"/>
<path d="M25.9922 16.3403C25.3369 16.4551 25.1736 15.8944 25.1724 15.3838L25.1909 14.6449C25.2174 14.2104 25.2201 13.9791 25.6609 13.7859C26.0977 13.7308 26.4124 13.912 26.4886 14.3787C26.5299 14.6318 26.5525 15.7004 26.4674 15.9097L26.4578 15.932C26.3701 16.1471 26.2139 16.2717 25.9922 16.3403Z" fill="black"/>
</svg>
