<svg width="48" height="48" viewBox="0 0 48 48" fill="none" xmlns="http://www.w3.org/2000/svg">
<path d="M28.4009 38.2084C27.7594 37.6092 27.5639 36.8703 27.2867 36.0695L24.1528 26.6964C24.1001 26.519 24.0352 26.3478 23.9971 26.1661L23.2977 28.4059L20.8735 35.5663C20.2934 37.1585 20.1159 38.5509 18.1057 38.9407L17.9765 38.9661C17.0581 39.1037 16.2082 38.7956 15.3508 38.5104L12.7459 37.6249C11.8556 37.369 10.963 37.1479 10.0457 37.0144C9.37266 36.9165 8.68374 36.9175 8.02754 36.7228C6.33197 36.2197 5.12738 34.5985 4.90229 32.8769C4.82625 32.2954 4.80783 31.7115 4.76714 31.1275L4.70114 30.4249L4.6958 26.2712C4.8316 23.6071 5.32289 20.574 5.88169 17.9689L6.74232 14.7569C6.89157 14.2717 6.86246 14.2781 6.86358 13.7426L6.86452 11.9812C6.86438 11.718 6.83489 11.412 6.87258 11.1529C7.04269 9.98295 7.98732 9.21082 9.12947 9.0551C9.44349 9.03448 9.76022 9.11351 10.0666 9.17515L13.5135 9.82718L19.5695 10.5002L21.724 10.5941L25.9578 10.5979C26.3348 10.5964 26.7538 10.6047 27.1262 10.5433C27.5848 10.4677 28.3729 10.4813 28.9243 10.439L30.5861 10.3102C32.9487 10.0984 35.317 9.75902 37.6306 9.23102C38.9206 8.9366 40.3117 9.11637 40.8885 10.4664L40.9694 10.6872C41.1581 11.1746 41.1242 11.6987 41.1241 12.2089L41.1248 13.8366C41.1257 14.3249 41.1843 14.724 41.358 15.1893L41.8014 16.6687L42.6091 20.4372L43.2844 25.9598C43.3586 26.6454 43.3187 27.3622 43.3193 28.0527L43.2292 31.4301C43.1774 32.0821 43.1369 32.7387 42.9969 33.3798C42.6129 35.1383 41.2607 36.4645 39.5003 36.8515C39.1903 36.9197 38.886 36.92 38.5729 36.953C37.2307 37.0946 35.8927 37.3824 34.6174 37.8281L32.6445 38.5224C31.1605 39.0214 29.7022 39.315 28.4009 38.2084ZM9.13983 10.3174C8.07183 10.5923 8.13165 11.094 8.1308 11.9342L8.13141 13.6984L10.545 14.0946C10.7675 14.1219 10.9912 14.1657 11.215 14.1783L11.2971 14.1737C11.3732 14.016 11.4169 13.8247 11.4659 13.6563L12.1934 10.8806L10.4273 10.537C10.029 10.458 9.54099 10.2894 9.13983 10.3174ZM38.615 10.3174L36.9409 10.681C36.5682 10.7509 36.1659 10.7714 35.8058 10.887L36.5041 13.5485C36.5663 13.7504 36.577 14.0107 36.66 14.1983L37.0317 14.1621C37.8012 14.0927 38.5728 13.9345 39.3318 13.7931C39.4991 13.762 39.7074 13.7622 39.864 13.7044L39.8639 12.0793C39.8626 11.2618 39.8009 10.279 38.632 10.3165L38.615 10.3174ZM13.4191 11.1122C13.2785 11.5227 13.2038 11.9372 13.09 12.3531L12.7292 13.6912C12.6768 13.8758 12.6545 14.0944 12.5786 14.2677C13.0711 14.2908 13.5588 14.3441 14.051 14.3762L17.1994 14.5628C17.4193 14.5787 17.6304 14.6216 17.8519 14.6302C18.8546 14.669 19.8579 14.7131 20.8603 14.7597L21.4377 14.8121C22.1734 14.8504 22.9299 14.8147 23.6675 14.8148L26.6462 14.811C26.8818 14.804 27.1152 14.7626 27.3518 14.7535L28.3544 14.7345C28.5327 14.7302 28.7168 14.7353 28.8925 14.7025L29.1128 14.6727C29.2733 14.6381 29.4579 14.645 29.6221 14.6429L30.574 14.6253C30.7235 14.6171 30.864 14.585 31.0106 14.5719L32.3423 14.4739C33.2052 14.4177 34.0815 14.4042 34.9403 14.2985L35.3956 14.2624L34.5898 11.102C34.0115 11.2219 33.4216 11.2865 32.8361 11.3591L28.6643 11.7789C28.2646 11.8189 27.8341 11.7538 27.4423 11.8209C26.6874 11.95 25.8702 11.8972 25.1044 11.9032C24.692 11.9064 24.2822 11.9642 23.8713 11.9639C23.5138 11.9636 23.1644 11.9201 22.8094 11.9081L19.4804 11.7814L14.405 11.2502C14.0855 11.2082 13.7301 11.1911 13.4191 11.1122ZM39.9721 14.9177L39.9307 14.9327C39.6576 15.03 39.3727 15.0727 39.0881 15.1198L34.5584 15.6179L32.6955 15.7426C32.0815 15.7834 31.4662 15.747 30.8523 15.8168C31.0364 16.4623 30.9376 17.2209 30.8453 17.8708C30.4441 20.6961 28.0915 23.8542 25.2863 24.6829L24.8615 24.794L27.2373 32.1325C27.2989 32.3021 27.3468 32.4813 27.4143 32.6473L27.5685 33.0655L27.7761 33.6766C28.7412 33.6873 29.7316 33.5372 30.6837 33.3948L36.8857 32.4655L39.5818 32.2411C39.6993 32.2322 39.8125 32.2077 39.9316 32.2026L41.952 32.1934C42.0175 31.8106 42.0111 31.3982 42.0309 31.0104L42.0977 26.5524L41.65 22.4059C41.411 20.7822 41.1316 19.1807 40.7463 17.5835L39.9721 14.9177ZM7.99861 14.9234C6.96971 18.203 6.333 21.6074 6.05035 25.0312L5.90204 28.331C5.90189 29.1162 5.89861 29.8747 5.96405 30.6559C6.00755 31.175 5.97699 31.6815 6.06216 32.2001C7.75041 32.1952 9.42249 32.275 11.1003 32.4641L16.8111 33.3657L20.2345 33.6778L20.4601 32.9966L23.126 24.8369L22.4045 24.5666C19.127 23.2536 16.8071 19.7705 17.0895 16.2276C17.1006 16.0885 17.1583 15.961 17.1728 15.8229L13.875 15.6132C13.7146 15.6011 13.555 15.5681 13.3915 15.5586L9.19941 15.1666C8.80111 15.1066 8.38355 15.0425 7.99861 14.9234ZM18.6068 15.9489C17.9958 16.3338 18.4079 18.1772 18.6022 18.7006L18.6889 18.9489C19.5036 20.9979 21.1204 23.0302 23.3494 23.558L23.3426 20.22C23.3386 19.099 23.2928 17.1566 23.6155 16.0836L22.6253 16.0788C22.438 16.0694 22.2551 16.0406 22.0664 16.038L18.9732 15.9641C18.8511 15.9552 18.7287 15.9325 18.6068 15.9489ZM29.1763 15.9724C28.5726 16.0292 27.9734 16.025 27.3683 16.0407L25.3637 16.0875C24.8417 16.0885 24.9053 15.9645 24.7997 16.4467C24.6606 17.0825 24.5951 18.0387 24.5702 18.721L24.5663 21.118C24.5712 21.4049 24.6199 21.6882 24.6259 21.9747C24.6365 22.4784 24.5833 23.0037 24.6404 23.5032L24.675 23.5383C24.7864 23.5228 24.8855 23.4859 24.9904 23.4475C26.6681 22.8263 28.2012 21.4069 28.9561 19.7692C29.4915 18.6078 29.9533 17.2385 29.5929 15.96L29.1763 15.9724ZM6.41789 33.4278L6.33361 33.4482C6.53546 34.5321 7.7805 35.4456 8.82441 35.6237C8.95913 35.6467 9.10069 35.6473 9.23691 35.6628L10.5939 35.8349L12.4542 36.2465L14.5936 36.9258C15.8093 37.3606 18.0202 38.3976 18.9831 37.0431C19.4074 36.3703 19.4745 35.579 19.7939 34.8749L18.8478 34.8405L11.9768 33.8417L9.17086 33.5209C8.97441 33.5042 8.78143 33.4666 8.58493 33.4548L6.41789 33.4278ZM40.3507 33.4294C39.9699 33.4349 39.5353 33.4043 39.1616 33.4753L28.1973 34.8974C28.2162 34.9796 28.2322 35.056 28.2685 35.1325L28.6268 36.152C28.8771 36.7719 29.0233 37.266 29.6818 37.5717C30.5811 37.8832 31.4479 37.6157 32.3088 37.3123L34.1993 36.6347C36.0156 36.0543 37.2351 35.8388 39.1423 35.628C40.2526 35.5053 41.3887 34.5227 41.6736 33.4303L40.3507 33.4294Z" fill="black"/>
</svg>
