<svg width="48" height="48" viewBox="0 0 48 48" fill="none" xmlns="http://www.w3.org/2000/svg">
<path d="M27.2316 38.3409L25.5347 33.7732L24.2591 30.7909C24.2064 30.6679 24.1727 30.4784 24.0588 30.399L24.0349 30.4081C23.9189 30.4642 22.6711 33.1033 22.5811 33.3191C21.9098 34.9297 21.6973 36.6892 21.0847 38.3164C20.8158 39.0309 20.445 38.9797 19.8052 38.9804L14.108 38.9763C12.6544 38.927 11.1463 38.598 9.80375 38.0542L8.58303 37.5074C6.34433 36.4811 4.29701 35.3148 4.57702 32.594L4.68662 31.4298C5.02597 27.6667 5.93493 24.0432 7.09916 20.4555L9.21946 14.4499C9.33022 14.1421 9.39458 13.8981 9.39496 13.5662L9.39571 10.9821C9.39604 10.2606 9.31579 9.99295 10.0622 9.61495C10.9191 9.18103 11.8959 9.1237 12.8357 9.03328L34.3372 9.01758C35.4092 9.01894 37.4367 9.16645 38.2544 9.81173L38.2796 9.83217C38.358 9.89456 38.4222 9.94955 38.4757 10.0355L38.4963 10.0694C38.6939 10.3873 38.5966 10.8238 38.5968 11.1815L38.597 13.2758C38.597 13.4984 38.5501 13.8428 38.6279 14.0442L40.1064 18.2718L41.7342 23.4907C41.9554 24.0928 42.1588 24.7725 42.2698 25.3993C42.3266 25.7193 42.4498 26.0411 42.5226 26.3593L42.8389 27.9106C42.8841 28.1503 42.9539 28.3903 42.9893 28.6323L43.3598 31.5119C43.4476 32.5351 43.5567 33.5991 43.3332 34.6111L43.2523 34.8849C42.7605 36.3855 41.3224 37.0346 39.9699 37.5567C37.4383 38.5339 35.2282 38.979 32.5469 38.9805L28.585 38.9805C27.9041 38.9795 27.5693 39.0323 27.2316 38.3409ZM6.23549 34.1504C6.60782 34.9315 8.90507 36.0927 9.68094 36.418L11.1777 37.0103C12.2773 37.4007 13.3732 37.5178 14.527 37.5188L19.8599 37.5138C19.8697 37.4807 19.8763 37.4526 19.8812 37.4182L19.9496 37.0726C19.9756 36.9854 19.9768 36.8955 20.0322 36.8199L16.3523 36.819C15.6396 36.819 14.9125 36.852 14.2026 36.7903C11.6172 36.5654 9.29605 35.8193 7.02875 34.6001L6.50975 34.3041C6.43077 34.2563 6.32272 34.1723 6.23549 34.1504ZM13.353 10.4829L12.1969 10.561C12.3152 10.5893 12.4229 10.6361 12.5377 10.6668L13.8426 10.9805L17.6434 11.6201L19.9861 11.8489C20.147 11.8648 20.3028 11.8972 20.4643 11.9081L22.3713 12.0063L25.9903 12.0073C26.2128 11.9999 26.4317 11.9548 26.6543 11.9436L31.3739 11.5197L33.7163 11.0919L35.7267 10.5633L35.0158 10.4939L13.353 10.4829ZM10.8103 11.6603C10.7895 11.873 10.82 12.09 10.8214 12.3038L10.8202 13.1413C10.8193 13.2535 10.79 13.3825 10.8284 13.4884C11.1172 13.6474 11.4631 13.7266 11.7789 13.8209L14.3067 14.4742L17.4839 15.0318C18.2836 15.161 19.0898 15.3015 19.898 15.3703L20.9222 15.4269C21.1357 15.4407 21.3465 15.4754 21.5608 15.4819L25.779 15.4801L28.3291 15.3092C30.4585 15.1109 33.1917 14.7107 35.2697 14.1167L37.0712 13.5615L37.1583 13.522C37.1578 13.3168 37.1857 11.724 37.1406 11.6503C35.2714 12.2886 33.3086 12.6702 31.3573 12.9518L27.5554 13.3819L22.5863 13.4685L20.6721 13.3843C20.4951 13.3728 20.3188 13.3363 20.1418 13.3197L15.5655 12.7822L11.284 11.8157C11.1662 11.7765 10.9179 11.6475 10.8103 11.6603ZM10.5957 14.9183L8.24839 21.648L16.9856 23.1814L18.1832 23.4847C18.3915 23.5357 18.6067 23.6054 18.8184 23.635L18.8219 19.2305C18.8212 18.8684 18.8223 18.4967 18.7439 18.1408C18.6088 17.5278 18.0546 16.5614 17.3784 16.4415L13.6392 15.7913C12.616 15.5682 11.5669 15.3155 10.5957 14.9183ZM37.3746 14.965C37.0773 15.0945 36.7573 15.1835 36.4474 15.2784L35.1213 15.659C33.8069 15.9894 32.4758 16.2834 31.1334 16.4754L27.9728 16.7711C27.9277 16.9552 27.9982 17.2285 28.0262 17.4169L29.0158 22.7111C29.0749 23.0562 29.0334 23.5038 29.1301 23.826L30.176 23.6239L39.7828 21.9099L37.4416 14.9726C37.4196 14.9697 37.3967 14.9651 37.3746 14.965ZM19.7282 16.7481C20.0274 17.3792 20.2261 17.9927 20.2268 18.6972L20.2273 22.4714C20.2267 25.4234 20.0611 26.9758 22.947 28.8377C23.1142 28.9456 23.2821 29.0666 23.4701 29.1356C23.7897 29.0543 24.0978 29.0016 24.4106 29.1385C25.159 28.7727 25.7844 28.3211 26.3837 27.7422C28.18 25.9023 27.8609 23.9616 27.4044 21.6564L26.8927 19.0863C26.8438 18.8329 26.5373 16.9179 26.5197 16.8835L19.7282 16.7481ZM7.81522 23.0213C7.14566 25.0145 6.55696 27.6287 6.2863 29.6912L6.09275 31.4944C6.06711 31.8097 6.06552 32.1267 6.02403 32.4409C6.17699 32.5355 6.35258 32.598 6.51252 32.6825L9.5121 34.2136C10.7553 34.7538 12.0469 35.1354 13.3947 35.281L14.801 35.4253L20.4241 35.4268C20.4466 35.3702 20.4688 35.318 20.4812 35.258L20.965 33.6032C21.3761 32.4499 21.9262 31.329 22.4934 30.2451C20.3931 29.0732 19.1306 27.4107 18.8213 25.054L7.81522 23.0213ZM40.1376 23.2619L29.9923 25.1089C28.6291 25.4 29.2933 25.2214 28.8695 26.4656C28.3921 27.8672 27.2113 29.1425 25.9771 29.9322C25.3845 30.3114 25.5506 30.1906 25.8986 30.9555L26.3684 32.0509C26.4259 32.1848 26.4942 32.3218 26.5366 32.4613L27.568 35.3622L27.587 35.4276C27.8628 35.4695 28.1785 35.4399 28.4584 35.4388L33.3154 35.4297C36.104 35.3098 38.8468 34.512 41.1742 32.961L41.6803 32.6105C41.7833 32.5361 41.8905 32.4402 42.0041 32.3842L41.8048 30.2584C41.5565 28.3184 41.1373 26.4074 40.5788 24.5331L40.218 23.297C40.1814 23.2665 40.1893 23.2643 40.1376 23.2619ZM41.8974 34.2055C39.1683 35.8492 36.6686 36.6527 33.455 36.8149L28.1993 36.8438C28.2893 36.9807 28.3383 37.1992 28.3956 37.3559C28.4543 37.6199 28.6375 37.5192 28.8719 37.5187L32.6073 37.5189C33.5904 37.5182 34.1386 37.4952 35.1031 37.3513L36.551 37.101C37.5478 36.892 38.5237 36.5633 39.4711 36.1948L40.2189 35.9047C41.0144 35.5526 41.7467 35.1173 41.8974 34.2055Z" fill="black"/>
</svg>
