<svg width="48" height="48" viewBox="0 0 48 48" fill="none" xmlns="http://www.w3.org/2000/svg">
<path d="M26.6112 36.8029C26.0543 35.5185 25.9411 34.0657 25.9437 32.6844L25.9533 31.8989C25.9639 31.6165 25.9819 31.5656 25.8416 31.3224L25.202 29.9957L24.2717 27.6421C24.1891 27.4354 24.1141 27.1201 23.9762 26.9498C23.7987 27.3527 23.6732 27.7806 23.5182 28.193L22.7227 30.1695C22.5699 30.5252 22.4051 30.8693 22.2175 31.2081C21.9205 31.7442 21.9866 31.2913 22.0254 32.0263L22.0327 32.6076C22.0349 34.1615 21.9223 35.4328 21.3408 36.9107C20.6431 38.6842 19.535 40.1949 17.4844 40.1958L15.3969 40.1052C13.8338 39.9748 12.4425 39.6917 10.9351 39.3065L9.01339 38.7815C7.33812 38.2409 5.72609 37.4742 4.24928 36.5169L3.50818 35.9854C2.93025 35.5376 2.92577 35.4178 2.92524 34.7475C2.92469 34.0598 2.90783 33.2942 3.04574 32.6155L3.3271 31.1399C3.65851 29.7046 4.29581 28.3249 5.08325 27.0855C5.28341 26.7704 5.53414 26.4679 5.71662 26.1446C5.7943 26.007 5.81848 25.8347 5.88191 25.6875C7.26509 22.4791 7.88675 19.6588 8.50461 16.2071L8.96052 13.6177C9.12355 12.8665 9.31564 12.0996 9.55119 11.3679L10.6018 8.60451C10.7938 8.15826 10.9538 7.84335 11.4894 7.78898L36.5754 7.78809C37.1948 7.81405 37.6093 8.96976 37.7906 9.53577L38.6335 11.9991C38.7174 12.2254 38.7517 12.4813 38.813 12.7149L39.0937 13.9922C39.2623 14.6681 39.3492 15.3579 39.4691 16.043L39.9858 18.7383C40.0506 19.0161 40.0828 19.3049 40.1525 19.5821L40.4839 20.9963C40.5155 21.1521 40.553 21.3305 40.6112 21.4761L41.971 25.4532C42.2678 26.1786 42.3098 26.1755 42.7612 26.8432C43.1867 27.4727 43.6026 28.1817 43.8875 28.8866L44.6327 31.0652C44.9085 31.8576 45.2329 34.9578 45.0289 35.3986C44.8729 35.7358 44.5602 35.952 44.268 36.1611L43.33 36.766C40.24 38.5792 36.759 39.787 33.1795 40.1094C32.8084 40.1428 32.4345 40.1275 32.0626 40.1534L30.458 40.1958C30.2623 40.1959 30.0426 40.2152 29.8493 40.1894C28.1898 39.9682 27.1342 38.2298 26.6112 36.8029ZM11.9609 9.28996L10.9958 11.738C13.3771 12.511 15.9597 12.7665 18.4395 12.9713L20.6084 13.151L24.5067 13.2229L27.9015 13.1303L32.5079 12.6537L35.1226 12.1942L36.9882 11.7272C36.9865 11.4139 36.2172 9.62418 36.065 9.3118C35.9908 9.27604 35.8726 9.29474 35.7905 9.29554L13.3666 9.29868C12.9062 9.29854 12.4177 9.33126 11.9609 9.28996ZM10.6131 13.1899C10.3089 14.1777 10.1565 15.2446 9.98928 16.264L9.24495 20.1739C8.93492 21.5228 8.54286 22.8564 8.08625 24.163L7.72747 25.1249C7.63222 25.3644 7.5178 25.6016 7.44828 25.8503C7.97319 26.5452 9.09491 27.2566 9.82494 27.6971C11.6146 28.777 14.393 29.8162 16.5137 30.1117L17.5665 30.281C18.6332 30.4245 19.9759 30.4876 21.0306 30.3252L23.0723 25.2059C22.643 24.645 22.2736 24.0403 21.8885 23.4491C21.6405 23.0684 21.1383 22.5522 21.3018 22.0547L21.3107 22.0269C21.4855 21.5158 22.1831 21.4192 22.5497 21.7724C22.7281 21.9442 22.8671 22.204 23.0079 22.4087L24.0604 23.9076C24.2337 23.4845 24.4355 22.7993 24.8988 22.6139C25.3001 22.4533 25.8063 22.5747 25.969 23.0039L25.982 23.0368C26.1705 23.5227 25.7044 24.0046 25.4603 24.3802L24.9205 25.24L26.7237 29.8069C26.9958 30.5729 27.2338 30.3908 27.9829 30.3944L29.326 30.3873C30.9242 30.3054 32.4475 29.9451 33.9786 29.5123L35.4856 28.9956C36.8354 28.476 38.2132 27.7828 39.3635 26.8993C39.784 26.5764 40.153 26.2023 40.5538 25.8573L39.849 24.0325L39.1037 21.6018L38.1897 17.3513L37.4019 13.1944C35.495 13.7049 33.5436 14.0787 31.5827 14.3094L28.9665 14.6014C28.6907 14.6348 28.4051 14.6179 28.1323 14.6722C28.5021 15.0873 28.8943 15.5788 29.0918 16.0992L29.2914 16.7316C29.3373 16.9239 29.3394 17.1831 29.2811 17.3706L29.2693 17.4114C28.9575 18.4733 27.8849 18.4803 26.9895 18.1932C25.8014 17.8122 24.8361 16.9444 24.2614 15.8438C24.1699 15.6687 24.1043 15.5108 23.9814 15.352C23.7193 15.6731 23.5626 16.1144 23.3362 16.467C22.7097 17.4426 21.5202 18.2153 20.3602 18.3488C19.5264 18.4447 18.8284 18.0728 18.6987 17.2032L18.6928 17.1662C18.5855 16.4064 19.206 15.4533 19.6407 14.8946L19.8459 14.6319L15.6372 14.2181C14.2724 14.0546 11.9235 13.6675 10.6131 13.1899ZM21.8652 14.7246C21.2975 15.4146 20.5535 15.9924 20.2212 16.8408C20.4142 16.8232 20.58 16.7647 20.7587 16.6918C21.6035 16.3514 22.2705 15.6408 22.4709 14.744L21.8652 14.7246ZM25.5708 14.7539L25.49 14.7774L25.6894 15.2927C25.9876 16.1031 26.9269 16.65 27.7384 16.8462L27.7872 16.8272C27.4187 15.9073 26.6849 15.4928 26.1778 14.7467C25.9775 14.7451 25.7699 14.7322 25.5708 14.7539ZM41.2552 27.2799C40.8419 27.6113 40.459 27.9823 40.0262 28.29C37.3612 30.1847 33.2147 31.676 29.8948 31.8663L28.6269 31.8776C28.2677 31.8775 27.9046 31.8882 27.5467 31.856C27.4476 31.8471 27.471 31.9282 27.4611 32.0219C27.3712 32.868 27.3891 34.5574 27.6923 35.3695L27.7535 35.5852C27.7644 35.6333 27.7806 35.6728 27.7976 35.7188L27.9542 36.1789C28.0427 36.3851 28.118 36.5948 28.2183 36.7969L28.5787 37.4689C28.8482 37.9821 29.311 38.3968 29.833 38.6347C30.0349 38.6886 30.2348 38.6491 30.4398 38.6439L32.3931 38.6303C35.9481 38.4344 40.4907 37.0519 43.3563 34.9497C43.4533 34.8786 43.5339 34.8492 43.6167 34.7547C43.6131 32.2847 42.8032 29.2678 41.2552 27.2799ZM6.75898 27.2959C5.33375 29.1624 4.58643 31.4038 4.40342 33.7266L4.3578 34.7206C4.66736 35.0041 5.06998 35.2471 5.42459 35.474C8.27609 37.2982 12.6776 38.4447 16.0862 38.6299L17.0929 38.6394C17.4287 38.6396 17.8202 38.7044 18.1471 38.6218C19.6815 37.9867 20.4333 35.414 20.5467 33.8921C20.5769 33.4856 20.6127 32.2313 20.508 31.8649C19.6916 31.8657 18.8613 31.9201 18.0472 31.8557C14.0727 31.5411 9.71848 29.9577 6.75898 27.2959Z" fill="black"/>
</svg>
