<svg width="48" height="48" viewBox="0 0 48 48" fill="none" xmlns="http://www.w3.org/2000/svg">
<path d="M17.6015 39.4665C15.6796 38.9713 13.7789 38.3378 11.8241 37.9805L9.53467 37.6052C7.61247 37.3607 5.60045 37.208 4.03394 35.9397C2.56731 34.7523 2.46297 33.5224 2.81264 31.8279L3.71888 27.1521L4.46373 22.8843C4.65601 22.0384 4.92648 21.1996 5.20375 20.3772L6.80847 16.4809C7.22551 15.3944 7.52556 14.2785 7.52298 13.1096L7.51919 11.85C7.51689 10.6787 7.95025 8.49964 9.32491 8.39708C9.51602 8.38283 9.70487 8.4598 9.88619 8.50658L13.0428 9.2794L15.2544 9.67137C15.9212 9.75819 16.6148 9.83544 17.2864 9.86225L30.8297 9.86211C32.8834 9.78528 35.0745 9.45926 36.996 8.7178L38.5404 8.04167C40.1541 7.8868 40.4696 11.0233 40.4714 12.1088L40.4774 13.744C40.4938 14.0909 40.5834 14.446 40.6497 14.7851L40.7522 15.2331C40.807 15.4743 40.891 15.7009 40.9668 15.9372L41.9023 18.1872C42.0516 18.4858 42.1699 18.8011 42.2945 19.1098L43.394 22.3504C43.4151 22.464 43.4628 22.5687 43.4838 22.6826L43.8162 24.1496C43.8461 24.2592 43.8529 24.3699 43.8746 24.4802L44.8606 30.1755C44.8813 30.2761 44.8847 30.3801 44.906 30.4802L45.1876 31.9568C45.4495 33.1704 45.539 33.8774 44.822 34.9615C43.1679 37.4624 39.7287 37.5399 37.0663 37.8997C34.8389 38.2008 32.7045 38.814 30.5629 39.4766C30.0757 39.6273 29.5908 39.7945 29.091 39.8997L29.0148 39.9156C28.0039 40.103 27.7722 39.1992 27.4362 38.4455L26.5514 36.3761C26.4347 36.0873 26.3463 35.7837 26.2228 35.4988C25.9245 34.8104 25.6128 34.3246 25.3488 33.5655L24.82 31.8282C24.7522 31.5845 24.7138 31.3203 24.6242 31.0843C24.4131 30.528 23.6475 30.5004 23.3986 31.0302C23.3212 31.1949 23.293 31.3961 23.2562 31.5739L22.7613 33.389C22.5299 34.1006 22.1962 34.764 21.901 35.449L21.0878 37.2967C20.7441 38.0544 20.2298 39.4935 19.3232 39.7021L19.2889 39.7098C18.7343 39.8384 18.1342 39.6148 17.6015 39.4665ZM38.4574 9.71459C37.3063 10.2666 36.0813 10.6068 34.8355 10.8656L32.6835 11.2326C31.6762 11.339 30.88 11.3682 29.8575 11.3685L18.0534 11.3674C16.1471 11.3639 14.2994 11.0898 12.4371 10.6752L9.66587 9.97095C9.04933 9.78378 8.97283 11.8073 8.97597 12.167C9.04942 12.1977 9.12025 12.2258 9.19755 12.2453L10.1541 12.5779C11.1072 12.9095 12.0925 13.1408 13.078 13.3518L15.2108 13.7803C16.0748 13.927 16.9646 13.9994 17.8358 14.0869L18.4608 14.1592C18.9289 14.1941 19.401 14.2564 19.8683 14.2787L23.2601 14.3159C23.7015 14.0471 24.1175 13.7349 24.6245 14.2592C24.7541 14.3932 24.7827 14.339 24.9704 14.3242L28.2115 14.276C28.4837 14.2623 28.7484 14.2169 29.0178 14.1941L33.3749 13.6702C34.8708 13.4152 36.3625 13.0731 37.8092 12.61L38.7382 12.3142C38.8169 12.2884 38.9056 12.2888 38.972 12.2347L39.0035 12.207C39 11.5573 38.9077 10.2751 38.514 9.71989L38.4574 9.71459ZM9.0213 13.7919C8.97737 14.0462 8.97442 14.3091 8.917 14.5596L8.79887 15.1668C8.4813 16.5852 7.80522 17.8776 7.23311 19.2032C6.57686 20.7238 6.05491 22.3486 5.7272 23.9735L4.7642 29.5399C5.73995 30.1051 6.82056 30.5207 7.86498 30.9402L13.0345 32.7505L19.1779 34.4556C19.6238 34.5637 20.097 34.6359 20.5307 34.7832C20.9579 34.0299 21.2709 33.1992 21.5176 32.3708L21.7807 31.3651C21.8342 31.1291 21.8692 30.877 21.9525 30.6502C22.6023 28.8807 25.1511 28.6117 25.9352 30.4246L26.3542 31.833C26.362 31.8678 26.3722 31.8979 26.3838 31.9313L26.7683 33.1404C26.9916 33.7037 27.2275 34.2144 27.526 34.7437L33.9491 33.0914L38.0253 31.7596L43.2273 29.639C43.2298 29.5207 43.1789 29.3767 43.1593 29.2567L42.3694 24.4127C42.2006 23.5661 41.9853 22.6927 41.7243 21.8701L41.2818 20.5957L40.6655 19.0332C39.9322 17.3528 39.0974 15.6889 39.0094 13.8188C36.3664 14.8344 33.4665 15.2794 30.6678 15.5752L29.032 15.7311L25.7945 15.8329C25.8502 15.8869 25.8651 15.975 25.9011 16.0427C26.5749 17.3111 27.02 17.8769 27.234 19.3357C27.5722 21.641 26.4096 24.2479 24.2343 25.2196C23.887 25.3747 23.452 25.5848 23.0952 25.3433C22.7484 25.1085 22.668 24.5816 22.9335 24.2577C23.1626 23.9781 23.6673 23.8504 23.9798 23.6647C25.3188 22.8691 25.888 21.2763 25.7926 19.7795C25.7162 18.5796 25.0705 17.533 24.4187 16.5647C23.9184 15.8214 24.152 15.8073 23.6664 16.4011C23.09 17.1061 22.3563 17.8554 22.2164 18.7981C21.9941 20.2964 21.9736 21.0606 20.9347 22.3859C19.8589 23.7582 19.1366 22.4636 19.4782 21.8318C19.566 21.6693 19.7083 21.5316 19.8225 21.3865C20.3238 20.7493 20.599 20.0013 20.7019 19.201C20.8509 18.0428 21.0011 17.4425 21.7194 16.4301C21.8098 16.3027 22.0794 15.9054 22.1873 15.8173L20.6461 15.7546C19.8625 15.7375 19.1813 15.6836 18.4115 15.6339L17.3104 15.5334C14.9873 15.2562 12.7028 14.9479 10.453 14.2801C9.98111 14.14 9.46586 14.0016 9.0213 13.7919ZM4.49258 31.071C4.43803 31.2633 4.41464 31.4539 4.36908 31.6463L4.17788 32.5743C4.11252 32.917 4.04737 33.2975 4.16319 33.6365L4.18341 33.7062C4.63957 35.4485 7.50784 35.8739 8.953 36.0275L13.3862 36.7881L18.8847 38.259L19.148 37.834L19.9642 36.1865L16.6724 35.3667L9.38734 33.1093L6.44012 31.9585C5.7948 31.6732 5.11009 31.4129 4.49258 31.071ZM43.4513 31.1833L40.453 32.4372L34.4647 34.4975L28.0532 36.0983L28.1328 36.316C28.1447 36.3536 28.1602 36.3857 28.1763 36.4216L28.8658 38.0326L28.8866 38.0701C28.9363 38.161 28.966 38.2904 29.0345 38.3653C29.8005 38.191 30.5395 37.9131 31.2929 37.6945L35.2264 36.6798C35.5007 36.6173 35.782 36.5844 36.0585 36.5353L38.311 36.2299C38.9692 36.1617 39.6901 36.1221 40.3302 35.9412L41.4711 35.6134C42.3287 35.3523 43.2474 34.7959 43.6773 33.9904C44.0776 33.2406 43.769 32.4569 43.6085 31.6808C43.5752 31.52 43.562 31.3446 43.516 31.1883L43.4513 31.1833Z" fill="black"/>
</svg>
