<svg width="48" height="48" viewBox="0 0 48 48" fill="none" xmlns="http://www.w3.org/2000/svg">
<path d="M30.6217 40.479L27.6914 40.3164C26.9366 40.2334 26.4447 40.3687 26.3077 39.4738C26.26 39.1619 26.3215 37.7045 26.2235 37.6039C26.1105 37.488 26.0448 37.3288 25.9787 37.1826L24.01 32.2858L22.1137 36.964C21.8786 37.5081 21.7218 37.4492 21.724 38.0686L21.7189 39.0452C21.7162 39.2696 21.7216 39.5032 21.6674 39.7221L21.6454 39.8137C21.5243 40.1638 21.1489 40.1891 20.8427 40.2404L18.773 40.4738C16.3972 40.5839 13.9456 40.1486 11.6724 39.5042L4.83985 37.4764C4.2176 37.2792 4.14755 37.0242 4.14378 36.4451C4.13939 35.7705 4.20081 35.2278 4.22216 34.5817L4.24944 33.4912C4.25687 33.3696 4.28384 33.253 4.29341 33.1312L4.82706 27.6514L5.86942 21.905L6.34979 19.7613L7.77038 14.6311L8.50956 11.5749C8.64451 11.0108 8.64043 10.88 8.64137 10.2779L8.64324 8.56763C8.64381 8.03888 8.62459 7.7242 9.21807 7.52934L38.1349 7.51758C39.372 7.51861 39.3427 7.65684 39.3437 8.95036L39.3446 10.637C39.3452 11.1422 39.3469 11.0389 39.457 11.4605L39.9765 13.656C40.0624 14.021 40.1129 14.4201 40.2339 14.774L41.1444 17.9454C41.1632 18.0525 41.2097 18.1503 41.231 18.2581L41.5207 19.3976C41.5269 19.4371 41.5336 19.4715 41.5455 19.51L41.7062 20.1609C41.7206 20.2452 41.7547 20.3204 41.7741 20.403L42.6107 24.2464L43.2588 28.3626L43.7983 34.5677C43.8085 34.7681 43.8433 34.9685 43.8491 35.1682L43.8504 36.3137C43.8489 36.7763 43.8926 37.2009 43.3696 37.4084C42.9429 37.5776 42.4692 37.6781 42.0288 37.8136L36.0979 39.5857C34.2989 40.0933 32.5037 40.4713 30.6217 40.479ZM10.0468 8.98167C10.0254 9.47372 9.99338 10.0261 10.0562 10.5121L37.8399 10.5175L37.9336 10.5118C37.957 10.3714 37.923 10.2 37.9202 10.055L37.9183 8.98584L10.0468 8.98167ZM9.81624 11.9819L9.05692 15.1205L7.56128 20.6136L6.47453 25.9066L5.9079 30.1995L5.68956 32.626C6.21235 32.8252 6.81184 32.9089 7.35774 33.0354C9.21315 33.4655 11.0058 33.9467 12.746 34.7366L13.9047 35.3125C15.9847 36.2616 17.8372 36.6216 20.1536 36.4676L20.8663 36.3862L21.964 33.7305C22.4706 32.509 23.0182 31.2839 23.2439 29.9722C23.3073 29.6034 23.2328 29.1136 23.4241 28.7873C23.7374 28.2528 24.4607 28.3761 24.6442 28.936C24.7337 29.209 24.7011 29.5124 24.7354 29.7935C24.7937 30.2711 24.9053 30.8159 25.0787 31.2659L27.1191 36.3698C28.8842 36.7439 31.6911 36.3451 33.2915 35.6626L34.9922 34.8495C37.3117 33.7512 39.7999 33.2505 42.284 32.6652L40.5896 21.3445L38.7031 14.2491L38.285 12.4224C38.2567 12.3021 38.2464 12.0803 38.1667 11.9829L34.9661 11.9816C34.8451 11.9815 34.712 11.9683 34.5938 11.9907C34.7202 14.3022 36.1847 16.8136 37.6418 18.5127L38.3081 19.2243C38.6574 19.5847 39.1374 20.0518 38.7044 20.5543C38.3878 20.9216 37.9967 20.8804 37.6574 20.566C35.4219 18.495 33.4037 14.9931 33.2026 11.9845L26.2336 11.9859C26.2032 12.5039 26.2219 13.0302 26.2221 13.5491L26.2222 17.2315C26.2202 18.9683 25.2327 20.3466 23.4132 20.5623L23.4113 24.2784C23.411 24.4047 23.426 24.5501 23.4009 24.6729C23.2832 25.2488 22.4448 25.3247 22.1274 24.7151L22.1144 24.6914C21.9916 24.4649 22.0527 24.1222 22.0525 23.8744L22.0535 19.9643C22.0539 19.7891 22.0369 19.6349 22.1319 19.4814L22.1494 19.4516C22.2262 19.3258 22.3405 19.2436 22.4766 19.1917L22.5076 19.1797C22.7848 19.0761 23.1301 19.1711 23.4258 19.1338L23.4619 19.1294C24.0836 19.0458 24.5103 18.5364 24.7164 17.9836C24.8145 17.7206 24.7742 17.3766 24.7744 17.0977L24.7738 11.9834L9.81624 11.9819ZM5.58409 34.0728C5.53726 34.2986 5.4639 36.0039 5.52901 36.2314C5.61817 36.2768 5.70742 36.2828 5.80079 36.3113L11.4375 37.9971C12.893 38.4218 14.3068 38.8029 15.8174 38.94L19.3785 39.0134C19.657 39.0007 19.9375 38.9616 20.2149 38.9314L20.322 38.9182C20.3363 38.7394 20.3927 37.9867 20.3266 37.828C19.083 37.9918 17.8198 37.8538 16.5887 37.6584C14.7369 37.3644 13.6111 36.6367 11.9334 35.921C10.871 35.4678 9.7794 35.1075 8.66462 34.8071L7.2271 34.4593C6.68251 34.3262 6.13928 34.1559 5.58409 34.0728ZM42.3685 34.1136C41.7722 34.1825 41.1852 34.3567 40.6095 34.498L37.6383 35.3213C36.2979 35.7555 35.4851 36.2455 34.2327 36.7972C32.1421 37.7182 29.9491 37.9983 27.6792 37.8427L27.6992 38.8948C27.7482 38.9264 27.7586 38.9212 27.8146 38.9246C28.1669 38.9496 28.4999 39.0076 28.8548 39.0139L29.9226 39.0192C30.6708 39.0193 31.3885 39.0359 32.1309 38.9465L33.3561 38.8011C34.5484 38.6134 35.7212 38.2589 36.8739 37.9077L42.1707 36.3233C42.2493 36.3019 42.3546 36.2985 42.4254 36.2614L42.4162 34.111L42.3685 34.1136Z" fill="black"/>
<path d="M8.49136 28.0864C7.33425 28.0811 7.81978 26.6635 7.96918 26.0062C8.37207 24.2337 8.95646 22.4914 9.48291 20.7524L9.7388 19.844C9.86414 19.3608 9.90905 18.9232 10.4533 18.7756C11.056 18.7443 11.2439 19.3412 11.1261 19.8331L9.56274 25.266L9.10275 27.1497C8.98964 27.6299 9.01833 27.8997 8.49136 28.0864Z" fill="black"/>
</svg>
