<svg width="48" height="48" viewBox="0 0 48 48" fill="none" xmlns="http://www.w3.org/2000/svg">
<path d="M33.8065 37.4676C33.3252 37.5134 32.8389 37.5014 32.3563 37.501L30.9478 37.4859C29.0782 37.3814 26.07 36.5367 25.0164 34.7975C24.4029 34.8831 23.6214 34.9396 23.008 34.7986L22.8051 35.0472C21.4892 36.9343 17.407 37.6213 15.1002 37.4855L14.487 37.4215C10.3327 37.0371 7.35421 35.1722 6.70237 30.7103L6.46523 28.366C6.45093 28.1996 6.42088 28.0346 6.41216 27.8676L6.40527 26.4393C6.41029 26.194 6.44357 25.9564 6.46251 25.7127L6.96234 21.5391L7.19971 20.4329C7.66045 18.3353 8.36774 16.2245 9.38948 14.3275L9.69946 13.792C9.85766 13.5366 9.85766 13.5219 9.89938 13.2149C10.0991 11.7455 10.977 10.7137 12.5093 10.5088C13.1863 10.3834 13.8648 10.7768 14.5196 10.8743L17.6368 11.2524C18.2136 11.2992 18.8046 11.2788 19.3834 11.2796L21.2691 11.2713C21.5922 11.2572 21.9092 11.1945 22.2298 11.1773L23.9312 11.1706C24.4744 11.1719 24.9999 11.2131 25.5394 11.2793C27.8526 11.563 30.4115 11.4681 32.6954 11.0604C33.4042 10.9339 34.0776 10.6847 34.7799 10.5456C36.3781 10.2291 38.235 11.7063 38.0279 13.3142C38.0177 13.3932 38.236 13.676 38.2843 13.7561L38.8317 14.754C39.011 15.0786 39.1526 15.4392 39.2951 15.7816L40.1255 17.9766C40.3216 18.5845 40.5644 19.216 40.6762 19.8456L41.0336 21.4522L41.5197 25.1087C41.5871 25.6135 41.5869 26.1413 41.5873 26.6497L41.5773 28.015C41.5145 29.2176 41.2542 31.5527 40.8725 32.6368C39.7987 35.6861 36.8661 37.0952 33.8065 37.4676ZM12.6794 11.7268C12.1409 11.8132 11.7359 11.9985 11.4036 12.4498C10.7381 13.3541 11.404 13.4276 12.1662 13.6399C12.7604 13.8055 13.36 13.9037 13.9688 13.9951L15.7084 14.2466L18.0617 14.4409L20.2713 14.5066C20.4711 14.5145 20.6676 14.5627 20.8702 14.5684L28.7566 14.5561L30.5931 14.4372L33.6384 14.0957C34.2488 14.0084 34.8965 13.913 35.4897 13.7436C35.7772 13.678 36.6678 13.4889 36.8289 13.2452C36.7379 12.0725 35.7657 11.5409 34.6702 11.8352L33.8438 12.0491C32.8828 12.2704 31.889 12.4441 30.9071 12.5356L30.2893 12.5744C30.081 12.5919 29.8733 12.6263 29.6646 12.6348L28.1586 12.6405C27.7506 12.6404 27.3364 12.6543 26.9295 12.6276L26.2798 12.5537C25.9528 12.5324 25.6255 12.5467 25.2986 12.5172C24.8837 12.4796 24.4773 12.4036 24.0586 12.3986L22.6922 12.4009C22.4832 12.4087 22.278 12.4553 22.0685 12.4659C19.8387 12.5785 17.5887 12.5662 15.375 12.2403L13.3613 11.8535C13.1359 11.7887 12.9179 11.7092 12.6794 11.7268ZM10.7044 14.4487C10.3259 15.1002 10.0262 15.808 9.73673 16.5027L9.12421 18.0277C8.67674 19.2765 8.3189 20.6436 8.11602 21.9528L9.16968 22.1439C13.0264 22.9282 16.0486 25.0968 18.1814 28.3382C18.6487 29.0485 18.9911 29.8252 19.4076 30.5626C20.9247 33.2473 23.7416 34.7177 26.5412 32.9078C27.73 32.1394 28.3994 30.8555 29.0575 29.6519L29.8543 28.2942C30.301 27.5813 30.8256 26.9323 31.3832 26.3039C33.6554 23.8266 36.607 22.4667 39.8994 21.9752L39.5336 20.23C39.1392 18.6358 38.224 15.8877 37.3018 14.4673C36.4116 14.8074 35.5657 15.014 34.6289 15.19L30.6094 15.7303C30.2309 15.7612 29.8518 15.749 29.4727 15.7605L21.3641 15.8226L18.8234 15.7305L15.0463 15.386C13.5605 15.206 12.1026 15.0092 10.7044 14.4487ZM7.95341 23.1741C7.39602 26.0121 7.54171 29.097 8.1628 31.9014C8.1704 31.9358 8.18268 31.9671 8.19477 32L8.2852 32.2498C9.62399 35.3945 12.5013 36.2287 15.733 36.2359C17.2071 36.2392 18.5916 36.0879 19.9775 35.5267L20.4255 35.318C20.8643 35.0827 21.3396 34.8167 21.6914 34.4604C20.3097 33.6622 19.4571 33.0059 18.5899 31.5683L17.8008 30.119C16.0345 26.9411 13.761 24.7762 10.1832 23.6846L7.95341 23.1741ZM39.8586 23.2365C39.221 23.3005 38.5846 23.4779 37.9724 23.6602C34.3496 24.7389 31.9953 26.8945 30.1967 30.1028L29.4447 31.5024C28.6992 32.7565 27.6129 33.8409 26.2911 34.4702L26.37 34.548C26.7163 34.9047 27.2497 35.2179 27.6891 35.4302C28.4149 35.8222 29.2609 36.0078 30.0694 36.129C34.0847 36.7309 39.0783 35.8906 40.0116 31.18C40.0914 30.7774 40.1139 30.3385 40.1571 29.9298C40.3946 27.6846 40.4665 25.4819 40.1029 23.2489C40.0564 23.2106 39.9222 23.2343 39.8586 23.2365Z" fill="black"/>
</svg>
