<svg width="48" height="48" viewBox="0 0 48 48" fill="none" xmlns="http://www.w3.org/2000/svg">
<path d="M18.3784 40.8739L16.7358 40.3053C13.7959 39.2904 10.7653 38.4616 7.68986 37.9801L4.57995 37.6029C4.26389 37.5744 3.92453 37.6232 3.61401 37.5603C3.08224 37.4526 3.09248 36.6552 3.09283 36.2704L3.10301 35.304C3.11502 34.8818 3.17592 34.4647 3.21133 34.0426L3.70084 30.2223L4.63496 25.7178L5.82419 21.4046L7.28927 16.9739C7.76824 15.7101 8.28157 14.4603 9.0295 13.3278C8.91944 12.4722 8.58536 11.6537 8.37705 10.8199C8.15458 9.92948 9.49254 9.5339 10.1447 9.53522C10.8903 9.53676 11.5316 9.96056 12.2515 10.1111C13.0729 10.2828 13.9186 10.4358 14.7566 10.4977L18.1725 10.5819L18.9432 10.523C19.3768 10.5062 19.8788 10.5638 20.3002 10.4738C21.1452 10.2932 23.2527 10.4119 24.1065 10.4848L26.9089 10.5963C27.1565 10.6048 27.3939 10.6647 27.6417 10.6743L32.8963 10.6477C33.649 10.6106 34.4568 10.4722 35.1723 10.2358C36.1997 9.89625 36.5196 9.65301 37.6506 9.5249C38.2078 9.37073 39.4907 9.79242 39.6163 10.4817C39.6856 10.8621 39.4803 11.3664 39.3772 11.7301L39.0492 12.9137C38.9352 13.3414 38.9899 13.2989 39.206 13.6889L40.2808 15.9191L41.7682 20.0235C41.9263 20.525 42.106 21.3505 42.298 21.7995C42.4705 22.2023 42.6273 23.0071 42.7506 23.4489C42.8844 23.9282 43.0063 24.4067 43.1323 24.8874L43.407 26.027C43.4947 26.388 43.6078 26.7636 43.6704 27.1286L44.0553 28.9664L44.8625 34.9898C44.8858 35.3694 44.8685 35.762 44.8692 36.1428L44.87 36.7448C44.8702 36.8426 44.882 36.9662 44.8387 37.0557L44.827 37.0778C44.5258 37.659 44.1773 37.5562 43.6392 37.6132L41.2009 37.8712C39.1378 38.1078 37.0775 38.4836 35.0723 39.0234C34.5527 39.1633 34.0226 39.2844 33.5208 39.4821C31.9064 40.118 31.1379 40.9285 29.3037 41.2702C27.7091 41.5672 27.6262 41.3149 27.1425 40.0157L26.4662 38.2301L23.9881 32.4979L20.8706 39.9236C20.4526 41.0307 20.4317 41.6588 19.1122 41.1555L18.3784 40.8739ZM37.7591 11.0476C37.0062 11.1329 36.3089 11.4682 35.6016 11.7172C34.0416 12.2665 32.3415 12.2393 30.71 12.2399L24.8951 12.0807C24.7188 12.0749 24.5371 12.0797 24.3662 12.0326C24.0142 11.9357 23.5558 11.9791 23.1879 11.9783L20.0977 11.9959C19.8356 12.0109 19.58 12.0725 19.317 12.0826L14.9317 12.0846C14.0726 12.0393 12.7053 11.8214 11.9009 11.628C11.6869 11.5766 10.1189 11.023 10.0099 11.0739C10.0286 11.189 10.0794 11.2825 10.1146 11.3929L10.3335 12.1216L10.4933 12.861L14.7995 13.2549C15.0013 13.2702 15.2007 13.3057 15.403 13.3155L18.3391 13.4353L19.355 13.521L33.438 13.5117C33.6559 13.4986 33.8694 13.4495 34.0858 13.4257L37.0414 13.0672C37.1862 13.0439 37.3317 13.0382 37.474 13.0007L37.9686 11.0511L37.7591 11.0476ZM10.1081 14.4294C9.68599 15.2432 9.28657 16.0564 8.94325 16.9072L8.30786 18.6431C8.20549 18.9245 7.99394 19.3205 7.98475 19.623C8.25227 19.67 8.51796 19.6834 8.78599 19.7202L11.038 20.0973L12.8199 20.5388C15.2106 21.1989 18.2118 22.3464 19.7002 24.4605C21.3996 26.8744 25.5873 28.1968 27.6517 25.4957C28.2448 24.7198 28.4719 24.1379 29.2422 23.4465C31.6387 21.2957 34.9141 20.3728 38.0307 19.8952L39.522 19.7153C39.6951 19.6961 39.8721 19.6934 40.043 19.6601L40.014 19.5414L37.903 14.4655L34.0414 14.9566C33.787 15.0087 33.4985 14.9981 33.238 15.0053L27.1734 15.0609C27.1418 15.1824 27.2068 15.3856 27.2255 15.5092L27.2707 15.904C27.3339 16.2928 27.3868 18.7089 27.2328 18.9485L27.2021 18.9859C27.0579 19.1538 27.0014 19.3295 26.7545 19.3995L26.6718 19.4163C26.2676 19.4917 25.9432 19.2823 25.8033 18.902L25.7913 18.8701C25.6967 18.5919 25.7813 18.2379 25.7897 17.9472C25.805 17.412 25.8395 15.4869 25.5423 15.0752L22.4447 15.0253C22.2611 15.4521 22.2143 16.1052 22.1964 16.569L22.1932 18.145C22.1936 18.3237 22.2392 18.642 22.1536 18.7965L22.1376 18.8265C21.7945 19.4443 20.8924 19.3932 20.7178 18.6921C20.6502 18.4209 20.6942 18.0449 20.6942 17.7608L20.6975 16.5256C20.7004 16.2404 20.6936 15.9361 20.7566 15.657L20.8443 15.0283L10.1081 14.4294ZM7.4778 21.1543L6.66803 23.9451L5.67428 28.0971C5.23989 30.1225 4.9 32.1363 4.73739 34.2032L4.65271 35.2328C4.62588 35.5124 4.58845 35.7851 4.59477 36.0668L7.8251 36.41C10.6082 36.8786 13.3507 37.5522 16.0355 38.4255L19.3957 39.6138L19.661 38.8539L22.623 31.8081C23.2051 30.4428 23.3429 29.9186 23.3412 28.416C21.5486 28.0391 20.1864 27.4623 18.9433 25.992C18.7502 25.7635 18.5935 25.5096 18.4092 25.2754C16.9724 23.4496 14.2624 22.5261 12.07 21.9532L10.0349 21.4841C9.18996 21.3312 8.332 21.2338 7.4778 21.1543ZM40.2095 21.2204L39.2114 21.2972L36.1804 21.8336C34.047 22.3252 31.2131 23.3731 29.7492 25.1229C29.4098 25.5287 29.1948 26.017 28.8778 26.4373C28.0452 27.5418 26.6681 28.3396 25.2826 28.4762L24.8 28.5061L24.805 29.5957C24.8102 29.9896 24.8378 30.4065 24.976 30.781L25.2283 31.5219L27.0251 35.5778C27.3521 36.4142 27.7571 37.2244 28.0499 38.0739L28.322 38.7888C28.3546 38.8952 28.5043 39.165 28.4934 39.2665L28.7162 39.7788C30.0596 39.694 31.0489 38.8901 32.2331 38.3494C32.9641 38.0155 33.7378 37.7779 34.5112 37.5639L37.418 36.8677L40.2692 36.4077L43.3744 36.1149L43.3162 34.5876C43.2295 33.4206 43.0591 32.2546 42.8758 31.0989L41.6916 25.3619L40.6986 21.7065C40.5919 21.3325 40.6391 21.1082 40.2095 21.2204Z" fill="black"/>
</svg>
