<svg width="48" height="48" viewBox="0 0 48 48" fill="none" xmlns="http://www.w3.org/2000/svg">
<path d="M40.8366 34.8458L41.2384 36.2268C41.2945 36.5374 41.3771 36.8583 41.4453 37.1682C41.7686 38.637 41.9708 40.166 41.9734 41.6718C41.9748 42.4427 41.8837 42.8669 40.9525 42.8693L39.2724 42.9179C38.362 42.9466 37.4555 43.0031 36.5451 43.0333L29.8828 43.5034C29.2229 43.5835 28.541 43.6859 27.8999 43.8657L26.5311 44.3135C24.8775 44.8128 22.9851 44.7578 21.3322 44.279L19.9008 43.8214C18.6937 43.4859 17.3752 43.4628 16.1339 43.3773L13.8034 43.2035C13.2535 43.172 12.6854 43.2184 12.1391 43.1522L11.878 43.1283C11.6429 43.0908 11.3911 43.1121 11.1526 43.1006L8.86855 43.024C8.50537 43.016 8.15202 42.9504 7.79291 42.9364L7.09382 42.9228C6.32038 42.9102 6.02118 42.5803 6.01855 41.7743L6.0658 40.469C6.30698 37.4428 7.11534 33.3474 9.23587 30.9997C9.49068 30.7176 9.76869 30.4579 10.0122 30.1651C11.988 27.7891 12.6997 24.4833 11.7911 21.5154C11.5026 20.5728 11.3466 20.2672 10.6652 19.6057L9.76734 18.7021C9.29596 18.182 8.91857 17.55 8.52562 16.9701L7.85976 16.0332C7.52319 15.5289 6.98413 14.6758 6.84421 14.0818L6.83526 14.0418C6.7342 13.604 6.88818 13.3763 7.08201 13.0116L7.48701 12.2027C7.97596 11.1531 8.37009 10.0106 8.60648 8.87656L8.93057 6.82006C9.0276 5.95812 8.97571 2.87579 9.06102 2.7185C9.19241 2.47629 9.36693 2.36067 9.61973 2.27812L11.3702 2.26711C11.8373 2.26687 12.3218 2.23851 12.7866 2.27119C13.4105 2.31505 13.45 2.93307 13.4551 3.38105L13.4671 4.39338C13.4776 4.76487 13.5365 5.13303 13.5576 5.50137L13.7249 7.85637C13.7715 8.35629 13.8151 8.93946 13.9832 9.41736L14.1705 10.0002C14.8943 11.8596 16.2664 13.3239 18.023 14.2518C18.6397 14.5776 19.3037 14.8457 19.9433 15.1251L21.9609 16.0311C22.2549 16.1607 23.1026 16.4845 23.3056 16.7278L23.335 16.7653C23.6511 16.8194 24.2796 16.7654 24.6696 16.7906C24.8992 16.565 25.2173 16.4292 25.5055 16.2934L28.1015 15.0975C31.1571 13.7106 33.2545 12.5376 34.0871 9.01948C34.295 8.14095 34.2916 7.25895 34.3493 6.36448L34.4439 4.84723C34.458 4.65392 34.4932 4.4628 34.5029 4.26628C34.5536 3.24281 34.2545 2.26968 35.613 2.26719L37.7556 2.26687C38.0084 2.26663 38.3465 2.2048 38.572 2.34349L38.6015 2.36212C38.9823 2.59854 38.9687 2.89338 38.9694 3.29869L38.9703 4.19174C38.9712 5.90576 39.0209 7.65082 39.4683 9.31615L39.9244 10.8293C40.0396 11.2323 40.2398 11.6814 40.4271 12.0545L41.0765 13.3375C41.5604 14.3283 39.9946 16.1828 39.4706 16.9561C39.0465 17.5817 38.6396 18.2457 38.1362 18.8101C37.6321 19.3755 36.9565 19.8213 36.5978 20.494C36.2383 21.1682 36.0487 21.9065 35.9079 22.6521C35.7422 23.53 35.7531 24.7183 35.9072 25.6052L36.0779 26.432C36.2972 27.7547 37.1694 29.303 38.0394 30.296C38.3212 30.6177 38.6609 30.8846 38.9317 31.2171C39.4064 31.7997 39.7827 32.4624 40.1244 33.1287L40.8366 34.8458ZM10.7901 4.10438C10.7451 5.00417 10.8055 5.91078 10.7523 6.80154C10.6621 8.31392 10.2664 9.88118 9.80273 11.3129L10.3231 10.6529L11.8792 8.07678C12.0056 7.88103 11.8371 6.24593 11.8233 5.94654L11.7555 5.07467C11.7336 4.74828 11.7294 4.42521 11.6867 4.10026L10.7901 4.10438ZM36.4065 4.10438C36.357 4.50261 36.3764 4.90751 36.3494 5.31073L36.2289 7.23115C36.2155 7.44064 36.1426 7.7255 36.1776 7.92692C36.2886 8.56822 37.5291 10.5159 38.044 11.1382L38.0754 11.1757L38.1445 11.2724C38.1642 11.2199 38.141 11.189 38.1244 11.1384C37.7555 10.0133 37.398 8.26493 37.3254 7.05443L37.2793 4.10793L36.4065 4.10438ZM35.5122 10.611C34.8433 12.8577 33.2014 14.5926 31.1643 15.6902L26.3937 17.8212C27.1371 18.9302 28.1924 19.7261 29.4417 20.1804C32.9216 21.3349 35.853 18.9472 37.7148 16.1836L38.0909 15.612C38.1533 15.5198 38.2301 15.4363 38.2864 15.3407C37.8523 14.0281 37.0642 12.8999 36.2885 11.7727C36.0316 11.3995 35.7117 11.016 35.5122 10.611ZM12.5214 10.6478L11.7576 11.745C11.3188 12.3663 10.8496 12.9785 10.4784 13.6437L10.0309 14.5193C9.92048 14.762 9.8302 15.0173 9.70804 15.2541C10.3601 16.633 12.0214 18.49 13.2123 19.3426C14.6756 20.3903 16.8025 20.7745 18.5294 20.1912C19.7357 19.7682 20.9364 18.9156 21.5991 17.7957C21.0671 17.5148 20.497 17.3017 19.9453 17.0624L17.4374 15.959C15.0215 14.8219 13.3789 13.2723 12.5214 10.6478ZM23.1433 18.6506C23.0673 18.731 23.0306 18.841 22.966 18.9364C21.4101 21.236 18.7714 22.5557 15.9711 22.2305C15.198 22.1407 14.4352 21.9727 13.7267 21.6401L13.9225 22.7458C14.3081 25.5009 13.5727 28.3862 11.9446 30.6378C11.4319 31.3469 10.8033 31.9424 10.2646 32.6262C9.59343 33.4781 9.05535 34.7614 8.72727 35.794L8.35138 37.1567C8.65223 37.242 9.03205 37.2348 9.34598 37.2542L14.2729 37.5959L17.8738 37.7192C18.1179 37.7279 18.355 37.7855 18.5976 37.7915L20.6162 37.8052C20.9212 37.8125 21.2206 37.8767 21.5223 37.8852L24.6269 37.8914L27.7307 37.8829L32.039 37.6159L37.3632 37.136C37.6212 37.1133 39.4911 36.9778 39.5519 36.9255C39.1994 35.4284 38.6439 33.9487 37.7597 32.6804C37.4147 32.1854 36.9473 31.8043 36.5751 31.3358C34.6683 28.9354 34.0457 26.5791 34.0504 23.6096C34.0508 23.2955 34.0259 22.9569 34.0943 22.65L34.253 21.6803C33.3386 22.0655 32.2966 22.2934 31.3047 22.292C28.9713 22.2886 26.2103 21.0201 25.058 18.9542C24.9999 18.85 24.995 18.73 24.8858 18.6581L23.7071 18.6531C23.5251 18.6534 23.3231 18.6717 23.1433 18.6506ZM8.04557 38.8708C7.88216 39.4122 7.87645 40.5677 7.86599 41.1677C7.98018 41.2272 8.13988 41.1855 8.26448 41.1875L9.37232 41.2047C9.58471 41.2107 9.79405 41.2533 10.0079 41.2596L11.8708 41.2842C12.0912 41.2944 12.3047 41.3496 12.5273 41.3556L13.6838 41.3697C14.0973 41.3739 14.491 41.4379 14.9016 41.4457L16.418 41.5278C17.9061 41.6352 19.3241 41.7141 20.7533 42.176L21.9273 42.5697C23.0658 42.8998 24.1759 42.9423 25.3476 42.7305L26.2499 42.5329C27.215 42.3026 28.1527 42.0439 29.1328 41.89L32.8973 41.4672L37.8514 41.1527C38.2561 41.1272 38.6609 41.0831 39.0668 41.0825L40.1744 41.0832L39.9334 38.871L32.2187 39.5317L31.3593 39.5684C31.1388 39.5843 30.9252 39.6264 30.7037 39.6389L29.5738 39.6733C29.3017 39.69 29.0315 39.7321 28.7589 39.7381L22.639 39.7333C22.3791 39.7259 22.125 39.6744 21.8645 39.6663L19.8281 39.6475C19.5243 39.6332 19.2299 39.568 18.9228 39.5521L16.4282 39.4371L8.04557 38.8708Z" fill="black"/>
</svg>
