<svg width="48" height="48" viewBox="0 0 48 48" fill="none" xmlns="http://www.w3.org/2000/svg">
<path d="M36.4252 41.9129C36.1511 42.1223 35.9002 42.1385 35.5662 42.1888L34.2068 42.3781L29.086 42.8218L21.0701 42.8196L17.6555 42.6198L12.6588 42.1722C11.1198 42.027 11.2985 41.8222 11.348 40.3288L11.3978 39.2111C11.4459 38.4503 11.4938 38.586 12.0157 38.0776C14.0275 36.1173 15.2981 33.311 15.3009 30.4926C15.3031 28.3125 14.5901 26.2045 13.5458 24.3107C13.3291 23.9177 13.0805 23.5458 12.8829 23.1416C12.4796 22.3168 12.1708 21.4682 11.8283 20.6196C11.5341 19.8904 11.2333 19.4992 11.2349 18.7001L11.2343 8.64861C11.2341 8.33521 11.2187 8.01116 11.2513 7.69935C11.3679 6.58386 12.396 5.67707 13.4529 5.46632C13.9335 5.37055 14.4423 5.37444 14.9295 5.34079L16.4798 5.18975C16.8006 5.15685 17.1194 5.15211 17.438 5.09366C18.2518 4.93832 18.6552 5.5499 18.6564 6.27576L18.6569 7.26533C18.6572 7.60968 18.6659 8.01726 18.7635 8.35049L18.8416 8.62513C19.2922 10.349 21.0316 11.6405 22.7528 11.8364C23.7434 11.9493 24.9244 11.944 25.8962 11.7033C27.7999 11.2318 29.1496 9.55213 29.3323 7.62065C29.3848 7.0664 29.2759 6.28536 29.3541 5.81755C29.4999 4.94441 30.5866 5.09615 31.2068 5.15352L32.8709 5.27469C33.0215 5.28791 33.1696 5.32686 33.3211 5.3376C34.6839 5.43393 36.2082 5.69502 36.6458 7.26144L36.6564 7.30091C36.9201 8.08227 36.7919 9.00932 36.7921 9.81876L36.7948 18.9611C36.7916 19.0628 36.7711 19.18 36.7348 19.2752L34.0358 25.1486C33.0013 27.2523 32.4766 29.4734 32.7818 31.8071C32.8493 32.3229 32.9211 32.8873 33.1076 33.3777L33.3887 34.2028C33.9457 35.6734 34.8902 37.0802 36.042 38.1579C36.1811 38.288 36.4018 38.379 36.4897 38.5475L36.5172 38.6017C36.7522 38.9546 36.6135 39.7885 36.6203 40.2088L36.6458 40.8852C36.6738 41.3122 36.7144 41.5703 36.4252 41.9129ZM30.9413 6.72299C30.9557 7.16221 30.9749 7.60757 30.9239 8.04515C30.5963 10.8591 28.0407 13.4069 25.1755 13.479L23.51 13.4823C23.16 13.4819 22.7884 13.5059 22.4412 13.4657C19.1825 13.0877 17.0584 10.2447 17.0229 7.03396L17.0313 6.77108L16.7096 6.79672C16.4097 6.84008 16.1022 6.81327 15.8005 6.83572L15.8177 14.6193L15.8221 15.4671C16.2695 15.4453 16.7491 15.4299 17.1939 15.4849C19.4537 15.7646 22.4676 17.5282 23.1574 19.8537C23.1687 19.8915 23.1634 19.8765 23.1831 19.9153L24.8078 20.0683C25.56 17.5685 28.4548 15.6515 30.9671 15.4693C31.3289 15.4431 31.6888 15.4636 32.0499 15.4483L32.1545 11.9305C32.1746 10.8134 32.2453 9.70757 32.2451 8.60047L32.2348 6.83169L30.9413 6.72299ZM33.8028 6.95544L33.7257 13.5704C33.7125 14.3238 33.5138 15.0973 33.6525 15.8581C34.2295 16.2528 34.7289 16.4754 35.0975 17.1391L35.1443 17.2221L35.2147 17.3019C35.3021 17.1015 35.2517 11.4501 35.2521 10.7544L35.251 8.30399C35.2506 8.18563 35.26 8.04158 35.2139 7.9303L35.1942 7.89093C34.8963 7.23205 34.47 7.0663 33.8028 6.95544ZM14.0972 7.06443C13.8512 7.08725 13.64 7.10094 13.4321 7.20172L13.3942 7.21977C13.1537 7.33846 12.9418 7.58375 12.8377 7.82825L12.82 7.8681C12.7793 7.96157 12.7607 8.0481 12.7567 8.14977L12.7516 16.199C12.7516 16.5105 12.7042 16.9201 12.7764 17.2191L12.8648 17.1417C13.1384 16.7233 13.4275 16.4394 13.8519 16.1782C14.2918 15.9075 14.2642 16.135 14.2644 15.6159L14.2539 7.08444L14.0972 7.06443ZM16.2413 17.0959C15.6579 17.1569 15.1236 17.2582 14.6365 17.5997L14.6069 17.6202C14.0589 18.0072 14.2507 18.7275 14.0747 19.3704C13.9489 19.8304 14.0661 20.6384 14.2046 21.0704L14.2838 21.2944C15.0935 23.2573 17.16 24.432 19.2312 23.6941C20.6105 23.1531 21.6313 21.8439 21.6584 20.3455C20.8162 18.7112 18.9953 17.3348 17.1326 17.1308L16.8764 17.1002C16.6833 17.0766 16.4337 17.0672 16.2413 17.0959ZM31.171 17.0958C29.1883 17.3215 27.3975 18.4529 26.409 20.2106C26.2251 20.5377 26.4401 21.3882 26.5807 21.7033C27.0668 22.7927 28.0974 23.6549 29.2909 23.8349C31.5519 24.1875 33.5726 22.7321 33.9307 20.4574C34.0768 19.53 33.8898 19.3645 33.7808 18.4836C33.7183 17.9792 33.9121 17.9825 33.3122 17.5572C32.6938 17.1187 31.9052 17.0479 31.171 17.0958ZM23.1459 21.5275C22.9112 21.8111 23.4675 21.76 23.6401 21.7818L24.1639 21.8638C24.4143 21.8934 24.6785 21.9051 24.9256 21.9549L24.9982 21.9576C24.9728 21.8726 24.9435 21.7937 24.9068 21.7129C24.5895 21.6545 23.4587 21.4676 23.1459 21.5275ZM22.3739 23.3142C20.503 25.4715 18.3476 26.1197 15.72 25.0444L16.5358 27.4943C17.392 30.3045 16.7552 33.794 15.3515 36.3165L14.6077 37.513L19.1834 37.877L22.3973 37.9973C22.656 38.0024 22.9276 37.9992 23.1808 38.0555C23.9537 38.2275 24.8317 38.1585 25.6216 38.1576L33.4355 37.5824C33.1535 37.1591 32.8512 36.7782 32.6039 36.3283C30.9548 33.3272 30.6272 29.599 31.7938 26.3725L32.1443 25.4241C32.1884 25.3124 32.2615 25.1969 32.2869 25.0806L32.2626 25.0915C30.2582 25.9673 27.8848 25.5543 26.3088 24.0586L26.0578 23.8C25.9364 23.6636 25.9167 23.6988 25.7315 23.6807L23.5452 23.4395C23.1574 23.3964 22.7579 23.3855 22.3739 23.3142ZM13.3249 39.1104C13.1445 39.202 12.9352 39.3437 12.919 39.5733L12.9145 40.5569C12.9769 40.6058 14.3386 40.7026 14.5381 40.7193L18.5754 41.064L21.6912 41.248L27.8649 41.2587C28.2848 41.2585 28.7174 41.2793 29.1344 41.2283L34.7993 40.6785L35.0638 40.6568L35.041 39.7753C35.0416 39.5951 35.1039 39.452 34.9568 39.3193L34.6608 39.0866L28.4953 39.6723C27.8331 39.7642 27.1444 39.7465 26.4774 39.7473L23.9499 39.7407L21.6364 39.6329C21.3854 39.6253 21.1372 39.5847 20.8868 39.5723L15.0865 39.1832L13.8983 39.1367C13.7067 39.132 13.5148 39.1413 13.3249 39.1104Z" fill="black"/>
</svg>
