<svg width="48" height="48" viewBox="0 0 48 48" fill="none" xmlns="http://www.w3.org/2000/svg">
<path d="M33.2925 27.8724L33.1071 28.9424C32.9509 30.054 33.3656 31.7006 33.6563 32.7657L34.4195 35.2822L36.8447 40.2188C37.4479 41.4123 38.0017 42.0857 36.4449 42.584L34.6308 43.2105C33.7885 43.5491 32.8934 43.9792 32.1401 44.4856C31.7795 44.728 31.509 45.0316 31.1836 45.3115C30.5758 45.8341 29.6921 46.2283 28.8828 46.3049L28.7965 46.3107C27.587 46.3755 26.3672 46.3257 25.371 45.5488C25.1569 45.3819 25.005 45.1537 24.8022 44.9766C24.2411 44.4866 23.4855 44.5585 23.0123 45.1287C21.3255 47.1615 18.1186 46.3068 16.2579 45.0193C14.8352 44.0348 13.7692 43.0751 12.0536 42.5921C11.5177 42.4412 10.9846 42.4798 10.6922 41.916L10.6362 41.7975C10.4988 41.4188 10.7579 41.0498 10.8847 40.7108L11.5459 39.0388C11.8972 38.1721 12.2481 37.1914 12.8127 36.433C12.9894 36.1955 13.136 36.0422 13.2668 35.7727L13.5421 35.2215C14.5259 33.2828 14.8871 31.1475 14.8432 28.9923L14.8244 28.1478C14.7271 26.701 14.169 25.3065 13.6478 23.9713L12.6103 21.4454C11.2072 18.2899 9.56915 15.0458 9.19678 11.5636C9.15061 11.1316 9.1739 10.6823 9.17344 10.2477L9.17367 2.22577C9.17653 2.14354 9.1762 2.05776 9.21684 1.98387L9.29667 1.84412C9.44995 1.6043 9.68897 1.49321 9.95864 1.43452C10.3021 1.41108 10.665 1.60527 10.7729 1.94414L10.7837 1.98056C10.8738 2.23821 10.8502 2.53037 10.8507 2.80123L10.85 10.6559C10.851 11.9646 11.095 13.3284 11.545 14.558L11.6069 14.7423C11.7003 15.1062 11.8387 15.5224 11.9819 15.8689C12.12 15.1947 12.2773 14.5705 12.6207 13.9671C15.4522 8.99236 22.1418 12.1363 23.3609 16.7061L24.639 16.7101C24.7201 16.5909 24.7142 16.44 24.7586 16.305C25.7763 13.215 29.9106 10.309 33.1579 11.8608C34.3005 12.4068 35.319 13.5139 35.7325 14.7261L36.01 15.8022C36.1233 15.315 36.2973 14.847 36.4426 14.3689L37.0768 11.8009C37.1609 11.3621 37.158 10.9604 37.1587 10.5128L37.1622 2.67961C37.1627 2.49856 37.1341 2.25708 37.1852 2.08603C37.4198 1.30131 38.3133 1.23343 38.7187 1.88681L38.7418 1.92037C38.918 2.2038 38.813 2.95157 38.8131 3.28639L38.8121 10.7254C38.8116 11.39 38.7439 11.9668 38.6084 12.6195L37.4079 16.8751C36.8906 18.4686 36.4127 20.0671 35.7662 21.6153L34.0854 25.3383C33.7472 26.1679 33.4956 27.001 33.2925 27.8724ZM16.5202 13.1109C14.1253 13.3927 13.141 16.1308 13.6989 18.2337C13.997 19.3575 14.8266 20.4104 15.8354 20.9842L16.2422 21.1895C16.9717 21.5021 18.1008 21.6967 18.8789 21.4049C19.5006 21.2679 20.1149 20.8778 20.619 20.4876C23.2417 18.4578 21.4183 15.2798 19.1423 13.8799C18.3715 13.4059 17.4433 13.0162 16.5202 13.1109ZM30.8802 13.1092C28.7986 13.3626 26.5924 15.3332 26.1581 17.4259C26.115 17.6339 26.0441 18.1716 26.069 18.3634L26.0913 18.4679C26.4955 20.0559 27.7703 21.0539 29.3399 21.442C29.3973 21.4562 29.6728 21.4805 29.7007 21.5028C31.8508 21.814 34.1157 19.9312 34.4082 17.8209C34.7234 15.548 33.5197 12.8505 30.8802 13.1092ZM23.5347 18.3719C23.5211 18.9045 23.2617 19.9461 22.9336 20.399L24.4746 20.4095L25.0402 20.3737C24.717 19.833 24.4553 18.9937 24.4583 18.3775L23.5347 18.3719ZM21.2131 22.1051C19.2196 23.5299 17.1368 23.546 14.9547 22.3809C15.2643 23.1098 15.6307 23.8159 15.867 24.5743C15.9338 24.7886 15.9928 25.0166 16.0699 25.2259L16.4353 26.7885C16.6019 27.4596 16.64 29.5504 16.5252 30.3165L16.377 31.5839C16.1124 33.2418 15.5972 34.8276 14.8073 36.3104L15.8025 36.6917C17.9161 37.4289 20.8929 38.0909 23.167 38.2176C23.1926 38.1738 23.179 38.0919 23.179 38.0395L23.1782 22.105L21.2131 22.1051ZM24.8453 22.1085C24.8033 22.3311 24.8229 22.5721 24.823 22.7931L24.8232 37.0238C24.8233 37.415 24.8035 37.8179 24.8385 38.2075L27.3633 37.8512C28.632 37.6161 29.8934 37.2552 31.1367 36.911L33.0093 36.3184C33.0305 36.2434 32.7702 35.5841 32.7289 35.4552L31.8633 32.4237C31.2009 29.6588 31.3061 28.0094 32.332 25.2637L32.8524 23.9705C33.1127 23.385 33.4076 22.7979 33.6082 22.1889C33.1342 22.372 32.6894 22.6146 32.2134 22.7924C30.1899 23.5483 28.6341 23.1992 26.885 22.143C26.7554 22.0648 25.1109 22.0971 24.8453 22.1085ZM13.962 37.7995L12.5387 41.0005C14.0767 41.5593 15.0964 42.0692 16.3996 43.0336C16.7288 43.2772 17.0441 43.5384 17.3906 43.7588C18.4078 44.4057 20.3294 45.111 21.4489 44.3003C21.91 43.9276 22.2944 43.3869 22.8765 43.1887C22.9812 43.153 23.0752 43.1384 23.1735 43.0833L23.1791 39.8684C22.967 39.8227 22.7455 39.8359 22.5303 39.8116L20.9297 39.6131C18.9398 39.3204 15.8462 38.6412 13.962 37.7995ZM33.7065 37.8399C31.5542 38.6659 28.5732 39.4025 26.3437 39.7197L25.5263 39.8187C25.2927 39.8379 25.0563 39.8401 24.8239 39.8699L24.8224 43.1129C24.9251 43.2011 25.0261 43.1911 25.143 43.2403C25.7965 43.5156 26.1637 44.2145 26.8052 44.4651C27.6052 44.7482 28.8202 44.7249 29.5898 44.3634C29.9928 44.1742 30.4693 43.6087 30.9226 43.2946C32.3151 42.3298 33.865 41.6483 35.4741 41.1367L33.7065 37.8399Z" fill="black"/>
</svg>
