<svg width="48" height="48" viewBox="0 0 48 48" fill="none" xmlns="http://www.w3.org/2000/svg">
<path d="M40.3505 9.66223C40.8732 12.1896 39.9174 14.6698 37.8172 16.2046C34.7806 18.4238 30.0911 17.4364 27.0753 15.7046L24.9263 14.3082C24.6523 14.122 23.4402 14.1533 23.3154 14.216C23.2293 14.2592 23.1283 14.3654 23.0523 14.4272L22.2881 15.0507C19.9053 16.9769 16.7 17.6084 13.6916 17.4115C11.7979 17.2875 10.0324 16.46 8.84391 14.9523C7.89756 13.7517 7.53231 12.5114 7.51435 11.0254C7.51145 10.7856 7.4852 10.5263 7.51529 10.2894L7.52016 10.2544C7.54955 10.0198 7.67045 9.79015 7.77127 9.57889L8.31259 8.4905C8.87837 7.26762 9.00812 6.20131 9.01145 4.87175L9.01023 2.43125C9.01009 1.9714 9.10904 1.64103 9.62031 1.50315C9.92213 1.49239 10.2339 1.5496 10.3807 1.8547L10.4065 1.91061C10.5478 2.13271 10.4861 2.42504 10.4887 2.6779L10.4889 6.1227C10.484 7.04651 10.3199 7.90868 9.9856 8.7777L10.1838 8.72084C12.8214 8.01031 15.6726 8.62034 17.8097 10.3411C18.4866 10.886 19.0108 11.624 19.7708 12.0548C20.7791 12.6263 21.7416 12.5712 22.8525 12.5686C23.0423 12.5682 24.122 12.4992 24.1961 12.5231C24.4393 12.6014 26.4984 12.603 26.768 12.5336C28.684 12.0404 28.6406 11.8001 30.1119 10.4369C32.2848 8.42361 35.5204 7.79909 38.2784 8.86207C37.2202 6.87973 37.502 5.70087 37.5051 3.53924L37.5068 2.59218C37.5078 2.12424 37.5164 1.63583 38.1069 1.52228L38.133 1.51783C38.4355 1.464 38.7338 1.59085 38.8801 1.871L38.9063 1.92232C39.08 2.19879 38.9827 2.70631 38.9829 3.02308L38.985 5.07959C38.9869 5.5519 39.0126 5.99557 39.0884 6.46179C39.2524 7.4697 39.8932 8.27168 40.2181 9.21139L40.3505 9.66223ZM35.194 10.0175C33.7449 10.1025 32.2834 10.6307 31.2155 11.6408C30.2551 12.5494 29.4456 13.4496 28.162 13.8942C27.9776 13.9581 27.7388 13.996 27.5689 14.0853C29.073 14.9145 29.8853 15.2509 31.5055 15.6252C32.696 15.8585 34.0161 15.9389 35.2033 15.6404C37.2557 15.1242 38.9693 13.1345 38.9289 10.9698L38.1096 10.5704C37.1517 10.1584 36.2238 10.0024 35.194 10.0175ZM12.2395 10.0655C11.3937 10.1187 10.5848 10.2639 9.81034 10.6249C9.55463 10.7441 9.30427 10.9275 9.04477 11.0247C9.49609 15.1394 12.4002 16.0689 15.9942 15.7385L17.3615 15.5537C18.5258 15.2851 19.7586 14.8826 20.7056 14.1228L20.6847 14.1201C20.403 14.0794 20.11 13.9609 19.8437 13.8602C18.5181 13.3586 17.9739 12.6099 16.9215 11.7305C15.6244 10.6467 13.9388 10.012 12.2395 10.0655Z" fill="black"/>
<path d="M34.3121 38.2774C31.9168 39.82 29.9593 42.1235 29.1748 44.8887C29.1359 45.0257 29.1287 45.1683 29.075 45.3017L29.0641 45.328C28.8856 45.7855 28.3453 45.8034 27.9372 45.9068C26.3013 46.3214 25.0261 46.4835 23.3573 46.4825C22.9827 46.4823 22.5653 46.5187 22.1977 46.4539L21.5041 46.355C20.9038 46.2427 20.3988 46.0533 19.8669 45.7546C19.1423 45.3477 19.0968 45.3009 18.8459 44.5777C17.7741 41.4886 14.1832 37.8807 10.9665 36.9726L10.1956 36.7917C9.94369 36.7429 9.58791 36.7534 9.37768 36.6L9.35236 36.5809C8.81996 36.1851 8.90494 34.9585 8.90152 34.3429L8.92721 31.7925L9.30586 28.4062L10.3923 23.0425C10.4435 22.8032 10.4639 22.5179 10.5589 22.2927L10.5709 22.2655C10.691 21.9865 10.9144 21.8066 11.2193 21.7587L11.2485 21.7544C11.3648 21.7609 11.4559 21.772 11.5636 21.8233L11.669 21.8762C11.8215 21.9625 11.9469 22.1482 11.9907 22.3169L12.0011 22.3593C12.0556 22.534 12.056 22.6858 12.0776 22.8659C12.3295 23.0531 12.5493 23.2791 12.7852 23.4856C13.9125 24.4727 15.178 25.2148 16.5388 25.8389C21.9337 28.3133 27.1113 28.065 32.3936 25.3425C33.7118 24.663 34.8611 23.8849 35.9479 22.869C35.938 21.5174 37.3087 21.407 37.492 22.464C37.5202 22.6261 37.5564 22.7971 37.5945 22.9569L38.6551 28.2154C39.0765 30.2081 39.1531 32.6317 39.0792 34.647L39.0622 35.2265C38.9875 36.2382 39.0406 36.5526 37.9731 36.7451C36.7022 36.9744 35.4027 37.5809 34.3121 38.2774ZM11.6585 24.6779L10.8408 29.0731L13.9268 30.065C16.9745 31.2314 19.9018 32.897 22.3073 35.1204L23.629 36.4446C24.1553 37.0083 23.876 36.9866 24.5551 36.2547L25.5088 35.3104C28.0244 32.9967 30.8735 31.3364 34.0487 30.0828L37.1535 29.0692C37.1137 28.6953 37.0313 28.3285 36.9695 27.9581L36.4866 25.4857C36.4381 25.2577 36.4236 24.9708 36.3365 24.7592C35.7503 25.16 35.2101 25.607 34.6021 25.9789C31.8352 27.6714 28.5856 28.9156 25.3289 29.1509C20.4996 29.4999 15.372 27.7837 11.6585 24.6779ZM10.6211 30.7147C10.5685 30.9582 10.5759 31.21 10.5577 31.4574L10.4973 35.184C10.7217 35.2525 10.9597 35.2844 11.1882 35.3433C14.6659 36.2392 18.0378 39.4459 19.7047 42.583L20.3919 44.0624C20.5871 44.5732 21.8868 44.8224 22.3649 44.836L23.12 44.846C24.9808 44.8428 25.8214 44.7681 27.6709 44.2663C28.836 40.6229 31.4193 37.8752 34.8146 36.1248C35.2636 35.8933 35.7767 35.6542 36.2634 35.5174L37.4493 35.1714C37.5714 33.8751 37.5578 32.0398 37.3962 30.7126C36.4267 30.8999 35.473 31.281 34.5578 31.6447C31.003 33.0569 27.9592 34.9342 25.3478 37.7906L24.8566 38.351C24.2162 39.1105 23.8483 39.2208 23.2174 38.4642L20.8396 35.9773C18.4843 33.8513 15.0548 32.1234 12.0925 31.139L11.0551 30.814C10.935 30.7796 10.7688 30.7121 10.6445 30.7111L10.6211 30.7147Z" fill="black"/>
</svg>
