<svg width="48" height="48" viewBox="0 0 48 48" fill="none" xmlns="http://www.w3.org/2000/svg">
<path d="M38.3794 38.631C38.4078 38.8865 38.4816 39.1347 38.5042 39.3894C38.5663 40.0865 38.6054 42.0657 38.5028 42.7631L38.4959 42.8088C38.4854 42.8824 38.4768 42.9461 38.4451 43.0142L38.2848 43.3778C37.4833 44.8567 34.0621 45.3005 32.4125 45.4814C31.7789 45.5509 31.3623 45.5775 30.7035 45.5784L16.4363 45.576C16.0207 45.5753 15.6006 45.5817 15.1863 45.5438L14.5939 45.4639C10.248 44.9849 8.9819 43.2755 9.38381 39.1393C9.47611 38.1893 9.78145 37.1701 10.1276 36.2797L10.662 34.9804C11.2575 33.429 11.439 31.8086 11.5611 30.1608L11.6245 29.5775C11.7335 27.9897 11.6723 25.8694 11.0199 24.4518C10.8543 24.0918 10.6433 23.751 10.4607 23.3994C9.76547 22.061 9.14676 19.3371 9.70645 17.8595C9.89344 17.3659 10.2322 16.9149 10.5168 16.4749C11.159 15.4818 11.5979 14.2797 11.8115 13.1252L11.9585 12.1083C12.3181 10.1404 11.3959 7.49529 10.5141 5.77441L10.1115 5.02038C9.99886 4.82234 9.8115 4.58695 9.7747 4.36055C9.64795 3.58118 10.308 3.39435 10.8814 3.26171L14.6804 2.41425C14.9105 2.37234 15.1345 2.3145 15.3671 2.28516C15.672 2.29706 16.0089 2.46031 16.1398 2.74682L16.1531 2.77751C16.3188 3.14828 16.2681 3.60669 16.3046 4.00458C16.3425 4.41856 16.4426 4.82988 16.5395 5.23259L16.5972 5.46612C16.8563 6.84382 17.4944 7.73168 18.5616 8.60693L19.7112 9.56482C20.7342 10.4551 21.9714 11.8396 22.7147 13.0127L23.5542 14.4757C23.7355 14.7818 23.8136 15.1417 24.0185 15.4254C25.0535 12.9231 26.6347 10.9995 28.6766 9.22549C29.3586 8.63295 30.1605 8.12791 30.6458 7.34693C31.1235 6.57818 31.5866 5.06773 31.6924 4.1239L31.7495 3.53923C31.7613 3.3292 31.7293 3.03937 31.8192 2.84577C32.2265 1.96929 33.2942 2.47624 33.9909 2.61345L37.1759 3.27569C38.2551 3.45694 38.4848 4.04344 37.9051 5.03646L37.4925 5.77048C36.4333 7.81277 35.7363 10.2323 36.0957 12.5392L36.2865 13.5463C36.339 13.7869 36.4006 14.0442 36.4815 14.2757L36.5773 14.5801C36.8072 15.1647 37.0358 15.7252 37.3402 16.2772C38.0525 17.5688 38.5282 17.7114 38.5256 19.313C38.5241 20.1804 38.3787 20.9105 38.0964 21.7368L37.0737 24.3223C36.4866 25.7879 36.2518 26.4367 36.2505 28.0247C36.2497 29.0856 36.326 30.1504 36.5146 31.1955L36.8517 32.997C37.0297 33.6966 37.2297 34.3834 37.4456 35.0727L38.0465 37.0749L38.3794 38.631ZM14.6216 4.09001L11.7593 4.70201L12.117 5.39079C12.4069 6.02763 12.7068 6.67259 12.9281 7.33751L13.1734 8.1447C13.2338 8.35118 13.2841 8.58063 13.3199 8.79312L13.458 9.60035C13.8091 12.435 13.2767 15.282 11.6616 17.6786C11.4109 18.0506 10.9936 18.4156 11.4163 18.6957C11.9045 19.0192 12.4504 19.3933 12.7991 19.8752L12.8249 19.9104C13.015 20.1736 13.1608 20.4625 13.3614 20.7212C14.2583 21.8771 15.5661 22.7878 17.0213 23.0539L18.0565 23.131C18.3529 23.1114 18.6694 23.0989 18.9613 23.0443C21.6383 22.5441 23.4293 20.4244 23.2323 17.7105C23.2177 17.5105 22.9731 17.0745 22.8884 16.8703L22.5403 16.0756C21.5819 13.9876 20.2849 12.2221 18.5553 10.7112C17.6984 9.96255 16.6997 9.31521 16.0603 8.35563C15.2311 7.11106 14.9325 5.53498 14.6873 4.08647L14.6216 4.09001ZM33.3195 4.12667L33.0512 5.52823C32.5295 7.90001 31.8598 8.70495 30.1058 10.1441L28.8464 11.2416C27.3353 12.6317 26.2423 14.3302 25.4085 16.1955L25.0731 17.0174C24.92 17.4063 24.7872 17.527 24.7747 17.9603C24.7617 18.4138 24.7693 18.8582 24.8551 19.3054C25.3029 21.6388 27.8665 23.1593 30.1139 23.1286C31.9768 22.9378 33.305 22.3483 34.5384 20.8314C35.2497 19.9566 35.3386 19.4619 36.4248 18.8292C36.55 18.7564 36.6955 18.6963 36.8067 18.6038C36.7012 18.2218 36.4549 17.9034 36.2449 17.5739L35.7794 16.7633C34.7481 14.7551 34.1236 11.8004 34.5552 9.52596L34.8168 8.21037C35.1224 6.98402 35.6491 5.84332 36.2342 4.72807L33.3195 4.12667ZM11.2769 20.6369C11.2296 21.0377 11.4198 21.5877 11.5821 21.9611C12.3155 23.648 12.9854 24.4084 13.1851 26.3607C13.2276 26.7759 13.1984 27.1973 13.2685 27.6096C14.2927 27.8879 15.2553 28.0554 16.3126 28.0564L23.2345 28.0729L23.2448 25.7756C23.2451 25.4071 23.2879 22.5974 23.1912 22.4704C22.9289 22.7847 22.6277 23.0427 22.3021 23.288C18.873 25.8722 14.4088 24.9217 11.9328 21.518C11.8121 21.3521 11.4501 20.6735 11.2769 20.6369ZM36.6681 20.6369C36.3576 21.0481 36.1083 21.498 35.7794 21.8982C33.1567 25.0897 28.4102 25.8404 25.2732 22.9625C25.1014 22.8049 24.9528 22.6169 24.7794 22.4642L24.7639 25.8254L24.7674 28.0431C24.8105 28.0639 24.8498 28.0679 24.8974 28.0688L32.2919 28.0213C33.0453 27.9568 33.7893 27.8139 34.5098 27.5828L34.6548 27.5238C34.7111 26.0337 35.0523 24.9233 35.6126 23.5704L36.495 21.4138C36.5791 21.1785 36.7081 20.8918 36.701 20.6413L36.6681 20.6369ZM34.6037 29.2619L32.6566 29.6728C32.4529 29.7232 32.2306 29.7097 32.0219 29.7109L15.4513 29.7071C15.3239 29.7033 15.2038 29.6875 15.0803 29.6558L13.2125 29.2795C13.1685 29.7754 13.1761 30.2702 13.1281 30.797L13.0684 31.5879C12.9118 33.0073 12.6275 34.4553 12.0954 35.7847C11.4231 37.4645 10.9207 38.57 10.9522 40.5059C10.981 42.2691 11.3636 43.1535 13.2781 43.5909C14.5743 43.8545 15.3035 43.8976 16.6035 43.8987L29.533 43.9009C30.3614 43.9026 31.2195 43.9513 32.044 43.8747C33.1855 43.7688 35.6829 43.4125 36.6612 42.7644L36.8698 42.6202C37.2996 39.9257 36.4868 37.4692 35.7217 34.9338L35.1804 32.8478C35.015 32.1446 34.8939 31.4198 34.8064 30.7033L34.7114 29.8009C34.6971 29.6232 34.7002 29.4374 34.67 29.2619H34.6037Z" fill="black"/>
<path d="M24.0161 41.2352C23.0303 41.1915 23.0257 39.8416 23.9656 39.7588C24.9812 39.8152 24.9398 41.0078 24.0161 41.2352Z" fill="black"/>
</svg>
