<svg width="48" height="48" viewBox="0 0 48 48" fill="none" xmlns="http://www.w3.org/2000/svg">
<path d="M8.11834 39.7838C8.3177 39.6649 8.46897 39.6755 8.69279 39.6771L8.38178 38.6295C7.53958 35.386 8.60209 31.8421 11.3163 29.7872C11.7937 29.4258 12.3359 29.17 12.8214 28.8223C15.2177 27.1059 15.8612 24.2154 14.6964 21.6047C14.6259 21.4467 14.5472 21.2505 14.4423 21.114L14.4211 21.0874C14.3142 20.9519 14.1892 20.8629 14.0627 20.749L13.4675 20.189C12.2187 18.9723 11.494 17.3983 11.1572 15.7035L11.0558 15.0716C10.8659 13.8909 11.0095 12.6969 11.39 11.5679C11.6618 10.7619 11.9135 10.6906 12.7464 10.6884L14.1097 10.6877C14.1408 10.5465 14.1343 10.3859 14.1402 10.2414L14.3499 6.80978L14.4368 5.15171C14.4692 4.46528 14.2152 2.27204 15.4253 2.52243L15.5196 2.54035C15.6859 2.57746 15.8425 2.72079 15.9297 2.86257L15.9488 2.89404C16.0955 3.12369 16.11 3.45494 16.066 3.72113C15.9753 4.26887 16.0083 4.84168 15.978 5.39443L15.7983 8.6942C15.7565 9.33456 15.7488 10.0499 15.6818 10.6607C18.2522 10.8032 18.9586 11.1931 20.7888 12.8462L23.7961 15.7322C23.9155 15.8477 24.0351 15.7866 24.1869 15.7811C24.7815 15.7595 24.7237 15.9427 25.0337 15.5115L26.4936 13.6001C26.7083 13.3194 26.9059 13.0245 27.1344 12.7546C28.4346 11.219 30.1015 10.8305 31.9717 10.6751L31.9885 3.79474C31.9888 3.52159 31.9307 3.20484 32.0669 2.95594L32.1417 2.83046C32.2981 2.61558 32.476 2.53574 32.7313 2.49414C33.0797 2.53333 33.315 2.65873 33.4531 3.00573L33.469 3.04726C33.606 3.36385 33.5382 3.79036 33.5385 4.12693L33.538 10.6744C33.7489 10.6989 33.9715 10.6857 34.1839 10.6857L35.3394 10.6827C35.5315 10.6819 35.8768 10.6358 36.0452 10.7206L36.0699 10.7341C36.1893 10.7983 36.3033 10.8688 36.3828 10.981L36.4036 11.0111C36.5079 11.1565 36.583 11.3089 36.6535 11.473L37.1597 13.2603C37.6644 15.8432 36.6676 18.8272 34.6812 20.5476C33.5749 21.5057 32.8758 22.0004 32.7026 23.6869C32.6444 24.2541 32.6638 24.968 32.8252 25.507L32.9063 25.7837C33.113 26.7414 33.9849 27.9251 34.7748 28.5308C35.1553 28.8225 35.5748 29.0455 35.9781 29.3012C38.7534 31.0606 40.4413 34.6807 39.7877 37.9419L39.5477 38.9177C39.4889 39.1513 39.4483 39.3936 39.3809 39.6241L39.3679 39.6675C39.7355 39.738 39.901 39.6428 40.109 40.07L40.1597 40.1798C40.3124 40.6108 40.0804 41.1163 39.6467 41.2671C39.3338 41.3759 38.9214 41.3264 38.5898 41.3546L36.4547 41.5798C34.0304 41.9351 31.5597 42.3774 29.3475 43.4832C28.836 43.7389 28.3729 44.0656 27.8852 44.3605C25.2735 45.9398 22.5088 45.8249 19.9683 44.2729C19.5728 44.0313 19.1924 43.7652 18.7803 43.551C16.306 42.2651 13.2451 41.7386 10.5043 41.4435L9.38415 41.3487C8.94686 41.3196 8.39237 41.4206 8.05033 41.0689C7.69206 40.7006 7.73584 40.1543 8.09622 39.8049L8.11834 39.7838ZM14.5128 12.2774L12.8576 12.2786C12.7317 12.4619 12.5857 13.2411 12.5552 13.4652C12.445 14.2747 12.5986 15.4185 12.8811 16.1568L12.9483 16.3652C13.7631 18.9599 16.9262 21.8883 19.8122 20.9278L20.588 20.6068C21.9021 19.8974 22.6792 18.8181 23.1103 17.3807L23.1263 17.3266C22.5406 16.6601 21.8847 16.0775 21.2449 15.4666L19.8246 14.1392C18.7835 13.1849 17.7884 12.3912 16.3161 12.2855L14.5128 12.2774ZM34.728 12.2774L32.9482 12.2779C31.3642 12.2799 29.7354 12.3838 28.5347 13.5763C28.1476 13.9608 27.8242 14.4433 27.5031 14.8856L26.4957 16.2196C26.0832 16.7679 25.6645 17.3638 25.1654 17.8357C25.6298 18.6612 26.305 19.5517 27.0842 20.085C31.4209 22.9879 36.567 18.1088 35.6089 13.5181C35.5258 13.1202 35.4384 12.6398 35.2539 12.2777L34.728 12.2774ZM24.1259 19.2074C23.7708 19.8385 23.3268 20.4684 22.8025 20.9735C22.7579 21.0164 22.6639 21.0795 22.6375 21.1322L24.3337 21.1178L25.821 21.1235C25.2161 20.5854 24.5314 19.9208 24.1259 19.2074ZM16.6597 22.5355C16.7905 23.24 16.8295 23.4954 16.8542 24.1946L29.2999 24.2028C29.8922 24.2027 30.5238 24.2473 31.1121 24.1877L31.1266 23.8305C31.1564 23.3853 31.215 22.9714 31.3305 22.5399L31.2887 22.5525C30.2836 22.8448 29.1743 22.761 28.1391 22.7612L18.0816 22.7605C17.75 22.7593 17.411 22.7249 17.0869 22.6541C16.9668 22.6279 16.7676 22.5253 16.6597 22.5355ZM17.7961 25.7858L16.6335 25.7979C16.5544 26.0531 16.5183 26.3057 16.4255 26.5633C15.9771 27.8086 15.1876 28.965 14.1675 29.8117C13.5945 30.2873 12.9384 30.6128 12.331 31.0324C9.83959 32.7537 9.14753 36.1015 10.0794 38.8598C10.187 39.1784 10.2403 39.5416 10.3879 39.8404C12.2551 39.9248 14.8574 40.4373 16.6115 40.9617L18.052 41.4674C18.7602 41.7339 19.471 42.075 20.1201 42.4645C22.0491 43.622 23.0852 44.2613 25.5464 43.6643C26.6529 43.3959 27.5152 42.6215 28.5056 42.1089C29.674 41.533 30.9557 41.0286 32.2269 40.7186L33.3479 40.4688C33.8931 40.35 34.4505 40.2268 35.0035 40.1504L37.3475 39.8491C37.4651 39.8329 37.6077 39.8324 37.7171 39.7882L38.1225 38.1714C38.7849 35.2354 37.6942 32.3239 35.1317 30.6602L34.3948 30.2146C32.708 29.129 31.783 27.687 31.3034 25.7843L17.7961 25.7858Z" fill="black"/>
<path d="M24.0755 31.3758C22.9968 31.4892 22.6466 29.8407 23.9306 29.559C24.3021 29.5372 24.6816 29.7721 24.8278 30.1118L24.8793 30.2326C24.937 30.3915 24.9301 30.6401 24.8611 30.7942L24.8492 30.8201C24.7068 31.135 24.4138 31.3218 24.0755 31.3758Z" fill="black"/>
</svg>
