<svg width="48" height="48" viewBox="0 0 48 48" fill="none" xmlns="http://www.w3.org/2000/svg">
<path d="M43.4113 0L43.4289 0.0585938C43.6705 0.153189 43.8375 0.251436 43.9534 0.493706L43.9691 0.527344C44.1511 0.90705 44.1295 1.40719 44.1682 1.81553C44.3608 3.84818 43.8529 5.70867 42.7559 7.40325C42.2246 8.22398 41.814 9.16026 41.4776 10.0761L40.9805 11.457C40.421 13.2102 40.0257 15.18 39.9239 17.0294L39.9146 18.1568C39.9146 19.332 40.0269 20.169 40.3762 21.3126C40.4762 21.6402 40.6075 21.9807 40.6749 22.3155L40.7659 22.635C40.8354 23.0035 40.9466 23.4682 41.0723 23.8138C41.2096 24.1912 41.2536 24.6452 41.344 25.043L41.8429 27.9609C41.9198 28.3743 41.9493 28.7985 42.0041 29.2148C42.1613 30.4088 42.7537 32.0461 41.0893 32.181L39.9338 32.2554C37.5709 32.4948 35.9465 33.2346 33.9261 34.3791L31.5501 35.8309C29.2607 37.3284 27.5039 39.0893 26.8074 41.8633C26.7298 42.1723 26.7394 42.5642 26.5556 42.8358C25.6085 44.2352 22.5229 44.277 21.5494 42.9542C21.3197 42.642 21.2878 42.2544 21.2012 41.888C20.4555 38.7344 18.3799 37.0319 15.8049 35.4473C13.3465 33.9345 10.7619 32.4697 7.8272 32.2389L6.96123 32.1795C5.65403 32.1094 5.73957 31.5728 5.81565 30.5551C5.96832 28.513 6.38073 25.9255 6.87639 23.9341L7.27482 22.4125C7.9997 19.9748 8.32703 18.7993 8.00532 16.207L7.77264 14.4877C7.38418 12.2094 6.54854 9.5527 5.34395 7.57289L4.8167 6.72703C4.41219 6.00661 4.12484 5.16891 3.96703 4.35847L3.81393 3.32643C3.70793 2.61001 3.62201 0.317992 4.59337 0.0901894L4.6292 0.0822656C4.90534 0.0197919 5.24143 0.232022 5.35426 0.477511L5.36589 0.503906C5.5577 0.930459 5.32112 1.37561 5.26201 1.80645C5.12298 2.81959 5.34334 3.84167 5.60453 4.81641C5.863 5.78081 6.49698 6.5273 6.95982 7.38881C7.20245 7.84041 7.37382 8.32434 7.60689 8.77842L8.38234 10.8666L39.6393 10.8582C39.9267 9.64772 40.6109 8.16455 41.2172 7.08033L41.8058 6.13017C42.5437 4.86773 42.8783 3.32847 42.7466 1.875C42.7113 1.48554 42.4543 0.966591 42.6181 0.588534L42.6433 0.532219C42.7614 0.268527 42.9557 0.156877 43.2137 0.0585938L43.2394 0H43.4113ZM8.81889 12.3506L9.00779 13.141C9.0137 13.1746 9.02082 13.201 9.03048 13.2331L9.13323 13.7145C9.77701 16.2947 9.75353 19.6057 8.91545 22.138L8.75804 22.671C8.73493 22.755 8.72832 22.8398 8.6919 22.9197L10.8519 22.9496C12.7329 23.0486 15.0894 23.4024 16.776 24.2001C18.6979 25.1091 19.6655 25.6672 21.8946 26.0345C24.371 26.4426 27.1492 26.0418 29.4378 25.0742C30.3317 24.6963 31.1538 24.1959 32.0715 23.869C33.2338 23.4549 34.0886 23.3621 35.2135 23.1076L36.0651 22.9984L38.7271 22.8359C38.8949 22.8375 39.1134 22.869 39.2738 22.8245L38.996 21.8438C38.1934 19.1035 38.3309 16.3843 38.9031 13.6273L39.1901 12.3708L9.59059 12.3687C9.3444 12.3685 9.06034 12.3949 8.81889 12.3506ZM38.1506 24.3329C36.1258 24.3802 33.6146 24.7478 31.7685 25.6119L30.3429 26.3214C26.2794 28.1461 21.6131 28.1227 17.5755 26.2728L16.2425 25.5969C14.7452 24.8899 12.6744 24.5525 10.9925 24.4682L8.29192 24.4469C8.24092 24.5654 8.23773 24.6769 8.21514 24.8013L7.74732 27.3382L9.01018 27.5064C10.6893 27.7915 13.3347 28.5449 14.8209 29.4825C17.4278 30.8625 20.1162 32.9438 21.3633 35.6596C21.465 35.8808 21.5433 36.1133 21.6603 36.3281C22.6534 38.1513 25.442 38.0119 26.3872 36.226C26.648 35.7331 26.8356 35.2229 27.1435 34.7511C29.2255 31.5606 32.8483 29.3506 36.4339 28.2198L40.2632 27.3523C40.2796 27.2067 40.21 26.9872 40.1845 26.8405L39.9233 25.4242C39.8519 25.0715 39.7463 24.7099 39.7185 24.3509L38.1506 24.3329ZM7.49195 28.831L7.29662 30.5128C7.2924 30.579 7.27534 30.6639 7.29409 30.7274C7.83193 30.7871 8.35698 30.7819 8.89482 30.8738C11.4827 31.3161 13.7404 32.4774 15.9658 33.8086C16.671 34.2304 17.3981 34.6465 18.064 35.1285L19.3115 36.1051C19.5029 36.2683 19.6842 36.4712 19.887 36.6167L19.9573 36.6611C20.1735 36.5333 19.9058 36.1277 19.8279 35.9773C17.8132 32.0869 12.3249 29.4062 8.1257 28.8853C7.91551 28.8592 7.70092 28.8606 7.49195 28.831ZM40.369 28.8618C39.5952 28.93 38.7992 29.1168 38.0477 29.31C34.5986 30.1969 31.3496 31.9213 29.0391 34.665C28.7673 34.9876 27.9023 36.1826 27.9359 36.5743C27.9515 36.7553 28.1414 36.5621 28.2011 36.5111C29.2852 35.5754 30.0681 34.993 31.2762 34.2221L33.4628 32.9271C35.4295 31.831 37.4648 30.9645 39.7268 30.7786L40.6921 30.7433L40.4918 28.8633L40.369 28.8618ZM20.9556 37.8634C21.1164 38.1932 21.3414 38.48 21.5156 38.8008C21.9461 39.5937 22.4064 40.4874 22.6036 41.3774L22.8022 42.183C22.8929 42.2267 22.9745 42.2659 23.0745 42.2837L23.555 42.367C23.7074 42.3865 23.8421 42.393 23.9886 42.4482C24.3904 42.3591 24.8285 42.3633 25.1988 42.1735L25.845 40.094C25.9733 39.7811 26.1064 39.4615 26.2675 39.1639L27.025 37.8877C26.7318 38.1208 26.44 38.3766 26.1214 38.5736C24.8022 39.3891 22.8432 39.3276 21.606 38.3681C21.3808 38.1935 21.2129 37.996 20.9556 37.8634Z" fill="black"/>
</svg>
