<svg width="48" height="48" viewBox="0 0 48 48" fill="none" xmlns="http://www.w3.org/2000/svg">
<path d="M10.7638 39.9692L9.84399 39.7301C9.0564 39.5449 8.51452 39.3169 8.28962 38.4371C8.16071 37.933 8.2636 36.4118 8.53369 35.992L8.61451 35.8676C8.83416 35.5435 9.20555 35.2685 9.59349 35.1968L9.80705 34.2307C10.1308 32.7767 10.7076 31.3946 11.5026 30.1352L12.3691 28.7998C14.3817 25.3602 14.6063 21.5292 12.6151 17.9591C11.9274 16.7258 11.532 16.1181 11.2821 14.6704C10.8843 12.3667 11.7458 10.252 13.5257 8.72215C13.5962 8.66159 13.7404 8.5901 13.7931 8.52405C13.8054 8.50863 13.7989 5.43921 13.7986 5.12693L13.7944 4.27723C13.7934 4.08398 13.7631 3.85446 13.8558 3.67916L13.8749 3.64474C14.183 3.07836 15.0605 2.99147 15.3579 3.63004L15.3751 3.66818C15.5606 3.99645 15.4593 4.50211 15.4591 4.86673L15.4544 6.97526C15.4536 7.20579 15.4166 7.51146 15.4633 7.73332C19.0449 7.30751 21.6628 10.6004 22.5338 13.7482C22.8319 14.8256 22.3194 14.7179 23.509 14.719L25.3968 14.7367L26.4017 11.7776C27.2034 9.62721 29.2705 8.03777 31.528 7.72019C31.8558 7.67412 32.2004 7.67862 32.5318 7.66188L32.5289 4.19001C32.5298 3.6209 32.7101 3.23693 33.3299 3.17285C33.6713 3.19552 33.9516 3.29541 34.111 3.63516L34.1252 3.66818C34.3265 4.02266 34.2186 4.58047 34.2189 4.97327L34.2201 7.6572C34.2212 8.0104 34.2634 7.86246 34.4712 8.0913C35.6449 9.38431 36.0606 10.2095 36.583 11.84C36.7789 12.4512 36.8059 13.8217 36.6969 14.3882L36.5116 15.4269C35.9796 17.5027 34.6241 19.1387 34.2354 21.1019L34.1111 21.812C33.9931 22.728 34.0199 23.6245 34.121 24.539L34.2206 25.1999C34.2764 25.5447 34.3946 26.1121 34.5142 26.4408L34.9138 27.5914C35.1503 28.1737 35.4488 28.773 35.7765 29.3088L36.8717 31.0123C37.3445 31.8056 37.8121 32.7461 38.0462 33.6478L38.2509 34.3713C38.3394 34.657 38.3888 34.9597 38.4391 35.2547L38.8142 35.3863C39.2455 35.5819 39.4908 35.9375 39.6561 36.3635L39.7021 36.4938C39.759 36.7351 39.7246 37.0479 39.7249 37.2961C39.7282 39.5139 39.2173 39.4956 37.3482 40.0349L36.3512 40.3408C33.7608 41.1049 31.4323 41.8542 29.9716 44.2544C29.8269 44.4923 29.5871 44.751 29.3034 44.812C28.5737 44.9689 28.3554 44.3155 28.2221 43.7664L27.7396 41.8293L20.3065 41.8181C20.2427 41.9191 20.2252 42.0909 20.1931 42.2077L19.7477 44.0211C19.6797 44.2968 19.5935 44.5377 19.3357 44.6902C18.2437 45.3359 17.7086 43.554 17.1276 42.9818C15.7167 41.5923 12.6277 40.4787 10.7638 39.9692ZM32.5248 9.36227C30.7771 9.49254 28.976 10.2611 28.1991 11.9485C28.0446 12.2841 27.9514 12.6564 27.84 13.008L26.9358 15.5869C26.4322 16.9181 26.0308 17.6844 25.0829 18.7203C25.8077 19.4812 26.4969 20.0413 27.6039 20.1093L27.6272 20.1094L32.814 19.7698C33.1593 18.7247 33.5784 17.9962 34.0772 17.0241C35.0723 15.0846 35.4779 12.72 34.3091 10.757C34.0199 10.2713 33.6402 9.82348 33.29 9.37957L32.5248 9.36227ZM15.9971 9.45495C14.2607 9.6454 12.5997 12.2209 12.8736 13.7815C13.1284 15.2338 13.2861 15.6889 13.9979 16.8944C14.3456 17.4834 14.6676 18.1295 14.8942 18.7759L15.0167 19.0807C15.0941 19.2593 15.1434 19.4614 15.1843 19.6519C15.6565 19.7887 16.151 19.8461 16.6369 19.908L17.8259 20.0637C18.4882 20.1216 19.1698 20.1282 19.8342 20.114C21.1934 20.0999 21.9507 19.7644 22.9026 18.7218C22.1653 18.0008 21.5629 17.2011 21.256 16.1955C21.06 15.5534 21.0285 14.8592 20.8735 14.203C20.3983 12.1904 18.3369 9.25048 15.9971 9.45495ZM23.5395 16.4093C23.4753 16.4199 23.4127 16.4201 23.3496 16.4331C23.4936 16.7568 23.7033 17.1802 23.9938 17.3888C24.0848 17.2915 24.1633 17.2001 24.2342 17.0865C24.3857 16.8675 24.5231 16.6539 24.6377 16.4135L23.5395 16.4093ZM23.1469 20.8684C21.9123 21.7313 21.0263 21.8745 19.5069 21.8701C18.3977 21.8669 17.3183 21.8107 16.2227 21.6213L15.745 21.5266C15.6997 21.5175 15.63 21.4936 15.5867 21.5046C15.8532 24.3745 15.5478 26.6301 14.1141 29.2177L12.7142 31.4767C12.1182 32.4808 11.4163 34.2206 11.3079 35.4194L12.9524 35.8805C13.9572 36.2239 14.8987 36.6973 15.8674 37.1261C18.0183 38.0781 18.6728 38.186 20.9651 37.3132C21.6908 37.0368 22.3985 36.8827 23.1732 36.8348L23.1744 21.3342C23.1743 21.1941 23.1839 21.0029 23.1469 20.8684ZM24.8407 20.8947C24.8041 21.2686 24.8213 21.6519 24.8212 22.0271L24.8229 36.0018C24.8231 36.2715 24.807 36.5511 24.8416 36.8188L25.5956 36.8791C26.3766 36.957 27.2071 37.0883 27.9517 37.3418C28.6224 37.5702 29.6854 38.2758 30.4111 38.0276L30.4451 38.0163C30.6538 37.943 30.8214 37.7435 30.9987 37.6143C31.8301 37.008 33.8395 36.2181 34.9272 35.98L36.7549 35.485L36.4573 34.3379C35.931 32.5172 35.0381 31.5173 34.1365 29.9343C32.7486 27.4972 32.0182 24.4166 32.3934 21.6058L30.269 21.8251C29.8445 21.8834 29.3917 21.8646 28.9629 21.8673C27.5245 21.8763 26.6172 21.926 25.2943 21.1581C25.1836 21.0938 24.9611 20.8988 24.8407 20.8947ZM9.94595 36.9151C9.90085 37.1434 9.83255 37.6904 9.88524 37.9234C10.0078 37.9885 10.2052 38.0084 10.3434 38.0461L12.0949 38.5205C13.7931 39.0069 16.0617 39.9636 17.4948 41.0198C17.8692 41.2956 18.2097 41.6507 18.5585 41.9599C18.6681 40.9106 19.2129 40.1428 20.321 40.0824L27.7301 40.0856C27.8845 40.0914 28.0956 40.0831 28.2368 40.1503L28.2677 40.1652C29.1866 40.5806 29.1871 40.9721 29.5151 41.8656C31.8 39.8629 33.6869 39.2887 36.6045 38.4342C36.9732 38.334 37.7679 38.1806 38.0799 37.9738L38.1042 37.0058C36.6346 37.2164 33.1614 38.1576 31.9401 39.0404C31.1701 39.5969 31.0694 39.7746 29.988 39.7548C28.6593 39.7304 28.3282 39.2236 27.1877 38.9101C25.7624 38.5183 23.656 38.3794 22.2403 38.7495C20.6712 39.1598 19.5158 39.8587 17.7814 39.6245C16.6857 39.4765 15.6668 38.9633 14.6755 38.5034C13.3914 37.9077 11.3839 37.0489 9.94595 36.9151Z" fill="black"/>
</svg>
