<svg width="48" height="48" viewBox="0 0 48 48" fill="none" xmlns="http://www.w3.org/2000/svg">
<path d="M10.865 40.3574L10.1416 40.1666C9.4059 39.9095 8.48921 39.463 8.14233 38.7209C7.87707 38.1533 8.32679 37.6613 8.62491 37.2189L9.55351 35.8297C11.9523 32.1029 13.9494 27.776 13.6814 23.2406C13.5836 21.5856 13.1355 20.0222 12.5055 18.4982L11.9566 17.2022C11.6335 16.4177 11.7659 16.8588 11.0591 16.3665C8.75396 14.7605 7.55508 12.0951 7.52668 9.328C7.52222 8.89103 7.56666 8.46189 7.59629 8.02689L7.67288 7.3608C7.69407 7.19041 7.67996 7.00802 7.74563 6.84587C7.95844 6.32059 8.55901 6.11823 9.0534 6.37928L9.09343 6.40098C9.27652 6.49905 9.41438 6.69597 9.59255 6.77889L9.61524 6.78878C10.3407 7.12656 11.2168 6.52858 11.8025 6.17341C15.4349 3.97112 19.9374 6.58422 20.6598 10.7106C20.7246 11.0802 20.7089 11.4763 20.7386 11.8505L21.0513 11.965C21.011 11.8639 20.9228 11.8241 20.8708 11.7357L20.9176 11.7202C21.4876 11.8267 20.9227 12.0753 21.503 12.5255C22.0049 12.9149 22.6036 13.1458 23.218 13.289C23.4572 13.3448 23.6969 13.3463 23.9345 13.4234L24.7614 13.281C25.6368 13.0827 26.279 12.665 26.9328 12.0859C26.5269 11.3415 27.2605 11.3878 27.2822 11.0576C27.467 8.24214 30.012 5.68398 32.7846 5.35342C32.9048 5.33083 33.0493 5.36481 33.173 5.36701C34.91 5.39791 34.8895 5.37752 36.3326 6.45086C36.9238 6.89059 37.8581 6.98781 38.5276 6.65284C38.7347 6.54925 38.9273 6.36803 39.1508 6.30245C39.6325 6.16117 40.2022 6.47327 40.3135 6.96981C40.4087 7.39403 40.5044 9.55352 40.4465 9.96709L40.3473 10.83C39.938 13.4277 38.1495 16.0764 35.6239 16.9834C35.2225 17.9679 34.9644 19.0043 34.7687 20.0467L34.6088 20.8478C34.3001 22.8305 34.2587 24.9355 34.5925 26.9181L35.0457 28.8948C35.0547 28.9385 35.0605 28.9761 35.0765 29.0181L35.5064 30.3048C35.6357 30.7199 35.8363 31.1283 36.0154 31.5249L36.5637 32.7072C37.196 33.9199 37.9073 35.0705 38.6557 36.2135L39.4561 37.389C39.597 37.596 39.7598 37.7972 39.8597 38.0283L39.8722 38.0579C40.1199 38.6286 39.5996 39.1347 39.2096 39.4663C38.2698 40.2655 37.3843 40.4461 36.2106 40.5941C34.9736 40.7502 33.8405 41.1297 32.7018 41.6336L31.7475 42.0778C30.0629 42.823 27.7395 42.9508 26.1506 41.864C25.6868 41.5467 25.3805 41.0215 24.8485 40.8204C23.9473 40.4798 23.1349 40.6554 22.4795 41.3208C21.014 42.8088 18.7484 42.9131 16.8626 42.2929C16.1142 42.0468 15.4174 41.6767 14.6798 41.4029C14.1601 41.2099 13.6171 41.0941 13.0846 40.9435C12.3592 40.7383 11.6086 40.4838 10.865 40.3574ZM33.3679 7.13434C30.9355 7.44648 29.3106 9.0535 29.0155 11.5314C28.827 13.1145 30.1258 15.0562 31.4974 15.7172C31.8276 15.8763 32.2102 15.993 32.579 15.947L32.6173 15.9426C32.7587 15.9247 32.8799 15.8657 33.0111 15.8146C33.3574 15.6799 33.4654 15.967 33.8639 15.79C33.9571 15.7486 34.0559 15.7212 34.1537 15.6933C35.5698 15.3884 36.8777 14.2871 37.6516 13.0925C38.5157 11.7587 38.878 10.0513 38.7218 8.46887L38.6963 8.47539C37.7378 8.70953 36.5922 8.64466 35.7329 8.12308C34.8645 7.59601 34.5545 6.98284 33.3679 7.13434ZM14.3984 7.15811C12.1671 7.4177 12.0717 8.86384 9.2798 8.52437C9.20452 9.50786 9.27544 10.6526 9.60132 11.5756L9.70547 11.9064C10.3986 13.7517 11.9038 15.2871 13.869 15.682C15.0517 15.922 16.1722 15.7282 17.1811 15.0626C20.6753 12.7576 18.6644 6.90152 14.3984 7.15811ZM27.6508 13.789C26.7961 14.4414 25.9293 14.8332 24.8626 15.0458L24.8465 39.0072C25.5506 39.299 25.9374 39.2641 26.5816 39.9129C26.7354 40.0677 26.8785 40.2497 27.0565 40.3767C28.1353 41.1467 29.8142 40.9929 30.9659 40.5145C32.1651 40.0164 32.9963 39.4762 34.3647 39.1727C34.8794 39.0365 35.392 38.9379 35.9173 38.8547L36.4541 38.7963C37.0135 38.7079 37.4663 38.5428 37.9562 38.2616L36.0491 35.347C34.3162 32.4721 33.1808 29.656 32.777 26.3282L32.6442 24.1674C32.6436 23.0724 32.6583 21.9074 32.8662 20.8267L33.5721 17.5209C31.3459 18.2197 29.0911 16.6406 28.0668 14.7282C27.9017 14.4199 27.7937 14.104 27.6508 13.789ZM20.3267 13.8069C19.4617 15.835 17.6864 17.268 15.4456 17.4987C15.0532 17.5391 14.3497 17.5651 13.9731 17.4574L15.0357 20.6272C15.866 23.3355 15.2994 27.366 14.4418 29.9745L13.9694 31.2306C13.6916 31.945 13.3844 32.6655 13.0195 33.3408L10.0728 38.207C10.4792 38.4214 10.9265 38.5264 11.3647 38.655L13.1534 39.1354C13.9887 39.3543 14.8017 39.5663 15.6106 39.8747C16.1699 40.088 16.6874 40.3926 17.2497 40.5971C18.3601 41.0011 19.9223 41.0799 20.9259 40.374C21.643 39.8697 21.7512 39.3545 22.7706 39.1102C22.9001 39.0792 23.0372 39.0822 23.1584 39.0231L23.1568 15.5667C23.1557 15.4028 23.1758 15.1997 23.1429 15.04C22.2218 14.8877 21.0001 14.5032 20.3267 13.8069Z" fill="black"/>
</svg>
