<svg width="48" height="48" viewBox="0 0 48 48" fill="none" xmlns="http://www.w3.org/2000/svg">
<path d="M37.4477 41.4508C37.5307 41.8925 37.6719 42.4055 37.6008 42.8564L37.5947 42.8905C37.4319 43.8179 36.4224 44.0312 35.6704 44.1644L27.9357 45.6258C27.2404 45.7156 26.5224 45.7274 25.8218 45.7282L21.4324 45.7236C20.5046 45.6858 19.4108 45.5543 18.516 45.359C16.6473 44.9514 15.1402 44.3144 13.1724 44.1615L12.1914 44.1279C11.4472 44.0658 10.6316 43.6779 10.4079 42.9102L10.3976 42.8741C10.3057 42.5627 10.4051 42.2041 10.4746 41.8944L10.7163 40.8397C10.7865 40.5395 10.7164 40.2206 10.8223 39.93C10.9532 39.5706 11.252 39.2502 11.4462 38.9194C12.3446 37.389 12.9908 35.6275 13.3004 33.8844L13.4073 33.2332C13.8202 29.7876 12.9878 27.1651 11.2808 24.1304L9.93249 21.9065C8.97446 20.1795 8.20243 17.3654 8.67915 15.4825L9.82711 11.0155C10.2999 8.81145 10.0527 6.91474 9.26241 4.84526C9.13018 4.49904 8.91122 4.16325 8.84438 3.80057C8.73211 3.19172 9.35255 2.72699 9.94093 2.72242L11.5199 2.62252C12.2293 2.55318 12.7634 2.43507 13.4311 2.32642C13.9058 2.28802 14.3757 2.60078 14.4313 3.0937C14.4983 3.68863 14.6373 4.28055 14.7677 4.86312L14.9544 5.82405C15.3762 7.74588 15.1401 8.65727 17.4261 9.20923L20.3089 9.71862C21.4314 9.89604 22.6269 9.86098 23.7587 9.86182L25.9822 9.85071C27.1749 9.78771 28.712 9.55287 29.8776 9.31873C31.6274 8.96726 32.4191 8.89226 32.8303 6.98679L33.4909 3.0723C33.6128 2.19647 34.4296 2.3601 34.9847 2.43941L36.5062 2.61751C37.2843 2.69625 38.4386 2.44068 38.9651 3.17192C39.0877 3.34221 39.1624 3.56662 39.1287 3.77661L39.1234 3.80843C39.0796 4.08607 38.9201 4.33431 38.8162 4.59359L38.3872 5.77315C37.9148 7.19257 37.7588 8.57468 37.9648 10.0689L38.1035 10.8197C38.1721 11.2091 38.2442 11.5939 38.3442 11.9764L39.3491 15.6951C39.415 15.9041 39.4395 16.1253 39.4426 16.3436L39.4434 16.9664C39.4031 20.3412 37.4406 22.1897 35.9772 24.9116C35.1239 26.4987 34.5897 28.5107 34.4816 30.2881C34.3337 32.7205 34.7774 35.2662 35.8556 37.4653L36.9293 39.4739C37.3154 40.062 37.277 40.7818 37.4477 41.4508ZM12.5993 4.36884L11.0969 4.50062C11.3189 5.19612 11.5937 5.86723 11.7276 6.58938C12.0443 8.29816 11.9861 9.22395 11.7696 10.8786L11.9853 10.6699L13.8486 8.94963C13.8224 8.8429 13.7653 8.74849 13.7239 8.64724C13.329 7.68049 13.2292 6.61976 13.0199 5.60412C12.937 5.20226 12.8067 4.77626 12.7616 4.37093C12.7045 4.35536 12.6569 4.36223 12.5993 4.36884ZM35.1749 4.35369C34.8604 5.92301 34.7701 7.40909 34.1505 8.90651C34.3748 9.1714 34.6804 9.3942 34.9335 9.63354L36.1077 10.7629L36.2017 10.7872C35.9399 9.59895 35.9303 8.2293 36.1377 7.02959L36.3892 5.86155C36.5126 5.39665 36.7114 4.9669 36.8439 4.51074L35.1749 4.35369ZM33.2179 10.535C32.0211 12.7789 30.3968 14.8124 27.8857 15.5686L27.3371 15.7223C27.9471 16.2444 28.724 16.5454 29.5086 16.6814C31.834 16.903 33.7958 16.0438 34.8736 13.8316C35.0678 13.4331 35.2038 13.0258 35.3592 12.6123C34.7415 11.9351 33.7188 11.1836 33.2179 10.535ZM14.7603 10.5769C14.3781 10.9815 13.9471 11.3331 13.5436 11.7151C13.2561 11.9873 12.973 12.3279 12.6566 12.5615L12.619 12.5918C12.7766 13.0127 12.9399 13.4651 13.1452 13.8647C14.1655 15.8511 16.294 17.0432 18.5178 16.6795C19.226 16.5558 20.1149 16.2391 20.6564 15.7327L20.6618 15.7147C17.903 14.986 16.4466 13.4912 15.0601 11.1234C14.9587 10.9501 14.8812 10.7351 14.7603 10.5769ZM30.7369 11.0506C30.0112 11.2479 29.2657 11.3459 28.5229 11.4518L26.3248 11.7088L21.4105 11.7096C20.0956 11.6426 18.4161 11.4074 17.1752 11.0558C17.6058 11.6301 18.0611 12.1522 18.5922 12.6379C19.4847 13.4085 20.5175 13.8251 21.6789 13.985C21.813 14.0034 21.9804 14.0797 22.111 14.0651C22.5481 14.016 22.7076 13.7707 23.202 13.8846C23.554 13.5786 24.0209 13.3008 24.4678 13.5987L24.5038 13.6224C24.7523 13.7904 24.7016 13.8811 25.0413 13.8761C25.2067 13.8736 25.3232 13.8986 25.4791 13.9555C25.8589 14.0939 26.2889 13.9802 26.6722 13.9003C28.2676 13.5679 29.9341 12.4881 30.7739 11.0634L30.7369 11.0506ZM11.1171 13.7971C10.9493 14.2432 10.8668 14.7087 10.7522 15.1703C10.4272 16.4803 10.2813 17.4978 10.7274 18.8051L11.1129 19.9686C11.2721 20.3489 11.4311 20.7325 11.6311 21.0936L13.2352 23.7547C13.7342 24.6624 14.1263 25.6568 14.4875 26.6248L15.2114 29.3074C15.308 29.6579 15.3282 30.0802 15.351 30.446L15.3706 32.4256C15.2804 34.0159 14.9052 35.5832 14.3558 37.074L13.8425 38.2956C13.7558 38.4873 13.5864 38.9554 13.4718 39.0975L14.3591 39.1092C17.2322 39.1308 20.3118 40.6266 22.0957 42.8528C22.1707 42.9464 22.7542 43.768 22.7831 43.7829L25.1022 43.7814C25.309 43.7813 25.6182 43.141 25.7971 42.9059C26.648 41.7873 27.8278 40.8821 29.1566 40.4081C29.8564 40.1586 30.602 40.0681 31.3246 39.9115L33.2801 39.4864C33.7246 39.3986 34.1785 39.3357 34.617 39.2216C34.0101 37.8301 33.3057 36.4544 33.0057 34.9508C32.7978 34.0593 32.6484 33.1188 32.6044 32.2041L32.5984 31.2494C32.6047 28.0244 33.5181 25.238 35.1961 22.5333L36.1953 21.0174C36.8949 19.9046 37.8407 17.6241 37.5309 16.2521L36.8838 13.8548C36.6967 14.3059 36.5059 14.7556 36.2547 15.1756C33.718 19.4179 28.1232 19.7343 24.8237 16.0594C24.7223 15.9464 24.5537 15.8074 24.4939 15.6678C24.3852 15.4142 24.3377 15.4608 24.0735 15.4579L23.6474 15.467C23.531 15.7271 23.3106 15.9533 23.1182 16.1586C20.993 18.4265 17.7464 19.3648 14.8444 17.9982C13.1899 17.2191 11.6947 15.625 11.1347 13.8748L11.1171 13.7971ZM12.6218 40.9677L12.2842 42.1764L14.4613 42.4056C16.3298 42.6419 18.0985 43.4309 20.0706 43.7084L20.408 43.7318C19.994 43.3406 19.6227 42.9463 19.1618 42.602C17.8598 41.6295 16.0151 41.0844 14.425 40.9734C13.8285 40.9318 13.2201 40.9806 12.6218 40.9677ZM35.3819 40.9803L31.6103 41.7612C29.9131 42.1199 28.853 42.2789 27.6169 43.6287L27.5167 43.737L27.8967 43.7062L35.7257 42.2212L35.3819 40.9803Z" fill="black"/>
</svg>
