<svg width="48" height="48" viewBox="0 0 48 48" fill="none" xmlns="http://www.w3.org/2000/svg">
<path d="M7.35479 41.3481C6.98644 41.2465 6.62293 41.0457 6.54122 40.6334L6.53583 40.605C6.47855 40.3515 6.61955 39.9997 6.68944 39.7535L7.58119 36.7723C7.74441 36.2627 7.93688 35.7505 8.04666 35.2261L8.39658 33.0933C8.86383 30.8347 9.85332 28.7117 11.2023 26.8455C12.0578 25.662 13.0251 24.6055 13.5842 23.229C14.894 20.0043 14.2514 17.2687 12.9637 14.1968C11.7219 11.2344 11.8711 8.07764 13.4582 5.23945C14.1848 3.94027 14.8647 3.73481 15.8365 5.08444C16.2731 5.69072 16.8049 6.48464 17.0574 7.19766L17.1902 7.52489C17.4296 8.06353 17.6626 8.68524 17.7974 9.26077L17.9236 9.71189C17.9898 9.88734 18.0443 10.1097 18.0811 10.2932L18.4986 12.4193C19.5063 12.2508 20.5947 12.5209 21.4398 13.083C22.278 13.6403 22.325 13.7431 23.3077 14.0021L23.5021 14.0404C24.7444 14.2346 25.5202 13.8249 26.4498 13.1484C27.3461 12.4962 28.4156 12.2608 29.5037 12.4291C29.976 9.77714 30.5765 7.03481 32.2951 4.887C32.5808 4.5298 32.8083 4.27749 33.2594 4.1764C34.4985 4.07804 35.4888 7.45744 35.679 8.37811C35.8606 9.25678 35.9415 10.3291 35.8573 11.2345C35.6932 12.998 34.8048 14.5603 34.2697 16.2192C33.1883 19.5713 33.6232 22.757 35.7826 25.5218L36.8917 26.9754C37.3711 27.6493 37.8241 28.3855 38.1858 29.1293L38.7196 30.2691C38.8031 30.439 38.8664 30.6296 38.9312 30.8081L39.4103 32.2754C39.5677 32.852 39.66 33.4416 39.7519 34.0308L39.9216 34.8702L41.251 39.48C41.3147 39.695 41.3701 40.0162 41.4487 40.2073C41.803 41.0686 40.5428 41.3874 40.0144 41.5436L36.38 42.468C33.513 43.1038 30.6173 43.5102 27.6866 43.6843L26.312 43.7758L21.4317 43.7748L20.4259 43.6917C17.0139 43.4837 13.5845 42.9984 10.2624 42.1814L7.35479 41.3481ZM14.7038 6.19313C13.918 7.92117 13.5139 9.57263 13.7874 11.4972C13.8455 11.9062 13.9494 12.3865 14.1007 12.7716L14.8355 14.6597C14.9611 15.0049 15.1036 15.3377 15.2088 15.6909L15.5952 17.121C15.8123 17.8822 15.8243 18.996 15.8267 19.7855C15.8338 22.0827 15.0916 24.279 13.7322 26.1401L12.5695 27.6441C10.8342 30.0089 10.1934 31.7959 9.74987 34.5859C10.2767 34.7936 10.8813 34.8957 11.4317 35.033L13.1912 35.447L17.3322 24.7597C17.4794 24.4334 17.6649 24.105 17.7433 23.7534C18.0908 22.1977 18.0692 20.6189 17.9381 19.0434L17.617 16.4058L16.9876 12.8902C16.6014 10.5699 16.0288 8.34211 14.7947 6.32545L14.7038 6.19313ZM33.2392 6.21633C31.7984 8.31469 31.2711 11.2525 30.8602 13.7222L30.7546 14.3859C30.7442 14.4739 30.7489 14.5614 30.7333 14.6492L30.4708 15.9019C30.2662 17.0628 30.0678 18.2688 30.0066 19.4475L30.0569 21.8134C30.1353 22.6944 30.2888 23.5978 30.5837 24.4331L34.7233 35.401C35.0807 35.3493 35.4653 35.296 35.8105 35.1907L36.7859 34.9533L36.8126 34.9439C37.2686 34.7862 37.8061 34.6784 38.2786 34.5986L38.028 33.2026C37.6769 31.6771 37.0413 30.2004 36.2425 28.8569C35.631 27.8282 34.852 26.9426 34.1509 25.98C31.9523 22.9613 31.7064 19.275 32.7537 15.8048C33.6064 12.9794 34.8241 11.8111 34.1134 8.56355C33.9397 7.76977 33.6305 6.92859 33.2392 6.21633ZM28.5998 13.9544C27.8088 14.03 27.2924 14.5303 26.6473 14.9305C25.1624 15.8518 23.0856 15.8712 21.5452 15.045C20.7535 14.6205 19.7952 13.6222 18.7532 14.0211L19.5312 19.3976C19.5853 19.7287 19.5614 20.0903 19.5619 20.426L19.4728 22.7339C19.3537 24.0014 19.1093 24.5632 18.6369 25.7349L14.7272 35.7745L17.9296 36.2508C18.6611 36.3772 19.4543 36.318 20.0932 36.44C20.4966 36.5171 20.9306 36.4651 21.34 36.4949C22.2452 36.5606 23.1505 36.5505 24.0572 36.5479L25.8164 36.5383L30.4293 36.1802L33.1634 35.753L29.4913 26.0132C28.73 23.9212 28.4228 22.6022 28.4319 20.3123C28.4332 19.9908 28.4231 19.6567 28.4649 19.3374L29.2329 14.0028C29.0233 13.9725 28.8121 13.9414 28.5998 13.9544ZM38.6281 36.0816L36.7267 36.5648C35.158 36.9502 33.5668 37.32 31.9689 37.5652L28.84 37.9429L24.5849 38.1312L20.1544 38.036C20.0285 38.027 19.9081 37.9942 19.7829 37.9837L18.0822 37.84L13.319 37.0729L10.8086 36.482C10.3403 36.362 9.85749 36.2505 9.40126 36.0919L9.06718 37.2133L10.9876 37.845C13.2471 38.4823 16.2262 38.9648 18.5392 39.1857L20.8601 39.3223C21.0709 39.3322 21.2777 39.3785 21.4882 39.3858L26.7993 39.3796C26.9731 39.3713 27.142 39.3345 27.3137 39.324L29.5219 39.1753C30.857 39.0676 32.1871 38.8379 33.5041 38.5996L35.3663 38.2186C35.6562 38.1548 35.9525 38.0498 36.2518 38.0638C36.7898 38.0887 37.2158 38.5353 37.0318 39.0779C36.8096 39.7333 34.6949 39.8935 34.0369 40.0752C32.2369 40.4219 30.4333 40.6987 28.6054 40.8469L26.8764 40.9508L21.4096 40.9487L19.6221 40.8441C17.8192 40.7155 16.0034 40.4638 14.2267 40.133L11.6955 39.6292C10.6366 39.3752 9.61008 39.0622 8.58779 38.6888L8.23308 39.954C9.94679 40.6662 12.8324 41.181 14.6411 41.4708L16.9754 41.8101C17.1301 41.8306 17.2881 41.8289 17.4433 41.8463L20.8478 42.1311C21.0581 42.1426 21.2646 42.1867 21.4749 42.1955L26.4296 42.195L30.6663 41.8398L35.2033 41.1296L39.7833 39.9821L38.6281 36.0816Z" fill="black"/>
</svg>
