<svg width="48" height="48" viewBox="0 0 48 48" fill="none" xmlns="http://www.w3.org/2000/svg">
<path d="M35.8832 42.066C36.0239 41.6788 36.645 40.0155 36.6099 39.6368C34.677 39.6372 32.5766 39.6474 30.855 38.64C30.3913 38.3687 30.0059 38.0012 29.5664 37.6988L26.2812 35.6385C25.8514 35.3885 25.3962 35.1375 24.931 34.9612C24.6622 34.8593 24.3476 34.7978 24.0933 34.6731L24.0516 34.6518C22.4209 35.063 19.6511 36.7344 18.1895 37.7617L17.3564 38.3971C16.0148 39.3839 14.3507 39.544 12.7442 39.5438C12.3994 39.5438 12.0236 39.573 11.684 39.519L11.3778 39.4802L12.2179 42.4966C12.2714 42.6452 12.2599 42.8469 12.1997 42.9897L12.1507 43.096C11.9177 43.5059 11.3629 43.64 10.9683 43.3808C10.6658 43.1822 10.5861 42.7501 10.4831 42.4278L10.0219 40.7177C9.06743 36.882 8.85044 33.0322 10.5656 29.3978L11.5684 27.4531C13.0053 24.7687 13.128 22.8524 12.0266 20.0155L11.3036 18.3309C10.8625 17.4257 10.8166 17.4006 10.1828 16.6797C9.63021 16.0511 8.63585 14.0235 8.9088 13.1604C8.99187 12.8978 9.23332 12.7336 9.40765 12.5324L9.9626 11.8476C11.216 10.1643 11.8899 8.10778 11.7382 6.01163C11.6905 5.352 11.4381 4.76869 12.3232 4.50369C12.719 4.48788 13.0501 4.62793 13.2074 5.022L13.2187 5.05069C13.4863 5.68243 13.3376 7.75322 13.2237 8.38777C14.1237 8.30227 15.0055 8.21419 15.9043 8.33194C17.6937 8.56636 19.8378 9.63178 20.6361 11.3544C21.7493 13.7561 25.7374 13.7471 27.2067 11.6942C27.3581 11.4827 27.4364 11.208 27.5834 10.9843C28.3907 9.75511 29.7668 8.86022 31.1733 8.48302C32.4038 8.15302 33.479 8.35017 34.7184 8.37141L34.6457 7.6171C34.5418 6.91936 34.6362 6.12732 34.7197 5.4345C34.8336 4.48796 35.7683 4.14016 36.2604 4.87514C36.4594 5.17233 36.3597 5.57771 36.2907 5.90616C36.1375 6.63586 36.2475 7.77708 36.4097 8.48039C36.6603 9.56682 37.6359 11.6636 38.4956 12.381C38.7891 12.6258 38.8415 12.6873 39.0004 13.0429L39.0231 13.0815C39.0929 13.2069 39.0633 13.4577 39.0641 13.6023L39.0655 14.2473C39.0652 14.3951 39.0723 14.5497 39.0299 14.6927L38.8392 15.4035C38.6197 16.0915 38.2423 16.735 37.7667 17.2787C37.4843 17.6016 37.1584 17.874 36.9261 18.2392C35.6439 20.2541 34.7369 23.2359 35.5433 25.5959L35.6013 25.7812C35.8032 26.4845 36.1425 27.2163 36.5163 27.8437L37.2852 29.1004C37.6863 29.8193 38.1893 30.9433 38.3329 31.775L38.4761 32.4227C38.6606 33.3728 38.6766 34.2719 38.6779 35.2327L38.6719 36.5077L38.3954 39.0685C38.2235 40.109 37.924 41.1537 37.589 42.1523L37.3782 42.708C37.2657 42.9994 37.1975 43.284 36.8902 43.4326C36.4374 43.6516 35.9368 43.4088 35.7478 42.9607C35.6202 42.6585 35.7726 42.3481 35.8832 42.066ZM14.7874 9.92414L13.6988 10.0015C13.4014 10.0263 13.037 10.0304 12.7557 10.129C11.9103 13.5326 15.0241 16.1095 18.4298 15.2909C19.1005 15.1078 20.3165 14.487 20.7264 13.8708C19.5479 13.0019 19.6641 12.6839 18.9521 11.7175C17.9809 10.3992 16.3644 9.87042 14.7874 9.92414ZM32.5483 9.92021C31.2713 10.0081 30.0049 10.593 29.1578 11.5674C28.9002 11.8637 28.7753 12.1935 28.5865 12.5288C28.2692 13.0925 27.7781 13.4668 27.2808 13.8604C27.7927 14.5813 29.0147 15.2382 29.8459 15.3717L30.2083 15.415C31.4723 15.5843 32.7751 15.2485 33.789 14.4767C34.9734 13.5752 35.841 11.5063 35.2806 10.0711L32.5483 9.92021ZM11.2833 12.8565L10.5013 13.7166C10.9281 14.9055 11.1487 15.4115 12.053 16.2923C13.4681 17.6704 15.1022 18.3783 17.0602 18.3839C18.6984 18.3886 19.2616 18.0806 20.6879 17.4025C22.3286 16.6224 25.5068 16.4366 27.1813 17.2218C27.7292 17.4787 28.2363 17.8359 28.8131 18.0252C30.8047 18.679 33.2474 18.1181 35.0345 17.1154L35.1871 17.0268C35.466 16.8613 35.7289 16.6718 35.9926 16.4835C37.2127 15.6123 37.4529 15.0811 37.4292 13.6839C37.3674 13.4819 37.1366 13.3373 37.011 13.1601L36.7931 12.8881C36.6191 13.2487 36.5013 13.6245 36.3071 13.9781C34.1933 17.8254 28.8172 18.0879 25.9854 14.8621C25.7188 14.5583 25.8655 14.5701 25.4586 14.662C24.3477 14.9131 23.345 14.8424 22.2565 14.5799C21.9008 14.9881 21.5412 15.3908 21.1192 15.7328C18.4992 17.8555 14.311 17.4648 12.2362 14.787C11.7845 14.2041 11.5016 13.5557 11.2833 12.8565ZM23.5191 18.3718C21.8636 18.4633 20.9314 19.252 19.4331 19.7196C17.7425 20.2471 15.7081 20.1091 14.0561 19.4719L13.4696 19.2151C13.5848 19.664 13.7918 20.0949 13.9225 20.5429L14.1109 21.328C14.263 22.0985 14.3464 22.8718 14.3457 23.6557C14.343 26.8705 12.1491 29.0042 11.3411 31.9335C11.0697 32.9169 10.8743 33.8921 10.8717 34.9168L10.8716 35.7387C10.8723 35.9671 10.8641 36.1884 10.9158 36.4121L11.0788 37.8302C12.4153 38.0426 14.0685 37.9644 15.3513 37.5867C16.0727 37.3743 16.5909 36.9253 17.1822 36.4961L20.7463 34.3098C21.6247 33.8289 22.1967 33.5675 23.1175 33.2429L23.0958 32.4933C23.0879 32.1398 23.0652 31.7112 23.3216 31.4296C23.6598 31.0581 24.1842 31.0314 24.5803 31.3278L24.6046 31.3503C24.7575 31.4944 24.9117 31.7324 24.915 31.9486L24.9163 33.2521C25.0211 33.3034 25.1216 33.3126 25.2297 33.347C26.0483 33.607 26.8301 34.0876 27.5621 34.524L29.9877 36.0196C30.8629 36.6013 31.6126 37.333 32.6345 37.6538C33.8896 38.0476 35.5851 38.026 36.8855 38.0304C36.9445 37.8706 36.9343 37.6707 36.9545 37.4998L37.0382 36.8735C37.1108 36.0662 37.1604 34.3736 37.0156 33.5593L36.925 32.8953C36.7074 31.6639 36.3089 30.5655 35.6583 29.498C35.4502 29.1565 35.216 28.8259 35.0244 28.4753C33.4722 25.6359 33.1626 22.5105 34.4904 19.5118C34.5566 19.3623 34.6517 19.2154 34.705 19.0629C32.4716 19.9653 29.9845 20.3208 27.7033 19.3536C27.2982 19.1818 26.9521 18.9127 26.5518 18.7305C25.6159 18.3043 24.5211 18.3862 23.5191 18.3718Z" fill="black"/>
<path d="M24.1585 22.6915C23.6977 22.7588 23.3219 22.5312 23.1444 22.0994L23.1038 21.9901C22.9282 21.3587 23.2792 20.8126 23.8954 20.6762C23.9689 20.6715 24.0373 20.6669 24.1094 20.6842L24.3397 20.7428C24.5686 20.8229 24.7643 21.0256 24.8355 21.2591L24.8862 21.3959C25.0523 21.988 24.743 22.5354 24.1585 22.6915Z" fill="black"/>
<path d="M24.1462 26.1862C23.747 26.3175 23.2992 25.9928 23.1559 25.6352L23.1236 25.5554C22.8885 24.9494 23.2488 24.3595 23.8261 24.1678C23.9289 24.1639 24.0322 24.1567 24.1341 24.1751L24.2683 24.2004C24.4554 24.2488 24.6569 24.4005 24.7503 24.5688L24.7658 24.5974C24.8062 24.6698 24.837 24.7377 24.8631 24.8168L24.8756 24.8553C25.0766 25.4511 24.7591 26.0585 24.1462 26.1862Z" fill="black"/>
<path d="M24.1587 29.7018C22.8791 29.8436 22.6244 28.009 23.8824 27.6833C24.2829 27.6617 24.6843 27.8499 24.8356 28.2423L24.8443 28.2655C24.9438 28.505 24.9469 28.8429 24.8563 29.0876L24.8436 29.1209C24.7236 29.4398 24.4869 29.6135 24.1587 29.7018Z" fill="black"/>
</svg>
