<svg width="48" height="48" viewBox="0 0 48 48" fill="none" xmlns="http://www.w3.org/2000/svg">
<path d="M18.2887 43.8442C19.2191 44.2654 20.0685 44.8355 20.7167 45.6343C21.0088 45.9944 21.6509 46.7945 21.4385 47.2923L21.4258 47.3204C21.3282 47.5473 21.1353 47.7573 20.8871 47.8135L20.6723 47.8538C20.1363 47.8979 19.8735 47.1488 19.6152 46.8003C18.441 45.2165 17.0112 45.1227 15.3129 44.6128C13.7631 44.1476 12.1279 43.5884 10.8051 42.6322C10.3164 42.2789 9.97657 41.9695 10.2467 41.3461C10.1654 41.2084 10.0595 41.0539 10.0285 40.8963L10.0218 40.86C9.93579 40.4566 10.058 40.3303 10.0742 39.9768L10.223 38.0662C10.252 37.6213 10.2067 37.1643 10.2548 36.7231C10.3661 35.7042 11.0125 34.2254 11.4915 33.3564L12.8037 31.1773C13.8335 29.5664 14.4145 28.6603 14.7441 26.7891C15.1443 24.5173 14.0804 22.7205 12.9472 20.8264C11.2234 17.945 10.3645 15.3951 10.6767 12.0208C10.7552 11.1721 11.1862 10.4119 11.2439 9.55873C11.3464 8.04228 10.8101 6.51505 10.2974 5.11311C10.1564 4.72766 9.9289 4.31313 9.85681 3.91004C9.74201 3.26804 9.69481 2.44094 10.0598 1.88733C10.4858 1.24107 11.2609 0.857358 12.0358 1.00721L12.0824 1.01642C13.0913 1.20566 13.3903 1.81423 13.7974 2.65393C13.9573 2.98371 14.1331 3.33097 14.2627 3.67368L14.3565 3.9033C14.523 4.23853 14.6491 4.60905 14.7748 4.96152L15.4037 6.84608C18.6718 7.09794 20.9038 9.12003 22.2322 11.9629L22.7547 13.206C22.9482 13.7966 23.5892 14.4503 24.271 14.2194L24.3051 14.2074C24.8847 14.017 25.1114 13.607 25.3017 13.0737L25.5217 12.523C26.9707 9.15641 28.9591 7.21222 32.6194 6.83445C33.0131 5.3472 33.5854 3.93182 34.2722 2.55768C34.7581 1.58521 35.0366 1.09623 36.249 0.970115C37.1038 0.889504 37.9187 1.49414 38.2498 2.25008C38.5622 2.96309 38.3637 3.53955 38.0938 4.21077C37.4375 5.84267 36.6255 7.54799 37.0391 9.35164C37.2295 10.1817 37.6504 10.7421 37.6661 11.6368L37.6723 12.4342C37.6606 15.4312 36.5089 18.2339 35.0568 20.8126L34.0547 22.4856C33.3475 23.6619 33.1844 24.0009 33.1842 25.3118C33.1841 25.6355 33.1469 26.0191 33.2147 26.3358L33.3871 27.3744C33.6121 28.4659 34.0767 29.4673 34.6438 30.4211L35.5734 31.8516C36.7242 33.6721 37.632 35.5954 37.7556 37.7748L37.8647 40.2007C37.8853 40.5709 37.9024 41.0522 37.95 41.4056C37.9655 41.5202 38.018 41.6163 38.0317 41.7331C38.1412 42.6688 37.1049 43.1644 36.3546 43.5087C33.8348 44.6652 29.9401 44.4237 28.2753 46.9843C28.1539 47.1709 28.0767 47.3874 27.9347 47.5594C27.3441 48.2752 25.6489 47.6269 27.2177 45.7196C28.1096 44.6352 29.4606 43.8566 30.7922 43.4259C31.7127 43.1282 36.3818 42.2599 36.2934 41.5811C35.3254 42.0017 34.8042 42.0909 33.7755 42.2952L31.2677 42.8375C29.1103 43.3691 28.3709 43.8464 26.736 45.1347C25.2901 46.2742 22.9902 46.4044 21.491 45.2922C21.1184 45.0158 20.7878 44.6697 20.4244 44.3793C19.7778 43.8626 18.8951 43.4581 18.1042 43.2241L12.4223 41.7972C12.3013 41.7597 12.1154 41.6395 11.9883 41.684L18.2887 43.8442ZM36.2747 2.51216C35.8778 2.59835 35.7847 3.06561 35.6219 3.39184L35.0862 4.49004C34.7755 5.19327 34.5152 5.93708 34.289 6.67166L34.111 7.34511C33.9315 8.1763 33.7717 8.40519 32.8439 8.4147C29.9807 8.444 28.0937 10.5615 27.0084 13.0381C26.5362 14.1156 26.2467 15.2661 24.8927 15.669C24.841 15.6844 24.7986 15.7101 24.7541 15.7397L24.7467 36.034C24.7465 36.1347 24.725 36.3039 24.7601 36.393L26.3304 36.3817C26.641 36.3693 26.942 36.3082 27.2489 36.2897C27.7093 36.262 28.1791 36.2871 28.641 36.2777L29.7656 36.2224C29.8771 36.2189 30.0413 36.1985 30.1468 36.2315L35.8688 35.9984L35.8028 35.7983C35.7686 35.6704 35.6989 35.5467 35.6487 35.4237L35.1371 34.2984C34.8435 33.7035 34.5042 33.1146 34.147 32.5558L33.3071 31.2761C32.3661 29.7508 31.7858 28.0464 31.6664 26.257L31.6172 25.0287C31.6173 23.0684 32.6646 21.8525 33.5876 20.2233C35.0083 17.7154 36.1047 15.1021 36.1231 12.1852C36.1253 11.8246 36.1227 11.6178 36.0064 11.2792L35.7706 10.5721C34.9887 8.0112 35.4652 6.36805 36.463 4.01456L36.7115 3.44725C36.8703 3.09538 36.961 2.61648 36.416 2.52824L36.2747 2.51216ZM11.6051 2.53824C10.9617 2.82872 11.4134 3.58196 11.5718 4.03257C12.2619 5.99572 13.182 8.28992 12.6828 10.4018C12.5639 10.9046 12.3593 11.4118 12.28 11.9208C12.0742 13.2414 12.1873 14.6734 12.478 15.9712L12.7984 16.9688C13.0442 17.5916 13.3001 18.1903 13.6106 18.7852L15.2623 21.6554C16.7458 24.464 16.7712 27.2926 15.2886 30.1369C15.0591 30.577 14.7812 30.9862 14.5193 31.4067L13.6156 32.8946C12.9905 33.9251 12.4279 34.8882 12.0391 36.0366L15.301 36.2799L18.1286 36.2315L19.588 36.3648C19.9297 36.4097 20.287 36.3791 20.6316 36.3953C21.4959 36.436 22.3824 36.5043 23.2474 36.4515L23.2468 15.7156C23.1501 15.6548 23.0565 15.6462 22.9532 15.605C21.7628 15.1296 21.4391 14.0975 20.9747 13.0456C19.9048 10.6217 18.3177 8.79406 15.5981 8.42788C14.5487 8.28655 14.2023 8.7028 13.8922 7.34314C13.5651 5.909 12.9355 4.45372 12.283 3.14517C12.0986 2.7753 12.0729 2.49655 11.6051 2.53824ZM36.1013 37.5587L11.8135 37.653L11.6479 39.9954L15.0333 40.8636L16.3729 41.1718C18.2232 41.5991 20.1541 42.0531 21.622 43.3345C21.9179 43.5928 22.1889 43.9077 22.5287 44.1103C23.4376 44.6524 24.7557 44.6191 25.6279 44.0191C25.9862 43.7727 26.2963 43.4435 26.6394 43.1736C28.1102 42.0166 29.943 41.5161 31.7335 41.1026C32.5977 40.903 35.6174 40.4048 36.2179 39.9437L36.1013 37.5587Z" fill="black"/>
</svg>
