<svg width="48" height="48" viewBox="0 0 48 48" fill="none" xmlns="http://www.w3.org/2000/svg">
<path d="M37.9735 34.3767L36.4707 38.1797C36.0744 39.4031 35.4884 41.6604 35.9369 42.9092L35.9749 43.0194C36.2875 44.0732 34.6931 44.1568 34.0339 44.2591L31.9117 44.543L27.305 44.9156L25.43 44.9786L20.6086 44.9021L14.4112 44.2708L13.2073 44.0684C12.1541 43.9 11.9179 43.8578 12.1109 42.67C12.2283 41.9474 12.1948 41.2619 12.0959 40.5423L11.9897 39.9258C11.4839 37.1019 9.79754 33.7967 8.49512 31.2731C7.94645 30.21 7.40973 29.1264 6.77762 28.1101C6.43754 27.5634 6.00962 27.0779 5.64573 26.5472C4.50381 24.8819 4.32703 23.636 4.32841 21.7236C4.32881 21.1652 4.29155 20.1054 4.50583 19.5839L4.52144 19.5469C4.65205 19.222 4.89798 19.1755 5.16127 18.9842C8.29342 16.7087 4.3122 10.2699 2.21537 8.0274C1.94239 7.73546 1.55873 7.44221 1.50288 7.01902C1.33008 5.70948 3.76474 4.43639 4.78154 4.05699C5.68951 3.71819 7.74174 3.18879 8.68623 3.07904C9.08232 3.01757 9.42263 3.22487 9.5521 3.61095L9.56302 3.64459C10.107 5.2096 10.8766 6.62677 11.9399 7.90937C14.6092 11.1293 17.2401 12.1225 21.2999 12.5902C24.4534 12.9535 29.2496 12.6764 32.1683 11.1533C34.7776 9.79159 37.063 7.15857 38.1437 4.46171L38.325 3.98138C38.6572 2.9555 38.9525 2.98583 39.9472 3.1997L41.8128 3.65586C42.2274 3.76485 42.6615 3.86338 43.0674 4.00152C44.0094 4.32208 46.8554 5.79254 46.467 7.06927L46.4565 7.10162C46.2917 7.61851 45.7873 8.00415 45.4356 8.40113C43.7278 10.329 41.6907 13.7151 41.6937 16.4214C41.6941 16.7899 41.6881 17.1814 41.8384 17.5287L41.9362 17.7774C42.3959 18.9261 43.3042 19.1054 43.4841 19.5189L43.5006 19.5586C43.6636 19.9137 43.7631 22.7361 43.6375 23.3426C43.3812 24.5813 42.9507 25.6743 42.2154 26.7227L41.5611 27.5842C41.2693 27.9848 41.0073 28.4171 40.7605 28.8468L37.9735 34.3767ZM8.24307 4.69927L6.3849 5.14252C7.24117 7.5099 9.56762 10.2621 11.5134 11.8771L12.5247 12.6869C15.1266 14.6039 18.28 15.6324 21.4705 15.9678L22.1136 16.0491C23.2067 16.1337 24.6022 16.1478 25.7111 16.0641L26.4939 15.973C32.4744 15.3477 37.2399 12.378 40.4967 7.27566C40.9232 6.61702 41.4009 5.91821 41.7206 5.20257L39.7147 4.70804C39.3278 5.55104 38.9458 6.38729 38.4565 7.17798C35.8424 11.4026 32.3569 13.3342 27.6065 14.0268L25.5237 14.2283L22.3775 14.2236C20.0403 14.1032 17.5208 13.6111 15.3856 12.6241C12.6279 11.3492 10.0498 8.51837 8.80107 5.81602C8.7167 5.63345 8.38904 4.70087 8.24307 4.69927ZM4.91532 5.6492C4.5117 5.87509 3.39076 6.44091 3.12571 6.81132C4.17052 7.8054 4.99027 9.02954 5.71993 10.2657L6.4231 11.5079L7.14526 13.1338C7.32217 13.5266 7.40616 13.9602 7.53596 14.3685C8.12846 16.2324 7.86324 18.8502 6.24812 20.1007C5.70512 20.5211 5.87851 20.1535 5.87063 20.9575L5.85957 22.3592C5.85802 22.5133 5.82723 22.6785 5.83731 22.8299C6.04979 26.0324 8.9889 28.2758 12.1273 28.2929C13.6542 28.3012 14.9646 27.7396 16.3397 27.148C18.5922 26.1787 20.6481 25.1552 21.7631 22.8291C21.9936 22.3483 22.3627 21.4471 23.1021 22.0533C23.649 22.5017 23.2584 23.2534 23.0111 23.7464C21.7791 26.2029 19.5 27.4865 17.0808 28.5113C14.1898 29.7359 12.2116 30.2523 9.19665 29.2895C9.27765 29.4804 9.73792 30.4555 9.86307 30.5703C11.0001 30.8757 12.1551 30.8607 13.2894 30.5853L14.9477 30.1326C18.1509 29.2609 20.5465 29.0061 22.8768 26.1814L23.3281 25.6145C24.0266 24.6883 24.2064 25.0532 24.7295 25.7244C26.4889 27.9818 28.3217 28.8916 30.9729 29.5553L34.8987 30.5852C36.2323 30.9376 36.8995 30.8381 38.1533 30.5387L38.744 29.3155C37.6073 29.6281 37.0605 29.8037 35.891 29.8009C34.2969 29.7971 32.8531 29.3719 31.4005 28.7207C28.7731 27.612 25.9974 26.2849 24.8335 23.4537C24.0725 21.6024 25.8134 21.5986 26.0901 22.4999C26.5959 24.1479 28.3778 25.615 29.8583 26.3332L31.9745 27.2846C34.0226 28.1494 35.6233 28.6898 37.9181 27.981C39.9926 27.3402 41.9056 25.3127 42.1305 23.1106C42.1673 22.75 42.1404 22.3622 42.14 21.999L42.1281 20.3686C42.0414 20.255 41.7387 20.0845 41.5878 19.94C39.2412 17.6931 40.2601 14.0875 41.5231 11.57C42.3744 9.87305 43.4742 8.13662 44.8631 6.8273L44.8429 6.8094C44.3225 6.34023 43.7967 6.03685 43.191 5.70099C43.0745 5.83177 43.0006 6.05457 42.9147 6.21099L42.3632 7.1633C38.5806 13.6326 32.7338 17.1871 25.3632 17.6011L24.0152 17.6108C23.5282 17.6111 23.0321 17.6293 22.5462 17.6008L21.8323 17.5306C17.8723 17.2016 14.0173 15.8447 10.9032 13.343L10.266 12.8321C8.61559 11.3679 7.13593 9.67876 6.0226 7.7664L4.91532 5.6492ZM24.0088 27.2513C22.5308 28.8986 20.7731 30.0763 18.6514 30.7598L13.3946 32.1346C12.4924 32.3382 11.6323 32.3401 10.7166 32.2551L12.4854 36.3415L13.0633 38.0183C13.5255 39.2366 13.7863 41.3941 13.666 42.6525L23.9827 43.5033L34.3166 42.7175C33.9384 39.5082 35.9132 35.0801 37.2953 32.2764C35.5236 32.492 34.563 32.0395 32.9226 31.6206C29.5881 30.7689 27.2374 30.4858 24.6406 27.9358L24.0088 27.2513Z" fill="black"/>
</svg>
