<svg width="48" height="48" viewBox="0 0 48 48" fill="none" xmlns="http://www.w3.org/2000/svg">
<path d="M16.5314 48L15.7479 47.8552C11.9895 47.0531 11.0496 44.31 10.4937 40.7812L10.3101 39.3559C9.90586 39.0958 9.57 38.7558 9.21371 38.437C8.66555 37.9464 8.14467 37.6235 8.25778 36.7991C8.3281 36.2865 8.48897 35.7747 8.59233 35.2667C9.37585 31.4156 10.4794 26.5102 12.5626 23.1562L13.5381 21.69C14.4429 20.1904 13.5548 19.3243 12.8538 17.9853C11.8024 15.9771 11.655 14.0331 12.4921 11.9183C12.8031 11.1329 13.2578 10.4472 13.6459 9.7043C13.8626 9.28931 14.5856 7.59511 14.5638 7.10831C14.5568 6.95184 14.4328 6.72605 14.38 6.57483L13.7191 4.29869C13.618 3.8842 13.5399 3.44339 13.4938 3.01965C13.3276 1.4939 14.2702 0.349722 15.7582 0H16.4273C16.6978 0.157072 16.9614 0.280717 17.0563 0.606211L17.0757 0.662705C17.1248 0.794972 17.124 0.927459 17.1347 1.06641L17.1685 1.84439C17.2432 3.05167 17.3093 4.25663 17.241 5.46764C17.2095 6.02484 17.1251 6.57253 17.0626 7.12505C17.0456 7.27584 17.2306 7.32244 17.3438 7.38623L22.3573 10.1418C22.8153 10.3883 23.2603 10.6735 23.7305 10.8962L23.876 10.9586L25.6352 10.126C26.8912 9.53677 28.8806 8.77223 29.3984 7.37016C29.7528 6.41053 29.8791 4.27491 29.9458 3.25404L30.0206 1.54102C30.0259 0.746869 30.0353 0.427508 30.7567 0H31.4517C32.3543 0.365506 33.1844 0.802233 33.5977 1.75779L33.7689 2.16296C34.1982 3.13423 33.7926 4.38365 33.4306 5.30447L32.8494 6.65761C32.5973 7.25428 32.8473 8.79895 33.1289 9.47152L33.2954 9.89719C33.5927 10.6313 34.0819 11.2607 34.3313 12.0234L34.6057 12.9023C34.6435 13.0808 34.6785 13.2634 34.7201 13.4407L34.7767 13.7987C34.9979 14.7519 34.6394 16.4054 34.2123 17.3203C33.9746 17.8296 33.6538 18.3164 33.4624 18.8447C33.2501 19.431 33.1563 20.0193 33.0452 20.6303L33.0647 20.6594C33.1766 20.8303 33.2632 21.0435 33.3503 21.2293L35.3641 25.7178L36.8654 29.9414L37.0421 30.55C37.1281 30.9001 37.2408 31.2677 37.3518 31.6117L38.4003 35.7778L38.9127 38.0396C39.0957 38.7731 38.9477 38.9807 38.4079 39.5322C37.9253 40.0251 37.4288 40.4361 36.8241 40.7677C36.769 40.7979 36.5685 40.8728 36.543 40.9102C36.527 40.9335 36.5397 41.7602 36.5375 41.8581L36.4743 42.7379C36.2727 45.0196 35.5096 47.3123 33.0388 47.8547C32.8102 47.9048 32.4904 47.8988 32.2885 48H16.5314ZM15.6492 1.74945C14.9792 2.11944 14.9356 2.71154 15.1318 3.38676L15.545 5.10427C15.5655 5.19183 15.5873 5.26842 15.6251 5.34998L15.6772 3.00986C15.6758 2.60212 15.7187 2.14779 15.6492 1.74945ZM31.6047 1.83984C31.5412 1.97316 31.5652 2.15472 31.565 2.29672L31.5551 3.19727L31.2846 6.1162L31.5714 5.54897C32.0462 4.66528 32.7482 3.27613 32.1057 2.3206L32.0827 2.28593C31.966 2.11366 31.8171 1.98471 31.6462 1.86964L31.6047 1.83984ZM31.1307 8.00391C30.8742 8.27541 30.6635 8.5747 30.4249 8.86055C29.1124 10.4336 27.2971 11.1214 25.491 11.9637L24.6914 12.3511C23.6003 12.9047 23.6012 12.6644 22.5805 12.0887L15.9002 8.35903C15.6837 8.94994 15.4868 9.5385 15.2108 10.1067C14.4797 11.6123 13.7852 12.3226 13.5623 14.1837C13.4867 14.814 13.5015 15.3964 13.7262 16.0058L13.8164 16.2698C13.9902 16.6965 14.1682 17.0775 14.4068 17.4741C14.6987 17.9471 14.9673 18.4381 15.1864 18.9492L15.3924 19.4948C15.4389 19.6103 15.44 19.8031 15.5114 19.8956C16.9239 20.501 20.565 20.53 22.0885 20.5278L24.0107 20.5236C24.2056 20.5171 24.3925 20.4678 24.5893 20.4627L27.3815 20.417C28.4627 20.3879 29.6483 20.5475 30.7031 20.2469C30.9981 20.1629 31.2725 20.0602 31.5751 19.9976C31.6513 19.2914 31.8224 18.5471 32.1392 17.9072C33.2736 15.6159 33.7981 14.4306 32.5395 11.8935L32.1506 11.19C31.7301 10.4039 31.3943 9.56203 31.2472 8.67952C31.2113 8.46441 31.2381 8.20753 31.1634 8.00489L31.1307 8.00391ZM15.3517 21.5039C15.0596 22.4042 14.4975 23.0808 13.9904 23.8601C12.5735 26.0375 11.8095 28.6253 11.157 31.1133L9.99877 36.2058C9.95658 36.411 9.87328 36.64 9.85974 36.8468C12.0026 38.8801 13.8872 39.5487 16.9314 39.4697C18.951 39.4173 19.9951 38.6367 21.6848 37.7279C23.232 36.8958 24.8148 36.8319 26.3239 37.7055C26.7104 36.5252 26.4961 35.5791 26.2819 34.3801C26.0734 33.2136 25.8306 32.0638 25.7153 30.8821L25.5258 28.1896L25.5201 24.5263C25.5205 24.3 25.4802 24.0373 25.5973 23.8374L25.6151 23.8056C25.7189 23.6229 25.8641 23.502 26.0625 23.433L26.0962 23.421C26.4944 23.2885 26.8035 23.5035 26.9933 23.8372L27.0117 23.8686C27.1639 24.1474 27.069 24.7624 27.0698 25.0825L27.0735 27.4211C27.0743 27.7279 27.0316 28.128 27.1101 28.4238L27.4853 32.2031C27.7333 33.7367 28.3305 35.7384 28.0962 37.2826L28.0193 37.6886C27.9584 38.0605 27.7819 38.4112 27.5708 38.7182C28.6062 39.9975 30.0437 40.3327 31.6017 40.334C33.7457 40.3358 35.7211 39.8195 37.3592 38.3686L36.3163 33.8814C35.7759 31.7608 35.1575 29.6554 34.3934 27.6038L32.2562 22.6439C32.1061 22.3168 31.9657 21.9401 31.7728 21.6382C30.8464 21.9174 29.8636 22.0249 28.8984 22.0275L25.4723 22.137L21.5702 22.1518C19.9042 22.1499 18.2793 22.1013 16.6334 21.802L15.7936 21.6183C15.6647 21.5851 15.4822 21.5064 15.3517 21.5039ZM23.7902 38.7039C22.7462 38.8392 21.9393 39.5125 21.0376 39.9895C18.256 41.4609 14.9099 41.3534 12.0154 40.2622C12.0338 40.524 12.096 40.7725 12.1472 41.0283C12.5034 42.8102 13.0455 45.1034 14.8592 45.9287C16.1201 46.5024 17.4904 46.4004 18.8412 46.4018L22.8867 46.402L28.6171 46.4021C32.9512 46.4041 34.8159 46.9706 34.9446 41.4802C32.7327 42.0765 29.9963 42.2887 27.9334 41.1052C26.4653 40.263 25.7315 38.4639 23.7902 38.7039Z" fill="black"/>
<path d="M21.1099 34.7087C19.9596 34.957 20.0835 33.0335 20.0826 32.3271L20.0898 31.1246L20.5246 27.0398L20.8784 24.6449C20.9922 24.0289 20.9243 23.3066 21.6832 23.1359C22.0521 23.1189 22.3464 23.2897 22.4863 23.648L22.4997 23.6839C22.6518 24.0853 22.4669 24.5456 22.4076 24.9502L21.7511 29.9652C21.6227 31.1908 21.5616 32.4595 21.7446 33.6825C21.7646 33.8164 21.7989 33.9144 21.7704 34.0533L21.7619 34.0911C21.6922 34.4059 21.4132 34.6283 21.1099 34.7087Z" fill="black"/>
</svg>
