<svg width="48" height="48" viewBox="0 0 48 48" fill="none" xmlns="http://www.w3.org/2000/svg">
<path d="M13.1531 42.265C11.7328 41.7667 10.6551 40.6777 10.1648 39.2404C9.86295 38.3556 9.68141 37.4816 9.15669 36.6867C8.13913 35.1451 6.96941 34.7809 5.33206 34.4199C4.46519 34.2287 4.51947 33.4944 4.95481 32.9084L6.293 31.0521C7.99189 28.6087 9.63294 26.1178 11.0255 23.4845C11.3881 22.7987 11.8308 22.0425 12.0079 21.2784L12.0235 21.211C12.1367 20.8893 12.117 20.5294 12.1176 20.1914L12.1187 19.0907C12.1195 18.5655 12.1904 18.0689 12.8083 17.9715L12.8396 17.967C13.0768 17.9308 13.3186 18.038 13.5371 18.1176L14.9732 18.6151C13.981 16.6731 13.8625 14.4307 14.9119 12.477C15.2239 11.8962 15.6217 11.347 15.9834 10.7952L16.499 9.98446C16.7486 9.60862 16.6734 9.52865 16.6728 9.07537L16.6685 6.44109C16.6685 5.4478 17.7174 5.22801 18.0782 5.9129L18.1286 6.0118C18.2066 6.17127 18.186 6.35034 18.1863 6.5233L18.1883 9.02624C18.1894 9.24107 18.0973 9.5353 18.3585 9.61612C18.6613 9.70977 18.9512 9.87604 19.2422 10.0046C21.0773 10.8151 22.5836 11.749 23.7305 13.4512C23.829 13.5975 23.9108 13.7441 24.0215 13.8834C24.8258 12.5046 25.957 11.4351 27.3598 10.6759C27.5632 10.5658 29.7847 9.56943 29.8076 9.51144C29.8163 9.48923 29.8076 9.4124 29.8076 9.38666L29.8085 6.96163C29.8092 6.32469 29.7112 5.58351 30.5507 5.5176C31.0864 5.55435 31.3151 5.93198 31.3158 6.45637L31.316 9.36069C31.3172 9.65746 31.3292 9.72773 31.4965 9.97865L33.0423 12.3985C33.2111 12.6952 33.3525 13.0153 33.468 13.336L33.5491 13.5965C33.9794 15.6314 33.9553 16.7367 33.0201 18.6146L34.6117 18.0767C35.5513 17.7472 35.8607 18.1143 35.8624 19.0976L35.8614 20.2446C35.8595 21.2567 36.1815 22.0264 36.6512 22.8985L37.3456 24.2087L40.6869 29.5782L42.5685 32.2065C42.8456 32.5965 43.4994 33.2069 43.3422 33.735L43.334 33.7618C43.1616 34.3507 42.7183 34.4082 42.1758 34.4999C40.3333 34.8118 38.842 36.1755 38.2433 37.9255L37.9146 39.0225C36.8414 42.2901 33.1642 43.5866 30.4213 41.4327C30.07 41.1568 29.774 40.7969 29.4117 40.54C28.9193 40.1909 26.522 39.0962 25.9312 38.9221C23.6377 38.2463 22.3903 38.757 20.4161 39.643L19.336 40.1373C18.7513 40.4229 18.3887 40.7423 17.8946 41.1645C16.5076 42.3498 14.8942 42.7744 13.1531 42.265ZM17.6631 10.9806L16.9625 12.0932C16.1233 13.3826 15.2773 14.9275 15.7891 16.5299L15.8338 16.7345C15.8567 16.8627 15.9216 17.0079 15.9661 17.1316L16.1293 17.5289C16.315 18.0504 16.8542 18.6594 17.2253 19.0485C17.4999 19.3365 17.5595 19.2751 17.9514 19.3477L20.843 19.776L21.8221 19.8305C21.9934 19.8425 22.1622 19.8749 22.334 19.8828L25.7353 19.881C25.9442 19.8726 26.1505 19.8383 26.3588 19.8234L28.8562 19.5489C29.4259 19.461 30.0161 19.3904 30.5674 19.2176C30.8425 19.1313 31.7441 17.7711 31.8675 17.5196C32.0257 17.1972 32.1298 16.854 32.2125 16.5056C32.7367 14.6066 31.7467 13.204 30.7994 11.733L30.4733 11.2266C30.4242 11.1516 30.3744 11.053 30.3058 10.9962L30.2885 11.0069C29.4397 11.5236 28.4541 11.794 27.5988 12.3169C26.622 12.9141 25.8304 13.7952 25.2616 14.7815L24.9175 15.4124C24.4353 16.3075 23.8052 16.5994 23.229 15.6256C21.831 13.2631 21.2165 12.6082 18.8152 11.5239L18.1111 11.203C17.9905 11.1434 17.8198 11.008 17.6952 10.9829L17.6631 10.9806ZM13.6449 19.7703C13.5956 20.3257 13.6247 20.8948 13.5232 21.4433C13.513 21.4982 13.4749 21.6035 13.5043 21.6493C13.941 21.8406 14.4152 21.9731 14.8648 22.135C16.4258 22.6974 18.089 23.1768 19.7344 23.4298L21.8983 23.6693C22.0566 23.6813 22.2116 23.7144 22.3698 23.7226L25.5191 23.7148C28.5314 23.5439 31.2177 22.8371 34.0546 21.8118L34.0607 21.8086C34.2089 21.7607 34.3639 21.7218 34.502 21.6495L34.4933 21.6284C34.4344 21.4806 34.4087 21.318 34.3874 21.1609L34.3721 21.0798C34.2853 20.6823 34.3343 20.2016 34.336 19.7936L34.3061 19.8144C34.2117 19.8763 34.0652 19.8863 33.9564 19.9226L31.8868 20.5352C30.2953 20.9267 28.7062 21.2322 27.0686 21.3503L26.2534 21.384C26.0594 21.3952 25.8713 21.4366 25.6774 21.4458L22.5235 21.4467L20.3086 21.2821C18.9266 21.1288 17.5792 20.9157 16.2292 20.5763L13.6449 19.7703ZM12.9164 23.0698C12.5462 23.9877 12.0292 24.8544 11.543 25.7147C10.0943 28.278 8.4238 30.7237 6.69828 33.1066C6.99622 33.2416 7.31366 33.3328 7.61516 33.4667C8.50845 33.8636 9.2848 34.4664 9.9538 35.1753L10.3168 35.5877C10.4774 35.2329 10.7212 34.9039 10.9131 34.5638L12.3047 32.0275C13.1497 30.4244 13.9585 28.7715 14.6471 27.0953L15.7716 24.0595L12.9164 23.0698ZM35.048 23.0814L32.1773 24.0727L33.2843 26.9931C33.2975 27.0315 33.3135 27.0655 33.331 27.102L33.7678 28.1054C34.7628 30.2111 35.7773 32.3098 36.9506 34.3241L37.4391 35.1697C37.8235 35.8366 37.5838 35.6542 38.07 35.1342C38.8103 34.3261 39.951 33.4934 41.0274 33.1888C41.1163 33.1636 41.2396 33.1587 41.3186 33.115C39.1928 30.2409 36.544 26.3667 35.048 23.0814ZM17.2695 24.487L15.3604 29.2978L13.3193 33.4004L11.2218 37.0472C11.0983 37.2684 11.137 37.2157 11.2164 37.4526L11.6743 38.8595C12.2249 40.2598 13.5546 41.1575 15.0668 40.8961C15.905 40.8146 16.5528 40.2435 17.174 39.7314L17.9688 39.1221C17.5011 37.3878 17.8482 35.536 18.7357 33.9944L19.802 32.3039C20.4426 31.0618 20.916 28.3373 21.0177 26.809C21.0543 26.2576 21.0249 25.6847 21.024 25.1311C20.1219 25.0354 18.1111 24.8222 17.2695 24.487ZM30.6502 24.504L26.9263 25.1531C26.877 27.1649 27.3575 30.69 28.3279 32.5176C28.5583 32.9516 28.8612 33.3199 29.1242 33.7316C29.4939 34.3102 29.7299 34.923 29.9568 35.5665L30.1262 36.2151C30.3636 37.0857 30.2997 38.2555 30.0506 39.1173C30.9695 39.8061 31.7271 40.7712 32.9477 40.8921C33.8091 40.9835 34.6215 40.8276 35.3074 40.2739C36.2941 39.4774 36.494 38.2904 36.872 37.159C34.4915 33.5685 32.0443 28.5186 30.7169 24.5016L30.6502 24.504ZM22.5943 25.2956C22.5887 25.7851 22.5921 26.2974 22.5498 26.7959L22.3976 28.0261C22.2481 29.3316 22.0234 30.6611 21.5929 31.9062C21.1265 33.2548 20.6792 33.7227 20.0264 34.8303C19.4805 35.7564 19.0718 37.3382 19.3613 38.4147C19.7805 38.2491 20.1846 38.0188 20.6006 37.8399C22.1502 37.1737 23.6954 36.8621 25.3775 37.1983C26.5125 37.3712 27.6641 37.8851 28.6722 38.4224C28.79 37.1767 28.6498 35.9239 27.9748 34.8385C27.6417 34.3028 27.2482 33.8121 26.9557 33.2504C25.9331 31.2863 25.2207 27.3614 25.408 25.2928L22.5943 25.2956Z" fill="black"/>
</svg>
