<svg width="48" height="48" viewBox="0 0 48 48" fill="none" xmlns="http://www.w3.org/2000/svg">
<path d="M12.0648 37.0205C10.8256 37.3041 9.53202 37.5698 8.29743 37.1248C7.60274 36.8745 6.8602 36.4102 6.53132 35.7252C6.33941 35.3255 6.39684 34.8014 6.39637 34.3662L6.39946 31.1764L6.48627 29.534C6.68057 27.0434 7.26201 24.5208 8.02288 22.1493L9.33065 18.5013L9.59891 17.477C9.83718 16.5417 9.88054 15.4962 9.88148 14.5361L9.87637 11.9712C9.86141 11.0761 10.237 10.2485 11.313 10.4125C11.4292 10.4302 11.5389 10.4744 11.6539 10.4972L12.4933 10.6612C14.1778 11.0266 15.9097 11.2751 17.6256 11.4314L19.2536 11.5364L28.231 11.5286C28.4138 11.5219 28.5912 11.4765 28.7701 11.4682L30.3857 11.4487C30.7808 11.4344 31.1883 11.3795 31.5822 11.3361L35.901 10.5863C36.2318 10.513 36.5594 10.4229 36.8975 10.3929C37.3709 10.4268 37.7821 10.6584 37.9957 11.1025L38.0149 11.1441C38.2209 11.5513 38.1054 12.1301 38.104 12.5714C38.099 14.1146 37.987 15.7573 38.3445 17.273L38.5321 18.0581C38.5657 18.1773 38.5975 18.3088 38.6395 18.4248L40.3311 23.2944C40.4299 23.5635 40.627 24.2368 40.6768 24.5395L40.9769 25.8646C41.0251 26.023 41.0362 26.1827 41.0702 26.3433L41.2593 27.4408C41.4513 28.4967 41.5662 29.8861 41.5976 30.9839L41.5991 34.9129C41.5986 35.1205 41.6233 35.3592 41.5458 35.5551C40.6863 37.728 37.5449 37.5936 35.7021 36.8503C35.2692 36.6756 34.8704 36.4001 34.4278 36.2573C33.3974 35.9248 32.7569 36.1752 31.954 36.7273C30.692 37.595 29.3329 37.5859 27.8803 37.5854L25.0956 37.5053C24.4164 37.4532 23.5979 37.3944 22.992 37.0659C22.8694 36.9994 22.7387 37.0089 22.6035 37.0074L18.7562 36.9082L15.7973 36.4604C14.8571 36.3218 13.8329 36.3776 12.9331 36.6904C12.6402 36.7923 12.3629 36.9303 12.0648 37.0205ZM11.0907 11.6422C11.0832 11.8453 11.1061 12.0432 11.1094 12.2456L11.1124 13.6128C11.1122 13.9218 11.1261 14.2407 11.0947 14.5479L15.3287 14.9977L17.5691 15.1255C17.8301 15.1396 18.0825 15.1866 18.3441 15.196L22.1607 15.3571L25.6425 15.3649C25.7897 15.3607 25.9127 15.3015 26.0576 15.2874L28.658 15.1949C28.9047 15.1833 29.1463 15.1356 29.3935 15.1278L30.9615 15.0968C31.1297 15.0894 31.2899 15.0568 31.4549 15.0442L36.8833 14.5548L36.8684 14.3241L36.8682 12.4383C36.8681 12.1996 36.9076 11.882 36.8576 11.6518L36.8188 11.6627C36.6908 11.6974 36.5558 11.7064 36.4263 11.7366L34.8021 12.0776C33.6847 12.2903 32.5705 12.4996 31.4384 12.6218L30.3362 12.6885C29.1508 12.7789 28.1514 12.7688 26.9613 12.7704L19.7022 12.7703C19.1867 12.7645 18.6396 12.799 18.1289 12.7306L12.3277 11.8943C11.9182 11.8104 11.4943 11.75 11.0907 11.6422ZM11.0937 15.8063C10.9938 16.5417 10.9317 17.2891 10.7503 18.011C10.5694 18.7311 10.2967 19.4111 10.0486 20.1083L8.96151 23.2889L8.48221 25.1011C8.11429 26.5121 7.88052 27.9295 7.73887 29.3803L7.62885 33.32C7.6289 33.6214 7.58887 35.1616 7.66945 35.2695C8.15244 35.9159 9.19063 36.1272 9.94527 36.1003L10.2486 36.0917L10.3189 33.1101L10.4051 32.1569C10.5651 30.2008 10.8431 28.1476 11.3128 26.2399L12.1688 23.2556C13.0983 20.5234 13.7169 18.9972 13.5001 16.0592L11.0937 15.8063ZM36.8384 15.8309L35.1713 15.9964C34.9841 16.0181 34.7556 16.0121 34.5768 16.0721C34.5117 16.453 34.4971 16.8556 34.4727 17.2414L34.4165 17.9496C34.3893 18.8687 34.4385 19.8933 34.606 20.8006L34.858 22.0199C34.9787 22.5804 35.1117 23.1524 35.3008 23.6949L35.9074 25.4527C35.9704 25.6261 36.0529 25.7971 36.0991 25.9758L36.9742 28.8056L37.3445 30.4033C37.5567 31.1708 37.7036 32.5498 37.7449 33.3309L37.7535 34.9024C37.7519 35.1929 37.6539 35.9062 37.6845 36.092C37.7551 36.0946 37.8483 36.1102 37.9166 36.0994C38.22 36.1015 38.5768 36.1361 38.8746 36.0858C39.3058 36.0129 40.3735 35.5706 40.3718 35.0178L40.3449 30.2014L40.2473 29.2154C40.0331 27.1136 39.6022 25.0713 38.9713 23.0545L38.0732 20.4523C37.5139 18.9234 36.993 17.4857 36.9348 15.8316C36.8993 15.8278 36.8739 15.8246 36.8384 15.8309ZM33.2783 16.1831L26.7501 16.4691C26.7781 16.8681 26.7683 17.2704 26.7687 17.6702L26.8154 27.6441C26.8197 27.8781 26.8612 28.1136 26.8716 28.3483L26.9177 29.8532L27.4252 35.8674C27.443 36.0129 27.4268 36.1957 27.4737 36.3314L28.7012 36.3266C29.3779 36.322 30.0688 36.2928 30.6922 35.9992C31.1309 35.7946 31.5001 35.4979 31.921 35.2658C32.8521 34.7524 34.007 34.7752 34.9861 35.1329L36.4662 35.8127C36.5075 34.8528 36.5689 33.8695 36.48 32.9099L36.3994 32.3316C36.1635 30.3986 35.6772 28.5513 35.0506 26.7095C34.2955 24.4898 33.6344 22.8138 33.3118 20.4605L33.2217 19.6473C33.1035 18.7835 33.1928 17.0285 33.3147 16.2042L33.2783 16.1831ZM14.7614 16.2373C14.7623 17.3587 14.7834 18.4949 14.5837 19.6046C14.3168 21.0873 13.7213 22.4756 13.2405 23.8947L12.5556 26.3204C12.1805 27.8958 11.9046 29.5286 11.7208 31.1363L11.6219 32.2562C11.5666 33.2563 11.5061 34.2442 11.5026 35.248C11.5019 35.4641 11.4711 35.6882 11.4976 35.9022C11.9117 35.7535 12.3091 35.5573 12.7296 35.4269C14.252 34.9548 15.6349 35.1446 17.1451 35.4368L18.1047 35.5748C18.1854 35.5856 18.3927 35.6396 18.4636 35.6204L21.5596 35.7337C21.3734 35.538 21.2315 35.2377 21.1109 34.9981C20.3716 33.5285 20.1122 30.7484 20.4071 29.0855L21.064 22.6871C21.1529 22.2262 21.1167 21.6965 21.1177 21.2261C21.1214 19.3791 21.1134 18.3686 20.5895 16.5209L14.7614 16.2373ZM21.897 16.5798C21.9402 16.7653 22.0116 16.951 22.0395 17.1361L22.1543 17.6861C22.3304 18.3434 22.3325 19.4756 22.3338 20.1495L22.3165 22.3402L21.5612 30.0159L21.5409 31.2844C21.5423 31.9676 21.6398 33.0327 21.8912 33.6441C22.1961 34.3852 22.4875 35.116 23.0664 35.6959C23.573 36.2035 24.801 36.2249 25.4713 36.2782L26.2274 36.3305L25.6189 28.5065L25.5932 26.86C25.5828 26.5035 25.5276 26.1516 25.5228 25.79L25.5193 17.1824C25.5193 17.006 25.5547 16.7492 25.5098 16.5868L21.897 16.5798Z" fill="black"/>
</svg>
