<svg width="48" height="48" viewBox="0 0 48 48" fill="none" xmlns="http://www.w3.org/2000/svg">
<path d="M35.1139 35.9924L35.2914 36.5449C35.3636 36.7927 35.4449 37.1009 35.5525 37.3326L37.3142 41.473C37.5003 41.9844 37.4793 42.6023 37.3137 43.1136L37.2114 43.3768C36.6382 44.639 35.6149 44.9492 34.3817 45.0101C33.1102 45.0727 32.6243 45.4549 31.6634 46.1663C30.1881 47.2587 28.2424 47.4462 26.5793 46.6516C26.2076 46.4739 25.866 46.2359 25.4936 46.0627C24.4505 45.5775 23.2384 45.6991 22.2304 46.2105C21.7937 46.4321 21.4075 46.7056 20.9412 46.8742C19.5362 47.382 17.8389 47.188 16.5943 46.3479C15.5207 45.623 15.0811 45.1222 13.7327 45.0112C13.49 44.9912 13.2447 45.0036 13.0025 44.9799C11.9806 44.8801 11.0326 44.1081 10.6948 43.1501L10.6801 43.1077C10.3817 42.2652 10.5841 41.6818 10.9197 40.9298L11.5745 39.4757C13.533 35.1229 14.186 31.3108 13.0585 26.7057C12.962 26.3113 12.9863 26.1875 12.6907 25.9027C10.6555 23.9415 9.5688 20.5574 11.118 17.9846C11.3513 17.597 11.6651 17.2487 11.9187 16.872C13.0736 15.1568 14.4653 12.4474 14.4847 10.3113C14.4986 8.78314 13.951 7.3438 13.8112 5.83972C13.7356 5.02615 13.6548 4.18164 13.6457 3.36359C13.6303 1.99578 14.5806 0.998636 15.9062 0.780836L15.9296 0.776201C17.3543 0.632712 18.5428 1.84738 18.6073 3.22625L18.6155 10.7627C18.6158 11.7877 18.7457 12.355 19.1237 13.3362L19.3354 13.811C19.9664 15.0054 20.8998 15.9114 21.7006 16.9843C22.5175 18.0789 23.1751 19.2638 23.8248 20.4603C23.889 20.5786 23.9416 20.6934 24.0156 20.8073L24.6607 19.5738C25.0866 18.7953 25.5525 18.025 26.0607 17.2972C26.5691 16.5692 27.1833 15.9306 27.7315 15.2355C29.1566 13.428 29.3965 12.1917 29.3938 10.033L29.3907 3.74538C29.384 3.22936 29.3676 2.77703 29.5815 2.29179C30.4473 0.327659 33.202 0.273416 34.1222 2.27107C34.5542 3.20883 34.2237 5.68709 34.0671 6.68408C33.7799 8.51342 33.1594 10.4322 33.8589 12.2851L34.1626 13.2003L35.0384 15.1382C35.2573 15.5562 35.4917 15.9716 35.7509 16.3661L36.764 17.804C38.5341 20.4758 37.3494 24.1406 35.0636 26.1019L34.6474 28.2082C34.2833 30.2904 34.2185 32.3828 34.7361 34.4534C34.8293 34.826 34.8733 35.2319 34.9993 35.5954L35.1139 35.9924ZM31.8177 2.23662C31.0045 2.3155 30.8185 2.86762 30.8168 3.58946L30.8214 10.566C30.8286 12.5436 30.2825 14.3106 29.055 15.8972L27.9616 17.2144C27.3873 17.935 26.8649 18.6732 26.3947 19.4661L25.1872 21.6581C24.9078 22.1715 24.3783 23.4323 23.5424 22.7873C23.3193 22.6152 23.1888 22.2991 23.0515 22.0574L22.4748 21.0061C21.9229 19.9654 21.3145 18.9053 20.6126 17.9581L18.8192 15.7503C17.7107 14.2697 17.1779 12.6567 17.1771 10.8285L17.1767 3.71342C17.1766 3.52721 17.2028 3.27794 17.1618 3.09859C17.0121 2.44299 16.3512 2.07454 15.7203 2.32184L15.6664 2.34317C14.8737 2.65958 15.0786 3.74366 15.1432 4.39484L15.3858 6.55428C15.7179 8.33844 16.1256 10.023 15.7355 11.8292C15.6093 12.4136 15.4248 12.9616 15.25 13.5312C14.6927 15.0399 13.9388 16.5497 12.9968 17.8612C12.7281 18.2354 12.4106 18.5878 12.1983 18.9987C11.5067 20.3374 11.8837 22.1073 12.565 23.3909C13.7714 25.664 15.5653 25.8207 17.8894 26.0928L20.6789 26.3516L25.6714 26.4365L29.3445 26.1793L31.4023 25.9211C31.9479 25.8301 32.4941 25.7388 33.019 25.5589C35.1364 24.833 36.3273 22.3825 36.1251 20.2423C36.0244 19.1765 35.7641 18.8959 35.1669 18.098C33.6233 16.0362 32.0839 12.7736 32.0832 10.2196C32.0831 9.77487 32.1146 9.35623 32.1722 8.91711L32.6179 6.5719C32.7543 5.77634 32.8132 4.96789 32.8596 4.16311C32.9022 3.4241 33.0122 2.4408 32.0308 2.25951L31.8177 2.23662ZM14.6055 26.9652L14.9419 29.0306C15.1178 29.8349 15.0722 31.6046 15.0056 32.3982L14.6575 34.9113L33.3189 34.8758C33.227 34.6542 33.2064 34.321 33.1737 34.0841C32.8309 32.2547 32.853 30.1165 33.158 28.3011L33.3704 26.9727C32.7489 27.1937 32.1295 27.3063 31.4804 27.4082L27.5041 27.8267L22.6695 27.9141L20.6484 27.832L17.3433 27.5408C16.5697 27.436 15.3051 27.2847 14.6617 26.9936L14.6055 26.9652ZM16.5628 36.3837L14.2953 36.3946C14.2221 36.5093 14.2 36.6562 14.1537 36.7843L13.7111 38.0511L12.1847 41.6486C12.0621 41.9079 11.9553 42.0676 11.9905 42.3636L11.995 42.4032C12.0448 42.8253 12.3328 43.1859 12.7038 43.3812L12.9271 43.4841C13.0244 43.5324 13.1589 43.5234 13.2657 43.5238C14.5654 43.5291 15.6147 43.7951 16.6846 44.6066C17.6877 45.3675 18.3746 45.8043 19.7468 45.6591L19.7853 45.6554C20.6881 45.5637 21.406 44.9273 22.2271 44.6032C23.5261 44.0907 25.0647 44.1799 26.2968 44.8356C27.4995 45.4758 28.4491 46.0389 29.8981 45.4701C30.4755 45.2393 30.8997 44.8976 31.3946 44.5391C32.1939 43.96 33.029 43.691 33.9863 43.5492C34.7971 43.4292 35.6336 43.7559 35.9537 42.5159L35.9651 42.4731C36.0865 42.0032 35.7598 41.4852 35.5633 41.0787L35.1454 40.1776C34.5927 38.9674 34.0667 37.6905 33.7397 36.399L16.5628 36.3837Z" fill="black"/>
</svg>
