<svg width="48" height="48" viewBox="0 0 48 48" fill="none" xmlns="http://www.w3.org/2000/svg">
<path d="M11.716 42.7282C11.4036 42.6292 11.1757 42.3631 11.1469 42.0342C11.0757 41.219 11.1065 40.402 11.068 39.5861L10.9723 37.7062L10.5904 33.5982C10.4443 32.4773 10.0595 31.4476 9.78511 30.3599C9.48136 29.156 9.29086 27.8894 9.28833 26.6459L9.28711 23.9875C9.28978 23.4581 9.34683 23.124 9.38967 22.6183L9.46336 22.0234C9.64078 20.6823 10.0971 19.4789 10.5352 18.2095L13.829 5.9181C14.0919 4.98009 14.6597 5.32218 15.2855 5.45029L16.6926 5.66873C16.8304 5.6856 16.9665 5.72685 17.1046 5.73731C17.8687 5.7952 18.4661 5.57934 19.0624 6.16129L19.5673 6.61921C20.5355 7.41979 21.6915 7.93274 22.9175 8.17246C24.8833 8.55684 27.3925 7.76601 28.8012 6.3576C28.9888 6.1701 29.1439 5.91768 29.3911 5.8011L29.4148 5.79056C29.6181 5.6939 29.9237 5.736 30.1487 5.71795L30.9426 5.62626C31.2343 5.59987 31.5385 5.52759 31.8277 5.47603L33.3772 5.18643C33.6632 5.14701 33.9793 5.28257 34.1284 5.53603L34.1458 5.56654C34.2222 5.69887 34.2746 5.82539 34.3013 5.97731L34.953 8.66029C34.9936 8.91164 35.0983 9.15796 35.1403 9.41029L36.1718 13.465C36.2155 13.7102 36.3127 13.9498 36.3609 14.1944L36.8276 15.9801C36.8356 16.0241 36.8415 16.0621 36.8566 16.1044L37.11 16.9724C37.234 17.5293 37.3854 18.1043 37.5832 18.6404L38.2968 20.7775C38.9991 23.3873 38.8938 27.4931 38.2851 30.0502C38.0556 31.0146 37.6995 31.9561 37.5154 32.9297C37.2943 34.098 37.2558 35.2522 37.1753 36.4337L36.9788 39.286C36.9621 39.5654 36.9233 39.8383 36.9213 40.1189L36.9118 41.4005C36.8802 42.749 36.5211 42.7286 35.4291 42.7297L11.716 42.7282ZM32.829 6.84951L31.3995 7.08843L33.1295 14.0054C33.3093 14.602 33.3946 15.2398 33.6008 15.826L33.9725 17.1355C34.2565 18.0586 34.0711 19.6098 33.7577 20.4824C33.0319 22.5035 31.4786 24.0506 29.4795 24.7977L28.7485 25.0468C27.2855 25.6196 25.8877 26.6585 25.0343 27.9962L24.7463 28.4767C23.9912 29.84 23.3357 28.5415 22.8477 27.8556C22.0142 26.6841 20.8354 25.6907 19.4972 25.1414L18.0181 24.5828C15.3547 23.4645 13.7256 20.7155 13.9032 17.8614C13.9328 17.3848 14.09 16.8968 14.224 16.4411L16.7459 7.20412L15.1267 6.98564L12.3313 17.5029L11.8681 19.0151C11.6185 19.7317 11.3216 20.4178 11.1573 21.1642C10.8599 22.5148 10.7762 23.8709 10.776 25.2506L10.7836 26.5183C10.8544 28.0033 11.1212 29.6003 11.5524 31.0197C11.8567 32.0214 12.0817 33.0241 12.186 34.0665L12.5169 38.7072C12.5226 38.8105 12.5117 38.9123 12.5236 39.0155L35.4825 39.0196L35.7428 34.9497C35.8939 32.9603 36.2174 31.9219 36.7176 30.0367C37.4477 27.2856 37.4654 23.4231 36.7329 20.7423C36.5602 20.11 36.2824 19.5248 36.0735 18.9063L33.5632 9.36857C33.3516 8.53903 33.1106 7.6964 32.9544 6.8556C32.9071 6.83446 32.8791 6.84112 32.829 6.84951ZM29.9117 7.39546C28.1828 9.24201 26.0648 9.34912 23.7667 9.44053C23.5086 9.45079 23.2768 9.50873 23.0237 9.5354C21.3904 9.70776 19.3914 8.47996 18.2466 7.45757L17.7448 9.30979C17.7114 9.43682 17.6799 9.5879 17.6197 9.70439C18.6214 10.6948 20.7962 11.1513 22.125 11.2539C22.5711 11.2884 23.0286 11.2687 23.4764 11.2691L25.7886 11.2667C27.4119 11.2571 29.1063 10.6659 30.3729 9.66182L30.0967 8.36414C30.0302 8.05621 29.9315 7.70779 29.9117 7.39546ZM30.8312 11.239C29.0291 12.4158 27.5691 12.7286 25.4957 12.7302L22.0897 12.7303C20.6287 12.7294 19.2733 12.3922 17.9503 11.7412C16.9204 11.2345 17.2657 10.9795 16.9275 12.1825L15.6097 17.1202C14.8991 19.4823 16.2395 22.0508 18.4236 23.0888L19.1305 23.381C20.8196 23.9881 22.2413 24.7669 23.4521 26.1485C23.6388 26.3616 23.8135 26.5971 24.0205 26.7898C25.0742 25.3855 26.517 24.278 28.1484 23.6257C28.7078 23.4021 29.2643 23.2394 29.7984 22.9521C31.6556 21.953 32.8372 19.8441 32.5295 17.7345C32.4727 17.3451 32.3387 16.9707 32.2401 16.5913L30.9906 11.8219C30.9362 11.6273 30.9009 11.4292 30.8312 11.239ZM34.0018 40.4973L12.6061 40.5042C12.6066 40.7098 12.5602 41.0708 12.6421 41.2554L14.0742 41.2646L35.3685 41.2626L35.382 40.5785C35.3849 40.5342 35.385 40.5515 35.3732 40.5029L34.0018 40.4973Z" fill="black"/>
</svg>
