<svg width="48" height="48" viewBox="0 0 48 48" fill="none" xmlns="http://www.w3.org/2000/svg">
<path d="M39.0969 38.1958L39.8769 40.2086C39.9502 40.3929 39.9675 40.6111 39.9044 40.8017L39.891 40.8396C39.7065 41.396 39.2822 41.4647 38.7909 41.6047L31.7712 43.1858C30.4843 43.3965 29.1963 43.3748 27.8973 43.3748L20.7139 43.3755C19.7975 43.3753 18.8742 43.3915 17.9624 43.2812C15.6032 42.9957 13.2729 42.4797 10.9525 41.9717L9.05161 41.5472C7.98661 41.3214 7.95014 40.7015 8.25994 39.8536L10.3789 34.6144C11.3374 32.3965 12.2132 30.3512 12.3676 27.9021C12.5258 25.3932 12.096 24.1787 11.3562 21.874C11.149 21.2286 11.0094 20.5541 10.7762 19.9197C10.3903 18.8697 9.85861 18.1451 9.67814 16.9186C9.45249 15.3851 9.67252 12.7705 10.3845 11.4673C10.5749 11.1187 10.8701 10.8676 11.0979 10.5497C11.826 9.53371 12.0409 8.39099 11.8699 7.17159C11.7019 5.97449 12.5343 5.74771 13.5707 5.65762C14.4494 5.57015 15.4486 6.01396 15.7664 6.89277L15.9508 7.50707C16.9518 10.6352 18.7366 10.9292 20.7069 12.9161C21.9967 14.2168 22.677 15.398 23.5043 16.9758C23.8374 16.8852 24.1717 16.8665 24.4929 17.0121L24.5148 17.0223C25.2483 15.0813 26.6947 13.2578 28.3338 11.9834C29.9193 10.7507 31.3543 9.73935 31.9805 7.73029C32.0895 7.38088 32.1522 6.98198 32.337 6.66393C32.8948 5.70445 33.7411 5.64318 34.6912 5.64557C35.2915 5.64707 35.8583 5.7201 36.1696 6.33679L36.1875 6.37476C36.3306 6.65929 35.9803 8.16674 36.1171 8.77555L36.2785 9.38648C36.5769 10.4476 37.5138 11.0462 37.8754 12.0701L38.2036 13.3123C38.6277 15.2337 38.4067 17.3099 37.5863 19.0923C37.4946 19.2914 37.3559 19.4616 37.2788 19.6692C37.0337 20.3279 36.8585 21.0201 36.6494 21.6912C36.2716 22.9029 35.8637 24.1611 35.7117 25.4256C35.5194 27.0245 35.5675 29.2083 36.1077 30.7558L37.407 34.2068L39.0969 38.1958ZM34.2584 7.25193C33.6858 7.30565 33.6555 7.76849 33.5005 8.23626L33.2343 8.95054C32.3057 11.2268 31.0204 11.8894 29.2682 13.3343C27.7802 14.5613 26.5395 16.105 25.8798 17.9344C26.6978 18.9976 27.6241 19.8033 28.8724 20.3056C30.3621 20.7867 32.0459 20.6871 33.5003 20.1132C36.1821 19.0551 36.9357 17.5506 36.7742 14.6951C36.6754 12.9474 36.572 12.7799 35.6073 11.5193C35.0285 10.7629 34.5832 9.73532 34.5156 8.7771L34.5319 7.25348L34.2584 7.25193ZM13.4774 7.27026C13.4829 7.62482 13.5413 7.98571 13.5344 8.33821C13.5128 9.43809 13.0548 10.675 12.3862 11.5489C12.0696 11.9627 11.7229 12.2695 11.5363 12.7732C11.2491 13.5484 11.2322 14.405 11.2228 15.2198L11.2274 16.1755C11.3079 19.8516 16.3609 21.4527 19.3426 20.2019C20.8498 19.5675 21.1426 18.9194 22.1406 17.9094C21.1271 15.8638 20.558 14.7614 18.6558 13.2425C16.74 11.7128 15.4949 10.9679 14.5788 8.43726C14.2865 7.62988 14.4451 7.24152 13.4774 7.27026ZM23.9017 18.5174C23.5111 18.6358 23.3052 19.0179 23.0637 19.3202C20.6257 22.372 16.6208 23.1343 13.1461 21.2865C13.0071 21.2127 12.8666 21.1161 12.7203 21.0596L13.6133 23.7397C14.1796 25.4715 14.0399 28.4806 13.6288 30.2747C13.407 31.2429 13.0982 32.2316 12.738 33.1575L11.1231 36.9085C11.0046 37.1912 10.9066 37.5151 10.7668 37.7842L12.0551 38.0555L14.4823 32.1033C14.6626 31.624 14.7824 31.129 14.9051 30.6326L15.4132 28.5106C15.7693 27.2869 16.3993 26.1694 17.3234 25.2831L17.9222 24.7472C18.035 24.6532 18.1518 24.5459 18.2851 24.4817C18.996 24.1393 19.7839 24.8307 19.4609 25.5845C19.3165 25.9214 19.0664 25.9694 18.7895 26.159C17.4251 27.0928 17.0065 28.7031 16.6687 30.1978L16.187 32.0112C15.5963 33.8799 14.7961 35.6731 14.0202 37.4693L13.6563 38.376L18.5273 39.2162C20.3396 39.4211 22.1375 39.3765 23.9589 39.3757L27.1287 39.3761C28.0836 39.3758 29.0256 39.3863 29.9765 39.2789L31.9101 38.9753L34.3464 38.4298L32.1281 33.0275L31.6092 31.353C31.036 29.2358 30.4825 27.3997 28.6495 26.0129C28.357 25.7916 28.1933 25.4804 28.3268 25.113L28.3382 25.0811C28.6893 24.1447 29.5234 24.6574 30.0118 25.0795C30.8166 25.775 31.536 26.5899 31.9967 27.5586L32.0837 27.7324C32.448 28.4488 32.739 29.2971 32.9157 30.0802L33.4799 32.0703C33.5893 32.4517 33.7587 32.8232 33.904 33.1923L34.4439 34.5483C34.5978 34.893 34.7704 35.2368 34.9032 35.5896L35.82 37.9198C35.8392 37.9821 35.8691 38.0411 35.8963 38.1002L37.2054 37.8072L36.1239 35.2692C35.3869 33.5466 34.6626 31.7652 34.2733 29.9292C34.0331 28.7964 33.9827 27.147 34.0612 25.9549C34.1701 24.298 34.6484 22.6799 35.1762 21.1146C31.6016 23.0096 27.8259 22.5842 25.1378 19.5256C24.8225 19.1668 24.4514 18.493 23.9017 18.5174ZM10.152 39.2477L9.85449 40.0831L14.6835 41.0946C15.6986 41.2826 16.7005 41.4957 17.7272 41.6197C18.767 41.7453 19.8413 41.7359 20.8863 41.7363L28.2506 41.7367C29.0568 41.7364 29.8365 41.747 30.6376 41.667L31.2373 41.6146C32.1157 41.5021 32.9933 41.2846 33.8576 41.095L38.0168 40.1284L38.1346 40.0829C38.1698 40.0003 37.9269 39.3948 37.8627 39.3007L32.4689 40.5184C30.6105 40.9032 29.0936 41.0174 27.2053 41.0161L21.5634 41.0159C20.8453 41.0154 20.123 41.0311 19.4076 40.9604L15.4206 40.3677L11.0741 39.4684C10.7703 39.4025 10.4449 39.3517 10.152 39.2477Z" fill="black"/>
</svg>
