<svg width="48" height="48" viewBox="0 0 48 48" fill="none" xmlns="http://www.w3.org/2000/svg">
<path d="M36.4183 37.0947C36.4176 37.5768 36.6987 39.2897 36.4495 39.6332L36.4288 39.6611C36.3665 39.7479 36.3076 39.8107 36.2233 39.8754L36.1891 39.9015C36.0417 40.0162 35.8592 39.9833 35.6837 39.9837L12.2299 39.9898C12.1368 39.9888 12.0498 39.986 11.9621 39.9497L11.93 39.9352C11.4075 39.7043 11.4776 39.1587 11.5185 38.6836L11.7107 36.096L11.7154 33.0629C11.6071 30.8406 11.2091 29.1244 10.5397 27.038C10.0016 25.3607 9.86103 23.9372 10.2279 22.2087C10.4957 20.9473 10.4741 20.99 11.5733 20.477C13.8216 19.4279 15.2721 16.5919 15.6461 14.1914L15.8811 11.9707C15.8978 11.7983 15.9398 11.6256 15.9747 11.4559C14.6559 10.325 15.16 8.13551 16.9348 7.81076C17.2905 7.77678 17.6676 7.80289 18.0015 7.93648L18.0355 7.9505C18.8796 8.29278 19.4382 9.43882 19.155 10.2667L19.1471 10.289C18.9617 10.9117 18.8079 10.9681 19.0453 11.6296L19.2569 12.2175C21.0143 16.3896 26.0995 16.8813 28.3559 13.0044C28.5223 12.7185 29.1724 11.297 29.1261 11.0021C29.0971 10.8169 28.9462 10.6211 28.8976 10.4312L28.8414 10.2043C28.3113 8.02789 31.1875 6.91386 32.348 8.57801L32.375 8.61715C32.9712 9.47009 32.8257 10.757 32.0176 11.414C32.1972 11.7712 32.1177 12.2889 32.1657 12.6754C32.2261 13.162 32.252 13.6635 32.3443 14.1445C32.8264 16.657 34.0279 19.354 36.4645 20.4919C37.5854 21.0155 37.5417 21.228 37.8268 22.4297C38.1837 23.9336 37.9668 25.4449 37.5112 26.908C37.2993 27.5887 37.0325 28.2503 36.8666 28.9456C36.3493 31.1141 36.2112 33.4438 36.3125 35.6601C36.3342 36.1352 36.3298 36.6264 36.4183 37.0947ZM17.1517 9.14478C16.2995 9.34597 16.4166 10.5567 17.2784 10.5169C18.1 10.4027 18.0752 9.13503 17.1517 9.14478ZM30.6779 9.14548C29.812 9.35693 30.0517 10.5655 30.8499 10.5213C31.4007 10.3892 31.6308 9.66725 31.156 9.29295L31.1277 9.26998C30.9977 9.16709 30.8414 9.13367 30.6779 9.14548ZM30.3105 11.8059C30.1345 12.2559 29.9971 12.715 29.7888 13.1532C27.3492 18.2852 20.403 18.2466 18.1255 13.0011C17.9615 12.6236 17.8489 12.1905 17.6471 11.8346C17.4863 11.8961 17.338 11.9645 17.1896 12.053C17.1078 12.399 17.1511 12.8119 17.1253 13.1719C16.9105 16.1709 15.4772 19.6846 12.8431 21.3112C12.5498 21.4924 12.2262 21.6954 11.8831 21.7559L11.7594 21.7782C11.2993 23.0998 11.184 24.3695 11.556 25.7226L12.2773 27.9854L12.6297 27.984L35.7417 27.9828C36.5359 25.527 37.0755 24.3762 36.2939 21.8802C36.157 21.7678 35.8897 21.7072 35.7218 21.6305C33.3412 20.5432 31.8061 17.7221 31.2308 15.2982L31.0198 14.1885C30.9991 14.0601 30.967 13.9307 30.9557 13.8012L30.8033 12.0179L30.3105 11.8059ZM12.5692 29.3239L12.5875 29.3672C12.638 29.4709 12.6477 29.6224 12.6653 29.7361L12.9963 32.2711C13.0236 32.527 13.0291 32.813 13.0335 33.0703L13.0372 34.7264C13.0372 35.0321 13.019 35.3468 13.0561 35.6502L34.9931 35.6485L34.9901 35.2809L34.9943 32.8061C35.0355 31.985 35.1615 31.1758 35.2635 30.3618L35.3573 29.7095C35.3743 29.5882 35.3778 29.435 35.4241 29.3231L12.5692 29.3239ZM12.9595 37.014L12.8439 38.6281L35.139 38.6284L35.2252 38.6214C35.2485 38.4293 35.197 38.2298 35.1804 38.039L35.0901 37.027C34.8495 36.9847 34.5662 37.0118 34.3201 37.0118L14.4972 37.0125C13.9907 37.0123 13.4641 36.9811 12.9595 37.014Z" fill="black"/>
</svg>
