<svg width="48" height="48" viewBox="0 0 48 48" fill="none" xmlns="http://www.w3.org/2000/svg">
<path d="M31.8688 45.4537L28.5437 46.3089C27.3764 46.6397 25.9633 46.4778 25.5034 45.1624C25.368 44.7754 25.3795 44.3307 25.3215 43.9267L24.6801 38.6249C24.6079 37.9143 23.5701 37.7313 23.353 38.482C23.2834 38.7228 23.3362 39.0169 23.3015 39.2695L22.6107 44.4944C22.5817 44.6933 22.5801 44.8795 22.5118 45.0725L22.4999 45.1054C22.1565 46.0719 21.2383 46.5586 20.233 46.4744C19.9107 46.4474 19.5707 46.3289 19.2588 46.2452L7.98983 43.3545C6.7693 43.0433 6.02089 43.2392 6.0186 41.7295C6.01756 41.0574 6.03561 40.4083 6.11722 39.7405L6.43086 37.5116L8.25425 28.7443C8.48656 27.3862 8.84342 24.9498 9.57153 23.798C9.70663 23.5844 9.71436 23.3451 9.83174 23.1299C9.99547 23.0734 10.0588 22.8391 10.1339 22.6997L11.4555 20.1592C12.3547 18.2017 12.8665 16.1803 12.8674 14.0273L12.8682 12.0233C12.8706 11.5305 12.9395 11.1359 12.9545 10.6789C12.9994 9.31182 12.8219 7.82959 12.5487 6.48901L12.2666 5.20806C12.1965 4.90651 12.0837 4.58417 12.0916 4.27392C12.1073 3.66379 12.6711 3.47105 13.1741 3.46981L16.2387 3.47641L16.2392 2.50619C16.2394 1.90954 16.2667 1.5203 16.9719 1.33846C17.8945 1.29446 17.8723 2.39334 17.8724 2.98321C17.8726 3.79067 17.8196 5.15125 18.1095 5.91789L18.1677 6.1171C18.7075 8.33781 20.0488 9.45339 21.824 10.622C23.6116 11.7987 23.9501 12.0172 25.737 10.8847L26.7453 10.2251C28.7075 8.84396 29.8721 7.26376 30.0988 4.7476C30.1508 4.16943 30.1158 3.56157 30.1153 2.98011L30.115 2.39957C30.1158 1.98007 30.2271 1.55491 30.6803 1.4044L30.7118 1.39445C31.9751 0.986673 31.6656 2.78433 31.7551 3.46976L34.1045 3.46992C34.7379 3.47034 35.7427 3.28787 35.8781 4.20036C35.9269 4.52874 35.7961 4.86531 35.7208 5.1796L35.4088 6.77293L35.1117 8.94751C35.0291 9.81329 35.0923 10.3996 35.0998 11.254L35.1152 15.0173C35.1881 16.2924 35.6021 17.6572 35.9988 18.8671L36.2085 19.4027L38.4364 23.8593L39 25.3241L39.5106 27.285L41.9311 40.6502C42.0005 40.9911 41.9725 41.3694 41.9735 41.7164C41.9773 42.9967 41.6877 42.9367 40.4528 43.2483L31.8688 45.4537ZM13.9725 5.04526L13.8864 5.05454C13.8636 5.1009 13.8778 5.16503 13.8931 5.21476L13.923 5.28507C14.0552 5.65435 14.0951 6.06746 14.1694 6.45109L14.4773 8.40854C14.6539 9.78784 14.5355 10.6248 14.5309 11.9758L14.4463 14.9627C14.3302 17.2079 13.7221 19.137 12.7678 21.1411L12.1723 22.3082C11.9486 22.7147 11.7043 23.1254 11.5117 23.5473C12.2452 23.8514 13.6437 24.079 14.4311 24.2226L20.0505 24.9377L24.1353 25.0319L27.9796 24.9425L33.5716 24.2199L36.1099 23.6334C36.21 23.6041 36.3246 23.5849 36.4204 23.5457L35.015 20.7241C33.9467 18.3204 33.5516 16.4522 33.4872 13.8664L33.4757 11.825C33.4582 10.6692 33.353 9.89172 33.4848 8.65487L33.8962 5.97648C33.9545 5.66715 34.0422 5.35998 34.0874 5.04878L32.49 5.04414C31.4624 5.04507 31.7399 4.86357 31.564 5.83585C31.0617 8.61071 29.5366 10.3071 27.3069 11.798C24.5453 13.6445 23.6959 13.7913 20.9443 11.9798C18.1918 10.1677 16.713 8.37203 16.3341 5.05262L13.9725 5.04526ZM10.7941 25.0238C10.4306 26.013 10.2806 26.684 10.0591 27.6755C10.4098 27.7973 10.7828 27.8719 11.1442 27.9579L13.8959 28.5326L17.224 29.055L21.2445 29.3972C21.3961 29.4084 21.5448 29.4378 21.6971 29.4434L26.4302 29.4437C26.5862 29.4374 26.7386 29.4066 26.8937 29.3958L30.1562 29.1457L34.1599 28.5235L37.2302 27.8695L37.9366 27.6812C37.7847 26.7962 37.5018 25.8832 37.1833 25.0434L32.3083 26.1004L27.4308 26.6304L22.2287 26.6926L19.6545 26.5358L15.4644 26.0545L12.4685 25.4774C11.9125 25.3511 11.3268 25.227 10.7941 25.0238ZM9.78364 29.2865L8.11302 37.1749C8.0255 37.5112 8.04692 37.5318 8.24103 37.8442C8.91889 38.9352 10.1893 39.5084 11.401 39.7706L17.6833 41.3098C18.9048 41.5846 20.0993 41.7205 21.3463 41.7187C21.3953 41.5031 21.3825 41.2692 21.4066 41.0486L21.6359 39.4286C21.693 38.9993 21.692 38.5265 21.795 38.1085C22.2577 36.2297 24.5665 35.7847 25.762 37.2217L25.8474 37.3361C26.0774 37.6609 26.2213 38.0924 26.2584 38.49L26.6199 41.4522C26.6265 41.5436 26.6168 41.6312 26.6534 41.7173C28.556 41.7236 30.0213 41.3508 31.863 40.8979L35.6009 40.0143L36.927 39.6915C38.0397 39.322 39.2278 38.8794 39.7993 37.7434C39.9029 37.5375 39.9439 37.4876 39.8842 37.2752L38.2191 29.3269L31.5935 30.6341L28.8981 30.9132C27.0004 31.0908 26.3383 31.2098 25.09 32.9216C24.295 34.0117 23.9532 34.2016 23.1054 33.1498C21.3696 30.9964 20.9959 31.0517 18.3197 30.816L16.4381 30.6098L10.8242 29.5757C10.4793 29.4923 10.1174 29.4083 9.78364 29.2865ZM23.3987 30.994L24.0103 31.6605L24.2507 31.356C24.3383 31.2548 24.4499 31.0755 24.56 31.0081L23.8474 31.0084C23.7025 31.0054 23.5402 30.9684 23.3987 30.994ZM7.73108 39.7616C7.62383 40.3377 7.58849 40.9954 7.59425 41.5793L19.8 44.704C20.0996 44.7851 20.5127 44.9619 20.8102 44.79L20.8805 44.7411C21.0408 44.5055 21.0024 44.3025 21.0278 44.028L21.1198 43.3297L19.8969 43.2934C18.0037 43.196 16.1217 42.5631 14.2892 42.1288L12.0159 41.5806C10.8073 41.2957 8.57628 40.7994 7.77055 39.7895L7.73108 39.7616ZM40.1575 39.7851C39.1188 40.7117 37.9203 41.1292 36.5739 41.4396L32.2966 42.4703C31.007 42.7907 29.6837 43.1415 28.3605 43.2876C27.8676 43.342 27.3536 43.2984 26.8571 43.322L26.9494 44.131C26.983 44.4139 26.9781 44.5784 27.1828 44.7924C27.3274 44.8517 27.4647 44.8952 27.6208 44.8679L40.3678 41.5694C40.3303 41.1167 40.3614 40.1863 40.2045 39.7812L40.1575 39.7851Z" fill="black"/>
</svg>
