<svg width="48" height="48" viewBox="0 0 48 48" fill="none" xmlns="http://www.w3.org/2000/svg">
<path d="M32.2428 40.3954C31.9887 40.4269 31.7289 40.4986 31.4778 40.5523L27.5035 41.1276C26.4301 41.2377 25.365 41.227 24.2878 41.2271L21.519 41.2183C19.5732 41.1245 17.1651 40.7092 15.2887 40.2909L13.5008 39.8997C13.0211 39.8029 12.2703 39.8172 12.0515 39.2767L12.0396 39.2459C11.9776 39.0882 11.9943 38.8943 12.0227 38.7303L13.2438 32.8592C13.4656 31.5783 13.6988 30.2842 13.7935 28.9861C13.8672 27.9756 13.7524 27.1267 13.6171 26.1209L13.3969 24.5975L12.2937 18.9661C10.8739 18.9412 9.58578 18.3286 8.80943 17.0922C7.95532 15.7321 7.87657 14.1818 8.09403 12.6424L8.3375 10.938C8.40921 10.4356 8.4289 9.8876 8.62798 9.41581L8.64556 9.37484C9.08271 8.34138 10.4545 7.42249 11.5575 7.89879C11.6891 7.9556 11.9079 8.17681 12.0294 8.17535L12.6755 8.1679C12.786 7.69821 12.5066 6.94502 13.5192 6.9372L14.253 6.92618C15.1825 6.87682 15.9702 6.59445 16.8492 6.30743C17.4591 6.26665 17.483 6.50459 17.9372 6.8494C19.6427 8.14413 22.1248 8.26699 24.1959 8.26451L24.9816 8.26095C25.368 8.2571 25.9384 8.19031 26.3221 8.1402C27.7622 7.95218 29.0554 7.62246 30.2264 6.72804C30.9071 6.2081 30.8622 6.20309 31.6882 6.49165C32.0235 6.60879 32.3922 6.7167 32.7436 6.76877L33.9868 6.92852C35.1591 7.03835 35.1625 6.95295 35.3202 8.17488C35.5006 8.17709 35.9421 8.2271 36.081 8.12004C37.406 7.09863 39.1764 8.42698 39.5075 9.89243C39.587 10.2439 39.6116 10.6327 39.655 10.9916L39.8778 12.3866C39.9803 13.0225 40.1161 14.2848 39.9586 14.9123C39.7655 15.6814 39.6466 16.4245 39.2106 17.1092C38.3359 18.4831 37.2175 18.8504 35.726 18.9593L34.7531 23.8358C34.3827 25.9361 34.0647 27.3723 34.2576 29.502C34.3577 30.6067 34.5461 31.6974 34.7351 32.7889L35.3053 35.69C35.3743 36.0239 35.4599 36.3511 35.5252 36.6871L35.8067 37.9906C35.9111 38.5053 36.3027 39.3829 35.5882 39.6551L35.5613 39.665C35.18 39.8107 34.7145 39.8616 34.3126 39.9435L32.2428 40.3954ZM16.432 7.95687C15.6957 8.19059 14.9648 8.2841 14.1949 8.29296L14.1849 10.9324C14.1295 12.0367 13.5266 13.1136 12.5499 13.6521L12.1266 13.8396L12.9752 15.8501C13.0525 16.0534 13.0943 16.2707 13.16 16.4776L13.8385 19.3283L14.7657 24.1287C14.8383 24.4823 14.8667 24.8505 14.9298 25.2069L15.1625 26.8358C15.1869 27.0363 15.2268 27.2486 15.2372 27.4491L15.2445 28.4008C15.2439 28.6851 15.2537 28.9732 15.2071 29.2542L14.4746 34.1365C14.449 34.2762 14.3984 34.4419 14.4166 34.584C15.9357 34.8331 17.4657 34.9684 18.9979 35.0984L21.1497 35.2627L26.6766 35.2637L29.648 35.0574L33.602 34.589L32.7985 29.091C32.7357 28.6429 32.7087 28.1644 32.7458 27.7112L33.1777 24.5614L34.1074 19.6045L34.9257 16.157C35.0546 15.6979 35.2587 15.2666 35.4532 14.8326L35.752 14.143C35.7969 14.031 35.862 13.894 35.8708 13.7731L35.8445 13.7664C34.7894 13.4898 34.0057 12.3494 33.8675 11.2967C33.8225 10.9547 33.842 10.5938 33.8416 10.2492L33.8413 8.95976C33.8414 8.75163 33.8542 8.5346 33.8342 8.3276C33.0619 8.28265 32.2808 8.16321 31.538 7.9481C31.1918 11.9576 28.7816 14.8449 25.2538 16.5117C24.1637 17.0268 23.8651 17.0358 22.7749 16.5436C19.7383 15.1728 17.2824 12.5285 16.6351 9.18818L16.5236 8.57796C16.5028 8.44657 16.5106 8.04776 16.432 7.95687ZM18.0007 8.58968L18.4737 10.3148C19.1154 12.2617 21.2133 14.1774 22.9936 15.0526L23.742 15.3875C24.2038 15.5809 24.7247 15.1931 25.1675 14.9585C25.8999 14.5705 27.7613 13.295 28.1907 12.5456C29.1252 11.3632 29.752 10.0695 30.016 8.56934C27.4358 9.89009 22.396 10.117 19.5244 9.18804L18.4733 8.80291C18.3683 8.75838 18.0913 8.57351 18.0007 8.58968ZM10.7493 9.2637C9.94025 9.48363 9.89239 10.0907 9.79123 10.8055L9.61029 12.1694C9.4714 13.2357 9.28062 14.1643 9.58287 15.2225L9.70432 15.6326C10.0795 16.6422 10.8365 17.3139 11.8866 17.5092L11.7512 16.7852C11.5882 16.2571 11.3874 15.7594 11.1626 15.2549C10.9146 14.6986 10.3523 13.8197 10.6741 13.1968C11.2773 12.0291 12.7782 12.9422 12.7007 10.3969L12.6955 9.5787C11.6032 9.70418 11.3118 9.22657 10.7493 9.2637ZM37.0539 9.26042C36.6909 9.35937 36.3726 9.52817 35.9972 9.59693C35.1929 9.7444 35.2829 9.1519 35.2923 10.2036C35.296 10.6148 35.2227 11.0826 35.3899 11.4725C35.9039 12.6717 37.0183 12.3578 37.3584 13.2816L37.3844 13.3622C37.5664 13.9378 37.0995 14.6976 36.8626 15.1911L36.5117 15.9814C36.3776 16.3229 36.3032 16.6691 36.1929 17.0152C36.1594 17.182 36.1143 17.3492 36.1081 17.5197C38.1158 17.0642 38.7321 15.3229 38.5604 13.4412L38.1966 10.7031C38.1 10.0655 37.894 9.20468 37.0539 9.26042ZM14.0785 35.9716L13.558 38.4259L18.1806 39.3684L19.9773 39.5891C20.3825 39.6367 20.7756 39.7161 21.1858 39.7426L26.2153 39.7646C26.5181 39.7642 26.8621 39.7894 27.1562 39.7143L33.521 38.6284L34.0113 38.5225C34.1618 38.4875 34.3184 38.4387 34.4737 38.4326L33.927 35.9925C33.3092 36.0462 32.6967 36.1772 32.0812 36.2517L27.6238 36.6366C27.4316 36.6452 27.2405 36.6806 27.0464 36.6875L21.0206 36.6937L17.5306 36.4397L14.8508 36.0986C14.5969 36.0641 14.3269 36.0364 14.0785 35.9716Z" fill="black"/>
</svg>
