<svg width="48" height="48" viewBox="0 0 48 48" fill="none" xmlns="http://www.w3.org/2000/svg">
<path d="M24.0414 39.7042L20.5608 39.6391L17.0351 39.3484C15.214 39.1656 13.3824 38.8623 11.5984 38.4522L9.82914 37.9607C7.95578 37.386 6.08565 36.6195 4.59456 35.317C2.43547 33.431 2.07169 30.9376 4.03175 28.7578L5.56529 27.202C6.07253 26.6399 6.01628 26.557 6.01848 25.8106L6.02021 18.8969C6.02082 18.5109 6.05739 18.1567 6.14692 17.7796C6.6985 15.4558 8.25606 14.4812 10.3021 13.759L20.1179 10.198C20.7348 9.98346 21.3518 9.73858 21.933 9.439L22.8356 8.93444C23.1911 8.72163 23.5166 8.46321 23.9282 8.37171C24.0399 8.36857 24.1382 8.36655 24.2464 8.40161L24.2816 8.41352C24.4874 8.48004 24.6737 8.60814 24.8557 8.72341L25.5472 9.14397C26.1058 9.46296 26.7179 9.74135 27.3167 9.97582L36.6306 13.3939C38.7762 14.2216 40.0418 14.3058 41.3439 16.4886L41.6409 17.131C41.6991 17.2925 41.7736 17.4772 41.8032 17.6448L41.8788 17.9769C42.0056 18.4263 41.9754 18.8985 41.9757 19.3622L41.9731 27.021C41.9779 27.1925 43.0979 27.9981 43.2899 28.1618C43.9846 28.7541 44.7383 29.5955 45.0142 30.4946L45.0953 30.7621C45.897 33.2216 43.8556 35.2267 41.9095 36.3796C38.4357 38.4376 33.4425 39.1718 29.4847 39.5161L27.6324 39.6443L24.0414 39.7042ZM24.0106 9.86365C23.1475 10.3782 22.2861 10.8725 21.3519 11.2503L10.7933 15.0922C10.2227 15.3013 9.68068 15.4367 9.163 15.7788C7.7567 16.7081 7.40884 17.9016 7.40846 19.458L7.40486 24.5708C7.48351 24.6606 7.56404 24.6933 7.65981 24.7566L8.31306 25.2006C10.2268 26.4063 12.3144 27.1844 14.5082 27.6964L17.7779 28.2919C17.9882 28.3248 18.2219 28.3097 18.4227 28.3778C19.0464 28.5896 19.2767 29.8228 18.0195 29.7297L17.1919 29.6304C13.9257 29.1671 10.7384 28.3167 7.89475 26.6005C7.83165 26.5624 7.45356 26.3187 7.39576 26.3344L7.40312 27.7643C7.40045 28.2514 7.36909 28.6046 7.54928 29.0628C8.78289 32.2003 15.6993 33.2642 18.5083 33.5582L21.2181 33.7673L23.9652 33.7745L27.8784 33.6885C31.0847 33.4694 34.3836 33.0471 37.3325 31.6996C38.6399 31.1021 40.3181 30.0893 40.5779 28.5296C40.615 28.3066 40.5977 28.055 40.5977 27.8288L40.5733 26.3095L38.3365 27.5349C36.1612 28.5826 33.7966 29.1618 31.4246 29.5452L30.1465 29.7184C29.5704 29.7742 28.9053 29.6059 29.1613 28.8451L29.1807 28.7885C29.3284 28.3615 29.7556 28.3447 30.1356 28.3017L32.6136 27.9128C35.0705 27.4552 37.5038 26.5177 39.6329 25.2227L40.3577 24.7405C40.4466 24.6764 40.5113 24.6691 40.5823 24.576C40.612 24.2833 40.5922 23.9729 40.5924 23.6785L40.5932 19.9241C40.5924 18.2418 40.4489 16.9161 38.914 15.8307C38.3256 15.4146 37.6404 15.225 36.9651 15.0004L28.8337 12.0084C26.8957 11.3349 25.7975 10.8779 24.0106 9.86365ZM6.03723 28.8171L5.95468 28.8804C4.96576 29.6647 3.68937 31.2028 4.25518 32.5711C5.98895 36.7636 14.9058 37.8001 19.0309 38.0959L21.0092 38.2561L26.8259 38.2592L29.9229 38.0534L33.8277 37.5308C36.9153 36.9965 41.4291 36.0057 43.3674 33.2948C44.4869 31.5395 43.47 29.9785 41.9473 28.8889C40.6718 33.6752 32.4979 34.7825 28.2676 35.0864L27.0327 35.1817L21.0706 35.1858L18.7035 34.9856C15.09 34.6185 10.4726 33.9044 7.64579 31.4507C7.00192 30.8918 6.46178 30.2367 6.19946 29.416L6.03723 28.8171Z" fill="black"/>
<path d="M24.161 31.9087C23.5769 31.6463 22.0777 33.4363 20.8389 32.5777C20.1053 32.0693 20.2931 31.3251 20.4418 30.6313L20.6405 29.6532C20.7193 29.1964 20.7329 29.3051 20.3968 28.9468L19.6634 28.1486C19.4846 27.958 19.2667 27.7734 19.1227 27.555C18.6893 26.898 19.0101 25.9423 19.7387 25.6534C19.9819 25.557 20.2852 25.5376 20.5431 25.4982L22.2019 25.2688C22.7926 24.5266 22.9285 23.5881 23.8656 23.3703C24.5661 23.3472 24.733 23.6669 25.0581 24.178L25.5353 24.9205C25.8336 25.4078 25.6612 25.2647 26.2776 25.3385L27.3165 25.4887C27.6719 25.5385 28.1381 25.5529 28.4392 25.7598L28.4759 25.7854C28.8655 26.0528 29.1355 26.6025 29.049 27.0776L29.0435 27.1056C28.9508 27.596 28.5479 27.9766 28.2141 28.3239L27.5071 29.0401C27.2826 29.2604 27.2739 29.1879 27.3385 29.4931L27.6526 30.9947C27.9253 32.5888 26.9311 33.187 25.4376 32.519L24.161 31.9087ZM23.9788 25.1368L23.4922 25.9291C22.8758 26.9041 22.9258 26.6462 21.9417 26.7302C21.4687 26.7705 20.961 26.8697 20.497 26.9712L21.0674 27.5664C21.4135 27.9124 21.7922 28.2437 22.0309 28.6759L22.0487 28.7065C22.231 29.0557 22.1019 29.5552 22.0401 29.9245L21.7612 31.3443L23.1915 30.6444C23.4302 30.5177 23.7743 30.2887 24.0531 30.3117C24.8341 30.553 25.5251 31.0666 26.2829 31.3716L25.9663 29.8146C25.7455 28.6115 25.8773 28.5934 26.7815 27.715L27.5049 26.9812L26.6359 26.8287C26.5104 26.8078 26.3776 26.8033 26.2558 26.7689C25.9194 26.6742 25.5531 26.7887 25.222 26.7006C24.5262 26.5153 24.3441 25.4186 23.9973 25.1393L23.9788 25.1368Z" fill="black"/>
</svg>
