<svg width="48" height="48" viewBox="0 0 48 48" fill="none" xmlns="http://www.w3.org/2000/svg">
<path d="M25.2537 41.9804L7.52631 41.9804C7.20723 41.9802 6.87784 41.9986 6.56041 41.97C3.26505 41.6728 0.942301 38.172 1.82394 35.0129C2.03131 34.2698 2.56996 33.4083 3.25959 33.0315L3.27923 33.0213C3.13271 32.4459 3.0199 32.0041 3.01916 31.3898L3.01924 24.477C3.02069 24.1159 3.08337 23.5998 3.1288 23.2394L3.41776 21.3869C4.71616 14.8958 9.37272 9.82268 15.5071 7.56167C18.1186 6.59914 20.2926 6.22882 23.0618 6.03345C24.121 5.9704 25.1766 6.05965 26.2263 6.18476L28.0431 6.41056C34.2162 7.4239 39.9205 10.8727 42.8552 16.5398C43.0794 16.9727 43.3358 17.4172 43.5119 17.8712L43.7813 18.5627C44.1855 19.4901 44.6264 21.2157 44.7691 22.2491L44.878 23.1799C45.0053 23.9431 44.9723 24.7682 44.9725 25.5381L44.9732 30.5133C44.9739 31.5755 44.9891 31.8315 44.4823 32.838C45.1594 33.2697 45.7495 33.8997 46.0448 34.6546L46.1267 34.8869C46.4161 35.7025 46.3929 36.6031 46.2334 37.4416C45.7604 39.9275 43.606 41.9794 41.0014 41.98L25.2537 41.9804ZM24.1578 7.51414C21.2478 7.55323 19.7815 8.24365 18.0717 10.7801L17.2171 12.0852C15.2861 15.2372 14.097 18.8161 13.7727 22.5002L13.6899 26.2082C13.6937 26.4354 13.7278 26.6573 13.7399 26.8832L13.9772 29.3555C14.026 29.6999 14.0717 30.1808 14.2414 30.4844L23.917 30.8642C24.243 30.8521 24.5482 30.8128 24.8709 30.7784L26.8474 30.5872C29.1876 30.4182 31.5322 30.3382 33.8748 30.5274C34.1378 29.1367 34.2002 27.7077 34.2433 26.297L34.2416 23.6311C34.093 19.6737 32.904 16.0358 30.882 12.6367L29.9932 11.1886C28.4467 8.92578 27.241 7.46918 24.1578 7.51414ZM18.0563 8.35564C17.5057 8.48243 16.9558 8.66196 16.4192 8.83821C9.91197 10.9753 5.63762 16.1325 4.65942 22.8145C4.49089 23.9657 4.47208 24.7033 4.47313 25.8552L4.4734 30.9048C4.47362 31.1565 4.4162 32.2198 4.60113 32.3933C4.71194 32.4008 4.8145 32.3583 4.91706 32.3203L6.7615 31.7123C7.60112 31.4658 8.4579 31.2875 9.31619 31.1217L12.733 30.5945C12.7128 30.234 12.6324 29.885 12.5817 29.5287L12.3649 27.7144C12.2819 26.8404 12.2892 25.9924 12.2891 25.1137C12.289 24.3931 12.2578 23.6532 12.301 22.9346L12.369 22.3135C12.4744 21.1525 12.6362 19.9918 12.8938 18.8538L13.2689 17.4533C14.2091 14.0997 15.7317 11.3489 17.9215 8.61415C17.9906 8.5279 18.0737 8.44156 18.1287 8.34654L18.0563 8.35564ZM29.7668 8.32198C29.9405 8.52556 30.0941 8.74742 30.2536 8.96239L32.4361 12.3166C33.0238 13.3349 33.5494 14.3786 33.9865 15.4689L34.8157 17.9546C35.2127 19.1817 35.5713 21.3835 35.6729 22.6291C35.7536 23.6196 35.7226 24.6258 35.7212 25.6195C35.72 26.4543 35.7246 27.2637 35.64 28.0933L35.4777 29.6383C35.4368 29.9556 35.3746 30.2823 35.3608 30.6013C35.837 30.6913 36.3214 30.7137 36.7991 30.7866C38.0341 30.975 39.2767 31.1945 40.4881 31.5027L42.6849 32.1664C42.79 32.2066 42.8899 32.2603 43.0049 32.2439L43.0932 32.1816C43.5533 31.646 43.5171 31.1945 43.518 30.5333L43.5185 25.8491C43.5167 22.2746 42.8966 19.1849 40.9236 16.0928C38.8576 12.8547 35.5973 10.2661 31.9816 8.99787L30.358 8.4964C30.1659 8.43884 29.9505 8.39951 29.7668 8.32198ZM15.5746 31.9358L14.5156 31.9489L10.852 32.361C9.66433 32.537 8.48711 32.7903 7.3278 33.1021L7.32658 34.039C7.32344 34.625 7.26133 35.139 7.70547 35.5977C8.33251 36.2451 8.91747 35.9582 9.69119 35.8366L12.202 35.4757L18.0914 34.9059L24.3826 34.799L28.9128 34.8896L32.5132 35.1627L38.6951 35.9382C39.3339 36.032 39.9741 36.1548 40.4004 35.5301L40.4237 35.4967C40.8231 34.9089 40.6359 33.7734 40.66 33.0858L36.3631 32.2494L33.3974 31.9475L28.7484 31.9551L25.4566 32.2386C24.4817 32.3143 23.8512 32.3266 22.8491 32.2527L19.4117 31.9705C18.1401 31.8876 16.849 31.9343 15.5746 31.9358ZM5.88301 33.551C4.02457 34.2385 2.95777 34.4553 3.1448 36.8163C3.28032 38.5269 4.58982 39.9663 6.23795 40.3972C6.67628 40.5118 7.06516 40.5108 7.51726 40.5113L40.9355 40.5114C42.4866 40.4935 43.8999 39.4966 44.5177 38.0797L44.5461 38.0133C44.96 36.9155 45.1612 35.2101 44.1148 34.3758C43.8578 34.1709 42.4493 33.5907 42.0745 33.563L42.0717 34.706C42.0718 34.913 42.0895 35.1493 42.0497 35.3523C41.8171 36.5388 40.6802 37.5896 39.4421 37.5352C38.9415 37.5132 38.4292 37.4014 37.933 37.3293L34.9653 36.9259L29.7108 36.4266C29.5537 36.416 29.4008 36.3831 29.2437 36.3741L27.2618 36.3108L20.4644 36.3071L17.0124 36.4827L9.84817 37.3353C9.11542 37.4647 8.40419 37.6244 7.67908 37.3452L7.63904 37.3302C6.99911 37.0855 6.41575 36.5053 6.13951 35.883C5.86956 35.2748 5.92647 33.5993 5.88301 33.551Z" fill="black"/>
<path d="M24.1507 25.7834C23.9134 25.7867 23.5333 25.6829 23.3205 25.7864C22.9073 25.9871 22.5794 26.2204 22.0903 25.9886C21.4041 25.6634 21.4217 24.961 21.4711 24.314C21.5218 23.6505 20.8284 23.5298 20.5803 22.7949L20.5701 22.7635C20.4612 22.4398 20.5121 22.0649 20.6818 21.7726C21.2417 20.808 22.1847 21.3351 22.575 20.6478C22.9479 19.9911 23.017 19.3323 23.9041 19.227C24.9075 19.1377 25.0814 20.0152 25.4914 20.7193C25.688 21.057 26.1388 21.0293 26.4827 21.127C27.1676 21.3218 27.6846 22.0858 27.4356 22.7954L27.3765 22.9449C27.1633 23.4403 26.8598 23.606 26.5346 23.9832C26.5071 24.5562 26.7701 25.1238 26.3124 25.6574L26.2853 25.6881C25.5579 26.5215 24.8137 25.7419 24.4179 25.7528L24.1507 25.7834ZM24.015 21.1388C23.6362 21.7828 23.5735 22.1755 22.7763 22.3852L22.1793 22.5154C22.3713 22.7656 22.5551 22.9911 22.7172 23.2639L22.7996 23.4241C22.9735 23.7589 22.9258 24.087 22.906 24.4485C23.2616 24.3398 23.6314 24.192 24.006 24.1785C24.402 24.1967 24.7203 24.33 25.1036 24.4071C25.1317 23.1986 25.1368 23.4806 25.8504 22.5224C25.0951 22.3261 24.7254 22.3996 24.3072 21.6813L24.015 21.1388Z" fill="black"/>
</svg>
