<svg width="48" height="48" viewBox="0 0 48 48" fill="none" xmlns="http://www.w3.org/2000/svg">
<path d="M24.2222 38.9742L18.9538 38.9567C18.7815 38.9494 18.6157 38.9201 18.4449 38.9072L17.1871 38.8232C12.7933 38.4902 1.63167 37.3084 1.61333 31.0926C1.61061 30.1704 1.72382 29.9967 2.19377 29.2624C2.60562 28.6189 3.03458 27.9798 3.57635 27.4344C3.58524 27.0954 3.67627 26.7558 3.75907 26.4289L3.99519 25.5118C5.13019 21.4633 7.11863 18.1741 10.5537 15.6127C13.8333 13.1673 17.9282 11.6702 22.0023 11.3378C21.9476 11.0855 21.9174 10.8566 21.9515 10.5994L21.9573 10.5587C22.0774 9.66016 23.0113 9.16558 23.8293 9.08013C25.1646 8.96266 26.3232 9.91113 25.9558 11.317L27.3459 11.4639C32.5923 12.207 37.9006 15.0333 40.9771 19.3844L41.619 20.3757C41.7312 20.5562 41.856 20.7325 41.9589 20.9185L42.8566 22.7471C42.9742 22.9731 43.0564 23.2332 43.1433 23.4727L43.8913 25.6456C43.9552 25.8041 44.0128 26.0317 44.0455 26.1999L44.1957 26.8765C44.3387 27.6575 44.2949 27.1742 44.7048 27.7109C45.4836 28.7304 46.7318 30.2694 46.3547 31.6659L46.2169 32.2547C46.1508 32.578 45.9818 32.9162 45.8202 33.2015C44.1856 36.0861 39.9163 37.3222 36.8916 37.9774L32.6239 38.6864L30.243 38.8855L24.2222 38.9742ZM23.8972 10.4613C22.7392 10.6241 23.6186 11.4905 24.0625 11.4326L24.0762 11.4283C24.839 11.1101 24.8557 10.3858 23.8972 10.4613ZM25.0734 12.6519C25.3647 13.2818 25.6887 13.8572 25.8924 14.5313L27.1474 19.7959C27.3726 20.8998 27.6009 22.027 27.7064 23.1485C27.7743 23.8711 27.8318 25.6965 27.502 26.2876C27.3335 26.5896 27.3761 26.7016 27.3759 27.0479L27.3781 32.2241C27.3773 33.3464 26.8776 33.1893 26.0262 33.1896L21.3043 33.1902C20.028 33.1915 20.3586 32.212 20.3606 31.2723L20.3638 22.3952L20.5632 19.6451C20.8323 17.2029 21.5643 14.7915 22.8642 12.6949C22.6953 12.6617 22.4913 12.6949 22.3193 12.7094L21.2928 12.8136C16.7553 13.3526 11.7318 15.6566 8.75991 19.137C7.41277 20.7146 6.40796 22.6098 5.74407 24.5691L4.97644 27.3011C5.91357 27.8878 7.19461 28.4201 8.23135 28.7498L9.77302 29.182C11.6207 29.7003 13.5202 30.0792 15.4097 30.4056L18.5628 31.0108C18.9899 31.1092 19.2571 31.106 19.4494 31.5561C19.629 31.9768 19.3629 32.5125 18.8621 32.4848C18.6193 32.4713 18.3568 32.3877 18.1168 32.3436L11.2132 30.9838L9.25749 30.5086C8.02336 30.1599 6.80307 29.778 5.64422 29.2224L4.37284 28.6524L3.62914 29.6238C3.56435 29.7121 3.47287 29.8045 3.42551 29.9024C3.82861 30.2598 4.30895 30.561 4.75838 30.8588C8.01586 33.0168 11.8193 33.8642 15.6612 34.3037L18.7779 34.5444C18.9558 34.5563 19.1301 34.598 19.3082 34.6054L29.601 34.6012C34.1589 34.3457 39.2141 33.2621 43.095 30.7845C43.5607 30.4871 44.0904 30.1999 44.5032 29.8341L43.9932 29.1302C43.865 28.9473 43.75 28.7455 43.6015 28.5789L40.7808 29.9115C37.5284 31.3809 34.7547 32.4096 31.0752 32.4165L30.006 32.4161C29.5785 32.4149 29.0868 32.4025 28.9892 31.8633L28.9828 31.8294C28.8003 30.7675 30.2834 31.0138 30.8899 31.0147L32.648 30.93C35.2579 30.677 37.5366 29.8397 39.8987 28.7807L42.8913 27.3636C42.679 26.5088 42.4625 25.6654 42.1766 24.831C40.2624 19.2426 36.1299 15.4338 30.5396 13.6486L28.8394 13.1938C27.6142 12.9015 26.3352 12.6924 25.0734 12.6519ZM23.9676 13.559C23.8385 13.7195 23.7503 13.9108 23.6554 14.0927C22.3013 16.6892 21.7593 19.6401 21.7295 22.5524L21.7278 24.7507C21.7278 25.1656 21.744 25.5898 21.7094 26.0031L24.064 26.0139L25.4139 26.014C26.3548 26.0125 26.3601 25.806 26.3661 24.8042L26.3642 23.7348C26.3568 23.2544 26.2616 22.7512 26.1857 22.2774L25.2496 17.739C24.9216 16.3571 24.7079 14.7987 23.9676 13.559ZM22.0979 27.4258L21.7433 27.4407L21.7269 31.8032L25.723 31.8001L26.0336 31.8058L26.0337 27.4252L22.0979 27.4258ZM44.9935 31.2342C44.7688 31.3688 44.5628 31.5263 44.3456 31.6714L43.3799 32.2732C39.6236 34.5209 35.1992 35.5275 30.8767 35.9022L30.0252 35.9899L18.6071 35.9914L16.6312 35.8236C11.8948 35.3611 6.86039 34.3498 3.02738 31.3588C3.02691 31.7359 3.15497 32.0207 3.28601 32.3632L3.39369 32.5893C5.03044 36.0888 13.2211 37.06 16.5032 37.3445L17.7918 37.4514C18.0723 37.4769 18.3502 37.5212 18.6324 37.5325L29.5965 37.5274C29.9181 37.518 30.2166 37.4529 30.534 37.4346L33.7148 37.1133L37.0543 36.4921C39.5088 35.9204 44.8937 34.3634 44.9935 31.2342Z" fill="black"/>
</svg>
