<svg width="48" height="48" viewBox="0 0 48 48" fill="none" xmlns="http://www.w3.org/2000/svg">
<path d="M24.2696 34.873L16.1891 34.8732C14.2864 34.8726 12.0273 34.3469 10.7342 32.8549C10.084 32.1046 10.0609 31.6276 10.1277 30.698L10.0666 30.6441C9.30081 29.9874 8.99725 28.3401 9.84452 27.7476C10.0728 27.5879 10.0354 27.5314 10.0357 27.2699L10.0372 22.6106C10.0628 18.1599 17.3281 15.8084 20.9123 15.4654C20.9715 15.1372 20.8391 14.7954 20.9373 14.4526C21.251 13.3581 22.7943 13.1491 23.7397 13.1432C25.2898 13.0976 27.4665 13.3667 27.0499 15.4136L28.5235 15.6784C29.525 15.8751 30.5298 16.1173 31.4948 16.4525L32.8212 16.9837C34.4471 17.6628 36.1816 18.7749 37.1425 20.2643C37.909 21.4522 37.9613 22.7295 37.9614 24.0889L37.9627 27.3369C37.9635 27.5502 37.9442 27.5306 38.1086 27.6677C38.7953 28.2404 38.8051 29.8372 38.2043 30.4213C38.1144 30.5087 37.9987 30.5806 37.8964 30.6532L37.9278 31.2313C37.9366 33.4226 34.8847 34.5455 33.131 34.7924C32.5419 34.8753 31.9832 34.8726 31.3869 34.8729L24.2696 34.873ZM23.4068 14.6056C23.1235 14.6309 22.5199 14.6706 22.3108 14.8837L22.3152 15.327C22.6376 15.2917 22.9619 15.3001 23.2857 15.2998L24.627 15.3004L25.7124 15.3293C25.6934 15.1863 25.6869 15.0496 25.6877 14.9054C25.13 14.5263 24.0431 14.5637 23.4068 14.6056ZM22.7748 16.7624C20.4324 16.8453 17.9804 17.3646 15.8345 18.2928L14.9305 18.7315C13.5307 19.4295 12.0224 20.4719 11.5513 22.0539C11.4361 22.4407 11.4384 22.8725 11.4377 23.2719L11.4385 26.729C13.9264 25.458 15.9416 24.9721 18.7688 24.71L20.1388 24.6379C20.3523 24.6247 20.5621 24.5784 20.7761 24.5699L25.2598 24.5628C26.314 24.5632 27.358 24.651 28.4063 24.7486L29.8114 24.8762C32.314 25.17 34.3303 25.6144 36.5541 26.7615L36.5576 24.5194C36.5576 24.0079 36.5843 23.4802 36.5418 22.9709C36.1818 18.6508 29.4594 17.098 25.9912 16.8295C25.6665 16.8044 25.3536 16.764 25.0243 16.7613L23.4839 16.7612C23.2554 16.7615 23.0006 16.7386 22.7748 16.7624ZM22.8554 25.9817L20.7124 26.0552L18.1593 26.2989C16.8272 26.4648 15.5069 26.6787 14.2266 27.0972C13.5181 27.3288 9.7481 28.7713 11.0274 29.5447L11.1613 29.6084C11.4385 29.3766 11.6906 29.1396 12.0001 28.9455C14.3667 27.4609 18.4751 26.8588 21.2973 26.7365L25.0958 26.7273L26.1618 26.7392L29.0743 26.9979C31.3982 27.2571 34.1134 27.7343 36.1108 29.0491C36.2 29.1079 36.7641 29.5752 36.7852 29.5761C37.0359 29.5859 37.3945 29.1301 37.1913 28.9156C37.0473 28.7636 36.83 28.6378 36.6563 28.5231C33.8573 26.6757 30.4357 26.3126 27.1636 26.1156L26.4961 26.0527L22.8554 25.9817ZM22.2469 28.1834L20.3067 28.2888C17.986 28.469 15.433 28.8189 13.32 29.8571C13.033 29.9981 12.7255 30.1274 12.4817 30.3376C13.5346 30.8009 14.7355 30.9067 15.8607 30.6738L17.2561 30.3134C17.7093 30.1958 18.1847 30.1046 18.6485 30.0428L20.9649 29.8325L25.6817 29.8267C26.1976 29.8277 26.7624 29.7872 27.2713 29.8677L27.5316 29.8929C28.3026 30.0201 29.1393 29.9817 29.9811 30.1361C31.1421 30.3492 31.7938 30.773 33.052 30.7693C34.092 30.7661 34.5311 30.6604 35.4783 30.3447C33.8693 29.0177 29.3921 28.4381 27.4253 28.2885L22.2469 28.1834ZM21.454 31.2923L19.9571 31.381C19.3307 31.4282 18.7089 31.4806 18.0914 31.6085C17.4629 31.7387 16.8542 31.9598 16.226 32.0985C15.0384 32.3606 13.6238 32.2476 12.476 31.8869C12.1341 31.7795 11.8191 31.6226 11.4854 31.499C12.7621 33.3196 14.8242 33.398 16.7861 33.3983L26.5196 33.3981L32.0134 33.3975C33.3342 33.3966 35.0523 33.0485 36.0303 32.0691L36.4828 31.5092C35.0313 32.2534 33.1397 32.3955 31.5721 32.0628C31.0292 31.9475 30.5044 31.75 29.9652 31.6189C29.4252 31.4875 28.8424 31.4382 28.2885 31.3964L26.8728 31.2996L21.454 31.2923Z" fill="black"/>
<path d="M24.3928 24.097C22.8288 24.3945 21.1321 23.0571 20.9366 21.5041C20.7197 19.7801 21.8298 18.1018 23.6173 17.9153C25.0009 17.8526 26.221 18.3586 26.8115 19.722C27.0682 20.3148 27.2048 21.1216 27.0136 21.7406L26.9369 21.9889C26.6073 23.0897 25.5235 23.9737 24.3928 24.097ZM23.804 19.342C21.5622 19.7757 21.9503 22.7413 24.1775 22.6842L24.5717 22.596C26.2009 22.1842 25.9526 19.0761 23.804 19.342Z" fill="black"/>
</svg>
