<svg width="48" height="48" viewBox="0 0 48 48" fill="none" xmlns="http://www.w3.org/2000/svg">
<path d="M24.341 37.914L21.1294 37.8951L18.734 37.6957C16.3105 37.4566 13.8643 37.1044 11.5244 36.4113C10.7239 36.1742 9.97607 35.8362 9.20052 35.5353L8.15497 35.1775C5.477 34.2982 3.77036 32.5562 3.76855 29.6679L3.76977 27.5345C3.77089 27.1739 3.84626 26.6674 3.89163 26.2998L4.15154 24.4686C5.53527 16.0112 11.4634 11.1759 19.9988 10.2106C20.0165 10.0776 19.92 9.87178 19.9064 9.72637C19.7193 7.72401 22.1228 7.02665 23.6904 6.90042C24.0161 6.89198 24.3847 6.85607 24.705 6.92039L25.6113 7.07418C26.8963 7.40859 28.4565 8.50073 27.9989 10.0158L27.9447 10.1885C28.1421 10.2321 28.3469 10.2384 28.5473 10.2637L29.7157 10.4385C35.5021 11.4577 40.3262 14.6206 42.5723 20.1476C42.6339 20.2991 42.7129 20.4448 42.7647 20.6007L43.2958 22.1699C43.3228 22.2814 43.3656 22.3866 43.3894 22.4986L43.8384 24.3809C44.0046 25.2242 44.2219 26.6522 44.2252 27.5299L44.2253 29.2063C44.225 29.5237 44.2437 29.8558 44.21 30.1714C43.9466 32.6407 42.2624 34.272 40.0728 35.1891L39.0533 35.577C35.711 36.875 32.1727 37.5364 28.6053 37.802L27.3469 37.9055L24.341 37.914ZM23.6089 8.34768C23.0116 8.41232 22.38 8.49464 21.8575 8.8154C21.3928 9.10073 21.0903 9.61725 21.6215 10.0114C21.7669 10.1191 22.3618 10.0232 22.5779 10.0679L22.616 10.0754C22.7851 10.1106 22.9196 10.1725 23.0614 10.2694L23.0996 10.2952C24.0176 10.9253 23.0313 11.5541 22.5168 11.898L21.9494 12.317C19.5871 14.1757 18.8074 16.995 18.4703 19.8865L18.2868 22.16L18.2798 23.6388C18.2813 24.5559 18.3205 25.7812 18.4809 26.6545C18.5712 27.1458 18.7569 27.6093 18.8534 28.0948L18.986 28.6873C19.0661 29.1347 19.0949 29.5979 19.1383 30.0501L19.2905 31.6199C19.4367 31.6408 19.5773 31.636 19.7231 31.6481L24.2397 31.7636L28.6835 31.6532L29.692 24.8959C29.7246 24.7257 29.7216 24.5454 29.7285 24.3724L29.6542 21.0809C29.3919 17.8717 28.5533 14.174 25.8311 12.1347L25.154 11.6586C25.017 11.5629 24.8555 11.4655 24.751 11.3336C24.3351 10.8083 24.8109 10.2752 25.3211 10.0872C25.6103 9.98062 26.1865 10.1212 26.3496 10.0398C26.5346 9.94753 26.6657 9.57539 26.5927 9.38212L26.5525 9.28645C26.1831 8.42507 24.3667 8.3047 23.6089 8.34768ZM27.413 11.5897C27.6529 11.882 27.9387 12.1279 28.1807 12.4178C28.9638 13.3559 29.6453 14.5383 30.0148 15.7147L30.0482 15.7967C30.1808 16.1314 30.3148 16.5378 30.3845 16.8894L30.8826 19.243C30.9918 19.8934 31.0715 20.6018 31.1042 21.263L31.1317 22.3342C31.1376 24.0982 31.1983 26.0017 30.7174 27.7189C30.51 28.4591 30.3669 29.0468 30.2842 29.824L30.1373 31.4798C33.1461 31.2736 36.7334 30.3367 39.4128 29.0644C40.6299 28.4728 41.728 27.8418 42.7757 26.9796C42.4484 23.8443 41.6258 20.5688 39.7925 17.9551C37.3012 14.4037 33.2172 12.464 29.0221 11.7795L27.8437 11.6257C27.7172 11.6122 27.5584 11.5783 27.4325 11.5871L27.413 11.5897ZM20.2418 11.6342L18.79 11.8318C11.3033 13.1742 6.71961 17.5093 5.53869 24.8992L5.29058 26.8812L6.67133 27.8101C7.43263 28.2852 8.22908 28.7075 9.04264 29.0856C11.8213 30.3514 14.8051 31.0817 17.8295 31.4339L17.7843 30.7963C17.6709 29.4114 17.5153 28.7377 17.1905 27.4236C16.8619 26.0943 16.8707 24.6347 16.8733 23.2767L16.8864 21.3233C16.8953 21.1631 16.9291 21.0068 16.9439 20.8475C17.2196 17.8868 17.7383 15.008 19.6103 12.6175L20.5862 11.6184C20.5491 11.6199 20.2573 11.6218 20.2418 11.6342ZM5.18914 28.561C5.01894 30.8928 5.69174 32.7226 8.01641 33.5991L11.1567 34.7803C13.0147 35.465 15.0054 35.7696 16.9588 36.0345L21.2088 36.4097C21.4164 36.4192 21.6213 36.4541 21.8306 36.4607L26.5063 36.4577L28.4909 36.373L31.8796 35.9916L33.6684 35.6488C34.9832 35.3977 36.2773 35.0668 37.5434 34.6279L39.9262 33.6888C40.9515 33.224 41.8312 32.5319 42.3492 31.511C42.7738 30.6697 42.9159 29.7194 42.8079 28.7816L42.793 28.7614C39.738 31.1367 34.2027 32.4876 30.4799 32.9128L26.895 33.1842L21.8474 33.1952C21.3997 33.193 20.9331 33.2119 20.4888 33.155L17.5123 32.8494C13.7112 32.3183 9.98328 31.433 6.63435 29.475C6.15219 29.1932 5.62672 28.9083 5.18914 28.561Z" fill="black"/>
<path d="M24.0549 29.0007L24 28.965C23.9071 28.9747 23.8159 29.0497 23.7367 29.0987L22.297 29.9294C21.9736 30.1175 21.7334 30.3896 21.3164 30.2808C20.5535 30.0818 20.8313 29.3693 20.998 28.8413L21.4372 27.4091C21.3114 27.2948 21.2023 27.1562 21.0859 27.0319L20.479 26.4194C20.2679 26.2184 19.884 26.0624 19.781 25.7719L19.7175 25.5628C19.5813 24.8798 20.197 24.7286 20.6738 24.6464L22.0609 24.4155C22.161 24.3954 22.14 24.3945 22.1823 24.2991L23.016 22.5509C23.2595 22.0465 23.3503 21.5899 23.9802 21.498C24.5972 21.54 24.6758 22.0412 24.8833 22.5272L25.6627 24.2693C25.8496 24.6903 27.4029 24.3189 28.0527 24.894C28.324 25.1342 28.3889 25.5977 28.1819 25.8975C28.0454 26.0953 27.8186 26.2154 27.6415 26.3736C27.281 26.6955 26.9013 27.0444 26.5853 27.4095C26.6253 27.5987 26.6665 27.8088 26.7336 27.9892L27.1735 29.3487C27.2196 29.5145 27.2769 29.6246 27.2047 29.8055L27.1681 29.901C26.8361 30.7273 26.0807 30.1685 25.6598 29.9126C25.1409 29.5972 24.6044 29.2579 24.0549 29.0007ZM23.9303 24.0208L23.4586 25.0469C23.2595 25.444 23.0919 25.6168 22.6593 25.7661L22.0412 25.9524C22.3651 26.2422 22.8426 26.6457 22.8648 27.104C22.8752 27.3185 22.7731 27.8579 22.8122 28.0092C23.1892 27.7643 23.6434 27.3815 24.1226 27.4515C24.5339 27.526 24.8921 27.8122 25.2561 28.0118C25.168 27.612 25.0339 27.1146 25.2331 26.7331L25.2472 26.7042C25.4044 26.3913 25.7446 26.1465 25.9834 25.8956C24.1563 25.598 24.7027 25.2614 23.9303 24.0208Z" fill="black"/>
</svg>
