<svg width="48" height="48" viewBox="0 0 48 48" fill="none" xmlns="http://www.w3.org/2000/svg">
<path d="M25.4713 36.6382L22.9816 36.6824L20.7068 36.6336L18.5085 36.4796C14.6606 36.1921 8.63328 35.5767 5.41391 33.2763C4.15108 32.374 3.47321 31.5223 3.48153 29.9702L3.48325 24.5742C3.48219 24.2095 3.57487 23.895 3.26345 23.6711C1.75147 22.5843 1.10535 21.6263 0.814774 19.8585L0.785604 19.5595C0.773801 19.3326 0.807457 19.1132 0.844277 18.8902C1.68985 13.7691 11.488 12.2843 15.6136 11.7875L18.7037 11.4633L22.4195 11.3008L25.9259 11.3041L29.2253 11.4662L33.9478 11.9911C37.7568 12.5378 45.5638 14.0466 46.9703 18.1519C47.7254 20.3574 46.4641 22.6313 44.5522 23.7842C44.5221 23.8024 44.5322 24.2547 44.5322 24.3232L44.5331 29.9638C44.5329 30.1787 44.5528 30.4173 44.5094 30.6287C43.8527 33.8279 39.0037 35.0787 36.2354 35.6331L31.7849 36.295L27.751 36.6281L25.4713 36.6382ZM21.9713 12.6575L17.8439 12.9102C15.2314 13.1542 12.6328 13.4845 10.082 14.1176L8.18028 14.6272L6.6829 15.1753C4.79984 15.9241 2.09753 17.2693 2.12837 19.6476C2.13296 20.0016 2.22221 20.3661 2.3795 20.6835L2.49098 20.9175C3.87829 23.8286 10.259 25.0986 13.1965 25.5386L17.6308 26.0602L20.0225 26.2065C20.2048 26.2202 20.3841 26.2576 20.567 26.2643L26.0514 26.273L29.2352 26.1542C29.367 26.1464 29.4905 26.1143 29.6199 26.1031L30.9967 25.9923C33.0087 25.8109 35.0189 25.5645 36.9967 25.1489L38.1937 24.902C40.7771 24.3022 45.8863 22.7054 45.865 19.4314C45.841 15.7467 38.184 14.0036 35.0456 13.4904L29.9912 12.8563L26.649 12.6657L21.9713 12.6575ZM4.78119 24.5457L4.78081 29.113C4.78114 29.2491 4.76028 29.4204 4.7997 29.5512C6.24195 29.555 6.69181 29.6125 7.95608 28.9059L9.12101 28.2556C9.51814 28.034 9.88925 27.7138 10.289 28.1324C10.7902 28.6573 10.3072 28.9984 9.91465 29.2527L9.1474 29.7406C7.83397 30.5157 6.84594 31.059 5.22162 30.8947L4.99376 30.8686L5.07041 31.0429C6.11028 33.0793 10.8064 34.139 12.9498 34.4908L14.5738 34.7199C16.4361 34.9862 18.2083 35.0386 20.044 35.2382L27.5982 35.2714C27.848 35.2629 28.0902 35.21 28.3388 35.1972L29.5528 35.1519L35.061 34.4901C36.7179 34.2298 38.3719 33.7934 39.935 33.1872C41.1571 32.6866 42.5725 31.9589 43.1165 30.6733L43.1127 30.6181C42.669 30.5445 41.1806 30.167 40.8909 29.7785C40.6312 29.4302 40.7491 28.8651 41.2154 28.7765L41.247 28.7701C41.3265 28.755 41.3883 28.759 41.4674 28.7714L41.4987 28.776C41.7163 28.81 41.9133 28.9281 42.1211 28.9961L43.2246 29.3085L43.2319 26.2924C43.2316 25.7207 43.2721 25.1102 43.2024 24.5432C42.5383 24.8946 41.8674 25.2034 41.1568 25.4516L39.3664 25.9834C36.842 26.6737 34.2588 27.0303 31.66 27.2926L27.8192 27.556C27.5417 27.5684 27.2688 27.619 26.9898 27.6281L21.2472 27.6281L14.9644 27.1519C11.8087 26.7821 8.56081 26.232 5.62705 24.9586C5.34884 24.8378 5.03487 24.7113 4.78119 24.5457Z" fill="black"/>
<path d="M24.0343 22.8059L22.4464 23.705C22.2153 23.8339 21.9251 24.0894 21.6382 24.0352L21.6095 24.0292C20.9148 23.903 21.0825 23.1483 21.1708 22.6405L21.4147 21.3291C21.4632 21.0456 21.5103 21.1067 21.2921 20.9024C20.4875 20.1491 18.2241 18.7564 20.6751 18.2655L22.3803 17.9729C22.4969 17.7971 22.5793 17.5756 22.6688 17.3835L23.3936 15.8273C23.5245 15.5759 23.6842 15.4844 23.9447 15.4015C24.4792 15.3658 24.5717 15.7923 24.7623 16.196L25.4193 17.5906C25.6661 18.0709 25.4304 17.9659 25.9926 18.0518L27.2879 18.2694C27.8281 18.3729 28.7081 18.5863 28.3272 19.3573L28.3144 19.3826C28.2209 19.5761 28.0307 19.7274 27.877 19.874L26.9598 20.7022C26.8469 20.7964 26.596 20.944 26.5364 21.0701C26.6715 21.5399 26.715 22.0497 26.808 22.5307L26.9142 23.0573C26.9624 23.303 26.9797 23.4631 26.841 23.6962C26.4291 24.3883 25.8286 23.877 25.4 23.6177L24.0343 22.8059ZM24.021 17.7036C23.8369 18.0352 23.4466 19.1064 23.1043 19.2124L21.7152 19.5L21.8327 19.6212C22.1398 19.9355 22.6288 20.1929 22.7981 20.6131L22.8145 20.6439C22.981 21.0025 22.7424 21.6554 22.694 22.0251L23.349 21.6463C23.5972 21.5069 23.837 21.3626 24.1318 21.3818L24.1536 21.3863C24.4018 21.4411 24.5797 21.5942 24.789 21.728L25.3922 22.0874L25.3009 21.55C25.0206 20.1728 25.3946 20.3809 26.3305 19.5055C26.0221 19.4188 25.0159 19.331 24.8222 19.1918C24.5339 18.9846 24.1372 18.1027 24.021 17.7036Z" fill="black"/>
<path d="M18.0119 32.8057C17.6765 32.8246 17.3516 32.7677 17.0193 32.7318L13.906 32.2512C13.4995 32.1716 13.0627 32.1066 12.6685 31.9804C12.0957 31.7971 12.1688 31.1012 12.6666 30.8921C12.906 30.8789 13.1069 30.9566 13.3358 31.0146L15.8033 31.4904L17.3712 31.6757C17.8851 31.7251 18.2966 31.6511 18.4016 32.2772C18.4167 32.367 18.3526 32.5047 18.2975 32.578L18.2791 32.6015C18.2044 32.6981 18.1159 32.7466 18.0119 32.8057Z" fill="black"/>
</svg>
