<svg width="48" height="48" viewBox="0 0 48 48" fill="none" xmlns="http://www.w3.org/2000/svg">
<path d="M24.6385 41.1925C24.0615 41.238 23.4657 41.2459 22.888 41.2201L22.107 41.165C21.6118 41.1475 21.112 41.1727 20.618 41.1317C19.3462 41.0263 18.1009 40.7876 16.8507 40.5454L15.2325 40.1908C13.9994 39.8923 12.7274 39.4804 12.8 37.888C12.819 37.472 12.978 37.0687 13.1092 36.6782L15.7714 27.7847C16.0626 26.8095 16.4654 25.637 16.213 24.6011L15.9633 23.5005L12.0668 29.0972L7.72598 35.6995C7.62825 35.8569 7.55029 36.0349 7.42926 36.1762C6.51454 37.2443 5.46112 36.481 4.59424 35.9634L3.60547 35.3712C2.66554 34.8203 1.63104 34.1202 2.15125 32.8704C2.29577 32.5232 2.55443 32.2118 2.75139 31.8903L5.88801 26.9223L8.50444 22.5163L10.4892 18.6797L12.4328 14.4212C12.5006 14.2702 12.5674 14.1004 12.6816 13.978C12.8242 13.8251 12.5681 12.2209 14.0387 11.6066C14.3055 11.4952 14.5966 11.4335 14.871 11.3423L16.1139 10.8879C16.5945 10.6972 16.6375 10.7519 16.8252 10.2652L17.2331 9.08509C17.3524 8.69265 17.3814 8.40165 17.6766 8.08909C18.7068 6.99807 21.7277 6.84939 23.1668 6.80748C24.6638 6.7704 26.1253 6.81667 27.6093 7.02943C29.1424 7.24918 30.652 7.50428 31.1443 9.16014C31.266 9.56917 31.2244 10.0461 31.3135 10.4644C31.3837 10.7939 31.6276 10.8089 31.9035 10.914L33.1405 11.364C33.5125 11.4902 33.9632 11.6002 34.2966 11.8058C35.3778 12.4728 35.1931 13.0412 35.5459 13.9705L36.8565 17.3555C36.9346 17.5105 36.9919 17.6779 37.066 17.8355L38.736 21.1907L42.6955 27.9635L45.3149 32.0718C45.718 32.6741 46.1029 33.1654 45.9365 33.9253C45.7012 35.0003 44.5227 35.3582 43.6568 35.8022C42.7651 36.2595 41.6149 37.0417 40.6972 36.0808C40.4315 35.8026 40.2323 35.4394 40.0087 35.1256L33.2748 25.6966L31.9869 23.6383C31.7202 24.5382 31.536 25.7035 31.7814 26.6363C31.8796 27.0094 32.0425 27.3665 32.1391 27.7397L32.2599 28.1166C32.3737 28.4295 32.4324 28.7687 32.5465 29.0803L34.5746 35.6245C34.7964 36.508 35.4324 37.6828 35.1247 38.5696L35.1135 38.6011C34.7866 39.5449 34.0693 39.9326 33.171 40.1342L30.1374 40.7485C29.1133 40.9138 28.0884 41.0068 27.0554 41.0849L26.5671 41.1391C25.9265 41.1834 25.2807 41.1406 24.6385 41.1925ZM23.2567 8.23229L20.9865 8.46517L19.9465 8.67611C21.2112 9.25079 22.8964 9.58215 24.2929 9.43961L24.8393 9.36207L28.2421 8.66715C27.3213 8.35431 25.7624 8.23257 24.7733 8.23136L23.2567 8.23229ZM18.648 9.45226L18.2435 10.4899C17.568 12.2449 16.7033 12.1728 15.0594 12.7377C14.2454 13.0174 13.7793 13.2209 14.1344 14.3243C14.2704 14.747 14.4834 15.1317 14.6533 15.5384L15.1899 16.7339L16.6434 20.9409L17.0975 22.508C17.2206 22.8514 17.2756 23.2363 17.3554 23.591C17.7302 25.2577 17.616 26.3133 17.1556 27.9136L14.2056 37.7594C13.8772 38.7693 15.5319 38.7977 16.1352 38.9758L19.8983 39.6566C20.3378 39.7034 20.7636 39.7579 21.2057 39.7648L22.7131 39.7717C22.9218 39.7727 23.1513 39.8083 23.356 39.7827L23.357 10.7629C21.9642 10.714 19.8356 10.2746 18.648 9.45226ZM29.6682 9.82834L25.193 10.7395C25.0455 10.7672 24.8903 10.7773 24.7477 10.823L24.7442 18.3007C24.7472 18.641 24.811 18.9857 24.8126 19.3413L24.815 39.4476C24.813 39.5446 24.7922 39.6795 24.8319 39.7684L25.9422 39.7408C27.2564 39.6538 28.5847 39.5589 29.8873 39.3608L31.7469 39.0051L33.3134 38.6244C33.5313 38.5521 33.6982 38.3792 33.7959 38.1759L33.8516 38.0556C33.8858 37.942 33.8003 37.685 33.7677 37.5699L30.6804 27.5386C30.4744 26.8068 30.2629 25.6387 30.4394 24.8697C30.5139 24.545 30.5152 24.2006 30.5997 23.8742C30.7172 23.4205 30.8968 22.9743 31.0436 22.5287L31.348 21.4274C31.7339 19.9298 32.0803 18.4152 32.6017 16.9564L33.9056 13.8626C34.2132 13.1514 33.319 12.8883 32.8869 12.7338L31.5884 12.2597C30.4892 11.8665 30.0019 11.6172 29.8876 10.3074C29.8638 10.0344 29.9409 9.79825 29.6682 9.82834ZM34.6691 15.6408C33.8773 17.1804 33.4537 19.2084 32.9507 20.8644L32.7204 21.6089C32.6878 21.7183 32.6687 21.83 32.6278 21.937L34.4598 24.9552L41.5664 34.9661C41.7943 35.2647 42.1227 35.0216 42.3907 34.881L43.6522 34.2207C43.9356 34.0698 44.7498 33.8243 44.5151 33.3918C44.292 32.9806 44.0027 32.5926 43.7474 32.1996L40.3131 26.7066C38.6669 23.9736 37.1187 21.2146 35.7858 18.314L34.8584 16.1072C34.8014 15.9528 34.7099 15.7985 34.6691 15.6408ZM13.261 15.9019L12.4055 17.817L9.06183 24.2925L6.77733 28.1011L3.56987 33.1466C3.19074 33.7736 3.90301 33.9408 4.40615 34.2427L5.8147 35.0864C5.98111 35.1773 6.13617 35.2491 6.31819 35.303L8.42423 32.0752L15.2688 22.13C15.4801 21.8502 15.4963 21.8783 15.4043 21.5522L15.1254 20.6882C14.6665 19.297 14.232 17.8962 13.6109 16.566C13.5102 16.3505 13.4271 16.1023 13.2935 15.9064L13.261 15.9019Z" fill="black"/>
</svg>
