<svg width="48" height="48" viewBox="0 0 48 48" fill="none" xmlns="http://www.w3.org/2000/svg">
<path d="M22.3365 39.4665C19.7713 38.6375 17.4552 37.1753 14.8311 36.5008C12.449 35.8884 10.0937 36.0951 7.71631 36.6133C6.80989 36.8109 5.39018 36.6029 5.17596 35.5021L5.17043 35.4724C4.94881 34.3639 5.72618 33.3849 6.36448 32.5635L9.6125 28.7058C9.70929 28.5847 9.99931 28.3114 10.0021 28.1795L10.022 24.6896C10.0322 24.4833 10.0889 24.2866 10.1057 24.0814C10.2422 22.4127 10.4739 21.015 10.9803 19.3935C12.6064 14.1876 16.5749 12.2335 21.7149 11.2467L22.7652 11.0446C23.0352 10.9918 23.3208 10.9259 23.5958 10.9105L23.6481 10.7693C23.7573 9.57985 24.6553 8.67249 25.8489 8.54007C26.0625 8.51377 26.3218 8.51799 26.5354 8.54565L26.5782 8.55174C27.518 8.67882 28.2466 9.35091 28.5947 10.2185C28.7143 10.5167 28.6886 10.8534 28.7176 11.1701C29.2647 11.2398 29.814 11.3836 30.3493 11.5157C33.5281 12.3001 36.6424 13.3404 38.903 15.8692C39.8903 16.9736 41.0187 18.6964 41.5427 20.0802L42.0464 21.3747C42.4659 22.5865 42.8262 24.2698 42.8421 25.5688C42.8483 26.0769 42.8178 26.5808 42.9319 27.0805C42.9815 27.2975 43.1749 27.6171 42.8923 27.7395L42.8505 27.757C42.8039 27.8566 42.8202 27.9896 42.8191 28.0979L42.8441 29.2628C42.8405 31.0002 41.2443 31.26 39.8647 31.5145L35.8932 32.127C35.7943 32.3795 35.6455 32.6005 35.4995 32.8277L34.8152 33.8354C31.5697 38.4722 28.0898 41.2236 22.3365 39.4665ZM26.0629 10.13C25.687 10.2141 25.3417 10.3962 25.2732 10.8044C25.406 10.8955 26.1043 10.8303 26.2999 10.8453C26.526 10.8541 26.8185 10.8967 27.0352 10.8488C27.1337 10.3555 26.4627 10.1077 26.0629 10.13ZM24.5362 12.4503C19.6714 12.8551 17.2042 17.5762 16.6513 21.9372C16.5674 22.599 16.4909 23.2664 16.4626 23.934L16.4517 27.9618L26.2149 27.9578L33.6158 27.9596C33.8189 27.9597 34.0724 27.9911 34.2665 27.9504L34.2632 24.947C34.262 24.4329 34.2833 23.9062 34.2524 23.3934L34.1522 22.4638C33.9247 20.218 33.4587 17.9743 32.3036 16.0045C31.2442 14.1984 29.4667 12.7186 27.3298 12.4796C26.9462 12.4367 26.5544 12.4487 26.1689 12.4488L24.5362 12.4503ZM18.3708 13.863C13.3004 15.5415 11.7801 20.0412 11.7851 24.8859L11.7874 27.1029C11.7848 27.2278 11.7603 27.3502 11.757 27.4741L12.1121 27.5588L14.8204 27.8791L14.8337 24.5505C14.8988 21.3217 15.6721 17.5029 17.6094 14.8753L18.1151 14.2454C18.2066 14.1354 18.3328 14.0097 18.391 13.8793L18.3708 13.863ZM32.7796 13.8958C33.6912 14.8389 34.512 16.6789 34.8922 17.9529L35.4852 20.3435C35.8171 21.956 35.8704 23.6319 35.871 25.2721L35.8668 27.6827C37.4673 27.6101 39.048 27.3226 40.6134 26.9932L41.3012 26.7889C41.2571 26.4172 41.2716 26.0506 41.2516 25.6784C41.1008 22.8699 40.1159 20.2613 38.5082 17.9529C37.306 16.2268 35.7198 15.1039 33.7801 14.2818C33.4511 14.1424 33.1045 14.0417 32.7796 13.8958ZM41.1958 28.5304L37.0313 29.2211C36.8239 29.251 35.9663 29.2522 35.8679 29.2959L35.8477 30.4847L35.9415 30.4939C36.6376 30.4304 40.9082 29.8595 41.2094 29.4772C41.2999 29.3623 41.2601 28.6886 41.2436 28.528L41.1958 28.5304ZM11.6686 29.0724L11.7676 29.8122C11.7844 29.9467 11.7878 30.0831 11.8252 30.2138C12.0962 30.2599 12.4014 30.2336 12.6765 30.2339L17.7477 30.2375L21.0277 30.401L28.3811 31.0314L31.0639 31.1455C32.1116 31.1894 33.1678 31.2606 34.2168 31.2287L34.2162 31.206L34.2427 29.5646L15.4437 29.5121L14.5563 29.4455C13.7295 29.3879 12.459 29.3278 11.6686 29.0724ZM10.1971 30.5271C10.0328 30.6934 9.90035 30.8913 9.74417 31.0661L7.8687 33.2819C7.69775 33.4976 6.54026 34.8891 6.83276 35.0447C7.10328 35.1886 8.1815 34.86 8.48445 34.8038L10.3163 34.5309C12.4923 34.3015 14.7893 34.6794 16.8282 35.4404L19.8605 36.7242C22.3905 37.8611 25.1389 39.0145 27.9248 37.9867L28.7999 37.5921C29.9703 36.972 31.0018 36.0805 31.8686 35.0844L32.7469 33.9702C32.9756 33.6681 33.273 33.3388 33.4411 33.0027L33.5575 32.8202C33.368 32.7674 33.0884 32.7999 32.8886 32.7992L31.254 32.7935C30.9641 32.7886 30.6748 32.7441 30.3847 32.7308L29.1094 32.6983L25.1706 32.4031L21.4567 32.0648L17.9254 31.8587L11.9199 31.8489C11.2699 31.8473 10.5525 31.8021 10.3351 30.9958L10.1971 30.5271Z" fill="black"/>
<path d="M21.9922 27.2274C21.496 27.0834 20.5996 28.1176 19.8664 27.6546C19.1097 27.1769 19.4127 26.4291 19.5032 25.6852C19.5343 25.4296 19.5473 25.47 19.36 25.2898L18.8569 24.7974C18.6342 24.5763 18.3964 24.3614 18.335 24.0369C18.2331 23.4977 18.6109 23.0756 19.119 22.9832L20.2913 22.7548L21.0296 21.2894C21.1875 21.0221 21.3799 20.8908 21.6777 20.8146C22.4735 20.7818 22.691 21.492 22.9801 22.1068C23.1919 22.5574 23.1246 22.6982 23.6692 22.8093L24.6161 23.0127C24.8704 23.078 25.082 23.1556 25.2198 23.3932L25.2942 23.5281C25.3876 23.7373 25.4132 23.9278 25.3251 24.1439L25.312 24.1755C25.2087 24.43 24.9654 24.6415 24.7706 24.8287L24.166 25.3895C24.0786 25.966 24.3631 26.5336 24.2329 27.1147C24.1604 27.4382 23.5864 27.8691 23.2454 27.7817L23.2144 27.7729C22.8011 27.6587 22.3857 27.4034 21.9922 27.2274ZM21.795 23.3786C21.3057 24.0546 21.4497 24.0677 20.5204 24.2363C20.8475 24.5524 21.114 24.8666 21.1193 25.3438L21.1179 25.8071C21.3515 25.7179 21.5821 25.5944 21.8293 25.5523L22.0444 25.5925C22.2146 25.6239 22.3765 25.7031 22.5405 25.7577L22.5367 25.7299C22.4985 25.422 22.4653 24.9902 22.668 24.7352L23.0954 24.2464C22.8364 24.1874 22.5134 24.1602 22.2814 24.0309L22.2567 24.0175C22.0784 23.9155 21.9178 23.3844 21.795 23.3786Z" fill="black"/>
</svg>
