<svg width="48" height="48" viewBox="0 0 48 48" fill="none" xmlns="http://www.w3.org/2000/svg">
<path d="M42.4596 16.5573C43.6509 17.7599 44.6592 19.0026 45.3427 20.5763L45.6567 21.4104C45.9563 22.179 46.1917 23.134 46.2271 23.9599L46.2337 29.5349C46.2326 29.6112 46.2423 29.7221 46.2198 29.7952C45.9426 30.6949 44.1851 30.5731 43.5384 30.5788C41.8255 30.594 40.1753 30.898 38.5544 31.4491L30.3593 34.8845C24.4435 37.447 21.0603 38.2077 14.8494 35.8883L10.6211 34.1645C10.4257 34.0924 9.29255 33.6415 9.13294 33.67C9.06282 33.6825 8.95444 33.7496 8.88741 33.7801L8.07113 34.1652C6.9234 34.6857 5.74158 35.0461 4.47671 35.0455C3.57635 35.0451 2.45619 34.9203 2.12876 33.9063C1.86405 33.0865 2.2398 32.6471 2.87334 32.2407L3.48227 31.8653C5.94671 30.4092 9.60038 28.8804 12.3083 27.971L12.9565 22.4121C13.8423 17.2386 18.4518 12.5566 23.5342 11.4659C24.3781 11.2848 26.1399 11.0256 27.0144 11.1868L27.1501 11.0544C27.4214 10.7339 27.6446 10.7071 28.0453 10.699L29.457 10.6932C29.6206 10.6935 29.8945 10.6629 30.0449 10.722L30.07 10.7325C30.2921 10.8194 30.4443 10.9247 30.5507 11.1452L30.5616 11.1682C30.6324 11.3036 30.6497 11.4428 30.6665 11.5921L34.6872 12.3946C35.3714 12.5577 38.7232 13.4396 39.0729 14.0179L39.0925 14.051C39.2816 14.363 39.1793 14.832 38.8618 15.0199C38.4743 15.2492 38.0663 15.0087 37.6981 14.8644L36.7579 14.5212C35.3783 14.0629 33.9745 13.7183 32.5551 13.4117L29.602 12.8588C29.3286 12.821 29.0456 12.8026 28.7768 12.7403L31.3328 14.957C33.1811 16.6542 35.5071 18.9202 36.4813 21.2929L36.956 22.7256C37.06 23.0301 37.0718 23.356 37.1105 23.6719C37.2727 24.9963 35.849 24.941 35.7178 24.1281L35.5841 23.1874C35.231 21.6472 34.3299 20.2215 33.3175 19.0278L32.5532 18.1938C31.4476 16.9911 30.2469 15.8892 28.9989 14.8372C28.4557 14.3792 27.9273 13.8379 27.3237 13.4587L24.8416 26.371C25.2569 26.2025 25.7942 26.135 26.238 26.0616L28.49 25.7984L31.5136 25.791C31.7427 25.8011 31.9696 25.8399 32.1982 25.8569L35.4657 26.0937L38.8517 26.4663C40.8461 26.7072 42.8441 26.9985 44.8049 27.4414C44.8749 26.4044 44.8552 24.5837 44.7208 23.5926C44.4403 21.5227 43.3076 19.5101 41.8868 18.0191C41.6837 17.806 41.434 17.6039 41.2593 17.3692C40.9034 16.8909 41.3066 16.0897 41.9336 16.2081L41.9645 16.2143C42.1613 16.2517 42.3176 16.4265 42.4596 16.5573ZM25.6108 12.6667C25.0714 12.7112 24.5261 12.7587 23.9951 12.8662C19.3271 13.8117 15.3336 17.8622 14.413 22.5338C14.2476 23.3732 14.2896 24.2346 14.1749 25.0834C14.6288 25.2467 15.7052 25.6004 16.1539 25.6905C17.7336 26.2378 19.892 26.7451 21.508 27.0337C22.0946 27.1385 22.6194 27.2881 23.2055 27.1189L26.0463 12.658L25.6108 12.6667ZM13.9563 26.5468L13.8428 27.4205C13.8211 27.5633 13.7185 27.8405 13.7625 27.9712L16.7322 29.0354C21.3679 30.6231 22.8093 30.5243 27.4316 29.6537L30.3998 29.1844L35.3035 28.7213L38.9186 28.7176C39.2062 28.7249 39.4844 28.7807 39.771 28.7905L42.8961 28.9104L44.4268 29.0799L44.7419 29.1109C44.7677 29.0663 44.7648 29.0337 44.7516 28.9846L44.7301 28.9287C41.867 28.2713 38.9626 27.9442 36.0466 27.6363L33.3512 27.3808C32.8851 27.3387 32.3172 27.2856 31.8509 27.2665L30.8281 27.251C29.2157 27.2461 25.7677 27.2683 24.4252 28.0723C23.4422 28.6609 23.3512 28.7589 22.0778 28.5978L20.5672 28.3354L16.3097 27.2397C15.5242 27.0158 14.7264 26.8208 13.9563 26.5468ZM13.0468 29.301C11.4079 29.7527 9.25102 30.6422 7.73119 31.3998C7.56816 31.4811 7.33079 31.5649 7.19312 31.6783C9.27005 31.9699 11.9092 33.0208 13.802 33.8642C19.3594 36.3402 22.484 36.4341 28.195 34.2163L30.9056 33.0766L37.2184 30.3756C37.429 30.2987 37.6474 30.2618 37.858 30.1925L34.869 30.2052C34.6933 30.2144 34.5211 30.2463 34.3461 30.2591L29.8708 30.7646L26.9967 31.2337C25.4565 31.509 22.8857 31.96 21.3206 31.718L20.2025 31.5555C19.0406 31.3314 17.8662 30.9659 16.7462 30.5885L14.0761 29.6484C13.924 29.5939 13.1596 29.2754 13.0468 29.301ZM5.28427 33.075C4.69416 33.1263 4.18324 33.2022 3.64248 33.4572L3.62881 33.4924C3.90664 33.7178 4.84712 33.6095 5.17688 33.58C5.77796 33.4939 6.26846 33.2828 6.83208 33.0993L5.71566 33.0704C5.57593 33.0711 5.42119 33.0575 5.28427 33.075Z" fill="black"/>
</svg>
