<svg width="48" height="48" viewBox="0 0 48 48" fill="none" xmlns="http://www.w3.org/2000/svg">
<path d="M31.113 43.4298L25.4572 43.8852C24.9748 43.923 24.3905 44.021 23.9117 43.9193C23.5105 43.8341 23.0842 43.859 22.6761 43.8566L19.6796 43.7657C18.3791 43.6959 16.816 43.5303 15.5578 43.2859C14.3005 43.0416 13.1812 42.6594 12.4371 41.5451C11.7311 40.4877 11.955 39.3817 12.1929 38.2309L12.4662 36.8526C11.9435 36.6642 11.3921 36.5393 10.8568 36.3901L7.76361 35.5182C7.34488 35.3976 6.87627 35.3162 6.47642 35.1509C5.77152 34.8594 6.03692 33.7493 6.8083 33.8684C7.13319 33.9186 7.46863 34.0432 7.78095 34.146L12.7432 35.5842L12.9554 34.5647L8.54469 33.269C7.96381 33.0957 7.30817 32.957 6.7723 32.6687C5.85866 32.1771 5.3427 31.2394 5.45717 30.2112C5.50991 29.7376 5.74147 29.2394 5.88266 28.782L11.566 10.3716C11.7715 9.68674 11.5926 9.08895 11.9548 8.31724C12.6041 6.93415 13.9078 6.29093 15.3658 6.19568L15.9755 6.13277C16.1386 6.11477 16.1532 6.14524 16.2656 6.02932L17.6298 4.74485C17.9212 4.46589 18.2187 4.06593 18.6174 3.94054C19.2321 3.91329 19.4168 4.57337 19.6636 5.0216L20.567 6.61198C21.4808 6.48129 22.3979 6.35613 23.321 6.31179L27.506 6.38768C27.5773 6.39251 27.644 6.1781 27.6781 6.11745L28.4793 4.74879C28.6873 4.37325 28.9631 3.64744 29.6 4.06518C29.9027 4.26367 30.1612 4.54514 30.4333 4.78278L31.5955 5.78337C31.8311 6.0034 31.7566 6.11135 32.0946 6.11702L32.5661 6.13756C34.0468 6.25287 35.293 6.85062 35.9994 8.23854L36.1078 8.48285C36.2755 8.93365 36.2816 9.35407 36.3748 9.80885C36.4473 10.1624 36.5525 10.5601 36.669 10.9032L37.0175 12.0858C37.0457 12.2301 37.1047 12.4242 37.1557 12.5631L40.1982 22.5471C40.3062 22.9847 40.5444 23.725 40.7015 24.1432L42.0745 28.5823C42.2654 29.3543 42.7741 30.2232 42.6027 31.0447L42.5926 31.0901C42.2771 32.6283 40.8011 32.8677 39.5456 33.2842L36.734 34.1813C36.1843 34.3502 35.6444 34.5396 35.0842 34.6728L35.2864 35.6827L39.2074 34.5559C39.7444 34.3991 41.0711 33.728 41.441 34.4492L41.4547 34.4771C41.7771 35.1194 41.0791 35.4212 40.5815 35.5534L35.8135 36.9175C35.7355 36.9397 35.6311 36.9566 35.5669 37.0054L36.0202 39.0851C36.3028 40.0624 35.9156 41.213 35.2859 41.9651C34.2472 43.2058 32.6015 43.292 31.113 43.4298ZM18.508 5.68385L17.1589 7.03667C17.2104 7.20799 17.2215 7.39057 17.2872 7.5567C17.6739 8.53549 18.4743 9.77792 19.2888 10.4756C20.1084 11.1776 19.6335 11.6203 18.8132 12.0098C17.9454 12.4218 18.3888 12.8309 18.8459 13.3686L21.3031 16.2932C22.2979 17.4958 23.4186 18.8578 23.8344 20.3792L23.9162 20.6143C23.9373 20.6914 23.9765 20.7606 24.0114 20.8323L24.0458 20.8245C24.6849 18.6589 26.1981 16.6262 27.5249 14.838C28.0701 14.1033 28.6804 13.3843 29.0764 12.554C29.4736 11.7214 28.3669 11.9477 28.3836 10.9865L28.3893 10.9584C28.4637 10.6027 28.7565 10.4067 28.9953 10.1568L29.4205 9.67502C29.8512 9.15767 30.968 7.67782 30.8572 6.94652C30.6349 6.63049 29.7727 5.88598 29.4308 5.66145C28.7092 7.08785 27.8595 8.00698 27.0729 9.28779C26.496 10.2271 26.1444 11.2105 25.7891 12.2479L24.6942 15.5653C24.6121 15.8199 24.6086 16.0569 24.4347 16.2791C24.1036 16.7022 23.3869 16.6243 23.2341 16.071L23.2236 16.0315C23.1077 15.6142 23.0456 15.182 22.943 14.7613L22.1553 12.0665C21.4947 10.0911 20.9866 9.58713 19.871 7.88098L18.508 5.68385ZM15.8327 7.48746C14.7191 7.56917 13.2163 7.88009 13.0083 9.22582C12.9501 9.60181 13.0131 9.96818 12.9156 10.3449C12.8465 10.6122 12.7404 10.8717 12.6601 11.1356L7.18733 28.9195C7.01844 29.4621 6.57519 30.3327 6.80075 30.8909L6.81238 30.9207C6.93392 31.2222 7.17406 31.4449 7.47341 31.566L13.2549 33.3208C13.4334 32.214 13.721 31.1118 13.9793 30.0208L14.4924 27.6944C15.1396 24.8107 15.4647 22.6732 15.043 19.6466C14.9774 19.1759 14.9072 18.3411 15.6616 18.4354L15.806 18.4691C16.3384 18.6094 16.2815 19.2556 16.3224 19.6826L16.4711 21.5789L16.4769 23.0502C16.4753 23.9018 16.3982 24.682 16.2474 25.5237L15.6219 28.5822L13.3496 38.95C12.9418 40.9617 13.8517 41.6253 15.7497 41.9988C16.9843 42.2417 18.2481 42.3303 19.502 42.4025L21.5461 42.5165C22.1163 42.5391 22.694 42.4951 23.2621 42.5484L23.2743 25.1187C23.2738 24.419 23.323 23.6879 23.2533 22.9936C23.0137 20.6079 21.331 18.3366 19.8425 16.5746L17.9984 14.4154C17.6846 14.0448 17.3297 13.6917 17.1474 13.232C16.803 12.3636 17.0842 11.3957 17.8989 10.9338C16.9863 9.77787 16.2759 8.93229 15.9334 7.48188C15.913 7.4824 15.8502 7.47931 15.8327 7.48746ZM32.1306 7.49463C31.6138 8.97378 31.1159 9.82629 29.9963 11.0116L30.0102 11.0262C30.2048 11.2362 30.319 11.5466 30.3934 11.8195L30.4012 11.8466C30.711 12.9506 29.7278 14.0839 29.1096 14.8961L28.2733 16.0242C26.8085 18.0001 25.447 20.0766 24.8444 22.4885C24.7861 22.7219 24.7285 22.9508 24.7257 23.1917L24.7229 42.2025C24.7204 42.3253 24.6965 42.4535 24.7294 42.5732C25.1535 42.6001 25.5732 42.5366 25.994 42.5101L31.406 42.0243C31.9633 41.9735 32.5176 41.9486 33.0612 41.8011C34.0302 41.5383 34.938 40.5911 34.7973 39.5301C34.7429 39.1197 34.6031 38.7105 34.5188 38.3041L32.1848 27.8033C31.9514 26.5545 31.6399 25.3162 31.5322 24.0471C31.4137 22.649 31.6083 20.4876 31.9698 19.1861C32.2996 17.9984 33.2148 18.3147 33.2867 18.9266C33.3315 19.3078 33.16 19.68 33.0967 20.051L32.9221 21.1805C32.7653 22.3027 32.7687 23.4869 32.8923 24.6138L32.9964 25.3018C33.0554 25.6807 33.1535 26.0628 33.2352 26.4378L34.6052 32.8223C34.6526 33.0026 34.6877 33.1894 34.7509 33.3643L40.3542 31.6204C40.9463 31.4079 41.5354 31.1457 41.3024 30.3518L37.625 18.6055L35.1988 10.4299C34.8914 9.22287 35.1615 8.52978 33.8353 7.78263C33.3055 7.48409 32.717 7.49848 32.1306 7.49463ZM23.0895 7.66695L21.3965 7.79642C21.7999 8.4379 22.2599 9.02745 22.609 9.70554C23.0267 10.517 23.2608 11.3863 23.5798 12.2346C23.7482 12.6824 23.8033 13.1604 23.9668 13.6043L24.2102 12.8389L24.8924 10.8763C25.2614 9.86759 25.6847 8.98648 26.2919 8.0951L26.5942 7.68363C26.479 7.64885 26.3242 7.66465 26.2028 7.66423L23.0895 7.66695Z" fill="black"/>
</svg>
