<svg width="48" height="48" viewBox="0 0 48 48" fill="none" xmlns="http://www.w3.org/2000/svg">
<path d="M21.3866 44.723C16.9765 44.7292 13.5921 43.4869 9.46136 42.0617L3.33327 39.8037C3.00823 39.6773 2.66286 39.5633 2.34769 39.4169C2.16823 39.3336 2.02862 39.1833 1.85255 39.1029C1.48775 38.9364 1.35093 39.0726 1.12996 38.5257L1.07206 38.3694C0.827106 37.554 1.60313 36.9053 2.08087 36.3699L9.76563 27.7401C9.93236 27.5599 10.1491 27.3729 10.2716 27.1605L10.2664 27.1159C10.1996 26.5133 10.2457 25.8642 10.2464 25.2569L10.2521 21.8844C10.2567 21.7025 10.298 21.5271 10.3033 21.3459L10.3202 19.6199C10.3555 18.3559 10.5225 16.4935 10.8339 15.3218C12.1208 10.4794 17.1541 7.45697 21.7371 6.20054C22.3491 6.03272 22.9749 5.82202 23.6018 5.72475C23.8676 5.68355 23.8704 5.74336 23.9229 5.493C24.1833 4.25058 25.1221 3.33988 26.4069 3.19671C28.2353 2.97848 29.6737 4.28234 29.7211 6.08902L32.0352 6.90854C35.3147 8.29847 40.7569 11.2863 42.3457 14.5559C42.6592 15.2011 42.5044 15.2231 43.0898 15.6167C44.3341 16.4535 45.3184 17.8627 45.8571 19.2406L46.142 20.0189C46.623 21.1881 46.7489 22.8369 46.7512 24.1033L46.7514 26.6131C46.7506 26.9655 46.7064 27.2801 46.6007 27.6192C45.9304 29.7698 44.5009 29.8366 42.6507 30.2103L38.1846 31.2446C38.0719 31.2726 38.1408 31.7543 38.123 31.8754C38.0271 32.5297 37.459 33.2148 37.0729 33.7209L33.3903 38.1467L32.2232 39.3631C29.3598 42.3693 25.6323 44.6203 21.3866 44.723ZM26.697 4.62684C26.3032 4.67185 25.8886 4.80258 25.6266 5.12302L25.4575 5.38304L27.2728 5.568L28.2866 5.76216C28.2412 5.61535 28.2016 5.4885 28.1132 5.36119L28.0863 5.32196C27.7964 4.90336 27.2214 4.57461 26.697 4.62684ZM25.7175 6.86344L23.7824 8.50243C21.9642 10.1691 20.9133 12.0184 20.0862 14.2879L20.13 14.2848C22.7792 14.112 24.8593 15.6769 25.7974 18.0538L26.0005 18.824C26.0734 19.0816 26.0958 19.3956 26.1278 19.6666L32.1239 16.1403C33.7161 15.3875 35.4108 14.5504 37.2117 14.5568L39.3866 14.655C39.9123 14.6952 40.433 14.8468 40.9053 14.8851C38.7936 11.491 32.1356 8.13136 28.4898 7.28597L25.7175 6.86344ZM22.6691 7.46522C19.3771 8.22282 15.0678 10.4312 13.2635 13.3201C12.8073 14.0506 12.496 14.8778 12.2282 15.6919L13.5094 16.5682L15.2521 17.8557C15.8484 16.49 16.8773 15.2835 18.2954 14.7335L18.4569 14.6395C18.5389 14.2114 18.7139 13.7903 18.8632 13.3821C19.7453 10.9693 20.9183 9.27136 22.6894 7.49011L22.6691 7.46522ZM20.0958 15.7548C17.9623 16.0587 16.3334 17.6075 16.3096 19.8538C16.308 20.0019 16.2996 20.1628 16.3231 20.309L16.3426 20.4002C16.4157 20.74 16.4658 21.0719 16.5944 21.3988C17.284 23.1522 19.0219 24.3533 20.9352 24.1132C23.0705 23.8799 24.9153 21.7569 24.6473 19.5751L24.6366 19.5004C24.3668 17.5434 23.03 15.9622 20.9794 15.757C20.6923 15.7283 20.384 15.7451 20.0958 15.7548ZM37.9277 16.0199L38.0874 17.1119C38.1266 17.3023 38.1271 17.5066 38.136 17.7008L38.1396 20.9535C38.1316 21.2926 38.1544 21.6393 38.096 21.9749L37.9871 23.4165C37.9539 23.6514 37.9654 23.8995 37.9599 24.1373L37.9408 25.7397C37.9412 26.0248 37.9097 26.3376 37.9492 26.6187L43.8475 25.3423L44.8589 25.1066C45.0035 25.0734 45.1569 25.0645 45.2934 25.0043C45.342 24.6663 45.3024 24.2696 45.3005 23.9259C45.2881 21.7178 44.7166 19.6523 43.4051 17.8578C42.7364 16.9429 42.0131 16.6021 40.943 16.3784L37.9277 16.0199ZM36.3337 16.1137C34.4281 16.3454 31.597 18.0595 29.9385 19.0457L26.8449 20.9434C26.529 21.1396 26.214 21.3529 25.8753 21.5075C25.8012 21.6113 25.7793 21.801 25.7313 21.925C24.6648 24.6807 21.7121 26.2222 18.8863 25.3426C16.2741 24.5295 14.7021 22.0579 14.8916 19.3592C14.7661 19.222 14.606 19.1363 14.4536 19.0331L13.8756 18.6225C13.2482 18.1722 12.6419 17.653 11.9653 17.2758L11.7877 20.7364C11.7191 21.1868 11.7273 21.6426 11.7257 22.094L11.7224 25.6548C11.7221 25.873 11.702 26.1139 11.7324 26.3292L16.1952 27.47C17.5471 27.7734 18.9147 27.9895 20.2891 28.1542L23.4938 28.4491C23.6906 28.4614 23.8846 28.4949 24.082 28.503L26.8701 28.5039C27.1143 28.4968 27.3583 28.4551 27.6027 28.44L30.7968 28.1105L34.5426 27.3443C35.1832 27.1874 35.8135 26.985 36.4619 26.8619L36.4786 23.7476L36.5999 22.0617C36.6144 21.8954 36.6505 21.7388 36.6604 21.5708L36.7226 19.4301C36.7676 18.339 36.7544 17.1535 36.4101 16.1102L36.3337 16.1137ZM45.1902 26.5367L38.1281 28.0359C37.7558 28.0946 37.3894 28.1294 37.0196 28.2079L32.5619 29.2632L29.2013 29.7856L26.7097 29.9753L24.3198 29.9748L22.1601 29.8117C18.9786 29.5409 15.096 28.8885 12.0274 27.8793C11.8682 27.8269 11.6735 27.6636 11.562 27.8107L11.3085 28.1504C11.0517 28.4761 10.7876 28.8239 10.5047 29.1264L11.3145 29.4496C13.2816 30.1674 15.3563 30.544 17.3988 30.9751L22.0781 31.8687L24.3673 32.152C24.8878 32.2179 25.4221 32.2616 25.9462 32.2643L28.3932 32.2555C28.5274 32.2484 28.6508 32.2152 28.7814 32.2011L31.371 31.8591C33.8566 31.4059 36.1161 30.2558 38.5546 29.6486L43.2656 28.6189C44.8407 28.265 45.0581 28.0786 45.2929 26.5388C45.2578 26.5363 45.2253 26.533 45.1902 26.5367ZM9.49488 30.2462L5.32774 34.8937C5.12069 35.1281 4.88707 35.3466 4.70561 35.6011C5.31682 35.8983 5.9988 36.1139 6.63972 36.3432L14.5265 39.0544C18.3406 40.2386 22.3208 41.0493 25.896 38.8092C27.7988 37.6346 30.2009 35.1449 31.6353 33.2975C31.1251 33.3432 30.6236 33.4569 30.1171 33.5317C28.291 33.8013 26.3583 33.7839 24.5279 33.6239L19.4999 32.8806L16.7621 32.306C14.9362 31.9324 12.801 31.5277 11.036 30.9185C10.5093 30.7366 10.0083 30.4643 9.49488 30.2462ZM36.5044 31.8168L34.6874 32.439C34.4186 32.5272 34.2759 32.5545 34.0961 32.776L32.5791 34.4963C29.5993 37.7987 26.9418 40.9675 22.3045 41.5951C18.966 42.0469 15.2285 40.804 12.1146 39.7811L4.21193 36.9695C4.0947 36.9237 3.81096 36.7323 3.69701 36.7317C3.63774 36.7313 2.80148 37.7581 2.61508 37.952L3.00943 38.105L10.406 40.859C15.2552 42.5193 20.3883 44.4364 25.4183 42.4222C29.3346 40.854 32.2078 37.4246 34.8092 34.2387L36.1588 32.5264C36.2904 32.3494 36.4629 32.1558 36.5577 31.9574L36.6079 31.8168C36.5588 31.8046 36.551 31.8056 36.5044 31.8168Z" fill="black"/>
<path d="M20.5656 21.5329L20.4754 21.4789C20.168 21.6479 19.9577 21.9261 19.6025 22.0189C19.2514 22.1105 18.9028 21.9462 18.822 21.5813L18.8155 21.5511C18.7826 21.4148 18.7837 21.2584 18.8119 21.1207L19.0048 20.406C18.6897 20.0685 17.8899 19.6465 18.4518 19.0668C18.7402 18.7692 19.232 18.8303 19.6095 18.8316L19.8724 18.0573C19.9895 17.7796 20.13 17.6659 20.4027 17.5565C21.2703 17.518 21.2698 18.831 21.4412 18.8487C21.8951 18.8955 22.6917 18.7496 22.6913 19.4443C22.6911 19.9051 22.2513 20.1346 21.9638 20.4266L22.1265 21.1591C22.1984 21.5271 22.1088 21.9836 21.6694 22.0433C21.2288 22.1032 20.8913 21.7759 20.5656 21.5329Z" fill="black"/>
</svg>
