<svg width="48" height="48" viewBox="0 0 48 48" fill="none" xmlns="http://www.w3.org/2000/svg">
<path d="M20.5056 42.8792L16.0568 42.2336C15.321 42.0868 14.4922 41.981 14.0305 41.3151C13.5806 40.6663 13.7686 39.8763 13.7805 39.1418L13.7938 37.9073C13.9462 35.0695 14.4617 31.8854 15.2321 29.1542C16.1088 26.0467 17.1643 25.8216 16.2323 22.396C16.1576 22.4965 16.119 22.7424 16.0821 22.8681L11.7204 36.2582C11.5243 36.9026 11.2295 37.5447 10.4858 37.6872L10.4532 37.6931C9.22115 37.927 5.93517 36.4549 5.64881 35.0051L5.6114 34.7981C5.5289 34.1296 5.8657 33.5935 6.05864 32.9785L10.9451 16.6777L11.8565 13.4127C11.9826 12.9339 12.0594 12.435 12.2133 11.9652C12.7918 10.1985 14.2624 8.76306 16.1368 8.46732C16.4092 8.42439 16.6895 8.4497 16.9642 8.41647C17.0849 8.01179 17.4727 7.79026 17.7891 7.54539L18.7493 6.76993C18.8942 6.64257 19.0636 6.50884 19.1607 6.33972L19.1779 6.3084C19.4554 5.81279 19.4829 5.24322 20.1181 5.04311L20.1541 5.03214C20.4865 4.92193 20.8659 5.03434 21.2071 5.0597L22.1478 5.10657C22.3026 5.11768 22.4539 5.15345 22.6118 5.1609L24.1695 5.17145C24.6197 5.17103 25.0797 5.18748 25.5289 5.15889L27.4624 4.97931C28.0024 4.76828 28.584 5.48725 28.7467 5.93125C28.8921 6.32814 28.9348 6.36254 29.2383 6.6647L30.3064 7.66337C30.8294 8.14712 30.7885 8.37339 31.4355 8.43512C33.4743 8.62961 35.0262 9.92148 35.7191 11.8128L36.1713 13.5904C36.1989 13.7366 36.2476 13.9063 36.2964 14.049L38.0651 20.1468C38.0723 20.1864 38.0782 20.2176 38.0919 20.2561L38.8884 22.9457C38.9129 23.0503 38.9583 23.1448 38.9818 23.2495L39.452 24.7716C39.5035 25.0264 39.5874 25.3129 39.6722 25.5573L41.7336 32.3484L42.3236 34.0136C42.9487 35.8413 40.3302 37.0415 39.0071 37.4968C38.4337 37.6941 37.7748 37.8421 37.2055 37.5596C36.4723 37.1957 36.3672 36.3617 36.1189 35.6693L31.7025 22.4071C31.6721 22.7556 31.5544 23.0938 31.4952 23.4374C31.2775 24.6991 31.5008 25.8359 31.9832 27.0006L32.7331 29.1154C32.7967 29.3001 32.8619 29.5065 32.8944 29.6992L33.3839 31.8555C33.4311 32.0132 33.4368 32.1726 33.4692 32.3324L33.8962 34.9622L34.1402 37.4724C34.1511 37.6003 34.1808 37.7255 34.1902 37.855L34.2854 39.5936C34.3476 40.4446 34.346 41.261 33.5781 41.8163C32.8194 42.3647 29.7213 42.7619 28.5958 42.8664L27.4571 42.9659L23.6639 42.9803C22.6293 42.9789 21.5318 43.04 20.5056 42.8792ZM20.7641 6.34834C21.2136 7.1079 23.0549 8.2765 23.8558 8.46873C24.3224 8.58076 25.7505 8.14417 26.1409 7.89667L26.6296 7.52668C26.9666 7.18412 27.2981 6.82375 27.442 6.3534C26.3453 6.47772 25.2428 6.47322 24.1409 6.47556L22.1078 6.46304C21.9455 6.45531 21.7866 6.42245 21.6254 6.40689L20.7641 6.34834ZM19.9719 7.44132C19.4883 7.98934 18.8932 8.39279 18.312 8.82657L18.3955 8.92525C19.1573 9.81409 20.8266 10.3796 22.0065 10.5279L23.3803 10.7016L23.3631 9.68893C23.2438 9.61965 23.114 9.60784 22.9858 9.56195C21.805 9.13956 20.817 8.35398 19.9719 7.44132ZM28.2836 7.58237C27.6824 8.84153 25.9572 9.61403 24.6578 9.75962L24.658 10.7052L25.9038 10.6114C27.1545 10.4503 28.7956 9.84897 29.6457 8.84514L28.8652 8.13132C28.6761 7.95343 28.4988 7.72698 28.2836 7.58237ZM30.6797 9.71579C29.388 11.1389 27.649 11.6584 25.8169 11.9299C25.8099 11.9309 25.7563 11.9389 25.7562 11.939C25.7469 11.9491 25.7511 15.3602 25.7511 15.746L25.7538 41.5906L27.6201 41.5701C27.9859 41.5547 28.3434 41.5035 28.707 41.4685L30.0704 41.3289C30.7852 41.2308 31.5074 41.0646 32.2032 40.8752L32.6309 40.7604C32.7487 40.7296 32.8429 40.7233 32.9431 40.6467L32.8429 37.8174C32.6092 34.5432 32.1423 31.2144 31.0137 28.1178C30.6562 27.1367 30.2697 26.1835 30.1237 25.1407C30.064 24.7143 30.127 24.2654 30.1102 23.8365C30.2575 22.8031 30.5189 21.841 30.8239 20.8422C30.9528 20.4201 31.1295 19.3421 31.7726 19.4471L31.8907 19.4794C32.0365 19.525 32.1986 19.6402 32.2636 19.7833L32.2787 19.8237C32.3111 19.9051 32.3395 19.9791 32.3646 20.0628L34.5042 26.7757C34.5131 26.8134 34.5248 26.8447 34.5385 26.8805L35.3931 29.4613C35.5378 29.8383 35.6211 30.2425 35.7667 30.6214L37.0967 34.5325L40.2117 33.0571C40.2779 33.0215 40.5209 32.9186 40.5438 32.867L35.9714 17.7511L34.8436 13.7591C34.6924 13.1996 34.6348 12.594 34.4085 12.0602C33.8222 10.6772 32.7247 9.907 31.254 9.74781C31.0631 9.72714 30.8691 9.73661 30.6797 9.71579ZM16.866 9.73679C14.74 9.9159 13.7725 11.1322 13.3108 13.0667L11.3436 20.016L7.49667 32.8289C7.56333 33.0001 9.35859 33.8674 9.66272 34.0002L10.9368 34.4841L15.0357 21.7952C15.2266 21.2072 15.5527 19.2166 16.4031 19.4704C16.8785 19.6123 16.9531 20.2744 17.102 20.6703L17.3798 21.5356C18.1344 23.7545 18.0346 25.4131 17.1823 27.6077L16.5041 29.4869L15.668 33.0516L15.2798 35.8962L15.0904 38.3585L15.0659 39.8624C15.0654 40.1046 15.0448 40.3655 15.0761 40.6053C16.4787 41.0174 17.9524 41.2923 19.4063 41.4363L21.8703 41.6279L21.8641 38.9417L21.8638 15.8258C21.8637 15.5417 21.847 15.2481 21.8669 14.9652C21.9105 14.3468 23.0768 14.1941 23.1487 15.091C23.171 15.3695 23.1545 15.6618 23.1547 15.9421L23.1584 41.6376L24.4304 41.638L24.4446 12.0718C22.3273 12.0601 19.215 11.6522 17.6283 10.0433C17.5287 9.94229 17.4412 9.82037 17.3333 9.72948L16.866 9.73679ZM7.03678 34.1336C6.97706 34.2567 6.86686 34.5033 6.9165 34.6403L6.9878 34.768C7.31311 35.4232 8.9212 36.0563 9.57323 36.2731C9.75108 36.3322 10.0329 36.4547 10.2071 36.3755L10.2876 36.2865C10.3897 36.0977 10.4599 35.9085 10.5307 35.7065L10.4836 35.6975C9.57586 35.5157 7.85386 34.7072 7.03678 34.1336ZM40.9277 34.1839C39.9683 34.6913 39.0371 35.2636 37.9922 35.5823C37.4674 35.7424 37.3282 35.6447 37.7594 36.3763L37.8453 36.4339C38.4744 36.2996 41.6721 35.2225 40.9785 34.1783L40.9277 34.1839Z" fill="black"/>
<path d="M17.7278 31.282C17.1254 31.5041 16.7773 30.8192 17.0167 30.3042C17.1253 30.0704 17.3306 29.896 17.5004 29.7065L18.1735 28.9205C18.5832 28.4032 18.8621 27.8581 19.1505 27.2691C19.2348 27.0967 19.3509 27.0042 19.525 26.9326L19.8049 26.9287C20.6072 27 20.2741 27.9584 20.0528 28.4056C19.5221 29.4777 18.6916 30.551 17.7278 31.282Z" fill="black"/>
<path d="M30.6343 31.3346C30.1883 31.3612 29.9251 30.993 29.6293 30.7088C28.8784 29.9873 27.7291 28.7982 27.5347 27.7176L27.5277 27.6765C27.4688 27.3479 27.7036 27.0882 27.9922 26.98C28.4615 26.9497 28.5552 27.1181 28.7626 27.5086C29.0469 28.0437 29.4388 28.5756 29.8334 29.03C30.2209 29.4762 30.8229 29.8869 31.0577 30.4332L31.0801 30.4809C31.2242 30.8335 30.9448 31.2016 30.6343 31.3346Z" fill="black"/>
</svg>
