<svg width="48" height="48" viewBox="0 0 48 48" fill="none" xmlns="http://www.w3.org/2000/svg">
<path d="M24.2541 35.3332L22.059 35.3329C21.0086 35.3321 20.045 35.2959 19.0002 35.224L16.7465 35.03C13.0316 34.6626 2.00937 33.1919 3.02363 28.2501C3.42826 26.2786 5.57967 25.2131 7.29098 24.5687L8.64885 24.0962C9.93567 23.7112 9.65845 24.1506 9.77779 23.0519C10.3459 17.8207 15.2671 14.147 20.149 13.1588C20.9468 12.9972 21.7447 12.9222 22.5525 12.838L23.6906 12.7132C24.1954 12.6542 25.366 12.8284 25.9022 12.8866C30.7926 13.4169 34.8784 15.4618 37.2164 19.8751L37.4182 20.3085C37.8997 21.4486 38.188 22.5247 38.2565 23.7643C38.3392 23.8449 38.6276 23.8815 38.7464 23.916C40.638 24.4653 43.2384 25.2713 44.4014 26.95C45.3678 28.3448 45.0815 29.9997 43.9166 31.1549C42.181 32.876 38.9654 33.7273 36.662 34.2281L32.4288 34.9358L28.3713 35.256C28.1917 35.2662 28.0173 35.3102 27.8382 35.3193L24.2541 35.3332ZM23.4765 14.2551C22.74 14.5651 22.2625 17.2787 22.2767 18.2259C23.0955 18.0479 23.6074 17.8144 24.5216 17.955C24.9565 18.0289 25.3536 18.1241 25.7824 18.2244C25.6486 17.0583 25.4586 15.8624 24.9209 14.8055C24.5434 14.0636 24.3434 14.1957 23.4765 14.2551ZM21.4008 14.5197C17.6673 15.0013 13.9995 17.0124 12.1758 20.3933C11.5673 21.5214 11.2269 22.7177 11.2296 23.9936L11.2297 28.2807C11.3014 28.3687 11.6148 28.4722 11.7333 28.5291C13.074 29.1729 14.4683 29.4879 15.9195 29.7565L17.5601 30.0041L20.9211 30.2792L26.6598 30.28L30.5395 29.9971L32.6723 29.6493C33.6787 29.4562 34.6369 29.2049 35.5863 28.8148L36.4271 28.4409C36.5332 28.3905 36.6832 28.3605 36.7546 28.261L36.7518 25.1824C36.7541 22.8307 36.7119 21.777 35.3271 19.628C33.5563 17.0353 30.836 15.301 27.7392 14.7215L26.4603 14.4967L26.9443 16.0335C27.088 16.5599 27.1985 17.1797 27.2495 17.7226C27.2667 17.9049 27.2535 18.8911 27.3075 18.9856C27.3296 19.0244 27.4715 19.1077 27.512 19.1392L27.9711 19.5324C28.6899 20.1759 29.2679 21.0713 29.5736 21.9845L29.7382 22.5696C29.8974 23.0784 29.9665 24.3839 29.8311 24.9479L29.7077 25.5682C29.5888 26.2342 29.1761 26.9934 28.7882 27.5473C27.5448 29.3225 25.1655 30.3424 23.0324 29.9435C19.4826 29.2797 17.2962 25.6611 18.3252 22.2405C18.6808 21.0585 19.4956 19.8267 20.5328 19.1178L20.7319 18.9867L20.7483 17.9937C20.7911 17.305 20.8911 16.5417 21.0631 15.8733L21.2853 15.1044C21.3366 14.9548 21.6095 14.4713 21.4008 14.5197ZM23.8325 19.4632C21.2288 19.6169 19.4005 21.8408 19.5785 24.4113C19.7453 26.8193 21.83 28.518 24.2147 28.499C26.246 28.2639 27.8063 27.1068 28.2937 25.0208C28.9456 22.2306 26.7164 19.2496 23.8325 19.4632ZM9.69853 25.4181C8.23743 25.8828 6.68906 26.3195 5.47748 27.2545C2.12668 29.8404 8.13178 31.8097 10.0718 32.333C12.6915 33.0396 15.3868 33.3651 18.0843 33.5887L19.5618 33.7069C19.697 33.7204 19.8239 33.7508 19.964 33.7573L25.559 33.817C25.7204 33.8137 25.8799 33.7851 26.0416 33.7814L28.0668 33.7571C28.2325 33.7481 28.391 33.7078 28.5532 33.6968L33.4926 33.2121C36.3151 32.8373 39.31 32.248 41.8128 30.8171L42.3331 30.4861C45.6144 28.1349 41.1905 26.2698 39.0953 25.6314L38.2347 25.4084L38.2241 28.0068C38.2238 28.3802 38.3256 28.8332 38.1192 29.1656L38.0979 29.2007C37.6377 29.9371 34.502 30.832 33.7027 31.0044L32.101 31.3388C31.0081 31.5275 29.8861 31.647 28.7806 31.7379L26.7821 31.8644L20.9465 31.8601L15.9957 31.3305C14.8574 31.1464 10.4393 30.2082 9.82368 29.1095L9.80915 29.0847C9.75698 28.9878 9.76846 28.8562 9.76799 28.7492L9.76729 26.3805C9.76724 26.0605 9.78914 25.725 9.75703 25.408L9.69853 25.4181Z" fill="black"/>
<path d="M24.1005 26.4657C23.8013 26.3884 23.1468 26.8425 22.8561 26.9605C21.9615 27.3238 21.5761 26.832 21.6518 25.902L21.7838 24.7999L21.2614 24.3596C19.4942 22.8388 20.9201 22.326 22.4858 22.2389L23.1003 21.0213C23.2788 20.6697 23.5006 20.4238 23.8831 20.2983C24.3279 20.2665 24.6353 20.5582 24.8212 20.9448L25.4127 22.1715C25.5803 22.4891 27.3232 21.9409 27.4922 23.1557C27.615 24.0388 26.13 24.5519 26.2025 24.914L26.2841 25.3253C26.3425 25.6089 26.4584 26.3346 26.3579 26.5718L26.3348 26.6271C26.0994 27.1905 25.4723 27.1051 25.0195 26.9079L24.1005 26.4657ZM24.0164 22.5932C23.4359 23.5491 23.8521 23.2848 22.7696 23.6458C23.2285 24.2002 23.327 24.4288 23.2443 25.1719C23.5065 25.0274 23.7066 24.9088 24.0076 24.8607L24.0475 24.8644C24.3264 24.8927 24.5174 25.0354 24.7553 25.1668C24.6814 24.2242 24.7218 24.3877 25.2231 23.6452C24.2011 23.4039 24.4885 23.479 24.0164 22.5932Z" fill="black"/>
</svg>
