<svg width="48" height="48" viewBox="0 0 48 48" fill="none" xmlns="http://www.w3.org/2000/svg">
<path d="M25.9051 42.8085L25.8773 42.7953C24.9756 42.3569 24.3359 41.5803 24.0102 40.6442L23.7103 41.2924C22.5866 43.2116 20.6052 43.1354 18.6942 42.9388C17.8205 42.8489 16.9434 42.7347 16.0814 42.5643C15.0098 42.3526 15.0307 42.306 14.804 41.1851L14.5567 40.0311C14.4982 39.7432 14.4546 39.4484 14.3822 39.1636C14.345 39.0173 14.3144 39.0729 14.1684 39.0811L12.1517 39.2862C10.9926 39.4627 10.8003 38.8232 10.3598 37.8634C9.62334 36.259 9.27538 35.4773 9.27735 33.5998C9.27806 32.973 9.29118 32.375 9.34856 31.7539L9.59024 29.0972L10.3389 24.035C10.7622 21.6289 11.297 19.2312 11.5251 16.7951C11.5881 16.1225 11.6224 15.4782 11.5492 14.8037C11.4569 13.9529 11.2358 13.131 11.3482 12.2668C11.5378 10.8093 12.5082 9.60251 13.699 8.8032C15.0663 7.88548 16.7427 7.58839 18.1211 6.71933C18.7026 6.35267 19.2433 5.87445 19.7531 5.41494C20.0889 5.11236 20.3021 4.81494 20.7617 4.71533C20.928 4.70478 21.1121 4.72456 21.2699 4.78245C22.3502 5.17873 24.4995 5.16809 25.6476 4.98579L26.2856 4.89842C26.6656 4.83331 26.9873 4.60734 27.3873 4.74256L27.4223 4.75517C27.6803 4.84414 27.8543 5.02644 28.0538 5.20339L28.9013 5.97533C29.5065 6.5067 30.1066 6.87809 30.8421 7.20411L33.1318 8.15614C34.5311 8.7995 35.7987 9.78861 36.3753 11.2616L36.4504 11.4725C36.7784 12.7065 36.7039 13.059 36.4845 14.3576C36.3322 15.2593 36.4134 16.0752 36.5084 16.9716L37.7174 24.4198C37.7921 24.7678 37.827 25.1264 37.8896 25.4764L38.3499 28.6991C38.5703 30.1701 38.6951 31.6655 38.7338 33.1522C38.7901 35.3111 38.4724 36.1868 37.5344 38.074C36.9163 39.3178 36.6961 39.4159 35.3786 39.2067L33.6494 39.0078C33.5396 39.3744 33.4938 39.7501 33.424 40.1249L33.0389 41.8769C32.8955 42.4428 32.7525 43.0639 32.0718 43.1764L32.0412 43.181C31.8315 43.2144 31.5974 43.1869 31.3848 43.1855L30.2372 43.1939C28.6655 43.2192 27.5152 43.585 25.9051 42.8085ZM25.4835 6.71272L22.3754 6.73592L22.3931 7.42184C22.4204 7.42536 22.4475 7.43019 22.4751 7.4299L25.5569 7.41969C25.5322 7.18667 25.5855 6.93542 25.5477 6.70887L25.4835 6.71272ZM20.7019 6.73817C20.3144 7.11556 19.9209 7.52595 19.4505 7.76783L20.0098 10.5233C20.1395 11.037 20.1977 11.605 20.3823 12.1015L20.4644 12.3749C20.5158 12.527 20.9031 13.6742 20.893 13.717L21.1562 14.4008C21.1949 14.495 21.242 14.5757 21.2961 14.6614L21.1655 13.4882L20.7486 7.60086C20.7378 7.33601 20.7849 6.98984 20.7209 6.73892L20.7019 6.73817ZM27.1872 6.73817L26.7719 13.9542L27.1528 13.0782C27.5952 11.9305 27.9024 10.7375 28.1123 9.52648L28.2984 8.34575C28.3333 8.13542 28.3546 7.92725 28.4136 7.72151C28.1466 7.55028 27.3794 6.78776 27.221 6.73044L27.1872 6.73817ZM29.9024 8.63661L29.495 10.9918L29.1643 12.1907C28.7866 13.6131 28.1557 15.3251 27.1239 16.4245C26.1516 17.4604 25.5166 18.2701 25.4745 19.828V39.6561C25.4796 39.8114 25.5465 40.0335 25.6047 40.1795C26.2352 41.7616 27.8562 41.6587 29.2359 41.5596L30.7603 41.507C30.9897 41.5069 31.2331 41.4926 31.4602 41.522L32.5057 35.156C32.6112 34.6123 32.5964 32.5264 32.5354 31.9515C32.3867 30.5525 31.9013 29.2602 31.632 27.8902C31.4621 27.0254 31.3882 26.1516 31.3203 25.2747L31.2483 24.4589C31.2291 24.1333 31.2399 23.8024 31.2398 23.4762L31.3003 21.2661C31.3184 20.9209 31.3076 20.5704 31.3396 20.2267L31.5284 18.0043C31.5615 17.6214 31.6145 17.2348 31.6234 16.8506L31.6575 16.8458C31.6497 16.528 31.692 16.2212 31.7027 15.9007L31.7221 14.8304C31.7268 14.58 31.7242 14.317 31.7901 14.0741L31.7965 14.048C31.9588 13.4578 32.9511 13.4456 33.2156 13.9686L33.2514 14.0382C33.3606 14.2325 33.3303 14.4944 33.3307 14.7103L33.2334 17.1327L32.9184 20.7234L32.8634 22.2945C32.8488 22.8163 32.8388 23.1799 32.8597 23.7186L33.0524 26.4705C33.1266 27.1036 33.222 27.7801 33.4154 28.3902L33.5733 28.9848C33.6518 29.3566 33.7924 29.7227 33.8516 30.0994L34.1163 31.5987C34.4171 33.6476 34.0064 35.3749 33.9134 37.3474L35.945 37.595C36.2331 36.9183 36.617 36.2804 36.8436 35.578C37.0282 35.0059 37.1276 34.4058 37.1288 33.8072L37.0295 31.3536L36.2706 25.4937C35.7376 22.4378 35.1087 19.3951 34.8088 16.3049C34.7333 15.5276 34.7881 14.7426 34.8987 13.9728C34.9439 13.6583 35.0383 13.3356 35.06 13.0194C35.1524 11.6757 34.1184 10.5213 32.9793 9.94779C32.3254 9.61854 31.6368 9.3792 30.9645 9.09294L30.2708 8.7852C30.1808 8.74203 29.9974 8.62939 29.9024 8.63661ZM17.9906 8.6749L15.3832 9.77961C14.4375 10.232 13.6676 10.7585 13.1935 11.7417C12.7037 12.7577 13.0799 13.705 13.1778 14.7339C13.2333 15.3157 13.2202 16.0758 13.1763 16.6589L12.1551 23.2514L11.4119 27.6561L10.9161 32.4205L10.8732 33.8716C10.8736 34.608 10.9956 35.2608 11.262 35.9414L12.0582 37.6272L13.5929 37.4554C13.7476 37.4392 13.9545 37.4514 14.0999 37.4073L13.8556 34.2304C13.7546 31.9913 13.9432 30.8721 14.4994 28.658C14.8416 27.2955 14.9656 25.9779 15.0256 24.5802L15.0867 21.7659C15.0812 21.5174 15.0427 21.2774 15.0284 21.0311L14.7304 16.5953C14.7175 16.2931 14.6639 15.9515 14.6986 15.6532C14.7914 14.856 16.2263 14.6738 16.2946 16.026L16.3221 16.6668C16.3274 16.7962 16.354 16.9224 16.3611 17.051L16.4273 18.0985C16.4851 18.4435 16.4782 18.7962 16.5107 19.1439L16.6062 20.3855C16.6214 20.5913 16.657 20.795 16.6643 21.0015L16.6704 23.2654C16.6632 25.4371 16.5091 27.3239 15.9797 29.4241C15.6074 30.901 15.4386 31.7476 15.4382 33.2485L15.4656 34.7371C15.479 34.9695 15.5261 35.1921 15.5391 35.4257L15.6958 37.1296C15.7261 37.3573 15.7407 37.5882 15.7933 37.8121L16.1628 39.7771C16.5347 41.1563 15.9379 40.8528 17.5042 41.0949L18.9741 41.2876C20.4828 41.4603 22.0319 41.5735 22.4943 39.7877C22.5279 39.6577 22.5188 39.4995 22.5188 39.3656L22.5188 20.4817C22.5183 19.0587 22.2561 17.4965 20.9989 16.5993L20.9713 16.5792C20.8106 16.4671 20.6065 16.4325 20.4401 16.3295C19.5274 15.7645 18.4639 11.1719 18.24 10.0892L18.0421 9.0702C18.0193 8.94031 18.0233 8.80142 17.9906 8.6749ZM22.6229 9.0094L22.4941 9.01915C22.4506 9.31479 22.4838 10.0091 22.5117 10.3055L22.9574 15.4119C23.0669 16.7552 23.6612 17.1811 23.9079 18.3901C23.9233 18.4654 23.946 18.515 23.9887 18.5787L24.3354 17.595C24.505 17.1503 24.8187 16.7086 24.9246 16.2497C25.0052 15.9006 25.0252 15.4932 25.0524 15.1358L25.3088 12.0647C25.3431 11.5652 25.3925 11.0065 25.4099 10.5138L25.4421 9.65211C25.4507 9.46128 25.5027 9.20712 25.4687 9.02581L22.6229 9.0094Z" fill="black"/>
</svg>
