<svg width="48" height="48" viewBox="0 0 48 48" fill="none" xmlns="http://www.w3.org/2000/svg">
<path d="M29.5125 38.8851L29.4519 38.8855C28.2182 38.8771 25.9713 38.451 25.1458 37.6009L25.126 37.5799C25.0497 37.5747 24.9722 37.6068 24.8993 37.6275L24.4687 37.741C24.115 37.8195 23.7211 37.8262 23.3696 37.7252L23.0401 37.6175C22.8257 37.539 22.8708 37.5643 22.6924 37.7288C21.7728 38.5767 20.1118 38.7186 18.9338 38.8614C16.4411 39.1636 14.3169 37.516 14.1919 34.9751L14.1726 26.5811C13.6761 27.4707 13.4371 28.5445 13.2154 29.5314L11.0661 37.676C10.8428 38.5125 10.6987 39.372 9.5634 39.3025C9.02443 39.2696 8.48405 39.1644 7.94607 39.1078L6.92565 38.9917C6.22393 38.9239 5.5711 38.867 5.42466 38.0083C5.02941 35.6904 5.68088 33.4086 6.15736 31.1603L9.25871 17.33C9.38996 16.6885 9.42835 16.0149 9.60807 15.3869C10.1395 13.5296 11.5085 11.9765 13.2881 11.215C14.3468 10.762 15.5286 10.69 16.5755 10.1985C16.9587 10.0186 17.3294 9.81509 17.6896 9.59291C18.0325 9.3815 18.3129 9.04306 18.7115 8.95648C19.0155 8.94092 19.1538 9.03697 19.3826 9.20408L19.9283 9.59511C22.3496 11.1829 26.0291 11.125 28.3593 9.39641C29.4478 8.58889 29.3558 8.98775 30.2866 9.57706C31.0224 10.043 31.8579 10.4236 32.7012 10.6445L33.9211 10.9358C36.011 11.5147 38.0005 13.3767 38.4252 15.5555L38.7076 17.0635L40.7635 26.1088L42.4687 34.2072C42.5195 34.4608 42.5801 34.7239 42.6112 34.9806C42.6546 35.3381 42.7215 37.8065 42.5707 38.1302C42.2039 38.9172 41.8329 38.9256 41.0507 39.0017L40.078 39.1152C38.2077 39.3339 37.5257 39.8334 36.92 37.6137L34.8184 29.4695C34.5345 28.3277 34.3192 27.6371 33.8404 26.5858V34.5089C33.8404 34.8323 33.8729 35.1966 33.8061 35.5134C33.3595 37.6287 31.655 38.8805 29.5125 38.8851ZM29.7569 11.0562C29.4749 13.0445 28.4001 14.9559 26.783 16.1694C26.6107 16.2987 26.4197 16.3981 26.2621 16.5416L26.2517 36.2821C26.2517 36.6614 26.5229 36.719 26.9021 36.845C28.6261 37.4177 31.3659 37.7765 32.1452 35.6509C32.3785 35.0147 32.3004 34.3472 32.2983 33.6803L32.2894 24.1642C32.2835 23.9336 32.1796 23.6961 32.0968 23.4826C31.4165 21.7276 31.3279 20.3313 32.121 18.5945L32.6816 17.4787C32.8604 17.1179 32.973 16.65 33.3947 16.5007L33.4951 16.4685C33.9654 16.3227 34.4771 16.7881 34.4409 17.264C34.4237 17.4908 34.3121 17.6807 34.2207 17.883L33.7033 18.9672C33.6169 19.1413 33.508 19.318 33.4415 19.5002L33.4303 19.5206C32.6163 21.029 33.367 23.1127 34.3549 24.3602C34.8734 25.0149 35.298 25.835 35.6041 26.6159L35.9546 27.6564L37.3223 33.0053C37.3299 33.0434 37.3408 33.0778 37.3525 33.1146L38.5719 37.6771L41.0957 37.4017C41.1258 36.3564 41.1373 35.3784 40.9314 34.3531L39.1727 26.0584L37.25 17.6899C37.1033 16.9837 37.0452 16.2643 36.8089 15.5783C36.3497 14.2456 35.2871 13.1299 33.9726 12.6125C32.5285 12.0442 31.1033 12.132 29.7569 11.0562ZM18.2213 11.0874C17.5828 11.456 16.9596 11.7883 16.2573 12.0261C15.6219 12.2413 14.9504 12.3159 14.32 12.5311C12.9142 13.0109 11.5016 14.2738 11.1077 15.7561L6.8679 35.6016C6.80297 35.8876 6.80869 37.1072 6.86672 37.3983L9.45197 37.7264C9.58622 37.3898 9.65893 37.0105 9.74897 36.659L11.3941 30.3708C11.8982 28.3507 12.2516 26.3114 13.4723 24.571C13.6774 24.2787 13.9532 24.0002 14.1331 23.6958C14.7647 22.6273 15.1202 20.8452 14.6258 19.6891L14.557 19.5333L13.9679 18.2814C13.8249 17.9836 13.5914 17.6234 13.5314 17.2978C13.3982 16.5754 14.4826 16.186 14.9017 16.7582C15.1082 17.0403 15.2475 17.4013 15.4042 17.7143L16.2375 19.5691C16.7326 20.786 16.2624 22.699 15.7669 23.8305C15.6754 24.0395 15.7276 28.4296 15.7277 29.0113L15.7289 35.1564C15.7306 35.2424 15.7402 35.3273 15.7738 35.4071L15.7862 35.4346C15.8251 35.5224 15.8363 35.6187 15.8771 35.7073C16.6594 37.4027 18.0708 37.4021 19.6932 37.1525C20.216 37.0722 21.4098 36.9237 21.7547 36.447L21.7452 16.7561C21.7459 16.4339 21.3046 16.2636 20.9925 16.0156C19.7947 15.064 18.9615 13.6648 18.4936 12.2243L18.2213 11.0874ZM19.8507 11.3322C19.9125 11.5916 19.9944 11.8468 20.0976 12.0924L20.3796 12.7619C21.0364 14.0675 21.9129 14.837 23.1386 15.5601C23.3439 15.6812 23.5943 15.88 23.816 15.9551C24.1735 16.0763 25.8027 14.9552 26.0788 14.7185C26.4091 14.4354 26.6945 14.108 26.9688 13.7718C27.5958 12.914 27.7958 12.3011 28.1314 11.3267C25.7802 12.5668 22.7716 12.6702 20.3428 11.5666C20.2392 11.5195 19.9409 11.3245 19.8507 11.3322ZM24.756 17.2853C24.3498 17.4107 23.646 17.5594 23.2534 17.3678L23.2547 35.3947C23.2543 35.5678 23.1874 35.8203 23.321 35.9585L23.371 36.0014C23.6918 36.2139 23.8759 36.2575 24.2593 36.1962L24.2858 36.1924C24.4431 36.1662 24.6492 36.0252 24.7625 35.9198L24.7703 17.963C24.7703 17.743 24.79 17.5075 24.7612 17.2903L24.756 17.2853Z" fill="black"/>
</svg>
