<svg width="48" height="48" viewBox="0 0 48 48" fill="none" xmlns="http://www.w3.org/2000/svg">
<path d="M17.3377 42.012L14.0826 41.6096C12.7815 41.4604 13.1974 40.1551 13.0796 39.9672C13.0748 39.9596 12.7149 39.9156 12.6748 39.9103C12.2646 39.8557 11.8566 39.7405 11.4489 39.667C10.5576 39.5063 9.60899 39.4485 9.01368 38.6632C8.50823 37.9964 8.33169 36.3454 8.45455 35.4802L8.67777 33.9374L10.5784 23.3554L11.6241 16.8956C11.6846 16.4274 11.7311 15.9528 11.8347 15.4921C12.1893 13.9151 13.3346 12.5356 14.8449 11.9411C15.4937 11.6858 16.1095 11.6437 16.7979 11.6391C16.8197 11.6256 17.4744 10.4159 17.5484 10.2849C18.2062 9.11993 18.86 7.95293 19.6289 6.856C19.9525 6.39428 20.2558 5.76082 20.9528 6.02861C21.4491 6.21939 21.9347 7.1283 22.1367 7.60469L22.2176 7.79289C22.4802 8.35249 22.6449 8.96004 22.7879 9.55872L25.1372 9.53758C25.286 8.61794 26.1764 6.39138 27.1456 5.98005C28.0704 5.89399 28.5683 7.13046 29.0044 7.83982L30.5717 10.511C30.7486 10.8264 30.9787 11.1381 31.1002 11.4799C31.1988 11.7572 31.6706 11.6219 31.9879 11.6496C33.7511 11.8033 35.3308 13.2873 35.9632 14.8646C36.2306 15.5313 36.2742 16.2314 36.3763 16.9335L37.5003 23.871L38.8597 31.6288C39.0519 32.6506 39.1474 33.3607 39.4604 34.3558L39.5148 34.5338C39.5841 34.8535 39.5429 35.2568 39.5433 35.5853C39.5446 36.6133 39.6455 37.7108 39.0404 38.61C38.4667 39.4627 37.4797 39.4893 36.5705 39.6665L34.9554 39.9783C34.8968 40.5786 34.9638 41.355 34.2176 41.5504L34.1833 41.559C33.9757 41.612 33.7613 41.6097 33.5503 41.6416L30.41 41.9823C29.8644 42.0472 29.29 42.0208 28.7409 42.0219L17.3377 42.012ZM20.6579 7.76885L18.1993 12.0046C18.0702 12.2488 17.9276 12.4945 17.8347 12.7547C18.0531 13.679 18.622 14.7161 19.2689 15.4127C21.5869 17.5567 21.6273 11.706 21.5592 10.6557C21.4911 9.60771 21.0567 8.71338 20.6579 7.76885ZM27.3114 7.76271C26.7312 9.0558 26.4137 9.62093 26.4105 11.062L26.4892 12.8102C26.5109 13.0383 26.5161 13.2753 26.5601 13.4999L26.7754 14.6883C26.8521 15.0369 26.9139 15.4378 27.234 15.6545C27.7923 16.0324 28.3299 15.8281 28.7658 15.3767C29.2885 14.8086 29.7982 13.9804 30.0314 13.2451C30.2713 12.4887 29.5393 11.5141 29.1651 10.8562L27.4874 8.03655C27.4308 7.94322 27.3622 7.85974 27.3114 7.76271ZM22.9718 10.9646C22.9271 11.4598 22.962 11.9533 22.9405 12.4452C22.9045 13.2652 22.7545 14.1142 22.5651 14.9134C22.5016 15.1814 22.3813 15.3533 22.5135 15.6078L23.0886 16.7812C23.3315 17.392 23.6494 17.9878 23.8301 18.621C23.8531 18.7017 23.892 18.7767 23.9279 18.8522L24.306 18.065L25.1894 16.1501C25.3664 15.7836 25.5939 15.6341 25.4833 15.2283L25.1598 13.4943C25.1038 13.0413 25.0487 12.5996 25.0453 12.1434L25.0316 10.9679L22.9718 10.9646ZM16.3486 13.0398C14.8951 13.1946 13.4959 14.2501 13.2073 15.735L10.0828 34.2345C10.3472 34.2645 10.6145 34.3485 10.8747 34.4062L12.8852 34.8669C12.8972 34.2162 13.0088 33.5543 13.1321 32.916L13.5481 31.0762C13.9682 29.4924 14.5468 27.9668 15.108 26.4298C15.6248 25.0142 16.1793 23.5699 16.3064 22.0546C16.3484 21.5548 16.453 21.0875 17.0952 21.1144C18.6026 21.1775 16.8124 25.7918 16.57 26.4891C15.4526 29.5413 14.2254 32.6818 14.2269 35.9782L14.2278 36.7375C14.228 36.8695 14.2168 37.0146 14.2377 37.1444L23.7596 37.1479C23.732 36.6261 23.7977 36.1396 23.8115 35.6227L23.9146 32.1445L24.0006 27.6898C24.0052 27.4897 24.01 27.2878 24.0332 27.0889L24.1307 26.332C24.1468 26.1912 24.1703 26.063 24.1479 25.9218L23.8066 23.5195C23.4794 21.6785 22.8991 19.8711 22.1569 18.1562L21.8428 17.4357C21.7537 17.2184 21.6765 16.9782 21.5491 16.7805L21.5273 16.7957C20.9872 17.1664 20.3055 17.3433 19.6549 17.2138C17.9452 16.8734 16.9133 14.5768 16.424 13.0374L16.3486 13.0398ZM31.5666 13.0517C30.9548 15.0343 29.2231 18.3163 26.6604 16.9676C26.5866 16.9287 26.5053 16.8666 26.4257 16.8472L24.7511 20.2588C24.6378 20.4586 24.5002 20.5827 24.5925 20.8161L24.9727 22.2675C25.2662 23.233 25.587 25.8939 25.4804 26.8631C25.4307 27.3145 25.3752 27.7637 25.3668 28.2179L25.3537 30.4489C25.3523 30.8561 25.4019 31.3433 25.3047 31.7366C25.2689 31.8812 25.2803 32.0493 25.2795 32.1979L25.2196 35.1553C25.2159 35.3716 25.1579 35.5822 25.1538 35.8041L25.1638 36.7477C25.1657 36.8712 25.145 37.0289 25.176 37.1465L33.6718 37.1396C33.9653 34.045 33.0993 31.051 32.0604 28.1718L31.2572 25.9975C30.8543 24.89 30.5429 23.7948 30.3551 22.6306C30.2783 22.1546 30.1053 21.3637 30.7196 21.1596C31.1406 21.0198 31.4709 21.1952 31.6193 21.5976L31.6316 21.6242C31.7161 21.8449 31.6626 22.1553 31.7146 22.3929C31.8882 23.1857 31.9852 24.0106 32.2875 24.772L33.0194 26.7513C33.0883 26.9111 33.1553 27.0926 33.205 27.2577L34.0713 29.7639C34.2421 30.2369 34.412 30.7866 34.5088 31.2817L35.0061 33.7754C35.0532 34.0898 35.0061 34.5461 35.1234 34.8295L37.4074 34.3289C37.5651 34.29 37.7698 34.2663 37.9125 34.1928C37.8772 33.8549 37.7964 33.5119 37.7286 33.1785L36.3114 25.1601L34.9922 17.0038C34.7367 15.16 34.1402 13.5443 32.0317 13.1175C31.8784 13.0865 31.7185 13.0848 31.5666 13.0517ZM38.0484 35.6132L35.1129 36.2771L35.0359 38.0363C35.0312 38.2309 34.9198 38.5623 35.1158 38.5295L36.9254 38.1798C37.2344 38.1173 37.712 38.1092 37.8978 37.8088C38.3271 37.115 38.2189 35.5876 38.0484 35.6132ZM9.88382 35.6366C9.81402 36.2685 9.78074 37.0016 10.0157 37.5966C10.2107 38.0902 10.6963 38.118 11.1507 38.181L11.7301 38.2858C12.1265 38.3613 12.5235 38.4674 12.9254 38.5086C12.9771 38.4244 12.944 38.2755 12.9402 38.1755L12.8517 36.2696L10.4279 35.7387C10.2762 35.706 10.0326 35.6101 9.88382 35.6366ZM14.3615 38.5827C14.3434 38.6792 14.4276 40.0633 14.4456 40.2341C14.7303 40.2968 15.0158 40.312 15.3044 40.3417L18.6003 40.6048L23.7239 40.613L23.7394 39.3383C23.7391 39.0929 23.758 38.8285 23.7291 38.5861L15.2997 38.5781C14.9993 38.5781 14.6569 38.5441 14.3615 38.5827ZM26.5105 38.5804L25.1334 38.5927L25.1329 40.6132L32.0332 40.4097L33.1662 40.2773C33.2875 40.2609 33.4159 40.2694 33.5332 40.2336L33.5834 38.5777L26.5105 38.5804Z" fill="black"/>
</svg>
