<svg width="48" height="48" viewBox="0 0 48 48" fill="none" xmlns="http://www.w3.org/2000/svg">
<path d="M27.3048 41.8532C26.6461 41.8441 26.0831 41.6477 25.5337 41.2932C24.8097 40.826 24.8735 40.8566 24.0316 40.8552C23.7486 40.8548 23.3663 40.8101 23.0985 40.9075L23.0626 40.9211C22.8434 40.9994 22.6707 41.1418 22.4771 41.267C21.4257 41.9467 20.6984 41.853 19.5177 41.8518L15.2194 41.8554C14.4094 41.8559 13.7119 41.857 12.9677 41.4626C11.7362 40.8101 11.2754 39.729 11.2724 38.4067L11.3226 37.0684C11.0099 37.3334 10.6716 37.429 10.3034 37.5874C10.5213 38.3452 10.0123 39.0451 9.29311 38.833C8.99006 38.7436 8.75175 38.8769 8.4486 38.8242L8.31904 38.7973C7.64165 38.5831 7.64793 37.7463 7.80829 37.1918C7.73695 37.1171 7.61962 37.0659 7.53529 37.0028C6.14001 35.9584 6.09862 34.3278 6.09717 32.7622L6.1042 28.0282L6.30975 24.9958C6.46814 23.4458 6.71137 21.9205 7.05342 20.4004L7.39228 18.9694L8.08392 16.8556C9.10767 14.0167 10.4928 11.1709 13.1956 9.62679L18.7504 6.76169C19.162 6.54494 19.5792 6.21611 20.0373 6.12208C20.2837 6.12077 20.561 6.21696 20.8038 6.26547L22.5487 6.47833L25.3529 6.48279C25.9239 6.45138 26.4938 6.38229 27.0568 6.28577C27.9773 6.12799 27.8937 5.96801 28.7579 6.44313L33.8897 9.15185C35.759 10.106 36.7808 10.8739 37.8855 12.67L38.6369 13.9359C39.0709 14.7491 39.4407 15.6115 39.7832 16.4666L40.7132 19.3832C40.7845 19.6337 40.823 19.8926 40.8866 20.1449L41.2505 21.9027C41.4243 22.7756 41.5322 23.6546 41.6258 24.5394L41.8931 28.1979L41.8915 33.5812C41.8877 35.0066 41.5308 36.2178 40.3249 37.1051L40.2574 37.1555C40.2292 37.185 40.3145 37.588 40.3224 37.6826C40.3696 38.2467 39.9885 38.937 39.3385 38.8484L39.3048 38.8433C39.0514 38.8069 39.0848 38.7169 38.834 38.8142C38.3592 38.9982 37.9042 38.8051 37.6889 38.3465L37.6759 38.3178C37.5666 38.081 37.6114 37.8438 37.6867 37.6048C37.33 37.4673 37.0132 37.319 36.7003 37.0966C36.6841 38.2763 36.9131 39.4597 36.1536 40.4808C35.6265 41.1893 34.8338 41.7019 33.9501 41.826L33.9141 41.8308C33.6372 41.8707 33.3494 41.8548 33.0698 41.8547L27.3048 41.8532ZM20.499 7.48863C20.4762 7.90118 20.5409 8.32685 20.6732 8.7191L20.7469 8.9291C21.4969 10.6826 22.5384 11.7246 23.9861 12.8634C24.7318 12.3152 25.434 11.7085 26.0224 10.9915C26.7515 10.1118 27.5872 8.67602 27.5659 7.48385C26.7998 7.60188 26.0312 7.71335 25.2562 7.75474L22.7248 7.75549C22.1086 7.72193 21.4558 7.66183 20.8492 7.54722C20.7543 7.52927 20.5909 7.47541 20.499 7.48863ZM19.2571 7.87872C18.9693 8.06083 17.9359 8.51927 17.7957 8.65047C18.0076 11.124 19.369 13.4231 21.2527 15.0036L22.1695 15.7331C22.5207 16.0025 23.1722 16.3499 23.212 16.8519L23.181 39.5772L24.224 39.5746C24.4029 39.5741 24.599 39.59 24.7751 39.5678L24.7748 29.3089L24.7742 17.2369C24.7754 16.302 25.2848 16.1244 25.9933 15.5906L26.87 14.8745C28.8861 13.1345 29.7857 11.1836 30.2117 8.63712L28.7908 7.88486C28.5766 9.85155 27.1982 11.9273 25.652 13.1676L24.9633 13.6893C24.1109 14.35 24.0871 14.5017 23.2228 13.8512C21.4603 12.5247 19.8569 10.8142 19.351 8.60121C19.2963 8.36205 19.3019 8.11633 19.2571 7.87872ZM16.5813 9.29332L16.5644 9.30452C16.215 9.53107 15.7978 9.7031 15.4206 9.88057C12.6746 11.1725 11.8365 11.9225 10.4432 14.5906C9.83934 15.7469 9.3074 16.9513 8.91675 18.1979L8.58417 19.4028C8.50903 19.6776 8.41134 19.9508 8.34909 20.2288L7.78617 23.0501C7.57139 24.4331 7.43643 25.8588 7.37212 27.2563L7.365 33.3347C7.36631 33.8323 7.34334 34.3593 7.50004 34.8402C7.8172 35.8135 8.75081 36.549 9.80414 36.3386C11.2466 36.0504 11.3326 35.1854 11.3372 33.8993L11.343 31.7841C11.3426 31.28 11.4064 30.7945 11.4237 30.2941L11.4466 28.226C11.4559 27.9194 11.5184 27.6145 11.5327 27.3073L11.5582 26.0976C11.5974 25.4669 11.6682 24.8394 11.714 24.2105L11.7464 23.4027C11.7566 23.2586 11.7899 23.118 11.7986 22.9762L11.8902 21.3285L11.8991 18.4174C11.8652 17.7508 11.7701 17.0331 11.5893 16.3864C11.4051 15.7269 11.1792 15.2458 12.0222 15.0347C12.1489 15.0685 12.2859 15.0937 12.3938 15.1707L12.4236 15.1916C12.5801 15.3063 12.6247 15.4457 12.6797 15.6214L12.8573 16.3649C13.0126 16.9652 13.0939 17.6557 13.1309 18.276L13.1114 22.0299L12.798 26.615C12.7882 26.7756 12.7571 26.9323 12.7493 27.0941L12.7215 28.2561C12.7124 28.4449 12.674 28.6305 12.6663 28.8202L12.6301 32.0883C12.6274 32.4045 12.5699 32.71 12.5674 33.0238L12.5548 37.6437C12.899 37.6773 13.2387 37.6629 13.583 37.6749L19.3902 37.702C20.1344 37.7011 21.8764 37.6416 21.9387 36.5628C21.9782 35.8798 21.9402 35.1724 21.9403 34.4868L21.9391 17.1792C21.939 16.9986 21.7701 16.9953 21.6488 16.909L20.8244 16.27C18.7409 14.512 17.2969 12.6628 16.733 9.89215C16.7095 9.77683 16.6721 9.34807 16.5813 9.29332ZM31.379 9.28769C31.3075 9.59993 31.2654 9.91582 31.1809 10.2256C30.46 12.8682 28.6865 15.4407 26.3298 16.8961L26.2423 16.9454C26.1631 16.9862 26.1071 17.0433 26.0445 17.1056L26.0546 34.7339C26.0546 36.1463 25.7419 37.4662 27.5626 37.6821L27.5976 37.6864C27.9187 37.7232 28.2594 37.7025 28.5832 37.7026L32.719 37.7019C33.6286 37.7012 34.541 37.6947 35.4453 37.5938L35.4428 37.5713C35.4041 37.1938 35.4248 36.7974 35.4238 36.4173L35.4175 32.2152C35.4116 32.0001 35.3707 31.7898 35.3681 31.5716L35.3589 28.9872L34.9478 22.3443C34.9373 22.1764 34.9035 22.0124 34.8946 21.8443L34.8942 18.1053C34.9237 17.5542 34.988 16.9015 35.1409 16.3656C35.2094 15.9632 35.2697 15.3976 35.6294 15.1462C35.8895 14.9644 36.2976 15.0188 36.4598 15.3056L36.5317 15.4516C36.6117 15.6195 36.5543 15.8463 36.5005 16.0139C36.2812 16.6961 36.2051 17.4201 36.1558 18.1304L36.1015 21.3995C36.1103 21.5947 36.1534 21.7866 36.1619 21.9817C36.1961 22.7637 36.2228 23.6158 36.2908 24.3929L36.4785 27.1293C36.4908 27.3622 36.5387 27.5903 36.5478 27.8245L36.5642 28.7584C36.5671 29.4474 36.6492 30.067 36.6488 30.7898L36.6541 33.3198C36.6545 33.8804 36.6077 34.4846 36.7075 35.0343C37.0275 36.7981 40.0937 37.0224 40.5894 34.4425C40.6399 34.1797 40.6154 33.8827 40.6159 33.6145L40.6642 28.641L40.597 26.7558L40.2455 23.4255C39.9228 21.2181 39.4369 19.0352 38.6309 16.9482L38.1682 15.8805C37.2081 13.7191 36.1757 11.8255 34.0468 10.6411L31.379 9.28769ZM21.8647 38.5199C21.1537 38.8678 20.3803 38.9805 19.6013 38.9817L12.9107 38.8974C12.7974 38.8939 12.6515 38.873 12.5418 38.8968C12.6229 39.3251 12.8135 39.7127 13.1131 40.0327C13.3307 40.2172 13.5373 40.3559 13.8048 40.4563L13.8376 40.4689C14.2944 40.6383 14.8039 40.5926 15.2785 40.593L19.5642 40.5931C19.9987 40.5927 21.774 40.661 21.9104 40.0258C21.9612 39.7898 21.9829 38.7916 21.9264 38.5133L21.8647 38.5199ZM26.0883 38.5199C26.0536 38.7578 25.9741 39.9553 26.1262 40.1325C26.3772 40.4245 26.8867 40.5717 27.2596 40.5881L32.8906 40.5929C33.6014 40.5921 34.408 40.5959 34.9127 39.9919C35.2127 39.6594 35.3822 39.2985 35.4742 38.8624L34.4298 38.9081C34.2488 38.9243 34.0774 38.9587 33.8934 38.9652L28.5797 38.9818C27.7892 38.9809 26.8099 38.9438 26.1188 38.5179L26.0883 38.5199Z" fill="black"/>
<path d="M19.0924 31.6421C17.9554 32.2748 16.5507 32.0815 15.4453 31.4575C14.9649 31.1864 14.4099 30.7962 14.2712 30.2292C14.1207 29.6143 14.3764 28.8133 15.0602 28.6683L18.8794 28.6635C19.4831 28.6638 20.0353 28.6218 20.272 29.3317L20.285 29.3724C20.3745 29.645 20.3029 29.9235 20.2489 30.193L20.2375 30.248C20.0809 30.8725 19.6269 31.3237 19.0924 31.6421ZM18.6021 29.9411L15.5189 29.9636C15.7793 30.134 15.9938 30.3224 16.2773 30.4723C17.2397 30.9092 18.4215 30.9356 19.0499 29.9541L18.6021 29.9411Z" fill="black"/>
<path d="M32.4954 31.4722C31.0879 32.1981 29.189 32.3852 28.1382 30.9562C27.8137 30.5149 27.6447 29.9849 27.7388 29.4336L27.7446 29.4024C27.8091 29.0494 28.0786 28.7429 28.4399 28.6768L28.4669 28.6721L32.4809 28.6656C32.6671 28.6659 32.9091 28.6368 33.0849 28.7001C33.5649 28.8732 33.9 29.496 33.8064 29.9943L33.7578 30.226C33.5847 30.866 33.0341 31.1724 32.4954 31.4722ZM28.9751 29.9633L28.9886 29.9784C29.091 30.0832 29.1706 30.2065 29.2707 30.3128C29.9792 31.0653 31.2384 30.7563 32.0174 30.2931C32.18 30.194 32.3593 30.0995 32.5043 29.9755L29.2717 29.9571C29.1807 29.9549 29.0621 29.938 28.9751 29.9633Z" fill="black"/>
</svg>
