<svg width="48" height="48" viewBox="0 0 48 48" fill="none" xmlns="http://www.w3.org/2000/svg">
<path d="M38.4897 43.8533C38.0682 43.8648 37.6854 43.8553 37.3062 43.6408L37.2654 43.6176C37.014 43.4768 36.827 43.252 36.5932 43.0873C36.0595 42.7111 35.2536 42.7809 34.6353 42.727C34.2235 42.6911 34.3429 42.5941 34.2022 43.1787C34.0666 43.742 33.5242 45.6136 33.2279 46.0717C32.7516 46.8083 32.0394 47.0539 31.2193 47.0576L27.4705 47.1509C27.2191 47.1575 26.9522 47.1575 26.7042 47.2025C26.2725 47.2812 25.7989 47.217 25.3591 47.247C24.8985 47.2784 24.4528 47.4664 23.986 47.4875C23.6134 47.5043 23.2343 47.4579 22.863 47.4331L20.5042 47.2503C19.7572 47.194 18.9404 47.1725 18.1807 47.1293L17.3084 47.0684C15.511 47.0159 15.0146 46.9714 14.3648 45.0003L13.8578 43.3578C13.793 43.1282 13.7126 42.9085 13.6757 42.6717C13.0996 42.6943 12.1792 42.7719 11.6762 42.9684L11.6482 42.9795C11.2037 43.1507 11.0428 43.6005 10.3882 43.7906L10.2661 43.8264C9.20002 44.1076 7.99786 43.2683 7.58583 42.3158C7.49967 42.1166 7.45411 41.8983 7.39828 41.6894L7.11216 40.5624C6.88003 39.6411 6.69708 38.6984 6.56433 37.7581L6.31617 36.111L5.92083 31.609L5.91797 25.3339C5.92814 25.0275 5.98214 24.7238 5.99456 24.4186L6.02372 23.4158L6.4568 18.0855L7.49442 9.94949L8.11908 6.60069C8.21564 6.13846 8.27325 5.64571 8.41809 5.19622C9.28059 2.51924 13.9617 0.705801 16.7126 0.549843C17.8422 0.465599 18.9304 0.985073 19.3617 2.07632L20.5119 5.1471C20.5988 5.43936 20.7887 5.8671 20.9063 6.16433L21.9477 8.70871C21.9863 8.79899 22.0087 8.89687 22.0519 8.98415L23.8834 13.3831C23.922 13.4961 23.9798 13.5957 24.0269 13.7053L28.5815 2.27753C29.6684 -1.04839 35.0181 1.28771 36.9841 2.41639C37.9874 2.99231 38.8232 3.63671 39.3751 4.67605C39.7545 5.39052 39.7994 6.28026 39.9852 7.06668C40.1245 7.65669 40.2845 8.58266 40.3637 9.17488L41.205 15.5398C41.2271 15.7299 41.2292 15.9248 41.2555 16.1136L41.8167 21.7503C41.8257 21.858 41.8507 21.9633 41.8592 22.0721L41.9194 23.1567C41.9276 23.2752 41.9561 23.3898 41.9628 23.5111L42.0056 24.7909C42.0205 25.0562 42.0711 25.3181 42.0794 25.5834L42.0857 30.3649C42.0823 31.3458 41.9722 32.3173 41.9114 33.2932L41.6686 36.0655C41.4663 37.7018 41.1872 39.3325 40.7904 40.9337C40.4329 42.3767 40.2145 43.5068 38.4897 43.8533ZM16.7687 1.885C14.8677 2.05891 13.1145 2.71671 11.4653 3.65939C11.8672 4.13773 12.1459 4.68712 12.2915 5.29635L12.8515 8.03643C13.1941 9.87402 13.3685 11.7419 13.5012 13.6057L13.6993 16.1487L13.641 22.5409C13.6314 22.6676 13.6053 22.7892 13.5968 22.9171L13.5615 24.0261C13.5523 24.7645 13.4936 25.5006 13.4748 26.2495L13.4805 31.6596C13.4814 32.1702 13.5571 32.6575 13.566 33.1643L14.0057 37.601C14.0599 37.9445 14.0673 38.3016 14.1419 38.6409C14.3476 38.6692 14.5634 38.6527 14.7707 38.651L21.9898 38.649C22.2867 38.6491 22.6723 38.5791 22.9486 38.7097L22.9742 38.7212C23.2871 38.8649 23.4377 39.1823 23.351 39.5169L23.3448 39.5442C23.2085 40.1047 22.5934 40.0042 22.1668 40.0042L15.1546 40.0037C14.9039 40.0042 14.6472 39.9936 14.3975 40.0109L14.7757 41.8131C14.8262 42.0248 14.8664 42.265 14.9446 42.4668L15.2664 43.5656L15.5394 44.4136C16.0602 46.0235 16.1266 45.7243 17.6418 45.7735L20.8267 45.9617C21.0465 45.9728 21.2631 46.0159 21.4825 46.0305L23.8436 46.1595L24.1959 46.1317C25.3818 45.9524 25.6185 44.7511 25.6211 43.7644C25.6229 43.1009 25.6121 42.4743 25.4866 41.819L25.1419 40.3128C25.039 39.8058 25.0356 39.3835 25.1181 38.8831L25.2138 38.262C25.3917 37.094 25.3638 35.9797 25.113 34.8276L24.7074 33.2891C24.0855 30.7642 24.3347 29.525 25.0131 27.1243C25.8322 24.2253 25.9317 22.0928 24.9132 19.2788L20.6475 9.01194L18.0376 2.37306C17.8512 1.95305 17.1667 1.81283 16.7687 1.885ZM30.805 1.88147C29.9442 2.04039 29.9408 2.38842 29.67 3.09682L24.7443 15.3955L25.7975 17.9306L26.6609 20.5255C27.1734 22.3335 26.902 25.1825 26.4072 26.9417L25.9698 28.4417C25.7516 29.2907 25.4506 30.8076 25.7057 31.6878L26.4714 35.0043C26.6408 35.6094 26.6516 36.8384 26.6157 37.4498L26.496 38.6489C26.7929 38.684 27.115 38.65 27.4156 38.6497L29.408 38.6505L33.8553 38.6717L34.4066 33.4368L34.4339 32.3679C34.4393 32.2411 34.4692 32.1185 34.4807 31.9925L34.5093 25.5636L34.4044 23.1571C34.3816 22.7867 34.322 22.4105 34.3137 22.0412L34.3147 15.4704C34.3251 15.2002 34.3898 14.9374 34.4063 14.6663L34.5888 12.3959C34.7708 10.3909 35.1863 5.26968 36.527 3.67438C35.1697 2.7344 32.3729 1.76665 30.805 1.88147ZM37.5739 4.45351C36.9442 5.13299 36.7956 6.19658 36.6222 7.06982L35.9077 11.8831L35.6775 15.1258C35.6671 15.3095 35.6204 15.4867 35.6127 15.6733L35.6111 21.7307C35.6173 21.9203 35.6695 22.1075 35.6785 22.2993L35.713 23.8831C35.738 24.4846 35.8009 25.0737 35.8197 25.6956L35.7791 32.2963L35.4724 36.26L34.7902 40.681C34.7409 40.9188 34.7031 41.1704 34.6317 41.4021C35.7895 41.4967 36.9234 41.4893 37.7884 42.3946C38.2063 42.7431 38.7399 42.4748 39.0377 42.0903C39.2453 41.8224 39.3247 41.485 39.4021 41.1619L40.1961 37.2515L40.6858 32.6171L40.7892 30.4735L40.79 25.9682L40.629 23.0487C40.6134 22.7914 40.6125 22.5318 40.5776 22.2762L40.2239 18.5319L39.3982 11.6018L38.5615 6.63308C38.398 5.81563 38.2829 4.99415 37.5739 4.45351ZM10.4039 4.48855C9.80002 4.87935 9.6143 5.70796 9.47137 6.36355C8.74092 9.71362 8.31427 13.1159 7.92797 16.5187L7.32361 23.3557L7.28288 24.9208C7.2742 25.1868 7.21031 25.4443 7.20342 25.7126L7.2022 30.8969C7.2097 31.1611 7.27941 31.4145 7.28761 31.6761L7.32225 33.012C7.32816 33.1189 7.34948 33.2225 7.35923 33.3284L7.54903 35.4143C7.64789 36.2458 7.74028 37.0868 7.8953 37.9104L8.29777 39.9261C8.35584 40.1772 8.38922 40.442 8.47622 40.6859L8.71913 41.6106C8.84939 42.1642 9.72112 42.9119 10.2482 42.3901C11.0795 41.4993 12.2147 41.4884 13.3443 41.3782L12.6851 37.6878L12.3085 33.9408C12.2617 33.3006 12.1758 32.6425 12.1719 32.0145L12.1767 24.7109C12.1849 24.5015 12.2446 24.3063 12.2628 24.1002C12.3038 23.6338 12.2872 23.1662 12.3093 22.6995C12.3235 22.399 12.384 22.1033 12.3911 21.8023L12.3861 15.7108C12.3769 15.4881 12.3447 15.2688 12.3247 15.0471L12.2114 13.594C12.0549 11.3931 11.2419 4.40777 10.4039 4.48855ZM26.4203 39.9972C26.4298 40.1077 26.4372 40.208 26.4745 40.3142L26.571 40.7074C26.6025 40.8053 26.6141 40.905 26.6375 41.0042L26.8665 42.1781C27.0396 43.3232 26.9452 44.8256 26.5403 45.8893C27.1504 45.8067 27.7906 45.8558 28.406 45.8424L31.1262 45.7264C31.8532 45.6897 32.0998 45.6005 32.3141 44.9127C32.5065 44.2986 33.6626 40.4452 33.5842 40.0104L26.4203 39.9972Z" fill="black"/>
</svg>
