<svg width="48" height="48" viewBox="0 0 48 48" fill="none" xmlns="http://www.w3.org/2000/svg">
<path d="M33.3515 39.4926C32.8605 39.6486 32.1112 39.7407 31.598 39.592C30.4646 39.2636 30.3368 39.0747 29.127 39.069C28.7916 39.0675 28.4594 39.0674 28.1296 39.1375C26.0121 39.5882 25.9351 39.1707 24.1552 38.1446C23.8251 37.9543 23.9318 38.0187 23.6107 38.2367L22.3988 39.0165C21.2149 39.6978 20.2628 39.0709 18.959 39.0687L18.1453 39.0769C17.5381 39.1105 16.9491 39.4706 16.3588 39.6039C15.0848 39.8914 13.4367 39.199 12.7242 38.0839L12.7104 38.0618C12.5697 38.3293 12.4865 38.6444 12.3867 38.9297L11.951 40.1534C11.8078 40.5809 11.6979 41.007 11.4272 41.3766C10.1193 43.1616 7.4886 43.2801 6.81117 40.9765C6.68549 40.549 6.84379 39.7979 6.8466 39.3098L6.8437 36.4121L6.59995 32.4444C6.53756 31.8008 6.47915 31.1458 6.47442 30.5014C6.46237 28.8473 6.58771 28.069 6.95353 26.4246L10.4972 11.5547C10.5647 11.2514 10.6079 10.9449 10.7045 10.6484C11.343 8.68697 13.141 7.5286 14.9717 6.83564L18.3219 5.54339C18.6038 5.42658 18.8729 5.29322 19.1801 5.25792C20.2883 5.26402 20.0646 6.20531 20.1358 6.89128C20.1781 7.29975 20.2764 7.70574 20.3874 8.10033L20.6648 8.84133C21.1873 10.0906 22.1384 10.8661 23.1969 11.6303C24.0632 12.2558 23.9109 12.3446 24.7966 11.6599L25.5053 11.1175C26.8652 10.0751 27.9206 8.23927 27.8624 6.48675C27.8571 6.32672 27.8344 6.156 27.8586 5.9977L27.8643 5.96489C27.9442 5.48574 28.4693 5.16361 28.934 5.27503C29.212 5.34169 29.497 5.47964 29.7652 5.58267L31.6222 6.30989C32.4282 6.62874 33.258 6.88303 34.0413 7.25761C35.2722 7.84613 37.0219 9.2633 37.3016 10.6796L39.9207 21.5391C39.9897 21.9297 40.1413 22.3152 40.2029 22.7084L41.3519 27.9343C41.4879 28.5176 41.6532 30.8443 41.485 31.4777C41.4023 31.7892 41.4207 32.1669 41.3901 32.4904L41.213 34.6637C41.1976 34.8459 41.1497 35.0243 41.1399 35.2084L41.1164 38.1264C41.1159 38.7325 41.0583 39.4094 41.1791 40.0039C41.6864 42.5014 38.806 43.6421 36.9558 41.7809C36.2704 41.0915 36.1364 40.51 35.8246 39.5995L35.4252 38.4383C35.3819 38.3156 35.323 38.2007 35.281 38.0769C34.723 38.7792 34.2396 39.1927 33.3515 39.4926ZM17.1617 7.7227C15.7633 8.29617 14.6889 8.53833 13.4451 9.44649C14.1757 10.2643 14.0074 10.471 14.3697 11.4213L14.6596 12.4468C14.9897 13.4668 15.2958 15.2659 15.3438 16.289L15.3371 18.2324L15.0763 22.6421L13.9321 33.1758C13.7768 34.2646 13.2705 35.3963 13.5954 36.4922C13.8642 37.3988 15.0832 38.292 16.0493 38.0425C16.3968 37.9527 16.7182 37.7824 17.0608 37.6778C18.0337 37.3808 19.0409 37.3838 20.0373 37.5372L21.056 37.7552C21.3112 37.8096 21.4612 37.7011 21.683 37.5692L22.5902 36.9782C22.7777 36.8533 23.1248 36.6867 23.2541 36.5793L23.254 34.8868L23.2272 30.6533C22.3774 30.9795 21.2924 30.9038 20.473 30.527C18.9697 29.8356 19.0753 29.9579 17.5947 30.769C17.4329 30.8576 17.2439 30.9871 17.0609 31.0219C16.2296 31.1798 15.6941 30.0794 16.3512 29.6019C16.5338 29.4692 16.7729 29.379 16.9749 29.2747C18.2679 28.6075 19.1138 28.0843 20.6418 28.8278C21.3826 29.1883 22.0799 29.4886 22.887 29.0416L23.0304 28.951C23.4023 28.7004 23.2544 28.6102 23.2546 28.1606L23.2539 14.941C23.2538 14.5004 23.2898 14.0278 23.2424 13.5925C22.9637 13.5837 22.6742 13.5897 22.3982 13.5504C19.4744 13.1341 17.5891 10.574 17.2152 7.78027C17.2079 7.72542 17.2174 7.72852 17.1617 7.7227ZM30.8041 7.74731C30.2659 11.0333 28.1616 13.4924 24.7551 13.5917L24.7514 28.6945C24.7524 28.759 24.7887 28.7961 24.8359 28.8399C25.7957 29.7302 26.7069 29.062 27.6038 28.708C28.2802 28.4412 29.1578 28.4098 29.8372 28.6815C30.2533 28.848 31.7002 29.5213 31.8681 29.9067L31.9127 30.0498C32.0421 30.452 31.6974 30.9082 31.319 31.0146C31.03 31.0959 30.7169 30.9338 30.4654 30.8073L29.8143 30.4634C28.3982 29.6745 28.3923 30.2807 27.07 30.7112C26.3551 30.944 25.4877 30.8762 24.7775 30.6709C24.7101 31.1316 24.7513 31.6425 24.7511 32.1098L24.7506 34.8038L24.7482 36.5633C24.7953 36.6327 24.8275 36.6591 24.9017 36.6983C25.6191 37.0768 26.1724 37.7728 26.9865 37.6457L27.5128 37.5648C28.2538 37.4423 29.0987 37.3579 29.8528 37.4355C31.0383 37.5573 31.9325 38.3585 33.0049 37.9294C34.8846 37.1774 34.521 35.4344 34.2486 33.8672L33.3059 25.6172L32.712 18.2753C32.6556 17.4538 32.583 16.6018 32.6881 15.7817L32.8144 14.7774C33.0106 13.6232 33.3329 12.4904 33.6576 11.3672C33.8736 10.6198 33.9815 10.0523 34.5426 9.4755C33.6929 8.69663 32.3852 8.28394 31.3217 7.91044L30.8041 7.74731ZM12.4248 10.668C12.3508 10.8024 12.2864 10.93 12.2333 11.0743L12.2209 11.1068C12.1363 11.3325 12.0963 11.5827 12.0473 11.8184L8.90859 24.7969L8.4704 26.8196C8.01735 28.8536 7.91428 29.6211 8.10412 31.7628L8.2611 34.0665C8.2687 34.1723 8.29837 34.2733 8.30606 34.3776L8.35743 35.754C8.36742 35.9645 8.40763 36.1703 8.41176 36.3825L8.41223 39.5391C8.40154 40.0437 8.10764 40.8632 8.76599 41.0873L8.80171 41.1003C8.97149 41.1593 9.1206 41.1276 9.2879 41.0842C10.2926 40.8097 10.4962 39.5182 10.7947 38.6842C11.2298 37.4686 11.5986 36.2353 11.9012 34.9805L12.2722 33.2699L13.5875 21.1993C13.6457 20.5602 13.5982 19.9073 13.617 19.2657C13.6393 18.5086 13.7863 17.7585 13.7862 16.9947C13.7859 15.2681 13.3806 13.6421 12.899 11.9959C12.7846 11.6052 12.6978 11.1548 12.4987 10.7999L12.4248 10.668ZM35.6043 10.7375C35.0362 11.6083 34.3851 14.7222 34.2582 15.75C34.1178 16.8873 34.2473 18.1011 34.3246 19.2389L34.5104 21.6778L35.6361 32.8008L35.9546 34.5352C36.0313 34.9154 36.0962 35.329 36.227 35.6941L37.5966 39.9255C37.7661 40.4646 38.242 40.9373 38.7863 41.0962C39.1805 41.1762 39.4754 41.0874 39.6578 40.7197C39.659 40.4734 39.6084 40.26 39.5873 40.0196L39.5677 35.4727C39.5768 35.299 39.6276 35.1415 39.64 34.9738L39.7826 32.9505C39.8991 31.6609 40.0334 30.3787 39.9458 29.0805C39.8867 28.2034 39.6435 27.3047 39.4436 26.4507L36.1254 12.4886C35.9903 11.9156 35.9266 11.2414 35.6043 10.7375Z" fill="black"/>
</svg>
