<svg width="48" height="48" viewBox="0 0 48 48" fill="none" xmlns="http://www.w3.org/2000/svg">
<path d="M27.6746 41.2531C26.4298 40.8198 25.3267 40.0942 24.503 39.0522C23.7954 38.1571 24.2448 38.0874 23.5787 38.9619C22.167 40.8156 19.8156 41.7091 17.5295 41.5757C16.7599 41.5308 14.8653 41.2972 14.1742 41.0349C13.9364 40.9448 13.7929 40.8035 13.6911 40.5729L13.6757 40.537C13.5495 40.2486 13.6534 39.9956 13.6874 39.7022C13.7529 39.1374 13.321 38.7505 13.0015 38.3444C12.9266 38.5201 12.9195 38.7277 12.8734 38.9124C12.6921 39.6383 12.3599 40.3024 11.8819 40.8766C11.6006 41.2145 11.2337 41.4305 11.2297 41.9037L11.2258 42.4458C11.222 42.8735 10.9657 43.2259 10.5629 43.3916L10.4662 43.4317C10.1721 43.5478 9.74517 43.4817 9.43533 43.482L7.21181 43.481C7.06603 43.4807 6.89728 43.4973 6.76139 43.4364L6.73059 43.422C6.057 43.1131 6.01973 42.6878 6.01894 42.0443L6.01134 40.5181C6.00155 40.3178 5.96025 40.1231 5.92987 39.9258L5.65247 38.2032C5.59406 37.7703 5.60269 37.314 5.60156 36.8778L5.61216 35.3765C5.62303 35.0304 5.66766 34.6944 5.69995 34.3505L6.73687 26.3321L7.34372 19.8803L8.15311 14.9649C8.94891 11.379 10.4542 10.1428 13.4792 8.48321L15.405 7.5039C15.8118 7.3201 16.224 7.1401 16.664 7.0546C16.9049 7.00782 16.9361 6.87671 17.0918 6.69198L18.1469 5.39335C18.3826 5.09284 18.5769 4.68121 18.9708 4.57329C19.3988 4.5309 19.6891 4.77727 20.0498 4.96346C22.7552 6.35968 25.0384 6.47162 27.6989 5.08787C28.657 4.58958 28.8638 4.15823 29.6837 5.16052L30.5198 6.20743C30.7219 6.46384 30.9761 6.71734 31.1375 6.99976L31.1584 7.03768C31.7114 7.07917 32.1942 7.29756 32.6927 7.52987L34.0992 8.26285C35.9809 9.33109 37.7925 10.4079 38.9058 12.3165C39.7777 13.811 40.2487 16.8869 40.503 18.586L41.2521 25.793L41.7698 30.2632C41.7932 30.464 41.8039 30.6683 41.8407 30.8672L42.3652 35.0211C42.4994 35.8714 42.4404 37.9821 42.3167 38.7808C42.2154 39.435 42.0203 40.0879 41.9766 40.7465C41.9159 41.6596 42.3483 42.9379 41.3352 43.3872L41.2968 43.4037C41.0174 43.5277 40.7282 43.481 40.4305 43.4815L38.1114 43.482C37.3762 43.4822 36.774 43.2148 36.7687 42.4182L36.7653 41.8642C36.7577 41.5916 36.663 41.504 36.4873 41.2992L36.1172 40.851C35.541 40.1153 35.2424 39.2541 35.0641 38.3461C34.7026 38.7015 34.2136 39.1545 34.3055 39.7085C34.4938 40.8449 34.2897 40.9386 33.0819 41.1916C31.2853 41.5679 29.4615 41.7937 27.6746 41.2531ZM19.3395 6.29612L17.6265 8.51181C18.024 9.59396 18.3181 9.98485 19.0515 10.9159L20.2987 12.5157C21.3816 13.964 22.1832 15.5462 22.7226 17.2688L22.9128 17.9746C23.0261 18.3449 23.0898 18.7286 23.1699 19.1065L23.8242 23.6347C23.8686 24.0165 23.8474 24.7078 24.0078 25.0102C24.0312 24.9861 24.0347 24.8582 24.0393 24.8182L24.6592 20.1212C24.6734 20.0278 24.681 19.8845 24.7179 19.7995C25.1606 16.9884 26.2287 14.4024 27.9832 12.1409C28.8686 10.9997 29.8801 9.83621 30.3866 8.46671L28.6526 6.28787C28.0517 6.58393 27.4485 6.8919 26.813 7.1086C24.3554 7.94673 21.5675 7.61448 19.3395 6.29612ZM31.8049 8.7774C31.3062 10.4241 30.1867 11.6556 29.172 12.9969C25.7863 17.472 26.3726 20.1269 25.4007 25.3496L24.8128 28.3124C24.6639 29.058 24.4122 30.0343 24.3802 30.7852C24.2815 33.1 25.8735 36.1506 28.3476 36.5618C28.941 36.6604 29.7464 36.5365 29.9561 37.2774C30.0578 37.6369 29.7462 38.0776 29.3894 38.1437C28.4023 38.3266 26.6145 37.6009 25.8669 37.0412L24.7316 36.0427C24.998 38.2089 27.235 39.8761 29.3092 40.0408C29.9072 40.0883 30.4816 40.0276 31.0732 39.9695L31.6806 39.9212C32.0488 39.8751 32.4203 39.7839 32.7898 39.7621C32.8308 38.7421 33.0817 38.2146 33.8384 37.4649C35.5538 35.7654 35.3557 34.3691 34.9042 32.1525L34.304 29.0626C34.0172 27.1943 34.1441 26.7966 34.413 25.0291L35.1306 20.5322C35.201 20.0106 35.1804 19.2472 35.8359 19.1214L35.8667 19.1153C36.1695 19.0621 36.4425 19.2139 36.5643 19.4883L36.5762 19.5136C36.675 19.7311 36.6643 19.9842 36.6367 20.2158L35.8708 25.3008C35.6436 26.6358 35.5329 27.3407 35.7125 28.6678L36.2353 31.3711C36.5407 32.6813 36.8662 34.2199 36.6365 35.5451L36.5273 36.2409C36.2764 37.6794 36.5148 39.0555 37.5038 40.1815C38.1796 40.9509 38.1771 40.9851 38.2314 42.0057L40.5124 42.011L40.519 40.8312C40.5196 40.5442 40.507 40.262 40.566 39.9796L40.6574 39.4149C40.9706 37.7857 41.0707 36.5309 40.9123 34.8579L39.9614 27.7618L39.1894 19.7906L38.9362 18.0704C38.6717 16.2691 38.4248 14.2013 37.3883 12.6481C36.3815 11.1393 33.451 9.51001 31.8369 8.77009L31.8049 8.7774ZM16.1149 8.82428C14.6644 9.5072 13.2517 10.2128 11.9648 11.1811C9.89728 12.7367 9.68067 14.6079 9.23531 17.0514C8.91 18.8362 8.67258 20.6519 8.53087 22.4604L8.34534 24.5743C8.29912 25.1059 8.26383 25.6376 8.2148 26.1695L7.54589 31.793C7.29337 33.527 6.79008 36.6038 7.15261 38.3043L7.44 40.1499C7.56094 40.7508 7.41356 41.4046 7.48397 42.0117L9.76547 42.0033C9.74939 40.7646 10.0297 40.8583 10.7513 39.9258C11.5632 38.8767 11.7446 37.5951 11.5251 36.3165C11.4756 36.0284 11.3992 35.7404 11.3608 35.4507C10.9767 32.5565 12.5214 29.8727 12.3692 27.0354C12.2875 25.5128 10.9847 20.4321 11.6205 19.7696C11.8003 19.5822 12.0592 19.4848 12.3091 19.5624L12.345 19.5733C12.9602 19.7656 12.8765 20.4828 12.9336 20.998L13.5133 24.4762C13.5813 24.7914 13.6555 25.1157 13.7006 25.435C13.87 26.1374 14.0058 27.6541 13.857 28.3968L12.996 32.6203C12.7892 33.6955 12.5809 34.7191 12.9865 35.7891L13.0601 35.9739C13.6665 37.3214 14.9975 37.8876 15.1799 39.3165C15.1869 39.3712 15.1973 39.7433 15.2163 39.7588C15.339 39.8585 16.4772 39.9461 16.6843 39.9665L17.2065 40.0345C19.7882 40.2618 22.4032 39.1356 23.174 36.4728C23.2159 36.3279 23.2641 36.1614 23.2514 36.0087C21.8834 37.4392 20.4427 38.1112 18.4188 38.158C17.5529 38.1781 17.1733 37.2604 18 36.7729L18.0252 36.7568C18.2854 36.5943 18.7518 36.6914 19.0546 36.6517C20.8368 36.4182 22.3355 35.2824 22.7706 33.4705L22.8598 32.987C22.8809 32.8479 22.7996 32.2761 22.7989 32.0455L22.7967 30.0094C22.7973 29.736 22.7601 29.4336 22.853 29.1713C22.9942 28.7729 22.8561 27.7156 22.8124 27.2972L22.0578 21.4238C21.461 17.1033 20.6389 15.3507 18.0187 11.9982C17.3817 11.1833 16.742 10.4272 16.3754 9.44246C16.3055 9.25468 16.2671 8.98445 16.1655 8.81968L16.1149 8.82428Z" fill="black"/>
</svg>
