<svg width="48" height="48" viewBox="0 0 48 48" fill="none" xmlns="http://www.w3.org/2000/svg">
<path d="M26.4438 46.3028L22.3377 46.3482C22.1808 46.3421 22.0267 46.3106 21.8702 46.3042L21.0318 46.2821C18.9202 46.1617 17.391 45.8328 15.4053 45.2417L11.9849 44.2091C10.6285 43.8187 10.6648 44.0623 10.5888 42.5573C10.5773 42.328 10.5258 42.1047 10.5145 41.8759L10.4735 39.867L10.5131 35.553L10.6136 33.5684C10.623 33.3966 10.6555 33.2276 10.6686 33.0562L10.9556 29.3203C11.2261 26.3286 11.5997 23.3611 12.1552 20.4075L12.3464 19.4061C12.4143 19.0573 12.4184 18.5581 12.6425 18.2697C13.0877 17.6968 13.8807 18.1084 13.8211 18.8961C13.7911 19.2939 13.6908 19.6938 13.6195 20.0858L13.2154 22.286L12.4796 27.7037L12.2301 30.6777C12.1657 31.526 12.0341 32.3703 12.0506 33.2232C12.9973 32.1573 14.2442 31.2042 15.4692 30.4912C16.6497 29.8041 17.7414 29.3433 18.4068 28.0669C18.6677 27.5663 18.8497 27.0127 19.5068 27.293C19.7008 27.3757 19.7957 27.5305 19.8745 27.7147L19.8867 27.7414C20.1467 28.3419 18.9402 29.8448 18.5173 30.2334C17.8766 30.8222 17.1286 31.1696 16.3775 31.5859C14.8547 32.4299 13.6096 33.5637 12.4551 34.8613C11.9258 35.4562 11.8795 35.1174 11.8789 35.9366L11.8788 36.9263C11.9962 37.0099 12.176 37.0221 12.3151 37.0663L13.1254 37.3423C14.0248 37.6626 14.9257 37.9873 15.8496 38.2312C17.8233 38.7523 19.2214 38.8405 21.2041 38.8742L21.2067 15.7254C21.2076 14.7963 21.3928 13.9375 21.7713 13.0827L21.9962 12.6073C22.044 12.5093 22.1096 12.3951 22.1274 12.2881C20.8351 11.9968 19.6264 11.368 18.5676 10.5859C18.2915 10.382 18.0549 10.1352 17.7713 9.93928C17.2978 10.1175 16.8495 10.348 16.3715 10.5171L14.1874 11.2979C11.9798 12.0833 11.1268 12.4834 10.0724 14.8016C9.36705 16.3523 9.06307 17.7385 8.63674 19.3402C8.41216 20.184 7.21868 19.9172 7.24961 19.1351C7.25918 18.8935 7.37022 18.6067 7.4299 18.3703C8.14619 15.5328 9.20013 11.9627 12.0334 10.6162C12.7155 10.292 13.4493 10.0621 14.1635 9.82125L16.9198 8.77092C16.4328 7.73479 16.4821 7.1691 16.4871 6.04814C16.4885 5.72062 16.4481 5.32682 16.5324 5.01271L16.6122 4.71131C16.8366 4.09126 17.2556 3.56581 17.8518 3.27213C18.1813 3.10988 18.4817 3.13449 18.8255 3.05522L18.8559 3.04802C19.0559 3.00356 19.2318 2.91145 19.4165 2.82527L20.2342 2.43318C21.2718 1.93674 22.3848 1.68765 23.5301 1.63041C24.9504 1.56767 26.3103 1.82222 27.6148 2.3815C28.0589 2.57187 28.4869 2.81542 28.9387 2.98569C29.3131 3.12683 29.7106 3.08004 30.0832 3.24203C31.4614 3.84113 31.5142 4.98895 31.5168 6.21998C31.5188 7.19807 31.5505 7.87893 31.1019 8.79173L35.9584 10.6119C37.6556 11.4402 38.9633 13.2649 39.5429 15.0488L39.8611 15.9208C40.0604 16.4075 41.0031 19.9512 40.8486 20.2957L40.8056 20.3912C40.717 20.5719 40.5618 20.6928 40.3713 20.7527C39.5433 21.0131 39.4578 19.8499 39.3552 19.3849C38.7951 16.8463 37.9473 13.2161 35.5093 11.9445C35.0667 11.7137 34.5766 11.5751 34.109 11.4047L30.5769 10.0925C30.3391 10.0002 30.3185 9.92587 30.1232 10.0792L29.7125 10.3949C28.7999 11.0819 27.8142 11.6863 26.7197 12.0352L25.8209 12.289L26.3336 13.3931C26.6357 14.2613 26.7855 14.8625 26.7858 15.7981L26.7887 38.837C26.9516 38.875 27.1402 38.8572 27.3072 38.8577L29.3543 38.8404C30.2386 38.7834 31.169 38.6362 32.0278 38.434C33.4293 38.104 34.7499 37.51 36.1411 37.1607C36.0705 36.5961 36.1345 36.0137 36.1065 35.4451C36.0319 35.3482 35.5653 34.9746 35.4373 34.8631L34.7823 34.3276C34.6154 34.1911 34.4618 34.0462 34.2881 33.9162L32.0574 32.3978C30.956 31.6937 29.7194 31.0318 28.9715 29.9202C28.6717 29.4745 28.0038 28.349 28.1248 27.7809C28.2069 27.3956 28.6156 27.1817 28.9842 27.284C29.4153 27.4036 29.4981 27.877 29.6259 28.242C30.0323 29.4032 31.1272 30.1196 32.1115 30.7547L33.3754 31.5696C34.0794 32.0171 35.3633 32.8964 35.9628 33.4867L35.8151 30.9355L35.3402 26.3695L34.678 21.663L34.1334 18.7118C34.0286 18.249 33.8451 17.7104 34.4254 17.4687C34.7785 17.3216 35.2043 17.5395 35.3341 17.8866L35.3446 17.9178C35.5143 18.2924 35.5391 18.7508 35.6257 19.1483L35.9633 21.0441C36.0059 21.3291 36.0418 21.6191 36.0946 21.9022L36.2409 22.7779C36.2863 23.1219 36.3221 23.47 36.3775 23.8124L37.1137 30.1169L37.3848 33.9774L37.5139 37.8919C37.525 38.1052 37.56 38.3139 37.5655 38.5285L37.4732 42.3643C37.4504 43.6994 37.5801 43.7774 36.2112 44.1793L32.3298 45.306C30.3971 45.8809 28.4714 46.2702 26.4438 46.3028ZM23.7318 3.05697C22.1804 3.09817 21.573 3.4122 20.2016 3.99212C20.184 4.04101 20.2452 4.17068 20.2678 4.22107C20.6952 5.17518 21.6299 6.06942 22.5356 6.58373C23.0613 6.88228 23.5569 7.08623 24.0092 7.49882L24.1601 7.35159C24.6424 6.94153 25.1974 6.75581 25.7314 6.43879C26.4656 6.00295 27.592 4.89328 27.7781 3.99582L27.7476 3.98631C27.4143 3.879 27.09 3.68996 26.7634 3.55736C25.8034 3.16758 24.7667 3.0073 23.7318 3.05697ZM29.1698 4.42953C28.5385 5.8327 27.6179 7.00129 26.2473 7.76325C25.1907 8.35068 24.6722 8.26593 24.6707 9.62207C24.6699 10.2698 24.6643 11.28 25.577 10.9372C26.4709 10.6691 27.2755 10.3183 28.0741 9.83259C29.5339 8.94478 30.1949 8.14293 30.1814 6.45904C30.1757 5.754 30.2351 4.6045 29.2973 4.4516L29.1698 4.42953ZM18.6663 4.48489C18.5138 4.52315 18.4097 4.57463 18.2817 4.66411L18.2592 4.67954C17.7318 5.05387 17.8279 5.95279 17.8266 6.51703C17.8259 6.83226 17.8036 7.20979 17.8935 7.51734C18.4452 9.40462 20.8217 10.4819 22.5521 10.964C23.5531 11.1383 23.3609 9.64546 23.28 9.0344C23.1836 8.30686 22.3635 8.10871 21.8233 7.80014C20.7093 7.16371 19.3925 5.88932 18.9426 4.64751C18.8746 4.45958 18.8714 4.46779 18.6663 4.48489ZM23.9949 11.8689C23.4469 12.6097 22.6673 14.3893 22.5788 15.2282C22.551 15.4919 22.563 15.7663 22.5632 16.0317L22.5637 43.623C22.5638 44.0558 22.5416 44.499 22.57 44.93L24.059 44.9298L25.4181 44.9391C25.4371 44.7725 25.426 44.5958 25.426 44.4278L25.4253 16.8671C25.4248 14.7637 25.4009 14.4965 24.3799 12.5155C24.3031 12.3665 24.2318 12.1441 24.1301 12.0156L23.9949 11.8689ZM11.8169 38.3938L11.9584 42.7248L13.9692 43.3386C15.3461 43.7882 16.7516 44.2611 18.1762 44.5304L21.1762 44.8897C21.1964 44.8318 21.1889 44.8614 21.1987 44.8006L21.2065 41.7563C21.2064 41.2818 21.2463 40.7689 21.1966 40.2984L19.3073 40.2224C18.0453 40.122 16.796 39.9445 15.5696 39.6204L13.9851 39.1263C13.2607 38.8938 12.5238 38.6759 11.8169 38.3938ZM36.1176 38.66L32.602 39.7498C31.4681 40.0521 30.229 40.2453 29.0512 40.2876L26.7881 40.2903L26.7869 44.4148C26.7872 44.556 26.7716 44.7173 26.8 44.8553L26.8592 44.8581L27.8276 44.8059C29.4486 44.6462 30.4966 44.3845 32.0216 43.9299L36.0746 42.7674L36.1868 39.4307C36.1866 39.1769 36.2026 38.9113 36.1756 38.6598L36.1176 38.66Z" fill="black"/>
</svg>
