<svg width="48" height="48" viewBox="0 0 48 48" fill="none" xmlns="http://www.w3.org/2000/svg">
<path d="M28.9741 41.9651C27.397 41.5895 25.7838 41.04 24.3994 40.1764C24.1535 40.023 24.1377 39.8941 23.8822 40.0248L21.9447 41.026C19.9176 41.9034 17.7937 42.2224 15.6127 42.3882L14.3792 42.4454C13.0315 42.4478 11.4848 41.6739 11.2615 40.2321L11.2583 40.2093C10.9683 40.1231 10.6572 40.0882 10.3596 40.0315L8.5393 39.6798C8.18075 39.6093 7.81958 39.5702 7.48569 39.4112C5.99211 38.7 5.82355 37.2516 6.2833 35.8148C6.43719 35.334 6.46531 35.6489 6.26272 35.1267C5.96323 34.3548 6.09631 33.589 6.18041 32.7889L6.45566 30.3632C6.93116 26.3589 7.54808 22.375 8.49594 18.4519C8.97861 16.4541 10.3872 11.233 11.8147 9.66784C12.8376 8.54635 14.3904 8.05093 15.8788 7.98802C16.0242 7.72482 16.1863 7.4648 16.3081 7.18974C16.4177 6.9422 16.4711 6.66934 16.6077 6.43351C16.972 5.80491 17.6346 5.47454 18.3409 5.44824C18.6318 5.45663 18.9088 5.48795 19.1798 5.60424L19.2186 5.6214C19.5089 5.74702 19.7424 5.94123 20.012 6.09966C21.1616 6.77504 22.5178 6.76768 23.806 6.76848C25.7106 6.7697 26.8203 6.86991 28.4556 5.80355C29.6185 5.0453 31.1245 5.57354 31.59 6.86705C31.633 6.98659 32.0687 7.95395 32.1428 7.98568C32.1827 8.00279 32.2748 8.00377 32.3208 8.0101L32.9114 8.07882C34.892 8.29571 36.1201 9.20279 36.9681 10.9154L38.0778 13.5736C38.3402 14.288 38.6217 15.0303 38.795 15.7722L39.6404 19.0253C39.7032 19.3928 39.8175 19.7587 39.9004 20.1226L41.0671 26.6952L41.7244 31.9184C41.8396 33.0099 42.1058 34.1867 41.6874 35.2446C41.5859 35.5011 41.5495 35.4592 41.6441 35.7117C42.1731 37.1234 42.1062 38.7307 40.5469 39.4192C40.0917 39.6202 39.5671 39.6686 39.0819 39.7614L36.7603 40.2048C36.5341 41.195 35.7483 41.9518 34.8045 42.2816L34.4125 42.3887C34.1185 42.4789 33.7868 42.4472 33.4815 42.4473L32.4408 42.437C31.2748 42.377 30.118 42.1917 28.9741 41.9651ZM18.242 6.9211C17.8361 6.98541 17.9138 7.15735 17.7667 7.48365C17.6654 7.70855 17.0957 8.64474 17.143 8.76845C18.6684 12.7589 20.2854 15.4017 23.9966 17.5186C25.4996 16.7488 26.8097 15.6397 27.8681 14.3295C28.8109 13.1154 29.5586 11.8274 30.1707 10.4166L30.8892 8.65791C30.551 8.14491 30.3929 7.70631 30.1415 7.17441C29.9014 6.66643 29.1996 7.02924 28.8866 7.24412C27.3075 8.32796 25.5954 8.23102 23.7929 8.23055C22.2514 8.23018 20.7346 8.20576 19.358 7.40813C18.9662 7.18112 18.7186 6.89865 18.242 6.9211ZM32.123 9.46445L31.5754 10.7971C30.284 13.7469 28.5431 16.4194 25.7534 18.1626L24.974 18.6285C24.8961 18.6722 24.7432 18.702 24.7006 18.7859C24.674 18.8383 24.7015 20.7123 24.7016 20.9002L24.7024 36.5723C24.7025 37.2525 24.7346 37.9513 24.6912 38.6291C26.6318 39.9202 28.8565 40.6037 31.1649 40.8693L31.8207 40.9127C32.8248 41.0121 34.55 41.2073 35.1618 40.2717L35.2736 40.0663C35.3778 39.8414 35.3639 39.6473 35.3642 39.4045L35.3468 37.5983C35.3344 37.3998 35.2942 37.2084 35.2832 37.0099L35.1425 34.9193L34.0594 27.328C33.9355 26.6708 33.8447 25.9976 33.6846 25.3486L33.3211 23.728C33.2735 23.5483 33.2787 23.3462 33.2772 23.1615L33.2759 22.3745C33.2764 21.8259 33.242 19.8046 33.5217 19.341C33.7347 18.9878 34.1915 18.951 34.5153 19.1696C34.9304 19.4499 34.8387 19.9089 34.7817 20.3319L34.7342 20.871C34.6661 21.5282 34.6178 22.4477 34.6898 23.1092C34.7647 23.7969 34.9823 24.4874 35.1193 25.1657L35.7708 28.7134L36.6058 35.4546C36.6335 35.7497 36.6409 36.0539 36.6869 36.3464C37.7145 36.1732 39.5075 36.0041 40.1488 35.0884C40.5865 34.4635 40.5097 33.9284 40.4329 33.2186L39.7877 27.9075C39.7285 27.5161 39.7052 27.1142 39.6326 26.7249L39.178 23.865L38.2813 19.5195C37.7143 17.0714 37.0715 14.6245 36.0392 12.3256C35.0785 10.1863 34.4638 9.73829 32.123 9.46445ZM15.6719 9.50209C14.559 9.60212 13.5224 9.89879 12.7658 10.7927C11.9199 11.7922 10.7698 15.5202 10.4068 16.7811L9.99425 18.41C8.94022 22.4914 8.35353 26.6801 7.83969 30.8583L7.54686 33.4569C7.29542 35.5394 8.66591 35.8948 10.4841 36.2183L11.3067 36.3782L11.5636 33.5278L12.9981 24.6074L13.192 23.7567C13.4863 22.4099 13.2972 21.0352 13.1308 19.6874C13.0932 19.3832 12.9697 19.057 13.0127 18.7499C13.1077 18.0712 14.1305 17.7091 14.4726 18.8572C14.5196 19.0148 14.5142 19.193 14.5398 19.3556C14.7259 20.5384 14.8331 22.3752 14.7022 23.5998C14.6624 23.9728 14.5429 24.35 14.4744 24.7209C14.2457 25.6143 14.1023 26.5381 13.9375 27.445L13.2149 31.8283L12.6215 38.0227C12.6 38.3836 12.5558 39.5429 12.6366 39.8841L12.6424 39.9092C12.6828 40.0681 12.7871 40.2344 12.8842 40.364L12.905 40.3923C13.5366 41.2291 14.752 40.9622 15.6464 40.9067C18.4465 40.7328 20.9094 40.1495 23.289 38.6692L23.2764 18.7648C23.2184 18.7175 23.1774 18.6965 23.1065 18.6725C22.777 18.5611 22.4169 18.2717 22.12 18.082C19.7669 16.5783 18.065 14.2825 16.8654 11.7932L15.8943 9.49257L15.6719 9.50209ZM7.52816 36.8085C7.48137 37.0793 7.44186 37.3662 7.57691 37.6146L7.59191 37.643C7.69236 37.8283 7.8905 38.0049 8.09426 38.0657L11.1917 38.6841L11.2461 38.0492C11.249 37.9841 11.2634 37.9016 11.2438 37.8394C10.1017 37.6741 8.65226 37.429 7.64356 36.8452C7.60044 36.8203 7.57737 36.7953 7.52816 36.8085ZM40.4924 36.7892C39.4658 37.2208 38.8183 37.4649 37.6756 37.686L36.7478 37.8254C36.7483 38.1167 36.738 38.4084 36.7795 38.6974L39.4686 38.1798C40.4187 38.0063 40.5645 37.7213 40.4924 36.7892Z" fill="black"/>
</svg>
