<svg width="48" height="48" viewBox="0 0 48 48" fill="none" xmlns="http://www.w3.org/2000/svg">
<path d="M25.1893 41.3239L21.9485 41.3237C20.3308 41.3243 19.2405 41.2971 17.6191 40.919L15.6714 40.3691C14.6643 40.0642 14.814 39.764 14.8191 38.8905L14.9114 36.1749L14.9756 32.3715C14.9751 30.7094 14.9225 29.0416 14.7222 27.3905L14.1766 23.8688L13.3116 16.2856L13.0367 14.5021C12.9909 14.2493 12.9158 14.002 12.8797 13.7477L12.8756 13.7179C12.3698 15.4777 12.2238 17.0021 12.0483 18.8286L11.9038 20.1853L11.6883 24.3881C11.6792 24.6248 11.6297 24.8562 11.6206 25.0929L11.6146 31.5231C11.6254 31.7442 11.6842 31.9617 11.6926 32.1794L11.7131 33.5038C11.7224 33.7221 11.767 33.9285 11.7811 34.1459L12.0043 37.0106C12.0759 37.5077 12.3076 38.5612 11.3932 38.4352C10.8759 38.3639 10.878 37.663 10.8425 37.2888L10.4312 31.329L10.4287 25.2089L10.6267 21.4854L10.9616 17.6845L11.3684 14.7302C11.5094 13.9824 11.7425 13.2819 12.1043 12.6115C12.8005 11.3214 13.3987 11.2178 14.8006 10.9668C16.5502 10.6535 17.6615 10.0047 18.5099 8.43916L18.8669 7.70796C19.0486 7.30033 19.1879 6.93461 19.57 6.67366L19.5899 6.66025C19.8968 6.44674 20.4161 6.5509 20.771 6.5501L22.8002 6.54747L27.4483 6.54461C28.0955 6.54424 28.5382 6.5021 28.8755 7.15985L29.0632 7.594C29.858 9.62697 30.9774 10.5589 33.1395 10.9475C33.6377 11.0371 34.1314 11.0054 34.6053 11.2277C36.0812 11.92 36.5343 14.4103 36.7502 15.8669L37.2701 20.6209L37.4184 22.8157C37.4267 22.93 37.4536 23.0407 37.4603 23.1557L37.5142 24.6574C37.5242 24.8747 37.5669 25.0863 37.5747 25.3046L37.5752 31.4242C37.5676 31.6977 37.52 31.9658 37.5091 32.238L37.3696 35.1599C37.361 35.3045 37.3306 35.4498 37.3192 35.5958L37.1338 37.5934C37.094 38.0495 36.8626 38.7135 36.2734 38.3808C35.8422 38.1373 35.9436 37.6829 35.986 37.2797L36.2822 33.7467L36.385 31.5617L36.3863 24.9706C36.376 24.6808 36.3272 24.3946 36.3113 24.1056L35.9393 19.2148L35.5255 15.5792C35.4231 14.9542 35.2736 14.3462 35.0866 13.7415C34.8972 14.3818 34.8381 15.0576 34.7349 15.7145L33.6096 25.3005L33.1098 29.3427L33.0604 36.0856L33.228 39.5163C33.2501 40.0912 32.704 40.2704 32.2541 40.4083L31.6119 40.6013C30.6749 40.8446 29.7404 41.0901 28.7787 41.2178C27.5949 41.3749 26.3807 41.3246 25.1893 41.3239ZM20.4645 7.77039C22.2316 9.20524 24.9083 9.31957 26.8743 8.23483C27.1113 8.09983 27.302 7.94449 27.5227 7.79064C27.1045 7.74349 26.6776 7.75961 26.2572 7.75947L21.8401 7.76041C21.3839 7.7606 20.9194 7.74354 20.4645 7.77039ZM19.72 8.73171L19.3583 9.39096C18.9091 10.1261 18.5797 10.4207 17.9945 10.9725L21.1849 12.8292L22.3164 13.3359L22.3302 11.1154C22.3299 10.7461 22.3592 10.3495 22.3213 9.98294C21.4037 9.79755 20.4013 9.388 19.72 8.73171ZM28.287 8.77488C27.4821 9.41289 26.6483 9.7234 25.6766 9.99016L25.6906 13.327C25.7933 13.2664 25.9056 13.2378 26.0139 13.1893L26.8863 12.8081L29.9917 11.0031C29.5729 10.5816 29.148 10.2143 28.8204 9.70929L28.4735 9.12771C28.4187 9.02669 28.3598 8.85883 28.287 8.77488ZM23.4888 10.105L23.4968 13.7925C23.7262 13.8369 23.9432 13.8827 24.1756 13.8345L24.4803 13.7805L24.4891 10.1108L23.4888 10.105ZM16.7924 11.7067C16.5171 11.8012 16.246 11.9 15.9622 11.9684L14.918 12.1789C14.6477 12.2258 13.984 12.2683 13.7651 12.4333C13.7838 12.5105 13.8046 12.5812 13.8315 12.6559L14.0828 13.5911C14.1279 13.747 14.1349 13.9094 14.1678 14.0673L14.4763 16.0112C14.5134 16.1891 14.5162 16.3782 14.5456 16.5583L15.2468 22.7124C15.2907 23.1032 15.3353 23.6387 15.418 24.0082L16.1328 29.735C16.2002 30.0966 16.1645 30.5273 16.1659 30.8972L16.1651 33.0047C16.1644 33.396 16.1481 33.7954 16.1734 34.1856C17.7234 33.9181 18.7775 33.0126 18.5864 31.3942L18.4703 30.3033C18.3469 29.0085 19.5261 29.1219 19.6015 29.9539C19.6538 30.5307 19.7981 31.1077 19.8243 31.6872C19.8884 33.1008 19.1289 34.234 17.9166 34.8741C17.2242 35.1947 16.7577 35.2391 16.1016 35.4408L16.0342 36.7518L17.3507 37.0217L21.2002 37.396L23.4135 37.4165L23.4131 15.6969C23.4129 15.4455 23.4309 15.1769 23.3973 14.9282L23.3699 14.9221C21.3898 14.4668 19.5058 13.3784 17.8039 12.3131L17.192 11.9254C17.0793 11.8531 16.9498 11.7827 16.8518 11.6915L16.7924 11.7067ZM31.2024 11.7067C30.8364 11.9866 30.4219 12.207 30.0275 12.4439C28.6393 13.2777 26.1986 14.663 24.5844 14.9248L24.5679 36.5526C24.5678 36.8322 24.5432 37.1384 24.5815 37.4148L28.1767 37.3109L31.6574 36.9018C31.7362 36.892 31.8189 36.8915 31.8881 36.8508L31.8774 35.4341C31.257 35.3128 30.6896 35.1453 30.1101 34.8918C29.2907 34.4869 28.6421 33.8285 28.3462 32.9509L28.2391 32.5544C28.1053 31.816 28.1958 31.2777 28.3043 30.5374C28.3657 30.1178 28.3126 29.4116 28.8737 29.3279C29.1555 29.2858 29.3736 29.4057 29.4866 29.6598L29.4998 29.6882C29.6836 30.1254 29.2762 31.4345 29.3426 32.061C29.4778 33.3365 30.7285 33.9699 31.8605 34.1891C31.8885 33.7499 31.8761 33.3056 31.8764 32.8656L31.8875 29.8054C31.8967 29.6396 31.9427 29.4825 31.9569 29.32C31.9918 28.9205 31.962 28.5143 32.0053 28.116L32.7149 22.9889L33.5569 15.4567C33.7267 14.4095 33.9035 13.3755 34.2085 12.3565L32.0623 11.9732C31.7681 11.9078 31.4891 11.7648 31.2024 11.7067ZM16.0119 37.9752L15.9834 39.1714C17.4044 39.7349 19.0538 40.0454 20.569 40.1231L23.4083 40.1313L23.4129 38.6169L20.449 38.5371C19.1294 38.4609 17.2994 38.3305 16.0119 37.9752ZM31.9318 38.0505C30.9764 38.2601 30.027 38.3546 29.0587 38.4549L27.9409 38.5529C26.8216 38.6508 25.7053 38.5514 24.5871 38.6332C24.5424 38.8709 24.5252 39.8624 24.5846 40.1263L24.6567 40.1305C27.6208 40.1308 29.2918 40.1079 32.044 39.1718L31.9318 38.0505Z" fill="black"/>
</svg>
