<svg width="48" height="48" viewBox="0 0 48 48" fill="none" xmlns="http://www.w3.org/2000/svg">
<path d="M26.0514 42.6717C25.4427 42.2179 24.8824 41.6809 24.4622 41.0451L23.9919 40.2606C23.0023 42.3414 20.9943 43.5468 18.7664 43.8759C17.9245 44.0003 17.0346 44.0614 16.1876 43.9381L15.3898 43.8287C13.7215 43.5403 12.3421 42.7413 12.0921 40.869C12.0399 40.4784 12.0725 40.1247 12.0888 39.7354L12.3088 36.3282L13.5656 28.2304C13.6754 27.6967 13.6854 27.1619 13.7115 26.6205L13.9066 23.5014C13.9672 22.5307 13.9271 22.1494 13.7709 21.1643L9.89232 31.1706C9.64927 31.7424 9.2199 32.1959 8.97882 32.7559L8.36668 34.4806C8.05266 35.4739 7.57843 35.3155 6.61229 35.1649C5.86576 35.0486 5.12166 34.8938 4.39339 34.6923C3.10759 34.3364 2.87414 34.0995 3.31173 32.9111C3.48523 32.4398 3.64979 31.9376 3.90296 31.5013C3.9744 31.3782 3.92283 31.392 3.84687 31.2681C3.00064 29.8877 3.41279 28.8155 3.89995 27.5014L6.24624 20.9717L8.21499 15.1627C8.74496 13.5722 9.09512 11.91 10.237 10.6173C11.4906 9.19821 13.3329 8.42417 15.1006 7.86659C16.5646 7.40482 16.9655 7.47167 18.0433 6.3485C18.4633 5.91082 19.4327 4.85046 20.0756 4.78165L20.239 4.76853C20.5151 4.77968 20.6634 4.85768 20.9193 4.94848C22.6642 5.5677 25.1977 5.53062 26.9153 4.97543C27.2303 4.87362 27.4668 4.72371 27.8132 4.77354C28.6081 4.88787 29.5458 5.91935 30.074 6.46793C30.2516 6.65239 30.4127 6.88081 30.6343 7.01398C31.3792 7.46159 32.2385 7.66109 33.0578 7.92279C35.5578 8.7214 37.7401 9.85385 38.8454 12.3282C39.0341 12.7507 39.1507 13.1964 39.2892 13.6353L43.1644 24.9659L44.4256 28.3229C44.7184 29.3607 44.7184 30.4894 44.0704 31.4078L44.0576 31.4255C44.1968 31.7054 44.3266 31.98 44.4365 32.2734L44.8373 33.4218C45.2258 34.3942 43.708 34.671 43.1298 34.8167C42.3942 35.0021 41.6714 35.1636 40.9145 35.2385C40.4622 35.2833 40.1155 35.3435 39.8194 34.9165L39.7992 34.8867C39.614 34.6175 39.5509 34.2578 39.4451 33.9508L38.98 32.7245C38.7607 32.2229 38.3905 31.8253 38.1645 31.3263C37.8513 30.6352 37.6032 29.9061 37.33 29.1981L34.8373 22.7999C34.63 22.2555 34.3731 21.7114 34.2356 21.1446C33.9123 22.1873 33.9916 23.2312 34.0879 24.2994L34.4022 28.2081C34.4423 28.5281 34.5428 28.8417 34.5829 29.1617L35.1847 32.5195C35.2625 32.93 35.2865 33.3499 35.3507 33.7617C35.6062 35.4009 35.7576 37.0854 35.8647 38.7405L35.91 40.2388C35.9144 41.9586 34.8434 43.344 33.1352 43.7324C32.81 43.8064 32.465 43.8256 32.1462 43.9048L32.0619 43.9259C31.6954 43.9955 31.2761 43.9652 30.9021 43.9667C29.1124 43.9739 27.5821 43.7274 26.0514 42.6717ZM20.28 6.18246C19.664 6.58878 19.0651 7.19271 18.6239 7.77462C18.7852 9.76953 20.0757 10.2904 21.2653 11.6199C22.2696 12.7424 23.4192 15.0523 23.8293 16.5702C23.8752 16.7399 23.9162 16.8977 24.005 17.051L25.2195 13.9534C25.6468 13.1059 26.138 12.2773 26.7638 11.5594C27.8308 10.3355 29.2699 9.73184 29.3458 7.8185C28.995 7.18404 28.2732 6.59084 27.6772 6.17243C25.6274 6.80281 22.3456 7.02818 20.28 6.18246ZM17.3623 8.54164C16.5927 8.87782 15.7948 9.08009 15.0013 9.34442C10.9215 10.7036 10.6093 12.0921 9.4666 15.6679L7.51759 21.3912L5.21405 27.8087C4.92268 28.5282 4.53291 29.2605 4.77287 30.0557C5.07263 31.0491 6.23991 31.5272 7.19705 31.5192C8.34301 31.5095 8.54157 30.95 8.88887 30.0479L12.9987 19.4209C13.1591 19.0218 13.1658 19.0514 13.0684 18.6336L12.7406 17.3901C12.5793 16.8594 12.1705 16.021 12.9025 15.7252L12.9327 15.7126C13.4494 15.5106 13.7486 15.9922 13.8745 16.4179L14.2857 17.8615C14.4694 18.4656 14.4338 18.9459 14.674 19.6295L15.1237 21.0627C15.3571 21.7704 15.2843 22.627 15.2827 23.3584L15.2603 24.0603C15.2536 24.5244 15.1888 24.9875 15.1525 25.4515L15.0619 26.3671C15.0296 26.9317 15.0544 27.5157 14.9783 28.0751C14.9224 28.4847 14.8084 28.8887 14.7256 29.2937L14.3456 31.4179L13.4995 38.1685L13.4705 39.2762C13.4577 39.6955 13.3772 40.1423 13.4158 40.5585C13.5989 42.5314 15.898 42.6086 17.4109 42.594C20.1996 42.5671 22.6608 41.2575 23.2344 38.3314C23.313 37.9302 23.2699 37.4636 23.2701 37.0537L23.2662 20.0809C23.2659 19.8706 23.2891 19.6188 23.2475 19.414C22.7249 16.841 21.4839 13.5662 19.5119 11.7755C18.4554 10.8162 17.644 10.0754 17.3623 8.54164ZM30.6329 8.54421C30.3004 9.83276 29.6909 10.7755 28.6797 11.6429C28.2437 12.0169 27.8091 12.3777 27.4623 12.8412C26.3703 14.3012 25.5336 16.3981 25.0404 18.1482L24.7557 19.3172C24.7175 19.4776 24.7276 19.658 24.7274 19.8222L24.7251 37.8725C24.7254 38.1692 24.7617 38.435 24.8431 38.7187L24.854 38.7597C25.4347 40.8897 27.3523 42.3028 29.4872 42.5539C30.0083 42.6151 30.5313 42.603 31.0546 42.5934C32.5675 42.5657 34.3712 42.388 34.5663 40.4972C34.6 40.1709 34.5553 39.8301 34.5375 39.5035L34.3947 37.1053L33.3565 29.8604C33.0619 28.4606 33.0029 27.6102 32.8889 26.2047L32.6652 23.2207C32.6118 22.1267 32.7866 21.1318 33.1301 20.0959C33.2411 19.7612 33.4216 19.4084 33.4933 19.0663C33.5472 18.8094 33.5492 18.5374 33.5944 18.2779C33.6648 17.8742 34.0824 16.2101 34.3553 15.9023C34.6034 15.6225 35.0709 15.5649 35.3478 15.8346C35.7163 16.1936 35.4733 16.7482 35.3344 17.1484L35.0835 17.9117C34.8796 18.5507 34.7279 18.7417 34.9691 19.3476L37.9082 27.0109C38.03 27.3091 38.1686 27.6092 38.2705 27.914L39.1568 30.1894C39.3337 30.6715 39.4753 31.166 39.9903 31.3858C41.2625 31.9285 43.0723 31.124 43.2914 29.6249L43.2971 29.5873C43.379 28.9964 42.966 28.2995 42.7675 27.7658L38.9372 16.8469L37.7059 13.119C36.8084 10.7866 34.5009 9.73615 32.2298 9.0792C31.7989 8.95456 31.0094 8.78215 30.6329 8.54421ZM5.01554 32.2851L4.60393 33.3576C5.1414 33.5503 6.47504 33.8419 7.08999 33.8691L7.49096 32.8565C6.77143 32.8883 6.05766 32.7822 5.40629 32.4696C5.32937 32.4327 5.0888 32.2721 5.01554 32.2851ZM42.9745 32.2931C41.9878 32.7809 41.5684 32.8547 40.4839 32.8363L40.7048 33.4971C40.7468 33.5993 40.7718 33.8051 40.8542 33.8637L40.9103 33.8659L43.3784 33.3745L43.1348 32.6956C43.0893 32.5695 43.0418 32.4087 42.9745 32.2931Z" fill="black"/>
</svg>
