<svg width="48" height="48" viewBox="0 0 48 48" fill="none" xmlns="http://www.w3.org/2000/svg">
<path d="M28.2804 13.1948C27.389 14.0559 26.3733 14.5721 25.177 14.8573C22.3032 15.5424 18.7349 13.3644 18.0642 10.4998L17.9105 10.4819C17.7732 10.4962 17.3396 10.5416 17.2678 10.6295C17.2516 10.9227 17.3506 11.3396 17.4512 11.6065L17.662 12.1322C18.3492 13.797 20.0469 15.2532 21.7883 15.6527C22.6031 15.8396 23.1818 16.1285 23.5293 16.9693L23.6616 17.2975C23.7246 17.4785 23.6911 17.7555 23.6911 17.9482L23.6919 37.8157C23.6844 38.2484 23.2459 38.747 22.8815 38.9221L22.7986 38.9578C22.6902 38.9911 22.5618 38.9816 22.4494 38.9818L16.5176 38.9793C16.4295 38.975 16.3629 38.9493 16.2876 38.9043L16.2536 38.8833C15.4817 38.42 14.4391 36.3803 14.2806 35.5543C14.205 35.1608 14.2076 34.7622 14.2007 34.3632C14.0964 34.5797 13.8971 34.7597 13.7547 34.9606L13.1109 35.9454C12.5522 36.8406 12.2878 37.2832 11.1267 36.8348C10.2533 36.4976 9.22607 36.3958 8.30483 36.2838L7.52122 36.182C6.6718 36.0877 6.44371 36.1649 6.07025 35.2789C5.98124 35.0677 6.0186 34.761 6.01813 34.5318L6.02319 31.8499L6.40039 28.2662C7.14486 23.8518 9.10527 18.5265 11.2545 14.5485C12.4012 12.4261 13.4332 11.16 15.6521 9.97194C15.9033 9.83745 16.0789 9.76325 16.2974 9.57603C16.7217 9.21247 17.3394 9.10995 17.8741 9.03205L29.8029 9.01798C30.0034 9.01864 30.2072 9.00823 30.4023 9.06223L30.7626 9.14C31.0606 9.22662 31.441 9.34428 31.6813 9.54678C31.7983 9.64536 31.8594 9.75162 32.0036 9.82316C34.5763 11.0993 35.5761 12.3692 36.8706 14.7641C37.1005 15.1894 37.2836 15.6519 37.5213 16.0688L37.8881 16.8413C38.0268 17.106 38.1369 17.3947 38.2569 17.6688L39.7656 21.5228L40.3128 23.192C40.4231 23.5184 40.4939 23.864 40.6089 24.1866L41.07 25.8868C41.249 26.4201 41.374 27.2922 41.4847 27.8561L41.9131 31.5526C41.9256 31.7379 41.965 31.9183 41.9711 32.1051L41.974 34.8535C41.9653 36.096 41.1948 36.0853 40.3558 36.1962C39.2066 36.3479 37.9404 36.4184 36.8465 36.8349C36.6135 36.9237 36.4767 37.0507 36.2152 37.0405C35.2156 37.0013 34.5277 35.2299 33.7867 34.4184C33.753 34.6796 33.7737 34.9478 33.7526 35.2111C33.6756 36.1746 32.6242 38.3765 31.7185 38.8788L31.6884 38.8951C31.524 38.9871 31.4041 38.9815 31.217 38.9818L26.3706 38.983C26.0419 38.9832 25.2622 39.0761 24.9928 38.9056L24.9606 38.8847C24.6501 38.6881 24.5225 38.4787 24.3788 38.1568L24.3435 38.0748C24.2856 37.9006 24.3009 37.6914 24.3006 37.5095L24.3031 17.5566C24.3341 16.8393 24.906 16.054 25.5803 15.8267L26.7353 15.494C28.8095 14.827 30.4313 12.731 30.6884 10.5985L29.9186 10.4455C29.6028 11.5238 29.067 12.3969 28.2804 13.1948ZM19.5066 10.4812C20.0429 12.0342 21.7136 13.3263 23.3232 13.5095C24.7551 13.6724 26.1345 13.2448 27.2244 12.2978C27.6993 11.8253 28.2711 11.1532 28.4436 10.4817L19.5066 10.4812ZM15.9404 11.4264C14.0366 12.4591 13.1788 13.8135 12.2204 15.6709C11.1382 17.7681 10.2318 19.9413 9.46578 22.1725L8.91468 23.7914L8.05743 27.0023C7.82905 28.0602 7.67005 29.1332 7.53829 30.2063L7.46333 31.0576C7.40957 31.6741 7.37361 31.49 8.01758 31.5334L9.02118 31.6268C10.5501 31.8188 12.0616 32.3038 13.3939 33.0795L14.0335 32.2632C14.3501 31.8214 14.2763 31.7662 14.4228 31.2623C14.8059 29.9435 15.04 28.5402 15.1095 27.1669L15.1154 25.8515C15.1151 25.3289 15.1205 24.8069 15.0831 24.2854L14.624 20.9138C14.5237 20.3953 14.3266 19.757 14.9763 19.5447L15.0004 19.5365C15.1213 19.4986 15.298 19.5123 15.4144 19.5569L15.4536 19.5716C15.6261 19.639 15.7333 19.7378 15.8078 19.9083L15.8561 20.0352C15.964 20.3132 16.1508 21.5786 16.1862 21.9403L16.3521 23.2868C16.4114 23.6217 16.3976 23.9996 16.4159 24.3404L16.47 24.9226C16.5593 26.8248 16.4298 29.0325 15.9628 30.8763L15.7583 31.6561C15.6313 32.0667 15.6317 32.1201 15.6307 32.5711L15.627 34.7141C15.6253 34.9167 15.6091 35.1377 15.6423 35.3373C15.7364 35.904 16.3761 37.1562 16.8797 37.5198L22.3564 37.5144C22.3137 36.8555 22.3344 36.1876 22.3344 35.5272L22.3351 19.1469C22.3351 18.7679 22.4504 17.7634 22.2587 17.4673L22.2386 17.4352C21.9927 17.0509 21.6292 17.0301 21.2207 16.9362C18.9967 16.4253 17.0199 14.3905 16.265 12.3053L16.0806 11.7545C16.0486 11.6432 16.0305 11.5361 15.9795 11.4308L15.9404 11.4264ZM31.9581 11.4008C31.3016 14.114 29.2303 16.3819 26.4845 17.0251C26.0955 17.1162 25.6877 17.1881 25.6664 17.6958L25.6678 37.5161C26.204 37.5164 31.0858 37.5447 31.1465 37.517C31.2269 37.4802 31.2889 37.3323 31.3408 37.265C32.3953 35.897 32.3945 35.3319 32.3905 33.7311C32.3884 32.8797 32.432 32.4868 32.2321 31.6647L32.0475 30.8621C31.4852 28.3297 31.3925 25.7592 31.6818 23.1859C31.7348 22.7138 31.762 22.2215 31.8541 21.756L32.0569 20.4498C32.0844 20.2849 32.0826 20.1207 32.14 19.9614C32.2828 19.5646 32.7543 19.3814 33.1286 19.5926L33.1619 19.6109C33.2732 19.6748 33.3525 19.7621 33.4099 19.8765L33.4246 19.9043C33.6171 20.2882 33.3531 20.9905 33.2931 21.3869L33.0644 23.141C33.0069 23.5901 32.9378 24.0496 32.9101 24.5001L32.8769 26.2016C32.8769 26.7035 32.8715 27.2072 32.9145 27.7074C33.0057 28.7672 33.348 31.1107 33.7663 31.9567C33.9722 32.3729 34.2988 32.7425 34.5991 33.0925C34.6169 33.0929 35.1855 32.7372 35.2574 32.6992C36.6225 31.9794 38.2162 31.6846 39.7364 31.5438C40.0066 31.5188 40.288 31.5406 40.5541 31.5006L40.5089 30.7864L39.9255 26.9357C39.2458 23.915 38.197 20.8846 36.9412 18.0569L36.2168 16.5453C35.0641 14.1797 34.3395 12.6986 31.9581 11.4008ZM7.38407 32.914L7.38425 34.78L8.27314 34.875C9.44432 34.9963 10.5924 35.203 11.7131 35.5723L12.0476 35.0075L12.5738 34.193C11.3725 33.5288 10.0369 33.1457 8.67444 33.0043L7.73446 32.9344C7.62116 32.9257 7.4945 32.9349 7.38407 32.914ZM40.0719 32.9405L39.1595 33.0155C37.8538 33.1812 36.5543 33.5472 35.4034 34.1984L36.1533 35.4012L36.2458 35.5442C36.8843 35.388 37.502 35.197 38.156 35.087L39.3513 34.8995C39.7776 34.8426 40.2014 34.8005 40.6315 34.801L40.6195 32.9329L40.0719 32.9405Z" fill="black"/>
</svg>
