<svg width="48" height="48" viewBox="0 0 48 48" fill="none" xmlns="http://www.w3.org/2000/svg">
<path d="M20.9093 39.0244C20.6433 39.3109 20.2943 39.5717 19.9218 39.6995L19.4509 39.8315C18.443 40.0204 15.9745 39.435 15.0175 39.1434C14.0648 38.8531 13.8468 38.6764 12.8305 38.5996L11.769 38.5C10.204 38.3582 7.02987 38.0682 5.70889 37.1288C4.19928 36.0553 4.47176 34.7896 4.77111 33.2901L5.8999 25.7574L6.27467 22.7365C6.56801 19.9101 6.82503 17.0496 7.80959 14.3632L8.29437 13.1858C8.54093 12.6111 8.55354 12.7031 8.46204 12.1051L8.34331 11.2262C8.27421 10.8035 8.19964 10.3543 8.2609 9.92487L8.26611 9.89023C8.41681 8.78047 9.3604 8.13715 10.4357 8.13237L13.5423 8.13097C14.2973 8.13087 15.0566 8.10748 15.8088 8.17812C16.5819 8.25068 17.35 8.41461 18.1189 8.52265L20.1828 8.75272C20.9846 8.83268 21.7947 8.90806 22.6017 8.91007L25.7585 8.89536L28.9307 8.62062L30.9026 8.33961C31.8763 8.17986 32.5744 8.13078 33.5582 8.13101L35.5826 8.12731C35.857 8.10781 36.1542 8.12942 36.4308 8.12886L37.4106 8.12731C38.3773 8.1274 39.3965 8.43223 39.6481 9.51078C39.8596 10.4173 39.6816 11.0169 39.5319 11.9228C39.4144 12.6336 39.6666 13.0602 39.9521 13.7329L40.4533 15.0465C40.5941 15.4497 40.699 15.8689 40.8143 16.2798L41.5828 20.6011L42.3769 28.9913L43.0787 32.6832C43.1817 33.1815 43.3011 33.6798 43.433 34.1715C43.8095 35.5748 42.842 37.0165 41.5866 37.5781C40.5331 38.0494 38.923 38.2508 37.7904 38.3175C37.1885 38.3529 36.611 38.3354 36.012 38.4375C35.3078 38.5576 34.6431 38.8461 33.9594 39.0424C32.8155 39.3707 31.6343 39.6181 30.4543 39.769C26.8702 40.2273 26.3921 38.5117 25.7407 35.6478L25.1451 33.1821C24.8226 31.996 24.3855 30.8532 23.8882 29.7306C23.4022 30.9222 23.0617 32.1373 22.7576 33.3855L22.4285 34.7574C22.1059 36.2857 21.9735 37.7986 20.9093 39.0244ZM12.3104 9.61489L10.7229 9.61761C10.4857 9.61822 10.0847 9.52822 9.90256 9.71872L9.87607 9.746C9.53389 10.1048 9.71309 10.5608 9.78875 10.994C9.83361 11.2509 9.88132 11.9242 9.98693 12.1235C10.1525 12.1655 10.3759 12.1393 10.5495 12.1392L16.5178 12.1372L19.1687 12.1334L19.1675 10.1751C19.0166 10.1314 18.8588 10.1203 18.7033 10.1001L15.9538 9.71932C15.307 9.62918 15.0216 9.61456 14.3404 9.61437L12.3104 9.61489ZM33.4723 9.61489C32.6949 9.61929 32.3607 9.66532 31.6038 9.76451C30.8295 9.866 30.0328 9.94751 29.2688 10.1112C29.2512 10.3497 29.1972 11.9596 29.2759 12.1623L34.1135 12.1372L38.0314 12.1384L38.2762 10.7223C38.4004 9.70629 38.2901 9.61278 37.4276 9.61212L33.4723 9.61489ZM27.4027 10.2987C27.0543 10.3219 26.7022 10.3844 26.3566 10.3998L21.2483 10.3895C21.0478 10.3825 20.8503 10.3452 20.651 10.3384L20.6489 12.1436L20.9812 12.1269L27.7879 12.1421L27.79 10.2886C27.6659 10.2914 27.5247 10.282 27.4027 10.2987ZM13.3175 13.6385L9.70611 13.6384C9.64334 13.7282 9.63162 13.8056 9.59459 13.9047L9.38398 14.4117C8.35554 16.8499 8.09037 19.5728 7.82267 22.1815L6.34681 33.0081L7.5222 32.8562C7.8657 32.8263 8.21623 32.8353 8.56071 32.8353L9.70822 32.8463C12.8802 32.9857 18.0313 34.1655 20.7171 35.7815L21.6472 31.7851C21.8418 31.078 22.9043 27.5482 23.5073 27.1628C24.2714 26.6745 24.5975 27.6233 24.8133 28.1046L25.7789 30.3746C25.9231 30.7608 26.0331 31.1682 26.1916 31.547L26.4773 32.422C26.5949 32.7579 26.6438 33.1117 26.7583 33.4422L27.035 34.5721C27.131 34.8789 27.1662 35.2055 27.255 35.5142C28.3169 35.2167 29.3493 34.771 30.4221 34.5209C31.2889 34.3188 32.1919 34.2437 33.0471 34.003C35.0365 33.443 36.3777 32.6149 38.6482 32.6744C39.3447 32.6818 40.0486 32.7145 40.7337 32.8473L41.654 33.0713C41.3528 31.4645 40.9687 29.8972 40.8053 28.2652L40.0585 20.6159C39.7414 18.1957 39.3946 15.8428 38.2921 13.6286L24.0136 13.6282C23.9891 13.7187 24.003 13.8351 24.003 13.9287L24.0032 21.8513C24.0035 22.064 23.9914 22.2828 24.0225 22.4934C25.5485 22.0946 25.3794 20.9274 26.0649 20.7347C26.483 20.6172 26.8873 20.9016 26.9637 21.317C27.0397 21.7306 26.7297 22.2225 26.4957 22.5428C25.8458 23.4328 24.8576 23.993 23.7556 23.9937C22.4502 23.9947 22.5396 23.3893 22.5388 22.2747L22.5418 13.6302L13.855 13.6371C13.7029 13.6373 13.4618 13.6052 13.3175 13.6385ZM38.312 34.1818C37.1816 34.2175 36.14 34.4763 35.0749 34.8641C34.5734 35.0467 34.0793 35.2647 33.5656 35.4112C32.5432 35.7027 31.4854 35.8002 30.4583 36.071L29.1565 36.4703C28.6258 36.6614 28.1188 36.8734 27.5734 37.0251C28.288 38.9575 29.5486 38.3099 31.1141 38.1656C32.0441 37.9802 32.9531 37.7849 33.8634 37.515C34.4483 37.3416 35.0313 37.0939 35.6252 36.9624C36.2117 36.8325 37.2321 36.829 37.9185 36.7759L39.5158 36.5916C40.6258 36.4162 41.9008 36.0854 42.0577 34.792C41.0012 34.4075 39.4596 34.0745 38.312 34.1818ZM8.267 34.3425C7.55309 34.359 6.64643 34.3825 5.98109 34.6874C5.9299 36.1951 7.68204 36.3812 8.80859 36.5973L9.50229 36.7425C9.62993 36.7635 9.76029 36.7652 9.88854 36.7819L12.0705 37.0339C12.7153 37.0979 13.3647 37.1185 14.0014 37.241C14.6152 37.3591 15.1929 37.6579 15.7942 37.8282C16.5852 38.0522 17.3929 38.1483 18.1966 38.3024C19.428 38.5266 19.7656 38.2295 20.3667 37.2091C18.8688 36.4316 17.263 35.7997 15.6352 35.3511L13.6226 34.8935C11.8011 34.5273 10.1346 34.3312 8.267 34.3425Z" fill="black"/>
</svg>
