<svg width="48" height="48" viewBox="0 0 48 48" fill="none" xmlns="http://www.w3.org/2000/svg">
<path d="M25.3792 34.1423C25.3796 33.9436 25.4362 33.7347 25.4291 33.5441C25.3851 32.3656 25.0467 31.2574 24.6682 30.1528L23.8965 27.8883L22.7431 32.2222C22.6825 32.4394 22.6092 32.6674 22.5826 32.8917C22.4199 34.2659 22.9584 37.0181 21.0331 37.3857C20.4046 37.5056 19.7197 37.4787 19.0825 37.479C17.8112 37.4796 15.0873 37.5928 14.3326 36.2958C13.9081 35.5663 13.9118 34.7476 13.7271 33.9507C13.6737 33.7205 13.5492 33.5211 13.5071 33.2849C13.4538 32.9851 13.4487 32.6628 13.4187 32.3584L12.4622 24.0828C12.2537 21.5385 12.501 18.7985 13.6749 16.4992L14.8329 14.407C15.003 14.1205 15.1145 14.1416 14.9576 13.8423C14.1762 12.3516 15.2386 10.8243 16.8174 10.5289L30.7883 10.5186C31.8496 10.521 32.9955 11.0968 33.1852 12.2423L33.1931 12.2927C33.2667 12.6209 33.2947 13.0715 33.2011 13.3973L33.0093 13.9538C33.1635 14.1885 33.268 14.48 33.3984 14.7317L34.2816 16.5039L34.9697 18.281C34.9979 18.3557 35.0261 18.4255 35.0448 18.5037L35.2918 19.4157C35.7595 21.508 35.6037 23.4236 35.356 25.5366L34.4533 33.1287C34.4064 33.3954 34.2521 33.7423 34.3518 33.9961L34.5496 34.471C34.7502 35.0102 35.0116 35.7846 34.7892 36.3319C34.3206 37.485 30.2661 37.4795 29.2554 37.4788C28.5058 37.4783 27.4382 37.5714 26.7332 37.2588L26.6955 37.2416C25.6906 36.7934 25.4011 35.1114 25.3792 34.1423ZM17.1751 11.9711C16.9064 11.9735 16.5704 11.9059 16.3677 12.1085C15.9558 12.5202 15.9318 13.2293 16.3866 13.6249C16.9454 14.1109 18.4253 13.8967 18.8919 14.8826L18.9058 14.9116C19.0452 15.2346 18.8008 15.9124 18.715 16.2601L18.4467 17.1677C17.695 19.3397 15.9797 21.2723 13.7209 21.9048L13.7567 23.988C13.7668 24.1637 13.8076 24.3323 13.8253 24.5062L13.8885 25.3496L14.6844 31.7001C14.7163 31.9942 14.7323 32.6361 14.7939 32.8959C15.3065 32.9623 15.8112 33.0954 16.322 33.177L19.2775 33.5278C19.9069 33.5767 20.5511 33.6238 21.1822 33.6014C21.257 32.231 21.7793 30.9904 22.1076 29.6747C22.295 28.9239 22.8346 25.8426 23.3539 25.3797C23.753 25.0239 24.3578 25.1311 24.5637 25.6404C24.6566 25.8701 24.7058 26.1097 24.7892 26.3406L25.5253 28.5719C25.6287 28.824 25.7132 29.0961 25.7964 29.3552L26.1111 30.2927C26.4857 31.3027 26.7114 32.4716 26.769 33.5387L28.3613 33.5339C28.9515 33.5055 29.5512 33.4263 30.1351 33.3358C31.1158 33.1904 32.1202 33.0396 33.112 33.0446C33.231 32.5809 33.2658 32.1247 33.3197 31.652L34.243 23.4352L34.2562 21.8443C33.8429 21.6754 33.5768 21.6264 33.1291 21.3873C31.319 20.4204 29.5899 18.5416 29.5336 16.3848L29.5244 15.4919C29.5237 15.2636 29.4891 14.9707 29.5525 14.7537L29.5601 14.7269C29.7518 14.095 31.036 14.0849 31.5412 13.7135C31.8837 13.4617 32.0489 12.7744 31.8517 12.4047L31.799 12.3223C31.44 11.7814 30.7378 11.9715 30.1844 11.9727L27.9619 11.9707L27.96 14.5002C27.9601 14.8257 28.0568 15.4808 27.9044 15.7641L27.8895 15.7924C27.6106 16.3029 26.7758 16.1756 26.6477 15.6209C26.5991 15.4102 26.6369 15.1126 26.6379 14.8922L26.6395 12.8609C26.6391 12.5805 26.6749 12.2464 26.6259 11.974L21.3963 11.9746C21.3729 12.3264 21.3858 12.6857 21.3849 13.0384L21.3811 14.5427C21.3847 14.9015 21.4518 15.3301 21.3677 15.6789C21.2108 16.3296 20.1879 16.2595 20.0866 15.5844C20.0713 15.4829 20.082 15.3686 20.0818 15.2652L20.078 12.363C20.0774 12.2908 20.0915 11.9904 20.0401 11.9746L17.1751 11.9711ZM32.0121 14.9567C31.6564 15.1337 31.0401 15.2799 30.8221 15.3996C30.8153 16.3038 30.8252 16.939 31.2339 17.7537C31.702 18.6867 32.5175 19.4536 33.3976 19.9947L34.1331 20.3951C33.9327 18.713 32.9146 16.455 32.0121 14.9567ZM16.048 14.9834C14.9887 16.5214 14.0594 18.5773 13.8561 20.4648L14.8204 19.9159C16.357 18.7583 17.1388 17.3245 17.568 15.4404L16.048 14.9834ZM15.1601 34.3148L15.3292 35.2498C15.4171 35.6409 15.4629 35.6735 15.8596 35.8246C16.922 36.2293 18.2127 36.1119 19.3234 36.1086C19.6701 36.1076 20.745 36.2233 20.9769 35.9377C21.0732 35.6193 21.1351 35.2939 21.1728 34.9634C20.6818 34.9226 20.1872 34.9704 19.6967 34.9399L17.5497 34.7097C16.7482 34.611 15.942 34.5281 15.1601 34.3148ZM32.5255 34.4163L30.1525 34.7002C29.0618 34.8443 27.9011 35.0475 26.8006 34.8854L27.1053 35.899L27.8902 36.0194C28.4649 36.1147 29.0559 36.1084 29.6369 36.1086C30.8819 36.1091 32.4017 36.1766 33.5388 35.6245C33.3915 35.2302 33.2928 34.7877 33.0993 34.4156L32.5255 34.4163Z" fill="black"/>
<path d="M23.2397 23.2845L23.2093 23.2445C22.7781 22.6135 23.436 22.3464 23.8752 22.0675C24.6244 21.5919 24.5559 20.8478 24.556 20.08L24.5565 15.7605C24.556 15.3662 24.5843 14.9476 24.5497 14.5564C24.5415 14.4643 24.5083 14.4937 24.4253 14.4926L23.0676 14.4897C22.6173 14.4892 21.9711 14.551 21.939 13.9066C21.9119 13.3614 22.2536 13.1418 22.73 13.1389L23.3442 13.137L24.695 13.1338C25.1929 13.176 25.8367 13.8605 25.8573 14.3676L25.866 20.326C25.8684 21.2413 25.8552 22.0231 25.1798 22.738C24.7544 23.1881 23.8067 23.8521 23.2397 23.2845Z" fill="black"/>
</svg>
