<svg width="48" height="48" viewBox="0 0 48 48" fill="none" xmlns="http://www.w3.org/2000/svg">
<path d="M23.4142 21.5035L23.4126 32.0845C23.4063 32.3622 23.3443 32.6296 23.3336 32.9059L23.1247 37.1645L22.4841 42.1987C22.2866 43.9308 20.5458 45.4967 18.7699 45.2658L18.7263 45.2599C18.0942 45.1787 17.4538 44.9137 16.8374 44.7454L12.2062 43.3994C11.0665 43.0104 9.53647 42.5301 8.69417 41.6331C8.43003 41.3517 8.35293 41.5675 7.92149 41.5946C7.08468 41.6472 6.2345 41.6037 5.39928 41.5437C4.20171 41.4577 3.57836 41.6173 3.4407 40.3121C3.42252 40.1398 3.39055 39.9687 3.38079 39.7955L3.37891 32.7111C3.38603 32.4336 3.44767 32.1633 3.45624 31.8855L3.63773 27.9938C3.97236 23.3869 4.5449 18.7414 6.07986 14.3593C6.43377 13.349 6.79705 12.3108 7.32833 11.3771C7.61492 10.8733 9.1183 9.06039 9.65947 8.69697C10.4101 8.19297 11.4154 8.4167 12.2375 8.11117C14.1497 7.40054 15.7921 5.38754 16.9436 3.74689L17.2271 3.33911C17.4259 3.02472 17.588 2.72277 17.9789 2.6211L18.0114 2.61315C19.4053 2.25313 20.9952 4.04736 21.8555 5.00068L23.3262 6.6969C23.5728 6.99653 23.7895 7.33084 24.0588 7.60975L25.22 6.09601C26.1213 4.99361 27.9362 2.84751 29.4214 2.56007C29.5665 2.54511 29.7595 2.53242 29.9013 2.56715L29.9294 2.57463C30.362 2.68679 30.492 2.9246 30.725 3.27102L31.162 3.88641C32.4135 5.65431 33.9907 7.71362 36.2142 8.23792L36.9898 8.39378C38.7875 8.84125 40.2966 10.4688 41.0373 12.1285L42.3748 15.7379C42.4292 15.9261 42.5038 16.1135 42.5475 16.3039L43.0781 18.316C43.1361 18.5264 43.1695 18.7549 43.2126 18.9693L43.8321 22.417C43.8728 22.6755 43.8923 22.9374 43.9427 23.1946L44.4137 27.9957L44.593 31.1777L44.5922 35.909C44.5854 36.07 44.5431 36.2257 44.5367 36.3864L44.3524 40.0913C44.2564 41.2363 44.1449 41.4424 42.9195 41.5259L41.7611 41.5767C41.0921 41.594 40.4235 41.6349 39.7581 41.5429C39.5786 41.5181 39.5802 41.4734 39.4492 41.6099C38.5548 42.5424 37.3366 42.8853 36.1459 43.2887L31.0778 44.7208C30.4887 44.8842 29.9001 45.2085 29.2892 45.263C27.6759 45.4071 26.1863 44.3507 25.6748 42.8319C25.426 42.0932 25.3983 41.272 25.2796 40.5045L24.7513 34.6754C24.7378 34.4165 24.689 34.1627 24.6811 33.9015L24.6854 16.8575C24.6717 16.3307 24.5693 15.7832 24.4961 15.2601L24.1972 12.9118C24.1419 12.4867 24.0588 12.0698 24.0252 11.6417C23.8829 11.9657 23.858 12.3352 23.8145 12.6842L23.4851 15.8551C23.4674 16.0528 23.4284 16.244 23.4193 16.4436L23.4142 21.5035ZM18.4327 3.96584C16.8857 6.25693 14.8253 9.09362 11.9687 9.64454C11.7079 9.69489 11.4056 9.68772 11.1566 9.76553C9.68586 10.2252 8.55482 11.8841 7.99049 13.2212L7.15546 15.4949C6.09214 18.8419 5.5205 22.295 5.15807 25.7809L5.02227 27.7851C5.01074 27.9575 4.97216 28.1179 4.96175 28.2907L4.84377 31.5047C4.82685 31.7519 4.77022 31.99 4.7616 32.2411L4.75752 39.6064C4.7616 39.9958 4.69888 40.1083 5.11602 40.1328L5.77274 40.1605C6.5398 40.1966 7.44908 40.3581 8.19111 40.0993L8.32007 40.0447L8.65649 36.7731L9.90205 29.6582L10.9128 25.7822C11.2642 24.4665 11.5685 23.0342 11.4533 21.6634C11.4151 21.2094 11.1494 20.1251 12.0669 20.2407C12.7905 20.3319 12.8109 21.4155 12.8141 22.0139C12.8188 22.9332 12.7027 24.4678 12.4087 25.3641L11.3573 29.4089L10.1207 36.3126L9.6298 40.3073C9.5983 40.8509 9.81496 40.8156 10.3118 41.0766C12.492 42.2221 14.9189 42.744 17.2686 43.4143L18.618 43.8473C19.5539 44.1323 20.544 43.4291 20.9256 42.6074C21.0809 42.2729 21.128 41.9262 21.1874 41.566L21.8566 35.659L21.9682 32.9124C21.9801 32.6287 22.0345 32.3497 22.0431 32.0669L22.0491 19.4651C22.049 18.9362 22.0857 18.3767 22.0406 17.8521C21.8511 17.5533 21.7917 17.4909 21.6294 17.1253L20.586 14.5824C19.9309 13.1348 19.1747 11.7961 18.0863 10.624C17.0852 9.54592 16.3741 9.38448 17.5828 8.01268L20.2081 5.25376C19.8224 4.78754 19.0012 4.09383 18.4327 3.96584ZM29.465 3.97229C28.866 4.2472 28.2709 4.79073 27.8205 5.25718C28.3544 5.84251 28.9487 6.40717 29.5298 6.94647L30.5086 7.88167C31.6147 8.97203 31.0407 9.19895 30.2417 10.1242C28.2866 12.3881 27.59 13.8158 26.5398 16.6819L26.2525 17.4506C26.1077 17.8165 26.0607 17.9304 26.0598 18.3329L26.0641 34.0992C26.0696 34.2825 26.1073 34.459 26.1153 34.6412L26.1589 35.9223C26.168 36.0598 26.1991 36.1911 26.21 36.3272L26.6907 40.729C26.8654 42.1608 27.0051 43.4349 28.6809 43.8592C29.2001 43.9907 29.837 43.5796 30.3511 43.4457L32.8942 42.8184L36.5967 41.6142C37.1436 41.4018 38.0089 41.1606 38.4032 40.7051L37.8127 35.8823L36.7781 30.0104L35.5595 25.1897C35.403 24.4826 35.2413 23.7395 35.1846 23.0175C35.131 22.3335 35.1193 20.6108 35.6481 20.2483C35.9374 20.05 36.3578 20.149 36.5306 20.452L36.5811 20.5552C36.7023 20.8283 36.5645 21.2464 36.5452 21.5315C36.4903 22.343 36.5433 23.1337 36.704 23.9293L37.8153 28.4078C38.1456 29.4307 38.3075 30.797 38.5309 31.8629L39.104 35.3812L39.6291 39.4186C39.6414 39.5912 39.6227 40.0064 39.7849 40.1034C40.1419 40.3169 42.3925 40.1872 43.0061 40.0949C43.0391 39.1504 43.1163 38.2412 43.1502 37.2887L43.2199 36.467L43.2235 30.3605L42.6411 23.6246C42.2591 20.7962 41.6838 18.0247 40.7995 15.3094L40.1436 13.5322C39.4942 11.9594 38.468 10.2629 36.7182 9.76801C36.4768 9.69972 36.2218 9.66943 35.9763 9.61604C33.5644 9.09156 31.8007 7.13917 30.413 5.22081L29.88 4.4559C29.7698 4.29151 29.6677 4.09455 29.5189 3.96252L29.465 3.97229ZM21.1376 6.29682L18.5113 9.06423C19.6521 10.1295 21.0803 12.1375 21.6672 13.6337C21.8241 13.9815 21.9438 14.3677 22.1296 14.6981C22.2499 14.1953 22.279 13.6964 22.3555 13.189L23.0668 9.16811C23.1017 9.01731 23.1612 8.85822 23.1688 8.70386L21.1376 6.29682ZM26.884 6.29181L24.8833 8.77032L25.6273 13.3463C25.7331 13.8083 25.6954 14.2933 25.8193 14.7554L26.3192 13.5549C26.8429 12.4524 27.4114 11.3964 28.1592 10.426L29.0966 9.28079C29.2075 9.14978 29.4085 8.97789 29.4828 8.83234L26.884 6.29181Z" fill="black"/>
</svg>
