<svg width="48" height="48" viewBox="0 0 48 48" fill="none" xmlns="http://www.w3.org/2000/svg">
<path d="M25.2514 38.9891C23.856 38.2482 23.0353 38.8818 21.8834 39.5355C20.3943 40.3806 19.078 40.4808 17.4423 40.4792C16.5176 40.4782 15.2934 40.5404 14.9215 39.4636C14.718 39.4106 14.3984 39.4509 14.1803 39.451L11.3202 39.4515C11.166 39.4516 10.9982 39.4667 10.8518 39.411C9.76511 38.9972 9.76886 38.5098 9.76807 37.4741L9.78096 35.4138C9.79038 35.1686 9.83552 34.9264 9.84391 34.6833L9.96808 30.5456L10.4356 24.246L11.5182 16.3017C11.6073 15.7589 11.671 15.199 11.8077 14.6664C12.3606 12.5125 14.2337 11.0372 16.3827 10.7256C16.5176 10.706 16.7422 10.7265 16.8548 10.6545L16.8749 10.6407C18.8716 9.349 18.9636 7.75342 21.7342 7.59166L22.4476 7.5332L26.1528 7.58744C27.3775 7.66937 28.0319 7.83264 28.9335 8.65516L30.6676 10.2707C31.231 10.7681 30.9442 10.6323 31.5895 10.7236C33.7925 11.035 35.5 12.4821 36.1879 14.6132C36.2994 14.9583 36.3223 15.3199 36.3844 15.6749L37.0347 19.9335L37.6448 25.2751L37.9782 29.9564C37.9875 30.1049 38.0223 30.2493 38.0314 30.3982L38.0745 31.5936C38.0852 31.8008 38.1266 32.0066 38.1341 32.2147L38.2229 34.7848L38.2268 37.5145C38.2338 37.7609 38.286 38.0479 38.2363 38.291L38.2299 38.3202C38.0482 39.1879 37.4482 39.4484 36.6646 39.4497L33.0826 39.4534L32.9666 39.7034C32.4426 40.6049 31.2868 40.48 30.4041 40.4797C28.8557 40.4791 27.5917 40.3414 26.1844 39.5642L25.2514 38.9891ZM22.7585 8.79011L21.2515 8.88742L21.4969 10.5168L25.2538 10.5172L26.4982 10.523L26.7113 8.905C25.4113 8.7242 24.0685 8.78922 22.7585 8.79011ZM27.874 9.41003C27.8374 9.62041 27.8315 9.83144 27.8028 10.0423L27.6656 10.9268C27.6438 11.077 27.6387 11.228 27.6086 11.3775L27.2264 13.0051C26.8429 14.3812 26.8892 14.51 27.0539 15.8553C27.2742 17.6545 25.9027 19.8669 25.4537 21.5993C26.0347 21.1377 26.5593 20.5886 27.0157 20.0044C27.7773 19.0173 28.7523 17.3591 28.6078 16.0381L28.5796 15.9022C28.2792 14.6946 27.4323 14.236 28.6739 13.2963L29.3096 12.8085C29.728 12.4795 30.1655 12.1421 30.5536 11.7792C30.3367 11.6201 30.1187 11.4703 29.9165 11.2919L28.2193 9.68012C28.1424 9.61323 27.97 9.41172 27.874 9.41003ZM20.0957 9.40891C19.6954 9.74453 19.3455 10.1451 18.9614 10.5004L17.8648 11.4786C17.7325 11.5883 17.5833 11.6722 17.4534 11.784C17.8106 12.1428 18.2553 12.4923 18.6674 12.7852L19.3359 13.2649C19.7622 13.5634 20.1658 13.8243 20.0003 14.4195L19.9888 14.4625C19.7329 15.4034 19.1824 15.6713 19.4054 16.7928L19.5385 17.3041C19.7519 17.9124 20.0002 18.5054 20.3441 19.0546L20.9789 19.9995C21.3422 20.4308 21.7061 20.8682 22.1389 21.2332L22.5558 21.568L22.4838 21.2966C22.0883 19.5321 20.8847 18.0154 20.9293 16.0853C20.9337 15.8941 20.9769 15.7069 20.9965 15.5167C21.0855 14.6495 21.0167 14.049 20.835 13.2173L20.3803 11.2863C20.2432 10.6755 20.1843 10.0296 20.0957 9.40891ZM21.7788 11.763C21.9262 13.0706 22.3957 13.8425 22.2746 15.2521L22.2089 15.7575C22.1621 16.3018 22.1973 16.8383 22.3534 17.3635L23.1566 19.4647C23.313 19.844 23.4618 20.2183 23.5822 20.6112L23.9557 21.9672C23.9708 22.0142 23.9944 22.0889 24.0303 22.1238L24.5196 20.388C24.8971 19.1735 25.5407 18.0795 25.7664 16.8097C25.9356 15.8575 25.5586 14.917 25.7768 13.8514L26.108 12.3397C26.1476 12.1685 26.163 11.9202 26.2368 11.7656L21.7788 11.763ZM31.8717 12.063C31.6408 12.5066 31.2626 12.8087 30.8903 13.1307L29.3243 14.3634L29.5425 14.8476C30.0897 16.279 29.8333 17.3621 29.2271 18.7386C28.5276 20.3273 27.3554 21.8084 25.903 22.7695C24.8281 23.4807 24.9413 22.9607 24.4448 24.1755L23.9344 25.4688C23.1938 27.3543 23.1761 27.885 23.5429 29.7578L23.8614 31.4999C23.9557 31.9563 24.0056 32.4273 24.1054 32.8828L24.7988 36.41C24.8786 36.7883 24.9065 37.1736 25.0165 37.5454C25.8037 37.7759 26.3681 38.2841 27.0871 38.6472C27.6178 38.9153 28.1886 39.0348 28.7693 39.1289C29.3888 39.2293 31.2158 39.2801 31.8308 39.1029C31.7401 38.615 31.7166 38.1194 31.6523 37.6285L30.6843 29.6632L30.5867 27.8641L30.5862 25.2588C30.6102 24.6927 30.6763 24.1106 30.7566 23.5501C30.8794 22.5685 31.1879 21.6215 31.4894 20.6835C31.6314 20.2417 31.768 19.4996 32.4062 19.6271C32.6118 19.6682 32.7347 19.8092 32.812 19.9921L32.8303 20.0339C32.9815 20.4213 32.6806 21.0174 32.5631 21.3824C32.3124 22.1605 32.0398 22.9628 31.9541 23.779L31.8393 25.0628L31.8433 28.535L32.2025 32.203C32.2306 32.4127 32.2306 32.6262 32.2774 32.8336L32.9415 38.223L35.4167 38.2288C35.7981 38.2288 36.7012 38.3313 37.0251 38.1673L37.0189 36.4075C37.0131 36.2139 36.9718 36.0256 36.9677 35.8313L36.9508 33.3247L36.8401 30.8333C36.8341 30.7113 36.8023 30.5985 36.7924 30.4786L36.4696 25.8242L35.9029 20.6337L35.2815 16.4992C34.9787 14.6129 34.6026 12.9925 32.5053 12.247C32.2972 12.173 32.0822 12.1283 31.8717 12.063ZM16.0848 12.1005C14.3652 12.4786 13.0835 13.896 12.8399 15.6267C12.8145 15.8068 12.8156 15.9879 12.7851 16.168L12.1025 20.3786L11.7194 23.5586L11.3436 28.078L11.2045 30.7282C11.187 31.0568 11.1438 31.3732 11.1391 31.7054L11.1317 32.61C11.1314 32.7895 11.1445 32.9776 11.1154 33.1544C11.0018 33.846 11.0425 34.5806 11.0417 35.2806L11.0396 38.224L15.0569 38.2262L16.1238 29.39L16.2152 26.6567L16.1502 24.9473C16.0383 23.2535 15.6671 22.1109 15.1478 20.4886C15.1029 20.3481 15.0913 20.1659 15.1544 20.0296L15.1729 19.9889C15.4433 19.4038 16.0981 19.5413 16.3146 20.1093L16.7259 21.3336C16.7622 21.4474 16.7786 21.5651 16.8207 21.6768L17.2616 23.6245C17.2778 23.7186 17.3374 23.9025 17.315 23.9942L17.4105 25.1808L17.4041 28.7342L17.3036 30.0657L16.2211 38.5804C16.2034 38.7619 16.2015 38.9441 16.1567 39.1219L18.0687 39.2017C19.1886 39.2038 20.2083 39.0385 21.2069 38.4767L22.1936 37.8787C22.6664 37.6232 23.1813 37.5083 23.707 37.4259L22.1078 28.6004C21.8418 26.7161 22.8373 25.1183 23.4093 23.4103C21.9085 22.8363 20.8265 21.8814 19.8915 20.5974C18.7795 19.0702 17.6383 16.9333 18.3739 15.023L18.6893 14.3521C18.1064 13.8835 16.4179 12.813 16.207 12.096C16.1637 12.0923 16.1277 12.0942 16.0848 12.1005Z" fill="black"/>
</svg>
