<svg width="48" height="48" viewBox="0 0 48 48" fill="none" xmlns="http://www.w3.org/2000/svg">
<path d="M25.063 38.9841C24.7289 38.5842 24.4871 38.1001 24.27 37.6297C23.5648 39.6804 21.606 41.2382 19.3992 41.1605C19.2079 41.1538 19.0038 41.1579 18.8179 41.1091L18.0714 40.8959C17.2763 40.6244 16.3331 39.9815 15.8435 39.2836C15.6279 38.9763 15.6754 38.8684 15.6748 38.4906L15.6742 37.2707C15.6754 33.4527 16.0781 28.2171 17.2615 24.6137L17.5483 23.8474C17.8604 22.964 17.8206 22.0779 17.417 21.2306C17.144 21.7785 16.9876 22.3808 16.83 22.9692L15.2966 29.6702L14.7273 33.2621C14.6109 34.3565 14.6149 34.6104 13.5051 34.6073L11.2493 34.607C9.634 34.6063 9.86547 34.0548 9.86551 32.7987L9.87775 30.6567C9.88342 30.4989 9.91276 30.3446 9.92087 30.1879L10.0622 27.8674C10.5048 23.3341 11.533 18.8716 12.6106 14.4523L13.0489 12.4827C13.1229 12.1378 13.1669 11.7813 13.2591 11.441C13.6067 10.158 14.7398 9.04639 15.9998 8.66656C16.9982 8.36558 18.0448 8.23081 19.0817 7.89045C19.2137 7.84714 19.3525 7.81048 19.4883 7.78292C20.206 7.63733 19.6691 6.86445 21.6869 6.77666L26.3262 6.77459C26.5832 6.77464 26.9164 6.73536 27.1602 6.81261L27.1946 6.82405C27.5708 6.94662 27.9805 7.23434 28.186 7.57934C28.2895 7.7533 28.3102 7.76708 28.4961 7.83144L31.2978 8.59695C31.7849 8.7177 32.2779 8.77053 32.7422 8.97603C34.5723 9.78594 34.7695 11.4305 35.1178 13.1719L35.2108 13.6158C35.315 14.2119 35.5093 14.7886 35.6132 15.3795L36.0078 17.0848C36.0507 17.213 36.062 17.3431 36.094 17.4731L36.282 18.3285C36.4691 19.1999 36.6733 20.0615 36.8386 20.9377L36.9838 21.6098C37.0061 21.7179 37.0086 21.8306 37.0321 21.9379L37.219 22.934C37.2696 23.1963 37.3256 23.4635 37.3639 23.7276L37.645 25.5493L38.0485 29.429L38.0687 30.5512C38.0745 30.7381 38.1103 30.9215 38.1197 31.1075L38.1266 33.3687C38.1267 34.5069 37.9301 34.608 36.7324 34.6062L34.3915 34.6098C33.4711 34.6155 33.3979 34.4078 33.286 33.4698L32.8966 30.8324L31.406 23.3207C31.2573 22.5511 31.0492 21.7662 30.672 21.0735C30.6264 21.2546 30.544 21.4268 30.4805 21.6027C30.1828 22.4273 30.2113 23.2726 30.5087 24.09L31.1344 26.0679C31.2306 26.3705 31.2812 26.7114 31.351 27.0223L31.5396 27.9849L32.0698 32.3324C32.0826 32.4736 32.1151 32.6124 32.124 32.7543L32.17 33.7649C32.1794 33.9016 32.2172 34.0334 32.2235 34.1723L32.2475 35.1215C32.2521 35.2466 32.2449 35.3794 32.2672 35.5026L32.296 35.7986C32.3387 36.023 32.32 36.2716 32.3196 36.5002L32.3238 38.7276C32.3271 39.5846 32.1696 39.8406 31.3596 40.3149C31.0595 40.4907 30.7482 40.6652 30.4216 40.7875C28.4886 41.5112 26.2761 40.584 25.063 38.9841ZM21.2237 7.97061C20.2986 8.28294 20.7442 9.38436 20.918 10.0693L21.1247 10.8519L26.8243 10.8559L26.9013 10.8637C27.008 10.2672 27.2199 9.6935 27.3196 9.09556C27.4636 8.23287 27.1682 7.97094 26.2748 7.96962L21.2237 7.97061ZM19.4235 9.059C18.8637 9.16508 18.3167 9.34372 17.7643 9.48223C16.41 9.82189 15.1408 9.97822 14.5061 11.4455C14.3408 11.8276 14.2891 12.241 14.2026 12.6449L13.9742 13.6718C13.9184 13.9396 13.8818 14.2892 13.7581 14.533C15.3763 15.1175 15.9286 15.656 16.8179 17.2232L18.2806 20.2621C18.7883 21.4551 19.1334 22.5273 18.768 23.8375C18.6328 24.3225 18.4294 24.7873 18.2891 25.2703C17.9874 26.309 17.7194 27.34 17.539 28.4077L16.9669 33.3661L16.9389 34.4137C16.9246 34.688 16.8698 34.9581 16.8605 35.232L16.8524 37.6249C16.8522 38.0152 16.7545 38.5538 16.9962 38.8226C17.4725 39.2736 18.0146 39.7056 18.668 39.8591L18.8946 39.9128C19.0725 39.9556 19.2642 39.9545 19.4466 39.9562C21.5156 39.9755 22.9991 38.2738 23.4259 36.3577L23.5122 35.9469C23.5831 35.6778 23.5444 35.321 23.5447 35.0389L23.547 21.3005C23.548 20.4339 23.4854 20.112 23.2516 19.2543L22.9571 18.2135C22.5939 17.0814 22.1642 15.9691 21.6666 14.8893C21.1883 13.8514 20.5828 12.8577 20.1873 11.7843C19.9396 11.1119 19.59 9.75955 19.5018 9.059H19.4235ZM28.543 9.08047C28.1225 10.676 28.0308 11.5244 27.2777 13.0146L26.5308 14.5082C25.8253 15.952 25.2562 17.4523 24.8665 19.0122C24.6458 19.8959 24.7347 20.2568 24.7315 21.0936L24.7277 35.0415C24.7421 35.4877 24.8387 35.9517 24.9968 36.3686L25.3127 37.1254C26.2608 39.2754 28.8729 40.7355 30.9483 39.1185C31.0315 39.0536 31.1136 39.002 31.1713 38.9106L31.1735 38.6385C31.1844 38.4752 31.1519 38.2667 31.1476 38.099L31.1312 35.1484L30.6892 30.2802C30.5538 29.1929 30.4166 28.1035 30.1758 27.0332L29.6728 25.1972C29.5484 24.803 29.3908 24.4182 29.2819 24.0193C28.7517 22.0763 29.6308 20.4105 30.4587 18.7048C31.2927 16.9864 32.1662 15.0659 34.2087 14.5672L33.8699 12.9739C33.4536 10.8869 33.3543 10.2653 31.2188 9.81781L28.543 9.08047ZM21.7733 12.0709C21.7157 12.0838 21.6384 12.0675 21.5977 12.1089L23.3004 15.6801L23.8583 17.2504C23.9149 17.4157 23.947 17.5572 24.0355 17.7105L24.5638 16.0987L26.4085 12.0741L21.7733 12.0709ZM13.5119 15.7475L12.0587 22.3278C11.5858 24.7975 11.2238 27.292 11.0629 29.802C10.9864 30.9961 11.0553 32.2056 11.0283 33.4024L13.5585 33.4136L13.624 32.72L14.1018 29.6606L15.2306 24.5753C15.6105 22.9924 15.9428 21.3414 16.7422 19.9039C16.8447 19.7195 16.7444 19.657 16.6604 19.4759L15.9694 18.1289C15.3725 17.0345 14.817 16.0822 13.5119 15.7475ZM34.4681 15.7856C33.5335 16.0129 32.9182 16.6675 32.4352 17.4624L31.2263 19.7806C31.9552 20.729 32.0504 21.3269 32.3816 22.3808L34.2551 31.9835C34.3213 32.2423 34.3505 32.5887 34.3704 32.8543L34.4103 33.1582C34.4164 33.2499 34.4447 33.3367 34.4706 33.4244L36.9783 33.3694C36.9503 33.0734 36.9643 32.7688 36.9639 32.4717L36.9606 30.9575C36.9576 30.4935 36.9122 30.0476 36.879 29.5865L36.4956 25.8198C36.1547 23.2814 35.6522 20.7752 35.0876 18.2772L34.5925 16.0949C34.5714 15.9924 34.5633 15.8805 34.532 15.7816L34.4681 15.7856Z" fill="black"/>
</svg>
