<svg width="48" height="48" viewBox="0 0 48 48" fill="none" xmlns="http://www.w3.org/2000/svg">
<path d="M24.2741 38.7742L24.0058 38.1091C23.9218 38.414 23.8112 38.7216 23.7114 39.0228L23.3436 40.0896C22.8314 41.6409 22.2515 43.0437 20.4075 43.3662L20.3791 43.3709C19.4925 43.5275 18.7386 43.2736 17.9064 43.0077L15.7793 42.2961C14.3198 41.7927 12.9481 41.5943 12.2638 39.979C11.9479 39.2335 12.0185 38.6283 12.0183 37.8355L12.0178 21.7599C12.0185 20.0442 12.7022 19.1594 13.2294 17.6005L13.7347 16.0222C13.8291 15.6939 13.889 15.3528 14.0183 15.0353C14.2917 14.3639 15.0323 13.6949 15.7832 13.6103L15.8205 13.6065C16.2211 13.562 16.6557 13.5824 17.0594 13.5842L16.8998 12.9372C16.7129 12.2779 15.2727 11.9576 14.7386 11.5203L14.7098 11.4958C14.595 11.3996 14.4909 11.2629 14.4399 11.1204L14.4298 11.0902C14.2879 10.6756 14.5156 10.2826 14.7133 9.92968C15.9168 7.78107 17.5094 7.60613 19.0381 6.10037C19.1567 5.98351 19.2521 5.84701 19.3571 5.71848C20.2374 4.64111 21.7202 4.64672 22.9904 4.53292L24.965 4.52539C25.7032 4.5676 26.8459 4.67886 27.5344 4.93107C28.2799 5.20412 28.6384 5.83107 29.224 6.30896C30.9735 7.73677 32.3567 8.02318 33.4807 10.2979L33.5633 10.488C33.8893 11.323 33.1467 11.6324 32.6049 11.9177L31.6258 12.4481C31.3655 12.5859 31.2746 12.5912 31.1893 12.8638L30.9944 13.5904L31.7659 13.5982C33.5025 13.6243 33.9714 14.8485 34.3131 16.2302C34.3659 16.4434 34.4386 16.6585 34.4831 16.873L34.8743 18.3044C35.0466 18.9401 35.5073 19.4723 35.6963 20.1091L35.7967 20.4322C35.8131 20.5155 35.8434 20.5971 35.8547 20.6804L35.9336 21.07C36.0099 21.4254 35.97 21.854 35.9704 22.2185L35.9713 38.4905C35.9699 41.1775 34.4285 41.5604 32.1833 42.312L30.1634 42.9958C28.5734 43.5071 27.3403 43.7572 25.9658 42.4967C25.2645 41.8536 25.0172 41.0313 24.7285 40.1611L24.2741 38.7742ZM23.3473 6.00418C22.6028 6.04674 21.3699 6.09929 20.6932 6.46187L20.656 6.48127C20.3663 6.65405 20.2489 6.9984 20.377 7.30501C20.4485 7.47629 20.4203 7.75768 20.4402 7.94804L21.6643 7.72604C22.5139 7.59643 23.7523 7.46363 24.6223 7.5571L27.6103 7.89287C27.5999 7.36093 27.8791 6.71921 27.2619 6.41213C26.4326 5.99945 24.2559 6.00109 23.3473 6.00418ZM19.0004 7.98493C18.0587 8.55216 16.5283 9.61055 16.0752 10.5341L16.1162 10.5554C16.7615 10.8936 17.8959 11.5609 18.187 12.1755L18.2075 12.217C18.2823 12.3774 18.3208 12.5623 18.3651 12.7333L18.7332 14.0748C18.8491 14.4552 18.5114 14.9466 18.1371 15.0327C17.9559 15.0744 17.7369 15.0553 17.5517 15.0559L16.5145 15.0589C16.2305 15.0599 15.9979 15.0285 15.7502 15.1856L15.7106 15.2099C15.4656 15.3624 15.3346 15.6068 15.2771 15.8858L15.2698 15.9331C15.1474 16.732 14.6424 18.1259 14.3422 18.8552C13.7544 20.283 13.4769 20.6687 13.4747 22.2051L13.4735 32.4877C13.465 32.9497 13.346 33.3462 13.4153 33.8154C13.4456 34.021 13.4672 34.2392 13.4726 34.4471L13.4748 38.4511C13.4777 39.5511 13.8342 40.0566 14.9097 40.437L16.0794 40.8443L19.3539 41.8796C20.6387 42.1873 21.4052 41.2535 21.769 40.1807L22.7432 37.1873C22.8805 36.7457 23.024 36.3041 23.1237 35.8522L23.2286 35.306C23.2633 35.1658 23.2545 35.0105 23.2549 34.8672L23.254 24.0994C23.2517 24.0112 23.2432 23.9323 23.2206 23.8465L23.0154 22.9522L19.5785 11.6793L19.3212 10.6536C19.2234 10.2839 19.1007 9.88041 19.0623 9.49955C19.0271 9.14916 19.117 8.26205 19.0004 7.98493ZM29.0237 8.00363L28.979 9.10454C28.9558 9.62574 28.9142 9.79098 28.7733 10.2817L27.6682 14.1337L25.8921 19.4378L24.9587 21.8941C24.6924 22.5992 24.4587 22.8323 24.692 23.6236C24.7633 23.8656 24.7243 24.2061 24.7242 24.4604L24.7241 34.1172C24.7245 35.3394 25.0268 36.458 25.4545 37.6052L25.8303 38.7654C26.082 39.4377 26.2182 40.1827 26.5367 40.8279C26.9353 41.6351 27.8328 42.0902 28.7175 41.8683L31.7533 40.8955L32.8021 40.531C33.6028 40.2595 34.4821 39.8859 34.5336 38.9129L34.5457 22.5298C34.547 22.1972 34.5628 21.8597 34.5433 21.5279C34.4849 20.5344 33.7589 19.6762 33.4657 18.7526L32.9323 16.7754C32.8469 16.4281 32.7898 16.0511 32.6568 15.7196L32.6424 15.6826C32.5456 15.4444 32.3751 15.2857 32.1564 15.1596L32.126 15.1415C31.9526 15.0402 31.7529 15.0606 31.5587 15.0595L30.4305 15.0571C28.7827 15.0523 29.3786 13.8273 29.6681 12.8065C29.7489 12.5216 29.804 12.1696 29.9597 11.9161C30.4305 11.1497 31.3469 11.0008 31.9341 10.5509C31.3697 9.64426 30.0132 8.56604 29.05 7.99946L29.0237 8.00363ZM23.7599 9.03348L22.6738 9.09868C21.9688 9.17213 21.2677 9.30751 20.5818 9.48479L21.1994 11.9989L23.6729 20.0388C23.7711 20.3206 23.8609 20.9133 23.9957 20.2923L24.9797 17.6716L27.2789 10.1674C27.3347 9.92438 27.4078 9.66934 27.4332 9.4217L25.5625 9.1577C24.9762 9.08649 24.3493 8.99696 23.7599 9.03348Z" fill="black"/>
<path d="M15.6499 35.9816C13.3122 35.5684 12.7987 32.2898 14.9761 31.569C15.2865 31.4662 15.7194 31.5179 16.0466 31.5176L17.7343 31.5173C17.9338 31.5087 18.158 31.4863 18.352 31.5391C20.6197 32.1565 20.2426 35.6906 17.6854 35.9731C17.4115 36.0034 17.1121 35.9816 16.8356 35.9818L15.6499 35.9816ZM15.3971 32.9839L15.3628 32.9958C14.9047 33.1398 14.9893 34.0779 15.5855 34.4274L15.6137 34.4447C15.8842 34.6086 17.3939 34.5689 17.6831 34.4909C17.7637 34.4691 17.825 34.4103 17.8982 34.3879C18.1125 34.2325 18.3311 34.0608 18.3742 33.7802L18.3837 33.7126C18.4044 33.5576 18.3912 33.4256 18.3159 33.288L18.3007 33.2593C18.0764 32.8515 17.5393 32.9824 17.1565 32.9826L15.3971 32.9839Z" fill="black"/>
<path d="M32.7365 35.9134C32.4826 36.0084 30.5085 36.044 30.1668 35.9575C27.5323 35.2907 27.5055 32.0498 29.7916 31.5277L32.6779 31.5181C32.8018 31.5189 32.949 31.5061 33.0676 31.5433L33.1515 31.5719C35.0642 32.293 34.6508 35.4657 32.7365 35.9134ZM30.1188 32.9831L29.9625 33.0064C29.4513 33.1167 29.4646 34.0118 30.0787 34.3697C30.3955 34.5543 32.0408 34.5929 32.386 34.466C32.9062 34.2192 33.1996 33.4345 32.6956 33.0148C32.4135 32.9382 32.0307 32.9825 31.7365 32.9824L30.1188 32.9831Z" fill="black"/>
</svg>
