<svg width="48" height="48" viewBox="0 0 48 48" fill="none" xmlns="http://www.w3.org/2000/svg">
<path d="M25.4122 45.8313C24.904 45.6008 24.4163 45.3071 24.0118 44.9202C23.9737 44.8839 23.9287 44.7953 23.8774 44.8234C22.0576 45.8214 20.6572 45.9359 18.6714 45.7332C16.743 45.5363 14.0002 44.6754 12.5674 43.2794C11.4763 42.2162 11.9571 41.4632 12.4347 40.2123L13.0431 38.4482C13.4095 37.3477 13.6872 36.225 13.9607 35.0993L14.9314 30.7615L16.1344 25.9502C16.3009 25.3796 16.5068 24.8219 16.6316 24.2398C16.9891 22.571 16.3587 20.2203 15.8663 18.6209L14.9814 16.1039C14.897 16.3212 14.8521 16.546 14.7885 16.7693L13.2174 22.2537L10.6237 30.0258C9.79513 32.4698 9.7994 32.4137 7.09218 32.4114C6.77272 32.4111 6.39327 32.452 6.08249 32.3929C5.20893 32.2268 4.45561 31.561 4.40053 30.6309C4.37548 30.208 4.45888 29.8317 4.53661 29.4209L6.62113 19.9805C7.62013 16.2432 8.78301 12.556 10.1944 8.95292L11.0219 6.90167C11.9395 4.81615 13.5401 3.22917 15.9546 3.09718C16.7866 3.05169 17.6301 3.13708 18.462 3.08679L18.9455 3.03582C19.5848 2.98711 19.3985 2.81014 19.8095 2.34816C20.2641 1.83704 20.9322 1.57673 21.604 1.53314L25.8405 1.52938C26.72 1.52545 27.5507 1.65914 28.1746 2.36538C28.3374 2.54962 28.4586 2.77041 28.6181 2.95292C28.8309 3.1964 31.6213 3.07713 32.1169 3.11943C33.6742 3.25235 35.1996 4.07454 36.1318 5.34054C36.6231 6.00771 36.9184 6.77098 37.2339 7.52885L38.6042 11.0857C38.6389 11.2085 38.6872 11.334 38.7334 11.4534L39.1655 12.6795C39.1759 12.7149 39.1836 12.7497 39.1982 12.7838L40.7959 17.8644C41.0821 18.6696 41.2034 19.3931 41.4378 20.1678L42.0944 22.7107C42.1599 22.9428 42.2299 23.1845 42.2694 23.4227L42.8521 26.004C42.9005 26.1471 42.914 26.2939 42.9394 26.4421L43.0791 27.1404C43.1002 27.2408 43.1029 27.3455 43.1254 27.4451L43.4112 29.0389C43.5165 29.6251 43.7403 30.4209 43.5591 31.0057L43.5013 31.1717C43.0424 32.4166 41.9337 32.4056 40.8758 32.4094L39.8341 32.4119C38.0873 32.4131 37.9056 31.653 37.3929 30.0991L34.8569 22.5499L33.3135 17.0679C33.2192 16.7604 33.1481 16.363 32.9922 16.0837C32.2033 17.9297 31.5678 20.2891 31.371 22.2592C31.3259 22.7111 31.1888 23.6261 31.326 24.056L33.1769 30.4441L33.833 33.0265C33.9237 33.5883 34.1644 34.4807 34.3131 35.0389L35.2964 40.1315L35.4024 40.9308C35.4257 41.1558 35.4269 41.3876 35.4595 41.611C35.7749 43.7764 33.5303 45.3142 31.7317 45.9534C29.7676 46.6514 27.3261 46.7389 25.4122 45.8313ZM25.0603 2.76455L21.6925 2.76433C20.9843 2.76486 20.7161 3.00448 20.359 3.64273L21.8789 7.1225L23.3014 11.169C23.3736 11.3414 23.4066 11.5341 23.5268 11.6825C23.7515 11.9339 24.1039 12.1374 24.3939 12.3079L24.5866 12.1386C24.5818 11.4027 24.9191 10.711 25.1387 10.0188L26.6657 5.801C26.9663 5.081 27.2772 4.35475 27.6495 3.66863C27.189 2.91126 26.9144 2.76164 26.0912 2.76192L25.0603 2.76455ZM19.2594 4.20682C19.0707 4.24558 18.8851 4.28037 18.6922 4.28731L17.7613 4.29463C17.6278 4.29507 17.3816 4.24125 17.2971 4.37852L17.2327 4.51925C17.1156 4.80326 17.0481 5.02756 17.1791 5.33182C17.7694 6.70306 19.2708 8.36478 20.4772 9.3252L21.7124 10.3142L19.2594 4.20682ZM28.6776 4.21494L26.3196 10.2635L27.6206 9.21621C28.5396 8.48384 30.7321 6.29496 30.8956 5.06229L30.9022 5.01528C30.9109 4.81287 30.7627 4.46311 30.6211 4.32879C30.5478 4.2592 29.1135 4.30427 28.6776 4.21494ZM31.948 4.30057C31.9217 4.39216 32.143 4.87807 32.1052 5.1912C32.0709 5.47578 31.9318 5.77034 31.8108 6.02665C30.741 8.29198 28.6562 9.99457 26.7253 11.5086C26.1608 11.9513 25.6017 12.41 24.9868 12.7804L25.8652 13.4732C26.9382 14.3475 27.6261 15.3852 27.6269 16.781L27.6255 38.5428C27.6207 38.753 27.5636 38.9948 27.5225 39.2026L27.2801 40.2537C26.8944 41.6649 26.013 43.1482 24.884 44.075C26.6967 45.8805 30.4505 45.4255 32.5008 44.271C34.5841 43.098 34.4326 42.1095 34.0779 40.0545L33.7814 38.2963C33.2586 35.4384 32.5459 32.6139 31.7792 29.8123L31.3139 28.2314L30.161 24.285C30.0565 23.9716 30.0926 23.0649 30.1222 22.6849L30.2548 21.6301C30.5342 19.4596 31.1961 17.3747 32.0219 15.3552C32.1815 14.9652 32.4941 13.8354 32.9271 13.7031L33.0521 13.6754C33.1866 13.6481 33.3098 13.689 33.4214 13.7628L33.4474 13.7797C33.7036 13.9571 33.7608 14.3961 33.8453 14.6717L34.4287 16.6756C34.5548 17.0865 34.6787 17.6286 34.8202 18.0091L35.3476 19.8642C35.3558 19.9054 35.3677 19.9364 35.3821 19.9752L35.7279 21.2985C35.7355 21.3361 35.7467 21.3685 35.7587 21.4045L36.6776 24.2224C36.7671 24.485 36.8783 24.7407 36.9546 25.0076L37.9872 28.0896C38.0559 28.299 38.1223 28.5183 38.2038 28.7224L38.9145 30.8467C39.0703 31.1861 39.2773 31.2143 39.6014 31.2147L41.2822 31.2128C42.4742 31.2083 42.5081 30.907 42.3259 29.6885L41.4258 24.9488L40.9813 23.1212C39.8984 18.6488 38.534 14.2636 36.9225 9.95379L35.9698 7.5956C35.1844 5.79551 34.2759 4.58754 32.1184 4.31722L31.948 4.30057ZM15.7869 4.32049C13.494 4.67466 12.6313 6.04081 11.8536 7.97271L10.617 11.1209L7.90396 19.7472L6.86029 23.7875L5.67721 29.7464C5.60329 30.2163 5.41865 30.7086 5.85941 31.0516L5.88599 31.0734C6.08146 31.2323 6.30576 31.2041 6.54336 31.2092L7.4324 31.2122C9.22208 31.2096 8.94215 31.4127 9.52869 29.5852L12.0691 21.9859L14.1804 14.6334C14.3184 14.2063 14.3949 13.6352 14.9783 13.6905C15.4157 13.732 15.5097 14.2887 15.656 14.6131C15.8257 14.9895 16.0148 15.3886 16.1412 15.7811L17.1031 18.5932L17.6535 20.8714C17.7739 21.3104 17.8604 22.0592 17.8846 22.5401L17.8879 23.0075C17.9503 24.1355 17.803 24.6135 17.4493 25.7023L16.6034 28.7892C16.5792 28.8828 16.5702 28.9757 16.5371 29.0677L15.6126 33.2663L14.4798 37.7928L13.2061 41.539C13.0312 41.9909 13.008 42.0188 13.336 42.3501C14.6721 43.7003 17.2193 44.3569 19.0396 44.5577L19.4986 44.6194C20.1391 44.6744 20.8469 44.6535 21.474 44.5143C24.0253 43.9477 26.0839 41.5342 26.3548 38.957C26.421 38.3281 26.3816 37.7106 26.3794 37.0806L26.3769 16.87C26.3766 16.6375 26.4059 16.3478 26.3475 16.1231L26.3377 16.0876C25.9993 14.848 24.7529 14.1265 23.7842 13.4046L20.7009 11.0657C19.254 9.90795 15.5299 6.6041 15.9323 4.64076L16.0288 4.30957L15.7869 4.32049Z" fill="black"/>
</svg>
