<svg width="48" height="48" viewBox="0 0 48 48" fill="none" xmlns="http://www.w3.org/2000/svg">
<path d="M24.4569 43.8581C24.2868 43.8561 24.1558 43.8288 23.9998 43.7629C23.8118 43.6835 23.6224 43.7624 23.4251 43.7633L21.6042 43.7729C21.4251 43.781 21.2516 43.827 21.0748 43.8356L19.6753 43.8568C16.25 43.8635 12.3159 42.8441 12.1089 38.822L8.10408 37.8131C7.07081 37.5271 7.12762 37.3711 7.32281 36.2722L11.7737 15.2376L12.425 12.3853C12.5583 11.7926 12.5793 11.1543 12.7009 10.6443C13.2967 8.14554 15.6427 7.69488 17.6915 6.78982L18.0864 6.6169C18.2755 6.53355 18.2474 6.5215 18.3183 6.33466C19.082 4.32385 21.6697 4.16508 23.4926 4.06767C24.0576 4.03563 24.5992 4.07969 25.1612 4.11954C26.8298 4.23787 28.827 4.51902 29.6645 6.17777C29.9785 6.79975 30.1291 6.69175 30.8112 6.92716C32.7451 7.59457 33.7105 7.83836 35.0364 9.66654C36.0023 10.9983 35.6378 11.2146 35.9433 12.5382L38.4205 25.4758L40.77 36.5664C40.9491 37.6476 40.5663 37.6295 39.55 37.9074L36.3053 38.6802C35.7551 38.8083 35.9259 38.7543 35.8692 39.2539C35.5425 42.1332 32.8419 43.4633 30.2459 43.786C29.3761 43.8941 28.5308 43.8588 27.6547 43.8588L24.4569 43.8581ZM23.5447 5.63074C21.5275 5.68005 19.356 5.78571 19.4595 8.30866C19.508 9.48968 19.9401 11.4604 20.3913 12.5977L20.9555 14.1094C21.6455 15.8012 22.4491 17.4128 23.362 18.9946C23.6118 19.4274 23.8356 19.8782 24.1146 20.2937L24.2356 20.0512L25.7579 17.1478C26.9708 14.7305 28.0694 12.0244 28.4308 9.33138L28.526 8.35455C28.5466 8.04321 28.5607 7.72966 28.4851 7.42385L28.4772 7.39024C28.0155 5.48388 25.0968 5.62268 23.5447 5.63074ZM30.0569 8.32493C30.0148 8.57688 30.0223 8.83024 29.9956 9.08327C29.6047 12.7906 27.8163 16.5725 26.0705 19.8111L25.1728 21.4533C24.6657 22.305 24.733 21.921 24.7313 23.0026L24.7302 42.2578C25.809 42.3492 26.9171 42.2978 28.0003 42.2981L29.3242 42.2979C30.2037 42.2974 30.9715 42.1968 31.8105 41.8965C34.359 40.794 34.649 39.2479 34.3362 36.7149L34.062 34.9571C33.6632 32.7921 33.1106 30.6339 32.465 28.5293L31.8958 26.7774C31.5346 25.7316 31.4347 25.3556 31.3064 24.2336L30.9225 21.504C30.3964 18.417 31.3882 16.4423 32.8838 13.7808L33.4299 12.7486C33.7809 12.0476 34.106 11.3455 33.7565 10.5686L33.651 10.3681C33.3717 9.87565 32.544 9.28699 32.0506 9.05125C31.4114 8.74577 30.6907 8.6403 30.0569 8.32493ZM17.915 8.37897L16.4222 8.9561C15.2767 9.421 13.6665 10.3903 14.1756 11.8866L14.1942 11.9364C14.6122 13.0632 15.2968 14.0138 15.8605 15.0667C16.382 16.0406 16.6713 16.933 17.0032 17.9668C17.2229 18.6514 17.2691 19.845 17.2051 20.5475C17.1601 21.0419 17.0554 21.5348 16.9748 22.0248L16.6106 24.6362C16.4968 25.4255 16.4633 25.6361 16.22 26.3907L14.5931 32.0592L13.9771 34.8061L13.6549 37.2024C13.4141 39.5694 13.8528 40.9691 16.2563 41.8604C17.1895 42.1727 18.0782 42.2929 19.0629 42.2967L20.8103 42.2814C21.024 42.2688 21.2329 42.2255 21.4472 42.2189L23.2532 42.2068L23.256 22.4706C23.2558 21.6999 23.262 21.8158 22.8678 21.1696L22.046 19.7917C20.3166 16.729 18.4146 12.7693 18.0264 9.21672C17.9961 8.93988 18.0122 8.64143 17.9568 8.37011L17.915 8.37897ZM34.6039 13.9458C33.364 15.9335 31.7735 18.5429 32.3626 21.0038C32.4405 21.3294 32.4815 21.6653 32.5308 21.9962L32.8517 24.5922C32.8722 24.8125 32.877 25.0095 32.9555 25.2188L34.6043 30.5501C34.7642 31.1784 34.9196 31.7971 35.0768 32.4258C35.3665 33.5838 35.5698 34.7588 35.7552 35.9376C35.8185 36.3404 35.8152 36.7566 35.8909 37.1566L36.6614 36.9936C36.9687 36.9351 39.0239 36.5081 39.1549 36.3871L36.1246 21.9128L34.6669 14.2914C34.6478 14.1752 34.6139 14.0635 34.6039 13.9458ZM13.5556 14.1388C13.4678 14.4666 13.418 14.8006 13.3475 15.1319L8.88342 36.04C8.83608 36.296 8.7262 36.4036 9.03497 36.4704L11.2475 37.0182L12.1268 37.2431C12.1507 37.155 12.1476 37.0528 12.1559 36.9615L12.4087 35.0235C12.6338 33.6708 12.9635 32.3295 13.2873 30.9975L14.2729 27.5233C14.6674 26.3132 14.9911 25.5935 15.1572 24.3249L15.4101 22.2837C15.499 21.6039 15.685 20.9206 15.7345 20.2389C15.8569 18.5561 15.0825 16.7672 14.2679 15.3481L13.5556 14.1388Z" fill="black"/>
</svg>
