<svg width="48" height="48" viewBox="0 0 48 48" fill="none" xmlns="http://www.w3.org/2000/svg">
<path d="M29.9413 41.0902L15.9896 41.0903C15.8224 41.0901 15.6472 41.1004 15.4816 41.0742L15.4452 41.0681C14.7347 40.9638 13.989 40.4273 13.8935 39.6706L13.8903 39.6446C13.8628 39.4583 13.8732 39.2675 13.8756 39.0794L13.9011 38.1684C14.0607 36.0031 14.3627 33.8418 14.7561 31.7068C14.934 30.7413 15.1976 29.7784 15.3351 28.8066C15.4071 28.2975 15.3199 27.7465 15.32 27.2315L15.3178 24.1399C15.3171 23.6008 15.36 23.0166 15.2869 22.4833C13.6574 24.625 13.2194 26.281 13.2182 28.9738L13.2257 30.3985C13.2339 30.593 13.2739 30.7836 13.2842 30.9775L13.4067 32.7422C13.4332 32.9999 13.5047 33.2604 13.4185 33.5161L13.4059 33.5508C13.1466 34.2966 12.4339 34.312 11.7655 34.4063C11.1789 34.489 10.4991 34.6845 9.90745 34.5802C9.25734 34.4655 8.66559 33.9264 8.44448 33.3054L8.42953 33.2626C8.39048 33.1532 8.36357 33.0588 8.3564 32.9423L8.2755 31.7757C8.23448 31.4299 8.24751 31.073 8.24606 30.7249L8.24175 29.0741C8.24025 27.6844 8.27343 26.305 8.47762 24.9274C8.93512 21.8407 10.3814 18.779 11.7925 16.0313L12.7998 14.1816C13.7015 12.545 14.0485 11.8607 15.5617 10.6955L16.1848 10.2523C16.6095 9.96239 16.512 9.96272 16.6718 9.50686C17.1354 8.18489 18.1144 7.05732 19.5883 6.90024C20.1684 6.85439 20.555 7.14614 20.9053 7.58799C22.7513 6.7831 23.9626 6.71611 25.9492 7.26235L26.9421 7.55982C26.9837 7.57336 27.2035 7.65567 27.2356 7.64663C27.33 7.6201 27.6251 7.02296 28.1603 6.93403L28.1947 6.92883C28.3725 6.89869 28.5744 6.89817 28.7524 6.93014L28.7928 6.93783C29.8668 7.13517 30.7672 7.97513 31.1724 8.96916C31.3537 9.41391 31.3474 9.78802 31.7302 10.1118C33.7304 11.8031 35.1636 14.1608 36.3865 16.4431L37.0308 17.7071C37.4823 18.5575 37.8767 19.4618 38.2369 20.3541L38.9839 22.5191C38.9932 22.5653 38.9985 22.6008 39.0169 22.6447C39.3608 23.4692 39.477 24.4884 39.5745 25.3788C39.6073 25.6772 39.6551 25.9817 39.6692 26.2818L39.6867 31.6661L39.629 32.3321C39.6186 32.5928 39.6673 32.9725 39.5665 33.2115C38.9618 34.6448 38.1126 34.6632 36.6795 34.4256L35.7186 34.2414C35.2504 34.1311 34.8134 33.9269 34.713 33.3963L34.7056 33.3516C34.6274 32.9051 34.7329 32.381 34.77 31.9336L34.8636 30.5949C34.8884 30.2056 34.8778 29.8109 34.8778 29.4209L34.8714 28.2657C34.7878 26.3683 34.3758 24.5588 33.2337 22.9948C33.0656 22.7646 32.9006 22.4918 32.6906 22.2989L32.6873 22.3477C32.6512 22.8631 32.6478 23.6402 32.6431 24.186L32.696 28.2207C32.699 28.587 32.7444 28.8952 32.8066 29.2504L32.9024 29.7859C32.984 30.3438 33.16 31.0848 33.2816 31.6407C33.4475 32.3989 33.562 33.1441 33.6567 33.9141L33.8032 34.9335C33.8373 35.1987 33.8729 35.4738 33.8996 35.7397L34.0443 37.6147C34.054 37.7429 34.086 37.8675 34.095 37.9967L34.125 39.1011C34.1258 39.3224 34.1387 39.5409 34.0815 39.7569L34.0709 39.796C33.7164 41.138 32.497 41.089 31.4381 41.0901L29.9413 41.0902ZM28.4161 8.23833C28.2236 8.29777 28.1671 8.41421 28.2303 8.59913L28.4565 9.25786C28.8807 10.3016 28.5931 11.3107 28.1623 12.2974L27.9162 12.8091C27.8886 12.8618 27.8287 12.9408 27.8347 12.9993L28.7731 13.928C28.8788 13.8588 28.9756 13.7912 29.0692 13.7056C30.2626 12.6097 30.6399 10.9484 29.9423 9.48549C29.66 8.89341 29.1559 8.29875 28.4537 8.24021L28.4161 8.23833ZM19.6401 8.253C19.2567 8.36907 18.8785 8.50997 18.5889 8.79914C17.1007 10.2855 17.877 12.3508 19.035 13.7427L19.209 13.9378L20.2128 13.0553C19.4975 11.4808 19.0799 10.4469 19.7004 8.78827C19.7549 8.64258 19.9876 8.29992 19.7225 8.2553L19.6401 8.253ZM23.2667 8.25328C22.5335 8.34783 21.8675 8.52985 21.2734 8.98857C20.8128 9.34425 20.5108 10.3096 20.7283 10.8558L20.7536 10.9084C20.8513 11.1083 20.9836 11.5438 21.0961 11.8068L22.8005 15.5429C22.9359 15.8211 23.0487 16.1284 23.1563 16.418L23.4852 17.2852C23.6185 17.6606 23.7815 18.573 23.9881 18.8336L24.0185 18.8392C24.1111 18.6717 24.174 18.4482 24.2293 18.2643L26.2749 13.1333C26.335 12.9938 26.361 12.8425 26.4205 12.7051C26.4724 12.5854 26.5818 12.5051 26.6466 12.3936C27.1327 11.5575 27.6989 10.0911 27.0304 9.20419L27.0162 9.18483C26.6147 8.66363 24.8296 8.32946 24.0828 8.25493L23.2667 8.25328ZM16.5601 11.6402C15.7236 12.3214 15.2582 12.6085 14.6956 13.5352L12.8193 16.9688C11.3425 19.8036 10.0143 22.8467 9.65526 26.0508L9.65583 32.689C9.68662 33.1583 10.2189 33.2571 10.5892 33.2227L11.3598 33.1242C11.6078 33.0933 11.8681 33.0766 12.1064 32.9977L11.9678 31.349C11.9484 31.1206 11.9098 30.895 11.8989 30.6653L11.8872 28.9493C11.8944 26.0834 12.3939 23.8339 14.2998 21.5257C14.6051 21.1559 14.9375 20.7741 15.3031 20.4631L15.2666 19.7738C15.2579 19.6806 15.2315 19.5948 15.2242 19.5014L15.1956 18.8791C15.1732 18.5425 15.0639 18.1897 15.3168 17.9077C15.5681 17.6274 15.9938 17.5797 16.261 17.8629C16.5837 18.2049 16.582 19.9211 16.5982 20.4611L16.6651 26.8876C16.6652 27.3592 16.7532 27.2208 17.0907 27.4628C18.2887 28.3218 19.0857 29.4562 19.5363 30.8446L19.6775 31.3976L19.7592 31.8427C19.8497 32.4076 19.9422 33.8583 19.3124 34.0375L19.2742 34.0486C18.1964 34.3493 18.5109 32.784 18.4803 32.3028C18.4072 31.1553 17.6295 29.5519 16.701 28.8322L16.5512 29.6426C16.1668 31.6195 15.7288 33.5908 15.4707 35.5899L15.1803 39.0442C15.1689 39.2988 15.1596 39.5177 15.4186 39.6684L15.4618 39.6997C15.6984 39.8665 16.2545 39.7627 16.5359 39.7628L23.038 39.763L22.9754 38.7436L22.9185 27.4922C22.923 27.2458 22.9612 27.001 22.9632 26.7525C22.9709 25.8214 22.946 24.9147 23.038 23.9883L23.0843 23.2266C23.1351 22.6223 23.2222 22.0325 23.1454 21.425C22.8797 19.3238 22.1014 17.2081 21.2236 15.2991L20.779 14.3348C20.4059 14.6259 20.1719 15.017 19.7108 15.1946L19.683 15.2057C18.1192 15.8096 16.7473 12.7976 16.5601 11.6402ZM31.5603 11.8008C31.3956 12.887 30.0585 15.4739 28.6579 15.2465C28.0673 15.1507 27.6481 14.6181 27.2625 14.205C27.0105 14.6459 26.8353 15.1498 26.6456 15.6216L25.1699 19.675C24.716 21.1216 24.5585 21.8498 24.4196 23.3687L24.3354 24.3868C24.3096 24.6219 24.2763 24.8547 24.2665 25.0917L24.2657 36.055C24.2898 36.5484 24.3448 36.9157 24.3454 37.4526L24.3476 38.9693C24.348 39.2045 24.309 39.5269 24.3658 39.7498L31.4942 39.7637C31.8296 39.7635 32.3142 39.8565 32.6075 39.6638L32.6345 39.6471C32.8945 39.4781 32.8199 39.1499 32.8099 38.8893L32.7548 37.8422C32.6208 35.9286 32.4146 34.0152 32.0506 32.1297L31.4229 28.8619C30.6206 29.6448 29.994 30.7429 29.9788 31.8868L29.9819 32.7052C29.9947 33.0017 30.1586 33.3578 30.025 33.6446L30.0107 33.6765C29.7267 34.2876 28.9414 34.1126 28.7917 33.4774C28.6889 33.0411 28.6579 32.5336 28.6638 32.0863C28.7281 30.2596 29.5504 28.5409 31.0247 27.4486C31.1288 27.3714 31.2411 27.3142 31.3249 27.2146L31.3966 21.2674C31.4341 20.507 31.4331 18.7828 31.6154 18.12C31.7937 17.4718 32.7659 17.5839 32.8687 18.1968C32.9304 18.5646 32.858 19.0023 32.8302 19.3711L32.8028 20.0152C32.7769 20.5452 32.7782 20.4377 33.1546 20.8225L33.726 21.4367C34.119 21.8904 34.4821 22.3888 34.782 22.9093L35.1741 23.666C36.2604 25.7614 36.2842 28.9071 36.1508 31.1738L36.0506 32.4683C36.0138 33.0961 35.9565 32.9103 36.5923 33.043C37.31 33.1928 38.3348 33.5276 38.365 32.4124L38.3762 27.5179C38.3728 26.155 38.2417 24.8712 37.9019 23.5405C37.0388 20.1611 34.1225 14.448 31.7405 11.977C31.7014 11.9364 31.6059 11.8102 31.5603 11.8008Z" fill="black"/>
</svg>
