<svg width="48" height="48" viewBox="0 0 48 48" fill="none" xmlns="http://www.w3.org/2000/svg">
<path d="M30.9443 39.6616L31.5726 39.4285L30.2853 29.9415C30.2506 29.651 30.1919 29.3656 30.1724 29.0729C30.1119 28.1668 31.415 27.9412 31.5841 28.8969C31.6338 29.178 31.6964 29.4646 31.7351 29.7467L33.1122 39.8928C33.1253 39.996 33.1499 40.1118 33.122 40.2139L33.1135 40.2416C32.9759 40.715 32.5053 40.699 32.1035 40.8157C31.3718 41.0283 30.6376 41.3491 29.9836 41.7357C29.5515 41.9912 29.17 42.2954 28.699 42.485C27.1917 43.0916 25.4459 42.8788 24.1826 41.8669C22.797 43.1191 20.7032 43.235 19.0785 42.3715C17.8392 41.7129 17.2458 41.193 15.8131 40.7964C15.108 40.6012 14.8181 40.6554 14.8989 39.8122L16.3052 29.3226C16.3681 28.9676 16.4104 28.5224 16.7806 28.3471C17.159 28.1678 17.5805 28.309 17.7345 28.701L17.7458 28.7328C17.8531 29.0106 17.7615 29.3406 17.7228 29.6244L16.5968 38.1674C16.5303 38.5946 16.4932 39.025 16.4064 39.4497C17.118 39.6194 17.9004 39.9632 18.53 40.3295C18.96 40.5798 19.3522 40.8895 19.8016 41.1056C20.9267 41.6467 22.4439 41.5808 23.3559 40.6695C24.1375 39.8885 24.3328 38.9522 24.5006 37.9096L24.9193 34.3105L24.9731 33.1508C24.986 32.951 25.0265 32.7575 25.0361 32.5563L25.0551 31.2331C25.0653 30.9742 25.1088 30.7173 25.1258 30.4588L25.1436 29.6126C25.187 27.1217 24.4919 25.5483 23.2698 23.3761L22.2953 21.6389C22.1283 21.3089 21.9633 20.9651 21.8675 20.6064C21.6013 19.6099 21.8325 18.5916 21.4923 17.6127C21.0845 16.4395 20.2449 15.5165 19.5218 14.5307L18.2354 12.6227C18.0093 12.2533 17.8276 11.8767 17.6553 11.4799C17.3745 10.8337 17.5673 10.9855 16.964 11.311C16.5524 11.5332 16.1283 11.696 15.6904 11.8564C16.8801 13.5474 17.5563 15.2664 17.5633 17.3511C17.5655 18.0024 17.544 18.6521 17.4761 19.3002L16.7361 24.3392L15.4423 31.9447C15.1953 33.0037 14.0809 32.485 13.3715 32.3447L11.3726 31.9393C10.2428 31.6956 9.96055 31.764 10.2184 30.3978L13.2036 15.3978L13.7908 11.8678C13.9239 10.6578 13.9618 10.74 15.0356 10.5003C15.8075 10.3279 16.4488 9.94366 17.0582 9.44477C17.4334 9.13759 17.4842 9.00227 17.6706 8.57055C18.6976 6.1907 21.2885 5.01789 23.7605 5.00781C26.2233 5.0102 28.4608 5.63528 29.8941 7.81323C30.0763 8.09008 30.3442 8.45945 30.4167 8.79133C30.566 9.47444 32.3765 10.2899 32.9717 10.4601C34.148 10.7965 34.0515 10.6067 34.2146 11.9637L34.7338 14.9291C34.7588 15.0364 34.7576 15.1496 34.7823 15.2572L35.344 18.3041L37.9082 30.9871C38.1112 31.8918 36.8425 31.8994 36.2776 32.0184L33.448 32.6099C32.6017 32.7772 32.525 31.789 32.4172 31.2212L30.9609 22.101L30.5954 19.3508C30.2357 16.8384 31.1627 13.8912 32.6585 11.8978L32.088 11.7105C31.5684 11.5236 31.05 11.2971 30.5879 10.9931C30.4984 11.2442 30.4528 11.511 30.3825 11.768C29.9511 13.345 29.0793 14.8105 28.2428 16.1991L26.0318 19.5596C26.0471 19.6306 26.0639 19.6943 26.0886 19.7627C26.5073 20.9242 25.2207 21.6884 24.8036 20.58C24.6605 20.1994 24.6202 19.7354 24.5337 19.3353L24.295 18.4012C24.1664 17.8585 24.0165 17.3142 23.8293 16.7884L23.0783 14.8799L21.3033 9.56191C21.1463 9.05575 20.9948 8.71811 21.3129 8.21734C21.8954 7.30061 23.2271 7.32508 24.1821 7.3262C25.2288 7.32742 26.8172 7.48722 26.8987 8.83947C26.9145 9.10103 26.81 9.32833 26.7431 9.57363L25.1371 15.4929C25.1096 15.604 25.0558 15.767 25.0816 15.88L25.0884 15.9062C25.1903 16.3314 25.4693 17.2533 25.6239 17.6554C25.7202 17.4031 25.8954 17.1529 26.0435 16.9277L26.6843 15.9474C27.6521 14.4142 29.8688 11.026 29.0122 9.13623C27.7804 6.41884 23.7308 5.83127 21.2131 6.99414C20.0363 7.53775 18.4998 8.89473 18.8043 10.3522C18.8211 10.4324 18.8302 10.5229 18.8665 10.5969L19.1791 11.2903C20.3611 13.6127 23.3015 16.2119 23.2257 18.9369C23.2174 19.2359 23.0789 19.611 23.1773 19.8965L23.1934 19.9494C23.4039 20.7565 23.8887 21.5028 24.3028 22.2182L24.8442 23.1908C25.5221 24.3879 26.271 26.182 26.48 27.5471C26.5011 27.6846 26.5081 27.8538 26.5452 27.9842L26.5664 28.0539C26.6018 28.1819 26.5962 28.3314 26.5983 28.4634L26.3539 34.3141C26.2063 36.3138 26.1568 38.9813 25.1321 40.765L25.4137 40.9552C26.0819 41.3446 27.0413 41.4291 27.7925 41.2246C28.8302 40.9419 29.7339 40.0276 30.9443 39.6616ZM23.357 8.79259C23.1127 8.81491 22.8665 8.83206 22.6295 8.89745L23.5808 11.9291C23.8112 12.5254 23.9456 13.1605 24.1699 13.7609L24.278 13.1905L25.4246 8.90125C24.7221 8.7955 24.0647 8.78655 23.357 8.79259ZM15.0431 13.4994C14.84 14.1455 14.7928 14.8444 14.6713 15.5091L11.6935 30.4963L13.0741 30.7799L14.1425 31.0235C14.2489 30.6088 14.3054 30.1867 14.3727 29.765L15.8822 20.0971C16.2351 17.8736 16.2368 15.5129 15.0539 13.5167L15.0431 13.4994ZM33.0549 13.9387C31.8843 16.3622 31.8602 17.8299 32.1987 20.3308L32.3835 21.6318C32.4379 21.9911 32.4819 22.3512 32.5333 22.7103L33.7145 30.1006C33.7631 30.4061 33.7984 30.7428 33.8848 31.0391L35.0798 30.7553L36.0368 30.5691C36.1279 30.5489 36.2591 30.5404 36.3375 30.4928L33.1581 14.5376C33.1189 14.3385 33.0623 14.1423 33.0549 13.9387Z" fill="black"/>
</svg>
