<svg width="48" height="48" viewBox="0 0 48 48" fill="none" xmlns="http://www.w3.org/2000/svg">
<path d="M27.3332 38.8892C26.2364 38.5146 25.2429 37.8806 24.4964 36.9863C23.8019 36.1542 24.2316 36.133 23.6283 36.8596C22.9122 37.7221 21.9452 38.3865 20.9211 38.827C19.509 39.4343 16.1306 39.4397 14.9864 38.2271C14.2421 37.4383 14.1669 35.4272 14.2632 34.4027C14.5268 31.5979 16.2549 29.1903 16.5808 26.4022C16.7569 24.8961 16.3374 23.1629 15.7596 21.7914C15.517 22.3464 15.3822 22.9533 15.2091 23.5325C14.4595 26.0411 13.9626 28.6378 13.606 31.2303L13.2086 34.9189C13.0725 36.6718 13.0031 37.323 11.2169 37.6448C9.69463 37.9191 9.03782 37.5363 8.51404 35.9329C8.44213 35.7127 8.4576 35.4938 8.45718 35.2653L8.46102 32.8656L8.53851 30.9032C8.54029 30.6788 8.53227 30.4498 8.57544 30.2285L10.2591 19.3774L10.7573 17.1835C11.0996 15.7823 11.4846 14.3971 11.9608 13.0348L12.9435 10.5357C14.1465 7.74602 16.4043 8.88373 16.8451 8.47202C17.459 7.8987 18.0511 7.6362 18.8669 7.5567C19.5734 7.47673 20.8156 7.6323 21.4861 7.81165C22.0386 7.9594 22.5612 8.16349 23.1315 8.24969C23.8859 8.36374 25.5614 8.26226 26.2447 8.06773C26.5028 7.99427 26.7475 7.88238 27.0064 7.81029C28.0184 7.52843 29.5847 7.43834 30.4924 7.94285C30.8746 8.15529 31.1738 8.4648 31.534 8.70673L31.6151 8.67523C32.7771 8.25049 34.1617 8.61218 34.8103 9.70179C34.968 9.96687 35.0634 10.2638 35.1706 10.5508L36.5506 14.8523C36.5954 15.1 36.6783 15.3797 36.751 15.6209L36.9385 16.3709C36.961 16.462 36.9964 16.545 37.0145 16.6392L38.0906 21.2576L38.7477 24.634C38.7869 24.7857 38.7878 24.9371 38.8145 25.0897L38.9578 25.9296C38.9804 26.11 38.9835 26.3072 39.0264 26.4831L39.0322 26.5051C39.0749 26.6926 39.0683 26.8928 39.0972 27.0819L39.3805 30.0636C39.3908 30.2101 39.418 30.3579 39.4244 30.5037L39.4776 32.2283C39.4858 32.4337 39.5275 32.6355 39.5372 32.8399L39.5412 34.3756C39.5405 35.6904 39.4975 37.444 37.8752 37.8349L37.7991 37.8532C37.3448 37.9456 35.9186 37.6568 35.5073 37.3743C34.8243 36.9053 34.8016 36.4457 34.8012 35.7162C34.8008 34.9592 34.735 34.2173 34.6635 33.4649L34.4977 32.0689L33.5594 27.0074L32.4146 22.5265C32.3588 22.3234 32.2776 22.1282 32.2404 21.9199L32.2366 21.8974C32.0563 22.2622 31.9573 22.6595 31.8519 23.0506C31.2763 25.1862 31.3059 26.9126 32.0636 29.0389L33.2047 32.0231C33.5073 32.8294 33.6648 33.6817 33.7281 34.5375C33.9473 37.4963 32.4825 39.1795 29.601 39.1876C28.8057 39.1899 28.1008 39.1231 27.3332 38.8892ZM18.8237 8.93276C18.3271 9.02609 17.64 9.58924 17.3455 10.0072C17.0846 10.3776 16.9662 11.0702 17.0548 11.5082C17.1619 12.0382 17.5693 12.4662 17.9226 12.8478L20.2707 15.0751C20.5848 15.3191 20.8867 15.6011 21.1527 15.8973C20.961 15.4062 20.8993 14.8934 20.8008 14.3793L20.4276 12.1941C20.293 11.2421 20.2607 9.97488 20.362 9.00466C19.8703 8.93866 19.318 8.89226 18.8237 8.93276ZM28.7013 9.00991L27.7342 9.07901C27.7053 10.6773 27.536 12.2661 27.2327 13.8364L26.763 15.987L28.0319 14.8292C29.0696 13.9921 30.8161 12.8149 30.9724 11.3908C31.1127 10.1126 29.9406 8.7341 28.7013 9.00991ZM21.7373 9.4249C21.7236 10.0537 21.6721 10.7456 21.7817 11.3647C21.8927 11.991 21.908 12.7246 22.0323 13.3826L22.6596 16.3779C22.8009 16.9405 22.9353 17.5666 23.1841 18.0948L23.3691 18.5263C23.6269 19.0598 23.8246 19.5979 24.0675 20.1316L24.7279 18.229C25.489 15.9327 26.1411 12.759 26.2809 10.3939C26.2997 10.0759 26.3428 9.76273 26.3208 9.44374C25.564 9.70024 23.6104 9.86604 22.7916 9.68459L21.7373 9.4249ZM32.4318 9.9244L32.2125 9.9468C32.2052 10.0264 32.2379 10.1208 32.2694 10.1933C32.5198 10.7685 32.4438 11.6665 32.2353 12.2362C31.4789 14.3033 29.3246 15.3861 27.8052 16.8245C26.3226 18.2281 25.1969 20.3626 24.8455 22.3944C24.6808 23.3464 24.7255 24.3089 24.7258 25.2715L24.7257 33.6299C24.7283 36.3166 27.2909 37.8004 29.7631 37.7801C33.3608 37.7504 32.4275 33.9659 31.5792 31.7711C29.9087 27.4492 29.4716 25.7285 31.0057 21.1482C31.2501 20.4149 31.4293 19.6882 31.5067 18.9176L31.5781 18.168C31.6039 17.7574 31.5093 17.3131 31.9395 17.0809C32.2467 16.9151 32.7188 17.0164 32.8743 17.3505L32.9263 17.4746C33.1754 18.014 32.6511 19.3101 32.9479 19.828C33.3362 20.5056 33.4313 21.2681 33.7038 21.9842L34.723 25.7589C34.8805 26.2737 34.9545 26.8296 35.0668 27.3555L35.8612 31.535L36.1419 34.1014C36.1915 34.4952 36.1843 34.9113 36.1839 35.3078L36.184 35.8597C36.1871 36.4119 36.8733 36.3721 37.2822 36.4215C37.7142 36.4737 37.8509 36.3478 38.0276 35.9239L38.101 35.7195C38.1781 35.4966 38.1392 35.1873 38.1394 34.9493L38.1304 32.7342L37.9752 29.4753L37.5886 26.1092L37.1069 23.296L36.3078 19.6811L34.9054 14.365L34.0765 11.8148C33.7302 10.8156 33.6613 9.8749 32.4318 9.9244ZM15.6012 9.94596C14.519 10.0926 14.2267 10.8677 13.8787 11.7717L12.6779 15.3365L11.731 19.0897L10.9761 22.798L10.3139 26.9998L9.92549 31.4103L9.88959 34.7956C9.8923 35.346 9.82466 35.9612 10.3194 36.3396C10.6702 36.6079 11.6331 36.3574 11.7154 35.8938C11.802 35.4056 11.7921 34.9003 11.8448 34.4086L12.2239 31.1415L13.2276 25.7756C13.5699 24.2773 13.9565 22.7905 14.4696 21.3403L14.7322 20.6383C14.8605 20.2932 14.9483 20.0436 15.2051 19.7714L15.1136 18.9506C15.0879 18.6338 15.0328 17.8239 15.1024 17.5126C15.243 16.8836 16.1817 16.7516 16.4391 17.664C16.526 17.9722 16.4689 18.3797 16.484 18.7008C16.5064 19.1801 16.6803 20.0877 16.8297 20.5076L17.1335 21.333C17.3286 21.932 17.5996 22.5176 17.7285 23.1371L17.8616 23.7303C17.9227 24.0614 17.9522 24.4028 17.9734 24.7381L17.9991 25.6045C18.0002 28.0425 17.1808 29.5628 16.4182 31.7886L16.1741 32.5518C15.7949 33.7067 15.554 34.761 15.6967 35.9749C15.8287 37.0976 15.7765 37.3571 16.88 37.6091C17.8781 37.837 18.9559 37.9239 19.9573 37.6664C21.4804 37.2746 23.252 35.9 23.2559 34.1813L23.2559 24.4667C23.2562 24.0818 23.3661 23.0043 23.3323 22.7637C23.1485 21.4579 22.6506 20.1365 22.0283 18.9793C21.4987 17.9946 20.7119 17.3318 19.8785 16.6132L17.2524 14.1975C16.0129 12.9555 15.1924 11.7972 15.8513 9.94095L15.6012 9.94596Z" fill="black"/>
</svg>
