<svg width="48" height="48" viewBox="0 0 48 48" fill="none" xmlns="http://www.w3.org/2000/svg">
<path d="M19.3239 39.1673L17.5699 39.1674C17.1448 39.1673 16.6999 39.1954 16.2771 39.1552C14.0921 38.9471 12.5834 36.8634 13.0622 34.6967C13.243 33.8786 13.6221 33.6602 13.3959 32.8117C13.1023 31.7108 12.9152 30.4958 13.4357 29.4253C13.5144 29.2634 13.4807 29.2831 13.439 29.109L13.2595 28.2989C13.194 27.9514 13.2077 27.5725 13.1291 27.2306L11.0793 31.3801C10.8629 31.7805 10.6809 32.2128 10.4311 32.5929C9.41115 34.1445 7.22748 34.2893 5.75729 33.2892C4.31682 32.3093 3.45267 30.4591 4.07666 28.7573C4.28301 28.1945 4.6156 27.6691 4.8835 27.1332L7.14179 22.6503L10.4863 14.8203C10.7822 14.1022 11.0596 13.3637 11.514 12.7282C12.7076 11.0586 14.5712 10.1811 16.5818 10.0778C16.9799 10.0574 17.2362 10.0903 17.4776 9.70819L17.4958 9.67856C17.6491 9.43847 17.5496 9.08517 17.5908 8.81114L17.5964 8.77683C17.702 8.09559 18.1969 7.37663 18.9124 7.23956L18.9489 7.23305C19.6291 7.10508 19.9527 7.36252 20.5575 7.59174C21.9247 8.10989 23.4327 8.27002 24.8891 8.15217C25.8374 8.07549 26.8452 7.85484 27.7146 7.45233C28.0088 7.31611 28.2215 7.22747 28.5423 7.17999C29.4695 7.11028 30.3587 7.91761 30.4257 8.8342C30.4576 9.27131 30.3477 9.64524 30.7328 9.96263L30.7543 9.98006C30.941 10.1469 31.3262 10.0713 31.5577 10.0886C33.6706 10.2461 35.5566 11.1637 36.6809 13.0432C37.0284 13.6242 37.2695 14.2689 37.523 14.894L40.5129 21.8548L43.6163 28.1159C45.1241 30.6908 43.0709 33.9168 40.1115 33.9166C39.1271 33.9165 38.2552 33.4954 37.6476 32.7169C37.3761 32.3691 37.2024 31.9024 36.9979 31.509L34.9173 27.1937C34.7783 27.8633 34.7954 28.3331 34.5941 29.0503C34.4806 29.4545 34.7028 29.8223 34.7896 30.2222C34.9644 31.0288 34.8261 32.0349 34.524 32.7846C34.438 32.9981 34.5208 33.5234 34.6194 33.7468C35.6429 36.0647 34.5606 38.7571 31.8629 39.151C31.5709 39.1937 31.2442 39.1671 30.9487 39.1673L27.1103 39.1674C26.1422 39.1667 25.4051 39.1785 24.5505 38.5707C24.4247 38.4812 24.2958 38.254 24.1497 38.3703C23.0665 39.2327 22.3903 39.1669 21.1164 39.1677L19.3239 39.1673ZM19.1897 8.50894C19.0235 8.59074 18.9529 8.66738 18.8773 8.83458L18.865 8.86088C18.8214 8.96269 18.8433 9.13116 18.8431 9.24474C18.841 10.307 18.6862 10.3821 17.9663 11.1278C18.032 11.2519 18.0916 11.3693 18.1891 11.4721L18.217 11.5021C18.4308 11.7247 18.7109 11.91 18.9572 12.0962L24.164 16.0635C24.809 15.4205 26.5393 14.2507 27.4314 13.7708L28.5229 13.0793C29.1501 12.6784 30.3473 11.7174 29.7869 10.8598L29.2562 10.1669C28.8988 9.77222 29.7178 8.07286 28.1886 8.67675C27.193 9.06989 26.1602 9.36427 25.0872 9.44203C24.5456 9.48131 23.092 9.5033 22.5796 9.40322L22.0396 9.32541C21.6001 9.24825 21.1553 9.14667 20.7295 9.01261L20.0445 8.77683C19.7599 8.66574 19.5048 8.499 19.1897 8.50894ZM16.7282 11.4076C16.1093 11.4374 15.4902 11.4998 14.906 11.7211C12.8824 12.4877 12.3867 13.6324 11.6411 15.4177L8.31568 23.1998L6.17565 27.4346C5.57617 28.6051 4.68633 29.6983 5.41304 31.0149C5.79357 31.7042 6.30835 32.2957 7.09965 32.5155C7.95526 32.7531 8.92895 32.6127 9.40989 31.7915L10.3758 29.9709C11.7002 27.4491 12.3644 25.7093 13.197 23.0161L13.4571 22.183C13.512 22.0023 13.5545 21.811 13.6286 21.637C13.8531 21.1103 14.5738 21.2513 14.7401 21.7378L14.7551 21.77C14.874 22.0687 14.6345 22.6109 14.5703 22.9109C14.3311 24.0276 14.2697 25.4907 14.3484 26.6521C14.3955 27.3483 14.4678 28.324 14.7514 28.9275C15.5775 29.3071 16.5431 29.5247 17.4255 29.7168C17.901 29.8203 18.5694 29.7929 18.7922 30.3155L18.8041 30.3611C19.0306 31.3262 17.8361 31.1025 17.3194 30.9898C16.3479 30.7779 15.4248 30.5354 14.4939 30.1803C14.3779 30.6481 14.3702 31.3168 14.4354 31.802C14.488 32.195 14.5024 32.4421 14.8931 32.6084C15.5795 32.9004 16.3471 33.118 17.0739 33.281L17.9893 33.4744C18.2813 33.5341 18.6072 33.5617 18.7637 33.8508L18.7764 33.8732C18.9995 34.2819 18.6938 34.784 18.2259 34.7829C17.6158 34.7814 15.8184 34.3041 15.2629 34.1048L14.6458 33.8658C14.3828 34.6948 14.0315 35.5082 14.3933 36.3745C15.0391 37.9204 16.231 37.8878 17.6487 37.8887L21.4625 37.8889C22.3264 37.8883 22.7857 37.9226 23.4347 37.2244C23.2104 36.7533 23.1754 36.3239 23.1747 35.8091V18.2863C23.1748 18.1389 23.165 17.9801 23.1879 17.8346C23.3476 16.8204 23.7493 17.4069 22.8068 16.7288L17.996 13.0844C17.511 12.691 16.8645 12.3076 16.7583 11.6362C16.7466 11.562 16.7507 11.4785 16.7282 11.4076ZM31.1561 11.3889C31.0391 12.9355 30.2807 13.4817 29.0202 14.2793L26.2151 16.0856C24.7852 16.9962 24.4384 17.4104 24.438 19.0108L24.4396 35.9917C24.4663 36.9174 25.213 37.638 26.0778 37.8625C26.2874 37.9169 26.5562 37.8899 26.774 37.8901L31.5684 37.8813C33.0771 37.8064 34.0069 36.303 33.6395 34.8772L33.287 33.7738C32.7418 34.0088 30.1552 34.9453 29.5811 34.7306C29.07 34.5396 29.0278 33.8076 29.5419 33.6092C30.7838 33.1301 32.2824 33.0932 33.4514 32.242C33.5896 31.7907 33.5501 30.6647 33.5355 30.1936C32.7033 30.5409 31.4116 30.8943 30.5491 31.0986C30.103 31.2042 29.4006 31.4453 29.1987 30.8292C29.1368 30.6404 29.1954 30.4591 29.2869 30.2925L29.321 30.2362L29.3432 30.2182C29.6803 29.9477 30.2281 29.8929 30.6355 29.7744L33.0755 29.0268C33.5061 28.8724 33.5131 28.2482 33.5617 27.8198C33.7483 26.1758 33.7249 24.4899 33.4001 22.8655L33.2554 22.1312C33.1018 21.1912 34.1641 21.0067 34.4269 21.7495L35.5442 25.3076L36.658 28.0073L38.3705 31.3823C38.6158 31.8787 38.8093 32.2741 39.3558 32.4967C41.1629 33.2329 43.5631 31.0937 42.6123 28.983L39.5851 22.9464L36.1475 14.9282C35.9316 14.4178 35.7368 13.9177 35.4197 13.458C34.489 12.1094 32.7859 11.3096 31.1561 11.3889Z" fill="black"/>
</svg>
