<svg width="48" height="48" viewBox="0 0 48 48" fill="none" xmlns="http://www.w3.org/2000/svg">
<path d="M29.8113 43.1159C27.674 43.4978 26.1359 43.4708 23.9559 43.4706L20.9062 43.4621C19.7829 43.4098 18.6339 43.253 17.5503 42.9513C15.6853 42.4319 13.1757 40.9784 13.0551 38.7925C13.0366 38.4567 13.1001 38.1258 13.1187 37.7909L13.4117 33.9051C12.6874 35.3453 11.0194 34.9814 9.82208 34.4741L8.81268 34.0274C7.25643 33.3425 6.59352 32.9845 6.60313 31.2408L6.62066 30.2286C6.65338 29.1908 6.78946 28.179 6.93594 27.1525L7.65599 23.1826C8.68986 18.7303 10.6105 13.7301 12.9889 9.77971C14.1992 7.76948 15.4578 7.16704 17.8945 7.0604C18.3838 7.03898 18.2023 7.13216 18.4755 6.70958L19.1708 5.69071C19.3893 5.3728 19.4908 5.13646 19.8621 4.99513C20.2792 4.95693 20.5321 5.1344 20.7068 5.51994L20.8202 5.74593C21.444 7.06035 22.6624 7.12954 23.9752 7.12954C25.771 7.12954 26.4374 7.08144 27.2768 5.52323C27.8317 4.49312 28.4281 5.11307 28.887 5.81277L29.4775 6.7206C29.8248 7.26998 29.7312 7.00607 30.5154 7.08337C33.1895 7.34694 34.0355 8.08837 35.275 10.2424C36.0446 11.5798 36.7339 12.9678 37.3579 14.3791L37.9804 15.8884C38.1603 16.3212 38.3624 16.7596 38.5087 17.2048L39.6566 20.6135C39.7602 20.9487 39.8436 21.284 39.9381 21.6213L40.1709 22.4533C40.2299 22.6743 40.2529 22.9126 40.3131 23.133L40.5999 24.4221C40.7212 24.9274 40.8018 25.4423 40.8761 25.9572L41.231 28.8896L41.2637 30.8585C41.2711 32.8817 41.0222 33.2187 39.0455 34.0564L37.7512 34.5738C36.5727 35.0084 35.2136 35.109 34.5605 33.8046L34.7941 36.7273C35.0049 39.1463 35.1928 40.2847 32.9105 41.8386C31.9463 42.4949 30.9306 42.844 29.8113 43.1159ZM19.9788 6.98755L19.6094 7.53177C20.4681 8.82463 21.4066 9.60022 22.9954 9.92329C23.3085 9.98694 23.738 9.95474 24.0234 10.0936L24.0416 10.0813C24.2864 9.92498 24.6961 9.97101 24.9758 9.92165C26.1054 9.72233 27.1114 9.22973 27.8506 8.32054C27.9571 8.1794 28.3175 7.70408 28.3733 7.54443L28.019 7.00021C27.1571 8.34496 25.4406 8.56541 23.9788 8.55885C22.5537 8.55248 20.7759 8.34294 19.9788 6.98755ZM29.4933 8.44044C28.5115 9.89793 27.2458 10.8947 25.4711 11.2446L24.9635 11.3303C24.9102 11.9647 24.9496 12.627 24.9494 13.2651L24.9495 40.6871C24.9497 41.1389 24.9121 41.6258 24.966 42.0723C25.8154 41.9846 26.6789 42.0739 27.5308 42.0315C29.3097 41.943 31.8638 41.3187 32.9954 39.9118C33.6095 39.1483 33.6414 38.7236 33.5282 37.7871L32.8384 29.8998C32.8203 29.5461 32.8348 29.1644 32.7497 28.8191L31.4513 28.4923C30.356 28.2598 29.2009 28.1016 28.0782 28.0891C27.5694 28.0835 26.9892 28.096 26.8808 27.4806L26.8744 27.446C26.68 26.3315 28.3659 26.6603 28.9687 26.7085C29.6551 26.7634 30.402 26.7981 31.0719 26.9704L32.5956 27.3072L32.0333 24.8161C31.9162 24.3191 31.7735 23.8156 31.7156 23.3075C31.5226 21.6132 32.0712 19.7573 33.0145 18.3388C33.3263 17.8699 34.0186 17.9079 34.2208 18.4338L34.2337 18.4652C34.3155 18.6673 34.2605 18.8376 34.1773 19.0292L33.6016 20.2268C33.007 21.5585 32.8754 22.9627 33.3154 24.353L33.5718 25.3888C33.5795 25.4262 33.5903 25.4601 33.6019 25.4964L34.5398 29.0965L35.7757 33.0541C35.8917 33.4749 36.2807 33.535 36.6679 33.4302C37.2952 33.2604 39.5732 32.4406 39.8607 31.9393L39.9076 31.8515C39.9856 31.7069 39.9166 31.4408 39.918 31.2775L39.938 30.7367C39.9423 29.8384 39.8727 28.959 39.7773 28.0664L39.5562 26.215C38.7973 21.4994 37.1575 17.0126 35.0486 12.7431L34.0651 10.8849C33.1454 9.29394 32.4103 8.62565 30.4924 8.53476C30.1604 8.51901 29.8177 8.52116 29.4933 8.44044ZM18.3629 8.47579C16.2597 8.71058 15.36 8.49918 14.0904 10.6253L13.0218 12.6325L11.3597 16.1946L10.7572 17.7927C10.0124 19.7663 9.37944 21.7905 8.90858 23.8478L8.20302 28.0491C8.08686 28.9691 7.88563 30.7217 7.99897 31.6284L8.0218 31.7526C8.15343 32.4989 11.3424 33.6097 11.6595 33.5468C12.152 33.4491 12.1866 33.0686 12.3048 32.6536L12.9911 30.5913C13.1706 30.0923 13.3641 29.5941 13.5103 29.084L14.6224 24.7191C15.1181 22.752 15.1416 21.7116 14.1909 19.7692C13.9352 19.2468 13.3416 18.4648 14.1328 18.0672L14.1585 18.0539C14.6016 17.8354 14.901 18.2291 15.1026 18.559C16.0041 20.0345 16.4934 21.7039 16.3005 23.4412C16.2234 24.1359 15.3947 26.9531 15.4321 27.2098L17.8645 26.7996C18.0889 26.772 18.3555 26.7011 18.5801 26.72C18.8105 26.7084 19.0374 26.6687 19.2673 26.6604L20.969 26.6561C21.5681 26.6586 22.515 26.5731 22.5434 27.4221C22.5514 27.6607 22.3061 28.045 22.0528 28.098C21.8317 28.1443 21.5299 28.1057 21.297 28.1055C20.5413 28.105 19.7697 28.0674 19.0166 28.1163C17.7456 28.1989 16.5069 28.4826 15.264 28.7432C15.2483 29.36 15.161 29.972 15.0988 30.5856L14.4825 37.916C14.4535 38.2793 14.3558 38.6231 14.485 38.9767L14.5311 39.124C14.592 39.3366 14.7476 39.5563 14.8814 39.7296C16.1151 41.328 18.5449 41.8997 20.5022 42.0269C21.142 42.0685 21.8 42.0398 22.4423 42.0419L23.2281 42.0447C23.3359 42.045 23.4795 42.0628 23.5821 42.0332C23.6353 41.4943 23.5966 40.9166 23.5963 40.3727L23.5954 11.7636C23.5956 11.6541 23.6089 11.5295 23.5831 11.4234C21.6698 11.1176 20.128 10.67 18.8983 8.96933C18.6521 8.62888 18.719 8.43899 18.3629 8.47579Z" fill="black"/>
</svg>
