<svg width="48" height="48" viewBox="0 0 48 48" fill="none" xmlns="http://www.w3.org/2000/svg">
<path d="M26.4435 43.167L23.508 43.203C22.8865 43.2041 22.4378 43.0165 21.9768 42.579L21.9442 42.5477C21.2661 43.0061 20.526 43.3016 19.6996 43.1804C18.5645 43.0138 17.4451 42.682 16.3442 42.369C15.4386 42.1115 14.551 41.954 14.5504 40.8251L14.5383 38.0475L11.3183 38.0419C10.8579 38.0409 10.4189 37.8388 10.2268 37.3849L10.177 37.2691C10.1184 37.122 10.1381 36.9301 10.1373 36.7726L10.1443 33.6333L10.2304 31.0786C10.2398 30.8333 10.2899 30.5909 10.3042 30.3456L10.4409 28.0231L11.1423 22.2905C11.6024 19.5001 12.1573 16.7377 13.0186 14.039C13.7081 11.8787 14.221 10.0448 16.5244 9.129L16.5199 8.36752C16.5283 6.17414 18.7935 4.8256 20.7789 4.72144L26.5954 4.70817C26.9326 4.70841 27.2814 4.69017 27.616 4.72903C29.2019 4.91344 30.8424 5.87813 31.3479 7.464C31.471 7.85025 31.5994 8.33508 31.536 8.73319C31.4922 9.00783 31.5533 9.02213 31.7731 9.15436L32.1474 9.39544C33.186 10.0892 33.89 10.9769 34.3244 12.1342L35.2501 14.9184C35.312 15.125 35.3832 15.3434 35.4241 15.5546L35.5151 15.8794C35.5778 16.1919 35.6912 16.501 35.7603 16.8128L36.1987 18.7873C36.2577 19.0494 36.332 19.3273 36.3638 19.594L36.7411 21.6498C36.7519 21.7719 36.7885 21.8864 36.8069 22.0071L37.3496 25.8498C37.3832 26.0732 37.3902 26.309 37.4148 26.5346L37.6898 29.8076C37.6994 29.9431 37.7303 30.0766 37.7373 30.2114L37.7924 32.0483C37.8044 32.3184 37.8608 32.5808 37.8678 32.8509L37.8756 36.4222C37.8761 36.6605 37.9133 36.9664 37.8429 37.1941L37.8074 37.3022C37.4738 38.2063 36.5328 38.0423 35.7745 38.043L33.445 38.0432L33.442 41.4952C33.4419 42.2096 33.007 42.3684 32.3469 42.4783L27.7873 43.0933C27.3418 43.1404 26.8905 43.1201 26.4435 43.167ZM22.7888 6.13641L21.306 6.13721C20.6688 6.13852 20.3083 6.14817 19.709 6.38855C18.3096 6.94988 17.6778 7.71839 18.0489 9.23485C18.0735 9.33549 18.0847 9.44831 18.1237 9.54394L18.4131 10.2906C19.2471 12.0301 21.1056 14.0117 22.7899 15.0441L22.8129 15.0068C23.1061 14.5355 23.1925 14.8339 22.7743 14.3553L22.1175 13.5557C21.2492 12.4354 19.3927 9.66924 19.5967 8.16436C19.6492 7.77685 20.0679 7.50811 20.4406 7.58644L20.4713 7.59244C20.733 7.64663 20.8694 7.84088 20.9358 8.08322L20.9465 8.12133C21.0167 8.43061 20.9907 8.72583 21.1289 9.0316C21.2971 9.4035 21.4338 9.78488 21.6193 10.1509C22.1777 11.2524 23.202 12.7135 24.0832 13.6301L24.5582 12.9968C25.4936 11.6589 26.5818 10.1987 26.9979 8.59036C27.0501 8.38885 27.0645 8.14669 27.1464 7.9575C27.4127 7.34255 28.2203 7.52208 28.4074 8.08641L28.4207 8.12513C28.515 8.41561 28.404 8.76652 28.3244 9.04913C27.8358 10.7839 26.809 12.434 25.7336 13.8615L24.9382 14.8669C26.4297 14.1022 27.6898 13.0717 28.7105 11.7374C29.8869 10.1996 31.0405 7.84697 28.8896 6.61074C28.3571 6.30464 27.7729 6.15136 27.1674 6.14274L22.7888 6.13641ZM16.9025 10.4888C15.1444 11.5716 14.9508 12.5547 14.353 14.4738C13.5247 17.1326 12.9074 19.8673 12.4847 22.6209L12.0031 26.2973L11.6878 30.0825C11.6769 30.4707 11.6339 30.8494 11.6163 31.2366L11.5981 32.5871C11.5908 32.8339 11.5346 33.0721 11.521 33.3186L11.5097 35.2619C11.5093 35.707 11.4724 36.1879 11.5209 36.6288L14.5753 36.6166L14.6396 32.9419C14.6467 32.7375 14.6977 32.5431 14.7094 32.3408L14.8016 30.4894C14.8505 29.8153 14.8858 29.1106 14.9289 28.4308L15.0328 26.993L15.8322 20.0108C15.8918 19.6147 15.8587 19.2434 16.2332 18.9962C16.6943 18.692 17.2779 19.1053 17.2673 19.6294C17.2609 19.9457 17.1986 20.2545 17.157 20.5669L16.7823 23.7427C16.7531 24.0185 16.7376 24.2914 16.6932 24.5659L16.1938 30.1364L16.1209 31.6925C16.1051 32.5404 16.0566 33.3648 16.03 34.2149L15.9767 39.8047C15.9758 40.1178 15.9518 40.4484 15.9826 40.7588L19.4217 41.6606C20.3404 41.8199 21.2411 41.7331 21.2086 40.6099L21.0291 38.0116C21.0122 37.6283 20.9699 37.1906 20.9623 36.8262L20.9536 22.061C20.9533 21.3728 20.909 20.6506 20.9626 19.9659L20.9654 19.9275C21.0639 18.6978 21.7368 17.5101 22.2353 16.4098C20.3194 15.3464 17.89 12.7447 17.0917 10.8058C17.0571 10.7216 17.0094 10.4903 16.9025 10.4888ZM31.1014 10.4783C29.8652 13.242 27.5056 15.4518 24.6748 16.5257L23.6163 16.8803L22.6858 19.0052C22.4219 19.6896 22.399 20.0215 22.3979 20.7436L22.4028 35.4867C22.4079 35.7123 22.4518 35.935 22.4611 36.1611L22.6084 39.7707C22.6227 39.9201 22.6516 40.065 22.6592 40.2157L22.6658 40.9141C22.6666 41.021 22.6583 41.154 22.7073 41.2517L22.7486 41.3284C23.0596 41.9511 23.8571 41.7533 24.4089 41.7473L26.6604 41.7271C26.8095 41.719 26.952 41.6791 27.0969 41.6689L31.594 41.1805C31.7283 41.1643 31.9144 41.1715 32.0373 41.1225L31.529 27.428L30.8283 20.5182C30.7886 20.2322 30.7323 19.9362 30.7314 19.6464C30.7283 18.772 31.8024 18.5545 32.0884 19.4888L32.1003 19.5206C32.1533 19.6873 32.149 19.9255 32.1712 20.1036L32.9533 27.6802L33.1897 31.2319C33.2077 31.7074 33.2452 32.171 33.2646 32.6583L33.2945 33.5906C33.3167 33.8949 33.3614 34.1782 33.3638 34.4856L33.3699 35.9132C33.3703 36.1411 33.3451 36.4037 33.3782 36.6278L36.1192 36.6152C36.246 36.6193 36.3792 36.6401 36.505 36.6266L36.4939 32.4993C36.4835 32.2104 36.4192 31.9328 36.4055 31.6466L35.9061 25.4534L35.3758 21.9731C34.9934 19.6244 34.5041 17.277 33.8245 14.9938L33.3596 13.5535C32.91 12.231 32.4014 11.1191 31.1014 10.4783Z" fill="black"/>
</svg>
