<svg width="48" height="48" viewBox="0 0 48 48" fill="none" xmlns="http://www.w3.org/2000/svg">
<path d="M24.1694 43.2481C23.8823 43.2224 23.5707 43.2697 23.2814 43.2805L20.3594 43.4747C19.4987 43.5211 18.5678 43.466 17.7704 43.1111C16.2308 42.4259 15.1426 41.03 15.1445 39.3168C15.1451 38.7636 15.2156 38.1921 15.267 37.6415L15.7553 32.0104C15.8475 30.6144 15.7525 29.0668 17.406 28.4527C17.817 28.3 18.2567 28.209 18.6776 28.0851L19.2871 27.8991C19.773 27.7406 20.3097 27.6556 20.5312 28.2309L20.5442 28.2617C20.5964 28.3899 20.6013 28.5679 20.5447 28.6957L20.5319 28.7231C20.1479 29.6115 17.9704 29.3483 17.4493 30.1234L17.4281 30.1558C17.2112 30.4824 17.2404 30.8964 17.2152 31.2682L16.5772 38.6939C16.562 38.892 16.5302 39.0956 16.5255 39.2934C16.4921 40.6985 17.7414 41.812 19.0604 42.0145C19.5191 42.0849 21.1591 42.0658 21.6548 41.9693C22.1694 41.8692 22.7317 41.9211 23.2569 41.8541L23.2562 24.1807C23.2568 23.2768 23.3302 23.5713 22.891 22.8108L21.9533 21.1325C21.1372 19.5929 20.5033 17.9177 19.9919 16.2543L18.987 12.1664C18.9596 12.0572 18.9365 11.9139 18.8685 11.8228C17.9078 12.5917 16.712 12.7991 15.5206 12.9077C13.7817 13.0661 13.3588 13.2304 12.8349 15.0106L11.7234 19.6741L10.9704 24.6348L10.4555 30.6238C10.447 30.7381 10.4207 30.8502 10.4122 30.9662L10.3157 32.9556C10.2933 34.1094 10.1773 35.1459 10.1955 36.3033C10.5178 36.8511 10.9593 36.8376 11.5046 36.7793C13.5742 36.5578 13.5257 36.3789 13.6208 34.6436L14.1911 28.1461L15.0204 23.5082C15.1433 22.9849 15.4429 22.1897 16.1558 22.6835C16.6898 23.0533 16.291 24.1694 16.1724 24.7531L15.2817 30.7739L15.0592 33.9899C15.0254 34.5096 15.0315 35.4354 14.9448 35.8389L14.9009 36.1072C14.7718 36.7462 14.3631 37.2706 13.823 37.6275C13.2339 38.0169 11.3677 38.3584 10.6241 38.2004C9.74925 38.0146 8.92181 37.3689 8.8102 36.4338L8.7959 36.3095C8.77739 36.0888 8.79679 35.856 8.80279 35.6344L8.83786 34.471C8.84578 34.3623 8.87648 34.2604 8.8852 34.1533L9.01781 31.0163L9.39932 26.227L10.1797 20.4028L11.1209 15.9329C11.6489 13.9245 12.1101 11.8641 14.5549 11.5638C15.7942 11.4116 17.18 11.5412 18.1577 10.5942C18.5451 10.219 18.4501 10.1339 18.535 9.64642C18.9817 7.08053 21.5637 5.99387 23.9291 5.84603C26.0949 5.76432 29.2311 7.2272 29.4802 9.60981C29.517 9.96273 29.4729 10.1623 29.7141 10.4545C30.3438 11.2178 31.4166 11.3803 32.3401 11.4651L32.9647 11.5297C34.4904 11.6331 35.5592 12.1697 36.2026 13.682C36.4336 14.2248 36.9188 15.8859 37.0168 16.4653L37.6355 19.3649L38.2754 23.3194C38.316 23.5247 38.3175 23.7355 38.3452 23.9418L38.8536 28.6028L39.0687 32.0517L39.1075 33.4223C39.1181 33.5945 39.1616 33.7636 39.1694 33.936L39.1944 35.1918C39.2121 35.5851 39.2827 35.9924 39.2165 36.3849L39.2096 36.4223C38.9523 37.894 37.6313 38.333 36.327 38.1789C34.7578 37.9935 33.3996 37.6289 33.1354 35.8914C33.0933 35.6147 33.1172 35.3222 33.1038 35.0426L32.7538 30.9912L32.3449 27.4223L31.8656 24.8278C31.7682 24.366 31.6407 23.8966 31.5744 23.4295C31.4634 22.6484 32.4855 22.2001 32.7995 22.9346L32.8133 22.9692C33.0861 23.5625 33.3333 25.207 33.4694 25.934C33.7927 27.6594 34.004 29.3976 34.1743 31.144L34.4748 34.8582C34.5017 35.393 34.4104 35.9779 34.8917 36.346C35.4867 36.8012 37.9115 37.2325 37.8595 36.0004C37.8503 35.7824 37.8114 35.5719 37.7995 35.3546L37.6898 31.9457L37.3782 27.4278L36.6506 21.6875L36.0067 18.222C35.8555 17.393 35.6214 16.5597 35.3958 15.7481C35.095 14.6665 34.905 13.4289 33.6697 13.0423C33.293 12.9244 32.8628 12.9333 32.4725 12.8904C31.0377 12.7328 30.3356 12.6449 29.1223 11.806C28.9846 12.1399 28.9174 12.4954 28.8455 12.8478L28.5493 14.227C27.8696 16.9493 26.9353 19.5974 25.5726 22.0554L24.9086 23.1946C24.6899 23.572 24.7274 23.4913 24.7272 23.9379L24.727 40.1859C24.7268 40.7592 24.7556 41.3501 24.7041 41.9205L26.7524 42.0635C27.1965 42.0814 28.3992 42.0602 28.844 41.9867L29.3202 41.9065C30.0024 41.7655 30.6842 41.3214 31.0591 40.7317L31.2275 40.4445C31.556 39.7872 31.5058 39.2502 31.441 38.548L30.7892 31.0515C30.7627 30.8189 30.7685 30.5904 30.6919 30.3651L30.6427 30.2332C30.2102 29.3539 27.8248 29.5788 27.4917 28.7892C27.1683 28.0228 27.8479 27.656 28.5706 27.8593L29.324 28.0828C31.078 28.5909 32.0053 28.8523 32.168 30.8434L32.7877 38.1077C32.8043 38.3387 32.8002 38.574 32.8364 38.8034L32.8481 38.8782C33.1139 40.7833 31.7536 42.6957 29.9234 43.1954C29.0845 43.4244 28.1929 43.4829 27.327 43.4814L26.4236 43.4742C26.2396 43.4646 26.0549 43.4323 25.871 43.4165L24.1694 43.2481ZM23.6692 7.27145C22.4249 7.38118 20.817 7.95053 20.155 9.09418L20.1329 9.13126C19.8466 9.61773 19.7913 10.3115 19.9803 10.8415L20.0155 10.9106C20.2815 11.4914 20.429 12.1871 20.5376 12.8168L20.7759 13.9001C20.8267 14.1202 20.8675 14.367 20.9451 14.5778L21.0389 14.9137C21.3247 15.7546 21.4965 16.6535 21.8726 17.4643C22.2712 18.3238 22.537 19.2375 22.9707 20.0864L23.6098 21.2502C23.7463 21.4952 23.8538 21.7688 24.0216 21.994L24.1658 21.7284C25.4824 19.3605 26.4208 16.8871 27.1012 14.2649L27.6209 11.9302C27.8769 10.8923 28.4324 10.1746 27.8744 9.11134L27.859 9.08106C27.1185 7.66632 25.1399 7.21234 23.6692 7.27145Z" fill="black"/>
<path d="M22.12 13.2354L21.9406 12.3709C21.841 11.7015 21.815 9.69905 22.4181 9.45019C22.6972 9.33502 23.017 9.46397 23.1367 9.74559L23.158 9.79664C23.3449 10.1468 23.2521 10.651 23.2534 11.0369C23.256 11.8704 23.445 13.1974 23.7331 14.01L23.8861 14.5427C23.9077 14.619 23.9316 14.6634 23.9749 14.7302L24.0118 14.7365C24.356 13.6408 24.6755 12.4605 24.7434 11.3061C24.78 10.6842 24.481 9.48164 25.3634 9.35742C25.7141 9.37945 25.9102 9.53287 26.001 9.88645L26.0255 9.97861C26.4147 11.8582 25.5013 14.7047 24.9307 16.4548L24.6674 17.2196C24.6103 17.3886 24.5776 17.5516 24.4755 17.7027C24.1839 18.134 23.6117 18.0411 23.3993 17.6061C23.2667 17.3345 23.2031 17.0072 23.1096 16.7192L22.62 15.1416C22.4278 14.5153 22.2336 13.8819 22.12 13.2354Z" fill="black"/>
</svg>
