<svg width="48" height="48" viewBox="0 0 48 48" fill="none" xmlns="http://www.w3.org/2000/svg">
<path d="M26.808 47.1628C25.9214 47.2552 25.3063 47.2458 24.4471 46.9444L24.065 46.7903C23.8795 46.7077 23.9096 46.7344 23.7214 46.8227L23.1539 47.0588C22.4994 47.2936 21.8952 47.2542 21.2201 47.1652L20.0028 46.972C18.7312 46.7189 17.4463 46.3038 16.3125 45.6698C15.2345 45.067 15.2079 44.9711 15.2067 43.8502L15.2093 37.451L15.2948 34.9412C15.3042 34.7739 15.3481 34.6144 15.3584 34.4483L15.3996 33.4214C15.4105 33.2512 15.4456 33.0837 15.4597 32.9138L15.9322 28.0542C15.9945 27.5749 16.0452 27.0799 16.1463 26.6073C15.9236 26.7192 15.5648 27.2776 15.4302 27.4815L14.7205 28.5933C14.0212 29.8188 13.4545 31.15 13.0319 32.4956L12.6657 33.8071C12.3935 34.9285 12.154 34.9442 10.9747 34.6081L10.1563 34.3708C8.67659 33.953 9.14061 33.0617 9.43625 31.9618L13.9311 15.6206L14.7566 12.1037C14.9991 11.0055 15.1186 9.62279 15.9053 8.74403C16.0946 8.53258 16.0995 8.62609 16.1606 8.34583C16.542 6.59612 18.8945 6.229 18.9631 6.08865C18.9704 6.07361 18.9617 6.00526 18.9614 5.98365C18.9452 4.77156 19.6345 4.02597 20.7564 3.77733L26.7423 3.76645C26.96 3.76639 27.2091 3.74176 27.4221 3.78742C28.6046 4.04096 29.0341 5.04156 29.0402 6.12142C29.0929 6.14758 29.1466 6.17608 29.2047 6.18733L29.2751 6.19956C29.9402 6.33864 31.1386 7.00581 31.4911 7.53264C31.8077 8.00593 31.731 8.16756 31.8812 8.50529C31.9537 8.66823 32.3593 9.04225 32.5432 9.47908L32.8896 10.5432C32.8964 10.5802 32.9021 10.6163 32.9134 10.6523L34.2043 16.1831C34.3235 16.8851 34.6335 17.54 34.7644 18.231L34.9516 18.9362C34.9992 19.1697 35.084 19.3868 35.1376 19.6167L35.327 20.2928C35.4192 20.7764 35.57 21.3152 35.7335 21.7803L37.2049 27.0864C37.2556 27.3355 37.3389 27.6086 37.4211 27.8502L38.3612 31.2154C38.4262 31.3841 38.4786 31.5992 38.5146 31.7779L38.707 32.486C38.7267 32.6037 38.7767 32.7539 38.8135 32.8706C39.1706 34.0021 38.5349 34.1519 37.582 34.4281L36.8405 34.6617C35.7293 35.0298 35.5402 34.5828 35.2422 33.5433L33.9053 30.101C33.3535 28.8594 32.7229 27.6194 31.839 26.5787L32.2726 29.9602C32.3213 30.2288 32.3253 30.503 32.347 30.7745L32.4499 31.9564C32.4618 32.1053 32.4911 32.2524 32.4997 32.4019L32.6364 34.9247C32.647 35.0889 32.6884 35.2488 32.6975 35.4159L32.7234 37.0811C32.7314 37.3508 32.7908 37.6137 32.8006 37.8811L32.8161 40.3886C32.8187 40.5919 32.8514 40.7903 32.8569 40.9917L32.8606 44.2391C32.8616 44.3903 32.883 44.574 32.8259 44.7158L32.8149 44.7417C32.3972 45.9493 28.2669 47.018 26.808 47.1628ZM20.6995 5.20689C19.8293 5.62698 20.6539 6.23162 20.9552 6.67923C21.75 7.86058 22.2811 9.25623 22.8065 10.5699L23.3033 11.7886C23.4668 12.2467 23.5762 12.7777 23.7957 13.2106C23.9954 12.2722 24.2971 11.3942 24.6266 10.4938C25.1396 9.25637 25.7905 8.19554 26.6472 7.1695L27.3354 6.36278C27.4531 6.22468 27.5955 6.08125 27.6914 5.92726C27.7785 5.78734 27.5076 5.28334 27.379 5.24101C27.2705 5.20529 27.0778 5.22615 26.9597 5.22568L21.5814 5.22531C21.2897 5.22484 20.9891 5.19292 20.6995 5.20689ZM19.684 7.1814C18.9836 7.62742 17.6162 7.76729 17.4355 8.67343C17.4111 8.79564 17.776 9.60133 17.8473 9.81278L18.2264 10.9481C18.7337 12.6154 19.0261 14.3763 19.1089 16.1142L19.1212 17.4253C19.1227 17.9684 19.1408 18.5478 19.0056 19.0777L18.2833 21.691C18.0794 22.5391 17.944 23.4041 17.8085 24.2654L17.4299 27.2447C17.4079 27.4612 17.3959 27.6947 17.3472 27.9066C18.2818 27.6724 19.1835 27.311 20.0988 27.011L20.5195 26.88C21.0012 26.7105 21.4908 26.5975 21.6848 27.1988L21.6987 27.2405C21.8689 27.871 21.2068 28.0668 20.7656 28.2191L17.8756 29.1473C17.7906 29.1717 17.139 29.3235 17.1031 29.3585C17.0519 29.4083 16.9289 31.1108 16.8781 31.5113L16.6562 34.8324C16.6395 35.0709 16.5973 35.303 16.5855 35.5425L16.5579 37.0898C16.5506 37.3117 16.5078 37.53 16.502 37.7529L16.4959 42.6032L16.497 43.8446C16.4974 44.3307 16.5587 44.2458 16.9332 44.4758C18.2224 45.2673 21.7702 46.3105 22.964 45.732C22.6626 44.9988 22.744 44.7038 22.8485 43.9336L22.9559 42.9824L23.3547 36.3478L23.3659 17.5441C23.3929 16.2194 22.903 14.8953 22.4922 13.6384L21.5023 10.917C20.9397 9.49173 20.4471 8.4759 19.684 7.1814ZM28.3253 7.32222C26.747 8.61095 25.736 11.1671 25.1836 13.0431L24.4564 15.3365C24.4231 15.4301 24.4469 15.4923 24.469 15.5855L24.6293 16.2986C24.691 16.5955 24.7248 16.8595 24.7257 17.1645L24.7219 34.3706C24.7127 34.5866 24.6642 34.7975 24.6597 35.0165L24.6231 37.3224L24.4255 41.3667C24.4171 41.4953 24.3902 41.6223 24.3805 41.7517L24.1452 44.2292C24.0498 44.8485 23.9732 45.1956 24.631 45.5524C26.306 46.461 30.0297 45.1135 31.5127 44.2329C31.5475 44.1554 31.5286 44.0163 31.5282 43.93L31.5229 43.189L30.9268 29.3939L27.5075 28.3154C27.2447 28.2287 26.9021 28.1755 26.6632 28.0432C26.1015 27.7319 26.2898 26.6898 26.9883 26.7558C27.3312 26.7883 27.7267 26.96 28.0559 27.0662L30.1489 27.7608C30.3129 27.8188 30.4815 27.887 30.6547 27.9092L28.9386 18.6951C28.8421 18.2772 28.8931 17.7679 28.8935 17.3359L28.899 15.9839C28.9723 14.2036 29.346 10.7657 30.2229 9.36761C30.4669 8.9785 30.7876 8.81617 30.4786 8.38079L30.4515 8.34189C30.0358 7.75197 28.9729 7.49865 28.3253 7.32222ZM16.5697 10.134L10.4939 33.0219L11.4394 33.3909L11.5127 33.1119C12.0789 30.6662 13.8546 26.3337 16.0588 24.9543L16.4424 24.7417C16.4584 24.3916 16.509 24.0293 16.5626 23.6831L16.8561 21.9584L17.7894 18.3664C17.8244 18.2257 17.8147 18.0667 17.8152 17.9224L17.8156 17.2854C17.8094 14.5944 17.3182 12.6294 16.5697 10.134ZM31.3147 10.2066C30.9178 10.644 30.6948 12.3066 30.6082 12.8799L30.1954 16.6662L30.187 17.587C30.186 18.3515 30.3453 19.2529 30.6014 19.9762L30.666 20.2195C30.6754 20.2639 30.6899 20.3005 30.7044 20.3433L30.9484 21.2156C31.0652 21.7256 31.2022 22.2235 31.2886 22.7415L31.5439 24.5404C31.6007 24.8569 31.7827 24.8103 32.0292 24.9895C33.2215 25.8565 34.0457 27.2858 34.6857 28.5816L35.3841 30.1636L36.3164 32.58C36.3882 32.7652 36.4155 32.997 36.5025 33.1709L36.5508 33.3182C36.6849 33.3555 37.3806 33.1136 37.4989 33.0564C37.4642 32.8832 37.4056 32.7134 37.36 32.5425L32.8051 16.1968L31.601 10.9377C31.5685 10.7977 31.5287 10.1763 31.3147 10.2066Z" fill="black"/>
</svg>
