<svg width="48" height="48" viewBox="0 0 48 48" fill="none" xmlns="http://www.w3.org/2000/svg">
<path d="M24.5458 44.5846C23.8209 43.8867 24.3528 43.7614 23.6262 44.5312C22.0989 46.1493 19.5847 45.8287 17.6015 45.4869L13.9886 44.8301C12.8942 44.6263 11.7074 44.141 11.5555 42.8477C11.4979 42.3575 11.6206 41.914 11.7003 41.4374L12.0323 39.4575L9.56123 39.1064C9.40931 39.0887 9.25434 39.0805 9.10701 39.0369L9.07021 39.0256C8.6788 38.9076 8.41481 38.6041 8.32256 38.2021L8.31295 38.1562C8.24052 37.8235 8.24962 37.4462 8.22215 37.1043L8.1329 35.653C8.12085 35.4726 8.0797 35.2958 8.07135 35.1146L8.06934 29.4961C8.07843 29.2645 8.12793 29.0372 8.14045 28.8057L8.74851 23.0741C9.16265 20.7459 9.74549 18.4603 10.464 16.2075L10.8954 15.0233C11.551 13.2506 12.2404 11.5034 13.6527 10.2006C13.8509 10.0177 14.0727 9.79393 14.3144 9.67332L14.2867 9.26438C13.9724 5.63569 17.0849 3.25311 20.2977 2.4765C21.1663 2.26652 22.0732 2.1637 22.9634 2.0957L25.9663 2.19333C28.9708 2.52814 32.0824 3.74295 33.345 6.71476C33.7227 7.60355 33.8196 8.63879 33.6455 9.58266C33.6211 9.71452 33.9843 9.89288 34.0882 9.97201C35.2917 10.8892 36.1161 12.4879 36.6689 13.8922L37.4755 16.0546L38.2331 18.5126L39.0048 21.7246L39.5054 24.4912C39.5444 24.6557 39.5522 24.8293 39.5772 24.9965L39.9219 28.5568L39.9417 30.0136C39.9468 30.246 39.9852 30.4752 39.9882 30.7084L39.9847 32.1327C39.9797 32.282 39.948 32.4289 39.9442 32.578L39.9261 34.8645L39.7245 38.0976C39.6251 39.069 38.823 39.0781 38.039 39.1877L35.9492 39.4688L36.3864 41.766C36.7297 42.9148 36.1307 44.1725 34.9821 44.5898C34.4901 44.7684 33.9192 44.819 33.4051 44.9162L29.3436 45.6557C29.0798 45.6898 28.8212 45.7363 28.5545 45.748L27.644 45.7544C26.5562 45.7518 25.5286 45.513 24.7032 44.7398L24.5458 44.5846ZM23.1648 3.54302C22.6822 3.56014 22.209 3.61014 21.7316 3.68129L20.8124 3.86147C19.3144 4.2072 17.4881 5.00851 16.5593 6.3136L16.2148 6.84366C15.6732 7.82087 15.4581 9.17776 16.104 10.1601C16.3801 10.58 16.7711 10.8375 17.1325 11.1702C17.6654 11.6609 17.9389 12.2678 18.279 12.8905L21.5976 19.0336L23.3278 22.6121C23.5273 22.2569 23.6394 21.0808 23.6432 20.6116L23.6448 19.4521C23.6434 17.1355 23.3894 16.3048 22.3089 14.155L20.6513 10.9465C20.1883 10.0492 19.3979 8.98496 19.5605 7.91579C19.9165 5.57335 21.7763 4.52567 24.0032 4.52256C27.1051 4.51823 29.5375 6.94388 27.9401 9.88444L24.7926 15.5585C24.5578 15.9242 24.6639 15.9597 24.7858 16.3606L24.9635 17.268C25.023 17.5278 25.0243 17.8283 25.0457 18.0956C25.2046 20.0753 25.1874 22.1063 24.3603 23.9435L24.1955 24.2885C24.1083 24.4586 24.1034 24.4645 24.1679 24.6513C24.4819 25.5602 24.6714 26.5592 24.723 27.5221L24.7316 42.039L26.0866 42.0226C28.319 42.0189 30.1955 41.6191 32.3905 41.2311L34.7223 40.8227L33.8759 36.0352C32.6081 35.7781 31.7496 34.8277 31.1874 33.7118C30.9277 33.1537 29.8959 30.3577 30.0918 29.7491C30.2949 29.1183 31.1535 29.0769 31.4137 29.709L31.7895 31.1351C31.7971 31.1711 31.8086 31.2032 31.8206 31.2378L32.2365 32.4876C32.3825 32.9147 33.0472 34.2469 33.5723 34.3411L33.5665 34.32C33.5084 34.1009 33.4901 33.8763 33.4569 33.6529L32.3707 26.0454C32.3162 25.5658 32.2745 25.103 32.2749 24.6205L32.3339 21.9117C32.3503 21.3696 32.7668 20.8082 33.3189 21.0987L33.4286 21.1718C33.8197 21.4508 33.7239 22.0162 33.7228 22.4273L33.7118 24.3676C33.7082 25.2636 33.7761 25.8341 33.8952 26.7365L34.9274 33.6279C34.9813 34.0182 35.0138 34.4295 35.1047 34.8121L35.649 38.0282C35.9778 37.9821 38.2858 37.6933 38.3567 37.6453C38.3752 37.0528 38.4256 36.493 38.4473 35.9186L38.5201 33.9305L38.4416 27.8938L37.9628 23.8358L37.7171 22.5937C37.2384 20.0953 35.5807 13.6218 33.8413 11.7525L33.0788 11.0186C32.8287 11.2547 32.634 11.5477 32.3788 11.7884C31.6919 12.4363 31.8311 12.2035 31.3686 13.0438L30.6913 14.2165L27.7958 18.7117C27.5811 19.0225 27.3692 19.3589 26.9444 19.3448C26.6399 19.3348 26.4096 19.1239 26.3174 18.8437L26.3041 18.8048C26.16 18.3566 26.5128 17.9677 26.7523 17.6304L28.4222 15.1331L29.7608 12.9429C30.4859 11.6849 30.4052 11.6582 31.4538 10.6404C32.1798 9.93587 32.4489 8.96157 32.2341 7.96866L32.229 7.94401C31.6672 5.31563 28.8281 4.066 26.4197 3.73902L25.6861 3.64535C25.2889 3.61024 24.9017 3.55679 24.5028 3.54702L23.1648 3.54302ZM23.3548 6.00118C22.578 6.11588 21.8991 6.37435 21.4132 7.0238C20.8284 7.80568 20.9127 8.26932 21.2944 9.04782L23.9514 14.1518L24.2357 13.6524L26.2484 9.98429C26.614 9.32527 27.1679 8.62777 26.9554 7.8361C26.497 6.12863 24.885 5.93377 23.3548 6.00118ZM14.9932 10.9739C13.2043 12.3425 12.2789 15.2844 11.6286 17.3618L10.7309 20.6015C10.4386 21.753 10.1924 22.9389 10.032 24.1171L9.53676 28.7638C9.44915 29.2096 9.50507 29.7315 9.4978 30.1874L9.49813 34.8676C9.50563 35.0332 9.54876 35.1952 9.55823 35.3606C9.58452 35.8202 9.58982 37.4213 9.7191 37.6562L12.3426 38.0408C12.3867 37.5545 12.4746 37.0897 12.5535 36.6093L14.0977 26.7664C14.2285 25.8737 14.2989 25.1773 14.2956 24.2812L14.2852 22.0312C14.2833 21.7118 14.2592 21.4428 14.5277 21.2121C14.87 20.9178 15.3411 20.9973 15.5607 21.3983L15.6063 21.4818C15.6651 21.5937 15.6609 21.7439 15.6623 21.8664L15.6703 22.5742C15.7493 24.3572 15.7041 25.5386 15.4736 27.2877L14.5954 33.0758C14.5343 33.4906 14.4449 33.9015 14.41 34.3191C14.845 33.944 15.2116 33.4408 15.4899 32.9404C15.908 32.1974 16.1369 31.3828 16.3502 30.5626C16.484 30.0481 16.6825 28.8388 17.5627 29.3288C18.1359 29.6478 17.8739 30.3826 17.7515 30.8788C17.3227 32.6182 16.6907 34.4547 15.1712 35.531C14.868 35.7458 14.5532 35.9317 14.1796 35.9856L14.1008 35.9937L13.2774 40.8447L16.9881 41.47C18.1626 41.6683 19.3563 41.916 20.5462 41.9995C21.4529 42.0632 22.3807 42.0245 23.29 42.0239L23.286 41.9932C23.2371 41.5769 23.2688 41.1233 23.2686 40.7027L23.2704 28.2343C23.2702 27.7688 23.2992 27.2709 23.2136 26.8124C22.9795 25.5575 22.6527 24.5575 22.1007 23.3856L19.7037 18.5123L16.4282 12.5198C16.1011 11.9477 15.3517 11.7955 14.9932 10.9739ZM34.8964 42.2675L27.5499 43.4573C27.3499 43.5018 27.1349 43.4939 26.9307 43.4962L25.9826 43.5122C25.8543 43.518 25.6971 43.5107 25.5762 43.5511C25.7593 43.736 25.917 43.863 26.1479 43.9846C27.2186 44.5949 28.7976 44.2936 29.9328 44.0944L33.4218 43.4307C34.0572 43.3094 35.1512 43.1978 35.0272 42.2903C34.9806 42.2751 34.9458 42.2617 34.8964 42.2675ZM12.9991 42.2929C12.9872 42.3925 12.9801 42.4754 12.9986 42.5741L13.0035 42.6026C13.116 43.1837 13.6086 43.2605 14.0976 43.3481L19.1024 44.2495C20.1108 44.3491 21.2056 44.4433 22.1152 43.9025C22.2666 43.7941 22.4476 43.6879 22.5764 43.5534C21.9359 43.4118 21.0938 43.5384 20.4156 43.4734C19.002 43.3378 17.6043 43.0702 16.2069 42.8218L13.8532 42.4126C13.6238 42.3742 13.2258 42.2494 12.9991 42.2929Z" fill="black"/>
</svg>
