<svg width="48" height="48" viewBox="0 0 48 48" fill="none" xmlns="http://www.w3.org/2000/svg">
<path d="M19.1602 42.5419L15.8786 42.5423C15.1191 42.5405 14.2721 42.2549 14.0819 41.4188L14.0742 41.3835C14.0234 41.1668 14.0386 40.9426 14.047 40.7217L14.7042 31.5471C14.7485 30.8001 14.793 30.0557 14.8333 29.3088C14.8511 28.9788 15.1151 28.1401 14.5634 28.6373L14.5321 28.6662C14.4094 28.7771 14.3483 28.8866 14.3281 29.0525L13.1376 35.2676C12.8569 36.243 12.2515 36.026 11.4617 35.8658L8.96485 35.357C8.82432 35.3365 8.6687 35.3358 8.53435 35.2883L8.50782 35.2784C7.97631 35.087 7.87726 34.601 7.9726 34.1174L9.23439 29.1954L12.4191 17.9216C12.5319 17.4515 12.6123 16.9387 12.6508 16.4568L12.6952 15.6045C12.7763 14.4599 12.8934 13.1978 13.3739 12.1436C14.0187 10.729 15.1214 9.35363 16.5014 8.59003C17.0486 8.28727 16.8842 8.29613 17.2213 7.74675L18.0763 6.37102C18.4974 5.68233 18.7389 5.16633 19.7003 5.58324C20.2366 5.81583 20.698 6.33638 20.9042 6.88041L20.9453 6.98213C21.2316 7.60041 20.8993 7.485 21.6785 7.47792L26.9549 7.47745C27.0004 7.39397 26.9991 7.25339 27.0217 7.15767C27.214 6.34195 27.9336 5.55886 28.7903 5.44336C29.6141 5.38833 29.8719 6.21699 30.2369 6.80878L30.9324 7.89881C31.1689 8.27442 31.1175 8.34881 31.4883 8.61277L31.861 8.88966C33.0392 9.74494 34.4045 10.9086 34.9245 12.3105C35.2631 13.2235 35.197 14.1709 35.2281 15.1223C35.2463 15.6768 35.4258 16.2297 35.5253 16.7753L35.6726 17.4377C35.695 17.5381 35.6965 17.6429 35.7187 17.7424L36.6914 21.6993C36.8108 22.1087 36.9174 22.5227 37.0319 22.9338L37.5352 24.6664C37.5972 24.877 37.6323 25.1018 37.7024 25.3097L38.3311 27.5912C38.3569 27.7231 38.3986 27.8686 38.4386 27.9963L38.8135 29.4494C38.853 29.5798 38.8782 29.7173 38.9209 29.8451L39.9727 33.938C40.1808 34.7973 40.045 35.1934 39.1398 35.3597L36 35.9841C35.2164 36.1639 35.0185 35.4629 34.8866 34.8549L33.8983 30.2382C33.8101 29.8088 33.7675 29.3577 33.6636 28.9343C33.6311 28.8019 33.2504 28.401 33.0771 28.4537C33.0632 28.5653 33.0802 28.6522 33.0872 28.7621L33.1854 30.1587C33.1994 30.3108 33.2363 30.4598 33.2479 30.6126L33.669 36.1205C33.6792 36.2572 33.7111 36.3901 33.7191 36.5275L34.0084 40.154C34.0243 40.5229 34.0689 40.9504 33.9499 41.3038L33.9402 41.3322C33.8071 41.8145 33.4649 42.2495 32.9804 42.4122L32.915 42.4339C32.6633 42.5362 32.3134 42.4995 32.0432 42.4996L29.7151 42.4932C29.1651 42.481 28.6067 42.3689 28.0711 42.2426C27.2053 42.0383 26.3183 41.6743 25.5742 41.1842C25.3163 41.0143 25.0125 40.61 24.8203 40.7582L24.4544 41.0429C22.5633 42.4858 21.3389 42.5456 19.1602 42.5419ZM28.7128 6.84642C28.4426 7.18289 28.2595 7.54158 28.1238 7.94991L28.1438 7.98872C28.8433 9.38653 27.9697 10.5465 27.3756 11.8425L25.8061 15.2228C25.4425 15.9741 25.1593 16.7843 24.7342 17.5037C24.4135 18.0466 23.8266 18.0478 23.5167 17.5274C23.2827 17.1345 23.1113 16.693 22.9065 16.2824L20.4121 11.115C19.9858 10.2472 19.2971 9.37538 19.7212 8.37956C19.7542 8.30222 19.9159 8.055 19.9164 7.99575C19.9185 7.71042 19.5034 7.07719 19.3267 6.88603L18.4227 8.34745C18.2484 8.61131 17.9899 8.8891 17.8582 9.17105L18.0872 10.1726C18.131 10.4437 18.2291 10.7569 18.329 11.0158L18.5219 11.5398C19.2261 13.1122 19.8174 13.8087 20.8026 15.2169L21.8955 16.8116L23.1601 18.9846C23.24 19.1292 23.9776 20.591 24.0069 20.6134C24.5049 19.618 25.1599 18.694 25.7726 17.7672L28.5826 13.4228C29.4225 12.0849 29.9154 10.6735 30.1151 9.09614C29.7657 8.35313 29.1166 7.67302 28.7128 6.84642ZM21.035 8.7967L20.8798 9.03816L23.9184 15.3878C23.9453 15.4535 23.984 15.5148 24.0179 15.577L24.1131 15.7388L25.0545 13.7697L26.2657 11.103C26.559 10.4535 26.9201 9.77414 27.106 9.08461C27.2109 8.69569 26.7459 8.8013 26.5168 8.80106L21.035 8.7967ZM16.7 10.0415C16.1772 10.4078 15.6696 10.9404 15.292 11.4536C15.6959 11.9004 15.9707 12.4306 16.1528 13.0017L16.4422 14.0054C16.6166 14.5692 16.6908 15.1705 16.7884 15.7502L17.0172 17.215C17.1934 18.4426 17.1004 18.8364 16.9702 20.0275L16.4074 26.2402L15.8443 34.0872L15.6601 36.7098L15.421 40.3948C15.3734 41.1979 15.1226 41.2108 15.9714 41.2055L19.1489 41.2038C19.7441 41.2037 20.3395 41.2166 20.932 41.1507C22.3371 40.9065 22.9894 40.4691 24.1439 39.6197C23.603 38.2548 23.5979 37.7719 23.5986 36.3255L23.598 24.7938C23.5958 22.8793 23.2892 22.0907 22.4102 20.3963C21.6884 19.005 20.8786 17.7001 20.0028 16.4006L18.5705 14.418C17.9119 13.466 17.4294 12.4679 17.0734 11.3679L16.8682 10.6522C16.8109 10.4531 16.7359 10.2442 16.7 10.0415ZM31.2851 10.1085L30.945 11.4657C30.4095 13.287 29.2508 14.8009 28.2376 16.3754L24.7024 21.9375C24.5935 22.0973 24.5893 22.0602 24.6385 22.2439L24.7987 22.84C24.9207 23.3291 24.9118 23.7958 24.9121 24.2961L24.9114 36.2932C24.9134 38.5594 25.1031 39.6751 27.2795 40.5814L28.4496 40.9788C28.9017 41.061 32.3621 41.3592 32.6375 41.0283L32.7284 40.914C32.8918 40.6873 32.5952 38.825 32.5584 38.4498L31.805 29.1679L31.5893 25.3813L31.2201 21.4926C30.9364 18.9429 30.5282 16.7451 31.4685 14.2907C31.8394 13.3223 32.2948 12.453 33.0203 11.7017C32.6083 11.2302 31.8885 10.4973 31.3477 10.1509L31.2851 10.1085ZM14.5492 12.6916C14.1328 13.8457 14.1084 14.581 14.0321 15.733L13.9824 16.1829C13.9308 16.8342 13.8817 17.4781 13.7253 18.1159L11.7504 24.9669L9.60596 32.989C9.51826 33.3439 9.41031 33.688 9.34323 34.0487C9.85028 34.2078 10.4056 34.2283 10.9157 34.3789L11.9666 34.6063L12.9363 29.4143C13.0176 28.9305 13.0641 28.5012 13.3115 28.0666L13.3329 28.0283C13.5795 27.5983 14.0623 27.2375 14.5399 27.1069L15.0207 27.0257L15.7865 18.7222C15.8402 18.1861 15.8231 18.3203 15.7634 17.8046C15.5874 16.2847 15.3727 14.7285 14.8428 13.2858C14.8087 13.1928 14.6457 12.6972 14.5492 12.6916ZM33.7628 12.8531C32.5856 14.2185 32.0334 16.4074 32.1662 18.1579L33.0104 26.9872C33.2217 27.0581 33.4398 27.1017 33.6481 27.1817C34.503 27.5101 34.753 28.1133 34.9991 28.9013L36.0977 34.3332C36.1098 34.4099 36.145 34.4946 36.1821 34.5627L36.8963 34.4193L38.6636 34.0863L34.6569 19.0162L34.3008 17.2851C34.1789 16.7144 34.0306 16.143 33.9596 15.5627C33.8582 14.7332 34.0623 13.609 33.7628 12.8531Z" fill="black"/>
</svg>
