<svg width="48" height="48" viewBox="0 0 48 48" fill="none" xmlns="http://www.w3.org/2000/svg">
<path d="M26.2592 42.9652C25.563 42.9704 24.7632 42.9239 24.1513 42.5527C24.0038 42.4632 24.0289 42.4289 23.8732 42.5199C22.0248 43.5996 18.5494 42.5743 16.8594 41.5732C15.6092 40.8327 15.7138 40.6073 15.8366 39.3414L16.5608 32.0223C16.5174 31.9838 16.4267 31.9752 16.3684 31.9611L13.9217 31.407C12.5507 31.1151 12.3841 31.0856 12.3777 29.7188L12.3683 28.0316C12.3623 27.8451 12.3161 27.6657 12.3105 27.4802L12.3134 22.713C12.3196 22.5288 12.3605 22.3492 12.3675 22.165C12.3949 21.4499 12.3978 20.8446 12.4512 20.1257L12.8391 16.4766C13.111 14.6167 13.4738 12.7759 13.9788 10.9632L14.3098 9.8106C14.7021 8.34993 14.9501 7.73962 16.5175 7.2104C16.8363 7.10277 17.1692 7.17543 17.496 7.12743C18.1867 7.02595 18.837 6.53282 19.2464 5.98706C19.7475 5.3189 20.6095 5.10932 21.3907 5.00038C21.5739 4.97057 21.7812 4.98913 21.9664 4.98885L26.4733 4.98909C27.7643 4.99181 28.214 5.41185 29.0033 6.2467C29.9275 7.22427 30.183 7.06256 31.2693 7.15049C32.2841 7.23266 33.3566 8.14607 33.5512 9.16645L34.2439 11.8993C34.3232 12.1533 34.3441 12.4336 34.4066 12.6914L35.0207 15.8975L35.6668 21.3344C35.7119 21.7273 35.7045 22.1418 35.7307 22.5386L35.8417 24.0176L35.8459 30.0325C35.8364 31.1745 35.843 31.1611 34.7346 31.4069L31.4965 32.1713C31.4943 32.3809 31.5445 32.596 31.5608 32.8066L31.9706 36.7032C32.0885 37.4968 32.4574 39.89 32.168 40.6444L32.1556 40.6758C32.0872 40.8552 32.0043 40.9725 31.8701 41.1055L31.8388 41.1368C31.1674 41.7928 29.4255 42.4305 28.4603 42.668C27.7354 42.8464 27.008 42.9694 26.2592 42.9652ZM21.6412 6.28312C21.1936 6.32526 20.6624 6.40935 20.358 6.78084C19.4589 7.87813 21.0265 9.58045 21.656 10.4063C22.4317 11.4239 23.2704 12.5347 23.747 13.7312L24.0419 14.4136C24.1963 13.8517 24.4598 13.2613 24.7488 12.7545C25.3306 11.6783 26.1285 10.7175 26.8385 9.72388C27.3981 8.9407 28.7 7.14257 27.2723 6.45402L27.1807 6.41413C26.8229 6.26085 26.5054 6.28143 26.1257 6.2811L21.6412 6.28312ZM29.1329 7.93363C28.9245 8.9077 28.8021 9.1056 28.2303 9.95573C26.7128 12.2122 25.4354 13.4151 24.8124 16.2056C24.6848 16.7772 24.6296 16.7921 24.629 17.4571L24.6282 20.632C24.6281 20.8373 24.5913 21.0928 24.6269 21.292L26.9628 21.2917C27.3391 21.2917 27.7437 21.3216 28.1173 21.2839C28.2644 19.9363 28.6561 18.6751 29.0853 17.3947L29.5271 16.0949C29.6272 15.7498 29.6803 15.4113 29.7609 15.0644C28.995 15.9862 28.371 16.9822 27.3829 17.6995C26.9383 18.0223 26.1638 18.2497 26.0597 17.4844L26.055 17.4513C25.9956 16.993 26.4151 16.8134 26.7109 16.5695C27.8695 15.614 28.7526 14.3326 29.6085 13.1148C29.8554 12.7635 30.1402 12.1723 30.6108 12.1288C30.8831 12.1036 31.1112 12.2632 31.2197 12.5039L31.2323 12.531C31.3518 12.7945 31.2587 13.2271 31.2362 13.5118L31.0037 15.4521C30.677 16.8995 28.9034 21.0224 29.3832 22.336L30.0127 24.1943C30.0742 24.3813 30.1507 24.5602 30.2052 24.75L30.5969 26.0647C31.009 27.3539 31.2264 29.4918 31.3177 30.8273L34.2324 30.1952C34.3419 30.1691 34.4868 30.1573 34.5798 30.0925L34.5657 24.3633C34.522 23.341 34.4749 22.3067 34.4022 21.2856L34.2272 19.5696C33.9654 17.1441 33.59 14.7309 33.0351 12.3546L32.3205 9.56943C32.0838 8.71546 31.7869 8.55402 30.8865 8.49599C30.3164 8.45924 29.8237 8.3188 29.3256 8.04801C29.271 8.01838 29.187 7.94596 29.1329 7.93363ZM18.8258 7.95707L18.7994 7.97413C18.4372 8.20312 17.9528 8.3894 17.526 8.44298L16.6827 8.51371C15.9747 8.60882 15.8107 9.20076 15.6325 9.77348L14.7199 13.1016C14.3058 14.9618 13.9795 16.8545 13.796 18.7526L13.5647 22.3034L13.5652 27.915C13.5675 28.0326 13.587 28.1484 13.5907 28.2657L13.6643 30.0908L16.73 30.7344C16.7493 29.441 17.0703 27.2668 17.4022 26.0222L17.8749 24.4641C18.1059 23.8181 18.3892 23.1801 18.5673 22.5176C18.7371 21.8864 18.6313 21.5912 18.5606 20.9481C18.4209 20.2259 18.2842 19.5062 18.0798 18.7984L17.2105 16.1683C17.0555 15.6557 16.4662 13.6006 16.7736 13.1221C16.972 12.8134 17.37 12.7694 17.6619 12.9727C17.9917 13.2023 17.9396 13.6946 18.0005 14.0391C18.0871 14.53 18.1748 15.0409 18.33 15.5157L19.3483 18.6459L19.8112 20.7803C19.8432 20.9013 19.8218 21.2025 19.8912 21.2876L23.3604 21.298L23.3627 17.4515C23.3617 17.0326 23.3351 16.7414 23.2434 16.3424L23.0909 15.7117C22.5013 13.5161 21.3613 12.225 20.0737 10.418C19.528 9.65212 18.9791 8.91515 18.8837 7.94863L18.8258 7.95707ZM19.8523 22.5853L18.889 25.4333C18.4105 26.8974 18.2279 28.4069 18.0531 29.931L17.1237 39.0928C17.0913 39.4173 17.003 39.7536 16.9957 40.0776C17.822 40.7939 18.902 41.1972 19.9569 41.4388C20.1971 41.4938 20.4588 41.5169 20.6929 41.5826C21.1583 41.6651 22.2427 41.7527 22.712 41.5879L23.3425 41.3885C23.391 41.2361 23.3631 40.9782 23.3632 40.8145L23.3583 22.5892L19.8523 22.5853ZM24.6328 22.5831L24.6285 41.3868C24.767 41.5039 24.997 41.5217 25.1701 41.5764C26.4144 41.9696 28.9333 41.2558 30.0315 40.7215C30.3146 40.5711 30.8843 40.2877 31.0816 40.025L30.0243 30.4922C29.8743 29.1505 29.7329 27.8031 29.4021 26.4903C29.1517 25.4964 28.773 24.5601 28.4379 23.5949L28.2397 22.9454C28.2099 22.8283 28.2 22.6746 28.1183 22.5825L25.7233 22.5853C25.3698 22.5856 24.981 22.622 24.6328 22.5831Z" fill="black"/>
</svg>
