<svg width="48" height="48" viewBox="0 0 48 48" fill="none" xmlns="http://www.w3.org/2000/svg">
<path d="M28.1311 43.4257C28.0978 43.423 28.0848 43.4356 28.0391 43.4379C26.7242 43.5038 24.9249 43.5514 23.7525 42.8218L23.7297 42.8073C23.6881 42.8144 23.7039 42.8068 23.6686 42.8341C22.8418 43.4724 22.0281 43.4595 21.0478 43.4578C19.0186 43.4544 17.1056 43.1899 15.1741 42.5489C13.9194 42.1325 13.4872 41.8212 13.5919 40.4946L14.0029 37.5962L10.9688 37.6904C9.86135 37.721 8.95165 37.8784 8.39679 36.5617L8.38249 36.5273C8.26118 36.2386 8.31973 35.7898 8.32019 35.4787L8.33965 32.2913C8.35085 32.0823 8.40087 31.8817 8.4108 31.6738L8.61621 28.7622C8.8923 25.9543 9.36208 23.1922 9.9843 20.4402L10.4179 18.5646L12.2937 12.4319C12.8598 10.8688 14.4023 9.74572 15.8743 9.05942C15.8113 8.85711 15.764 8.67045 15.728 8.46092L15.7144 8.38002C15.4218 6.27439 17.2609 4.78691 19.2059 4.53195L27.6768 4.51758C29.6119 4.51929 31.4466 4.95589 32.1568 7.05467C32.3811 7.71758 32.3077 8.38653 32.1279 9.05164L33.1588 9.6403C34.2969 10.3354 35.3392 11.1588 35.7172 12.5156L36.9544 16.2679C37.049 16.4892 37.1192 16.7917 37.1707 17.0269L37.6098 18.6648C37.7386 19.0295 37.7796 19.4411 37.8758 19.8164L38.9578 25.3356C39.0038 25.6939 39.0356 26.0576 39.0941 26.414L39.5596 30.4453C39.5745 30.6378 39.5586 30.8331 39.5756 31.026C39.6278 31.6148 39.6469 31.9258 39.6508 32.5365L39.6675 35.61C39.6677 36.3212 39.6975 36.8159 39.0813 37.3287C38.5119 37.8026 37.8587 37.6946 37.1742 37.69L35.5797 37.6753C35.0941 37.6561 34.4944 37.6282 34.0228 37.5838L34.3984 40.5261C34.4381 41.0466 34.4689 41.4869 34.0992 41.9066C33.3329 42.7766 29.58 43.342 28.1311 43.4257ZM20.2742 5.97945C20.0413 6.38581 19.8412 6.83989 19.9803 7.32495L21.6681 12.3865C21.678 12.4241 21.6914 12.456 21.7054 12.4922L22.5983 15.3374C22.6067 15.3763 22.618 15.4065 22.6324 15.4431L23.5411 18.6554C23.5486 18.6881 23.5594 18.7162 23.5706 18.7475L23.8691 19.8647C24.0418 20.6019 24.1754 19.5843 24.2362 19.3594C24.4257 18.6579 24.5859 17.9228 24.8283 17.2394L28.0075 7.11847C28.0272 7.03128 28.0232 6.96674 28.0106 6.87889L27.961 6.5938C27.9216 6.39378 27.8246 6.14488 27.7036 5.98091L20.2742 5.97945ZM29.1548 5.95747L29.2827 6.39477C29.304 6.45777 29.3124 6.52039 29.3221 6.58592L29.3282 6.62516C29.431 7.35172 29.1917 7.97778 28.9658 8.65494L26.3838 16.6635C26.1743 17.347 25.9495 18.0316 25.7989 18.7314C26.1063 18.4593 26.4398 18.191 26.7004 17.872C28.0237 16.406 28.9634 14.7704 29.4341 12.8349C29.533 12.4282 29.6555 11.9734 29.6353 11.5527C29.6218 11.2712 29.5413 10.9983 29.5876 10.7153C29.7923 9.46433 31.3644 8.85027 30.8767 7.42152L30.8655 7.38786C30.8114 7.22783 30.7364 7.09175 30.642 6.9523L30.6199 6.91892C30.2568 6.38553 29.7105 6.20206 29.1548 5.95747ZM18.7241 6.0117C18.0812 6.25785 17.4929 6.61644 17.1915 7.26416C16.5193 8.70847 17.9215 9.22236 18.3036 10.3594L18.3166 10.3905C18.517 10.899 18.2889 11.4958 18.3658 12.026C18.4315 12.4777 18.5328 13.0243 18.6957 13.4509L19.0324 14.3789C19.5591 15.6931 20.3463 16.8605 21.321 17.8827C21.561 18.1379 21.8521 18.4455 22.1464 18.6339L20.0845 11.8399L18.9331 8.39061C18.7494 7.84166 18.5475 7.33264 18.6251 6.7446C18.6395 6.63528 18.7724 6.06195 18.7545 6.0132L18.7241 6.0117ZM16.6575 10.1777L15.9807 10.5719C14.4248 11.4553 13.9213 11.7524 13.3548 13.4356L12.8413 15.0234C11.193 19.9768 10.1719 25.2467 9.79404 30.4465C9.77609 30.6935 9.71843 30.9349 9.70371 31.1836L9.67774 35.5986C9.67999 36.2567 9.53144 36.3642 10.2588 36.3584L14.036 36.2141C14.1241 36.2135 14.2218 36.2222 14.3076 36.2011C14.4515 35.3196 14.6738 34.455 14.7881 33.5684L14.9456 31.6215C14.9559 31.464 14.99 31.3114 14.9982 31.1541L15.0835 29.5393C15.1473 27.7676 15.0882 25.9836 14.9106 24.221L14.4355 20.8327C14.3772 20.3805 14.1049 19.6192 14.5666 19.3027C15.0062 19.0015 15.4561 19.2747 15.5906 19.7226L15.6012 19.7546C15.6393 19.8836 15.6443 20.0218 15.6682 20.1534L16.3293 25.3113C16.359 25.6561 16.3628 26.0799 16.4006 26.3895L16.3949 30.3164C16.3403 31.6332 16.1913 33.2201 15.9958 34.5033C15.8683 35.3406 15.6361 36.1656 15.4712 36.9961C15.2126 38.2987 14.9582 39.6292 14.8728 40.9552C16.2892 41.7903 19.6591 42.097 21.236 42.0964C21.5263 42.0962 21.9214 42.1445 22.1989 42.068L22.4178 41.987C23.4263 41.6752 23.9246 40.5141 23.9201 39.5188L23.9155 23.4058C23.8877 22.3721 23.3142 21.4368 22.5525 20.7756L21.3941 19.8214C19.1282 17.9155 16.8949 14.318 17.0089 11.3482C17.0341 10.693 17.0834 10.742 16.6575 10.1777ZM31.3995 10.1613C31.2288 10.3646 31.0726 10.5587 30.9451 10.7917L30.9247 10.826C30.8694 10.9568 30.9621 11.294 30.9781 11.4481C31.0391 12.0346 30.7985 12.8289 30.6578 13.3945C30.2439 15.0578 29.4246 16.6313 28.3952 17.9958C27.5742 19.0838 26.4947 19.9283 25.4548 20.7916L24.7761 21.3838C24.7004 21.4565 24.7857 21.519 24.8222 21.6043L25.0461 22.1897C25.2316 22.7225 25.2344 23.2942 25.2354 23.85L25.2337 39.0628C25.2337 40.1112 25.2352 40.8013 24.6722 41.7605C25.4065 42.0499 26.2327 42.0941 27.0147 42.0954L28.5008 42.0301C30.0822 41.9034 31.6173 41.5153 33.1143 40.9932C33.0308 39.7305 32.8489 38.4731 32.6129 37.2305L31.9983 34.0547L31.6594 31.0344C31.649 30.9083 31.6156 30.7877 31.6084 30.6567L31.5473 27.5792L31.6107 26.2653L31.7154 24.5508L32.3517 20.0587C32.3853 19.892 32.4129 19.7121 32.4721 19.5521C32.6793 18.9921 33.5291 19.076 33.6567 19.6523L33.6664 19.692C33.7134 19.8901 33.671 20.0996 33.6476 20.2993L33.095 24.0586L32.8914 26.4851L32.8932 29.7656C32.9025 30.2263 32.9494 30.685 32.9867 31.1444L33.3704 34.2393L33.5264 34.9657C33.6047 35.3699 33.647 35.8112 33.7723 36.203C33.8426 36.2281 33.9196 36.2206 33.9939 36.2224L34.4768 36.2371C34.6206 36.247 34.7605 36.2776 34.9055 36.2854L35.9885 36.2984C36.1658 36.3025 36.3431 36.3339 36.5209 36.341L37.6626 36.3515C38.3507 36.3543 38.3269 36.3417 38.3224 35.6431L38.26 30.9413L38.1883 30.1776C38.0152 27.8548 37.68 25.5569 37.2512 23.2682L36.8622 21.2226C36.3911 19.0299 35.8079 16.8237 35.0645 14.707L34.5704 13.2765C34.0369 11.761 33.6178 11.4946 32.2225 10.6612L31.3995 10.1613Z" fill="black"/>
</svg>
