<svg width="48" height="48" viewBox="0 0 48 48" fill="none" xmlns="http://www.w3.org/2000/svg">
<path d="M21.6447 44.9811L18.6645 44.9813C17.8721 44.9812 17.0314 45.0521 16.2574 44.8736C14.0799 44.3712 13.1942 42.4375 13.2671 40.3885C13.3101 39.1789 13.2598 37.9185 13.3736 36.7339C11.6116 36.7005 8.15947 37.0945 7.52225 34.9601C7.42733 34.6422 7.47228 34.3266 7.49108 34.0026L7.59866 32.502C7.70553 30.4698 7.91038 28.4219 8.24567 26.4144L8.55889 24.4222C9.0583 21.6909 9.70728 18.9684 10.4723 16.2983L12.7798 9.46477C13.4764 7.74357 13.9097 6.92002 15.8908 6.35625L16.3227 6.24769C16.4681 6.21619 16.4511 6.22388 16.5355 6.10003L16.7537 5.77828C17.4199 4.86319 18.8377 3.79433 19.9027 3.36571C20.5574 3.10222 21.1365 3.01741 21.8336 3.01745L26.5307 3.0166C28.505 3.06785 30.3112 4.65393 31.522 6.08199C31.6452 6.22735 31.6477 6.2551 31.8283 6.30225L32.2418 6.40566C33.6964 6.77949 34.4229 7.46199 34.9696 8.83627L36.3736 12.7035L37.9522 17.856C37.961 17.9012 37.9681 17.94 37.9832 17.9837L38.051 18.2277C38.0715 18.3402 38.1171 18.4457 38.1401 18.559L39.8709 26.887C39.9073 27.0393 39.9084 27.1987 39.938 27.3519L40.4236 31.6054C40.4377 31.792 40.4718 31.9746 40.482 32.1623L40.5014 33.7835C40.5064 34.4055 40.6021 34.9065 40.2583 35.4557C39.5014 36.6651 37.7442 36.6641 36.4852 36.688L35.5314 36.726C34.4139 36.7557 34.5296 36.4538 34.5659 37.3597L34.6063 38.425C34.6156 38.5438 34.6454 38.6592 34.6553 38.7778L34.7377 40.0433C34.7801 40.5895 34.8236 41.5305 34.6991 42.0158C34.1809 44.0345 32.8276 44.2602 31.1227 44.5268C30.241 44.6647 29.3552 44.8084 28.465 44.8787L26.8584 44.9776L21.6447 44.9811ZM21.0635 4.41226C20.9907 4.42966 20.8967 4.44191 20.834 4.4834L20.8135 4.50033C20.8362 4.5991 20.9073 4.68696 20.9646 4.76869L21.3286 5.27105C21.7015 5.32308 22.1208 5.28418 22.4987 5.28464L25.1493 5.28563C25.6581 5.28586 26.191 5.25525 26.6959 5.31769L26.792 5.14505L27.2304 4.50682C26.7978 4.34242 26.4851 4.45407 26.04 4.45858L21.9111 4.44938C21.6317 4.43929 21.342 4.38848 21.0635 4.41226ZM19.5082 5.19174C18.8412 5.66016 18.0942 6.12825 17.6965 6.86752C16.9488 8.25713 17.8836 8.17922 18.1927 9.16439L18.2038 9.19425C18.3591 9.62349 17.9576 10.034 17.738 10.3589L17.1389 11.2727C16.9062 11.6016 16.5777 11.8563 16.7186 12.2928L16.7494 12.3876C16.8117 12.5893 16.9856 12.7619 17.1709 12.8568L19.1661 13.7576L21.2061 14.637C21.3669 14.7027 21.5727 14.8191 21.7437 14.8375C21.5352 14.0151 21.4351 13.1648 21.2727 12.3319L20.2743 6.70346C20.1678 5.98707 20.135 5.73193 19.5587 5.17997L19.5082 5.19174ZM28.484 5.1675L27.7803 6.1193C27.6909 6.25205 27.7249 6.57155 27.7004 6.73861L26.4251 13.3435L26.0423 15.0403L28.6265 13.8576L30.6447 12.8917C31.4755 12.527 31.4681 12.0721 30.9794 11.3363L30.3182 10.3835C29.5407 9.30272 29.6787 9.24272 30.437 8.3491C30.6532 8.09419 30.7467 7.69824 30.6416 7.37663L30.6312 7.34372C30.4263 6.71311 29.5227 5.93813 29.0153 5.5433L28.484 5.1675ZM21.6684 6.73036C21.6661 6.8326 21.678 6.91017 21.6993 7.00153C21.8859 7.80361 21.9921 8.62964 22.1301 9.44105L22.9241 13.6878C22.951 13.8159 22.9555 13.9483 22.9797 14.0766L23.1153 14.8149C23.1553 15.0571 23.1746 15.3386 23.271 15.5628L23.2836 15.5949C23.339 15.7244 24.0025 16.4367 24.1871 16.6028C24.4724 16.1215 24.4884 15.4996 24.6454 14.9713L26.2092 7.06416C26.2212 6.97768 26.2711 6.80349 26.2547 6.72732L21.6684 6.73036ZM16.0773 7.78847C14.436 8.30752 14.3354 9.17166 13.7898 10.6509L12.7797 13.5312C11.8977 16.1492 11.1625 18.8169 10.5624 21.5131L10.2271 22.9251L9.47647 27.299L8.81103 34.4347C8.78525 35.0363 9.84167 35.2657 10.3392 35.2674L11.3322 35.2718C11.5208 35.2763 11.7084 35.3186 11.8984 35.3271L13.4743 35.3398L13.7161 32.2855L14.3322 28.0721L14.9081 25.3082L15.9912 21.5495C16.1054 21.1621 16.1381 20.7132 16.5448 20.5245L16.5803 20.5075C17.1805 20.23 17.5827 20.8795 17.4377 21.4691L16.6065 24.2976C16.1563 25.8443 15.6421 27.976 15.4532 29.6026L14.8953 34.1926L14.7799 36.5465C14.7657 36.8092 14.715 37.0675 14.7073 37.3316L14.6474 40.6644C14.6352 42.3309 15.41 43.5159 17.2388 43.5169L23.3173 43.5237L23.3231 28.9305C23.3256 28.6411 23.3751 28.3574 23.377 28.0667L23.4046 18.8305C23.4161 18.6169 23.4786 18.3344 23.42 18.1292L23.4085 18.0885C23.0003 16.6643 21.4111 16.2333 20.2048 15.7287L17.6437 14.609C17.1643 14.3959 16.5957 14.1996 16.1806 13.8759C15.3694 13.2434 15.06 12.038 15.5275 11.1089C15.6217 10.9217 15.7633 10.749 15.8858 10.5788L16.5282 9.68377C16.5997 9.58182 16.6872 9.4845 16.75 9.37763C16.2603 8.8215 16.1933 8.46938 16.0773 7.78847ZM32.0715 7.81955C32.0327 8.36527 31.8031 8.86228 31.4631 9.28974C31.248 9.56021 31.4354 9.56063 31.6895 9.92419C32.0329 10.4154 32.4218 10.8902 32.6368 11.4544C33.0743 12.6025 32.248 13.6891 31.2334 14.1739L27.3412 16.0135C26.0975 16.5792 25.4903 16.7988 24.9774 18.1952C24.7459 18.8254 24.7731 19.3679 24.7724 20.0371L24.7672 28.1658C24.7647 28.4217 24.7033 28.6795 24.7008 28.9413L24.6975 43.1298C24.6972 43.2611 24.6765 43.3864 24.6943 43.5174L27.9532 43.5013C28.1115 43.4914 28.2646 43.4587 28.4217 43.443L31.8379 42.9775C33.763 42.6176 33.4317 41.1762 33.3145 39.5891L33.2872 38.6392L32.901 33.2146L32.4865 29.6909C32.2625 28.2809 32.0455 26.8681 31.699 25.4813L30.5247 21.4005C30.3477 20.7612 30.9887 20.2187 31.5464 20.6082C31.8695 20.8339 32.1442 22.1465 32.2977 22.5472L32.3488 22.714C32.3577 22.7517 32.3689 22.7796 32.3827 22.815L32.917 24.7445C32.9245 24.7792 32.9349 24.8079 32.9461 24.8412L33.0364 25.1977C33.5047 26.8007 33.74 28.7964 33.9847 30.4456L34.1723 32.016C34.2039 32.2388 34.2102 32.471 34.2287 32.6956L34.3877 34.9028C34.3975 35.0423 34.3801 35.2115 34.4321 35.3421C35.097 35.3402 35.7477 35.271 36.4111 35.2685C37.107 35.2657 37.759 35.2658 38.4377 35.0836C39.2097 34.8762 39.1651 34.606 39.1652 33.9335L39.1476 32.6371C39.1396 32.3888 39.1547 32.1391 39.1355 31.8914L39.0241 30.9144C38.9364 29.9312 38.8501 28.943 38.6854 27.9689L38.14 24.6248L36.6065 18.0472L33.8891 9.86752C33.4718 8.76825 33.3194 8.16019 32.0715 7.81955Z" fill="black"/>
</svg>
