<svg width="48" height="48" viewBox="0 0 48 48" fill="none" xmlns="http://www.w3.org/2000/svg">
<path d="M15.8241 42.8237C15.4917 42.5874 15.1422 42.2793 14.8985 41.952L14.8772 41.9229C13.5624 42.343 12.2298 42.3524 10.8703 42.3501C8.99288 42.3468 8.19643 42.1685 6.80134 40.6982C5.79624 39.6389 5.62299 39.4385 5.8742 38.0581L6.22923 36.2864C7.45866 30.4799 10.3494 24.729 14.3388 20.3605L15.3817 19.2683C15.535 19.1091 15.7375 18.9359 15.8556 18.751C17.2265 16.6034 17.3193 14.0081 16.3074 11.6869L15.7503 10.5577C14.865 8.56476 15.234 6.41226 16.6193 4.75804C16.9247 4.3932 17.2363 3.98901 17.774 4.0899C19.5985 4.43228 20.878 5.88102 22.1484 7.10479L23.9903 8.83537C24.1181 8.74522 24.2228 8.62644 24.336 8.51929L26.1352 6.81618C27.2318 5.74096 28.7118 4.28147 30.2946 4.06123C31.1411 3.9831 32.0696 5.66202 32.3127 6.30838L32.4383 6.63247C32.7848 7.65402 32.7923 8.89677 32.4674 9.92591C32.329 10.3638 32.1293 10.7739 31.9722 11.2028L30.8789 14.4066C30.7154 14.9362 30.8039 16.2285 30.9494 16.7629C31.1939 17.661 31.6606 18.2476 32.293 18.9049L33.3779 20.0369C35.8869 22.7127 38.3822 26.5069 39.7621 29.9644L40.6096 32.1858L41.4257 34.8912C41.5008 35.296 41.6276 35.7019 41.719 36.1051L42.0486 37.652C42.0956 37.8936 42.1467 38.1428 42.1869 38.3851L42.2036 38.4698C42.4105 39.3533 41.9745 39.8787 41.4186 40.4773C40.3798 41.596 39.5788 42.1672 38.032 42.1767L36.9887 42.1853C36.281 42.2101 35.614 42.3111 34.8968 42.2513C34.7232 42.2369 33.1858 41.9257 33.1694 41.9332C33.1356 41.9485 33.0422 42.0786 33.0119 42.1109L32.5546 42.5589C30.6544 44.2631 27.1574 44.328 25.0289 43.0722C24.6696 42.8602 24.3938 42.5883 24.0592 42.3519C23.9907 42.3036 23.9821 42.3567 23.9265 42.4066L23.6364 42.6596C21.5997 44.3149 17.91 44.3352 15.8241 42.8237ZM17.7788 5.45169C17.2691 5.9939 16.894 6.65408 16.7062 7.3738C16.4857 8.21858 16.6381 9.70129 17.1871 10.4195C19.1749 10.2982 20.8163 11.5641 21.3287 13.4422C21.3554 13.5402 21.3509 13.7155 21.4114 13.7896L26.6183 13.7687C26.9296 11.9055 28.5574 10.3381 30.4998 10.4137C30.6303 10.4189 30.8207 10.5103 30.8782 10.3704L31.1473 9.6809C31.6778 8.16018 31.2526 6.62155 30.192 5.46529C28.7946 6.15463 28.3597 6.52865 27.2857 7.56965L24.8373 9.97241C24.0094 10.7876 23.8902 10.7002 23.0603 9.87773L20.7428 7.60176C20.0235 6.8953 19.3495 6.21037 18.4381 5.74977L17.7788 5.45169ZM17.7397 11.7447L18.1047 12.8309C18.2051 13.2443 18.2222 13.5738 18.2962 13.9699L19.0425 13.9533C19.3494 13.9317 19.6731 13.8893 19.9806 13.9105L20.0637 13.8864C19.8708 12.8885 19.0846 12.048 18.0961 11.8089L17.7397 11.7447ZM30.2031 11.7468L29.9181 11.8093C29.1425 11.9756 28.4249 12.6015 28.1195 13.3211L27.9799 13.6989C28.0282 13.7321 28.1288 13.7153 28.1896 13.7139L29.6627 13.7095L30.4129 11.7389L30.2031 11.7468ZM28.2568 15.0485L21.4598 15.148C21.1289 15.1503 20.7766 15.1381 20.4494 15.1907L20.1294 15.2291C19.9421 15.2595 19.7357 15.2542 19.5459 15.2583L18.3391 15.2741C18.2345 16.0413 17.9827 17.6981 17.5602 18.3588L19.4829 18.3437L30.1471 18.3065C29.6154 17.4873 29.4597 15.9916 29.4614 15.0462L28.2568 15.0485ZM21.1792 19.6686L18.4709 27.8786L16.4093 36.5622L15.7519 40.9C16.1669 41.5443 17.3297 42.2452 18.0569 42.3922L18.0989 42.3992C19.8417 42.8732 21.7677 42.5197 23.1083 41.288C23.2185 41.1867 23.3365 41.2015 23.3425 41.0135L23.3427 19.6617L21.1792 19.6686ZM25.1068 19.6695C24.9619 19.6774 24.8013 19.6957 24.6579 19.6792L24.6499 40.7924C24.6495 41.2257 24.6555 41.0742 24.9686 41.3483C25.8362 42.1082 26.9416 42.5689 28.1045 42.5834L28.9923 42.5697C29.7426 42.4991 30.4576 42.2889 31.121 41.9309C31.5783 41.6437 31.8873 41.2937 32.2644 40.9175L31.5343 36.3595C30.8883 33.0488 30.0999 29.778 29.1212 26.5484L26.898 19.9468C26.868 19.8458 26.8597 19.7606 26.8052 19.6681L25.1068 19.6695ZM28.2173 19.6738L30.3841 26.1829L31.6291 30.6454L32.2809 33.4244C32.3188 33.5539 32.3308 33.689 32.3614 33.82L32.6821 35.2561L33.422 39.6325C33.4699 39.9486 33.5102 40.2641 33.5479 40.5811C33.9936 40.6872 34.4506 40.8301 34.9057 40.8825C35.7189 40.9761 36.4981 40.8604 37.3092 40.8336C38.57 40.7919 38.9964 40.9252 40.0156 40.0065L40.9294 38.9794C40.8433 38.2386 40.6715 37.5 40.5175 36.7707C39.4001 31.4769 36.9863 26.4136 33.5367 22.2412L31.6336 20.1338C31.4843 19.9823 31.341 19.8132 31.1784 19.6767L28.2173 19.6738ZM19.1625 19.6712C18.9074 19.6878 18.6646 19.7255 18.4126 19.7406L16.9673 19.755C16.8685 19.7554 16.7742 19.7223 16.6994 19.8034L16.4416 20.1101C15.4739 21.1537 14.49 22.1675 13.6182 23.2965L12.4856 24.9081C10.5787 27.7561 9.1764 30.7818 8.16812 34.0572L7.09524 38.7419C7.02184 39.1638 8.02712 40.1117 8.33495 40.3248C9.20879 41.0181 9.77649 40.9844 10.8115 40.9882C12.1895 40.9932 13.1124 41.0023 14.4644 40.5894C14.5155 40.3249 14.5309 40.0578 14.5682 39.7916L14.959 37.1364L16.866 28.7356L18.1914 24.3562L19.7436 19.6826L19.1625 19.6712Z" fill="black"/>
</svg>
