<svg width="48" height="48" viewBox="0 0 48 48" fill="none" xmlns="http://www.w3.org/2000/svg">
<path d="M14.2673 2.27326C14.8668 2.24087 15.493 3.19985 15.8777 3.56028C16.7877 4.41301 17.623 4.56983 17.8972 6.06849C18.0092 6.68058 18.075 7.22298 18.0134 7.84637C17.9504 8.48499 17.6518 9.2544 17.9273 9.88576L17.9851 10.0388C18.2704 10.7883 19.0152 11.4521 19.8283 11.5579C20.9103 11.6986 21.9372 12.1414 23.051 11.993C23.5831 11.9221 24.1126 11.7532 24.6398 11.6482L25.219 11.5547C25.3282 11.5408 25.4426 11.5419 25.5456 11.4991L25.5705 11.4882C27.0264 10.8841 27.2644 9.72404 27.0295 8.30344L26.9566 7.78463C26.724 6.4433 27.2722 4.89962 28.3887 4.10781C28.5873 3.96696 28.7991 3.84539 28.9833 3.68445C29.3757 3.34147 30.006 2.49575 30.4572 2.32303C30.8159 2.18576 31.2082 2.41337 31.3315 2.76634L31.3572 2.84091C31.5527 3.45643 29.8356 4.75337 29.4095 5.07938C29.0408 5.36143 28.6866 5.53862 28.4771 5.97216C28.1182 6.71457 28.3399 7.64762 28.4427 8.42218C28.5241 9.03591 28.3654 8.82451 28.8421 9.20565C29.2217 9.50921 29.5823 9.96484 29.7339 10.4298L29.8414 10.771C30.2795 12.153 29.5003 14.3664 28.7768 15.5034C28.3448 16.1824 27.8006 16.7828 27.4262 17.501C26.6215 19.0441 27.1927 19.5407 27.9148 20.8472L28.5939 22.2066C28.8085 22.6174 28.9784 23.0777 29.1547 23.5074L29.3572 24.045L30.6094 28.148C30.6685 28.3854 30.693 28.6366 30.7504 28.8745L31.0882 30.445L31.8329 35.4559C31.8502 35.5695 31.8543 35.6882 31.8757 35.8003L32.2413 38.2677C32.2494 38.3784 32.2796 38.4808 32.2976 38.5894L32.7327 41.4956C33.0384 43.2217 32.1357 42.62 31.0884 42.892L27.0461 44.2967C27.3134 46.2484 25.975 45.7913 24.5731 45.7966L23.9282 45.8076C23.5658 45.8161 23.3777 45.7206 22.9619 45.7218L22.0907 45.7195C20.9408 45.7095 19.6745 45.4779 18.6384 44.9887C18.3485 44.8518 18.0727 44.687 17.7724 44.5723C16.991 44.2737 16.1083 44.17 15.4041 43.6874C14.7425 43.234 14.538 43.0237 13.7111 42.8581C13.1478 42.7454 12.1018 42.9604 12.1909 42.0533L14.1935 28.8564C14.7324 26.1006 15.7546 23.4725 17.0166 20.9716C17.2574 20.4944 17.5753 20.0508 17.8021 19.5695C18.5088 18.0695 16.5915 16.2624 15.9461 15.0373C15.1485 13.5235 14.3269 10.5954 15.9895 9.36324C16.142 9.25023 16.3106 9.17509 16.4704 9.07534C16.5811 7.8669 17.1498 6.4088 16.0454 5.46277C15.81 5.26107 15.5381 5.10844 15.2988 4.91302C15.0063 4.67433 14.742 4.37583 14.4714 4.11076C13.8806 3.53217 12.9518 2.75367 14.2673 2.27326ZM19.1511 19.8767L18.0979 21.8742C17.1444 23.7181 16.3619 25.7032 15.8525 27.7173L15.428 29.7543L13.9279 39.4734C13.8272 40.1297 13.706 40.7788 13.6586 41.4427C14.9387 41.7949 14.8442 41.7039 15.926 42.4011C16.5879 42.8276 17.4152 42.9779 18.1445 43.2484C18.5081 43.3832 18.8428 43.5678 19.1978 43.7208C20.268 44.182 21.3637 44.2637 22.5169 44.3071L25.7116 44.3544L25.7115 34.4083C25.7114 33.4788 25.6823 33.0021 26.0222 32.1074C26.2441 31.5721 26.5242 31.0628 26.7686 30.5377C26.8807 30.2969 26.9582 30.0065 27.1034 29.7867C27.6455 28.9661 28.2785 29.7634 28.5132 30.4248L29.0976 32.4155C29.2715 32.9778 29.3895 34.3178 29.4139 34.9949L29.5039 36.848C29.5153 37.0506 29.4964 37.2559 29.5132 37.4578L29.6384 38.8824C29.6529 39.0375 29.6828 39.1906 29.6909 39.3465L29.7632 41.4722C29.7695 41.6163 29.7574 41.7577 29.7769 41.9014L29.8145 41.8851C30.2982 41.6802 30.839 41.5456 31.3507 41.4323L29.9908 31.926C29.3605 28.2547 28.3989 24.7164 26.6495 21.4017L26.0096 20.1884C25.9707 20.1136 25.9217 19.9386 25.8581 19.8905C25.808 19.8525 19.7825 19.8914 19.1511 19.8767ZM18.9138 12.9103C18.2636 12.9197 17.2451 12.9344 16.6238 13.16C16.6581 13.2819 16.6868 13.4065 16.7362 13.523L16.9458 14.0108C17.4551 15.1072 18.4132 15.9307 18.8749 17.0548L19.0516 17.5659C19.1448 17.8784 19.1619 18.2236 19.2768 18.5206L25.7097 18.5334L25.866 17.7477C26.3799 16.0369 27.8945 14.8456 28.3998 13.133L27.3284 12.9647C26.9005 12.8757 25.782 12.8769 25.3521 12.9345C24.6286 13.0313 23.9283 13.2867 23.2072 13.3896C21.696 13.6052 20.3014 12.8369 18.9138 12.9103ZM27.1229 33.1794C27.0363 33.4814 27.0695 33.8274 27.0693 34.1398L27.0684 40.1693C27.0684 41.0054 27.1021 41.8576 27.0546 42.692L27.0449 42.7112L27.0805 42.8081C27.5395 42.7518 28.0557 42.5512 28.4767 42.3661L28.2551 38.3331C28.2036 37.6415 28.1546 36.9444 28.1304 36.2521L28.0459 34.4671C28.0158 33.8703 27.9256 32.948 27.5395 32.4563C27.309 32.6428 27.2507 32.8875 27.1411 33.1459L27.1229 33.1794ZM16.6873 10.4878C16.4767 10.8652 16.4052 11.3654 16.4022 11.7952L17.0636 11.6871L17.4205 11.6382C17.2777 11.4441 17.1276 11.2542 17.0066 11.0452C16.9268 10.9073 16.8219 10.58 16.7073 10.4898L16.6873 10.4878ZM28.2896 10.4713L28.28 10.5026C28.1477 10.9243 27.8899 11.2774 27.6151 11.6171L28.0835 11.691L28.6046 11.8044C28.6445 11.318 28.4842 10.9068 28.2896 10.4713ZM27.0686 42.7112L27.0546 42.692C27.1021 41.8576 27.0684 41.0054 27.0684 40.1693L27.0693 34.1398C27.0695 33.8274 27.0363 33.4814 27.111 33.1794C27.0348 33.2455 27.0273 33.2852 27.0225 33.3863L27.0113 42.3394C27.0091 42.4876 26.9455 42.5901 27.0686 42.7112Z" fill="black"/>
<path d="M27.0684 42.7115C26.9453 42.5904 27.0088 42.4879 27.011 42.3397L27.0223 33.3865C27.027 33.2855 27.0346 33.2458 27.1107 33.1797C27.0361 33.4817 27.0693 33.8276 27.069 34.14L27.0682 40.1696C27.0681 41.0056 27.1019 41.8579 27.0544 42.6923L27.0684 42.7115Z" fill="black"/>
</svg>
