<svg width="48" height="48" viewBox="0 0 48 48" fill="none" xmlns="http://www.w3.org/2000/svg">
<path d="M32.7602 37.8863C32.7203 38.0517 32.7039 38.2232 32.6722 38.3904L31.7979 42.9533C31.5843 44.0528 31.5623 44.2284 30.3399 44.2291L17.9159 44.2296C16.7518 44.229 16.3848 44.4186 16.1118 43.0434L14.9052 36.3427C14.8199 35.8201 14.6092 35.3017 14.5573 34.7795L14.3664 33.2636C14.2758 32.1359 14.3618 31.0057 14.4609 29.8825L14.5668 29.0665C14.8597 27.0982 15.6099 25.1305 16.5585 23.3953L17.2746 22.1247C17.5142 21.7044 17.8112 21.2161 17.9143 20.7403C18.1272 19.7571 17.682 16.8203 17.167 15.8203C16.9498 15.3986 16.6194 15.043 16.3954 14.6194C15.9197 13.7196 15.8169 12.8523 15.8137 11.8441L15.7794 8.37105C15.7457 7.66984 15.5631 7.29574 15.2695 6.65449C15.1008 6.28619 14.9876 5.896 14.8454 5.51758C14.6018 4.86977 14.0903 4.1695 14.9846 3.77714L17.6019 3.76692C19.023 3.77069 20.0913 4.82627 20.1511 6.2186C20.1581 6.38397 20.1257 7.56686 20.1845 7.62123C20.2353 7.66825 20.5097 7.70856 20.5874 7.73008C21.594 8.00903 22.5881 8.50525 23.3367 9.24067C23.5514 9.45152 23.753 9.71411 23.9857 9.90053C25.3014 8.48181 26.0897 8.14141 27.8169 7.60956C27.8169 6.14313 27.7168 4.58289 29.3912 3.94323C30.1412 3.65675 30.9346 3.76696 31.7219 3.76681L32.5327 3.76796C32.9476 3.76995 33.2116 3.81182 33.3925 4.24451L33.4212 4.31431C33.5462 4.62746 33.2758 5.10269 33.1716 5.40016L32.4296 7.28172C32.2398 7.74081 32.2101 8.08108 32.194 8.57566L32.1805 11.4861C32.1798 12.787 32.1865 13.9365 31.3752 15.0473C30.8698 15.7392 30.7544 15.7998 30.5424 16.6179L30.2263 18.1246C29.7815 20.6742 29.9658 20.7751 31.1916 22.9591C31.6633 23.7995 32.362 25.1264 32.6387 26.0651L32.923 27.0062C33.4207 28.2568 33.6323 30.6064 33.6325 31.9043L33.6204 33.0693C33.5595 34.0777 33.3235 35.0102 33.1085 35.9895L32.7602 37.8863ZM16.1936 5.2292L16.4152 5.81224C16.5402 6.22549 16.7813 6.60377 16.9038 7.01927L16.9779 7.2917C17.175 8.2367 17.1509 8.68244 17.1523 9.65317L17.1541 11.6507C17.1539 12.3219 17.1911 12.8193 17.3461 13.4623C17.5319 14.2339 18.2275 14.7438 18.4965 15.466L19.1561 18.2481C19.2037 18.4096 19.2107 18.596 19.2272 18.7636L28.7326 18.7704C28.7658 18.629 28.7686 18.4856 28.7959 18.3438L29.1156 16.8546C29.3642 15.6933 29.4678 15.3106 30.2113 14.3363C30.8792 13.4612 30.868 12.4052 30.8633 11.3611V9.26059C30.8636 8.62478 30.875 8.14502 30.9613 7.51914C31.0323 7.00483 31.3122 6.55431 31.478 6.07005L31.6495 5.53159C31.6775 5.43241 31.6891 5.32066 31.7364 5.2293L30.4651 5.22972C29.7791 5.23178 29.6052 5.26347 29.2204 5.91977C29.096 6.13192 29.1541 6.57484 29.1544 6.82206L29.1548 8.03041C29.1532 8.87542 28.9171 8.86366 28.0956 8.99941C26.8536 9.20463 25.7667 10.0054 24.9463 10.9265L24.5888 11.3398C23.9753 12.0637 23.7061 11.6703 23.1871 11.0943C22.3038 10.114 21.3194 9.28816 20.0038 9.00142C19.2915 8.84617 18.8673 8.95792 18.8555 7.99858L18.8513 7.06352C18.849 5.81181 18.7476 5.22995 17.4352 5.22892L16.1936 5.2292ZM19.3515 20.2317C19.2892 20.9416 19.2084 21.1385 19.0452 21.7577L28.787 21.7675L29.0909 21.7729C28.741 21.0122 28.77 20.9749 28.6887 20.2287L19.3515 20.2317ZM21.0118 23.1997C18.1421 26.3616 17.4266 30.6337 18.1481 34.7179L19.4477 41.695C19.5157 42.0393 19.5434 42.4158 19.6615 42.7465C19.7438 42.796 21.1149 42.766 21.3255 42.766L27.0116 42.7653L28.2316 42.7678C28.291 42.6234 28.2977 42.4463 28.3289 42.2927L29.8895 34.3361C30.0505 33.5062 30.1058 32.721 30.1039 31.8802C30.0986 29.418 29.4532 26.7047 28.0536 24.6399C27.9377 24.469 27.0559 23.2436 26.9529 23.2314C26.8313 23.217 26.6938 23.2301 26.5698 23.2299L22.6568 23.2301C22.1212 23.2299 21.5397 23.2757 21.0118 23.1997ZM18.2238 23.23C16.9 25.4983 16.1668 27.2467 15.8123 29.9177L15.6632 31.1859C15.6001 32.0719 15.6411 33.7653 15.8732 34.6466L16.1658 35.7742C16.2317 36.0826 16.2577 36.4137 16.3008 36.727L17.3035 42.2458C17.337 42.4193 17.3395 42.5956 17.3991 42.7627L18.2759 42.7622L18.2694 42.6872L16.9501 35.5503C16.6551 33.9678 16.574 33.1644 16.5867 31.555L16.6703 30.0466C16.6923 29.8327 16.7043 29.617 16.743 29.4054L17.0273 27.9342C17.3767 26.5064 18.2551 24.3997 19.2242 23.2296L18.2238 23.23ZM28.7444 23.23C29.4444 24.2247 30.2314 25.6221 30.5846 26.8122L30.7857 27.4582C31.1035 28.4958 31.312 29.5958 31.3797 30.6794L31.408 32.0198C31.4085 32.7714 31.3857 33.4915 31.2768 34.2368L29.9084 41.1091L29.6324 42.7509C29.8997 42.7712 30.1987 42.7955 30.4652 42.7689L30.4894 42.6945L31.8979 35.2852C31.9558 35.0617 32.0335 34.8419 32.0841 34.6169C32.8105 31.3882 31.9454 27.2007 30.3897 24.3029C30.1998 23.9492 29.9945 23.5774 29.7701 23.244C29.6724 23.214 29.5356 23.2301 29.4325 23.23L28.7444 23.23Z" fill="black"/>
</svg>
