<svg width="48" height="48" viewBox="0 0 48 48" fill="none" xmlns="http://www.w3.org/2000/svg">
<path d="M29.726 42.6843C29.7006 43.0803 29.5961 43.4904 29.5218 43.8806C29.3293 44.8924 28.4593 44.9804 27.6623 44.9809L19.9421 44.9802C18.512 44.975 18.47 43.7738 18.2754 42.656L17.4621 38.4138L14.4708 21.1825L14.1367 17.5054C14.1227 17.3047 14.0807 17.1064 14.0718 16.9053L14.0674 13.2924C14.0716 12.8632 14.1409 12.4371 14.1782 12.0084L14.2722 11.2002C14.3065 10.9155 14.3787 10.6286 14.4344 10.3474L14.7181 8.99787C14.8117 8.62029 14.9023 8.24116 15.0228 7.87113L15.1478 7.51493C15.1962 7.38101 15.1718 7.38391 15.1321 7.24765C14.8158 6.16301 15.2305 3.37446 16.5244 3.00218C16.9695 2.9961 17.4159 3.11612 17.8583 3.1706L20.5994 3.4607C23.0175 3.6672 26.1549 3.60827 28.5459 3.36309L30.567 3.10222C31.4796 2.97938 31.8575 2.8146 32.3576 3.78187C32.8216 4.67921 32.9164 5.24159 32.9189 6.20787L32.9079 7.00413C32.9011 7.12882 32.8945 7.28632 32.8423 7.40191L32.8234 7.44026C32.825 7.47368 32.8308 7.49234 32.8436 7.52398C33.1449 8.26976 33.3086 9.08102 33.4687 9.86693L33.7512 11.5661C33.8333 12.1789 33.9064 12.8098 33.9328 13.4284L33.9217 16.8784L33.7984 18.5974L33.0483 24.2505L32.6223 26.4528L31.0779 35.3669L30.1165 40.6286C29.9828 41.3103 29.8932 42.0101 29.726 42.6843ZM31.0206 4.412L28.6411 4.76145L29.0352 6.46962C29.1019 6.5036 29.1737 6.48973 29.2472 6.48738L31.5894 6.47965C31.5915 6.12448 31.5099 4.3635 31.0206 4.412ZM16.8908 4.42178C16.6954 4.77438 16.1944 6.10709 16.4071 6.4797L18.8958 6.4737L18.9647 6.47412C18.9767 6.4331 18.9801 6.40291 18.9843 6.36068C19.0397 5.81627 19.211 5.25907 19.3534 4.73163L16.8908 4.42178ZM20.7408 4.8874C20.5461 5.37907 20.4957 5.93993 20.3542 6.46957L27.4043 6.4737L27.6593 6.46976L27.2965 4.87315L20.7408 4.8874ZM16.4169 7.85393L15.7645 10.9219C16.6992 10.9305 17.4809 10.8536 18.2924 10.3532C19.3088 9.64779 19.5286 8.9876 19.5239 7.85248L16.4169 7.85393ZM20.9323 7.85688C20.92 8.19626 20.9164 8.5278 20.8594 8.85682C20.5467 10.6598 18.9273 11.9824 17.163 12.2518C16.6759 12.3262 16.1611 12.3263 15.6699 12.3071L15.5374 12.3007C15.4194 13.1647 15.4187 14.0279 15.4149 14.8982L15.4394 16.8285L15.5672 18.6707L16.0314 22.4529L16.5796 25.5206L22.6415 25.5161C22.8489 25.5161 23.0849 25.5383 23.2891 25.507L23.2861 25.4677C23.2471 24.9479 23.2741 24.4085 23.2741 23.8867L23.2736 18.9256C23.2737 18.393 23.1443 17.4332 23.948 17.4109C24.2628 17.4021 24.5937 17.5659 24.6744 17.8943L24.6823 17.9204C24.7388 18.1163 24.7069 18.388 24.7065 18.5938L24.704 25.5126L26.1211 25.5162L31.4168 25.5208L32.4348 18.4802C32.4715 18.0464 32.54 17.5287 32.5536 17.1091L32.5695 16.4177C32.5915 15.0455 32.604 13.6802 32.4751 12.3133C32.0514 12.3155 31.633 12.3317 31.2101 12.2911C29.0865 12.0874 27.3027 10.6845 27.0356 8.50831C27.0113 8.30979 27.0624 8.03201 27.0007 7.85023C26.164 7.8574 26.2239 7.64585 26.2138 8.40616L26.1885 13.0426C26.1171 14.2542 24.5733 14.9787 23.4837 14.9795C22.532 14.9802 22.5247 14.5312 22.5237 13.6742L22.5204 7.85604L20.9323 7.85688ZM23.961 7.85355L23.9442 12.7592C23.9298 13.36 23.7631 13.7474 24.5136 13.2435C24.5993 13.1872 24.7176 13.1288 24.7711 13.04L24.7783 7.86316L23.961 7.85355ZM28.4353 7.85426C28.2378 9.45635 29.6252 10.7171 31.1367 10.8768L31.8832 10.9225C31.9934 10.9258 32.1317 10.9119 32.2386 10.9319C32.2869 10.8194 32.203 10.5508 32.1782 10.4177L31.7041 8.36487C31.6668 8.2212 31.6478 8.0373 31.5893 7.90507L28.4353 7.85426ZM16.8421 26.9804L18.3761 35.7888L19.7356 43.113C19.7659 43.2463 19.7684 43.3877 19.8114 43.5178L23.2956 43.5102L23.2644 26.9835L16.8421 26.9804ZM24.7089 26.986L24.7093 43.1459C24.7086 43.2583 24.6911 43.3996 24.73 43.5053L28.2074 43.5165L28.6478 41.0561L31.0774 27.3979C31.1015 27.2711 31.1439 27.1065 31.134 26.9798L24.7089 26.986Z" fill="black"/>
</svg>
