<svg width="48" height="48" viewBox="0 0 48 48" fill="none" xmlns="http://www.w3.org/2000/svg">
<path d="M36.486 33.5435L28.5768 34.5112L26.6212 34.8673C25.6849 35.0548 25.5195 35.3493 24.9488 34.4607C24.7878 34.2099 24.6259 33.9601 24.5081 33.6848C24.3846 33.3961 24.2892 33.0191 24.1155 32.7642L24.0046 32.6048C23.5718 33.2429 23.1683 34.8601 22.3752 35.0725C22.0815 35.1512 21.7077 35.0033 21.4177 34.9399L14.9737 33.8638L8.42292 33.2888C7.93866 33.2577 7.38366 33.3727 7.2187 32.7838L7.20923 32.7485C7.1408 32.5013 7.18898 32.2823 7.20975 32.0332L7.75753 25.3946L8.00653 21.2414C8.03123 20.8772 8.06466 20.5008 8.12325 20.1405L8.199 19.746C8.24742 19.543 8.20167 19.4977 8.1473 19.2945C7.90294 18.3815 7.85428 17.0483 7.85123 16.1139C7.84926 15.4993 7.84205 14.9385 8.56036 14.768C8.81836 14.7457 9.07866 14.8957 9.32142 14.9668C10.3676 15.2731 11.9849 15.4394 13.123 15.4773L19.7975 15.4678L22.0129 15.374C22.3137 15.3571 22.599 15.2989 22.9065 15.2961L25.5688 15.2991C25.8067 15.3094 26.0346 15.3671 26.273 15.3792L27.7326 15.4016C27.9856 15.4101 28.2357 15.4558 28.4871 15.4667L34.8231 15.4755L37.0228 15.2933C37.4647 15.2509 37.9484 15.1587 38.3748 15.035C38.6798 14.9465 39.16 14.7015 39.483 14.7784L39.5152 14.7867C39.7448 14.8401 39.9281 14.9546 40.0507 15.1629L40.0682 15.1991C40.209 15.4838 40.1501 17.0753 40.1221 17.4369L39.9481 18.8914C39.9157 19.1744 39.8244 19.4594 39.728 19.7262C39.8034 19.8892 39.8138 20.0383 39.852 20.2063L39.8618 20.2487C39.9555 20.6642 39.9117 21.1361 39.9504 21.5624L40.5053 29.0975L40.7769 31.7513C40.8491 32.2504 40.987 33.1494 40.3101 33.272L36.486 33.5435ZM9.24047 16.3944C9.25191 17.0794 9.30122 17.7957 9.42206 18.4686C9.48961 18.8448 9.38859 18.8457 9.79251 18.846L13.5705 18.8451C13.6572 18.8447 13.7684 18.8581 13.8497 18.8315L13.9567 18.4394L14.4374 16.8955C13.6198 16.8189 12.8017 16.8838 11.98 16.8028L9.47142 16.4279C9.39492 16.409 9.31781 16.3743 9.24047 16.3944ZM38.6792 16.4179C37.6168 16.6683 36.4568 16.838 35.3599 16.8655L34.1167 16.8752C33.9758 16.8753 33.7155 16.8416 33.5884 16.8892L34.0463 18.4735L34.0602 18.5158C34.095 18.6253 34.1017 18.7461 34.1435 18.8522L38.5382 18.8445C38.7061 18.0439 38.7085 17.2292 38.7323 16.4154L38.6792 16.4179ZM22.8168 16.6925C22.3805 16.7293 21.9716 16.839 21.48 16.8638L15.9274 16.8844C15.6617 17.5024 15.5664 18.1923 15.401 18.8386L25.2535 18.8458L32.6531 18.8434C32.6191 18.5614 32.5368 18.3084 32.4579 18.0369L32.0954 16.8926L22.8168 16.6925ZM14.9447 20.0978L14.5953 21.3866C13.8218 23.8275 11.7834 25.3009 9.25312 25.2749C9.23076 25.4107 9.2377 25.5397 9.22884 25.6757L8.96316 28.811C8.94834 29.0186 8.87892 29.259 8.92233 29.4634C9.11334 29.5652 11.6415 29.4972 12.0654 29.5276L15.5742 29.8482L18.6202 30.3328C20.2395 30.6391 21.3331 31.204 22.8112 31.6788C22.9798 31.2839 23.1163 30.8628 23.353 30.5045C23.4442 30.3664 23.3677 30.0981 23.3673 29.9395L23.3687 20.9978C23.3687 20.7128 23.3899 20.411 23.3638 20.1287L16.039 20.138C15.6847 20.1376 15.2915 20.1694 14.9447 20.0978ZM24.6328 20.1434L24.6357 26.3318C25.0355 26.2227 25.4549 26.0974 25.7841 25.8358C26.0727 25.566 26.247 25.2335 26.2613 24.8349L26.2545 20.1462L24.6328 20.1434ZM30.8429 20.142L27.7264 20.1513L27.7274 24.3053C27.7263 25.4323 27.4258 26.5089 26.3653 27.1199C26.1862 27.2231 24.7348 27.8101 24.7066 27.8868C24.6737 27.976 24.7055 28.2318 24.7051 28.3353L24.6999 30.0592C24.6997 30.2844 24.6871 30.4299 24.7983 30.6327L25.0505 31.2023C25.1253 31.3656 25.1597 31.5283 25.2564 31.6847C26.4608 31.1949 27.6679 30.7132 28.9332 30.3984L31.2704 29.9524L33.6558 29.6663C34.3471 29.5975 35.0281 29.5527 35.7213 29.519L39.18 29.4132L38.8304 25.2853C36.2235 25.2647 34.1257 23.847 33.3694 21.2763C33.3352 21.1601 33.1312 20.174 33.1002 20.1499C33.0805 20.1345 32.8265 20.1433 32.7758 20.1428L30.8429 20.142ZM9.59541 20.142L9.31116 23.8606C10.3897 23.8193 11.2623 23.5548 12.087 22.8413C12.9421 21.9775 13.1773 21.2776 13.4429 20.1566L9.59541 20.142ZM34.5585 20.142C34.5919 20.3815 34.6447 20.6504 34.7256 20.8591L34.8295 21.1874C35.494 22.8762 36.9494 23.8768 38.7433 23.8606L38.558 20.8052C38.5493 20.662 38.5655 20.2696 38.4913 20.1718C38.1044 20.1119 37.6798 20.1439 37.2872 20.144L34.5585 20.142ZM38.1563 30.8292C34.7229 30.8533 30.361 31.2961 27.1474 32.4626C26.6849 32.6305 26.1858 32.77 25.7543 33.0096C25.8062 33.1643 25.8954 33.423 25.9923 33.5533L26.8729 33.3823L35.2339 32.1886L36.8297 32.0548C37.088 32.0329 37.3434 31.9885 37.6029 31.9786L38.7335 31.97C38.9373 31.9687 39.149 31.9787 39.3505 31.9464L39.256 30.8273L38.1563 30.8292ZM8.78737 30.8784L8.7172 32.0431C9.35709 32.1018 10.0097 32.0476 10.6519 32.071C10.9011 32.0801 11.1426 32.1335 11.3902 32.155L13.0806 32.2797L17.8515 32.846L21.9209 33.6123L22.0335 33.4457L22.2389 32.9953C19.7119 31.805 16.9137 31.4374 14.1618 31.1908L11.6168 30.9837C10.6665 30.9177 9.69291 30.9707 8.78737 30.8784Z" fill="black"/>
</svg>
