<svg width="48" height="48" viewBox="0 0 48 48" fill="none" xmlns="http://www.w3.org/2000/svg">
<path d="M30.9197 38.4382L29.5447 38.7115C29.2509 38.7741 27.9457 39.1151 27.7787 39.0573C27.2012 38.8574 27.1969 38.6522 27.0606 38.1201L24.8248 29.0626C24.7341 28.6551 24.427 27.0196 23.9297 26.9501C23.5911 27.1734 23.4002 28.2799 23.312 28.6608L22.75 31.1938L21.0479 38.0485C20.717 39.1772 20.5303 39.2615 19.4966 39.0244L16.1953 38.3629L10.8909 37.6811L4.14655 37.1523C3.42291 37.087 3.18427 36.9159 3.28837 36.0677L4.55754 27.8569L6.92723 11.0716C7.00533 10.4063 6.93347 9.69222 7.75055 9.47163C8.09705 9.43863 8.24278 9.57902 8.52056 9.76352C10.7394 11.2374 15.2568 12.1086 17.8204 12.4585L18.9609 12.581C19.7888 12.6773 20.7801 12.8018 21.6123 12.8395L26.4062 12.8395C26.9613 12.8159 27.5346 12.7253 28.0898 12.6753L29.5984 12.5422C31.2204 12.3459 32.8215 12.0465 34.4062 11.6496L36.1875 11.159C37.3013 10.8017 38.3928 10.4047 39.4025 9.80453C39.5888 9.69377 39.8024 9.5335 40.0195 9.49689C41.0004 9.33156 41.0141 10.5493 41.072 11.146C41.0821 11.2506 41.1157 11.3459 41.1303 11.4488L41.8082 16.8366L43.8238 30.0624L44.8804 36.0567C44.5448 36.9302 44.0291 36.7937 43.2218 36.8608L42.3185 36.954C42.2135 36.9643 42.1113 36.9945 42.0061 37.0058L38.7753 37.3198C38.6588 37.3315 38.547 37.3617 38.4314 37.3762L35.3767 37.7402L30.9197 38.4382ZM39.4698 11.8004C39.1194 12.001 38.745 12.1366 38.3724 12.2888C36.4872 13.0589 34.4287 13.6252 32.4158 13.9501C32.385 14.1187 32.4752 14.4122 32.4987 14.5913L32.6937 15.9935C32.8064 16.8262 32.8238 17.391 33.5747 17.948C35.4268 19.1959 38.4472 18 40.1056 16.9069L39.4698 11.8004ZM8.57611 11.8169L7.96369 16.9238C9.5925 17.9971 12.5756 19.2348 14.4103 17.9326C15.0197 17.473 15.1665 16.9708 15.2655 16.2638L15.5935 13.9302C13.5355 13.5131 11.5139 13.1094 9.57651 12.2767L8.57611 11.8169ZM17.2962 14.2379L16.995 16.3681C16.933 16.8184 16.8837 17.2473 16.732 17.6804C16.0112 19.7382 13.5227 20.6181 11.5207 20.2129L10.7421 20.0742C10.1297 19.9422 9.53217 19.7588 8.95617 19.5113L8.1173 19.1035C7.98806 19.0348 7.82161 18.8913 7.683 18.8603L5.90409 30.7763C6.33258 30.6687 6.78853 30.5504 7.22967 30.5337L8.56017 30.5262C8.95392 30.5275 9.42947 30.4836 9.81337 30.5624L14.5368 31.0783C16.0691 31.2901 17.6911 31.7629 19.0853 32.4286L20.5804 33.2287L21.8602 27.4215C21.9919 26.9147 22.1267 26.4025 22.3649 25.9342L22.3423 25.923C21.7079 25.6003 22.0147 24.6504 22.6119 24.4837C22.8342 24.4217 23.0688 24.4018 23.29 24.3343C24.1569 24.07 24.9319 23.2821 25.0324 22.3555C25.0627 22.0765 25.0437 21.7775 25.0439 21.4961L25.0463 14.68L22.582 14.6816C22.3996 14.677 22.2159 14.6448 22.0325 14.637L21.1277 14.6148L17.7318 14.2836C17.6048 14.2677 17.4191 14.2197 17.2962 14.2379ZM30.5794 14.2578C30.3281 14.308 30.077 14.3233 29.8234 14.3527L28.2287 14.51C27.7422 14.5609 27.2606 14.6171 26.771 14.6248L26.7633 21.8127C26.7592 23.1608 26.398 24.5375 25.1823 25.319L24.9814 25.4355C26.0573 26.647 26.2174 27.6549 26.5462 29.1975L27.2273 32.156C27.321 32.5304 27.3948 32.9159 27.5107 33.2839C30.0121 31.8397 32.7824 31.2644 35.6473 31.0256L35.6555 31.0391L37.0195 30.8887C37.3539 30.8316 38.0546 30.7836 38.4202 30.7668L39.5228 30.752C39.7443 30.7432 39.9543 30.6874 40.173 30.6735C40.806 30.6332 41.4714 30.6315 42.1049 30.663L40.2834 18.8597C39.7356 19.1784 39.1613 19.4808 38.5663 19.7011C36.3538 20.5203 32.9057 20.689 31.5573 18.345C30.9673 17.3194 30.9906 15.9983 30.7954 14.8589L30.7174 14.3243C30.7069 14.2675 30.7209 14.2691 30.668 14.2428L30.5794 14.2578ZM7.96509 32.5381C7.40864 32.5736 6.83414 32.6011 6.29348 32.7413C6.03858 32.8074 5.80087 32.939 5.54367 32.9944L5.15677 35.4531C5.4818 35.487 5.80776 35.464 6.13322 35.4832L6.68648 35.5372C7.08811 35.5593 7.45772 35.5903 7.85212 35.6165L8.75817 35.6438C8.9513 35.6568 9.14025 35.6981 9.33361 35.713L9.86719 35.7371C10.0416 35.7508 10.213 35.7884 10.3902 35.7985L12.1523 35.9776C12.4975 36.0198 12.8457 36.0435 13.1923 36.085L14.7783 36.2818C15.7182 36.4101 16.6931 36.5099 17.6155 36.7313L19.5298 37.1L20.0545 35.2114C17.3486 33.5967 15.5099 33.1103 12.3048 32.7807L11.157 32.6729C11.0537 32.6617 10.9575 32.6352 10.8519 32.6275L9.97683 32.5928C9.81553 32.5823 9.65841 32.5514 9.49505 32.5446L7.96509 32.5381ZM40.7712 32.5889L39.426 32.6356C39.2662 32.6474 39.1123 32.6845 38.9515 32.6949L38.1758 32.7215C37.9861 32.7356 37.797 32.7791 37.6062 32.7956C34.5395 33.0618 30.8147 33.6445 28.1096 35.2305L28.5823 37.0733L30.0513 36.8012L42.9967 35.2762L42.5054 32.6738L40.7712 32.5889Z" fill="black"/>
</svg>
