<svg width="48" height="48" viewBox="0 0 48 48" fill="none" xmlns="http://www.w3.org/2000/svg">
<path d="M24.4808 41.1358L19.5351 41.1355C18.908 41.1352 18.3364 41.1318 17.7261 40.9657C15.5308 40.368 14.5133 38.5487 14.3518 36.4337C14.2782 35.469 14.3213 34.4912 14.3211 33.5238L13.4082 36.2814C13.2056 36.9393 13.0923 37.4155 12.8439 38.086L12.3651 39.2963C12.2451 39.5902 12.1308 39.8875 11.978 40.1665C10.6932 42.5119 7.11682 42.2249 6.3979 39.5461C6.19972 38.8075 6.32361 38.0787 6.44979 37.34L7.55543 30.331L9.27696 23.2618C10.03 20.5147 10.7329 17.232 13.569 15.8938C14.3695 15.5161 15.2653 15.2773 16.1098 15.0148C16.8094 14.7973 17.4859 14.528 18.1955 14.3424L18.1936 13.0205C18.1911 12.2387 18.2859 11.8023 18.6372 11.1095C19.7592 8.89731 21.2368 8.31329 23.6434 8.29079C25.2478 8.18931 27.3216 8.62478 28.6339 9.5507C29.7707 10.3527 29.8729 11.4093 29.8747 12.6692L29.8796 14.3861C29.9585 14.4337 30.0426 14.4445 30.1293 14.4704L32.5326 15.284C33.1062 15.4615 33.718 15.5834 34.2574 15.8495C35.6736 16.5482 36.8386 17.7645 37.3251 19.2872L39.861 27.1463C39.9494 27.3673 39.9751 27.6358 40.0321 27.8673L40.1832 28.5364C40.2341 28.7992 40.2601 29.0701 40.3137 29.3321L40.5571 30.7413C40.6263 31.2426 40.6857 31.7534 40.7824 32.2501L41.6585 38.6114C41.6953 38.9309 41.6348 39.2556 41.5623 39.5659L41.549 39.6255C41.1666 41.1669 39.385 42.0221 37.9105 41.6494L37.7617 41.608C35.8368 40.97 35.4258 38.8512 34.9415 37.1404L33.9408 33.8394C33.8887 33.6807 33.851 33.509 33.775 33.3603C33.7134 33.8458 33.7525 34.3457 33.7302 34.8348C33.7131 35.2102 33.6682 35.9084 33.6177 36.2597C33.2749 38.6452 32.1348 40.7844 29.4773 41.1185C29.2166 41.1513 28.9425 41.136 28.6798 41.1362L24.4808 41.1358ZM23.5614 9.64309C22.6885 9.67028 21.7214 9.78723 20.9581 10.2487L20.9244 10.2689C20.4794 10.5407 20.0177 11.1504 19.8672 11.6646C20.1276 11.8707 20.5167 11.9911 20.827 12.1097C21.9053 12.5223 23.0442 12.9367 24.221 12.8076L24.6757 12.757C25.8049 12.6139 27.1773 12.2535 28.129 11.6416C29.1643 10.9757 27.1954 10.2851 26.7124 10.1377C25.6859 9.82435 24.6372 9.631 23.5614 9.64309ZM28.5708 12.9011L27.5556 13.3506C26.81 13.6547 25.9758 13.889 25.175 14.004C25.0124 14.0274 24.7844 14.0201 24.6352 14.0757L24.6159 39.772L28.9205 39.7718C30.763 39.7698 32.0065 38.5052 32.1747 36.6704C31.5651 36.5683 30.9566 36.6894 30.3453 36.5616C29.2901 36.3412 28.5125 35.7194 28.0741 34.7497L26.5902 30.9164C26.4995 30.6768 26.3895 30.429 26.335 30.1787C26.2323 29.7073 26.5634 29.2434 27.0589 29.3399L27.0882 29.345C27.2952 29.3848 27.4195 29.5961 27.4924 29.7774L29.1117 33.8204C29.7041 35.3163 30.3541 35.3451 31.796 35.3482C31.9921 35.3487 32.2337 35.3759 32.4224 35.341L32.4276 29.7605C32.4257 28.8552 32.3591 27.9643 32.1831 27.073C32.0677 26.489 31.8954 25.9134 31.8054 25.3243C31.6706 24.4422 31.7439 23.5613 31.7688 22.6759L31.8018 21.3517C31.8288 20.9129 31.8571 20.4322 31.9289 20.0022L32.0147 19.3417C32.1471 18.5172 32.311 17.5653 32.6722 16.8027L29.469 15.6844C29.1544 15.5775 28.8483 15.4862 28.6715 15.1759L28.6544 15.1467C28.486 14.8479 28.6123 13.3343 28.5708 12.9011ZM19.4404 12.9962C19.2746 14.1114 19.8166 15.1108 18.4796 15.6324L15.0409 16.8794C15.0237 16.9331 15.088 17.0545 15.1114 17.108L15.7984 19.3595C15.9405 20.0393 15.9881 20.7538 16.0413 21.4454L16.0952 24.539L15.6117 29.0117C15.5662 29.3503 15.5088 29.6931 15.4902 30.0353C15.4701 30.407 15.5507 30.7658 15.556 31.1361L15.5666 33.4748C15.5702 33.6765 15.6021 33.8734 15.6083 34.0739L15.6142 35.3415C17.9832 35.3637 17.9778 35.2148 18.8687 32.9933L20.1877 29.8623C20.666 28.7781 21.5991 29.4421 21.3143 30.3131L19.6112 34.6587C19.1295 35.9121 18.025 36.577 16.7154 36.6299C16.3773 36.6436 16.0402 36.6131 15.7025 36.6095C15.8355 38.468 17.0844 39.7697 18.9538 39.7718L23.3387 39.7729L23.3426 14.0923C23.1801 14.0397 22.9994 14.0509 22.8303 14.03C21.9913 13.9266 21.1728 13.6469 20.3817 13.362C20.2253 13.3057 19.5275 12.9803 19.4404 12.9962ZM33.8594 17.186C33.4575 18.3009 33.2623 19.8863 33.1644 21.0486L33.0557 23.2602C33.0389 23.7519 32.9669 24.2793 33.0338 24.7697L34.6925 24.1754C35.2568 23.9677 35.9195 23.6641 36.1584 24.4454C36.3742 25.1515 35.4766 25.3006 35.0443 25.4321C34.4683 25.6074 33.8578 25.786 33.3128 26.0428L33.5979 27.3169C33.6489 27.5067 33.6476 27.7463 33.6647 27.9446L33.7503 28.9877C33.7598 29.2272 33.7469 29.5213 33.8164 29.7509L35.6019 29.152C35.8729 29.0562 36.1869 28.8987 36.4691 28.8543C37.1 28.7552 37.3795 29.6177 36.8068 29.8965C36.5292 30.0317 36.204 30.1152 35.91 30.2131L34.2478 30.7892C34.2638 30.8704 34.31 30.9505 34.3424 31.0268L35.1111 33.1876C35.4331 34.0357 35.6232 34.9368 35.9412 35.7872L37.5208 35.2556C37.8927 35.1322 38.4809 34.8093 38.6418 35.4033L38.6862 35.5936C38.5486 36.0463 38.2107 36.0379 37.8098 36.1736C37.273 36.3553 36.7311 36.5698 36.1801 36.701L36.7807 38.7602C37.035 39.5109 37.5097 40.2732 38.3558 40.4094L38.3877 40.4149C39.2855 40.5587 40.1699 39.9662 40.3593 39.0821C40.4324 38.7408 40.387 38.4423 40.3401 38.1012L39.0312 29.672C38.7404 27.7839 38.1572 25.9583 37.5835 24.1398L36.2656 20.1378C35.7485 18.7279 35.1837 17.8701 33.8594 17.186ZM13.7624 17.3098C12.2909 18.2244 11.7774 19.5558 11.2728 21.0912L10.577 23.2965L12.5061 23.9747L14.0394 24.4709C14.2881 24.5516 14.5552 24.6213 14.7926 24.7296L14.7959 22.3791C14.7891 22.2234 14.7582 22.0709 14.7505 21.9158L14.7279 21.0767C14.6397 19.8987 14.3869 18.3429 13.7624 17.3098ZM10.3001 24.3312L9.33111 28.4636C9.42551 28.5839 13.3249 29.4628 13.7638 29.542L14.1657 29.6317C14.242 29.4684 14.2419 29.1834 14.2711 29.0018L14.5238 27.4923C14.6042 26.9375 14.6137 26.3744 14.6779 25.8191L10.3001 24.3312ZM9.10995 29.4461L8.14831 34.6374C9.13901 34.9479 10.1792 35.1447 11.1884 35.3883L11.8043 35.547C11.9234 35.5801 12.0678 35.6376 12.1897 35.6379L12.3482 35.2655C12.9668 33.7096 13.1731 32.0743 13.6564 30.4846L9.10995 29.4461ZM8.00595 35.6204L7.57545 38.6363C7.50767 39.8036 8.57745 40.6382 9.68004 40.4128L9.70601 40.408C10.0938 40.3301 10.4654 39.9919 10.7055 39.6946C11.0105 39.2679 11.8555 37.0481 11.9442 36.5951L9.24617 35.9345C8.84028 35.8355 8.39796 35.7594 8.00595 35.6204Z" fill="black"/>
</svg>
