<svg width="48" height="48" viewBox="0 0 48 48" fill="none" xmlns="http://www.w3.org/2000/svg">
<path d="M35.3493 44.6L31.8928 44.9648C31.4228 45.0409 30.9431 45.0026 30.4689 45.0185L21.1125 45.0801C20.8433 45.0766 20.5816 45.0273 20.3147 45.0238L16.745 44.9234C13.302 44.7047 11.1267 44.3925 8.52909 42.0861C5.0812 39.0248 6.46425 35.1496 7.40016 31.3128L8.03527 28.452C8.51625 25.9723 8.52352 24.3991 8.09784 21.9863C7.94555 21.1228 8.00405 20.2667 8.18283 19.4148C8.63044 17.2816 10.7708 15.7876 10.8713 13.224C10.8986 12.5289 10.6766 11.8188 10.4926 11.1553L9.94805 9.30615L9.0532 6.96193C8.56837 5.66532 9.03417 4.16927 10.4096 3.67334L10.4533 3.65777C10.8095 3.52907 11.1874 3.51018 11.5603 3.46822L15.3957 2.94012C15.9514 2.87821 16.441 3.26895 16.8369 3.59748L17.5783 4.20766C19.4735 5.67019 21.4734 6.18868 23.8123 6.22121C26.4969 6.25852 28.4605 5.87199 30.5558 4.19282L31.3565 3.52474C31.6028 3.31774 31.8607 3.07528 32.1812 2.99379L32.215 2.98566C32.6621 2.87016 33.1785 3.03205 33.6251 3.087L35.8721 3.36175C37.1719 3.53732 38.2745 3.44906 39.0055 4.78988L39.1887 5.19169C39.5887 6.13951 39.0952 6.93643 38.7984 7.81449C37.8752 10.5457 36.9052 12.4644 37.84 15.2928C38.0707 15.9908 38.4202 16.6772 38.8014 17.3046L39.3106 18.0889C40.2571 19.7089 40.505 21.7062 39.9762 23.5036C39.8391 23.9698 39.6753 24.4161 39.5629 24.8909C39.2183 26.3473 39.4248 27.6396 39.7043 29.0745C39.7589 29.3549 39.7786 29.6525 39.844 29.93L41.1564 36.6097C41.3594 37.7 41.405 38.547 41.1708 39.6615L41.0814 39.9669C40.4224 42.3945 37.6803 44.1354 35.3493 44.6ZM32.7503 4.69233C32.6903 5.37812 32.6259 6.0428 32.4963 6.7208C31.8104 10.3087 28.7955 14.9128 24.8356 15.3369L24.8159 42.5387C24.8155 42.8172 24.7816 43.1285 24.8212 43.4016L27.1464 43.4044C27.9984 43.4032 28.776 43.3245 29.613 43.3207L31.0474 43.3171C31.9308 43.3134 33.259 43.2172 34.1005 43.0833C34.5008 43.0293 34.9231 42.9985 35.3151 42.9031C37.7192 42.3181 40.0063 40.3091 39.6535 37.6409C39.549 36.8506 39.3641 36.0794 39.2171 35.2972L38.1511 29.637C38.0871 29.2367 37.9746 28.8499 37.8986 28.4534C37.5217 26.4863 37.8769 24.8395 38.4142 22.9585C38.7108 21.92 38.658 20.5803 38.215 19.5756C37.9705 19.021 37.5999 18.5378 37.2974 18.0162C34.9283 13.9314 35.8003 11.2942 37.2453 7.24838L37.4573 6.69708C37.5816 6.41583 37.743 6.17813 37.6908 5.85966L37.6858 5.82755C37.6501 5.61924 37.5067 5.43605 37.3451 5.30888L37.3243 5.29215C37.0406 5.07554 36.4769 5.12724 36.1408 5.08533L32.7503 4.69233ZM15.1291 4.84271L11.4553 5.19535C10.979 5.25526 10.5045 5.28746 10.4025 5.8831L10.3958 5.91591C10.3689 6.05785 10.3925 6.17635 10.454 6.30498L12.0352 11.0641C12.8484 13.5718 12.1332 15.3804 10.8274 17.5868C10.0377 18.9213 9.28167 19.8022 9.59184 21.5617L9.78412 22.4776C9.82387 22.6254 9.83358 22.7856 9.85261 22.9374L9.94359 23.9411C10.0557 26.0381 9.8872 27.1562 9.4778 29.196L8.17008 34.8199C7.94433 35.7422 7.73625 37.0153 7.91798 37.9328L7.97536 38.3199C8.46567 40.9234 11.6082 42.5602 13.9972 43.0246L23.172 43.5103L23.1843 15.2958C19.0227 14.7042 15.8048 10.1464 15.3654 6.14429C15.3241 5.76802 15.2676 5.39729 15.3229 5.01783L15.3548 4.84013C15.2863 4.81698 15.2013 4.83573 15.1291 4.84271ZM16.8856 5.75316L17.2414 7.3831C17.2638 7.49119 17.3204 7.60393 17.3536 7.71146L17.6108 8.39344C18.672 11.3699 22.2973 14.6618 25.6291 13.4053C27.0985 12.8512 28.6861 11.4349 29.4825 10.051C30.2883 8.85418 30.8411 7.31494 31.059 5.89032L31.0451 5.90396C30.7727 6.16294 30.3805 6.38208 30.0547 6.57263C26.8671 8.43755 21.381 8.40221 18.1435 6.58402C17.7046 6.33751 17.303 6.03268 16.8856 5.75316Z" fill="black"/>
<path d="M33.4188 11.3072C32.8602 11.3575 32.3849 10.8406 32.5037 10.2799C32.5943 9.85241 32.7887 9.41792 32.927 9.00102L33.363 7.67891C33.5701 7.0317 33.6185 6.29975 34.3826 6.12017C34.9887 6.11356 35.4657 6.6995 35.2639 7.30105L34.242 10.388C34.0884 10.8986 34.0192 11.1993 33.4188 11.3072Z" fill="black"/>
<path d="M14.7533 11.3217C13.9904 11.3321 13.8929 10.6493 13.6983 10.0717L13.3975 9.1236C13.1979 8.47227 13.0319 7.77187 13.9195 7.6228C14.1719 7.59993 14.4714 7.72457 14.6044 7.94174L14.6206 7.96893C14.6644 8.04069 14.6889 8.11382 14.7191 8.19159L14.8275 8.5371C14.8676 8.6556 14.887 8.78521 14.9375 8.89884L15.137 9.45426C15.2774 9.80577 15.5661 10.483 15.4094 10.8215L15.3424 10.9529C15.2089 11.1649 14.9902 11.2733 14.7533 11.3217Z" fill="black"/>
<path d="M11.3604 38.436C10.6215 38.4733 10.1525 37.9316 10.452 37.2386C10.6189 36.8521 10.8345 36.4768 11.0229 36.0994L13.4346 31.3564C13.6742 30.8967 13.7488 30.5789 14.2645 30.379C14.6778 30.3663 15.0281 30.463 15.1773 30.9004L15.1885 30.9378C15.333 31.3066 15.1712 31.5842 15.007 31.9146L12.2582 37.3282C12.0116 37.8186 11.944 38.2681 11.3604 38.436Z" fill="black"/>
<path d="M36.9137 38.5914C36.0707 38.6402 35.8032 37.5888 35.4909 36.9836L33.266 32.589C32.8832 31.8451 32.3395 30.9794 33.5069 30.5886C34.2978 30.5608 34.4769 31.335 34.7707 31.9049L37.517 37.3598C37.556 37.4413 37.5861 37.5173 37.597 37.6074L37.6007 37.6401C37.6642 38.1307 37.3795 38.4634 36.9137 38.5914Z" fill="black"/>
</svg>
