<svg width="48" height="48" viewBox="0 0 48 48" fill="none" xmlns="http://www.w3.org/2000/svg">
<path d="M20.285 41.3196L16.3999 41.225C15.3562 41.1179 14.3444 40.7603 13.3521 40.4415C11.5604 39.8661 11.6463 39.4807 11.6467 37.8513L11.6467 23.6044C11.6466 23.041 11.6731 22.4629 11.6086 21.9025C11.4242 20.2996 10.4398 17.5821 8.86345 16.8207C8.67023 16.7273 8.4607 16.6821 8.26312 16.6022C6.96895 16.0788 7.08553 14.413 7.60471 13.3386C7.92703 12.6716 8.34553 12.0796 8.90723 11.5917C10.9972 9.77624 14.9957 8.60484 17.8164 8.28955C17.8967 8.28055 18.1102 8.32199 18.1297 8.23518C18.3313 7.33387 18.9742 7.06054 19.8004 6.85002C21.2606 6.47793 21.5994 6.76954 22.9708 6.83919L25.0286 6.84491C25.4925 6.84459 25.9774 6.87515 26.4376 6.82898C26.8439 6.78819 27.2389 6.67091 27.645 6.61865C27.9826 6.57819 28.4024 6.71273 28.7108 6.84257L28.7921 6.87669C29.304 7.10493 29.6835 7.54757 29.9066 8.05091L29.9886 8.25388C30.1901 8.32265 30.4671 8.33648 30.6794 8.35635L31.5007 8.46787C33.7472 8.88219 37.7675 10.2021 39.4469 11.9267C40.6501 13.1623 41.7503 15.7851 39.6065 16.6578C39.4816 16.7087 39.3446 16.7341 39.2225 16.7901C37.9447 17.3761 37.0043 19.3056 36.6569 20.6603C36.4772 21.3607 36.4672 21.9961 36.4687 22.7127L36.4657 38.4433C36.4629 38.8843 36.4469 39.1141 36.205 39.5027L36.182 39.5392C35.7832 40.1801 35.1167 40.257 34.4437 40.4539C33.3551 40.7723 32.2605 41.0848 31.131 41.2229C29.7529 41.3914 28.3289 41.3206 26.9426 41.3208L20.285 41.3196ZM21.2102 7.93321C20.7794 7.96316 19.4174 8.06193 19.3115 8.61341L19.326 8.63798C19.8309 9.50615 21.6683 10.0608 22.6738 10.1245C22.8835 10.1377 23.1661 10.0958 23.3624 10.15C23.7168 10.2477 23.8395 10.6979 23.6867 11.0067C23.4845 11.4153 22.9358 11.35 22.5623 11.337C21.3924 11.2962 20.4367 10.9551 19.4237 10.3738C19.0029 10.1324 19.0785 10.409 18.9756 10.8814C18.9196 11.1384 19.0641 11.4698 19.2021 11.6829C19.9388 12.8204 21.7034 13.0087 22.9406 13.0089L24.6151 13.0074C25.3757 13.0094 26.2202 13.0786 26.9647 12.9195C28.2968 12.635 29.3069 11.6774 28.9923 10.2642L28.9756 10.2799C28.6142 10.6123 28.0464 10.9885 27.5858 11.1599L27.554 11.1721C26.9467 11.3936 26.4955 10.7706 26.775 10.2375C26.9714 9.86301 28.3456 9.48299 28.8048 8.60319C28.3354 7.53426 27.3271 8.08869 26.3741 8.1059L24.1606 8.11241C23.6807 8.1133 23.1869 8.13454 22.7083 8.10566L21.8207 8.02152C21.6178 7.99387 21.4143 7.94877 21.2102 7.93321ZM30.1221 9.55091C30.1426 9.78191 30.2562 9.99768 30.2969 10.2299C30.686 12.4447 28.7918 14.0356 26.7345 14.3136C26.5284 14.3415 26.3015 14.3244 26.0934 14.3244L24.8862 14.3015C24.8574 14.2995 24.8684 14.2985 24.8419 14.309L24.8348 39.9914C25.1675 40.0147 25.5042 39.9998 25.8377 39.9995L30.1073 39.9876C31.3227 39.9576 32.0507 39.7981 33.2459 39.4706L35.1349 38.8907C35.169 38.879 35.1569 38.8851 35.1836 38.8579L35.1941 37.8453C35.1937 37.7704 35.2127 37.5975 35.1771 37.5431L34.3066 37.5988C33.4807 37.6488 32.9791 37.7783 32.2877 37.161C30.991 36.0032 30.4539 34.2111 30.654 32.5135C30.9195 30.2596 32.7201 28.4328 34.7159 27.5234C35.1941 27.3055 35.2013 27.5283 35.2006 26.9989L35.1985 23.2274C35.1987 22.4646 35.1821 21.7165 35.289 20.9583C35.5592 19.0439 37.0361 16.2758 38.8241 15.5639C39.2022 15.4133 39.5794 15.3162 39.5637 14.8146C39.4703 11.841 33.4529 10.1451 31.2254 9.71812C30.8681 9.64963 30.4851 9.56816 30.1221 9.55091ZM17.6474 9.59521C14.984 9.97312 9.06337 11.4983 8.50551 14.6369L8.49834 14.6758C8.38978 15.3054 8.69137 15.3996 9.20348 15.564C10.4578 15.9666 11.5925 17.8218 12.1112 18.9155C12.3262 19.3688 12.4571 19.8671 12.5988 20.3459L12.6918 20.7457C12.9599 21.677 12.9177 23.2167 12.9177 24.1922L12.9168 27.1077C13.0642 27.164 13.229 27.1683 13.3837 27.2025C15.1253 27.5871 16.8924 29.0052 17.4638 30.7384L17.7846 32.0158C18.0835 34.1747 16.7554 37.0453 14.5077 37.643L14.4763 37.6516C14.1743 37.7275 13.7782 37.6003 13.4729 37.5637L12.9401 37.4705L12.9173 38.4824C12.918 39.1124 12.9529 38.9262 13.6217 39.1551C14.2587 39.3733 14.9075 39.5903 15.5624 39.7484L16.4934 39.936C16.6537 39.972 16.8462 39.9672 17.0105 39.9772L23.5441 39.9999L23.5547 14.3293C23.0692 14.324 22.5502 14.3592 22.068 14.3126C20.2801 14.1398 17.6301 13.0254 17.6716 10.908C17.6809 10.4351 17.8476 10.019 17.9872 9.57548C17.8799 9.58082 17.7512 9.57294 17.6474 9.59521ZM12.9414 28.3946L12.9288 36.1999C13.1688 36.2773 14.1531 36.4181 14.4022 36.3274L14.4384 36.3148C14.87 36.1559 15.2864 35.7234 15.5822 35.3834C17.6349 32.7193 16.1954 29.0065 12.9414 28.3946ZM35.1616 28.7931C32.3928 30.0314 30.8204 32.9876 32.6851 35.6843C33.1943 36.432 33.2119 36.3432 33.9267 36.3033L34.8047 36.2794C34.9217 36.2764 35.0837 36.2913 35.1912 36.2537L35.1616 28.7931Z" fill="black"/>
</svg>
