<svg width="48" height="48" viewBox="0 0 48 48" fill="none" xmlns="http://www.w3.org/2000/svg">
<path d="M27.5272 37.1001L18.3955 37.1005C18.0179 37.1003 17.6125 37.1306 17.2387 37.073C15.4234 36.7933 13.8643 35.5459 13.6766 33.6252C13.6267 33.1152 13.6656 32.5711 13.6657 32.057L13.6671 29.6151C13.6677 29.2094 13.7028 28.768 13.6371 28.3675C13.2632 29.1066 12.7935 29.7812 12.3616 30.4856C11.994 31.0852 11.6604 31.7325 11.225 32.2856C10.3583 33.3865 8.85477 34.2156 7.4384 34.0103C7.12865 33.9654 6.91495 33.7903 6.65484 33.6323L6.03206 33.2915C5.32766 32.9217 4.36839 32.6538 3.88024 31.9834L3.85527 31.9482C2.92076 30.6485 3.57919 29.4584 4.14609 28.2183L9.25392 17.1066C9.68001 16.1585 10.0607 15.1728 10.5511 14.2555C11.4465 12.5805 13.3327 11.4092 15.2254 11.2712C15.9196 11.2207 16.6172 11.2694 17.3117 11.2336C17.6417 9.61263 19.4464 8.7198 20.9676 8.61133L26.9582 8.62384C28.5027 8.62492 29.891 9.13581 30.5674 10.6701C30.7587 11.1041 30.4603 11.2403 31.0493 11.2446C31.6093 11.2488 32.1868 11.2187 32.7442 11.2602C34.7154 11.4068 36.5115 12.5916 37.4767 14.3109C37.6729 14.6602 37.8284 15.0266 38.0003 15.3874L44.4557 29.5777C44.5433 29.8034 44.5905 30.0766 44.5978 30.3168C44.644 31.8505 43.9474 32.3232 42.7615 32.9332L41.6694 33.5143C39.9749 34.4208 39.6363 34.2898 38.2366 33.1667C36.7242 31.9532 35.9694 31.0071 35.047 29.2915L34.6827 28.5717C34.5674 28.3495 34.4502 28.1373 34.3592 27.903L34.3828 32.8307C34.3823 33.0561 34.3895 33.2892 34.3533 33.5122L34.2177 34.1784C33.8997 35.8067 32.2162 36.9366 30.6491 37.0829C30.2417 37.121 29.8216 37.1001 29.4124 37.1004L27.5272 37.1001ZM21.2397 9.84302L20.9567 9.85248C20.2597 9.94712 19.2352 10.3578 18.8189 10.9433C18.3007 11.6724 18.5059 12.6678 19.2469 13.1604C19.6792 13.4477 20.123 13.5279 20.6198 13.6371L23.1224 14.0355C23.5468 14.0947 24.2293 14.0416 24.6758 14.0047C25.2553 13.9568 25.8662 13.8644 26.4322 13.733C27.4011 13.59 28.4879 13.4516 29.116 12.6113C30.0794 11.3226 28.9105 10.0866 27.5534 9.85895C27.3382 9.82286 27.0938 9.84245 26.8755 9.8425L21.2397 9.84302ZM30.6392 12.4705C29.8199 14.3536 28.7628 14.5781 26.9981 14.9211C26.218 15.0727 25.4479 15.2441 24.6502 15.269C24.5905 15.7533 24.6283 16.2772 24.6283 16.7656L24.6275 21.3037C24.6276 21.5364 24.5959 21.8225 24.6403 22.0468L31.3299 22.044L33.0835 22.0357C33.1273 20.7386 32.9607 19.8671 34.0428 18.8471C34.5525 18.3666 35.141 18.1641 35.7679 17.8935L37.4045 17.1879C36.6679 15.1511 35.6585 13.1881 33.3818 12.6391L32.7496 12.513C32.2264 12.3891 31.2389 12.5207 30.6392 12.4705ZM16.3691 12.478C12.774 12.4995 11.8968 14.1006 10.5907 17.2278L12.2594 17.8928C13.2906 18.3001 14.2301 18.7396 14.6657 19.8685L14.677 19.8981C14.7439 20.0709 14.7824 20.2637 14.8516 20.4298C15.0696 20.9531 14.849 21.5174 14.9325 22.046L17.6365 22.044L23.3584 22.0437L23.3629 16.0417C23.3628 15.8029 23.3828 15.5445 23.3546 15.3078C21.2271 15.013 18.1174 15.0831 17.3271 12.5384C17.3156 12.5017 17.3194 12.5146 17.2902 12.4757L16.3691 12.478ZM37.8585 18.3395L36.4553 18.9708C35.6014 19.339 34.7889 19.5877 34.4386 20.5424C34.2675 21.0086 34.3762 21.6056 34.3763 22.091L34.374 24.0394C34.3733 24.3755 34.3029 24.808 34.3989 25.1248L34.4093 25.1635C34.4691 25.3511 34.5865 25.5565 34.6758 25.733L36.0286 28.4486C36.401 29.2441 36.8906 30.0905 37.4573 30.7558C37.9666 31.3537 39.1441 32.4864 39.8817 32.8014C40.1355 32.8699 40.3349 32.8188 40.5584 32.6931L41.4916 32.1582C43.4136 31.1799 43.7879 31.1639 42.8644 29.0858L37.9327 18.3395C37.8801 18.3299 37.9048 18.3287 37.8585 18.3395ZM10.0868 18.3375L5.2979 28.7546C4.17796 31.1529 4.42651 31.0383 6.37481 32.0408C7.08285 32.4051 7.50131 32.8767 8.29223 32.7352C9.31499 32.5105 10.0549 31.7781 10.602 30.9254L13.6349 26.0446C13.7575 25.8576 13.6769 25.4868 13.674 25.2733L13.6676 21.9936C13.6671 21.6199 13.7025 21.2117 13.6351 20.8444L13.6299 20.8144C13.453 19.834 12.7919 19.4524 11.9487 19.132L11.0582 18.7803C10.7259 18.6486 10.4102 18.4885 10.0868 18.3375ZM14.9355 23.0512L14.9523 26.5069L23.3434 26.5085C23.4035 25.705 23.3644 24.8749 23.364 24.0685L23.3636 23.3868C23.3636 23.2808 23.376 23.16 23.353 23.0566L14.9355 23.0512ZM24.6404 23.0515L24.6347 26.5101L33.1002 26.5035L33.1016 24.2401C33.1008 23.8598 33.1409 23.4242 33.0738 23.0504L24.6404 23.0515ZM15.2909 27.5151L14.9324 27.5358L14.9338 30.6477C14.9322 30.7476 14.9151 30.8664 14.9359 30.9625L22.9006 30.9668C23.0504 30.9778 23.206 30.9902 23.355 30.975L23.3629 27.847C23.3628 27.7436 23.3776 27.6164 23.3533 27.516L15.2909 27.5151ZM24.6388 27.5151L24.6355 30.9696L33.0523 30.9723L33.0974 27.5143L24.6388 27.5151ZM14.9333 31.9754C14.901 32.3546 14.9111 33.0246 14.9315 33.4098C14.992 34.556 16.1324 35.7493 17.2967 35.8104L22.889 35.813C23.0061 35.8129 23.2488 35.8423 23.349 35.7965L23.3639 33.3256C23.3637 32.8915 23.4059 32.4054 23.3477 31.9788L14.9333 31.9754ZM24.6396 31.9686L24.6233 35.569C24.6196 35.6429 24.5947 35.7466 24.6363 35.8111L30.1077 35.8132C30.9155 35.8123 31.659 35.6674 32.2633 35.0631L32.2951 35.0305C32.9544 34.3024 33.1579 33.545 33.1059 32.575L33.0691 31.9696L24.6396 31.9686Z" fill="black"/>
</svg>
