<svg width="48" height="48" viewBox="0 0 48 48" fill="none" xmlns="http://www.w3.org/2000/svg">
<path d="M19.6767 36.1999C19.5876 36.1688 19.4365 36.1765 19.3385 36.1658L16.9109 35.7733L12.8371 34.8397C12.4322 34.7383 12.4055 34.7189 12.0067 34.862L11.2798 35.1225C9.71563 35.6597 7.24541 36.5433 5.64398 35.8867C4.69063 35.4959 3.92997 34.3577 4.18134 33.3079C4.3304 32.6854 5.00507 32.355 5.47818 32.0011L9.75074 29.0016C9.95062 28.8543 10.1492 28.6721 10.3591 28.5441L10.5156 28.4458L10.6201 21.8782C11.3224 15.531 16.2592 12.7729 22.0612 12.2721C22.2642 12.2546 22.461 12.2097 22.6649 12.1999L23.7149 12.1903C24.1625 12.1892 24.6486 12.1516 25.0919 12.2023C25.1323 12.207 25.6773 11.9409 25.7819 11.906C26.2499 11.7498 26.7243 11.6656 27.2164 11.6355C27.8513 11.6061 29.296 11.6981 29.5593 12.447C29.585 12.52 29.7796 12.4914 29.8527 12.4967L30.5443 12.5706C34.5686 12.9193 39.0088 14.4552 41.6436 17.628C42.4583 18.6091 43.1987 19.8187 43.57 21.0356L43.7088 21.5093C43.8119 21.863 43.8336 22.3019 43.8485 22.6693L43.8531 31.3114C43.8525 31.9874 43.9685 33.6376 42.894 33.6541C42.5194 33.6599 42.127 33.5422 41.7466 33.5219C38.6741 33.3577 35.5958 34.0862 32.6251 34.7812L27.2697 35.9181C24.8291 36.3331 22.1477 36.5325 19.6767 36.1999ZM23.3919 13.6266C18.6434 13.6842 13.6026 15.4085 12.2904 20.453C12.1207 21.1055 12.0357 21.7763 11.9726 22.4463L11.9085 23.067C11.8746 23.6533 11.9016 24.2559 11.9011 24.8436L11.8959 27.3615L22.6698 28.601L33.77 28.8972L33.7544 24.7071C33.547 20.9148 32.199 17.5093 29.0124 15.3306C28.2853 14.8334 27.4987 14.4242 26.7143 14.0272L26.2078 13.7742C25.7699 13.5452 25.6394 13.622 25.1457 13.6223L23.3919 13.6266ZM29.2757 13.8403C31.3191 15.1423 32.9393 16.9106 33.9269 19.134C34.1253 19.5806 34.2528 20.0457 34.4257 20.4997L34.5348 20.8845C34.8976 21.9808 35.0963 23.6302 35.1418 24.827L35.1536 28.8091L36.9928 28.6824C37.1368 28.6723 37.2768 28.6399 37.4219 28.6322L40.896 28.6326C41.3748 28.656 41.8594 28.7226 42.3334 28.7888L42.4672 28.8195C42.5134 28.7272 42.4871 28.5131 42.4873 28.4075L42.4883 22.9198C42.4968 21.0248 41.2695 19.2159 40.0031 17.9049C37.5921 15.4092 34.2566 14.5542 30.9321 14.0265L29.6743 13.8708C29.5581 13.8592 29.3901 13.8219 29.2757 13.8403ZM12.1467 28.817C11.8057 29.1828 11.1524 29.7962 10.6986 30.0344C11.3668 30.0072 12.0326 30.0382 12.6994 30.0705L13.7697 30.1244L16.9244 30.5981L18.34 30.938C20.9462 31.5324 23.5558 31.7295 26.1681 31.1007L26.8308 30.9304L28.8402 30.3279L12.1467 28.817ZM38.8043 30.0301L35.1554 30.2162L35.1533 31.6431C35.1538 32.1783 35.1413 32.3361 34.9871 32.8459L38.2916 32.2529L39.9142 32.0961C40.5026 32.0574 41.8896 32.0464 42.4788 32.1974L42.4718 30.2045L38.8043 30.0301ZM33.3842 30.3604C32.9627 30.4081 32.5613 30.5671 32.1668 30.7162L28.0377 32.0947C27.1634 32.357 26.2379 32.5585 25.3381 32.7113C24.8215 32.799 24.2721 32.8896 23.7477 32.8972L22.9169 32.9019C22.2719 32.9017 21.6589 32.8957 21.0187 32.8279L18.9376 32.505C17.6359 32.2424 16.3522 31.8757 15.0353 31.6879C13.9128 31.5278 12.7889 31.4776 11.6569 31.4782L8.73112 31.6478C8.64529 31.6529 8.39043 31.64 8.32541 31.691L7.34484 32.3529L8.74157 32.5261L20.4931 34.8782C20.628 34.91 20.7817 34.9063 20.9198 34.9115L21.5981 34.9356C22.448 34.9633 23.3341 34.9675 24.1823 34.9083L25.7931 34.7204C27.3324 34.5156 28.8497 34.212 30.3634 33.8668L31.9689 33.4917C33.3906 33.1559 33.7683 33.1874 33.772 31.491L33.7725 30.3584L33.3842 30.3604ZM6.34429 33.827L5.54535 33.8835L5.5911 34.0055C5.93643 34.9886 7.41904 34.7394 8.17316 34.5542L8.7373 34.4345L9.82012 34.1281C9.06768 34.0769 8.33048 33.873 7.57115 33.8338L6.34429 33.827Z" fill="black"/>
<path d="M18.6674 27.2781C18.3084 27.2819 17.9702 27.4937 17.6095 27.3559C17.3621 27.2614 17.303 27.088 17.115 26.946C16.895 26.7798 16.6405 26.6537 16.4231 26.482C12.5293 23.4071 14.1439 17.3333 18.9017 16.542C19.4849 16.445 19.3386 16.4348 19.8128 16.2214C20.3304 16.1853 20.4817 16.3681 20.9277 16.5716C23.2596 17.6361 24.612 19.6845 24.325 22.276C23.9892 25.3077 21.5774 27.1496 18.6674 27.2781ZM19.0788 17.9366C15.9551 18.51 14.5342 22.1266 16.5462 24.6634L17.3382 25.4344L19.0859 18.5347C19.1554 18.2546 19.3698 17.9016 19.0788 17.9366ZM20.6688 17.9789L18.6393 25.8779C19.2977 25.8705 19.944 25.7639 20.5392 25.47C23.2 24.2697 23.8969 20.3226 21.4754 18.4977C21.2206 18.3057 20.9401 18.1463 20.6688 17.9789Z" fill="black"/>
<path d="M37.2325 28.0736C36.2775 28.2821 36.3536 27.1006 36.3489 26.5663L36.3353 25.288C36.3271 24.9244 36.2587 24.5617 36.2247 24.1991C36.0431 22.2596 35.7656 20.3464 34.9789 18.5451C34.7077 17.9242 33.9804 17.096 35.0007 16.6899C35.7736 16.6665 36.0664 17.5586 36.3026 18.1523C36.604 18.9098 36.7678 19.4789 36.9731 20.2444L37.3592 22.1249L37.5341 23.7538C37.5759 23.9657 37.5687 24.1718 37.5755 24.3866L37.6046 25.1835C37.6151 25.3952 37.6583 25.6037 37.6688 25.8156L37.6934 26.837C37.7201 27.3679 37.8346 27.842 37.2325 28.0736Z" fill="black"/>
<path d="M41.1948 27.4542C40.8467 27.4991 40.5688 27.3672 40.4096 27.046L40.3741 26.9735C40.2809 26.7428 40.333 26.3279 40.3329 26.0756L40.3231 24.344C40.3081 23.9629 40.2567 23.56 40.1844 23.1855L40.1061 22.764C39.9601 22.1444 39.7582 21.6042 40.4863 21.306C40.7855 21.2896 41.0228 21.4314 41.1626 21.7025L41.2639 21.9053C41.5117 22.5682 41.5925 23.3482 41.6376 24.0515L41.6963 26.1576C41.6955 26.3858 41.7567 26.9044 41.6276 27.1043L41.6044 27.1367C41.4906 27.298 41.3795 27.3847 41.1948 27.4542Z" fill="black"/>
</svg>
