<svg width="48" height="48" viewBox="0 0 48 48" fill="none" xmlns="http://www.w3.org/2000/svg">
<path d="M11.2846 44.3928C10.5939 43.5287 9.65226 42.9599 8.55061 42.8194C7.24992 42.6535 8.13426 41.1402 8.41856 40.4847L15.2419 25.5985C15.9157 24.0182 16.241 23.433 16.2414 21.7316C16.2418 20.2387 16.0599 18.696 15.3207 17.3712C15.0022 16.8004 14.5622 16.3208 14.177 15.7968C13.1911 14.4555 12.6578 12.7466 12.9579 11.0859C13.0081 10.8084 13.1135 10.5096 13.1189 10.2304L13.1196 3.97659C13.1201 3.01544 13.2738 2.45149 14.1803 1.86234C15.7534 0.839989 17.6924 1.985 17.6964 3.87934L17.6992 6.77225L18.5451 6.79587C20.8985 7.03095 22.5601 8.21909 24.0069 9.98248L24.4407 9.45514C25.7308 7.98106 27.4617 7.01093 29.4159 6.78584C29.7018 6.75293 29.9988 6.77726 30.2872 6.75823L30.2986 4.32128C30.2989 4.00249 30.2576 3.6247 30.3203 3.31639C30.5219 2.32512 31.4007 1.58247 32.4072 1.51014C33.5237 1.4189 34.7119 2.28533 34.8675 3.41941C34.8902 3.58533 34.8764 3.76757 34.8765 3.9354L34.8772 9.45621C34.8773 9.902 34.866 10.3689 34.9867 10.8026C35.484 12.5876 34.7618 14.5938 33.6586 15.9966C32.8173 17.0665 32.2419 17.8719 31.9632 19.2652C31.7132 20.5148 31.5748 22.4902 31.9824 23.6284L33.2941 26.8249L40.2413 41.8495C40.4294 42.1984 40.2084 42.6082 39.8765 42.7677L39.8489 42.7804C39.6546 42.8727 39.3766 42.8227 39.1612 42.876C38.1659 43.1221 37.343 43.5939 36.7065 44.412C35.8569 45.5039 35.6692 46.1961 33.9938 46.4566C33.2321 46.575 32.5148 46.143 31.7945 45.9647C30.9048 45.7445 29.7661 45.6298 28.8681 45.8662C28.0402 46.0841 27.565 46.4713 26.6126 46.4583C26.1103 46.4514 25.6494 46.2506 25.1695 46.1333C23.6308 45.7571 22.5501 46.5561 21.1547 46.4728C20.5544 46.437 20.0476 46.1587 19.4933 45.9695C18.4246 45.6046 17.0471 45.74 15.9642 46.0417C15.483 46.1757 15.0359 46.4058 14.5331 46.4559L14.4962 46.4593C13.5173 46.5653 12.4144 45.9742 11.8406 45.2152C11.6412 44.9515 11.4782 44.6612 11.2846 44.3928ZM15.3166 2.89011C14.5 3.01307 14.4517 3.49362 14.4501 4.20211L14.4487 7.08579C14.4487 7.45193 14.4382 7.8215 14.4669 8.18656L15.0606 7.71856C15.3178 7.55384 15.5755 7.37787 15.8536 7.25004C16.0227 7.17237 16.2263 7.13051 16.3805 7.03831L16.3779 4.81329C16.3764 3.94943 16.5674 2.88774 15.3166 2.89011ZM32.4571 2.89036C31.3994 3.0534 31.6099 4.08664 31.6098 4.88126L31.6093 7.03582C31.7423 7.13993 31.9687 7.17621 32.1284 7.24531C32.4905 7.40187 32.8575 7.62621 33.157 7.88337C33.298 7.98987 33.4272 8.09745 33.5517 8.22298L33.5466 4.14647C33.5459 3.42957 33.3014 2.84309 32.4733 2.8887L32.4571 2.89036ZM17.7552 8.16546L17.1357 8.26615C15.771 8.56779 14.5642 9.79456 14.3046 11.1797L14.2584 11.4244C14.0592 12.508 14.5205 13.9009 15.1304 14.7798C15.4948 15.3049 15.9419 15.7622 16.2807 16.3063C16.8854 17.2775 17.2432 18.3918 17.4216 19.5171L30.5674 19.5226C30.676 18.5824 31.0101 17.7211 31.3967 16.8664C31.8973 15.9398 32.4289 15.4323 32.9658 14.6157C34.2577 12.651 34.0249 9.80914 31.8423 8.6307L31.4298 8.43687C28.8494 7.44462 26.4021 9.0716 24.8952 11.0781C24.1738 12.0387 23.9709 12.4722 23.1984 11.2501L22.8372 10.7265C21.6461 9.16451 19.7773 8.02039 17.7552 8.16546ZM17.5576 20.9829C17.551 21.4968 17.6087 22.0012 17.5594 22.5121L30.4456 22.5169L30.4194 20.9888L17.5576 20.9829ZM30.4984 23.9877L17.3554 23.9941C17.2379 24.1573 17.1829 24.4636 17.1007 24.6598L15.8418 27.6102L10.7773 38.5458L11.8589 38.7731C12.4036 38.912 12.9825 39.1517 13.4795 39.416C15.0052 40.2278 15.5056 41.2787 17.4962 41.2684C18.0977 41.2653 18.2448 41.1766 18.7741 40.8718C20.3373 40.0883 21.1429 40.503 22.5569 41.0174C25.3701 42.0409 26.5577 39.4965 29.2194 40.8867C29.9982 41.2935 30.303 41.4361 31.268 41.2247C32.5567 40.9423 33.0903 40.3074 34.156 39.6397C34.8579 39.2 36.3832 38.5475 37.2497 38.5511L32.4151 28.1953L30.6955 24.0762C30.6547 23.963 30.6124 23.9799 30.4984 23.9877ZM37.8274 39.8555C36.5845 40.0096 35.5334 40.359 34.4884 41.0637L33.7062 41.6397C32.616 42.4008 31.3648 42.7448 30.0391 42.6223C29.8882 42.6083 29.704 42.5271 29.5586 42.5419L29.5555 44.3161C29.5534 44.349 29.5538 44.3374 29.5618 44.3745L30.3572 44.384C30.5119 44.3865 30.7043 44.3742 30.8491 44.4315C31.3276 44.4643 31.8169 44.5495 32.2799 44.6758C33.1709 44.9191 33.992 45.4063 34.84 44.6476C35.1645 44.3572 35.36 43.9539 35.6111 43.6034C36.3802 42.5299 37.4356 41.9644 38.6551 41.5702L38.2134 40.6402C38.109 40.3922 38.0344 40.0734 37.8836 39.8539L37.8274 39.8555ZM10.168 39.8648L9.40856 41.5813C11.182 42.1843 11.9324 42.835 12.9 44.3356C13.5735 45.3804 14.6165 45.0273 15.5275 44.7429C16.032 44.5853 16.6004 44.4688 17.1271 44.4405L18.4083 44.3895L18.4226 42.5817C17.0378 42.7461 15.447 42.5437 14.3198 41.6601C13.3586 40.9067 12.4409 40.2917 11.214 40.0288C10.8663 39.9543 10.5147 39.9303 10.168 39.8648ZM27.4301 41.8219C26.8758 41.865 26.4886 42.0812 25.9777 42.2695C24.847 42.6862 23.5408 42.7177 22.3807 42.3957C21.6267 42.1863 20.9496 41.6645 20.1276 41.8737L20.0893 41.8828C19.6138 42.0039 19.6822 44.0401 19.7658 44.5501C19.8747 44.6823 20.207 44.7935 20.3701 44.862C21.3589 45.2328 21.6712 45.0574 22.6825 44.8501C23.6534 44.6511 24.6577 44.6374 25.6311 44.8344C26.6228 45.035 27.2094 45.3208 28.187 44.5616C28.2882 44.1008 28.2821 42.115 28.005 41.9362C27.8463 41.8338 27.615 41.8153 27.4301 41.8219Z" fill="black"/>
</svg>
