<svg width="48" height="48" viewBox="0 0 48 48" fill="none" xmlns="http://www.w3.org/2000/svg">
<path d="M15.6331 39.8259C15.4358 39.8507 15.2447 39.9085 15.0487 39.9418C13.4328 40.2159 11.8359 39.4982 10.9852 38.079C10.579 37.4014 10.6955 37.3606 10.1229 36.7291C9.47683 36.0165 9.43858 35.1703 9.44411 34.2715C9.46004 31.6848 10.871 29.1173 12.6661 27.3208L13.5818 26.4338C14.9334 25.17 15.3987 24.1624 15.5062 22.2492C14.4652 22.0388 13.2179 21.4439 12.67 20.4707C12.4343 20.0519 12.5391 19.8016 12.0239 19.5412C11.6137 19.334 11.2859 19.4358 10.8573 19.4595C8.76718 19.575 7.06829 17.3233 8.30233 15.4402C8.68122 14.862 9.29795 14.4413 9.79881 13.971C11.0905 12.7581 12.2229 11.2539 12.8797 9.59902C12.9656 9.38255 12.9116 9.37533 12.8665 9.14883C12.5372 7.49259 13.0275 7.20253 14.2839 6.58289L16.9685 5.25445C17.6105 4.93195 18.5207 4.36457 18.9223 5.42002L18.9374 5.46089C18.9781 5.56097 19.001 5.66138 19.0187 5.76797L19.1145 6.19992C19.778 9.13303 22.5788 11.482 25.5818 10.3097C27.3028 9.63788 28.3078 8.1143 28.8142 6.41498L28.9832 5.79834C29.1137 5.26945 29.2915 4.84598 29.9073 4.78711C30.4261 4.81317 30.8838 5.16267 31.3358 5.39152L34.1667 6.77564C34.8763 7.10316 34.928 7.18861 35.1655 7.87697C35.421 8.61713 34.8985 8.92584 35.1541 9.72652C35.6115 11.1589 37.2064 13.023 38.2542 14.0237C39.2316 14.9572 40.3927 15.623 40.0494 17.2753C39.7577 18.6789 38.5296 19.4917 37.1365 19.4265C36.9322 19.417 36.7023 19.3718 36.5003 19.4012L36.3279 19.4338C35.5875 19.6409 35.6334 20.0004 35.2995 20.5622C34.7393 21.5046 33.5651 22.1192 32.4895 22.2276C32.4748 22.6384 32.5839 23.4973 32.7341 23.9073L32.9972 24.6328C33.3075 25.4689 33.9674 26.0295 34.6052 26.6091L35.2269 27.2176C36.2093 28.2133 37.5292 29.9909 37.9476 31.3607L38.2884 32.4135C38.651 33.7048 38.8384 35.6583 37.8878 36.7142C37.428 37.225 37.4591 37.2606 37.1609 37.8398C36.4193 39.28 34.838 40.1402 33.2172 39.9497L32.4562 39.8306C30.0566 39.5576 29.353 41.2838 27.7841 42.302C26.8409 42.9141 25.9769 43.104 24.889 43.1048L22.8476 43.1039C21.5677 43.0997 20.284 42.5422 19.388 41.6348C18.3075 40.5405 17.3432 39.6101 15.6331 39.8259ZM30.4279 6.88172L30.2767 7.42964C29.2031 10.7853 25.9075 13.1841 22.3097 12.1425C20.1198 11.5084 18.4896 9.70772 17.7565 7.59197C17.6783 7.36594 17.6328 7.12153 17.5388 6.90309L14.5295 8.39363L14.5815 9.02592C14.6069 9.43561 14.6179 9.83456 14.7574 10.2271L16.3502 16.2215C16.3861 16.3621 16.3926 16.5139 16.4387 16.6506L16.7236 17.9799C16.7989 18.2554 16.831 18.5606 16.8745 18.8437L17.185 21.02L30.7855 21.0226C31.0562 18.6619 31.5316 16.3592 32.1327 14.0613L32.9097 11.3655C33.1537 10.58 33.395 10.0783 33.4003 9.24853C33.4022 8.95842 33.4099 8.67661 33.4395 8.38767L30.4279 6.88172ZM13.5511 12.1095L12.9956 12.9556C12.5029 13.6491 11.9335 14.3212 11.3371 14.9276L10.4051 15.7958C9.86828 16.2732 9.10295 16.892 10.0656 17.5372C10.6608 17.9361 12.0111 17.1553 13.4472 18.4401C14.2472 19.2466 14.0924 19.9983 15.403 20.4352C15.2382 18.6217 14.7264 16.491 14.281 14.7382L13.8291 13.0475C13.7413 12.7349 13.6644 12.4132 13.5511 12.1095ZM34.4462 12.1517C34.2358 12.7227 34.1139 13.3336 33.9531 13.9203L32.9078 18.3515L32.6165 20.3734C33.8259 20.1372 33.8724 19.136 34.6242 18.399C35.0684 18.0112 35.6242 17.7384 36.2107 17.6472C36.8891 17.5417 38.327 17.9305 38.3671 16.8632C38.3856 16.3725 37.93 16.0975 37.611 15.8029L36.8528 15.0801C35.935 14.2008 35.1116 13.236 34.4462 12.1517ZM17.1902 22.7803C17.1293 23.2498 16.9539 24.4913 16.7505 24.8677L30.8178 24.864L31.2339 24.8624C31.0024 24.209 30.8288 23.4749 30.791 22.7817L17.1902 22.7803ZM19.9724 26.5898L16.0025 26.6015C15.6221 26.6012 15.4804 26.9768 15.1951 27.2768L13.7303 28.7048C12.6346 29.855 11.7387 31.3402 11.3353 32.8731C11.1324 33.6444 10.912 34.8879 11.4349 35.5694C11.7535 35.9845 12.0635 36.1867 12.2659 36.7086L12.6158 37.3973C12.8361 37.7655 13.3388 38.0559 13.7459 38.1559C14.8036 38.4159 15.896 37.7283 17.4348 38.1971C17.5542 38.2334 17.6815 38.2973 17.8036 38.3153C17.7598 37.7579 17.7381 35.5139 18.129 35.0638C18.3567 34.8016 18.6295 34.7126 18.9619 34.7732L18.9978 34.779C19.9711 34.9479 19.5041 36.4813 19.4747 37.1217C19.4605 37.431 19.4549 37.7686 19.4796 38.0768L19.57 38.8467C19.6182 39.3708 19.5452 39.3474 19.91 39.6949L20.4409 40.226C21.1608 40.9368 21.7264 41.1496 22.6836 41.2911C24.0754 41.4351 26.0889 41.4727 27.1857 40.5745C27.6119 40.2256 27.97 39.7977 28.4185 39.4772L28.5089 38.4963C28.725 35.1861 27.7976 31.4813 26.7456 28.3884L26.1928 26.8673C26.0882 26.602 26.1533 26.6018 25.8442 26.6017L21.939 26.6012C21.8166 26.6052 21.7631 26.8943 21.7225 26.9945L20.9177 29.2725L20.3361 31.3784C20.2617 31.7048 20.0377 31.9983 19.699 32.0668L19.6687 32.0734C19.2251 32.1635 18.7927 31.8915 18.6764 31.4531L18.6696 31.4289C18.5729 31.0497 18.7837 30.553 18.8809 30.1887L19.7133 27.4956C19.8163 27.1991 19.9641 26.8911 20.0417 26.5898H19.9724ZM27.9236 26.6053L29.3546 31.1711C29.6507 32.3584 29.856 33.5389 30.0388 34.7477L30.142 35.6484C30.1693 35.9381 30.198 36.2217 30.2142 36.5118L30.2396 37.5938C30.2406 37.8512 30.2315 38.1122 30.2675 38.3672C31.598 37.7687 32.2895 38.0999 33.5388 38.202C34.3189 38.2657 35.1072 37.9004 35.5099 37.224C35.6803 36.8988 35.8039 36.5353 36.0035 36.2283C36.1939 35.9355 36.4882 35.73 36.6701 35.4343C37.0892 34.7533 36.8042 33.3643 36.5836 32.6617C36.0026 30.8119 34.9933 29.4297 33.6366 28.1006C33.1623 27.636 32.6372 27.2104 32.2419 26.6721C32.2146 26.6349 32.2 26.6234 32.1589 26.6047L27.9236 26.6053Z" fill="black"/>
</svg>
