<svg width="48" height="48" viewBox="0 0 48 48" fill="none" xmlns="http://www.w3.org/2000/svg">
<path d="M18.5747 41.1194C19.5497 40.5081 20.5836 40.5389 21.6939 40.5365L23.3225 40.5447L23.3126 38.5919C21.9423 39.1004 20.2904 39.3022 18.8941 38.7761C18.4108 38.594 17.9816 38.3091 17.5077 38.109C16.7136 37.7736 15.9021 37.6796 15.0459 37.6734C13.8114 37.6645 11.588 37.0378 11.6307 35.4561C11.6387 35.1627 11.7801 34.8507 11.8711 34.5734L17.0226 18.8686C17.1027 18.6071 17.3605 17.9349 17.3042 17.6793L16.6311 15.1726C16.4294 14.5124 16.1783 13.8725 16.0648 13.1874C15.8044 11.6161 16.1848 9.96274 17.4608 8.91771C17.9493 8.51763 17.9082 8.77273 17.9076 8.0666L17.9067 6.18879C17.9065 5.88049 17.8783 5.54538 17.9202 5.2406C18.0111 4.57919 19.1181 4.51013 19.2485 5.21266L19.2537 5.24407C19.3022 5.50366 19.2688 5.8233 19.2689 6.08941L19.2602 7.99123C21.1793 7.70243 22.7055 8.6269 23.9785 9.92594L24.2546 9.62679C25.5355 8.34555 26.6831 7.96362 28.4052 7.96868L28.4038 5.2586C28.404 5.01387 28.3485 4.31664 28.46 4.14836L28.4766 4.12474C28.6165 3.91501 28.7428 3.8306 28.9804 3.75335C29.2797 3.7378 29.5858 3.85087 29.7139 4.14593L29.7245 4.17162C29.8004 4.3491 29.7694 4.58954 29.7681 4.7801L29.7657 8.08568C29.7624 8.42871 29.6545 8.37855 29.9335 8.55574C30.6334 9.00016 31.2721 9.65407 31.6056 10.4167L31.782 10.8747C32.3366 12.363 31.8231 13.6353 31.4 15.0486L30.9648 16.6439C30.8296 17.1006 30.6189 17.6069 30.7671 18.0775L30.8269 18.3028C30.9527 18.8877 31.1277 19.5075 31.3271 20.0682L35.139 31.6161C35.2644 32.1028 35.4667 32.5813 35.6247 33.0583L36.0943 34.4411C36.3856 35.2341 36.5962 35.5698 36.1132 36.3513C35.7338 36.9653 34.8647 37.3389 34.19 37.5275C32.7623 37.9266 31.8448 37.332 30.3294 38.1933L29.763 38.5526C28.84 39.0855 27.1909 39.2238 26.1233 38.9975C25.625 38.8919 25.1703 38.6887 24.6836 38.5548L24.6823 40.5291C24.9523 40.5628 25.2561 40.5386 25.5298 40.539L27.4991 40.5446C28.5056 40.5951 29.8475 40.8036 30.2109 41.8909L30.2216 41.9245C30.286 42.1208 30.2773 42.5406 30.2156 42.7363L30.2073 42.7615C29.6985 44.3782 27.425 44.2265 26.0939 44.2269L21.2321 44.227C20.0699 44.2262 18.8224 44.1706 18.0195 43.1833L17.9774 43.1306C17.4595 42.415 17.9437 41.5544 18.5747 41.1194ZM19.8416 9.38369L19.3497 9.46357C17.7788 9.81804 17.1123 11.6384 17.4446 13.0758L17.4757 13.1755C17.5026 13.2583 17.506 13.3463 17.5309 13.4294L18.2262 15.753C18.2805 15.9479 18.3401 16.3683 18.4075 16.5206L29.6002 16.5266L29.7435 15.7836L30.2962 13.9758C30.4435 13.5002 30.6319 12.9392 30.6487 12.4375C30.6929 11.1156 29.8208 9.79727 28.5186 9.46245C27.2703 9.14145 25.9949 9.86276 25.1289 10.7196C24.6795 11.1643 24.4136 11.7697 23.6833 11.6106C23.3993 11.4012 23.1715 11.0949 22.9238 10.8426C22.0877 9.99073 21.0829 9.32862 19.8416 9.38369ZM18.6439 17.9854C18.5972 18.0541 18.504 18.6084 18.4776 18.7667L29.4433 18.7654L29.5278 18.7615C29.468 18.5107 29.4602 18.2218 29.3783 17.9822L18.6439 17.9854ZM18.0576 20.2278L13.862 33.0655L14.8711 33.1221C16.5823 33.2522 17.4044 33.8426 18.9472 34.3339C20.9384 34.968 22.8835 33.966 24.9782 34.235L26.4609 34.4987C28.7366 34.8695 29.8614 33.8597 31.905 33.317C32.7396 33.0954 33.4432 33.1806 34.1777 33.0332L29.961 20.2306L28.6703 20.2292L28.7862 20.8848L29.4733 24.0732C29.5907 24.4726 29.6421 24.9002 29.7304 25.3069L30.5794 29.1326C30.6418 29.4042 30.7379 29.6904 30.7617 29.9672L30.7651 30.002C30.8353 30.7949 29.6903 31.0588 29.401 30.1685C29.2857 29.8137 29.2203 29.4248 29.1467 29.0587L27.4007 20.9413C27.3551 20.7065 27.3279 20.4596 27.2728 20.228L20.7049 20.2298L18.648 30.1548C18.5302 30.7801 17.7143 30.9462 17.3641 30.3938L17.3023 30.2804C17.242 30.1655 17.2701 29.9756 17.2899 29.85L19.3163 20.2333L18.0576 20.2278ZM34.5813 34.3943L33.7832 34.472C33.1015 34.5327 32.4264 34.6089 31.7695 34.811C30.991 35.0507 30.2682 35.4475 29.4902 35.6933C28.7203 35.9366 27.3062 36.1043 26.4822 35.9351L25.8112 35.8301C24.4293 35.5797 23.7867 35.569 22.4522 35.787C21.1033 36.0073 19.7916 36.1114 18.4731 35.6472C17.0864 35.1589 16.0905 34.6016 14.5803 34.4981C14.1863 34.471 13.7973 34.4826 13.4049 34.4246L13.0333 35.5293C13.2426 35.7435 13.5048 35.9114 13.7868 36.013C14.3348 36.2273 14.8741 36.2131 15.4513 36.2368C16.3793 36.275 17.2518 36.461 18.0998 36.8449C18.7582 37.1429 19.3608 37.5323 20.0924 37.6256C21.4119 37.7939 21.8089 37.5115 22.9719 37.1916C23.6109 37.0158 24.4527 36.9993 25.0934 37.182C26.2585 37.5144 26.4757 37.8262 27.8456 37.6683L27.8717 37.6651C29.3503 37.4786 30.1909 36.3151 32.0308 36.2447C33.2378 36.1985 33.9593 36.3316 34.951 35.5564L34.9997 35.518L34.5813 34.3943ZM20.5528 41.9822C20.0625 42.0313 19.59 42.1774 19.1415 42.3765C19.5015 42.6469 19.8942 42.7686 20.3368 42.7689L27.5918 42.7682C28.1216 42.7476 28.4613 42.6449 28.9127 42.3358C28.192 41.9734 27.8445 41.9808 27.0745 41.9804L20.5528 41.9822Z" fill="black"/>
</svg>
