<svg width="48" height="48" viewBox="0 0 48 48" fill="none" xmlns="http://www.w3.org/2000/svg">
<path d="M35.1652 41.981C34.7192 41.9835 33.5459 41.7628 33.1878 41.9363L33.1643 41.9484C32.9197 42.0683 32.7039 42.3448 32.4987 42.5257C31.6192 43.3008 30.1541 43.6001 29.0089 43.4692C28.6484 43.428 28.288 43.3407 27.9262 43.3095C26.1953 43.1602 24.6295 43.6051 22.9924 43.4688L21.52 43.298C19.6006 43.1307 17.5174 44.103 15.7295 42.6669C14.9039 42.0038 15.1642 41.7467 13.8401 41.9037C12.6586 42.0439 11.6209 42.0129 10.5619 41.3437C10.0226 41.0029 9.63446 40.2043 9.82857 39.5679C9.90254 39.3254 10.0276 39.0985 10.1176 38.8613L15.4551 25.0135C15.7588 24.1713 16.0913 23.3262 16.2439 22.4411C16.5365 20.7437 15.529 19.1663 14.9781 17.6247C14.7361 16.9473 14.5871 16.2768 14.4321 15.5781L14.4076 15.4697C14.2025 14.5603 14.4357 13.1664 14.8546 12.3737C15.0537 11.9969 15.318 11.6597 15.5112 11.2772C16.1358 10.0414 16.3434 8.73399 16.3457 7.36257L16.3233 5.90012C16.286 5.22681 16.1371 4.80676 16.9306 4.52788L19.4851 4.51787C19.8676 4.52037 20.1506 4.60911 20.3442 4.98554L20.361 5.01929C20.386 5.06856 20.4089 5.1145 20.4246 5.16775L20.4381 5.21453C20.6188 5.72832 20.687 6.12634 20.9352 6.68645C21.563 8.10357 22.7762 9.7412 24.0143 10.7271C25.2759 9.82215 26.7559 7.5452 27.2586 6.14996C27.4512 5.61517 27.4845 4.81895 28.0742 4.55538C28.2232 4.48876 30.9376 4.48102 31.0989 4.55163L31.1252 4.56384C31.3958 4.67596 31.6368 4.88195 31.7012 5.1812L31.7081 5.21453C31.7225 5.27828 31.733 5.32576 31.7251 5.39171C31.493 7.31823 31.5627 9.54076 32.484 11.2965C32.981 12.2437 33.442 12.6782 33.6052 13.8114C33.7785 15.0142 33.4885 16.3064 33.0873 17.4372L32.2823 19.4837C31.7625 20.8876 31.4666 21.9727 31.984 23.4098L32.9208 26.0858L36.8181 36.1169C36.8806 36.299 36.9648 36.4731 37.0298 36.6559L37.9827 39.1265C38.8557 41.0509 36.7356 41.9792 35.1652 41.981ZM17.862 6.00198L17.8779 7.46204C17.8765 9.12967 17.6462 10.5801 16.8335 12.0859C16.6345 12.4547 16.3845 12.7951 16.19 13.1648C15.4362 14.5977 16.1809 16.7178 16.8166 18.073L17.165 18.9607C17.2283 19.1627 17.322 19.3677 17.3926 19.57C17.439 19.7028 17.5632 20.3048 17.636 20.384L18.3752 20.2732C19.1177 20.1827 19.8888 20.1102 20.6369 20.1105L21.609 20.1249C21.8778 20.1367 22.0258 20.2405 22.2158 20.0263L22.5934 19.5699C23.8085 18.134 24.7793 18.7602 25.714 19.9749C25.8995 20.216 25.8212 20.17 26.1565 20.1525L27.3131 20.1125C28.3313 20.1165 29.3868 20.2014 30.3857 20.4005L31.5715 17.0535C31.9849 15.9278 32.4223 14.4646 31.8792 13.3021C31.7517 13.0292 31.5721 12.7895 31.4109 12.5371C30.5523 11.1924 30.1164 9.44125 30.1087 7.84482L30.1086 6.00221L28.9564 6.00235C28.8592 6.17223 28.823 6.39048 28.7536 6.57634C27.9484 8.7302 26.8869 10.1409 25.2695 11.7108C24.9615 12.0098 24.5914 12.4275 24.168 12.5439C23.6762 12.679 23.3839 12.2721 23.051 11.9872C21.3283 10.5126 19.9347 8.647 19.1994 6.49196L19.1017 6.1577C19.0944 6.13018 19.0819 6.04993 19.0682 6.02973C19.0425 5.99162 18.0022 6.00174 17.862 6.00198ZM23.9981 20.3288C23.4975 20.8425 23.2158 21.852 22.3812 21.8677L22.126 21.8675C21.9998 22.0264 21.8518 22.2385 21.8248 22.4449C22.0817 22.7879 22.5946 23.0624 22.7163 23.4605L22.728 23.4979C22.8137 23.8207 22.7566 24.1529 22.8073 24.4756C23.174 24.3057 23.4945 24.0761 23.876 23.9297L23.8912 23.9227L23.9229 23.9202C24.1703 23.9034 24.9847 24.2747 25.1724 24.4291C25.1693 24.009 25.1077 23.4819 25.4282 23.1513C25.6666 22.9055 26.1154 22.7433 26.1133 22.3544C26.1091 21.5854 25.5077 21.9774 25.1401 21.759C24.6137 21.4463 24.3866 20.7731 23.9981 20.3288ZM27.4748 21.6266L27.4876 21.644C27.9257 22.4567 27.6291 23.307 26.9523 23.9007L26.8997 23.95C27.8309 23.9542 28.7869 24.0398 29.7132 23.932L30.5843 23.8717C30.4529 23.4818 30.2978 23.0939 30.2115 22.6904L30.1913 22.6164C30.1242 22.3889 30.1248 22.1351 30.1175 21.8998C29.6716 21.7731 28.7356 21.6823 28.2198 21.6536C27.9787 21.6401 27.7106 21.6671 27.4748 21.6266ZM19.8674 21.6608L17.8478 21.877C17.8223 22.6144 17.6414 23.0942 17.4923 23.8047L17.744 23.8495C18.1404 23.937 18.5304 23.904 18.9302 23.943L20.1654 23.9698C20.4509 23.9677 20.7432 23.9772 21.0257 23.9317C20.4125 23.1782 20.0513 22.6152 20.4616 21.6575L19.8674 21.6608ZM17.0154 25.3082L11.9182 38.4437C11.7283 38.9214 11.5643 39.4236 11.3295 39.8809C11.4811 40.0521 11.693 40.1692 11.9065 40.2448L12.3466 40.3761C12.9133 40.53 14.1829 40.2787 14.9596 40.3328C15.0517 39.9668 15.1931 39.6084 15.3146 39.2511C15.5559 38.542 16.8308 34.8145 17.637 34.6862L17.6675 34.6812C17.8847 34.6495 18.0782 34.7121 18.2581 34.8303L18.2836 34.8468C18.7718 35.1886 18.5039 35.8285 18.2888 36.2231L17.8701 37.0116C17.4598 37.8634 17.1017 38.7472 16.7916 39.6407L16.5493 40.4246C16.4528 40.7203 16.2284 41.0442 16.4651 41.247C17.7251 42.3267 18.925 41.7557 20.3458 41.7416L23.2356 41.8943C23.2992 41.3404 23.2546 40.7357 23.2547 40.1752L23.2547 35.8648C23.2552 35.6428 23.2195 35.4144 23.3277 35.2111L23.3452 35.1777C23.6748 34.56 24.394 34.6833 24.6766 35.238L24.6949 35.267C24.7446 35.3663 24.7275 35.5384 24.7282 35.6497L24.7306 41.182C24.7305 41.4092 24.7198 41.6406 24.746 41.8664L25.4049 41.8049C26.1169 41.6948 27.28 41.6998 28.0154 41.7608L29.0953 41.9009C30.054 42.0038 30.9518 41.8022 31.6792 41.1385L30.8118 38.6295C30.675 38.2778 30.5514 37.9243 30.3933 37.5809L29.816 36.4077C29.7058 36.1977 29.5468 35.9871 29.4749 35.7619C29.3422 35.3459 29.5746 34.8085 30.012 34.6879C30.7019 34.4977 31.0028 35.2665 31.2511 35.7564L31.9156 37.2216C32.0117 37.4572 32.0949 37.7042 32.2035 37.9333L32.5331 38.8204C32.5436 38.8587 32.5561 38.8922 32.571 38.9287L33.0252 40.3394C33.387 40.3173 33.7642 40.3077 34.1252 40.3352C35.0524 40.4056 35.7785 40.5842 36.6384 39.9201L32.3444 28.9413L31.1146 25.5982C31.0915 25.53 31.0681 25.4002 31.0225 25.351C30.1428 25.4479 29.598 25.485 28.7022 25.4845L26.9361 25.4643C26.7539 25.4547 26.5798 25.4119 26.3986 25.401L26.3911 25.4229C26.2933 25.6991 26.0427 25.9699 25.7749 26.0903L25.6938 26.1226C25.3177 26.2646 24.8668 25.9952 24.5354 25.8349L24.0066 25.5712C23.1091 26.0727 22.3706 26.6109 21.688 25.5403C21.5259 25.2861 21.195 25.4327 20.8596 25.4684C19.9012 25.5704 17.8641 25.5042 17.0154 25.3082Z" fill="black"/>
</svg>
