<svg width="48" height="48" viewBox="0 0 48 48" fill="none" xmlns="http://www.w3.org/2000/svg">
<path d="M35.8249 43.2213C35.1032 43.5973 34.4158 44.0462 33.6445 44.3191C32.4731 44.7334 30.7794 44.9265 29.4984 44.9804L28.1996 44.9873C27.5574 44.9908 27.3097 45.0064 26.6835 44.9114L25.1649 44.7233C24.7852 44.6921 23.381 44.6561 23.0203 44.7463L22.957 44.7617C21.6525 45.0156 20.4162 45.0164 19.095 44.9096L16.8192 44.8024C14.6981 44.6666 14.0985 44.1658 12.4074 43.1782C11.8726 42.8659 11.2786 42.6257 10.7011 42.4049L7.71087 41.3675C6.57954 41.0344 6.8809 40.3819 7.19112 39.6042L9.8988 33.2407L11.3351 30.0962L13.5296 26.0272C14.6042 24.2704 15.8077 22.6096 17.0373 20.9596C17.2939 20.6154 17.1708 20.5833 17.1003 20.1678C16.9653 19.3717 16.7998 18.5734 16.7179 17.7695L16.6511 16.7927C16.6264 16.2214 16.5543 16.0758 16.3367 15.5386L15.9109 14.3919C15.2139 12.2321 14.4615 8.20498 16.6065 6.75523C16.9426 6.52812 16.8806 6.50511 17.002 6.12242L17.7117 3.73746C17.8376 3.3236 17.9724 3.06029 18.4407 2.98294C18.5523 2.97016 18.6794 2.98588 18.787 3.01972C19.5356 3.25515 19.2135 4.12661 19.058 4.60531L18.4664 6.5502C20.0366 7.11894 21.5524 7.81273 22.9189 8.78576C23.2871 9.04794 23.6217 9.35201 23.9793 9.62769C24.1711 9.53145 24.3467 9.34986 24.5136 9.21378L25.2142 8.68545C26.432 7.85047 28.1418 6.94667 29.5852 6.52175L28.746 3.98115C28.4341 2.98136 29.8991 2.56101 30.2015 3.51705L30.5772 4.73483C30.6436 4.89983 30.6876 5.07842 30.7417 5.2483L30.9973 6.03889C31.1763 6.63983 31.0054 6.40747 31.4763 6.78917C31.949 7.17228 32.343 7.6963 32.5125 8.28622L32.5323 8.35531C32.5656 8.4529 32.5976 8.54548 32.6145 8.64842L32.6677 8.89555C32.9607 11.2249 32.5823 13.1596 31.7299 15.3642L31.3712 16.2772C31.3139 16.4043 31.3342 16.5153 31.3322 16.6522L31.3078 17.3785C31.2504 18.0785 31.1378 18.7715 31.029 19.4647L30.8201 20.5428C30.781 20.7846 30.8126 20.7593 30.9596 20.969L31.8511 22.1678C33.4913 24.2908 34.8357 26.6083 36.0849 28.9761L38.452 34.1059L40.5131 38.8707L40.7006 39.3327C40.8058 39.6211 40.9787 39.9175 41.0538 40.2127L41.0636 40.2537C41.3209 41.0637 40.679 41.3066 40.0859 41.4431C38.4102 41.8287 37.3397 42.3673 35.8249 43.2213ZM17.5281 7.88656L17.4491 7.91661C17.0285 8.45291 18.9643 10.9944 19.3495 11.4003C21.5008 13.6672 23.9493 14.9031 26.8521 12.9235C28.0059 12.1366 29.0397 11.1314 29.7745 9.93842C30.0709 9.41576 30.597 8.55186 30.5731 7.92247C29.712 7.85684 27.2034 9.21336 26.4518 9.69101C25.9342 10.0199 25.4422 10.409 24.942 10.765C23.726 11.6307 23.7548 11.3057 22.6557 10.4974L21.1352 9.45017C20.3842 8.9832 18.4339 7.96344 17.5281 7.88656ZM16.7363 10.4315C16.7155 12.3131 17.3828 14.2759 18.1269 15.9816L29.8671 16.0044C30.1351 15.1305 30.5591 14.3136 30.7975 13.4241C31.0045 12.6519 31.1787 11.7742 31.2324 10.9742L31.2626 10.4634C31.0956 10.636 30.9808 10.9205 30.8481 11.1251C29.5546 13.1192 26.7784 15.4033 24.366 15.444C22.0771 15.4827 20.2603 14.425 18.6581 12.8701L17.9811 12.1461C17.4823 11.5975 17.1017 11.0771 16.7363 10.4315ZM18.2377 17.5203C18.2344 17.7146 18.5256 20.0506 18.6261 20.2602L29.3517 20.2668L29.3953 19.9795L29.7728 17.5332L18.2377 17.5203ZM18.3832 21.7312L17.4604 22.9569C15.6659 25.3529 14.095 27.923 12.7718 30.6094L10.6866 35.3202C10.4446 35.8795 10.1673 36.4627 9.9956 37.0467C10.3413 37.2245 10.7415 37.3342 11.1046 37.4754L14.6948 39.0756C16.1106 39.8856 17.1314 40.304 18.8214 40.3018C18.1818 35.1612 18.3563 30.8167 20.1398 25.8579L20.805 24.152C21.0485 23.5731 21.5018 22.7274 22.2303 23.3678C22.32 23.4467 22.366 23.5392 22.4079 23.6483L22.4213 23.6818C22.5602 24.042 22.3236 24.4534 22.1964 24.7837L20.7366 29.0413C20.6287 29.391 20.5706 29.7763 20.4922 30.1347C20.0373 32.215 20.0133 33.4186 20.0166 35.5069L20.0286 37.2486L20.3202 39.9371C20.3387 40.0484 20.34 40.1672 20.3803 40.2726L22.371 40.0509C23.8044 39.9121 25.2376 39.9782 26.6629 40.16C26.9734 40.1996 27.2873 40.2587 27.5996 40.2784L27.8354 38.7065L27.9673 37.2072L27.9618 33.3523L27.6486 30.7967C27.4673 29.7379 27.1633 28.6511 26.8329 27.6286L25.9241 25.0917C25.7688 24.6789 25.3977 24.1641 25.5611 23.7103L25.5715 23.681C25.6417 23.4915 25.7846 23.3357 25.9687 23.2506L26.1657 23.1859C26.3007 23.1512 26.4387 23.1883 26.5615 23.2415L26.5888 23.2528C26.9309 23.4003 27.106 23.9445 27.2346 24.2694L27.8915 25.9686L28.6041 28.2529L29.0954 30.3222C29.2285 30.8489 29.3409 31.7993 29.3913 32.3319L29.4467 33.1287C29.458 33.2624 29.485 33.3923 29.4909 33.5272L29.4999 35.6596C29.4997 36.2007 29.5286 36.7614 29.4897 37.3006L29.2967 39.2023C29.247 39.5678 29.1717 39.9447 29.1442 40.3111C30.7612 40.3017 31.6419 39.9931 33.0071 39.2791L34.6601 38.4427L38.003 37.0971C36.5049 33.2774 34.8495 29.5381 32.6726 26.0506L30.0913 22.3804C29.9858 22.2403 29.7169 21.8065 29.5781 21.7315L18.3832 21.7312ZM9.32168 38.4491L8.64054 40.0557C9.61516 40.4986 10.8004 40.7491 11.8458 41.2013C13.1485 41.7649 14.2103 42.7256 15.6154 43.0629C16.8664 43.3633 17.6234 43.2544 18.809 43.3352C19.4372 43.3781 20.061 43.5357 20.6952 43.4906C22.143 43.3875 23.5699 43.0613 25.0312 43.1758L27.6808 43.4808C29.1157 43.5868 32.0831 43.2695 33.3177 42.8045C33.9913 42.5508 34.5839 42.1528 35.2081 41.8028L36.5757 41.1223C37.2675 40.7832 38.0295 40.3914 38.7807 40.1969L39.4073 40.0354C39.1854 39.5214 38.9156 39.0063 38.7597 38.4674C37.6041 38.9334 36.4318 39.3255 35.2968 39.8472L33.1031 40.9807C31.8287 41.5954 30.5148 41.8267 29.1184 41.8347L27.8767 41.8341C27.2425 41.8202 26.5993 41.704 25.9693 41.6286C25.0774 41.5219 23.5892 41.4446 22.6834 41.5748L21.947 41.6499C19.7336 41.9212 17.3644 42.0717 15.2786 41.1277C14.6447 40.8408 14.0548 40.4462 13.4369 40.1248C13.0081 39.9018 12.571 39.7224 12.1263 39.5353L9.80979 38.6358C9.68149 38.5873 9.44894 38.4514 9.32168 38.4491Z" fill="black"/>
</svg>
