<svg width="48" height="48" viewBox="0 0 48 48" fill="none" xmlns="http://www.w3.org/2000/svg">
<path d="M32.2794 43.2024C31.4933 43.1843 30.7302 43.0096 29.9739 43.3232C29.643 43.4604 29.3425 43.6628 29.0165 43.8115C28.7754 43.9216 28.5349 43.9763 28.2892 44.064L28.2071 44.0941C27.8489 44.2024 26.9933 44.1661 26.6282 44.1234L24.9845 43.8599C22.6894 43.5721 20.7691 44.8045 18.5552 43.6031C17.5303 43.047 17.3557 43.1321 16.1852 43.1912C15.1123 43.2453 13.871 43.2773 12.9233 42.6831C12.2789 42.2791 11.7649 41.8508 10.9749 41.8168C10.3824 41.7913 9.74268 41.9754 9.56385 41.202L9.55636 41.1676C9.50901 40.9606 9.59376 40.6885 9.64673 40.4858L11.413 34.1668L12.5921 30.4874C13.464 28.0638 14.5092 25.8627 15.8787 23.6829L16.5542 22.6816C16.7552 22.3934 16.9979 22.0731 17.1138 21.7399L17.1222 21.7144C17.4358 20.8184 16.5184 18.1239 16.1722 17.2327C15.8926 16.5132 15.5456 15.8089 15.3076 15.0758C14.7097 13.2336 15.0241 10.8681 17.0004 10.0202L15.0439 4.97968C14.8722 4.4174 15.0224 3.94721 15.6257 3.77621L19.8637 3.7665C20.0168 3.76649 20.3264 3.7309 20.4584 3.80242L20.4845 3.8179C20.6763 3.92965 20.8267 4.10347 20.9955 4.24665C21.9661 5.06982 23.5671 5.20824 24.8087 5.06752C25.4825 4.99111 26.1686 4.74075 26.7568 4.40752C27.6375 3.90852 26.9709 3.76836 28.3596 3.76678L31.5942 3.76611C31.8763 3.76625 32.3241 3.68264 32.5773 3.82722L32.6134 3.84926C32.9077 4.02622 33.0573 4.3781 33.0065 4.71807L33.0003 4.75739C32.9563 5.04582 32.8162 5.32749 32.7195 5.60114L31.3243 9.20841C31.2293 9.44527 31.1572 9.69938 31.0522 9.93085L31.0324 9.9736C31.1788 10.0988 31.3814 10.1781 31.5402 10.2983C33.2017 11.5566 33.2241 13.7091 32.5301 15.5269L31.5845 17.8613C31.3792 18.429 31.1706 19.0363 31.0522 19.6285L30.919 20.4965C30.8523 21 30.7201 21.4814 30.9935 21.9363L33.3093 25.6838C34.1908 27.2899 35.1963 29.6262 35.7174 31.4293L37.2045 36.2145C37.2126 36.2516 37.2202 36.2846 37.2334 36.3205L37.5774 37.5195C37.5984 37.627 37.6451 37.7206 37.6692 37.8277L37.8637 38.5553C37.8955 38.749 37.9682 38.949 38.0145 39.1408L38.3451 40.5465C38.6399 41.6734 38.2082 41.8064 37.2415 41.813C36.4728 41.8184 35.9534 42.1292 35.3263 42.5438C34.262 43.2473 33.4715 43.2033 32.2794 43.2024ZM16.6441 5.23238L17.3524 7.14811C17.3831 7.24468 17.4341 7.33608 17.4692 7.43199L18.2203 9.23082C18.2841 9.3795 18.2594 9.45882 18.3754 9.58196C20.4916 9.57188 22.2518 10.2415 23.7901 11.7634L24.0119 11.9986C25.1698 10.7573 27.0218 9.64707 28.766 9.58318L29.3859 9.5805C29.8078 9.58111 29.6822 9.49815 29.8387 9.1365L30.914 6.44264L31.2335 5.59369C31.2723 5.48471 31.2997 5.31844 31.3647 5.22868L28.3454 5.22727C28.2607 5.36639 28.2301 5.54522 28.167 5.69743C27.4678 7.38605 26.5783 8.3543 25.2383 9.50757C24.7302 9.94491 24.2015 10.5856 23.4939 10.1394C22.9597 9.80264 21.7914 8.69766 21.3341 8.19235C20.7587 7.55663 19.9349 6.3278 19.7497 5.45677L19.6858 5.22928L16.6441 5.23238ZM21.5794 6.12849C22.057 6.86836 23.2428 8.17627 24.0012 8.71308L25.3928 7.41211C25.4781 7.31902 26.589 6.06197 26.2444 6.18071C24.9636 6.62189 23.4417 6.62996 22.1341 6.29016L21.7591 6.17766C21.7036 6.15905 21.6368 6.12483 21.5794 6.12849ZM18.6894 11.0031L18.1624 11.062C16.4889 11.3973 16.1302 13.228 16.6225 14.6226L17.5803 16.9918L18.2923 19.2535L18.4049 19.7638C18.4991 20.1248 18.4515 20.6592 18.5324 20.917L29.2023 20.9156C29.2942 20.9158 29.3943 20.927 29.4832 20.9037C29.5516 20.1404 29.6531 19.3887 29.8649 18.65C30.0838 17.8426 30.3813 17.0431 30.6887 16.2651L31.1982 15.1101C31.7861 13.6223 31.8358 11.6806 30.0235 11.1105L29.9819 11.0971C28.4081 10.6027 25.9848 11.8411 25.0019 13.0385C24.6992 13.4072 24.3854 14.0506 23.7968 13.8769L23.7188 13.8493C23.5488 13.7818 23.4046 13.5447 23.2964 13.4058L22.9006 12.9308C21.9314 11.8579 20.1872 10.9313 18.6894 11.0031ZM19.3884 22.3343L18.7075 22.3404C18.4467 22.3426 18.3761 22.2966 18.2729 22.5775C18.2012 22.7725 18.0258 22.9805 17.9114 23.1561L15.4769 27.2169C14.9401 28.245 14.5072 29.3444 14.1069 30.4313L11.4459 39.1056C11.3291 39.5387 11.1878 39.9721 11.122 40.4163C11.855 40.4548 12.4957 40.6477 13.0947 41.0795C13.7534 41.5543 14.008 41.6662 14.8141 41.7992C14.8548 41.7497 14.8554 41.5681 14.8722 41.4949L17.8126 27.8785C17.8743 27.5626 17.906 27.2254 18.0148 26.9221L18.0257 26.8909C18.1451 26.564 18.5518 26.3299 18.8938 26.4538C19.5697 26.6986 19.3129 27.4577 19.2206 27.9488L16.4039 40.9805C16.3571 41.2189 16.3328 41.4888 16.263 41.7187C17.6671 41.7144 18.2324 41.6962 19.4958 42.4977L20.8186 35.9882C20.9206 35.4116 21.0329 34.5336 21.8382 34.7144C22.0403 34.7598 22.1852 34.913 22.2849 35.0848L22.3263 35.1683C22.4526 35.4212 22.2931 35.8271 22.2372 36.0816L21.3617 40.3345C21.1931 41.1267 20.9902 41.92 20.8752 42.7219L22.9092 42.4217C23.2919 42.3332 24.4859 42.3744 24.8866 42.3984C25.5849 42.4402 26.4831 42.7639 27.142 42.7017L26.9245 41.6767L25.7653 36.1627C25.7156 35.919 25.6372 35.6504 25.6232 35.4029C25.593 34.8663 26.3029 34.4988 26.7316 34.836C27.0041 35.0504 27.0223 35.3877 27.0958 35.6949L28.1741 40.7691C28.2936 41.3282 28.3717 41.9031 28.53 42.4539C29.8952 41.7013 30.2591 41.7129 31.7264 41.7208C31.7561 41.5537 31.6496 41.2552 31.6099 41.0841L28.7679 27.9995C28.7056 27.702 28.5923 27.3502 28.6186 27.0481C28.6807 26.3342 29.8212 26.1211 30.0166 27.1161L33.1888 41.7812C34.0334 41.6806 34.2916 41.5266 34.9552 41.0574C35.5478 40.6385 36.1854 40.4402 36.9074 40.4162L34.8265 33.2483C33.7194 29.8542 32.7574 27.2948 30.8412 24.2937L30.4443 23.6715C30.154 23.2478 29.8362 22.8191 29.6173 22.3537C29.4434 22.292 29.1293 22.3344 28.9343 22.3343H19.3884Z" fill="black"/>
</svg>
