<svg width="48" height="48" viewBox="0 0 48 48" fill="none" xmlns="http://www.w3.org/2000/svg">
<path d="M34.9879 41.302C34.6455 41.5906 34.3828 41.9529 34.0155 42.2183C32.5942 43.2451 30.8025 43.2317 29.1448 43.0069L28.1913 42.838C27.456 42.6796 27.0521 42.7313 26.2986 42.7307L21.4043 42.7309C20.6475 42.7316 20.382 42.7834 19.6826 42.9085L18.781 43.038C17.4533 43.2197 15.2137 43.1941 14.0643 42.3425C13.5767 41.9812 13.2725 41.436 12.7734 41.0743C11.2141 39.9443 9.47859 40.7549 8.44913 40.076C7.44234 39.412 7.39519 38.3417 7.88311 37.3616L10.4515 32.4143L16.9704 18.95C17.1173 18.6288 17.2424 18.5447 17.1611 18.1933L14.6117 8.15518C14.3163 6.94243 14.5307 5.7698 15.767 5.14065C16.2276 4.90622 16.6189 4.87177 17.1277 4.86296L18.1113 4.86647C18.2835 4.86737 18.5652 4.83005 18.7132 4.92896L18.8226 5.01141C19.1867 5.31868 19.1268 5.58788 19.1275 6.01899L19.1311 7.45646C19.1396 7.93974 19.245 8.38341 19.4034 8.83604L19.5235 9.12755C20.0739 10.1802 21.1811 11.1817 22.4142 11.2627C23.1759 11.3127 24.869 11.3324 25.6057 11.2493C27.3079 11.0572 28.6936 9.48938 28.8528 7.8159C28.9288 7.01682 28.5838 5.47468 29.1761 5.01718L29.2034 4.99646C29.4991 4.76963 29.9429 4.86465 30.2903 4.86357C31.1087 4.86108 31.8439 4.77854 32.5315 5.31788C34.1768 6.60863 33.3142 8.40872 32.9097 10.0548L30.8856 17.9396C30.7745 18.3583 30.7711 18.3376 30.935 18.7267L35.6388 28.4191L39.6509 36.4454C40.0174 37.2463 40.5427 38.0011 40.3496 38.9283L40.3435 38.9564C40.1901 39.7057 39.4652 40.2907 38.7227 40.3752C38.1756 40.4375 37.6028 40.3309 37.0549 40.4385C36.2772 40.591 35.5983 40.7853 34.9879 41.302ZM30.4721 6.30305L30.2816 6.31055C30.2517 6.46641 30.2607 6.63493 30.2605 6.79318L30.2594 7.58199C30.257 8.08027 30.16 8.60321 30.007 9.07824C29.4313 10.8649 27.9605 12.2259 26.1313 12.6172L25.6167 12.7021C25.4364 12.74 25.2435 12.7304 25.0601 12.7308L24.2242 12.732C23.5097 12.7323 22.8206 12.7719 22.1135 12.6592C19.9545 12.3152 18.261 10.6534 17.8355 8.49619L17.7626 8.08548C17.7172 7.86071 17.7304 7.62015 17.7289 7.39187L17.7235 6.3136L17.0286 6.30629C16.0125 6.31126 15.7837 6.88552 15.9952 7.84177L16.1604 8.55465C16.191 8.67357 16.2027 8.79713 16.2316 8.91596L16.5674 10.2417C16.6192 10.4436 16.6586 10.6545 16.7223 10.8529L17.1732 12.6612L17.8222 15.1576C17.9365 15.7133 18.1097 16.2643 18.2544 16.813L18.4426 17.5292C18.4826 17.6768 18.4997 17.7998 18.5603 17.9436C19.7405 18.3855 21.7536 18.6754 22.9727 18.7445L24.0657 18.7525C24.6965 18.7523 25.3166 18.7065 25.944 18.6446L27.5426 18.4072C27.6967 18.3774 27.8501 18.3579 28.0018 18.3164L29.4507 17.9478L31.8511 8.56726C32.2026 7.11723 32.3851 6.19688 30.4721 6.30305ZM18.3477 19.3878L17.1105 21.8907C17.01 22.1122 16.8766 22.3472 16.8096 22.58C19.3047 23.4725 21.7248 23.6553 24.3237 23.6537C26.1095 23.6526 28.1059 23.5383 29.802 22.9938L31.2159 22.5991L29.6759 19.3841C28.6393 19.7467 27.1295 19.9677 26.051 20.0778L23.89 20.18C22.2113 20.1775 19.963 19.9533 18.3477 19.3878ZM16.1425 23.9125L12.0545 32.3868C12.39 32.4869 12.8519 32.5537 13.1994 32.5722C13.4636 32.4016 13.7173 32.2091 13.9911 32.0543C15.393 31.2612 17.802 31.6028 18.4425 33.243C18.7922 34.1387 19.744 34.0052 20.5157 33.9456L20.5301 33.9024C21.4815 31.1469 25.6594 30.8685 27.2124 33.394C27.2927 33.5245 27.3596 33.6616 27.4318 33.7966C27.6293 34.1661 28.683 34.0019 28.982 33.8691C29.3887 33.6885 29.4787 33.4011 29.6648 33.0342C30.7219 31.325 33.0815 31.2474 34.5544 32.4426C34.804 32.6452 35.1201 32.5141 35.4143 32.4669L35.9548 32.3864C35.6715 31.6815 35.3139 30.99 34.9825 30.306L32.1025 24.3799C32.0377 24.2276 31.9736 24.0521 31.8725 23.9202C30.0368 24.4491 28.2995 24.8835 26.3957 25.0436L24.3169 25.1127C21.2692 25.1121 19.1337 24.7722 16.1425 23.9125ZM15.4568 33.0783C14.885 33.1534 14.113 33.4384 13.9439 34.0525L12.0703 39.1584C13.0566 39.5609 13.7197 39.8213 14.4215 40.6649C14.6138 40.8971 14.7915 41.1127 15.0539 41.2673L16.6406 35.3377L17.0134 34.0704C17.0595 33.9224 17.1517 33.8411 17.0625 33.6963C16.7495 33.1885 16.0185 33.0154 15.4568 33.0783ZM23.8176 33.0799C22.7403 33.1949 21.8061 33.8782 21.636 34.9853L20.2733 41.2642L24.1819 41.2656L27.7231 41.2626L26.7357 36.7006C26.3407 34.9464 26.1802 32.9869 23.8176 33.0799ZM32.1807 33.0798C31.8742 33.1073 30.8578 33.4516 30.8938 33.7991L32.7534 40.6544C32.8145 40.8528 32.8301 41.0451 32.904 41.2437C33.2867 41.0472 33.5513 40.6887 33.8526 40.3879C34.5989 39.6941 35.0341 39.5596 35.9183 39.1834L34.1604 34.339C34.1003 34.1691 34.053 33.9575 33.9648 33.803C33.6957 33.3314 32.6744 33.0437 32.1807 33.0798ZM11.3977 33.689L9.17189 37.9437C8.93241 38.4111 8.86331 38.9215 9.52688 38.9283L10.178 38.9285L10.6574 38.9669C10.7999 38.3471 11.0636 37.7467 11.29 37.1532L12.4893 33.9187L11.3977 33.689ZM36.5373 33.7149L35.5049 33.9153L36.3927 36.3121C36.6652 36.9787 37.0579 38.0411 37.2344 38.6981L37.2655 38.7822C37.2885 38.8433 37.2974 38.893 37.3496 38.9374L37.9463 38.9285C38.4673 38.9294 39.2621 38.9898 38.8948 38.1522L37.353 35.0966C37.1138 34.6358 36.8527 34.1903 36.6448 33.7135L36.5373 33.7149ZM29.8512 35.0193C29.5574 35.1684 29.2766 35.3047 28.9563 35.3895L28.8751 35.4094C28.5836 35.4768 28.2233 35.4485 27.9245 35.439L29.2232 41.5531C29.3714 41.6085 29.5406 41.6219 29.6978 41.6313C30.2875 41.6813 30.9466 41.7249 31.5342 41.6426L29.8512 35.0193ZM18.1789 35.0509L16.7423 40.4771C16.6435 40.862 16.53 41.2518 16.4783 41.6463C16.7995 41.7387 17.9628 41.6814 18.2992 41.6571L18.7691 41.6172L20.082 35.4418C19.5073 35.4428 18.9115 35.4241 18.3924 35.148C18.3398 35.12 18.2382 35.0457 18.1789 35.0509Z" fill="black"/>
</svg>
