<svg width="48" height="48" viewBox="0 0 48 48" fill="none" xmlns="http://www.w3.org/2000/svg">
<path d="M36.6281 42.367C36.8171 43.7374 36.1361 44.0957 35.0372 44.4502C34.6061 44.5892 34.1262 44.4637 33.6846 44.5855C33.3542 44.6767 33.0379 44.8702 32.7293 45.0177C31.0773 45.8076 29.0914 45.7337 27.2982 45.7342L20.4713 45.736C18.9247 45.736 17.4075 45.7467 15.9325 45.2211L14.7529 44.7546C13.8747 44.4338 12.5531 44.4204 11.9371 44.0586C11.0998 43.5669 11.2309 42.9248 11.4319 42.1642L12.2624 38.2115L13.2099 30.9394C13.2521 30.544 13.2289 30.1484 13.2491 29.7522C13.4228 26.3433 14.9649 22.258 16.5509 19.3007L17.8638 17.0784C17.6755 15.734 17.1767 14.5862 16.3372 13.5046C16.0221 13.0987 15.6782 12.7211 15.4023 12.2844C14.399 10.6963 13.9721 8.78472 14.388 6.93765C14.4397 6.70783 14.4435 6.72062 14.3357 6.50233L14.1443 6.07075C13.7894 5.19156 13.126 2.81655 14.1436 2.25745L14.1727 2.24213C14.2979 2.17427 14.4172 2.17305 14.5561 2.16647C15.4365 2.16452 16.4311 2.09941 17.2849 2.36902C18.4067 2.72324 18.4779 3.58236 18.9562 4.46119C19.7579 5.93425 20.8696 6.5417 22.2052 7.41667C22.8467 7.83695 23.443 8.30636 24.0167 8.81448C25.8222 6.97806 28.1433 6.631 29.3174 3.9563C29.9414 2.53472 29.9573 2.57563 31.5818 2.2111L31.6284 2.19988C31.7904 2.16273 31.9712 2.16998 32.1366 2.1686L32.9449 2.16442C33.6311 2.16264 34.1684 2.14274 34.3288 3.00329L34.3393 3.05875C34.4014 3.32944 34.4156 3.84145 34.3535 4.11954L34.2327 4.83104C34.1694 5.23178 34.0267 5.67545 33.8634 6.04633L33.6466 6.5215C33.5466 6.73834 33.5758 6.73065 33.6117 6.96301L33.7226 7.8362C33.8982 10.1179 33.1645 11.6543 31.7706 13.3736C30.8757 14.4775 30.4071 15.5043 30.1639 16.8869C30.1316 17.0702 30.1171 17.0389 30.2295 17.1978L30.5456 17.6496C31.3275 18.7809 32.1631 20.0765 32.7312 21.3386L34.0077 24.4455L35.0112 27.8835L35.6766 31.273L36.3267 36.9962C36.3697 37.3921 36.3562 37.7998 36.3872 38.1974L36.5587 41.2697C36.5761 41.6461 36.6235 41.9561 36.6281 42.367ZM14.8561 3.4445C14.8904 4.33099 15.1062 5.1602 15.4773 5.98628L15.6707 6.39728C15.8058 6.66306 15.7569 6.72573 15.6806 7.021L15.5828 7.4912C15.4635 8.16404 15.4463 9.23003 15.6942 9.87587L15.8468 10.3248C16.2481 11.7891 17.9426 13.0473 18.487 14.6134C18.5711 14.8554 18.6799 15.0874 18.7579 15.3332L18.9664 16.0946C19.0207 16.2607 19.0194 16.4378 19.0761 16.6018L28.0212 16.6023C28.3221 16.6026 28.663 16.6352 28.9602 16.5972L28.9623 16.5649C29.0974 14.6843 30.0928 13.4803 31.1675 12.1001C31.8822 11.1823 32.3324 10.1762 32.4908 9.02261C32.5734 8.41979 32.4546 7.80268 32.3451 7.21C32.1887 6.36353 32.2316 6.64384 32.5698 5.87514C32.7012 5.57645 33.2876 3.71213 33.133 3.44536C32.4044 3.44384 31.578 3.38308 30.8951 3.68173C30.6566 3.96956 30.5273 4.37941 30.3589 4.71498C29.1605 7.10247 27.5643 7.66651 25.5702 9.17228C25.0136 9.59265 24.2064 10.7713 23.5841 10.2115L22.8908 9.53083C22.5927 9.25895 22.2532 9.02157 21.9272 8.78453L20.395 7.77592C18.7572 6.66011 18.0687 5.659 17.3031 3.91906C17.0569 3.35969 15.3474 3.36879 14.8561 3.4445ZM24.6413 17.878L24.6527 40.9141C24.6531 41.0326 24.6342 41.18 24.6659 41.2922L27.0536 41.2898C28.2156 41.2882 29.3619 41.3099 30.4805 40.9438C31.2042 40.707 31.8414 40.3169 32.5427 40.0335C32.9256 39.8787 33.3245 39.8073 33.7172 39.6908L35.263 39.4965L34.8982 34.6759C34.3758 29.5568 33.1981 24.2775 30.467 19.8517L29.341 18.1356C29.1949 17.9177 29.2693 17.8802 28.9919 17.8795L24.6413 17.878ZM18.8613 17.878C18.2631 18.7716 17.7577 19.6945 17.2787 20.649L16.3126 22.6877C15.5921 24.4007 15.0187 26.3385 14.7206 28.1837L14.5793 29.2691C14.5104 29.8512 14.5402 30.3469 14.4882 30.8945L13.564 38.019C13.4811 38.5332 13.3482 39.0475 13.2913 39.5649C14.1425 39.6626 15.0104 39.8384 15.8028 40.171C16.5761 40.4956 17.3078 40.9533 18.1462 41.0977L18.9354 41.2514C19.1382 41.2916 19.3586 41.2845 19.5651 41.2864L23.4071 41.2889L23.4035 18.5193C23.403 18.3138 23.4231 18.0814 23.3937 17.8788L18.8613 17.878ZM34.8781 40.8141C32.6735 41.0675 31.1953 42.4397 28.9549 42.5445L20.0454 42.5509C19.6548 42.5506 19.1997 42.5941 18.8188 42.5123L18.2036 42.4105C17.0059 42.1794 16.4528 41.834 15.3668 41.3761C14.6279 41.0645 13.8118 40.9206 13.0188 40.8252L12.5588 42.9418L12.7834 42.9947L13.9802 43.2191C15.1319 43.4666 16.0961 44.0575 17.1443 44.2502C18.5045 44.5 19.4626 44.4783 20.8347 44.4799L28.8355 44.469L30.8823 44.2384C31.885 44.0615 32.7242 43.5319 33.6948 43.2727C34.2486 43.1248 34.8689 43.3602 35.3482 42.9259C35.4201 42.7313 35.3734 42.3893 35.3717 42.1777L35.3517 40.8058L34.8781 40.8141Z" fill="black"/>
</svg>
