<svg width="48" height="48" viewBox="0 0 48 48" fill="none" xmlns="http://www.w3.org/2000/svg">
<path d="M30.3463 46.6844C29.2307 47.0639 28.3729 46.742 27.4508 46.9238L24.8924 47.2772C23.321 47.5524 21.7436 47.032 20.1861 46.9106C18.7026 46.7944 17.5094 47.1328 16.2915 45.863C16.1068 45.6704 15.9543 45.4495 15.7666 45.2589C14.9737 44.4537 14.112 44.3292 13.0345 44.3281L11.7419 44.3274C11.5356 44.3274 11.2536 44.3606 11.0573 44.3009C10.1827 44.0351 9.45627 43.3365 9.57655 42.352L9.58255 42.3047C9.61635 42.0234 9.69454 41.7352 9.75744 41.4585L11.6794 34.6919L12.8191 31.7759L14.5611 28.0353C15.9002 25.3451 17.261 23.1295 17.9145 20.1618L18.0306 19.5922C18.1508 19.0477 18.1292 18.8802 17.9476 18.358L15.7847 11.8405C15.6681 11.4795 15.644 11.1031 15.5406 10.7473L15.5074 10.6289C15.4798 10.4879 15.4903 10.3329 15.4902 10.1899L15.4891 2.04213C15.4886 1.83812 15.4747 1.62053 15.4923 1.41798C15.5458 0.799581 16.6498 0.602804 16.7766 1.37647C16.8066 1.56039 16.784 1.78793 16.7843 1.9764L16.8312 9.4442C16.8327 9.80228 16.8169 10.1667 16.8582 10.5227C17.1631 10.1349 17.5349 9.70726 17.989 9.4966L18.0104 9.48695C18.0145 9.31754 17.9713 9.13632 17.9459 8.96879L17.4188 4.29084C17.292 3.00487 16.8493 1.03179 18.7769 0.852746C19.4818 0.709937 20.1627 1.24833 20.7469 1.54843C22.6551 2.52872 25.4972 2.48092 27.3633 1.49177C27.7464 1.28866 28.1258 1.00858 28.5542 0.915474L28.5935 0.907163C29.412 0.716556 30.5283 1.0575 30.7367 1.97C30.8763 2.58135 30.7798 3.14781 30.7235 3.76601L30.6614 4.25034C30.6434 4.47372 30.6393 4.69956 30.6091 4.92189L30.0341 9.45446C30.5127 9.77303 30.8188 10.1251 31.1813 10.5551C31.3943 9.88065 31.3161 7.70879 31.3166 6.94792L31.3217 1.73854C31.3228 1.61153 31.3059 1.42649 31.363 1.31049L31.3853 1.26865C31.6892 0.665288 32.5309 0.729395 32.6729 1.39454C32.7144 1.58867 32.6826 1.85915 32.6819 2.06105L32.6453 9.19974C32.576 10.6126 32.3761 11.1561 31.9683 12.5274L30.0091 18.4718C29.8352 18.9804 29.8401 19.0249 29.9537 19.5703L30.4502 21.6328C30.7493 22.8558 31.7176 24.7847 32.2842 25.8941L33.9724 29.1591L35.9414 33.6564L36.7511 35.9766C36.88 36.351 37.0252 36.7485 37.1071 37.1367L37.6707 39.1992C37.9007 40.3177 38.6992 42.261 38.2523 43.2422L38.2262 43.3017C37.8087 44.1928 37.0038 44.3259 36.146 44.3267L34.5662 44.3276C32.3456 44.3367 32.1527 46.0169 30.3463 46.6844ZM18.8751 2.20606C18.6087 2.34418 18.6227 2.42047 18.6351 2.69875L18.9802 6.19515C19.0086 6.45498 19.0119 6.72479 19.0576 6.98139L19.2967 9.02199C21.0396 8.85601 22.4475 9.47898 23.6359 10.7888C23.7613 10.927 23.8652 11.0863 24.001 11.2127C24.8697 10.112 26.1092 9.18756 27.5414 9.01998L28.3644 8.98088L28.7251 9.01642C28.7825 8.8681 28.7758 8.65637 28.7936 8.4961L29.37 3.60048C29.4069 3.21816 29.5108 2.81078 29.4809 2.42579C29.174 1.8861 28.1389 2.61471 27.7771 2.79575C26.507 3.43139 25.1698 3.59191 23.758 3.56334C22.1056 3.5299 21.0558 3.24309 19.5687 2.45739C19.3281 2.33026 19.1588 2.18041 18.8751 2.20606ZM19.6983 10.3178L19.5403 10.3511C18.3928 10.5981 17.297 11.6205 17.5628 12.8612L17.5709 12.9085C17.6115 13.1471 17.6849 13.391 17.769 13.6172L19.1732 17.8359C19.2149 17.9496 19.2472 18.2324 19.3566 18.2951L28.6766 18.2983L29.2498 16.4832L30.2849 13.4007C30.6633 12.124 30.2398 10.8587 28.8721 10.4208C27.2915 9.91478 25.7107 11.1556 24.8317 12.3461C24.2117 13.1857 24.0174 13.4628 23.2073 12.407C22.4059 11.3626 21.1412 10.1578 19.6983 10.3178ZM19.3806 19.6666C18.6757 23.3982 17.1704 25.779 15.5328 29.1186C14.0301 32.183 12.4533 35.8742 11.7247 39.2438C11.8731 39.2863 12.0289 39.2942 12.1818 39.3118L13.0069 39.4075C14.1457 39.5412 15.3784 39.6792 16.3943 40.2553C16.7005 40.4289 16.993 40.639 17.3136 40.7858C18.9721 41.5449 19.8898 40.7083 21.272 40.1986C22.7414 39.6567 25.1553 39.6955 26.6482 40.1503C27.0494 40.2725 27.4105 40.4616 27.7799 40.6559C28.6091 41.0627 29.6622 41.1883 30.5487 40.8846C31.2314 40.6508 31.7872 40.1791 32.4724 39.9377C33.8716 39.4449 34.9465 39.5084 36.2755 39.2379C35.8057 37.2563 35.1771 35.3019 34.4152 33.4126L32.9037 30.0469L30.3148 24.897C29.6467 23.4615 29.0959 22.0139 28.7496 20.4654L28.6002 19.6646L19.3806 19.6666ZM36.6427 40.582L34.7108 40.8286C33.259 41.0432 32.9433 41.1934 31.6971 41.8622C30.2287 42.65 28.682 42.5397 27.1747 41.8689C26.0583 41.3721 25.6126 41.2517 24.3779 41.2483L23.08 41.2497C21.7167 41.2618 20.6744 42.1461 19.378 42.3654C17.2121 42.7318 16.7404 41.7379 15.099 41.1812C14.4891 40.9742 13.8539 40.9038 13.2185 40.8224L11.3406 40.5886L11.0271 42.0132C10.958 42.3309 10.7644 42.8984 11.2849 42.9598L11.3627 42.9644L12.9376 42.9571C14.4894 42.9585 15.6897 43.2221 16.8112 44.4122C17.6176 45.268 17.9271 45.544 19.1681 45.5428L20.4741 45.5597C20.8852 45.5839 21.2792 45.6798 21.6847 45.7448L23.1147 45.9339C24.3833 46.0721 25.8091 45.8395 27.0471 45.6001C27.5894 45.4952 28.2208 45.5407 28.7714 45.5412C30.3906 45.5427 30.3753 45.1422 31.3461 44.2307C32.3616 43.2772 33.4931 42.9585 34.8398 42.958L36.2292 42.9572C36.7891 42.9564 37.1707 42.949 37.0193 42.2688L36.7812 41.1079C36.7485 40.9465 36.7356 40.7342 36.6603 40.5897L36.6427 40.582Z" fill="black"/>
</svg>
