<svg width="48" height="48" viewBox="0 0 48 48" fill="none" xmlns="http://www.w3.org/2000/svg">
<path d="M33.2752 41.9447L30.088 42.8853C28.4521 43.3047 27.1333 43.4475 25.4308 43.4504L24.6698 43.4459C24.5449 43.4433 24.3819 43.4539 24.2653 43.407C24.1813 43.3732 23.8947 43.4508 23.6883 43.4517L22.9401 43.4528C20.4933 43.4517 18.87 43.1773 16.5212 42.4961L11.8015 41.0038C10.7267 40.6205 10.5853 40.4746 10.9646 39.2632L14.9648 26.2744C15.2324 25.2915 15.2581 25.1982 15.2566 24.199C15.2537 22.2965 15.0274 20.2555 14.3809 18.4645C14.3136 18.5324 14.2717 18.6613 14.2286 18.7481L12.4072 22.7101C12.1129 23.4476 11.8387 23.4946 11.1328 23.3208C9.0111 22.7983 7.12433 21.4307 5.84914 19.6738C5.28983 18.9033 5.35161 18.8511 5.74002 18.1279L10.0873 9.4444C11.4491 6.94878 14.1057 4.8852 16.9497 4.53249L18.4375 4.51712C19.3668 4.51702 19.5355 4.50564 19.8739 5.50756C21.0587 9.01629 26.5374 9.17858 28.0639 5.6554C28.6442 4.31605 28.4677 4.51626 29.85 4.51671L30.6451 4.51816C30.834 4.51881 31.0237 4.50977 31.2084 4.5563L32.7316 4.93423C34.779 5.62887 36.6333 7.31694 37.7308 9.1354C38.081 9.71548 38.3507 10.3586 38.6449 10.9685L41.8727 17.4222C42.0563 17.7789 42.2883 18.1119 42.4673 18.4685L42.4981 18.5339C42.5705 18.6946 42.5916 18.8488 42.5307 19.0179L42.5167 19.0544C42.4284 19.2918 42.293 19.4772 42.1512 19.6828C40.9611 21.4075 39.2314 22.5592 37.2728 23.2194C36.335 23.5354 35.9826 23.5365 35.5458 22.5645L34.0239 19.2958C33.8821 19.0081 33.7656 18.6937 33.6002 18.4207L33.5807 18.4547C33.4632 18.6994 33.4155 19.0129 33.3513 19.2771C32.9342 20.994 32.7253 22.7362 32.774 24.5037C32.799 25.4155 32.999 26.3708 33.2963 27.2323L33.6389 28.3816C33.7113 28.6857 33.8405 28.9807 33.917 29.2849L37.2419 39.9426C37.5017 40.7117 36.2018 41.0074 35.715 41.17L33.2752 41.9447ZM16.8191 6.1474L16.463 6.21861C14.4037 6.76962 12.5211 8.29447 11.4656 10.1401L7.13994 18.7688C8.29335 20.3566 9.43616 21.0168 11.1845 21.6916C11.3446 21.246 11.5638 20.8247 11.7617 20.395L13.5507 16.6641C14.0555 15.6535 14.5906 15.2394 15.2062 16.4202L16.068 18.6763L16.161 19.033C16.2798 19.4266 16.3436 19.8362 16.4253 20.238L16.6697 21.8137C16.6902 21.9661 16.6881 22.1218 16.7006 22.2752L16.7835 24.0564C16.7838 24.1403 16.7689 24.2512 16.8003 24.3297L31.24 24.3449L31.2455 22.8734C31.346 20.8877 31.7241 18.8072 32.525 16.9842C32.732 16.5128 32.8904 15.9815 33.3947 15.7632L33.427 15.7599C34.1265 15.6912 34.2827 16.3772 34.5304 16.8672L36.4483 20.8005C36.5874 21.0969 36.7094 21.4111 36.8714 21.6941C38.1631 21.2497 39.2426 20.5557 40.1975 19.5803L40.9007 18.8045C40.569 18.2408 40.293 17.6394 39.9904 17.0593L37.7649 12.6739C37.3258 11.8038 36.9763 10.8653 36.4825 10.0266C35.4498 8.2729 33.6269 6.78167 31.6595 6.27073L31.0478 6.1257C30.9748 6.82147 31.0822 7.53912 31.0252 8.23592C30.8543 10.3238 29.7186 11.4744 28.3479 12.8347L25.1986 15.9736C24.9252 16.253 24.6361 16.6213 24.3033 16.8245C23.8576 17.0965 23.5803 16.7263 23.2999 16.4567L19.5577 12.7505C18.2335 11.4283 17.2206 10.3335 16.9748 8.32512C16.9303 7.96165 16.9982 6.18036 16.8867 6.137L16.8191 6.1474ZM18.5005 6.23562C18.3791 7.10323 18.4024 8.14044 18.706 8.97631L18.7851 9.19104C19.1451 10.0773 19.6422 10.6549 20.3239 11.2994L22.9453 13.8972C23.2952 14.244 23.6414 14.6111 24.0124 14.9342L28.5064 10.4412C29.4043 9.23881 29.7018 7.78184 29.4925 6.30758L29.4838 6.25273C27.7232 10.5842 21.3003 10.9789 18.9437 7.10998C18.7725 6.82897 18.6446 6.53033 18.5005 6.23562ZM24.9695 25.8931C24.9288 26.183 24.9658 26.5192 24.9628 26.8211L24.9671 41.5367C24.9697 41.6489 24.9612 41.7713 25.0071 41.8757C27.5616 41.8478 28.9032 41.6227 31.4179 40.8762L33.0955 40.3659C33.2998 40.3023 33.5196 40.2464 33.7175 40.1668L35.5372 39.5995L31.3768 25.8982L24.9695 25.8931ZM16.8646 25.898C16.5576 25.9169 16.6402 26.0067 16.5626 26.2936L15.2904 30.6095L12.4943 39.5935L19.4115 41.61L20.9362 41.8049C21.6354 41.8746 22.7615 41.9 23.4399 41.86L23.4402 26.4569C23.4401 26.2737 23.4543 26.0801 23.4321 25.8985L16.8646 25.898Z" fill="black"/>
</svg>
