<svg width="48" height="48" viewBox="0 0 48 48" fill="none" xmlns="http://www.w3.org/2000/svg">
<path d="M37.3491 43.8402C37.1416 43.775 37.1259 43.7733 36.9165 43.8524L34.8728 44.5203L32.5839 45.101C31.5842 45.3201 30.5717 45.5102 29.5542 45.6245L26.1264 45.9176L21.2837 45.8535C17.3896 45.6271 14.6103 45.0244 10.9568 43.8179C10.7577 43.7521 10.5421 43.8626 10.3244 43.815L10.2889 43.8067C10.179 43.7815 10.0802 43.7513 9.97756 43.7046L8.83995 43.1186C8.15942 42.7667 7.3226 42.486 7.03667 41.6967L7.02223 41.6561C6.81073 41.0875 6.99406 40.6012 7.18339 40.0668L10.1118 32.9496L14.1126 25.1562L15.2164 23.3204C15.628 22.6561 16.0488 22.0048 16.5651 21.4159C15.7574 20.1595 16.4282 18.4383 17.9264 18.1034C17.9752 16.2845 17.9085 14.2998 16.6687 12.8395C16.1714 12.2537 15.6706 11.7011 15.4599 10.9391L15.4508 10.9047C15.1984 9.97558 15.5579 8.96519 16.3654 8.42945C16.3169 8.12852 16.3138 7.81422 16.2882 7.50995L16.1255 6.0587C15.9874 5.05384 15.7305 4.08177 15.5045 3.09577C15.3882 2.58817 15.7029 2.16508 16.1951 2.06619C16.5582 2.07765 16.8086 2.26976 16.9554 2.60748L16.9679 2.63683C17.0218 2.75612 17.0404 2.86475 17.073 2.98839L17.7537 6.58258C17.811 7.03239 17.7931 7.48966 17.8674 7.93755L19.5232 7.6188C21.2696 7.5648 22.7429 7.98091 24.0254 9.17355C25.1161 8.03111 27.28 7.3143 28.8314 7.65845L29.5455 7.79589C29.7261 7.83672 29.9562 7.94889 30.1339 7.94992C30.2054 6.53416 30.3899 5.11375 30.7182 3.7338C30.8371 3.23382 30.9226 2.37539 31.4546 2.13365L31.4862 2.11984C32.0728 1.85729 32.6451 2.46122 32.5159 3.04031L32.0628 4.91026C31.8327 5.96917 31.7122 7.09989 31.6665 8.18139C31.6538 8.48059 31.6376 8.39247 31.878 8.5915C32.6074 9.1952 32.7238 10.1461 32.5279 11.0301C32.3534 11.8172 31.683 12.3969 31.2049 13.0038C30.0622 14.4541 30.0252 16.3215 30.0745 18.0818L30.3524 18.1517C31.3776 18.4704 31.9917 19.7774 31.724 20.782C31.5822 21.3148 31.3753 21.2263 31.6849 21.6696L32.8197 23.4085L35.6262 28.3946L37.1729 31.4532C37.4484 32.0132 37.7485 32.5793 37.9816 33.1581L40.4182 38.9754L40.7817 39.9845C40.9616 40.4725 41.1466 41.0016 41.0087 41.5274L40.9999 41.5593C40.7526 42.55 39.6787 42.8483 38.8826 43.2675C38.3402 43.553 37.9864 43.8982 37.3491 43.8402ZM19.7702 9.19703C19.3884 9.23889 17.2147 9.66091 16.9954 9.95917C16.7757 10.258 17.0116 10.7336 17.1986 10.9887L17.9314 11.8976C18.9424 13.1413 19.4378 14.9202 19.4749 16.5176L19.477 18.01L27.9814 18.0019C28.1346 18.002 28.3797 18.033 28.5206 17.9916L28.5187 16.3398L28.6277 15.4433C28.8225 14.2029 29.2125 13.0971 29.944 12.0754L30.5148 11.3556C30.8064 11.0035 31.3089 10.4418 30.9638 9.96222C30.7647 9.68556 29.0655 9.28511 28.6544 9.23748C25.5177 8.87397 24.9833 10.9727 24.0818 11.0913L24.0459 11.0963C23.9501 11.1083 23.8699 11.0921 23.7771 11.0694L23.7483 11.0625C23.1933 10.9154 22.7134 9.5057 20.6453 9.2387C20.3939 9.20627 20.0197 9.14087 19.7702 9.19703ZM18.931 19.5758C18.7425 19.5802 18.485 19.5558 18.3056 19.6045C17.3544 19.8621 17.7966 20.9321 18.3478 20.9972C18.6884 21.0374 19.0744 21.0032 19.4189 21.0033H29.0213C29.3921 21.0031 29.7341 21.0411 30.0142 20.7475C30.4011 20.3418 30.1939 19.6429 29.6066 19.5822C29.2612 19.5465 28.8831 19.5755 28.5348 19.5754L18.931 19.5758ZM30.1807 22.465C29.7274 22.6705 29.6818 22.7798 29.8369 23.2501L30.469 24.9493L32.2773 28.7801L37.4071 40.4767C37.5768 40.8514 37.7703 41.2448 37.8942 41.6368L38.005 41.9489L38.7482 41.5665L39.5514 41.1043C37.662 35.6107 34.6057 29.2706 31.5344 24.2902L30.8316 23.2004C30.6904 22.986 30.4709 22.584 30.2462 22.4528L30.1807 22.465ZM17.6787 22.4884C17.3794 22.8318 17.1442 23.2101 16.8952 23.59L14.4033 27.8031L11.8289 32.9506L8.94645 39.7506L8.4761 41.0903C8.49176 41.1477 8.64096 41.2238 8.6951 41.2555L9.39021 41.6398L9.98426 41.9763C10.2487 41.1481 10.6301 40.3511 10.9852 39.5585L15.5457 29.09L17.2365 25.5273C17.4068 25.1485 18.3458 23.0963 18.1824 22.7817C18.1169 22.6558 17.8368 22.4544 17.6787 22.4884ZM19.7221 22.5799C19.7667 23.2327 19.6441 23.6586 19.4152 24.2898L19.1144 25.0828C18.3436 26.9858 17.3735 28.7984 16.5177 30.6632L12.8659 39.171C15.5009 40.119 18.2923 40.672 21.0818 40.8745L23.1551 40.9635L25.9395 40.9062C26.7057 40.8658 27.4752 40.858 28.2377 40.7582L29.861 40.5322C30.2953 40.4588 30.7284 40.3756 31.16 40.2862L31.9883 40.0937C32.4147 39.9962 34.834 39.3781 35.1641 39.1586L31.6936 31.1535L29.5056 26.5548C28.9616 25.3741 28.1758 23.9042 28.2264 22.5814L19.7221 22.5799ZM12.2045 40.581L11.4991 42.3135C13.4132 43.1077 16.0081 43.6828 18.0467 43.9682L19.4998 44.149C20.1753 44.2251 20.8093 44.2412 21.4735 44.2933C22.3556 44.3626 23.2287 44.3571 24.113 44.3565L27.4822 44.2602C28.4699 44.1903 29.4563 44.0522 30.4334 43.899L31.7893 43.666L35.5468 42.6708C35.6691 42.635 35.7884 42.582 35.9124 42.554L36.5186 42.3336L35.8157 40.6223L34.3697 41.0867C33.0599 41.4776 31.7114 41.8237 30.3649 42.0583L27.3237 42.4481L25.4748 42.5401L22.5914 42.5378L20.9403 42.4457C18.7863 42.28 16.6454 41.9191 14.5642 41.341L12.8709 40.8232C12.6507 40.7463 12.4177 40.6758 12.2045 40.581Z" fill="black"/>
</svg>
