<svg width="48" height="48" viewBox="0 0 48 48" fill="none" xmlns="http://www.w3.org/2000/svg">
<path d="M32.5843 42.1035L30.8018 42.6077C29.7172 42.8649 28.5716 43.0334 27.46 43.0981L23.623 43.1045C23.0423 43.0962 22.5576 43.1508 21.9943 43.1521L20.8711 43.1245C18.0953 42.9188 15.3137 42.3444 12.8233 41.0587C12.0591 40.6642 11.2153 40.4813 11.7364 39.4869L12.7054 37.5377C12.8734 37.1644 13.0111 36.7914 13.1242 36.3977L14.4703 31.8691C14.7194 31.0149 14.9891 30.1614 15.1624 29.2876C15.4994 27.588 15.4358 25.8298 15.8852 24.1455C16.2028 22.9552 16.5774 21.7853 17.0709 20.6553C17.5021 19.6679 18.8235 17.2688 18.69 16.227C18.641 15.8444 18.4748 15.7445 18.6973 15.323C18.8932 14.9518 18.0343 13.9227 17.8379 13.5906C17.2453 12.5886 17.223 12.0717 17.0302 11.0374L17.0156 10.9571C16.9688 10.6644 16.9909 10.3476 16.9905 10.0511L16.9903 6.80855C16.9904 6.51553 16.8874 5.98669 17.0713 5.7419L17.0887 5.71917C17.1616 5.62022 17.2389 5.54644 17.3593 5.50908L17.3871 5.50092C17.5284 5.45869 17.6759 5.45648 17.8199 5.42798C18.6262 5.26856 19.3657 4.90955 20.158 4.71544C20.7442 4.66106 20.8141 5.24826 20.8143 5.65401V6.54384C20.8149 7.55606 21.1562 8.13722 22.057 8.65003C23.2394 9.3232 23.2996 9.6472 24.026 10.5762C24.4664 9.71737 25.0488 9.15623 25.8716 8.68458C27.332 7.84748 27.1638 7.23169 27.1628 5.61117C27.1626 5.26439 27.1365 4.96565 27.5042 4.78819L27.5343 4.77422C27.8842 4.60914 28.1894 4.82967 28.5252 4.93739L29.7843 5.30597C30.6822 5.55417 31.0002 5.32744 31.0011 6.43617L31.0012 10.0609C31.001 10.414 31.033 10.8064 30.9833 11.1547C30.7223 12.9862 30.0265 13.6403 29.23 15.1202C29.3351 15.5771 29.5664 15.63 29.3005 16.1746C29.3914 17.3999 29.6789 18.1287 30.2282 19.2426L30.8831 20.6304L31.8673 23.2857C32.0404 24.0526 32.2916 24.7976 32.4033 25.5808L32.714 28.7055C32.7997 29.4071 33.0227 30.0441 33.1701 30.727L34.7192 35.8246C35.0941 37.0629 35.3387 37.7493 35.9623 38.9471C36.5966 40.1654 36.8143 40.2003 35.3204 40.9663C34.4338 41.4208 33.5316 41.7971 32.5843 42.1035ZM28.4325 6.25354C28.4117 6.61519 28.4403 6.98962 28.3946 7.34798C28.2514 8.47242 27.5566 9.14906 26.6559 9.69576C25.8115 10.2083 25.2129 10.7827 24.8657 11.7158C24.7115 12.1302 24.6516 12.597 24.1613 12.732C23.4355 12.9319 23.2975 12.0994 23.0947 11.6134C22.0591 9.13167 19.4979 10.0235 19.5335 6.29423L19.5052 6.30515C19.1031 6.45773 18.6366 6.54028 18.2165 6.63689L18.2293 9.85589L18.2396 10.5979C18.2438 11.1549 18.3975 11.7224 18.611 12.2348L18.786 12.6215C19.0737 13.2016 19.6053 13.7539 19.8024 14.3559L19.912 14.6924C19.9451 14.7886 19.9475 14.9091 19.9595 15.0106C20.3314 15.0536 20.7423 15.021 21.1193 15.021L26.5123 15.0201C27.008 15.0198 27.5286 15.051 28.0213 15.012L28.1549 14.4701C28.295 14.0456 28.5929 13.6978 28.8302 13.326C29.5662 12.173 29.749 11.3718 29.753 10.0702L29.7503 7.21373C29.7497 7.01184 29.7654 6.79214 29.7384 6.5925C29.3164 6.5235 28.8192 6.44217 28.4325 6.25354ZM20.5874 16.2446C19.5752 16.28 20.1141 16.2916 19.8734 17.1969C20.1344 17.2285 20.4217 17.2067 20.6855 17.2069L27.4395 17.2079C27.6612 17.2068 27.9064 17.2352 28.1247 17.2035L28.0239 16.2484L20.5874 16.2446ZM19.4819 18.4775L18.4568 20.7098C17.4601 22.9039 16.923 24.7638 16.6897 27.1528C16.5739 28.3391 16.528 29.1599 16.2291 30.3143L14.7598 35.3711C14.6241 35.8227 14.5091 36.2884 14.348 36.7312C14.9073 37.042 15.5413 37.2355 16.1485 37.4313C18.8282 38.2953 21.7044 38.6154 24.5133 38.5282L27.5409 38.2865C27.7825 38.2548 28.0202 38.2348 28.2598 38.1865C30.0812 37.9548 31.9197 37.3973 33.6315 36.758L32.6466 33.3772C32.1709 31.8782 31.6219 30.3291 31.4374 28.7582L31.2858 26.9684C31.0503 24.6782 30.409 22.698 29.4541 20.61L28.8916 19.3977C28.7755 19.1427 28.6418 18.8766 28.581 18.6024C28.5318 18.3809 28.2423 18.4687 28.0726 18.4686L19.4819 18.4775ZM13.9167 37.9398L13.0648 39.7275L14.0391 40.2194C15.9216 41.0696 17.8693 41.5252 19.9106 41.7533L21.4269 41.892L26.702 41.8438C28.4806 41.7338 30.348 41.5125 32.0401 40.9314L34.211 40.0799L34.9606 39.6858C34.6124 39.1288 34.3526 38.5409 34.1034 37.9353C31.9582 38.8989 28.8502 39.5324 26.56 39.7297L25.6432 39.774C25.4717 39.7838 25.303 39.8182 25.1311 39.8249L23.6901 39.8312C23.1775 39.8315 22.6534 39.8536 22.1423 39.8245L18.8237 39.4106C17.5137 39.1813 16.2391 38.875 14.9937 38.4027L13.9167 37.9398Z" fill="black"/>
</svg>
