<svg width="48" height="48" viewBox="0 0 48 48" fill="none" xmlns="http://www.w3.org/2000/svg">
<path d="M33.4512 43.4411C32.4258 43.5927 31.4148 43.3574 30.4924 42.9152C30.203 42.7765 29.9247 42.5968 29.6219 42.4885C28.1107 41.948 27.4385 42.7222 26.282 43.2682C24.8727 43.9335 22.951 43.756 21.5625 43.1356C21.1131 42.9349 20.7275 42.6327 20.262 42.4605C18.9311 41.968 18.0794 42.8191 16.9726 43.1756C14.9625 43.823 13.7178 43.0314 11.947 42.3126L11.0255 41.9605C9.94172 41.5592 9.87501 41.4014 10.2543 40.3003L16.6193 21.9076C16.7017 21.6283 16.7076 21.619 16.6196 21.3387L14.1514 14.3204C13.7726 13.2202 13.5949 13.2382 14.562 12.5996C15.2379 12.1533 15.7736 11.538 15.934 10.7236L15.9408 10.6876C16.1692 9.52279 15.5139 7.8075 14.8674 6.78548C14.4004 6.04715 13.601 5.40136 14.9651 4.96804L16.623 4.36131C17.2192 4.31818 17.3024 4.65217 17.5526 5.10061C18.6155 7.00542 19.3938 8.32111 21.7688 8.892C22.5476 9.07917 23.3798 9.01931 24.1716 9.02025L25.2101 9.02011C27.3117 9.01654 29.2085 7.65253 30.2455 5.87475C30.3722 5.65767 30.5533 5.38275 30.6322 5.14467C30.754 4.77679 30.7835 4.22596 31.4664 4.37303C31.6594 4.41459 31.8103 4.52537 31.9927 4.5862C32.3515 4.70582 33.5953 4.97864 33.7683 5.27554C34.0783 5.80767 33.5949 6.12234 33.359 6.5309C32.6205 7.81022 31.8326 10.5082 32.6059 11.829C32.9753 12.46 33.8056 12.6101 34.0441 13.0443L34.0597 13.0739C34.1261 13.1943 34.149 13.2942 34.1312 13.4324L34.1265 13.465C34.0989 13.6705 34.0088 13.8805 33.9372 14.0744L31.3479 21.3264C31.2972 21.4894 31.2654 21.5349 31.3257 21.7067L31.595 22.5119C31.6757 22.7073 31.7191 22.9169 31.7965 23.1108L34.6771 31.5721C34.7399 31.8274 34.8502 32.0832 34.9346 32.3332L37.2357 38.8768C37.4536 39.3932 37.5962 39.9487 37.7826 40.4767C38.1107 41.4064 38.0857 41.5587 37.1046 42.0286L35.9587 42.5563C35.111 42.9493 34.3908 43.3366 33.4512 43.4411ZM16.3577 5.91811L16.0114 6.07959L16.6167 7.25057L17.004 8.25797C17.7016 10.1116 17.2378 12.6945 15.3738 13.6768L15.3553 13.6856C15.4004 13.8244 15.4535 13.9573 15.4924 14.0978L15.6598 14.5882C15.7065 14.7808 15.8036 15.006 15.8791 15.1902L17.8958 21.0182L30.0652 21.0151L30.1321 20.781C30.1612 20.6494 30.22 20.5232 30.2661 20.3968L31.6171 16.5657L32.6533 13.6648L32.1641 13.3438C31.2965 12.674 30.9846 11.5262 30.9614 10.469C30.9269 8.89809 31.4717 7.44018 32.0962 6.03309C31.9769 5.9939 31.8638 5.96123 31.7396 5.94051C31.5313 6.31659 31.3536 6.71151 31.1133 7.06865C29.9202 8.84179 27.9693 10.059 25.8583 10.3682L25.4182 10.4146C24.1172 10.6053 22.5915 10.4738 21.3294 10.1548C19.6225 9.72323 18.242 8.71795 17.2386 7.28198L16.3577 5.91811ZM17.8387 22.4831L11.5176 40.6766C11.9019 40.8972 12.371 41.0284 12.7825 41.1981C13.7738 41.6072 15.0552 42.2839 16.1894 41.9869L16.2685 41.9638C16.7551 41.8181 17.0654 41.6631 17.52 41.4296C18.6353 40.8569 19.9997 40.849 21.1398 41.3561C21.433 41.4864 21.6944 41.6832 21.974 41.839C22.8981 42.3538 24.71 42.5307 25.7238 42.0536C26.1017 41.8756 26.4202 41.6019 26.7893 41.4122C27.804 40.8906 29.1748 40.8374 30.2299 41.2792C30.6698 41.4634 31.0765 41.7211 31.5194 41.8949C32.2812 42.1938 33.402 42.2149 34.17 41.9163C34.4803 41.7956 34.7508 41.6094 35.0502 41.4683L36.4986 40.7893L30.2979 22.8253C30.2566 22.7078 30.2418 22.5892 30.1811 22.4793L28.3807 22.48L28.5062 23.277C28.5542 23.4558 28.5653 23.6352 28.6057 23.8137L30.2354 32.3322C30.2967 32.6007 30.3326 32.8783 30.3885 33.1484L30.9436 35.9101C31.0437 36.3907 31.2596 37.0666 30.5256 37.2417C30.1876 37.3223 29.9126 37.1261 29.7865 36.8204L29.7757 36.7946C29.7007 36.6073 29.6764 36.4011 29.6354 36.2049L27.3651 24.4067C27.2526 23.7671 27.0969 23.1257 27.0128 22.482L21.4777 22.4815C21.4449 22.6205 21.4422 22.7543 21.4202 22.8938L19.4069 35.0158L18.8309 38.6357C18.8047 38.8217 18.7876 39.0302 18.7258 39.2082C18.4591 39.9758 17.3608 39.6788 17.4387 38.8705C17.4717 38.5283 17.5612 38.1825 17.6141 37.842L20.124 22.4856L17.8387 22.4831Z" fill="black"/>
</svg>
