<svg width="48" height="48" viewBox="0 0 48 48" fill="none" xmlns="http://www.w3.org/2000/svg">
<path d="M15.6197 43.6212L13.939 42.9494C13.6047 42.8039 13.1818 42.6724 13.0343 42.3039L13.0196 42.266C12.8835 41.9428 12.9875 41.5711 13.0197 41.2379L13.808 35.0041L16.0268 22.0729C16.0785 21.7317 16.2735 21.475 16.2249 21.1269L16.1482 20.5666C15.8495 18.1264 14.9586 14.5042 13.1268 12.6915C12.8247 12.3925 12.4841 12.1091 12.2235 11.7718C10.3102 9.29493 11.6213 5.78385 14.4397 4.65252C14.8459 4.48949 15.2757 4.3667 15.6907 4.22635L18.357 3.27724C18.6564 3.16726 19.1512 2.91331 19.4736 3.05406L19.5883 3.10522C20.1218 3.39505 19.7401 4.16872 19.9823 4.83285L20.2285 5.44673C21.1085 7.42781 23.5417 8.54216 25.6055 7.59191C26.8123 7.03631 27.908 5.70074 28.1272 4.37416C28.2264 3.77374 27.7929 3.36202 28.5974 3.00293C28.9765 2.98966 29.1862 3.11352 29.5365 3.24627L33.6036 4.66243C35.8107 5.51915 36.9896 7.69373 36.5835 10.0048L36.4905 10.3709C36.3277 11.0341 35.8591 11.6896 35.3967 12.179L34.7304 12.84C33.1492 14.5403 32.3655 17.4024 31.9727 19.676L31.7498 21.4435C31.861 21.5914 31.9416 21.7971 31.9621 21.9801L33.504 31.1924C33.5806 31.4794 33.5996 31.784 33.6569 32.0744L34.271 35.6936L34.9797 41.3291C35.0416 41.9497 35.1512 42.4304 34.4959 42.7478C33.6603 43.1525 32.802 43.4982 31.9224 43.7931L30.9675 44.1086C29.6047 44.4868 28.1815 44.7391 26.7737 44.866L24.945 44.9752C22.3122 45.0495 19.5929 44.7963 17.051 44.0893L15.6197 43.6212ZM18.4931 4.76971L17.7063 5.02635C17.7169 5.18329 17.7526 5.32616 17.7703 5.47973L18.7011 11.8484C18.8831 13.3189 19.4035 14.3849 20.9581 14.8941C21.3879 15.0348 21.7922 15.0166 22.2381 15.0171L25.6593 15.0166C25.9822 15.0162 26.3343 15.0414 26.6528 14.9912C27.8072 14.8092 28.8684 13.8487 29.1461 12.7161L29.8985 7.74857L30.3116 5.03971C30.238 4.98351 30.1069 4.96134 30.018 4.93073L29.5446 4.75096L29.2447 5.71893C28.914 6.74151 29.0725 6.84079 29.0029 7.85652C28.5866 13.926 19.731 13.6035 19.063 8.43074C18.9856 7.83145 19.0948 6.70382 18.9683 6.25471C18.8256 5.74771 18.609 5.30962 18.5272 4.77899L18.4931 4.76971ZM16.2833 5.51971L14.7897 6.09431C13.3735 6.73743 12.2426 8.44251 12.879 9.98352L13.0353 10.3631C13.329 11.0067 13.9665 11.445 14.4268 11.9631C15.2148 12.8501 15.8393 13.9807 16.2451 15.0939L16.9775 17.3959C17.0286 17.6752 17.1076 17.9624 17.168 18.2423L17.4844 19.8986C17.5394 20.2694 17.5714 20.6439 17.6079 21.0165L30.3882 21.0209C30.5825 18.212 31.6928 13.9456 33.5688 11.9568C33.8625 11.6331 34.1996 11.355 34.4945 11.0341C35.6667 9.75876 35.4434 7.86243 34.1966 6.72759C33.4665 6.06295 32.5919 5.87043 31.701 5.52159L30.6649 12.3767C30.606 12.7309 30.5509 13.0926 30.4279 13.4322C29.7155 15.3982 27.9731 16.4781 25.9388 16.4805L22.6582 16.4807C22.1918 16.4805 21.6751 16.5263 21.2198 16.4233C19.3486 16 18.0215 15.0896 17.4768 13.1006C17.2913 12.4234 17.2542 11.6974 17.1484 11.0041L16.3521 5.77359C16.3396 5.69704 16.3481 5.55206 16.2833 5.51971ZM20.4954 8.06606C20.4957 8.19285 20.4992 8.30188 20.53 8.42596L20.5798 8.60174C21.1145 10.2474 22.4211 10.8794 24.0524 10.876C24.2534 10.8756 24.4493 10.8808 24.6476 10.8445L24.7433 10.8277C25.8226 10.6375 26.663 10.2175 27.1829 9.17409C27.3817 8.79679 27.4459 8.4637 27.513 8.0489C25.3865 9.77723 22.618 9.98306 20.4954 8.06606ZM17.399 22.4816L15.2429 34.9704C15.2241 35.0761 15.1846 35.194 15.1884 35.3003C16.3715 35.9553 18.4088 36.5309 19.6993 36.7493L21.42 36.9731C22.3802 37.0767 23.139 37.0891 24.1137 37.0882L26.7305 36.9615C27.8084 36.842 28.8797 36.671 29.9245 36.371C30.3673 36.2664 32.4371 35.5911 32.8048 35.2954L30.5898 22.4843L17.399 22.4816ZM15.0121 36.8022L14.4082 41.5359C15.0846 41.9705 16.0675 42.26 16.8231 42.5107C16.9637 42.5574 17.6874 42.8719 17.7421 42.7385L18.3762 37.9377C17.6055 37.7456 16.8372 37.5284 16.0929 37.2495L15.0121 36.8022ZM32.9334 36.8556L29.6684 37.9511C29.6862 38.2806 29.742 38.6019 29.78 38.9286L30.2261 42.4572C30.2424 42.5661 30.2345 42.6611 30.2696 42.768L30.3165 42.7847C31.2885 42.5783 32.7207 41.9852 33.5836 41.5492L33.0064 36.8556C32.9803 36.8535 32.9596 36.8522 32.9334 36.8556ZM19.7532 38.2048L19.1181 43.0869C20.0404 43.2962 21.795 43.502 22.7328 43.501L23.2778 43.5009C23.3188 43.0673 23.2926 42.6063 23.2932 42.1694L23.2944 39.6979C23.2944 39.5146 23.3313 38.625 23.2812 38.5164L21.8668 38.4444C21.1701 38.4085 20.4246 38.4104 19.7532 38.2048ZM28.1418 38.2356L24.7068 38.528L24.7072 43.5005L25.5293 43.501L27.9578 43.2472C28.2592 43.2063 28.5843 43.1751 28.8775 43.093L28.2742 38.2385C28.2188 38.2129 28.2026 38.2237 28.1418 38.2356Z" fill="black"/>
</svg>
