<svg width="48" height="48" viewBox="0 0 48 48" fill="none" xmlns="http://www.w3.org/2000/svg">
<path d="M32.7716 42.0707C30.9001 42.1548 29.9426 41.5342 28.0023 42.6327C27.7273 42.7884 27.6069 43.028 27.3588 43.2238C26.5919 43.8292 25.6594 44.1801 24.6714 44.048L24.6329 44.0424C24.3064 43.998 23.9164 43.818 23.5903 43.8634L23.5548 43.8689C23.164 43.9263 22.7966 44.119 22.4052 44.2004C21.4764 44.3936 20.3734 44.1855 19.6978 43.4896C19.3575 43.1392 19.0732 42.7128 18.6555 42.4445C17.5071 41.7069 17.2451 42.1311 16.1569 41.972C13.8995 41.6421 13.3552 39.816 11.4697 39.102C11.0195 38.9315 10.295 38.7714 10.4176 38.1169L10.4238 38.0857C10.4626 37.8792 10.5422 37.683 10.6033 37.4823L12.4747 31.9621C13.3993 29.4933 14.4571 27.0752 15.795 24.7996L16.9993 22.8942C17.5937 22.0336 18.2283 21.2292 18.642 20.2607C19.639 17.9266 19.7006 14.9595 18.4465 12.7029C17.7212 11.3978 17.637 11.5143 17.6033 10.0737C17.5843 9.26672 17.4387 8.5042 17.2852 7.7145L16.8389 5.12948C16.701 4.16438 17.464 4.18637 18.1492 4.04667C18.6155 3.95156 19.092 3.82322 19.5625 3.75891C19.8972 3.71777 20.2293 3.89084 20.3343 4.21857L20.3444 4.25367C20.4054 4.4089 20.4094 4.55523 20.4323 4.71951L20.5262 5.27817C20.6427 5.93779 20.97 8.06119 21.2112 8.55839C22.555 11.3288 25.7936 11.1645 26.8492 8.40126C27.0413 7.89853 27.1451 7.36237 27.2516 6.83658L27.6173 5.0917C27.8456 4.0867 27.7013 3.63404 28.8643 3.83802L29.8293 4.01929C30.2907 4.10118 30.9618 4.07108 31.1406 4.616L31.1544 4.66083C31.2502 4.95117 31.158 5.29537 31.1142 5.58965L30.6782 7.83914C30.4815 8.83992 30.4459 9.31898 30.4449 10.3564C30.4438 11.383 29.8884 12.0475 29.4689 12.9245C28.6693 14.5961 28.422 16.9034 28.864 18.7285L29.1597 19.7126C29.2903 20.2059 29.5443 20.7714 29.822 21.199L31.3391 23.3743C32.3281 24.9515 33.6378 27.178 34.3238 28.9333L35.6011 32.0505L37.5014 37.863C37.8415 38.7994 37.3828 38.8076 36.8089 39.1393C35.2599 40.0343 35.1467 41.7612 32.7716 42.0707ZM19.1452 5.21461L18.2113 5.3624L18.5743 7.4692C18.6633 7.87045 18.7612 8.29673 18.8055 8.70572L18.916 10.5105C18.9169 11.0511 19.2003 11.3169 19.4539 11.7747C19.8502 12.4903 20.1777 13.2414 20.3539 14.0432L20.4474 14.4373C20.4755 14.5943 20.5068 14.7472 20.5309 14.906L20.6633 15.995C20.776 16.7631 20.6629 17.627 20.5944 18.3928L26.7382 18.3924C26.9719 18.3923 27.2292 18.4129 27.4595 18.3776C27.1453 16.086 27.5129 13.7365 28.6189 11.6982L28.983 11.0173C29.1752 10.6422 29.1082 10.4032 29.1079 9.98751C29.1069 8.92237 29.2934 8.02186 29.5134 6.98531L29.7936 5.35134L28.9298 5.22319C28.8419 5.52623 28.8094 5.84559 28.7404 6.15365L28.4206 7.61273C28.3417 7.96139 28.2734 8.32992 28.1614 8.66869C27.6368 10.2538 26.2204 11.6576 24.5157 11.8698L24.4814 11.8743C23.86 11.9491 23.1602 11.8577 22.5812 11.6363C20.4647 10.8269 19.9459 9.25945 19.5714 7.29764L19.3166 5.946C19.2934 5.80823 19.2596 5.25544 19.1452 5.21461ZM20.244 19.7169C20.0077 20.3047 19.8132 20.9053 19.5118 21.4705C19.0352 22.3642 18.4117 23.1784 17.8438 24.0151C15.4561 27.5333 13.9406 31.5867 12.5711 35.5847L11.8755 37.812C12.4976 38.0723 13.1142 38.3895 13.6454 38.8094C14.4012 39.4071 14.9321 40.2449 15.9024 40.5199C16.076 40.569 16.6679 40.7113 16.846 40.656C16.9104 38.9876 17.1605 37.343 17.4128 35.6948L18.2133 29.613C18.4496 27.2695 18.3859 25.9165 19.7769 23.815C20.7895 22.2851 21.5302 23.5327 21.2184 24.0766L21.1984 24.1132C21.0614 24.3571 20.8735 24.5745 20.7196 24.8084C19.7689 26.2536 19.6824 27.8375 19.5474 29.5138L19.3712 31.1146L18.1933 39.6919C18.1789 39.8354 18.082 40.6334 18.1047 40.7088C18.8806 40.9957 19.618 41.4033 20.179 42.0223C20.8709 42.7855 21.1567 43.201 22.41 42.8238C23.357 42.5388 23.3896 42.3319 24.4891 42.649C25.2458 42.8673 25.9986 42.6041 26.5899 42.1269C26.9218 41.8591 26.8098 41.1334 26.8102 40.7118C26.8125 38.0123 26.6078 35.2257 25.4507 32.7416C25.2206 32.2477 25.3369 32.0424 25.3102 31.518L25.1301 29.5999C24.9353 27.9223 24.6316 26.2359 23.8954 24.7029C23.7342 24.3672 23.4598 24.0618 23.5214 23.6662L23.5253 23.6401C23.5482 23.5035 23.627 23.4118 23.7218 23.3163L23.7584 23.2871C24.5867 22.6494 25.1249 24.1602 25.3357 24.7029L25.9103 26.5095C26.0371 26.9111 26.0961 27.3539 26.168 27.7685L26.6244 31.5532C26.6405 32.0111 26.6658 32.2434 26.8369 32.6592L27.129 33.4015C27.2402 33.7061 27.3054 34.0291 27.4145 34.3319L27.5031 34.6651C27.8569 35.7629 28.0831 37.8204 28.0989 39.0584L28.1002 40.3776C28.1001 40.615 28.0889 40.8586 28.109 41.0951C29.0377 40.7608 29.8981 40.5825 30.8978 40.5923L30.8924 40.5641C30.8634 40.4065 30.8548 40.2483 30.8354 40.0896L30.2162 35.5076L29.1876 30.3477C28.7177 28.4259 28.1879 26.451 27.2353 24.7044L26.9546 24.2341C26.3581 23.3304 27.2825 22.8321 27.7304 23.1574L27.7899 23.2016C28.2303 23.5371 29.0014 25.3091 29.1935 25.8125L30.2904 29.3603C30.2978 29.3983 30.3089 29.4306 30.3209 29.467L31.6359 36.1245L32.2034 40.7587C32.4536 40.7348 32.7201 40.7244 32.9649 40.6681C34.2209 40.3796 34.8743 38.6572 36.1915 37.9735C36.076 37.6832 36.0046 37.3769 35.9093 37.0796L35.2106 34.8958C33.9232 31.0013 32.2849 27.2957 30.0639 23.8405C29.1781 22.4625 28.1592 21.4321 27.7909 19.7312L20.244 19.7169Z" fill="black"/>
</svg>
