<svg width="48" height="48" viewBox="0 0 48 48" fill="none" xmlns="http://www.w3.org/2000/svg">
<path d="M31.5355 0C33.0803 0.680522 33.0461 1.57852 32.652 3.08203L32.3157 4.43273C32.1715 5.00039 32.0184 5.5672 31.852 6.12891L31.7354 6.59766C31.7066 6.74344 31.7003 6.75558 31.7483 6.89686L31.8868 7.30336C32.293 8.36123 31.8392 10.0762 31.5072 11.1074L30.5378 14.0002C30.2334 14.9625 30.6231 17.8755 31.06 18.9832L31.1959 19.4062C31.6903 21.159 32.6979 23.0617 33.4974 24.6948L35.5314 29.4023C35.7791 30.085 36.0785 30.7879 36.2632 31.4902L37.016 33.9785C37.0897 34.3581 37.209 34.7589 37.313 35.1328L37.5353 35.9619C37.5633 36.0659 37.5742 36.1752 37.6083 36.2772L37.6966 36.5981C38.0946 37.7361 37.3636 39.3097 36.4793 40.0041C35.7991 40.5381 34.7687 40.9096 33.8964 40.7937C33.5201 40.7436 33.2021 40.5644 32.838 40.494C32.6606 40.4597 30.7799 40.4634 30.7307 40.5021C30.6156 40.5926 30.5171 40.7837 30.4227 40.9002C29.0591 42.582 26.8839 43.1608 24.8321 42.3764C24.3895 42.2071 24.1673 41.9261 23.791 42.0988L23.2492 42.3285C21.2565 43.1183 19.1297 42.6792 17.7055 41.0776L17.3161 40.5997C17.2149 40.4811 17.2276 40.4832 17.0694 40.4826L14.3486 40.4817C13.9786 40.4814 13.5364 40.5291 13.1774 40.4549L12.6761 40.3389C11.2145 39.9257 9.92874 38.2057 10.3881 36.7092C10.4978 36.3517 10.5652 35.9694 10.6487 35.6046L11.0498 33.9652C11.4614 32.3256 11.9577 30.6893 12.5613 29.1094L14.1017 25.5085C15.3702 22.8527 16.8879 20.1207 17.3379 17.171L17.477 16.0665C17.7286 13.7663 16.7583 12.193 16.185 10.035C15.9349 9.09352 15.8073 8.05003 16.176 7.12088L16.2938 6.85725C16.3512 6.74231 16.3383 6.76102 16.2966 6.63623L15.2715 2.79811C14.9004 1.41117 15.1365 0.43959 16.5554 0H17.2109C18.8749 0.745266 18.6429 2.35577 17.6368 2.19027L17.6004 2.18448C17.081 2.09599 17.1723 1.58977 16.851 1.51198C16.3046 1.37973 16.5463 2.20596 16.6321 2.44362L17.1665 4.50513C17.2378 4.84959 17.3167 5.24963 17.4654 5.5702C18.171 5.15161 18.9748 4.89853 19.799 5.11842L19.9923 5.18095C20.8379 5.49056 21.2843 5.93198 21.9449 6.5092L24.0151 8.28295L25.882 6.65334C27.2139 5.48995 28.3202 4.43583 30.2491 5.39972C30.3483 5.44927 30.4771 5.56069 30.5821 5.57897C30.629 5.22117 30.7495 4.85991 30.8437 4.51172L31.2344 3.01916C31.3147 2.71248 31.5593 1.94194 31.4584 1.66315C30.9272 1.06024 30.9771 2.31559 30.1876 2.18772L30.152 2.18249C29.7554 2.11815 29.4864 1.65965 29.565 1.27725L29.6061 1.14412C29.7386 0.738741 30.0771 0.34768 30.4576 0.156816L30.8239 0H31.5355ZM28.74 6.50002C28.05 6.61406 27.634 7.00378 27.1247 7.45758L25.8799 8.55267C25.1816 9.17728 24.2353 10.2997 23.2526 9.50156L20.9049 7.48097C20.2045 6.88195 19.5373 6.19041 18.5274 6.63877L18.4885 6.65569C17.2191 7.22409 17.1721 8.66939 17.5787 9.82031L17.7285 10.3395C17.7863 10.5527 17.8701 10.7867 17.9547 10.9922L18.2942 12.0167L18.7801 13.8412C18.8225 13.9784 18.8347 14.13 18.8601 14.2715L29.0325 14.2711C29.1441 13.7028 29.3489 13.1631 29.5312 12.614L30.3686 9.95048C30.4951 9.48853 30.6429 8.95416 30.648 8.47266C30.6588 7.44258 29.8313 6.41977 28.74 6.50002ZM18.9143 15.7326L18.7918 16.9706C18.4936 18.9824 17.8279 20.8895 16.9868 22.7342L14.4062 28.2666C13.7393 29.88 13.1481 31.5548 12.6875 33.2393L11.7324 37.244C11.553 38.0843 12.4651 38.7211 13.1343 38.9816C13.3116 39.0506 13.6 39.018 13.7899 39.0182L16.1897 39.0195C16.3991 39.0194 16.6155 39.0323 16.8236 39.0132C17.1315 37.2879 17.1137 35.3177 17.2739 33.555L17.9119 28.3914C17.9538 27.9195 17.9667 27.4382 17.9479 26.9648C17.9371 26.6922 17.8519 26.3568 17.9023 26.0909C17.9962 25.595 18.5949 25.4025 18.988 25.6758L19.0136 25.6934C19.1175 25.7693 19.1963 25.909 19.2405 26.0273L19.2592 26.0713C19.5884 26.8517 19.3299 28.5976 19.2275 29.4141L18.6695 33.7743L18.4697 36.6442C18.4472 36.9885 18.4648 37.369 18.4036 37.7061L18.1969 39.4701L18.7318 40.0767C19.9259 41.3813 21.3435 41.5947 22.9061 40.9269C23.0237 40.8767 23.1566 40.836 23.2642 40.7662L23.3548 38.4143C23.3677 38.1661 23.4174 37.9218 23.4263 37.6733L23.4272 32.228C23.4184 31.963 23.3739 31.7035 23.3604 31.4397L23.2699 30.1506C23.1794 29.124 23.0507 28.1325 22.8264 27.1257C22.6847 26.4902 22.4022 25.7927 23.2149 25.5429L23.2404 25.5349C23.5881 25.4328 23.8873 25.75 24.0002 26.0391L24.0154 26.0769C24.3607 26.9675 24.6287 29.206 24.6662 30.1207C24.7625 30.5694 24.8089 31.6865 24.8292 32.2379L24.8373 35.7981C24.8364 36.8491 24.8127 37.6301 24.7364 38.6602L24.6939 40.1836C24.6898 40.3641 24.6496 40.5941 24.6847 40.7666C25.1192 40.9762 25.5608 41.1609 26.0397 41.2438C27.2732 41.4576 28.6411 40.9427 29.3956 39.9339C30.0699 39.0325 29.8961 36.8954 29.8409 35.7412L29.7285 33.7794C29.5828 32.1912 29.3067 30.5932 28.9952 29.0297L28.4852 26.7772C28.4433 26.5773 28.3897 26.3713 28.4045 26.1652C28.4544 25.4682 29.483 25.2609 29.7393 26.0625L29.7524 26.0936C29.785 26.1762 29.8058 26.2713 29.8198 26.3591C29.9047 26.8897 30.0745 27.4217 30.2006 27.9461L30.6794 30.5508C30.9017 31.7509 31.089 32.9867 31.1815 34.2041L31.2317 35.6582C31.2845 36.6041 31.4254 37.3769 31.2457 38.3642C31.2239 38.4837 31.1581 38.9582 31.2129 39.042C31.7569 39.0353 32.3363 38.9688 32.8776 39.0247C33.3134 39.0697 33.7085 39.3391 34.1505 39.3696C35.5711 39.4675 36.6066 38.0929 36.297 36.7613L35.3378 33.2376C34.8356 31.5695 34.2736 29.9151 33.5917 28.3109L30.9074 22.5466C29.8494 20.163 29.3194 18.2915 29.0477 15.7385L18.9143 15.7326Z" fill="black"/>
<path d="M20.0292 47.9997C19.8308 47.8685 19.7001 47.7597 19.5928 47.5427L19.5719 47.5019C19.4841 47.3088 19.4811 45.7003 19.5643 45.5034C19.7809 44.9911 20.4864 44.8086 20.8177 45.3279L20.8404 45.3617C21.1127 45.7817 20.8406 46.3215 20.9644 46.7567L27.0491 46.7582C27.0178 46.3206 26.9107 45.6157 27.2245 45.2665C27.7033 44.7336 28.2647 45.0528 28.4422 45.6872C28.5199 45.9649 28.4786 46.3606 28.4785 46.6495C28.4785 47.26 28.5529 47.5961 28.0071 47.9997H20.0292Z" fill="black"/>
</svg>
