<svg width="48" height="48" viewBox="0 0 48 48" fill="none" xmlns="http://www.w3.org/2000/svg">
<path d="M31.3844 43.1267C29.578 43.8598 27.9594 44.3763 26.0057 44.0261L22.3268 43.5506C21.4782 43.4827 19.7898 43.389 18.9547 43.5215L18.6391 43.559C16.841 43.7084 14.9888 43.4296 13.5774 42.2119C12.8605 41.5934 12.6124 40.7183 12.5491 39.807L10.4334 39.3054C9.93746 39.1814 9.19632 39.1357 9.09047 38.5039L9.08447 38.4648C9.02204 38.076 9.27418 37.6815 9.40908 37.3317L13.7753 27.658L17.3034 20.9821C17.5685 20.5323 17.965 20.2151 17.8994 19.7469L17.428 16.5528L16.8164 13.3979C16.5101 11.9401 16.1307 10.4818 15.5347 9.11186L15.0581 8.09715C14.6091 7.1889 14.4623 7.07608 15.3206 6.32392C16.3584 5.4145 18.7654 3.97736 20.2148 3.83149C20.4597 3.77137 20.727 3.98843 20.8377 4.18321L20.8577 4.21923C21.0739 4.59983 20.9086 5.49897 20.9854 5.9664C21.0532 6.379 21.207 6.7217 21.3866 7.09637L21.3993 7.12328C21.7489 7.84094 22.4716 8.31929 23.2057 8.56829C24.8028 9.11003 26.3585 7.98972 26.8676 6.49825C27.0308 6.02031 27.0439 5.54279 27.0436 5.04339C27.0427 3.78461 27.3644 3.66231 28.4766 3.99117C30.0563 4.45828 31.511 5.24251 32.7442 6.33419C33.059 6.6129 33.4972 7.03328 33.2495 7.49495C32.7143 8.4924 32.35 9.60175 32.0457 10.6888L31.6396 12.2173C31.4591 12.8267 30.189 19.6229 30.2515 19.7345C30.2823 19.7896 30.4266 19.8766 30.479 19.9343C31.1278 20.6499 31.5229 21.4674 31.9897 22.3042L35.4501 29.8245L38.8379 38.1567C39.1823 39.0407 38.1412 39.3032 37.553 39.5575C36.779 39.8922 35.9809 40.243 35.2883 40.7276L33.9265 41.7376C33.1336 42.2835 32.2606 42.7309 31.3844 43.1267ZM28.4012 5.3545C28.3818 5.5359 28.3908 5.72172 28.3631 5.90087C27.9563 8.53459 25.6386 10.6795 22.9102 9.87808C20.7695 9.24929 19.7902 7.52251 19.5888 5.39898C18.4495 5.74947 16.9955 6.55201 16.1328 7.35133C16.4346 7.85922 16.7078 8.45533 16.893 9.0122L17.8216 11.9403L18.6376 15.9864C18.6687 16.3075 18.7451 16.6318 18.7958 16.9509L18.9001 17.596C18.9839 18.1772 19.0372 19.1487 19.1741 19.6151L28.9615 19.6073C29.0488 18.6248 29.2632 17.6418 29.43 16.6691C29.9227 13.7967 30.4308 10.8797 31.5127 8.15922C31.5556 8.05122 31.859 7.37087 31.8507 7.32133C30.9144 6.40679 29.6037 5.81406 28.4012 5.3545ZM18.7765 20.9826L10.5583 37.9766L11.822 38.2789C12.091 38.3432 12.3662 38.4295 12.6426 38.4492L12.6451 38.4209C12.6643 38.2196 12.7185 38.027 12.7562 37.829L13.1838 36.0591C13.7303 34.1871 14.5061 32.3882 15.4163 30.6652C16.6913 28.2514 18.1544 25.9429 19.0376 23.3455C19.1461 23.0266 19.2202 22.6765 19.358 22.3702C19.6326 21.7595 20.3034 21.852 20.5695 22.4787C20.9081 23.2767 18.3279 28.11 17.9047 28.8751L16.424 31.5352C15.4201 33.481 14.6231 35.5246 14.1133 37.6547L13.9399 38.4689C13.326 41.4751 15.2886 42.2141 17.9955 42.2035C18.3557 42.202 18.8153 42.2472 19.1586 42.1453C19.3154 42.0987 19.5166 42.1129 19.6802 42.112L21.6972 42.1179C22.3159 42.1486 23.1409 42.2268 23.7422 42.3134L26.5311 42.7468C27.5231 42.8621 28.5796 42.7062 29.5255 42.3902C30.7773 42.0419 32.1021 41.3824 33.171 40.6323C33.7966 40.1933 34.3819 39.6965 35.0257 39.2832C34.3743 38.0616 33.8318 36.7546 33.2805 35.4849L28.0355 23.6195C27.9089 23.3327 27.5905 22.8518 27.6973 22.5278L27.7351 22.4316C27.8721 22.089 28.2389 21.8712 28.5938 22.0351C28.9051 22.1789 29.2058 22.9059 29.3349 23.2576L36.1058 38.5429C36.1303 38.5982 36.1654 38.6494 36.1973 38.7005L37.415 38.1561C37.2522 37.6353 37.0409 37.1267 36.8453 36.6173L35.3342 32.9068L30.6938 22.6681C30.4237 22.143 30.1617 21.6489 29.7856 21.1916C29.55 20.905 29.5588 20.9831 29.1785 20.9829L18.7765 20.9826Z" fill="black"/>
<path d="M22.6055 41.1097C22.5073 41.094 22.3958 41.0807 22.3078 41.0314C21.619 40.6456 21.1818 37.8307 21.1213 36.9221C20.9677 34.6197 21.4143 32.7115 21.4836 30.502C21.5051 29.8151 21.4175 29.1335 21.4126 28.4487C21.4002 26.7201 21.5054 24.9962 21.7494 23.2852C21.8313 22.7104 21.819 22.1112 22.494 21.9668L22.582 21.976C23.565 22.1368 23.0479 23.4603 22.9747 24.0881L22.8761 24.9668C22.8101 25.7351 22.7642 26.3611 22.7586 27.1493L22.7697 31.0714C22.7522 31.5996 22.6576 32.1302 22.6044 32.6562L22.4147 34.8794L22.4105 36.5391C22.418 36.863 22.4504 37.2505 22.5024 37.5703L22.7448 38.7175C22.7689 38.8101 22.774 38.9094 22.8095 38.998L22.983 39.5729C23.1846 40.181 23.635 40.91 22.6055 41.1097Z" fill="black"/>
<path d="M30.7989 40.449C30.4819 40.4724 30.3606 40.3833 30.1475 40.1726L29.7028 39.7231C27.1826 37.1084 26.2084 33.6128 25.5946 30.1176L25.0162 25.2994C24.9956 25.0771 24.9617 24.8562 24.9512 24.633L24.9256 22.8512C24.9094 22.3889 24.9971 22.1336 25.4724 21.9862C26.2167 21.9255 26.2468 22.4613 26.2478 22.9754L26.2526 24.1058C26.2593 24.3339 26.3016 24.5589 26.315 24.7855L26.3448 25.6254C26.354 25.7648 26.3857 25.902 26.3999 26.0412L26.4372 26.6551C26.4633 26.972 26.504 27.3222 26.5605 27.6332L27.1719 31.348C27.3369 32.3894 27.9317 34.4948 28.4325 35.4436L28.9376 36.4679C29.4069 37.3458 30.0458 38.1661 30.723 38.8922C31.0442 39.2366 31.5741 39.5548 31.2798 40.0969C31.1743 40.2914 31.0032 40.3883 30.7989 40.449Z" fill="black"/>
</svg>
