<svg width="48" height="48" viewBox="0 0 48 48" fill="none" xmlns="http://www.w3.org/2000/svg">
<path d="M30.2303 43.5069C29.6539 44.1459 29.7994 44.6868 28.5468 44.9579L28.5185 44.9644C27.2433 45.2405 26.7322 43.6571 25.712 44.2727C25.4895 44.407 25.3091 44.6128 25.0825 44.7489C24.4604 45.1221 23.6722 45.0325 23.098 44.6066C22.3578 44.0576 21.9234 43.8578 21.0805 44.54C20.8794 44.7028 20.6879 44.8369 20.4393 44.918L20.2926 44.9616C19.5345 45.1269 18.5988 44.7645 18.1695 44.1063C17.9963 43.8408 17.8566 43.4769 17.5714 43.3108C16.8881 42.9126 16.0092 44.0353 14.8098 43.0132C14.0922 42.4018 14.1634 42.3886 13.2624 42.4381L12.3717 42.4606C11.5961 42.4733 11.1413 42.239 11.338 41.3361L15.1706 24.3401C15.4456 22.8598 15.5868 21.6897 15.5057 20.2058L15.4022 18.1574C15.3646 17.4517 15.4169 16.7464 15.2661 16.0481C15.0051 14.8391 14.2926 13.6597 13.3094 12.8917C12.8861 12.5611 12.3779 12.3041 11.915 12.0308L10.4996 11.1354C9.2614 10.3308 9.11674 10.0093 10.2881 9.02835C10.7766 8.61932 11.2498 8.16618 11.6148 7.64118L12.2508 6.62291C13.4703 4.76652 15.0622 4.43746 16.9637 3.73816L18.129 3.30622C18.426 3.19399 18.7132 3.07042 19.0258 3.00646C19.7253 2.97105 19.8994 3.53759 20.2277 4.04464L21.3768 5.64866C21.7998 6.20122 22.2152 6.76883 22.8883 7.02866L23.1033 7.11069C23.7348 7.32608 24.5967 7.29468 25.2028 7.01291C25.9027 6.68755 26.3328 6.02436 26.7749 5.42413L27.8077 3.96009C28.3629 3.09784 28.4199 2.80205 29.4993 3.17288L32.623 4.27488C33.8583 4.71777 34.9742 5.44832 35.7083 6.55719C36.0796 7.1181 36.4059 7.68655 36.8767 8.17279C37.3131 8.62349 38.1949 9.06585 38.4528 9.62807L38.4649 9.6553C38.6924 10.1557 38.2288 10.5222 37.8749 10.7785L35.0052 12.6934C33.5537 13.6138 32.6442 15.2874 32.6207 16.9971L32.486 20.4205C32.4655 20.8214 32.3704 21.3072 32.4614 21.7021L33.1919 26.1741L36.1759 39.3019C36.187 39.3782 36.215 39.4421 36.2341 39.5158L36.41 40.27C36.4671 40.4883 36.5013 40.7177 36.5633 40.9338L36.6568 41.3205C36.7113 41.522 36.7875 41.7097 36.7553 41.924C36.6874 42.3757 36.1819 42.5982 35.7742 42.507C35.3876 42.4206 34.9336 42.4513 34.5361 42.4494C33.8011 42.446 33.748 42.5732 33.1874 43.032C31.866 44.1137 31.0859 42.6674 30.2303 43.5069ZM18.8061 4.676L17.9736 5.00305L18.006 5.17443C18.0554 5.42779 18.2819 6.04461 18.387 6.28129C20.5488 11.1473 27.3665 11.33 29.4821 6.48069L29.5541 6.30683L29.978 4.93471L29.1558 4.69068C28.892 5.0129 28.6832 5.3675 28.4533 5.71307L27.7319 6.75229C27.5006 7.08805 27.2804 7.42279 26.9847 7.70802C25.4813 9.15852 22.8574 9.21435 21.25 7.90471C20.6379 7.406 20.2273 6.71572 19.7816 6.07466C19.67 5.91402 18.8766 4.6809 18.8061 4.676ZM31.4282 5.49632C31.2847 5.99385 31.1382 6.48191 30.9316 6.95783C28.0144 13.6756 18.2831 12.8579 16.5283 5.4988C14.8031 6.01527 13.963 6.65343 13.0897 8.14822C12.6866 8.83818 12.1109 9.42538 11.5452 9.98132L13.3827 11.1322C14.0673 11.57 14.7612 12.0276 15.2584 12.6874C15.8558 13.3656 16.4083 14.3046 16.6041 15.2038L16.7212 15.6924C16.8769 16.2576 16.7817 16.7601 16.8753 17.2908L31.1285 17.2891C31.1492 16.4714 31.1769 15.8036 31.4285 15.0144C32.3243 12.2051 34.3203 11.4354 36.479 9.86225C34.61 8.45638 34.7947 6.7663 32.2733 5.78685L31.7245 5.58852C31.6381 5.55716 31.5189 5.49861 31.4282 5.49632ZM26.7978 18.7446L16.9404 18.7457L16.9669 19.6877C16.9748 19.8814 16.9675 20.076 17.0029 20.2671L21.287 20.2679L30.9885 20.2686L31.0233 18.7397L26.7978 18.7446ZM17.031 21.7303L16.7378 24.1102L13.5364 38.5406C15.3502 39.9582 18.6588 40.7156 20.8748 40.9991L21.8173 41.1097C22.6139 41.1994 23.3934 41.1854 24.1955 41.1836C26.2187 41.1789 28.2634 40.9473 30.2166 40.3953C31.0806 40.139 31.9302 39.8718 32.7597 39.5153L34.026 38.9521C34.191 38.8771 34.3506 38.7819 34.5203 38.7192C34.3559 38.1772 34.2367 37.6166 34.1132 37.0641L31.8624 27.0823C31.4927 25.4191 31.0726 23.4441 30.9442 21.7423L17.031 21.7303ZM13.1624 40.1838C13.1175 40.4002 13.0423 40.6806 13.0422 40.8976L14.2323 40.8536L14.3651 40.829C14.2058 40.7199 13.3522 40.2018 13.1624 40.1838ZM34.8026 40.3244C34.3712 40.4706 33.9208 40.6865 33.5525 40.9573C33.6231 40.968 33.6992 40.9411 33.768 40.9254C34.1747 40.8823 34.5542 40.9232 34.9594 40.9292L34.8708 40.3479C34.8439 40.3326 34.8342 40.3243 34.8026 40.3244ZM15.2085 41.1724C15.4006 41.3405 15.8128 41.851 15.9858 41.9401L16.5174 41.7533L16.5462 41.738C16.578 41.722 16.6022 41.7143 16.6365 41.7073C16.4888 41.5442 15.4562 41.264 15.2085 41.1724ZM32.5872 41.2854C32.1552 41.3707 31.7668 41.511 31.3708 41.703L31.3944 41.7086C31.4781 41.729 31.5536 41.7568 31.6326 41.7908L32.1003 41.9183C32.2906 41.7315 32.4369 41.5116 32.6249 41.3241L32.5872 41.2854ZM18.4986 42.154C18.8569 42.448 19.5221 43.3791 19.7108 43.4308L19.7352 43.4381C19.9991 43.5109 20.53 43.0176 20.8007 42.9131L21.3163 42.6623C21.0871 42.4597 19.9742 42.4159 19.6388 42.3666L18.4986 42.154ZM29.295 42.1979C28.9965 42.2285 28.7049 42.3051 28.4082 42.3498L27.3179 42.5132C27.1016 42.5483 26.8946 42.5716 26.6838 42.6351C26.8993 42.7496 27.1346 42.8118 27.3595 42.9067C28.4602 43.4569 28.1494 43.8229 28.9851 42.673C29.0948 42.5221 29.5211 42.1426 29.295 42.1979ZM22.8697 42.6979C23.097 42.7699 23.327 42.8618 23.5298 42.9899L24.1924 43.4488L24.7866 43.0177C24.9477 42.8935 25.0947 42.7956 25.2797 42.7077L22.8697 42.6979Z" fill="black"/>
</svg>
