<svg width="48" height="48" viewBox="0 0 48 48" fill="none" xmlns="http://www.w3.org/2000/svg">
<path d="M28.8232 40.356C27.4592 40.6732 26.7662 40.3854 25.5972 39.9107C24.694 39.544 23.4255 39.5336 22.5001 39.8683C22.0879 40.0173 21.708 40.2173 21.2808 40.3285C19.4132 40.8147 16.8455 39.9395 15.5726 38.5372C15.2659 38.1993 15.0527 37.8309 14.6465 37.5963C12.9387 36.6098 11.7224 37.0788 9.91768 35.4558C9.69873 35.2589 9.4135 35.0308 9.26865 34.7711L9.25525 34.7459C9.16276 34.576 9.14711 34.3997 9.09348 34.2185C8.61887 32.6157 6.95579 32.5011 6.7674 31.7575C6.49248 30.6723 9.85586 26.966 10.564 26.1906C12.4517 24.1234 14.4612 22.102 16.8925 20.6776L17.6704 20.2513C17.7958 20.1861 17.9389 20.0953 18.077 20.0623L18.2524 20.0207L18.2712 19.0852C18.2927 18.3325 18.2073 17.6843 17.9777 16.9557L17.5676 15.7871C17.1022 14.3148 17.2454 11.8789 18.7652 11.0266C18.8028 11.0055 18.7857 10.9969 18.7832 10.9582C18.7483 10.4125 18.773 9.85122 18.7729 9.3041L18.7734 8.54749C18.7741 8.06669 18.8177 7.7627 19.297 7.52711L20.3595 7.51708C20.8675 7.51956 20.8338 7.53592 21.2587 7.78755C22.9433 8.78533 24.9612 8.85874 26.6744 7.84052C26.8349 7.74513 26.9918 7.62634 27.1697 7.56588L27.2064 7.55416C27.3462 7.50775 27.4966 7.51755 27.6425 7.51731L28.2615 7.51774C29.1766 7.52364 29.1229 7.94303 29.1244 8.74544L29.1284 10.8503C29.129 11.0602 29.163 11.0255 29.3436 11.1346C29.7655 11.3893 30.0583 11.8295 30.28 12.2576L30.4509 12.6929C30.8043 14.0098 30.7101 14.8209 30.2771 16.1482C29.7723 17.6958 29.6835 18.2616 29.6892 19.9733C29.7953 20.058 29.934 20.0782 30.0571 20.1331C33.5356 21.6835 38.0135 26.4218 40.2912 29.7122C40.6066 30.1677 40.9357 30.6265 41.1558 31.1365C41.4792 31.8861 41.0252 32.2117 40.4467 32.4959C39.7354 32.8453 39.0197 33.5912 38.8803 34.3922C38.67 35.6014 36.3285 36.6369 35.3202 36.9358C34.6641 37.1302 34.0026 37.2811 33.4005 37.6211C32.9598 37.87 32.7118 38.2867 32.3596 38.6365C31.4838 39.5062 30.0287 40.1533 28.8232 40.356ZM20.1587 8.80056C20.0905 8.9403 20.1317 9.21105 20.1332 9.37131L20.1557 10.4433C20.9254 10.2755 22.774 10.6082 23.2529 11.2849L23.3117 9.84124C22.6103 9.77664 21.9071 9.53908 21.2695 9.24705C20.9058 9.0805 20.5591 8.86595 20.1587 8.80056ZM27.7441 8.87088C27.3985 8.91452 27.1316 9.07863 26.8477 9.20533C26.1293 9.52591 25.4301 9.78452 24.6365 9.83317L24.6263 10.7214C24.6266 10.8919 24.5455 11.383 24.7384 11.2638C25.122 10.9735 25.512 10.7454 25.9743 10.6052C26.5634 10.4264 27.207 10.3067 27.817 10.4598L27.8084 8.87088C27.7875 8.87041 27.7648 8.86806 27.7441 8.87088ZM20.7127 11.7047C20.0921 11.7785 19.4505 12.0461 19.0551 12.5474C18.6166 13.1034 18.4543 14.4072 18.6925 14.995L19.2563 16.7546C19.44 17.3589 19.535 17.9945 19.563 18.6256L19.5682 19.5451L28.4306 19.5592L28.448 18.4864C28.5087 17.8537 28.5856 17.2618 28.7537 16.6475C29.1214 15.3031 29.9695 13.7569 28.855 12.4458C27.7237 11.115 25.6769 11.7265 24.8316 13.0676C24.5812 13.465 24.4979 13.9983 23.9061 13.9482C23.4896 13.9129 23.3754 13.3842 23.1895 13.093C22.6614 12.2654 21.7208 11.6388 20.7127 11.7047ZM21.4465 20.8736L19.987 20.8755C19.0604 20.8774 19.2713 20.9138 18.4824 21.3226L17.616 21.7911C15.9447 22.7119 14.5567 23.9796 13.2161 25.3215L10.6272 28.1057L9.46656 29.5076L8.41079 31.0068C8.34657 31.097 8.24851 31.1997 8.21022 31.3027L8.24781 31.3227C8.89722 31.6784 9.32875 32.1947 9.7614 32.7685L9.80392 32.7303C10.9337 30.5088 13.077 28.1253 15.1233 26.7816C15.9262 26.2544 16.8009 25.8775 17.644 25.4242C19.549 24.3998 22.0391 22.7242 23.1025 20.8833L21.4465 20.8736ZM24.9599 20.8679C26.2538 23.0305 28.4 24.4162 30.5935 25.5516C31.8154 26.1841 33.046 26.7684 34.0904 27.6865C35.2869 28.7384 36.316 29.9125 37.2426 31.2069L37.8727 32.1287C38.4543 33.0412 38.0291 32.7778 38.9911 31.9213C39.2397 31.7091 39.503 31.4948 39.7944 31.3436C39.088 29.9617 37.1583 27.7969 36.1149 26.6857L35.3139 25.8715C33.4883 23.9879 31.6802 22.3611 29.3029 21.205L28.8978 21.0012C28.6968 20.8898 28.6427 20.8774 28.4023 20.8754L24.9599 20.8679ZM24.0231 21.8598C23.4305 22.6678 23.0151 23.2293 22.2237 23.9178L21.3505 24.609C20.736 25.086 20.3478 25.1832 19.9445 25.9451L18.7457 28.5043L18.1017 30.3435C17.6775 31.6197 17.2824 32.9102 16.9842 34.2225L16.3968 37.3854C17.1013 38.7121 19.8992 39.5049 21.2706 38.9531C22.3007 38.5388 22.7306 38.331 23.9402 38.316C24.6451 38.3295 25.346 38.422 26.008 38.6759C26.3561 38.8094 26.7004 38.9814 27.0644 39.0679C28.2899 39.3592 30.4231 38.6507 31.3055 37.7981L31.554 37.5494C31.2203 34.0307 30.0345 30.1893 28.551 26.9653L28.0153 25.8917C27.5132 24.9779 27.059 24.9876 26.3069 24.3688C25.6381 23.8184 25.0278 23.2181 24.4935 22.5349C24.3241 22.3184 24.2005 22.0683 24.0231 21.8598ZM18.1331 26.6252C17.2712 27.0842 16.3568 27.4989 15.5566 28.062C13.8286 29.2779 12.3063 31.1241 11.209 32.9022C10.9538 33.3158 10.673 33.7371 10.5276 34.2044C10.8536 34.6615 11.3318 34.9707 11.8292 35.2151C12.4912 35.5457 13.2072 35.706 13.9096 35.9217L15.2699 36.4126C15.4645 34.7072 15.9771 32.7176 16.4763 31.0923L17.8211 27.3447C17.9152 27.1213 18.0803 26.8556 18.1331 26.6252ZM29.893 26.7068L31.2393 30.3045L32.0995 33.2554L32.2866 34.0338C32.5174 34.8446 32.5455 35.7099 32.7207 36.5311C32.8455 36.4992 33.2364 36.2448 33.4386 36.1685C34.3459 35.8267 35.2848 35.6338 36.1638 35.2063C36.6913 34.9178 37.1302 34.6292 37.5261 34.1728L36.6773 32.7104C34.741 29.6676 33.0701 28.204 29.9302 26.6978L29.893 26.7068Z" fill="black"/>
</svg>
