<svg width="48" height="48" viewBox="0 0 48 48" fill="none" xmlns="http://www.w3.org/2000/svg">
<path d="M35.8686 41.3368C34.7432 42.2279 33.9386 42.3113 32.5599 42.394L28.8681 42.5054C28.5531 42.6712 28.4776 42.8825 28.0303 43.0365C26.0993 43.7012 25.1573 41.7671 23.266 42.3149C22.8587 42.4329 22.5434 42.6386 22.1689 42.8225C21.2125 43.2924 20.0178 43.3471 19.1987 42.5623C19.1519 42.5175 19.0717 42.5218 19.0076 42.5176L16.6362 42.4292C15.2995 42.3337 13.7452 42.3988 12.5694 41.691C11.6191 41.119 11.6849 40.9933 11.8963 40.0984L13.2162 34.7255L15.2201 28.0455L16.5678 24.5369C17.6275 21.9196 18.7201 19.0824 17.2004 16.4164C16.3651 14.9509 15.9342 14.2563 16.1152 12.4802C16.1386 12.2505 16.1364 12.2925 15.9903 12.1143L13.1214 8.40978C12.8522 8.05977 12.6475 7.79722 12.5306 7.3602L12.4962 7.20725C12.3964 6.29844 12.8001 5.40209 13.6292 4.98505C14.0391 4.77884 16.8816 3.92121 17.2893 3.87644C18.417 3.74738 19.4684 4.86214 19.5815 5.91739C19.6274 6.3448 19.6164 6.7648 19.699 7.19272C19.8353 7.89772 20.3401 9.332 21.1393 9.50305C22.1627 9.72209 23.0888 10.4575 23.6803 11.2975C23.794 11.4588 23.8728 11.6334 24.0113 11.777C24.5179 10.9032 25.241 10.1059 26.1901 9.70667C26.4907 9.58025 27.0596 9.533 27.2125 9.24538L27.4169 8.84C27.7165 8.25027 28.0814 7.67825 28.2604 7.03658C28.4425 6.38403 28.4121 5.69609 28.7281 5.08316C29.0775 4.40523 29.9971 3.74081 30.8061 3.90398C31.4801 4.03993 33.9127 4.68086 34.44 4.98716C35.3057 5.49003 35.7788 6.67658 35.3832 7.62416C35.1815 8.10758 34.8116 8.51459 34.4889 8.92138L32.0545 12.0632C31.8832 12.2953 31.888 12.3077 31.9182 12.5929C32.056 13.8919 31.6428 15.1268 30.9498 16.2181C29.9029 17.8667 29.7498 19.7246 30.3893 21.5454L32.3542 26.8574C32.4946 27.1469 32.6109 27.52 32.6978 27.8317L34.3128 33.0583L34.6028 34.1173C34.7755 34.7135 34.8894 35.3924 35.0763 35.9479L35.7014 38.4606C35.7385 38.6808 35.8208 38.9019 35.8695 39.1207L36.0477 39.8786C36.1816 40.4145 36.4178 40.9523 35.8686 41.3368ZM17.3084 5.32644C16.9711 5.38348 16.6305 5.50527 16.3063 5.61519L15.1325 6.00294C14.8589 6.08956 14.5627 6.12678 14.297 6.23675C13.3878 6.61306 14.0536 7.29917 14.4058 7.75363L16.0205 9.8532C16.1015 9.96195 16.2009 10.0685 16.2721 10.1829L16.7687 10.8736C17.3788 10.149 18.1734 9.71263 19.0725 9.42359C18.6127 8.60295 18.3034 7.65594 18.2265 6.7145C18.2043 6.44408 18.2652 6.07597 18.1287 5.83813L18.1091 5.8025C17.9374 5.4958 17.6585 5.31514 17.3084 5.32644ZM30.4482 5.32442C29.7133 5.62555 29.7951 6.37653 29.6766 7.04375C29.5578 7.71223 29.287 8.31003 28.9706 8.90609C28.89 9.05797 28.7616 9.2382 28.7121 9.39922C29.791 9.70175 30.4766 9.87702 31.2765 10.7939L31.7818 10.1165L33.265 8.18553C33.5343 7.84508 33.907 7.47538 34.0931 7.08397C34.3753 6.49067 33.7279 6.17605 33.2884 6.04756L31.3201 5.48192C31.0151 5.39642 30.7685 5.30375 30.4482 5.32442ZM19.8637 10.7203L19.3475 10.7893C17.9097 11.1395 17.2203 12.4286 17.5193 13.8393L17.6153 14.2497C17.7008 14.6256 17.93 14.9645 18.1287 15.287L18.5621 16.0359C18.7863 16.452 18.9114 16.8632 19.0652 17.3004L19.2827 18.3395C19.342 18.7893 19.2602 19.2662 19.3395 19.7057L28.045 19.706C28.2169 19.706 28.5047 19.7437 28.6642 19.6948L28.6748 18.8434C28.6883 18.0085 28.8911 17.0916 29.2788 16.351C29.5466 15.7868 29.9419 15.2964 30.2048 14.7316C30.9627 13.1031 30.477 11.1245 28.5246 10.7732C26.6643 10.4384 25.103 11.9091 24.7515 13.6637L24.7275 13.7769C24.6146 14.1407 24.7929 14.6158 24.574 14.9463L24.5544 14.9774C24.2092 15.5017 23.4265 15.2687 23.3462 14.6768L23.255 13.661C23.0761 12.1303 21.4201 10.6107 19.8637 10.7203ZM21.1 21.1029L19.1349 21.1145C18.9405 22.1054 18.6405 23.0798 18.2774 24.0231L16.0306 29.9879L13.6015 38.9078C13.4826 39.4147 13.3845 39.9418 13.2235 40.4374C14.1156 41.05 16.1107 41.012 17.1774 41.0372L18.7001 41.0633L18.7681 38.7163C18.7845 38.4395 18.8464 38.1696 18.8554 37.8898L18.868 34.665C18.9363 33.3136 19.2335 31.5823 19.5243 30.2809L20.4655 26.8297C20.5456 26.5731 20.5879 26.2657 20.7869 26.0698C21.3611 25.5045 22.1506 26.1518 21.8732 26.9997C21.3573 28.5761 20.9068 30.1873 20.62 31.8226L20.3547 33.5861C20.2743 34.2097 20.2315 34.7025 20.2295 35.3364L20.2249 37.478L20.1056 40.6327C20.1002 40.8173 20.0193 41.2031 20.0967 41.373L20.1359 41.4358C20.6492 42.2568 21.5761 41.4752 22.1503 41.2238C22.513 41.065 22.8804 40.9522 23.2693 40.8803L23.2773 29.1296C23.2781 28.5245 23.0687 27.356 23.8944 27.1839L23.9234 27.1776C24.5951 27.0431 24.6582 27.7338 24.6575 28.1676L24.6555 29.402L24.6568 40.865C25.0267 40.958 25.4123 41.0162 25.7605 41.1786C26.1286 41.3504 26.4486 41.6377 26.8475 41.7424L26.893 41.7551C27.117 41.8168 27.3925 41.8121 27.5975 41.6908C27.9659 41.4727 27.84 41.0859 27.8399 40.7222L27.8233 35.0722C27.6806 32.699 26.9106 29.183 26.1187 26.8949C25.9213 26.3243 26.4284 25.6346 27.0288 25.9137L27.0558 25.9258C27.5545 26.1665 27.9919 28.4346 28.1609 28.9939L28.7986 31.9382C28.8897 32.2723 28.9241 32.6547 28.9645 32.9992L29.2239 35.9865L29.2253 40.1773C29.2256 40.3118 29.1943 40.9945 29.2432 41.0726C30.5052 41.0621 31.7866 41.0457 33.0429 40.9205C33.761 40.8489 34.1191 40.8431 34.7446 40.3766C34.6683 39.9212 34.5459 39.4653 34.439 39.0157L33.8732 36.7262C33.0811 33.5884 32.1937 30.478 31.0998 27.4305C30.3499 25.3411 29.3343 23.2826 28.8602 21.1043L21.1 21.1029Z" fill="black"/>
</svg>
