<svg width="48" height="48" viewBox="0 0 48 48" fill="none" xmlns="http://www.w3.org/2000/svg">
<path d="M27.0688 45.1228L27.0727 46.1502C27.0732 46.53 27.092 46.7579 26.713 46.9769L26.6836 46.9929C26.2683 47.2287 25.6344 47.0065 25.493 46.5377C25.4461 46.3825 25.4746 46.1482 25.4744 45.9851L25.47 44.8134C25.3773 44.885 25.254 44.8952 25.1456 44.9317C24.2444 45.2349 23.4257 45.1075 22.5442 44.8586L22.5479 45.9608C22.5485 46.2037 22.5795 46.4702 22.4632 46.6927C22.1514 47.2891 21.141 47.224 20.9432 46.5701C20.8967 46.4162 20.9271 46.1725 20.9269 46.0095L20.9245 43.857C20.9209 43.6884 20.9055 43.6818 20.7813 43.57C19.9813 42.8501 18.9091 42.5289 17.8631 42.9232C17.4919 43.0632 17.1355 43.2678 16.7536 43.3744C14.9304 43.8833 13.2183 42.81 12.7884 40.9967C12.702 40.632 12.6826 40.2258 12.4916 39.8963C11.6921 38.5177 10.7647 39.1794 9.91205 38.9431C8.82197 38.6411 8.13136 37.4549 8.65205 36.3865C8.85872 35.9623 9.24127 35.5756 9.53414 35.2029L13.454 30.2512C15.6612 27.4719 18.0284 24.3916 18.8122 20.8474L18.9964 19.8075C19.3359 18.0963 19.0433 15.9078 18.2404 14.3529C17.669 13.2464 16.4584 12.3315 16.6565 10.9774C16.765 10.2352 16.3243 9.46799 15.7411 9.03487C14.8593 8.38003 14.75 8.52675 14.7858 7.30748L14.7884 4.60625C14.7878 2.3287 15.2687 1.97184 17.2446 1.35196C17.6907 1.212 18.1364 1.04435 18.5985 0.966797C19.1258 0.978797 19.3687 1.51641 19.7595 1.78539L19.872 1.86332C21.0904 2.6913 22.5649 2.83266 23.9939 2.83248C25.5956 2.83228 27.1305 2.62935 28.444 1.60422C28.7555 1.36112 28.8727 1.05579 29.3086 0.986297C29.7057 0.922992 30.1269 1.16021 30.4943 1.2771C31.8401 1.70523 32.8607 1.85685 33.1512 3.57947C33.2121 3.94074 33.1876 4.31959 33.1878 4.68572L33.1869 7.46939C33.1866 7.66565 33.2136 7.93068 33.145 8.11631L33.134 8.14429C32.945 8.64839 32.6158 8.73745 32.2382 9.03506C31.9038 9.29854 31.207 10.2068 31.2887 10.6809C31.5466 12.1771 30.7813 12.843 29.9944 13.9698C29.517 14.6533 28.9743 15.5269 28.7925 16.3579L28.5331 17.5379C28.4137 18.1428 28.4062 19.4921 28.6092 20.0711L28.7615 20.6013C29.0844 21.8709 30.0102 23.5674 30.7048 24.6443L36.9956 33.4334L38.3972 35.2454C38.8402 35.8113 39.3614 36.2769 39.5072 37.0107C39.6944 37.9518 38.9311 38.7378 38.0676 38.9444C37.7062 39.0308 37.3116 38.9427 36.9433 38.9811C35.7257 39.1079 35.433 39.9323 35.2293 40.9216C34.8457 42.7856 32.9199 44.0156 31.1154 43.3163C29.9051 42.8473 29.0163 42.3638 27.6834 43.171C27.2169 43.4535 27.0735 43.5528 27.0714 44.0676L27.0688 45.1228ZM17.7097 2.89429C17.2969 3.00895 16.7844 3.13525 16.4993 3.46851L16.4732 3.49822C16.3096 3.69213 16.3841 4.04233 16.3837 4.27809L16.383 6.87543C16.3833 7.14206 16.2687 7.4804 16.5459 7.6162C16.9958 7.83656 17.3535 8.33657 17.6443 8.72882L17.9322 9.20146C18.0903 9.05081 18.2388 8.90807 18.4219 8.78746L18.528 8.71303C18.2638 8.34281 18.0346 7.95431 17.916 7.51101L17.8863 7.42331C17.8249 7.26248 17.8321 7.09635 17.8312 6.92723L17.8306 4.06229C17.8305 3.67677 17.8574 3.26692 17.8159 2.88472C17.7746 2.88331 17.7493 2.88614 17.7097 2.89429ZM30.2127 2.87297C30.1628 3.22101 30.2029 3.60495 30.2032 3.95906L30.2034 5.62795C30.2051 7.21485 30.2318 7.39523 29.4822 8.75282L30.0711 9.18604L30.3724 8.68115C30.636 8.26495 31.0576 7.78237 31.5099 7.57457C31.5597 7.5517 31.5818 7.52521 31.6144 7.48251L31.6136 4.45413C31.6125 3.89421 31.5982 3.40484 31.0039 3.15334L30.2127 2.87297ZM28.5999 3.42362C27.5385 4.27873 25.3529 4.48208 23.9623 4.48223C23.5849 4.48227 23.1879 4.50463 22.8123 4.46653L21.8546 4.33539C21.3978 4.25756 19.7203 3.81099 19.4095 3.48743L19.4023 5.51554C19.4004 6.5354 19.3739 7.59539 20.1998 8.35523C20.2901 8.36793 20.3757 8.3692 20.4668 8.36803L20.4933 8.36896C21.5203 8.41406 22.6807 8.90596 23.374 9.67509C24.254 10.6513 23.79 10.4526 24.6474 9.61036C25.4567 8.81526 26.5301 8.3849 27.6566 8.36212C28.1359 8.35237 28.5323 7.0544 28.5953 6.68085C28.6305 6.47212 28.6146 6.24131 28.6148 6.03004L28.6143 3.99616C28.614 3.81444 28.6256 3.6246 28.6027 3.44416L28.5999 3.42362ZM20.0443 9.99379L19.7317 10.0291C19.2624 10.1088 18.7462 10.4242 18.4827 10.8195C18.1027 11.3894 18.4047 11.6909 18.76 12.1614L19.1671 12.7345C19.9317 13.8595 20.5719 15.5869 20.6947 16.9591C20.7207 17.2496 20.6572 18.5977 20.7231 18.7558L26.8698 18.7657C26.9333 17.5807 27.0146 16.5185 27.4119 15.3923C27.6861 14.6926 28.0219 14.0087 28.4375 13.3814L29.0798 12.4599C29.2834 12.181 29.6013 11.8365 29.7138 11.5076C30.0817 10.4327 26.9381 8.49984 24.95 11.8763C24.772 12.1786 24.5956 12.6107 24.2461 12.7518L24.0819 12.8084C23.6595 12.9297 23.3185 12.3669 23.1437 12.0797C22.592 11.1733 22.0598 10.4124 20.9876 10.0898C20.7207 10.0095 20.3167 9.92962 20.0443 9.99379ZM23.3962 20.2399L20.5829 20.2453C20.5344 20.4557 20.5196 20.672 20.4727 20.8844C20.1397 22.3912 19.5836 23.7881 18.8754 25.1563L18.1946 26.443C17.4495 27.7043 16.581 28.8919 15.6833 30.0468L10.4297 36.6912C9.75347 37.6477 10.828 37.2271 11.5263 37.3308C12.8878 37.533 14.0148 38.7709 14.2588 40.1042L14.4403 40.9024C14.6448 41.6576 15.657 42.017 16.3477 41.7919C16.6927 41.6795 16.9995 41.4818 17.3412 41.3664C18.9152 40.8346 20.7777 41.2274 21.9401 42.4199C22.7652 43.2664 23.2565 43.6087 24.5526 43.3986C25.3505 43.1227 25.629 42.7855 26.2142 42.2519C27.3903 41.1794 29.4861 40.7957 30.9499 41.4316C31.2439 41.5594 31.5439 41.7635 31.8633 41.814L31.8992 41.82C32.336 41.8858 32.7594 41.8152 33.1132 41.5427C33.6555 41.1252 33.6343 40.5469 33.794 39.9447C34.1328 38.667 35.2474 37.5554 36.5753 37.3404C36.98 37.2749 37.4355 37.324 37.8474 37.3087C37.8504 37.2191 37.8278 37.1752 37.7859 37.0975L37.7669 37.0619C37.6065 36.7959 37.3496 36.5401 37.1543 36.2966L35.7359 34.502L29.9523 26.4231C28.7003 24.5753 27.4894 22.4569 26.9916 20.2534L23.3962 20.2399Z" fill="black"/>
</svg>
