<svg width="48" height="48" viewBox="0 0 48 48" fill="none" xmlns="http://www.w3.org/2000/svg">
<path d="M27.9367 40.8746L27.3575 40.925C26.3126 40.9902 25.2486 40.954 24.2009 40.9546L21.2877 40.9436L17.9181 40.6925C16.5618 40.5422 15.1698 40.3307 13.8808 39.8672C12.2238 39.2714 12.4652 38.9556 12.8658 37.5763L14.6485 30.5859C14.9533 29.3093 15.2356 28.4309 15.3141 27.1169L15.3174 24.0387L13.5015 28.7311C12.9387 30.0668 12.5887 31.1948 11.4621 32.2263C11.2479 32.4224 11.3886 32.6651 11.309 32.9265L11.2276 33.1539C10.5813 34.5516 7.34541 33.5717 6.93854 32.4152L6.92612 32.3789C6.82988 32.1042 6.82618 31.7843 6.9062 31.5044C6.92138 31.4512 6.53429 31.1413 6.4322 30.9125L6.41457 30.8725C6.26138 30.5298 6.53007 30.0628 6.63132 29.7352L10.2394 17.7187L10.9221 15.2653C11.0669 14.705 11.157 14.1372 11.356 13.5905C12.0372 11.7197 13.8838 10.0445 15.9277 9.95187C16.2989 8.93136 17.1063 7.89397 18.2462 7.72316C18.5017 7.68486 18.615 7.57461 18.8384 7.4563C19.2601 7.23294 19.6827 7.13464 20.1492 7.06264L26.932 7.05078C27.8235 7.05153 28.5928 7.08237 29.3266 7.69672C30.4822 7.79211 31.4802 8.4672 31.9476 9.53534C32.28 10.295 31.9336 9.81556 32.8823 10.0828C34.9383 10.6621 36.5536 12.4135 36.9248 14.5346L37.5724 16.9219C37.6722 17.3011 37.7664 17.7068 37.8893 18.0778L39.4856 23.5866C39.54 23.7298 39.5884 23.9011 39.6246 24.0498L41.1374 29.1328C41.1976 29.3727 41.2734 29.6206 41.3511 29.8551L41.5319 30.4101C41.7212 30.9387 41.5505 31.1945 41.0967 31.5188C41.1586 31.777 41.1679 32.0962 41.1069 32.3559L41.0978 32.3931C40.8312 33.5176 38.8001 33.9338 37.8401 33.8335C37.0916 33.7553 36.6488 33.095 36.7393 32.3673C36.746 32.3137 36.5679 32.1988 36.516 32.1524C35.3543 31.1189 34.9588 29.6394 34.3927 28.2518L33.5931 26.2951C33.2753 25.5308 32.9582 24.7789 32.7122 23.9881C32.6533 24.2922 32.6699 24.5944 32.6664 24.9023L32.6812 26.6397C32.6909 27.0122 32.6658 27.3982 32.7391 27.7655L33.4531 31.0265C33.4613 31.0725 33.468 31.1111 33.4834 31.1553L33.5513 31.3996C33.6611 31.9982 33.9566 33.0433 34.1403 33.6078L34.3948 34.5402C34.4572 34.8907 34.5987 35.2279 34.6702 35.5778L35.4383 38.3789C35.7972 39.4385 35.0697 39.6515 34.2382 39.8945C32.488 40.4061 29.8096 40.8951 27.9367 40.8746ZM26.9679 8.59189C26.6687 8.60473 26.3355 8.57666 26.0415 8.61795C25.9217 8.63478 25.8133 8.7132 25.695 8.72159C25.4358 8.73997 25.1513 8.6967 24.8878 8.69661L21.6234 8.66281C21.303 8.65484 20.9503 8.70955 20.6369 8.63802C20.2636 8.55289 19.7963 8.65297 19.5114 8.91823C19.6742 9.15941 19.8987 9.36673 20.105 9.57064L21.2984 10.7173C21.5586 10.979 21.8198 11.2461 22.0578 11.5284L22.7492 12.4092L24.0173 14.4417C24.3955 13.5507 25.4415 12.1149 26.0553 11.4132L26.991 10.3826C27.3722 9.98605 28.1106 9.46583 28.3046 8.94139C28.1126 8.54487 27.3231 8.55838 26.9679 8.59189ZM29.8391 9.45702C29.2017 10.4685 28.872 10.6627 28.0641 11.4875C26.9297 12.6455 25.9525 13.8555 25.3008 15.3525C25.178 15.6346 24.9577 16.0227 24.9493 16.3295L24.9845 16.3626C25.1762 16.302 25.387 16.1155 25.5565 15.9992L28.7418 13.6604C29.5705 13.0431 30.5976 12.462 30.7649 11.3364L30.7754 11.25C30.8547 10.5837 30.5605 9.71806 29.885 9.44628L29.8391 9.45702ZM18.0255 9.50389C17.5818 9.81467 17.3553 10.2012 17.2619 10.7316C17.0386 12.0005 17.9916 12.7 18.8668 13.3945C20.0428 14.3277 21.3175 15.1558 22.5715 15.9791L23.1047 16.3182C22.5714 14.6837 21.4786 13.0122 20.2788 11.8126C19.5955 11.1295 18.849 10.5716 18.2775 9.78139C18.2091 9.6868 18.1594 9.58423 18.0802 9.49695L18.0255 9.50389ZM15.7403 11.5195C14.2786 11.83 13.1212 12.9439 12.6683 14.3502C12.5656 14.6692 12.516 15.0133 12.439 15.3398L10.7228 21.4415L8.37019 29.2159C8.24621 29.5857 8.10277 29.95 7.99984 30.3262C8.3184 30.6169 8.75016 31.0329 9.17588 31.1488L9.22079 31.1617C10.9301 31.6437 11.7208 29.0982 12.1752 27.9692L13.7462 23.916C14.1909 22.7198 14.6581 21.7322 14.8968 20.4662C14.994 19.9512 14.9573 19.4141 15.5657 19.253L15.5897 19.2474C16.3266 19.106 16.3581 19.9147 16.4178 20.4023L16.612 21.9023C16.7165 22.5825 16.8134 23.4892 16.8422 24.1889L16.8438 27.3433C16.7858 28.4208 16.4764 29.4565 16.2286 30.4997L14.4982 37.3711C14.4673 37.5041 14.295 38.0148 14.3556 38.0972C16.5905 38.3191 18.5454 36.6912 19.1221 34.5937C19.3963 33.5966 19.3234 32.6186 19.1089 31.6165C19.0444 31.3154 18.8555 30.8279 18.9984 30.5273L19.0142 30.4935C19.2111 30.0879 19.8735 29.8621 20.1904 30.2552C20.9084 31.1459 20.8571 33.8979 20.5928 34.8939C20.0999 36.751 19.0881 37.9834 17.5445 39.0407C17.9465 39.143 18.3515 39.1754 18.7618 39.2199L22.0452 39.3766C22.5659 39.3765 23.0947 39.3954 23.6137 39.3519C23.66 39.2874 23.64 39.0699 23.6412 38.9788L23.6353 18.5493C23.5487 18.431 23.4182 18.4024 23.2987 18.3262L18.7572 15.1992C17.4738 14.2681 15.9482 13.2695 15.8087 11.5264L15.7403 11.5195ZM32.2667 11.5485C31.8252 13.2218 31.126 13.8164 29.7756 14.7846L26.6017 17.1346C26.2194 17.4206 25.5965 18.0143 25.1321 18.1203C25.1425 18.3402 25.1556 18.5276 25.1459 18.7508L25.1407 37.6104C25.1407 38.1951 25.0997 38.8145 25.1505 39.3958L29.8716 39.1758L31.2473 38.9719C29.7151 37.8153 28.7512 36.9129 28.1948 34.9219C27.9678 34.1095 27.8062 32.8699 28.0019 32.0763C28.1555 31.4532 28.1059 30.318 28.8517 30.0703L28.8875 30.0581C29.2666 29.9344 29.6191 30.1734 29.7709 30.5156L29.7832 30.5413C29.8642 30.7257 29.8077 30.9679 29.7491 31.1505L29.7333 31.208C29.461 32.2278 29.3333 33.1778 29.5695 34.2091L29.6739 34.582C30.2397 36.2908 31.8399 38.1419 33.8076 38.0367L33.6441 37.455L32.2864 32.4048C31.8269 30.6267 31.3244 28.8844 31.1534 27.0485C31.0682 26.1349 31.1157 24.4683 31.1968 23.5781L31.5867 20.4492C31.6514 19.9592 31.606 19.4965 32.1329 19.264L32.1651 19.2494C32.2823 19.2006 32.5027 19.1968 32.6198 19.2482L32.6823 19.2776C33.1982 19.5291 33.1817 20.4543 33.2957 20.9319C33.4478 21.5693 33.6396 22.1961 33.8548 22.8151L34.1383 23.585C34.1651 23.6634 34.201 23.7375 34.2241 23.8172L34.6051 24.7852C34.6387 24.8765 34.6787 24.962 34.7093 25.0547L36.3326 29.1094C36.722 30.0407 37.3975 31.5103 38.6605 31.1836C38.9856 31.0995 39.6646 30.6493 39.9998 30.4236C39.772 29.837 39.6089 29.2368 39.4341 28.6329L35.7044 15.7195C35.5308 15.0781 35.4113 14.3755 35.1086 13.7791C34.4766 12.5338 33.6201 11.7891 32.2667 11.5485Z" fill="black"/>
</svg>
