<svg width="48" height="48" viewBox="0 0 48 48" fill="none" xmlns="http://www.w3.org/2000/svg">
<path d="M25.2807 42.6842C24.9972 42.3743 24.7548 42.0799 24.5998 41.6852C24.2321 41.6589 23.8575 41.7119 23.49 41.6582L23.4644 41.6541C22.6554 43.2044 21.6792 43.4811 20.1157 43.4804L15.9459 43.4798C15.5877 43.4795 15.1785 43.5168 14.8264 43.4614C13.8397 43.3061 12.8865 42.6372 12.586 41.6539C12.4181 41.1045 12.4959 40.6543 12.5594 40.1009L12.852 37.9589C11.1832 37.784 9.60428 36.7159 9.03803 35.0875C8.81692 34.4516 8.75509 33.7537 8.61691 33.0955L8.00069 29.2427C7.96263 28.7572 7.89269 28.2844 7.88195 27.798L7.86133 24.7746C7.867 24.3734 7.85491 23.9655 7.8902 23.5657L8.15064 21.6204L8.78261 18.3608C9.12981 16.9134 9.58483 15.5036 10.0999 14.1087C11.5206 10.2613 13.5352 6.47701 18.0946 6.38992C18.1938 6.25548 18.2391 6.10947 18.3452 5.9792C19.0818 5.07479 20.5462 4.6397 21.6486 4.53251C21.893 4.50013 22.1545 4.51941 22.4014 4.519L25.654 4.5183C26.9725 4.52008 28.3945 4.82828 29.4036 5.72495C29.5092 5.81879 29.6508 5.94522 29.7131 6.07365C29.934 6.52867 30.086 6.313 30.6553 6.36072C33.0297 6.55961 34.9745 8.27143 36.1361 10.2507C36.6821 11.1812 37.094 12.1671 37.5334 13.1487L38.7959 16.7793C38.8053 16.824 38.8131 16.8632 38.828 16.9066L38.9836 17.4579C39.0503 17.7817 39.1689 18.1007 39.244 18.4233L40.0329 22.886C40.0698 23.2134 40.1232 23.5408 40.1425 23.8704L40.1452 27.5178C39.9902 29.9046 39.5541 32.2571 39.0899 34.5994C38.7095 36.5184 37.0503 37.7308 35.1773 37.9277C35.2808 38.8157 35.4628 39.7134 35.506 40.6044C35.5789 42.1083 34.7767 43.2529 33.2003 43.4636C32.8518 43.5102 32.4678 43.4798 32.1158 43.48L27.2703 43.4799C26.6309 43.4777 25.9385 43.2411 25.4452 42.8313L25.2807 42.6842ZM21.6115 5.98089C19.8684 6.14711 18.2256 7.25008 19.1779 9.20143C19.705 10.2816 20.8279 10.8186 21.9338 11.1113C21.426 10.118 20.0035 9.77101 19.9889 8.49887C19.9643 6.36058 23.2754 6.77889 24.6842 6.77776C25.2127 6.77734 25.8055 6.72784 26.3257 6.81119C26.9506 6.91665 27.6304 7.24525 27.9254 7.82837L27.9715 7.92559C28.623 9.4584 26.7454 10.0075 26.1484 11.1038C27.1867 10.8438 28.1308 10.4178 28.7068 9.4645C28.9953 8.98684 29.1938 8.33912 29.0609 7.77939L29.0412 7.70167C28.6603 6.21958 26.9585 5.97733 25.671 5.97868L21.6115 5.98089ZM30.4476 7.76359C30.4333 8.12087 30.4983 8.54275 30.3878 8.88268L30.2727 9.30508C29.8348 11.06 27.8802 12.2431 26.1938 12.5173C26.0911 12.534 25.8846 12.5266 25.8025 12.5762L25.7956 40.0185C25.7953 40.3427 25.7576 40.7142 25.8399 41.0277C25.9659 41.508 26.4808 41.9963 26.9994 42.0152L33.1084 42.0146C33.5316 41.9924 33.9171 41.6776 34.0791 41.2976C34.2545 40.886 34.1062 40.3519 34.0549 39.9251L32.9585 30.7849L32.7285 27.7517L32.711 25.815C32.7045 25.6039 32.6644 25.3923 32.6569 25.1798L32.645 23.2845L32.6434 18.6303C32.6433 18.455 32.6277 18.261 32.6484 18.0876C32.7134 17.5424 33.5034 17.397 33.8488 17.7831L33.9203 17.8685C34.0928 18.0832 33.9986 18.601 33.9986 18.8588L34.0136 24.1607C34.0201 24.4045 34.0897 24.6327 34.0955 24.8782L34.1186 26.6088C34.1265 26.8074 34.167 27.0017 34.1763 27.1985L34.4159 30.7493L35.0164 36.0227C35.0387 36.1699 35.0053 36.404 35.0747 36.5297C36.1408 36.6262 37.3093 35.4851 37.6757 34.5504C37.7671 34.3172 37.792 34.0911 37.8287 33.8459L38.3653 30.9038C38.4311 30.5044 38.5062 30.1015 38.5383 29.6977L38.6242 28.9095C38.6925 28.1121 38.7215 27.4391 38.751 26.636L38.7168 23.422C38.3635 19.7498 37.1715 15.303 35.4975 12.0165C34.4335 9.92753 33.1518 8.23187 30.7124 7.79865C30.626 7.78328 30.5318 7.78365 30.4476 7.76359ZM17.4396 7.837C16.3423 7.9539 15.2102 8.50393 14.4141 9.25764C11.5004 12.016 9.67633 19.7952 9.2837 23.5892C9.21123 24.2895 9.23013 24.998 9.22661 25.7012C9.22042 26.9495 9.20856 28.2332 9.39766 29.472L10.1731 33.9485C10.438 35.1758 11.2855 36.2862 12.5863 36.5014C12.6944 36.5193 12.9002 36.5351 13.0014 36.4914C13.0799 36.0062 13.1071 35.4981 13.154 35.0076L13.7734 29.1008L13.8898 26.0676C13.9067 25.7119 13.9692 25.3589 13.9805 25.0049L13.9902 18.4936C13.9909 18.1372 13.9773 17.9069 14.2939 17.6779C14.5814 17.47 15.0437 17.5234 15.2278 17.8481C15.4152 18.1784 15.3471 20.1113 15.3475 20.6096L15.3488 23.2845L15.3444 25.5896C15.3377 25.8054 15.2924 26.0157 15.2875 26.2329L15.2474 27.7123C15.2421 27.9882 15.255 28.2687 15.2328 28.5438L14.8518 32.6477L13.9427 40.2415C13.9101 40.5662 13.7811 40.9349 13.9245 41.2493L13.9373 41.2783C14.2865 42.0549 14.8846 42.0175 15.6114 42.0179L20.813 42.0168C21.5943 42.0159 22.1752 41.4934 22.2091 40.6917L22.2216 13.848C22.2214 13.423 22.2472 12.9789 22.2124 12.556C19.7518 12.2161 17.3905 10.544 17.5844 7.83915C17.533 7.82359 17.492 7.83123 17.4396 7.837ZM22.305 8.23089C20.9425 8.29712 21.1707 8.44229 22.025 9.1389C22.7914 9.76384 23.2966 10.6279 23.5065 11.5892L23.516 11.6228C23.5759 11.8427 23.5639 12.0913 23.5707 12.319L23.5765 39.5852C23.5743 39.8346 23.5524 40.0874 23.566 40.3361L24.4532 40.3472L24.4674 39.1751L24.4678 12.8002C24.468 12.3927 24.4426 11.9571 24.5481 11.5607L24.5743 11.4377C24.7255 10.635 25.1819 9.81681 25.8325 9.30826C26.0747 9.11898 26.723 8.79137 26.667 8.43756C26.2993 8.08708 25.3865 8.23042 24.9332 8.23023L22.305 8.23089Z" fill="black"/>
</svg>
