<svg width="48" height="48" viewBox="0 0 48 48" fill="none" xmlns="http://www.w3.org/2000/svg">
<path d="M25.3309 42.58C24.8239 42.7208 22.6906 42.9355 22.2671 42.4921C22.1235 42.3417 21.8615 42.3997 21.673 42.3974L20.4345 42.3649C19.2722 42.2775 15.7194 41.9924 15.0665 40.8531L15.0523 40.827C14.8253 40.4254 15.0749 40.1455 15.0924 39.7442L15.2002 34.8811C15.2105 34.6341 15.2595 34.3946 15.2709 34.1481L15.4911 30.8833C15.5167 30.5649 15.5705 30.2531 15.5813 29.9325L15.5791 26.2909C15.5644 25.8549 15.5216 25.405 15.4622 24.9727L15.2179 23.6907L11.8361 30.6445C11.2002 31.946 10.7323 33.4993 9.05153 33.8017L9.02355 33.8065C6.6663 34.2559 4.58162 32.4401 4.88612 30.0447C4.94683 29.5671 5.19147 29.1054 5.40812 28.6829L10.9433 16.711C11.9489 14.6782 12.7083 13.5547 14.5668 12.1245L14.1107 11.5082C12.8569 9.62917 14.0394 7.33909 16.3512 7.23053L16.5946 6.90658C17.5511 5.82091 19.7881 5.48767 21.129 5.37311L22.5913 5.287L24.5186 5.26656C24.9317 5.2667 25.3543 5.24917 25.7664 5.2743C27.2264 5.36331 30.944 5.8105 31.5291 7.24361C31.5476 7.28898 31.6268 7.27497 31.6717 7.28045L32.1761 7.32789C34.5929 7.63403 35.0384 10.6561 33.484 12.184C35.3619 13.3694 36.1327 14.9219 37.1256 16.8633L42.8235 29.1247C43.01 29.5847 43.1598 30.0461 43.1729 30.5469C43.2354 32.9339 40.7286 34.4769 38.5314 33.6372L38.4475 33.6052C37.3341 33.151 36.8851 32.1293 36.3984 31.1236L32.7685 23.6895C32.3841 24.8164 32.3387 26.2325 32.3389 27.4154L32.3505 28.9378C32.3601 29.1183 32.4054 29.2952 32.4118 29.4743L32.4455 30.5947L32.7775 33.9926L32.997 37.6192L33.0011 39.5746C33.0016 39.8852 33.1002 40.5662 32.9529 40.8424L32.8867 40.9561C32.2636 41.9431 30.656 42.2671 29.5456 42.2691L28.0328 42.2759C27.3122 42.2982 25.9994 42.4189 25.3542 42.5742L25.3309 42.58ZM22.5643 6.75259C21.2066 6.84278 19.841 6.92158 18.5505 7.39483C16.4382 8.16934 18.3572 8.74923 19.2454 9.17453C19.9464 9.5102 21.0166 10.2587 21.469 10.9299C21.8944 11.0109 22.3937 10.9679 22.8291 10.9695L25.45 10.9703C25.8236 10.9585 26.2353 10.9873 26.6009 10.9176C27.2975 10.0712 28.143 9.30897 29.1871 8.9185C31.2075 8.16283 30.0148 7.47915 28.7242 7.16073C27.7573 6.92219 26.6999 6.79501 25.7005 6.7547L22.9677 6.75166C22.839 6.7518 22.6902 6.73731 22.5643 6.75259ZM16.1588 8.68201C14.4801 8.83727 14.6657 10.4461 15.847 11.3913C16.1258 11.6144 16.4688 11.7841 16.7795 11.9586L19.6264 13.5398C20.0834 13.7776 20.6009 14.0132 21.0148 14.3185L21.7589 14.849C21.254 12.9368 20.5782 11.6038 18.8229 10.5803C18.0422 10.1251 16.5776 9.81283 16.3264 8.79442L16.3067 8.69603C16.2509 8.66823 16.2193 8.67841 16.1588 8.68201ZM31.6572 8.69312C31.0422 9.88159 30.2361 9.91534 29.1722 10.548C27.6241 11.4685 26.5194 13.1611 26.2379 14.937L27.1537 14.3033L31.8063 11.7697C32.0369 11.6407 32.278 11.508 32.4768 11.332C33.3707 10.5413 33.362 8.9942 32.0507 8.72992L31.6572 8.69312ZM22.4094 12.3845L23.099 14.3846C23.3862 15.3965 23.4568 16.667 23.4952 17.7346L23.4931 41.2654C23.7452 41.3106 24.071 41.2735 24.331 41.2724L24.3483 40.1192L24.3505 19.0671C24.3508 18.7955 24.3388 18.5185 24.3609 18.248L24.4634 17.3726C24.6201 15.5902 24.8188 14.016 25.5996 12.3769L23.4722 12.3721C23.1279 12.3725 22.7486 12.339 22.4094 12.3845ZM15.7851 13.0552C13.4414 14.3162 12.4891 16.7361 11.435 19.0001L6.97276 28.7125C6.63798 29.4542 6.06348 30.2056 6.33053 31.0547L6.33831 31.0824C6.50866 31.6707 7.07251 32.2036 7.65245 32.3663L7.85701 32.4228C8.30242 32.5391 8.89037 32.3981 9.2785 32.162C9.85183 31.8134 10.0615 31.0552 10.3307 30.483L14.423 22.0653C14.6372 21.6215 14.8038 21.0026 15.44 21.1336C16.0067 21.2502 16.3255 22.716 16.4167 23.1922L16.8527 25.9979C16.878 26.2163 16.8736 26.433 16.8861 26.6514L16.9445 29.3957L16.8565 31.402C16.849 31.6327 16.8485 31.8635 16.8039 32.0908C16.6987 32.6276 16.7533 33.3765 16.686 34.0022L16.5468 37.1016C16.5415 37.2441 16.512 37.3866 16.5054 37.5304L16.495 38.7856C16.4941 39.2454 16.4511 39.7546 16.5055 40.2086C17.4871 40.5391 18.7064 40.7739 19.7509 40.8753C20.3984 40.9382 21.4454 41.0233 22.0698 40.985L22.0643 18.832C22.0597 16.9146 20.9298 15.8887 19.3126 15.0183L15.7851 13.0552ZM32.3848 13.1277L27.5677 15.721C26.495 16.4214 25.7536 17.7109 25.7496 18.9963L25.7471 39.0639C25.7467 39.7095 25.7058 40.3832 25.7545 41.025L29.4731 40.8398C29.9439 40.8308 30.3625 40.7805 30.8055 40.621C31.4681 40.3825 31.5957 40.4125 31.5962 39.7934L31.5966 38.9889C31.5965 37.2512 31.4743 35.5149 31.319 33.7848L31.1042 31.4675C31.0932 31.3442 31.0642 31.2268 31.0549 31.1027L30.9602 29.1211L30.9565 26.3145C30.9643 25.3901 31.4527 21.9713 32.1638 21.3103C32.8637 20.6597 33.2947 21.5529 33.5372 22.0731L35.5137 26.059C35.7698 26.5852 36.0604 27.1136 36.2854 27.653L37.873 30.8789C38.0357 31.2119 38.1689 31.558 38.4093 31.8469C39.3928 33.0285 41.497 32.3529 41.7226 30.8438L41.7284 30.81C41.8625 29.9628 41.2422 29.1264 40.9001 28.3994L35.7846 17.377C35.134 16.0385 34.4028 14.5406 33.1636 13.6461C32.9112 13.4639 32.6345 13.3138 32.3848 13.1277Z" fill="black"/>
</svg>
