<svg width="48" height="48" viewBox="0 0 48 48" fill="none" xmlns="http://www.w3.org/2000/svg">
<path d="M24.6805 41.2772C24.4775 41.1409 24.3108 40.9447 24.1215 40.7887C23.3028 41.6128 22.2576 41.9394 21.1167 41.7663L18.9868 41.4027C17.6969 41.1421 16.4382 40.7686 15.4984 39.7877C14.2364 38.4703 14.3527 36.8901 14.6095 35.2262L15.2601 31.5175L15.5866 28.6403C15.6588 27.8782 15.7308 27.1216 15.7441 26.3556C15.7132 26.4825 15.6641 26.5361 15.6034 26.6442L13.9938 29.6723C13.2924 30.9814 12.6448 32.4959 10.9938 32.7748L9.90346 34.5429C9.33848 35.4232 8.87264 35.0376 8.15367 34.6895L6.85579 34.034C6.51323 33.8543 5.88501 33.6235 5.81273 33.1856L5.80748 33.152C5.74045 32.7943 5.97937 32.4713 6.13931 32.1703L6.84993 30.9001C7.02314 30.613 7.08168 30.6382 6.98821 30.3181C6.46059 28.5112 7.6739 26.7978 8.46703 25.2698L10.5074 21.1219L12.1603 17.0856C13.1162 14.6401 13.7926 12.8932 15.9195 11.1988L16.5259 10.7424C16.8882 10.4787 16.8128 10.5653 16.944 10.1613C17.894 7.23531 20.1491 6.32992 22.9586 6.15034C23.2152 6.11392 23.5056 6.13984 23.7653 6.13932C26.882 6.13318 30.0944 6.92518 31.1602 10.2729C31.2613 10.5904 31.1917 10.4867 31.4668 10.6898C33.0641 11.8691 34.319 13.3359 35.0755 15.1986L35.6559 16.7497L38.8369 24.0398L40.7107 27.7048C41.0612 28.4129 41.2692 29.2492 41.1033 30.0349C40.9637 30.6967 40.8895 30.3949 41.2383 30.9891L41.8412 32.1322C41.9844 32.4082 42.2526 32.7433 42.1967 33.0704L42.1904 33.1052C42.0792 33.747 41.3738 33.8514 40.8801 34.0856L39.5992 34.71C38.4999 35.2445 38.5023 35.1324 37.8194 34.0322L37.4075 33.3793C37.3035 33.2181 37.1724 33.0354 37.1189 32.85L37.1018 32.7887C37.0682 32.734 36.8635 32.7122 36.7969 32.6926C35.3728 32.2733 34.7805 31.1199 34.1515 29.9088L33.4364 28.5552C33.0401 27.7982 32.5719 27.0628 32.253 26.2682C32.1127 26.564 32.4462 28.8769 32.4901 29.3107C32.5701 30.1013 32.6009 30.9003 32.7188 31.6872L33.5039 36.3123C33.8024 38.0197 33.0642 39.7423 31.562 40.6226C30.9088 41.0054 30.1226 41.1799 29.3906 41.3452L27.2173 41.7559C26.3265 41.8997 25.4388 41.7846 24.6805 41.2772ZM22.9587 7.64645C22.7026 7.65414 22.4135 7.64101 22.1631 7.69445L22.1186 7.70584C21.7852 7.78796 21.4323 7.80409 21.0937 7.88321C18.3415 8.52629 17.6166 11.6795 18.6678 14.0178C18.9682 14.6858 19.3196 15.2767 19.7875 15.84C20.5849 16.8 22.1863 17.6144 22.9926 16.2104C23.6542 15.0585 22.1187 13.2341 21.3678 12.405C20.8279 11.8089 19.9437 11.121 20.2165 10.2096C20.4426 9.4547 20.9158 9.28328 21.6335 9.17865C22.5666 9.04257 24.2104 9.00531 25.1894 9.08668C26.0191 9.11429 27.5723 9.15353 27.8646 10.0895L27.8797 10.1256C27.982 10.3777 27.9597 10.7645 27.8604 11.0135L27.8468 11.0494C27.7142 11.3923 27.4343 11.6942 27.1777 11.9509L26.2624 12.8467C25.6958 13.4331 24.5154 14.9927 24.873 15.8987L24.9025 15.9848C24.9194 16.0377 24.9393 16.0866 24.9639 16.1364L24.9809 16.1713C25.1538 16.5133 25.508 16.7821 25.8712 16.8942L26.095 16.9557C27.1244 17.2231 28.3223 15.6922 28.7655 14.955C31.1459 10.9956 29.611 8.32679 25.3828 7.74151C24.8347 7.66567 24.3215 7.64753 23.7667 7.64284L23.1988 7.64331C23.1315 7.64396 23.0219 7.63074 22.9587 7.64645ZM23.1256 10.5286L22.3587 10.5447C21.9611 10.5511 21.4549 10.4699 21.9045 10.8744C22.6794 11.5718 23.3867 12.4414 23.9207 13.3352L24.0157 13.4743L24.4239 12.8106C24.8032 12.2636 25.2557 11.7814 25.7323 11.3185L26.4369 10.6494C26.1376 10.6132 25.8596 10.5624 25.5535 10.5482L24.1325 10.5258C23.8013 10.5263 23.4553 10.5062 23.1256 10.5286ZM31.273 12.4098C31.223 12.5845 31.2018 12.7597 31.1602 12.9357C30.5893 15.3481 28.4735 19.1523 25.4958 18.3126L24.864 18.0811C24.8257 18.5086 24.8492 18.9525 24.8501 19.3818L24.8524 37.7082C24.8525 38.2041 24.8136 38.7182 24.9219 39.2045L24.9277 39.232C25.0411 39.7422 25.5843 40.2152 26.0977 40.3156L26.1243 40.3211C26.8269 40.4563 29.6618 39.7776 30.3246 39.5418C31.4995 39.1239 32.2227 37.9385 32.0759 36.6913C32.0249 36.2582 31.8916 35.8203 31.8109 35.3903L31.2944 32.3807C31.26 32.1824 31.2559 31.8922 31.1759 31.7153C30.4181 31.608 28.3046 31.0091 27.5802 30.718C25.9868 30.0778 24.5663 27.926 25.0931 26.2262L25.1017 26.1974C25.3199 25.506 26.5004 25.2139 26.5 26.4493C26.4998 27.2769 26.5842 27.9199 27.0997 28.6199C27.7343 29.3289 28.5856 29.4408 29.4599 29.6993C29.9971 29.858 30.5444 30.0523 31.0933 30.16L30.9133 28.2641C30.9004 28.0968 30.8734 27.9311 30.8666 27.7633L30.8656 23.8908C30.8723 23.721 30.9065 23.5549 30.9191 23.386L31.1202 21.2556C31.1962 20.5343 31.3607 18.5809 31.7859 18.0557C32.3154 17.4015 33.1277 17.8934 33.0462 18.6208C33.0201 18.8537 32.9462 19.0886 32.9098 19.3215L32.4756 22.7654C32.4523 23.0407 32.3367 23.3897 32.4636 23.6481L35.8822 30.088C36.1058 30.5478 36.5039 31.0513 37.0078 31.2177L37.3014 31.2983C37.703 31.3987 38.3405 31.21 38.6854 30.9937C40.4069 29.9141 39.4813 28.5455 38.8447 27.2027L36.4069 22.2069L34.7499 18.2872C34.0409 16.4818 33.0593 13.4688 31.2997 12.4094L31.273 12.4098ZM16.7315 12.4684C14.8648 13.9301 14.1389 16.0117 13.3413 18.1554L12.2035 20.995L10.8101 23.9536L8.80865 27.8384C8.61145 28.2127 8.37698 28.6335 8.32818 29.0585C8.11171 30.9455 10.6299 32.1843 11.8138 30.5922C12.2106 30.0586 12.4684 29.386 12.7906 28.8031L15.6142 23.5839C15.5368 23.0438 15.5253 22.4858 15.4763 21.9415L15.2107 19.945C15.1529 19.5361 14.9258 18.5373 15.019 18.1872L15.0269 18.157C15.1673 17.6515 15.9189 17.3607 16.1956 17.9178L16.2223 17.9762C16.269 18.0748 16.3099 18.164 16.3409 18.2692L16.4424 18.6579C16.5234 18.922 16.5606 19.2253 16.5993 19.4992L16.967 22.4645L17.1172 24.4333L17.1216 27.4786L16.8927 30.1592C16.9275 30.1754 16.9499 30.1604 16.9874 30.1513L18.8555 29.6262C19.713 29.3686 20.4973 29.1912 21.0659 28.4202C21.3742 27.9345 21.5235 27.4975 21.5414 26.9256L21.5498 26.3579C21.5563 26.0122 21.7308 25.7374 22.092 25.6464L22.1737 25.6294C22.4924 25.5699 22.805 25.8641 22.9159 26.1362L22.9259 26.1603C23.0266 26.4211 22.9849 27.3406 22.9367 27.6032C22.6676 29.0708 21.6459 30.3187 20.2266 30.7947C19.8883 30.9082 19.5341 30.9822 19.1922 31.0841L17.1928 31.6382C16.9412 31.6964 16.7118 31.6402 16.6722 31.8541L16.3564 33.4873C16.2114 34.1948 16.0406 34.9041 15.9421 35.6199L15.8937 36.1413C15.8506 36.5321 15.7796 37.0349 15.8704 37.4217L15.8894 37.4997C16.4117 39.5534 18.6008 39.8416 20.3687 40.165C21.3609 40.3465 22.6302 40.6113 23.2214 39.5265L23.2702 39.4299C23.3486 39.2723 23.3885 39.1161 23.3913 38.9401L23.3653 18.44C23.3653 18.2859 23.39 18.0773 23.345 17.9307C20.2075 19.8529 17.5775 16.0115 16.9205 13.3473L16.7315 12.4684ZM40.0655 31.8232C39.6192 32.1438 39.1723 32.3823 38.6741 32.6058C38.7309 32.7361 38.976 33.2906 39.1055 33.2679L40.4749 32.6025C40.3357 32.3516 40.1685 32.0908 40.0655 31.8232ZM8.01857 31.863L7.52817 32.6829L8.93151 33.379L9.22317 32.8923C9.2692 32.8176 9.3607 32.7099 9.37786 32.6257C9.03782 32.4974 8.70923 32.3522 8.40782 32.1456C8.31623 32.0829 8.11157 31.8758 8.01857 31.863Z" fill="black"/>
</svg>
