<svg width="48" height="48" viewBox="0 0 48 48" fill="none" xmlns="http://www.w3.org/2000/svg">
<path d="M25.8465 42.9216L24.4169 42.6546C24.0459 42.6101 22.4824 42.426 22.1899 42.6648C20.5452 44.0081 17.5455 44.1993 15.6765 43.3165C13.4395 42.2598 13.507 40.8913 13.6832 38.8442L13.9519 36.234C14.0138 35.7474 14.0174 35.2363 14.1115 34.7555L14.5566 31.9215L15.4162 27.7567L16.2255 24.6143C16.3415 24.2234 16.3984 23.6437 16.6874 23.3426L16.7159 23.3136C16.7751 23.2524 16.8401 23.2408 16.9203 23.2253L16.9651 23.2169C17.2245 23.1664 17.5281 23.2986 17.6392 23.5434L17.6491 23.5661C17.7352 23.7487 17.7136 23.937 17.672 24.1286L16.4086 29.1325L15.6593 33.0231L15.0986 37.3922L15.0489 38.0757C14.8991 39.5824 14.4048 41.0834 15.9362 41.9675C18.8537 43.6517 22.962 41.6323 23.5283 38.3418C23.5829 38.0245 23.5705 37.6809 23.5717 37.3596L23.5769 12.5006C23.5116 12.4588 23.3689 12.4657 23.2882 12.4571L22.6493 12.3603C20.752 11.9802 19.0123 10.635 18.31 8.81538C16.4021 9.4669 14.727 10.6555 13.9774 12.612C13.7948 13.0885 13.6806 13.5889 13.5234 14.0739L10.4144 24.3042L7.79577 33.5572C7.73235 33.8119 7.68229 34.1215 7.82952 34.3552L7.84734 34.3825C8.1577 34.8673 9.34996 35.0073 9.89446 35.1681L10.9139 35.4803C11.9716 35.7931 11.9938 35.4794 12.1971 34.4738L12.6817 31.5231L13.5015 27.298L15.829 18.1983C15.9384 17.7744 16.137 16.9214 16.8059 17.2361C17.2392 17.4401 17.2485 17.8466 17.1556 18.2457L14.7392 27.6622L13.5975 34.0075C13.4605 34.7302 13.4227 35.4674 13.0123 36.1059L12.8719 36.3041C11.9981 37.4303 10.6266 36.7304 9.53896 36.4336C8.2882 36.0924 6.87951 35.9937 6.4964 34.4762C6.32554 33.7995 6.54941 33.2245 6.73795 32.5787L9.44095 23.0518L12.718 12.2905C13.4836 10.0759 15.7622 8.04911 18.0551 7.49716C18.1334 7.47832 18.1894 6.88816 18.2193 6.76699C18.7792 4.50422 21.0303 4.21564 23.0033 4.08774C23.4724 4.06317 23.9305 4.10435 24.3973 4.11805C26.4686 4.1788 29.1144 4.34257 29.7538 6.73554C30.0154 7.71457 29.5595 7.4179 30.5396 7.70247C33.3783 8.52663 35.0489 10.3651 35.7603 13.2759C35.8576 13.674 35.9822 14.0623 36.0741 14.4606L37.8583 20.7393C37.9079 20.9826 37.9904 21.2424 38.063 21.4801L38.5851 23.2614C38.7 23.6491 38.7907 24.0463 38.9074 24.4332L39.2882 25.8243C39.4043 26.2242 39.5614 26.6307 39.6431 27.0396C39.7214 27.4321 39.9171 28.1222 40.0442 28.4792C40.2749 29.1272 40.4424 29.8172 40.6271 30.4801C40.7799 31.0286 41.038 31.8052 41.1426 32.3468L41.4549 33.4321C41.7675 34.445 41.3473 35.6219 40.3521 36.0611C40.0594 36.1903 39.7355 36.2573 39.4264 36.3365L38.1578 36.6676C37.4345 36.8543 36.7219 37.1576 35.9817 36.862L35.7054 36.7366C34.6501 36.1475 34.6354 34.7177 34.4694 33.678L33.9316 30.6111L33.212 27.5503L32.4002 24.8823C32.1756 24.0684 32.0242 23.2378 31.8661 22.4093L31.0126 18.2793C30.9129 17.8048 30.6973 16.9751 31.3891 16.8352C31.9211 16.7276 32.1035 17.1725 32.2033 17.5895L33.1333 22.0779C33.1576 22.1793 33.1639 22.2859 33.1818 22.3886L33.4156 23.6701C33.4626 23.913 33.4965 24.1722 33.578 24.4069L34.3909 27.039C34.3995 27.0776 34.4084 27.1129 34.4213 27.1505L34.9571 29.2586C34.993 29.4906 35.0714 29.7256 35.117 29.9578L35.4853 31.9215C35.5083 32.0494 35.5095 32.1809 35.5317 32.3082L35.8527 34.2695C35.8967 34.5542 35.922 34.8687 36.0242 35.1398L36.0987 35.3786C36.3365 35.8971 37.0008 35.5978 37.4078 35.4912L39.2844 35.0266C40.5555 34.7203 40.2996 34.0982 40.0334 33.1331L34.7683 14.5275C34.6097 13.9384 34.4741 13.3255 34.2797 12.7481C33.5892 10.6968 31.7219 9.22019 29.6024 8.84936C29.0661 10.7276 26.7948 12.2826 24.9329 12.4532L24.9034 12.4557C24.8896 12.6639 24.9082 12.8782 24.9091 13.0873L24.9119 36.9067C24.9115 37.2194 24.9186 37.5316 24.8778 37.8424L24.7616 38.8136C24.6235 39.6947 24.0977 40.5368 23.6349 41.2785C24.7038 41.3834 25.7834 41.4909 26.8124 41.8189C27.8314 42.1437 28.3527 42.5726 29.4713 42.5701C31.0964 42.5666 33.0252 42.0292 33.1592 40.0861C33.2314 39.0395 33.0467 37.9623 32.9299 36.9254C32.6614 34.544 32.3152 32.1574 31.7427 29.8276L30.8361 26.3693C30.6281 25.6395 30.3749 24.8985 30.2226 24.1558C29.9938 23.0408 31.2617 22.8372 31.487 24.0135C31.5146 24.1576 31.5711 24.3542 31.624 24.4919L32.0627 25.9801C32.1247 26.1689 32.1936 26.3815 32.233 26.5754L32.332 26.9553C32.3482 27.0539 32.3908 27.1443 32.4159 27.2413L32.625 28.0661C32.6584 28.1747 32.6902 28.2764 32.7067 28.3897L33.3629 31.2399C33.392 31.4186 33.4416 31.595 33.4731 31.7751L33.6104 32.4606C33.6355 32.5882 33.6329 32.7208 33.6564 32.8473L33.9817 34.9201C34.0085 35.1611 34.0009 35.409 34.0327 35.6481L34.2598 37.148C34.4011 38.1818 34.5396 39.9983 34.3199 40.9215C33.6935 43.5541 30.3053 44.3229 28.0281 43.6527C27.2886 43.4351 26.5998 43.1111 25.8465 42.9216ZM22.4511 5.48829C21.7335 5.52911 20.955 5.60866 20.3021 5.93079C21.2931 6.90133 22.808 7.13815 24.1371 7.12352L25.3646 7.02574C26.1815 6.86093 27.0122 6.6409 27.6067 6.01146C27.2031 5.78294 26.728 5.72144 26.2736 5.67011L23.1732 5.48388C22.9343 5.48388 22.6893 5.4738 22.4511 5.48829ZM19.5304 7.01918C19.3974 7.34524 19.2968 7.81783 19.4354 8.15777L19.5977 8.57276C20.2066 10.0453 22.0601 11.0012 23.5645 11.1952C23.5688 10.4425 23.5326 9.66808 23.5786 8.91827C23.6221 8.21126 23.8777 8.48407 22.9507 8.40283C21.8419 8.30566 20.5651 7.87497 19.7033 7.14307C19.6621 7.1081 19.5831 7.01679 19.5304 7.01918ZM28.4371 7.01908C27.3708 7.93488 26.2896 8.30107 24.8794 8.43232L24.895 11.0973C24.9426 11.1123 24.9195 11.1126 24.9644 11.0991C26.7175 10.8622 29.1189 8.91002 28.4371 7.01908Z" fill="black"/>
</svg>
