<svg width="48" height="48" viewBox="0 0 48 48" fill="none" xmlns="http://www.w3.org/2000/svg">
<path d="M27.5976 42.7311L16.9235 42.7312C15.9156 42.7311 15.0528 42.7085 14.2462 41.9413C13.1344 40.8839 13.2117 39.9191 13.2115 38.542L13.1986 36.383C10.7513 36.8727 8.70394 35.3606 8.88854 32.8417C8.91207 32.521 8.99935 32.221 9.07421 31.9103L11.7001 19.8038L12.3574 16.5233C12.5002 15.7938 12.5441 15.3684 12.5863 14.6283C12.6763 13.0502 13.7663 11.3925 15.2729 10.8232C15.791 10.6275 16.3059 10.5466 16.854 10.4939C16.8733 10.4248 16.8001 10.2539 16.7803 10.1776C16.0859 7.51173 18.2201 5.40798 20.7836 5.26009C21.249 5.25006 21.7404 5.21706 22.2016 5.27827C22.7582 5.35215 23.2877 5.52451 23.8381 5.61924C25.0812 5.83327 25.7616 5.57087 26.9 5.45359C29.9218 5.14229 31.9622 7.62301 31.1637 10.4721C31.3486 10.5489 31.6102 10.51 31.8139 10.5656C33.4604 11.0151 34.7621 11.8832 35.2319 13.6639L35.3534 14.1256C35.4137 14.2992 35.4066 14.4841 35.4111 14.6658C35.4311 15.4724 35.5279 16.2278 35.7191 17.0155C35.7829 17.278 35.8623 17.5605 35.8958 17.8284L37.8626 27.1247C37.8749 27.2076 37.9032 27.2821 37.9224 27.3631L38.813 31.4437C38.9126 31.9262 39.0943 32.4018 39.1313 32.8968C39.3098 35.2871 37.077 37.0182 34.8185 36.3345C34.7828 36.6507 34.8038 36.9915 34.8032 37.3101L34.7993 39.1287C34.7978 39.6237 34.7992 39.8565 34.6976 40.3303C34.3274 42.0567 32.9426 42.7291 31.3427 42.7305L27.5976 42.7311ZM21.1315 6.68415C19.9836 6.76295 18.8157 7.06168 18.2656 8.16784L18.2479 8.20224C17.9779 8.73212 17.9394 9.27662 18.1054 9.84357L18.236 10.2421C18.4609 10.8683 18.816 11.3759 19.1275 11.9593C19.4048 12.4788 19.5724 12.9942 19.7251 13.5605L19.9046 14.2567C20.4299 13.9275 20.9792 13.5953 21.5679 13.3915C22.107 13.1747 22.6439 13.0573 23.2205 12.9904C22.7925 12.4925 22.3442 11.9836 21.8718 11.5269L20.4093 10.2463C20.127 10 19.8584 9.76159 19.6894 9.42174L19.6704 9.38438C19.4394 8.91802 19.4716 8.30026 19.7373 7.8601C20.1278 7.21309 21.0863 6.9084 21.7734 6.7156L21.1315 6.68415ZM27.2004 6.85285C27.1476 6.85951 26.9461 6.86762 26.9167 6.89729C27.5748 7.12356 28.2247 7.58452 28.4339 8.2733L28.4476 8.31652C28.8432 9.61632 27.2493 10.4929 26.5029 11.2394C25.9581 11.7843 25.4854 12.3612 25.0971 13.0284C25.3285 13.1597 25.5894 13.2272 25.8413 13.311L26.673 13.6248C26.7278 13.6479 26.8478 13.681 26.889 13.7191C27.276 13.8864 27.6061 14.0987 27.9711 14.3022L29.2861 11.5375C29.9927 10.0218 30.5729 8.00368 28.6327 7.09655C28.2008 6.89466 27.6738 6.80087 27.2004 6.85285ZM23.5785 7.85621C22.7539 7.92357 21.5109 8.14431 20.8359 8.68552C20.9167 8.82423 21.0174 8.90471 21.1339 9.01159L22.7491 10.4316L24.1084 11.8095L24.2615 11.6013C24.7716 10.9601 25.355 10.3722 25.963 9.8244L26.7403 9.13834C26.8863 9.0113 27.0629 8.89191 27.1736 8.7324C26.667 8.06138 24.4757 7.82026 23.5785 7.85621ZM30.6772 11.8739L29.3587 14.6269C29.1689 15.0237 28.9545 15.6684 28.4963 15.8335L28.4219 15.859C27.8837 16.0468 27.3875 15.5518 26.9453 15.3127C26.3806 15.0074 25.7947 14.7796 25.1888 14.5714C25.3783 15.2777 25.687 15.9468 25.8911 16.6522L26.4722 18.6587C26.7649 19.58 26.8997 21.0468 26.9759 22.0077L27.046 22.8281L27.0476 37.9085L33.4314 37.9122L33.4445 35.0134C33.4457 34.1704 33.4694 33.7533 33.3399 32.9304L32.9303 28.8631L32.3312 21.246C32.3236 21.1375 32.3288 21.0121 32.3011 20.9071L32.2527 19.869C32.1975 18.859 32.0898 17.8531 32.0796 16.839C32.0777 16.6618 32.0396 16.46 32.0823 16.2889L32.089 16.26C32.2364 15.6609 33.0677 15.4926 33.3292 16.078L33.3865 16.237C33.4745 16.4887 33.4487 16.8637 33.4586 17.1319L33.5373 18.1092C33.5663 18.7067 33.6116 19.3075 33.6323 19.8975L33.8508 23.4608L34.4169 29.9342L34.7086 32.754C34.7511 33.0962 34.7433 34.771 34.879 34.8607C35.0275 34.9587 35.262 35.0391 35.4375 35.0639L35.4818 35.0703C36.6326 35.2314 37.5952 34.4991 37.743 33.3454C37.7993 32.9058 37.6509 32.4576 37.5424 32.0369L35.6547 23.5077L34.3007 16.5895C34.24 16.2901 34.1555 15.9942 34.1171 15.6906C34.0636 15.2675 34.1022 14.8289 34.0103 14.4114C33.6183 12.6311 32.3339 11.9628 30.6772 11.8739ZM16.9911 11.9395C15.4239 12.0714 14.3655 12.7822 13.9944 14.3433C13.9354 14.5918 13.9533 14.8477 13.9359 15.101L13.8569 15.8262C13.7811 16.4359 13.6369 17.0562 13.5181 17.66L12.8149 21.3046L10.3759 32.4374C10.3085 32.7198 10.2122 33.0351 10.2364 33.328C10.3019 34.1219 10.9584 34.9453 11.7773 35.0639L11.8163 35.0699C12.1193 35.1113 12.925 35.1007 13.1883 34.8973C13.1412 33.636 13.3744 32.4012 13.4939 31.1504L14.1857 22.2302C14.1944 22.1039 14.2246 21.9835 14.234 21.8604L14.3755 19.2931C14.406 18.7989 14.421 18.0131 14.5046 17.5884C14.6101 17.0527 14.3615 16.1975 14.8707 15.8422C15.2812 15.5557 15.9058 15.8314 15.9343 16.3358C15.9651 16.8819 15.8853 17.4425 15.8483 17.9862L15.2348 27.2342L14.7055 33.2657C14.6366 34.1164 14.5913 34.7053 14.5928 35.5897L14.5864 37.8902L21.7461 37.8903L21.7451 35.6366L21.745 18.3209C21.7456 17.7984 21.7232 17.0408 22.4648 17.0667C22.73 17.0759 22.9221 17.3052 23.023 17.5301L23.0345 17.5548C23.2084 17.9389 23.1093 18.672 23.1091 19.0978L23.1182 40.0994C23.1369 40.5433 23.5253 41.0127 23.9179 41.1811L23.9596 41.1994C24.779 41.5481 25.624 40.7571 25.663 39.9486L25.6626 22.7228C25.5756 20.3742 24.9292 18.0408 24.1609 15.8358C23.9866 15.3356 23.7505 14.8561 23.5894 14.3514C22.6183 14.4344 21.7148 14.7989 20.888 15.3028L20.3641 15.6447C19.1224 16.4867 18.6854 15.119 18.457 14.1805L18.2453 13.4413C18.1575 13.1696 17.7734 12.1061 17.5066 11.9581C17.3977 11.8978 17.1163 11.9322 16.995 11.939L16.9911 11.9395ZM14.7565 39.2661L14.5853 39.3046C14.584 39.61 14.6145 39.97 14.7233 40.2608C14.8591 40.624 15.4051 41.2086 15.8287 41.2609C16.0425 41.2872 16.2811 41.268 16.4972 41.268L21.9875 41.268L22.0726 41.2895C22.0587 41.2019 22.0034 41.1145 21.9707 41.0308C21.684 40.2972 21.794 40.0236 21.732 39.2778L14.7565 39.2661ZM27.2534 39.2832L27.082 39.3062C27.0433 39.5229 27.0857 39.7441 27.0639 39.9621C27.0203 40.3994 26.8576 40.8368 26.7133 41.2495C26.7354 41.2707 26.7213 41.2636 26.7585 41.2641L32.0039 41.2669C32.2473 41.2622 32.4612 41.1579 32.6598 41.0235C33.2288 40.6477 33.422 39.9448 33.4251 39.2968C33.1253 39.2568 32.8196 39.2686 32.5176 39.2686L27.2534 39.2832Z" fill="black"/>
</svg>
