<svg width="48" height="48" viewBox="0 0 48 48" fill="none" xmlns="http://www.w3.org/2000/svg">
<path d="M31.8083 42.6996L26.302 42.7191C25.2523 42.6494 24.6227 42.2053 23.9713 41.4608L23.4941 41.9501C22.6842 42.6674 21.7501 42.7247 20.7333 42.7261L17.1394 42.727C16.7958 42.7268 16.4423 42.7424 16.0997 42.7204C13.9725 42.5838 12.1035 40.9479 11.8427 38.8079C11.7912 38.3855 11.8627 37.9574 11.891 37.5378L12.2141 34.0017C11.6128 34.4617 11.0996 34.7175 10.3335 34.7902C10.227 34.9066 10.1648 35.1175 10.1019 35.2634C9.78406 36.0006 9.26947 36.5525 8.43739 36.6951C7.74458 36.8138 7.09883 36.3528 6.50652 36.0695C6.0515 35.8518 5.53058 35.6879 5.12234 35.3886C4.14458 34.6719 4.30983 33.4146 4.95195 32.5363C4.88023 32.312 4.72508 32.1677 4.70319 31.9074L4.69986 31.8636C4.64027 31.1603 5.00352 30.6232 5.30858 30.0232L8.55392 22.6379L10.8834 16.7628C12.4952 12.6209 13.5267 9.5698 17.7166 7.35716C17.8262 7.29927 18.7241 6.92619 18.7272 6.92254C18.8738 6.74704 18.3749 5.41049 19.397 5.28074C19.5879 5.31623 19.7632 5.36666 19.8765 5.53705L19.8955 5.56673C20.1196 5.90873 20.0093 6.47188 20.01 6.85921L20.0398 7.97493C20.0451 8.3383 20.0334 8.70079 20.062 9.06355L20.1026 9.0411C21.0401 8.5386 23.0277 8.52055 24.071 8.53021C24.6829 8.53583 25.0246 8.58547 25.6055 8.64693C26.4099 8.73205 27.1737 8.98133 27.9437 9.21613L28.0126 6.17821C28.0124 5.93971 27.9743 5.72971 28.1295 5.5319L28.1485 5.50813C28.4441 5.13233 28.9841 5.23865 29.1671 5.65949L29.1824 5.69563C29.3339 6.03435 29.2604 6.5458 29.2706 6.91888C29.4709 7.05707 29.7683 7.12326 29.9935 7.22957C33.4333 8.85304 34.9445 11.3355 36.2948 14.6481L39.0928 21.762L42.0276 28.6876L42.6395 29.9446C43.0962 30.8125 43.5935 31.5167 43.0822 32.5053L43.4822 33.3739C43.7532 34.0498 43.4838 34.9142 42.9145 35.3552C42.5247 35.6571 42.0194 35.8207 41.5793 36.0369C40.7476 36.4455 40.009 36.9981 39.0586 36.5343C38.3034 36.1657 38.0191 35.5461 37.762 34.791C37.0865 34.7778 36.3115 34.4322 35.783 34.0424L36.1514 37.8472C36.386 40.146 34.7905 42.1701 32.5421 42.6188C32.3042 42.6663 32.0501 42.6755 31.8083 42.6996ZM18.7385 8.33235C16.5989 9.07682 14.6074 11.3543 13.6721 13.301L5.99422 31.5357L9.79147 33.3255C11.1072 33.8995 12.3 32.3426 12.5386 31.2191L12.8032 30.0856C13.0036 29.1226 13.1843 28.1584 13.4648 27.2134L14.0627 25.4643C14.5097 24.1373 14.8627 22.7742 14.9953 21.3773C15.0277 21.0364 14.9575 20.4936 15.1569 20.1963L15.1729 20.1718C15.4663 19.7403 16.055 19.8953 16.2472 20.3206L16.2594 20.3459C16.529 20.9497 15.8162 24.1716 15.5947 24.7816C15.4057 25.5029 15.1372 26.1989 14.9057 26.9066L14.3688 28.7649C14.1818 29.5315 14.0602 30.3194 13.9336 31.0979L13.4074 34.6878L13.1721 37.3714C13.118 38.0154 13.0077 38.6859 13.2575 39.3039L13.3744 39.5912C14.0743 41.072 15.2616 41.3469 16.7237 41.3481L20.6482 41.3496C21.6035 41.3505 22.5437 41.4275 23.1061 40.4793C23.3974 39.9883 23.3392 39.5118 23.3399 38.9646L23.3323 20.0292C23.2526 19.8861 23.1149 19.7842 23.0223 19.6417L21.1127 16.2802C20.051 14.1988 19.1595 12.0168 18.8714 9.68357L18.7385 8.33235ZM29.2626 8.32269C29.2209 8.58093 29.2267 8.84366 29.2002 9.10415C29.0451 10.6275 28.7445 12.0611 28.1687 13.4841L27.4101 15.2118L25.1992 19.3746C25.0721 19.5902 24.9427 19.8186 24.7383 19.9692L24.6011 20.0622L24.5801 39.0104C24.5805 40.124 24.658 40.9409 25.9636 41.3283C26.0987 41.3683 26.2709 41.3537 26.4112 41.3531L31.2303 41.3503C31.5643 41.3506 31.9319 41.3796 32.2617 41.3338C33.5655 41.1527 34.7367 40.0325 34.9007 38.7191L34.907 38.6764C34.9857 38.1277 34.8402 37.5363 34.8026 36.9872L34.4306 33.4691C34.2071 31.6916 33.933 29.9284 33.4668 28.1956L32.5277 25.2782C32.4861 25.1399 32.4574 24.9968 32.4071 24.8615L31.7394 21.4258C31.6868 21.165 31.6387 20.5026 31.7831 20.2738L31.8003 20.2453C32.1415 19.6917 32.7947 19.8159 32.9398 20.5379C32.9902 20.7885 32.9736 21.0748 32.9963 21.3321L33.1876 22.7581C33.363 23.7653 33.6936 25.0116 34.0793 25.9691L34.9121 28.7836C35.1308 29.5577 35.2606 31.0244 35.5602 31.6611C36.0584 32.7199 37.0248 33.8688 38.3155 33.2698L42.0358 31.5391C41.8745 31.1661 41.6707 30.8072 41.4851 30.4456L40.7348 28.9105L36.0996 17.6297C34.7464 14.1967 33.8271 10.9395 30.4667 8.95096C30.0772 8.72043 29.664 8.53082 29.2626 8.32269ZM22.6976 9.79968C21.8885 9.83451 21.0084 10.0268 20.2634 10.3504C20.3591 10.8192 20.4089 11.3032 20.5788 11.7542L21.2815 13.7113C21.4851 14.2161 21.7363 14.7056 21.9765 15.1934L23.6693 18.2464C23.7875 18.452 23.8766 18.6592 24.0337 18.8407L24.5182 17.9663L26.2338 14.7088C26.8818 13.3785 27.4516 11.9881 27.7265 10.5291C26.7739 10.1021 25.2672 9.84885 24.1919 9.80797L22.6976 9.79968ZM6.06598 32.9893C5.30131 34.4534 5.77138 34.2832 7.00719 34.8738C7.35059 35.0379 8.21975 35.672 8.55509 35.3301C8.76997 35.0546 8.9592 34.7123 9.07175 34.38L6.06598 32.9893ZM41.8654 33.0355C41.1206 33.322 40.4187 33.6961 39.6978 34.0351C39.4571 34.1484 39.1488 34.2349 38.9317 34.3799C39.087 34.6927 39.2392 35.1488 39.4993 35.3818C39.7747 35.5482 40.0953 35.3083 40.3535 35.1814L41.0773 34.8402C42.3306 34.2755 42.6119 34.3948 41.9461 33.0306C41.8873 33.0246 41.9141 33.0214 41.8654 33.0355Z" fill="black"/>
</svg>
