<svg width="48" height="48" viewBox="0 0 48 48" fill="none" xmlns="http://www.w3.org/2000/svg">
<path d="M15.7557 41.4016C15.199 41.1237 14.5241 41.2523 13.941 41.0992L13.8984 41.0877C12.1896 40.64 10.9969 38.6696 11.3829 36.9739C11.5272 36.3401 11.7358 35.7623 11.9502 35.1506L12.6785 33.0626L15.843 23.1859L16.3097 21.4882C16.7418 19.9918 17.1743 19.4186 18.3895 18.3799C18.4405 18.3364 18.4197 17.4279 18.42 17.2895L18.4212 15.6494C18.4193 14.6701 18.3617 14.0003 17.8809 13.1056L17.17 11.9238C16.4128 10.5581 16.4002 9.96589 16.3982 8.48361L16.3934 5.05142C16.3925 4.841 16.377 4.61639 16.3992 4.40763C16.4403 4.02 16.972 3.79989 17.3086 3.87387C17.9351 4.01158 17.8619 4.7097 17.864 5.18759L17.8707 6.91531C20.0821 5.80138 22.676 7.54817 24.3426 8.88734C24.9074 8.24778 25.5204 7.68233 26.2603 7.24958C27.214 6.69191 28.6945 6.30711 29.7721 6.76362C29.8731 6.80642 30.015 6.83441 30.1028 6.8968L30.1339 6.92038C30.1651 6.74131 30.1533 6.53895 30.1559 6.35698L30.1557 5.17948C30.1481 4.60415 30.0724 4.03312 30.7627 3.84794C31.633 3.79143 31.6139 4.49106 31.6154 5.11288L31.62 8.08588C31.6258 9.4948 31.601 10.4918 30.9062 11.8056C29.8631 13.7778 29.5923 13.5592 29.5902 16.0095L29.5808 18.3527C29.6602 18.4388 29.727 18.4847 29.8225 18.5476C30.7493 19.1581 31.5572 20.7694 31.7653 21.8148L32.6982 25.0545L35.6021 33.9373C35.8759 34.8258 36.3265 35.6849 36.5109 36.5967L36.528 36.6678C36.6102 36.927 36.6116 37.1731 36.6124 37.4418C36.6177 39.1583 35.6999 40.7844 33.8877 41.1321C33.3947 41.2267 32.8982 41.2061 32.4087 41.3402C31.9947 41.4537 31.655 41.6949 31.2732 41.8771C30.8801 43.0628 29.8093 44.0182 28.5451 44.1205C28.2221 44.1466 27.8788 44.1044 27.5559 44.0794C26.1097 43.9673 25.0783 43.5235 24.0021 42.6013L23.3658 43.1174C22.72 43.5772 21.9229 43.908 21.1374 44.0233C19.4321 44.2736 17.7747 44.0948 16.9407 42.3476C16.8801 42.2205 16.8162 42.0925 16.784 41.9547L16.7793 41.9329C16.4419 41.7452 16.1182 41.5391 15.7557 41.4016ZM28.615 8.09581C27.1325 8.21703 26.1075 9.01906 25.2857 10.2082C25.1098 10.4627 24.9543 10.7277 24.6445 10.832L24.6112 10.8436C24.4287 10.903 24.2149 10.8699 24.0474 10.7821L23.9894 10.7516C23.8237 10.6632 23.6939 10.4868 23.5693 10.3486L23.1258 9.89895C22.1329 8.97594 19.9257 7.63156 18.5859 8.22941L18.5543 8.24333C16.9306 8.97336 18.6406 11.3841 19.1216 12.2693C19.9666 13.8246 19.8741 15.1125 19.8818 16.8005C19.8831 17.066 19.8521 17.3872 19.9242 17.6412L19.9591 17.6373C20.3868 17.594 20.6408 17.8944 20.6487 18.3162L20.6298 18.5041C20.5604 19.0384 20.0812 19.1277 19.683 19.3484C18.1969 20.1721 17.9812 21.0359 17.5751 22.5232L16.0584 27.558L13.9678 33.9139C13.6273 34.9088 13.046 36.312 12.836 37.3115C12.6267 38.308 13.3088 39.2893 14.2322 39.6107L14.3162 39.6403C14.6575 39.7559 15.0685 39.6202 15.4297 39.7287C16.0215 39.9065 16.4006 40.016 16.9769 40.3158L20.7184 21.6511C20.8259 21.1029 20.9255 20.5297 21.1092 20.0019C22.2035 16.8583 25.6692 16.8384 26.816 19.8982L26.9256 20.1928C27.0248 20.4487 27.0492 20.7404 27.1055 21.0068L28.5577 28.1424C28.6553 28.5842 28.7072 29.045 28.8224 29.4812L31.037 40.0447C31.0512 40.1231 31.0837 40.1905 31.0931 40.271C32.6139 39.3885 34.5293 40.2021 35.069 38.1519C35.3023 37.2653 35.0547 36.7963 34.7601 35.9789L33.1246 31.31L30.4274 22.5467C30.0208 21.0897 29.7574 20.1673 28.3186 19.3873C27.8586 19.138 27.1575 18.8399 27.3293 18.1824C27.4248 17.8166 27.7099 17.556 28.0974 17.6185L28.1015 15.8439C28.1013 13.5579 28.3763 13.3423 29.4582 11.3593C30.1323 10.1236 30.8305 8.05245 28.6945 8.09117L28.615 8.09581ZM23.9134 19.1086C23.1051 19.2456 22.5871 20.0951 22.4142 20.8353L18.3279 41.1326C18.2752 41.4112 18.2855 41.5879 18.4067 41.8513L18.4212 41.8833C18.7294 42.5366 19.3581 42.6152 19.9898 42.5881C21.3098 42.5314 22.2785 42.23 23.2047 41.2607C23.3448 41.1141 23.4672 40.9229 23.6402 40.8162L23.6649 40.8007C23.83 40.701 23.9904 40.7067 24.1746 40.7034L24.2028 40.7168C24.5625 40.8913 24.7707 41.2485 25.0572 41.5158C25.8421 42.2485 26.8018 42.532 27.8555 42.5858C29.5106 42.6703 29.9095 41.9522 29.6128 40.4412L25.6252 21.2091C25.4761 20.3759 24.9115 19.0445 23.9134 19.1086Z" fill="black"/>
</svg>
