<svg width="48" height="48" viewBox="0 0 48 48" fill="none" xmlns="http://www.w3.org/2000/svg">
<path d="M13.1003 44.9817C12.3161 44.9803 11.5355 44.4448 11.2891 43.6903C11.1617 43.3003 11.1755 43.0006 11.175 42.5933L11.269 38.915L11.7171 35.0388L12.2448 31.9646L13.2724 27.7739C14.0619 25.0167 15.0438 22.3099 16.4268 19.7941L17.1754 18.3993C17.7026 17.3243 18.027 15.7778 17.452 14.6795C16.6975 13.2385 16.4843 12.0315 16.6227 10.4021C16.6927 9.57849 17.0207 8.65941 17.589 8.04024C17.79 7.82124 17.7605 7.87599 17.7478 7.58429L17.2538 1.89564C17.244 1.71764 17.2205 1.5096 17.2542 1.33324C17.3684 0.734227 18.2458 0.658463 18.5416 1.18083L20.8994 4.9268C21.3373 5.56833 21.7821 6.20565 22.2723 6.80921L24.0064 8.74693C24.8879 7.81055 25.6896 6.78483 26.4486 5.74763L28.6971 2.35208C29.0186 1.8316 29.3544 0.978469 29.9792 0.800757C30.0564 0.795291 30.1312 0.787828 30.2066 0.809293L30.2343 0.817655C30.9418 1.01872 30.7756 1.75693 30.7276 2.29983L30.6107 3.55055C30.4792 4.8503 30.2848 6.15427 30.2556 7.46086C30.2442 7.9689 30.2564 7.79583 30.5278 8.20154C31.5626 9.74907 31.6603 11.9699 31.0271 13.699C30.5991 14.8676 29.9974 15.3177 30.3152 16.7518C30.4592 17.4015 30.4666 17.6876 30.7617 18.3262L31.8164 20.4347L33.3878 24.0793L34.3269 26.8303L35.2649 30.1971L36.2173 34.64C36.3971 35.5425 36.4932 36.4748 36.5994 37.3882C36.6486 37.8114 36.6934 38.2426 36.7183 38.6677L36.7585 39.5128C36.7684 39.7165 36.8111 39.9154 36.8207 40.1189L36.8489 42.2747C36.8513 42.6079 36.8872 42.9875 36.8388 43.3156C36.7177 44.1349 36.0106 44.7656 35.2288 44.938C34.6445 45.0668 34.27 44.7113 33.7245 44.6031C32.3742 44.3351 31.6575 44.8973 30.7382 45.6612C29.7263 46.5021 27.4062 46.901 26.0286 46.9666L25.0408 46.9746C23.2214 46.9732 22.6458 46.7865 21.0241 46.2573C20.331 46.0312 19.6295 45.8485 18.9492 45.5809L17.7771 45.0681C16.7691 44.5964 15.7385 44.3747 14.609 44.579C14.0991 44.6712 13.6144 44.9608 13.1003 44.9817ZM29.1262 4.26783L28.064 5.90265C27.5435 6.6466 24.8764 10.2467 24.139 10.4C23.9909 10.4308 23.8374 10.4132 23.707 10.3372L23.6784 10.321C23.4396 10.1782 23.2063 9.88843 23.007 9.68794C21.4132 8.08435 20.0404 6.22421 18.857 4.3012L18.9401 5.50979L19.0692 6.84366C19.1533 7.29291 18.9443 8.11126 19.2913 8.26838C19.4906 8.35866 19.7035 8.58516 19.8792 8.72358L22.3068 10.7404C22.7099 11.071 23.1328 11.5361 23.6718 11.6276L23.7054 11.6338C24.7203 11.8038 25.3055 11.1481 25.9919 10.544L27.5301 9.20968C27.9449 8.84879 28.5301 8.42532 28.892 8.06715L29.1262 4.26783ZM18.361 9.29274C17.9373 9.99052 17.83 11.6023 18.0188 12.4309L18.0389 12.5104C18.139 12.9073 18.2413 13.2788 18.4265 13.6509C18.5716 13.9422 18.767 14.2209 18.8704 14.531L18.9727 14.8838C19.2153 15.6835 19.0221 16.6521 18.9719 17.466L21.1825 17.4639C21.606 17.4643 21.5806 17.4478 21.925 17.1915C23.246 16.2085 24.804 16.2262 26.1294 17.1912C26.6744 17.5879 26.5287 17.4568 27.2361 17.4579L29.0152 17.4584C28.8903 16.5174 28.7851 15.4053 29.1466 14.5016C29.306 14.1156 29.5304 13.7632 29.6885 13.3781C30.178 12.1858 30.2338 10.4268 29.6033 9.26485L26.9899 11.494C26.4683 11.9391 25.9656 12.4746 25.3346 12.7663C24.4201 13.1888 23.3075 13.1296 22.4434 12.6151C21.6277 12.1294 18.6118 9.28318 18.361 9.29274ZM23.8752 17.8184C22.9681 17.9923 22.8132 18.3757 22.0709 18.6866C21.4131 18.9622 19.5595 18.7736 18.7351 18.849C18.4746 18.8729 18.5171 18.8607 18.3829 19.0846L16.4363 22.8546C14.3925 27.7522 12.9442 33.8048 12.615 39.1504C12.6036 39.3354 12.5492 39.5019 12.5403 39.6904L12.5202 42.6261C12.52 43.7965 12.8938 43.5664 13.7463 43.3527C15.1392 43.0035 16.7491 43.0659 18.0626 43.6533C18.9641 44.0566 19.8028 44.4804 20.7646 44.7335C21.037 44.8052 21.3223 44.8523 21.5891 44.9412C21.8631 45.0325 22.0686 45.2271 22.3593 45.2961L24.2468 45.5792C25.8334 45.6124 28.2607 45.5527 29.6626 44.7152C29.8934 44.5772 30.0734 44.3997 30.2785 44.2302C31.4858 43.2327 33.2161 42.862 34.7009 43.4412C35.5148 43.7587 35.4931 43.2068 35.4949 42.5594L35.4396 39.5772L35.244 37.3622C34.6858 32.3871 33.0578 26.1197 30.8434 21.5629L29.8453 19.5522C29.752 19.3575 29.6319 18.977 29.5182 18.819L27.669 18.8164C26.9147 18.8149 26.1671 18.8993 25.5199 18.4539C24.9681 18.0743 24.5764 17.7851 23.8752 17.8184Z" fill="black"/>
<path d="M14.9492 37.6419C14.6528 37.6564 14.4291 37.5467 14.2657 37.2884L14.2447 37.2544C14.0617 36.9625 14.207 36.3001 14.2397 35.975L14.6879 32.684L15.8782 27.8759C16.0014 27.4741 16.0822 27.1492 16.5424 27.0534C16.858 27.0251 17.13 27.1657 17.2648 27.4585L17.2786 27.4895C17.41 27.7744 17.2287 28.1361 17.1483 28.4096L16.7825 29.6723C16.3266 31.2776 15.9635 32.9239 15.7542 34.5802L15.5728 36.1294C15.544 36.4234 15.5772 36.7827 15.4964 37.0647L15.4887 37.0903C15.4078 37.3813 15.24 37.5436 14.9492 37.6419Z" fill="black"/>
</svg>
