<svg width="48" height="48" viewBox="0 0 48 48" fill="none" xmlns="http://www.w3.org/2000/svg">
<path d="M35.4036 44.1548C35.0909 44.3784 34.8475 44.6897 34.5527 44.9366C32.6888 46.4972 30.8405 46.4833 28.6164 46.484L21.0447 46.4877C20.2775 46.4878 19.4932 46.5186 18.7283 46.4688L18.1877 46.4151C16.2587 46.2703 14.7187 46.0855 13.2372 44.752C13.0582 44.5908 12.8939 44.408 12.7047 44.2591C11.2527 43.1178 9.30411 43.207 7.78114 42.2082C6.59 41.427 5.77569 39.9407 6.30969 38.5317C6.55616 37.8813 6.9725 37.3203 7.39311 36.7744L10.6255 32.4049C12.8477 29.2472 14.7486 25.8513 16.5081 22.4192L18.3924 18.7474C19.7687 15.9764 20.1899 12.8287 18.3724 10.1532C17.4305 8.76676 16.8028 7.97827 16.8014 6.26195C16.8006 5.21977 16.7995 4.25263 16.5338 3.23627C16.3938 2.70051 15.9408 1.61194 16.9131 1.50956L19.4878 1.51876C19.8262 1.52074 20.1156 1.61661 20.2391 1.97724L20.2505 2.01605C20.3352 2.24547 20.3059 2.486 20.3326 2.72724C20.3726 3.08724 20.604 4.08379 20.7341 4.43756L20.8895 4.99098C20.9303 5.16995 20.9687 5.15021 21.1245 5.25301L21.644 5.60504C22.3491 6.10529 23.4165 7.12974 23.7972 7.93876L23.9859 8.28034C24.7768 6.92706 25.674 5.93321 27.0583 5.13066L27.0823 5.11693C27.29 4.65291 27.5847 3.28067 27.6541 2.80131C27.7117 2.40334 27.6197 1.82563 28.0472 1.60266L28.0771 1.58767C28.3143 1.46417 28.5888 1.5154 28.8473 1.51549L30.8498 1.51854C31.6458 1.52205 31.8562 1.85705 31.6512 2.5575L31.4895 3.139C31.3327 3.72382 31.2073 4.40627 31.1926 5.01606L31.1927 6.30479C31.193 6.53518 31.2209 6.80729 31.1527 7.02849L31.0294 7.50685C30.772 8.7991 29.7484 9.86846 29.1868 11.0454C28.1257 13.2697 28.3272 14.9319 28.9467 17.1567L29.062 17.4848C29.1997 17.9257 29.4049 18.3361 29.5933 18.7557L30.2297 20.1332C32.005 23.849 34.0395 27.4207 36.3163 30.8516L37.4154 32.5016L40.3835 36.5578C40.8914 37.2284 41.3047 37.7769 41.6252 38.5786C42.4177 40.5613 40.615 42.2156 38.8764 42.8119C37.58 43.2566 36.6076 43.3423 35.4036 44.1548ZM17.7233 2.83727L17.8494 3.35063C17.9478 3.7096 17.9438 4.42655 18.0264 4.6359C18.6651 4.60294 18.9377 4.65251 19.5275 4.72637L19.0674 2.83562L17.7233 2.83727ZM28.9728 2.84067L28.5334 4.69332C28.9724 4.6208 29.3729 4.61489 29.8182 4.61711L29.9882 4.61612C30.0969 4.02208 30.0879 3.5435 30.2701 2.8949C30.2804 2.85823 30.2773 2.87413 30.2809 2.8379L28.9728 2.84067ZM18.1464 5.9184L18.0733 5.93452C18.0021 6.08865 18.0661 6.8724 18.1325 7.06243L18.2369 7.43012C18.263 7.50423 18.2881 7.57271 18.3207 7.64448L18.3801 7.7971C18.8112 9.0009 19.9794 9.6579 21.1946 9.83959L23.1444 9.97913L23.2237 9.97309C22.7725 7.70031 20.503 5.76052 18.1464 5.9184ZM29.2058 5.9162C27.1535 6.13323 25.1854 7.87093 24.7263 9.87948C24.7188 9.91206 24.71 9.92996 24.6893 9.95593L25.4588 9.95396C27.8462 9.89926 29.6496 9.13941 29.9346 6.48896C30.0001 5.88001 29.9751 5.81143 29.2058 5.9162ZM27.8639 10.9106C25.9301 11.3598 22.0829 11.5391 20.2185 10.9419L20.7274 12.7698L20.7351 12.7992C20.7908 13.0171 20.801 13.2501 20.8165 13.4738L26.4311 13.4778C26.6919 13.4781 26.9603 13.4671 27.2197 13.496C27.2847 12.7418 27.5196 11.5502 27.9028 10.9346L27.8639 10.9106ZM22.9239 14.7815L20.8233 14.7856C20.7546 15.1825 20.7418 15.5936 20.6784 15.9939C20.4757 17.2725 19.7823 18.8101 19.1964 19.9457L17.3922 23.4516L14.7686 28.2665L12.2262 32.2997L8.3652 37.6327C9.44872 38.459 9.96031 38.6038 11.2339 38.9509C12.2648 39.2319 13.1692 39.6639 14.0088 40.3298C14.5418 40.7525 15.0283 41.1953 15.6444 41.5048C17.4178 42.3957 20.4178 42.5156 22.389 42.4293C23.3247 42.3884 24.0597 42.2785 25.0368 42.2828L26.474 42.418C28.5792 42.5362 31.0032 42.451 32.8297 41.2669C33.2347 41.0044 33.5822 40.6851 33.9571 40.3847C34.7839 39.7222 35.7284 39.24 36.7505 38.9604C38.1451 38.579 38.342 38.4231 39.59 37.602L36.5307 33.4637L32.2441 26.6982L30.2342 23.0531L29.1517 20.8129C28.2409 18.888 27.2813 16.9598 27.1983 14.7875L22.9239 14.7815ZM40.2268 38.6644C39.4896 39.2654 38.7284 39.7359 37.8131 40.0207C36.7581 40.3489 35.7265 40.6175 34.8366 41.3069C34.395 41.6491 34.0033 42.0405 33.5372 42.3541C32.2206 43.2401 30.4621 43.6263 28.9076 43.7218L27.7136 43.7394C27.3029 43.7397 26.8692 43.7639 26.4611 43.7231C25.5803 43.635 24.6941 43.5018 23.8069 43.5927C23.4278 43.6315 23.0548 43.707 22.6726 43.7242L21.2093 43.7366C20.5684 43.7354 19.9235 43.7338 19.2849 43.6745L18.035 43.4992C16.7277 43.3069 15.3155 42.9719 14.2293 42.1743C12.9916 41.2656 12.6935 40.6952 10.9804 40.2226C9.48148 39.8092 8.99394 39.6913 7.64417 38.696C7.34141 39.2048 7.38753 39.6443 7.61262 40.1608C8.18895 41.1192 9.01653 41.4952 10.0632 41.7554C11.2226 42.0436 12.3134 42.3713 13.2896 43.0908C13.6699 43.3712 13.9888 43.7305 14.3539 44.0301C15.2352 44.7533 16.3584 44.9116 17.4567 45.0289L19.5819 45.1965L24.1823 45.1995C24.4566 45.1952 24.7271 45.149 25.0009 45.15L28.5277 45.1629C30.1697 45.162 31.8085 45.1964 33.2654 44.3075C33.7099 44.0363 34.0496 43.6348 34.4404 43.297C35.7654 42.1516 37.1531 42.0632 38.6483 41.5285C39.4134 41.2549 40.3153 40.6431 40.5099 39.8039C40.6143 39.3535 40.5102 39.0131 40.2268 38.6644Z" fill="black"/>
</svg>
