<svg width="48" height="48" viewBox="0 0 48 48" fill="none" xmlns="http://www.w3.org/2000/svg">
<path d="M34.2023 43.822C33.8319 43.9853 33.611 44.3481 33.3168 44.6122C31.4516 46.2861 28.7672 46.7603 26.3974 45.9757L25.53 45.6616C23.9556 45.1705 23.0975 45.4952 21.6093 46.0303C19.2441 46.8806 16.9766 46.509 15.0452 44.9743C14.7607 44.7482 14.2205 44.0498 13.9564 43.9304C12.9816 43.4892 12.0305 43.3569 10.989 43.6295C10.7695 43.6869 10.5668 43.8114 10.3525 43.8652C10.0044 43.9527 9.59063 43.5865 9.52393 43.2624C9.46599 42.981 9.68077 42.5237 9.77274 42.254L11.5193 37.3782C12.1253 35.4809 12.59 33.5398 13.004 31.5923C13.7749 27.9667 14.6618 23.1041 16.6771 19.9133L17.4213 18.8086C17.5594 18.6184 17.7224 18.4458 17.8532 18.2502C18.277 17.6163 18.5874 16.7851 18.59 16.0139C18.5952 14.4627 18.1571 13.7009 17.4796 12.4267C16.9033 11.3427 16.5461 10.138 16.3521 8.92969C16.2589 8.34952 16.2403 7.7596 16.2397 7.17394L16.2395 3.5977C16.2403 2.79871 16.0962 1.81716 17.0313 1.52585L17.9818 1.52043C19.0876 1.52094 19.8167 1.90069 20.2507 3.01172C20.3754 3.33102 20.3623 3.69937 20.4384 4.03125C20.824 5.71374 21.4431 7.39861 23.1808 8.11003C23.7819 8.35608 24.4489 8.2816 25.032 8.02983C26.5056 7.3936 27.2189 5.62768 27.531 4.16478L27.6445 3.58416C27.8867 1.9157 28.7213 1.51885 30.2274 1.51953C31.1878 1.51997 31.6492 1.80054 31.7363 2.90946C31.7701 3.34107 31.7515 3.78439 31.7518 4.21745L31.7499 7.66636C31.7458 9.16064 31.3568 10.7304 30.6954 12.0662L30.113 13.134C29.6623 13.989 29.1601 15.8071 29.4724 16.7786L29.4849 16.8164C29.6221 17.2376 30.1133 18.1273 30.3437 18.4936L31.1683 19.6897C31.6381 20.4198 32.3774 21.8917 32.637 22.7328L33.5457 25.4276C33.6189 25.7855 33.8263 26.5318 33.9466 26.8597C34.1469 27.4054 34.2488 28.1296 34.4063 28.7109L34.9219 30.9609C35.013 31.3282 35.0845 31.7199 35.1509 32.094L35.2964 32.7422C35.3211 32.8417 35.3207 32.9473 35.3445 33.0469L35.4891 33.6799C35.575 34.1174 35.6827 34.549 35.7725 34.9863L36.0009 36.0586C36.1021 36.4486 36.1749 36.8568 36.2955 37.2405L37.2356 40.1781C37.3139 40.3642 37.3601 40.5676 37.4292 40.7578L38.156 42.6562C38.6609 43.7532 38.1692 44.2048 37.1216 43.7688C36.1383 43.3597 35.1757 43.4196 34.2023 43.822ZM17.5138 2.88572L17.5177 5.84269C17.519 6.80564 17.4598 8.5125 17.7576 9.41771L18.1323 10.6636C18.8059 12.2743 19.8189 13.6263 19.8755 15.457C19.8856 15.7832 19.8598 16.1272 19.8991 16.4498L28.1003 16.4495C28.0971 14.9553 28.1928 14.0131 28.8997 12.6311L29.5077 11.4885C29.812 10.8574 30.051 10.1923 30.2126 9.51028L30.4405 8.13113C30.5052 7.81261 30.4712 7.43822 30.4716 7.11174V3.71313C30.4713 3.45798 30.5048 3.13615 30.4473 2.89063L29.7111 2.88523C29.3279 2.88459 29.141 2.96836 29.0128 3.375L29.0014 3.4086C28.9354 3.61029 28.9477 3.84154 28.9152 4.05142C28.6114 6.01383 27.6036 8.20041 25.7828 9.14527C24.5329 9.79383 23.2548 9.75657 22.0129 9.04561C20.6393 8.25914 19.7625 6.67857 19.3677 5.19807L19.1493 4.28907C19.02 3.63715 19.1208 2.89069 18.2301 2.88605L17.5138 2.88572ZM19.6665 17.7893C18.3705 20.0087 17.8847 22.4028 17.4759 24.9195L16.9657 28.4848L15.7459 38.1665L15.5592 40.2718C15.4749 41.2676 15.5126 42.3467 15.4225 43.3038C15.3989 43.5549 15.5918 43.6167 15.7639 43.7727C17.1553 45.0339 18.8458 45.2938 20.6395 44.896C21.0846 44.7973 21.4979 44.6112 21.9216 44.4488C23.0626 44.0115 24.4096 43.9445 25.5857 44.288C26.2225 44.474 26.815 44.7048 27.4803 44.8935C29.3877 45.1331 30.6829 44.9734 32.2303 43.7628C32.3368 43.6795 32.4822 43.6031 32.5515 43.4885L32.5333 41.8522L31.6506 33.2061L30.781 26.3672C30.4295 23.9854 30.0592 21.4786 29.1019 19.2474L28.4592 17.8964C28.4399 17.8537 28.4198 17.8268 28.3905 17.7909L19.6665 17.7893ZM16.2691 23.8155C15.1725 27.2325 14.5558 30.7634 13.75 34.2539L12.9669 37.1696L11.5142 41.3694C11.4253 41.6125 11.3421 41.8875 11.2296 42.1181L11.6191 42.1094C12.4794 42.1134 13.3518 42.1714 14.156 42.5102C14.1519 41.4053 14.2455 40.3217 14.3418 39.2227L14.5686 36.8718L15.4609 30.2355L16.0515 25.3119C16.1224 24.8206 16.2565 24.3118 16.2691 23.8155ZM31.7804 24.1289L32.2979 27.7148C32.3464 28.064 32.3845 28.4145 32.4316 28.7637L32.9688 33.1628L33.3563 37.4341L33.797 41.7939C33.8094 42.0165 33.8032 42.2399 33.8234 42.462C34.7477 42.1461 35.2924 42.1133 36.2398 42.1168L36.5503 42.155C35.9641 40.4916 35.3663 38.8213 34.922 37.1133L33.5495 30.6707L31.8829 24.3808C31.8555 24.2985 31.8402 24.1911 31.7804 24.1289Z" fill="black"/>
</svg>
