<svg width="48" height="48" viewBox="0 0 48 48" fill="none" xmlns="http://www.w3.org/2000/svg">
<path d="M31.6512 43.5989C30.8434 43.752 30.764 43.8286 30.0705 44.2308C28.1755 45.3298 26.1461 45.1432 24.6012 43.4563C24.3737 43.2078 24.2022 42.9218 23.9868 42.665C22.7667 44.6765 20.4262 45.5275 18.3106 44.4264C17.8974 44.2114 17.502 43.9304 17.0559 43.7854L16.4856 43.639C15.5629 43.3877 14.0796 43.8793 12.9025 43.7592C12.0838 43.6757 10.2303 43.0297 10.0061 42.0978C9.97012 41.9483 10.0057 41.7978 10.0269 41.6486L10.5741 38.3674C11.6192 32.5327 13.3171 25.7262 16.8038 20.8124C17.0965 20.3999 17.456 19.9911 17.6964 19.5471C18.2399 18.5433 18.265 17.2588 17.9685 16.1817C17.8782 15.8534 17.7167 15.5353 17.6466 15.2039C17.5916 14.9435 17.5722 14.6691 17.5269 14.4056C17.387 13.5916 17.0606 12.9383 16.736 12.1935C16.1256 10.7931 16.3404 10.3357 16.4939 9.0263C16.6338 7.83272 16.0991 6.38161 15.605 5.27991L15.291 4.60823C15.1395 4.29513 15.0015 4.02532 15.2154 3.69013C15.6112 3.06971 16.0161 3.54571 16.2944 3.57032C16.7276 3.60863 17.2882 3.61621 17.7082 3.52411L18.5275 3.37177C18.8565 3.30783 19.1879 3.21931 19.5227 3.19797C19.8482 3.16389 20.1898 3.31969 20.3284 3.63109L20.343 3.66816C20.4089 3.82162 20.4066 3.97537 20.4373 4.13691L20.6182 4.95366C21.1098 6.85748 22.4377 8.70052 24.02 9.83283C25.6193 8.57241 26.7071 7.06627 27.3163 5.12386L27.5343 4.30097C27.6203 3.91367 27.5753 3.43744 28.0436 3.28176L28.0724 3.27251C28.3892 3.16438 28.6408 3.21165 28.9547 3.27105L29.6252 3.36765C30.4645 3.46705 31.3022 3.48399 32.14 3.37911C32.4866 3.33571 32.9171 3.25785 33.1022 3.65933L33.1703 3.80465C33.5934 4.9005 30.7746 7.00959 31.5206 9.5228C31.8641 10.6804 31.3576 11.9899 30.8837 13.0275C30.4918 13.8857 30.4095 14.3201 30.2118 15.178C30.0366 15.9383 30.0246 16.1162 29.965 16.9052C29.8136 18.9103 30.1225 19.1936 31.1045 20.6758C32.5308 22.8289 33.5808 25.1275 34.4211 27.5715L35.7023 31.6844C35.7524 31.9371 35.8304 32.249 35.9209 32.4871L36.8322 35.5606C36.8635 35.7398 36.9247 35.9312 36.9707 36.1084L37.635 39.6448C37.6594 39.7951 37.6605 39.9533 37.6888 40.1017L37.782 40.7228C37.8438 41.1175 37.9483 41.4961 37.8773 41.8947L37.8669 41.9571C37.5711 43.4015 35.1933 43.9611 33.9921 43.7165C33.2808 43.5716 32.4187 43.4981 31.6896 43.5936L31.6512 43.5989ZM28.7775 4.59295C28.2631 7.24823 26.8142 9.55678 24.5627 11.0869C23.9346 11.5137 23.7981 11.3393 23.2619 10.9311C21.4099 9.52102 20.0102 7.70451 19.3889 5.43042C19.3177 5.16989 19.2355 4.88142 19.2124 4.61248L17.8906 4.85325C17.5346 4.90341 17.1772 4.90219 16.8185 4.90331C16.8442 4.95764 16.8696 5.01009 16.8881 5.06733L17.3609 6.21384C17.4936 6.51816 17.5809 6.86456 17.6638 7.18584L17.7259 7.50511C17.8187 8.09292 17.8619 8.72737 17.7985 9.32391C17.7165 10.0954 17.5977 10.1563 17.7151 10.9642L18.5172 13.008L18.9742 14.9201C19.0079 15.038 19.0282 15.1678 19.0402 15.2897L20.9999 15.5943C21.9759 15.7176 22.9435 15.7343 23.9284 15.7321L25.3913 15.7222C26.0234 15.6964 28.2918 15.5608 28.8366 15.2535L28.8703 15.23C28.9663 14.4736 29.1298 13.7434 29.4288 13.039C29.8115 12.1375 30.4279 11.1409 30.2809 10.1181C30.2436 9.85856 30.1638 9.60858 30.1174 9.35175C29.7676 7.41352 30.6869 6.34687 31.4549 4.8157L28.7775 4.59295ZM28.6569 16.6994L27.1742 16.9425C25.5227 17.1436 23.5642 17.1554 21.9213 17.033L19.4142 16.7632C19.4472 17.2994 19.5522 17.8398 19.4202 18.3744L19.3159 18.9494L19.3154 19.0328C19.6521 19.0854 20.006 19.0341 20.3461 19.0621L22.0794 19.2006L26.4098 19.1538C26.7237 19.1308 27.0401 19.0767 27.3507 19.06C27.8168 19.035 28.2915 19.0811 28.7556 19.0381C28.6314 18.2982 28.6349 17.5516 28.6854 16.805C28.6896 16.7437 28.7098 16.7403 28.6569 16.6994ZM18.7326 20.3538L17.8713 21.6093C16.513 23.5632 15.4919 25.6759 14.6504 27.9023L13.4265 31.5295L12.1027 37.144L11.3613 41.6983C11.676 42.0434 12.1673 42.2113 12.6039 42.3375C13.4883 42.6142 14.0174 42.3547 14.8596 42.2927L16.5147 42.2981L16.605 39.6056L17.0093 34.8022L17.9904 28.128L19.7039 20.3801L19.1114 20.3631C18.9881 20.3576 18.8541 20.3372 18.7326 20.3538ZM29.144 20.3536L28.3291 20.397L28.7239 22.1617C28.8282 22.5178 28.8864 22.8891 28.9755 23.2478L29.4854 25.4533C29.5075 25.5536 29.5101 25.6587 29.5332 25.758L29.9181 27.6779L30.7928 33.2533L31.3041 38.9136L31.3221 39.9142C31.3288 40.0989 31.3694 40.2809 31.374 40.465L31.3754 41.6578C31.3753 41.8577 31.3619 42.0677 31.3868 42.2656C32.4619 42.1379 32.8579 42.2166 33.8556 42.3741C34.4572 42.4691 35.127 42.4234 35.7141 42.2787C36.0904 42.1852 36.4238 41.9325 36.6293 41.6012L36.641 41.5815C36.5021 41.0457 36.4513 40.4897 36.3656 39.9434L35.8877 37.3364L35.0571 34.2658L33.679 29.5966L32.8117 27.112C32.3383 25.8744 31.835 24.6471 31.2092 23.4775L29.591 20.7788C29.4067 20.497 29.4083 20.3275 29.144 20.3536ZM26.848 20.4949L21.0086 20.5295L17.9332 39.2228C17.894 39.4331 17.9005 39.6526 17.8987 39.8657L17.7902 42.6411L19.1877 43.3559C20.5156 43.9483 22.13 43.1667 22.8548 41.999C23.2134 41.4684 23.2962 40.7513 23.4946 40.4625C23.8719 39.913 24.5434 40.2411 24.6372 40.8049C24.735 41.3932 25.1296 42.0665 25.5236 42.4926C26.5892 43.6451 28.0591 43.8654 29.426 43.0546C29.575 42.9662 29.9897 42.7664 30.0878 42.663L30.0326 40.563C30.0153 39.604 29.9732 38.7031 29.9068 37.7475L29.2737 31.7932L28.8618 29.0786L27.1784 21.327C27.1199 21.0521 27.042 20.7759 27.0103 20.4963C26.9549 20.4868 26.9034 20.4911 26.848 20.4949Z" fill="black"/>
</svg>
