<svg width="48" height="48" viewBox="0 0 48 48" fill="none" xmlns="http://www.w3.org/2000/svg">
<path d="M32.713 46.0378C31.937 46.0955 31.1902 45.9875 30.4955 45.6276C29.8951 45.3165 29.231 44.8775 28.5255 45.2196L27.8017 45.6042C24.9842 46.9786 23.9019 44.6701 22.3661 45.221C21.9704 45.3629 21.6356 45.6155 21.246 45.7698C20.1912 46.1876 18.8046 46.1424 17.7694 45.6785C17.394 45.5102 17.0683 45.2544 16.6908 45.093C15.5859 44.6204 15.0018 45.2848 14.0392 45.6567C12.958 46.0745 11.5459 46.0535 10.4874 45.5849L9.80875 45.2567C8.91925 44.831 8.85737 44.8036 8.99608 43.8629C9.14204 42.8728 9.40525 41.9138 9.62401 40.9399L11.9479 31.2608L13.4123 26.7593L15.1474 22.5041L17.7979 16.631C18.0014 16.1064 17.9935 16.246 17.862 15.7075L16.4303 10.5005C16.359 10.2639 16.2499 9.9844 16.2386 9.73798L16.2286 2.56228C16.227 2.09928 16.281 1.86833 16.7691 1.68967C17.7198 1.6343 19.1245 2.65094 19.6607 3.34804C19.8761 3.62802 20.0402 3.93593 20.2306 4.23152C21.7359 6.56736 24.9467 6.78167 26.5586 4.46529C27.5112 3.09634 28.0406 2.17711 29.8998 1.75898C30.2322 1.68423 30.5319 1.70721 30.7305 2.03519L30.747 2.06295C30.8932 2.29684 30.8164 2.63412 30.8162 2.897L30.8057 9.58292C30.8008 9.73081 30.8083 9.91554 30.7404 10.0482L30.7142 10.1009C30.6419 10.2636 30.6085 10.4582 30.5536 10.6294L29.1846 15.9868C29.1291 16.2605 29.2177 16.2872 29.3398 16.5356L34.258 28.017L35.6073 31.7114C35.7406 32.1984 35.9419 32.6939 36.1089 33.1732L36.3576 33.9731C36.4285 34.262 36.5522 34.542 36.6346 34.8286L37.4841 37.6833C37.5064 37.7977 37.553 37.901 37.5767 38.015L38.1397 40.0526C38.2255 40.4915 38.3781 40.9307 38.4847 41.3676L38.6175 41.9589C38.7983 42.6552 39.0422 43.3904 39.0968 44.1066C39.1614 44.9546 38.6175 45.1504 37.8942 45.1576L35.7447 45.1624C35.1563 45.1642 35.2366 45.1529 34.7229 45.4274C34.0635 45.7798 33.4685 46.0002 32.713 46.0378ZM17.4237 3.08777L17.4132 7.21334C17.4132 8.14714 17.2754 9.17037 17.5308 10.0786L18.4793 13.4235C18.487 13.4585 18.4975 13.4875 18.5088 13.521L18.6615 14.096L28.3827 14.0869C28.4442 13.9502 28.4588 13.8114 28.4982 13.6687L29.5335 9.93279C29.6102 9.34151 29.5716 8.71451 29.5728 8.11878L29.5708 3.62456C29.5703 3.47759 29.5944 3.27318 29.5601 3.13423L29.5287 3.15949C29.4485 3.22062 29.3413 3.2285 29.2532 3.27669C28.2067 3.84959 28.0122 4.52372 27.3483 5.37908C25.133 8.23343 21.0914 7.77078 19.2102 4.85323C18.5141 3.77362 18.5855 3.79124 17.4237 3.08777ZM18.9782 15.2763C18.9982 15.4847 19.0661 15.7954 19.1436 16.0009L28.0197 15.9998L28.0303 15.9124L28.1218 15.2851L18.9782 15.2763ZM18.8267 17.2351C18.6499 17.5885 18.5244 17.9925 18.3751 18.3576L16.4267 22.5305L14.5587 27.0674L12.8889 32.292L10.6951 41.5795C10.9976 41.8807 11.5402 42.0603 11.9459 42.1665C12.8612 42.4059 13.4307 41.8895 14.2033 41.5566C15.3831 41.0481 16.8272 41.1124 17.9647 41.6966C18.922 42.1883 19.3297 42.5673 20.5666 42.1614C20.8815 42.0581 21.1521 41.8414 21.4441 41.6897C22.3263 41.2315 23.4922 41.2427 24.3805 41.6788C25.358 42.1588 25.9421 42.6531 27.1397 41.9742C27.3706 41.8434 27.5891 41.6839 27.838 41.5875C28.7503 41.2204 29.7758 41.3024 30.6445 41.741C31.0098 41.9255 31.3462 42.2107 31.758 42.2855C32.5822 42.4352 32.9596 42.2363 33.6446 41.8423C34.8797 41.1318 36.0025 41.392 37.299 41.6203C37.2168 41.1551 37.0826 40.7002 36.9669 40.2426L35.9273 36.5494L32.9717 27.9688L28.4921 17.5578C28.4459 17.449 28.4147 17.3323 28.3491 17.2336L18.8267 17.2351ZM15.6874 42.4322C14.5433 42.5151 14.1284 43.1316 13.1774 43.3503C12.2327 43.5674 11.2285 43.2927 10.4095 42.8158L10.1891 43.8132C10.1732 43.8926 10.1248 44.0029 10.1336 44.0806C10.4524 44.2425 10.7625 44.395 11.0956 44.5266L11.5971 44.6987C12.0502 44.8769 13.3175 44.6758 13.7297 44.4869L14.6369 44.0177C16.1296 43.3153 16.792 43.8706 18.027 44.471C18.6956 44.796 19.4791 44.9305 20.2197 44.8177C20.998 44.6993 21.6218 44.118 22.3798 43.9846C24.2011 43.6641 24.6977 44.9458 26.335 44.814C27.7923 44.6967 28.4207 43.1364 30.6225 44.3271C30.9739 44.5171 31.3116 44.7488 31.7126 44.8179L31.7803 44.8294C33.1781 44.9824 33.6032 44.6345 34.8213 44.0457C35.0661 43.9273 35.4586 43.9758 35.7308 43.9749L37.1481 43.9727C37.3914 43.9724 37.6518 43.9907 37.8925 43.9647L37.7393 43.2192C37.7143 43.1068 37.7001 42.9735 37.6508 42.8695C36.071 42.6666 35.2897 42.2197 33.8764 43.0971C33.2111 43.5102 32.4333 43.5883 31.6718 43.4907C31.0468 43.4105 30.6191 43.0454 30.0792 42.7764C28.2092 41.8449 27.2836 44.2585 24.7724 43.2154C23.8641 42.8381 23.2568 42.2383 22.1225 42.7031C21.8509 42.8144 21.6117 42.9897 21.3517 43.1246C20.3822 43.6273 19.182 43.6303 18.1994 43.1736C17.3807 42.7932 16.6579 42.2546 15.6874 42.4322Z" fill="black"/>
</svg>
