<svg width="48" height="48" viewBox="0 0 48 48" fill="none" xmlns="http://www.w3.org/2000/svg">
<path d="M25.3175 46.3868C24.271 46.5185 23.2755 46.5743 22.2521 46.209C21.2364 45.8464 20.5645 45.3791 19.4278 45.6857C18.9963 45.802 18.6148 46.0163 18.1971 46.165C17.1544 46.536 16.4246 46.4441 15.369 46.4808C15.0774 46.4909 14.831 46.6099 14.5479 46.4658C13.1349 45.7465 13.9605 43.7546 12.0893 42.8181C11.1077 42.3269 10.6614 42.5631 9.87071 43.0936C8.34244 44.1191 6.47748 43.3849 5.97788 41.6482C5.78776 40.9874 5.99509 40.3876 6.24474 39.7796L6.71921 38.6716C7.6868 36.3955 8.89412 34.2055 10.2327 32.1286L12.8011 28.4697L15.6455 24.8317C16.843 23.1137 18.227 20.6937 18.277 18.5391C18.2942 17.7991 18.0624 16.4706 17.779 15.8316C17.2605 14.6626 16.5176 13.9848 16.16 12.6253L16.0558 12.1641C15.9604 11.6631 15.6787 11.3913 15.4154 10.9648C15.1475 10.5309 14.9039 10.0415 14.7437 9.55705C14.5489 8.96793 14.4115 7.67235 14.5876 7.1638C15.017 5.9233 15.5236 4.92777 16.9666 4.59254C18.0938 4.3307 18.8302 4.71276 20.1257 4.17339C20.9235 3.84122 21.5424 3.3073 21.8872 2.5022C22.0835 2.04387 22.0324 1.74588 22.5724 1.52754C23.2889 1.48363 24.0244 1.51701 24.7429 1.51732L25.319 1.51754C26.029 1.52408 26.0016 2.30925 26.2997 2.80077C26.9582 3.88615 28.1757 4.47216 29.4262 4.50787C29.9274 4.52219 30.4918 4.448 30.9803 4.54994C31.9571 4.75373 32.8327 5.56138 33.1877 6.48046L33.2624 6.69271C33.8623 8.88491 33.1542 10.2451 31.9319 12.0733C32.0813 12.8079 31.1851 13.9153 30.8198 14.5702C29.9024 16.2151 29.513 18.5773 30.2017 20.393L30.4449 21.1406C31.2372 23.8116 33.586 26.2674 35.2043 28.4608C37.1334 31.0756 38.9248 33.8349 40.3491 36.7592C40.6642 37.406 41.0163 38.0723 41.2632 38.7479L41.6973 39.832C41.8238 40.2631 41.9911 40.6704 42.1021 41.1089C42.5271 42.7873 40.378 44.3524 38.7987 43.2919C38.6727 43.2072 38.5676 43.0938 38.45 42.9982C36.9366 41.7687 34.7649 43.0336 34.5779 44.8785C34.5555 45.0989 34.5911 45.3282 34.5561 45.5465C34.4805 46.0173 34.1593 46.4776 33.6464 46.479L33.1464 46.48C31.7533 46.4815 31.0619 46.547 29.7256 45.976C29.1587 45.7337 28.6985 45.5504 28.0665 45.5524C27.1112 45.5554 26.2463 46.1804 25.3175 46.3868ZM23.2919 2.97587C22.4822 4.64829 21.5613 5.3863 19.6837 5.83752C19.5166 5.87765 19.2592 5.89766 19.1148 5.98073L19.4388 7.52938C21.0575 7.4466 22.4435 7.4924 23.761 8.68359L24.0013 8.91974L24.3802 8.58271C25.4826 7.7421 26.8675 7.30776 28.2551 7.49638L28.5801 7.54705L28.8646 5.98977C28.4655 5.86658 28.0532 5.80002 27.6561 5.66905C26.5132 5.29218 25.5105 4.4666 24.9447 3.40163C24.7637 3.06089 24.9104 2.97722 24.4384 2.97683L23.2919 2.97587ZM17.4712 5.98462C16.2249 6.29371 15.8308 7.4526 16.0212 8.6151C16.0854 9.00754 16.2531 9.64058 16.498 9.94251L16.535 9.92718C16.8231 9.40363 17.1453 8.89944 17.6165 8.52046C17.6587 8.48657 18.0471 8.22416 18.0499 8.21301C18.098 8.02068 17.6763 6.3193 17.6185 5.98827C17.5681 5.98316 17.5217 5.98176 17.4712 5.98462ZM30.384 5.96765L30.0079 8.21863C30.7197 8.66394 31.0747 9.19255 31.4412 9.90309L31.4975 9.97265L31.5468 9.89394C31.9125 9.13368 32.2195 8.09952 31.9367 7.27185C31.6937 6.5609 31.1579 5.99877 30.384 5.96765ZM20.3511 8.96305C18.4441 9.08169 17.0275 10.9193 17.7672 12.7734L17.9097 13.1207C18.0861 13.6055 18.481 14.0553 18.7609 14.486C19.238 15.22 19.4527 16.02 19.5939 16.875C19.6378 17.1411 19.6478 17.6062 19.7159 17.8335L28.4287 17.834L28.5301 16.8514C28.727 15.7691 29.0136 14.8009 29.5271 13.8175C30.207 12.5154 31.037 11.8016 29.9786 10.2271C28.9725 8.73023 26.9834 8.61758 25.5635 9.59319C25.0678 9.93374 24.3864 10.8354 23.8826 10.7556C23.3028 10.6637 22.6407 9.01274 20.3511 8.96305ZM27.5181 19.3351L19.6682 19.3554C19.6205 19.5436 19.6026 19.7235 19.5659 19.912L19.3662 20.7422C18.7757 22.9236 17.3732 25.1203 15.9841 26.8909L13.7604 29.6386C11.5305 32.5566 9.45291 35.9381 8.03729 39.3286L7.7273 40.0707C7.58293 40.4024 7.35558 40.7818 7.37949 41.1526C7.41301 41.673 7.98226 42.0975 8.47248 42.0989L8.50557 42.0997C8.7564 42.1006 9.13271 41.7176 9.34805 41.5914C10.8545 40.7091 12.4576 40.9999 13.7059 42.1923C14.4237 42.8781 14.7608 43.7074 15.0361 44.636C15.0649 44.733 15.0633 44.8714 15.1195 44.9528C16.8137 44.9586 16.9003 45.0157 18.4023 44.4279C19.0965 44.1562 19.9793 44.0107 20.7186 44.1358L21.4509 44.2865C22.0357 44.4681 22.6316 44.8588 23.24 44.925C24.1165 45.0204 24.5767 45.0971 25.4638 44.7857C25.8108 44.6639 26.134 44.4793 26.4821 44.354C27.1523 44.1126 28.4042 43.9322 29.1209 44.1575L29.1951 44.1742C29.808 44.312 30.2936 44.6524 30.8738 44.8441C31.5005 45.0513 32.44 45.0293 33.1131 44.9868C33.1872 41.8014 36.955 39.8577 39.3631 41.8014C39.4877 41.902 39.6947 42.1477 39.844 42.1833C40.1479 42.2555 40.496 41.9927 40.6063 41.7278L40.651 41.6008C40.7991 41.1942 39.5702 38.525 39.3046 37.9749C38.1505 35.5853 36.8083 33.2982 35.3017 31.1133L33.3318 28.4121C31.2744 25.824 29.4151 23.5609 28.6655 20.2548C28.6277 20.0881 28.543 19.4094 28.4899 19.3264L27.5181 19.3351Z" fill="black"/>
</svg>
