<svg width="48" height="48" viewBox="0 0 48 48" fill="none" xmlns="http://www.w3.org/2000/svg">
<path d="M29.7499 45.8656C28.6629 46.7499 27.2992 46.9505 25.9592 46.5123C24.7949 46.1316 24.0946 45.8221 22.8796 46.2258C22.3897 46.3886 21.923 46.6164 21.4055 46.6897C20.2311 46.8558 19.0705 46.5869 18.1715 45.8041C17.9019 45.5693 17.7006 45.2797 17.4122 45.0596C16.1039 44.0612 15.137 44.6128 13.869 45.0334C12.6015 45.4538 10.8187 45.2688 9.92755 44.1758C9.74361 43.9502 9.59835 43.6918 9.41741 43.4627C8.76641 42.6385 7.89163 42.1482 6.88306 41.9213C5.85589 41.6901 5.94702 41.1987 6.39814 40.359L11.5662 30.9253L13.7555 26.6246L16.5143 20.4114L18.8477 14.068C19.3553 12.6131 19.7212 11.2774 18.8158 9.81971C18.5233 9.34866 18.1654 8.93841 17.9079 8.44032C17.4162 7.48894 17.1979 6.53593 16.9547 5.50482C16.6846 4.35937 16.3174 3.36659 17.1522 2.35179C17.7164 1.66588 18.7291 1.46825 19.5695 1.39246C20.5439 1.26146 21.626 1.84226 22.0899 2.6994C22.3583 3.1952 22.403 3.74994 22.9731 4.01912C23.5106 4.27294 24.2508 4.28754 24.8011 4.07285L24.8865 4.03996C25.981 3.62374 25.5533 2.14679 27.3533 1.5113C28.5251 1.09762 30.7894 1.64293 31.2064 2.91186L31.254 3.03028C31.447 3.58276 31.3044 4.11207 31.2187 4.66434C30.983 6.18399 30.5652 7.80075 29.6947 9.09333C28.712 10.5527 28.3352 11.6409 28.9348 13.4386L29.5103 15.0933C29.6378 15.5511 29.8356 15.9761 29.9763 16.4293L31.9153 21.4973L34.031 26.191L37.6264 33.1428L41.8623 40.9014C41.9243 41.0398 41.9549 41.1811 41.9194 41.3305L41.9101 41.3668C41.8007 41.8266 41.2969 41.9012 40.9117 41.9744C39.9419 42.1584 39.0799 42.8183 38.4928 43.5889C38.2583 43.8966 38.073 44.1955 37.7842 44.4627C36.8327 45.3429 35.2745 45.3794 34.1031 45.0203C33.769 44.9178 33.4573 44.7566 33.1261 44.6491C31.5333 44.1324 30.752 44.9275 29.7499 45.8656ZM19.7134 2.72322L20.4773 5.09325C20.5073 5.17758 20.5317 5.25943 20.5665 5.3424L20.7253 5.74674C21.0089 6.40941 21.7833 6.96347 22.4442 7.2031C23.1186 7.4476 24.6222 7.35333 25.3301 7.21636C26.6398 6.96291 27.149 6.22969 27.5388 5.08491L27.8668 4.09536L28.1502 3.23396C28.2028 3.08237 28.2892 2.90803 28.303 2.74806C27.5902 2.64192 27.0609 3.10858 26.8798 3.7666C26.6467 4.61378 25.7106 5.2943 24.8681 5.47552C23.5649 5.75574 22.0722 5.37807 21.3206 4.19991C21.1452 3.92498 21.0953 3.58001 20.9104 3.31599L20.8836 3.27697C20.5985 2.86627 20.1877 2.72186 19.7134 2.72322ZM29.6074 3.08161C29.4637 3.3946 29.3734 3.71795 29.2668 4.04401L28.8275 5.39668C27.9608 8.10282 26.3457 8.6843 23.543 8.67675C21.7018 8.67183 19.9611 7.66688 19.3343 5.87068L18.7721 4.08943C18.6663 3.76019 18.5682 3.34999 18.3685 3.0675C17.9573 3.26335 17.8662 3.47661 17.9541 3.89021L18.108 4.72768L18.4661 6.27661C18.6396 7.51744 19.8149 9.17747 20.9619 9.66329L21.5985 9.88566C21.9328 10.015 22.3813 9.95021 22.7326 9.95082L25.4095 9.95218C28.7174 9.94786 29.3769 7.25968 29.9315 4.45271C30.0335 3.93628 30.2617 3.35387 29.6707 3.07671L29.6074 3.08161ZM20.5589 10.9332L20.5653 10.9577C20.7424 11.6574 20.6238 12.0572 20.6211 12.706L27.3641 12.6988L27.352 12.3568C27.3522 11.8794 27.3659 11.4093 27.4457 10.9376L27.4227 10.9474C26.7619 11.2246 26.1267 11.2736 25.4249 11.2747L22.7702 11.2742C22.0972 11.2738 21.4714 11.2884 20.836 11.0329C20.7818 11.0111 20.6006 10.9163 20.5589 10.9332ZM25.4706 14.0146L20.2476 14.015C20.189 14.1279 20.1731 14.2351 20.1331 14.3523L19.8192 15.2867C19.786 15.4046 19.7799 15.5608 19.7204 15.6659L22.6524 15.6645L28.3275 15.6732L27.7402 14.0107L25.4706 14.0146ZM19.1983 16.9729L18.2098 19.6754L15.8169 25.3707L11.4526 33.8986L7.7001 40.7342C8.7148 41.0698 9.71071 41.6643 10.3704 42.5226C10.6162 42.8424 10.8398 43.2578 11.153 43.5138C11.7747 44.0219 12.8649 44.0031 13.5719 43.7382C13.912 43.6108 14.2303 43.4427 14.5782 43.3327C15.8924 42.9173 17.483 43.2551 18.4737 44.2214C19.3544 45.0804 19.9458 45.6309 21.3048 45.3659C21.7693 45.2753 22.1931 45.0195 22.6453 44.8871C23.5326 44.6273 24.5865 44.6092 25.4686 44.9075C26.4303 45.2326 27.0282 45.5993 28.0841 45.2847L28.2379 45.231C28.8901 45.0027 29.2043 44.4789 29.7019 44.0594C30.8331 43.1059 32.4651 42.9208 33.8165 43.4644C34.7564 43.8426 35.3212 44.0564 36.3524 43.7841C37.0804 43.5918 37.3663 42.7951 37.8304 42.2917C38.4996 41.5657 39.3699 41.0081 40.3213 40.7331C40.0434 40.2952 39.8326 39.7974 39.5848 39.3394L34.9422 30.9136L31.2484 23.2715L28.7902 16.9873L19.1983 16.9729Z" fill="black"/>
<path d="M30.7135 41.2028C29.7978 41.2116 29.844 39.882 29.7106 39.1879L27.6914 28.9219L26.2282 20.9077C26.1254 20.3669 26.0787 19.7836 26.7499 19.668C27.0149 19.6904 27.2381 19.7687 27.3582 20.0347L27.3752 20.0741C27.4959 20.3324 27.5117 20.6996 27.5588 20.9824L27.8927 22.8463C27.911 22.9566 27.9163 23.0788 27.9469 23.1857L31.2277 40.2356C31.275 40.3967 31.3151 40.59 31.254 40.7526L31.1867 40.8973C31.0833 41.0829 30.9067 41.1532 30.7135 41.2028Z" fill="black"/>
<path d="M17.4913 41.1937C16.821 41.3498 16.6939 40.6718 16.7813 40.1403L19.6649 25.3166L20.5232 20.5923C20.599 20.1774 20.6062 19.8823 21.0485 19.691C21.3293 19.6647 21.6229 19.6853 21.7644 19.9771L21.7783 20.0119C21.8639 20.1916 21.8595 20.3679 21.8293 20.5638L21.0485 24.9492L18.6598 37.2656C18.6347 37.3895 18.6281 37.5167 18.6041 37.6406L18.1145 40.1016C18.0139 40.5877 18.052 41.0101 17.4913 41.1937Z" fill="black"/>
<path d="M21.1964 42.1356C20.2443 42.1334 20.2924 42.4199 19.6668 42.6986C19.3648 42.8332 18.9931 42.5803 18.8902 42.2973L18.8807 42.2697C18.7557 41.921 18.9033 41.6375 19.1889 41.4276C19.9961 40.8343 21.0987 40.6343 22.0664 40.8989C22.4383 41.0006 22.793 41.1718 23.1623 41.2888C24.5655 41.7333 25.5365 40.8247 26.8683 40.7925C27.4875 40.7461 28.9824 41.1154 29.21 41.7891C29.3259 42.1322 29.2017 42.5554 28.839 42.678L28.8089 42.6876C28.3836 42.8274 28.2403 42.5333 27.9081 42.3616C27.1019 41.9447 26.3727 42.2048 25.5688 42.4849C24.6945 42.7896 23.7136 42.8298 22.8195 42.5725C22.2622 42.4121 21.7867 42.1634 21.1964 42.1356Z" fill="black"/>
</svg>
