<svg width="48" height="48" viewBox="0 0 48 48" fill="none" xmlns="http://www.w3.org/2000/svg">
<path d="M17.3944 42.5233C17.1356 42.6909 16.9306 42.9183 16.6934 43.1135C16.0341 43.6561 14.3183 44.3081 13.5467 43.6671C12.8908 43.1224 13.2576 42.349 13.3858 41.6721L14.9718 33.0995L17.5775 18.7268C17.6131 18.5642 17.695 18.4148 17.7286 18.2608C17.7591 18.1211 17.6502 17.9005 17.6457 17.7424C17.6218 16.909 17.7065 16.046 17.6131 15.2181L17.3486 12.5058L16.4323 12.9171C15.4713 13.343 15.2175 13.5785 14.6873 12.5479C13.648 10.5281 13.3715 7.53767 15.7405 6.34339L15.767 6.33031C15.0251 4.5883 16.2234 3.33582 17.9884 3.46939C18.5998 3.51566 18.86 3.68001 19.1702 4.24241C19.5096 4.85764 20.1149 5.31176 20.703 5.67233C23.0362 7.10295 27.0808 7.00723 28.7936 4.65325C29.3097 3.94385 29.2861 3.61987 30.199 3.4015C31.8872 3.31138 33.2851 4.74172 32.5508 6.4317L32.666 6.51908C33.3788 6.97587 33.9702 7.74528 34.1147 8.59414C34.3651 10.066 34.2305 11.2776 33.5271 12.6379C33.3707 12.9403 33.1169 13.4332 32.6909 13.3487L32.6603 13.3419C32.3314 13.2717 32.0113 13.1155 31.6973 12.9966L30.7453 12.6491C30.6768 13.0125 30.6528 13.3687 30.6093 13.7345L30.4454 15.3854C30.4099 16.0604 30.4417 16.7555 30.4425 17.433L30.4437 18.0093C30.4447 18.3947 30.5938 18.764 30.6563 19.1487L31.2141 22.4855C31.2393 22.6551 31.2853 22.8209 31.3024 22.9922L33.7577 36.7905C33.8508 37.137 33.875 37.5114 33.9471 37.8635L34.458 40.7268C34.5561 41.328 34.6394 41.9614 34.8167 42.5455C34.9962 43.137 34.6747 43.768 34.0587 43.922L34.0314 43.9286C33.3011 44.1121 32.2899 43.8346 31.678 43.4206C31.1037 43.0322 30.6913 42.4894 30.0088 42.2704C29.1505 41.9949 28.1983 41.9991 27.3933 42.4454C26.9625 42.6842 26.9593 42.7601 26.689 43.1438C26.4624 43.4655 26.0607 43.7227 25.7141 43.9007C24.3598 44.5962 22.742 44.4355 21.5863 43.432C20.9667 42.8941 21.1831 42.5947 20.0843 42.2477C19.1624 41.9565 18.2452 42.0775 17.3944 42.5233ZM30.3914 4.76408C30.1451 4.86533 30.0763 5.11414 29.9452 5.32676C29.465 6.10555 28.7828 6.63055 27.9882 7.06644C25.2194 8.58533 21.7009 8.23053 19.234 6.30462C18.5 5.73158 18.5629 5.60253 18.0769 4.98655C17.9818 4.86608 17.9716 4.87831 17.819 4.8604C17.2657 4.79544 16.5818 4.98228 16.9226 5.68381L17.3822 6.66303C17.4503 6.82592 17.4906 7.00072 17.5568 7.16412L17.8471 8.15769C18.0606 8.8144 18.1584 9.50637 18.2943 10.1801L18.8084 13.6899C18.8306 13.9405 18.8268 14.2155 18.886 14.4596C18.9623 15.2435 18.9355 16.0372 18.9356 16.8231L18.9369 17.4047C18.9426 18.501 20.8661 18.5187 21.7501 18.5677L25.6931 18.5812C26.6405 18.5773 28.5822 18.5697 29.1208 17.8297C29.2002 17.7206 29.161 16.9993 29.1613 16.8142L29.1703 15.054C29.1782 14.8883 29.2107 14.7256 29.2234 14.5604L29.3707 12.8854L29.663 11.0393L30.5161 7.29092C30.746 6.55719 30.9157 6.40808 31.3478 5.84347C31.7099 5.37031 31.0595 4.73365 30.3914 4.76408ZM16.2992 7.55319C14.8889 8.48553 15.0632 10.0939 15.6721 11.4621L15.7828 11.702L15.9709 11.6259L17.118 11.096C16.9629 9.99903 16.6772 8.61219 16.2992 7.55319ZM31.8031 7.58305L30.986 11.2026C31.354 11.4702 31.8309 11.567 32.2442 11.7468L32.412 11.809C33.137 10.7339 33.2365 8.53325 32.0312 7.71786L31.9062 7.64928C31.8684 7.63044 31.837 7.60803 31.8031 7.58305ZM18.788 19.3317L14.561 42.5747C15.3812 42.5375 15.7983 41.9533 16.4037 41.5344C17.2567 40.9442 18.4658 40.6257 19.4985 40.7412C20.2976 40.8659 21.0411 41.0518 21.7083 41.5496C22.4328 42.0901 22.1922 42.5337 23.3232 42.9163C23.3623 42.55 23.3437 42.1704 23.3438 41.8021L23.3415 19.9587L21.3048 19.873C20.4485 19.8266 19.5637 19.7269 18.788 19.3317ZM29.3523 19.3479C28.5006 19.8028 26.8648 19.9377 25.8409 19.9479L25.0694 19.9508C24.9379 19.951 24.7962 19.9398 24.6662 19.9598L24.6545 42.1147C24.6547 42.3586 24.6314 42.6236 24.675 42.8631C25.656 42.5754 25.4379 42.3634 25.9758 41.7964C26.5801 41.1595 27.6207 40.8305 28.4708 40.7344C31.4945 40.5856 31.754 42.4226 33.2931 42.5867L33.4357 42.6029L29.3523 19.3479Z" fill="black"/>
</svg>
