<svg width="48" height="48" viewBox="0 0 48 48" fill="none" xmlns="http://www.w3.org/2000/svg">
<path d="M35.9777 44.1143C34.8314 44.2792 33.7229 44.2106 32.6011 44.5721C31.8596 44.811 31.2406 45.2944 30.5344 45.6075C29.2682 46.1686 27.4512 46.0614 26.2709 45.3843C26.0385 45.251 25.8244 45.0859 25.5901 44.955C24.64 44.4237 23.269 44.459 22.325 44.9681C22.0439 45.1197 21.7839 45.3031 21.4952 45.4434C20.0249 46.1579 18.0297 46.1715 16.6397 45.2632C15.367 44.4315 15.022 44.2343 13.5057 44.2324L12.1935 44.2312C10.2643 44.2291 8.83533 43.3536 7.70855 41.7774C7.35197 41.2787 7.79494 40.7566 8.00274 40.2861L10.4445 34.8628C10.6869 34.2535 10.9165 33.6308 11.0706 32.9929L11.2743 31.9219C11.6521 30.0579 12.7291 28.7159 13.7663 27.1714C15.4119 24.7204 16.5159 22.7064 16.1611 19.6055C16.1049 19.1151 16.1029 19.2146 15.8063 18.8398C15.2677 18.1591 14.5136 16.2964 14.2851 15.4487C13.7795 13.5727 14.2815 12.0731 15.4084 10.5118C16.24 9.35965 16.3919 8.97532 17.8189 8.89802C17.843 8.77441 17.8282 8.62526 17.8282 8.49841L17.8289 3.08319C17.8293 2.51836 17.7906 2.07779 18.4814 1.95021C18.756 1.94901 19.0105 2.05207 19.1408 2.31162L19.154 2.33873C19.2933 2.5971 19.2242 2.93905 19.2244 3.22356L19.2257 8.58372C19.2259 8.91044 19.1135 9.01221 19.4428 9.12405L20.1167 9.36363C21.2779 9.83543 23.0448 10.8299 23.809 11.8845L24.0005 12.1146C24.2766 11.817 24.5219 11.51 24.8257 11.2371C25.8648 10.3034 27.5228 9.41346 28.9164 9.11365C29.0712 9.08037 29.321 9.14051 29.321 8.94677L29.3203 3.27327C29.3204 3.0057 29.2505 2.61628 29.4139 2.38528L29.4355 2.35554C29.6487 2.05627 30.0273 1.87268 30.3765 2.05653C30.743 2.2495 30.7208 2.76913 30.7209 3.12115L30.7219 8.42637C30.7222 8.64058 30.7089 8.86249 30.7415 9.07455C32.5316 9.45818 33.462 11.3683 33.8442 13.0079C34.1927 14.5031 33.8451 16.0982 33.1616 17.4493C33.066 17.6381 32.9071 17.7809 32.821 17.9738C32.0717 19.6508 31.92 22.0863 32.4508 23.8687L32.5114 24.0821C32.7162 24.9224 33.3378 26.0104 33.808 26.7121L35.4863 29.1094C36.0092 29.9352 36.3818 30.8066 36.6287 31.752C36.6838 31.9629 36.7037 32.1906 36.7589 32.3976L37.0208 33.8346C37.1021 34.4608 37.5842 35.435 37.8398 36.0072L40.0678 40.6903C40.5967 41.7538 40.393 41.8496 39.5475 42.6231C38.4503 43.6267 37.4003 43.8878 35.9777 44.1143ZM17.7597 10.2739C17.0934 10.3652 16.8816 10.8165 16.551 11.354C15.9767 12.2876 15.1812 13.6949 15.6017 14.8343L15.7991 15.4219C15.972 15.8869 16.1212 16.4047 16.3733 16.8309L17.0481 16.3093C17.3148 16.0986 17.6485 15.72 18.0238 15.7749C18.5115 15.8461 18.5063 16.2543 18.6782 16.6055C19.5521 18.3922 21.862 18.2275 23.2197 17.0123C24.182 16.151 24.1482 16.5298 25.0061 17.1821C26.4111 18.2505 28.751 18.2731 29.4047 16.4609C29.5586 16.0344 29.5916 15.883 30.0993 15.7708C30.3946 15.8522 30.6422 15.9907 30.9104 16.134L31.8423 16.6094C32.3974 15.7008 32.72 14.4129 32.4828 13.3477L32.46 13.2657C31.9972 11.5108 31.2436 9.99555 29.2182 10.5238C27.5689 10.9541 25.8477 11.8741 24.8786 13.3243C24.0158 14.6155 23.5766 13.8104 22.9763 13.0522C21.9673 11.7777 20.5517 10.9901 19.0226 10.4878C18.6338 10.3601 18.1732 10.2075 17.7597 10.2739ZM30.5029 17.796L30.4918 17.8138C29.2723 19.7279 26.3066 19.9733 24.5507 18.7061C24.3681 18.5743 24.2089 18.3994 24.0185 18.2822C22.2227 19.9796 19.1754 19.9106 17.5861 17.9283L17.2074 18.2867C17.4835 18.9197 17.4852 19.235 17.5682 19.9204C17.9538 23.1064 16.5393 25.6687 14.7876 28.2071C13.9342 29.4437 12.9846 30.683 12.6629 32.1841C12.5637 32.6468 12.5403 33.1202 12.4122 33.5807C12.0624 34.8386 11.5228 36.0413 10.9923 37.2319C11.0978 37.308 11.2674 37.3397 11.3906 37.3887C11.8762 37.5823 12.2869 37.8409 12.6584 38.2103C12.7936 38.3448 12.9155 38.5006 13.0781 38.6027L13.1137 38.6253C13.2673 38.72 13.4437 38.78 13.6171 38.8267L13.712 38.859C13.9556 38.952 14.2531 38.9459 14.5108 38.9495C15.4095 38.9623 16.1385 39.0479 16.9598 39.4647C17.2516 39.645 17.517 39.8892 17.8125 40.0522C18.6856 40.5338 20.2469 40.56 21.1106 39.9696C21.3402 39.8127 21.5436 39.6258 21.7899 39.494C23.1267 38.7793 24.9608 38.7924 26.2671 39.5754C26.6808 39.8234 26.946 40.1112 27.4336 40.2397C28.2611 40.4576 29.3392 40.4363 30.1023 39.9992C30.3465 39.8594 30.5592 39.6658 30.7968 39.5141C32.1669 38.6389 34.2 39.2752 34.935 38.4493C35.4767 37.8406 36.1152 37.5345 36.8953 37.296L36.1578 35.6373C35.6679 34.4164 35.5993 33.5394 35.3355 32.298C34.9686 30.5707 33.8175 29.2549 32.8389 27.8398C31.9555 26.5624 31.2654 25.1208 30.9611 23.5899C30.7843 22.7004 30.6632 21.0904 30.8132 20.1692L31.1397 18.0964C30.9204 18.0209 30.7009 17.9167 30.5029 17.796ZM10.4227 38.5955L9.29072 40.8914C9.23747 40.998 9.16763 41.1131 9.13566 41.2277C9.65044 41.923 10.4275 42.4637 11.2606 42.6859L11.3414 42.7073C11.6123 42.7801 11.9161 42.7674 12.1955 42.7678L13.5813 42.7684C14.0695 42.7691 14.5474 42.7899 15.0287 42.879C16.1842 43.0929 16.6103 43.5924 17.5615 44.1103C18.4816 44.6113 19.8093 44.6083 20.7611 44.1817C21.0591 44.0481 21.3286 43.8539 21.6093 43.6888C23.3409 42.6709 25.0648 43.0005 26.6949 43.9451C27.0922 44.1753 27.5313 44.4033 27.9959 44.4479C29.5132 44.5934 29.7772 44.398 31.0189 43.711C31.9984 43.1691 32.8972 42.9161 33.9953 42.8213C35.323 42.7066 36.8078 42.748 37.98 42.0145L38.2223 41.8549L38.6572 41.4903C38.7151 41.4379 38.7899 41.384 38.8315 41.3179L37.6946 39.0431C37.6267 38.9042 37.5687 38.7582 37.4837 38.6288C35.8761 39.134 35.5328 40.3606 33.5482 40.4072C33.1785 40.4158 32.7475 40.3679 32.3926 40.4684L31.9025 40.5925C31.4207 40.7346 31.0597 41.1158 30.6211 41.3434C29.4532 41.9493 27.5478 41.991 26.3797 41.3601C26.0771 41.1967 25.8357 40.9632 25.5415 40.7941C24.6797 40.2989 23.3824 40.2785 22.4967 40.7597C22.1552 40.9452 21.8606 41.2011 21.514 41.3799C20.2529 42.0305 18.4384 42.0227 17.1899 41.3457C16.7688 41.1175 16.4551 40.7712 15.9961 40.5982C14.5956 40.0702 13.3874 40.8743 11.8562 39.4553C11.3029 38.9426 11.1364 38.8569 10.4227 38.5955Z" fill="black"/>
</svg>
