<svg width="48" height="48" viewBox="0 0 48 48" fill="none" xmlns="http://www.w3.org/2000/svg">
<path d="M22.3243 42.3572C22.2619 42.7471 22.1364 43.1341 22.0514 43.5197L21.6767 45.1929C21.4489 46.2305 21.2605 46.2699 20.2818 46.1366L19.2864 45.9995C17.2119 45.6202 15.2233 44.8669 13.547 43.5681C12.2771 42.584 12.7008 42.3007 13.2691 41.0849L14.2894 38.8631C12.9824 38.375 12.0469 36.9524 12.0036 35.5792C11.9823 34.9078 12.1736 34.201 12.2861 33.5392C12.954 29.6101 14.2425 25.9172 16.1944 22.431L16.8761 21.2966C16.9598 21.1649 17.0446 20.9973 17.1509 20.8852L17.1839 20.8493C17.2982 20.7022 17.2617 20.602 17.2622 20.4215L17.2613 17.3828C17.2635 16.2952 17.2027 15.2483 17.092 14.1679L16.8717 12.0648C16.837 11.8075 16.7805 11.5523 16.7639 11.2926C16.7314 10.7842 17.2889 10.3371 17.7707 10.5567L17.8728 10.6057C18.4862 10.9358 18.6103 14.1751 18.6686 15.0351C18.6983 15.4732 18.7031 16.106 18.7513 16.4997L30.2519 16.5175C30.2764 16.2516 30.2635 15.976 30.2641 15.7088L30.2731 14.0406C30.3355 12.0942 30.7664 9.69281 31.444 7.89993C29.2099 6.63018 26.5349 7.99359 25.1558 9.90224C24.7558 10.4556 24.2806 10.9779 23.7007 10.196L23.3308 9.69398C22.0953 8.02485 19.8557 6.75421 17.8144 7.79198C17.5834 7.90945 17.3892 8.06559 17.1672 8.19112C16.5854 8.51999 15.9489 7.82385 16.1779 7.23037C16.3915 6.67673 17.1332 6.60543 17.1339 6.30177L17.136 3.44804C17.1367 2.71931 16.8947 1.91673 17.8119 1.69007C18.4612 1.64687 18.6016 2.15549 18.6032 2.65336L18.6133 5.92767C20.7075 5.6639 22.6551 6.61677 24.0526 8.1553C24.1498 8.26237 24.2283 8.41907 24.3414 8.50434C25.1376 7.57293 26.0205 6.88143 27.1391 6.37031C27.8175 6.06027 29.802 5.69957 30.4135 5.96029L30.4511 5.97763C30.4804 5.64895 30.4595 5.30062 30.4599 4.96968L30.4626 2.51193C30.4661 1.6415 31.5578 1.36039 31.8657 2.16585L31.8753 2.19131C31.9566 2.37863 31.945 2.55494 31.9453 2.75511L31.9471 6.25143C31.9478 6.60271 32.6406 6.57815 32.9769 7.22587L32.9973 7.26552C33.2046 7.66382 32.8594 8.2874 32.7412 8.67759C32.5302 9.37363 32.3356 10.0646 32.1874 10.7771L31.8879 12.5976C31.7301 13.8903 31.6664 20.8342 31.7693 20.9971L31.8114 21.0644C31.9559 21.331 32.1318 21.5922 32.2863 21.8562L33.6559 24.4101C34.0608 25.1622 34.3563 25.9788 34.6872 26.7655L35.4387 28.9335C35.5263 29.2327 35.6506 29.5461 35.7031 29.8539L36.3846 32.842C36.4864 33.186 36.5011 33.5829 36.5627 33.9374L36.6577 34.5819C36.8139 35.412 36.7944 36.0911 36.4444 36.864C36.071 37.6883 35.2789 38.5895 34.3981 38.9066L35.5539 41.428C35.7127 41.6995 35.8214 42.0055 35.9329 42.2973L35.96 42.3749C36.1001 42.9175 35.3166 43.4378 34.9592 43.6981C33.0577 45.0834 30.5969 45.8777 28.261 46.1196C26.798 46.2711 26.9772 45.7377 26.7138 44.5243L24.3105 33.5331L22.3243 42.3572ZM30.0233 18.0105L18.7516 18.0289L18.7479 20.037L19.0959 20.0394L30.2538 20.0582L30.2431 18.0206L30.0233 18.0105ZM18.461 21.5624L17.0588 23.9456C15.6431 26.6254 14.5898 29.4857 13.9783 32.4556L13.4932 35.2086C13.4117 35.842 13.6833 36.4521 14.0978 36.9228C15.1595 38.1284 16.9514 37.6408 18.207 38.49C19.0729 39.0756 19.6008 40.206 18.9661 41.1628C18.426 41.9769 17.4634 42.1151 16.5822 42.3098L15.0202 42.6967C15.1344 42.838 15.4092 42.9648 15.5719 43.057C16.836 43.7728 18.1735 44.2261 19.6031 44.474C19.8115 44.5101 20.0545 44.5914 20.2633 44.5982L20.2998 44.5957C20.3531 44.2215 20.4466 43.8711 20.5308 43.5039L23.4989 30.2047C23.5517 29.9423 23.5915 29.6706 23.6637 29.4127C23.8204 28.8531 24.5629 28.6114 24.9019 29.1732L24.9504 29.2737C25.0071 29.3868 25.0297 29.5145 25.0471 29.6388L25.7934 33.4047L28.2399 44.5535C28.4464 44.5747 28.6877 44.4944 28.893 44.4632C30.5703 44.208 32.2158 43.6424 33.6576 42.7415C32.3579 42.3545 30.3163 42.2924 29.6483 41.0557C29.42 40.633 29.3338 40.1545 29.4823 39.6884C30.3461 36.9783 34.251 38.8166 35.2052 35.9633C35.355 35.5153 35.257 35.1018 35.1837 34.6522L35.0898 34.0113C34.5731 30.7191 33.5887 27.5635 32.0824 24.5853L30.5431 21.8788C30.3747 21.6059 30.4479 21.5645 30.1195 21.5631L18.461 21.5624ZM15.7191 39.332L14.9291 41.1368L16.3127 40.8052C16.3774 40.7885 16.47 40.7838 16.5289 40.7577C16.8583 40.6733 17.4743 40.6441 17.6595 40.3343C18.0845 39.6235 16.05 39.4104 15.7191 39.332ZM32.8519 39.3401C32.518 39.3704 32.1798 39.4412 31.8557 39.5262C31.2276 39.6908 30.3375 40.302 31.3713 40.6182L32.2445 40.8472L33.7541 41.2209L33.2003 39.977C33.1056 39.7677 33.0239 39.5274 32.9049 39.3327L32.8519 39.3401Z" fill="black"/>
</svg>
