<svg width="48" height="48" viewBox="0 0 48 48" fill="none" xmlns="http://www.w3.org/2000/svg">
<path d="M32.5939 40.2628C30.9034 41.6603 28.4425 41.8999 26.4291 41.104C25.9452 40.9128 25.525 40.5925 25.0337 40.4216C23.5697 39.9123 22.8482 40.4971 21.6316 41.0741C19.8769 41.9064 17.5074 41.6607 15.8923 40.6579C15.5966 40.4744 15.388 40.2646 15.1264 40.0394C13.2223 38.3997 12.052 39.8917 10.1004 39.3815C8.03176 38.8408 6.15086 36.5191 5.9349 34.3744C5.7962 32.9968 6.17383 31.8099 6.97825 30.6938L7.71967 29.6768C10.0635 26.4919 12.8005 23.6198 15.812 21.0594L17.2546 19.8411C17.2277 18.3518 17.0684 16.8731 16.9079 15.395C16.6806 13.3016 16.4041 11.1963 15.9764 9.13369C15.6648 7.63121 16.75 6.39718 18.1762 6.12286C19.9974 5.95393 21.4952 7.49241 21.596 9.24582C21.6118 9.52027 21.5792 9.80836 21.6283 10.0789L21.6351 10.1132C22.1072 12.6422 26.3208 12.906 26.4637 9.45952C26.5466 7.46039 28.2157 5.60865 30.3016 6.21886C31.4772 6.56283 32.1945 7.59605 32.1758 8.80069C32.1686 9.2604 32.0308 9.68518 31.9644 10.135L31.4956 13.3112L30.9032 19.5939C30.8615 20.0248 30.8328 19.8691 31.16 20.1565L33.3626 22.081C35.8844 24.4509 38.1254 27.0743 40.1179 29.9008C40.5467 30.509 41.0489 31.1064 41.3433 31.7929L41.4378 32.0273C42.7136 35.2048 40.3708 38.9126 37.0194 39.3521C35.0733 39.6073 34.5127 38.6903 32.5939 40.2628ZM18.3323 7.48308C17.6402 7.60716 17.1248 8.20421 17.2547 8.92749L17.6733 11.1327L18.1024 14.3222C18.1291 14.5697 18.1647 14.8028 18.1677 15.0533C19.5573 15.8475 21.9482 15.8014 23.484 15.7991C24.0792 15.7982 24.6858 15.8225 25.2791 15.7835L26.2245 15.6801C27.4649 15.5697 28.7136 15.4342 29.9386 15.2048L30.5574 10.6459L30.707 9.6796C30.8271 9.03966 31.0257 8.517 30.5855 7.94171C29.7081 6.79496 27.9234 7.86305 27.7949 9.20025L27.7875 9.2775C27.7627 9.53382 27.7901 9.79388 27.7617 10.0488C27.512 12.291 25.1984 13.9033 23.0312 13.2393C21.5561 12.7874 20.3647 11.5159 20.297 9.92668C20.2873 9.69938 20.3067 9.46927 20.2864 9.24254C20.1937 8.20979 19.3744 7.44699 18.3323 7.48308ZM18.3758 16.6013L18.5437 19.5224L29.6042 19.5242L29.6408 18.826L29.813 16.6093C29.5094 16.6258 29.2113 16.7003 28.9109 16.745L25.8987 17.0815C25.6918 17.1004 25.4922 17.1394 25.2821 17.1514L23.3447 17.182C21.4901 17.1965 20.1707 17.1817 18.3758 16.6013ZM18.151 20.9163C17.9462 20.956 17.712 21.2157 17.5477 21.3481L15.3749 23.2032L11.671 26.9046C10.5977 28.0882 9.61876 29.347 8.6732 30.6331L7.74109 31.8866C6.84283 33.2144 7.13472 34.8182 7.97101 36.0716C8.24612 36.4839 8.56075 36.9458 8.94826 37.2603C9.56542 37.8127 10.4111 38.201 11.254 38.1511C11.8549 38.1156 12.4226 37.8517 13.032 37.8487L13.8288 35.0191L15.9121 29.0196L18.3404 23.2346C18.5975 22.6809 19.1205 21.9707 19.0371 21.328L19.0345 21.3017C18.9818 20.8418 18.5592 20.901 18.151 20.9163ZM20.5375 20.9296L20.3319 20.9281C20.3205 20.9725 20.3291 21.0052 20.3359 21.0496C20.5116 22.1889 19.8051 23.2212 19.3369 24.2038L16.6965 30.6399L15.2442 34.9071L14.3069 38.0821C15.6385 38.5777 16.1147 39.4011 17.399 39.8933C18.6351 40.3213 20.0383 40.3456 21.2363 39.7678C21.8222 39.4851 22.3619 39.1108 23.0155 39.0012C23.1226 38.9833 23.2453 38.9907 23.3451 38.9471L23.3453 20.9333L20.5375 20.9296ZM29.1464 20.9204L28.9217 20.9324C28.8481 21.0436 28.8581 21.4263 28.8894 21.5606L28.9277 21.6796C29.1284 22.2477 29.4388 22.7893 29.7069 23.3289L30.4733 24.9374C30.7092 25.4089 30.9558 25.8975 31.1533 26.3872L33.4245 31.7812L35.5046 37.7258C35.5425 37.8356 35.5341 37.9181 35.6092 38.0157C36.1268 38.0176 36.7643 38.0858 37.2565 37.9187C37.971 37.6761 38.5392 37.4607 39.117 36.9243C39.8273 36.2426 40.4105 35.2132 40.4296 34.2069C40.462 32.4979 40.0327 32.0779 39.04 30.6807L36.1384 26.9118L34.4072 24.9874L30.1465 21.0405C30.0576 20.947 30.0337 20.9249 29.9009 20.9225L29.1464 20.9204ZM24.7338 20.9341L24.6538 20.9564C24.6177 21.0623 24.6335 21.2231 24.6332 21.3357L24.6316 38.9468C25.6762 39.1156 25.982 39.4725 26.8348 39.8165C28.286 40.4019 30.2376 40.3399 31.5362 39.4079L32.5548 38.631C33.0848 38.2927 33.5798 38.1502 34.1721 37.9933C34.0671 37.5744 33.9187 37.163 33.7832 36.7528L31.4962 30.4687L28.39 23.6428C27.9443 22.7536 27.5206 21.9841 27.4865 20.9647L24.7338 20.9341Z" fill="black"/>
</svg>
