<svg width="48" height="48" viewBox="0 0 48 48" fill="none" xmlns="http://www.w3.org/2000/svg">
<path d="M35.0555 44.958C33.5305 44.9223 33.2261 45.4545 31.9928 45.9673C30.4456 46.6107 28.2984 46.6705 26.705 46.1475C25.5037 45.7533 25.0947 45.3231 23.6369 45.466C22.8946 45.5388 22.262 45.8629 21.5731 46.1104C20.0101 46.6721 17.3912 46.6527 15.9142 45.9051C14.9135 45.3987 14.3665 44.92 13.1837 44.9535C12.7625 44.9654 12.1984 45.0463 12.1053 44.396C11.9887 43.5816 12.6863 40.8205 12.91 40.0158C13.2273 38.8743 13.6107 37.746 13.8677 36.5885L14.9313 30.7153C15.278 28.9532 15.7944 27.2265 16.3313 25.5149L17.928 21.1862C18.6421 19.4302 19.3384 17.8104 19.5319 15.9117C19.6723 14.533 19.5088 14.1582 18.7146 12.9139C18.6764 12.9607 18.6605 13.0489 18.6411 13.1072C18.4468 13.6908 17.8955 14.1832 17.3441 13.7239C17.1662 13.5757 17.06 13.3152 16.9631 13.1086L16.5508 12.2424C15.9569 11.1037 15.1826 11.8388 14.2906 12.123C13.562 12.3551 13.0717 11.7613 13.0744 11.06C13.0824 9.00092 13.6912 6.8726 14.8548 5.17362L16.1196 3.45471C16.529 2.84285 16.8647 1.67809 17.5754 1.50482C18.2341 1.48542 18.3634 1.71372 18.6681 2.27866C18.8078 2.53758 18.9498 2.81151 19.0444 3.09022L19.1258 3.32857C19.3027 3.81521 19.4025 4.35782 19.4528 4.87085C19.4728 5.07368 19.414 5.58499 19.5542 5.7237L19.5846 5.75168C19.703 5.86953 19.8515 5.95807 19.9921 6.04779C21.3273 6.89932 22.8363 7.42128 23.9999 8.54323C25.2719 7.45212 26.8185 6.8494 28.3361 6.18471C28.6398 6.05168 28.6387 6.10315 28.6462 5.7934L28.6798 4.93221C28.7272 4.15571 29.1693 1.83224 30.07 1.53999C30.2302 1.48801 30.5801 1.47705 30.7286 1.55726L30.7501 1.56958C31.22 1.81119 31.8782 3.34569 32.2353 3.88947C33.0319 5.10265 33.7259 5.96717 34.2338 7.34257L34.7357 9.12935C34.8208 9.50018 34.8472 9.8862 34.8956 10.2627L34.9695 10.8637C35.0083 11.0937 35.0821 11.3941 34.9786 11.6155C34.652 12.3141 34.2807 12.316 33.7033 12.0705C32.5088 11.5628 31.9762 11.2626 31.3478 12.5859L30.9467 13.4709C30.7415 13.9028 30.2553 14.0552 29.8407 13.8224C29.5512 13.6598 29.4277 13.2881 29.3482 12.9869L29.3425 12.965C28.1659 14.4914 28.313 15.7673 28.7332 17.5551C28.7578 17.6601 28.7619 17.7661 28.7957 17.8693L31.1472 24.0444C31.5084 24.8667 31.9219 26.2452 32.136 27.0942L32.5146 28.4273L33.3223 32.0493L34.2002 37.0434C34.2268 37.1881 34.276 37.3623 34.3261 37.5031L35.352 40.9094C35.5155 41.3657 35.7025 42.6302 35.7593 43.1169C35.7866 43.3511 35.7875 43.6069 35.8365 43.8357L35.8589 43.9687C35.9123 44.5478 35.6807 44.95 35.0555 44.958ZM30.3708 3.66842C30.0631 4.33991 30.0748 5.11353 30.0809 5.83714C30.0823 6.01601 30.1206 6.26253 30.0823 6.43465C29.8625 7.4232 28.8638 7.62598 28.0519 7.92354C27.0078 8.30618 25.9851 8.83924 25.1134 9.53393C24.8601 9.73582 24.612 10.026 24.3283 10.1749L24.3018 10.1893C23.8702 10.4052 23.5488 10.0586 23.2568 9.80904L22.6408 9.30781C21.4806 8.39881 20.0744 7.91234 18.8786 7.07285C18.6055 6.88109 18.2566 6.63471 18.1225 6.31685L18.0676 6.12124C17.8814 5.28743 18.1755 4.67226 17.6903 3.65717L17.6808 3.67647C17.4971 4.04201 17.2665 4.42371 17.0224 4.75273L16.1917 5.81628C15.3111 7.01196 14.5613 8.83395 14.5783 10.3603C15.5188 10.1649 16.1271 9.96889 17.0169 10.5505L17.4251 10.8688L17.2875 10.3931C17.2019 10.037 17.1784 8.942 17.3679 8.64003C17.7648 8.14376 18.6283 8.26226 18.6575 8.95859C18.6753 9.38149 18.5818 9.75106 18.7043 10.1723L18.8536 10.6124C19.2555 11.6323 20.1984 12.2381 20.6524 13.4993L20.7371 13.7465C20.7832 13.8892 20.8232 14.1545 20.9063 14.2684L27.1757 14.2691C27.3587 13.5061 27.6482 12.752 28.1119 12.1124C29.0116 10.8715 29.3717 10.6665 29.3618 9.12434C29.3562 8.23737 30.2835 8.10485 30.6212 8.66951C31.0266 9.34714 30.6923 10.194 30.6268 10.8693C31.5572 10.1693 32.2344 9.98215 33.428 10.3756C33.2266 8.79129 32.8592 7.42189 31.9717 6.07545L31.1413 4.91993C30.8657 4.50976 30.6513 4.03166 30.4034 3.67153L30.3708 3.66842ZM21.0848 15.7318L21.0017 15.7531L20.9462 16.365C20.6399 18.798 19.7303 20.4625 18.8741 22.715C17.4386 26.4911 16.54 29.7296 15.8513 33.7041L15.3385 36.7173C15.0839 37.9204 14.7185 39.1273 14.3479 40.3012C15.3428 40.4633 15.5334 40.7224 16.3165 41.0914C17.6708 41.7296 19.9932 41.836 21.3833 41.4148C21.8187 41.2828 22.1848 41.064 22.5939 40.8765C23.4156 40.4999 24.4698 40.4447 25.3157 40.7929C25.6258 40.9205 25.9133 41.0966 26.2269 41.2186C27.6112 41.6946 30.1632 41.779 31.4804 41.1352C31.8411 40.9589 32.1692 40.7207 32.5431 40.5716C32.9357 40.415 33.3148 40.3589 33.7111 40.2449L33.2643 38.9002C32.9468 37.913 32.6511 36.9293 32.4667 35.9067L31.8657 32.0458L30.9263 28.0793L29.3699 23.3887L28.3947 20.9702C27.6878 19.2623 27.115 17.6031 27.0151 15.7351L21.0848 15.7318ZM33.8573 41.7253C32.959 41.8992 32.5499 42.2776 31.7462 42.6107C30.2772 43.2198 27.5317 43.1787 26.0738 42.6994C24.5549 42.2 24.6034 41.5801 22.8056 42.4258C20.9822 43.2836 17.6877 43.3608 15.8644 42.4713C15.2191 42.1564 14.6921 41.818 13.9625 41.7325L13.6247 43.4493C13.8421 43.5066 14.0646 43.5094 14.2809 43.5741C15.5842 43.8283 16.6001 44.9006 17.9181 45.0037C19.757 45.1477 20.3357 44.985 22.0314 44.3447C23.2955 43.8673 24.6967 43.8756 25.9741 44.2921L27.3198 44.7968C27.8193 44.9739 28.2945 45.0094 28.8176 45.0113C29.919 45.0154 30.7739 44.9837 31.7876 44.4422C32.7149 43.9468 33.2749 43.6315 34.3643 43.4957L34.0708 41.7075L33.8573 41.7253Z" fill="black"/>
</svg>
