<svg width="48" height="48" viewBox="0 0 48 48" fill="none" xmlns="http://www.w3.org/2000/svg">
<path d="M25.5791 43.0747L24.6486 42.9765C23.5784 42.8603 22.8157 42.9975 21.7498 43.1009L17.2755 43.386L16.3516 43.3884C13.789 43.3908 12.1444 41.0772 12.9554 38.6341L13.2089 37.9603C13.2446 37.8736 13.3013 37.7806 13.3183 37.689C10.6288 37.0344 8.9216 35.2652 8.29301 32.5288C8.07391 31.5751 8.09702 30.7817 8.1424 29.8126L8.36383 26.3588C8.64087 22.794 9.70437 18.4238 10.9406 15.1368C11.848 12.7242 12.585 11.7284 15.2304 11.9626C14.9324 11.4267 14.6841 10.9771 14.5781 10.3591C14.4186 9.42886 14.9342 8.33822 15.8043 7.93177C15.9797 7.84983 16.0558 7.86989 16.1548 7.69931L16.3463 7.37573C17.6064 5.45311 20.2781 4.67946 22.4796 4.55807C22.8585 4.54341 23.2885 4.59525 23.6448 4.72575C23.8181 4.78917 23.9022 4.90842 24.0856 4.84181L24.4614 4.7025C24.908 4.55303 25.3805 4.56015 25.8453 4.58182C27.852 4.6754 30.0551 5.50631 31.3805 7.05839C31.5108 7.21092 31.6819 7.4092 31.7613 7.59225C31.863 7.82681 31.9528 7.80675 32.1704 7.9177C32.7351 8.20566 33.0639 8.65242 33.282 9.23484C33.6461 10.207 33.2923 11.0827 32.7693 11.9247L33.5461 11.9256C33.7332 11.9263 33.9267 11.9159 34.1093 11.9626L34.4236 12.0305C35.2732 12.2549 35.9259 12.7875 36.3573 13.5507L36.3751 13.5825C36.9219 14.5348 37.4554 16.1658 37.7817 17.2036L38.4423 19.5851L39.6859 26.794C39.7512 27.2498 39.7718 27.7447 39.7964 28.2075L39.8169 29.0539C39.8532 29.8981 39.9109 30.7793 39.8383 31.6234C39.5946 34.4588 37.6239 37.2256 34.695 37.6459C34.7117 37.8032 34.7893 37.9392 34.8343 38.088C35.0246 38.7165 35.2711 39.5101 35.1896 40.1784C34.9785 41.911 33.7643 43.0723 32.0842 43.3615C31.6566 43.4352 31.1551 43.3869 30.7206 43.3869L28.5612 43.3642L25.5791 43.0747ZM22.4563 6.27047C20.8598 6.30844 19.44 6.83827 18.1942 7.80741C19.0832 8.175 19.8113 8.69573 20.4929 9.37327C21.0442 9.92128 20.8856 10.1766 21.5749 10.1836L26.0681 10.1868L26.7429 10.1881C27.6916 9.16941 28.3203 8.30433 29.772 7.81669C28.6486 6.76219 26.8011 6.19191 25.2771 6.25875C24.787 6.28026 24.4662 6.72023 23.9881 6.72623C23.5725 6.73148 23.3673 6.2587 22.4563 6.27047ZM17.0249 9.28875C16.6614 9.34842 16.4057 9.46767 16.2527 9.80906L16.2422 9.83161C16.0046 10.3807 16.8169 11.245 17.0907 11.6623C17.6891 12.574 18.6783 14.1001 19.0359 15.144C19.4898 16.4686 20.348 16.0228 20.7208 16.688L20.7446 16.7282C20.9688 17.1294 20.8031 17.6193 20.3891 17.8226L20.2544 17.8755C20.0076 17.967 19.6535 17.8814 19.4077 17.8102C18.2471 17.4741 17.8521 16.5566 17.407 15.5804L16.7969 14.3968C16.678 14.1674 16.5684 13.9125 16.4298 13.6957L14.8093 13.6865C13.1651 13.6889 13.1595 14.0253 12.5596 15.563C12.0178 16.9517 11.3576 18.9443 11.0667 20.4341L10.4074 23.6255L9.81396 28.7114L9.79732 30.219C9.79127 30.9015 9.71913 31.7053 9.97582 32.3567L10.1374 32.8525C10.7023 34.4676 12.3097 36.1187 14.1238 36.0442C14.2127 35.1731 14.3813 34.3012 14.5254 33.4375L15.4162 28.438C15.9391 25.5787 15.2516 23.7103 14.1019 21.0956C13.9248 20.693 13.4589 20.0213 13.6571 19.5669L13.6707 19.5343C13.7142 19.4333 13.7766 19.3532 13.8513 19.2733C14.3766 18.797 15.0217 19.0072 15.3072 19.6404L16.6439 22.8989L17.0971 24.6579C17.2519 25.267 17.3385 27.1028 17.2212 27.7981L16.9376 29.5786L15.9332 35.2897C15.7363 36.4693 15.6345 36.8163 15.0942 37.9223L14.6466 38.9533C14.5603 39.1705 14.4543 39.4044 14.4195 39.6364C14.2719 40.6202 14.984 41.5056 15.9502 41.6573C16.4262 41.7321 18.1511 41.6835 18.6094 41.6299L22.9764 41.2957C23.0311 41.2942 23.108 41.3042 23.1563 41.2783L23.1541 23.5379C23.1457 23.3503 23.1063 23.171 23.0883 22.9851L22.583 18.2677L22.2502 16.707C21.833 14.9096 21.3105 13.3283 20.2495 11.7726C19.6141 10.8409 18.3188 9.27591 17.0522 9.28748L17.0249 9.28875ZM30.7798 9.31242C28.295 9.75516 26.6177 13.2579 25.9993 15.426L25.7443 16.5132C25.5253 17.4713 25.3393 18.4539 25.2198 19.4302L24.9202 22.5586C24.8485 23.3726 24.8409 23.9575 24.8416 24.7859L24.8406 40.73C24.8404 40.8872 24.816 41.0883 24.8416 41.2419L27.867 41.5866C28.1408 41.6121 28.412 41.6504 28.6873 41.6603L30.5933 41.6704C31.0436 41.6712 31.5431 41.7162 31.9847 41.6372L32.0254 41.6304C32.8938 41.4776 33.5911 40.5825 33.4989 39.7036C33.3801 38.5706 32.676 37.7388 32.4061 36.6841C32.2685 36.1465 32.2339 35.5952 32.145 35.0498L30.9284 28.6432C30.439 25.7233 30.8314 24.0892 31.9704 21.3214L32.6328 19.866C32.8568 19.4051 33.0698 18.8966 33.7029 19.0161L33.7475 19.024C34.036 19.0796 34.2572 19.307 34.3554 19.5763C34.4209 19.788 34.4091 19.9328 34.3457 20.1427L34.3371 20.1722C34.2767 20.3769 34.1635 20.5883 34.0681 20.7798L33.6584 21.6333C32.9087 23.32 32.4725 24.4908 32.4041 26.3806L32.4145 27.1411C32.4224 27.3203 32.4225 27.5025 32.4644 27.6775L33.6971 34.2502C33.7308 34.3865 33.7397 34.5377 33.763 34.677L33.8993 35.4876C33.9258 35.6924 33.932 35.8918 33.9905 36.0911C36.5126 35.7331 38.0923 33.6568 38.2224 31.1543C38.2502 30.6193 38.2047 30.0888 38.1851 29.5552C38.152 28.6596 38.1253 27.7943 38.0324 26.9012L37.3406 22.3833C36.9013 20.1431 36.3627 17.9392 35.5158 15.8142C35.2105 15.0482 34.8763 13.9019 33.9605 13.6637C33.5289 13.5515 32.0154 13.6029 31.5435 13.6351C31.235 14.0988 30.7893 14.9411 30.5706 15.4297C30.0802 16.5248 29.8124 17.5884 28.3403 17.8717C27.8146 17.973 27.3152 17.8503 27.1396 17.2973L27.131 17.2718C27.0915 17.1433 27.1069 16.9495 27.1572 16.8272L27.1717 16.7911C27.4486 16.1279 28.3242 16.3763 28.7024 15.5386L29.431 13.9953C29.745 13.3982 30.1003 12.8246 30.4688 12.2598L31.074 11.3685C31.4079 10.906 31.9462 10.3666 31.6886 9.74728C31.5388 9.38728 31.1311 9.29076 30.7798 9.31242ZM22.296 11.8712C22.682 12.585 23.0203 13.3736 23.2826 14.145L23.5703 15.0574C23.7272 15.482 23.8416 16.4902 23.9801 16.7076C24.0119 16.683 24.2534 15.5368 24.2908 15.3756C24.4924 14.6971 25.2175 12.3616 25.6377 11.8839L23.3551 11.8821C23.0137 11.8818 22.6313 11.9191 22.296 11.8712Z" fill="black"/>
</svg>
