<svg width="48" height="48" viewBox="0 0 48 48" fill="none" xmlns="http://www.w3.org/2000/svg">
<path d="M24.8318 40.6858L17.8527 40.6857C17.5263 40.6855 17.1735 40.7047 16.8514 40.6552C14.9502 40.3632 13.4088 38.9038 12.8685 37.0782C12.7153 36.5607 12.6323 36.0253 12.504 35.5021C12.3925 35.5966 12.2452 35.6634 12.1157 35.7315C8.9662 37.3871 5.2987 34.8169 5.31745 31.3228C5.32205 30.4658 5.61427 29.6894 5.86842 28.8822L7.93341 22.1225L9.02944 18.0794C9.28664 17.0956 9.40931 15.8685 10.1386 15.0926C10.2984 14.9226 10.377 14.9308 10.4409 14.701C11.0042 12.6792 12.8625 11.5301 14.8535 11.2524C15.7225 11.1312 16.3169 11.1592 17.1968 11.1729C17.2284 10.9644 17.2345 10.7531 17.2753 10.5462C17.7472 8.15246 21.0474 7.45543 23.1388 7.27552C25.7141 7.19893 29.5923 7.50994 30.6566 10.254C30.7205 10.4188 30.7895 10.6588 30.7964 10.835L30.8235 11.1608L32.0242 11.1673C32.4738 11.1695 32.9144 11.2108 33.3587 11.2841C35.3642 11.6151 37.0704 12.843 37.5803 14.9001L37.6756 14.9779C38.3902 15.556 38.6252 16.5915 38.8065 17.4464L38.9833 18.1373C39.0117 18.2768 39.0518 18.4273 39.094 18.5626L39.2817 19.2774C39.3365 19.4821 39.4095 19.6908 39.45 19.8985L39.7328 20.9511C39.7423 20.9962 39.75 21.0353 39.7652 21.079L39.9225 21.6367C39.9308 21.6736 39.9388 21.7079 39.951 21.7438L40.5795 23.9454C40.5872 23.9819 40.5945 24.0142 40.6079 24.0493L42.3898 29.7684C43.9575 33.9235 39.0433 37.9807 35.4873 35.5142C35.3768 35.7271 35.3531 36.0633 35.3037 36.3002C34.8682 38.3873 33.6398 40.0472 31.4531 40.5595C30.9465 40.6782 30.4804 40.6852 29.9605 40.6857L24.8318 40.6858ZM23.2159 8.95491C22.0156 9.02307 19.4598 9.44912 18.9121 10.7579L18.8933 10.8015C18.6519 11.368 19.1726 11.9853 19.5389 12.3664C20.5421 11.316 22.1609 10.6043 23.5834 11.1953C23.8553 11.3083 23.8242 11.3292 24.1039 11.2379L24.6315 11.079C25.8019 10.9055 26.7947 11.0466 27.7835 11.7817L28.4828 12.3656C29.7664 11.0586 29.1718 10.2728 27.6225 9.54915C26.2779 8.92111 24.6684 8.94216 23.2159 8.95491ZM22.4698 12.6425C21.8014 12.7063 21.195 13.0515 20.7165 13.5099L21.5985 14.5537C22.1422 15.2559 22.6301 16.0501 23.0095 16.8527L23.6588 18.4533C23.7693 18.7508 23.8085 19.2417 23.9764 19.4956C24.0545 19.4402 24.1309 19.0154 24.1638 18.9051L24.4449 18.0758C25.0885 16.4122 25.9737 14.7803 27.2788 13.5387C26.8472 13.0344 26.2363 12.7089 25.5712 12.6621C24.9863 12.621 24.4744 13.0036 23.9061 13.0011C23.4157 12.999 22.9594 12.6219 22.4698 12.6425ZM15.7433 12.8254C14.5955 12.8899 13.3877 13.1942 12.582 14.0762C11.9825 14.7324 11.7272 15.7825 11.9321 16.6399L12.6912 19.3612L13.039 20.2318C13.3878 21.2806 14.5067 23.1247 15.123 23.9936L15.8476 24.9807C16.0156 25.21 16.1883 25.4311 16.3139 25.6876L16.3255 25.7104C16.4102 25.8815 16.4486 26.1699 16.3784 26.3513L16.3268 26.4653C16.2066 26.7369 16.0149 26.9747 15.8538 27.2228C14.203 29.7642 13.5206 33.1417 14.3078 36.1054C14.329 36.1854 14.3351 36.2778 14.3633 36.3542L14.4851 36.7267C14.8916 37.8359 15.7422 38.6791 16.927 38.9428C17.207 39.0239 17.4961 39.0151 17.7808 39.0153L22.7745 39.0198L22.7082 36.6998L22.7161 30.9291L22.8941 27.0034C22.9043 26.7904 22.9471 26.5806 22.9567 26.3673L22.9665 23.7128C22.9593 23.4788 22.9208 23.2483 22.9006 23.0157C22.6463 20.0778 21.8041 17.2681 19.8104 15.0086L18.8083 13.9229C18.6263 13.7403 18.4327 13.5644 18.2605 13.3729L17.997 13.0665C17.9299 12.9804 17.8986 12.8892 17.8085 12.8224L15.7433 12.8254ZM30.317 12.8223C29.8633 13.5083 29.2373 13.967 28.6463 14.5161C25.1233 17.7899 24.7227 23.5744 24.5108 28.0679C24.4998 28.3002 24.4558 28.5341 24.4462 28.77L24.4225 30.1173C24.4135 30.3026 24.3686 30.4815 24.3623 30.6697L24.3618 36.8087C24.3668 37.0341 24.4198 37.2554 24.4244 37.4821L24.4303 38.44C24.4314 38.6187 24.4022 38.8491 24.46 39.0195L30.0078 39.0155C30.7804 39.0147 31.3754 38.9204 32.0656 38.5228C33.2417 37.7426 33.5708 36.6927 33.8422 35.3438L33.9837 34.2437C34.2672 32.4056 33.5034 29.7369 32.6584 28.1429L32.1111 27.1925C31.8673 26.8125 31.482 26.4183 31.5862 25.9337L31.592 25.9058C31.645 25.6773 31.8245 25.4483 31.9539 25.2548L33.1871 23.4345C34.2817 21.7619 35.19 19.9381 35.7425 18.0128C36.4007 15.7196 36.1241 13.6472 33.5052 13.003C32.4724 12.7489 31.3735 12.8207 30.317 12.8223ZM37.3335 18.3634L37.3243 18.4073C36.8308 20.6777 35.0955 23.5883 33.8 25.451C33.5681 25.7845 33.3009 25.9536 33.483 26.2722L33.9725 27.0988C34.0969 27.3311 34.2326 27.5658 34.3344 27.8087L34.5274 28.2169C34.6928 28.6094 34.8572 28.9962 34.9867 29.4024L35.0822 29.6954C35.3476 30.5846 35.5396 31.4546 35.6162 32.3822C35.6891 33.2655 35.3903 33.2202 36.1054 33.8702C36.3763 34.1165 36.7703 34.355 37.1308 34.4359C39.312 35.1479 41.5361 32.8118 40.9088 30.4819C40.7972 30.0674 40.6371 29.6619 40.5052 29.2531L38.0011 20.8377C37.9384 20.5921 37.3649 18.3859 37.3335 18.3634ZM10.6609 18.3994C10.4259 19.0768 10.2713 19.7949 10.0857 20.4876L9.15431 23.8288L7.26431 29.8829C6.95592 30.8306 6.7965 31.7327 7.23792 32.6603C7.71628 33.6652 8.72072 34.4771 9.86156 34.5275C10.1605 34.5407 10.594 34.5675 10.8691 34.4455C11.3925 34.3006 12.3369 33.7143 12.3601 33.0895L12.3908 32.2402C12.5227 30.4277 13.1606 28.5986 14.0277 27.0187C14.2089 26.6885 14.434 26.3827 14.611 26.0526C12.8198 23.7142 11.4312 21.277 10.6609 18.3994Z" fill="black"/>
</svg>
