<svg width="48" height="48" viewBox="0 0 48 48" fill="none" xmlns="http://www.w3.org/2000/svg">
<path d="M24.6563 42.1398C24.3958 41.8787 24.2336 41.5666 23.9826 41.3053C22.6219 43.3849 20.3355 44.0356 18.047 42.9375C17.9033 42.8686 17.0325 42.2966 16.9753 42.3085C16.9243 42.3191 16.7501 42.4898 16.6913 42.5314C14.7509 43.9055 12.1034 42.582 11.9778 40.3043C11.9443 39.6971 12.1398 39.0483 12.2803 38.46L13.1859 34.3765C13.2984 33.8189 13.3797 33.2518 13.5261 32.7015L14.6219 29.075C15.0001 27.7831 15.1225 27.1472 15.21 25.8044L15.2749 25.1638C15.2917 24.8904 15.2823 24.6099 15.2825 24.3357C15.2081 24.6466 14.6327 25.6928 14.4577 25.9908L11.4701 30.5393C11.2883 30.8159 11.129 31.1324 10.9276 31.3922C9.19785 33.6236 5.49069 32.2909 5.91777 29.4253C5.93146 29.3336 5.93957 29.2351 5.97299 29.1482L12.622 11.3711C13.0882 10.3629 13.901 9.71044 14.9295 9.33718C14.9109 7.70888 16.1368 6.88627 17.2946 6.06896C17.5198 5.90996 17.6935 5.70455 17.9318 5.55638C19.2807 4.71755 20.9453 4.62783 22.4867 4.53667L23.9267 4.51761C25.9742 4.51621 28.6668 4.55423 30.4237 5.75269C30.618 5.88521 30.7837 6.07004 30.9679 6.21793C31.6128 6.7359 32.3669 7.21636 32.7095 8.01061L32.907 8.49577C33.0042 8.76886 33.0311 9.06966 33.0513 9.35804L33.6643 9.5971C34.7321 10.1193 35.2379 10.9662 35.6159 12.032L39.7618 23.0453C39.8865 23.3603 40.044 23.6978 40.1371 24.0204L42.0018 29.1091C42.1443 29.46 42.1426 30.0689 42.0603 30.445C41.5962 32.5648 38.7317 33.2011 37.3008 31.608C37.1062 31.3913 36.9577 31.1508 36.7957 30.9106L34.5929 27.6091C33.884 26.5454 33.1795 25.4759 32.7049 24.2822C32.6894 24.6031 32.6999 24.931 32.7323 25.2511L32.9043 27.0321C32.9361 27.3677 32.9988 27.7815 33.1088 28.1044L33.6428 29.8618C33.6738 30.0076 33.7346 30.1591 33.7792 30.3029L34.1252 31.3942C34.3004 31.9294 34.5133 32.4911 34.6257 33.0397C34.7546 33.6684 34.7942 34.3139 34.9318 34.9881L35.2851 36.519C35.4197 37.0458 35.6265 37.8612 35.7073 38.3927L35.82 38.9058C36.4618 40.8769 35.4021 42.8303 33.3047 43.0843L33.1576 43.0991C32.3592 43.1361 31.5809 42.8131 30.9915 42.2858C30.7513 42.4054 30.5346 42.589 30.3048 42.7301C29.6266 43.1464 28.9757 43.3389 28.1953 43.4585L28.0889 43.4737C26.9988 43.5667 25.7415 43.114 24.9347 42.4031L24.6563 42.1398ZM23.3069 5.98421L21.8279 6.06122C20.8238 6.13847 19.459 6.23555 18.6361 6.90305C18.6675 7.21899 18.7731 7.51379 18.8524 7.81969L19.6073 9.79505C19.7439 10.1422 19.9193 10.4825 20.0788 10.8201L22.5486 15.3908C22.9363 16.0527 23.3204 16.6278 23.1868 17.4372L23.1808 17.4753C23.1274 17.8005 22.9657 18.1393 22.7713 18.4036C22.5901 18.6498 22.5245 18.5886 22.6432 18.8903L23.6587 21.7574C23.6905 21.8402 23.7084 21.9315 23.7288 22.0177L23.9034 22.7829C23.9178 22.8574 23.9395 22.8898 23.9883 22.9476L24.1123 22.4942L25.3872 18.6343C24.4434 17.4151 24.6843 16.6198 25.37 15.4395L26.1566 14.1025C27.1179 12.421 28.0264 10.7112 28.7251 8.90236C28.8185 8.66068 29.4179 7.04832 29.331 6.84971C29.0894 6.29733 25.6027 5.99382 24.7956 5.98468L23.3069 5.98421ZM17.3336 7.82344C16.3794 8.54579 16.1872 9.41565 16.6241 10.4936C17.5299 12.7287 18.6532 14.8635 19.9585 16.8931C20.2087 17.2821 20.3451 17.7058 20.8342 17.8257C21.4488 17.805 21.9813 17.3997 21.6448 16.7458C21.4601 16.3871 21.2322 16.0446 21.0335 15.6925L19.0811 12.1169C18.626 11.1888 18.1805 10.2374 17.8173 9.26925L17.3336 7.82344ZM30.6463 7.85072L29.8114 10.1481C29.2479 11.4873 28.5741 12.7998 27.8713 14.0703L26.9326 15.6913C26.7119 16.0562 26.44 16.4437 26.2777 16.8374C26.0154 17.4742 26.5589 17.9062 27.2047 17.8217C27.6527 17.6187 27.8498 17.1329 28.1032 16.7395C28.9394 15.4417 29.7149 14.0627 30.3916 12.674L31.3285 10.5261C31.4767 10.1342 31.6611 9.65846 31.6013 9.23405L31.5977 9.20705C31.5163 8.64872 31.0862 8.17215 30.6463 7.85072ZM15.1606 10.863C14.1393 11.2513 13.8604 12.1814 13.5383 13.1181L7.4279 29.3798C7.37169 29.5502 7.31718 29.7747 7.34287 29.9518L7.34657 29.9801C7.44233 30.6784 8.10046 31.1232 8.78746 31.0233L8.8963 30.9958C9.66402 30.7784 9.91227 30.2363 10.3224 29.6104L11.1017 28.44C12.5439 26.2464 15.2789 22.4954 15.1902 19.7575C15.1732 19.2343 15.0453 18.7802 15.6328 18.5106L15.6624 18.4966C16.0454 18.3299 16.4468 18.5858 16.5945 18.9372L16.6071 18.9668C16.753 19.3164 16.8244 21.1879 16.8398 21.8221C16.8729 23.1801 16.7958 24.5233 16.6873 25.8747L16.5968 26.7653C16.5706 27.0312 16.5751 27.2871 16.5098 27.5494L16.1032 29.1848L15.2889 31.8838C14.8708 33.3624 14.6513 33.8447 15.1345 35.4102L15.5739 36.8941C15.6136 37.0174 15.6558 37.1452 15.7044 37.2653L16.2198 38.5544C16.7848 39.9025 17.4943 41.1555 18.9268 41.725C19.4183 41.9204 20.054 42.0762 20.5829 41.9619C22.1303 41.6277 23.2503 40.3441 23.2547 38.7579L23.2552 27.3156C23.2548 26.3465 23.1929 26.1034 22.992 25.1481C22.7587 24.0381 22.5004 22.9321 22.1556 21.8501L21.2167 19.313C19.8772 19.3017 19.447 18.8292 18.7896 17.7956L18.1963 16.8418C17.1929 15.1554 16.2528 13.4362 15.4903 11.6247C15.4309 11.4837 15.2825 10.8679 15.1606 10.863ZM32.7582 10.8886C32.2131 12.3351 31.5351 13.7112 30.785 15.0617L28.9835 18.0715C28.6725 18.5885 28.4034 18.8932 27.8303 19.1447L27.75 19.1763C27.2685 19.3616 26.8008 19.1927 26.6752 19.488C26.295 20.3821 26.0096 21.2944 25.7337 22.224L24.8506 25.8248C24.7705 26.2325 24.725 26.6051 24.7239 27.0209L24.7236 38.3218C24.7238 38.6387 24.708 38.963 24.7462 39.2779C24.9221 40.729 26.298 41.9681 27.75 41.9953C29.7628 42.033 30.9925 40.3286 31.7189 38.6921C32.2544 37.4858 33.3254 34.76 33.2003 33.5318C33.1415 32.9537 32.8991 32.372 32.7263 31.8204L31.9287 29.2171C31.7334 28.5384 31.5228 27.8663 31.4386 27.1614L31.3169 25.7253C31.2922 25.4505 31.2418 25.1823 31.2284 24.9067L31.2104 22.3208C31.2118 21.6737 31.1565 19.318 31.4384 18.8102C31.7509 18.2472 32.7493 18.3841 32.8149 19.043C32.8656 19.5523 32.7435 20.0871 32.8416 20.5917L33.1249 21.6956L33.776 23.2145C34.3684 24.6465 35.2383 25.9297 36.0956 27.2106L37.9674 30.0164C38.1995 30.3566 38.4257 30.7666 38.8242 30.9334L39.0928 31.0158C40.0022 31.2564 40.8909 30.319 40.5963 29.4222L34.5722 13.3942C34.0838 12.0957 34.1223 11.4711 32.7582 10.8886ZM14.1247 37.024C13.9959 37.4155 13.9197 37.8196 13.8318 38.2218L13.5922 39.2926C13.5261 39.6202 13.3362 39.9999 13.4378 40.335L13.4856 40.5443C13.6473 41.2445 14.515 41.7206 15.1956 41.5662C15.4581 41.5017 15.7228 41.3626 15.951 41.2193C15.2681 39.9818 14.4394 38.4206 14.1247 37.024ZM33.9207 37.1203C33.5592 38.2374 32.7583 40.2442 32.005 41.1872C32.2567 41.3456 32.4844 41.5068 32.7701 41.5988C33.591 41.86 34.6045 40.9417 34.5898 40.1379C34.5852 39.8886 34.4886 39.606 34.43 39.363L34.1313 38.0294C34.061 37.7295 33.9557 37.4259 33.9207 37.1203Z" fill="black"/>
</svg>
