<svg width="48" height="48" viewBox="0 0 48 48" fill="none" xmlns="http://www.w3.org/2000/svg">
<path d="M24.6709 15.632L22.2255 15.5733C21.0403 15.5176 20.1725 15.3865 18.9906 15.1722C18.5296 16.9378 18.0227 18.3687 17.3738 20.0882L16.5229 22.3102C16.4636 22.4557 16.4147 22.546 16.2614 22.6083L16.2307 22.6202C15.7315 22.8213 14.9634 22.3807 14.5096 22.2018C13.3214 21.7335 13.0414 21.8056 13.318 20.4455L14.7211 13.5428C14.7753 13.2027 14.7354 12.8176 14.7441 12.4712C14.8159 9.60802 16.0136 7.27411 18.6025 6.01514C19.7067 5.47824 21.0704 5.07549 21.346 3.71436C21.3725 3.58298 21.392 3.59176 21.304 3.49619C20.3117 2.41801 22.7178 2.27241 23.3853 2.25714L24.5398 2.25293C25.1172 2.25552 26.0154 2.30479 26.541 2.54236C27.2149 2.84694 26.8059 3.27169 26.6496 3.57833C26.6093 3.65744 26.6946 3.96397 26.7308 4.05497C27.5206 6.0368 31.1158 5.5508 32.719 9.57394L33.1019 11.0078C33.3461 11.8597 33.112 12.805 33.3079 13.6528L34.737 20.8005C34.9498 21.6248 34.5482 21.8128 33.9031 22.0534L32.9533 22.4066C31.8704 22.8136 31.6618 22.8864 31.2351 21.7569L29.2781 16.406L29.0535 15.6105C29.0187 15.4669 29.0025 15.3005 28.9512 15.1637C27.8793 15.3513 26.8477 15.5285 25.7612 15.5735L24.6709 15.632ZM23.4302 3.38058C23.1277 3.41413 22.8166 3.43529 22.522 3.51347C22.1985 6.46669 19.8051 6.3511 18.0067 7.72238C16.766 8.66846 16.1075 10.1329 15.9384 11.6599C15.8531 12.4295 15.9047 13.3002 15.7926 14.0191L15.0576 17.679C14.8315 18.7489 14.5607 19.8188 14.4042 20.9022C14.6154 21.0372 15.4289 21.4035 15.698 21.4063L17.3474 16.8262C17.8908 15.2121 18.0544 14.2927 17.8178 12.6241C17.7803 12.3594 17.6678 12.0653 17.697 11.7983C17.7676 11.154 18.4912 11.0857 18.7753 11.607C18.9464 11.921 19.0292 13.57 19.034 13.9463C20.1123 14.2548 21.4959 14.3906 22.6372 14.442L24.6575 14.4489L26.0982 14.3834C27.0392 14.3238 28.0114 14.2283 28.9201 13.9674L29.0673 12.4299C29.108 12.1186 29.1339 11.5796 29.3861 11.3616C29.6431 11.1393 29.9866 11.2045 30.176 11.479L30.2545 11.6213C30.3649 11.8458 30.2435 12.2793 30.1899 12.5153C30.0531 13.1177 29.9394 14.6742 30.1328 15.274L32.2649 21.3286C32.276 21.367 32.2862 21.3904 32.3081 21.4232L33.5966 20.9343L32.2464 14.1229C32.1145 13.2959 32.1538 12.4706 32.0621 11.6406C31.9049 10.2161 31.2191 8.73244 30.1018 7.8136C28.5445 6.53302 25.7545 6.27085 25.5091 3.86133L25.5015 3.52669C25.0049 3.4103 23.9617 3.30539 23.4302 3.38058Z" fill="black"/>
<path d="M24.846 35.6773C24.7693 34.2584 24.7202 33.3473 23.9829 32.0506C23.5744 32.6653 23.1712 34.2036 23.1363 34.8986L23.13 35.6679C23.0954 36.3045 22.9149 36.9964 22.7003 37.5907L22.2634 38.7086C21.8993 39.7524 21.8108 40.8264 21.722 41.9201L21.5522 44.0058C21.5246 44.4378 21.5208 44.8812 21.4668 45.3105C21.3773 46.0205 19.9473 45.8056 19.5015 45.731C17.6487 45.4211 17.6938 43.4826 17.6934 41.9626C17.6932 41.0595 17.7255 40.1761 17.8725 39.2834L18.0422 38.4271C18.2941 37.35 18.1736 37.2662 17.941 36.1616L17.6527 34.6924C17.5717 34.2078 17.5373 33.7064 17.5087 33.216L17.4434 30.5757C17.4444 29.8419 17.4917 29.3095 17.5492 28.5963L17.6407 27.6034C17.767 26.2159 18.0716 24.3893 18.4071 23.0396L18.7367 21.7379C19.076 20.4762 19.1026 19.9858 19.1025 18.6557C19.1025 18.1069 18.9827 17.5298 19.6816 17.3704L27.3919 17.366C28.303 17.3661 28.8907 17.1416 28.8737 18.3512L28.8717 19.5835C28.8731 20.7637 29.2058 21.4018 29.4247 22.5043L29.8208 24.298C29.8672 24.4637 29.8719 24.6301 29.9067 24.7965L30.3275 27.3864L30.5337 29.7964L30.5345 32.2608L30.4336 33.9182C30.3907 34.3674 30.3332 34.9018 30.2114 35.3383L29.8041 37.0073C29.7 37.5492 29.9262 38.637 30.1029 39.2158L30.1342 39.3278C30.4347 40.7358 30.5115 44.0143 29.7662 45.0642C29.2651 45.7702 27.2844 46.0768 26.7573 45.6467C26.449 45.3952 26.4821 45.0285 26.472 44.6692L26.283 42.3346C26.1814 41.1376 26.1257 39.9616 25.748 38.8107L25.3117 37.6632C25.0808 37.0295 24.9016 36.3503 24.846 35.6773ZM20.2231 18.5698C20.2282 19.3503 20.2608 20.1484 20.1188 20.9121C22.1895 21.4017 25.4315 21.3614 27.5674 21.0073L27.8733 20.912C27.818 20.5706 27.766 20.243 27.7597 19.8962L27.7637 18.9645C27.7647 18.8417 27.7858 18.6786 27.7573 18.5605L20.2231 18.5698ZM19.8314 22.0426C19.6592 22.5368 19.5841 23.0562 19.4735 23.5661L18.652 28.7157C18.6229 29.2062 18.5614 29.6941 18.5495 30.1835L18.5596 32.5775C18.5925 33.1568 18.6585 34.0002 18.759 34.539L18.995 35.6172C19.0516 35.8601 19.093 36.109 19.1652 36.3484L19.3257 37.0397C19.4372 37.7259 19.1911 38.4473 19.0547 39.1204C18.7791 40.4809 18.6567 42.2812 18.9329 43.6612C18.9947 43.97 19.136 44.2374 19.249 44.5269L20.4139 44.6313L20.6953 40.5286C20.7917 39.9117 20.8784 39.3015 21.0545 38.6993C21.223 38.1233 21.4889 37.5774 21.6781 37.0075C21.833 36.5411 21.9029 36.0804 21.9993 35.6027C22.0876 35.1651 22.0234 34.699 22.0679 34.2545C22.1698 33.2386 22.5926 32.2623 23.0627 31.3678C23.5893 30.3657 23.4383 30.5432 23.4382 29.3819L23.4373 26.3159C23.4371 25.2573 24.4679 25.4453 24.5335 26.0284C24.577 26.4151 24.5416 26.8406 24.5403 27.2304L24.5382 29.5895L24.5393 30.2619C24.5411 30.5808 24.6122 30.7941 24.7527 31.0778L25.119 31.7804C25.552 32.6916 25.7856 33.5696 25.9233 34.5596C26.0268 35.3029 25.9222 35.8908 26.1811 36.6911L26.8378 38.4723C27.1994 39.5871 27.3003 40.6864 27.3735 41.8496L27.5982 44.6347C27.9117 44.6738 28.4332 44.6344 28.7238 44.538C29.1671 43.6847 29.2279 42.7199 29.2062 41.7741L29.0861 40.2536C29.0489 39.9255 29.0169 39.5976 28.9554 39.2722L28.6815 37.9106C28.4939 36.8162 29.1177 35.3693 29.249 34.1715L29.4359 32.0048C29.4644 31.2384 29.4297 30.4812 29.3837 29.7177L29.3286 28.7298C29.1808 27.0584 28.8982 25.4057 28.5346 23.7689C28.4153 23.2318 28.3506 22.6482 28.1659 22.129L28.1428 22.0767C26.2958 22.526 22.0052 22.5946 20.1423 22.1254C20.0391 22.0994 19.9367 22.0562 19.8314 22.0426Z" fill="black"/>
</svg>
