<svg width="48" height="48" viewBox="0 0 48 48" fill="none" xmlns="http://www.w3.org/2000/svg">
<path d="M18.5266 43.9377C18.0703 43.5678 17.6078 43.1791 17.205 42.7511L16.3164 41.7124C15.5086 40.8257 14.3534 40.3017 13.1767 40.1483C12.383 40.0448 12.0642 40.2559 12.0688 39.0425L12.088 38.3658C12.1654 36.692 12.4711 35.0425 12.8988 33.4251C13.1128 32.6159 13.408 31.819 13.5669 30.9963C14.5599 25.8534 13.1617 22.2459 10.8661 17.8835L8.51082 13.6818C8.3064 13.3501 8.10132 13.0056 7.86263 12.6975C7.3959 12.0951 6.84765 11.6118 6.58862 10.8701C6.04979 9.32729 6.46965 7.74709 7.71334 6.66822C8.09903 6.33367 8.54471 6.12564 9.0002 5.90678L14.9734 2.96423C15.701 2.61162 15.9223 2.36365 16.7598 2.12134L17.1799 2.00841C17.2715 1.98858 17.3716 1.98651 17.4465 1.92487C18.1529 1.34361 18.3221 2.04767 18.7433 2.4545C20.2756 3.93442 22.6771 3.77121 24.6394 3.76859L25.6346 3.76481C26.8794 3.74958 28.5369 3.3389 29.3 2.31384C29.5336 2.00008 29.433 1.84614 29.9227 1.69181C30.3316 1.65513 30.3562 1.9318 30.6671 1.99858L31.4116 2.22169C31.7856 2.34993 32.0836 2.5342 32.4279 2.71796L38.7145 5.82184C39.755 6.34525 40.718 6.85103 41.2456 7.95775L41.4383 8.41431C41.7968 9.37586 41.6733 10.5441 41.1727 11.426C40.8031 12.0773 40.0922 12.7414 39.6296 13.4498L37.7519 16.6369C36.0463 19.7113 34.3992 22.9291 34.1623 26.5111C34.0682 27.9347 34.1077 30.5087 34.6104 31.8379L35.2393 34.0068C35.2996 34.3417 35.4106 34.6819 35.4856 35.0159C35.6464 35.732 35.709 36.4752 35.8392 37.1967C35.9298 37.6991 35.963 38.5014 35.9704 39.0227C35.9859 40.1204 35.7808 40.1181 34.8873 40.128C33.8868 40.1391 32.4881 41.4152 31.8646 42.1443C30.3879 43.8709 29.5365 45.7097 26.8918 46.0597C26.1273 46.1609 25.2512 46.0845 24.4924 45.9887L23.6998 45.8977C23.4333 45.8742 23.4809 45.9296 23.2458 46.0068C21.6247 46.5394 19.6996 44.822 18.5266 43.9377ZM17.206 3.48072L16.8302 3.61115C16.8164 4.17715 16.8038 4.97242 17.0072 5.51537L17.1916 6.02725C17.8988 7.51154 18.8319 7.83348 20.2029 8.59323L21.4755 9.27381C21.8531 9.47514 22.2294 9.68687 22.6291 9.84254L23.1559 10.0067C24.5001 10.3916 25.6502 9.73698 26.8104 9.15259L28.7697 8.13428C30.6519 7.08236 31.0355 5.79672 31.0357 3.61484C30.8633 3.5333 30.6836 3.51488 30.5016 3.46466L30.3851 4.29743C30.1346 5.41206 29.8047 6.46576 28.9866 7.31851C28.7037 7.58678 28.3933 7.86559 28.0314 8.02211L28.0058 8.0342C27.4298 8.29211 27.0073 7.57487 27.2249 7.08315C27.3456 6.81043 27.6303 6.64258 27.8416 6.44659C28.3942 5.93401 28.7925 5.1039 28.9128 4.36474C27.5161 5.21129 25.7045 5.3259 24.1079 5.32693L23.2186 5.32689C21.9656 5.32745 20.6636 5.08506 19.5107 4.60058C19.3055 4.51432 19.1147 4.39595 18.9101 4.31157C19.1079 4.90159 19.5119 5.63504 19.8735 6.13117C20.1959 6.57353 20.8039 6.79431 20.8168 7.4042C20.8323 8.14389 20.1083 8.24453 19.5767 7.85954C18.2948 6.93132 17.6155 5.20539 17.3192 3.71135C17.2979 3.60346 17.3307 3.46818 17.206 3.48072ZM32.3763 4.25653L32.3667 4.29542C32.3231 4.60914 32.3519 4.92465 32.3056 5.23979C32.0376 7.06201 31.1739 8.50234 29.5316 9.34098L26.9929 10.6345C24.679 11.7949 23.3941 11.8512 21.0729 10.6577L19.0393 9.58773C18.6214 9.36001 18.1716 9.15714 17.7769 8.8907C16.4081 7.96665 15.3378 5.95103 15.4666 4.27828L9.91426 7.0315C9.07037 7.44489 8.20243 7.81853 7.87693 8.78931L7.83779 8.93368C7.66801 9.60587 7.74015 10.2272 8.1151 10.8122C8.32492 11.1397 8.65848 11.4041 8.89492 11.7215C10.1967 13.4687 11.3094 15.7088 12.3024 17.637L13.6809 20.4384L14.3635 22.2542C14.5001 22.6952 14.6262 23.1299 14.7347 23.5784L15.0488 25.1838C15.1906 26.1551 15.3665 28.2843 15.218 29.2915C15.1257 30.4874 14.8201 31.9862 14.4438 33.147C15.3093 33.5818 16.8181 33.9409 17.7658 34.1262L20.5707 34.5016C21.085 34.5471 21.5815 34.6077 22.0986 34.6128L25.7919 34.6001C27.4776 34.5257 29.5086 34.2572 31.1252 33.8417L32.3531 33.4779C32.7454 33.3416 33.1289 33.1809 33.5315 33.0772C33.538 32.9925 33.4764 32.8518 33.451 32.769L33.2054 31.9473C33.0997 31.5419 33.0026 31.1315 32.9347 30.7178L32.8476 30.0164C32.6016 28.3053 32.7422 26.0224 33.0529 24.3518C33.4293 22.3281 34.2135 20.4099 35.142 18.5813L38.4012 12.8296C38.6703 12.411 38.9357 11.9893 39.2446 11.5986C39.5948 11.1556 39.983 10.8515 40.1562 10.2942C40.4565 9.32781 40.0558 8.22653 39.2096 7.68151C38.8972 7.48028 38.5472 7.32297 38.2138 7.15947L32.3763 4.25653ZM33.904 34.4131C32.9072 34.7695 31.9037 35.1534 30.8694 35.3861L26.7942 35.9862L22.3551 36.0708L18.9619 35.7799C17.3152 35.5588 15.5707 35.1887 14.0388 34.5257C13.7208 35.5671 13.4764 37.6807 13.4722 38.7293C14.7844 39.0237 15.867 39.3154 16.897 40.2986C16.9793 40.3772 17.0729 40.4891 17.1664 40.5513C17.567 40.9787 17.9015 41.4671 18.313 41.8807C19.2515 42.8237 20.5973 43.8795 21.8012 44.435C22.8591 44.923 22.5543 44.2108 23.1532 44.2254C23.3267 44.2295 23.5108 44.2981 23.6797 44.3368L24.2111 44.437C25.0299 44.5856 25.9811 44.7512 26.8171 44.6259C28.7483 44.3364 29.6519 42.6392 30.7789 41.2706C31.6516 40.2109 33.2585 38.8735 34.5979 38.6838C34.4121 37.2736 34.3306 35.7785 33.904 34.4131Z" fill="black"/>
</svg>
