<svg width="48" height="48" viewBox="0 0 48 48" fill="none" xmlns="http://www.w3.org/2000/svg">
<path d="M14.167 41.5449C12.7542 41.2348 12.3167 41.1311 12.3117 39.401L12.3167 37.9144C12.3085 37.52 12.2387 37.1347 12.2312 36.742C12.1952 34.8482 12.6086 33.0874 13.5825 31.4402L14.5862 29.9039C15.5763 28.2505 16.1578 26.3472 16.3125 24.43C16.3742 23.6657 16.4167 22.0308 16.2417 21.3408C15.8099 21.2615 15.3239 21.2873 14.8829 21.2609L13.0624 21.1054C11.5609 20.9504 9.82309 20.6937 8.97405 19.2722C8.40606 18.3212 8.45533 17.225 8.45669 16.1601C8.45748 15.5547 8.47337 15.0965 8.60416 14.5019C9.13548 12.0863 10.6189 9.56922 13.3284 9.2995C13.5846 9.274 13.8427 9.28314 14.0996 9.2695C15.3176 9.20491 16.3312 8.86666 17.3395 8.17412C17.6423 7.96614 17.61 7.8723 17.6955 7.51464L17.9354 6.42461C18.0283 5.96697 18.0594 5.42416 18.6078 5.30838C19.3292 5.15608 19.983 6.54789 20.2176 7.08466L20.532 7.89822C21.2169 9.50209 22.1403 11.2172 24.1123 11.1751C27.4686 11.1033 27.478 5.56895 29.2034 5.27734C29.669 5.3215 29.853 5.61334 29.9449 6.05772L30.357 7.96112C31.1709 8.67123 32.3728 9.16277 33.4329 9.25084L34.5777 9.292C36.7496 9.44664 38.3537 11.2538 39.0168 13.219L39.3667 14.5307C39.8036 16.849 39.8503 19.8156 37.1506 20.7082C35.978 21.0959 32.8612 21.3416 31.7107 21.2841C31.5758 22.1005 31.5999 22.911 31.6469 23.7318L31.6753 24.6118C31.7287 25.2903 31.9263 26.4349 32.1709 27.0968L32.5087 28.0808C32.7584 28.8227 33.1944 29.6231 33.6322 30.272C33.9143 30.6901 34.2476 31.102 34.4786 31.55C35.3368 33.2145 35.9164 35.1067 35.778 36.9985C35.757 37.2857 35.6917 37.5677 35.691 37.8573L35.6905 39.4969C35.691 41.0644 35.1468 41.3097 33.6155 41.5874L32.3204 41.8209L26.7474 42.5442L22.8584 42.6081C19.9422 42.5335 17.0261 42.1072 14.167 41.5449ZM28.91 7.75436C28.2705 9.52656 27.4704 11.3362 25.6588 12.1973C24.3813 12.8045 22.7438 12.6198 21.6247 11.7654C20.3552 10.7961 19.5763 9.28825 19.0846 7.79683C18.8919 8.57627 18.8382 9.46469 18.8359 10.2634L18.8361 11.5838L18.9839 12.5908C19.3265 14.7308 20.8503 15.742 22.9622 15.9711C25.8744 16.287 28.7036 15.5628 29.0596 12.3162C29.1601 11.3991 29.2388 10.3796 29.1118 9.46192L28.91 7.75436ZM17.5082 9.66775C16.6714 10.1877 15.6393 10.476 14.6974 10.5928C14.2232 10.6516 13.7419 10.5968 13.2685 10.6696C11.2409 10.9811 10.1365 13.2104 9.84667 15.0584C9.75934 15.6152 9.75977 16.1792 9.75677 16.7409C9.74378 19.1541 10.8143 19.48 13.0383 19.7205L15.5515 19.9322C15.3021 19.5068 14.2535 17.3267 14.3845 16.8293C14.5645 16.1462 15.3635 16.0915 15.6507 16.7224L15.9712 17.6381C16.1327 18.0519 16.2879 18.4501 16.4836 18.85L17.1166 20.0423C17.3027 20.3916 17.49 20.7626 17.5432 21.1604L17.645 21.8366C17.7355 22.2858 17.6859 22.8159 17.6854 23.277C17.683 26.1265 16.8914 28.8865 15.293 31.2564C14.0598 33.0846 13.559 34.533 13.5693 36.7491C13.5706 37.0107 13.5599 37.432 13.678 37.6756L18.8251 38.5214L22.4812 38.8141C24.1645 38.879 25.861 38.8019 27.537 38.6561L31.1251 38.2451L34.347 37.6947C34.4439 36.7877 34.4961 35.9804 34.3372 35.0675C34.0936 33.0528 33.1127 32.1007 32.2048 30.5271C30.8259 28.1369 30.3017 25.6947 30.3001 22.9717C30.2997 22.3416 30.26 21.7255 30.4172 21.1102C30.7035 19.99 31.483 19.0248 31.9095 17.9465L32.1929 17.1436C32.2568 16.9473 32.3152 16.7049 32.4388 16.539C32.7709 16.0933 33.4061 16.2311 33.564 16.7342L33.5756 16.7642C33.7346 17.1856 33.1248 18.4828 32.9474 18.8707L32.41 19.9628C32.7914 19.9031 33.1817 19.9023 33.5656 19.8664L35.47 19.6339C37.8589 19.3361 38.2565 18.7206 38.1994 16.429C38.1309 13.6817 37.1187 10.6982 33.8704 10.6143C32.7473 10.5853 31.386 10.3459 30.4636 9.68425C30.4414 10.452 30.4896 11.2322 30.4433 11.9971C30.2753 14.7693 28.7438 16.6221 25.9946 17.245L25.1763 17.3881C24.4678 17.5437 22.4114 17.3564 21.7618 17.1958C18.934 16.4967 17.6522 14.4808 17.5324 11.6759L17.5082 9.66775ZM13.6465 39.0191L13.6653 40.023C13.8586 40.0877 14.0544 40.1152 14.2532 40.1554L18.5977 40.9036L20.3795 41.0954C21.1162 41.1616 21.8557 41.25 22.596 41.2623L23.5353 41.2676C24.3481 41.2678 25.1806 41.3038 25.9912 41.2562L29.6544 40.8686L32.9415 40.3359C33.4178 40.2419 33.9128 40.1855 34.3775 40.0416L34.377 39.048L28.9738 39.9103L26.461 40.1432L21.9772 40.1556L17.2969 39.6633L14.293 39.1377C14.0795 39.0929 13.8571 39.0749 13.6465 39.0191Z" fill="black"/>
</svg>
