<svg width="48" height="48" viewBox="0 0 48 48" fill="none" xmlns="http://www.w3.org/2000/svg">
<path d="M25.8359 41.9819L22.3752 41.9785C21.6226 41.9778 21.3955 41.6672 21.3955 40.9348L21.3971 40.3435L19.4784 40.3084C18.487 40.2021 17.5607 39.6012 16.9448 38.8386C16.1453 37.8485 16.0989 36.7103 16.2812 35.5195L17.4314 27.6703C17.2285 27.5702 16.9528 27.5242 16.735 27.4518L14.2732 26.6501C13.4352 26.3629 12.9894 26.2337 13.3537 25.1432L17.6807 11.8863C17.8404 11.3697 17.852 11.4768 17.7524 10.9456C17.638 10.3363 17.8026 9.59429 18.145 9.08303L18.2825 8.8832C19.1156 7.81609 20.086 7.66215 21.2929 7.51853C21.3932 6.91693 21.4272 6.1367 22.1677 6.03081L24.643 6.02776C25.0453 6.02804 25.8403 5.91957 26.1917 6.08007L26.259 6.11153C26.7757 6.36189 26.7241 6.95195 26.8457 7.41503C28.302 7.44315 29.9016 8.34943 30.1429 9.889C30.2087 10.3087 30.1089 11.3979 30.1744 11.5735L34.106 23.4848C34.1436 23.6551 34.2159 23.833 34.2705 24.0004L34.5937 24.9613C35.0926 26.2926 34.5982 26.3481 33.524 26.7291C32.5554 27.0727 31.5734 27.403 30.5791 27.6648C30.6085 28.3178 30.7037 28.9576 30.7944 29.6026L31.1726 32.0629C31.195 32.198 31.1927 32.3395 31.2191 32.473L31.7346 35.5551C32.1171 37.7818 31.2193 39.6382 28.8656 40.2132C28.1313 40.3926 27.4214 40.3374 26.6694 40.336L26.6827 40.5718C26.7251 41.2133 26.6371 41.9677 25.8359 41.9819ZM22.7675 7.591L22.5985 8.6904C22.5768 8.84279 22.5772 8.99317 22.5292 9.14101L22.5179 9.17645C22.4671 9.32903 22.3845 9.47481 22.3039 9.61332C22.0839 9.99156 22.3061 10.6436 22.4444 11.0241L23.0036 12.7505L23.5195 14.0424C23.5945 14.261 23.7446 14.6761 23.8972 14.8337C24.0996 14.5894 24.2505 14.2258 24.3994 13.9439C25.0209 12.7302 25.6296 11.1796 25.778 9.81184C25.4753 9.16314 25.3714 8.31507 25.3263 7.59587L22.7675 7.591ZM27.0813 8.94521C27.3073 9.67534 27.2662 10.0591 27.1022 10.8022C26.7224 12.524 25.7177 15.2741 24.4293 16.5774C23.5301 17.487 23.1231 16.6011 22.7131 15.8085C22.0342 14.4961 21.4496 13.0367 21.0743 11.6028C20.8374 10.6977 20.5638 9.98851 20.9137 9.08382C20.256 9.17546 19.5655 9.41879 19.2894 10.0668L19.2719 10.1068C19.0969 10.5196 19.3963 11.3544 19.4945 11.8545L19.7357 12.9262C19.8163 13.25 19.8765 13.5999 20.0008 13.9105L20.1591 14.3501C20.3419 14.9505 20.7135 15.584 21.1893 15.9872C22.2189 16.8597 22.5315 16.9865 22.8463 18.5203L22.8552 18.5584C22.939 18.9294 22.8939 19.3783 22.8946 19.7601L22.8959 30.3597L22.8877 40.4194L25.2325 40.4238L25.2273 19.7164C25.2287 18.3543 25.3337 17.5951 26.2909 16.4747C27.2175 15.3903 27.4432 15.0235 27.9705 13.6151C28.5073 12.1812 29.6105 9.34192 27.2738 8.9725L27.0813 8.94521ZM29.4105 13.9896C28.8954 15.1293 28.5359 16.3026 27.6526 17.2239C26.5284 18.3967 26.6896 18.9486 26.6896 20.5545L26.6959 38.838C27.2487 38.8882 28.2876 38.8551 28.7679 38.6729C30.7266 37.9298 30.402 36.5882 30.1246 34.9223L29.8423 33.1144L29.1036 27.9011C29.0532 27.4939 28.8457 27.3397 28.6328 27.0082L27.1874 24.6595C27 24.3406 26.9284 24.0082 27.1687 23.6888C27.6539 23.0439 28.232 23.5237 28.5415 24.0193L29.6774 25.8423C29.7532 25.9653 29.8684 26.235 29.984 26.3073L33.1373 25.2767L29.4105 13.9896ZM18.548 13.969L14.8642 25.2674L18.0622 26.2874L19.2191 24.3428C19.3957 24.0569 19.5956 23.5458 19.9561 23.4478C20.288 23.3576 20.6546 23.4895 20.8142 23.8012L20.8765 23.9288C20.9416 24.0616 20.9195 24.3346 20.8655 24.4703L20.8474 24.5127C20.7337 24.7846 20.5638 25.0062 20.4157 25.2573L19.2892 27.121C19.0036 27.583 18.9554 27.432 18.8972 28.0082L18.1323 33.3735L17.6817 36.0781C17.4349 37.8204 18.6462 38.8337 20.2687 38.8351L21.3746 38.8338C21.4082 38.7975 21.3962 33.6096 21.3962 33.1231L21.3931 18.7981C21.3732 18.4115 21.0778 17.7792 20.7976 17.5459C20.5797 17.3644 20.3141 17.2424 20.1068 17.0494C19.3875 16.3797 18.6607 15.0763 18.5559 14.0615L18.548 13.969Z" fill="black"/>
</svg>
