<svg width="48" height="48" viewBox="0 0 48 48" fill="none" xmlns="http://www.w3.org/2000/svg">
<path d="M28.1894 41.386C27.3922 41.3199 26.5231 41.2853 25.7325 41.4419C24.6995 41.6465 23.4676 41.7802 22.4381 41.5719C22.0975 41.5029 21.7927 41.3949 21.4436 41.3595C19.9851 41.2117 18.4241 41.5413 17.1793 42.3076C15.0609 43.6117 12.5559 42.1007 12.309 39.7664C12.2578 39.2826 12.2528 37.5237 12.326 37.046L12.4114 36.2359C12.5106 35.5137 12.688 34.788 12.911 34.0948L13.474 32.4834C13.9726 31.1823 14.4423 29.9237 14.5074 28.5188C14.5224 28.1953 14.5016 27.8711 14.5293 27.5481L13.7814 29.4237C13.5672 29.9807 13.3136 30.581 12.9381 31.0498C10.4808 34.1172 5.38112 31.5663 6.33394 27.7655C6.43248 27.3723 6.57643 26.9882 6.70641 26.6046L10.9588 13.6087C11.5838 11.5224 12.2918 10.1861 14.5549 9.3633C14.9284 9.2275 15.3263 9.169 15.7145 9.09156L17.3612 8.75327C18.1557 8.57997 17.7231 8.73981 17.8456 7.8655C18.0283 6.56266 19.0372 5.2653 20.4207 5.16527C21.2947 5.00322 21.8592 5.5922 22.5771 5.91602C23.4614 6.31492 24.6408 6.33494 25.5114 5.88255C25.9024 5.67934 26.2292 5.4092 26.6505 5.25677C28.2894 4.66355 29.9016 6.24198 30.1418 7.77859C30.319 8.91255 29.7934 8.61527 31.0778 8.83431L31.8802 8.98764C32.6368 9.12278 33.3708 9.24569 34.0672 9.59327C35.2749 10.1959 36.3144 11.2991 36.7372 12.593L39.3673 20.6928C39.3785 20.7419 39.3708 20.7188 39.3895 20.7666L41.6825 27.8782C42.1107 29.8037 40.8409 31.7833 38.9539 32.2766C37.1956 32.7363 35.4492 31.944 34.6103 30.3556C34.2823 29.7346 33.6729 28.2527 33.508 27.5989C33.437 28.5502 33.5468 29.7074 33.8573 30.6196L34.0292 31.1244C34.2531 31.8701 34.566 32.6018 34.8272 33.3362L35.3785 35.1362C35.7654 36.4861 35.8403 38.4919 35.6867 39.8467C35.456 41.882 33.2432 43.4986 31.2364 42.512C29.9555 41.8823 29.7708 41.5364 28.1894 41.386ZM20.6033 6.56884C20.0089 6.66161 19.6104 7.04584 19.3834 7.58139L19.3653 7.62311C19.2227 7.95592 19.1579 8.36191 19.2453 8.71483L19.4538 9.65561C19.949 11.1138 20.8201 12.4875 22.2331 13.2076C23.915 14.0649 25.8188 13.6099 27.0699 12.1996C28.1408 11.0611 29.8 7.93295 27.9937 6.77223C27.4022 6.39217 27.0798 6.55263 26.5904 6.90456C25.3261 7.81375 23.1014 7.89339 21.7309 7.09417C21.317 6.85277 21.1066 6.60325 20.6033 6.56884ZM18.1049 10.0658L16.4886 10.3992C15.0256 10.6777 13.8164 10.9732 12.9386 12.3319L12.8207 12.5384C12.5538 13.0429 12.4311 13.6088 12.2657 14.1515L8.72035 24.89L8.22137 26.4982C7.96027 27.3055 7.4634 28.3286 7.69993 29.1908L7.74198 29.3391C7.86774 29.8228 8.33883 30.3823 8.75288 30.6241L8.81213 30.6558C9.19763 30.8603 9.56532 30.9601 9.99948 30.9562C11.4752 30.9431 12.0053 30.1386 12.4612 28.9367L15.2986 21.6417L16.1639 18.9983C16.3218 18.5154 16.4507 18.2034 17.0058 18.1077C17.8167 18.3573 17.6486 19.0012 17.4359 19.6634L16.227 23.2097C16.1306 23.468 16.001 23.6895 15.9896 23.9674L15.9648 27.1611L19.1469 27.1801C19.5519 27.1731 19.8771 27.1276 20.0752 27.5736L20.0871 27.5997C20.1422 27.7237 20.16 27.9283 20.1138 28.0578L20.0727 28.1488C19.8273 28.6599 19.4239 28.5731 18.9456 28.5737L16.8486 28.5745C16.5566 28.5745 16.2068 28.5378 15.9225 28.5818L15.7959 29.7304C15.7157 30.2581 15.5843 30.791 15.4187 31.2984L14.6071 33.523C14.5249 33.7585 14.4329 33.9871 14.3686 34.2285C14.7243 34.1259 15.0597 33.9642 15.4098 33.8453C15.9916 33.6476 18.9039 32.6792 19.437 32.9904C19.7445 33.1699 19.8934 33.5985 19.719 33.9214L19.7026 33.9525C19.5997 34.1387 19.4195 34.2382 19.2198 34.29L17.9465 34.5633C16.7927 34.8524 14.9544 35.4473 13.8777 36.0168C13.8406 36.2005 13.7977 36.3874 13.777 36.5738L13.74 37.1762C13.7198 37.4131 13.6859 37.6413 13.685 37.8802C13.6195 38.5049 13.6041 39.3155 13.7812 39.9134C14.0661 40.8754 14.9115 41.576 15.9408 41.347C16.3404 41.2582 16.675 40.8869 17.0367 40.7042C18.3607 40.0352 19.8052 39.9365 21.2582 39.9354L21.259 17.1818C21.2631 17.0613 21.2808 16.9739 21.345 16.8694L21.3664 16.8337C21.4506 16.6967 21.6094 16.5422 21.7738 16.5066C22.6096 16.3255 22.6421 17.1658 22.6426 17.7514L22.6478 39.7651C22.648 39.903 22.633 40.0634 22.6582 40.1977C23.1789 40.2917 23.7335 40.175 24.2546 40.2656L24.2576 16.0655C24.2562 15.7312 24.2687 15.3886 24.2334 15.0562C21.4289 15.1592 19.0719 12.9093 18.2217 10.3668C18.1916 10.2771 18.1972 10.1076 18.1049 10.0658ZM29.9244 10.057C29.3313 11.9834 27.8912 13.9668 25.9461 14.6958C25.8492 14.732 25.7287 14.7452 25.6391 14.7914L25.6504 39.9857C27.4525 39.7646 29.7673 39.8792 31.3292 40.9128C31.5795 41.0784 31.8403 41.2936 32.1442 41.3453L32.1762 41.351C34.7642 41.7943 34.4129 37.9524 34.18 36.357C34.161 36.2267 34.1569 36.0616 34.1124 35.9391C33.2648 35.5275 32.3124 35.2494 31.4025 35.0156L28.0778 34.3196C27.608 34.2435 27.1052 34.2972 26.8816 33.7845L26.8687 33.7567C26.7304 33.4445 26.9066 33.0264 27.2163 32.8966L27.2763 32.8713C27.5371 32.7607 27.8153 32.8526 28.0795 32.8976L28.674 32.992C28.7912 33.0131 28.9109 33.0165 29.028 33.0385L32.9733 33.9869C33.1863 34.054 33.3963 34.1355 33.6128 34.19C33.0094 32.3643 32.1174 30.5261 32.0775 28.5732L31.4938 28.575L27.6752 28.5782C27.5387 28.5784 27.3823 28.5948 27.248 28.571C26.5924 28.4547 26.5374 27.3494 27.2457 27.2034C27.3847 27.1747 27.5414 27.1878 27.6833 27.1876L31.7552 27.1892C31.8375 27.1907 31.9406 27.2095 32.0201 27.1935L32.0343 25.0111C32.033 24.3474 32.1064 24.0618 31.8543 23.4458L30.7376 20.1824C30.6097 19.7922 30.4244 19.3847 30.3487 18.9837L30.3421 18.9512C30.28 18.6274 30.5151 18.273 30.8205 18.1708L30.8482 18.1611C31.2908 18.0137 31.5794 18.3296 31.7087 18.7142L33.1421 22.9212L35.4743 28.7893C35.6172 29.1427 35.7395 29.5265 35.9342 29.8552C37.1983 31.99 40.8795 30.7322 40.3087 28.1788C40.2023 27.7029 40.0236 27.2463 39.8747 26.7827L35.6562 13.8919C35.5106 13.4139 35.4074 12.8963 35.1538 12.4607C34.6455 11.5877 33.6805 10.8528 32.6996 10.6031L29.9244 10.057Z" fill="black"/>
</svg>
