<svg width="48" height="48" viewBox="0 0 48 48" fill="none" xmlns="http://www.w3.org/2000/svg">
<path d="M27.1349 43.1193L16.7883 43.0041C15.4243 42.8783 13.1822 42.6287 13.4208 40.6947L13.4264 40.6521C13.4786 40.2434 13.7195 39.8605 13.8583 39.4755C14.4793 37.7519 14.7053 35.8434 14.9379 34.0376L15.3995 29.0622C15.4434 28.1035 15.5044 27.1346 15.413 26.1758L13.313 34.3357L12.8659 36.3588C12.8055 36.6517 12.789 36.965 12.7029 37.2516C11.6925 40.6112 6.43114 39.5637 6.54983 35.7838C6.56502 35.2998 6.76325 34.6248 6.87636 34.1397L10.4314 18.7615C11.0398 16.4944 12.0374 14.4207 13.5291 12.6119C14.1099 11.9077 14.1899 11.8199 15.0647 11.721L15.7476 11.6168C16.4915 11.4911 17.3112 11.2328 17.9977 10.9297C17.7679 10.3805 17.5942 9.89322 17.5288 9.29767C17.2911 7.13692 18.7845 4.897 21.0184 4.6501C21.5107 4.56115 22.2472 4.94397 22.8086 4.96698L24.0918 4.97205C24.6902 4.97153 25.289 5.00012 25.8751 4.8519C26.2108 4.76701 26.5434 4.6489 26.8947 4.64679C28.3281 4.63815 29.7551 5.98778 30.2007 7.26095L30.2823 7.49973C30.6937 8.56994 30.5257 9.7524 30.0596 10.7728C30.1565 10.8372 30.2996 10.8715 30.4112 10.9056L32.9144 11.6742C33.9271 11.9982 33.8876 11.9357 34.5933 12.7781C35.8483 14.2762 37.1603 16.8394 37.5778 18.792L40.6958 32.3305C40.8061 32.6508 40.9924 33.5501 41.0518 33.9085L41.362 35.2595C41.7902 36.6619 40.8052 38.4316 39.4767 39.0098C38.915 39.2542 38.003 39.415 37.4375 39.2167L36.8674 39.0237C35.4369 38.3995 35.2243 37.3445 34.9603 36.0029L32.9231 27.3568C32.8161 26.9682 32.7276 26.5386 32.5833 26.1641C32.5161 26.6011 32.5127 27.0376 32.5086 27.4785L32.5182 30.5009C32.521 30.704 32.5017 30.9739 32.5551 31.1658C32.6248 31.4166 32.6528 32.2619 32.6838 32.629L33.0392 35.4386C33.0627 35.5768 33.0658 35.723 33.0951 35.8591L33.2811 36.738C33.5423 37.8744 33.9206 39.0079 34.417 40.0644C34.56 40.3689 34.5684 40.6002 34.5675 40.9296C34.5636 42.2872 33.3597 42.7109 32.2113 42.8469L30.5497 42.9949L27.1349 43.1193ZM21.0668 6.1488C18.5103 6.55445 18.2169 10.4938 20.7409 11.5589C21.2724 11.7831 21.7897 11.8221 22.3592 11.8233L26.288 11.8169C26.4379 11.8084 26.5799 11.7826 26.7213 11.7317L27.0654 11.623C29.1647 10.9179 29.7567 8.08909 27.9811 6.64173C26.9505 5.80159 26.7688 6.31145 25.7591 6.43637C25.0448 6.52473 23.1209 6.49811 22.3968 6.43891C21.99 6.40567 21.3883 6.0873 21.0668 6.1488ZM29.1688 11.9965C28.4868 12.7676 27.3613 13.2426 26.3408 13.3094L24.7423 13.3279C24.6973 13.7305 24.724 14.1546 24.7238 14.5606L24.7294 41.7452L30.3224 41.4213L31.9524 41.3286C32.4249 41.2931 32.9457 41.348 33.1474 40.8291C33.0954 40.6125 32.988 40.3995 32.9026 40.1935L32.5338 39.2574C32.2166 38.4049 31.9931 37.5197 31.811 36.6293L31.1259 31.4858C31.1051 31.2536 31.0645 31.0209 31.0525 30.7899L31.0356 28.6698C31.0406 26.7107 31.2519 25.38 31.5837 23.4301L32.9994 13.2255L29.1688 11.9965ZM18.9086 12.1501C18.3995 12.3575 17.9169 12.5951 17.3882 12.7577C16.6072 12.998 15.8091 13.1025 15.0119 13.2629C14.9758 13.3736 15.0295 13.5182 15.0484 13.6286L15.419 16.5515C15.4739 16.9298 15.5236 17.3105 15.5677 17.69L16.4067 23.4607L16.7971 25.7091C16.8831 26.3554 16.8926 26.9292 16.8914 27.5843L16.8776 28.9897L16.2769 34.6716C16.0426 36.469 15.8684 38.3854 15.2031 40.0896L15.0119 40.5229C14.5423 41.4668 15.8926 41.4135 16.5119 41.469C16.8612 41.5002 17.1976 41.5464 17.5499 41.5567L23.2551 41.74L23.2553 13.3342L21.8956 13.3087C20.7901 13.2499 19.7593 12.8638 18.9086 12.1501ZM34.2601 14.7544C34.2016 15.0295 34.1956 15.3145 34.1645 15.5937L33.0761 23.3109C33.0336 23.5971 33.0263 23.6533 33.1583 23.9089L33.8791 25.5257L34.6027 28.0485C34.6101 28.0862 34.6213 28.1183 34.6334 28.1544L34.7897 28.7867C34.7968 28.8256 34.808 28.8582 34.8207 28.8954L35.6614 32.3923C35.7759 32.7742 35.8286 33.1912 35.9181 33.5805L36.4334 35.8419C36.5013 36.152 36.5217 36.4669 36.6205 36.7697C36.9083 37.6518 37.9007 37.9294 38.7142 37.6835C39.582 37.3369 40.071 36.5347 39.9519 35.6095C39.9119 35.2987 39.7944 34.9708 39.7171 34.6658L36.8762 22.2359C36.4947 20.5541 36.1632 18.8501 35.5208 17.2422L34.2601 14.7544ZM13.6962 14.7942C12.8329 16.481 12.2385 17.6031 11.7514 19.4607L8.08109 35.3665C7.98458 35.7253 7.98238 36.1864 8.11175 36.5388L8.12169 36.5667C8.33155 37.147 8.83358 37.5588 9.4168 37.7363C10.0453 37.9134 10.7965 37.6853 11.1504 37.1228L11.175 37.0844C11.4285 36.6759 11.4318 36.0972 11.5224 35.6366L13.7696 26.6022C13.9397 26.0166 14.129 25.4243 14.3712 24.8638L14.8163 23.9401C14.9348 23.7071 14.9667 23.7019 14.9293 23.449L13.7611 15.253C13.7398 15.0999 13.6959 14.9494 13.6962 14.7942Z" fill="black"/>
</svg>
