<svg width="48" height="48" viewBox="0 0 48 48" fill="none" xmlns="http://www.w3.org/2000/svg">
<path d="M26.9542 40.4725L21.585 40.479C20.9787 40.4781 20.3034 40.4121 19.692 40.3678C18.9414 40.3133 18.1743 40.2225 17.437 40.0706C16.1805 39.8117 15.6689 39.3067 15.6663 38.0396L15.6684 35.687C15.6725 34.3134 16.2159 33.1344 16.6644 31.8633C17.1286 30.5477 17.4994 28.9452 17.5491 27.5345C17.568 26.9982 17.5191 26.4435 17.5711 25.9112L14.1265 33.3174C13.9279 33.7301 13.7542 34.1991 13.4595 34.5543C11.3925 37.0465 6.59513 34.4789 7.84271 30.9711C8.08768 30.2823 8.4293 29.6185 8.71922 28.9472L10.9872 23.6448L13.6011 16.6243C14.1196 15.2854 14.7052 13.995 15.8033 13.0169C15.9774 12.8617 15.9991 12.9105 15.9881 12.6816C15.8561 9.93813 18.6147 7.71086 21.1728 7.50939L26.1914 7.50391C27.8452 7.56227 29.8123 8.55733 30.9162 9.73722C31.885 10.7727 32.0253 11.5033 31.9793 12.8334C32.0019 12.8764 32.0149 12.8888 32.056 12.9164C32.7337 13.3709 33.4812 14.5915 33.8428 15.2924L36.4422 22.2064L40.0329 30.7025C40.6601 32.2838 40.2121 34.0309 38.732 34.9512C37.4642 35.7394 35.449 35.7834 34.4755 34.4911C34.2769 34.2274 34.1279 33.9302 33.9788 33.6369L30.4152 25.8651C30.3295 26.3095 30.402 26.8203 30.4338 27.2691L30.474 28.0658C30.5557 29.0179 30.7827 30.4928 31.1402 31.4065L32.165 34.5809C32.4269 35.3894 32.3446 36.3066 32.3448 37.1427L32.3442 38.1261C32.3438 38.3274 32.3685 38.5664 32.3018 38.7583L32.2915 38.7865C31.8871 39.9517 30.813 40.0765 29.7426 40.2181L26.9542 40.4725ZM21.4162 8.87284C19.1331 9.02552 16.4461 11.206 17.5709 13.6446L17.6298 13.7874C18.1873 15.2193 19.9355 16.0091 21.0594 16.899L22.2036 17.8767C22.5789 18.2304 22.8531 18.2314 23.2411 17.7961C22.8584 16.8641 22.3363 15.9516 21.7796 15.1121L20.9389 13.95C20.6319 13.5628 20.2628 13.3209 20.1304 12.8197L20.1181 12.7768C20.0617 12.5708 20.0651 12.3002 20.1215 12.0945L20.1324 12.0535C20.6769 10.0991 24.2116 9.92425 25.7928 10.3935L26.2793 10.5697C26.8272 10.8054 27.5851 11.2242 27.8118 11.8103L27.8839 12.0227C28.1619 12.7337 27.6657 13.3089 27.1996 13.7606C26.7248 14.2208 26.3594 14.7963 26.0164 15.3568C25.891 15.5617 24.765 17.5602 24.7795 17.6757C24.8098 17.9156 25.3417 18.2182 25.5739 18.0925C25.9436 17.8923 26.4345 17.2647 26.8036 16.972C27.2637 16.607 27.7801 16.3242 28.2649 15.9955C29.6346 15.0666 31.4268 12.8433 30.3166 11.1554C29.5467 9.98505 27.9501 9.17388 26.6222 8.91588C25.7704 8.75041 24.874 8.94906 24.0176 8.95225C23.6333 8.95366 23.258 8.90683 22.8747 8.88803L21.4162 8.87284ZM23.6581 11.5137C23.0664 11.5679 21.7671 11.7814 21.4281 12.3627C21.5845 12.6474 21.8226 12.8944 22.0228 13.1492L22.7974 14.1986C23.2801 14.8944 23.5628 15.5166 23.9916 16.1939L24.1662 15.8675C24.5406 15.1944 24.8713 14.5002 25.3421 13.8856L26.2629 12.7615C26.3811 12.6193 26.5343 12.4835 26.6261 12.3236C26.2235 11.8718 25.0191 11.5422 24.4626 11.5109L23.6581 11.5137ZM31.5328 14.2663C30.8132 15.5696 30.3563 16.2491 29.022 17.1166C28.5821 17.4025 28.1152 17.6543 27.7086 17.9884C27.138 18.4573 26.7174 19.1142 25.9926 19.3627L25.9621 19.3737C25.5515 19.518 25.1065 19.4562 24.7026 19.3225L24.7024 38.4603C24.7029 38.6432 24.6869 38.8501 24.7171 39.03L28.03 39.0154C28.3139 39.0041 28.5875 38.9541 28.8689 38.926L30.2699 38.7424C30.4621 38.7075 30.8066 38.6777 30.9413 38.5189C31.1043 38.3268 31.0169 35.6005 30.9541 35.2453C30.7879 34.3048 30.3993 33.3957 30.0788 32.501L29.6601 31.1391C29.4488 30.3575 29.2987 29.5739 29.1937 28.7713C29.12 28.2081 29.0809 27.5114 29.08 26.9408L29.0792 25.4894C29.1074 24.7356 29.3112 22.966 29.5893 22.2393C29.7665 21.7762 30.3853 21.4736 30.7589 21.9336C31.135 22.3968 30.6668 23.0574 30.8923 23.6244L33.777 30.0932L35.1869 33.0192C35.3052 33.2542 35.4232 33.4985 35.592 33.7027C36.4152 34.6988 38.4028 33.9867 38.8748 32.7291C39.1844 31.9042 38.7829 31.1721 38.447 30.4257L35.5178 23.5452L34.1444 19.8975C33.5169 18.1378 32.8493 15.6386 31.5328 14.2663ZM16.3956 14.2953C15.4472 15.4462 14.9709 16.732 14.4803 18.114L13.0289 22.1478L9.61585 30.2485C9.34721 30.8721 8.91905 31.5468 9.00483 32.2536L9.08813 32.6642C9.34177 33.9498 11.6392 34.7528 12.454 33.6251C12.621 33.3941 12.7374 33.1167 12.8632 32.8613L16.4841 25.0342C16.7247 24.4904 17.0094 23.9298 17.1711 23.3574C17.2859 22.9508 16.9597 22.5705 17.1264 22.1693L17.1413 22.1323C17.3903 21.5305 18.1334 21.6238 18.3772 22.1596L18.4005 22.2042C18.6749 22.7448 18.8678 24.9472 18.9135 25.5612L18.9109 27.5999C18.8398 29.0995 18.5121 30.6558 18.0257 32.0697L17.542 33.4241C16.9065 35.1557 16.9799 35.7397 16.9835 37.5787C16.9839 37.7725 16.9263 38.3687 17.0534 38.4902C17.7195 39.1271 22.3103 38.9729 23.2963 39.0357L23.2808 19.3936C21.6741 19.722 21.3594 18.8411 20.2585 17.9866C18.7285 16.799 17.3261 16.315 16.3956 14.2953Z" fill="black"/>
</svg>
