<svg width="48" height="48" viewBox="0 0 48 48" fill="none" xmlns="http://www.w3.org/2000/svg">
<path d="M32.2288 3.32059L31.9639 3.12274C31.1737 2.59375 30.2408 2.44086 29.3181 2.62694C28.8193 2.72753 28.9867 2.72595 28.8242 3.22458C27.5014 7.28265 21.4412 6.91679 20.6635 2.70249C18.0488 1.89755 15.394 4.14577 16.2315 6.72409C16.7037 8.17777 17.9443 9.18184 19.4717 9.3249C19.8675 9.36193 20.2469 9.20241 20.6183 9.42352L20.7238 9.48887C21.2175 9.81854 21.6043 10.8612 21.795 11.3903L22.0316 12.152C22.1383 12.4541 22.2475 12.8103 22.3009 13.1264L22.4584 13.8402C22.6954 15.0749 22.8124 16.2766 22.8207 17.5296L22.8109 35.3866C22.8034 35.5867 22.7642 35.7837 22.7546 35.9817L22.5936 38.2848C22.5577 38.768 22.4738 39.2372 22.405 39.716L22.0135 42.1053L21.472 44.4137C21.0144 46.3049 20.3141 47.132 18.4201 46.3921C16.8615 45.7834 13.6905 43.6688 13.4357 41.9645C13.3745 41.555 13.4528 41.1077 13.487 40.6997L14.3665 30.9666L13.3395 30.8118C12.542 30.662 11.2293 30.3546 10.6085 29.7875C9.77023 29.0217 9.8553 28.3981 9.92074 27.4026L10.0138 25.9014C10.2176 22.7783 10.6667 19.6872 11.1494 16.5974C11.7048 13.0426 12.2754 9.19318 14.1594 6.05223L14.5832 5.41355C14.9025 4.96623 14.8305 4.98141 14.9902 4.47527C15.6126 2.50321 17.3918 1.26822 19.4476 1.20599C20.1067 1.16832 21.6852 1.31585 21.8895 2.1548C21.924 2.29645 21.9236 2.44584 21.9585 2.58858C22.6344 5.35885 26.6296 5.54237 27.6043 2.78247C27.9229 1.88059 27.8023 1.61019 28.9921 1.3134C31.2149 0.758886 33.4577 2.0217 34.3524 4.08006C34.695 4.86835 34.7502 5.65688 34.6834 6.50668C34.679 6.56166 34.6621 6.64266 34.6817 6.69362L35.7341 9.19534L36.9212 12.957C36.9771 13.2113 37.0473 13.4986 37.1415 13.7412L37.2963 14.269C37.3187 14.3829 37.3662 14.4854 37.3893 14.5988L37.765 15.956C37.8354 16.3056 37.9792 16.6433 38.0442 16.9918L38.3254 18.0934C38.4199 18.6095 38.6127 19.1188 38.7022 19.6371L38.7987 20.0504C38.8516 20.3953 38.9784 20.7408 39.0564 21.081L39.2755 22.142C39.3213 22.3733 39.3832 22.6026 39.4311 22.8333L40.3146 27.7848C40.3556 28.0644 40.401 28.3581 40.3248 28.6376L40.2893 28.7809C39.5941 30.9832 36.4768 31.6727 34.4742 31.0463L35.5101 41.3511C35.5621 41.6846 35.5235 41.9872 35.362 42.2835L35.344 42.316C35.1836 42.6099 34.9451 42.8428 34.7001 43.0667L33.7406 43.8615C32.2399 45.0151 30.622 45.9787 28.7893 46.5092C26.9637 47.0378 26.4961 45.93 26.054 44.3252C25.2074 41.2523 25.2401 38.6538 25.2399 35.5122L25.24 18.1223C25.2379 14.7198 25.5137 12.5267 27.3878 9.60034C27.6207 9.23663 27.9118 8.67484 28.4478 8.85409L28.4764 8.86449C29.1637 9.10529 29.059 9.35659 30.1031 9.29129C33.0966 9.10421 34.5234 5.31437 32.2288 3.32059ZM15.0107 7.18998C14.3028 8.6033 13.7888 10.0449 13.4084 11.5778L12.8142 14.566L11.8128 20.9293L11.3434 25.3004L11.1605 27.9493C11.1524 28.0925 11.1351 28.278 11.1804 28.4155L11.2214 28.5121C11.459 29.0481 13.8203 29.6975 14.468 29.6236L14.5563 27.9911C14.5664 27.8474 14.596 27.7057 14.6083 27.5619L15.1308 20.551C15.1541 20.2576 15.1151 19.9338 15.1145 19.6361C15.1128 18.7578 14.9896 14.9203 16.0897 14.7394L16.1194 14.7344C16.7118 14.6439 16.9017 15.2401 16.772 15.7022C16.2325 17.6239 16.544 19.0269 16.399 20.9161L15.6211 31.41C15.6011 31.6764 15.5621 31.9368 15.5599 32.2048L14.8587 39.9537C14.7974 40.5172 14.7061 41.0942 14.6928 41.6611C14.6718 42.5538 17.4869 44.4567 18.1757 44.8128C18.7914 45.131 19.742 45.7811 20.0379 44.7653C20.3434 43.7166 20.5684 42.6505 20.7731 41.5787L21.272 38.3785L21.5027 34.6102L21.4957 16.6059C21.4816 16.3459 21.4346 16.0853 21.4043 15.8267L21.275 14.6598C21.1427 13.7406 20.9015 12.8075 20.5887 11.9341L20.1658 10.8511C20.0564 10.5409 19.7339 10.6779 19.38 10.638C17.3591 10.41 15.653 9.13271 15.0107 7.18998ZM33.9593 8.23416C32.8309 10.1055 30.6196 11.1398 28.4798 10.3689C28.4186 10.3469 28.3452 10.5236 28.3149 10.5734C27.4337 12.0179 26.7434 13.6554 26.6167 15.3591L26.5895 16.2249C26.5819 16.4002 26.5483 16.5728 26.5421 16.7485L26.5398 38.4023C26.5466 38.6209 26.5882 38.8355 26.5962 39.0544L26.6074 39.8618C26.6599 40.7602 26.8126 41.9626 27.0116 42.8353L27.2446 43.8038C27.2974 44.0152 27.3437 44.2336 27.4223 44.4371L27.4739 44.6034C27.4852 44.6488 27.4999 44.6868 27.5172 44.7301L27.6533 45.1039C27.8716 45.6836 29.7639 44.7665 30.1067 44.5953C31.3501 43.9744 32.4558 43.2185 33.5203 42.3272L34.0083 41.8942C34.0856 41.8218 34.1817 41.7466 34.2436 41.6605L33.1184 30.8044C33.1052 30.4684 33.063 30.1366 33.0283 29.8027L32.5519 24.1858C32.4856 23.1346 32.3322 22.0261 32.4589 20.9863C32.5302 20.4001 32.7185 19.8335 32.8092 19.2504C32.9657 18.2428 32.8143 16.9503 32.3515 16.0479C32.2376 15.8258 32.0489 15.6167 31.9995 15.368C31.8938 14.8352 32.5344 14.341 32.9927 14.6807C33.5689 15.1078 33.9324 16.4489 34.0429 17.1957C34.1961 18.2322 34.1828 19.3601 33.9094 20.3785C33.5906 21.5668 33.7601 22.3914 33.8186 23.5309L34.2816 28.9096C34.3229 29.6263 34.2199 29.6373 35.1093 29.8321C36.4702 30.1301 37.9562 29.9001 38.8488 28.7216C38.9284 28.6164 39.1009 28.4176 39.0819 28.2859C38.4731 24.0558 37.4996 19.8834 36.361 15.765L34.5068 9.60962L34.0913 8.52596C34.0515 8.42663 33.9961 8.3341 33.9593 8.23416Z" fill="black"/>
</svg>
