<svg width="48" height="48" viewBox="0 0 48 48" fill="none" xmlns="http://www.w3.org/2000/svg">
<path d="M36.1274 37.8346L36.5621 39.105C36.8171 39.8742 37.0615 40.8503 37.1765 41.6555L37.2517 42.3405C37.478 43.7605 36.3956 45.2052 35.0954 45.6618C34.6246 45.8271 34.1657 45.8425 33.6733 45.8684L28.0465 46.2745C27.379 46.3279 26.519 46.3692 25.8398 46.3764L22.6083 46.3771L14.3259 45.8698C14.0605 45.8479 13.789 45.8532 13.5256 45.8147C12.0055 45.5927 10.7009 44.1582 10.7111 42.6132C10.7221 40.9663 11.7076 38.0719 12.3816 36.6388L13.1102 35.2176C13.3215 34.8339 13.5459 34.4564 13.7323 34.0596C14.5338 32.3531 14.2043 30.5103 13.5862 28.8083C12.6696 26.2843 10.4084 22.6715 7.62226 21.9395C6.94468 21.7615 6.55763 21.7767 6.28234 20.9288L6.27132 20.8941C5.82095 19.5428 6.68959 18.13 7.42037 17.0764C9.27076 14.4085 11.3623 7.66022 10.7707 4.25067C10.659 3.607 10.3713 2.4931 11.2938 2.23005C11.5369 2.16072 11.8311 2.22141 12.0851 2.18765C12.9462 2.07323 13.9794 1.6348 14.7326 1.58105C15.5602 1.62198 15.5876 2.24201 15.5763 2.93413L15.5769 4.20657C15.6096 5.43324 15.8523 6.79646 16.2342 7.96177L16.3258 8.25113C17.1179 10.4433 17.4187 11.1661 19.3591 12.3552L23.8246 15.09C24.2071 14.9234 24.5644 14.7138 24.9286 14.5113L28.3888 12.5301C28.8728 12.2417 29.3575 11.9696 29.7784 11.5902C31.5922 9.95532 32.3161 6.3548 32.4011 4.03468L32.4052 2.98299C32.3913 2.44363 32.3123 1.74642 33.0624 1.59209C33.4104 1.52046 35.2493 2.07425 35.763 2.16368C36.3177 2.26027 37.1192 2.02836 37.3029 2.9153L37.3126 2.96438C37.4812 3.55544 37.1481 4.43426 37.1069 5.06785C36.9893 6.87685 37.5642 9.47508 38.0626 11.2261L38.7167 13.3238C39.0769 14.447 39.7009 15.7084 40.3324 16.6859C40.8338 17.462 41.4512 18.166 41.6656 19.0877C41.872 19.9758 42.0007 21.4712 40.9352 21.829C40.6537 21.9236 40.3529 21.9486 40.0739 22.0574C37.8461 22.926 36.0514 25.2995 35.0357 27.3569L34.6088 28.3198C34.0674 29.5546 33.727 30.97 33.8121 32.3231C33.8776 33.3644 34.2504 34.0632 34.7505 34.9719L35.3438 36.0816C35.5581 36.4658 35.7567 36.9192 35.9188 37.33L36.1274 37.8346ZM33.8539 3.2212L33.8227 4.76893C33.8033 5.16474 33.7588 5.55783 33.6994 5.94989L33.439 7.40578C33.0199 9.39966 32.0108 11.7742 30.384 13.0175C29.7311 13.5166 29.0047 13.9017 28.2912 14.3045L25.4012 15.9594C25.6805 16.1596 25.9973 16.3184 26.2913 16.4975L28.5424 17.9086C30.2836 19.0987 32.3704 21.7964 33.5689 23.5856L34.5816 25.1266C35.7355 23.249 37.7875 21.1566 39.9739 20.5217C40.0344 20.5042 40.3007 20.4535 40.3346 20.4216C40.3647 20.3932 40.3104 19.708 40.2883 19.6174C40.0562 18.6643 39.3551 17.9378 38.8636 17.1089C37.3988 14.6386 36.4749 11.4288 35.9488 8.59332L35.7433 7.23C35.6557 6.47269 35.5152 4.95113 35.7039 4.2449L35.813 3.637C35.1531 3.53051 34.4882 3.44645 33.8539 3.2212ZM14.0412 3.26907C13.4009 3.40605 12.7993 3.57918 12.1431 3.64606C12.5115 5.5575 12.3056 7.32525 11.9076 9.21047L11.0153 12.6678C10.4815 14.4252 9.8146 16.1749 8.77712 17.7031L8.22502 18.474C7.8264 19.0852 7.69613 19.6764 7.66201 20.3955C8.16329 20.5491 8.66241 20.7138 9.12751 20.9598C10.9854 21.9423 12.8693 23.9534 13.8454 25.8554L14.4639 27.0931L15.2953 29.2723L27.2459 29.266L32.7065 29.2722L33.2554 27.7365C33.4059 27.3683 33.5695 26.9967 33.7966 26.6688C32.7783 24.9217 31.5878 23.3031 30.3244 21.7282C29.0649 20.1582 28.469 19.5857 26.772 18.5267L19.7058 14.2794C18.6442 13.6295 17.5078 13.0639 16.6797 12.1093C15.3038 10.5232 14.358 7.38136 14.1771 5.24621C14.1513 4.9411 14.1879 3.29025 14.0983 3.2557L14.0412 3.26907ZM15.7237 30.731L15.6447 30.7412C15.5883 30.9236 15.6933 32.4261 15.621 32.9115L15.5551 33.24L32.3081 33.2332L32.4256 33.2333C32.4104 33.0358 32.3503 32.8373 32.334 32.6363C32.283 32.0114 32.3212 31.3658 32.3889 30.7443L15.7237 30.731ZM15.0788 34.7274C14.4995 35.6207 13.7921 37.011 13.3959 37.9707C13.0453 38.82 12.0333 41.9612 12.2024 42.8173L12.2149 42.8706C12.2371 42.9614 12.2444 43.0575 12.2735 43.1465C12.6494 44.2959 13.5636 44.332 14.5117 44.3996L20.1609 44.7541C20.3848 44.7674 20.6046 44.8091 20.8294 44.8181L27.2428 44.8168C27.4658 44.8064 27.6809 44.7585 27.9021 44.7475L28.8048 44.7218C28.9316 44.7164 29.0938 44.7214 29.2146 44.6907L29.2498 44.679C29.3622 44.6419 29.5164 44.6506 29.6365 44.6461L30.5205 44.6157C31.203 44.57 31.8967 44.4593 32.5821 44.4549L33.5974 44.3916C33.8693 44.3671 34.1373 44.3806 34.4036 44.3062C35.6028 43.9712 35.9059 43.0842 35.7458 41.9918C35.4672 40.0898 34.7874 38.2247 33.9078 36.5236C33.597 35.9224 33.2381 35.3511 32.9623 34.7329L15.0788 34.7274Z" fill="black"/>
</svg>
