<svg width="48" height="48" viewBox="0 0 48 48" fill="none" xmlns="http://www.w3.org/2000/svg">
<path d="M33.4876 34.3457C33.4421 34.4965 33.1395 35.061 33.1933 35.1918C33.4827 35.8954 33.6224 35.9073 33.6257 36.6932C33.6266 36.8921 33.6562 37.1585 33.5928 37.3477L33.5848 37.3708C33.3407 38.2513 32.6772 38.9288 31.7192 38.9758L16.9369 38.9811C15.7382 38.982 14.91 38.8121 14.4222 37.4794C14.3407 37.2567 14.3068 36.2264 14.4012 35.9696C14.5838 35.4726 14.8877 35.4038 14.7265 34.9635L13.8446 32.4769C13.5704 31.4776 13.4012 30.4552 13.2107 29.4382L12.3662 25.0602C12.2507 24.4679 12.105 23.8601 12.0325 23.2614C11.8479 21.7386 12.245 21.4138 13.411 20.822C15.7692 19.6251 16.9918 16.8294 16.8644 14.2746C16.8354 13.6929 16.7312 13.1088 16.618 12.5388C16.5218 12.0538 16.5723 11.4844 16.5718 10.9871C16.5709 10.2005 16.374 9.22423 17.3982 9.02904L18.8612 9.02266C19.0957 9.02266 19.5139 8.97007 19.7201 9.07296L19.8097 9.12063C20.3655 9.44524 20.2268 10.2512 20.2268 10.7824C20.2269 11.8249 20.1648 12.9289 20.5453 13.9241L20.7579 14.5124C21.37 15.9514 22.3072 16.4298 23.5821 17.1452C23.9955 17.3772 23.8998 17.4166 24.3188 17.1999L25.1488 16.7316C27.7578 15.2373 27.769 13.0376 27.7739 10.399C27.7751 9.70371 27.7732 9.02538 28.7194 9.02205L29.3964 9.02323C29.8138 9.02435 30.5387 8.90487 30.9082 9.10146L30.9378 9.11763C31.5891 9.46094 31.4106 10.3342 31.4095 10.935C31.4077 11.9547 31.3903 12.4079 31.2235 13.4059C30.7408 16.2945 31.9879 19.594 34.7356 20.8954C34.8832 20.9653 35.0417 21.022 35.181 21.1078C36.4129 21.8674 35.9457 23.4727 35.7328 24.6208L35.1814 27.5036C34.7398 29.7345 34.4632 32.2741 33.4876 34.3457ZM29.139 10.4061L29.1347 10.4411C29.0548 11.5233 29.1871 12.1856 28.9698 13.3239C28.4042 16.2881 27.2338 17.261 24.7269 18.5383C24.0877 18.864 24.0009 18.9099 23.3716 18.5974C21.0381 17.439 19.7642 16.4334 19.1103 13.7524C18.9846 13.2369 18.8837 12.6757 18.8672 12.1453L18.8642 10.9477C18.8641 10.7771 18.8828 10.5831 18.8564 10.4166L18.1943 10.4129C18.1007 10.4148 17.9793 10.4042 17.8912 10.4306L17.9005 11.5747C17.9045 12.1312 17.999 12.6477 18.0948 13.195C18.7174 16.7506 16.9471 20.7926 13.5656 22.2938C13.2167 22.4487 13.3113 22.5658 13.3607 22.9099C13.4099 23.252 13.4373 23.6123 13.521 23.9486L14.5242 29.2364C14.5403 29.3049 14.5485 29.3735 14.568 29.4413L15.2729 32.5623C15.3086 32.7182 15.3851 32.8815 15.4365 33.0349L15.7992 33.9748C15.8567 34.1055 15.8771 34.2144 15.9623 34.3331L16.6 34.3252L17.9147 34.3177C17.9068 33.8076 17.796 32.9189 18.1756 32.5308C18.5332 32.1651 18.972 32.4301 19.1705 32.7901C19.2919 33.0103 19.2152 34.02 19.2441 34.3248L23.3199 34.3206L23.3253 33.5402C23.3253 33.2701 23.2853 32.9115 23.442 32.6787L23.463 32.6471C23.7993 32.1552 24.3904 32.3077 24.5628 32.8239C24.7139 33.2766 24.5877 33.8485 24.6357 34.3268L28.7333 34.3251C28.7028 34.0099 28.6512 33.2622 28.7248 32.9498C28.8652 32.3544 29.5776 32.1192 29.9095 32.6716L29.9328 32.7091C30.1475 33.0777 30.0362 33.882 30.0523 34.3272L31.6 34.3282C31.7422 34.3317 31.8913 34.3903 32.0263 34.3834C32.3311 33.5542 32.6792 32.77 32.9128 31.9132C33.1805 30.9317 33.2957 29.9199 33.4992 28.9258L34.6352 22.9782C34.7272 22.2698 34.7661 22.4663 34.1284 22.1471C30.9385 20.5506 29.386 16.8324 29.8458 13.4002C29.9091 12.9277 30.0334 12.4634 30.0759 11.9887C30.1223 11.4705 30.0952 10.9322 30.0945 10.4116L29.139 10.4061ZM20.4202 35.6685C19.8752 35.6683 16.4108 35.6127 16.2242 35.7253C15.971 35.878 15.814 36.1271 15.7579 36.4128L15.7435 36.5038C15.7036 36.7643 15.7123 36.9784 15.8195 37.2184L15.8318 37.2466C15.8977 37.3919 16.0741 37.507 16.2308 37.5286L16.255 37.5326C16.5061 37.5695 16.8217 37.5247 17.0807 37.5245H27.6214L30.4437 37.5249C31.345 37.5254 32.4945 37.8285 32.2559 36.4333L32.2487 36.3895C32.1576 36.0041 31.8349 35.6847 31.435 35.6703L20.4202 35.6685Z" fill="black"/>
<path d="M14.8145 23.9869C14.097 23.8146 13.8281 23.0227 14.5629 22.6203L14.6015 22.5994C14.9285 22.4204 15.4474 22.5217 15.8074 22.5215L18.001 22.5335L18.0078 21.8236C18.0265 20.6575 19.2816 20.7034 19.2899 21.9589L19.2948 22.5344L21.8023 22.522C22.2894 22.522 22.8062 22.4895 23.2906 22.5416L23.3179 22.5448C23.3243 22.2131 23.2999 21.8562 23.3445 21.5286L23.3499 21.492C23.363 21.3941 23.3783 21.3491 23.4441 21.2729L23.5048 21.2006C23.7194 20.9572 24.1654 20.9114 24.4069 21.1377C24.7289 21.4396 24.6156 22.1206 24.6342 22.5237L28.6881 22.5272C28.8257 21.9962 28.4634 21.1802 29.2364 20.9874L29.2618 20.9815C29.5258 20.9623 29.7969 21.0312 29.8929 21.3093L29.9072 21.3514C30.0567 21.6709 29.9598 22.1824 29.9916 22.5349L31.6463 22.5251C31.9075 22.5257 32.2998 22.4764 32.5372 22.5913L32.5781 22.6118C33.2234 22.9299 33.0684 23.8976 32.3835 23.9865C32.206 24.0095 32.0027 23.9929 31.8224 23.9925L14.8145 23.9869Z" fill="black"/>
<path d="M32.5678 29.9053C32.2625 30.0614 31.7835 29.9796 31.4504 29.9797L15.7752 29.9742C14.7091 29.9172 14.7834 28.7138 15.5742 28.5432C15.8094 28.4925 16.0997 28.5245 16.3432 28.5243L18.0002 28.5368L18.0019 27.8319C18.0071 27.4091 18.0578 27.088 18.5348 27.0044C19.3713 26.9794 19.2916 27.9784 19.2946 28.5373L23.334 28.5378C23.3406 28.1693 23.243 27.588 23.4447 27.2731C23.6289 26.9854 24.0917 26.9081 24.3661 27.1059C24.7611 27.3906 24.5838 28.1063 24.6476 28.5296L28.6901 28.5341C28.735 28.2461 28.6235 27.6106 28.7624 27.3827L28.7877 27.3458C28.9821 27.058 29.2805 26.9029 29.627 27.0349C30.1192 27.2224 29.9772 28.1152 29.9945 28.5185C30.1174 28.5698 30.372 28.5326 30.5125 28.5304L31.712 28.5245C32.1768 28.5237 32.7109 28.4275 32.8986 28.978L32.9072 29.0038C33.0211 29.3316 32.931 29.6693 32.6308 29.8659L32.5678 29.9053Z" fill="black"/>
</svg>
