<svg width="48" height="48" viewBox="0 0 48 48" fill="none" xmlns="http://www.w3.org/2000/svg">
<path d="M30.0351 43.4805L17.3555 43.4807C15.9099 43.4809 14.6233 43.6073 13.8138 42.023C13.6432 41.6889 13.5664 41.3206 13.4901 40.9567L13.1576 39.3255C13.1109 39.0758 13.0271 39.0979 12.8216 38.9498C11.7651 38.1888 11.843 37.12 11.8435 35.9744L11.8457 32.7429C11.8428 31.8901 11.7304 31.2142 12.8079 31.2933C12.938 30.5255 13.1146 29.7699 13.3126 29.0168C13.931 26.6649 14.0588 25.9055 13.026 23.7504L11.3958 20.3168C10.957 19.3907 11.0311 19.0388 11.6118 18.316C12.8152 16.8184 12.779 14.6445 12.9728 12.833L13.0813 11.7264C13.1888 10.7139 13.2401 11.0973 12.8789 10.2293C12.3552 8.9708 12.679 7.73949 13.9372 7.14844C14.2773 6.98869 14.7034 6.91125 15.0683 6.81853L19.4363 5.55741C20.2023 5.4803 20.1391 5.88563 20.6427 6.20475C21.2335 6.57914 22.0268 6.82224 22.7152 6.92841L23.3089 6.99056C24.6096 7.18303 26.1534 6.88692 27.2806 6.21028C28.0443 5.75185 27.8429 5.3865 28.927 5.69583L33.5273 6.97181C34.1992 7.15702 34.753 7.47103 35.0976 8.10352C35.6569 9.12999 35.2842 9.8167 34.8896 10.7734C34.7976 10.9965 34.8951 11.4294 34.9189 11.6722L35.0273 12.829C35.1944 14.6381 35.1483 16.6999 36.3156 18.2089C36.6963 18.7012 36.9978 19.0843 36.8096 19.7626L36.7974 19.8043C36.7288 20.0454 36.6116 20.2634 36.5055 20.4891L35.03 23.638C34.888 23.952 34.7221 24.2535 34.5935 24.5738C33.8178 26.5056 34.3678 27.6988 34.838 29.6127L35.1876 31.2667C35.6006 31.2596 35.8235 31.2923 36.0505 31.6637L36.0761 31.7012C36.1298 31.7838 36.1524 31.9471 36.1573 32.0445L36.1662 36.4105C36.1661 36.7632 36.2036 37.1581 36.1149 37.501L36.0915 37.5996C35.9985 38.1167 35.6889 38.5835 35.2713 38.8942C34.9006 39.1699 34.9598 38.9937 34.8608 39.4686L34.6088 40.551C34.1188 42.7014 33.5776 43.4784 31.2211 43.4809L30.0351 43.4805ZM19.2496 7.11291L14.6246 8.41988C13.2369 8.87358 14.6926 10.5729 15.1708 11.2213C16.0023 12.3486 16.9601 13.3621 17.9474 14.3523L19.6875 16.0616L22.5281 18.4582L19.3705 7.43672C19.3414 7.3327 19.3454 7.19063 19.2582 7.1167L19.2496 7.11291ZM28.753 7.11591L25.4639 18.4752L28.3043 16.0424L29.661 14.7389C30.546 13.8669 33.7537 10.553 33.9637 9.30431L33.9703 9.26658C34.1049 8.43853 33.0714 8.3041 32.4947 8.15325L28.753 7.11591ZM20.9493 7.90978L21.2254 8.9176C21.2613 9.03333 21.2778 9.15085 21.3198 9.26517L22.0416 11.7828C22.0492 11.8178 22.0596 11.8464 22.0713 11.8798L22.1351 12.127C22.2168 12.4754 22.3203 12.8708 22.4453 13.2041L22.7894 14.4477C22.797 14.4838 22.8087 14.5148 22.8208 14.5494L22.9756 15.1196C22.9831 15.1543 22.995 15.1853 23.0073 15.2183L23.2065 15.8668C23.3353 16.2408 23.4358 16.6915 23.5693 17.0358L23.7576 17.6815C23.84 17.9035 23.8713 18.1252 23.9913 18.3345L24.8283 15.5912L27.0396 7.9222C25.5565 8.4586 23.653 8.62992 22.0974 8.26214L21.3617 8.05303C21.2603 8.01919 21.0436 7.90261 20.9493 7.90978ZM33.5772 12.5483L32.885 13.441L29.5571 16.8482L27.4218 18.7275C25.1751 20.6103 22.6842 22.3722 22.6842 25.5608L22.698 37.4732C22.7068 38.0771 22.6061 38.6864 23.3437 38.8157C24.0888 38.9463 24.8318 38.6971 25.5758 38.6407L31.0777 38.0876C31.7984 37.9921 31.4033 38.0379 31.3405 37.4832C31.3189 37.2935 31.3316 37.0935 31.3314 36.9022L31.3313 33.0385C31.3323 32.8726 31.3266 32.7561 31.4156 32.6133L31.4329 32.5848C31.5391 32.4143 31.6806 32.3183 31.875 32.2736L33.8764 31.7606L33.451 29.7767C33.244 28.9311 32.9484 28.0896 32.8437 27.2223C32.6189 25.3607 33.2674 24.0595 34.058 22.4132L35.3292 19.6684C35.4422 19.4138 35.4846 19.4593 35.3271 19.2377L34.9279 18.6719C34.2044 17.5894 33.973 16.242 33.8274 14.9747L33.68 13.652C33.6455 13.2832 33.6368 12.9149 33.5772 12.5483ZM14.4041 12.5557L14.1595 14.9762C14.0079 16.2323 13.794 17.5324 13.1013 18.6207C12.7453 19.1801 12.4206 19.1505 12.646 19.652L14.1574 22.8512C15.6443 26.0214 15.3279 26.7863 14.5388 29.8575L14.1314 31.784L15.7234 32.1972C15.9494 32.2567 16.424 32.294 16.5576 32.5211L16.5955 32.6012C16.7234 32.8626 16.6673 33.1698 16.6672 33.4538L16.666 36.4039C16.6667 36.864 16.7156 37.3384 16.5826 37.7853L16.4938 38.046L20.0568 38.4087L21.3101 38.4174C21.2793 38.1175 21.3002 37.7999 21.2999 37.4976L21.2999 25.0692C21.3004 23.5474 21.9964 22.1438 22.9518 20.9819L23.1293 20.7719C22.8518 20.5365 22.5435 20.3341 22.2588 20.1057L19.1215 17.4254C17.8261 16.257 16.5685 15.0403 15.4207 13.7246L14.6023 12.8035C14.5355 12.7205 14.4602 12.6468 14.4041 12.5557ZM13.2488 32.9999C13.2215 33.2634 13.2332 33.5258 13.2334 33.7902L13.2349 36.1907C13.2355 36.6191 13.1753 37.2559 13.4487 37.6183C13.8017 38.0861 14.4394 38.1989 14.896 37.817L14.9298 37.7882C15.311 37.3685 15.2855 36.9506 15.2867 36.4175L15.2872 35.0503C15.2872 34.5681 15.3266 34.0446 15.2763 33.5671L13.2488 32.9999ZM34.7031 33.0348L33.3012 33.433C33.1207 33.4822 32.8843 33.4955 32.7193 33.5668L32.7184 36.6744C32.7186 36.8986 32.7035 37.1167 32.7716 37.3331L32.7806 37.3638C32.8386 37.5562 32.9448 37.6951 33.087 37.831C33.7092 38.3348 34.619 37.9223 34.7569 37.1479C34.7877 36.9749 34.7698 36.7794 34.769 36.6032L34.7628 33.9924C34.7623 33.6758 34.7777 33.3501 34.7492 33.0348H34.7031ZM15.3684 39.2847L14.6096 39.4703C14.7412 40.238 14.9167 41.967 15.9639 42.0113L31.5038 42.0153C32.1173 42.0151 32.6295 42.0318 32.9379 41.3676L32.9813 41.2696L33.2858 40.0425C33.3307 39.8496 33.4046 39.6365 33.4085 39.4384L33.3877 39.4368C33.2513 39.4247 32.7202 39.2605 32.6458 39.2842C32.2295 39.417 31.7681 39.4233 31.3359 39.4829L24.6918 40.2141C23.2918 40.4129 23.2908 40.1191 21.9943 39.9316C21.3282 39.8353 20.6461 39.8574 19.975 39.836L18.4336 39.7134L15.6746 39.3375C15.5715 39.3174 15.4782 39.285 15.3718 39.2851L15.3684 39.2847Z" fill="black"/>
<path d="M23.8038 25.6935C22.6997 25.7158 22.6467 24.4812 23.6458 24.239C23.9324 24.2003 24.25 24.4101 24.3636 24.6637L24.3758 24.6915C24.6106 25.1584 24.2822 25.5921 23.8038 25.6935Z" fill="black"/>
<path d="M23.8998 31.1358C23.2733 31.2301 22.7242 30.6673 23.0263 30.0984L23.0844 29.9945C23.1993 29.8057 23.3573 29.7486 23.5586 29.6991C23.9759 29.6811 24.2324 29.7939 24.3911 30.2031L24.4027 30.2336C24.5572 30.6301 24.2584 30.9958 23.8998 31.1358Z" fill="black"/>
<path d="M23.9098 36.602C22.9297 36.8429 22.5516 35.4169 23.5296 35.1352C23.9561 35.1141 24.2192 35.2315 24.3928 35.6439L24.4177 35.7073C24.4634 35.8215 24.4625 35.998 24.4129 36.1107L24.3987 36.1408C24.2926 36.3724 24.1465 36.5109 23.9098 36.602Z" fill="black"/>
</svg>
