<svg width="48" height="48" viewBox="0 0 48 48" fill="none" xmlns="http://www.w3.org/2000/svg">
<path d="M39.2421 41.7528C37.7816 43.5667 36.4141 43.4801 34.389 43.4803L12.5901 43.4802C10.1859 43.4778 8.43157 42.2818 7.96432 39.7773C7.85928 39.2145 7.91534 38.578 7.91529 38.0061L7.9099 18.5441C7.90742 17.5633 8.18614 17.4665 8.90061 16.8166C10.9818 14.9235 11.1212 12.3248 10.7854 9.66924L10.6812 8.94202C10.5996 8.51429 10.4955 8.09237 10.6931 7.6772L10.7111 7.64045C11.0614 6.9158 12.8688 6.12076 13.5817 5.7076L14.8214 4.98324C15.1606 4.78126 15.447 4.53413 15.8521 4.48318C17.0278 4.42413 18.0954 5.27424 18.2315 6.45713C18.275 6.83574 18.2921 7.20999 18.3762 7.58377C18.7317 9.16374 19.9644 10.5619 21.1161 11.6239C23.472 13.7964 24.3979 13.8797 26.745 11.76C28.0639 10.5689 29.4561 8.92454 29.7084 7.0943C29.7539 6.7644 29.7569 6.43037 29.8403 6.10529C30.0807 5.16821 31.3056 4.21187 32.3067 4.50793C32.5355 4.57558 32.7477 4.7416 32.9538 4.8608L35.8886 6.52435C36.7889 7.01602 37.6793 7.45463 37.3747 8.70357C36.9242 10.5504 36.9902 13.5905 37.8179 15.2561C38.1096 15.843 38.6047 16.4055 39.1056 16.832C39.6543 17.2991 40.0807 17.5217 40.0966 18.2997L40.0964 39.3911C40.0887 39.6288 40.0526 39.9097 39.9842 40.1376L39.9554 40.2419C39.8315 40.7969 39.5615 41.289 39.2421 41.7528ZM16.0057 5.9843C15.7324 6.03287 15.6754 6.04866 15.7605 6.32068L15.8792 6.6924C16.0542 7.24257 16.0549 7.83371 16.2673 8.41388L16.9455 10.0266C17.048 10.2572 17.2165 10.4874 17.3532 10.7002C18.4511 12.4105 21.7113 15.6417 23.8947 15.7488C25.648 15.8348 28.0407 13.6985 29.1313 12.5464C30.1466 11.4738 30.9845 10.3344 31.499 8.93687L32.022 6.97604C32.1191 6.44246 32.4933 5.93996 31.846 5.97638C31.1478 6.01566 31.2147 6.69512 31.1654 7.1372C30.8279 10.16 27.1439 14.4702 24.2448 14.7795C23.131 14.8983 21.9229 14.2097 21.0889 13.5291C19.2851 12.0571 17.0977 9.81544 16.8795 7.34724C16.8372 6.86841 16.8945 6.3107 16.3947 6.0527L16.3675 6.03845C16.2535 5.98126 16.1308 5.97413 16.0057 5.9843ZM33.5161 6.89673L33.4103 7.5151C32.8921 10.2157 31.4347 12.5116 29.4171 14.3679C27.9365 15.7301 25.4133 17.6109 23.3342 17.1577C20.5287 16.5462 17.5285 13.6979 16.0536 11.3904C15.3786 10.3343 14.9609 9.22421 14.6715 8.01118L14.5515 7.37776C14.5312 7.23648 14.5233 7.06524 14.4656 6.93395L12.0268 8.2502C12.1079 8.64798 12.1487 9.05602 12.1946 9.4591L12.3274 11.8152C12.3256 14.2832 11.5804 16.4977 9.64742 18.0837C9.29801 18.3704 9.35262 18.2229 9.35206 18.6871L9.35056 28.91L9.35004 33.3291C9.35009 33.518 9.33373 33.6325 9.51654 33.7498L9.57368 33.7951C9.67728 33.8769 9.79217 33.9694 9.92843 33.9752L36.8944 33.9802C37.4161 33.981 38.0628 34.1134 38.4862 33.7381L38.5165 33.7115C38.5716 33.6624 38.6108 33.624 38.6441 33.558L38.652 22.5818C38.6519 22.0303 38.6789 18.3204 38.621 18.2542C38.5642 18.1892 38.4285 18.1296 38.3547 18.0754C36.7558 16.9022 35.9301 14.9114 35.7364 12.9842C35.6687 12.3113 35.6242 10.2498 35.7571 9.60188L35.978 8.24724C35.7519 8.08632 35.487 7.97298 35.2418 7.84351L34.1764 7.2594C33.9607 7.14099 33.7228 7.02723 33.5161 6.89673ZM9.35337 35.2928L9.3515 36.4836L38.6449 36.4825C38.6602 36.4378 38.6546 36.4122 38.6498 36.366C38.6508 36.0163 38.6855 35.6339 38.6413 35.2982C38.4408 35.3878 38.1972 35.4513 37.9793 35.4599L10.3905 35.4608C10.033 35.455 9.68595 35.4379 9.35337 35.2928ZM10.1412 37.9571C9.89412 37.9596 9.59553 37.9342 9.35454 37.9785L9.35267 39.3904L37.9987 39.3927L38.6683 39.3911L38.6664 37.9655L10.1412 37.9571ZM10.1483 40.8546L10.0084 40.8983C10.3079 41.4296 10.9547 41.7764 11.5244 41.9311L11.5616 41.9408C11.8599 42.0207 12.1246 42.0147 12.4327 42.0161L34.8253 42.0169C35.703 42.0165 36.356 42.0924 37.1503 41.6388L37.3889 41.4961C37.6494 41.306 37.8402 41.1181 38.0522 40.8769L10.1483 40.8546Z" fill="black"/>
</svg>
