<svg width="48" height="48" viewBox="0 0 48 48" fill="none" xmlns="http://www.w3.org/2000/svg">
<path d="M35.9744 39.223V39.8783C35.9706 41.2137 35.0732 41.2683 33.9656 41.269L27.2848 41.2662C26.346 41.2658 25.4994 41.0698 24.6489 40.6535C23.6014 40.141 24.3621 40.161 23.2736 40.6849C22.069 41.2647 20.9913 41.2687 19.6826 41.2689L14.3293 41.2699C13.4002 41.2699 12.3954 41.4223 12.0432 40.2829C11.9344 39.9311 12.0488 38.222 12.0044 37.6889C11.2822 36.846 11.1543 36.2768 11.0303 35.2285L10.2934 29.5282C10.1415 28.1609 9.89838 27.1495 11.0915 26.0962C11.2873 25.9234 11.5116 25.7832 11.6991 25.6013L12.568 22.6314C13.3841 19.3652 13.6463 14.5838 11.1761 12.0509C10.0169 10.8623 10.3698 9.0456 11.8864 8.4095C12.2233 8.26822 12.1551 8.32625 12.4338 8.06164C12.8079 7.70643 13.3639 7.60382 13.8487 7.49783L14.6625 7.30424C15.4488 7.11294 16.2356 6.87135 17.034 6.73461C17.3256 6.67991 17.662 6.80868 17.8105 7.0746L17.8892 7.22385C18.0958 7.70807 18.2519 8.19974 18.4866 8.67524C19.7381 11.2113 21.757 13.1935 24.0296 14.8318L25.7986 13.3991C27.4691 11.9113 29.166 9.84135 29.9354 7.69532C30.1594 7.07061 30.31 6.48238 31.2423 6.80722C31.442 6.87688 31.657 6.91719 31.8617 6.97302L33.4637 7.39489C34.1394 7.54578 35.0268 7.55328 35.5596 8.05869C35.9801 8.45755 36.2141 8.39113 36.5618 8.66882L36.5883 8.69047C37.542 9.43775 37.8472 10.7916 37.0595 11.7863C36.8766 12.0173 36.648 12.2088 36.4664 12.4426C34.9278 14.4239 34.7358 17.0464 34.9423 19.4535C35.1049 21.3485 35.4347 22.993 36.1027 24.7866C36.3674 25.4973 36.0155 25.4226 36.6893 25.9205C37.2662 26.3467 37.6453 26.8857 37.8095 27.5863L37.8242 27.6505C37.9225 28.1524 37.8427 28.6023 37.7737 29.099L37.0248 34.8114C36.8969 36.0635 36.8394 36.5493 36.0777 37.6228C35.9363 37.8222 35.9766 38.1506 35.9754 38.3879L35.9744 39.223ZM16.7023 8.30183L13.5999 9.06097C14.5043 9.82583 15.1506 10.9277 15.7526 11.9301C16.5444 13.2485 16.9722 13.8877 17.1375 15.434C17.3033 16.9857 17.2521 18.5738 17.0661 20.1215C16.7927 22.3971 16.7703 23.0699 14.9501 24.7085L12.6423 26.7244C12.2426 27.0725 11.7189 27.3687 11.5773 27.9144L11.5683 27.9473C11.5225 28.1229 11.564 28.2834 11.5833 28.4573L12.4732 35.4635C12.5946 36.1918 13.0438 36.8567 13.8049 37.0387C14.0546 37.0984 14.3931 37.0581 14.6548 37.0588L19.6534 37.0581C20.6548 37.0586 21.9098 37.3583 22.1807 36.0478L22.1943 35.9808L22.2354 31.7138L15.2994 31.7095C15.0365 31.7092 14.7564 31.7299 14.4959 31.6979C13.6972 31.5996 13.7408 30.3679 14.4933 30.2659C14.753 30.2308 15.0458 30.2553 15.3083 30.2554L22.2297 30.2714L22.2229 19.8992C22.2234 18.7035 22.1763 17.8062 23.2847 16.9669C23.3454 16.9209 23.5099 16.8279 23.5443 16.7623C23.7796 16.3128 23.1218 16.0078 22.8752 15.8198L20.0321 13.3018C18.7306 11.9565 17.5535 10.3068 16.8806 8.55289C16.8475 8.46664 16.8249 8.28941 16.7181 8.29719L16.7023 8.30183ZM31.2094 8.30661C29.9244 11.3724 28.1237 13.4643 25.511 15.5347C25.4118 15.6134 24.9077 15.977 24.8654 16.0721C24.8533 16.0993 25.1497 16.833 24.9242 17.32C24.655 17.9012 23.9246 18.0952 23.6799 18.7075L23.6676 18.7362C23.6404 18.8008 23.6254 18.8564 23.623 18.9267L23.6169 35.8649C23.6115 37.1102 22.7477 38.2821 21.4809 38.4959C21.2606 38.5331 21.014 38.5165 20.7908 38.5165L15.0479 38.5149C14.4825 38.5147 13.9585 38.5474 13.4057 38.4186L13.4051 39.2933C13.4054 39.4738 13.3929 39.6689 13.4245 39.8463L20.3041 39.847C21.2581 39.8465 22.2911 39.7189 23.0838 39.137C23.3156 38.9668 23.5132 38.6777 23.7925 38.588C24.2868 38.4291 24.4317 38.7887 24.7423 39.0379C25.4338 39.5926 26.4915 39.8443 27.3635 39.8466L34.5877 39.8434L34.6018 38.3891C34.0241 38.5385 33.5149 38.515 32.92 38.5152L27.1634 38.5144C25.3279 38.5127 24.4359 37.3212 24.4462 35.6078V19.8447C24.4466 19.6673 24.4326 19.4756 24.4518 19.3004C24.5114 18.7552 25.2878 18.5771 25.6466 18.9558L25.7479 19.0862C25.9511 19.3385 25.8342 20.2938 25.8337 20.6199L25.8352 34.6272C25.8356 35.1211 25.8128 35.6263 25.8487 36.1179L25.8504 36.1497C25.8753 36.4749 26.3352 36.9419 26.6145 37.0335C26.7602 37.0814 26.9689 37.0581 27.1233 37.0582L33.2974 37.0595C33.5602 37.0592 33.8375 37.0756 34.0988 37.0513C35.1068 36.9576 35.4886 35.8542 35.5683 34.9911L36.3181 29.2446C36.5265 27.6158 36.6496 27.9464 35.4325 26.7525C35.0944 26.4209 34.7066 26.1321 34.3464 25.8246L33.1691 24.7837C31.6199 23.4676 31.3263 23.0742 31.0247 20.9354L30.8512 19.374C30.6964 17.6437 30.6279 15.3662 31.2345 13.7724C31.6116 12.7815 32.8584 10.851 33.5 10.0661C33.7871 9.71493 34.1194 9.41132 34.4115 9.06955L31.2094 8.30661ZM12.306 9.80896C12.1154 9.97354 11.9352 10.2089 11.8547 10.4494C12.2677 11.1316 12.8464 11.7373 13.2785 12.4878C15.0294 15.5286 14.8191 20.4664 13.7636 23.6459L13.6938 23.8474L14.1947 23.4323C15.1526 22.6058 15.2905 22.2973 15.5123 21.0383C15.6233 20.4083 15.7161 19.7616 15.7625 19.1235L15.8422 17.1351C15.8407 16.2549 15.7829 15.1981 15.4866 14.3735C15.3482 13.9882 15.0842 13.6273 14.8743 13.2763C14.1454 12.0569 13.4248 10.7608 12.3436 9.80971L12.306 9.80896ZM35.6579 9.85935C35.0439 10.4267 34.4013 11.2136 33.9407 11.9066L33.1927 13.1494C32.5558 14.2114 32.3403 14.6523 32.2264 15.9144C32.1558 16.6963 32.1226 17.4617 32.169 18.2494L32.3415 20.2465C32.4233 20.8856 32.629 22.246 33.0156 22.6664L33.5603 23.2123C33.6411 23.2895 33.7244 23.388 33.813 23.4548L34.2716 23.8637C34.0165 22.9474 33.8302 22.0101 33.6868 21.0707L33.5839 20.2578C33.5662 20.0523 33.5714 19.8118 33.513 19.615C33.3855 19.1857 33.4905 16.8715 33.5427 16.4303C33.7586 14.6045 34.2401 13.0839 35.3293 11.5611L35.8026 10.9383C36.1981 10.4464 36.3281 10.3215 35.6579 9.85935Z" fill="black"/>
</svg>
