<svg width="48" height="48" viewBox="0 0 48 48" fill="none" xmlns="http://www.w3.org/2000/svg">
<path d="M38.0231 42.0743C36.6567 43.0622 35.4546 43.1296 33.8979 43.2242C32.9379 43.2826 31.9263 43.594 31.0454 43.9594C29.7156 44.5112 28.5361 45.1384 27.0826 44.7337C26.4398 44.5547 26.259 44.6171 25.5902 44.6165L22.566 44.6151C21.9724 44.6148 21.4003 44.5405 20.8255 44.7019C18.9098 45.2398 17.7117 44.1602 15.9152 43.6104C15.3016 43.4226 14.6886 43.2947 14.0502 43.2365L13.226 43.1949C10.7661 43.0064 8.23423 41.3603 7.53316 38.9067C7.4239 38.5243 7.5723 38.599 7.20002 38.4831C5.50113 37.9541 4.80223 36.713 4.80176 35.0467L4.8026 24.2273C4.8034 23.0314 5.1732 22.1377 6.30405 21.5423C6.52348 21.4268 6.77974 21.3939 6.98074 21.2411C7.70726 20.6885 8.1258 19.5486 8.49954 18.7504C8.73349 18.2506 8.98521 17.7526 9.16488 17.23C9.94249 14.968 10.0924 11.641 8.92549 9.46919C8.64387 8.94499 8.44835 8.55898 8.5428 7.93282L8.54824 7.89888C8.73415 6.58338 9.99813 6.11454 11.0305 5.5976L14.9294 3.58168C15.3724 3.3433 15.7777 3.08891 16.2817 3.00769C16.8784 2.98129 17.5175 3.24014 17.7622 3.82975L17.7738 3.86096C17.8121 3.95385 17.8436 4.03918 17.8637 4.1383L17.8704 4.17232C17.9517 4.57493 17.8499 5.00538 17.9236 5.40809L18.1908 6.73165C18.512 8.34949 19.689 10.1429 20.9157 11.1832C21.3354 11.5391 21.8257 11.8245 22.2247 12.1993C23.0083 11.8034 24.9449 11.7654 25.6935 12.2374L25.7191 12.2538C28.3207 10.4631 29.9177 8.05891 30.0618 4.80307C30.0725 4.56165 30.027 4.22268 30.1236 4.00483C30.8627 2.33905 32.1559 3.12554 33.3093 3.74231L37.2179 5.7378C38.1003 6.17159 39.0104 6.52554 39.2787 7.59316L39.3011 7.67341C39.658 8.71882 39.1067 9.2486 38.8216 10.0638C38.1249 12.0563 37.9973 15.1479 38.5313 17.2153C38.9366 18.7844 39.451 20.3365 40.9339 21.2132C41.1779 21.3574 41.452 21.4458 41.7067 21.5679C43.3442 22.3528 43.1044 23.8921 43.1054 25.3618L43.1081 34.9671C43.1082 35.3643 43.1295 35.7539 43.0375 36.1408C42.7886 37.187 41.8353 38.3262 40.7296 38.5105C40.5291 38.5439 40.5784 38.6 40.5135 38.7992C40.0725 40.1518 39.2014 41.2733 38.0231 42.0743ZM16.3811 4.48873C16.1283 4.55724 15.8639 4.71813 15.6354 4.8476L11.9775 6.73952C11.3907 7.03643 10.7699 7.31107 10.2071 7.64937C9.70212 7.95293 9.99424 8.43616 10.1733 8.76607C10.3415 9.07624 10.4914 9.4219 10.5822 9.76291L10.7895 10.5056C10.8222 10.6888 10.8805 10.8801 10.9234 11.0629C11.6233 14.0381 10.8997 17.1772 9.53721 19.8493C8.99444 20.9138 8.64569 21.9586 7.54432 22.5813C6.98163 22.8994 6.25024 22.9735 6.23205 23.7847L6.22784 34.4254C6.22807 35.3902 6.11716 36.3179 7.08954 36.8674L7.12962 36.8904C7.98743 37.3753 8.55959 36.9442 9.40488 36.6887C9.90091 36.5388 10.3993 36.4481 10.9058 36.3473L10.9079 36.3459C13.2498 35.9322 15.6526 36.2831 17.8377 37.1843C18.9707 37.6516 19.8489 37.9728 21.0751 37.9691L21.0789 34.771C21.0723 34.5366 21.0359 34.3064 21.0193 34.0728L20.9992 14.753C20.9995 14.5007 20.9852 14.2378 21.0074 13.9867C21.1003 12.9327 21.6648 13.5835 20.4233 12.6347C18.1136 10.8695 16.6217 7.93952 16.5127 5.04888C16.5079 4.92157 16.5329 4.56711 16.4411 4.48068L16.3811 4.48873ZM31.4979 4.51216C31.4787 4.8873 31.4931 5.2676 31.4272 5.63801L31.1876 6.98351C30.5521 9.64024 29.0554 11.5241 26.9284 13.1201C26.8784 13.1576 26.6698 13.2921 26.6989 13.3506C26.8913 13.7373 26.8903 14.0998 26.8854 14.5217L26.8811 34.0331C26.8811 34.4647 26.8468 37.8876 26.8957 37.967C28.974 37.9867 29.7453 37.2005 31.5572 36.6637C32.8795 36.2719 34.3779 36.1134 35.7613 36.2162L37.0337 36.373C37.6846 36.4683 38.3436 36.6401 38.9719 36.8348L39.5126 37.0271C40.5347 37.4134 41.5729 36.6015 41.7146 35.602C41.7409 35.4165 41.7257 35.2138 41.7255 35.0258L41.7204 24.6329C41.7188 22.8225 41.4996 23.1932 40.2067 22.4562C36.5881 20.3935 36.1208 13.2617 37.4783 9.59177L37.7473 8.94513C37.8202 8.79171 37.9478 8.63641 37.9813 8.46968C38.1572 7.59326 37.1382 7.30563 36.5258 7.00648L32.0622 4.70927C31.9443 4.65242 31.6598 4.49532 31.5373 4.5026L31.4979 4.51216ZM23.0951 13.4068C22.8268 13.4998 22.6241 13.6451 22.4786 13.8929L22.4423 13.9687C22.3911 14.0839 22.393 14.211 22.3903 14.3348L22.3908 32.4916C22.3918 33.0752 22.4741 33.5021 22.4764 34.0558L22.4761 42.0836C22.4605 42.4616 22.3154 42.8722 22.3006 43.1498L24.7675 43.1502C25.0538 43.1543 25.3615 43.1811 25.6456 43.155L25.5395 42.8323C25.4742 42.6374 25.4948 42.3969 25.4939 42.1931L25.4949 14.8218C25.4949 13.774 25.4432 13.4048 24.3667 13.405L23.0951 13.4068ZM12.2477 37.6703C11.041 37.7341 9.96457 38.0048 8.8287 38.4005C9.31516 40.1729 11.2858 41.5374 13.0647 41.7298C13.3639 41.7621 13.6681 41.7564 13.9684 41.7727C15.4539 41.8534 16.7991 42.422 18.1697 42.9533C18.6774 43.1663 19.3281 43.449 19.8846 43.4237L20.028 43.4106C20.8634 43.3536 21.0805 42.5666 21.0833 41.8818L21.0841 40.8901C21.0841 40.4048 21.1114 39.9009 21.0759 39.4177L20.0558 39.3566C18.9383 39.2499 17.924 38.7598 16.8938 38.3523C15.3716 37.7501 13.8618 37.6161 12.2477 37.6703ZM34.5566 37.6698C32.5349 37.7059 31.6262 38.2327 29.7684 38.9236C29.2178 39.1284 28.6735 39.2479 28.0974 39.3511C27.8011 39.4042 27.0718 39.3225 26.8654 39.4133C26.9089 40.1794 26.8809 40.9561 26.881 41.7236C26.881 42.3182 26.7896 42.7678 27.3044 43.1931L27.3333 43.2175C27.4452 43.3091 27.6067 43.3852 27.7497 43.4094L27.7809 43.4152C28.4755 43.5323 29.1935 43.1631 29.818 42.9099L30.6503 42.5792C31.5194 42.247 32.4071 41.9848 33.3278 41.8372C33.8737 41.7497 34.4463 41.789 34.9967 41.7101C36.6587 41.4716 38.243 40.4754 38.9399 38.9085L39.1319 38.4501C38.207 37.8197 35.6482 37.664 34.5566 37.6698Z" fill="black"/>
</svg>
