<svg width="48" height="48" viewBox="0 0 48 48" fill="none" xmlns="http://www.w3.org/2000/svg">
<path d="M34.0802 29.6028C32.8111 28.9113 31.356 28.3888 29.966 28.0256L26.9636 27.2878C26.5721 27.1738 26.2671 26.7572 26.4046 26.3693L26.4148 26.3434C26.4754 26.186 26.5871 26.0521 26.6854 25.9164L27.1105 25.3054C27.9554 23.9728 28.9951 21.8376 28.6884 20.2731L28.3475 18.4137C28.1092 16.3093 28.3128 14.1074 28.739 12.0422C29.0011 10.7723 29.1528 9.75441 30.6642 9.40978L30.825 9.38096C31.5482 9.31622 32.0298 9.56293 32.5644 10.0173C32.6924 9.70547 32.7926 9.37097 32.9027 9.05157L33.3684 7.75697C33.7876 6.6068 34.1547 5.79028 35.5059 5.56158C36.4847 5.40657 37.4822 6.14986 37.795 7.05089L37.8841 7.29019C39.0761 7.06697 40.0655 7.34138 40.5939 8.56603L40.6357 8.67178C40.6743 8.787 40.72 8.90067 40.7409 9.02091L40.7471 9.05832C40.9206 10.0334 40.5028 10.8114 40.2853 11.735C40.4306 11.6934 40.5733 11.649 40.7251 11.6409L40.7696 11.639C42.1825 11.5666 43.2181 12.712 43.0751 14.0771C42.8468 16.256 40.6873 20.046 39.4658 21.7496L38.2958 23.2663C37.6394 24.1033 37.7177 23.842 37.5551 24.8635L37.375 25.8212C37.0915 27.0846 36.6236 28.2935 35.9709 29.4123C35.502 30.2163 35.4196 30.3232 34.653 29.8943L34.0802 29.6028ZM35.6252 6.98888C34.9484 7.13574 34.7602 8.03255 34.5536 8.595C34.1837 9.60235 33.8749 10.6249 33.6062 11.6632L33.1127 14.127C33.0908 14.2702 33.0914 14.4164 33.0402 14.5541C32.7825 15.2476 31.7995 15.0699 31.6906 14.3906C31.5478 13.4992 32.4293 11.4807 31.418 10.8829C30.6897 10.4523 30.3694 11.1553 30.2459 11.7191L30.0573 12.6676C29.7296 14.4985 29.5193 16.3535 29.7663 18.2106L29.8217 18.7848C29.9166 19.5141 30.1557 20.1773 30.1591 20.922C30.1649 22.1407 29.729 23.2493 29.211 24.3348L28.2702 26.1432C30.1555 26.5093 31.9294 27.0699 33.6904 27.8439L34.8945 28.4188C35.3799 27.6235 35.7526 26.6424 35.9544 25.7417C36.2961 24.2159 36.1043 23.7124 37.1548 22.4051C38.9298 20.2429 40.4952 17.7728 41.3352 15.0888C41.4522 14.7149 41.6021 14.3341 41.6551 13.9449L41.661 13.9042C41.7645 13.1192 40.6154 12.4816 40.065 13.7142L39.7618 14.3838C39.597 14.7468 39.4125 15.1068 39.2732 15.4806L38.9976 16.226C38.5195 17.508 37.4683 16.8855 37.5094 16.2378C37.529 15.9292 37.6258 15.603 37.7088 15.3066L39.0586 10.8245C39.1895 10.381 39.4521 9.8041 39.3823 9.33947L39.3783 9.31097C39.27 8.63808 38.3161 8.33813 37.9292 8.93546C37.828 9.09164 37.7687 9.26457 37.6994 9.43547L37.336 10.455C37.0811 11.2052 36.7823 12.0053 36.6496 12.7903L36.4741 14.028C36.4633 14.1381 36.4819 14.2649 36.4402 14.3688C36.1141 15.1808 34.8275 14.8838 35.0327 13.8746L35.7536 10.6566L36.5039 8.2905C36.7002 7.63585 36.3368 6.93914 35.6252 6.98888Z" fill="black"/>
<path d="M14.1671 41.998C13.4147 42.336 13.2926 42.452 12.8222 41.6512C11.805 39.9197 11.3814 38.5497 11.0064 36.6396C10.805 35.6133 10.7013 35.6722 10.0683 34.8544C8.34078 32.6227 6.82841 29.3686 5.94608 26.7378L5.05714 23.6734C4.98036 23.3499 4.89195 22.9689 4.93705 22.6369L4.99498 22.2417C5.31631 20.8739 6.56262 20.4571 7.80312 20.7697C6.89961 18.8922 9.73414 16.3214 11.4807 18.3481L11.6605 18.1928C11.9999 17.8059 12.5186 17.5752 13.0263 17.5407C14.1405 17.3749 15.099 18.2563 15.4189 19.2636L16.2135 21.891C17.0071 21.1842 18.0828 20.9786 18.9784 21.6478C19.6599 22.1569 19.8201 22.7954 19.9647 23.5853L20.1936 25.2242C20.3975 27.0101 20.4002 28.8716 20.1109 30.6442L19.9315 31.6667C19.8484 32.0746 19.7021 32.5499 19.7076 32.9645C19.7247 34.2375 20.7015 36.265 21.4581 37.3379C21.7389 37.736 22.3649 38.2071 22.2357 38.7569L22.2034 38.882C22.048 39.2864 21.6102 39.2722 21.2583 39.3745L17.2025 40.7639L14.1671 41.998ZM13.0921 18.9427C12.2815 19.2044 12.369 20.1312 12.5852 20.7922L13.4676 23.9879C13.5655 24.3948 13.877 25.8027 13.7056 26.1676L13.6899 26.2024C13.5433 26.5153 13.2164 26.5902 12.9028 26.5166L12.8719 26.5096C12.3277 26.3756 12.3508 25.8635 12.2881 25.4182L12.1648 24.6702C11.9174 23.4597 11.5611 22.2735 11.1878 21.0968C10.9834 20.4523 10.5641 18.6005 9.57467 19.1485C9.14942 19.384 9.00819 19.8058 9.13212 20.2582L9.6965 22.3092C9.75458 22.5296 9.67419 22.7495 9.71759 22.9723L9.72505 23.0121C9.81256 23.4564 10.1118 23.9588 10.2305 24.4852L10.9098 27.0571C10.9593 27.2179 10.9719 27.5163 10.8981 27.6676L10.8847 27.6957C10.558 28.3568 9.67217 28.08 9.47595 27.2789C9.2112 26.1984 8.50339 22.8254 7.55361 22.1869L7.52787 22.1694C7.18292 21.9448 6.69322 22.0252 6.47689 22.3907C6.26122 22.7551 6.37602 23.1908 6.48097 23.5772L7.40952 26.6342C7.42137 26.6787 7.4375 26.7115 7.45489 26.7535L8.27698 28.8395L10.0757 32.3218L11.7303 34.6419C12.4969 35.6896 12.3583 37.019 12.7988 38.1793C13.1103 38.9999 13.3956 39.8 13.8343 40.5663L20.3262 38.1638C19.3481 36.8083 18.3873 34.7333 18.3066 33.0817C18.2714 32.3623 18.4614 31.7287 18.6157 31.0414C18.9358 29.6154 19.0144 28.0514 18.9257 26.6009L18.6802 24.3863C18.6257 23.9538 18.5675 23.2995 18.3062 22.9399C18.0569 22.5969 17.5958 22.5923 17.2776 22.8395C16.9691 23.0791 16.9474 23.5251 16.932 23.8783L16.9275 25.5951C16.9355 25.8526 16.9825 26.2381 16.9127 26.4825C16.8005 26.8756 16.4035 27.0766 16.02 26.9621C15.4876 26.8032 15.488 26.1719 15.4548 25.7257L15.3632 24.8663C15.1483 23.395 14.8215 21.9283 14.3627 20.5136C14.1462 19.8459 13.9704 18.9149 13.0921 18.9427Z" fill="black"/>
</svg>
