<svg width="48" height="48" viewBox="0 0 48 48" fill="none" xmlns="http://www.w3.org/2000/svg">
<path d="M34.147 36.1785L34.2886 35.7005C34.1649 35.6231 34.0195 35.5916 33.8836 35.5409L33.0894 35.2496C31.1793 34.558 29.2438 34.0233 27.2405 33.6838L25.6443 33.4642C25.5914 33.5023 25.5306 33.7306 25.5122 33.8029L24.9863 35.5854C24.8119 36.1057 24.9949 36.6951 25.01 37.2329C25.0415 38.3517 23.8477 38.2808 23.6398 37.6119C23.5217 37.2318 23.5599 36.5851 23.449 36.0964C23.2521 35.2292 22.9724 34.3691 22.7192 33.5167L22.1068 31.4015L16.1306 32.5902L14.0469 32.8667C13.9828 32.8753 13.8872 32.8688 13.8348 32.9033C13.8997 33.2485 14.1315 33.949 14.252 34.2777L14.5963 35.3792C14.8138 36.1945 15.3925 38.445 15.1094 39.0689L15.0973 39.0941C14.9435 39.4276 14.6108 39.5441 14.2579 39.4556C13.7492 39.328 13.7698 38.8239 13.7334 38.4085C13.6108 37.0089 13.2296 35.6838 12.7745 34.3597L12.4061 33.2598C12.0636 32.3331 11.6389 31.4941 11.5447 30.4942C11.5098 30.1235 11.5646 30.1472 11.2863 29.9308C10.0044 28.9343 8.92825 26.7344 8.27523 25.2668C7.26559 22.9977 6.48259 20.4907 6.47266 17.987L6.48081 17.2183C6.53228 15.4316 7.50564 13.5125 9.16563 12.74C9.23144 12.7094 9.562 11.423 9.6272 11.2477C10.3666 9.25918 12.22 7.72117 14.3559 7.53339C14.6863 7.48806 15.0518 7.52776 15.3785 7.58307C17.684 7.97336 19.7652 10.108 20.5091 12.2841L20.9808 13.6878C21.1559 14.3801 21.3027 15.0663 21.4103 15.7737C21.4581 16.0884 21.4531 16.4091 21.5205 16.7202C23.1726 15.7268 25.0883 16.0696 25.903 17.9652C26.0045 18.2012 26.0681 18.4521 26.1298 18.701C26.857 15.7988 28.9029 12.786 32.0169 12.1751C33.7761 11.83 35.3536 12.1497 36.797 13.2921C37.5038 13.8515 38.1315 14.6251 38.4494 15.4807L38.7356 16.2152C40.2993 16.7813 41.2423 18.4851 41.3988 20.0753C41.5456 21.5666 41.4498 23.0793 41.1109 24.5394L40.8904 25.4008C40.1145 28.0322 38.767 31.1995 36.6266 32.9288C36.2878 33.2025 36.3044 34.1521 36.1525 34.642C36.0662 34.9201 35.9201 35.1725 35.8301 35.4475C35.7605 35.6601 35.7329 35.8898 35.6718 36.1058L35.2785 37.3201C34.9414 38.2833 34.619 39.1678 34.422 40.181C34.3579 40.5102 34.2533 41.9268 34.1421 42.1131C33.8455 42.6102 33.0115 42.5342 32.8817 41.9392L32.875 41.9066C32.5959 40.6324 33.7228 37.392 34.147 36.1785ZM14.4993 9.00929C12.4183 9.28511 10.8657 10.8366 10.6713 12.9595C10.6059 13.6739 10.5933 14.5216 9.62655 14.2629C9.49975 14.229 9.52178 14.2224 9.41073 14.2945C8.39134 14.9573 7.92761 16.3496 7.89034 17.5063C7.85397 18.6368 8.15655 20.9407 8.57913 22.0667L9.28788 24.0476C9.3917 24.3969 9.59388 24.764 9.75606 25.092L10.6568 26.7767C11.0034 27.391 11.3713 28.0262 11.8824 28.5202C12.4019 28.1729 12.7948 28.2263 13.3323 28.1091C12.2611 26.7911 10.3479 22.3025 10.5101 20.9821C10.5926 20.3104 11.6865 20.0509 11.906 21.1761L12.0118 21.669C12.1031 22.0389 12.1995 22.424 12.3315 22.7816L13.2846 25.1098C13.661 25.8904 14.287 27.1346 14.8818 27.7838L14.9345 27.8338C15.2953 27.7232 15.7239 27.7025 16.0994 27.6497L20.0157 27.0668L22.4362 26.6192C22.5131 26.449 22.6488 26.3003 22.7564 26.1485C23.7095 24.8046 24.2891 22.8429 24.6839 21.2672C24.82 20.7236 24.9483 20.2579 24.8709 19.7014C24.7085 18.5327 24.1246 17.1854 22.7136 17.7281C21.5246 18.1853 22.1358 20.4515 21.1876 20.8331C20.8266 20.9784 20.5193 20.7636 20.3216 20.473L20.3038 20.4479C20.189 20.276 20.251 18.9493 20.2398 18.6427L20.1834 17.93C20.0395 15.5113 19.6233 13.1125 18.2074 11.0863C17.3561 9.86795 16.0407 8.93879 14.4993 9.00929ZM33.0219 13.5609C29.2171 13.975 27.6562 17.4119 27.101 20.8036L26.9873 21.6573C26.9375 22.1656 26.9032 22.5836 26.9007 23.1006C26.8965 23.9484 26.0098 24.2585 25.594 23.5193L25.5436 23.4275C25.4337 23.6411 25.3651 23.8824 25.2881 24.1099L24.8642 25.3216C24.7818 25.5328 24.9104 25.9633 24.974 26.182L25.3347 27.4691C25.4621 27.8769 25.6597 28.6287 26.1127 28.6724L26.7621 28.7049C26.9153 28.7171 27.0588 28.7559 27.2103 28.7777L28.8337 29.0542C30.3501 29.3397 31.8438 29.7499 33.2807 30.3152C33.5747 29.7873 33.9517 29.3109 34.2639 28.7921C35.0726 27.4484 35.666 26.0204 36.0814 24.5102C36.2786 23.6852 37.063 23.4364 37.4078 24.1494L37.4508 24.2436C37.8477 25.1128 35.9702 28.7405 35.4955 29.5639C34.4069 31.4521 34.4848 30.3407 36.0803 31.5363C38.5797 28.9204 41.2091 22.3012 39.5634 18.8428C39.3982 18.4955 38.8697 17.7444 38.4333 17.7652C37.6918 17.8004 37.5958 17.3586 37.4074 16.77L37.1792 16.1561C36.5365 14.6421 34.964 13.4731 33.2931 13.5412L33.0219 13.5609ZM23.7472 27.2922L23.3748 27.8883L23.5543 28.5228C23.6118 28.6893 23.5986 28.8679 23.599 29.0418L23.6003 29.8014C23.6007 30.0882 23.6269 30.4036 23.5949 30.6875C23.5829 30.7942 23.5018 30.8805 23.4913 30.9812C23.4752 31.1369 23.6115 31.4376 23.6614 31.5911L23.8314 32.1917C23.8995 32.4174 24.0058 33.0159 24.1262 33.1779L24.1555 33.112C24.2476 32.6852 24.353 32.2447 24.3835 31.8086C24.4249 31.2138 24.3744 30.6033 24.5326 30.0184L24.6556 29.6353C24.7101 29.4852 24.7209 29.5034 24.6445 29.3671C24.2771 28.7105 23.9325 28.0256 23.7472 27.2922ZM22.0349 28.2308L13.9685 29.5042C13.6196 29.5496 13.2333 29.5955 12.9014 29.7171C12.9213 30.1074 12.9474 30.4872 13.0469 30.8677L13.2096 31.3863L13.2803 31.4645C13.4928 31.4248 13.7104 31.4206 13.924 31.3899L15.8646 31.1162L21.961 29.931C22.0381 29.9154 22.1528 29.9229 22.2186 29.8847L22.0885 28.2542C22.071 28.2458 22.0537 28.236 22.0349 28.2308ZM25.9303 30.1447C25.8638 30.429 25.7791 31.6414 25.8114 31.9925C26.0031 32.1108 26.4245 32.0656 26.6567 32.0947L28.8835 32.4749C29.7677 32.6581 30.6453 32.9086 31.5062 33.1798L33.0031 33.6559C33.5746 33.8594 34.1339 34.1277 34.711 34.309C34.7454 34.2718 34.7537 34.2374 34.7677 34.1895L35.0742 32.5798L33.0442 31.7678C30.8286 30.9556 28.2987 30.2769 25.9303 30.1447Z" fill="black"/>
<path d="M26.2692 11.9368C25.4499 11.9001 25.5231 11.0891 25.5208 10.4712C24.9958 10.4276 24.234 10.6034 24.0686 9.90762L24.062 9.87855C23.8277 8.90984 25.0385 9.03171 25.5449 9.01188C25.5962 8.33463 25.348 7.72202 26.2282 7.52637C27.0335 7.57741 26.9773 8.3988 26.9808 9.00527C27.4854 9.14984 28.1415 8.73143 28.4227 9.47838L28.4509 9.54973C28.496 9.67643 28.4779 9.83829 28.4247 9.95955L28.4133 9.98468C28.1587 10.5722 27.5216 10.4762 26.982 10.4691L26.9753 11.1454C26.9721 11.6046 26.7397 11.8662 26.2692 11.9368Z" fill="black"/>
</svg>
