<svg width="48" height="48" viewBox="0 0 48 48" fill="none" xmlns="http://www.w3.org/2000/svg">
<path d="M20.1444 40.9243L16.2191 40.9246C15.5603 40.9252 14.8785 40.9617 14.2218 40.9207C13.4996 40.8757 13.2864 40.1948 13.2847 39.5946C13.2845 39.5127 13.2965 39.4185 13.2697 39.3417C11.5544 38.3896 10.1433 37.657 8.12691 37.4064C7.14371 37.2842 6.7778 37.2482 6.78779 36.033L6.7898 35.1185C6.78961 33.3168 6.72605 31.5544 7.22757 29.8051C7.64368 28.3538 8.34535 27.0414 8.9611 25.6703L13.2538 16.074C13.8757 14.5769 14.4421 13.1257 15.9575 12.3017C15.9987 12.2793 15.9842 12.0586 15.9859 11.9954C16.0361 10.1511 17.3636 9.1238 18.6919 8.0724L19.4861 7.41052C19.6978 7.22776 19.9328 6.99577 20.1893 6.88079C20.6149 6.69001 22.0478 7.0013 22.6658 7.03482L24.2213 7.04776C24.6363 7.04733 25.0904 7.07729 25.4986 7.00871L27.7071 6.83072L27.728 6.82566C27.9615 6.80443 28.7898 7.59329 28.9802 7.74657C30.6886 9.1216 32.0566 9.90943 32.1533 12.2427L32.2466 12.2829C33.617 12.8622 34.6777 14.7889 35.1531 16.1011L38.6234 24.5386L40.9102 30.499C41.1371 31.1914 41.1748 31.9171 41.1759 32.6394L41.1772 35.8238C41.1797 36.1164 41.2692 36.5466 41.1235 36.8161L41.1081 36.8433C40.8016 37.3965 40.3914 37.347 39.8369 37.4041C38.347 37.5577 36.8498 38.1078 35.5111 38.7512C35.3084 38.8486 35.1251 38.9858 34.9254 39.0816C34.3867 39.3399 34.8263 39.5853 34.6088 40.1604L34.5953 40.1949C34.3146 40.9352 33.6694 40.9228 33.0101 40.9232L25.1653 40.9247C24.8828 40.9248 24.5811 40.9028 24.3023 40.9478C23.9767 41.0003 23.6619 40.9254 23.3341 40.9245L20.1444 40.9243ZM21.045 8.0738L21.8329 9.9173L23.8395 14.9713L24.9139 12.6358L26.8981 8.31633C26.9351 8.23632 26.9884 8.14636 27.0021 8.06016L25.568 8.20369C24.9076 8.31019 23.3218 8.27363 22.6303 8.22896L21.628 8.12593C21.4625 8.10657 21.2011 8.03171 21.045 8.0738ZM28.0974 8.55146L24.6117 16.132C24.5169 16.3036 24.5372 16.9975 24.5733 17.2191L26.2408 16.0167C26.6876 15.7637 27.1441 15.5428 27.6203 15.3508L28.4329 15.0511C29.7479 14.5069 31.3017 13.0839 30.867 11.4982C30.6572 10.7328 30.1092 10.2486 29.5296 9.75193L29.0272 9.31032C28.7188 9.05841 28.3921 8.81912 28.0974 8.55146ZM19.9971 8.56041L18.9836 9.38869C17.7988 10.3319 16.6267 11.362 17.3572 13.0863C17.9318 14.4423 19.0269 14.8171 20.2499 15.3065C20.7824 15.5196 21.2756 15.7715 21.7725 16.0568C21.9763 16.1836 23.3436 17.2123 23.3932 17.2066C23.3583 16.7338 23.1875 16.3385 22.9995 15.9083L19.9971 8.56041ZM31.8281 13.4176C31.0748 14.8542 30.3698 15.5808 28.7849 16.203C27.0845 16.8706 26.6949 17.1111 25.1887 18.2644C24.8866 18.4958 24.5757 18.5826 24.5762 18.9251L24.5748 38.9566C24.5746 39.2104 24.5635 39.4685 24.5886 39.7213L32.6519 39.7094C32.9139 39.7093 33.2189 39.7384 33.4753 39.6963L33.4778 35.0596C33.4754 33.7886 33.1201 32.6598 32.6726 31.4839L32.0833 29.9779C31.6536 28.9473 31.2421 28.2387 31.1802 27.1067C31.097 25.5844 32.2471 23.763 32.5904 22.1129L32.696 21.5213C32.7588 21.2377 32.7608 20.2866 32.674 20.0342C32.4826 18.6936 31.9595 17.8319 31.6277 16.6484C31.503 16.2037 32.0955 15.8442 32.4725 16.0756C32.8665 16.3175 33.332 17.9318 33.5071 18.3822C34.2523 20.2991 33.7819 22.6447 33.0918 24.4918C32.1788 26.9356 32.0343 26.8946 33.0376 29.1637L34.165 32.1646L34.4138 33.0267C34.4782 33.3951 34.574 33.7449 34.5961 34.1221L34.6313 35.0504C34.631 35.2168 34.6133 35.362 34.6384 35.5291C35.9128 34.84 38.5825 33.8684 39.986 33.7641C40.1148 31.3948 39.7877 30.7221 38.9615 28.587L34.0717 16.5685C33.588 15.3797 33.1428 14.2553 32.0127 13.5178C31.9628 13.4853 31.8864 13.4228 31.8281 13.4176ZM16.2217 13.5816C15.311 14.2016 14.9775 15.0533 14.5777 16.0233L9.85932 26.572C8.81049 28.8834 7.96191 30.5217 7.97344 33.1041C7.97433 33.3061 7.96341 33.519 7.99252 33.7187C9.59878 34.0836 11.1437 34.7317 12.6387 35.411C12.826 35.4961 13.1035 35.5586 13.2676 35.6705C13.2606 34.7434 13.2946 33.8034 13.5823 32.9157C14.3996 30.393 16.6818 28.5745 15.3683 25.7595L14.2799 22.8968C13.6016 20.6953 13.7549 20.0541 14.6941 18.0741L15.2859 16.8556C15.4958 16.4296 15.7897 15.6774 16.3973 16.0441C16.9767 16.3936 16.4039 17.3084 16.2029 17.725C15.9214 18.3086 15.6145 18.8872 15.3759 19.49C15.0758 20.1678 14.9304 20.7921 15.1323 21.5374L15.2933 22.2177C15.4968 22.9468 15.7759 23.6556 16.0421 24.3631C16.4156 25.3555 16.9703 26.1333 16.9702 27.2383C16.9698 30.2481 14.5798 31.999 14.4467 34.7034L14.4403 39.1271C14.4406 39.3114 14.4181 39.5311 14.4631 39.709L23.4142 39.7183L23.4066 18.6961C22.6321 18.0996 21.6115 17.3334 20.7936 16.8623C20.1976 16.5189 19.5496 16.3597 18.9257 16.0893C18.0565 15.7125 17.2202 15.0801 16.6977 14.2847C16.614 14.1573 16.3643 13.5694 16.2217 13.5816ZM7.99313 34.9566L7.96847 36.1533C8.09846 36.1979 8.22544 36.1983 8.35913 36.221L10.3382 36.6919C11.539 37.0335 12.1844 37.4585 13.2423 37.9314L13.2398 37.0275C13.0458 36.9152 12.8254 36.8267 12.6236 36.7254L11.7618 36.3107C11.3263 36.1119 8.34539 34.8863 7.99313 34.9566ZM40.0071 34.9798C39.5765 35.0571 39.1474 35.1355 38.7303 35.2514L36.2278 36.1172L35.3755 36.5233C35.189 36.6168 35.0056 36.7178 34.8047 36.776C34.5661 36.8453 34.6771 37.5417 34.6437 37.8118L36.2213 37.0969C37.2209 36.6688 38.3311 36.3995 39.403 36.2233C39.5915 36.1923 39.8514 36.2193 40.0231 36.1553C40.0246 35.7782 40.0642 35.3496 40.0071 34.9798Z" fill="black"/>
</svg>
