<svg width="48" height="48" viewBox="0 0 48 48" fill="none" xmlns="http://www.w3.org/2000/svg">
<path d="M32.0915 37.5874L27.3219 37.9968C26.9667 38.0199 26.6015 38.0055 26.2448 38.0067L21.1692 37.9981C21.0049 37.992 20.8466 37.9625 20.6836 37.9501L18.6299 37.8309C14.0393 37.4895 6.77447 36.5027 3.16965 33.2878C1.49591 31.7951 1.08894 29.7924 2.62505 28.031C3.92622 26.539 5.87644 25.7182 7.7115 25.0986C7.84331 25.0541 8.56552 24.8867 8.61797 24.8039C8.62838 24.7874 8.68786 23.7967 8.69728 23.7105L9.46013 16.5952C9.48099 16.4069 9.48258 16.2165 9.50799 16.0287C9.99628 12.4175 13.2385 10.16 16.7067 9.97423C17.6509 9.92407 18.6306 10.0372 19.527 10.3432C19.911 10.4743 20.2764 10.6504 20.667 10.7665C22.5166 11.3162 25.0994 11.3346 26.9743 10.858C27.4278 10.7427 27.8528 10.5507 28.29 10.3885C31.7144 9.11848 35.9488 10.6136 37.7046 13.8319C38.2085 14.7553 38.4087 15.5656 38.5262 16.5895L39.3934 24.375C39.4506 24.8406 39.3132 24.7742 39.731 24.9058C42.1293 25.6613 46.3663 27.3439 46.3082 30.4451C46.2393 34.124 39.9709 36.0272 37.1227 36.7146L33.3164 37.415C32.9104 37.4779 32.5011 37.5521 32.0915 37.5874ZM16.7728 11.5174C14.5725 11.6152 12.3328 12.8174 11.438 14.8957L11.1256 15.6772C12.9347 18.2419 17.8931 18.6058 20.7046 18.7745L21.7439 18.8524L26.2742 18.8512L27.936 18.748L30.8804 18.4043C31.1875 18.3585 31.5236 18.3198 31.8213 18.2327C33.4589 17.9237 35.8027 17.1708 36.7797 15.7762L36.8336 15.6899C35.9178 12.4886 32.2635 10.8739 29.1563 11.7362C28.7477 11.8496 28.3618 12.0311 27.965 12.1776C26.0063 12.9009 22.5512 12.941 20.601 12.3451L19.467 11.9373C18.5739 11.6262 17.717 11.4969 16.7728 11.5174ZM10.8671 17.6327C10.8056 18.0046 10.8047 18.3905 10.7641 18.7666C10.6777 19.5677 10.4282 19.5862 11.106 20.1164C12.4115 21.1376 15.0677 21.8955 16.7627 22.1293L20.1386 22.5417C20.2892 22.5547 20.4341 22.5894 20.5851 22.5982L27.1875 22.6023C27.3353 22.5945 27.4745 22.5528 27.6187 22.5424L30.1444 22.3056C32.1586 22.0209 35.2457 21.3862 36.8653 20.1574L37.1423 19.9167C37.2133 19.842 37.2814 19.7692 37.3413 19.6849L37.1704 18.0583C37.1551 17.9267 37.1517 17.7881 37.1134 17.6608L36.5485 18.0775C34.3308 19.582 30.3325 20.2149 27.6316 20.3334L23.0203 20.4113L20.5781 20.3294C17.5218 20.1769 13.2286 19.6643 10.8671 17.6327ZM37.5584 21.4333C36.007 22.8432 31.2781 23.7948 29.3097 23.9907L26.5351 24.1779L21.4115 24.1733L18.8203 23.983L16.9102 23.7162C14.6691 23.3597 12.3865 22.7788 10.4424 21.5696C10.3988 21.8647 10.3954 22.1607 10.3633 22.457L10.289 23.0844C10.2518 23.4462 10.4009 23.47 10.6853 23.6764C12.6451 25.1168 16.1583 25.7845 18.5273 26.0929L22.1602 26.4442L26.1558 26.4447L28.7206 26.231L31.3125 25.857C32.8121 25.5732 36.8447 24.564 37.6992 23.3104C37.7636 23.2159 37.7209 23.0572 37.7159 22.9451L37.6199 21.7849C37.6111 21.6897 37.6223 21.5863 37.6032 21.4932L37.5584 21.4333ZM38.0086 25.0259C35.0381 26.9744 31.3687 27.5883 27.882 27.8599L25.6747 28.0006L22.8623 28.0061L20.857 27.9146C17.8274 27.7233 14.655 27.2352 11.841 26.0505L10.4723 25.3635C10.3711 25.305 10.2212 25.1967 10.1073 25.1742C9.98569 25.7202 9.74696 27.5906 9.83203 27.987L9.83794 28.0163C9.89911 28.3114 10.1445 28.6336 10.3531 28.8451C12.5135 31.0222 17.8287 31.6976 20.7422 31.8828L21.6328 31.9117C21.995 31.9312 22.3498 31.9697 22.7136 31.9711L25.745 31.9655L28.8738 31.7291C31.1806 31.4889 33.5144 31.0895 35.6508 30.1521C36.6141 29.7294 38.2527 28.8401 38.2581 27.5983L38.0086 25.0259ZM39.6499 26.4696C39.7219 27.3541 39.8304 28.1545 39.4362 29.0018C38.5195 30.9719 35.6687 31.9322 33.7416 32.4512L32.5313 32.7668C31.8489 32.9186 31.1605 33.0169 30.4686 33.1116L27.6498 33.4102C27.465 33.4227 27.2837 33.4609 27.0991 33.4706L21.1943 33.4766C20.9467 33.4654 20.7038 33.4084 20.4563 33.3913C17.2819 33.1714 9.60966 32.2285 8.42227 28.4702L8.28666 27.9097C8.19164 27.452 8.35256 26.9629 8.37455 26.5058C7.88906 26.621 7.42688 26.8213 6.96952 27.0178C4.30045 28.1644 1.11521 30.1915 4.94002 32.7604C6.73674 33.9129 8.74852 34.6025 10.8124 35.1042L13.1838 35.6182L16.3848 36.0844L19.1836 36.3339C19.3218 36.3434 19.456 36.3707 19.5953 36.3782L21.5654 36.4625L26.2814 36.4609C26.5095 36.4515 26.7317 36.4054 26.9633 36.4021L28.2247 36.3912C28.4415 36.3883 28.6829 36.4038 28.8955 36.3593L28.9457 36.3468C29.2241 36.2788 29.553 36.2996 29.8409 36.2707L32.4141 35.9822C35.7541 35.5308 40.1582 34.7298 43.0147 32.7731C46.89 30.1183 43.6827 28.0572 40.7578 26.8797L39.6499 26.4696Z" fill="black"/>
</svg>
