<svg width="48" height="48" viewBox="0 0 48 48" fill="none" xmlns="http://www.w3.org/2000/svg">
<path d="M30.4 38.1965L30.2577 38.2192C29.362 38.4069 26.9566 38.394 26.5199 37.6125C26.4101 37.416 26.4396 37.2169 26.4015 37.0065C26.2577 36.2114 25.7743 35.4414 25.4171 34.7294C25.1074 34.1124 24.4474 32.891 23.581 33.3536L23.5531 33.3688C22.4382 33.9625 21.9225 35.8215 21.6842 36.9457C21.6316 37.1935 21.6631 37.4648 21.5754 37.7021L21.563 37.7346C21.4349 38.077 21.1612 38.183 20.8123 38.2207C16.7233 38.6627 10.3241 37.0797 6.55057 35.1254C5.94528 34.8119 5.37317 34.4451 4.81217 34.0599C4.16213 33.6136 3.54169 33.4427 3.74775 32.5549L4.58204 29.5825C4.76449 28.9396 4.82135 28.5596 4.9294 27.9275L5.22682 26.5398C5.78023 24.1856 6.63223 21.9047 7.74588 19.7605C8.06051 19.1548 8.38109 18.5699 8.64406 17.9382L9.31531 16.1137C9.51462 15.4999 9.66724 15.1885 10.3276 15.1884L11.1613 15.2012L11.1664 12.4098C11.1638 11.5735 11.6592 11.1048 12.4489 10.9031L34.4153 10.8939C35.296 10.8936 36.2666 10.7892 36.6932 11.7765L36.7036 11.801C36.9073 12.233 36.8375 12.7183 36.838 13.1836L36.8399 15.1699C36.8824 15.2339 37.8645 15.1521 38.0494 15.2267L38.074 15.2374C38.5256 15.4322 38.5819 15.8629 38.733 16.2702L39.5843 18.4556L40.7608 20.8051C40.9336 21.1598 41.131 21.5327 41.2613 21.905L42.1702 24.5041L42.8319 27.0175C42.9486 27.6714 43.1327 28.3105 43.2735 28.9586L43.4152 29.5954C43.4975 29.9114 43.6137 30.2365 43.6717 30.5573L44.1377 32.3322C44.5377 34.0553 43.5573 35.017 41.824 35.1588L40.807 35.2555C38.0443 35.5069 36.5242 36.3684 33.986 37.3189C32.834 37.7504 31.6177 38.0342 30.4 38.1965ZM13.5875 12.3649C13.2511 12.3661 12.8808 12.3362 12.549 12.3816C12.4974 12.9893 12.5355 13.6268 12.536 14.2375L12.5367 14.8615C12.5369 14.9667 12.5258 15.0869 12.5464 15.1897L14.3728 15.1885L15.2667 15.1864L15.2791 12.3712L13.5875 12.3649ZM16.7091 12.3632C16.6931 12.5474 16.7079 12.7275 16.7081 12.9133L16.7 14.7656C16.6984 14.9 16.6786 15.0601 16.7115 15.1898L22.5228 15.1876C22.7712 15.1873 23.0305 15.2032 23.2769 15.1759L23.2724 15.1517C23.1992 14.7245 23.2039 14.18 23.6482 13.9682L23.6862 13.9498C24.0904 13.7621 24.5239 14.0671 24.8635 14.2639L25.8772 14.9056C25.9925 14.9851 26.0983 15.0992 26.2163 15.1681C26.3204 15.2288 29.6809 15.1885 30.0349 15.1885L31.2867 15.1861L31.2881 13.2479C31.2875 12.9656 31.3155 12.6475 31.2769 12.3707L16.7091 12.3632ZM35.0797 12.3633L32.7113 12.3759L32.7166 15.1905L33.1402 15.1907L35.4386 15.1974L35.4423 12.6702C35.4404 12.5756 35.4469 12.4708 35.4205 12.3794L35.0797 12.3633ZM24.8564 16.5362L24.7821 16.555C24.7778 16.77 24.8142 16.9796 24.8235 17.1937L24.8499 18.4735C24.8563 18.6335 24.8901 18.7907 24.8961 18.9513L24.9051 22.2132C24.9048 22.5196 24.9364 22.8352 24.6851 23.064C24.4161 23.3088 23.9337 23.3389 23.6814 23.051C23.4673 22.8067 23.4642 22.4522 23.4637 22.1462L23.4611 18.7299C23.4507 18.0269 23.3656 17.332 23.3627 16.6262L13.6051 16.6292L13.5453 17.249C13.0857 20.7945 10.8727 24.1904 7.37839 25.3509C7.05143 25.4595 7.06343 25.356 6.95993 25.6702L6.67924 26.5438C6.53112 27.0113 6.50417 27.5913 6.47431 28.0757C6.41543 29.0303 6.19423 29.5191 5.89803 30.4263L5.22823 32.5407C6.39195 33.6471 9.1339 34.6805 10.628 35.1711C14.0564 36.2968 16.6396 36.821 20.2314 36.7329L20.3363 36.7279C20.5699 34.9387 21.8955 31.4393 24.2224 31.8135L24.3578 31.8422C24.9211 31.969 25.3204 32.1587 25.7232 32.5853C26.251 33.1111 26.5141 33.7617 26.8529 34.4075C27.2691 35.2009 27.481 35.4918 27.79 36.4004C27.8266 36.5081 27.8331 36.6574 27.8891 36.7517C29.7934 36.9285 31.7214 36.5808 33.5058 35.9186L36.0881 34.8634C37.5699 34.2857 39.1507 33.8724 40.7428 33.7666C41.5057 33.7159 43.0856 33.9192 42.7796 32.6721L41.5662 27.6768C41.3942 26.9319 41.2119 26.1676 40.9563 25.4466C37.4651 24.5151 35.1206 21.1434 34.5176 17.713L34.4266 17.1248C34.4108 16.9733 34.434 16.7601 34.3754 16.6248L27.4899 16.6293C28.6899 19.3634 27.4186 20.4014 27.2753 23.0057C27.2556 23.3644 27.3581 24.823 27.2354 25.0241L27.1747 25.112C26.8075 25.6351 26.2272 25.3962 25.9304 24.9249C25.7976 24.7141 25.8622 22.7195 25.9052 22.3576C26.0292 21.313 26.3772 20.4161 26.5246 19.4381C26.6599 18.5406 26.4236 17.1446 25.6255 16.5657C25.3722 16.5308 25.1117 16.5389 24.8564 16.5362ZM10.8648 16.6202L10.6639 16.6421C10.5877 16.7433 10.5528 16.906 10.5108 17.0258L9.9132 18.5861L8.89151 20.6584C8.40457 21.6242 7.94642 22.602 7.63203 23.6394C7.94346 23.5098 8.25017 23.3306 8.53821 23.1553C10.5066 21.7995 11.6274 19.74 12.0594 17.4025L12.1756 16.6393L10.8648 16.6202ZM35.8435 16.6233C35.8979 17.1962 35.9398 17.7893 36.1325 18.3363L36.4099 19.2233C37.1826 21.1116 38.4679 22.7785 40.3678 23.6451C40.126 23.0163 39.925 22.3805 39.6401 21.7681C39.133 20.6782 38.5235 19.6382 38.0618 18.5275C37.9672 18.3001 37.4029 16.6934 37.3663 16.6664C36.8689 16.5918 36.3454 16.6227 35.8435 16.6233Z" fill="black"/>
</svg>
