<svg width="48" height="48" viewBox="0 0 48 48" fill="none" xmlns="http://www.w3.org/2000/svg">
<path d="M26.581 35.9084C26.2987 35.1198 26.1011 34.277 25.8825 33.4677L24.7619 29.2205C24.6568 28.7784 24.4367 27.7638 23.7189 28.1758C23.2723 28.4322 23.2166 29.244 23.1117 29.6884L21.841 34.4412C21.8007 34.6067 21.7354 34.7712 21.684 34.9334L21.0197 37.1842C20.3372 39.361 17.4713 39.5981 15.5457 39.462C13.2966 39.303 11.2278 38.3605 9.36179 37.1366C8.32637 36.4574 8.25212 36.4049 8.43395 35.1795L10.4304 18.4568C10.4501 18.2879 10.4852 18.1223 10.4998 17.952C10.5793 17.0266 10.5002 16.2826 10.6347 15.2972C10.8921 13.4113 12.4917 8.70083 14.8386 8.54061C15.5107 8.50353 15.9166 8.89977 16.5224 9.09163C17.5098 9.40428 18.4698 9.43799 19.4934 9.48421L23.1095 9.72467C24.103 9.78599 25.129 9.7318 26.1095 9.56164C26.6421 9.46921 26.5065 9.41975 27.0899 9.45772L27.6322 9.46602C28.8765 9.46691 30.5383 9.452 31.7189 8.98705C32.0702 8.84872 32.3603 8.58819 32.7488 8.54961L32.7892 8.54596C34.4285 8.38639 35.3514 10.2064 35.9999 11.4256L36.5373 12.6795C36.6788 13.1032 36.8134 13.6243 36.9545 14.0133L36.9635 14.0375C37.138 14.541 37.1791 15.113 37.2956 15.6326C37.426 16.214 37.3477 16.7807 37.4182 17.367L38.3447 25.4646L39.5671 35.2498C39.7547 36.3073 39.6671 36.445 38.7962 37.0256C37.5797 37.8364 36.2595 38.5403 34.8635 38.9875C32.9217 39.6096 30.2119 39.7713 28.3663 38.7917C27.4143 38.2864 27.1933 37.8673 26.8972 36.9219L26.581 35.9084ZM14.8842 10.0803L14.6876 10.1389C14.6419 10.1592 14.6061 10.1876 14.5666 10.2174L14.535 10.2405C14.2698 10.44 14.0599 10.7378 13.8839 11.0149L19.78 12.0901L20.6569 12.1982L20.455 11.0418L17.8556 10.8936C17.2558 10.8372 16.6825 10.7679 16.1123 10.5643L15.558 10.3426C15.3718 10.2577 15.0872 10.0695 14.8842 10.0803ZM32.9797 10.0787C32.618 10.1936 32.3038 10.4175 31.9316 10.5276C30.8166 10.8578 29.5695 10.9374 28.4101 10.9641L27.4472 11.0138C27.3783 11.4209 27.2455 11.8477 27.236 12.2602L28.1718 12.1476L32.6134 11.3678C33.0891 11.2595 33.5897 11.1994 34.0429 11.0082C33.8305 10.6432 33.4388 10.1106 32.9797 10.0787ZM25.8354 11.1443C24.7674 11.2478 23.9343 11.2446 22.8517 11.2294C22.5706 11.2255 22.2957 11.1717 22.0138 11.1808L22.2232 12.3031C22.2314 12.3601 22.2503 12.4084 22.2717 12.4613L22.4323 12.4872L23.1066 12.5481C23.4709 12.1834 23.9271 11.9332 24.3456 12.379L24.4701 12.5189L25.1486 12.4691C25.3266 12.4557 25.5147 12.4589 25.6883 12.4157L25.8354 11.1443ZM13.0952 12.3473C12.6803 13.1359 12.3682 14.0884 12.2023 14.9684L12.0958 15.5154C12.0482 15.8418 11.9923 16.1668 11.9871 16.4962L11.9802 17.3023C11.9774 17.8296 12.0509 17.7743 12.4059 18.1239L12.8455 18.5269C14.5615 20.0558 17.6274 21.3356 19.7333 22.1296C20.7005 22.4943 21.6949 22.8127 22.6406 23.229C24.6741 24.1243 23.3497 24.1036 25.3552 23.2505L28.0516 22.2111C30.1987 21.3448 33.8901 19.6658 35.5869 18.0056C35.9903 17.603 35.9282 17.7804 35.929 17.1974C35.931 15.5792 35.4889 13.8155 34.8043 12.3628C34.2254 12.5809 33.6224 12.7204 33.0195 12.8523L29.1681 13.5714L24.5876 14.0015C24.5619 14.4075 24.573 14.8197 24.5725 15.2265V17.9649C24.5724 18.0953 24.5849 18.2528 24.5596 18.3804C24.3994 19.189 23.2916 19.0443 23.1279 18.3162L23.1219 18.292C23.0882 18.147 23.105 17.9717 23.1054 17.8221L23.1097 14.0263C22.2281 13.9879 21.349 13.8164 20.4748 13.702L19.1721 13.5613L13.6659 12.5194C13.4776 12.4693 13.2737 12.4248 13.0952 12.3473ZM36.1536 19.5511C34.6901 20.7152 33.049 21.6176 31.3677 22.4278L29.3552 23.3312C28.7179 23.5911 24.9732 24.946 24.7315 25.2944L24.7274 26.1835C24.7276 26.3659 24.7133 26.5609 24.7502 26.7401C25.4275 27.1408 25.8651 27.576 26.0629 28.3592L26.4479 29.9163L28.0801 35.742L28.3194 36.4402C28.3452 36.5601 28.3921 36.6807 28.4341 36.7961L28.504 36.991C28.5392 37.096 28.6008 37.1531 28.6897 37.213C29.9088 38.0347 31.6366 38.1145 33.0586 37.8477L33.8036 37.6978C35.3797 37.4071 36.7975 36.4935 38.1293 35.6461C38.1093 35.3372 38.0428 35.0146 37.9998 34.7065L36.4037 21.7181C36.3873 21.5991 36.3895 21.477 36.3765 21.3572L36.231 20.1078C36.2072 19.9185 36.1967 19.738 36.1536 19.5511ZM11.7948 19.6521C11.7114 20.0102 11.721 20.3904 11.6775 20.7549L10.0369 34.3838C9.9812 34.7965 9.94782 35.1982 9.83682 35.6023C10.2034 35.9118 10.6405 36.1477 11.055 36.3882C13.3188 37.7013 16.9713 38.7783 19.3647 37.1802C19.5202 37.0764 19.6241 36.562 19.6901 36.3752L21.6553 29.3553C21.8785 28.4176 22.0645 27.356 23.0044 26.8478L23.1272 26.7976C23.3263 26.7185 23.2552 26.4638 23.2553 26.2947L23.2536 25.2484C22.8306 24.838 20.2252 23.959 19.5523 23.6993L16.974 22.658C15.8256 22.1754 14.2999 21.3965 13.2586 20.7056L11.9524 19.7594C11.9099 19.7244 11.8489 19.6649 11.7948 19.6521Z" fill="black"/>
</svg>
