<svg width="48" height="48" viewBox="0 0 48 48" fill="none" xmlns="http://www.w3.org/2000/svg">
<path d="M30.732 38.6697C30.2865 38.7447 29.0819 38.7422 28.6153 38.6916C27.2415 38.5427 26.1639 37.3169 26.3576 35.9183L26.3629 35.8831C26.396 35.638 26.5413 35.358 26.503 35.1126L26.2631 33.8456C25.9808 32.5824 24.6552 30.1779 23.6475 29.5384C22.67 30.4079 22.1771 32.8712 22.032 34.0812C21.9033 35.1542 21.7895 35.7851 21.4975 36.8675C21.1149 38.2853 20.8233 38.7778 19.371 38.9208C17.6671 39.0886 15.5762 38.5962 13.9455 38.0949C12.5836 37.6761 11.7524 37.3906 10.3261 37.1513L8.28347 36.8469L4.59031 36.4776C3.5415 36.3829 3.49182 36.1313 3.4917 35.2337L3.5015 32.0159L3.63837 30.1563C3.95387 25.5815 4.96041 21.1102 6.96347 16.969L7.5022 15.8782C7.97081 14.8841 7.89047 13.8122 7.72505 12.7487C7.52714 11.4759 8.61834 9.31895 10.0107 9.10084C10.5701 9.04843 10.7425 9.18507 11.2267 9.43201L11.8425 9.71359C14.0283 10.6852 16.2721 10.895 18.6162 10.8949L19.6969 10.8915C20.1214 10.8872 20.6977 10.8209 21.1215 10.7656C21.7204 10.6875 22.3243 10.5496 22.9242 10.4948C23.9176 10.4042 25.0257 10.4441 26.0061 10.6311C27.4825 10.9126 28.6364 10.8992 30.1281 10.8942L30.9045 10.8862C31.2123 10.8765 31.5212 10.8227 31.8279 10.7862L32.5429 10.6841C33.8422 10.4895 35.1985 10.1232 36.408 9.61412C36.7438 9.47274 37.0656 9.25463 37.4096 9.14242C38.7841 8.6941 39.7566 10.4125 40.1249 11.4612C40.2983 11.9547 40.3301 12.558 40.2711 13.0784L40.1213 13.9961C40.0874 14.2819 40.0394 15.0002 40.1593 15.2651L42.1251 19.608L42.9206 21.8881L43.3198 23.389C43.4182 23.8334 43.5456 24.2752 43.634 24.7215L44.02 26.9745L44.4346 31.4547C44.4449 31.6497 44.4828 31.8457 44.4901 32.0394L44.5366 35.3558C44.5468 35.7686 44.6295 36.0263 44.2237 36.2901L44.1873 36.313C44.0232 36.419 43.852 36.3594 43.6694 36.3854L36.9311 37.4238L33.9853 38.0619C33.4083 38.2017 32.8589 38.3807 32.2715 38.4875C31.7595 38.5806 31.247 38.6076 30.732 38.6697ZM10.1923 10.7294L9.8707 11.0599C10.7348 11.468 11.4785 11.7282 12.4084 11.9723L13.9687 12.3519L17.4656 12.8349L19.5265 12.9694C19.7385 12.9822 19.9443 13.0221 20.1562 13.0324L22.3817 13.1193L26.0918 13.1221L28.3827 13.0281C28.5306 13.0186 28.6758 12.9881 28.8236 12.9759L30.9491 12.7742C32.5194 12.6106 34.0343 12.3979 35.5526 11.9679L38.0976 11.1369L38.1728 11.0979C38.1723 10.9516 37.96 10.8167 37.8497 10.7499C37.4143 10.9014 37.0145 11.1396 36.5837 11.3048C33.8565 12.3498 31.4573 12.596 28.6054 12.5079C28.1718 12.4946 27.7326 12.4927 27.301 12.4466C25.82 12.2884 24.4884 11.971 22.9687 12.1336C22.6732 12.1652 22.383 12.2334 22.0898 12.2792L20.8827 12.4249C17.7053 12.7026 13.7282 12.429 10.8758 11.0733L10.1923 10.7294ZM9.31195 12.5979C9.30277 12.673 9.29962 12.7262 9.31978 12.7991L9.40617 13.2879C9.46017 13.5076 9.45005 13.7477 9.45211 13.9729L9.4567 14.8213C9.68011 14.9242 9.9337 14.9746 10.1732 15.0308L11.0201 15.2266C12.724 15.6111 14.4422 15.8022 16.1775 15.9749L17.5613 16.0944C17.822 16.1173 18.0878 16.1586 18.3484 16.169L28.9804 16.1736L33.5236 15.8357C35.038 15.682 37.0731 15.2853 38.5135 14.845L38.5301 13.9164L38.7067 12.6405L36.6562 13.3537C35.4849 13.7058 34.2569 13.983 33.0503 14.1842L28.161 14.694L26.9607 14.7173C26.7539 14.7245 26.5534 14.7722 26.3456 14.7794L22.5285 14.7808C22.2875 14.7751 22.0496 14.7252 21.8082 14.7175L19.8573 14.6763L15.0819 14.2146C13.2188 13.9299 11.0131 13.4008 9.31195 12.5979ZM9.0503 16.4238L8.0625 18.4573C7.52194 19.7002 7.04423 20.9901 6.65733 22.2894L5.81433 25.6058L5.39109 28.5316C5.33456 28.9754 5.26523 29.445 5.27601 29.8925C8.03353 30.2005 10.6536 30.9431 13.2482 31.9109L16.0194 33.0946C17.3829 33.6559 18.9556 34.0762 20.4415 34.1383C20.5309 32.3338 20.9049 30.7006 21.9465 29.2127C23.0002 27.7073 23.8073 27.2153 25.2868 28.8046C26.1128 29.6919 26.9959 31.0676 27.4101 32.2351L27.7411 33.1885C27.8136 33.465 27.8829 33.7473 27.9596 34.0225C29.158 34.0727 30.3412 33.6763 31.4589 33.2901L36.8554 31.4066C37.3671 31.2398 37.884 31.0466 38.4081 30.9241L42.6836 29.9518C42.3961 26.5367 41.8907 23.4757 40.6344 20.2537L38.9441 16.4648L36.0585 17.1021C34.6566 17.3718 33.2419 17.5254 31.8206 17.6373L29.0624 17.7942L25.0481 17.7996C24.1937 17.8001 24.349 17.634 24.3478 18.585L24.3473 19.8055C24.3475 20.7312 24.3018 21.6837 24.3815 22.6058C24.4252 23.1117 24.6455 23.9517 24.6079 24.4178C24.5518 25.1137 23.5543 25.2592 23.1729 24.7088C23.0311 24.5042 22.9953 24.2289 22.9613 23.9872L22.7256 21.5898L22.7181 19.6292C22.7181 19.028 22.6963 18.416 22.7592 17.8174L19.1171 17.7956L16.7362 17.6454C14.8965 17.5119 13.0869 17.3087 11.2771 16.9411L9.72647 16.5931C9.5048 16.5396 9.26377 16.5009 9.0503 16.4238ZM5.16131 31.5437C5.10516 32.0203 5.12939 32.5093 5.12911 32.9886L5.12812 34.8996C5.13272 34.9033 8.21442 35.1647 8.50772 35.2101L10.5348 35.5295C11.113 35.6276 11.7005 35.7166 12.2705 35.8555C13.2615 36.097 14.2094 36.4671 15.1874 36.7493C15.7806 36.9204 19.3343 37.7065 19.7109 37.1722L19.759 37.0826L20.1142 35.7508L18.996 35.6004C16.6267 35.2298 15.2555 34.4844 13.0723 33.5859C10.6502 32.5891 7.75683 31.7683 5.16131 31.5437ZM42.7768 31.6058C41.9636 31.6877 41.1654 31.9074 40.3944 32.1004L38.7198 32.5269L33.696 34.2107C32.1024 34.7893 30.5825 35.4522 28.875 35.6038C28.6221 35.6262 28.3658 35.6183 28.1137 35.6471L28.0665 35.7944C27.9084 36.2638 27.9461 36.5927 28.3125 36.9105L28.4851 36.9959C28.6658 37.0849 28.9527 37.0552 29.1523 37.0582C30.9763 37.0851 32.1663 36.837 33.9152 36.3963L38.6132 35.463L42.8313 34.8858L42.7768 31.6058Z" fill="black"/>
</svg>
