<svg width="48" height="48" viewBox="0 0 48 48" fill="none" xmlns="http://www.w3.org/2000/svg">
<path d="M34.5542 31.8443L33.4764 32.3305C31.8018 33.0991 28.8935 34.8438 28.5099 36.7329C28.4795 36.8824 28.4739 37.0347 28.4185 37.1788L28.3748 37.2854C28.1662 37.7092 27.8117 37.7581 27.396 37.759L20.3606 37.7579C19.6266 37.7239 19.567 36.9604 19.4124 36.4879C18.7932 34.5956 16.3141 33.2036 14.6299 32.3845C12.1902 31.1981 9.49226 30.3883 6.76508 30.2912C5.59001 30.2494 4.76131 30.6398 4.56952 29.1091L4.4743 28.0172C4.28747 24.7748 4.92434 21.4724 5.97528 18.4129L6.91292 16.0003C7.13126 15.5073 7.10005 15.7028 7.0993 15.1394L7.09869 13.4989C7.09887 12.9895 6.97278 12.3327 7.62509 12.1709L40.1434 12.174C40.2818 12.1763 40.4218 12.1666 40.5424 12.2452L40.5692 12.2635C41.0171 12.5618 40.9148 13.0624 40.916 13.5347L40.9085 15.0527C40.9021 15.7196 40.9364 15.6485 41.188 16.2321L41.7194 17.5786C41.9529 18.1214 42.1015 18.7041 42.2819 19.2661L42.5635 20.2153C42.5876 20.2986 42.6213 20.3744 42.6393 20.4603L42.8268 21.1762C42.907 21.646 43.0271 22.1263 43.1257 22.5942L43.5116 25.5321L43.5368 27.0659C43.5375 27.8166 43.5374 28.5375 43.4332 29.2827C43.3214 30.0819 43.1172 30.2853 42.3571 30.288L41.4397 30.2948C41.2778 30.3006 41.1203 30.3306 40.9594 30.3436L40.3596 30.3735C38.4617 30.4946 36.2745 31.0992 34.5542 31.8443ZM8.51197 13.6508L8.50189 14.748C8.50198 14.838 8.47812 15.039 8.51703 15.1148L39.4909 15.0713L39.489 13.6591L8.51197 13.6508ZM9.36172 16.562C9.22194 16.5629 8.23976 16.5448 8.19978 16.5803C8.12848 16.6438 8.1087 16.7812 8.07444 16.8703L7.45114 18.4341L6.49419 21.6789L6.1459 23.4621C5.96426 24.5027 5.86714 25.4818 5.86278 26.5345L5.8789 28.3182C5.88509 28.5079 5.89573 28.7018 5.96919 28.8778L6.52756 28.8828L7.54433 28.8926C7.54264 28.2149 7.60615 27.5505 7.67895 26.8783L8.52912 21.9014L9.97901 16.5554L9.36172 16.562ZM12.7091 16.5639L11.4967 16.5663C11.4178 16.6869 11.4217 16.815 11.3783 16.9473L11.1401 17.6435C10.7525 18.7889 10.4654 19.9579 10.173 21.1292C9.58606 23.4805 8.8918 26.6657 8.96126 29.0986L10.9793 29.469L11.2854 28.6822L15.2618 18.0396C15.436 17.5541 15.644 17.0556 15.7733 16.5573L12.7091 16.5639ZM17.3107 16.5615L12.534 29.3481C12.468 29.5257 12.3754 29.7115 12.352 29.9004L13.3688 30.2794L16.7964 31.8981C17.2389 32.1583 17.6691 32.4563 18.088 32.7525C19.2222 31.2046 20.6034 30.3974 22.5354 30.1194L23.1622 30.0461C23.4193 30.0006 23.7044 30.02 23.9654 30.0201C25.9192 30.0211 28.1719 30.6048 29.4303 32.1886L29.8824 32.8063C31.3615 31.6768 33.5729 30.5854 35.3729 30.0072L35.6585 29.8964L33.5591 24.4455L30.8629 16.9251C30.8222 16.8043 30.8025 16.682 30.7422 16.5691L24.7257 16.5705C24.6965 16.8412 24.709 17.1103 24.7078 17.3818L24.6999 25.1643C24.6992 25.4856 24.7102 25.8134 24.6806 26.1333L24.678 26.1645C24.6131 26.7369 23.6058 27.0822 23.3107 26.042C23.2274 25.7484 23.2718 25.3617 23.2713 25.0548L23.2707 16.5656L17.3107 16.5615ZM33.4598 16.565L32.2326 16.5648L32.8338 18.3637L36.5188 28.2192C36.6866 28.6272 36.7844 29.1075 37.0197 29.4817C37.2229 29.489 37.4782 29.3985 37.6796 29.355L39.0191 29.1276C39.0141 25.2242 37.7645 20.2506 36.524 16.5554L33.4598 16.565ZM37.9618 16.558L38.1947 17.178L39.1965 20.7353C39.2222 20.8719 39.2635 21.0122 39.2949 21.1484L39.5767 22.4114C39.933 24.0062 40.2102 25.6181 40.36 27.2466L40.4067 28.1497C40.4112 28.4038 40.4048 28.6664 40.4475 28.9172L40.49 28.9112C41.0101 28.8421 41.5837 28.8812 42.1092 28.8828L42.1361 26.2482C42.1289 25.8678 42.1443 25.4751 42.0786 25.1L41.8998 23.6782L41.4221 21.3276C41.1292 20.1734 40.7614 19.0406 40.3386 17.9279L39.7866 16.5621L37.9618 16.558ZM23.612 31.4864C22.0805 31.5252 20.4052 31.9705 19.484 33.296L19.2233 33.6896C19.8267 34.3698 20.5455 35.1394 20.7796 36.045C20.799 36.1202 20.8073 36.2414 20.8577 36.2977L24.4338 36.2986L26.8825 36.3018C26.9829 36.3054 27.0872 36.3237 27.1843 36.294C27.3394 35.387 28.0373 34.3498 28.7544 33.7561C27.9228 32.1455 26.0974 31.5112 24.38 31.4894L23.612 31.4864Z" fill="black"/>
</svg>
