<svg width="48" height="48" viewBox="0 0 48 48" fill="none" xmlns="http://www.w3.org/2000/svg">
<path d="M10.5783 34.4306C9.4056 33.8278 7.60363 33.052 6.26727 32.8939C5.62878 32.8184 4.60862 33.1761 4.22943 32.8842C3.77312 32.5329 3.8195 29.9906 3.87387 29.2263C3.93579 28.3558 4.09022 27.5095 4.2162 26.6482L4.77927 22.0809C4.80613 21.7165 4.77036 21.3359 4.82868 20.9753L5.24436 18.7732C5.40046 17.755 5.36732 16.7176 5.36469 15.6899L5.3548 14.8375C5.34135 14.3657 5.26958 13.7828 5.22018 13.3082L4.99086 11.6482C4.91952 11.1411 5.111 10.606 5.73289 10.7496L5.76552 10.7576C5.93793 10.799 6.09093 10.8827 6.2563 10.9438L7.12874 11.2392C9.56258 11.9917 12.0164 12.3857 14.5527 12.5807L18.6831 12.7556C19.3001 12.7556 19.9317 12.7811 20.5466 12.7446C20.9924 12.7181 21.4404 12.6285 21.8861 12.5899L22.879 12.4802C23.0571 12.4607 23.2599 12.5122 23.3557 12.3408C23.6298 11.8508 24.1437 11.5935 24.5256 12.1731C24.7265 12.4779 24.9973 12.3443 25.4246 12.3653L26.7453 12.4868C26.9625 12.5129 27.2172 12.5244 27.4243 12.5945C27.8189 12.7281 27.5202 12.7473 28.1249 12.7525L30.8356 12.7489L36.093 12.2248C37.9444 11.9765 39.8473 11.6906 41.5855 10.9769C41.7922 10.892 41.9867 10.7909 42.1982 10.7145C42.5502 10.6827 42.896 10.7814 43.0031 11.1663L43.0094 11.1912C43.09 11.492 42.9742 11.8578 42.9338 12.1596L42.7597 13.5273C42.7224 13.8705 42.6676 14.343 42.6471 14.6853L42.6406 17.4726C42.6597 18.0181 42.7377 18.9273 42.8436 19.4295C42.9649 20.0042 43.0935 20.5708 43.159 21.1552L43.2286 22.1532L43.9218 27.5623C44.0696 28.405 44.1238 29.2246 44.1229 30.0818L44.1165 31.292C44.0946 31.829 44.0786 32.903 43.4836 33.0073L43.4559 33.0115C43.1633 33.0602 42.769 32.9499 42.4697 32.9201C40.6212 32.736 39.1001 33.4797 37.544 34.3682L34.4724 36.2089C32.4749 37.3001 30.6651 37.2957 28.4636 36.933C27.8968 36.8397 27.0332 36.7718 26.6768 36.2664L26.6536 36.2328C26.4608 35.9638 26.5821 35.3967 26.5406 35.0645C26.3487 33.5251 25.017 31.6398 23.3042 32.2841L23.2733 32.296C22.1582 32.7023 21.8142 33.6447 21.5023 34.6367C21.3445 35.1387 21.5853 35.914 21.3755 36.32C20.9501 37.1431 18.7035 37.2006 17.9439 37.2006C15.5984 37.2006 14.5114 36.7139 12.6246 35.5816L10.5783 34.4306ZM41.5548 12.4015L40.3892 12.7883C39.4996 13.047 38.3246 13.2934 37.4081 13.3953L37.5534 16.1671C37.5969 16.5677 37.67 17.0067 37.8294 17.3787L37.9036 17.5591C38.2108 18.2297 38.5748 18.8716 39.1326 19.3695C39.8749 20.0629 40.7212 20.5316 41.7396 20.6639C41.3416 18.9294 41.2366 16.4502 41.3511 14.6183L41.4752 13.0702C41.4975 12.8507 41.5498 12.6209 41.5548 12.4015ZM6.43874 12.4064L6.57927 14.0064C6.59291 14.1394 6.62741 14.266 6.63538 14.401L6.65207 17.7698C6.61274 18.6384 6.45191 19.798 6.27196 20.6573C7.29364 20.5395 8.20035 20.0397 8.92757 19.3272C10.5612 17.6392 10.5758 15.6753 10.5703 13.4353L6.43874 12.4064ZM36.0308 13.6521L32.3869 14.0356L27.8589 14.1331C27.7202 14.1334 27.4337 14.0907 27.347 14.1918C27.0703 14.5142 27.1813 14.8011 26.5311 15.1416C25.7283 15.5621 25.7181 15.1398 26.3681 16.3288L27.1569 17.7599C27.336 18.0803 27.5601 18.4158 27.68 18.7615L27.6936 18.7935C27.8869 19.3338 27.1496 19.7286 26.7076 19.473C26.4742 19.338 26.2911 18.8941 26.1574 18.669L25.1245 16.8748C24.9453 16.5509 24.7873 16.2101 24.5817 15.9018C24.5119 16.385 24.5537 16.9106 24.5533 17.3993L24.5507 20.8361C24.55 20.9606 24.5627 21.1147 24.5355 21.2357C24.3816 21.9215 23.2745 21.7639 23.2372 21.1521L23.2325 16.8518C22.8887 17.5154 22.0524 18.9026 21.5083 19.438C20.9449 19.9924 20.039 19.2816 20.4577 18.5799C20.5481 18.4287 20.6891 18.3 20.7972 18.1599C21.4648 17.2945 21.9935 16.3088 22.5295 15.3605L22.5087 15.3584C21.7855 15.2733 20.8617 14.948 20.6878 14.1661C20.6002 14.1276 20.4689 14.1403 20.3717 14.1383L16.8777 14.1226L12.2269 13.7465C12.119 13.737 12.0022 13.7154 11.8945 13.7217C11.8527 14.2792 11.9113 14.8425 11.8744 15.3993C11.8374 15.9566 11.7523 16.5699 11.6229 17.1091C11.0142 19.6473 8.78802 21.9263 6.09852 22.0167L5.89972 23.7241L5.61463 26.3505L8.35297 26.6611C12.5018 27.3868 17.5323 29.5749 20.3323 32.8823L20.5854 33.1536C20.6795 32.952 20.8131 32.7664 20.9404 32.5848C22.6039 30.212 25.3663 30.2879 27.0713 32.6876C27.1777 32.8373 27.2608 32.9989 27.371 33.1472L27.3945 33.1129C27.4806 32.9908 27.6032 32.8784 27.7068 32.7698L28.4524 32.0565C29.3023 31.3127 30.1814 30.6291 31.1372 30.0236L33.4057 28.6836C33.9283 28.3644 34.4016 27.9571 34.9664 27.715C35.5872 27.449 37.0318 27.1193 37.6985 27.0157L40.4647 26.6438C41.1032 26.5877 41.7521 26.5938 42.3928 26.5778C42.4069 26.4826 42.3826 26.3758 42.3718 26.2801L41.8918 22.0373C38.8583 21.8122 36.5418 19.219 36.2103 16.2771C36.1134 15.4174 36.207 14.4315 36.1011 13.6469L36.0308 13.6521ZM22.5162 13.9802C22.6041 14.0234 22.6928 14.0305 22.7886 14.0419L22.8226 14.0271C22.7205 13.9898 22.6253 13.9543 22.5162 13.9802ZM5.37355 27.7254L5.17878 29.2535C5.07922 29.7218 5.11246 31.0234 5.23128 31.5601C6.14286 31.5855 6.55068 31.5646 7.43432 31.7899C9.25513 32.2541 10.9512 33.0736 12.5701 34.0146C13.3318 34.4574 14.0724 34.9801 14.8915 35.3116C16.1506 35.8213 18.3452 36.0602 19.7156 35.6983L19.9175 35.6476C19.9788 35.6298 20.0344 35.6095 20.0922 35.5826L20.1017 35.059C20.1043 34.9088 20.1328 34.7729 20.0403 34.6451C17.396 30.9902 12.8588 28.959 8.55922 28.0753C7.52038 27.8618 6.43344 27.7268 5.37355 27.7254ZM41.9438 27.897L40.4246 28.0041C39.1664 28.1265 36.6057 28.4825 35.4031 28.9663C34.9253 29.1585 34.529 29.5686 34.0921 29.8426L31.3668 31.4738C30.521 32.0405 29.7261 32.673 28.9924 33.3806C28.6019 33.7571 28.2371 34.1828 27.8184 34.5266C27.861 34.8118 27.8673 35.2264 27.912 35.4479C28.2292 35.5581 28.6162 35.6161 28.9506 35.6529C31.4331 36.1173 32.6166 35.7384 34.7228 34.4912L35.9783 33.7603C38.2953 32.3652 40.012 31.327 42.7694 31.6158C42.8055 31.1723 42.8448 30.748 42.8457 30.3018L42.839 29.2954C42.8148 28.8439 42.7676 28.3314 42.6588 27.8957L41.9438 27.897Z" fill="black"/>
</svg>
