<svg width="48" height="48" viewBox="0 0 48 48" fill="none" xmlns="http://www.w3.org/2000/svg">
<path d="M32.4324 32.3337L32.0725 33.2627C31.5134 34.8423 31.1585 36.4355 30.9452 38.093C30.8855 38.5578 30.9607 39.0968 30.3757 39.269C30.0391 39.3682 29.6389 39.3559 29.2879 39.3797L27.0931 39.5419C26.3082 39.6276 25.4822 39.5823 24.6917 39.5829L21.5918 39.5646L18.175 39.2277C17.2695 39.101 17.1243 38.925 17.0525 38.0765L16.9779 37.4693C16.4572 33.7936 14.9787 30.4573 12.6697 27.5503C11.3278 25.8609 10.3711 25.5284 8.38533 25.148L4.17351 24.4823C2.76562 24.3089 2.9946 24.0211 2.99725 22.8396L3.00131 21.5502C3.00415 20.982 3.05666 20.3938 3.13893 19.8306C3.28249 18.8481 3.42874 17.8546 3.70265 16.8977L4.39713 14.9C4.58481 14.4468 4.5884 14.732 4.72097 14.079L5.44294 11.698C5.59154 11.2844 5.63607 11.257 5.63213 10.82C5.6176 9.21017 5.64854 8.74114 7.55733 8.52622C7.97537 8.47916 8.3634 8.45164 8.78583 8.43861L9.8274 8.39844L12.7122 8.52889C13.4629 8.59377 14.226 8.67458 14.9605 8.84717C15.9005 9.06805 16.3731 9.3995 17.4687 9.54809L21.4141 9.88808C21.6014 9.89783 21.7854 9.93561 21.9727 9.94292L27.7284 9.94198L30.1348 9.78266C31.1581 9.70869 32.1909 9.66941 33.209 9.53492L37.484 8.80231C38.6006 8.57408 41.8389 7.81091 42.279 9.47942L42.2881 9.51514C42.4154 9.90612 42.3087 10.808 42.4003 10.9925C42.9581 12.117 42.9604 13.2685 43.3134 14.3667C43.4394 14.7582 43.6805 15.1051 43.7959 15.4958L44.2506 16.8745C44.63 18.0264 44.9206 19.7887 44.9814 21.0379L45.0064 23.6779C45.0073 24.2737 44.6789 24.3896 44.132 24.4825L39.8631 25.0915C39.2038 25.1881 38.4695 25.2211 37.8371 25.4406C36.2572 25.9891 34.2926 28.8327 33.5116 30.1833C33.106 30.8846 32.7809 31.605 32.4324 32.3337ZM9.50616 9.94405L7.44938 10.0744C7.34382 10.0868 7.22733 10.0902 7.12519 10.1189L7.13138 11.1279C7.81426 11.4042 8.64976 11.6097 9.37566 11.7102L10.5314 11.8498C11.6037 12.0312 12.5132 12.533 13.4953 12.9696C14.9502 13.6166 16.614 13.885 18.1801 14.0958L20.7951 14.3793C21.0144 14.3946 21.2313 14.4358 21.4512 14.4455L24.1465 14.4552C24.949 14.4552 25.7654 14.484 26.5659 14.4383C28.7531 14.3135 32.4607 13.8487 34.396 13.0243C34.9728 12.7786 35.5144 12.4488 36.1276 12.2957C36.6364 12.1687 37.1764 12.1624 37.6938 12.0629L40.7395 11.3338C40.8081 11.3206 40.8392 11.2973 40.8915 11.2519L40.8914 10.4298C40.8912 10.3233 40.9152 10.1541 40.8723 10.058C39.7397 9.67227 35.7846 10.7435 34.3567 10.9366L30.7771 11.3017C30.1225 11.3539 29.3345 11.4218 28.6808 11.4304L23.0326 11.5021L20.4031 11.3528C18.9315 11.2651 17.0341 11.2261 15.6278 10.7363C14.2761 10.2655 13.5475 10.1177 12.0688 10.0045L9.50616 9.94405ZM6.76248 12.5977C6.56054 13.0365 6.39699 13.5333 6.28252 14.0034L6.13135 14.7655C7.03754 15.3184 8.40755 15.438 9.4329 15.589L10.3019 15.7456C10.523 15.7852 10.7331 15.9009 10.9357 15.9943L11.7998 16.3798C14.6429 17.5544 18.3057 18.1335 21.3881 18.2874L26.0262 18.3046C26.5856 18.3011 27.4653 18.2453 28.0175 18.1725C30.6189 17.83 33.0808 17.5101 35.5782 16.634C36.2544 16.3968 36.8949 16.0476 37.5772 15.8356C38.1291 15.6642 38.7178 15.6662 39.2692 15.5036L41.4551 14.9864C41.5532 14.962 41.8557 14.9199 41.9156 14.8598L41.4253 12.688C40.4941 13.0768 38.8566 13.4332 37.8399 13.5916L36.8095 13.7311C36.6122 13.76 36.4337 13.7767 36.2461 13.8488L36.2133 13.8609C35.8551 13.9943 35.5144 14.2254 35.1673 14.3918C33.1337 15.3665 29.9021 15.7625 27.7029 15.9554L25.8165 16.1018L21.1464 16.0278C18.727 15.8745 15.2724 15.479 13.0174 14.4644C12.2485 14.1184 11.5351 13.6851 10.711 13.4722C10.2864 13.3624 9.84305 13.3403 9.41021 13.2758C8.52507 13.144 7.59254 12.9395 6.76248 12.5977ZM5.49938 16.2646C4.8916 17.7125 4.58267 19.709 4.48526 21.2948L4.4549 22.8451L7.25551 23.1764C7.36318 23.1951 7.47624 23.2255 7.58579 23.2144L8.64694 17.0051C7.56352 16.874 6.52421 16.638 5.49938 16.2646ZM42.4677 16.3237L40.4086 16.82C40.0727 16.8995 39.7097 17.0115 39.3683 17.0483C39.4599 17.5806 39.4891 18.1209 39.5628 18.6558L39.9062 20.7593C39.9601 21.0695 39.9959 21.3944 40.0727 21.6994L40.2472 22.6221C40.2805 22.7574 40.2602 23.2509 40.4308 23.2378L43.5211 22.8462C43.5207 21.896 43.5078 21.1423 43.4116 20.2036L43.3064 19.4296C43.1493 18.3743 42.8962 17.3483 42.5243 16.3472L42.4677 16.3237ZM10.1051 17.3081L9.04955 23.7377C11.4613 24.0562 12.7891 25.2143 14.2045 27.0698C15.2468 28.4362 16.7604 30.9527 17.268 32.6362L17.3791 32.8921C18.4284 32.501 19.3752 31.7956 20.2403 31.0972C21.6903 29.783 22.5422 28.3857 22.8701 26.4722C22.9568 25.9663 22.9569 25.4505 23.0375 24.9471C23.2267 23.7659 23.1087 21.011 22.5539 19.8414L18.4952 19.5601C16.004 19.2513 13.5443 18.7089 11.2058 17.7899L10.6195 17.5398C10.5029 17.4845 10.2228 17.3046 10.1051 17.3081ZM37.9149 17.3389C37.2399 17.605 36.5839 17.9098 35.8946 18.1409L31.3946 19.2457C30.4463 19.413 29.4947 19.5728 28.5352 19.6622L25.8419 19.8497L24.1055 19.8675C24.1055 20.0581 24.2551 20.2864 24.2899 20.4883L24.4037 21.0283C24.5691 21.7238 24.5462 22.7552 24.5416 23.464L24.4792 25.1505C24.4342 25.8895 24.3897 26.6302 24.2227 27.3548C23.5589 30.2345 21.4368 32.4678 18.8907 33.8647C18.5514 34.0508 18.1852 34.1776 17.843 34.3573L18.3753 36.8433C18.4159 37.0773 18.4244 37.5871 18.5391 37.7743L18.6147 37.7859L21.952 38.0603L25.6982 38.0643L28.3213 37.907C28.7107 37.8767 29.1153 37.9243 29.5006 37.8745C29.897 33.8756 31.3247 30.2608 33.8297 27.0865C34.6981 25.986 35.9147 24.529 37.2708 24.0074C37.7876 23.8086 38.3597 23.7207 38.8976 23.5895L37.9149 17.3389Z" fill="black"/>
</svg>
