<svg width="48" height="48" viewBox="0 0 48 48" fill="none" xmlns="http://www.w3.org/2000/svg">
<path d="M15.3459 37.9468L8.22424 35.4966C7.79107 35.3505 7.35054 35.2291 6.92519 35.06L6.14041 34.709C5.41408 34.3825 4.73163 34.0428 4.1161 33.5272C3.24758 32.7997 3.57593 32.4467 3.81222 31.544L7.48807 16.8271C7.71321 15.9058 7.89119 13.994 8.869 13.5044C9.05022 13.4136 9.02041 13.3633 9.01999 13.1857L9.01816 10.9481C9.01877 10.4243 8.87243 9.64885 9.53144 9.44865L9.56228 9.43974C10.1137 9.27517 12.0493 9.64309 12.6092 9.77204L16.5329 10.6767C17.9386 10.8911 19.3756 10.9996 20.7962 11.0657L27.7732 11.0705L29.9412 10.9042C30.329 10.8654 30.7184 10.8416 31.1028 10.772L33.3712 10.2817C34.8215 9.91229 36.2654 9.42324 37.7754 9.39348C38.2023 9.36235 38.6188 9.31313 38.8632 9.74565L38.8785 9.77331C39.0636 10.1039 38.9914 12.6066 38.9485 13.0573C38.9424 13.1209 39.7911 13.9205 40.0422 14.6377L40.1262 14.871C40.3885 15.5816 40.3548 16.4828 40.608 17.2584L41.8008 22.2212C41.8883 22.7669 42.1046 23.3169 42.2277 23.8582L42.4217 24.6796C42.4679 24.857 42.5219 25.054 42.5511 25.2344L43.2017 27.8085C43.2872 28.2927 43.485 28.7648 43.577 29.2472L44.3435 32.1796C44.4163 32.3824 44.4719 32.5704 44.4486 32.7892C44.3166 34.0308 40.4146 35.2619 39.4442 35.5914L36.3264 36.6666C34.0996 37.4347 30.6529 38.9401 28.2858 38.61L28.242 38.6036C26.5985 38.3792 26.3204 37.1218 25.8674 35.848L25.1436 33.7155C25.0551 33.4275 24.9401 32.8479 24.7508 32.6134C24.256 32.7508 23.7215 32.7132 23.2234 32.6165L22.0897 35.8919C21.5003 37.592 21.1949 38.6252 19.1869 38.6259C17.8734 38.6263 16.5886 38.3586 15.3459 37.9468ZM37.2093 11.0008C35.8144 11.1903 34.4905 11.6517 33.1288 11.989C32.0046 12.2675 30.7903 12.4496 29.6359 12.5355L27.7679 12.6312C27.8932 12.7408 27.9944 12.9517 28.0928 13.092L28.5485 13.7237L28.8631 14.1257C28.9101 14.1862 28.9432 14.2456 29.0083 14.289L33.0055 13.7992C33.5242 13.7019 34.0478 13.6106 34.5584 13.4753L36.1944 12.9855C36.5896 12.8552 36.9663 12.7017 37.374 12.6135L37.4011 11.5839C37.4005 11.269 37.5147 10.9644 37.2093 11.0008ZM10.532 11.0438L10.5501 12.6165C10.8831 12.7071 11.1945 12.7864 11.5239 12.9031L12.5638 13.2364C13.6738 13.5357 14.8033 13.7493 15.9406 13.91L18.2936 14.186C18.5126 14.2019 18.7898 14.2657 19.003 14.2379L19.2656 13.6996L19.8049 12.5849L18.9762 12.5251C17.913 12.4361 16.8298 12.3415 15.7783 12.1558L11.9338 11.241C11.4655 11.1402 10.9993 11.1241 10.532 11.0438ZM21.5082 12.7312C21.2299 13.262 20.9258 13.8143 20.7354 14.3888C20.8545 14.4176 20.9744 14.4159 21.0959 14.4249L23.2833 14.456C24.0384 14.4554 24.6243 14.5949 25.3835 14.5685L26.4197 14.557L27.1706 14.5298L26.4783 13.5225C26.4139 13.4268 26.0256 12.7485 25.9574 12.7324L21.5082 12.7312ZM37.4521 14.2542C36.7655 14.4161 36.1172 14.6955 35.4387 14.8857C33.8941 15.3188 31.5267 15.7676 29.8788 15.8037L30.1442 16.4764C30.5109 17.4985 30.5524 18.7087 30.2072 19.7436C29.3503 22.3123 27.4012 22.8907 25.4675 24.3668L24.8729 24.8504C24.5642 25.116 24.6617 25.1715 24.6209 25.5646L24.5322 26.2105C24.4534 26.7666 24.4134 27.3317 24.601 27.8739L24.6844 28.1465C25.0272 29.0793 25.5796 29.7299 26.2885 30.3962L26.6889 30.1963L40.3458 22.8692C40.2042 22.0731 39.9686 21.2841 39.7722 20.4996L38.7485 16.0077C38.6298 15.2928 38.3832 14.2004 37.4521 14.2542ZM10.5633 14.3265C9.59158 14.4899 9.36888 15.2998 9.21232 16.147L7.63994 22.826C8.0545 23.1123 8.50141 23.3425 8.93791 23.5925L19.6013 29.3118L22.6275 30.8178C22.7943 30.881 23.0192 31.0307 23.1855 31.0501C23.6387 31.1033 24.1825 31.0974 24.6323 31.0297L24.6435 31.019C24.4309 30.7371 24.1936 30.4898 23.9956 30.1945C23.0435 28.7755 22.7664 27.2404 22.9976 25.5643L23.1874 24.5168C23.2336 24.3189 23.3474 24.0819 23.3588 23.8854C23.4146 22.9281 23.364 21.9789 23.4189 20.9964L23.4437 18.7185C23.4459 17.9021 23.5916 16.8414 23.509 16.0563L19.6016 15.928L14.6717 15.3321C13.7425 15.1787 12.7846 14.9904 11.8825 14.7189L11.1931 14.4862C10.9952 14.4144 10.7768 14.3073 10.5633 14.3265ZM28.0195 16.0413L25.0568 16.1461L24.9934 20.6249C24.9907 20.8103 24.9548 20.9911 24.9442 21.1756L24.928 22.238C24.926 22.4147 24.9099 22.6049 24.9327 22.7799L25.4654 22.4198L26.5439 21.7127C26.8788 21.4989 27.2354 21.3008 27.5423 21.0469C29.1816 19.6909 29.2455 17.7092 28.1365 16.0349L28.0195 16.0413ZM7.2303 24.4664L5.1955 32.3779C6.15405 33.1611 7.30469 33.4998 8.45172 33.891L13.8513 35.7423C15.6589 36.3994 17.6263 37.2035 19.5897 37.0518L19.7048 37.0348C19.9409 36.9172 20.1018 36.8037 20.1982 36.5564L21.7251 32.2106C21.7395 32.1753 21.7346 32.1906 21.7411 32.1495L7.2303 24.4664ZM40.7678 24.4637L30.8162 29.8236L28.5623 31.0028C27.809 31.3964 27.0659 31.8364 26.2448 32.0682L27.0978 34.5834C27.11 34.6291 27.1263 34.667 27.1434 34.7108L27.7531 36.4643C27.8363 36.7208 28.0293 36.9772 28.3081 37.0273C29.6612 37.2238 31.8844 36.5988 33.1288 36.1533L38.824 34.1271C40.411 33.5769 41.3913 33.3332 42.8062 32.4102L40.7678 24.4637Z" fill="black"/>
</svg>
