<svg width="48" height="48" viewBox="0 0 48 48" fill="none" xmlns="http://www.w3.org/2000/svg">
<path d="M19.4647 40.5929L18.1103 40.5932C13.9421 40.4171 8.79142 38.5637 5.41394 35.9743L4.47425 35.1871C4.22349 34.9564 3.94705 34.7207 3.81262 34.3993L3.7629 34.2696C3.6767 33.9589 3.69362 33.6229 3.67056 33.3046L3.57868 30.1055C3.5771 29.8092 3.51969 29.5212 3.51807 29.2272L3.51925 25.1934C3.52406 24.9515 3.57535 24.7194 3.57902 24.4786L3.58382 23.1167C3.58513 22.881 3.54001 22.4712 3.65831 22.2696C3.82774 21.981 3.81677 21.6264 3.86776 21.3047L4.65222 17.3205C5.02084 15.7912 5.55911 14.2079 6.40286 12.8711L7.57173 11.2032C7.73228 10.9599 7.68119 10.566 7.68245 10.2823L7.6877 8.75417C7.6892 8.4701 7.615 8.0292 7.78314 7.77987L7.79912 7.75699C7.88753 7.62617 7.9967 7.52548 8.14023 7.45695L8.17159 7.4426C8.32454 7.3707 8.5615 7.4006 8.72945 7.40046L9.68218 7.39995C10.9495 7.39981 12.1715 7.37482 13.4338 7.49037L19.0311 7.96751L21.2342 8.02929C21.4303 8.03468 21.625 8.07246 21.8199 8.07537L26.9236 8.0726C27.1 8.06764 27.2734 8.03721 27.4497 8.03121L29.4176 7.96207L32.827 7.67234C33.935 7.55524 35.038 7.40445 36.1532 7.39854L38.5366 7.39948C38.8437 7.3999 39.6407 7.30001 39.8897 7.46046L40.0111 7.53396C40.3803 7.7794 40.3664 8.14751 40.3661 8.53535L40.3629 9.79334C40.356 10.7113 40.502 10.7918 40.9859 11.5268L41.3553 12.124C41.7855 12.8283 42.0969 13.5812 42.3767 14.3555L43.3131 17.3086C43.4154 17.6371 43.524 17.9942 43.5828 18.3329L43.8383 19.5359C44.0916 20.89 44.1536 21.7957 44.1676 23.1395L44.2419 24.7962C44.2831 25.4464 44.421 26.0844 44.4326 26.7422L44.4236 29.809C44.4201 29.9308 44.3931 30.0457 44.3815 30.1663L44.2988 32.7989C44.29 32.9774 44.2559 33.1532 44.2479 33.3329L44.2253 34.0382C44.2203 34.1321 44.2229 34.2492 44.1953 34.3392L44.1808 34.3828C43.8922 35.3403 41.2635 36.8918 40.4205 37.3515C36.7558 39.3501 32.4192 40.713 28.2227 40.6098C27.5673 40.5937 27.4108 40.1344 27.238 39.5997L26.967 38.7742C26.3235 36.8507 25.4231 33.7789 23.9937 32.2855C22.6038 33.9433 21.409 36.3943 20.8954 38.5272C20.6272 39.6411 20.7428 40.5858 19.4647 40.5929ZM35.921 9.06078C34.1796 9.09832 32.4556 9.41051 30.7198 9.53515L29.6974 9.57621C29.5224 9.58643 29.3548 9.62196 29.1796 9.62904L28.2643 9.65881C27.9932 9.67624 27.7325 9.74398 27.4605 9.75378L20.6241 9.74764C20.3581 9.73123 20.1014 9.67249 19.8345 9.65782L18.806 9.62276C18.6604 9.6146 18.5219 9.58498 18.3771 9.57556L13.1044 9.0927C12.5856 9.06228 12.0706 9.09621 11.5529 9.10203L12.8152 9.59084C14.3685 10.0924 15.982 10.3436 17.5983 10.5328L20.2616 10.7878C20.7642 10.8453 21.3052 10.8247 21.8112 10.8253L26.4918 10.8236C26.9564 10.8219 27.4426 10.8437 27.9022 10.7782C28.0753 10.7535 28.2218 10.7214 28.401 10.7138L31.6603 10.3971L33.5202 10.0395C34.3461 9.85423 35.1701 9.65285 35.953 9.32459C36.1627 9.23665 36.3676 9.11337 36.5885 9.05885L35.921 9.06078ZM9.24133 9.73737C9.23903 10.4181 9.29397 11.2097 9.06854 11.8584L12.603 13.0123L15.4569 13.6866C17.3944 14.0607 19.3824 14.3089 21.3566 14.1469C22.5378 14.05 22.7231 15.2998 21.9465 15.6578C21.5318 15.8489 20.7691 15.8348 20.3202 15.8369L19.1653 15.825C19.0275 15.8176 18.8972 15.7838 18.7623 15.7726L15.5975 15.3732C14.6072 15.2046 13.5958 15.0096 12.6255 14.7492C12.2166 15.6237 11.8147 16.5029 11.3384 17.3438L10.485 18.6926C9.49262 20.1809 7.57562 22.1903 5.81429 22.8113L5.25625 22.9971C5.20286 23.6017 5.18256 24.4217 5.16381 25.0549L5.16311 29.3718C5.16958 29.6143 5.21317 29.856 5.22015 30.1002C5.23783 30.7224 5.161 31.4038 5.27804 32.0141C5.99926 31.9419 6.73426 31.9891 7.453 32.0554L9.28112 32.2809C10.4818 32.4853 11.661 32.8304 12.8163 33.2107L15.7233 34.2552C17.1511 34.817 18.6182 35.511 20.1628 35.6548C20.7836 33.938 21.7753 32.3763 22.9459 30.9845C23.641 30.1582 23.9377 29.8552 24.753 30.6743C25.7591 31.6852 26.6013 33.0487 27.1646 34.3638L27.6633 35.706C29.3032 35.4953 30.5849 34.9076 32.0983 34.2749L34.8606 33.2536C36.1479 32.8552 37.4594 32.4977 38.7889 32.273L39.9403 32.0989C40.4844 32.0347 41.0005 31.9865 41.5487 31.9881L42.673 31.9824C42.6816 31.7328 42.7168 31.4906 42.7362 31.2424L42.8117 29.6016L42.7475 27.1794L42.5836 24.431L42.5695 22.8901C42.4652 22.8207 42.3571 22.8098 42.2424 22.7696C39.4782 21.8006 37.2076 18.8069 36.0317 16.2516L35.6329 15.2615C35.5687 15.0772 35.5182 14.8348 35.4287 14.666L29.3091 15.7973C28.892 15.8887 27.3767 15.8619 26.9601 15.8136C24.9074 15.5761 25.8086 14.0253 26.66 14.1262C29.4571 14.4579 32.3435 13.759 35.0272 13.0551L39.1627 11.8383C38.8307 11.1688 38.7897 10.531 38.7546 9.80032C37.3664 10.4895 36.3581 11.0077 34.8397 11.433L33.5418 11.7324C31.8006 12.1176 30.0111 12.3298 28.2303 12.4117L24.7951 12.4219L24.7651 20.1808C24.7652 20.4175 24.7962 20.7175 24.75 20.948C24.5872 21.7604 23.3157 21.7314 23.1909 20.9546C23.1495 20.6971 23.1794 20.3929 23.1793 20.1311L23.1806 12.4328L18.7979 12.3517L17.4385 12.2018C14.5761 11.879 11.7163 11.2776 9.24133 9.73737ZM40.0478 13.3008L37.0471 14.2137L37.0869 14.3688C37.571 16.2658 39.1446 18.5264 40.5701 19.7741C41.0571 20.1857 41.7757 20.7947 42.4039 20.9798C42.2483 19.0827 41.4638 16.6257 40.7949 14.8646L40.3686 13.8118C40.3029 13.6617 40.1854 13.2773 40.0478 13.3008ZM8.16461 13.3711C6.81615 14.8244 6.20448 17.6637 5.83675 19.5274L5.67817 20.5197C5.65454 20.6886 5.60026 20.8662 5.61128 21.0381L5.61672 21.0591C6.23158 20.8221 6.8064 20.3189 7.30276 19.8946C8.70756 18.6593 9.69831 17.0342 10.5231 15.375C10.7002 15.0189 10.929 14.6309 11.0336 14.2476L9.40295 13.7223C9.2035 13.658 8.32004 13.3146 8.16461 13.3711ZM41.1917 33.6509C39.2092 33.7277 36.7635 34.3511 34.9168 34.982L33.0264 35.6935C32.1186 36.0455 31.2302 36.4582 30.3036 36.7603L28.5584 37.2019C28.4654 37.2211 28.2701 37.2307 28.2002 37.2851L28.6293 38.5446C28.672 38.6741 28.6749 38.8153 28.7549 38.9265L29.5673 38.9259C30.4341 38.9127 31.2306 38.8068 32.0858 38.6493L33.2694 38.4081C36.081 37.6884 40.3614 36.0166 42.4171 33.9258C42.7835 33.5532 42.3616 33.6451 42.1303 33.6473L41.1917 33.6509ZM5.73283 33.6576L5.60495 33.6914C5.54073 33.7955 5.5795 33.8982 5.64761 33.9844L5.66683 34.0095C5.74951 34.1129 5.86079 34.1984 5.96087 34.2845L6.63761 34.8153C8.36729 36.1093 10.477 37.0517 12.5198 37.7245L13.8386 38.1144C14.8465 38.4074 15.9772 38.7091 17.0291 38.808L19.1008 38.9327L19.166 38.631L19.5461 37.2526C19.0408 37.1224 18.5329 37.0224 18.0337 36.8659C16.8537 36.4961 15.7242 36.0042 14.5712 35.5628C11.5112 34.3914 9.00901 33.6425 5.73283 33.6576Z" fill="black"/>
</svg>
