<svg width="48" height="48" viewBox="0 0 48 48" fill="none" xmlns="http://www.w3.org/2000/svg">
<path d="M16.8597 37.7343L12.4338 36.7551C12.026 36.6818 11.615 36.6256 11.2122 36.526C10.1314 36.2588 7.80486 35.1005 7.34787 33.9797C7.26265 33.7707 7.14411 32.9097 7.14209 32.6416L7.14678 30.9365C7.15353 30.7821 7.18217 30.6324 7.19309 30.4789L7.30489 29.0144C7.57025 25.8854 8.10762 22.78 8.6727 19.6931L9.36129 15.8719C9.38745 15.6731 9.38445 15.4673 9.39818 15.2671L9.84696 10.7083C9.86839 10.5575 9.86951 10.3949 9.91943 10.2503L9.93078 10.2192C10.057 9.86764 10.3707 9.74305 10.7223 9.81988C11.3821 9.96397 12.0588 10.058 12.7268 10.1535L18.2289 10.6833L23.1617 10.6834C23.6724 10.6762 24.08 10.6781 24.5874 10.6828L28.5879 10.6789C28.7435 10.675 28.896 10.646 29.051 10.64L30.2773 10.6179L34.6526 10.2152L37.331 9.75875C37.4296 9.74324 37.5699 9.74249 37.6615 9.785L37.717 9.81214C37.9331 9.92075 38.07 10.1985 38.1048 10.4341L38.568 13.9042L38.7069 16.3573C38.7988 17.516 39.157 18.8742 39.3689 20.0651L40.0791 24.0004L40.6723 28.3449L40.8526 31.9103C40.8524 32.3035 40.8644 32.6833 40.7804 33.0707C40.2555 35.4935 37.8507 36.4686 35.6487 36.7513L30.4042 37.7934C29.3455 38.0176 28.2198 38.3741 27.1325 38.1037C26.1582 37.8614 26.2829 37.4958 26.104 36.6708C25.8025 35.2812 24.7058 32.7885 23.9368 31.498C23.8582 31.5778 23.8004 31.7033 23.7411 31.799L23.2902 32.5661C22.6238 33.728 21.9237 34.9244 21.5773 36.2288C21.2328 37.526 21.5172 38.2346 19.8221 38.2331C18.7943 38.2322 17.8527 37.962 16.8597 37.7343ZM36.7044 11.2621C35.3895 11.5272 34.06 11.691 32.7254 11.8175L28.8897 12.0102C28.7039 12.015 28.5241 12.0621 28.3366 12.0671L24.7042 12.0725L24.7224 12.7368C25.1817 12.8021 25.767 12.9136 26.0562 13.3163C26.3654 13.7467 26.2152 14.3978 25.6734 14.5614C25.2612 14.6859 24.628 14.3188 24.2684 14.1368C23.6916 13.8449 23.2134 14.7069 22.3479 14.5403L22.3203 14.5351C21.9387 14.4589 21.7296 14.0302 21.802 13.6671L21.8237 13.5829C21.96 13.0688 22.4311 12.8935 22.8987 12.7922C22.98 12.7746 23.2288 12.7744 23.2782 12.7268L23.2796 12.0792L18.1994 12.0669L13.6747 11.6792L11.2547 11.3597L11.1213 11.3416C11.0153 11.533 11.0399 11.9321 11.0157 12.1541L10.8748 13.4014C10.8385 13.8763 10.6662 15.2074 10.8505 15.5259L10.8762 15.5399C11.0219 15.621 11.1492 15.7265 11.2921 15.8108C12.1914 16.342 13.2472 16.5286 14.2737 16.6187L14.8657 16.6819C15.6601 16.7285 17.903 16.7284 18.6086 16.3568C18.711 16.3028 18.8099 16.2958 18.9234 16.2909L28.8944 16.2894C29.2489 16.3054 29.5729 16.4161 29.9179 16.4839C30.6761 16.633 31.4531 16.6415 32.2224 16.6418C33.7168 16.6424 35.3737 16.667 36.6891 15.8531C37.1536 15.5657 37.1419 15.5728 37.1399 15.0175C37.1367 14.0605 37.0658 13.1124 36.9316 12.1645L36.7044 11.2621ZM10.567 16.9809C10.3988 17.6715 10.3126 18.3943 10.179 19.0936L8.91092 26.6082L8.48759 31.5356C8.41231 32.5213 8.32254 33.2791 9.12912 33.9499C9.94109 34.6251 10.8919 35.0625 11.9275 35.2606L14.5586 35.7527L18.3752 36.6568L19.8277 36.8585C19.9069 36.8654 19.9978 36.8834 20.0755 36.8667C20.4422 34.5764 21.7122 32.5706 22.894 30.6214L23.3116 29.9156C23.8466 29.0286 24.2899 29.1802 24.7677 30.0859L25.3444 31.2543C25.6165 31.815 25.9209 32.3736 26.1587 32.9497L26.8384 34.5356C26.961 34.8878 27.1013 35.2311 27.2056 35.5903L27.3857 36.2524C27.4183 36.4048 27.444 36.6351 27.5045 36.7724C28.7433 36.8619 29.9515 36.4655 31.1487 36.2113L34.2424 35.5562C35.859 35.2126 36.5351 35.4592 38.0947 34.5643C38.9483 33.9851 39.4798 33.3182 39.5001 32.281L39.4748 30.0973C39.464 29.8945 39.4265 29.699 39.4098 29.497L39.1225 26.7529L37.4158 17.0131C35.9338 18.0279 33.9909 18.0187 32.2631 18.0196C31.4028 18.0201 30.6122 18.0225 29.7647 17.8577L28.8284 17.6747C28.3829 17.609 27.8851 17.6537 27.4324 17.6537L24.6438 17.654C24.6198 17.9327 24.629 18.2156 24.6285 18.4952L24.6267 25.4435C24.6267 25.6426 24.6494 25.8687 24.622 26.0653C24.5207 26.7924 23.4092 26.8213 23.3118 25.9453C23.277 25.633 23.2979 25.302 23.2977 24.9877L23.2969 17.6655L20.9097 17.6548C20.1037 17.6544 19.9353 17.6388 19.1698 17.7796L17.8375 17.9726C15.5983 18.2397 12.5063 18.1467 10.5917 16.981L10.567 16.9809Z" fill="black"/>
</svg>
