<svg width="48" height="48" viewBox="0 0 48 48" fill="none" xmlns="http://www.w3.org/2000/svg">
<path d="M24.4336 43.4813L18.3026 43.4807C15.9869 43.4775 14.1839 42.2165 13.6255 39.8701C13.4796 39.2567 13.5203 38.6091 13.5199 37.9857L13.5511 29.377C13.5589 29.1734 13.5469 28.974 13.5717 28.7705L13.5765 28.732C13.4507 28.9665 13.3675 29.2543 13.264 29.502L9.9681 37.8267C9.65441 38.6596 9.11432 39.2258 8.11382 39.0869C7.9281 39.0612 7.74159 39.0085 7.55798 38.9689L5.52679 38.5648C5.29157 38.5243 5.04491 38.5082 4.82071 38.4227C3.42367 37.8904 3.90297 36.5906 4.1666 35.5772L5.32321 31.0117C5.4651 30.3821 5.57868 29.7503 5.77227 29.1328C6.17948 27.834 6.70194 26.5797 7.19432 25.3123L9.52738 19.0736C9.80221 18.2711 10.0236 17.4212 10.4312 16.6741C11.3123 15.0593 13.1287 13.9029 14.9486 13.6805C14.9596 13.5716 14.897 13.417 14.8781 13.3054C14.7692 12.6604 15.1242 11.2995 15.6901 10.9593C15.8398 10.8693 15.8321 10.8305 15.8369 10.6751L15.8568 10.1491C15.8621 10.0605 15.8827 9.97592 15.8974 9.88869C16.446 6.61934 18.9049 3.91935 22.1836 3.21846C22.6523 3.11827 23.1428 3.07067 23.62 3.03306C24.0317 2.99449 24.4599 3.02929 24.8687 3.07998C27.9231 3.45871 30.3944 5.26798 31.6144 8.10913C31.836 8.62508 32.0446 9.23127 32.1046 9.79498C32.118 9.92117 32.199 10.8813 32.2082 10.8959C32.2485 10.9605 32.3494 11.0316 32.4027 11.0927C33.1639 11.9646 33.2089 12.5592 33.0759 13.6752C35.1555 14.012 36.9063 15.2459 37.8238 17.1794C38.0147 17.5816 38.1095 18.0249 38.2505 18.4451L38.9791 20.4607C39.0521 20.7118 39.1575 20.9614 39.2466 21.208L39.8687 22.8865C40.246 23.9372 40.6998 25.2346 41.1565 26.2498L42.0152 28.5064C42.2819 29.2206 42.6105 30.4496 42.739 31.236L43.6956 35.1079C43.8941 35.666 44.2507 36.9458 44.0756 37.4311L44.0406 37.5276C43.7856 38.1866 43.288 38.4321 42.6496 38.552L40.4955 38.9685C39.6243 39.1506 38.7771 39.2326 38.2113 38.2971C38.0903 38.097 38.0339 37.8561 37.9522 37.6383L34.4097 28.6832C34.4724 29.0767 34.46 29.4759 34.4617 29.8731L34.4778 38.0926C34.4772 38.6683 34.4855 39.2848 34.3642 39.8504C34.002 41.5402 32.8074 42.8816 31.1233 43.3283C30.5429 43.4823 29.9952 43.4808 29.4003 43.4811L24.4336 43.4813ZM23.4077 4.4806C20.5288 4.67772 17.7933 6.9057 17.3072 9.80516C17.281 9.9612 17.2304 10.1512 17.2351 10.3093L17.2386 10.332C17.8459 10.3378 17.6489 10.4365 18.1386 10.1559L18.7032 9.86253C20.8759 8.80353 22.3465 8.68798 24.6505 8.69352L25.4694 8.75075C26.7598 8.88716 28.152 9.26183 29.3079 9.86544L29.8641 10.1712C30.2794 10.4142 30.2705 10.34 30.7699 10.3314C30.5638 7.36705 27.8211 4.82 24.9223 4.50478C24.4254 4.45075 23.9077 4.478 23.4077 4.4806ZM23.5019 10.1087C22.1024 10.1253 20.7061 10.4438 19.441 11.0505C19.8277 11.3224 20.2834 11.5007 20.6858 11.752C21.7375 12.4087 22.7121 13.2041 23.4094 14.2428C23.6328 14.5756 23.8011 14.9328 24.0143 15.268L24.1781 14.9412C24.911 13.5543 26.0706 12.4548 27.4219 11.6723C27.7949 11.4563 28.2051 11.2987 28.5707 11.0783C26.9641 10.175 25.2751 10.102 23.5019 10.1087ZM17.1651 11.7696C15.9346 12.0257 15.9487 13.5316 16.9419 14.1492C17.6065 14.5625 18.6181 14.6807 19.3906 14.7293L20.0625 14.7899C21.0686 14.9168 21.0383 16.0272 20.2523 16.1803C20.028 16.2239 19.7227 16.1412 19.4904 16.1234C18.3263 16.0345 17.0957 15.9385 16.1133 15.2353C15.8474 15.045 15.811 14.984 15.4872 15.0253L14.9315 15.0978C13.4582 15.3194 12.0025 16.4141 11.4177 17.8009C11.1963 18.3259 11.0609 18.8923 10.8699 19.4294L8.26635 26.3644C7.8351 27.4728 7.37066 28.5643 7.03134 29.7068C6.77427 30.5724 6.62844 31.4657 6.41019 32.3413L5.21657 37.0471C5.3691 37.1026 5.51582 37.1198 5.67187 37.1571L7.97657 37.6307C8.13749 37.6646 8.34407 37.7336 8.50691 37.712L13.0995 26.5815L13.904 25.0076C14.048 24.7179 14.1665 24.3738 14.3561 24.1126C14.7143 23.6195 15.3943 23.9359 15.5096 24.4502C15.5534 24.646 15.4411 25.0011 15.4044 25.2068L15.0947 27.6912C15.0466 28.2267 15.0006 28.769 14.9887 29.3062L14.9793 39.4765C15.0324 40.6872 16.2749 41.8667 17.4375 42.0012C17.6868 42.03 17.9497 42.0154 18.2008 42.0155L23.2874 41.9658C23.23 41.2374 23.2724 40.4805 23.2722 39.7488L23.2732 18.0538C23.2701 15.1396 20.8286 13.2586 18.4109 12.1171C18.0359 11.94 17.5922 11.7168 17.1651 11.7696ZM30.5543 11.771C30.2014 11.8382 29.8995 11.9879 29.5741 12.1331C27.3143 13.1406 25.1437 14.8311 24.7437 17.4255C24.7059 17.6703 24.7284 17.9431 24.7283 18.1909L24.7287 42.0136L29.9613 42.0146C30.2017 42.0143 30.4587 42.0306 30.6947 41.9804C31.8684 41.7305 32.7659 40.7478 33.0005 39.5892C33.0617 39.2873 33.0229 38.9127 33.0231 38.6022L33.0204 29.3738C33.0157 28.9392 32.9683 28.5129 32.9352 28.0805L32.5999 25.2299C32.5536 25.0139 32.4707 24.7709 32.4637 24.5505C32.4457 23.9879 33.1882 23.6436 33.5945 24.0615C33.746 24.2174 33.8361 24.4639 33.9237 24.6593L34.9852 26.7749L36.2913 29.6483L39.1441 36.8904C39.2513 37.1548 39.3166 37.4704 39.4991 37.6937C40.1393 37.6617 40.8089 37.4636 41.4375 37.3363L42.8001 37.0619L41.4755 31.8705C41.2951 31.1286 41.1841 30.3731 40.9528 29.6438C40.5406 28.3443 40.0114 27.0956 39.5102 25.8301L37.2412 19.7341C36.9697 18.94 36.7804 18.0718 36.3446 17.3494C35.5262 15.9927 34.1881 15.2015 32.6128 15.0333C32.0705 14.9754 32.2388 15.0302 31.7952 15.3064C30.9756 15.8166 30.2573 15.9356 29.3357 16.0436L28.3711 16.1392C27.925 16.1768 27.3982 16.2565 27.213 15.7146C27.0002 15.092 27.5935 14.8319 28.0923 14.7807L28.8032 14.7138C29.7067 14.6379 31.1122 14.4635 31.6041 13.6293C31.9435 13.0538 31.8266 12.2481 31.2056 11.9137L31.1042 11.8625C30.9358 11.7784 30.7405 11.7532 30.5543 11.771Z" fill="black"/>
</svg>
