<svg width="48" height="48" viewBox="0 0 48 48" fill="none" xmlns="http://www.w3.org/2000/svg">
<path d="M24.2934 43.5978L20.7895 43.5981C18.6183 43.5985 16.0433 43.5857 14.9695 41.2163L14.9584 41.1912C13.199 42.1999 11.0793 42.2152 9.28167 41.2513C8.31215 40.7314 8.31871 40.0078 8.17035 39.0563C7.88029 37.1956 7.75992 36.7134 8.12667 34.9102L9.08245 29.1263L10.1531 20.1543C10.1978 19.6221 10.1842 18.8777 10.2645 18.425C10.6684 16.1502 11.873 14.3593 14.0981 13.4779C14.7034 13.2381 15.3515 13.0783 15.9787 12.906L18.1834 12.2433C18.6209 11.3439 18.3306 10.9984 17.8481 10.2801C15.8823 7.35353 19.1736 5.09246 21.7877 4.53725L22.4703 4.42483C22.9034 4.37473 23.3186 4.33218 23.7564 4.32615C26.2242 4.21276 30.2839 5.07099 30.7951 7.86934C31.1344 9.72629 29.4562 10.6119 29.7362 11.9017L29.8093 12.2696C29.9242 12.4282 30.4798 12.4661 30.67 12.5175L33.5504 13.3456C35.564 14.0134 37.262 15.8397 37.6692 17.9478C37.7399 18.3139 37.7632 18.6773 37.7964 19.0474L38.7584 27.7857L39.7049 34.0899C39.8365 34.7222 40.0972 35.7395 40.1178 36.3485C40.1474 37.2261 39.9785 38.105 39.8405 38.9672L39.7368 39.6296C39.555 41.0128 38.8536 41.391 37.513 41.7649C36.0194 42.1815 34.3986 41.9443 33.0601 41.1814C32.5222 42.5721 30.79 43.4254 29.3859 43.5723C28.7164 43.6423 28.0068 43.5976 27.3332 43.5978H24.2934ZM23.289 5.69903L22.9631 5.73184C21.5939 5.88118 19.3854 6.53832 18.7618 7.94279C18.5179 8.49203 18.607 9.22023 18.809 8.5974C19.3719 6.86209 21.9949 6.86078 23.4755 6.85857L24.7051 6.85853C26.4002 6.85524 28.755 6.79374 29.4331 8.72889C29.5276 8.28034 29.477 7.9539 29.2264 7.56521L29.0574 7.34101C28.1362 6.27573 26.5782 5.81982 25.2169 5.71323L23.289 5.69903ZM22.5377 8.2321C21.722 8.27082 20.5084 8.30429 20.0494 9.10834C20.5045 9.95809 21.5785 10.4768 22.4663 10.7449C23.4863 11.0529 24.4715 10.9977 25.4964 10.7664C25.887 10.6262 28.3322 9.64332 28.0967 9.03193C27.7204 8.05478 25.5674 8.2292 24.7478 8.22943L22.5377 8.2321ZM19.6207 10.6993L19.7191 11.1561C19.8816 11.8262 19.4172 12.3963 19.5631 12.8069C20.0307 14.1225 21.8542 14.7656 23.1012 14.9167L23.2905 14.9307C23.3488 14.8315 23.3427 12.525 23.3022 12.2936C22.181 12.1522 20.4555 11.5788 19.6502 10.7034L19.6207 10.6993ZM28.4301 10.7778C27.607 11.4243 26.6977 11.8231 25.6955 12.1084C24.3371 12.495 24.652 11.8067 24.6522 13.6646C24.6523 14.0748 24.6183 14.5177 24.6617 14.9244L24.8324 14.9117C26.2856 14.7346 27.775 14.1901 28.4516 12.8204C28.5922 12.5356 28.3453 11.9536 28.3364 11.5939C28.3296 11.3221 28.3933 11.0465 28.4301 10.7778ZM29.5833 13.6238C28.5661 15.21 26.5582 16.3008 24.6576 16.2902L24.6489 42.2598C24.7948 42.2827 24.9637 42.2658 25.1127 42.2649L27.9081 42.2601C28.4901 42.2596 29.112 42.294 29.684 42.1698C30.8236 41.9224 31.8796 41.1091 32.0545 39.9002C32.1501 39.2392 31.8918 38.6508 31.724 38.0273L30.9331 35.1787C30.0978 32.0854 30.1209 31.633 31.1494 28.6426L32.4176 24.8963C32.5506 24.5065 32.6442 23.9228 32.9591 23.6321L32.9858 23.6124C33.076 23.5472 33.1498 23.5112 33.2582 23.4804L33.2855 23.4724C33.5956 23.3881 33.8729 23.6002 33.9993 23.8656L34.0111 23.8898C34.0897 24.064 34.0239 24.3777 33.9699 24.5461L32.4434 28.9886C32.0999 30.0029 31.4116 31.6347 31.7243 32.7261L31.8842 33.4732C31.8914 33.5123 31.9026 33.5448 31.9148 33.5822L32.0724 34.2356C32.0798 34.2733 32.0907 34.306 32.1025 34.3423L33.3178 38.7208C33.3521 38.8382 33.3739 38.9555 33.3817 39.0774L33.4232 39.7997C33.6944 40.0327 34.1826 40.2486 34.5107 40.3714C35.4602 40.727 36.6047 40.6795 37.5481 40.3315C37.9758 40.1739 38.2869 40.0924 38.3787 39.6356L38.4692 39.0877C38.5718 38.4362 38.6925 37.775 38.7528 37.1185C38.8413 36.1547 38.5465 35.2499 38.3732 34.3126L37.8099 30.9549L36.9681 24.1696L36.497 19.8857C36.4425 19.4052 36.448 18.9096 36.3743 18.4307C36.113 16.7322 34.9119 15.3231 33.3186 14.6975L29.5833 13.6238ZM18.3911 13.6458C17.4203 13.8494 14.9378 14.5324 14.1381 14.9437C12.8328 15.6152 11.9157 16.9136 11.6392 18.3456C11.5432 18.8427 11.5561 19.3603 11.5276 19.8633L10.6581 27.4219L9.80207 33.2399L9.43982 35.0743C9.14831 36.5911 9.23301 37.3491 9.47685 38.8118L9.61073 39.5626C9.66276 39.8184 9.65329 39.8973 9.90276 40.0451C11.3337 40.893 13.2799 40.786 14.6089 39.7877C14.5962 39.2238 14.6604 38.7944 14.8135 38.2594L15.9247 34.1734C16.5502 31.7552 16.421 31.5789 15.5812 29.132L14.1518 24.8907C14.08 24.6858 13.9763 24.4738 13.9469 24.2579C13.8587 23.6109 14.5854 23.2209 15.0569 23.6589C15.2265 23.9036 15.3077 24.1396 15.3971 24.4219L17.2079 29.7422C18.0214 31.7918 17.5222 33.3716 16.9809 35.4238L16.1477 38.4491C15.8817 39.4198 15.7908 40.1338 16.3787 40.9854C17.289 42.3039 19.0903 42.2606 20.5103 42.2601L23.3086 42.2742C23.3537 41.9522 23.3199 41.5818 23.3199 41.2551L23.3192 17.9264C23.3191 17.3997 23.3595 16.8369 23.3106 16.3137C21.7719 16.1749 19.9829 15.5684 18.9569 14.3432L18.3911 13.6458Z" fill="black"/>
</svg>
