<svg width="48" height="48" viewBox="0 0 48 48" fill="none" xmlns="http://www.w3.org/2000/svg">
<path d="M27.2887 37.9146C26.1956 38.1069 24.903 37.9624 24.1007 37.1197C23.9916 37.0051 24.0035 36.9037 23.8347 36.9181L20.2803 37.3124C17.8614 37.5238 15.9735 37.0616 14.3913 35.0484C14.1324 34.7191 13.8863 34.3535 13.7315 33.9619L12.6862 36.9494C12.4317 37.6859 12.2268 38.4887 11.7743 39.1332C10.9291 40.337 9.58788 40.3628 8.36445 39.8439L7.46009 39.4628C6.98984 39.2677 6.42523 39.1261 6.01498 38.823C4.86762 37.9752 5.1387 37.089 5.42688 35.9995L10.5724 15.8969C10.6568 15.4681 10.708 15.0295 10.8326 14.6098C11.2876 13.076 12.687 11.9833 14.1954 11.5902C15.2278 11.3211 16.5073 11.0679 17.1991 10.1654C17.5797 9.66887 17.4089 9.68082 17.3508 9.20392C17.1912 7.89202 19.2526 7.61635 20.1578 7.53338L26.4157 7.51665C27.5332 7.51651 31.3139 7.48248 30.5904 9.54371C30.5563 9.64103 30.5622 9.67796 30.597 9.77298L30.6105 9.80879C31.5037 12.231 35.74 10.285 37.2263 14.9303L38.2333 19.1237C38.2556 19.2486 38.302 19.364 38.3273 19.4885L40.206 26.8713C40.2464 27.1185 40.3423 27.3617 40.3879 27.6096L40.4842 27.9729C40.5326 28.2231 40.6487 28.4721 40.6796 28.7248C40.7456 29.2643 40.9575 29.8267 41.0979 30.3509L41.3448 31.3361C41.4863 31.8381 41.7009 32.585 41.7943 33.0939L42.077 34.1691C42.0987 34.2895 42.1479 34.3999 42.1712 34.5204L42.7708 36.7268C43.0056 37.5265 42.6301 38.4567 41.9652 38.9379C41.4867 39.2841 40.8801 39.4458 40.3362 39.6571C39.186 40.1037 38.3336 40.5847 37.1134 39.9263C35.8859 39.2639 35.5063 37.8371 35.0777 36.6149L34.2382 34.0669L34.0399 34.3674C32.4194 36.6482 29.9014 37.4762 27.2887 37.9146ZM20.5437 8.98192C20.047 9.01998 19.5606 9.08251 19.0802 9.21249C19.8385 9.37496 20.5422 9.61651 20.9059 10.3479L20.9249 10.3851C21.5304 11.6202 21.0227 13.7481 21.6102 15.2814L21.6615 15.4484C21.6723 15.4947 21.6878 15.5302 21.7042 15.5744L21.7854 15.7963C22.5271 17.5574 23.498 18.7528 24.9403 20.0344L24.9558 18.8425C24.9566 18.5805 24.9466 18.3178 24.9918 18.0588L25.0688 17.4797L25.2568 16.5895L26.9087 10.9539C27.2732 9.76829 27.6747 9.36676 29.0482 9.27193C28.4637 9.05757 27.4876 8.98285 26.8494 8.98201L20.5437 8.98192ZM18.6995 10.6437C17.8722 11.7777 16.9818 12.3804 15.5959 12.7705C15.2798 12.8595 14.9475 12.891 14.6332 12.9821C15.4163 13.6654 16.0238 14.6086 16.3376 15.5979L16.535 16.2201C16.9166 17.3784 16.6724 19.0637 16.3743 20.1977C15.812 22.3369 15.5987 22.4726 15.7238 24.7893L15.7309 25.7932C15.7355 26.3043 15.7569 26.8397 15.6803 27.3462L15.6107 27.98C15.5309 28.5151 15.404 29.0564 15.2502 29.5747L14.508 31.7932C14.4532 31.9785 14.4953 32.0905 14.5704 32.2734C15.3118 34.0766 16.1203 35.3331 18.1819 35.8066C19.0795 35.9259 19.8854 35.8514 20.7792 35.7531L22.1135 35.6103C22.4968 35.5634 22.8824 35.5013 23.2685 35.4809C23.2291 34.7969 23.2548 34.0997 23.2545 33.4143L23.2549 26.981C23.2564 24.376 23.4348 23.9771 24.5149 21.5556C22.0842 19.9281 20.0374 16.6947 19.8027 13.7303C19.7696 13.3111 19.8289 11.1649 19.5354 10.9322C19.4626 10.8745 19.3327 10.8517 19.2434 10.8234L18.6995 10.6437ZM29.3335 10.6994L28.5136 10.8925C28.2062 11.5698 28.0175 12.3239 27.8052 13.0366C27.281 14.7954 26.6608 16.5324 26.4445 18.3629C26.3776 18.9291 26.4115 19.5232 26.4101 20.0939C26.4077 21.1485 26.232 21.372 25.7913 22.3224C25.3692 23.2326 24.9657 24.1671 24.7555 25.1505C24.6805 25.5016 24.7238 25.9285 24.7235 26.2873L24.7248 35.3316C24.7273 35.4151 24.7251 35.5518 24.7715 35.6235L24.7985 35.6604C25.0596 36.0678 25.4525 36.4023 25.9455 36.4726L25.9792 36.4777C27.0366 36.6236 28.9116 36.0769 29.8654 35.7063C31.3869 35.0229 32.793 34.0569 33.4128 32.4344L33.5385 32.0794C33.6372 31.7838 33.4364 31.5598 33.3316 31.2796L32.7609 29.5419C32.3832 28.2388 32.2711 27.697 32.2712 26.384L32.2727 24.1364C32.2726 22.9086 32.1877 21.7465 31.8563 20.5549L31.4435 19.1215C30.8984 16.88 31.6782 14.7834 32.9662 12.9233C31.6712 12.5184 30.3027 12.1504 29.5275 10.8952C29.465 10.7941 29.4576 10.6894 29.3335 10.6994ZM34.4685 13.6525C33.4821 14.1054 32.5531 17.1459 32.752 18.176L33.4422 20.9263C33.6166 21.7257 33.7073 22.601 33.732 23.4193L33.7262 26.1741C33.7257 27.0542 33.7493 27.9791 34.0692 28.8122L35.3633 32.6847C35.4107 32.7984 35.4332 32.9172 35.4762 33.0316L36.7702 36.9473C37.1044 37.698 37.433 38.9203 38.508 38.7256L38.5378 38.7206C38.7911 38.6756 39.0757 38.5286 39.3166 38.4361L40.3436 38.045C40.7253 37.9078 41.1634 37.842 41.338 37.4277L41.3729 37.3294C41.4102 37.2082 41.3408 37.0511 41.3047 36.9339L36.2115 17.0625L35.9411 15.8035C35.8103 15.2076 35.2426 13.5396 34.4685 13.6525ZM13.108 13.7932C12.3097 14.2546 12.2351 15.1472 12.0474 15.9428L11.4338 18.4924L6.65637 37.0432C6.62848 37.1639 6.61465 37.2461 6.64634 37.3681L6.65478 37.4053C6.76803 37.7143 7.44171 37.8679 7.71153 37.9773L9.03279 38.5314C10.6593 39.2026 10.9076 37.6766 11.3216 36.473L13.2873 30.7849C14.0018 28.8031 14.271 27.9055 14.2665 25.8503L14.2599 22.9682C14.2759 21.1194 15.3805 19.4598 15.2804 17.575C15.2158 16.3603 14.6637 15.0073 13.7504 14.2019C13.6274 14.0934 13.2927 13.7637 13.108 13.7932Z" fill="black"/>
</svg>
