<svg width="48" height="48" viewBox="0 0 48 48" fill="none" xmlns="http://www.w3.org/2000/svg">
<path d="M48 34.2313V36.0608C47.1009 37.2772 45.5558 37.6173 44.1857 38.0396C42.7398 38.4852 41.3286 39.1112 40.8143 37.102C40.5777 36.1777 40.5342 36.196 39.9644 35.4534C39.5607 34.9271 39.1677 34.3949 38.8425 33.8153L38.1302 32.4868L36.0728 27.6498L36.0956 32.5589C36.0957 33.2237 36.1374 33.8287 36.235 34.4883L36.4501 36.323C36.4943 36.8219 36.6202 37.3072 36.4999 37.8086L36.4935 37.8371C36.2 39.1018 34.4658 40.1911 33.3615 40.6994C31.697 41.4656 30.0696 41.6299 28.2786 41.6276L27.3652 41.6263C26.8891 41.6256 26.429 41.5532 25.9519 41.5433L22.2288 41.548C22.006 41.5562 21.7915 41.6049 21.5688 41.6133L18.7623 41.6191C16.6511 41.5087 11.4643 40.4258 12.2585 37.3701C12.2958 37.2264 12.2968 37.0716 12.3164 36.9245L12.693 34.2877C12.7687 33.8024 12.7975 33.4049 12.7718 32.918L12.6421 27.9955C12.5612 28.239 12.4576 28.4248 12.3629 28.7132L12.0493 29.6042C11.3503 31.4582 10.3898 33.3802 9.14484 34.9285C8.8058 35.3502 8.35416 35.7354 8.08298 36.2005C7.63059 36.9765 7.87828 38.0431 6.75127 38.5388L6.71602 38.5547C5.89491 38.9162 4.4319 38.3907 3.65836 38.0816L1.1979 37.0007C0.779048 36.7921 0.315388 36.6046 0 36.2464V35.1353L0.78083 33.4871L7.96716 15.6118L8.92805 12.8148C9.09572 12.2781 9.20634 11.7356 9.45403 11.2266C10.2583 9.57376 11.5744 9.02654 13.237 8.54687L18.0441 7.00389C18.5002 6.83978 19.0213 6.69948 19.4386 6.45137C19.6568 6.32172 19.9301 6.37365 20.1723 6.37309L27.9183 6.37459C28.6868 6.37544 28.5323 6.33583 29.2192 6.62701L34.2324 8.38998C35.1426 8.70794 36.1507 8.93551 36.9701 9.45601C38.1643 10.2146 38.9912 11.2833 39.4761 12.6098C39.6387 13.0547 39.7137 13.4596 39.8587 13.8711L41.8549 19.1549L47.1745 32.2268C47.2458 32.3724 47.2931 32.5298 47.3555 32.6797L47.7539 33.6547C47.828 33.8404 47.8908 34.0355 47.9883 34.2106L48 34.2313ZM27.0563 7.84815L20.179 7.85279C20.3363 8.79911 20.9461 9.65458 21.716 10.2049C22.0135 10.4176 22.3588 10.6165 22.6258 10.8626C23.028 11.1785 23.3716 11.5297 23.6859 11.9329L24.0463 12.4417C24.8855 11.1529 25.3652 10.9637 26.5051 10.0967C27.2235 9.55028 27.7894 8.74829 27.9323 7.84347L27.0563 7.84815ZM29.319 8.26178C28.8657 9.98467 28.2663 10.633 26.8801 11.6189C25.9925 12.2502 25.1752 13.0264 24.8561 14.1002C24.7728 14.3807 24.8102 14.6909 24.8088 14.9836L24.8046 40.0465L25.9346 40.0572C26.1866 40.072 26.4341 40.1205 26.687 40.1307L28.5349 40.1432C29.201 40.1412 29.6665 40.093 30.3094 40.0318C31.7411 39.8954 34.0897 39.0089 34.9434 37.7239C35.1955 37.3445 35.0535 36.9006 34.9963 36.4735L34.6945 33.9058C34.6275 33.3025 34.6387 33.1919 34.659 32.5808L34.6556 30.917C34.6489 30.676 34.6063 30.4407 34.6014 30.199L34.5844 28.1187C34.5709 27.797 34.5125 27.4795 34.506 27.1573L34.4932 23.432L34.3826 21.3495C34.3725 21.1608 34.3403 20.9754 34.3363 20.7859L34.299 19.5235C34.2688 19.115 34.2547 18.7022 34.2183 18.295L34.1284 17.4223C34.0713 16.9204 34.0268 16.3761 34.6848 16.2516L34.8598 16.2347C35.1422 16.3125 35.3143 16.4209 35.4375 16.6993L35.4493 16.7244C35.5064 16.848 35.5282 16.9759 35.5396 17.1105L35.7891 19.8661L35.8186 21.2696C35.8301 21.4474 35.8662 21.6201 35.8733 21.8003L35.886 23.0178C35.8875 23.2608 35.8356 23.636 35.9488 23.8477L39.0794 31.0385C39.4364 31.9307 39.9144 32.8439 40.4522 33.6343L41.369 34.861C41.9166 34.5779 42.5055 34.4239 43.087 34.228C44.1112 33.883 44.9788 33.3877 45.8352 32.7328L39.1986 16.5089C39.0543 16.1586 38.9475 15.8022 38.8328 15.4421L38.3555 13.91C37.7042 11.738 37.0848 10.9151 34.8031 10.1282L29.4874 8.30458C29.4374 8.28878 29.3705 8.25709 29.319 8.26178ZM18.8042 8.30176L13.3614 10.0538C12.3273 10.3461 11.3058 10.7725 10.794 11.7978L2.65849 32.855C3.66561 33.8112 4.87566 34.2023 6.14062 34.6822L6.7433 34.9103C6.8415 34.949 6.94627 35.0069 7.04906 35.0274C7.5473 34.4579 8.07727 33.933 8.51953 33.3141C9.24741 32.2954 9.79823 31.1451 10.2966 30.0009L12.2583 25.1233C12.492 24.5299 12.5699 24.4866 12.5489 23.8712L12.3708 18.0544C12.3652 17.6715 12.411 17.3433 12.8341 17.1894L12.9277 17.1589C13.342 17.1515 13.7271 17.29 13.787 17.7534C13.8647 18.3552 13.8497 18.9704 13.852 19.5758L13.9582 23.1171C13.9768 23.4611 14.0402 23.8077 14.0494 24.1518L14.1667 29.1563C14.1754 29.3439 14.2117 29.5292 14.2179 29.7188L14.2295 31.9578C14.238 32.4918 14.3928 33.0452 14.2817 33.5743L13.6336 38.1707C14.9796 40.0968 18.9029 40.2264 21.0259 40.1297L22.9499 40.0396C23.0792 40.0376 23.2412 40.053 23.3639 40.0176L23.3595 14.8264C23.3577 14.43 23.3888 14.2711 23.212 13.918C22.0004 11.4979 19.6768 11.4093 18.8988 8.69115C18.8655 8.57453 18.8534 8.40653 18.8042 8.30176ZM46.3845 34.176C45.5212 34.7654 44.6856 35.2495 43.695 35.596C43.1592 35.7835 42.5771 35.9103 42.0684 36.1638C42.1032 36.3441 42.2724 37.0713 42.4336 37.0316C43.5766 36.6254 46.0097 36.2632 46.7519 35.2446C46.6983 35.0331 46.5045 34.3562 46.3845 34.176ZM2.03518 34.254L1.46614 35.4779C2.51483 36.1498 4.68839 36.9393 5.84991 37.1673C6.3548 37.1987 6.40997 36.8831 6.42155 36.367C5.05669 35.7903 3.57869 35.4507 2.38606 34.5286C2.30235 34.4639 2.13098 34.2601 2.03518 34.254Z" fill="black"/>
</svg>
