<svg width="48" height="48" viewBox="0 0 48 48" fill="none" xmlns="http://www.w3.org/2000/svg">
<path d="M22.0898 31.4932L20.4417 39.0345L20.1759 40.609C20.141 40.8461 20.1372 41.084 20.1335 41.3228C20.1168 42.4169 19.0776 42.1686 18.3239 42.1059L12.3381 41.6316C11.9225 41.6001 11.0539 41.7102 10.7083 41.4752L10.6878 41.4608C10.5291 41.352 10.4269 41.2131 10.3802 41.0256L10.3714 40.9884C10.3138 40.7507 10.3636 40.5044 10.3889 40.265L10.6739 37.1361L11.0072 32.3102C11.0161 32.1904 11.0425 32.0763 11.0506 31.9561L11.1019 30.7996C11.1083 30.7103 11.1349 30.6286 11.1411 30.5371L11.2435 28.9405C11.287 28.1177 11.3198 27.257 11.3736 26.441L11.6531 21.4959C11.6592 21.3806 11.69 21.2736 11.6986 21.1616L11.7553 20.0185C11.7618 19.9161 11.786 19.8187 11.7931 19.7177L11.9374 16.8716C11.9441 16.7584 11.9726 16.6543 11.9806 16.5431L12.1655 12.9486C12.1997 11.9555 12.2915 11.1402 12.533 10.1621L12.9026 8.69839C13.0305 8.08404 13.1096 7.11973 13.007 6.48293C12.9549 6.16039 13.1307 5.7785 13.4807 5.72L13.512 5.71531C13.6873 5.68723 13.85 5.7064 14.0256 5.71578L19.1167 6.18922C20.0075 6.23661 20.856 6.28161 21.751 6.30926L25.6093 6.36889L26.5735 6.308C27.2847 6.27607 27.9713 6.23361 28.681 6.19198L34.2842 5.68189C34.5116 5.6525 34.7735 5.78201 34.8843 5.97907L34.9051 6.01765C34.9883 6.1685 34.9778 6.31207 34.9754 6.47984L34.9458 7.265C34.9385 7.95471 35.0377 8.63693 35.2224 9.30078L35.5315 10.5111C35.9165 12.1546 35.7883 13.1277 35.8753 14.7626L36.1106 18.6808C36.1214 18.8682 36.1613 19.0534 36.1693 19.2416L36.4773 25.0859C36.4863 25.2238 36.5196 25.3568 36.5284 25.4956L36.7583 29.3775L37.418 38.4239L37.5957 40.1595C37.6546 40.6842 37.8212 41.537 36.9613 41.5969L35.9652 41.6265L29.3337 42.0959C29.0489 42.1124 28.7205 42.2242 28.4403 42.1296L28.4066 42.1175C27.7706 41.8983 27.9229 41.4239 27.865 40.9032C27.8261 40.5535 27.7253 40.1999 27.6756 39.8488C27.5827 39.1923 27.5415 38.5394 27.3865 37.893L25.7302 30.7634L24.012 22.3738L22.0898 31.4932ZM14.4282 7.16815C14.4199 7.46965 14.4299 7.77795 14.4095 8.07856C14.4034 8.16842 14.3426 8.35254 14.3679 8.42365L19.6755 9.18125L21.7898 9.30987C22.0263 9.32234 22.2575 9.3694 22.4929 9.38037L25.6715 9.37967C25.9076 9.37039 26.1433 9.32815 26.3802 9.31273L28.2777 9.17407L33.299 8.46682L33.6242 8.38728C33.5046 8.02142 33.5573 7.55093 33.5579 7.16581L26.3848 7.76693L21.7907 7.76782C21.4705 7.75957 21.1555 7.71101 20.8362 7.694L19.8111 7.66822C19.6108 7.65753 19.4175 7.619 19.2189 7.60447L15.6331 7.28764C15.2311 7.24981 14.8324 7.1847 14.4282 7.16815ZM14.0852 9.81082C13.8541 10.466 13.6488 11.3937 13.5866 12.0956L13.5016 14.0319C14.2403 13.9482 14.857 13.6895 15.4309 13.2178C16.2916 12.3845 16.5299 11.3885 16.7237 10.2295L14.0852 9.81082ZM33.8381 9.82892L32.416 10.0504C32.0396 10.1192 31.6448 10.2132 31.2617 10.2227C31.3949 11.4066 31.7083 12.5194 32.6639 13.286C33.2569 13.7339 33.7589 13.924 34.4806 14.0331C34.4702 12.2734 34.3013 11.5549 33.9203 9.84312L33.8381 9.82892ZM29.7155 10.4382L26.344 10.7625C26.3434 10.9349 26.3803 11.085 26.3954 11.2545L26.6906 14.6908L26.6956 15.9044C26.6951 16.1889 26.737 16.5542 26.6378 16.8197C26.2719 17.7997 25.9839 18.4349 24.9493 18.945C24.9145 18.9622 24.853 18.9717 24.8637 19.0123L26.4447 27.3091L28.2547 35.603C28.2919 35.7259 28.3063 35.8553 28.3464 35.9771L28.8299 37.9564C28.8553 38.0729 28.862 38.1846 28.9006 38.2994L30.7091 38.1954L36.0022 37.8995L35.9571 37.5052C35.9088 37.1731 35.9219 36.8296 35.8989 36.4944L35.3695 29.3189L35.0853 24.7168C35.06 24.1763 34.9863 23.642 34.9794 23.1032L34.9511 22.1637C34.9444 22.0735 34.9186 21.9908 34.9123 21.9009L34.6919 17.62C34.6768 17.3241 34.627 17.0298 34.6185 16.7337L34.5857 15.4759C34.2265 15.4365 33.8804 15.412 33.5277 15.3228C31.8363 14.8949 30.5758 13.4238 30.1267 11.7809L29.9666 11.0564C29.9202 10.8459 29.9526 10.3867 29.7155 10.4382ZM18.1354 10.4454C18.0499 10.8874 17.9878 11.33 17.8684 11.7659C17.2992 13.8426 15.6159 15.3959 13.4143 15.4476L12.0025 37.8911L17.4669 38.2006L18.7518 38.3099C18.8715 38.3176 19.0453 38.354 19.1608 38.3332C19.2457 37.6769 19.4425 37.0073 19.5937 36.3627L23.2575 19.3072C23.3975 18.7207 23.3491 18.816 23.3405 18.2473L23.3404 10.8106L18.1354 10.4454ZM24.7458 10.8627C24.6974 11.2015 24.7214 11.5441 24.7149 11.8842L24.7151 16.5697C24.7137 16.8425 24.678 17.1246 24.7217 17.3952C24.8139 17.3057 24.8896 17.2142 24.9664 17.1116C25.4772 16.3546 25.3214 15.2956 25.2499 14.4307L25.0944 12.4597C25.0472 11.9288 24.9674 11.3958 24.9514 10.8627C24.8883 10.8442 24.8102 10.8499 24.7458 10.8627ZM11.8602 39.3544L11.8141 40.1456L18.823 40.6761L18.9199 39.7562L13.6873 39.3896C13.0941 39.3459 12.4522 39.3062 11.8602 39.3544ZM35.8013 39.341L29.0874 39.748C29.0605 39.8796 29.1899 40.5697 29.2386 40.686L29.4671 40.6866L36.1918 40.183C36.1743 39.9019 36.187 39.5961 36.1394 39.3196L35.8013 39.341Z" fill="black"/>
</svg>
