<svg width="48" height="48" viewBox="0 0 48 48" fill="none" xmlns="http://www.w3.org/2000/svg">
<path d="M25.5686 30.3919L24.0211 21.9761C23.9006 22.2247 23.8843 22.4848 23.8404 22.7524L21.2346 36.4929L19.7977 43.6413C19.5657 44.8734 19.3839 46.0458 17.8694 46.3909C17.2199 46.5389 16.5913 46.483 15.9282 46.4821C14.5003 46.4803 13.3274 46.4606 12.6804 44.8132C12.5943 44.5939 12.5881 44.3918 12.5738 44.1618L12.4736 41.8447C12.4642 41.5769 12.413 41.3177 12.3998 41.0515L12.3757 39.6825L12.1978 36.8125L12.1792 35.1758C12.1736 34.9238 12.1285 34.6792 12.1183 34.4304L12.009 32.0751L11.9914 30.0214C11.9839 29.7497 11.9282 29.4877 11.9189 29.2163L11.9041 27.7894C11.8935 27.5146 11.8427 27.242 11.8357 26.9683L11.7066 21.5866C11.703 21.3817 11.6589 21.1835 11.6532 20.9813L11.6455 15.593C11.6899 14.6257 11.7949 13.662 11.932 12.7038L13.3926 3.07442C13.477 2.41399 13.3666 1.79644 14.1172 1.52822L33.1845 1.5172C33.4661 1.51721 33.8502 1.43792 34.0959 1.60191L34.1247 1.62166C34.4586 1.8475 34.4703 2.07113 34.5153 2.4382L34.7337 3.98507C34.7577 4.128 34.7602 4.27582 34.7821 4.41867L35.0254 5.98649C35.0689 6.31781 35.1011 6.65624 35.1581 6.98507L35.8652 11.5145C36.0573 12.773 36.2915 14.0248 36.3813 15.2974C36.4572 16.373 36.4166 17.4696 36.4156 18.5476L36.4062 22.3551C36.4012 22.5476 36.3623 22.7323 36.3527 22.9226L36.3453 23.836L36.2344 26.6522C36.2259 26.8159 36.1914 26.9753 36.1886 27.14L36.172 28.2636C36.161 28.6339 36.0992 28.986 36.0822 29.3562L36.0524 30.5302C36.0482 30.7129 36.0102 30.889 36.0021 31.07L35.8637 34.2141C35.8536 34.4146 35.8134 34.6124 35.8037 34.8128L35.6045 39.6284L35.4194 42.6047C35.3974 43.2246 35.4461 43.8803 35.3303 44.4932C35.0629 45.9086 33.8418 46.4825 32.5366 46.4824L31.4792 46.4823C31.1207 46.4821 30.7143 46.5178 30.3617 46.4697C28.7156 46.2453 28.4957 45.118 28.2079 43.6765L25.5686 30.3919ZM14.8512 2.98464L14.5208 5.25009L18.9427 5.77415C19.0381 5.78638 19.1279 5.7891 19.2119 5.83982C19.2722 5.5476 19.241 5.18967 19.2418 4.88957L19.2494 2.99013L14.8512 2.98464ZM20.6548 2.98233C20.5857 3.69998 20.6261 4.45166 20.625 5.17532L20.6242 5.74199C20.6242 5.82684 20.6123 5.92523 20.6327 6.00684L27.3311 6.00993L27.322 2.98358L20.6548 2.98233ZM28.7568 2.98413L28.7349 4.98754C28.7456 5.91899 28.5355 5.83631 29.3903 5.74354L31.6476 5.47134C32.0606 5.41879 32.4971 5.39517 32.9042 5.31702C33.0587 5.29321 33.2603 5.29077 33.4047 5.23949C33.3886 4.9477 33.2479 3.23726 33.1543 2.98673L28.7568 2.98413ZM33.4834 6.75951L30.8791 7.12256C30.9951 7.47796 31.8174 8.23195 32.1028 8.43698C32.702 8.78456 33.3313 9.06745 34.0439 9.02071L33.7143 6.73949L33.4834 6.75951ZM14.2923 6.86568L14.009 8.6939C13.993 8.79013 13.9554 8.89813 13.9582 8.99456C14.8611 9.14385 15.7643 8.98134 16.5202 8.45582C16.963 8.08312 17.2428 7.70699 17.465 7.1691L14.2923 6.86568ZM29.3492 7.27804L26.9763 7.44482L26.9781 13.6282C26.9768 15.2074 26.6321 16.6874 25.0843 17.5155C24.9913 17.5654 24.88 17.5987 24.7939 17.6578L29.7563 44.1802C29.7985 44.3326 29.808 44.4328 29.8869 44.5779L29.9013 44.605C30.0078 44.8018 30.2332 44.955 30.4469 45.0147L30.4658 45.0196L32.2718 45.0164C32.8609 45.0156 33.3199 45.119 33.7596 44.6514C34.217 44.165 34.109 43.2628 34.1462 42.6464C34.2171 41.4704 34.2961 40.3189 34.332 39.1349C34.3398 38.8789 34.3961 38.6339 34.4079 38.3796L34.4346 37.0079L34.5996 34.3454L34.6229 32.5773C34.6324 32.3146 34.6828 32.0576 34.6935 31.7963L34.8869 26.5905L34.899 24.5347C34.9017 23.6444 34.9892 22.7663 34.9908 21.8739L34.9916 16.9223C34.9913 16.0873 34.9918 15.3936 34.8983 14.5671L34.447 11.7389C34.1047 9.98891 34.6495 10.6677 33.0034 10.3539C31.4794 10.0635 29.9808 8.71996 29.3997 7.27415L29.3492 7.27804ZM18.9767 7.33813C18.2835 9.62821 16.0051 10.7578 13.7238 10.4561L13.2273 13.5182C13.0069 14.9719 13.0055 16.353 13.006 17.8166L13.0147 21.0992C13.0216 21.293 13.0695 21.4848 13.079 21.6804L13.2241 26.0398C13.2303 26.2171 13.271 26.3906 13.2822 26.5676C13.3053 26.9318 13.3168 27.3516 13.3341 27.7265L13.4219 30.919C13.4312 31.0865 13.4598 31.2512 13.4661 31.4198L13.4952 33.2603C13.5035 33.4784 13.5552 33.6821 13.5676 33.8986L13.5975 35.4499C13.6058 35.6491 13.6498 35.8491 13.6597 36.0476C13.6919 36.6905 13.6014 37.3921 13.7373 38.0234C13.7867 38.253 13.7629 38.5214 13.7647 38.7561L13.786 39.6935C13.7915 39.9118 13.8396 40.1219 13.853 40.3366L13.9325 42.2631C13.9607 42.8753 13.9272 43.5151 14.0036 44.1218L14.0069 44.1525C14.0652 44.6752 14.5029 45.0151 14.9997 45.0172L17.3701 45.0168C18.374 44.939 18.4076 43.4053 18.5588 42.6592L22.2119 23.8068L23.1872 18.0827C23.2884 17.5279 23.2689 17.0032 23.2691 16.4394L23.2604 7.48317L18.9767 7.33813ZM24.7302 7.48092L24.733 16.0155L25.1164 15.5397C25.3162 15.1926 25.4993 14.8385 25.5133 14.4352L25.5202 7.48626L24.7302 7.48092Z" fill="black"/>
<path d="M24.134 5.24834C23.1489 5.29245 22.9075 4.15429 23.8448 3.77675C24.2288 3.74281 24.5319 3.87025 24.6849 4.23953L24.7148 4.31464C24.8203 4.73332 24.5307 5.13795 24.134 5.24834Z" fill="black"/>
</svg>
