<svg width="48" height="48" viewBox="0 0 48 48" fill="none" xmlns="http://www.w3.org/2000/svg">
<path d="M26.7226 45.3687C26.7165 46.6311 26.1957 46.4789 25.2264 46.4799L21.8008 46.4804C20.7041 46.4797 20.6582 46.5408 20.5242 45.5006L19.5694 37.5982C19.5554 37.4623 19.5246 37.335 19.5171 37.1949L19.498 35.7779C19.4971 34.5452 19.5887 33.3988 20.0155 32.2322C20.3076 31.4336 20.6933 30.6513 20.8169 29.8007C20.9574 28.8331 20.7486 27.425 20.6573 26.4542L19.5347 16.6763C19.4032 15.5196 19.3185 14.333 18.9596 13.2183L18.4095 11.6984C18.1826 11.0084 18.0891 10.352 18.0645 9.63069L18.0708 8.5317C18.082 7.47444 18.191 6.48692 18.4334 5.45099C18.6578 4.49195 18.9015 4.19233 18.8975 3.15862L18.8932 2.16418C18.8913 1.66906 18.8578 1.31577 19.4162 1.12885L27.558 1.12979C28.44 1.13032 29.0717 0.911771 29.0723 2.09743L29.0712 3.0816C29.0708 3.29608 29.0526 3.53043 29.1004 3.74017L29.539 5.23677C29.6642 5.59635 29.7218 6.03678 29.7661 6.41169L29.8306 7.19891C29.9999 8.52814 29.9232 11.369 29.4341 12.48C28.9983 13.4701 28.9303 13.5349 28.7794 14.6391L28.4084 17.355L27.2892 26.9L27.1088 29.2964C27.0785 29.7677 27.1393 30.4923 26.8758 30.908L26.8517 30.9447C26.8343 31.1054 26.9849 31.4142 27.0331 31.5836C27.3598 32.73 27.4459 33.9319 27.447 35.119L27.4446 37.1419C27.438 37.3937 27.3963 37.6452 27.3801 37.8966L26.8632 43.4601C26.8087 44.1003 26.7261 44.7235 26.7226 45.3687ZM20.0615 2.32946L20.0624 3.02294L27.9105 3.03231C27.9096 2.82311 27.9417 2.53778 27.9004 2.32533L20.0615 2.32946ZM20.0134 4.24039L19.6177 5.72164L27.908 5.73027L28.4067 5.7186L28.0186 4.24262L20.0134 4.24039ZM19.37 6.9156C19.2338 7.84339 19.1246 10.0799 19.4445 10.9858L19.7831 11.9916C19.8642 12.2698 19.9953 12.5373 20.0789 12.8199L20.3974 14.0733L21.531 23.4096L21.9939 27.8783L22.0317 29.0697C22.0321 30.0478 21.8422 30.8915 21.4669 31.8043C20.8187 33.3802 20.6931 34.1253 20.6935 35.758L20.7075 37.0835L21.0603 40.3862C21.0795 40.5318 21.0807 40.6804 21.1022 40.8252L21.6189 44.766C21.6366 44.9202 21.64 45.0758 21.6747 45.2275L23.3544 45.2401L23.3611 13.9565C22.6279 13.6894 22.3408 13.6621 21.7116 13.0285C20.8866 12.1976 21.6383 11.5525 22.1619 11.7943C22.414 11.9107 22.6087 12.1468 22.8344 12.3084C23.0205 12.4415 23.2264 12.5417 23.415 12.6703C23.7942 12.6719 23.9947 12.9045 24.3309 12.6418L24.8404 12.2398C25.2541 11.9073 25.8265 11.4901 26.2028 12.2231C26.56 13.051 25.3905 13.6389 24.785 13.8918L24.5559 13.9768C24.5262 14.2848 24.537 14.598 24.5367 14.9073L24.5378 44.541C24.538 44.7536 24.5021 45.0456 24.5481 45.2501L25.5279 45.2498C25.5569 45.2152 25.5501 45.2002 25.5541 45.1546L25.6225 43.7925L25.9648 40.5333L26.2488 37.1765L26.2653 35.413C26.2632 34.3229 26.2541 33.2031 25.9526 32.1459C25.8098 31.6451 25.3081 30.8792 25.8078 30.4058C25.8762 30.341 25.8943 30.2963 25.896 30.2015L25.9083 29.0781L26.2404 25.5457L27.6974 13.7633C27.8379 12.8028 28.2173 12.4068 28.4838 11.5623C28.8327 10.4569 28.7395 8.04969 28.6437 6.92403L19.37 6.9156Z" fill="black"/>
</svg>
