<svg width="48" height="48" viewBox="0 0 48 48" fill="none" xmlns="http://www.w3.org/2000/svg">
<path d="M24.59 19.5246C24.58 19.2542 24.5347 18.9871 24.5027 18.7193L24.2191 16.1364C24.1635 15.5572 24.1456 14.9958 23.9945 14.4288C23.8394 14.8619 23.821 15.3325 23.7915 15.7888L22.6039 27.075L21.848 36.2222L21.805 37.2887L21.4613 42.0153L21.4189 43.1951C21.3589 43.9488 21.077 43.9876 20.3593 43.988L16.9738 43.9887C16.1365 43.9884 15.2911 44.2625 15.3059 43.1103L15.5541 39.2927L16.4049 27.9984L16.5403 23.9029C16.5468 23.6985 16.5982 23.5019 16.6028 23.2958L16.6032 14.9359L16.5336 13.1677C16.5361 11.8359 16.7552 10.5492 16.9523 9.23406L17.1996 7.6989C17.337 7.03984 17.5789 6.41715 17.7003 5.75218C17.8286 5.04934 17.4643 4.11436 18.4535 3.9931L28.2275 3.9852C28.6823 3.98539 29.1515 3.96236 29.6049 3.99074C30.3913 4.03993 30.1997 4.63746 30.261 5.2036L30.2859 5.60124C30.3137 5.89295 30.3792 6.28318 30.4848 6.56176L30.7604 7.5084C30.8033 7.64551 30.817 7.78173 30.8444 7.92156L31.0322 9.11687C31.2959 10.727 31.5291 12.2637 31.4475 13.8981C31.4387 14.0745 31.3994 14.2504 31.3932 14.4255L31.3931 23.3098L31.5134 26.4489L31.7902 30.729L32.5823 40.938L32.6886 42.7222C32.7456 43.6922 32.7128 43.9837 31.644 43.9855L28.2808 43.9879C27.0866 43.9879 26.6639 44.2821 26.621 42.916C26.6159 42.7546 26.5957 42.6025 26.5806 42.4428L25.6645 30.0083L24.7799 21.2733C24.7142 20.6933 24.6899 20.0991 24.59 19.5246ZM18.9354 5.13896L18.8439 5.15874C18.8095 5.32984 18.8251 5.48823 18.8162 5.65984C18.7774 6.41312 18.4664 7.17334 18.2827 7.89812C18.1331 8.4887 18.077 9.12024 18.0416 9.72695C18.6661 10.2985 19.5279 10.3388 20.1985 9.83818C20.733 9.39268 21.0458 8.70221 21.1734 8.02848C21.2401 7.67612 21.2829 7.29268 21.291 6.93437L21.3631 5.14112L18.9354 5.13896ZM22.4595 5.13746L22.4336 5.17501C22.2242 7.16364 22.7235 9.19159 20.8736 10.7148C20.3401 11.1541 19.6968 11.373 19.007 11.3169L18.9023 11.3012C18.4957 11.2285 18.1667 11.0725 17.8168 10.8577C17.5904 12.0572 17.6282 13.27 17.6879 14.4793L17.6942 23.9831C17.6884 24.1794 17.6509 24.3695 17.644 24.5658L17.6313 25.8737L17.4932 28.4401L16.4759 41.8977C16.4616 42.2116 16.3844 42.5477 16.4155 42.8605L16.998 42.8595L20.3186 42.8563C20.3587 42.4787 20.3552 42.102 20.3811 41.7241L20.6548 37.6316C20.6679 37.4744 20.7005 37.3211 20.711 37.1635L21.0311 32.3903L21.7837 24.0394L22.7565 15.3301C22.8244 14.7533 22.7877 13.6839 23.293 13.2719C23.3721 13.2073 23.4203 13.1903 23.4676 13.0932L23.4813 5.14989L22.4595 5.13746ZM24.5902 5.13756C24.5646 5.40821 24.5784 5.67676 24.5784 5.94789L24.5755 11.7184C24.5753 11.8836 24.5443 13.0706 24.575 13.1244C24.7416 13.4169 24.9096 13.4216 25.0595 13.9098L25.0699 13.9419C25.1885 14.3397 25.1745 14.7572 25.2266 15.1637L26.1135 22.9483L26.8768 31.3434L26.916 32.1739L27.696 42.5572C27.7036 42.643 27.6854 42.7867 27.7288 42.8587L30.3322 42.8595C30.7383 42.8595 31.1832 42.895 31.5849 42.8498L31.5669 42.4392L30.9161 33.3627L30.5041 28.316L30.4722 27.3371C30.4504 26.9878 30.381 26.6415 30.3675 26.2939L30.2911 23.6182L30.2953 15.1865L30.3543 13.335C30.3543 12.6982 30.3653 11.491 30.1703 10.8795L30.1552 10.8949C29.8203 11.227 29.2073 11.3257 28.7544 11.3207C26.6632 11.2973 25.7465 9.0617 25.6193 7.28115C25.5701 6.5927 25.5663 5.82667 25.5047 5.14482L24.5902 5.13756ZM26.6062 5.13746L26.6345 5.96542C26.6446 6.10651 26.6747 6.24226 26.6834 6.38335L26.7244 7.22509C26.7627 7.64214 26.8107 8.11857 26.9553 8.50749C27.3798 9.64928 28.4152 10.8038 29.6704 9.94032L29.9812 9.71499C29.9107 9.08832 29.8519 8.4631 29.707 7.84749L29.2958 6.31609C29.2098 5.92749 29.1696 5.54274 29.1649 5.14529L26.6062 5.13746Z" fill="black"/>
</svg>
