<svg width="48" height="48" viewBox="0 0 48 48" fill="none" xmlns="http://www.w3.org/2000/svg">
<path d="M26.274 24.8855L23.7905 17.429C23.6069 17.8725 23.4693 18.3353 23.311 18.7884L22.595 20.9179L21.3489 25.8164L20.3563 29.1888C20.2428 29.5892 20.1612 30.0132 20.0798 30.4218L19.5575 33.9634C19.4174 34.8093 19.2004 35.6451 18.965 36.4687L18.4694 38.0859C18.1779 39.0624 17.9212 40.0507 17.7227 41.0507C17.4229 42.5604 17.9898 43.1318 16.044 43.1399C15.4526 43.1424 14.8099 43.187 14.2267 43.0904C13.7759 43.0159 12.3668 42.6723 12.2476 42.1086C12.1858 41.8159 12.2123 41.4813 12.2117 41.1835L12.1058 38.3721C12.0857 37.8042 12.1229 37.2317 12.0864 36.6646L11.9881 34.8433C11.9018 32.8947 12.1323 32.248 12.7807 30.4187C13.7364 27.7222 14.0704 26.0525 13.5353 23.1751L12.787 19.5547C12.6705 18.9777 12.606 18.3891 12.5422 17.8045L12.4476 16.7812C12.4328 16.6231 12.4049 16.4662 12.3982 16.3074L12.3976 14.4392C12.4042 14.1816 12.456 13.9281 12.4655 13.6707L12.4818 12.3015C12.4909 12.1269 12.5309 11.9629 12.5446 11.79L12.7876 9.4417L13.3672 6.52926C13.4404 6.15862 13.3424 5.47617 13.5075 5.23078L13.5264 5.20308C13.7089 4.9267 13.9486 4.83773 14.2751 4.81406L32.8025 4.81064C34.3136 4.8074 34.1769 4.88128 34.3085 6.44868C34.3394 6.81703 34.4511 7.15275 34.5449 7.50595L34.7819 8.51948C35.048 9.57276 35.1301 10.6189 35.2587 11.6924L35.3451 12.6796C35.3727 12.9939 35.4224 13.3049 35.4362 13.6212L35.4361 15.9534L35.3499 16.854C35.2942 17.7085 35.238 18.5672 35.102 19.4141L34.3644 23.711C34.2487 24.5238 34.2391 24.8682 34.228 25.6757C34.2166 26.5032 34.273 27.2341 34.5009 28.0429C34.5564 28.2397 34.6289 28.4399 34.6706 28.6395L35.821 32.2845C35.9473 32.6457 36.0336 33.1628 36.0471 33.539L35.9818 36.0537L35.8623 38.6241C35.8543 38.8147 35.8036 38.9976 35.7977 39.1861L35.7904 41.0777C35.7899 41.3784 35.8355 41.7844 35.7488 42.0681L35.7405 42.0937C35.4247 43.1561 32.3955 43.2375 31.2947 43.1141L31.2541 43.1092C30.6752 43.0461 30.5296 42.7676 30.4648 42.269L30.3658 41.5354C29.9915 39.2272 29.0844 37.1162 28.6233 34.8748L27.7185 29.6274C27.5524 28.9387 27.311 28.2715 27.0955 27.5975L26.274 24.8855ZM14.6532 6.10664L14.5846 6.74934C14.5524 6.99468 14.4917 7.2419 14.4229 7.47937C15.0779 7.76015 16.2069 7.88587 16.9114 7.94756L17.7728 7.99462C18.2922 8.03779 18.8192 8.12681 19.3419 8.13825C19.392 8.14261 19.4199 8.15161 19.4662 8.13126L19.4528 6.12215L14.6532 6.10664ZM29.333 6.11653L28.5035 6.11573L28.4996 7.39898C28.4998 7.64643 28.4792 7.91283 28.5241 8.15667L31.974 7.70615C32.3919 7.6432 32.8292 7.53918 33.2223 7.38403L33.0935 6.54904C33.0769 6.4259 33.0871 6.22776 33.0422 6.11756L29.6521 6.11508C29.5535 6.11517 29.429 6.10064 29.333 6.11653ZM20.6888 6.11962L20.6975 8.17992L26.6869 8.18053C26.882 8.18076 27.0849 8.20331 27.2783 8.1832L27.2768 6.11822L20.6888 6.11962ZM33.556 8.60034L31.7848 9.05208C31.7224 9.06215 31.6149 9.0637 31.5627 9.09422C31.7827 9.62972 32.0978 10.0235 32.5898 10.332C33.0098 10.5949 33.4822 10.7608 33.9671 10.8555L33.556 8.60034ZM14.1691 8.72967L14.0237 9.61814C13.974 9.9404 13.9129 10.2817 13.9216 10.6086C14.4946 10.5682 15.0991 10.4759 15.5794 10.1367C15.9357 9.86714 16.1381 9.55176 16.3067 9.14456L14.1691 8.72967ZM17.5644 9.24886C17.5321 9.31476 17.5267 9.3824 17.5026 9.45328C16.9029 11.2225 15.4783 11.8237 13.7541 11.8517L13.7339 12.539C13.7235 12.7062 13.6848 12.8693 13.6786 13.0393L13.6164 15.082C13.5898 15.5635 13.6304 16.0189 13.6586 16.4956L13.6837 17.127C13.7727 18.171 13.9619 19.2182 14.1629 20.245L14.6744 22.5351C14.7762 23.0262 14.8425 23.5143 14.9065 24.0117C15.2607 26.7643 14.8058 28.1895 13.9251 30.8458C13.6731 31.6059 13.3376 32.3816 13.2198 33.1757C13.0599 34.2533 13.2921 35.3761 13.3052 36.4578L13.3167 38.0976C13.3228 38.2635 13.3577 38.4305 13.366 38.5979L13.4367 41.5181C14.2214 42.0002 15.4673 41.941 16.3452 41.8792C16.4073 41.8231 16.4299 41.3392 16.4495 41.2223L16.7775 39.6511C17.132 38.0676 17.7339 36.5528 18.0919 34.9687C18.4561 33.3571 18.5311 31.7011 18.8701 30.0862C19.1575 28.7167 19.6553 27.3967 20.0177 26.0473L21.3388 20.8432L23.2674 15.2769C23.3426 15.0773 23.4181 14.8309 23.5357 14.6523C23.6394 14.4947 23.9676 14.0006 24.1056 13.9252L24.1892 13.8859C25.0179 13.4996 24.8832 11.9371 24.8844 11.2192L24.8719 9.45403L17.5644 9.24886ZM30.0614 9.24825C29.4918 9.30154 28.9227 9.41039 28.3518 9.44095C27.6111 9.48065 26.8525 9.44733 26.11 9.44658L26.1035 11.6442C26.1002 12.803 26.09 13.841 25.1807 14.7475C24.9502 14.9774 24.6151 15.1715 24.4193 15.4258L26.7399 22.2773C26.8526 22.6438 26.9998 23.1725 27.1327 23.5165L28.8212 28.9787C28.9869 29.4307 29.0782 29.9126 29.1692 30.3833L29.8244 34.6013L31.1353 39.298L31.4837 40.9161L31.5558 41.3309C31.5797 41.5165 31.5751 41.7296 31.6461 41.9024L32.7076 41.9078C33.3077 41.9059 34.0276 41.8864 34.5453 41.5357L34.6038 38.6032C34.6186 38.2808 34.6802 37.9631 34.6938 37.6396L34.7177 36.0537C34.8331 33.3998 34.9449 33.4101 34.0822 30.8784L33.4647 28.8361C32.602 25.6469 33.0333 23.9924 33.6224 20.8007L34.0093 18.3917L34.2093 16.2621L34.237 14.9589C34.2368 14.0486 34.2338 13.0457 34.0506 12.1491C32.264 11.9037 30.9439 11.0368 30.3565 9.33642C30.3012 9.17653 30.2131 9.23343 30.0614 9.24825Z" fill="black"/>
</svg>
