<svg width="48" height="48" viewBox="0 0 48 48" fill="none" xmlns="http://www.w3.org/2000/svg">
<path d="M30.69 0C31.122 0.28144 31.1944 0.424242 31.1958 0.908691L31.1963 3.22093C31.1953 3.76213 31.2705 3.86277 30.9499 4.30771C30.9848 4.58739 30.9785 4.91653 31.0486 5.1848L31.7686 7.821C31.7837 7.90669 31.8208 7.9822 31.8402 8.06677L32.3975 10.9437C32.5325 11.8847 32.5336 12.826 32.529 13.7743L32.5134 14.5482C32.5017 14.8871 32.4514 15.221 32.4185 15.5591L31.9227 18.8789L31.1216 23.1872L30.7912 25.7624C30.6242 27.174 30.4687 28.5801 30.796 29.9766L30.8896 30.4453C31.0639 31.1489 31.2121 31.8889 31.4063 32.5898L31.5457 33.0955C31.6278 33.4334 31.7081 33.7674 31.7752 34.1096L32.0879 35.9445C32.1333 36.2177 32.1283 36.4945 32.129 36.7706L32.0475 40.125C32.0362 40.3842 31.984 40.6398 31.9748 40.8998L31.9403 42.4101C31.9369 42.8018 31.9538 43.2193 31.9004 43.6079L31.8955 43.6406C31.881 43.7432 31.8644 43.8072 31.8025 43.8921L31.7801 43.9219C31.4551 44.37 30.8162 44.4364 30.3146 44.537C29.7525 44.6498 27.1039 45.1343 26.5879 44.9429L26.5544 44.9292C26.1114 44.7515 26.1093 44.3299 26.0837 43.9102L24.8184 32.1392L24.1672 28.3332C24.1174 28.0826 24.0563 27.8431 24.0292 27.5882C23.9315 27.8252 23.8954 28.0513 23.8505 28.3008L23.0645 33.0586L21.9831 43.363C21.9558 43.6695 21.9461 44.3161 21.8578 44.5373L21.8455 44.5664C21.6222 45.143 20.7995 44.9646 20.3318 44.9183C19.3516 44.8212 18.3784 44.702 17.4183 44.4745C16.0532 44.1511 16.1283 43.9591 16.0994 42.7649L16.0424 40.8626C16.0312 40.5786 15.978 40.3011 15.9648 40.0178L15.8624 36.7279C15.8635 36.3017 15.9015 35.8942 15.9661 35.4727L17.1834 30.1289C17.5354 28.4403 17.3894 27.2983 17.1974 25.5876L15.5454 14.719C15.4959 14.1556 15.4741 13.7719 15.4722 13.1878L15.4801 12.2496C15.4934 11.7999 15.5524 11.3338 15.6144 10.8881L15.9305 9.05784L16.8755 5.58694C16.9635 5.23866 17.1869 4.508 17.0002 4.22347C16.8754 4.03338 16.8037 3.89971 16.8014 3.66724L16.7961 1.50464C16.7948 0.843938 16.6265 0.306598 17.3609 0H30.69ZM19.7631 1.13624L18.5183 1.1396C18.3609 1.14021 18.11 1.11193 17.9634 1.16281L17.9358 3.36328C18.139 3.78181 21.3283 4.27894 22.1296 4.31836L24.115 4.32814C24.6741 4.32756 25.2532 4.35584 25.8099 4.31038C26.5249 4.25201 27.2236 4.11221 27.9325 4.0242C28.4181 3.92884 29.595 3.71905 30.0073 3.48135C30.0678 3.32463 30.024 2.99518 30.0239 2.82096L30.0226 1.14778C29.6331 1.10862 29.2235 1.13506 28.8319 1.136L19.7631 1.13624ZM18.1616 4.75889L18.0423 5.82361L18.1918 5.87658C18.3258 5.92397 18.4945 5.94234 18.6341 5.91455L18.6662 5.90873C18.778 5.88684 18.881 5.83416 18.9746 5.77022C19.1762 5.55708 19.2202 5.38467 19.2635 5.09794L18.1616 4.75889ZM29.7547 4.83984L28.7384 5.08739C28.7703 5.385 28.8376 5.56406 29.0367 5.7945C29.3167 5.98673 29.6424 5.97009 29.9358 5.82352L29.8844 5.11392C29.8796 5.03381 29.893 4.8772 29.8357 4.8232L29.7547 4.83984ZM27.5034 5.33203C26.9892 5.41284 26.4413 5.48545 25.9216 5.50899L23.7479 5.51503C23.1642 5.51377 22.5669 5.5403 21.9848 5.50697L20.4176 5.35613C20.3137 6.09497 19.9123 6.7282 19.1951 6.98883L19.1664 6.99961C18.4134 7.27552 17.8399 6.88767 17.6722 6.93169L17.3899 7.91259C18.2092 8.16891 19.2074 8.25131 20.0566 8.25591L20.9229 8.25994C21.4269 8.26228 21.9134 8.41627 21.7815 9.07238C21.7094 9.43078 21.6974 9.80175 21.628 10.1602C21.2094 12.3235 19.3267 14.4866 16.9762 13.593C16.6644 13.4745 16.5426 13.2975 16.6338 13.7915C16.6894 14.0924 16.6621 14.4248 16.6917 14.7316L16.9802 16.9519L18.1509 23.7068L18.463 26.4464C18.5623 28.157 18.6366 29.027 18.2459 30.8016L17.8741 32.3166C17.3677 34.2608 16.9298 35.951 17.0481 37.9751C17.079 38.5057 17.1426 39.0351 17.1468 39.5667L17.156 41.1239C17.1651 41.4083 17.2193 41.689 17.2263 41.9745C17.2358 42.3677 17.1919 42.7929 17.2446 43.1804C18.0222 43.5187 19.9472 43.7024 20.7814 43.7654L20.9412 41.7415L21.977 32.3232L23.0562 26.0421C23.1256 25.6066 23.1803 23.969 23.3834 23.6847L23.4064 16.7622L23.4051 14.3844C23.4059 14.2512 23.3968 14.1097 23.4532 13.9862L23.4666 13.9565C23.7654 13.3151 24.5375 13.5531 24.5978 14.1938C24.6218 14.4482 24.6031 14.7204 24.6031 14.9763L24.6048 21.1145C24.6062 22.2473 24.5839 23.2677 24.7146 24.3933L25.5482 29.25C25.5727 29.373 25.5747 29.502 25.6008 29.6235L25.9316 31.564C26.0229 32.2421 26.097 32.9188 26.1759 33.5973L27.0999 42.2941C27.1428 42.7366 27.1583 43.3203 27.2488 43.7239C27.8452 43.8 30.2983 43.3912 30.7565 43.1872C30.7771 42.0194 30.8154 40.8377 30.8531 39.6693L30.9543 37.5117C30.9907 36.5786 30.9172 35.7077 30.7349 34.7858L29.7025 30.4909C29.2921 28.5752 29.4092 27.5911 29.623 25.6172L31.0761 16.7525L31.3459 14.1211C31.3537 13.899 31.3855 13.6713 31.3636 13.4502L31.3319 13.471C30.7582 13.8331 29.9227 13.8492 29.2853 13.6887C27.2885 13.1859 26.3729 11.1207 26.2586 9.23438C26.204 8.334 26.564 8.26256 27.3379 8.25722C28.2491 8.25089 29.7185 8.23692 30.5823 7.88784L30.3656 6.96356C30.203 6.98452 30.0395 7.05722 29.8752 7.08666C28.7148 7.29474 27.6888 6.51839 27.5808 5.34553L27.5034 5.33203ZM30.7921 9.08203C29.6876 9.34542 28.631 9.44681 27.5037 9.45858C27.4442 9.59902 27.5565 10.0262 27.5983 10.174C27.7975 10.88 28.069 11.5362 28.648 12.0255C29.4234 12.7298 30.5544 12.7984 31.3359 12.0795C31.2805 11.4396 31.1635 10.8049 31.0627 10.1711L30.9327 9.37772C30.9168 9.28969 30.9047 9.14681 30.853 9.07533L30.7921 9.08203ZM17.1542 9.07945L16.9144 10.3242C16.8119 10.9071 16.7111 11.4945 16.6627 12.0842C17.4916 12.8706 18.6512 12.6795 19.4563 11.9649C19.927 11.4505 20.5671 10.2127 20.5358 9.49144L20.5294 9.46486C19.4351 9.43922 18.2137 9.39169 17.1542 9.07945Z" fill="black"/>
</svg>
