<svg width="48" height="48" viewBox="0 0 48 48" fill="none" xmlns="http://www.w3.org/2000/svg">
<path d="M22.6649 30.0653C22.5124 31.0055 22.5161 31.9631 22.5163 32.9126L22.5916 38.1498C22.5954 38.3928 22.6565 38.6211 22.6625 38.8615L22.6652 43.6737C22.6649 45.3156 22.3298 44.9781 20.9127 44.9791L16.5475 44.9788C16.1065 44.9786 15.7316 45.0811 15.4705 44.634L15.4555 44.6074C15.3445 44.4181 15.3973 44.0059 15.3971 43.7829L15.4079 35.767C15.4142 35.643 15.442 35.5216 15.4489 35.3978L15.6912 32.4411L16.1285 29.356C16.1459 29.1867 16.1499 29.0091 16.1815 28.8423C16.3536 27.9323 16.1976 26.2561 16.1055 25.3349L15.0301 18.1262L14.6018 14.3963C14.5902 14.2604 14.5581 14.1276 14.5488 13.9892L14.4852 11.9042C14.4582 10.5788 14.5312 9.23968 14.8337 7.94564C14.9683 7.36997 14.9667 6.63404 14.8971 6.04008C14.7906 5.12949 14.7471 5.47627 14.9731 4.48861C15.0618 4.10105 15.1746 3.06127 15.7264 3.02136C16.2804 2.9813 16.8571 3.01581 17.414 3.01575L31.4564 3.01553C32.0112 3.00707 32.6106 2.87269 32.8044 3.5422L32.8131 3.57455C32.9613 3.9726 32.9747 4.39792 33.094 4.7933C33.2837 5.42161 33.2098 5.31905 33.1019 5.93161C33.0374 6.29785 33.0034 7.4183 33.1177 7.78833C33.4324 8.80739 33.488 10.4422 33.4874 11.488L33.4704 13.7773L33.0641 17.4546L32.1678 22.9784L31.9189 25.3644C31.7956 26.7827 31.7006 27.955 31.8769 29.4027L32.4766 33.9964C32.5151 34.3148 32.5243 34.6479 32.5423 34.9687L32.6005 44.0931C32.6002 44.4268 32.592 44.6587 32.2849 44.8717L32.2506 44.8949C32.0363 45.0413 31.7522 44.979 31.5072 44.9792L25.8631 44.9781C25.7843 44.9755 25.7199 44.9679 25.6517 44.9266L25.5734 44.8814C25.2635 44.6933 25.3119 44.3482 25.3131 44.0407L25.3223 39.2784L25.4088 35.7441C25.4135 35.4843 25.4701 35.2343 25.4768 34.9763L25.4823 33.2934C25.483 30.5706 25.1584 28.8039 24.5105 26.1329L23.9894 23.8981C23.8579 24.3931 23.7786 24.8995 23.6715 25.4002L23.3196 26.9535C23.1037 27.9881 22.7762 29.0096 22.6649 30.0653ZM16.6792 4.03924L16.1806 4.05736L16.1074 4.65993L18.1756 4.65574L18.6908 4.63862L18.6801 4.06521C18.4176 4.03095 18.1486 4.04154 17.8843 4.0407L16.6792 4.03924ZM22.5581 4.03854L19.7375 4.05329L19.7516 4.64184L25.3086 4.65574L28.1746 4.65562L28.1686 4.06303L22.5581 4.03854ZM29.4207 4.03854L29.2616 4.04645C29.1983 4.11971 29.2289 4.49544 29.2369 4.60049L29.2395 4.6324C29.3428 4.66882 29.4468 4.65814 29.5545 4.65771L31.7629 4.65647L31.9391 4.63807L31.835 4.04714L29.4207 4.03854ZM20.9094 5.70769L20.3917 5.7165C20.3447 5.84677 20.3537 5.95782 20.3286 6.08743C19.9445 8.0648 18.2723 9.88158 16.1366 9.7426C15.9788 9.73233 15.8321 9.69268 15.677 9.6729C15.5434 10.5869 15.4443 12.1058 15.5927 12.9351C15.649 13.2493 15.6327 13.5836 15.6474 13.9025L16.0459 17.5081L16.927 23.0003C16.9825 23.3921 17.0342 23.7807 17.0734 24.1745L17.3153 27.0159C17.352 27.6278 17.3213 28.2208 17.2632 28.8278L16.8754 31.8402L16.5096 35.6426C16.488 36.0045 16.5005 36.3722 16.5005 36.735L16.4892 43.8275L21.5764 43.8253L21.567 37.9471L21.4673 33.6607C21.4652 32.544 21.4285 31.4452 21.5424 30.3338C21.6473 29.3101 21.8654 28.3217 22.0915 27.3199L22.8727 23.6371L23.2687 21.0658C23.283 20.9551 23.3136 20.8479 23.3259 20.7371L23.3717 20.016C23.3842 19.8923 23.4417 19.7817 23.4494 19.6589C23.4869 19.0616 23.4559 18.4448 23.4559 17.8458L23.4566 14.2771C23.4571 13.4111 24.4252 13.3949 24.5279 13.974C24.5617 14.1642 24.5354 14.4077 24.5355 14.6033L24.5342 16.096L24.5345 19.4269C24.5353 19.8482 24.5963 20.2456 24.6577 20.6605L25.2248 24.1489L25.5485 25.641C25.7022 26.3155 25.8164 26.9978 25.9898 27.6683L26.1729 28.5448C26.5106 30.3682 26.5558 31.5302 26.5488 33.379L26.5385 35.661C26.5337 35.814 26.4966 35.9642 26.4881 36.1175L26.4596 37.658C26.4542 37.8578 26.4211 38.055 26.4175 38.2555L26.3955 43.8253L31.5059 43.8461L31.5072 35.94C31.4994 35.6708 31.4526 35.4001 31.4344 35.1307L31.3765 33.9974L30.7734 29.2503C30.6094 27.5343 30.7287 25.8256 30.9317 24.1189L31.6828 19.1777L32.2481 15.1292L32.4374 11.4902C32.4374 11.0918 32.4458 10.0736 32.3393 9.69966C30.0926 10.1483 28.0728 8.24241 27.6798 6.12924L27.6291 5.71594L20.9094 5.70769ZM29.8696 5.70769C29.5111 5.70863 29.1132 5.67596 28.7605 5.73254C28.87 7.10893 29.9089 8.25258 31.2358 8.59107C31.5217 8.66757 31.8617 8.64539 32.1436 8.56079L31.9709 7.52129C31.9368 7.34686 31.9687 7.17197 31.9757 6.99619L31.9879 6.18014C31.9894 6.03277 32.0048 5.86913 31.9855 5.72354L29.8696 5.70769ZM15.994 5.70769L16.025 7.51205C16.0174 7.80868 15.9362 8.23585 15.8429 8.51986C15.8829 8.57935 15.9675 8.6063 16.0377 8.6183L16.1403 8.63325C16.7279 8.71749 17.4291 8.42874 17.8888 8.07727L18.1824 7.8286C18.7606 7.23099 19.1677 6.58111 19.2284 5.72869C18.9018 5.69349 18.5646 5.70839 18.2362 5.70811L15.994 5.70769Z" fill="black"/>
</svg>
