<svg width="48" height="48" viewBox="0 0 48 48" fill="none" xmlns="http://www.w3.org/2000/svg">
<path d="M25.4042 15.6831L25.6149 10.979C25.6674 9.46148 25.6606 9.20053 23.8681 9.22115C23.2692 9.22804 22.6959 9.16462 22.3889 9.80981L22.3754 9.83896C22.2561 10.0894 22.3036 10.3511 22.3074 10.6196L22.324 11.6753L22.6908 17.6954L22.9376 20.883L23.1287 23.9722C23.1821 24.8393 23.1313 25.6681 22.9708 26.5197L22.7551 27.5744C22.5399 28.5273 22.2042 29.4583 21.941 30.3986L21.3241 33.0633C21.2042 33.5688 21.1303 34.0927 21.0474 34.6057L20.1705 39.9025L19.1307 46.6562C19.0836 47.036 19.0373 47.4405 18.5803 47.5371L18.5486 47.5432C18.304 47.5952 18.0746 47.5455 17.8294 47.5178L14.4401 47.1808C14.06 47.1372 13.5399 47.0547 13.5152 46.5649L13.5201 33.0845C13.5289 32.8522 13.5665 32.6209 13.5864 32.3891L13.8237 30.3016C14.0228 28.9617 14.3985 27.6436 14.7725 26.3447L15.3281 24.3693C15.5839 23.2684 15.5835 22.1 15.4701 20.9767L14.0058 12.5459L13.6299 10.0731C13.2558 7.33603 13.7121 4.53219 14.6023 1.93938L14.8535 1.25916C15.0188 0.804642 15.1433 0.586031 15.665 0.524024L31.9519 0.517753C32.1294 0.517949 32.3509 0.495084 32.5214 0.54501L32.6136 0.570956C32.9813 0.670931 33.1813 1.24547 33.2626 1.57049L33.7673 3.19457C33.8041 3.28806 33.8158 3.38549 33.8442 3.48065L34.1258 4.59393C34.2826 5.21301 34.3594 5.83387 34.418 6.46903L34.4838 7.03982C34.5024 7.31268 34.4934 7.59323 34.4937 7.86693L34.4863 8.87339C34.4248 10.2234 34.102 11.928 33.8456 13.2541L32.9088 18.2111C32.6892 19.332 32.5298 20.4984 32.4398 21.6371C32.264 23.8613 32.8967 25.3649 33.4691 27.4689L33.887 29.034C34.0947 29.9272 34.2403 30.8556 34.348 31.7661L34.4148 32.622C34.4363 32.8476 34.4817 33.0705 34.4884 33.2976L34.4931 46.5588C34.4718 47.1616 33.8816 47.1358 33.5039 47.1897L29.9774 47.5399C29.1564 47.6242 28.9925 47.5211 28.8681 46.669L26.6178 33.0002L25.3943 28.3714L24.9657 26.3233C24.7874 24.882 24.9222 23.4761 25.0118 22.0319L25.2638 17.9797C25.2734 17.8548 25.2997 17.7343 25.3075 17.6074L25.4042 15.6831ZM15.8917 1.62434C15.3762 2.97615 14.898 4.57852 14.7207 6.02362L14.6687 6.70284C14.5232 8.26429 14.6623 9.74976 14.9155 11.291L15.6377 15.3304C15.6547 15.4333 15.6571 15.5446 15.688 15.6436C18.2336 16.0642 19.6328 18.6662 20.168 20.9694L20.3173 21.5158C20.6297 22.9237 20.7149 24.4646 20.4726 25.893L20.1571 27.34C19.5079 29.9519 18.2062 32.3452 17.4447 34.9237C17.3244 35.3308 17.2073 35.7655 17.1577 36.1877L17.072 37.3502C17.0345 37.9096 16.9611 38.4692 16.954 39.0283L16.94 40.0857C16.929 40.2909 16.892 40.4947 16.8738 40.6994L16.6843 44.508L16.665 45.7487C16.6614 45.9412 16.6333 46.1358 16.6397 46.3276L18.0593 46.438L18.1931 45.5104L20.3147 32.4339L21.0229 29.6046C21.5607 27.7309 22.1273 25.9417 22.0046 23.965L21.7794 20.7366L21.4624 15.4968C21.4539 15.3578 21.4246 15.2222 21.4155 15.0845L21.1906 10.5689C21.1879 10.3048 21.1691 10.0325 21.2281 9.77362L21.2368 9.73307C21.4421 8.80204 22.2209 8.23134 23.1275 8.11889C23.2337 8.10571 23.3495 8.11345 23.4525 8.08617L23.4556 2.08908C23.4558 1.96503 23.4849 1.73626 23.4436 1.62448L15.8917 1.62434ZM24.5694 1.62337L24.5548 8.1112C25.3084 8.14584 25.7556 8.27339 26.2943 8.87128C26.9709 9.62245 26.7278 10.6388 26.6956 11.5549L26.5755 14.7232C26.5676 14.8708 26.5405 15.0159 26.5351 15.1642L26.4895 16.3377L26.1564 20.9989L26.031 23.8438C25.9281 25.326 25.9651 26.1833 26.3582 27.6614L27.1024 30.3151C27.1408 30.4911 27.2038 30.6666 27.2476 30.8418L28.174 35.215L29.9352 46.4077L31.4477 46.3042L31.2374 41.3864L30.9613 37.8517C30.8825 36.947 30.8225 36.0588 30.5887 35.1763C30.0856 33.2783 29.1008 31.5228 28.4617 29.6679C27.2559 26.1684 26.5799 20.2639 29.2541 17.2396C29.8937 16.5163 30.9714 15.6036 31.9945 15.5402L32.3028 15.5361L33.3558 9.20245C33.4319 8.81887 33.3952 8.35875 33.3958 7.9656C33.3984 6.29845 33.0793 4.71684 32.6038 3.12529C32.4542 2.62464 32.2536 2.13492 32.1203 1.6301L24.5694 1.62337ZM31.9898 16.6994C31.7936 16.7371 31.6012 16.8298 31.4237 16.9199C28.8826 18.2106 28.4028 21.4607 28.528 24.0514L28.6512 25.4383C28.69 25.7999 28.727 26.1652 28.7929 26.5233L29.0343 27.6487C29.0815 27.8569 29.1218 28.0863 29.1951 28.286L31.5143 34.3751C31.9166 35.5082 31.9539 36.6699 32.0713 37.8517L32.2565 40.1695C32.2686 40.3603 32.3079 40.549 32.3184 40.7409L32.3416 41.6616C32.3533 41.8623 32.4006 42.0574 32.4136 42.258L32.4403 43.1603C32.4645 43.553 32.507 43.9251 32.5134 44.3215L32.5305 45.3814C32.5321 45.6389 32.5224 45.8978 32.5622 46.1529L33.3968 46.1023L33.3874 33.2472C33.3782 33.0591 33.3388 32.8737 33.3203 32.6862L33.2641 31.979C33.1074 30.6752 32.8562 29.3478 32.5012 28.083L31.7799 25.5705C31.5108 24.5901 31.3309 23.8348 31.329 22.8261L31.3332 21.544C31.3562 20.4743 31.6497 18.9727 31.8368 17.9104L32.0007 17.0399C32.0193 16.9459 32.0762 16.7838 32.0486 16.6934L31.9898 16.6994ZM15.9429 16.7924C15.9953 17.2473 16.1048 17.7038 16.1778 18.1567C16.4385 19.7727 16.7392 21.4853 16.6355 23.1307C16.5466 24.5411 16.0441 25.8607 15.6679 27.2076L15.4373 28.1221C15.2351 28.8934 15.0339 29.6682 14.9094 30.4572L14.7182 32.0392C14.6766 32.4308 14.6456 32.9746 14.628 33.3775L14.6258 46.1167L15.4884 46.1715L15.5731 44.2851L15.7671 40.1034C15.779 39.7896 15.8305 39.4878 15.8409 39.1749L15.9411 37.5491C16.0914 35.2758 16.4865 33.9978 17.3224 31.8834L17.8937 30.5138C18.7893 28.2811 19.6367 25.8862 19.4949 23.4451C19.3742 21.3668 18.3949 18.383 16.6697 17.2055C16.4375 17.047 16.1858 16.9314 15.9429 16.7924Z" fill="black"/>
</svg>
