<svg width="48" height="48" viewBox="0 0 48 48" fill="none" xmlns="http://www.w3.org/2000/svg">
<path d="M24.4349 25.1428L23.9961 24.0634L21.265 30.6255C21.0524 31.1207 21.0256 30.9903 21.1345 31.5022C21.1958 31.7899 21.2253 32.0843 21.259 32.3758L21.3261 33.1993C21.3762 34.3562 21.2279 35.4941 21.1016 36.6409L20.2489 43.845C20.1097 45.0636 19.799 45.0398 18.8352 44.8673L14.9311 44.3257L11.8246 43.7785C10.9346 43.623 10.4954 43.6037 10.5995 42.504L11.5144 34.4766L11.935 29.6505L12.3119 26.4019C12.3914 25.7859 12.5203 25.1618 12.5618 24.5432L12.6878 21.0374C12.7043 20.789 12.7497 20.5421 12.7593 20.2933L12.7968 7.77474C12.7266 7.67649 12.669 7.65418 12.5832 7.58209C12.2102 7.26887 12.3006 6.71298 12.301 6.28595L12.321 5.24682C12.3787 3.76932 12.9519 3.96516 14.131 3.82458L22.5855 3.02637L26.0839 3.03236C26.2595 3.04021 26.4327 3.07029 26.6076 3.08395L30.5082 3.40004L34.6554 3.92584C35.0541 3.98399 35.4883 4.03211 35.6263 4.49549L35.6363 4.53521C35.6939 4.74531 35.6858 4.96932 35.6874 5.18617L35.691 6.08204C35.6922 6.74251 35.806 7.30177 35.2276 7.77062L35.2023 7.79082C35.1634 8.33893 35.1749 8.89117 35.1743 9.44035L35.1872 17.9319C35.1931 18.1297 35.2387 18.3172 35.2477 18.5123L35.2592 19.9853C35.267 20.1541 35.3001 20.3195 35.3079 20.4888L35.4216 24.0331C35.4243 24.5565 35.4705 24.9226 35.5508 25.4359L35.8571 27.6094C35.8859 27.91 35.8728 28.2144 35.9081 28.5154L36.5646 35.2618L37.3612 42.1485C37.4844 43.2852 37.6739 43.363 36.3869 43.8289C34.2206 44.6131 31.7797 44.9799 29.4818 44.9803C28.9626 44.9804 28.381 45.1301 28.0217 44.6639L27.9991 44.6339C27.7756 44.3406 27.7881 43.974 27.7395 43.6262L26.8909 36.5215C26.6914 34.8807 26.5102 33.198 26.8621 31.5616L26.9444 31.1785C26.9744 31.0192 26.937 30.9823 26.8769 30.8304L24.4349 25.1428ZM22.7286 4.48752L13.7601 5.31146L13.737 6.61004L25.375 6.60512L34.2646 6.61853L34.2537 5.30481C34.0339 5.26149 33.8112 5.24626 33.5891 5.21917L26.9533 4.57208C26.6799 4.55347 26.4079 4.50586 26.1341 4.49517L22.7286 4.48752ZM14.3351 8.04503L14.2566 8.06504C14.2266 8.25995 14.2413 8.47267 14.2409 8.67015L14.289 12.8943C15.0348 12.6052 15.6614 12.2724 16.2032 11.6499C16.7734 10.9849 17.1546 10.1823 17.3342 9.32368L17.5707 8.05299L14.3351 8.04503ZM19.0485 8.04831L18.8138 9.30474C18.3166 11.6841 17.0846 13.4851 14.7654 14.291C14.5948 14.3503 14.4179 14.3807 14.2476 14.4409C14.2202 14.8548 14.2361 15.2769 14.2362 15.692L14.2358 18.1303C14.2317 18.5278 14.1653 18.9159 14.1582 19.3102L14.1433 21.4636L13.9572 25.0444L13.5916 27.7454C13.5662 27.9977 13.532 28.2579 13.5199 28.5107L15.0704 28.7119C16.0499 28.8635 16.9963 29.097 17.9415 29.3935L18.984 29.7662C19.116 29.8177 19.7948 30.132 19.8805 30.1277L22.7902 23.1321C22.9692 22.6788 23.141 22.2019 23.3738 21.7728C23.7422 21.0938 24.4788 21.326 24.7153 21.9484L27.3995 28.4649C27.6094 29.0117 27.8682 29.6161 28.1753 30.1186L28.7111 29.9029C28.7703 29.88 28.8444 29.8337 28.9047 29.8212C30.1716 29.3245 31.5114 28.9147 32.8595 28.7132L34.4682 28.5087L34.2092 26.2786C34.1507 25.8554 34.0547 25.4212 34.0267 24.9961L34.0031 23.7531C33.9972 23.5191 33.9552 23.2905 33.948 23.0576L33.8503 19.1443C33.8322 18.8067 33.7682 18.4712 33.7572 18.1339L33.7495 14.4103C33.621 14.3212 33.4529 14.2898 33.3106 14.2163C30.9594 13.0001 29.8071 10.7569 29.3035 8.21396C29.2535 7.96117 29.1816 8.04653 28.9487 8.04629L28.2156 8.04601C28.0616 8.04615 27.9002 8.03485 27.748 8.06092C27.7088 8.55896 27.7311 9.07192 27.7308 9.57174L27.7306 12.2188C27.7307 13.8504 27.8008 15.0025 26.4461 16.1551C25.9037 16.6166 23.6582 17.6079 23.3189 16.5352L23.3099 16.5086C23.242 16.2969 23.2767 15.9885 23.2765 15.7657L23.2704 8.16582C23.2694 8.11923 23.2831 8.07671 23.2455 8.04723L19.0485 8.04831ZM24.8364 8.04554L24.7423 8.06565C24.6861 8.42476 24.709 15.3463 24.7421 15.4331L24.9472 15.3735C25.1954 15.309 25.4903 15.0756 25.6782 14.9036C26.282 14.2502 26.3233 13.5379 26.3249 12.6719L26.3251 9.1787C26.3245 8.80867 26.3414 8.42813 26.3165 8.05927L24.8364 8.04554ZM30.8927 8.04643L30.8087 8.05965C30.754 8.27396 30.9012 8.65754 30.9764 8.87781L31.1367 9.40309C31.5576 10.7281 32.4585 12.0907 33.6886 12.7618L33.7427 8.04934L30.8927 8.04643ZM13.3712 29.9602L13.0268 33.6796C14.6199 34.0412 16.158 34.0618 17.5703 33.1654L17.8806 32.9552C18.411 32.5457 18.8579 32.0303 19.1992 31.4538L17.7072 30.8441C16.9143 30.56 16.0635 30.3595 15.2343 30.2125L13.8271 30.0109C13.6756 29.9906 13.5213 29.9889 13.3712 29.9602ZM34.5771 29.9883C32.5839 30.0951 30.6758 30.6756 28.8389 31.4237C28.7951 31.6995 29.9418 32.8104 30.1646 32.9712C31.233 33.7504 32.701 34.0553 34.011 33.857L34.9671 33.6725L34.6363 30.0001C34.5902 29.9845 34.6103 29.9853 34.5771 29.9883ZM28.1463 33.0499C28.0004 33.7589 28.1164 34.4735 28.1869 35.1812L29.0954 42.9073C29.1207 43.0986 29.1054 43.309 29.1608 43.4934C29.8363 43.528 30.4688 43.5027 31.1363 43.4379L32.7189 43.2423C33.0503 43.1895 33.401 43.1544 33.724 43.0655L35.3146 42.6426L35.9742 42.4156L35.126 35.1369C34.6657 35.1886 34.2189 35.2966 33.7535 35.3318C31.4189 35.5079 29.68 34.7653 28.1463 33.0499ZM19.8515 33.0743C18.3731 34.8049 16.4423 35.5575 14.1481 35.3235L12.8954 35.1409L12.065 42.3227C12.1409 42.4181 12.7235 42.4788 12.8645 42.4989L18.8694 43.4173L19.8143 35.1446C19.875 34.5294 19.9826 33.7919 19.8701 33.1758L19.8515 33.0743Z" fill="black"/>
</svg>
