<svg width="48" height="48" viewBox="0 0 48 48" fill="none" xmlns="http://www.w3.org/2000/svg">
<path d="M14.7597 41.8506C14.2226 41.6869 12.6821 41.1302 12.4892 40.527C12.4514 40.4086 12.4633 40.2756 12.463 40.1525L12.4625 39.5429C12.4633 37.1695 12.7131 35.5674 13.7617 33.3324L13.9316 32.9835C14.0102 32.8267 13.9952 32.8583 13.9335 32.691L13.7827 32.2263C13.5697 31.6416 13.6847 29.9837 13.7742 29.2627C13.7984 29.0685 13.7913 28.871 13.8137 28.6763C14.078 26.3726 14.5528 24.8208 15.6568 22.8144C17.1976 20.0143 17.6104 19.5288 16.7325 16.527L15.4692 12.4338L14.6639 8.9093C13.378 9.294 12.2 9.43833 11.4943 10.8184C11.2072 11.3799 11.2213 11.9664 11.0946 12.5678L10.0454 17.197C9.97825 17.5201 9.934 17.8487 9.82726 18.1622C10.0963 18.3905 10.474 18.5489 10.7812 18.7245L13.4625 20.2008C13.8452 20.4069 14.295 20.5853 14.6484 20.8338C15.1558 21.1905 14.9867 21.9771 14.2183 22.1108C13.792 21.9724 13.3827 21.7108 12.988 21.4977L9.59186 19.6521C8.72495 19.1811 8.21026 19.1529 8.47318 18.052L9.83195 11.9438C9.87348 11.6625 9.88468 11.3847 9.94675 11.1053C10.3025 9.50414 11.6441 8.36405 13.1484 7.86558C13.7774 7.65712 14.4508 7.54617 15.0927 7.37578L18.6004 6.39366C19.2611 6.22809 19.6643 6.56297 19.6648 7.20398L19.665 7.8232C19.6646 8.96288 19.6685 9.92231 20.077 11.0215L20.1336 11.1794C20.1469 11.2241 20.1552 11.2583 20.1768 11.3003L20.2464 11.4607C20.7928 12.9483 22.3081 14.7492 24.0985 14.2344C26.1981 13.6307 27.0432 10.902 27.1598 8.95758C27.1888 8.47341 27.1702 7.96894 27.1645 7.48331C27.1577 6.8992 27.1241 6.44344 27.8328 6.31055L27.9199 6.31922C28.1839 6.35611 28.4582 6.45572 28.7186 6.519L33.0163 7.5368C34.5041 7.88363 35.7653 8.1547 36.7285 9.49753L36.7556 9.53559C37.0662 9.96656 37.3831 10.5679 37.4872 11.1006L38.7081 16.8988C38.7819 17.4196 39.2686 18.5873 39.0486 18.9771L39.0289 19.0091C38.9154 19.201 38.7786 19.2985 38.5771 19.3904L33.4101 21.9989C32.595 22.3715 31.9691 21.2613 32.7041 20.8239C32.9269 20.6914 33.1819 20.5867 33.4144 20.4695L36.9683 18.6657C37.1882 18.5521 37.4029 18.4179 37.6301 18.3204L36.3037 12.1521C35.7847 9.43252 34.6235 9.38817 32.197 8.772L32.1871 8.78972C32.1358 8.90039 32.1303 9.06741 32.1112 9.18722L31.5235 11.9134L30.2785 16.3591C30.1492 16.842 29.9566 17.3436 29.8904 17.8388C29.5089 20.6949 30.9583 21.5569 31.9802 23.7759L32.3558 24.5802C32.627 25.2711 32.9526 25.9894 33.0821 26.724C33.0873 26.7537 33.0917 26.7824 33.1015 26.811C33.3483 27.532 33.3885 28.7309 33.451 29.4922C33.4647 29.6593 33.5175 29.8192 33.534 29.9881C33.6012 30.6793 33.5678 31.6656 33.3943 32.3192L33.2703 32.7317C33.2059 32.9246 33.2321 32.9128 33.3203 33.101L34.0454 34.9221C34.4538 35.9363 34.7622 37.3703 34.7721 38.4499L34.7779 40.2501C34.7775 40.3767 34.7931 40.5284 34.7476 40.6472L34.7359 40.6755C34.346 41.6881 31.3175 42.2466 30.4101 42.3418C30.0716 42.3773 29.7171 42.3561 29.3762 42.3559C27.1921 42.355 25.396 41.7452 23.6889 40.3268C23.2292 40.72 22.779 41.1063 22.2392 41.3908C19.9397 42.603 17.2057 42.5925 14.7597 41.8506ZM28.5457 7.86731L28.5471 8.74191C28.4745 10.3135 28.0795 11.984 27.2472 13.3266C25.6344 15.9284 22.6999 16.5581 20.48 14.3323C19.4253 13.2749 18.8399 11.8854 18.5069 10.4497C18.4369 10.1481 18.417 9.83119 18.3444 9.53433C18.2216 9.03225 18.3061 8.45259 18.2634 7.93552L15.9989 8.54738C16.0166 8.67886 16.0318 8.80636 16.0705 8.93358L17.1123 13.1833L17.4885 14.3435C17.584 14.617 17.6574 14.9013 17.7571 15.171L18.4115 17.3923C18.8435 18.8574 18.4431 20.4832 17.7768 21.8159L17.0237 23.1955C16.2437 24.5657 15.6974 25.8117 15.3835 27.3555L15.1483 29.1135C15.1114 29.4437 15.0289 29.4031 15.2362 29.6789C15.977 30.6644 17.4182 30.9694 18.5859 31.117L22.2938 31.4059L24.6895 31.4153C25.037 31.4071 25.3814 31.3482 25.7301 31.3358L26.7597 31.3161C26.9233 31.3067 27.0815 31.2736 27.2441 31.2591L28.3271 31.1644C29.8202 31.0036 31.1919 30.849 32.0899 29.5303C31.9237 27.3876 31.4589 25.5739 30.3932 23.7125L29.4735 22.2304C28.1027 19.8341 28.2886 18.5543 28.9345 16.094L30.0232 12.2458L30.8757 8.44097L28.5457 7.86731ZM15.0321 31.344C15.0865 32.7733 16.2005 33.115 17.432 33.2836C18.2732 33.3988 19.12 33.4952 19.9689 33.5324L27.355 33.534L29.3607 33.4053C30.3264 33.3223 31.6104 33.2774 31.9937 32.1712C32.087 31.9268 32.135 31.6961 32.1407 31.4338C30.9669 32.2073 29.9242 32.397 28.5567 32.5385L25.8843 32.7075C25.5467 32.7189 25.2144 32.7807 24.8787 32.7909L21.3454 32.718C19.5655 32.6221 16.4817 32.5138 15.0321 31.344ZM15.0045 33.9255C14.85 34.1546 14.7702 34.4884 14.6721 34.7489C14.1007 36.2663 13.6076 38.215 13.8002 39.8543C13.8262 40.076 14.7815 40.3917 14.9719 40.4598C17.4767 41.356 20.7476 41.2847 22.7255 39.3081C23.2517 38.7823 23.6101 37.9801 24.3113 38.9668C24.9779 39.9049 26.829 40.6984 27.914 40.874C28.8108 41.0191 29.6878 41.0121 30.5915 40.9195C31.0812 40.8662 33.1633 40.3993 33.4697 40.0322C33.463 37.8999 33.1599 35.9996 32.1924 34.0583C31.3092 34.5985 30.5823 34.7055 29.5872 34.7877L27.6629 34.9165L21.1874 34.9253C20.7389 34.9253 20.2816 34.9448 19.8344 34.9186L18.3163 34.7857C17.1133 34.6721 16.0608 34.5515 15.0045 33.9255Z" fill="black"/>
</svg>
