<svg width="48" height="48" viewBox="0 0 48 48" fill="none" xmlns="http://www.w3.org/2000/svg">
<path d="M24.4308 19.3503L24.0319 16.7732C24.0044 16.5999 24.0238 16.4116 23.9787 16.2424C23.905 15.966 23.569 15.7684 23.3152 15.9573C23.1034 16.1149 23.1382 16.6748 23.0975 16.9223L21.797 26.0858C21.6798 26.7111 21.551 27.3609 21.3728 27.9725C21.0136 29.205 20.6693 29.96 20.693 31.2564C20.7037 31.8419 20.7268 32.4111 20.6252 32.9881L20.5057 33.6326C20.418 34.0489 20.2719 34.4542 20.157 34.8631L19.1635 38.1505C19.1154 38.3076 19.0494 38.4587 19.0146 38.6197L18.9955 38.7069C18.8383 39.2561 19.0649 40.9282 18.9183 41.1415L18.8892 41.1795C18.7843 41.3223 18.6358 41.4831 18.4463 41.4913L16.1748 41.4902C15.9017 41.4902 15.675 41.4377 15.5588 41.1491L15.5484 41.1219C15.4641 40.915 15.4949 40.6339 15.4944 40.4117L15.4932 39.3982C15.4926 38.736 15.3277 38.4289 15.2055 37.8262L15.0323 36.8669C14.6646 34.0825 15.6166 31.3693 16.3581 28.7292C16.89 26.8353 17.373 24.674 17.0852 22.7155L16.873 20.1532C16.8565 19.8302 16.7971 19.5265 16.7901 19.2011L16.7357 16.8969C16.7633 14.8217 17.155 11.4493 18.3479 9.75578L18.5736 9.44448C18.8774 9.06091 18.7713 9.21972 18.7708 8.68248L18.7687 7.40837C18.768 6.97534 18.7518 6.78545 19.1943 6.58816L27.7712 6.57812C27.8414 6.58047 27.9065 6.58398 27.9698 6.6182L28.0841 6.69208C28.3478 6.90709 28.2874 7.16191 28.2879 7.46627L28.2885 8.59113C28.2885 8.78031 28.2091 9.2253 28.3895 9.34534L28.4117 9.35861C28.9387 9.68467 29.5886 11.5294 29.7022 12.0909L30.008 13.3953C30.2042 14.0069 30.192 14.8602 30.3106 15.5064C30.4127 16.0627 30.3644 16.678 30.3653 17.244L30.2852 21.0902C30.2647 21.5297 30.2543 21.9637 30.2034 22.4012C30.1586 22.7859 30.0744 23.1467 30.0714 23.5368C30.0582 25.2503 30.4063 26.3941 30.7329 27.9831L30.8299 28.3523C30.8774 28.5962 30.9646 28.8813 31.0455 29.1154L31.4202 30.3298C31.5185 30.5903 31.6273 30.921 31.6758 31.1979L32.0718 32.9459C32.4679 34.236 32.4131 36.7978 32.0602 38.0623C31.845 38.8331 31.8286 38.721 31.8469 39.532L31.8537 40.5022C31.8533 41.1174 31.8264 41.486 31.0698 41.488L29.4565 41.4917C28.47 41.4946 28.4067 41.4101 28.4055 40.5036C28.4044 39.6958 28.4662 39.1396 28.2259 38.3613L27.2946 34.9932C27.0182 33.9468 26.688 32.8957 26.6736 31.8045C26.6557 30.4561 26.623 30.3824 26.2642 29.0867L25.4629 25.9471C25.3495 25.3754 25.2989 24.7893 25.2114 24.2134L24.4308 19.3503ZM19.9323 7.72089L19.8633 7.73247C19.8488 7.90262 19.8479 8.07475 19.8771 8.24322L27.1055 8.24622L27.2001 8.23867L27.2049 7.74991C26.8825 7.71114 26.553 7.72244 26.2285 7.72206L19.9323 7.72089ZM20.2151 9.3565C20.0727 9.36836 19.9189 9.36498 19.7789 9.3887C20.3546 9.89125 20.9601 9.90105 21.6808 9.89889L24.7499 9.89434C25.2313 9.89383 25.8583 9.9663 26.3231 9.81377L26.5722 9.7412C26.7722 9.66339 26.9643 9.58764 27.1266 9.44148C26.6109 9.29097 26.0009 9.35542 25.4666 9.35528L20.2151 9.3565ZM27.8218 10.4647L27.7952 10.4808C26.9739 10.9712 26.1732 11.0414 25.2376 11.0422L21.7829 11.0423C20.4887 11.0433 20.3141 10.9474 19.2023 10.4934C18.4401 11.8514 17.9896 14.2525 17.8959 15.7547C17.8515 16.4663 17.8703 17.1953 17.8811 17.9083L17.8884 18.9644C17.8979 19.2453 17.9384 19.5227 17.9601 19.8024L18.0656 21.0795C18.0847 21.2998 18.0803 21.5216 18.1043 21.7423L18.2353 22.5936C18.3223 23.1565 18.3197 23.6934 18.2861 24.2576L18.2287 25.142C17.8481 28.6973 16.1032 32.1236 16.103 35.5831C16.103 36.2681 16.1513 36.9996 16.328 37.6652C16.5066 38.3381 16.3905 38.4374 17.0025 38.4373L17.9235 38.436C17.9886 38.2647 18.0079 38.0835 18.0657 37.9096L18.8682 35.2733C19.1792 34.1855 19.5711 33.1247 19.5683 31.9778C19.5674 31.5602 19.5121 31.145 19.5297 30.7264C19.5637 29.9205 19.8741 29.1189 20.094 28.3522L20.5833 26.3799C20.8329 25.1797 20.9452 23.9668 21.1318 22.7576L21.8625 17.724L21.9993 16.6756C22.0929 16.0395 22.1528 15.439 22.6916 14.9881L22.8814 14.8588C23.6658 14.3783 24.6807 14.9297 24.964 15.7381L25.0667 16.0798C25.1096 16.2238 25.1085 16.3744 25.133 16.5206L26.544 25.5076L26.8781 26.9251C26.9566 27.2403 27.0256 27.5719 27.1278 27.88L27.7098 30.1539C27.8848 31.0188 27.7045 31.9306 27.8805 32.6381L28.416 34.8448C28.4254 34.8888 28.4397 34.9261 28.4541 34.9686L28.6329 35.6206C28.7118 35.8477 28.7405 36.0967 28.8199 36.3228L29.3727 38.4164C29.7993 38.4617 30.3022 38.4519 30.7332 38.4197C32.3209 34.2604 29.7539 30.1927 29.1808 26.1045L29.0858 25.4295C28.995 24.63 28.9233 23.8292 28.9835 23.0235L29.2527 19.6463L29.1859 15.574C29.0782 14.3138 28.8405 13.0487 28.439 11.848C28.359 11.6086 28.0219 10.5989 27.8529 10.4659L27.8218 10.4647ZM16.6005 39.54L16.5948 40.3314L17.82 40.3289L17.8283 39.547L16.6005 39.54ZM29.4877 39.5412C29.4846 39.7878 29.441 40.0868 29.4766 40.3311L30.7155 40.3289L30.7216 39.5424L29.4877 39.5412Z" fill="black"/>
</svg>
