<svg width="48" height="48" viewBox="0 0 48 48" fill="none" xmlns="http://www.w3.org/2000/svg">
<path d="M25.9429 43.4486L25.8914 43.4612C25.4308 43.5585 24.733 43.3725 24.347 43.1073C24.2297 43.0268 23.7326 43.2832 23.577 43.3291C21.8552 43.8363 21.3985 42.9352 19.9806 42.7531C19.7774 42.727 19.5662 42.7367 19.3615 42.7365L13.9424 42.7398C12.6713 42.7466 12.7898 42.4639 12.7898 41.4202L12.787 32.4571C12.6603 32.3302 12.2333 32.0778 12.0438 31.9372C10.179 30.5538 8.27781 28.3174 8.97119 25.8167C9.10155 25.3465 9.30667 24.9015 9.5073 24.4581L12.7766 17.5066C14.085 14.7044 14.4409 15.0936 17.2546 14.2416C17.551 14.1519 17.8734 14.0623 18.1431 13.9081C18.6975 13.5911 19.3889 12.8157 19.1722 12.1178L19.1619 12.0857C19.6532 10.7226 19.8915 9.48371 21.7157 9.38462C22.3322 9.34238 22.9713 9.3759 23.5899 9.37585L26.2832 9.38363C27.4362 9.42315 28.5108 10.4223 28.7222 11.5255C28.7682 11.7656 28.6481 12.184 28.8061 12.3778C28.9353 12.5363 29.0326 12.8113 29.1171 13.002L29.1351 13.0434C29.4823 13.8092 30.0768 14.057 30.7999 14.2644C33.2158 14.9577 34.1556 14.9282 35.1693 17.3608L39.0018 25.6521C39.1561 26.0278 39.2387 26.8243 39.132 27.2447L38.8488 28.4425C38.3586 29.8134 36.7437 31.6867 35.3878 32.321L35.3571 32.3352C35.2111 32.4034 35.2038 32.4635 35.2052 32.6102L35.2139 41.5074C35.2149 41.7344 35.2514 42.0351 35.1704 42.2484L35.1067 42.3982C34.9177 42.7396 34.6683 42.7408 34.3295 42.7381L28.8145 42.736C27.3391 42.7366 27.1381 43.1864 25.9429 43.4486ZM22.5865 10.6769C22.0842 10.6819 21.5584 10.6704 21.125 10.9744C21.4623 11.2972 21.4544 11.3583 21.9102 11.3588L25.5387 11.3581C27.1673 11.3545 27.4103 10.8453 26.2013 10.6901C25.8219 10.6415 25.3961 10.6779 25.0125 10.6775L22.5865 10.6769ZM20.5967 12.1748C20.2967 13.4348 20.2037 14.2571 18.9143 15.0457C18.1874 15.4903 17.3172 15.5796 16.5431 15.909C17.2878 17.0124 17.5611 17.4934 17.5382 18.9291C17.5151 20.3782 16.8829 21.6492 16.237 22.9209L15.4434 24.4499C14.9264 25.398 14.2703 26.492 14.2151 27.6042L14.2085 38.7721C14.2076 38.9078 14.1922 39.0459 14.2128 39.1804L14.296 39.1925L19.8871 39.1916C20.0621 39.1915 20.283 39.2126 20.4525 39.1764C21.2462 39.0068 21.2834 37.8537 21.2841 37.2466L21.2819 16.7208C21.2778 15.8708 20.7407 15.4177 20.7393 14.4633C20.7382 13.6679 20.7818 13.1649 21.2263 12.5082L21.2061 12.5011C21.0008 12.4274 20.7656 12.3121 20.5967 12.1748ZM27.4201 12.363L26.6958 12.7056L26.7097 37.1211C26.7105 37.8163 26.6296 38.7968 27.3913 39.1518C27.5591 39.23 27.8681 39.1908 28.0557 39.1912L33.7853 39.1934C33.8166 39.1373 33.8078 39.0659 33.8097 39.0024L33.7973 28.95C33.7957 27.1283 33.582 26.4875 32.7356 24.8038L32.1248 23.5657C31.4545 22.3038 30.6997 20.9934 30.5041 19.5564C30.2725 17.8551 30.6546 17.2658 31.4333 15.8577C30.6244 15.5673 29.7771 15.4687 29.0425 14.9802C28.2119 14.4279 27.7024 13.3486 27.4621 12.4009C27.4537 12.3676 27.4521 12.3757 27.4201 12.363ZM22.1193 12.7397C22.0871 13.1549 22.1082 13.5744 22.1006 13.9919C22.0859 14.804 22.0185 14.5141 22.3206 15.2949C22.5884 15.9868 22.581 16.2416 22.5768 16.9809L22.5693 38.3275C22.5631 38.4663 22.5175 38.5742 22.483 38.7057C22.1278 40.0639 21.256 40.521 19.9849 40.5209L14.5829 40.52C14.4534 40.5202 14.304 40.5058 14.1775 40.5304C14.1468 40.7684 14.1459 41.1409 14.1978 41.3767L15.5568 41.3941L18.465 41.3951C19.1266 41.3956 19.8354 41.3458 20.4862 41.4724C21.5113 41.6718 22.319 42.3932 23.3953 41.9377C23.4023 41.6971 23.3001 41.4151 23.2815 41.1686C23.2388 40.6055 23.2735 40.0137 23.2734 39.4471L23.2762 13.2823C23.2784 13.1117 23.2958 12.9391 23.289 12.7689C22.9069 12.7225 22.5044 12.737 22.1193 12.7397ZM24.6792 12.7488C24.642 13.1021 24.6541 13.4651 24.6535 13.8213L24.6556 40.1548C24.6556 40.5714 24.5341 41.3148 24.7276 41.6833L24.74 41.708C24.8858 41.9851 25.3837 42.1467 25.6877 42.1005L25.7148 42.0971C26.2761 42.0174 26.8718 41.5684 27.5262 41.4646C28.33 41.337 29.2062 41.3941 30.0169 41.3936L33.0998 41.3941L33.8186 41.3923L33.7968 40.5391C33.2358 40.4832 32.6434 40.5204 32.078 40.5201L27.9107 40.5162C27.4015 40.5143 26.9793 40.4867 26.5305 40.2068L26.4937 40.1843C25.6973 39.6808 25.3964 38.6883 25.3907 37.7958L25.3924 12.7558L24.6792 12.7488ZM15.177 16.3319C14.939 16.496 14.6331 16.7275 14.5048 16.9919L11.457 23.4573C10.8581 24.7365 9.81044 26.3447 10.3434 27.7985C10.718 28.8206 11.2241 29.3861 11.9852 30.1377L12.5313 30.6027C12.621 30.6837 12.7341 30.7036 12.7929 30.8161L12.7912 29.0632C12.7903 26.9011 13.0859 26.0378 14.0721 24.1583C15.2193 21.9718 17.4766 18.6308 15.275 16.4152L15.177 16.3319ZM32.8044 16.327C31.6955 17.5465 31.5101 19.16 32.185 20.6272L34.8008 26.1544C34.8526 26.2815 34.8699 26.4218 34.9126 26.552L35.0988 27.3627C35.2078 27.7449 35.1685 28.1878 35.1683 28.5834L35.1655 30.0954C35.1648 30.3379 35.14 30.5964 35.1871 30.8349C35.4951 30.6314 35.7845 30.3824 36.0494 30.1255C37.1144 29.0803 38.2355 27.5104 37.6544 25.9512C37.4003 25.2695 37.0701 24.6192 36.7659 23.9591L33.9904 18.0413C33.6957 17.3971 33.483 16.6678 32.8044 16.327Z" fill="black"/>
</svg>
