<svg width="48" height="48" viewBox="0 0 48 48" fill="none" xmlns="http://www.w3.org/2000/svg">
<path d="M28.9275 44.9818C27.9268 44.9663 25.8423 44.5724 25.343 43.6069L25.324 43.5683C25.1382 43.2013 25.1079 42.7322 25.0225 42.3314L24.1727 39.4863C24.1238 39.355 24.056 39.2309 24.0114 39.098L22.7416 43.3126C22.1809 44.9591 18.7677 45.0608 17.3478 44.9758L16.8162 44.9174C15.7228 44.8149 14.6109 44.6015 13.5728 44.2357L12.4174 43.7814C11.8119 43.5265 11.4807 43.4212 11.5262 42.7167C11.5582 42.2224 11.6531 41.7403 11.709 41.2503L12.0292 38.1898C12.2821 36.5395 13.0329 35.3001 13.3652 33.7913C13.7385 32.0964 13.577 30.3506 14.4469 28.7805L11.9348 28.7731C11.6075 28.7726 11.0506 28.8746 10.7605 28.7051L10.7341 28.6893C10.2046 28.3798 10.2567 27.5532 10.3633 27.0134C10.4334 26.6581 10.4154 26.2691 10.4418 25.9071L10.8234 19.9574L11.0981 16.0658C11.1049 15.9676 11.1287 15.8753 11.1358 15.7776L11.6427 8.95669C11.7764 7.30191 12.6638 5.7181 14.1076 4.86361C14.6519 4.54149 15.2824 4.3911 15.8822 4.20911L18.4619 3.33061C18.7991 3.20655 19.1588 3.04166 19.5122 2.98271C20.3238 2.92676 20.2215 3.93096 20.2215 4.44599C20.2215 4.98802 20.1727 5.88352 20.3578 6.39896L20.5275 6.9144C21.0078 8.31371 22.4348 9.28674 23.9001 9.29996C25.9688 9.31862 27.6856 7.70424 27.7699 5.65407L27.7742 4.22847C27.7761 3.17981 27.9139 2.84401 28.9663 3.08236C29.7676 3.26382 30.5721 3.50202 31.338 3.80147L32.5793 4.35563C34.0897 5.08318 35.4982 6.28988 36.093 7.89877L36.2705 8.53365C36.2963 8.69794 36.3471 8.86093 36.3651 9.02672L36.9039 15.3239L37.2197 20.6355C37.2348 20.907 37.288 21.171 37.2962 21.4456L37.311 22.3187C37.3231 22.9693 37.3833 23.6691 37.417 24.3285L37.6042 27.5136C37.6422 28.2975 37.7005 28.7613 36.802 28.7715L33.6217 28.8961C33.7033 29.0208 33.7133 29.1422 33.7736 29.2721C34.575 30.9983 34.1963 33.0576 34.9854 34.9396L35.6257 36.68C35.7571 37.0502 35.8501 37.4426 35.9015 37.8326L36.2516 40.8167C36.2994 41.2849 36.3368 41.7563 36.4195 42.2204C36.4534 42.4106 36.5131 42.6316 36.5195 42.8231L36.5224 42.909C36.533 43.3222 36.159 43.4983 35.8399 43.6388L35.2846 43.89C33.7328 44.5684 32.0948 44.9807 30.3996 44.984L28.9275 44.9818ZM29.0491 4.45064L29.0355 5.40779C29.0333 7.9389 27.2126 10.2629 24.6351 10.5758L24.6237 15.5495C24.6237 15.7007 24.6397 15.8711 24.6155 16.0199C24.5415 16.4733 23.8429 16.6934 23.5103 16.2612L23.4661 16.2039C23.3041 15.9959 23.3642 15.697 23.364 15.4503L23.3637 10.6909C23.3638 10.4531 22.6242 10.4504 22.2843 10.3235C20.151 9.52702 18.99 7.52152 18.9607 5.32472C18.9573 5.07338 18.9855 4.79105 18.9441 4.54471L18.9057 4.56067C18.7021 4.64306 18.4737 4.69547 18.2649 4.77146L16.4677 5.40113C16.0212 5.53979 15.5485 5.62918 15.1144 5.80229C13.8141 6.32086 13.1004 7.62526 12.9388 8.95346L12.4599 14.6078L12.0938 20.0136L11.8752 23.8314C11.8635 24.003 11.826 24.1684 11.8129 24.3402L11.6189 27.2645C11.6168 27.3275 11.6014 27.4156 11.6223 27.4747L15.2279 27.4179L15.4036 25.6878L16.0572 20.0604C16.1901 18.4944 16.0065 18.1551 15.5644 16.6307L15.1168 14.7425C14.955 13.8929 14.987 13.0529 14.9874 12.1926L14.9909 9.55552C14.9939 8.70352 15.9155 8.3543 16.2306 9.20504C16.3181 9.44143 16.2422 9.83049 16.2419 10.0888L16.2427 12.1718C16.2395 13.6512 16.2832 14.57 16.7223 16.0095L17.2845 17.948C17.4782 18.5925 17.3798 19.9864 17.2918 20.6321C17.2784 20.7303 17.2007 21.1411 17.2566 21.2108L30.5378 21.2116C30.6066 21.2122 30.6863 21.224 30.7508 21.2008C30.6707 20.2139 30.5336 19.1755 30.6744 18.1884C30.7623 17.5723 31.001 16.9885 31.1748 16.3938C31.6295 14.8383 31.7569 14.0252 31.7574 12.4585L31.7585 10.3734C31.7589 10.0147 31.6531 9.4508 31.8414 9.13121L31.8587 9.10051C32.1314 8.62932 32.7087 8.75954 32.952 9.1644L32.9675 9.18877C33.1132 9.43173 33.015 11.0202 33.0153 11.3922C33.0164 12.5536 33.1549 13.8659 32.8324 14.9984L32.1169 17.6515C31.8411 18.498 31.8296 18.9803 31.9141 19.8663L32.6233 26.3675C32.6687 26.7762 32.6858 27.2141 32.7938 27.611L36.3248 27.536L36.2982 26.3525L36.085 22.738C36.0766 22.5813 36.0434 22.4283 36.0327 22.2721L35.9084 19.3472L35.5308 13.9366L35.1774 10.1339C35.1424 9.70604 35.1313 9.24915 35.0251 8.83205C34.4676 6.64332 32.2255 5.42302 30.2107 4.78238C29.8285 4.66086 29.4267 4.57969 29.0491 4.45064ZM17.095 22.5045C17.0001 22.945 16.9752 23.3984 16.926 23.8386L16.6413 26.2017C16.6087 26.4299 16.5466 26.6854 16.5601 26.9161C17.5277 27.4184 18.7778 27.2866 19.8316 27.2878L29.3525 27.2923C29.8538 27.2923 30.3424 27.3251 30.8311 27.1933C31.0141 27.1609 31.2639 27.0995 31.4303 27.0179L30.9332 22.518L17.095 22.5045ZM16.237 28.2127C15.5946 29.2189 14.9857 30.3194 14.9027 31.5365C14.8789 31.8856 14.8946 32.2378 14.8579 32.5862C14.7105 33.9838 14.2009 35.2501 13.7288 36.5602L13.4311 37.5276C13.2607 38.1324 13.2353 38.8152 13.1763 39.4386L12.8831 42.0802C12.8637 42.2128 12.81 42.3935 12.8216 42.5259C13.6039 42.9395 14.9956 43.3951 15.8368 43.4993C17.0964 43.6552 21.262 43.9256 21.5451 42.8009L21.9021 41.2671C22.172 40.3103 22.5109 39.3808 22.8629 38.4522C23.0428 37.9778 23.3643 36.6471 24.0967 36.8148L24.2043 36.8439C24.5988 36.9583 25.4322 39.0451 25.5953 39.6719L25.9989 40.9636C26.1328 41.3746 26.3061 42.0548 26.3505 42.4749C26.4203 42.7155 26.3469 42.9662 26.5965 43.1034C28.3127 44.0472 31.532 43.7821 33.357 43.2301L35.1663 42.5238C35.0735 42.0027 35.0336 41.4716 34.9756 40.9456L34.8046 39.5746C34.7447 38.993 34.7073 38.41 34.5994 37.8341C34.3074 36.276 33.4765 34.8647 33.2162 33.1878L32.9949 31.3011C32.8467 30.3145 32.4721 29.077 31.7737 28.3246C31.1268 28.4887 30.64 28.5926 29.9732 28.5934L19.0487 28.5902C18.1249 28.5892 17.0892 28.6016 16.237 28.2127Z" fill="black"/>
</svg>
