<svg width="48" height="48" viewBox="0 0 48 48" fill="none" xmlns="http://www.w3.org/2000/svg">
<path d="M35.1148 45.8761C34.0359 46.1129 32.4196 46.3124 31.3247 46.3839L29.6249 46.4701L18.6089 46.4699C18.4191 46.464 18.2347 46.4295 18.0462 46.4222L16.7077 46.3825C15.7641 46.318 14.8133 46.1655 13.8766 46.035L12.9313 45.8869C11.955 45.7039 11.9996 45.3311 11.9027 44.5021L11.6572 42.4801C11.6106 42.0153 11.5541 41.5418 11.539 41.0755L11.5279 40.0595C11.5261 38.8467 11.5542 37.7156 11.7837 36.5188L12.4525 33.5328C12.5623 32.8959 12.5642 32.2777 12.5946 31.6357L12.6726 30.3845L12.7397 25C12.7345 24.7455 12.6908 24.4976 12.685 24.2435L12.6618 22.1798L12.2035 16.0674L12.1931 13.326C12.2133 12.903 12.2474 12.4484 12.3132 12.0306L12.5428 10.6255C12.6765 9.61499 12.7263 8.65293 12.6785 7.62857C12.6497 7.01061 12.501 6.39566 12.4073 5.78558L12.257 4.38247C12.1279 3.29825 12.1019 2.95072 13.3124 2.71874L18.4849 1.69258C19.6876 1.52741 19.1979 3.1225 19.3375 3.79551C19.4541 4.35776 19.507 4.78101 19.6664 5.37857L19.6887 5.4606C20.3473 7.41655 21.8321 7.84771 23.727 7.85052C25.1556 7.85263 26.7779 7.83116 27.7525 6.60126C28.3904 5.79613 28.659 4.49223 28.6753 3.48013L28.6801 2.66006C28.6826 1.81155 28.8795 1.59182 29.7741 1.78709L34.6545 2.71502C35.5707 2.85516 35.8058 3.0236 35.7986 4.0204C35.7834 6.11455 35.0505 8.03099 35.3846 10.1681L35.7681 13.0309C35.8255 13.6766 35.8113 14.3286 35.8085 14.9762L35.7848 15.9918L35.498 19.56L35.3072 23.5846L35.3013 26.9058C35.3004 28.7361 35.372 30.5574 35.4163 32.3847C35.43 32.9507 35.5139 33.5633 35.6517 34.1129L36.1013 35.9762C36.4266 36.9763 36.4999 38.8391 36.4986 39.8892C36.497 41.1888 36.3418 42.4815 36.1893 43.7692L36.0959 44.5108C36.0756 44.7051 36.0818 44.9252 36.0325 45.1139L36.0253 45.1403C35.9012 45.6132 35.5798 45.787 35.1148 45.8761ZM17.9755 3.26919L15.2182 3.76491C15.2738 4.13722 15.3774 4.58307 15.5076 4.94076L16.0806 7.32388C16.3066 8.48708 16.2452 9.52415 16.2426 10.6945C16.2415 11.2022 16.2849 12.0191 16.4452 12.4789L16.8214 13.57C17.4271 14.9325 18.5315 16.1144 19.8984 16.7342C21.0657 17.2634 23.0481 17.4958 24.3706 17.3809C25.1477 17.3133 27.2491 16.9837 27.9284 16.7232C30.2208 15.8436 31.5785 13.577 31.7238 11.1982C31.7769 10.3286 31.6228 9.22072 31.7763 8.40051C31.8283 7.71763 31.9919 7.06297 32.1573 6.40082L32.8287 3.81522C32.136 3.61094 31.3933 3.51928 30.6844 3.38371L30.2207 3.29279C30.1605 3.2808 30.0642 3.24899 30.0059 3.26058C29.9579 3.829 29.9737 4.40398 29.9733 4.97394L29.9686 8.00357C29.9574 8.38438 29.9359 9.12262 29.8741 9.43996C29.4081 11.8306 28.0079 13.3369 25.6577 13.8263C22.5067 14.4824 19.0388 13.3837 18.233 10.0133L18.0719 9.20844C17.9634 8.75062 18.0204 8.20321 18.0203 7.73652L18.0198 4.75752C18.0196 4.27371 18.0581 3.75355 18.0083 3.27359L17.9755 3.26919ZM13.7762 4.01919C13.5199 4.13848 13.6393 4.31877 13.6565 4.56505C13.6906 5.05719 13.7182 5.57108 13.8234 6.05483L13.9942 7.1691C14.0541 7.43174 14.0435 7.72143 14.0602 7.9904C14.1883 10.0508 13.5461 11.8609 13.5211 13.7972L13.6008 16.6501C13.609 16.7619 13.6387 16.8673 13.6494 16.9779L14.0344 22.999L14.0341 29.6404C14.0276 29.8256 13.985 30.0059 13.979 30.1915L13.9393 31.9896C13.8973 34.2446 13.0937 36.1107 12.932 38.263C12.911 38.5426 12.8444 39.1105 12.8564 39.3606C13.2014 39.4716 13.5517 39.5276 13.9055 39.5993L17.0912 40.1157L17.6872 40.1549C18.9396 40.2708 20.1752 40.3145 21.4335 40.3124L23.2739 40.3114L23.2735 18.7348L22.2131 18.6573C21.8056 18.6208 21.408 18.5921 21.0045 18.5152C17.4805 17.844 14.9771 14.6878 14.9032 11.1265L14.9048 9.45421C14.9133 7.97507 14.6179 6.97907 14.2354 5.54793L13.9414 4.3356C13.911 4.21967 13.9144 4.03072 13.7762 4.01919ZM34.1478 4.04263L33.5339 6.50357C33.2264 7.68257 33.0727 8.3609 33.0819 9.56226C33.087 10.2365 33.1093 10.9167 33.0642 11.5895C32.873 14.4379 30.8048 17.3098 28.0546 18.1434C27.4057 18.3401 24.9288 18.6041 24.6756 18.7417L24.6823 40.3157L26.6132 40.3124L27.7382 40.299C28.3839 40.2687 29.0415 40.2722 29.6835 40.2188C31.5183 40.0662 33.3238 39.7731 35.1224 39.382L35.0746 38.2912C34.9925 36.8468 34.5439 35.4469 34.2533 34.0378C34.001 32.8144 34.1075 31.6601 34.023 30.438L33.9619 23.3302C33.9697 23.0149 34.0226 22.7061 34.0351 22.3925L34.1498 19.3289C34.1584 19.1702 34.1878 19.0165 34.1999 18.8591L34.3552 16.8939C34.3638 16.7902 34.3927 16.6939 34.3993 16.5909L34.4714 14.7412C34.4848 14.1492 34.4541 13.5292 34.3986 12.9397L34.0547 10.4997C33.9483 9.61255 33.8919 8.67712 33.9695 7.78499C34.0767 6.55232 34.3757 5.33741 34.4578 4.09996C34.3535 4.0737 34.2558 4.04969 34.1478 4.04263ZM19.4434 7.73488C19.2932 8.93577 19.5469 10.2452 20.3042 11.2065C21.6416 12.9043 24.2281 12.8181 26.1021 12.2687C26.9046 12.0334 27.6338 11.3769 28.0322 10.6536C28.4191 9.93023 28.6969 8.66174 28.5523 7.82005C27.2073 8.92865 25.843 9.25808 24.1601 9.25672C22.6796 9.25551 20.4813 9.01851 19.4681 7.76666L19.4434 7.73488ZM12.892 40.8129L13.2516 44.542L16.6287 44.9391C17.7557 45.0325 18.6954 45.0157 19.8265 45.016L30.621 45.0079C30.8195 44.9987 31.0133 44.9586 31.211 44.9439L34.7519 44.5386L34.8132 43.8866L35.1066 40.825C33.5186 41.122 31.9167 41.4406 30.306 41.581L28.6422 41.6858L18.6029 41.6302C18.3059 41.6131 18.0054 41.6187 17.7096 41.5889L12.892 40.8129Z" fill="black"/>
</svg>
