<svg width="48" height="48" viewBox="0 0 48 48" fill="none" xmlns="http://www.w3.org/2000/svg">
<path d="M26.4853 32.6837L25.0518 27.0005C24.9842 27.4057 24.8681 27.8063 24.7781 28.2071L23.7651 32.6843L22.6811 37.0076C22.5981 37.3262 22.5168 37.2501 22.4264 37.4415C22.3542 37.5944 22.327 37.8375 22.2861 38.004L22.0348 38.9884C21.6797 40.6028 21.4131 40.2657 19.9998 40.1301L16.0697 39.7464C14.9086 39.6561 14.5517 39.7417 14.5483 38.3429L14.5536 35.5701L14.6492 33.3908C14.6576 33.2273 14.6919 33.0689 14.7012 32.9061L15.3334 26.0578L16.0134 22.0339C16.0466 21.8209 16.0449 21.5979 16.0656 21.3829L16.1969 20.0929C16.2454 19.3997 16.2145 18.6852 16.2147 17.9892C16.2151 17.2324 16.2445 16.4602 16.1982 15.7055L16.1091 14.6415C16.0645 14.2193 15.9696 13.7446 16.0512 13.3212C16.1074 13.0296 16.173 12.792 16.1883 12.4885L16.2087 10.673C16.2058 9.84464 16.1764 8.96719 17.2775 8.74739C17.5535 8.69231 17.9196 8.73366 18.2055 8.73347L31.7891 8.73239C33.1277 8.73295 33.3078 9.44967 33.312 10.5956L33.3171 12.2067C33.3184 12.4805 33.2698 12.8747 33.3954 13.1202L33.5314 13.43C33.6739 13.7743 33.422 15.0326 33.4197 15.4894L33.4436 17.2157L33.7575 20.8827C33.8078 21.4701 33.8869 22.1025 34.0316 22.6759L34.2717 23.664L35.1032 29.0752L35.6305 35.3907C35.6423 35.5554 35.6717 35.7172 35.68 35.8829L35.6878 38.615C35.685 38.7992 35.6927 38.9887 35.6194 39.1614L35.5317 39.3634C35.3643 39.7047 35.098 39.7249 34.7704 39.7628L30.7221 40.1362C29.4629 40.2807 29.2257 40.6132 28.662 39.276C28.403 38.6616 28.1607 37.975 27.7954 37.4173C27.4281 36.8565 27.3795 36.2129 27.2193 35.5711L26.4853 32.6837ZM17.5435 10.1913L17.5341 12.963C17.9 13.0651 18.2767 13.0978 18.6502 13.1583C19.251 13.2558 19.8459 13.4156 20.4492 13.4978L21.961 13.6893C22.7029 13.7629 23.3307 13.7972 24.0824 13.7986L26.086 13.7837C26.2267 13.7759 26.3607 13.7425 26.4981 13.7321L28.0899 13.5904L30.8438 13.1493C30.9891 13.127 31.1338 13.1195 31.2774 13.085L31.96 12.9941C31.9797 12.8997 31.9685 12.7875 31.9685 12.6906L31.9553 10.1781L18.0235 10.1902C17.933 10.1896 17.6088 10.151 17.5435 10.1913ZM17.4829 14.3525L17.5507 15.6497C17.5607 15.8015 17.5858 15.9471 17.5894 16.1014L17.5098 20.9767C17.4867 21.3378 17.4433 21.6942 17.4073 22.0543L16.9767 24.4086L16.4047 28.5775L16.0782 32.6652C16.002 33.6475 16.0609 34.6435 15.9641 35.5734L16.9417 35.5535L16.9877 35.0944L18.4255 24.6681L18.7149 23.2448C18.975 22.1745 19.0484 21.8042 19.0856 20.7306L19.0859 18.3107C19.0587 17.3378 18.8425 15.2993 18.324 14.5334L17.4829 14.3525ZM32.0089 14.4238L31.0856 14.5456C30.2812 16.122 30.6462 17.9759 30.8064 19.6273L30.9126 20.8893C30.9277 21.0862 30.9219 21.2841 30.9462 21.4806L31.1342 22.6055L33.3817 35.2086L33.429 35.592L34.2648 35.552C34.2234 35.2242 34.2454 34.8841 34.2302 34.5537L33.6511 28.4321L33.0185 24.3399C32.8489 23.4637 32.5981 22.6121 32.4655 21.7267C32.3902 21.2242 32.3865 20.7057 32.3349 20.2005C32.1395 18.2878 31.9246 16.3485 32.1079 14.4259C32.0548 14.4098 32.0582 14.4131 32.0089 14.4238ZM19.8886 14.8243L20.2792 16.367C20.4246 16.886 20.4305 17.576 20.4407 18.1087L20.4513 20.1078C20.4506 20.6204 20.4859 21.1678 20.4282 21.6767C20.3066 22.7475 19.9648 23.7825 19.7898 24.8463L18.3288 35.6488L21.4888 36.1427C21.5493 35.853 21.6414 35.5695 21.7156 35.283L22.1787 33.453L24.182 24.5578C24.2197 24.404 24.247 24.2385 24.2986 24.0892C24.5073 23.4861 25.3208 23.3729 25.6432 23.9298L25.7149 24.0931C25.7527 24.1748 25.771 24.2549 25.7965 24.3399L26.2866 26.1936C26.484 26.8816 26.6478 27.6509 26.8242 28.3505L27.2365 29.9884C27.3287 30.3565 27.3954 30.7362 27.5068 31.0994L27.7917 32.209L28.7778 36.1657C29.3055 36.0446 29.8378 35.9078 30.375 35.8364L31.3016 35.7298C31.5312 35.7098 31.823 35.7148 32.0405 35.6487C32.0328 35.0494 31.9076 34.433 31.8134 33.8411L30.2705 25.0879C30.0874 24.1013 29.7985 23.1285 29.6602 22.134L29.2753 18.4923C29.1575 17.5251 29.1116 16.5063 29.3127 15.5471C29.3637 15.3037 29.4724 15.0549 29.5029 14.8126L26.7685 15.1658C26.2864 15.2062 25.7933 15.1541 25.3143 15.2071L25.3086 20.0206C25.3088 20.3318 25.3667 20.5732 25.1196 20.8076C24.727 21.18 24.0577 20.9824 23.9482 20.4559C23.9175 20.3084 23.9311 20.136 23.931 19.9856L23.9333 15.2107C23.452 15.1979 22.9597 15.202 22.4809 15.1535L20.2149 14.8722C20.1128 14.8556 19.9904 14.8113 19.8886 14.8243ZM16.0076 36.9762L15.9178 37.8113C15.9181 37.985 15.9099 38.1622 15.9361 38.3342L20.1841 38.7554C20.5025 38.7965 20.652 38.939 20.7202 38.631L20.965 37.4423C19.8256 37.2516 18.6858 37.0557 17.5297 36.9914L16.0076 36.9762ZM33.414 36.9866L32.6457 37.0133C32.169 37.0508 29.5988 37.3205 29.4045 37.4958L29.9495 38.795C30.0497 38.7899 30.1573 38.7922 30.2554 38.7712L34.285 38.414L34.2891 36.9856L33.414 36.9866Z" fill="black"/>
<path d="M22.7912 19.7889C22.0867 19.7634 22.1129 19.1982 22.0177 18.6585L21.7853 17.2865C21.7063 16.6539 21.5744 15.8438 22.4063 15.7344L22.5939 15.7566C22.9922 15.8441 23.0808 16.2324 23.1001 16.5733L23.1532 17.2674C23.2068 17.7162 23.5508 19.017 23.4051 19.3666L23.3926 19.3942C23.2806 19.6564 23.0758 19.7703 22.7912 19.7889Z" fill="black"/>
<path d="M26.7282 19.7807C26.3783 19.7896 26.0607 19.6951 25.9235 19.3337L25.9008 19.2716C25.7594 18.8652 26.0003 18.2227 26.0554 17.8121L26.1501 16.9303C26.2003 16.3459 26.041 15.9682 26.7587 15.7515C27.2623 15.7374 27.5796 16.0326 27.5566 16.5661C27.5472 16.7851 27.283 19.2286 27.2009 19.4126L27.1624 19.4961C27.0707 19.6714 26.9042 19.7296 26.7282 19.7807Z" fill="black"/>
</svg>
