<svg width="48" height="48" viewBox="0 0 48 48" fill="none" xmlns="http://www.w3.org/2000/svg">
<path d="M32.7305 44.3964C32.5582 44.4284 32.3761 44.4252 32.2018 44.4463L30.9274 44.6269C29.3515 44.844 27.5492 45.2519 26.1094 44.3207C25.0651 43.6452 24.8989 42.6788 24.5654 41.5782L24.0719 40.1202C24.0588 40.0807 24.0517 40.0503 24.027 40.016C23.8827 40.3044 23.7874 40.6187 23.6838 40.9236L23.3367 41.9586C23.1623 42.5261 23.0231 43.0436 22.6875 43.5469L22.59 43.6864C21.146 45.5359 18.2007 44.7965 16.2307 44.5395L15.293 44.4167C14.1251 44.2715 13.1155 43.6868 12.9604 42.385L12.9566 42.3516C12.886 41.8005 12.9522 41.2219 13.0179 40.6739L13.8136 33.4312L13.9672 32.2735C14.1196 30.994 14.2906 29.7123 14.6006 28.4596C14.9183 27.1759 15.4125 25.9368 15.7923 24.6707C16.2882 23.0175 16.4892 21.832 15.6326 20.2032C15.4469 19.85 15.2262 19.5164 15.0773 19.1444C14.6648 18.1132 14.5466 16.625 15.0981 15.6446C15.2368 15.398 15.4298 15.1716 15.5873 14.9363C17.078 12.7087 17.5113 8.79158 16.9551 6.25555L16.6783 5.1613C16.4408 4.06281 17.2889 3.20741 18.3142 3.02958C18.991 3.01661 19.6173 3.4544 19.8602 4.08492L19.8753 4.12503C20.0585 4.57128 20.0109 5.16913 20.0168 5.64345L20.0447 7.04005C20.0453 7.28164 20.089 9.79644 20.1643 9.89319C20.2925 10.0578 20.5623 10.2415 20.7334 10.3672C22.921 11.976 25.4764 11.8527 27.6055 10.0933C27.6557 10.0518 27.7674 9.97541 27.7981 9.92314C27.8654 9.80877 27.9796 6.34892 27.9799 6.0163L27.9817 5.0525C27.9823 4.85942 27.9716 4.65848 27.9991 4.46722C28.1113 3.68522 28.9696 2.88433 29.7991 3.05926L29.9948 3.09912C30.4846 3.20758 31.0773 3.67986 31.2099 4.19173L31.2195 4.2305C31.3322 4.55234 31.3777 4.97563 31.2794 5.30431C30.6526 7.40098 30.6227 9.9815 31.2193 12.0703C31.4523 12.8862 31.6941 13.6388 32.0744 14.4042C32.4843 15.2292 33.0608 15.6175 33.2045 16.6104L33.2103 16.6525C33.3504 17.6199 33.1811 18.614 32.7414 19.4857C31.9995 20.9563 31.5481 21.7269 31.8756 23.543C31.9571 23.9947 32.1882 24.7451 32.3589 25.1732L33.1679 27.7032L33.5717 29.3827C33.6764 29.7158 33.6816 30.1022 33.7511 30.4453L34.1765 33.4087L35.0551 41.533C35.0688 41.8054 35.0921 42.1273 35.0533 42.3965C34.8767 43.6198 33.8707 44.2696 32.7305 44.3964ZM18.2891 4.34769C18.1376 4.40826 18.032 4.45975 17.9633 4.61684L17.9292 4.69925C17.8534 4.88281 18.1766 5.83377 18.2351 6.08206C18.9178 8.97913 18.2256 13.0046 16.7312 15.5374C16.5112 15.9104 16.1865 16.227 16.0772 16.6524L16.0651 16.6963C15.7514 17.8545 16.379 18.8955 16.8994 19.8677L17.083 20.3067C17.129 20.4106 17.1467 20.5225 17.1877 20.6277L17.3768 21.374C17.6832 22.4328 17.3838 23.8337 17.0711 24.8503L16.4242 26.8315C16.314 27.1483 16.2531 27.4877 16.1369 27.8007C17.0393 28.5593 18.3881 28.8257 19.5469 28.9011L26.8504 28.9214C28.4669 28.9208 30.6063 28.9753 31.8427 27.7701L31.0412 25.2396C30.4793 23.4461 30.1689 21.9462 30.983 20.0954C31.4908 18.9739 32.3479 17.8574 31.8786 16.5473C31.7644 16.2286 31.5205 15.9572 31.3373 15.6757C30.509 14.4036 30.0019 12.837 29.7533 11.3392L29.7011 10.9107C29.4523 9.30373 29.4413 7.57916 29.7685 5.98278C29.8411 5.62822 29.9799 5.27038 30.0185 4.91319C30.0881 4.26956 29.309 4.15033 29.2558 4.69925C29.2264 5.00277 29.2462 5.32522 29.2455 5.63094L29.2438 7.43572C29.2432 7.682 29.2116 7.91867 29.1979 8.16369L29.1335 9.59769C29.0921 10.3693 29.0646 11.1455 28.9313 11.9085C28.5036 14.356 26.9811 16.849 24.2908 17.0539C21.1618 17.2922 19.5363 14.3897 19.0168 11.7373C18.95 11.3967 18.8876 11.0344 18.8641 10.6875L18.8304 9.53605C18.8239 9.36781 18.7881 9.20281 18.7825 9.03397L18.7369 5.00394C18.7381 4.70713 18.7307 4.27854 18.2891 4.34769ZM27.6064 11.6836C26.8993 12.0747 26.2639 12.4325 25.4643 12.6228L24.5453 12.7936C24.1888 12.8702 23.5094 12.8487 23.1643 12.768L22.5094 12.6322C21.8706 12.471 21.2638 12.218 20.697 11.8838C20.6142 11.835 20.4545 11.7044 20.3671 11.6943C20.3926 12.1762 20.5425 12.7032 20.7359 13.1486L21.1262 13.9446C23.3598 17.4073 26.8886 15.5527 27.582 12.0817L27.6064 11.6836ZM32.241 29.0994C30.2205 30.3012 28.5348 30.2371 26.2281 30.2362L26.2481 30.2491C26.5049 30.4233 27.2985 31.849 27.3987 32.1563L27.5027 32.4965C27.6956 33.0183 27.6128 33.8254 26.8946 33.6844L26.8596 33.678C26.3578 33.579 26.2863 32.8631 26.13 32.4721C25.822 31.7019 25.0632 30.7699 24.3837 30.2532C24.0745 30.2393 23.4569 30.1207 23.3124 30.4074C23.2251 30.5807 23.0058 30.7394 22.8757 30.8885C22.3396 31.5025 21.9328 32.141 21.6915 32.9254C21.2827 34.2543 20.1983 33.7507 20.4333 32.6927C20.5561 32.1398 20.7956 31.5948 21.0967 31.1152L21.7035 30.2483L20.0419 30.2283C18.5717 30.185 17.0495 29.908 15.761 29.1681C15.6016 29.768 15.5162 30.3763 15.43 30.9898L14.8681 35.7928L14.3742 40.0665C14.6251 40.1261 14.877 40.1299 15.131 40.1637L22.2663 41.1262L23.0097 38.9812C23.222 38.4153 23.4246 37.4314 24.2579 37.7048C24.7074 37.8523 25.2015 39.432 25.3339 39.8789L25.3639 39.961C25.4883 40.2948 25.619 40.6535 25.6946 41.0012C25.746 41.2378 25.9145 41.1199 26.0977 41.0862L33.626 40.0967L32.241 29.0994ZM14.2269 41.4024C14.1765 41.7117 14.1682 42.1755 14.3091 42.4571L14.3226 42.4845C14.6177 43.0708 15.12 43.092 15.7028 43.1497L16.5217 43.2515C17.8351 43.4252 19.8236 43.9481 21.0681 43.2774L21.3539 43.0957C21.6075 42.8769 21.7534 42.6771 21.887 42.3689C21.1709 42.2219 20.4441 42.1539 19.7205 42.0586L14.7422 41.4349C14.602 41.4199 14.3606 41.3644 14.2269 41.4024ZM33.7069 41.4024C33.4109 41.4006 33.1045 41.4508 32.8126 41.4927L26.1507 42.3714C26.1854 42.6546 26.476 42.9638 26.6801 43.1435C27.5351 43.7068 28.7733 43.6764 29.7561 43.4746C30.5173 43.3183 31.3139 43.2468 32.0861 43.1567C33.1767 43.0294 33.7958 43.0244 33.7965 41.7257C33.7965 41.6336 33.8078 41.5153 33.7863 41.4274L33.7799 41.4075C33.7555 41.4051 33.7314 41.4018 33.7069 41.4024Z" fill="black"/>
</svg>
