<svg width="48" height="48" viewBox="0 0 48 48" fill="none" xmlns="http://www.w3.org/2000/svg">
<path d="M28.2257 25.3511L27.1191 20.8122C26.9048 20.0484 26.7726 19.2865 26.361 18.595C25.157 16.5722 22.5255 16.7082 21.4515 18.8318C21.0503 19.625 20.8786 20.543 20.6557 21.3983C20.1749 23.2421 19.7218 25.1071 19.4093 26.988L18.5699 33.2911L17.628 40.0892C17.4201 41.6753 17.4321 42.5626 15.4545 42.5645L12.5347 42.5646C12.2568 42.5643 11.8425 42.6147 11.5855 42.5248C10.5362 42.1579 10.4455 40.7272 10.4192 39.737L10.4224 35.3639L10.6774 31.7225L10.7043 30.4567C10.7137 30.2847 10.7492 30.118 10.7652 29.9471L10.8643 28.4865L10.9839 24.9895L11.2324 21.2445C11.2437 20.6882 11.2004 20.1494 11.1801 19.5962L11.1745 18.227C11.1747 17.8666 11.16 17.4981 11.1826 17.1387L11.3714 14.7764L11.7045 12.2224L12.3455 6.29769C12.3816 5.87661 12.4155 5.62334 12.853 5.44039C13.4127 5.42577 13.9782 5.54028 14.5317 5.61758L21.0743 6.51195C21.373 6.5532 21.6649 6.61845 21.9662 6.64611C22.2425 6.67147 23.8789 6.7528 24.0423 6.71624C24.5237 6.60842 25.1043 6.66416 25.5983 6.66425L28.5235 6.66111C29.7403 6.63866 31.3969 6.30449 32.5682 6.01339L33.7795 5.6833C34.1584 5.57984 34.8574 5.30581 35.2214 5.49645C35.6298 5.7103 35.5649 6.20881 35.6258 6.59736L36.204 11.2887L36.6618 16.3287C36.69 16.8434 36.7555 17.2733 36.7642 17.8179L36.7651 24.7652C36.7496 25.3881 36.7589 25.5357 36.8316 26.1442L36.9941 27.6275L37.5134 34.406C37.5266 34.6211 37.5667 34.8353 37.5736 35.0505L37.5851 39.6606C37.5688 40.2759 37.4784 41.5212 37.169 41.9745C36.7506 42.5877 36.1977 42.5638 35.548 42.5647L32.666 42.5652C30.4677 42.5643 30.626 41.5206 30.3655 39.8317L28.8665 28.9099L28.2257 25.3511ZM13.5091 6.69936L13.3684 8.30966L12.5596 14.9158L12.4223 16.7578C12.4142 16.8702 12.3804 16.9753 12.3738 17.0908L12.3668 19.7273C12.4097 20.6583 12.4652 21.2728 12.3847 22.2563L12.2332 24.5258C12.1905 25.2033 12.0954 25.0744 12.5472 25.6337L13.4791 26.837C14.4476 28.0229 15.8921 29.2773 17.4908 29.441L17.8724 29.4635C17.9244 28.6932 18.0469 27.9408 18.1775 27.1808L19.2083 22.2559L19.7947 19.9707C20.3238 18.1376 21.3217 16.2527 23.4413 15.9584C25.3418 15.6946 27.2067 16.9853 27.7696 18.8083L28.6978 22.1767C28.7055 22.2146 28.7162 22.2489 28.7278 22.2855L29.967 28.1951L30.0511 28.7519C30.073 28.9679 30.0623 29.243 30.1324 29.4425L30.1584 29.5379C32.1267 29.354 33.3786 28.03 34.6144 26.6486C34.7869 26.4558 35.458 25.7452 35.5469 25.573L35.5617 22.9333C35.5672 22.7346 35.6075 22.5359 35.613 22.3351L35.538 17.1808L35.1415 12.281L34.4718 6.7903C34.03 6.92089 33.5738 6.99636 33.1273 7.10834C31.9393 7.40619 30.6055 7.79928 29.3764 7.853L25.8836 7.85788C25.47 7.85811 25.0475 7.83992 24.6355 7.87058L24.6282 13.6052C24.6279 13.7789 24.6451 13.9852 24.6141 14.1554C24.5005 14.779 23.5699 14.7867 23.4641 14.1983C23.4395 14.0615 23.4544 13.8987 23.4544 13.7595L23.4541 8.43735C23.454 8.26494 23.4707 8.07092 23.4431 7.90133C22.8925 7.85759 22.337 7.88525 21.7883 7.83331L14.0146 6.76995C13.8478 6.74628 13.6727 6.73653 13.5091 6.69936ZM12.0811 27.0088L11.8848 31.0396C12.5875 32.6581 14.9318 36.0257 16.9567 36.0757L17.2968 34.0148C16.3193 33.9269 15.501 33.598 14.7726 32.9339C14.4721 32.65 13.661 31.9127 13.6588 31.5038C13.657 31.1723 13.9823 30.9633 14.2898 30.9793C14.9685 31.0148 15.4149 32.6136 17.442 32.8354L17.7245 30.6803C17.2211 30.5953 16.7165 30.5451 16.2289 30.3821C14.7374 29.8834 13.0241 28.3897 12.1154 27.0643L12.0811 27.0088ZM35.7816 27.1795L34.275 28.7751C33.3205 29.6984 32.116 30.4166 30.8076 30.6849C30.6317 30.7209 30.4279 30.736 30.2595 30.7944L30.5559 32.873C31.4651 32.8096 32.15 32.3504 32.7718 31.7142C32.9669 31.5145 33.1497 31.2763 33.3935 31.1348C33.9351 30.8204 34.7729 31.3955 33.9213 32.2733L33.2121 32.9605C32.6918 33.3939 32.1748 33.7343 31.5164 33.9249C30.8362 34.1218 30.7175 33.7869 30.7978 34.4294L30.9861 35.7067C31.0047 35.813 31.0012 35.9106 31.0431 36.0132C32.6709 36.3412 34.8997 33.2095 35.6617 32.0052C35.7867 31.8076 35.8697 31.5873 35.9914 31.3898C36.1301 31.1645 35.8711 28.5304 35.8365 28.113L35.7816 27.1795ZM11.7702 33.1919C11.6965 33.627 11.7042 34.0511 11.6786 34.4899L11.6012 37.8944C11.6012 38.4021 11.6175 40.9856 11.8492 41.3191L11.8712 41.3484C12.1078 41.381 12.3683 41.3614 12.6083 41.3617L15.3993 41.362C16.0155 41.3612 16.1433 41.5427 16.2853 40.9555L16.8133 37.2739C16.302 37.1936 15.8439 37.1279 15.3702 36.898C14.2275 36.3436 12.4013 34.397 11.7702 33.1919ZM36.239 33.2961C35.226 34.7681 33.5645 36.8527 31.7785 37.1865L31.1823 37.2529L31.7446 41.0198C31.7739 41.1486 31.8041 41.2233 31.8834 41.3308C32.0067 41.4036 35.7123 41.3638 36.1761 41.3614C36.4935 40.4547 36.4033 38.615 36.4028 37.6508L36.3159 34.565C36.2925 34.1371 36.2942 33.7235 36.239 33.2961Z" fill="black"/>
</svg>
