<svg width="48" height="48" viewBox="0 0 48 48" fill="none" xmlns="http://www.w3.org/2000/svg">
<path d="M29.5898 36.7316L18.6493 36.7319C17.1559 36.7324 16.2399 36.7616 15.1449 35.4374C14.357 34.4845 14.2953 33.1656 14.5063 31.9939C14.7533 30.6218 15.0783 29.9256 15.1309 28.4436L15.098 24.8672C15.085 24.5841 15.0312 24.3185 15.0261 24.0347L14.998 23.4946C14.8249 23.604 14.6889 23.7592 14.53 23.8869C13.4716 24.7372 11.9422 24.8823 10.8094 24.0755C10.4229 23.8002 10.1252 23.4452 9.78769 23.1187C8.99273 22.3497 8.09466 22.1355 7.39448 21.5353C6.13748 20.4578 6.19148 18.4279 7.35698 17.3077C7.6604 17.016 7.99856 16.7674 8.29837 16.4695C9.35372 15.4211 9.58805 14.664 11.0593 13.8703C11.6737 13.5389 12.3607 13.4632 13.0025 13.2107C15.1539 12.3641 17.1651 11.047 19.5131 10.8142C20.7718 10.7092 22.0652 10.9695 23.235 11.4195C23.8134 11.642 24.4636 11.9521 25.0864 12.0005C27.1263 12.1589 27.0058 11.2158 28.3703 10.9638C28.908 10.8645 29.4675 10.9608 30.0003 11.0508L31.7695 11.4237C34.7636 12.0923 36.378 12.5808 38.3286 15.1691C38.6823 15.6384 39.049 16.2688 39.5415 16.6015L40.3948 17.1352C41.7727 18.1244 42.0759 20.1652 40.734 21.3146C39.9108 22.0197 38.9271 22.2388 38.121 23.2284C37.8618 23.5467 37.6616 23.8819 37.3275 24.1356C36.0733 25.0879 34.2506 24.6285 33.1145 23.7112C33.0802 23.8869 33.0722 24.0585 33.0468 24.2344L32.9137 25.0492C32.6734 27.0867 32.649 28.9914 33.1396 30.9882C33.3526 31.8552 33.6638 32.8062 33.5486 33.6975L33.4651 34.1783C33.2131 35.5171 31.9433 36.6054 30.5876 36.722C30.261 36.7502 29.9182 36.7317 29.5898 36.7316ZM19.5772 12.1906C18.882 12.2835 18.2186 12.48 17.5398 12.6455L18.4321 13.7506C19.5115 15.206 20.1047 16.0979 21.8064 16.8779L22.1227 17.0032C22.5104 17.1404 22.9453 17.2871 23.355 17.3296L23.3539 12.9305C23.0034 12.7648 22.578 12.6104 22.2112 12.4938C21.4006 12.2361 20.4281 12.1232 19.5772 12.1906ZM28.7949 12.2868C28.3177 12.3801 28.0687 12.6069 27.6679 12.864C26.7782 13.4346 25.711 13.546 24.681 13.3639L24.6741 17.4919C25.0529 17.4645 25.3808 17.4111 25.747 17.3121C27.2572 16.691 29.4485 14.2889 30.0847 12.755L30.1952 12.4887C29.7157 12.388 29.2924 12.245 28.7949 12.2868ZM31.4539 12.8138C30.8124 14.7479 28.5811 17.4704 26.6784 18.4206C26.0389 18.74 25.4377 18.8758 24.7282 18.9158L24.7068 35.352C24.7055 35.3834 24.706 35.3732 24.7181 35.4085L29.6105 35.3941C30.4935 35.3942 31.145 35.4156 31.7035 34.6055C32.2144 33.8644 32.3203 33.0831 32.1447 32.2097L31.9538 31.4738C31.7672 30.8693 31.6282 30.2218 31.53 29.5965C31.3889 28.6988 31.3755 27.5818 31.4341 26.6694C31.4706 26.1028 31.9115 21.8089 32.1579 21.4263C32.3405 21.143 32.727 21.0511 33.0089 21.2487L33.0354 21.2667C33.237 21.411 33.3937 21.7438 33.5451 21.9465C34.0716 22.6515 34.9803 23.4035 35.9232 23.2685C36.6294 23.1674 36.8062 22.6227 37.2176 22.1479C37.9836 21.2639 38.9237 20.9738 39.7355 20.334C40.4317 19.7853 40.4463 18.8096 39.7138 18.293C39.4804 18.1283 39.2024 18.0128 38.9571 17.8642C38.1818 17.3945 37.6374 16.54 37.1199 15.824C35.9101 14.1506 34.3815 13.3874 32.4196 12.9997C32.1023 12.937 31.7653 12.8998 31.4539 12.8138ZM16.2677 13.2539C15.2582 13.6786 14.3094 14.2137 13.2673 14.5654C12.9237 14.6814 12.0907 14.8557 11.8412 15.1055L11.8359 15.1392C11.5926 15.3001 11.2765 15.3282 11.0416 15.517C10.4151 16.0204 9.99009 16.7352 9.42516 17.2999C8.76216 17.9627 7.36819 18.6855 7.79728 19.793L7.81181 19.8318C8.1473 20.6513 9.23198 21.0079 9.96609 21.5487C10.684 22.0776 11.236 22.853 12.0703 23.2058L12.1005 23.219C12.8211 23.5183 13.5703 22.8416 14.05 22.4009L14.7904 21.7347C15.2227 21.3505 15.8515 20.9372 16.1415 21.7235C16.2277 21.9568 16.2013 22.274 16.2279 22.5222L16.4589 25.139C16.4888 25.564 16.461 26.019 16.5348 26.4353C16.6153 26.8888 16.6169 28.545 16.5255 28.9766L16.361 29.9992C16.2345 30.6161 16.0552 31.2358 15.8581 31.8341C15.5166 33.2149 15.6174 34.8384 17.2056 35.3316C17.5157 35.428 17.9139 35.3932 18.2346 35.3935L23.3629 35.4046L23.3792 18.834C23.2174 18.7553 23.0416 18.7239 22.8685 18.6776L22.0972 18.4537C20.8155 18.0409 19.475 17.2757 18.6031 16.2332L16.7392 13.7448C16.6684 13.6501 16.3967 13.2293 16.2677 13.2539Z" fill="black"/>
<path d="M17.9456 32.6602C17.5612 32.7173 17.1373 32.4628 17.2111 32.0217C17.299 31.4953 17.5721 30.955 17.7867 30.4689L18.5244 28.671C18.7052 28.1608 18.8666 27.6074 18.939 27.0698C19.0484 26.2581 18.6934 25.0572 19.5857 24.777C20.4343 24.7355 20.3403 25.5086 20.3343 26.0376C20.3142 27.7875 19.9137 28.8472 19.2217 30.4689L18.4595 32.1916C18.3427 32.4341 18.1981 32.5716 17.9456 32.6602Z" fill="black"/>
<path d="M30.2474 32.6544C30.1482 32.6528 30.0521 32.6534 29.9576 32.619L29.8765 32.5862C29.623 32.4591 29.3996 31.979 29.2665 31.7357C28.1241 29.6468 27.6521 28.4261 27.6553 26.0951C27.6561 25.5284 27.6306 25.1167 28.2856 24.9658C28.7954 25.0008 28.9699 25.2696 28.9706 25.7278L28.9705 26.4028C28.9708 26.7402 29.0088 27.1208 29.0707 27.4516C29.1753 28.0098 29.3432 28.5063 29.5295 29.0389L30.542 31.2556C30.7745 31.7613 31.1348 32.4652 30.2474 32.6544Z" fill="black"/>
</svg>
