<svg width="48" height="48" viewBox="0 0 48 48" fill="none" xmlns="http://www.w3.org/2000/svg">
<path d="M24.8387 32.4792C24.6616 30.6948 24.3473 29.0105 23.7512 27.3189C23.3218 28.328 23.2168 29.4185 23.0742 30.4923C23.0207 30.8949 22.9734 31.4536 22.958 31.8637L22.9344 33.4846C22.9287 33.7161 22.8951 33.942 22.8781 34.1723L22.7351 35.7309C22.5813 36.8413 22.3842 37.9332 22.123 39.0239L21.68 40.63C21.2479 42.2185 21 43.3416 20.9999 44.9824C20.9999 45.9064 20.6588 45.8485 19.7929 46.0417L18.7273 46.2625C18.4335 46.3179 18.0847 46.3675 17.7866 46.3832L14.07 46.3914C13.8159 46.3909 13.4324 46.4577 13.213 46.3013L13.1538 46.2567C12.8615 46.0232 12.863 45.8096 12.8626 45.4724L12.8622 42.5684C12.862 41.9857 12.8604 41.4498 12.7738 40.8755L12.1808 37.8626C12.145 37.6772 12.1147 37.4983 12.1062 37.3092L12.0981 31.214C12.1039 30.7962 12.1494 30.4126 12.1987 29.9997L12.3304 29.2116C12.5142 28.3559 12.7611 27.5185 12.9124 26.6553C12.9935 26.1924 13.01 25.7101 13.0564 25.2426L13.8753 17.2512L13.9013 16.1835C13.9222 15.826 13.9793 15.4776 13.9841 15.1177L13.9952 12.4575C14.0799 10.8123 14.6653 9.38937 15.1009 7.82618C15.2446 7.31023 15.3743 6.8456 15.3701 6.30992L15.363 2.51722C15.3617 2.21584 15.4025 1.92968 15.7191 1.78901L15.7499 1.77588C15.9575 1.68641 16.1634 1.70548 16.3828 1.68254L18.2484 1.52817L19.296 1.52467C19.954 1.52408 20.5994 1.53296 21.2527 1.62042C21.8998 1.70703 22.5234 1.88656 23.183 1.89813C23.815 1.90922 24.4783 1.93084 25.1083 1.88836C25.8553 1.83799 26.5816 1.65252 27.3281 1.59193L27.7382 1.53996C28.073 1.51307 28.4168 1.52542 28.7525 1.52455L30.153 1.53662C30.3123 1.54462 30.4673 1.57486 30.6254 1.58854L31.2039 1.62014C31.8404 1.68169 32.6168 1.64722 32.6187 2.44021L32.6121 6.25428C32.6085 6.44932 32.5953 6.65093 32.6418 6.84214L32.8128 7.62293C32.8204 7.6646 32.8276 7.70004 32.8419 7.74035L33.3756 9.42232C33.722 10.4489 33.9657 11.5423 34.0014 12.6258C34.0155 13.0546 33.9971 13.4918 34.0395 13.9186L34.9112 24.9289C34.9712 25.8155 34.9846 26.7895 35.2648 27.6437C35.6071 28.6872 35.8157 29.8395 35.8823 30.9377L35.909 35.6256C35.9093 37.3774 35.7574 38.4022 35.3534 40.1324C35.2993 40.364 35.284 40.6266 35.2141 40.8507L35.1831 40.9692C35.1282 41.1939 35.1328 41.4289 35.1323 41.6592L35.1301 45.5105C35.13 45.6904 35.1644 45.8799 35.0263 46.0194L35.0038 46.0415C34.6563 46.3867 34.3582 46.3119 33.9023 46.3126L30.3803 46.313C29.4995 46.3119 28.6837 46.2862 27.831 46.0205C27.0513 45.7776 27.0027 45.5933 27.0031 44.8707C27.0034 44.4741 27.0157 44.0773 26.9652 43.683L26.8038 42.5906C26.5519 41.3082 26.1282 40.049 25.7856 38.7882L25.2428 36.3169C25.1339 35.6813 25.0227 35.0257 24.9683 34.3833L24.8387 32.4792ZM18.1066 2.79363L16.6235 2.88946L16.6179 5.71587C17.568 5.91054 18.5306 6.02103 19.4938 6.12256L22.5689 6.38004L25.6171 6.37971C25.7833 6.3732 25.9445 6.34292 26.1093 6.3281L29.2659 6.03275C29.4684 6.00467 29.6654 5.99501 29.8658 5.94893L30.9232 5.80446C31.0477 5.78787 31.2685 5.78759 31.3733 5.73396L31.3821 3.88222C31.3821 3.56897 31.4072 3.22996 31.3707 2.91971C29.484 2.63888 27.5841 2.81913 25.7147 3.12166C25.0917 3.22247 23.4631 3.2296 22.8384 3.16192C21.6356 3.03161 20.7778 2.79106 19.5335 2.79048L18.1066 2.79363ZM16.5817 7.01707C16.5367 7.37393 16.4205 7.72723 16.3226 8.07256L15.8188 9.72701C15.6492 10.2567 15.4618 10.7687 15.3741 11.3209C15.1196 12.9224 15.2221 14.5306 15.1843 16.1447C15.1763 16.488 15.1111 16.8314 15.0893 17.1752L14.8698 20.2186L14.3401 24.8899C14.2639 25.5897 14.2376 26.2997 14.1235 26.9952C13.9125 28.2809 13.3741 29.5227 13.3834 30.8376L13.5675 30.8677C14.0696 30.9517 14.5153 31.5127 14.6558 31.9868L14.6668 32.0221C14.6943 32.1124 14.713 32.2019 14.7173 32.2964L14.7207 34.4093C14.7211 34.6669 14.7652 35.7228 14.6849 35.8715C14.4284 36.3468 13.848 36.3148 13.5936 35.8833L13.5788 35.8589C13.4704 35.6727 13.5213 35.2943 13.5212 35.0836L13.5208 33.3625C13.5207 33.0188 13.6173 32.4615 13.3971 32.1684H13.3575C13.3054 32.3292 13.3119 32.5003 13.3116 32.6675L13.3097 35.1209C13.3094 35.7562 13.2536 36.4345 13.32 37.064C13.4577 38.3678 13.9173 39.6099 14.0529 40.9076L20.3356 40.9154L21.0468 38.1492C21.3547 36.8159 21.6131 35.1761 21.6649 33.791L21.7496 31.5825C21.8775 29.5153 22.1597 27.5142 23.0319 25.6119C23.184 25.2801 23.1807 25.3843 23.0738 25.0463L22.8357 24.2619C22.3616 22.701 21.9938 21.0255 22.4557 19.4184C22.6188 18.8511 23.2033 17.4959 23.6752 17.1624C24.4601 16.6079 25.1235 18.3262 25.3128 18.8325L25.6056 19.7465C25.9543 21.4021 25.6863 22.295 25.2926 23.8646L25.1004 24.4458C25 24.7189 24.5203 25.7725 24.5319 25.9575C24.5393 26.0763 24.6962 26.3469 24.7489 26.4614C25.1552 27.3451 25.3881 28.3421 25.6045 29.2908L25.9231 30.9028C25.9993 31.3973 26.0394 31.8974 26.0693 32.3962L26.2983 34.915C26.3209 35.086 26.323 35.2632 26.3525 35.4327L26.6821 37.1469C26.7837 37.6683 26.8707 38.2116 27.0397 38.7156L27.6725 40.9104L33.9498 40.9157L34.1848 39.5847C34.511 38.0281 34.6837 37.1788 34.6839 35.568L34.6821 31.9397C34.6809 30.8344 34.5426 29.8459 34.2816 28.7635C34.1116 28.0583 33.913 27.3786 33.797 26.6603C33.6854 25.9691 33.6947 25.2533 33.6448 24.5562L32.8399 14.4711L32.7935 13.2544C32.7703 12.661 32.7177 12.0631 32.6253 11.4766C32.3848 9.9499 31.6428 8.54801 31.4081 7.02246C29.786 7.27915 28.1563 7.5132 26.5149 7.60198L24.6315 7.63109L24.6188 12.7145C24.6187 12.8963 24.6337 13.0956 24.6067 13.2747C24.5418 13.7056 23.8876 13.959 23.5847 13.6197C23.3174 13.3204 23.3659 12.9105 23.3655 12.541L23.3632 7.65003L16.5817 7.01707ZM23.9848 18.8861C23.4591 19.9437 23.3961 20.9486 23.6013 22.1032L23.6909 22.5163C23.7717 22.924 23.8505 23.4009 24.025 23.774C24.1109 23.3396 24.2758 22.9261 24.3686 22.493C24.5895 21.462 24.6298 19.8737 24.023 18.9379L23.9848 18.8861ZM15.4384 42.1944L14.114 42.2043L14.1351 45.0978C14.5821 45.1291 15.0418 45.1062 15.4909 45.1063C16.6312 45.1068 17.4792 45.106 18.6053 44.9924C18.8084 44.9517 19.6828 44.8348 19.7833 44.6931L19.7899 43.7824C19.8004 43.2837 19.8656 42.692 19.9778 42.2035L15.4384 42.1944ZM28.0406 42.1969C28.0046 42.2629 28.0305 42.3784 28.0499 42.4456L28.0592 42.4754C28.2988 43.2659 28.1095 44.1239 28.2374 44.8138C28.9671 45.0684 29.7579 45.0377 30.5187 45.0386L32.6002 45.0378C33.0276 45.0378 33.4631 45.022 33.8887 45.0618L33.8639 42.1931L28.0406 42.1969Z" fill="black"/>
</svg>
