<svg width="48" height="48" viewBox="0 0 48 48" fill="none" xmlns="http://www.w3.org/2000/svg">
<path d="M30.3811 39.6539C29.5539 39.9282 28.6825 39.9004 27.8205 39.9505L26.2284 40.0262C25.321 40.0566 24.7396 40.0519 24.0386 39.3966C23.7488 39.6467 23.4499 39.8977 23.0667 39.9862L23.0387 39.9925C22.6943 40.0758 22.3117 40.0329 21.9595 40.0234L20.1736 39.9456C19.4379 39.9016 18.6627 39.9276 17.9439 39.7509C16.7228 39.4507 15.8098 38.3542 15.6891 37.1146C15.6427 36.638 15.7141 36.1262 15.7343 35.6483L16.1223 31.2069C16.1754 30.8328 16.2151 30.4514 16.3066 30.0841C15.8036 30.4332 15.3237 30.7957 14.7819 31.0864C11.858 32.6549 7.91096 31.7617 5.81551 29.225C4.4453 27.5662 3.88191 25.8461 4.8504 23.8827L7.71198 19.0899L10.8616 14.6974C12.4313 12.6905 14.3352 10.5121 16.6168 9.28016C17.0596 9.0411 17.5377 8.88229 18.0114 8.71776L19.0773 8.34951C19.5816 8.1808 20.0774 7.88976 20.598 7.78691C21.7373 7.7338 22.126 8.28819 22.6051 9.16654L23.4994 10.7679C23.6955 11.1179 23.8655 11.493 24.1128 11.8101L25.7071 8.6301C25.9285 8.25529 26.4132 7.9311 26.833 7.82835L26.8707 7.8194C27.2927 7.7121 27.5979 7.83168 27.984 7.98618L30.496 8.8918C33.6656 10.0956 36.1089 13.3218 38.0644 15.9457C39.5033 17.8764 40.8743 19.8505 42.0984 21.9257L42.856 23.2522C42.9826 23.4837 43.1265 23.7254 43.2318 23.9668L43.5001 24.6444C44.3312 26.988 42.151 29.7769 40.196 30.8562C37.6881 32.2409 34.3721 32.2551 32.1167 30.3846C31.8423 30.1571 31.6196 29.8011 31.7546 30.3836L31.8062 30.6332C32.076 31.5613 32.2019 33.4733 32.2604 34.4306L32.3359 36.1731C32.346 37.7676 32.0838 38.956 30.3811 39.6539ZM20.9117 9.26943L19.2832 9.81454L22.1194 14.6377L22.3771 15.0718L23.2707 13.3642L21.2376 9.75909C21.1486 9.59741 21.0687 9.41746 20.9616 9.26784L20.9117 9.26943ZM27.0885 9.24271C26.7055 10.1083 23.1258 16.6266 23.1639 16.7811L23.352 17.2266C23.4316 17.4368 23.6794 18.0506 23.8311 18.1953L24.2143 17.5196L28.7635 9.83282L27.0885 9.24271ZM17.8045 10.371C17.3763 10.5499 16.9075 10.7818 16.5203 11.0392L19.5461 16.5476L20.5984 18.7166C20.6494 18.8409 20.6543 18.9378 20.7561 19.0338L21.3413 19.0303L22.5882 19.0198L21.9506 17.671C21.736 17.1629 21.5734 16.6399 21.3154 16.1496C21.1038 15.7475 20.8422 15.3757 20.6089 14.9868L18.3116 11.1348C18.1747 10.8882 18.0527 10.5827 17.8802 10.3633L17.8045 10.371ZM30.1459 10.3486L25.4015 18.4012C25.285 18.5968 25.1867 18.8634 25.0454 19.0337L26.3551 19.0306L27.287 19.0531L31.4321 10.9956C31.0623 10.7226 30.5662 10.5337 30.1459 10.3486ZM32.6216 11.9647L28.6766 19.6063C29.5208 20.2838 29.524 21.5959 28.8797 22.4099C28.834 22.4676 28.7758 22.5166 28.7443 22.5833L30.1203 25.3109C31.1207 27.5402 32.153 29.1577 34.5978 30.0607C36.1441 30.6318 38.0825 30.4056 39.4842 29.532C37.6058 27.9423 36.0972 26.2608 34.9649 24.0759C34.7493 23.6174 34.2197 22.5557 34.1677 22.0546C34.119 21.5843 34.6586 21.1426 35.1077 21.3296C35.4857 21.4871 35.5312 21.9129 35.6746 22.2421C36.9863 25.2517 38.0721 26.4793 40.6872 28.6205C41.3414 27.9292 41.9623 27.143 42.1305 26.1786C42.3167 25.1101 41.7376 24.3002 41.2354 23.4052C40.2911 21.7221 39.2243 20.1235 38.1198 18.5429L35.3719 14.8782C35.0667 14.5066 32.9098 11.987 32.6216 11.9647ZM15.3166 11.966L14.0971 13.1739L12.3789 15.1393C11.5049 16.2089 10.7044 17.3541 9.91918 18.4893L6.89504 23.2169C6.22178 24.3911 5.47646 25.3196 6.01515 26.7247C6.2994 27.4663 6.77078 28.0947 7.33023 28.6511L8.83707 27.372C10.4852 25.8576 11.6387 24.0587 12.4301 21.9561C12.7264 21.1689 13.5005 21.021 13.7813 21.7265L13.7947 21.7579C13.8728 21.9444 13.8455 22.1382 13.7804 22.3241L13.0169 24.1307C11.9364 26.1438 10.3608 28.1029 8.54823 29.523C9.51648 30.3125 11.2647 30.4828 12.4484 30.3012C14.8925 29.9261 16.4458 28.2261 17.4821 26.1327L18.9345 23.2499C19.0354 23.0572 19.2449 22.7712 19.276 22.5669C18.4722 21.7309 18.2836 20.2561 19.3449 19.5827C19.0835 18.8667 18.7072 18.1852 18.3535 17.5114L15.6969 12.6356C15.568 12.4138 15.4593 12.1788 15.3166 11.966ZM20.6875 20.5125C20.291 20.575 19.8883 20.9914 20.1998 21.3749L20.332 21.512C20.5638 21.744 20.9928 21.6555 21.2923 21.6559L27.334 21.6552C27.6476 21.5502 27.9114 21.3309 27.8495 20.9765L27.8418 20.9292C27.8159 20.7962 27.7037 20.6743 27.5903 20.6083L27.5447 20.5799C27.3201 20.429 26.8555 20.5114 26.5973 20.5115L20.6875 20.5125ZM20.6871 23.1572L19.1128 26.2048C17.7848 29.0889 17.3386 31.8239 17.2165 35.007L17.1544 36.6084C17.1542 36.8132 17.1306 37.0411 17.194 37.2376L17.2323 37.3418C17.4063 37.7965 17.7287 38.1336 18.2106 38.2747L18.2522 38.2872C18.4674 38.3501 19.8907 38.4328 19.9221 38.4596L22.2449 38.5288C22.6411 38.5324 23.3012 38.518 23.3546 37.9452L23.3665 23.1799L20.6871 23.1572ZM25.9739 23.1672L24.8791 23.176L24.8517 37.3502C24.8516 37.8301 24.7512 38.2665 25.277 38.5116L25.3016 38.5232C25.5114 38.6122 26.8137 38.4742 27.1474 38.4621L29.4443 38.338C30.6565 38.0572 30.8355 37.4709 30.8238 36.3355L30.6367 32.8468C30.2594 29.4398 29.4448 27.0581 27.777 24.0259C27.6215 23.7431 27.4917 23.4349 27.3205 23.1629L25.9739 23.1672Z" fill="black"/>
</svg>
