<svg width="48" height="48" viewBox="0 0 48 48" fill="none" xmlns="http://www.w3.org/2000/svg">
<path d="M29.0177 37.6958L20.1965 37.7197C18.0825 37.72 16.8723 37.4593 15.3418 35.7332C14.5689 34.8616 14.944 34.4849 15.2791 33.4652C15.9991 31.2744 16.9098 29.1744 18.0543 27.1706L18.8795 25.8353L18.7924 25.7491C18.6115 25.595 18.4275 25.4234 18.2909 25.2277L18.2652 25.1899C17.101 26.0945 16.0897 27.1699 15.2886 28.4075C14.9218 28.9742 14.4695 29.9733 13.5776 29.4834C13.2704 29.3146 13.0659 28.9595 12.8826 28.6735L12.3498 27.8705C11.1814 26.2461 9.59287 25.107 7.95684 23.9874L7.07498 23.3914C6.73331 23.1566 6.30811 22.906 6.19556 22.4758C5.9024 21.355 7.50309 20.6814 8.29701 20.1561L10.8303 18.3679C12.4189 17.1528 13.868 15.7151 15.1234 14.158L16.0364 12.964C17.1066 11.5126 18.1065 10.6122 19.9314 10.1526C20.7378 10.097 20.822 10.2993 21.408 10.6606C22.4744 11.318 24.9387 11.3599 26.1145 10.8954C26.7857 10.6301 27.2861 9.98913 28.0808 10.1691L28.4965 10.2765C30.3915 10.9073 31.1203 11.8356 32.2619 13.3822L32.8104 14.0629C34.7228 16.381 36.7237 18.1591 39.2203 19.8389C39.7619 20.2033 41.4681 21.1464 41.7305 21.6887L41.743 21.7152C41.7652 21.7614 41.7847 21.8034 41.7992 21.853L41.8131 21.9027C42.0667 22.6297 41.4613 23.0679 40.9496 23.4131L39.8556 24.1435C38.3026 25.1717 36.7264 26.3558 35.6421 27.8917L34.8328 29.1103C34.4667 29.6085 33.8401 29.7878 33.3624 29.3268C33.1048 29.0781 32.9356 28.734 32.7486 28.4314L32.3176 27.7973C31.6151 26.8064 30.7545 25.9468 29.8239 25.1705C29.5917 25.3877 29.2105 25.7654 29.3587 26.1021L31.0315 29.2387C31.3587 29.8564 31.5981 30.5097 31.8755 31.1488L32.1777 31.9105C32.2273 32.0385 32.2883 32.1662 32.325 32.2985L32.8286 33.7801C32.9613 34.1313 33.213 34.6876 33.1089 35.0732L33.0987 35.1098C33.0503 35.2878 32.9372 35.4305 32.821 35.5696C31.8291 36.7575 30.6051 37.5526 29.0177 37.6958ZM19.886 11.6803C18.6017 12.3434 18.2111 12.4349 17.366 13.6228L15.9569 15.395C14.1207 17.5943 12.1355 19.345 9.759 20.9652L8.47532 21.8151C8.29322 21.9332 8.076 22.0363 7.91128 22.1761C8.16829 22.381 8.44523 22.5456 8.7195 22.7251L9.5159 23.2757C11.3669 24.5823 12.6162 25.7058 13.8951 27.5427L14.0132 27.6773C14.8789 26.3972 15.8749 25.3104 17.0172 24.2688L16.9974 24.2543C16.6476 23.994 16.3673 23.5383 16.6733 23.1183C17.3326 22.2133 18.8682 23.6493 19.3926 24.2652C19.5969 24.505 19.6134 24.4573 19.9222 24.4573L22.9902 24.4538C22.9902 22.9127 23.2064 21.3646 23.4735 19.8491L23.585 19.2309C23.6357 18.9508 23.5705 18.987 23.4281 18.7336L22.129 16.3593L20.7345 13.5254C20.4544 12.9128 20.2114 12.2702 19.886 11.6803ZM28.1495 11.688C28.0171 12.0228 27.8539 12.3265 27.6923 12.6468L27.0196 13.9917C25.2915 17.4698 24.2142 21.6756 24.3924 25.5941C24.4482 26.8184 24.6854 28.0296 24.7228 29.2603L24.7281 36.2532L28.2377 36.2322C29.6552 36.2251 30.6625 35.719 31.6337 34.68L30.6382 31.9192L28.8712 28.2321C28.5296 27.625 28.0101 26.9958 27.9467 26.2795C27.8209 24.8812 28.8346 23.823 29.9419 23.1348C30.1204 23.0238 30.2998 22.9082 30.504 22.8517L30.532 22.8436C31.2498 22.6484 31.9061 23.5913 31.0417 24.267C32.1952 25.377 33.1251 26.3463 34.0157 27.6938C34.9583 26.1134 36.3383 24.8556 37.8048 23.7684L40.0972 22.1884L38.0885 20.8361C36.5688 19.7651 35.105 18.6617 33.8064 17.3228L30.6767 13.6879C29.6558 12.2727 29.6055 12.5226 28.1495 11.688ZM21.8142 12.3732L24.1791 17.1558L24.7534 15.4761L25.4649 13.8738C25.6991 13.3996 25.9827 12.9166 26.149 12.4143L26.1293 12.4198C25.0316 12.7198 22.9556 12.7439 21.8142 12.3732ZM20.4739 25.9017L20.4682 25.9213C20.3888 26.1835 20.1999 26.4336 20.0575 26.6667L18.3374 29.7279C17.8485 30.7181 17.4065 31.7382 17.0251 32.775L16.3494 34.6753C17.7693 36.2582 18.5758 36.2332 20.4927 36.2347L23.2741 36.2362L23.2723 32.5975L23.2649 28.341C23.2568 28.1054 23.208 27.8744 23.1954 27.64C22.3739 28.7435 22.0266 30.4434 22.2277 31.8051C22.2876 32.2104 22.4229 32.7968 22.1603 33.149C21.9123 33.4816 21.4525 33.5397 21.1367 33.2679C20.8489 33.0201 20.8312 32.4224 20.7925 32.0684C20.5458 29.8096 21.2025 27.7174 22.5866 25.9198L20.4739 25.9017Z" fill="black"/>
</svg>
