<svg width="48" height="48" viewBox="0 0 48 48" fill="none" xmlns="http://www.w3.org/2000/svg">
<path d="M33.3487 42.8704C32.9101 43.6036 32.1279 44.114 31.2565 44.1138C30.9496 44.1138 30.6423 44.0158 30.3396 43.9698C29.1844 43.7938 27.9866 43.9514 26.9519 44.507C26.6609 44.6632 26.3197 44.9684 25.9805 44.9799L21.549 44.9818C20.7628 44.9797 20.9845 44.9055 20.3885 44.4499C19.7083 43.9299 18.6639 43.8674 17.8274 43.9627C17.3879 44.0127 16.9198 44.124 16.4769 44.0859C15.6808 44.0174 14.895 43.4417 14.559 42.7303C14.164 41.8942 14.36 40.9401 14.4355 40.0552C14.695 37.0183 15.3369 33.6913 16.3547 30.8018L15.2753 30.2767C14.0568 29.6562 13.453 29.8032 12.2724 30.1793C11.4045 30.4558 9.89171 30.4384 9.56546 29.3599L9.54357 29.2887C9.44331 28.9552 9.56893 28.4751 9.5746 28.1184L9.77481 23.984L10.1118 20.3209C10.4078 17.3794 10.8145 14.4368 11.4328 11.5435L11.7777 10.0301C11.8324 9.81527 11.874 9.54921 11.9847 9.35581L12.0009 9.32866C12.4304 8.5894 13.0451 9.07099 13.6293 9.10971C15.1389 9.20984 16.3304 8.72946 17.4855 7.71631C17.4648 7.42938 17.3743 7.18891 17.4286 6.88952L17.4353 6.85601C17.5124 6.44787 17.8291 6.01634 18.0527 5.67232L18.6197 4.79932C18.8271 4.48887 18.9765 4.27811 19.3652 4.20049C19.9098 4.17137 20.0545 4.43192 20.2948 4.84535L23.2536 9.9379C23.5365 10.4167 23.7564 10.975 24.0904 11.4176L24.8295 9.87495L27.5413 5.12806C27.8411 4.61862 28.0754 4.01678 28.8168 4.24199C29.1937 4.35646 29.7078 5.29437 29.9162 5.63988C30.3516 6.36185 30.7602 6.80993 30.4864 7.69207L30.48 7.71218C30.5509 7.78751 30.6446 7.84263 30.7271 7.90512C31.8007 8.71859 33.1533 9.33162 34.5249 9.09391C34.7198 9.06016 34.904 8.97321 35.0966 8.92887C35.727 8.7837 36.0829 9.27987 36.1762 9.84659L36.572 11.5237C36.6166 11.6636 36.6275 11.803 36.6513 11.9468L36.9862 13.6412C37.2872 15.0019 37.433 16.6016 37.6052 17.9864L38.2049 23.9251L38.4173 27.3052L38.4447 28.5124C38.4545 28.7996 38.5244 29.0752 38.4306 29.357C38.0931 30.3705 36.6456 30.4242 35.7833 30.2547C35.217 30.1434 34.6394 29.8255 34.0537 29.8628C33.1799 29.9184 32.4256 30.423 31.665 30.8094L31.8812 31.5279C31.9763 31.8474 32.0705 32.1626 32.1572 32.4849L32.3446 33.1998C32.4348 33.5522 32.5505 33.9124 32.6136 34.2703L32.8215 35.1957C32.9146 35.4837 32.9428 35.8241 32.9949 36.124L33.5298 39.609C33.6219 40.6719 33.8808 41.8943 33.3487 42.8704ZM19.4019 6.31362L18.8338 7.21287C18.9754 7.52042 19.0735 7.85065 19.2193 8.15679L20.349 10.5005C20.4756 10.7769 20.6342 11.0585 20.7233 11.3494L21.4009 13.0787L21.9771 14.8828C22.1307 15.3072 22.1383 15.7699 22.2904 16.1917L22.418 15.7091L23.045 13.8364C23.1437 13.5722 23.2306 13.2953 23.3529 13.0414L19.4019 6.31362ZM28.5521 6.31695L28.5437 6.33476C28.4237 6.5831 28.2611 6.82765 28.1181 7.06409L26.3656 10.1498C25.0266 12.6464 23.9526 15.2749 23.2289 18.0158L22.936 19.3268C22.3883 21.6387 22.2857 23.0943 22.2873 25.4682C22.2876 25.9597 22.3208 26.476 22.2719 26.9644L23.0683 27.1387L23.5767 27.3005C23.7919 27.379 23.7919 27.3924 24.0121 27.3255L24.7182 27.0769C25.3562 26.882 25.2023 27.1469 25.2031 26.3181L25.2115 20.0015C25.2157 19.7659 25.2793 19.5482 25.294 19.317C25.4935 16.1847 26.4303 13.2545 27.6849 10.3958L29.0228 7.5056C29.1377 7.22496 29.1909 7.27226 29.034 7.01899L28.5521 6.31695ZM29.9343 9.15884C29.7208 9.49451 29.5634 9.87663 29.395 10.2371L28.6889 11.7828C27.6015 14.3334 26.7912 17.3969 26.6618 20.1768L26.6488 25.6464C26.6482 25.9787 26.6064 26.3633 26.6725 26.6865L29.5892 26.2245L29.7349 25.5274L32.5926 14.7246L34.1185 10.6644C32.928 10.5938 31.8433 10.3532 30.7998 9.73306C30.501 9.55554 30.2318 9.33321 29.9343 9.15884ZM18.0569 9.18406C16.5683 10.2231 15.6409 10.5654 13.8927 10.611C14.0547 11.1276 14.3802 11.6037 14.5352 12.1799C14.5781 12.3392 14.6539 12.5179 14.719 12.6685C14.9838 13.2807 15.2044 13.9282 15.3961 14.5669L16.9097 20.0411L18.1287 25.0096C18.1697 25.1381 18.1837 25.276 18.2324 25.4017L18.3805 26.0537C18.3927 26.1219 18.4247 26.1833 18.4536 26.2458L20.8098 26.6309C20.8756 25.551 20.7802 24.4632 20.8422 23.3855L20.9392 21.9545C21.0296 21.0986 21.1621 20.2397 21.161 19.3766C21.1573 16.4827 20.158 13.6503 18.9657 11.0509L18.3819 9.8336C18.2757 9.61854 18.1779 9.39077 18.0569 9.18406ZM12.8623 12.0423C12.6609 12.7361 12.5473 13.4648 12.4271 14.1763L11.7206 18.8912L11.1555 24.958L11.0464 28.3006C11.0425 28.4705 11.0092 28.6349 11.018 28.8052C11.277 28.9814 12.2768 28.6004 12.5629 28.5221C13.538 28.2552 14.6723 28.3521 15.5929 28.775L16.1649 29.0444C16.3575 29.1432 16.5218 29.2491 16.7348 29.2971L16.8261 29.3186C16.6848 29.0483 16.5511 28.8152 16.4623 28.5206C16.0748 27.2343 17.0639 26.813 16.9701 26.3573C16.9054 26.0431 16.8084 25.7276 16.7202 25.4188L16.2053 23.4029C15.4004 20.2215 14.7394 16.9783 13.6073 13.8915L13.1496 12.6919C13.0627 12.4744 12.9804 12.2452 12.8623 12.0423ZM35.1288 12.0906C34.8812 12.5441 34.7423 13.081 34.5595 13.5658L33.7806 15.8754L32.9088 18.9849L31.3715 25.0925C31.2481 25.5545 31.0907 26.024 31.0063 26.4944C31.4502 27.1091 31.7072 27.6435 31.5879 28.4216C31.5395 28.738 31.3435 29.0206 31.2527 29.3266C31.6529 29.2189 32.0294 28.9111 32.4237 28.7543C33.3657 28.3502 34.2946 28.2771 35.283 28.5507C35.9232 28.728 36.3205 28.9333 36.9918 28.7808L36.9407 27.1506L36.4936 21.1763L35.8403 15.7989C35.6393 14.5568 35.4541 13.3087 35.1288 12.0906ZM18.0585 27.6451C17.6365 27.8641 17.8095 28.2877 18.1952 28.3975C18.4416 28.4676 18.7006 28.4921 18.9519 28.5357L21.5863 28.9705C21.7558 28.995 21.796 29.0144 21.9004 28.8779C22.0151 28.7366 22.1913 28.5611 22.2626 28.3954C21.756 28.2668 21.2319 28.1991 20.7191 28.0999L18.5055 27.6857C18.3627 27.6593 18.2025 27.6177 18.0585 27.6451ZM29.6774 27.6416L25.19 28.4639C25.3643 28.6249 25.5107 28.8409 25.7017 28.9828L28.7847 28.5314C29.0997 28.481 29.4447 28.4828 29.7526 28.3942C30.2223 28.2589 30.4608 27.5759 29.6774 27.6416ZM23.7082 29.0652C22.1822 30.0897 22.2872 31.8467 22.2872 33.4346L22.2854 37.3537C22.2781 37.5941 22.2353 37.8338 22.2254 38.0748L22.1964 39.4144C22.187 39.6193 22.1518 39.8204 22.1372 40.0243L21.9944 41.8951C21.9468 42.43 21.8143 42.969 21.7927 43.5034L23.3734 43.5032L25.1732 43.5026L25.204 33.019C25.2029 31.685 25.1909 30.4705 24.1667 29.4598L23.7082 29.0652ZM18.2301 29.8749L17.36 32.4749C16.6323 34.9661 16.1488 37.5337 15.9056 40.1166L15.8058 41.2647C15.7937 41.4346 15.756 41.6152 15.7855 41.7829L15.792 41.8211C15.8536 42.1715 16.1368 42.5092 16.5004 42.568L16.5316 42.5733C16.888 42.628 17.2768 42.5138 17.6316 42.4826C18.0339 42.447 18.4393 42.4396 18.8429 42.4509C19.1964 42.4741 19.5509 42.4985 19.893 42.5982C20.0702 42.6499 20.2504 42.7477 20.4304 42.7773L20.8303 37.1349L20.8412 32.3119C20.8442 31.6146 20.9243 31.0176 21.1093 30.3386L18.2301 29.8749ZM29.7131 29.8951L27.6249 30.1962C27.2158 30.2498 26.7964 30.3328 26.3821 30.3337L26.562 31.0533C26.6064 31.2094 26.6153 31.3944 26.6267 31.5567L26.6237 42.9868C27.222 42.7356 27.8204 42.5359 28.4712 42.4732C29.1955 42.4123 29.9182 42.3842 30.638 42.502C31.3342 42.616 31.9613 42.6869 32.2017 41.8248L32.2107 41.7939C32.2662 41.5841 32.2034 41.3004 32.1857 41.0845L32.0972 40.0025C31.8288 37.6678 31.429 35.3755 30.8039 33.107L30.1728 31.0019C30.1125 30.8183 29.8562 30.0023 29.7895 29.8904L29.7131 29.8951Z" fill="black"/>
</svg>
