<svg width="48" height="48" viewBox="0 0 48 48" fill="none" xmlns="http://www.w3.org/2000/svg">
<path d="M20.9411 44.2302L18.5612 44.2302C16.6188 44.229 15.8785 43.9974 13.9918 43.3399L12.048 42.6183C11.1937 42.2607 11.4807 41.4747 11.6308 40.7676L13.6119 33.4366L14.7701 30.032L16.7743 25.1235C16.5435 24.642 16.3935 24.3237 16.1893 23.8234C16.024 24.124 15.9055 24.4474 15.7722 24.7632L12.9746 31.5623C12.4979 32.7854 12.1066 32.9367 10.863 32.732C7.66793 32.2062 4.73356 30.8136 2.78877 28.1162C2.08411 27.1388 1.99383 26.8939 2.49752 25.7245L8.63051 11.4968C9.73179 9.12411 11.4183 8.64144 13.6826 7.83354L18.7089 6.08525C18.5275 5.01476 19.3335 3.91664 20.3876 3.7805C20.627 3.74958 20.8845 3.76684 21.1259 3.7667L27.0879 3.76587C27.2819 3.75629 27.506 3.75558 27.694 3.80493L27.7379 3.81683C28.3627 3.98086 29.1006 4.59218 29.2496 5.23409L29.2575 5.27342C29.3248 5.55598 29.315 5.86287 29.3101 6.15265L35.4371 8.17662C37.1409 8.76378 38.4568 9.71337 39.277 11.3203C39.5359 11.8277 39.6934 12.3943 39.9499 12.9029L44.8337 24.1333C44.9683 24.3892 45.6815 25.9462 45.7428 26.2222L45.751 26.2617C45.9768 27.0039 45.5816 27.6156 45.152 28.1862C43.5831 30.2701 41.1351 31.8071 38.6129 32.459C37.737 32.6854 35.8444 33.2009 35.3464 32.2595L31.7975 23.8295L31.2732 25.037C31.1978 25.2275 31.4444 25.7038 31.5302 25.8941L34.3276 33.3346L35.1702 36.1006L36.4766 41.2646C36.7343 42.1076 36.3824 42.4078 35.6676 42.7082L33.1637 43.6345C31.6709 44.1369 31.0426 44.2295 29.4611 44.23L20.9411 44.2302ZM20.7598 5.23184C20.5096 5.26409 20.1253 5.53822 20.1663 5.83306L20.1858 5.89358C20.83 7.64764 22.0838 9.41881 23.1785 10.9253C23.4647 11.3192 23.7393 11.7411 24.0707 12.0984L25.3603 10.1861L27.4901 6.67001C27.7602 6.18575 28.0372 5.67495 27.4572 5.29484C27.2353 5.14939 26.7739 5.23095 26.5192 5.23104L20.7598 5.23184ZM19.1752 7.53514L13.3942 9.56295C11.1803 10.3517 10.5741 10.725 9.60992 13.0538L4.85782 24.0579C4.82121 24.1434 4.76524 24.2415 4.75174 24.3335C5.00726 24.4875 5.29709 24.6027 5.57065 24.722L12.2626 27.6097C12.4534 27.6873 12.6657 27.7599 12.8404 27.8704L15.3186 21.8738L14.6431 20.1671C14.4769 19.7419 14.1962 19.3174 14.3803 18.8506C14.6335 18.2091 15.4564 18.1894 15.7521 18.7851C15.9019 19.087 16.0123 19.4177 16.1266 19.7344L16.331 20.3108C16.3825 20.4419 16.4161 20.554 16.4899 20.6773C18.1468 18.4066 20.5933 16.4526 22.4253 14.1805L22.8764 13.6078C22.952 13.5075 23.0414 13.4051 23.0895 13.2886C22.594 12.7714 22.2123 12.1915 21.796 11.6133L20.6081 9.86098L19.4263 7.86481C19.3651 7.74725 19.3337 7.60269 19.2166 7.53026L19.1752 7.53514ZM28.7441 7.56551C27.3804 9.96528 25.8675 12.2681 24.1647 14.4406L22.8736 16.0462L18.9528 20.1515C18.1847 20.9709 17.2009 21.8536 17.5694 23.0969L17.8301 24.014L21.1679 24.0164C21.8971 21.0948 25.8752 21.0059 26.742 23.7539L26.8178 24.002C26.9184 24.0282 27.0401 24.0157 27.1447 24.0159L30.102 24.018C30.2024 23.8558 30.3388 23.4046 30.4219 23.2031L32.0828 19.1365C32.1461 18.9765 32.2034 18.8007 32.3013 18.6584C32.6524 18.1487 33.4891 18.2818 33.6093 18.8967L33.6367 19.15C33.6107 19.5126 33.4722 19.7852 33.3366 20.1177L32.8161 21.3245C32.7314 21.5171 32.5707 21.7201 32.6609 21.9293L33.6731 24.3514C33.8859 24.7785 34.061 25.2441 34.2391 25.6875C34.4753 26.2757 34.7737 26.8352 34.9796 27.4377L35.0946 27.6838L41.484 25.1236C42.0811 24.8667 42.7285 24.673 43.2964 24.357L38.3746 13.0488C37.7205 11.4853 37.1685 10.4807 35.4615 9.81776L29.4608 7.79619C29.2301 7.72226 28.9609 7.66798 28.7441 7.56551ZM23.9197 23.2368C22.5494 23.3512 22.0649 25.043 23.0973 25.9007L23.1306 25.9287C23.4013 26.1514 23.7514 26.2602 24.101 26.247L24.4511 26.1569C25.9858 25.7327 25.575 23.0824 23.9197 23.2368ZM18.289 25.4808L17.2805 27.8108C15.9201 31.0512 14.831 34.4051 13.9098 37.7944L13.2865 40.2993C13.2094 40.6428 13.1017 41.0012 13.0656 41.3514C13.9039 41.7711 15.6244 42.338 16.5054 42.5538C16.9977 42.6744 17.544 42.7527 18.0517 42.7604L30.0044 42.7576C30.5304 42.7324 31.1783 42.6634 31.6749 42.5061C32.7949 42.2493 33.8745 41.7208 34.9463 41.318L33.5036 35.7623L30.7239 27.8502L29.9717 26.0833C29.886 25.8879 29.8222 25.669 29.7219 25.4835L26.871 25.4828C26.7728 25.6608 26.7345 25.8746 26.6432 26.0625C25.4257 28.5683 21.7942 27.9816 21.2112 25.7785C21.1863 25.6842 21.1688 25.5614 21.1105 25.4822L18.289 25.4808ZM4.15873 25.7699L3.7034 26.7079C5.07265 29.2137 8.77751 31.0962 11.4985 31.2493L11.5755 30.9902L12.2493 29.2651L4.97599 26.1529C4.71237 26.0363 4.39769 25.9278 4.15873 25.7699ZM43.8509 25.8164L35.6665 29.1064L36.4484 30.9785C36.4741 31.0759 36.5068 31.164 36.5478 31.256C39.4042 30.9967 42.8472 29.2339 44.3215 26.673L44.0572 26.1318C44.0088 26.0291 43.9692 25.9093 43.9042 25.8167L43.8509 25.8164Z" fill="black"/>
</svg>
