<svg width="48" height="48" viewBox="0 0 48 48" fill="none" xmlns="http://www.w3.org/2000/svg">
<path d="M19.0135 40.9401C18.0395 40.6982 17.1964 40.287 16.2945 39.8514C14.5703 39.0184 13.502 38.3957 12.9432 36.3594C12.7622 35.6996 12.8593 35.0019 12.9144 34.3326L13.7749 22.796C13.7966 22.441 13.7568 22.0314 13.8334 21.6859C13.9172 21.3084 13.9403 20.2385 13.9367 19.7628L12.3416 21.2446C10.5926 22.9644 10.4782 22.6263 8.89207 21.2412L7.37182 19.9057C6.95922 19.5316 6.54325 19.1553 6.21804 18.6991C5.1025 17.1343 5.21932 15.6858 6.44885 14.3329L7.28988 13.4475C7.70927 13.0377 7.90511 12.7806 8.53704 12.917C9.59988 10.8892 12.8828 9.18827 14.7815 8.10902L15.9174 7.42469C16.9 6.81766 17.374 6.77912 18.5739 6.93133L21.4384 7.23845L23.3871 7.31116L26.2269 7.24586L30.0754 6.85352L30.7006 6.88263C31.2705 6.94661 31.6605 7.1763 32.1325 7.47663L33.1147 8.07677C35.0673 9.22131 37.1084 10.2162 38.6231 11.9468L39.3882 12.9018C39.5776 12.8712 39.8444 12.828 40.026 12.8986L40.1432 12.9449C40.3778 13.0598 40.6084 13.3726 40.7906 13.5625C41.585 14.3908 42.4319 15.0925 42.5275 16.3137C42.6517 17.8994 41.6128 19.0068 40.5186 19.9668L38.4221 21.8058C37.0879 22.9739 36.6358 22.1776 35.6696 21.1982L34.0787 19.6632L34.3578 24.1245L35.16 34.477C35.1836 34.7816 35.2237 35.072 35.2233 35.3796C35.2204 37.6644 33.8115 38.8194 31.9785 39.7312L30.8159 40.3142C29.3575 41.0205 26.2255 41.9444 25.3063 40.0424C25.0642 40.0355 22.8594 40.0377 22.824 40.0537C22.7688 40.0785 22.6303 40.3079 22.5718 40.37C21.9086 41.0742 20.8189 41.2841 19.8862 41.0926L19.0135 40.9401ZM18.1391 8.37934L18.2003 8.53333C18.2466 8.65492 18.3187 8.76212 18.3629 8.88634L20.3947 14.2036L21.2258 16.9188L22.7227 22.6188C22.8358 22.9875 22.891 23.3822 22.9801 23.7569L23.8494 27.616C23.8846 27.7792 23.8826 27.9976 23.9729 28.1372L25.17 23.1382L25.5679 21.4641L27.3194 15.0798L28.93 10.4836L29.8202 8.38637L26.6719 8.69411L22.9677 8.76292L22.0661 8.71511C21.7634 8.70508 21.4589 8.71248 21.157 8.68764L18.3981 8.39983C18.3167 8.38886 18.2196 8.36453 18.1391 8.37934ZM16.6832 8.65534L14.9528 9.67792C13.4786 10.5061 11.9364 11.3095 10.7186 12.5054C10.3083 12.9083 9.99007 13.3671 9.62435 13.807C10.1903 14.4775 10.9481 15.0396 11.609 15.611L13.9451 17.6449C14.9033 18.4599 15.479 18.5559 15.4199 19.8647L15.0948 24.1528C15.0678 24.4945 15.0791 24.8434 15.0438 25.184L14.9048 26.6489L14.3988 33.7889C14.2235 36.168 14.076 37.156 16.5101 38.3463C17.9486 39.004 18.8952 39.602 20.5185 39.6883C21.5716 39.7443 21.4428 39.5942 21.6818 38.6669L23.2957 31.8482C23.3525 31.562 23.3352 31.4744 23.2592 31.1927L21.1444 22.2001C20.0873 17.8537 18.8278 13.543 17.0734 9.42198C16.964 9.16506 16.8414 8.88611 16.6832 8.65534ZM31.2662 8.66059L30.4758 10.458C28.2638 16.0893 26.901 21.9828 25.5625 27.8674L24.804 30.9288C24.6786 31.4721 24.8014 32.0058 24.9712 32.5338L26.6285 39.5026C26.6942 39.747 27.0896 39.6716 27.2782 39.672L28.0791 39.6656C28.2017 39.6603 28.3642 39.6558 28.4791 39.6138L28.52 39.5961C28.6029 39.5643 28.7062 39.5632 28.7935 39.5401C29.7609 39.2836 30.6252 38.7199 31.5306 38.3112C33.5447 37.2495 33.8831 36.585 33.6937 34.2258L33.3062 29.4848L32.6357 19.876C32.608 19.3838 32.5308 18.9704 32.9249 18.582C33.4986 18.0165 34.1598 17.5175 34.7658 16.9852L38.3181 13.9134C37.3276 12.2987 35.8226 11.3109 34.2355 10.3786L31.6897 8.90144C31.5815 8.83694 31.4069 8.68961 31.2888 8.66312L31.2662 8.66059ZM8.22007 14.5434C7.7876 15.0745 7.05682 15.5508 6.93494 16.2661L6.92936 16.2967C6.72921 17.4831 7.82388 18.3562 8.59549 19.0608L10.6106 20.8452L11.0841 20.3755L12.8877 18.6802C12.591 18.3646 12.2404 18.0985 11.9116 17.8176L8.93149 15.2001C8.78852 15.0675 8.3869 14.5647 8.22007 14.5434ZM39.7597 14.569L35.5641 18.2327C35.4148 18.3661 35.2616 18.5135 35.0924 18.6206L36.922 20.3841L37.3525 20.7878L39.7976 18.6583C40.7175 17.822 41.665 16.6878 40.6765 15.5133L39.7597 14.569ZM24.0758 35.0688L23.3356 38.1059C23.3029 38.2474 23.2425 38.4152 23.24 38.5582L24.0629 38.5557L24.8831 38.5278C24.8491 38.4509 24.8393 38.3563 24.8218 38.2739L24.0758 35.0688Z" fill="black"/>
</svg>
