<svg width="48" height="48" viewBox="0 0 48 48" fill="none" xmlns="http://www.w3.org/2000/svg">
<path d="M33.4038 37.5751C33.0288 39.2917 31.4602 39.4554 29.9767 39.5744L28.1434 39.7213C27.8559 39.7397 27.5267 39.7263 27.246 39.7824C26.7152 39.8885 25.7063 39.7255 25.3137 39.8836L25.2539 39.907C24.9192 40.0121 24.5544 40.0683 24.2104 40.1401C21.4453 40.7172 19.0798 40.3613 16.5518 39.2519C15.7045 38.8801 14.9459 38.6035 14.6266 37.6127L14.6157 37.5783C14.5808 37.4725 14.5551 37.38 14.5462 37.2683L14.5429 37.2238C14.5253 37.012 14.5458 36.8019 14.5482 36.5897L14.6157 35.1422C14.859 32.6155 15.4816 30.2276 16.5317 27.9111L15.1928 25.03L14.343 26.7652L12.2821 30.2575C11.8919 30.9087 11.5432 31.6098 11.0884 32.2184C10.3093 33.2608 9.00896 33.7229 7.72772 33.5235C6.72605 33.3676 5.90302 32.6907 5.05927 32.1821C3.6703 31.3449 2.36162 30.793 2.36328 28.8098C2.36423 27.6821 2.89472 27.1472 3.459 26.2544L5.79357 22.57C6.67257 21.1201 7.51158 19.6523 8.24583 18.1228L10.4414 13.2946C10.6036 12.9155 10.6777 12.8296 10.6013 12.4216C10.2174 10.3704 11.5848 8.35876 13.6596 8.04854L13.6912 8.04399C14.0209 7.99464 14.3661 8.01475 14.699 8.01507L16.146 8.01367C16.1987 7.91256 16.2244 7.79645 16.269 7.6907C16.7022 6.66165 17.6705 5.87734 18.8151 5.82254C20.0192 5.75153 21.0212 6.41907 21.5631 7.48801L24.0326 12.8824C24.1282 12.7402 24.1836 12.5467 24.2508 12.388L26.2984 7.81295C26.4139 7.53765 26.5284 7.25284 26.7 7.00637C27.9774 5.17103 30.5415 5.58564 31.6121 7.43078C31.7268 7.62859 31.7647 7.8167 31.8598 8.01498L33.3829 8.01521C33.6918 8.01512 34.0182 7.99571 34.324 8.03842L34.5 8.06312C35.6836 8.25067 36.8381 9.2446 37.2323 10.3577L37.3219 10.6526C37.4561 11.0109 37.5003 11.6186 37.4422 11.9955L37.4034 12.3513C37.3797 12.5242 37.33 12.6644 37.391 12.8389L37.401 12.8669C37.4652 13.0822 37.5675 13.2723 37.6586 13.4763L40.216 19.0193L45.2718 27.3968C45.9821 28.7876 45.564 30.4347 44.2831 31.3577C43.9155 31.6226 43.4944 31.8318 43.1074 32.0695L41.4151 33.0911C39.9058 33.9452 38.1526 33.6308 37.0138 32.3532C36.7809 32.0919 36.5977 31.7536 36.4229 31.4513L34.2187 27.7683L32.98 25.3825C32.9286 25.2903 32.8637 25.2061 32.8116 25.1133L31.4799 27.8999C31.4776 28.0448 31.7111 28.5124 31.7987 28.687L32.7961 31.6369L33.0086 32.5562C33.2832 33.4052 33.6644 37.0433 33.4038 37.5751ZM18.9548 7.29732C17.9196 7.43326 17.2861 8.33673 17.44 9.36245C17.5189 9.88815 17.8144 10.3569 18.0351 10.8323L21.4724 18.4976L21.5717 18.2791L23.2435 14.587C22.9898 14.1366 22.7942 13.6396 22.5705 13.1716L20.5157 8.72007C20.199 7.99806 19.9683 7.27914 18.9548 7.29732ZM28.8516 7.31804C27.8663 7.51956 27.7546 8.14135 27.408 8.95393L24.032 16.4167L18.9491 26.8752C18.8955 26.9783 18.8555 27.0911 18.7873 27.1854L20.5488 27.1902C21.7307 27.1836 22.5613 26.7889 23.1665 25.6907C23.7036 24.7164 24.1366 23.6705 24.6114 22.6638L29.7941 11.4159C30.3052 10.2429 31.2048 8.84996 30.0252 7.74231C29.7385 7.4731 29.3218 7.29971 28.9262 7.31434L28.8516 7.31804ZM32.0169 9.48203C31.8899 10.4931 31.4003 11.3696 30.9955 12.2963L27.6728 19.6364L25.0449 25.1424C24.7095 25.8324 24.4041 26.5811 23.9066 27.1731C24.0176 27.2043 24.1645 27.1892 24.2812 27.1896L27.9233 27.1902L30.2107 27.2057L31.3661 24.7702L35.1543 14.6603C35.435 13.8962 35.763 13.1462 35.9308 12.346C36.1753 11.1798 35.6957 9.9647 34.4825 9.57985C34.146 9.47312 33.7946 9.49431 33.4465 9.49342L32.0169 9.48203ZM14.0516 9.4966C12.5721 9.69217 11.5811 11.0769 12.1237 12.5155L16.4261 24.1272C16.7558 24.8643 17.0021 25.6367 17.3797 26.3542L17.3978 26.3905C17.4251 26.4413 17.4608 26.4841 17.497 26.5285L17.8658 25.8001L20.4886 20.531C20.5453 20.4191 20.6193 20.3017 20.6455 20.1791C20.3427 19.6569 20.1233 19.0716 19.8754 18.5208L16.979 12.0651C16.6038 11.221 16.1614 10.4193 16.0126 9.4975L14.6103 9.49492C14.4372 9.49525 14.2204 9.46998 14.0516 9.4966ZM36.6404 14.7746L33.5369 23.1294L35.177 26.4958L37.5931 30.5505C38.3978 31.922 39.2416 32.5843 40.7242 31.7577L42.4532 30.7271C42.8648 30.4842 43.3733 30.2636 43.7086 29.9177C44.2254 29.3843 44.3103 28.6202 43.9147 27.9904L42.6287 26.0273C41.3589 24.0358 40.1287 22.0304 39.0319 19.9372L36.6404 14.7746ZM11.3858 14.7977L10.496 16.7575C9.675 18.5289 8.84499 20.2848 7.86296 21.9748L4.59234 27.1872C4.38388 27.5022 4.13486 27.827 3.96128 28.1618C3.61193 28.8356 3.87376 29.7039 4.49996 30.1132L7.25541 31.8056C8.10516 32.2733 9.08115 32.2104 9.76927 31.4939C10.022 31.2307 10.2016 30.8884 10.3891 30.5784L11.2998 29.0388C11.8733 28.0727 12.5012 27.1338 13.0253 26.139L14.3386 23.3538C14.3796 23.2514 14.4347 23.1499 14.4521 23.0406L11.3858 14.7977ZM17.7837 28.6712L17.7769 28.6923C17.7085 28.8834 17.6183 29.0664 17.5429 29.2548L17.0705 30.5212C16.566 31.9884 16.2409 33.5063 16.0936 35.0494C16.0619 35.3814 15.895 36.9861 16.0255 37.2408C16.2775 37.7327 18.7124 38.5206 19.2347 38.6351C21.8002 39.1977 24.3096 38.959 26.5247 37.5302L27.2198 37.0208C28.8705 35.6843 30.0066 33.7376 30.5482 31.7024C30.7139 31.0798 30.9347 30.5026 30.7007 29.8958L30.3191 28.9856C30.2709 28.8784 30.2465 28.76 30.1734 28.6675L17.7837 28.6712ZM31.6291 33.2138C30.7048 35.3831 29.7841 36.734 28.0346 38.2472L28.518 38.2044L29.9179 38.0913C30.6605 38.0416 31.7659 38.1507 31.9937 37.2068L32.0052 37.1604C32.0783 36.8569 32.0223 36.5304 32.0038 36.2224L31.9756 35.4821C31.9615 35.2883 31.924 35.102 31.8991 34.9099L31.7226 33.6609C31.6944 33.5118 31.6466 33.3643 31.6291 33.2138Z" fill="black"/>
</svg>
