<svg width="48" height="48" viewBox="0 0 48 48" fill="none" xmlns="http://www.w3.org/2000/svg">
<path d="M31.3425 38.9665C30.5687 40.2148 29.1981 40.4416 27.8642 40.6867C27.0373 40.8387 26.5626 40.8984 25.7184 40.9013L21.9396 40.8956C21.2302 40.8861 20.9998 40.8436 20.3303 40.7116L19.3415 40.5104C16.9512 40.0358 16.3918 39.0146 15.9385 36.8674L15.7634 36.0292C15.4111 33.826 15.6705 31.5887 16.3487 29.4714L17.595 26.2445C17.7331 25.9513 17.6339 26.0442 17.4597 25.7698C16.9871 25.025 17.0653 24.1767 17.5809 23.4676C16.864 22.7983 16.6246 22.5572 16.1505 21.6108C14.5117 23.8516 12.1112 27.0259 8.97558 25.436C8.31834 25.1028 6.73045 23.8642 6.31701 23.29C5.05945 21.5437 5.62336 19.4704 7.17998 18.0789C5.98851 17.1545 5.316 16.6101 6.69562 15.5784L8.85314 13.8273C9.52856 13.2068 10.1825 12.5632 10.79 11.8757L11.4916 11.0227C11.9167 10.4601 12.2985 9.91425 12.9138 9.53723C13.7908 8.99991 14.8591 8.76426 15.832 9.17409C16.0793 9.27825 16.0883 9.16936 16.323 9.03801L17.8009 8.19656C18.4163 7.82423 19.0642 7.23178 19.7757 7.08337C20.5575 7.00687 20.9201 7.47731 21.298 8.06414L23.0277 10.6248C23.3751 11.1746 23.6894 11.7661 24.0745 12.2885L26.935 7.69945C27.115 7.42317 27.4276 7.18177 27.7571 7.12083L27.8502 7.10489C28.458 7.02811 28.9043 7.37859 29.3862 7.69116L31.2952 8.81151C31.685 9.01725 31.8404 9.24933 32.201 9.14222C33.3531 8.79994 34.55 9.0022 35.4586 9.80859C35.9509 10.2455 36.2843 10.765 36.6958 11.2674C38.0645 12.9386 39.6591 14.4044 41.4069 15.6727C41.5829 15.8004 41.8082 15.9289 41.9132 16.1253L41.9254 16.1488C41.9486 16.1926 41.971 16.2341 41.9873 16.2812L42.0012 16.3245C42.0533 16.4697 42.0708 16.6345 42.03 16.7865L42.0213 16.8166C41.8732 17.3618 41.2402 17.7413 40.8046 18.0633C41.645 19.0413 41.946 19.1271 42.2902 20.579L42.3096 20.6613C42.4959 21.5449 42.1587 22.5014 41.6857 23.2354C41.1048 24.137 39.1011 25.5417 38.0816 25.7575C36.0991 26.1773 34.8746 25.2259 33.662 23.8695L32.4872 22.4615C32.2742 22.1828 32.0875 21.876 31.8568 21.6136C31.6025 22.2591 31.0563 22.9995 30.4645 23.3941L30.4319 23.4153C30.4389 23.4894 30.527 23.5909 30.5655 23.6587C30.9304 24.3008 31.0027 25.5321 30.3673 26.014L30.3316 26.0393C30.3357 26.0918 30.329 26.0696 30.3523 26.1165L30.4687 26.3791C30.7249 26.9208 30.9017 27.5004 31.1262 28.0549L31.6168 29.4495C31.6785 29.6435 31.7261 29.85 31.7962 30.0397L31.8608 30.2616C31.8937 30.4122 31.9329 30.614 31.9843 30.7573C32.377 31.8543 32.4327 34.2586 32.3052 35.53C32.2046 36.534 31.8608 38.1437 31.3425 38.9665ZM19.8401 8.73675L17.4028 10.2457L21.4318 16.8838L21.8257 17.5374L23.2366 13.9347L19.8401 8.73675ZM28.1324 8.75414L26.004 12.0323C24.817 14.0371 23.8465 16.1874 23.1866 18.4236L22.3727 21.7417C22.308 22.0246 22.2365 22.3015 22.2052 22.5917L24.8029 22.5976L25.8779 22.5979C25.9982 22.5979 26.1668 22.6222 26.2782 22.5857L26.269 21.3912C26.2697 20.7019 26.2728 20.0412 26.3976 19.3596C26.7725 17.3124 28.3945 14.2254 29.3895 12.4221L30.1244 11.1637C30.7191 10.2014 30.9092 10.3973 30.0008 9.87914L28.3627 8.88712C28.3067 8.8492 28.1966 8.74889 28.1324 8.75414ZM14.6428 10.5564C13.986 10.6389 13.479 10.983 13.0758 11.504L12.2594 12.5795C11.849 13.0751 11.3939 13.5445 10.9402 14.0004L8.33217 16.3035C8.19365 16.4102 8.04816 16.503 7.91447 16.6165C9.21098 17.6301 10.6614 18.3865 12.1052 19.1623C12.7428 19.5049 13.4181 19.9235 14.1094 20.1449C15.8542 20.7037 16.4564 19.2671 16.4356 17.8041C16.4319 17.5397 16.4421 17.2588 16.3883 16.9986L16.1113 15.6721C15.9496 14.9988 16.0656 14.3637 16.9601 14.4656L16.9944 14.4787C17.2162 14.5643 17.3992 14.6943 17.5006 14.9182L17.5342 15.0002C17.6418 15.2552 17.6761 15.4934 17.7547 15.7522C18.0021 16.5661 18.0545 18.4441 17.8425 19.2021C17.6492 19.8937 17.4194 20.165 17.5916 20.8884L17.6651 21.1059C18.1604 22.4352 19.3977 22.6209 20.6151 22.5908C20.7255 21.8174 20.9236 21.0652 21.1065 20.307L21.2378 19.8012C21.2894 19.6092 21.1889 19.5246 21.0927 19.359L17.309 13.0715C16.7873 12.2169 16.1726 10.7133 15.0437 10.5596C14.9461 10.5464 14.7306 10.5213 14.6428 10.5564ZM33.083 10.5557C32.1191 10.6934 31.7617 11.4757 31.3183 12.2276L30.1671 14.3205C29.2389 16.1535 27.8205 18.6149 27.8106 20.7135L27.8087 22.4078C27.8089 22.476 27.7994 22.5558 27.8257 22.6187C29.3069 22.5923 30.6902 21.5587 30.6702 19.9924C30.664 19.5078 30.4994 19.0339 30.4124 18.5602C30.2889 17.8878 30.3707 15.2491 30.8663 14.7026C31.1662 14.3718 31.7053 14.3497 32.0277 14.6604L32.113 14.7586C32.3131 15.232 32.1632 15.4765 32.0598 15.9607C31.8898 16.7563 31.8055 17.6423 31.9702 18.4455L32.1105 19.0432C32.1933 19.4045 32.1807 19.8096 32.5005 20.051L32.531 20.0743C33.122 20.5112 33.9854 20.1229 34.5525 19.845L35.6629 19.2818C36.8931 18.6461 39.0397 17.5774 40.0555 16.6233C39.9257 16.4993 39.7775 16.4073 39.6376 16.2961L38.7067 15.5488C37.5809 14.6431 36.5167 13.5387 35.6155 12.4146L35.0462 11.6868C34.647 11.1597 34.2298 10.6721 33.5275 10.5675L33.4878 10.5612C33.3786 10.5449 33.1879 10.5247 33.083 10.5557ZM8.53556 18.9461C7.67948 19.8048 6.76692 20.6958 7.36289 22.008L7.37897 22.044C7.63284 22.5992 9.32639 23.922 9.94205 24.1441C10.7287 24.428 11.5879 24.1846 12.2456 23.718C12.8668 23.1977 13.5975 22.4239 14.0783 21.761C13.2352 21.5268 12.507 21.152 11.7334 20.7525L8.53556 18.9461ZM39.4542 18.9771L36.7629 20.5006C35.8474 20.9855 34.9192 21.485 33.9144 21.7566C34.4834 22.4434 35.0613 23.2148 35.7644 23.7698C36.3061 24.187 36.9466 24.304 37.6155 24.217L37.7784 24.1905C38.2862 24.102 38.7249 23.7322 39.1313 23.4401C39.9616 22.8435 40.9171 22.1599 40.7852 21.0002L40.7814 20.9648C40.6912 20.1634 40.0526 19.4682 39.4542 18.9771ZM19.0548 24.1516C18.683 24.3028 18.567 24.8775 18.9624 25.058L28.9484 25.0671C29.2025 24.9704 29.3716 24.7292 29.2479 24.4573C29.0656 24.0565 28.6998 24.1537 28.3437 24.153L19.0548 24.1516ZM19.1538 26.6287L18.3923 28.4388C17.4156 30.9563 16.8189 33.3792 17.3556 36.0901L17.4945 36.6697C17.808 38.04 17.9276 38.4471 19.2768 38.8843L19.9162 39.0306C20.0235 39.0588 20.2104 39.135 20.3175 39.1177L21.0548 26.6512L19.1538 26.6287ZM23.5501 26.6392C23.2429 26.6396 22.8853 26.6041 22.5845 26.6506L21.8638 39.3293L24.6478 39.3349L25.7929 39.333C25.9371 39.3327 26.1345 39.3582 26.269 39.3212L26.2651 26.6475L23.5501 26.6392ZM28.6644 26.637L27.8012 26.6419L27.7629 37.7291C27.763 38.169 27.7253 38.6549 27.7997 39.0875L28.5427 38.9411C28.8821 38.8489 29.1647 38.7892 29.4824 38.6255C30.2857 38.0847 30.4385 37.1899 30.6156 36.3C31.1385 33.6726 30.6186 31.0565 29.6603 28.5907C29.4047 27.933 29.0778 27.2973 28.84 26.635C28.7781 26.6255 28.7258 26.6299 28.6644 26.637Z" fill="black"/>
</svg>
