<svg width="48" height="48" viewBox="0 0 48 48" fill="none" xmlns="http://www.w3.org/2000/svg">
<path d="M29.5722 42.9356C29.2219 43.0354 28.8741 43.013 28.5134 43.0131L20.619 43.0133C20.047 43.0134 19.4595 43.0398 18.8889 43.0099C17.0182 42.9118 15.3243 41.1921 15.1235 39.343C15.0873 39.0103 15.1119 38.65 15.1118 38.314L15.1179 36.9867L15.6466 30.5975L15.7766 28.1493C15.788 27.9054 15.8347 27.6686 15.8469 27.4247L15.8637 24.1898C15.8641 23.62 15.7561 23.1849 16.2278 22.7701C16.2079 22.5046 16.1153 22.2206 16.0536 21.9607L15.8761 21.1673C14.7577 21.8142 14.3985 22.3815 13.0191 22.7803C11.2685 23.2863 9.62301 22.2467 8.58079 20.914L7.40666 19.3601C7.23543 19.1387 7.04338 18.9111 6.92676 18.6545L6.91209 18.6209C6.65919 18.0514 7.02576 17.7673 7.37329 17.4286L8.3848 16.4226C10.2781 14.5191 11.8894 12.2019 13.0272 9.77282C13.7734 8.17972 15.3072 7.39115 16.9557 6.98948L17.4371 6.88241C17.9221 6.76513 17.7042 5.3121 19.3537 5.04697C19.9966 4.97854 20.3639 5.24483 20.9384 5.47846C22.675 6.18449 24.8406 6.17469 26.6011 5.62241C27.4184 5.36605 28.1619 4.7811 29.0531 5.15432C29.6913 5.4216 30.0069 5.88304 30.2804 6.49199C30.5287 7.04469 30.5085 6.89399 31.1399 7.03185C32.0333 7.2268 33.045 7.63677 33.7496 8.2251C34.6052 8.93962 34.9822 9.90463 35.5195 10.8374C36.7189 12.9197 38.0866 14.8903 39.7654 16.6145L40.7413 17.55C41.2281 18.0021 41.2033 18.4828 40.8285 19.0277L40.3154 19.7342C39.0526 21.4204 37.956 22.9386 35.586 22.8616C35.1149 22.8463 34.6223 22.7249 34.1895 22.5364C33.4507 22.2147 32.8482 21.6194 32.1509 21.2172C32.0766 21.3728 32.0458 21.5459 32.0035 21.7119L31.7652 22.7538C32.1308 22.9851 32.1289 23.5348 32.1254 23.9163L32.1494 27.6943C32.1604 27.9019 32.2087 28.093 32.2203 28.3006L32.2479 29.4389C32.2588 29.6029 32.296 29.7583 32.3083 29.9218L32.7726 35.6377L32.8251 36.7453C32.8362 36.9034 32.868 37.0589 32.8758 37.2186L32.8759 39.0304C32.8689 40.894 31.3612 42.5473 29.5722 42.9356ZM19.5158 6.35188C19.2717 6.42449 19.0893 6.59915 18.9659 6.81815L18.9005 6.9539C18.8205 7.12551 18.7442 7.36307 18.7921 7.54668L18.8381 7.74112C18.9258 8.10177 19.1747 8.47907 19.3412 8.80743L21.2262 12.1813L23.6832 15.9967C23.7885 16.159 23.8726 16.3311 23.9978 16.4806L26.1895 13.1131C27.0517 11.738 27.8823 10.3363 28.605 8.88233C28.8412 8.40712 29.0921 7.95262 29.2575 7.44594C29.1571 7.05252 29.0221 6.64026 28.6459 6.4289C28.3519 6.26366 28.0439 6.50183 27.7669 6.61082C25.6935 7.42663 23.314 7.55971 21.1691 6.92666L19.9569 6.48004C19.8162 6.42018 19.6715 6.34691 19.5158 6.35188ZM17.5806 8.16777C16.3748 8.63319 14.5619 8.8761 14.2177 10.454C14.0926 11.0276 14.7065 12.4704 14.9545 13.0779L16.0709 16.6477C16.1454 16.876 16.1749 17.127 16.2567 17.3508L16.4145 17.9573C16.4219 17.9962 16.4328 18.0297 16.4455 18.067L17.2672 21.5016C17.3711 21.8429 17.3617 22.26 17.5028 22.5789C17.6159 22.6185 17.7942 22.5939 17.9186 22.5939L22.8629 22.5936L26.24 22.5913L19.1597 11.2241L18.4592 9.90744C18.3791 9.75416 17.6114 8.17935 17.5806 8.16777ZM30.3604 8.19965C30.2212 8.57394 30.0367 8.92865 29.8589 9.28546L28.5526 11.723L24.74 17.6659L27.7806 22.5999L28.2476 22.5946L30.5353 22.6028C30.6587 21.6774 30.8948 20.7551 31.1129 19.8463L32.7663 13.9745L33.4124 12.1198C33.6999 11.309 34.0387 10.5499 33.4507 9.76813C32.6936 8.7614 31.5025 8.50799 30.3604 8.19965ZM13.2407 12.0966L12.4894 13.3303C12.0296 14.05 11.5221 14.7441 10.9948 15.4154L8.53677 18.1434C8.46295 18.2203 8.36254 18.2955 8.30104 18.3811L9.25823 19.6664C9.75154 20.2971 10.1778 20.8835 10.9061 21.2642C12.48 21.9435 13.2692 21.3896 14.5195 20.5093L15.564 19.7978C15.5582 19.6774 15.5069 19.5416 15.4779 19.4232L14.1669 14.7621L13.2407 12.0966ZM34.754 12.0995L33.6672 15.4087L32.5859 19.223C32.535 19.421 32.4642 19.6362 32.4422 19.8386L33.7786 20.7651C34.8682 21.5105 35.8601 21.8814 37.0991 21.2366C37.7833 20.8611 38.1871 20.3515 38.6597 19.7397L39.7199 18.3747C37.9638 16.7299 36.5488 14.9106 35.2547 12.888L34.754 12.0995ZM17.3535 23.8921L17.1486 23.9006C17.0968 24.0609 17.0925 24.7343 17.1433 24.9259L23.1947 24.9572C23.5583 24.5294 24.4473 24.3392 24.7543 24.8805L30.3336 24.9357L30.8273 24.9341C30.8761 24.8709 30.8486 24.0126 30.8352 23.9282L17.3535 23.8921ZM17.1403 26.1582L17.0356 29.1521C17.0243 29.3153 16.99 29.4735 16.9795 29.6362L16.4517 36.0936C16.4403 36.2012 16.4052 36.2987 16.3985 36.4079L16.3757 38.1742C16.3756 38.5012 16.3538 38.848 16.3955 39.1713C16.5643 40.481 17.7119 41.6223 19.0456 41.6866L23.3494 41.704L23.3527 35.4959L23.3499 27.4701L23.2553 27.5585C23.1334 27.6662 23.0504 27.8098 22.9655 27.9467L22.543 28.6325C22.027 29.3947 21.3253 30.0975 20.4839 30.4895C18.5166 31.406 17.5033 29.3503 19.0463 27.9516C19.8611 27.213 20.9232 26.6181 21.9665 26.2591C22.0031 26.2465 22.0985 26.2264 22.1218 26.1993L17.1403 26.1582ZM27.6479 26.1582C27.0509 26.1596 26.4054 26.1136 25.8144 26.2027C26.2041 26.4117 26.6498 26.5336 27.0572 26.7083C27.9365 27.0855 29.3339 27.9024 29.6532 28.8706C29.8669 29.5186 29.5707 30.4168 28.8863 30.6554C27.5557 31.1194 25.8069 29.1808 25.1944 28.2186C25.0562 28.0013 24.9144 27.6267 24.6474 27.5339C24.5928 27.9104 24.6254 28.3252 24.6254 28.7056L24.6259 38.6983L24.625 40.6793C24.625 41.0129 24.6007 41.3633 24.6354 41.6944L28.4552 41.6918C30.0464 41.6885 31.2949 40.9123 31.5731 39.2225C31.6154 38.9655 31.6015 38.6854 31.6006 38.4252L30.8354 26.1715C30.5163 26.1471 30.1936 26.1576 29.8737 26.1576L27.8325 26.1583C27.7833 26.1583 27.6934 26.1698 27.6479 26.1582ZM26.5293 27.9076C26.7348 28.1542 28.1521 29.6799 28.3925 29.3318C28.4147 29.2586 28.4363 29.2063 28.4115 29.1299C27.8414 28.6205 27.2321 28.2073 26.5293 27.9076ZM21.4729 27.9246C20.9358 28.1773 19.8717 28.7514 19.576 29.3084L19.6188 29.3787C20.1396 29.5019 21.2066 28.27 21.4729 27.9246Z" fill="black"/>
</svg>
