<svg width="48" height="48" viewBox="0 0 48 48" fill="none" xmlns="http://www.w3.org/2000/svg">
<path d="M31.2047 39.6873L31.2023 39.7163C31.1031 40.648 30.0958 40.4802 29.4307 40.4804L17.8098 40.4799C16.9485 40.4771 16.6592 40.1537 16.9044 39.2332L17.1867 38.2455C15.8024 38.0611 14.2402 37.1228 13.7462 35.7736C13.3277 34.6306 13.5699 33.3198 13.7089 32.1455L13.8097 31.2834C13.6975 31.432 13.5693 31.5687 13.4608 31.7197C12.7599 32.6942 12.666 33.1287 11.291 32.7117C10.2051 32.3823 8.32586 31.3408 7.59508 30.421L7.57534 30.3953C7.25411 29.9818 7.5948 29.4754 7.78 29.0831L10.3712 23.493L14.3612 14.1347C14.9351 12.7591 15.409 11.6491 16.6338 10.7039C17.2424 10.2342 18.3865 9.19906 18.7403 8.49256C18.6565 8.00276 18.9515 7.66254 19.4011 7.52665L22.2489 7.51714C22.5988 7.51798 22.8969 7.56336 23.0702 7.92542L23.0804 7.94731C23.1927 8.17156 23.264 8.41179 23.3443 8.64851L23.6411 9.47023C23.7681 9.84922 23.8855 10.2397 24.0709 10.5956C24.088 10.5632 24.0826 10.5787 24.0906 10.5389L24.7732 8.17686C24.9743 7.42653 25.5524 7.51756 26.1617 7.51676L28.3452 7.51662C28.7123 7.51714 28.9604 7.57447 29.1427 7.94844L29.1567 7.98054C29.2564 8.16851 29.1924 8.32972 29.2505 8.49579C29.3607 8.8107 30.3713 9.89637 30.6107 10.1015C30.9258 10.3712 31.2842 10.5942 31.6056 10.8576C32.8166 11.8504 33.3928 13.4621 33.9507 14.8711L37.6984 23.6367L40.5296 29.7053C40.5992 29.8736 40.5835 30.0636 40.5162 30.2299L40.5045 30.2579C40.4074 30.494 40.2262 30.6204 40.0427 30.7851C39.2293 31.5151 36.8777 33.0952 35.702 32.8637C35.1656 32.7581 34.5009 31.7285 34.1486 31.2166L34.4629 33.8614C34.6771 36.4431 33.0914 37.9632 30.5765 38.163C30.788 38.6646 31.1033 39.1449 31.2047 39.6873ZM20.4485 8.98043C20.51 9.12528 20.5913 9.2645 20.6439 9.41023L22.8329 14.6588L22.9497 14.2675L23.2954 13.0745C23.4065 12.7314 23.118 12.2021 23.0003 11.8767L22.066 9.31775C22.025 9.20093 22.015 9.08347 21.9419 8.98043H20.4485ZM26.0419 8.98278L24.0084 15.6475L22.5791 19.9996L21.1388 24.0692C21.0265 24.3596 20.9571 24.6922 20.6617 24.8528C20.1667 25.1219 19.5899 24.6259 19.6464 24.106C19.669 23.898 19.7655 23.6987 19.8366 23.5038L20.8842 20.6088C21.0153 20.2604 20.5228 19.4464 20.3545 19.0602L17.7489 12.724C17.6462 12.4631 17.5538 12.183 17.4178 11.9381C16.3438 12.9782 16.2422 13.3334 15.6604 14.6884L9.02266 29.7702C9.85145 30.512 10.8874 31.1024 11.9645 31.387L13.6915 28.9106C14.5236 27.3165 14.5485 25.9945 14.754 24.2355C14.8607 23.3228 15.0174 22.41 15.0197 21.4889L15.0153 20.2642C14.991 19.7173 14.677 18.9944 15.4147 18.7587L15.4725 18.741C15.8422 18.6353 16.1763 18.8734 16.3135 19.2071L16.3258 19.2363C16.4381 19.5156 16.4047 19.899 16.4435 20.1973C16.6043 21.4349 16.3484 22.7477 16.2237 23.9766L14.9608 33.8532C14.9308 34.1679 14.8812 34.4593 14.938 34.7749C15.1685 36.0567 16.4754 36.7495 17.6836 36.8533L27.5951 8.9869L26.0419 8.98278ZM19.3573 10.0531L18.5642 11.017L21.4715 17.9952C21.498 18.0756 21.5419 18.1494 21.5756 18.2269L21.6472 18.3736C21.684 18.3215 21.6955 18.2101 21.712 18.1462L22.1599 16.7022L19.6469 10.7261C19.5544 10.5041 19.48 10.2592 19.3573 10.0531ZM28.7033 10.1333L25.7777 19.2657C25.5809 19.7974 25.2591 20.0648 25.4539 20.5665L27.8451 26.2384C27.9512 26.4876 28.0949 26.7394 28.1695 27.0001C28.4011 27.809 27.3448 28.3086 26.9093 27.6016C26.6533 27.1862 26.4841 26.6879 26.2829 26.2418L24.8052 22.8222C24.7345 22.6448 24.6436 22.4652 24.5954 22.2813C24.4495 22.6516 23.9779 23.5686 24.1155 23.8946L28.5334 34.0552C28.8578 34.7728 29.3639 35.9671 29.978 36.4877L30.0007 36.5072C30.2312 36.6987 30.5738 36.6736 30.8515 36.6416L31.2507 36.5771C31.8153 36.4769 32.3965 36.0853 32.7173 35.6127C33.242 34.8396 33.0338 33.9782 32.9296 33.1173L32.5051 30.1358L31.5472 21.9762C31.4944 21.7229 31.5203 21.4225 31.52 21.1641L31.5623 19.9347C31.5817 19.6558 31.573 19.3125 31.7327 19.073C32.07 18.5671 32.8193 18.6174 33.0272 19.2188L33.0415 19.2591C33.1223 19.532 32.9975 19.8553 32.9808 20.1342C32.9037 21.4173 33.0091 22.4447 33.1443 23.7014L33.468 26.4376C33.7552 28.343 34.48 29.259 35.6287 30.7735L36.0696 31.409C36.8094 31.1478 37.5072 30.8489 38.1599 30.4055L38.9976 29.7857C38.6752 29.2295 38.4217 28.6313 38.1527 28.048L37.142 25.8603L32.3971 14.8401C31.4096 12.5132 31.4358 12.7624 29.6205 11.1064C29.2852 10.8005 29.0105 10.4636 28.7033 10.1333ZM23.2678 25.6225L18.4523 38.9933C18.615 39.0456 18.8598 39.0169 19.0322 39.017L24.5743 39.0159L29.3465 39.0057L23.2678 25.6225Z" fill="black"/>
</svg>
