<svg width="48" height="48" viewBox="0 0 48 48" fill="none" xmlns="http://www.w3.org/2000/svg">
<path d="M14.6177 38.6311L15.5606 31.5241C15.97 28.6497 16.3565 25.4923 17.5128 22.7978C17.7117 22.3344 17.9762 21.8714 18.1363 21.3957L18.169 21.3004C18.3241 20.7643 17.9452 19.6909 17.7118 19.23C17.358 18.5315 16.7968 17.9327 16.3489 17.2925C15.4346 15.9857 14.5622 14.6628 13.7822 13.2717C13.6787 13.5038 13.6037 13.7454 13.5089 13.9811L11.3331 19.2442C11.1541 19.6926 10.9486 20.4779 10.3067 20.3567L10.2777 20.3506C10.1484 20.3254 10.0171 20.2403 9.94028 20.1331L9.92092 20.1047C9.64722 19.7079 9.80266 19.3818 9.98186 18.9954L12.8742 11.9523C13.0853 11.4022 12.739 11.4993 12.566 10.8653L12.5563 10.8288C12.331 10.01 13.2706 9.33193 13.7573 8.80604C14.9908 7.47348 16.29 6.21408 17.6459 5.00654C18.1759 4.53454 18.5856 3.95005 19.3891 4.15413C19.7745 4.25202 19.9285 4.75702 20.0633 5.08022L23.779 13.3465C23.8628 13.5339 23.9275 13.7195 24.0277 13.9004C24.1455 13.4993 24.353 13.113 24.5208 12.7301L27.7454 5.54223C27.8951 5.20937 28.104 4.40112 28.4381 4.22356L28.4666 4.20892C28.6542 4.1095 28.8059 4.08121 29.0138 4.06445C29.4845 4.09558 29.6454 4.26438 29.9652 4.58831L34.068 8.61113C35.0872 9.6916 36.0546 10.2141 35.0329 11.6889L38.1896 19.3973C38.5228 20.1862 37.4342 20.8249 36.9518 19.9104C36.7879 19.5997 36.6863 19.253 36.5515 18.9287L34.8327 14.7943C34.6231 14.2986 34.3908 13.8097 34.212 13.3017C33.7578 14.1812 33.2017 15.0142 32.6465 15.832L30.9136 18.2794C30.3558 19.0244 29.5278 20.427 29.835 21.3471C29.9344 21.645 30.0804 21.9034 30.2106 22.187L31.2573 25.0689C31.317 25.2693 31.3481 25.5034 31.4231 25.6938C31.5801 26.0924 31.9169 27.6091 31.9584 27.9608L32.4663 30.6335L33.2111 35.9898C33.2439 36.16 33.2476 36.3303 33.2682 36.5019L33.4825 38.87C33.6179 40.484 33.46 41.3912 31.9916 42.4446C30.2205 43.715 28.2552 43.6691 26.2052 43.6696L21.012 43.6696C18.7382 43.668 15.6585 43.2124 14.6874 40.8545C14.3919 40.137 14.5017 39.3779 14.6177 38.6311ZM29.1255 5.70769L23.4183 18.374L28.3539 18.384C28.5137 18.3785 28.719 18.3996 28.8669 18.3405L28.8999 18.3278C29.2301 18.1961 29.4955 17.866 29.71 17.5951L30.2298 16.9219C31.2231 15.6059 32.1301 14.2095 32.9706 12.7916L34.1366 10.69C33.8906 10.3446 33.5469 10.0438 33.2561 9.73323L29.9858 6.48887C29.8508 6.35944 29.2423 5.73835 29.1454 5.71037L29.1255 5.70769ZM18.8535 5.75457L13.8972 10.6217C14.0099 10.9055 14.1549 11.1673 14.2941 11.4382L15.3253 13.2439L17.2855 16.245C17.7312 16.8733 18.1766 17.501 18.7152 18.0548L18.926 18.2466C19.19 18.4881 19.6359 18.3849 19.9646 18.385L21.9281 18.3914L23.2845 15.5123C23.1366 15.1061 22.9049 14.7079 22.7184 14.3158L18.8954 5.8066C18.8751 5.76062 18.8908 5.7766 18.8535 5.75457ZM19.3755 19.7629C19.4468 20.2707 19.554 20.7776 19.5513 21.2936L28.4887 21.2944L28.4873 21.2233C28.4615 20.7793 28.4776 20.1948 28.6308 19.7664L19.3755 19.7629ZM19.0403 22.6721C18.4833 23.7424 18.0709 25.2063 17.8094 26.3681L17.169 29.7845L15.9112 39.2838C15.8862 39.5382 15.7742 39.8556 15.8441 40.1061C16.3006 41.7411 18.7515 42.1984 20.1737 42.2746L23.5927 42.2807L23.574 38.2155L23.57 24.9401C23.5693 24.2183 23.5983 23.4917 23.502 22.775C22.9776 23.7239 22.3081 25.913 22.2196 26.9621C22.1939 27.2674 22.2431 28.2617 22.1819 28.4673C22.0426 28.9351 21.03 29.3971 20.8788 28.0202C20.738 26.7371 21.0846 25.4297 21.4743 24.2202C21.5135 24.0986 22.0644 22.6899 22.0623 22.6842L19.0403 22.6721ZM26.504 22.6709L26.4223 22.695C26.7373 23.4856 27.2723 24.2386 27.5917 25.1006L27.6674 25.3016C28.0084 26.2805 28.2112 27.0208 28.2176 28.0885C28.22 28.4787 28.1749 28.7552 27.7466 28.892C27.0066 29.1283 26.9423 28.4069 26.9111 27.9376C26.8083 26.3881 26.1164 25.0622 25.4086 23.7194C25.229 23.3788 25.0724 23.0247 24.8458 22.7118C24.8397 23.1535 24.9163 23.5785 24.9176 24.0202L24.9183 39.9519L24.9201 41.541C24.9205 41.7583 24.8842 42.0784 24.9421 42.2832L26.7822 42.2814C28.3993 42.2779 30.3867 42.2062 31.6071 40.9794C31.8746 40.7106 32.2137 40.2916 32.2056 39.8913C32.1761 38.423 31.9703 36.9542 31.8054 35.4968L30.9655 29.86C30.6159 27.8188 30.1531 25.7302 29.4244 23.7886C29.2911 23.4333 29.1617 22.997 28.9584 22.6795L26.504 22.6709Z" fill="black"/>
</svg>
