<svg width="48" height="48" viewBox="0 0 48 48" fill="none" xmlns="http://www.w3.org/2000/svg">
<path d="M34.4114 39.0169C33.9481 40.4649 32.8001 41.8204 31.3566 42.3747C30.7801 42.5961 30.1486 42.6653 29.5398 42.7436L26.1141 43.2781C25.99 43.2975 26.0402 43.5867 26.016 43.6996C25.7343 45.0124 24.229 44.374 23.3909 44.1663L18.7126 43.0507C18.1335 42.9232 17.5437 42.8171 16.9864 42.6098C15.0001 41.8707 13.5699 39.9231 13.3388 37.8363C13.2947 37.439 13.33 37.0306 13.2956 36.6308L12.5889 37.1123C11.3579 37.9052 9.90132 38.0761 8.47655 37.8858L7.53451 37.7308C5.86923 37.3729 3.05355 36.2821 2.07619 34.7916C1.08147 33.2746 1.53157 32.3408 2.11615 30.9123L8.08496 16.5473L12.2668 6.93554C12.3052 6.85027 12.3937 6.72376 12.3959 6.6309C12.4472 4.44805 14.0204 4.26724 15.7768 3.8221C16.3246 3.68324 16.882 3.46998 17.444 3.4082C18.1293 3.44405 18.4017 3.98983 18.6998 4.5183L22.0803 10.0576L23.0836 11.9404C23.2473 12.2645 23.3927 12.6088 23.5801 12.9182L25.0048 11.1098C26.0603 9.71682 27.0729 8.27124 27.9753 6.77396L29.019 5.00912C30.0408 3.20032 29.918 3.2875 31.733 3.72866L33.2008 4.07364C34.6077 4.41246 35.7679 5.17126 35.5936 6.76327C35.5831 6.85913 35.9366 7.41783 36.01 7.55565C36.3348 8.16582 36.5787 8.82727 36.8647 9.45746L39.2004 14.8772L45.8558 30.8491C46.0583 31.3525 46.3536 31.8815 46.453 32.4153C46.6315 33.3735 46.175 34.4194 45.6278 35.1755C44.8255 36.2841 42.2373 37.3278 40.9134 37.6946C40.4124 37.8334 39.9054 37.9088 39.3946 37.9966L39.0562 38.0388C38.629 38.0528 38.153 38.0797 37.7299 38.0337C36.8 37.9326 35.4055 37.3961 34.723 36.7454L34.7088 36.7314C34.5687 37.5418 34.7582 38.0366 34.4114 39.0169ZM17.0356 5.21527L15.3151 5.66288C15.0246 5.73296 14.703 5.77065 14.4261 5.87822L14.3879 5.8929C14.304 5.92637 14.2681 5.94737 14.2229 6.02387L14.2049 6.05274C13.976 6.43247 14.3447 6.7193 14.5826 6.98447L15.0166 7.4844C15.6516 8.21644 16.2233 9.02565 16.7633 9.82998L17.9729 11.7915L19.3329 14.466C19.8858 15.5633 20.4819 17.1551 20.8359 18.3168L21.3853 20.2197C21.4145 20.3592 21.4486 20.501 21.4808 20.6405L21.6521 21.5113L21.6812 21.6219C21.9458 21.6765 22.2903 21.6374 22.5634 21.6371L24.3779 21.6331C23.6541 16.3587 21.1945 11.7898 18.4043 7.35971L17.2095 5.41651C17.1714 5.35013 17.1366 5.26557 17.0799 5.21344L17.0356 5.21527ZM30.9281 5.21991C29.9444 7.20657 28.3256 9.63057 26.9931 11.3506L24.3754 14.4466C24.2719 14.5714 24.2128 14.5852 24.2696 14.7469L24.9872 16.7114L25.4406 18.2712C25.5128 18.4903 25.5529 18.7201 25.6082 18.9429L25.957 20.6386C26.0341 21.0038 26.0299 21.3948 26.1774 21.7405L26.3795 20.7855C26.6965 19.5197 27.106 18.2918 27.6168 17.0906L28.0212 16.2135C29.4088 13.1123 31.1601 10.1934 33.1973 7.47535C34.0746 6.30479 34.5069 6.12085 32.6649 5.65866L30.9281 5.21991ZM13.4993 8.3559C13.2337 8.89196 13.0232 9.4629 12.7868 10.0133L8.41501 20.1935L3.72654 31.4406C3.47527 32.0361 3.07432 32.6801 3.26783 33.3453C3.56678 34.373 4.50171 34.7963 5.39091 35.225C6.68143 35.8471 8.69757 36.5328 10.167 36.2509L10.8682 36.0809C11.6368 35.8595 13.255 34.7711 13.3342 34.0434L13.5508 32.8727C13.962 31.0937 14.6839 29.3459 15.5503 27.7406C15.8166 27.2473 16.1507 26.7872 16.4054 26.2901C15.5899 25.2329 15.3517 23.9179 16.1242 22.7628C16.1812 22.6775 16.2982 22.5741 16.3242 22.4785C15.8339 21.7764 15.3304 21.0866 14.9423 20.3188C14.6923 19.8241 14.0763 18.3581 14.1939 17.794C14.3533 17.0296 15.3514 16.8474 15.7403 17.5173L15.7795 17.5976C15.9187 17.913 15.9546 18.2631 16.0703 18.5834L16.1604 18.8459C16.5265 19.7339 17.0087 20.5012 17.5803 21.2698C17.964 21.7857 17.8307 21.6441 18.5016 21.6389L19.8341 21.6344C19.3522 17.8925 16.7124 12.6806 14.5508 9.7186L13.9247 8.86819C13.8034 8.70605 13.6988 8.54382 13.5528 8.40277L13.4993 8.3559ZM34.5669 8.49427L33.8544 9.52444C31.727 12.5315 28.4347 17.8876 27.8851 21.6305L30.1382 21.6345C30.767 20.8353 31.4777 19.7288 31.8401 18.8051C32.0506 18.2687 32.0601 17.4136 32.6722 17.1528L32.7117 17.1357C33.1577 16.95 33.667 17.2661 33.7989 17.7075C34.0328 18.4906 32.8585 20.701 32.4711 21.3355L31.6712 22.4976C31.8892 22.7915 32.0666 23.0761 32.1809 23.4262L32.2876 23.7924C32.5044 24.5095 32.2361 25.5203 31.7896 26.0824C31.7252 26.1635 31.6393 26.2409 31.5894 26.3313C32.1629 27.2595 32.6964 28.2081 33.1567 29.1982L34.2306 32.1066C34.2639 32.2303 34.2934 32.4023 34.3464 32.5139L34.674 34.1275C34.8339 35.0169 36.4821 35.9349 37.2933 36.1566C39.1421 36.6617 41.3897 35.8383 43.0126 34.9933C43.8364 34.5643 44.6021 34.0952 44.7207 33.0942L44.7264 33.0482C44.7478 32.8656 44.7179 32.7233 44.6554 32.5529L34.5669 8.49427ZM20.2203 23.4068L18.5716 23.4077C18.0242 23.409 17.4914 23.3781 17.334 24.1054C17.226 24.6047 17.5411 25.2681 18.0825 25.3589C18.3646 25.4062 18.7052 25.3721 18.9937 25.3721L27.8323 25.3695L29.199 25.3683C29.8021 25.3672 30.4405 25.4239 30.6424 24.6458L30.6658 24.5166C30.7348 24.1017 30.5191 23.5097 30.0554 23.4206C29.7784 23.3674 29.4367 23.4043 29.1517 23.4044L20.2203 23.4068ZM17.9825 27.1072C16.6448 29.2244 15.5718 31.4446 15.1094 33.9418C14.8726 35.2202 14.6667 37.3345 15.1414 38.5786L15.4288 39.2423C16.1773 40.8533 17.9026 41.1457 19.4093 41.477L24.3419 42.6384C24.4206 42.6598 24.5093 42.6957 24.5903 42.6969L24.9411 37.7097L25.1668 34.184C25.2291 33.6838 25.2208 33.19 25.2512 32.6881L25.3145 32.0154L25.4213 28.6768L25.5096 27.5119C25.517 27.3862 25.5428 27.245 25.5295 27.1203L21.7996 27.1129C21.5784 27.3285 20.8052 30.6439 20.7335 31.0624L20.5399 32.4727C20.381 33.6987 18.7104 33.8386 18.829 32.1963C18.9099 31.0762 19.1679 29.9424 19.4634 28.8605C19.6197 28.2885 19.8455 27.7135 19.9311 27.1259C19.7377 27.0859 19.4856 27.1147 19.2864 27.1144L17.9825 27.1072ZM29.9609 27.1059L27.3039 27.1151C27.2631 27.3035 27.2749 27.51 27.2705 27.7022L26.8531 35.1407L26.4823 40.6762C26.463 40.9486 26.4253 41.2131 26.4189 41.4877L29.1276 41.0735C30.961 40.8373 32.2524 40.3107 32.8346 38.2902C32.9298 37.9599 33.006 37.6279 33.0134 37.2843L33.0166 36.4508C33.0162 35.9831 33.038 35.4999 33.0047 35.0342C32.8187 32.4422 31.6282 29.7638 30.2912 27.5739C30.2019 27.4276 30.1192 27.2227 29.9912 27.1105L29.9609 27.1059Z" fill="black"/>
</svg>
