<svg width="48" height="48" viewBox="0 0 48 48" fill="none" xmlns="http://www.w3.org/2000/svg">
<path d="M18.1936 37.7306C16.0734 38.371 15.0184 38.3151 12.8588 37.9613L10.3135 37.5249C8.36377 37.1048 4.22532 35.7985 3.86206 33.3961L3.83418 33.2124C3.77938 32.7483 3.86674 32.264 3.93122 31.8052L4.2145 30.1411C4.81533 27.2585 5.76328 24.4098 7.06805 21.7679L8.96639 18.2213C9.78567 16.6697 10.5349 15.0641 11.1485 13.4198C11.4653 12.5709 11.1028 11.5109 11.4043 10.576C11.6928 9.68138 11.9391 9.85983 12.6916 9.9278L22.1611 10.692L24.0939 10.7532C24.2707 10.77 24.4395 10.807 24.6184 10.8128L29.6138 10.8283C30.7261 10.8258 31.8015 10.7728 32.8674 10.4169C33.6223 10.1649 34.2085 9.87019 35.0153 9.78329C35.4416 9.6953 36.1127 9.86958 36.3745 10.2235L36.3969 10.2544C36.7038 10.6636 36.7239 11.1422 36.7241 11.6296L36.7244 12.6969C36.7245 12.8582 36.6996 13.0616 36.7588 13.2121C37.3495 14.7134 37.9886 16.19 38.7183 17.6305L41.3747 22.7472L42.9228 26.8042C43.0736 27.4495 43.3065 28.1377 43.4619 28.7938L44.0663 32.0161C44.3213 33.6648 43.9732 34.6258 42.5119 35.5949C39.7923 37.3985 35.5391 38.4422 32.2367 38.2223C30.5823 38.1121 29.0119 37.6049 27.5312 36.8763C25.9013 36.0743 24.441 34.7923 24.8795 32.7395L24.8882 32.6998C24.531 32.361 24.2657 31.9789 23.997 31.5694C23.7899 31.9197 23.5883 32.2238 23.3106 32.5202C23.145 32.697 23.2026 32.7446 23.205 32.9913C23.2286 35.3694 21.9384 36.2186 19.8774 37.0987C19.3245 37.3348 18.7751 37.5706 18.1936 37.7306ZM35.0324 11.1398C34.5014 11.229 34.013 11.4689 33.505 11.6358C33.0034 11.8006 32.4871 11.939 31.9669 12.031L31.3818 12.1083C30.8768 12.1835 30.4138 12.1849 29.9012 12.1869L24.7985 12.1805L22.4383 12.0687C22.2588 12.0607 22.0822 12.0284 21.9034 12.017L15.7629 11.5873C14.7233 11.4835 13.6788 11.3532 12.6338 11.3153L12.6224 13.6939C12.8473 13.7786 13.0851 13.8164 13.3178 13.875L16.8127 14.5219C18.5392 14.7662 20.5588 14.955 22.3114 15.0138L29.3624 15.0364C30.2839 15.037 31.2054 15.0209 32.0969 14.7547L32.8838 14.5488C33.7536 14.2968 34.6617 13.9574 35.3876 13.4009C35.3374 12.866 35.3558 12.3031 35.3686 11.7661C35.3767 11.4253 35.5102 11.0934 35.0324 11.1398ZM35.9088 14.6984C34.1771 15.6996 32.0227 16.3929 30.0005 16.4026L24.6749 16.4052C24.6488 16.6275 24.6596 16.8567 24.6597 17.0804L24.6619 19.2284C24.6615 19.5257 24.6535 19.8222 24.6898 20.1179C25.1768 19.6081 27.0761 18.164 27.792 18.8285C28.078 19.094 28.071 19.4994 27.8088 19.7802C27.6368 19.9642 27.2388 20.0247 27.0008 20.1127C25.6173 20.6243 24.713 22.0243 24.7056 23.4736L24.7068 28.7217C24.7082 29.2238 24.6912 29.6473 24.8302 30.1318C25.0798 31.0013 25.739 31.858 26.5411 32.2658L27.5613 32.7031C28.4305 33.0043 29.2956 33.3471 30.1935 33.5546C34.3298 34.5104 39.3264 33.1704 42.4356 30.2723C41.9924 27.8026 40.9557 24.9501 39.8731 22.7024L37.1235 17.4384L36.3589 15.7691C36.2147 15.417 36.0955 15.0289 35.9088 14.6984ZM11.9498 14.9184C11.2681 16.7747 10.317 18.5282 9.37997 20.2668L8.77448 21.3578C7.87711 23.0868 7.08399 24.8874 6.48652 26.7432L6.22716 27.6684C5.99644 28.4325 5.75391 29.2052 5.58638 29.986C7.39233 31.9259 8.89631 32.5473 11.4173 33.1448C12.0128 33.286 12.6048 33.4531 13.2072 33.5621L13.7546 33.6527C14.4247 33.7297 15.18 33.8344 15.8499 33.7057L16.8528 33.5478C18.0558 33.314 19.2809 33.0042 20.4433 32.6139C22.038 32.1049 23.2137 31.1455 23.2808 29.314L23.2868 24.1641C23.2867 23.7691 23.3084 23.3578 23.2554 22.9658C23.0798 21.6662 22.0618 20.5791 20.8707 20.1114C20.6841 20.0381 20.4342 19.9954 20.2826 19.8627C19.7823 19.4247 20.2389 18.623 20.9326 18.742C21.826 18.8951 22.658 19.5282 23.3015 20.1321C23.3161 19.931 23.2981 19.7407 23.2965 19.5401L23.2956 16.9225C23.2956 16.7714 23.3259 16.5316 23.2833 16.3936C22.6719 16.3958 22.2181 16.3327 21.6444 16.3074L19.8283 16.2172C17.639 16.0607 15.4587 15.7561 13.3218 15.2523L12.5019 15.0557C12.3193 15.0142 12.1252 14.9841 11.9498 14.9184ZM5.27011 31.5994C5.18995 32.02 5.08598 32.6746 5.14402 33.0845L5.14899 33.1224C5.39611 34.924 9.98484 36.1345 11.4025 36.3751L14.2736 36.8428C16.2539 37.1163 18.2081 36.4219 19.9689 35.5799C20.4282 35.3603 20.8807 35.1563 21.2536 34.7998C21.6425 34.3851 21.762 34.0077 21.8661 33.4743C21.4 33.7215 20.8935 33.882 20.3908 34.0359L17.1916 34.8552C14.9739 35.3176 13.5892 35.05 11.3705 34.5244L9.4455 34.0274C7.57852 33.4555 6.72281 32.7588 5.27011 31.5994ZM42.7125 31.8422C41.568 32.791 40.2895 33.5004 38.9064 34.0363L37.842 34.4331C34.4188 35.5205 31.586 35.4733 28.1894 34.3451C27.582 34.1434 26.9503 33.9515 26.3941 33.6275C25.8409 33.3052 26.4987 34.4924 26.6118 34.631L26.7965 34.8295C27.9101 35.8926 30.5096 36.6704 31.9572 36.8494C34.768 37.197 38.9997 36.2323 41.4252 34.6951C42.7769 33.8385 43.0653 33.3549 42.7125 31.8422Z" fill="black"/>
</svg>
