<svg width="48" height="48" viewBox="0 0 48 48" fill="none" xmlns="http://www.w3.org/2000/svg">
<path d="M12.2986 36.8752C10.9949 36.3215 9.69304 35.6462 8.46117 34.9473L6.9359 34.0496C6.23508 33.6534 5.45151 33.3289 4.81368 32.8346C3.68404 31.9592 3.18605 30.4837 3.37054 29.0884C3.47014 28.3351 3.80736 27.6021 4.07419 26.8951L7.67465 16.9546L8.20683 14.7926C8.29945 14.3656 8.24376 13.8543 8.247 13.4158C8.25178 12.7713 8.39967 11.3205 8.69732 10.7484C9.17151 9.83701 10.0212 9.57901 10.9761 9.57854C12.1554 9.57793 13.3244 9.72723 14.4963 9.84165L19.676 10.2228L21.9141 10.3069L25.5272 10.3043C25.7277 10.2981 25.9238 10.2573 26.1213 10.2492L27.6785 10.2367C28.2327 10.2269 28.7851 10.158 29.3523 10.1289L36.0771 9.5859C36.4056 9.56471 36.7434 9.57873 37.0729 9.5792C39.2944 9.52913 39.5141 11.0406 39.5698 12.9256C39.6153 14.4691 40.0302 15.9888 40.4982 17.449L44.0076 27.1223C44.275 27.786 44.5153 28.3981 44.6284 29.1098L44.6412 29.1929C44.6932 29.5172 44.707 29.9251 44.648 30.2477L44.5169 30.8945C44.1452 32.3791 43.0691 32.9972 41.8471 33.6284L40.8049 34.2132C39.8068 34.8025 38.7429 35.2969 37.6936 35.787L34.673 37.0875C32.6926 37.8405 30.7608 38.4376 28.6095 38.4351L27.9217 38.4277C27.2819 38.4137 26.6786 38.2616 26.0989 37.9966C25.2465 38.3555 24.5559 38.4514 23.6124 38.2961C22.9749 38.1911 21.0688 38.2091 20.4495 38.308C19.7828 38.4145 17.9776 38.3803 17.2793 38.3199C15.5509 38.1704 13.8887 37.5302 12.2986 36.8752ZM10.4054 10.9328C10.0201 11.0269 9.83034 11.3102 9.8032 11.7012L9.67865 12.7616C9.63834 12.9932 9.606 13.2849 9.63393 13.5179L38.0846 13.3363L38.2784 13.3234L38.2284 12.4861C38.196 11.1942 38.1888 10.9086 36.7151 10.9455L31.4065 11.3729C30.8617 11.4425 30.132 11.4656 29.5526 11.5021L28.6409 11.5316C28.3547 11.5458 28.0746 11.6061 27.7857 11.6181L26.1273 11.6312C25.9286 11.6351 25.7346 11.6741 25.5346 11.677L20.1344 11.6174C19.8284 11.6056 19.5255 11.5423 19.219 11.5278L16.9048 11.4052L12.1772 10.9669L11.0247 10.9434C10.8218 10.9424 10.6056 10.9148 10.4054 10.9328ZM34.9161 14.7116L9.54586 14.9034C9.36979 15.4062 9.33703 16.2009 9.13472 16.8277L13.0201 16.8289C13.1606 16.8294 13.3278 16.845 13.4653 16.8256C13.8935 16.914 14.3621 16.8714 14.7977 16.9003C15.0229 16.9152 15.2453 16.9579 15.469 16.9694L20.1725 17.0325L22.8454 16.9825C23.1047 16.9814 23.3653 16.9902 23.6226 16.9532C24.4936 16.8277 25.7634 16.846 26.7071 16.8307L38.9324 16.8278C38.8403 16.5813 38.7876 16.3248 38.7237 16.0701L38.4897 15.0874C38.4659 14.9639 38.4575 14.8381 38.431 14.7151L34.9161 14.7116ZM8.70581 18.1841C8.62861 18.2916 8.59303 18.4338 8.54606 18.5642L5.52642 26.8357C5.09972 28.0322 4.39307 29.2566 4.77492 30.5605C5.05017 31.5003 6.01453 32.0664 6.81745 32.5014L6.84829 31.5417C6.85518 31.0272 6.92564 30.5319 7.02295 30.027L7.40625 28.3658C7.62426 27.5463 7.90743 26.7444 8.18381 25.9434L10.2071 20.4994C10.4968 19.7465 10.8166 19.0077 10.8965 18.1955L8.70581 18.1841ZM12.2674 18.1869C12.066 19.4908 11.6624 20.5229 11.1665 21.7355L10.0071 24.8435C9.95029 25.019 9.82893 25.2642 9.82983 25.4432C11.4948 25.5704 13.0986 25.9405 14.6774 26.4764C17.7594 27.5226 19.3274 28.9186 20.6426 32.0234C21.2688 33.5018 21.4576 35.2948 21.4461 36.891L24.4242 36.9565C24.8785 36.963 25.265 36.7716 25.7034 36.6937C25.7805 34.414 27.2391 31.1839 28.574 29.4525C28.9806 28.9485 29.4011 28.4621 29.887 28.0319C31.3018 26.7795 33.7027 25.9034 35.6014 25.7039L38.3172 25.5213L36.8508 21.8318C36.4456 20.8284 35.9766 19.7325 35.8283 18.6498C35.8175 18.5713 35.7931 18.1963 35.7508 18.1869L12.2674 18.1869ZM37.1601 18.1914C37.1238 18.5349 37.2625 18.9814 37.3608 19.3006L37.8884 20.8539L39.2264 24.0994C39.5398 24.8356 39.7949 25.5977 40.0492 26.3552L40.7917 28.9158C40.7992 28.9508 40.8097 28.9791 40.8212 29.0124L41.1854 30.7318C41.3001 31.2876 41.2493 31.8372 41.3187 32.3892C41.7633 32.1639 42.1932 31.925 42.5555 31.5769C43.9291 30.1729 43.2155 28.945 42.6868 27.3951L39.586 18.8496C39.5114 18.6357 39.4191 18.4279 39.3598 18.2088L37.1601 18.1914ZM9.3487 26.7412C9.08775 27.409 8.86214 28.1203 8.6909 28.8162L8.4397 29.7537C8.21981 30.6594 8.15493 31.6209 8.15592 32.5491L8.157 33.0307C8.15812 33.4037 8.27118 33.3388 8.58623 33.5086L9.82954 34.1626C12.8106 35.7787 15.4753 37.0131 18.9341 37.0056L20.089 36.9549C20.0867 34.1029 19.5684 31.6426 17.4369 29.5179C16.0075 28.0931 13.2255 27.2968 11.262 26.9796L10.1085 26.8168C9.8565 26.7888 9.59817 26.7839 9.3487 26.7412ZM37.6583 26.8904C37.1344 26.8974 36.6336 26.9467 36.1151 27.0135L34.8542 27.2111C31.2831 27.9205 29.3606 29.8859 27.9702 33.2326C27.576 34.1815 27.3515 34.9902 27.1468 35.9944L27.0379 36.6104C26.9658 37.0434 27.1596 36.9394 27.5139 37.014C27.7315 37.0598 27.9714 37.0541 28.1933 37.0584L29.314 37.0519C31.5376 36.9066 33.6311 36.0957 35.655 35.2207L39.5206 33.3895C40.0056 33.1269 39.9419 33.0866 39.9681 32.549C40.0296 31.2913 39.7259 29.9957 39.3847 28.7888L38.9128 27.1946C38.8889 27.1157 38.8674 26.9884 38.8261 26.9196L37.6583 26.8904Z" fill="black"/>
</svg>
