<svg width="48" height="48" viewBox="0 0 48 48" fill="none" xmlns="http://www.w3.org/2000/svg">
<path d="M12.3883 28.6261C11.6046 28.1783 10.7537 27.7659 9.88648 27.512C8.80165 27.1943 8.1439 27.3305 7.57371 26.0858L7.53031 25.9926C7.48943 25.8822 7.48025 25.741 7.47607 25.624L7.48681 16.8114C7.49637 16.3288 7.5665 16.0406 7.61023 15.5824L8.21961 10.8749C8.24895 10.7169 8.25687 10.5491 8.32128 10.3996C8.49842 9.9885 9.08586 9.86512 9.41145 10.1727C9.60021 10.351 9.68979 10.6132 9.81865 10.8344C11.1316 13.089 14.8664 14.7051 17.328 15.3363C18.1357 15.5434 18.9622 15.6624 19.7864 15.7762L21.1376 15.9354L24.6186 16.0062C24.776 16.0009 24.931 15.9728 25.0882 15.9658L27.7694 15.7472L28.6209 15.5948C29.7158 15.4109 30.7752 15.1511 31.835 14.8201L34.853 13.6556C36.0443 13.1244 37.8701 12.2189 38.2403 10.8253C38.3599 10.3753 38.3679 10.1296 38.8906 9.98629C39.2456 9.96229 39.5528 10.1648 39.6463 10.5139L39.8517 11.4265C40.0129 11.928 40.2006 13.2159 40.2587 13.7492L40.4211 15.4452C40.5102 16.2352 40.517 16.7564 40.5183 17.5604L40.5187 25.6339C40.4616 27.1297 39.1643 27.2307 38.0926 27.5714C34.7242 28.6422 30.3957 31.8037 29.2506 35.3202C29.1616 35.5936 29.1167 35.8686 28.9828 36.127C27.9357 38.1488 23.749 37.9712 21.8714 37.67C20.01 37.3713 19.2578 36.9921 18.7272 35.2382C17.9589 32.698 14.778 29.9139 12.3883 28.6261ZM9.35614 12.6913L9.05707 15.5103C9.50942 15.7666 10.0282 15.9253 10.4999 16.1481L14.2311 17.9847C15.2597 18.5125 15.9185 18.8696 16.8509 19.5231C20.5008 22.0814 26.222 22.0984 30.1559 20.1241C30.7223 19.8398 31.2516 19.4868 31.7881 19.1511L33.8736 17.9081C34.6931 17.4545 35.5314 17.0876 36.3994 16.7411L38.0096 16.1357L38.7264 15.8999C38.8314 15.8659 38.9526 15.8419 39.0492 15.7889L39.0441 15.7624C38.9951 15.4915 39.003 15.2075 38.9793 14.9329L38.8359 13.8515C38.7881 13.5116 38.7508 13.1742 38.6582 12.8423L38.6438 12.8608C37.3342 14.4967 34.1016 15.6401 32.1912 16.221L31.2504 16.5122C28.7179 17.1772 26.1879 17.443 23.5775 17.4387L21.9021 17.4235L20.2661 17.268C16.8531 16.8989 13.2001 15.9005 10.5124 13.6918L9.6822 12.9793C9.62079 12.922 9.42795 12.7016 9.35614 12.6913ZM8.912 17.019L8.88303 21.3965C8.88186 21.4636 8.86671 21.6067 8.89864 21.662C9.70578 21.6722 10.5357 21.7191 11.3284 21.8859C15.4242 22.7478 19.699 25.7593 21.4139 29.677L21.6932 30.3368C21.8234 30.6724 21.9373 31.0123 22.0321 31.3593L22.4431 33.3615C22.586 34.1244 22.6032 35.5229 22.5319 36.3433C23.2879 36.4379 24.7058 36.4335 25.4798 36.3634L25.5004 34.7876C25.502 34.4841 25.4918 34.1738 25.52 33.8716C25.9265 29.5043 28.5084 26.075 32.2051 23.8597C34.2911 22.6593 36.6849 21.7482 39.1189 21.7257L39.1084 17.3264C37.5942 17.7239 35.481 18.6455 34.1544 19.4219L31.6504 20.9637C27.2253 23.4507 21.2441 23.7688 16.7864 21.1731L14.731 19.847L8.912 17.019ZM8.8902 23.087L8.89264 24.7806C8.89226 25.0414 8.79546 25.4727 8.96961 25.6888L8.98948 25.7137C9.22053 25.9963 9.59811 25.9451 9.92131 26.0337C13.2486 26.9458 17.0339 29.8882 18.9649 32.6389C19.431 33.3029 19.8506 33.9869 20.0815 34.7694C20.2625 35.383 20.3604 35.8845 21.108 36.0229C21.1167 35.365 21.1625 34.6719 21.1037 34.0174C20.5844 28.2418 14.9085 23.1082 9.1175 23.0865L8.8902 23.087ZM38.8658 23.1903C35.8723 23.3867 32.9569 24.7916 30.738 26.7519C27.856 29.2979 26.807 32.1384 26.9068 36.0216L27.1754 35.9346C27.4097 35.814 27.6537 35.6825 27.7393 35.4169L27.9146 34.8326C29.267 30.9126 33.876 27.4011 37.6499 26.2045L38.3524 25.9976C39.2348 25.7689 39.1157 25.8462 39.1166 24.9947L39.1172 23.1969L38.8658 23.1903Z" fill="black"/>
<path d="M22.3302 20.2226C21.3352 20.1043 21.317 18.9141 22.1713 18.785C22.3152 18.7632 22.4743 18.7894 22.6183 18.8041L24.0643 18.8907C24.5259 18.8954 24.9756 18.885 25.4355 18.8438L26.3474 18.7379C26.5935 18.7074 26.8733 18.8767 26.9971 19.0798L27.0147 19.1097C27.2189 19.4522 27.1155 19.8843 26.7569 20.0756L26.7305 20.0891C26.171 20.3807 24.3141 20.3705 23.7064 20.339L22.3302 20.2226Z" fill="black"/>
</svg>
