<svg width="48" height="48" viewBox="0 0 48 48" fill="none" xmlns="http://www.w3.org/2000/svg">
<path d="M26.3938 35.4661C26.3279 35.1944 26.2998 34.9047 26.2505 34.6286L25.2373 30.0583L24.5971 28.0579L21.0616 40.5852C20.828 41.3275 19.4363 44.1991 18.683 44.562C18.2623 44.7646 15.8494 44.5268 15.3851 44.4508L14.5423 44.2921C13.9452 44.1694 13.39 44.2182 12.7854 44.1862C10.71 44.0763 8.62958 43.5693 6.90833 42.3682C6.68005 42.2089 6.40616 42.0461 6.28785 41.784L6.27276 41.7495C6.1483 41.4754 6.2354 41.2293 6.27848 40.9451L6.45257 39.7029C6.48252 39.4582 6.43274 39.1261 6.59057 38.9181C6.74544 38.714 6.65652 36.6112 6.68005 36.2224L7.06016 32.0201L7.43179 29.3201C8.01993 25.6952 8.9886 22.1452 10.2572 18.6996L11.7189 15.086C12.0691 14.3181 11.9954 14.1372 11.9979 13.2822L12.0051 11.4296C12.0081 11.2226 12.0486 11.0334 12.0659 10.8295L12.1573 9.60555C12.2084 8.88203 11.9775 8.60097 12.5324 8.05553C12.6412 7.94866 12.6428 7.96071 12.6585 7.80832L12.7706 6.61689C12.7935 6.44782 12.8321 6.28272 12.8489 6.11243L12.9543 4.78099C13.0122 4.31103 13.309 4.11878 13.7638 4.08904L33.8128 4.09325C34.2519 4.08684 34.6503 4.02253 34.9317 4.4368L34.9552 4.47188C35.0975 4.68146 35.0744 5.83361 35.1142 6.2815L35.2413 7.7508C35.27 8.08816 35.7552 8.12168 35.8432 8.50324L35.8485 8.52921C35.887 8.70429 35.8723 8.90829 35.8761 9.08805L35.9077 9.99457C35.9148 10.1176 35.9403 10.235 35.9481 10.3563L36.2675 15.7259C36.2742 15.8232 36.2951 15.8956 36.3483 15.9775L37.7612 19.0661C37.8997 19.4867 38.1036 19.8865 38.2306 20.3101L38.9156 22.3507C38.9913 22.5678 39.0294 22.8044 39.1079 23.019L39.3901 23.983C39.4191 24.0604 39.444 24.1442 39.4576 24.2258L39.6709 25.0886C39.9582 26.0189 40.109 27.0101 40.3127 27.9607L40.6406 29.7536C40.9236 31.3939 41.0753 33.0737 41.2062 34.7323L41.2592 35.9634L41.6314 39.9255C41.7929 41.1378 41.9641 41.4634 40.7071 41.9194L37.4064 43.0334C34.7637 43.8198 32.5841 44.2113 29.8571 44.2043L28.8238 44.1917C28.6491 44.1857 28.454 44.1904 28.2846 44.1452L28.254 44.1367C28.175 44.1153 28.1042 44.0954 28.0333 44.0531L27.9545 44.0058C27.5661 43.7539 27.5433 43.275 27.4783 42.8619L26.6666 37.3661C26.5777 36.7341 26.5173 36.0925 26.3938 35.4661ZM16.0018 5.56666C15.9202 5.8173 15.867 6.0813 15.8007 6.33719L15.5615 7.20536C15.5072 7.42089 15.4729 7.68316 15.3919 7.88608L31.6701 7.89185C31.8243 7.89011 31.9856 7.89743 32.138 7.87371L31.5497 5.57318L16.0018 5.56666ZM32.9811 5.57805C32.9897 5.68047 33.0025 5.75289 33.036 5.83778L33.2099 6.43741C33.3163 6.73572 33.4154 7.07505 33.4767 7.38766C33.5182 7.59991 33.5249 7.94871 33.8012 7.91383L33.8256 7.88646L33.6489 5.59127L32.9811 5.57805ZM14.2158 5.60064C14.1607 6.15461 14.0832 6.74468 14.104 7.30052C14.14 7.23147 14.1538 7.15408 14.172 7.07889L14.3781 6.21241C14.4241 6.0086 14.4587 5.79921 14.5272 5.60135L14.2158 5.60064ZM14.9298 9.35777C14.4758 11.3845 13.9936 13.4572 13.1369 15.3538L12.084 17.775L11.1569 20.2615C10.7645 21.3148 10.4473 22.4111 10.1438 23.4933L9.1214 27.6794L8.73018 29.9022L8.11241 35.7219C8.10215 35.8661 8.06094 35.9989 8.0534 36.1468L8.04144 38.6085C8.1314 38.7254 8.23752 38.7548 8.3624 38.824L8.75498 39.0431C10.8495 40.1255 13.2043 40.743 15.5564 40.8999C16.6343 40.9718 18.401 40.989 19.4745 40.8739C19.5763 40.4939 19.7243 40.1188 19.8557 39.748L21.6129 33.7396L23.7959 25.6874C24.05 24.8943 24.8449 24.99 25.1719 25.6638L25.7074 26.9862C25.8407 27.2916 25.9724 27.6625 26.0533 27.9849L26.6584 30.0605C26.7018 30.1891 26.7128 30.3233 26.7572 30.4505L27.6108 34.324L28.548 40.7224C28.5723 40.8668 28.5568 41.0965 28.6212 41.2211C29.1753 41.2179 29.7596 41.203 30.3062 41.114C31.4122 40.9608 32.5416 40.7618 33.6212 40.4723L35.0638 40.038C36.7611 39.5083 38.4872 38.84 40.0274 37.9367L39.5692 31.9594L38.6482 26.7169C37.945 23.5064 36.8204 19.7759 35.229 16.8566L34.664 15.9116C33.6695 14.1905 33.2277 12.7158 32.8384 10.7735L32.6196 9.76385C32.5876 9.62636 32.5805 9.48813 32.5333 9.35397L26.8821 9.36588C26.8371 10.1005 26.8717 10.858 26.8716 11.5952L26.8709 17.1572C26.8696 18.63 26.3751 20.026 24.8322 20.5328L24.795 20.5453C24.1837 20.7476 23.5892 20.0752 23.9415 19.5013C24.0996 19.2439 24.4243 19.1882 24.6713 19.0456C25.7317 18.4334 25.4946 17.0123 25.4945 15.9907L25.4927 10.4954C25.4925 10.1497 25.5692 9.68589 25.4637 9.35664L14.9298 9.35777ZM34.2372 9.35997L34.015 9.38252C33.9602 9.4991 34.0278 9.60996 34.0568 9.72878L34.4834 11.8323C34.5563 12.135 34.6573 12.4394 34.7113 12.7445L34.7485 12.8606C34.7659 12.7358 34.7293 12.6153 34.712 12.4919L34.5331 10.3474C34.5121 10.0252 34.4998 9.70689 34.458 9.38608L34.2372 9.35997ZM40.1128 39.4802C37.4364 40.9172 34.4706 41.8458 31.4889 42.3923L29.2041 42.7215C29.3254 42.7455 29.4375 42.7545 29.5606 42.7575C32.9887 42.8413 35.7339 42.2057 38.9872 41.0445L40.32 40.559L40.1128 39.4802ZM7.79591 40.1823L7.66748 41.1455C8.10791 41.7476 10.4495 42.4661 11.1762 42.5792L11.9164 42.6937C12.0709 42.7182 12.2182 42.754 12.3756 42.7594L13.5764 42.7654C13.8201 42.766 14.0721 42.7503 14.3109 42.8032L15.9486 43.081C16.2959 43.1532 16.6605 43.138 17.012 43.1916C17.4604 43.2599 18.0439 43.3388 18.307 42.9312C18.4183 42.7465 18.5148 42.5377 18.6537 42.3734L16.0429 42.3584C13.5697 42.2348 10.9145 41.6016 8.67154 40.5714C8.38274 40.4388 8.09582 40.2872 7.79591 40.1823Z" fill="black"/>
</svg>
