<svg width="48" height="48" viewBox="0 0 48 48" fill="none" xmlns="http://www.w3.org/2000/svg">
<path d="M15.9265 36.648C14.375 36.6453 13.1931 36.2881 11.6954 35.9228L5.62083 34.3779C4.53324 34.1111 4.31919 34.0418 4.56488 32.7775L4.87472 31.1252C5.35275 28.626 5.7405 26.0629 6.55312 23.6452C6.92559 22.537 7.48008 21.495 7.84097 20.3803C8.48723 18.384 8.70197 16.0045 8.42611 13.907L8.24353 12.7943C8.07919 11.8263 8.1675 11.2099 9.31861 11.2939L20.0785 11.886L21.5289 12.0058L25.9647 12.0103C26.5977 11.9979 27.3259 11.9394 27.9769 11.911L29.7673 11.8097L35.3673 11.4385L38.62 11.1683C39.049 11.1061 39.4139 11.1757 39.655 11.5792L39.71 11.6721C39.8206 11.8782 39.7377 12.2509 39.6753 12.4644C39.1722 14.1881 39.2133 16.0168 39.4637 17.7781L39.6097 18.5392C39.6551 18.7519 39.6836 18.976 39.7507 19.1838L39.9193 19.7346C39.9751 19.9547 40.062 20.1848 40.1406 20.3993L41.6413 24.1635C41.6829 24.2557 41.7004 24.3579 41.7344 24.4532L42.0784 25.6351L43.5481 33.3793C43.6627 33.9276 43.3214 34.1062 42.8574 34.2314L34.0966 36.4947L33.0343 36.6841C31.9268 36.9002 29.188 36.6427 28.4959 35.8549C28.1599 35.4725 28.1141 34.9111 28.0045 34.4337L27.7115 33.3097C27.2493 31.8413 26.4792 30.0195 24.807 29.6527C22.9738 29.2505 21.588 30.1297 20.8284 31.7761L20.03 33.6502C19.8548 34.0872 19.713 34.5493 19.5915 35.0041C19.4605 35.4945 19.3861 36.0105 18.8653 36.2298C17.8834 36.6434 16.9641 36.6473 15.9265 36.648ZM37.693 12.67L31.1011 13.1939L27.1337 13.4162C26.8468 13.4374 26.5648 13.4709 26.2761 13.4752L21.5977 13.4708L19.6173 13.3858L11.1593 12.8409L9.68845 12.7953L9.89892 14.0161C9.9157 14.1458 9.86939 14.3677 9.97364 14.457L10.0431 14.4626L10.7345 14.4811C10.8877 14.4885 11.0417 14.52 11.1963 14.5288L16.8256 14.8168L18.9845 14.911C19.622 14.9374 20.2448 15.0017 20.8823 15.0028L24.7189 14.9992C24.9588 14.9927 25.1907 14.9415 25.4302 14.9367L30.129 14.8181L35.6485 14.4782C36.4009 14.4322 37.1515 14.4006 37.9081 14.3492C37.981 13.7856 38.0292 13.2015 38.1889 12.6536L37.693 12.67ZM37.3267 15.8539L30.1721 16.2832C29.6644 16.3077 29.1652 16.3611 28.6596 16.389L24.9467 16.4046C24.4919 16.4066 24.1016 16.4813 23.6851 16.4938L20.0046 16.4953C19.7932 16.4906 19.6041 16.4461 19.3983 16.4257L14.836 16.191L9.9847 15.9162C9.98334 17.4558 9.77437 18.9687 9.3479 20.4494C8.9453 21.8471 8.2042 23.1195 7.78387 24.5041C7.26173 26.2238 6.96633 27.9969 6.59372 29.7524L14.338 31.745C15.6917 32.0476 17.0705 32.0529 18.4472 32.0143L18.9551 31.9933C19.0227 31.9888 19.1046 31.9945 19.164 31.9628C19.6762 30.5392 20.6546 29.1026 22.0665 28.4547C23.0825 27.9884 24.5975 27.9646 25.643 28.3677C26.9715 28.8799 27.8521 29.9214 28.4217 31.1839C28.5387 31.4431 28.6294 31.7316 28.7772 31.9725C29.4934 32.0359 30.2625 32.1206 30.9801 32.0211L31.5428 31.971C32.2708 31.8925 33.0226 31.8135 33.7384 31.6578L41.3516 29.751C41.244 29.2354 41.2185 28.71 41.1355 28.1903C40.8553 26.4335 40.4076 24.6949 39.6915 23.063L39.0883 21.7209C38.488 20.2352 38.0618 18.5863 37.9017 16.9959C37.8632 16.6139 37.8806 16.2274 37.8558 15.8445L37.3267 15.8539ZM41.5826 31.1838L35.4377 32.7742C33.1331 33.3407 31.6167 33.4982 29.2925 33.4954L29.4452 34.2771C29.4883 34.4927 29.5703 34.7702 29.6693 34.9616L29.9665 35.0543L30.539 35.1609C31.6204 35.3216 32.74 35.2834 33.8087 35.0442L41.4259 33.118C41.603 33.0699 41.8536 33.0431 42.0087 32.9484L41.6969 31.1838H41.5826ZM6.34476 31.1808C6.31294 31.3094 6.28256 31.4327 6.27173 31.5651L6.03698 32.9613L12.4688 34.6187C14.2708 35.0938 15.6156 35.3707 17.5312 35.1076C17.6948 35.0851 17.8833 35.08 18.0352 35.0146C18.1183 34.8198 18.4873 33.6766 18.4837 33.4943C15.5137 33.4993 13.8847 33.1947 11.0081 32.4457L6.34476 31.1808Z" fill="black"/>
<path d="M24.7276 22.3067L24.7094 23.4779C24.687 23.8986 24.6062 24.2049 24.7646 24.6131C24.9395 25.0639 25.1294 25.6009 25.5301 25.9098C26.1831 26.4132 26.1355 24.3479 26.2189 24.0001C26.3646 23.3922 27.1649 23.1506 27.4717 23.742L27.4897 23.7774C27.6484 24.0831 27.6253 24.4681 27.6255 24.8037C27.6263 25.7656 27.1751 27.0702 26.1921 27.3943L26.1567 27.4056C24.6147 27.9175 23.4577 25.8319 23.2649 24.5399C23.2202 24.2404 23.2319 23.9381 23.238 23.6368L23.3552 21.6369L23.3929 19.2181C22.4945 19.1482 21.4333 19.1802 20.4916 19.1558L17.0339 19.0394C16.1639 18.9855 15.2733 18.9379 14.4026 18.9113L13.4805 18.8485C13.0697 18.825 12.6103 18.8817 12.3793 18.4571C12.1292 17.9972 12.3614 17.3929 12.9031 17.3553C13.4391 17.3628 13.8688 17.4219 14.3738 17.4439C15.3273 17.4854 16.2844 17.5232 17.238 17.5534L20.5574 17.7361L28.8995 17.7332C29.2049 17.7244 29.5069 17.6623 29.8123 17.6501L31.0262 17.6184C31.9304 17.5669 32.8407 17.4842 33.7523 17.4389C34.2548 17.4139 34.7809 17.3148 35.2849 17.372C35.8223 17.4331 36.0009 18.557 35.2146 18.7963C35.0722 18.8397 34.9016 18.8361 34.7532 18.8491L29.7771 19.1944C29.0913 19.2311 28.3925 19.1727 27.7102 19.2603C27.3334 19.3087 26.9454 19.2902 26.5659 19.2906L24.8309 19.2948C24.799 19.4092 24.8161 19.5552 24.8151 19.6755L24.7276 22.3067Z" fill="black"/>
</svg>
