<svg width="48" height="48" viewBox="0 0 48 48" fill="none" xmlns="http://www.w3.org/2000/svg">
<path d="M31.1776 36.2198C30.4924 36.102 29.8483 35.9318 29.19 35.7068C27.8009 35.2318 27.9098 34.9166 27.5387 33.5688C27.4142 33.1166 27.2371 32.6731 27.0638 32.2376L26.556 31.1166C25.8894 29.7138 25.1187 28.476 23.9883 27.4075C23.8171 27.5343 23.6722 27.721 23.525 27.8754C22.1589 29.3076 21.1313 31.427 20.5572 33.305L20.3335 34.1217C20.2543 34.4485 20.1885 34.7719 19.9934 35.0541C19.2054 36.1939 14.4625 36.5652 13.2126 36.5651C11.369 36.565 9.55394 36.3479 7.80902 35.7286C6.98805 35.4373 6.09874 35.1592 5.91785 34.1697C5.83507 33.7169 5.95511 33.2522 5.8908 32.7988L5.80164 31.9546C5.66613 30.8917 5.64321 30.3049 5.64307 29.2215L5.64916 27.1526C5.68474 26.3664 5.80188 25.5609 5.93257 24.7854L6.50393 21.9953C6.63002 21.4842 6.80646 20.9907 6.90944 20.4729C7.19491 19.0374 7.33441 17.5746 7.5281 16.1249L7.71311 14.7308C7.76791 14.3711 7.78422 14.3982 7.70008 14.0523C7.37468 12.7148 8.17258 11.5077 9.55183 11.4014C9.91169 11.4101 10.2708 11.524 10.619 11.6081L14.3905 12.2753L19.013 12.7437L20.1687 12.7927C20.4113 12.8056 20.6524 12.8484 20.8944 12.8576L27.275 12.8571L28.9018 12.7507L35.3538 11.9998L37.3305 11.6177C37.8893 11.5005 38.4737 11.2795 39.0359 11.492L39.3633 11.6365C40.2843 12.1438 40.5836 13.192 40.2659 14.1565C40.2455 14.2185 40.1943 14.3018 40.2025 14.365L40.9127 19.3872C40.9961 19.8656 41.0448 20.3488 41.164 20.8222C41.2446 21.1423 41.3561 21.4701 41.422 21.7914L42.0519 24.8615L42.2954 26.9417C42.3124 27.1084 42.337 27.272 42.3444 27.4398L42.3479 29.254C42.3454 30.3205 42.3183 30.9281 42.1764 31.9847L42.0885 32.8538C42.0358 33.3134 42.1966 33.7992 42.0605 34.2514L42.0484 34.2894C41.5693 35.8298 38.1888 36.3485 36.851 36.4798L34.9177 36.5654C34.4778 36.5656 34.0351 36.5738 33.5961 36.543L31.1776 36.2198ZM9.47224 12.9407C9.06944 13.1755 8.95685 13.6409 9.43905 13.8288C9.72743 13.9411 10.0492 14.0021 10.3475 14.0864C11.2897 14.3527 12.2576 14.6506 13.2228 14.8176L18.1757 15.5607L22.3099 15.8523L25.6145 15.8526L29.856 15.5528L31.6083 15.3094C33.8245 15.0031 36.0489 14.6011 38.1981 13.9688C38.3862 13.9152 38.7527 13.8513 38.854 13.6631C39.029 13.3382 38.8467 13.074 38.5401 12.9339C38.436 12.8863 38.0803 13.0059 37.9686 13.0319L36.4064 13.3572L30.8866 14.1235L28.6028 14.3157L26.346 14.4085L21.3866 14.4068C21.1391 14.3988 20.8969 14.3492 20.6499 14.3389L19.4178 14.3193C19.2556 14.3147 19.1042 14.2732 18.9444 14.2623L17.9298 14.2169L11.9941 13.45L10.0898 13.0331C9.89725 12.9877 9.6708 12.908 9.47224 12.9407ZM9.17843 15.3218L8.32568 21.0005C8.6478 20.7989 8.91086 20.5638 9.17978 20.298C10.4974 18.9303 10.7165 17.5466 10.7089 15.7816L9.17843 15.3218ZM38.7633 15.387L37.767 15.6652C37.6077 15.7093 37.4403 15.7245 37.2879 15.7905L37.2869 16.6705C37.2895 18.0586 37.9797 19.2525 38.853 20.2922C39.115 20.5548 39.3693 20.7983 39.6837 20.9996L38.8475 15.3764L38.7633 15.387ZM12.2627 16.1777L12.1509 17.3758C11.8782 19.4423 10.6863 21.4217 8.88457 22.505C8.5758 22.6907 8.20929 22.9068 7.85144 22.971C7.75699 23.0534 7.74879 23.3948 7.72193 23.526L7.34754 25.5195C7.28833 25.8459 7.22313 26.2007 7.20077 26.5315L7.12 27.4925L7.1223 30.1312C7.15024 30.6341 7.22322 31.55 7.34674 31.9758C7.43205 32.2697 7.36704 33.8446 7.40454 33.8993C7.47199 33.9976 7.65518 34.0313 7.75657 34.072L8.4491 34.3333C11.0335 35.2214 14.1711 35.2313 16.807 34.6708L16.1705 33.1464C14.5362 28.0188 16.1127 24.7018 20.5439 21.6257C21.2263 21.1521 21.949 20.6896 22.746 20.4376C22.8805 20.395 23.1592 20.3776 23.2516 20.2953L23.2508 17.3665L19.3526 17.2275L13.7856 16.5007L12.2627 16.1777ZM35.6351 16.1794L33.5737 16.5771C31.8958 16.8689 30.1893 17.0994 28.4913 17.2323L27.6955 17.2794C27.4276 17.3002 27.166 17.3346 26.8965 17.3379L25.549 17.3462C25.2823 17.3481 25.0079 17.3414 24.7428 17.3699C24.697 18.065 24.728 18.7775 24.7282 19.4744L24.7284 20.0124C24.7283 20.5007 24.9479 20.2686 25.4932 20.4064C29.2532 21.3571 31.545 23.812 32.2973 27.5745C32.6758 29.4674 32.3578 31.3855 31.8355 33.2147C31.6448 33.6836 31.4957 34.2028 31.2389 34.6412C31.745 34.7969 32.2763 34.854 32.8007 34.9095L34.1838 35.036C34.8109 35.0656 35.7943 35.0747 36.4271 34.9785L36.5325 34.9704C37.6636 34.9115 39.7315 34.4749 40.6057 33.8391L40.6109 32.8141C40.6055 32.2804 40.6773 31.8129 40.7522 31.284C40.9528 29.8644 40.9463 28.4591 40.8129 27.0378L40.1673 22.9875C37.5523 21.8971 35.8907 19.4596 35.7819 16.6151C35.7757 16.4526 35.8565 16.1364 35.6351 16.1794ZM24.766 21.8393C24.7059 22.3567 24.731 22.8901 24.7305 23.4096L24.7328 26.0272C24.7339 26.157 24.942 26.2241 25.0256 26.3024C26.2957 27.4917 27.2405 28.9382 27.9574 30.5174L28.6138 32.0238C28.9321 32.6946 29.0189 33.4009 29.2312 34.0955L29.7438 34.2616L30.1026 33.4927C32.1237 28.5879 30.5173 22.9213 24.766 21.8393ZM23.1975 21.9026C22.3125 22.204 21.5592 22.7557 20.8232 23.3174C17.9828 25.4853 16.5347 27.4331 17.2238 31.1459C17.3069 31.5933 17.3879 32.0394 17.531 32.4729L17.9063 33.4473L18.3165 34.2799C18.8338 34.1255 18.7753 33.9826 18.9264 33.5123L19.4034 32.0603C20.0872 30.173 21.1079 28.1717 22.5225 26.7175C22.8533 26.3776 23.2514 26.2095 23.2519 25.8188L23.1975 21.9026Z" fill="black"/>
</svg>
