<svg width="48" height="48" viewBox="0 0 48 48" fill="none" xmlns="http://www.w3.org/2000/svg">
<path d="M10.5188 40.6848C4.95102 38.8712 1.69154 32.8595 2.16326 27.1875L2.56292 23.6567C2.81395 21.9985 3.33628 20.2732 4.02922 18.7379C4.90593 16.7954 5.88866 15.5231 6.36262 13.3727L6.51238 12.5597C6.73794 11.5758 6.77038 11.1335 6.77015 10.1409L6.77108 7.62672C6.77244 6.68692 7.25376 6.57779 8.12109 6.73665L14.151 7.54562C14.2958 7.55959 14.4336 7.59493 14.5825 7.60281L34.5937 7.61453C35.1831 7.60895 35.7749 7.54604 36.362 7.4889C37.4097 7.38695 38.418 7.21215 39.4205 6.88979C39.7015 6.79937 39.9649 6.69147 40.2569 6.63892C40.3494 6.63301 40.4326 6.63128 40.5241 6.64834L40.5586 6.65495C40.8027 6.69732 41.0061 6.83022 41.1243 7.05648L41.1412 7.08957C41.249 7.29212 41.2184 7.48515 41.219 7.70884L41.2221 11.9867C41.2228 12.2137 41.2911 12.3534 41.3312 12.566L41.4207 12.9021C41.4684 13.1645 41.5515 13.4676 41.639 13.7169L42.1714 15.1406C42.3166 15.5705 42.5408 16.0296 42.7496 16.4294L43.9819 18.8087C44.1137 19.0543 44.2285 19.3564 44.3211 19.6203L45.0152 21.805C45.3158 22.6833 45.4486 24.1349 45.5736 25.0583L45.7504 26.3669C45.9178 27.405 45.8995 28.9114 45.7524 29.9763C45.3351 32.9972 44.1185 35.7966 41.8682 37.9131C38.3181 41.2519 32.6249 41.9543 28.294 39.7762C27.6268 39.4407 26.2471 38.6571 25.8228 38.0741L25.8098 38.0556C24.7312 37.9128 23.6166 38.0251 22.5301 37.9783C22.3153 38.1366 22.1272 38.3536 21.9295 38.5366C21.2712 39.1456 20.5974 39.6901 19.8063 40.1192C16.971 41.6569 13.5397 41.5858 10.5188 40.6848ZM8.23199 8.26609L8.22496 11.3339C8.21873 11.5562 8.15601 11.7689 8.15118 11.9882L10.2298 12.361L14.1401 12.8517L16.9805 13.0393L29.5491 13.0357C29.7733 13.0314 29.9942 12.9655 30.2236 12.9611L32.3861 12.9482L36.7193 12.6482L38.707 12.3487C38.9971 12.295 39.2893 12.2146 39.5803 12.1704C39.673 12.1494 39.7356 12.1409 39.7715 12.0905L39.7479 8.33523C39.1223 8.56811 38.06 8.76709 37.3947 8.86693L35.5124 9.07412C35.0839 9.10351 34.6474 9.09062 34.2179 9.09081L14.5057 9.08092C14.2935 9.06967 14.0822 9.03001 13.8705 9.0084L8.23199 8.26609ZM7.86365 13.4043C7.45026 15.6306 6.30566 17.305 5.36399 19.3141C4.71505 20.6987 4.24745 22.2582 3.98836 23.7626L3.87313 24.5325C3.76914 25.2224 3.69621 25.1552 4.31249 25.052L6.64757 24.7978C8.37998 24.7026 10.1941 24.9239 11.8685 25.3585L12.661 25.6032C13.7867 25.9536 14.9006 26.3873 15.9711 26.8816L17.3997 27.6126C18.0848 27.941 18.8002 28.127 19.418 28.5942C20.7172 29.5769 21.6573 31.0672 22.2662 32.5661L22.9078 34.7632C22.9476 34.9128 22.9531 35.0671 22.9788 35.2188L23.1023 36.0232C23.1216 36.1732 23.1047 36.376 23.1634 36.5132L24.8757 36.5305C24.8421 35.7744 24.8789 35.0353 25.0901 34.3028C25.8591 31.6369 27.6217 29.3023 29.9417 27.7862L31.533 26.8595C34.5331 25.3139 38.7935 24.4427 42.0834 24.9316L44.1246 25.2744L43.9671 23.89C43.7243 22.2881 43.2699 20.7131 42.5869 19.2419L40.9335 15.9239L40.1595 13.8467C40.1309 13.7532 40.1046 13.5979 40.0483 13.5199C38.4547 13.9746 36.8143 14.1417 35.168 14.2622L34.6267 14.3236L31.777 14.4292C31.3665 14.4416 30.9609 14.5155 30.5523 14.525L17.0388 14.5211L15.0428 14.4039C13.1281 14.2712 11.191 14.0361 9.30473 13.6803L8.33202 13.4989C8.1823 13.4698 8.00652 13.4564 7.86365 13.4043ZM39.5564 26.2912C38.1992 26.3424 36.9114 26.5696 35.5947 26.9154C31.104 28.0945 27.4796 30.6416 26.3494 35.2998C26.3122 35.4531 26.2638 36.6555 26.3337 36.8281C26.7041 36.9452 26.9789 37.2138 27.2887 37.437L28.1213 37.9929C28.8737 38.4568 29.6812 38.8434 30.5309 39.0933L31.5391 39.3469C37.5636 40.5104 43.0227 36.7928 44.163 30.8413C44.4126 29.5387 44.4534 28.1914 44.4343 26.8682C44.3134 26.8131 44.1921 26.8021 44.0646 26.7717L43.415 26.6298C42.5513 26.4735 41.6854 26.3321 40.807 26.2924L39.5564 26.2912ZM6.87369 26.3005L3.74192 26.6392C3.36435 27.7761 3.70349 30.7602 4.07903 31.781L4.36241 32.6716C5.25913 34.9963 6.77887 37.0272 8.91768 38.3449C11.309 39.8182 15.2212 40.3469 17.9101 39.3418L17.9708 39.3187C19.5078 38.8107 20.5929 37.783 21.7086 36.6791C21.4156 34.0819 20.6597 31.4453 18.5273 29.729L18.3429 29.6049C18.1093 29.4598 17.8126 29.39 17.5568 29.29L14.8657 27.9931C12.5179 26.9529 9.4716 26.1031 6.87369 26.3005Z" fill="black"/>
<path d="M24.18 22.9554C23.4771 22.9808 22.7455 22.741 22.2068 22.2839C20.4531 20.7956 21.4368 17.7945 23.7732 17.6348C27.3297 17.3525 27.7344 22.7129 24.18 22.9554ZM23.919 19.0863C23.75 19.1111 23.6125 19.136 23.4567 19.2111L23.4247 19.2262C22.9547 19.452 22.6098 20.1438 22.809 20.6467L22.8438 20.7295C23.0259 21.1713 23.5589 21.5603 24.0525 21.5029C25.7036 21.3735 25.488 18.9339 23.919 19.0863Z" fill="black"/>
</svg>
