<svg width="48" height="48" viewBox="0 0 48 48" fill="none" xmlns="http://www.w3.org/2000/svg">
<path d="M32.0012 32.0187C30.9562 33.0288 29.4107 34.7526 28.857 36.092C28.5773 36.7687 28.5913 37.4886 28.1327 38.0954C27.4159 39.0439 26.4633 39.3569 25.345 39.3557L22.9751 39.3553C20.9193 39.3522 20.3654 38.5193 19.52 36.7677C17.9421 33.4983 15.3271 30.9567 12.2614 29.0453C11.3864 28.4999 10.441 28.0661 9.52873 27.5883C9.2907 27.4636 8.77048 27.0291 8.61064 26.9808C8.23198 26.8665 7.77786 26.8354 7.38453 26.7905L5.57103 26.6178C4.40034 26.5592 4.1459 26.7206 4.13972 25.1954C4.12936 22.6375 5.24005 19.826 6.83225 17.8564C6.67522 17.211 6.64925 16.6974 6.53347 16.1084L6.51795 16.0305C6.26665 14.4495 6.9267 13.009 8.60187 12.7821L38.172 12.7673C38.9139 12.7673 39.5717 12.6913 40.2512 13.0554C41.4043 13.6732 41.42 15.0459 41.417 16.1848C41.4157 16.6817 41.4201 17.2303 41.332 17.7195C41.3186 17.7936 41.3522 17.7982 41.4017 17.8566L41.6401 18.1522C43.0299 19.9844 43.9574 23.1251 43.9669 25.4749C43.9685 25.8705 44.0407 26.1411 43.6981 26.4128L43.6642 26.4391C43.3026 26.7232 42.6598 26.5929 42.2268 26.6311C41.4708 26.6979 40.7209 26.8538 39.9705 26.9651L39.3896 27.0437C39.3017 27.0577 39.1879 27.0699 39.1099 27.1124L36.0242 28.887C34.5596 29.7832 33.2347 30.8271 32.0012 32.0187ZM8.6839 14.1829C7.78278 14.3335 7.87119 15.2408 7.93095 15.959C7.95533 16.2522 8.0059 17.0051 8.13083 17.2601C8.23742 17.3022 8.46026 17.2745 8.57951 17.2745L39.3032 17.2735L40.0132 17.272C40.0976 16.5868 40.1299 14.7881 39.6778 14.3467L39.6538 14.3225C39.3938 14.0661 38.2913 14.1815 37.9366 14.1814L8.6839 14.1829ZM7.99686 18.6587C6.74126 20.2873 5.75905 22.3832 5.59897 24.449C5.57942 24.7013 5.53212 24.9712 5.5549 25.2232L13.6282 26.0402C17.5652 20.385 29.417 19.747 33.8411 25.1099L34.319 25.7125C34.6918 26.2222 34.5596 26.0965 35.4162 26.0338L42.564 25.1587C42.4682 23.1719 41.7857 21.0108 40.7204 19.3188L40.4608 18.9228C40.3988 18.8247 40.346 18.6623 40.2117 18.6601L7.99686 18.6587ZM23.5319 22.8768C20.216 23.0428 17.6906 23.9025 15.3251 26.1917L16.2586 26.58C18.9376 27.7732 21.6303 30.1828 22.517 33.0706L22.72 33.7854C23.0187 34.787 22.8698 35.9338 22.6576 36.9416L22.4632 37.705C22.3862 37.9795 23.5894 37.9238 23.762 37.9241L24.838 37.9239L25.8654 37.9121C25.106 36.6776 25.1224 35.304 25.31 33.9318C25.782 30.4785 28.4975 28.1554 31.4495 26.7169L32.4178 26.2946C32.5504 26.2417 32.7334 26.2076 32.8491 26.1321C31.2356 24.2934 28.4565 23.1363 26.0157 22.9651L23.5319 22.8768ZM33.5238 27.424C33.1131 27.539 32.7209 27.7343 32.3309 27.9055C29.7763 29.0268 27.7049 30.7037 26.829 33.4824C26.5092 34.4967 26.4762 36.2397 27.0721 37.1379C27.2312 36.6657 27.2954 36.1656 27.4829 35.7018C28.779 32.6102 32.8656 29.0469 35.6445 27.4701C35.3116 27.4852 34.0571 27.5883 33.8198 27.5328C33.7186 27.5092 33.6275 27.4252 33.5238 27.424ZM12.4103 27.448L12.7853 27.723C12.9788 27.8585 13.2038 27.9747 13.4064 28.1001L14.6987 28.9657C17.0997 30.7484 19.3512 33.177 20.6725 35.8831C20.835 36.216 20.9242 36.6478 21.1791 36.921L21.2611 36.6714C21.6727 34.8619 21.3807 33.4569 20.3998 31.8925C19.0562 29.7494 16.9988 28.1801 14.5638 27.4763L14.5352 27.4889C14.3405 27.5722 12.7109 27.4956 12.4103 27.448Z" fill="black"/>
</svg>
