<svg width="48" height="48" viewBox="0 0 48 48" fill="none" xmlns="http://www.w3.org/2000/svg">
<path d="M29.8178 36.9709C28.5917 36.5706 27.4055 36.01 26.8346 34.7816C26.6828 34.455 26.7478 34.1307 26.7294 33.7789C26.7095 33.3969 26.5774 32.974 26.4704 32.6065C26.0179 31.0533 25.2645 29.2266 24.0305 28.1276C22.6864 29.0333 21.345 32.3312 21.2657 33.8541C21.2535 34.0888 21.2877 34.351 21.2305 34.5795L21.1983 34.6889C20.5141 36.6696 17.0542 37.1996 15.3024 37.3238C12.3059 37.536 7.28525 36.962 5.89255 34.0195C5.65447 33.5166 5.48553 32.6686 5.6788 32.1346L5.67453 32.0022C5.58884 31.5865 5.64228 31.0829 5.64256 30.6566C5.64449 27.6022 6.4182 24.9399 7.59922 22.1217C8.5295 19.9018 9.39495 18.4053 9.55625 15.9534L9.66838 13.3848C9.68033 13.0928 9.74084 12.8057 9.75003 12.5158C9.77506 11.7228 9.44905 10.7284 10.3631 10.5273L13.7072 10.6485C14.3527 10.6761 14.9962 10.6637 15.6403 10.7296C16.2747 10.7944 16.9051 10.9645 17.5383 11.0533L21.2053 11.4057C22.0585 11.4677 22.9263 11.4397 23.7819 11.4403L26.8596 11.4056L30.5712 11.0549C31.2444 10.963 31.9138 10.8048 32.5891 10.7342L36.9538 10.5376C37.6067 10.5356 38.3427 10.4962 38.3443 11.3341L38.3472 15.0421C38.3544 15.2081 38.3923 15.3706 38.4053 15.5366L38.4379 16.0785C38.5489 17.2032 38.7988 18.352 39.2054 19.407L40.4127 22.1468C40.5318 22.4273 40.6595 22.7033 40.7563 22.9925L40.782 23.0746C41.1209 23.9157 41.4027 24.7867 41.657 25.6565L41.954 26.8011C42.3244 28.2831 42.4057 30.1036 42.3604 31.6136C42.348 32.0265 42.4177 32.4517 42.364 32.8621C42.119 34.7362 41.0271 35.6228 39.3281 36.376C37.5806 37.1507 35.6748 37.4817 33.7699 37.4821C33.4076 37.4821 33.0185 37.5085 32.6595 37.4552L31.3198 37.3053L29.8178 36.9709ZM36.6268 11.9882L34.5351 12.0676C33.8217 12.1004 33.1151 12.1065 32.4042 12.1962L30.3031 12.5306L27.8421 12.757C27.5856 12.7768 27.3313 12.8341 27.0752 12.8418L21.9299 12.8487C21.6371 12.8469 21.3381 12.8559 21.0462 12.8334L17.2713 12.4395C16.5773 12.3432 15.8952 12.1882 15.1973 12.1162C14.5358 12.0479 11.4285 11.8929 11.1275 12.0136C11.1162 12.1749 11.091 13.1717 11.1358 13.3011L11.4345 13.3198C12.2286 13.3335 13.0126 13.4219 13.8033 13.4903L16.4951 13.7176C16.6345 13.7305 16.7711 13.7645 16.9101 13.7802L21.0655 14.0891C21.3288 14.1017 21.5883 14.1546 21.8513 14.1646L25.4964 14.1606L27.886 14.0532L36.0144 13.2533C36.3254 13.2176 36.6406 13.2115 36.9484 13.1508L36.9565 11.9978L36.6268 11.9882ZM36.5765 14.6629L27.3477 15.5058C26.9024 15.5741 26.4412 15.5366 25.9921 15.5544L22.8764 15.6053L19.2445 15.436L11.0144 14.7164C10.9339 16.7428 10.8084 18.2647 9.98413 20.1992L8.96511 22.4905L8.26517 24.3428C7.93944 25.2481 7.63756 26.1702 7.41791 27.1073C7.21283 27.9821 6.86417 30.7701 7.07581 31.6695C7.31384 31.6799 7.6123 31.5742 7.84972 31.5316L10.4948 31.1599C10.8928 31.1194 11.3698 31.0459 11.758 31.042L14.1024 31.0498C15.3695 31.1147 16.7086 31.3264 17.9004 31.7529C18.6445 32.0281 19.3248 32.4392 19.9844 32.8747C20.0407 32.756 20.054 32.6068 20.0892 32.4792L20.3773 31.522C20.8378 30.1778 22.1177 27.3457 23.5912 26.7827L23.6833 26.7519C25.1725 26.2839 26.828 29.4379 27.2161 30.4808L27.8833 32.4358C27.9442 32.6044 27.9738 32.7873 28.0286 32.9602C29.4369 31.9784 30.7712 31.5204 32.4609 31.3084L33.5455 31.1639C34.6369 31.0711 35.7718 31.0704 36.8647 31.1491L37.4413 31.215C37.8778 31.2516 38.321 31.2837 38.7529 31.3605L40.5638 31.6694C40.6849 31.6933 40.8656 31.6998 40.9704 31.7602L40.9699 30.4105C40.9687 29.8538 40.9257 29.3117 40.862 28.759L40.6739 27.5277C40.3604 25.8951 39.7926 24.3149 39.1626 22.7807C38.3249 20.7406 37.4647 19.2176 37.153 16.9783L37.0496 16.2066C37.0172 15.8882 37.0003 14.8598 36.9407 14.6462L36.5765 14.6629ZM12.4218 32.4905C11.2074 32.5016 9.97775 32.6404 8.77728 32.8258L7.06644 33.1374C7.90203 35.4695 12.2386 36.0197 14.291 35.9308C15.8328 35.9227 18.4882 35.6497 19.6909 34.5229C18.9327 33.5348 16.6585 32.7957 15.4971 32.6388L12.4218 32.4905ZM34.4227 32.5824C32.3586 32.6366 29.8691 33.0044 28.3773 34.5759L28.3346 34.622C29.1771 35.5419 31.3496 35.959 32.6305 36.0173L34.8457 36.0198C36.4207 35.9315 39.9507 35.1486 40.7344 33.5394L40.8789 33.1983C40.1464 33.0047 39.3755 32.8846 38.6249 32.7874L37.5117 32.6708C37.2943 32.6469 37.0817 32.6117 36.8625 32.5989L35.3413 32.5779C35.0457 32.5783 34.7148 32.5489 34.4227 32.5824Z" fill="black"/>
</svg>
