<svg width="48" height="48" viewBox="0 0 48 48" fill="none" xmlns="http://www.w3.org/2000/svg">
<path d="M36.0324 34.2242L33.1726 36.7692C32.7513 37.1022 32.2067 37.2789 31.7076 37.4643C30.6094 37.8721 29.3447 37.9577 28.4529 37.1002C28.1563 36.8149 28.0697 36.7845 27.7146 36.584C27.0898 36.2314 26.9301 36.0308 26.4212 35.5851C25.1856 34.5026 22.7784 34.5756 21.5469 35.5792C21.171 35.8856 20.8664 36.2493 20.5193 36.5849C18.8879 38.1623 16.4868 37.7245 14.8238 36.4474C14.5264 36.219 14.2621 35.9414 13.9751 35.6996L12.3551 34.3539C10.5776 32.8792 8.56093 30.7167 7.20338 28.9044L6.88459 28.5038C5.62562 26.7933 4.49296 24.6802 4.27932 22.525C4.25335 22.2629 4.27834 21.9888 4.27987 21.7249L4.28384 18.207C4.28467 17.1911 4.19821 16.1912 5.62117 16.0877L42.4302 16.0869C42.9566 16.0967 43.4408 16.4608 43.6075 16.9661L43.6187 17.0035C43.7549 17.3858 43.6897 17.8265 43.6899 18.2252L43.6906 21.9317C43.6886 25.3887 41.7617 28.0061 39.6105 30.5621C38.5065 31.8738 37.3458 33.1171 36.0324 34.2242ZM5.64924 17.4487C5.6252 17.7213 5.60663 18.5982 5.65402 18.8403L42.3914 18.8114L42.393 17.4571L5.64924 17.4487ZM7.12229 20.1369L5.64934 20.1496C5.62754 20.3892 5.60279 21.0668 5.66856 21.2989L40.8631 21.2976L42.3932 21.3011L42.393 20.1362L7.12229 20.1369ZM5.64709 22.6397L6.05007 24.2339L6.48038 25.276C7.09374 26.6403 8.23309 28.0982 9.18268 29.2282L11.2809 31.494C12.5963 32.8082 13.9862 34.0587 15.4792 35.1699C15.0057 31.4124 13.3966 28.8022 11.0645 25.8489L8.51635 22.6409L5.92431 22.6327C5.83899 22.6316 5.72818 22.6171 5.64709 22.6397ZM12.6996 22.639C13.3828 23.1622 14.1017 23.6653 14.7268 24.2595C16.4412 25.8891 18.4012 29.0945 19.1509 31.238C19.473 32.159 19.7497 33.1945 19.8344 34.1697L19.8722 34.8406C19.8955 35.4544 19.9265 35.2728 20.3289 34.8476C21.3346 33.785 23.4166 33.2128 24.8552 33.5286L24.9283 33.5443C25.3772 33.6379 25.7999 33.7397 26.223 33.9264C26.598 34.0918 27.7223 34.7357 27.9488 35.0784L27.9606 35.0967C27.962 34.5951 27.9894 34.0765 28.0864 33.5824C28.3068 32.4601 28.6547 31.3625 29.1806 30.3439C29.7069 29.281 30.2726 28.2545 30.9514 27.2795L31.8919 26.0557C32.6897 25.0547 33.5072 24.2205 34.524 23.4418L35.4256 22.8117C35.503 22.7601 35.5645 22.6967 35.6471 22.6514L12.6996 22.639ZM40.5589 22.6423C39.9479 22.6884 39.9738 22.8641 39.547 23.3017L36.9146 26.0621L36.3484 26.7415C34.7129 28.6699 33.4829 30.816 32.8474 33.2872C32.6858 33.9159 32.4279 34.7429 32.6378 35.3845C32.6847 35.3807 33.4759 34.6192 33.5657 34.5353L35.6388 32.7686C36.3713 32.0901 37.0988 31.3829 37.7689 30.643L38.5495 29.7317C40.1084 27.9247 42.2059 25.2069 42.332 22.6985L40.5589 22.6423ZM10.39 22.918L12.3325 25.3312C13.1202 26.3398 13.9025 27.3726 14.5489 28.4796L15.3631 30.0023C15.4862 30.2536 15.5705 30.5297 15.6941 30.7794L16.4149 32.8222L16.7159 34.2063C16.8152 34.5837 16.8309 35.0876 16.833 35.4761C16.8365 36.1245 16.702 36.1054 17.508 36.2137C17.9494 36.273 18.3039 36.2712 18.738 36.1571L18.8671 36.105C18.7624 35.7822 18.5916 35.6971 18.5518 35.2496L18.5479 35.2101C18.5295 35.007 18.5405 34.8027 18.5241 34.5996C18.2479 31.1873 15.5749 26.4216 12.733 24.335C12.2844 24.0056 11.8046 23.7434 11.3237 23.4671L10.39 22.918ZM37.7628 23.0738C35.7887 23.9114 33.9461 25.5282 32.6826 27.2228L31.813 28.4373C30.3129 30.6946 28.9864 33.2965 29.3249 36.0808C29.4096 36.1732 29.4811 36.2491 29.5939 36.3088C29.8701 36.4583 30.3711 36.4165 30.6795 36.3816L30.7164 36.378C31.6359 36.2759 31.2764 36.0488 31.2335 35.4708C31.0557 33.0791 32.6143 29.6509 33.8692 27.7455C34.9994 26.0293 36.4688 24.6007 37.8273 23.0738C37.8057 23.0733 37.7844 23.0721 37.7628 23.0738Z" fill="black"/>
</svg>
