<svg width="48" height="48" viewBox="0 0 48 48" fill="none" xmlns="http://www.w3.org/2000/svg">
<path d="M35.2646 32.3457C34.4918 33.265 33.9224 34.3329 33.0353 35.1664C31.8754 36.2562 30.1278 37.1915 28.477 37.0029C27.9887 36.9471 27.4687 36.7763 27.0006 36.6246L26.359 36.4053C25.8813 36.2555 25.5913 36.7856 25.2351 35.9223C24.7426 35.5506 23.0543 35.4367 22.6639 35.837C22.1168 36.3979 20.3518 36.899 19.5313 36.9926C17.765 37.1942 15.8392 36.1219 14.635 34.9047C13.8727 34.1342 13.2644 33.186 12.6094 32.3247L10.5658 29.7471C9.49821 28.4447 8.42027 27.1761 7.06657 26.1623C6.70582 25.8921 6.32861 25.6555 5.97958 25.3669C4.88702 24.4635 4.26011 23.0682 4.3612 21.6497C4.42406 20.7679 4.6862 19.8898 4.88303 19.0307L6.18663 12.4571C6.23144 12.2196 6.25352 11.9636 6.35716 11.7422L6.39185 11.6697C6.53608 11.3695 6.85244 11.0741 7.16889 10.9642L7.20007 10.9537C7.30577 10.9175 7.40421 10.9004 7.51446 10.8855C8.28189 10.8628 9.14107 10.9483 9.89964 11.0917L11.7424 11.5141C12.1111 11.5929 12.4898 11.6107 12.8626 11.6535L15.1048 11.8283L17.3583 11.8364C18.2144 11.835 19.0458 11.8367 19.8979 11.768L22.6689 11.5204C24.0526 11.4349 25.416 11.6204 26.7931 11.7042L28.3127 11.7647C28.5092 11.778 28.7004 11.8236 28.8986 11.829L32.8164 11.8307C33.3072 11.8268 33.795 11.7679 34.2842 11.7223L35.9885 11.5314C36.5977 11.4422 37.1654 11.2413 37.7623 11.1077C38.7907 10.8775 40.8258 10.5949 41.3289 11.6964L41.3436 11.7306C41.3788 11.8064 41.4051 11.8816 41.4259 11.9627L41.6331 12.8661C41.6742 12.9857 41.6882 13.1049 41.7131 13.228L41.8603 13.8282C41.8825 13.9168 41.8848 14.0097 41.9065 14.0978L42.7983 18.2462C42.9613 18.9509 43.1212 19.7828 43.2393 20.5041C43.5375 22.3267 43.0434 24.3464 41.5568 25.5371C41.2731 25.7642 40.9641 25.9506 40.6643 26.1547C39.4116 27.0071 38.1979 28.6181 37.254 29.7829L35.2646 32.3457ZM7.633 12.2587C7.49702 12.7003 7.43529 13.1594 7.35569 13.6137L7.15347 14.7297C8.73789 15.5633 10.8488 15.9706 12.649 16.0507L22.3182 16.0649C23.4685 16.066 24.6291 16.1144 25.7567 16.3615C26.6403 16.5552 27.4598 16.8465 28.3733 16.8979L31.2179 16.9003C32.7735 16.8384 35.0703 16.4126 36.551 16.0556C37.0437 15.9369 37.5573 15.863 38.0418 15.7132L39.7433 15.2319L40.7275 14.936L40.1722 12.611C40.1484 12.5157 40.1319 12.3891 40.0801 12.3071C39.4162 12.2497 38.6904 12.3257 38.0433 12.4775L37.0451 12.7457C34.9771 13.2281 32.8136 13.2295 30.7027 13.2274L28.1694 13.2143L24.7716 12.9449C23.9161 12.8972 23.08 12.9382 22.2297 13.0041L20.2923 13.1459C19.2368 13.2325 18.3553 13.2263 17.2944 13.2275L14.3674 13.2033C13.3261 13.146 12.1777 13.0135 11.1604 12.8182C10.8377 12.7563 10.5276 12.6449 10.2072 12.5739L9.29318 12.4144C8.73396 12.3232 8.20221 12.2451 7.633 12.2587ZM6.86496 16.1811L6.14636 19.3892L7.91866 19.5821C12.9173 20.2892 17.42 23.0972 20.1605 27.3282C20.6294 28.0521 21.0729 28.8158 21.4058 29.6134L22.1407 31.6177C22.1926 31.7794 22.2063 31.9487 22.2776 32.1027C22.6051 32.1387 22.9639 32.1017 23.2959 32.1009L25.602 32.1071C25.7256 31.4092 25.9731 30.739 26.2303 30.081C27.3932 27.1054 29.4123 24.5608 32.0303 22.7327L32.9664 22.1317C33.7028 21.6849 34.4883 21.3438 35.2809 21.011L36.8908 20.3664C38.0258 19.9744 39.3125 19.7073 40.5193 19.6458L41.6645 19.6421C41.5605 18.6923 41.2323 17.2589 40.9685 16.3644C40.5274 16.4586 40.1117 16.6058 39.6799 16.7294L35.4611 17.721C34.0452 17.9985 32.6041 18.2289 31.1617 18.3097L29.7314 18.329C28.4679 18.3271 27.4153 18.3072 26.218 17.9169C25.2578 17.6038 23.9284 17.4888 22.9036 17.4851L13.095 17.4769C10.9361 17.3886 8.86038 17.0045 6.86496 16.1811ZM5.84205 20.8337C5.60969 21.722 5.64274 22.6511 6.11899 23.467C6.62693 24.3371 7.57572 24.8128 8.33702 25.4293C10.3313 27.0443 12.0983 29.418 13.6488 31.4397L14.5348 32.6194C15.392 33.7996 16.1227 34.6559 17.5315 35.256C18.9298 35.8516 19.4376 35.6568 20.8284 35.23C20.9598 35.1837 21.229 35.1264 21.3224 35.0333C21.2995 33.7938 21.1432 32.8854 20.7474 31.6865C18.749 25.6322 13.2851 21.4465 6.99607 20.8795C6.63649 20.8472 6.21996 20.7963 5.86108 20.8288L5.84205 20.8337ZM40.7035 21.0513C38.2379 21.1309 34.4853 22.6733 32.4362 24.1392C29.1217 26.5103 26.5805 30.8932 26.5998 35.0479L28.0852 35.5087C29.2646 35.7805 30.0926 35.5561 31.1467 34.8971C32.2925 34.1808 33.0131 33.0751 33.8052 32.0119L35.2457 30.1142C36.4613 28.5272 38.0898 26.337 39.7175 25.1494C40.0084 24.9372 40.322 24.7521 40.6064 24.5319C41.8231 23.5895 42.0399 22.4996 41.926 21.0694C41.6102 21.0328 41.0256 21.0017 40.7035 21.0513ZM23.7075 33.4578C23.3557 33.4593 22.9731 33.4326 22.6283 33.5012C22.5582 33.698 22.6044 34.1279 22.6347 34.3359L22.6494 34.3514C23.2359 34.2039 23.7513 34.1504 24.3465 34.2064C24.6687 34.2439 24.9646 34.3289 25.2735 34.4257C25.3029 34.3362 25.3009 34.2225 25.3062 34.1282L25.3346 33.4704L23.7075 33.4578Z" fill="black"/>
</svg>
