<svg width="48" height="48" viewBox="0 0 48 48" fill="none" xmlns="http://www.w3.org/2000/svg">
<path d="M30.1997 30.4577C29.1524 31.9828 28.365 33.76 27.8463 35.5315C27.5232 36.6349 27.6139 37.5326 26.477 38.1885C25.9468 38.4944 25.1868 38.5725 24.5716 38.6013L23.4792 38.6107C22.4433 38.6122 21.425 38.4569 20.7662 37.5207C20.4503 37.072 20.4099 36.4895 20.279 35.9685L19.9359 34.8056C18.0232 29.2828 14.0435 25.0606 8.29428 23.6355L7.03302 23.3418L6.09594 28.9573L5.81478 32.5549L5.81717 35.3638L6.01048 37.7404C6.07967 38.3566 6.19906 38.9713 6.31648 39.5793C6.4783 40.4172 5.31917 40.9003 4.96742 40.0057C4.85492 39.7197 4.82038 39.3623 4.7765 39.0582L4.47248 36.387C4.45561 36.2205 4.42577 36.0568 4.41699 35.8892L4.41768 31.798L4.66316 29.2001C4.93911 26.6628 5.3743 23.4504 6.16166 20.9942C7.01234 18.3404 7.68913 16.927 7.68819 14.0012L7.68734 13.1846C7.68702 12.9549 7.75531 12.7166 7.54756 12.5626L7.52816 12.5487C7.43797 12.4798 7.36348 12.3544 7.2995 12.2617C5.97059 10.3361 7.32538 7.87132 9.55738 7.6743C9.97414 7.61824 10.4263 7.69722 10.8465 7.7028L12.1465 7.72554C12.3425 7.73613 12.5353 7.77747 12.7308 7.78526L15.8118 7.90165C16.0527 7.91397 16.2892 7.9601 16.5291 7.97046L17.8378 8.00266C18.1135 8.01621 18.3863 8.0643 18.662 8.0726L21.345 8.16752L26.359 8.17029C26.6949 8.16354 27.0253 8.10147 27.3603 8.0869L31.0445 7.97346L34.0313 7.8071C35.0876 7.77649 38.3866 7.50335 39.2535 7.85782C41.0347 8.58621 41.865 10.7526 40.689 12.2991C40.2482 12.8788 40.3081 12.4241 40.3073 13.2975L40.3085 14.4235C40.3103 15.0564 40.4005 16.2026 40.6107 16.7425C40.6736 16.904 40.7291 17.1243 40.7643 17.2952L40.8786 17.6996C40.886 17.7385 40.8921 17.7712 40.9055 17.809L41.232 18.9143C41.3488 19.3714 41.5187 19.8311 41.6086 20.2938L42.3645 23.3665L43.4276 29.8688C43.5012 30.3058 43.4348 30.7712 43.5373 31.2035C43.6016 31.4752 43.585 31.7846 43.5883 32.0634L43.5758 35.7421C43.5516 36.2846 43.5081 36.8309 43.4529 37.3713L43.2157 39.1828C43.1662 39.5113 43.1697 39.9013 42.971 40.1794C42.752 40.486 42.3018 40.6002 41.99 40.3607C41.5831 40.0482 41.6868 39.5626 41.7719 39.1292C42.1008 37.4556 42.1878 35.7344 42.1911 34.0324L42.1255 31.512C42.0525 30.1398 41.9072 28.7714 41.6955 27.4131L41.0512 23.9848L38.8595 24.1886C34.8837 24.9081 32.4628 27.1593 30.1997 30.4577ZM37.6673 9.10436L32.5339 9.3469L31.4315 9.36869C31.2459 9.37713 31.0661 9.41965 30.8816 9.42851L27.0704 9.56069C26.8406 9.57363 26.615 9.61694 26.3835 9.62468L22.2657 9.63471C21.4191 9.63358 20.5398 9.57743 19.6876 9.54119L17.0623 9.433C16.845 9.42424 16.6308 9.38547 16.4137 9.37263L14.3026 9.27297L10.0196 9.1188C8.91955 9.10821 7.98402 9.80946 8.23878 10.9807L8.24412 11.0063C8.32391 11.3657 8.60075 11.6189 8.86634 11.85C9.03814 11.9995 9.33988 11.9269 9.55077 11.9272L10.9571 11.9265L22.0725 11.9273C22.5384 11.927 23.3161 11.8158 23.7338 12.012L23.7665 12.027C23.9444 12.1114 24.0976 12.2619 24.2438 12.3914C24.5047 12.1801 24.7517 11.9762 25.0686 11.8547C25.4262 11.7175 25.3254 11.8207 25.629 11.5391C26.1885 11.02 26.959 11.2568 27.4866 11.6766C28.01 12.0931 27.8573 11.9321 28.6091 11.9294L38.2036 11.9268C38.4064 11.9268 38.8 11.9787 38.9766 11.8936C40.3023 11.2545 39.9143 9.48649 38.5329 9.15822C38.2473 9.0903 37.9586 9.09682 37.6673 9.10436ZM26.5063 12.7385C26.3227 12.801 26.159 12.8925 25.9915 12.9883L26.5509 13.2367C26.6338 13.2747 26.8276 13.3745 26.9154 13.3607C26.8815 13.1946 26.7261 12.7291 26.5063 12.7385ZM38.7829 13.3712L36.3446 13.3932C36.403 13.5892 36.4967 13.7676 36.5825 13.9527L37.3622 15.9729L37.8858 17.7007L38.4727 20.1515C38.6341 20.7022 38.7455 21.6598 38.7976 22.2245L38.8484 22.6995L40.7225 22.5162L39.7714 18.9963C39.3506 17.5443 38.9129 16.1416 38.9073 14.6201L38.903 13.371L38.7829 13.3712ZM9.11502 13.3892C9.05877 14.1461 9.13198 14.8996 9.05075 15.6504C8.89864 17.0566 8.56583 18.385 8.10552 19.7151L7.36841 21.9453L9.18064 22.3878L9.40508 21.169C10.0158 18.4579 11.0182 15.8468 12.3108 13.3905L9.11502 13.3892ZM13.9924 13.3877L13.3876 14.4378C12.1681 16.7306 10.8402 20.1608 10.558 22.8078L11.4572 23.1724C15.9219 25.0885 19.1507 28.9925 20.9459 33.4471L21.691 35.7678C21.8468 36.2628 21.7363 36.7021 22.2786 36.984C22.6978 37.2019 23.0305 37.1538 23.4963 37.1534L24.6166 37.144C25.5147 37.1272 26.0259 37.123 26.2201 36.1878L26.3829 35.4573C27.5881 30.8198 31.5054 25.1069 36.2121 23.3786L37.4847 23.0022L37.0586 20.3386L36.5027 17.9857C36.1452 16.7172 35.6888 15.4892 35.161 14.2826L34.8928 13.686C34.7064 13.2715 34.7034 13.3865 34.2529 13.3866L28.2681 13.3822L28.2262 13.8797C28.9885 14.362 29.808 15.1798 30.0081 16.1L30.0323 16.1794C30.2338 16.7088 29.5514 17.3108 29.0508 17.0209C28.6834 16.8082 28.6119 16.3281 28.3931 15.987C27.6089 14.7644 26.1283 14.9557 25.109 14.1227L25.1005 14.166C25.0302 14.5115 24.9059 14.8517 24.8465 15.1995L24.7087 16.2695C24.6462 16.7964 24.6509 17.2987 24.6512 17.8307L24.6585 18.8656C24.6933 19.5918 24.8694 20.7423 25.0305 21.4338L25.1824 22.0433C25.2064 22.1363 25.2147 22.2345 25.2476 22.3242C25.4893 22.9856 24.9505 23.6534 24.2479 23.2848C23.6611 22.977 23.3257 20.0749 23.2724 19.1906L23.2531 17.5687C23.2536 16.2482 23.3312 15.4581 23.6381 14.1352C22.8091 14.6898 22.2011 15.1815 21.8187 16.1614C21.7247 16.4025 21.6774 16.7 21.5086 16.9004C21.0062 17.4967 20.0743 17.0473 20.3907 15.908C20.5932 15.1788 20.9978 14.5127 21.5078 13.9573C21.6328 13.8212 21.9492 13.4719 22.1169 13.41L13.9924 13.3877Z" fill="black"/>
</svg>
