<svg width="48" height="48" viewBox="0 0 48 48" fill="none" xmlns="http://www.w3.org/2000/svg">
<path d="M20.8213 37.1523L20.7234 37.7109C20.6295 38.319 20.4797 38.7772 19.766 38.9299L19.7226 38.939C18.9267 39.1095 16.7111 38.2941 15.924 38.0415L14.1149 37.5024C13.1156 37.2109 12.1045 36.931 11.0781 36.7506L8.76315 36.3944C6.80696 36.1296 4.94298 35.9275 4.01945 33.817C2.50012 30.345 5.8652 22.2128 7.35671 18.6965L8.36626 16.289C8.97324 14.8203 9.58777 13.6153 9.58154 12.009L9.58149 10.6607C9.58206 10.4093 9.54638 10.1039 9.63999 9.86889L9.65527 9.83195C10.0951 8.71042 10.9126 9.0782 11.789 9.27953L15.8522 10.1098L21.1171 10.6937L26.9746 10.6983C27.1433 10.6912 27.3085 10.6561 27.4767 10.6457L30.8905 10.3078L37.227 9.02865C37.6887 8.98426 38.0632 9.29462 38.2776 9.67815C38.3761 9.85435 38.3424 10.0981 38.3427 10.2954L38.3427 11.5714C38.3425 11.934 38.358 12.6222 38.452 12.9602L38.6251 13.5937L40.6295 18.7654L43.2328 25.682L43.5825 26.8994C43.6038 27.018 43.6525 27.1278 43.6743 27.2488L44.1686 29.7581C44.271 30.5184 44.4702 32.0676 44.2893 32.8273C43.8308 34.7537 42.5002 36.0174 40.4471 36.1649L38.6249 36.2826C36.5719 36.5065 34.4613 37.0678 32.5435 37.8277C31.2314 38.3477 30.5429 38.6793 29.1244 38.9015C27.5692 39.1451 27.4504 38.4393 27.1884 37.0663L25.336 26.7187C25.2794 26.3575 25.2416 25.9862 25.1658 25.6287L24.8905 25.6884C24.2751 25.8786 23.483 25.7527 22.8684 25.6397L20.8213 37.1523ZM36.8858 10.5819C32.4463 11.6106 28.9794 12.1668 24.4515 12.1675L20.0273 12.0685C18.4035 11.949 16.7878 11.724 15.1838 11.447L11.4179 10.6749C11.291 10.6488 11.1641 10.6372 11.0402 10.5974L11.041 11.7538C11.1445 11.8562 11.2779 11.8146 11.414 11.8379L14.0669 12.3664L17.0682 12.8345L21.0428 13.2264L26.3727 13.2317L28.4386 13.1439L33.0233 12.5469L36.9223 11.7947L36.8858 10.5819ZM10.9645 13.2604L10.7084 14.1426L9.10454 18.2579C9.39545 18.1526 9.6609 17.9899 9.91702 17.8176C11.285 16.8394 12.1878 15.18 12.1887 13.486L10.9645 13.2604ZM36.951 13.2744C36.6436 13.3184 36.3098 13.3645 36.0129 13.4583C36.1965 15.2658 36.8967 16.7095 38.3104 17.8747C38.4572 17.9791 38.7054 18.2043 38.8752 18.25C38.6498 17.8186 38.4754 17.3533 38.2943 16.9016L37.1463 13.6288C37.113 13.5204 37.089 13.3397 37.0194 13.2558L36.951 13.2744ZM34.5149 13.746L31.0429 14.3257C30.8611 14.3489 29.2859 14.4959 29.2295 14.5424L29.2275 19.7991C29.227 22.0136 28.6152 23.7606 26.6877 25.0129C26.488 25.1427 26.5447 25.1225 26.5887 25.3735L27.0983 28.5313L28.548 36.6444C28.6031 36.9152 28.6361 37.1919 28.7024 37.4606C30.0234 37.341 30.4536 37.0846 31.5716 36.6387L33.3158 35.9864C34.9747 35.4035 37.3673 34.899 39.1581 34.7825C40.9036 34.7214 42.5139 34.468 42.8644 32.4994C42.289 32.4587 41.6975 32.4859 41.1205 32.486L37.0385 32.489C36.5355 32.4939 35.878 32.5337 35.9462 31.7541C36.0081 31.0476 36.6709 31.1255 37.1745 31.125L42.8982 31.1248C42.7076 28.2843 41.6487 25.2064 40.6393 22.5712L39.7275 20.2828C37.2132 19.4242 35.2967 17.3381 34.7432 14.7378C34.7108 14.5856 34.6152 13.8094 34.5534 13.7496L34.5149 13.746ZM13.6526 13.7694C13.6072 14.0711 13.5942 14.3787 13.532 14.6774C13.0188 17.1416 11.146 19.5182 8.5749 19.9753C8.21307 20.0396 8.21382 20.4086 8.04882 20.7968L6.64698 24.4359L5.68074 27.7048C5.55531 28.2036 5.41731 28.7121 5.34076 29.221L5.12101 30.7407C5.06935 31.2598 5.07943 31.1244 5.69752 31.1249L11.1272 31.1258C11.4888 31.1259 11.8036 31.0903 11.9994 31.4648L12.0114 31.4849C12.2379 31.8714 11.9835 32.4668 11.5126 32.49L5.12368 32.4778C5.1819 32.7739 5.26121 33.0684 5.41491 33.3303L5.46052 33.4209C5.99241 34.5466 7.31649 34.7761 8.41491 34.917L9.95659 35.1005C11.4279 35.3187 12.8673 35.6295 14.298 36.0399L16.6382 36.7336C17.4994 37.0072 18.3851 37.3329 19.2771 37.4845L21.4074 25.4644C21.4224 25.3502 21.451 25.2354 21.4563 25.1204C20.1113 24.2356 19.2191 23.0267 18.887 21.4218C18.6951 20.4945 18.7693 19.5082 18.7691 18.565L18.7695 14.4695L13.6526 13.7694ZM20.2262 14.6846L20.226 19.9872C20.2265 20.4937 20.1993 21.0159 20.3818 21.4997L20.5362 21.9548C20.5854 22.1066 20.6737 22.2587 20.7511 22.3977C21.9535 24.5558 24.9967 24.9906 26.6652 23.1712C27.5911 22.1237 27.7684 21.161 27.7692 19.8197L27.7693 14.713C27.7289 14.6832 20.9045 14.6908 20.2262 14.6846Z" fill="black"/>
</svg>
