<svg width="48" height="48" viewBox="0 0 48 48" fill="none" xmlns="http://www.w3.org/2000/svg">
<path d="M33.1224 34.5747C30.7836 35.2225 25.7556 35.225 24.5192 32.603C24.3539 32.2524 24.2212 31.5861 24.009 31.3311C23.8843 31.5808 23.8207 31.8757 23.7243 32.1397C23.4063 33.0105 22.7165 33.6643 21.8904 34.0518C21.5706 34.2018 21.2207 34.2269 20.89 34.3439C20.5433 34.4664 20.233 34.6415 19.8723 34.7325C18.4307 35.0962 16.5537 35.0074 15.1355 34.6836C14.7348 34.5922 14.3639 34.4066 13.9676 34.3182L8.91286 33.3092C7.67367 33.0406 6.9614 33.1344 6.357 31.8574L6.33496 31.8127C6.25504 31.6018 6.29943 31.2559 6.29915 31.0249L6.29953 27.7254C6.30173 25.3197 7.158 22.956 8.1345 20.7887C8.57357 19.8142 9.11671 18.8594 9.45065 17.8434C9.57923 17.4523 9.6562 17.0509 9.75965 16.6531L10.2945 14.5697C10.5172 13.6261 10.5949 12.4882 11.6666 12.0888L11.7071 12.074C11.848 12.021 11.9839 11.9886 12.1311 11.9584C12.3566 11.9402 12.5383 12.0026 12.754 12.0603L14.8571 12.5381C15.0052 12.5658 15.1552 12.5737 15.3036 12.5981L19.544 13.0362L21.7262 13.1325L26.8048 13.1352L28.6696 13.0377C28.8729 13.0277 29.0697 12.9891 29.2719 12.9724L29.9925 12.9312C31.305 12.812 32.5988 12.6361 33.8907 12.3743L34.7699 12.1802C35.0504 12.1063 35.3465 11.9792 35.6347 11.9553C36.4138 11.8908 37.1691 12.5895 37.3949 13.2853L37.4069 13.3238C37.5481 13.6998 37.6075 14.0868 37.6819 14.4791L37.9102 15.4492C37.9682 15.6727 38.0003 15.9169 38.0788 16.1334L38.4541 17.5389C38.4934 17.6437 38.5051 17.7568 38.5455 17.8602L40.1389 21.4386L41.0477 23.8604L41.4477 25.3555C41.6487 26.0225 41.6922 27.2099 41.693 27.8946L41.6942 31.0069C41.6933 32.3693 41.2105 32.8298 39.965 33.0892L35.6549 33.9957C34.7879 34.1678 33.9606 34.2863 33.1224 34.5747ZM12.1313 13.3707L12.0272 13.4105C11.826 13.6309 11.8078 13.965 11.7079 14.24C12.489 14.6866 13.8584 14.8218 14.6898 14.5895C14.9375 14.5203 15.1967 14.4413 15.4415 14.5711C15.8087 14.7657 16.0412 15.2993 15.7601 15.6611C15.1363 16.464 12.1914 15.9018 11.3957 15.6844L11.0097 17.286L34.2716 17.2761C34.4369 17.276 34.6368 17.2978 34.7989 17.2749L37.0016 17.237C36.8594 16.7337 36.7652 16.2426 36.5665 15.7543C36.06 15.914 35.0055 16.1748 34.4765 15.9668L34.4437 15.9544C34.1136 15.822 33.9627 15.4489 34.0471 15.1163L34.0544 15.087C34.2607 14.3059 34.7537 14.6639 35.1387 14.639C35.5541 14.6122 35.9175 14.4531 36.3157 14.3684C35.9637 13.1481 36.0743 13.2945 34.8873 13.5884L32.9794 13.9616C32.0716 14.1185 31.1402 14.2604 30.2208 14.322L28.1796 14.4698C27.9929 14.4827 27.808 14.5155 27.6212 14.524L21.0271 14.5256C20.756 14.5162 20.4869 14.4623 20.2157 14.4459L17.004 14.2254C15.7968 14.1183 14.0924 13.8542 12.906 13.5465C12.6704 13.4855 12.3737 13.3442 12.1313 13.3707ZM10.5611 18.7125C10.3112 19.3721 9.97143 20.0108 9.67607 20.658L8.92439 22.359C8.32246 23.827 7.28639 27.1246 7.64348 28.7644C7.86496 28.8065 8.0542 28.8189 8.27254 28.8943C8.03282 26.5013 8.93653 24.2145 9.88392 22.0676L10.3158 21.1272C10.4791 20.7818 10.6472 20.3151 11.0866 20.2654C11.6493 20.2017 11.9372 20.7486 11.7509 21.2415C11.5805 21.6926 11.3657 22.1134 11.1681 22.552C10.4917 24.0535 9.294 27.0168 9.5925 28.7176L9.65446 29.1769C9.95657 29.274 10.2758 29.3179 10.5865 29.3785L14.0922 30.1308C14.7744 30.2774 15.4617 30.4482 16.1514 30.5536L16.9337 30.6589C18.4458 30.8188 19.6142 30.7527 21.1014 30.4861C22.0469 30.3167 22.6096 30.26 23.3438 29.6454C24.2382 28.8967 24.7182 29.8645 25.3173 30.1181C26.9076 30.7914 30.0108 30.8439 31.6407 30.5561L35.2529 29.8187C35.7922 29.7294 36.3295 29.5789 36.8653 29.4654C37.3372 29.3655 37.8552 29.323 38.3108 29.1691C38.7037 26.9152 37.7577 24.6555 36.8411 22.6417L36.445 21.7585C36.3479 21.5448 36.2089 21.3045 36.1696 21.0715C36.0385 20.2925 36.9815 19.9386 37.4419 20.7106L39.0504 24.4449L39.4119 25.5946L39.6843 26.9248C39.807 27.4676 39.7883 28.3165 39.7208 28.875L40.3686 28.7286C40.3506 28.0312 40.3995 27.3311 40.3158 26.6366C40.0588 24.5056 38.9705 22.0362 38.047 20.1351L37.5651 19.0953C37.5164 18.9832 37.4789 18.7956 37.4047 18.7055L10.5611 18.7125ZM7.66959 30.156L7.66893 31.0634C7.66912 31.2299 7.65459 31.4107 7.67807 31.5753C8.11518 31.7232 8.57868 31.8072 9.02751 31.913L13.6154 32.8538C13.8588 32.9047 14.1089 32.9497 14.3483 33.0164L15.1674 33.2728C16.5445 33.6514 18.1385 33.6689 19.5342 33.3602C20.0285 33.2509 21.4808 32.7635 21.8529 32.4849C22.1164 32.2416 22.2772 31.9899 22.3992 31.6525L22.3968 31.6335C21.3797 31.8371 20.3194 32.0719 19.2808 32.129L18.3786 32.1371C17.0766 32.137 15.8567 31.8828 14.5814 31.6322L9.13518 30.4802C8.65823 30.3661 8.15817 30.2008 7.66959 30.156ZM40.3334 30.1754L31.1302 32.032C29.8242 32.3157 26.8651 31.9794 25.635 31.658L25.6972 31.8515C25.8015 32.1674 25.9541 32.3955 26.1947 32.6189C27.5844 33.6886 30.9713 33.7589 32.694 33.2577C33.0485 33.1546 33.3882 33.0173 33.7501 32.9379L39.1106 31.87C39.3186 31.8315 40.1929 31.6695 40.3574 31.5592L40.3588 30.6348C40.3589 30.549 40.3876 30.2302 40.3387 30.1756L40.3334 30.1754Z" fill="black"/>
</svg>
