<svg width="48" height="48" viewBox="0 0 48 48" fill="none" xmlns="http://www.w3.org/2000/svg">
<path d="M33.2996 32.6157C31.2583 34.8147 28.6763 37.4611 25.5485 37.7489C25.1229 37.788 24.6682 37.7583 24.2391 37.7549C21.5169 37.7333 20.4578 37.1861 18.3996 35.6902L16.4359 34.1757C15.7114 33.5664 14.9783 32.904 14.3301 32.2133L10.6398 27.9301L8.61482 25.8982C8.18957 25.4768 6.81276 24.1002 6.77193 23.4848C6.75534 23.2345 6.76889 22.9741 6.76879 22.7228L6.76851 12.1252C6.76936 11.7184 6.72675 11.3519 7.03003 11.0272C7.57579 10.4428 8.92434 10.3372 9.67701 10.302L37.2105 10.3012C38.1692 10.3013 40.5294 10.2523 41.0629 11.1766L41.0797 11.2065C41.1048 11.2506 41.1262 11.2909 41.1419 11.3397L41.1571 11.3905C41.3265 11.8526 41.2253 12.6935 41.2254 13.1981L41.2244 23.4364C41.2193 23.7253 41.0061 23.9648 40.8455 24.1892L40.0562 25.1843C39.8047 25.4726 39.5164 25.7126 39.2391 25.9744L37.7901 27.4054L33.2996 32.6157ZM10.3654 11.6352C9.55945 11.6399 9.01303 11.6632 8.24264 11.8697C9.3877 12.1752 10.5302 12.2435 11.7067 12.309C11.9379 12.3218 12.1674 12.3732 12.3986 12.3837L14.6626 12.4364L32.5945 12.4377C33.5417 12.4085 34.4966 12.3372 35.4433 12.2796L37.3692 12.1205L39.6557 11.8484C38.6753 11.6517 38.228 11.6329 37.25 11.6367L10.3654 11.6352ZM39.786 13.228L34.4388 13.7008C34.1994 13.7125 33.9636 13.7551 33.7244 13.7626L13.6636 13.76L11.0127 13.6676C10.8325 13.6554 10.6564 13.6173 10.4763 13.6018L8.13286 13.3288C8.13333 13.4961 8.09648 14.4862 8.1539 14.5737L8.18067 14.5769C9.12637 14.7211 10.0676 14.781 10.9882 14.8455L13.0294 14.9866L33.8114 14.9379C34.6275 14.8902 35.5017 14.877 36.3161 14.8056L39.359 14.4875C39.4997 14.4676 39.7242 14.4879 39.847 14.4359L39.786 13.228ZM39.7818 15.8319L35.421 16.2286C35.1487 16.2493 34.8765 16.3094 34.6061 16.3203L12.9239 16.3294C12.4982 16.3285 11.9415 16.3892 11.5369 16.2588C11.4095 16.2177 11.2288 16.223 11.0928 16.2157L8.595 15.9754C8.44598 15.9587 8.28328 15.9283 8.13412 15.9372L8.13323 16.7962L11.8051 17.0044C12.1461 17.0323 12.4675 17.0827 12.8153 17.0924L34.1856 17.0905C34.4954 17.0822 34.7907 17.0328 35.0974 17.0116L38.7504 16.8943C39.0724 16.8932 39.4916 16.9275 39.7951 16.8249L39.8327 16.8141C39.8387 16.4971 39.8594 16.1594 39.8177 15.845L39.7818 15.8319ZM8.1345 18.1777L8.13342 20.915C8.13342 21.473 8.08631 22.0728 8.15779 22.624C8.80706 22.6385 9.45393 22.6829 10.0902 22.8233C15.2186 23.9556 22.1899 29.9432 22.2929 35.641L22.3108 36.2232C22.7606 36.3811 25.0315 36.4046 25.6911 36.3382C25.7476 32.8614 27.313 30.0858 29.7869 27.6941L30.6872 26.8428C31.9024 25.7303 34.1498 24.1289 35.7504 23.5424L36.4919 23.2511C37.182 23.0071 37.9587 22.8061 38.6833 22.7114L39.8449 22.6173L39.845 18.1677L36.1099 18.3583L33.9182 18.4526L14.8565 18.4567L11.4769 18.3538L8.60784 18.1819C8.46361 18.1805 8.27325 18.1535 8.1345 18.1777ZM8.73604 24.0413C9.02714 24.4019 9.37795 24.7224 9.70781 25.0476L11.539 26.8911C12.9381 28.4169 14.1845 30.0918 15.628 31.5749C16.8583 32.839 19.3292 34.8883 20.9211 35.7051C20.8226 34.3676 20.4953 33.2135 19.8552 32.0462C17.9167 28.5116 12.8218 24.1962 8.73604 24.0413ZM39.1481 24.0584C38.4236 24.1677 37.7315 24.2893 37.0359 24.5272C32.9189 25.9353 27.6611 30.5506 27.1579 35.2082C27.133 35.4393 27.09 35.6557 27.0944 35.8896C29.8343 34.7127 31.8624 32.1617 33.7362 29.9506L36.7 26.5986L39.1481 24.0584Z" fill="black"/>
</svg>
