<svg width="48" height="48" viewBox="0 0 48 48" fill="none" xmlns="http://www.w3.org/2000/svg">
<path d="M36.1539 38.9019L33.7493 39.7549C31.7127 40.4599 28.1448 41.3366 26.2374 40.3466C25.9421 40.1934 25.8589 39.9289 25.6519 39.6931C24.8328 38.76 23.5397 38.3795 22.6845 39.5033C22.5757 39.6462 22.5141 39.8228 22.4138 39.9714C21.9781 40.6167 20.3352 40.7644 19.5373 40.764C15.9443 40.7626 11.6227 38.9803 8.47397 37.4393L6.24404 36.2291C5.28193 35.6469 4.26631 35.0016 3.89038 33.8847C3.70359 33.3298 3.83268 32.6794 3.83719 32.0967C3.85287 30.0674 3.95623 28.0493 4.24616 26.0391C4.50252 24.2616 5.04047 21.9389 5.66579 20.2174C5.80716 19.8282 6.00493 19.4014 6.07341 18.992L6.93183 12.5217C7.10508 11.2182 6.95485 9.66659 8.49244 9.16971L8.53032 9.15776C8.70427 9.10039 8.8711 9.07742 9.05297 9.05599C9.58327 8.92493 10.6222 9.39457 11.121 9.56234C12.0519 9.87546 13.0135 10.0215 13.9918 10.0874L21.8392 10.1506L27.0347 10.209C27.2633 10.2022 27.4893 10.1615 27.7148 10.1532L29.8583 10.139L35.496 9.55821L37.4289 9.26848C38.6225 9.10137 40.2164 8.93689 40.7664 10.3327L40.7813 10.3712C40.8499 10.5325 40.8979 10.7166 40.9171 10.8915L40.9681 11.7188L41.6257 16.6993L42.1458 20.0547C42.2222 20.5558 42.265 20.9991 42.4344 21.4794L42.7501 22.3829C43.0575 23.3036 43.3466 24.2806 43.542 25.2309L43.8234 26.7895L44.1477 30.3484L44.158 33.4607C44.1565 33.6899 44.1641 33.93 44.1062 34.1536L44.0563 34.3243C43.5698 35.5116 40.8371 36.7825 39.7435 37.3085L36.1539 38.9019ZM9.0646 10.5263C8.88057 10.5792 8.67591 10.6556 8.56632 10.8226L8.55174 10.8442C8.49371 10.9378 8.49919 11.0619 8.48438 11.168L8.41247 11.8947C9.20536 12.0759 10.0223 12.1702 10.8224 12.3165C12.4012 12.6052 13.9846 12.9475 15.5892 13.055C16.5978 13.1227 17.6209 13.087 18.6315 13.0862L23.7124 13.0793C23.9391 13.0747 24.1602 13.0277 24.3886 13.0229L27.5047 13.0111L33.4335 12.5491L38.8305 11.8154L39.5358 11.7274C39.5793 10.9325 39.6707 10.4375 38.7712 10.5462L32.5077 11.4059L29.1354 11.6401L23.4419 11.6957L17.7566 11.6448L14.7571 11.5612C14.4105 11.5599 14.0585 11.5664 13.7144 11.5205L12.6913 11.4137C11.743 11.2912 10.9035 11.0119 10.0043 10.7107C9.71175 10.6127 9.37829 10.479 9.0646 10.5263ZM39.4897 13.2283L34.1757 13.9466L27.744 14.4745C27.6054 14.4829 27.47 14.5137 27.3311 14.5209L19.6171 14.5369C19.4387 14.542 19.2629 14.5719 19.0841 14.5759L15.3932 14.4998L13.1363 14.2298L8.25872 13.3961L7.9344 15.926L9.6855 16.2558L17.0706 17.8498C17.993 18.0455 18.9061 18.2433 19.8428 18.3642L22.2428 18.5794L25.2802 18.5817C25.8413 18.5706 26.4204 18.5189 26.9784 18.4553C27.8501 18.3558 28.7294 18.2397 29.5898 18.0668L35.5345 16.7351L40.0593 15.8807L39.7146 13.212L39.4897 13.2283ZM40.2437 17.3321C39.2728 17.4437 38.309 17.6734 37.3534 17.8742L31.2187 19.2218L28.6873 19.7259L25.7108 20.0379L24.0149 20.0449C20.5637 20.0431 18.2096 19.6291 14.8499 18.8553L8.50083 17.5153C8.24611 17.4629 7.97911 17.3922 7.72083 17.3664L7.44891 19.3994C10.05 19.8522 12.4527 20.7251 14.729 22.0693L16.6226 23.2777C17.0663 23.5451 17.5531 23.7325 18.0037 23.9884C20.5197 25.4172 22.0818 27.3172 23.308 29.964L23.8609 31.4532C23.9305 31.6462 23.9745 31.8423 24.0397 32.0341L24.2233 32.7677C24.2595 32.8915 24.2701 33.0196 24.2949 33.1455L24.4382 34.0655C24.5609 35.183 24.6218 36.2863 24.4695 37.4074L24.5012 37.4134C25.1567 37.5443 25.8769 37.9634 26.342 38.4391C27.2093 37.4969 28.1317 36.6647 29.1891 35.9402L33.3189 33.4444C35.4834 32.2636 37.8482 31.148 40.3623 31.1441C41.2467 31.1427 41.9512 31.2363 42.7654 31.5786L42.641 28.9484C42.4937 27.4144 42.2402 25.9151 41.8493 24.4246L40.8158 20.8306C38.7488 20.94 36.4796 21.8179 34.6503 22.7877L33.4251 23.5077C30.8131 25.0875 29.1681 26.6403 27.4631 29.0963L27.1644 29.555C26.5475 30.5568 25.5199 29.7998 25.7981 29.0848L25.81 29.0539C25.8683 28.9089 25.9631 28.7728 26.0448 28.6399L26.6431 27.7439C29.2883 23.9497 34.3426 20.621 38.9366 19.6106C39.4863 19.4896 40.0424 19.4478 40.5927 19.3445L40.2437 17.3321ZM7.00205 20.8164C6.73941 21.3909 6.60155 22.0619 6.43383 22.668C5.84907 24.7811 5.52474 26.7723 5.34404 28.9571L5.24166 30.9709C5.23988 31.0856 5.21541 31.2515 5.24508 31.3596L5.90086 31.2217C6.29724 31.1592 6.699 31.0797 7.10147 31.062C9.6549 30.9499 12.7311 32.248 14.9437 33.4111L16.1701 34.1049C17.9911 35.1352 20.0621 36.3966 21.377 38.0643L21.6773 38.4734C21.9831 38.1432 22.2913 37.8762 22.689 37.6594C23.1086 37.4307 23.0518 37.5692 23.0806 37.104C23.3766 32.3092 21.4337 27.3467 16.9763 25.0524C16.6374 24.8779 16.2814 24.741 15.9495 24.552L14.1215 23.3951C12.1935 22.248 10.0424 21.3665 7.82925 20.9548C7.55883 20.9045 7.26497 20.8874 7.00205 20.8164ZM7.20807 32.5421C6.71883 32.5699 5.11196 32.6054 5.23257 33.3751C5.36429 34.2158 7.13466 35.0847 7.81913 35.4546L10.2368 36.6582C12.7231 37.7774 15.2157 38.6987 17.9051 39.1805L18.5807 39.2767L18.6003 39.2901C18.7139 39.2785 18.84 39.2989 18.9554 39.3012L19.8076 39.3026C20.0143 39.3013 20.2405 39.3077 20.4394 39.2452C19.3233 37.757 17.839 36.7917 16.2635 35.8451C13.873 34.4088 10.103 32.4102 7.20807 32.5421ZM40.1185 32.6078C37.0473 32.7433 33.4623 34.9285 30.9456 36.5423L29.8688 37.2261C29.4261 37.535 27.6188 38.9232 27.6059 39.2863C28.4603 39.3333 29.3398 39.3064 30.1822 39.1533L33.3515 38.3417C35.5707 37.6327 37.7341 36.7174 39.8062 35.6543C40.4491 35.3244 42.2152 34.4529 42.6188 33.846L42.7169 33.6242C43.062 32.6771 40.6307 32.6024 40.1185 32.6078Z" fill="black"/>
</svg>
