<svg width="48" height="48" viewBox="0 0 48 48" fill="none" xmlns="http://www.w3.org/2000/svg">
<path d="M33.305 36.8786C32.4062 37.1131 31.5309 37.3041 30.605 37.3971C28.7156 37.5867 26.3227 36.9963 24.8157 35.7656L24.4027 36.158C23.046 37.3431 21.8172 37.4332 20.1607 37.4335L18.8111 37.4256C16.8077 37.3321 14.3999 37.0035 12.4935 36.3232C11.2611 35.8833 10.183 35.154 8.95069 34.7128C8.13422 34.4205 7.28259 34.2315 6.44541 34.0093C5.86884 33.8563 5.06808 33.7605 4.82573 33.1171C4.71216 32.8155 5.23064 30.5975 5.3378 30.2347C5.55211 29.5092 5.70698 29.4156 5.75906 28.6169L5.84344 27.5823C6.28716 23.998 7.91751 20.9014 9.9847 17.986L10.788 16.9083C10.949 16.6804 11.0132 16.425 11.2818 16.2919C11.4965 16.1856 11.4936 16.091 11.6172 15.8867L12.4443 14.521C12.8744 13.7497 13.217 12.9045 13.424 12.0466L13.5622 11.3895C13.6441 10.9511 13.6916 10.6839 14.151 10.5025C14.5238 10.4799 14.6772 10.5943 15.0051 10.7502C16.657 11.5356 19.4578 11.9775 21.2497 12.1L23.1584 12.1817L26.8247 12.085C26.9103 12.079 26.99 12.0555 27.0738 12.0485L27.8854 11.9852C29.5371 11.7955 31.3717 11.362 32.8555 10.6286C33.9464 10.0894 34.0497 11.3519 34.2187 12.0231C34.6121 13.5851 35.2161 14.3745 35.9759 15.6981C36.1324 15.9707 36.2429 16.2739 36.4153 16.5363L38.4323 19.4763C38.9564 20.31 39.4403 21.1836 39.8768 22.0661L40.6885 23.8708C41.1604 24.9681 41.6374 26.1498 41.8882 27.3161L41.9848 27.6497C42.0368 27.9259 42.119 28.214 42.1879 28.488L42.4222 29.4723C42.446 29.5733 42.4467 29.6829 42.4771 29.7812L43.0842 32.5285C43.3045 33.3665 42.6503 33.4673 42.0083 33.6782L38.6857 34.7191C38.077 34.9198 37.509 35.1874 36.9276 35.4526L34.5222 36.4642C34.1205 36.6138 33.7217 36.7723 33.305 36.8786ZM14.8589 12.2195L14.6807 12.873C14.4924 13.4798 14.2582 14.108 13.9714 14.6751C13.7192 15.1736 13.3642 15.6415 13.1469 16.1519C13.7337 16.1418 14.4787 16.0387 14.9925 15.7383C15.9216 15.2836 16.5727 14.4174 16.902 13.4502L17.067 12.9029C16.3353 12.7225 15.5499 12.521 14.8589 12.2195ZM32.8486 12.2397L31.303 12.7703C31.0937 12.8328 30.8379 12.849 30.6438 12.9395C31.1668 14.069 31.68 14.9017 32.6407 15.6957C32.7789 15.8082 32.9234 15.9486 33.0933 16.0077L33.1263 16.0024C33.5538 15.937 34.0412 15.9723 34.4754 15.9692L34.4482 15.9406C34.3479 15.8275 34.2581 15.5606 34.1809 15.4188C33.6249 14.3967 33.0774 13.3924 32.8486 12.2397ZM18.4731 13.2302C18.2109 14.1619 17.7001 15.4635 16.9043 16.0755C17.2866 16.1114 17.6753 16.0838 18.0587 16.0807L24.8332 16.0386C25.1853 16.031 25.5364 15.9767 25.8868 15.9728L29.6395 15.9779L30.89 15.9566C30.7734 15.8744 30.044 14.7708 29.9469 14.6061C29.6844 14.1605 29.5243 13.7033 29.3063 13.2444L27.5157 13.4819L25.1251 13.5978C24.9462 13.6082 24.7693 13.6363 24.5898 13.6412L21.6446 13.5697C21.4601 13.561 21.2838 13.5282 21.1012 13.5138L18.8211 13.2697C18.7115 13.2543 18.5824 13.2212 18.4731 13.2302ZM27.1098 17.4466L12.0226 17.5773L10.4642 19.802C8.90812 22.122 7.44698 25.054 7.22508 27.8429C7.1873 28.3174 7.26825 28.8653 7.12608 29.32L7.011 29.7078C8.51245 29.9485 10.006 30.3871 11.3681 31.0653L12.562 31.7227C13.8838 32.4186 15.3805 32.7142 16.8565 32.8457L17.4116 32.9066L21.0718 32.9799C21.3577 32.9802 21.79 33.0318 22.0536 32.9089C21.9214 32.6152 21.7396 32.3667 21.8382 32.027L21.8481 31.9918C21.9489 31.6593 22.3418 31.4389 22.6759 31.5502L22.7626 31.5828C23.3438 31.9304 23.8635 32.4074 24.4694 32.7047C24.9144 32.3747 25.2288 31.858 25.5395 31.4079C25.8819 30.9116 26.5365 31.0427 26.7667 31.5466L26.7812 31.5775C26.9865 32.0431 26.5956 32.4894 26.3689 32.8554C28.5742 33.304 32.3441 32.8747 34.506 31.9294C35.5696 31.4643 36.5193 30.8104 37.6221 30.4297C38.9039 29.9873 39.7267 29.9343 41.0252 29.8143C40.6305 27.2268 39.4993 24.414 38.3001 22.1218L37.4531 20.5875L36.1785 18.6414C35.9156 18.2532 35.6564 17.882 35.4227 17.4756L27.1098 17.4466ZM6.58012 31.075L6.32452 32.4273C7.34939 32.8042 8.44476 32.9843 9.46805 33.3667C10.6574 33.8112 11.7207 34.5091 12.9033 34.9529C14.3931 35.5118 16.2361 35.7672 17.8103 35.9027L18.4806 35.9321C20.0694 36.0363 21.6598 36.2545 23.0991 35.3285C23.3748 35.1441 23.639 34.9179 23.8144 34.6333C23.6365 34.4546 23.4547 34.2768 23.2509 34.1274C22.4857 34.3004 21.7846 34.395 21.0046 34.3977L17.7323 34.3898C15.817 34.3013 13.6871 33.9023 11.9871 33.0198C10.2106 32.0976 9.49669 31.729 7.50764 31.2685C7.20881 31.1993 6.86508 31.1764 6.58012 31.075ZM41.0801 31.2527C39.7002 31.3376 38.4105 31.5348 37.166 32.1727C36.4074 32.5615 35.6834 32.9991 34.8894 33.3173C33.4388 33.8986 31.8795 34.2218 30.3286 34.3787L29.7768 34.4147C28.4962 34.5258 27.3321 34.4719 26.0626 34.2882C25.8412 34.2562 25.5446 34.1683 25.3243 34.2109L25.2951 34.2419C25.4645 34.6397 26.0917 34.9222 26.4497 35.1116C28.3838 36.0214 29.69 36.2096 31.8634 35.7419C32.4367 35.6186 33.027 35.4847 33.5797 35.2859L41.5568 32.3027L41.3341 31.2612C41.256 31.2382 41.1615 31.2511 41.0801 31.2527Z" fill="black"/>
</svg>
