<svg width="48" height="48" viewBox="0 0 48 48" fill="none" xmlns="http://www.w3.org/2000/svg">
<path d="M14.104 36.1935C13.0008 35.7837 11.7053 35.4838 10.524 35.5392C10.0555 35.5611 9.60095 35.6527 9.13623 35.6948C7.4867 35.8445 5.93921 35.1585 5.02229 33.7746C4.79499 33.4316 4.64132 33.0486 4.47973 32.672C3.47987 30.3423 3.09645 27.7988 3.09277 25.2784L3.16015 23.2197C3.3029 21.3884 3.61302 19.5262 4.096 17.754L4.53143 16.2745C4.85307 15.3147 4.94349 15.126 5.03865 14.1313C5.13516 13.1231 5.28901 11.8234 5.94798 11.0592C7.0569 9.77323 8.19338 9.92707 9.67707 10.2975L11.6876 10.763L15.2224 11.3842L21.1777 12.037C21.4483 12.057 21.7171 12.0959 21.9887 12.1001L26.8034 12.0966L29.2146 11.9397C31.1622 11.7883 33.1031 11.593 35.0271 11.2459L37.5377 10.675L38.6692 10.3247C39.0721 10.1921 39.4488 10.048 39.8758 10.0183C40.9876 9.88714 42.0633 10.7349 42.4914 11.7072L42.5639 11.8947C42.8393 12.6417 42.6159 13.52 42.9519 14.4304L43.8635 17.7376C43.8905 17.9333 43.968 18.1374 44.0142 18.3305L44.7565 22.3903L44.8209 23.3996C44.8313 23.5459 44.8607 23.6884 44.8672 23.8361L44.8764 25.3821C44.8813 28.1194 44.4871 30.2631 43.4393 32.8138C42.8171 34.3283 41.7654 35.4479 40.0426 35.6962C39.0056 35.8457 37.9576 35.526 36.9256 35.469C35.7361 35.4034 34.7273 35.7237 33.6666 36.2146L31.4995 37.2894C30.8484 37.6122 30.1009 38.0759 29.3427 37.9572L29.3084 37.9514C28.5165 37.8252 28.3312 37.3074 28.0134 36.6928L27.6364 36.0366C26.9659 34.9256 26.173 33.8946 25.3308 32.9109L24.7304 32.2606C24.5234 32.0528 24.1289 31.6823 23.799 31.815L23.7654 31.8295C22.7839 32.2386 20.8432 35.179 20.3169 36.1212L20.0271 36.6878C19.4173 38.0352 18.8154 38.318 17.3451 37.6354L14.104 36.1935ZM8.1128 11.6105C6.9954 11.756 6.83659 12.4952 6.79716 13.46C7.65924 13.6866 8.49882 14.0092 9.34219 14.2966L14.7282 16.0962C16.4582 16.6266 18.2253 17.0681 20.0154 17.3371L21.2641 17.4681C21.5137 17.4937 21.7615 17.5431 22.0115 17.5608L25.5818 17.5844L28.7576 17.2461L32.3318 16.4686L38.7601 14.3162L40.3921 13.7524C40.6658 13.667 40.9548 13.6129 41.2152 13.4914C41.119 12.907 41.2207 12.2695 40.6765 11.8717L40.4974 11.7554C39.8763 11.3726 38.9548 11.9357 38.3309 12.1199L35.2037 12.8808L32.8524 13.2297L27.967 13.6453L25.1407 13.7275L22.0133 13.7217C20.2204 13.6246 18.4528 13.3643 16.6756 13.1243L11.6572 12.3378L8.66771 11.6673C8.4826 11.633 8.30302 11.5865 8.1128 11.6105ZM41.4982 15.0822C41.1746 15.2207 40.8369 15.3209 40.5041 15.4356L33.867 17.6749L32.0189 18.1831C31.5519 18.2847 31.7004 18.2442 31.7011 18.8128C31.705 21.5573 30.9185 24.3746 28.4841 25.9643C27.9155 26.3356 27.2854 26.5214 26.6951 26.8384C25.693 27.3767 24.1694 29.1018 24.6295 30.3669C24.8407 30.469 25.0615 30.5327 25.2629 30.6567C26.0061 31.1145 26.7685 32.1062 27.2956 32.787L27.5706 32.6561C28.7027 32.0832 29.7961 31.4463 30.9607 30.9367C33.9759 29.6174 37.2858 29.2964 40.425 30.3278L42.4199 31.1271C42.8286 30.0286 43.0186 28.9355 43.1616 27.771L43.2588 26.7432C43.2747 26.571 43.304 26.4014 43.3136 26.2286L43.3144 23.7892C43.207 21.9537 42.7895 20.1137 42.4134 18.3204L42.0942 16.9018C41.9671 16.319 41.8844 15.7578 41.6308 15.211L41.4982 15.0822ZM6.56734 15.0768C6.2394 16.2339 5.81987 17.3585 5.53238 18.5275L5.15748 20.133L4.72988 23.3798C4.5168 26.0394 4.72829 28.6987 5.58038 31.2439C9.87202 28.8667 14.3278 29.6876 18.6099 31.769C19.1626 32.0376 19.7094 32.3028 20.2404 32.6133L20.6016 32.8112C20.8533 32.5329 21.0569 32.2155 21.2992 31.9292C21.8224 31.3111 22.3869 30.8391 23.028 30.3557C22.9909 29.6763 23.0621 29.035 23.2775 28.3897C23.4085 27.9974 23.1293 27.9903 22.7332 27.7118L20.2477 25.8691C19.5555 25.3298 18.7794 24.8054 18.2071 24.1361C17.251 23.0181 16.5771 21.2767 16.4708 19.8368L16.4508 19.6468C16.3824 19.2086 16.424 18.7127 16.4233 18.268L6.56734 15.0768ZM17.9355 18.6215C17.7723 19.9453 18.4916 21.8569 19.2661 22.8719C19.557 23.2531 19.9844 23.5695 20.3494 23.8767L23.2498 26.1343C23.5665 26.3673 23.8618 26.634 24.198 26.8388L24.8898 26.1777C25.9772 25.216 27.1314 25.149 28.1446 24.2287C29.5704 22.948 30.3827 20.5422 30.166 18.6284C28.8624 18.8933 27.225 19.1252 25.8832 19.197L23.8333 19.2075C21.7321 19.2042 20.0256 18.9957 17.9355 18.6215ZM35.8855 31.3868C33.6379 31.4562 31.6763 32.366 29.7064 33.3527L28.7766 33.837C28.6144 33.9242 28.4268 34.0051 28.2842 34.1214L29.6767 36.3991L32.8569 34.8765C34.6363 34.0306 36.0873 33.9078 38.0169 34.0572C38.4301 34.0893 38.8554 34.1743 39.2693 34.1778C40.3456 34.1868 41.3472 33.5834 41.8135 32.5962C40.4822 31.8845 38.6768 31.4603 37.1952 31.3903L35.8855 31.3868ZM10.9626 31.417L9.86349 31.5035C8.75063 31.654 7.25476 32.1453 6.23148 32.6622C6.42587 33.2165 7.08141 33.7191 7.5818 33.9609C8.4961 34.4026 9.7704 33.955 10.827 33.9541C12.677 33.9527 14.3164 34.4982 16.0006 35.2447L18.3999 36.4222C18.7089 35.6185 19.2224 34.8472 19.6973 34.1311C17.0825 32.6649 14.0055 31.2898 10.9626 31.417Z" fill="black"/>
</svg>
