<svg width="48" height="48" viewBox="0 0 48 48" fill="none" xmlns="http://www.w3.org/2000/svg">
<path d="M14.4617 12.163C10.7009 12.4772 10.3785 7.33944 13.6331 6.94541C13.8817 6.92554 14.1621 6.9186 14.4094 6.95188L14.449 6.95779C15.6049 7.12222 16.2905 7.94657 16.6023 9.00355C17.0241 10.4331 15.8912 11.8672 14.4617 12.163ZM14.0117 8.40064C12.4111 8.51029 12.5127 10.6899 14.0288 10.7128C15.3893 10.6181 15.6128 8.94575 14.4607 8.48741L14.425 8.47293C14.2886 8.41916 14.1568 8.40847 14.0117 8.40064Z" fill="black"/>
<path d="M34.2943 12.185C32.8182 12.2776 31.7315 11.5496 31.3697 10.0784L31.3421 9.95003C31.115 8.45153 32.2009 7.1403 33.6724 6.94605C37.1333 6.60494 37.7371 11.7066 34.2943 12.185ZM33.861 8.39875C32.5415 8.5847 32.3786 10.4293 33.7146 10.6904L33.7444 10.6966C33.8822 10.7227 34.0282 10.7126 34.1678 10.7103C34.62 10.6278 34.963 10.3183 35.1118 9.89092L35.1242 9.85637C35.392 9.08439 34.6121 8.34034 33.861 8.39875Z" fill="black"/>
<path d="M37.0266 38.2098C35.9095 38.4977 34.834 38.7332 33.6749 38.7875L32.6486 38.7928C30.1375 38.7915 27.0166 38.3444 25.4765 36.126L25.4523 36.0904C25.3759 36.0612 25.2834 36.0725 25.2027 36.0723L22.591 36.0737C22.5521 36.1003 22.5237 36.1215 22.4968 36.1609C21.3053 37.9063 18.6038 38.6689 16.6326 38.7873C16.1852 38.8142 15.7229 38.7935 15.2737 38.7929L14.186 38.7866C11.5582 38.6661 8.65107 37.7478 6.89691 35.7049C5.26594 33.8055 4.89254 31.6284 4.89347 29.237C4.89361 28.8689 4.86094 28.4617 4.92127 28.0993L5.02369 27.2226C5.26543 25.7607 5.65036 24.2568 6.2574 22.8984C6.51211 22.3283 6.68082 21.9035 6.86719 21.3009L8.04797 16.4787C8.08665 16.2881 8.09236 16.0943 8.13296 15.9042L8.82511 13.1506C8.9551 12.6879 9.02972 12.3992 9.52838 12.2135C9.74016 12.2048 9.97904 12.2935 10.1834 12.344L13.5077 13.1143L16.9705 13.5899L20.2263 13.8782L22.601 13.968L25.3474 13.9702L27.9274 13.8753L29.7106 13.7178C31.1308 13.6005 32.5674 13.456 33.9724 13.2162L36.9758 12.5528C37.4105 12.4462 37.8482 12.3039 38.2891 12.2289L38.3162 12.2246C38.9364 12.1218 39.1699 13.0075 39.2678 13.4916L39.3583 13.8247C39.3907 13.9928 39.4293 14.1655 39.4693 14.332L39.7821 15.5778C39.8294 15.7449 39.9626 16.1378 39.9023 16.2867C39.8494 16.4172 39.9888 16.7111 40.0181 16.855L41.1337 21.328C41.2214 21.6412 41.3286 21.9699 41.449 22.2722L42.0938 23.8359C42.2795 24.2644 42.4535 24.7966 42.548 25.257L42.7876 26.2033C43.0507 27.0629 43.1124 28.5327 43.1164 29.4313C43.1351 33.7073 41.3015 36.8729 37.0266 38.2098ZM37.8148 13.8632C35.8411 14.4253 33.8201 14.8094 31.7833 15.0576L26.9212 15.4455L21.6379 15.4419L18.9609 15.2837C16.2967 15.1018 12.7354 14.7056 10.1647 13.8662C10.1145 14.0404 9.77583 15.4881 9.79463 15.6325L10.4236 15.7844C11.2492 16.0168 12.0863 16.1795 12.926 16.3476L15.8507 16.8707L17.9177 17.0884C18.0402 17.0996 18.159 17.1343 18.281 17.1493L21.2731 17.3662C21.4565 17.3771 21.633 17.4222 21.8187 17.4302L27.2224 17.365C29.2936 17.2373 31.3517 17.0148 33.3982 16.6675L38.2775 15.5477C38.2234 15.3431 37.873 13.9016 37.8148 13.8632ZM9.41204 17.1016L8.16554 22.1187C13.5864 22.8938 19.17 25.5042 21.8784 30.4886C22.6707 31.9468 22.8212 32.9594 22.8752 34.5377L25.1109 34.5232L25.1464 33.4661C25.346 31.0165 27.1872 28.4473 28.9736 26.8733L31.174 25.215C33.1942 23.97 35.4461 23.0731 37.7556 22.5335L39.2189 22.2506C39.4267 22.216 39.6417 22.2124 39.8452 22.156C39.7117 21.8062 39.6335 21.4307 39.5337 21.0702L39.0008 19.0663C38.8455 18.4052 38.731 17.7473 38.5231 17.0982L37.0076 17.4872C35.6011 17.8212 34.1983 18.1429 32.7654 18.3454L28.7724 18.8112C28.321 18.8591 27.8573 18.8145 27.4098 18.8965C27.1448 18.945 26.8444 18.9439 26.5741 18.9502L21.9138 18.9435L19.6658 18.8138L16.8578 18.5106C15.0688 18.2905 13.303 18.0297 11.5427 17.6346L10.1113 17.2902C9.88271 17.2324 9.62855 17.1925 9.41204 17.1016ZM7.60669 23.5969C6.72779 25.4528 6.21816 28.1688 6.36113 30.167L6.42361 30.6913C6.46922 31.1507 6.52261 31.7014 6.67866 32.1408L6.92236 32.8747C6.98049 33.071 7.08976 33.2773 7.18018 33.4622C8.62501 36.4179 12.1274 37.2625 15.1508 37.2835C16.4691 37.2926 18.2735 37.2256 19.4813 36.6075C20.2012 36.3077 20.8609 35.8375 21.3777 35.2531C21.4586 34.9436 21.4189 33.9106 21.378 33.5957C21.1562 31.8901 20.1832 30.4196 19.1083 29.126C16.6013 26.1088 11.5012 23.8435 7.60669 23.5969ZM40.2127 23.6582C37.3575 24.0009 34.4754 25.0183 32.0226 26.5051C29.275 28.1705 26.5777 31.0782 26.5758 34.4503C26.5754 35.2025 26.5562 35.3299 27.2491 35.8597C27.6754 36.1856 28.1587 36.444 28.6469 36.6637C30.1284 37.2185 32.3412 37.4384 33.951 37.2276L34.9261 37.118C39.3644 36.4424 41.6476 33.9055 41.6483 29.41C41.6483 28.9979 41.6581 28.5845 41.6049 28.1749L41.4366 26.9936C41.2947 26.2264 40.8144 24.3452 40.4172 23.6441L40.2127 23.6582Z" fill="black"/>
</svg>
