<svg width="48" height="48" viewBox="0 0 48 48" fill="none" xmlns="http://www.w3.org/2000/svg">
<path d="M33.8476 34.4813L32.5721 35.3441L30.3155 36.6549C30.2455 36.6938 30.2038 36.7644 30.1479 36.8195C29.6794 37.2808 28.1486 37.2495 27.5756 37.1528C27.3088 37.1078 27.0613 37.0164 26.8009 36.9491C25.4794 36.6078 24.1196 36.284 22.7694 36.6608C22.4073 36.7618 22.0573 36.915 21.6913 37.0041C20.9479 37.185 20.3358 37.178 19.5881 37.1875C19.0047 37.1949 18.2975 37.2142 17.9118 36.6772C17.6643 36.3326 17.4481 36.4137 17.0429 36.226C15.0538 35.3041 13.2265 33.8871 11.5376 32.5124C10.7899 31.9039 10.0253 31.2865 9.36884 30.5772C6.64217 27.6308 6.99922 26.2565 7.40141 22.6523L8.01364 18.1758L8.57811 15.2777C8.7156 14.6471 8.88772 14.0105 9.12439 13.4098C9.23197 13.1369 9.2638 13.1072 9.17961 12.8276C8.99497 12.2141 8.7388 11.3338 9.5526 11.0636L9.58203 11.0543C9.86159 10.9631 10.1881 10.9024 10.4795 10.8594L10.5156 10.8543C10.7786 10.8154 11.0476 10.8262 11.3129 10.8265L12.4168 10.8358L17.3718 11.2349C17.5891 11.2544 17.805 11.2961 18.0229 11.3064L29.6112 11.3139L33.3388 11.0519C34.8514 10.9158 36.403 10.661 37.91 10.952C39.9945 11.3546 38.5347 12.5063 38.8262 13.2298L39.478 15.072C39.5718 15.3448 39.6055 15.6551 39.6507 15.9394L39.7901 16.7688C39.9405 17.8846 40.1309 18.9296 40.3077 20.0337L40.7954 24.0664L40.875 25.6253C40.8785 28.6621 38.1285 31.4935 35.8358 33.1391L33.8476 34.4813ZM10.9358 12.334L10.5733 12.3556C10.6158 12.4969 10.6701 12.6353 10.6954 12.7807L10.7662 13.0467L16.2741 13.685L19.214 13.8836L29.2073 13.8844C29.4615 13.8754 29.7049 13.8292 29.9556 13.814L31.0032 13.775L35.4193 13.3337C35.894 13.2821 36.3845 13.2521 36.8492 13.139L37.2487 13.0479L37.3851 12.5767C37.4044 12.5163 37.4398 12.4455 37.4331 12.3828C36.5826 12.2579 35.6653 12.3444 34.8167 12.4378L32.2703 12.6684C32.072 12.6844 31.8759 12.7204 31.6769 12.7307L30.1316 12.8145L18.4054 12.8231L12.9608 12.3603C12.2905 12.3158 11.6077 12.3295 10.9358 12.334ZM10.3573 14.4757L10.0221 15.785C10.2058 15.8474 10.3712 15.8501 10.561 15.8716L16.8631 16.6865L22.2898 17.0687L26.1177 17.0712C26.3083 17.0646 26.4958 17.0287 26.6861 17.0172L29.5194 16.8673L32.3004 16.5844L37.3785 15.8354L38.0207 15.7212L37.6689 14.5519C36.9885 14.7026 36.2811 14.7389 35.5917 14.8365L30.376 15.3481L29.2264 15.3634C29.0273 15.3746 28.8332 15.4251 28.629 15.4314L20.549 15.4333L18.6165 15.3515C18.3954 15.3473 18.1695 15.3502 17.951 15.3147L10.3573 14.4757ZM38.1229 17.2148L34.732 17.7804L28.6476 18.4419L26.9295 18.5484L21.7366 18.548L20.9131 18.4773C20.5043 18.4516 20.077 18.4798 19.6737 18.4095L9.71188 17.3192L8.99352 22.2392L10.1511 22.4446C13.2492 23.1172 16.3812 24.2656 18.7278 26.4686C19.8318 27.5689 20.68 28.7016 21.3195 30.1471C21.4717 30.491 21.5552 30.871 21.6944 31.217C22.1733 32.4068 21.997 34.2447 21.6401 35.4237L23.1511 35.0207C24.0561 34.7822 25.3416 35.0354 26.2535 35.2485L26.2423 35.214C25.3592 32.4607 26.0934 29.7618 27.8656 27.5156C29.5737 25.3507 32.0681 24.0376 34.6639 23.2512L39.1426 22.2488L38.1229 17.2148ZM8.83199 23.7435C8.70992 24.361 8.69591 24.9936 8.69352 25.6211C12.0886 26.2159 14.5567 27.4684 16.6131 30.3957L17.2442 31.3128C17.7311 32.0867 18.2039 32.9407 18.5618 33.7851L18.9028 34.661C18.971 34.8618 19.0272 35.0707 19.1178 35.2622L20.0549 35.2708C20.0902 35.1913 20.1091 35.1187 20.124 35.0332C20.2412 34.5893 20.4335 34.1839 20.5147 33.7265C20.7454 32.4266 20.0511 30.787 19.4171 29.697C17.6218 26.6107 14.2498 25.0591 10.9334 24.1878L8.83199 23.7435ZM39.3663 23.8242C35.6108 24.257 31.327 25.5182 28.9294 28.5818C27.45 30.4721 26.9641 32.8656 27.8036 35.1275C27.879 35.3721 28.0432 35.2587 28.2718 35.2643L28.7653 35.2811C29.0534 35.3051 28.9739 35.328 29.0535 35.0404L29.8096 32.9719C31.2176 29.6211 34.3197 26.2974 38.0381 25.8005L38.8953 25.7009C39.087 25.6871 39.3128 25.7073 39.4975 25.661C39.5463 25.1553 39.5555 24.4098 39.4508 23.9179L39.3663 23.8242ZM8.86681 27.1558C9.73016 28.7396 10.1105 29.2326 11.4578 30.4521C12.9556 31.8078 15.3982 33.7066 17.2595 34.5916C16.815 33.4346 16.1133 32.2907 15.4045 31.2834C13.8962 29.1399 12.271 27.9967 9.65919 27.3228C9.39758 27.2553 9.12767 27.2254 8.86681 27.1558ZM38.8042 27.2438C35.5283 27.6286 33.3372 29.6171 31.7621 32.4685C31.4778 32.983 30.9124 33.9953 30.8236 34.5858L31.0075 34.4756C31.7688 34.1038 32.4814 33.5752 33.1878 33.1081C35.5263 31.5617 37.9078 29.9116 39.0272 27.2282L38.8042 27.2438Z" fill="black"/>
</svg>
