<svg width="48" height="48" viewBox="0 0 48 48" fill="none" xmlns="http://www.w3.org/2000/svg">
<path d="M38.8175 30.6357L28.8396 32.4392C28.4375 32.5498 28.5681 32.8374 28.571 33.1837L28.572 35.0399C28.5716 35.2836 28.6549 35.6475 28.5215 35.8634C28.2501 36.3027 28.0135 36.3809 27.5383 36.3851L22.3709 36.3837C21.3952 36.3849 20.5301 36.6041 20.5287 35.3616L20.5301 34.4038C20.5284 33.5045 20.3054 33.319 20.1024 32.5933L18.8065 32.2237L12.8495 31.0149L6.47829 29.5958C4.68454 29.1304 2.43693 28.1835 1.80707 26.2714C1.38328 24.9848 1.73631 22.4353 2.01894 21.047L2.43313 19.1981C2.73738 18.0782 3.10563 16.9723 3.34226 15.8359L3.91166 12.5419C4.00703 12.0978 3.9649 11.8202 4.44873 11.6047C4.74157 11.5732 5.04959 11.6411 5.33806 11.6892L8.27323 12.0901L14.9235 12.7448L17.017 12.8833L19.8946 12.9633L26.6446 13.0245C26.8687 13.02 27.0849 12.9693 27.3056 12.9639L29.3618 12.9426L36.2164 12.4085L42.4716 11.6624C42.7978 11.6091 43.1705 11.7478 43.303 12.0711L43.3119 12.0935C43.4594 12.4199 43.5257 12.7983 43.5936 13.1481L43.8327 14.5112C43.874 14.7509 43.9062 15.0123 43.982 15.2434L44.8174 17.8755C44.8249 17.9133 44.832 17.9474 44.844 17.9843L45.5878 20.6567C45.6228 20.7773 45.6287 20.9022 45.6565 21.0232L45.8434 21.9607C46.1594 23.6389 46.3468 25.5438 45.4952 27.102C44.4984 28.9259 42.9351 29.4802 41.0857 30.0009L38.8175 30.6357ZM5.31926 13.2898C5.26329 13.5026 5.24698 13.714 5.21989 13.9313L5.12435 14.5802C6.17014 15.0649 7.22675 15.3468 8.34509 15.6016L10.8832 16.1176L17.1102 16.8742L19.5809 17.0188C19.7636 17.0313 19.9448 17.0626 20.1279 17.0708L22.8514 17.1556L28.3235 17.0643L31.3709 16.867L36.1756 16.2978L38.472 15.863C39.4722 15.6665 40.488 15.4436 41.4549 15.1175L42.0095 14.9198C42.0994 14.8838 42.226 14.8375 42.2959 14.7701L42.0548 13.311C41.3599 13.4534 40.6301 13.5235 39.9256 13.6058L31.6542 14.4125L28.3249 14.5684C28.1645 14.5767 28.0069 14.6062 27.8456 14.6113L20.367 14.6143C20.1373 14.6094 19.9046 14.5718 19.6734 14.5637L16.0264 14.4121L8.07204 13.6494L5.31926 13.2898ZM4.80879 16.1833L4.38806 17.758L6.68412 18.5204C8.27389 19.1499 9.77881 19.9476 11.266 20.7862C14.6093 22.6716 17.6217 24.7069 19.6053 28.1135C19.8251 28.491 20.0693 28.8568 20.2599 29.2509L21.0951 30.7966C21.2779 31.1659 21.3873 31.5314 21.5051 31.9236L21.6421 32.5512L27.2005 32.5243C27.1413 32.1739 27.2477 31.7508 27.3221 31.4074C28.2236 27.2494 31.2078 24.1977 34.6694 21.965L36.8411 20.7199C38.1631 19.9882 41.7804 18.08 43.2706 17.9888L42.698 16.3375L40.91 16.9231C38.0096 17.7509 34.9983 18.1157 32.0036 18.3863L26.5726 18.7355L21.6874 18.7414L16.8897 18.4412L11.8592 17.8818C10.2757 17.6253 8.67485 17.3769 7.12442 16.9602L5.09478 16.2866C5.00487 16.2496 4.90479 16.1954 4.80879 16.1833ZM3.99173 19.3239C3.71948 20.1157 3.47864 21.45 3.37194 22.2597L3.27311 23.0089C3.24156 23.3252 3.18412 23.6369 3.17568 23.9537L3.16818 24.6911C3.16336 25.5597 3.15218 25.8557 3.81715 26.5365C4.9946 27.742 6.61606 27.9938 8.17798 28.3796L13.516 29.5356L17.326 30.2754C17.718 30.3623 18.1143 30.4215 18.5024 30.5277C18.7246 30.5737 18.9606 30.6775 19.1844 30.6917C17.0972 26.2528 14.6012 24.5267 10.3826 22.1256C8.46373 21.0333 6.49418 19.9627 4.34784 19.3958C4.25677 19.3718 4.0839 19.3044 3.99173 19.3239ZM43.6779 19.4768C42.1948 19.9489 41.1537 20.281 39.7146 21.0012L38.3832 21.6999C34.9011 23.4755 31.5634 25.6989 29.7398 29.2572L29.1267 30.7545L29.9348 30.6507L34.16 29.9844L40.0534 28.6329C41.9806 28.0931 44.159 27.6095 44.5382 25.2185C44.641 24.5702 44.5311 23.2688 44.411 22.6556L43.6779 19.4768ZM27.008 34.0427C26.0097 34.1937 25.4885 34.1954 24.4814 34.1955L22.0462 34.1865L22.0808 34.8289L27.0468 34.8222L27.008 34.0427Z" fill="black"/>
</svg>
