<svg width="48" height="48" viewBox="0 0 48 48" fill="none" xmlns="http://www.w3.org/2000/svg">
<path d="M35.0718 31.2403C32.4484 32.0978 30.7377 32.7008 28.5617 34.4297L27.8225 35.0439C27.5767 35.2604 27.4313 35.4245 27.2636 35.6975C26.9967 36.1318 26.3435 36.4442 25.8608 36.556L25.1821 36.6898C24.8305 36.7585 24.455 36.7364 24.0973 36.7368C22.9017 36.7378 21.2161 36.7313 20.4583 35.6504C20.3749 35.5316 20.3124 35.3953 20.2117 35.2897C17.5979 32.5489 11.0511 30.4685 7.27294 30.4482C7.08423 30.4471 6.85609 30.4152 6.67238 30.4397C6.38091 30.4787 6.03577 30.6656 5.76221 30.4496C5.07943 29.9105 5.29407 28.8346 5.34071 28.1002C5.50876 25.4542 5.85563 22.6403 6.79327 20.1463L8.09176 17.2673C8.19184 17.0338 7.81646 16.9475 7.79087 16.556C7.74123 15.7978 7.77629 15.0166 7.7762 14.256L7.77657 13.2605C7.77699 12.7703 7.74376 12.2515 8.37859 12.1425L8.50735 12.125C8.7608 12.1332 8.99185 12.2222 9.23776 12.273L10.7357 12.5432L15.6975 13.0308L31.6655 13.0462C32.2855 13.0453 32.7468 13.0008 33.339 12.9694L36.2524 12.7241L38.3614 12.3425C39.0503 12.2001 39.6304 11.8471 40.1266 12.539L40.1703 12.5902C40.285 12.7848 40.2188 13.1806 40.219 13.3977L40.2192 16.1686C40.2187 16.615 40.3222 16.9075 39.8661 17.1373L39.8481 17.1462C40.1597 17.8579 40.584 18.5135 40.8738 19.2422L41.5767 21.3008C41.6614 21.6245 41.7323 21.9529 41.813 22.2773L42.0351 23.2137C42.1063 23.4988 42.1495 23.8033 42.1941 24.0937L42.6696 27.5561C42.7126 28.0052 42.7896 28.5116 42.7331 28.9606C42.6521 29.6054 42.3783 30.7567 41.4909 30.561C41.3959 30.5401 41.3086 30.4839 41.2142 30.4574C39.7446 30.0449 36.4908 30.8459 35.0718 31.2403ZM38.6219 13.9336C37.6655 14.0969 36.7658 14.2973 35.8332 14.4045L32.1315 14.6772L16.5855 14.6738L14.1475 14.5285C12.5347 14.4138 10.9558 14.2326 9.36544 13.9336L9.3586 15.8454C9.38152 15.8537 9.40477 15.8638 9.42854 15.869L12.9257 16.3395C13.3354 16.3896 13.7437 16.468 14.1562 16.5007L16.2799 16.6153C16.4737 16.6259 16.6598 16.6709 16.856 16.6775L31.3662 16.6813L35.5898 16.2947L38.6454 15.8342L38.6453 13.9863C38.6453 13.946 38.6522 13.9639 38.6219 13.9336ZM9.61613 17.4726C9.41677 17.9812 9.39544 18.247 9.10365 18.8067L8.59013 19.8559C8.08641 21.0105 7.73255 22.2125 7.50024 23.4492L7.29038 24.896C7.28101 24.9648 7.25602 25.0527 7.26971 25.1205L14.9648 26.0585L20.1796 26.4432L22.1249 26.5224L26.9903 26.5246C27.2676 26.5187 27.5381 26.4663 27.8122 26.4588L29.3507 26.447C29.5574 26.4387 29.761 26.4045 29.967 26.3893L37.7928 25.7292C38.0379 25.6999 38.2849 25.6888 38.5268 25.6361L40.8365 25.2808C40.5883 23.4243 40.1555 21.4764 39.4055 19.7485C39.0659 18.9662 38.64 18.2261 38.2413 17.4732L35.9015 17.8959L31.7527 18.2653L18.3999 18.2774C17.9963 18.2702 17.589 18.2434 17.1838 18.2332L14.9686 18.176C14.7583 18.1691 14.5563 18.1317 14.3481 18.1159L12.1289 17.8704C11.8455 17.8291 9.69559 17.4416 9.61613 17.4726ZM7.01959 26.7099L6.81779 28.8206C8.66785 28.9371 9.91088 29.0848 11.7656 29.5317L13.1302 29.8652C16.0327 30.6668 19.5654 32.1646 21.6226 34.4883C22.091 35.0173 23.1047 35.112 23.8125 35.1554C24.4065 35.1919 25.4739 35.2065 25.9381 34.7731C26.0879 34.6333 26.2058 34.46 26.3395 34.3051C28.3265 32.0025 32.0693 30.3974 34.9234 29.5802L36.5204 29.1753L36.8434 29.1077C36.9859 29.0716 37.1327 29.0587 37.2773 29.0337L38.5671 28.8646C39.6054 28.763 40.2108 28.7397 41.2268 28.841C41.2128 28.3413 41.1498 27.2467 40.968 26.7703L40.9491 26.7779C40.3926 26.9987 39.7029 27.0294 39.1132 27.1105L36.2424 27.4805L30.7661 27.9406L27.1823 28.1554L22.4075 28.1544L19.3891 27.9998L15.539 27.7256L8.21452 26.8718C7.82363 26.8125 7.41441 26.728 7.01959 26.7099Z" fill="black"/>
</svg>
