<svg width="48" height="48" viewBox="0 0 48 48" fill="none" xmlns="http://www.w3.org/2000/svg">
<path d="M39.2425 35.7104L37.5705 36.8929C35.0881 38.4251 33.0955 39.1771 30.172 38.9221C29.8183 38.8912 29.4018 38.9421 29.0591 38.8592C28.7666 38.7884 28.4358 38.8053 28.1369 38.7875L25.8622 38.5955L22.078 38.5902L19.017 38.8146C16.859 38.9939 14.9425 39.0796 12.9192 38.1868C11.0711 37.3715 9.28774 36.2522 7.78108 34.9016L5.89047 33.0147L5.05713 32.008C3.90718 30.6123 3.25926 29.7461 3.09245 27.9177L3.02739 26.4759C3.02528 25.201 3.09072 23.9054 3.33836 22.6524C3.60045 21.3263 4.08092 19.5699 4.51183 18.3147C5.23994 16.1937 6.01867 14.6426 6.02036 12.3688L6.02022 10.4243C6.02008 10.1259 5.92014 9.66884 6.10769 9.41356L6.12789 9.3868C6.27653 9.18734 6.41435 9.10536 6.64591 9.02666C6.87396 9.0087 7.06956 9.07048 7.29156 9.09795L14.9533 10.0294L20.0275 10.4498C20.169 10.4613 20.3055 10.4983 20.4523 10.5047L27.633 10.5115C27.8632 10.5061 28.0851 10.4622 28.313 10.446L35.7009 9.74731L40.6173 9.09233C41.0262 9.0433 41.5262 8.89152 41.8075 9.31883L41.8223 9.34236C41.8544 9.39153 41.8819 9.42959 41.8977 9.48725L41.9078 9.52742C42.034 9.84284 41.9758 10.2907 41.9751 10.6342L41.9712 12.3583C41.97 13.0425 42.0528 14.1694 42.2957 14.8161L43.5739 18.4102L44.2355 20.5471L44.5139 21.7735C44.634 22.3362 44.7848 22.8002 44.854 23.4024L44.9682 24.9125L44.922 27.7815C44.9057 27.9961 44.8961 28.2176 44.8595 28.4298C44.4533 30.7841 41.2675 34.2159 39.2425 35.7104ZM40.4787 10.5821L36.9213 11.0688L36.9284 14.7071C36.984 14.7233 37.0128 14.7174 37.07 14.7124L40.6434 14.1486C40.6098 13.8536 40.5309 13.5551 40.52 13.2599L40.5157 11.3953C40.5154 11.1285 40.5303 10.8519 40.5048 10.5865L40.4787 10.5821ZM7.48155 10.6055L7.47869 12.2621C7.4793 12.8764 7.49805 13.572 7.34683 14.1741L11.0542 14.7121L11.0758 11.0486L7.89283 10.6567C7.77185 10.639 7.60127 10.5893 7.48155 10.6055ZM12.4936 11.2618C12.4324 12.016 12.4722 12.7968 12.4734 13.5547L12.4755 14.4599C12.4798 15.0972 12.4207 14.9517 13.0813 15.0242L17.7731 15.5567L20.2483 15.6993C20.4529 15.7106 20.6537 15.7513 20.8583 15.7597L27.5428 15.7597C27.7794 15.751 28.0093 15.6975 28.2449 15.6856L29.1339 15.6588L35.4615 14.9861L35.4774 11.2559L28.465 11.9862L20.4119 11.9942L12.9853 11.3091C12.8338 11.2935 12.6426 11.2408 12.4936 11.2618ZM40.9467 15.5943L36.3663 16.3759L29.9325 17.0881C29.7851 17.0991 29.6419 17.1252 29.4925 17.1317L28.44 17.1574C28.1544 17.1704 27.8748 17.2149 27.5864 17.2219L21.0724 17.2203C20.8151 17.2138 20.5657 17.1698 20.3095 17.1584L19.2892 17.1327C19.1225 17.1263 18.9612 17.0937 18.796 17.0822L17.7432 17.028L11.4142 16.2886L7.20208 15.6596C7.14231 15.6505 7.0676 15.6261 7.01008 15.6463L5.33336 20.6401L7.28946 20.8623L13.7931 21.8431L16.1158 22.1164L20.6895 22.4551C20.8711 22.469 21.0473 22.5037 21.2302 22.5095L27.3942 22.507C27.5809 22.4998 27.7595 22.4555 27.9439 22.4449L31.0327 22.2071L41.2267 20.8102L42.4708 20.7011C42.581 20.6965 42.6886 20.6775 42.7988 20.6799L41.0275 15.5958C41.001 15.5937 40.9726 15.5875 40.9467 15.5943ZM4.93924 22.1216C4.69539 22.8317 4.60211 23.7538 4.54767 24.4968L4.47821 26.0761C4.47859 26.2857 4.4574 26.5215 4.49256 26.7279C6.07881 25.7591 9.05271 25.8944 10.8806 26.1862C11.0374 26.2112 11.6098 26.408 11.6918 26.2852C11.8758 25.0829 12.3452 24.1997 12.9568 23.1911L6.55877 22.2659C6.02102 22.2032 5.48144 22.1255 4.93924 22.1216ZM42.5549 22.2057L35.1607 23.1991C35.224 23.3405 35.313 23.4488 35.3936 23.5782L35.7157 24.129C36.1499 24.9041 36.5393 25.6905 36.8591 26.5196C36.9341 26.5672 36.9652 26.544 37.0473 26.5258L37.2093 26.4843C37.6384 26.3588 38.124 26.3157 38.5666 26.2478C40.1842 25.9997 41.902 25.8478 43.4133 26.6134L43.5259 26.6824C43.5705 25.3791 43.5692 23.4221 43.1339 22.199L42.5549 22.2057ZM33.4272 23.379C32.1612 23.6078 30.8652 23.7267 29.5831 23.8187L27.9286 23.9135C27.6695 23.9263 27.417 23.978 27.155 23.9849L21.5036 23.9917C21.0122 23.9907 20.6635 23.9277 20.209 23.9093L16.0399 23.5941C15.581 23.5477 15.1041 23.4684 14.6407 23.4859C13.729 24.2866 13.2884 25.4832 13.0947 26.6497C14.6391 27.1843 16.1605 27.8896 17.4728 28.8716C17.6316 28.9903 17.8908 29.1334 17.9799 29.312L17.9997 29.3555C18.3046 29.9668 17.707 30.6012 17.0596 30.3589L17.0353 30.3499C16.8046 30.2589 16.5719 30.007 16.3604 29.8665C13.8019 28.1671 11.2249 27.477 8.19381 27.4682C7.28271 27.4655 5.24416 27.5217 4.69066 28.4415C4.65988 29.6873 7.20663 32.3484 8.10138 33.1887L8.9597 33.9542C10.2959 35.1008 11.7784 36.0851 13.4004 36.7795C14.7057 37.3382 15.7735 37.4689 17.2037 37.4536L19.877 37.2855C19.8253 36.379 19.6352 35.5153 19.2756 34.6785C19.1365 34.355 18.941 34.0384 18.8375 33.7032L18.8255 33.6659C18.6434 33.0764 19.3423 32.5108 19.8593 32.855C20.6111 33.3555 21.1224 35.6884 21.2714 36.6805C21.2946 36.8346 21.2813 36.9868 21.313 37.1414L26.5946 37.1436C27.3122 32.1841 30.8909 28.6033 35.4828 26.962C35.2166 26.2203 34.8287 25.5261 34.4272 24.8504L33.4963 23.3858C33.4732 23.3824 33.4506 23.3771 33.4272 23.379ZM40.653 27.5261C35.5621 27.6157 29.9156 30.5255 28.4069 35.6837L28.0255 37.2717L30.8029 37.4801C30.8764 37.5075 31.0318 37.4922 31.12 37.494C35.3001 37.5806 39.7406 33.8536 42.0991 30.7262C42.8674 29.7073 42.9827 29.6343 43.3209 28.4128C42.8791 27.6156 41.4564 27.5038 40.653 27.5261Z" fill="black"/>
</svg>
