<svg width="48" height="48" viewBox="0 0 48 48" fill="none" xmlns="http://www.w3.org/2000/svg">
<path d="M28.4825 41.588L28.1193 41.4791C26.6418 40.9861 25.1298 39.3139 24.9662 37.7516C24.9036 37.1547 25.0281 36.558 25.0238 35.9647C25.0159 34.8788 24.4794 34.1525 23.8887 33.2979C22.2951 35.3214 23.7573 37.9343 22.0498 39.9492C20.7823 41.4448 18.356 42.3708 16.7128 40.9356C16.385 40.6492 16.1063 40.3073 15.7847 40.0133C15.2722 39.5451 14.7237 39.1266 14.172 38.7069C13.351 38.0824 12.3492 37.7816 11.4098 37.3853L10.1503 36.7859C9.33615 36.4339 8.49057 36.1592 7.64064 35.9086L4.78764 35.1758C3.93852 34.9897 3.0265 34.9469 2.34073 34.3412C1.12282 33.2656 1.39394 32.5644 1.92992 31.3657C2.13878 30.8985 2.32804 30.4304 2.48417 29.9426L4.72571 23.0753L7.31818 17.2792C8.23445 15.5323 9.24193 13.9175 10.5664 12.4464L10.5409 12.3497C10.4846 12.0188 10.5122 11.6534 10.512 11.318L10.5125 7.82878C10.5127 7.51969 10.4171 7.02356 10.6004 6.75684L10.6217 6.72647C10.7552 6.52842 10.907 6.45591 11.1266 6.37866L36.2391 6.375C37.6726 6.37538 37.4867 6.71864 37.4866 7.88752L37.4847 11.5585C37.4834 12.9049 37.3213 12.39 38.2414 13.465C39.4149 14.836 40.2835 16.5159 41.1022 18.1106L42.3363 20.6489L43.4065 23.1444C43.6649 23.6969 43.8502 24.2851 44.063 24.8554L44.8716 27.1551C45.0117 27.5981 45.1319 28.0695 45.2961 28.5026L46.1603 31.4163C46.2761 31.7416 46.431 32.1523 46.4492 32.4887C46.5047 33.5082 45.6351 34.4234 44.7763 34.8271C44.2773 35.0617 43.7027 35.155 43.1651 35.256L41.8156 35.54C38.825 36.2419 35.3503 37.4799 32.9805 39.4443C31.4248 40.7338 30.9115 42.1761 28.4825 41.588ZM12.1723 7.97283L12.0773 7.99861L12.0696 11.6366C12.182 11.7243 13.1594 12.0449 13.3594 12.1157L16.3914 13.1174C16.6872 13.1909 16.9981 13.2487 17.2852 13.3494C17.8271 13.5394 18.3206 13.803 18.8796 13.9597C20.2013 14.3301 21.7039 14.4107 23.0695 14.4105L26.1082 14.2815C27.3473 14.1587 28.5935 13.9713 29.8008 13.6624L31.826 13.0788C32.5195 12.8662 33.231 12.6683 33.9067 12.4043L35.899 11.6958C35.9364 11.6853 35.9225 11.6922 35.9504 11.6683L35.9273 7.97255L12.1723 7.97283ZM11.9413 13.3113C11.4894 13.8513 10.9766 14.3687 10.5663 14.9391C8.70995 17.5199 7.38245 20.5387 6.25932 23.496L4.69759 27.9229L3.77628 31.0292C3.58337 31.6361 3.21364 32.1679 3.04066 32.713C3.1777 33.0019 3.40266 33.1705 3.70314 33.2781L7.96356 34.3186L9.78507 34.916C10.0502 34.0748 10.4663 33.2748 10.8186 32.4683C11.4093 31.1161 11.9937 29.736 12.4706 28.3397L13.1691 26.1994L15.5061 17.2409L16.2122 14.7366L12.8498 13.6365C12.5561 13.5303 12.2191 13.448 11.9413 13.3113ZM36.0496 13.3476L32.4738 14.5552C32.4031 14.5774 32.3054 14.5945 32.2479 14.6411C32.1973 15.1286 32.1839 15.847 32.277 16.3264L32.8684 19.2989C32.9439 19.6232 33.0186 19.9807 33.1323 20.2933L35.1117 26.3905L37.4354 32.5099C37.7666 33.1944 37.9386 33.9885 38.1657 34.7113L38.253 34.9092L40.424 34.2224L42.1571 33.8032C42.7297 33.6819 45.1479 33.4248 44.8406 32.3972L43.2261 27.118C41.9448 23.3753 39.5648 17.672 37.0999 14.556L36.1114 13.3642C36.0921 13.3585 36.0695 13.3495 36.0496 13.3476ZM30.6484 15.0819L26.4837 15.8835C26.9228 16.5623 27.3339 17.3237 27.5559 18.1034L27.7809 19.0538C27.9268 19.7466 27.8437 20.5593 27.747 21.2516C27.6014 22.293 26.3328 22.4329 26.1498 21.3866L26.1443 21.3571C26.0781 20.9637 26.2496 20.4998 26.2514 20.0969C26.2567 18.8709 25.8585 17.751 25.1354 16.7655C24.6976 16.1687 24.4438 15.9327 23.6213 16.0945C22.8995 16.2365 22.3594 17.0782 21.992 17.648C21.4382 18.5068 20.6161 19.8737 21.1202 20.9357C21.4967 21.7284 20.6441 22.3625 20.0274 21.9374C19.663 21.6864 19.556 21.2101 19.493 20.8007C19.2424 19.173 20.0536 17.5898 20.9937 16.3078L21.2847 15.9353L20.0161 15.8112C19.216 15.7065 18.4502 15.5094 17.6797 15.2772L17.0006 17.5845L15.3076 24.1217L14.918 25.724C14.1983 28.631 13.1082 31.0355 11.9149 33.7801L11.2625 35.4058C11.786 35.9085 12.7194 36.2353 13.3798 36.4919C14.4857 36.9177 15.4197 37.532 16.3139 38.3145L17.0051 38.9666C17.4474 39.3792 17.7432 39.8844 18.375 40.0121L18.4015 40.0177C19.5546 40.2466 21.1791 38.9946 21.3664 37.8713L21.3758 37.8046C21.4709 37.1246 21.3994 36.4497 21.4513 35.7714C21.5462 34.5317 21.9107 33.3469 22.6097 32.3129C22.8614 31.9406 23.1748 31.4875 23.6484 31.4022L23.679 31.3958C24.5373 31.2315 25.3899 32.7018 25.7621 33.3034C26.724 34.858 26.5517 35.5552 26.5554 37.2657C26.5567 37.8449 26.5872 38.2338 26.9932 38.6835C27.6016 39.3575 28.4783 40.0612 29.4162 40.1196C30.4077 40.1812 31.2665 38.82 31.9314 38.2407C33.3342 37.0186 35.0844 36.179 36.7699 35.427L36.1511 33.5292L34.5758 29.495L32.1781 22.4862C31.5776 20.64 31.0173 18.7734 30.7822 16.8412C30.7583 16.6444 30.6696 15.1016 30.6484 15.0819Z" fill="black"/>
</svg>
