<svg width="48" height="48" viewBox="0 0 48 48" fill="none" xmlns="http://www.w3.org/2000/svg">
<path d="M30.4725 39.8685C29.686 40.007 28.884 40.0862 28.0877 40.1281C27.1186 40.1791 26.6959 40.0822 26.3471 39.0181L24.7402 33.8938C24.5598 33.3939 24.1863 32.9478 24.0374 32.4455L24.0308 32.4223C23.907 32.6304 23.8341 32.8779 23.7165 33.0938C23.5582 33.3842 23.3299 33.6637 23.2047 33.9669L23.1932 33.9961C23.0649 34.3159 22.9951 34.6636 22.8895 34.9917L22.3992 36.5179C22.2122 37.1459 21.7102 39.0762 21.3942 39.5977C20.9415 40.345 20.1237 40.1593 19.4077 40.0793L17.6136 39.8646L11.2515 38.8689C9.50775 38.4885 6.85721 37.5204 5.31127 36.5159C4.4293 35.9428 4.39011 34.1261 4.29728 33.1453C3.98039 29.7971 4.57307 26.8134 6.24071 23.8401L7.87294 21.0717C8.99377 19.0089 9.46744 16.7255 9.68236 14.4102L9.75554 13.7277C9.78689 13.2377 9.77021 12.7398 9.77044 12.2489L9.77096 8.89895C9.77119 8.37451 9.77836 7.96224 10.4121 7.83334L16.6448 8.42757L21.5181 8.73268L26.8215 8.73484L34.4531 8.15406L37.4634 7.83414C37.7446 7.80957 38.0451 8.00289 38.142 8.26426L38.157 8.3086C38.2298 8.5066 38.2215 8.70198 38.2219 8.9101L38.2325 13.6308C38.2439 14.0583 38.2975 14.4769 38.3394 14.9022L38.439 15.6445C38.6166 17.0023 38.9224 18.2984 39.4165 19.5774L39.5598 19.9219C39.6911 20.28 39.8814 20.6196 40.0646 20.9528L41.1045 22.7095C41.5738 23.4798 42.0337 24.3052 42.3871 25.1361L43.0463 26.863C43.5897 28.2932 43.7825 30.0383 43.7845 31.5476L43.6087 34.0078C43.585 34.1739 43.5766 34.3475 43.5246 34.5081C43.1724 35.5951 43.567 35.9499 42.4309 36.5577L41.7085 36.9384C40.7027 37.4375 39.6707 37.9014 38.6015 38.2485L34.2071 39.2602L30.4725 39.8685ZM11.2284 9.39475L11.2315 12.5839C11.6049 12.6575 11.9948 12.6516 12.3729 12.69L16.6451 13.0298L17.8463 13.0779C18.0189 13.0897 18.1852 13.1252 18.3593 13.1331L20.0155 13.1537C20.2218 13.1596 20.4263 13.208 20.6367 13.2136L27.2255 13.2174L29.6926 13.1252C29.8712 13.1162 30.0441 13.0759 30.2225 13.0652L33.9398 12.8305L36.7461 12.5764C36.7627 12.5244 36.764 12.4718 36.7676 12.4177L36.7685 10.2815C36.7684 9.99868 36.8062 9.66882 36.7595 9.39456L28.664 10.1064L25.8875 10.2246L22.0157 10.2168L19.5702 10.104L11.2284 9.39475ZM11.1524 14.0274L10.9275 16.1176C10.6283 18.1559 10.0203 20.1619 9.00596 21.9639L7.25325 24.9668C7.04635 25.3651 5.58924 28.841 5.86674 29.1022C5.96377 29.1935 6.13603 29.268 6.2535 29.3343C8.19999 30.4329 9.29729 30.4193 11.3493 30.5623L12.0785 30.5904C14.7791 30.7794 17.453 31.3303 20.0335 32.1368C20.7608 32.3641 21.4765 32.6649 22.2128 32.8562C22.5639 32.223 22.8756 31.6098 23.0605 30.9024C23.1946 30.3893 23.2644 29.8589 23.2674 29.3317L23.2693 27.8366C23.2696 27.5597 23.2101 27.0949 23.3447 26.8594L23.365 26.8232C23.7055 26.2317 24.4627 26.354 24.6877 26.9883L24.7019 27.0245C24.7554 27.2021 24.7237 27.4661 24.7237 27.6549V29.0827C24.7243 29.6232 24.7141 30.2338 24.8826 30.7569L24.9852 31.125C25.0121 31.2054 25.033 31.2815 25.0664 31.3602L25.5272 32.3438C25.5997 32.4822 25.6684 32.6145 25.771 32.7341L29.9585 31.5329C30.4359 31.4577 30.9109 31.3226 31.3866 31.2323L37.1718 30.4003C38.7311 30.2322 40.8661 30.1195 42.2033 29.1861C41.7726 27.3494 41.2041 25.7573 40.2704 24.094L39.1939 22.3136C38.2606 20.7136 37.6812 19.1389 37.3007 17.3299L36.8341 14.0108L32.5543 14.4099L29.0976 14.6346C28.3247 14.6816 27.4716 14.6719 26.6745 14.6975L19.4068 14.6415L15.2082 14.4067L11.9102 14.1253L11.4023 14.0399C11.3236 14.028 11.229 14.0049 11.1524 14.0274ZM5.65524 30.6616L5.62252 31.8423C5.72602 31.9505 5.83491 31.9869 5.95294 32.0717L6.62813 32.587C8.4121 33.9936 9.8633 34.5941 12.0761 34.9599L16.7863 35.6547L19.5562 36.2242C20.0041 36.3239 20.4473 36.4567 20.9015 36.525L21.0668 35.9828L21.5733 34.1619L18.8144 33.3029C17.7388 32.982 16.6236 32.7264 15.5201 32.523L11.8445 32.0582C11.6353 32.0402 11.4144 32.036 11.209 31.9951C10.7037 31.8947 10.1565 31.9998 9.64561 31.9075L8.73952 31.7727C7.64747 31.5762 6.60854 31.2385 5.65524 30.6616ZM42.3437 30.705C41.5787 31.1438 40.7323 31.3673 39.8708 31.5263L36.2372 31.9817L31.5041 32.709C30.4184 32.9236 29.3132 33.1528 28.2496 33.4612C27.5973 33.6503 26.9467 33.9367 26.2857 34.0796L26.5308 34.8867C26.5936 35.0831 26.67 35.2826 26.7102 35.4846L26.8254 35.8644C26.9455 36.2676 26.8597 36.3821 27.2117 36.3126L34.2271 35.0925C34.9801 34.9628 35.7375 34.8444 36.4804 34.6601L39.1858 33.8587C39.8566 33.6297 40.6272 33.2952 41.2376 32.9473C41.5635 32.7616 41.8709 32.5158 42.2097 32.3565L42.3465 32.2785C42.3667 32.0226 42.4388 30.9344 42.3437 30.705ZM5.838 33.9492C5.79657 34.0351 5.91732 35.0127 5.99274 35.1826C6.08644 35.394 7.67536 36.1031 7.92183 36.2126C9.32325 36.8349 10.7815 37.3205 12.2929 37.5933L19.6347 38.6533C19.7806 38.6717 20.0517 38.7718 20.1846 38.6996L20.253 38.5345L20.4469 37.9076L15.3408 36.8652C12.3727 36.3799 9.63408 36.3473 7.00397 34.6947L6.43355 34.3134C6.27436 34.198 6.04191 33.9599 5.838 33.9492ZM42.013 34.1836C41.3269 34.5572 40.5541 34.943 39.8036 35.1778L39.326 35.3527C38.5709 35.6038 37.8063 35.8555 37.0325 36.0428L31.7111 36.9541L27.4907 37.7666C27.4766 37.9459 27.6618 38.4097 27.7134 38.6089L27.7675 38.7305C27.9956 38.7817 28.3404 38.6973 28.5744 38.6679L34.0312 37.8124C36.5199 37.3548 38.4306 36.9559 40.7486 35.8083C41.1341 35.6175 41.672 35.4417 41.9801 35.1375L42.1068 34.1878C42.0586 34.1646 42.0618 34.1723 42.013 34.1836Z" fill="black"/>
</svg>
