<svg width="48" height="48" viewBox="0 0 48 48" fill="none" xmlns="http://www.w3.org/2000/svg">
<path d="M28.2568 38.7102C27.784 38.9645 27.3453 38.8882 26.8221 38.8884L21.8108 38.8885C20.5554 38.8891 19.6734 39.2042 19.2092 37.7205L18.9589 37.02C17.1462 32.3574 11.694 26.733 6.66288 26.1166C5.6627 25.994 5.51378 25.8696 5.62427 24.9309L6.82909 15.5043L7.17152 12.3754C7.30323 11.4627 8.27505 11.6955 8.98047 11.8291C10.2827 12.0756 9.98261 12.0589 11.0395 11.3656L12.3048 10.6177C14.1705 9.6242 16.2883 9.29785 18.3727 9.18184L19.3111 9.12207L29.461 9.12474L31.0732 9.21746C33.3811 9.38654 35.4901 9.93821 37.5687 10.9549L38.2553 11.2962C38.8678 11.6309 39.1266 11.8461 39.8673 11.8124C40.7724 11.7712 40.6729 12.0321 40.7677 12.8947L41.2517 16.4067L42.3755 24.9614C42.5983 26.1048 42.289 26.0563 41.4326 26.1793C36.1503 26.9379 30.7945 32.323 29.0319 37.1221L28.8069 37.77C28.6798 38.1939 28.6442 38.4359 28.2568 38.7102ZM19.3728 10.4809L17.9533 10.5642C16.0042 10.7141 14.0827 11.1054 12.3903 12.1126C11.842 12.4389 11.3421 12.8407 10.7705 13.1271C10.0914 13.4675 9.97309 13.3194 9.28024 13.2337C8.98642 13.1973 8.68839 13.1971 8.39542 13.1547L8.32572 13.8152L28.3113 14.6697L32.7112 14.4923C33.0533 14.4262 33.4365 14.4595 33.7853 14.4327L38.1095 13.9662C38.5823 13.8983 39.0385 13.8027 39.5186 13.801L39.4251 13.0876C38.3729 12.9165 37.9175 12.653 36.986 12.1742C35.5072 11.4142 33.8267 10.8848 32.1798 10.6875L30.231 10.5102C29.8183 10.4572 29.3702 10.4822 28.9536 10.4806L19.3728 10.4809ZM39.7072 15.1293L29.6186 16.0438C28.981 16.1484 28.2656 16.0981 27.6191 16.0986L24.1113 16.091C23.872 16.0837 23.6389 16.0318 23.4027 16.0235L18.6392 16.0108C18.3389 16.0067 18.0479 15.9556 17.749 15.9448L14.4259 15.8L8.82081 15.2524C8.59661 15.2303 8.36542 15.193 8.14056 15.1889L7.97078 17.1215C7.94059 17.4144 7.93834 17.7039 7.88219 17.9948L7.84797 18.3926L40.1474 18.3943L39.8707 15.8737C39.8434 15.6369 39.8631 15.3527 39.7899 15.1271L39.7072 15.1293ZM7.61856 19.7606C7.51352 20.2994 7.5393 20.8704 7.41306 21.3952L40.3772 21.3961L40.5138 21.3871C40.5595 21.3161 40.5228 21.2446 40.514 21.1644L40.4299 20.52C40.4048 20.3085 40.4064 20.0724 40.3631 19.8661L40.338 19.7653C39.897 19.7203 39.4126 19.7577 38.9672 19.7577L9.6992 19.7582C9.01211 19.7583 8.30364 19.7231 7.61856 19.7606ZM7.2333 22.7604L7.09 24.0139C7.05588 24.2523 6.96634 24.5479 6.98191 24.7874C7.44658 24.9053 7.92588 24.9598 8.39088 25.0861C9.5432 25.3988 10.6703 25.9423 11.6761 26.5819L12.2695 27.0024L12.5681 26.092L13.3961 23.6503C13.4891 23.3641 13.6147 23.0576 13.6748 22.7637L7.2333 22.7604ZM40.6815 22.7476L34.919 22.7588C34.7256 22.7588 34.504 22.7379 34.3138 22.7639L34.3338 22.807C34.3714 22.8918 34.3781 22.9824 34.4037 23.0706L35.4668 26.3154L35.7142 26.9988L37.2336 26.1088C38.081 25.6677 39.0082 25.3214 39.9317 25.0779L41.0534 24.8366L40.7559 22.8675C40.7492 22.7997 40.7649 22.7823 40.7119 22.7403L40.6815 22.7476ZM15.1348 22.7616L13.3854 27.731L15.0119 29.1366C17.038 31.033 19.365 34.0467 20.2659 36.7387L20.5488 37.529L27.4793 37.5224C27.5479 37.4039 27.5488 37.2889 27.5897 37.164L28.5003 35.0482L29.1363 33.9017C30.5726 31.5474 32.4544 29.5199 34.5756 27.7676L33.001 23.0194C32.9806 22.9373 32.9699 22.8337 32.9259 22.7623L15.1348 22.7616Z" fill="black"/>
</svg>
