<svg width="48" height="48" viewBox="0 0 48 48" fill="none" xmlns="http://www.w3.org/2000/svg">
<path d="M10.7617 30.4763C10.2415 29.8726 9.62877 29.332 9.0292 28.8091L6.70673 26.9612C5.10163 25.7925 4.74374 25.6707 4.73535 23.6307L4.79699 20.9079C4.80468 20.7606 4.83857 20.6228 4.84987 20.4787L5.0001 18.8524L5.89274 14.1532C6.00032 13.7305 6.08521 13.0352 6.54913 12.8496L6.58387 12.8362C6.9996 12.6727 7.51527 12.8639 7.93368 12.961L14.7891 14.1532L19.153 14.5532C19.4001 14.5636 19.6423 14.611 19.8908 14.6191L27.0299 14.615C27.2244 14.608 27.4111 14.5587 27.6034 14.5495L30.7282 14.4383L37.3839 13.6788L40.3122 13.0415C40.5394 12.9802 40.6843 12.7763 40.9766 12.709C41.7767 12.8115 42.1512 14.5445 42.3755 15.2342C42.4379 15.4259 42.5143 15.6392 42.5511 15.8364L42.6642 16.2908C42.8997 17.1029 43.0926 18.6964 43.1665 19.5233L43.2303 20.6635C43.2487 20.9537 43.2923 21.2439 43.3003 21.5341L43.3211 24.3466C43.2834 25.9381 41.5725 26.5327 40.4884 27.339C38.8268 28.5747 36.6755 30.5529 35.3691 32.2038C33.9672 33.9754 33.0725 35.6441 30.5515 35.6123L28.4298 35.513C27.4357 35.4174 26.455 35.2571 25.453 35.251L23.0611 35.2497C20.9108 35.2507 18.7741 35.6308 16.6906 35.5543C15.5558 35.5126 14.2145 34.6952 13.4644 33.8375C13.0989 33.4197 12.8141 32.9318 12.4713 32.4947L10.7617 30.4763ZM7.44679 14.4318L7.16671 16.0258L11.5098 16.6787L16.2176 17.1474C16.8558 17.1894 17.512 17.1566 18.1525 17.1556L21.8376 17.1599C22.1323 17.1621 22.4237 17.2161 22.7196 17.2216L27.0414 17.2243C27.2993 17.2203 27.5516 17.1798 27.8087 17.1689L28.9115 17.1478C29.1275 17.1356 29.3362 17.0971 29.5543 17.092L31.7527 17.0715C31.9659 17.0609 32.1725 17.012 32.3862 16.999L37.2204 16.5862L41.1196 15.9984C40.9806 15.5204 40.7835 15.0045 40.5467 14.5656L38.5938 15.0359L34.8546 15.6331L31.7192 15.9182C31.0837 15.9437 30.4268 16.0074 29.8045 16.0121L28.7008 16.0204C28.3379 16.0313 27.9754 16.104 27.6095 16.1152L19.481 16.1096C19.2172 16.0951 18.9749 16.0273 18.7079 16.0153L16.0121 15.8179C13.7399 15.6317 11.4723 15.2386 9.23549 14.8065L8.01468 14.5698C7.82845 14.5297 7.62435 14.4982 7.44679 14.4318ZM41.3829 17.3488C39.3657 17.6998 37.336 18.0636 35.297 18.2589L32.0109 18.5344L28.8372 18.6554C28.5874 18.6665 28.3411 18.7189 28.0908 18.7272L18.2548 18.7306C17.9476 18.7313 17.6438 18.7766 17.3368 18.7691L15.7698 18.715L12.2813 18.3756L7.66645 17.7365C7.42312 17.698 7.17857 17.6786 6.93702 17.6262C6.71052 18.3518 6.64082 19.1551 6.5624 19.9121L6.46626 21.919C6.4642 22.1185 6.4326 22.3253 6.4499 22.5228L8.72366 22.6871C10.1163 22.8708 11.5454 23.3024 12.811 23.9099L14.0734 24.546C14.692 24.8502 14.872 24.8085 15.558 24.8887L19.1546 25.2223C19.4283 25.242 19.7093 25.248 19.9803 25.2903C20.5127 25.3737 21.0772 25.3118 21.6165 25.3455L27.0769 25.4118L29.2501 25.3094L32.9529 24.9421C33.1265 24.9322 33.2764 24.8455 33.4294 24.7698L35.3907 23.8117L36.8087 23.2515C37.6699 22.9489 38.5949 22.7447 39.4967 22.6128C40.2553 22.5019 41.2387 22.3535 41.9861 22.4608C42.0251 20.9167 41.9017 18.8152 41.4779 17.369C41.4267 17.3361 41.4372 17.3431 41.3829 17.3488ZM40.9626 24.0103C39.8917 23.9251 37.0042 24.6426 36.1342 25.1051L37.054 25.002C38.1406 24.822 39.249 24.7524 40.3477 24.7022C40.7333 24.6845 41.1395 24.7284 41.521 24.6861C41.8203 24.6529 42.2421 23.9605 40.9626 24.0103ZM6.3298 24.0421C6.39463 24.8054 6.31382 24.7446 7.09935 24.7496L8.27048 24.754C8.54741 24.7562 8.84629 24.7477 9.11582 24.8158L11.8009 25.2197C11.7237 25.0673 10.6327 24.6861 10.4069 24.6112C9.27829 24.237 7.55338 23.9982 6.3298 24.0421ZM8.33409 26.2095C8.66723 26.4622 8.93943 26.7817 9.24618 27.0634L11.5148 29.2546L13.8564 32.0593C14.7214 33.2632 15.8694 34.4722 17.4788 34.275L17.477 34.2005C17.7046 32.1213 17.7234 30.7538 16.3118 29C15.9502 28.5507 15.6387 28.0463 15.1733 27.6929C14.1562 26.9206 12.4151 26.7611 11.1994 26.5875L8.33409 26.2095ZM38.9277 26.3064L36.2472 26.686C34.4699 26.9969 32.8482 27.3635 31.6709 28.8329C30.9049 29.789 30.3195 31.2705 30.4804 32.508L30.4998 32.6131C30.5619 32.9268 30.5847 33.2848 30.6949 33.5842L30.884 34.3051C32.0569 34.0802 32.7569 33.4213 33.4806 32.5267L34.7066 30.9586C35.8015 29.5876 37.0682 28.3674 38.3591 27.1837C38.6771 26.8921 39.0146 26.5172 39.3825 26.2937C39.2337 26.2943 39.0747 26.2845 38.9277 26.3064ZM16.2858 26.5718L16.7282 27.0153C18.3565 28.819 19.3089 30.6741 19.2111 33.147L19.1508 33.9888C21.1069 33.7791 23.0653 33.8211 25.0298 33.8243L26.3354 33.8305C26.889 33.8357 27.4357 33.8993 27.9845 33.9683L28.8321 34.0728C28.9622 34.0875 29.1227 34.1203 29.2518 34.1038L29.1093 33.5506C29.0073 33.0863 28.8246 32.1611 28.9319 31.6821C29.0191 30.0025 29.8964 28.2547 31.1344 27.1266L31.658 26.671C30.6728 26.6912 29.684 26.8238 28.7007 26.8837L26.5352 26.9759L23.6079 26.9767C23.3834 26.976 23.1497 26.9862 22.9272 26.9554L16.2858 26.5718Z" fill="black"/>
</svg>
