<svg width="48" height="48" viewBox="0 0 48 48" fill="none" xmlns="http://www.w3.org/2000/svg">
<path d="M21.2968 32.502C21.2678 32.6212 21.211 32.736 21.1686 32.8512L19.4356 37.5245C19.1673 38.2108 18.7293 39.7425 17.9604 40.0038C15.437 40.8612 11.7596 39.9649 9.34263 39.1481C8.08577 38.7234 6.90747 38.2771 6.46962 36.8624L6.45921 36.8281C6.19423 35.9742 6.16357 34.818 6.71365 34.0606C7.0308 33.6241 6.90518 33.8689 6.96466 33.3214L7.98715 27.2114C8.2316 26.0577 8.55841 24.9137 8.90622 23.7877L10.1653 20.1635L13.894 11.5778C14.1153 11.0909 14.257 11.0381 14.2616 10.4821L14.2674 9.77939C14.2737 9.12619 14.5068 8.36621 14.9596 7.88635C15.1352 7.7003 15.3736 7.73419 15.6096 7.73719L16.7607 7.7926C17.61 7.79916 18.2666 7.78814 19.1131 7.86389L20.8969 8.01446C21.0535 8.02857 21.2044 8.06283 21.3631 8.07038L24.6804 8.07933L28.5465 7.87313C29.4605 7.80342 30.203 7.80338 31.1215 7.79044C31.3399 7.78735 31.544 7.74342 31.7576 7.73386L32.5969 7.72913L33.2047 7.71877C33.8198 7.71582 33.8164 8.06588 33.8159 8.59538L33.8143 10.3237C33.8142 10.7349 33.7638 11.02 33.9574 11.3926L36.95 18.0639L38.4183 21.8333L39.6739 25.9769C39.84 26.4215 39.9082 26.9276 40.0318 27.3863L40.3526 28.7543C40.4845 29.4037 40.5961 30.0535 40.7008 30.7077L40.949 32.4464C41.0042 32.9476 41.0337 33.46 41.1152 33.9575C41.2562 34.8187 41.842 35.8134 41.577 36.7712L41.564 36.8082C41.1028 38.1877 39.8926 38.6721 38.6248 39.0933C36.6328 39.7553 32.6198 40.7563 30.4941 40.1792C29.7391 39.9743 29.6405 39.7089 29.3369 39.0732L26.496 32.6178L25.1523 29.1581L24.295 27.3837C24.0796 26.9645 23.8107 26.5154 23.6675 26.0656L21.2968 32.502ZM31.7093 8.94202L28.9334 8.98524C28.5621 8.98927 28.2132 9.06014 27.8443 9.07782L23.3386 9.23658L19.2481 9.05574C18.9693 9.0315 18.6972 8.97202 18.4165 8.95903C17.5085 8.91703 16.6223 9.01847 15.6612 8.93794C15.3857 9.47433 15.4016 10.0908 15.3489 10.6778L16.5178 10.7684L19.6728 11.022C19.8808 11.0391 20.0882 11.0777 20.3009 11.0884L25.2804 11.0603C25.9926 10.986 26.6995 11.0388 27.4126 10.9889L32.4228 10.5748C32.5231 10.5722 32.6254 10.555 32.725 10.5585L32.7336 8.91699L31.7093 8.94202ZM32.4255 11.7033L26.2364 12.1803C26.079 12.1904 25.9478 12.2692 25.8022 12.3207C25.4538 12.444 25.1149 12.4163 24.7549 12.3866C24.7082 13.0988 24.7417 13.8323 24.7414 14.5466L24.7381 19.9694C24.7366 20.8315 24.6284 21.5515 24.1646 22.3121L24.1434 22.3475C24.0582 22.4873 23.9729 22.5752 23.8241 22.6441L23.7963 22.6577C23.3583 22.8538 22.7997 22.44 23.0315 21.9559C23.0952 21.8228 23.2121 21.7131 23.2869 21.5842C23.498 21.2206 23.6278 20.7566 23.6418 20.3369L23.647 12.2152L15.0468 11.7721L12.5382 17.3955L10.4289 22.6311L10.2332 23.2871C10.2078 23.3654 10.2071 23.4476 10.191 23.5279C10.4185 23.5309 10.6561 23.544 10.8821 23.5211C13.735 23.2326 14.6866 19.1625 14.9084 16.8423C14.9573 16.3311 14.7737 15.1484 15.3514 15.0217L15.381 15.015C15.7233 14.9439 15.9722 15.0903 16.0607 15.4183L16.0702 15.4521C16.0874 15.538 16.0731 15.6484 16.0705 15.7373L16.0437 16.3415C15.9746 18.4195 15.3401 21.1454 14.0843 22.7808C12.8654 24.3681 11.7004 24.6988 9.82868 24.5408C9.67399 25.0071 9.54972 25.5022 9.43957 25.9801L8.91499 28.1678L8.01818 33.7486C10.056 34.6433 12.072 35.3568 14.2901 35.6697C14.7259 35.7312 15.1781 35.8139 15.6186 35.8138C16.6033 35.8568 18.1725 35.8473 19.0587 35.4506L22.7319 25.3473C22.9315 24.8823 23.165 23.859 23.9023 24.2042C24.0768 24.2859 24.1312 24.445 24.2138 24.6031L25.4076 27.1168C25.7998 27.9452 26.2559 28.7743 26.5413 29.6476L28.9056 35.5139C31.7687 36.2042 34.7294 35.5823 37.4743 34.6988L39.9678 33.7934C39.813 32.3474 39.6393 30.8906 39.3606 29.4628L38.1811 24.7848C38.1581 24.7104 38.1505 24.633 38.1078 24.5669C36.6256 24.6308 35.7108 24.5296 34.5163 23.4354C32.9048 21.9591 32.3272 19.6084 32.0546 17.5192C31.9923 17.0418 31.7351 15.5348 32.0466 15.1768C32.3174 14.8655 32.7348 14.979 32.9553 15.2692L32.9731 15.2916C33.0978 15.4575 33.05 15.8877 33.0525 16.0922L33.082 16.7943C33.1261 17.4507 33.2408 18.156 33.3866 18.7939L33.7613 20.1143C34.2898 21.7987 35.8072 23.8543 37.8057 23.5087C37.4986 22.4088 37.0664 21.3253 36.641 20.2661L32.8545 11.6874L32.4255 11.7033ZM7.54699 34.7907C7.21296 35.6229 7.3893 36.8748 8.1678 37.4228C8.62868 37.7472 9.21719 37.9021 9.74932 38.0769C11.4942 38.6504 14.5837 39.4796 16.436 39.1726L17.6748 38.8916L17.8283 38.4882L18.5148 36.7752C17.7833 36.9447 17.1292 36.9362 16.381 36.9372C14.0114 36.9404 11.7946 36.4631 9.57148 35.626L7.54699 34.7907ZM40.1745 34.9098C39.4562 35.2524 38.7085 35.4934 37.9536 35.7411C35.7156 36.4752 33.2577 37.0797 30.8785 36.9233L29.8616 36.8348C29.7523 36.8275 29.6201 36.7997 29.5128 36.8124L30.3744 38.6055L30.4706 38.8327C30.627 39.2271 31.6762 39.1435 32.0577 39.1432C34.3411 39.1414 36.5406 38.6641 38.6834 37.8741C40.3091 37.2747 41.0101 36.6045 40.2205 34.9118L40.1745 34.9098Z" fill="black"/>
</svg>
