<svg width="48" height="48" viewBox="0 0 48 48" fill="none" xmlns="http://www.w3.org/2000/svg">
<path d="M36.2987 37.3002L33.756 38.2517C31.3822 39.0562 30.4268 39.0997 28.0375 39.1007C26.9545 39.1011 24.604 39.1025 24.1325 37.8116C24.0873 37.6877 24.0861 37.7399 24.0352 37.815C23.2358 38.9944 21.8257 39.0965 20.5435 39.0978C18.3823 39.1001 17.2279 38.8125 15.1222 38.1473C12.0744 37.1847 8.88353 35.9942 6.38312 33.9509C5.4588 33.1956 4.97209 32.9376 4.74658 31.7457L4.73223 31.6711C4.67897 31.3611 4.68452 31.0379 4.68412 30.7243L4.68348 29.5526C4.68373 28.9337 4.66746 28.3068 4.71756 27.6896C4.88162 25.6682 5.46461 23.0934 5.99762 21.1613L6.71167 18.8673C7.05573 17.6632 7.26166 16.4656 7.405 15.2223L7.57061 13.3941L7.5737 10.5689C7.57342 9.79352 7.62677 9.06809 8.63237 8.91176L38.7241 8.90759C39.3932 8.9082 39.9759 8.86324 40.32 9.5982L40.3354 9.63241C40.544 10.0858 40.4755 10.5374 40.4755 11.0242L40.4756 13.2066C40.4781 13.6036 40.5179 13.9804 40.5587 14.3736L40.7814 16.4644L41.0207 17.8429C41.0908 18.3173 41.1402 18.8106 41.2503 19.2769L41.7195 21.4801C41.7462 21.58 41.7789 21.6688 41.796 21.7724L42.3623 24.1094C42.3958 24.3003 42.4674 24.4985 42.5135 24.6888L42.8016 26.0396C43.0381 27.327 43.2003 28.6687 43.2843 29.9763L43.3159 31.0718C43.3483 31.8562 43.513 32.1047 42.9832 32.7356L42.3737 33.3973C40.5987 35.172 38.6234 36.3381 36.2987 37.3002ZM8.8877 10.2713C8.88283 10.536 8.86984 13.1292 8.88367 13.144L38.3627 13.1422C38.6161 13.1422 38.9144 13.1719 39.163 13.1335L39.1659 13.1058L39.1687 10.2677L8.8877 10.2713ZM8.79719 14.553C8.73339 16.2211 8.38291 17.8747 7.91022 19.4674L7.25036 21.6149L6.59889 24.4332C6.21953 26.1087 5.98155 27.8351 5.96964 29.5537L5.97691 30.6388C5.97892 30.778 5.95736 30.9596 5.99551 31.0906C9.38242 30.4969 15.6911 33.4392 18.3746 35.3267L21.495 37.7681C21.8838 37.6883 22.5143 37.5389 22.8011 37.2332C22.8833 36.965 22.9136 36.6739 22.9701 36.398C23.7779 32.4513 23.0304 30.732 21.5766 27.2159C21.1258 26.1255 20.6955 25.0916 21.0123 23.904C21.8155 20.8934 25.9779 20.9959 26.8426 23.4314L26.9291 23.6832C27.0946 24.2054 27.2221 24.9597 27.0402 25.4719L26.6475 26.6129C26.0305 28.204 25.296 29.7749 24.932 31.4503C24.6097 33.1071 24.6049 34.6738 25.0306 36.3043L25.2537 37.0783C25.3098 37.2253 25.3124 37.3519 25.4744 37.4244C25.8044 37.572 26.317 37.6779 26.6854 37.7502L31.2069 34.7346L33.5324 33.4128C35.3455 32.4758 37.3448 31.6499 39.3572 31.248C40.1425 31.0912 41.1367 30.8928 41.9322 31.1012L41.9542 31.0915C41.9075 30.6551 41.9464 30.2188 41.9149 29.7826L41.8363 29.0621C41.7426 28.0527 41.62 27.0424 41.4254 26.0468L40.4291 21.7965L39.6445 17.7099C39.4656 16.6722 39.2632 15.6109 39.231 14.5562L8.79719 14.553ZM23.7737 22.9523C22.3922 23.1604 21.8766 24.5767 22.4415 25.7747L23.9143 29.4356C23.9877 29.6669 24.0216 29.6371 24.097 29.4441L25.3243 26.3172C25.5034 25.8688 25.7086 25.3981 25.7678 24.9149C25.9054 23.7917 24.8927 22.8216 23.7737 22.9523ZM6.80041 32.3785L6.70075 32.4137C8.941 34.836 15.6486 37.2664 19.223 37.7223L19.2853 37.7284C19.2004 37.6122 19.0343 37.4918 18.9188 37.4008L18.1172 36.7966C15.9512 35.208 13.4845 34.0421 10.9405 33.1988C10.006 32.889 7.78333 32.2213 6.80041 32.3785ZM40.6344 32.4232C37.2742 32.689 32.0286 35.553 29.1884 37.7206L30.0352 37.71C31.2737 37.6427 32.2799 37.3196 33.4454 36.937L35.1094 36.3278C37.4213 35.4524 39.7354 34.2593 41.4309 32.4211C41.1903 32.4134 40.8677 32.3754 40.6344 32.4232Z" fill="black"/>
</svg>
