<svg width="48" height="48" viewBox="0 0 48 48" fill="none" xmlns="http://www.w3.org/2000/svg">
<path d="M25.9805 36.4131C25.163 35.8528 24.5725 35.1326 24.05 34.3C22.9023 35.7596 21.9831 36.8116 20.0524 37.2984C18.7069 37.6377 17.8462 37.4525 16.5453 37.2094L6.78775 35.0744C6.26214 34.9608 5.67212 34.89 5.17103 34.6925C3.88696 34.1863 3.8844 33.2406 3.7469 32.1442C3.5555 30.6181 3.57753 28.3123 3.72511 26.7631L4.6326 19.181C4.73533 18.5998 4.90037 18.0138 5.06294 17.447L5.16794 17.0843C5.28058 16.7511 5.32483 15.8637 5.38806 15.4333L5.59431 13.9832C5.68853 13.3465 5.93542 12.6182 6.79815 13.0049C6.8373 13.0224 6.94098 12.914 6.98022 12.8827C8.39064 11.7574 11.1295 11.2666 12.8651 11.0378L15.7538 10.7181L19.8106 10.5176L27.9921 10.519C28.8239 10.5223 29.6475 10.59 30.4776 10.6227L32.2709 10.7167L35.6015 11.0928L38.2219 11.657C39.1839 11.9215 40.0892 12.3023 40.9117 12.8663C41.3578 13.1723 41.5306 12.7998 41.9341 12.9975L42.0366 13.0517C42.3243 13.2235 42.3414 13.4948 42.3806 13.7846L42.694 16.2897C42.7206 16.4938 42.7171 16.7056 42.7695 16.9058L43.0202 17.8365C43.0543 18.043 43.1245 18.2516 43.166 18.4577L43.8776 22.7692C44.0774 24.0652 44.181 25.3625 44.2587 26.6715L44.3057 31.6322C44.2882 32.0018 44.2703 32.8599 44.1771 33.1117C43.723 34.3383 43.1822 34.7493 41.9531 34.9759L30.7 37.2808C29.2782 37.6307 27.6518 37.4517 26.3919 36.6768L25.9805 36.4131ZM21.2069 11.9961L16.8809 12.136C16.5031 12.2124 16.0928 12.1506 15.7088 12.1971C13.3926 12.4773 10.5928 12.5705 8.48814 13.6904C10.9371 15.2348 16.0627 16.0161 18.8701 16.3074L20.8485 16.4509C21.0414 16.4674 21.2259 16.502 21.4218 16.5076L24.7851 16.5075C25.0006 16.5007 25.2099 16.464 25.4241 16.45L26.672 16.4311L27.3544 16.3952C30.8048 16.0924 35.4418 15.5281 38.6299 14.0802L39.2066 13.8212C39.2857 13.7847 39.396 13.7491 39.4618 13.6929C38.1609 12.9795 36.5918 12.7298 35.1372 12.5297L32.0827 12.1897L30.2601 12.0686L21.2069 11.9961ZM40.9286 14.5895L39.5213 15.2809C38.4173 15.7768 37.2534 16.1784 36.087 16.5019L33.075 17.1687C31.1159 17.5313 29.0944 17.7605 27.1056 17.876L25.1789 17.9664L21.3975 17.9753L19.5957 17.8601L15.1405 17.3083L12.5187 16.7221C11.5565 16.4772 10.5966 16.2079 9.67197 15.8423L6.95017 14.5859L6.75189 16.1662L6.76169 16.2619C6.93648 16.3772 7.18379 16.4192 7.38142 16.4866L8.82128 16.9589L12.5117 17.8473L17.2949 18.7447L19.3359 18.9663C19.4888 18.9826 19.6396 19.0154 19.7929 19.0283L20.6367 19.0614C20.8649 19.0742 21.0831 19.1268 21.3106 19.1349L24.7709 19.1297L30.914 18.4926C31.2075 18.4451 31.5107 18.418 31.8017 18.358L33.8906 17.9945L40.4552 16.4602C40.7271 16.3909 41.0087 16.3342 41.2726 16.2382C41.1418 15.6974 41.1275 15.1185 40.9778 14.587L40.9286 14.5895ZM6.48058 17.7434C6.35012 18.215 6.2065 18.6898 6.15123 19.1772C8.40311 20.0055 10.7103 20.5844 13.0637 21.0361L18.0161 21.8396L22.6933 22.1242C22.8689 22.1245 23.0642 22.146 23.2265 22.069C24.0281 21.6887 24.4724 22.0993 25.2423 22.0487L27.9061 21.789L35.8711 20.4112L40.9823 19.099L41.7797 18.8669L41.4938 17.7379C40.7323 17.8579 39.9799 18.1191 39.2287 18.298L33.5824 19.5419L26.703 20.4424C26.4863 20.4593 26.2723 20.5013 26.0548 20.513L21.4232 20.5148L19.7115 20.4022C16.8195 20.1684 13.9795 19.7022 11.1556 19.0392L8.60725 18.4125L6.48058 17.7434ZM41.9646 20.3551L38.5438 21.2745L33.78 22.3669L28.3745 23.2216C28.305 23.2296 28.1596 23.2252 28.1044 23.2635L28.1038 24.6807C28.1023 26.3067 27.6017 27.9111 26.4439 29.1041C25.4344 30.1443 25.3379 30.095 24.7615 31.4213C24.6902 31.5853 24.7004 32.3797 24.7729 32.544L25.1312 33.3337C25.4492 33.9641 26.0522 34.6803 26.6364 35.1015C27.4296 35.6846 28.6752 36.1462 29.6792 35.9815L40.9101 33.6804C41.4893 33.5477 42.4445 33.5984 42.708 32.9528L42.7207 32.9237C42.8593 32.5841 42.6896 32.1467 42.8169 31.787C42.8538 31.6826 42.844 31.5411 42.8513 31.4301L42.8759 26.9902C42.8605 26.6644 42.8047 26.3469 42.7783 26.0239L42.5539 23.5895L42.1253 20.8117C42.0995 20.6539 42.0886 20.5038 42.0409 20.35L41.9646 20.3551ZM5.89534 20.6409C5.78406 21.1505 5.73681 21.683 5.67681 22.2008L5.11604 27.5927C5.10376 27.7541 5.07512 27.9126 5.06926 28.0749L5.06729 30.6902L5.19526 32.0657C5.27542 32.831 5.13944 33.2078 6.0414 33.394L17.8484 35.9595C18.9092 36.281 20.6816 35.6747 21.4819 34.9882C23.1146 33.6396 24.0656 31.8933 22.4774 30.0064C22.1886 29.6632 21.8433 29.3879 21.5383 29.0622C20.7734 28.2454 20.2131 27.1412 19.9974 26.0416C19.8251 25.1639 19.932 24.2762 19.8936 23.3903C19.8856 23.2052 19.5648 23.2721 19.4149 23.2601L15.3515 22.8501L13.312 22.5089C11.9392 22.2781 10.5842 22.0313 9.23523 21.681L5.89534 20.6409ZM23.8876 23.3786L23.7923 23.4723C23.8114 23.6051 23.9745 23.6387 24.082 23.5878C24.2778 23.4214 24.0692 23.3365 23.8876 23.3786ZM26.6142 23.4255L25.7196 23.4642C25.5553 25.5359 22.1846 25.4164 22.2768 23.5087L21.3619 23.4926C21.3137 24.1805 21.2736 25.52 21.5062 26.1175L21.6455 26.5246C21.7686 26.8333 21.925 27.1435 22.1058 27.4226C22.461 27.9601 22.8762 28.2964 23.3109 28.7614C24.3742 29.899 23.7345 29.8686 24.7262 28.709C25.0125 28.3743 25.3694 28.1133 25.6466 27.7671C26.5681 26.6162 26.6433 25.6791 26.6433 24.3246C26.6433 24.0348 26.6616 23.7299 26.6373 23.4421L26.6142 23.4255Z" fill="black"/>
</svg>
