<svg width="48" height="48" viewBox="0 0 48 48" fill="none" xmlns="http://www.w3.org/2000/svg">
<path d="M26.3742 38.3464C26.3391 38.0856 26.3252 37.7799 26.3583 37.5181L26.3639 37.4769C26.4329 36.9104 26.7572 36.8749 26.6599 36.2972C26.5488 35.6376 26.3805 34.9906 26.2162 34.3426L24.1639 26.1097C24.1003 25.8318 24.012 25.5624 23.9857 25.2773C23.8854 25.5343 23.8462 25.8019 23.7949 26.071L21.3908 36.5202C21.3624 36.6162 21.5755 37.116 21.6068 37.2411C21.9953 38.7923 20.8497 40.7888 19.3475 41.3349C18.9998 41.4613 18.6262 41.5987 18.2515 41.6128L8.33377 41.6177C6.24469 41.5858 4.54428 39.8398 4.56812 37.732C4.575 37.1226 4.72106 36.5332 5.30831 36.2186L5.34487 36.1999C5.41312 35.9199 5.43422 35.6078 5.46052 35.3206L7.01939 19.6268L7.14886 17.6019C7.29647 16.0749 7.38188 14.5383 7.38211 13.0031L7.38342 8.37247C7.38366 8.14752 7.347 7.8284 7.42284 7.61863L7.43245 7.59407C7.53028 7.33115 7.73648 7.17341 8.01703 7.13511L39.2591 7.14196C39.804 7.14205 40.6134 7.01507 40.6168 7.82436L40.6328 15.4012C40.6447 15.6486 40.713 15.8801 40.7342 16.1253L41.1381 21.2436L41.9983 30.2788L42.2928 33.157C42.3868 34.1535 42.5397 35.1537 42.5432 36.1553C43.2723 36.6053 43.4352 36.8982 43.4475 37.7302C43.4763 39.6725 41.9055 41.5288 39.9526 41.6131L30.4528 41.6208C29.9431 41.6204 29.5558 41.6098 29.0681 41.4671C27.627 41.0453 26.6376 39.8111 26.3742 38.3464ZM10.9545 8.35302L8.50809 8.36122L8.50097 14.4494C8.50116 14.6692 8.47805 14.9201 8.51175 15.1363L10.9572 15.1323L13.2101 15.1348C13.2358 14.6658 13.307 14.2078 13.3265 13.7395L13.3536 8.36877L10.9545 8.35302ZM17.1441 8.35302L14.5358 8.36596C14.496 8.58154 14.5077 8.80991 14.5067 9.02844L14.4995 14.2738C14.4916 14.4328 14.381 15.0538 14.4383 15.1517L31.325 15.1323L33.6341 15.1439L33.5415 13.6135C33.5267 13.4231 33.4851 13.2359 33.4763 13.045L33.466 11.3422C33.4639 10.314 33.4726 9.37968 33.7304 8.37144L17.1441 8.35302ZM38.0503 8.35302L34.9124 8.36319C34.6669 9.30374 34.6416 10.3206 34.6437 11.2856L34.6743 13.2542C34.6933 13.6367 34.7333 14.0091 34.7586 14.3915L34.8347 15.1238L36.1904 15.1323L39.5084 15.1373L39.4871 9.06032C39.4865 8.83251 39.4978 8.59129 39.4695 8.3653L38.0503 8.35302ZM8.41575 16.357L8.03002 21.1648C9.27862 21.1896 10.3549 20.6089 11.2645 19.8025C11.9836 19.0858 12.4932 18.2136 12.7923 17.2432L12.9347 16.7464C12.9668 16.6169 12.9823 16.4747 13.0306 16.3507L8.41575 16.357ZM14.2365 16.3503C14.1605 16.4981 14.1562 16.6784 14.1173 16.8403C13.3822 19.8965 11.2602 22.3415 7.90842 22.3741L6.56241 36.0193L13.6994 36.0224C13.7475 35.9072 13.7689 35.7964 13.8047 35.6788L16.9931 24.3616C17.1043 23.9646 17.1945 23.5131 17.3695 23.1399C17.5726 22.7067 18.1603 22.7342 18.3735 23.1566L18.3937 23.1958C18.4396 23.2957 18.4502 23.3874 18.4522 23.4963C18.4003 23.9024 18.2578 24.4098 18.1111 24.7913C17.956 25.1946 17.8758 25.6424 17.7577 26.059L17.4857 27.0429C17.3506 27.4848 17.2384 27.9254 17.1174 28.3688L15.2047 35.1158C15.146 35.3079 14.9327 35.8252 14.9664 36.0185L20.3003 36.0276L23.0032 24.1631C23.1722 23.4047 23.357 23.2012 23.1862 22.4251C23.0632 21.8659 23.0934 21.313 23.0931 20.7452L23.0925 16.8615C23.0924 16.6927 23.1034 16.5171 23.0817 16.35L14.2365 16.3503ZM35.23 16.3547L35.0179 16.3831C35.0664 16.6153 35.1067 16.9042 35.1944 17.1223L35.6225 18.2789C36.1653 19.6608 37.846 20.8336 39.2693 21.095L39.8167 21.1717L39.949 21.1663C39.9786 21.0832 39.951 20.9485 39.945 20.8597L39.6064 16.3465L35.23 16.3547ZM26.9225 16.357L24.2803 16.3693L24.2766 21.452C24.2767 21.6487 24.2545 21.8764 24.3042 22.0667L27.5726 34.939C27.6308 35.209 27.6973 35.5051 27.7894 35.7645L27.8632 36.0447L33.1312 36.009C33.0395 35.8623 33.0055 35.5996 32.9512 35.4283L30.3548 26.4823C30.0826 25.5325 29.7683 24.578 29.5546 23.6136C29.3958 22.8973 30.2943 22.4558 30.5853 23.0824L30.611 23.1448C30.6367 23.2084 30.655 23.2668 30.674 23.3323L31.5561 26.4409L32.9155 31.1473C32.9235 31.1803 32.9343 31.2091 32.9459 31.2408L34.2381 35.6754C34.2821 35.7917 34.288 35.9189 34.3298 36.0362L41.4122 36.0286L40.1121 22.388C39.7517 22.348 39.3811 22.3419 39.0244 22.2758C36.1527 21.7437 34.1876 19.1757 33.8375 16.362L27.1869 16.3576C27.1337 16.3576 26.9661 16.3758 26.9225 16.357ZM5.88563 37.2256C5.61145 37.5265 5.7165 38.2299 5.85872 38.5667L5.90925 38.7191C6.16256 39.6004 7.242 40.3352 8.14162 40.4167C8.65837 40.4635 9.21291 40.4251 9.73308 40.4253L17.5378 40.4243C18.3224 40.4237 19.0059 40.3039 19.6098 39.7443C20.2729 39.1088 20.6207 38.1366 20.4357 37.2215L6.36652 37.2202C6.21206 37.2202 6.03783 37.206 5.88563 37.2256ZM27.6556 37.2388C27.5638 37.3372 27.5491 37.4148 27.5434 37.5343C27.4738 38.9861 28.2932 40.2406 29.824 40.4112C30.1155 40.4437 30.4234 40.4247 30.7171 40.4249L38.3266 40.425C39.556 40.4243 40.4478 40.5669 41.4465 39.6708C41.9687 39.1474 42.2862 38.4891 42.2831 37.74C42.2814 37.347 42.2453 37.2355 41.8714 37.2261L29.5977 37.2253C28.9742 37.2251 28.3253 37.1893 27.7045 37.2319L27.6556 37.2388Z" fill="black"/>
</svg>
