<svg width="48" height="48" viewBox="0 0 48 48" fill="none" xmlns="http://www.w3.org/2000/svg">
<path d="M28.6985 27.1775C27.2357 28.9298 26.547 31.1942 26.4267 33.4521L26.4175 39.0009C26.4174 39.3599 26.5354 39.6905 26.1906 39.9094C25.7625 40.1812 25.3762 39.9016 24.9566 39.777C23.482 39.3393 22.1875 40.1709 21.8637 40.0727L21.8205 40.0574C21.3955 39.9129 21.4001 39.5469 21.3995 39.179L21.3879 34.1715C21.3814 33.9992 21.3826 33.8114 21.3501 33.642L21.1884 32.5074C20.7349 30.2727 19.4944 28.3204 17.9896 26.6447C15.9116 24.3305 13.4761 22.583 10.5056 21.5786L7.60738 20.823C7.0071 20.7027 6.49897 20.7257 6.36116 20.0017C6.26558 19.4993 6.28724 18.8872 6.32868 18.3773L7.01933 13.114L7.33996 9.63244C7.38913 8.99424 7.30143 8.08149 8.01726 7.94939C8.3233 7.9432 8.59926 8.10394 8.88726 8.187L12.6602 9.08527L18.3094 9.75952C19.1174 9.79983 19.9098 9.88552 20.719 9.88885L27.8732 9.86433C28.0536 9.85603 28.2218 9.8048 28.3999 9.79406L32.996 9.36478C34.8288 9.11002 36.6616 8.79099 38.4646 8.36531L39.8019 8.02224C39.9517 7.98891 39.9803 7.97616 40.1241 8.02702L40.1491 8.03597C40.3182 8.09831 40.4145 8.21161 40.4842 8.37408L40.5 8.41369C40.6074 8.65495 40.5817 8.93555 40.6063 9.19392L40.7941 11.4671L41.4396 16.5465C41.5383 17.2617 41.8781 19.934 41.5471 20.4579L41.4296 20.6363C41.2134 20.9024 40.8202 20.8639 40.5141 20.9024C35.974 21.4735 31.5419 23.4925 28.6985 27.1775ZM8.6316 9.44958C8.591 10.1135 8.60436 10.5312 8.49669 11.1959C9.0793 11.4171 9.72561 11.5327 10.3354 11.6587L12.0353 11.9894L14.0138 12.2195C14.156 12.2334 14.295 12.2682 14.4377 12.2806L16.1305 12.4011L29.8826 12.4129C30.9012 12.4135 31.9458 12.4605 32.9615 12.3915C33.9036 12.3275 35.0593 12.1658 35.9767 11.9965L39.0838 11.293C39.1901 11.2667 39.3464 11.2429 39.4413 11.1911L39.4542 10.8335L39.3729 9.49697L35.0459 10.3777L30.9025 10.9336L27.2976 11.1668C27.0658 11.1767 26.8385 11.2212 26.6068 11.2282L20.7581 11.2258L15.5386 10.8341C13.1998 10.557 10.8903 10.1216 8.6316 9.44958ZM39.5657 12.4332C37.7026 13.207 34.0708 13.6802 32.1242 13.7571L25.3899 13.7809C25.9161 14.5587 25.4718 16.055 24.9373 16.7042C24.783 16.8915 24.5964 17.0583 24.4582 17.2584C23.8561 18.1307 24.2012 18.9743 24.8253 19.6663C25.1205 19.9937 25.266 20.2957 25.4231 20.7029L25.5339 21.1112C25.6322 21.4065 25.5928 21.9841 25.5112 22.2666L25.4868 22.371C25.1124 24.141 23.4531 24.1239 23.7256 22.9882C23.7712 22.7981 23.9358 22.6439 24.045 22.4879C24.6525 21.6203 24.1486 20.8624 23.5616 20.2145C22.6662 19.2262 22.6379 17.2491 23.5737 16.2563C24.0725 15.7271 24.4756 15.2296 24.2883 14.4371L24.2823 14.4107C24.2239 14.1734 24.0473 13.9269 23.8516 13.7837C23.333 13.7349 22.7936 13.7643 22.2725 13.7641L16.6877 13.7601L12.7979 13.4115C11.3063 13.2131 9.80863 12.9534 8.35865 12.5445L7.7375 17.0572C7.64015 17.8297 7.4781 18.7138 7.58765 19.4945L7.63199 19.5144C7.90433 19.5506 8.16022 19.5762 8.40936 19.6285L9.71502 19.9695C12.5051 20.7325 15.1956 22.1775 17.3461 24.1169C18.6401 25.2839 20.3936 27.3724 21.1848 28.8629L21.6726 29.851C21.8812 30.274 21.9963 30.7103 22.1634 31.144L22.3484 31.8414C22.5436 32.4894 22.4773 33.1287 22.6196 33.6527L24.3844 33.6546C24.6285 33.6545 24.9289 33.6882 25.1673 33.646C25.1541 32.571 25.358 31.2113 25.6633 30.2031C27.2974 24.8055 32.7992 21.2099 38.0764 20.027L40.3639 19.6071C40.4739 18.3494 40.2201 17.1222 40.0591 15.8809L39.6372 12.4332C39.5883 12.4241 39.6121 12.4237 39.5657 12.4332ZM22.6927 34.9657C22.6148 35.6892 22.5945 37.7757 22.686 38.4968L23.3528 38.3986C23.9187 38.2993 24.4594 38.4195 25.0197 38.4599L25.1346 34.974L22.6927 34.9657Z" fill="black"/>
</svg>
