<svg width="48" height="48" viewBox="0 0 48 48" fill="none" xmlns="http://www.w3.org/2000/svg">
<path d="M31.8103 34.5791L29.6308 35.2567C27.7659 35.9029 25.3312 35.6064 24.6135 33.4918L24.6007 33.4534C24.5023 33.1656 24.4936 32.8446 24.4872 32.5434L23.5405 32.5378C23.3638 34.8132 21.5723 35.866 19.3507 35.5082C18.8072 35.4207 18.2759 35.1655 17.7553 34.9917C16.2127 34.4768 14.6532 34.1342 13.027 34.0515C12.3471 34.0169 11.702 34.0864 11.0324 33.9354C7.88317 33.2251 6.9466 29.8596 7.08128 27.0184C7.10706 26.4748 7.21942 25.9307 7.31167 25.395C7.7236 23.0019 8.46634 20.6876 9.18423 18.3719L9.54985 17.1856C9.64393 16.8948 9.75624 16.6026 9.8349 16.3076C9.90432 16.0473 9.89448 15.7811 9.97918 15.5161C10.1152 15.0904 10.3163 14.6799 10.5207 14.2837C10.734 13.8706 10.69 14.1625 10.6912 13.5963L10.69 12.6332C10.6891 11.6447 11.0724 10.9352 12.0889 10.717L35.8596 10.709C36.018 10.7164 36.233 10.7873 36.3752 10.8568C37.8957 11.6 37.0406 13.6882 37.3575 14.2074C37.6012 14.6068 37.8008 15.0067 37.969 15.4457L38.0722 15.7751C38.1392 15.9665 38.1072 16.1785 38.1708 16.3744L39.4515 20.3823C39.4611 20.4182 39.4703 20.4518 39.4839 20.4864L40.509 24.2274C40.6777 24.756 40.7096 25.4341 40.7871 25.9809C41.0912 28.1284 40.8468 30.8783 39.3875 32.5426C38.7182 33.306 37.6367 33.929 36.6136 34.027C36.0715 34.0788 35.5104 34.0209 34.9638 34.0585C33.9119 34.1306 32.8289 34.3064 31.8103 34.5791ZM12.4063 12.0258C11.8986 12.0692 11.9795 12.1276 11.9795 12.6074L11.9809 13.4197C12.0779 13.4634 12.256 13.4368 12.366 13.4368L35.5705 13.4395L36.0243 13.4685L36.0241 12.5043C36.0227 12.1838 36.0056 12.0481 35.6473 12.0295C34.8901 11.9902 34.1109 12.025 33.3512 12.0253L12.4063 12.0258ZM11.8411 14.7456L11.6955 14.7676C11.5711 14.9479 11.5947 15.2222 11.4487 15.3985L36.1352 15.4008L36.5404 15.4199C36.4392 15.2139 36.3798 14.9951 36.3065 14.7782C35.9576 14.7232 35.5978 14.7402 35.2456 14.7404L11.8411 14.7456ZM14.8011 16.7405L11.0046 16.75L9.33549 22.343C12.0206 23.0881 13.5587 23.8034 15.9596 25.2778C17.5375 26.2468 19.1748 27.3207 20.402 28.7207L21.1342 29.6042C21.6782 30.2252 22.4343 30.941 23.2619 31.143C25.4064 31.6663 26.7128 29.7617 27.9945 28.3989C28.3845 27.9842 28.8138 27.5999 29.2362 27.2182C31.4073 25.3194 34.3291 23.4953 37.0427 22.4986C37.5491 22.3126 38.0867 22.1918 38.6044 22.0387C38.5944 21.9219 38.544 21.7938 38.5097 21.6814L37.0849 17.1095C37.0531 16.992 37.0482 16.8506 36.9812 16.7471L14.8011 16.7405ZM38.9621 23.3793C36.0004 23.8484 31.6279 26.7016 29.565 28.6847L28.6992 29.5626C27.8716 30.4772 26.9459 31.681 25.7465 32.1285C25.7756 32.9861 25.8421 33.5246 26.6695 34.0033C27.237 34.2781 28.0693 34.3821 28.6772 34.1729L29.8616 33.7946C30.8147 33.4858 31.7417 33.2023 32.7307 33.024L33.9143 32.8373C34.8676 32.7147 36.4382 32.823 37.1675 32.5401C39.9333 31.4672 39.8044 27.2615 39.3379 24.8729L38.9621 23.3793ZM9.0174 23.638C8.78682 24.5304 8.61535 25.4184 8.49638 26.3317C8.34395 27.5023 8.31765 28.7364 8.66546 29.8785L8.80309 30.3308C9.10196 31.3352 9.96034 32.2113 10.9306 32.5712C11.6966 32.8553 12.599 32.6858 13.4046 32.7374C14.9076 32.8336 16.4682 33.1908 17.8888 33.6716C19.0128 34.0521 20.0547 34.6015 21.2485 34.0453L21.3181 34.0085C22.0284 33.5828 22.2814 32.9826 22.2326 32.1525L22.1962 32.0845C20.7096 31.5528 19.8679 29.9335 18.754 28.9173C16.9417 27.2639 13.575 25.2112 11.243 24.3049C10.5192 24.0236 9.77092 23.8216 9.0174 23.638Z" fill="black"/>
<path d="M24.1659 18.6341C23.7153 18.6233 23.3818 18.7947 23.0254 19.053C21.8762 19.8856 21.0207 17.6565 23.9489 17.3069C24.7877 17.2057 26.9458 18.3744 25.8385 19.1219L25.7749 19.164C25.2908 19.4737 24.8427 18.7642 24.1999 18.6403L24.1659 18.6341Z" fill="black"/>
</svg>
