<svg width="48" height="48" viewBox="0 0 48 48" fill="none" xmlns="http://www.w3.org/2000/svg">
<path d="M28.7241 41.5597C28.3115 41.6211 27.8879 41.6012 27.4729 41.6289L23.1198 41.6988C22.8458 41.6887 22.5754 41.6374 22.3013 41.6279L21.2698 41.603L18.0239 41.2998C15.671 40.914 13.0694 39.3031 12.1159 37.0389L12.1043 37.0108C12.0389 37.1344 12.0211 37.3266 11.9999 37.4649L11.3764 39.9905C11.0434 41.0046 10.5053 40.7733 9.68653 40.5812L8.48859 40.291C7.80881 40.1012 5.32036 39.3703 4.97639 38.7319L4.91709 38.61C4.84673 38.4212 5.0873 37.7388 5.13403 37.4507L6.27464 30.4454L7.96144 17.5236C8.32833 14.8948 8.7353 11.897 11.5579 10.7953C12.1201 10.5759 12.7275 10.4428 13.3091 10.282C15.1915 9.76152 17.1375 9.12407 18.1957 7.35248C18.4739 6.88668 18.486 6.41629 19.0662 6.21388L28.8508 6.21191C29.2945 6.22926 29.477 6.65868 29.6266 7.0079C30.3789 8.76388 32.3281 9.61185 34.0687 10.0188C34.7119 10.1692 35.3528 10.2758 35.9728 10.5156C38.1103 11.3421 39.3972 13.3076 39.6524 15.5276L42.0135 32.4259L42.8771 37.5853C42.9879 38.125 43.2595 38.4179 42.945 38.8613C42.4379 39.576 38.4712 40.5795 37.6371 40.7249C36.541 40.916 36.4563 39.6125 36.2731 38.8415C36.1431 38.2942 35.9984 37.747 35.907 37.1916L35.8995 37.1444C35.6469 37.5259 35.4383 37.9312 35.1412 38.2827C33.308 40.4501 31.4594 41.3438 28.7241 41.5597ZM20.4845 7.73704L20.5329 7.93682C20.5494 8.02729 20.5946 8.10562 20.6251 8.19149L20.7669 8.58993C21.2609 9.90745 21.4948 10.0704 22.3544 11.0729C22.8308 11.6286 23.2246 12.2759 23.5335 12.9376C23.7215 13.3401 23.8344 13.7673 24.0281 14.1632C24.2431 13.278 24.6585 12.4584 25.1649 11.7049C26.0887 10.3984 27.0241 9.69023 27.4609 8.02799C27.485 7.9363 27.4859 7.8359 27.54 7.75593L20.4845 7.73704ZM19.1569 8.56218C18.0831 10.122 16.5604 10.8261 14.8323 11.3908L13.4815 11.8205C12.273 12.1584 10.8575 12.5241 10.3584 13.8631C11.7164 15.1926 12.5952 16.8344 13.2705 18.586L13.5196 19.3739C13.8547 20.2867 14.0671 23.2175 13.8652 24.2519L13.2486 29.1681L17.2411 30.2785L17.6205 28.0372C17.6704 27.7555 17.6877 27.4247 17.7763 27.1534C17.9794 26.5315 18.785 26.4383 19.1244 26.9852L19.1881 27.1094C19.2669 27.2783 19.217 27.5737 19.1815 27.7553L18.5758 31.2233C18.4832 31.7154 18.2254 32.0766 17.6511 31.9661L13.5209 30.8273L13.0382 30.7049L12.982 31.3477C12.8116 32.7912 12.5229 34.0807 13.0807 35.5079L13.3154 36.0888C13.4021 36.3419 13.5604 36.6074 13.7007 36.8364C15.3142 39.4705 17.7675 39.8842 20.6241 40.0667C20.8853 40.0834 21.1387 40.1234 21.4014 40.1316L23.2546 40.1578L23.256 20.8133C23.2556 17.8228 23.3807 15.126 21.6091 12.5509C21.3164 12.1254 20.9631 11.7695 20.6345 11.376C20.0067 10.624 19.4321 9.51196 19.1569 8.56218ZM28.8488 8.58332C28.1231 10.4255 27.8777 10.6755 26.6943 12.1462C26.0333 12.9677 25.434 14.083 25.1928 15.1259L24.9389 16.2071C24.7298 17.2769 24.7248 18.2833 24.7245 19.3676L24.729 40.144L27.3 40.1336C28.2403 40.0929 29.5636 39.9567 30.4341 39.7245C33.2512 38.9732 35.6606 35.8803 35.2178 32.9002L35.0057 31.2564C34.9869 31.0861 34.9778 30.908 34.9236 30.7447L34.4476 30.8819L31.102 31.8112C30.5573 31.9432 29.7908 32.2887 29.508 31.5352L29.4965 31.5057C29.4058 31.2626 29.3792 30.9445 29.3376 30.6867L28.8652 27.9924C28.8193 27.7264 28.6999 27.3616 28.8129 27.104C29.089 26.4749 29.9928 26.4581 30.1942 27.1671L30.7605 30.3412L34.7094 29.1937L34.244 25.4649C33.7571 21.2579 34.2098 16.8272 37.7035 13.9403C37.0874 12.394 35.5348 11.9198 34.0928 11.5736C32.135 11.1034 29.9789 10.4073 28.8488 8.58332ZM9.79495 15.4571C9.56077 16.3417 9.45905 17.2747 9.34158 18.1808L8.67881 23.7593L7.06214 34.9688L6.54173 37.9955C7.44098 38.4209 8.45667 38.7255 9.41663 38.968L10.0921 39.1259L10.4505 37.6889C11.0919 34.7126 11.4314 31.6777 11.8423 28.6647C12.4836 23.9618 13.3117 19.8875 10.0935 15.7737C10.0134 15.6714 9.92259 15.5333 9.81708 15.4586L9.79495 15.4571ZM38.194 15.4807C36.0004 17.9897 35.3478 20.1184 35.5596 23.4292L35.6297 24.5083L36.9517 34.455L37.3536 36.6983C37.4847 37.4325 37.5923 38.2116 37.8311 38.9181L37.899 39.13C38.145 39.0683 38.4178 39.0293 38.6551 38.9446L41.4607 37.982L38.194 15.4807Z" fill="black"/>
</svg>
