<svg width="48" height="48" viewBox="0 0 48 48" fill="none" xmlns="http://www.w3.org/2000/svg">
<path d="M29.709 39.3701C29.8825 39.6469 29.7789 40.778 29.7783 41.1435L29.7756 45.8737C29.7754 46.2831 29.8908 46.7992 29.4849 47.061L29.4588 47.0756C29.4571 47.0015 29.587 46.8792 29.6367 46.8171L29.6396 46.7465C29.6541 46.6825 29.6726 46.6536 29.6719 46.5839L29.7271 39.7702C29.7279 39.6331 29.6843 39.5033 29.709 39.3701Z" fill="black"/>
<path d="M22.3793 35.1254L22.367 37.613C22.3613 37.7308 22.3303 37.841 22.3202 37.9566L22.2367 38.8854C22.2021 39.1424 22.2165 39.4119 22.2163 39.6712L22.2168 46.099C22.2165 46.2832 22.2357 46.4875 22.191 46.6657L22.1817 46.7051C22.1178 46.8925 21.9438 47.0341 21.7736 47.1156L21.743 47.1306C21.3334 47.3228 20.4374 47.2216 19.9802 47.2211L19.3381 47.2202C18.5219 47.2164 18.3724 46.9722 18.3716 46.2513V42.1705C18.3709 41.1471 18.3766 40.5644 18.2193 39.5609L17.462 34.7793L17.1589 32.1951C17.1258 31.71 17.1472 31.2092 17.1474 30.7221L17.1568 29.0511C17.1835 28.5061 17.2657 27.9329 17.3871 27.4013C17.9716 24.842 18.5099 24.1457 17.9857 21.4225C17.8027 20.4718 17.4993 19.5447 17.2254 18.6176L16.5441 15.9995C16.3553 15.15 16.1877 14.0788 16.147 13.1995L16.1418 8.90195C16.1448 6.54555 16.671 5.22967 17.5457 3.03814C17.7677 2.48187 18.1318 1.02267 18.7734 0.823286L18.8001 0.814746C19.0777 0.732986 19.4014 0.897185 19.6589 0.986392C22.179 1.85944 25.4365 1.83061 28.0241 1.09083C28.3527 0.996897 28.7113 0.826966 29.0457 0.782585C29.7248 0.692463 29.9264 1.78854 30.1288 2.23136L30.2893 2.64824C30.3186 2.74351 30.3703 2.83344 30.4075 2.92622L30.7044 3.65504C31.4846 5.53234 31.8618 6.94722 31.8687 8.99655L31.8594 13.4243C31.7897 14.719 31.5443 16.0618 31.18 17.3016C30.4012 19.9511 29.1076 22.9924 30.1327 25.7551L30.4768 27.1212C30.7632 28.6555 31.0732 30.9477 30.7853 32.4437C30.6845 32.9675 30.6863 33.5216 30.6159 34.0503L29.9115 38.4692C29.8793 38.6789 29.8876 39.1099 29.6922 39.2442L29.7084 39.3694C29.6842 39.5026 29.7278 39.6324 29.727 39.7695L29.6718 46.5832C29.6725 46.6529 29.654 46.6818 29.6395 46.7458L29.6366 46.8163C29.5869 46.8784 29.457 47.0008 29.4587 47.0748C29.0577 47.3472 28.0115 47.2183 27.5343 47.2192L26.881 47.2202C25.5728 47.2206 25.9127 46.2235 25.9115 45.2182L25.8923 41.6645C25.8839 41.4393 25.846 41.2173 25.829 40.9929L25.666 37.6912C25.6195 36.9187 25.54 36.1366 25.5446 35.3625C25.5488 34.6521 25.6752 33.9432 25.7253 33.2349C25.8003 32.1742 25.824 30.3782 25.7351 29.312L25.5247 27.738C25.452 27.2759 25.3964 26.8065 25.2979 26.349L24.8937 24.6208L24.0732 19.6004C24.0654 19.5468 24.0686 19.4665 24.0281 19.4318L23.9987 19.5114C23.8176 19.9208 23.7848 20.4443 23.713 20.8873L22.6359 26.6416C22.3543 27.7813 22.2171 28.975 22.2158 30.1472L22.3793 35.1254ZM19.1763 38.3016C19.204 38.4084 19.2048 38.5162 19.2214 38.6247L19.4141 39.8842C19.5625 40.9412 19.5464 42.0493 19.5468 43.113L19.5475 45.9477C19.6983 45.9715 19.8741 45.9535 20.0274 45.9535L21.0092 45.9524C21.0438 45.8061 21.0183 45.6057 21.0185 45.4514L21.0207 38.8629C21.025 38.5961 21.0822 38.3357 21.1055 38.0698C21.2582 36.3301 21.2397 35.2225 21.1283 33.4936C21.1134 33.2616 21.1473 32.9674 21.0833 32.7472L21.071 32.7054C21.0357 32.5634 21.0346 32.3887 21.0273 32.2426L21.0905 28.7779C21.1509 28.1395 21.2271 27.4957 21.346 26.8652L21.9396 24.1811L22.6825 19.57C22.8609 18.5599 22.9309 17.7461 22.9358 16.7214L22.9361 15.3741C22.9241 15.0096 22.86 14.6458 22.8157 14.2848L22.6926 13.2681C22.6261 12.7284 22.4854 12.085 22.672 11.558C23.1772 10.1305 25.0597 10.261 25.3543 11.7537C25.5108 12.5463 25.2836 14.2278 25.0743 15.1052C24.9952 15.4365 25.0263 15.803 25.0263 16.1429L25.126 18.3278L25.3593 19.9919C25.3852 20.1468 25.3878 20.3057 25.4142 20.4603L25.7408 22.4921C25.7602 22.6149 25.7629 22.7419 25.7837 22.863L25.9374 23.6817C25.9772 23.9426 26.0018 24.2243 26.0635 24.4802L26.4842 26.2263C26.5809 26.6219 26.6659 27.0406 26.7212 27.4444L26.913 29.5571C26.9492 30.1887 26.9928 30.6409 26.9717 31.305C26.9614 31.6283 26.8944 31.9492 26.8805 32.2737L26.875 33.8249C26.8638 34.0698 26.8155 34.3136 26.794 34.5583L26.8148 37.3239C26.8286 37.4703 26.8619 37.6144 26.8726 37.7612L26.9834 39.595C27.0045 39.8881 27.0702 40.1805 27.0807 40.472L27.1378 44.3069C27.1428 44.851 27.1097 45.4135 27.1516 45.9547L28.5338 45.9508C28.5088 45.6648 28.5224 45.3701 28.5221 45.083L28.5216 41.1262C28.522 39.9759 28.5773 39.3084 28.7366 38.1612L29.6165 32.3408L29.664 31.4637C29.7345 30.2388 29.7052 29.0524 29.4523 27.8416C29.2442 26.845 28.9014 25.8667 28.7189 24.8651C28.3105 22.6248 28.9473 20.5274 29.6123 18.4018C30.0145 17.116 30.3442 15.8494 30.5594 14.5192C30.7532 13.3219 30.6875 12.092 30.6876 10.8819C30.6877 8.77989 30.8122 6.55014 29.8049 4.62492C29.622 4.74025 29.4591 4.88406 29.2766 5.00167C28.122 5.74563 26.6368 5.90702 25.2983 6.0063L24.5953 6.064C22.2127 6.16666 20.2246 5.84866 18.2103 4.5907L18.1657 4.66617C17.5913 5.81537 17.3205 7.18623 17.3188 8.46845L17.3175 12.2818C17.3179 12.7637 17.2959 13.2574 17.3403 13.7375L17.4777 14.7045C17.4969 14.8167 17.5048 14.9364 17.5316 15.0466L17.7743 16.0266C17.7906 16.1068 17.7934 16.1992 17.8201 16.2761L19.046 20.716C19.4039 21.7791 19.4909 23.2885 19.3635 24.3747C19.2193 25.6044 18.7108 26.7916 18.475 28.0075C18.2732 29.0482 18.2117 30.3213 18.2932 31.3925L18.7911 35.7051C18.8152 35.8531 18.8188 36.0047 18.8438 36.152L19.0324 37.4059C19.0788 37.7011 19.1486 38.0052 19.1763 38.3016ZM28.7906 2.09734C25.9161 3.00994 23.3676 3.08584 20.4228 2.4127L19.1656 2.09808L18.658 3.48205C18.8832 3.67044 19.1581 3.80993 19.4217 3.93806C20.2835 4.4113 21.2433 4.59417 22.207 4.71147C24.4113 4.97978 27.5463 4.9735 29.3328 3.51249L28.7906 2.09734ZM23.9406 11.7536C23.604 11.9744 23.9593 13.5812 24.0766 13.9327C24.0647 13.5491 24.4425 11.7261 23.9406 11.7536ZM19.5473 45.937L19.5468 43.113C19.5464 42.0493 19.5625 40.9412 19.4141 39.8842L19.2214 38.6247C19.2048 38.5162 19.204 38.4084 19.1763 38.3016L19.14 38.3232C19.1514 38.4104 19.1405 38.5833 19.1838 38.6481L19.1831 38.6837C19.1824 38.7755 19.2125 39.0062 19.2538 39.082L19.2451 39.1168C19.2345 39.2623 19.2785 39.35 19.3244 39.4684C19.3579 39.555 19.3167 39.704 19.3478 39.8083L19.3699 39.8965C19.5062 40.3477 19.4549 40.8342 19.4647 41.2973L19.4766 45.495C19.4763 45.6387 19.4651 45.7799 19.5077 45.9189L19.5473 45.937ZM22.3793 35.1254L22.2149 30.1472L22.222 33.5096C22.2221 33.6532 22.1988 33.8396 22.252 33.9723L22.3317 34.195C22.4149 34.4264 22.3473 34.7241 22.3645 34.9684L22.3793 35.1254Z" fill="black"/>
<path d="M22.3795 35.1256L22.3647 34.9687C22.3474 34.7244 22.4151 34.4267 22.3319 34.1953L22.2522 33.9726C22.1989 33.8399 22.2223 33.6535 22.2222 33.5099L22.2151 30.1475L22.3795 35.1256Z" fill="black"/>
<path d="M19.5474 45.9371L19.5078 45.919C19.4652 45.7801 19.4764 45.6389 19.4767 45.4952L19.4648 41.2975C19.455 40.8344 19.5063 40.3479 19.3701 39.8966L19.3479 39.8085C19.3169 39.7042 19.3581 39.5551 19.3245 39.4686C19.2786 39.3502 19.2346 39.2625 19.2452 39.117L19.2539 39.0821C19.2127 39.0064 19.1825 38.7757 19.1833 38.6839L19.1839 38.6483C19.1406 38.5834 19.1515 38.4106 19.1401 38.3234L19.1764 38.3018C19.2041 38.4085 19.205 38.5164 19.2215 38.6249L19.4143 39.8844C19.5627 40.9413 19.5465 42.0495 19.5469 43.1132L19.5474 45.9371Z" fill="black"/>
</svg>
