<svg width="48" height="48" viewBox="0 0 48 48" fill="none" xmlns="http://www.w3.org/2000/svg">
<path d="M25.1797 26.2807C25.0294 25.7831 24.973 24.4472 24.9302 23.9078L24.785 22.3593C24.6813 21.1995 24.7796 19.6572 23.986 18.699C23.6068 19.1582 23.419 19.892 23.353 20.4637L23.1231 23.6827C22.9915 25.3906 22.737 27.0972 22.4211 28.7798L21.2432 33.9579C20.9699 34.8873 20.703 35.8174 20.4417 36.7502C19.7829 39.1029 19.4246 40.8424 19.231 43.2783L19.2003 43.9237C19.185 44.98 18.9172 44.98 18.0484 44.9814L14.8473 44.9819C14.5525 44.9817 14.062 45.0783 13.8092 44.9029L13.7813 44.883C13.4286 44.6405 13.4305 44.4637 13.4297 44.0765L13.4231 40.049C13.4142 39.6008 13.3448 39.1316 13.3008 38.6835L12.3146 30.6532L11.9356 25.8049L11.91 24.531C11.8957 24.2248 11.8355 23.9222 11.8236 23.6169L11.8017 22.0198C11.7972 21.8383 11.7643 21.6606 11.7578 21.4807L11.8282 16.4355L11.8953 15.7216C12.0308 13.7446 12.2764 12.6091 12.8086 10.7012L14.2219 5.51978L14.5338 4.11769C14.6461 3.60855 14.6463 3.18708 15.2287 3.02655L32.3761 3.01855C32.7913 3.01994 33.0615 3.04768 33.263 3.47643L33.281 3.51587C33.3198 3.59822 33.3481 3.68432 33.3639 3.77431L35.8221 13.1994C35.9446 13.5851 35.9689 14.0331 36.0115 14.4341L36.1082 15.5159C36.1224 15.6606 36.1512 15.8042 36.1593 15.9495L36.1991 18.4006L36.1539 24.1537C36.1468 24.361 36.0946 24.566 36.0864 24.7734L36.0567 26.0276C36.0498 26.1768 36.017 26.3232 36.0073 26.4721L35.6658 30.9257L34.6894 38.4713L34.5993 39.9006L34.5535 43.6695C34.558 44.1344 34.6664 44.5627 34.2363 44.8712L34.1993 44.8975C33.9841 45.0528 33.6569 44.9806 33.4068 44.981L30.2475 44.9813C28.5707 44.9799 28.8958 44.7641 28.7885 43.3901L28.5172 40.887C28.3765 39.7729 28.0905 38.684 27.7934 37.6039L26.7425 33.8909C26.2361 32.0213 25.7688 30.1202 25.4557 28.2073L25.1797 26.2807ZM17.6231 4.2483L15.7403 4.25753C15.677 4.41155 15.6567 4.57817 15.6211 4.74001L15.4184 5.69556C15.3349 6.04773 15.2053 6.40417 15.1428 6.75901L30.2988 6.76135L32.8701 6.75507L32.3704 4.66311C32.3419 4.55676 32.3197 4.32567 32.2513 4.25503L17.6231 4.2483ZM14.8237 7.96956L13.5741 12.3969C13.717 12.2955 13.8558 12.1941 13.9641 12.0542C14.7203 11.1492 15.2536 9.18798 15.5457 7.99084L14.8237 7.96956ZM16.7905 7.96464C16.7458 8.22015 16.7617 8.4796 16.7151 8.7369C16.4745 10.0676 15.8088 12.4171 14.7186 13.1867L14.2762 13.4733C13.8022 13.7702 13.3643 13.5517 13.3128 13.8401C13.237 14.2644 13.2241 14.7022 13.1815 15.1304L12.9864 17.2568L12.9843 22.6423C13.0121 23.2478 13.0716 23.854 13.0977 24.4573L13.1267 25.4985C13.136 25.6688 13.1739 25.8312 13.1834 26.0003L13.5096 30.7008C13.5234 30.8349 13.5541 30.9669 13.5653 31.1018L14.5407 39.4221C14.5889 40.0465 14.6372 40.6487 14.6383 41.2766L14.6631 43.2564C14.6694 43.4067 14.6493 43.5581 14.6719 43.7062L18.0347 43.7058C18.0944 42.6404 18.1428 41.5519 18.3246 40.4981C18.6865 38.4002 19.3029 36.3841 19.8862 34.3416L20.9058 30.2932C21.249 28.6851 21.5528 27.0453 21.7414 25.4117L21.9219 23.4159C21.9796 22.7612 22.0154 22.1474 22.0581 21.4949L22.1076 21.0512C22.1919 20.0159 22.3218 19.0922 22.8885 18.1943C24.1483 16.1982 25.4364 18.2317 25.6969 19.6217L25.8066 20.2498C25.8685 20.5693 25.8554 20.9124 25.8877 21.2365L26.1684 24.6319L26.5351 27.4407L27.293 31.273L27.7897 33.1467L27.848 33.3844C27.856 33.4256 27.8684 33.4582 27.8821 33.4973L28.0417 34.1069C28.0497 34.1417 28.0601 34.1717 28.0717 34.2052L29.2851 38.5564C29.4076 38.9446 29.4674 39.3758 29.5358 39.7769L29.9186 42.7709C29.9389 43.0797 29.9792 43.3763 29.984 43.6886C30.0529 43.7175 30.1562 43.7037 30.2325 43.7038L30.8777 43.7041C31.6975 43.7044 32.535 43.7443 33.3526 43.7024L33.3586 40.9861C33.3607 40.1153 33.4152 39.3216 33.4927 38.4612L34.3077 32.3126L34.8108 26.4722C34.8276 26.1924 34.8761 25.9185 34.8839 25.6373L34.9886 22.9127L35.0349 19.6471L34.9089 15.6609C34.8675 15.024 34.8355 14.3819 34.7354 13.7508C34.5932 13.6908 34.4252 13.6826 34.2774 13.6368C33.6555 13.4443 33.0398 13.0993 32.6133 12.5973L32.5913 12.5717C32.2453 12.1524 32.0891 11.5405 31.9159 11.0363C31.8292 10.7839 31.6909 10.5535 31.5997 10.3052C31.324 9.55417 31.2385 8.7654 31.2422 7.96993L25.5534 7.99543C25.7747 8.53567 25.8702 9.06296 25.9 9.64839L25.9003 12.6799C25.8967 12.7706 25.903 12.9286 25.8579 13.0096L25.8287 13.052C25.7253 13.203 25.6289 13.3313 25.44 13.3788C24.6008 13.59 24.7325 12.5447 24.7408 12.1058L24.7464 10.8527C24.748 9.9084 24.8142 8.78101 24.0735 8.08164C24.058 8.4924 24.1265 8.91803 24.1384 9.33418C24.1581 10.0219 24.1523 10.7164 24.0798 11.4008L23.9923 11.9814C23.9228 12.4789 23.5677 14.1551 22.8162 14.0298C22.0959 13.9097 22.3406 13.2774 22.4915 12.8411L22.7497 11.9732C22.8989 11.3748 22.9732 10.6877 22.959 10.0696L22.8795 8.20281C22.8759 8.13643 22.8846 8.04498 22.8542 7.98737L16.7905 7.96464ZM32.5054 7.96679C32.5135 8.73025 32.7731 9.57011 33.0017 10.2893C33.0985 10.5939 33.2668 10.8555 33.3956 11.1452C33.5989 11.6026 33.7031 12.0256 34.1945 12.2695L34.4127 12.3639L33.3149 8.37245C33.282 8.24064 33.265 8.09631 33.2004 7.97659L32.743 7.96717C32.6754 7.96712 32.5688 7.98245 32.5054 7.96679Z" fill="black"/>
</svg>
