<svg width="48" height="48" viewBox="0 0 48 48" fill="none" xmlns="http://www.w3.org/2000/svg">
<path d="M24.6137 22.2474C24.5709 21.9353 24.5802 21.6152 24.5527 21.3009L24.4495 20.0448C24.4323 19.8493 24.3977 19.6592 24.3904 19.4615L24.3143 17.8781C24.2911 17.5289 24.2992 17.2058 24.2121 16.8628L24.1866 16.7677C24.1555 16.6705 24.1001 16.6468 24.0153 16.6027C23.5953 16.6508 23.6268 18.0242 23.5939 18.4031L23.4263 21.6044L23.0637 24.8902C23.0174 25.4376 23.0788 26.0264 22.9721 26.5649C22.9381 26.7363 22.9488 26.9135 22.9491 27.0879L22.9433 30.855C22.9423 31.1382 22.8832 31.4158 22.8813 31.6932L22.8721 35.8095C22.8687 36.028 22.8302 36.2418 22.8262 36.4589L22.8051 37.8845L22.3083 44.7226C22.2931 45.0084 22.3128 45.3248 22.2438 45.6024L22.2361 45.6324C21.9098 47.0466 18.11 46.6516 17.2061 46.2618C16.5605 45.9834 16.7169 45.2102 16.6659 44.6322L15.7799 36.5534L15.3492 31.7579C15.3405 31.641 15.3136 31.5255 15.3057 31.4068L15.1942 29.2924L15.1759 27.6261C15.1703 27.4444 15.1273 27.2684 15.1223 27.0879L15.1235 21.6391C15.1285 21.4615 15.1757 21.2905 15.1804 21.113L15.1982 18.8374C15.2071 18.6774 15.2472 18.5288 15.2591 18.3709L15.5806 14.8926C15.6444 14.0565 15.5443 13.2028 15.6292 12.3717C15.7032 11.6477 15.9092 10.9421 16.0204 10.2231C16.1224 9.56369 16.0361 9.09077 16.2499 8.35371C16.5648 7.26897 17.1258 6.36152 17.3016 5.1431C16.8593 4.84924 16.4882 4.49261 16.3183 3.97781L16.3053 3.93734C16.1373 3.43538 16.1423 2.76394 16.6125 2.43074C17.1049 2.08183 16.8537 2.32398 17.2686 1.80472C17.5249 1.48398 17.9946 1.26824 18.3969 1.22702C18.9484 1.13895 19.4747 1.43465 19.9902 1.5776C20.9994 1.8574 22.0645 1.91165 23.1056 1.93797L25.9479 1.90972C26.1924 1.89187 26.4337 1.84583 26.6767 1.81596L27.679 1.67367C28.7516 1.47886 30.0027 0.681299 30.8 1.89799C30.9486 2.12472 30.9973 2.28303 31.2026 2.47221C31.5692 2.80993 31.9342 3.33318 31.7484 3.85708L31.736 3.89017C31.5506 4.41307 31.2386 4.68174 30.7937 4.98077C30.8758 5.83975 31.0066 6.352 31.2009 7.14799L31.7049 8.82002C31.7875 9.03372 32.0207 9.82258 32.0518 10L32.1175 10.3014C32.1836 10.7005 32.099 11.126 32.1782 11.5135C32.2242 11.739 32.2226 11.9841 32.2394 12.2138C32.3356 13.5234 32.6715 14.8795 32.7719 16.2331C32.8531 17.3277 32.8196 18.4352 32.8197 19.5325L32.778 28.996C32.7721 29.137 32.7431 29.2735 32.7316 29.4136L32.6724 31.3003C32.6626 31.481 32.6309 31.6597 32.6243 31.8407L32.4054 35.1112L31.9216 39.8449L31.3111 44.969C31.288 45.2514 31.3143 45.6757 31.193 45.9376C30.8199 46.7429 26.0932 47.041 25.7657 45.6535L25.7583 45.6206C25.6718 45.2498 25.7069 44.8157 25.6758 44.434L25.3448 40.7227C25.2948 39.9479 25.2528 39.2099 25.2184 38.4328C25.2059 38.149 25.1482 37.8698 25.1348 37.5877L25.1241 35.2304C25.1225 34.88 25.0574 34.5398 25.0539 34.1953L25.0455 30.6379L24.9427 27.5214L24.7793 24.9059C24.7636 24.6256 24.7617 24.321 24.7161 24.0444C24.6191 23.4551 24.7275 22.8335 24.6137 22.2474ZM29.3753 2.48727C28.1622 2.87202 26.8994 3.16808 25.6191 3.18298L24.5735 3.1879C22.8103 3.19033 21.0076 3.24242 19.3043 2.69384C18.1351 2.31728 18.5499 2.50495 17.762 3.24344C17.6576 3.34129 17.5239 3.3982 17.4186 3.49206C17.6966 4.00332 18.5439 4.43079 19.0999 4.60524C19.5186 4.76369 19.9507 4.93867 20.3924 5.01775C20.6373 5.06158 20.8979 5.0493 21.1363 5.11075L21.9275 5.35117C22.9495 5.63711 23.8159 5.92858 24.8526 5.65806L26.7902 5.10991C28.018 4.7748 29.7268 4.65618 30.5314 3.52237C30.195 3.23881 29.8621 2.77062 29.6107 2.58939L29.5793 2.56636C29.5121 2.51832 29.4563 2.50057 29.3753 2.48727ZM29.6136 5.70658L27.5905 6.19989L27.7894 6.8995C28.1161 7.7785 28.5367 8.37471 29.2706 8.97321C29.7023 9.24822 30.1473 9.50777 30.6548 9.61366C30.6572 9.48522 30.5911 9.31117 30.5582 9.1848L29.9533 7.20658C29.8185 6.70896 29.7508 6.21869 29.6719 5.71099L29.6136 5.70658ZM18.4468 5.73002C18.326 6.12447 18.2438 6.52408 18.1108 6.91685C17.8173 7.78305 17.34 8.67021 17.309 9.60025C17.7787 9.51771 18.1871 9.32369 18.5796 9.05388C19.5285 8.30842 19.9938 7.42525 20.248 6.23308L18.7157 5.81524C18.6341 5.78711 18.5328 5.73803 18.4468 5.73002ZM26.4212 6.57377L26.3837 6.58844C25.5729 6.89936 24.5315 7.17508 23.6837 7.00994L21.7383 6.63161C21.3556 6.55183 21.4786 6.56444 21.3735 6.94877C20.8387 8.90556 19.2563 10.7284 17.1514 10.9697L16.9704 12.0581C16.8467 13.035 16.9426 14.0264 16.8704 15.0042L16.4485 19.3045C16.4316 19.5054 16.3874 19.7035 16.3771 19.9049L16.3739 27.9654C16.3753 28.5083 16.3577 29.0497 16.4554 29.5862C16.5578 30.1484 16.4268 30.742 16.5393 31.3162C16.6034 31.643 16.575 32.008 16.5975 32.3425L17.6885 42.3274L17.8518 44.7375C17.8616 44.8524 17.8604 44.9965 17.8968 45.1057L18.925 45.3348C19.6629 45.498 20.3597 45.3365 21.0658 45.1486C21.1069 44.871 21.1071 44.5895 21.1304 44.3101L21.41 40.4285C21.4241 40.2628 21.4563 40.1034 21.4663 39.9371L21.6559 34.8453L21.6643 29.9342L21.7545 27.4378C21.7572 26.993 21.8331 26.5788 21.8478 26.1398L22.2057 21.1787L22.2326 19.1531C22.2416 18.9642 22.2888 18.7955 22.3064 18.6112L22.5123 16.7656C22.6586 16.1683 22.9855 15.5701 23.6033 15.3591L23.7482 15.319C24.9685 15.0132 25.4277 16.4662 25.5145 17.4051C25.5819 18.1341 25.5906 18.8707 25.6506 19.6014L25.8841 23.2015C25.8967 23.3942 25.9345 23.581 25.9428 23.7751L25.9571 24.4888C25.9735 24.7519 26.0262 25.0045 26.0413 25.2656L26.1494 27.9481C26.1645 28.2705 26.2254 28.5879 26.239 28.9097L26.3294 33.0397L26.3381 36.3257C26.347 36.6151 26.4078 36.8978 26.415 37.1861L26.4205 38.3438C26.422 38.7911 26.4936 39.2114 26.5047 39.6558L26.8646 44.1026L26.8989 44.847C26.9183 45.1804 26.9555 45.1536 27.2696 45.226C28.0163 45.398 28.9277 45.4796 29.6729 45.2653L30.094 45.1246L30.654 40.2614L31.3 33.9394L31.3407 32.8086C31.3511 32.554 31.4009 32.3075 31.4118 32.0535L31.5263 27.4033L31.6085 26.1851L31.6101 16.9852C31.6005 16.5663 31.54 16.1517 31.5038 15.734L31.0611 12.5035C30.9848 11.9957 30.9585 11.4826 30.834 10.9823L30.8044 10.9785C28.9759 10.7284 27.1203 9.10291 26.656 7.31664C26.593 7.07421 26.5518 6.81114 26.4699 6.57611L26.4212 6.57377Z" fill="black"/>
</svg>
