<svg width="48" height="48" viewBox="0 0 48 48" fill="none" xmlns="http://www.w3.org/2000/svg">
<path d="M22.5557 21.2057L20.5222 41.692C20.3618 42.7413 20.1383 42.7508 19.1593 42.7524L16.5264 42.7532C15.6707 42.7532 15.5517 42.571 15.4483 41.7777C15.3756 41.22 15.3902 40.6895 15.3907 40.1263L15.3927 39.4537C15.3936 39.3169 15.3884 39.1622 15.4235 39.0297L16.1534 34.848C16.3602 33.9632 16.1796 32.9794 16.0682 32.091L15.5526 28.6762L13.8177 20.1425C13.7867 19.9977 13.7676 19.8481 13.7289 19.7051L13.7167 19.6584C13.6671 19.4185 13.6862 19.1349 13.6865 18.8905L13.6907 17.6388C13.6918 17.4126 13.6849 17.1831 13.6991 16.9574L13.7952 15.3754C13.9132 13.9354 14.3988 12.6454 14.9643 11.3324L16.4797 7.77232C16.6455 7.32743 16.8048 6.85578 16.9083 6.39195C17.1038 5.51534 16.9819 5.1371 18.1355 5.24876L19.7796 5.38123C19.9345 5.39614 20.087 5.42867 20.2424 5.43954L20.9891 5.47751C21.4738 5.52593 21.798 5.54032 22.29 5.56184L24.4851 5.6194L29.7604 5.18862C29.918 5.16776 30.0712 5.16279 30.2184 5.23001L30.2578 5.24904C30.3946 5.31368 30.4901 5.40017 30.5514 5.54079L30.5625 5.56681C30.6907 5.81951 30.6653 6.20726 30.7503 6.49259L31.0252 7.28946C31.1303 7.59917 31.3079 7.9069 31.4635 8.19476L33.1996 11.502L33.5734 12.4357C33.6725 12.6676 33.7762 12.9702 33.827 13.2167L33.9856 13.8402C34.0116 13.9441 34.0161 14.052 34.0386 14.1561L34.1778 14.8304C34.3316 15.7656 34.4125 17.4954 34.3068 18.4817C34.2392 19.1118 34.1002 19.7422 33.9963 20.3685L33.4734 23.1801C33.3234 23.8491 33.2012 24.5284 33.039 25.1939C32.5729 27.107 32.207 29.0667 31.9833 31.0228L31.9248 31.7797C31.8475 32.5677 31.7382 33.3717 31.7525 34.1653C31.7652 34.8678 31.9863 35.5082 32.1136 36.1877C32.455 38.0089 32.7949 39.9006 32.543 41.7576C32.4909 42.142 32.5319 42.4594 32.1379 42.6733L32.1113 42.6876C31.8472 42.8418 31.3529 42.7523 31.0567 42.7525L28.5958 42.7549C27.598 42.7711 27.6358 42.4795 27.4579 41.5414L26.522 35.5145L26.1922 34.1356C26.1095 33.7553 26.0467 33.3604 26.0015 32.9742L25.5198 27.1443L25.4544 24.0882L25.4976 21.4396C25.468 20.2621 24.9805 17.4149 24.0651 16.5544C22.864 17.6794 22.6368 19.6357 22.5557 21.2057ZM18.14 6.38328L17.8479 7.55824C18.9138 7.96953 19.9594 8.26915 21.0918 8.43293L21.954 8.5385C22.4821 8.58612 22.9822 8.63492 23.5144 8.63637L24.9073 8.62789C26.1062 8.57004 27.7939 8.30534 28.9247 7.98439C29.0102 7.96015 29.1507 7.88473 29.2323 7.8822L29.8503 7.61253C29.6967 7.23242 29.5912 6.8389 29.5048 6.43854L25.4391 6.89065C24.9738 6.93987 24.4886 6.91779 24.0205 6.91775L22.4207 6.89764L18.14 6.38328ZM17.4218 8.73087L16.0959 11.8198C16.4652 12.0129 16.8644 12.1562 17.2425 12.3334L20.6753 14.1417C23.2409 15.4381 25.7758 15.1908 28.2327 13.7367C28.7319 13.4412 29.2105 13.1042 29.7321 12.8476C30.4597 12.4576 31.219 12.0342 32.005 11.7725C31.7509 11.1113 30.8119 9.35018 30.3429 8.72384C29.6474 9.13128 28.7768 9.3125 27.991 9.46432C25.0819 10.0264 22.0403 10.0424 19.161 9.28971L17.589 8.78046C17.5426 8.7619 17.4716 8.72121 17.4218 8.73087ZM32.4309 12.9027C30.458 13.6531 27.2276 15.9942 25.288 16.0206L26.2689 18.3011C26.6967 19.3433 26.7792 21.6571 26.7603 22.7465L26.7176 26.6596C26.7227 26.8996 26.7622 27.1276 26.7783 27.3649L26.8162 28.3298C26.8255 28.4816 26.8579 28.629 26.8677 28.7799L27.2812 33.2348C27.3649 33.8264 27.5371 34.6631 27.6977 35.2564L28.4327 40.0068C28.5052 40.4025 28.5152 41.0983 28.6289 41.4443L28.653 41.5421L31.367 41.5427C31.5795 40.367 31.2385 38.0643 31.0154 36.9262C30.7854 35.7522 30.4715 34.6208 30.5211 33.4106L30.6523 31.9574C30.8018 30.3184 31.0862 28.7081 31.4036 27.0942L32.5251 21.6251L32.6771 20.6121C32.7482 20.2294 32.878 19.8734 32.9604 19.4959C33.422 17.3797 33.2114 14.9494 32.486 12.9262C32.4414 12.9027 32.4608 12.9073 32.4309 12.9027ZM15.6339 12.9403C15.3173 13.8568 15.1115 14.7248 15.0421 15.6869L14.9533 17.1039C14.9465 17.2389 14.9189 17.3678 14.9109 17.5034L14.8837 18.7056C14.8843 18.9682 14.8734 19.225 14.9427 19.4807L17.288 31.6335C17.3306 31.8117 17.3305 32.0195 17.3494 32.2032L17.4313 33.0501C17.439 33.2005 17.4692 33.3482 17.4805 33.4983C17.5458 34.3619 17.3278 35.1731 17.1581 36.0121L16.6876 38.676C16.6457 39.0744 16.5908 39.4784 16.5894 39.878L16.5899 41.1995C16.5904 41.3108 16.5804 41.4263 16.6176 41.5325C16.8732 41.5327 19.2919 41.5629 19.3595 41.5196L19.5548 39.997L20.0012 36.6112C20.2107 35.3547 20.5045 34.092 20.6193 32.8224L20.8387 29.2786C20.8474 29.1468 20.8738 29.0176 20.8861 28.8871L21.0229 26.6723C21.0417 26.4159 21.0864 26.1664 21.0988 25.9084L21.1997 22.6654C21.2116 22.3502 21.2697 22.0527 21.2836 21.7385L21.3237 20.8369C21.5074 18.7928 21.7398 17.7959 22.796 16.0934C20.9187 15.8292 19.5658 14.8585 17.9298 14.0166L15.6339 12.9403Z" fill="black"/>
</svg>
