<svg width="48" height="48" viewBox="0 0 48 48" fill="none" xmlns="http://www.w3.org/2000/svg">
<path d="M23.2577 24.8222L22.647 30.7871C22.6375 30.9452 22.5928 31.092 22.5849 31.2536L22.5507 33.5154C22.5417 33.6457 22.5167 33.7713 22.5157 33.9029L22.5004 37.521L22.2851 41.6247C22.2634 42.0193 22.2045 42.4037 22.1977 42.8015L22.1876 44.4337C22.1801 44.6993 22.135 44.9542 22.1334 45.223L22.1319 46.403C22.1316 46.5937 22.1992 47.0505 22.0661 47.2066C21.7218 47.6107 20.3665 47.6027 19.7778 47.6051L18.7006 47.6069C17.5151 47.6121 17.4308 47.8141 17.261 46.4547L16.2491 37.4529L16.0622 35.2034C16.0016 34.1892 15.9591 33.1808 15.9581 32.165L16.0667 28.6249L16.3746 26.1866C16.4552 25.7412 16.4177 25.2781 16.4441 24.8273L16.4997 21.8273L16.403 19.598L16.0265 14.8357C16.0105 14.6199 15.9713 14.4068 15.9617 14.1905C15.8041 10.6159 15.7592 9.23088 16.9291 5.72149C17.1836 4.95799 17.5465 4.21405 17.7049 3.42185L17.8597 2.40209C17.9191 1.99838 17.8023 0.770816 18.0068 0.524938L18.0252 0.503647C18.3507 0.119284 18.5983 0.292443 19.0135 0.363022C19.5314 0.451063 20.0841 0.520827 20.6076 0.557586L21.9872 0.66104L25.8803 0.663847C26.1029 0.653408 26.3212 0.614919 26.5432 0.598485L28.4316 0.40706C28.5551 0.390719 28.6809 0.386617 28.8037 0.365043L29.3804 0.239795C29.4664 0.232041 29.5484 0.222733 29.6326 0.247503L29.6601 0.256328C30.0184 0.36866 30.0658 0.612993 30.0668 0.930683L30.0673 1.5844C30.0758 2.14379 30.1984 3.17502 30.3901 3.72209L31.3912 6.6949C31.3993 6.73029 31.4069 6.76212 31.4204 6.7961L31.483 6.98215C31.51 7.09296 31.5564 7.19515 31.5779 7.30727L31.8834 8.65123C32.1598 9.59388 32.1152 11.0119 32.1146 11.9875L32.0968 13.3894C32.0896 13.6745 32.093 13.9762 32.0428 14.2573C31.9417 14.8235 31.9809 15.4127 31.9228 15.9841L31.5628 20.4905C31.5496 20.7141 31.5094 20.9364 31.4996 21.1598L31.5034 25.1979C31.5605 26.1675 31.7437 27.1514 31.8776 28.113C32.0406 29.2841 32.0441 30.4373 32.0428 31.6176L32.0302 33.4825C32.0228 33.6529 31.9828 33.8172 31.9745 33.9862C31.9416 34.6604 31.96 35.3143 31.8867 35.9865L30.758 46.4124C30.6647 47.1429 30.7652 47.6904 29.8444 47.6238L27.5727 47.5999C27.3968 47.5924 27.2239 47.5629 27.0483 47.5502C25.9593 47.471 25.8912 47.4565 25.8882 46.3354L25.8805 44.6385L25.5807 39.1586L25.5161 38.5914C25.4492 37.9761 25.4433 37.044 25.4326 36.3809L25.4208 31.8046C25.4146 31.6211 25.383 31.4409 25.3729 31.258L25.0054 26.6107L24.0616 19.8748C23.8956 20.4234 23.8523 20.9861 23.7643 21.5505L23.2577 24.8222ZM18.9852 1.45726C18.996 2.22094 18.8557 2.98631 18.7668 3.74253L22.1815 4.163C22.349 4.17742 22.5124 4.21026 22.6803 4.22024L23.9009 4.23657C25.3317 4.23555 27.4081 4.10309 28.8335 3.78042L29.2342 3.71261L29.0428 2.23209C29.0031 1.97821 29.01 1.70616 29.0082 1.44897C28.5299 1.52993 28.0377 1.56389 27.5547 1.61126L26.4697 1.70349C25.6904 1.77238 24.9346 1.77065 24.1511 1.77118L22.1341 1.76408L18.9852 1.45726ZM29.5397 4.76927C27.6524 5.13898 26.0985 5.33098 24.1968 5.33107L22.3765 5.32137C21.6502 5.28185 20.9216 5.17498 20.2031 5.06665L19.0781 4.88313C18.8674 4.84699 18.652 4.82299 18.4444 4.77049C17.7697 6.46638 17.1092 8.42965 16.9674 10.2685C16.9319 10.7281 16.9547 11.2034 16.9559 11.6645L16.9678 13.2392C16.9781 13.4374 17.026 13.6324 17.037 13.8279L17.0686 14.7288C17.0756 14.8513 17.1009 14.9697 17.1089 15.0919L17.5065 20.466C17.5138 20.6127 17.5366 20.7562 17.5391 20.9042L17.4878 26.156C17.4704 26.4046 17.3879 26.6634 17.3554 26.9133L17.1087 29.4693C17.0964 29.6353 17.0511 29.7935 17.0451 29.9636L17.0481 33.6069L17.2587 36.8318L18.0511 44.0399C18.0776 44.2844 18.2763 46.414 18.3728 46.503L20.3178 46.4789C20.5399 46.4742 20.8348 46.5075 21.0468 46.441L21.1057 42.4317C21.1154 42.2425 21.1514 42.0588 21.1675 41.8708L21.3161 38.9571C21.33 38.6922 21.3778 38.4329 21.3838 38.1673C21.4076 37.1039 21.4653 36.0735 21.4668 35.0134L21.4696 32.2699C21.4711 31.8583 21.5173 31.457 21.5451 31.0474L21.687 29.0154L22.3528 23.5092L22.8121 20.5282C22.8649 20.1771 22.9488 19.8252 22.9842 19.4723L23.5312 15.3396C23.5682 14.9896 23.5701 14.2896 24.1172 14.3692C24.5826 14.437 24.5884 15.0649 24.6398 15.4379L25.0647 18.8578C25.1304 19.255 25.1694 19.6566 25.2291 20.054L26.3164 28.8005L26.502 31.981L26.5133 36.5974C26.5189 36.8324 26.5728 37.0658 26.5807 37.3022L26.6196 38.9957C26.6276 39.1573 26.67 39.3107 26.6801 39.4687L26.8263 42.2224C26.8372 42.4051 26.8773 42.585 26.8861 42.7677L26.9083 43.8844C26.9128 44.0661 26.9478 44.2446 26.9531 44.4255L26.9568 46.4684L29.6908 46.5206L30.6522 37.7137L30.9452 33.7352L30.9515 29.906C30.9488 29.5809 30.9116 29.2668 30.8829 28.9442L30.6387 26.9294C30.486 25.9099 30.4509 25.3859 30.449 24.3414L30.4706 20.1814C30.4806 19.9911 30.5274 19.8134 30.5413 19.6269L30.9708 13.9657C30.9834 13.7633 31.0266 13.5661 31.0375 13.3635L31.0484 11.998C31.0539 9.85296 30.8837 8.54004 30.1959 6.47852C30.0074 5.91368 29.7709 5.35259 29.6133 4.77926C29.5593 4.76248 29.5841 4.76327 29.5397 4.76927Z" fill="black"/>
</svg>
