<svg width="48" height="48" viewBox="0 0 48 48" fill="none" xmlns="http://www.w3.org/2000/svg">
<path d="M22.9117 37.0019L21.6409 44.4327C21.5759 44.695 21.344 44.9634 21.0581 44.9771L16.6712 44.9786C16.1096 44.9776 15.7765 44.8999 15.7629 44.2145L15.7535 43.5563C15.7479 43.2337 15.7036 42.9142 15.6878 42.5922L15.2767 37.5088L13.7222 25.3488L13.4334 21.6108L13.428 19.4011C13.4278 18.6816 13.3535 18.1466 13.4002 17.398L13.437 16.7064C13.6035 15.0909 14.0444 13.4629 14.4956 11.9062L14.8906 10.5197L16.5777 5.89383L16.5249 5.85394C16.0743 5.51227 16.2166 5.06827 16.3981 4.63596L16.8628 3.61884C17.2209 2.77686 17.1704 2.68952 18.0541 2.89416L21.1455 3.29312L22.4837 3.31345C22.7019 3.31836 22.9156 3.35387 23.1335 3.35765L25.2652 3.31398C26.6587 3.26772 28.089 3.27468 29.4601 2.98256L30.3006 2.77033C30.867 2.66836 30.9616 3.21134 31.1455 3.60522L31.5842 4.56494C31.8642 5.21887 31.9314 5.51531 31.3088 5.98322C31.5861 6.33727 31.877 6.67941 32.0746 7.0882L32.2491 7.46447C32.3149 7.60392 32.3798 7.76166 32.4194 7.91119L32.8472 9.70209C32.9036 9.91467 32.9337 10.1612 33.0165 10.3639C33.1861 10.7792 33.2312 11.2547 33.3889 11.6734L33.8784 13.4304C34.2106 14.6865 34.9127 17.6964 34.5316 18.9921C34.4778 19.1747 34.5071 19.4007 34.5105 19.5906L34.5086 22.5954C34.4953 23.2405 34.421 23.8928 34.3624 24.5353L32.9175 35.8534L32.53 39.5802L32.2952 42.703C32.2449 43.2881 32.2793 43.8786 32.2197 44.4198C32.1435 45.1122 31.3138 44.9782 30.8392 44.9787L27.4954 44.9791C26.7783 44.9791 26.4625 45.0339 26.3429 44.1559L25.1149 36.9203L24.1538 31.7422C24.1281 31.6219 24.1121 31.4913 24.0391 31.3898L23.9761 31.384C23.774 31.549 23.6637 32.7398 23.6088 33.0344L22.9117 37.0019ZM29.9974 4.04259C28.4507 4.44853 26.8129 4.47385 25.224 4.5115L22.8941 4.51053C22.2636 4.49769 21.6208 4.52855 20.9928 4.46864L18.3367 4.12853C18.22 4.10648 18.0796 4.06342 17.9621 4.06214L17.6964 4.69312C17.3589 5.40586 17.248 5.27841 18.2609 5.52389L21.0113 5.99114C21.269 6.02006 21.5342 6.02109 21.7934 6.03698L23.3554 6.11784C23.6099 6.12661 23.8613 6.17962 24.1147 6.18614L26.5371 6.18473C27.5238 6.13987 29.7007 5.95373 30.4153 5.43052L30.6076 5.28173L30.2874 4.55192C30.2176 4.38241 30.1573 4.19475 30.0646 4.03685L29.9974 4.04259ZM17.5784 6.50667L15.7111 11.8074C17.0553 12.0226 18.4523 12.2993 19.6971 12.8714C21.8664 13.8682 23.3764 15.7165 23.6949 18.101L23.7721 18.6596C23.8001 18.969 23.8305 19.9199 24.2113 19.1949L24.2272 19.1656C24.3382 18.9535 24.278 18.4905 24.2775 18.2459C24.2745 16.7088 24.8022 15.445 25.9371 14.3637C27.2529 13.1468 28.8932 12.4345 30.6441 12.1154L31.794 11.9252C31.943 11.8994 32.1049 11.8866 32.2479 11.836C31.9735 10.9895 31.7797 10.1136 31.57 9.24928C31.3374 8.2905 31.1328 7.43625 30.3909 6.7185C29.2387 7.18392 27.8937 7.25597 26.6656 7.31953L24.8362 7.36734L22.7553 7.28583C22.5709 7.27486 22.3891 7.24083 22.2047 7.22489L20.4017 7.03252L17.5784 6.50667ZM15.4292 12.9504C15.1263 13.842 14.8527 15.0225 14.7194 15.9371L14.5544 17.2702C14.4418 17.9914 14.5947 18.3537 14.601 18.9488L14.6117 22.2652C14.6186 22.4243 14.6611 22.5713 14.6732 22.7258L14.7676 23.9996C14.7958 24.2885 14.7921 24.5838 14.8406 24.8698L16.5756 39.2151L21.3112 39.2106L21.5178 38.1615L23.0374 29.4354C23.117 28.8425 23.1377 28.2506 23.1861 27.6559L23.4297 25.3112C23.4743 24.717 23.4395 24.0935 23.4383 23.4959L23.3725 22.1561C23.3597 22.007 23.3695 21.8661 23.3283 21.7205L22.7097 19.2301C22.5867 18.6296 22.5394 18.018 22.3807 17.4242C21.7115 14.9202 19.3283 13.7227 16.9902 13.2292L15.4292 12.9504ZM32.5121 12.9957C30.0643 13.3597 27.0106 14.0086 25.8355 16.4823C25.6182 16.9396 25.4716 17.3838 25.122 17.763C25.1223 18.036 25.163 18.2786 25.2047 18.5459C25.2876 19.0754 25.1642 19.4467 25.0591 19.9684L24.7929 21.1763C24.6498 21.755 24.5938 21.9704 24.5659 22.6066L24.5587 24.3991C24.559 25.0967 24.5816 25.7199 24.6647 26.4128L25.2168 31.1213C25.3196 31.7362 26.5103 38.2246 26.5181 38.2314C26.5455 38.5475 26.6184 38.9058 26.7018 39.2141L31.4293 39.2197L33.1789 24.7643L33.3761 21.9656L33.3777 20.2595C33.3671 19.6277 33.2801 19.173 33.4497 18.5314C33.6229 17.8765 33.3547 16.5284 33.2275 15.8808L32.5659 13.0149L32.5121 12.9957ZM16.716 40.4144C16.6442 40.5807 16.7401 40.8007 16.7488 40.971L16.85 42.8551C16.8615 43.116 16.826 43.4811 16.9025 43.7316L20.5497 43.7558L20.631 43.2658L21.0421 40.8196C21.0641 40.7012 21.1057 40.5438 21.0901 40.4243L16.716 40.4144ZM26.9395 40.4176C26.8918 40.5179 26.9231 40.6077 26.9535 40.7106L27.4509 43.7328L31.0801 43.7427C31.0904 43.6714 31.1027 43.6012 31.1007 43.5289L31.3046 40.4199L26.9395 40.4176Z" fill="black"/>
</svg>
