<svg width="48" height="48" viewBox="0 0 48 48" fill="none" xmlns="http://www.w3.org/2000/svg">
<path d="M25.1879 25.0785L24.0135 17.9824C24.0023 18.1863 23.9469 18.3709 23.9282 18.5704L23.8112 19.9574C23.6205 21.3973 23.1444 22.7601 22.9226 24.1878C22.7657 25.1983 22.6441 26.4008 22.6014 27.4338L22.598 29.9442C22.6032 30.191 22.6649 30.4257 22.6733 30.669L22.6938 32.6906C22.6983 32.8794 22.7311 33.0652 22.7364 33.2536L22.7346 35.2818C22.7307 35.4324 22.7028 35.5805 22.6971 35.7308L22.684 36.6602L22.0366 42.964L21.8674 45.253C21.7963 45.8585 21.7187 46.0117 21.0554 46.0124L15.7042 46.0126C14.6413 46.0134 14.5104 46.0448 14.4141 44.848L14.2291 42.1282C14.2129 41.8743 14.1719 41.622 14.1635 41.3675L14.1568 36.8464C14.158 36.5553 14.1483 36.2586 14.1695 35.9682L14.8147 30.8558C14.9954 28.925 14.8911 26.9074 14.2646 25.0611C13.6881 23.3623 13.2801 22.3042 12.9876 20.4964C12.8049 19.368 12.7933 18.0252 12.9435 16.8824L13.0541 16.266C13.1534 15.7732 13.3022 15.4308 13.4014 15.0113C13.565 14.3194 13.6318 13.6473 13.8375 12.9221L14.7476 9.80664C15.6525 6.93574 16.0782 6.28085 15.3758 3.34019C15.2396 2.76991 15.0734 2.20305 15.7518 1.95117L32.0371 1.96976C32.4094 1.97039 32.5746 2.02913 32.7344 2.40547L32.746 2.43498C32.8121 2.59364 32.7833 2.78214 32.7442 2.94541L32.4974 4.03144C32.2932 4.89133 32.1691 5.7153 32.3392 6.59468L32.5313 7.46519C32.6959 8.12074 32.8614 8.76532 33.0593 9.41257L33.6709 11.2781C34.0832 12.3851 34.3144 13.5213 34.5488 14.6722C34.6153 14.9992 34.7309 15.2979 34.7765 15.6331L34.871 16.1475C35.2689 18.4512 35.2438 20.4757 34.5397 22.7581L33.6077 25.4705C33.2495 26.6665 33.1437 27.894 33.141 29.1378L33.164 30.597C33.2285 31.6154 33.4243 32.6343 33.5717 33.6449L33.7591 35.369C33.7704 35.5177 33.8031 35.6635 33.8123 35.8128L33.8087 41.6696L33.5699 44.529C33.4788 45.7893 33.6666 46.0144 32.2256 46.0141L27.8098 46.0138C26.8637 46.0144 26.2133 46.3233 26.1202 45.1923L26.07 44.0995L25.3869 37.3323C25.3286 36.6116 25.3135 36.0428 25.303 35.3116L25.2681 33.2421C25.2747 33.0747 25.3026 32.9109 25.305 32.7425L25.3213 30.6679C25.3326 30.3989 25.3879 30.1373 25.3941 29.8661L25.3877 27.7564L25.1879 25.0785ZM16.6392 3.17079L16.5516 3.19073L16.6941 3.85202C16.7414 4.17291 16.8176 4.60701 16.878 4.92625C16.9652 4.95513 17.0945 4.93675 17.1876 4.93525L30.9229 4.92217C30.9976 4.92236 31.0717 4.93432 31.1406 4.90282L31.1549 4.79969L31.4968 3.1885L16.6392 3.17079ZM16.912 6.16699C16.7656 7.58594 16.2583 8.88691 15.8453 10.2425L14.69 14.4299C14.8187 14.3092 14.9568 14.1911 15.0691 14.0549C16.9296 12.0918 17.6644 9.28305 17.5941 6.63316C17.5903 6.49061 17.5995 6.30185 17.5529 6.16886L16.912 6.16699ZM18.8091 6.17285C18.799 6.65144 18.8248 7.13444 18.7954 7.60746C18.6123 10.5552 17.3929 14.2447 14.7597 15.9085L14.4062 16.1084C14.1066 16.2639 14.0488 17.5061 14.0435 17.8257V18.8417C14.0535 20.2235 14.2978 21.6959 14.7702 22.9925L14.915 23.4147C14.9421 23.5054 14.9864 23.5933 15.0174 23.6839L15.5973 25.4554C16.1029 27.0236 16.1283 29.4359 15.9817 31.0416C15.917 31.7509 15.7679 32.4532 15.6654 33.157L15.3253 36.3347C15.2798 36.996 15.2928 37.6768 15.2915 38.3404L15.3246 40.9721C15.3446 41.409 15.4048 41.8501 15.4352 42.2872L15.5369 43.9321C15.5526 44.1929 15.5222 44.5313 15.6022 44.7785L20.7343 44.7607L21.4583 37.2647L21.5501 35.7448L21.5577 32.6394C21.543 32.3057 21.4803 31.9748 21.4697 31.6449L21.4596 28.5446C21.4579 26.8845 21.5077 25.1585 21.8323 23.5256L22.2488 21.8112C22.4775 20.8391 22.6629 19.8438 22.7683 18.8505L23.3452 12.3519C23.3852 11.9351 23.393 11.1971 23.9877 11.1978C24.4486 11.1984 24.5403 11.5938 24.5979 11.9593L24.9307 15.5106C24.9543 15.9431 25.0268 16.3737 25.0692 16.8045C25.2689 18.8332 25.5406 20.8582 26.0174 22.8402L26.1978 23.7969C26.2333 23.9452 26.2363 24.1027 26.2588 24.2531L26.5452 26.9215L26.5624 30.9801C26.5388 31.504 26.461 32.0263 26.4432 32.555L26.4391 35.2269C26.4413 35.4895 26.4812 35.751 26.4924 36.0131L26.5161 36.8616L27.2574 44.4514C27.2588 44.5576 27.2458 44.6698 27.2864 44.7695L32.3795 44.7821L32.7137 40.2059L32.7136 36.8793L32.4528 33.9929L32.0955 31.6527C32.053 31.3175 31.9829 30.8316 31.979 30.5013L31.9764 28.5125C31.9935 26.2346 32.7055 24.5988 33.3907 22.4697C34.1217 20.1984 34.0262 18.2482 33.6651 15.9672C33.2586 15.6748 32.8135 15.4425 32.4289 15.114C30.6902 13.6292 29.7438 11.5249 29.3671 9.29332L29.2247 8.08614C29.1777 7.77982 29.1808 7.46167 29.1801 7.15258L29.1935 6.17613L18.8091 6.17285ZM30.423 6.16736L30.4656 8.68277C30.4958 9.1953 30.6384 9.78686 30.7905 10.2734L31.2538 11.5948C31.7612 12.6654 32.4207 13.4479 33.2703 14.2413C32.9166 12.4272 32.18 10.7478 31.694 8.97489L31.1272 6.52961C31.1115 6.41988 31.1086 6.27677 31.065 6.17636L30.423 6.16736Z" fill="black"/>
</svg>
