<svg width="48" height="48" viewBox="0 0 48 48" fill="none" xmlns="http://www.w3.org/2000/svg">
<path d="M24.2805 20.7361L24.04 15.6678C23.937 15.9035 23.9138 16.234 23.8949 16.4861L23.7253 19.2704L23.613 23.6393C23.6047 24.0087 23.5434 24.3822 23.481 24.7471L23.3199 25.5115C23.1087 26.5369 22.9705 27.1249 22.9375 28.1657L22.974 30.6302C22.9882 30.8952 23.0337 31.1546 23.0388 31.4211C23.0546 32.2586 22.9795 33.1343 23.1056 33.9629C23.1601 34.3212 23.1323 34.7079 23.133 35.0701L23.1555 36.1472C23.1622 37.3166 23.2736 38.3843 23.2748 39.5625L23.2793 43.8314C23.2812 44.2514 23.3692 44.6132 22.966 44.8788L22.9355 44.8985C22.6421 45.0933 22.0821 44.9826 21.7465 44.9826L21.0521 44.9817C20.9171 44.9813 20.7693 44.9908 20.6362 44.9681C20.0025 44.8604 20.0789 43.6838 20.0363 43.2791L19.2517 37.9401L18.585 32.1884C18.5411 31.6727 18.5597 31.1463 18.5499 30.6289L18.515 29.0255C18.5476 27.8564 18.8714 26.7078 19.0978 25.5673C19.5496 23.2916 19.1712 21.3961 18.6157 19.1521L17.8482 16.1599L17.3123 12.8357C17.2383 12.3322 17.2114 10.7985 17.3093 10.2947L18.0527 6.17552C18.1286 5.67851 18.0115 3.67603 18.178 3.42217C18.3206 3.20486 18.4214 3.11912 18.6626 3.0252L27.9678 3.01745C28.3444 3.01746 29.216 2.90434 29.525 3.10274L29.655 3.19227C30.0628 3.52895 29.8656 5.46415 29.9042 6.06072C29.9298 6.45513 30.1299 7.20129 30.2352 7.61693C30.9487 10.4336 30.8547 13.472 30.1357 16.2823L28.9904 20.9438C28.9583 21.1172 28.9488 21.2943 28.9225 21.4685L28.746 23.04C28.7034 23.6533 28.6995 24.2555 28.784 24.8669C28.863 25.4396 28.985 25.9927 29.1082 26.5556C29.3965 27.8733 29.5317 29.1982 29.4822 30.5468L29.4268 32.0498L28.924 36.6413L28.0352 42.5388C28.0106 42.7142 28.0142 42.895 28.0004 43.0716L27.9403 43.6511C27.8772 44.6603 27.9198 44.9781 26.7548 44.9816L25.5882 44.9818C24.5428 44.9796 24.7019 44.3832 24.7027 43.5122L24.7111 38.1676C24.7264 37.7022 24.7683 37.2237 24.7825 36.7346L24.9431 33.5036L25.0399 29.8364C25.0488 29.4543 25.1011 29.0713 25.0933 28.6896C25.0646 27.2903 24.783 25.9693 24.5117 24.6004C24.4344 24.2102 24.3959 23.6721 24.3942 23.2721L24.3863 22.2992C24.3795 21.9599 24.338 21.625 24.3102 21.2872L24.2805 20.7361ZM19.3392 4.33229C19.3117 4.53478 19.2628 5.88026 19.3411 6.03494L28.687 6.05097L28.7039 4.80607C28.7034 4.67013 28.7307 4.46326 28.6861 4.33688L20.1703 4.33113C19.9111 4.3308 19.593 4.2952 19.3392 4.33229ZM19.1434 7.30788C18.8131 8.62493 18.4846 9.86552 18.4951 11.2272L18.5453 12.1052C18.6005 13.178 18.6589 13.9289 18.8491 15.02C18.9426 15.5562 19.1226 16.0776 19.2276 16.611L20.0045 19.6423C20.1341 20.0674 20.1893 20.5575 20.2628 20.9969C20.5589 22.7667 20.6789 24.02 20.3048 25.8513L20.0725 26.9589C19.6883 28.5476 19.6613 30.3919 19.8301 32.0188L20.1131 35.0036C20.1552 35.4026 20.1844 35.8151 20.2511 36.2107L20.4048 37.2011C20.4898 37.8246 20.3842 37.6889 21.0633 37.6891L21.9802 37.6566C21.9124 37.1293 21.9605 36.5609 21.9492 36.0273L21.9149 35.2966C21.9008 35.1432 21.8718 34.9913 21.8659 34.8371L21.7622 32.238L21.677 28.5035C21.6781 27.7479 21.7611 26.9593 21.9076 26.2182C22.1744 24.8696 22.4166 24.0815 22.4199 22.697L22.4252 21.0349C22.4316 20.609 22.5007 20.1855 22.5133 19.7604L22.5273 18.5895L22.7746 15.4305C22.8282 14.8987 23.1679 12.8115 23.6133 12.4738C23.9738 12.2005 24.4419 12.3371 24.612 12.738L24.9726 13.9704L25.1544 14.9097C25.2245 15.2156 25.2491 15.5753 25.2785 15.8901C25.3229 16.3462 25.3659 16.7925 25.3868 17.2497L25.5635 20.7436L25.6136 23.0797C25.6252 23.4735 25.6392 23.8984 25.6947 24.2876C25.9093 25.7943 26.2861 26.9069 26.3178 28.4978C26.3303 29.1255 26.2815 29.7367 26.2559 30.3619L26.1653 32.3596L26.0386 37.1708C26.0362 37.3414 26.0027 37.5181 26.0128 37.6868L27.081 37.6913C27.2149 37.6918 27.3916 37.7171 27.5171 37.6804L28.1697 32.1313C28.1792 32.0268 28.206 31.9322 28.2122 31.8261L28.2461 29.8917C28.2505 29.3481 28.2952 28.7389 28.1831 28.2066L27.9874 27.1941C27.6638 25.717 27.2916 24.1358 27.5351 22.6159L28.06 19.4675L29.0699 15.4609C29.3019 14.4142 29.465 13.2964 29.5004 12.2244L29.4937 11.3814C29.4923 10.3496 29.4256 9.74191 29.2092 8.6996L28.999 7.75666C28.9626 7.60999 28.954 7.45657 28.8867 7.31974L19.1434 7.30788ZM20.688 38.9412L21.1332 42.1622C21.1648 42.3054 21.1674 42.463 21.1844 42.6093L21.2691 43.2479C21.2837 43.3894 21.273 43.5285 21.3102 43.6672L22.0525 43.6729L22.0516 39.4146C22.0516 39.2617 22.0679 39.0865 22.0442 38.9363L20.688 38.9412ZM25.9324 38.9377L25.9486 43.6552L26.718 43.6584L26.7394 43.072L27.3127 38.9776L26.3783 38.9406C26.2344 38.9378 26.0748 38.9202 25.9324 38.9377Z" fill="black"/>
</svg>
