<svg width="48" height="48" viewBox="0 0 48 48" fill="none" xmlns="http://www.w3.org/2000/svg">
<path d="M24.7762 23.0326C24.8704 22.1251 25.0121 21.0547 24.7861 20.1537L24.7745 20.1087C24.6921 19.7803 24.3103 19.2345 23.9763 19.1724C23.8482 19.2075 23.781 19.3127 23.697 19.4067C23.1282 20.0435 23.1263 20.1363 23.1025 21.0384C23.0776 21.9825 23.1745 22.9192 23.2504 23.8587L23.3239 24.5759L23.3259 28.3116L22.6756 37.7582C22.6602 38.2575 22.6861 38.7875 22.5985 39.2796C22.4959 39.8555 22.6755 42.6933 22.5151 42.9033L22.4973 42.9251C22.4339 43.0038 22.3728 43.0595 22.2869 43.1137L22.2536 43.1342C22.0288 43.2758 21.637 43.1977 21.3823 43.1979L17.8559 43.1982C17.5639 43.198 16.9623 43.3071 16.7199 43.1182L16.699 43.1016C16.6151 43.0398 16.5621 42.9896 16.5055 42.8998L16.4825 42.8622C16.3327 42.6218 16.4569 42.25 16.4869 41.988L16.6226 40.6721C16.7246 39.373 16.7147 37.474 16.621 36.1756L16.3121 33.1517L15.5044 27.6883L15.1756 23.7929L15.1729 19.4823C15.1881 19.1201 15.2526 18.7643 15.2729 18.4039L15.4638 16.3822C15.6646 14.6894 15.9727 12.9877 16.9661 11.5614L17.9392 10.2976C18.8384 9.05522 19.1654 7.57008 18.8434 6.05794C18.7406 5.57522 18.4323 4.95661 19.1333 4.7625L27.8433 4.75711C28.2059 4.75725 28.6054 4.7242 28.9644 4.77192C29.5794 4.85376 29.2239 5.79801 29.1658 6.08808C28.8552 7.63922 29.1849 9.15586 30.1352 10.4326L30.8318 11.2995C31.1561 11.7313 31.49 12.2561 31.6981 12.7605L31.9789 13.4922C32.0076 13.5687 32.0323 13.6452 32.0489 13.7254L32.2575 14.5539C32.3683 14.9029 32.3935 15.3058 32.4468 15.6673L32.7184 18.1868C32.7361 18.3965 32.7765 18.6024 32.7893 18.8121L32.8089 24.1651L32.4847 28.0775L31.6089 34.0115C31.5766 34.2401 31.5691 34.4745 31.5467 34.7045L31.3271 37.8181C31.2742 39.5896 31.5523 41.0782 31.5921 42.7739C31.5306 42.9033 31.4561 42.9987 31.3444 43.0894L31.3118 43.1153C31.1058 43.2834 30.7111 43.1979 30.4632 43.1983L26.9348 43.1984C26.652 43.1983 26.035 43.2852 25.795 43.1411L25.7693 43.125C25.5745 43.0071 25.4715 42.8711 25.4611 42.6461L25.4186 39.0401C25.4111 38.7049 25.3551 38.3732 25.3391 38.0384L25.3199 37.0257L24.7474 29.3079C24.724 29.0475 24.6779 28.7852 24.6643 28.5248L24.6576 24.7197C24.6669 24.1532 24.7416 23.598 24.7762 23.0326ZM20.3444 5.88947L19.9147 5.90991L20.0059 6.30009C20.1017 6.65456 20.0186 7.06912 20.1248 7.41947L27.7556 7.42191L27.9557 7.44431C27.9575 7.11244 27.9402 6.76983 28.0021 6.4425L28.0662 5.90662L20.3444 5.88947ZM19.9991 8.52633C19.8184 9.47376 19.1942 10.5028 18.6213 11.2662C18.2441 11.7687 17.8245 12.2586 17.5331 12.8197C16.5551 14.7026 16.4725 16.9547 16.358 19.0305L16.2994 23.9993C16.3324 24.8239 16.4015 25.9086 16.5044 26.7001L16.9229 29.8587C16.9446 29.9981 16.9457 30.1425 16.9704 30.2806L17.686 35.3265L17.7248 36.5501C17.7344 36.7859 17.7823 37.0174 17.7863 37.2533L17.7888 38.81C17.7882 39.1608 17.8001 39.5177 17.7771 39.8678L17.6723 41.2261C17.6478 41.505 17.6019 41.7732 17.6041 42.0561L21.4517 42.065C21.545 40.9656 21.4649 39.8285 21.5419 38.6817L21.6715 35.4884C21.682 35.3144 21.7185 35.1455 21.7315 34.9725L22.1248 29.828L22.2101 27.7651C22.2264 26.7856 22.2526 25.7802 22.1992 24.8025L21.9849 22.1168L21.9792 21.1497C21.9915 19.8227 22.1878 19.0499 23.332 18.2224C23.7748 17.9022 23.5071 17.9294 23.4566 17.296C23.4072 16.6763 23.4371 16.0343 23.4392 15.4122L23.4443 14.8158C23.465 14.1943 24.2054 13.9988 24.4983 14.5817C24.5816 14.7475 24.5372 15.102 24.5372 15.2948L24.5419 16.8578C24.5494 17.0502 24.5898 17.2301 24.6074 17.4184L24.7376 18.0697C24.8091 18.4381 25.5551 18.8712 25.804 19.6282L25.8162 19.6594C26.0462 20.2804 26.0081 21.9411 25.9638 22.6509L25.7832 24.8082L25.7785 28.0373C25.7822 28.3578 25.8316 28.6692 25.8472 28.9879L25.8734 29.8996C25.8851 30.0795 25.9241 30.2529 25.9375 30.4319L26.4231 37.013C26.4448 37.3879 26.5087 37.7664 26.5208 38.1392L26.5327 40.5111C26.5404 40.7215 26.5759 40.9331 26.5885 41.1439L26.6029 42.0638L29.0506 42.0644C29.4999 42.0637 29.978 42.0937 30.4247 42.0465L30.3604 41.2687C30.2464 40.0652 30.1958 38.8599 30.2344 37.6503L30.3602 35.5256C30.3747 35.2285 30.3728 34.925 30.4059 34.6297L31.2999 28.5861L31.691 24.1679L31.7022 19.644L31.4398 16.6135C31.2722 15.2452 31.1235 13.9336 30.4125 12.7112C29.5238 11.1834 28.4886 10.4993 28.0086 8.54255L19.9991 8.52633Z" fill="black"/>
</svg>
