<svg width="48" height="48" viewBox="0 0 48 48" fill="none" xmlns="http://www.w3.org/2000/svg">
<path d="M24.2967 42.1986L23.9929 35.6963C23.7764 36.482 23.8421 37.2645 23.8172 38.0692L23.6516 42.7362C23.6701 43.2382 23.7098 43.7696 23.6596 44.2702C23.5642 45.2215 22.4509 44.9804 21.7847 44.9808L17.5648 44.9808C16.8696 44.9804 16.1931 45.0612 16.1777 44.1623L16.1647 39.1016L15.8318 33.7628L15.1776 28.3184L14.1834 22.207L14.0399 20.6491C13.9769 19.853 13.9666 19.2164 13.9676 18.4096L13.9775 17.4802C13.9891 17.0687 14.0488 16.6564 14.0978 16.2472L14.2751 15.023C14.5692 13.2622 15.1169 10.7371 15.832 9.06741C15.9205 8.86045 15.8015 8.6137 15.8604 8.38383C15.9415 8.06723 16.0966 7.76578 16.1971 7.45444C16.4599 6.64045 16.657 5.79956 16.7702 4.95169C16.8646 4.24565 16.5441 3.29048 17.3303 3.02694L30.408 3.01758C31.5489 3.02316 31.0663 4.00521 31.2416 4.69772C31.2933 4.90191 31.285 5.13291 31.3081 5.34281L31.4011 5.93587C31.4303 6.11414 31.4866 6.3052 31.5348 6.48005L31.6881 7.12458C31.7674 7.41619 32.2021 8.51067 32.1658 8.71833C32.1499 8.80912 32.1367 8.85952 32.1706 8.95659L32.5153 10.0489C32.5672 10.31 32.644 10.6085 32.7338 10.8589L32.9826 11.7886C33.0055 11.9086 33.053 12.0179 33.0768 12.138L33.4578 13.7031C33.4941 13.9353 33.5713 14.1706 33.6148 14.403L33.9407 16.534C34.0544 17.5112 34.0316 18.4565 34.0263 19.4402L34.0197 20.251C34.0142 20.6313 33.9437 21 33.9036 21.378L32.9078 27.5621L32.1483 33.8813L32.0293 35.8773C32.0125 36.0743 31.9816 36.2706 31.9726 36.4683L31.8832 39.1455C31.839 40.2 31.7848 41.3135 31.7842 42.3671L31.784 43.7691C31.7851 45.275 31.3026 44.9801 30.0617 44.9809L25.8052 44.981C24.7333 44.9805 24.3526 45.11 24.3102 43.7821L24.2967 42.1986ZM26.0704 4.41245C26.0105 5.04234 26.0395 5.68936 26.0398 6.32152C26.0401 6.84483 26.1331 7.30387 25.4815 7.46198C25.2304 7.40466 25.1119 7.35933 24.9491 7.15162L24.9283 7.12556C24.7531 6.90267 24.8397 6.46397 24.8392 6.19692L24.8286 4.46576L23.1742 4.47778C23.1416 4.70672 23.1572 4.94986 23.1573 5.18119L23.1586 6.3488C23.1588 6.55537 23.2128 6.93694 23.093 7.10236L23.0684 7.13705C22.8766 7.39842 22.5248 7.55709 22.2362 7.3357C21.8684 7.05347 21.9543 6.64383 21.9544 6.23709L21.9528 5.06133C21.9525 4.86534 21.962 4.66493 21.941 4.47022L21.0737 4.45671L21.0743 5.77692C21.076 6.05433 21.1591 6.31017 20.9452 6.52064C20.6341 6.82678 20.0173 6.81366 19.8989 6.31884C19.8583 6.1493 19.8835 5.91366 19.8828 5.73736L19.8796 4.47885L18.0081 4.47848C17.9853 5.23997 17.8397 5.99438 17.6596 6.73345L17.419 7.63444L17.1888 8.42105L18.3198 8.46811C18.4768 8.47734 18.6239 8.51812 18.7782 8.52816L21.186 8.634L27.6843 8.56392C28.0557 8.54437 28.4367 8.55994 28.8046 8.50978L30.8135 8.36564C30.5965 7.60303 30.3619 6.86325 30.2107 6.08161L30.0312 4.88995C30.0181 4.77253 30.0495 4.57714 29.9944 4.47822L28.1037 4.47917L28.1035 5.59036C28.1029 5.85098 28.1388 6.15703 28.0291 6.39802L28.014 6.43177C27.8198 6.8528 27.242 6.85598 27.0226 6.46833L27.0074 6.44208C26.8804 6.21544 26.9258 5.84817 26.9249 5.59284L26.916 4.54867C26.9145 4.493 26.9372 4.44042 26.8729 4.42819L26.0704 4.41245ZM31.056 9.59723L16.8846 9.64959C16.7269 10.0173 16.6273 10.4286 16.5087 10.8114C16.081 12.1932 15.6962 13.6087 15.4797 15.0406L15.2782 16.5083C15.2354 16.9371 15.1861 17.3741 15.1848 17.8045L15.1837 18.6434C15.1835 20.3162 15.3256 21.9082 15.6115 23.5543L16.2944 27.6755L16.9116 32.4911L17.1746 35.9152C17.1861 36.1196 17.2236 36.3212 17.2322 36.5269L17.2609 37.6071C17.3315 38.8225 17.3854 39.9836 17.3862 41.2088L17.4192 43.5143L22.5024 43.5189L22.5101 40.3129C22.5162 40.0421 22.5547 39.7735 22.5699 39.5035L22.8835 34.8064L22.9027 32.6533C22.906 32.4371 22.9398 32.2293 22.9522 32.0152L22.9892 31.0272C23.0506 29.9967 23.3068 28.9952 23.4324 27.9722L23.7262 24.0063L23.7373 22.4476C23.7397 19.865 23.7584 17.7418 20.7623 16.843C20.5274 16.7725 20.2668 16.728 20.0558 16.599C19.9251 16.4681 19.8494 16.3689 19.8473 16.1743C19.8385 15.3679 20.5698 15.5055 21.0937 15.6574C22.0753 15.9422 22.9602 16.391 23.6553 17.1564L24.0273 17.6089C24.4287 16.8841 25.2298 16.2548 25.9804 15.9371C26.5554 15.6938 27.7588 15.1938 28.1242 15.9136L28.1386 15.9406C28.517 16.6608 27.3439 16.7939 26.9911 16.9093C25.9381 17.2537 25.2306 17.8261 24.6177 18.7747L24.67 18.9151C24.7801 19.1917 24.8021 19.4919 24.8388 19.7829L25.1385 23.1539L25.1988 32.9739C25.2044 33.2856 25.2771 33.5846 25.2918 33.8931L25.3195 35.3811C25.3295 35.5889 25.3692 35.7931 25.3836 36L25.4184 37.3135C25.4234 37.4707 25.4529 37.6253 25.4629 37.7822L25.4824 43.0839C25.4835 43.2211 25.4656 43.3848 25.4986 43.5164L30.3267 43.518C30.4141 43.5191 30.5348 43.5435 30.6172 43.5257L30.6332 39.631C30.6379 39.4539 30.6694 39.2792 30.6746 39.1024L30.7753 36.2364C30.7841 36.0911 30.8144 35.9497 30.8237 35.8059L30.965 33.6406L31.9014 26.1465C31.9672 25.7479 32.0929 25.3602 32.162 24.9636L32.5773 22.1815C32.6617 21.5722 32.7681 20.9516 32.8114 20.3374C33.0407 17.0812 32.4952 14.5521 31.6387 11.4083L31.1568 9.67017C31.1448 9.61903 31.153 9.64148 31.1233 9.59283L31.056 9.59723Z" fill="black"/>
</svg>
