<svg width="48" height="48" viewBox="0 0 48 48" fill="none" xmlns="http://www.w3.org/2000/svg">
<path d="M18.6816 48C18.1866 47.7361 18.1068 47.5247 18.0004 46.9922L17.0681 42.2018L16.6205 39.1605C16.5296 38.2185 16.589 37.2362 16.6999 36.2976L16.8316 35.4926C17.072 34.3579 17.8102 32.3489 17.5877 31.2011C17.4957 30.7269 17.541 30.1909 17.529 29.7066C17.4937 28.2775 17.2211 27.339 16.7734 26.0189L15.8892 23.3645C15.2069 21.2456 14.7068 19.066 14.443 16.856L14.3295 15.812C14.2104 14.7417 14.1871 13.6805 14.254 12.6016L14.8799 8.30859L16.2186 2.8125C16.3168 2.40607 16.428 1.99495 16.4936 1.58203C16.5394 1.2936 16.5024 0.995841 16.5308 0.705427L16.5348 0.667969C16.571 0.311044 16.9096 0.159945 17.1841 0H30.1401C30.3278 0.117966 30.4713 0.200318 30.5643 0.410156L30.5768 0.436524C30.6597 0.615998 30.6326 0.77572 30.6717 0.958908C30.7819 1.47359 30.8813 2.0452 31.069 2.53867L31.4182 3.75513C31.4281 3.79494 31.441 3.82872 31.4546 3.86719L32.5812 7.40625C32.7091 7.76672 32.8428 8.17256 32.9156 8.54737L33.407 10.8097C33.6069 11.55 33.6331 12.9487 33.6355 13.7113L33.6351 15.4769C33.6335 15.9525 33.6287 16.394 33.5636 16.8633L33.4783 17.5525C33.1028 20.1974 32.2131 22.6685 31.4581 25.2131C31.0558 26.5689 30.6824 27.9188 30.4264 29.3106C30.1205 30.9739 30.2008 31.5675 30.5728 33.1281L31.1546 35.4365C31.2005 35.6235 31.2082 35.8275 31.2305 36.019L31.3464 37.695C31.382 39.3124 31.3175 40.941 30.9957 42.5293L30.0144 46.6462C29.8922 47.3522 30.0481 47.5702 29.4111 48H18.6816ZM17.8792 1.4826L17.3963 3.63251L21.4423 4.34516C21.9135 4.40581 22.3918 4.47785 22.8662 4.50614L24.1915 4.52284C25.8105 4.52192 27.2424 4.26158 28.8164 3.85488L29.9759 3.5529C29.7878 2.86454 29.5377 2.18892 29.4211 1.48321L17.8792 1.4826ZM30.3304 4.86328L27.4722 5.56369C26.3714 5.78264 25.3289 5.88502 24.2034 5.88525L23.0075 5.87709C21.712 5.80912 20.4346 5.60503 19.1599 5.37436L17.0695 4.95712L16.6628 6.45708L17.7713 6.80639L19.8047 7.40897C23.0813 8.43516 24.2708 8.62603 27.5625 7.59244L29.8477 6.84408C30.1927 6.72989 30.5374 6.59798 30.8879 6.50325L30.5563 5.45339C30.4986 5.274 30.4449 5.0355 30.356 4.87158L30.3304 4.86328ZM31.2483 7.79297L28.1552 8.83448C24.4417 10.0117 23.2662 9.89381 19.436 8.73867L16.3682 7.8038C16.2861 8.08537 16.2472 8.38392 16.1925 8.67188L15.701 11.834C15.531 13.2548 15.5105 14.7827 15.7032 16.1953L16.1734 19.207L16.6432 21.1875C16.7019 21.3965 16.7428 21.6259 16.8189 21.8276L18.5026 27.0547C18.7842 27.796 18.7898 28.6283 18.8562 29.405C18.9231 30.189 19.0227 31.6863 18.9199 32.4735C18.7983 33.4043 18.4956 34.2925 18.282 35.2031C17.9789 36.4955 17.7388 38.8488 18.0318 40.1843L19.1291 46.383C19.1371 46.4394 19.1519 46.4609 19.1837 46.5065L23.2976 46.5037C23.2359 45.8663 23.2584 45.2165 23.2576 44.5765L23.2551 41.7045C23.255 40.3946 23.2654 39.6095 23.0038 38.3267L22.7686 37.0664C22.6719 36.5804 22.554 36.1146 22.4965 35.622C22.3256 34.1576 22.8172 32.6725 23.1232 31.2578L23.276 30.3398C23.4878 29.0724 23.4603 28.1808 23.4618 26.8982L23.455 23.7951L23.3435 21.1875C23.3296 20.962 23.2817 20.7413 23.2709 20.5164L23.247 18.8653C23.2302 18.5154 23.1494 18.1755 23.1408 17.8253C23.1289 17.3424 23.1833 16.8326 23.1328 16.3547L23.1429 13.1211C22.7154 12.9294 22.1225 12.7761 21.9453 12.2838C21.7425 11.7209 22.3325 11.1571 22.863 11.4579C23.5029 11.8207 23.9444 12.1988 24.6747 11.7539C24.9966 11.5578 25.1714 11.2766 25.6025 11.3621C25.9501 11.4309 26.11 11.8275 26.0384 12.1454C25.9327 12.6148 25.16 12.9992 24.7501 13.1563C24.394 13.2927 24.5389 13.5487 24.5352 13.9354L24.5532 16.4361C24.5614 16.6058 24.6112 16.7691 24.6176 16.9415C24.6777 18.5747 24.7736 20.2194 24.8305 21.8458L24.8448 23.7422C24.8522 23.9321 24.8966 24.1199 24.9031 24.3114L24.9099 26.3331C24.9095 27.2419 24.8489 28.1487 24.9068 29.0559L24.9302 29.6924L25.3067 33.6924C25.3698 34.5244 25.2851 35.2801 25.1271 36.0938L24.6366 38.6333C24.5373 39.1676 24.6281 39.6826 24.6283 40.2198L24.6607 45.8217C24.6613 46.0461 24.6515 46.277 24.6838 46.4993L28.7062 46.5105C28.7502 46.1583 28.8297 45.8147 28.9016 45.4677L29.6425 42.392C29.7581 41.8928 29.8467 41.3738 29.9015 40.8643L29.9571 40.101C30.1243 38.3531 30.136 36.6999 29.7039 34.9863L29.2278 33.3658C28.74 31.6173 28.7471 30.7168 29.0995 29.0236L30.7149 23.0345C31.69 19.9236 32.3465 17.6904 32.3446 14.4038L32.3368 13.2859C32.2416 11.574 31.9395 9.82223 31.4191 8.19C31.3805 8.06897 31.3508 7.90383 31.2894 7.79527L31.2483 7.79297ZM23.9356 33.7625L23.7759 34.6616C23.735 34.972 23.6787 35.5667 23.8242 35.8445C24.0356 35.643 24.0063 34.1458 23.9356 33.7625Z" fill="black"/>
</svg>
