<svg width="48" height="48" viewBox="0 0 48 48" fill="none" xmlns="http://www.w3.org/2000/svg">
<path d="M23.1275 26.9587L22.071 35.8401C21.7946 37.0897 22.1955 38.6787 22.3687 39.9213L22.4761 40.7704C22.55 41.5457 22.6954 42.884 22.5546 43.5469C22.2177 45.1338 19.8347 45.4057 18.4732 45.4532C17.7209 45.4794 17.6256 45.3425 17.4988 44.6055L16.6787 40.4782C16.493 39.3453 16.5156 38.6711 16.5169 37.5196L16.5059 34.4766C16.4743 33.8071 16.3895 33.1204 16.2955 32.4567L15.7852 29.7661L14.2751 22.9688L13.7263 19.8039L13.5507 18.1332C13.4395 17.4091 13.4733 16.616 13.4767 15.8841C13.4885 13.3346 14.0434 10.8799 15.011 8.5249L16.4592 5.15641C16.6431 4.68321 16.8122 4.19753 16.9452 3.70744C17.2631 2.53615 17.0752 2.59471 18.3995 2.72565L20.2639 2.91099L23.4782 3.03245C23.8826 3.04346 24.2482 3.04917 24.6514 3.02695L28.2598 2.80397L30.2993 2.56445C30.5484 2.5696 30.7558 2.67864 30.857 2.9181L31.7817 5.63679L33.7655 10.8239C33.9904 11.457 34.06 12.0416 34.2262 12.649L34.254 12.7562C34.6859 14.807 34.566 17.4936 34.3629 19.5493L34.0348 21.7852L32.6658 28.2482C32.0737 30.7533 31.4795 32.9273 31.4768 35.5094L31.4805 37.7862C31.4826 38.3022 31.4968 38.8215 31.4659 39.3367C31.3787 40.7906 30.9069 42.2106 30.659 43.6407L30.546 44.3513C30.434 45.1769 30.4896 45.5028 29.5072 45.4548C29.0401 45.432 28.5848 45.344 28.1251 45.2638C25.4599 44.799 25.2844 44.0722 25.4353 41.6565C25.5204 40.2949 25.8826 38.9735 25.981 37.6204C26.1277 35.6024 25.5449 34.3151 25.3397 32.4563L24.9209 26.9531L24.1936 22.1597C24.1369 21.8036 24.0607 21.462 24.029 21.1013L23.1275 26.9587ZM29.8897 3.76179C28.6753 3.96725 27.432 4.06196 26.204 4.12858L22.2203 4.18715L18.7852 3.93351C18.5462 3.91542 18.2886 3.92629 18.055 3.87179L17.3178 6.09485L18.0553 5.99299C18.2959 5.9486 18.531 5.93046 18.7735 5.90444L19.3486 5.83347C19.9287 5.7911 20.4958 5.72505 21.0776 5.71811L27.2473 5.72444C27.4816 5.73471 27.7054 5.78913 27.9376 5.80615L28.8645 5.84322C29.4406 5.89225 30.1408 5.98174 30.7289 6.05205C30.6151 5.66899 30.1144 4.11775 29.9294 3.77646L29.8897 3.76179ZM21.9973 6.8748L16.7922 7.31641C15.0986 10.8766 14.3426 13.9121 14.6849 17.8818L14.7995 19.1595C14.9267 20.2708 15.1085 21.7093 15.4124 22.7958L16.6297 28.2677C16.6648 28.3868 16.6753 28.5086 16.7014 28.629L17.168 30.9843C17.3532 31.8712 17.5047 32.7509 17.579 33.6563L17.6341 38.183C17.6337 38.5336 17.622 38.8833 17.6678 39.2317L17.7242 39.8838C17.8236 40.734 18.0506 41.5993 18.2356 42.4337C18.2481 42.49 18.2473 42.5627 18.2701 42.6146L18.593 44.2776C19.2611 44.2566 20.7997 44.0905 21.2114 43.6512C21.5929 43.2442 21.4638 41.5583 21.3569 40.9855L20.9207 37.9831C20.7296 36.115 21.1108 34.6031 21.4598 32.7977L21.5642 32.1586C21.6052 31.8048 21.6552 31.456 21.6648 31.1002L21.9665 27.0938L23.2963 17.9534C23.3981 17.3961 23.4285 17.0498 23.4299 16.4803L23.431 7.2663C23.431 7.14147 23.4431 7.00568 23.419 6.88357L21.9973 6.8748ZM24.5674 6.8748C24.5158 7.49139 24.5357 8.12566 24.5355 8.75252L24.536 16.4215C24.5364 16.9858 24.5728 17.4508 24.6632 18.0019L24.9852 20.0274C25.1101 20.6994 25.2139 21.3768 25.3171 22.0526L25.4591 22.8656C25.5119 23.1762 25.5523 23.4866 25.5986 23.7978L25.7352 24.586C25.7584 24.7256 25.7603 24.8686 25.7827 25.0079L26.3099 29.7217C26.3713 30.4584 26.3605 31.2042 26.4258 31.9753C26.5243 33.1398 26.9105 34.2626 27.0522 35.4221C27.2643 37.1565 26.9779 38.5226 26.7311 40.219L26.6738 40.7979C26.5979 41.4237 26.5341 42.0471 26.5303 42.6798C26.5234 43.8211 26.963 43.9055 28.048 44.0959L29.4355 44.3167L29.9605 41.4788C30.1194 40.6855 30.3064 39.8892 30.3569 39.0797C30.4831 37.0534 30.1813 35.104 30.5066 33.0006L32.6953 22.8907C33.0151 21.2641 33.2795 19.5754 33.3763 17.918L33.3985 16.3296C33.4019 13.1293 32.5853 10.1291 31.1853 7.27127L24.5674 6.8748Z" fill="black"/>
</svg>
