<svg width="48" height="48" viewBox="0 0 48 48" fill="none" xmlns="http://www.w3.org/2000/svg">
<path d="M25.9378 3.72906L22.478 3.73248C22.1135 3.73109 21.6782 3.7086 21.5601 3.26631L21.5538 3.24024C21.4703 2.90311 21.6444 2.57617 21.9555 2.42536L22.0761 2.37085L25.3911 2.36039C25.6264 2.3607 25.9413 2.30247 26.1417 2.45352L26.1668 2.47306C26.579 2.79008 26.5727 3.45294 26.0624 3.68334L25.9378 3.72906Z" fill="black"/>
<path d="M25.3996 21.3687L25.5252 19.1011C25.5603 17.7048 25.4054 16.0852 24.0139 15.357C23.8482 15.4412 23.6868 15.5238 23.543 15.6431C22.3392 16.6419 22.3842 18.1711 22.4803 19.5555L22.5901 21.6053L22.6461 26.9078L22.601 28.9345C22.5328 29.9958 22.2554 31.0895 22.2391 32.0665C22.2228 33.0497 22.5021 34.021 22.5117 35.0017L22.5018 37.0392L21.9309 42.0247C21.9025 42.3856 21.8476 42.776 21.8628 43.1363L21.9395 44.0621C21.9615 44.4057 21.9934 44.6397 21.6867 44.8725L21.6507 44.8996C21.4555 45.0477 21.1582 44.9827 20.929 44.9831L19.6781 44.9834C18.5328 44.9834 17.9296 45.3322 17.7124 43.9368L17.0049 39.8082L16.5188 36.3557C16.3939 34.9469 16.5325 33.431 16.8842 32.0698L17.4008 30.1215C17.6842 28.8058 17.8088 26.8268 17.4192 25.5153L15.9875 20.7483C15.7291 19.6809 15.5244 18.5632 15.3985 17.4722L15.3094 16.6845C15.2561 15.9187 15.2071 15.1695 15.2075 14.4004L15.2697 12.8316C15.3714 11.1028 15.704 9.4395 16.3854 7.83487L17.1793 6.16359C17.3924 5.74683 17.6211 5.32439 17.7868 4.8863C18.0369 4.22519 17.5471 3.1095 18.54 2.93457C19.3444 2.97478 19.2729 3.64961 19.2234 4.25348L19.1927 4.77937C19.3963 4.79976 19.5915 4.84415 19.793 4.87237L21.5661 5.08776C22.6028 5.17467 23.6732 5.13417 24.7137 5.13276L25.7997 5.10403C26.0283 5.09728 26.2779 5.10956 26.5023 5.06695L28.8228 4.79667L28.7584 4.19489C28.731 3.9642 28.6877 3.7184 28.7426 3.48902C28.9197 2.74756 30.0915 2.65407 30.1174 3.8892C30.1228 4.14894 30.1192 4.43835 30.165 4.69369L30.1717 4.7288C30.1818 4.7842 30.189 4.83169 30.2139 4.88297C30.8138 6.11662 31.4171 7.34376 31.8907 8.63254L32.3516 10.1827C33.2422 12.8774 32.6534 18.0452 31.9944 20.7183L30.9436 24.3988C30.2247 26.5293 30.1773 27.3843 30.5181 29.7078C30.557 29.9732 30.5906 30.261 30.6704 30.5172L30.9385 31.4644C31.4264 32.7962 31.6136 34.9654 31.4869 36.32L30.2844 43.9215C30.1902 44.5459 30.1574 44.9812 29.4425 44.9828L26.7368 44.9834C26.6446 44.9828 26.5205 44.9918 26.4386 44.9461L26.2734 44.8363C25.8831 44.5144 26.074 43.9092 26.0993 43.4812C26.1245 43.0547 26.1155 42.6163 26.0803 42.1908L25.6301 38.6794C25.5486 38.0799 25.5304 37.4817 25.5091 36.8785L25.4636 35.5894C25.4637 35.2249 25.4621 34.8511 25.4964 34.4879L25.6836 33.1695C25.7503 32.6258 25.7518 32.0156 25.6979 31.4717L25.3387 28.5135C25.3158 28.1642 25.3284 27.8068 25.3287 27.4566L25.3351 26.2546C25.3976 24.6172 25.3083 22.9905 25.3996 21.3687ZM18.7633 6.1079L18.3596 6.94926L19.1016 7.1249C19.7643 7.2637 20.4498 7.41014 21.1218 7.49053L21.7224 7.54359C21.9737 7.57144 22.225 7.6125 22.4777 7.62506L23.9604 7.64086C25.4051 7.64264 26.7729 7.54533 28.1953 7.26089C28.484 7.20319 28.8143 7.17211 29.0911 7.07953L29.6495 6.94242L29.2646 6.11578L26.6133 6.45384C25.8154 6.52181 25.0141 6.51572 24.2141 6.5153L22.207 6.49758C21.0609 6.44447 19.8941 6.30136 18.7633 6.1079ZM17.6968 8.23786C17.3217 9.26104 16.9574 10.3102 16.7932 11.3917L16.6846 12.3048C16.6266 12.9308 16.5882 13.3934 16.5875 14.0324L16.594 15.6558C16.6467 16.8001 16.8742 18.2949 17.1105 19.4058C17.262 20.1185 17.4983 21.3864 17.7564 22.0387L17.9172 22.616C17.9736 22.8338 18.0472 23.0874 18.1326 23.2945L18.8545 25.605C19.0604 26.6788 19.1585 27.846 18.968 28.9265C18.8935 29.3487 18.8931 29.7912 18.7984 30.2115C18.5126 31.4795 18.0444 32.7304 17.9003 34.0268C17.831 34.65 17.8407 35.8473 17.9024 36.48L18.0429 37.4842C18.0748 37.6316 18.0786 37.7849 18.1043 37.9332L19.0109 43.1871C19.0345 43.3136 18.9989 43.5224 19.1137 43.6126L20.4831 43.6137C20.4504 41.4111 20.9574 39.4964 21.0963 37.3497L21.1159 36.1254C21.1222 35.5703 21.1445 35.0129 21.0891 34.4586C21.0136 33.702 20.8599 32.9691 20.8609 32.2027C20.8625 31.0834 21.1571 29.9495 21.2233 28.7848L21.2754 27.9434C21.2901 27.1361 21.2038 26.4283 21.1984 25.6562L21.1972 21.5937L21.0795 19.6962C20.9371 17.6314 21.2217 15.1959 23.2969 14.1356L23.3325 14.117C24.6439 13.4473 25.8992 14.9584 26.4139 15.9957L26.6414 16.5517C26.8267 17.0124 26.8866 17.6001 26.9248 18.0927C26.9961 18.5828 26.9186 19.0355 26.8939 19.5204L26.858 20.5162C26.8513 20.66 26.8209 20.7961 26.8119 20.9393L26.7911 25.5683C26.7897 25.8623 26.7345 26.1431 26.7198 26.4324L26.714 27.5674C26.7143 27.9508 26.7031 28.339 26.73 28.7214L26.7873 29.2261C26.8017 29.3886 26.7951 29.5537 26.8213 29.7152L27.0843 31.4731C27.2263 32.808 26.8956 33.8324 26.867 35.0901L26.866 36.4097C26.8683 36.8744 26.866 37.3456 26.9139 37.8082L27.5104 42.8681C27.5149 43.0977 27.473 43.3897 27.5188 43.6117L28.9394 43.6133C29.0191 42.915 29.164 42.2283 29.2872 41.5361L30.0458 36.7158C30.2161 35.446 30.1958 34.0551 29.8884 32.8096L29.3583 30.9534C29.02 29.5876 28.8701 28.0652 28.9824 26.6598C29.0731 25.5245 29.4708 24.4811 29.8194 23.408L30.445 21.276C31.4057 17.6554 31.8693 13.3663 30.8159 9.72609L30.4744 8.71833C30.4212 8.56884 30.3739 8.37848 30.2894 8.24456C26.8834 9.31786 22.1049 9.2512 18.659 8.47022L17.9909 8.30208C17.9165 8.2815 17.7663 8.21555 17.6968 8.23786Z" fill="black"/>
</svg>
