<svg width="48" height="48" viewBox="0 0 48 48" fill="none" xmlns="http://www.w3.org/2000/svg">
<path d="M23.3346 25.9976C23.2942 26.327 23.2165 26.6499 23.1596 26.9764L22.5798 30.2927C22.4565 30.959 22.3016 31.5921 22.2559 32.2726C22.1823 33.3677 22.464 34.4905 22.475 35.5898C22.4801 36.0904 22.4989 36.6067 22.4677 37.1057L22.0319 41.5801L21.8422 44.1678C21.768 44.8969 21.0272 44.8805 20.4881 44.8819L18.4188 44.8821C17.6449 44.8802 17.4761 44.6012 17.3277 43.8438L16.1986 36.6876C16.0843 35.3577 16.1271 34.0469 16.4621 32.7483C16.8774 31.139 17.4411 29.8901 16.9611 28.1774C16.8724 27.8611 16.728 27.5654 16.6092 27.2599L15.5549 23.9552C15.2882 22.9631 15.0483 21.9708 14.9051 20.953L14.6949 19.1029C14.6845 18.984 14.6598 18.8675 14.6529 18.7477L14.6514 16.6409C14.7977 13.9451 15.655 11.3651 16.5944 8.8577C16.7321 8.49024 16.8311 8.10976 16.9779 7.74568L17.6859 5.97901C17.7739 5.70709 17.8368 5.57063 17.7819 5.28826C17.7021 4.87843 17.7847 4.48868 18.2276 4.37186C18.451 4.31298 18.4357 3.02624 19.2541 3.29648C20.0291 3.55243 19.4926 4.33422 19.3411 4.77156C19.5529 5.13226 22.1086 5.42087 22.502 5.44295L24.3205 5.45748C25.9166 5.45659 27.1811 5.31545 28.7213 4.76481C28.4604 4.26521 28.0368 3.48968 28.839 3.26114C29.1044 3.24403 29.315 3.31785 29.4481 3.56905L29.731 4.36968L29.9414 4.42935C30.5326 4.63221 30.1107 5.33528 30.2965 5.90063L32.0425 10.5467C32.1504 10.9531 32.3425 11.3542 32.4242 11.7678L32.5133 12.0936C32.5369 12.218 32.5883 12.3322 32.6095 12.4569L32.8902 13.6148C32.9258 13.8419 32.9854 14.0755 33.0351 14.3007C33.9271 18.3398 32.9604 22.3533 31.7781 26.2147C31.3087 27.748 30.4916 29.0449 30.9613 30.7118L31.1123 31.3525C31.171 31.6539 31.3173 32.1259 31.4201 32.4188L31.6025 33.1058C31.9784 34.1626 31.876 36.8402 31.7383 37.9547L30.6859 43.9772C30.6558 44.1187 30.6382 44.2526 30.5764 44.3859L30.563 44.4139C30.2478 45.0903 29.2675 44.8804 28.6693 44.8812C27.7675 44.8825 26.1827 45.2172 26.1623 43.9704C26.1531 43.4032 26.1077 42.8524 26.0521 42.2877L25.5797 37.5057C25.5628 37.3737 25.5315 37.2444 25.5242 37.1111L25.5177 35.8599C25.5186 35.3401 25.5664 34.8402 25.614 34.3231C25.7446 32.9031 25.8009 32.4485 25.5298 31.0792L24.5004 24.6325C24.4203 24.0323 24.395 23.4477 24.3945 22.8421L24.3939 21.0324C24.3936 20.4712 24.5047 19.4643 24.038 19.0574C23.3649 19.9698 23.665 22.7928 23.5988 23.9209C23.558 24.6144 23.4294 25.3099 23.3346 25.9976ZM29.0566 5.8186C27.5344 6.65138 25.7012 6.63906 24.0162 6.63915C22.297 6.63929 20.5154 6.65246 18.9492 5.82784C18.8336 6.4021 18.6211 6.96249 18.4181 7.51159C18.4524 7.53207 18.4622 7.53587 18.5039 7.54159C19.5893 7.78267 21.2463 7.7567 22.3558 7.75656L28.0799 7.69562C28.2544 7.68962 28.4199 7.65292 28.5927 7.63843L29.6621 7.57965L29.0566 5.8186ZM17.9425 8.7069C17.2901 10.0322 16.5264 12.3954 16.2217 13.8749L15.989 15.2063C15.6238 17.3065 15.7767 19.5459 16.1919 21.6251L16.38 22.5317C16.4214 22.7439 16.4554 22.9824 16.5222 23.1871L17.5442 26.4591C18.0325 27.7561 18.5219 29.1432 18.235 30.5507L17.5546 33.1458C17.1606 34.4935 17.2742 37.1076 17.5387 38.4828L18.0477 41.2967C18.0718 41.4123 18.0713 41.5335 18.0957 41.6483L18.4559 43.6896L20.6231 43.6882L20.7156 43.6745C20.7875 43.3588 20.7187 42.9818 20.7565 42.6551L21.13 39.0177C21.249 37.98 21.382 36.9165 21.3473 35.871C21.3039 34.5609 21.0569 33.2921 21.0998 31.9742C21.1193 31.3758 21.2915 30.7325 21.4136 30.1463L22.2128 25.6124C22.3445 24.6759 22.4193 24.0005 22.4198 23.0529C22.4206 21.6886 22.3092 18.9509 23.4195 17.9273L23.4067 8.90842C22.0811 8.8156 20.8244 8.93392 19.4704 8.82142C19.3242 8.80928 17.9939 8.6994 17.9425 8.7069ZM29.8272 8.72856L29.5517 8.76376C29.0149 8.85695 27.9105 8.88784 27.3261 8.88854L25.5556 8.88952C24.3531 8.89046 24.5662 8.67006 24.5619 9.88238L24.5474 17.9559C24.8906 18.3439 25.1202 18.3731 25.3406 18.9816L25.5454 19.7032C25.6064 20.0364 25.5666 20.4559 25.5668 20.7977L25.5674 22.8079C25.5684 23.6462 25.6047 24.1662 25.7366 24.9842L26.3921 29.2382C26.4169 29.3798 26.4223 29.5247 26.4492 29.666L26.5438 30.22C26.789 31.36 26.9487 32.4248 26.8646 33.5929L26.7161 35.0794C26.6691 35.7361 26.6352 36.7916 26.7468 37.4304L27.2882 43.6884L27.7441 43.6882L29.5626 43.6882L30.2276 39.9022C30.3917 39.0127 30.5844 38.1269 30.6611 37.224C30.7675 35.9722 30.6919 34.009 30.3633 32.8381C30.2199 32.3272 30.0352 31.8292 29.9118 31.3124C29.4194 29.2502 29.8393 28.216 30.5128 26.3406L31.0153 24.765C32.4005 20.0004 32.6903 16.7244 31.2587 11.9142L30.5929 9.91014C30.4436 9.50345 30.298 9.10276 30.0934 8.71956C30.0274 8.72129 29.8833 8.70592 29.8272 8.72856Z" fill="black"/>
</svg>
