<svg width="48" height="48" viewBox="0 0 48 48" fill="none" xmlns="http://www.w3.org/2000/svg">
<path d="M24.7767 27.779L24.0745 20.0857C24.0614 19.9115 24.0934 19.6191 24.0189 19.4646L23.9858 19.4705C23.8877 19.7026 23.9173 19.968 23.8991 20.2146L23.5891 23.8294C23.5792 23.9435 23.5538 24.0538 23.5412 24.1671L22.7394 32.9737L22.4087 36.0935L21.9866 40.8162L21.8519 42.024C21.8012 42.5511 21.7999 42.701 21.6763 43.2185L21.5633 43.7342C21.3883 44.4533 21.3542 45.1754 20.9219 45.8054C20.2103 46.8427 18.8817 46.9385 17.754 46.763C15.1423 46.3565 14.5647 45.4266 14.5617 43.0218L14.5603 34.3545C14.5601 33.8002 14.4939 33.2929 14.4188 32.7444L13.2896 22.535C13.0841 21.0553 13.2807 19.4627 13.6626 18.02L14.7416 14.3318C15.0893 13.0375 15.3243 11.7004 15.4952 10.3721L15.6106 9.32947C15.7078 8.3496 15.7328 7.1151 15.6652 6.12425L15.4862 4.59355C15.377 3.64159 15.1588 2.75312 15.1146 1.75761C15.0954 1.3256 15.076 1.1322 15.5211 0.939911C15.8069 0.931318 16.0601 0.979675 16.3405 1.01933L19.9613 1.39837C20.3325 1.43855 20.834 1.34609 21.1813 1.47296C21.7371 1.67601 25.9127 1.49199 26.9272 1.43853L27.4373 1.41569C27.7247 1.40381 28.0034 1.35985 28.2892 1.33658L32.0098 0.943131C32.3214 0.919857 32.6975 0.89724 32.8326 1.24925L32.8428 1.27714C32.9401 1.51366 32.8712 1.88433 32.8344 2.13261L32.489 4.78171C32.4753 4.88427 32.4412 4.98285 32.429 5.08789L32.3421 6.08183C32.3286 6.19991 32.3018 6.31128 32.2959 6.43147L32.2861 7.69949C32.287 8.13997 32.3083 8.56574 32.3567 9.00303L32.4497 9.94321L33.0353 13.4037C33.1592 13.8794 33.2322 14.3905 33.3898 14.8554L34.508 18.809C34.9309 20.1851 34.7669 22.179 34.6056 23.5894L33.5197 33.4189C33.4979 33.5679 33.4541 33.705 33.4484 33.8577L33.4472 43.1827C33.4467 43.6733 33.4583 44.1561 33.3058 44.6307L33.2783 44.7239C32.816 46.7412 29.0997 47.4335 27.6434 46.3394C26.8322 45.7298 26.7047 44.9165 26.4978 43.9985C26.3488 43.337 26.2102 42.8781 26.152 42.1991L24.7767 27.779ZM31.6474 2.14433L27.2055 2.60546L22.3478 2.69831L16.5821 2.21421C16.508 2.20502 16.3209 2.13553 16.2695 2.19292L16.5293 3.83511C16.5602 3.96163 16.5329 4.19636 16.629 4.26947C17.3219 4.52224 18.3458 4.68744 19.0665 4.77988L20.8035 4.98669C21.2497 5.02311 21.6994 5.00253 22.1461 5.02569L25.7405 5.072L27.3134 4.96686C28.6858 4.83711 30.0466 4.59152 31.3786 4.23839C31.4032 3.98457 31.7467 2.26674 31.6746 2.14656L31.6474 2.14433ZM16.7611 5.49589C16.823 6.08938 16.8242 6.69158 16.8244 7.28806L16.6871 9.97339C16.5144 11.5897 16.2273 13.1935 15.8133 14.765L14.9071 17.7889C14.4307 19.5413 14.2848 20.5161 14.4122 22.28L15.6953 33.7664C15.7195 34.0546 15.7089 34.351 15.7088 34.6404L15.6902 41.5073C17.0363 42.161 19.1714 42.6718 20.6933 42.4435L21.5679 33.1129L22.6862 21.1404C22.7859 19.8818 22.8128 18.6689 23.2489 17.4716C23.3194 17.278 23.4133 17.075 23.4598 16.8748C23.5307 16.5693 23.4762 16.1851 23.6153 15.9046C23.7618 15.6091 24.0551 15.355 24.259 15.0941C25.5425 13.4519 25.6281 10.8856 25.7108 8.85571C25.7485 7.93156 25.8283 7.20153 25.7333 6.23469L22.8034 6.21533C22.7744 6.46025 22.7833 6.70897 22.7828 6.9553L22.7801 12.8836C22.7798 13.0352 22.7993 13.2121 22.7699 13.3593C22.6771 13.8239 21.7519 13.8822 21.677 13.3475C21.6536 13.1801 21.6699 12.9932 21.6704 12.8237L21.6744 6.81632C21.6743 6.61555 21.6928 6.39313 21.6669 6.19485L20.5894 6.10274C19.8454 6.0396 19.1006 5.97013 18.3656 5.83339L17.0052 5.53892C16.9311 5.52013 16.8369 5.48385 16.7611 5.49589ZM31.1473 5.49589C29.7484 5.8063 28.2774 6.12767 26.842 6.17333L26.853 6.21341C26.9162 6.45988 26.8977 6.78533 26.8988 7.04075L26.8827 8.51614C26.8737 8.68255 26.8434 8.84371 26.8312 9.00861L26.7789 10.272C26.6618 12.1073 26.3516 13.9532 25.3587 15.5383L24.6223 16.4941C24.7251 17.2359 24.9789 17.9486 25.0737 18.6929L25.606 24.5244L26.9137 38.4373L27.2479 41.6928C27.2626 41.9112 27.2507 42.1765 27.3046 42.3865L27.3399 42.4578C28.1769 42.5237 29.0594 42.4543 29.8829 42.3051C30.313 42.2272 31.9896 41.8101 32.2879 41.5101L32.282 34.8552C32.2824 34.5387 32.2661 34.2118 32.2973 33.8972L33.5093 23.1535C33.8264 20.5244 33.5344 19.2899 32.7612 16.7169L32.4226 15.6266C31.6402 12.8296 31.1535 9.9696 31.1673 7.05922L31.1942 6.0613C31.2008 5.88627 31.2855 5.47128 31.1473 5.49589ZM15.732 42.8068L15.7084 43.7468C15.7069 45.4012 17.3814 45.6994 18.7384 45.685C19.2122 45.68 19.5744 45.5585 19.9092 45.2127L19.9254 45.1955C20.2297 44.7335 20.3162 44.1732 20.4118 43.6374C19.4976 43.5916 18.8025 43.6122 17.8848 43.4429C17.1533 43.308 16.4168 43.0987 15.732 42.8068ZM32.2588 42.8318C31.0809 43.2968 29.9381 43.5125 28.7071 43.6047L28.0144 43.6304C27.5784 43.6359 27.5149 43.5372 27.6807 44.0748L27.8332 44.6924C27.874 44.858 28.0052 45.1144 28.126 45.2345C29.0315 46.0273 31.1902 45.7188 31.9151 44.8735C32.3812 44.33 32.3482 43.5047 32.2696 42.8377L32.2588 42.8318Z" fill="black"/>
</svg>
