<svg width="48" height="48" viewBox="0 0 48 48" fill="none" xmlns="http://www.w3.org/2000/svg">
<path d="M25.5295 32.1334L24.868 27.9606C24.7232 27.0014 24.6131 26.0339 24.3944 25.0873L24.1529 24.1981C24.1057 24.0469 24.0415 23.9032 23.9984 23.7502C23.715 24.3817 23.5646 25.1382 23.4492 25.8146L22.7513 30.4274L21.5703 37.4061L21.4239 38.5778C21.3853 38.8375 21.3123 39.0949 21.2777 39.3547L21.0956 40.5699C21.0338 40.9546 20.9981 41.3466 20.8745 41.7192C20.2869 43.4909 18.0498 43.6087 16.4648 43.6127C14.4228 43.6178 11.7061 43.3892 12.0783 40.7106L12.3261 38.6832C12.432 37.9724 12.5936 37.2697 12.5956 36.548C12.5977 35.7678 12.23 35.0624 12.0383 34.3163C11.4678 32.0959 12.3592 30.7109 12.3967 28.6632L12.3935 27.3385L12.1662 24.3434C12.1537 24.1823 12.115 24.0261 12.1054 23.863L12.0929 21.0237C12.1003 20.2561 12.1837 19.4902 12.268 18.7274L13.4539 9.75422L13.7811 7.94494C13.981 6.85627 14.2063 5.74031 14.5495 4.68713C14.655 4.36335 14.8274 4.17372 15.1697 4.08021C15.459 4.06847 15.7291 4.15255 16.011 4.20666L17.5336 4.49139L21.7923 5.0085C21.9596 5.02055 22.1196 5.05734 22.289 5.06597L25.5013 5.07572C25.8738 5.06944 26.2418 5.00147 26.6154 4.97133L30.4336 4.49566L31.9219 4.21779C32.1936 4.16859 32.5318 4.05456 32.804 4.09188L32.8359 4.09702C33.4188 4.18612 33.5228 4.87214 33.657 5.35509L33.9381 6.52697C34.24 7.73503 34.3974 8.96756 34.5947 10.1949L35.5916 17.369L35.8233 19.6988C35.8508 20.0794 35.8934 20.4425 35.8975 20.8292L35.8933 22.8981C35.8898 23.4711 35.8838 23.8487 35.8271 24.4098L35.6654 26.5074C35.5184 28.2955 35.5772 29.2713 35.9468 30.9642C36.2215 32.2226 36.237 33.6072 35.8233 34.8366C35.4624 35.9091 35.3233 36.1742 35.4787 37.3361L35.8535 40.0951C35.8827 40.3087 35.8877 40.5246 35.9299 40.7361C36.4312 43.247 33.5676 43.6034 31.7726 43.611C29.6551 43.62 27.3953 43.5808 26.9775 40.953L25.5295 32.1334ZM15.7252 5.56945C15.4333 6.37177 15.3367 7.24547 15.1405 8.0737C15.6544 8.24836 16.2106 8.35031 16.7397 8.47575C18.0215 8.77969 19.3098 9.09042 20.6129 9.28697L21.9488 9.46486C22.649 9.54272 23.1144 9.57553 23.8342 9.57624L24.8293 9.57366C25.0675 9.57192 25.3232 9.5783 25.5553 9.52163L31.9268 8.32369L32.868 8.09006L32.358 5.76994C32.3418 5.70816 32.333 5.62284 32.2898 5.57541C30.2251 5.94577 28.1163 6.31758 26.0203 6.44677L22.1293 6.45263C21.9512 6.44156 21.7769 6.40392 21.5992 6.38906L18.6562 6.06867L15.7252 5.56945ZM14.9239 9.45769L14.2111 14.449C14.7518 15.2211 15.2148 15.6871 15.5894 16.6399L15.7678 17.0809C15.9678 17.5666 16.0263 18.0846 16.1593 18.586C16.4203 19.5708 16.2992 20.6948 16.2175 21.6955C16.0319 23.9683 15.633 26.2412 14.6558 28.3175L14.0966 29.4313C13.5005 30.5652 12.9976 31.9847 13.2622 33.2719C13.3581 33.7388 13.3859 34.1635 13.5496 34.6168L13.9159 35.8077C14.0428 36.2166 13.9916 37.0298 13.9361 37.451L13.749 38.4124C14.538 39.121 16.0577 39.147 17.0389 39.0896L17.3028 39.0514C18.4982 38.8103 19.2346 38.7901 20.1508 37.7407C20.1912 37.321 20.2706 36.9076 20.3374 36.4918L22.1623 25.19C22.295 24.5347 22.473 23.883 22.6877 23.2496L22.9731 22.4713C23.1991 21.8817 23.0523 21.9435 23.1102 21.3812L23.2782 20.168C23.4742 19.0261 23.4449 18.3325 23.4447 17.173L23.4439 13.4996C23.4438 13.0869 23.3464 12.5258 23.7131 12.236C24.0337 11.9828 24.4414 12.0808 24.6619 12.4081L24.7162 12.4921C24.7703 12.5747 24.79 12.6873 24.7939 12.7848L24.8006 18.2662C24.8021 19.0979 24.7588 19.6439 24.6208 20.4723L24.5064 21.1302C24.4785 21.3105 24.4371 21.4744 24.498 21.652L24.5061 21.6852L24.515 21.7122C24.5645 21.8559 24.6474 21.9672 24.7169 22.0999L25.1179 22.877C25.2918 23.2378 25.3932 23.6212 25.5363 23.9921L25.7227 24.7047C25.8033 24.9717 25.8393 25.2703 25.8902 25.5452L26.8609 31.6754C26.8836 31.8189 26.8887 31.9661 26.9136 32.109L27.7969 37.3004C27.8481 37.5962 27.7786 37.7103 28.0053 37.9249C29.2158 39.0704 31.3473 39.3077 32.9531 38.984C33.4218 38.8895 33.82 38.6904 34.2309 38.4559C33.8838 36.9138 33.9555 36.065 34.4677 34.5933C35.3696 32.0019 34.3544 30.4089 33.3167 28.2523C32.5173 26.591 32.1356 24.7411 31.9038 22.924L31.8025 22.0607C31.7341 21.263 31.6041 19.9732 31.746 19.191L31.85 18.4621C32.1142 17.0941 32.6662 15.8565 33.5419 14.778C33.7551 14.5155 33.8123 14.6082 33.7735 14.2848L33.3164 10.8557C33.2503 10.4078 33.2024 9.95161 33.1062 9.50963C33.035 9.49256 32.9199 9.53728 32.8476 9.55411L28.6691 10.4767L27 10.7505C26.4038 10.827 25.6812 10.9473 25.0887 10.959L22.8047 10.949C22.3256 10.9195 21.8301 10.8434 21.3532 10.7825L19.0218 10.4155L14.9239 9.45769ZM13.944 16.3971C13.8481 16.9245 13.8141 17.4566 13.7388 17.9856L13.5477 19.5226C13.4144 20.7358 13.3756 22.2868 13.4524 23.5241L13.6414 25.5335C13.6882 26.0141 13.6496 26.4943 13.7448 26.9709L13.9355 26.4311C14.3535 25.1244 14.5821 23.7984 14.7494 22.441C14.9876 20.5086 15.0854 18.6302 14.1621 16.8414L13.944 16.3971ZM34.0385 16.4075C33.4353 17.6958 33.0647 18.8096 33.0607 20.2289C33.0578 21.2413 33.1838 22.2122 33.338 23.2083L33.6099 24.8082C33.6388 24.9392 33.6493 25.0668 33.6902 25.1962L33.7579 25.4635C33.7655 25.4992 33.777 25.5308 33.7887 25.5651L34.0996 26.5286L34.1815 26.7667C34.207 26.856 34.2559 26.9409 34.2896 27.0282C34.2563 25.8946 34.4902 24.7818 34.5151 23.6543L34.5607 21.6847C34.552 20.5625 34.44 19.4349 34.3138 18.3208L34.1115 16.8919C34.0888 16.7295 34.0476 16.5716 34.0385 16.4075ZM28.2002 39.7167C28.2195 39.8681 28.2628 40.0141 28.2792 40.1653L28.3603 40.8746C28.4039 41.1623 28.4408 41.4867 28.6916 41.6818C29.4675 42.2848 30.6604 42.2366 31.5886 42.2367C32.4779 42.2367 33.841 42.2697 34.507 41.587C34.7051 41.3048 34.6055 41.0262 34.5593 40.7028L34.465 39.9426C34.0878 40.1174 33.6918 40.25 33.284 40.3333L32.5751 40.4513C32.2995 40.5084 31.9791 40.4797 31.6984 40.4798C30.4751 40.4806 29.2723 40.3895 28.2002 39.7167ZM19.7691 39.7613C18.765 40.3441 16.4744 40.6774 15.2791 40.4335C14.762 40.328 14.2402 40.2548 13.7591 40.0259C13.7009 39.9983 13.5941 39.9208 13.5343 39.92L13.4814 40.5143C13.4513 40.7552 13.3311 41.1254 13.4001 41.3551L13.4089 41.3881C13.4329 41.4568 13.482 41.5171 13.5158 41.5814C14.2395 42.3 15.6327 42.2394 16.579 42.236C17.3161 42.2334 18.8128 42.1888 19.3586 41.6391C19.6416 41.3541 19.6687 40.8538 19.7124 40.4762L19.7691 39.7613Z" fill="black"/>
</svg>
