<svg width="48" height="48" viewBox="0 0 48 48" fill="none" xmlns="http://www.w3.org/2000/svg">
<path d="M24.8858 25.7772L24.6612 21.0738L24.5853 19.1283C24.5847 18.6641 24.4126 17.4406 24.1146 17.0501L24.0118 16.9088C23.2886 17.9789 23.3803 19.3099 23.3152 20.5152L23.156 23.2146L23.1347 24.7801L22.9731 27.5389L22.9508 29.269C22.9396 29.5467 22.8819 29.8161 22.8709 30.0935L22.6733 34.2517L22.4099 38.9706C22.3455 39.8262 22.4678 41.4431 22.2357 42.2046L22.2263 42.2347C22.0774 42.7239 22.1009 43.0569 22.1005 43.5709L22.1001 45.7414C22.0999 45.9868 22.0162 46.313 21.7413 46.398L21.7149 46.405C21.6179 46.4316 21.5245 46.4437 21.4242 46.4489L17.8467 46.4601C17.6883 46.4601 17.4412 46.4898 17.2975 46.4207L17.2735 46.4081C16.8699 46.2026 16.9 45.7852 16.8994 45.3905L16.8938 41.9502C16.883 41.7199 16.8339 41.4776 16.7958 41.2496L15.5079 33.7264L13.7114 22.4529L13.1951 17.6381C13.1428 16.8847 13.1249 16.29 13.123 15.5219L13.1362 13.2185C13.1918 11.8887 13.4025 10.2905 13.623 8.98807L14.1448 6.19901L14.7086 2.52946C14.7782 2.04611 14.7393 1.65084 15.2727 1.45483C15.3924 1.44432 15.4943 1.47291 15.6102 1.492L19.6355 2.09543C22.0867 2.4052 24.9427 2.57009 27.4028 2.23544L31.2305 1.68234C31.7185 1.6091 32.9472 1.13526 33.1768 1.80395L33.1879 1.83963C33.3376 2.24821 33.3106 2.72394 33.3778 3.15213L33.8845 6.27612C33.976 6.74402 34.0317 7.22102 34.1256 7.68729L34.726 11.5808C34.765 11.8488 34.77 12.1267 34.7929 12.3969L34.9132 13.9635L34.9005 16.8613C34.8814 17.208 34.8126 17.5585 34.7834 17.906L34.729 18.7732L33.9853 24.4685L33.4231 28.1014L31.4087 40.1717C31.2059 41.2367 31.1042 41.9561 31.1035 43.041L31.1036 45.6521C31.1033 46.525 30.5999 46.4608 29.9345 46.4613L27.2083 46.4591C25.9527 46.4567 25.8996 46.4342 25.8979 45.0448L25.8972 43.3983C25.8972 42.8517 25.8919 42.8133 25.8016 42.3206C25.6267 41.366 25.6266 40.4042 25.581 39.4391L25.2484 33.7346L25.2204 32.2306C25.2085 32.0007 25.1637 31.7765 25.1531 31.5467L24.9682 27.8685L24.8858 25.7772ZM15.7428 2.57287C15.6423 3.0942 15.5987 3.62568 15.5237 4.15133L15.4236 4.8716C15.4038 5.01232 15.3712 5.13865 15.3665 5.28227C15.6661 5.44169 15.9972 5.50249 16.322 5.59057L18.1887 6.03495C19.5822 6.29426 21.1709 6.50819 22.5933 6.56777L25.4742 6.56491C27.5484 6.44693 30.104 6.11318 32.1043 5.47769L32.1182 5.47268C32.296 5.42679 32.4561 5.36688 32.6238 5.29254L32.243 2.57564C31.9433 2.64589 31.6264 2.67887 31.322 2.72676L27.518 3.2895C26.0704 3.46964 25.0378 3.49368 23.5695 3.48903C23.0492 3.48739 22.4684 3.51909 21.9555 3.43673L15.7428 2.57287ZM15.1742 6.33968C15.1196 6.5666 15.0963 6.79019 15.0574 7.01932L14.4795 10.5127C14.3444 11.4791 14.2153 12.449 14.1606 13.425L14.146 15.5489C14.149 16.3565 14.1891 17.0716 14.2466 17.8677L14.5817 21.031C14.6527 21.6509 14.717 22.2719 14.8242 22.8866L17.3488 38.4173L17.6738 40.1131C17.7168 40.3331 17.8149 41.5142 17.8946 41.6271L21.2524 41.6406L21.3046 40.4236L21.402 38.2184C21.4121 38.0588 21.4548 37.9071 21.4635 37.7478L21.656 34.2807L21.7743 31.0732C21.7842 30.844 21.8286 30.6177 21.8397 30.3871L22.0252 26.2254L22.1145 22.4944C22.1267 22.1368 22.2084 21.7842 22.2235 21.4249L22.2429 20.036C22.2848 18.9661 22.4836 16.8559 23.3193 16.0798C23.3648 16.0376 23.4756 15.9729 23.4819 15.9119L23.4661 7.64379C23.1488 7.64435 22.8389 7.6039 22.5235 7.58988L21.6469 7.56429C19.8325 7.44687 16.888 7.05368 15.1742 6.33968ZM32.8368 6.38027C30.5987 7.13984 28.2093 7.51057 25.8516 7.58398L24.5435 7.64135L24.5419 15.9406C24.9777 16.3871 25.1453 16.661 25.3345 17.2849L25.4434 17.6736C25.6391 18.326 25.6798 19.5676 25.6769 20.2982L25.8029 23.8252C25.8154 24.031 25.8595 24.2289 25.8695 24.4365L25.8894 25.4764C25.8969 25.6599 25.9319 25.8411 25.943 26.025L25.9798 27.3349C25.9883 27.5148 26.024 27.6926 26.0339 27.8724L26.0672 28.9666C26.0776 29.1207 26.1187 29.2668 26.1274 29.4199L26.166 30.7996C26.1764 30.9869 26.2211 31.1704 26.2315 31.3593L26.3485 34.3782C26.3625 34.5976 26.4025 34.8139 26.4124 35.0336L26.4282 36.3267C26.4392 36.5728 26.49 36.8044 26.503 37.0466L26.5423 38.3046C26.5528 38.4934 26.593 38.6832 26.6003 38.8709L26.6286 40.0724C26.6377 40.2455 26.6748 40.4147 26.6862 40.5879C26.7017 40.9464 26.7198 41.2906 26.7974 41.6421L30.0962 41.6291C30.1585 41.5241 30.1521 41.3068 30.1706 41.1793L32.5641 26.7771L33.4605 20.7733L33.7816 17.0413C33.7998 16.7181 33.8493 16.4001 33.8567 16.075L33.8556 13.6684L33.5741 10.7038L33.0296 7.41776C32.9777 7.08776 32.9283 6.74637 32.8483 6.42166L32.8368 6.38027ZM17.9542 42.7287L17.9601 45.3604L20.7281 45.3586C20.8355 45.3592 20.9584 45.3716 21.0639 45.3537L21.0269 42.7302L17.9542 42.7287ZM26.986 42.7287L26.9552 45.353L30.0483 45.37C30.0609 45.1369 30.0233 44.8547 30.023 44.6149L30.0233 42.7302L27.2367 42.7309C27.1601 42.7315 27.0602 42.7439 26.986 42.7287Z" fill="black"/>
</svg>
