<svg width="48" height="48" viewBox="0 0 48 48" fill="none" xmlns="http://www.w3.org/2000/svg">
<path d="M23.3202 21.5529L23.4585 24.353L23.4834 25.9809C23.4969 27.3078 23.4227 28.1618 22.989 29.4629C22.7324 30.2327 22.4318 30.9697 22.2956 31.7744C22.0578 33.1794 22.2216 34.606 22.0878 36.0177C22.014 36.7974 21.8195 37.5513 21.6645 38.3161L21.2847 40.4418C21.1861 41.0489 21.0686 42.1632 21.0587 42.7899C21.0536 43.1156 21.0983 44.4986 20.9956 44.6944L20.9734 44.7324C20.6677 45.2678 20.1321 45.1631 19.6113 45.1636L16.9367 45.1656C16.5908 45.1658 16.1932 45.2278 16.0344 44.8222L16.0238 44.7931C15.9457 44.586 15.8723 43.5071 15.8511 43.1644L15.8301 42.2555C15.8183 42.0404 15.7727 41.8321 15.7628 41.6167L15.7635 36.566C15.7899 36.0199 15.8236 35.3586 15.8737 34.8283C15.9664 33.8466 16.1986 32.8788 16.3761 31.9106C16.7313 29.9721 16.8867 27.8975 16.5878 25.9383L15.5576 21.2286L14.9295 17.8598L14.6955 15.4402C14.6828 15.2711 14.6468 15.1054 14.6378 14.9347L14.6309 12.1885C14.6355 11.731 14.7028 11.2709 14.7488 10.8146L14.9377 9.28319C15.2114 7.48432 15.7346 5.74638 16.2435 4.00411C16.5857 2.83217 16.4018 2.80165 17.8015 3.00429L19.3375 3.27333L22.791 3.65961L25.1617 3.65838L29.2731 3.18457L30.9494 2.86775C31.1548 2.84683 31.4311 2.9585 31.5401 3.1315L31.5583 3.16131C31.6426 3.29561 31.6521 3.40542 31.6941 3.55154L31.9215 4.40665C31.9811 4.60918 32.0129 4.82369 32.0768 5.02629L32.445 6.43273C32.4892 6.56121 32.4985 6.69068 32.5313 6.82071L32.9664 8.90168C33.0991 9.73169 33.2144 10.5518 33.2807 11.391L33.3416 11.9943L33.3331 15.4383C33.2104 17.3382 32.8799 19.2509 32.4864 21.1122L31.408 25.852C31.3491 26.204 31.3018 26.5754 31.283 26.932L31.265 27.7869C31.262 29.0268 31.342 30.5518 31.5938 31.7816L31.7892 32.8325C31.8837 33.2644 31.9756 33.7025 32.0313 34.1423L32.174 35.8246C32.1892 35.9927 32.2254 36.1591 32.233 36.3279L32.234 41.6697L32.0665 43.99C32.0565 44.1913 32.0703 44.422 32.0288 44.6181L32.0218 44.6488C31.9132 45.1761 31.4052 45.1618 30.9881 45.1627L28.4213 45.1635C28.1583 45.1631 27.672 45.2435 27.4359 45.1145L27.4098 45.0992C27.0065 44.8719 27.0178 44.6042 27.0168 44.202L26.815 41.1768C26.6365 39.4121 26.1169 37.7009 25.9077 35.945C25.7393 34.5315 25.9363 33.1137 25.6821 31.7022C25.5393 30.9098 25.2424 30.2 24.994 29.4415C24.5247 28.0082 24.5148 27.2375 24.5488 25.8124L24.5915 24.1711C24.606 23.9609 24.6555 23.7574 24.6644 23.5444L24.7454 20.8356L24.6869 17.2601C24.6637 16.7736 24.7885 14.552 23.9538 14.7105L23.9294 14.7157C23.196 14.8588 23.3391 16.2397 23.3191 16.8375L23.2482 19.233C23.2476 20.0127 23.2456 20.7761 23.3202 21.5529ZM30.5812 4.18399L25.8872 4.84052C25.4072 4.90896 24.8814 4.87938 24.3968 4.88013L22.6795 4.8664C21.1123 4.78652 18.9852 4.51759 17.4304 4.17738C17.2695 4.53946 17.1793 4.94374 17.0784 5.32634L16.6693 6.80571L17.8252 7.08359L19.7897 7.54521C22.1715 8.11179 23.4022 8.34068 25.7925 8.05629L30.8522 6.9716C31.0122 6.92838 31.1817 6.89721 31.3377 6.8433L30.5812 4.18399ZM16.3668 7.99774C16.1164 9.09509 15.9002 10.587 15.8396 11.7309L15.8203 13.2754C15.8202 14.0293 15.7896 14.7998 15.8522 15.5514L15.9089 15.9848C15.9473 16.432 15.9728 16.8896 16.0422 17.3338L16.6051 20.5685L17.3932 23.8129C17.5548 24.4729 17.6607 25.1581 17.7658 25.8285C17.8224 26.1892 17.869 26.5714 17.8878 26.9363L17.8924 29.1802C17.8776 29.6294 17.8238 30.0668 17.7681 30.5123L17.5907 31.7733C17.4677 32.5477 17.251 33.3127 17.1514 34.0902L17.027 35.3882C17.0055 35.6232 16.9657 35.8581 16.954 36.0941L16.9456 41.5619C16.9477 41.9143 16.9378 42.2873 17.0183 42.6319C17.1158 43.0489 16.9922 43.5106 17.0871 43.9417L19.4688 43.9229C19.5895 43.9231 19.7404 43.94 19.8566 43.9132L19.8943 42.2898C19.9061 42.124 19.9412 41.9622 19.9568 41.7965L20.3919 38.5933C20.5441 37.7233 20.8112 36.8741 20.9092 35.9945C21.1527 33.8065 20.7369 32.39 21.4914 30.1044C21.6981 29.4783 21.9578 28.8797 22.1008 28.2324C22.375 26.991 22.2519 26.2016 22.24 25.0269L22.1501 22.368C22.1062 21.2977 22.0498 20.2344 22.0499 19.1627L22.0546 17.6982L22.2161 15.5981C22.2772 14.9966 22.3388 14.4346 22.8015 13.9894C23.804 13.0247 25.4273 13.6453 25.686 14.9535L25.8836 17.0815C25.8975 17.3028 25.9316 17.5199 25.939 17.7422L25.9429 20.5472L25.7782 24.6879C25.722 26.2333 25.5833 26.97 25.9792 28.5934L26.6605 30.6345C27.0108 31.7659 27.0511 33.2399 27.0529 34.4101C27.0538 34.9405 27.02 35.506 27.0941 36.0315C27.1961 36.7552 27.39 37.4671 27.5222 38.1854L28.0469 41.7634C28.1233 42.4839 28.1974 43.1934 28.1979 43.9197L30.9256 43.9215C30.9872 43.4406 30.9452 42.9451 30.9675 42.4615L31.0542 37.7699C31.0541 37.0165 31.1147 36.1939 30.9896 35.4515L30.8293 34.0946L30.2621 30.6566C30.2014 30.1932 30.1307 29.7149 30.1035 29.2487L30.0868 27.9996C30.0871 26.4635 30.2999 25.3179 30.6461 23.8066L31.2072 21.4143C31.6314 19.5894 32.0236 17.4356 32.1542 15.5682L32.1665 12.169L32.0864 11.3793C31.9881 10.2746 31.8392 9.16769 31.5871 8.08624C30.9189 8.28063 30.23 8.40673 29.5515 8.55855L25.4716 9.35144C22.7439 9.62984 20.7075 9.03626 18.0712 8.39444L17.0987 8.16851C16.8575 8.11624 16.6014 8.07227 16.3668 7.99774Z" fill="black"/>
</svg>
