<svg width="48" height="48" viewBox="0 0 48 48" fill="none" xmlns="http://www.w3.org/2000/svg">
<path d="M28.4498 40.4603C28.391 40.4826 28.2931 40.476 28.2309 40.4781L21.2513 40.481C20.6932 40.4807 20.1077 40.5156 19.5527 40.4696C18.195 40.3573 15.3831 39.5069 15.1888 38.0003C15.1405 37.6257 15.2163 37.2152 15.264 36.8442L15.8981 30.5395C16.0497 29.1644 15.8682 28.9375 15.6863 27.608L15.3044 23.3856L12.0249 36.1371C11.527 37.5712 10.401 37.2285 9.28162 36.8494L7.78631 36.3483C6.71231 35.9633 6.81975 35.2881 7.05 34.3392C7.10915 34.0953 7.16798 33.8249 7.25962 33.5915C7.42598 33.1676 7.25578 32.6859 7.37325 32.2505C7.4693 31.8945 7.49109 31.4758 7.54115 31.1078L8.58736 24.2156L9.9629 17.4992C10.2219 16.4067 10.4821 15.0997 11.1832 14.1892C11.4122 13.8917 11.5732 13.9003 11.7368 13.5245C11.9378 13.063 12.3346 13.0239 12.7504 12.8425L15.0442 11.893C16.026 11.5142 17.0416 10.8453 17.1262 9.70195L17.1427 9.16818C17.1467 9.09506 17.1444 9.01007 17.1774 8.94314L17.1907 8.91843C17.6786 7.98257 19.145 7.55442 20.1686 7.52784L27.2368 7.52587C27.5284 7.52587 27.8389 7.50482 28.1286 7.53412C28.8471 7.60678 30.5749 8.35748 30.8284 8.91407L30.8446 8.95359C30.9995 9.29109 30.8763 9.73776 30.9738 10.0993L30.9911 10.1692C31.2176 11.3062 32.7349 11.8268 33.6708 12.1946L35.6318 12.9769C36.1423 13.1754 36.0802 13.2736 36.4049 13.6761C36.5387 13.8419 36.7178 13.9663 36.8355 14.1471C37.1221 14.5871 37.3551 15.0681 37.5129 15.5706L38.1082 17.5083C38.1668 17.7144 38.206 17.9316 38.251 18.1411L38.9418 21.396L39.6058 25.3726L40.6527 32.7754C40.6696 32.9689 40.6713 33.1702 40.7 33.3617C40.7882 33.9509 41.2419 35.056 41.0763 35.617L41.0631 35.6606C40.846 36.3911 39.9147 36.5145 39.2897 36.7049C38.6929 36.8865 38.1008 37.1112 37.4769 37.1797C36.0982 37.3314 35.8982 35.8628 35.6118 34.8872L34.0344 29.5493C33.7751 28.6898 33.5133 27.8479 33.3168 26.9704L32.5544 22.8772L32.1517 26.7697L31.9568 29.4063C31.9163 29.7277 31.9662 29.9185 32.0157 30.2334L32.3134 33.5685C32.3348 33.8127 32.3308 34.0554 32.3634 34.2992L32.7202 36.7973C32.9246 38.1566 32.7233 38.6617 31.5318 39.4809C30.5765 40.1378 29.5995 40.4066 28.4498 40.4603ZM19.4192 8.98157C17.8053 9.43247 18.5841 9.6975 18.2143 10.6294L18.1525 10.7916L18.7489 11.895C19.9063 14.0661 21.7396 15.7342 24.0098 16.7099C25.0035 16.2131 25.9415 15.6569 26.802 14.9487C27.9019 14.0325 29.3787 12.1492 29.8207 10.7299L29.7987 10.6899C29.7044 10.5058 29.7635 9.52875 29.7015 9.50156C28.6028 9.01982 28.7924 8.97914 27.6068 8.97848L19.4192 8.98157ZM30.654 11.9001C29.6448 14.1184 28.1622 15.6695 26.1413 16.9781C25.3403 17.4969 24.3518 18.2783 23.3662 17.8222C21.1868 16.8139 19.3694 15.2635 18.0723 13.2513C17.7961 12.8228 17.6148 12.3442 17.3517 11.9133C16.0557 13.0566 14.5943 13.2633 13.1193 14.0329C12.7124 14.2453 12.8362 14.3425 12.9775 14.7409L13.5945 16.4653C13.977 17.4485 14.4571 18.3779 15.0951 19.2192C15.7647 20.1022 15.8768 20.4329 16.1635 21.5226L16.4453 23.2011C16.4739 23.3111 16.4692 23.4306 16.4808 23.5434L16.5626 24.188C16.5751 24.3179 16.5668 24.4492 16.5773 24.5791L16.9799 27.9046C17.1862 28.9874 17.2339 29.9082 17.0876 31.0121L16.7533 34.9371C18.1544 36.02 21.1175 36.0804 22.7913 36.0768L26.6641 36.0778C28.4448 36.1079 29.594 35.8925 31.1723 34.8811L31.1679 34.8495C31.1282 34.5566 31.1304 34.2577 31.1075 33.9629L30.9659 32.1465C30.933 31.59 30.9105 30.9989 30.7912 30.4529C30.631 29.7194 30.8102 29.0028 30.8567 28.2734L31.1267 24.8405C31.2915 23.1433 31.5162 21.2838 32.4619 19.8187C32.7035 19.4443 33.0237 19.1207 33.2709 18.7488C34.1531 17.4215 34.8768 15.7256 35.1584 14.1383C33.7102 13.276 32.0585 13.2263 30.654 11.9001ZM11.8927 15.3586C11.3029 16.5603 11.0265 18.1732 10.7489 19.4712L9.84923 24.0221L8.9152 29.9098L8.54072 32.8684C9.45689 33.2743 10.4203 33.3793 11.373 33.6308L11.473 33.6383C11.5945 33.529 11.9835 31.9327 12.0475 31.688L12.961 28.2313L14.3233 22.2784C14.4315 21.7793 14.6118 21.2534 14.6433 20.7453L14.2673 20.2196C13.4146 19.0591 12.8653 18.0242 12.3595 16.6845L11.8927 15.3586ZM36.124 15.3517C35.7492 16.4891 35.4085 17.5837 34.8132 18.6326L33.5497 20.4632C33.387 20.6831 33.3742 20.6823 33.4142 20.9313L34.2308 25.4331L34.6597 27.3261C34.7092 27.5262 34.7451 27.755 34.8193 27.9456L35.3473 29.803C35.3559 29.8436 35.368 29.8764 35.3827 29.9148L36.2906 32.9762C36.3455 33.2158 36.4366 33.44 36.4858 33.6807L36.6942 33.6446L39.4572 32.9549C39.4779 32.8001 39.4316 32.5984 39.4124 32.4422L38.1423 23.5977L37.6146 20.8707C37.2401 18.9931 36.8098 17.1425 36.124 15.3517ZM8.36283 34.1368L8.20734 34.8164C8.18353 34.9239 8.13834 35.0504 8.13895 35.1598L9.96211 35.7907C10.1928 35.8654 10.6627 36.1412 10.8032 35.8382C10.9609 35.5178 11.0596 35.1597 11.1522 34.816L8.36283 34.1368ZM39.5855 34.2075L36.8733 34.8497C36.896 35.0557 37.059 35.7931 37.2308 35.937C37.5923 36.0134 39.4373 35.344 39.8979 35.1989L39.6517 34.2801C39.6432 34.24 39.6465 34.2545 39.6255 34.21L39.5855 34.2075ZM31.3663 36.1294C29.6584 37.0661 28.4233 37.37 26.5038 37.4652L23.6618 37.4744C23.5034 37.4739 23.2963 37.4974 23.1471 37.4463L23.0722 37.4122C22.887 37.3295 22.6137 37.363 22.4116 37.3627L20.5149 37.2955C19.587 37.215 18.6305 37.0776 17.748 36.7732L16.5819 36.3073L16.3833 37.8251C16.4559 37.9009 16.5263 37.9814 16.6097 38.0455C17.3877 38.7587 18.5155 39.0934 19.5583 39.096L27.0405 39.0925C28.7787 39.1037 30.1061 39.3862 31.4585 37.91L31.6179 37.7159L31.3663 36.1294Z" fill="black"/>
</svg>
