<svg width="48" height="48" viewBox="0 0 48 48" fill="none" xmlns="http://www.w3.org/2000/svg">
<path d="M31.1869 44.7216C30.7288 44.8371 30.1905 44.7743 29.7187 44.7961L27.0748 44.9491C26.6212 44.9827 26.1679 44.9757 25.7134 44.976L21.0533 44.9666C20.8623 44.9601 20.6754 44.923 20.4844 44.9154L18.7712 44.8174C17.2294 44.6767 15.8009 44.3879 14.316 43.9481L13.5509 43.7098C12.8824 43.4978 12.487 43.1327 12.5635 42.4174L13.037 39.0619C13.1735 38.3579 13.3257 37.6571 13.564 36.9794C13.7868 36.3459 14.121 35.7622 14.3824 35.1452C14.765 34.2423 15.0201 33.2633 15.2237 32.3051L15.5532 30.5837L15.7531 28.6992C15.7956 28.058 15.7728 27.4048 15.7731 26.7618L15.6228 21.915C15.4756 22.3767 15.3957 22.8515 15.2765 23.3203L13.124 30.4335L8.77746 42.7365C8.57046 43.297 8.51378 44.0548 7.68156 43.9263C7.29161 43.8661 6.89889 43.7463 6.52141 43.6325L4.62888 43.0073C4.24764 42.8765 3.76965 42.7638 3.42936 42.5523L3.40019 42.5334C3.28059 42.4574 3.14792 42.3275 3.09474 42.1916L3.05495 42.0704C3.02698 41.9439 3.07096 41.7874 3.09058 41.6601L3.84613 37.603L4.9001 30.0234L6.49502 22.3593L8.4371 15.9739L9.94572 11.8806C10.551 10.4384 11.0561 9.03211 11.1577 7.45467L11.2418 6.45684C11.3318 5.48259 11.3936 5.64173 12.3939 5.34263C13.0541 5.14519 13.5445 4.77155 14.1228 4.41302C15.1 3.8072 16.0534 3.49931 17.1731 3.3116C18.2634 3.2079 18.6912 3.57741 19.538 3.99235C20.754 4.58818 22.1786 4.52278 23.4945 4.52322L25.9554 4.51359C26.7976 4.46927 27.7866 4.36541 28.5329 3.9768C28.8833 3.79439 29.1984 3.57559 29.5715 3.43736L29.8125 3.36001C31.6233 2.92034 33.7352 4.88245 35.596 5.3985C36.6521 5.69142 36.5688 5.61009 36.5893 6.56578L36.6529 7.53403C36.6762 7.76859 36.7356 8.02388 36.7851 8.25445L37.0253 9.40814C37.0527 9.5287 37.0937 9.68227 37.1398 9.79828L39.638 16.361C39.6701 16.4788 39.7221 16.5999 39.7646 16.7147L40.0469 17.538L41.4464 22.1625L42.2689 25.6247C42.3022 25.8502 42.3663 26.0869 42.4218 26.3085L43.1768 30.595L43.8758 36.164L44.489 39.5902C44.5063 39.6926 44.509 39.8018 44.532 39.9023L44.6815 40.5808C44.9959 42.2689 45.3661 42.354 43.5903 42.8565L41.7109 43.368C41.2391 43.4945 39.9769 43.8777 39.5625 43.6157C39.3209 43.463 39.2832 43.0927 39.1974 42.845L36.6479 35.7695L34.6796 29.4663L32.9057 24.41C32.6759 23.7615 32.4375 23.1036 32.3088 22.426C32.2346 22.8948 32.1753 23.8146 32.1565 24.3322L32.1464 26.4007C32.1403 27.4438 32.1668 28.3095 32.3518 29.3424L33.0351 32.4948C33.2615 33.3494 33.3849 34.2356 33.6722 35.072L33.8323 35.677C33.8682 35.8811 33.9362 36.0909 33.985 36.2929L34.3602 37.8632C34.5055 38.3902 34.6026 38.9266 34.7351 39.457L35.2031 41.7773C35.2411 42.0082 35.2656 42.2528 35.371 42.4663C35.7546 43.2427 33.6855 44.1893 33.1549 44.3711C32.5351 44.5835 31.8378 44.6726 31.1869 44.7216ZM30.1281 4.5756C29.8165 4.68135 29.5707 4.85217 29.2885 5.01253C28.2916 5.57902 27.1929 5.70328 26.069 5.81864L23.6118 5.93288C22.019 5.93292 20.3559 5.79174 18.9052 5.07853C18.5049 4.88175 17.9859 4.50185 17.5203 4.65582C16.736 4.91522 17.1284 6.8257 17.382 7.43958C17.7944 8.43778 18.2644 9.30605 18.9667 10.1453C22.4576 14.5297 28.2312 12.991 30.2153 7.99214C30.4288 7.45411 31.2164 4.5999 30.2343 4.56942L30.1281 4.5756ZM15.8068 4.93355C14.8124 5.37281 13.9938 6.11667 12.9508 6.45066C13.2862 6.96445 13.6662 7.45214 13.9818 7.9785C14.2758 8.46905 14.4887 8.97872 14.7353 9.49055L15.3213 11.0708L15.7904 12.8043L16.1876 14.8057L16.9391 23.2178L17.0439 25.366L17.0344 28.3151C16.9655 29.4388 16.7725 30.8133 16.5558 31.9035L16.3164 32.9617C16.1382 33.8597 15.8553 34.814 15.5 35.6548L14.9835 36.7535C14.1754 38.5621 14.1287 40.5376 13.7813 42.4585C14.9954 42.9526 16.7603 43.3558 18.0339 43.4973C18.7803 43.5803 19.5371 43.5235 20.2851 43.5199L30.2593 43.5194C31.6164 43.5178 32.9398 43.3335 34.0596 42.4834C34.0252 41.8104 33.856 41.1536 33.7108 40.4983L33.0301 37.5649L31.4423 30.9794C31.01 29.022 30.8814 27.7673 30.9249 25.7885L30.9517 23.8109C30.963 23.6238 31.0018 23.444 31.0162 23.2588L31.7761 14.8898C32.021 12.3597 32.271 10.8237 33.6093 8.60189L35.0187 6.56269L33.6706 5.98359C33.0754 5.69269 32.4439 5.33836 31.8948 4.96144C32.0275 6.24553 31.8 7.3267 31.3129 8.5312C28.9971 14.2584 22.6283 15.9426 18.372 11.3337C16.8312 9.66525 15.6461 7.34813 15.8554 5.03208L15.866 4.93355C15.8334 4.91602 15.8527 4.92009 15.8068 4.93355ZM12.3604 7.72388C12.3123 7.96645 12.3086 8.21602 12.2774 8.46089C12.0662 10.1128 11.3238 11.6836 10.7161 13.2157L9.76169 15.8407L7.69802 22.58L7.08949 25.1313L5.99617 30.8868L5.29061 36.2301L4.34939 41.584L7.35382 42.6212L7.51942 42.678C7.57432 42.5981 7.5971 42.469 7.62752 42.376L12.2144 29.2265L14.2119 22.5413L15.0355 18.9891C15.3759 17.2343 15.1261 15.798 14.8073 14.039L14.5604 12.9609C14.101 10.974 13.465 9.42698 12.3604 7.72388ZM35.497 7.99186L34.9716 8.80144C34.1867 9.99736 33.5056 11.2389 33.283 12.6679C33.2585 12.8252 33.2536 12.9854 33.2246 13.1424L32.8966 15.7661L32.8743 16.6698C32.8639 16.9515 32.8317 17.2362 32.8336 17.5175L32.8703 18.2983C32.8809 18.628 32.866 18.9735 32.9203 19.2993L33.0117 20.0081C33.0948 20.5908 33.2164 21.2163 33.3755 21.7851L33.6768 22.875C33.744 23.0818 33.7993 23.3067 33.8818 23.5066L36.103 29.9449C36.1111 29.9759 36.1221 30.004 36.1334 30.0338L37.1653 33.3733C37.2318 33.5647 37.2752 33.7727 37.3503 33.9593L39.147 39.164L40.3641 42.4354L40.9167 42.2826L43.6345 41.5302C43.5153 41.1848 43.4617 40.7847 43.4005 40.425L42.6841 36.4921L42.0962 31.604L41.5621 28.289L40.7606 24.4319L39.3713 19.3593L37.1826 13.271L36.3046 11.1433C35.9321 10.1505 35.633 9.04913 35.497 7.99186Z" fill="black"/>
</svg>
