<svg width="48" height="48" viewBox="0 0 48 48" fill="none" xmlns="http://www.w3.org/2000/svg">
<path d="M28.3767 40.7647L20.2467 40.7832C19.7598 40.7829 19.3227 40.7942 18.8461 40.7018L18.2832 40.6143C17.4358 40.4658 14.1843 39.8452 13.5769 39.2291C13.313 38.9614 13.38 38.791 13.3937 38.4332L13.5234 36.7503C13.5511 36.4574 13.5975 36.184 13.6012 35.8872C12.4557 36.9453 11.8648 38.4212 11.188 39.7894C10.4476 41.2863 10.2427 41.2057 8.92944 40.4806C8.24426 40.1023 7.51104 39.7366 6.74239 39.5628C6.54083 39.5172 6.29323 39.5524 6.10629 39.4608C5.35587 39.0928 6.11604 37.3232 6.2607 36.7487L7.92162 30.3294L12.7264 12.8258C13.1027 11.482 12.9996 10.6393 14.4548 10.1921L17.7913 9.23917C18.0726 9.16985 18.0545 9.12316 18.2148 8.8728L18.9212 7.756C19.1431 7.40083 19.2335 7.17489 19.6638 7.05658C19.754 7.05227 19.8353 7.04355 19.9187 7.08475C20.0639 7.15656 21.0749 7.18188 21.3747 7.19102L26.9644 7.18994C27.2523 7.1816 27.5595 7.18145 27.8435 7.14016C28.9189 6.98388 28.8239 7.36877 29.3442 8.19166C29.5416 8.50394 29.7605 8.81336 29.9382 9.1367C30.005 9.25802 33.3669 10.087 33.8317 10.2442C34.2464 10.3844 34.6189 10.7344 34.7671 11.1507L37.4827 20.7174C37.4919 20.7625 37.4996 20.8011 37.515 20.8448L38.7026 25.1838C38.7432 25.4153 38.8413 25.6427 38.8889 25.8735L39.5459 28.309C39.5552 28.3553 39.5617 28.3936 39.5779 28.4384L39.7334 29.0122C39.8294 29.5121 40.0762 30.521 40.2349 30.9466C40.2626 31.0206 40.2833 31.0983 40.2988 31.1758L40.582 32.2431C40.623 32.4735 40.7215 32.6988 40.7635 32.9299L42.1878 38.3557C42.5862 39.3206 41.48 39.5037 40.8319 39.7118C40.4008 39.8501 39.9559 39.9867 39.5379 40.1599C38.9437 40.4061 37.8598 41.3476 37.269 40.6075C36.9625 40.2235 36.7982 39.6889 36.5852 39.2463C36.0656 38.1665 35.496 37.0762 34.7144 36.1608C34.3161 35.6943 34.438 36.0659 34.4593 36.3572L34.5131 37.1487C34.5288 37.2976 34.5561 37.4439 34.5653 37.594L34.5947 38.435C34.6257 39.3581 34.3694 39.3688 33.5444 39.6682C32.2883 40.1241 29.7772 40.7294 28.3767 40.7647ZM21.4096 8.55756C21.5616 8.80174 21.9125 8.98347 22.1313 9.18981L24.0099 11.0264L25.3049 9.75339L26.6233 8.57833L21.9283 8.56633C21.7597 8.56581 21.5767 8.5766 21.4096 8.55756ZM19.7844 8.91822C19.613 9.12953 19.2022 9.65852 19.0979 9.9122C19.7233 10.9677 21.2161 13.1217 22.4994 12.9235C22.8422 12.8242 23.3341 12.442 23.1619 12.0544C23.0617 11.8289 19.9231 8.95324 19.7844 8.91822ZM28.2134 8.9283L25.985 10.9646C25.617 11.3058 25.1856 11.6314 24.8659 12.0178C24.5262 12.4285 25.1878 12.8501 25.5651 12.9356C26.9116 12.9469 28.2111 11.0708 28.8714 9.98195C28.9641 9.8291 28.3424 9.07183 28.2134 8.9283ZM17.8892 10.6057L15.6096 11.2624C15.218 11.3712 14.7856 11.4557 14.418 11.6288C14.4244 11.7771 14.5151 11.9397 14.5688 12.0774L15.955 16.3896C16.399 17.7766 16.1688 19.302 16.0696 20.7244L15.6208 27.1925C15.6088 27.3397 15.5746 27.4825 15.5614 27.6287L15.2794 31.5355C15.2554 31.8701 15.2753 32.2358 15.2157 32.5631L14.6895 38.3352L16.2302 38.8144C17.8685 39.2702 19.5033 39.4666 21.2037 39.4678L27.9064 39.4554C29.0962 39.3962 30.3627 39.1915 31.5114 38.8817L32.7202 38.5158C32.9118 38.4551 33.1002 38.3823 33.2959 38.3357L33.3021 38.262C33.2795 37.6161 33.1817 36.9711 33.1175 36.3284L32.3512 27.3974C32.3315 27.1903 32.2871 26.9846 32.2707 26.7784L31.7763 19.6773C31.6346 17.4738 31.8386 16.9939 32.5105 14.8892L33.5754 11.6027C33.1621 11.4085 32.6964 11.311 32.2572 11.1908L30.0201 10.6142C28.9856 12.2508 27.5373 14.4964 25.3073 14.2373L25.2685 14.233C24.6498 14.1597 24.4467 13.8563 24.0004 13.5479C22.4501 15.0791 20.7342 13.9525 19.4837 12.6786C18.8752 12.0586 18.453 11.2915 17.9399 10.5988L17.8892 10.6057ZM13.781 13.8167L7.17964 38.3468C7.75887 38.4774 8.30731 38.6842 8.84295 38.9373L9.58629 39.3173C9.67962 39.3638 9.78115 39.434 9.88062 39.461C10.7766 37.7 11.532 35.7724 13.1323 34.5158L13.5817 34.1728C13.7603 34.0428 13.7383 34.0854 13.7591 33.8641L14.4428 25.3058C14.4588 25.055 14.4568 24.802 14.5009 24.5542C14.5774 24.1247 14.5129 23.672 14.5739 23.2385L14.5973 23.0757C14.6552 22.7197 14.6297 22.3298 14.6563 21.9686L14.8386 19.4159C14.9681 17.7259 14.9842 17.6723 14.4882 16.0731L13.841 13.9756C13.8275 13.9323 13.8128 13.8429 13.781 13.8167ZM34.2051 13.7846C34.0157 14.6003 33.7315 15.4125 33.4674 16.2073C32.9826 17.6662 32.9618 17.8809 33.0644 19.3728L33.5706 26.6604L33.7614 28.82C33.7764 28.9483 33.8052 29.0741 33.815 29.2034L34.1724 33.2932C34.2631 34.3615 34.1512 33.8861 34.9178 34.5181C36.7321 36.0138 37.068 37.5524 38.1084 39.3769L39.168 38.882L40.8049 38.3137L34.2051 13.7846Z" fill="black"/>
</svg>
