<svg width="48" height="48" viewBox="0 0 48 48" fill="none" xmlns="http://www.w3.org/2000/svg">
<path d="M25.2068 45.4922L15.3988 45.4926C14.3141 45.4922 13.423 45.6715 12.8992 44.4502C12.7191 44.0304 12.8346 42.7478 12.8349 42.2404L12.8383 38.3511C12.7931 38.321 12.7164 38.3322 12.6611 38.3309L10.3829 38.3246C10.1097 38.3244 9.80874 38.3501 9.53884 38.317C8.42818 38.1807 8.2037 37.2243 8.20215 36.3123L8.23834 28.0413C8.24588 27.7048 8.32079 27.3813 8.33171 27.0429L8.35449 25.0659L8.6378 20.2656L8.9979 16.329C9.11063 14.4226 9.47307 12.2972 11.1365 11.1075C11.8228 10.6167 12.6119 10.526 13.4021 10.2815L16.7647 9.13715C16.9427 9.07658 17.1054 9.14141 17.1121 8.92672L17.1292 6.23507C17.1297 5.81479 17.0758 5.30662 17.1776 4.89833C17.7319 2.67451 20.9459 2.43857 22.8693 2.42871L24.9633 2.43052C26.8115 2.4345 30.0512 2.61741 30.7376 4.64734L30.7505 4.68702C30.8808 5.02635 30.8841 5.43482 30.8844 5.79651L30.8845 8.95401C31.1045 9.08844 31.3809 9.15351 31.62 9.25044C32.5875 9.64283 33.5942 9.96037 34.5925 10.265C36.5393 10.8589 37.5932 11.1457 38.4372 13.3237C38.5201 13.5377 38.5595 13.7662 38.6416 13.9746C39.0352 14.974 38.9512 16.5902 39.0961 17.7651L39.3623 20.4772L39.672 26.3881C39.6789 26.5683 39.7121 26.745 39.718 26.9254L39.7251 28.2651C39.7321 28.4634 39.7823 28.657 39.7869 28.8576L39.7979 35.8959C39.7981 36.2562 39.8388 36.6754 39.7781 37.0292L39.7711 37.0659C39.7479 37.1943 39.7074 37.3086 39.6594 37.4292L39.623 37.5201C39.279 38.2259 38.63 38.3222 37.9368 38.3234L34.5744 38.3269C34.5475 38.4361 34.5679 38.5716 34.5694 38.685L34.571 43.4804C34.5708 43.6929 34.5859 43.9204 34.5574 44.1308C34.3842 45.4063 33.3541 45.4916 32.2874 45.4921L25.2068 45.4922ZM23.2037 3.52391L22.1646 3.54053C21.7917 3.55676 21.4011 3.60975 21.0323 3.66938C20.0147 3.83394 17.8423 4.34539 18.2777 5.78521C18.6356 6.96866 20.3097 7.57588 21.4147 7.74177C21.5884 7.76783 21.8348 7.75447 21.9945 7.80988C22.5925 8.01735 22.5272 8.82454 22.0424 8.91927C21.8989 8.94726 21.7173 8.91538 21.5714 8.90432C20.5813 8.82932 18.8979 8.34187 18.2158 7.54822L18.2398 9.09322C18.2407 9.55897 18.3951 9.63693 18.7116 9.95779C19.1578 10.41 19.6227 10.834 20.1805 11.1443C20.4529 11.2958 20.7834 11.4433 20.805 11.8003C20.8232 12.1031 20.5202 12.4099 20.2165 12.3963L20.0899 12.3758C19.3078 12.2043 17.9117 10.8254 17.5213 10.1908L17.4658 10.0961L13.7135 11.3743C13.109 11.5675 12.4265 11.6432 11.8835 11.9839C10.9019 12.5998 10.3879 13.9299 10.2158 15.0326C10.1071 15.7288 10.1596 16.4271 10.0737 17.1206L9.6459 21.6207L9.44204 25.7041C9.42591 26.1538 9.37149 26.6451 9.36127 27.0632L9.35143 32.9248C9.35143 33.1232 9.31955 33.3895 9.36413 33.5801L13.1079 33.585C13.1374 33.1239 13.1223 32.6555 13.1225 32.1934L13.1278 20.5955C13.1284 20.0823 12.9207 19.0291 13.7664 19.1243L13.8626 19.1458C13.9846 19.1811 14.0878 19.2865 14.1461 19.3964L14.1794 19.4619C14.2137 19.5275 14.2155 19.5959 14.2176 19.6682L14.2139 31.523C14.2078 31.7986 14.1601 32.073 14.158 32.3523L14.1169 36.3457C14.0557 37.4135 13.8557 38.4713 13.9231 39.5479L22.965 39.5248C23.002 39.391 22.9855 39.2104 22.986 39.07L22.988 9.34565C22.9885 8.89907 23.0693 8.59855 23.5527 8.54169L23.5783 8.54816C23.7318 8.58913 23.8426 8.65419 23.9555 8.76515L23.9743 8.78343C24.1426 8.95344 24.0648 9.33899 24.0648 9.5541L24.0643 38.915C24.0646 39.1178 24.0515 39.3319 24.0799 39.5328L33.4749 39.533L33.4806 38.2286C33.4794 37.9003 33.376 37.3722 33.6587 37.1245L33.6656 20.0646C33.6657 19.8971 33.6503 19.7123 33.6715 19.5466C33.7248 19.1294 34.3036 18.937 34.5782 19.264L34.6666 19.381C34.7071 19.4378 34.7135 19.492 34.7259 19.5581L34.7352 19.6048C34.7544 19.7105 34.7445 19.8321 34.7454 19.9394L34.7487 32.265C34.7489 32.4545 34.7132 32.7456 34.7689 32.9187L38.2191 32.9195C38.2764 32.9199 38.6454 32.9443 38.6706 32.9214L38.6587 27.0933C38.6492 26.6344 38.5712 26.1703 38.5523 25.7105L38.524 24.5852L38.3224 21.1569L37.9036 17.203C37.8141 16.4488 37.896 15.6927 37.7326 14.9415C37.4687 13.7273 37.0119 12.3492 35.777 11.8251C35.4259 11.6761 35.0288 11.5896 34.6636 11.4767L30.8229 10.1886C30.7421 10.1589 30.6501 10.1116 30.5648 10.102C30.1517 10.7567 28.8465 12.1337 28.0779 12.3693C27.5692 12.5252 27.1669 11.9189 27.469 11.4894C27.6323 11.2573 27.9705 11.0828 28.2026 10.9198C28.6566 10.6009 29.0903 10.2357 29.4397 9.80244C29.8188 9.33243 29.7402 9.3365 29.7484 8.73449C29.7534 8.36751 29.7847 7.98426 29.7642 7.61929L29.7626 7.59393C28.9738 8.28337 27.2767 9.02638 26.1741 8.92982C25.5837 8.87812 25.4114 7.89801 26.4607 7.76507C27.5542 7.6266 29.4947 6.98915 29.7323 5.72338L29.7493 5.60305C29.7744 5.41771 29.7498 5.22412 29.6821 5.0503L29.669 5.01552C29.2527 3.94617 27.3983 3.71464 26.4331 3.61605L25.8747 3.54872C24.9958 3.48661 24.0839 3.50727 23.2037 3.52391ZM34.7598 34.0551L34.749 35.9984C34.7487 36.3779 34.7168 36.7911 34.7591 37.1675L37.8042 37.1698C37.9701 37.1695 38.4501 37.2191 38.5802 37.1093L38.6131 37.0768C38.7255 36.8487 38.6678 34.4961 38.6676 34.0623L34.7598 34.0551ZM9.35565 34.7177L9.3511 36.27C9.35124 37.5234 9.33629 37.1691 10.7541 37.1698L12.9096 37.1831L12.9332 37.0746L13.0238 34.7355L9.35565 34.7177ZM13.9781 40.6685L13.9106 40.6905C13.9166 41.0956 13.8755 44.0382 13.9616 44.1737C14.0233 44.2707 14.1138 44.3442 14.2282 44.3498L33.0136 44.349C33.0793 44.3467 33.1487 44.3454 33.2098 44.3194C33.4879 44.1411 33.4852 43.972 33.4858 43.6717L33.4704 40.6978C33.3621 40.6527 33.1809 40.6694 33.0609 40.6693L13.9781 40.6685Z" fill="black"/>
</svg>
