<svg width="48" height="48" viewBox="0 0 48 48" fill="none" xmlns="http://www.w3.org/2000/svg">
<path d="M15.6601 42.9806L13.7734 42.7168C13.6124 42.6838 13.5838 42.6559 13.431 42.7107C12.3784 43.0889 11.1203 43.1029 10.0153 43.1021C9.10754 43.1015 8.88315 43.0907 8.88184 42.0757L8.89234 36.7162L9.01365 33.8326L9.22224 30.0305C9.23237 29.854 9.26841 29.6817 9.2768 29.5049L9.6984 23.4948L10.4353 16.6271L10.9566 12.6881C11.062 11.8256 11.2291 10.9228 11.2008 10.0504C11.1911 9.75316 11.1492 9.44196 11.1613 9.14581C11.2231 7.63207 12.3478 6.24302 13.7195 5.67246C14.7197 5.2564 15.8281 5.02418 16.8866 4.81957C18.0457 4.59552 18.286 4.48428 19.0159 5.38273C20.4318 7.12563 21.8742 7.5499 23.9766 7.54943C25.8888 7.54896 27.4809 7.1487 28.7767 5.57515C29.0937 5.19016 29.2981 4.79501 29.8189 4.69235C30.6373 4.71691 32.6305 5.0817 33.3364 5.33557C35.4271 6.08768 36.7332 7.37548 36.8626 9.60963L37.316 14.5527L38.0251 21.0203L38.5868 27.469L38.7297 29.7599C38.7417 29.9345 38.7758 30.1056 38.7858 30.2815L38.9043 33.0603C38.9132 33.6828 38.9729 34.291 38.9859 34.9123L39.0024 36.8389C39.0083 37.1555 39.0635 37.4652 39.0695 37.7827L39.0711 42.3179C39.0707 42.6401 39.1172 42.7827 38.8265 42.9912L38.801 43.0092C38.568 43.1766 37.7497 43.114 37.452 43.0915L34.9924 42.8194C34.7642 42.7838 34.4978 42.6519 34.2742 42.6575C33.9818 42.6648 33.6422 42.7683 33.3509 42.8245L30.5058 43.1861L28.516 43.3233C27.3105 43.4019 26.081 43.358 24.872 43.3584L20.6187 43.3423L15.6601 42.9806ZM30.0012 5.7971C29.7281 6.11712 29.4804 6.45476 29.1834 6.75406C27.8072 8.1409 25.9293 8.65113 24.0279 8.64916C21.8372 8.64691 20.0367 8.10138 18.5432 6.48073L18.1108 5.96173C17.8567 5.65512 17.3209 5.85166 16.9071 5.92493L14.9263 6.3807L15.6375 7.71232C16.0614 8.51388 16.3732 9.38899 16.7265 10.2244L16.9702 10.8753C17.4027 12.0137 17.6443 13.1947 17.3533 14.4044C17.155 15.2286 16.9257 16.0272 16.4365 16.7338C16.1672 17.1229 15.7898 17.4232 15.5173 17.8077C14.9108 18.6634 14.9029 19.9474 15.2276 20.9262L15.6926 22.4209C15.8859 23.0715 15.7837 23.8194 15.6574 24.469L14.0648 32.4846C13.9678 33.184 13.8884 34.1166 13.862 34.8375L13.8444 35.9551C13.8309 36.1854 13.7889 36.4128 13.7802 36.6448L13.7682 38.3945C13.7624 38.6669 13.7084 38.9424 13.7244 39.2134L15.0237 39.2104L33.7336 39.2112C33.8574 39.2125 34.0373 39.1962 34.1529 39.2321L34.1319 34.2039C34.0703 32.9927 33.8564 31.7548 33.6423 30.5619L32.5171 25.7053C32.3484 24.9201 32.2642 24.3134 32.2664 23.5169C32.2718 21.5839 33.6654 19.7959 32.5055 17.9182C32.2283 17.4693 31.7947 17.1704 31.4852 16.7464C30.0597 14.7929 30.2823 12.4161 31.1255 10.3032L33.0301 6.3357L30.0012 5.7971ZM13.863 6.83229C13.1796 7.13187 12.6056 7.93826 12.3313 8.59596C12.1811 8.95596 12.2686 9.27326 12.2749 9.64479L12.2453 10.7172C12.235 10.8653 12.2037 11.0091 12.1892 11.1565L11.3452 17.8714L10.7781 23.2985L10.4056 27.6799L10.2117 31.2659L10.004 36.3279L9.99704 37.5844C9.98973 37.8224 9.9481 38.0537 9.9428 38.292L9.93755 42.0192C10.8195 42.0191 11.7497 42.061 12.6095 41.8262L12.6056 41.3569L12.6771 37.8871L12.7698 35.1331C12.7756 34.9821 12.8024 34.8342 12.8137 34.684L12.9253 33.3255C12.9881 32.7128 13.039 32.1011 13.1467 31.4941L14.393 25.219C14.8722 23.2483 14.8596 23.2689 14.2824 21.4853C13.7635 19.8823 13.7322 18.1 14.9287 16.7806C15.4277 16.2303 15.6554 16.0673 15.934 15.3591C16.8532 13.023 16.3158 11.9804 15.358 9.72457C15.1028 9.12335 14.3559 7.28731 13.9224 6.8262L13.863 6.83229ZM33.96 6.82765C33.693 7.28135 33.4936 7.78502 33.2554 8.25593L32.5516 9.73502C31.8994 11.138 31.2243 12.8293 31.6246 14.4032L31.8834 15.2643C32.2279 16.3564 33.4104 16.8795 33.893 18.4221C34.0882 19.0462 34.1018 19.8671 33.9974 20.5086C33.8426 21.4596 33.3947 22.3537 33.3338 23.318C33.2686 24.3507 33.6346 26.2328 33.9854 27.2581C34.1036 27.6037 34.1463 27.9789 34.2545 28.3264L34.3493 28.7366C34.3852 28.8622 34.3968 28.9941 34.4254 29.1213L35.0712 32.8574C35.2581 34.0941 35.1539 35.3361 35.1795 36.5812C35.1841 36.8047 35.2366 37.0199 35.241 37.2447L35.2449 41.7014L35.2619 41.7851C35.4409 41.8366 35.6355 41.826 35.8199 41.8489L36.7361 41.939C36.886 41.9538 37.0344 41.9898 37.1838 42.0013L37.9769 42.0351C38.0084 41.577 37.9884 41.1072 37.9883 40.6478L37.9816 36.5205C37.9774 35.961 37.9127 35.4841 37.9028 34.9401L37.8817 33.6669L37.5745 28.0044L36.9184 20.4558L35.8043 9.90457C35.7615 9.53032 35.8185 9.18579 35.7085 8.8167C35.5255 8.20259 35.0373 7.50621 34.513 7.13848L33.96 6.82765ZM13.7876 40.3129L13.6882 40.3419L13.6816 41.2245C13.6822 41.3378 13.6662 41.4868 13.6933 41.5946C14.2454 41.7356 14.8321 41.7765 15.396 41.8481L18.9651 42.1275C19.2644 42.1443 19.5563 42.1974 19.8611 42.2067L21.7854 42.2186C21.9671 42.2238 22.1471 42.2645 22.3306 42.2705L27.1525 42.2741L30.6096 42.0926L32.0129 41.932C32.504 41.8732 33.0293 41.8061 33.5026 41.6568L34.1848 41.5402L34.1899 40.6257C34.1896 40.5511 34.2084 40.3773 34.1738 40.3199L13.7876 40.3129Z" fill="black"/>
</svg>
