<svg width="48" height="48" viewBox="0 0 48 48" fill="none" xmlns="http://www.w3.org/2000/svg">
<path d="M28.7865 41.4332L27.2502 41.492C26.7592 41.4915 26.2822 41.4419 25.7933 41.4045L24.7033 41.3096C24.0981 41.2498 24.1226 41.189 23.5042 41.2775L22.4108 41.4125C19.8053 41.6281 17.0438 41.5761 14.7825 40.0868C14.4636 39.8768 13.6615 39.3156 13.5988 38.9298C13.5477 38.6157 13.7563 38.2708 14.0865 38.2297C14.4406 38.1856 14.6859 38.5086 14.9388 38.7121C17.2806 40.596 20.5895 40.3621 23.4016 40.046L23.3916 11.5918C23.3551 11.6598 23.299 11.7218 23.2425 11.7739C22.5684 12.3956 22.1815 12.8137 21.2489 12.2384L20.7409 11.9246C19.6995 11.2757 18.6534 10.6164 17.7096 9.82946L12.6815 11.2584C11.8117 11.498 10.9937 12.0103 10.5393 12.8149C10.5639 13.3264 10.8618 13.7791 10.9569 14.2786L11.1645 15.2274C11.2616 15.5569 11.2707 15.9195 11.344 16.2541L11.5824 17.6813C11.6009 17.8095 11.6033 17.9441 11.6269 18.0705L12.0503 20.8098C12.0914 21.1334 12.1257 21.4652 12.188 21.7853L12.5125 23.7021C12.5378 23.8379 12.5386 23.9812 12.5705 24.1148L12.9462 26.4957C13.1899 27.5042 13.1572 28.4795 13.0287 29.4908L12.4254 33.6779L11.258 40.9588C11.1359 41.6801 11.1632 41.8057 10.359 41.9075L9.87776 41.9829C7.87625 42.284 6.59778 41.9983 4.817 41.2057C4.14694 40.9074 3.44795 40.88 3.5417 40.0551L4.99442 30.5978L6.34428 22.938L7.58276 17.372C8.14512 14.7562 8.88542 11.44 11.6547 10.3034C12.3305 10.026 13.0874 9.86912 13.7929 9.67876L16.8347 8.79273C16.9956 8.74463 16.9921 8.78209 17.0439 8.62595L17.675 7.07499C17.8528 6.65199 17.9592 6.09638 18.4859 6.00488L29.5342 6.02035C29.9511 6.04187 30.1487 6.65715 30.2953 6.96845L30.7098 7.84745C30.8083 8.05843 30.9546 8.27996 31.0196 8.5022L31.1166 8.80177C31.2692 8.87457 31.4176 8.90405 31.578 8.94929L35.5475 10.0877C37.4823 10.5945 38.774 11.9523 39.3876 13.8738L40.0179 15.8369L41.7268 23.2291C41.824 23.5276 41.8415 23.8787 41.906 24.1876L42.1401 25.4447C42.2269 25.89 42.2785 26.3472 42.3748 26.7892L42.703 28.6056C42.7268 28.7371 42.7269 28.8741 42.7518 29.0041L43.066 30.8964C43.13 31.2182 43.1652 31.5509 43.2182 31.8751L43.4534 33.3634C43.5372 33.8439 43.613 34.3909 43.6829 34.881L44.2072 38.4008C44.2942 39.0259 44.3498 39.6749 44.4946 40.2895C44.3545 40.7896 43.9491 40.8499 43.5126 41.0457C41.123 42.1174 40.3104 42.3301 37.6965 41.9181C36.8408 41.7833 36.8798 41.694 36.7321 40.7686L35.1527 30.5956C35.0635 29.8715 34.8964 29.1333 34.8788 28.4025C34.8549 27.4095 35.0402 26.4473 35.1505 25.465L36.1389 17.8576L36.9058 13.5449C37.0683 12.8012 37.5181 12.6884 36.9059 12.098C36.2317 11.4478 35.3937 11.3221 34.529 11.0742L30.4918 9.92485C30.1129 9.80705 29.9838 10.1285 29.6074 10.4068L27.556 11.7812C26.0085 12.7522 25.936 12.8464 24.5926 11.5236C24.535 11.9955 24.5697 12.5023 24.5697 12.9789L24.5694 38.3914C24.5694 38.9435 24.5303 39.5246 24.585 40.0728C27.2883 40.4891 30.443 40.4492 32.6404 38.6431C32.8588 38.4636 33.0754 38.1811 33.3716 38.1422C33.7136 38.0973 33.9905 38.34 34.0252 38.6785C34.0725 39.1409 33.4829 39.5092 33.1685 39.7516C31.9156 40.7183 30.3684 41.3193 28.7865 41.4332ZM20.1219 7.20137L19.8593 7.23629C21.5149 9.25163 24.2029 10.091 26.5333 8.66701L27.0106 8.34568C27.469 8.01587 27.8639 7.62118 28.2555 7.2166L20.1219 7.20137ZM18.6486 7.74624L18.255 8.76901C18.4905 8.96804 18.7642 9.12859 19.0144 9.30966L22.0556 11.2816C22.1278 11.19 22.1996 11.1109 22.2842 11.0307C22.4728 10.8406 22.674 10.6456 22.902 10.5024C21.6949 10.2018 20.5382 9.58149 19.6407 8.71145L19.0688 8.15012C18.9845 8.06218 18.7674 7.74671 18.6486 7.74624ZM29.3615 7.7784C28.4839 8.7782 27.3997 9.71827 26.1415 10.1975C25.8291 10.3165 25.5011 10.3708 25.1846 10.4722C25.3917 10.6853 25.5966 10.936 25.8299 11.1178L25.9679 11.2815C26.5686 10.9868 27.1264 10.6251 27.6848 10.259L29.7982 8.79338C29.8174 8.72298 29.4247 7.90018 29.3615 7.7784ZM38.0599 13.8634L38.0551 13.9074C38.0195 14.2074 37.9312 14.5142 37.8768 14.8126L37.4633 17.1749L36.2281 26.5641C36.0943 27.579 36.0289 28.0358 36.1453 29.0941L37.0699 35.4174L39.7905 34.7672L42.3774 34.0937L40.4399 22.7424C39.9804 20.2801 39.4812 17.412 38.5881 15.0587L38.0599 13.8634ZM9.6859 14.0733C9.269 14.9126 9.07737 15.9008 8.86962 16.8087L7.42409 23.6603L5.92615 32.3793C5.83006 32.9455 5.78722 33.5281 5.66023 34.0891L8.57211 34.8072L10.9594 35.4015L11.6618 30.5594C11.8002 29.6034 12.0146 28.6299 11.905 27.6587C11.8684 27.3339 11.7924 27.015 11.7466 26.6921L10.021 15.4746L9.81725 14.5516C9.77609 14.3916 9.71759 14.2354 9.6859 14.0733ZM5.46584 35.2716C5.39651 35.6333 5.36023 36.0087 5.31157 36.3742L4.83968 39.381C4.82014 39.5302 4.77842 39.6753 4.77195 39.826C6.12134 40.4768 7.39967 41.0798 8.96445 40.8446L9.90162 40.7234L10.1083 40.6785L10.7242 36.5735L5.46584 35.2716ZM42.5025 35.2853L37.2684 36.637L37.9061 40.6866L38.1644 40.7525L38.8824 40.8747C40.6193 41.0851 41.6614 40.5442 43.1996 39.8056L42.5025 35.2853Z" fill="black"/>
</svg>
