<svg width="48" height="48" viewBox="0 0 48 48" fill="none" xmlns="http://www.w3.org/2000/svg">
<path d="M16.377 42.1826C15.3243 42.117 14.3718 41.9711 13.4135 41.549L12.685 41.2424C12.2975 41.0587 11.9259 40.8462 11.5535 40.6342L10.854 40.229C9.97107 39.7176 9.85716 39.562 9.91665 38.5573L10.2463 34.8751L11.4453 27.0744C11.5015 26.7084 11.6391 26.7065 11.3551 26.6124C8.71885 25.7385 5.94929 23.9509 3.98439 22.0438C3.67445 21.7429 3.30425 21.3938 3.08249 21.0212C2.6441 20.2845 3.07059 19.9631 3.66784 19.5146L4.81815 18.6392C6.2491 17.4433 7.23563 15.9678 8.16376 14.3737L9.19829 12.6414C10.7146 10.1299 11.6248 9.15426 14.2841 7.90002C14.5183 7.78958 14.7578 7.71158 14.9831 7.57968L16.6504 6.60299C16.9852 6.41071 17.3415 6.15562 17.7171 6.0583C18.2636 5.91674 18.5332 6.44212 18.8843 6.74812C20.306 7.98712 21.9968 8.27291 23.794 8.27296C25.8719 8.27305 27.7793 8.01702 29.5279 6.74676C29.8909 6.48308 30.1073 6.12716 30.5611 6.00435C30.9207 5.99357 31.0994 6.18069 31.3735 6.38427L33.1272 7.53515C33.4482 7.71674 33.7943 7.86083 34.1256 8.0234C36.0151 8.95063 37.2402 10.1551 38.3699 11.9533L38.8602 12.7908C40.1275 14.8642 41.2135 16.7889 42.996 18.4681L44.3657 19.6521C44.7198 19.9596 45.3167 20.3357 45.057 20.8953L45.0403 20.9289C44.7887 21.4443 44.2124 21.9077 43.794 22.2831L42.8754 23.0903C40.9727 24.6276 38.7938 25.8663 36.5087 26.7362L37.9976 37.2888C38.0443 37.5139 38.1403 39.1618 38.0743 39.4086L38.0639 39.445C37.9622 39.8316 37.5002 40.0448 37.1928 40.2393C36.2054 40.8641 35.0961 41.5793 33.9502 41.8778C32.1126 42.3564 27.8019 42.3089 26.0103 41.7772C25.2925 41.5642 24.2676 40.8859 23.6085 41.1553L22.8755 41.4667C21.8426 41.879 20.8241 42.039 19.7199 42.1596C18.6045 42.2814 17.4945 42.2936 16.377 42.1826ZM30.7261 7.67549C29.7974 9.27069 28.6728 10.7636 27.1048 11.7778C25.3434 12.9169 24.2585 12.8668 22.3783 12.2405C19.0964 11.1473 19.1616 10.4413 17.6528 7.70498C17.1997 7.92402 15.878 8.60258 15.5034 8.93798L17.3521 12.7148C17.5547 13.0996 17.7586 13.5009 17.9994 13.8632C19.1988 15.8942 21.0392 17.4423 22.9638 18.7567C23.3339 19.0094 23.69 19.292 24.0794 19.5136C25.0203 18.9498 25.8905 18.2391 26.7218 17.526C29.5452 15.1042 31.5534 12.4866 32.5093 8.82604C32.0301 8.58871 31.0384 7.78185 30.7261 7.67549ZM19.9263 9.01902C20.8434 10.2112 21.8797 10.6 23.3006 11.0076C23.5956 11.0923 23.9532 11.2156 24.2577 11.248C25.299 11.3588 26.4779 10.5536 27.2297 9.90187L28.0084 9.13734C26.0481 9.82138 21.9581 10.0432 20.0982 9.1161L19.9263 9.01902ZM33.779 9.45674L33.1083 11.4874C31.9926 14.3734 29.6943 16.9292 27.3519 18.8702L26.66 19.4076C25.9926 19.9329 25.2737 20.5499 24.4873 20.8855C23.7999 21.1789 23.2479 20.7077 22.713 20.3352L21.5426 19.5116C18.4702 17.3387 16.8407 15.0891 15.2169 11.6454L14.2825 9.56137C12.9425 10.1632 12.1648 10.7834 11.3321 11.9677L8.47501 16.6107C7.9028 17.4971 7.36698 17.9864 6.7779 18.763C8.20604 20.1561 9.35326 20.9059 11.1092 21.9141L12.1944 22.539L12.5928 20.3443C12.655 19.9236 12.6737 19.4909 13.1483 19.3343L13.1723 19.3262C13.5316 19.2172 13.8314 19.4149 13.9743 19.7341L13.9962 19.7762C14.0762 19.9382 14.0509 20.1985 14.0256 20.3739L12.664 28.3254L11.7211 34.5466L11.3871 38.4021C11.3779 38.5078 11.3065 38.7506 11.3376 38.8449C11.3464 38.8716 12.8718 39.751 13.0125 39.789L13.0311 39.7894C13.0592 39.1708 13.1393 38.5551 13.2135 37.9405L13.6263 35.238C13.8028 34.3303 14.0228 33.4271 14.3004 32.5446C14.8456 30.8115 15.1881 29.8348 15.459 28.0192L15.5727 26.8892C15.6086 26.2768 15.5775 25.5111 16.4388 25.6187C17.0077 25.6897 16.9967 26.2195 16.9885 26.6445C16.9477 28.7444 16.5684 30.0201 16.0079 31.9509C15.1266 34.3011 14.674 36.794 14.4936 39.292L14.4223 40.0284C14.4182 40.1085 14.4007 40.2113 14.4111 40.2898L14.4199 40.3282C15.3992 40.6453 16.5486 40.703 17.5699 40.7053C19.5243 40.7097 21.2174 40.6694 23.0481 39.8033C24.034 39.3368 24.1184 39.4727 25.0785 39.8931C26.8209 40.6562 28.6224 40.8495 30.5212 40.7754L32.8948 40.5691C32.9293 40.0498 32.8498 39.5363 32.8344 39.0208L32.6522 35.5296C32.5705 34.7607 32.4963 34.0115 32.3283 33.2539C32.0288 31.9037 31.5765 30.7854 31.362 29.3662L31.0194 26.939C30.9807 26.6956 30.906 26.4279 30.937 26.1794C31.0144 25.5606 31.916 25.3821 32.2498 26.0036L32.2696 26.038C32.3166 26.1299 32.3423 26.2523 32.3603 26.3536L32.8642 29.6887C32.9211 30.0883 32.98 30.478 33.1288 30.8554L33.2916 31.3498C33.3048 31.3955 33.2967 31.3697 33.3141 31.413L33.7881 33.261L33.9598 34.2814C34.021 34.5645 34.0119 34.8685 34.0503 35.156L34.1405 36.1331C34.1612 36.3482 34.1966 36.5627 34.203 36.779L34.2177 38.19C34.2287 38.4605 34.2793 38.7284 34.2871 38.9997C34.2983 39.3932 34.2718 39.7915 34.3057 40.1836C35.1293 39.8338 35.9387 39.3693 36.6813 38.8723C36.6123 37.1806 36.4161 35.4756 36.1898 33.798L34.048 20.7224C33.9656 20.2031 33.8909 19.4203 34.7108 19.4315C35.4349 19.4414 35.4497 20.3939 35.526 20.9136L35.7661 22.5114C35.7852 22.612 35.7829 22.738 35.8291 22.8303L38.0292 21.3157C39.1504 20.5398 40.3284 19.7322 41.2513 18.7179C41.0201 18.4315 40.7477 18.1777 40.5128 17.8915C39.9639 17.223 39.4842 16.5189 39.0159 15.7927L37.0161 12.4956C36.0548 11.011 35.3455 10.3603 33.807 9.45623L33.779 9.45674ZM42.2933 19.7098C41.9434 20.0648 41.5794 20.3816 41.2029 20.7067L40.3061 21.4642L36.4821 24.143C36.3527 24.2312 36.1883 24.3305 36.0886 24.4519C36.1705 24.7285 36.1936 25.0187 36.2551 25.3013L36.9199 25.0218C38.7649 24.2456 40.5191 23.1825 42.0626 21.9088L43.4188 20.6885L42.2933 19.7098ZM5.72429 19.7271C5.3288 19.9748 4.96116 20.3283 4.60003 20.6263C6.09141 22.4145 9.03765 24.1019 11.1268 24.9965L11.723 25.2278L11.9476 24.0325L10.7549 23.3764C9.25782 22.5287 7.68957 21.6106 6.42409 20.4275C6.18554 20.2044 5.97329 19.9351 5.72429 19.7271Z" fill="black"/>
</svg>
