<svg width="48" height="48" viewBox="0 0 48 48" fill="none" xmlns="http://www.w3.org/2000/svg">
<path d="M31.6698 42.2911L31.2381 42.3957C29.7701 42.734 28.2713 42.9059 26.7688 42.991L23.9357 43.1238L20.9973 43.1209C18.4803 42.9784 14.8756 42.1388 12.7122 40.7679L11.6498 43.1433C11.1448 44.2732 11.2382 44.5467 9.80406 44.3673L8.13278 44.1252C7.63295 44.0394 7.13762 43.9152 6.65157 43.7715C5.69139 43.4875 5.14567 43.4326 5.1534 42.3802C5.15809 41.7396 5.20932 41.1108 5.29651 40.4762L6.89851 32.5098L9.511 21.5857L10.5753 16.3357L10.961 13.8701L11.2446 10.995C11.3224 10.1557 11.2268 9.30363 11.2768 8.46194C11.3895 6.56622 12.2386 4.80039 13.8622 3.77723C14.3344 3.47965 14.8542 3.24966 15.337 2.96528L16.566 2.20428C16.958 1.95444 17.3324 1.67507 17.7772 1.5261C18.5702 1.45407 18.9137 1.98076 19.5012 2.42965C21.721 4.1258 25.9645 4.30868 28.2828 2.61749C28.7064 2.3085 29.0768 1.79144 29.5667 1.59666L29.5964 1.5852C30.2349 1.32998 30.7118 1.77169 31.2363 2.06527L33.0795 3.11998C34.3327 3.84682 35.1766 4.32687 35.9062 5.61307L36.4528 6.97966L36.6089 7.64041C36.7177 8.2128 36.7216 8.82161 36.7222 9.40118L36.7226 11.2146C36.7267 11.4784 36.7684 11.739 36.7979 11.9997L36.9394 13.3006L38.1572 19.9803L39.4695 25.7224C39.5269 25.9386 39.5997 26.1655 39.6408 26.3847L41.2399 33.2022L42.6888 40.2222C42.735 40.4481 42.741 40.6815 42.7607 40.9106L42.8535 42.2118C42.8672 42.4722 42.9442 42.771 42.8584 43.026L42.8213 43.1482C42.4064 44.1024 38.7765 44.383 37.8635 44.4163C36.5967 44.4627 36.6646 44.336 36.2726 43.082L35.5632 40.7183C34.5043 41.566 32.9597 41.9708 31.6698 42.2911ZM18.5374 3.5503C18.5447 5.13864 18.3601 5.6103 19.6659 6.58886C20.2652 7.03797 20.8672 7.41691 21.554 7.72033C23.9729 8.78894 27.3924 8.23127 29.0106 6.01099C29.4667 5.30182 29.6188 4.3767 29.4938 3.54175L29.4797 3.55644C29.1887 3.85115 28.3624 4.32186 27.9911 4.49377C25.5864 5.60711 21.8795 5.4521 19.5847 4.24361C19.2054 4.04384 18.8832 3.79786 18.5374 3.5503ZM17.0613 3.66498C16.5574 3.92355 16.0836 4.24453 15.5918 4.52636C14.3139 5.25855 13.5227 5.49096 12.9969 7.10992L12.7556 8.08792C12.6253 8.65282 12.7579 10.0831 12.7178 10.7613L12.0517 16.073L11.1213 20.9221L7.97767 34.4294L6.65753 41.2146C6.62181 41.5196 6.61618 41.8319 6.59832 42.1387C7.2347 42.5434 9.42887 42.8719 10.1706 42.9553C11.1465 41.0706 11.9499 38.5354 12.6464 36.5295L13.69 33.4173C14.5085 30.9749 15.0114 29.4332 15.0163 26.8678C15.0175 26.2177 15.036 25.592 14.9364 24.949L14.8775 24.4803C14.7265 23.6249 14.3771 22.8309 14.2033 21.9842C13.7949 19.9952 13.8523 17.6873 14.4889 15.7604C14.5955 15.4377 14.7009 15.0711 14.8547 14.7691C15.2907 13.9128 16.4262 14.494 16.1604 15.3873C15.9802 15.9925 15.7943 16.58 15.6632 17.2001C15.5281 17.84 15.3397 19.7125 15.5089 20.3849C15.5778 20.6587 15.5319 20.9668 15.5923 21.249C15.6872 21.692 15.7269 22.1617 15.8832 22.5908L15.9451 22.8072C15.9526 22.8418 15.9644 22.8722 15.9763 22.9052L16.2533 23.9594C16.3731 24.3792 16.471 25.3983 16.473 25.889L16.4748 26.7706C16.4757 28.3346 16.3433 29.7988 15.9025 31.3072L13.7393 37.9473C13.6908 38.0991 13.2373 39.3127 13.2497 39.3436C13.3246 39.531 14.9762 40.2204 15.221 40.3176C17.6709 41.2906 19.9631 41.6833 22.5665 41.6724L23.4224 41.6524C23.9197 41.6381 24.4056 41.554 24.9028 41.5489C25.2587 41.5453 25.6187 41.5553 25.9736 41.5291L26.43 41.4761C27.1207 41.4304 27.8119 41.4137 28.5002 41.3287L30.3986 41.047L31.9221 40.6881C32.9914 40.4244 34.263 40.0458 35.0275 39.2099L35.0631 39.1521L32.7134 32.4483C31.9096 30.1941 31.5192 29.2096 31.5187 26.8311L31.5261 25.5663C31.5914 24.3947 31.9325 23.4302 32.2291 22.3118C32.7485 20.3528 32.6842 18.2192 32.0959 16.2838C31.9874 15.9267 31.8348 15.5707 31.7477 15.2095C31.5949 14.5755 32.5891 13.8537 33.1194 14.8064C33.3697 15.2562 33.6651 16.156 33.759 16.6917L33.914 17.4173C34.15 18.8066 34.1695 20.7533 33.8068 22.1488L33.4688 23.2732C33.3283 23.6932 33.1744 24.1087 33.1044 24.5492C32.9283 25.6566 32.8571 27.705 33.1357 28.789L33.5193 30.281L35.9552 37.0428L37.1649 40.8965C37.3166 41.3148 37.6385 42.7799 37.7874 42.9174L39.2026 42.7769C39.9783 42.6847 40.6669 42.5481 41.3924 42.265C41.3274 41.4659 41.2721 40.6695 41.1458 39.8762L39.6884 32.9017L37.4454 23.7517L36.2161 17.8357C35.8286 15.7302 35.4477 13.605 35.2866 11.4683C35.194 10.2404 35.4112 8.96097 35.151 7.75178C34.8231 6.22844 34.231 5.55813 32.9581 4.82186L30.9697 3.65977C30.9449 3.97072 30.9703 4.28059 30.9571 4.59148C30.8547 7.01186 28.6544 8.78153 26.4729 9.3768C23.7127 10.1299 21.1337 9.62261 18.8027 7.91102C17.7806 7.16055 17.3741 6.47097 17.1549 5.20291C17.0559 4.63001 17.1443 4.1676 17.0613 3.66498Z" fill="black"/>
<path d="M33.2051 44.9202L30.5292 45.8094C29.5241 46.0621 28.4661 46.2667 27.4346 46.3657L25.766 46.4664L21.551 46.4675C19.706 46.3746 17.7943 45.9969 16.054 45.3883L15.2534 45.115C14.8717 44.9891 14.4492 44.8766 14.3422 44.4264L14.3348 44.3931C14.2285 43.9242 14.5307 43.5636 14.9872 43.4565C15.3198 43.4389 15.6451 43.6274 15.9565 43.722L18.2767 44.3864C18.9661 44.5602 19.6786 44.6951 20.382 44.7981C21.0211 44.8918 21.6639 44.9194 22.3074 44.9538L22.7743 44.9961C23.4992 45.0292 24.2248 44.9901 24.9482 44.9639L26.9921 44.8396C28.1501 44.739 29.289 44.608 30.4176 44.3127L32.4831 43.6158C32.6713 43.5443 32.8749 43.4515 33.0797 43.4512C33.8093 43.4499 34.2368 44.4765 33.2051 44.9202Z" fill="black"/>
</svg>
