<svg width="48" height="48" viewBox="0 0 48 48" fill="none" xmlns="http://www.w3.org/2000/svg">
<path d="M31.014 43.9539L28.001 44.4095C27.7422 44.436 27.4792 44.4262 27.2195 44.4462L25.3174 44.5614L21.494 44.5019L18.5043 44.2275C16.3926 43.9673 14.2603 43.4668 12.3431 42.5341L11.1645 41.9924C10.7315 41.8007 10.2652 41.6516 9.86269 41.3995C9.07336 40.9052 9.29396 40.3984 9.56991 39.6215L10.5473 36.8277C11.7901 32.8553 12.1319 28.7278 12.6465 24.6184L13.2691 20.3626L12.0287 22.6866L11.1595 24.0123C10.5661 24.8875 9.39005 26.7195 8.27996 26.9626C7.72224 27.0847 7.49869 26.7058 7.14657 26.3669L3.18736 22.7333C2.50646 22.107 1.56689 21.6021 2.04599 20.526C2.30212 19.9507 2.72596 19.4592 3.12514 18.9796L5.36668 16.5202L7.869 13.9863C8.19239 13.644 8.53383 13.3069 8.83589 12.9461C9.41719 12.252 9.67767 11.401 10.1632 10.6521C10.9887 9.37883 11.8373 8.83358 13.1957 8.34256L14.5262 7.84353C14.7905 7.74706 15.0607 7.65983 15.3187 7.54728L17.9535 6.27861C18.2295 6.15533 18.5077 5.99694 18.8037 5.93164C19.1573 5.97069 19.2954 6.2015 19.5283 6.4363C21.9692 8.89663 26.1792 8.82177 28.6018 6.37447C29.3191 5.64978 29.4656 6.01606 30.3156 6.36219L34.4187 7.94431C36.1148 8.64345 37.3845 9.49325 38.1994 11.2027C38.3876 11.5976 38.5463 12.006 38.7539 12.3923C39.3069 13.4217 40.4338 14.6318 41.3468 15.4192C41.6576 15.6873 41.9981 15.9258 42.2994 16.2042C43.2402 17.0733 44.1169 18.0341 44.9621 18.9957L45.6477 19.8051C45.7791 19.9681 45.9306 20.1433 46.0203 20.3336L46.0479 20.3885C46.5611 21.4656 44.7454 22.7046 44.1063 23.3193L40.7029 26.5894C39.0125 28.1439 36.9569 24.1486 36.3108 23.0709C35.7543 22.1425 35.158 21.1936 34.751 20.1874C34.764 20.729 34.915 21.2863 35.0086 21.8186L36.2855 31.0951L37.2192 35.4488C37.2991 35.7712 37.4183 36.0954 37.4834 36.4203L37.6769 37.1719C37.7039 37.3411 37.768 37.5274 37.8168 37.6932L38.1416 38.8863C38.1499 38.9232 38.1583 38.957 38.1711 38.9928L38.2354 39.2141C38.3412 39.6797 38.4747 40.2014 38.65 40.6428L38.6855 40.7419C38.8253 41.3457 37.9862 41.5999 37.5856 41.7944C36.8025 42.175 35.9763 42.5395 35.1567 42.8345L33.011 43.5109L31.014 43.9539ZM18.9135 7.56261C19.0303 8.15403 19.2224 8.74419 19.4996 9.28081C21.4028 12.9649 25.803 13.3781 28.1206 10.0074L28.3097 9.71914C28.6706 9.1243 29.0204 8.32817 29.0911 7.62092C26.5982 10.0836 21.4101 10.0713 18.9304 7.57981L18.9135 7.56261ZM30.307 7.72222L30.3026 7.74472C30.2595 7.97342 30.2464 8.19762 30.1872 8.42534C29.5393 10.9183 27.2909 13.2926 24.6332 13.5596C24.2396 13.5991 23.6144 13.6184 23.2322 13.5404L23.1863 13.5289C22.8938 13.456 22.6099 13.4234 22.3196 13.3268C20.1212 12.5959 18.5052 10.7019 17.8912 8.50241C17.8218 8.25402 17.7905 7.99602 17.7191 7.7488L16.2831 8.41916C16.2724 8.48337 16.3081 8.55692 16.3255 8.61931L16.4163 8.96361C16.4263 9.00486 16.4407 9.04184 16.4554 9.08159L16.7823 10.0024C18.1657 12.8538 20.6215 15.0077 23.8799 15.0128C28.0326 15.0194 30.852 12.1679 31.653 8.19969C31.4775 8.14484 30.3823 7.70567 30.307 7.72222ZM32.8389 8.68292C31.6705 13.0773 28.7674 16.2466 23.8922 16.248C20.0502 16.2491 16.6521 13.4242 15.4303 9.86234L15.1032 8.90234C14.8598 9.04887 14.5383 9.14328 14.2717 9.24772C11.6495 10.2745 11.7521 10.5151 10.3958 12.8C9.34627 14.5682 7.67442 15.9668 6.23602 17.4048L5.14777 18.5775C4.43051 19.3347 3.70883 20.0943 3.15572 20.9843L7.08511 24.5859C7.47497 24.9342 7.82138 25.382 8.24757 25.6836C10.4457 23.5423 12.9133 18.9174 13.8148 16.0815C13.9202 15.7498 14.0154 15.4557 14.4262 15.4514C15.2934 15.4423 14.988 16.6449 14.9154 17.1486L14.1611 22.4341L12.996 31.5347L12.2499 35.2711C12.0331 36.203 11.7478 37.1361 11.4458 38.045L10.6131 40.4321C10.958 40.6234 11.3425 40.7641 11.7014 40.9304C14.0505 42.0188 15.069 42.3672 17.598 42.7847L20.847 43.1617C20.9763 43.1716 21.0993 43.201 21.2273 43.211L23.2461 43.3075L26.8832 43.2121L29.044 42.9818C29.9297 42.8702 30.8546 42.7726 31.7145 42.5255L33.0473 42.1848C34.1731 41.8541 35.2636 41.4342 36.3402 40.9694L37.3194 40.544C37.1664 40.0926 37.0542 39.6213 36.9322 39.1604L35.931 35.3387L35.1914 31.9067L33.0274 16.7194C32.9807 16.276 32.9006 15.676 33.4215 15.4867C33.8078 15.3463 34.082 15.6345 34.1863 15.9759L35.3471 18.9324C35.4456 19.1627 35.5831 19.3903 35.7031 19.6108L37.8983 23.3479C38.428 24.2231 39.0104 25.128 39.85 25.74L44.8947 20.894C44.2421 19.9441 42.6578 18.2068 41.7865 17.4028L40.8637 16.6168C39.5977 15.4823 38.3713 14.2927 37.5806 12.7693L36.9929 11.5554C36.2657 10.2066 35.1172 9.548 33.7358 9.02544C33.4387 8.91303 33.1273 8.81562 32.8389 8.68292Z" fill="black"/>
</svg>
