<svg width="48" height="48" viewBox="0 0 48 48" fill="none" xmlns="http://www.w3.org/2000/svg">
<path d="M19.9338 15.1784C18.2664 14.7116 16.9484 13.8957 15.8747 12.4968C14.8936 12.9652 13.8244 13.2954 12.9088 13.8886C12.0566 14.4407 11.3586 15.2719 10.6696 16.0061L8.44982 18.3067C8.14344 18.6182 7.85436 18.9535 7.53243 19.248L8.42975 20.029L11.7682 23.2595C11.9282 23.4214 12.0913 23.5698 12.1974 23.7745L12.2154 23.8098C12.5073 24.3551 11.8788 24.7992 11.5419 25.1444L10.1748 26.63C9.84158 27.0395 9.52204 27.6244 8.89939 27.4096L8.85983 27.3952C7.06494 26.7579 4.82971 25.1443 3.7712 23.5965C3.54199 23.2614 3.31477 22.9102 3.18714 22.5214L3.17624 22.4873C2.98127 21.9029 3.23842 21.655 3.6152 21.2663L10.7443 13.81C12.0173 12.568 12.8989 12.2032 14.5163 11.4876C14.9392 11.3004 15.3644 11.0744 15.7964 10.9138L15.9354 10.8638C16.33 10.7642 16.5968 11.0079 16.8043 11.2951L17.1336 11.7319C18.3153 13.236 20.1407 13.8999 21.9966 14.0685C22.3228 14.0982 22.7565 14.1151 23.0981 14.1314L24.1841 14.1418C24.682 14.1417 25.7243 14.1335 26.208 14.0618C28.1442 13.7751 29.6794 13.2589 30.9225 11.645C31.2023 11.2817 31.3099 10.9738 31.7773 10.8315L31.9458 10.8291C32.1144 10.8473 32.2609 10.9267 32.4113 10.9991L32.9463 11.244C35.7826 12.4551 36.1911 12.617 38.4122 15.021L42.2671 18.9832L44.7407 21.6516C45.082 22.058 44.7807 22.6665 44.5665 23.0536C43.5918 24.8149 41.8945 26.0577 40.1238 26.9322L39.4552 27.2494C39.0495 27.4337 38.7287 27.5734 38.3761 27.2361C37.9616 26.8395 37.6257 26.3566 37.235 25.9347L36.3687 25.0594C35.9732 24.662 35.5026 24.2497 35.9085 23.6918C36.2535 23.2175 36.7375 22.8006 37.153 22.3859L38.8362 20.7609C39.3693 20.2547 39.9175 19.71 40.5269 19.2965C40.3284 19.0346 40.0441 18.7973 39.8112 18.5648L36.411 14.9916C34.9353 13.5272 34.0425 13.3368 32.1791 12.5255C32.1416 12.5091 32.1365 12.4821 32.1071 12.5198C30.9937 13.9476 29.3921 15.0498 27.573 15.3083C26.7403 16.9378 25.8147 18.6218 25.6015 20.4705L25.5162 21.2346C25.4146 22.0523 25.2791 22.1948 24.5179 22.1949L23.5479 22.1961C22.854 22.1947 22.7139 22.1235 22.588 21.3588L22.4887 20.803C22.3363 19.9173 22.1007 19.0664 21.7794 18.2262L20.523 15.3056L19.9338 15.1784ZM22.1973 15.5679C22.3209 15.8978 22.5279 16.2229 22.6793 16.5588L23.1698 17.7918C23.3046 18.1532 23.4584 18.5241 23.5405 18.9017L23.9069 20.509C23.9312 20.6046 23.9622 20.6585 24.0356 20.721L24.3708 19.2605C24.5616 18.4662 24.8192 17.685 25.1507 16.9381L25.8347 15.5629L22.1973 15.5679ZM41.5174 20.3016L37.4771 24.106L37.8736 24.5135C38.8078 23.9479 40.1997 22.6737 40.9519 21.8998C41.2912 21.5507 41.5986 21.169 41.9498 20.8324L41.5174 20.3016ZM6.50211 20.3343L6.03772 20.8124C6.22822 21.0299 6.45074 21.2242 6.6531 21.4321L7.45804 22.2809C8.01271 22.8254 9.42655 24.0823 10.1455 24.4367C10.2777 24.3303 10.4595 24.1938 10.539 24.0427L7.82615 21.4479C7.39382 21.057 6.98225 20.6684 6.50211 20.3343ZM42.9487 21.8376L42.0819 22.8166C41.5891 23.3438 41.0578 23.8322 40.5028 24.293L39.6641 24.941C39.3773 25.1477 39.0719 25.3539 38.8161 25.5976L39.0104 25.8073C39.0561 25.7917 39.1327 25.7767 39.1711 25.751C40.6099 25.1042 41.8319 24.2827 42.8219 23.0407C42.992 22.8275 43.2421 22.5409 43.3332 22.2846L43.3465 22.2449C43.2263 22.0959 43.0861 21.9702 42.9487 21.8376ZM5.0751 21.8794C4.94179 22.0048 4.78696 22.1299 4.68125 22.2794C5.54207 23.8702 7.27194 25.0823 8.91843 25.7956L9.24027 25.5348C8.55233 25.0514 7.85169 24.5681 7.2111 24.022L6.34916 23.223C5.91018 22.7992 5.54666 22.262 5.0751 21.8794Z" fill="black"/>
<path d="M35.133 23.92L34.9753 26.5117C34.9198 27.2781 34.8656 28.0459 34.7355 28.8044C34.6053 29.5635 34.2814 30.2534 34.2076 31.0289C34.1793 31.3271 34.1942 31.6374 34.195 31.937L34.1927 35.1569C34.193 36.176 34.2562 36.4023 34.4834 37.3347C34.7077 38.2553 35.4412 41.0607 34.0763 41.133C33.6124 41.1576 33.1335 41.1351 32.6683 41.1352L14.5994 41.1347C13.5637 41.1343 13.1715 41.1308 13.1685 39.8108C13.167 39.1436 13.2121 38.4559 13.3667 37.8046C13.5241 37.142 13.7763 36.5949 13.8216 35.9064L13.8667 33.0903C13.8667 32.2697 13.8902 31.4359 13.7744 30.6216C13.7089 30.161 13.5515 29.7344 13.4337 29.2871C13.2934 28.7547 13.2109 28.2009 13.1529 27.654L12.7729 22.4548L12.7682 17.5028C12.7679 17.041 12.6247 16.4386 13.0706 16.1308L13.188 16.0581C13.2701 16.0204 13.3709 16.0077 13.4594 15.9912C13.8606 16.034 14.1992 16.2488 14.2107 16.696L14.2324 22.657C14.245 23.1135 14.2984 23.6539 14.3222 24.1341L14.413 25.289C14.4774 26.312 14.5487 27.3269 14.7139 28.3394C14.7927 28.8225 14.9559 29.2816 15.0747 29.7537C15.2595 30.4887 15.28 31.1588 15.2805 31.9079L15.2812 33.6494C15.2814 34.1167 15.2539 34.6191 15.3077 35.0825L32.6344 35.1022C32.6755 35.1058 32.6967 35.1072 32.7382 35.1003L32.7388 32.377C32.7395 31.498 32.7393 30.7582 32.9386 29.8912C33.1627 28.9161 33.3718 28.44 33.4617 27.3521L33.5927 25.2125C33.603 25.0339 33.6346 24.8592 33.6422 24.6804L33.6722 23.3357C33.6873 22.9934 33.7526 22.6566 33.7626 22.3119L33.7703 17.4979C33.7707 17.0034 33.631 16.1776 34.2959 16.028L34.3288 16.0211C34.446 15.9951 34.529 15.9899 34.6449 16.0152L34.6878 16.0248C34.9386 16.0782 35.0948 16.257 35.1724 16.4984L35.1862 16.5429C35.2625 16.7772 35.2276 17.0946 35.228 17.3397L35.22 22.1927C35.2148 22.3514 35.1815 22.5059 35.1726 22.6638L35.133 23.92ZM16.436 36.5689L15.5402 36.573C15.075 36.5751 15.2306 36.595 15.1138 36.9997L14.9183 37.5935C14.7255 38.2794 14.643 38.969 14.6047 39.6775L31.6292 39.6574L33.3977 39.6558C33.3299 38.5973 33.0669 37.6009 32.8191 36.5737L16.436 36.5689Z" fill="black"/>
</svg>
