<svg width="48" height="48" viewBox="0 0 48 48" fill="none" xmlns="http://www.w3.org/2000/svg">
<path d="M33.4632 45.7129L32.2329 45.9059L28.7227 46.1326C28.5162 46.1421 28.311 46.1801 28.1029 46.1883L24.5605 46.1988L22.6081 46.1118C22.42 46.1011 22.2346 46.0687 22.046 46.0624L19.3489 46.0437L16.8969 45.8569C14.6225 45.6458 12.3826 45.2846 10.2159 44.5404C9.76465 44.3854 9.07442 44.2837 8.86906 43.7919L8.85556 43.7583C8.71948 43.427 8.85823 42.856 8.89967 42.5137L9.08928 41.0278C9.27185 39.6417 9.44806 38.2311 9.74248 36.8644C9.48049 36.7434 9.16245 36.6741 8.88514 36.5888L2.27086 34.4773C2.08081 34.419 1.87593 34.3701 1.69286 34.2939C1.26255 34.1147 1.08296 33.5352 1.27726 33.1249L1.29237 33.0942C1.39182 32.8889 1.58718 32.764 1.72135 32.5833C3.04309 30.8034 4.22719 27.4011 4.89687 25.2884L5.96117 21.59L6.99856 17.4263L7.47326 14.8013C7.78957 12.7194 8.00257 10.4559 9.53553 8.8539C9.71224 8.66921 9.97854 8.50712 10.1212 8.30232L10.1802 8.21996C10.3915 7.95179 10.6766 7.88307 10.9765 7.76466L11.6433 7.51262C12.0215 7.38441 12.4327 7.31546 12.8204 7.21796L16.3542 6.29162C16.5985 6.22295 16.8072 6.1096 17.0625 6.07951C17.6026 6.03934 17.8279 6.52079 18.1402 6.85881C19.97 8.83918 22.4836 9.44396 25.0867 9.18671C27.0748 8.99026 28.6415 8.10624 29.9945 6.69859C30.7149 5.94906 30.554 6.01763 31.6256 6.27887L35.4944 7.18529C37.6411 7.6712 38.8095 8.7317 39.6559 10.8403C39.7558 11.0895 39.8614 11.3538 39.922 11.6157L41.8895 21.0923L42.7645 24.1921L44.4278 29.2262C44.7735 30.3763 45.6094 31.9449 46.3984 32.8182C46.4969 32.9272 46.6178 33.0365 46.6896 33.1646L46.7039 33.1914C46.8247 33.4023 46.7537 33.6704 46.6296 33.8659C46.3638 34.2847 45.8744 34.3185 45.45 34.4727L39.6563 36.3772C39.1935 36.5287 38.7311 36.7199 38.2572 36.8319C38.262 36.8931 38.2656 36.9538 38.2783 37.014L38.379 37.6254C38.4626 37.9951 38.481 38.3803 38.5328 38.7544L38.9434 42.0725L39.0039 42.9731C39.1144 44.1978 39.0404 44.1534 37.9273 44.5448C36.9335 44.8942 35.9268 45.1885 34.901 45.4283L33.4632 45.7129ZM31.0978 7.6997L31.0743 7.71573C30.8501 7.87468 30.6691 8.1098 30.4729 8.30227C28.5695 10.1701 25.742 10.9172 23.1327 10.6982C21.3844 10.5514 19.5203 10.0655 18.1542 8.90424C17.703 8.52076 17.3125 8.05276 16.8503 7.68755C16.8478 8.0078 16.9129 8.65126 17.0067 8.95571L17.1831 9.75048L17.6734 11.2974C17.9274 11.8986 18.1882 12.5435 18.5337 13.0988C18.6863 13.4614 18.9583 13.8194 19.184 14.1427C20.28 15.7126 21.6188 16.7981 23.3848 17.5162L23.825 17.6883C24.0002 17.7552 23.9862 17.7571 24.1623 17.6896L24.7251 17.463C28.3912 15.9036 30.0698 12.7281 30.9552 8.96143C31.0479 8.56674 31.1739 8.11243 31.1417 7.7041L31.0978 7.6997ZM32.588 8.00307L32.1218 10.326C31.0402 14.2754 28.4326 18.0374 24.3448 19.187C23.7 19.3683 21.9411 18.4925 21.3794 18.1738C18.5868 16.5892 16.6812 13.468 15.8552 10.4362L15.4154 8.09701L11.7047 9.03306C11.7522 9.1352 11.7991 9.23321 11.8341 9.34032L12.4597 11.3281C12.5127 11.5548 12.6211 11.803 12.7043 12.0239L13.1822 13.2192C13.5128 13.951 13.9292 14.6976 14.0709 15.4971L14.2049 16.0903C14.576 17.6927 14.3814 19.4014 14.1612 21.008L13.4074 25.4888L12.472 29.9888L11.4782 35.4239C11.2628 36.6183 10.9882 37.8211 10.8544 39.0285L10.3094 42.982C11.5339 43.5133 13.1603 43.8675 14.461 44.0621L19.0677 44.5448L21.0975 44.5571C21.3758 44.5581 21.6875 44.5298 21.9609 44.577C22.6253 44.6918 23.3505 44.623 24.0235 44.6409L24.9941 44.6954L28.9728 44.6292C29.1662 44.622 29.3543 44.5835 29.5461 44.5712L30.5626 44.5309C31.7555 44.4515 33.2038 44.2968 34.3477 44.037L37.2567 43.2098C37.3493 43.1819 37.4883 43.1577 37.5671 43.1066L37.3896 41.1099L36.4921 35.0513L34.2934 24.0309L33.7352 20.5961C33.4198 18.2162 33.4666 16.5916 34.3487 14.2809L35.4639 11.4436L36.053 9.31393C36.0875 9.17663 36.113 9.02518 36.169 8.89534L32.588 8.00307ZM37.4231 9.87938C37.3105 10.1784 37.2484 10.51 37.1689 10.8205L36.1939 13.6929C35.4132 15.5821 34.7955 17.4302 35.0398 19.4964L35.1927 20.6372C35.2304 20.8703 35.2406 21.1054 35.2926 21.3367L37.2638 31.3673L39.7658 30.5442L42.9897 29.4766L41.6816 25.6005C40.8265 22.8664 40.075 20.0881 39.4988 17.2817L39.0385 14.7158C38.7931 13.0796 38.5918 11.1748 37.4406 9.8858L37.4231 9.87938ZM10.5266 9.93934C9.67057 10.8742 9.36795 12.142 9.15242 13.3517L8.68578 16.3536L7.13079 22.8363L5.22232 28.7349C5.14671 28.9352 5.04809 29.1473 5.00571 29.3577C5.3996 29.5403 5.86465 29.6341 6.2794 29.77C6.9401 29.9866 7.59673 30.2518 8.27304 30.4154L10.7585 31.1886C10.8005 30.8795 10.8734 30.5757 10.9346 30.27L12.699 21.0474C13.0429 18.6141 13.2281 16.6976 12.1172 14.3563C11.9319 13.9658 11.7209 13.5931 11.5629 13.1893C11.1462 12.1247 10.8647 11.0278 10.5266 9.93934ZM4.40991 30.7263L3.1355 33.1779L9.24734 35.1601C9.28906 35.1735 9.36926 35.1876 9.40409 35.2113L10.0012 35.4115L10.5062 32.6333L4.40991 30.7263ZM43.4953 30.8794L38.2388 32.6104C37.7024 32.7881 37.5488 32.6643 37.6415 33.0942L37.9227 34.7817C37.9546 34.9672 37.9645 35.152 38.0194 35.3327L38.6978 35.1431L44.7588 33.1675C44.2499 32.5001 43.8304 31.6719 43.5543 30.8795L43.4953 30.8794Z" fill="black"/>
</svg>
