<svg width="48" height="48" viewBox="0 0 48 48" fill="none" xmlns="http://www.w3.org/2000/svg">
<path d="M34.1611 44.9233C33.2326 45.4643 32.1746 45.8407 31.1484 46.1418L30.3165 46.3786C30.0737 46.435 29.8276 46.4686 29.5822 46.5092L27.4102 46.7876C27.1945 46.8065 26.9842 46.8509 26.7673 46.8629L21.9103 46.8605C18.6715 46.6953 15.485 46.0111 12.7388 44.2143C12.0473 43.762 11.6407 43.6813 11.6467 42.7992C11.6499 42.3347 11.7113 41.8831 11.7358 41.4211C11.762 40.9276 11.7503 40.4429 11.8023 39.9491C11.8189 39.7916 11.8901 39.6317 11.8997 39.4818C11.9179 39.1992 11.8983 38.8987 11.899 38.6144L11.9001 36.5035C11.9013 35.8538 11.9331 35.3953 11.9801 34.7679L12.1222 32.8361L13.0695 26.3159L14.1117 21.329C14.2003 20.8644 13.4225 19.9848 13.1681 19.5999C11.7329 17.4287 10.8569 15.1019 10.3269 12.5674L10.1871 11.8599C10.0176 10.9798 10.118 10.8866 10.7643 10.3159C11.7477 9.44754 11.546 8.4895 11.3689 7.33605L10.602 3.81137C10.2227 2.11038 11.3726 1.96893 12.7249 1.57908L14.4294 1.09257C14.9106 0.963231 15.3973 0.811131 15.8945 0.759348C16.8852 0.495831 18.2642 1.37948 18.7971 2.19453C19.0498 2.58095 19.2765 2.99396 19.6048 3.32357C21.2781 5.00383 25.2109 4.94768 27.1925 4.11315C28.1612 3.70521 28.5413 3.24695 29.0747 2.37445C29.7002 1.35141 30.7134 0.681784 31.9337 0.750315C32.3459 0.773467 32.7913 0.922093 33.1921 1.02522L35.2619 1.56534C36.0933 1.7769 37.0034 1.84957 37.3919 2.7467L37.405 2.77746C37.5296 3.05929 37.5065 3.34814 37.4248 3.63939L36.6593 6.99621C36.3839 8.43166 36.1899 9.34694 37.388 10.4225C37.5404 10.5594 37.6833 10.6795 37.7846 10.862L37.8045 10.8986C37.9847 11.2192 37.8655 11.5949 37.8033 11.9347L37.3844 13.8986C36.9185 15.6391 36.1831 17.3642 35.2641 18.9136L33.8245 21.1167L33.954 21.6753C34.0349 21.9245 34.0642 22.1886 34.1255 22.4415L35.1101 27.2345L35.5323 29.9884L36.0022 34.7564C36.0255 35.0619 36.0715 35.3633 36.08 35.6706L36.0781 38.7801C36.0681 39.1747 36.152 39.1888 36.1814 39.4683L36.291 41.3785C36.2968 41.4744 36.3224 41.5663 36.329 41.6626L36.3693 42.7168C36.3882 43.6233 35.8596 43.865 35.1234 44.336L34.1611 44.9233ZM15.5268 2.14464C14.512 2.4994 12.6262 2.79566 11.794 3.22351C12.05 5.25579 13.4034 8.21538 12.5008 10.1406L12.4678 10.2071C12.2484 10.6487 11.9649 10.9437 11.6162 11.2847C11.3909 11.505 11.4221 11.4546 11.4862 11.7657C11.6298 12.4616 11.7048 13.1958 11.937 13.8708L11.9454 13.8943C12.0158 14.0967 12.0645 14.3089 12.1419 14.5079L12.3302 15.0704C12.8134 16.3954 13.4677 17.6607 14.2212 18.8523L15.0464 20.1095C15.185 20.3252 15.3409 20.5383 15.4351 20.7775L15.4452 20.8012C15.5179 20.9807 15.4788 21.259 15.4316 21.4418L14.0635 27.9493L13.3139 33.8321C13.2727 34.3461 13.2035 35.0186 13.196 35.5157L13.1893 38.8794C13.3902 38.9877 13.5816 39.0925 13.7798 39.2071L14.6504 39.6817C16.8062 40.7473 19.1446 41.2378 21.5275 41.4345C22.0462 41.4773 22.6185 41.2967 22.9246 41.8361L22.9395 41.8618C23.0077 41.9886 22.9991 42.1811 22.9751 42.3165L22.9708 42.3432C22.867 42.9266 22.1864 42.7724 21.7854 42.7466C19.1356 42.5767 16.5578 42.0605 14.1713 40.8816L13.0511 40.2813C12.9642 40.8009 13.0236 41.3681 13.005 41.8946C12.9854 42.4522 12.7442 42.6476 13.2051 42.9346L14.0375 43.468C16.0796 44.6587 18.4457 45.2133 20.7832 45.4164L22.7652 45.5345L26.4534 45.5157C29.3975 45.3684 32.7385 44.7101 35.0847 42.7895L34.9905 40.7467C34.9872 40.5939 34.9923 40.4173 34.9466 40.2698L34.4545 40.5476C32.3616 41.685 29.9886 42.4053 27.6234 42.6801L26.9227 42.7484C25.8519 42.8197 25.6365 41.8137 26.3439 41.463C26.5473 41.3621 26.8777 41.3798 27.1 41.3612C29.5853 41.1529 31.8055 40.4354 34.0064 39.3176L34.5501 39.0326C34.6407 38.9865 34.7341 38.9689 34.8029 38.8894L34.7893 35.4527L34.5976 32.7749L33.7412 26.9212L32.9182 22.9282C32.4555 20.768 32.1869 21.1908 33.5328 19.2592L34.0006 18.5329C35.0149 16.8454 35.7708 15.0587 36.2462 13.1448L36.577 11.4452C35.0805 10.2388 35.0603 8.99121 35.3307 7.27108C35.5481 5.88841 35.9264 4.54818 36.2131 3.18122L32.3553 2.16077L31.7718 4.24229C30.7069 7.46772 28.6627 11.0028 25.1275 11.8497L24.6117 11.9514C24.4256 11.9951 24.2126 11.9808 24.0226 11.981C19.5352 11.9855 16.9124 6.83402 15.84 3.11542C15.8054 2.99518 15.5886 2.15848 15.5268 2.14464ZM16.9011 2.19152C16.9432 2.46797 17.2736 3.476 17.393 3.77355L17.5821 4.31261C17.8687 5.07063 18.1959 5.82218 18.589 6.5321C22.0102 12.7107 27.1586 11.4746 29.8125 5.73382C30.3454 4.61829 30.7124 3.41413 30.9971 2.21334C30.1038 2.69732 29.7428 4.14707 28.5704 4.87483C27.2293 5.70738 25.6336 5.99777 24.0735 6.00218C21.7905 6.00855 19.6529 5.53244 18.2037 3.60673C18.0254 3.36975 17.2548 2.14173 16.9011 2.19152Z" fill="black"/>
</svg>
