<svg width="48" height="48" viewBox="0 0 48 48" fill="none" xmlns="http://www.w3.org/2000/svg">
<path d="M17.6899 42.1789L16.8344 42.1767C16.0163 42.1729 15.276 41.9719 14.7852 41.2481C14.1754 40.349 14.365 39.4889 14.4743 38.4687L14.958 32.4864L14.5555 33.5274L13.2135 38.1176C13.1273 38.4408 13.0616 38.7884 12.9241 39.0946C12.5682 39.8869 11.782 40.5634 10.8593 40.4405C10.0853 40.3374 9.34922 39.9402 8.63302 39.6474C7.60974 39.2292 6.55383 38.9272 6.76435 37.4769C6.87652 36.7039 7.18979 35.945 7.39491 35.1928L8.31254 31.3478L11.1403 16.8282L11.745 12.9592C12.061 10.8484 13.2873 9.80668 15.3047 9.14926L16.1255 8.90724C16.6817 8.7541 16.5221 8.71018 16.8373 8.21687L18.0155 6.51845C18.2307 6.22332 18.4523 5.92112 18.867 5.99016L18.9028 5.99654C19.1356 6.03184 19.29 6.17218 19.4718 6.31093L20.0585 6.75638C22.3118 8.33326 26.2126 8.15059 28.4067 6.51357C28.693 6.30001 28.9535 6.02101 29.3171 5.95801C29.9726 6.00854 30.2687 6.69277 30.6114 7.17198C30.9748 7.68015 31.4077 8.17027 31.624 8.76273L33.0509 9.16824C34.1791 9.52674 35.183 10.0995 35.7323 11.2124L35.9064 11.6134C36.1702 12.3199 36.2276 13.0705 36.3758 13.8048L36.9465 16.989L39.1927 28.4465L40.2079 32.9279C40.258 33.2476 40.4119 33.9675 40.5154 34.2613L40.6498 34.6768C40.7194 34.9214 40.9376 35.1558 40.9609 35.295C41.0213 35.6565 41.2458 36.4989 41.3602 36.8187L41.7431 38.0604C41.8054 38.2137 41.7986 38.3896 41.732 38.5399L41.6868 38.6373C41.4907 38.9963 40.8991 39.1416 40.552 39.2931L38.0263 40.2645C37.8899 40.3111 37.759 40.3729 37.6211 40.4156C36.7455 40.6867 35.776 40.1515 35.3559 39.3766C35.1981 39.0854 35.11 38.7613 35.0188 38.4448L33.1162 32.367C33.1271 32.9024 33.2146 33.4156 33.27 33.9462L33.3777 35.4024C33.3891 35.5453 33.4206 35.687 33.4342 35.8302L33.4672 36.4639C33.4792 36.6053 33.5097 36.7449 33.5249 36.886L33.7474 39.1887C33.7901 39.6207 33.9073 40.0614 33.762 40.4917C33.0477 42.6066 31.3543 42.1159 29.5933 42.1893C29.4021 42.1973 29.2169 42.2457 29.0278 42.2528H22.2121C21.9334 42.2463 21.6637 42.1899 21.385 42.1843L17.6899 42.1789ZM18.7558 8.14463L17.9433 9.26602C18.8853 10.7368 19.9593 12.0013 21.3344 13.0801C21.574 13.2682 21.8274 13.5001 22.1017 13.6346L22.1595 13.6056L22.9841 13.0245C22.6017 12.5626 22.1396 12.1449 21.7173 11.718L20.4529 10.3255C20.2636 10.1027 18.8109 8.1512 18.7558 8.14463ZM29.439 8.16807C29.0997 8.77215 28.2571 10.0978 27.7897 10.6087C27.3788 11.0577 26.8767 11.3779 26.4214 11.7729L24.862 13.2028C25.1345 13.3771 25.425 13.4962 25.7415 13.558C25.9242 13.5636 26.1172 13.5272 26.2893 13.4677L26.3295 13.4542C27.8972 12.9155 29.4967 10.6315 30.2785 9.28927L29.839 8.68182C29.7177 8.50988 29.6108 8.32163 29.4694 8.16577L29.439 8.16807ZM27.1534 8.89463L25.4467 9.24451C24.3435 9.4404 22.3047 9.24891 21.2863 8.94943L22.5916 10.4619L23.4674 11.3504C23.6659 11.5449 23.9025 11.7429 24.0743 11.9613C25.054 10.8713 26.4286 10.1332 27.2237 8.89168L27.1534 8.89463ZM16.8164 10.2774L15.5047 10.7161L16.1734 14.2501L16.7272 18.0426L17.2059 23.0584C17.2347 23.7699 17.2168 24.5194 17.1799 25.2306L16.7829 29.086L15.9172 39.0283C15.887 39.3248 15.8132 39.6277 15.8343 39.9259L15.8362 39.9593C15.9049 40.9012 17.2195 40.6536 17.8399 40.6538L22.5708 40.6966C22.7559 40.7054 22.9325 40.7524 23.1206 40.7568L28.3343 40.7611C28.7982 40.7594 29.1731 40.7087 29.6044 40.6955L31.0339 40.6903C31.2877 40.6897 31.6593 40.7391 31.8872 40.624L31.9217 40.6069C32.2144 40.4573 32.3801 40.1913 32.3519 39.8675L31.9736 36.5215L30.9517 25.1314C30.8799 24.2053 30.879 23.2644 30.8926 22.336L30.9228 21.3751L31.5874 15.7032L32.1231 12.6005C32.2584 11.9288 32.3861 11.2377 32.5846 10.5811L31.4651 10.2836C31.2638 10.6032 31.0156 10.8898 30.798 11.1971C29.715 12.7266 28.0081 15.0214 25.9235 15.0076C25.3615 15.0039 24.795 14.9008 24.3084 14.6062C24.1543 14.5128 24.0173 14.3521 23.8643 14.2762L23.1007 14.7967C22.1124 15.4561 22.0216 15.3896 21.0773 14.7319C19.613 13.7122 18.2736 12.4015 17.2722 10.922C17.1458 10.7351 16.937 10.4844 16.8611 10.2764L16.8164 10.2774ZM33.8937 11.2618C33.7657 11.6962 33.696 12.1539 33.6143 12.5987L32.9087 16.7931L32.5305 19.9178L32.3503 23.6251C32.3562 23.8816 32.3957 24.132 32.4134 24.3868L32.4888 25.4538C32.5671 26.3149 32.6433 27.2651 33.0186 28.0568L34.4543 31.7345L35.5829 35.1798L35.9901 36.7236L37.3065 36.1801L39.3439 35.3498C39.1023 34.7152 38.9622 34.0494 38.7984 33.3921L37.4633 27.4857L34.9988 14.4816C34.8679 13.8135 34.5938 11.5831 33.9055 11.2641L33.8937 11.2618ZM14.1496 11.3412C13.0883 12.2994 13.2078 13.317 12.9945 14.6208L12.4323 18.0324L10.7504 27.0353L8.99996 34.8614C8.96771 35.0037 8.90635 35.1626 8.89561 35.3063L10.9283 36.1267L12.1 36.5672L12.8285 34.0522C13.3502 32.3092 14.2538 29.7803 15.3577 28.2821C15.4021 28.2218 15.4087 28.1742 15.4197 28.1017L15.5934 26.4824C15.6414 26.0092 15.7096 25.5306 15.7276 25.0548L15.6445 21.7447L15.4932 20.2853L14.3757 12.5741C14.3052 12.1642 14.2557 11.7429 14.1496 11.3412ZM39.7507 36.7853L36.5267 38.1161C36.5962 38.3792 36.7262 38.8089 36.9642 38.9649C37.3763 39.0938 39.5705 38.1065 39.9469 37.9082L40.1305 37.8063C40.0262 37.4794 39.9611 37.0795 39.8073 36.7767L39.7507 36.7853ZM8.47969 36.7849L8.20618 37.8351C8.65069 38.0894 10.5033 38.8495 11.0398 38.974C11.1282 38.9324 11.2103 38.8936 11.2888 38.8344C11.5195 38.5821 11.6242 38.3163 11.687 37.9841L9.81436 37.3103C9.3706 37.1531 8.89852 37.0017 8.47969 36.7849Z" fill="black"/>
<path d="M24.8716 18.717C24.563 18.7498 23.3328 18.7998 23.0681 18.6969C22.3265 18.4088 22.4387 17.5566 23.1097 17.279C23.4151 17.2519 24.7426 17.208 24.9733 17.3255L25.0398 17.3602C25.3456 17.5178 25.5581 17.9825 25.3737 18.3046L25.3591 18.3283C25.2397 18.5262 25.0813 18.6308 24.8716 18.717Z" fill="black"/>
</svg>
