<svg width="48" height="48" viewBox="0 0 48 48" fill="none" xmlns="http://www.w3.org/2000/svg">
<path d="M12.7562 43.1296C12.2704 43.03 11.4422 43.0092 11.3629 42.3706L11.3595 42.3402C11.3256 42.0783 11.365 41.7843 11.4017 41.5236L12.6569 30.4538L12.692 29.2408C12.7148 28.5104 12.7542 27.7231 12.5957 27.0057C12.1378 27.7291 11.5395 28.2591 10.626 28.1346L10.5823 28.1283C9.45212 27.9787 8.60589 26.5578 7.84028 25.8129C6.93958 24.9364 5.76461 24.2919 5.33655 23.043L5.30959 22.9642C4.93005 21.7705 5.57373 20.7883 6.10253 19.7748C6.49248 19.0275 6.87616 18.2414 7.14484 17.4426L7.92901 14.7895C8.15983 13.8423 8.23914 12.8153 8.68637 11.9358C9.35912 10.6127 10.558 9.72283 11.9996 9.391C12.7165 9.226 13.3404 9.20402 14.1016 8.96772L17.4398 7.82247C18.7239 7.37941 19.0319 7.34369 19.0863 8.83558C19.0977 9.148 19.141 9.57133 19.2364 9.87241L19.6058 11.0145C20.0742 12.1918 20.8562 13.3518 21.9632 14.007C25.1349 15.8842 28.2694 12.8245 28.7752 9.73971L28.8717 9.08247C28.9363 8.43058 28.792 7.7208 29.5814 7.52744C29.9779 7.49814 30.398 7.79041 30.7653 7.91838L34.3948 9.079C34.9572 9.23486 35.5283 9.28024 36.0939 9.40628C37.584 9.73839 38.9402 10.8212 39.4695 12.2699L39.6452 12.8707C39.7105 13.2486 39.8194 13.6225 39.9011 13.9971L40.0396 14.6454C40.1326 15.0028 40.2039 15.3828 40.3262 15.7304L40.7948 17.2401L42.6563 21.3402C42.6992 21.4586 42.7222 21.5755 42.7584 21.6937C43.203 23.1461 41.8663 24.436 40.8572 25.2342L39.9335 26.0304C39.621 26.3266 39.3339 26.6484 39.0517 26.9732C38.166 27.9925 37.0188 28.8256 35.8195 27.5131C35.668 27.3474 35.5157 27.1451 35.3931 26.9563C34.9843 28.3383 35.5164 32.1903 35.6677 33.7021L36.5592 41.347C36.5923 41.664 36.7799 42.2885 36.6008 42.5794L36.5815 42.609C36.387 42.9295 36.0183 42.9917 35.6755 43.0637L30.7977 43.9782L28.9456 44.2197L25.6076 44.4125L22.6335 44.4066L20.5615 44.3126C18.574 44.1721 16.5634 43.89 14.6034 43.5317L12.7562 43.1296ZM30.2498 9.17763C30.13 9.6528 30.0994 10.1426 29.9612 10.6188C29.5288 12.1087 28.7949 13.4943 27.6145 14.5263C23.6472 17.9949 18.9349 14.8163 17.9082 10.1019C17.8444 9.8088 17.8232 9.49661 17.7456 9.20913L17.2013 9.38135L17.2278 10.2657C17.2369 10.6938 17.2566 11.2376 17.3796 11.6515L17.6761 12.9393L18.2372 14.7191C18.5992 15.6506 18.9955 16.5415 19.6122 17.3354C20.4513 18.4155 22.0483 19.2656 23.2431 18.1996C24.0783 17.4543 24.0142 17.5112 24.7926 18.2054C25.3803 18.7296 26.2686 18.7897 26.9766 18.5052C28.8769 17.7415 30.0895 14.2697 30.462 12.4397L30.6308 11.4146C30.6679 11.2382 30.6677 11.0452 30.6826 10.8653L30.7675 9.35585L30.2498 9.17763ZM32.1186 9.83589C32.0785 12.4185 31.3569 15.133 30.0202 17.351C29.1264 18.8339 27.9291 20.07 26.0402 20.0391C25.4837 20.03 24.8749 19.8555 24.3924 19.578L24.0987 19.3953C24.0055 19.3352 24.0329 19.3334 23.9387 19.3957C22.8404 20.122 21.4588 20.2593 20.2632 19.6584C17.6372 18.3384 16.3859 14.1194 15.9724 11.4127C15.8935 10.8961 15.8893 10.3694 15.8384 9.85057L13.6338 10.5095C13.1078 10.6393 12.562 10.6621 12.041 10.7956C10.5523 11.1768 9.75737 12.4463 9.49 13.8975L8.48008 17.7782L10.2548 19.6504C11.0139 20.4863 11.7644 21.3026 12.3925 22.2464C13.3861 23.7393 13.9244 25.6411 14.0407 27.4339L14.0442 29.8082L13.8338 32.3802L13.1567 38.5866C13.565 38.7049 13.9749 38.7707 14.3915 38.848L17.0628 39.3743L20.2506 39.7467C21.4635 39.8431 22.6869 39.8216 23.9027 39.8214L28.0595 39.7496C30.0685 39.6197 32.8586 39.146 34.8367 38.5876L34.0216 30.7855C34.0077 30.5748 33.9643 30.3667 33.9531 30.1564L33.9387 28.6216C33.9385 26.0729 34.3373 23.84 35.9834 21.7563L39.5458 17.8223L38.7505 15.0663C38.3574 13.4845 38.3295 11.9715 36.7267 11.0886C36.0296 10.7046 35.3128 10.7299 34.5647 10.5568C33.9556 10.4158 32.7239 10.0696 32.1186 9.83589ZM7.92564 19.0991L7.25603 20.5133C6.82567 21.3754 6.11359 22.2312 6.91816 23.1449C7.26841 23.5427 7.70973 23.8669 8.10967 24.2129C8.4535 24.5103 8.77783 24.8455 9.09766 25.169L10.2875 26.4496C10.4235 26.5896 10.6934 26.854 10.913 26.7937L10.9339 26.7853C11.2683 26.6484 12.0118 25.5328 12.2946 25.221C11.235 22.3314 9.79108 21.3932 7.92564 19.0991ZM40.112 19.1839L40.0864 19.2183C39.8142 19.5751 39.4574 19.9 39.1506 20.2303L37.8018 21.7377C37.045 22.5967 35.9391 24.004 35.6905 25.1654C35.876 25.436 36.8437 26.6762 37.0812 26.7974C37.4778 26.8538 37.8508 26.259 38.0798 26.0095L40.3198 23.8889C41.4386 22.9331 41.7885 22.4955 40.9994 21.0183L40.3046 19.5666C40.2617 19.4636 40.2151 19.2424 40.112 19.1839ZM12.9959 39.9338C12.8681 40.4303 12.8004 41.2174 12.7723 41.7229L16.3093 42.4076C17.775 42.6423 19.2599 42.8387 20.7425 42.9383L22.6952 43.0331L25.494 43.0419C25.8037 43.0324 26.1109 42.9788 26.4209 42.9648L27.5819 42.9408C27.7508 42.9321 27.9135 42.9024 28.0802 42.8893L31.3479 42.4929L35.0739 41.7705L35.2833 41.731L35.0497 39.9742C32.3672 40.5718 29.6841 41.1043 26.9301 41.2186L21.3369 41.2174L16.6644 40.6945L14.2795 40.2302C13.8501 40.1368 13.4152 40.0708 12.9959 39.9338Z" fill="black"/>
</svg>
