<svg width="48" height="48" viewBox="0 0 48 48" fill="none" xmlns="http://www.w3.org/2000/svg">
<path d="M16.2366 39.9725C15.3665 39.6897 12.6284 38.4338 12.4291 37.4743C12.3876 37.2746 12.6572 36.6444 12.7335 36.4311L13.2778 34.8682C13.7411 33.4761 14.1832 32.0584 14.4983 30.6244L14.745 29.2737C14.8782 28.4932 15.0645 27.6426 14.8944 26.8539L14.6149 25.288C14.4439 25.7208 14.3225 26.1705 14.1785 26.6126L12.8897 31.0882L11.7992 34.5864C11.5175 35.3786 9.5748 40.2414 8.72187 40.408L8.69576 40.4127C8.30463 40.49 7.95869 40.3392 7.59419 40.2195L4.25453 39.2684C3.52902 39.0688 1.92282 38.7722 2.40376 37.5939C2.53029 37.2839 2.84463 36.975 3.05563 36.7146L3.5702 36.0207C4.08191 35.2706 4.52263 34.4924 4.88801 33.6605L5.50905 32.049L6.60729 28.4181L8.44066 20.8226L10.2911 11.8988C10.318 11.6951 10.3189 11.4795 10.3677 11.2803C10.8199 9.43353 12.1948 8.97196 13.7986 8.61833L15.5372 8.213C15.9416 8.10172 16.3391 7.9805 16.7315 7.83186C17.9641 7.36499 17.8444 7.34577 18.8044 8.16257C20.371 9.49527 21.9311 9.76658 23.977 9.77024C26.1173 9.77408 27.5044 9.40654 29.2801 8.08363C29.5736 7.86496 29.7169 7.59847 30.0915 7.50364C30.4315 7.49488 30.5927 7.56688 30.8986 7.71125C31.5632 8.02499 33.043 8.53761 33.8047 8.62822C34.0083 8.65246 34.2144 8.6451 34.4184 8.67097C36.0594 8.87919 37.5493 9.85344 37.6782 11.6598C37.7 11.9648 37.7859 12.2831 37.8406 12.585L38.541 16.0485C38.6119 16.3688 38.6745 16.6881 38.7543 17.0069L39.6514 21.1952C39.7326 21.6261 39.869 22.0518 39.942 22.4863L40.4896 24.9573C40.522 25.1997 40.6299 25.4405 40.673 25.6808C40.7538 26.1306 40.9442 26.8602 41.0772 27.2789L41.8274 29.958L43.1378 33.6213C43.6325 34.8372 44.3281 35.9285 45.1327 36.9573C45.4619 37.3782 45.8197 37.872 45.5647 38.4261L45.5286 38.5036C45.2468 38.997 44.2179 39.1698 43.7223 39.2927L40.6438 40.1334C39.8463 40.3817 39.3152 40.7659 38.7595 39.9432L38.2871 39.1684C37.5008 37.8095 36.8467 36.3382 36.3195 34.8598L35.5424 32.5225L33.8601 26.733C33.6899 26.2461 33.5033 25.7668 33.3831 25.2642L33.129 26.7093C32.8255 27.9344 33.6438 31.3682 34.0467 32.5505L34.1161 32.7893C34.2655 33.4695 34.7185 34.8614 34.9865 35.5147L35.4731 36.9487C35.5266 37.1213 35.5944 37.4292 35.5028 37.5931L35.4887 37.6175C34.7067 39.0495 31.4279 40.1829 29.9557 40.3828C29.0567 40.5049 28.1692 40.4815 27.264 40.4818L20.6868 40.4818C19.1078 40.4815 17.7799 40.4647 16.2366 39.9725ZM16.9798 9.34011L16.9618 9.34808C16.674 9.47366 16.3492 9.55785 16.0472 9.64461L14.5434 10.0302C13.3909 10.273 12.3236 10.3575 11.7973 11.5818C11.7682 11.6496 11.7978 11.7188 11.8112 11.7893L13.4154 18.6331C13.5656 19.4743 13.894 20.2677 14.3905 20.966C15.2114 22.1209 15.6924 22.8925 15.9462 24.3802L16.1746 25.4065C16.6573 27.5349 16.3406 29.3982 15.8119 31.4716L15.4777 32.678C15.234 33.6594 14.9354 34.6518 14.5946 35.6047L14.1003 36.9877C13.9816 37.2918 15.379 37.9968 15.6567 38.1316C16.6506 38.6143 18.0546 38.9442 19.1786 39.0044L27.6815 39.0114C28.1111 39.0113 28.5996 39.057 29.0202 38.9836L30.2557 38.7902C31.6424 38.5112 32.8484 37.9328 33.9765 37.0881L33.019 34.3506C32.4848 32.6704 31.5257 29.3549 31.5425 27.5569C31.5568 26.0346 32.2205 22.8247 33.0942 21.6214L33.7 20.8536C34.1656 20.2042 34.3942 19.509 34.578 18.7408L35.8202 13.5136C36.0898 12.3411 36.6703 11.1742 35.2822 10.4612C34.673 10.1482 33.9844 10.2294 33.3294 10.0938C32.5362 9.92961 31.7345 9.68197 30.9806 9.38689C30.9342 9.46616 30.9206 9.58794 30.9052 9.6793L30.813 10.2097C30.1652 13.2317 28.2934 17.0028 25.0825 17.8358L24.6669 17.9304C24.4564 17.9852 24.2427 17.9825 24.0268 17.9819C20.4078 17.9733 18.0157 13.8028 17.2531 10.6761L16.9798 9.34011ZM29.2998 9.94949C27.7856 10.8921 25.7849 11.3377 23.9955 11.312C22.1014 11.2848 20.2854 11.0209 18.6637 9.97307C18.694 10.2748 18.7796 10.5621 18.852 10.8555L19.4279 12.4339C19.6027 12.8704 19.8739 13.3632 20.1381 13.7553C23.5876 19.0183 27.5729 15.6718 29.0404 11.1583C29.158 10.7967 29.2944 10.3971 29.3449 10.0198L29.2998 9.94949ZM11.0959 15.3636L10.1912 19.8753L9.0356 24.9794L7.43946 30.8758C6.8208 32.8835 6.12162 34.8628 4.96385 36.6326C4.72732 36.9941 4.40989 37.3291 4.19951 37.702L7.24127 38.5127L8.18627 38.7845C10.6492 34.8023 11.3304 30.5308 12.7431 26.1534L13.7055 23.3623C13.7568 23.2099 13.8716 22.9449 13.8633 22.7881C12.4622 20.6957 12.3837 20.64 11.7918 18.2003L11.1527 15.5821C11.1363 15.519 11.1288 15.4174 11.0959 15.3636ZM36.8774 15.4339L36.8748 15.4573C36.8367 15.7672 36.7366 16.092 36.6579 16.3948L36.0502 18.9499C35.7443 20.2597 35.2995 21.2294 34.4811 22.2936L34.1829 22.6848C34.0625 22.8439 34.1067 22.8769 34.1737 23.0628L35.2065 26.0393L36.478 30.3855L37.979 34.9913L38.5601 36.3964C38.9048 37.1965 39.3197 38.0896 39.8467 38.7922L40.7569 38.504L43.8159 37.6923C41.0045 33.9866 39.8303 28.6228 38.8012 24.1723L37.242 17.0393C37.1938 16.815 36.9672 15.5251 36.8774 15.4339Z" fill="black"/>
</svg>
