<svg width="48" height="48" viewBox="0 0 48 48" fill="none" xmlns="http://www.w3.org/2000/svg">
<path d="M13.4405 45.3285L13.4125 45.3201C12.043 44.847 10.4795 43.6006 9.5574 42.5406C9.21986 42.1526 8.99791 41.9245 9.11692 41.3864C9.29069 40.6007 9.57728 39.8259 9.82056 39.0592L11.5082 33.4974C11.6762 32.9412 11.7908 32.351 12.0261 31.8197C11.597 31.78 11.1493 31.8036 10.7177 31.8034L7.90497 31.815C7.50958 31.8377 7.23259 31.7611 7.01298 31.3899L6.99648 31.3615C6.86317 31.141 6.92762 30.8692 6.92809 30.6243L7.04209 25.8242L7.14503 22.9274L7.8063 14.836L8.89741 7.73804C9.25801 6.07497 9.67455 4.11042 11.5066 3.48136L15.4103 2.25762C16.1334 2.03159 17.3704 0.829681 17.8239 2.08122C18.728 4.57634 21.2338 6.27986 23.8921 6.2829C24.1069 6.28314 24.3336 6.29593 24.5456 6.25726L25.1584 6.18789C27.2423 5.91803 29.263 4.26234 30.0652 2.35894C30.2444 1.93392 30.3622 1.57298 30.8868 1.50781C31.3243 1.53379 31.5089 1.77365 31.875 1.96422C31.9577 2.0073 32.448 2.17995 32.5921 2.23298L35.5785 3.18382C36.1589 3.37277 36.7526 3.5214 37.2591 3.87853C38.3976 4.68136 38.4314 5.57111 38.8297 6.67759C39.1637 7.60534 39.3931 9.39315 39.5631 10.3829L40.1372 14.7211L40.5467 18.7325L40.8522 22.9959L41.0531 26.848L41.0671 30.7402C41.0679 31.5708 40.9325 31.8042 39.9886 31.8033L36.0169 31.8047L36.32 32.828C36.374 33.019 36.4147 33.2309 36.4845 33.415L38.862 41.4258C38.8955 41.5649 38.9389 41.7735 38.8974 41.9132L38.8669 41.9868C38.7464 42.2764 38.4688 42.5326 38.2525 42.7552C35.7941 45.2855 33.2383 46.0151 29.8949 46.31L26.732 46.4792L21.0394 46.4788L18.6125 46.3215C16.8469 46.1892 15.0947 45.9992 13.4405 45.3285ZM32.545 3.63373C32.4318 3.72163 32.3354 3.79919 32.2499 3.91579C32.2827 4.57001 32.1454 5.13897 31.9854 5.76568C31.1955 8.85915 29.0425 11.6007 25.8871 12.4714C21.1109 13.7895 16.9457 9.95106 15.9383 5.44928C15.8528 5.06715 15.7644 4.6814 15.7513 4.28882C15.7327 3.73286 15.8496 3.52172 15.223 3.79488C15.0873 3.85404 14.9304 3.90237 14.7885 3.94713L12.955 4.52466C11.3302 5.03973 11.0265 5.12715 10.5316 6.91811C10.3025 7.74714 10.1392 8.57978 9.98865 9.42653L9.46436 12.6834L8.71117 20.1867C8.68122 20.631 8.65276 21.0904 8.6252 21.5358L8.41558 26.2826C8.4025 26.5315 8.34484 26.7722 8.33345 27.0235L8.31705 30.13C8.31517 30.1952 8.29516 30.2939 8.31826 30.3531L12.0079 30.3754C12.2308 30.0335 12.4472 28.6453 12.5288 28.2137L13.7572 20.4834C13.8342 20.0207 13.839 19.3486 14.4204 19.2286C15.2772 19.0517 15.3006 20.4527 15.4231 21.0469L16.0434 24.5895C16.1113 24.9499 16.3176 25.7173 16.2476 26.0743L16.2419 26.1052C16.2122 26.2413 16.1116 26.3559 16.0429 26.4745L14.4594 29.1415C14.1099 29.7776 13.8385 30.466 13.6149 31.1553C13.5365 31.3971 13.6095 31.8511 13.4535 32.0201C13.3828 32.0968 13.3466 32.2338 13.3142 32.3321L10.8911 40.3388C10.83 40.553 10.7295 40.7736 10.6865 40.9909L10.5361 41.451C11.8211 43.1263 14.1147 44.3494 16.2204 44.6296L19.994 44.9831C20.4148 45.0516 20.8827 45.0139 21.3092 45.0146L27.8207 45.0074C28.0501 44.9983 28.2685 44.9427 28.4967 44.9313L29.4785 44.9044C32.7281 44.7135 35.182 43.9337 37.4644 41.5092L34.5636 31.8953C34.4049 31.3462 34.2998 30.7939 34.079 30.2635C33.6398 29.2081 32.9741 28.2384 32.3848 27.2623L32.0804 26.7484C31.9529 26.5443 31.8133 26.338 31.7339 26.1094L31.7247 26.0836C31.6938 25.9874 31.7141 25.8429 31.7277 25.7437L32.7085 20.3197C32.7925 19.9025 32.7858 19.3685 33.3007 19.2463L33.3829 19.2314C33.4604 19.2188 33.5213 19.2227 33.598 19.2347L33.6418 19.241C33.7621 19.263 33.8798 19.3504 33.9496 19.446L33.9706 19.4742C34.0141 19.534 34.0372 19.5821 34.0585 19.6524L34.0697 19.6889C34.2012 20.1499 34.237 20.6527 34.3259 21.1246L35.2465 26.9834C35.257 27.0647 35.2847 27.1421 35.2984 27.2227L35.4897 28.3479C35.5431 28.6709 35.7768 30.1847 36.0299 30.3615C36.0435 30.371 39.4757 30.4055 39.7017 30.3653L39.673 27.8035L39.4579 23.2204C39.4479 23.0759 39.4192 22.9345 39.4108 22.7894L39.0883 17.7876L38.0004 9.49182L37.5378 7.309C37.1964 5.93373 37.0573 5.13676 35.6389 4.67482L33.2379 3.93655C33.0168 3.85781 32.732 3.77603 32.545 3.63373ZM30.8306 3.87897C30.5743 4.28575 30.3269 4.69497 30.0153 5.06345C26.6372 9.05865 19.8345 8.42879 17.1577 3.90533C17.1498 4.61982 17.3093 5.4265 17.5797 6.09381L17.9007 6.90133L18.0963 7.31059C18.2265 7.64275 18.4581 7.9982 18.6647 8.28953C22.1057 13.1402 28.158 11.7409 30.2775 6.54957C30.4793 6.05509 30.9893 4.43176 30.86 3.87914L30.8306 3.87897ZM14.566 24.1733L14.2108 26.4776C14.1884 26.647 14.1225 26.8656 14.1379 27.0341L14.2747 26.764C14.4445 26.4263 14.8748 25.8839 14.8267 25.5891L14.566 24.1733ZM33.4352 24.1417L33.2208 25.3855C33.1317 25.9183 33.3843 26.2434 33.6845 26.6948L33.7261 26.7563C33.7692 26.8225 33.8095 26.8993 33.8698 26.9503L33.4352 24.1417Z" fill="black"/>
</svg>
