<svg width="48" height="48" viewBox="0 0 48 48" fill="none" xmlns="http://www.w3.org/2000/svg">
<path d="M30.8755 43.3069L27.9491 43.6205C27.7328 43.635 27.5188 43.6725 27.3021 43.6817L21.0524 43.6804C20.8189 43.6721 20.5883 43.6307 20.3555 43.6141L17.7857 43.3875C16.543 43.239 15.2875 43.0018 14.08 42.6719L11.5772 41.8574C10.545 41.4859 10.6695 41.0765 10.7768 40.0877L11.0648 37.7191L9.57418 37.5484C8.32806 37.3597 5.74867 36.7427 4.63937 36.0454C3.74837 35.4852 3.74761 34.6962 3.84271 33.7971L5.58695 22.9735L6.92073 16.5354C7.05723 15.7377 7.09923 14.9299 7.14751 14.1237L7.24468 12.6178C7.40139 10.6457 8.28901 8.68017 10.0744 7.665C10.302 7.53558 10.565 7.48401 10.8027 7.37695C11.9126 6.87707 13.0224 6.51989 14.1002 6.03745L17.0425 4.61628C17.2358 4.52637 17.4087 4.39904 17.6074 4.31848L17.6429 4.30446C17.762 4.25645 17.8622 4.23938 17.9884 4.22818C18.1473 4.2151 18.3077 4.22819 18.4539 4.29451L18.4922 4.31274C18.687 4.40375 18.8207 4.59194 19.0015 4.7055C19.6104 5.08767 20.6586 5.2394 21.3509 5.33058L21.9476 5.3819C22.0913 5.39822 22.2278 5.43787 22.3737 5.44556L25.9774 5.45193C26.9934 5.44387 28.2571 5.1975 29.0976 4.63226C29.2648 4.51984 29.4269 4.37109 29.6146 4.2948L29.6465 4.28247C29.8062 4.21831 30.0871 4.21402 30.2498 4.27565L30.2812 4.2883C30.677 4.4329 31.3579 4.89229 31.8575 5.11115L37.7273 7.57818C37.9771 7.68712 38.2474 7.77478 38.4744 7.92829C40.0608 9.00079 40.6864 10.9931 40.9216 12.8088L41.532 19.1505C41.703 20.3669 41.957 21.8773 42.2814 23.0745L42.736 24.9308C42.7711 25.0989 42.833 25.2718 42.8789 25.4386L43.2539 26.9782C43.7454 29.0594 44.0455 31.7618 44.1564 33.8754C44.2268 35.2147 44.3912 35.7667 42.9784 36.2579L42.3311 36.4773C41.3967 36.7708 40.4277 36.9908 39.4687 37.1904L36.7918 37.6918L37.1996 40.6068C37.2231 40.7512 37.2478 41.0392 37.1998 41.1763L37.1894 41.2034C37.0133 41.671 36.7087 41.7057 36.2904 41.8665C35.0773 42.3332 33.7994 42.7003 32.534 42.9943L30.8755 43.3069ZM30.1614 6.03539C29.9771 6.61373 29.7728 7.15331 29.4664 7.68084C27.0104 11.9092 21.1891 11.6535 18.714 7.64264L18.1495 6.687C18.0325 6.47559 17.9297 6.24454 17.7942 6.04542C17.528 6.20831 17.2146 6.37636 17.1035 6.67992L17.0917 6.70884C16.8822 7.24762 17.4779 7.97179 17.8488 8.27808C18.1067 8.49075 18.4069 8.64234 18.6858 8.82445C19.7552 9.52265 20.4809 10.3679 21.181 11.426C21.4003 11.7574 21.5803 12.1678 21.9609 12.3327L21.9893 12.3459C22.3486 12.5019 23.7643 12.0847 24.5651 12.2427L25.0007 12.3263C26.5007 12.6826 26.1557 12.9229 26.8184 11.793C27.541 10.5605 28.5288 9.66464 29.7563 8.93714C30.0723 8.74983 30.517 8.58529 30.7674 8.3219C31.4214 7.63368 31.1495 6.2849 30.1851 6.03942L30.1614 6.03539ZM19.9119 6.64476L19.9291 6.66576C20.0556 6.82233 20.1785 6.99436 20.2992 7.15603C21.9496 9.36717 25.3288 9.98887 27.3157 7.94817C27.6829 7.54617 27.9861 7.15509 28.2422 6.67031C27.3703 6.90483 26.5494 7.02642 25.6521 7.02914L22.8419 7.03008C21.908 7.02004 20.8616 6.91223 19.9697 6.6494C19.9335 6.63876 19.9483 6.64064 19.9119 6.64476ZM15.5169 7.09008L15.4823 7.11562C15.2462 7.28329 14.875 7.40067 14.6024 7.51125L12.7265 8.25136C12.3519 8.39076 11.9607 8.50101 11.5993 8.67328C11.6499 8.81011 11.704 8.94159 11.7424 9.08226L11.8512 9.51131C11.939 9.87093 11.9498 10.2627 12.0002 10.6291L12.4804 13.9777L13.5527 19.422C13.7894 20.9211 13.9834 22.4466 14.0734 23.9625L14.0976 28.1703C14.0951 28.4549 14.1098 28.7452 14.0941 29.0289L13.9227 31.0549C13.8098 32.2711 13.5021 33.4464 13.2263 34.6323L12.9707 35.8713C12.8627 36.3642 12.7477 36.8755 12.7077 37.3788C13.9642 37.7034 15.2201 38.0476 16.5054 38.2412L19.644 38.6206L23.6525 38.7856L25.9623 38.782C26.1157 38.777 26.2668 38.7486 26.4198 38.7418L27.6614 38.7217C30.1681 38.5586 32.7549 38.1125 35.0656 37.1033L35.0549 37.0677C34.9491 36.7059 34.9186 36.3229 34.8566 35.9528L34.5851 34.2835C34.2339 32.1472 33.9335 30.0045 33.7738 27.8448L33.6926 26.1177L33.6926 22.5245C33.6985 22.397 33.7231 22.2738 33.7312 22.1472L34.0611 18.6916L34.2156 17.801C34.6216 15.3129 35.3469 12.8242 36.2695 10.4799L36.6887 9.49903C36.7679 9.32901 36.909 9.123 36.9527 8.94426L33.1836 7.40072C33.0299 7.33429 32.8585 7.23403 32.697 7.19508C32.5628 9.17906 32.026 9.37378 30.5999 10.2275C29.8901 10.6524 29.0785 11.2614 28.5754 11.9327C27.9501 12.767 27.725 13.8791 26.5317 14.0979C25.7361 14.2438 24.9749 13.8499 24.1875 13.7831C22.2404 13.6179 21.3758 14.7682 20.0911 12.5988L19.691 11.9802C19.1907 11.2542 18.555 10.6239 17.8227 10.1334C17.5537 9.9532 17.2605 9.80733 16.9989 9.6165C16.2608 9.0779 15.5602 8.04539 15.5335 7.10179L15.5169 7.09008ZM10.2262 9.41039C9.64267 10.0774 9.04492 10.86 8.88343 11.7541L8.73971 12.9129C8.70906 13.1302 8.71815 13.3599 8.71403 13.5793L8.29651 17.4579L7.22148 22.5823L6.48423 26.4963L5.40864 33.6565C5.26871 34.699 5.11103 34.6355 6.1704 35.0414L7.59371 35.5303C7.80545 35.5926 8.02914 35.6328 8.23693 35.7049L9.52993 35.9864C10.0829 36.0886 10.7976 36.2064 11.3618 36.1897L12.0004 33.1409C12.1572 32.4616 12.2799 31.7674 12.3662 31.0758L12.5711 28.5858L12.5686 24.3158L12.1809 20.4612L10.9927 14.2502L10.6303 11.6287C10.5402 10.898 10.4573 10.1364 10.2532 9.42698L10.2262 9.41039ZM38.2547 9.78539C37.9744 10.3394 37.7553 10.9249 37.5392 11.5063L36.7581 13.7754C36.338 15.1325 35.9722 16.5338 35.7281 17.9346L35.291 21.515C35.2805 21.6447 35.2552 21.7725 35.2479 21.9026L35.2382 26.7901C35.2488 27.0271 35.2981 27.2581 35.3159 27.4924L35.4377 29.3791L36.366 35.7439C36.3886 35.866 36.4026 36.0382 36.451 36.1499L39.1567 35.6306L41.9062 34.9927C42.1472 34.9252 42.4632 34.8775 42.6786 34.7576C42.6487 32.396 42.161 29.1822 41.6469 26.8948L40.8117 23.5547L40.0698 19.8217C39.8061 18.284 39.7081 16.7177 39.5878 15.1643C39.4517 13.4063 39.405 11.2481 38.2808 9.79031L38.2547 9.78539ZM35.3713 38.7073L34.3344 39.0395C33.2659 39.3607 32.1875 39.6733 31.0898 39.8804L29.0504 40.1913L27.052 40.3374L22.4012 40.3406L19.4531 40.1742L16.3954 39.8155L12.4271 38.9379L12.2644 40.4144L12.7212 40.6003C15.1281 41.4795 18.114 41.9483 20.6836 42.1024L22.1836 42.127C22.369 42.1334 22.5548 42.1704 22.7423 42.1767L26.2864 42.1326C26.8059 42.1045 27.3395 42.1413 27.8554 42.0798L29.6836 41.8995L32.8242 41.3206L33.8948 41.0236C34.4799 40.858 35.0762 40.6867 35.6301 40.4331L35.3713 38.7073Z" fill="black"/>
</svg>
