<svg width="48" height="48" viewBox="0 0 48 48" fill="none" xmlns="http://www.w3.org/2000/svg">
<path d="M24.3902 46.9243L22.8281 46.9459L20.7677 47.1381C20.6067 47.1535 20.4268 47.1531 20.2698 47.1878L20.201 47.2037C19.824 47.2646 19.4149 47.245 19.033 47.2454C16.1752 47.2473 13.2939 46.0824 10.9804 44.4366L9.80777 43.4513C9.08323 42.7261 9.39682 41.8588 9.61498 40.9843L11.492 33.5938L12.1829 28.7696C12.4363 26.8023 12.8288 24.9332 13.6584 23.1209C13.9056 22.5809 14.2073 22.0606 14.3927 21.4945C14.9196 19.885 14.7865 18.0924 14.4812 16.4522C14.4181 16.1135 14.3775 16.2936 14.0824 16.1494C13.8947 16.0576 13.7223 15.9329 13.5427 15.8266L11.1186 14.4688C10.4935 14.0927 10.7432 13.1459 10.7846 12.547L11.0891 7.99033C11.2799 6.18555 11.8904 4.71719 13.3547 3.62601L13.7578 3.35163C14.0944 3.10154 14.2322 2.98868 14.6358 2.86155L17.648 1.97583C18.2175 1.80927 18.7206 1.48332 19.2743 1.27745C20.6577 0.763084 22.3672 0.559515 23.8265 0.559782C25.5474 0.540198 27.281 0.761002 28.9079 1.3473C29.4658 1.54836 29.9674 1.86188 30.543 2.03146L32.2922 2.51676C33.4271 2.82083 33.6812 2.81577 34.5757 3.5504C35.3479 4.18454 36.0341 4.80189 36.3878 5.77947L36.7572 7.09333C36.9776 7.87937 36.9382 8.91231 37.0023 9.72812L37.3544 13.2306C37.4516 14.103 37.3617 14.2835 36.6372 14.6837L35.3029 15.3992C34.7748 15.6966 34.2098 16.1686 33.5868 16.2239L33.5163 16.3595C33.4716 16.5115 33.4583 16.6736 33.4361 16.8303L33.2785 18.1269C33.2076 19.1497 33.2367 20.163 33.467 21.1642L33.5617 21.4806C33.6914 21.9309 33.9374 22.333 34.1438 22.7506C35.1046 24.6943 35.544 26.743 35.8476 28.8829L36.1878 31.6173C36.3142 32.4341 36.4661 33.4736 36.6572 34.2775L37.083 36.1413C37.1304 36.3452 37.163 36.5614 37.2193 36.7618L37.4066 37.5118C37.5106 37.8711 37.5776 38.2579 37.7027 38.6097L37.8578 39.1869C38.0048 39.8984 38.3151 40.58 38.4266 41.298L38.6371 42.2514C38.9591 43.3673 37.3358 44.2517 36.5639 44.7463C34.7483 45.9097 32.5842 46.93 30.4184 47.1779C28.9266 47.349 27.4638 47.0678 25.9768 46.9525C25.4514 46.9117 24.9171 46.9248 24.3902 46.9243ZM23.5123 1.93634C21.5132 1.97269 20.3802 2.36483 18.615 3.05949L17.7441 3.3568C17.6821 3.48568 17.8726 4.22537 17.9179 4.36181L18.2809 5.37948C18.3843 5.67222 18.5642 5.9657 18.7356 6.22469C20.0105 8.14989 22.184 9.16051 24.4815 8.99697C27.8854 8.49039 29.6207 6.86655 30.2816 3.36401L28.5242 2.70813C26.8741 2.1496 25.2463 1.88885 23.5123 1.93634ZM16.3372 3.78526L15.0141 4.20219L15.5142 8.73414C15.6026 9.3932 15.6628 10.1065 15.8927 10.7345C16.0179 11.0766 16.1686 11.4062 16.2791 11.754C16.6319 12.8656 16.3778 14.389 15.5836 15.2756C15.7785 15.782 15.8833 16.3049 15.9492 16.8421L16.0206 17.5801C16.1503 19.2777 16.1756 20.8243 15.4877 22.4447L14.7658 24.0353C14.2792 25.2243 13.9614 26.435 13.7405 27.6954L13.174 31.7321L12.3822 36.0355L10.7277 42.3228C11.704 43.7318 15.4102 45.3502 16.9922 45.6568C18.0072 45.8536 18.9949 45.8696 20.0179 45.7945L22.6774 45.5522C23.6507 45.466 24.6367 45.4365 25.6122 45.5184C29.3302 45.8307 30.5673 46.2706 34.0547 44.5543C34.7317 44.221 36.8343 43.0641 37.2668 42.497L35.8197 36.7831C35.3877 35.1236 35.0562 33.4054 34.8124 31.7086C34.456 29.2281 34.2879 26.5657 33.2781 24.2377C32.9682 23.5232 32.578 22.8367 32.3196 22.1017C31.8236 20.6906 31.7975 19.1873 31.9453 17.7139L32.1708 16.0963C32.2038 15.9197 32.2473 15.7386 32.2992 15.5664C32.4619 15.0265 32.4133 15.3526 32.1177 14.7801C31.9029 14.364 31.7536 13.9682 31.6387 13.5154L31.6062 13.3101C31.4541 12.2111 31.8146 11.602 32.1336 10.5931C32.6885 8.8383 33.1723 6.12025 33.1901 4.24319C32.9216 4.13581 32.6547 4.02956 32.3756 3.95175L31.595 3.75955C31.453 4.32883 31.3452 4.90867 31.154 5.46451C30.2464 8.10283 27.8478 10.0074 25.0916 10.3202C24.9789 10.333 24.832 10.3277 24.729 10.3709L24.7262 18.6375C24.7262 18.9203 24.7547 19.2305 24.7244 19.5093C24.652 20.1766 23.5061 20.2727 23.3864 19.3829C23.3407 19.0431 23.364 18.6772 23.3636 18.3342V10.3698C20.123 10.0778 17.5127 8.04025 16.6471 4.82823C16.5552 4.48707 16.5122 4.11064 16.4018 3.77925L16.3372 3.78526ZM13.7136 5.09026C12.7608 6.16351 12.4409 7.38995 12.3683 8.8068L12.2317 11.6017L12.0648 13.3792L13.7298 14.3194C13.9063 14.4197 14.1355 14.5916 14.3236 14.6468C15.3189 13.3758 15.1609 12.6858 14.6638 11.3686C14.1993 10.1377 14.1102 8.77544 13.9723 7.47934L13.7136 5.09026ZM34.442 5.17262C34.3689 5.53206 34.3914 5.91287 34.3497 6.27709C34.1615 7.92156 33.9214 9.53355 33.4048 11.1105C32.8906 12.6802 32.6403 13.0717 33.674 14.6897L34.277 14.3647L35.8028 13.5402C35.8721 13.502 35.9558 13.4658 36.0113 13.4089L35.6705 10.293C35.6014 9.86495 35.6457 9.39587 35.629 8.96139C35.5725 7.49706 35.2909 6.40886 34.4465 5.17792L34.442 5.17262Z" fill="black"/>
</svg>
