<svg width="48" height="48" viewBox="0 0 48 48" fill="none" xmlns="http://www.w3.org/2000/svg">
<path d="M36.2447 38.8076L36.3763 40.43C36.4144 40.9337 36.5809 41.6477 35.9919 41.9172L35.965 41.929C35.7184 42.0381 35.4215 42.0547 35.1564 42.0952L33.9378 42.2933C31.2665 42.7445 29.0351 43.2193 26.3183 43.2253L21.1523 43.2253C20.434 43.2218 19.9395 43.1705 19.247 43.1094L12.9424 42.1197C12.4453 42.0345 11.8202 42.0601 11.6284 41.4829L11.6179 41.4495C11.5259 41.1725 11.5944 40.8263 11.6073 40.5376L12.2104 34.3633C11.8096 35.1757 11.2874 35.7372 10.4415 36.0804C9.12912 36.6128 8.22598 36.1084 7.00001 35.6935L6.10737 35.3936C5.62484 35.2344 4.93634 35.0214 5.10926 34.3414C5.24276 33.8164 5.47849 33.2995 5.67096 32.7926L7.81549 26.4823L10.5313 17.3405L10.9505 15.6244C11.4447 13.4835 12.5105 11.8242 14.4466 10.676C14.7112 10.5191 15.0179 10.3412 15.3083 10.2389L15.6845 10.0862C16.8121 9.66035 16.8023 9.14627 17.236 8.13077L18.327 5.6336C18.5528 5.14554 18.6182 4.79468 19.2033 4.66854C20.0268 4.59845 21.6233 6.00546 21.829 6.88094C22.0762 7.93282 21.8067 8.27885 21.3164 9.19938L20.5331 10.7009C20.3008 11.1386 19.9447 11.5378 20.2258 11.989L20.2478 12.0237C20.412 12.2984 20.6231 12.5787 20.8905 12.762C21.9744 13.5048 24.5907 13.4295 25.7934 13.2225C26.5404 13.0939 27.2674 12.76 27.7076 12.1182C27.9322 11.7909 28.0433 11.7536 27.8485 11.4332L26.6982 9.31165C26.4664 8.84894 26.2258 8.44629 26.1233 7.92996C25.8309 6.45649 27.4719 4.4626 29.0509 5.05948C29.542 5.2451 29.7059 5.60313 29.9164 6.0453L31.0302 8.75421C31.2147 9.17599 31.3309 9.65107 31.7856 9.85723L33.2282 10.4849C35.0241 11.4004 36.3072 13.0157 36.879 14.9404C37.1355 15.8038 37.2713 17.054 37.6092 17.8604C37.7745 18.255 37.8394 18.7059 37.9689 19.1136L38.239 20.0411C38.3779 20.5799 38.5865 21.1113 38.7013 21.6562L39.1226 23.0623C39.3132 23.5358 39.4068 24.0621 39.5773 24.5464L41.7016 31.0218C41.7281 31.1258 41.778 31.2221 41.8119 31.3245L42.8444 34.137C43.1549 34.8969 42.599 35.145 41.965 35.3675L40.9035 35.7292C40.3889 35.8997 39.871 36.1445 39.3425 36.2595C37.7825 36.5989 36.3797 35.6864 35.7551 34.2858L36.2447 38.8076ZM19.5558 6.22033L18.0794 9.62149C17.4413 11.1033 16.8442 11.0315 15.4706 11.6896C14.0693 12.3608 12.9711 13.6396 12.4709 15.1058C12.199 15.9028 12.1094 16.7618 11.8712 17.5713L10.8479 21.1995L8.66028 28.3033L6.75054 33.7516C6.70999 33.8607 6.62834 33.9854 6.63903 34.1044C6.91582 34.2331 7.22313 34.3077 7.51184 34.4086L8.43828 34.7418C9.92731 35.2715 10.7419 34.464 11.3557 33.142C12.4294 30.8293 12.9781 28.4201 13.3987 25.9105L13.6714 23.7439C13.7921 22.7337 13.8663 21.6915 13.7706 20.6757C13.7282 20.2248 13.4691 19.5473 13.9747 19.2559C14.4535 18.9798 14.8677 19.2898 15.0258 19.7698L15.0373 19.801C15.3591 20.8029 15.0462 23.7569 14.9115 24.8229L13.9704 31.2308L13.0274 39.4612L12.9829 40.4135C12.9487 40.8587 13.0111 40.7484 13.4415 40.8087L15.2723 41.097C16.6257 41.3155 17.9817 41.592 19.3472 41.721C20.8734 41.8652 22.4109 41.8302 23.9422 41.8299L27.2869 41.8221L28.7669 41.7103C29.9352 41.5996 31.0904 41.3582 32.2474 41.1759L34.5939 40.7874C34.7254 40.7664 34.8747 40.7612 35.0023 40.7254L35.043 40.7116C34.9262 38.6066 34.6037 36.5148 34.3427 34.4251L34.0114 31.2909L33.1265 25.368L32.8942 22.887C32.848 22.2362 32.7087 19.9492 33.1595 19.4257L33.2546 19.3342C33.3436 19.2851 33.4263 19.2351 33.5275 19.2168L33.564 19.21C33.8908 19.1555 34.1413 19.3274 34.2673 19.6175L34.2814 19.6492C34.3754 19.8805 34.2994 20.2485 34.252 20.487C34.0992 21.257 34.1656 23.1026 34.3412 23.9446L35.449 29.8648L35.8243 31.0823L36.6915 33.2332C36.9948 33.8842 37.3169 34.468 38.008 34.7648C38.8245 35.1154 39.427 34.7709 40.2071 34.5009L41.3894 34.0952L39.2868 28.1076L36.0715 17.4176L35.6134 15.4442C35.1446 13.766 33.9786 12.3108 32.3626 11.6133C30.6666 10.8811 30.4423 10.8281 29.7297 9.17782L28.7706 6.81607C28.6139 6.39579 28.4874 6.01807 27.9845 6.54663C27.7095 6.83566 27.3193 7.35823 27.4802 7.78221L27.5193 7.8753C27.694 8.28766 27.9114 8.68891 28.1246 9.08233L29.0574 10.848C29.4163 11.4516 29.4033 11.7176 29.1108 12.3863C28.536 13.7005 27.1863 14.4169 25.823 14.6172C25.6227 14.6466 25.3942 14.6391 25.203 14.7049L25.1967 14.7432C25.1657 14.9261 25.0898 15.0409 24.9826 15.1904C26.5886 16.2684 26.4685 17.8848 25.0417 19.1381C25.4409 19.5802 25.7862 19.7297 25.9913 20.3792L26.0044 20.4158C26.3157 21.3105 26.015 22.1829 25.3677 22.8208C25.1708 23.0149 24.8145 23.129 25.1701 23.3694C25.749 23.7604 26.1176 24.446 26.1254 25.1404C26.1551 27.7659 22.9092 28.202 22.1492 25.9456L22.0864 25.7132C21.8696 24.9069 22.3043 23.8178 23.0483 23.4089C23.5503 23.133 23.0015 23.0072 22.7308 22.7607C21.5582 21.6936 21.9011 19.9375 23.2177 19.1362C23.0734 19.0295 22.9092 18.9424 22.7717 18.8291C21.6901 17.9378 21.8054 15.9508 23.0743 15.282L23.2028 15.2234L22.8674 14.725C20.9695 14.5724 19.0727 13.7484 18.6873 11.6945C18.6229 11.3515 18.8122 11.1371 18.9516 10.8427L20.2028 8.39515C20.3819 8.05568 20.6309 7.77968 20.5428 7.37393C20.4418 6.90902 19.9184 6.49174 19.5558 6.22033ZM23.9341 16.3852C23.4071 16.5621 23.2417 17.1828 23.5311 17.6253L23.5455 17.6481C23.7012 17.8808 23.992 17.9382 24.247 17.9014C25.1118 17.5277 24.9511 16.3397 23.9341 16.3852ZM24.0467 20.3258C23.6969 20.3966 23.4722 20.6154 23.3894 20.9534L23.3802 20.989C23.2722 21.4193 23.6714 21.9011 24.108 21.8871C25.0451 21.7019 24.9852 20.3452 24.0467 20.3258ZM24.0416 24.4946C23.0162 24.7846 23.2786 25.9948 24.1707 26.026C24.6916 25.8783 24.8787 25.4967 24.759 24.9792L24.7536 24.9544C24.6834 24.668 24.3198 24.4762 24.0416 24.4946Z" fill="black"/>
</svg>
