<svg width="48" height="48" viewBox="0 0 48 48" fill="none" xmlns="http://www.w3.org/2000/svg">
<path d="M13.5268 36.2825L13.4178 36.3026C12.812 36.4139 12.4955 35.9855 12.4924 35.4354L12.4835 34.7587C12.4503 34.2319 12.2995 33.691 12.1656 33.1817C11.5379 33.0534 10.9995 32.593 10.8287 31.965C10.6842 31.4339 10.7872 30.8696 10.6658 30.339L10.5368 30.289C9.92783 30.0413 9.51631 29.578 9.26445 28.9733L6.6732 22.2471C6.38436 21.4896 6.02024 20.7846 6.01953 19.9594C6.01775 17.7788 8.00839 16.1393 10.1219 16.7258C10.365 16.7933 10.5955 16.901 10.8253 17.0033C10.9592 14.0817 12.9434 11.9455 15.9022 11.6574C16.013 11.6252 16.199 11.6494 16.3167 11.6488C18.8096 11.6374 20.9405 13.1994 21.8055 15.5229C22.066 16.2227 22.0591 16.9774 22.1392 17.7066L22.8891 27.0341C22.903 27.1873 22.9375 27.3371 22.9439 27.4916L22.9515 30.3684C22.9191 31.0498 22.6842 30.6575 22.944 31.4293L22.9696 31.5113C23.125 31.8833 23.2377 32.2625 23.3723 32.6408C23.8515 33.988 23.8443 34.3249 22.47 34.6303L15.623 35.9651L13.5268 36.2825ZM16.1732 12.8533C15.7574 12.8891 15.3422 12.9373 14.9412 13.0578C12.8113 13.6977 11.5575 15.9909 12.0836 18.1483L12.0934 18.1896C12.153 18.4198 12.3952 18.8938 12.5077 19.1514L14.1737 23.3233C14.4794 24.0298 13.574 24.5595 13.1934 23.9058C12.9545 23.4956 12.7942 22.9977 12.6114 22.5578L11.6628 20.2505C11.396 19.5571 11.227 18.6959 10.5818 18.24C10.1518 17.9361 9.5968 17.724 9.06331 17.8158C8.1838 17.9671 7.28652 18.6118 7.20725 19.5699L7.20378 19.6083C7.16652 20.0684 7.20781 20.3855 7.36147 20.8121L8.8078 24.5187L9.75936 26.9762C9.78711 27.0669 9.82855 27.1554 9.85967 27.2457L10.2676 28.3121C10.6255 29.1894 10.7155 29.2123 11.5779 29.0864L15.7381 28.4849L20.7102 27.6152C21.044 27.5519 21.4202 27.5329 21.7415 27.425C21.6759 26.9561 21.6836 26.4861 21.6482 26.0152L21.0213 18.3745C20.9688 17.5454 20.9504 16.6948 20.686 15.9C20.0561 14.0064 18.1453 12.7854 16.1732 12.8533ZM21.7603 28.6519L12.3809 30.1855C11.6635 30.3021 11.8376 30.1384 11.893 30.7979L11.9472 31.4337C11.9669 31.6428 11.9707 31.693 12.122 31.8518C12.7963 32.3301 14.6639 31.919 15.4269 31.8085L19.6081 31.0939L20.9225 30.7405C21.1828 30.6574 21.4575 30.5691 21.6985 30.4383L21.7865 30.3826C21.7612 29.9885 21.8423 28.9389 21.7782 28.6539L21.7603 28.6519ZM21.7809 31.6988C20.4306 32.1962 19.0143 32.4333 17.6014 32.6776L13.7952 33.2347C13.6592 33.2509 13.5045 33.2431 13.3734 33.2716C13.4716 33.7395 13.6037 34.2202 13.64 34.6988C13.6555 34.9027 13.5751 35.2191 13.9272 35.032L22.4339 33.4253L22.051 32.3791C21.979 32.1659 21.9407 31.9065 21.8318 31.711L21.7809 31.6988Z" fill="black"/>
<path d="M35.2104 36.1696L35.1645 36.196C34.8955 36.3513 34.6415 36.3055 34.3418 36.2787L31.3524 35.9613L29.9769 35.7176L25.184 34.5688C24.2723 34.2959 24.2409 33.9202 24.4994 33.0355C24.651 32.5166 24.8087 32.0024 25.0038 31.4977C25.1343 31.1605 25.2269 31.2045 25.123 30.8537C24.9626 30.3121 25.0252 29.7681 25.0313 29.2112L25.0443 27.4736C25.0527 27.3203 25.0823 27.1712 25.0967 27.0189L25.3377 23.5076L25.77 18.4275C25.823 17.6338 25.8286 16.8313 26.013 16.0532C26.5931 13.6043 28.7132 11.8927 31.2068 11.6577C31.5729 11.6364 31.9644 11.6264 32.3257 11.6917L32.7074 11.7446C35.0443 12.1753 36.9266 14.1315 37.1622 16.5045C37.1796 16.6793 37.183 16.8433 37.2146 17.0184C39.0434 16.0605 41.0883 16.9133 41.8147 18.8552C42.2757 20.0876 41.6914 21.2985 41.2538 22.4295L39.0956 27.9841C38.8168 28.7067 38.6225 29.5453 37.9391 30.0014L37.3542 30.3607C37.2895 30.3927 37.2904 30.5766 37.2877 30.6443C37.2424 31.7968 37.3356 32.9347 35.8442 33.1736C35.7191 33.7707 35.5742 34.3859 35.5197 34.9942C35.4758 35.4831 35.6037 35.7882 35.2104 36.1696ZM31.4704 12.8537C29.276 13.0267 27.6158 14.2397 27.1061 16.4883C27.0223 16.858 27.02 17.2596 26.9895 17.6365L26.4096 25.2595C26.3562 25.9839 26.2579 26.7072 26.2366 27.4339C26.5108 27.5149 26.8062 27.5476 27.0877 27.5974L36.4223 29.0896C37.5397 29.2784 37.4682 28.9431 37.8292 28.008L39.3285 24.1818L40.3274 21.6012C40.4911 21.1752 40.7033 20.7367 40.7744 20.283C41.1331 17.9958 37.9954 16.8092 36.8746 18.8537C36.7766 19.0325 36.7097 19.2369 36.6337 19.4261L35.1568 23.1209C35.0431 23.3809 34.9619 23.7034 34.8127 23.9412C34.4402 24.5348 33.5947 24.0696 33.797 23.4112C34.0213 22.681 34.3686 21.9601 34.6567 21.2513L35.6359 18.783C35.9506 18.0246 36.0013 18.0829 36.0025 17.1576C36.0059 14.6651 33.9711 12.7148 31.4704 12.8537ZM26.1836 28.6488L26.1597 30.3385C26.7732 30.9765 34.6658 32.5772 35.9551 31.8554C36.1458 31.7172 36.1373 30.6173 36.1935 30.268L26.1836 28.6488ZM26.2147 31.7288L25.5833 33.4479C26.4514 33.7539 27.3513 33.9641 28.2485 34.1624L30.2933 34.5923L34.0963 35.0774L34.3318 35.0872L34.6405 33.2281C33.1575 33.198 31.6463 32.9286 30.1906 32.6736L27.514 32.1159C27.0767 32.0035 26.6356 31.8941 26.2147 31.7288Z" fill="black"/>
</svg>
