<svg width="48" height="48" viewBox="0 0 48 48" fill="none" xmlns="http://www.w3.org/2000/svg">
<path d="M31.8335 33.5466L30.8923 33.3665C28.9631 32.8637 27.7672 31.1634 28.9068 29.2787C28.6308 28.8789 28.3659 28.5018 28.2541 28.0199C28.1589 27.6089 28.2264 27.1561 28.1128 26.755L28.1019 26.7191C27.8126 25.7385 26.6163 24.068 25.9276 23.2448L24.4974 21.6475C23.8171 20.8848 23.5091 20.6206 23.3214 19.5238C23.0352 17.8512 24.7606 16.2644 26.3353 16.4682L26.5662 16.4997C27.2914 16.5998 27.7584 17.0687 28.3477 17.4362C28.3698 17.2579 28.2827 17.0013 28.2537 16.8211C27.6704 13.1965 28.4982 10.0723 32.6105 9.78548C36.6512 9.69754 40.2312 12.1655 41.6377 15.9743L42.1964 17.6866C42.6047 18.9269 42.5343 21.2404 42.2704 22.5769C42.0114 23.8889 41.5341 25.1986 40.9021 26.3775L40.6359 26.8438C40.4332 27.1938 40.9592 27.7303 40.7002 28.6109L40.6081 28.8831C40.3972 29.3815 39.8672 30.0177 39.3414 30.2311L39.2939 30.2526C39.0786 30.387 39.1516 31.1546 39.03 31.5676C38.6087 32.9984 37.7319 33.3708 36.4287 33.5504C34.8687 33.7652 33.383 33.8085 31.8335 33.5466ZM32.8251 11.2361L32.5064 11.271C33.2096 12.0674 33.5596 12.804 33.8797 13.8297L33.9749 14.2055C34.0556 14.4998 34.0845 14.8148 34.1333 15.1151L34.2873 16.3418C34.3527 17.1559 34.4179 17.9512 34.4332 18.7699L34.4471 21.0978C34.4469 21.6401 34.6494 22.5194 34.0311 22.7854L34.0029 22.7977C33.6133 22.9645 33.1957 22.7735 33.0473 22.3777C32.9948 22.2377 33.0232 22.0066 33.0233 21.8541L33.015 18.2883L32.7537 15.4974C32.5426 14.0511 32.1968 12.5224 30.7918 11.7858L30.7275 11.7527C29.1882 12.9651 29.368 15.3192 29.7303 17.0526L30.0474 18.3753C30.0795 18.4917 30.0919 18.6114 30.1329 18.7251L30.2244 19.0584C30.2816 19.2446 30.3296 19.4843 30.2412 19.6664L30.2251 19.7019C30.0769 20.0202 29.649 20.2389 29.3145 20.0706C29.1524 19.9891 28.9936 19.8228 28.8514 19.7091L27.6286 18.7092C27.062 18.2566 26.5357 17.7198 25.7406 17.9577L25.6608 17.9817C25.3188 18.0857 25.0261 18.3429 24.863 18.6594L24.7576 18.9074C24.7148 19.1432 24.6934 19.3979 24.7702 19.6292L24.7833 19.6709C24.895 20.0122 25.2077 20.3045 25.4407 20.5664L27.8822 23.4452C28.3762 24.1397 28.8668 24.8761 29.1956 25.6669C29.2416 25.7775 29.2666 25.903 29.3461 25.996C30.6317 26.3523 31.9277 26.4843 33.2548 26.5618L33.7974 26.6117L37.2012 26.5646C37.8675 26.5273 38.5767 26.4508 39.2224 26.4262C39.3349 26.3436 39.4295 26.1116 39.5007 25.9883C40.7693 23.7929 41.3883 21.033 40.9397 18.5277C40.3418 15.1884 37.9081 12.0439 34.4764 11.3514C34.1739 11.2904 33.8825 11.245 33.5735 11.2384L32.8251 11.2361ZM29.6101 27.5277C29.6084 27.7651 29.7538 27.9822 29.8671 28.1828C30.3827 29.0965 31.8166 29.1029 32.7234 29.1916L35.0857 29.2994C35.7737 29.3001 36.4651 29.3133 37.1519 29.268L37.6754 29.2073C38.1947 29.1578 38.5655 29.1373 38.9696 28.7407C39.129 28.5749 39.4893 28.1057 39.3045 27.8698C39.1461 27.8117 38.8486 27.8965 38.6779 27.9128L37.5661 28.006L33.5983 28.021L32.8568 27.9503C31.7605 27.8821 30.6821 27.776 29.6101 27.5277ZM30.0994 30.1532C29.5899 31.107 30.1694 31.6957 31.1341 31.9766L31.1717 31.9873C32.0826 32.2512 33.0556 32.2777 33.9976 32.2795C34.548 32.2805 36.6005 32.2357 37.0789 31.975L37.2256 31.8814C37.5935 31.513 37.6928 31.1636 37.7276 30.6386C36.6194 30.767 34.9284 30.7934 33.7773 30.7251L32.291 30.5799C31.5581 30.5046 30.7862 30.4418 30.0994 30.1532Z" fill="black"/>
<path d="M17.3379 37.8856C16.0501 38.2293 14.5807 38.3045 13.244 38.2211L12.7027 38.1631C10.963 38.0213 8.9652 37.5192 8.81469 35.3896L8.79331 34.9541C8.78201 34.6092 8.69455 34.6804 8.4035 34.5047C7.40965 33.9049 6.86708 32.5319 7.2634 31.4243C7.33447 31.2258 7.41219 31.2676 7.32022 31.0695L7.09751 30.5792C6.44984 29.1074 5.96708 27.5371 5.75084 25.9422L5.56301 24.2928C5.23353 21.3481 5.97556 19.1041 7.86603 16.7768C9.4475 14.8301 11.5092 13.7852 13.9678 13.5331C16.0031 13.3871 18.4062 14.0975 19.3264 16.0914L19.3397 16.1221C19.4774 16.435 19.5927 16.7434 19.697 17.0682L19.8456 17.7018C20.0677 18.8319 19.8698 20.132 19.6391 21.2391C19.7643 21.1867 19.8996 21.0505 20.0154 20.9706C21.6041 19.8731 23.3918 20.0851 24.4162 21.8841C24.5218 22.0695 24.6155 22.2446 24.6482 22.4596L24.6653 22.5461C24.9758 23.7502 24.1474 24.9053 23.4093 25.7604L22.4022 26.8943C21.1179 28.2477 20.1414 29.2013 19.8768 31.1513C19.7235 32.281 19.9547 32.7475 19.0912 33.8607C19.0968 33.9376 19.1456 34.0171 19.1735 34.0887C19.8553 35.8416 19.2132 37.2862 17.3379 37.8856ZM14.0045 14.981C10.7742 15.2365 8.35039 17.646 7.28806 20.6248C6.92454 21.6442 6.848 22.7586 6.93411 23.834L7.07886 25.2303C7.25084 26.3916 7.42081 27.5332 7.83256 28.6404L8.75047 30.7722C8.9479 30.794 9.14192 30.7909 9.33945 30.8026L10.8555 30.8869C11.0224 30.8956 11.1852 30.9372 11.3509 30.9456L15.0482 30.95C16.1437 30.8967 17.5621 30.676 18.5945 30.3829C18.9588 28.673 19.7968 27.5434 20.9645 26.3204L21.9726 25.2361C22.6932 24.4508 23.7726 23.4301 23.0275 22.3055C22.118 21.0522 20.8779 22.1207 20.0627 22.7891L19.346 23.3359C19.1574 23.4883 18.9382 23.7174 18.7145 23.808C18.4143 23.9296 18.001 23.7473 17.8406 23.4841L17.7732 23.3486C17.6592 23.0953 17.7993 22.7594 17.87 22.5126L18.0853 21.7125C18.4365 20.2758 18.9887 17.0296 17.5325 16.0633C15.9987 16.4149 15.4485 18.1606 15.2479 19.5201L14.9734 22.1903L14.9643 25.4376C14.9637 25.8214 15.0498 26.202 14.6775 26.4451L14.648 26.4652C14.2254 26.7435 13.6214 26.5107 13.5433 25.99C13.4864 25.6112 13.5299 25.1656 13.5305 24.7808L13.535 23.4139C13.5396 23.2119 13.5726 23.0078 13.5799 22.8045L13.7187 20.252C13.926 18.1248 14.3287 16.4572 16.091 15.15C15.4569 15.021 14.64 14.8521 14.0045 14.981ZM18.3297 31.91C17.788 32.0372 17.2278 32.1586 16.6754 32.2274L14.5483 32.4116C13.8995 32.4436 13.2209 32.43 12.5714 32.4083L8.56601 32.1828C8.46837 32.4804 8.7994 32.9565 8.98583 33.1654C9.36237 33.5243 9.94958 33.4715 10.4326 33.5163L11.7642 33.6098C11.9254 33.6224 12.0816 33.6624 12.2471 33.6702L14.771 33.6762C15.0562 33.669 15.3351 33.6259 15.6184 33.5977C16.825 33.4775 18.207 33.3649 18.4098 31.9119C18.3674 31.8948 18.371 31.8999 18.3297 31.91ZM17.7788 34.6287C16.8735 34.9253 16.0073 35.019 15.0582 35.0768L13.2435 35.1083C12.8231 35.1066 12.3955 35.1166 11.9762 35.0851L11.0255 35.0135C10.7549 34.988 10.4741 34.9458 10.202 34.9558C10.2132 35.1111 10.2165 35.2599 10.2561 35.4113L10.2783 35.5219C10.3268 35.8116 10.5275 36.0703 10.7662 36.2367L10.794 36.2555C11.0282 36.3968 11.2594 36.5161 11.5309 36.5682L12.4445 36.6977C12.9962 36.7679 13.5127 36.775 14.0703 36.7746L15.8147 36.7039C16.407 36.6534 17.0073 36.6037 17.5183 36.2654C18.0868 35.889 18.1911 35.2049 17.8564 34.6287H17.7788Z" fill="black"/>
</svg>
