<svg width="48" height="48" viewBox="0 0 48 48" fill="none" xmlns="http://www.w3.org/2000/svg">
<path d="M34.9558 43.5878L34.5664 43.652C33.8591 43.7592 32.5025 43.7194 31.7831 43.6598L28.852 43.2903L24.3132 42.4615C23.4954 42.2758 22.2269 42.0982 22.0946 41.0758L22.0903 41.0398C22.0292 40.5869 22.234 39.919 22.332 39.4798C22.2519 39.4763 22.1577 39.5051 22.0784 39.5196L20.1449 39.9011L16.6608 40.3819L15.9566 40.4157C14.6186 40.5049 11.9284 40.6892 11.1385 39.2685C10.9467 38.9237 10.9844 38.5394 10.9362 38.1616C10.7317 36.5581 9.67976 35.122 9.72936 33.4924C9.74309 33.0411 9.85142 32.3655 10.2893 32.128C10.351 32.0946 10.4 32.0599 10.4537 32.0148C10.4596 30.165 10.3488 29.4481 9.37039 27.7522L8.48933 26.2922C6.73025 23.2003 5.40758 19.0771 5.24248 15.4944L5.22814 14.156C5.22786 13.7208 5.22097 13.2772 5.26203 12.8437C5.63192 8.93776 8.67875 5.63959 12.4438 4.67775C13.2375 4.47499 14.0351 4.38043 14.8523 4.34668L16.0588 4.39402C18.9988 4.79551 20.833 5.83787 22.9645 7.9284L24.9495 10.0067C25.1437 10.2291 25.3203 10.453 25.5329 10.6602L26.4812 9.85356C31.6362 5.74923 39.4132 7.11897 42.1135 13.3125C42.2895 13.7162 42.4388 14.1459 42.5322 14.5772L42.67 15.3541C42.8044 15.9493 42.7518 16.6484 42.752 17.2533L42.7431 18.4092C42.7134 18.9928 42.64 19.576 42.5583 20.1539L42.2572 21.996C41.8571 24.0678 40.9982 26.368 40.0704 28.2369L39.2148 29.7969C38.387 31.1656 37.5025 32.5852 37.4939 34.2449L37.4881 35.0945L37.635 35.2023C37.8567 35.3399 38.0702 35.6253 38.1456 35.8776L38.1572 35.9179C38.7269 37.4515 37.1256 39.8087 37.0148 41.419C36.912 42.9116 36.5263 43.2463 34.9558 43.5878ZM14.6149 5.86947C10.5713 6.00868 6.88048 9.23532 6.71187 13.3476L6.70752 14.8172C6.72922 15.5532 6.71169 16.2758 6.88653 16.9996L7.60306 20.4014C7.61056 20.4345 7.62125 20.4627 7.63306 20.4943L8.11278 21.9843L9.58948 25.2179C9.77351 25.5979 10.028 25.957 10.2424 26.321L10.8699 27.404C11.194 28.0194 11.4533 28.6604 11.6638 29.3224L11.7278 29.5692C11.7836 29.8735 11.8687 30.1606 11.8923 30.4732C11.9226 30.8762 11.8895 31.2914 11.9337 31.6916L23.0697 30.3665C22.8662 29.5988 22.4859 29.1308 21.9801 28.55L21.4296 27.8602C20.7118 26.9011 20.1124 25.6501 19.8618 24.4745C19.7623 24.0856 19.6864 23.6909 19.6263 23.2941C19.5913 23.0635 19.6156 22.7642 19.5383 22.5488L19.5156 22.5648C19.3063 22.7091 19.0656 22.7724 18.843 22.8877C18.8414 23.0359 18.8432 23.1772 18.8053 23.3214L18.7969 23.3542C18.6277 23.9898 18.1057 24.5729 17.4848 24.8002L17.4556 24.8111C16.3181 25.2286 15.1722 24.5686 14.7275 23.4941C14.7054 23.4408 14.6525 23.2594 14.6049 23.2556C13.6675 23.1809 12.4919 22.7256 11.8945 22.0054L11.8405 21.9362C10.7619 20.5345 11.5441 18.6049 13.2278 18.2969C13.4948 18.248 13.7805 18.2547 14.0518 18.2522L14.0499 18.2328C13.9439 17.0487 14.4915 15.4225 15.7504 15.0444L15.7886 15.0326C17.0047 14.6687 18.029 15.7953 18.3437 16.8553C18.4305 17.1479 18.4408 17.4407 18.5053 17.7345C18.9947 17.6498 19.3819 17.6596 19.8689 17.702C20.0954 15.8399 21.5863 14.2306 22.8972 13.0192C23.3949 12.5593 23.9549 12.1264 24.3894 11.6056C24.2646 11.4483 24.1209 11.3127 23.9868 11.1639L22.9955 10.0766C20.975 7.8692 19.1549 6.29518 16.0867 5.91011L14.6149 5.86947ZM32.4966 9.004C30.1972 9.25178 28.5095 9.9992 26.7687 11.5181L25.0608 13.0591C21.8875 15.9453 21.2579 16.3153 21.007 20.5762L20.9988 21.4528C20.9989 21.7432 20.9875 22.0397 21.0185 22.3287L21.0411 22.4808C21.08 22.707 21.0597 22.9413 21.0941 23.1679C21.1775 23.7181 21.307 24.3505 21.5178 24.8671L21.5744 25.0181C21.8646 25.8083 22.3102 26.611 22.8373 27.2662C23.3188 27.8647 23.8471 28.3836 24.1872 29.0859C24.7185 30.1832 24.6532 31.5862 24.6535 32.7706C24.6536 33.0117 24.6312 33.2783 24.6639 33.5163C25.3912 33.5247 26.0843 33.683 26.7895 33.8444L29.97 34.3897C30.098 34.411 30.2313 34.4117 30.3577 34.4379L36.0002 34.9034C36.1071 33.8329 35.9905 33.2867 36.3747 32.1315C36.7398 31.0337 37.3378 30.0761 37.9157 29.0837L39.1141 26.83C40.5485 23.7892 41.9409 18.1813 41.0653 14.7473C40.1455 11.1396 36.4899 8.98637 32.8964 9.00006C32.7704 9.00053 32.6195 8.98586 32.4966 9.004ZM16.1782 16.4761C15.524 16.6718 15.4159 17.9924 15.5787 18.5038C15.6964 18.8738 16.0031 19.433 16.3152 19.6787L16.3555 19.6459C16.7371 19.2103 17.1117 18.4664 17.0729 17.8759C17.0419 17.4031 16.7941 16.4634 16.1782 16.4761ZM19.0671 19.1578C18.68 19.1994 18.2997 19.125 18.1439 19.4699L17.9424 19.9176C17.2393 21.3153 17.3598 20.3071 18.2035 21.3529L18.3458 21.4996C18.7858 21.3137 19.136 21.0923 19.521 20.812L19.6454 19.1555L19.0671 19.1578ZM13.6599 19.7187C13.1716 19.8018 12.7049 20.1155 12.8231 20.6732L12.8437 20.7606C13.0609 21.4456 14.1629 21.6926 14.7778 21.7926L14.8558 21.7907C15.8125 20.6261 15.7843 21.322 14.8946 20.2571L14.6205 19.9113C14.5244 19.7856 14.5208 19.8103 14.362 19.7877L13.7289 19.7194C13.685 19.7163 13.7014 19.7167 13.6599 19.7187ZM16.5845 22.1272C15.7255 22.4766 16.0886 23.6268 16.9184 23.4305C17.7224 23.1309 17.3481 22.0945 16.5845 22.1272ZM23.0036 31.8616C21.2815 31.9818 19.6124 32.4104 17.9184 32.6068L12.323 33.1583C11.9831 33.1872 11.5519 33.165 11.232 33.2765C11.1609 33.6862 11.2389 34.2254 11.384 34.6149L12.225 37.127C12.3384 37.5308 12.413 37.979 12.4454 38.3961L12.47 38.5928C13.1377 38.9125 13.7821 38.9547 14.5087 38.9621L17.264 38.8007C18.5876 38.6625 19.9031 38.436 21.2063 38.1737L22.0551 37.9915C22.2032 37.9572 22.3338 37.9337 22.474 37.8711L22.1754 36.206C22.0061 35.4325 22.3503 34.353 23.0714 33.9374C23.127 33.9053 23.167 33.8899 23.1976 33.8326L23.2007 31.852L23.0036 31.8616ZM24.4616 34.9752L24.244 35.0163C23.3386 35.2123 23.5981 36.2828 23.8581 36.8945C24.1564 37.5962 23.7788 39.8474 23.5797 40.7336C25.5751 41.3058 27.6508 41.5809 29.6957 41.8997L31.1203 42.0914C31.7297 42.1535 32.2537 42.201 32.8701 42.204L33.7505 42.2045C34.3015 42.202 34.8378 42.132 35.3377 41.8807C35.4372 41.8561 35.484 41.8319 35.549 41.7608C35.5611 40.5854 35.8725 39.7123 36.2902 38.6573C36.5701 37.9501 36.7767 37.1742 36.7788 36.4099C35.9225 36.3164 35.0445 36.4189 34.1858 36.3564C31.5345 36.1635 28.8778 35.8314 26.2761 35.2758C25.6911 35.1509 25.0618 34.9339 24.4616 34.9752Z" fill="black"/>
<path d="M31.2517 28.5802C30.9479 28.5838 30.6531 28.566 30.3696 28.4483L30.3281 28.4308C29.4829 28.0834 29.0466 27.29 28.971 26.4231L28.78 26.3344C27.8782 25.9031 26.9005 25.2568 26.5592 24.2618C25.8587 22.2195 27.5161 20.9857 29.4431 21.3621C29.4766 21.3207 29.4819 21.163 29.4928 21.1021C29.7058 19.9086 30.4408 18.8292 31.7278 18.689C32.6649 18.5637 33.3396 19.5053 33.6569 20.2504C33.9071 20.8379 33.9189 21.4101 33.9382 22.0371C34.8195 22.0123 35.633 22.2067 36.175 22.9772C36.5303 23.4823 36.7217 24.116 36.6064 24.7364L36.5977 24.7818C36.3245 26.2907 34.5625 27.053 33.1846 27.0761L33.096 27.3051C32.7847 28.0774 32.0814 28.5378 31.2517 28.5802ZM31.6433 20.1776C31.0935 20.4318 30.7515 21.6036 30.9478 22.184L30.9568 22.211C31.0918 22.5986 31.3477 23.1731 31.6637 23.4144L31.7227 23.3879C32.3213 22.776 32.4712 22.5077 32.4614 21.63C32.456 21.1528 32.2858 20.1575 31.6433 20.1776ZM28.5262 22.741C28.0698 22.8304 27.7136 23.2134 27.8936 23.6957L27.907 23.7326C28.1282 24.328 28.989 24.8892 29.6035 25.0547L29.7547 24.9569C30.8265 24.1412 30.6382 24.7975 29.9798 23.5317C29.8976 23.3734 29.824 23.0948 29.7068 22.9685C29.5499 22.7997 28.7288 22.7254 28.5262 22.741ZM34.1442 23.518L33.3974 23.6189C33.1185 24.0518 32.7944 24.4586 32.4308 24.8228C32.6594 25.0753 32.8092 25.3317 33 25.6032L33.4483 25.5393C34.0829 25.4525 35.0352 25.2266 35.1589 24.4692L35.1646 24.437C35.1888 24.2881 35.1534 24.1548 35.0925 24.02L35.0812 23.9934C34.9101 23.609 34.5235 23.5011 34.1442 23.518ZM31.0127 25.809C30.1736 26.1151 30.4092 27.1117 31.2481 27.1202C32.0656 26.9354 31.835 25.7111 31.0127 25.809Z" fill="black"/>
</svg>
