<svg width="48" height="48" viewBox="0 0 48 48" fill="none" xmlns="http://www.w3.org/2000/svg">
<path d="M25.9566 43.4817L19.2144 43.477C18.9805 43.4663 18.7453 43.4156 18.5089 43.399C16.7371 43.2748 14.5326 42.8828 14.2705 40.7657C14.2434 40.5467 14.2529 40.3193 14.2518 40.0988L14.2478 39.0513C14.2459 38.4212 14.2001 37.7521 14.2642 37.126C14.423 35.5767 14.8844 34.1046 15.3003 32.6116L15.6181 31.4796L15.8956 29.6239C16.0149 28.7556 15.9436 27.7744 15.8408 26.9106C15.8054 26.6137 15.7314 26.32 15.7151 26.0221L9.79523 38.3671C8.46398 40.9303 6.19968 41.2928 3.75381 40.0086C1.75728 38.9604 0.236406 37.2495 1.15337 34.92C1.26944 34.6251 1.42839 34.3515 1.5747 34.0713L2.46334 32.3944L10.1696 17.1243C11.6341 14.1438 11.9974 13.1788 15.1907 12.2609L16.2416 11.9413C16.5774 11.8441 16.9307 11.7472 17.2515 11.6083L16.7053 10.2376C16.0959 8.7373 15.7238 7.31347 16.9332 5.921C17.613 5.13828 18.353 4.84541 19.3445 4.76567L22.5647 4.5332L25.3526 4.53626L27.7814 4.68442C29.336 4.78016 31.056 5.12469 31.6072 6.85396L31.6883 7.08974C32.2917 8.71991 31.3249 10.1254 30.8095 11.6061C31.0951 11.761 31.4479 11.8355 31.7574 11.936L34.0367 12.6623C35.2262 13.0675 36.2607 14.0648 36.86 15.153C37.1302 15.6438 37.3292 16.1788 37.5929 16.6757L45.8408 32.9413C46.0507 33.3141 46.2448 33.696 46.4763 34.0573C46.6422 34.3161 46.8599 34.5587 46.982 34.8422L46.9946 34.8737C47.8843 36.9813 46.2716 38.9243 44.5089 39.897C42.3102 41.1103 40.0689 41.1684 38.5488 38.9951C38.2421 38.5567 38.0265 38.0177 37.7872 37.5382L35.4379 32.843L32.3489 25.9142C31.7287 27.8331 31.9871 29.9301 32.5313 31.8397L33.1285 33.8866C33.3945 34.7981 33.6617 35.8855 33.7973 36.8208L33.8602 37.4296C33.9576 38.144 33.9632 38.8302 33.9633 39.5514C33.9635 40.5004 33.9771 41.3603 33.2605 42.0731C32.1853 43.1426 30.7647 43.3145 29.3253 43.4215L25.9566 43.4817ZM22.5607 5.96342L19.6409 6.11675C19.4005 6.14211 19.1377 6.14296 18.902 6.19311L18.6524 6.2698C18.221 6.41132 17.8979 6.75744 17.7006 7.15517L17.6208 7.33583C17.3783 7.95257 17.4914 8.67186 17.7427 9.26942L18.4597 11.0731C18.7955 11.9201 18.7236 12.5212 17.8028 12.8621L15.5122 13.614C15.0515 13.7526 14.5437 13.8431 14.1137 14.0622C12.6903 14.7874 12.2153 16.0332 11.5375 17.3692L3.36727 33.562L2.39011 35.4159C1.43156 37.4658 4.22793 38.953 5.8289 39.3604C6.3749 39.4993 7.04863 39.3315 7.51893 39.0404C8.21971 38.6066 8.51076 37.9064 8.87587 37.2068L11.4053 32.1247L14.6058 25.2376C15.1267 24.0805 15.2611 24.0057 14.9275 22.7075L14.0598 19.6288C13.9905 19.3521 13.9067 19.0798 13.8679 18.7968L13.8624 18.759C13.7639 18.0297 14.8555 17.8152 15.1163 18.4804L15.4788 19.8272C15.4867 19.8597 15.4974 19.8888 15.5086 19.9201L16.1598 22.1964C16.4109 22.9937 16.2479 23.9885 16.61 24.7244C16.7434 24.9957 16.8194 25.2821 16.9146 25.5661L16.9796 25.8097C17.1114 26.3745 17.2044 26.9241 17.2288 27.5071L17.2477 28.4564C17.2498 29.8291 17.11 31.1161 16.7527 32.452C16.0343 35.1377 15.438 36.5693 15.5966 39.4804C15.6779 40.9733 15.5607 41.5081 17.3185 41.8966C17.8758 42.0198 18.4244 42.0182 18.9929 42.0186L22.4822 42.0197C22.7386 42.0197 23.0208 42.0433 23.2746 42.0148L23.2716 9.67588C23.2417 8.95461 22.4178 8.9841 21.9457 8.98311L20.5167 8.97903C20.2872 8.97683 19.2531 8.92592 19.1076 8.82669L19.0769 8.80592C18.6006 8.47728 18.6333 7.62702 19.2887 7.5485C19.5193 7.52089 19.7273 7.60217 19.9566 7.60696L21.5498 7.61427C22.4387 7.61553 23.1692 7.62107 23.8968 8.20264C24.0774 8.34707 24.0496 8.27108 24.2146 8.13725C24.5334 7.8786 24.9211 7.70061 25.332 7.66991C25.6277 7.61441 25.9181 7.62097 26.2155 7.61867L27.677 7.59964C27.9854 7.5875 28.4327 7.46324 28.7235 7.54639C29.482 7.76338 29.3639 8.77344 28.7931 8.88655C28.5355 8.93764 27.4425 8.97439 27.1571 8.97889C26.4119 8.99075 25.0319 8.71016 24.7332 9.59389C24.6539 9.82841 24.7164 10.1428 24.7219 10.3881L24.7231 41.4665C24.7233 41.641 24.7004 41.8544 24.7343 42.0246L28.0731 42.0196C29.5649 42.0194 31.2988 42.1702 32.4427 40.9994C32.6721 40.7646 32.6231 40.1587 32.6239 39.8547L32.6204 38.6273C32.5105 33.8522 29.0804 29.2262 31.5774 24.4399C31.6209 24.3566 31.6886 23.1452 31.7199 22.9359L31.8668 22.1538C32.0436 21.336 32.3093 20.5323 32.535 19.7268L32.734 19.0076C32.8718 18.4686 33.0259 17.9339 33.7085 18.0952C33.8447 18.1274 33.9496 18.2088 34.02 18.3289L34.0941 18.4724C34.2437 18.7739 33.9216 19.6119 33.8443 19.9218L33.4328 21.5031C33.2343 22.1963 33.0383 22.895 32.9198 23.6078C32.8682 23.9178 33.0765 24.3043 33.2001 24.5808L35.2698 29.279L39.3895 37.7689C40.4291 39.682 41.8034 39.7348 43.6412 38.8187C44.7468 38.2677 45.9981 37.2735 45.8519 35.8944L45.8476 35.8515C45.7883 35.2906 45.3929 34.8747 45.1273 34.3981L39.3156 23.1574L35.6769 15.8067C34.7872 14.1919 33.7062 13.9783 32.0377 13.4619L30.8333 13.065C29.5055 12.6362 29.0399 12.4183 29.589 11.0265L30.0164 9.96013C30.2574 9.39885 30.5451 8.82158 30.5357 8.19496C30.51 6.48205 29.3286 6.14422 27.9488 6.05999L22.5607 5.96342Z" fill="black"/>
</svg>
