<svg width="48" height="48" viewBox="0 0 48 48" fill="none" xmlns="http://www.w3.org/2000/svg">
<path d="M32.9647 40.4736L13.8586 40.4684C13.3264 40.429 12.644 40.1246 12.3047 39.7137L11.8505 41.1296C11.5799 42.1273 11.0023 41.9778 10.1871 41.9787L6.91602 41.9785C5.55487 41.9771 5.50663 41.8346 5.4268 40.6321L5.35584 39.9327L5.33887 36.6646L5.55805 34.044L6.04045 30.5276C7.02393 24.7785 8.70576 19.1335 10.9661 13.7581C11.5026 12.4823 12.4884 11.6087 13.8749 11.4683L14.6885 11.4184C14.7426 11.0474 14.4944 9.88527 14.3793 9.55429C14.1545 8.90835 13.7603 8.31332 14.255 7.67736C14.6877 7.12096 16.9376 6.08075 17.6016 6.00866C17.7422 5.99708 17.9001 6.01147 18.0321 6.06079L18.0702 6.07569C18.4329 6.2151 18.6784 6.56544 18.9632 6.818C20.6807 8.34027 22.0029 8.50855 24.3069 8.47321C25.9086 8.4486 27.4843 8.18957 28.7256 7.11702C29.7903 6.19719 29.788 5.62813 31.326 6.29811C31.952 6.57083 32.5574 6.90983 33.167 7.21808C34.1819 7.73127 34.058 8.4163 33.6964 9.30486C33.4225 9.97794 33.3426 10.6768 33.2863 11.3978C33.5431 11.4454 33.8005 11.4384 34.0595 11.4631C35.3156 11.583 36.3425 12.2779 36.8927 13.4371C37.0284 13.723 37.1164 14.0332 37.2501 14.3184L38.5441 17.6596L40.1396 22.6426C40.3334 23.1429 40.5855 24.0755 40.6757 24.6349L41.258 27.0826C41.3023 27.2185 41.3084 27.3561 41.3436 27.4925L41.9952 30.9523C42.0071 31.0371 42.0392 31.1181 42.0521 31.2031L42.3103 33.1175C42.6119 34.8013 42.658 36.8158 42.6574 38.5117C42.6571 39.4384 42.6708 40.3414 42.5483 41.2614L42.5432 41.2971C42.455 41.9414 41.901 41.9781 41.4166 41.9791L37.1188 41.9728C36.228 41.9245 36.1738 41.1433 35.93 40.4445L35.6227 39.6756C35.5459 39.7304 35.4837 39.8075 35.4166 39.8739C34.7383 40.546 33.8416 40.4761 32.9647 40.4736ZM17.6302 7.28474L15.3101 8.40669L15.6645 9.59638C15.7057 9.79771 15.7759 9.99697 15.8073 10.202C16.1811 12.6361 16.0115 13.4137 19.0811 13.4089C19.337 13.4084 19.6033 13.4198 19.8551 13.3666L22.2256 13.0168C21.7886 11.5952 21.2337 10.0856 19.9915 9.14943C19.5899 8.84685 19.1288 8.62925 18.7265 8.3225C18.3258 8.01697 18.0285 7.5808 17.6302 7.28474ZM30.3292 7.30466C30.0033 7.6161 29.7133 7.95744 29.3628 8.24432C28.951 8.5813 28.4575 8.79847 28.0399 9.12318C26.892 10.0157 26.0022 11.643 25.7571 13.0421L27.5608 13.4383C27.7761 13.4733 27.9698 13.5078 28.1895 13.5116C29.1863 13.5215 30.1377 13.4746 31.0639 13.0453C32.0719 12.5783 31.9811 11.6403 32.0976 10.6693C32.1762 10.0143 32.3053 9.39486 32.533 8.77611C32.5753 8.66099 32.6534 8.51661 32.6679 8.39779C32.0766 8.02846 30.9696 7.52886 30.3292 7.30466ZM22.12 9.6448L22.1351 9.66346C22.6489 10.3117 23.0692 11.3365 23.3116 12.143L23.4667 12.6642C23.493 12.7521 23.5056 12.8472 23.5476 12.9289C23.8774 12.9153 24.1943 12.8777 24.5244 12.9123C24.5773 12.513 24.6482 12.1694 24.7686 11.7835C25.0626 11.0035 25.4127 10.3395 25.8413 9.63097C25.3369 9.73775 24.9838 9.76649 24.4635 9.77099L23.3612 9.77071C22.8706 9.76644 22.5194 9.65943 22.12 9.6448ZM33.0352 12.6169C32.9277 12.9949 32.6104 13.6123 32.2411 13.8171L32.2219 13.8261C32.2217 13.8672 32.2302 13.8931 32.2414 13.9319L33.0339 17.321C33.2226 18.0038 33.3408 19.2497 33.3739 19.9453L33.3773 21.8566C33.377 22.2319 33.415 22.5883 33.4726 22.959L33.6141 23.8506C33.6347 24.0236 33.6382 24.2015 33.6645 24.3734L33.8951 25.9481C33.9348 26.2986 33.9914 26.6434 34.0323 26.9934L34.125 27.6682C34.2462 28.5018 34.367 29.2944 34.6053 30.1013L35.3704 32.3265C35.4472 32.5255 35.4959 32.7473 35.552 32.9534L35.8697 34.1873C35.9237 34.431 35.9579 34.6859 36.034 34.9245L36.2183 35.6808C36.4848 36.537 36.1874 37.5108 36.5073 38.3558L36.846 39.3906C36.8751 39.4936 37.2678 40.588 37.3327 40.6336L40.5644 40.6392L41.3591 40.6608L41.4216 36.8181L41.1829 34.2261C40.8508 31.1406 40.271 28.103 39.5001 25.0972L39.066 23.3908L37.005 17.0929L36.0633 14.7308C35.8526 14.2455 35.666 13.7129 35.3045 13.3136C34.7452 12.6958 33.785 12.7817 33.0352 12.6169ZM14.9084 12.6448C13.9786 12.8269 13.0924 12.6778 12.4859 13.5668C12.001 14.2775 11.7622 15.171 11.4355 15.9614C10.6504 17.8608 10.0038 19.8077 9.41005 21.774L8.9211 23.3862L7.22516 30.9904L6.65559 35.5901L6.56305 38.3953C6.5631 38.9863 6.54459 39.999 6.6538 40.5767L7.37685 40.6392L10.6693 40.6647C10.76 40.2913 10.9041 39.9401 11.03 39.5781L11.3432 38.584C11.6677 37.572 11.5405 37.2972 11.6553 36.3043C11.7308 35.6517 11.8414 35.305 11.9888 34.7064L12.8519 31.7014C13.2122 30.71 13.5964 29.7511 13.7699 28.7025C13.8642 28.133 13.927 27.2987 13.9645 26.6938L13.9936 25.3397C13.9996 25.2046 14.0293 25.0765 14.0414 24.9435L14.5273 20.6554L15.0526 16.9925L15.7262 13.7978C15.4033 13.4539 15.1715 13.0621 14.9616 12.6432L14.9084 12.6448ZM23.2034 14.1712C21.6269 14.4389 19.4376 14.9065 17.8468 14.6323C17.5058 14.5736 17.1507 14.5644 16.8194 14.4512L16.2822 17.3387L15.4716 22.9807L15.1871 26.2132C15.1371 27.2093 15.1273 28.1818 14.9483 29.1677C14.6275 30.9344 13.69 32.5949 13.3829 34.2264L13.2538 35.0906L23.3712 35.0861L23.3761 14.1682C23.3185 14.1585 23.2612 14.1665 23.2034 14.1712ZM24.6208 14.2386L24.6257 34.6779C24.6235 34.8219 24.6006 34.9561 24.6341 35.0983L34.7826 35.0865C34.7705 35.039 34.7547 34.9908 34.751 34.942C34.561 34.2007 34.4234 33.4646 34.1953 32.7544C33.7768 31.4519 33.2336 30.2043 33.0234 28.8401L32.1432 22.4359C32.1107 22.1012 32.1283 21.7525 32.1276 21.4164L32.0893 19.6526C32.075 19.3994 32.0272 19.1475 31.9957 18.8956L31.5985 16.6365L31.1613 14.86C31.1294 14.7244 31.1147 14.5596 31.0605 14.4331C29.9346 14.8281 28.1509 14.9292 26.9675 14.6671L25.6942 14.359C25.5375 14.3277 24.7597 14.1835 24.6208 14.2386ZM12.8766 36.359L12.8254 38.2542C12.8207 38.5015 13.2688 38.9437 13.453 39.0692L13.4872 39.093C13.8003 39.3049 14.3548 39.1949 14.7156 39.1949L23.3857 39.1972L23.3856 36.3569L12.8766 36.359ZM33.5593 36.359L25.5082 36.3615C24.4785 36.3624 24.6304 36.1535 24.6321 37.0674L24.6251 38.9419C24.6208 39.0195 24.6 39.1135 24.6303 39.186L26.3085 39.1953L33.4573 39.197C33.6675 39.197 33.9212 39.2237 34.1255 39.1863C34.4153 39.1333 35.0968 38.534 35.1359 38.2653L35.0528 36.3583L33.5593 36.359Z" fill="black"/>
</svg>
