<svg width="48" height="48" viewBox="0 0 48 48" fill="none" xmlns="http://www.w3.org/2000/svg">
<path d="M19.3773 41.6406L17.4821 41.5188C15.8171 41.4333 13.8759 41.1505 12.7274 39.8527C11.9629 38.9887 12.02 37.8959 12.088 36.8197C12.1924 35.1676 12.4479 33.5658 12.8884 31.9683L13.2776 30.7209C13.745 29.2917 13.6818 29.6609 12.7481 30.1315C10.6457 31.1913 9.14552 30.3271 7.42994 29.2292C6.87044 28.8711 6.29392 28.525 5.77811 28.1056C4.66679 27.2018 4.52378 25.8188 5.20769 24.6295C5.54317 24.0462 6.11378 23.4046 6.50716 22.7539L12.4117 13.0922L13.5953 11.4122C13.9557 10.9445 13.6671 11.0241 13.6045 10.3855C13.4621 8.93124 14.1933 7.73447 15.4915 7.12585C15.9256 6.92232 16.4395 6.88397 16.8987 6.74799L18.0706 6.36821C19.2722 5.97516 19.3016 6.10243 20.5457 6.18652L21.6877 6.20958C21.8889 6.21502 22.0895 6.24741 22.2893 6.25116L25.9653 6.25299L28.4731 6.0834C29.2074 6.0039 29.8539 6.36821 30.5275 6.60661L31.6335 6.9938C33.088 7.50019 34.1756 8.2284 34.194 9.98963C34.1964 10.2245 34.21 10.469 34.1572 10.6995L34.1393 10.7757C34.0833 11.0416 34.1791 11.0408 34.3463 11.2475C34.7358 11.7288 35.0846 12.2529 35.4159 12.7753L36.9495 15.3484L42.1175 23.6964C42.7421 24.6184 43.4752 25.3532 43.1581 26.6428C42.9106 27.6494 42.3218 28.0615 41.5309 28.5886L40.2501 29.4222C39.8681 29.6524 39.4918 29.9177 39.0982 30.1256C37.5841 30.9253 35.8969 30.6238 34.5256 29.7004C34.545 29.9933 34.6039 30.3162 34.7025 30.5933L34.8763 31.1366C35.2874 32.2954 35.6071 33.8866 35.7714 35.0881L35.9203 36.6444C35.9526 37.0065 35.9866 37.3577 35.9748 37.7225C35.8884 40.4026 33.8476 41.1541 31.4482 41.4359L27.4589 41.7481C27.2462 41.7643 27.039 41.812 26.8251 41.8203L21.7187 41.8166C21.5156 41.8089 21.3234 41.7502 21.1213 41.7378L19.3773 41.6406ZM27.7997 7.46471L20.0694 7.49911C20.4717 8.17407 20.8545 8.85994 21.4503 9.39024C24.3338 12.1482 26.2616 10.5928 27.8453 7.48815C27.8132 7.46433 27.8293 7.47005 27.7997 7.46471ZM18.6357 7.55846C17.7954 7.87702 16.6438 8.04779 15.926 8.36433C14.071 9.1824 14.7553 11.8788 17.0913 11.997C17.5017 12.0178 17.9157 11.9752 18.3253 12.0207C19.7491 12.1792 21.238 12.8613 22.3479 13.7508L23.6253 14.8983C23.8794 14.5008 24.0554 14.0728 24.2466 13.6437L24.9112 12.0669L23.7412 12.0701C21.752 11.9061 19.5978 9.5175 18.7966 7.80455C18.7598 7.72594 18.7262 7.5714 18.6357 7.55846ZM29.2586 7.5413C28.8714 8.25816 28.5246 8.9963 28.0663 9.67327C27.7264 10.1753 27.3138 10.6104 26.9436 11.0868C26.347 11.8544 25.9509 12.7695 25.6217 13.6785C26.3643 13.134 27.1216 12.6981 27.9846 12.374C28.622 12.1368 29.3104 12.0309 29.9875 12.0021C30.5398 11.9787 31.0636 11.9755 31.5973 11.8006C33.0534 11.3232 33.4953 9.22177 32.0224 8.52558L29.2586 7.5413ZM33.3789 12.1178C31.8419 13.6682 30.7821 13 28.9777 13.4463C27.9808 13.6929 27.2022 14.1839 26.3499 14.7352C24.575 15.8834 23.9699 16.7753 23.5836 18.7901L23.3277 19.9392C22.813 22.0665 22.32 23.3181 22.3207 25.5329L22.3227 39.8724C22.3225 40.0858 22.3021 40.3082 22.338 40.5188L25.6015 40.5203L25.6103 23.9912C25.6103 23.6215 25.5109 22.4135 25.6641 22.1366L25.6821 22.1035C25.9559 21.612 26.552 21.652 26.8203 22.1014L26.8358 22.1268C26.9286 22.2932 26.8806 23.4047 26.8808 23.6492L26.8797 26.7338C26.8793 27.0711 26.8419 27.4501 26.8861 27.7819L29.364 27.7927C30.8935 27.793 30.6296 27.5377 31.2588 28.9L31.9966 30.8011C32.24 31.375 32.7669 32.7931 32.7791 33.3282C32.8067 34.5361 31.9127 35.883 30.661 36.0688C30.4449 36.1009 30.2046 36.0836 29.9857 36.0844L28.6656 36.0861L26.8759 36.0967L26.877 39.9452C26.8738 40.0962 26.8505 40.2608 26.8818 40.4087L29.4206 40.3156L31.137 40.1504C33.244 39.9194 34.8093 39.6779 34.7036 37.2092C34.6345 35.5947 34.3577 33.972 33.9358 32.4139L33.5623 31.152C33.3413 30.4467 33.1463 29.8448 33.3162 29.1015C33.423 28.6342 33.5399 28.8447 33.2585 28.424C32.7423 27.6522 32.4594 26.7721 32.1025 25.9228L31.4747 24.4093C30.9158 22.8671 30.7477 21.2842 31.0199 19.6598C31.0635 19.3997 31.0624 19.1808 31.2544 18.9725C31.4961 18.7103 31.8868 18.714 32.1316 18.9725C32.4317 19.2895 32.1554 20.6311 32.1549 21.1548C32.1541 21.9335 32.2175 22.7468 32.4867 23.4842L33.9466 27.0654C34.5766 28.6436 36.5683 29.7785 38.2188 29.1048C38.7736 28.8783 39.2939 28.4917 39.8039 28.1745L40.9936 27.4097C42.3428 26.5048 42.1073 25.8719 41.3061 24.7535L35.8059 15.9365L34.2025 13.2484C33.9487 12.8596 33.6898 12.4624 33.3789 12.1178ZM14.5747 12.244C14.3638 12.4831 14.1832 12.759 14.0015 13.0212L7.23072 23.9761C6.64338 24.9184 5.40677 26.0776 6.48527 27.0323C7.00816 27.4951 7.63009 27.8161 8.21692 28.1864C9.29814 28.8687 9.81297 29.3576 11.1563 29.2645C12.315 29.1843 13.4316 28.2678 13.9359 27.2588C14.2518 26.6266 14.4962 25.9662 14.7769 25.3187C15.4478 23.7714 15.9335 22.4937 15.8396 20.7684L15.7221 19.625C15.6894 19.2783 15.736 18.9929 16.0915 18.8319L16.1241 18.8163C16.4253 18.6775 16.7404 18.8784 16.8654 19.16L16.9141 19.315C16.9541 19.454 16.9608 19.6144 16.979 19.7583C17.2244 21.6964 17.104 22.8714 16.4182 24.6341L15.6682 26.4587C15.4218 27.0202 15.223 27.6158 14.9051 28.1425L14.5685 28.6696C14.7105 29.1435 14.8612 29.6376 14.7542 30.1344L13.837 33.458C13.5524 34.407 13.4337 35.4287 13.3745 36.4142L13.3119 37.564C13.297 39.4483 14.4869 39.8402 16.1941 40.0636L17.5338 40.2174C18.167 40.2608 18.8208 40.324 19.4502 40.3274C19.987 40.3303 20.5283 40.3154 21.0636 40.3583L21.0613 36.0814L18.6524 36.0864C18.2211 36.0864 17.71 36.1376 17.2896 36.0442C15.8007 35.7131 14.9142 34.0715 15.3275 32.6426C15.5628 31.8293 15.9221 31.0407 16.2272 30.2516L16.9476 28.3906C17.3093 27.5424 17.7998 27.7961 18.6501 27.7965L21.0618 27.8123L21.0686 25.2368C21.0697 24.3366 21.0854 23.8375 21.2567 22.966L22.3698 18.4013C22.5269 17.6487 22.6314 17.1797 22.9573 16.475C23.0006 16.3812 23.0648 16.2879 23.0922 16.1884C21.6633 14.7741 20.4154 13.5751 18.2957 13.3216C16.6643 13.1264 16.0128 13.5196 14.5747 12.244ZM26.8802 29.085L26.8796 34.2191C26.8793 34.4037 26.8618 34.6016 26.8806 34.7842L30.125 34.7859C30.541 34.7856 30.8175 34.692 31.1174 34.38C31.8292 33.4674 31.374 32.8377 31.0248 31.896L30.1498 29.5292C30.096 29.386 30.1118 29.1979 29.9963 29.086L26.8802 29.085ZM18.8292 29.0883L18.0145 29.1095C17.9053 29.3165 17.8465 29.5882 17.7665 29.8118L16.716 32.5398C16.6313 32.7762 16.5056 33.0291 16.4814 33.2811C16.4225 33.8948 16.8994 34.6239 17.5081 34.7692C17.6478 34.8026 17.8194 34.7845 17.9628 34.7847L18.808 34.7846L21.0667 34.7968L21.0601 29.1126L18.8292 29.0883Z" fill="black"/>
</svg>
