<svg width="48" height="48" viewBox="0 0 48 48" fill="none" xmlns="http://www.w3.org/2000/svg">
<path d="M14.6585 39.3087C14.1768 38.7822 13.9899 38.1194 14.0777 37.417L14.0836 37.3712C14.1467 36.8576 14.3592 36.3799 14.5447 35.9018C14.9017 34.9817 14.9253 34.0034 14.7818 33.0403C14.0397 33.136 13.5981 32.7845 13.0478 32.3432L7.07435 27.7807C5.08131 26.3585 3.94263 24.2565 4.32269 21.8124C4.5069 20.6277 5.07227 19.47 5.56563 18.3857L8.3253 12.0741C9.67844 9.11716 10.8384 7.89442 14.3728 7.89273L16.6161 7.89081C16.872 7.89016 16.7964 7.88444 16.9266 7.67369C17.2968 7.07434 17.9982 6.71964 18.7 6.83697L18.7383 6.84372C19.5214 6.9693 19.8075 7.92109 20.3036 8.41792C20.5555 8.67006 20.8605 8.89056 21.1342 9.12044C22.1415 9.9662 23.0817 10.8486 23.666 12.0428C23.7963 12.3092 23.8982 12.5822 24.0389 12.8446C24.3284 11.5188 25.712 10.0784 26.707 9.26125C27.0807 8.95436 27.4853 8.66378 27.8062 8.29928C28.4019 7.62241 28.2775 7.03933 29.379 6.80186C29.9622 6.73009 30.6693 7.10172 30.9715 7.59517C31.0788 7.77044 31.0095 7.89372 31.249 7.8933L33.791 7.89245C34.1413 7.89273 34.5147 7.86742 34.8625 7.90361C36.616 8.086 38.4385 9.28745 39.1073 10.9393L40.4185 14.283L42.2923 18.3408C42.6498 19.1075 43.4375 20.5843 43.5827 21.402L43.6967 21.951C43.7523 22.1769 43.7526 22.4082 43.7591 22.6398C43.8167 24.6907 43.1644 25.8614 41.5633 27.2027L34.818 32.4314C34.3488 32.8116 33.9462 33.1293 33.3077 33.0586L33.2797 33.0553C33.085 33.7459 33.056 34.9347 33.2944 35.631L33.3527 35.8127C33.4647 36.2099 33.6463 36.5901 33.7801 36.9804C34.1958 38.1938 33.5318 39.5723 32.2975 39.9847C31.86 40.1309 31.3574 40.1489 30.9024 40.2209L28.4063 40.5696L26.6707 40.6883C25.9978 40.7314 25.3204 40.7925 24.645 40.7809C24.5769 40.7798 24.533 40.9613 24.4963 41.0178C24.225 41.4351 23.5583 41.3787 23.3698 40.9184C23.343 40.8528 23.3214 40.813 23.2759 40.7587L19.5079 40.6518C18.6158 40.5789 16.3435 40.3142 15.5087 39.9475C15.1709 39.7992 14.9108 39.5723 14.6585 39.3087ZM29.4847 8.07437C29.326 8.22934 29.2438 8.4505 29.1258 8.63598C28.2821 9.96142 26.7508 10.6607 25.8747 11.9767C25.3319 12.7921 24.9964 13.7929 24.6953 14.7199C24.8779 14.7224 25.1357 14.7534 25.3067 14.7005C28.0953 14.6655 28.711 13.1208 29.6497 10.8517C29.8057 10.4745 30.0034 10.088 30.093 9.68795C30.1793 9.30255 30.1267 8.05708 29.5225 8.06776L29.4847 8.07437ZM18.2693 8.09781C18.1313 8.17497 18.0461 8.27594 17.9753 8.41422L17.9557 8.44989C17.8503 8.64873 17.8293 9.43947 17.911 9.69156L19.193 12.6978C19.9337 14.3081 21.3402 14.7077 22.9482 14.6987L23.3379 14.689C22.8847 13.1436 22.2954 11.8098 21.022 10.7249C20.24 10.0587 19.403 9.48395 18.831 8.61114C18.7155 8.43484 18.5628 8.00744 18.2878 8.09041L18.2693 8.09781ZM31.4726 9.21025L31.3945 9.20852C31.3695 9.35223 31.3855 9.49937 31.3779 9.64469C31.341 10.3487 30.9519 11.0623 30.6772 11.6944C30.1273 12.9595 29.6591 14.2374 28.4804 15.0674C27.1917 15.9748 26.1457 16.0123 24.6671 16.0077C24.6284 16.2436 24.651 16.5106 24.6507 16.7501L24.6433 27.5063C24.6369 27.8612 24.5617 28.2294 24.5606 28.6532L24.5503 39.4573L25.5117 39.446C25.6615 39.4372 25.8085 39.4053 25.9585 39.3991L26.9281 39.3679C28.165 39.2845 29.3864 39.1261 30.6094 38.9306C31.4614 38.7945 32.3024 38.8988 32.5944 37.9052C32.7283 37.4494 32.3371 36.8057 32.2002 36.3787C31.8243 35.206 31.7272 33.7267 32.0561 32.5192C31.8473 32.3143 31.6988 32.0842 31.5273 31.85L30.5559 30.4514C29.4286 28.7679 28.9394 27.2932 30.6923 25.8992C30.7471 25.8555 30.9331 25.7368 30.9438 25.6729L30.9349 25.5969C30.9065 25.3902 30.9195 25.1693 30.919 24.9609L31.0133 21.2803C31.1789 19.657 31.5453 18.357 32.1802 16.8758C32.4476 16.2536 32.7694 15.6711 33.0857 15.0739C33.306 14.658 33.4465 14.0232 34.043 14.1507L34.0732 14.1563C34.7834 14.2933 34.4399 15.2558 34.3996 15.7011C34.2759 17.0673 34.4495 18.3109 34.9879 19.5805L35.0829 19.8398C35.9465 21.85 35.6198 23.0465 34.1162 24.5792C33.4963 25.2111 32.834 25.7918 32.1603 26.365C31.788 26.6816 30.953 27.2346 30.8397 27.7384L30.8339 27.7619C30.7012 28.3316 31.1703 29.051 31.4666 29.5118L32.338 30.7619C32.5494 31.0573 32.768 31.3995 33.0586 31.623L33.0808 31.641C33.1499 31.6958 33.2216 31.7109 33.3047 31.7349L33.3302 31.7431C33.667 31.845 34.3562 31.1478 34.5927 30.9635L40.1058 26.7132C40.5926 26.3211 41.1401 25.9314 41.5619 25.4694C43.4717 23.3779 42.1345 21.0304 41.1742 18.9486L38.3896 12.633C37.7393 10.9091 37.2339 9.80683 35.2109 9.30494C34.6735 9.17162 34.0849 9.21273 33.5359 9.21236L31.4726 9.21025ZM13.6439 9.21377C10.779 9.33873 10.0321 11.2436 9.03517 13.6563L6.71978 18.944C6.1412 20.209 5.20816 21.9847 5.53441 23.437L5.56802 23.5458C5.64302 23.7648 5.67002 23.9961 5.76888 24.2111C6.28614 25.3359 6.88581 25.9584 7.83274 26.7306L13.5948 31.1204C14.6679 31.9376 14.6508 32.0231 15.573 30.7439L16.521 29.3401C16.6838 29.0834 16.9119 28.807 16.9946 28.5129L17.0252 28.399C17.1178 28.0604 16.9106 27.8971 16.6909 27.6908L15.701 26.841C14.4651 25.7548 12.6579 23.8816 12.4098 22.2236C12.1829 20.7068 13.2682 19.2692 13.5619 17.8338C13.7034 17.143 13.7653 16.4658 13.7269 15.7599L13.6671 15.0961C13.5592 14.1674 14.4361 14.0248 14.7188 14.5548L16.2489 17.8305L16.6743 19.237C16.7823 19.6871 16.8731 20.1505 16.9218 20.6113L16.9791 21.4455C17.043 22.2312 17.079 23.0521 17.0182 23.8398L16.8427 25.8498C16.8359 25.9195 16.8087 26.0439 16.8201 26.1097C16.8361 26.2013 17.9496 26.8769 18.2092 27.6681L18.2197 27.699C18.3389 28.0619 18.3184 28.6589 18.1869 29.0158L18.1736 29.0524C17.9983 29.529 17.6461 29.9736 17.3656 30.3958L16.2747 31.9399C16.0839 32.1707 15.9711 32.1879 16.0079 32.4845L16.1084 33.1571C16.226 34.0683 16.0876 35.3144 15.802 36.162C15.4526 37.1995 14.7562 38.4747 16.336 38.8134C17.2526 39.0099 18.1918 39.1872 19.125 39.2797L19.6085 39.3091C20.2432 39.3685 20.6803 39.392 21.3354 39.3924L23.2638 39.3916L23.3853 16.015C21.2283 16.0055 19.4028 15.6607 18.208 13.5637C17.9167 13.0525 17.7296 12.4912 17.4982 11.9522C17.1064 11.0397 16.6103 10.2325 16.613 9.21845L13.6439 9.21377ZM33.1732 17.6892C33.0282 18.2304 32.7829 18.7452 32.6327 19.2886C32.256 20.6514 32.006 23.1386 32.1861 24.6079C32.3808 24.4205 32.5882 24.2117 32.7959 24.043L33.5412 23.2736C34.4874 22.248 34.4283 21.805 33.966 20.4611L33.5112 19.1543C33.3579 18.6823 33.2182 18.1848 33.1732 17.6892ZM14.8735 17.7705C14.7684 18.2377 14.6636 18.6828 14.5021 19.1352C13.988 20.5746 13.1479 21.5644 14.0396 22.9802L15.0993 24.3886L15.6489 24.9707C15.6659 24.6084 15.7376 24.2539 15.7563 23.896L15.7678 22.7058C15.765 21.1588 15.5092 19.2044 14.8735 17.7705Z" fill="black"/>
</svg>
