<svg width="48" height="48" viewBox="0 0 48 48" fill="none" xmlns="http://www.w3.org/2000/svg">
<path d="M25.069 47.2484L21.7581 47.238C21.4582 47.2244 21.1621 47.1677 20.8602 47.1485L14.9102 46.5893C13.64 46.4964 12.9563 46.4465 12.9547 45.0076C12.9543 44.5878 12.9874 44.198 13.0179 43.7833L13.3667 40.0268L11.4012 40.0188C10.7957 40.0196 10.0533 40.0707 9.82202 39.2951C9.74373 39.0326 9.77322 38.7058 9.75564 38.4323L9.57311 35.9703L9.57227 29.6074L9.9617 24.1634L10.4568 20.466L11.8233 14.2372C12.6654 11.2373 14.0075 10.4846 17.0023 9.57163C16.645 9.32892 16.3728 8.76763 16.1807 8.39981C15.6694 7.42152 15.3355 6.26198 15.4817 5.14842L15.4872 5.10866C15.7987 2.50846 19.342 0.973943 21.5821 0.596946C22.1504 0.501307 22.7266 0.452896 23.3007 0.407638C23.7886 0.3762 24.3125 0.370034 24.7997 0.402132L26.5074 0.592118C28.4541 0.885781 31.4748 2.09803 32.2896 4.03319C32.9881 5.69193 32.0874 7.71412 30.6108 8.58834L30.5881 8.60085C30.8471 9.10227 31.5627 9.76696 32.0706 9.95915L32.8592 10.2388C34.1486 10.704 35.1176 11.6057 35.7183 12.8313C35.9011 13.2044 35.9756 13.6127 36.1089 14.0017L37.1133 18.2102L37.4894 20.3066C37.4996 20.4184 37.5336 20.5189 37.5511 20.6281L38.0999 24.7507C38.2053 25.5801 38.2675 26.5791 38.3099 27.4295L38.3544 28.8817C38.3667 29.1031 38.4164 29.3158 38.4233 29.5371L38.43 34.8917C38.428 35.1891 38.459 35.5241 38.407 35.8157C38.2806 36.5231 38.4027 37.26 38.2936 37.9691C38.2349 38.3505 38.2809 39.2029 38.104 39.5084L38.0859 39.5384C37.7507 40.112 37.1529 40.0161 36.5889 40.0174L34.7306 40.0222L34.9822 43.1119C34.9938 43.2908 35.0328 43.474 35.0379 43.6516L35.0382 44.5657C35.0427 44.8556 35.0919 45.1549 35.0473 45.4442L35.0413 45.4798C35.0279 45.5631 35.0117 45.6382 34.9821 45.7176L34.9701 45.7493C34.6216 46.7009 33.6325 46.5052 32.8305 46.6049L26.9295 47.1748C26.7216 47.1898 26.5172 47.2287 26.3079 47.2394L25.069 47.2484ZM23.4969 1.76318C22.3108 1.8004 20.8406 2.05886 19.7457 2.53149C18.0229 3.27514 16.1009 4.72804 16.9983 6.84609L17.3177 7.63527C17.4891 8.01037 17.8088 8.51817 18.1849 8.70834L18.2004 8.70388C18.2789 6.1941 19.6588 5.25327 21.9874 4.90279C22.419 4.83782 22.8547 4.79807 23.2906 4.79737C25.0886 4.7706 27.5427 4.76831 28.891 6.07377C29.3293 6.49823 29.5284 6.93909 29.7484 7.49596C30.7864 6.92938 31.6149 5.59049 30.9723 4.42851C29.9869 2.64689 26.6401 1.87147 24.6886 1.77089L23.4969 1.76318ZM23.4728 6.17713C22.4527 6.18257 20.5751 6.35202 19.9566 7.23581L19.9324 7.26984C19.5156 7.86342 19.5032 8.72723 19.5881 9.43392L21.1042 10.0213C21.0023 9.70087 20.5308 8.80204 20.6291 8.60137C20.7925 8.26799 21.2215 8.36971 21.407 8.62603C21.5606 8.83813 21.6702 9.09552 21.8014 9.32338L22.3845 10.3036C22.6611 10.803 22.5434 10.6934 23.0262 11.0247L23.7889 11.5779C24.6016 9.46134 26.4368 8.55684 28.4807 7.97723C27.8635 6.09834 25.1147 6.14868 23.4728 6.17713ZM28.7645 8.98757C27.2334 9.65517 25.6136 10.4343 24.97 12.0654L24.7511 12.8205C24.6763 13.0561 24.7083 13.3734 24.7081 13.6192L24.7042 44.2424C24.6927 45.2502 23.6983 45.3419 23.3797 44.6661L23.3499 44.5916C23.2103 44.2416 23.2799 43.758 23.2796 43.3894L23.2985 13.5913C23.2989 13.5328 23.3157 13.4169 23.2989 13.3664C23.2705 13.281 22.2719 12.4417 22.1631 12.3592C21.4687 11.8326 20.6053 11.4232 19.8126 11.0709L18.1323 10.4277C17.6132 10.6801 17.0971 10.9499 16.5627 11.1689C16.0936 11.3611 15.5864 11.4945 15.1334 11.7166C13.5498 12.4933 13.2971 13.9202 12.8962 15.4168L11.7258 20.9524L11.0641 26.4016C10.9925 27.1487 10.947 27.9855 10.9153 28.743L10.9149 35.9968C10.921 36.1492 10.9585 36.2986 10.9643 36.4529L11.0738 38.6362L13.564 38.6686L13.9984 35.6009C14.111 34.9917 14.2682 34.3837 14.3155 33.7642C14.3377 33.4738 14.2724 33.1787 14.2673 32.8868L14.2643 30.5216C14.275 27.7449 14.8297 24.959 15.8751 22.3874L16.2614 21.5224C16.375 21.2688 16.4734 20.9095 16.6967 20.7351C17.1154 20.4081 17.5247 20.756 17.6494 21.1868L17.6613 21.2232C17.7478 21.5091 17.7732 21.8252 17.821 22.1192C18.1328 24.0359 18.1352 25.1253 17.8975 26.9827C17.667 28.675 16.9533 29.8083 16.4203 31.3235L16.032 32.5774C15.9527 32.8578 15.8818 33.1452 15.7746 33.4166L17.9633 33.4186C18.455 33.4186 19.1561 33.2675 19.4059 33.8313L19.4221 33.8669C19.6738 34.4746 19.0932 34.8485 18.5268 34.8502L15.5176 34.8371C15.4607 34.9665 15.4659 35.0911 15.4445 35.2272L14.6732 40.3143C14.4953 41.7084 14.3218 43.111 14.3148 44.5177C14.3138 44.7226 14.2702 44.9991 14.3118 45.1956C14.7151 45.2612 15.1257 45.2775 15.5325 45.3108L21.9442 45.8684L25.2773 45.8795C25.9938 45.8767 26.5598 45.814 27.2445 45.7771L33.7261 45.2102C33.7289 44.8642 33.6827 44.5259 33.678 44.1823C33.6649 43.229 33.6603 42.4636 33.5607 41.5162L33.3765 39.84L32.5625 35.0344C32.5512 34.971 32.5519 34.8905 32.512 34.8397L29.5346 34.8503C28.9221 34.8487 28.3753 34.5659 28.6078 33.8586L28.6159 33.8324C28.7488 33.4371 29.206 33.4194 29.5436 33.4185L32.2194 33.4192C31.8625 31.2509 30.4127 29.3106 30.0354 26.9149C29.7925 25.3727 29.9166 23.8209 30.1556 22.2884L30.2866 21.483C30.3206 21.2975 30.3538 21.0952 30.4603 20.9349C30.7042 20.5676 31.2814 20.5124 31.5 20.9407L32.363 23.0004C32.5378 23.3954 32.6123 23.8282 32.7577 24.2308L33.0365 25.192C33.3553 26.196 33.5683 27.7905 33.6519 28.8431L33.7365 30.354L33.7137 33.0838C33.6918 33.3991 33.6201 33.7352 33.6886 34.0465L34.4437 38.23C34.4744 38.3676 34.4548 38.5098 34.5005 38.645L36.9085 38.6459C36.9676 38.2152 37.0154 37.5091 37.0345 37.062L37.0645 35.4895C37.072 35.3184 37.1065 35.1523 37.1121 34.9807L37.1149 30.1634L37.0296 27.9269L36.5654 22.9424L35.4681 16.8491L35.0928 15.3012C34.5967 13.3833 34.24 12.171 32.2103 11.4756C31.0633 11.0825 30.5823 10.8159 29.7832 9.82317C29.4696 9.43359 29.3245 9.10682 28.8172 8.9721L28.7645 8.98757ZM31.2963 24.0018C31.1508 25.2751 31.3053 26.6337 31.6013 27.87L32.0536 29.1613C32.1438 29.4144 32.2173 29.6584 32.3453 29.8957C32.2128 27.5894 32.0129 26.2884 31.2963 24.0018ZM16.6803 24.0364C16.1064 25.7921 15.5903 27.9532 15.6084 29.7956L15.6441 29.7983C15.9097 29.0266 16.2406 28.2815 16.4483 27.4894C16.602 26.9031 16.8505 24.6636 16.6803 24.0364Z" fill="black"/>
</svg>
