<svg width="48" height="48" viewBox="0 0 48 48" fill="none" xmlns="http://www.w3.org/2000/svg">
<path d="M20.4432 40.3541L20.3248 40.3726C18.7555 40.5973 17.8146 40.2277 16.3139 39.918L10.1015 38.792C8.70033 38.5977 8.63532 38.6613 8.81316 37.011L9.20208 32.4652L10.0606 25.2859L11.6017 17.2546L12.9192 11.4237C12.9627 11.2127 12.9999 10.9832 13.0209 10.7691L13.2095 8.97642C13.3611 7.98881 13.3859 7.50075 14.4609 7.61386L19.9842 8.07417L22.414 8.16928L26.2851 8.16642C26.5796 8.15667 26.8707 8.10989 27.1642 8.09222L33.8605 7.55859C34.176 7.57186 34.4432 7.68075 34.5782 7.98961L34.5935 8.0272C34.8434 8.55806 34.9418 10.587 35.05 11.2965C35.1164 11.732 35.273 12.1566 35.3321 12.5921L37.6013 23.5705C37.696 23.9073 37.7326 24.2925 37.7861 24.6399L38.3832 28.619L38.8072 33.035C38.8491 33.5954 38.8432 34.1634 38.9048 34.7225L39.1968 37.3249C39.282 38.2317 39.3953 38.5798 38.3186 38.7438L34.1689 39.3866L31.057 40.0419C30.5042 40.1715 29.9166 40.3908 29.3487 40.4224C27.7602 40.5109 25.446 40.2025 24.8673 38.4172C24.6732 37.8182 24.6513 37.1506 24.5642 36.5272L24.313 35.1176C24.2103 34.5511 24.1227 33.9845 23.9756 33.427C23.8437 33.9952 23.7719 34.5827 23.6784 35.1585L23.3561 37.0451C23.1728 38.3119 23.1679 39.2572 21.803 39.9468C21.3827 40.1592 20.9024 40.2639 20.4432 40.3541ZM33.3099 9.03502L29.3104 9.43983L26.7814 9.57848L21.645 9.58378C21.4993 9.57947 21.3561 9.55481 21.2109 9.54567L17.5312 9.34402L14.5892 9.07345L14.4321 10.5505C14.517 10.5672 14.6124 10.5957 14.699 10.5924L18.9194 11.019C19.0981 11.0311 19.2688 11.0738 19.45 11.0829L28.6958 11.0842C28.9339 11.0744 29.1602 11.0194 29.3963 11.0035C30.7856 10.9101 32.1992 10.7852 33.5703 10.5378L33.4142 9.38414C33.3967 9.26677 33.397 9.14573 33.3688 9.03089L33.3099 9.03502ZM33.6931 11.9647L30.4019 12.3779C30.4242 12.5448 30.5022 12.6966 30.5515 12.8569L31.3251 15.2782C31.5205 15.9257 31.9253 16.5715 32.4589 16.9919C33.1981 17.5438 34.061 17.7908 34.9843 17.7675L33.6931 11.9647ZM14.27 11.9697L12.9722 17.7703C13.8642 17.7173 14.819 17.6062 15.5338 17.012C16.2706 16.3946 16.5211 15.7347 16.806 14.8475L17.2206 13.5836C17.3488 13.1732 17.4563 12.762 17.6176 12.3623L15.0946 12.0964C14.8198 12.0589 14.5397 12.0394 14.27 11.9697ZM19.0885 12.4667L18.3093 14.8358C18.1306 15.3671 17.9768 15.9216 17.7497 16.4344C17.0321 18.0548 15.4341 19.0368 13.6969 19.2034C13.5779 19.2148 12.7403 19.1896 12.6894 19.224C12.6402 19.2572 12.4905 20.1225 12.4704 20.2147L11.7275 24.0102L10.9702 29.0858L10.5462 33.8199C10.5271 34.0642 10.4483 34.3985 10.4962 34.636L14.8945 35.3433C16.8449 35.7111 18.8058 36.145 20.7048 36.728L21.9294 37.1141L23.11 30.2949C23.2767 29.2658 23.3021 28.4558 23.3015 27.4059L23.306 13.0829C23.3063 12.8889 23.3216 12.6827 23.2965 12.4909L21.3967 12.4857C21.3641 12.6599 21.3731 12.8382 21.3725 13.0147L21.374 17.1312C21.395 18.3654 20.039 18.1181 19.9912 17.4256C19.9612 16.9905 19.9884 16.5368 19.9883 16.0997L19.984 12.4762L19.0885 12.4667ZM28.3643 12.4738L28.1674 12.4628C28.1105 12.5774 28.1319 12.7983 28.1303 12.9285L28.1225 19.6642C28.122 20.1124 28.1533 20.5526 28.0364 20.9881C27.6287 22.506 26.6794 23.856 25.1239 24.3665L24.7189 24.4654C24.6852 24.5748 24.7061 24.7422 24.7065 24.8599L24.7073 28.0157C24.708 29.0385 24.7437 29.4619 24.9094 30.4514C25.0629 31.3676 25.2124 32.569 25.4481 33.4531L26.0618 37.0205L30.7031 35.7824C31.2281 35.6605 31.7813 35.487 32.3156 35.4275C32.6641 35.3369 33.0226 35.297 33.3765 35.2351L35.2617 34.8993L37.5168 34.6611L37.4795 33.756C37.4691 33.611 37.4394 33.4698 37.4308 33.3227L36.8375 27.5155L35.3891 19.5585C35.3713 19.4501 35.3701 19.3371 35.3366 19.2322C33.7041 19.2056 32.3529 18.988 31.1367 17.7281C30.158 16.7143 29.877 15.3792 29.4567 14.0858C29.2838 13.5536 29.0646 13.0309 28.9615 12.4802L28.3643 12.4738ZM24.8236 12.4847L24.7037 22.9449C25.1215 22.8074 25.538 22.4823 25.8522 22.1796C26.7 21.2515 26.7378 20.5404 26.7388 19.3727L26.7234 12.4904L24.8236 12.4847ZM10.3289 36.089L10.2084 37.3668L18.5003 38.9402C19.3144 39.1048 20.2069 38.9902 20.9824 38.7061L21.4565 38.4661L19.5371 37.8838L13.9112 36.6387L10.3289 36.089ZM37.4187 36.1267L33.5039 36.6734L27.6597 38.0678C27.298 38.1743 26.9273 38.2618 26.5815 38.4133C26.7974 38.5892 26.9995 38.6705 27.2545 38.7743C28.7099 39.2017 29.2992 38.9837 30.6796 38.6478L32.7539 38.1795L37.7787 37.3739L37.7111 36.6913C37.6985 36.5087 37.7103 36.292 37.6544 36.1179L37.4187 36.1267Z" fill="black"/>
</svg>
