<svg width="48" height="48" viewBox="0 0 48 48" fill="none" xmlns="http://www.w3.org/2000/svg">
<path d="M27.4529 34.5297L25.045 27.5984C24.8821 27.1236 24.4812 25.4953 24.1525 25.1979C23.6198 25.1648 23.6596 25.6947 23.5279 26.1207L19.9693 35.8707C19.6692 36.7124 19.4787 37.6217 18.7066 38.1715C17.6046 38.9563 16.564 38.4862 15.4117 38.1639L11.215 37.0434C10.7654 36.9648 10.306 36.9136 9.88271 36.7337C8.9401 36.3332 8.22366 35.2026 8.3971 34.1723L9.73421 24.2691L9.9653 21.4683L10.6369 14.2976C10.7018 13.8183 10.7068 13.3847 10.7071 12.8981L10.7067 10.2769C10.707 9.78343 10.8595 9.47996 11.4023 9.40416L36.3349 9.39516C36.7599 9.39498 37.1821 9.34534 37.3949 9.81216L37.4393 9.8979C37.5351 10.1182 37.4778 10.4279 37.477 10.6606L37.4752 11.8841C37.4747 12.3805 37.6013 13.2486 37.4066 13.6988C37.3193 13.9008 37.3692 13.9915 37.3948 14.1988L37.8755 18.3238C37.9126 18.6751 37.9952 19.0265 38.0258 19.3791L38.2531 23.3974C38.2636 23.6532 38.3014 23.9089 38.3248 24.164L39.4706 34.0191C39.5498 34.5814 39.6682 35.1135 39.4141 35.6479C39.1776 36.1453 38.7344 36.5679 38.2087 36.7502L38.1374 36.7749C37.836 36.8783 37.4952 36.9009 37.1823 36.9547L35.965 37.2181L31.7761 38.4055C29.5612 39.0313 28.7276 38.0143 27.9981 36.0513L27.4529 34.5297ZM14.2911 10.8649L12.0246 10.8756C11.9813 11.2225 11.9747 12.6748 12.0272 13.0494C12.1254 13.0759 12.2355 13.0595 12.3364 13.0565L15.129 13.0529L17.4158 13.0659C17.2958 12.2604 17.293 11.7111 17.0529 10.8615L14.2911 10.8649ZM22.4281 10.8649L18.5462 10.874L18.7808 12.1438C18.846 12.435 18.8223 12.756 18.8445 13.0539L25.4556 13.0529L28.8932 13.053L29.2647 10.86L22.4281 10.8649ZM30.7121 10.863C30.5314 11.5466 30.3268 12.3715 30.3469 13.0663L35.7716 13.0529L36.0083 13.0889C36.0588 12.9924 36.0214 12.6632 36.0213 12.5445L36.0189 10.8619L30.7121 10.863ZM14.8029 14.5155L12.0983 14.5259L11.7877 18.3766C12.297 18.3726 12.9651 18.3335 13.4463 18.1347C14.5314 17.8563 15.5432 17.0451 16.108 16.0848C16.2589 15.8283 16.7401 14.7971 16.6902 14.5251L14.8029 14.5155ZM18.123 14.5155C18.0409 14.8751 17.9759 15.2302 17.8573 15.5925C16.9133 18.4768 14.4835 19.8529 11.5551 19.8498C11.5058 20.07 11.5134 20.3274 11.5027 20.5536L11.4249 21.5581C11.3945 22.153 11.3429 22.737 11.2995 23.331L10.7248 28.3542L9.97988 33.5648C9.77325 34.8172 9.69886 35.2961 11.1243 35.5444L15.5906 36.6815L16.758 37.0354C17.656 37.2793 18.0295 36.9719 18.3365 36.0757L22.0663 25.8796C22.3252 25.1035 22.4999 24.2922 23.2922 23.8876C23.346 23.7852 23.304 21.8707 23.304 21.6034L23.2977 14.5123L18.123 14.5155ZM24.7253 14.5175C24.6872 14.8363 24.7161 15.1668 24.7157 15.4861L24.7156 23.8543C25.1878 24.1176 25.4869 24.4822 25.6882 24.984L26.5706 27.6779L29.5666 36.2662C30.0265 37.3308 30.6517 37.2091 31.6549 36.9073L36.5941 35.5421L37.4884 35.3445C38.5027 35.1243 38.1831 34.8225 38.0911 33.995L36.8718 23.8389L36.6016 20.2379C36.5947 20.1348 36.6125 19.9785 36.5842 19.8863L36.5693 19.8591C36.0177 19.8376 35.4809 19.8274 34.9326 19.7457C32.3709 19.3639 30.1356 17.1265 29.9036 14.5254L24.7253 14.5175ZM32.2325 14.5155L31.3564 14.5297C31.3923 15.6752 32.6377 17.1857 33.5886 17.6965C34.3053 18.0816 34.9832 18.2603 35.7899 18.3349C36.0009 18.3506 36.2266 18.3847 36.4367 18.3554L36.0632 14.5254L32.2325 14.5155Z" fill="black"/>
</svg>
