<svg width="48" height="48" viewBox="0 0 48 48" fill="none" xmlns="http://www.w3.org/2000/svg">
<path d="M25.8019 31.152L23.9808 24.6429L20.8179 36.3749L19.4223 42.8437C19.3419 43.2816 19.2963 43.739 19.173 44.1679C18.4173 46.7946 15.6872 47.166 13.2978 46.9799C12.028 46.881 10.691 46.6239 9.70914 45.7423C8.47474 44.6338 8.55944 43.5857 8.69575 42.1184L9.73628 30.0469L10.4865 20.1279L10.8083 15.5311C10.8361 15.3098 10.8837 15.1102 10.8932 14.8835L10.9042 7.63514C10.9083 7.41146 10.9465 7.1925 10.949 6.96957L10.948 2.73132C10.948 1.62374 10.9842 1.632 12.1487 1.39839C13.6903 1.0891 15.298 0.881577 16.8715 0.857718C17.8056 0.858815 18.8077 0.793626 19.7275 0.968043C20.0673 1.03246 20.3566 1.1658 20.6846 1.25571C22.8389 1.8462 25.2849 1.94364 27.4601 1.47599L28.4285 1.22445C29.5399 0.883415 30.1333 0.861234 31.3122 0.859823L33.1177 0.928288C33.7703 0.982138 34.4283 1.03627 35.0748 1.147L35.9799 1.31751C36.7489 1.45222 36.9798 1.60775 36.9811 2.36919L36.9727 5.91502C36.9786 6.3375 37.02 6.65063 37.0391 7.04583L37.1276 10.2812C37.1302 10.6757 37.2026 11.051 37.2051 11.4454L37.2176 15.9778L38.2648 30.4218L39.1392 40.2635C39.1641 40.5095 39.1721 40.7597 39.21 41.0038L39.447 43.3806C39.727 44.9411 38.1468 46.3191 36.7774 46.7292C34.3286 47.4627 30.242 47.2705 28.99 44.6142C28.7398 44.0834 28.7033 43.4416 28.5856 42.8727L27.6472 38.2851L25.8019 31.152ZM30.6875 2.28965C30.278 2.30002 29.8369 2.28553 29.4325 2.34913C28.7755 2.45243 28.1235 2.68012 27.4224 2.79148L26.277 2.91838C24.7199 3.07588 22.765 3.00173 21.2115 2.69423C20.669 2.58686 20.1285 2.42083 19.583 2.33897C18.3106 2.14799 15.8625 2.33609 14.6071 2.46964C15.5291 2.84176 17.1875 3.29651 18.1748 3.49913C22.6959 4.73893 26.4787 4.46999 31.0182 3.29087C32.0464 3.02381 33.0916 2.85246 34.0793 2.44338L30.6875 2.28965ZM12.3844 3.26944L12.3642 5.90349C12.3674 6.12371 12.362 6.36357 12.4073 6.57924C12.7606 6.6443 13.1267 6.64632 13.4833 6.68597L15.3246 6.96952L19.9623 7.90829C21.8278 8.22568 23.7335 8.40282 25.6249 8.24321L30.0474 7.56713L34.9341 6.58679C35.126 6.56021 35.3211 6.56747 35.5116 6.53893L35.5179 5.82999L35.5194 4.2896C35.519 4.0064 35.5449 3.6859 35.492 3.40821C34.9387 3.75649 34.2921 3.9484 33.6652 4.11643L29.4455 5.16549C27.6085 5.57349 26.2089 5.81574 24.3465 5.81663L22.9753 5.8013C21.7423 5.72986 20.5361 5.52413 19.333 5.25075L14.2488 3.92471L12.5326 3.32407C12.4917 3.30749 12.4266 3.26873 12.3844 3.26944ZM35.5491 7.9778L31.1111 8.78143C31.1983 10.2779 31.7432 11.8423 32.8236 12.9125C33.8418 13.9233 34.4779 14.0821 35.7683 14.3528L35.6947 7.98038C35.6412 7.96463 35.6033 7.97119 35.5491 7.9778ZM12.3822 8.03564L12.3981 14.3087C13.7069 14.0254 14.3738 13.8004 15.3488 12.7411C16.4331 11.4221 16.668 10.3873 16.8982 8.79689L13.7538 8.21297C13.2988 8.14655 12.8415 8.06644 12.3822 8.03564ZM18.2448 9.06C18.2061 9.26944 18.2017 9.47049 18.1793 9.68072C17.851 12.756 15.4016 15.67 12.1926 15.7629L10.1864 41.3611C10.4456 41.4691 10.7532 41.5106 11.0285 41.5605L13.3508 41.8516C13.5054 41.8655 13.6516 41.9044 13.808 41.9115L15.2887 41.9177C15.6718 41.9163 16.0185 41.8981 16.3959 41.8572L17.2974 41.7426C17.6256 41.6849 17.9537 41.6332 18.2699 41.5239C18.2868 41.2984 18.3403 41.0864 18.3808 40.8649L19.227 36.9989L21.2971 29.0317L22.9248 23.019C23.1217 22.1821 23.3067 21.9047 23.2845 21.037L23.2812 10.1618C23.2819 10.0311 23.3051 9.87952 23.2786 9.75258C21.9491 9.67036 20.6366 9.48638 19.3248 9.2626C18.9716 9.20232 18.5855 9.16646 18.2448 9.06ZM29.6378 9.09938L25.9302 9.67552C25.7975 9.69066 25.6661 9.71953 25.5329 9.72882L24.7363 9.74574C24.6955 10.2965 24.7246 10.8675 24.7245 11.4203L24.7277 21.7851C24.7362 22.0874 24.8764 22.5112 24.9773 22.8018L25.9788 26.5956C25.9865 26.6308 25.9971 26.6591 26.0091 26.6926L26.5415 28.609C26.5494 28.6471 26.56 28.6811 26.572 28.7178L28.6339 36.4062L29.7273 41.5228C30.9186 41.7316 31.6839 41.8564 32.8919 41.8812C34.8685 41.9457 36.0364 41.8137 37.7658 40.9114L35.8391 15.8348C32.252 15.4413 30.0039 12.5884 29.7371 9.09741C29.6979 9.09249 29.6786 9.09319 29.6378 9.09938ZM37.8587 42.4569C36.3468 43.2918 34.9463 43.3173 33.2958 43.3145C32.7963 43.3136 32.2851 43.3315 31.7873 43.2931L30.0296 43.0775C30.1187 43.7982 30.3482 44.3081 30.9112 44.774C31.7576 45.4486 32.7991 45.6567 33.86 45.6576C35.2574 45.6588 37.667 45.4608 38.0139 43.8398L38.0229 43.7992C38.0726 43.5567 38.0249 43.3294 37.9941 43.0898L37.8587 42.4569ZM10.0143 42.8319C9.95796 43.1047 9.9662 43.5134 10.0504 43.7812L10.0949 43.9131C10.8215 45.9864 16.132 46.1461 17.2682 44.7226C17.5783 44.4014 17.9358 43.5839 17.9373 43.1303L16.1609 43.3467C15.2069 43.4182 13.8594 43.371 12.8763 43.2716L10.0143 42.8319Z" fill="black"/>
</svg>
