<svg width="48" height="48" viewBox="0 0 48 48" fill="none" xmlns="http://www.w3.org/2000/svg">
<path d="M26.1281 35.1832L23.9891 27.2211C23.9216 27.3539 23.8854 27.5335 23.8487 27.6778L21.4148 36.9138L20.4052 40.2888C19.7243 42.2537 18.4654 43.0942 16.3593 43.3786C13.743 43.732 10.8977 43.3101 10.7643 40.0361C10.7531 39.7614 10.7731 39.4852 10.7568 39.2107L9.87672 30.5036L9.42382 24.9323C9.38444 24.6131 9.38969 24.2885 9.37253 23.9676L9.30518 19.345L9.39968 17.6314L10.1757 12.5882C10.5823 10.6159 11.3648 8.64512 11.2965 6.6091C11.2686 5.77871 11.1848 5.63804 12.0097 5.19952C12.6619 4.85283 13.2338 4.61018 13.984 4.53242L33.3076 4.51562C34.1676 4.51666 34.9096 4.64361 35.6915 5.02683C36.6081 5.47608 36.7066 5.49633 36.7041 6.47654C36.7023 7.22288 36.7076 7.89966 36.8789 8.62651L37.5446 11.531C37.5996 11.7511 37.6334 11.9786 37.6876 12.1989L38.2035 14.8122C38.4047 15.9466 38.6436 17.4914 38.6858 18.6428L38.6877 23.2441C38.68 23.4285 38.6445 23.6099 38.6295 23.7935L38.1657 30.0776L37.7825 35.4372C37.7311 36.1203 37.7344 36.8005 37.6556 37.4829L37.3247 39.5036C37.1941 40.2762 37.1258 41.0903 36.7644 41.8005C36.0436 43.2171 34.5627 43.4804 33.1371 43.4771C31.2134 43.4726 29.0893 43.0538 28.0339 41.2752C27.7615 40.816 27.6037 40.2992 27.446 39.7921L26.1281 35.1832ZM14.1934 5.98248C13.6771 6.04215 13.1733 6.2304 12.7307 6.50265C12.721 7.51721 12.724 7.97799 12.584 9.00643L33.8861 9.01552L35.4434 9.0076C35.328 8.41852 35.2531 7.86849 35.2511 7.26671L35.2517 6.64623C35.2521 6.52862 35.2883 6.45685 35.1705 6.39057L35.0664 6.35447C34.1961 6.07079 34.0262 5.98168 33.0237 5.98144L14.1934 5.98248ZM12.23 10.4831C12.1186 11.0107 11.9419 11.5257 11.8121 12.0466C11.5933 12.925 11.1284 15.1666 11.1299 16.086C11.5133 15.8883 11.838 15.633 12.1345 15.3195C13.3712 14.012 13.6682 12.2024 13.943 10.4938L12.23 10.4831ZM15.4855 10.4852L15.2831 11.4958C14.8182 14.223 13.7323 16.8956 10.9036 17.764L10.767 19.7697L10.7634 23.0592C10.7717 23.2636 10.823 23.4594 10.8371 23.663L11.1119 27.4216C11.1268 27.6607 11.1168 27.9022 11.1378 28.1409L12.1607 38.4841L12.252 40.2208C12.3487 41.8386 13.771 41.9389 15.0902 41.9533C16.3447 41.967 18.0212 41.7069 18.7042 40.5152C18.926 40.1282 19.0593 39.6755 19.1863 39.2502L20.9889 32.7885L23.1867 24.1864C23.3498 23.5431 23.6704 22.9284 24.4101 23.3898C24.6973 23.5689 24.7056 23.8957 24.7909 24.1843L25.9786 28.9736C25.9861 29.011 25.9969 29.0441 26.0085 29.0802L26.0731 29.3376C26.0806 29.3723 26.0909 29.401 26.102 29.4343L26.6623 31.5208C26.7728 31.8664 26.8166 32.2458 26.9439 32.5845L27.7053 35.3552C27.736 35.4477 27.7547 35.5434 27.7888 35.634L28.1028 36.791L29.1566 40.2287C29.6863 41.5825 31.2016 41.8568 32.4759 41.9516C33.1954 42.0051 34.0314 42.0897 34.7153 41.7996C35.669 41.3949 35.6938 40.3362 35.8498 39.4657C35.9737 38.7749 36.1076 38.0694 36.1827 37.3715L36.3167 35.1922L37.1079 24.5884L37.2406 22.1797L37.1411 17.8982C35.2759 17.2186 34.1267 15.7232 33.3047 13.9568L32.0697 10.4889L26.2331 10.4955L26.2228 16.3166C26.2221 17.8073 25.7102 19.0572 24.0596 19.4123L23.9486 19.4443C23.8077 19.4879 23.6493 19.4806 23.5031 19.4815L22.8516 19.4827C22.0099 19.4815 21.772 19.3388 21.7707 18.3758L21.7698 11.0935C21.7698 10.8988 21.7949 10.6738 21.76 10.4847L15.4855 10.4852ZM23.4406 10.4828L23.2513 10.5022C23.1971 10.7912 23.2236 11.1095 23.2235 11.4031L23.2293 17.988C23.5522 18.1216 24.0501 17.887 24.3149 17.6873C24.8756 17.214 24.7695 16.6413 24.7699 15.988L24.7704 11.7202C24.7702 11.3099 24.7873 10.8924 24.7644 10.4831L23.4406 10.4828ZM34.1023 10.482L33.6445 10.5298C33.7327 10.9055 33.8507 11.3107 33.9854 11.6716L34.0638 11.8967C34.6631 13.4398 35.2841 14.9022 36.6034 15.9647L36.9025 16.1577C36.8411 15.6284 35.9433 10.6874 35.791 10.4955L34.1023 10.482Z" fill="black"/>
</svg>
