<svg width="48" height="48" viewBox="0 0 48 48" fill="none" xmlns="http://www.w3.org/2000/svg">
<path d="M25.8 30.5809L24.0272 22.0138C23.8861 22.3255 23.8519 22.6787 23.778 23.0111L22.2237 30.4218L21.466 34.5598L20.4073 41.302C20.2097 42.4318 19.0706 42.3686 18.2404 42.3691L12.4416 42.3701C12.2562 42.37 12.0524 42.381 11.8708 42.3402L11.8361 42.3319C10.6125 42.0537 10.6719 41.1105 10.6725 40.1356L10.6831 31.5095L10.7899 27.5976C10.7997 27.231 10.8622 26.8642 10.8792 26.4966L10.8914 24.6537C10.9009 24.2719 10.9698 23.8956 10.982 23.5162L11.0015 21.5742C11.01 21.3021 11.0602 21.0346 11.0704 20.7622L11.1881 17.6689L11.3765 14.8799C11.4661 13.8102 11.6452 12.7353 11.8594 11.684L12.2532 9.71786C12.3126 9.42405 12.2936 9.10338 12.2935 8.80403L12.2924 7.47705C12.2923 7.18844 12.2506 6.79896 12.3836 6.53678C12.7005 5.91185 13.1171 5.63331 13.8406 5.58799L33.5629 5.58203C35.1583 5.58105 35.7035 5.91011 35.7073 7.50372L35.7098 8.68028C35.7111 9.07417 35.7576 9.45592 35.8191 9.8455L35.995 10.8356C36.0053 10.8972 36.0326 10.9547 36.0463 11.0156L36.2448 11.948C36.3884 12.6854 36.4822 13.434 36.5453 14.1828L36.6881 16.2233C36.7042 16.4748 36.6846 16.7786 36.7402 17.0215L36.7701 17.1562C36.8792 17.6553 36.8283 18.2263 36.8519 18.7383C36.8611 18.9374 36.9061 19.1353 36.9126 19.3323L36.9328 20.8307C36.9448 21.0554 36.9905 21.2787 36.9978 21.504L37.0144 23.0844C37.0256 23.3708 37.0909 23.6529 37.1037 23.9414L37.1323 25.8809C37.1383 26.0432 37.171 26.2033 37.1758 26.3654L37.2283 28.654C37.2349 28.8338 37.2792 29.0088 37.2842 29.1888L37.2908 30.7932C37.2966 30.9853 37.3404 31.1733 37.3453 31.3645L37.3522 39.6626C37.3526 40.7783 37.6006 41.9018 36.2228 42.3199L36.155 42.3401C36.0127 42.3733 35.8587 42.3656 35.7136 42.3667L30.2397 42.3695C28.2167 42.3686 27.7933 42.5797 27.4682 40.2539L25.8 30.5809ZM13.6344 6.94225C13.6039 7.21202 13.6097 7.46978 13.6193 7.73364L34.3009 7.7252L34.3701 7.73856C34.3783 7.50728 34.3742 7.20967 34.3258 6.98449C33.9677 6.93096 33.6131 6.9378 33.2522 6.93738L13.6344 6.94225ZM13.6276 9.07052L13.4608 10.668L34.4127 10.6638C34.4791 10.6726 34.5447 10.6756 34.6099 10.6618L34.4252 9.41036C34.4156 9.331 34.4122 9.13671 34.3669 9.07727L13.6276 9.07052ZM14.6578 12.0026L13.1536 12.0126C13.106 12.1389 13.1082 12.2808 13.0912 12.4139L13.001 12.9375C12.7613 14.3623 12.6274 15.1733 12.6288 16.6138C13.8315 16.6157 14.5737 16.6291 15.687 16.0298C17.1343 15.2216 18.1039 13.6782 18.1986 12.0224C17.7806 11.9768 17.3452 12.0015 16.9245 12.0011L14.6578 12.0026ZM19.535 12.0008C19.3572 14.8734 17.4673 17.3034 14.5753 17.878C14.3734 17.9182 14.1592 17.9703 13.9542 17.9801L12.9778 17.9873C12.8302 17.9877 12.6651 17.9725 12.52 17.9968C12.5135 18.2463 12.4662 18.4803 12.4567 18.7276L12.4409 20.0683L12.2504 24.1701L12.24 25.3242C12.2302 25.5412 12.1905 25.75 12.188 25.9697L12.0885 29.3006L12.0802 31.8888C12.0769 32.1137 12.0176 32.3389 12.0126 32.569L12.0042 40.4426C12.0046 40.6224 11.9921 40.8107 12.0265 40.9877L19.096 40.9853C19.1413 40.8242 19.1341 40.6578 19.1577 40.4934L20.1062 34.622L21.2353 28.4648L23.2437 19.5147C23.4182 18.8023 23.3416 17.3442 24.0077 16.961C24.1288 16.8913 24.2633 16.8475 24.3808 16.7706C24.9508 16.3978 25.0005 15.4799 25.0668 14.8711L25.2101 13.519C25.2514 13.1064 25.1951 12.6806 25.6054 12.4378C25.8971 12.2653 26.3346 12.4318 26.4873 12.7209C26.6885 13.1021 26.4255 15.3163 26.2631 15.9433C26.1115 16.7114 25.7672 17.4905 25.0917 17.9357C24.9581 18.0237 24.7937 18.079 24.7571 18.2463C24.5703 19.0996 24.6193 19.2281 24.8778 20.0168L25.9116 24.3895L26.9477 29.5156L28.5417 38.4914C28.5754 38.627 28.5799 38.7709 28.6056 38.9082L28.8373 40.4716C28.8633 40.6463 28.8655 40.8321 28.9161 41.0009L35.3517 40.9922C36.2303 40.9918 36.0175 41.0403 36.0183 40.0421L36.01 32.0099L35.9156 28.3384L35.8412 27.3041L35.7642 24.5156C35.7563 24.3723 35.7256 24.2327 35.7197 24.0886L35.7077 22.7846L35.4847 18.2812C35.4781 18.2013 35.4891 18.0622 35.4497 17.9945C34.7853 17.974 34.1736 18.0008 33.515 17.8764C30.8616 17.3754 28.9341 15.2676 28.524 12.6328C28.4923 12.4291 28.5016 12.2194 28.4723 12.0153L19.535 12.0008ZM29.8328 12.0048C29.7916 12.1442 29.8441 12.2592 29.864 12.3895C30.2016 14.5972 31.7994 16.2485 33.9859 16.5853C34.4416 16.6555 34.9354 16.6098 35.3974 16.6305L35.3908 16.6004C35.3425 16.2884 35.3495 15.9682 35.332 15.6533L35.2394 14.513C35.1947 13.9839 35.1409 13.4456 35.0525 12.922L34.8724 12.0241C34.7517 11.9613 33.6597 12.0005 33.4514 12.0005L29.8328 12.0048Z" fill="black"/>
</svg>
