<svg width="48" height="48" viewBox="0 0 48 48" fill="none" xmlns="http://www.w3.org/2000/svg">
<path d="M27.0643 33.5629L25.8785 29.3185C25.4621 28.0546 24.9749 26.6885 23.9882 25.7423C22.6749 27.2425 22.3313 28.5294 21.7854 30.408L19.8759 38.0393C19.5355 39.6924 19.0251 40.2326 17.1925 40.4172C16.6558 40.4713 16.1212 40.5019 15.5812 40.4705L14.7307 40.3833C12.5798 40.1991 11.6117 40.0601 11.2667 37.7932L10.7208 34.4031L10.52 31.8987L10.5227 27.3744L10.8143 23.7622L11.5959 17.6567L12.2271 14.0552C12.3213 13.5648 12.3091 13.1149 12.3099 12.6147L12.3124 10.5245C12.3145 9.03633 12.5531 7.78809 14.2918 7.53244C14.5843 7.48711 14.907 7.56488 15.1995 7.59319L18.2229 7.99261C20.7883 8.44462 22.5709 8.63391 25.2286 8.58961L25.8766 8.5538C26.1124 8.54583 26.3536 8.55192 26.5883 8.53298L29.1916 8.24714L31.512 7.8727C32.8614 7.62417 34.3965 7.02698 35.3329 8.52862C35.7826 9.24961 35.6933 9.96525 35.6938 10.7793L35.6978 13.498C35.704 13.6518 35.7371 13.7857 35.7597 13.9356L36.0474 15.4221C36.1026 15.6833 36.1246 15.9713 36.1971 16.227L36.2177 16.3007C36.25 16.424 36.253 16.5579 36.2716 16.6841L36.5211 18.2239L37.4143 26.3895C37.4254 26.573 37.4659 26.7507 37.475 26.9355L37.4836 31.9953L37.1844 35.2174C37.1511 35.4802 37.0859 35.745 37.0402 36.0066L36.6631 38.199C36.3305 40.0654 35.4159 40.1616 33.8468 40.3347C32.2148 40.5147 29.2302 40.885 28.3767 39.0467C28.2247 38.7193 28.1857 38.3503 28.1157 37.9998L27.0643 33.5629ZM33.4904 8.82066L28.0111 9.72534L25.8036 9.91275C25.1434 9.95737 24.4692 9.951 23.8075 9.94148L22.6928 9.9202L19.2307 9.51295L15.536 8.95158C14.8394 8.86622 13.8878 8.5568 13.6413 9.50414L13.6309 9.54169C13.5852 9.71897 13.5976 9.92002 13.597 10.1025L13.5961 10.9409C13.5961 11.9099 13.3759 11.7694 14.2784 11.9443L16.5823 12.2815L18.4622 12.4592C18.8722 12.5004 19.7722 12.3745 19.9816 12.8432L20.0138 12.9203C20.2326 13.3939 19.8189 13.7029 19.5166 14.0068L14.9801 18.8034C14.3499 19.5904 13.7047 20.2538 12.5948 20.2519C12.5082 20.6156 12.4792 20.9944 12.4226 21.3633L11.9231 25.6526C11.8624 26.139 11.9536 26.6939 11.8353 27.168C11.7855 27.3679 11.796 27.5911 11.7941 27.7961L11.8061 32.0431C11.8369 32.87 11.9434 33.9638 12.0631 34.7641C14.2973 35.6071 17.0838 35.8004 19.2952 34.8341L20.2106 31.2132L20.8615 28.9698C21.3057 27.5421 21.7884 26.2827 22.7908 25.1504C23.1677 24.7246 23.5631 24.2275 24.1995 24.3701L24.2311 24.3762C25.1548 24.5665 26.4574 26.9412 26.7353 27.762L27.3301 29.5315L28.5098 33.9552C28.567 34.2424 28.6404 34.6619 28.778 34.9203C30.9931 35.7067 33.7411 35.6339 35.9284 34.7503C35.9489 34.2241 36.0422 33.6979 36.0894 33.1732L36.2536 30.1821L36.1803 26.3202L35.4762 20.2756C35.1732 20.238 34.878 20.2002 34.5896 20.0937L34.5543 20.081C33.6083 19.7329 33.0938 18.8328 32.434 18.1319L28.59 14.0762C28.4125 13.8952 28.1621 13.6927 28.0367 13.4767L28.0158 13.441C27.8435 13.1349 28.0216 12.7395 28.3262 12.5976C28.5586 12.4894 28.9546 12.5084 29.2098 12.49C30.9467 12.3644 32.6625 12.123 34.3769 11.8257L34.3819 10.5822C34.3821 10.1763 34.457 9.60713 34.2501 9.25111L34.2358 9.22411C34.0883 8.95303 33.7888 8.81691 33.4904 8.82066ZM13.6253 13.1505L12.7456 18.9441C13.4568 18.7571 13.5539 18.4558 13.9912 17.9334L14.9675 16.8675L17.8818 13.7649L13.6253 13.1505ZM34.2909 13.1817L30.1636 13.7341C30.4948 14.2685 31.0255 14.7294 31.4566 15.1875L33.1526 16.9906L34.0225 17.922C34.4348 18.3804 34.6792 18.7544 35.2895 18.9274L34.3775 13.1768C34.346 13.1753 34.3209 13.1707 34.2909 13.1817ZM12.3454 36.2401L12.5173 37.3713C12.6516 38.2286 12.5752 38.7991 13.5748 38.9439L15.0053 39.106C15.8048 39.1745 18.2372 39.297 18.4693 38.4925L18.4957 38.3857L18.9067 36.3766C16.9178 36.9482 14.2608 36.9223 12.3454 36.2401ZM35.6478 36.2619C33.7699 36.8931 31.0114 36.9372 29.1014 36.3708C29.1192 36.5374 29.1469 36.6963 29.1931 36.8577L29.5225 38.4095C29.7269 39.3664 32.309 39.1571 32.9768 39.1032L34.3713 38.9453C35.2931 38.8543 35.3492 38.4481 35.4745 37.5887L35.6478 36.2619Z" fill="black"/>
<path d="M25.9461 16.0555L25.7364 14.5983C25.702 14.4152 25.6808 14.2276 25.6265 14.0491C24.8176 14.1466 23.225 14.13 22.3857 14.0775C22.2076 14.7287 22.057 15.8217 22.0265 16.5295C22.0094 16.9287 22.0367 17.3413 22.0018 17.7369C21.9435 18.3978 20.7658 18.4508 20.6976 17.7062C20.6739 17.4477 20.7201 17.181 20.7268 16.9217L20.7353 16.1911C20.739 15.8654 20.7973 15.5576 20.8356 15.2348L20.9358 14.5436C21.0597 13.7746 21.5974 11.1515 22.4441 10.9507C23.0068 10.911 23.2948 11.3574 23.123 11.8704L22.8262 12.7949L24.6235 12.7868C24.7747 12.7858 25.0648 12.8232 25.1922 12.7693C25.0246 12.0063 24.395 10.929 25.7092 10.9732C26.2188 11.2661 26.4382 12.0566 26.6255 12.5864L26.7336 12.995C26.9685 13.7334 27.4959 17.4857 27.245 17.8832C26.8289 18.5427 25.9934 18.3035 25.9897 17.4746L25.9896 16.6996C25.9881 16.4836 25.9711 16.27 25.9461 16.0555Z" fill="black"/>
</svg>
