<svg width="48" height="48" viewBox="0 0 48 48" fill="none" xmlns="http://www.w3.org/2000/svg">
<path d="M25.2895 32.9581L23.9885 23.491C23.8513 23.8594 23.825 24.3091 23.7787 24.6987L22.9295 30.8944L21.6645 39.0861L20.9084 43.9969C20.8573 44.3415 20.9317 45.0417 20.3599 45.0685L14.2184 45.0719C13.8038 45.0717 13.4429 45.1741 13.2241 44.7288L13.2111 44.7014C13.0032 44.2704 13.1837 43.6273 13.2129 43.1589L13.253 42.0692L13.6742 36.8376L13.8918 32.8944L13.9093 30.572C13.9157 30.3267 13.9716 30.0899 13.9816 29.8437L14.0007 26.9302C13.9797 26.2037 13.8212 24.8931 13.6737 24.2114C13.5829 23.7914 13.4413 23.387 13.3359 22.9714L12.759 20.2607L12.4104 17.7123C12.3601 17.2904 12.2868 16.5599 12.2857 16.1381L12.2735 14.1913C12.2703 14.0466 12.2502 13.9017 12.2518 13.7572L12.5011 9.80993L12.6917 8.56456C12.8262 7.62692 12.5024 7.02049 12.6871 6.0987C12.828 5.39557 12.816 4.22298 13.6895 4.03517C13.903 4.02684 14.0673 4.07246 14.2716 4.11498L17.6251 4.68708L21.146 5.05798L24.711 5.14976L28.8842 4.86546C29.841 4.74734 30.8227 4.66262 31.7702 4.49112L33.1641 4.21811C33.8358 4.07323 34.5682 3.83372 34.8626 4.7172L34.8756 4.75774C35.0517 5.25335 35.1427 5.86821 35.1653 6.38777L35.1769 7.70618C35.177 7.83996 35.1579 7.98987 35.1673 8.12102C35.2009 8.59573 35.4431 9.36317 35.5098 9.91399L35.6841 11.669L35.6892 16.8032C35.6811 16.9869 35.6429 17.1672 35.6294 17.35L35.1808 21.0468C35.1527 21.202 35.1411 21.3615 35.1088 21.5156L34.5678 25.007C34.4774 26.0657 34.4745 27.12 34.4745 28.1819L34.4788 38.6159C34.4832 38.7803 34.5139 38.9415 34.5186 39.1054L34.5815 41.7565C34.5855 41.9099 34.5799 42.0765 34.6071 42.2277L34.6447 42.5088C34.6784 42.6545 34.6646 42.8201 34.6663 42.9695L34.6883 43.7203C34.7633 45.0682 34.8164 45.0703 33.5559 45.0719L28.966 45.0725C28.5231 45.0723 28.0599 45.1034 27.6203 45.0664C27.0463 45.018 27.0627 44.3769 26.9896 43.954L25.2895 32.9581ZM14.0551 5.31977C13.8881 5.8699 13.8486 6.47079 13.8084 7.0429C13.9189 7.17284 14.1797 7.14195 14.3348 7.16266L19.4836 7.68757L21.4577 7.81052C21.6866 7.8236 21.9111 7.87127 22.1397 7.88117L26.0603 7.87873C26.2536 7.86921 26.4365 7.8266 26.6262 7.81601L28.7975 7.67688L32.4635 7.2477C32.9754 7.1906 33.4888 7.14556 33.9962 7.05387L33.839 5.32517C32.6552 5.60365 31.4385 5.76415 30.2339 5.92029L26.1011 6.31667L21.0455 6.25657L17.168 5.82331C16.1225 5.67288 15.0872 5.5572 14.0551 5.31977ZM33.9672 8.28509L30.6299 8.70598C30.6565 8.96463 30.7076 9.24785 30.7994 9.49212L30.9242 9.8029C31.2314 10.5798 31.7443 11.225 32.3585 11.7799C33.038 12.3426 33.722 12.6605 34.5413 12.9461L34.516 11.635C34.4725 10.8333 34.2696 9.08191 33.9964 8.29606L33.9672 8.28509ZM13.9367 8.3554C13.7778 9.04409 13.6386 10.1252 13.5889 10.8365L13.5599 11.5311C13.5268 11.9648 13.4673 12.3948 13.4839 12.8314C14.1327 12.653 14.772 12.1909 15.2428 11.7241C16.0111 10.9266 16.6787 9.7609 16.7682 8.62877L14.4055 8.39421C14.2653 8.37729 14.0749 8.33646 13.9367 8.3554ZM17.9753 8.75384C17.9074 8.9246 17.9039 9.12692 17.8649 9.30673C17.4299 11.3131 16.091 13.0755 14.1854 13.9C13.9538 14.0003 13.6897 14.0516 13.4674 14.1587L13.4864 16.287L13.6938 18.4828L14.2989 21.7851C14.3543 22.0617 14.3836 22.346 14.4769 22.6144C14.9563 23.9939 15.1422 25.4276 15.1724 26.8873L15.1748 30.314C15.1659 30.616 15.1046 30.9131 15.098 31.2166L15.0633 32.6686C15.0611 33.087 15.098 33.5435 15.0282 33.9554L14.3461 43.8326L19.7529 43.853L22.7653 23.3678L23.2655 18.8806C23.2857 18.6797 23.3392 18.4829 23.3503 18.2825L23.3601 16.1971C23.3536 15.5995 23.381 15.5538 23.9666 15.2698C25.0679 14.7359 24.9354 13.9312 25.278 13.6167C25.5943 13.3263 26.0993 13.4857 26.2503 13.8632L26.2643 13.8955C26.5365 14.5484 25.3885 15.8849 24.8076 16.1958C24.7133 16.2463 24.6374 16.2544 24.5431 16.3243L24.5415 16.7929L24.5498 18.1444L25.4415 25.6375C25.4997 26.0338 25.5269 26.4423 25.5947 26.8359L25.9149 28.9687C25.9774 29.3337 26.0062 29.7059 26.0647 30.0702L26.9176 36.0121L27.142 37.371C27.2028 37.715 27.2397 38.0696 27.2843 38.4165L28.1045 43.4918C28.1213 43.5999 28.1188 43.7262 28.1571 43.8273L33.5142 43.8082C33.449 43.2642 33.5005 42.7011 33.464 42.153C33.4498 41.9419 33.4094 41.7371 33.3996 41.5243L33.3707 40.3692C33.3507 40.0704 33.3004 39.7683 33.291 39.4706L33.2842 26.4746C33.2857 25.8241 33.3433 25.1637 33.4034 24.5156L34.2126 19.5601L34.5267 15.4919C34.5276 15.0659 34.5651 14.6088 34.5243 14.1866C34.3749 14.1177 34.2073 14.1039 34.0491 14.059C31.7658 13.4109 29.6414 11.2628 29.4404 8.83446C29.3603 8.80981 28.7607 8.89802 28.629 8.90881L26.7188 9.06551L22.0836 9.07385L17.9753 8.75384Z" fill="black"/>
</svg>
