<svg width="48" height="48" viewBox="0 0 48 48" fill="none" xmlns="http://www.w3.org/2000/svg">
<path d="M26.5225 36.4617L24.7065 29.179C24.5771 28.591 24.5121 27.9927 24.1899 27.4688C23.688 26.6526 23.3723 28.6156 23.3186 28.8744L21.0364 38.1149C20.814 38.9041 20.2413 38.954 19.6097 38.6527C16.6975 37.2637 13.4732 36.734 10.3297 36.134L8.57915 35.8033C7.29834 35.5413 7.38881 35.4899 7.20928 34.2646C6.95428 32.5244 7.23595 30.8056 7.55938 29.097L8.42184 25.1009L8.76979 22.6214C9.15857 20.1827 10.0071 17.7697 10.9335 15.4902L11.5567 14.0853C11.7205 13.6696 11.6444 13.1991 11.6442 12.7611L11.6446 10.6583C11.6449 10.389 11.5955 10.0111 11.7045 9.76292L11.7213 9.72594C11.8061 9.53422 11.9262 9.37044 12.1246 9.28484L12.1568 9.27148C12.2803 9.21809 12.3785 9.20534 12.5105 9.19723L35.2609 9.19531C36.4879 9.19602 36.3717 9.78716 36.3723 10.8433L36.373 12.8544C36.3731 13.1295 36.3321 13.4698 36.409 13.7315L36.6571 14.4486C36.8263 14.8189 36.9893 15.2532 37.1057 15.6456L38.702 20.3871L39.8278 26.152C39.8665 26.3686 39.9457 26.5864 39.9946 26.802L40.2657 28.0072C40.372 28.4454 40.4089 28.9026 40.501 29.3431C40.6613 30.11 40.8051 30.905 40.8743 31.6869C40.9343 32.3641 40.9449 34.4491 40.7005 35.1014L40.6386 35.2494C40.363 35.7676 39.6546 35.6647 39.1664 35.7144C38.3658 35.7961 37.5959 36.0064 36.8221 36.2157L33.7965 36.9143C32.2496 37.2163 31.0013 37.5165 29.5207 38.1416L28.6409 38.531C27.4244 39.1022 27.1756 38.9717 26.8045 37.5281L26.5225 36.4617ZM22.3688 10.7965L14.0912 10.7975C13.8071 10.798 13.4759 10.7683 13.1965 10.8091L13.1943 12.2079L25.7932 12.2049L34.7929 12.2116L34.8026 10.7917L22.3688 10.7965ZM13.787 13.8279L13.2237 13.8428C13.0876 14.5594 13.0453 14.6159 12.7494 15.28L12.1043 16.7862C11.9464 17.1769 10.7768 20.4671 10.8618 20.6315L13.8012 20.6404C16.1489 20.6346 17.4815 18.6432 17.8573 16.5087C17.911 16.204 17.9126 15.8368 18.0453 15.5569C18.4794 14.6415 19.7679 15.1543 19.5112 16.2353C19.3172 17.0525 19.177 17.8774 18.8757 18.6667C18.2125 20.4042 16.4338 21.9484 14.5535 22.1915C14.0874 22.2518 13.6069 22.2309 13.1376 22.2301L11.1945 22.2296C10.9059 22.2308 10.5121 22.1014 10.4522 22.3609C10.2343 23.3053 10.1604 24.2866 9.97579 25.2385L8.85965 30.7025C8.65907 31.7879 8.49604 33.1685 8.78329 34.2293L13.219 35.0606C15.4423 35.4765 17.6596 36.0234 19.719 36.9782L21.6775 28.8917C21.9185 27.7697 22.1873 26.3958 23.2586 25.7581C24.6823 24.9106 25.5785 26.5726 25.9695 27.7142C26.0138 27.8436 26.0559 27.9677 26.0732 28.1042L27.1974 32.7818C27.2051 32.82 27.2161 32.8541 27.2279 32.891L27.6667 34.692C27.6746 34.7294 27.6853 34.7632 27.6969 34.7994L28.2266 36.7968C28.2447 36.8598 28.2794 36.921 28.3079 36.98C29.2883 36.4524 30.4252 36.0236 31.5217 35.7954C32.0747 35.6313 32.6352 35.522 33.1995 35.4062L37.6282 34.3436C38.1709 34.2283 38.7228 34.196 39.2724 34.1303C39.4539 32.5698 39.3082 31.5383 39.0391 29.987L38.7034 28.17C38.4599 27.1115 38.1659 26.0611 37.9873 24.988L37.6251 22.6283C37.5982 22.4967 37.5928 22.3306 37.5202 22.216L35.5662 22.2232C34.9159 22.2231 34.389 22.2345 33.748 22.1405C31.973 21.8804 30.2759 20.8337 29.5451 19.1464C29.2808 18.5361 29.1496 17.8811 28.9806 17.241L28.7965 16.4759C28.6988 16.0499 28.5717 15.6477 28.9277 15.2985C29.2085 15.0231 29.7374 15.0055 30.0154 15.2976C30.1929 15.4843 30.2279 15.7198 30.2818 15.9603L30.5164 16.9681C30.5672 17.1466 30.6149 17.3458 30.6469 17.5293L30.7398 17.8632C31.0806 19.2835 32.4355 20.3805 33.875 20.5485C34.3281 20.6014 34.8111 20.573 35.2667 20.5738L37.0894 20.5435C37.0171 20.4209 36.9928 20.1822 36.9501 20.0379L36.4293 18.3537L35.0005 14.4076C34.9398 14.2156 34.9058 14.0163 34.8407 13.8272L26.7665 13.8273L26.766 15.9486C26.7614 16.1487 26.7282 16.3457 26.7252 16.5472L26.6963 17.9186C26.6705 18.3689 26.6254 18.8221 26.583 19.2714C26.4061 21.1482 26.1641 23.7303 23.7627 23.7426L22.9522 23.744C22.4375 23.7432 21.875 23.8257 21.6331 23.2377L21.6207 23.2084C21.5222 22.9644 21.5754 22.6331 21.5827 22.3742L21.7331 19.0708L21.8579 13.8276L13.787 13.8279ZM23.4414 13.8279L23.161 22.1461L23.8059 22.1446C24.1802 22.1418 24.2825 22.0498 24.4927 21.7262C24.8243 21.0973 24.893 20.3233 24.9765 19.6283L25.0838 18.4886C25.1007 18.3121 25.1369 18.1441 25.1467 17.9642L25.1727 13.8286L23.4414 13.8279Z" fill="black"/>
<path d="M34.9981 33.0216C32.9326 33.1726 31.2777 31.9527 30.9165 29.8846L30.8732 29.6502C30.6562 27.5939 32.2632 25.883 34.2593 25.6498C35.8844 25.4258 37.476 26.5423 38.0632 28.0195C38.1607 28.2648 38.199 28.5241 38.2639 28.7773L38.2978 28.9536C38.5117 30.9926 37.0188 32.7955 34.9981 33.0216ZM34.4316 27.2198C33.6225 27.3368 32.9795 27.6929 32.6245 28.476L32.5626 28.6224C32.3778 29.0686 32.3912 29.6219 32.5567 30.0703L32.5695 30.1063C32.9194 31.0695 33.8108 31.5215 34.7895 31.4767C36.3867 31.1997 37.2998 29.6797 36.4443 28.2406C36.0629 27.5988 35.1992 27.0981 34.4316 27.2198Z" fill="black"/>
</svg>
