<svg width="48" height="48" viewBox="0 0 48 48" fill="none" xmlns="http://www.w3.org/2000/svg">
<path d="M25.7716 27.7683C25.7084 27.1234 25.6929 26.4688 25.594 25.8285C25.4061 24.6115 25.0622 23.4252 24.7718 22.2308L24.2978 20.2269C23.996 19.1126 23.9745 18.9721 23.6804 20.2028L22.7227 24.3289C22.5226 25.1836 22.4349 25.6216 22.3522 26.473L21.9856 29.9535L19.794 43.1404C19.7651 43.3735 19.7826 43.6169 19.7747 43.8519C19.7385 44.9388 19.1447 45.9768 18.1439 46.4418C17.5538 46.7159 17.0153 46.6829 16.3823 46.6836L13.3736 46.6831C12.9713 46.6825 12.6011 46.7064 12.2108 46.603C10.5918 46.1739 9.88215 44.6601 10.1848 43.1046C10.2783 42.6238 10.3726 42.8287 10.1072 42.4103C9.68283 41.7413 9.56433 41.0137 9.65358 40.2308L11.8946 23.7555L12.5913 16.5239C12.6476 15.5131 12.7089 14.5003 12.7662 13.4885L13.1484 8.82458L13.4063 6.97302C13.4228 6.86952 13.5027 6.64972 13.4908 6.5578C13.4793 6.46981 13.1491 6.35717 13.147 5.74494L13.1464 3.64673C13.1474 3.03604 13.0946 2.39068 13.8561 2.28036L33.8136 2.27435C34.143 2.27414 34.4892 2.2413 34.6718 2.58897L34.6894 2.62536C34.8441 2.88768 34.7829 3.24287 34.7836 3.53465L34.7864 5.65752C34.7865 6.03772 34.8264 6.2907 34.488 6.55199C34.4212 6.60355 34.5753 7.51044 34.5962 7.66442L35.1427 12.7623C35.1578 12.9685 35.1516 13.1779 35.172 13.3832L35.5133 18.5375L36.1876 24.7035L37.6937 35.8715L38.1505 38.9773C38.337 40.2725 38.692 41.3295 37.8162 42.5201C37.7459 42.6157 37.7137 42.6086 37.7359 42.7262L37.8223 43.1605C38.0282 44.489 37.7336 45.8072 36.3745 46.4198C35.3756 46.8701 33.8742 46.6838 32.776 46.6839L31.2852 46.6832C31.0418 46.6823 30.6811 46.7199 30.4521 46.6346C29.3748 46.2335 28.6717 45.8095 28.3517 44.6045C28.1813 43.9625 28.2777 43.5094 28.1942 42.8825L26.0865 30.3285L25.7716 27.7683ZM14.4913 3.63253L14.4956 4.78161C14.4946 4.94839 14.4643 5.15895 14.4983 5.32034L33.4833 5.32442L33.4702 4.12203C33.4695 3.97846 33.4961 3.76874 33.4525 3.63307L14.4913 3.63253ZM27.6838 6.65127C27.6137 7.22042 27.6556 7.83289 27.6556 8.414L27.6559 11.8751C27.656 12.8035 27.7153 13.6917 27.4336 14.591C27.0461 15.8286 25.9803 16.8853 24.6816 17.0976C24.6704 17.3509 24.6736 17.6745 24.7108 17.9256L24.741 17.9559C24.9695 18.1872 25.1017 18.4827 25.2352 18.7748L26.8316 25.2349C26.9841 25.7676 26.9642 26.3693 27.015 26.9162L27.2816 29.4613L29.1098 40.3129C29.2084 40.8241 29.2895 41.8075 29.4467 42.2579L34.0629 42.2581C34.9537 42.2596 36.2039 42.4668 36.7998 41.6316C37.1176 41.1863 37.1078 40.5728 37.0081 40.0577L36.2187 34.8285L34.3365 20.016L33.9751 15.123C33.9276 14.4379 33.923 13.7469 33.8384 13.0642C30.7241 12.4528 28.7146 9.85775 28.5138 6.77056C28.4979 6.52705 27.9349 6.64991 27.6838 6.65127ZM14.8146 6.65619C14.7458 6.96748 14.7164 7.26692 14.6721 7.58113L14.3051 10.8489C14.2723 11.1163 14.2195 11.3958 14.2399 11.6655C15.0646 11.4977 15.7845 11.0792 16.3902 10.4986C17.5711 9.33547 17.9175 8.2242 18.0965 6.65792L14.8146 6.65619ZM19.4389 6.66041C19.3664 6.9935 19.4155 7.33611 19.3495 7.66625C18.8447 10.1915 16.8908 12.7835 14.1667 13.0572L10.9623 40.3224C10.7298 42.0763 11.7625 42.2571 13.2938 42.2584L14.8794 42.2581L18.5893 42.2585L20.6133 30.1814L20.908 27.6316C20.9447 27.1055 20.9518 26.5709 21.0231 26.0481C21.234 24.5029 21.6756 22.9919 22.0408 21.4783C22.2391 20.6559 22.5394 18.4423 23.2474 17.9055L23.3143 17.8562C23.3797 17.7396 23.342 17.4126 23.342 17.2655L23.3408 7.65636C23.3408 7.33602 23.365 6.99247 23.3279 6.67536C23.1314 6.64695 22.9213 6.65689 22.7227 6.6567L19.4389 6.66041ZM24.6832 6.65619L24.6708 15.7377C25.0284 15.5759 25.3745 15.3396 25.6476 15.0576C26.3277 14.3164 26.3383 13.2817 26.3389 12.3376V7.8643C26.3387 7.46666 26.3643 7.05144 26.3251 6.65619H24.6832ZM29.8603 6.65834C29.8508 7.1105 29.9685 7.75227 30.1324 8.16594L30.3165 8.6713C30.8292 9.84814 31.6628 10.8495 32.8726 11.3657L33.7283 11.6777L33.1246 6.65872L29.8603 6.65834ZM11.4908 43.4309C11.3731 44.3813 11.6309 45.2038 12.7032 45.3367L12.7411 45.3417C13.0225 45.3754 13.3273 45.3534 13.6113 45.3528L16.4639 45.3544C16.99 45.3551 17.4434 45.3778 17.8834 45.0235L17.9682 44.9523C18.3381 44.5611 18.4216 44.1282 18.455 43.6072L12.0943 43.578C11.8957 43.5597 11.6839 43.4843 11.4908 43.4309ZM36.4506 43.4418L35.9904 43.5595C35.7625 43.6134 35.5033 43.5939 35.2696 43.5941L29.5642 43.5996C29.6059 44.114 29.6425 44.5826 30.0455 44.9579C30.2353 45.1165 30.415 45.2352 30.6563 45.2978L30.6826 45.3052C30.9958 45.3915 31.3865 45.3521 31.7086 45.3522L34.5773 45.3527C35.377 45.3523 36.2654 45.3365 36.5196 44.3675C36.5925 44.0898 36.5756 43.733 36.4869 43.4566L36.4506 43.4418Z" fill="black"/>
</svg>
