<svg width="48" height="48" viewBox="0 0 48 48" fill="none" xmlns="http://www.w3.org/2000/svg">
<path d="M27.0272 35.4319L23.9823 23.013L19.1549 42.5065C19.0077 42.9178 18.6429 43.1108 18.2307 43.1165L14.8826 43.3066L13.3625 43.3198C10.8116 43.3269 9.12976 43.072 6.71841 42.2345C4.39854 41.4287 3.52865 40.6631 3.83593 37.97L5.04544 24.1511L5.56313 16.335L5.83191 12.1292C5.84762 11.8123 5.89548 11.5059 5.9003 11.1861L5.89951 7.87545C5.88854 7.4863 5.84855 7.03128 5.98524 6.66087C6.45971 5.37528 7.38643 4.77664 8.68871 4.65043C9.42563 4.60644 10.187 4.64349 10.9267 4.64357L38.4809 4.64261C39.8941 4.64171 41.1191 4.79839 41.8332 6.26933C41.9111 6.42983 41.9434 6.59951 42.0136 6.7535L42.0425 6.81739C42.1244 7.02303 42.1015 7.28389 42.1017 7.50148L42.1069 11.6014C42.1131 11.7838 42.1491 11.9653 42.1589 12.1481L42.4167 16.4529C42.4606 16.8658 42.4588 17.3035 42.4764 17.7194L42.8585 23.2542L44.1681 37.9166C44.2234 38.4437 44.3482 39.0959 44.2183 39.6178L44.0491 40.1511C43.4043 41.6857 41.6851 42.1293 40.2267 42.5644C38.3058 43.1375 36.9116 43.3176 34.9103 43.3199L33.0052 43.3033L30.3232 43.1273C30.0443 43.1122 29.6676 43.1797 29.4108 43.0625L29.2382 42.9746C28.7784 42.6927 28.7032 41.9449 28.5835 41.4702L27.0272 35.4319ZM8.62599 6.33317C8.15443 6.38094 7.70204 6.61892 7.57308 7.11345L7.53605 7.25637C7.50343 7.39484 7.51627 7.54733 7.51646 7.68875L7.51566 9.20511C7.51505 9.35515 7.50038 9.50005 7.52771 9.64878L19.7753 9.63369C20.1296 9.63898 20.5294 9.68356 20.8792 9.64531L19.2653 6.33701L8.62599 6.33317ZM21.0866 6.32412L22.2401 8.70265C22.4268 9.07433 22.6061 9.50005 22.7263 9.89736C22.8615 10.3441 22.7856 12.4683 22.7323 12.9505C22.6547 13.6527 22.085 15.9838 21.2277 16.1901C20.4614 16.3745 19.9974 15.6135 20.313 14.9701L20.3281 14.9387C20.4477 14.696 20.6177 14.4774 20.7279 14.2304C21.1318 13.3257 21.1673 12.2626 21.1657 11.287L11.2023 11.2995C11.2622 14.7198 10.4941 19.4726 7.47652 21.4664L6.93882 21.7856C6.84146 21.8497 6.81305 22.9897 6.79632 23.156L5.67933 35.9522C5.6604 36.2199 5.62196 36.4848 5.62613 36.7536L8.47876 36.7458C9.00343 36.7459 9.54169 36.7231 10.064 36.7722C12.9007 37.0394 15.2011 38.5509 17.2325 40.4443L17.855 41.0455L21.4109 26.7723L22.7587 21.0604C22.8895 20.5032 22.8995 20.0893 23.4289 19.7586L25.76 18.2179C26.0911 17.9955 26.4802 17.5996 26.8828 17.5278L26.9157 17.5215C27.4347 17.4267 27.9965 17.8806 27.8952 18.4217L27.8905 18.4482C27.7918 18.9661 27.0353 19.3407 26.6271 19.6134L25.1128 20.6199C25.1088 20.723 25.1488 20.8192 25.1733 20.9178L27.4782 30.4743C27.4855 30.5124 27.4964 30.546 27.5085 30.5826L27.6655 31.2243C27.6727 31.2625 27.6835 31.2958 27.6957 31.3325L28.1353 33.0642C28.1467 33.1185 28.1398 33.0919 28.1575 33.1429L30.1003 40.7992C30.1189 40.8743 30.1591 40.9492 30.191 41.0196L30.8665 40.4167C33.0109 38.5013 35.0097 37.0312 38.0384 36.7746C38.9234 36.6997 40.7565 36.6869 41.6235 36.7752C41.878 36.8012 42.1429 36.8652 42.4005 36.8403L41.319 24.536C41.304 24.3703 41.2748 24.2075 41.2678 24.0409L41.1846 23.0506C41.1716 22.8573 41.1452 21.8389 41.0594 21.7572C40.9879 21.6891 40.8435 21.6309 40.7563 21.5764C37.5033 19.542 36.6626 14.8973 36.7763 11.2888C36.0464 11.2398 35.2872 11.2797 34.5544 11.2797L27.1827 11.2803C27.0568 11.2804 26.9191 11.2687 26.7948 11.2889C26.6929 14.2928 29.0505 14.3256 29.2572 15.1496L29.2899 15.2889C29.4054 15.76 28.9988 16.1476 28.5569 16.1915C28.1077 16.236 27.2071 15.6712 26.8748 15.3839C25.3499 14.0649 25.1456 12.7807 25.1527 10.9281C25.1537 10.6628 25.1378 10.3786 25.1775 10.1159C25.3509 8.96755 26.3282 7.38392 26.8398 6.33626L21.0866 6.32412ZM28.6748 6.33317L28.6654 6.36115C28.5649 6.59661 28.4261 6.81495 28.3081 7.04187L27.5875 8.47245C27.4348 8.78431 27.2138 9.39664 27.077 9.62764L38.9414 9.63369L40.4831 9.63308C40.5274 9.21959 40.5007 8.78089 40.5009 8.36445L40.5006 7.66765C40.4994 7.01689 40.1434 6.35553 39.4237 6.33106L28.6748 6.33317ZM7.63941 11.2806L7.50737 11.3022L7.0089 19.7388C7.34335 19.4055 7.65198 19.0628 7.92155 18.674C8.99302 16.8909 9.55932 14.2977 9.56546 12.1898L9.56391 11.5943C9.56307 11.5049 9.57465 11.3867 9.55168 11.3011L7.63941 11.2806ZM38.4399 11.2815C38.2635 12.8348 38.6069 15.1094 39.1242 16.6346L39.1991 16.8725C39.4734 17.8008 40.2027 18.9861 40.9336 19.6447C40.9764 19.5741 40.9503 19.5335 40.9414 19.4529L40.6289 14.653C40.5708 14.0017 40.509 13.2637 40.5041 12.6123L40.4998 11.2812L38.4399 11.2815ZM7.85696 38.3642L5.42752 38.5089C5.35463 38.8305 5.32758 39.3296 5.50599 39.6186L5.52971 39.656C6.27071 40.8391 10.4758 41.5721 11.7196 41.6377L13.623 41.6473L16.0161 41.5317C15.7748 41.3548 15.5497 41.1456 15.319 40.9541L14.255 40.1255C12.1471 38.585 10.3213 38.3552 7.85696 38.3642ZM38.9679 38.3715C36.6446 38.4712 35.1089 39.1195 33.3195 40.4839L32.5078 41.1524C32.3559 41.2811 32.1863 41.3965 32.0473 41.5392L32.0296 41.5585C32.4509 41.637 32.8925 41.6164 33.3194 41.6249L35.7539 41.6473C37.6592 41.5758 39.4939 41.1718 41.2623 40.4678C42.2507 40.0743 42.8232 39.7369 42.5736 38.5258L38.9679 38.3715Z" fill="black"/>
</svg>
