<svg width="48" height="48" viewBox="0 0 48 48" fill="none" xmlns="http://www.w3.org/2000/svg">
<path d="M25.723 43.8548L20.2147 43.8549C18.9246 43.8543 17.692 43.6322 16.4409 43.314C16.0553 43.2159 15.4175 43.2034 15.3959 42.6759C15.3786 42.2522 15.3774 41.8007 15.402 41.3774L15.5701 38.3372L15.6653 35.9545L15.762 31.5822L15.8695 28.8166C15.8838 28.5047 15.9402 28.198 15.9501 27.8857L15.9835 24.3665C15.9514 24.5271 15.8763 24.6381 15.8196 24.7864L9.99562 38.9195C9.30074 40.4933 6.86709 39.2871 5.82941 38.7619C5.26832 38.478 4.09003 38.013 4.20176 37.1977C4.24604 36.8746 4.46327 36.5294 4.58237 36.2223L7.69635 27.4047L11.4807 15.8147C12.1489 13.9312 13.2564 12.679 15.1829 11.969C16.001 11.6674 17.0824 11.2603 17.1085 10.1787C17.1156 9.88314 16.9656 9.54484 16.8919 9.25989C15.7914 5.01029 18.9655 4.13404 22.4948 4.10996L24.2143 4.08008L26.3399 4.20331C27.5741 4.27119 28.9835 4.39428 30.0472 5.09078C31.3307 5.9312 31.513 7.58472 31.1844 8.96397C31.045 9.54911 30.747 10.1589 31.0334 10.7463C31.3961 11.49 31.8839 11.6251 32.6189 11.8863C34.8839 12.6915 36.0921 14.1841 36.7283 16.4299L36.9227 17.0544C36.9547 17.1919 36.9984 17.3459 37.0464 17.4773L38.4522 21.8935L42.3583 33.2829C42.4499 33.6366 42.6241 33.9906 42.7482 34.3361L43.4112 36.2097C43.5324 36.5112 43.9053 37.0338 43.8234 37.3634L43.8113 37.4068C43.5925 38.2159 42.6131 38.5174 41.9534 38.8543C40.9887 39.347 39.9771 39.9251 38.8296 39.6037L38.7894 39.5915C38.0372 39.375 37.9328 38.8163 37.6948 38.1722L33.2113 27.2111C32.7947 26.2424 32.3038 25.2917 31.9679 24.2909C31.9246 24.5363 31.9432 25.2842 31.9916 25.4958C32.0808 25.8858 32.0522 26.3265 32.0523 26.7255L32.1621 32.0391C32.1684 32.2631 32.21 32.4823 32.222 32.705L32.3269 34.9338L32.3489 36.6489C32.3594 36.8898 32.4088 37.1233 32.4214 37.3638L32.6061 41.9121C32.6768 43.1603 32.7576 43.0027 31.5593 43.3151C30.9649 43.4701 30.3759 43.6618 29.7663 43.7494L29.3441 43.7894C29.2014 43.8054 29.0633 43.8415 28.9192 43.8489L25.723 43.8548ZM21.9776 5.32628L20.9973 5.40939C20.161 5.49273 19.291 5.63828 18.5795 6.12184C20.1834 6.64586 22.3528 6.56073 24.0138 6.55947C24.678 6.55895 25.3731 6.59668 26.0336 6.52398L27.2028 6.47898C27.9646 6.43408 28.7172 6.31806 29.4647 6.17148C28.3677 5.49278 26.7421 5.39973 25.4449 5.33842L21.9776 5.32628ZM17.9136 7.18379C17.8096 7.63084 17.884 8.3724 17.9957 8.80009C18.1659 9.45165 18.3747 9.89397 18.2601 10.5881C17.8694 12.955 15.5287 12.7076 14.087 13.9432C14.3289 14.4988 14.6721 15.0058 14.9742 15.5291L16.6147 18.5928C16.6892 18.7498 16.7496 18.9363 16.79 19.1053L16.9245 19.5705C17.1197 20.284 17.1547 21.0515 17.1555 21.7861L17.1262 27.5028C17.1135 27.6486 17.0786 27.7858 17.0727 27.9343L17.0189 30.6739C17.0065 30.8651 16.9616 31.0501 16.9538 31.2438L16.8561 35.4377C16.8393 35.7503 16.7768 36.0499 16.7658 36.3635L16.7496 38.1264C16.7484 38.1746 16.7531 38.2087 16.7631 38.2551L30.7123 38.2517C30.8774 38.2513 31.0566 38.2604 31.2191 38.2314L30.7816 21.5665C30.824 19.6867 31.1205 18.8881 32.0418 17.346L32.9589 15.85C33.1513 15.5429 34.0949 14.1665 33.9959 14.0622C33.1578 13.1797 32.2927 13.1806 31.3574 12.7335C30.3142 12.2348 29.6974 11.1381 29.721 9.99629C29.7293 9.59326 29.9013 9.21775 29.9993 8.83201C30.0791 8.51837 30.2325 7.51754 30.1208 7.19256C29.3877 7.51736 28.427 7.6555 27.6171 7.67636L26.8881 7.69379C26.7749 7.69679 26.6441 7.68733 26.5345 7.71376L26.5323 15.2079C26.5322 15.4658 26.5558 15.7454 26.5289 15.9997C26.4711 16.5454 25.6459 16.6376 25.4087 16.1252L25.3938 16.0937C25.2658 15.8133 25.3364 15.4095 25.3364 15.1091L25.3323 7.76781L22.6505 7.76392C22.594 8.4685 22.6328 9.1997 22.6319 9.90751L22.6371 15.3687C22.6377 15.5752 22.6622 15.8208 22.6214 16.0229C22.501 16.6198 21.544 16.584 21.469 16.0288C21.4484 15.8765 21.4633 15.7007 21.4632 15.5461L21.4641 14.5537C21.4639 13.8579 21.5065 7.89742 21.4365 7.76162C20.5816 7.69051 19.6981 7.63778 18.856 7.47704C18.5684 7.42211 18.0784 7.20034 17.9136 7.18379ZM13.2215 14.887C12.7613 15.6118 12.5394 16.4292 12.2796 17.2385L9.22298 26.6142L6.29779 35.0151C6.04621 35.7456 5.71045 36.4611 5.48816 37.1994C6.00182 37.5708 7.69902 38.3408 8.25773 38.4357C8.84821 38.4414 8.85913 38.598 9.04724 38.0861L14.262 25.4177C14.6976 24.3935 15.1037 23.3105 15.7621 22.4028C15.9948 22.0821 15.9609 22.2278 15.9604 21.8012C15.9588 20.3439 15.7877 19.4735 15.0614 18.1384L13.5849 15.5298C13.4671 15.3182 13.3266 15.1032 13.2215 14.887ZM34.8824 15.0531L32.7138 18.6057C32.0948 19.7199 31.8123 20.7519 31.9917 22.0666C32.0107 22.2059 32.123 22.3074 32.1969 22.4182L32.604 23.089C33.5112 24.5993 34.0559 26.3222 34.7979 27.9139L38.8639 37.8986C39.1044 38.4856 39.0669 38.4416 39.7093 38.4132C40.3429 38.3342 41.9857 37.5728 42.5619 37.1726C42.2004 36.4171 41.9269 35.6094 41.6473 34.8202L36.8294 20.7821L35.5504 16.5939C35.3681 16.0603 35.1387 15.5549 34.8824 15.0531ZM16.7931 39.4546L16.6912 39.463C16.6389 39.694 16.623 40.6762 16.6049 41.0355L16.5794 42.0893C16.9175 42.2425 18.3316 42.5275 18.6954 42.5636L19.8519 42.656L27.0572 42.6604C28.0383 42.6602 28.9838 42.652 29.9534 42.4635L30.8314 42.247L31.4248 42.0736L31.398 41.0568C31.368 40.6394 31.3578 39.7663 31.2854 39.4601L16.7931 39.4546Z" fill="black"/>
</svg>
