<svg width="48" height="48" viewBox="0 0 48 48" fill="none" xmlns="http://www.w3.org/2000/svg">
<path d="M24.8316 40.1013C24.5055 39.9375 24.2564 39.7348 24.0161 39.4613C23.1364 40.2843 22.3837 40.4789 21.2428 40.48L18.5073 40.4799C18.2299 40.4796 17.9334 40.5007 17.6592 40.4627C15.8986 40.2184 14.6652 38.9362 14.3432 37.2067C14.2144 36.5144 14.3076 35.8341 14.2508 35.1362C12.1114 37.8889 8.05822 36.1241 8.53236 32.8216C8.59935 32.3551 8.7486 31.8815 8.87104 31.4272L13.1835 15.0869C13.4944 13.8487 14.2194 12.6424 15.4206 12.0935L16.0455 11.8341C16.5467 11.6448 16.324 11.7144 16.4143 11.1875L16.4201 11.156C16.5042 10.6639 16.9248 10.3587 17.2799 10.0501L18.0747 9.37935C18.5609 8.98049 18.3714 9.26099 18.4742 8.68884C18.6286 7.82943 19.9287 7.74548 20.592 7.68168L22.6326 7.53613L27.3369 7.58371C28.0725 7.63827 29.0297 7.70024 29.421 8.44195L29.4369 8.47237C29.6429 8.84896 29.3645 8.94384 29.7948 9.30426C30.6945 10.0578 31.6168 10.4675 31.5521 11.7625C32.7163 12.0915 33.3885 12.4406 34.1446 13.4662C34.3198 13.7039 34.5028 13.9735 34.6059 14.252L34.6881 14.4841C34.8335 14.8707 34.8677 15.3036 34.9686 15.7028L35.1463 16.4345C35.1692 16.5359 35.2117 16.6309 35.2325 16.7336L35.5161 17.8239C35.5751 18.1827 35.724 18.5321 35.7955 18.8883L35.9834 19.6521C36.0165 19.8459 36.0848 20.049 36.1411 20.238L36.2816 20.8122C36.3545 21.0682 36.3988 21.3447 36.4834 21.5942L36.7334 22.5201C36.7428 22.5658 36.7505 22.6059 36.7653 22.6504L37.2013 24.2806C37.224 24.4075 37.2742 24.5238 37.2966 24.651L37.892 26.8686C37.9847 27.1174 38.1845 27.9163 38.2391 28.1949L38.3311 28.5399C38.3991 28.9035 38.5209 29.3092 38.6405 29.6571L38.7996 30.2505C38.8261 30.3872 38.8686 30.5339 38.9065 30.6677L39.218 31.7534C39.2914 32.0184 39.3752 32.285 39.432 32.5539C39.9132 34.8337 38.0012 36.9406 35.6484 36.4208C34.9159 36.2589 34.1583 35.808 33.7527 35.1611L33.7385 35.138C33.6571 35.7298 33.8135 36.3658 33.6983 36.9548C33.609 37.4113 33.5303 37.8092 33.3276 38.2351C32.4746 40.0267 31.1605 40.4793 29.3576 40.4804L26.659 40.4797C25.992 40.4788 25.4468 40.3993 24.8316 40.1013ZM22.09 8.98204L19.8302 9.15454C20.0465 9.46635 20.2368 9.7866 20.4822 10.0784C21.3194 11.0737 22.1088 11.7041 22.8343 12.8887C23.2204 13.5192 23.4366 14.2247 23.7385 14.892C23.8408 15.1184 23.8859 15.3523 24.0208 15.5676L24.5393 14.1679C24.9524 13.2063 25.429 12.3804 26.1206 11.5901C26.8018 10.8116 27.7499 10.0737 28.1769 9.10757C27.6902 9.0179 27.2289 8.98213 26.7338 8.98049L22.09 8.98204ZM18.9893 10.5143C18.5991 10.8134 18.1793 11.1112 17.8346 11.4614C18.4618 13.328 20.1944 15.0152 21.9492 15.8899L22.702 16.2641C21.8402 13.9964 21.568 13.3747 19.9506 11.6292L18.9893 10.5143ZM29.0057 10.5363C28.7402 10.8376 28.513 11.1644 28.2401 11.4622L27.0419 12.7155C26.3412 13.5188 25.9165 14.5058 25.5405 15.4912L25.3225 16.0767C25.3026 16.1312 25.2519 16.2336 25.2548 16.2886L26.0398 15.8891C27.8846 14.7908 29.4045 13.5693 30.12 11.4141C29.7801 11.1125 29.3891 10.7889 29.0113 10.5404L29.0057 10.5363ZM16.9075 13.0661C16.1125 13.2645 15.5002 13.6547 15.0271 14.3258C15.1838 14.6603 15.2873 15.0118 15.3996 15.363L17.4629 21.5238C17.8456 22.8366 17.2765 24.1395 16.9716 25.406L15.3818 31.465C15.2661 31.9431 15.5149 32.462 15.6561 32.9177C15.7771 33.3084 15.7266 33.6892 15.7266 34.0948L15.7266 36.1799C15.7269 36.5925 15.6879 37.0264 15.8533 37.4173C16.3627 38.6205 17.0403 39.0161 18.25 39.0171L19.1835 39.0164L21.581 39.0161C22.2442 39.0142 22.8014 38.7556 23.1175 38.132L23.2048 37.9316C23.3181 37.6435 23.2575 37.2336 23.2564 36.9255L23.254 17.8683C20.8763 17.4205 18.6631 15.5931 17.3186 13.6157L17.1097 13.2771C17.0692 13.2035 17.0333 13.0799 16.9583 13.0462L16.9075 13.0661ZM30.9839 13.0741C29.6572 15.1609 27.5623 17.2474 25.0621 17.8016L24.7312 17.8471L24.7273 37.2292C24.7266 37.7654 24.6771 37.9296 24.9981 38.3855C25.2481 38.7405 25.7566 39.0123 26.1935 39.016L28.916 39.0164C30.2195 39.0168 31.3312 39.0674 32.0026 37.6988C32.2943 37.1043 32.2682 36.5579 32.2686 35.9142L32.2673 33.6192C32.267 33.4643 32.2481 33.2993 32.2637 33.1462C32.3181 32.6094 32.6393 32.1421 32.5625 31.5692C32.4954 31.0683 32.3029 30.5525 32.1764 30.0614L30.6501 24.0539C30.071 21.7537 30.6419 21.3124 31.3535 19.1397L32.1437 16.7371C32.4084 15.9126 32.6493 15.101 32.9937 14.3067C32.3589 13.3829 31.9026 13.3846 30.9839 13.0741ZM33.7192 16.5437L32.2191 21.0166C31.8494 22.1173 31.6901 22.1079 31.9291 23.2511C32.0313 23.74 32.1318 24.262 32.2897 24.7352L32.8214 26.8173C32.8288 26.8561 32.8399 26.8896 32.8523 26.9268L33.6911 30.1417C33.7592 30.3544 33.7928 30.5818 33.8685 30.7911L34.0406 31.4462C34.0481 31.4841 34.0591 31.5166 34.0711 31.5529L34.7734 34.0301C34.9778 34.6423 35.5595 35.023 36.1813 35.0859C37.3224 35.0776 38.2662 34.2467 38.0731 33.0539C38.0252 32.7578 37.9225 32.4528 37.8362 32.1651L34.1522 18.2394C34.007 17.675 33.832 17.1157 33.7192 16.5437ZM14.2747 16.5542C14.1988 16.9358 14.0736 17.3045 13.979 17.681L10.0963 32.3651C10.0326 32.6228 9.94494 32.8958 9.92169 33.1603C9.84946 33.9823 10.3882 34.9013 11.2379 35.0626C11.4372 35.1005 11.6446 35.0854 11.8467 35.082C13.2083 34.9011 13.3343 33.5497 13.62 32.4738L16.0924 23.1501C16.3121 22.1695 16.0732 21.8887 15.7594 20.9607L14.4207 16.9899C14.3703 16.8435 14.309 16.706 14.2747 16.5542Z" fill="black"/>
<path d="M16.3191 29.6657C16.3598 29.3835 16.4379 29.1037 16.488 28.8228C16.5671 28.3804 16.551 27.8807 17.0604 27.7028C17.1972 27.6551 17.4184 27.642 17.5538 27.7073L17.5779 27.7196C17.71 27.7822 17.8079 27.8465 17.8887 27.9723L17.9105 28.0074C18.0981 28.304 17.9677 28.6703 17.9086 28.9918L17.5703 30.8419C17.5072 31.1317 17.3489 31.5385 17.4216 31.8312C17.4867 32.0934 17.8836 32.2044 17.9928 31.9139C18.0645 31.7234 18.0752 31.4548 18.1155 31.249L18.6187 28.693C18.7099 28.1629 18.7638 27.8002 19.3314 27.611C19.4194 27.6038 19.5016 27.5949 19.5872 27.6211L19.7693 27.6852C20.3442 27.9726 20.1119 28.6357 20.0072 29.1177L19.6169 31.066C19.4165 32.1228 19.4041 33.0931 18.1323 33.4228L18.1007 33.4307C17.4396 33.6091 16.7299 33.3111 16.3451 32.7607C15.7578 31.9207 16.0927 30.8341 16.2648 29.9157L16.3191 29.6657Z" fill="black"/>
<path d="M31.5095 29.4785L31.77 30.7249C31.8452 31.2485 32.0395 31.6356 31.8847 32.179L31.7974 32.4514C31.2322 33.8819 29.1281 33.7231 28.5959 32.3697C28.4901 32.1004 28.4514 31.8274 28.4001 31.5457L27.9181 29.0801C27.8067 28.485 27.6162 27.8908 28.3677 27.6374C29.2516 27.573 29.2295 28.3776 29.3386 29.0265C29.3777 29.2585 29.4495 29.4867 29.4933 29.717L29.8556 31.5208C29.8873 31.7 29.8906 32.0146 30.1287 32.0578C30.6724 32.1565 30.4674 31.4634 30.4117 31.1836L29.9831 29.0218C29.9456 28.7804 29.8788 28.4783 29.9158 28.2362C30.0101 27.6184 30.9051 27.4504 31.205 27.9946L31.2183 28.0196C31.2775 28.1248 31.3075 28.256 31.3245 28.3755L31.5095 29.4785Z" fill="black"/>
</svg>
