<svg width="48" height="48" viewBox="0 0 48 48" fill="none" xmlns="http://www.w3.org/2000/svg">
<path d="M28.9416 40.4798C27.418 40.4835 26.135 40.4662 24.6604 39.9292L24.2277 39.7642C24.0085 39.6741 23.9874 39.7175 23.7656 39.7932L22.867 40.0904C21.7571 40.3994 20.5707 40.483 19.422 40.4816C18.0849 40.4799 16.9395 40.1599 16.1096 38.9929C15.8555 38.6356 16.0703 38.6865 15.5766 38.6905L13.5909 38.694C12.6592 38.6946 12.1761 38.8208 12.1797 37.7518L12.1969 27.6537C12.2043 27.4942 12.2432 27.3476 12.2557 27.1927L12.3599 25.8846C12.5478 23.9331 12.8216 21.9547 13.2836 20.0466L14.3127 16.425C14.6212 15.2461 14.991 14.2623 16.0243 13.5031L16.3886 13.2469C16.4632 13.1955 16.5168 13.2031 16.5013 13.1123C16.4007 12.5263 16.166 10.2904 16.248 9.692C16.3996 8.58524 17.3197 7.74988 18.3884 7.52872L28.2803 7.51705C28.7061 7.5171 29.1549 7.48822 29.5779 7.52305C30.4386 7.59388 31.2943 8.32424 31.5927 9.10607C31.8553 9.79424 31.7573 10.4086 31.6966 11.1239L31.5391 12.7257C31.4534 13.4433 31.4809 13.0218 32.0628 13.5504C32.6159 14.0527 33.1586 14.7476 33.3891 15.4671L33.7365 16.6329C33.7813 16.8696 33.8655 17.1655 33.9516 17.3938L34.2966 18.5809C34.3799 19.0216 34.5648 19.651 34.688 20.11L35.3907 23.7311L35.7948 27.8443L35.809 36.4955C35.8089 37.0252 35.8348 37.57 35.8065 38.0982C35.7806 38.5813 35.3509 38.6922 34.9668 38.6933L32.9195 38.695C32.6635 38.6947 32.3922 38.7131 32.1382 38.6803L32.1127 38.6767C31.3983 39.8064 30.3076 40.4499 28.9416 40.4798ZM18.5632 8.98255C18.1636 9.04808 17.8542 9.26629 17.6931 9.63341L17.675 9.67396C17.5315 10.0066 17.6497 10.3542 17.6746 10.6982L17.8678 12.9991C19.0748 14.712 20.6854 15.9232 22.6363 16.7119L23.2625 16.9603L23.2655 8.99066L18.5632 8.98255ZM24.7145 8.98138L24.7281 16.938C25.6947 16.8166 27.6561 15.5157 28.3651 14.9259C28.816 14.5454 30.0572 13.4056 30.1078 12.8328L30.3108 10.6998C30.3837 9.97921 30.5002 9.50957 29.7652 9.07653L29.7325 9.05699C29.5137 8.92968 29.226 8.98096 28.983 8.9811L24.7145 8.98138ZM17.1571 14.4214C15.9586 15.2372 15.9525 15.8634 15.5709 17.1251C15.2019 18.3449 14.7868 19.5733 14.5348 20.8236L13.9906 23.8099L13.6579 27.07C13.5692 27.9451 13.5718 28.6295 13.5708 29.5137L13.5728 37.2668L15.5165 37.2812L15.5131 33.507C15.5137 32.6041 15.4813 31.6846 15.5818 30.7858C15.7833 28.983 16.3266 27.2209 16.4269 25.4049C16.4955 24.1632 16.4439 22.88 16.2381 21.6546L16.1061 20.9406C15.8933 19.779 17.1236 19.6759 17.3655 20.4029C17.7418 21.5337 17.832 22.9604 17.8274 24.1354L17.8142 25.57C17.7125 27.3809 17.16 29.1385 16.955 30.9381C16.8956 31.4595 16.9198 32.0175 16.9197 32.5428L16.9235 36.691C16.9283 37.9419 17.1137 38.4722 18.4522 38.9808C18.7143 39.0804 20.6877 39.0281 20.991 39.0027C21.4514 38.9642 21.9345 38.8556 22.3826 38.7423L22.9821 38.5733C23.0516 38.5515 23.1264 38.5416 23.192 38.5099L23.2704 38.4675L23.2638 18.3871C21.2851 18.0456 18.5966 16.191 17.3867 14.7105C17.3093 14.6158 17.2413 14.5096 17.1571 14.4214ZM30.8568 14.3995C29.702 15.8853 26.9739 17.9104 25.0544 18.3306C25.0177 18.3386 24.7421 18.3701 24.7259 18.3868C24.7221 18.3906 24.7267 20.603 24.7266 21.1847L24.7176 38.4223C25.6424 38.9568 27.4634 39.0206 28.4958 39.0189C29.5672 39.0171 30.6065 38.8683 31.0139 37.6595C31.1116 37.37 31.1021 36.9821 31.1038 36.678L31.104 33.0576C31.1037 32.3274 31.1134 31.5942 31.0253 30.8678C30.744 28.5475 30.017 26.4902 30.1611 24.067C30.1594 23.4021 30.2913 20.5952 30.7849 20.1082C31.1398 19.758 31.631 19.9484 31.8291 20.3443L31.8415 20.3675C31.9975 20.6702 31.8296 21.1559 31.7817 21.4693C31.401 23.9619 31.4917 26.4076 32.1005 28.8557L32.4764 31.3707C32.5158 31.5615 32.5035 31.7714 32.5036 31.9658L32.5019 36.8864C32.5019 37.0091 32.4889 37.1488 32.512 37.2681L34.4194 37.2658L34.4061 28.2221L34.1488 25.0904C33.9268 23.2849 33.6169 21.5 33.1689 19.7344L32.3488 16.8757C32.0777 15.8627 31.9925 15.445 31.1686 14.6526L30.8568 14.3995Z" fill="black"/>
<path d="M21.1217 37.273C20.7195 37.4542 20.3932 37.4788 19.9606 37.4793C18.8059 37.4807 17.9283 37.3469 17.4117 36.1579L17.3649 36.0555C17.1277 35.6154 17.2566 33.91 17.2569 33.3501L17.2586 32.3962C17.2629 31.5639 17.5653 31.0142 18.4195 30.7768L20.3209 30.7665C20.6172 30.7667 20.9332 30.7427 21.2261 30.7737C22.799 30.9406 22.4747 33.2126 22.4721 34.3183C22.469 35.6478 22.5337 36.5517 21.1217 37.273ZM18.7577 32.2316L18.6971 34.56C18.6885 35.9878 18.674 36.3133 20.1211 36.2335C20.3647 36.22 20.4755 36.1847 20.6764 36.0534C21.1193 35.6243 21.0215 35.2252 21.0218 34.6591L21.0212 32.5062C21.0212 32.437 21.0361 32.3266 21.0194 32.2611L18.7577 32.2316Z" fill="black"/>
<path d="M29.3639 37.3183L29.1913 37.3768C28.8593 37.466 28.5429 37.4794 28.2017 37.4802C26.864 37.4835 25.9176 37.0357 25.5615 35.6046C25.4894 35.3152 25.5186 34.9831 25.5181 34.6858L25.5184 33.2628C25.5189 32.1101 25.4179 31.1124 26.7889 30.777L29.3118 30.7677C29.4621 30.7681 29.6163 30.7542 29.7576 30.8147L29.9413 30.8944C30.9819 31.4141 30.7286 32.7121 30.7288 33.6602C30.729 35.1822 31.0198 36.517 29.3639 37.3183ZM26.9517 32.2299L26.9631 35.2238C26.9674 36.1849 27.5515 36.2492 28.322 36.2278C28.6149 36.2197 28.8275 36.2007 29.0518 35.9875C29.332 35.6591 29.2883 35.4148 29.2859 35.0022L29.2809 32.8219C29.2809 32.6352 29.2927 32.4393 29.278 32.2538L26.9517 32.2299Z" fill="black"/>
</svg>
