<svg width="48" height="48" viewBox="0 0 48 48" fill="none" xmlns="http://www.w3.org/2000/svg">
<path d="M30.5908 41.0716C29.6766 41.2351 28.7398 41.3513 27.813 41.4122L25.7544 41.5071L21.6367 41.5119C20.8822 41.5073 20.1107 41.4323 19.3601 41.3578C16.7417 41.0981 12.7447 40.5524 12.7351 37.1587L12.7374 32.2853L12.6337 28.2639C12.559 28.4393 12.4238 28.6142 12.3259 28.7813L10.1832 32.4398C9.99352 32.7435 9.82041 33.0939 9.60709 33.3784L9.56293 33.4357C9.3368 33.7676 9.5957 35.0949 9.52571 35.7071C9.17804 38.7478 4.59455 38.3456 2.75087 36.9564C1.30223 35.865 1.40272 33.5907 2.36322 32.1841L2.55268 31.9262C2.69394 31.7395 2.63008 31.526 2.65664 31.3031L2.83654 30.1826C3.33589 27.3894 4.19051 24.6502 5.27851 22.0328L6.2694 19.7253L8.2696 14.0523C9.47935 11.0311 10.9223 8.63948 14.3888 7.80108L14.7946 7.70911C15.0974 7.64808 15.1569 7.55381 15.3972 7.36491C16.1179 6.79819 16.9189 6.57295 17.8301 6.52734C18.5775 6.55781 19.22 6.77775 19.9462 6.92587C20.7847 7.09688 21.6222 7.19822 22.4762 7.25428L23.1443 7.30739C24.2465 7.34639 25.361 7.25634 26.4512 7.0972L27.9592 6.85064C29.2852 6.59888 30.4433 6.30933 31.7407 6.97631C32.0926 7.15725 32.4209 7.38637 32.7918 7.52864C33.44 7.77717 34.1236 7.91222 34.7556 8.20889C36.9626 9.24488 38.1984 10.5403 39.186 12.7501C39.3445 13.1048 39.5372 13.4749 39.6663 13.8398L40.5004 16.0313C40.6984 16.5146 40.8378 17.0389 41.0035 17.536L41.2008 18.1407C41.3718 18.6568 41.5064 19.1981 41.7188 19.6993L43.6083 24.4016L44.6083 27.4657C44.6173 27.5104 44.6241 27.5495 44.6389 27.5928L44.7065 27.836C44.7419 28.032 44.8233 28.2357 44.8693 28.4324L45.2329 29.9767C45.4003 30.6772 45.346 31.692 45.6676 32.212L45.8432 32.5196C46.354 33.4061 46.4747 34.4928 46.1976 35.4786C45.8032 36.8817 44.5851 37.5246 43.2661 37.8366C40.056 38.596 37.6261 37.0232 38.6446 33.647C38.1191 32.7025 37.4769 31.8337 36.9272 30.9057L35.8981 29.0931C35.7071 28.762 35.5419 28.4257 35.2876 28.1363C35.224 28.463 35.2478 28.811 35.2478 29.1427L35.2468 36.9373C35.2457 39.7361 33.0484 40.609 30.5908 41.0716ZM17.5282 7.90697C17.0326 7.98647 16.6021 8.1615 16.1977 8.45691C17.7459 10.2885 19.5209 10.7503 21.7071 11.1999L21.7274 10.2057C21.726 9.99281 21.669 9.71119 21.7205 9.50695C21.838 9.04158 22.533 8.92261 22.8318 9.28369L22.9695 9.47728C23.1475 9.73462 23.0256 10.9227 23.039 11.2946C23.6592 11.2936 24.3191 11.3354 24.9342 11.2622L24.9242 10.126C24.9299 9.56034 24.9911 9.15961 25.6468 9.01612C26.6108 9.33169 26.2679 10.2771 26.3011 11.07L26.6622 11.0337C28.4483 10.6885 30.5063 9.98484 31.7159 8.54794C30.9867 8.01394 30.2667 7.82733 29.3757 7.97559L27.9141 8.25891C25.2889 8.75625 23.1157 8.81831 20.4514 8.41866L19.2764 8.1915C18.6957 8.05463 18.1361 7.83473 17.5282 7.90697ZM32.9525 9.02517L32.3336 9.95353L33.4117 11.6849C33.5769 11.9634 33.7621 12.237 33.9093 12.5253L34.7064 14.2822L35.2853 16.1269C35.3882 16.4659 35.3209 16.8745 35.2901 17.22L35.2494 26.4075C36.2269 26.8369 36.638 27.5656 37.1276 28.4532L39.3134 32.1143C39.4762 32.3781 39.7039 32.6674 39.8118 32.9583L39.9706 33.4552C40.1727 34.0742 39.7194 34.716 39.8004 35.3438C40.0028 36.9127 42.1327 36.7849 43.271 36.4092L43.6809 36.2715C44.8737 35.8127 45.2718 34.7243 44.8036 33.5421C44.6507 33.1559 44.2902 32.8302 44.1961 32.4376L44.1898 32.4122C44.129 32.1463 44.1261 31.5359 44.0694 31.172L43.4649 28.4662C42.9079 26.405 42.1657 24.4073 41.3735 22.4266L40.4186 20.1159L38.5174 14.6392C37.2296 11.4071 36.1636 10.1455 32.9525 9.02517ZM14.9944 9.08213C13.4962 9.35827 11.8524 10.3922 10.977 11.6703C10.4708 12.4093 10.1234 13.2012 9.7771 14.022L7.60815 20.0414C7.29249 20.8988 6.87071 21.7138 6.53307 22.5614C5.30382 25.6473 4.495 28.4725 3.94191 31.726C3.77759 32.6926 4.18937 32.1761 3.47987 33.0353C3.1041 33.4903 2.89745 34.2118 3.01243 34.7946L3.06574 35.0146C3.19011 35.5955 3.72093 35.9832 4.22756 36.2183C5.42251 36.6817 8.04259 37.1371 8.19305 35.2904C8.24002 34.7142 8.06298 34.1532 8.1512 33.5781C8.31544 32.5075 9.36873 31.1645 9.90619 30.2271L10.7783 28.6904C11.1899 27.9504 11.7687 26.7692 12.6531 26.4977C12.683 26.4886 12.6991 26.4774 12.7211 26.4555L12.7309 17.5581C12.7265 16.7718 12.5851 16.7463 12.782 15.8949L13.3416 14.1438C13.9234 12.6447 14.8018 11.3233 15.6449 9.96436C15.4244 9.69455 15.2037 9.40702 15.0462 9.09492L14.9944 9.08213ZM31.2105 10.718C29.8113 11.7004 27.9798 12.2875 26.2762 12.4755C26.2288 12.7909 26.2469 13.1224 26.2463 13.4412L26.2441 21.7224C26.2444 22.185 26.3425 22.6166 25.7926 22.7957L25.7631 22.8056C25.395 22.9224 24.9582 22.6447 24.9294 22.2525C24.9032 21.8958 24.9206 21.5261 24.9201 21.1679L24.9155 12.6278L23.068 12.7225L23.061 21.5329C23.0616 21.794 23.089 22.0899 23.0551 22.3479C22.9813 22.9086 21.9012 23.0679 21.7519 22.3112C21.714 22.119 21.7417 21.8769 21.7416 21.6786L21.7419 13.3378C21.742 13.087 21.7658 12.8075 21.7331 12.5598C20.2826 12.4638 18.9387 11.9772 17.6694 11.291L16.7546 10.7592L15.3453 13.0778C14.8024 14.0475 14.0379 15.7643 14.0404 16.9103L14.0407 20.6427L14.0426 31.3051C14.0459 31.8505 14.1061 32.3891 14.108 32.9031C14.1092 33.2443 14.0568 33.5721 14.0492 33.9106L14.0423 36.3462C14.0423 37.2211 13.9609 37.8072 14.6504 38.4988C15.9911 39.8436 19.9156 40.0583 21.7432 40.1213L25.0157 40.1229C25.3392 40.1209 25.6578 40.0775 25.9801 40.0664L28.5699 39.9302L30.2574 39.6801C31.6896 39.435 33.5923 39.0762 33.8954 37.3862C33.9331 37.176 33.9117 36.9464 33.9115 36.7331L33.9099 18.5293C33.9103 18.0064 33.8624 17.4113 33.9708 16.9007C34.2165 15.7434 32.1264 12.1299 31.4973 11.1799L31.2105 10.718Z" fill="black"/>
</svg>
