<svg width="48" height="48" viewBox="0 0 48 48" fill="none" xmlns="http://www.w3.org/2000/svg">
<path d="M31.9566 36.724L31.7767 36.8131C31.2841 37.0343 30.8736 37.0151 30.347 37.0153L17.8859 37.0166C17.3588 37.0165 16.8774 37.0595 16.3764 36.8674L15.9174 36.6591C15.0107 36.1484 14.2737 35.1718 13.9974 34.1747L13.4155 36.7792C13.2369 37.9783 12.9053 37.7618 11.9039 37.7626L8.77144 37.7624C7.51453 37.7612 7.6666 37.5144 7.66533 36.2597L7.66388 34.402C7.66364 34.2378 7.70949 33.8565 7.6186 33.7168C6.55936 32.0883 7.03289 29.8374 7.37906 28.0667L7.76794 25.7905L9.29564 15.6947C9.81005 13.2735 12.4323 12.5078 14.5861 12.4047L15.5445 12.3851C16.8109 12.3538 17.922 12.0644 18.9959 11.3614C19.2724 11.1804 19.496 10.9412 19.824 10.8544C20.1177 10.8389 20.3993 10.951 20.5155 11.2423L20.5316 11.2854C20.5902 11.4359 20.5829 11.585 20.6019 11.743C21.0418 15.3871 26.3387 16.178 27.3507 11.9713C27.4441 11.5829 27.4085 10.6329 28.2398 10.8652L28.2654 10.8729C28.4426 10.9201 28.6061 11.0789 28.7498 11.1917C29.6893 11.9299 30.9812 12.3405 32.1609 12.3901L33.2927 12.4006C34.2191 12.4315 35.2559 12.5631 36.1158 12.8929C37.3606 13.3704 38.6008 14.5475 38.7611 15.9374L39.7303 22.2607C39.7986 22.732 39.8841 23.204 39.9339 23.6764L40.4005 26.8223C40.6114 28.2173 41.2218 30.0948 41.0074 31.4805L40.8723 32.4006C40.8209 32.6936 40.7184 32.9922 40.6023 33.2656C40.2492 34.0966 40.3187 33.9697 40.3169 34.8992L40.3165 36.4731C40.3188 36.9204 40.4516 37.376 40.0161 37.6591L39.981 37.6815C39.7949 37.8032 39.5873 37.7616 39.3747 37.762L36.2866 37.7627C35.2908 37.7637 34.8022 38.0344 34.5845 36.8244L34.0458 34.1889C33.7129 35.2581 32.9416 36.1931 31.9566 36.724ZM19.39 12.7386L19.3622 12.7643C18.4539 13.5736 16.5555 13.7318 15.3307 13.7884L14.6366 13.8348C13.0202 13.8771 11.0065 14.2622 10.6056 16.1443C10.5668 16.3262 10.5698 16.5179 10.5358 16.7019L9.05316 26.4789L8.67624 28.6046C8.37638 30.0377 8.21541 30.8266 8.5148 32.2906C8.54321 32.4297 8.58797 32.7136 8.68336 32.8201C9.1508 32.8734 9.67299 32.8284 10.1472 32.8276L12.8317 32.8268C13.0315 32.0265 13.1999 31.217 13.3065 30.3984L13.7823 24.2112L13.8821 22.4025C13.9073 21.9133 13.8073 21.0831 14.4724 20.9747L14.5076 20.9686C15.2038 20.857 15.2526 21.4816 15.2467 21.9469L15.233 22.9103C15.2278 23.0454 15.1987 23.1772 15.1936 23.3125L15.0421 25.9925L14.8595 28.37C14.7557 29.7637 14.6769 31.9366 15.1325 33.2885L15.3031 33.8323C15.5527 34.5203 16.0305 35.1562 16.6917 35.4882C17.2553 35.7712 18.0324 35.6263 18.6533 35.6263L30.7869 35.6274C30.8796 35.626 30.9637 35.6198 31.0512 35.5877L31.134 35.556C31.336 35.4803 31.5326 35.3624 31.7056 35.2343C33.6165 33.706 33.2043 29.3685 33.0304 27.1223L32.8471 24.6087C32.7955 24.0506 32.8654 23.4768 32.7663 22.9227C32.716 22.6412 32.7377 22.3271 32.7369 22.0412C32.7355 21.4889 32.7526 20.8204 33.5908 20.9914L33.623 20.9975C33.8752 21.0513 33.9998 21.2856 34.0606 21.5126L34.071 21.5508C34.1267 21.8096 34.0984 22.13 34.099 22.395L34.6377 30.1689C34.6777 30.5246 34.7213 30.8814 34.7927 31.2325L35.0244 32.3378C35.0541 32.494 35.0434 32.6937 35.122 32.8291L39.3354 32.828C39.8976 30.7346 39.6236 30.2226 39.224 28.0872L37.6179 17.6956C37.5326 17.1698 37.4983 16.6303 37.3968 16.1081C36.8362 13.2257 32.4491 14.0529 30.4284 13.5377C29.7722 13.3704 29.1514 13.0666 28.5649 12.7337C27.2549 17.2626 21.1399 17.3371 19.5404 13.0783C19.5042 12.9819 19.4981 12.7769 19.39 12.7386ZM9.48286 34.2251L9.06919 34.2386L9.04955 36.3568L12.064 36.367L12.5333 34.2487L9.48286 34.2251ZM35.7106 34.2254L35.5149 34.2498C35.5282 34.396 35.5671 34.514 35.5949 34.6545L35.8589 36.1044C35.8699 36.1922 35.8638 36.2738 35.8906 36.3594L38.8474 36.3689L38.94 36.3619L38.9452 34.2436L35.7106 34.2254Z" fill="black"/>
<path d="M26.0372 32.772L24.9897 33.5286C24.0278 34.1294 24.0127 34.1891 23.1034 33.6024C21.3651 32.481 19.1417 30.4054 18.8782 28.3196C18.6361 26.4027 19.6631 24.7526 21.6226 24.5249L21.6331 24.5213C22.2314 24.4339 23.0245 24.6933 23.4962 25.0339L23.9782 25.4155C24.1204 25.4126 25.6221 23.7778 27.4854 24.8426C28.3763 25.3517 28.9233 26.1985 29.1025 27.1913C29.4962 29.3719 27.5975 31.523 26.0372 32.772ZM21.6324 25.9043C20.9178 26.0552 20.3625 26.585 20.2449 27.325C19.9598 29.1181 21.7065 30.7762 22.9686 31.7836C23.295 32.0441 23.6356 32.3157 23.9986 32.523C24.7908 32.0389 25.5016 31.4231 26.153 30.7638C27.1443 29.7736 28.1963 28.2724 27.5457 26.8315L27.5289 26.7929C27.05 25.7238 25.5642 25.6139 24.8531 26.5209C24.5669 26.886 24.4319 27.5555 23.7882 27.3563C23.3159 27.21 22.9816 25.682 21.6324 25.9043Z" fill="black"/>
</svg>
