<svg width="48" height="48" viewBox="0 0 48 48" fill="none" xmlns="http://www.w3.org/2000/svg">
<path d="M25.5168 39.3288L22.1398 39.2901C19.5621 39.1441 16.5342 38.9682 16.5211 35.7136L16.5197 34.7991C16.411 34.6653 16.2403 34.5605 16.1136 34.4329C15.6374 33.9534 15.2665 33.3024 15.026 32.672L13.8344 29.1231C13.7945 29.1839 13.7815 29.3173 13.7645 29.3917L12.2818 35.7775C12.1442 36.3277 12.0059 36.9109 11.2648 36.7278C10.7862 36.6096 10.3137 36.4182 9.84268 36.2704L7.53521 35.5333C6.39976 35.1587 6.24798 35.1506 6.59715 34.0052L6.87554 33.0558C7.39946 31.4819 7.50137 30.3893 7.6883 28.7274L8.2471 24.3869C8.80674 19.7296 9.54849 15.8578 14.7717 14.7709L15.8581 14.5547C17.1361 14.2333 17.858 13.5558 18.6195 12.5562L18.7194 12.404C18.8297 12.2202 18.7909 11.8968 18.7916 11.6864L18.7905 10.4969C18.7844 9.81808 18.7417 9.31633 19.1213 8.73142C19.7129 7.81989 20.7254 7.7155 21.7186 7.63909C22.083 7.61106 22.1727 7.5932 22.5022 7.52734L26.3147 7.5745C27.7688 7.66572 28.8018 7.88139 29.1668 9.42555C29.2427 9.74702 29.2108 10.1038 29.2094 10.4331L29.204 11.8481C29.2037 12.2159 29.1556 12.2852 29.3772 12.5706L29.8549 13.1403C30.967 14.361 31.7116 14.4527 33.1641 14.7486C35.3414 15.192 37.0806 16.1067 38.1725 18.1696L38.6959 19.4064C39.0185 20.4645 39.3553 21.5146 39.521 22.6126L40.5405 30.5442C40.6092 31.0509 40.6626 31.5802 40.7981 32.0744L41.5572 34.5307C41.7872 35.2645 40.8518 35.4321 40.3639 35.5931L37.212 36.5637C36.1098 36.9242 35.9552 36.7372 35.7197 35.7423L34.3233 29.8237C34.2763 29.6014 34.1989 29.3918 34.1557 29.1695C33.9789 29.8627 33.7212 30.5454 33.4867 31.221C33.0439 32.4963 32.7466 33.4789 31.8233 34.4914C31.4003 34.9554 31.477 34.7398 31.4775 35.3751C31.478 36.3324 31.4603 36.9846 30.8321 37.7654C29.9393 38.8751 28.1252 39.1438 26.754 39.251L25.5168 39.3288ZM21.5053 8.98216C21.2017 8.99819 20.343 9.09269 20.2054 9.45123L20.206 12.0855C21.4176 12.309 22.475 12.427 23.7048 12.4297L26.3381 12.3099L27.7879 12.0879L27.7817 9.67872C27.7831 9.55342 27.8004 9.42803 27.7522 9.30986C27.3752 8.96533 27.1036 8.98225 26.627 8.98206L21.5053 8.98216ZM19.6655 13.3045C19.1414 14.0293 18.6099 14.6534 17.8383 15.13C17.149 15.5559 16.9246 15.3358 17.3213 15.9727C18.996 18.6617 22.6247 18.5995 25.4063 18.4202L26.379 18.3694C26.8843 18.321 27.3824 18.2184 27.8702 18.0838L28.307 17.9227C29.3469 17.4883 30.3862 16.5884 30.9282 15.5796L30.2079 15.1525C29.6043 14.774 28.9794 14.2494 28.5748 13.6529C28.2874 13.2292 28.4144 13.3043 27.9024 13.4083C27.0262 13.5864 26.152 13.7291 25.2582 13.785L23.7579 13.8039C22.3428 13.7974 21.0385 13.6232 19.6655 13.3045ZM32.2495 15.9125C30.3999 19.0387 28.5311 19.6129 25.2014 19.7888L24.2955 19.8498C23.7001 19.8663 23.1279 19.8217 22.5352 19.7858C19.8065 19.62 17.4934 18.9376 16.0187 16.3434C15.8196 15.9931 15.9391 15.9179 15.5743 15.9839L14.3678 16.2317C11.3264 16.9878 10.4337 19.4749 9.86096 22.225C9.74054 22.8033 9.69408 23.404 9.62115 23.9897L8.90757 29.3791C8.78227 30.4146 8.71815 31.4748 8.43451 32.4845L8.01287 33.8466C7.97457 33.973 7.89512 34.143 7.89188 34.2718L11.0792 35.2593C11.12 34.9763 11.2081 34.692 11.2734 34.4132L13.0624 26.6489C13.1726 26.0892 12.872 25.5452 12.6703 25.0366L12.1031 23.5777C12.0364 23.4005 11.9206 23.1803 11.9018 22.9923C11.8159 22.1348 12.8899 21.8946 13.1451 22.6877L13.7153 24.0925C13.9267 24.6745 14.1469 25.2417 14.2938 25.8452C14.4011 26.2861 14.4338 26.7445 14.5794 27.1759L15.9299 31.2632C16.0618 31.6522 16.168 32.0655 16.3395 32.4387C17.1992 34.3103 19.1236 35.0401 21.0311 35.2515L21.5155 35.2832C22.2197 35.3596 22.8915 35.3705 23.6019 35.3716L25.5352 35.3595C27.9557 35.2443 30.8162 34.7605 31.7702 32.1476L33.3677 27.4356C33.5867 26.7385 33.5761 26.2608 33.7329 25.6246C33.8921 24.9783 34.5616 23.1461 34.9336 22.5232C35.178 22.1141 35.7869 22.1253 36.004 22.547L36.0619 22.668C36.1324 22.8338 36.1087 23.0807 36.0404 23.2415L35.0992 25.5822C34.94 26.0425 34.8879 26.3185 34.9781 26.8057L36.5361 33.5492C36.6185 33.9057 36.8101 34.9668 36.9648 35.2611L40.1297 34.2605C39.8537 33.1541 39.4936 32.4049 39.3051 31.1838L38.649 26.1916C38.2916 23.189 38.0546 18.5418 35.1401 16.7931C34.2489 16.2584 33.2229 16.192 32.2495 15.9125ZM30.1179 35.6794C29.1114 36.3074 28.0075 36.445 26.8501 36.5729L25.3503 36.7262C24.935 36.7505 24.5101 36.7342 24.0937 36.7344L22.5384 36.7262C22.3515 36.7175 22.17 36.6752 21.9839 36.6606C20.3371 36.5321 19.3863 36.4013 17.8908 35.7331C17.8578 36.0125 17.8611 36.2954 17.9568 36.5627L17.9663 36.5905C17.9969 36.6787 18.0446 36.7525 18.0946 36.8306C18.57 37.6449 20.1871 37.7935 21.0294 37.8708C21.5083 37.9148 22.0695 37.9759 22.545 37.9781L25.7778 37.9724C25.937 37.966 26.0898 37.9322 26.2472 37.9197L27.0826 37.8676C28.2284 37.742 29.6098 37.6705 30.0609 36.4774C30.1509 36.2395 30.119 35.932 30.1179 35.6794Z" fill="black"/>
</svg>
