<svg width="48" height="48" viewBox="0 0 48 48" fill="none" xmlns="http://www.w3.org/2000/svg">
<path d="M34.8446 40.0851C34.3559 40.4412 33.8106 40.6633 33.1988 40.6663L15.107 40.666C13.6525 40.6655 12.2314 39.8191 12.029 38.2821C11.9977 38.0444 12.0198 37.766 12.0195 37.5247C11.5001 37.4415 10.9299 37.5317 10.4006 37.4901C9.2262 37.3979 7.99934 36.8454 6.94226 36.368C6.23145 36.047 6.00762 36.0001 6.01264 35.2131L6.01493 16.7734C6.01512 16.2032 5.97382 15.6005 6.02356 15.0343C6.27443 12.1763 8.42131 9.92793 11.0875 9.11811C11.6287 8.95372 12.2015 8.86986 12.7515 8.73364L14.4839 8.3151C14.7599 8.24249 15.033 8.12844 15.3083 8.06324C15.7999 7.94689 15.685 8.28908 16.2694 7.74158C16.4878 7.53693 16.6669 7.34783 16.9569 7.24494C17.386 7.20224 17.632 7.30668 17.8339 7.71529C18.0694 8.19191 18.4144 8.65382 18.7444 9.0696C20.3056 11.0362 21.908 11.9601 24.5448 11.7613C26.8792 11.5852 28.4423 10.3723 29.6671 8.38424L29.9364 7.9333C30.0921 7.64713 30.1861 7.41557 30.5149 7.28755C31.2454 7.00307 31.3091 7.80013 31.8217 7.90836L34.5324 8.5198C35.5077 8.74283 36.5038 8.88932 37.4229 9.30383C39.4087 10.1994 40.7592 11.7478 41.5311 13.7464L41.633 14.0617C41.7861 14.4747 41.8781 15.1066 41.8931 15.5346L41.9011 35.7776C41.8838 36.1792 41.2279 36.3437 40.9396 36.4842C38.9934 37.4324 37.9957 37.4848 35.9257 37.5174L35.9143 38.1801C35.8689 38.9764 35.4161 39.5742 34.8446 40.0851ZM16.9433 8.99502L16.3692 9.43672L16.4565 9.65652C18.1117 13.3002 20.14 14.3748 24.0186 14.3697C27.2827 14.3654 29.6842 13.5057 31.0848 10.3187L31.4942 9.22461L31.0068 9.01518C29.9477 10.7924 28.1278 12.4534 26.1103 12.9625C24.2167 13.4404 21.8503 13.2557 20.1703 12.2493C18.8624 11.4658 17.7811 10.253 16.9433 8.99502ZM32.8592 9.56929C31.8837 12.8473 29.8981 14.9374 26.5216 15.6067L25.7947 15.7192C25.3119 15.8065 24.7532 15.7965 24.2621 15.799C19.6197 15.8224 16.4974 14.1772 15.0049 9.66205L12.0712 10.3651C11.5736 10.4957 11.0761 10.6138 10.6058 10.8283C8.83329 11.6364 7.49539 13.4692 7.39067 15.4334L7.3827 34.7555C7.38387 34.847 7.37051 34.9685 7.40286 35.0535C8.41001 35.638 10.1571 36.0982 11.3718 36.0945C11.5785 36.0939 11.8032 36.1098 12.0073 36.0793L12.0199 17.9007C12.0199 17.7535 12.0036 17.5837 12.0274 17.4396C12.128 16.8308 13.2972 16.6808 13.3997 17.3819C13.4358 17.6285 13.4059 17.9222 13.4061 18.173L13.4047 20.0042V22.9468C13.4048 23.4228 13.3635 23.9413 13.4156 24.4127L34.5231 24.4143L34.5247 18.2406C34.5252 18.0053 34.5053 17.7379 34.5418 17.5056C34.6708 16.6849 35.8398 16.7881 35.9065 17.4261C35.9244 17.5967 35.9107 17.7812 35.9107 17.953L35.9128 34.8539C35.9134 35.2423 35.8792 35.6715 35.9416 36.0536C36.7057 36.0652 37.4412 36.1425 38.1969 35.9651C38.7071 35.8453 40.112 35.412 40.5096 35.0612L40.5177 16.1693C40.5124 13.6691 38.9678 11.4093 36.6089 10.5034C35.3989 10.0386 34.078 9.98502 32.8592 9.56929ZM13.8762 25.858L13.4051 25.8717L13.4045 32.0048C13.4046 32.2107 13.3821 32.4456 13.4142 32.6482L34.118 32.6462C34.2248 32.6516 34.4112 32.6806 34.5094 32.6523L34.5146 25.8637L13.8762 25.858ZM13.9463 34.1071L13.4053 34.1192C13.4052 34.4308 13.3632 36.2731 13.4262 36.3997L34.0835 36.4091L34.5335 36.4156L34.5303 34.1104L13.9463 34.1071ZM14.5388 37.8577C14.1597 37.8589 13.7633 37.8374 13.3876 37.888C13.4897 38.4403 13.9172 39.2044 14.5425 39.2251L33.3799 39.2249C33.8965 39.1435 34.229 38.8146 34.4308 38.3557L34.4486 38.3158C34.6862 37.7692 34.3997 37.8577 33.9999 37.8576L14.5388 37.8577Z" fill="black"/>
</svg>
