<svg width="48" height="48" viewBox="0 0 48 48" fill="none" xmlns="http://www.w3.org/2000/svg">
<path d="M27.967 41.0362L26.7636 41.1325L21.6134 41.1388L14.1599 40.4959C13.6437 40.4731 13.1141 40.5222 12.6001 40.4807C11.793 40.4155 11.9109 39.7191 11.9106 39.185L11.9062 30.6655C11.906 30.3403 11.9229 30.0066 11.851 29.6877L11.8419 29.6907C11.7027 30.5269 11.3876 31.3197 11.1589 32.1325L9.50441 37.5954C9.24177 38.4704 9.21786 38.8621 8.10969 38.7232L6.50432 38.5332C6.12688 38.5026 5.59902 38.5332 5.24605 38.38L5.14597 38.3345C4.75415 38.1345 4.71561 37.6742 4.66841 37.2911L4.57562 36.3415C4.51632 35.4581 4.48628 34.5508 4.52861 33.665L4.62758 31.8864L5.18474 26.0082L6.1445 18.5836L6.19813 17.7494C6.45604 15.1126 8.2445 12.8103 10.5597 11.606C10.978 11.3883 11.4381 11.2241 11.8781 11.0552L15.4456 9.84391C16.2208 9.59149 17.8579 9.16877 18.4207 8.54261C18.5319 8.41891 18.6021 8.26113 18.6896 8.12078C19.1435 7.39192 19.7062 6.99639 20.548 6.8996C20.7654 6.88239 20.9955 6.90925 21.2038 6.97652L22.3946 7.27764C23.4568 7.54 24.7298 7.44775 25.7842 7.21183L26.6588 6.99578C27.7386 6.72414 28.5889 7.07552 29.2455 8.00542C29.9817 9.04807 30.2867 9.06569 31.5278 9.5036L33.4899 10.1342C38.3966 11.6565 41.363 13.2006 41.8616 18.5856L42.5187 23.615L43.1736 29.4681L43.4713 34.087L43.4186 36.2586C43.3872 36.8989 43.4833 38.032 42.7977 38.3489L42.6448 38.413C42.5378 38.4445 42.416 38.4461 42.305 38.4588L39.9502 38.6971C38.6669 38.8263 38.7933 38.6093 38.4411 37.552L36.1667 29.7203C36.168 29.8845 36.1453 30.0467 36.1416 30.2106L36.133 31.1686C36.1258 31.3226 36.0959 31.474 36.0931 31.6286L36.0876 37.8775C36.0877 38.4596 36.1184 39.0607 36.0638 39.6404C35.9916 40.4058 35.6789 40.4858 34.9983 40.4879C34.5776 40.4893 34.1498 40.4755 33.7302 40.5061L27.967 41.0362ZM27.3424 8.23591C26.803 8.29563 26.2704 8.46297 25.7388 8.57449C24.3759 8.86038 22.9651 8.80708 21.6224 8.45557C20.9664 8.28382 20.0405 7.9465 19.7738 8.93589L19.918 9.25961C20.1786 9.75827 20.6853 10.1618 21.1518 10.4548C21.9548 10.9535 22.8611 11.3066 23.8124 11.3542C25.1754 11.4224 27.7771 10.4724 28.2073 8.99983C28.3216 8.60847 27.6695 8.18102 27.3424 8.23591ZM29.3159 9.90499C28.2271 11.4583 26.8056 12.2778 24.9117 12.613C22.7816 12.9901 20.0946 11.8278 18.8429 10.0815C18.81 10.0355 18.7743 9.96921 18.7282 9.93799L18.2714 10.1692L18.5665 10.8981C18.7879 11.4113 19.051 11.9138 19.3489 12.3865C20.4936 14.0788 22.0299 15.2492 23.9947 15.8073C26.5803 15.1143 29.0162 12.7552 29.6958 10.1371C29.5684 10.0665 29.4294 9.99668 29.3159 9.90499ZM17.0099 10.7223C16.1933 10.9436 15.3892 11.2536 14.583 11.5135L12.3088 12.3059C9.80732 13.2887 7.82324 14.9593 7.50125 17.8356C7.43572 18.4213 7.41397 19.0119 7.31188 19.5938C7.72335 19.8495 8.19088 20.0028 8.59794 20.279C9.40541 20.8269 10.1247 21.4778 10.8236 22.1565L11.9681 23.2679C12.0592 22.5346 12.575 19.4274 13.3597 19.0994L13.3916 19.0858C13.6799 18.9713 14.0384 19.136 14.1464 19.4257L14.1958 19.5678C14.3026 19.8767 14.021 20.3407 13.9182 20.6236L13.5221 21.8831C13.2205 23.0069 13.1971 23.6051 13.1964 24.7358L13.1961 31.0841C13.1964 31.7381 13.1637 32.4113 13.2025 33.0633C13.314 33.1099 13.4272 33.104 13.5441 33.1252L14.4179 33.3137C15.7381 33.6013 17.0582 33.8115 18.4008 33.965L21.8587 34.2643L24.3937 34.2896C25.7072 34.2877 26.8616 34.1964 28.1503 34.1227L32.262 33.5859L34.1273 33.2044C34.3552 33.1489 34.6215 33.1204 34.8393 33.0469L34.8486 31.723L34.8489 26.8325C34.8509 24.9198 34.8918 23.0505 34.2815 21.2138L33.8056 19.9068C33.7604 19.7646 33.7541 19.6077 33.8114 19.4679L33.8241 19.4366C33.9819 19.0631 34.388 18.9429 34.7333 19.1441C35.3935 19.5287 35.9235 22.3603 36.0084 23.2412C36.4431 22.9781 36.7791 22.536 37.137 22.1798L38.0336 21.3574C38.8371 20.647 39.6685 20.0073 40.6713 19.6016C40.6637 19.465 40.6356 19.328 40.621 19.1918L40.5437 18.3913C40.494 17.9805 40.4569 17.5736 40.365 17.169C39.9578 15.376 38.6462 13.7385 37.0247 12.8741C36.3699 12.5249 35.664 12.2875 34.9684 12.0348L30.9327 10.7061C29.9153 13.2731 28.281 15.4842 25.6628 16.6135C24.3383 17.1848 23.8777 17.2231 22.5675 16.7033C20.3024 15.8048 18.3596 13.7885 17.409 11.5608L17.0883 10.7223C17.0616 10.7212 17.0365 10.7193 17.0099 10.7223ZM7.1519 20.9799C7.06757 21.4467 7.04741 21.9258 6.97865 22.395L6.46579 26.151L5.90652 32.0379L5.81835 33.6911C5.78643 34.4027 5.75624 36.4606 5.93455 37.1623L8.21497 37.4019L8.73013 35.7135L10.3276 30.3935L11.3048 26.7619C11.4809 26.0861 11.6538 25.3924 11.7369 24.6981C10.0603 23.5911 9.04536 21.8771 7.1519 20.9799ZM40.7704 21.0114C40.159 21.3457 39.5278 21.7743 39.0096 22.2421L37.2653 23.9082C36.9477 24.1954 36.6797 24.4651 36.2892 24.6536C36.3314 25.1177 36.4277 25.5793 36.5266 26.0333L36.8561 27.4802C36.9139 27.701 36.993 27.9181 37.0422 28.1415L38.3823 32.7482C38.4637 32.9719 38.488 33.2215 38.5709 33.4434L39.2764 35.8524C39.3294 36.098 39.6456 37.2061 39.744 37.3931L42.0772 37.1479L42.1619 34.6245L42.1053 32.2726L41.3741 24.9803L40.993 22.113C40.9366 21.7491 40.9159 21.3683 40.8418 21.0091L40.7704 21.0114ZM13.1923 34.3965L13.1968 39.1717L14.8579 39.2013C15.0593 39.2091 15.2503 39.2489 15.4493 39.2657L18.4865 39.5561L22.1308 39.8359L27.5025 39.7466L32.6998 39.2612C32.9136 39.2426 33.123 39.2023 33.3381 39.196L34.3031 39.1895C34.4552 39.1888 34.6344 39.2076 34.7825 39.1723L34.779 38.7243L34.7721 34.4311C33.1742 34.7915 31.544 35.0985 29.9194 35.3059L26.4254 35.6091L21.9001 35.609L16.7347 35.0688L14.2192 34.6172C13.8845 34.549 13.5161 34.502 13.1923 34.3965Z" fill="black"/>
</svg>
