<svg width="48" height="48" viewBox="0 0 48 48" fill="none" xmlns="http://www.w3.org/2000/svg">
<path d="M31.6688 36.4427C31.4927 36.5482 31.3304 36.6018 31.1393 36.6684L31.0295 36.7033C30.7473 36.7713 30.3756 36.7301 30.0834 36.7302L18.3531 36.7307C17.5398 36.7309 16.9477 36.8579 16.2307 36.3954C15.1958 35.7279 15.0118 34.2709 14.9176 33.1542L14.8428 32.4721C14.8035 31.9718 14.7407 31.4294 14.7277 30.9355L14.7037 29.8431C14.697 29.6564 14.6661 29.4714 14.655 29.2848L14.5563 27.1915C13.2747 29.1211 12.834 30.5715 12.8434 32.8389C12.8441 33.001 12.8596 33.1805 12.8298 33.3401L12.5576 34.5597L12.2646 36.7083C12.244 36.9996 12.293 37.3423 12.1985 37.6199L12.1659 37.7201C11.6969 39.1557 10.8347 38.7765 9.7504 38.626L7.14921 38.2648C7.01524 38.2456 6.87063 38.2384 6.74332 38.1904L6.7151 38.1792C6.07774 37.9461 6.20238 37.2694 6.27344 36.7564L7.19088 28.9333L7.62105 24.8259C8.13715 21.2594 9.58347 14.7602 12.8843 12.8547C13.5224 12.4864 14.2018 12.2878 14.8994 12.0717L18.2913 11.07C18.6243 10.9736 18.9301 10.8761 19.2773 10.838C20.05 10.8672 20.3545 11.4034 20.7359 12.0032C22.3308 14.5112 24.9883 15.0755 26.7776 12.519C27.2479 11.8471 27.6729 10.7251 28.6822 10.8437C29.1686 10.9007 29.6677 11.0902 30.1409 11.221C31.6667 11.6429 33.365 12.019 34.7823 12.7484C36.5534 13.66 37.8566 16.2029 38.4516 18.0919L39.2652 20.7142C39.3091 20.9362 39.4049 21.1523 39.4517 21.374L39.552 21.763C39.5842 21.9706 39.6529 22.1895 39.7042 22.3942L40.2712 25.2723L41.2512 33.6208L41.7201 37.1833C41.741 37.3219 41.7838 37.4589 41.7482 37.5987L41.7401 37.6286C41.6246 38.0731 41.2883 38.2157 40.8615 38.2929L37.7932 38.7175C37.4672 38.7607 37.137 38.8244 36.8063 38.7907C36.3 38.7392 35.8155 38.0836 35.7385 37.6285C35.6532 37.1243 35.6643 36.62 35.6366 36.1116C35.5874 35.2084 35.3214 34.362 35.1569 33.4802C35.0545 32.9308 35.0871 32.4089 35.0862 31.8511C35.0837 30.2711 34.315 28.6547 33.4951 27.3456C33.446 27.8318 33.4761 28.3276 33.4469 28.8163L33.0951 32.5544C32.9458 33.8264 32.8681 35.677 31.6688 36.4427ZM28.5503 12.2304C28.3184 12.5595 28.1396 12.9209 27.9096 13.253C25.7762 16.3342 21.9891 16.2722 19.8692 13.1357C19.6717 12.8433 19.4898 12.522 19.2715 12.2464C18.9389 12.3354 18.5784 12.4081 18.26 12.5375C18.4096 13.0485 18.681 13.5995 18.9498 14.0525C20.2343 16.2623 22.8439 17.5382 25.3479 16.8502C27.504 16.2578 28.8968 14.5674 29.5661 12.5019L28.5503 12.2304ZM30.9018 12.8415C30.746 13.2414 30.6132 13.6482 30.4304 14.0374C29.1278 16.8104 26.7633 18.4083 23.7191 18.4242L23.9156 18.464C24.1252 18.5056 24.3964 18.7996 24.5122 18.9723L25.7846 20.9997C25.9694 21.2993 26.1922 21.5836 26.3438 21.902L26.4509 22.1391C27.0672 23.5804 26.1221 25.5184 24.7163 26.0894L24.5042 26.1577C22.8187 26.6137 21.4431 25.3385 21.0334 23.7786C20.7146 22.5645 21.4453 21.5578 22.0483 20.5823L22.6711 19.5751C22.8902 19.2107 23.1167 18.6447 23.5315 18.466L23.6261 18.425C23.1955 18.3499 22.7654 18.3272 22.3387 18.2206C19.5852 17.5323 17.8202 15.4584 16.963 12.8642L15.479 13.3517C14.8601 13.5452 14.2268 13.7208 13.6479 14.0185L15.0733 18.486L15.4775 19.8028C15.5673 20.2224 15.6744 20.6108 15.7129 21.0436C15.7777 21.7726 15.7123 22.523 15.7496 23.2566L15.9114 26.2145L15.9266 27.8711C15.9387 28.1255 16.0048 28.3744 16.0162 28.6277C16.0623 29.6514 16.0709 30.6725 16.1323 31.7057L16.2175 32.6012C16.2622 33.1067 16.3779 35.2387 17.0601 35.2652L30.3856 35.2675C30.5362 35.2674 30.8575 35.3079 30.9931 35.2475C31.4566 35.0411 31.6642 33.2331 31.7166 32.8027L31.9107 30.9804C32.1453 28.5324 32.2897 26.0859 32.2927 23.6259L32.2867 22.6502C32.2795 22.0399 32.1639 21.4704 32.2263 20.8566C32.2884 20.2455 32.4507 19.6536 32.6337 19.0687L33.6007 16.2557C33.8351 15.5162 33.9846 14.7447 34.2459 14.0152C33.9828 13.8634 33.7016 13.7603 33.4181 13.6539L31.6226 13.0677C31.3924 12.9955 31.118 12.9429 30.9018 12.8415ZM12.4925 14.902C10.3227 17.5978 9.39293 21.9811 8.90786 25.3239L8.40775 30.2393C8.38404 30.4453 8.30622 30.7001 8.31546 30.9042L10.4642 31.2466L11.5272 31.4718C11.6537 30.0141 12.1904 28.6459 12.8711 27.3624C13.2194 26.7054 13.5905 26.0816 13.8534 25.3825C14.4023 23.9224 14.5734 21.9187 14.2513 20.3866C14.0869 19.605 13.7627 18.8341 13.5052 18.0783L12.6217 15.3114C12.5836 15.1827 12.5546 15.0204 12.4925 14.902ZM35.3486 14.9778L33.8895 19.5669C33.8133 19.8089 33.726 20.0588 33.666 20.3047C33.4585 21.1553 33.5701 21.3797 33.6115 22.1452C33.6723 23.2678 33.6731 24.183 34.08 25.2536L34.2703 25.7809C34.8017 27.0921 35.5732 28.0052 36.0221 29.5075L36.3128 30.5973C36.3953 30.8601 36.4297 31.1894 36.4515 31.4632L37.6373 31.2487L39.5886 30.95L38.8839 25.0713L38.2873 22.2636L37.4749 19.4142C37.0839 18.2192 36.2162 15.9391 35.3486 14.9778ZM23.7905 20.3737C23.4079 20.92 22.5776 22.2243 22.3642 22.7575L22.3489 22.7937C22.2351 23.0762 22.3421 23.5186 22.4606 23.788L22.7001 24.2263C22.9644 24.6527 23.4153 24.8462 23.9023 24.8444C24.7771 24.7155 25.5525 23.5403 25.2583 22.7854L25.2442 22.7486C25.134 22.4743 24.9387 22.2233 24.7814 21.9732L24.0035 20.7095C23.9391 20.6008 23.8386 20.4875 23.7905 20.3737ZM8.1656 32.298L7.64524 36.6424C7.63319 36.7291 7.59307 36.858 7.61102 36.9405L10.512 37.3456C10.6269 37.362 10.7514 37.405 10.867 37.3942L10.8774 37.3075C10.9615 36.3675 11.0403 35.4308 11.2016 34.4998L11.5616 32.8536L8.1656 32.298ZM39.617 32.3294L36.4102 32.8672C36.5952 33.7194 36.8167 34.5663 36.9132 35.4346L37.0046 36.4802C37.0166 36.732 36.9206 37.4396 37.1836 37.413C37.9653 37.2506 38.7823 37.1682 39.575 37.0661C39.8056 37.0364 40.1269 37.0539 40.3414 36.9804L39.762 32.3268L39.617 32.3294Z" fill="black"/>
</svg>
