<svg width="48" height="48" viewBox="0 0 48 48" fill="none" xmlns="http://www.w3.org/2000/svg">
<path d="M29.4552 40.4818L12.7407 40.4792C12.0138 40.4386 12.0203 39.7427 12.0199 39.2361L12.0267 28.6064L12.125 26.5909L11.8642 27.1122C11.73 27.3975 11.3714 28.1865 10.9346 28.0872L7.4962 27.1452C6.48277 26.8712 6.39314 26.6547 6.55055 25.6775L7.70724 19.6269L8.99784 14.4287C9.81848 11.6591 10.8631 8.85707 13.9764 8.19801C14.3498 8.11893 14.7386 8.09807 15.1167 8.05438L17.0743 7.80599C17.5934 7.73418 18.1028 7.68566 18.606 7.52798L28.0548 7.51682C28.7744 7.51687 29.0595 7.47252 29.7574 7.62271L32.2267 7.96813C32.6601 8.01041 33.1117 8.01848 33.5405 8.09235C35.691 8.46294 37.116 9.56826 37.9807 11.6363L38.7632 13.6642C38.8223 13.8413 38.8581 14.0322 38.9204 14.2068L39.6721 16.9306C39.7099 17.0394 39.7224 17.1515 39.7508 17.2619L39.9322 18.0116C40.1085 18.7813 40.2653 19.5537 40.4528 20.3204L41.4397 25.7579C41.4779 25.976 41.5566 26.3312 41.4613 26.5423L41.45 26.5665C41.2769 26.9601 41.0269 27.0241 40.6444 27.1173L38.0274 27.8454C36.8859 28.1595 36.8028 28.2961 36.1671 27.0783L35.8603 26.4968C35.8608 26.7647 35.8938 27.0271 35.903 27.2938L35.9198 28.3361C35.9283 28.5091 35.9701 28.6778 35.9742 28.8517L35.9751 38.8892C35.9746 40.0549 36.1478 40.4803 34.6876 40.4817L29.4552 40.4818ZM19.5902 8.98274L19.5024 9.00266C19.5127 9.08319 19.6165 9.18496 19.6688 9.2489C20.8097 10.6461 22.2389 11.2709 23.9932 11.2694C25.2985 11.2682 26.3039 11.0054 27.3832 10.1941C27.8264 9.8428 28.1832 9.43091 28.5412 8.99671C28.2292 8.95415 27.8789 8.98157 27.5626 8.98157L19.5902 8.98274ZM30.3648 9.20348C30.2927 9.57923 30.2895 9.96646 30.2208 10.3436C29.8659 12.2902 29.1624 14.3727 27.4506 15.5362C26.0242 16.5057 24.135 16.7106 22.4663 16.3791C19.2511 15.7402 17.7917 12.1719 17.6152 9.22719L16.0245 9.37677C16.04 9.45238 16.055 9.52476 16.0803 9.59779L16.7941 12.548C17.2131 14.4944 17.2524 16.129 17.0671 18.0822L16.7758 22.8165C16.7703 22.942 16.7463 23.0654 16.743 23.1914L16.7939 29.8744C16.8045 30.0576 16.8426 30.238 16.8497 30.422L16.9409 32.5372L16.9814 33.4273C16.994 33.6262 17.0338 33.8233 17.0407 34.0225L17.1855 38.2877C17.1888 38.5184 17.1623 38.7871 17.201 39.0121L28.2736 39.0153C28.6251 39.0153 30.7259 39.0443 30.7874 38.9991L30.8674 35.8009L31.1087 32.0861C31.1835 31.1348 31.1939 30.1024 31.253 29.1454C31.266 28.935 31.3069 28.7313 31.3162 28.5204L31.334 25.0239C31.3337 23.5575 31.3369 22.1086 31.2051 20.6468C31.0635 19.0764 30.7609 17.5254 30.7969 15.9441C30.8128 15.2435 30.8777 14.4958 30.9759 13.8048L31.482 11.1302L31.8849 9.60107C31.9016 9.53638 31.9367 9.44113 31.9265 9.37654L30.3648 9.20348ZM14.5889 9.52748C11.8773 10.1939 11.3234 11.8523 10.5131 14.377C10.0841 15.7133 9.73814 17.0675 9.435 18.4368L8.93503 20.5548L8.11088 24.9464C8.05777 25.2193 7.98586 25.504 7.95858 25.7799L10.6103 26.5026L13.3313 20.7455C13.4468 20.4663 13.5292 20.1478 13.6706 19.8837C13.9571 19.349 14.7604 19.4526 14.9165 20.0274L14.9452 20.1244C15.0708 20.5744 14.3087 22.1762 14.1265 22.6386C14.0352 22.8703 13.8755 23.1066 13.8527 23.3556L13.557 26.7861C13.5427 27.0257 13.495 27.2577 13.4857 27.4963L13.4777 39.0141L15.7926 38.9757C15.7589 38.6902 15.7714 38.3968 15.7705 38.1094L15.7625 36.6496L15.5918 33.8638C15.5468 33.0913 15.5176 32.3021 15.4698 31.5309L15.3736 30.493L15.3143 23.0275L15.7522 17.0861C15.9292 14.5137 15.2649 12.0066 14.6217 9.54027L14.5889 9.52748ZM33.4077 9.50563C32.5925 12.1204 31.981 14.9914 32.3077 17.7441L32.6423 21.0475C32.6551 21.1739 32.6847 21.2959 32.6935 21.4235L32.7116 29.5775L32.3005 35.9271C32.2487 36.9354 32.2934 38.0365 32.2013 38.9883L33.9024 39.0154C34.0784 39.0152 34.3647 39.052 34.5285 39.0026L34.4359 26.9121C34.4236 26.2186 34.355 23.8804 34.1202 23.231L33.3346 21.2806C33.1432 20.8026 32.7796 20.1906 33.2314 19.739C33.5377 19.4328 34.1137 19.4461 34.3115 19.8751L35.4661 22.5907C35.6701 23.085 35.9497 23.5436 36.1805 24.0247L37.125 25.8517C37.2403 26.0624 37.3403 26.3075 37.4919 26.4937L39.9928 25.7592L39.8604 24.6564L38.1891 16.8685C37.8586 15.5619 37.498 14.2733 37.0042 13.0178C36.372 11.4106 35.6885 10.142 33.9537 9.65052C33.7736 9.59952 33.5837 9.56779 33.4077 9.50563ZM19.4059 11.0275C19.4111 11.2241 19.485 11.4389 19.5493 11.6251L19.629 11.8353C20.4818 13.8631 21.4456 15.0148 23.7263 15.0189C25.6432 15.0224 27.084 14.6006 28.0018 12.7125C28.2802 12.1744 28.4619 11.6132 28.599 11.0249C27.579 11.8701 26.8902 12.2866 25.5363 12.6048C23.5828 13.0638 21.4239 12.5952 19.8352 11.3717C19.7337 11.2934 19.5217 11.0264 19.4059 11.0275Z" fill="black"/>
</svg>
