<svg width="48" height="48" viewBox="0 0 48 48" fill="none" xmlns="http://www.w3.org/2000/svg">
<path d="M33.2646 38.5474C32.5957 39.7874 31.3278 40.4806 29.9466 40.4812L18.5934 40.4814C18.1008 40.4812 17.649 40.501 17.1668 40.394C15.1468 39.9459 14.2722 38.2093 14.2693 36.2932L14.2692 22.5791C14.2694 22.1707 14.2538 21.7534 14.2861 21.3464L12.5271 24.4755L11.6741 26.3625C11.3638 27.1504 10.9904 28.3615 11.3651 29.1965L11.6255 29.9186C11.755 30.2496 11.8401 30.6471 11.8951 30.9953C12.0329 31.8686 11.7376 35.3238 10.8755 35.8611L10.8396 35.883C10.5914 36.039 10.3186 35.9816 10.0378 35.9818L6.56344 35.9808C5.67666 35.9799 5.00443 36.1078 4.49956 35.2056C2.90091 32.349 4.3301 25.2448 5.09588 22.2302L6.31632 18.0495C7.19818 15.4461 8.86158 11.2782 10.9852 9.39922C12.1075 8.40618 13.6575 7.91755 15.1186 7.71018L16.7966 7.53285L18.0879 7.51944C18.8866 7.52052 19.1609 7.48494 19.3878 8.36783C20.438 12.4548 27.1423 12.7586 28.5905 8.47536C28.7239 8.08091 28.7106 7.85591 29.0775 7.60921L29.1627 7.553C29.3147 7.47336 29.7176 7.51878 29.9019 7.5185L31.2172 7.52343C31.3775 7.53172 31.5256 7.58807 31.684 7.60339L32.9407 7.72691C35.9217 8.15174 37.4888 9.45894 38.9916 11.9193C39.1544 12.1858 39.3274 12.4459 39.4646 12.7272L40.8189 15.6516L41.5116 17.5202C41.6083 17.8878 41.7835 18.2418 41.8854 18.61L42.5512 20.8882C42.5953 21.1278 42.6902 21.3595 42.7373 21.6031L43.207 23.5412C43.2393 23.7511 43.3087 23.9683 43.3515 24.178L43.8763 27.1413C43.9921 27.9719 44.1064 28.8179 44.1521 29.6561L44.1888 31.4056C44.1652 32.6524 44.0066 35.4928 42.6714 35.9543C42.4675 36.0248 42.1254 35.9808 41.9076 35.9811L37.4334 35.9784C37.3395 35.9747 37.2669 35.9502 37.1843 35.9063L37.1482 35.8866C36.681 35.64 36.6037 35.0655 36.4826 34.6012C36.1656 33.3855 35.8936 32.0759 36.1176 30.821C36.2275 30.2055 36.498 29.6354 36.6777 29.0403C37.1588 27.4476 35.4106 24.2141 34.6256 22.8264L33.7453 21.3306C33.6953 21.6405 33.7265 21.991 33.7265 22.3062L33.7268 35.4995C33.7264 36.6243 33.7786 37.5085 33.2646 38.5474ZM17.7971 8.93736L17.7013 8.95944C17.7293 9.29319 17.8366 9.66927 17.9545 9.98502L18.0349 10.1964C19.1053 12.7913 20.0364 14.5681 22.9588 14.947C26.4032 15.3935 28.2729 14.1038 29.6288 11.001L29.779 10.6242L30.2663 8.97725L29.952 8.97346C29.1683 11.0261 27.82 12.2882 25.616 12.8054C22.5981 13.5136 19.4705 12.2181 18.1881 9.31035L18.0739 9.01499C18.0644 8.98541 18.0534 8.966 18.0339 8.94186L17.7971 8.93736ZM31.7175 9.01986C31.1723 11.4844 30.0291 14.1314 27.8164 15.5372C26.6159 16.2999 24.6327 16.6603 23.1955 16.4356L22.1282 16.2715C18.6997 15.5706 16.9715 12.1866 16.2342 9.04222C13.3769 9.22522 11.9617 9.95493 10.3997 12.3966C9.89818 13.1806 9.44494 13.9811 9.06516 14.8316L14.6466 18.6633C14.9219 18.8396 15.5367 19.1042 15.6586 19.4303L15.6693 19.4519C15.7113 19.5399 15.7161 19.6345 15.721 19.7304L15.7253 32.1286L15.7241 36.7796C15.7249 36.929 15.7071 37.1081 15.739 37.2526L15.8489 37.5842C16.1211 38.4891 17.0757 39.0148 17.988 39.0168L30.3065 39.0129C31.2429 38.9776 32.15 38.0775 32.2619 37.1479C32.3127 36.7251 32.2728 36.2522 32.273 35.8231L32.2724 21.1889C32.2726 20.6994 32.2487 20.1962 32.2771 19.7086C32.3091 19.1597 32.7865 19.0553 33.1864 18.7928L37.3246 15.9395C37.8463 15.5764 38.3762 15.1509 38.931 14.8408C38.4667 13.7128 37.8011 12.6374 37.0822 11.6564C35.5178 9.52194 34.325 9.37799 31.7175 9.01986ZM8.49521 16.1551L7.64813 18.5082C8.14252 18.9023 8.71365 19.2212 9.23954 19.5743L11.3318 20.9509C11.6884 21.1783 12.0472 21.423 12.4258 21.6118L12.6115 21.3194L13.6982 19.7408L8.49521 16.1551ZM39.5174 16.1753L34.2945 19.7275L35.4377 21.3958L35.6165 21.6497L40.3481 18.5376C40.3177 18.3635 40.2454 18.1968 40.1887 18.0294L39.5933 16.3779C39.5699 16.3156 39.5514 16.2311 39.5174 16.1753ZM40.8172 19.8951C40.4038 20.2187 39.9691 20.4828 39.5331 20.7723L36.8393 22.5415C36.7509 22.6011 36.299 22.8206 36.2614 22.886C37.3173 24.8886 38.7181 27.5682 37.9241 29.855C37.7789 30.2735 37.5811 30.6609 37.5009 31.1022C37.3311 32.0381 37.5539 33.3134 37.8219 34.2486C37.8382 34.3723 37.8517 34.4467 37.8787 34.5171L42.3143 34.5136C42.6733 33.3289 42.7746 32.1993 42.7745 30.9621L42.6833 28.9581C42.5411 27.371 42.2835 25.8198 41.9355 24.265L41.0039 20.5083C40.9451 20.3033 40.9012 20.0919 40.8172 19.8951ZM7.17394 19.9342L6.66455 21.765C5.89862 24.7731 5.19648 27.8593 5.20599 30.9803C5.20871 31.8697 5.24307 33.3681 5.56974 34.1943L5.63523 34.4145C5.69663 34.6294 6.87858 34.5179 7.1356 34.5178L10.1151 34.5185C10.1448 34.4168 10.1602 34.3189 10.1739 34.2142C10.3661 33.257 10.5854 32.3973 10.5176 31.4126C10.4605 30.5838 10.0238 29.8676 9.86705 29.0631C9.55098 27.4403 10.383 25.6663 11.0623 24.2467C11.2801 23.7915 11.4942 23.314 11.764 22.8866L7.17394 19.9342Z" fill="black"/>
</svg>
