<svg width="48" height="48" viewBox="0 0 48 48" fill="none" xmlns="http://www.w3.org/2000/svg">
<path d="M30.3341 41.0161L17.8698 41.0162C17.467 41.0162 17.0016 41.0626 16.6082 40.9952C14.9275 40.7071 14.4151 39.647 14.4086 38.138L14.3951 37.1731C14.392 36.9068 14.4016 36.626 14.3505 36.3645C14.2174 35.6832 14.2751 34.9569 14.2562 34.2656L14.0858 30.9028C14.061 30.2064 14.1193 29.4993 14.04 28.8062C13.7745 29.4551 13.6239 30.2697 13.1766 30.8189C12.5043 31.6443 11.3737 31.8015 10.3811 31.5951C7.92736 31.085 6.75309 29.9937 7.1138 27.4551L8.16961 18.4731C8.18273 18.1323 8.1292 17.7269 8.20341 17.3957L8.36194 16.5221C8.94417 13.9581 10.8166 12.4064 12.9633 11.164L18.3173 8.24886C18.6753 8.04486 19.0289 7.70829 19.4457 7.64825C19.8227 7.67393 19.9651 7.868 20.2511 8.08203C21.3775 8.92498 22.2105 9.20665 23.6397 9.22325C25.3735 9.24331 26.2346 9.18654 27.7386 8.10401C28.561 7.51208 28.3686 7.5072 29.1519 7.95022L33.0473 10.0853C36.2319 11.7696 39.3876 13.509 39.8016 17.4562C39.8579 17.9929 39.8587 18.5519 39.9029 19.0974L40.7925 26.7675C40.8945 27.5813 41.1553 28.5196 40.8713 29.3208C40.4135 30.6125 39.4061 31.0659 38.2086 31.4184C37.4289 31.648 36.6702 31.8575 35.8751 31.5431L35.7579 31.496C34.5233 30.9762 34.3838 29.8147 33.9375 28.6885L33.9219 28.8478C33.8776 29.2775 33.9137 29.7327 33.9002 30.1669L33.6667 35.1316L33.6125 37.977C33.6119 38.4104 33.6298 38.8116 33.5181 39.2348C33.2752 40.1542 32.412 40.8896 31.4738 41.0026C31.1054 41.047 30.706 41.0179 30.3341 41.0161ZM28.0947 9.27083C27.9034 9.39814 27.7228 9.54134 27.5267 9.65614C25.7118 10.7191 22.3563 10.7052 20.5226 9.68267C20.3279 9.57406 20.1551 9.42064 19.9529 9.32708C19.8899 9.94451 19.9134 10.9269 20.1017 11.4916L20.2808 12.018C20.3826 12.262 20.4998 12.493 20.6453 12.714C21.2179 13.5117 22.0689 14.1564 23.0511 14.3447C26.3923 14.985 28.3883 12.4893 28.0947 9.27083ZM29.236 9.31283C29.22 9.7969 29.2564 10.2929 29.2225 10.7744C28.9965 13.9822 26.2361 16.0502 23.1452 15.5531C20.7397 15.1662 18.9609 13.1806 18.7793 10.7578C18.75 10.3673 18.7653 9.95258 18.7772 9.56093L18.7893 9.33631C18.5389 9.53553 18.2591 9.66692 17.9995 9.84725L18.0987 11.2074L18.1069 11.2327C18.1538 11.3822 18.1632 11.5333 18.2004 11.684C18.501 12.9022 18.9958 13.999 19.8273 14.957C21.4458 16.8219 24.2185 17.3794 26.4374 16.2931C28.4061 15.3293 29.6548 13.158 29.9063 11.0161L30.0036 9.8202C29.7502 9.67179 29.4531 9.51059 29.236 9.31283ZM31.121 10.395C30.9695 14.0462 28.6087 17.5462 24.8089 18.0064C20.7255 18.501 17.6301 15.3193 16.9996 11.5113L16.8742 10.4208L13.1722 12.4227C11.2341 13.5527 9.68841 15.0358 9.36839 17.4028C9.32672 17.711 9.36122 18.0408 9.35072 18.352C9.3367 18.7661 9.2745 19.4648 9.22448 19.8687L8.28914 27.5226C8.21184 28.0658 8.03953 28.562 8.31511 29.0816C8.66044 29.7327 9.29541 30.067 9.97298 30.2787C11.8353 30.8604 12.3193 30.3575 12.8244 28.6194L13.857 25.3919C13.9133 25.2197 13.8778 24.9575 13.8771 24.7729L13.8003 21.1837C13.8 20.9598 13.7564 20.6459 13.8072 20.4302C13.9304 19.9064 14.6411 19.887 14.8598 20.3442L14.8732 20.3716C14.9434 20.5301 14.916 20.7684 14.9254 20.9419L15.1007 26.0553C15.1062 26.327 15.1555 26.5947 15.1621 26.8668L15.1944 29.4497C15.1994 29.6745 15.2512 29.8944 15.2608 30.1185L15.2757 31.4887L15.3397 32.8866C15.374 33.0716 15.361 33.2753 15.3642 33.4637L15.3794 34.6132C15.3865 34.8282 15.4233 35.0393 15.438 35.2534L15.5409 37.5154L32.4474 37.5183L32.4645 36.4588C32.4873 36.074 32.5442 35.7027 32.5526 35.3117L32.5677 33.8319L32.7151 31.3617L32.8251 28.6407L32.9153 24.1285C32.9276 23.811 32.9915 23.4996 33.0039 23.1812L33.0743 21.5739C33.0862 21.2397 33.0748 20.8873 33.1155 20.5557C33.1816 20.0169 33.8675 19.8744 34.1539 20.3182L34.1728 20.346C34.2712 20.5048 34.2223 20.868 34.222 21.0559L34.201 22.6411C34.197 22.816 34.2088 22.9912 34.1992 23.1661L34.1176 24.8107C34.1149 25.0674 34.0807 25.2769 34.1726 25.5239L35.3919 29.3442C35.838 30.4822 36.3588 30.6522 37.5075 30.3855C38.4315 30.1711 39.5361 29.8227 39.7972 28.7817L39.8056 28.7491C39.8604 28.5263 39.8087 28.294 39.7777 28.0713L38.7441 19.3481L38.6543 18.1846C38.6452 17.9086 38.6798 17.6005 38.6282 17.3304C38.1824 14.9961 36.8072 13.547 34.8415 12.4178L31.5995 10.6628C31.4449 10.5818 31.2803 10.4592 31.121 10.395ZM19.904 38.6814L15.5983 38.7186C15.633 38.8066 15.6306 38.9057 15.6638 38.995C15.7985 39.357 16.2719 39.8348 16.6878 39.8513L28.1312 39.8556L30.289 39.8555C31.4312 39.8545 32.063 39.9024 32.4541 38.6996L19.904 38.6814Z" fill="black"/>
<path d="M19.5553 36.595C19.0511 36.5565 18.946 36.2859 18.9382 35.8071L18.9277 19.471C18.9354 19.1466 19.1312 18.9309 19.448 18.8477C19.685 18.8488 19.8716 18.9036 19.9838 19.1359L19.9955 19.1606C20.0333 19.2341 20.04 19.2892 20.0429 19.3709L20.0374 36.1521C20.042 36.3953 19.7593 36.5474 19.5553 36.595Z" fill="black"/>
<path d="M28.4853 36.595C27.8232 36.4638 27.9364 36.009 27.936 35.4748L27.9345 20.5154C27.9337 19.9502 27.7021 18.9511 28.4936 18.8496C29.0606 18.896 29.0358 19.3371 29.0358 19.8007L29.0351 34.9292C29.0366 35.5933 29.2976 36.5002 28.4853 36.595Z" fill="black"/>
<path d="M24.0929 36.5951L24.0142 36.607C23.8538 36.6137 23.7045 36.5325 23.5932 36.4249L23.5685 36.4007C23.3824 36.2244 23.4334 35.8294 23.4327 35.6022L23.4309 21.8996C23.4307 21.5995 23.336 20.913 23.4925 20.6631L23.5092 20.6373C23.6052 20.4855 23.6952 20.4164 23.8617 20.3475C24.1182 20.3399 24.3418 20.345 24.4729 20.607L24.5105 20.6835C24.6434 20.9985 24.5352 21.6272 24.535 21.9735L24.5459 35.8839C24.5604 36.2631 24.4923 36.4674 24.0929 36.5951Z" fill="black"/>
</svg>
