<svg width="48" height="48" viewBox="0 0 48 48" fill="none" xmlns="http://www.w3.org/2000/svg">
<path d="M14.68 35.4083C14.6093 35.0674 14.5903 34.7071 14.5465 34.3616L14.2562 31.478C14.2287 30.9418 14.2687 30.3845 14.1962 29.8535C14.0617 30.2459 14.077 30.618 14.0632 31.0269L13.5478 38.3084L13.2296 41.0376C13.192 41.3902 13.3113 41.924 13.135 42.236L13.0532 42.3749C12.2745 43.529 8.16442 43.5772 7.77911 41.8913C7.56062 40.9353 7.60839 39.9577 7.43055 39.0049C7.35803 38.6162 7.39028 38.1838 7.38817 37.7879L7.39816 32.768C7.40589 32.5401 7.462 32.3259 7.47976 32.1013L7.80836 27.1482L8.41436 22.3332C8.76972 20.0404 9.23772 17.7295 10.1266 15.577C11.4081 12.4739 12.8972 11.3453 16.295 10.6266C16.5017 10.5829 16.72 10.5365 16.9298 10.513C17.557 10.4429 17.2702 10.5694 17.7559 10.1564L18.7918 9.31016C19.0578 9.09008 19.3278 8.75816 19.6841 8.69558L19.7224 8.68916C20.2673 8.5857 20.536 8.92897 20.7317 9.3853L23.1108 14.402C23.2084 14.5742 24.3316 14.4486 24.7264 14.5677L27.3714 9.12706C27.5109 8.84788 27.6924 8.7455 27.9761 8.65039C28.5643 8.65583 28.7708 8.966 29.2029 9.31972L30.2127 10.1365C30.4777 10.3687 30.4544 10.4585 30.8081 10.4871C33.0924 10.6719 35.6559 11.702 36.9159 13.7006C37.3863 14.4468 37.7665 15.2823 38.0628 16.1131L38.7667 18.328C38.8621 18.6633 38.9174 19.01 38.9999 19.3475L39.6513 23.1452L40.2594 28.5591L40.5019 32.0714C40.51 32.1911 40.5387 32.3067 40.5475 32.4256L40.607 36.1976C40.6056 37.7075 40.6154 39.205 40.4192 40.7055L40.3115 41.4725C40.1292 42.7264 39.6346 42.8098 38.4774 43.1385C37.4576 43.4281 34.7828 43.0157 34.782 41.6879L34.7776 41.1286C34.7639 40.7421 34.7153 40.3456 34.6747 39.9605L34.532 38.8588L33.9634 31.7225C33.9579 31.6442 33.9606 31.4878 33.9021 31.4364C33.7981 31.592 33.8318 32.3322 33.8117 32.5531L33.469 35.0389C33.2528 36.2945 33.0864 36.7502 31.9478 37.2809L31.8917 37.3065C31.782 37.3503 31.6404 37.3515 31.5225 37.3545L16.4173 37.3597C16.284 37.3535 16.1424 37.3306 16.0183 37.2805L15.7852 37.1834C15.3346 36.9662 14.9765 36.4775 14.8214 36.0088L14.68 35.4083ZM19.5722 10.7694L19.5515 10.8013C19.4978 10.8801 19.3933 10.9491 19.3186 11.0095L18.696 11.4854C18.8877 12.7257 19.5939 13.6108 20.7636 14.0863L21.3713 14.3218L19.5722 10.7694ZM28.3815 10.7741L26.7139 14.2697C26.9251 14.1762 27.1249 14.0793 27.3186 13.9531C28.3271 13.2992 28.9098 12.5999 29.2071 11.4158L28.3815 10.7741ZM30.7473 12.0909C30.6181 12.359 30.53 12.6425 30.4038 12.9121C29.9335 13.9166 29.139 14.7864 28.2034 15.3824L27.9406 15.536C27.7833 15.6202 27.8679 15.7746 27.8707 15.9444L27.868 21.283C27.866 21.4783 27.8892 21.7169 27.8337 21.9035C27.5876 22.7315 26.3271 22.8072 26.3181 21.5861L26.3185 17.3203C26.3183 17.1297 26.3519 16.2809 26.292 16.148C26.0326 16.2553 25.4469 16.4659 25.1801 16.3148C25.048 16.2399 24.8067 16.2773 24.6563 16.281L24.0717 16.2872L24.0646 22.8591C24.0653 23.0684 24.1019 23.345 24.0365 23.5428L24.0286 23.5684C23.8019 24.2741 22.8811 24.2873 22.5836 23.6448L22.5556 23.5833C22.4936 23.4417 22.5144 23.2505 22.5144 23.0983L22.5144 16.8899C22.5142 16.6534 22.5301 16.4068 22.5007 16.1725L21.5943 16.0929C21.5717 16.5388 21.6087 16.9965 21.6109 17.4443L21.6129 21.3441C21.6127 21.8108 21.6026 22.379 21.0232 22.5068L20.9954 22.5133C20.6132 22.597 20.1366 22.3098 20.076 21.9104C20.0494 21.7354 20.0661 21.5411 20.0658 21.3633L20.0638 16.4548C20.0634 15.7573 20.2875 15.6134 19.7751 15.4198C18.6257 14.9857 17.6797 13.7053 17.3356 12.5701C17.2343 12.2359 17.3681 12.0965 17.068 12.1409C16.7338 12.1905 16.4057 12.2775 16.0783 12.3588C13.5122 12.9961 12.6413 13.6812 11.6563 16.0144C10.7017 18.2755 10.257 20.6915 9.90212 23.1065L9.65772 24.7264L9.08219 31.1793L8.95956 33.6209L8.99317 38.5077C9.00709 38.7215 8.99739 38.9389 9.02195 39.1522L9.26753 41.3095C10.0285 41.6578 10.6854 41.7399 11.4926 41.4491L11.6462 41.3897L12.5905 29.4551L13.0534 25.4428C13.222 24.5366 13.9558 21.701 14.7026 21.0686C15.1208 20.7145 15.7637 21.0487 15.8027 21.5767C15.8581 22.3249 15.695 23.0308 15.6798 23.7701L15.6658 26.2087C15.6699 26.4836 15.7237 26.7522 15.732 27.0262L15.7507 29.5194C15.7549 29.7287 15.7855 29.9367 15.7961 30.1458L15.8797 31.6516C15.8885 31.7479 15.8663 31.897 15.9047 31.9822L30.3861 31.9787C31.0902 31.9792 31.4309 32.054 32.1178 32.1935C32.1657 31.7011 32.1353 31.1819 32.135 30.6865L32.1277 27.7551C32.1214 27.5555 32.075 27.3623 32.0691 27.1616L32.0512 24.3193C32.0425 24.1217 32.0043 23.9274 31.9926 23.7303L31.9381 22.7428C31.9077 22.3634 31.8535 21.9585 31.8909 21.5769C31.963 20.8408 32.7707 20.748 33.146 21.3028C33.5004 21.8267 33.7767 22.4879 33.9581 23.0975L34.7343 26.0506L35.0974 28.2009L35.473 31.4178L36.0103 38.0554L36.3467 40.756C36.3574 40.93 36.3233 41.1534 36.3646 41.3178C36.8156 41.565 37.6037 41.7294 38.0849 41.589L38.2608 41.5328C38.421 41.4827 38.5804 41.3962 38.7334 41.3262C38.7565 40.9501 38.8298 40.5806 38.8864 40.2085C39.025 39.298 39.0035 38.3936 39.0206 37.4764L39.0695 34.3709L38.9103 31.364L38.064 22.9596L37.4407 19.5975C37.061 17.9019 36.3432 15.342 35.1526 13.9917C34.1002 12.7982 32.258 12.3539 30.7473 12.0909ZM16.0553 33.6185C16.0741 33.9378 16.1292 34.2482 16.1725 34.5655L16.2797 35.3037C16.3049 35.4598 16.3004 35.5963 16.3847 35.7363L29.7554 35.7393C30.2806 35.739 31.4623 35.9399 31.7224 35.4829C31.8139 35.3268 32.024 33.8468 31.9927 33.6759L16.0553 33.6185Z" fill="black"/>
</svg>
