<svg width="48" height="48" viewBox="0 0 48 48" fill="none" xmlns="http://www.w3.org/2000/svg">
<path d="M28.3263 39.9179C28.0763 39.9132 27.8266 39.875 27.5775 39.8545L26.6953 39.7987C26.4895 39.7818 26.289 39.7475 26.0816 39.7409L22.2812 39.7461L18.5138 40.0933C17.7848 40.1884 17.0511 40.2699 16.3302 40.4181C15.2902 40.632 15.301 39.8901 15.1881 39.1293C14.9187 37.3128 14.1095 35.9228 13.6186 34.259C13.0564 35.3967 12.6252 36.5848 12.2995 37.8111L11.9958 39.1219C11.9154 39.4902 11.8531 39.8544 11.6943 40.1999C10.6028 42.575 7.41439 42.5248 6.33983 40.0963C6.11712 39.593 6.1145 39.2766 6.11328 38.7321L6.11952 37.2756C6.13644 36.9551 6.19001 36.6389 6.19592 36.3168L6.29839 32.7443C6.30898 32.5515 6.35591 32.3766 6.36762 32.1848L6.39945 31.3472L7.01595 25.3363C7.52727 21.4832 8.6503 13.2679 12.1492 10.7657C12.8289 10.2796 13.6448 10.1506 14.3704 9.76466C14.7489 9.56328 15.0992 9.30111 15.4609 9.07086L19.4484 6.48814C19.7563 6.30594 20.0273 6.11141 20.3869 6.05469C21.0061 6.0912 21.191 6.55986 22.0165 6.70297C23.1796 6.90458 26.4366 6.97602 27.1843 6.41806C27.8983 5.88514 28.1296 5.98723 28.8936 6.53961L32.8688 9.28484C33.8005 9.88011 33.9746 9.9417 34.9687 10.2842C36.6442 10.8614 37.5085 12.6165 38.2504 14.0981L38.7289 15.208L39.4524 17.2929C39.5245 17.6641 39.6526 18.0444 39.7503 18.4106L40.3539 21.1582L41.008 25.3538L41.5712 30.8296L41.8184 35.309C41.8274 35.4963 41.8755 35.6789 41.8858 35.8638C41.9209 36.4887 41.893 37.1275 41.8951 37.7542C41.8969 38.3093 41.9461 38.9131 41.8714 39.4611C41.6767 40.8898 40.2181 42.1837 38.7391 41.9653C37.5568 41.7907 36.5562 40.9593 36.174 39.8299C36.0381 39.4286 35.995 38.9854 35.9078 38.5708C35.8155 38.132 35.6843 37.6925 35.5588 37.2622L34.922 35.3285C34.7734 34.9317 34.5907 34.5412 34.4651 34.1371L33.2226 37.6196C33.0294 38.2834 32.8539 38.9305 32.7848 39.6198C32.694 40.5262 32.0412 40.4697 31.4038 40.3473L28.3263 39.9179ZM20.9282 7.82267C21.1949 9.01484 22.0993 10.8397 23.2354 11.382C24.2089 11.8468 25.2368 11.0921 25.7982 10.3221C26.2851 9.64166 26.6406 8.86367 26.915 8.07589C25.9345 8.29044 24.8962 8.23231 23.8979 8.23156C22.8072 8.23077 21.9826 8.21544 20.9282 7.82267ZM19.5598 7.95809L19.2636 8.19875C19.3802 8.83306 19.3968 9.54158 19.6323 10.1475L19.9984 11.2455C20.2021 11.7464 20.4348 12.1871 20.7722 12.6102C22.3701 14.614 25.379 15.012 27.045 12.8676C27.6142 12.1349 28.2434 10.2017 28.499 9.32853L28.5265 9.22986L28.8234 8.21483L28.4316 7.97417C27.8303 9.76212 27.0998 11.7641 25.289 12.656C22.6474 13.9572 20.5756 11.193 19.839 8.93141L19.5598 7.95809ZM30.041 9.03556L29.165 11.6018C28.976 12.1281 28.7945 12.657 28.5309 13.1523C27.575 14.9481 25.3971 15.9659 23.4021 15.678C19.9571 15.1809 18.508 12.2061 17.9906 9.13002C17.7892 9.23773 17.6105 9.37245 17.4184 9.49475L15.5859 10.6859C15.4547 10.7697 15.3046 10.8526 15.1898 10.958C16.612 12.8775 16.5974 15.065 16.5971 17.3676C16.597 18.0092 16.6556 18.735 16.5272 19.3681L16.3009 21.0183L16.0205 22.6729C17.5842 21.6384 18.7021 21.2601 20.6384 21.1688L23.3789 21.187C23.6237 21.2029 23.8625 21.2572 24.1073 21.2752L26.275 21.4662C27.8605 21.6537 29.4782 22.0448 30.9147 22.7489L32.3622 23.5384C31.891 21.78 31.545 19.3075 31.4668 17.4379L31.4596 15.7584C31.4611 14.2175 31.657 12.8462 32.4385 11.4877L32.8388 10.9196C32.5919 10.7374 32.3161 10.5996 32.0595 10.4311L30.3879 9.25442C30.3172 9.20164 30.1196 9.02806 30.041 9.03556ZM13.7014 11.5814C13.5623 11.6134 13.4433 11.6459 13.3139 11.7074L13.2888 11.7189C12.1635 12.2414 11.19 14.2288 10.7354 15.287C9.449 18.2819 8.91716 21.5477 8.48558 24.7603L7.73572 32.7383C7.70473 33.3132 7.61492 33.8917 7.59584 34.4651L7.58389 36.7505C7.58178 36.9186 7.54573 37.0884 7.53467 37.2573L7.51339 38.3562C7.50875 38.6416 7.46061 39.0072 7.53622 39.2817C7.73708 40.0104 8.38958 40.548 9.15495 40.5177C10.4188 40.3959 10.4518 39.4446 10.6773 38.5536C11.0805 36.9598 11.4957 35.3771 12.225 33.8962L12.7567 32.8355C13.0865 32.1406 13.0439 31.9695 13.0316 31.2081L13.0126 29.2482C13.0351 27.6077 13.4971 26.112 13.9825 24.5523L14.35 23.4184C15.2156 20.3828 15.8458 15.1393 14.4797 12.4146C14.3598 12.1753 14.0311 11.5827 13.7014 11.5814ZM34.3056 11.5811C33.8684 11.7778 33.5785 12.3246 33.414 12.7567C32.9433 13.9927 32.83 14.5553 32.827 15.8643L32.9542 18.6332C32.978 18.9178 32.9729 19.2217 33.0282 19.5012L34.2542 25.2915C34.3932 25.7463 34.4639 26.2326 34.6284 26.6801L34.9137 27.9853C35.0526 28.8404 35.1081 29.9088 35.0271 30.7525L34.9391 31.5665C34.8997 32.0265 35.0298 32.2448 35.2339 32.6542L36.332 35.1567L37.0393 37.4639C37.0468 37.5002 37.0583 37.5318 37.0706 37.5665L37.3206 38.5491C37.5049 39.5464 37.7512 40.3933 38.9496 40.5222C40.4026 40.4351 40.5181 39.4339 40.5166 38.2932L40.4095 34.0082L40.2184 30.9972L39.6463 25.3834L39.2199 22.5905C38.8935 20.5296 38.4569 18.4359 37.7313 16.4744C37.3257 15.3777 35.755 11.446 34.3056 11.5811ZM20.9385 22.5767C19.9703 22.6154 18.8835 22.7664 18 23.1591C17.1651 23.5303 16.381 24.3773 15.4781 24.4899C15.2623 25.057 15.1224 25.6325 14.9614 26.2152C14.3045 28.5927 14.147 30.2477 14.636 32.7587C14.7095 33.1361 14.8182 33.4998 14.9156 33.8712L14.9546 33.9848C15.0727 34.3055 15.1686 34.6394 15.3164 34.9483L15.5068 35.4207C15.5939 35.6179 15.6298 35.8535 15.7562 36.0211L27.1523 36.0177L32.2524 36.0169C32.3899 35.6907 32.5479 35.3195 32.674 34.997C33.6898 32.4006 33.9649 29.5408 33.2421 26.8375L33.0863 26.2691C33.0136 26.0103 32.9456 25.9442 32.7545 25.7555C31.1304 24.1513 28.8916 23.244 26.6484 22.9678L20.9385 22.5767ZM18.7231 37.4637L16.2668 37.5076C16.3354 37.6425 16.3894 37.9232 16.4132 38.0705L16.6115 38.8933C16.9766 38.8672 17.3411 38.7958 17.7044 38.75L22.168 38.3341C22.3213 38.3218 22.4661 38.2809 22.6213 38.2736L25.6447 38.2798C25.853 38.2877 26.0556 38.3348 26.2636 38.3452L28.5389 38.5211C28.6929 38.5418 28.8523 38.5414 29.0039 38.5742L31.4585 38.9137L31.6717 37.8584C31.701 37.7287 31.6989 37.589 31.7615 37.47L18.7231 37.4637Z" fill="black"/>
</svg>
