<svg width="48" height="48" viewBox="0 0 48 48" fill="none" xmlns="http://www.w3.org/2000/svg">
<path d="M24.9021 45.7294L20.5896 45.6613C19.1188 45.5646 17.6859 45.3777 16.246 45.0564L15.0773 44.7666C14.0028 44.4664 13.8902 44.3129 13.8882 43.2959L13.8859 41.8228C13.8845 41.2641 14.0153 41.3205 13.6682 40.9409C11.8784 38.9835 13.4323 36.5162 13.7594 34.3186C13.8433 33.7549 13.8692 33.1635 13.9021 32.5942L13.9734 31.8084L13.9756 26.7892L13.8933 25.8747C13.8624 25.1793 13.9242 24.4808 13.8286 23.7885C13.6746 24.0864 13.5956 24.4744 13.49 24.7965C13.0326 26.1922 12.4802 27.5799 11.8069 28.8865L10.8876 30.5987C10.6606 31.0146 10.5376 31.2746 10.3522 31.6887C9.90693 32.6836 9.12079 32.0525 8.52379 31.7607L6.75857 30.9313C6.43977 30.7812 6.20966 30.5829 6.08868 30.2441L6.07794 30.2134C5.93137 29.8214 6.0193 29.3137 6.01954 28.9028L6.02512 27.3253C6.1498 24.0962 7.13666 22.1573 8.19074 19.1838L9.48336 15.2222C10.9175 11.0608 12.74 9.12479 17.3459 8.43929C17.7356 8.38131 18.43 7.60778 18.6341 7.28884C18.7978 7.03299 18.7702 6.91093 18.7707 6.60564L18.7708 5.68759C18.7707 5.00593 18.8828 4.63263 19.2942 4.05567L19.4117 3.90212C20.4207 2.77962 21.8052 2.37355 23.2677 2.28334L24.3211 2.27037C24.6142 2.27029 24.9303 2.24577 25.2186 2.29885L25.6956 2.37293C27.4646 2.72886 29.2115 3.63023 29.2236 5.62703L29.2219 6.44382C29.2146 6.62228 29.1726 6.84709 29.2255 7.01931C29.3771 7.51253 30.1772 8.22676 30.6149 8.40137C30.7527 8.45631 30.8755 8.44689 31.0192 8.46545C32.8492 8.70174 34.7522 9.52834 36.0676 10.8278C37.2939 12.0392 38.2999 14.2677 38.7902 15.9607L39.635 18.6326C39.752 19.0597 39.9377 19.4729 40.0946 19.8865L41.1183 22.6795C41.425 23.6432 41.6657 24.6235 41.7952 25.6289L41.9179 27.0263C41.9319 27.2193 41.9652 27.4089 41.9722 27.6034L41.9744 29.7947C41.9714 30.6249 41.4572 30.8281 40.8077 31.1542L39.4398 31.8067C37.9057 32.5168 38.0366 32.3186 37.311 30.9963C36.675 29.8372 36.0491 28.685 35.5263 27.4686L34.1352 23.6806L34.0657 24.7589C34.0508 24.947 34.0179 25.1322 34.0106 25.3211L34.0163 31.031C34.0258 31.3461 34.0322 31.6434 34.0744 31.9568C34.198 32.8738 34.1291 33.7714 34.3123 34.7459L34.4835 35.4798C34.5115 35.6278 34.5589 35.7955 34.6077 35.9368L34.7685 36.509C34.801 36.6812 34.8638 36.8632 34.9099 37.0344C35.2806 38.4113 35.4465 40.1056 34.1564 41.0709L34.1382 43.4896C34.1406 44.2407 33.9055 44.4744 33.1547 44.6999L32.3268 44.9212C30.9191 45.2561 29.5086 45.489 28.0674 45.6239L24.9021 45.7294ZM22.9498 3.73156C21.9936 3.8156 21.0328 4.15733 20.3953 4.90787L23.6809 6.01154C24.0956 6.12132 24.491 5.97896 24.8848 5.82784L27.6096 4.85321C27.0308 4.19753 25.9438 3.78738 25.1015 3.73563L22.9498 3.73156ZM27.7365 6.29274L27.6934 6.31454C27.4946 6.42099 27.2584 6.48887 27.0466 6.56701L25.7998 7.02226C25.6377 7.07621 24.7765 7.32057 24.7266 7.39384L24.7229 11.2684C24.723 11.3968 24.7078 11.5419 24.7333 11.6671C25.1667 11.6192 25.6328 11.5313 26.045 11.3877C27.2604 11.0719 28.5113 10.159 29.3635 9.27995C28.6318 8.56089 28.0897 8.13793 27.8033 7.13087C27.7268 6.86157 27.7983 6.57174 27.759 6.29912L27.7365 6.29274ZM20.2305 6.3106C20.2232 7.61724 19.8432 8.39242 18.7398 9.1967L18.6448 9.25923C19.4713 10.1508 20.7885 11.1429 22.0198 11.3643L22.8278 11.5555C22.966 11.5842 23.1142 11.6276 23.2548 11.6356L23.2554 7.34692L22.9956 7.27618C22.2418 7.10612 20.9051 6.61342 20.2305 6.3106ZM17.3046 9.87821L16.7505 9.95064C16.1268 10.0689 15.5467 10.2676 14.9619 10.5111C12.9444 11.3511 11.9488 12.7084 11.1508 14.742L9.75519 18.9696L8.52088 22.2249C7.99096 23.6731 7.56669 25.2728 7.48447 26.822L7.47529 29.6738C7.82976 29.8979 8.22824 30.0558 8.60179 30.2452L9.03876 30.4703C9.10958 30.5071 9.19494 30.5664 9.27322 30.5801C10.5025 28.5026 11.4822 26.328 12.2611 24.0443L13.534 20.4023C13.7031 19.8868 14.0203 19.1261 14.7298 19.6701C15.0088 19.884 15.0438 20.3779 15.0642 20.7091L15.1053 21.2981C15.1223 21.5132 15.158 21.7272 15.1679 21.943L15.2499 24.1118C15.2648 24.5964 15.2261 25.126 15.3065 25.6022C15.3507 25.8643 15.3688 26.1119 15.3738 26.3787L15.3571 32.5076L15.2953 33.128C15.1968 34.2973 14.9936 35.3796 14.6875 36.5144C14.4651 37.339 14.0835 38.3153 14.238 39.1859L14.2461 39.2326C14.2644 39.3207 14.329 39.418 14.3745 39.4958C15.1398 40.8026 16.3927 40.8916 17.7156 41.0944L18.6303 41.2451L23.1325 41.6003L25.4515 41.5629C25.8701 41.5518 26.3039 41.5711 26.7185 41.5144L30.445 41.086C31.5695 40.9225 32.7066 40.7534 33.4562 39.7932C34.3189 38.6882 33.0179 35.8726 32.8464 34.4646L32.6052 30.8384C32.5968 30.6818 32.57 30.5275 32.5647 30.3702L32.5617 27.354C32.5666 27.1231 32.6055 26.898 32.6113 26.6672L32.6294 25.2033L32.753 22.6743L32.9333 20.4316C32.9881 20.0362 33.1075 19.6742 33.5153 19.5444L33.5406 19.5362C33.8838 19.4337 34.183 19.6686 34.3117 19.9685L36.5832 26.3552C37.0172 27.4333 37.5389 28.483 38.0911 29.5052L38.5575 30.3243C38.6116 30.4176 38.6501 30.5137 38.7089 30.6042C39.0239 30.4234 40.3382 29.8779 40.5093 29.6799C40.5313 29.5725 40.521 29.4511 40.5212 29.3414L40.5144 26.9459C40.4331 25.3109 40.0275 23.6944 39.4675 22.1613L38.4558 19.5228L36.9832 15.1046C35.9642 12.4668 34.5717 10.6322 31.6286 10.0302L30.7081 9.86978C29.9946 10.7297 29.334 11.3387 28.3395 11.8894L27.289 12.4153C27.2269 12.4431 27.0072 12.5042 26.9752 12.5537C26.9525 12.5889 26.9727 13.486 26.9727 13.5867L26.9722 19.8835C26.9721 20.0506 27.001 20.2834 26.9457 20.4414C26.6934 21.1607 25.6624 21.12 25.5298 20.3942C25.4925 20.1901 25.5185 19.9372 25.5184 19.7277L25.5205 13.3857C25.5225 13.2612 25.5376 13.1273 25.5245 13.0042L24.7133 13.0579L24.7214 18.1002C24.7211 18.3513 24.7337 18.6172 24.6931 18.8656C24.5543 19.7147 23.3747 19.6163 23.2647 18.9021C23.2382 18.7304 23.2555 18.5343 23.2554 18.3599L23.2559 13.1284C23.256 13.0184 23.2659 13.0393 23.1504 13.0224L22.1422 12.9038C22.1114 13.1515 22.1248 13.4081 22.1246 13.6576L22.1271 19.6452C22.1337 19.8955 22.1805 20.1676 22.1331 20.4154C21.9725 21.2564 20.8521 21.055 20.7592 20.3084C20.734 20.1054 20.7509 19.8829 20.7511 19.678L20.7531 12.978C20.7516 12.3755 20.9323 12.5134 20.4305 12.2905C19.239 11.7614 18.1088 10.9522 17.3647 9.87231C17.3584 9.87278 17.3088 9.87517 17.3046 9.87821ZM15.2633 41.9881L15.254 42.9268C15.2551 43.4151 15.1702 43.3281 15.6297 43.4379L17.9549 43.9605L19.0661 44.0971C19.6144 44.172 20.1657 44.2449 20.719 44.2731L27.0415 44.2859C27.3682 44.273 27.6933 44.2279 28.0184 44.1974L28.6812 44.1426C29.5026 44.0472 30.3417 43.9367 31.1481 43.7532L32.7439 43.3737L32.7136 42.0278C32.4859 42.1725 31.3366 42.3346 31.0308 42.3905C28.5561 42.8431 25.8347 43.0697 23.3218 43.006L19.6755 42.7498L17.2723 42.4409C16.6288 42.3365 15.8608 42.2694 15.2633 41.9881Z" fill="black"/>
</svg>
