<svg width="48" height="48" viewBox="0 0 48 48" fill="none" xmlns="http://www.w3.org/2000/svg">
<path d="M27.8097 43.7535L23.4557 43.756C20.498 43.756 17.0547 44.0495 14.5147 42.2315C13.9115 41.7998 13.6146 41.3116 13.6133 40.5828L13.602 37.794C13.5973 37.5326 13.5363 37.2835 13.5294 37.0271L13.4159 32.5361C13.4042 32.2867 13.3533 32.0456 13.3382 31.7984L13.1651 28.9355C13.1379 28.5947 13.1624 28.2519 13.1316 27.9099C13.0324 28.0435 12.9712 28.247 12.9059 28.4012L11.3456 32.1334L8.90554 38.5553C8.69953 39.1844 8.69695 39.7559 7.98618 40.0497L7.81612 40.1131C7.08257 40.3274 5.25534 39.7114 4.49202 39.3039C3.43537 38.7397 2.74358 38.3418 2.72267 37.0392C2.70667 36.0432 2.88573 35.613 3.1979 34.6694L4.57916 29.5674L6.33454 23.6036L7.4901 20.2611L9.92592 13.961C10.082 13.4562 10.2105 12.9374 10.4363 12.4576C11.1289 10.9855 12.5818 9.80625 14.1229 9.34181C15.0769 9.05433 15.9509 8.81747 16.7516 8.2042C17.1407 7.90617 17.3608 7.89839 17.362 7.45533L17.3637 6.57647C17.3652 6.06539 17.4751 5.74458 17.7919 5.32092L17.8974 5.18733C18.4888 4.52662 19.332 4.33909 20.1764 4.29997L27.2047 4.28711C28.4995 4.28748 29.8438 4.36881 30.4614 5.77542C30.7259 6.37772 30.6083 7.08937 30.6287 7.7317C31.3196 8.46558 32.2117 8.83289 33.1614 9.11292C35.2522 9.72933 37.2334 10.9686 37.8544 13.2076L38.2652 14.5186L40.2916 19.7372L41.6074 23.4733L42.9238 27.825C42.9905 28.1654 43.1317 28.4868 43.2015 28.8261L43.6738 30.5748C43.6942 30.699 43.7424 30.8096 43.7649 30.9337L44.051 32.0439C44.0771 32.1917 44.1214 32.3986 44.1722 32.5399L44.3274 33.1135C44.3492 33.2288 44.3963 33.3348 44.4224 33.4498L44.5179 33.7904C44.5665 34.0346 44.6543 34.314 44.738 34.5475C45.2827 36.068 45.9348 37.7295 44.2568 38.8248C43.3659 39.4063 42.3938 39.8626 41.3422 40.0465C40.127 40.2591 39.5775 40.2026 39.1998 38.9568L37.7626 35.0054L34.8747 27.9157C34.806 28.3237 34.8041 29.0112 34.7821 29.4743L34.7549 30.498C34.7461 30.7253 34.7108 30.9465 34.6946 31.1725L34.6369 32.2912C34.6248 32.4541 34.5917 32.6112 34.5847 32.7765L34.5603 34.067C34.5104 35.3122 34.4057 36.5483 34.4038 37.8045L34.3967 40.594C34.3554 43.1235 29.6804 43.7514 27.8097 43.7535ZM20.4512 5.58272C19.6906 5.60747 18.6333 5.70272 18.6286 6.66839L18.6272 7.32164C18.6271 7.51251 18.601 7.74961 18.6388 7.93523C19.0957 8.09864 19.509 8.34914 19.9771 8.48709C20.7901 8.72667 21.8856 8.86795 22.7498 8.90761L24.2329 8.91295C24.6348 8.91272 25.0535 8.93578 25.4514 8.88051L27.3231 8.62317C27.6576 8.55895 28.0433 8.4675 28.3591 8.34056C28.4606 8.29973 29.3143 7.85953 29.3564 7.77979C29.4084 7.68136 29.4187 6.47053 29.3139 6.30356C28.8058 5.4937 27.9706 5.58117 27.1402 5.58018L20.4512 5.58272ZM30.0114 8.93015C28.3305 9.88908 27.2054 10.0967 25.245 10.2051L23.7929 10.2203C22.0536 10.2177 20.1818 10.0961 18.5896 9.34917L17.9032 9.00197C17.3216 9.38915 16.7795 9.76908 16.1377 10.0546C16.5528 10.6852 17.0768 11.1361 17.7325 11.4995C19.9754 12.4808 23.5172 12.4441 25.91 12.3051C28.0861 12.1787 30.564 12.0328 31.9615 10.0994C31.0148 9.66525 30.8561 9.57745 30.0114 8.93015ZM14.7467 10.5358C13.4816 10.856 12.4102 11.6444 11.7363 12.7642C11.2096 13.6393 11.0525 14.7103 10.6832 15.6569L8.16768 22.146L6.68601 26.7906L5.04056 32.863C4.98993 33.0458 4.92318 33.2354 4.89215 33.4222L8.53603 34.8932C8.65537 34.936 8.76726 34.9915 8.89373 35.0105L8.9031 34.9743C9.01415 34.5584 9.20985 34.1325 9.36299 33.7288L13.0105 24.944C13.1795 24.5494 13.3679 24.0396 13.9299 24.2253C14.391 24.3777 14.3305 24.7012 14.3326 25.1005C14.3365 25.8463 14.3855 26.477 14.4122 27.1967L14.4256 28.0238C14.4459 28.3322 14.5027 28.6354 14.5159 28.9425L14.5372 30.2944C14.5465 30.471 14.5783 30.6441 14.5917 30.8195L14.7266 34.1092C14.7353 34.3365 14.7903 34.5609 14.7979 34.789L14.8167 36.7321C14.8178 37.1082 14.7904 37.5132 14.8539 37.8832C15.2912 37.9755 15.7414 38.0197 16.1833 38.0857L19.3591 38.4218C20.2878 38.469 21.2142 38.4054 22.1395 38.3318L24.0273 38.237C25.0474 38.2231 26.0659 38.3771 27.0846 38.4274C28.7227 38.5082 30.446 38.3816 32.062 38.1088L32.7653 37.9944C32.8845 37.9719 33.0119 37.9766 33.1212 37.9183L33.1904 35.3914L33.2254 34.5387C33.2422 34.3278 33.2749 34.1227 33.2824 33.9103L33.3742 31.9342C33.4016 31.4394 33.4684 30.9496 33.4789 30.4562L33.5581 28.7612L33.6622 25.1809C33.6638 24.8107 33.6037 24.4986 33.9552 24.2606C34.1345 24.1392 34.3987 24.1369 34.5817 24.2532L34.604 24.267C34.8636 24.4412 35.017 25.0116 35.1349 25.2842L36.3815 28.1956C36.4471 28.3561 36.5243 28.5129 36.5814 28.6764L37.7914 31.6649C37.8196 31.748 37.8615 31.8232 37.8883 31.9077L39.1347 35.0371L43.1103 33.4275L40.8967 25.4332L39.1234 20.225L37.0201 14.7681C36.5013 13.1387 36.1637 11.9722 34.5446 11.0674L33.3035 10.5185C33.1528 10.6634 33.0318 10.8751 32.9003 11.0407C31.1715 13.2202 28.2146 13.5297 25.6272 13.6295L23.238 13.6647L20.501 13.4985C18.7543 13.3119 16.9326 12.8866 15.6822 11.5638L14.7467 10.5358ZM4.53818 34.6715L4.18174 35.8164C3.92265 36.6958 3.67342 37.2878 4.53487 37.8464C5.1854 38.2681 6.63932 38.8849 7.45743 38.8528L7.54574 38.5483L8.40628 36.2335L4.53818 34.6715ZM43.4267 34.7233L39.5927 36.2201L40.0805 37.6178C40.2046 37.9341 40.3555 38.3049 40.4262 38.633L40.5226 38.8402C41.5837 38.7132 42.4662 38.4285 43.3719 37.8541C44.4479 37.1716 44.0985 36.7086 43.751 35.5346C43.6721 35.2683 43.5991 34.9744 43.4793 34.7248L43.4267 34.7233ZM14.8871 39.1994L14.8796 40.3396C14.8849 41.1308 15.2538 41.2595 15.9425 41.5971C16.8145 42.0245 17.8987 42.2884 18.8669 42.378L19.3341 42.3986C20.7258 42.4976 22.1201 42.4687 23.5153 42.469L28.4833 42.4071C29.9674 42.3107 31.34 42.1422 32.6285 41.2698C33.3197 40.7853 33.1518 40.0417 33.1138 39.2426L33.0936 39.2473C32.0135 39.4894 30.8637 39.5978 29.7634 39.6759L26.8708 39.7264C25.4304 39.663 24.1979 39.428 22.6875 39.5575L21.4384 39.674C21.2345 39.6937 21.0352 39.7269 20.8297 39.7298L19.261 39.7244L14.8871 39.1994Z" fill="black"/>
</svg>
