<svg width="48" height="48" viewBox="0 0 48 48" fill="none" xmlns="http://www.w3.org/2000/svg">
<path d="M30.0524 44.6903L25.9062 44.9662C25.6568 44.9851 25.3995 44.974 25.149 44.9745L20.2851 44.888C18.5788 44.7903 16.8881 44.5734 15.2089 44.2579L14.396 44.092C13.6462 43.922 13.6581 43.6006 13.6576 42.8857L13.6611 23.0535C13.4435 23.6221 13.2775 24.2121 13.1132 24.7977L11.5821 29.8849C11.1256 31.2703 10.8878 32.1643 10.8809 33.6846C10.8792 34.0622 10.8095 34.1582 10.4198 34.3116L10.392 34.3222C10.0294 34.4645 9.56045 34.3825 9.18737 34.317L8.59389 34.2301C7.8797 34.124 6.40797 34.0564 6.0954 33.2473L6.05378 33.1433C6.0099 33.0006 6.02354 32.8387 6.02331 32.6909L6.02312 27.359C6.0242 26.2834 6.01201 26.3087 6.27259 25.3205L8.80628 14.4708C9.03203 13.3746 8.99889 12.867 9.0422 11.7939C9.15845 8.91543 11.0824 6.22358 13.6787 5.02673C14.53 4.63423 15.4334 4.35454 16.3077 4.01922L17.983 3.37163C18.3232 3.23401 18.659 3.06473 19.0085 2.95496C19.3581 2.92297 19.6398 3.17138 19.9433 3.31077C22.0357 4.27182 25.9751 4.30319 28.117 3.26417C29.0941 2.79025 28.9483 2.92343 29.9898 3.35739L33.3277 4.63106C35.6936 5.55651 37.3457 6.86404 38.3553 9.3224C38.4473 9.54627 38.5495 9.77423 38.6082 10.0097L38.7053 10.3514C38.7703 10.6761 38.8564 10.983 38.8915 11.3166C39.0018 12.3628 38.9312 13.159 39.134 14.236L41.716 25.3824C41.7761 25.6506 41.9232 25.9113 41.9544 26.1855C42.0056 26.6361 41.9767 27.1091 41.9768 27.5628L41.9767 32.1614C41.9758 33.5677 41.9169 33.7295 40.4941 34.0563C39.9077 34.1909 38.5722 34.4799 37.9798 34.3936L37.9452 34.388C37.551 34.3274 37.1451 34.092 37.1441 33.658L37.1385 33.1663C37.1023 32.3178 36.9253 31.5376 36.6913 30.7277L34.6466 24.141C34.5215 23.7241 34.3927 23.3099 34.3082 22.8825L34.2912 23.1739C34.2352 23.571 34.3128 23.9564 34.3175 24.3539L34.3251 42.9056C34.327 43.1017 34.3441 43.3093 34.3214 43.5041L34.3173 43.5348C34.2472 44.1103 33.1795 44.1727 32.7552 44.254L30.0524 44.6903ZM19.0205 4.25352L18.9371 4.28868C18.8786 4.39793 19.0106 4.8568 19.0387 5.00141C19.878 9.31696 25.1681 11.1313 27.849 7.39368C28.3991 6.66369 28.6863 5.84404 28.9245 4.9716C29.1082 4.29883 29.2507 4.12346 28.5116 4.44972C26.2097 5.46585 22.3084 5.50888 19.9421 4.61764L19.4477 4.41443C19.3084 4.35049 19.1751 4.26956 19.0205 4.25352ZM17.7281 4.76915L16.1783 5.35621C15.2944 5.67337 14.4053 5.98724 13.5936 6.46982C11.6012 7.65435 10.2195 9.82115 10.2172 12.1575L10.2137 13.0777C10.2016 13.6028 10.1024 14.1342 10.0002 14.6481L7.55847 25.1639C7.34519 25.9543 7.2355 26.2052 7.2333 27.0325L7.23123 28.8583C7.23142 28.9563 7.21937 29.0801 7.24956 29.1726L10.2935 29.9931C10.6523 28.9889 10.9112 27.9478 11.2147 26.9265L13.3735 19.9566C13.5348 19.4738 13.7196 18.4423 14.4818 18.7648C14.6157 18.8214 14.6919 18.9155 14.7742 19.0309L14.79 19.0522C14.9342 19.2572 14.8381 20.3034 14.8379 20.5904L14.8468 23.9144L33.1335 23.9111L33.1413 20.8297L33.1342 19.6428C33.1327 19.1126 33.1507 18.8278 33.7829 18.6922C34.4756 18.8657 34.5681 20.0931 34.8199 20.7404L35.2985 22.1949C35.3671 22.3889 35.4133 22.5896 35.4848 22.7809L37.2446 28.5769C37.3616 28.8882 37.5534 29.7854 37.687 30.0008C38.2352 29.8806 38.7686 29.6948 39.3104 29.5494L40.3286 29.2729C40.4666 29.2347 40.6232 29.2109 40.7536 29.1541L40.726 26.677C40.7173 26.2746 40.6246 25.9456 40.5283 25.5591L38.3738 16.2297C38.1555 15.233 37.825 14.2014 37.7823 13.1755C37.7668 12.8001 37.7949 12.4213 37.7728 12.0466C37.6144 9.36215 35.982 7.13826 33.5776 6.04293L30.2282 4.75499C30.0336 5.40637 29.8822 6.06276 29.632 6.6981C27.6794 11.6551 21.1096 11.9749 18.6182 7.29379C18.3152 6.7244 18.0901 6.11891 17.9286 5.49519C17.8697 5.26766 17.8517 4.99443 17.7686 4.77904L17.7281 4.76915ZM32.8694 25.1124L15.5138 25.1258C15.2929 25.1267 15.0657 25.1166 14.8463 25.1404L14.8462 26.4156C14.8988 26.4593 15.1856 26.4396 15.2694 26.4411L33.1361 26.4473L33.1395 25.1128L32.8694 25.1124ZM14.8422 27.6339L14.8406 28.9209L33.1406 28.9375L33.1423 27.6324L14.8422 27.6339ZM14.8567 30.1203L14.8356 39.5264L18.2326 40.1206L20.8007 40.3419C21.1003 40.3617 21.3959 40.4261 21.6974 40.439L26.0864 40.4406C26.6469 40.4282 27.2289 40.3486 27.8044 40.3128L28.8897 40.2116C29.8607 40.1349 31.369 39.9093 32.2771 39.6852L33.1571 39.5166L33.1411 30.1178L14.8567 30.1203ZM7.22444 30.3863L7.22898 32.1441C7.22772 32.9671 7.14165 32.7909 8.14848 32.937L9.71233 33.1675C9.71355 33.0801 9.71575 32.9946 9.70469 32.9078L9.95429 31.1143L7.22444 30.3863ZM40.7079 30.4332L38.0555 31.1165C38.2059 31.7151 38.3056 32.4256 38.3023 33.0491L38.3287 33.1784L39.9541 32.9344C40.2174 32.8963 40.5302 32.8636 40.7813 32.7763L40.7842 31.2833C40.7839 31.0044 40.804 30.7059 40.7592 30.4305L40.7079 30.4332ZM14.859 40.7588L14.8416 42.9522C15.928 43.1547 17.0172 43.3769 18.1171 43.4913L20.2217 43.6411C20.4189 43.6524 20.6091 43.6939 20.8085 43.7009L27.2603 43.704C27.4524 43.697 27.6385 43.6549 27.8293 43.642L31.5233 43.2426C32.0536 43.1555 32.6243 43.0998 33.137 42.9355L33.1571 42.8332L33.154 40.7709L29.8944 41.3233L26.8965 41.6055L23.2499 41.6749L21.1511 41.6069C19.9832 41.5517 18.8048 41.4259 17.6483 41.2583L15.8184 40.9463C15.5095 40.8911 15.1571 40.8558 14.859 40.7588Z" fill="black"/>
</svg>
