<svg width="48" height="48" viewBox="0 0 48 48" fill="none" xmlns="http://www.w3.org/2000/svg">
<path d="M28.0663 42.7286L17.3729 42.7286C17.0043 42.7284 16.5884 42.7659 16.2243 42.7193C14.6992 42.524 14.2733 41.3163 14.2726 40.0038L14.2729 38.5853C14.273 38.1116 14.2985 38.0313 14.1817 37.5866L13.1632 32.8951C12.9224 33.3229 12.4107 34.904 12.2813 35.367C11.8678 36.8464 11.5829 38.3741 10.1751 39.3186C10.0159 39.4255 9.96946 39.3788 9.91696 39.5684L9.80465 39.9725C9.72791 40.2264 9.60421 40.4659 9.52569 40.7206L9.29001 41.4999C9.25879 41.6182 9.24679 41.739 9.2016 41.8538L9.15008 41.9777C9.05254 42.1743 8.8596 42.3514 8.64993 42.4195L8.6249 42.4271C8.20494 42.5593 7.48129 42.22 7.06738 42.1178L5.43932 41.7139C4.13176 41.3934 4.13124 41.2698 4.55028 39.8223L4.92041 38.3562C5.04426 37.8278 5.02691 37.1415 5.14026 36.7523C5.24657 36.3871 5.29855 36.0011 5.40787 35.6333L9.44362 21.9765L11.0596 16.0311C11.4407 14.115 11.8071 12.7249 13.5897 11.5954C14.8134 10.82 16.466 10.6252 16.55 8.92028C16.6503 6.88342 18.0285 5.50281 20.0786 5.28241L27.1424 5.26862C27.4266 5.26867 27.7405 5.24467 28.0219 5.2802C29.6471 5.48547 31.0626 6.59462 31.3916 8.22147L31.4279 8.52892C31.4952 8.91625 31.3332 9.24939 31.5134 9.61164C32.3474 11.2882 35.273 10.908 36.5631 14.3319C36.8254 15.0281 36.8442 15.7556 37.0312 16.4647L37.3129 17.4959C37.3698 17.6861 37.4453 17.8776 37.4855 18.0722L37.5768 18.3955C37.6003 18.5129 37.6478 18.6203 37.6712 18.7381L38.0461 20.1055C38.1116 20.4416 38.331 21.2035 38.452 21.5457L38.5183 21.7899C38.6056 22.2316 38.763 22.8394 38.9225 23.2568L39.6377 25.7811C39.6476 25.8232 39.6554 25.8615 39.6696 25.9025L40.0179 27.0866C40.0384 27.1887 40.0829 27.2839 40.1067 27.3865L41.0458 30.6067C41.1447 31.0548 41.298 31.5514 41.4521 31.9861L42.2608 34.617C42.4704 35.3964 42.7987 36.1378 42.8952 36.9453C43.0037 37.8543 43.0072 38.4513 43.3131 39.3865L43.4064 39.7264C43.4601 39.9045 43.5351 40.082 43.5767 40.2636L43.6129 40.3915C43.9929 41.3042 43.2981 41.5683 42.5904 41.7242L40.2655 42.2928C39.1234 42.5766 39.0558 42.5305 38.6712 41.3255L38.1936 39.8976C38.021 39.3732 38.1412 39.5236 37.6931 39.2238C36.8897 38.6866 36.1818 37.2475 35.9453 36.354C35.8211 35.8847 35.7371 35.408 35.586 34.9452C35.3541 34.2351 35.0486 33.5492 34.8456 32.8292C34.7936 33.2041 34.681 33.59 34.5988 33.9608L34.0075 36.6678C33.831 37.5346 33.7048 37.761 33.7043 38.6697L33.7052 39.9532C33.7051 41.3182 33.3597 42.4221 31.7811 42.7073C31.4084 42.7747 30.9557 42.729 30.5731 42.7293L28.0663 42.7286ZM20.0273 6.73084C18.9029 6.89083 18.1576 7.59226 17.9088 8.67662C20.39 9.8838 22.4242 10.4989 25.1846 10.2331C25.924 10.1619 26.8348 10.017 27.5331 9.77392L27.5566 9.76553L28.7133 9.33976L30.082 8.66547C29.9197 7.92569 29.546 7.3375 28.8515 6.98748L28.8232 6.97286C28.2751 6.69283 27.8118 6.72967 27.2175 6.7292L20.0273 6.73084ZM17.7626 10.1565C17.5268 10.5371 17.2435 10.9506 16.8984 11.2409C18.8595 13.5361 21.4588 13.5459 24.2266 13.5417L26.565 13.4372C27.9404 13.3049 29.1366 12.9671 30.2247 12.0678L31.1074 11.2594L30.8847 11.0231C30.6275 10.7809 30.4509 10.4791 30.2268 10.2108C29.6229 10.4492 29.0438 10.7486 28.4262 10.952C25.1997 12.0144 21.9107 11.9841 18.7468 10.6097L17.7626 10.1565ZM15.7633 12.0717C14.3744 12.7177 13.3024 13.2208 12.7128 14.8266L12.5816 15.2813C12.4781 15.6501 12.4931 16.0379 12.4052 16.4061L9.68741 26.1145L7.32126 34.1346C6.97077 35.2429 6.54215 36.359 6.41202 37.52C7.36434 37.9639 8.28927 38.1769 9.32779 38.2083C10.1592 37.69 10.6263 36.3601 10.8513 35.4708L11.2339 34.1511L12.4943 30.7765C12.6489 30.3682 12.6074 30.3207 12.5936 29.8849L12.4923 27.9842C12.4478 27.3794 12.4191 26.7799 12.3792 26.179L12.2551 23.9998C12.2269 23.4885 12.0558 22.8565 12.7147 22.6621L12.7413 22.654C13.1402 22.5404 13.4052 22.8581 13.5267 23.1912L13.5415 23.2266C13.5718 23.3046 13.5637 23.4097 13.5712 23.4936L14.0175 30.0584C14.0504 30.414 14.0915 30.7774 14.1966 31.1207L15.3277 36.478C15.3499 36.5781 15.3455 36.6742 15.384 36.7716L32.593 36.772C32.6376 36.6519 32.639 36.5274 32.6601 36.4021L33.0377 34.6251L33.5429 32.2602C33.841 30.9849 33.976 30.4628 34.0548 29.1561L34.1237 28.3074C34.1451 27.7868 34.1942 27.3273 34.2188 26.8314L34.2393 26.0858C34.247 25.8272 34.2921 25.5801 34.307 25.324L34.3922 23.9191C34.4057 23.6933 34.3884 23.4224 34.451 23.2055C34.6768 22.4223 35.7493 22.4907 35.7649 23.3073C35.7701 23.5814 35.7138 23.8559 35.7068 24.1313L35.4169 29.8653C35.4085 30.0992 35.3691 30.3349 35.4329 30.5623L35.5401 30.8671C35.5941 31.0372 35.677 31.2013 35.735 31.3709L36.2866 32.842C36.2983 32.8827 36.3135 32.9143 36.3297 32.953L36.9556 34.7479C36.9869 34.8349 37.0058 34.9263 37.0231 35.017L37.4982 36.6631C37.6832 37.1461 38.1928 37.8555 38.5897 38.1513L38.6123 38.1693C38.9342 38.4048 41.1061 37.8425 41.6194 37.497C41.4281 36.4598 41.1028 35.4679 40.7798 34.4665L37.6218 23.674L35.7493 16.9427C35.6773 16.6778 35.6123 16.4055 35.5686 16.1347C35.2362 14.0782 34.5963 13.1209 32.602 12.2203C32.4869 12.1683 32.3625 12.0963 32.2393 12.0688L32.2262 12.0859C31.0998 13.5301 28.9803 14.59 27.2 14.7991L25.6342 14.9139C24.8647 14.9662 24.1006 14.9993 23.3286 14.9726L21.5302 14.8773C19.6149 14.7333 17.8004 14.0752 16.4003 12.7371C16.1782 12.5248 15.9861 12.2795 15.7633 12.0717ZM15.8256 38.2303L15.7243 40.0406C15.724 41.0001 15.6334 41.2692 16.6297 41.2709L31.6288 41.2692C31.7338 41.2674 31.8119 41.2642 31.8983 41.2028L32.0149 41.1262C32.3854 40.7322 32.2738 40.5008 32.274 39.9834L32.2729 38.2289L15.8256 38.2303ZM6.20071 38.9573C6.15121 39.0954 6.09754 39.2305 6.07391 39.3756L5.83991 40.377L7.6409 40.8493C7.75715 40.8835 7.88352 40.937 8.0038 40.9461L8.03934 40.8723L8.48755 39.5627C8.44485 39.5142 8.17771 39.4908 8.10369 39.4769C7.46418 39.3572 6.80118 39.2109 6.20071 38.9573ZM41.7329 38.9881C40.8729 39.259 40.4003 39.4053 39.5126 39.5669L39.8717 40.55C39.9266 40.6786 39.9594 40.8104 40.0205 40.9386L42.2307 40.3859L41.7329 38.9881Z" fill="black"/>
<path d="M24.041 32.9905C23.7318 32.9636 23.4803 32.8152 23.3473 32.5212L23.3336 32.4901C23.2338 32.2794 23.2739 32.018 23.2737 31.7915L23.2734 20.3503C23.2739 19.7143 23.1286 18.8624 24.0023 18.7598C24.2554 18.7746 24.4591 18.886 24.5891 19.1131L24.609 19.1487C24.6418 19.2061 24.6598 19.2571 24.6733 19.3218L24.6801 19.3559C24.7135 19.5153 24.705 19.6771 24.7055 19.8392L24.7195 31.9836C24.7185 32.1333 24.7205 32.2994 24.668 32.4411L24.6554 32.4729C24.5528 32.7443 24.3312 32.9377 24.041 32.9905Z" fill="black"/>
</svg>
