<svg width="48" height="48" viewBox="0 0 48 48" fill="none" xmlns="http://www.w3.org/2000/svg">
<path d="M17.426 39.7311L14.3578 39.7305C13.2235 39.7267 12.9916 39.0197 13.4564 38.0176C13.6349 37.6328 13.8509 37.2604 14.0112 36.8683C13.882 36.4914 13.7116 36.0741 13.4991 35.7376C13.1609 36.217 12.7954 37.1435 12.0633 37.0454C11.4368 36.9615 10.8639 36.6422 10.2853 36.4035L8.68436 35.7893C7.79791 35.4705 6.96766 35.4514 6.57049 34.428L6.53997 34.3499C6.22947 33.5538 6.56055 32.7459 6.80983 31.9894L8.54505 26.5162L10.9279 17.3731C11.4828 15.2206 12.3537 13.0591 14.6014 12.1477C16.0855 11.5459 17.3166 11.6713 18.2119 10.1528C18.6537 9.4034 18.935 8.23833 19.7453 7.94798L19.9864 7.87701C20.4769 7.78261 20.9909 7.89375 21.4019 8.17214C22.1642 8.68837 22.2756 9.32587 22.2863 10.1573C23.3345 10.6907 24.8207 10.6514 25.9668 10.3968C25.8902 10.0905 25.8364 9.74391 25.8867 9.42998L25.8921 9.39853C26.0248 8.50983 26.8922 7.90945 27.7425 7.83858C28.7339 7.73512 29.2546 8.49576 29.6235 9.29306L30.2928 10.6514C30.4754 11.0426 30.4118 11.024 30.8201 11.0947L33.2229 11.5947C33.6121 11.6833 33.9961 11.7572 34.3596 11.9312C35.4863 12.4704 36.5456 14.0078 36.9519 15.1618L37.8587 17.9027L39.3646 24.1196C39.3969 24.3247 39.4654 24.5369 39.5171 24.739L39.6635 25.3572C39.7181 25.5578 39.7866 25.7619 39.8274 25.9656L41.1452 31.2564C41.1514 31.2962 41.1573 31.3259 41.1729 31.3635C41.4238 31.97 41.668 33.6938 41.5005 34.2307L41.4891 34.2657C41.213 35.1555 40.6055 35.4119 39.8006 35.6348C39.0379 35.846 38.3436 36.1374 37.637 36.4939C37.3118 36.6579 36.9879 36.8408 36.6379 36.9472L36.5979 36.9591C35.649 37.2478 35.3212 36.8243 34.8326 36.092L34.568 35.7277L34.0835 36.897C33.8715 37.3255 36.1212 39.7301 33.509 39.7308L17.426 39.7311ZM20.2538 9.22275C20.0911 9.31026 19.9611 9.77405 19.8807 9.94692C19.651 10.4407 19.3592 10.9076 19.0655 11.3656C20.2614 12.85 20.9847 15.0237 23.2234 15.0295L24.1643 15.0306C26.749 15.0352 27.3946 15.1821 28.9089 12.7132L29.401 11.8804L28.6903 10.5342C28.5543 10.2566 28.2857 9.3682 27.9762 9.25673C27.7103 9.16101 27.321 9.28031 27.2421 9.57431C27.1491 9.92044 27.5859 10.346 27.4066 10.8569L27.3949 10.8922C26.818 12.5679 21.1831 12.2312 20.9276 10.5118L20.9217 10.4741C20.8924 10.262 20.9181 10.039 20.9203 9.825C20.9245 9.43467 20.63 9.17222 20.2538 9.22275ZM18.1161 12.3116C17.5217 12.6705 16.8782 12.8681 16.217 13.0665C14.1652 13.6822 13.0406 14.6215 12.4657 16.8423L9.22938 29.0509L8.49916 31.2531C8.28921 31.8288 8.07546 32.4067 7.91481 32.9983C7.59114 34.1902 7.96455 34.1203 8.90116 34.4333L10.372 34.9611C10.8653 35.1479 11.3475 35.4346 11.8548 35.5718C12.2245 35.1623 12.4672 34.6976 12.7909 34.2626L12.7867 34.2213C12.7285 33.6283 12.769 33.0034 12.769 32.4051L12.7757 30.5225L13.4046 24.7735L13.5916 23.6954C13.6323 23.5147 13.6559 23.3287 13.775 23.178C14.2295 22.6036 15.1119 22.9184 14.9083 24.0118L14.533 26.3204L14.1678 29.8558L14.1602 33.9184C14.1614 34.3343 14.2859 34.3031 14.4816 34.6576L15.0491 35.7188C15.0967 35.8072 15.1582 35.9835 15.2389 36.0335C15.6846 36.0034 16.1372 36.0196 16.5842 36.0195L31.7807 36.0211C32.086 36.0223 32.4041 36.0127 32.7063 36.057L32.9107 36.0742L33.101 35.6643L33.6299 34.5989C33.7678 34.3342 33.8232 34.3747 33.8233 34.0533L33.79 30.8166L33.8553 29.5899C33.8672 29.2577 33.8611 29.102 33.8515 28.7749L33.6333 25.4358C33.5623 24.9009 33.445 24.3462 33.4198 23.8084C33.3771 22.8975 34.4924 22.6847 34.6989 23.4596L34.721 23.5316C34.7676 23.6546 34.7735 23.8029 34.7917 23.9333L35.1493 26.8962L35.2221 28.3836L35.2244 33.6095C35.2245 34.1765 35.1255 34.0071 35.4148 34.4572C35.6656 34.8475 35.8981 35.313 36.2359 35.6345L36.924 35.3252C37.7223 34.9336 38.4807 34.5396 39.3472 34.3221C39.53 34.2762 39.7295 34.2453 39.9025 34.1704L39.9291 34.1593C40.6138 33.8492 39.6235 30.8132 39.4936 30.2798L36.5001 18.0539C36.0495 16.513 35.2669 13.8188 33.633 13.13C33.2513 12.969 32.8732 12.8962 32.4711 12.8105L30.6781 12.4759C30.5513 12.6266 30.4586 12.817 30.3593 12.9866L29.859 13.8282C28.95 15.2963 27.6666 16.3079 25.8901 16.4691C25.3751 16.5158 24.8255 16.4805 24.3074 16.4806C22.6925 16.4812 21.7216 16.473 20.399 15.3585C19.6597 14.7354 19.1272 13.886 18.6119 13.0795L18.2536 12.527C18.2079 12.4596 18.169 12.3718 18.1161 12.3116ZM15.5749 37.4813C14.9269 37.5404 15.0774 38.074 14.8138 38.3314L32.4125 38.3211L33.1519 38.2777C32.7753 37.6432 32.8548 37.4834 32.0988 37.4804L15.5749 37.4813Z" fill="black"/>
</svg>
