<svg width="48" height="48" viewBox="0 0 48 48" fill="none" xmlns="http://www.w3.org/2000/svg">
<path d="M26.0096 39.567L21.4558 39.6264C21.2617 39.6205 21.0735 39.5785 20.8802 39.5729L18.5474 39.4804C17.567 39.4234 16.5835 39.3678 15.6092 39.2341C14.5961 39.0952 13.9938 38.7261 13.3652 37.8912L13.259 38.4091C12.8546 40.3809 12.2042 43.4889 9.73376 43.4815C8.62788 43.4781 7.50115 42.7813 7.32794 41.6208C7.26288 41.1849 7.31069 40.7095 7.31351 40.2681L7.31876 39.5539C7.32298 39.2006 7.38884 38.8506 7.43051 38.4989L9.21237 27.7271L10.6269 20.9657L11.114 19.141C11.1575 18.9719 11.1632 18.7935 11.1987 18.6216C11.7753 15.8293 13.5883 14.1322 16.2069 13.2933C16.4654 13.2104 16.7539 13.128 16.9882 12.9888C17.7916 12.5117 18.2427 11.4723 17.9806 10.567C17.8546 10.1316 17.6778 9.77285 17.621 9.31249C17.3076 6.77074 19.5607 4.81413 21.94 4.53313C22.2171 4.50404 22.5034 4.51807 22.7813 4.5178L25.5494 4.51733C27.2645 4.521 28.972 5.29239 29.8155 6.85061L29.828 6.87414C30.3655 7.86428 30.5044 9.08421 30.1582 10.1588C30.0046 10.636 29.8309 11.1449 30.0266 11.6421L30.1053 11.8618C30.4352 12.6732 30.9713 12.9876 31.7585 13.2604C33.615 13.9039 35.595 15.0879 36.2936 17.0369L37.2053 20.2891L38.6325 26.9089C38.6763 27.0557 38.6873 27.2034 38.7184 27.3521L39.2852 30.3896C39.3118 30.542 39.3501 30.6895 39.3648 30.8441L40.3408 36.645C40.416 37.0434 40.4421 37.4517 40.5011 37.8521L40.7093 40.1877C40.7333 40.6045 40.8129 41.0776 40.7237 41.4885C40.4161 42.9055 39.3742 43.5993 37.9274 43.4747C36.2251 43.3279 35.5772 41.5083 35.1935 40.1105L34.7306 38.1339C34.6541 37.8157 34.7125 37.9718 34.3986 38.2973C33.5824 39.1437 32.729 39.1942 31.6301 39.2835L27.2455 39.5535L26.0096 39.567ZM22.1371 5.98394C20.544 6.10938 18.8665 7.38639 19.0151 9.08252L19.0343 9.30691C19.0432 9.40792 19.0766 9.49206 19.1141 9.58497C21.5602 8.73944 22.8526 6.80781 25.7384 8.01658C26.9319 8.52944 27.6906 9.23097 28.7519 9.80182C29.3766 7.89349 28.0071 6.18269 26.0623 5.99449C25.8359 5.97255 25.6013 5.98305 25.3738 5.98291L24.2649 5.98272C23.5617 5.98282 22.8382 5.94728 22.1371 5.98394ZM23.7488 9.10239C22.7971 9.23641 22.0031 9.7593 21.1789 10.2128L19.9641 10.872C20.2129 11.2451 21.5935 11.8096 22.0091 12.0122L23.1407 12.6037C23.4584 12.7862 23.7226 13.0206 24.0233 13.2227L24.0872 13.1827C24.4291 12.8679 24.7991 12.6568 25.2026 12.4306L26.7903 11.5978C27.1727 11.4028 27.552 11.2183 27.9107 10.9799C27.748 10.7671 27.3389 10.582 27.1107 10.4429C26.1634 9.86566 24.9381 8.91813 23.7488 9.10239ZM19.2824 12.2466C19.0783 12.9281 18.6541 13.5377 18.0934 13.9755C19.8888 15.7656 22.4269 16.72 24.9491 16.4665C26.4341 16.3173 28.7336 15.1952 29.8318 14.0981L29.9478 13.969L29.7035 13.7522C29.2483 13.2982 28.9253 12.8371 28.7361 12.2178L27.6122 12.8216C26.6399 13.3097 25.5716 13.7596 24.7531 14.4916C24.6287 15.1224 24.9523 15.7855 24.2884 16.2172C23.974 16.4217 23.6346 16.3107 23.4416 15.9966L23.2849 15.6578C23.1688 15.3333 23.3441 14.6173 23.2589 14.4378C23.1255 14.1568 21.5479 13.3952 21.2335 13.2346L20.1679 12.712C20.0558 12.654 19.354 12.2407 19.2824 12.2466ZM16.7665 14.6009C15.2202 15.1572 13.7901 15.9547 13.0475 17.5128C12.7779 18.0785 12.7721 18.5514 12.6026 19.0679C13.4895 19.7629 13.9279 20.7813 14.2857 21.817L14.3547 22.0661C14.4393 22.4001 14.524 22.7214 14.5787 23.063C14.6312 23.3904 14.6866 23.8051 14.6876 24.1365L14.687 27.2433L14.4834 30.8325C14.4592 31.2464 14.3807 31.6608 14.3408 32.0731L14.1581 33.5747C14.1227 33.8742 14.103 34.1673 14.0288 34.4616C15.0501 34.8534 16.2319 35.0126 17.3269 35.0656C17.7981 35.0885 18.2772 35.0519 18.7441 35.1295L20.0711 35.181C20.3144 35.1927 20.5534 35.2438 20.7965 35.2555L22.5086 35.2633C22.7443 35.2632 23.0359 35.2936 23.2644 35.2509L23.2168 17.9401C21.1751 17.8713 18.2768 16.2933 16.956 14.8302C16.8919 14.7592 16.8339 14.6646 16.7665 14.6009ZM31.271 14.6138C30.8993 15.0311 30.5302 15.4261 30.0868 15.769C28.7523 16.8014 26.466 17.8705 24.8359 17.9563L24.7055 17.9594L24.7279 35.2643L29.5134 35.1573C31.0907 35.0195 32.6424 34.9849 34.1388 34.4237L33.3997 27.3169C33.3285 26.6058 33.3191 25.8894 33.3185 25.1754C33.3166 22.9867 33.5429 20.5725 35.3873 19.0764C35.3099 18.7263 35.2526 18.3607 35.1443 18.0194C34.6033 16.3135 33.2122 15.3298 31.6157 14.733C31.5166 14.696 31.3728 14.6262 31.271 14.6138ZM12.1398 20.7075L8.80605 38.8205C9.2028 39.1418 9.6798 39.3056 10.1632 39.4486L11.4973 39.6816L12.4113 35.4328L12.8171 32.9496L13.1496 29.0622C13.1619 28.7822 13.2155 28.5076 13.2266 28.2258L13.2393 24.573C13.2378 23.34 13.0033 21.6561 12.1897 20.7203L12.1398 20.7075ZM35.824 20.6808C35.1376 21.6654 34.8241 22.7654 34.758 23.9563L34.7496 25.4451C34.7506 26.8467 34.9428 28.2307 35.0721 29.624L35.7284 35.5959L36.4321 39.327C36.4548 39.4382 36.4567 39.5848 36.5059 39.683C36.9882 39.6521 37.4599 39.5744 37.9272 39.4531C38.3936 39.2909 38.7953 39.0937 39.2161 38.8373L35.824 20.6808ZM14.0512 36.0122C14.3542 37.7666 15.4906 37.7689 16.8741 37.9045L18.4334 38.0606L22.307 38.1773C22.6176 38.1834 22.934 38.2346 23.2404 38.2359L23.2714 38.1919L23.2558 36.713L21.7733 36.7183C21.5253 36.7087 21.2776 36.6661 21.0287 36.6602L19.5741 36.6431L16.4339 36.4396C15.7637 36.3798 15.0631 36.2544 14.4107 36.0929C14.3118 36.0685 14.1449 36.0013 14.0512 36.0122ZM33.9912 36.0122C32.599 36.3236 31.6332 36.4508 30.2004 36.5669C29.9576 36.5865 29.7143 36.6337 29.4723 36.645L24.737 36.729L24.7289 38.2071L25.9772 38.1422C26.2027 38.1266 26.4272 38.0913 26.6531 38.0832L30.046 37.9842L31.91 37.8058C32.2676 37.771 32.6265 37.7554 32.957 37.6014L32.9894 37.5872C33.397 37.4052 34.0422 36.5199 34.0037 36.0305L33.9912 36.0122ZM8.70813 40.4416L8.69093 41.1153C8.70073 42.0956 9.92126 42.2959 10.4881 41.7835L10.587 41.6797C10.7426 41.4933 10.8635 41.2902 10.9679 41.0715C10.1916 40.9848 9.41233 40.7795 8.70813 40.4416ZM39.2464 40.5122C38.5134 40.784 37.8118 40.9716 37.0565 41.0901C37.1512 41.3271 37.2966 41.529 37.453 41.7293C37.8411 42.1186 38.6931 42.1458 39.0874 41.7492L39.1462 41.6897C39.3534 41.4746 39.3139 40.9134 39.2994 40.6294L39.2464 40.5122Z" fill="black"/>
</svg>
