<svg width="48" height="48" viewBox="0 0 48 48" fill="none" xmlns="http://www.w3.org/2000/svg">
<path d="M16.7452 19.8102L10.5497 19.8126C10.4943 19.9624 10.4866 20.1283 10.4533 20.285L10.2331 21.349L9.42903 31.9873L12.5479 31.9872C13.2711 31.9899 13.722 32.6009 13.7802 33.2831C13.8285 33.8498 13.7953 34.4432 13.7936 35.0126L13.7898 35.539C13.7788 36.2936 13.1824 36.2989 12.6584 36.3002L9.8089 36.3017C9.46062 36.3015 8.83601 36.3855 8.52645 36.2197L8.50076 36.2057C8.15459 36.0296 7.87826 35.7785 7.9301 35.348C7.98495 34.893 7.97571 34.4378 8.00829 33.9817L8.82556 23.8789C8.89587 22.9221 8.84909 21.983 9.01831 21.035L9.54654 18.0467L9.7482 16.4764C9.81139 15.8916 9.8599 15.313 10.0354 14.7478C10.545 13.1059 11.7096 11.6677 13.4164 11.2089C13.978 11.058 14.5776 11.0445 15.1526 10.9669L17.3418 10.6232C17.7936 10.5349 17.5895 10.4907 17.9067 10.336C18.4527 10.0697 18.7194 10.4652 19.106 10.7459C20.4644 11.7316 22.0746 11.9107 23.7094 11.9114C25.4724 11.9121 27.4144 11.8813 28.8743 10.7561C29.1535 10.5409 29.3181 10.341 29.6717 10.2439C29.9797 10.2284 30.2405 10.3171 30.4092 10.5988C30.4634 10.6893 31.1314 10.7063 31.2542 10.7251L32.9067 10.9664C33.4259 11.0265 33.9556 11.0513 34.4655 11.1708C35.9599 11.5209 37.2339 12.7991 37.7722 14.2028C37.9009 14.5384 37.9647 14.8523 38.0715 15.1521L38.0808 15.1772C38.1366 15.332 38.1389 15.5278 38.156 15.6913L38.9068 20.66C39.0604 21.339 39.0998 21.8451 39.1219 22.5347L39.1994 24.0836L40.0449 34.8659C40.1168 36.0103 39.9301 36.2971 38.8316 36.3L34.877 36.2914C34.7979 36.2875 34.7078 36.2873 34.6384 36.2452L34.6174 36.2314C34.2983 36.0305 34.2066 35.9226 34.1708 35.557C34.1134 34.9719 34.0792 33.4915 34.2406 32.9647L34.3487 32.6812C34.4914 32.3733 34.6985 32.1581 35.0238 32.0412L35.059 32.0288C35.2165 31.9723 35.3902 31.9884 35.5551 31.9881L38.595 31.9844C38.5598 31.808 38.5637 31.6103 38.5587 31.4304L37.9502 24.0143C37.8781 23.3089 37.9193 22.6377 37.8475 21.9722C37.7691 21.2467 37.5852 20.5482 37.4884 19.8274C37.314 19.7952 37.1037 19.8125 36.9258 19.8115L16.7452 19.8102ZM29.4156 11.9178L28.8614 12.252C27.2761 13.1622 25.5623 13.2231 23.7961 13.221C22.2002 13.2193 20.4885 13.071 19.0901 12.2342C18.637 11.9631 18.3477 11.6539 18.6545 12.3877C19.501 13.8157 22.4782 13.7223 23.9808 13.7182C24.5721 13.7167 25.1809 13.7415 25.7701 13.6928L26.412 13.618C27.3265 13.5277 28.5615 13.4191 29.2037 12.6676C29.3254 12.5253 29.5195 12.1463 29.4644 11.9647L29.4156 11.9178ZM17.1657 11.9647C16.5434 12.0162 15.9333 12.1495 15.3171 12.2451C14.6727 12.345 14.0022 12.3033 13.3938 12.5685C12.2809 13.0534 11.4258 14.2233 11.1524 15.4014C11.0714 15.7507 11.0581 16.0998 11.0132 16.453L10.8044 18.2713C10.7916 18.3652 10.7884 18.4723 10.7533 18.5603L33.7678 18.5592L37.2423 18.5461L37.0552 17.0624C37.0032 16.558 36.98 16.0293 36.8768 15.5334C36.6126 14.2634 35.6811 12.866 34.383 12.4687C33.8312 12.2998 33.2361 12.3158 32.6663 12.2493C32.0542 12.1779 31.4456 12.0562 30.8299 12.0184L30.7603 12.4114C30.381 14.4262 27.6144 14.8658 25.969 14.9807L25.4201 15.0057C23.1256 15.1811 18.9657 15.2106 17.6107 13.1933C17.1844 12.5585 17.3746 12.3826 17.209 11.9691L17.1657 11.9647ZM9.30495 33.2635L9.20412 34.9846L12.6232 34.9845L12.5937 33.2666L9.30495 33.2635ZM35.3689 33.2639L35.3449 34.9773L38.3761 34.9832C38.5074 34.983 38.6479 34.9929 38.7776 34.9739L38.7143 33.2765C38.2108 33.2193 37.6577 33.2615 37.1479 33.2617C36.5614 33.2618 35.9529 33.2295 35.3689 33.2639Z" fill="black"/>
<path d="M33.824 34.1544C33.8033 34.3679 33.8235 34.604 33.8236 34.8195L33.8232 36.2878C33.8229 36.5888 33.901 36.9025 33.6971 37.1494L33.6684 37.1837C33.5605 37.3147 33.456 37.4174 33.3042 37.4973L33.276 37.5118C33.0884 37.6103 32.9093 37.5852 32.7031 37.584L14.9855 37.5781C14.65 37.5698 14.2694 37.2562 14.185 36.9392C14.1232 36.7071 14.1651 36.3718 14.1652 36.1274L14.1706 24.6212C14.1701 24.3789 14.174 24.128 14.1023 23.894L13.8286 22.8557C13.7112 22.4213 13.8317 22.0057 14.2981 21.8998L14.327 21.8934C15.3987 21.8176 15.4981 24.767 15.4067 25.5866L32.6036 25.6158L32.6185 23.8477C32.6861 23.2427 32.9479 21.7364 33.7232 21.9023L33.7499 21.9084C33.9288 21.9444 34.0486 22.021 34.1289 22.1961L34.1406 22.2223C34.3737 22.7249 33.8481 23.7301 33.8305 24.3195L33.824 34.1544ZM15.3866 26.8908L15.3743 32.2695L32.5988 32.2703L32.6011 26.89L15.3866 26.8908ZM15.5423 33.5466L15.3665 33.5604L15.3649 36.3214L32.4667 36.3071L32.5991 36.3195L32.6026 34.5033C32.6015 33.4704 32.8406 33.5481 31.9091 33.5471L15.5423 33.5466Z" fill="black"/>
</svg>
