<svg width="48" height="48" viewBox="0 0 48 48" fill="none" xmlns="http://www.w3.org/2000/svg">
<path d="M24.4803 43.0293L18.8802 43.0227C18.6939 43.016 18.5111 42.9815 18.3256 42.9678L16.0432 42.8158C15.3494 42.7527 14.4799 42.6491 14.1491 41.9558L14.1316 41.9182C14.0617 41.7763 13.9433 40.0337 13.8615 39.6204L13.6852 38.7475C13.6571 38.6065 13.6161 38.484 13.6107 38.3376L13.6167 36.1674C13.6252 36.0021 13.658 35.841 13.6711 35.6765L13.6973 29.5815C13.69 29.2126 13.6422 28.8529 13.6204 28.4866L13.5847 27.0909L10.6185 31.0396C10.2231 31.5668 9.44529 32.8236 8.86653 33.1024L8.83578 33.1168C7.94065 33.5406 7.28529 32.8277 6.56937 32.3945C6.12706 32.1269 5.6254 31.896 5.21309 31.5879L5.18309 31.5649C4.16663 30.7958 3.69744 29.3305 4.11299 28.1194C4.24958 27.7213 4.46793 27.3497 4.6645 26.9788L7.80593 20.8163L10.0462 16.0004C11.05 13.8159 11.767 11.6936 14.509 11.19C14.7139 11.1523 14.9399 11.169 15.1487 11.153C16.1119 11.0792 17.0555 10.7688 17.9872 10.5361L17.8878 9.72072C17.7132 6.0783 20.5292 5.07475 23.6056 4.9322C25.079 4.77414 27.6972 5.24833 28.7767 6.24287C29.8068 7.19186 30.152 8.66425 30.0629 10.0125C30.0574 10.0961 29.9849 10.4311 30.0154 10.4858C30.4843 10.6812 30.9959 10.7852 31.4831 10.9225C32.3915 11.1786 33.3662 11.0577 34.2537 11.3942C35.6676 11.93 36.6439 13.0395 37.2321 14.4044L40.0529 20.4749C40.1584 20.6575 40.2316 20.8616 40.3241 21.0514L43.4055 27.1057C43.5772 27.4239 43.7796 27.7209 43.9022 28.0644C44.2913 29.155 43.9321 30.5831 43.0703 31.3465C42.6128 31.7518 42.0491 32.0142 41.5286 32.3263C40.613 32.8752 39.7144 33.8179 38.7313 32.7626C38.4477 32.458 38.1909 32.1044 37.9333 31.7767L35.2527 28.1956C34.9669 27.8216 34.6398 27.4192 34.4256 27.0006L34.4119 26.9733C34.2238 27.93 34.3929 28.8007 34.2672 29.6515C34.1592 30.382 34.2307 31.1427 34.2046 31.8795C34.1744 32.7294 34.0195 33.5721 34.0049 34.4274L34.0029 37.0432C34.0278 38.1519 34.0199 38.4192 33.8476 39.5159L33.6591 40.8167C33.4904 41.9664 33.7575 42.6544 32.1339 42.8858C30.9407 43.0558 29.2968 43.027 28.066 43.0272L24.4803 43.0293ZM23.7799 6.31656L23.0003 6.34937C22.284 6.38303 20.812 6.649 20.3153 7.11194C20.893 7.71944 22.02 7.92358 22.3598 8.70728L22.3736 8.73855C22.5429 9.12948 22.475 9.69367 22.4748 10.1109L22.4739 12.1583C22.474 12.3449 22.4764 12.3567 22.6233 12.4801C22.9478 12.7527 23.3473 13.4999 23.4845 13.8752L23.6645 14.3926C23.7627 14.7074 23.8224 15.3374 23.9858 15.5526C24.0394 15.5092 24.0504 15.4022 24.0661 15.3357C24.2903 14.4022 24.5236 13.5286 25.1067 12.7519C25.3712 12.3994 25.3349 12.5874 25.3321 12.153L25.3309 10.2509C25.3311 9.90442 25.2843 9.47795 25.3671 9.14087C25.6647 7.93052 26.8844 7.91828 27.6431 7.11592C26.2668 6.44406 25.3549 6.28459 23.7799 6.31656ZM19.4514 8.23853C19.2756 8.74258 19.1485 9.35763 19.2495 9.88806C19.4584 10.9857 19.7578 11.1208 20.77 11.5715L20.8966 11.6247C20.9811 11.6455 21.0352 11.6706 21.0909 11.6838L21.0926 10.0999C21.0923 9.82066 21.1131 9.52183 21.0798 9.24498L21.036 9.22867C20.6136 9.06864 20.2077 8.80638 19.8518 8.52911C19.7634 8.46025 19.5589 8.24758 19.4514 8.23853ZM28.5139 8.22592L28.4921 8.24669C27.8203 8.87659 27.3848 8.93655 26.6974 9.31994L26.6945 10.9916C26.6943 11.3009 26.545 11.7745 26.8787 11.6696C28.3839 11.2354 29.062 10.3909 28.6498 8.71094C28.6102 8.54973 28.5438 8.38778 28.5139 8.22592ZM18.5934 11.7932C17.8173 12.0253 17.0272 12.2565 16.2283 12.3943L15.2213 12.5321C15.028 12.55 14.832 12.5466 14.6405 12.582C13.3854 12.8144 12.2587 14.0077 11.9376 15.2385C12.3891 16.2184 12.9621 16.894 13.3348 18.0237L14.0972 20.4865C14.136 20.6111 14.147 20.7442 14.1757 20.8713L14.5805 23.2737C14.6106 23.4782 14.6121 23.6894 14.6381 23.8948L14.8594 26.1796C14.9199 26.7915 14.9209 27.4546 14.9764 28.0549C15.0843 29.2212 15.0502 30.4006 15.0511 31.5724L15.0279 35.2938C15.0026 35.9382 15.0151 36.8263 14.945 37.424L18.6678 37.786L20.4017 37.8838L26.3416 37.8824C26.6046 37.8748 26.8636 37.825 27.1277 37.8164L28.4101 37.7869C28.6211 37.7762 28.8227 37.7314 29.0308 37.7172L32.6673 37.4706C32.609 37.1068 32.6373 36.7089 32.6368 36.34L32.6367 35.1238L32.6456 34.048C32.6572 33.8354 32.7016 33.6275 32.7123 33.415L32.8192 31.519L32.932 27.872C32.9722 27.0413 33.0943 26.206 33.1798 25.3789L33.4052 23.2151C33.7063 20.9875 34.1982 18.8037 35.2277 16.7906L35.8745 15.5633C36.0159 15.2859 36.0438 15.2726 35.9345 14.9702C35.5421 13.8841 34.5901 12.8425 33.4334 12.5863C33.2192 12.5388 33.0052 12.5419 32.7887 12.5189L31.5904 12.3462C30.8408 12.2025 30.1118 11.9916 29.3791 11.7822C28.7249 12.4743 27.9357 12.8058 27.0431 13.0775C26.3462 13.2896 26.3309 13.2585 25.9538 13.9571C25.709 14.4104 25.6061 14.9109 25.4606 15.4002L25.032 16.8049C24.9454 17.0705 24.8786 17.397 24.7111 17.6231C24.412 18.027 23.7951 18.1458 23.4161 17.7829C23.1604 17.5382 23.0471 17.1217 22.9412 16.7912L22.5704 15.5475C22.3579 14.7912 22.1249 13.75 21.4943 13.2109C21.4377 13.1625 20.9181 13.0543 20.8001 13.0177C19.9481 12.7535 19.2309 12.4206 18.5934 11.7932ZM36.7773 16.6998L35.7324 19.0243C35.15 20.5734 34.6257 23.266 34.6091 24.9939C34.7569 25.2595 34.9433 25.4885 35.129 25.7276L37.9451 29.5378C38.5159 30.3125 39.0936 31.101 39.7213 31.8308L40.2087 31.5163L41.1386 30.9495C41.8018 30.5697 42.4635 30.2536 42.6425 29.4347C42.8278 28.5869 42.2879 27.9215 41.912 27.2126L40.6002 24.7003L36.9216 16.9868C36.8793 16.8885 36.819 16.7981 36.7773 16.6998ZM11.2235 16.701C11.0411 17.0441 10.8949 17.4117 10.734 17.7659L7.62026 24.2727L6.11304 27.1595C5.75735 27.8344 5.12609 28.6675 5.36998 29.4729L5.39965 29.5727C5.52593 30.0576 5.90224 30.3958 6.32093 30.6372L7.32884 31.2407C7.48231 31.3362 7.65898 31.4291 7.80064 31.54L8.26357 31.8376L13.2098 25.3404C13.3216 25.1989 13.3911 25.181 13.3788 24.9999L13.2222 23.3602C12.9879 21.6213 12.6453 19.9008 11.9747 18.271L11.4763 17.1943C11.3949 17.0318 11.2915 16.8686 11.2235 16.701ZM15.0978 38.8479C15.1066 38.9327 15.1173 39.0012 15.142 39.0823L15.4317 41.3215L16.7489 41.468C16.91 41.4826 17.0691 41.5196 17.2303 41.5321L18.1355 41.5761C18.3307 41.589 18.5228 41.6249 18.7184 41.6328L29.1964 41.6335C29.4763 41.6265 29.7526 41.5746 30.0339 41.5645L31.2937 41.5478C32.2756 41.544 32.198 41.7236 32.2805 40.9399L32.5846 38.8943C32.1894 38.8923 31.807 38.9312 31.4152 38.9616L26.4183 39.247L20.4513 39.264C19.6249 39.2605 18.7992 39.1826 17.9764 39.1115L15.6795 38.9058C15.515 38.8882 15.2561 38.8218 15.0978 38.8479Z" fill="black"/>
</svg>
