<svg width="48" height="48" viewBox="0 0 48 48" fill="none" xmlns="http://www.w3.org/2000/svg">
<path d="M26.5254 44.7223L24.9608 44.7717L20.693 44.7104C19.1525 44.6582 17.5895 44.5048 16.0679 44.264C15.1336 44.1161 13.9946 44.0419 13.7604 42.9096L13.7544 42.8789C13.7064 42.6417 13.716 42.3926 13.7107 42.1516L13.6722 41.4341C13.6665 41.3356 13.6411 41.2454 13.6341 41.1473L13.5049 37.3008C13.4977 36.9329 13.4327 36.5657 13.423 36.1993L13.422 29.6677C13.4285 29.2829 13.4904 28.9037 13.5034 28.5193L13.6096 24.5051C11.6721 25.4272 11.8981 27.5818 11.9505 29.3691C11.9593 29.671 11.9341 29.9724 11.9489 30.274C11.9787 30.8823 12.0512 31.4973 12.0884 32.1074L12.3766 35.2266C12.4132 35.5841 12.5203 36.0137 12.4539 36.3697C12.1496 38.0032 9.27577 37.9362 8.06691 37.7432C7.35502 37.6296 6.41288 37.3398 6.20879 36.5396L6.20293 36.5157C6.10032 36.134 6.15211 35.7345 6.10088 35.3466L5.22896 28.6952C5.2178 28.5524 5.18583 28.4144 5.17739 28.2695L5.08252 24.4154C5.08899 22.5417 5.94371 20.9667 6.77377 19.336L9.95939 13.1719C11.3174 10.6886 12.4366 10.3726 14.9825 10.1156L15.485 10.0434C17.128 9.83778 18.8591 8.34575 18.8665 6.59314L18.8612 5.97073C18.8234 4.52989 20.3524 3.4091 21.6616 3.24301C21.9416 3.19366 22.3036 3.24201 22.5856 3.2673L25.0358 3.30749C25.5093 3.29406 25.947 3.24382 26.4229 3.29449C27.5843 3.41815 28.6326 4.26125 29.064 5.33206C29.3311 5.99483 28.9376 6.9283 29.3655 7.76445L29.46 7.9648C29.9865 8.93595 31.2438 9.81664 32.3438 10.0252C33.1742 10.1825 34.0329 10.1144 34.8516 10.3618C36.9109 10.9839 37.5744 12.3024 38.4811 14.0152L42.2816 21.5039L42.5778 22.3455C42.9455 23.4368 42.9311 24.6014 42.9288 25.7349C42.928 26.1476 42.9629 26.602 42.902 27.0083L41.8122 36.4102C41.4516 38.1362 38.0537 37.973 36.8188 37.5826C35.2371 37.0826 35.546 36.2067 35.701 34.9203L35.9393 32.2797C35.9591 32.0458 36.001 31.8147 36.0111 31.5798L36.0286 29.3954C36.0924 27.2116 36.4444 25.713 34.3917 24.4812L34.4018 25.5566C34.4046 26.0947 34.4818 26.6106 34.4883 27.1473L34.5084 28.2305C34.5196 28.4953 34.575 28.7571 34.5838 29.0206L34.5948 30.964C34.5993 31.207 34.6576 31.4377 34.6617 31.6791L34.6616 35.0961L34.4826 39.4511C34.4723 39.6723 34.4358 39.8878 34.417 40.1076L34.2299 42.5882C34.2168 42.7333 34.2316 42.8805 34.1877 43.0214L34.1768 43.0547C33.9321 43.8463 33.3204 44.0338 32.5996 44.1373L31.8923 44.2538C30.1076 44.5266 28.3337 44.7178 26.5254 44.7223ZM21.8249 4.62303C21.6916 4.64878 21.5537 4.67455 21.4255 4.72011L21.2813 4.77664C20.9127 4.92401 20.6101 5.22167 20.3596 5.52017C21.1251 6.06326 22.3497 6.812 23.3204 6.90959C23.5476 6.93242 23.7639 6.86042 23.9882 6.87153C24.9646 6.91995 24.9204 6.9125 25.9044 6.52034C26.5043 6.29473 27.1349 5.91003 27.6689 5.55481C27.014 4.5064 25.9604 4.67856 24.978 4.70825L23.6639 4.71387C23.0617 4.71167 22.4172 4.5577 21.8249 4.62303ZM20.2583 7.1382C19.7104 9.56337 17.6981 11.3242 15.1993 11.5109C12.805 11.6898 12.1164 11.9727 10.9268 14.2762L7.17422 21.6558C6.47911 23.1519 6.4365 23.7852 6.43936 25.4799L6.45385 27.1085C6.46289 27.2854 6.51174 27.445 6.52379 27.6172L6.57019 28.5L7.41619 35.0346C7.46227 35.4014 7.53516 35.7716 7.55832 36.1402C8.38678 36.6345 10.2915 36.5887 11.1121 36.0764L10.8087 33.4588L10.6627 31.0327C10.6496 30.7892 10.594 30.5528 10.5848 30.3081L10.569 28.4957C10.5653 26.2634 10.6958 24.4517 12.9844 23.2493C13.3373 23.0639 13.531 23.0151 13.7353 22.6641C14.4766 21.3908 13.8745 19.9928 14.2471 19.5352C14.6298 19.0649 15.2803 19.3211 15.4563 19.8298C15.6297 20.3311 15.4603 22.05 15.3122 22.5207C15.1042 23.1818 15.0369 23.5837 14.9991 24.2865L14.8734 27.9491C14.867 28.2394 14.8031 28.5253 14.7968 28.8177L14.7975 36.2813C14.805 36.567 14.8651 36.8518 14.8739 37.1397L14.9056 38.6413C14.9111 38.8992 14.9016 39.1605 14.9331 39.4168C15.4594 39.6351 15.9424 39.6869 16.4956 39.7827L20.4756 40.2416L24.8321 40.3135C24.994 40.309 25.1532 40.2779 25.3158 40.2746L27.0517 40.257C28.3238 40.2023 29.5913 40.0517 30.8508 39.8753L31.6172 39.7736C32.602 39.6753 32.3275 39.5838 33.092 39.1847L33.2744 32.6036L33.2681 30.8005C33.2612 30.5863 33.2103 30.3793 33.2071 30.1641L33.1966 28.2442L33.0079 24.5431L32.9395 23.864C32.8592 22.9773 32.6004 22.3845 32.4736 21.5625C32.3878 21.0063 32.3932 19.7146 32.8716 19.3903C33.2887 19.1076 33.7642 19.3893 33.8618 19.8489L33.8801 19.9165C33.9291 20.0903 33.8654 20.3296 33.8483 20.5078C33.7682 21.3434 33.9267 22.7444 34.7813 23.1353C35.5993 23.5095 36.6033 24.2483 36.9428 25.1259L36.9551 25.1602C37.0206 25.3204 37.1022 25.4698 37.1549 25.6365L37.2488 25.977C37.4145 26.4635 37.4126 27.0145 37.414 27.52V28.7324C37.4129 29.9636 37.4045 30.9628 37.312 32.1824L36.9203 36.1384C37.5818 36.5407 39.0601 36.5423 39.8438 36.3522L40.0893 36.2782C40.2198 36.2368 40.3516 36.1763 40.473 36.1132C40.5128 35.3617 40.57 34.5991 40.6887 33.8555L41.2222 30.9027L41.5227 27.3649L41.5467 25.7201C41.55 23.913 41.5165 23.1018 40.7555 21.4967L36.7587 13.7125C36.0933 12.4633 35.2007 11.743 33.728 11.5805C33.3314 11.5367 32.9265 11.5291 32.533 11.467C30.0994 11.0831 28.3668 9.62131 27.7783 7.25862C27.7675 7.21522 27.784 7.18559 27.7318 7.18194C26.7585 7.7255 25.7953 8.16167 24.6741 8.28331L24.7031 18.4962C24.7043 18.8714 24.7381 19.2826 24.6925 19.6541C24.6049 20.3692 23.6404 20.4408 23.3492 19.7461L23.3367 19.7175C23.3012 19.6332 23.2883 19.544 23.284 19.4532L23.2844 8.28345C22.4156 8.11616 20.9881 7.68678 20.2583 7.1382ZM32.9393 40.8633L31.9688 41.1111C30.6796 41.3741 29.341 41.5194 28.0287 41.6035L26.3367 41.6967L21.6016 41.6877L19.5718 41.5911L16.7776 41.2597C16.1773 41.1697 15.5923 41.0712 15.0016 40.9301L15.0747 42.5743L15.0821 42.6453C15.1463 42.6838 15.2115 42.6822 15.2834 42.695L15.7891 42.7837C16.5269 42.9128 17.2677 43.0463 18.0141 43.1203L20.075 43.2666C20.2656 43.2791 20.4533 43.3176 20.6443 43.3269L26.7203 43.333C27.4138 43.3299 28.1945 43.2813 28.8868 43.2136L32.2149 42.7753C32.403 42.743 32.7181 42.7431 32.8803 42.6562L33.0095 40.8633C32.9595 40.8559 32.9828 40.8548 32.9393 40.8633Z" fill="black"/>
</svg>
