<svg width="48" height="48" viewBox="0 0 48 48" fill="none" xmlns="http://www.w3.org/2000/svg">
<path d="M30.823 35.6261L18.1724 35.6292C17.7033 35.6296 17.1915 35.6739 16.7294 35.614C15.251 35.4223 13.5607 33.7186 13.2899 32.3217L12.9749 33.4027C12.6098 34.5076 12.027 35.5186 11.286 36.4117C11.1265 36.6039 10.8517 36.8002 10.7612 37.0254L10.7042 37.1541C10.3352 37.8176 9.8777 37.5076 9.48399 37.2071C8.98782 36.8283 8.41506 36.7159 7.81403 36.6183L7.1739 36.4838C6.36639 36.3203 6.14982 36.1896 5.92187 35.3628C5.59243 34.1683 5.65028 33.0078 5.90706 31.8166L6.33695 30.0989L7.32235 27.1532L9.31698 22.4093L11.7236 17.0965C12.0609 16.3911 12.3364 15.654 12.8809 15.0736C13.7992 14.0947 15.8826 13.3804 17.2674 13.3275C17.3183 13.0971 17.3394 12.8711 17.3719 12.6384L17.5215 11.5673C17.6058 10.8723 17.5527 10.4847 18.3664 10.3419C19.1231 10.3202 20.1031 10.208 20.8218 10.5113C21.0452 10.6055 21.1684 10.7508 21.417 10.8085L22.0569 10.9281C23.4161 11.1761 24.9736 11.1543 26.3173 10.8438C26.6941 10.7568 27.0519 10.6226 27.423 10.5212C27.9487 10.3776 29.6634 10.1621 30.1671 10.4643L30.188 10.4775C30.6495 10.7665 30.5777 11.8662 30.6579 12.3752L30.8662 13.4174L33.5157 14.0435C35.0483 14.5474 35.5824 15.5905 36.2094 16.922L38.3575 21.5757C38.5302 21.9072 38.675 22.2702 38.8135 22.6173L40.4292 26.4728C40.587 26.8632 40.7721 27.2733 40.8857 27.6778L41.5153 29.5511C41.575 29.8525 41.701 30.1586 41.784 30.4572C42.0252 31.3251 42.1622 32.0592 42.3018 32.9306C42.4171 33.6505 42.3792 36.1084 41.4566 36.3767C40.5908 36.6284 39.6728 36.6738 38.9047 37.193C38.4512 37.4995 38.2504 37.831 37.6475 37.4588C37.5044 37.1709 37.2956 36.9776 37.0858 36.7433L36.5305 36.0769C35.6527 34.9789 35.1079 33.4294 34.8201 32.0611C34.3378 33.7993 32.7425 35.5995 30.823 35.6261ZM18.6864 11.5357C18.6098 11.8066 18.6455 12.1156 18.6202 12.3893C18.5881 12.7358 18.5175 13.0911 18.4443 13.4309C18.417 13.5574 18.2667 13.9062 18.3097 14.0094L18.4055 14.3164C19.174 16.5708 20.8474 17.787 23.1985 18.1867L23.4856 18.2139C23.5234 17.8182 23.491 17.4046 23.4894 17.0065L23.4687 14.8209C21.4266 14.6913 19.9206 13.7954 20.051 11.5873C19.6164 11.5202 19.1263 11.5064 18.6864 11.5357ZM28.5855 11.5349C27.8855 11.5795 28.1473 11.5164 28.0751 12.1217C27.858 13.9443 26.4397 14.8836 24.6875 14.8879L24.6796 18.3195C25.0203 18.2955 25.4141 18.2302 25.7364 18.1133C26.9744 17.8227 28.3935 16.5639 29.0727 15.4594L29.8367 13.9164C29.6378 13.3691 29.5262 12.8254 29.468 12.2456L29.4193 11.5519L28.5855 11.5349ZM26.847 11.965C25.0799 12.2962 22.9507 12.4568 21.1997 11.978C21.1223 12.2916 21.3845 12.8172 21.6248 13.0065C22.2986 13.535 23.1422 13.5678 23.9556 13.6581C24.1013 13.6743 24.2888 13.7479 24.4267 13.7301C25.1964 13.6304 25.9954 13.6637 26.5173 12.9827C26.7013 12.7426 26.9055 12.3067 26.8557 11.9973L26.847 11.965ZM17.0975 14.5371L15.6154 14.9012C13.274 15.5902 13.2417 16.7182 12.3196 18.6489L10.9194 21.6564L8.54485 27.2747L7.4926 30.3768C7.17057 31.4706 6.62692 33.6057 6.95729 34.7145L6.97646 34.7687C7.23906 35.4733 7.12651 35.3098 7.83521 35.4037C8.64432 35.5108 9.24812 35.693 9.9437 36.1192C11.6352 34.2826 12.4193 31.9466 12.6522 29.4785L12.839 26.6513C12.8897 25.7298 12.9541 24.8043 12.9825 23.883L13.0096 22.9041C13.0106 22.7261 12.9853 22.4936 13.0236 22.3212C13.1398 21.7976 13.8841 21.676 14.112 22.2072L14.1245 22.2356C14.2302 22.4944 14.1459 23.5958 14.1014 23.8937C14.0096 24.5083 14.0359 25.1508 14.0189 25.7711C14.0692 25.7984 14.1369 25.7871 14.1934 25.787L33.9286 25.7956L33.8404 23.5607C33.8547 23.2515 33.8218 22.9293 33.8221 22.6182C33.8231 21.5655 34.953 21.7513 35.0471 22.3713C35.1048 22.7511 35.0471 23.1672 35.0699 23.5532L35.3182 27.4455C35.3356 27.6837 35.3342 27.9215 35.3607 28.1596L35.6302 30.2816C35.7321 30.8895 35.9286 31.9167 36.1341 32.4829L36.5044 33.5602C36.9734 34.6235 37.3919 35.4175 38.2556 36.2595C38.8573 35.7634 39.4664 35.5563 40.2013 35.3708C41.0641 35.1529 40.975 35.7908 41.1489 34.1739C41.4309 31.5504 39.2737 26.6729 38.2644 24.2986L35.2612 17.6582C34.2857 15.5478 34.2215 15.3848 31.8253 14.8686L30.8502 14.6122C29.9368 16.9016 27.4773 19.4343 24.8933 19.4872C24.6503 19.4921 24.7399 19.5222 24.5679 19.6703C24.0478 20.1178 23.7482 19.4642 23.4539 19.4219L23.0278 19.3652C20.6022 19.0215 18.2366 17.438 17.4044 15.0691L17.2443 14.5378C17.1923 14.5295 17.1497 14.5316 17.0975 14.5371ZM15.24 26.9557L13.9138 26.9677L13.8993 28.6477C13.8983 28.9809 13.8783 29.3308 13.9048 29.6625L14.0398 30.6977C14.2749 32.1732 14.9174 33.5471 16.3224 34.2461L16.5646 34.3697C16.7253 34.4656 17.032 34.4496 17.2175 34.4537L30.4711 34.4566C31.1511 34.455 31.6101 34.3156 32.1745 33.9082C33.139 33.2421 33.6633 32.2403 33.8725 31.1041L34.0004 30.3018C34.0551 29.9952 34.0524 29.6695 34.0527 29.3591L34.0511 28.2527C34.0497 27.8363 34.0817 27.3855 34.0272 26.9737C33.9631 26.9216 17.0624 26.9557 15.24 26.9557Z" fill="black"/>
</svg>
