<svg width="48" height="48" viewBox="0 0 48 48" fill="none" xmlns="http://www.w3.org/2000/svg">
<path d="M29.5351 38.9287L18.0852 38.9308C17.3022 38.9306 16.855 38.7781 16.2722 38.1927C14.9612 36.8756 14.8421 35.0222 14.837 33.2727L14.8366 24.7835C14.8164 24.8345 14.7946 24.9066 14.7505 24.9415L14.7088 24.9718C14.6156 25.0539 14.5458 25.2172 14.4783 25.3259L12.8048 28.2433C12.0842 29.6305 11.4551 31.1207 11.3115 32.6928C11.2277 33.6099 11.5937 34.7786 10.8275 35.4913C10.2952 35.9864 9.38528 35.8817 8.71628 35.8602C7.96164 35.8361 7.15295 35.7883 6.60667 35.1918C5.74319 34.2488 5.61784 31.5652 5.61719 30.2478L5.62661 28.85C5.77497 25.4418 7.39262 20.9755 8.88859 17.9849C10.8262 14.1113 12.3314 12.9522 16.7678 12.3495L17.5251 12.2713C17.7222 12.2512 17.9289 12.2158 18.1272 12.2265L18.1486 12.2279C17.7853 11.3665 17.1101 9.34119 18.496 9.10053L29.3534 9.0957C29.718 9.09589 30.0161 9.21402 30.1942 9.56989L30.2071 9.5975C30.5732 10.3619 30.1487 11.4945 29.8516 12.2041C31.054 12.2928 32.3031 12.4541 33.4675 12.7732C36.1711 13.514 37.3794 14.7296 38.685 17.1513L39.715 19.2265C40.0003 19.8645 40.251 20.5269 40.514 21.1752L41.2324 23.247L41.801 25.3143L42.198 27.3504C42.3472 27.9965 42.3939 29.076 42.4011 29.7598C42.4171 31.2744 42.3252 32.63 41.9259 34.1093C41.4925 35.7145 40.5209 35.8582 39.1448 35.8604C38.1768 35.862 37.1145 35.9225 36.7606 34.7866C36.6307 34.3698 36.7227 33.8787 36.7145 33.4466C36.6816 31.706 36.1568 30.1262 35.3828 28.5729L33.1697 24.748C33.1472 24.9741 33.1639 25.2026 33.1646 25.4295L33.1647 33.6824C33.1669 35.4306 32.8826 37.4283 31.3382 38.5194C30.6987 38.9712 30.2931 38.9265 29.5351 38.9287ZM18.9781 10.4301C19.0179 10.6816 19.0909 10.939 19.1732 11.1795L19.4159 11.7988C19.6065 12.2466 19.9127 12.6497 20.3744 12.8337C22.4691 13.6687 23.5577 14.6703 23.6825 16.9569L23.692 19.0026C23.6921 19.345 23.7247 19.7243 23.6846 20.0631C23.5991 20.7853 22.4879 20.9766 22.3397 20.1573C22.2999 19.9371 22.3319 19.6619 22.3317 19.4336L22.3325 17.609C22.3324 17.182 22.3892 16.6609 22.2659 16.2537C21.6634 14.2648 20.4563 14.5734 19.1723 13.6869C18.8723 13.4797 18.7855 13.5508 18.4203 13.5634C16.7374 13.6214 14.1484 14.0175 12.7031 14.9884C11.9956 15.4636 11.3366 16.2578 10.9315 17.0099L10.0978 18.5414C9.07741 20.6015 8.2315 22.7808 7.65986 25.0077L7.18816 27.0936C6.94586 28.4588 6.85066 29.975 6.93991 31.3676C6.97352 31.8917 7.09136 32.9185 7.2348 33.3566L7.36075 33.7733C7.5812 34.3751 7.627 34.467 8.27364 34.5063L9.23748 34.5234C9.46173 34.5234 9.72484 34.5491 9.94309 34.5005C10.0292 34.3525 9.97441 33.344 9.98027 33.1045C10.0348 30.872 10.9304 28.8252 11.9909 26.8976L13.4446 24.4449C13.9608 23.6191 14.4631 22.8057 14.7829 21.881C14.9041 21.5305 14.9381 21.024 15.3776 20.9173C15.7208 20.834 15.9947 21.0177 16.1461 21.3163L16.1616 21.3411C16.2158 21.4473 16.1984 21.6199 16.1983 21.7381L16.1951 24.7191C16.1945 25.1078 16.1726 25.5104 16.1977 25.8974L28.9104 25.8961L31.7975 25.8972L31.7999 22.7202C31.7998 22.4445 31.7469 21.5269 31.8402 21.3397L31.8595 21.2991C32.1763 20.6401 32.8663 20.8246 33.1123 21.5316L33.7185 23.0803C33.8881 23.4757 34.17 23.8731 34.4027 24.2363L35.3961 25.7903C36.149 26.9757 36.8188 28.3249 37.3132 29.6366L37.6281 30.617C37.6723 30.7345 37.69 30.8652 37.7245 30.9862L37.905 31.8822C37.9961 32.2656 38.0296 32.9492 38.0397 33.3534L38.0419 34.1087C38.0419 34.2298 38.0224 34.3866 38.064 34.5002C38.3561 34.5593 39.9753 34.5765 40.141 34.4622L40.2016 34.4132C40.6915 34.0192 40.8843 32.9159 40.9627 32.3202C41.0123 31.9433 41.0657 31.5586 41.0766 31.1791L41.0753 29.1957C40.9195 26.4174 40.0702 23.661 39.0442 21.0913C36.7605 15.3718 35.4197 13.6705 28.9948 13.5487C28.7641 13.6935 28.5519 13.8476 28.3064 13.9693C27.3312 14.4527 26.0376 14.8933 25.7727 16.103L25.7563 16.1854C25.7162 16.389 25.6734 16.5396 25.6713 16.7592L25.6705 19.5584C25.6726 19.7629 25.7272 20.0791 25.6656 20.2686C25.4702 20.8696 24.684 20.8265 24.4216 20.278C24.3455 20.119 24.3762 19.8503 24.376 19.6757L24.3836 16.4284C24.3913 16.285 24.3992 16.1135 24.4493 15.9782L24.4582 15.9552C24.5371 15.732 24.5757 15.5022 24.6683 15.2777C25.0378 14.3819 25.7818 13.671 26.6364 13.2343C26.9948 13.0511 27.3993 12.9582 27.7472 12.7616C28.4136 12.385 28.7445 11.4688 28.9441 10.767L29.0293 10.4352L18.9781 10.4301ZM16.4042 27.263L16.2048 27.2747C16.1708 27.4294 16.1921 27.6932 16.2198 27.8489L31.5529 27.8558L31.803 27.8482L31.8007 27.272L16.4042 27.263ZM19.1542 29.1025L16.2005 29.114L16.2093 29.3525C16.3265 29.3818 16.4533 29.3709 16.5738 29.371L28.9463 29.369L31.8074 29.3815C31.8321 29.2921 31.8132 29.2033 31.8017 29.1128L19.1542 29.1025ZM16.1998 30.7199L16.1926 32.7884C16.1925 33.605 16.1506 34.4412 16.2805 35.2487C16.3884 35.9193 16.9422 37.4158 17.7041 37.5944C17.8158 37.6206 17.9661 37.6074 18.0823 37.6082L30.2515 37.6053C30.4337 37.6027 30.6784 37.378 30.7961 37.2499L31.0374 36.9589C31.6986 35.9841 31.8005 35.1016 31.8017 33.9818L31.8022 31.2379C31.8021 31.0923 31.8226 30.9125 31.8007 30.7717L16.1998 30.7199Z" fill="black"/>
</svg>
