<svg width="48" height="48" viewBox="0 0 48 48" fill="none" xmlns="http://www.w3.org/2000/svg">
<path d="M29.2206 38.6006L15.5038 38.6015C15.347 38.5991 15.2099 38.5384 15.0559 38.5264C14.1983 38.4599 13.3963 38.6152 12.555 38.7459C11.481 38.9127 11.5943 38.0182 11.3279 37.3826C11.1784 37.0261 11.0202 36.6364 10.8348 36.2978C10.6927 36.0381 10.5244 35.8121 10.4148 35.5332C9.95803 34.3704 9.63689 32.6968 9.4995 31.4763L9.41212 30.5905C9.3839 30.3614 9.39361 30.1224 9.39337 29.8916L9.39286 28.8693C9.39281 28.1761 9.36337 27.4664 9.40092 26.7752C9.49842 24.9801 9.92489 22.7736 10.4893 21.1019L11.1738 19.2722C11.4031 18.7333 11.6602 18.225 11.8367 17.6638C12.0774 16.8986 12.1736 16.1014 12.3849 15.3309C12.7624 13.9549 13.6478 12.7839 14.8269 11.9906C15.7153 11.3928 16.8067 11.1788 17.6991 10.5644C18.2346 10.1958 18.8196 9.45639 19.4816 9.38229C19.7144 9.37558 19.9019 9.44505 20.1209 9.51063L20.8405 9.71814C22.4707 10.1505 24.911 10.2019 26.5762 9.835L27.6718 9.54025C28.6154 9.26754 28.8174 9.32444 29.584 10.0406C30.7268 11.1083 32.0377 11.2074 33.2378 12.0453C34.3331 12.8102 35.4323 14.1103 35.6657 15.4773L35.86 16.4881C36.1497 17.9462 36.5721 18.7232 37.1254 20.0271C37.5044 20.9205 37.7876 21.9455 38.0123 22.8864L38.2506 24.1053C38.5064 25.445 38.5966 26.7692 38.5971 28.1356L38.5129 31.3709C38.4077 32.6564 38.1396 33.8981 37.7272 35.1231C37.6014 35.4966 37.4122 35.8329 37.2481 36.1889L36.6678 37.5449C36.5813 37.7514 36.566 37.9793 36.481 38.1849L36.4684 38.2146C36.2381 38.7741 35.8156 38.7805 35.3427 38.7216C34.4563 38.6113 33.5933 38.4642 32.6952 38.5302C32.4989 38.5446 32.3064 38.5954 32.1092 38.5995L29.2206 38.6006ZM20.3561 10.9438C21.054 12.6589 23.4796 13.8739 25.1972 13.1605C25.8043 12.9084 26.4002 12.6218 26.8679 12.1513C27.1944 11.8 27.4356 11.3929 27.612 10.9479C26.9583 11.0256 26.3159 11.2271 25.6597 11.3153C24.2073 11.5106 21.7872 11.4411 20.3561 10.9438ZM28.9213 11.169C28.4732 12.4331 27.7072 13.4861 26.4275 13.9631C26.1613 14.0624 26.1754 14.5621 26.1246 14.81C25.9264 15.7776 25.7921 16.7632 25.7022 17.7472L25.5054 20.3347C25.4948 20.5025 25.5135 20.6866 25.4785 20.8506C25.3641 21.3864 24.5223 21.4842 24.2991 20.9751C24.1305 20.5908 24.524 16.5358 24.5998 16.0193L24.7717 15.011C24.7937 14.896 24.8504 14.7573 24.8485 14.6426L23.1833 14.6155C23.1295 14.8149 23.1333 15.0528 23.1034 15.2602L22.532 17.9083L21.7705 20.5186C21.6825 20.829 21.6348 21.1724 21.3254 21.3442L21.1791 21.4127C20.6789 21.6271 20.4081 21.1642 20.4512 20.7303C20.5118 20.1195 20.7006 19.4991 20.8753 18.9129L21.3748 17.1618C21.5787 16.3978 21.7272 15.618 21.8411 14.8357L21.9225 14.1531C20.4118 13.4219 19.7042 12.8773 19.0282 11.2092C18.6799 11.4861 18.3225 11.7592 17.9282 11.9673C16.8713 12.5253 15.7455 12.7966 14.8563 13.6481C13.7202 14.736 13.6324 15.6029 13.3499 17.0117C13.0792 18.3608 12.4167 19.563 11.9365 20.8399C11.3426 22.4192 10.9721 24.1378 10.7773 25.8122C10.7238 26.2724 10.6753 26.7418 10.6711 27.2047L10.6688 29.9916C10.7215 31.1777 10.9079 32.3445 11.1559 33.5037L11.4476 34.6055C11.4727 34.686 11.5042 34.7695 11.5486 34.8412C12.5751 35.2239 13.6818 35.2137 14.6859 34.7598L14.6871 21.7552C14.6874 21.3613 14.5811 20.235 14.7772 19.925L14.7936 19.8987C15.0534 19.4928 15.6065 19.5151 15.8463 19.9099L15.8628 19.9353C15.9811 20.1194 15.9423 20.4074 15.9429 20.6216L15.9434 21.574L15.9468 36.7748C15.9488 36.9351 15.9383 37.105 15.9657 37.2626L32.0181 37.2616C32.079 36.6589 32.0597 36.0447 32.0605 35.4396L32.0606 20.4724C32.0605 20.3503 32.0483 20.2134 32.0709 20.0937C32.1693 19.5723 32.863 19.4474 33.1736 19.8755L33.246 19.9711C33.4066 20.1918 33.3176 21.4507 33.3178 21.769L33.3205 33.1266C33.3203 33.3177 33.2816 34.741 33.3037 34.7786C33.3323 34.8273 33.8184 34.9526 33.8905 34.9711C34.824 35.2118 35.5971 35.1152 36.4816 34.7974C36.9612 33.4891 37.2591 31.6139 37.3215 30.191L37.3258 27.2942C37.2736 26.0155 37.1114 24.7605 36.823 23.5156L36.3397 21.691C35.8474 20.0979 34.9946 18.6498 34.6524 17.0061C34.5215 16.3775 34.4646 15.7239 34.1897 15.1352C32.9134 12.4021 30.8017 12.8399 28.9213 11.169ZM14.6442 36.2459C13.8092 36.3798 13.1536 36.5468 12.3547 36.432L12.263 36.4225C12.3955 36.6423 12.5011 36.8968 12.5755 37.1426L12.6501 37.3616L14.6762 37.1733L14.6442 36.2459ZM33.2964 36.2221C33.2672 36.5238 33.2625 36.9263 33.3223 37.2224C34.0047 37.3145 34.7053 37.2075 35.3842 37.3838C35.4255 37.2875 35.4514 37.1845 35.4808 37.0841C35.5517 36.8632 35.6166 36.6265 35.7205 36.4188C34.9081 36.5205 34.0848 36.4274 33.2964 36.2221Z" fill="black"/>
</svg>
