<svg width="48" height="48" viewBox="0 0 48 48" fill="none" xmlns="http://www.w3.org/2000/svg">
<path d="M28.137 40.874L15.7057 40.8741C14.5701 40.8735 12.9249 41.0316 12.6713 39.4625C12.5889 38.9525 12.7413 38.4823 12.7657 37.9811L12.7708 35.822C12.7659 35.4187 12.7102 35.0222 12.6876 34.6209L12.363 30.4253L10.9925 34.5846C10.2997 37.1055 7.3207 38.3322 5.16342 36.6749C3.00228 35.0146 3.4287 32.911 4.25233 30.699L5.51869 26.8535C5.72456 26.163 5.90494 25.4457 6.15169 24.7697L6.71789 23.429C7.2877 22.0864 7.37414 21.2292 7.52798 19.7793C7.8495 16.748 9.01744 13.567 11.7945 11.9756C13.2272 11.1545 14.8146 10.9026 16.2787 9.89065C16.824 9.51368 17.272 9.06204 17.7526 8.61106L18.827 7.68233C19.2331 7.36128 19.6014 7.06967 20.1278 7.01848C20.3823 6.98248 20.7074 7.08181 20.9631 7.11669L21.5558 7.16839C21.7456 7.18747 21.9256 7.22319 22.1194 7.23003L25.6989 7.217C25.8391 7.20903 25.9731 7.17926 26.1131 7.16768L27.6682 7.01989C28.8294 6.8892 30.7569 9.22128 31.7715 9.9185C32.7853 10.6152 33.9177 10.9771 35.0511 11.4209C36.8611 12.1298 38.3083 13.4976 39.2045 15.2152L39.5757 15.996C39.8591 16.7172 40.1286 17.4477 40.2703 18.2124L40.6826 21.335C40.7338 21.6447 40.8035 22.0116 40.9057 22.3092L41.0425 22.7345C41.2957 23.6939 41.8537 24.5471 42.079 25.5273C42.0875 25.5642 42.0955 25.5979 42.1085 25.6338L42.1735 25.8553C42.2317 26.1192 42.3863 26.7011 42.4829 26.9557L44.251 32.1681C44.8876 34.0183 43.9095 36.3045 42.119 37.0897C41.8932 37.1888 41.6524 37.2342 41.4267 37.3245L41.4007 37.3355C41.1042 37.4545 40.3052 37.4258 39.9846 37.3635C38.9614 37.1647 37.9533 36.469 37.4164 35.5643C37.0487 34.9448 36.8772 34.1637 36.6585 33.4812L35.997 31.4838C35.8788 31.1342 35.7768 30.7803 35.6382 30.438C35.5468 31.0498 35.5357 31.6599 35.4799 32.2736L35.305 34.7242C35.2876 34.9842 35.2441 35.2409 35.2343 35.5024L35.2288 37.1123C35.2289 37.5504 35.2118 37.9583 35.2896 38.389C35.3588 38.7723 35.447 39.278 35.3116 39.6494L35.3002 39.6798C34.9686 40.6488 34.1559 40.8726 33.261 40.8736L28.137 40.874ZM20.9071 8.61443C21.1641 11.2349 23.8128 13.3392 26.0613 11.0004C26.6604 10.3231 26.918 9.50431 27.033 8.61945L25.3703 8.69623L21.1957 8.61964C21.1045 8.6134 20.9946 8.58936 20.9071 8.61443ZM28.4442 8.95269L28.2127 10.0691C27.859 11.6277 26.2579 13.0771 24.7282 13.4345L24.7237 19.7295C24.7235 19.9378 24.7447 20.1737 24.7131 20.379C24.6032 21.0942 23.4582 21.2527 23.2725 20.3556C23.2415 20.206 23.2569 20.0313 23.2567 19.8781L23.2558 13.6061C23.2559 13.4552 23.3179 13.4071 23.1698 13.3778C21.313 13.0106 20.0516 11.3679 19.6233 9.60894C19.5788 9.42654 19.5557 9.24247 19.5028 9.06167C19.0182 9.37667 18.6174 9.84106 18.1942 10.231C16.927 11.3985 15.7122 11.9669 14.1527 12.5523L12.615 13.1956L12.7996 14.4962C12.8438 14.7942 12.8836 15.0932 12.9231 15.3916L13.5939 21.1056C13.6729 21.851 13.8037 22.6148 13.7924 23.3657C13.783 23.9829 13.6056 24.5813 13.5628 25.198C13.4777 26.4237 13.5793 28.6 13.7779 29.8771L14.0089 32.4467C14.0808 32.8551 14.0552 33.3148 14.0717 33.7314L14.1301 34.8415C14.1341 35.2133 14.1075 35.6492 14.1792 36.0136L33.8137 36.0173L33.8664 34.2922L34.3135 29.0392C34.359 28.4275 34.4075 27.9138 34.4267 27.2904L34.4726 26.6762C34.5007 26.0547 34.4814 25.4045 34.41 24.7868C34.3371 24.1548 34.1775 23.5692 34.2234 22.925L34.9094 16.6242L35.3632 13.4903C35.3772 13.4002 35.4075 13.2947 35.3965 13.204C34.7338 12.823 33.9814 12.6017 33.2715 12.3295C31.7119 11.7314 30.5316 10.8933 29.3175 9.7535C29.0506 9.50295 28.8071 9.20033 28.5038 8.99623L28.4442 8.95269ZM11.3083 14.2299C9.99562 15.4243 9.29484 17.5542 9.04715 19.2515L8.90812 20.1915C8.81733 20.9911 8.77317 21.7857 8.54972 22.5648C8.23444 23.6643 7.77361 24.508 7.416 25.5436L6.06314 29.9299L5.41237 31.7345C5.23247 32.2261 4.99425 32.7771 4.96973 33.3073C4.92572 34.2613 5.47612 35.2122 6.2955 35.6891C6.49181 35.7837 6.70894 35.8778 6.92601 35.9079L6.96656 35.9138C8.03554 36.0635 9.01054 35.5367 9.46139 34.5631C9.65634 34.1421 9.76036 33.6693 9.90637 33.2294L11.9242 27.4564C12.1381 26.8653 12.0914 26.6413 12.0918 26.0137C12.0922 25.2884 12.1098 24.4967 12.2553 23.7813C12.3792 23.1725 12.2575 22.5237 12.2128 21.9138L11.3083 14.2299ZM36.6822 14.2618C36.6342 14.4723 36.6271 14.6815 36.6013 14.8947L35.8594 21.1052C35.7261 22.464 35.6532 23.0643 35.8126 24.4103C35.9246 25.3563 35.8391 26.0651 35.8913 26.965C35.8988 27.0935 35.9852 27.2559 36.0354 27.3743L36.8697 29.6083L38.5342 34.5405C39.0284 35.7824 40.6122 36.2892 41.7453 35.6228C42.3544 35.2667 42.7536 34.7143 42.9306 34.0314C43.1758 33.085 42.738 32.1826 42.4304 31.3077L40.4257 25.171L39.9215 23.9255C39.5885 23.0704 39.3353 22.1564 39.2195 21.2462L39.0914 20.0158C38.9042 18.4937 38.541 16.9048 37.7406 15.5792L37.4184 15.0817C37.2242 14.7813 36.9433 14.5346 36.7109 14.2665L36.6822 14.2618ZM14.6397 37.4832L14.2314 37.5005L14.1797 38.176C14.1488 38.373 14.1458 38.5761 14.1201 38.7741C14.0602 39.2346 13.9929 39.379 14.6108 39.379L33.4748 39.381C34.0457 39.3643 33.9326 39.0542 33.8684 38.6134L33.7814 37.9069C33.7653 37.7736 33.7881 37.616 33.7494 37.4901L14.6397 37.4832Z" fill="black"/>
</svg>
