<svg width="48" height="48" viewBox="0 0 48 48" fill="none" xmlns="http://www.w3.org/2000/svg">
<path d="M27.4512 40.8026C26.7759 40.6871 26.0732 40.6071 25.3883 40.5787L23.8189 40.5682C23.2126 40.568 22.6077 40.5571 22.003 40.6079C19.6035 40.8093 17.9882 41.4899 15.4346 40.7152C14.1978 40.3401 12.7562 39.4315 12.1315 38.26L11.7894 38.3425C11.2013 38.46 10.5568 38.5675 9.95513 38.6006L8.47501 38.611C7.17043 38.6131 7.03735 38.4734 7.13124 37.2973C7.17094 36.7995 7.21341 36.3068 7.21496 35.8071L7.03365 32.0932L6.82416 30.1253C6.47494 27.7503 7.75182 26.4649 8.33391 24.4297C8.53824 23.7152 8.6184 22.9834 8.78185 22.2601L9.61683 19.127C10.4903 16.2262 11.3433 14.1167 13.9643 12.4595C15.6606 11.3869 17.6081 10.8753 18.4865 8.89228C18.9524 7.84041 19.2061 7.07878 20.5078 6.90047C20.7642 6.84474 21.0828 6.91167 21.3402 6.93731L22.3246 7.03716C22.5841 7.06317 22.8492 7.06645 23.1098 7.07489L25.131 7.06645L26.6847 6.92977C27.937 6.82636 28.6657 7.03055 29.2494 8.26233C29.4319 8.64759 29.5505 9.05105 29.7699 9.42178C30.5806 10.7916 32.1875 11.427 33.516 12.1649C35.9254 13.503 36.9453 15.0632 37.8754 17.6022C38.0727 18.1408 38.2743 18.699 38.4181 19.2545L38.6102 19.8873C38.6643 20.1471 38.7472 20.4158 38.8196 20.6717L39.3293 22.7467C39.4457 23.2999 39.5011 23.8652 39.6563 24.4108C39.9234 25.3503 40.4752 26.1727 40.7589 27.0944L40.9783 27.7871C41.2983 28.7123 41.2061 29.7733 41.0688 30.7207L40.9828 31.5974L40.7962 35.5214C40.7911 36.1043 40.8039 36.6627 40.8558 37.2434C40.9014 37.7525 41.1063 38.2346 40.5004 38.5302L40.4721 38.5436C40.2347 38.6583 39.8872 38.6103 39.6231 38.61L38.3317 38.5972C38.1423 38.5861 37.9579 38.5541 37.7699 38.5358L35.8814 38.2777C35.2069 39.4533 33.8678 40.2881 32.6046 40.6998C30.9263 41.2469 29.1589 41.0986 27.4512 40.8026ZM27.2966 8.1915L25.1674 8.40389C23.8496 8.48864 22.3647 8.42545 21.0687 8.24049C20.1239 8.10563 20.0645 8.62144 19.7459 9.32925C19.2421 10.4481 18.6344 11.2158 17.6022 11.9232C17.6229 12.006 17.6432 12.0852 17.6747 12.1647L18.124 13.2846C18.7821 14.685 19.8688 16.2732 21.3863 16.843L21.5613 16.8968L21.7531 16.5439C22.0321 16.088 22.2633 15.6931 22.7816 15.4874L22.9319 15.4373C23.2705 15.3351 23.6885 15.3758 24.0407 15.3769C25.0684 15.3802 25.8578 15.5685 26.2602 16.7083L26.3605 16.929C28.4796 16.2822 29.7653 13.9085 30.4081 11.9168L30.3916 11.9062C29.5242 11.3354 28.7347 10.4375 28.311 9.49134L28.0787 8.90686C27.9494 8.55638 27.7353 8.17725 27.2966 8.1915ZM16.3838 12.6686L16.3491 12.6923C16.1281 12.8402 15.8604 12.9439 15.6245 13.0674C13.3114 14.2783 12.3844 15.4078 11.473 17.7927L10.3621 21.4031C10.3106 21.5947 10.2438 21.7823 10.2026 21.9767L10.0409 22.6683C9.8049 23.9387 9.59701 25.1569 9.05879 26.3408C8.49174 27.5881 7.97616 28.5177 8.11908 29.9408C8.16877 30.4357 8.2651 30.9315 8.29754 31.4265L8.34071 32.403C8.36138 32.7578 8.44224 32.7539 8.81827 32.8324C10.0827 33.0964 10.7631 32.9877 11.9262 32.5825C11.9869 31.7531 12.1525 30.9273 12.2805 30.1061C12.6353 27.8276 12.962 25.6084 12.8486 23.2973C12.8265 22.8475 12.7579 22.4097 12.7741 21.9569C12.7996 21.2389 13.8856 21.1105 14.0547 21.7587C14.2044 22.3324 14.1497 24.066 14.1486 24.7074L14.1382 26.224C14.1002 26.9167 14.0197 27.6496 13.9105 28.332L13.3148 32.0983L13.1632 33.6081C13.0553 34.6563 12.8616 36.6266 13.2175 37.4965C13.5406 38.2862 14.7542 39.0178 15.494 39.3053C16.8875 39.8469 18.4106 39.7777 19.8637 39.5473L21.0885 39.3639C22.8174 39.1101 25.422 39.1434 27.2122 39.4091C29.0471 39.6815 30.906 40.0075 32.672 39.2289C33.5099 38.8595 34.5406 38.2004 34.8723 37.3014L34.9347 37.1008C34.9831 36.9325 34.9781 36.7394 34.9854 36.5647L34.9755 35.114C34.9676 34.9219 34.93 34.7367 34.9161 34.5474L34.7899 32.9357L33.9615 27.2115L33.8535 25.8209L33.8519 22.4398C33.8544 22.2376 33.8384 21.9847 33.9086 21.7935C34.2097 20.9737 35.4376 21.2312 35.17 22.4558C35.0924 22.8106 35.1326 23.2586 35.1308 23.6242C35.1263 24.5581 35.1347 25.3219 35.2077 26.2467L35.4862 28.5944C35.5723 29.1235 35.6357 29.657 35.7308 30.1847L35.9699 31.7599C36.0034 32.0279 36.0121 32.3317 36.0858 32.5899C37.0762 32.9992 38.1589 33.1166 39.1984 32.8336C39.3557 32.7907 39.4952 32.7787 39.6317 32.6829C39.652 32.2081 39.6441 31.7149 39.6999 31.244C39.983 28.8581 40.0842 28.8979 39.0448 26.4903C38.4787 25.179 38.318 24.5102 38.0563 23.1334L37.2421 19.9459C36.1665 16.3517 35.5932 14.7374 32.2269 12.9863C32.0426 12.8904 31.7566 12.7052 31.5572 12.6727C30.7923 14.7384 29.5461 16.9758 27.4476 17.9335C26.9149 18.1765 26.3434 18.3631 25.7714 18.1475C25.2052 17.934 25.1515 17.3207 24.8432 16.8732C24.6966 16.6603 23.4577 16.7027 23.198 16.7532C22.5861 17.5303 22.7999 18.4171 21.3759 18.189C19.1206 17.8277 17.4481 15.1846 16.6638 13.2718L16.4986 12.8439C16.4701 12.7581 16.4807 12.6732 16.3838 12.6686ZM11.8044 34.0838C10.9859 34.3104 10.1231 34.3852 9.27718 34.2795L8.72593 34.1842C8.28024 34.0987 8.49413 34.2447 8.50651 34.7787L8.50871 36.1442C8.50824 36.4933 8.52493 36.8524 8.48546 37.1994L8.49647 37.2863C9.24797 37.2867 11.0083 37.1942 11.7322 36.9409L11.7559 34.5161C11.7642 34.3707 11.7921 34.2288 11.8044 34.0838ZM36.2267 34.0641L36.28 36.944C36.8775 37.0966 37.7215 37.2029 38.354 37.2334L39.5573 37.2627L39.5319 37.0147L39.5179 36.9775C39.4564 36.753 39.4885 36.4573 39.4881 36.2229L39.5367 34.1499C38.7411 34.3026 37.7905 34.4465 36.9883 34.2318L36.2267 34.0641Z" fill="black"/>
</svg>
