<svg width="48" height="48" viewBox="0 0 48 48" fill="none" xmlns="http://www.w3.org/2000/svg">
<path d="M30.5446 40.7175C29.816 40.8914 29.0358 40.9347 28.2893 40.9929L26.4517 41.1C26.2694 41.1106 26.0889 41.1427 25.9063 41.1485L22.5409 41.1462C20.9992 41.0895 15.3892 40.9446 15.019 39.4572C14.9579 39.2117 14.9977 38.8791 14.998 38.6238L14.9878 34.4596C14.9808 34.2407 14.9358 34.0251 14.9297 33.8084L14.7988 30.0913C14.7892 29.9419 14.7564 29.7951 14.7468 29.6466L14.7158 28.5627C14.6977 28.2154 14.6447 27.8794 14.6284 27.5305L14.6004 26.0103C14.5947 25.8216 14.5489 25.6389 14.5442 25.4498L14.5342 21.9713C14.504 20.8523 14.3391 19.3809 14.1154 18.3118C13.0772 19.768 12.6668 21.1028 12.2516 22.7749L11.5445 25.7953C11.4196 26.2506 11.3308 26.807 10.8346 27.0054L10.7357 27.0453C10.5453 27.1135 10.2937 27.0863 10.0936 27.0868L7.86103 27.089C7.61601 27.0888 7.27115 27.1452 7.04301 27.0362L6.8766 26.9498C6.40068 26.6589 6.35404 26.0251 6.27163 25.5308L6.04453 24.075C5.89781 23.2707 5.94224 21.0129 6.02296 20.1839C6.26484 17.7001 7.26131 15.126 8.10848 12.8025C8.65879 11.2933 9.15271 9.73845 10.1123 8.42543C11.6515 6.31925 13.1511 5.9172 15.5481 5.6164L18.9513 5.18764C19.5556 5.13031 19.7571 5.44095 20.2348 5.75717C21.4811 6.58226 22.3739 6.74778 23.8645 6.74951C25.4886 6.75139 26.4782 6.62407 27.8148 5.71714C28.0458 5.56039 28.2774 5.372 28.5307 5.25293L28.5936 5.22242C28.8174 5.11371 29.1233 5.21384 29.3557 5.24018L32.4983 5.669C35.7735 6.29553 37.4657 7.81437 38.9416 10.8351L40.5147 14.5046L41.1434 16.4459C41.1911 16.6822 41.2854 16.9076 41.3317 17.1501L41.5827 18.2351C41.8877 19.9058 42.0729 21.5883 42.0076 23.2903L41.7382 25.6491C41.6264 26.3172 41.6131 26.698 40.9338 26.9999L40.8741 27.0272C40.6776 27.1107 40.4036 27.0829 40.192 27.0837L39.2336 27.0861C38.6793 27.087 38.0691 27.1826 37.5442 26.9658C36.0962 26.3676 35.9248 24.7781 35.5901 23.4423L35.071 21.558C34.7295 20.3257 34.2767 19.1261 33.7803 17.9502C33.3532 18.5925 33.1522 20.5091 33.0948 21.255L33.0085 23.2872L32.9984 38.6858C32.9978 39.6449 33.0029 39.8912 31.9984 40.2932C31.5293 40.4809 31.0399 40.6193 30.5446 40.7175ZM18.3905 6.92557L14.7424 7.38645C14.4844 7.41537 14.2242 7.43459 13.9709 7.49614C11.0995 8.19387 10.1127 11.9749 9.27276 14.3505C8.38167 16.8709 7.54195 19.248 7.54481 21.9489C7.5456 22.6968 7.62243 23.4402 7.69748 24.1838L7.82474 25.0595C7.84996 25.2067 7.8644 25.3497 7.91043 25.4929L10.0016 25.4719C10.0652 24.9775 10.1996 24.4988 10.3017 24.0115C10.802 21.6244 11.316 19.4664 12.7699 17.4434C13.5727 16.3264 14.6141 15.1735 15.4064 17.1727L15.784 18.4235C15.9809 19.0267 16.0463 20.3579 16.0946 21.0073C16.1036 21.1289 16.0688 21.4383 16.1141 21.5329C17.0459 21.7378 18.0009 21.9307 18.9498 22.0316L19.8854 22.1255C20.3536 22.1588 20.8563 22.2123 21.3151 22.2302L25.3713 22.2937L27.2339 22.216C27.3703 22.2065 27.5047 22.1766 27.6404 22.1666L28.5159 22.1131C29.5224 22.0177 30.5077 21.8509 31.4743 21.5532L31.7158 19.2597C31.9106 18.3411 32.627 15.7124 33.9949 16.0143L34.0342 16.0232C34.7239 16.17 35.231 17.1637 35.4621 17.7654L35.9553 19.0545L37.0414 22.6104C37.0953 22.8709 37.1757 23.1305 37.2337 23.3922L37.4623 24.3113C37.7319 25.3617 37.6666 25.4069 38.6718 25.4075L40.1111 25.4133L40.3075 24.3452C40.8459 20.6981 39.7439 16.7211 38.3368 13.3901C37.0972 10.4556 35.76 7.92129 32.3105 7.31768L29.944 7.01136C29.8041 6.9949 29.5877 6.9245 29.455 6.94146L29.2757 7.74668C28.8742 9.25376 28.1558 10.6252 26.7915 11.4554L26.6231 11.5478C25.388 12.1919 23.3519 12.2599 22.0554 11.8681C20.7288 11.4672 19.7316 10.3558 19.0998 9.16404C18.7267 8.46007 18.5901 7.71162 18.4392 6.94053L18.3905 6.92557ZM20.2254 7.67557C20.3891 8.48168 21.186 9.52179 21.8323 9.96087C22.59 10.4757 24.3739 10.5366 25.2912 10.2967C26.0092 10.109 26.4631 9.73395 26.9084 9.14989C27.2063 8.72182 27.4764 8.2407 27.5846 7.72601C26.8223 8.23339 25.9809 8.34261 25.0954 8.34317L22.8662 8.34082C22.024 8.33825 21.145 8.10931 20.3907 7.73731C20.3374 7.71101 20.2857 7.67295 20.2254 7.67557ZM16.1097 23.1797C16.1019 23.3883 16.0964 23.5917 16.1253 23.7991C16.4367 23.8475 16.7322 23.9395 17.0393 24.0001L19.3908 24.3657C19.5749 24.3888 19.7622 24.3865 19.947 24.4015L22.3724 24.5944L25.6983 24.5907C26.9064 24.5348 28.1185 24.3884 29.3162 24.2265L30.6096 24.0246C30.8758 23.9795 31.1564 23.9491 31.4182 23.8838C31.5043 23.8273 31.5013 23.4118 31.4822 23.321L31.4485 23.2969C31.292 23.3471 31.1267 23.3616 30.9659 23.3948L27.8557 23.8209C27.0731 23.9001 26.0953 23.9151 25.2837 23.933L21.0363 23.8752L19.5861 23.7299C18.4148 23.6207 17.2499 23.4792 16.1097 23.1797ZM16.2465 25.5115C16.2393 25.7876 16.2885 26.0616 16.2906 26.339L16.3154 28.263C16.328 28.4701 16.3626 28.6749 16.3704 28.8836L16.3876 29.906C16.414 30.3714 16.4959 30.8259 16.4976 31.2929L16.5071 33.4529C16.5093 33.5827 16.5024 33.7108 16.5562 33.8318C17.5069 34.3436 19.6227 34.557 20.6693 34.6332L26.133 34.6933L27.9097 34.5395C28.5117 34.4776 29.1511 34.4123 29.7356 34.2534L31.3881 33.823L31.4815 33.785C31.527 33.4977 31.4974 33.1695 31.4975 32.8781L31.4892 25.5082C30.1375 25.7459 28.7777 25.9759 27.4104 26.1018L25.58 26.1924C25.4368 26.1975 25.2957 26.2236 25.1523 26.2279L20.883 26.1544C19.712 26.0814 18.5416 25.9216 17.3847 25.7313L16.6643 25.5934C16.552 25.5695 16.3537 25.4922 16.2465 25.5115ZM31.4551 35.449C29.2799 36.3545 26.5475 36.3719 24.2228 36.372L21.4853 36.363L19.4651 36.1873C18.4716 36.0905 17.4614 35.9434 16.5257 35.5807C16.4616 35.8432 16.5016 36.1959 16.5014 36.4665L16.5027 38.1727C16.503 38.3022 16.4689 38.6104 16.5433 38.7159L16.5568 38.7303C17.2026 39.1682 20.4434 39.4273 21.578 39.478L26.2619 39.476L28.0199 39.3747C28.7009 39.3385 31.0067 39.1476 31.4845 38.6958L31.4551 35.449Z" fill="black"/>
</svg>
