<svg width="48" height="48" viewBox="0 0 48 48" fill="none" xmlns="http://www.w3.org/2000/svg">
<path d="M30.1543 38.5079L28.4767 37.9149C27.3202 37.5518 26.8357 37.6698 25.6294 37.7653C24.9334 37.8203 24.242 37.8492 23.544 37.8347C21.6974 37.7962 20.7621 37.0624 18.8535 37.989C17.501 38.6457 17.0044 38.9805 15.343 38.9827C14.0599 38.9844 12.9089 38.685 11.8355 37.9502C11.6193 38.2491 11.4388 38.5739 11.2179 38.869C9.52312 41.1328 5.7592 40.604 5.03686 37.8181C4.96846 37.5544 4.98337 37.2779 4.98468 37.0075L5.06034 35.3554C5.24657 32.5923 5.65809 29.8353 6.14667 27.11L7.17656 21.8383L8.68153 15.57C8.97951 14.5475 9.22556 13.4708 9.77357 12.5474C10.9081 10.6357 12.8317 9.81914 14.8521 9.16274C15.2917 9.01992 15.7427 8.93629 16.1714 8.75503C16.8688 8.46013 17.8148 7.78832 18.4766 7.6191C18.9225 7.59215 19.0641 7.68107 19.4099 7.94915C20.8277 9.04874 22.2436 9.33595 23.9948 9.33281C25.6707 9.32981 26.8946 9.09918 28.3 8.11288C28.9959 7.62445 29.1873 7.37667 30.0733 7.85929L30.7721 8.25276C31.5221 8.67862 31.8949 8.77345 32.6549 9.01551L34.1325 9.50493C34.9067 9.76054 35.7166 10.1239 36.3869 10.592C38.0898 11.781 38.3597 12.7526 39.0155 14.4907L40.1418 18.3342C40.2117 18.5137 40.2706 18.7946 40.3017 18.9872L41.4581 24.5031C41.5425 24.8386 41.5679 25.2041 41.6309 25.5465L42.1467 28.5782L42.9026 34.535L42.9478 35.6342C42.9558 35.7441 42.9875 35.8485 42.9948 35.9592L43.0196 36.9855C43.0243 37.2526 43.0366 37.5131 42.9797 37.7764L42.9708 37.8164C42.402 40.4895 38.6902 41.1511 36.9879 39.0585C36.6751 38.674 36.4331 38.2343 36.1544 37.8252C34.4501 39.2111 32.1428 39.2544 30.1543 38.5079ZM29.058 9.17292C26.4152 11.1579 21.5468 11.2173 18.913 9.21843C18.5715 9.85092 18.1712 10.625 18.3914 11.3665L18.4123 11.4294C18.6344 12.0768 18.8598 12.5903 19.3073 13.1369C20.395 14.2993 21.7192 15.0489 23.3405 15.1008L24.5157 15.113C24.9133 15.1138 25.2991 15.1206 25.6875 15.0225C27.5474 14.5526 29.0345 12.8381 29.3971 10.9685C29.5161 10.3553 29.4247 9.69449 29.058 9.17292ZM30.6194 9.73823C31.1521 11.1017 30.1125 13.2861 29.1631 14.3623C27.7334 15.9831 26.3819 16.3524 24.3729 16.4738L24.1708 16.4813L24.1678 17.3255C24.1677 17.4262 24.148 17.5715 24.1828 17.6651L25.2066 17.6335C25.383 17.6213 25.5538 17.586 25.7288 17.5628C28.1018 17.2787 29.0489 16.2994 30.4508 14.5017C31.0709 13.7065 31.6851 12.8698 32.1308 11.9617C32.3629 11.4889 32.6304 10.4241 31.9647 10.171C31.529 10.0054 31.0826 9.95559 30.655 9.74699C30.6317 9.73565 30.6423 9.73785 30.6194 9.73823ZM17.1449 9.80854L15.9295 10.2303C15.3391 10.4221 15.3293 11.223 15.5162 11.707L15.612 12.0234C16.564 14.833 18.8463 16.5786 21.5804 17.421C22.011 17.5274 22.4178 17.607 22.8579 17.6608L22.8681 16.7448C22.8677 16.6272 22.8847 16.4766 22.8572 16.3646C19.792 16.179 16.2796 13.0959 17.2025 9.81295L17.1449 9.80854ZM33.6406 10.7625C33.7523 11.763 33.5897 12.0277 33.1124 12.9409C32.6245 13.8745 32.0011 14.7256 31.3398 15.5423C29.2262 18.1525 28.2032 18.6436 24.8555 18.9975L24.365 19.0321C24.306 19.0365 24.2301 19.0312 24.1793 19.0597L24.1699 21.0459C24.1702 22.0974 23.9884 23.4841 23.3668 24.3401C22.9746 24.8802 22.2361 24.9318 22.0964 24.1992L22.0909 24.1729C22.0445 23.9272 22.2793 23.6224 22.3762 23.4115C22.8 22.4904 22.8667 21.5263 22.8691 20.5272L22.8711 18.9699C22.6578 18.9352 22.4436 18.9323 22.2305 18.9014C18.9732 18.4304 15.9162 16.1127 14.6072 13.0808C14.2991 12.3671 14.0448 11.6042 14.091 10.8181C11.1888 11.9669 10.8178 13.0142 9.93389 15.9374L9.2227 18.6025C9.11442 19.0389 8.9812 19.4912 8.90629 19.934L7.78289 25.4648L6.65948 32.2851L6.34284 36.0531C6.27586 37.1469 6.09881 37.9336 7.17192 38.6506C8.22923 39.357 9.63173 38.8497 10.2831 37.8449L10.7013 37.1843C10.8517 36.9262 10.7645 36.7397 10.7539 36.457L10.7407 25.1857C10.7395 24.7716 10.626 24.1932 10.7977 23.8084L10.8113 23.777C10.9512 23.4724 11.338 23.3258 11.642 23.4689C12.3194 23.7879 12.0125 26.2758 12.033 26.9912L12.0397 35.666C12.0429 36.2402 11.9797 36.2281 12.394 36.6411C13.7058 37.9484 15.9155 37.9831 17.501 37.1875C17.8309 37.022 18.1423 36.8337 18.4824 36.6852C20.9505 35.6071 22.5341 36.7288 24.9107 36.4596L26.4644 36.2716C29.6923 35.99 32.1456 39.2504 35.3892 36.7488C36.1387 36.1707 35.923 35.9942 35.9231 35.0954L35.9236 24.781C35.9236 24.5034 35.8927 24.1837 35.9314 23.9102C36.0212 23.2764 37.1726 23.2358 37.1872 24.0754L37.1901 35.2206C37.19 35.8012 37.2157 36.3949 37.1751 36.9734C37.4658 37.4427 37.7619 38.0013 38.1797 38.3664C39.4081 39.4396 41.4956 39.0179 41.7153 37.3527C41.7742 36.9071 41.6901 36.4788 41.6625 36.0389L41.5338 33.9946L40.8131 28.5928L39.4571 21.0817L37.9057 15.2535C37.0302 12.6041 36.4273 11.7964 33.6406 10.7625Z" fill="black"/>
<path d="M30.2762 26.6834C29.4325 27.2708 28.0838 27.2358 27.2008 26.7777C25.3207 25.8021 25.6064 23.2053 25.8445 21.4592C25.8882 21.139 25.887 20.7685 26.0435 20.4792L26.0604 20.4493C26.1551 20.2784 26.3081 20.1336 26.4923 20.0625L26.5237 20.0508C26.6758 19.9925 26.8111 19.9859 26.9723 19.9795L28.1676 19.9819C28.4246 19.9834 28.707 19.9742 28.9603 20.0203C29.7623 20.1662 30.5941 20.0158 31.4064 20.1536L31.5062 20.1736C31.6507 20.2203 31.8174 20.3618 31.889 20.4949L31.9049 20.5257C32.0141 20.7268 31.9779 20.9987 31.9769 21.2238C31.9689 22.971 31.7315 25.6105 30.2762 26.6834ZM27.1547 21.3181C26.9025 23.0578 26.455 26.3971 29.3172 25.6866C29.5882 25.6193 29.7713 25.4026 29.9102 25.1732C30.3993 24.2871 30.6635 22.5388 30.6738 21.4665L27.1547 21.3181Z" fill="black"/>
</svg>
