<svg width="48" height="48" viewBox="0 0 48 48" fill="none" xmlns="http://www.w3.org/2000/svg">
<path d="M30.4239 43.407C29.7116 43.5045 28.9929 43.5819 28.2744 43.6148L19.7288 43.6148C18.8103 43.5725 17.8853 43.4409 16.9736 43.3256C16.5873 43.2768 16.1856 43.2677 15.8048 43.1858C14.788 42.967 13.8837 42.0981 13.5959 41.1067L13.585 41.0681C13.4409 40.5757 13.4804 40.063 13.4794 39.5548L13.4776 38.0118C13.4081 37.9304 13.3271 37.9129 13.2368 37.8671C12.4113 37.4482 12.0352 36.2519 12.4454 35.4237C9.82418 34.5631 6.0971 33.0266 6.5021 29.6642C6.56608 29.1328 6.76619 28.6414 6.89369 28.1256C6.99935 27.6981 7.05138 27.2587 7.11129 26.8232L8.1618 17.7341C8.2361 17.1287 8.20165 16.5086 8.25241 15.9006C8.46129 13.3991 9.70282 9.63784 12.64 9.36132L17.2004 8.93453C18.3054 8.81293 18.7684 9.1164 18.7562 7.69956L18.6628 5.74196C18.6213 5.12701 18.5203 4.47292 19.2846 4.31688C19.5868 4.29414 19.749 4.43482 19.9819 4.59656L20.5032 4.94626C23.0224 6.64412 24.8211 6.61164 27.2845 5.08946L27.9692 4.63721C28.5502 4.23797 29.2172 4.12868 29.3717 4.99023C29.4067 5.18556 29.3504 5.47618 29.336 5.68042L29.2346 7.09234C29.2049 7.56592 29.081 8.82798 29.7456 8.84607C30.1277 8.85648 30.4932 8.89731 30.8729 8.93673L34.4116 9.27798C35.0011 9.32392 35.6172 9.33456 36.1811 9.52609C37.5204 9.9811 38.232 11.1134 38.8254 12.293L39.3615 13.8069C39.4027 14.0222 39.4819 14.2376 39.5254 14.4538L39.7199 15.6188C39.7994 16.1269 39.7586 16.7523 39.8164 17.3201L39.8542 17.89L40.9265 27.0222C40.9803 27.4702 41.015 27.9862 41.1712 28.4119C41.2745 28.6933 41.3594 29.0614 41.4479 29.2871L41.4803 29.3764C41.515 29.5271 41.5009 29.7277 41.5038 29.8826C41.5569 32.6982 39.2082 34.0524 36.8829 34.9597C36.448 35.1294 36.0116 35.3083 35.554 35.4087C36.019 36.3383 35.6702 37.2489 34.8165 37.8379C34.6358 37.9626 34.5518 37.9184 34.5523 38.1487L34.5546 39.8644C34.555 41.4174 33.8124 42.8312 32.1754 43.185C31.8891 43.2469 31.5805 43.2681 31.289 43.3005L30.4239 43.407ZM27.8468 6.3865C25.2632 8.17951 22.6361 7.92498 20.0705 6.38575C20.1612 7.33979 20.2649 8.28475 19.9052 9.19801C21.2489 10.1614 23.6661 10.4523 25.3161 10.1859L25.8985 10.106C26.4595 10.0045 27.6339 9.62617 28.0582 9.19946L28.0755 9.17495C27.7917 8.42007 27.8074 7.75346 27.8477 6.95265C27.8569 6.76834 27.8993 6.57414 27.8923 6.3909L27.8468 6.3865ZM18.7563 10.2281L12.7579 10.7692C12.7931 10.8971 12.8355 11.0133 12.8936 11.1326L13.9113 14.0635L14.2572 15.5425L14.5664 17.6636C14.7031 18.4338 14.5487 19.6115 14.6099 20.4585L30.7149 20.4603L33.3903 20.4866L33.3955 18.7484C33.3957 18.3305 33.3858 17.9189 33.4399 17.5036L33.6278 16.0685C33.9486 14.26 34.5346 12.4837 35.2343 10.7883L29.4681 10.2622C29.2945 10.248 29.1544 10.1683 29.0022 10.2836C27.5712 11.3673 25.9275 11.6974 24.1481 11.6982C22.461 11.699 20.8206 11.4987 19.386 10.5633L19.0446 10.3299C18.9076 10.2331 18.9226 10.2154 18.7563 10.2281ZM11.4843 11.4074C10.7918 12.0251 10.3491 13.0352 10.0758 13.9097L9.86397 14.6906C9.74754 15.0743 9.6708 15.552 9.64221 15.9468L9.61774 16.9896L8.53385 26.6482C8.4858 27.0565 8.45941 27.4618 8.38085 27.8667C8.1745 28.9299 7.69221 29.6465 7.95794 30.7345C8.2443 31.9071 9.53327 32.6306 10.5118 33.1535C11.0349 33.4103 11.592 33.6493 12.15 33.8194C12.4264 33.9038 12.7201 33.9446 12.9926 34.0336C13.1242 33.0349 13.2193 32.6293 13.2203 31.5862L13.2219 18.5644C13.2183 16.4661 12.6022 14.2945 11.8631 12.3475C11.7458 12.0387 11.6537 11.6905 11.4843 11.4074ZM36.4726 11.449L35.8981 13.0208C34.9997 15.6482 34.8009 16.988 34.8016 19.6831L34.8044 31.5894C34.8049 32.0052 34.7933 32.425 34.8248 32.8398C34.855 33.2369 34.9349 33.6691 35.0508 34.0513C35.904 33.8217 36.7326 33.5383 37.5161 33.1257C38.5354 32.5644 39.6794 31.9131 40.0218 30.7178C40.2933 29.77 39.9392 29.3829 39.7426 28.5075C39.623 27.9746 39.5489 27.4141 39.4926 26.8709L38.4331 17.3948C38.395 16.9102 38.4252 15.9998 38.3276 15.6473C38.2832 15.4868 38.2747 15.313 38.2496 15.1487C38.0804 14.0403 37.4131 12.0305 36.502 11.4418L36.4726 11.449ZM15.5558 21.8867L14.6017 21.8884L14.5998 31.792C14.5994 33.1037 14.4732 34.6414 13.8535 35.8176C13.7008 36.1074 13.5729 36.1745 13.7983 36.4943C14.1681 37.019 16.8205 37.5033 17.5204 37.5988L19.1016 37.8053C20.5467 37.9629 21.9874 37.9163 23.4396 37.9191L27.443 37.9075C28.6661 37.8516 30.6866 37.6709 31.88 37.3344C32.1745 37.2808 32.4557 37.1922 32.7441 37.1158C33.413 36.9387 34.7066 36.772 34.1679 35.8357C33.4956 34.6672 33.397 32.7481 33.3965 31.4088L33.3932 21.8912L15.5558 21.8867ZM14.8908 38.5348L14.8773 39.7668C14.878 40.0719 14.8338 40.4401 14.9526 40.7224L14.9689 40.7708C15.0988 41.1513 15.4597 41.5082 15.8196 41.6803L15.9727 41.7415C16.2593 41.8464 16.5556 41.8273 16.8539 41.8691L19.3531 42.1431C19.5164 42.1561 19.6729 42.1932 19.8373 42.2007L28.0349 42.2017C28.2479 42.1931 28.4587 42.1562 28.6709 42.138L30.6563 41.9299C31.5466 41.8139 32.2938 41.8689 32.872 41.0686C33.0644 40.7404 33.1158 40.5513 33.131 40.1745L33.1358 39.1525C33.1356 38.9507 33.1607 38.7177 33.1256 38.5213C31.5412 38.9976 29.3239 39.3 27.6329 39.3654L20.6384 39.3649C19.7303 39.3255 18.8185 39.2192 17.918 39.101L14.8908 38.5348Z" fill="black"/>
</svg>
