<svg width="48" height="48" viewBox="0 0 48 48" fill="none" xmlns="http://www.w3.org/2000/svg">
<path d="M28.5394 43.2372L14.5955 43.2378C14.0396 43.2389 13.4553 43.2773 12.9023 43.2388C12.3056 43.1972 12.3719 42.5163 12.3715 42.1072L12.3702 34.2152C12.3699 33.8625 12.3799 33.5025 12.3488 33.151C12.1676 33.4534 12.026 33.7787 11.8395 34.0812C11.3107 34.9388 10.5989 35.7158 9.86396 36.3999C9.40065 36.831 8.8883 37.2074 8.44899 37.6644C8.04287 38.0868 7.72356 38.5669 7.34584 39.0105C5.99954 40.5914 2.85068 41.0827 1.29429 39.6724C-0.791818 37.7822 1.8429 35.0152 2.83412 33.2808L4.10703 30.7394L6.00826 25.8685L8.6761 17.242C8.79006 16.7795 8.8524 16.3152 9.02157 15.8663C10.0945 13.0197 12.8831 11.6258 15.6214 10.8211C16.8245 10.4676 16.4792 10.8475 16.6453 9.62889L17.1361 7.01228C17.1918 6.77791 17.2248 6.51334 17.3165 6.29116C17.6989 5.36453 18.8813 4.83466 19.8206 4.79111C20.2543 4.75722 20.6639 4.84628 21.091 4.87441L23.7719 4.99094C24.3061 4.99117 24.851 5.01123 25.3838 4.97261C26.3221 4.90459 27.278 4.73692 28.22 4.78342C29.5442 4.84881 30.6217 5.59052 30.8329 6.91666L31.1319 8.2878C31.2298 8.63486 31.2642 9.03958 31.3124 9.39798L31.3959 9.98992C31.4535 10.5886 31.352 10.526 31.9669 10.6868C34.7994 11.4275 37.9755 12.9679 38.9965 15.937C39.2473 16.6663 39.3163 17.4647 39.5791 18.1843L40.761 22.2417C40.7718 22.2829 40.78 22.3203 40.7955 22.3601L42.6562 27.7144L43.5115 29.8294L45.0104 32.9665C45.2322 33.3828 45.4497 33.7968 45.704 34.1949C46.477 35.4051 46.8795 35.8253 47.3529 37.1955L47.3787 37.2729C47.7673 38.6986 46.8713 39.889 45.533 40.3129C43.9766 40.8059 41.918 40.3357 40.8103 39.147C40.3488 38.6518 39.9869 38.0626 39.5147 37.5794C39.2121 37.2698 38.8631 37.0374 38.5428 36.7512C37.5669 35.8789 36.1066 34.3304 35.6301 33.0728C35.5913 33.298 35.6204 33.5687 35.6208 33.7992L35.63 42.2332C35.6309 42.5885 35.7026 42.8997 35.3587 43.1303L35.3318 43.1476C35.0757 43.3154 34.6455 43.2375 34.3541 43.2377L28.5394 43.2372ZM19.9805 6.07933C19.5045 6.12001 19.0347 6.25037 18.6481 6.54016C19.1836 7.3202 20.2798 7.96951 21.1831 8.14201C22.9239 8.47445 26.1653 8.50736 27.7602 7.84314C28.3683 7.54037 28.91 7.06441 29.3697 6.56758C28.8489 6.12283 28.1618 6.03981 27.5031 6.09325L26.1098 6.20744C25.9342 6.22347 25.7645 6.25544 25.587 6.26509L22.5141 6.26983C22.2824 6.26181 22.0595 6.22567 21.8304 6.208L20.9187 6.15147C20.6072 6.12137 20.2945 6.06044 19.9805 6.07933ZM18.2258 7.95002C18.1408 8.27397 18.1027 8.59389 18.0511 8.92342L17.8685 10.2812C17.8376 10.5784 17.7519 10.8669 17.8596 11.1558C18.4679 12.7865 20.2736 13.6434 21.8802 13.9619L22.5409 14.0612C22.6322 14.0712 22.9067 14.0588 22.974 14.0964L23.348 14.1266L23.3636 9.63859C21.5545 9.54311 19.5462 9.42016 18.2472 7.97434L18.2258 7.95002ZM29.7588 7.98976C28.5143 9.12845 27.3843 9.43919 25.7244 9.5733L25.3779 9.60676C25.251 9.61281 24.6854 9.56191 24.6321 9.63897L24.6336 14.1136L25.0017 14.0872C26.6859 14.0102 28.3773 13.4401 29.5337 12.1618C30.505 11.0883 30.1638 10.2976 29.9366 8.96439C29.8814 8.64072 29.8392 8.30809 29.7588 7.98976ZM31.3041 11.8423C29.9875 14.2886 27.3499 15.4184 24.6331 15.3996L24.6266 17.8644C24.6265 18.1226 24.6663 18.4404 24.6182 18.6882C24.5338 19.1234 23.8511 19.3107 23.5582 18.9722L23.4423 18.8041C23.2478 18.5125 23.363 17.9475 23.3634 17.6126L23.3624 15.4046C20.7336 15.3386 17.9296 14.323 16.721 11.8385L14.7363 12.4821C12.9656 13.1222 11.205 14.2052 10.3805 15.9679C10.0667 16.6388 9.93488 17.3951 9.7652 18.1123L7.71802 24.8937L6.68654 27.7776L4.63592 32.6147C4.40305 33.0692 4.13535 33.5231 3.94146 33.995C4.86948 34.9594 6.19365 35.5456 7.4529 35.9321C7.65962 35.9955 7.90721 36.1038 8.12166 36.1194C8.27068 36.1303 9.16726 35.277 9.34327 35.0972C11.8699 32.5163 12.5064 29.6031 12.873 26.1558L13.1248 23.0349C13.1416 22.5545 13.0411 21.8267 13.6638 21.6753L13.689 21.6689C13.9726 21.6025 14.2355 21.7877 14.3596 22.0308L14.3799 22.0663C14.5283 22.3452 14.2798 24.9339 14.2284 25.4532L13.7387 29.2559C13.65 29.7021 13.6243 29.7763 13.6402 30.2244L13.6464 34.0015L13.649 36.5637C13.6499 36.9055 13.544 37.5618 13.7087 37.8628L13.729 37.9008C13.7823 37.9994 13.8346 38.0599 13.9216 38.132L13.9568 38.1618C14.2249 38.3866 14.9699 38.2729 15.3247 38.273L32.8482 38.2711C33.2149 38.271 34.2917 38.409 34.3341 37.813C34.3667 37.3531 34.3355 36.8726 34.3355 36.4101L34.3362 30.9324C34.336 30.2935 34.3486 29.8459 34.2491 29.2178L34.0594 27.9808L33.5784 22.6251C33.5725 22.2403 33.5989 21.6782 34.1482 21.6567C35.0618 21.621 34.8268 23.0635 34.8904 23.6858C35.2977 27.6665 35.4845 31.912 38.4965 34.9389C38.9231 35.3676 39.4109 35.7299 39.8462 36.1456C40.8571 35.9512 42.0971 35.3832 42.9562 34.8235L44.0831 34.0095L42.829 31.4875C41.7778 29.1585 40.9143 26.7709 40.0896 24.3547L38.562 19.3315L38.0234 17.2457C37.3216 14.6452 35.8025 13.3889 33.2461 12.4615L31.3041 11.8423ZM3.24471 35.1096C2.81034 35.7167 1.62057 37.2931 1.786 38.0829L1.81003 38.153C2.26365 39.4788 4.33784 39.2987 5.35402 38.8811C5.91127 38.6133 6.83532 37.7484 7.1611 37.1877L7.14212 37.1842C5.94296 36.9505 4.06396 35.9332 3.24471 35.1096ZM44.7766 35.1013C44.551 35.259 44.354 35.4517 44.131 35.6143C43.6692 35.9512 42.7953 36.4567 42.2485 36.6799L40.8953 37.1905C41.3635 37.8533 41.9067 38.5132 42.6449 38.8786C43.3584 39.1534 44.2302 39.3184 44.9881 39.1314C47.0356 38.626 45.8416 36.7805 45.1523 35.6811C45.0359 35.4954 44.921 35.2635 44.7766 35.1013ZM13.633 39.463L13.6301 41.9636L34.3758 41.9585L34.349 39.4643C33.6975 39.5532 33.0519 39.542 32.3964 39.5417L15.1795 39.5414C14.6591 39.5413 14.1468 39.562 13.633 39.463Z" fill="black"/>
<path d="M32.5589 36.5796L15.5506 36.5849C15.4584 36.5826 15.3541 36.5805 15.2724 36.5339L15.2461 36.5177C14.6973 36.1903 14.8902 35.5198 15.4597 35.3472L32.4726 35.3447C33.1859 35.3635 33.3608 36.4655 32.5589 36.5796Z" fill="black"/>
</svg>
