<svg width="48" height="48" viewBox="0 0 48 48" fill="none" xmlns="http://www.w3.org/2000/svg">
<path d="M33.3767 39.2829C32.6599 40.9607 30.4354 41.4248 28.8074 41.4367L19.1641 41.4359C18.9206 41.4329 18.66 41.4387 18.4203 41.3916L17.2737 41.2251C16.3448 41.0194 15.336 40.4259 14.8245 39.6106C14.0922 38.4434 14.2067 36.7148 14.3715 35.3816L15.1999 28.9045L15.1337 25.6105C15.0376 25.8543 14.967 26.1359 14.8763 26.3899L12.8705 32.2618C12.3048 33.9305 11.6729 35.9253 10.2832 37.1082C10.1624 37.2111 10.0677 37.2395 10.0165 37.3933L9.5637 38.8243C9.37573 39.4346 9.06106 39.4565 8.53264 39.4057C7.93526 39.3482 6.16639 39.0648 5.66042 38.6929C5.10007 38.281 5.46139 37.7317 5.66557 37.246C5.78942 36.9514 5.90196 36.6489 6.04639 36.3634C6.4009 35.6627 6.11965 36.125 6.01667 35.3781L6.01198 35.3419C5.89479 34.4812 6.24443 33.1672 6.50079 32.3245L8.84618 25.4111L10.3382 19.9394C10.48 19.369 10.6118 18.7828 10.6759 18.1983L10.8092 16.4731C11.0212 14.395 12.2002 12.4696 14.1486 11.6134C14.6075 11.4118 15.1006 11.2681 15.5802 11.1245L16.7432 10.7899L16.7046 10.5378C16.5688 9.36566 16.8487 6.70011 18.4027 6.52344C19.1864 6.55986 19.8221 7.36231 19.9576 8.10148L20.3453 9.62534C21.0512 11.5523 23.0764 13.058 25.1445 12.2592C26.5273 11.7251 27.4487 10.4647 27.8299 9.06388C27.9605 8.58383 27.9894 8.10177 28.1955 7.64075C28.8744 6.12256 30.4129 6.17731 30.951 7.82877C31.2164 8.64341 31.4781 9.90448 31.2739 10.7699L31.2651 10.805C31.5464 10.9139 31.8763 10.9649 32.1693 11.044C35.4054 11.9176 36.9604 13.5028 37.2247 17.0398L37.4083 18.8005C37.4612 19.1463 37.5573 19.4866 37.637 19.8261L37.8759 20.8595C37.9533 21.1873 38.0718 21.5126 38.1395 21.8423L38.3277 22.5429C38.3506 22.6655 38.3989 22.7798 38.4241 22.9027L40.3859 29.1564C40.4828 29.51 40.6417 29.8614 40.7686 30.2068L41.3586 31.882L41.824 33.6543C42.036 34.3313 42.0809 35.2878 41.8069 35.9415C41.7693 36.0314 41.8669 36.1686 41.9028 36.2579L42.4705 37.547C42.5265 37.6903 42.6096 37.8003 42.6339 37.9572L42.6388 37.9923C42.7976 39.0801 40.2501 39.3944 39.5018 39.4028C38.8999 39.4096 38.6242 39.2389 38.4154 38.6595L38.1568 37.8378C38.0093 37.3433 38.0099 37.3427 37.6244 37.0021C35.663 35.2692 34.7567 30.995 33.9417 28.564C33.6074 27.5669 33.1302 26.5996 32.8732 25.581C32.7376 26.1583 32.7902 26.8497 32.7886 27.4399L32.8101 29.1448C32.8194 29.3052 32.8503 29.4636 32.8655 29.6235L33.6682 36.0028C33.7694 37.0858 33.841 38.2695 33.3767 39.2829ZM29.5066 7.88684L29.4938 7.9063C29.3361 8.15441 29.2906 8.55936 29.229 8.84778L29.0276 9.63472C28.4818 11.4949 27.0316 13.1814 25.1018 13.6432C22.2532 14.3248 19.7699 12.2954 18.9919 9.61836L18.7721 8.7965C18.6984 8.48352 18.6391 8.15666 18.4879 7.871C18.0381 8.49594 17.9464 9.58142 17.9784 10.3185C18.0229 11.3651 20.0164 13.1376 20.7925 13.6832L22.0901 14.5075C22.7202 14.9029 23.3676 15.3125 24.0352 15.6423C24.3979 15.4443 24.7278 15.1955 25.0815 14.9832L26.5639 14.119C27.6053 13.4621 29.5504 11.8187 29.9555 10.5939L29.9687 10.5573C30.148 10.0425 29.9354 8.24103 29.5399 7.88844L29.5066 7.88684ZM17.3046 11.9884C16.9425 12.113 16.5604 12.1957 16.1904 12.2964L15.2877 12.5898C12.9218 13.3993 12.2266 14.9247 12.0478 17.2251C11.9229 18.8323 11.5707 20.3571 11.1654 21.916L10.5606 24.1537L8.7776 29.7392C8.53053 30.4395 6.91339 34.7259 7.30662 35.3462C7.5815 35.7799 9.07709 36.043 9.51907 36.0248C10.434 35.1753 10.9681 33.8147 11.3809 32.6726L13.2656 26.9704L14.6171 23.3974C14.8239 22.778 14.8628 21.3778 15.5581 21.4216C16.0431 21.4522 16.1712 21.8356 16.1907 22.2538L16.4204 25.6161C16.4322 25.8013 16.473 25.9834 16.4821 26.1681L16.4942 27.9154C16.493 28.3741 16.5045 28.8432 16.4673 29.3001L15.7966 34.5697C15.6643 35.3884 15.5371 36.2015 15.5398 37.0325C15.5497 40.0512 17.5175 40.1378 19.8895 40.1406L26.7696 40.1401C28.2642 40.1396 30.2717 40.3508 31.5599 39.4326C32.4857 38.7728 32.4657 37.7561 32.4621 36.7443C32.4436 36.1687 32.3591 35.6023 32.2842 35.0325L31.5655 29.2358C31.5147 28.6759 31.5169 28.1354 31.5168 27.5717L31.5232 25.9572L31.7757 22.6632C31.7894 22.3873 31.7126 22.0115 31.868 21.769L31.8892 21.735C32.1747 21.288 32.7481 21.3276 32.9603 21.7946L32.972 21.8198C32.996 21.8729 33.0052 21.922 33.0148 21.979L33.0331 22.0559C33.1992 22.6504 33.2739 23.0734 33.4871 23.6916L35.473 29.0822L36.7061 32.9298C36.875 33.3434 37.0163 33.7602 37.2072 34.1661C37.3634 34.4986 38.1638 35.8909 38.4964 36.0394C38.7128 36.0278 38.9272 35.977 39.1391 35.9347C40.8829 35.587 40.9289 35.489 40.5871 33.9826C40.2223 32.3755 39.6031 30.869 39.0733 29.314L37.2809 23.603L36.6553 21.2111C36.4557 20.4116 36.2534 19.609 36.1263 18.7939C35.7807 16.5792 36.1488 14.9967 34.2116 13.3356C33.642 12.8473 31.5544 12.108 30.6953 11.9726L30.1007 12.7563C28.849 14.3123 27.3038 15.2022 25.6162 16.2063C24.0307 17.1497 24.3829 17.3227 22.8091 16.4543C21.0502 15.4838 19.1523 14.399 17.8969 12.7852C17.7979 12.6579 17.403 12.0268 17.3046 11.9884ZM40.7275 36.8024L40.3362 36.988C39.9961 37.1238 39.6585 37.1649 39.3009 37.2203L39.5883 38.0978C39.6433 38.1098 39.6771 38.1081 39.7323 38.0971C40.1999 38.04 40.7324 37.955 41.1736 37.7855L40.7275 36.8024ZM7.28684 36.8322L7.27864 36.8567C6.812 38.221 6.40484 37.6359 8.34031 38.1178L8.41137 38.1212C8.48576 38.012 8.52382 37.8332 8.55893 37.705L8.71114 37.2132C8.36918 37.1603 8.04734 37.0956 7.71729 36.9902C7.59893 36.9524 7.40314 36.8294 7.28684 36.8322Z" fill="black"/>
</svg>
