<svg width="48" height="48" viewBox="0 0 48 48" fill="none" xmlns="http://www.w3.org/2000/svg">
<path d="M30.0342 39.2157C28.22 40.6894 26.0707 40.698 23.8876 40.6941C22.2167 40.6911 20.3848 40.6538 18.8806 39.8333C17.6767 39.1766 16.7076 38.1135 16.7052 36.6948L16.7001 35.2412C16.6935 34.9247 16.5321 34.8771 16.355 34.635C15.3033 33.1974 15.0947 30.3548 15.0248 28.547L15.0074 27.2741L14.8 23.9491C14.6816 24.4463 14.4801 24.934 14.3442 25.4298C14.0591 26.469 13.791 27.9187 14.0148 28.9583C14.0692 29.2112 14.0444 29.4835 14.0786 29.7423L14.3168 32.2765C14.3862 33.4701 14.3683 35.0252 13.8683 36.0925C13.8143 36.2077 13.7459 36.2869 13.741 36.422L13.7464 40.0078C13.7474 40.6959 13.547 40.761 12.8824 40.7619L10.0613 40.7627C8.91454 40.7625 8.75807 40.8544 8.75638 39.5196L8.75207 36.3457C8.74335 35.4625 8.32621 34.5375 8.18919 33.6291C8.10604 33.0781 8.00676 32.2221 7.9806 31.6524L7.96973 27.6434C7.98684 23.6137 9.37654 19.7332 10.9776 16.0899C11.849 14.1069 12.6438 13.2463 14.5714 12.4374L17.9421 11.1928C17.8938 10.5417 17.9274 9.86798 17.9276 9.2145L17.9286 8.42901C17.929 8.29176 17.9162 8.11073 17.9652 7.98164L17.9751 7.95712C18.2083 7.34212 19.2975 7.23337 19.8545 7.20586C21.1155 7.13123 21.9596 7.80272 22.6914 8.71865L23.986 10.4607L25.1491 8.92036C26.0923 7.7092 26.9136 7.13695 28.4417 7.21898C28.9716 7.24744 29.6581 7.3125 29.9736 7.79831L29.9934 7.8299C30.1303 8.04197 30.066 8.47036 30.0662 8.72048L30.0669 10.3947C30.0669 10.9872 29.8762 11.1329 30.3706 11.2937L32.8363 12.1866C35.3135 13.0983 36.157 14.1342 37.161 16.3986L37.6882 17.6368C37.9931 18.4219 38.3601 19.1961 38.6025 20.004L39.0747 21.4688C39.3022 22.3879 39.5627 23.2956 39.7082 24.2348L39.8963 25.5585C39.9568 26.0789 39.9699 26.5963 40.0017 27.1173L40.0528 29.4691C40.0527 31.0915 40.011 33.2968 39.5759 34.854C39.2477 36.0284 39.2394 35.9299 39.2388 37.1596L39.2399 39.9464C39.2405 40.0879 39.2579 40.2552 39.2061 40.3881L39.1931 40.4181C39.1295 40.5691 38.9894 40.751 38.8117 40.7609C38.1675 40.7967 37.5014 40.7623 36.8552 40.7624L35.4035 40.7622C34.8572 40.7613 34.2419 40.8208 34.2407 40.1169L34.24 36.6633C34.2397 36.0676 33.8734 35.5312 33.7738 34.8048C33.5588 33.2371 33.6693 31.6657 33.8688 30.1056L33.9648 29.2735C34.1122 28.1006 34.0486 26.9605 33.7514 25.809L33.1869 23.926C33.0692 24.8126 33.0814 25.6875 33.0541 26.579L32.9771 28.8164C32.9684 29.0256 32.9301 29.2296 32.9151 29.4376L32.7308 31.4116C32.5716 32.521 32.3939 33.6372 31.7058 34.5584L31.4139 34.9233C31.2517 35.1158 31.2947 35.1858 31.2942 35.4399L31.2922 36.5234C31.2896 37.6861 30.9744 38.437 30.0342 39.2157ZM19.42 8.51086L19.2029 8.53912C19.1593 8.62354 19.1917 11.0711 19.1912 11.3775C19.2702 11.4753 19.3605 11.5103 19.4585 11.5841C21.6239 13.2147 25.5479 13.1272 27.8781 12.0054C28.8136 11.5551 28.8211 11.6075 28.8228 10.7404L28.8229 9.29306L28.8218 8.53814C28.634 8.5035 28.44 8.50973 28.2496 8.50809C26.9693 8.49694 26.6542 8.99484 25.8972 10.0041L24.7457 11.5838C24.6375 11.7277 24.5646 11.9139 24.4355 12.0384C23.8003 12.6503 23.3284 11.7218 23.0263 11.287L22.29 10.2892C21.7243 9.51145 21.1507 8.50608 20.0555 8.50758L19.42 8.51086ZM18.3792 12.3868L16.3483 13.1378C14.2469 13.8454 13.1902 14.268 12.2309 16.4063C10.1848 20.9675 9.1918 23.9755 9.18632 28.926L9.26005 31.9893C9.30834 32.6902 9.40541 33.3853 9.5384 34.074C9.63768 34.5881 9.81294 35.0456 9.91827 35.5518C9.95005 35.7047 9.94209 35.844 10.0014 35.9924L12.576 35.9771C13.0805 34.697 13.1509 32.7825 13.0205 31.3806L12.776 29.2757C12.5543 27.0213 13.0433 24.781 13.9524 22.7203L14.2562 22.0585C14.4444 21.6614 14.6922 21.1526 15.223 21.3437L15.251 21.3533C15.4175 21.4135 15.5449 21.5659 15.6104 21.7267L15.7863 22.4083C16.1283 23.5692 16.1754 25.6283 16.2305 26.836C16.2396 27.0363 16.282 27.2334 16.2876 27.4337L16.3064 29.1359C16.3426 29.9988 16.4905 31.127 16.6469 31.9692C17.1479 34.6654 18.3096 34.8676 20.6556 35.0915L21.1401 35.1552C21.3735 35.1787 21.6102 35.1722 21.8441 35.1885L25.4983 35.2554C25.6755 35.2482 25.8461 35.2125 26.0212 35.1999L28.0178 35.0121C28.4063 34.9653 28.8353 34.9433 29.2131 34.8393C31.1328 34.3106 31.3924 32.2507 31.5819 30.5597C31.636 30.0767 31.6918 29.584 31.7032 29.0985L31.8928 24.4311L32.084 22.9867L32.2443 22.225C32.316 21.9235 32.3694 21.603 32.649 21.4192C33.4876 20.8676 33.9771 22.5251 34.1853 23.0494C34.3007 23.3402 34.4316 23.6406 34.5093 23.9437L34.7917 24.9068C34.7996 24.9423 34.8099 24.972 34.8218 25.0058L35.0043 25.6895C35.4217 26.9687 35.2729 28.7344 35.1445 30.0405L35.0565 30.7815C34.9749 31.5386 34.9435 32.0507 34.9434 32.8326C34.9433 33.8285 34.9467 35.015 35.385 35.9414C35.5128 36.0235 37.7061 35.9691 38.0096 35.9907C38.1138 35.0842 38.4908 34.2069 38.6116 33.2227L38.8156 30.6446L38.7543 27.0338C38.5699 24.096 37.9785 21.8339 36.9111 19.0657L36.1367 17.227C34.8151 14.2039 34.172 14.0018 31.2164 12.9727L29.6169 12.3622C28.7808 13.1203 27.56 13.5961 26.4585 13.8414C26.1083 13.9194 26.0602 13.8032 26.0431 14.1577L26.0367 18.9458C26.0366 19.0727 26.0534 19.2212 26.0289 19.3443C25.9117 19.9331 24.982 19.953 24.8559 19.3172C24.8314 19.1939 24.8438 19.0488 24.8436 18.923L24.8426 14.541C24.8424 14.4019 24.8556 14.2484 24.8338 14.111L23.5497 14.1196C23.4291 14.116 23.2721 14.1292 23.1569 14.094L23.1553 20.0151C23.1551 20.2853 23.2361 20.7109 23.0808 20.9467L23.0606 20.9785C22.7555 21.4471 22.0027 21.33 21.9592 20.7619C21.9164 20.2004 21.9553 19.607 21.9553 19.042L21.9548 14.5068C21.9536 13.6662 21.9899 13.9612 21.1099 13.7285C20.2221 13.4936 19.3929 13.0967 18.6601 12.5456C18.5595 12.47 18.5097 12.3741 18.3792 12.3868ZM17.9287 35.8613C17.6571 39.2356 21.2879 39.3948 23.7387 39.4227C25.5556 39.4434 28.0101 39.4564 29.3872 38.1058C30.0736 37.3944 30.0831 36.8017 30.0696 35.8734C29.0053 36.2175 28.3761 36.2822 27.2763 36.3874L25.6175 36.5263L22.8078 36.5262L21.1428 36.4412C20.2933 36.3856 18.6522 36.2133 17.9287 35.8613ZM9.98793 37.2224L9.98901 39.5152L12.5041 39.5177L12.4891 37.9043C12.489 37.6922 12.5189 37.4241 12.4789 37.2187L9.98793 37.2224ZM35.4838 37.217C35.457 37.433 35.4718 37.6444 35.4665 37.855L35.4649 39.5351L37.9339 39.5146C38.027 39.4206 37.9896 39.0695 37.9895 38.9485L37.9884 37.2209L35.4838 37.217Z" fill="black"/>
</svg>
