<svg width="48" height="48" viewBox="0 0 48 48" fill="none" xmlns="http://www.w3.org/2000/svg">
<path d="M13.2402 36.9422C11.3228 36.7099 10.1031 35.0309 10.244 33.1528C10.2754 32.7341 10.5784 32.3333 10.74 31.9466C11.355 30.4748 11.7028 28.8489 11.9383 27.2796L12.12 25.8399C12.2142 25.02 12.2837 23.8108 12.1925 22.9795C11.4114 23.3563 10.5355 24.3673 9.99109 25.0837C9.04239 26.3319 9.02706 26.3636 7.75506 25.6118L3.87378 23.2491C3.30893 22.8995 1.73376 22.2347 1.98247 21.4463L1.99079 21.4219C2.07322 21.174 2.24479 20.9428 2.38191 20.7207L6.38701 14.2759C6.7337 13.7386 7.04809 13.1625 7.42019 12.6437C9.34759 9.95626 13.0933 8.55966 16.3144 8.75879C16.5532 8.77351 17.4115 8.83862 17.5195 8.91999L17.5411 8.93696C17.7453 9.09165 17.9182 9.31763 18.1371 9.44565C20.0204 10.5474 22.0254 10.6099 24.1132 10.6082L24.9813 10.6048C25.4087 10.6011 25.8509 10.5562 26.2739 10.4933C27.5422 10.3046 29.053 10.001 30.1127 9.22576C30.2595 9.11841 30.3757 8.95955 30.5337 8.86998C30.7149 8.76727 32.7141 8.48612 32.9382 8.47065C35.5881 8.43394 37.9972 9.49459 39.7688 11.4914C40.2706 12.057 40.6419 12.7246 41.0265 13.3711L45.5678 20.8962C46.1121 21.8072 46.2916 21.9836 45.2394 22.6503L40.0306 25.793C39.1143 26.3512 38.8637 26.0229 38.2232 25.2337C37.5111 24.3563 36.8862 23.4936 35.8667 22.9637L35.8522 24.0823C35.8498 25.3391 36.0126 27.1347 36.2819 28.3828L36.9365 30.9844C37.0227 31.2679 37.1078 31.5909 37.2391 31.856L37.6217 32.704C37.892 33.2456 37.8191 33.9479 37.6825 34.5154C37.3377 35.9474 35.8473 36.8585 34.4589 36.9962C34.0496 37.0367 33.617 37.0094 33.2047 37.0095L14.7193 37.0096C14.2258 37.0095 13.7252 37.0426 13.2402 36.9422ZM33.373 10.0268C32.9911 10.0248 32.102 10.0779 31.7799 10.2927C31.7961 14.0366 28.7791 15.8116 25.3831 16.1907C24.9665 16.2372 24.5396 16.2082 24.1189 16.2489C25.1797 16.676 24.2193 17.8187 24.809 18.3497C25.2602 18.2271 25.3742 17.9318 25.659 17.6297C26.1449 17.1144 27.0062 17.6897 26.914 18.3281L26.9111 18.3526C26.8521 18.7952 25.5346 20.0584 25.102 20.2091L25.0686 20.2213C23.6009 20.7172 22.3232 16.9684 23.9327 16.2548L22.5473 16.0992C19.7982 15.7032 16.5983 14.3746 16.2748 11.25C16.2412 10.9257 16.2453 10.5935 16.2424 10.2677C13.5587 10.063 10.5869 11.1942 8.84448 13.2848C8.5149 13.6803 8.25728 14.1164 7.98236 14.5491L3.71097 21.3609L8.68853 24.4018C9.59036 23.237 10.5211 22.0261 11.9288 21.4502C12.6364 21.1608 13.2389 20.9782 13.5261 21.832L13.5378 21.8633C13.6666 22.2397 13.6651 22.6595 13.6735 23.0508L13.6551 24.8964C13.6397 25.2155 13.5947 25.5307 13.5911 25.8505L13.3735 27.6602C13.1586 29.0573 12.6867 31.2367 12.0716 32.543C11.9576 32.7852 11.7798 33.0538 11.7129 33.3118C11.443 34.3512 12.5211 35.1616 13.426 35.4173C13.5908 35.4638 13.7799 35.4493 13.95 35.4493L33.67 35.4489C33.9429 35.4489 34.2228 35.4607 34.4949 35.441C35.2802 35.384 36.1091 34.7145 36.31 33.9617C36.4829 33.3137 36.126 33.0737 35.8953 32.5073C35.0961 30.5447 34.5821 27.8057 34.429 25.6758L34.3579 24.3399C34.3355 23.7801 34.2962 21.6536 34.8511 21.3144C35.7991 20.7348 37.7957 22.5087 38.3559 23.1457L39.1622 24.1444C39.3405 24.3622 39.3085 24.4342 39.538 24.3068L44.1775 21.5305C43.8096 20.788 43.3314 20.0745 42.9019 19.3653L39.655 13.9831C39.2997 13.4089 38.965 12.8319 38.5 12.3365C37.1535 10.9019 35.344 10.032 33.373 10.0268ZM30.2704 10.8633C28.1465 12.0205 25.6051 12.3068 23.2204 12.1824L22.3213 12.101C20.9471 11.9762 19.5182 11.7549 18.2603 11.1541L17.732 10.8699C17.8142 11.5367 17.9938 12.2049 18.4627 12.7126C19.1888 13.4612 19.9255 13.8586 20.9301 14.1805C24.2176 15.2341 29.4584 14.9708 30.3246 10.8761L30.2704 10.8633Z" fill="black"/>
<path d="M25.5519 23.7619C25.3079 24.0717 25.0531 24.4852 24.6814 24.6491C23.9679 24.9638 23.3767 24.3061 23.1171 23.6938C22.8226 22.999 22.5355 21.4913 23.4423 21.1198C24.437 21.0252 24.367 22.169 24.4932 22.7333L24.5334 22.9133C24.7927 22.6778 24.9901 22.1838 25.3013 22.036L25.4017 21.9913C25.6831 21.88 26.0479 22.0898 26.1412 22.3661L26.1579 22.4178C26.3618 22.956 25.8486 23.3444 25.5692 23.7372L25.5519 23.7619Z" fill="black"/>
<path d="M25.8254 28.2348C24.9645 29.4161 24.1188 29.8497 23.2392 28.2706C22.8551 27.5811 22.1577 25.8096 23.3359 25.5254C24.1817 25.594 24.1076 26.3878 24.2914 27.0215C24.4022 27.0192 24.605 26.9976 24.7006 27.0477C25.0517 27.2318 25.1188 26.3275 25.7298 26.184C26.0799 26.1018 26.4815 26.3507 26.5358 26.7135L26.5397 26.7422C26.6142 27.2457 26.1043 27.8474 25.8254 28.2348Z" fill="black"/>
</svg>
