<svg width="48" height="48" viewBox="0 0 48 48" fill="none" xmlns="http://www.w3.org/2000/svg">
<path d="M19.5916 42.1508C19.4708 41.8145 19.4048 41.4381 19.3042 41.0927C18.3097 37.6761 16.5097 35.3136 12.8175 35.2224C12.6898 35.2192 12.5147 35.23 12.3983 35.1721L12.375 35.1599C11.8608 34.9099 11.8858 34.2737 11.8827 33.7807C11.8706 31.8404 12.7983 30.1467 13.555 28.4179C12.8999 27.6548 12.6238 26.4107 12.9888 25.4711C13.0834 25.2275 13.231 25.0051 13.327 24.7614C14.5864 21.5619 14.4971 17.9426 13.1262 14.7828L11.625 15.4243C10.89 15.7977 10.2339 16.6293 9.63707 16.7907L9.59765 16.8011C8.42732 17.1199 7.67413 16.3766 6.95296 15.6206C5.49796 14.0955 4.03775 12.4712 4.03128 10.2477C4.02618 8.50163 4.7961 8.00214 6.06215 7.10284L11.1687 3.52576C12.6982 2.57789 13.8403 2.38367 15.5508 2.1459L18.1055 1.77913C18.5986 1.69707 19.0233 1.58836 19.2949 2.12049L19.3124 2.15668C19.3569 2.24479 19.3784 2.34414 19.3951 2.44131L19.4063 2.50824C19.7403 4.13782 21.5582 5.09631 23.082 5.24584C23.5353 5.29032 24.638 5.31957 25.0693 5.21439L25.8164 5.06073C26.9533 4.77582 28.192 3.95841 28.4643 2.75694C28.5816 2.23974 28.4822 1.92069 29.0735 1.68955C29.3558 1.68046 29.6172 1.73079 29.8945 1.77306L33.183 2.23654C35.5946 2.63086 36.4446 3.18168 38.3269 4.56371L40.5039 6.13628C41.3846 6.76323 42.3193 7.33013 43.1706 7.99698C43.5394 8.28587 43.7222 8.69678 43.8762 9.12934L43.9008 9.18507C44.0677 9.61848 44.0385 10.1657 43.984 10.6139C43.7591 12.4637 42.6485 14.155 41.4262 15.5071C40.9575 16.0255 40.4633 16.5684 39.7803 16.7987L39.7383 16.8127C38.6739 17.1777 38.128 16.7663 37.4355 16.1201C36.7594 15.4892 35.701 15.2792 34.8543 14.9846C33.6094 17.4882 33.432 20.5122 34.2185 23.1918L34.4151 23.9008C34.6012 24.4971 34.8407 25.0704 35.0638 25.6528C35.4169 26.5747 35.188 27.9173 34.494 28.6285L34.4783 28.6444C34.9595 29.461 35.3898 30.2244 35.6579 31.1397C35.7802 31.5574 35.8171 32.0274 35.9214 32.4031C36.0213 32.7633 35.9735 33.2144 35.9739 33.5866C35.9744 34.0961 36.0382 34.9557 35.453 35.1799L35.4258 35.1897C35.2291 35.263 34.9806 35.2225 34.7695 35.2499C33.7407 35.3832 32.6395 35.5254 31.7746 36.1431C29.9176 37.4694 28.6648 40.3802 28.4104 42.6502C28.3843 42.8829 28.3899 43.1283 28.3511 43.357C28.0265 45.2672 26.4745 46.4809 24.5898 46.4833L23.6299 46.4832C23.352 46.4828 22.9972 46.5218 22.7296 46.4564C20.8575 45.9989 20.22 44.9942 19.8494 43.2804L19.5916 42.1508ZM30.6605 3.29105L30.6592 4.36839C30.653 6.3092 29.5449 8.32557 27.9292 9.38204C23.9511 11.9833 18.7397 10.0432 17.6444 5.25043C17.4788 4.52589 17.4583 4.07721 17.4636 3.34036C17.3707 3.31938 17.2483 3.34473 17.153 3.35204L16.3711 3.4491C14.7737 3.66493 13.2998 3.84755 11.8964 4.72665L6.19607 8.68885C5.2799 9.31084 5.2859 9.96193 5.52618 11.039C5.84235 12.4559 7.2517 13.8654 8.23363 14.8538C9.04471 15.6702 8.99559 15.7341 9.75993 15.0105C10.4941 14.3154 11.854 13.7507 12.8231 13.4183C13.7127 13.1132 13.8435 13.3673 14.2508 14.1567C14.5484 14.7333 14.8079 15.3413 14.9989 15.9614L15.2256 16.8431C15.4828 17.8486 15.5772 19.2494 15.5347 20.2634L15.4729 20.9939C15.3675 22.5428 15.1549 23.523 14.6815 24.9984L14.2564 25.9978C14.1302 26.4271 14.4352 27.4864 14.7963 27.7541C15.6854 28.4134 16.6112 28.5159 17.6526 28.5163L25.1874 28.5137C25.622 28.5152 26.0386 28.5868 26.4675 28.603L29.0664 28.6103C30.5086 28.6075 32.6908 28.6158 33.5824 27.334C34.1124 26.5719 33.7595 25.9181 33.4775 25.1653L33.126 24.1009C32.5369 22.2618 32.1832 19.7566 32.5881 17.8348L32.7082 17.1597C32.8564 16.4797 33.7386 13.2974 34.7461 13.4656C35.678 13.6211 37.2 14.1382 37.9364 14.6743C38.2577 14.9082 38.4995 15.2312 38.8242 15.4494L38.8591 15.4755C39.217 15.6752 39.6686 15.2651 39.8844 15.0321L40.3719 14.4731C41.2651 13.3894 43.2361 10.8643 42.4724 9.32903C42.2806 8.94334 41.9327 8.76995 41.5898 8.53337L37.8843 5.92689C35.6883 4.39118 35.0652 3.9028 32.2488 3.52537L30.6605 3.29105ZM29.2442 4.57292C28.9523 4.82199 28.701 5.11473 28.4068 5.36392C26.9098 6.63123 24.8563 6.87517 22.9686 6.7217C21.6877 6.61754 19.8684 5.83206 19.0142 4.84084C19.166 5.45382 19.4151 6.02195 19.7166 6.57545C20.3607 7.65198 21.3929 8.49821 22.6162 8.8246L23.2383 8.95881C23.471 9.01206 23.7092 9.01262 23.9467 9.01651C26.4666 9.05753 28.6443 7.47634 29.1751 4.96942L29.2442 4.57292ZM14.53 29.309C13.9786 30.5604 13.118 32.3386 13.1223 33.7411C16.1205 34.0385 18.178 35.3433 19.5213 38.0007L20.0831 39.2696C20.3918 39.9668 20.5098 40.6888 20.7576 41.3974L20.8458 41.7441C20.8829 41.8561 20.8928 41.9694 20.92 42.0825L21.1415 43.0082C21.196 43.2252 21.2265 43.4329 21.3164 43.6409L21.362 43.7573C21.6111 44.3834 22.2492 44.7834 22.8606 44.9879C23.1532 45.0857 24.9614 45.0822 25.3477 44.9447L25.4069 44.9274C26.6848 44.5544 26.9397 43.7289 27.0845 42.588L27.2247 41.7601C27.7178 39.27 28.8898 36.616 30.942 35.0347C31.9385 34.3124 32.9152 34.0427 34.1171 33.8651C34.2819 33.8407 34.4493 33.846 34.6131 33.8156C34.612 32.3017 34.3505 31.4531 33.6472 30.0673L33.3614 29.5352C33.3283 29.4745 33.29 29.374 33.2442 29.3242L33.2122 29.2956C32.2544 29.6775 30.3192 29.9051 29.3062 29.9702L28.3242 29.994C28.1215 30.0036 27.9249 30.0383 27.7196 30.0414L26.3768 30.0465C26.146 30.047 25.9078 30.036 25.6781 30.0558L25.7104 30.0838C25.741 30.1112 25.7579 30.1356 25.7776 30.1712C26.0948 30.7435 26.8544 31.1782 27.1477 31.7556L27.1586 31.7768C27.223 31.9072 27.2186 32.1178 27.1686 32.2551C26.8457 33.1426 25.7954 32.4264 25.3644 32.0231C24.7891 31.4847 24.3585 30.8378 23.8392 30.2564L23.1165 31.7394C23.0571 31.8702 23.0018 32.0487 22.9102 32.1589C22.5686 32.5696 21.8531 32.4724 21.71 31.9223C21.584 31.4375 22.1395 30.4368 22.3677 30.0002C21.8139 29.9622 21.2501 29.9831 20.695 29.983L17.8156 29.9829C16.6938 29.9828 15.7409 29.9942 14.7373 29.4051C14.6789 29.3709 14.5952 29.3063 14.53 29.309Z" fill="black"/>
</svg>
