<svg width="48" height="48" viewBox="0 0 48 48" fill="none" xmlns="http://www.w3.org/2000/svg">
<path d="M16.3029 46.0095L14.9333 45.414C14.4582 45.2199 13.9692 45.0485 13.5289 44.7802C11.1133 43.3082 10.3254 40.0901 10.7719 37.4382L11.2751 34.5355L12.8705 26.4027C13.2065 24.786 13.3678 23.4123 12.9646 21.7764C12.9052 21.7292 12.7651 21.7259 12.6882 21.7138L8.42276 21.195C6.0536 20.9542 6.6754 19.2455 6.83248 17.5917L7.56743 9.8208C7.63287 9.11955 7.65631 8.3913 7.8191 7.70449C8.36201 5.41431 10.1442 3.35198 12.4104 2.63335C12.9361 2.46666 13.4931 2.38931 14.0275 2.25056L18.1099 1.22295C18.2184 1.19845 18.3526 1.15814 18.4622 1.18737L18.4923 1.19618C19.0293 1.33444 18.9709 1.71139 19.1346 2.135C19.624 3.4011 21.0006 4.33168 22.2593 4.67379C24.5709 5.3021 27.5566 4.55735 28.755 2.36176C29.0211 1.87423 28.9861 1.30534 29.6267 1.15241C29.8183 1.13997 30.0174 1.24229 30.2004 1.29116L35.9474 2.94121C37.7068 3.516 39.7104 5.28241 40.1123 7.16364L40.2296 7.64346C40.3073 7.92189 40.3067 8.19963 40.3387 8.48472L40.8761 14.6371L41.2967 18.7083C41.4199 19.7179 41.4895 20.7352 40.2423 21.1135C39.9134 21.2133 39.5509 21.2406 39.2105 21.2753L35.8126 21.7575C35.5699 21.7878 35.3343 21.8331 35.0883 21.8313L35.0403 21.8305C34.7568 23.1583 34.7013 24.2839 34.969 25.6058L36.521 33.4229C36.5389 33.5153 36.5425 33.6124 36.5632 33.7035L37.1767 36.8921C37.6439 39.4834 37.2949 42.3154 35.0629 44.0176C34.7412 44.2628 34.3942 44.4553 34.0457 44.6587L33.0118 45.2572C32.2554 45.6793 31.5259 46.1665 30.6984 46.4401C29.4735 46.8452 27.9389 46.8866 26.69 46.5424C26.2903 46.4322 25.9053 46.2658 25.5005 46.1762C23.9404 45.8308 23.0092 46.1279 21.5153 46.5414C19.7848 47.0202 17.915 46.7467 16.3029 46.0095ZM17.4084 2.77769C16.5423 2.93717 15.6877 3.20381 14.8324 3.41335L13.617 3.71116C13.2123 3.80765 12.8087 3.89416 12.4187 4.04365C10.9705 4.59874 9.45106 6.35613 9.08862 7.88777C8.93843 8.52241 8.92924 9.18466 8.85706 9.83041L8.02123 18.3213C7.97346 18.7905 7.89762 19.2983 7.92692 19.7699C8.31987 19.855 8.78618 19.9512 9.19034 19.9681L12.8039 20.3973L12.0436 13.4271C11.9835 13.006 12.0189 12.5402 12.0189 12.1139C12.019 10.6332 12.0259 9.07319 12.9696 7.84127C13.6469 6.95711 14.6683 6.43085 15.7621 6.29725L17.2562 6.11842C17.1782 5.34081 17.1636 4.44862 17.3058 3.673L17.4646 2.80113L17.4084 2.77769ZM30.5414 2.75758L30.6915 3.71843C30.8125 4.4664 30.8547 5.36617 30.7509 6.11013C31.4629 6.23946 32.191 6.22474 32.8987 6.41013C34.0408 6.70928 35.0984 7.58153 35.5551 8.68394C35.9569 9.65388 35.9762 10.7543 35.9778 11.7899L35.9679 13.1985L35.1867 20.4809C35.2812 20.4988 35.4065 20.4635 35.5027 20.4507L38.7603 19.9981L39.3953 19.9252C40.2323 19.8326 40.1118 19.7172 40.0399 19.0082L39.1173 9.34019C39.0499 8.64836 39.0234 8.00121 38.7951 7.33535C37.9659 4.91589 36.1321 4.363 34.0014 3.73074L30.5414 2.75758ZM18.6018 3.71662C18.3635 4.57609 18.4419 6.31727 18.6957 7.09722L18.8544 7.69811C18.9178 7.94116 19.0294 8.18149 19.1224 8.41441C20.9063 12.8853 26.2672 13.1974 28.6068 8.98717L28.6621 8.8833C29.3636 7.54033 29.759 5.30205 29.3956 3.77449C28.3235 4.95916 27.5074 5.58264 25.8625 5.97269C23.3668 6.56444 20.1202 5.94053 18.6018 3.71662ZM17.3143 7.41457L16.3054 7.56635C14.7333 7.78028 13.8122 8.25967 13.4261 9.99475C13.192 11.0464 13.3164 12.9298 13.3887 14.0043L14.1169 20.4471C14.1379 20.6763 14.1461 20.9134 14.179 21.141L14.3914 22.4769C14.6519 24.2146 14.2698 25.7614 13.9713 27.4691L12.6058 34.5034C14.2889 34.6996 15.9345 35.1547 17.0314 36.5644C17.0832 36.631 17.1221 36.697 17.157 36.7738L17.1687 36.7957C17.4314 37.2949 16.8404 38.2226 16.1194 37.4358L15.7117 37.0314C14.7751 36.1802 13.5475 35.9332 12.3316 35.8038C12.1194 37.4976 11.6533 39.27 12.2259 40.9394L12.3798 41.4081C12.96 43.3017 14.8195 43.957 16.4444 44.6354C17.1185 44.9168 17.7821 45.2753 18.5157 45.3736C20.3507 45.6194 20.9149 45.2439 22.5784 44.8529C23.6867 44.5925 24.9866 44.6452 26.0701 44.9776C27.46 45.4041 28.6559 45.724 30.1423 45.2326L30.3217 45.1745C30.5675 45.1041 30.8097 44.9763 31.036 44.858L33.8511 43.2409C35.5434 42.2431 36.2394 40.2701 36.087 38.387C36.0167 37.5178 35.8149 36.6475 35.6702 35.7878L34.8035 35.9213C33.7579 36.1065 32.71 36.5365 31.9829 37.3356C31.6324 37.7208 31.108 38.0722 30.82 37.3363L30.8058 37.3009C30.7619 37.1846 30.7484 37.0015 30.7999 36.8846L30.8239 36.8343C31.5867 35.3045 33.8771 34.6219 35.4436 34.4935L33.6458 25.4152C33.4944 24.3322 33.4575 23.5931 33.6253 22.5003L34.6859 13.4558C34.7475 12.5745 34.7547 10.4054 34.4788 9.52839C33.9608 7.88191 32.6862 7.63783 31.1898 7.49266C30.9993 7.47414 30.7648 7.4733 30.5841 7.4073C30.4676 7.83921 30.3469 8.28236 30.1753 8.69589C28.7125 12.222 25.0464 14.4937 21.3234 12.6678C19.597 11.821 18.3365 10.1944 17.7263 8.39172L17.4493 7.40969C17.4014 7.40421 17.362 7.40777 17.3143 7.41457Z" fill="black"/>
</svg>
