<svg width="48" height="48" viewBox="0 0 48 48" fill="none" xmlns="http://www.w3.org/2000/svg">
<path d="M17.982 38.7456C16.5817 37.6173 14.6343 36.3914 12.8957 36.0209C12.5925 35.9562 12.2485 36.0091 11.9813 35.8352C10.6823 34.9899 11.1856 32.9745 11.7322 31.8339L12.0531 31.2234C12.0852 31.1685 12.2534 30.9705 12.2105 30.9223L12.1262 30.827C11.0756 29.6283 11.8888 27.3808 12.2504 26.0843C12.4719 25.2902 12.8438 23.0963 12.665 22.3357L12.6591 22.3123C12.6209 22.1431 12.5302 21.953 12.3514 21.9013L12.3165 21.892C11.9348 21.7874 11.513 21.7689 11.1211 21.7066C8.87011 21.349 6.09951 20.4754 5.04595 18.2682C4.4569 17.0341 4.5371 15.4854 5.88698 14.825C6.0757 14.7327 6.29236 14.6709 6.49073 14.6002L7.12078 14.3434C8.34337 13.803 9.42122 13.0417 10.3793 12.1121C10.7445 11.7579 11.0881 11.3784 11.4742 11.0465C12.9243 9.79975 14.8124 9.10239 16.7344 9.29964C17.4562 9.37375 18.1727 8.10217 19.4063 8.5247L19.4822 8.55034C20.3899 8.88058 20.2906 9.95505 20.6614 10.7113L20.7542 10.8934C22.4888 13.7651 26.7833 13.1628 27.5582 10.0926C27.7662 9.26819 27.8955 8.50614 28.9742 8.45111C29.6997 8.39444 30.5069 8.95862 31.0617 9.36147L31.081 9.35758C33.0202 8.99903 35.0535 9.78977 36.5154 11.0448C36.8459 11.3285 37.1403 11.6463 37.453 11.9484C38.5791 13.0359 39.7713 13.9285 41.2383 14.4975C42.4724 14.9761 42.7959 14.9521 43.2299 16.2376L43.2637 16.3428C43.3305 16.6029 43.3058 17.0304 43.2726 17.2976C42.9445 19.9378 39.4921 21.1796 37.2856 21.6238L36.2649 21.8084C35.174 21.9845 35.2017 22.085 35.3055 23.2751C35.3684 23.9961 35.4978 25.3667 35.7333 26.0592L36.2076 27.6721C36.3054 28.0037 36.304 28.3557 36.3515 28.6939L36.3656 28.8005C36.4303 29.4892 36.3027 30.3662 35.8358 30.9072L35.8226 30.922C35.8609 31.1007 36.0236 31.2979 36.1063 31.4622L36.2929 31.8459C36.4449 32.2426 36.657 32.6544 36.7382 33.0736C36.9041 33.9288 37.0115 35.1004 36.2278 35.6962C35.8736 35.9655 35.7675 35.8872 35.3592 35.9377C34.266 36.0731 32.685 36.9659 31.7606 37.5739L30.3672 38.5391C29.6205 39.0726 28.054 40.3668 27.0755 40.2286L27.0352 40.2223C26.6019 40.1581 26.5051 39.8958 26.2268 39.5997C24.957 38.2489 23.0479 38.2662 21.7741 39.6226C21.5278 39.8849 21.379 40.1807 20.9816 40.2231L20.9415 40.2271C20.101 40.3197 19.1603 39.6047 18.53 39.1391L17.982 38.7456ZM29.1102 9.96414C29.0409 10.2499 28.9853 10.5381 28.89 10.8171C27.9304 13.6254 24.8102 14.8791 22.1068 13.9138C20.3702 13.2937 19.2531 11.7483 18.8889 9.9873C18.5598 10.1062 18.2313 10.2793 17.9544 10.4936L18.0483 10.8514C18.1386 11.1272 18.2258 11.3944 18.3481 11.6594L18.3604 11.6891C20.4984 16.6602 27.8846 16.5829 29.7795 11.4603C29.8702 11.2152 29.9664 10.9525 30.0082 10.6945L30.0285 10.4091C29.7434 10.225 29.4285 10.0808 29.1102 9.96414ZM31.5405 10.766C31.3551 11.2739 31.2602 11.8047 31.0532 12.3066C29.5668 15.9099 25.4618 17.6046 21.8129 16.5564C19.4254 15.8706 17.4767 13.9417 16.7469 11.5754L16.5362 10.7838C14.9336 10.7337 13.5337 11.1772 12.3359 12.305L11.2477 13.3834C10.1955 14.3722 9.07523 15.0993 7.76648 15.7067L7.17905 15.9521C6.76884 16.1034 6.39844 16.0603 6.23105 16.5233L6.21881 16.5538C6.16406 16.6928 6.15483 16.8644 6.17311 17.0114L6.1778 17.0515C6.42567 19.0542 9.79298 20.0324 11.4068 20.2457C11.8753 20.3076 12.4013 20.3065 12.843 20.4845C14.3883 21.1071 14.2464 22.7315 14.103 24.0886L13.969 24.9959C13.8344 25.8972 13.61 26.7134 13.3314 27.5807C13.1618 28.229 12.9466 29.1169 13.1702 29.7751C13.7043 29.5433 14.0368 29.4544 14.6111 29.4532L33.8775 29.454C34.2198 29.4597 34.5377 29.5979 34.8467 29.7354C35.0535 28.4675 34.5643 27.4062 34.2649 26.203C34.0394 25.2967 33.9188 24.366 33.8527 23.4366C33.7773 22.3777 33.7508 21.4222 34.7155 20.723C35.2923 20.305 36.0027 20.3342 36.6785 20.2289C38.3809 19.9636 41.1793 19.1463 41.7645 17.2498L41.7784 17.2063C41.8278 17.047 41.8433 16.8758 41.8179 16.7108L41.8139 16.6835C41.71 16.0262 41.1616 16.0577 40.595 15.8437C39.2296 15.3279 38.0233 14.5729 36.9633 13.5698L35.8146 12.4037C34.5749 11.2367 33.2064 10.744 31.5405 10.766ZM33.3384 30.9991L33.1641 31.0127C33.1111 31.161 33.3126 31.5502 33.3633 31.6865C33.6692 32.5075 34.1584 33.0739 34.8133 33.6408L35.2945 34.0248L35.4288 34.0545C35.3316 33.395 34.6314 31.4254 34.1085 31.0132L33.3384 30.9991ZM14.1218 31.0172C13.99 31.0297 13.9212 31.0112 13.83 31.1177C13.5003 31.5028 11.794 35.026 13.0044 33.8973C13.8541 33.0711 14.4608 32.1939 14.7641 31.0234L14.1218 31.0172ZM16.3047 31.0127C16.1454 31.6715 15.9292 32.299 15.6215 32.8975C16.0769 33.0862 16.5508 33.2285 16.9986 33.4361C18.0963 33.9452 19.1551 34.6151 20.1175 35.3457L22.4001 37.2319C22.6002 37.3931 22.5892 37.3759 22.8462 37.274L22.869 37.2646C23.5281 36.9955 24.4094 37.0848 25.0853 37.2445C25.8151 37.417 25.3775 37.4068 26.0535 36.835C26.9238 36.0988 27.819 35.3611 28.7706 34.7316C29.8984 34.0092 31.0622 33.3274 32.3656 32.9742C32.0772 32.4802 31.8244 31.8955 31.7021 31.3315C31.6808 31.2332 31.6788 31.0903 31.6217 31.0092L16.3047 31.0127ZM14.7174 34.2567L14.6887 34.2906C14.5332 34.4719 14.3477 34.6525 14.1589 34.7996L14.7717 35.0272C15.8442 35.452 16.7788 36.0672 17.7251 36.7191L18.2628 37.0948C18.561 37.3138 20.3381 38.6931 20.6168 38.6365C20.819 38.5038 20.9943 38.3354 21.1734 38.174C19.9648 36.9949 16.4832 34.3619 14.7174 34.2567ZM33.2264 34.3431C31.0653 34.7188 29.0525 36.2153 27.4441 37.6511C27.2451 37.8288 27.0166 37.9971 26.8296 38.1842L27.4255 38.6649C27.4577 38.6574 27.4811 38.6514 27.511 38.6365L31.5055 35.9726C32.2785 35.4974 33.0416 35.085 33.9102 34.8085C33.7359 34.6362 33.5633 34.4631 33.3516 34.3367L33.2264 34.3431Z" fill="black"/>
</svg>
