<svg width="48" height="48" viewBox="0 0 48 48" fill="none" xmlns="http://www.w3.org/2000/svg">
<path d="M31.7659 41.353L28.7217 42.0651C28.1705 42.192 27.5228 42.4657 26.9504 42.3874L26.7192 42.3505C25.5754 42.0794 25.3961 41.1333 25.2079 40.1606L24.9614 38.953C24.9092 38.6417 24.8579 38.1901 24.6807 37.9273C24.3143 37.384 23.4993 37.4524 23.2426 38.0718C23.1577 38.2766 23.1487 38.4813 23.1096 38.6958L22.9433 39.5161C22.6907 40.7798 22.417 42.6395 20.6538 42.3625C20.1034 42.2759 19.5498 42.1298 19.0058 42.0077L13.064 40.6305C12.5788 40.5212 12.0644 40.4657 11.5964 40.2955C10.2852 39.8188 10.0699 38.7329 10.2209 37.5093L10.9445 33.3959L12.1459 28.6645L12.6187 27.3048C12.7197 27.0515 12.8439 26.8009 12.9302 26.5429C13.0106 26.3027 13.0122 26.0292 13.0733 25.7817C13.2116 25.2221 13.3967 24.6961 13.487 24.1212L13.7099 22.1657C13.7335 21.9079 13.7792 21.6542 13.7938 21.3949L13.8609 19.616L13.8089 17.9408C13.7972 17.6991 13.8038 17.4567 13.7807 17.2153L13.7192 16.7817C13.6389 15.9512 13.5758 15.1149 13.4375 14.2903C13.1883 14.6947 12.9923 15.1353 12.7881 15.5635L12.052 17.1355C11.8412 17.6067 11.6625 18.3158 10.8822 17.9374C10.4647 17.735 10.0683 17.46 9.65944 17.2365L6.21207 15.2615C5.91108 15.0667 5.6866 14.7713 5.75288 14.3876L5.75902 14.356C5.79441 14.1685 5.9394 13.964 6.02354 13.7887L8.42101 8.79916C8.68351 8.26305 8.91198 7.69914 9.21108 7.18333C10.0663 5.7085 11.4867 5.10016 13.1115 5.09627L14.3033 5.09463L17.0483 5.09261C18.4201 5.09219 18.5822 4.76313 19.2592 6.00283C20.2621 7.83963 22.5668 9.13642 24.6598 8.76869L25.7559 8.53534C27.2187 8.07058 28.2323 7.03117 28.9148 5.70475C29.0406 5.46034 29.1981 5.24055 29.4732 5.1542L29.5042 5.14469C29.5948 5.1138 29.6734 5.1033 29.7687 5.09983L34.9591 5.09486C35.5386 5.09659 36.0914 5.13423 36.6412 5.34827C37.7813 5.79213 38.6301 6.67605 39.1057 7.79331L42.2264 14.2572C42.5282 14.9989 41.641 15.3902 41.1355 15.6685L37.7415 17.5927C36.7333 18.1319 36.475 18.3428 35.9107 17.0625L35.4343 15.9993C35.1632 15.3956 34.8347 14.8144 34.6069 14.1916C34.4604 14.7022 34.43 15.2566 34.3632 15.7824C34.0472 18.2666 34.0666 21.3827 34.4952 23.8902L34.6508 24.674C34.6888 24.8717 34.7191 25.0868 34.782 25.2778C34.8769 25.5667 35.058 25.757 35.008 26.0778L34.9419 26.0161C35.0232 26.5372 35.2783 27.0047 35.4667 27.4915C35.7294 28.1704 35.8575 28.8918 36.1091 29.5711L36.364 30.4942C36.3837 30.6131 36.4316 30.7232 36.4523 30.8433L37.0148 33.2325L37.8084 37.8272C37.9882 38.7364 37.5272 39.7441 36.683 40.1485C36.2795 40.3418 35.8322 40.4184 35.3977 40.5099L31.7659 41.353ZM13.2692 6.64914L14.3807 11.265C14.4148 11.3845 14.4254 11.5037 14.4496 11.6241L14.6736 12.7153C14.9241 13.8636 15.0947 15.2937 15.1974 16.477L15.2996 18.0356C15.3093 18.2353 15.3427 18.4324 15.3466 18.6333L15.2284 22.0231L14.8024 25.1965L33.2433 25.1929C32.9966 24.1277 32.8132 22.7251 32.7391 21.6099L32.6944 20.342C32.6232 19.7495 32.6204 19.1117 32.6529 18.5169L32.7113 17.8106C32.73 17.4273 32.7147 17.0385 32.7467 16.6565C32.8633 15.2665 33.0872 13.8468 33.3664 12.4806L34.845 6.66902C34.6865 6.6317 34.4828 6.65589 34.3177 6.65524L31.1206 6.65477C30.7955 6.65495 30.4538 6.63447 30.1308 6.66236C30.0471 6.76366 30.0252 6.89116 29.9611 7.00417C28.9049 8.86675 26.861 10.1093 24.7439 10.3134C22.1646 10.5619 19.1681 9.29359 18.0193 6.86036C17.9421 6.69705 17.9739 6.64469 17.7966 6.6512L14.6708 6.65444C14.2086 6.65449 13.7292 6.68078 13.2692 6.64914ZM11.7335 6.92627C10.9102 7.24295 10.4301 8.09955 10.0722 8.84697L7.9298 13.3042C7.79265 13.6037 7.63248 13.9081 7.51309 14.2136L9.49651 15.3872L10.8189 16.1329C11.07 15.6931 11.2697 15.2244 11.4844 14.7661L12.8715 11.9068C12.9431 11.7602 12.9823 11.7486 12.9423 11.5925L11.8614 7.20053C11.8444 7.12694 11.8351 6.95823 11.7871 6.9138L11.7335 6.92627ZM36.3201 6.91019L35.4074 10.3481C35.3172 10.6854 35.0678 11.3416 35.0738 11.6753C35.0739 11.6817 35.7685 13.1406 35.8373 13.313L37.1513 16.1863L38.5208 15.3924L39.9484 14.5579C40.0466 14.5022 40.4798 14.3071 40.5316 14.2391L37.8192 8.61752C37.4698 7.84384 37.1171 7.30272 36.3201 6.91019ZM15.0959 26.71C14.9537 26.7109 14.441 26.6731 14.3469 26.7626C14.013 27.0807 15.3419 27.3822 15.513 27.4395L16.77 27.8451C17.9562 28.1646 19.1885 28.3827 20.4064 28.5346L21.8635 28.6936C22.6634 28.742 23.4798 28.7126 24.2819 28.7125C27.0297 28.7119 29.2149 28.4378 31.9152 27.7021L33.7151 27.031C33.6744 26.9253 33.671 26.815 33.6151 26.7167L15.0959 26.71ZM34.2053 28.4653C31.2512 29.7052 27.905 30.2882 24.7145 30.2524C24.6853 30.3655 24.7024 30.5147 24.7024 30.6324L24.7016 35.613C24.7001 36.1622 24.5836 36.0166 24.9982 36.2372C26.5629 37.0695 26.362 39.0896 26.8512 40.551C26.9714 40.9099 26.9141 40.9049 27.2939 40.8167L35.8217 38.7982C36.3254 38.6031 36.3605 38.4407 36.315 37.943L36.2659 37.3833C36.2569 37.2986 36.2576 37.2034 36.2293 37.1233L28.6645 38.9103C28.3928 38.9809 28.1084 39.1005 27.8325 39.1415C27.4669 39.1958 27.0304 38.9065 26.9553 38.5435C26.7982 37.783 27.763 37.5748 28.2868 37.4436L35.9544 35.593L34.2053 28.4653ZM13.762 28.5122C13.7341 28.5876 13.7083 28.6591 13.6929 28.738L12.0826 35.5067L19.4479 37.307C20.0235 37.437 20.6515 37.4521 20.8433 38.1303L20.8551 38.1684C20.9301 38.509 20.646 38.9288 20.298 38.9775C20.0497 39.0123 19.7967 38.9375 19.5572 38.8822L12.3407 37.1478C12.1712 37.1047 11.9713 37.0252 11.8004 37.0147C11.6626 37.981 11.2996 38.7328 12.4281 38.9136C12.7038 38.961 12.9713 39.0376 13.2434 39.0992L20.4497 40.7395C21.1421 40.91 21.0787 40.9022 21.2591 40.1283C21.5755 38.7711 21.5488 37.178 22.8519 36.3311C22.9335 36.2781 23.0252 36.2106 23.1179 36.1795L23.1915 36.1582C23.4275 36.0918 23.3442 35.8621 23.3442 35.6645L23.3431 30.2581C20.2362 30.2459 17.0776 29.769 14.1659 28.6639C14.0487 28.6195 13.8804 28.5196 13.762 28.5122Z" fill="black"/>
<path d="M25.615 13.8424C24.9408 13.9353 24.7373 14.6489 24.1799 14.7978C23.5097 14.9768 23.1571 14.1415 22.6213 13.9133C22.2205 13.7426 21.5059 13.9458 21.3937 13.3384L21.3898 13.3139C21.2833 12.6942 21.6696 12.4067 22.2138 12.3372L22.2691 12.332C22.9411 12.3166 23.4979 12.6461 23.9792 13.0765C24.5357 12.5574 25.4272 12.0712 26.1906 12.4485L26.2269 12.4668C26.7705 12.7382 26.7833 13.5597 26.2136 13.7995C26.0485 13.869 25.7922 13.8424 25.615 13.8424Z" fill="black"/>
</svg>
