<svg width="48" height="48" viewBox="0 0 48 48" fill="none" xmlns="http://www.w3.org/2000/svg">
<path d="M15.4517 39.8036C13.5153 37.6201 12.9927 35.3369 13.4749 32.4947C13.5828 31.859 13.7035 31.2254 13.9019 30.611C12.3737 30.6153 11.7386 30.1185 12.4927 28.5701C13.4143 26.6779 14.1052 24.583 14.2527 22.471L14.2604 19.1192C14.185 17.8937 13.9855 16.6663 13.676 15.4786C13.5434 15.6007 13.4271 15.7427 13.3017 15.8727L9.46124 19.6844C8.57544 20.5347 8.27071 20.2256 7.28526 19.613L6.10232 18.8853C5.63784 18.607 4.4431 18.1713 4.65352 17.4516L4.6721 17.3905C4.72166 17.2294 4.82193 17.092 4.90227 16.9451L9.79471 8.96643C10.8148 7.28409 11.6691 6.05432 13.7858 5.56616C14.7478 5.34431 16.9678 5.29499 17.9117 5.5874C18.7408 5.84423 19.4311 6.36177 19.8369 7.14027C21.4388 10.2136 25.797 10.7254 27.7589 7.80477C28.0557 7.36302 28.2593 6.87079 28.6284 6.48023C29.3926 5.67177 30.3236 5.44124 31.3787 5.40187C32.0267 5.40398 32.7003 5.36695 33.345 5.41879C34.9086 5.54451 36.5037 6.43106 37.4254 7.71023C37.7756 8.19618 38.0635 8.72348 38.3714 9.23648L43.1481 17.0148C43.2181 17.1354 43.2959 17.261 43.3158 17.401L43.3368 17.5664C43.3687 18.0413 43.0074 18.2069 42.6732 18.4259L40.8867 19.5008C39.9148 20.0757 39.6381 20.6238 38.6847 19.732L34.2434 15.433C33.3887 18.1541 33.4909 22.3927 34.2188 25.1834L34.4804 26.074C34.5385 26.2925 34.6347 26.5007 34.6995 26.717L35.4731 28.6146C35.7137 29.1557 35.9923 29.6342 35.5451 30.1645C35.1961 30.5783 34.6391 30.6135 34.1379 30.6438L34.5091 32.1056C34.7149 32.8094 34.7693 33.943 34.7397 34.6828C34.5832 38.5824 31.2244 42.1193 27.3533 42.5491C25.657 42.7374 24.2868 42.0739 22.4004 42.3818C22.1068 42.4298 21.8146 42.514 21.5212 42.5518C19.4031 42.8249 16.8205 41.2913 15.4517 39.8036ZM15.0406 7.0109C12.9508 7.11604 12.1905 8.06357 11.2188 9.64884L6.55068 17.2776L8.42615 18.4359L13.195 13.6755C13.3487 13.516 13.487 13.3299 13.6641 13.1969L13.691 13.1764C14.0202 12.93 14.571 13.0567 14.7886 13.3979C14.9967 13.7244 15.0257 14.2094 15.1309 14.5799L15.4102 15.8792C15.4941 16.2016 15.5203 16.5542 15.5676 16.8846L15.7024 17.9177L15.8169 21.236C15.8168 21.7329 15.8379 22.2415 15.7946 22.7367L15.3835 25.3037C15.3234 25.6212 15.2122 25.9457 15.1151 26.2544L14.1417 28.7649C14.091 28.8763 14.0122 29.0024 13.9929 29.122L33.4336 29.1133C33.6053 29.1132 33.8078 29.1326 33.9759 29.1021L33.9522 29.0629C33.8399 28.8735 33.7584 28.6345 33.6725 28.4301L33.0005 26.6872C32.6176 25.6057 32.3391 24.4099 32.1869 23.2732L32.07 22.0098C32.0009 21.1631 31.9659 20.282 32.015 19.4322L32.1433 18.105C32.299 16.5805 32.586 15.0208 33.1191 13.5785C33.3517 12.9494 34.0579 12.9077 34.4937 13.3258C34.8333 13.6517 35.1307 14.0329 35.4573 14.3732L38.2645 17.1426C38.696 17.5549 39.1214 18.0126 39.5836 18.3876L41.4274 17.3148L36.913 9.89038C36.6141 9.3936 36.3494 8.84109 35.9545 8.41195C34.7352 7.08707 33.5919 7.00602 31.9747 7.00706C30.3451 7.00804 30.1265 7.02852 29.2125 8.48024C26.819 12.2821 20.8572 12.2531 18.6629 8.3114C18.0185 7.15382 17.6042 7.00766 16.2089 7.00795L15.0406 7.0109ZM15.5438 30.7355C15.4355 30.9358 15.3273 31.3953 15.2972 31.6403C15.5471 31.8097 15.8509 31.9192 16.1238 32.0483C18.4884 33.1676 20.4908 35.4705 21.2035 37.9802C21.4198 38.7418 21.5991 39.4955 21.6281 40.2929L21.65 40.916C22.566 40.7627 23.4718 40.5976 24.4065 40.7062C25.0935 40.786 25.7575 40.9793 26.4561 40.9654C26.4621 39.2223 26.7387 37.7193 27.5802 36.1501C28.5432 34.5172 29.8187 33.2344 31.482 32.3016L32.1485 31.9575C32.3508 31.8637 32.5684 31.7845 32.7634 31.6776L32.4966 30.737L15.5438 30.7355ZM14.967 33.2692C14.7972 34.1108 14.8207 35.4282 15.1318 36.2096L15.4101 36.9224C16.1783 38.5934 17.6365 39.9169 19.3521 40.5736L20.0096 40.8162L20.0667 40.8118C19.9466 37.7883 18.4884 35.1483 15.7734 33.6563C15.5116 33.5124 15.2347 33.4008 14.967 33.2692ZM33.0608 33.3162C31.1714 34.0318 29.4998 35.6444 28.6958 37.4602C28.2911 38.3744 27.9275 39.7742 27.9921 40.7993C28.0333 40.8068 28.051 40.8045 28.0898 40.7887C31.5909 39.5481 33.3709 36.985 33.1157 33.3149L33.0608 33.3162Z" fill="black"/>
<path d="M26.6334 19.4203C26.1825 19.2085 25.7477 19.7964 25.0868 19.7239C23.864 19.5896 24.4228 18.3866 24.336 17.831C24.3194 17.725 23.6672 17.118 23.5364 16.8388L23.4748 16.6952C23.1004 15.5839 24.1418 15.2302 25.0371 15.1308C25.6782 15.0595 25.6412 13.9978 26.6179 13.6919C27.4165 13.6651 27.6444 14.0133 27.9882 14.7071L28.2053 15.1234C28.3745 15.4873 29.4931 15.4407 29.8308 16.2011L29.8434 16.2304C29.918 16.3995 29.8889 16.6606 29.825 16.8293L29.8118 16.8632C29.5502 17.5562 28.7108 17.5837 28.7122 18.1969C28.7164 19.9261 28.0601 20.213 26.6334 19.4203ZM26.7245 15.7924C26.4289 16.2833 26.1124 16.5399 25.582 16.7107L25.6061 16.7423C25.8312 17.0442 25.9654 17.6933 26.0113 17.7489C26.1878 17.7123 26.3758 17.6688 26.5562 17.6697C26.7786 17.6748 26.9446 17.714 27.1489 17.8088C27.234 17.4187 27.4325 17.1045 27.656 16.7785L27.6223 16.7606C27.2288 16.5468 26.923 16.1924 26.7245 15.7924Z" fill="black"/>
<path d="M19.2489 23.1842C18.6159 23.2834 18.3623 22.6666 18.1172 22.2026C18.036 22.0489 17.3937 22.5829 16.863 22.4006C16.44 22.2553 16.2483 21.6427 16.432 21.2586C16.583 20.9432 16.9802 20.8008 17.2851 20.6843C17.017 20.0659 16.5676 19.2239 17.6005 18.8946C18.1702 18.8218 18.5022 19.206 18.706 19.7064L18.7544 19.8162C18.8365 19.9676 18.8308 20.0383 18.9747 19.9671C19.2433 19.8343 19.6401 19.6457 19.9402 19.7361C20.3838 19.8696 20.721 20.3617 20.5581 20.8247C20.4266 21.1983 20.0564 21.3767 19.7269 21.5412L19.928 22.1717C20.0541 22.6922 19.7444 23.0674 19.2489 23.1842Z" fill="black"/>
<path d="M28.3008 27.374C27.6548 27.3911 27.3952 26.8946 27.112 26.3884C26.7309 26.6032 26.333 26.9906 25.8631 26.8003C25.4093 26.6166 25.2687 26.0548 25.4495 25.6277C25.5917 25.292 25.9437 25.0991 26.2636 24.9694L26.1545 24.738C25.8543 24.1508 26.0689 23.609 26.6567 23.3479C27.1801 23.3028 27.5377 23.4673 27.7489 23.9843L27.8897 24.309L28.6582 23.968C29.0494 23.8296 29.478 24.0651 29.6326 24.4408L29.6547 24.4934C29.9185 25.1082 29.2494 25.5456 28.769 25.7471L28.922 26.1826C29.0868 26.7612 28.9011 27.211 28.3008 27.374Z" fill="black"/>
</svg>
