<svg width="48" height="48" viewBox="0 0 48 48" fill="none" xmlns="http://www.w3.org/2000/svg">
<path d="M13.3648 37.5762C13.176 37.5721 12.9876 37.5323 12.8001 37.5096L7.25382 36.7615C6.8139 36.7049 6.29499 36.7408 6.09306 36.2508L6.08106 36.2211C5.95295 35.9316 6.02317 35.5656 6.02265 35.2571L6.02645 33.8037C6.04342 33.4783 6.09338 33.2793 6.09395 32.8986L6.10168 25.1194L6.20781 22.9139C6.23307 22.5204 6.27334 22.1319 6.29349 21.7357L7.08179 14.2562C7.14967 13.7996 7.27323 13.3521 7.37204 12.9018L7.68601 10.8413C7.71071 10.5461 7.65746 10.1412 7.79007 9.87295L7.80484 9.8437C8.19948 9.0367 8.95628 9.5736 9.5506 9.79204L11.4256 10.4064C13.0971 10.9064 14.8146 11.2235 16.5379 11.4742L18.1896 11.7097L20.7868 11.9383C21.9206 12.0265 22.8585 12.0208 23.9984 12.0211L27.2957 12.0037C27.4492 11.9965 27.5881 11.9616 27.7387 11.9498L32.0506 11.4745C33.4904 11.2534 34.9776 11.0481 36.333 10.4869L37.5623 9.93281C38.1196 9.69806 39.0398 9.34199 39.6463 9.26671C40.2051 9.19504 40.4051 9.62104 40.4067 10.0822L40.5004 11.912C40.5366 12.409 40.603 13.1164 40.6881 13.582L40.9216 14.6249C41.0254 15.1622 41.0935 15.8631 41.1613 16.4237L41.8994 23.6886L41.914 24.6044C41.9273 24.8756 41.9688 25.1414 41.9732 25.4138L41.9753 36.1169C41.9727 36.1949 41.9652 36.2693 41.9254 36.3379L41.9099 36.3632C41.6223 36.8411 41.1346 36.7861 40.6362 36.8466L28.6404 38.3625C27.5441 38.4925 26.1748 38.8213 25.5639 37.6026C25.4063 37.2881 25.3757 36.903 25.3211 36.5595L25.1353 35.6007C25.0023 35.029 24.7922 34.4819 24.6235 33.9209L24.2211 32.611C23.9433 31.7164 24.0164 31.4465 23.7136 32.3671L22.4315 36.5976C22.2215 37.3438 22.15 37.9905 21.3431 38.351L21.3045 38.3679C20.6199 38.6765 19.5445 38.3427 18.8319 38.2562L13.3648 37.5762ZM38.9061 10.957C37.9965 11.2028 37.1401 11.6732 36.2576 12.0014C35.1105 12.4279 33.3524 12.7305 32.14 12.8687C32.0664 13.3966 32.0965 14.9349 32.1336 15.4758L32.5664 15.4295L35.6026 14.9852L38.8592 14.2565C39.015 14.2172 39.1831 14.1868 39.3312 14.1232C39.2454 13.7483 39.2179 13.365 39.1759 12.9839L39.0272 11.6483C39.0043 11.4176 39.0147 11.1801 38.9704 10.9521L38.9061 10.957ZM9.06151 11.0975C8.9867 12.0737 8.82629 13.0569 8.56693 14.0017C8.64221 14.0489 8.7474 14.0656 8.83243 14.0911L9.39826 14.2543C10.4176 14.5448 11.4367 14.8079 12.4803 14.9989L15.3631 15.392L15.7889 15.4412C15.8271 15.1892 15.7972 14.8921 15.7973 14.6358L15.797 12.8125C15.6272 12.7502 15.4348 12.7404 15.2565 12.7103L14.2143 12.5214C12.7138 12.2102 10.471 11.7329 9.06151 11.0975ZM30.703 13.1584L27.3983 13.4237C26.4837 13.5174 25.6559 13.4363 24.7813 13.5147L24.8045 15.832C24.8391 15.8386 24.8699 15.8446 24.9052 15.8454L27.5341 15.8021C28.0841 15.7874 28.6539 15.8061 29.197 15.7054C29.7022 15.6118 30.2541 15.7199 30.7559 15.6001L30.703 13.1584ZM17.2472 13.1616L17.2277 14.7249C17.2278 15.0061 17.199 15.3245 17.2391 15.6014C17.3773 15.646 17.5133 15.643 17.6566 15.6506L18.4472 15.6834C18.7119 15.7 18.97 15.7614 19.2354 15.7757L21.2377 15.8055C21.418 15.8077 21.5945 15.8379 21.7741 15.8428L23.3717 15.8442L23.3664 13.519L17.2472 13.1616ZM8.35013 15.3674L7.91518 19.4937C9.69399 20.1058 12.7121 19.8945 14.2138 18.7651C14.904 18.2453 15.3797 17.6521 15.6557 16.8299L14.5779 16.7065C12.6067 16.482 10.2351 16.0575 8.35013 15.3674ZM39.5374 15.5273L37.3629 16.0689C35.8355 16.4289 33.8108 16.8035 32.2239 16.9044C32.5999 17.7423 33.0655 18.3654 33.7841 18.9243C35.5239 20.0327 37.5449 20.0846 39.5289 19.6537L40.1229 19.4795L39.5374 15.5273ZM17.1436 17.0273C16.8369 18.3477 15.924 19.4667 14.7772 20.1728C12.7486 21.4219 10.0383 21.4767 7.77952 20.915L7.71437 20.8986C7.51426 21.9528 7.5331 23.283 7.45735 24.369L7.40396 32.0918C7.40434 32.4227 7.37748 32.7777 7.41854 33.1043L21.413 35.142L22.3631 32.0541C22.4775 31.6857 22.5549 31.2672 22.7463 30.9313C23.0569 30.3862 23.7227 30.1023 24.3257 30.3205C25.0883 30.5964 25.2204 31.4246 25.428 32.0976L26.4315 35.0641L33.282 34.1413L40.5221 33.1768L40.5093 23.6885L40.4354 22.8318C40.3985 22.1991 40.3707 21.5467 40.2578 20.922C36.7392 21.7073 32.0297 21.2471 30.7839 17.2236C30.7771 17.2015 30.7409 17.0456 30.7323 17.0391C30.6833 17.0016 29.6669 17.1248 29.5278 17.1335L28.5632 17.1771C28.3765 17.1891 28.1931 17.2217 28.0056 17.2279L25.6475 17.2334C25.3692 17.2339 25.083 17.2241 24.806 17.2514L24.8207 24.0529C24.8206 24.2669 24.8459 24.5169 24.8133 24.7274C24.7342 25.2394 23.8535 25.4587 23.5284 24.8437L23.5093 24.8093C23.3926 24.5896 23.439 24.2651 23.4391 24.0218L23.4378 22.9896C23.4352 22.7641 23.3841 22.5433 23.3789 22.3153L23.3721 18.1762C23.3719 17.8731 23.3889 17.5579 23.3639 17.2563L17.1436 17.0273ZM7.4702 34.5585C7.4446 34.8102 7.45506 35.084 7.47535 35.3361L19.8051 36.9829C20.0198 37.0166 20.7624 37.2171 20.8334 37.0128L20.9752 36.5032L7.78515 34.5888C7.69224 34.5777 7.55893 34.5445 7.4702 34.5585ZM40.4024 34.6034L26.7209 36.4328C26.7977 36.6475 26.8439 36.9143 26.9949 37.0898C27.183 37.2029 27.4371 37.0811 27.6416 37.0553L32.0037 36.559L40.5231 35.4293L40.5208 34.5986C40.4822 34.5993 40.4402 34.5964 40.4024 34.6034Z" fill="black"/>
</svg>
