<svg width="48" height="48" viewBox="0 0 48 48" fill="none" xmlns="http://www.w3.org/2000/svg">
<path d="M26.2454 24.2955L25.3473 20.2751C25.1225 19.335 24.8764 18.3958 24.5117 17.4982C23.8862 15.9589 23.5207 17.3375 23.3083 18.0614L22.9714 19.1947L21.2349 26.5541C20.996 27.6089 20.7059 28.6737 20.5426 29.7427L20.1575 33.5613L20.1523 35.6983C20.1562 36.8166 20.6002 38.069 20.3115 39.1452L20.3 39.1869C20.1004 39.9347 19.5904 40.1 19.6021 40.5521L19.5082 43.2345C19.4806 43.722 19.5852 44.3563 19.0975 44.6584L19.0619 44.6799C18.8609 44.8037 18.7344 44.8012 18.4978 44.8021L17.7277 44.8045C17.1474 44.8059 16.5348 44.8474 15.9575 44.7992C15.086 44.7265 15.3342 43.5489 15.3648 43.0232L15.4819 40.7679C15.4902 40.4845 15.5462 40.3744 15.4057 40.1226L15.212 39.7536C14.319 37.9495 14.4346 35.4408 14.4344 33.4768L14.4336 25.4452C14.4332 23.7866 14.1781 22.8342 13.8231 21.2068L12.6388 15.0967C12.1271 12.2812 12.3088 10.3814 13.1062 7.7123C13.3211 6.99281 13.4396 6.58069 13.5661 5.81194L13.7526 4.2299C13.7861 3.74456 13.7293 3.31008 14.2995 3.14332L33.2195 3.13974C33.6097 3.14001 33.8982 3.09987 34.1256 3.48694L34.1472 3.52432C34.2875 3.73074 34.2182 4.14524 34.2359 4.39397L34.3079 5.20875C34.3996 6.04397 34.5218 6.91987 34.7948 7.71736L35.2592 9.41025C35.7587 10.8614 35.6148 13.3848 35.3522 14.8777L34.7126 18.6721L33.75 23.0619C33.5871 23.7943 33.5568 24.3944 33.5565 25.1379L33.5568 35.5177C33.5564 37.0952 33.6101 38.8481 32.6929 40.2118C32.4136 40.6272 32.4587 40.3663 32.4995 40.9092L32.6382 43.2179C32.6869 43.7692 32.8555 44.3782 32.2616 44.7079L32.1244 44.7764C32.0166 44.8158 31.881 44.8026 31.7671 44.8029L29.9411 44.8033C29.4088 44.8023 28.7793 44.8571 28.5742 44.2116L28.5643 44.1791C28.5014 43.9856 28.5142 43.7789 28.4957 43.5779L28.3263 41.4727C28.3122 41.1997 28.3946 40.5145 28.2577 40.3008C27.2842 38.7808 27.7763 37.4516 27.8564 35.7819L27.8591 32.7974C27.8369 32.3258 27.7618 31.8483 27.6902 31.3818L26.2454 24.2955ZM18.5469 4.57329L17.9706 4.5975L21.1051 5.30259C21.3636 5.35308 21.6328 5.36325 21.8952 5.38294L22.376 5.42981L25.8662 5.38964C26.9996 5.33611 28.0682 5.15831 29.1735 4.88283L30.2105 4.5972C29.6893 4.53866 29.1479 4.56928 28.6232 4.56961L18.5469 4.57329ZM15.0686 4.72209C14.9698 5.44326 14.9202 6.20306 14.7383 6.90834C15.1213 7.15969 15.6191 7.30022 16.0543 7.43348C18.1057 8.0618 19.7988 7.97958 21.9254 7.98515C21.961 7.9478 21.9818 7.91639 22.0043 7.87003L22.4359 6.82678C20.512 6.70458 18.1897 6.28472 16.4369 5.42522L15.5006 4.91615C15.4017 4.86117 15.1783 4.70569 15.0686 4.72209ZM32.8591 4.76897C32.2913 5.0468 31.7568 5.38533 31.1757 5.63794C29.5428 6.34758 27.3198 6.76448 25.538 6.79153C25.361 6.7942 25.803 7.81059 25.8767 7.99481L28.0243 7.98197C29.5959 7.9793 30.9828 7.84547 32.4844 7.2809L33.0146 7.05881C33.0796 7.03083 33.1904 7.0005 33.2398 6.95123L33.2347 6.93155C33.0529 6.21108 33.0762 5.4667 32.916 4.75205L32.8591 4.76897ZM23.9277 6.94865C23.7119 7.23014 23.5809 7.62183 23.4324 7.94475L21.635 12.3285C21.2789 13.3398 20.114 13.0295 20.3577 11.9877L20.3662 11.9501C20.4566 11.5703 20.632 11.1907 20.7711 10.8258L21.3312 9.3704L19.2039 9.35667C17.5398 9.29826 15.9183 8.90001 14.3915 8.24634C14.1167 9.02625 13.9476 9.81229 13.7969 10.6229C13.6813 11.2445 13.5887 12.6991 13.7278 13.317L14.4968 17.754C14.6686 17.7995 14.8403 17.8147 15.014 17.8471L16.1497 18.0346C17.9927 18.3315 19.8461 18.4835 21.7093 18.5918C21.9995 17.4297 22.4499 15.6056 23.8244 15.3776C24.1773 15.3765 24.4568 15.4223 24.7551 15.6205L24.7881 15.642C25.3236 16.0019 25.7013 16.7179 25.8962 17.3197L26.0075 17.6465C26.0788 17.832 26.1575 18.353 26.2853 18.4752C26.8099 18.4747 27.349 18.4975 27.872 18.4665L31.3708 18.0911L33.5056 17.7363L34.0728 14.3478C34.3763 12.4474 34.3648 10.098 33.5605 8.33442L32.2576 8.82098C31.4812 9.0742 30.1865 9.33417 29.3424 9.35794C28.3598 9.38559 27.3586 9.30506 26.3801 9.38058C26.4154 9.47883 26.4362 9.58294 26.4766 9.67861L27.1125 11.4252C27.227 11.7242 27.4758 12.1756 27.3478 12.5006C27.1622 12.9718 26.4625 13.1379 26.188 12.6723C26.0489 12.4363 25.9602 12.1654 25.8627 11.9106L24.1913 7.43386C24.1404 7.30415 24.0872 6.94701 23.9277 6.94865ZM14.8031 19.1824C14.8227 19.4983 14.9161 19.823 14.9794 20.1343L15.2932 21.6659C15.3818 22.0727 15.5039 22.4775 15.5679 22.889L15.6888 23.6968C15.7687 24.142 15.7604 24.595 15.762 25.0452L15.7697 36.0119C15.8099 36.812 16.1795 39.4016 16.8565 39.7052C17.4879 39.9884 18.7403 39.3149 18.9988 38.7365C19.1666 38.3613 19.0189 37.6811 18.9617 37.2935C18.9389 37.0549 18.8737 36.8229 18.8581 36.5861C18.8199 36.0047 18.8368 35.4132 18.8367 34.8304L18.8567 32.7533C18.8655 32.5973 18.8992 32.4527 18.914 32.3004L19.0246 31.0395C19.0872 30.4255 19.1363 29.8078 19.2445 29.1988L20.9054 21.9252C21.0579 21.273 21.1802 20.602 21.3718 19.9608C19.1822 19.7737 16.9535 19.6659 14.8031 19.1824ZM33.1115 19.2533C31.7504 19.4993 30.3943 19.6816 29.0153 19.7835L26.6374 19.8711L29.006 31.4216C29.1616 32.1351 29.1692 33.3312 29.1696 34.0529L29.1606 35.6946L29.0128 37.528C28.8637 38.405 28.9909 39.5931 29.9997 39.8701C31.8007 40.3646 32.1046 38.3502 32.1892 37.0547C32.2594 35.9813 32.2269 34.8974 32.2266 33.8212L32.2267 25.361C32.2275 23.6653 32.4196 22.9519 32.7821 21.2807L33.1868 19.2533H33.1115ZM16.787 41.0332L16.686 43.4226L17.7552 43.4255C17.8798 43.4259 18.0654 43.4532 18.1808 43.4153L18.1842 43.3471L18.1976 43.312C18.173 43.1515 18.201 42.9548 18.2053 42.7912L18.2142 42.1105C18.2329 41.757 18.279 41.4105 18.282 41.0554C17.8156 41.1802 17.2455 41.2086 16.787 41.0332ZM29.6749 41.1908C29.6839 41.7352 29.7545 42.2831 29.7849 42.8275C29.7955 43.0177 29.7639 43.233 29.7998 43.418L31.3375 43.4253L31.1657 41.2439L30.7832 41.3061C30.2288 41.3904 29.8389 41.1742 29.6749 41.1908Z" fill="black"/>
</svg>
