<svg width="48" height="48" viewBox="0 0 48 48" fill="none" xmlns="http://www.w3.org/2000/svg">
<path d="M24.5036 42.3803L16.0461 42.3802C15.5026 42.3801 14.9968 42.4592 14.5064 42.1794L14.3625 42.0787C13.891 41.6962 13.8071 41.3122 13.8729 40.7611L15.2669 29.5019L15.3792 27.9574L15.3962 25.0551C15.3433 23.8549 14.9009 23.168 14.6127 22.1463L11.8156 28.9926L9.65882 34.7582C9.40443 35.4796 9.17085 36.2299 8.21929 36.1074L8.1794 36.1016C7.74759 36.0428 7.30926 35.8471 6.89034 35.723L5.09849 35.2334C4.65388 35.1069 4.19758 34.8504 3.97196 34.4284L3.95248 34.3903C3.91086 34.3102 3.8742 34.2319 3.84678 34.1457L3.83503 34.1079C3.66931 33.5914 3.79655 33.1916 3.99875 32.7171L11.859 13.9754C12.4196 12.3466 13.081 11.2156 14.7917 10.4829L15.2953 10.2634C15.4714 10.1819 15.4821 10.1474 15.5902 9.98232C15.8904 9.52402 16.3281 9.40543 16.8204 9.23701C17.89 8.87101 18.2605 8.28061 19.0441 7.52818C20.2407 6.37904 21.8556 5.64497 23.5171 5.54162C25.2479 5.31076 27.464 6.16899 28.7299 7.3209L29.4588 8.05318C30.0203 8.66208 30.4136 8.97886 31.2122 9.24066C31.7597 9.42015 32.2401 9.58458 32.4691 10.1861L33.3435 10.5329C35.2849 11.3629 35.7159 12.8307 36.3924 14.58L43.8396 32.3532C44.5059 33.8638 44.3989 34.8535 42.6085 35.3183L40.1323 36.0397C39.0718 36.3985 38.6457 35.6614 38.3651 34.8403L36.5062 29.8447L33.9647 23.5233C33.7683 23.0609 33.5459 22.6005 33.3901 22.1222L33.3822 22.0972C32.8174 23.8139 32.5461 24.5261 32.5643 26.3274L32.7292 29.5856L34.0327 40.1016C34.1372 41.0587 34.3372 42.1379 32.9538 42.3646C32.6931 42.4073 32.384 42.3795 32.1191 42.3796L24.5036 42.3803ZM23.6796 7.11202C21.6802 7.23385 20.6979 8.06926 19.4198 9.38916L19.0259 9.76322C20.4992 10.633 21.6269 12.0558 22.1726 13.6762L22.5376 14.968C22.799 15.9683 22.6929 16.7354 22.5993 17.7054C22.4962 18.7732 22.8723 20.3308 23.1289 21.3519L23.4461 22.6168C23.4832 22.7853 23.9376 24.6878 23.988 24.7449L24.0699 24.5579C24.4536 22.5655 25.5193 19.7993 25.3755 17.8257C25.3391 17.3249 25.2501 16.8192 25.2636 16.3165C25.326 13.9758 26.6006 11.3406 28.531 10.0162L28.8783 9.79768C27.6423 8.10633 25.8442 6.92143 23.6796 7.11202ZM17.2666 10.7863C15.846 11.3395 19.3307 13.6629 19.6764 13.9106L20.6888 14.6687L20.8929 14.8146C20.5553 13.3762 19.6275 11.9741 18.3681 11.187C18.0788 11.0061 17.6162 10.759 17.2666 10.7863ZM30.6431 10.7881C28.7933 11.1027 27.6197 13.0814 27.1323 14.7351L27.4045 14.5592L28.8905 13.5432C29.5149 13.0951 30.1605 12.6256 30.6414 12.0176C30.8523 11.751 31.3921 10.9023 30.7277 10.7969L30.6431 10.7881ZM15.4702 11.8715C14.6575 12.1969 13.9384 12.8834 13.5938 13.6879L6.30309 31.2986L8.99409 32.0437C9.04171 31.8746 9.11831 31.7135 9.18267 31.5503L13.7996 19.979C13.9945 19.5318 14.2014 18.955 14.8438 19.1626C15.0949 19.2437 15.2235 19.4347 15.3264 19.6645L16.6016 23.2253C16.8871 24.3044 16.9468 25.3552 16.9424 26.4697L16.9372 27.014C16.935 27.1062 16.9183 27.2153 16.943 27.3035C16.9188 27.5406 16.8876 27.772 16.8773 28.0082L16.737 30.2968L15.4305 40.7839L23.943 40.7672C23.6857 39.731 23.6706 38.6493 23.6324 37.5878L23.5383 35.4572C23.5302 35.2381 23.4916 35.0233 23.4785 34.8051L23.3558 31.2999C23.3524 30.6567 23.2664 30.077 23.2639 29.4114L23.2598 27.3779C23.2596 27.2155 23.2904 27.1237 23.1569 27.0045C22.5895 26.4974 22.3776 24.6695 22.2 23.9286L21.7515 22.2543C21.4389 21.0618 21.0929 19.6693 21.0448 18.4271L21.0396 17.5727C21.0417 17.3652 21.0348 17.1519 21.0679 16.9465L17.2332 14.037C16.5632 13.4903 15.9741 12.9079 15.6247 12.0945C15.5797 11.9897 15.5913 11.8616 15.4702 11.8715ZM32.454 11.8701C31.9095 13.1556 31.1539 13.8064 30.0583 14.6255L26.92 16.9476C26.9977 17.674 27.0122 18.8361 26.824 19.5658L25.7921 24.0343C25.6084 24.9541 25.4788 26.0434 25.0057 26.8715C24.7061 27.3961 24.8342 27.5554 24.8395 28.1797L24.846 29.4028C24.8536 29.5871 24.8991 29.7675 24.9047 29.9547L24.9467 32.4262L25.0982 35.1358L25.2296 38.7343C25.2621 39.2629 25.2969 40.6373 25.8137 40.7754C25.9275 40.8059 26.113 40.7819 26.2331 40.782L32.5852 40.7912L31.2149 29.6525C31.1495 28.9334 31.1174 28.4464 31.1159 27.7029L31.1153 26.309L31.1152 25.2051C31.1167 24.9424 31.1106 24.6661 31.1645 24.4083L31.4302 23.1786C31.6923 22.2254 32.055 21.27 32.405 20.3464C32.5953 19.844 32.7551 19.0005 33.4938 19.1466C33.7712 19.2015 33.9543 19.4372 34.0521 19.6879L36.7793 26.3167L38.8405 31.6467C38.9137 31.8156 38.9594 31.9775 39.0438 32.1455L41.7077 31.2901C41.5897 30.9623 41.4323 30.647 41.2933 30.3272L34.828 14.7812C34.2986 13.4522 34.0502 12.405 32.454 11.8701ZM42.2808 32.7309L40.2208 33.4015C40.0052 33.4729 39.7569 33.522 39.5552 33.6206L39.8552 34.4471C39.9027 34.4505 39.9197 34.4521 39.9656 34.4351L42.7391 33.6349L42.2808 32.7309ZM5.64979 32.7543L5.31253 33.621L7.6582 34.3196C7.79343 34.359 8.00428 34.4648 8.13773 34.4653L8.46084 33.5419C8.42938 33.503 7.82123 33.3558 7.72237 33.3281L6.17868 32.8928C6.00904 32.8474 5.82276 32.7736 5.64979 32.7543Z" fill="black"/>
</svg>
