<svg width="48" height="48" viewBox="0 0 48 48" fill="none" xmlns="http://www.w3.org/2000/svg">
<path d="M24.4577 42.0266L24.0868 41.6265C22.6719 43.081 21.8215 43.1016 19.8489 43.1026L16.2541 43.1028C14.125 43.1014 12.1325 41.96 11.5668 39.8001C11.4874 39.4969 11.4669 39.186 11.4 38.881L10.9561 39.111C9.15933 39.9526 6.85589 39.3165 6.04059 37.433C5.86031 37.0165 5.4562 35.4373 5.45428 35.0085L5.34961 33.3292L5.35027 28.4307C5.35866 28.2157 5.40905 28.0065 5.42259 27.7912C5.64741 24.2085 6.25945 20.4827 7.58128 17.1279C8.81217 14.0038 10.549 11.7122 13.8047 10.444L15.6684 9.80206C16.084 9.67953 16.5033 9.58222 16.9022 9.40855L16.8542 9.19428C16.3033 7.48447 18.0863 5.51005 19.7463 5.17503C20.1068 5.10228 20.4659 5.08287 20.8291 5.03633L21.7501 4.95083C21.9107 4.9363 22.0686 4.90236 22.2301 4.89495L23.2507 4.88867L26.3159 4.96395C28.1066 5.08452 30.4005 5.555 31.046 7.5222L31.1252 7.76975C31.2723 8.24206 31.2434 8.9668 31.0569 9.43756L33.4228 10.191C35.8927 10.9957 38.1141 12.6057 39.3746 14.9065L40.605 17.6701C40.8233 18.1244 40.9078 18.6473 41.0777 19.1182L42.0097 23.15C42.0558 23.3015 42.0648 23.4519 42.0894 23.6073L42.5068 26.7353L42.5745 27.869C42.6537 28.6648 42.6578 29.2462 42.6584 30.0476L42.6331 33.5665C42.6236 33.7575 42.573 33.941 42.5621 34.132C42.5408 34.5048 42.5765 34.9085 42.5183 35.275C42.4475 35.7209 42.1541 36.9104 42.0046 37.3093C41.5813 38.4384 40.5204 39.2975 39.3213 39.4515C38.4672 39.5612 37.3152 39.399 36.624 38.8611L36.6015 38.8432C36.5689 39.0441 36.5549 39.251 36.5103 39.4494C36.0231 41.617 34.2799 43.0109 32.0513 43.0975L27.7875 43.1027C26.5206 43.1018 25.576 43.0715 24.5611 42.1253L24.4577 42.0266ZM22.0403 6.26497L21.1937 6.30711C22.6964 8.02316 23.4807 10.295 22.3593 12.4595C22.7792 12.8833 23.2745 13.2867 23.622 13.775C23.6829 13.8605 23.7479 13.9803 23.8323 14.0427C24.8551 12.6285 26.0063 11.7375 27.5361 10.895C27.9673 10.6575 28.4261 10.4831 28.8393 10.2121C31.0021 8.64069 29.2773 6.34344 27.9262 7.01642L27.894 7.03203C26.8658 7.54161 26.9142 8.72422 26.4152 9.43808C25.9836 10.0555 25.0935 9.65811 25.2335 8.91819L25.24 8.88219C25.352 8.29541 25.8242 7.33672 26.145 6.86295C26.2565 6.69823 26.4798 6.50956 26.5542 6.3342C25.9165 6.23816 25.2633 6.26497 24.6203 6.26469L22.0403 6.26497ZM19.5281 6.66819C18.9949 6.97273 18.3691 7.427 18.1878 8.051L18.1322 8.28997C18.1 8.43509 18.0983 8.58434 18.123 8.73069L18.1273 8.75684C18.1499 8.89292 18.1851 9.03664 18.2367 9.16428L18.245 9.18781C18.5925 10.1544 19.7293 10.6795 20.5402 11.1789C21.2863 11.646 21.3487 11.8576 21.517 10.8347C21.7876 9.19086 20.8428 7.64 19.5944 6.65455L19.5281 6.66819ZM17.5353 10.6526L15.0238 11.4306C9.72778 13.2841 8.5432 17.4029 7.41839 22.4284L7.22166 23.4377C7.13306 24.0237 7.05098 24.6059 6.97852 25.1947L6.75295 27.2346C6.68452 28.061 6.64673 28.8863 6.64523 29.7148L6.65109 32.4176C6.65873 32.6704 6.70992 32.9196 6.72136 33.1711C6.75375 33.8833 6.68555 34.6425 6.8452 35.344L7.01423 36.0162C7.07714 36.2843 7.13067 36.5886 7.24125 36.8428C7.97419 38.5266 10.5667 38.4976 11.2955 37.1598L11.2836 33.6715C11.2898 33.4711 11.3276 33.2751 11.3359 33.0756L11.4664 30.5559L11.8002 27.5888C12.0968 25.4136 12.5227 23.2696 13.1517 21.1636L13.4164 20.2675C13.5007 19.979 13.5788 19.5914 13.7912 19.3649C14.3569 18.7619 15.0706 19.4595 14.8366 20.1367L14.1694 22.4125L13.4119 25.7653L12.7468 30.8718C12.6913 31.5133 12.6544 32.1589 12.6312 32.8017L12.6227 37.7366C12.6602 39.639 13.3922 41.4915 15.565 41.7163C15.8334 41.7441 16.1225 41.7254 16.3931 41.7253L21.3203 41.7172C21.518 41.706 21.7897 41.6228 21.9716 41.5534C23.6048 40.9296 23.9674 39.4852 23.968 37.9455L23.9696 24.6846C23.9697 22.6714 24.0138 20.6621 23.8409 18.6551C23.6637 16.5987 23.358 15.1798 21.7301 13.7069C20.6789 12.7558 18.3327 11.6858 17.6306 10.676L17.5353 10.6526ZM30.2627 10.6331C29.625 11.3841 28.8488 11.6968 28.0068 12.1391C26.6192 12.8679 25.3337 13.9283 24.5345 15.2943C24.5701 15.4482 24.6308 15.6041 24.6918 15.7497L24.9732 16.8171C25.0122 16.9653 25.0111 17.1227 25.0326 17.2737L25.2294 19.5088C25.2447 19.7058 25.2777 19.8999 25.2855 20.0977L25.2895 38.0876C25.2891 38.9061 25.2893 39.3338 25.0169 40.1337C24.9545 40.317 24.8545 40.3527 24.9612 40.5268C25.6466 41.6454 26.3721 41.7281 27.5027 41.7278L31.2032 41.7253C32.7094 41.7247 34.0314 41.6351 34.8805 40.0893C35.4207 39.106 35.3212 37.318 35.3722 36.1948L35.2907 31.6348C35.1354 29.2586 34.8109 26.8879 34.3264 24.5555L33.7449 22.1304L33.3514 20.7723C33.229 20.385 32.9367 19.8863 33.1726 19.4859C33.3743 19.1433 33.7974 19.04 34.1203 19.2781C34.2876 19.4014 34.37 19.672 34.4314 19.8635L35.1656 22.3647C35.2162 22.6376 35.2904 22.9249 35.3559 23.1955L35.8696 25.582C36.212 27.4612 36.5058 29.5869 36.6253 31.4949L36.6616 32.9608C36.6689 33.1481 36.712 33.3301 36.7175 33.5194L36.7052 36.7283C36.6694 37.401 36.9765 37.5808 37.5941 37.9C38.6616 38.4517 40.1366 38.1295 40.6832 37.006C40.9223 36.5147 41.1522 35.4594 41.2031 34.8685L41.2808 33.5118C41.3049 33.2668 41.3415 33.0201 41.3529 32.7742L41.3604 29.2423L41.0654 25.5545L40.5243 22.3076C39.7323 18.3451 38.4218 13.9918 34.531 12.083C33.5952 11.6239 32.5428 11.2951 31.5442 11.0041L30.2627 10.6331Z" fill="black"/>
</svg>
