<svg width="48" height="48" viewBox="0 0 48 48" fill="none" xmlns="http://www.w3.org/2000/svg">
<path d="M24.6368 43.2456L21.0146 43.2323C20.7379 43.2193 20.4721 43.1638 20.1981 43.1398L19.4838 43.098C18.442 43.0101 17.3931 42.8592 16.3675 42.6575C14.5301 42.2964 14.4126 42.1023 14.4121 40.4246L14.4068 37.9889C14.3959 37.7774 14.2865 37.746 14.1798 37.5744C13.8559 37.0537 13.7687 36.5559 13.766 35.9605L13.7131 32.5321L9.70977 32.5328C8.44906 32.5329 8.67411 31.9378 8.62588 30.991L8.54553 30.1752L8.48633 26.4033C8.49106 26.2526 8.51811 26.104 8.52097 25.953L8.5385 23.6623C8.54858 23.4857 8.59466 23.3154 8.60689 23.1396L8.65194 22.2759C8.90277 19.1843 9.61259 14.4288 11.1316 11.7989C12.2167 9.92042 14.2047 9.06697 16.2744 8.71335C16.6086 8.65625 16.5883 8.75582 16.6661 8.43322C17.3426 5.62522 20.8511 4.75302 23.3358 4.67499C24.0032 4.66062 24.6908 4.65169 25.3567 4.70628C27.4359 4.87686 30.2997 5.7321 31.1388 7.84039L31.2194 8.07364C31.4915 8.82121 31.0258 8.60005 31.8844 8.76289C34.8808 9.33121 36.7905 10.7547 37.6666 13.6635L38.2342 15.5107C38.2728 15.715 38.3402 15.922 38.3914 16.1244L39.0523 19.6748L39.3868 23.3839C39.407 23.6541 39.4511 23.9183 39.4607 24.1908L39.4518 30.4458C39.4401 30.674 39.3958 30.8957 39.3801 31.1215C39.3436 31.6473 39.467 32.1342 38.9419 32.4485L38.9086 32.4681C38.6528 32.623 37.8768 32.5323 37.5635 32.5324L34.2694 32.5417C34.2048 32.8267 34.2416 33.1925 34.2405 33.4866L34.2354 35.211C34.2333 35.9736 34.291 37.0212 33.7621 37.6458C33.5475 37.8992 33.6321 38.0514 33.6216 38.3677L33.5995 40.6063C33.5797 42.1534 33.4071 42.2556 31.7738 42.5756L29.7893 42.9059L26.2948 43.2269L24.6368 43.2456ZM23.3772 5.90886C21.6202 6.03453 19.5882 6.30917 18.3516 7.71327C16.2429 10.1075 20.441 12.9771 22.4328 13.6163L22.9232 13.7565C22.4505 12.2672 21.6968 10.9038 20.566 9.81847C20.2608 9.52555 19.9706 9.24997 20.2055 8.7906C20.8426 7.5448 23.4184 7.37727 24.7445 7.49042C25.5691 7.53411 26.4402 7.72321 27.1603 8.13931C28.2033 8.74203 28.1591 9.20853 27.3638 9.91503C26.3782 10.7905 25.3186 12.484 25.05 13.8164C26.903 13.262 28.9193 12.0006 29.8508 10.2645C30.6958 8.68977 29.7606 7.43197 28.3129 6.72425C26.7995 5.98447 25.0313 5.90291 23.3772 5.90886ZM23.5723 8.70055C22.9797 8.73444 22.069 8.82505 21.5465 9.15303L21.5653 9.1648C22.3188 9.65221 23.2291 11.2441 23.5808 12.0267L23.7787 12.4997C23.832 12.646 23.8797 12.8329 23.9858 12.9505L24.1399 12.5785C24.6032 11.4438 25.2339 10.3099 26.121 9.44811C26.1853 9.38567 26.4261 9.20567 26.4438 9.14038C25.8786 8.8491 24.2168 8.55819 23.5723 8.70055ZM31.2834 9.92521C30.595 11.8456 29.5202 12.845 27.7786 13.9375C26.7956 14.5541 25.6777 14.8972 24.6059 15.3201L24.5997 36.8255C24.5999 37.0874 24.581 37.3602 24.6092 37.6208L31.0643 37.6168C31.8837 37.6157 32.8187 37.4455 33.0023 36.4412C33.0583 36.1348 33.0213 35.7583 33.0217 35.4436L33.0249 33.1675L33.174 30.4068L33.1862 26.9994L32.925 23.619L32.2286 19.4547L31.9124 18.0025C31.8775 17.8411 31.814 17.6724 31.7986 17.5092C31.7299 16.7818 32.686 16.4881 32.9281 17.2494L32.9405 17.2806C33.0981 17.696 33.1811 18.2854 33.2837 18.726L33.4828 19.6454C33.8487 21.4359 34.1356 23.2704 34.2737 25.0941L34.3738 27.0111L34.3761 30.2803C34.3756 30.6048 34.3834 30.9305 34.3462 31.2533L38.1783 31.2986C38.2084 30.9978 38.192 30.6861 38.2059 30.3829L38.2605 24.1221L38.1472 22.3646L37.7164 18.9838C37.3881 16.9687 36.6996 13.4199 35.3601 11.7778C34.4557 10.6689 32.7154 10.0646 31.3253 9.929L31.2834 9.92521ZM16.5617 9.94485C15.6594 10.0855 14.8791 10.3265 14.0584 10.7266C12.3947 11.5378 11.93 12.7125 11.3584 14.4258C10.4863 17.0397 10.075 19.7601 9.84589 22.4994L9.79962 23.5336C9.78683 23.7358 9.73363 23.9267 9.72509 24.1324L9.73794 29.8236C9.74544 29.9716 9.80572 31.2015 9.8397 31.2877L13.6432 31.29C13.5712 30.329 13.6152 29.345 13.6148 28.3811L13.6158 27.129C13.6187 26.5106 13.6836 25.8946 13.7154 25.2762L13.8168 24.0946C14.0251 22.1197 14.3611 20.1593 14.8094 18.2252L14.9814 17.5074C15.008 17.3967 15.02 17.2703 15.0681 17.1667C15.2685 16.7353 15.8295 16.6641 16.0902 17.0735L16.1443 17.1804C16.2797 17.4775 16.0989 17.9232 16.0338 18.2221L15.2271 22.6051C15.1742 23.0033 15.106 23.4057 15.0769 23.8064L14.8205 26.816L14.8264 31.0204C14.8311 31.2276 14.8906 31.4289 14.8954 31.64L14.9053 33.6297C14.9122 33.8827 14.9682 34.1308 14.9754 34.3822L14.98 35.801C14.981 36.0441 14.9631 36.3091 15.011 36.5477C15.1108 37.0459 15.7763 37.568 16.2519 37.6135L23.4042 37.6223L23.3971 15.318C23.2644 15.2493 23.1223 15.2293 22.9831 15.1774L21.7146 14.6875C19.6511 13.8079 17.4448 12.348 16.7273 10.1026L16.6812 9.944L16.5617 9.94485ZM32.3779 38.683C31.9038 38.8508 31.5068 38.8756 31.0226 38.8777L24.9797 38.8791C24.8684 38.879 24.7096 38.858 24.6072 38.8893L24.6508 42.0206L25.8671 42.0026C26.0255 41.9946 26.1773 41.9594 26.3334 41.9481L29.93 41.6203L32.4115 41.1875C32.396 40.919 32.3989 38.7055 32.3779 38.683ZM15.6133 38.7065L15.6329 41.2346L17.6957 41.6225L21.9238 42.0022L23.4037 42.0179L23.4045 38.8836L17.2735 38.8816C16.8086 38.8812 16.3575 38.8971 15.9027 38.7833C15.8068 38.7593 15.7113 38.7187 15.6133 38.7065Z" fill="black"/>
</svg>
