<svg width="48" height="48" viewBox="0 0 48 48" fill="none" xmlns="http://www.w3.org/2000/svg">
<path d="M24.7623 42.4788C24.3021 42.4025 23.9917 42.2566 23.5544 42.4684L22.229 43.0544C20.9384 43.5327 19.5888 43.6939 18.2191 43.6926C16.0473 43.6905 15.2084 43.1757 14.4877 40.9858C14.1236 39.8794 13.8637 38.7349 13.721 37.5794L13.6001 36.1436C13.5764 35.845 13.5258 35.5472 13.5126 35.248L13.501 31.2726C13.3774 31.6195 13.1873 32.0581 13.044 32.405L11.6851 35.5308C11.0576 36.9513 10.3798 37.0052 8.91465 36.3991L7.74188 35.8548C5.59154 34.7361 5.77683 34.3278 6.43074 32.4446L11.0502 19.0235L12.1703 14.7748C12.5837 13.0196 12.8729 11.3252 14.1084 9.92111C15.1882 8.69411 16.8123 8.16119 18.4043 8.06032C19.3512 5.86567 21.0075 4.4188 23.4774 4.15772C25.8172 4.08327 27.8834 4.94978 29.1039 7.0728C29.2849 7.38766 29.3994 7.72267 29.5488 8.05174C32.3086 8.2705 34.1844 9.49357 35.1714 12.1708C35.265 12.4246 35.374 12.7214 35.4243 12.9865L36.2665 16.6053C36.3916 17.3155 36.6735 18.1076 36.8865 18.7953C37.0306 19.2609 37.1547 19.7507 37.3264 20.2053L39.2952 25.7136L41.7038 32.8475C41.829 33.391 42.1802 33.8135 41.9648 34.4026C41.5867 35.4364 39.9568 36.0603 38.9913 36.4023C37.0338 37.096 36.8487 36.7541 36.0613 34.9763L34.4475 30.981L34.4833 35.2163L34.4098 35.9952C34.351 36.8035 34.2948 37.6081 34.1683 38.4098L33.8515 39.9257C33.1495 42.945 31.9597 44.4334 28.6919 43.5364L27.1682 43.0399L24.7623 42.4788ZM23.7325 5.65802C23.5188 5.6808 23.2982 5.69486 23.0882 5.74127C20.704 6.26805 18.977 8.75824 19.697 11.1693C20.0755 12.437 21.2342 12.825 22.4198 12.9719C22.5843 12.9923 22.7486 13.0263 22.915 13.0167C22.9248 12.7425 22.9735 10.9314 22.8981 10.8493C22.6277 10.5558 22.4227 10.4582 22.5843 9.93091L22.5948 9.89585C22.8137 9.2035 23.4195 9.49619 23.802 9.46127C24.2919 9.41655 24.8333 9.06077 25.3167 9.16844L25.3437 9.17439C25.5651 9.22802 25.7071 9.39171 25.7818 9.59749L25.7952 9.63339C26.1379 10.5788 25.059 10.7882 24.4177 10.8845L24.4126 12.4859C24.4128 12.6526 24.3802 12.9054 24.424 13.0574C25.4341 13.0336 27.0317 12.9102 27.7596 12.1446C28.9206 10.9233 28.4952 8.74699 27.6115 7.49922C26.7735 6.31596 25.2423 5.57496 23.8016 5.6538L23.7325 5.65802ZM18.0784 9.59749C16.0558 9.98421 14.8871 10.6623 14.1793 12.7261L7.47141 33.9206C8.22375 34.5077 9.25477 34.9852 10.179 35.2528C10.4316 34.7901 10.628 34.2939 10.8433 33.8129L12.5938 29.4587L13.6661 26.377C13.9099 25.6401 14.1704 24.8875 14.3303 24.1276C14.6668 22.5272 14.7395 20.8811 14.9684 19.2655C15.04 18.7603 14.9701 18.2121 15.5754 18.0272C15.9089 17.9253 16.3365 18.1571 16.4162 18.5008L16.4389 18.5786C16.5313 18.8333 16.4275 19.1835 16.4071 19.4473L16.1752 21.7701C16.161 21.9188 16.1274 22.0653 16.117 22.2138L15.6232 25.8027C15.3559 27.6296 15.0901 29.4548 14.9829 31.2999L14.9786 35.3202C14.9811 35.8155 15.0435 36.3109 15.0893 36.8083L15.1759 37.442C15.2521 38.0329 15.34 38.6494 15.4802 39.2285L15.7578 40.1862C16.0091 41.0132 16.2109 41.9005 17.1794 42.1126L17.3195 42.1471C17.8715 42.2909 19.5525 42.1799 20.0811 42.0699C20.5661 41.9688 22.5699 41.4414 22.9283 41.1225L22.9347 14.5624C22.3867 14.4784 21.8382 14.431 21.2956 14.3073C19.3368 13.8606 18.1026 12.3274 18.0892 10.3225L18.0953 9.80978C18.0965 9.73685 18.1097 9.66442 18.0784 9.59749ZM29.9129 9.62388C29.911 10.0345 29.9486 10.4782 29.8978 10.8863C29.5592 13.6085 27.3489 14.4064 24.9361 14.5434C24.5021 14.568 24.4179 14.4237 24.4151 14.7375L24.4069 40.1264C24.4058 40.3689 24.3773 40.6424 24.4067 40.8819C24.7829 40.9853 25.175 41.0217 25.5571 41.0983L27.1755 41.489C28.4536 41.8278 29.794 42.5278 31.1389 42.0926C32.52 41.6455 32.9782 36.2102 33.0285 35.0303L33.0719 34.4998L33.0015 30.8178C32.9934 30.6546 32.9636 30.4961 32.9506 30.3337L31.9609 22.7573L31.6575 20.0678C31.6178 19.6744 31.4083 18.8777 31.5611 18.5073L31.5741 18.4737C31.7147 18.1236 32.1487 17.8947 32.5083 18.0581C32.9236 18.2469 32.9563 18.6718 33.0026 19.0704L33.4148 22.4013C33.4861 22.9586 33.5145 23.5999 33.6945 24.1358L34.8298 27.6795L36.6589 32.5927L37.7507 35.2163C38.7825 34.963 39.6498 34.4993 40.5417 33.9544L38.2094 27.0462L35.6564 19.7983L34.3433 14.8325C33.5674 11.6086 33.3023 10.2599 29.9129 9.62388Z" fill="black"/>
</svg>
