<svg width="48" height="48" viewBox="0 0 48 48" fill="none" xmlns="http://www.w3.org/2000/svg">
<path d="M32.6321 39.8136L26.0047 40.4556C25.7212 40.4867 25.4266 40.4772 25.1416 40.4778L22.1647 40.473L19.0567 40.2769C18.2341 40.2054 13.2347 39.6208 12.6702 39.1354C12.2783 38.7984 12.5396 38.1622 12.6364 37.7477C12.9859 36.2503 13.1978 34.6785 13.3019 33.1455L13.3994 31.2346L13.3984 28.9263L13.0279 24.7497C12.9446 24.1294 12.818 23.5009 12.7776 22.8764L12.7434 22.3295L12.5203 22.8058C11.4394 25.0244 9.53524 24.4139 7.86002 23.3489L7.05466 22.8006C6.21958 22.1811 6.22015 22.0288 6.42794 21.0735L7.59752 15.4075C8.23048 12.979 9.32473 11.1127 11.7877 10.1016C12.238 9.91681 12.7308 9.79606 13.197 9.65375L15.6465 8.86325C16.0109 8.73542 16.3303 8.54337 16.6799 8.38372L18.7849 7.50219C19.4173 7.44504 19.5431 7.82956 19.8781 8.26137L20.5518 9.04761C21.524 10.0945 22.753 10.7347 23.9781 11.4277C25.5298 10.7291 27.0947 9.59529 28.1186 8.24164C28.2926 8.01148 28.4204 7.70844 28.6921 7.57559L28.7291 7.55825C29.1464 7.35772 29.6216 7.68528 30.0019 7.84119L31.5268 8.47569C32.1514 8.76683 32.4429 8.89709 33.1406 9.11501L34.9219 9.67489C38.6945 10.8518 39.6366 12.3821 40.5465 16.0075L41.0574 18.4899C41.2231 19.4058 41.399 20.6427 41.6345 21.5121C41.915 22.548 39.8968 23.5498 39.1367 23.9411C38.5039 24.2668 37.7755 24.4594 37.0739 24.2225L36.95 24.1796C36.1463 23.8566 35.6688 22.875 35.3444 22.1244L35.11 23.7653C34.9268 25.0258 34.7613 26.2887 34.6832 27.5611L34.6033 29.1333L34.5999 31.5853C34.6061 31.7723 34.6459 31.9536 34.6582 32.1392L34.9256 35.2648L35.29 37.3937C35.338 37.6163 35.3718 37.8726 35.4462 38.0862L35.4904 38.2363C35.7096 39.2182 35.1769 39.2788 34.3612 39.4517L32.6321 39.8136ZM18.742 8.96511C18.3851 9.1145 17.9808 9.23061 17.644 9.41436C17.9547 10.7105 19.8758 12.3807 20.9336 13.0319L21.8773 13.5669L22.9338 12.3665C21.103 11.4996 19.9874 10.4743 18.742 8.96511ZM29.2396 8.94561C28.2297 10.2403 27.2718 11.1066 25.818 11.9397C25.5895 12.0706 25.3072 12.2706 25.0593 12.3491C25.3547 12.785 25.7352 13.2454 26.1128 13.6093L27.1318 12.9939C28.1878 12.2977 29.9677 10.7364 30.3038 9.42458L29.2396 8.94561ZM31.5274 9.95201C30.6123 11.9509 29.473 13.0961 27.573 14.2781C27.1735 14.5266 26.72 14.8254 26.2763 14.9825C26.2279 14.9997 26.0944 14.9847 26.0647 15.0246C25.9655 15.1582 25.9153 15.3301 25.8024 15.4672C24.7694 16.7222 22.9942 16.6034 22.121 15.2809C22.0802 15.219 21.9691 14.9926 21.8987 14.9846C21.5617 14.9465 21.2269 14.7267 20.9374 14.5627C19.1003 13.5229 17.2361 11.9851 16.4242 9.98004L16.3823 10.001C16.1826 10.0985 15.9727 10.1543 15.7617 10.2197L13.1305 11.0542C10.0888 12.0601 9.40704 13.4445 8.68962 16.5582L8.13105 19.1879C9.35768 19.7931 10.6382 20.3098 12.0299 20.3375C12.2299 19.9897 12.3625 19.3775 12.7958 19.251C13.1205 19.1562 13.4082 19.3715 13.5259 19.6637L13.5364 19.6892C13.6374 19.9392 13.6507 20.2172 13.6992 20.4788L13.8867 21.5697C14.067 22.427 14.1245 23.2934 14.2598 24.1572L14.6789 28.3136L14.68 32.1716C14.6725 32.3639 14.6414 32.5508 14.6287 32.7418L14.3146 35.8142L13.8836 38.162C14.4217 38.3145 14.9876 38.3755 15.5372 38.4723L19.7987 38.9963L21.6 39.1029L26.5061 39.1016L28.289 38.9937C28.4575 38.9812 28.6245 38.946 28.7929 38.9302L30.3006 38.7987L34.1435 38.1663L33.8998 37.1662L33.3996 33.4342L33.3085 31.7492L33.321 28.3044L33.5027 25.8784L34.3104 20.32C34.3549 20.0524 34.3586 19.7652 34.5033 19.5262C35.1389 18.4756 35.9134 20.2967 35.9788 20.3245C36.4633 20.5299 39.5986 19.4672 39.8514 19.1947L39.1492 15.8853C38.2976 12.6665 37.351 11.8157 34.3699 10.8856L32.7107 10.3626C32.3248 10.242 31.8873 10.1367 31.5274 9.95201ZM24.004 13.138L23.0773 14.3485C23.2477 14.6071 23.4991 14.9478 23.823 15.0087L24.0396 15.0332C24.3991 14.9887 24.6301 14.8073 24.8543 14.5149L24.9436 14.3899L24.004 13.138ZM7.86912 20.5655L7.67173 21.5989C8.14863 22.0609 9.49732 22.8747 10.0781 22.9698L10.1119 22.9756C10.3422 23.0133 10.5274 22.9803 10.7383 22.8817L10.7683 22.868C10.8847 22.8133 10.996 22.7249 11.0814 22.6295C11.3094 22.3497 11.4856 21.983 11.6463 21.6589C10.3385 21.4652 9.0723 21.1228 7.86912 20.5655ZM40.0809 20.5895L39.3515 20.9057C38.9422 21.0717 38.5207 21.2116 38.0914 21.3161L37.0686 21.5168C36.8909 21.5442 36.7079 21.5521 36.5329 21.5925L37.1237 22.6497C37.6664 23.5616 39.0795 22.4758 39.6461 22.0925L40.3217 21.6197L40.1664 20.9038C40.1454 20.8053 40.1446 20.685 40.1017 20.5954L40.0809 20.5895Z" fill="black"/>
<path d="M26.0127 18.4784C24.501 20.1777 23.4599 20.081 22.07 18.4708C21.6419 17.9748 21.4666 17.3833 22.1848 17.0893C23.0461 17.0442 23.4454 18.4951 24.0256 18.3884L24.0703 18.3782C24.7331 18.2389 24.9137 17.3668 25.4569 17.1465L25.4883 17.1342C25.8194 16.9985 26.2052 17.1518 26.3339 17.49L26.345 17.5198C26.3863 17.6255 26.4206 17.729 26.3995 17.8438L26.3939 17.8714C26.3479 18.1111 26.1689 18.3009 26.0127 18.4784Z" fill="black"/>
<path d="M26.0482 21.8684C25.7614 22.1623 25.4609 22.4766 25.1003 22.6803C23.9086 23.3533 22.4718 22.7558 21.8312 21.6087L21.8107 21.5716C21.6071 21.2091 21.623 20.7483 22.0359 20.5381L22.2348 20.4618C23.1355 20.4223 23.5211 22.6804 24.8926 21.1265C25.1169 20.8723 25.2921 20.502 25.6701 20.4571C26.002 20.4177 26.3813 20.6748 26.4203 21.0186L26.4322 21.1405C26.4378 21.4353 26.2344 21.665 26.0482 21.8684Z" fill="black"/>
</svg>
