<svg width="48" height="48" viewBox="0 0 48 48" fill="none" xmlns="http://www.w3.org/2000/svg">
<path d="M29.5605 41.1956L29.3997 41.2269C28.6448 41.3236 27.8525 41.3815 27.09 41.4106L23.7912 41.424C22.6328 41.4248 21.4756 41.4453 20.3201 41.3635L19.4557 41.3281C17.9229 41.2161 16.59 40.6855 15.3679 39.7418L15.3389 39.7498C14.2357 40.0537 14.0934 39.6172 14.1561 38.6133L14.3727 34.4296L14.5493 31.1791C14.5618 30.9313 14.615 30.6905 14.6258 30.4438L14.6924 26.7891L14.6236 25.1334C14.6048 24.7976 14.5534 24.4744 14.5426 24.137L14.5203 23.1299C14.5171 22.9423 14.5224 22.7435 14.4776 22.5606C13.5924 23.211 13.7237 23.5298 12.6496 22.8854L9.57128 21.0185C9.10501 20.7396 8.14112 20.3116 7.92606 19.7777L7.91387 19.7461C7.71245 19.2373 8.34775 18.3624 8.58484 17.9353L10.4796 14.7217C10.5853 14.5394 10.647 14.3479 10.7442 14.1646C10.8643 13.9379 11.0369 13.732 11.1629 13.5047C12.3037 11.4469 13.0215 10.1066 15.4944 9.8182C15.5664 9.76813 15.6192 9.68371 15.6815 9.62109L15.9818 9.34391C16.4144 8.95743 16.881 8.59509 17.254 8.14781L17.9091 7.2832C18.1615 6.9193 18.3196 6.55345 18.8132 6.49902C19.034 6.51777 19.2233 6.59737 19.4363 6.64452L22.031 7.06195C24.0709 7.28868 26.1519 7.16812 28.1599 6.75027C28.6844 6.64115 29.4214 6.22874 29.7969 6.81721C30.614 8.09779 31.051 8.50059 32.2647 9.47216C32.7523 9.86249 32.4044 9.73696 33.0411 9.89985L33.8228 10.1412C35.4702 10.7409 36.5751 12.1834 37.0544 13.8209C37.2101 14.353 37.6074 14.7712 37.888 15.2469L39.5932 18.4956C39.7937 18.911 40.2101 19.3379 39.9979 19.8329L39.9842 19.8633C39.7726 20.3497 39.1932 20.5609 38.7643 20.8135L34.9568 23.1085C34.374 23.4245 33.9405 22.8547 33.4964 22.5475C33.4418 22.7321 33.4608 22.9494 33.4591 23.1411L33.3227 25.8357L33.3272 29.688L33.4651 31.9101C33.4884 32.5678 33.5399 33.2414 33.5721 33.9082L33.6599 35.665C33.6756 35.8944 33.7171 36.1167 33.7271 36.3516L33.8044 37.8328C33.8257 38.2856 33.9873 39.2112 33.7641 39.5591C33.354 40.1984 32.7818 39.5685 32.4263 39.8328L31.9582 40.1811C31.2452 40.681 30.4101 41.0192 29.5605 41.1956ZM20.0146 8.10435C20.1345 8.19726 20.2219 8.30235 20.3318 8.40313C22.0918 10.0177 25.3496 10.2537 27.2389 8.76182C27.4796 8.58159 27.664 8.37524 27.8524 8.14396C26.4047 8.51418 24.3205 8.59781 22.7814 8.50621L21.3376 8.34965C20.8975 8.29026 20.4435 8.22229 20.0146 8.10435ZM18.6731 8.46974C18.1857 9.18791 17.5448 9.91026 16.8374 10.4204L16.8582 10.4417C17.0006 10.5908 17.1058 10.7698 17.2242 10.9378C18.3085 12.4761 19.2584 12.5584 20.9525 13.1836C21.5092 13.389 22.0649 13.6456 22.6392 13.795C24.5471 14.2914 25.938 13.9725 27.6376 13.1326C28.3814 12.7651 29.143 12.3403 29.8007 11.83C30.3366 11.4043 30.7864 10.8854 31.2261 10.3637C30.2677 9.58884 30.0642 9.38343 29.3341 8.4682C28.0209 10.2178 26.483 11.0713 24.2589 11.0861C22.443 11.0982 20.3481 10.5584 19.153 9.09098L18.6731 8.46974ZM32.2792 11.1742C31.619 12.091 30.8622 12.7635 29.9308 13.3794C27.5056 14.983 24.9105 15.9485 22.0419 15.0441L20.6414 14.5289C19.0992 13.9878 17.6058 13.637 16.5422 12.3021C16.3292 12.0347 15.9357 11.2453 15.6758 11.248C14.0218 11.2648 13.2715 12.362 12.6069 13.6672L12.1952 14.4705C12.3638 14.7506 12.5006 15.052 12.656 15.3398L15.237 20.0566C15.5515 20.6087 15.7074 20.6091 15.7624 21.2586L15.838 23.1328C15.8452 23.3224 15.8842 23.5021 15.8964 23.6897L15.9466 25.1144C15.9566 25.2981 15.9925 25.477 15.9981 25.6636L15.9992 29.9721C15.9939 30.1278 15.9647 30.2788 15.9491 30.4334L15.8911 31.6821C15.813 32.6242 15.7773 33.5673 15.7251 34.5117L15.6625 35.3303C15.6553 35.4964 15.6659 35.6715 15.6451 35.8358C15.612 36.1659 15.5704 36.5001 15.5652 36.8309L15.5523 37.8068C15.5481 37.9831 15.5524 38.1825 15.5214 38.3557C15.8648 38.2768 16.1904 38.1646 16.5265 38.0639C19.1308 37.2832 21.1635 37.055 23.8451 37.0549L25.8405 37.0742C26.0144 37.0814 26.1842 37.1203 26.3594 37.1283L27.5037 37.1471C28.6038 37.1983 30.1645 37.5877 31.2032 37.9237C31.6312 38.0622 32.0554 38.2386 32.4921 38.3459L32.1869 33.0637L31.9926 29.2413L31.9882 26.7001C31.9916 25.7391 32.049 24.8049 32.0886 23.8443C32.1038 23.4753 32.1629 23.112 32.1686 22.7419L32.2204 21.2702C32.2829 20.3738 32.4894 20.7516 32.6624 20.2781C32.7161 20.1313 32.8125 19.9854 32.8902 19.8489L35.7378 14.7224C35.8388 14.5318 35.8509 14.5479 35.7989 14.332C35.4801 13.0084 34.5691 11.8951 33.2837 11.4053C32.954 11.2797 32.6182 11.2523 32.2792 11.1742ZM11.3799 15.834L10.041 18.1507C9.82726 18.5298 9.55989 18.9158 9.39784 19.3187L12.6465 21.2765L13.3276 21.6861L14.0012 21.2103C14.0765 21.1539 14.1736 21.1065 14.2344 21.0351L11.3799 15.834ZM36.6695 15.8303L33.9665 20.754C33.9176 20.8469 33.8403 20.9565 33.8182 21.058C34.0687 21.296 34.3667 21.4907 34.6421 21.6995L35.2612 21.3238L37.6401 19.8873C37.9292 19.7115 38.2765 19.5524 38.5386 19.3424L36.6695 15.8303ZM22.7225 38.4394C21.3697 38.4913 20.0046 38.6222 18.6795 38.9082L17.0772 39.3122C18.2034 39.8198 19.0776 39.9063 20.3084 39.9839L25.3416 40.0471L26.4047 40.0397C26.6175 40.0293 26.8274 39.9858 27.0413 39.9772C28.1973 39.9306 29.8932 39.9712 30.8939 39.2774C29.6451 38.8412 28.2964 38.579 26.9747 38.5097L22.7225 38.4394Z" fill="black"/>
<path d="M5.02283 20.7099C4.90733 20.7222 4.79038 20.7177 4.68156 20.6726C4.03401 20.4044 4.30755 19.8283 4.48678 19.3955L6.28222 15.5464C7.19521 13.7228 8.16332 11.9326 9.24196 10.2013L9.73738 9.41749C9.92024 9.13136 10.0321 8.91967 10.362 8.79316C10.932 8.74089 11.328 9.19567 11.0701 9.76366C10.8638 10.2181 10.5284 10.6352 10.2701 11.0625L8.70688 13.7852L5.85702 19.5902C5.6443 20.0686 5.58238 20.5282 5.02283 20.7099Z" fill="black"/>
<path d="M43.1725 20.7636C43.0155 20.7739 42.8697 20.7578 42.7409 20.6578L42.7146 20.6365C42.3618 20.3559 42.2228 19.778 42.0512 19.3812L40.173 15.4548L37.3706 10.5058C37.2155 10.2582 37.0408 10.0251 36.9036 9.76583L36.8891 9.73803C36.6706 9.32684 36.9998 8.89381 37.402 8.79064C37.8831 8.75984 38.1131 9.1857 38.3433 9.53881L40.7187 13.616L42.4847 17.1138C42.9107 18.0243 43.3698 18.9357 43.7236 19.8766C43.879 20.2901 43.549 20.6541 43.1725 20.7636Z" fill="black"/>
</svg>
