<svg width="48" height="48" viewBox="0 0 48 48" fill="none" xmlns="http://www.w3.org/2000/svg">
<path d="M30.7553 43.4688C29.3728 43.3703 27.8991 43.0911 26.6397 42.498L25.0213 41.7159C24.0734 41.2331 24.1872 41.0889 23.2102 41.5915L22.3899 41.9992C18.5916 43.8288 14.7123 44.1299 10.8974 41.9647C9.21013 41.0071 9.51327 40.662 9.68371 38.9442L9.77807 37.8206C9.79307 37.5524 9.84238 37.2885 9.85344 37.0199L9.85466 29.8735L9.7829 29.0099C9.69599 27.3512 9.69233 26.2471 8.72385 24.8921C7.99339 23.8702 7.16413 23.0491 6.21008 22.2308L4.74482 21.057C4.00083 20.5181 2.5769 19.8653 2.36563 18.8812L2.35821 18.8452C2.14409 17.899 2.79754 17.2524 3.2959 16.5348L7.77571 10.6537C7.99625 10.3862 8.20461 10.0925 8.44541 9.84353C9.68896 8.55808 11.2503 8.02868 12.8902 7.42858L14.4957 6.81133C14.935 6.64535 15.4054 6.49225 15.8228 6.27799C16.0233 6.17514 16.0901 5.944 16.2523 5.79522C16.3761 5.68169 16.5226 5.58972 16.6593 5.49208L17.294 5.03514C17.5078 4.88374 17.7231 4.68398 17.9622 4.5756L17.9923 4.56255C18.1013 4.51361 18.19 4.49818 18.3078 4.48551C18.7897 4.44021 19.0372 4.84169 19.3482 5.1355C22.7654 8.36463 25.1303 8.55508 28.4308 5.28316C29.4006 4.32185 29.4197 4.216 30.4762 4.95293C30.8911 5.24238 31.3235 5.51374 31.6993 5.85447C32.1366 6.25094 32.2733 6.50468 32.8449 6.73516L36.0301 7.81718C38.0525 8.51711 38.7197 8.79738 40.165 10.6163L44.0266 15.6214C44.5248 16.2944 45.5864 17.3801 45.6595 18.2462L45.6633 18.2933C45.7665 19.4547 45.0239 19.8964 44.1793 20.4877C42.6542 21.5554 40.8687 22.4998 39.8286 24.1058C38.6863 25.8698 38.437 27.9416 38.317 30.002C38.3035 30.2323 38.25 30.4578 38.2403 30.6897L38.2311 36.3445C38.2421 36.929 38.2917 37.701 38.3585 38.2738L38.5926 39.7786C38.8413 41.3613 38.2431 41.5851 37.0785 42.1439C34.9651 43.1579 33.1531 43.5912 30.7553 43.4688ZM18.2499 6.19239C17.9832 6.34807 17.7291 6.52235 17.4942 6.72311C17.9665 9.37014 20.1259 11.9308 22.8043 12.4696C23.2373 12.5567 23.664 12.5908 24.0937 12.7019L24.1309 12.681C24.4998 12.4781 24.9714 12.5258 25.3778 12.4283C27.0875 12.0177 28.4548 10.9324 29.4093 9.45785C29.7818 8.84875 30.4805 7.49149 30.4246 6.75199C30.1794 6.55352 29.8955 6.38233 29.6212 6.22652C25.5344 10.2977 22.5895 10.0617 18.2499 6.19239ZM16.2092 7.79378L13.4335 8.82424C12.1984 9.28825 10.6677 9.67314 9.7543 10.6969L10.0606 11.269C10.233 11.6472 10.4501 12.0325 10.5813 12.4259L11.2083 14.0394L11.7552 15.893C11.9886 16.7095 12.1601 17.8659 12.2464 18.6968L12.2975 19.4652C12.4394 21.0401 12.4258 22.1642 11.634 23.5515L10.634 25.0457L11.0007 26.4725C11.2299 27.3927 11.3306 29.2556 11.3334 30.2167L11.327 37.0827L11.1111 39.5753C11.0008 40.4832 10.8871 40.2253 11.7448 40.7124C12.5712 41.1816 13.415 41.5082 14.3377 41.7279C16.9862 42.1511 18.8036 42.0111 21.3319 40.8245L22.1685 40.4306C22.281 40.3738 22.4368 40.3325 22.5123 40.2255L22.5095 13.9558C19.6017 13.2392 17.5373 11.3077 16.4511 8.4963L16.2092 7.79378ZM31.7333 7.9105C30.8007 10.8456 28.6443 13.3641 25.4946 13.9494L25.4796 39.0168C25.4794 40.4439 25.1996 40.1221 26.4234 40.725C28.4946 41.7453 31.3513 42.337 33.6259 41.7777L34.3253 41.6109L35.5424 41.1856C35.7889 41.0954 36.9718 40.5815 37.1542 40.3898L36.7787 36.9613C36.754 36.5939 36.7668 36.2206 36.7663 35.8522L36.7707 30.7219L36.8827 28.9852C37.0161 27.5603 37.2217 26.128 37.7691 24.7973C37.936 24.3917 37.8621 24.5437 37.5019 24.1863L36.563 23.2458C36.2553 22.9443 35.8915 22.6443 35.6464 22.2894L35.6205 22.2536C35.3623 21.8881 35.6373 19.5425 35.7671 18.8228L36.0493 16.9808C36.3287 15.4717 37.2983 12.0203 38.282 10.7476C37.335 9.82385 36.8771 9.68861 35.6436 9.27185L33.1969 8.45477C32.7068 8.29122 32.2186 8.15454 31.7663 7.89953L31.7333 7.9105ZM8.70866 11.9114C8.25913 12.3816 7.8763 12.9146 7.47214 13.4229L4.15657 17.9072C4.03225 18.081 3.86395 18.3008 3.80265 18.506C4.04004 18.756 4.36393 18.9686 4.64652 19.1651L6.05085 20.1498C6.73686 20.6486 7.36733 21.2322 7.98993 21.8058C8.61744 22.3992 9.26521 23.0268 9.76386 23.733C10.8232 21.9631 11.007 21.6279 10.8248 19.5C10.6322 17.2496 10.105 15.1742 9.23615 13.0911L8.70866 11.9114ZM39.3105 11.94C38.2584 13.6946 37.4833 17.1207 37.2253 19.0785L37.0051 21.5542L38.6314 23.1406C39.0929 22.5251 39.6633 21.9244 40.2519 21.429L41.4728 20.509C41.8477 20.2452 44.0882 18.8262 44.2005 18.5628C44.2056 18.3901 44.0389 18.1643 43.9433 18.0222L39.3105 11.94ZM23.9763 14.0043L23.9656 38.713C23.9661 39.085 23.9407 39.4902 24.0132 39.8556L24.0227 15.0337C24.0224 14.6998 24.0397 14.347 23.9927 14.016L23.9763 14.0043Z" fill="black"/>
</svg>
