<svg width="48" height="48" viewBox="0 0 48 48" fill="none" xmlns="http://www.w3.org/2000/svg">
<path d="M29.566 41.2291L15.8646 41.2287C14.2994 41.2266 12.9139 40.1198 12.6739 38.5392C12.5582 37.7771 12.6837 36.9931 12.7444 36.2325L13.0189 32.3071C13.0403 31.1125 13.0379 29.9175 12.9207 28.7279L12.2142 22.8511C12.149 22.1355 12.1094 21.4396 12.1024 20.7205L12.0915 20.7255C11.9518 20.8718 11.7426 20.9902 11.5786 21.1193L10.5636 21.8595C9.6192 22.4841 9.31348 22.1533 8.57398 21.5078C6.80398 19.963 5.32653 17.5074 4.49103 15.3587C4.257 14.7568 4.54541 13.9737 5.09412 13.636C5.35324 13.4766 5.67851 13.3793 5.95629 13.2511C6.97118 12.7827 7.93568 12.1139 8.73832 11.3362C9.52357 10.5754 10.6102 9.32461 11.51 8.7607C11.679 8.65486 11.9363 8.60156 12.1258 8.53045L13.442 8.04262C14.0797 7.83248 14.7793 7.70109 15.4449 7.61756C16.2624 7.51491 16.4236 7.71633 17.1306 7.2682C17.5396 7.00898 17.973 6.85139 18.4514 6.78117L29.3518 6.76758C29.8968 6.76861 30.3974 6.96262 30.8606 7.24931C31.7678 7.81092 31.7976 7.4632 32.7265 7.6313L34.0425 7.87969C34.8936 8.07539 35.8051 8.42039 36.5821 8.832C36.7899 8.94206 37.3655 9.47822 37.5432 9.64561L38.8626 10.9335C39.68 11.7516 40.6039 12.528 41.6412 13.0535C43.3993 13.9441 44.0471 13.9492 43.25 15.9913C42.7394 17.2995 41.961 18.5234 41.1221 19.6428C40.7035 20.2013 39.1301 22.2696 38.3186 22.1919C37.9167 22.1534 37.5505 21.8784 37.2266 21.655L36.187 20.8906C36.102 20.8241 35.9812 20.7716 35.9141 20.6875L35.8904 20.6558C35.8616 21.0036 35.8835 21.3659 35.8826 21.7154L35.8343 22.713C35.8118 23.0356 35.7996 23.3564 35.7612 23.6788L35.1374 28.7515C35.1136 29.0133 35.121 29.2801 35.1109 29.5429L35.0711 32.2512C35.0746 32.4147 35.1024 32.5756 35.1071 32.7385L35.2116 35.6718C35.2522 36.4118 35.3899 37.2999 35.3884 37.9729C35.3845 39.6221 34.1628 41.075 32.4919 41.2219C32.1221 41.2544 31.7328 41.2296 31.3608 41.2298L29.566 41.2291ZM19.5777 8.22652C20.838 9.48127 22.066 9.89545 23.8624 9.89377C25.2306 9.8925 26.3637 9.69131 27.5547 8.98167C27.8844 8.76202 28.1842 8.50678 28.464 8.22698L19.5777 8.22652ZM18.0821 8.31642C17.7635 8.97577 17.8721 10.5919 18.1134 11.3137L18.42 12.2484C18.8032 13.3655 20.2329 14.3078 21.3125 14.5754L22.0951 13.8041L22.7089 13.188C22.807 13.0913 22.9554 12.977 23.0236 12.8595L21.7244 11.3008C21.4808 11.007 21.5327 10.9775 21.1708 10.8615C19.8975 10.4535 18.6158 9.57712 18.0821 8.31642ZM29.8901 8.44453C29.1836 9.44789 28.8067 10.0621 27.5362 10.5817L26.7769 10.8729C26.4828 10.9795 26.4848 11.1053 26.2912 11.3287L25.4875 12.3033C25.3407 12.4855 25.183 12.661 25.0468 12.8513L25.9622 13.8338C26.6045 14.5585 26.6383 14.6938 27.618 14.2425C29.1446 13.5394 29.8356 12.1469 30.0277 10.5366C30.1024 9.9098 30.2025 9.02728 29.8901 8.44453ZM15.9245 8.98655C15.0007 9.05006 13.2846 9.4155 12.4457 9.88781C13.0049 10.6298 13.5454 11.9872 13.816 12.8843C14.3517 14.6603 14.3675 16.6993 13.7954 18.4601C13.6717 18.841 13.4785 19.164 13.4769 19.5652L13.4751 20.2316C13.4744 20.703 13.4513 21.1883 13.4815 21.6582L14.3013 29.1982L14.34 32.9466L14.0237 37.1962C13.9948 37.5462 13.9259 37.8948 14.0035 38.2428C14.162 38.9542 14.6487 39.7431 15.4655 39.7687L30.1563 39.7687C30.8329 39.7687 32.3389 39.9054 32.9092 39.6695C34.0784 39.1859 34.0652 38.2442 33.962 37.2304L33.8817 36.2793C33.8263 35.6589 33.7817 34.7986 33.7572 34.1661L33.7452 31.4947C33.7432 30.6196 33.7098 29.728 33.7738 28.8551C33.8249 28.1588 33.9623 27.4756 34.0368 26.7835L34.4384 23.1562C34.4569 22.9243 34.4961 22.6954 34.5071 22.4621L34.5176 19.3242C34.5123 19.2008 34.454 19.1149 34.4158 19.002L33.9679 17.3527C33.4344 14.6133 34.2151 12.1843 35.5951 9.86583C34.1426 9.25406 32.9545 8.97586 31.4025 8.98022L31.4432 9.57698C31.4782 9.84623 31.4382 10.1238 31.4171 10.392C31.2338 12.7236 30.2208 14.582 28.057 15.5531C27.284 15.9 26.3872 16.0462 25.6567 15.4995L25.6236 15.4752C25.43 15.33 25.2763 15.1318 25.1094 14.958L25.0886 14.9908C25.0398 15.0673 24.938 15.1673 24.9224 15.2532C25.2141 15.8313 25.5019 16.2126 25.3472 16.9147L25.3391 16.9534C25.2212 17.4962 25.0753 17.5178 24.8985 17.8801C25.1186 18.1489 25.3021 18.4172 25.3785 18.7617L25.3862 18.7955C25.4314 19.0106 25.4216 19.3189 25.3846 19.5351L25.378 19.5765C25.2145 20.5354 24.0162 21.057 23.2213 20.4726L23.1895 20.4496C22.4613 19.9084 22.4384 18.7366 22.9717 18.0585L23.1121 17.908C22.4927 17.1736 22.4988 16.1334 22.9692 15.3285C23.0528 15.1855 22.9711 15.1093 22.8655 14.9829L22.8504 14.9654C22.6454 15.2196 21.9957 15.9918 21.6441 16.0355C21.432 16.0619 21.1834 15.961 20.9821 15.9035C18.0059 15.0524 16.7739 12.8881 16.5313 9.84244L16.5196 8.98697L15.9245 8.98655ZM11.3344 10.6661L9.64024 12.353C8.95339 13.0186 8.20554 13.5976 7.38101 14.083C6.8561 14.392 6.28399 14.5776 5.75417 14.8651L6.10587 15.7133C6.64329 16.8953 7.63615 18.5838 8.56249 19.5459L9.22315 20.247C9.3881 20.4195 9.55714 20.6101 9.75003 20.7508L11.4666 19.4425C11.9641 19.051 12.1408 18.9754 12.369 18.3846C13.3156 15.9349 12.7955 12.8241 11.3344 10.6661ZM36.6992 10.7008C36.0997 11.6607 35.6 12.7578 35.3454 13.8632L35.1818 14.7355C34.9874 15.6162 35.2246 17.2685 35.5632 18.1553L35.727 18.5863C35.8463 18.9188 36.164 19.1332 36.4286 19.3441L38.2895 20.736C38.7273 20.3894 39.1416 19.9162 39.4986 19.485C40.3394 18.5025 41.9209 16.1527 42.2345 14.8297C39.8103 13.9261 38.4909 12.4455 36.6992 10.7008ZM23.7129 11.2338C23.6266 11.2402 23.4209 11.2049 23.5313 11.3253C23.7033 11.5131 23.8284 11.7684 24.0207 11.9326L24.1926 11.7538L24.5836 11.2508C24.3289 11.1921 23.9784 11.2326 23.7129 11.2338ZM23.8912 13.9335C23.7239 14.2047 23.9209 14.3855 24.092 14.2851C24.2768 14.1352 24.1446 13.9633 23.9422 13.9153L23.8912 13.9335ZM23.9922 16.1561C23.8624 16.3783 23.7506 16.6397 24.0269 16.8L24.0347 16.8039C24.2042 16.5691 24.146 16.3752 23.9922 16.1561ZM23.9793 18.9023C23.8805 19.0037 23.858 19.0722 23.8899 19.207L23.8959 19.2342C23.9143 19.3099 23.9471 19.3434 24.0059 19.392L24.0451 19.3945C24.1669 19.2605 24.183 19.0174 24.0341 18.8933L23.9793 18.9023Z" fill="black"/>
</svg>
