<svg width="48" height="48" viewBox="0 0 48 48" fill="none" xmlns="http://www.w3.org/2000/svg">
<path d="M28.1014 45.8131C27.5319 45.7531 26.961 45.6467 26.3906 45.614L23.6698 45.5877C23.497 45.5859 23.3281 45.5579 23.1563 45.5528L22.0769 45.5695C21.3802 45.6104 20.6842 45.7289 19.9922 45.8133L16.4414 46.0743C14.5257 46.1476 12.6431 46.1574 10.8493 45.4152C9.77185 44.9694 9.2769 44.7517 9.18849 43.5497L9.01693 41.3322L9.00469 39.2496C9.00633 38.6164 9.04787 38.1331 9.11738 37.5118C9.17448 37.0013 9.24751 36.4703 9.36043 35.9694L9.64013 34.9185C10.0611 33.5931 10.2115 32.578 10.4537 31.2067L11.8627 23.524C12.1099 22.0303 12.3079 21.1591 12.3021 19.6398C12.2959 18.0245 12.2462 16.4905 11.3369 15.1056C11.0905 14.7304 10.8133 14.3801 10.6193 13.9726C9.71227 12.0674 10.7415 9.77018 12.5321 8.8047C13.5026 8.28143 14.9702 7.92804 16.0493 7.45057C15.9944 6.74562 15.9453 6.24691 15.9413 5.50741C15.8286 5.59057 15.6865 5.60623 15.5562 5.65132L13.7418 6.35224C11.2632 7.30362 10.3262 7.66587 8.99724 10.1165L6.58177 14.2163L3.90892 18.0428C3.40424 18.7478 3.91469 19.2381 4.41015 19.7784C5.69766 21.1825 7.61827 22.4109 9.37871 23.1254L9.90094 23.314C10.1112 23.3932 10.2991 23.4912 10.3954 23.7064L10.4273 23.7718C10.5992 24.1226 10.384 24.5269 10.0232 24.6402C9.72451 24.7339 9.38124 24.5368 9.11546 24.4264L7.73687 23.8023C6.56832 23.2177 5.37858 22.4533 4.39454 21.5816L3.94066 21.1464C2.99943 20.2543 2.04365 19.1695 2.55292 17.7924C2.70738 17.3748 3.05969 17.0124 3.33179 16.6634L5.46516 13.5627L7.81641 9.56196C9.3368 6.79024 10.4201 6.19029 13.1707 5.15337L16.3359 3.89208C16.5726 3.78755 16.761 3.42351 16.9372 3.22678C17.6025 2.48388 18.783 1.93837 19.7759 1.88532L27.3753 1.875C28.7521 1.87511 30.0916 2.12698 31.0465 3.23568C31.8486 4.16699 31.8378 3.98599 33.0187 4.43767L34.2676 4.92945C38.1687 6.35388 38.6424 6.93509 40.6055 10.2829L42.7358 13.8003L44.8412 16.916C45.8663 18.3137 45.8676 19.2279 44.5889 20.609C43.2824 22.0202 41.5199 23.1919 39.7982 24.0325L38.8081 24.4774C38.3313 24.6751 37.8174 24.8305 37.5579 24.2412C37.3901 23.8601 37.6892 23.4731 38.0399 23.3478C39.9565 22.6626 41.799 21.4791 43.2757 20.0774C44.1925 19.2071 44.6391 18.8999 43.8992 17.8406L42.2763 15.4897L39.9204 11.6903C37.6681 7.81427 37.7358 7.56354 33.4961 6.0297C33.0234 5.8587 32.519 5.68395 32.076 5.44484L31.9791 7.30465C32.5195 7.85285 34.2291 8.26015 35.0236 8.71212C36.3048 9.44088 37.2791 10.6664 37.6965 12.0746C37.9719 13.0039 37.6563 14.1179 37.1257 14.8946C36.8675 15.2727 36.5245 15.5677 36.2971 15.9761C35.3168 17.7367 35.6167 20.641 35.9585 22.6317L36.7088 26.7907C36.7865 27.2188 36.8487 27.6527 36.9381 28.0782L37.3608 30.2345C37.3841 30.3384 37.3835 30.4479 37.4066 30.5509L37.7393 32.2038C37.8547 32.8999 37.9134 33.6986 38.1707 34.3617C38.3971 34.9452 38.541 35.5532 38.6723 36.1642L38.9508 38.3556C39.0078 38.7623 38.9986 39.2197 39.0004 39.631L38.8181 43.2526C38.7353 44.3051 38.8977 44.5246 37.8036 45.1056C36.3045 45.9016 34.7588 46.1044 33.0844 46.1032L30.3622 46.0161L28.1014 45.8131ZM22.7138 3.177L21.0424 3.17811C20.7106 3.17852 20.3585 3.15609 20.0297 3.2022C20.7774 5.05638 23.3813 5.38048 25.1183 5.03285C26.2206 4.83729 27.5144 4.42422 27.8831 3.225C27.3021 3.11869 26.6448 3.17728 26.0525 3.17705L22.7138 3.177ZM29.1269 3.4562C29.0179 4.0026 28.9943 4.53557 28.9399 5.08606L28.7444 6.40681C28.6305 7.06432 28.4641 7.71579 28.2984 8.36182L27.3607 11.4559C27.7643 11.403 28.1962 11.1548 28.5429 10.9536C28.8815 10.7127 29.1873 10.4651 29.4566 10.1443C30.682 8.68413 31.5042 5.05615 29.6993 3.78309L29.1269 3.4562ZM18.8078 3.48717C17.5176 4.02143 16.9649 5.4282 17.2862 6.71956C17.3303 6.89637 17.3189 7.08584 17.3555 7.26584C17.6178 8.55598 18.1961 9.66884 19.2601 10.4538C19.5897 10.7069 19.9321 10.853 20.3231 10.9796C20.1194 9.69771 19.9222 8.97026 19.5718 7.73177C19.2522 6.60195 19.1364 5.46968 18.9646 4.31399C18.9222 4.02866 18.8949 3.76445 18.8078 3.48717ZM27.5226 5.58996C25.6328 6.60274 22.2753 6.82329 20.4311 5.60168C20.5896 6.67849 20.8926 7.75521 21.223 8.7904L21.4128 9.58948C21.6735 10.5602 21.5727 11.3 22.1101 12.267L23.3351 14.6575C24.943 13.7682 25.4217 12.7989 26.0298 11.2357C26.2716 10.6141 26.5014 9.99771 26.6859 9.35576L27.4776 6.15406C27.5128 5.96515 27.559 5.77296 27.5788 5.58195L27.5226 5.58996ZM31.6384 8.65854C30.9708 10.9395 29.3391 12.5199 26.9906 12.8769C26.6378 12.9305 26.3087 13.6733 26.0478 14.004C25.6659 14.4881 25.2034 14.934 24.7202 15.3166L24.3223 15.6149C24.2017 15.6971 23.9969 15.7969 23.9286 15.9259L23.9296 43.9317C23.9305 44.0524 23.8883 44.185 23.9576 44.2923L31.8926 44.7429H33.5061C34.7998 44.7407 36.1708 44.6292 37.2766 43.8818C37.3762 43.8146 37.4447 43.7928 37.5168 43.684C37.5268 42.9506 37.6359 42.2281 37.6856 41.4972C37.8017 39.7879 37.7183 37.4944 37.2887 35.8881C37.135 35.3133 36.9037 34.7454 36.7805 34.1664L34.799 23.556L34.5239 21.8673C34.4681 21.4694 34.4051 21.0557 34.3977 20.6545L34.387 19.8031C34.3708 18.0232 34.3671 16.3879 35.4732 14.865C35.871 14.3173 36.3788 13.8322 36.4696 13.1251L36.4755 13.0826C36.6246 11.929 35.4929 10.5599 34.5572 9.95815C33.6904 9.40071 32.3557 9.22137 31.6384 8.65854ZM16.3989 8.75402C15.4381 9.15748 13.7619 9.55788 12.9482 10.0816C11.9345 10.7341 11.325 11.9582 11.686 13.1391C11.8463 13.6631 12.2689 14.118 12.5497 14.5853C13.5563 16.2603 13.5741 18.1878 13.5744 20.0806C13.5746 21.2363 13.5071 21.6415 13.3125 22.7814L11.2281 34.1301C11.0273 35.0494 10.6584 35.9092 10.5075 36.8456C10.338 37.8978 10.2851 38.961 10.2873 40.0251L10.453 43.1017C10.5259 43.7626 10.3202 43.7111 11.0156 44.0826C12.0099 44.6137 13.3997 44.8012 14.525 44.7429L22.5685 44.2662L22.5616 16.038C22.5549 15.9011 22.1225 15.1258 22.0371 14.9589L20.8426 12.6282C20.797 12.5344 20.7607 12.4338 20.6916 12.3545L20.6446 12.3482C18.6786 12.0746 17.1642 10.7347 16.4812 8.86704C16.4665 8.82682 16.4643 8.77662 16.4228 8.76227L16.3989 8.75402Z" fill="black"/>
</svg>
