<svg width="48" height="48" viewBox="0 0 48 48" fill="none" xmlns="http://www.w3.org/2000/svg">
<path d="M14.5744 40.4857C13.0816 40.1423 11.7061 39.6436 10.3013 39.0361C8.88801 38.4249 9.10068 38.2851 9.26469 36.8669L9.69004 31.74C9.75472 30.6205 9.85813 29.5015 9.86399 28.3783L9.8518 22.5555C9.84262 22.3234 9.80052 22.099 9.78463 21.8679L9.75276 21.152C9.71437 20.6122 9.63533 20.0652 9.55204 19.5304C8.09254 19.6746 6.05483 20.7104 5.14162 19.0916C4.97755 18.8008 4.9033 18.4477 4.80571 18.1302L3.3028 13.5615C3.18024 13.0408 3.32333 12.455 3.61196 12.0127C3.98992 11.4334 4.64332 11.2576 5.25182 11.0225L8.90258 9.4862C9.76565 9.09357 10.1635 8.92927 11.0744 8.68515L14.6838 7.54599C15.6909 7.20535 16.0854 7.02085 17.1382 6.90779L17.828 6.83607C18.6169 6.77654 18.7328 7.38043 19.0917 7.94021C21.5984 11.8504 25.7825 12.3481 28.6996 8.27973C29.0731 7.75876 29.3291 6.92748 29.9425 6.80176C31.4755 6.82313 32.2126 7.19584 33.5863 7.64129L37.2684 8.77834C38.0275 8.96101 38.3943 9.20804 39.094 9.51324L42.9444 11.1041C44.3545 11.6169 45.0949 12.4249 44.563 14.0525L43.2401 18.0073C43.1314 18.327 43.0696 18.6666 42.9212 18.9726C42.5934 19.6488 41.7675 20.1349 41.0135 20.0039L38.3859 19.5454C38.3011 19.8847 38.2828 20.3026 38.2525 20.6574L38.0996 22.4762L38.0887 29.5089C38.1023 29.9309 38.1815 30.3612 38.2075 30.7854L38.2542 31.9904C38.2613 32.1039 38.2901 32.2119 38.2978 32.3244L38.8003 37.6649C38.9057 38.4378 38.7306 38.6137 37.9988 38.9176L37.2583 39.2351C34.3615 40.4782 31.8306 40.866 28.7125 41.0658L27.6486 41.1512L23.2034 41.1969C23.0478 41.1889 22.8945 41.1662 22.7383 41.1638L20.6777 41.1469L17.2684 40.8844C16.3636 40.788 15.4631 40.688 14.5744 40.4857ZM30.3793 8.20454C29.3999 9.97688 27.5801 11.6686 25.6351 12.2246C22.7437 13.051 20.3914 11.6849 18.5846 9.53537C18.245 9.1313 17.8946 8.68843 17.646 8.22062L17.3178 8.24865C17.354 8.82198 17.5311 9.59016 17.7448 10.1247L17.8348 10.3398C18.4837 12.0686 21.2196 14.5516 23.0398 13.5563C23.2017 13.4678 23.9781 12.751 24.0294 12.7688C24.2524 12.8457 24.6781 13.3876 24.9979 13.5537C25.6596 13.8973 26.5618 13.7979 27.2306 13.5192C29.5137 12.5679 30.5206 10.5641 30.6864 8.23131L30.3793 8.20454ZM15.9575 8.56609C14.9406 8.81724 13.8225 9.37351 12.8574 9.55379L13.1548 10.9072C13.3687 11.7787 13.4102 13.3403 13.4119 14.2313C13.4158 16.2774 12.6885 17.8892 10.8413 18.9828L11.1114 21.5622L11.2047 26.988C11.2003 27.1625 11.1715 27.3349 11.168 27.5098L11.1123 30.6325L10.8635 34.2264L10.5135 37.6295C11.995 38.5681 15.0004 39.2464 16.7229 39.4667L20.8072 39.7834H27.3335L29.9251 39.5894C31.0114 39.4967 32.1357 39.3901 33.2016 39.1535L35.3771 38.5392C35.9407 38.3444 36.4883 38.0982 37.0373 37.8661L37.4875 37.6653C37.4391 37.3778 37.4204 37.0976 37.3909 36.8083L36.9136 31.4891C36.9049 31.3501 36.8686 31.2199 36.8609 31.0776L36.7721 28.8503L36.7706 23.3786C36.7737 23.0916 36.8187 22.8095 36.8285 22.5231L36.968 20.0671C36.9851 19.9152 37.1308 19.0152 37.1095 18.959L37.0828 18.9444C36.0705 18.3767 35.08 17.0767 34.7815 15.9879L34.6405 15.3902C34.5689 15.0505 34.599 14.6605 34.5989 14.313L34.6094 12.9143C34.6585 11.9542 34.7981 10.8682 34.9583 9.92649C34.9713 9.85013 35.0469 9.54437 35.0165 9.5012L31.9718 8.55291C31.9056 10.3234 31.1686 12.1578 29.8512 13.3743C28.368 14.7437 26.0308 15.8187 24.1203 14.6253C23.9673 14.5297 23.9858 14.5872 23.8284 14.6885C21.6814 16.0692 18.6039 14.0495 17.3509 12.2458C16.5966 11.16 16.1485 9.88074 16.0199 8.5652L15.9575 8.56609ZM36.3125 9.94243C36.0973 11.0245 35.6884 14.4692 36.039 15.5119L36.0832 15.683C36.2834 16.4395 37.6533 18.0195 38.4729 18.1419L40.4651 18.5039C40.8328 18.5792 41.504 18.8787 41.7201 18.3827L41.9471 17.6027L42.9879 14.5129C43.1392 14.0563 43.5515 13.391 43.3411 12.9137L43.3273 12.8807C43.1483 12.4718 42.299 12.3041 41.9237 12.1576L38.4467 10.7066C38.1315 10.5632 37.8253 10.3891 37.5002 10.2696L36.3125 9.94243ZM11.5606 9.97234C10.5796 10.1871 10.2903 10.3576 9.39716 10.7528L5.55557 12.363C5.1359 12.524 4.44608 12.6839 4.6096 13.3005L6.07865 17.7834C6.4191 18.7894 6.4213 18.7301 7.31258 18.564L9.50263 18.1453C9.83558 18.1066 9.98905 17.9714 10.2572 17.7725C12.0882 16.4146 12.2352 15.0184 12.0332 12.8717C11.9686 12.1857 11.8306 10.6261 11.5906 9.98218L11.5606 9.97234Z" fill="black"/>
<path d="M31.0639 32.0478L29.5376 32.8014C28.4189 33.3713 28.4623 33.631 27.3278 33.0247L24.7641 31.6885C24.3726 31.4865 23.6661 31.2703 23.6494 30.7382L23.651 20.3322C23.6592 19.9304 23.7982 19.673 24.1934 19.5279L32.2132 19.5176C32.5214 19.5192 32.7479 19.5694 32.8898 19.8879L32.9502 20.0304C32.9853 20.1441 32.9758 20.2956 32.9764 20.414V30.6447C32.9742 30.7415 32.9719 30.8408 32.9202 30.926L32.9051 30.9492C32.7109 31.2725 32.2569 31.4327 31.9333 31.5952L31.0639 32.0478ZM25.0103 20.9358L25.0018 22.1486C25.2461 22.1738 25.4951 22.1537 25.7405 22.152L31.6088 22.1619L31.6108 21.3774C31.6109 21.2358 31.6276 21.0724 31.602 20.9334L25.0103 20.9358ZM25.0201 23.5166L25.0007 24.4814C25.4601 24.5749 25.8938 24.7145 26.3435 24.8432L28.4637 25.4152C29.2151 25.5844 30.2324 25.022 30.998 24.8048C31.177 24.7426 31.4568 24.7044 31.6116 24.6132L31.6101 23.5185L25.0201 23.5166ZM25.0085 25.8407L24.9966 30.2692C25.1958 30.4007 25.4178 30.5027 25.629 30.6135L26.8559 31.2472C27.2965 31.4743 27.7489 31.7683 28.2118 31.9384L31.1181 30.5023L31.6027 30.2483L31.6117 27.5251C31.6116 27.0288 31.6472 26.4992 31.5951 26.0074L28.985 26.8738C28.6739 26.9719 28.3275 26.8019 28.031 26.7183L25.6207 26.0322C25.4201 25.9756 25.1996 25.9227 25.0085 25.8407Z" fill="black"/>
</svg>
