<svg width="48" height="48" viewBox="0 0 48 48" fill="none" xmlns="http://www.w3.org/2000/svg">
<path d="M24.8966 41.2316L15.9923 41.2317C15.6945 41.2316 15.3518 41.266 15.0601 41.2176C13.328 40.9302 12.0215 39.5523 12.0192 37.7791L12.0194 35.6632C12.0203 35.1203 12.0623 34.5793 12.13 34.0398L12.4244 32.25C12.5738 31.5142 12.8194 30.8045 12.9962 30.0761C13.1545 29.4242 13.2334 28.7463 13.3068 28.0804L13.4865 25.919L13.4935 22.4368L12.3202 23.8403C12.0772 24.1481 11.8692 24.4857 11.6134 24.7841C9.20686 27.5919 2.73514 24.6086 4.74529 20.2224C5.08537 19.4804 5.60147 18.8041 6.05437 18.1257L9.22898 12.9624C10.9063 10.2672 12.3537 9.40159 15.6891 9.39587C16.1613 9.39507 15.982 9.45076 16.2129 9.10955C16.6903 8.40413 17.8265 7.96604 18.5509 7.58851C18.7355 7.49232 18.8952 7.3598 19.0762 7.26043C19.5764 6.98593 20.2831 6.8739 20.8355 6.7853L21.4208 6.71255C22.0266 6.60732 22.7053 6.57535 23.3177 6.57324L25.6338 6.58074C26.5834 6.63076 27.9179 6.84254 28.7661 7.19316C29.0137 7.29554 29.2155 7.44821 29.4506 7.5691C30.2699 7.99046 31.3628 8.41782 31.8926 9.22337C32.0415 9.44982 32.0212 9.39793 32.2998 9.39723L33.3855 9.40262C35.8025 9.53134 37.4011 10.7496 38.627 12.6996L40.6994 16.1001L42.2724 18.4723C42.6077 18.9717 42.9868 19.4917 43.2308 20.0433L43.4143 20.457C43.5027 20.7207 43.6087 20.9584 43.6661 21.2345L43.711 21.5978C43.7363 21.7927 43.7124 21.9671 43.6894 22.1603C43.4385 24.2656 41.5376 25.4686 39.5872 25.8201C37.6923 26.1616 36.8603 25.4181 35.8784 24.0613C35.4602 23.4835 35.0205 22.8622 34.4939 22.3791C34.4541 22.8821 34.4777 23.3972 34.4774 23.902L34.5619 26.8618C34.6326 27.8328 34.7305 28.7746 34.9172 29.7302L35.0978 30.5017C35.2304 30.9844 35.3888 31.4589 35.4944 31.9499L35.9208 34.7697C35.937 34.9237 35.9614 35.0748 35.9684 35.2301L35.9725 36.8104C35.9736 37.3819 36.0075 37.9463 35.9017 38.5082C35.6249 39.9796 34.3856 40.9248 32.9764 41.2041C32.6937 41.2602 32.3755 41.2312 32.0872 41.2313L24.8966 41.2316ZM22.8991 8.0432C21.9856 8.07376 21.0576 8.19915 20.1678 8.40798C20.8929 10.1069 21.4939 10.7115 22.6835 12.0263L24.0109 13.5043L24.5817 12.857C25.6945 11.5366 27.3341 10.1051 27.9016 8.42757C26.7421 8.03696 25.4651 8.03912 24.2569 8.03973L22.8991 8.0432ZM18.8492 9.12905C18.2333 9.43098 17.2727 9.75634 17.1548 10.547L17.149 10.5836C17.063 11.1916 17.2078 11.7552 17.4219 12.3213C17.7784 13.2639 18.4841 14.7975 19.2144 15.5235C19.5544 15.18 19.8693 14.8965 20.2724 14.628C20.9309 14.2648 21.6363 14.1941 22.3756 14.2832C22.5123 14.2997 22.6425 14.3426 22.7797 14.3572L20.46 11.7658C19.8099 11.0006 19.2532 10.0672 18.9079 9.12338L18.8492 9.12905ZM29.22 9.10126C28.8314 10.0247 28.2114 10.9543 27.5732 11.7248L25.2049 14.3471L25.4988 14.3029C26.1734 14.15 27.1052 14.2727 27.6997 14.627C28.0887 14.8944 28.4101 15.1928 28.7611 15.5039C29.5906 14.6211 30.3104 13.1859 30.6929 12.0337C31.3327 10.1058 30.6358 9.86148 29.22 9.10126ZM15.0695 10.8654C12.3022 10.9341 11.33 12.1921 10.0897 14.3372L7.06847 19.2288C6.51037 20.0918 5.76797 20.9699 5.79065 22.0513C5.82187 23.5352 8.39986 24.7683 9.74714 24.3273L9.87623 24.2819C10.5159 24.0549 10.8017 23.4334 11.1754 22.9187C11.8107 22.0441 12.4811 21.283 13.361 20.6565L13.3567 20.6308C13.2567 20.0056 13.1952 19.3978 13.0392 18.7767L12.8278 18.0198C12.7557 17.7942 12.6697 17.566 12.6313 17.3322L12.6247 17.2956C12.6072 17.1903 12.6211 17.1129 12.6476 17.0107L12.6557 16.9782C12.8375 16.3156 13.7512 16.3 14.0408 17.0626C14.6838 18.7558 14.9089 21.0574 14.9743 22.8874L14.9737 25.5598C14.9658 25.7906 14.9268 26.0198 14.9112 26.2501L14.7206 28.3595C14.6242 29.2231 14.5368 30.1139 14.2608 30.9436C13.9521 31.8718 13.7635 32.8547 13.6103 33.8196L13.5453 34.356C13.5186 34.5758 13.4901 34.7915 13.4817 35.0132L13.4776 37.8331C13.4803 38.6462 13.9477 39.2305 14.6812 39.5786L15.0605 39.7195C15.1507 39.7543 15.234 39.7607 15.3293 39.7639L22.0162 39.7662C22.4179 39.7659 22.8275 39.783 23.2278 39.7561C23.1781 39.4395 23.0527 39.117 22.9614 38.8093C22.5622 37.4629 22.2738 35.9719 22.9147 34.6489C23.0038 34.4649 22.9742 34.4911 22.8918 34.2942C22.4293 33.1894 22.3707 31.9736 22.8931 30.8693C23.036 30.5672 22.8321 30.43 22.7312 30.1101C22.4319 29.1601 22.4267 28.0842 22.8609 27.1734C23.035 26.8081 22.9097 26.8739 22.775 26.4953C22.4387 25.5503 22.3966 24.4162 22.8616 23.5033C23.004 23.224 22.8256 23.1271 22.7215 22.7909C22.4442 21.8954 22.4823 21.2228 22.8087 20.3551C22.8817 20.1609 23.0029 20.0893 22.9186 19.8878L22.777 19.5462C22.4598 18.7363 22.4015 17.8355 22.6767 17.0003C22.7871 16.6655 22.9719 16.3083 23.0138 15.9575C21.7951 15.6051 21.2284 15.5629 20.2824 16.5226C19.6498 17.1644 19.3529 17.5786 18.5423 16.9008C17.1751 15.7577 15.6509 12.579 15.681 10.8553L15.0695 10.8654ZM32.3482 10.8714C32.3452 11.0829 32.3521 11.3011 32.3077 11.5145L32.3011 11.5475C32.0504 12.7524 30.1386 17.5608 28.5716 17.2325C28.2296 17.1608 28.0842 16.8815 27.8628 16.6492C26.7495 15.4806 26.2661 15.5937 24.8346 16.0074C25.3805 17.1611 25.6885 17.8201 25.29 19.1442C25.2631 19.2335 24.9974 19.9319 25.023 19.9793C25.3558 20.5956 25.5585 21.3799 25.4415 22.0717C25.4148 22.2299 25.0171 23.3316 25.0485 23.3837C25.54 24.1986 25.5805 25.2317 25.2852 26.1212L25.07 26.7186C24.9519 27.0464 25.1957 27.3537 25.304 27.6623C25.6158 28.5511 25.4271 29.4146 25.1331 30.2812C24.8828 31.0192 25.0829 30.779 25.3287 31.5461C25.6068 32.4142 25.4193 33.2385 25.1227 34.0783C24.9267 34.633 25.1672 34.8733 25.3331 35.4142L25.3464 35.4497C25.7044 36.4188 25.2719 37.8654 25.0396 38.8171C24.9655 39.1209 24.9324 39.4618 24.8349 39.7559C25.3064 39.7835 25.7851 39.7671 26.2578 39.7672L32.7528 39.7572C32.9213 39.7483 33.0247 39.6863 33.1756 39.6446C34.4066 39.3044 34.5929 38.0769 34.5901 37.0109L34.3984 34.0124C34.2988 33.423 34.2181 32.8411 34.08 32.2582L33.5994 30.4535C33.2742 29.1331 33.1645 27.7825 33.0875 26.4286L33.0245 22.7462L33.1344 20.9919C33.2121 20.0625 33.5387 17.5698 34.1093 16.7878C34.6123 16.0984 35.6314 16.6211 35.3641 17.5197L35.092 18.3048C34.8698 19.0443 34.722 19.8153 34.656 20.5846C35.2822 21.073 35.8334 21.6154 36.3313 22.2346L37.066 23.2209C37.2758 23.5122 37.4867 23.8832 37.7899 24.0866C39.3489 25.1326 42.5075 23.5314 42.2322 21.6122C42.0764 20.5253 41.2156 19.5105 40.6239 18.627L39.1028 16.2664C38.3703 15.1153 37.7505 13.8785 36.9404 12.7804C35.7004 11.0996 34.2773 10.8743 32.3482 10.8714ZM23.9807 17.4973L23.886 17.9884C23.8503 18.1501 23.8807 18.569 23.9834 18.7009L23.9884 18.7091C24.1682 18.5529 24.0705 17.8775 24.0232 17.6837L23.9807 17.4973ZM24.01 21.1056L24.0048 21.1264C23.9326 21.4112 23.7534 21.8243 23.9797 22.0841L24.0113 22.09C24.1259 21.7569 24.0792 21.4526 24.0396 21.11L24.01 21.1056ZM23.9819 24.4572C23.8965 24.7576 23.8092 25.268 23.9605 25.5543L24.0116 25.5587C24.1274 25.2104 24.105 24.8205 24.0015 24.4717L23.9819 24.4572ZM23.9866 28.1603C23.923 28.3855 23.7603 29.1098 23.9925 29.2937L24.0119 29.3056C24.1487 28.9417 24.0678 28.5497 24.0091 28.1827L23.9866 28.1603ZM23.9852 31.9299C23.8912 32.2589 23.7988 32.7909 23.9955 33.1056C24.1861 32.9064 24.0545 32.1899 23.9852 31.9299ZM24.001 35.7685C23.9046 36.1262 23.8372 36.6597 23.9294 37.0313L24.0315 37.4767C24.0794 36.852 24.0973 36.3869 24.001 35.7685Z" fill="black"/>
</svg>
