<svg width="48" height="48" viewBox="0 0 48 48" fill="none" xmlns="http://www.w3.org/2000/svg">
<path d="M18.8261 41.8744L17.3221 41.7871C15.9029 41.6763 12.7625 40.9891 12.2365 39.3946L12.2266 39.3637C12.1639 39.1742 12.1767 38.9665 12.1775 38.7692L12.1887 34.9519L12.314 33.1887C12.3475 32.7876 12.3896 32.3927 12.3934 31.9896L12.3844 27.3458L12.266 25.2175C12.2515 25.0389 12.2166 24.8638 12.2057 24.6835L12.1883 23.9968L11.8784 24.4035C11.146 25.2871 10.2139 26.2322 9.01172 26.3533C8.07483 26.4476 7.66036 25.9149 7.42655 25.1372C7.07705 23.9748 6.26648 22.9223 5.15616 22.395C4.83469 22.2423 4.46677 22.1848 4.15896 22.0131C2.73117 21.2164 3.52075 19.6317 4.01502 18.556L6.41536 13.5345C7.23619 11.7754 7.64114 10.5256 9.64453 9.98947C9.94847 9.90809 10.3458 9.95966 10.6641 9.94658C11.8555 9.89759 12.9586 9.26169 14.0032 8.74953L16.1926 7.62786C16.9049 7.22042 17.9002 6.36397 18.6445 6.16836L18.6797 6.15936C19.1252 6.04184 19.6127 6.22606 20.0591 6.27669L22.5437 6.47384L25.4677 6.47553C25.6834 6.46564 25.896 6.42659 26.1117 6.41286L28.5149 6.18594C28.7075 6.15992 28.8925 6.11905 29.0875 6.10156C29.4637 6.12936 29.8231 6.34775 30.1406 6.53773L32.5512 8.02138L34.1564 8.82608C35.1694 9.33434 36.175 9.87341 37.3286 9.93927C37.6356 9.9568 38.0187 9.91039 38.3107 10.0025C39.7782 10.4657 40.3736 11.0315 40.9812 12.5332C41.2587 13.219 41.609 13.8641 41.9361 14.526L43.5076 17.7143C43.8623 18.444 44.834 20.1154 44.6099 20.9565L44.5699 21.1001C44.3014 22.0119 43.7826 22.0573 43.04 22.3265C41.5751 22.8574 40.9415 23.9869 40.5286 25.3693C40.2576 26.2771 39.24 26.5124 38.4177 26.2426C37.4671 25.9307 36.3255 24.8985 35.8647 23.9736C35.7496 24.5988 35.7319 25.2645 35.6939 25.8989L35.6136 26.8211L35.613 32.2346C35.6203 32.4596 35.673 32.6738 35.6865 32.895L35.7176 34.0986C35.7244 34.2246 35.7525 34.337 35.7646 34.4589L35.8202 39.0146C35.8013 40.3119 33.9258 41.0453 32.9108 41.3559C29.6406 42.3565 26.9762 41.5673 23.7566 41.577C22.1109 41.5819 20.5329 41.9126 18.8261 41.8744ZM19.3468 7.44988C19.6232 8.46964 20.9675 8.92016 21.9023 9.09209C23.7007 9.42289 26.1405 9.40461 27.7833 8.51248C27.81 8.49795 27.9394 8.43683 27.952 8.41616C28.2736 8.22116 28.6355 7.87222 28.5873 7.4607C28.2372 7.42625 27.8442 7.51428 27.4958 7.56106L26.8511 7.62238C26.5597 7.65298 26.2758 7.69475 25.9819 7.70309L21.9368 7.68402L19.3468 7.44988ZM18.1458 7.79342L17.6377 8.16425C17.0729 8.54037 17.1105 8.50409 17.123 9.16794C17.1346 9.78369 17.2585 10.4255 17.4596 11.0078L17.7703 11.8833C18.4666 13.4393 19.5592 14.876 21.1857 15.5394C21.4882 15.6628 21.8513 15.7897 22.1778 15.7129L22.3037 15.6831C22.6374 15.5874 22.8779 15.2941 23.0384 15.0005L23.3548 14.2536C20.7854 12.827 19.1846 10.9018 18.2785 8.03825C18.2638 7.99156 18.219 7.79469 18.1698 7.79384L18.1458 7.79342ZM29.8141 7.79342L29.4594 8.7778C28.485 11.119 27.0585 12.9503 24.8199 14.1464C24.7301 14.1943 24.5838 14.2117 24.6336 14.3242C24.8411 14.7932 25.3048 15.18 25.765 15.3802C26.2952 15.5676 26.7962 15.485 27.3017 15.2519L27.5535 15.1204C29.6738 13.9944 31.067 10.7664 30.8618 8.47892C30.5916 8.25673 30.1304 7.93616 29.8141 7.79342ZM32.1196 9.19869C32.06 9.64316 32.0311 10.0707 31.9382 10.5122C31.3727 13.1993 29.1225 16.9888 25.9102 16.6742L25.8658 16.6702C25.4245 16.6279 24.9737 16.4078 24.6199 16.148L24.6102 22.7069C24.6102 22.9148 24.6311 23.1511 24.6044 23.3557C24.5369 23.8727 23.3919 24.526 23.3906 22.7752L23.397 16.9598C23.3982 16.7761 23.411 16.5868 23.3824 16.4052L23.3602 16.4332C23.2318 16.589 23.0569 16.7031 22.875 16.786L22.8438 16.8007C22.2736 17.0655 21.6536 16.9699 21.0772 16.7934C18.2654 15.9325 16.4212 12.8609 15.9612 10.0669C15.9149 9.78528 15.9362 9.49808 15.8941 9.22039L13.2422 10.5013C12.5716 10.8005 11.7612 11.0711 11.0279 11.1478C10.628 11.1895 10.2161 11.1226 9.82073 11.2103C8.71767 11.455 8.32476 12.358 7.89534 13.2724L5.47884 18.352C5.15091 19.0408 4.55113 19.9489 4.56979 20.7253C4.8007 21.0237 5.26237 21.0996 5.59776 21.2396C6.76701 21.7278 7.74305 22.8196 8.29341 23.9419C8.42287 24.206 8.62017 25.0186 8.75391 25.1638C8.89219 25.1698 9.01411 25.1372 9.14292 25.0903L9.18445 25.0755C10.378 24.6456 11.5293 22.9396 12.0297 21.8691C12.0975 21.724 12.097 21.6999 12.075 21.5452L12.024 21.1762C11.9487 20.3539 11.9381 19.5369 11.8086 18.7186L11.6815 17.9792C11.5948 17.535 11.4546 16.8902 12.082 16.7782L12.1143 16.7719C12.2321 16.7507 12.3791 16.765 12.48 16.834L12.531 16.8706C12.6341 16.9472 12.6989 17.053 12.7502 17.1684L12.762 17.1926C12.8961 17.476 12.8947 17.8581 12.9449 18.1645L13.2292 21.0182C13.2437 21.1921 13.2767 21.365 13.2869 21.5395L13.4996 25.6257L13.5779 26.7031L13.5925 32.1786C13.5825 32.865 13.5235 33.6026 13.4754 34.2895L13.3992 35.392C13.3852 35.9008 13.4798 36.0441 13.8006 36.4751C14.8181 37.8424 16.8844 38.1901 18.5087 38.2776L19.8995 38.2897C21.8548 38.2897 23.6246 37.8513 25.588 38.0862C26.0452 38.1409 26.5055 38.2323 26.9648 38.2648C29.3212 38.4316 33.1893 38.3294 34.4535 36.1069C34.5388 35.9568 34.6067 35.8582 34.5958 35.684L34.4635 33.0319C34.4565 32.871 34.4251 32.7131 34.4197 32.5525L34.3528 28.6237C34.355 28.3489 34.3948 28.0715 34.4025 27.7953L34.4203 26.3864C34.428 26.1825 34.4627 25.9835 34.4791 25.7809L35.0573 19.2491C35.1096 18.7551 35.2094 17.2852 35.5195 16.9491C35.8257 16.6172 36.3326 16.694 36.5187 17.1098L36.5308 17.136C36.5655 17.2169 36.5626 17.2939 36.5541 17.38L36.1873 20.2102C36.1485 20.7284 35.9553 21.6852 36.1875 22.1606C36.7573 23.3277 37.5893 24.6445 38.869 25.0945C39.4213 25.2887 39.3602 24.7904 39.5273 24.3528C40.1091 22.8298 41.3692 21.5034 42.9611 21.0549C43.5802 20.8805 43.4558 20.5792 43.2358 20.0386L39.8417 13.0039C39.605 12.4744 39.4183 12.0365 38.956 11.6566L38.6223 11.4275C38.1433 11.1334 37.6488 11.1772 37.1164 11.1517C35.6806 11.0828 34.3268 10.2963 33.0745 9.66927C32.7634 9.5135 32.413 9.38202 32.1196 9.19869ZM20.5394 9.97311C21.2181 11.1968 22.1691 12.0744 23.3361 12.8254L23.7538 13.0811C23.8204 13.1232 23.9069 13.1972 23.9791 13.2238L24.0138 13.2317C24.8056 12.728 25.5662 12.2547 26.235 11.583C26.5893 11.2067 26.9741 10.7617 27.2352 10.313L27.3692 10.0262C26.2425 10.4924 24.9075 10.5043 23.7101 10.4997C22.746 10.496 21.6736 10.3704 20.7625 10.0499C20.6988 10.0275 20.6035 9.977 20.5394 9.97311ZM13.3913 37.8872L13.3848 38.7026C13.3826 38.8763 13.3351 38.9825 13.4719 39.1149L13.5208 39.158C15.0029 40.4616 17.1281 40.6173 19.021 40.6181L22.6992 40.3926C23.6745 40.3081 24.6066 40.3048 25.5866 40.4008L27.5846 40.601C29.7778 40.7629 32.9477 40.5916 34.5881 39.0913L34.611 39.0013L34.6082 38.2464C34.6052 38.1206 34.6102 37.978 34.5829 37.856C32.8208 39.4055 29.6302 39.6695 27.3947 39.5196L25.6875 39.3504C23.9476 39.0952 22.8227 39.3628 21.1406 39.4721L20.2965 39.5332C18.2307 39.6032 15.6281 39.3923 13.8721 38.2225L13.3913 37.8872Z" fill="black"/>
</svg>
