<svg width="48" height="48" viewBox="0 0 48 48" fill="none" xmlns="http://www.w3.org/2000/svg">
<path d="M28.1834 40.4812L15.8481 40.4804C14.3626 40.4753 13.5198 39.3804 13.5195 37.9827L13.5196 21.2989C13.3341 21.4809 13.0236 21.6276 12.8016 21.7642L11.6793 22.4679C11.3005 22.7224 10.7399 23.2471 10.2358 23.0333L10.2068 23.02C9.64616 22.7662 8.72741 21.7033 8.30835 21.2217L7.79694 20.6558C7.04207 19.741 6.20272 18.4716 6.05338 17.285C5.99216 16.7991 6.34447 16.6098 6.6554 16.3285L9.8593 13.4216C10.5856 12.7797 10.9983 12.3018 11.9302 12.0307L16.0847 10.716C16.3669 10.6314 16.6345 10.5441 16.9288 10.5073C17.2318 10.1153 17.3998 9.39313 17.7068 8.9233C18.2251 8.13008 19.0052 7.71542 19.9107 7.52839L27.3812 7.51677C27.6449 7.51667 27.9654 7.47918 28.2183 7.54377L28.5817 7.63218C30.242 8.13571 30.399 9.27163 31.059 10.5196L31.1205 10.524C31.2561 10.5345 31.3918 10.5608 31.5232 10.596L35.756 11.9353C36.9667 12.2916 37.3579 12.7462 38.3034 13.5873L41.3193 16.3006C41.8146 16.7497 42.0963 16.8699 41.8728 17.6332C41.4845 18.9595 40.6675 20.118 39.7638 21.142C39.4083 21.5448 38.2006 22.9611 37.6806 23.0694L37.6554 23.0741C37.3048 23.141 37.1179 22.9994 36.8472 22.8046L34.4728 21.306C34.455 21.45 34.4714 21.5904 34.4732 21.7346L34.4758 37.2049C34.4757 37.7354 34.5443 38.3662 34.3727 38.8737L34.3615 38.9061C33.9868 40.0217 33.0414 40.4794 31.9466 40.4805L28.1834 40.4812ZM20.098 8.9803C19.8808 9.00482 19.6935 9.03196 19.5233 9.18304L19.4721 9.22846C19.5204 9.26216 19.5707 9.272 19.6287 9.2735L27.99 9.25691L28.5404 9.31063C28.4361 9.20582 28.3473 9.12491 28.2161 9.05399L28.1848 9.0365C28.0986 8.99169 28.004 8.98597 27.9089 8.98213L21.2856 8.97932C20.8931 8.9795 20.4892 8.96 20.098 8.9803ZM20.2113 10.6767L19.9897 10.7108C20.5751 11.5641 21.7429 12.3289 22.6001 12.8595C23.1283 13.1863 23.6533 13.4103 24.0331 13.9176L24.0496 13.8924C24.3751 13.4023 25.6631 12.719 26.2157 12.2901C26.7491 11.9024 27.6158 11.2388 28.0113 10.7051C27.6639 10.6645 27.3087 10.6773 26.9593 10.6768L20.2113 10.6767ZM29.5983 10.8727C28.8832 12.0984 27.7666 13.0141 26.5938 13.784L26.0088 14.1444C25.6428 14.3533 25.2987 14.4615 25.4239 15.0286L25.4546 15.1509C25.5054 15.4462 25.7069 15.6598 25.9772 15.7715C26.4602 15.8944 26.9336 15.6569 27.3426 15.4118C28.5123 14.7108 29.7365 13.1962 30.0957 11.8365L30.1085 11.7541C29.9165 11.5035 29.7463 11.212 29.623 10.9217L29.5983 10.8727ZM18.3467 10.9569L18.3312 11.0012C18.2655 11.1824 18.1773 11.3701 18.0827 11.5381C17.9496 11.7744 17.8103 11.7988 17.9274 12.0663C18.5851 13.569 19.6755 15.0991 21.2671 15.6959C21.5665 15.8082 21.7715 15.8349 22.0821 15.7559C22.4769 15.5594 22.6559 15.2449 22.5977 14.8123L22.5938 14.7805C22.5282 14.2819 21.7326 14.0033 21.3622 13.7603C20.477 13.1797 19.6082 12.4929 18.9304 11.6778C18.8627 11.5964 18.3894 10.959 18.3467 10.9569ZM16.4352 12.0982L12.0657 13.5053C11.8253 13.6144 11.5969 13.8388 11.3921 14.0038L9.32169 15.8319C9.03941 16.0863 8.7689 16.3533 8.4644 16.5817C9.45801 17.4582 10.3093 18.4908 10.9718 19.6393C11.1871 20.0125 11.3203 20.4729 11.5706 20.8191C11.9643 20.5341 12.4007 20.2991 12.8286 20.0695C13.6512 19.6283 14.9154 18.9389 14.9702 20.4275L14.9753 37.9695C14.9752 38.4671 15.0544 39.0013 15.727 39.0141L32.0542 39.0159C32.786 39.0157 33.0204 38.7675 33.021 38.0857L33.0193 33.6444L33.0196 21.4563C33.0197 20.9359 32.8506 20.1435 33.2623 19.7374C33.7495 19.257 34.4273 19.6816 34.9166 19.936L36.0524 20.5462C36.1707 20.6109 36.3472 20.7479 36.4724 20.7763C37.1905 19.2056 38.1876 17.7554 39.4655 16.5852C38.961 16.0438 38.3838 15.5668 37.8336 15.0728L36.519 13.9327C35.7805 13.3333 35.5633 13.3744 34.6669 13.0976L32.2226 12.2999C32.0042 12.224 31.7757 12.1685 31.5611 12.0834C31.3762 12.5456 31.1951 13.0105 30.9663 13.4533C30.0517 15.2239 27.6385 17.9441 25.3528 17.0218L24.9919 16.8403C24.4611 16.5379 24.211 15.9741 24.0158 15.4313C23.7092 16.1571 23.564 16.6747 22.7329 17.0308L22.6404 17.0653C21.825 17.356 21.0923 17.1922 20.3293 16.8336C18.5802 16.0114 17.2609 14.2778 16.5816 12.4933C16.536 12.3733 16.4996 12.2068 16.4352 12.0982ZM7.64915 17.7354C7.96105 18.5847 9.38235 20.4112 10.1627 21.0822C9.47554 19.898 8.64201 18.6916 7.64915 17.7354ZM40.2375 17.8436C39.4443 18.6385 38.3567 20.0221 37.9161 21.0491C38.8041 20.0748 39.7055 19.0645 40.2375 17.8436Z" fill="black"/>
<path d="M24.2948 24.7271L23.6574 24.7196C22.5008 24.5727 21.6073 23.3935 21.7864 22.2391L21.7919 22.2066C21.8449 21.8801 21.929 21.5906 22.1018 21.3059C22.1969 21.1493 22.4018 21.0419 22.2703 20.8748C22.0364 20.5779 21.9008 20.2739 21.8109 19.904L21.7813 19.7734C21.5859 18.5887 22.521 17.3851 23.6985 17.2341C23.8721 17.2115 24.0686 17.2111 24.2414 17.2411L24.4981 17.2847C25.7286 17.5694 26.513 18.9749 26.1217 20.1347L26.11 20.1675C26.0105 20.4594 25.8517 20.705 25.6591 20.9436C25.622 20.9896 25.8161 21.201 25.8495 21.2592C26.6741 22.692 25.9944 24.424 24.2948 24.7271ZM23.9763 18.6389C22.8966 18.8156 22.9828 20.2826 24.0199 20.3261C25.1736 20.0986 24.9365 18.6155 23.9763 18.6389ZM23.8536 21.6836C23.3532 21.8379 23.0753 22.2543 23.2509 22.7827L23.291 22.8704C23.4542 23.2199 23.7977 23.3601 24.1639 23.3083C24.4632 23.2101 24.7205 23.0217 24.7786 22.6987L24.7846 22.668C24.8201 22.4725 24.803 22.2199 24.6915 22.0524L24.6709 22.0212C24.4797 21.7392 24.1751 21.6487 23.8536 21.6836Z" fill="black"/>
</svg>
