<svg width="48" height="48" viewBox="0 0 48 48" fill="none" xmlns="http://www.w3.org/2000/svg">
<path d="M31.248 39.0144L26.051 39.3901L22.2073 39.386L15.9525 38.9191C15.327 38.8511 14.7604 38.8019 14.2126 38.4375L14.0278 38.3088C12.7491 37.3182 12.9864 36.0681 13.1953 34.7218L14.0419 28.6667C14.171 27.252 14.1835 25.3193 14.0024 23.9202L13.8451 22.705C13.7608 22.6775 13.6575 22.6845 13.5692 22.6804C12.3588 22.6233 10.4021 22.348 9.37522 21.6343L9.23398 21.5227C8.51356 20.8662 8.43594 20.3051 8.51502 19.4182L8.70688 17.393C8.72905 17.1192 8.73392 16.8429 8.77166 16.5705C9.18795 13.5688 10.7574 12.1468 13.1758 10.753L14.8454 9.77994C16.063 9.07292 16.3937 8.67936 17.8484 8.63131C18.4107 8.62794 19.5874 8.53171 20.0635 8.87131C20.2253 8.98672 20.3511 9.14539 20.5288 9.24055C22.7207 10.4143 25.1834 10.4065 27.406 9.26591C27.8274 9.04963 27.9871 8.831 28.4768 8.71963L28.681 8.67585C29.0219 8.61674 29.3854 8.62794 29.7307 8.62874C31.1012 8.63183 31.4436 8.68817 32.6003 9.39388L34.0197 10.2664C34.7393 10.6997 35.4907 11.0838 36.1799 11.5666C37.8504 12.7369 38.9929 14.4983 39.2227 16.5403L39.4112 18.6309C39.4358 18.9066 39.4389 19.2013 39.4902 19.4722C39.9382 21.8368 37.0263 22.392 35.2887 22.5969C35.1595 22.6122 35.0357 22.6502 34.9051 22.661C33.9586 22.739 34.2159 22.416 34.0862 23.3019C33.9272 24.3882 33.9094 25.0298 33.9104 26.1332L33.9263 28.108L34.4063 32.2854L34.7886 34.6994C35.0003 35.9039 35.2087 37.0218 34.3048 38.0218C33.5075 38.9039 32.3553 38.9555 31.248 39.0144ZM18.0853 10.0377L17.5355 10.0609C17.5226 10.2497 17.6007 10.4371 17.6314 10.6241L17.6546 10.7267C17.689 10.8542 17.6992 10.9861 17.727 11.1148L17.8704 11.7762C17.8945 11.8942 17.9034 12.0123 17.9449 12.1258L18.1031 12.7142C18.1107 12.7473 18.1213 12.7755 18.1331 12.8071L18.293 13.3193L19.2073 15.5525C20.0876 17.3519 20.3493 17.4596 21.8313 16.4107L22.9808 15.5348C21.541 14.4794 20.2702 12.9781 19.6625 11.2826L19.3746 10.3687C19.359 10.3095 19.3416 10.0614 19.2817 10.059L18.0853 10.0377ZM29.2209 10.0386L28.8077 10.0654C28.195 12.0257 27.6805 13.1774 26.123 14.6893L25.3957 15.3282C25.3069 15.3995 25.189 15.4553 25.1116 15.5363C25.6039 15.9405 26.0348 16.3817 26.5936 16.7031C29.1086 18.1423 30.3294 11.8868 30.4053 10.0516L29.2209 10.0386ZM31.7558 10.5588C31.6863 11.0866 31.6589 11.6093 31.5616 12.136C31.1609 14.3029 30.0457 18.0513 27.5979 18.3568L27.5561 18.3626C26.8721 18.4465 25.4757 17.8312 25.0467 17.3006C25.0172 17.5951 25.0295 17.8957 25.0298 18.1915L25.0321 19.5385C25.0326 19.7382 25.0707 20.0081 25.0285 20.198C24.8745 20.8897 23.7647 20.8286 23.6575 20.0952C23.622 19.8522 23.6483 19.5717 23.6482 19.3248L23.6476 17.6292C23.6475 17.3489 23.666 17.0546 23.64 16.776L23.6092 16.8065C23.552 16.8619 23.4812 16.8969 23.42 16.9479L22.9338 17.3447C22.2565 17.8656 21.4473 18.5184 20.5445 18.4905C18.5651 18.4294 17.5939 15.5826 17.0605 14.0158C16.8878 13.5084 16.7216 12.993 16.6001 12.4704L16.3627 11.4077C16.3108 11.1395 16.2977 10.8374 16.1942 10.584L13.7361 12.0538C11.3872 13.4554 10.3089 14.5359 10.0898 17.4963L9.88475 19.6537C9.86984 19.7946 9.83731 19.9339 9.88086 20.0715L9.88953 20.1022C10.1482 20.9587 12.9749 21.236 13.824 21.2943C13.9338 20.2436 13.9603 19.2501 13.7603 18.2145C13.5795 17.2788 14.4595 16.7998 14.8608 17.3791C15.4025 18.1611 15.3751 20.4955 15.2145 21.3365C15.1409 21.7217 15.1832 22.1958 15.2345 22.5823L15.4715 24.4221C15.5197 24.8835 15.508 25.3607 15.5108 25.8247L15.4994 27.7037C15.4976 27.7666 15.485 27.8384 15.5113 27.8959C15.4202 29.6518 15.1446 31.43 14.8512 33.1607L14.5827 34.8544C14.5039 35.3394 14.2741 36.1927 14.4865 36.6565L14.5009 36.6887C14.872 37.5063 15.7185 37.4758 16.475 37.5323L19.3378 37.7873L22.815 37.9796L25.6408 37.9719L31.8423 37.5395C33.3674 37.4 33.7165 37.0248 33.4917 35.4026L32.6251 29.1588C32.5424 28.255 32.5221 27.5723 32.5208 26.6552C32.5194 25.6316 32.4902 24.7933 32.6161 23.7775L32.7877 22.5C32.8775 22.0028 32.7851 21.4737 32.7445 20.9768C32.6595 19.9377 32.5921 18.7504 32.9226 17.7407L32.9334 17.7072C33.1473 17.0613 33.9938 16.9288 34.22 17.6604L34.233 17.6994C34.3336 18.0168 34.1852 18.4498 34.1172 18.7679C34.0551 19.0587 34.075 19.3726 34.0755 19.669L34.1061 20.6367C34.1186 20.832 34.1263 21.0263 34.1772 21.2165L34.1951 21.2833C34.9734 21.1889 35.8117 21.1497 36.5692 20.9413C37.7432 20.6183 38.2621 20.5992 38.0897 19.3269L38.0171 18.631C37.9231 17.7045 37.9375 16.6843 37.6478 15.7911C37.0943 14.0847 36.0805 13.1222 34.6052 12.2478L32.237 10.8379C32.1481 10.7822 31.8561 10.5357 31.7558 10.5588ZM26.9998 10.9573C25.6081 11.6932 23.3526 11.7441 21.8747 11.2881L21.0307 10.9646C21.2793 11.6376 21.7496 12.3353 22.2005 12.8812C22.8606 13.6387 23.3184 13.9963 24.0791 14.6432C24.3519 14.3486 24.665 14.12 24.9594 13.8512C25.7171 13.1595 26.4028 12.3325 26.8488 11.4026L26.9998 10.9573Z" fill="black"/>
</svg>
