<svg width="48" height="48" viewBox="0 0 48 48" fill="none" xmlns="http://www.w3.org/2000/svg">
<path d="M18.4812 40.9637C16.8263 40.9393 15.1609 40.6822 13.6408 40.016C12.357 39.4534 12.3392 39.3938 12.4623 38.1914L12.8274 32.9929L12.8338 28.6856L12.6872 26.2502C12.6124 24.7031 12.7655 25.6126 11.8057 26.2388C9.94972 27.4496 5.58706 25.5694 4.64254 23.9954C4.33344 23.4804 4.69391 22.7608 4.86345 22.2524L5.30877 20.8259L6.73606 15.3534C7.18311 13.5906 8.16547 12.0336 9.86745 11.2321C10.4299 10.9672 11.0747 10.8064 11.6603 10.5934L15.6684 9.23544C16.9146 8.80513 17.684 8.64317 18.6719 7.65678C19.2662 7.06349 19.2486 6.88058 20.0679 7.17814L20.8973 7.4481C21.5441 7.62969 22.1753 7.70577 22.84 7.73389C24.2799 7.79483 25.7464 7.77997 27.1642 7.49872C27.7753 7.37755 28.3537 7.12316 28.9615 6.98928L29.0214 6.98352C29.555 6.97372 29.7296 7.57278 29.9946 7.92786C30.5372 8.6548 30.5369 8.67702 31.3004 8.96047L37.8306 11.0733C39.7123 11.6817 40.9653 13.6033 41.3311 15.4738L42.0812 18.5714C42.104 18.71 42.1505 18.8606 42.1881 18.9961L42.4686 20.1797C42.5959 20.6439 43.5145 23.6381 43.39 23.9287L43.3787 23.9531C43.2143 24.3233 42.8576 24.6363 42.5352 24.8756C40.6513 26.2742 37.1093 27.8175 35.4044 25.3725L35.3856 25.3451C35.2728 25.9211 35.3898 26.521 35.2942 27.0944C35.2062 27.6223 35.1888 28.5628 35.1628 29.1631L35.1628 32.6223C35.1702 32.8277 35.2121 33.0284 35.2198 33.2344L35.2355 34.4267C35.2448 34.6842 35.2855 34.9285 35.3104 35.183L35.6261 38.4258C35.7721 39.2557 35.6158 39.4265 34.9321 39.8244C33.6097 40.5942 31.9119 40.8742 30.3904 40.9546L18.4812 40.9637ZM20.0874 8.46561C20.5057 9.51477 21.7041 10.6715 22.5743 11.3217L23.0353 11.6445C23.3813 11.8724 23.6736 12.2127 23.4872 12.665L23.4687 12.7078C23.2743 13.1618 23.0017 13.5658 22.7599 13.9937C22.3157 14.7796 22.0263 15.716 20.9128 15.2191C19.2151 14.4614 17.8901 12.9219 17.2367 11.2006L16.9093 10.0656L11.8509 11.7757L12.4235 14.7305C12.4506 14.8634 12.4528 15.0011 12.4782 15.1338L12.8937 17.7632L13.7477 24.836C13.8113 25.4802 13.8378 26.1365 13.8817 26.7831L13.9757 27.9726L13.8613 35.5678L13.657 37.7785C13.6276 38.0729 13.5766 38.3577 13.5625 38.6551C14.2547 39.063 14.9725 39.3177 15.7619 39.4681L16.676 39.615C17.007 39.6785 17.6846 39.7499 18.0448 39.7613L28.5529 39.7747L30.3049 39.755C31.6504 39.6777 33.4351 39.4969 34.5084 38.6725C34.3576 37.8872 34.298 37.079 34.2266 36.2832L34.0972 34.688C34.0814 34.4918 34.0425 34.2969 34.0333 34.1003L34.0336 27.7909C34.0466 27.5339 34.1027 27.2807 34.12 27.0234L34.3478 23.9472L34.8166 19.8917L35.6531 14.2617L36.1437 11.8031L31.0707 10.0854C30.5757 11.5972 30.2069 12.7679 28.981 13.9464C28.4105 14.4949 26.6113 15.9328 25.8766 15.0333C25.6108 14.7078 24.7544 13.1453 24.5647 12.711L24.5239 12.6117C24.4676 12.4702 24.4835 12.3025 24.532 12.1614L24.5445 12.1235C24.6755 11.742 25.0846 11.543 25.3996 11.3293L25.9853 10.9022C26.8175 10.255 27.4888 9.3807 28.0847 8.52003C25.6004 8.99703 22.5408 9.29896 20.0874 8.46561ZM29.2257 8.89452C28.2301 10.4972 27.2988 11.4775 25.754 12.488L26.6128 13.9843L26.6749 14.0824C26.9172 14.0977 27.7207 13.4825 27.9345 13.2958C29.0472 12.3242 29.6162 11.0496 29.9388 9.64799C29.9057 9.57496 29.8411 9.51528 29.7895 9.45439L29.4661 9.07597C29.4116 9.01419 29.321 8.88238 29.2257 8.89452ZM18.9718 8.92869L18.0125 9.6231L18.0972 10.0457C18.3075 11.5599 19.9323 13.4966 21.2824 14.0847L21.3247 14.1021L22.2587 12.5166C21.0728 11.661 20.1589 10.8512 19.3507 9.60313C19.2096 9.38521 19.1078 9.14788 18.9718 8.92869ZM10.6922 12.1758C8.29733 13.1734 8.14133 14.789 7.56285 16.919L5.93436 22.706C7.12555 22.614 8.17452 22.764 9.26834 23.2742L9.94124 23.6189C10.6269 24.0129 11.0042 24.4028 11.5909 24.8504C11.9074 24.4746 12.2026 24.0104 12.4519 23.5827L11.1905 14.6108C11.0408 13.8091 10.9485 12.9761 10.7354 12.1886L10.6922 12.1758ZM37.2581 12.1543C37.2073 12.3593 37.1908 12.5675 37.1505 12.7743L36.3776 17.0625L35.5888 23.3075C35.5236 23.8375 36.1774 24.526 36.5317 24.8874C36.932 24.5057 38.2684 23.5033 38.8244 23.3248L38.8452 23.3121C39.7603 22.7648 40.9508 22.5599 41.993 22.7149L40.6022 17.3818C40.0438 15.1685 39.768 12.9831 37.2581 12.1543ZM41.0037 23.8444C39.978 23.9881 38.4006 24.7867 37.6192 25.4979C37.8904 25.5006 38.122 25.4743 38.3864 25.4252C39.5635 25.223 40.8112 24.6441 41.7384 23.9118C41.4907 23.8571 41.2575 23.8255 41.0037 23.8444ZM6.51322 23.8695L6.1917 23.8883C7.25811 24.7529 8.84881 25.4376 10.2365 25.5069L10.5388 25.4968C9.92666 24.7878 8.14138 23.9466 7.29439 23.8848L6.51322 23.8695Z" fill="black"/>
<path d="M24.2396 21.5L24.1289 21.5208C22.7725 21.7326 21.8556 19.6521 21.7131 18.5662C21.5597 17.3971 22.5095 16.1553 23.6838 16.0163L23.6953 16.0118C24.7066 15.8203 25.9377 16.6605 26.1429 17.6618L26.1962 17.8593C26.4831 19.1517 25.6362 21.1747 24.2396 21.5ZM23.8362 17.1601C21.8457 17.7462 23.5368 20.5555 24.0686 20.3486C24.7157 19.8199 25.2775 18.8866 25.015 18.0208L25.0052 17.988C24.8466 17.4709 24.388 17.1021 23.8362 17.1601Z" fill="black"/>
</svg>
