<svg width="48" height="48" viewBox="0 0 48 48" fill="none" xmlns="http://www.w3.org/2000/svg">
<path d="M15.9419 40.919C14.3755 40.6317 12.8565 40.1851 11.3469 39.6843L4.08229 36.8602C2.39212 36.1588 2.6849 35.9751 2.80459 34.3354L3.50405 27.1664L4.95365 18.0476C5.40979 15.3033 5.42067 12.9786 6.83442 10.4863L7.98131 8.68347C8.08171 8.5406 8.05706 8.47432 8.0655 8.29957C8.154 6.46741 9.30398 6.70605 10.7804 6.83102L15.525 7.33933C16.5351 7.46444 17.1688 7.49351 18.1688 7.53424L19.0979 7.60624L28.408 7.61205C28.815 7.60802 29.2163 7.55885 29.6219 7.53387L34.5036 7.10191C35.7493 6.95608 37.0282 6.77997 38.2826 6.76737C38.6625 6.73994 39.0975 6.69255 39.415 6.94952C40.1483 7.54301 39.7041 8.65624 39.9976 8.8571C40.1163 8.93833 40.2015 9.08979 40.2844 9.20655C41.0448 10.2772 42.001 12.5234 42.2642 13.8281L42.9897 17.1475L43.8716 22.43C43.9306 22.8815 44.008 23.3269 44.0692 23.7777L44.8487 30.0504L45.2608 35.1214C45.3061 36.0686 45.2433 36.0475 44.4763 36.5395L41.8615 38.0716C38.6204 39.7923 34.8775 41.1787 31.159 41.1768C29.0096 41.1757 27.5051 40.7647 25.7346 39.4212C25.1442 38.9732 25.1781 38.9594 25.0038 38.2522L23.9773 34.2397C23.8845 34.4501 23.8407 34.6644 23.7888 34.887L23.5234 36.013C23.3163 36.8557 23.0529 37.7035 22.8909 38.5548L22.8479 38.7567C22.7516 39.0909 22.4399 39.2682 22.1838 39.4712C21.2611 40.2027 20.3071 40.8169 19.1365 41.0619C18.2179 41.2541 17.5873 41.1743 16.6559 41.0419L15.9419 40.919ZM9.64518 8.42665L9.56067 8.90772C10.1716 9.23538 11.9548 9.40544 12.7502 9.49413L16.1604 9.87593C16.8869 9.98416 17.6039 10.1572 18.3166 10.3346L18.9612 10.4997C20.4895 10.8221 21.6503 10.9143 23.1808 10.9156L24.7755 10.9L28.7749 10.4943L37.3201 9.17777C37.6339 9.08636 37.9596 9.01146 38.2547 8.86713L38.2713 8.41765C37.5529 8.44066 36.8506 8.52612 36.1362 8.5946L30.2437 9.16305L27.7735 9.25718L20.2223 9.26224L17.2883 9.1803C16.7926 9.16746 16.2657 9.1114 15.772 9.05716L11.9646 8.59155C11.1875 8.51533 10.4273 8.43532 9.64518 8.42665ZM39.0357 10.2885C37.908 10.7947 36.7502 10.9739 35.528 11.1236L37.0306 14.8205C37.5002 16.1061 38.1839 17.4864 39.2541 18.3575C39.9625 18.8794 40.7746 19.2689 41.6546 19.3834C41.4241 16.8743 40.6269 13.5623 39.5979 11.3382C39.4407 10.9983 39.2698 10.5759 39.0357 10.2885ZM8.81175 10.4183C7.23586 12.8451 7.00785 14.5729 6.70303 17.3602L6.5309 18.7204C6.51103 18.8731 6.4702 19.021 6.45768 19.1749C7.27317 19.0702 8.10909 18.7226 8.77757 18.2498C10.0501 17.2361 10.7019 15.0956 11.2151 13.6121L12.0794 11.0502C11.4043 10.9973 10.7178 10.8972 10.0549 10.7575L9.21211 10.5408C9.09895 10.5077 8.91932 10.4155 8.81175 10.4183ZM13.7798 11.2702L11.8009 16.6651C10.5357 19.5423 9.2857 20.3673 6.08235 20.9106L4.65944 31.6887C6.27403 31.9215 7.85278 32.2254 9.42482 32.6649L12.3434 33.6076C12.7534 33.7632 13.1319 33.9851 13.5506 34.1182L14.5143 34.3737C15.4054 34.6007 16.2932 34.7788 17.2033 34.9068L20.8621 35.2784C21.2317 35.2954 21.6078 35.3547 21.978 35.3287L23.1143 30.5594C23.1569 30.3741 23.1852 30.1785 23.2568 30.0016C23.5001 29.4003 24.4142 29.3857 24.706 29.9633L24.7513 30.0706C25.1114 31.0174 25.2352 32.343 25.5362 33.3656L25.9533 35.1768C26.309 35.1817 26.6514 35.2466 27.0052 35.2614L28.3978 35.27C28.9478 35.2691 29.4686 35.2617 30.0128 35.1938L31.0596 35.049C31.7177 34.929 32.3583 34.7392 32.9575 34.4402C33.2827 34.2778 33.5628 34.0754 33.912 33.9597L37.5545 32.869L39.4982 32.4086L43.3395 31.7247C43.2971 30.7892 43.1468 29.8644 43.0555 28.9339L42.1717 22.1485C42.1162 21.8125 42.022 21.4575 42.0139 21.1178C38.0651 20.5281 36.8139 18.5795 35.3091 14.9904L34.4296 12.8677C34.2314 12.3713 34.0524 11.8645 33.8224 11.3816L28.2254 12.2243C28.12 12.2382 27.9682 12.2276 27.8719 12.2627C28.0962 12.7802 28.4144 13.2664 28.5818 13.8094L29.0063 15.1671C29.1482 15.6607 29.2035 16.2014 29.2509 16.7112L29.3151 17.2542C29.3551 17.7708 29.3565 18.3667 29.317 18.8838C29.1362 21.2527 27.4775 23.7391 24.9284 23.8616C24.7052 23.8723 23.9462 23.8498 23.7371 23.7497L23.6184 23.6955C23.1303 23.789 22.2885 23.8243 21.9717 23.3792L21.9514 23.3518C21.7674 23.0979 21.8704 22.5332 21.8704 22.2343L21.8658 12.5439L13.7798 11.2702ZM26.3889 12.4327L23.2501 12.5559L23.2499 22.5198C23.4809 22.5216 23.849 22.4772 24.0573 22.5753C24.1574 22.6226 24.2751 22.6151 24.3836 22.6153L24.9205 22.6123C26.7724 22.4839 27.8393 20.8439 28.0391 19.1399C28.0864 18.7369 28.0761 18.3138 28.0748 17.9083L28.0539 16.7849C27.9665 15.4766 27.4311 14.139 26.8665 12.9769C26.7797 12.7982 26.7108 12.5973 26.6142 12.4264L26.3889 12.4327ZM4.48826 33.3514C4.4488 33.5299 4.45713 33.7098 4.44567 33.8909L4.36149 35.2009C4.94995 35.5221 5.62139 35.748 6.23995 36.0098L11.3279 37.9455C13.1084 38.5586 17.2423 39.9628 19.1343 39.4007L19.4829 39.2788C19.8873 39.1297 20.2634 38.8819 20.6247 38.6508L21.2545 38.1546C21.3083 38.0946 21.3355 37.9544 21.3587 37.8772L21.5061 37.3289C21.5416 37.1962 21.5863 37.0682 21.597 36.9305L19.2146 36.8053C17.1645 36.6335 15.1122 36.2767 13.1341 35.7094C12.4701 35.5189 11.8626 35.1647 11.2074 34.9375C9.02765 34.1817 6.78754 33.5853 4.48826 33.3514ZM43.382 33.361C42.8497 33.4225 42.3309 33.5292 41.8125 33.6255L37.7322 34.5374C36.7103 34.8066 35.6713 35.0684 34.6715 35.4128C34.2523 35.5572 33.876 35.8126 33.4826 36.0138C32.3237 36.6065 30.5866 36.8442 29.3089 36.9093L26.924 36.9002C26.7558 36.8919 26.5357 36.8468 26.3732 36.8717L26.5662 37.7134C26.6649 38.0286 26.6174 38.1232 26.9172 38.3324L27.49 38.6985C29.6996 39.9067 32.871 39.6599 35.256 38.9641L37.4416 38.2698C38.6056 37.8423 39.7695 37.3237 40.8674 36.7481L43.6536 35.1223L43.5162 33.36C43.468 33.3523 43.4302 33.3547 43.382 33.361Z" fill="black"/>
</svg>
