<svg width="48" height="48" viewBox="0 0 48 48" fill="none" xmlns="http://www.w3.org/2000/svg">
<path d="M28.635 41.885C28.0225 41.9213 27.5448 41.9648 27.2744 41.3247C27.0372 40.7633 26.8905 40.15 26.7013 39.5707L24.3353 31.7794C24.2243 31.4056 24.0667 31.0194 23.9927 30.6389L23.9874 30.6101C23.8991 30.7898 23.8617 30.9728 23.8046 31.1625L21.1168 40.3747C20.6124 42.2298 20.5524 41.951 18.7526 41.8244L14.6903 41.4492C11.1442 40.9567 7.60411 39.9902 4.61068 37.9557L3.76196 37.3724C2.85876 36.7053 3.02457 36.3601 3.24501 35.4034L4.37313 30.8077C4.56192 30.0934 4.70982 29.6565 4.71052 28.9189L4.75899 27.3633C4.8158 26.4502 4.97367 25.6739 5.13647 24.7739L5.33588 23.3707C5.8823 19.2907 6.06113 15.9403 7.93444 12.2064L8.24874 11.5795C8.58403 10.8925 8.49061 11.0112 8.4825 10.2655L8.47983 7.87314C8.48035 7.0991 8.27391 6.31347 9.2071 6.02514C9.42891 6.01441 9.60127 6.06068 9.81661 6.08993L13.4534 6.55366L15.6168 6.69522C15.8787 6.71125 16.1391 6.75728 16.4014 6.76366L17.7697 6.77388C18.4931 6.78386 19.1442 6.84982 19.8944 6.85113L29.2797 6.84541C29.5014 6.84007 29.7104 6.78063 29.9299 6.77467L31.8694 6.7555C32.0838 6.74514 32.2937 6.703 32.508 6.68791L34.3245 6.56083L37.9926 6.09963C38.2632 6.05829 38.5819 5.96196 38.8514 6.05453L38.883 6.06621C39.3226 6.22071 39.4853 6.56613 39.4982 6.99335L39.5048 10.1097C39.5048 10.3065 39.4586 10.9674 39.5434 11.1227C40.0601 12.0688 40.5762 13.0718 40.9559 14.0813L41.2506 15C41.3482 15.2977 41.4554 15.6117 41.519 15.9185L41.8651 17.4869L42.754 24.0117C42.8629 24.8726 43.1168 25.7154 43.2073 26.5781C43.2756 27.2296 43.3069 27.8579 43.3085 28.5134C43.3109 29.4645 43.308 29.5541 43.4822 30.4687L43.5751 30.8203C43.6412 31.1632 43.7632 31.5037 43.8375 31.8461L44.0979 32.9388C44.1249 33.0377 44.1354 33.1419 44.1705 33.2384L44.8896 35.7398C44.9657 36.1227 45.2478 36.5332 45.1071 36.9269L45.0945 36.9609C44.9325 37.4232 44.6077 37.5063 44.2006 37.7242L42.9963 38.3651C38.5396 40.6067 33.6357 41.8929 28.635 41.885ZM10.1542 7.83185L10.1553 10.1806C12.6605 11.1624 15.1078 11.2927 17.7354 11.295L32.2935 11.2857C33.2554 11.2367 34.8619 11.0639 35.7825 10.8161L37.5291 10.3204L37.8159 10.203L37.8247 8.73518C37.8245 8.44647 37.8391 8.14483 37.8056 7.85871L33.7971 8.32436L30.3232 8.46203C30.1029 8.47028 29.8922 8.53966 29.6661 8.54627L18.7194 8.5473C18.5771 8.54725 18.4272 8.55874 18.2883 8.52733L10.1542 7.83185ZM9.98227 11.932C9.63202 12.6041 9.22702 13.2536 8.91797 13.9455C8.3108 15.305 7.96449 16.7974 7.73771 18.2621L7.52414 19.7901C8.39452 19.6331 9.25261 19.2626 9.95817 18.7298C11.8114 17.3392 13.0558 15.0182 13.5023 12.7519L11.8996 12.4802C11.2495 12.3408 10.6128 12.1407 9.98227 11.932ZM38.0658 11.9646L36.4447 12.4119C35.824 12.57 35.1771 12.6747 34.5417 12.752L34.6966 13.4289C35.1353 15.3821 36.4457 17.5625 38.0559 18.7286C38.7255 19.2223 39.6356 19.6733 40.4701 19.781L40.305 18.4421C39.9471 16.2276 39.5365 14.7874 38.5072 12.8437L38.1837 12.2012C38.1508 12.1348 38.1122 12.0197 38.0658 11.9646ZM15.2099 12.9359C15.1232 13.1687 15.0721 13.4285 14.9979 13.6875L14.5914 14.9672C13.5205 17.9748 11.2472 20.8094 7.98094 21.4437L7.24453 21.5555C7.20047 21.7657 7.19283 21.9842 7.16494 22.1973L6.47766 26.9448C6.32517 28.0012 6.51699 29.183 6.28819 30.1406L6.12221 30.8148C5.90991 31.6139 5.64811 32.4231 5.49755 33.2344C6.93483 34.4996 10.9973 35.7002 12.8141 36.1588L20.1206 37.7708C20.2209 37.3241 20.3684 36.8866 20.4901 36.4452L22.7082 29.1302C22.8675 28.6336 23.0127 28.0868 23.2302 27.6134C23.5269 26.9676 24.3955 26.9033 24.7256 27.539C24.8782 27.8331 24.9642 28.1696 25.0676 28.4837L25.5593 30.0361C25.6739 30.4151 25.7771 30.8111 25.9148 31.1818L26.7717 34.0312C26.8315 34.2176 26.8736 34.4217 26.9446 34.6015L27.5898 36.7167L27.866 37.5915C31.362 37.9816 34.7286 36.0689 37.882 34.8636L42.4641 33.3333L41.8118 30.7265C41.595 29.8127 41.6132 29.6576 41.6195 28.7078C41.6305 27.0568 41.3536 25.9216 41.0872 24.3164L40.7511 21.5477C36.8996 21.2765 34.2084 17.7502 33.2048 14.2902L32.8643 12.921L30.9157 12.961C30.9076 15.05 29.7772 16.8581 27.6448 17.3418C26.9609 17.4969 26.2815 17.4828 25.5858 17.4835L22.1537 17.4834C21.6638 17.4828 21.1894 17.4862 20.703 17.412C18.8752 17.1333 17.2019 15.5119 17.1531 13.6112L17.1521 12.9532L15.2099 12.9359ZM26.4214 13.0017L18.8248 13.0077C18.6753 14.339 19.7422 15.6506 21.0544 15.7649L21.6268 15.7758L26.295 15.775C27.9606 15.7732 29.2816 14.8025 29.2345 13.0062L26.4214 13.0017ZM42.8643 34.9804C42.4433 35.134 42.0106 35.2326 41.5845 35.3659L38.8344 36.2953L35.2313 37.7703C32.9596 38.7067 30.9064 39.4363 28.3883 39.3041L28.603 39.9813C28.6198 40.05 28.6477 40.1157 28.6877 40.174L28.8289 40.1881C29.4163 40.1259 30.0111 40.176 30.5973 40.121L33.0471 39.8402C36.0203 39.4046 38.8354 38.4672 41.5479 37.1872L43.2961 36.2677L42.8643 34.9804ZM5.08017 34.9903L4.83713 36.0007C8.11421 38.5957 12.6365 39.6003 16.7014 39.9726C17.6074 40.0556 18.5082 40.1496 19.419 40.1446L19.6359 39.4123L14.5636 38.3134L10.6458 37.3476C8.73872 36.7983 6.75891 36.0646 5.08017 34.9903Z" fill="black"/>
</svg>
