<svg width="48" height="48" viewBox="0 0 48 48" fill="none" xmlns="http://www.w3.org/2000/svg">
<path d="M31.7169 40.4523L30.442 40.4495C29.5499 40.4035 28.636 40.2614 27.7703 40.0416C26.8194 39.8002 26.7071 39.691 26.4041 38.8217L23.9901 31.6392C23.7162 32.3409 23.5284 33.0894 23.2953 33.8067L21.5626 38.9527C21.49 39.1484 21.4291 39.3959 21.3082 39.5655C20.7564 40.3394 16.7547 40.506 15.7267 40.467C12.6752 40.3515 8.82874 39.5308 6.03171 38.4728C4.07276 37.7318 2.31691 36.6854 1.72036 34.5022C1.43164 33.4456 1.45104 32.0301 1.61923 30.9371C1.85808 29.3849 2.48865 27.9638 3.03135 26.5014L3.87097 24.0798C4.05411 23.4851 4.04202 22.9585 4.04782 22.3422C4.05119 21.9843 4.11648 21.6275 4.18472 21.2759L4.47073 19.9987C4.7996 18.711 5.99956 14.7675 6.8952 13.9724C7.0392 13.8445 7.04895 13.8052 7.04881 13.6258L7.04749 10.9966C7.0474 10.6289 7.00217 10.1905 7.07637 9.83161C7.3122 8.69081 8.2286 7.71679 9.41206 7.57861C10.0301 7.51125 10.6377 7.80051 11.2253 7.95262L13.7646 8.51911L16.6642 8.99681L20.1971 9.31457C20.4246 9.32882 20.6453 9.37598 20.8744 9.38522L26.7306 9.38568L31.0466 9.00243C31.5736 8.94698 32.1071 8.83964 32.6305 8.75348L37.3979 7.74815C37.6624 7.67278 37.9243 7.58301 38.201 7.56281C39.7349 7.45087 40.9254 8.88126 40.9407 10.3298L40.941 13.197C40.942 13.9133 40.7923 13.6357 41.173 14.0973C41.7981 14.8551 42.2662 16.1561 42.6065 17.0621L42.8443 17.7769C42.9674 18.1235 43.1139 18.4777 43.2027 18.8349L43.3002 19.1639C43.3696 19.5105 43.5155 19.85 43.578 20.1975L43.8685 21.5441C44.0502 22.1553 43.9078 23.1475 44.0704 23.895C44.1557 24.2876 44.2927 24.6509 44.4175 25.0308L45.9396 29.1675C46.1384 29.7034 46.2762 30.2899 46.3534 30.8557L46.4215 31.605C46.8653 35.8252 44.9027 37.5412 40.9551 38.8012C37.9697 39.7541 34.8499 40.3469 31.7169 40.4523ZM38.3391 9.03117C37.6397 9.15689 36.951 9.38081 36.2587 9.54651L33.0442 10.1863L28.2754 10.7643C28.0129 10.7808 27.7468 10.7744 27.4858 10.8072L27.2346 10.8336C26.8995 10.8893 26.5186 10.8698 26.1783 10.8709L20.4284 10.7985C18.1931 10.6732 15.9966 10.4112 13.795 9.99965L10.5079 9.26568C10.2272 9.18848 9.82001 9.01743 9.53248 9.04457C8.88359 9.10575 8.57763 9.7462 8.50742 10.3174L9.7032 10.5643L12.4923 11.1561L17.0861 11.8414C17.7483 11.905 18.4103 12.0234 19.0782 12.0282C19.3092 12.0299 19.5635 11.916 19.7892 11.8598C20.2553 11.7439 20.7746 11.6761 21.2529 11.6467L24.3458 11.5508C25.6784 11.5531 27.3336 11.5725 28.6085 11.9789C29.0295 12.1132 29.558 11.9684 29.9907 11.9278L32.0781 11.7066C34.0475 11.4461 36.0178 11.045 37.9572 10.618L38.9181 10.4307C39.087 10.3988 39.2925 10.4064 39.4512 10.3406L39.4122 10.0451C39.3109 9.56048 38.9111 8.97107 38.3391 9.03117ZM8.51445 11.7769L8.50751 13.4129C8.62039 13.4746 8.73321 13.5009 8.85106 13.5463L9.48842 13.8089C10.995 14.4338 12.5246 14.888 14.119 15.2236L16.383 15.596C17.1219 15.6858 17.8186 15.7534 18.5626 15.7483L18.5275 15.6928C18.3378 15.3869 18.1644 15.1262 18.0681 14.7886L18.0556 14.7463C17.9782 14.4758 17.979 14.1402 18.0173 13.8629L18.1125 13.388L8.51445 11.7769ZM39.2476 11.8678L29.8521 13.4169L29.9433 13.763C30.0245 14.0298 30.0126 14.5054 29.9375 14.7697L29.9273 14.8071C29.8424 15.1098 29.6442 15.5231 29.412 15.7379C29.4486 15.7669 29.4573 15.7579 29.5022 15.7572C32.3764 15.7452 35.6862 14.9097 38.3251 13.8824L39.2306 13.5089C39.3239 13.4689 39.4736 13.4754 39.4737 13.3493L39.4603 11.8508L39.2476 11.8678ZM23.3082 13.0367L21.3254 13.1222C20.451 13.1813 19.0387 13.3344 19.5449 14.5693C19.9788 15.6276 23.5029 15.5594 24.6401 15.5575C25.3598 15.5252 27.8229 15.3291 28.2964 14.8185C28.6318 14.4568 28.6034 13.8142 28.23 13.4879L28.098 13.3915C27.6703 13.1073 26.3559 13.1071 25.8468 13.0861L23.3082 13.0367ZM39.887 14.8193L37.7284 15.6777L34.2187 16.6563C33.1813 16.8792 32.1048 17.0248 31.049 17.1257L28.755 17.2336C28.3271 17.234 27.8995 17.2383 27.7184 16.7556L27.6915 16.6484L25.9464 16.9084L25.8757 20.0784L25.6893 21.9488C25.5434 23.3175 25.2658 24.1775 24.2239 25.2135C22.8471 26.5826 21.0232 25.827 20.5884 24.0268C20.3286 22.9516 21.0943 17.982 21.299 16.833L20.1909 16.6527C20.0318 17.1147 19.7185 17.2295 19.282 17.2307L18.6408 17.2298C15.5829 17.212 11.843 16.381 9.06012 15.2093C8.9239 15.152 8.20418 14.8213 8.10935 14.8366C7.24699 15.7938 6.58334 18.0229 6.21373 19.2511L5.66028 21.3458C5.61537 21.5595 5.55617 21.7805 5.52415 21.9957C5.43888 22.5684 5.52565 23.1622 5.42088 23.7407C5.28176 24.5087 5.04204 25.2134 4.78296 25.9449L3.66809 28.8767C3.34492 29.7747 3.07662 30.76 2.98764 31.7117C2.9307 32.3207 2.92526 33.6476 3.12999 34.1542L3.28437 34.585C3.67427 35.6152 4.97796 36.4795 5.9306 36.8827L7.22923 37.3641L8.51656 37.7833C9.51828 38.0652 10.5339 38.2813 11.5553 38.4722L14.0534 38.847C15.8048 39.0517 18.4325 39.0894 20.1624 38.5443C20.3899 37.998 20.5417 37.4124 20.7367 36.853L23.0424 29.7721C23.1313 29.5046 23.2087 29.2154 23.3314 28.962C23.6872 28.227 24.5185 28.4714 24.7689 29.2613L25.23 30.7142C25.2398 30.752 25.2532 30.7837 25.2671 30.8199L27.8709 38.5407C28.5258 38.8185 30.0272 38.9747 30.7619 38.9953C33.8534 39.0818 37.4296 38.3757 40.3414 37.4566C42.0701 36.911 43.9601 36.3044 44.7385 34.482C45.1945 33.4146 45.0795 31.902 44.8707 30.8042C44.7283 30.0554 44.481 29.3769 44.2182 28.6657L43.0137 25.3814C42.6191 24.1295 42.5801 23.8745 42.5312 22.6209C42.5013 21.8534 42.3158 21.1206 42.1171 20.3839L41.2165 17.5411C40.9564 16.8367 40.444 15.3299 39.887 14.8193ZM22.7591 16.987L22.09 22.1615C22.059 22.5205 21.8905 23.6594 22.0795 23.9675C22.4575 24.5839 22.7839 24.6851 23.2976 24.0536C23.8092 23.4436 24.1347 22.837 24.2155 22.0502L24.4716 17.6903C24.4713 17.4734 24.5006 17.2076 24.462 16.9962L22.7591 16.987Z" fill="black"/>
</svg>
