<svg width="48" height="48" viewBox="0 0 48 48" fill="none" xmlns="http://www.w3.org/2000/svg">
<path d="M31.2479 39.6241L29.1031 39.6639C28.7609 39.6544 28.4177 39.6148 28.0779 39.5755C27.0505 39.4565 26.7272 39.3622 26.4998 38.368L25.1277 32.7478L24.4245 30.5624C24.3329 30.2934 24.0333 30.1627 23.7656 30.2845C23.5424 30.386 23.4284 30.9717 23.3413 31.1953L22.4441 33.6253L21.0804 38.0878C20.8123 39.0658 20.9387 39.3797 19.7341 39.5685C18.9685 39.6885 18.2678 39.6283 17.4955 39.5747L14.9294 39.3437C13.0596 39.102 11.22 38.6771 9.37928 38.2797C7.16064 37.8008 4.33731 37.345 3.20184 35.0527C2.97078 34.5862 3.10011 34.1595 3.21059 33.6796L5.60814 20.5546L6.6879 14.0023C6.76647 13.5783 6.76872 13.2118 6.76858 12.7778L6.76975 9.99003C6.77158 9.11764 7.23123 8.34796 8.17679 8.25861L15.9144 8.99324C16.0997 9.02572 16.3003 9.01119 16.489 9.01194L31.125 9.0096L33.8455 8.90656C33.9886 8.89789 34.1212 8.86232 34.2638 8.85055L38.0039 8.53119L39.2465 8.36085C39.4007 8.3346 39.5519 8.26897 39.7061 8.25383C40.5713 8.1688 41.2213 9.03632 41.2223 9.87303L41.2275 13.7557C41.2344 13.9114 41.2759 14.0375 41.3 14.1871L41.4492 15.1833C41.5292 15.6552 41.6137 16.1298 41.6847 16.6027L42.2344 19.8984L43.1199 25.109L44.6771 33.308C44.6952 33.4149 44.6978 33.5275 44.7203 33.6328L44.9522 34.8858C44.9988 35.2065 45.0369 35.4488 44.8262 35.7211C44.1134 36.6417 42.0203 37.4382 40.9662 37.7346L37.8049 38.4927C36.667 38.7624 35.5345 39.066 34.3786 39.2539L31.2479 39.6241ZM8.23895 9.74291L8.22629 12.4682C8.22639 12.5612 8.21364 12.677 8.23553 12.7665L19.7119 12.7551L19.6128 12.5105L19.6034 12.4861C19.4222 12.003 19.5101 11.2804 19.7203 10.8278L19.9098 10.4974C19.4574 10.4666 18.9985 10.4813 18.5449 10.4812L15.8066 10.4776L10.2315 10.0314L8.87111 9.85142C8.66106 9.81964 8.4444 9.7986 8.23895 9.74291ZM39.7288 9.76166C38.6972 9.95221 37.6742 10.0334 36.655 10.1315L32.2387 10.4077C32.0164 10.4173 31.8032 10.4677 31.579 10.4743L23.8157 10.4817C23.3074 10.4818 22.7786 10.4493 22.2742 10.495L22.271 10.5209C22.2021 11.0368 22.008 10.7924 21.5742 10.9371L21.5368 10.9492C21.229 11.0534 20.8377 11.5683 20.9325 11.9066L20.9694 12.0438C20.9826 12.1019 21.0014 12.1459 21.0264 12.1992L21.0417 12.2335C21.1009 12.3607 21.1893 12.4416 21.2905 12.5357C21.6307 12.8441 21.9005 12.7665 22.335 12.7666L39.7682 12.7653L39.7288 9.76166ZM8.09031 14.2313L7.26423 19.2848C7.98273 19.0313 8.70128 18.5339 9.2703 18.0351C10.3745 17.0294 11.092 15.7126 11.3022 14.2335L8.09031 14.2313ZM12.8034 14.2312C12.7048 14.7097 12.6287 15.1791 12.4774 15.6472C11.725 17.9751 9.94033 19.8463 7.65264 20.6876C7.43626 20.7671 7.22884 20.8504 6.99765 20.876L5.04625 31.7646C5.35154 31.9273 5.71075 32.0245 6.03643 32.144L7.87501 32.8158C9.75475 33.4896 11.6352 34.135 13.5938 34.5406L14.7649 34.7811L17.2555 35.0642L18.3439 35.0796C19.1042 35.0814 19.7934 35.0302 20.5436 34.9048C20.8645 33.6532 21.3384 32.4217 21.7792 31.2079L22.1012 30.3317C22.3112 29.7633 22.5263 29.3659 23.0742 29.0439L23.2383 28.9687C24.3546 28.5202 25.4382 29.1472 25.8078 30.2226L26.4775 32.2562L27.1086 34.9341C27.9996 35.1289 28.9126 35.0909 29.8178 35.0807C33.1143 35.0432 35.888 34.2237 39 33.184L40.3242 32.7207C41.176 32.4372 42.0822 32.2 42.9676 32.0565L41.4107 23.5822L40.8906 20.8844C40.6835 20.8575 40.4671 20.7543 40.2723 20.6807C37.8105 19.7499 35.9931 17.6291 35.3559 15.0895C35.3239 14.9618 35.2331 14.2777 35.1922 14.2318L25.6958 14.2348C25.6839 14.3406 25.7245 14.418 25.7429 14.5186L26.11 16.5585L26.4998 20.5774L26.5086 22.1296C26.5075 23.8843 26.3432 25.6609 24.7617 26.7804C24.266 27.1313 22.8032 27.9733 22.5892 26.8593L22.5832 26.8314C22.3576 25.7256 24.7299 26.0675 25.0373 23.5312C25.0658 23.2956 25.0531 23.0475 25.0536 22.8103L25.039 20.1257C25.0182 19.7253 24.9753 19.3277 24.9444 18.9277L24.3399 14.9209C24.295 14.7148 24.278 14.4168 24.1868 14.2319L22.3232 14.234L22.0455 15.9389L21.658 19.6144C21.6162 20.3897 21.643 21.1955 21.6546 21.9723C21.6663 22.7577 22.0405 23.7579 20.9926 24.0048C20.3024 23.8247 20.2715 23.3449 20.2698 22.7234L20.2752 19.1153L20.5664 16.097L20.8686 14.2354L12.8034 14.2312ZM36.727 14.2323L36.6445 14.2534C36.6678 14.4617 36.7345 14.6831 36.7984 14.8828L36.8499 15.0738C37.2168 16.7581 38.8984 18.4629 40.4076 19.1588L40.5352 19.212L40.6092 19.2338C40.6237 19.0746 40.5718 18.8814 40.5459 18.7236L39.9462 14.8736C39.9091 14.6683 39.8626 14.4691 39.8493 14.2601L36.727 14.2323ZM4.76833 33.2136L4.63438 33.9401C4.52882 34.4311 4.48177 34.3873 4.78539 34.8122C5.58794 35.9355 7.13223 36.3258 8.41408 36.6017L11.9204 37.3476C12.1669 37.3986 12.414 37.4653 12.6626 37.5046L14.836 37.8669L17.2813 38.1002C17.4665 38.1138 17.6421 38.1548 17.8288 38.1644L19.5782 38.1747L19.6549 37.8566C19.6942 37.7522 20.08 36.4901 20.0616 36.4441L19.2789 36.5261C18.4652 36.5751 17.6762 36.5258 16.8678 36.47L15.2548 36.3254C12.4317 35.9399 9.73365 35.022 7.06848 34.0493L4.76833 33.2136ZM43.1999 33.4804L41.6133 33.8452L37.7762 35.1005C35.4754 35.8352 32.9871 36.4555 30.5574 36.5371L27.4917 36.4828L27.7884 37.6499C27.8301 37.7945 27.85 37.9348 27.91 38.0742C28.2788 38.3482 31.3449 38.1529 31.8499 38.1007L32.4744 38.0467C33.6083 37.8922 34.7456 37.723 35.8623 37.468L38.5547 36.8024C40.2361 36.4026 42.1906 36.1208 43.5325 34.927L43.2704 33.4921C43.2215 33.4724 43.2452 33.4746 43.1999 33.4804Z" fill="black"/>
</svg>
