<svg width="48" height="48" viewBox="0 0 48 48" fill="none" xmlns="http://www.w3.org/2000/svg">
<path d="M28.9628 38.4746L28.8048 38.5277C27.5891 38.906 26.3238 38.3076 25.7641 37.1862C25.5362 36.7295 25.4481 36.181 25.3055 35.6913L23.9935 30.9886C23.8725 31.3345 23.7961 31.6876 23.6972 32.0395L22.5963 35.9066C22.4437 36.4212 22.3414 36.9861 22.054 37.4459C21.5312 38.2826 20.4855 38.7988 19.5036 38.5875C18.9397 38.4662 18.3766 38.2358 17.8299 38.0515L8.2891 34.9817C7.14591 34.6289 6.19974 34.1633 5.93893 32.8541C5.81391 32.2269 6.07711 31.5742 6.23143 30.9753L8.6626 20.5882L9.88951 15.0098C9.98832 14.5635 9.97182 14.1729 9.97116 13.7147L9.96863 11.901C9.96722 10.532 10.067 9.50974 11.6616 9.21742C11.9235 9.20477 12.1325 9.25103 12.3868 9.28061L15.3165 9.48911C15.5734 9.50261 15.8252 9.54963 16.0834 9.55366L31.753 9.54536C31.9179 9.53857 32.0756 9.50205 32.2384 9.49235L33.065 9.46689C33.2022 9.46024 33.3349 9.43225 33.4715 9.42203L35.3197 9.27658C35.6861 9.23322 36.0354 9.17482 36.4084 9.21208C37.1229 9.28338 37.7863 9.90405 37.9533 10.5895C38.0455 10.9679 38.0185 11.3569 38.0185 11.7437L38.0193 13.7532C38.0212 14.2103 38.0114 14.614 38.1096 15.059L38.9071 18.7152C39.0224 19.2148 39.1795 19.7221 39.2644 20.2262L39.6398 21.9262C39.69 22.2273 39.7751 22.5501 39.8521 22.8478L40.0766 23.7426C40.1387 23.9796 40.17 24.2295 40.2259 24.4681L41.0256 27.8725C41.0953 28.2124 41.16 28.5519 41.2506 28.8871L41.4849 29.7777C41.5457 29.9913 41.5693 30.2216 41.6409 30.4325L42.0536 32.0863C42.2414 33.1651 41.5696 34.1843 40.6364 34.6795C40.1754 34.9241 39.6271 35.0114 39.129 35.1588L28.9628 38.4746ZM11.7472 10.7123L11.5567 10.8106C11.3199 10.974 11.4524 11.5932 11.452 11.8429L11.4501 13.3224C11.4507 13.6139 11.4396 13.9126 11.4673 14.2028C11.5911 14.2653 11.7278 14.2928 11.8595 14.3364L12.9142 14.6492C13.8686 14.9106 14.8149 15.094 15.797 15.2125L16.8765 15.3416C17.7793 15.4051 18.7033 15.395 19.6085 15.3781L21.0342 15.2995C21.0783 15.1048 21.0893 14.9118 21.1126 14.7141L21.1972 14.0855C21.2525 13.5929 21.3983 12.7597 22.1447 12.9818C22.4126 13.0615 22.6029 13.236 22.6895 13.5004L22.7014 13.5335C22.766 13.7198 22.7122 13.8978 22.6885 14.0863L22.5648 15.0984L25.519 15.1484L25.3835 14.1532C25.3524 13.9337 25.3078 13.7187 25.3394 13.4949C25.4401 12.78 26.521 12.8327 26.7351 13.4652L26.7505 13.4998C26.805 13.6244 26.8021 13.762 26.8219 13.8932L26.9543 14.9184C26.9693 15.0508 26.9672 15.1856 26.9997 15.3153L29.8381 15.383C30.3001 15.3823 30.7862 15.4084 31.2428 15.3341L31.4709 15.3098C33.0458 15.197 34.6739 14.8616 36.1482 14.2895C36.2811 14.2379 36.4493 14.2282 36.5607 14.1394L36.558 11.196C36.5571 10.96 36.4978 10.703 36.1902 10.7121C35.7364 10.7255 35.2669 10.8047 34.8135 10.8467L32.67 10.9803C32.3636 10.999 32.0564 11.048 31.7505 11.0575L16.0067 11.0511L14.0978 10.9443C13.9396 10.9357 13.7881 10.9046 13.6316 10.8886L12.1358 10.7538C12.0039 10.7378 11.8814 10.7107 11.7472 10.7123ZM36.7041 15.6449C34.142 16.7315 31.7603 16.8863 29.06 16.8785C28.4481 16.8768 27.8047 16.9091 27.1983 16.8301L27.3812 18.4643C27.4131 18.7546 27.5069 19.0858 27.4592 19.3771C27.3533 20.0239 26.1174 20.2795 25.9599 19.0516L25.7836 17.4948C25.7465 17.2034 25.7351 16.8925 25.6819 16.6058L22.3494 16.5755C22.3124 16.7422 22.3122 16.9088 22.2875 17.0768L22.037 18.8963C21.9753 19.3271 21.9693 19.7531 21.4454 19.8812L21.4081 19.8905C20.1471 20.191 20.6145 18.3246 20.7107 17.6914L20.8173 16.8046C20.3975 16.8046 19.9813 16.8557 19.5613 16.8696L17.3083 16.8678C15.5552 16.8257 12.8141 16.3285 11.2486 15.6844L8.58994 27.5376L7.53896 31.8248C7.49335 32.0027 7.41727 32.1892 7.39341 32.3705C7.25771 33.4012 9.38569 33.7516 10.0584 33.9783L19.2188 36.9422C19.609 37.0826 19.881 37.2185 20.2912 37.0623C21.0844 36.7122 21.1385 35.5912 21.3641 34.8351L23.1636 28.3749C23.2978 27.8537 23.4736 26.9724 24.2818 27.3014C24.434 27.3634 24.6151 27.5233 24.6673 27.6826L24.6893 27.7501C24.7225 27.8367 24.7422 27.9332 24.7596 28.0243L26.8621 35.7331C26.9817 36.1775 27.0933 36.7383 27.5222 36.9914C28.0517 37.3038 28.4804 37.0247 28.9982 36.8538L38.8595 33.6796C39.6759 33.4337 40.8175 33.2686 40.5482 32.0986L40.3502 31.2827L35.8951 32.955C35.3784 33.1483 34.7389 33.3465 34.4806 32.5949C34.2469 31.9146 34.9559 31.7189 35.3907 31.5676L38.5548 30.3767C38.9888 30.2118 39.453 30.0688 39.8675 29.8617C40.025 29.783 39.98 29.7833 39.9422 29.6239L36.7536 15.6484L36.7041 15.6449Z" fill="black"/>
</svg>
