<svg width="48" height="48" viewBox="0 0 48 48" fill="none" xmlns="http://www.w3.org/2000/svg">
<path d="M28.2936 38.6734C27.4419 38.2175 27.1434 37.5712 26.7858 36.7235L23.9803 29.5128C23.8723 29.7074 23.8115 29.9026 23.7318 30.1093L21.2835 36.4222C21.0972 36.871 20.9388 37.3732 20.6957 37.7933C20.2658 38.5358 19.2883 38.9883 18.4524 38.9199C17.9353 38.8776 17.452 38.693 16.9692 38.5122L15.8747 38.1204C13.8871 37.4285 11.8809 36.8876 9.7576 36.9929C9.21831 37.0196 8.64278 37.1585 8.10849 37.0783C7.25884 36.9507 6.4231 36.6279 5.89862 35.9135C5.12443 34.8589 5.38248 34.116 5.59768 33.012L6.17565 29.9597L7.51988 21.2347L8.15068 14.4075C8.18884 13.7436 8.17206 13.13 8.6432 12.591C8.72973 12.4921 8.93959 12.338 8.95623 12.2133C9.15709 10.7079 9.40539 9.24352 11.1993 9.03272C11.4207 9.01027 11.6537 9.05217 11.8725 9.08288L12.6402 9.17785C13.3777 9.26869 14.1566 9.34885 14.9003 9.38208L20.0783 9.39333C20.2995 9.38921 20.5112 9.33839 20.7309 9.33286L25.2263 9.33699C25.401 9.34449 25.5725 9.38447 25.746 9.39225L27.6331 9.471L31.5044 9.47171C31.7348 9.46557 31.9629 9.42708 32.1934 9.41452L36.0804 9.07369C37.6444 8.87208 38.6481 9.65864 38.8909 11.1501L39.0081 11.6665C39.0564 11.8341 39.0298 11.9944 39.0645 12.1538C39.0713 12.1854 39.5673 12.8347 39.6706 13.0917L39.7364 13.2771C39.8364 13.626 39.8718 14.0681 39.8997 14.4363L40.4471 20.0862C40.4931 20.6178 40.4159 21.1562 40.4871 21.6851C40.5189 21.9215 40.5979 22.1641 40.6405 22.4011L41.6251 28.1604C41.6838 28.5348 41.7567 28.9103 41.8071 29.2854L42.5169 33.4339C42.5416 33.5587 42.5443 33.6889 42.5731 33.8123C43.0768 35.9645 40.9896 37.2069 39.0209 37.0938C38.5733 37.0681 38.1305 36.996 37.682 36.9931C36.2185 36.984 34.7229 37.3377 33.3347 37.7819L30.8808 38.6183C30.2618 38.806 29.6252 39.0272 28.9694 38.9019L28.7921 38.8618C28.6185 38.8158 28.458 38.7445 28.2936 38.6734ZM36.5322 10.6266L33.1989 10.9874C33.0202 11.001 32.8513 11.0405 32.6717 11.051L27.2304 11.0725L25.84 10.9749L20.8124 10.9185C20.6516 10.9234 20.4938 10.9563 20.3324 10.9613L14.6249 10.96C14.4254 10.951 14.2337 10.9058 14.0356 10.8909L12.0629 10.7205C11.6227 10.6643 11.16 10.509 10.8586 10.9269C10.5631 11.3366 10.5912 11.8978 10.5177 12.3756L13.4238 12.8555L17.305 13.2646C18.1937 13.3375 21.8417 13.4635 22.3346 13.32C22.5255 12.6576 22.8911 12.1515 23.5032 11.8137L23.7186 11.7169C24.8921 11.2575 26.317 11.8308 26.906 12.9378L27.098 13.3744L31.2599 13.3223C31.4454 13.3132 31.6258 13.2756 31.8101 13.2617L33.4951 13.1235C33.6139 13.1102 33.7246 13.0679 33.8436 13.0534L37.5288 12.4595L37.4293 11.7542C37.3483 11.2324 37.1944 10.568 36.5322 10.6266ZM24.4689 13.153C23.533 13.3868 23.7969 14.1938 23.868 14.8963C23.9251 15.4609 23.9552 16.0548 24.0111 16.6095C24.1148 17.6391 24.1602 19.1151 24.0479 20.1401C23.9679 20.8701 23.5061 23.2991 22.6291 23.4456C22.1827 23.5202 21.8261 23.2398 21.7431 22.805L21.7374 22.7777C21.6797 22.473 21.9224 22.0325 22.0225 21.7439L22.28 20.9337C22.6989 19.5303 22.5378 16.3099 22.2628 14.9356L15.5676 14.7768C15.5373 16.4609 14.8869 18.0007 13.6629 19.1806C12.6973 20.1116 11.4386 20.5592 10.1679 20.8974L9.40098 21.1225C9.30498 21.1521 9.19267 21.1415 9.15878 21.2461C9.01117 21.7018 8.94742 22.2038 8.88099 22.6761L7.83971 29.7395L6.99563 34.0901C6.62424 35.8778 8.61732 35.4778 9.71434 35.3993C12.0201 35.2341 14.3731 35.9071 16.5241 36.6784L17.7793 37.14C18.7363 37.4681 19.103 37.4411 19.5057 36.3546L21.8005 30.6324C22.1066 29.8627 22.3459 28.967 22.9082 28.3366C23.0605 28.2013 23.2037 28.0953 23.3905 28.0115L23.4292 27.9935C23.7007 27.871 23.9978 27.8632 24.2843 27.9295L24.3269 27.9391C24.7021 28.0281 25.0458 28.2862 25.2538 28.6078L26.8291 32.7789L28.1448 35.8321C28.9935 37.6074 28.7345 37.6453 30.5156 37.017L31.7754 36.5925C33.999 35.7996 36.1761 35.2513 38.5461 35.3908C38.9188 35.4127 39.2935 35.4858 39.6678 35.4465L39.7056 35.443C40.4858 35.3626 41.076 34.8157 40.9803 34.0159C40.8737 33.1244 40.6774 32.2327 40.5237 31.3479L38.9283 21.8792C38.9078 21.7313 38.9421 21.3606 38.8656 21.2416C38.115 20.9326 37.3212 20.7539 36.5669 20.4595C34.5757 19.6824 33.1991 17.7786 33.0267 15.6609C33.0037 15.378 33.0138 15.0906 33.0023 14.8067L27.2926 14.9783L27.3 17.4061C27.2963 19.2018 27.241 20.5813 26.4332 22.2079C25.9175 23.2462 24.8425 22.7237 24.8668 21.9786C24.8753 21.7192 25.3722 20.6602 25.4779 20.3128C25.6942 19.6017 25.7087 18.8232 25.71 18.0878L25.7066 14.8927C25.6955 14.0825 25.6007 13.0869 24.4689 13.153ZM9.71434 13.8172C9.61876 14.2936 9.65167 14.775 9.61585 15.2559L9.32424 19.5026L10.516 19.1732C11.1772 18.9668 11.8257 18.6601 12.3782 18.24C13.1549 17.5958 13.8862 16.5433 13.989 15.5042L14.0361 14.4891L9.71434 13.8172ZM38.1982 13.9573L35.0504 14.5035C34.5382 14.5568 34.7042 14.5035 34.7377 15.0518C34.7537 15.3149 34.7445 15.5844 34.7803 15.8455C34.9134 16.8158 35.5448 17.9368 36.3766 18.4463C36.8974 18.8564 37.5129 19.0789 38.1365 19.2816L38.8233 19.5063L38.1982 13.9573Z" fill="black"/>
</svg>
