<svg width="48" height="48" viewBox="0 0 48 48" fill="none" xmlns="http://www.w3.org/2000/svg">
<path d="M28.7865 41.9835C28.4714 41.534 28.2757 40.9734 28.0655 40.4677L26.694 36.8794L23.8707 28.7637C23.652 29.2955 23.507 29.86 23.3198 30.404L22.2156 33.5976L19.0792 41.8732C18.8557 42.4027 18.8276 42.8802 18.2354 43.0832C14.4851 44.3683 8.41204 42.1411 5.11265 40.4923L3.93145 39.8664C2.73622 39.1986 2.74294 39.0978 2.96995 37.8632L5.45634 23.03C5.58009 22.2007 5.70923 21.9749 5.56021 21.1596C5.44429 20.5254 5.43829 19.9002 5.4373 19.2571L5.45015 17.5457C5.46102 17.3233 5.5071 17.1085 5.52271 16.886L6.30674 10.3827C6.40504 9.75314 6.39613 9.4703 6.39557 8.84259L6.39534 6.38465C6.39641 5.60456 6.54866 4.85531 7.44266 4.5894L7.48007 4.5786C7.62402 4.535 7.75326 4.5205 7.90274 4.51019C8.2304 4.48577 8.57751 4.60027 8.89438 4.67323L13.4647 5.74223C14.3824 5.92795 15.3093 6.09051 16.242 6.18637L17.2682 6.2834C17.6494 6.30562 18.0386 6.3089 18.4165 6.36365C18.9909 6.44681 19.6107 6.38601 20.1916 6.41062L24.712 6.45965C24.8953 6.45333 25.0732 6.41405 25.2538 6.40561L27.098 6.37589C27.239 6.36876 27.3751 6.34242 27.5152 6.33215L29.0155 6.21178C30.2287 6.10078 31.4579 6.0053 32.66 5.80823L39.1125 4.65524C39.9505 4.48819 40.7639 4.329 41.332 5.19305C41.738 5.81058 41.5982 6.56011 41.5977 7.2668L41.6093 12.4929C41.6349 12.9988 41.6817 13.5071 41.7281 14.0118L42.3897 18.3983C42.4099 18.525 42.4409 18.6488 42.4551 18.7768L42.5024 19.557C42.5292 20.0391 42.4846 20.5658 42.431 21.0464C42.412 21.2168 42.338 21.4253 42.3559 21.5942L45.1357 38.6789C45.438 40.0787 44.641 40.0379 43.5996 40.2421C42.7829 40.4023 41.9653 40.5692 41.1675 40.8099C40.4007 41.0413 39.6716 41.3857 38.9198 41.6601L37.5744 42.1021C35.2875 42.8623 31.629 44.1506 29.4507 42.6526L29.4149 42.6276C29.1628 42.4532 28.9671 42.2292 28.7865 41.9835ZM8.0151 6.12947L8.02518 9.08236C8.48104 9.18192 8.94491 9.29676 9.40612 9.36544L13.7466 9.82364C14.8011 9.88514 15.8769 9.84295 16.9341 9.84314L33.9959 9.82645L37.2516 9.49959L39.5144 9.10814C39.9265 9.01725 39.9603 9.14522 39.9603 8.68476L39.9603 7.91006L39.9584 6.16926L31.91 7.56159L28.13 7.9447L25.1131 8.0534C24.9471 8.05917 24.784 8.09367 24.6168 8.09939L20.9194 8.10347C20.7178 8.09976 20.5191 8.05978 20.3174 8.05411L19.01 8.04005L14.83 7.65075C12.5246 7.30669 10.2671 6.7192 8.0151 6.12947ZM39.9064 10.746L37.3981 11.2074L37.7444 13.1227C37.8185 13.5032 37.8778 13.9381 38.0075 14.3045L38.3836 15.4917C38.6157 16.0665 38.8178 16.6478 39.098 17.203L39.8182 18.4956L40.6921 19.7104C40.7683 19.7855 40.8165 19.8255 40.8774 19.9238C40.8737 19.23 40.7538 18.5962 40.6378 17.9124L40.0551 13.9218C39.9962 13.2711 39.9599 12.638 39.9572 11.9845L39.9064 10.746ZM7.91427 10.7677C7.82282 11.1075 7.79619 11.4852 7.74937 11.8344L7.11341 17.5918L7.0582 19.8646L7.96602 18.3787C8.9227 16.7196 10.2323 13.1665 10.3213 11.1645L8.8746 10.9687C8.56068 10.9213 8.21427 10.8723 7.91427 10.7677ZM11.9714 11.3788L11.6508 13.1446C11.0678 15.7475 10.1118 18.2123 8.65523 20.4548L7.85488 21.5636C7.69527 21.765 7.54405 21.9872 7.33513 22.141L7.24457 22.2069L6.23863 28.569L4.66161 37.9145C4.6458 38.0287 4.60824 38.1486 4.60525 38.2628C6.49893 39.6189 10.5407 40.9751 12.7264 41.4371L14.2689 41.6552C14.9995 41.7514 15.8804 41.8231 16.616 41.7058L17.4347 41.5511L21.4117 30.83L22.8098 26.5899C22.9844 26.0619 23.0849 25.3958 23.742 25.2854L23.7788 25.279C24.7821 25.122 24.9872 26.9107 25.2669 27.6327L27.2376 33.4687C27.3831 33.886 27.5031 34.3403 27.6817 34.7431L29.6588 39.9559L30.0652 40.8647C30.8953 42.7058 36.5906 40.7004 37.8462 40.236C39.1609 39.842 40.3448 39.2507 41.6976 38.9222L43.0116 38.6422C43.0998 38.6254 43.3832 38.6076 43.4399 38.5598L40.8116 22.4765C40.7777 22.2687 40.8212 22.1788 40.6544 22.035L40.311 21.7317C37.9633 19.4679 36.6911 16.3549 36.0579 13.2083L35.8406 11.88C35.8151 11.7059 35.808 11.532 35.7728 11.3589L24.697 11.5254L24.6844 21.567C25.8179 21.2112 26.6265 20.3643 26.7629 19.1835C26.7878 18.9675 26.7666 18.7331 26.8083 18.5232C26.9755 17.6814 28.4864 17.4838 28.4211 19.0285C28.3191 21.4429 26.7173 22.8975 24.386 23.3735C23.7169 23.5102 23.0774 23.4194 23.0739 22.5702L23.081 11.5245L11.9714 11.3788Z" fill="black"/>
</svg>
