<svg width="48" height="48" viewBox="0 0 48 48" fill="none" xmlns="http://www.w3.org/2000/svg">
<path d="M28.3686 40.4026C27.3339 39.954 26.9727 38.8123 26.5689 37.8593L23.9435 32.1238C23.8634 32.2301 23.8089 32.3715 23.7498 32.491L21.1292 38.5381C20.3665 40.3529 19.7692 40.6094 17.7158 40.7945L15.2203 40.8935C11.7867 40.8925 6.86753 39.8928 4.1025 37.6287C3.00727 36.7318 3.38809 36.507 3.65165 35.3201L6.87381 22.1901L9.31792 14.1701L9.68176 13.2882C9.88342 12.8404 9.79407 13.057 9.7711 12.6385C9.73243 11.9331 9.79131 11.2183 9.76412 10.5115C9.75582 10.2958 9.6421 10.0172 9.70196 9.81223C10.0863 8.4957 11.1107 7.70131 12.4982 7.62715C13.1167 7.61768 13.6768 7.95021 14.2532 8.13607C14.6976 8.27937 15.1754 8.37968 15.639 8.43228L17.3461 8.57656C17.5372 8.59193 17.7257 8.62817 17.9177 8.63646L30.3787 8.6344C31.3375 8.60684 32.5272 8.45946 33.4299 8.18928C34.2259 7.95101 34.9738 7.54699 35.8319 7.67309C37.1965 7.87367 38.5186 8.99117 38.5914 10.434C38.6285 11.1714 38.7108 12.4588 38.3822 13.0896L39.5459 16.8008C39.5954 17.046 39.6969 17.312 39.779 17.5512C40.0331 18.2914 40.1623 19.0728 40.4211 19.8118L40.5759 20.343C40.6212 20.5631 40.7184 20.7775 40.7637 20.9982L40.8576 21.3396C40.9012 21.572 40.9996 21.7986 41.0439 22.031L41.14 22.4005C41.1487 22.4476 41.1555 22.4866 41.1713 22.5321L42.5511 27.9976C42.5627 28.0736 42.5926 28.1408 42.604 28.2158L44.3581 35.5506L44.6103 36.3183C44.6491 36.4891 44.7032 36.5947 44.6372 36.7783L44.6141 36.8494C44.2962 37.7999 41.5732 39.0408 40.4706 39.4802C38.7155 40.1797 36.917 40.5984 35.0387 40.7836L34.1739 40.8729L30.6255 40.8507L30.1339 40.7884C29.6539 40.7428 29.1422 40.6953 28.6851 40.5339L28.3686 40.4026ZM12.3913 9.24242C11.9388 9.30439 11.2224 9.58278 11.3109 10.1429C11.4119 10.7828 11.2619 11.5013 11.3537 12.056L21.992 12.5633L23.023 12.5613C23.0526 12.2832 23.0927 10.5814 23.0306 10.2933L19.4576 10.2864C19.2481 10.2823 19.0422 10.2449 18.8324 10.2409L16.8179 10.2164C15.7809 10.1583 14.6677 9.98351 13.6822 9.66767L13.0242 9.42274C12.8075 9.33415 12.6325 9.21898 12.3913 9.24242ZM35.5038 9.28779C35.0362 9.35145 34.6146 9.54307 34.1654 9.67404C32.757 10.0847 30.9556 10.3339 29.4646 10.399L24.6639 10.4096C24.5965 10.5152 24.6365 12.3622 24.6473 12.614L26.1987 12.632L28.4597 12.6263C28.7231 12.6191 28.9794 12.5721 29.2432 12.5671L30.9997 12.5592L33.793 12.3646L36.6029 12.0228C36.754 11.9967 36.9253 11.9995 37.0579 11.9158L37.0592 11.0908C37.0581 10.125 36.5388 9.36762 35.5038 9.28779ZM36.6961 13.6957L31.6021 14.1665C31.4806 14.1744 31.3636 14.2029 31.243 14.2123L24.634 14.2672L24.6367 21.4826C24.6394 22.5029 24.4875 23.3385 23.6783 24.0695C23.3723 24.346 22.8523 24.6349 22.4288 24.6113C21.7292 24.5725 21.4209 23.6491 21.9704 23.2169C22.1022 23.1132 22.2602 23.0628 22.4033 22.9789C23.1443 22.5447 23.0385 21.6716 23.039 20.9434L23.0394 15.869C23.0391 15.322 23.0625 14.7627 23.031 14.2174L11.2062 13.7263C10.7376 14.9078 10.3639 16.1161 9.98354 17.3277L8.67868 21.7857L5.93828 32.644C6.66901 32.9777 7.48684 33.2121 8.25775 33.4365L20.3882 36.1669C20.455 36.051 20.4943 35.9122 20.5426 35.7874L20.8435 35.0261L23.0829 30.2749C23.1596 30.1358 23.2341 29.9776 23.3377 29.8563C23.7014 29.431 24.3767 29.4526 24.6855 29.9363C24.9206 30.3048 25.0789 30.7458 25.2618 31.1433L26.4654 33.7463C26.732 34.4267 27.1921 35.4918 27.599 36.1116L32.4623 35.3285L38.1441 33.9361L40.3004 33.2804C40.8678 33.0829 41.4498 32.8357 42.0295 32.6837L36.8998 13.677L36.6961 13.6957ZM5.57186 34.2536L5.07128 36.2885C6.62542 37.8754 11.1918 39.0098 13.2652 39.1884L16.2183 39.257L16.8325 39.2083C17.064 39.1956 17.2982 39.2005 17.5289 39.1778L18.9203 38.9886C19.26 38.8469 19.4086 38.4472 19.5404 38.126L19.6998 37.7198L14.7211 36.826L8.67746 35.2951L5.57186 34.2536ZM42.3586 34.3005L37.4964 35.8223L31.2765 37.1992L28.2289 37.6633L28.4319 38.1326C28.5945 38.542 28.7498 38.7969 29.1373 38.9876C29.833 39.1503 30.5235 39.1731 31.2312 39.2202C35.0473 39.4738 39.0932 38.7474 42.3628 36.7165L42.98 36.3114L42.3586 34.3005Z" fill="black"/>
</svg>
