<svg width="48" height="48" viewBox="0 0 48 48" fill="none" xmlns="http://www.w3.org/2000/svg">
<path d="M20.6896 40.4879L20.4518 40.5916C18.91 41.2191 16.7241 41.299 15.064 41.2202L14.2235 41.1491C12.0522 40.9899 9.89469 40.5845 7.8395 39.8571L6.67208 39.4191C5.85294 39.0656 6.13546 38.2509 6.25316 37.5814L6.74488 34.0701L8.00389 23.9129L8.58167 19.6574L9.69224 13.5969C9.92366 12.6797 10.3254 11.9369 10.9933 11.2739C11.1906 11.078 11.2586 11.1396 11.2592 10.8524V7.78719C11.2547 6.50432 11.9641 6.65259 12.8207 7.09518C13.9077 7.65674 15.1145 7.90668 16.3126 8.09268L20.4026 8.47621L27.891 8.46876C28.1548 8.45877 28.4109 8.40759 28.6738 8.3901C30.8396 8.24615 32.9496 8.04496 34.9664 7.19418C35.2953 7.05548 35.5882 6.86244 35.9294 6.75313C36.8982 6.71273 36.7508 7.72012 36.7514 8.36019L36.7385 10.799C36.7316 11.0506 36.8867 11.0707 37.046 11.247C37.7963 12.0779 38.155 12.9711 38.3945 14.0488L38.7758 15.9377L39.7606 22.3807L41.2034 33.7034C41.2561 34.0451 41.287 34.3947 41.3481 34.7346L41.8029 37.9024C41.9663 38.9518 41.9532 39.1494 40.8624 39.5946C38.7975 40.4371 36.5661 40.8704 34.3531 41.0754L32.5665 41.2141C31.5443 41.2684 27.8361 41.1749 26.9532 40.638C25.5637 39.7928 25.5976 38.8892 25.4739 37.4892C25.4062 36.723 25.3373 35.9588 25.2071 35.2L24.1901 30.7998C24.0058 30.1523 24.017 30.0162 23.8311 30.8021L22.8559 34.8322C22.7139 35.49 22.5454 36.1348 22.512 36.8103L22.4752 37.8049C22.4594 38.0487 22.4123 38.2697 22.3477 38.5056L22.3206 38.6005C22.0529 39.4154 21.4503 40.0989 20.6896 40.4879ZM12.7552 8.72521C12.7132 8.99694 12.7244 9.2736 12.7246 9.54702L12.7274 10.7211C12.7289 10.972 12.7827 11.3609 12.6868 11.5901L12.6743 11.6208C12.5319 11.9557 12.2093 12.1971 11.9585 12.4505C11.2695 13.1462 11.0948 14.0516 10.9264 14.985L10.2247 18.8131L9.71567 22.5377C9.67489 22.8751 9.61044 23.1971 9.60585 23.5393C11.082 22.8557 12.1575 21.8051 12.7282 20.248C12.9499 19.6432 13.0415 18.9727 13.1897 18.3455L14.438 12.9846C14.5294 12.6123 14.5759 12.2113 14.9732 12.035C15.594 11.7595 16.1644 12.2781 15.9905 13.008L14.5409 19.1803C14.424 19.7085 14.3143 20.2496 14.14 20.7627C13.5239 22.5768 12.0701 24.1883 10.2641 24.8752C10.1496 24.9187 9.38774 25.1563 9.35825 25.1926L8.31556 33.6445C8.29808 33.7996 8.24235 33.9812 8.2445 34.1331C9.17389 34.7477 12.3839 35.4672 13.4584 35.6209L14.9252 35.8006C15.3308 35.843 15.8218 35.911 16.221 35.9185L16.9507 35.9237C18.3983 35.9243 19.5332 35.911 20.8083 35.1441L21.2791 34.8556C21.3757 34.6882 21.3992 34.3892 21.4411 34.1946L23.0315 28.2385C23.3228 27.3808 23.2554 27.4055 23.2559 26.4752L23.2557 16.2132C23.2558 16.0062 23.2201 15.7128 23.277 15.5155C23.5124 14.698 24.7188 14.8589 24.7257 15.7268L24.727 26.801L24.725 27.3534C24.7259 27.7417 24.9295 27.9877 25.0209 28.353L25.4563 29.7659L26.703 34.904C26.9261 35.0123 27.123 35.1501 27.3378 35.2716C28.3547 35.8467 29.1604 35.9256 30.3133 35.9252L31.7346 35.9062C33.6822 35.7852 36.2344 35.4208 38.0509 34.7822L39.4555 34.2934C39.5459 34.2569 39.6649 34.2277 39.7423 34.1702L38.6364 25.1525C36.3994 24.6762 34.5658 22.8384 33.8275 20.7057C33.6251 20.1211 33.5043 19.5099 33.3599 18.9093L32.2667 14.2034C32.1596 13.7428 32.0323 13.2823 31.9579 12.8153C31.8222 11.964 33.0328 11.6339 33.3791 12.4455L33.4 12.4873C33.5153 12.7223 33.5299 13.0281 33.5992 13.2808L34.3967 16.7794C34.4302 16.985 34.5064 17.1996 34.5571 17.4031L34.8272 18.5265C34.9404 18.9935 35.0138 19.4887 35.1567 19.9455C35.5769 21.2891 36.9421 23.1237 38.4042 23.4868L37.1565 15.4904C36.8708 14.0177 36.7785 13.1188 35.6665 12.0529C35.0494 11.4613 35.2393 11.5767 35.2663 10.8232L35.269 9.62629C35.2686 9.33524 35.2842 9.03309 35.2587 8.74344L34.2305 9.09055C32.2235 9.70026 30.1171 9.86601 28.0313 9.95277L27.1485 10.0222L21.0439 10.0254L18.8438 9.91846C18.6733 9.90932 18.5114 9.87196 18.3436 9.85888L16.5762 9.6884C15.2694 9.50512 13.9801 9.22373 12.7552 8.72521ZM8.04814 35.7307L7.68378 38.1605C8.09122 38.402 8.61266 38.5158 9.06308 38.6577C10.6625 39.1616 12.8105 39.5838 14.5076 39.679L16.182 39.7002C17.4906 39.6987 19.4361 39.6944 20.4895 38.7751C20.8698 38.3504 20.9994 37.9268 21.0033 37.3781L20.9642 36.7236C19.7511 37.434 18.072 37.523 16.711 37.4721L15.8983 37.4084C14.2093 37.3041 12.4755 37.0583 10.8407 36.6089L8.04814 35.7307ZM39.8986 35.7541C38.8446 36.0938 37.7958 36.456 36.7149 36.7061C34.4715 37.2251 29.3285 37.9946 27.2369 36.9241L26.9584 36.8015C27.0682 37.5824 26.8542 38.3587 27.3528 39.0369C27.9074 39.5757 28.5093 39.5456 29.2368 39.5922L32.494 39.6942C32.8706 39.6891 33.2341 39.6287 33.607 39.602L37.043 39.1583C38.1584 38.9374 39.2759 38.5828 40.3368 38.1768L39.9858 35.7541H39.8986Z" fill="black"/>
<path d="M20.703 17.1819C19.7729 17.2778 19.7871 16.5052 19.9229 15.8661C20.1351 14.8664 21.3387 11.708 22.4144 11.3482C22.9929 11.3087 23.3624 11.7409 23.2579 12.306L23.2514 12.3393C23.1979 12.6262 22.9094 12.8951 22.7379 13.1263L22.3829 13.6588C21.9844 14.3081 21.6787 15.0369 21.4842 15.7728C21.3354 16.3354 21.4209 17.0236 20.703 17.1819Z" fill="black"/>
<path d="M27.6511 17.1501C27.0644 17.3167 26.7392 16.882 26.6258 16.3478C26.4028 15.2978 26.0255 14.2883 25.4281 13.3905C25.0404 12.8078 24.0901 11.9488 25.2263 11.3721C25.7674 11.283 25.9965 11.5861 26.288 11.9805C27.1976 13.2106 27.9105 14.7054 28.1204 16.2319C28.1817 16.6779 28.1008 16.9614 27.6511 17.1501Z" fill="black"/>
</svg>
