<svg width="48" height="48" viewBox="0 0 48 48" fill="none" xmlns="http://www.w3.org/2000/svg">
<path d="M27.8384 37.1415C27.2382 36.571 27.3185 36.2651 27.0831 35.4722L25.8169 30.4098L25.6257 29.1773C25.5524 28.6129 25.4902 28.1102 25.0935 27.6648C24.9401 27.4925 24.8388 27.2997 24.6325 27.4373C24.1377 27.7674 23.7754 27.6951 23.4059 27.2504L23.3211 27.3084C22.4982 27.8562 22.4941 28.5408 22.3496 29.4254L21.9847 31.3941C21.6065 33.1599 21.0771 34.8943 20.5661 36.6245C20.365 37.3056 20.1287 36.9474 20.1281 37.771L20.1269 39.3046C20.126 39.5452 20.0879 39.7517 19.9339 39.9459C19.4487 40.5577 16.6867 40.5675 15.9688 40.5687L14.7424 40.551C12.3422 40.4086 9.83201 39.8213 7.70187 38.7121L6.99898 38.3179C6.64479 38.1147 6.14745 37.8618 6.02267 37.4392L6.0094 37.3881C5.87773 36.8155 6.15499 36.1054 6.25676 35.5418L7.09512 31.2301L8.41807 22.2426L8.65212 18.6461C8.73828 17.2605 9.18617 15.8494 9.70296 14.5717C10.0189 13.7905 10.4037 13.0224 10.6671 12.2214C10.7393 12.0018 10.7579 11.7481 10.8199 11.52L11.8558 8.20882C12.0023 7.73739 12.1099 7.46857 12.6261 7.31524C13.2328 7.29668 13.3566 7.5776 13.7949 7.91444C15.8311 9.47932 18.3579 9.88028 20.8539 9.88272L27.9768 9.87588C30.2066 9.79399 32.7887 9.21883 34.4709 7.70472C34.6004 7.58814 34.7232 7.45122 34.8859 7.38189L35.0016 7.33521C35.4943 7.17114 35.9711 7.53157 36.108 7.99343L37.0611 11.2443C37.0793 11.3211 37.1121 11.3835 37.132 11.457L37.1406 11.4957C37.1861 11.6933 37.1273 12.163 37.2142 12.3059L37.9682 13.6285C38.2206 14.1262 38.4797 14.7226 38.6088 15.2706L38.8593 16.1949C38.9357 16.5125 38.9752 16.8479 39.0341 17.1687C39.1177 17.6239 39.0657 18.0407 39.1654 18.5612L39.5078 20.7702C39.5349 21.009 39.5416 21.2585 39.5847 21.4941L40.771 30.1819L41.8966 36.5787C41.9187 36.7457 41.981 36.9073 42.0062 37.0777L42.0199 37.1725C42.0704 37.8562 41.1989 38.2168 40.719 38.4836C38.9513 39.4661 36.9411 40.072 34.9458 40.3728L33.2351 40.5455C32.8435 40.5842 32.4449 40.5692 32.0517 40.57L30.8921 40.5648C30.3392 40.5356 28.5604 40.339 28.1749 40.0057C27.6748 39.5732 27.8993 37.8593 27.8384 37.1415ZM13.1754 9.5035C13.0888 9.67807 13.0489 9.87344 12.9923 10.0589L12.5912 11.3906C14.1696 12.5849 16.0648 13.3486 18.0442 13.506C18.8162 13.5674 19.6223 13.5253 20.3971 13.5252L27.3737 13.5221C27.9193 13.5219 28.5146 13.5642 29.0543 13.4889L30.8317 13.2986C32.3394 13.0935 33.8025 12.6228 35.0653 11.7583L35.4277 11.4912L34.8297 9.51414C33.1488 10.7449 30.7913 11.368 28.7249 11.5227C28.1397 11.5665 27.5327 11.5345 26.9446 11.5354L21.0084 11.5367C20.4562 11.5359 19.8792 11.5656 19.3328 11.4829L17.9645 11.3185C16.3987 11.0773 14.664 10.6078 13.3743 9.63597C13.3127 9.58957 13.2488 9.52769 13.1754 9.5035ZM12.1452 13.1129C11.6092 14.1614 11.1214 15.3324 10.7729 16.4572L10.4559 17.6417C10.9394 17.5933 11.5243 17.3686 11.9426 17.1251C13.054 16.4517 13.7707 15.4737 14.1911 14.2515C13.5786 13.9437 12.9266 13.648 12.3689 13.2446C12.3057 13.1988 12.2246 13.1132 12.1452 13.1129ZM35.8524 13.2301C35.4054 13.5015 34.9466 13.757 34.474 13.9815L34.0751 14.1662C33.9993 14.1986 33.9327 14.1948 33.8974 14.2728C34.2872 15.465 34.9297 16.407 36.0275 17.0761C36.4804 17.3344 36.9503 17.5175 37.4627 17.6165C37.2247 16.3347 36.6941 14.1155 35.8524 13.2301ZM32.2828 14.7066C31.5244 14.8919 30.7065 15.0203 29.9248 15.0719L28.5312 15.1083C28.3726 15.116 28.2208 15.1627 28.0603 15.171L26.2516 15.1815C25.7727 15.1831 25.2693 15.2137 24.7925 15.1769L24.8093 25.6646L25.0908 25.7501C25.9031 25.9829 26.62 26.816 26.9292 27.5621L27.1089 28.0042C27.255 28.4183 27.2466 28.8645 27.3027 29.2935C27.3905 29.967 27.6353 31.4846 27.8826 32.1321L28.8846 35.7155C28.9422 35.9273 29.5927 35.7807 29.8208 35.9148C30.0522 36.0509 30.8108 36.0167 31.0775 36.0176L32.2789 36.0168C34.9062 35.9524 37.4976 35.279 39.8276 34.0705L39.0306 29.6012L37.7217 19.7647C37.7037 19.6203 37.7002 19.4658 37.6561 19.327C35.1539 19.0003 33.2519 17.4261 32.4151 15.0141C32.3907 14.9437 32.3411 14.7308 32.2828 14.7066ZM15.7342 14.8004C14.8447 17.3048 12.9915 19.0768 10.2466 19.3495L9.84082 24.1008L9.23089 28.6529L8.20549 34.0702C9.89398 35.1527 12.6319 35.8477 14.5749 35.9943L15.7204 36.0262C17.0059 36.0251 17.8243 36.0218 19.0932 35.831L20.3652 31.1761L20.7115 29.4088C20.9532 27.8959 21.1325 26.3137 22.8747 25.712C22.9843 25.6742 23.1058 25.6711 23.2041 25.604L23.203 15.1887L19.912 15.1857C18.7595 15.1856 17.5965 15.1598 16.4586 14.9562L15.9996 14.861C15.9119 14.8397 15.8249 14.8033 15.7342 14.8004ZM7.86228 35.77L7.68289 36.7439C10.1352 38.5974 15.158 39.2349 18.2988 38.7895L18.3474 38.782L18.4775 38.7598C18.519 38.3895 18.4888 37.9889 18.4883 37.6151L14.6599 37.6661C13.0415 37.5666 11.3472 37.207 9.83299 36.6431C9.15471 36.3906 8.52874 36.0405 7.86228 35.77ZM40.0336 35.8004C37.8715 36.8512 35.652 37.4045 33.2673 37.6063L32.6833 37.6663C32.3179 37.6892 31.9429 37.6745 31.5767 37.6743L29.4886 37.5656L29.5079 38.2886C29.5081 38.424 29.4848 38.6058 29.5187 38.7356L29.7687 38.7722C30.4458 38.8976 31.132 38.9136 31.8183 38.9127L33.0301 38.9011C35.2166 38.785 37.698 38.1891 39.6206 37.1842C39.8444 37.0672 40.058 36.9277 40.2906 36.8277L40.0336 35.8004Z" fill="black"/>
</svg>
