<svg width="48" height="48" viewBox="0 0 48 48" fill="none" xmlns="http://www.w3.org/2000/svg">
<path d="M26.1862 38.3023L24.407 28.9681C24.3337 28.5188 24.2928 28.008 24.1424 27.5781L23.9577 27.0876C23.6065 27.7859 23.6023 28.6036 23.5042 29.3658L21.758 39.2653C21.7304 39.3899 21.7169 39.5179 21.6837 39.6412L21.6763 39.6678C21.601 39.9487 21.4264 40.1651 21.1261 40.2231C19.9064 40.4587 18.683 40.4818 17.4452 40.4808L15.8694 40.4762C12.661 40.3694 9.04748 39.6116 6.71512 37.2688C6.44751 37 6.13368 36.6573 6.00393 36.2952L5.99259 36.262C5.95495 36.1558 5.95054 36.0665 5.95828 35.9555L7.6094 21.4774C7.67803 20.868 7.68281 20.454 7.71604 19.8462L7.87617 17.681L7.91667 16.3015C7.92853 16.0429 7.97282 15.7873 7.97765 15.5271L8.20261 11.4473L8.22661 8.63263C8.22707 8.45591 8.20828 8.23283 8.26903 8.06502L8.27934 8.03886C8.4435 7.61249 8.75808 7.59425 9.14212 7.59317L11.5186 7.51874C11.9934 7.44833 12.4801 7.60517 12.9469 7.67703L14.6428 7.84794C15.2603 7.92786 15.924 7.8852 16.5482 7.8853L18.749 7.87892C18.9605 7.86917 19.1581 7.80013 19.3793 7.79356L28.6997 7.79384C28.8562 7.79891 28.9894 7.87531 29.1411 7.88117L32.4868 7.88356C33.0428 7.88089 33.6064 7.82684 34.1606 7.77847L35.7658 7.55839C35.9034 7.5335 36.0474 7.49614 36.1879 7.50636L37.8989 7.58956C38.7322 7.60142 39.7459 7.31328 39.7508 8.50869L39.749 11.2732C39.7388 11.5034 39.6134 11.5892 39.682 11.8406C39.8225 12.3561 39.8758 12.9361 39.9413 13.4646L40.0783 14.5076L40.288 18.7534C40.2764 19.8106 40.1369 20.5242 40.2853 21.5978L42.1861 35.543C42.2397 35.9616 42.355 36.2106 42.1337 36.5963C40.4878 39.4651 36.6146 40.2586 33.5908 40.4688C33.057 40.5059 32.5063 40.4819 31.9707 40.4814L29.9104 40.475L27.9341 40.3336C26.9079 40.244 26.6064 40.2721 26.3839 39.2342L26.1862 38.3023ZM36.3373 8.9502L34.0462 9.20038C33.8238 9.22138 33.6035 9.26 33.3799 9.27064L29.9707 9.28081C29.8748 9.28072 29.763 9.26811 29.6704 9.29272C29.7385 9.97677 29.7423 10.9931 29.6714 11.6783C29.6683 11.7082 29.6685 11.737 29.6699 11.767L29.7172 11.76C30.3814 11.6658 31.0712 11.7635 31.7407 11.6977L38.4056 10.938L38.3718 8.99159L36.3373 8.9502ZM11.0209 8.97209L9.63942 8.98452C9.58457 9.10166 9.63248 9.40766 9.63342 9.54697L9.63103 10.855L12.2955 11.3382C12.4344 11.36 12.5757 11.3602 12.7153 11.3755L16.6344 11.6939C16.739 11.7027 16.8487 11.6973 16.9516 11.7155L17.8688 11.7315C17.9994 11.7343 18.1684 11.7584 18.2927 11.7313L18.2994 9.2825L11.0209 8.97209ZM19.894 9.19283L19.77 9.22724C19.519 9.45031 19.6384 10.415 19.6394 10.7332C19.6404 11.0996 19.5262 11.5839 19.9087 11.7957L28.0069 11.7877C28.3964 11.6149 28.2972 11.1985 28.2977 10.8553L28.2968 9.91836C28.2958 9.71244 28.3528 9.34044 28.1606 9.20206L19.894 9.19283ZM9.49734 12.2256L9.11522 20.0352C10.1784 19.8254 11.0666 19.2122 11.804 18.4386C13.077 16.911 13.6033 14.868 13.7399 12.9124L9.49734 12.2256ZM38.3289 12.41L34.7175 12.9023C34.5745 12.9167 34.4245 12.9149 34.2851 12.9485C34.2847 14.9884 34.8151 17.1831 36.3137 18.6523C37.1977 19.5519 37.7588 19.6938 38.8353 20.073L38.8798 18.7676C38.8885 17.0535 38.8033 15.3563 38.5625 13.659L38.4549 12.9058C38.433 12.7444 38.4243 12.582 38.3794 12.4248L38.3289 12.41ZM15.1228 13.0229C15.0644 13.2312 15.0862 13.4684 15.0704 13.6873C14.8359 16.9254 13.0196 20.5921 9.61556 21.3642C8.81536 21.5457 9.06431 21.2491 8.94858 22.1754L7.91372 31.2887L7.38586 35.5904C7.34081 36.0007 7.63486 36.1984 7.90472 36.464C9.83348 38.3627 13.3754 39.0205 16.039 39.0594L17.8275 39.0642C18.0952 39.063 18.3922 39.0297 18.6559 39.0649L20.4226 38.9269C20.5467 37.8185 20.8073 36.709 21.007 35.6113L22.206 28.6203C22.3302 27.6242 22.4062 26.7356 23.0167 25.8984C23.4221 25.3423 23.2117 25.6576 23.4161 25.0276C23.865 23.6436 24.4268 23.3663 25.4866 22.6554C26.357 22.0715 26.3474 21.3608 26.3478 20.4453L26.3451 13.2359C26.0821 13.2017 25.8075 13.2178 25.5423 13.2178L19.3742 13.2161C18.9662 13.2115 18.5736 13.155 18.1704 13.1401L16.5239 13.1118C16.0574 13.0878 15.5919 13.0049 15.1228 13.0229ZM32.9126 13.0896L27.737 13.2169C27.6916 13.9526 27.725 14.7085 27.7255 15.4462L27.7264 20.8212C27.7251 21.9747 27.3719 23.0351 26.3953 23.7519C25.7034 24.2598 25.0247 24.4459 24.7979 25.4295C24.7264 25.7399 25.3917 26.7264 25.514 27.2227C25.5566 27.3956 25.5855 27.5716 25.6284 27.7437L27.5262 37.8729C27.7548 39.0441 27.4773 38.8202 28.4452 38.9403C29.2129 39.0356 29.632 39.0592 30.423 39.0626L32.7404 39.0649C33.125 39.0573 33.5198 39.0608 33.9028 39.0253L34.6308 38.9376C36.92 38.6974 39.492 38.0114 40.8514 35.9885L38.9301 21.9842C38.9114 21.84 38.9144 21.6181 38.8447 21.4906C35.6321 20.9467 33.6326 18.2215 33.0936 15.1142C33.0316 14.7567 33.0305 14.3796 32.9547 14.0303C32.9248 13.8926 32.9366 13.1083 32.9126 13.0896Z" fill="black"/>
</svg>
