<svg width="48" height="48" viewBox="0 0 48 48" fill="none" xmlns="http://www.w3.org/2000/svg">
<path d="M27.9391 39.5452L24.6339 33.2478C24.425 32.8583 24.2288 32.4606 23.9824 32.0938C23.8756 32.2449 23.8043 32.419 23.7156 32.5811L20.2367 39.2625C20.0433 39.6287 19.9385 39.8888 19.525 40.0537L19.4168 40.0942C18.7414 40.2729 16.2079 39.9848 15.497 39.8926L9.78859 38.9348C7.85186 38.5291 6.21297 38.2903 5.06209 36.5181C4.59668 35.8014 4.55396 35.6005 4.7574 34.8344L9.00311 20.0814C9.10197 19.7058 9.0775 19.2907 9.13473 18.9047C9.39939 17.1198 10.0366 15.3766 10.7653 13.7345C10.9977 13.2109 11.2511 12.3336 11.8712 12.1623L11.8989 12.1549C11.9852 11.8988 12.0352 11.6246 12.1131 11.3644L12.7966 9.17094C12.979 8.61102 13.0362 8.02161 13.7047 7.85511C14.0969 7.83866 14.4944 7.95285 14.8743 8.04172L17.9143 8.52111C19.039 8.6555 20.1872 8.70369 21.3183 8.75061L25.6445 8.82069L29.2226 8.6166L33.4737 7.97506C34.7484 7.7157 34.7765 7.88319 35.17 9.0777L36.0659 12.1344L36.2539 12.2034C36.6497 12.3626 36.8872 12.9056 37.0429 13.277L38.1711 16.1105C38.2625 16.3744 38.3691 16.67 38.42 16.9453L38.5202 17.3342C38.5404 17.4579 38.592 17.5733 38.6137 17.6985L38.8212 18.7614C38.9098 19.1256 38.835 19.5426 38.9405 19.8888L39.5455 22.0306C39.5549 22.0759 39.5629 22.1146 39.5785 22.1586L39.8243 22.9922C39.8622 23.1394 39.9051 23.2914 39.9527 23.4354L40.2951 24.6797C40.3507 24.9502 40.4565 25.2228 40.5336 25.4883L41.1416 27.6369C41.1498 27.6738 41.158 27.7078 41.1703 27.7437L42.6378 32.7422C42.6919 32.9664 42.7787 33.1878 42.8442 33.4101L43.2191 34.7226C43.3447 35.1871 43.4376 35.4233 43.2683 35.8939C42.6593 37.5863 41.0887 38.3166 39.4772 38.7117L37.7695 39.0955C36.0917 39.4372 29.9716 40.6297 28.3719 39.9921C28.1671 39.9104 28.0433 39.7297 27.9391 39.5452ZM33.5648 9.63964L30.0706 10.1928L26.8918 10.419C26.7406 10.4266 26.5928 10.4602 26.4408 10.467L22.1757 10.476L20.1006 10.3757C18.1758 10.2473 16.2691 9.98014 14.3688 9.65394L13.5757 12.1172C13.5621 12.167 13.5338 12.2339 13.5434 12.2848L14.3255 12.4042L17.2747 12.749L19.1185 12.8446L23.0495 12.8453C23.4385 12.8393 23.8157 12.6965 24.1825 12.6962C24.4005 12.696 24.6013 12.7732 24.8145 12.8018C25.0824 12.8377 25.3731 12.8408 25.6437 12.8456C28.1116 12.8896 30.5788 12.8494 33.0234 12.4932L34.4517 12.2759L34.005 10.7887C33.8791 10.4206 33.6948 10.0218 33.6445 9.63655L33.5648 9.63964ZM12.5952 13.6817C12.2296 14.3977 11.9275 15.1594 11.6465 15.912L11.0268 17.7206C10.9904 17.8467 10.9024 18.0465 10.9076 18.1756L11.2447 17.8403C12.0796 16.8449 13.1286 15.1571 13.2513 13.8142L12.5952 13.6817ZM35.3638 13.6992L35.3421 13.7061C34.9208 13.8377 34.6153 13.6107 34.8185 14.1418L34.9709 14.7238C34.9809 14.7723 34.9975 14.8024 35.0159 14.8476L35.3202 15.6521C35.6734 16.4696 36.2026 17.1824 36.7925 17.8406L37.1492 18.1975L35.8354 14.6015C35.7146 14.3132 35.6019 13.9513 35.4222 13.6977L35.3638 13.6992ZM33.0979 14.0508C32.5825 14.1604 32.0588 14.2129 31.5351 14.2626L30.0185 14.4072C29.3432 14.4515 28.5793 14.5236 27.9121 14.5278L26.7507 14.5302C26.0913 14.5301 25.3969 14.5715 24.7425 14.5056C24.3974 15.6457 24.1611 17.3025 24.0881 18.5148L24.0632 20.3399C24.064 20.7578 24.0176 21.2863 24.1696 21.6763C24.7277 22.0987 25.5492 21.5317 25.877 22.3594C26.0436 22.7798 25.8539 23.2291 25.4301 23.4044C24.934 23.6096 24.1534 23.4867 23.6803 23.2716C22.4419 22.7085 22.514 21.5144 22.5136 20.3708L22.5212 18.3892C22.5288 18.2343 22.5562 18.0835 22.5697 17.9297L22.7523 16.2364C22.8385 15.6303 22.918 15.0764 23.1031 14.4885L18.166 14.403L15.1813 14.1198C15.0773 14.1048 14.955 14.0665 14.8512 14.0727C14.7304 14.4292 14.6975 14.8228 14.5876 15.1869C13.9997 17.1343 12.5612 19.2778 10.7538 20.3214C10.4503 20.4967 10.5611 20.4401 10.4686 20.7867L7.11803 32.5352C7.50681 32.6786 7.94073 32.7583 8.34456 32.8519L11.128 33.536L20.2113 35.7365C20.2774 35.5838 20.3668 35.4429 20.4445 35.296L22.8714 30.8225C23.0658 30.5071 23.2656 30.0756 23.6015 29.8867L23.6337 29.8681C24.3532 29.4647 24.7136 30.0925 25.0135 30.6046L27.7938 35.7391L40.5412 32.5569C40.6484 32.5273 40.7771 32.511 40.8758 32.4618L37.3598 20.372C37.0536 20.2458 36.7342 19.9706 36.4776 19.7582C34.8833 18.4387 33.7695 16.6936 33.2868 14.6863C33.2386 14.4855 33.2284 14.2327 33.1501 14.0461L33.0979 14.0508ZM41.317 34.043L29.25 37.0318C29.0294 37.0837 28.6952 37.1137 28.5038 37.2177L29.1069 38.274L29.2328 38.4852C30.3512 38.5835 32.1343 38.4211 33.2109 38.2464L37.7917 37.4212C39.0624 37.1646 41.2262 36.8136 41.6703 35.4023L41.6792 35.3753C41.7502 35.1347 41.4483 34.2965 41.375 34.0473L41.317 34.043ZM6.65444 34.0968C6.51119 34.4298 6.41523 34.7905 6.34183 35.145C6.18133 35.92 7.50958 36.6794 8.10695 36.8703C9.08776 37.1836 10.1423 37.338 11.152 37.5351L17.0625 38.4491C17.632 38.5027 18.2176 38.4909 18.7902 38.5049C18.8586 38.4558 18.8934 38.3555 18.925 38.2802L19.4466 37.2292L6.65444 34.0968Z" fill="black"/>
</svg>
