<svg width="48" height="48" viewBox="0 0 48 48" fill="none" xmlns="http://www.w3.org/2000/svg">
<path d="M24.7539 25.3415L24.0143 19.6148C23.8163 20.2896 23.7727 21.0057 23.6861 21.7017L23.123 27.3522C23.0752 27.8055 22.9753 28.2807 22.8896 28.7294C22.6684 29.887 22.5658 31.0926 22.5648 32.2707L22.5731 35.2816C22.5784 35.8371 22.6519 36.3913 22.6846 36.9466L23.0682 42.1525C23.0923 42.5369 23.2038 43.0359 23.1196 43.416L23.1133 43.4413C22.8745 44.4325 20.2656 43.8843 19.4463 43.9115C18.9815 43.9269 17.6429 44.1738 17.2579 43.9877L17.0859 43.8983C16.6309 43.6147 16.7198 43.0225 16.7152 42.5624L16.6298 40.1632C16.5328 38.897 16.3598 37.6721 16.0743 36.4339C15.9168 35.7509 15.8164 34.9984 15.7832 34.2945L15.8547 29.4972L15.9266 28.7122C16.0514 26.7231 15.7237 24.7626 15.5009 22.7929L15.1223 18.621L15.0264 16.5603L15.0279 12.9205C15.0945 11.5317 15.3941 10.0961 15.8696 8.78897L16.3346 7.63706C16.476 7.27758 16.5639 6.95292 16.7629 6.621C17.008 6.21234 17.1703 5.69161 17.3031 5.23922L17.4404 4.72875C17.5414 4.28927 17.5035 3.94291 18.0447 3.82469C18.3178 3.80845 18.5419 3.9323 18.7926 4.01613C19.7703 4.34293 20.619 4.39723 21.6365 4.22415C22.7479 4.03508 23.7397 4.03032 24.8718 4.08425L25.413 4.10677C25.7949 4.10798 26.1423 4.19665 26.5152 4.27049C27.3352 4.43286 28.2389 4.38651 29.0265 4.09194C29.5054 3.91285 30.1279 3.57736 30.4556 4.18194L30.4689 4.20694C30.5576 4.36871 30.5259 4.56539 30.5565 4.74328C30.6427 5.24377 30.8393 5.75077 31.0457 6.21056L31.4648 7.10799C31.5222 7.24767 31.5622 7.39355 31.6142 7.53506L32.2503 9.30459C32.5121 10.0505 32.6831 10.8695 32.8125 11.6483C32.8749 12.0242 32.8941 12.3877 32.9181 12.7672L32.9717 16.5611C32.9651 16.9978 32.9084 17.4198 32.9031 17.8557L32.8778 18.6848C32.8678 18.8624 32.8316 19.0372 32.8179 19.2153L32.167 25.5277C32.1526 25.7048 32.1635 25.8847 32.1572 26.0624L32.1731 30.8533C32.2125 31.6136 32.1829 32.1088 32.1654 32.8679C32.1476 33.634 32.2191 34.4384 32.1155 35.1968C31.9208 36.6235 31.5251 38.0183 31.3982 39.4569L31.3061 41.6907C31.3058 41.9917 31.3955 43.3397 31.2157 43.5385L31.1427 43.6163C30.5472 44.2124 27.4908 44.0971 26.4355 43.9619C25.4554 43.8363 24.9352 43.9341 24.9344 42.8849C24.9342 42.5021 24.9188 42.1005 24.9606 41.7204L25.2252 38.3804L25.3365 35.4322L25.4241 32.6418C25.4234 32.0244 25.4327 31.4343 25.3621 30.8217L25.0605 28.8176C24.8985 27.6643 24.8408 26.5018 24.7539 25.3415ZM18.5928 5.2823C18.4774 5.6677 18.3658 6.06281 18.2239 6.43913L18.0623 6.83423C18.0281 6.90877 17.9802 6.98602 17.9613 7.06566C18.6016 7.23994 19.2461 7.14427 19.8813 7.02159L20.2441 6.873C20.3866 6.46285 20.5698 6.06038 20.6717 5.63691C19.942 5.60588 19.3012 5.45789 18.5928 5.2823ZM29.4013 5.3085C28.4305 5.59959 28.1201 5.6265 27.1449 5.63124C27.0473 5.6317 26.9222 5.58305 26.8712 5.67661C26.9556 6.12497 27.4005 6.63638 27.8093 6.8422C28.4776 7.2127 29.3141 7.22424 30.0566 7.12692C29.8821 6.63989 29.665 6.17902 29.5163 5.68027C29.4966 5.61408 29.4456 5.3363 29.4013 5.3085ZM22.6815 5.37056L22.013 5.42414C21.9584 5.84381 21.8137 6.19913 21.691 6.59981L24.9726 6.58627L25.884 6.56044C25.7465 6.4162 25.643 5.97164 25.6176 5.78714C25.533 5.17486 25.6833 5.37708 24.6957 5.37052L22.8575 5.36874C22.8082 5.36916 22.7276 5.35852 22.6815 5.37056ZM26.3322 7.84814L25.7563 7.86267C25.7144 8.29856 25.7577 8.77149 25.7517 9.21239C25.7478 9.49481 25.6994 9.76884 25.6981 10.0522C25.6948 10.7363 25.7824 11.4995 25.4984 12.1405C25.0466 13.16 23.6293 14.0873 22.5209 13.766L22.489 13.757C21.9059 13.5816 21.9877 12.8152 22.5208 12.6034C22.6738 12.5425 22.8491 12.5542 23.0103 12.529C24.1642 12.3482 24.4552 11.7618 24.4658 10.7128L24.4755 7.87345L22.2051 7.87177C21.8166 7.87209 21.2952 7.76892 20.9404 7.9568C20.133 8.3842 18.7805 8.54555 17.8571 8.37197L17.3758 8.30761L17.0185 9.30506C16.3317 11.3502 16.2849 12.6039 16.2846 14.7416L16.3037 17.3788L16.3957 18.9478L16.9522 24.2948C17.0238 24.8664 17.1007 25.4476 17.1245 26.0236L17.1211 29.4658C17.1123 29.6908 17.058 29.9028 17.0506 30.129L17.0453 34.2541C17.0732 35.2021 17.2852 36.1209 17.4856 37.0429C17.7682 38.3431 17.8402 39.6436 17.9018 40.9678L17.9764 41.8129C17.9937 42.1409 17.9488 42.4844 17.9951 42.809C18.778 42.6914 19.5173 42.5724 20.3069 42.6877C20.8347 42.7648 21.3306 42.8355 21.8685 42.7271C21.8532 41.92 21.7572 41.0964 21.6834 40.292L21.3056 35.0182L21.3021 31.289C21.3341 29.9749 21.6484 28.6522 21.8389 27.3557C21.9823 26.38 22.078 25.1219 22.1292 24.1114C22.2444 22.7647 22.4053 21.397 22.6496 20.0671L23.2391 17.0476C23.3007 16.6904 23.3342 15.5446 23.4651 15.3959L23.4912 15.3654C23.7524 15.065 24.1218 15.0269 24.4232 15.3024C24.7085 15.5633 24.6188 16.1048 24.6673 16.4428L24.9857 18.1757C25.2043 19.1099 25.3663 20.061 25.5082 21.0092L25.9806 24.9323C25.9906 25.0466 26.0185 25.1557 26.0276 25.2692L26.0616 26.2616C26.0695 26.4452 26.1029 26.6233 26.116 26.8051L26.1678 27.6609C26.2114 28.1122 26.2673 28.583 26.3545 29.0273L26.6803 31.5375L26.6883 34.4762L26.5979 36.39C26.585 36.5792 26.5376 36.7565 26.5265 36.9466L26.5022 38.2207C26.4944 38.4165 26.4575 38.6064 26.4417 38.8007L26.2131 42.013C26.2022 42.2297 26.1429 42.4312 26.1714 42.6498C27.1711 42.7762 28.2024 42.8176 29.2092 42.7512L30.0754 42.6555L30.1073 39.8202C30.1165 39.6506 30.1471 39.483 30.1633 39.314L30.3191 37.9687L30.8381 35.3055C30.9016 34.9133 30.948 34.5577 30.9502 34.1587L30.9469 28.9703C30.9398 28.6307 30.8886 28.2936 30.8732 27.9544L30.8674 26.1913C30.8719 25.9763 30.9086 25.7653 30.924 25.5513L31.6267 18.3758C31.6442 18.1423 31.6825 17.9101 31.6928 17.6755L31.7167 13.6497C31.7155 12.3129 31.4749 11.0053 31.0725 9.72961L30.7811 8.83074C30.735 8.68538 30.6948 8.4907 30.6198 8.36105L30.5951 8.32491C30.4589 8.34384 30.3282 8.38964 30.1922 8.40549C29.3324 8.50561 28.1896 8.42245 27.4155 8.0723C26.8201 7.803 26.9934 7.83492 26.3322 7.84814Z" fill="black"/>
</svg>
