<svg width="48" height="48" viewBox="0 0 48 48" fill="none" xmlns="http://www.w3.org/2000/svg">
<path d="M23.345 27.7325C23.2598 28.0313 23.267 28.3482 23.2662 28.6537L23.2778 29.9699C23.2791 30.3631 23.2431 30.7576 23.2035 31.1486L22.4691 36.5868C22.363 37.3848 22.2325 38.1941 22.1915 38.9982L22.177 39.3831C22.1721 39.5531 22.3306 39.6087 22.3955 39.7586L22.4398 39.8556C22.5677 40.2239 22.3004 41.7126 22.2215 42.1174C22.1019 42.7312 22.0724 43.126 21.3983 43.3558C19.9966 43.8336 18.3543 43.6437 16.9539 43.244C16.3918 43.0836 15.7344 42.9836 15.4587 42.4048L15.4382 42.3651C15.3863 42.2492 15.3971 42.1154 15.3966 41.9916L15.3971 40.3469C15.3981 40.0938 15.38 39.7573 15.4743 39.5192L15.4856 39.4924C15.5817 39.26 15.733 39.1197 15.9452 38.9961L15.9833 38.9741C15.9372 38.6737 15.9483 38.3552 15.9323 38.051L15.6839 35.8191C15.4973 34.172 15.3077 32.5208 14.9847 30.8934L14.3987 28.3806C13.9067 26.2854 13.3802 24.2111 13.0371 22.0847C12.7353 20.2144 12.6681 19.3721 12.9112 17.4316L13.3981 14.3205C13.7448 12.4219 14.1006 10.5337 14.8362 8.74237C15.1866 7.88901 15.4482 7.04812 15.5594 6.12398C15.6022 5.76881 15.4961 5.29256 15.6737 4.97892L15.6957 4.94123C15.9513 4.49629 16.2727 4.51696 16.7157 4.51694L31.277 4.51591C32.8082 4.45289 32.2832 5.7337 32.5319 6.78534L32.9288 8.2619C32.9878 8.44814 33.0693 8.63034 33.1392 8.81268L33.5627 10.1017C33.6968 10.5521 33.8188 11.0064 33.9378 11.4611L34.8283 15.5627L35.0639 17.5314C35.1348 18.2726 35.2014 19.7436 35.0975 20.471L34.834 22.4088L33.4715 27.9611L32.757 31.5606L32.3015 35.2245C32.2913 35.3355 32.2638 35.4439 32.2544 35.5549L32.016 39.0481L32.1797 39.1652C32.3271 39.2678 32.4706 39.406 32.5256 39.5828L32.5337 39.6096C32.6702 40.0212 32.6271 41.8554 32.5803 42.3504C32.501 43.1867 31.9647 43.2217 31.2645 43.3222L30.3763 43.4264C29.7101 43.5036 28.413 43.5601 27.7265 43.4754L26.9187 43.3349C25.6688 43.1103 25.8825 42.7658 25.888 41.7468L25.8988 39.9401C25.9034 39.7757 25.936 39.6087 25.9325 39.4452L25.865 38.3322C25.7722 37.1024 25.4679 35.8755 25.2423 34.6642L24.9722 32.8422L24.7282 30.3807C24.7175 30.2571 24.6888 30.1373 24.6807 30.0111L24.5684 27.7502L24.5575 25.4702C24.551 25.1959 24.5004 24.9276 24.4943 24.6523L24.4898 22.2775C24.4894 21.9263 24.5266 21.5174 24.4642 21.1746C24.3345 20.4628 23.5873 20.5596 23.5322 21.0684C23.4927 21.4328 23.5278 21.8436 23.528 22.2138L23.5118 24.5527C23.5066 24.8275 23.4549 25.089 23.4394 25.3596L23.345 27.7325ZM17.08 5.98335L17.0039 6.00126L16.7591 7.49165L18.375 7.71135C18.4137 7.67549 18.4157 7.66706 18.4302 7.61573L18.8628 5.98729L17.08 5.98335ZM20.4421 5.98509C20.2869 6.33604 19.8453 7.57101 19.9128 7.95468L22.2393 8.28304C22.8175 8.35565 23.361 8.38804 23.9463 8.38832L25.3021 8.35996C25.9893 8.31168 26.6898 8.20593 27.3694 8.09343L28.1639 7.97109C28.1281 7.60903 27.8016 6.20071 27.5616 6.00539C27.4829 5.94131 27.3444 5.9827 27.2489 5.98265L20.4421 5.98509ZM29.257 5.98378L29.1809 6.00168C29.1818 6.18885 29.3131 6.49167 29.382 6.67593L29.646 7.71871L30.9869 7.50717L31.2089 7.46967L30.9964 5.98312L29.257 5.98378ZM16.3515 8.94159C15.9149 9.89118 15.655 10.9012 15.4232 11.9169L14.7348 15.3439L14.3307 18.6885C14.2842 19.3287 14.3242 19.9546 14.3924 20.59L14.5736 22.0175C14.95 24.4758 15.6543 26.8745 16.1821 29.3012C16.4911 30.7215 16.7069 32.1611 16.8846 33.6047L17.3219 37.8166L17.3437 39.3267C17.6456 39.5241 20.234 39.5352 20.6839 39.5251C20.7281 39.368 20.7175 39.1604 20.7252 38.9946L21.5958 32.2596C21.6613 31.7732 21.7353 31.2846 21.7646 30.7937L21.7972 29.9649C21.8051 29.8164 21.8281 29.6714 21.831 29.522L21.8467 27.5522L22.0281 23.8157L22.0416 22.1533C22.0477 21.167 22.1142 19.9864 23.1271 19.4774C23.1779 19.4519 23.2316 19.4265 23.2666 19.3804L23.2634 9.83981C23.1217 9.81539 22.9825 9.82124 22.8398 9.81056L21.7318 9.70523L16.6979 8.9774C16.5841 8.9661 16.4655 8.93029 16.3515 8.94159ZM31.559 8.94032L26.3423 9.72032L25.875 9.75721C25.501 9.79504 25.0663 9.79471 24.7274 9.8391L24.7225 19.2628C24.7226 19.4104 24.8805 19.432 24.9813 19.5054C26.0499 20.2829 25.872 21.3974 25.8928 22.5792L25.9378 23.9183C25.9412 24.0906 25.9786 24.2609 25.987 24.4338L26.0605 28.301C26.0669 28.5019 26.1047 28.7007 26.1157 28.9016L26.2981 31.6056C26.3657 32.2849 26.4214 32.9658 26.5429 33.638L27.1408 36.9494C27.2471 37.5396 27.3756 38.5907 27.3407 39.1701L27.3708 39.3827C28.5185 39.6595 29.38 39.5979 30.508 39.4596L30.685 36.2823C30.7906 34.6518 30.9782 33.0034 31.2685 31.3947L32.1375 27.3135L33.3063 22.3476C33.7066 20.1283 33.8176 18.7518 33.4925 16.465C33.1831 14.2876 32.6121 11.7538 31.8955 9.6681C31.8145 9.43204 31.7358 9.14765 31.6172 8.93015L31.559 8.94032ZM16.8396 40.7228L16.8583 41.6676C17.7489 42.1077 19.7843 42.2677 20.715 42.0662L20.841 40.9986C19.9871 41.0017 19.1627 41.0248 18.3096 40.9472L17.3554 40.8141C17.2201 40.7906 16.9609 40.6949 16.8396 40.7228ZM31.1038 40.7697C30.7709 40.8133 30.4602 40.9051 30.1418 40.9519C29.3881 41.0626 28.1106 41.0993 27.3584 40.8546L27.3285 41.9419C27.6761 42.0234 28.0759 42.0204 28.4474 42.0245L31.1046 41.9205L31.1038 40.7697Z" fill="black"/>
</svg>
