<svg width="48" height="48" viewBox="0 0 48 48" fill="none" xmlns="http://www.w3.org/2000/svg">
<path d="M25.488 29.044L24.3979 21.8056L23.4851 30.1286L21.8459 43.195C21.6066 44.8072 21.6906 45.0905 19.7531 45.0939C18.9633 45.0953 18.5176 45.0756 17.7539 44.9942L15.0255 44.7634C13.8567 44.7164 13.8661 44.3652 13.9527 43.2273L14.0618 41.7888L14.4333 35.9964L14.4745 34.9458C14.4853 34.7684 14.5191 34.595 14.527 34.417L14.7104 31.9127L14.8455 29.2195L15.0858 26.1726L15.2141 23.4357C15.2298 23.1359 15.2796 22.8439 15.29 22.5416L15.3055 21.5717C15.3142 21.4064 15.3467 21.2458 15.3593 21.0812L15.4065 19.9617C15.4145 19.8192 15.4451 19.682 15.4533 19.5399L15.5894 16.592C15.6061 16.3144 15.6467 16.0401 15.6536 15.7614L15.6669 14.3507C15.6808 14.0409 15.7417 13.7377 15.7495 13.4247L15.7601 11.1032C15.7658 10.8829 15.8196 10.6695 15.8277 10.4487L15.9142 4.93325C15.9236 4.20315 15.6142 2.81813 16.5615 2.70117L31.5031 2.72279C32.6627 2.72344 32.5244 2.95395 32.5432 4.12045L32.6933 6.8434L32.7254 8.64275C32.738 8.91551 32.7867 9.18425 32.795 9.45556L32.8185 11.3447C32.825 11.5582 32.874 11.7688 32.8791 11.9802L32.9086 13.5172C32.9185 13.7067 32.9565 13.8973 32.9676 14.0878L33.0971 16.4314L33.3825 20.5722L33.6193 23.3406L35.112 41.9879C35.1557 42.663 35.1715 43.3497 35.2886 44.0157C35.4071 44.6895 34.6533 44.7881 34.1918 44.7932L33.2184 44.8056C32.9549 44.8145 32.6996 44.8731 32.4375 44.887L30.8906 44.9832C30.5601 44.9995 30.2278 44.9928 29.8987 45.0318L29.3823 45.0682C29.0596 45.0928 28.6898 45.1792 28.4162 44.9548C27.9067 44.5371 27.855 43.435 27.75 42.8317L25.488 29.044ZM19.9811 4.0858L18.7244 4.10708L19.283 4.32135C19.5542 4.40487 19.9008 4.3755 20.1853 4.378L27.3213 4.384C27.5412 4.3871 27.7835 4.41057 28.0009 4.38502C28.8165 4.38733 28.5895 4.39226 29.2915 4.11876L19.9811 4.0858ZM31.1583 4.73726L29.4192 5.51768L29.6738 7.07778C29.8482 8.21834 29.8016 8.53831 30.4688 9.47787C30.7359 9.77 31.0417 10.0356 31.4208 10.1667L31.4166 10.1366C31.3812 9.86375 31.3837 9.5854 31.3727 9.31072L31.2409 6.66762C31.2313 6.20932 31.2671 5.14948 31.1583 4.73726ZM17.2825 4.89115C17.1849 5.31978 17.2338 5.83048 17.2333 6.26843L17.2308 8.78754C17.2303 9.27359 17.2515 9.77257 17.2104 10.2568C17.6196 10.2838 17.9986 10.2188 18.3925 10.1142L18.5822 10.0478L18.562 5.52481C18.1978 5.3067 17.7584 5.20704 17.2825 4.89115ZM22.6344 5.76472L22.4414 5.76922C22.3508 5.95761 22.3832 6.24837 22.3536 6.45818C22.1649 7.79389 21.774 9.18701 20.8376 10.2038C19.9876 11.1267 18.377 11.8201 17.1445 11.616C17.0983 11.7621 17.1273 11.9013 17.1268 12.0509L17.055 14.6667C17.046 15.0512 16.9853 15.4272 16.9745 15.8082L16.9306 17.7268L16.7368 21.3278L16.6007 23.0955C16.5593 23.6117 16.6345 24.1815 16.5321 24.6888C16.4676 25.0081 16.4819 25.3646 16.465 25.6905L16.3099 28.1148C16.2845 28.543 16.216 28.9626 16.2057 29.3899L16.1865 30.2134C16.1794 30.4217 16.138 30.6188 16.124 30.8245L15.9072 34.1247C15.8946 34.3015 15.8566 34.4752 15.8447 34.652L15.8217 35.703C15.8095 35.8892 15.768 36.0698 15.7542 36.2548L15.2975 43.416L20.4117 43.7062C20.4882 43.3003 20.5174 42.8891 20.5678 42.4801L22.0644 30.2952L23.6207 16.6123C23.6356 16.4805 23.6378 16.3476 23.6631 16.217C23.782 15.6042 24.6354 15.3213 24.973 15.9032C25.1123 16.1433 25.1012 16.5087 25.1446 16.7753L25.4611 19.1437C25.4812 19.3005 25.4848 19.4611 25.5083 19.6168L26.0708 23.7417C26.086 23.8555 26.1161 23.9631 26.124 24.0787L27.0531 30.2749C27.0729 30.4067 27.0795 30.5427 27.1031 30.6734L28.6012 39.8896L29.2046 43.2418C29.2289 43.3541 29.2222 43.542 29.2857 43.6346L30.3927 43.6094C30.912 43.6047 31.415 43.5346 31.9336 43.5014L32.6417 43.4301C33.0433 43.4066 33.4548 43.4236 33.8575 43.4237L33.3036 36.7028C33.2708 36.2737 33.2262 35.8425 33.2058 35.4137L31.8124 17.3463L31.4995 11.8039L30.2578 11.4814C29.4754 11.2594 28.382 10.933 27.7378 10.4227C26.6898 9.59258 26.0658 7.99742 25.904 6.71173C25.8673 6.41984 25.91 6.0724 25.8419 5.79087L25.2952 5.80264L25.2924 12.7207C25.2926 12.9078 25.3195 13.1227 25.2986 13.3059C25.2276 13.9262 24.3678 14.0321 24.0711 13.5231L24.0553 13.4968C23.8718 13.1819 23.9891 11.754 23.9896 11.3252L23.991 7.45465C23.9908 6.89482 24.0234 6.31109 23.9765 5.75417L22.6344 5.76472ZM19.8803 5.76472L19.8707 8.60933C19.873 9.4842 20.1856 8.76378 20.3841 8.37495C20.818 7.52895 20.9905 6.69879 21.0197 5.76429L19.8803 5.76472ZM27.2115 5.77362C27.1629 5.9884 27.2054 6.19615 27.232 6.38539C27.4128 7.67126 27.7918 8.76997 28.8805 9.53145C28.689 9.06368 28.5238 8.64776 28.4399 8.14583L28.1612 6.11726C28.144 6.00598 28.155 5.88097 28.1106 5.77784L27.2115 5.77362Z" fill="black"/>
</svg>
