<svg width="48" height="48" viewBox="0 0 48 48" fill="none" xmlns="http://www.w3.org/2000/svg">
<path d="M24.2259 21.0989L23.9644 20.0068C23.3131 21.1588 23.4288 21.4955 23.2715 22.7477L22.0446 31.7691L21.189 39.4214L21.0518 41.6258C21.0408 41.806 21.0066 41.9801 20.9983 42.1622L20.9716 43.2718C20.949 43.7618 20.9438 44.6907 20.6993 45.038C20.2445 45.6841 19.3402 45.7761 18.6211 45.8407L17.8129 45.9241C17.2396 45.9625 16.6871 45.8944 16.1192 45.888L15.1832 45.884C14.1148 45.8762 13.3169 45.4882 13.2988 44.3503L13.2214 41.6403C13.2014 41.2853 13.1294 40.9315 13.1174 40.577L13.1079 38.3569C13.1041 36.1239 13.1692 35.3313 13.8808 33.1183C14.7227 30.5002 14.7036 30.0638 14.2851 27.3451L13.0587 19.3298L12.824 15.8713L12.8343 11.5696L13.0364 9.69243C13.1863 8.73379 13.4177 7.77065 13.6434 6.82715L14.0224 5.46299C14.0822 5.23555 14.1264 5.24305 13.9976 5.05335C13.3589 4.11287 13.6145 2.88151 14.7003 2.53044C15.8505 2.15853 17.0943 2.0677 18.2929 1.96514L22.7464 1.77246L27.2244 1.78306L29.1328 1.89721C30.0745 1.95777 32.7577 2.15631 33.5625 2.65118C34.2566 3.07801 34.5801 4.0048 34.2277 4.75574L34.2157 4.78077C34.1365 4.94976 34.0423 5.10665 33.9255 5.2529L34.4827 7.24171C34.5236 7.4683 34.5974 7.69494 34.6436 7.92126L34.9489 9.65268C35.0172 10.1535 35.0347 10.6485 35.0645 11.1523L35.1466 16.4068C35.1437 16.9522 35.1113 17.3119 35.0693 17.8339L35.0189 18.5991L33.6096 27.9605C33.3774 29.4655 33.3375 30.7425 33.8577 32.2199L34.3859 33.9722C34.4931 34.3971 34.5959 34.8084 34.6875 35.2378C34.9994 36.6997 34.9867 38.1885 34.9876 39.6774L34.9721 41.8823L34.7908 44.1577C34.7716 44.3923 34.7753 44.6372 34.6981 44.8628L34.6868 44.8941C34.2474 46.144 32.81 45.9355 31.7695 45.9375L29.2968 45.8558C28.0372 45.7193 27.104 45.4348 27.0898 44.0559L26.8028 39.0991L26.0795 32.8003L24.9643 24.8021C24.7837 23.3615 24.6272 22.5103 24.2259 21.0989ZM22.5296 3.24984L19.7155 3.33972C18.3988 3.43274 17.0991 3.51555 15.7968 3.74769C15.3122 3.83409 14.6821 3.88324 15.4254 4.46381C16.3994 5.22449 20.6732 5.80101 21.9257 5.99783C22.5992 6.10368 23.3257 6.10879 23.9704 6.34115L23.9895 6.32999C24.3067 6.14905 24.8167 6.12355 25.1783 6.08671L30.47 5.16519C30.9263 5.06479 31.3789 4.95852 31.8226 4.81096C32.1794 4.69237 33.5101 4.11334 32.546 3.82834C31.6816 3.57282 30.7408 3.51942 29.8476 3.44431L27.6109 3.26445L22.5296 3.24984ZM15.3207 6.07269C15.0739 6.86366 14.8933 7.66808 14.7304 8.47996L14.6256 9.03468C14.6069 9.14437 14.601 9.25447 14.5649 9.36037C15.4932 9.37794 16.2243 9.34658 17.0322 8.8588C17.709 8.35091 18.1162 7.73586 18.2836 6.90304L16.4713 6.44474C16.0936 6.34569 15.6751 6.23591 15.3207 6.07269ZM32.5528 6.08155L29.8033 6.80605C29.9283 7.35487 30.1139 7.88183 30.4449 8.34327L30.4718 8.38143C30.6448 8.62401 30.9036 8.82552 31.1584 8.97683C31.8921 9.3944 32.6111 9.37471 33.4252 9.3763L33.4134 9.33613C33.3381 9.06716 33.3148 8.76332 33.2552 8.48713C33.0811 7.67887 32.8805 6.87393 32.5959 6.09674L32.5528 6.08155ZM28.2544 7.06593L27.4074 7.19001C27.44 7.31333 27.4711 7.42752 27.516 7.5464L28.321 10.1237C28.6516 11.5156 30.7078 12.3872 32.0648 12.4081L32.8762 12.4147L33.7115 12.4017L33.5789 10.8313L32.5078 10.8186C30.562 10.7251 29.1536 9.64569 28.5649 7.81326L28.3664 7.09574C28.3493 7.03119 28.312 7.05332 28.2544 7.06593ZM19.7277 7.16399C19.3217 9.18951 17.798 10.6346 15.7287 10.7991C15.2761 10.8351 14.8067 10.8106 14.3523 10.8099C14.324 11.344 14.2679 11.8835 14.3153 12.4191L15.1978 12.4147C16.579 12.4307 18.0064 12.1564 19.0285 11.1441C20.0841 10.0987 20.2987 8.65401 20.6157 7.27091L19.7277 7.16399ZM26.0165 7.46437L24.7028 7.67277C24.7379 8.09952 24.7265 8.5289 24.7268 8.95677L24.7218 17.9851C24.7207 18.1232 24.6682 18.2494 24.7771 18.3561L24.8273 18.3966C24.9909 18.534 25.0903 18.8236 25.1939 19.0102L25.5274 19.5829C25.7567 20.0187 25.5668 20.4585 25.7339 20.8472L26.0972 22.0568C26.3057 22.7298 26.3657 23.7257 26.4472 24.4331L27.2253 30.4853C27.2733 30.8089 27.3251 31.1306 27.3696 31.4544L28.3633 40.4362L28.4991 43.8699C28.5027 44.332 28.544 44.2025 28.9904 44.2827C29.9707 44.4589 32.2135 44.5543 33.2716 44.4183L33.3334 43.7986C33.4448 42.9006 33.4764 41.9991 33.5033 41.0956L33.4841 37.2568C33.3417 34.5619 31.9401 32.1027 31.9645 29.5495C31.9701 28.971 32.0616 28.4021 32.1507 27.8316L32.7169 24.2222C33.0702 21.9714 33.4909 19.7231 33.6586 17.4487C33.7168 16.6604 33.6847 15.815 33.7212 14.9995L33.7269 13.8739C31.6666 13.8886 29.6191 13.7797 28.0763 12.2447C27.3385 11.5106 27.0523 10.5748 26.7454 9.60866L26.248 8.07604C26.2145 7.97507 26.0897 7.47247 26.0165 7.46437ZM21.9141 7.5006C21.8029 8.03338 21.7462 8.5731 21.6036 9.10499C20.9163 11.6692 18.8153 13.7197 16.0949 13.8695L14.2801 13.888C14.2677 14.0701 14.2853 14.2489 14.2897 14.4307L14.3096 17.0386L14.4383 18.9136L15.7617 27.3785C16.3229 30.9922 15.9812 31.1308 15.0079 34.4306C14.628 35.7184 14.532 37.007 14.5338 38.3401L14.5943 40.2936C14.6363 40.8711 14.5219 41.5377 14.6635 42.0997C14.7453 42.4244 14.7161 43.5485 14.6932 43.9038L14.7149 43.9357C14.7502 44.0744 14.6941 44.2396 14.7352 44.3861L17.5028 44.4494C17.7405 44.4477 17.9808 44.4496 18.215 44.4057L19.4549 44.1591C19.5236 43.5758 19.4872 43.0029 19.524 42.4214L19.9021 37.2283L20.563 31.4526L21.9648 21.0896C22.0139 20.7401 22.1228 20.4042 22.2748 20.0864L22.6125 19.4382C22.7598 19.1198 22.8826 18.7772 23.0466 18.4679C23.1054 18.3568 23.2342 18.2963 23.252 18.1636C23.2937 17.8524 23.2558 17.49 23.2558 17.1728L23.2545 8.07097C23.2528 7.98355 23.2522 7.91408 23.2036 7.83937L23.0265 7.59805L21.9141 7.5006Z" fill="black"/>
</svg>
