<svg width="48" height="48" viewBox="0 0 48 48" fill="none" xmlns="http://www.w3.org/2000/svg">
<path d="M24.8136 21.0201C24.5408 19.6041 24.5472 18.2649 24.0412 16.8299L24.0118 16.8238C23.9859 17.0035 23.8676 17.3268 23.8258 17.5664L23.1594 21.3867L22.7758 24.8747L22.5529 29.0859C22.5424 29.2511 22.5039 29.4125 22.4945 29.5781L22.4704 30.8198C22.4566 31.0662 22.4156 31.3131 22.4068 31.5585L22.3831 33.1289L22.1792 36.0521C22.1724 36.153 22.1467 36.2504 22.1368 36.3508L21.5651 42.5859C21.5377 42.8282 21.568 43.0867 21.5143 43.3242C21.3365 44.1096 20.3685 43.9706 19.7643 43.9717C19.2082 43.9727 16.6519 43.9704 16.4744 43.2616L16.4672 43.2304C16.392 42.9097 16.4837 42.4815 16.502 42.148L16.6305 38.4257C16.637 38.2491 16.6692 38.0741 16.6786 37.8984L16.6875 30.0209L16.6248 29.0624C16.5975 28.605 16.6284 28.1401 16.6128 27.6814L16.4103 22.7254C16.3906 22.3657 16.3362 22.0318 16.3336 21.6665L16.3097 20.8214C16.2991 20.6073 16.256 20.3975 16.2439 20.1832L16.2226 18.8986C16.212 18.6635 16.1612 18.4366 16.1478 18.2031L16.0771 16.0078L16.1306 11.2006C16.1342 10.8642 16.1464 10.4053 16.3225 10.1063L16.3814 10.0043C16.4484 9.85569 16.4215 9.6126 16.4451 9.44526L16.6988 7.66448C16.7176 7.51635 16.8979 6.29723 16.8896 6.28527C16.808 6.16771 16.3918 6.14062 16.1992 5.65551L16.1826 5.61323C16.0696 5.3279 16.1744 4.95173 16.3703 4.72959C16.9557 4.06559 18.106 4.03851 18.9242 3.97421L27.628 3.96035C28.699 3.96012 31.0917 3.78083 31.7617 4.87007L31.7998 4.93241C31.8868 5.09816 31.9117 5.36751 31.8456 5.54385L31.8317 5.57807C31.7663 5.74551 31.6789 5.8896 31.5392 6.00594L31.5077 6.03154C30.9912 6.4588 31.038 6.05784 31.1753 6.90112C31.2724 7.49718 31.3197 8.10388 31.411 8.70065L31.7935 11.6445C31.8733 12.533 31.8821 13.3994 31.8821 14.2934L31.8623 17.4419L31.7623 19.3112C31.7594 19.4744 31.7694 19.6836 31.7278 19.8402C31.6116 20.2776 31.6809 20.823 31.6631 21.2755L31.5536 23.419C31.5453 23.6264 31.4989 23.8278 31.4896 24.0351L31.36 29.6316C31.3564 29.8376 31.3206 30.0411 31.3162 30.246L31.3156 35.4779C31.3184 35.7105 31.3591 35.9361 31.3627 36.1672L31.4178 39.246C31.4319 39.45 31.4689 39.6493 31.4741 39.8554L31.4834 42.4279C31.4991 43.3727 31.7402 43.5576 30.5472 43.8017C29.7672 43.9612 29.025 43.9741 28.232 43.9724C27.6931 43.9713 26.7655 44.0933 26.5116 43.4689L26.4991 43.437C26.4141 43.232 26.4494 42.9448 26.4346 42.7227L25.7207 34.9921L25.4962 31.0324C25.4844 30.8084 25.4416 30.5869 25.4313 30.3634L25.3263 27.3398L24.8136 21.0201ZM18.8776 5.32696L18.4282 5.34566C18.7659 5.44551 19.0783 5.59049 19.4088 5.7058C20.3124 6.02104 21.6031 6.23802 22.5853 6.29427L23.6881 6.30805C25.3457 6.31363 26.4152 6.23901 28.0714 5.85187L28.6226 5.70046L29.1235 5.53213C29.3084 5.46932 29.5031 5.40899 29.6836 5.34027L18.8776 5.32696ZM18.1198 6.71479C18.0762 6.93257 18.0725 7.15874 18.0463 7.37938L17.771 9.47432C17.7492 9.61813 17.7178 9.74605 17.7144 9.89329C18.3724 9.84313 19.0725 9.84965 19.6202 9.42932C20.2522 8.87877 20.3353 8.13112 20.5058 7.34774C19.9672 7.24494 19.4152 7.13277 18.891 6.9726C18.7876 6.94101 18.1774 6.70241 18.1198 6.71479ZM29.8044 6.7851L27.3557 7.35463L27.7048 8.68354C27.8325 9.05099 28.0392 9.38277 28.3474 9.62315C29.0337 10.1025 29.5404 10.1081 30.359 10.1024L29.8044 6.7851ZM21.7614 7.54949C21.5507 8.67041 21.2686 9.88738 20.2564 10.5767L20.1786 10.6295C19.4323 11.1384 18.3387 11.2159 17.4483 11.1972L17.352 16.2003L17.4102 16.9218C17.4479 17.8888 17.4669 18.8884 17.5186 19.8536L17.6339 22.0781C17.6415 22.2132 17.6742 22.3397 17.6812 22.4749L17.7254 23.8773C17.7342 24.0596 17.7747 24.2369 17.785 24.419L17.8211 25.9733C17.8294 26.1808 17.8694 26.3855 17.8793 26.5923L17.9116 28.4179C17.9224 28.6135 17.9821 28.7977 17.9885 28.9995L17.9874 38.5621C17.978 38.9016 17.9227 39.2379 17.9063 39.5769L17.7791 42.5486L19.0958 42.6637L20.3184 42.6688L20.3595 41.6921L20.9844 34.3476L21.0327 33.2194C21.0485 32.9735 21.0917 32.7373 21.1009 32.4898L21.1994 28.9408C21.2096 28.7208 21.2601 28.5067 21.2709 28.2871L21.4995 24.6445L21.9406 20.8638L22.7026 16.802C22.8062 16.4 22.902 15.9462 23.221 15.6559C23.4069 15.4867 23.3527 15.0659 23.4002 14.8305L23.5227 14.0853C23.576 13.7807 23.6492 13.5027 23.6602 13.1899L23.674 7.66129L21.7614 7.54949ZM25.8763 7.58034L24.961 7.62969C24.9256 8.12573 24.9452 8.63305 24.9445 9.13044L24.9311 13.3845C24.9225 13.5591 24.8698 13.6973 24.8425 13.8629L24.6001 15.1211C24.5791 15.2427 24.5363 15.3722 24.5392 15.4956C25.1926 15.9856 25.3368 16.4084 25.5106 17.1972L25.793 18.7006C26.054 20.1955 26.2124 21.6916 26.3442 23.2031L26.5081 24.9856L26.6919 28.3552L26.7136 30.0352C26.7247 30.2603 26.7785 30.472 26.7914 30.6959L26.8164 31.979C26.8249 32.1553 26.8625 32.3233 26.8724 32.4998L27.0042 34.9255L27.6317 41.6326C27.6567 41.9706 27.6326 42.3232 27.6832 42.6573C28.2897 42.6749 28.9474 42.714 29.5494 42.6335C29.6708 42.601 30.1557 42.5753 30.216 42.5152L30.1932 40.0765L30.0798 37.2751C30.0756 37.1114 30.0444 36.9511 30.0397 36.7874L30.0375 28.5234L30.2788 22.8164C30.3152 21.659 30.3881 20.5527 30.4558 19.4062L30.5933 15.1523C30.5977 14.9982 30.6248 14.8461 30.6286 14.6918L30.5957 13.1132C30.5853 12.8682 30.5673 11.6223 30.4901 11.4324L29.6742 11.4276C27.6019 11.4088 26.6535 10.0238 26.2685 8.10932L26.1504 7.56684L25.8763 7.58034Z" fill="black"/>
</svg>
