<svg width="48" height="48" viewBox="0 0 48 48" fill="none" xmlns="http://www.w3.org/2000/svg">
<path d="M24.3214 29.3493C24.2102 28.995 24.1195 28.3699 24.078 27.9887C23.8707 28.5364 23.8033 29.1553 23.6936 29.7305L23.164 32.6622C22.9645 34.0039 23.0549 35.333 23.1381 36.6798L23.1722 40.0332C23.1739 40.2357 23.2171 40.4311 23.2209 40.6316L23.2354 44.504C23.2324 44.5867 23.2134 44.6669 23.1713 44.7388L23.0638 44.9063C22.7611 45.3025 21.9368 45.1416 21.5062 45.1418L17.2371 45.146C15.9188 45.1527 15.878 45.249 15.6499 43.7873L15.0237 39.504L13.062 22.7813L12.9371 20.5251C12.9249 20.3286 12.8746 20.1471 12.8627 19.9528L12.845 18.5504C12.8446 17.9934 12.8531 17.4635 12.9147 16.9121L13.0772 15.6675C13.353 14.0974 13.8634 12.5159 14.5067 11.0574L15.1253 9.75135C15.8413 8.3143 15.9841 7.77847 15.7401 6.17586C15.692 5.86002 15.617 5.53536 15.6094 5.21577C15.5852 4.19668 16.5626 3.26029 17.4798 2.98158C17.9739 2.83147 18.4548 2.84051 18.9642 2.81277L21.1678 2.71926C21.3391 2.71372 21.507 2.68386 21.6775 2.67228L22.4357 2.64746L25.19 2.65678L27.5437 2.72698C27.8146 2.72823 28.1068 2.7223 28.3735 2.7686C28.8581 2.85276 29.3459 2.80362 29.8327 2.83917C30.8915 2.91648 31.9504 3.59827 32.3431 4.60555C32.5738 5.1974 32.4792 5.67139 32.3731 6.27182L32.2833 6.8849C32.0619 8.01093 32.8358 9.21894 33.1997 10.256L34.1088 12.7708L34.4841 14.0575C34.6634 14.9605 34.8956 15.7264 35.0192 16.6797C35.1472 17.6669 35.2177 19.4114 35.1114 20.4196C35.0585 20.9213 34.9491 21.4235 34.935 21.9286L34.9319 23.8409C34.9307 24.3892 34.8988 24.9211 34.8262 25.4649L34.2158 30.1907L32.9685 40.1931L32.4327 43.759C32.3951 44.0293 32.3866 44.4197 32.268 44.6617L32.2511 44.6954C31.9481 45.3064 31.291 45.1422 30.7256 45.1424L25.3956 45.146C25.1093 45.137 24.8692 44.9256 24.7792 44.6575L24.7689 44.6251C24.7067 44.4396 24.7491 44.2325 24.7512 44.0391L24.7637 38.7938C24.7713 38.563 24.83 38.3424 24.8375 38.1114L24.86 36.7253C24.8669 36.6023 24.8944 36.4926 24.9075 36.3734L24.9586 35.7226C25.1427 33.7955 24.7152 31.2386 24.3214 29.3493ZM22.8938 4.12877L18.5207 4.36432C17.9868 4.42496 17.4852 4.46592 17.1902 4.9985C17.4359 4.98622 17.6694 4.93855 17.912 4.90452L21.0235 4.54313C22.3591 4.42557 23.72 4.49564 25.0606 4.48836L30.7851 4.92599C30.4345 4.43424 30.0713 4.41205 29.5282 4.36586L25.7964 4.19072C25.5839 4.18612 25.374 4.14033 25.1599 4.13436L22.8938 4.12877ZM21.7156 5.98194L19.153 6.23061L18.0832 6.42088C17.8294 6.46897 17.5881 6.52321 17.3275 6.51632C17.338 6.61658 17.3442 6.71947 17.366 6.81796L26.4024 6.77146L30.7154 6.82138L30.7397 6.45383C30.2672 6.42238 29.7962 6.33243 29.3266 6.27139L27.1579 6.06266C26.2169 5.97908 25.4711 5.98044 24.5225 5.98049L21.7156 5.98194ZM19.6705 8.23564C19.626 8.34847 19.6194 8.47414 19.5931 8.58993C19.2017 10.3132 17.6203 12.0275 15.8438 12.3756C15.5635 12.4306 15.5738 12.3609 15.4676 12.6212C14.5258 14.9288 14.183 17.3326 14.3258 19.8073C14.3404 20.0613 14.4014 20.3073 14.4148 20.5599L14.4445 21.6889C14.4522 21.8064 14.4784 21.9204 14.488 22.0369L15.0103 27.0398L16.5019 39.3503C16.5273 39.6512 16.7359 39.8877 16.9593 40.0716C18.1849 41.0804 19.9696 40.9322 21.3921 40.475C21.4993 40.4405 21.6076 40.424 21.7086 40.3724C21.7115 39.399 21.7504 38.4107 21.6968 37.4391L21.5443 35.5939C21.44 34.0422 21.6809 32.5166 21.952 30.9933L22.6417 27.4688L23.5982 23.1994C23.6554 22.9279 23.6888 22.6096 23.8911 22.4022C24.2806 22.003 24.848 22.1609 25.0851 22.6395L25.1068 22.6808C25.3148 23.1222 24.8762 24.0223 24.9258 24.5599C25.0001 25.3653 25.225 26.1479 25.3637 26.9425L25.6661 28.4765C26.0408 30.4035 26.7079 33.7202 26.4521 35.6783L26.2593 40.3472C27.2044 40.7873 29.0125 40.9831 29.9695 40.6379C30.6769 40.3827 31.4102 40.0645 31.529 39.2536L33.2203 26.344L33.4465 24.2374C33.5265 23.1676 33.3979 22.1096 33.5401 21.0417L33.6615 19.99C33.6925 19.6593 33.6804 19.3218 33.6802 18.9896L33.6595 17.6849C33.5878 16.4229 33.2769 15.1316 32.9286 13.9231C32.7951 13.4597 32.6238 13.001 32.5124 12.5324L32.4905 12.5279C30.4407 12.0893 28.6435 10.327 28.2994 8.23841C27.9554 8.23204 27.5788 8.20279 27.2386 8.24886L27.4092 8.92874C27.7476 10.105 27.4254 11.4421 27.2827 12.6212C27.0514 14.5333 26.8991 16.5033 24.7927 17.4152C24.7127 17.4498 24.4197 17.4997 24.376 17.5487C24.3429 17.5858 24.4109 18.3862 24.354 18.5336C24.0973 19.198 23.0357 19.1653 22.966 18.4454C22.9239 18.011 22.9665 17.5403 22.9683 17.1027L22.9767 15.8334L23.5482 8.85875C23.5639 8.65761 23.6003 8.43763 23.5869 8.23672L19.6705 8.23564ZM17.2855 8.23307C16.987 9.35272 16.811 9.61564 16.3041 10.6499L16.8422 10.238C17.5273 9.6006 17.8392 9.1108 18.1499 8.26082L17.2855 8.23307ZM25.0637 8.23218L24.5124 14.9951C24.4936 15.2935 24.4551 15.5872 24.4962 15.8849C24.6686 15.751 24.8714 15.5864 24.9988 15.4068C25.5172 14.7826 25.6217 14.1311 25.7158 13.3611L25.9406 11.625C26.1293 10.3947 26.1024 9.45285 25.6209 8.26171C25.4736 8.2468 25.1844 8.29077 25.0637 8.23218ZM29.8578 8.2521C29.8459 8.41419 29.906 8.51169 29.9529 8.62508C30.3273 9.53118 30.9107 10.2326 31.7834 10.7041L31.7704 10.6816C31.4741 10.1638 30.979 8.83949 30.922 8.25463C30.5722 8.23696 30.2067 8.21966 29.8578 8.2521ZM16.8574 41.7071C16.8592 41.812 17.0582 43.5616 17.0927 43.6358L21.7739 43.6603L21.7713 43.2647L21.739 41.9398C21.5622 42.0185 21.3084 42.0497 21.1172 42.0945C19.8797 42.3846 18.5116 42.4281 17.3193 41.9267L16.8574 41.7071ZM31.1306 41.754C29.6928 42.4922 27.8028 42.4321 26.2853 41.9147L26.2552 43.2953L26.228 43.6585L30.9562 43.6501L31.1306 41.754Z" fill="black"/>
</svg>
