<svg width="48" height="48" viewBox="0 0 48 48" fill="none" xmlns="http://www.w3.org/2000/svg">
<path d="M24.649 27.1534L24.0098 19.102L22.817 29.8004C22.7788 29.9838 22.7807 30.1792 22.7765 30.366L22.656 34.93C22.6494 35.1394 22.5906 35.3363 22.5823 35.5414L22.5673 37.4463C22.5583 37.6182 22.529 37.7831 22.5104 37.9531L22.1761 42.1059C22.1639 42.2661 22.1363 42.4246 22.1286 42.585L22.0977 43.2896C22.0795 43.6401 22.0188 43.9736 22.0116 44.3278L22.0051 45.5326C22.003 45.8866 22.0089 46.4575 21.4759 46.4806L18.1067 46.4884C17.7494 46.4923 17.4675 46.4969 17.2775 46.1373L17.259 46.1015C17.0841 45.7722 17.1881 44.5005 17.1764 44.0704C17.1661 43.6921 17.1028 43.3179 17.0887 42.9394L17.0502 42.059C17.016 41.6267 17.0052 41.2207 16.9788 40.7946L16.5457 36.0826L16.5448 33.2348C16.5496 33.0571 16.5802 32.8819 16.5846 32.7045L16.6 30.7406C16.6057 30.5177 16.651 30.3042 16.6662 30.0833L16.861 27.8934C16.9995 26.7707 16.9917 25.6121 16.9909 24.4838L16.9896 23.7629C16.9891 23.6125 16.9985 23.4443 16.9669 23.2971L15.1435 14.3922C14.9369 13.6128 14.8264 12.809 14.7156 12.0121L14.4675 9.89102L14.3857 7.71105C14.3863 7.3661 14.4099 7.07126 14.4571 6.73329L14.7509 5.09515C14.8383 4.68575 14.8917 4.43835 14.937 4.02244L15.088 2.91403C15.1693 2.40833 15.2402 2.02218 15.81 1.88047C16.1553 1.86454 16.5157 1.92743 16.8586 1.95864L19.8695 2.18215C20.6241 2.21253 21.2826 2.29182 22.0719 2.29275L27.4758 2.27557C27.6411 2.26831 27.8347 2.26432 27.9945 2.22431C28.3315 2.13992 28.7181 2.18748 29.0655 2.16137L31.7998 1.93199C32.0933 1.89048 32.5336 1.84492 32.7131 2.15365L32.784 2.27395C33.0936 2.79527 32.9536 4.17904 33.204 4.84212C33.4277 5.43462 33.4322 6.16343 33.5638 6.77384C33.7534 7.65363 33.6418 8.65835 33.5698 9.54996L33.426 11.3514L33.1116 13.3363C33.0258 13.8101 32.9604 14.2991 32.8473 14.7669L32.1704 17.8481L31.2215 23.9418C31.0238 25.3362 30.9071 26.7498 31.125 28.1488C31.1905 28.5691 31.2707 28.9894 31.3006 29.4145L31.3236 30.1527C31.3341 30.3664 31.3759 30.5752 31.386 30.7883L31.4588 33.2634L31.3981 36.4629C31.3864 37.0266 31.3243 37.5844 31.2935 38.1483L30.8283 44.53C30.7792 45.3301 31.121 46.4794 30.0381 46.4824L27.5062 46.4838C27.2325 46.4836 26.6976 46.5573 26.4546 46.4456L26.3592 46.3981C26.2272 46.3245 26.0708 46.1479 26.0311 45.9976L26.0254 45.9731C25.9876 45.8217 26.0094 45.666 26.0062 45.5113L25.7874 41.3711L25.3329 36.5419L25.2936 35.2504C25.2833 35.0539 25.2322 34.8617 25.2284 34.6645L25.0342 29.4682C24.9648 28.6891 24.7474 27.927 24.649 27.1534ZM16.1769 3.06995L16.0052 4.58805L21.0253 5.15651C21.2661 5.17943 21.5111 5.16434 21.7526 5.17727L26.8787 5.24876C27.4116 5.23127 28.1092 5.17526 28.6124 5.03168C28.799 4.97843 28.9508 4.8537 29.1352 4.81474C29.392 4.76046 29.71 4.79318 29.9742 4.7733L30.9828 4.67812C31.137 4.66102 31.317 4.61087 31.4706 4.61898L31.9723 4.58035L31.9002 3.76502C31.8859 3.54399 31.8986 3.30861 31.8481 3.09229C31.1565 3.08543 30.4393 3.19012 29.7506 3.25597L26.7637 3.44969L21.2835 3.44149C21.1072 3.4341 20.939 3.38942 20.7633 3.37945L16.1769 3.06995ZM15.7782 5.73087C15.723 5.88537 15.6039 6.32421 15.6471 6.47815C15.991 6.44318 16.3178 6.35355 16.6315 6.20791C17.6571 5.7573 16.1381 5.78069 15.7782 5.73087ZM32.0055 5.75191C31.8628 5.76869 31.6419 5.77048 31.513 5.83024C31.6522 6.03823 31.8231 6.14323 32.052 6.23787L32.3791 6.34432C32.3283 6.14524 32.275 5.94546 32.258 5.74015L32.0055 5.75191ZM30.0293 5.89493C29.8239 5.90909 29.4388 5.89244 29.262 5.99923C28.3523 6.54884 26.7524 6.41651 25.7369 6.43394L25.7401 9.03884C25.7394 10.2156 25.9167 11.6803 24.8657 12.4999L24.4192 12.7856C24.4678 13.0129 24.516 13.6058 24.6268 13.761C24.7449 13.9264 24.8287 14.0735 24.8569 14.2791L24.8757 14.3764C24.9424 14.6876 24.9292 15.0371 24.9452 15.3562L25.3804 21.7031L25.4996 24.0204C25.5789 24.9626 25.6512 26.0089 25.7811 26.9301L26.1102 28.852C26.1964 29.4489 26.3084 30.4449 26.3302 31.0629L26.3408 33.7608C26.3428 33.9894 26.4024 34.2118 26.4085 34.4414L26.4888 37.4887C26.5131 37.8905 26.4619 38.3469 26.5583 38.7352L26.6547 39.2827C26.8176 39.9147 26.8588 40.7854 26.9161 41.4355L27.0116 42.5182C27.0286 42.6774 27.0629 42.8298 27.0735 42.9909L27.1002 44.1308C27.1049 44.2462 27.1735 45.301 27.1963 45.3267L27.2661 45.3323L29.702 45.3281L29.8422 41.8966L30.2126 36.6531C30.2256 36.4295 30.2656 36.2074 30.2748 35.9838L30.2799 31.9917C30.2645 31.7164 30.2142 31.4436 30.2032 31.1684C30.1855 30.7215 30.2153 30.2659 30.1758 29.8209L29.9108 27.797C29.8309 26.976 29.8625 25.7204 29.9363 24.9127L30.3135 21.9849L30.9912 17.8363L31.7414 14.4275C32.1502 12.5119 32.4197 10.5236 32.4732 8.56568L32.5071 7.83148C32.5089 7.73707 32.5237 7.61927 32.5019 7.52819C31.4977 7.33704 30.4681 6.96991 30.0983 5.90229C30.0734 5.89723 30.0549 5.89296 30.0293 5.89493ZM18.278 6.02618L18.2681 6.05623C17.8753 7.2273 16.6484 7.57835 15.5392 7.57052L15.5551 9.23768C15.5674 9.47093 15.6129 9.70399 15.632 9.9379L15.9905 12.778C16.2054 14.0053 16.5187 15.2736 16.7928 16.4957L17.9116 22.2269C17.9981 22.7832 18.1208 23.3702 18.1402 23.9336L18.1406 25.9691C18.1249 26.4584 18.1022 27.1417 18.0549 27.6058C17.9834 28.3085 17.845 29.0091 17.799 29.7154L17.7793 30.9632C17.7692 31.199 17.7187 31.4305 17.7115 31.6682L17.7058 36.2704C17.7104 36.583 17.7531 36.8742 17.778 37.1831L17.9558 39.0166C17.987 39.344 18.0293 39.6693 18.0613 39.9956L18.2482 42.5387L18.3521 45.3143L20.5018 45.3265C20.6054 45.3314 20.7789 45.3583 20.837 45.3279L21.347 37.928C21.4192 37.459 21.443 36.5874 21.4605 36.0603L21.5727 32.5033C21.6095 31.2143 21.587 30.1074 21.7809 28.8051L22.1152 26.6239L22.679 21.2526L22.7829 18.3343C22.7871 17.9814 22.8643 17.6629 22.8784 17.3178L22.8911 16.7067C22.9008 16.1228 22.962 14.5977 23.1855 14.0512C23.2443 13.9073 23.3859 13.8394 23.4416 13.7082C23.4012 13.4131 23.3144 13.127 23.2718 12.8324L23.0798 11.1734C23.0376 10.7875 23.0878 10.3661 23.0166 9.99166C22.9288 9.53018 22.8749 7.36254 23.0015 6.93045C23.0393 6.8014 23.2198 6.52432 23.1937 6.39771L21.3177 6.36241C21.0701 6.35229 20.8332 6.31662 20.5877 6.29576L18.9205 6.10999C18.7083 6.07765 18.4872 6.07362 18.278 6.02618ZM24.5488 6.38712L24.2552 6.39513C24.1535 7.53087 24.0011 6.86899 23.7849 7.28135L23.7935 8.68554C23.7944 9.12579 23.7786 10.2348 24.0811 10.546L24.1338 10.8987C24.1475 10.9685 24.1342 11.1782 24.1681 11.222L24.1711 11.5542C24.3493 11.3209 24.4899 11.1108 24.5456 10.8168L24.5519 10.7849C24.587 10.5957 24.5796 10.3915 24.5799 10.1993L24.5488 6.38712Z" fill="black"/>
<path d="M24.3313 5.0434C24.2088 5.04434 24.0911 5.04945 23.9743 5.00586L23.9414 4.99278C23.4205 4.79323 23.3674 3.8676 24.1225 3.73215C24.3828 3.71319 24.648 3.79334 24.7712 4.04508L24.8163 4.14069C24.8649 4.2675 24.8699 4.52537 24.8109 4.64713L24.7784 4.70853C24.6745 4.89771 24.5314 4.9835 24.3313 5.0434Z" fill="black"/>
</svg>
