<svg width="48" height="48" viewBox="0 0 48 48" fill="none" xmlns="http://www.w3.org/2000/svg">
<path d="M24.8877 35.9013L23.9878 27.773C23.8837 27.9071 23.9074 28.2182 23.8973 28.3767L23.6726 30.9613L22.0297 44.4421C21.8727 45.7407 21.7134 46.2238 20.1068 46.187C19.5817 46.175 19.0521 46.1099 18.5299 46.0558L16.8062 45.9002C15.9907 45.795 12.4062 45.0233 12.2797 43.9563C12.2164 43.4224 12.3207 42.8629 12.3616 42.3316L12.5757 39.1996C12.595 38.9054 12.6514 38.6155 12.6625 38.3207L12.8274 35.1119L13.2138 28.8095L13.3193 26.4789L13.4202 22.266L13.5212 19.5274C13.5554 18.6746 13.5335 17.724 13.6039 16.9127L13.9429 14.325C13.974 14.0411 13.9108 13.7046 13.9585 13.444C14.0734 12.8168 14.3763 12.3312 14.4895 11.5828L14.9852 7.82523C15.0102 7.62067 15.0264 7.41705 15.0881 7.21923L15.0975 7.19036C13.9077 6.96779 13.5896 6.3159 13.5881 5.24486L13.59 3.60666C13.5936 2.68931 14.1579 1.95971 15.1031 1.81199L32.0586 1.79992C32.9434 1.80011 33.7691 1.76513 34.2313 2.75093L34.2435 2.77769C34.2664 2.82706 34.2872 2.87283 34.3022 2.92539L34.3132 2.96519C34.4773 3.43661 34.4042 3.96933 34.4039 4.46009L34.4023 5.31465C34.4 6.02425 34.1901 6.69681 33.4902 7.03286L33.457 7.04833C33.2832 7.13158 33.1015 7.1709 32.9135 7.2085L33.4635 11.2345C33.5666 12.1449 33.8602 12.5947 34.0003 13.3832C34.1152 14.0297 34.0575 14.6795 34.1631 15.3309L34.3568 16.641C34.4113 17.0325 34.4467 17.4685 34.4591 17.8655L34.5022 22.6691C34.5065 22.8627 34.5402 23.0529 34.5468 23.2455L34.6049 25.3204C34.6171 25.5561 34.6551 25.7924 34.6616 26.0277L34.6702 27.429C34.673 27.6144 34.656 27.8595 34.7071 28.038L34.7148 28.0608C34.7492 28.1657 34.7354 28.3052 34.7417 28.4162L34.7851 29.2021C34.7924 29.3508 34.8244 29.4923 34.8327 29.6387L34.8827 30.8937L35.1549 35.551L35.5405 41.0685C35.5914 41.6519 35.9062 43.7231 35.663 44.1794L35.643 44.2152C35.3975 44.6777 34.8854 44.801 34.435 44.9796C32.3916 45.7897 30.1894 46.1833 27.9937 46.1773C27.2574 46.1753 26.3319 46.1353 26.1051 45.2564C26.0607 45.0842 26.0687 44.8879 26.0465 44.71L24.8877 35.9013ZM17.2042 3.22982L15.8828 3.23103C14.9862 3.23374 14.9758 3.0492 14.9741 3.92462L14.974 5.07812C14.9755 5.93936 14.8868 5.76564 15.795 5.7565L16.9101 5.75486L19.0445 5.76095L19.0354 3.23357L17.2042 3.22982ZM23.1337 3.22982L20.4342 3.24249L20.4222 4.99314C20.422 5.23103 20.3866 5.53356 20.4307 5.76456L24.8657 5.75486L27.5502 5.7632L27.5392 3.2355L23.1337 3.22982ZM28.9497 3.22875C28.9027 3.42583 28.9463 3.68882 28.9465 3.90102L28.9838 5.77469C29.3634 5.73887 29.7571 5.75579 30.1385 5.75584L32.0251 5.75758C32.3235 5.75786 32.7063 5.80253 32.9963 5.74361C33.1051 5.01226 33.0649 3.99224 33.0078 3.26773C32.5798 3.17654 32.0656 3.23025 31.6257 3.22995L28.9497 3.22875ZM16.4877 7.19969L15.889 11.7308C15.8465 12.0032 15.7872 12.2917 15.7959 12.5678C16.2285 12.3904 16.6094 12.151 16.9373 11.8153C18.3502 10.3607 17.9226 8.83351 18.3336 7.201L16.4877 7.19969ZM20.4287 7.201C20.1814 7.22823 19.9406 7.25092 19.6922 7.23864C19.6773 7.79533 19.5845 8.35051 19.5055 8.90101L19.447 9.51597C19.1017 11.9854 17.7684 13.6611 15.3309 14.158C15.269 14.5221 15.2982 14.8927 15.254 15.2589C15.1815 15.8595 15.026 16.4632 14.9828 17.0661C14.9392 17.6732 14.9836 18.298 14.9725 18.9076C14.968 19.1567 14.922 19.4023 14.9132 19.6515L14.8593 22.0785C14.8544 22.2229 14.8268 22.3652 14.8203 22.5094L14.8083 23.7921C14.803 24.5402 14.7434 25.3247 14.7209 26.0888L14.5989 29.2891L14.3016 33.8953L14.1626 35.5667L13.9635 39.6134C13.9351 40.0602 13.8773 40.5097 13.8737 40.9566L20.9446 42.1703C20.9615 41.458 21.0963 40.7368 21.1783 40.0295L23.2688 21.8116C23.3895 20.9615 24.4311 20.7707 24.6819 21.598L24.6934 21.6299C24.7441 21.7944 24.7348 21.9994 24.7505 22.1722L26.1667 34.8679C26.1962 35.1236 26.2442 35.3734 26.2555 35.6318L27.0901 42.0996C27.717 42.0517 28.3465 41.9278 28.9687 41.837L33.3469 41.0935C33.6102 41.0466 33.8736 41.0117 34.1294 40.9294L32.6697 14.1729C30.3682 13.6667 28.7949 11.8628 28.5355 9.54348C28.5001 9.22759 28.5098 8.90214 28.4869 8.58423L28.375 7.20297H24.9865L24.9893 12.4045C24.9896 12.6994 24.9261 13.0708 25.0766 13.3363L25.1113 13.4204C25.2019 13.6309 25.407 13.8392 25.5931 13.9698C26.328 14.485 26.262 15.0036 25.8747 15.8324C25.528 16.5745 24.3824 17.8152 23.4726 17.555L23.4334 17.5442C23.1229 17.4529 22.8649 17.1794 22.9433 16.8402L22.9515 16.8042C23.0589 16.3525 23.3387 16.3519 23.6851 16.183C24.0454 16.0074 24.454 15.5813 24.621 15.2204C23.5513 14.8813 23.5534 14.1935 23.5523 13.2244L23.553 7.21037L20.4287 7.201ZM29.7861 7.20184C29.7758 7.61692 29.8329 8.0245 29.8657 8.43137L29.8987 9.20233C30.017 10.607 30.713 11.8003 31.9921 12.444L32.2384 12.5592L31.51 7.26934C31.5062 7.22547 31.5105 7.24211 31.4865 7.20437L29.7861 7.20184ZM34.2237 42.3636L27.2929 43.5363C27.2272 43.7319 27.4325 44.619 27.4561 44.9078C28.1262 44.9124 28.5411 44.9135 29.1972 44.8368L29.6835 44.7893C31.1863 44.5662 32.9875 44.1352 34.3398 43.4891C34.3459 43.4807 34.3634 42.3973 34.2237 42.3636ZM13.7347 42.3871L13.6536 43.4837C14.9492 44.2444 16.997 44.5594 18.5246 44.6631L20.5807 44.7542C20.6682 44.3706 20.6695 43.9507 20.7094 43.5579C20.1609 43.4248 19.5923 43.3572 19.0354 43.2665L14.0136 42.4105C13.9273 42.3979 13.8204 42.3733 13.7347 42.3871Z" fill="black"/>
<path d="M24.1451 5.1692C23.2274 5.25691 23.0968 4.00872 23.9746 3.82447C24.247 3.81852 24.5265 3.91654 24.6415 4.18885L24.6572 4.22988C24.8438 4.63927 24.5715 5.06706 24.1451 5.1692Z" fill="black"/>
</svg>
