<svg width="48" height="48" viewBox="0 0 48 48" fill="none" xmlns="http://www.w3.org/2000/svg">
<path d="M24.976 38.4356L24.0199 30.2675C23.8774 30.9161 23.839 31.5739 23.7688 32.2336L22.602 41.484C22.4945 42.2842 22.4556 43.1496 21.3308 43.1982L16.341 43.2035C16.02 43.2033 15.5533 43.2833 15.255 43.1446L14.9383 42.985C14.4901 42.7078 14.5007 42.2296 14.4781 41.7666L14.3457 37.9718C14.3274 37.628 14.2728 37.2999 14.2698 36.9537L14.2243 35.29C14.174 34.632 14.2013 33.9785 14.1591 33.3217L14.089 32.4447L13.9754 28.3995L13.8088 24.9157L13.7577 21.8999C13.7204 19.1912 13.9196 17.212 14.5377 14.6137L15.1497 12.1938L16.338 8.03872C16.4449 7.55797 16.4649 7.14932 16.4708 6.65521C16.483 5.61875 17.2051 4.85788 18.243 4.71857C18.8635 4.63174 19.5507 5.00919 19.9382 5.46744C20.507 6.14019 20.35 6.98638 20.2957 7.7923C20.4099 7.83603 20.6552 7.80561 20.7831 7.80561L27.7624 7.81377C27.731 7.30555 27.6112 6.82588 27.6877 6.31096C27.9573 4.49536 30.8894 4.15945 31.3961 5.92583C31.6498 6.81032 31.5002 7.74303 31.7961 8.61074L32.6723 11.6012C32.726 11.7857 32.764 11.9776 32.8131 12.1637L33.0937 13.2301C33.442 14.5439 33.7652 15.8603 33.9849 17.2028L34.1658 18.7169C34.2509 19.484 34.2606 20.2401 34.2589 21.0119L34.2504 23.1126C34.2452 23.3381 34.1951 23.5563 34.1866 23.777L34.1776 25.4411C34.172 25.6268 34.1219 25.8074 34.1156 25.9922L34.0591 28.8507C34.036 29.5842 33.9664 30.3169 33.9381 31.0486L33.9206 32.1213C33.9106 32.3767 33.8416 32.6263 33.8314 32.8825L33.8173 34.6218C33.8081 34.8893 33.756 35.1476 33.7448 35.4157L33.6192 39.0545C33.6132 39.2096 33.5809 39.3612 33.5734 39.5153L33.4812 42.3887C33.4748 42.4753 33.452 42.5489 33.4041 42.6215L33.3221 42.7472C33.1954 42.9163 33.0234 43.046 32.8239 43.1172L32.7712 43.1357C32.5826 43.2169 32.4053 43.2001 32.2024 43.2008L27.2799 43.2025C26.1399 43.2014 25.5825 43.0435 25.4032 41.7357L24.976 38.4356ZM18.3838 6.00796C17.4448 6.18191 17.8256 7.16877 17.7004 7.83669L17.3011 9.55813L16.5915 11.9059C16.4831 12.2959 16.3472 12.681 16.2657 13.0772C17.0589 12.8751 17.8337 12.2255 18.0851 11.4254C18.1273 11.2912 18.1418 11.1626 18.204 11.0338L18.2178 11.0041C18.2827 10.8714 18.4442 10.7313 18.5835 10.6852L18.7087 10.6545C19.025 10.5839 19.3398 10.8077 19.4061 11.1208C19.691 12.464 17.8181 14.0956 16.5726 14.3177C16.3624 14.3552 16.1193 14.3495 15.9177 14.4034C15.7026 15.3953 15.4386 16.3676 15.2863 17.3735L15.0602 19.5228L15.0495 22.2406C15.0511 23.1778 15.0147 24.1354 15.1616 25.0622C15.1853 25.212 15.1772 25.3715 15.1783 25.523L15.2785 29.1099C15.3014 29.7525 15.3651 30.4185 15.3683 31.0429L15.3809 32.1618L15.5359 35.2623L15.5512 36.4962C15.561 36.7817 15.6123 37.0616 15.6188 37.3465L15.6362 38.5426C15.6391 38.7938 15.616 39.0749 15.6765 39.3196L21.5741 39.3214C21.6537 39.0282 21.6457 38.6762 21.6901 38.3737L23.0461 26.9975L23.2288 24.9372C23.2664 24.488 23.1931 23.943 23.6594 23.6871C24.6225 23.1587 24.7091 24.4861 24.7709 25.0403L26.0163 36.2575C26.0398 36.4164 26.0444 36.5784 26.0628 36.7379L26.2973 38.5075C26.429 39.332 26.1619 39.3241 26.9068 39.32L32.3558 39.3261L32.3705 37.2537C32.3826 36.9441 32.4151 35.9823 32.4555 35.7461C32.457 35.2587 32.5133 34.7935 32.5359 34.3117L32.6362 30.6963L32.7326 28.222C32.7437 27.9534 32.7967 27.6927 32.8047 27.422L32.9211 24.2771L32.9341 20.9922C32.9352 19.1093 32.8353 17.8171 32.4258 15.9343L32.0617 14.4016C29.0644 14.1809 27.7832 10.8944 29.0391 10.6623L29.0729 10.6556C29.7427 10.5354 29.7419 11.1416 29.9299 11.5661C30.2687 12.3308 30.9119 12.8307 31.7024 13.0469C31.6985 12.9408 31.6448 12.8094 31.6168 12.705L30.3181 7.80983C30.2177 7.32182 30.4473 6.419 29.9561 6.11919C29.6286 5.91927 29.2119 6.03102 29.015 6.35122L28.9998 6.37489C28.9032 6.53225 28.9443 6.82803 28.9616 7.00733L29.0647 8.03582C29.2053 9.22063 28.9861 9.12003 27.9999 9.11769C26.6284 9.11436 24.3668 9.01194 24.0175 10.8305C23.9695 11.0801 24.0002 11.3867 23.9999 11.6423L24.0024 15.6717C24.0029 16.1183 23.967 16.5968 24.0327 17.0383C24.7432 16.1901 24.6689 15.228 24.6699 14.1905L24.673 11.5005C24.6745 10.8065 25.2711 10.3445 25.7469 10.7874C25.9911 11.0148 25.9456 11.2793 25.946 11.5806L25.9452 15.3581C25.9425 16.5622 25.4942 17.8123 24.3904 18.4324C23.8639 18.7282 22.765 19.1929 22.7122 18.1521L22.7071 11.1274C22.7082 10.3047 22.9129 9.74802 23.4996 9.12247L20.5578 9.11394C19.9388 9.11488 19.1033 9.37035 18.9132 8.69497L18.9045 8.66647C18.8713 8.54413 18.9195 8.39642 18.9364 8.2731L19.0579 7.03555C19.0854 6.51941 19.0311 6.06313 18.3838 6.00796ZM16.9237 40.6574L15.7315 40.6598L15.7516 41.8427L20.1739 41.854L21.249 41.8652L21.3231 41.1643C21.3412 41.0229 21.3986 40.7943 21.3697 40.6603L16.9237 40.6574ZM27.9309 40.6574L26.6128 40.6982C26.6319 40.8065 26.6185 40.9182 26.6316 41.027C26.7331 41.8752 26.4767 41.8666 27.2139 41.8555L31.0025 41.854L32.2427 41.8548C32.2986 41.7472 32.2648 40.8608 32.2656 40.6703L27.9309 40.6574Z" fill="black"/>
</svg>
