<svg width="48" height="48" viewBox="0 0 48 48" fill="none" xmlns="http://www.w3.org/2000/svg">
<path d="M25.9187 27.9782L24.1791 21.1686C24.1333 20.9673 24.0674 20.772 24.042 20.5667L24.0071 20.5574C23.9996 20.6857 23.9527 20.7957 23.9269 20.9204L23.7416 21.7971L19.4206 37.495L18.3903 42.1168C18.1524 43.3708 18.4189 45.6446 16.8833 46.053L16.8397 46.0643C15.5584 46.4107 13.0856 44.9945 11.9905 44.479C11.1248 44.0715 10.1995 43.7432 9.30411 43.4072L8.61219 43.1504C7.62097 42.7931 7.46746 42.6222 7.70155 41.555L11.3263 24.6169C11.425 24.017 11.2827 23.389 11.3875 22.78C11.4593 22.3631 11.4502 21.9254 11.4809 21.5032L11.7058 17.6689C11.7522 16.6631 11.7789 15.6327 11.8514 14.6269L12.209 10.3382C12.3133 9.42062 12.41 8.50056 12.5882 7.594C12.7829 6.60381 13.0194 6.16539 13.0048 5.12134L12.9943 4.03746C12.9725 2.81662 13.541 1.98243 14.7583 1.83789L32.6944 1.85001C33.9141 1.85092 34.5908 2.06222 34.9318 3.45703C35.0198 3.81728 35.0875 4.24419 35.1083 4.61744L35.1242 6.07389C35.1372 6.53078 35.1909 6.99456 35.245 7.44836L36.0004 12.2698C36.0815 12.9022 36.155 13.5317 36.1823 14.1697L36.1876 17.2376C36.1872 17.9548 36.1974 18.7156 36.2821 19.4299C36.3936 20.3705 36.687 21.2924 36.8425 22.2307C37.0664 23.5818 36.8667 24.7332 37.0149 25.9924L40.3203 41.6729C40.7076 42.8798 39.9787 42.9198 39.0985 43.245L35.3671 44.8321C34.7715 45.1352 34.1529 45.463 33.5228 45.6878C32.2661 46.1361 30.2921 46.54 29.9277 44.7555C29.8379 44.3158 29.8353 43.8622 29.7926 43.4161L29.6551 42.3366C29.591 41.8396 29.5347 41.343 29.4311 40.8518L28.8234 38.4005L25.9187 27.9782ZM14.7645 3.23759C14.2455 3.42017 14.3268 4.07297 14.3722 4.52696C14.6319 4.55709 14.8965 4.54446 15.1576 4.5436L33.1441 4.54517L33.5308 4.5482L33.5203 3.93775C33.5078 3.03786 33.1381 3.23507 32.3373 3.23513L14.7645 3.23759ZM18.4075 5.98098L17.6232 5.99716C17.8086 6.0587 17.9844 6.12358 18.1725 6.17683L19.7108 6.62078C23.1581 7.61247 24.5797 7.52308 28.1068 6.51587L29.6839 5.99655L18.4075 5.98098ZM33.6402 6.10572L28.3935 7.89161C28.2666 7.93211 28.1253 7.96572 28.0064 8.02473C28.1577 9.08111 28.5822 10.2098 29.4554 10.8822C30.7423 11.7778 31.3423 11.587 32.6624 11.1683C33.2311 10.9878 33.8301 10.8189 34.3819 10.5938L33.776 6.68875C33.7586 6.50856 33.763 6.26847 33.703 6.09995L33.6402 6.10572ZM14.473 6.15259C14.1629 6.33039 13.8374 8.45945 13.786 8.87936L13.6839 9.90358C13.6018 10.6118 13.5365 10.3739 14.2561 10.6898C15.7499 11.3455 16.9422 12.008 18.4783 10.9273C19.3757 10.218 19.7553 9.26538 19.9791 8.17675L19.9588 8.17202C19.4642 8.05445 18.9721 7.86245 18.492 7.69548L16.3502 6.93691C15.7787 6.72616 15.1667 6.55558 14.6172 6.29505L14.473 6.15259ZM26.6062 8.33228L24.4502 8.72594C24.422 9.07872 24.4393 9.44247 24.4393 9.79647L24.4419 16.1252C24.4469 16.29 24.5449 16.5521 24.5931 16.7157L26.2602 23.9247C26.3194 24.2099 26.3915 24.5214 26.4852 24.7971L26.8215 26.0964C26.8514 26.234 26.8938 26.4079 26.9438 26.5382L28.9771 33.726C28.9847 33.7593 28.9956 33.7872 29.0076 33.8188L30.1972 38.3615C30.2481 38.6119 30.3245 38.8708 30.39 39.1186C30.6968 40.2781 30.9279 41.4869 31.0828 42.6767L31.1867 43.6651C31.2103 43.9639 31.2038 44.3494 31.307 44.6292C31.5372 44.7366 32.717 44.4758 32.9399 44.3924L33.1091 44.3303C33.5893 44.1796 34.0504 43.8787 34.4993 43.6517L36.1089 42.8862L37.7971 42.2175C37.9776 42.1532 38.8578 41.9069 38.9328 41.8311L35.707 26.4179C35.4973 25.3599 35.6719 23.9914 35.5386 22.8396C35.4372 21.9626 35.1843 21.1328 35.0152 20.2714C34.6068 18.1902 34.8793 16.0374 34.7877 13.9354C34.7583 13.2599 34.646 12.5915 34.5497 11.9237L33.629 12.2929C32.971 12.5663 32.2824 12.8453 31.5661 12.9078C29.1543 13.1186 27.194 11.0667 26.7474 8.83122C26.7236 8.71206 26.7078 8.41408 26.6349 8.33162L26.6062 8.33228ZM21.3411 8.54322C20.6208 11.8254 18.2242 13.7507 14.8812 12.4788L13.4935 11.9189L13.2384 15.0425C13.1793 15.4846 13.2118 15.9594 13.1954 16.4065L13.1046 17.6102C13.073 18.4576 13.0323 19.315 12.9928 20.1628L12.7522 23.022C12.7091 23.6473 12.7569 24.2846 12.6606 24.9048L12.2331 27.3758L9.67218 39.0003L9.12453 41.6053C9.10611 41.6735 9.07133 41.7503 9.07358 41.82L11.7951 42.8524C12.4269 43.1111 13.0363 43.4171 13.6462 43.7229C14.2952 44.0483 15.9075 44.7887 16.6268 44.6697C16.8733 43.7179 16.813 42.8844 16.9638 41.9623C17.0536 41.4128 17.2243 40.8693 17.3432 40.3245L18.1304 36.8375L22.1835 22.343L22.8933 19.1008C23.0195 18.4814 23.1963 17.859 23.2636 17.23C23.2863 17.0187 23.0821 16.4875 23.081 16.0435L23.0815 8.73203C22.8554 8.67766 22.5853 8.7183 22.3507 8.69228L21.6213 8.5773C21.534 8.56441 21.4283 8.53525 21.3411 8.54322Z" fill="black"/>
</svg>
