<svg width="48" height="48" viewBox="0 0 48 48" fill="none" xmlns="http://www.w3.org/2000/svg">
<path d="M25.1495 32.2227L23.9979 25.6808C23.8808 26.1098 23.8388 26.5695 23.7622 27.0087L22.3076 35.6039L22.04 38.1919C22.0083 38.5145 22.042 38.8563 21.9468 39.1699L21.8074 39.5693C21.4771 40.3369 20.8744 41.1143 20.0773 41.429L20.0389 41.4439C19.5533 41.6378 19.2759 41.5833 18.8004 41.43C18.1593 41.2232 17.5388 41.2141 16.8702 41.2636C16.4584 41.2942 15.9339 41.4137 15.532 41.3245C13.6154 40.8989 12.3006 39.8837 12.3018 37.8472C12.302 37.4798 12.3554 37.1442 12.4126 36.7821L12.776 33.2227C12.7954 32.9797 12.8471 32.7404 12.8526 32.4961C12.8604 32.1495 12.7894 31.7998 12.7877 31.4487L12.7929 29.9561C12.8003 29.7585 12.8338 29.5634 12.8392 29.3657L12.9143 27.2646C12.9723 26.5268 12.9985 25.7375 13.051 24.9869L13.9002 19.0547L15.0663 14.6595L15.3323 13.3829C15.6755 11.9196 15.7715 11.6148 15.7691 10.1229L15.7684 7.5427C15.7688 7.19466 15.6655 6.67533 15.8459 6.36333L15.9222 6.24248C16.0335 6.10027 16.2251 6.02705 16.3989 6.00586L31.5802 6.01008C31.6598 6.01317 31.725 6.02386 31.7974 6.05817L31.8932 6.10542C32.217 6.2812 32.2241 6.69764 32.2246 7.01672L32.221 10.0466C32.2188 10.4876 32.1917 10.9461 32.2279 11.3853C32.2827 12.0502 32.5151 12.7357 32.671 13.3818C32.8198 13.9986 32.9045 14.6152 33.1088 15.2212L33.9263 18.3372C34.0065 18.8438 34.1769 19.3458 34.2696 19.852L34.6494 22.216L34.9744 25.4827C34.9928 25.7153 35.0346 25.9472 35.0461 26.1798L35.0569 27.4151C35.0612 28.0173 35.1462 28.5353 35.1505 29.1638L35.1566 31.5469C35.1572 32.3144 35.201 32.94 35.2628 33.6973L35.3165 34.2027C35.3291 34.4109 35.321 34.6204 35.3426 34.8282L35.5785 36.8577C35.8434 39.03 35.4881 40.2355 33.2129 41.0996C32.1642 41.4979 31.0489 41.2573 29.9552 41.3259C29.5442 41.3516 29.1598 41.5779 28.7596 41.6215C27.5211 41.7563 26.4347 40.2682 26.0999 39.2422C25.9706 38.8457 25.9765 38.4583 25.9393 38.0477L25.3082 33.1536C25.2618 32.8572 25.186 32.5599 25.1535 32.2615L25.1495 32.2227ZM20.7824 7.14375L17.312 7.14558C17.1988 7.14577 17.052 7.13259 16.9444 7.16513L16.9481 7.82484L27.3082 7.82048L31.0553 7.84298L31.0511 7.15477L22.4475 7.14328C22.3033 7.14328 20.8115 7.12514 20.7824 7.14375ZM17.1823 8.98734L16.9609 8.99841C16.9235 9.12136 16.9466 9.29738 16.9466 9.42638L16.9481 10.3285L19.0903 10.3282L19.2246 10.3301L19.2514 8.99498L17.1823 8.98734ZM20.6402 8.98772L20.4385 8.99784C20.3963 9.09905 20.4169 9.27759 20.4168 9.38981L20.4181 10.3286L22.2446 10.3363L22.468 10.3568C22.5529 10.0867 22.5044 9.28387 22.4867 8.9993L20.6402 8.98772ZM29.7403 8.98739L28.6634 8.99616C28.655 9.41986 28.6812 9.91027 28.7637 10.3297L30.0292 10.3282L31.0346 10.3241L31.0493 9.44817C31.0504 9.3022 31.0651 9.1402 31.0452 8.99634L29.7403 8.98739ZM25.8206 8.99091L25.6448 9.07463C25.9371 9.44283 26.0062 9.87675 25.9097 10.3314L27.3221 10.3282L27.5389 10.3314C27.5894 10.2743 27.5574 10.1154 27.5527 10.0377L27.4877 8.99339L25.8206 8.99091ZM23.6094 9.19378L23.5989 9.93164C23.5994 10.0846 23.5888 10.2433 23.6235 10.3932C24.0125 10.4113 24.3148 10.4531 24.6291 10.208C25.3583 9.53939 24.1244 9.23175 23.6094 9.19378ZM16.9519 11.4802C16.846 12.4026 16.4351 13.4338 16.3724 14.2707C16.9316 14.1547 17.4393 13.9853 17.8875 13.6177C18.4806 13.1945 18.9296 12.3808 19.0473 11.6677C19.0574 11.6064 19.0631 11.5482 19.0832 11.4889L16.9519 11.4802ZM25.5759 11.475L25.5751 17.0799C25.5806 17.2417 25.624 17.4375 25.5997 17.596C25.5108 18.1769 24.8734 18.7849 24.3524 19.0208C24.2391 19.072 24.0939 19.109 23.9941 19.1812L25.6465 27.963L26.3956 32.3709L27.0367 37.1133C27.1894 38.2308 27.0723 39.9455 28.5116 40.3384L28.5399 40.3467C28.8325 40.4296 29.2864 40.1581 29.5955 40.1323C30.4211 40.0633 31.8239 40.2588 32.5312 40.043C32.8738 39.95 33.1824 39.8078 33.4961 39.6442C34.8674 38.9291 34.4654 37.8158 34.3401 36.5729L34.0517 33.3282C33.9919 32.4908 34.0058 31.6569 34.0011 30.8183L33.9481 28.2817L33.6452 23.7843L33.1226 20.3204L32.1026 16.0412C32.0577 15.8875 32.0275 15.6795 31.9548 15.5395L31.8883 15.5101C29.6945 15.364 27.9671 13.6594 27.7606 11.4843L25.5759 11.475ZM28.9371 11.476C28.9511 11.5772 28.9632 11.6771 28.9932 11.7774L29.0043 11.8162C29.0362 11.9235 29.0676 12.0377 29.1096 12.1407L29.1573 12.2842C29.3326 12.9368 30.05 13.6078 30.6131 13.9231C30.939 14.1056 31.2753 14.1772 31.6272 14.2807L31.3391 12.9408C31.2296 12.4701 31.0765 11.9682 31.0441 11.4865L28.9371 11.476ZM20.2864 11.4871C19.9518 13.617 18.4287 15.5502 16.1056 15.4803C16.0136 15.4775 16.0427 15.496 16.0169 15.5903L15.2422 18.5189C15.1161 19.0207 14.9848 19.53 14.9021 20.0411L14.5362 22.239L14.1234 26.9474C14.1071 27.2594 14.0577 27.5657 14.0502 27.879L13.9639 31.2825C13.9649 31.5306 13.946 31.8055 14.0032 32.0471C14.0792 32.3675 13.9914 32.7926 13.9701 33.1166L13.6509 36.6367C13.5618 37.1718 13.374 37.8594 13.497 38.4036C13.6898 39.2571 15.0325 40.1716 15.8554 40.1262L16.705 40.0493C17.1724 40.0489 17.6617 40.0193 18.1264 40.0639C18.9966 40.1473 19.4161 40.6512 20.1742 39.9039C20.9886 39.101 20.8376 38.3171 20.926 37.2909L22.173 28.9567L23.3773 22.7664C23.4448 22.3583 23.3728 22.3324 23.2833 21.9296L22.6552 18.3541L22.5663 17.3013C22.5189 16.7315 22.5041 16.3357 22.5039 15.7498L22.5031 12.9202C22.5031 12.4522 22.5327 11.9627 22.4978 11.4969L20.2864 11.4871ZM23.6495 11.4932L23.6811 16.648C23.6833 17.0085 23.6804 17.3935 23.7484 17.7479L23.7818 17.9917C23.9164 17.9099 24.0386 17.8224 24.154 17.7147C24.25 17.633 24.407 17.5442 24.4197 17.4141L24.407 11.5126L23.6495 11.4932Z" fill="black"/>
</svg>
