<svg width="48" height="48" viewBox="0 0 48 48" fill="none" xmlns="http://www.w3.org/2000/svg">
<path d="M22.8556 39.3459L22.6776 42.7265C22.6436 43.041 22.2742 43.2821 21.9822 43.2889L15.2916 43.2905C14.861 43.2903 14.0229 43.407 13.9824 42.7346C13.9333 41.9206 13.9712 41.0877 13.9667 40.2715L13.8785 36.9945L13.7138 34.0278L13.6781 32.4376L13.5057 28.8016L13.2057 24.0474C13.1978 23.9319 13.1687 23.8213 13.1612 23.7045L13.0503 20.9021C13.0444 20.7026 13.0118 20.5059 13.0098 20.3057L13.0142 12.1726L13.1517 9.31462L13.5762 5.71739C13.7131 4.70934 13.903 4.70287 14.8627 4.70287L33.4868 4.70259C33.8919 4.6972 34.1532 4.73428 34.3021 5.17978L34.3131 5.2148C34.3819 5.39986 34.3767 5.60606 34.4065 5.80073L34.7361 8.23069L34.8806 11.1732C34.8865 11.3755 34.9374 11.5687 34.9433 11.7689L34.9412 21.5854C34.935 21.7714 34.8875 21.9486 34.879 22.1311L34.7422 25.5234C34.7327 25.6484 34.7043 25.7735 34.6935 25.8984L34.4987 29.1551L34.3602 32.871C34.3544 33.0504 34.316 33.2256 34.307 33.4041L34.1741 36.6535C34.1526 37.1049 34.0728 37.5904 34.0574 38.0118L34.0445 42.3838C34.0437 43.1378 33.7873 43.2888 33.1159 43.2897L25.9645 43.288C25.8784 43.2845 25.7936 43.2743 25.7157 43.2353L25.6876 43.2206C25.3965 43.0747 25.2348 42.8555 25.2346 42.5133L25.2262 40.5065L25.034 37.8046L24.5553 34.1015L24.1702 31.9192C24.113 31.5991 24.0431 31.2851 24.0039 30.9616C23.9112 31.2735 23.8782 31.5924 23.8333 31.9137L23.1588 36.3632L22.8556 39.3459ZM14.8314 5.97441L14.5067 8.47439L18.3663 8.47261C18.3903 8.43652 18.3928 8.43117 18.3972 8.38547L18.7347 6.62461C18.7821 6.41306 18.816 6.19195 18.8838 5.98664C18.8466 5.96034 18.7295 5.97525 18.6822 5.97525L14.8314 5.97441ZM20.1953 5.97487L19.8048 7.58784C19.7383 7.84284 19.6921 8.18597 19.6769 8.44983C19.7717 8.49567 27.0644 8.45597 27.8823 8.46112L28.3777 8.45016C28.3134 7.91175 28.0561 6.49523 27.8409 5.98327C27.5842 5.952 27.3022 5.97459 27.0431 5.9745L20.1953 5.97487ZM29.1455 5.98003C29.156 6.06652 29.1644 6.13631 29.195 6.20981C29.3865 6.66966 29.5197 7.44309 29.5821 7.93355C29.6042 8.10684 29.6043 8.31019 29.6541 8.47509L32.6802 8.46398C32.7847 8.46427 33.4179 8.49005 33.4648 8.46112L33.1789 5.97506L29.1455 5.98003ZM14.4192 9.73566C14.3917 9.78844 14.3865 9.82533 14.3741 9.88022L14.3641 9.91537C14.3024 10.171 14.2745 11.1639 14.3279 11.4341C15.1904 11.4319 15.8735 11.367 16.573 10.7894C16.8763 10.5063 17.174 10.1358 17.3266 9.74691L14.4192 9.73566ZM18.7113 9.73402C18.3591 10.8329 17.5772 11.7884 16.5505 12.3159C15.8231 12.6896 15.0598 12.6878 14.2638 12.6877C14.2253 12.9589 14.2456 13.2521 14.2452 13.5261L14.2509 20.1093C14.2622 20.328 14.3028 20.5452 14.309 20.7656L14.336 22.0792C14.3573 22.4879 14.4149 22.8795 14.4176 23.29L14.7946 29.1395L14.9111 32.7254C14.9207 32.9622 14.9636 33.1972 14.9716 33.4335L15.1045 37.3125C15.113 37.522 15.166 37.7276 15.173 37.9354L15.1822 40.8624C15.1832 41.2412 15.1584 41.6415 15.195 42.0178L18.5743 42.0187L21.4555 42.0165C21.5006 41.5724 21.4692 41.1247 21.4992 40.6806L21.9728 35.8205L22.6852 31.0546L22.9124 28.8735C23.0409 27.878 23.0138 26.9407 23.0143 25.9373L23.0168 9.73997L18.7113 9.73402ZM24.379 9.73308L24.2973 9.75248C24.2466 9.88706 24.2638 10.101 24.2598 10.2458L24.2546 17.3166C24.2542 17.6145 24.2344 17.9278 24.2655 18.2237C24.6621 18.0577 25.0625 17.8112 25.332 17.4684C25.8478 16.8001 26.0465 15.5222 26.0636 14.6601L26.1549 12.9894L26.2521 9.74123L24.379 9.73308ZM27.7 9.73228L27.5571 9.75412C27.4973 9.95948 27.528 10.2345 27.5191 10.4499L27.3861 13.2773C27.3193 14.5905 27.2793 16.5909 26.6781 17.7682C26.2291 18.6476 25.2551 19.3935 24.2575 19.5033L24.2534 22.2852C24.2536 22.7558 24.2069 23.2785 24.2748 23.7408L24.7607 28.0464L25.1724 30.375C25.1956 30.4868 25.1965 30.6035 25.2196 30.7148L25.9318 34.7373L26.2949 37.8384C26.3492 38.2994 26.4179 38.8583 26.4322 39.3179L26.4459 41.1548C26.4467 41.4282 26.4144 41.7517 26.4695 42.0172L30.2931 42.0187L32.8052 42.0205L33.6899 12.7237C31.6501 12.6598 30.3453 12.0925 29.5259 10.1965C29.4617 10.0478 29.4342 9.87211 29.3564 9.73326L27.7 9.73228ZM30.9042 9.73228L30.7556 9.75375C30.7781 9.87492 30.8401 9.95639 30.8961 10.0625C31.501 11.2083 32.4335 11.4423 33.6212 11.4367L33.6886 11.4428C33.7067 11.2509 33.6761 11.032 33.662 10.8398L33.5726 9.73655L30.9042 9.73228Z" fill="black"/>
</svg>
