<svg width="48" height="48" viewBox="0 0 48 48" fill="none" xmlns="http://www.w3.org/2000/svg">
<path d="M25.237 33.1123L24.0191 26.1694C23.885 26.5034 23.8602 26.8887 23.801 27.2424L22.741 33.1902L21.8747 37.5807C21.836 37.7648 21.8201 37.9551 21.7692 38.1365L20.7152 43.2071C20.2469 45.9098 13.8351 45.1654 13.5249 43.4489C13.4795 43.1976 13.5042 42.9075 13.5038 42.6509L13.4929 37.2964C13.4868 37.0526 13.4428 36.8154 13.4366 36.572L13.3117 33.4834C13.2904 33.0497 13.2586 32.6117 13.225 32.1787L12.1592 21.2814L12.1412 18.282C12.142 16.8579 12.1098 15.6312 12.4251 14.2268C12.5352 13.7367 12.536 13.2005 12.59 12.7012L13.1898 7.88251C13.2612 7.33088 13.3985 6.86058 13.5655 6.32832C14.0047 4.92877 14.7348 3.93107 16.3622 3.85352C16.7874 3.86929 17.2057 3.96051 17.627 4.01972L20.3422 4.2717C20.6119 4.29247 20.8792 4.33869 21.1496 4.34898L26.4439 4.35589C27.434 4.35093 28.6287 4.2295 29.6085 4.11625L30.9482 3.9298C32.9735 3.64411 34.0879 4.72201 34.4915 6.56832C34.5172 6.68574 34.5633 6.79594 34.5831 6.91655L34.7269 7.60219L35.4788 13.5368C35.558 14.2829 35.7828 15.0156 35.8314 15.7623L35.8595 18.7039C35.8595 19.637 35.8739 20.5758 35.7896 21.505C35.7337 22.1202 35.7439 22.8364 35.6709 23.4195L34.9721 29.7799L34.7287 33.4883C34.6915 34.0531 34.7306 34.6613 34.6279 35.2108C34.4953 35.9204 34.5575 36.6961 34.5455 37.4152L34.5041 40.5838C34.4986 40.8211 34.452 41.0524 34.4496 41.289L34.4519 42.9452C34.4519 43.2667 34.533 43.6697 34.3489 43.9523C33.6549 45.0172 31.0207 45.1642 29.7773 44.9067C28.751 44.6942 27.7803 44.3002 27.3513 43.2604C27.2544 43.0256 27.231 42.7427 27.1758 42.4948L25.237 33.1123ZM16.2005 5.23449C15.7554 5.31202 15.431 5.54419 15.1726 5.91816L15.1514 5.94816C15.0334 6.12019 14.9829 6.32794 14.9441 6.52969C15.1105 6.72432 16.2781 6.88951 16.5674 6.95166L19.8078 7.62488C20.1545 7.68029 20.509 7.75829 20.8589 7.78599L22.4941 7.89413L23.3175 7.91621C22.6894 7.13401 22.3619 6.58435 23.1651 5.76573L20.5838 5.70291L16.8071 5.30433C16.6049 5.26843 16.4074 5.21724 16.2005 5.23449ZM31.511 5.23505L28.0287 5.67465C27.7218 5.72382 27.3923 5.71238 27.0822 5.71679L25.7605 5.7443C25.4569 5.74819 25.1488 5.73615 24.8463 5.76085L24.8648 5.7789C25.5252 6.43271 25.3166 7.07119 24.8322 7.77348C24.7956 7.82654 24.7467 7.8616 24.6954 7.89943L25.7988 7.88977C26.3562 7.86615 26.9152 7.79302 27.4671 7.71858L31.3678 6.95612C31.7346 6.87282 32.7381 6.68738 33.0368 6.48329C32.9147 5.80027 32.2586 5.09977 31.511 5.23505ZM14.5488 7.84004L14.0097 12.1812C14.3199 11.9828 14.5635 11.7542 14.8191 11.4928C15.6989 10.5972 15.9695 9.51905 16.0641 8.28408L14.7387 7.89512C14.679 7.87173 14.6123 7.83029 14.5488 7.84004ZM33.3224 7.84004L31.9436 8.25788L31.964 8.85676C31.9707 9.87924 32.4625 10.8425 33.1897 11.5468C33.4227 11.7562 33.6597 12.0112 33.9449 12.1465L33.3224 7.84004ZM30.5242 8.5666L26.9091 9.22238C26.6209 9.28055 26.3266 9.24427 26.0374 9.28187L26.0159 13.224C26.0154 15.7929 26.0833 16.9246 24.4805 19.0334C24.3859 19.1578 24.3464 19.1609 24.3657 19.3129L25.049 24.021L26.8253 34.2511L27.8562 39.4082C27.9987 40.086 28.201 40.7562 28.3219 41.4383L28.4136 41.8653C28.4613 42.1394 28.5306 42.5036 28.6421 42.7502L28.6554 42.7812C28.7066 42.8974 28.7801 42.9923 28.8642 43.0866C29.449 43.5506 30.2091 43.6193 30.93 43.6204C31.3123 43.621 32.8377 43.5127 33.1214 43.2557L33.1271 39.8205C33.1344 39.6031 33.1814 39.3874 33.1851 39.1666L33.2998 34.5385C33.31 34.3448 33.3509 34.1554 33.3618 33.9626L33.3928 32.9529C33.4015 32.7576 33.4398 32.5677 33.4533 32.3756L34.2976 23.3586C34.3445 22.9696 34.391 22.4838 34.4158 22.0877L34.5116 17.5749C34.5108 16.7561 34.5566 15.9216 34.38 15.1148C34.292 14.713 34.1559 14.3217 34.1302 13.9091C32.0981 12.726 30.5361 11.1242 30.587 8.5666H30.5242ZM17.429 8.59547C17.3517 8.88268 17.3413 9.15671 17.2967 9.44785C17.0081 11.3321 15.7499 12.8522 14.1205 13.7896L13.8588 13.9311L13.7274 14.7081C13.6887 14.8875 13.6238 15.0646 13.5959 15.2463L13.5026 16.1252C13.4762 16.4447 13.493 16.7756 13.4954 17.096L13.5829 22.3261L14.4175 30.2859L14.7432 35.1229C14.7587 35.3791 14.7995 35.6349 14.8059 35.8908L14.8163 39.3183C14.8192 39.561 14.8621 39.7982 14.8641 40.0424L14.8684 41.985C14.869 42.3245 14.8542 42.6721 14.8797 43.0106C15.9068 43.7173 18.0642 43.9179 19.0801 43.267C19.3774 43.0471 19.3817 42.9353 19.4593 42.5914L21.282 33.5041L23.2719 22.0678C23.3819 21.3174 23.3252 21.472 23.2002 20.7213C23.108 20.1667 22.9189 19.3164 22.9087 18.7814L22.9091 9.32405L17.429 8.59547ZM24.1677 9.33282L24.2002 16.8451C24.2509 16.7243 24.3186 16.625 24.3749 16.5088C24.635 15.8866 24.673 15.3298 24.6754 14.6705L24.6772 9.35438L24.1677 9.33282Z" fill="black"/>
</svg>
