<svg width="48" height="48" viewBox="0 0 48 48" fill="none" xmlns="http://www.w3.org/2000/svg">
<path d="M24.2766 17.8238C24.2248 17.6156 24.1679 17.4383 23.9769 17.3183C23.5525 17.4711 23.6236 18.3202 23.6029 18.6795L23.5124 20.3218L23.0189 27.1493L22.8252 28.9568C22.808 29.0887 22.7782 29.2074 22.772 29.3435L22.755 30.8316C22.743 31.1869 22.6882 31.536 22.684 31.8916C22.6716 32.946 22.6105 33.939 22.5915 34.9819L22.5508 37.0211C22.5467 37.2226 22.5064 37.42 22.5002 37.621L22.4914 39.8184C22.4873 40.0302 22.4327 40.2305 22.4251 40.4393L22.2978 45.5769C22.2933 45.6513 22.2962 45.7495 22.2605 45.8166L22.2129 45.9255C21.7498 46.9723 20.1488 46.7845 19.2062 46.7842L18.3618 46.7823C17.2452 46.7766 17.0408 46.4507 16.9438 45.5181L15.2188 28.4759L15.0309 25.2291L14.999 24.1303C14.9899 23.944 14.9546 23.766 14.9402 23.5815L14.4471 17.7273C14.3744 16.6572 14.2995 15.6149 14.3601 14.5375C14.3806 14.1721 14.446 13.8101 14.4539 13.4412C14.4816 12.149 14.4202 10.8608 14.5251 9.57127C14.5697 9.02264 14.7136 8.46736 14.7963 7.92164C14.8906 7.29998 14.9114 6.65123 14.8975 6.0232C14.8708 4.81763 14.0956 3.42872 14.9968 2.36762C15.683 1.55956 16.7753 1.74792 17.7191 1.69362L21.0128 1.4977L23.3708 1.25367C23.8019 1.22775 24.2638 1.21737 24.6933 1.25556L26.8366 1.49898L30.2685 1.69618C30.8707 1.72586 31.5152 1.62661 32.098 1.80533C33.8084 2.32982 33.5107 4.03485 33.1956 5.40131C33.0005 6.24741 33.0825 7.25536 33.1933 8.11448C33.3838 9.59344 33.659 10.9983 33.6607 12.4944L33.6485 14.9068C33.6403 15.424 33.5684 16.0163 33.5402 16.556L33.0453 23.5896C33.0351 23.7096 33.0079 23.8265 32.9999 23.9479L32.9729 25.1802C32.9555 25.7926 32.8879 26.3756 32.8705 27.0056L32.8157 27.8273C32.8022 28.2752 32.8116 28.7205 32.7703 29.1677L31.5486 40.4177L30.8558 44.946C30.7355 45.675 30.8385 46.1536 30.068 46.5639C29.2072 47.0224 26.2294 46.9779 25.742 45.9907L25.7283 45.9624C25.649 45.8058 25.6677 45.6144 25.6667 45.4427L25.6018 41.85L25.5011 38.346L25.399 34.9802C25.3939 34.7109 25.3545 34.4478 25.3433 34.1794L25.2184 30.6428L24.4093 19.4239C24.3695 18.8866 24.3764 18.3576 24.2766 17.8238ZM23.6429 2.6295L19.3913 2.90495L17.2536 3.06572C16.1788 3.11479 15.8311 2.84325 15.9221 4.0289L24.4105 4.03094L32.0822 4.03068L32.1072 3.44504C31.9259 3.23813 31.726 3.08494 31.4418 3.0672L23.6429 2.6295ZM16.4039 5.32547L16.2273 5.34103C16.1972 5.541 16.1788 6.10383 16.2428 6.30197L31.6527 6.32438L31.7089 6.30347C31.7112 6.1282 31.8044 5.41078 31.792 5.33949L16.4039 5.32547ZM16.1808 7.64077L16.0038 9.06248C15.9973 9.12581 15.975 9.21605 15.9926 9.27684C16.9744 9.28261 17.8166 9.29817 18.6422 8.69423C18.9178 8.46469 19.3363 8.06456 19.3902 7.68305L16.1808 7.64077ZM21.6766 7.64503L20.8194 7.65638C20.7116 8.8222 19.5106 9.92156 18.4867 10.3281C17.7744 10.6109 17.0669 10.6203 16.3141 10.6228C16.2263 10.623 15.9098 10.5966 15.8518 10.6431C15.7663 11.214 15.8471 11.8285 15.815 12.4066C15.8016 12.6472 15.7518 12.88 15.7413 13.1204L15.725 14.7185C15.6674 16.1891 15.7536 17.1827 15.8939 18.6649L16.2846 23.0943L16.5972 28.8242L17.2626 35.5485L18.2601 44.9553C18.2843 45.1137 18.2777 45.2717 18.3157 45.4277L19.3492 45.4302C19.8766 45.4288 20.4138 45.4354 20.9352 45.3427L20.9605 44.6743C20.9686 44.4776 21.0069 44.2843 21.0128 44.087L21.0235 42.0232C21.03 41.6963 21.0866 41.3745 21.0966 41.048L21.1056 38.3939L21.1916 35.4834C21.1931 35.0207 21.1853 34.5607 21.2604 34.1023C21.347 33.5737 21.3023 32.9822 21.3097 32.4466C21.3143 32.1116 21.3735 31.784 21.3788 31.4504L21.391 29.2342C21.4138 28.8083 21.5124 28.3787 21.5694 27.9563L21.7332 26.254L22.3291 17.6895C22.4361 16.5169 23.6293 15.9672 23.6819 14.8053L23.6896 8.67169C23.6892 8.33597 23.7073 7.9882 23.6798 7.65427L21.6766 7.64503ZM25.1973 7.64077L25.0342 7.6628C24.997 7.7768 25.0132 7.94438 25.0116 8.06611L25.008 14.577C25.0078 15.1884 24.9951 15.5009 24.7257 16.0651C25.3745 16.6375 25.6281 17.3955 25.698 18.2305L25.7898 19.706C25.7976 19.8244 25.8229 19.9392 25.8316 20.0573L26.1591 24.8704C26.169 25.0166 26.2012 25.1568 26.2118 25.3023L26.4488 28.8829C26.4658 29.0618 26.496 29.2372 26.5063 29.4173L26.5379 30.7011C26.5482 30.9411 26.5932 31.1777 26.607 31.4177L26.7457 35.8339C26.7516 36.032 26.7981 36.2254 26.8028 36.4269L26.8111 38.6393C26.8159 38.8265 26.8542 39.0098 26.8613 39.1965L26.87 40.7459C26.8746 40.8964 26.9014 41.045 26.905 41.1958L26.9853 45.3182C27.2086 45.4003 27.509 45.3816 27.7476 45.4099L28.5916 45.5057C28.9768 45.5501 29.2251 45.6765 29.3913 45.2224L29.4029 45.1917C29.545 44.799 29.6858 43.8329 29.7255 43.4064L30.0736 41.2648L31.1153 32.5597L31.4103 28.9725L31.6215 24.6326L31.9604 20.5047L32.2422 15.4614L32.2589 13.1892C32.2594 12.7893 32.2874 10.9638 32.1166 10.6364C31.6078 10.6253 31.1011 10.633 30.5948 10.5715C29.0398 10.3826 27.5191 9.25313 27.2742 7.64602L25.1973 7.64077ZM28.7121 7.64527C28.7278 7.80042 28.7562 7.88316 28.8289 8.01539C29.4721 9.18544 30.7755 9.28538 31.9649 9.29194L31.9567 9.25791C31.9107 9.05367 31.9012 8.84138 31.8778 8.634L31.7754 7.64536L29.7351 7.64034C29.4019 7.64034 29.0426 7.6125 28.7121 7.64527Z" fill="black"/>
</svg>
