<svg width="48" height="48" viewBox="0 0 48 48" fill="none" xmlns="http://www.w3.org/2000/svg">
<path d="M25.3651 35.1584L25.1218 32.8025L24.3163 27.4651C24.2212 26.9475 24.126 26.4379 23.984 25.9305C23.8829 26.1589 23.8514 26.445 23.8071 26.6897L22.9902 32.1791L22.551 36.0896L22.161 38.231L21.6657 40.4279C21.6387 40.6514 21.6546 41.0064 21.4967 41.1776C21.3805 41.3035 21.4445 41.4458 21.442 41.6013C21.4193 42.9817 20.2541 43.6867 19.0299 43.9501C18.6368 44.0347 18.1676 43.9942 17.7641 43.9952L15.4686 43.9748L14.0637 43.8455C12.3668 43.7319 10.3441 43.7658 9.7048 41.754C9.49062 41.08 9.51266 40.3189 9.44989 39.6181L9.24219 36.9014L9.24884 32.6576C9.25541 32.4791 9.29633 32.3055 9.3028 32.1281L9.31817 31.094C9.32539 30.9431 9.35595 30.7954 9.36448 30.6444L9.584 27.4628L10.5925 17.5661L10.9215 14.6842C11.0491 13.812 11.2885 12.9771 11.5287 12.1313L12.1977 9.72856C12.6873 8.13936 11.891 7.06161 12.1252 5.60342C12.2683 4.71326 13.1036 4.1355 13.9337 3.96511L33.1806 3.95425C33.4728 3.95425 33.7756 3.9366 34.0667 3.9574C34.808 4.01038 35.6107 4.61999 35.8031 5.33951C36.0504 6.26426 36.0266 7.1239 35.2756 7.7779L35.6351 8.87197C35.9515 9.69054 36.0365 10.6177 36.2725 11.4641C36.4086 11.952 36.5842 12.4385 36.6988 12.931L37.1741 15.521C37.294 16.2763 37.3457 17.0395 37.4098 17.8005L37.6882 21.0114L38.3934 27.2096L38.7182 32.9606C38.7293 33.3899 38.766 33.8072 38.7785 34.2185L38.7784 37.0774L38.5156 40.3005C38.3733 41.9626 37.8453 43.462 35.8985 43.7201C35.6056 43.7589 35.3138 43.7604 35.0208 43.7893L33.1392 43.966L30.7904 44.0013C30.2196 44.0014 29.5844 44.0379 29.0236 43.9249C28.2475 43.7687 27.1387 43.2762 26.7813 42.5003C26.6522 42.22 26.6938 41.8567 26.617 41.5574L26.0991 39.7116L25.5421 36.7471L25.3651 35.1584ZM13.9799 5.50976C13.736 5.56212 13.5563 5.69393 13.5478 5.96459L13.5498 6.36504C13.9579 6.58193 13.7553 6.4302 14.0509 6.7714C15.2029 8.10139 18.5542 8.94336 20.1755 9.18298L21.0815 9.29403C21.5375 9.3319 21.9866 9.38281 22.4442 9.39162L23.7606 9.39729C24.6805 9.39697 25.5752 9.42026 26.4887 9.31395L28.91 8.97739C30.1337 8.7289 31.3237 8.29789 32.4538 7.77504C32.8516 7.56982 34.1042 6.86857 34.4169 6.54228C34.4526 6.23637 34.5395 5.55626 34.078 5.51806L13.9799 5.50976ZM13.9395 8.61298C13.8223 9.52559 13.3023 11.5467 12.971 12.457C13.2386 12.3497 13.4169 12.2374 13.6377 12.0552C14.4355 11.2822 14.7817 10.2977 14.9732 9.22648L14.3604 8.87647C14.2458 8.80451 14.0646 8.64209 13.9395 8.61298ZM34.0218 8.67237C33.6994 8.86475 33.364 9.08281 33.0121 9.21575C33.2209 10.3724 33.4806 11.3127 34.4263 12.1022C34.5834 12.2267 34.8147 12.4122 35.0256 12.4167C34.859 11.9802 34.7616 11.5229 34.6548 11.0697L34.1968 9.27537C34.1386 9.07498 34.0928 8.8684 34.0218 8.67237ZM16.3536 9.83173C15.9259 11.9135 14.9746 13.6586 12.6754 14.0931C12.3732 14.1502 12.4746 14.4153 12.4132 14.7394C12.1385 16.1892 12.0192 17.6588 11.8508 19.1232L11.4083 23.382C11.3933 23.5493 11.3535 23.7132 11.3391 23.88L10.937 29.3552L10.8575 31.6935C10.8429 31.994 10.7771 32.2849 10.7617 32.5826L10.7412 35.3522C10.7403 36.5195 10.6976 37.6879 10.8628 38.8464L17.8032 39.1155C18.2142 39.1637 19.9546 39.2611 20.3509 39.1712C20.5918 38.1195 20.8363 37.0756 20.9945 36.0071L21.5038 31.5796L22.2691 26.795C22.4557 25.7869 22.72 24.2956 23.1877 23.3704C23.4408 22.8697 23.3032 23.1426 23.2493 22.6091L22.6603 18.8397C22.5335 17.9811 22.5682 17.1461 22.5679 16.2795L22.5664 11.3577C22.5658 11.225 22.588 11.0179 22.5446 10.8947C21.7797 10.8574 21.152 10.8376 20.3885 10.7573L19.736 10.6685C19.0701 10.5748 18.4035 10.4364 17.7554 10.258L16.8611 9.98497C16.7366 9.94381 16.4732 9.80951 16.3536 9.83173ZM31.5383 9.83173C30.5139 10.1943 29.458 10.4828 28.3843 10.6561L27.3018 10.7773C26.9467 10.8139 26.6075 10.8677 26.2488 10.8842C26.213 11.0546 26.2272 11.2379 26.227 11.4118L26.2296 16.7602C26.2283 18.0963 26.0483 19.3553 24.8202 20.1541L24.4724 20.3734C24.5907 21.7738 24.9028 23.1784 25.2329 24.5427L25.9313 27.9473C26.0193 28.4285 26.09 28.9199 26.1513 29.4053L27.0098 37.0661C27.042 37.3376 27.3121 39.1009 27.4218 39.2154C27.9868 39.2656 29.7019 39.2664 30.1691 39.1511L32.0214 38.9827C32.1934 38.9698 32.3565 38.9316 32.5302 38.9242L33.8436 38.9149C33.9786 38.9093 34.1097 38.8744 34.2445 38.8664L36.279 38.8608C36.5784 38.8703 36.8657 38.914 37.1675 38.9054C37.2234 38.4968 37.226 38.0758 37.2518 37.6641L37.304 34.652L37.1238 30.2711L36.5728 23.4489L35.836 16.8513C35.7392 15.9505 35.6537 15.0263 35.4633 14.1396C33.2812 13.7488 31.9482 11.9213 31.6096 9.8255L31.5383 9.83173ZM23.999 10.9463L23.9849 17.3037C23.9854 17.6729 23.8867 18.4393 24.1054 18.755C24.2662 18.6793 24.3613 18.5317 24.4677 18.3973C24.6929 18.0191 24.7979 17.7093 24.8008 17.2739L24.8011 10.949L23.999 10.9463ZM11.0139 40.4301C11.0404 41.9945 11.6814 42.0943 12.9281 42.2221C14.3615 42.3689 15.7769 42.4467 17.2212 42.4489C18.05 42.4501 18.8422 42.5133 19.6083 42.1339L19.7969 42.0213L19.8744 41.2872C19.8885 41.1334 19.8902 40.8126 19.9702 40.6818L11.0139 40.4301ZM34.0721 40.4335L27.8932 40.7002L27.9459 40.9273C28.058 41.4645 28.1224 41.9904 28.6369 42.2477L28.7108 42.2818C29.3815 42.5874 30.1157 42.5195 30.8322 42.5173L32.5881 42.4999L35.2733 42.2412C35.5796 42.2029 35.8549 42.2236 36.1469 42.1018L36.1805 42.0882C36.8325 41.8164 36.9891 41.0967 36.9887 40.4608L34.0721 40.4335Z" fill="black"/>
</svg>
