<svg width="48" height="48" viewBox="0 0 48 48" fill="none" xmlns="http://www.w3.org/2000/svg">
<path d="M23.1763 29.956L22.9229 33.1289L22.2243 37.8543L22.0037 41.625C21.9898 41.8675 21.9473 42.1074 21.9396 42.3508L21.9282 43.9187C21.9249 44.1016 21.8942 44.2815 21.892 44.4648L21.8902 45.2319C21.8891 46.1711 21.6107 46.2859 20.7964 46.2792L15.6038 46.2806C15.4216 46.2808 15.1735 46.3108 15.0012 46.2521L14.9766 46.2433C14.5169 46.0928 14.4162 45.7892 14.4147 45.3547L14.3331 42.2695C14.3256 42.0828 14.2784 41.8996 14.274 41.715L14.2675 36.4575C14.2684 36.0395 14.3053 35.6508 14.37 35.2383L14.5863 34.152L15.4278 31.201C15.6423 30.3276 15.4721 29.116 15.3139 28.2467L14.0857 21.8437L13.7214 19.4455L13.3358 15.1054L13.3306 12.6482C13.3308 11.7754 13.3077 10.9011 13.3928 10.0319C13.502 8.91757 13.3485 8.36472 13.6311 7.15338C13.7795 6.51677 13.9509 5.91189 14.0464 5.26169L14.1885 3.84372C14.2647 3.23469 14.456 2.64022 14.6556 2.06236C14.8615 1.46655 15.1076 0.808163 15.9688 1.15196C16.2258 1.25457 16.4292 1.49888 16.6558 1.65625C18.764 3.12004 20.4748 3.11426 22.8494 3.11802C23.6643 3.11931 23.3624 3.03036 24.0264 3.36735C24.3471 3.00822 24.4778 3.08029 24.9141 3.06466C26.981 2.99062 29.9981 2.52312 31.7874 1.38221C32.0346 1.22457 32.1863 1.06269 32.4711 0.965565C33.273 0.927526 33.4419 1.53425 33.5641 2.2328L33.6383 2.53122C33.733 3.02407 33.9621 3.28926 33.9879 3.82029C34.0186 4.45387 33.8374 4.90544 34.0082 5.55466C34.2745 6.56716 34.9228 6.03471 34.924 7.95288L34.9102 11.8594C34.9028 12.0388 34.8654 12.2122 34.8529 12.3899L34.8336 13.2188C34.8025 13.7335 34.7877 14.3462 34.7386 14.8359L34.1714 20.0156L32.7628 27.6534C32.41 29.3155 32.1618 30.4229 32.6548 32.0742L32.9321 32.8945C33.0329 33.1574 33.1107 33.4185 33.2009 33.6824L33.3575 34.2422C33.5322 35.1874 33.6695 35.8502 33.7204 36.8554L33.7263 41.4718L33.6078 44.2265C33.6014 44.3982 33.569 44.5673 33.5627 44.7385L33.548 45.4557C33.5308 45.9982 33.2616 46.2775 32.6893 46.2799L27.9471 46.2798C26.824 46.2827 26.2368 46.5314 26.1748 45.0772L25.9936 41.429L25.9785 40.5186C25.9693 40.1495 25.915 39.7908 25.8961 39.4218L25.5917 36.1347L25.1519 33.053L24.0035 20.426C23.8794 20.7923 23.9271 21.1532 23.8987 21.5314L23.1763 29.956ZM32.1449 3.13789C31.4863 3.44084 30.8383 3.73008 30.1407 3.93441L29.1734 4.16636L29.29 4.7051C29.498 5.3988 29.8608 5.93796 30.444 6.38871C31.1317 6.84724 31.9409 7.15549 32.7129 6.71922C32.7328 6.63086 32.5625 6.32979 32.5222 6.21972C32.218 5.38971 32.0802 4.85589 32.2891 4.01508C32.3452 3.78904 32.2211 3.34751 32.1449 3.13789ZM15.9781 3.19919C15.887 3.42949 15.8536 3.6963 15.8211 3.94081L15.7171 4.77597C15.6742 5.15055 15.6652 5.60927 15.6145 5.941C15.5702 6.23107 15.4143 6.51255 15.3839 6.79619C15.5165 6.97553 16.3321 6.93639 16.5235 6.88375L16.5583 6.87452C16.9142 6.77786 17.2847 6.56913 17.5748 6.34624C18.1922 5.84346 18.5443 5.21866 18.7245 4.44681C17.8721 4.266 17.0106 3.88456 16.2878 3.39245C16.2137 3.34198 16.0603 3.2055 15.9781 3.19919ZM27.4929 4.71986C26.5757 4.87057 25.6698 4.81947 24.7472 4.84778L24.7247 13.8765C24.725 14.2817 24.5962 15.0531 24.8196 15.3951C25.5001 16.4369 25.5886 19.8066 25.6993 21.0626L26.2608 27.1054L27.3655 37.3109L27.5497 39.7633L27.7967 44.1328C27.8084 44.2758 27.781 44.4749 27.8233 44.6076C28.6344 44.6643 29.4754 44.6214 30.2895 44.6216H31.397C31.5906 44.6215 31.796 44.6357 31.9876 44.6162L31.9889 44.5826C31.9925 43.9003 32.0757 43.2604 32.137 42.6213L32.2252 41.3242C32.2686 40.6476 32.2308 39.9459 32.231 39.2664C32.2316 37.5931 32.3111 35.9026 31.8585 34.2741C31.4576 32.8314 30.9399 31.6808 30.9478 30.1563L30.9616 29.3025C30.9703 29.1703 31.0095 29.0455 31.0251 28.9146L32.5263 19.445C32.7897 17.806 32.9786 15.9922 33.0852 14.3301L33.2645 10.4765L33.2755 9.08988C33.2762 8.84571 33.294 8.5878 33.2697 8.34588C31.0903 9.23636 28.716 7.72474 27.9031 5.67428L27.6211 4.70805C27.5768 4.70805 27.5366 4.7126 27.4929 4.71986ZM20.3124 4.7823C19.9419 6.1331 19.3084 7.31566 18.0392 8.03383C17.1876 8.51566 15.978 8.7821 15.0169 8.51411L14.9988 15.6209L15.2665 18.3472C15.2944 18.6027 15.3065 18.8918 15.3644 19.1409L16.455 25.3945C16.5019 25.6273 16.5373 25.8673 16.5939 26.0976L16.9222 27.6328C17.0358 28.1991 17.1262 28.7985 17.1556 29.3761L17.1606 30.213C17.1612 30.9083 17.1497 31.1703 16.9774 31.8469L16.5688 33.2812C15.8895 35.2925 15.8149 36.1706 15.8169 38.342L15.8226 43.6301C15.8231 43.9375 15.7907 44.2965 15.8475 44.5981L16.459 44.6195L20.3616 44.601C20.3818 44.4777 20.3706 44.3425 20.3706 44.2175L20.3735 41.1151C20.3744 40.8719 20.4112 40.6373 20.4219 40.3965L20.5644 37.8538L21.2567 32.9799L21.6428 29.1873L22.1362 23.4798L22.8573 16.1543C22.8927 15.8679 22.8371 15.3711 23.0615 15.1499C23.2993 14.9154 23.1745 14.2969 23.1746 13.9892L23.161 4.84853L20.3124 4.7823Z" fill="black"/>
</svg>
