<svg width="48" height="48" viewBox="0 0 48 48" fill="none" xmlns="http://www.w3.org/2000/svg">
<path d="M25.0584 27.425C25.0496 27.1766 25.0108 26.9306 24.9826 26.6841L24.0309 20.0521L23.9697 20.3234C23.887 20.6084 23.88 20.9234 23.8362 21.2175L22.8835 28.0904L22.3669 33.5502C22.3578 33.6693 22.331 33.7844 22.3191 33.9027L22.0386 38.1918C21.9971 39.3791 21.9214 40.5579 21.9189 41.7446L21.9156 44.9887C21.8879 45.9633 20.4332 45.7316 19.8139 45.7317L14.8534 45.7334C13.7189 45.7346 13.3225 45.9945 13.2167 44.6488L13.1322 42.5981C13.1172 42.2141 13.048 41.8336 13.0357 41.4496L13.0308 35.3441C13.0319 34.8643 13.0595 34.4215 13.1011 33.9473L13.2685 32.1376L13.8663 28.1893C13.9123 27.8156 13.9548 27.4418 14.0013 27.0684L15.0245 16.2191C15.0583 15.9825 15.1067 15.7628 15.112 15.5208L15.1157 9.54841C15.1172 9.14491 15.1634 8.85518 15.1818 8.48477L15.1884 2.95345C15.1888 2.46415 15.1962 2.2642 15.6991 2.04509L31.9145 2.04063C32.2768 2.04089 32.515 2.01018 32.7332 2.359L32.7526 2.39102C32.8218 2.50218 32.8001 2.63291 32.7995 2.75883L32.7971 5.18027C32.7982 5.52147 32.7636 5.91171 32.8353 6.2456C32.9903 6.96663 32.9741 8.35652 32.9937 9.20566L33.0026 11.2928C33.0049 11.5202 33.0398 11.7402 33.0479 11.9652L33.0968 16.0732C33.0958 16.6243 33.1456 17.1455 33.1949 17.6911L34.3472 28.7934L34.8522 34.7553L34.9363 36.8255L34.9357 42.1034C34.9314 42.3393 34.886 42.567 34.8812 42.8016L34.8333 44.1435C34.8258 44.2598 34.7958 44.3728 34.7894 44.4914C34.7674 44.8983 34.8504 45.6295 34.2372 45.7203C33.8991 45.7705 33.5041 45.7316 33.1612 45.7317L27.9652 45.7316C27.5546 45.7317 27.1112 45.7714 26.705 45.7328C25.7684 45.6439 26.0339 44.2236 26.0332 43.5622L26.0203 39.4059L25.9067 38.0298L25.7917 35.391L25.2491 29.0772C25.1937 28.529 25.1498 27.9685 25.0584 27.425ZM16.6269 3.28678C16.3315 3.30861 16.471 3.5868 16.4746 3.89378L16.4667 5.25527C16.9834 5.29755 17.5181 5.26821 18.0375 5.26826L22.7863 5.26657C23.0755 5.26629 23.4134 5.29563 23.6959 5.24782L23.6905 5.02774C23.6281 4.98316 23.57 4.99366 23.4945 4.98986L23.4664 4.98147C22.9215 4.81061 22.6031 3.93145 23.247 3.67369C23.4853 3.57828 23.7643 3.81785 23.5968 3.33842C23.2816 3.27487 22.9613 3.28939 22.6413 3.2881L16.6269 3.28678ZM25.9628 3.28786C25.6483 3.28971 25.3316 3.28342 25.0195 3.32711L25.0415 3.34938C25.2255 3.53691 25.3814 3.71396 25.4992 3.94961L25.511 3.97245C25.8119 4.56734 25.2295 4.86897 24.9184 5.25326L30.0186 5.26751L31.54 5.26605L31.5356 3.28798L25.9628 3.28786ZM19.0456 6.50655L16.676 6.50632C16.6025 6.50622 16.5089 6.49516 16.4402 6.51935L16.3973 11.1076L17.1301 11.0835C17.2867 11.0803 17.4858 11.0992 17.6344 11.0535C19.9355 10.3869 20.1416 8.58635 20.3708 6.51307L19.0456 6.50655ZM21.8694 6.50655L21.6796 6.52094C21.675 6.52676 21.3391 8.81126 21.2489 9.11154C20.725 10.856 19.332 12.171 17.4709 12.3782L16.3839 12.4027L16.3717 16.0005C16.3655 16.1324 16.3297 16.2606 16.313 16.3914L15.2226 27.2618L14.8548 29.9332C14.6697 30.964 14.4172 32.0224 14.335 33.0675L14.2668 39.434C14.2725 39.6303 14.3095 39.823 14.3127 40.0214L14.3537 42.3596C14.3618 42.5576 14.4064 42.7515 14.4144 42.9496C14.4302 43.3403 14.3641 44.0914 14.4863 44.4483L16.2011 44.4423L20.6473 44.4509L20.6498 42.7606C20.6504 42.46 20.6206 42.1184 20.6741 41.8237C20.8426 40.8943 20.6901 39.7833 20.7529 38.8243L20.8424 37.184C20.8533 37.0148 20.8854 36.8481 20.8943 36.6791L21.0265 34.1137L21.5064 28.7609L22.8348 19.3012L23.4387 16.1401C23.4996 15.9223 23.5095 15.8709 23.4811 15.6512L23.4232 15.067C23.3717 14.4014 23.3969 13.6815 23.5003 13.0236C23.5563 12.6678 23.6324 12.3466 23.6414 11.985L23.647 6.98126C23.6471 6.84982 23.6745 6.63044 23.6336 6.51002L21.8694 6.50655ZM25.0283 6.50622L24.9303 6.51921C24.9017 6.73544 24.9119 6.96058 24.912 7.17851L24.91 12.2163C24.9 12.5783 24.8164 12.9353 24.7511 13.2895C24.6172 14.0161 24.6108 14.8393 24.7373 15.5726L27.2728 44.431L33.3808 44.4423L33.6374 44.4369C33.722 44.2522 33.6764 42.3937 33.6768 42.0465L33.6635 36.6445L33.1014 29.1911L31.8694 16.9809C31.8515 16.7559 31.8688 16.5293 31.8712 16.3039L31.7383 12.3872C30.1122 12.3574 28.6303 11.7465 27.7071 10.3363L27.6829 10.3C27.0664 9.35936 26.95 8.24097 26.749 7.16276C26.7091 6.94858 26.7074 6.71505 26.6386 6.50824L25.0283 6.50622ZM27.9621 6.50655L28.1739 7.8168C28.6111 9.90386 29.5041 11.0978 31.711 11.0839L31.5919 6.53093L27.9621 6.50655Z" fill="black"/>
</svg>
