<svg width="48" height="48" viewBox="0 0 48 48" fill="none" xmlns="http://www.w3.org/2000/svg">
<path d="M14.6862 39.1502L10.3693 36.6349C8.60928 35.6851 6.61447 34.7789 4.58865 34.6704L3.73282 34.6634C3.03598 34.662 2.67014 34.3483 2.88045 33.5823L3.48444 31.6321C4.56848 28.4831 5.74766 25.381 7.28178 22.4186L10.043 17.6816C10.2356 17.3695 10.43 17.0516 10.5918 16.7224C10.8431 16.2112 10.2581 16.2633 10.8176 15.4029L11.0967 14.927C12.4421 12.6156 12.3321 11.09 12.3374 8.61335L12.3399 8.01916C12.3426 7.70679 12.4273 7.44222 12.7485 7.30872L12.785 7.29452C13.1304 7.15741 14.6712 7.3676 15.2283 7.40866L18.8699 7.61219L27.7793 7.61055C28.0947 7.59935 28.4072 7.53818 28.7254 7.52608L30.3847 7.50888C30.565 7.5003 30.7354 7.45863 30.9144 7.44377L31.9025 7.39479C32.0109 7.38799 32.1138 7.36371 32.2215 7.3556L34.8174 7.15788C34.908 7.15024 34.9752 7.15338 35.0622 7.1815L35.0975 7.19322C35.8572 7.43322 35.6922 8.44891 35.6928 9.06363L35.6935 10.7407C35.6948 12.3789 36.3115 13.9148 37.1766 15.281C37.2562 15.4066 37.361 15.5313 37.4202 15.6678L37.4639 15.7733C37.5206 15.9699 37.4529 16.1993 37.3559 16.3698L41.6254 24.3161C41.7715 24.6106 41.8931 24.934 42.0116 25.2413L42.9548 27.6862L43.672 29.8978C43.6806 29.9339 43.689 29.9668 43.7024 30.0016L44.6251 33.2693C44.6956 33.5045 44.8565 33.8613 44.7911 34.103C44.6045 34.7935 44.1724 34.6634 43.6411 34.6693C41.6374 34.6913 39.7335 35.5489 37.9919 36.4623L36.3254 37.3523L33.1952 39.266C30.6881 40.6539 27.8924 41.2439 25.0752 40.4155C23.7192 40.0167 22.8334 40.5291 21.6122 40.7334C19.3377 41.1141 16.655 40.1884 14.6862 39.1502ZM34.225 8.51927L13.5643 8.56029L13.5597 10.8042L34.4556 10.8305L34.4331 8.50427L34.225 8.51927ZM13.429 12.0926C13.2333 13.0086 12.9813 13.8657 12.5795 14.7155L12.1659 15.5388C12.0992 15.6679 12.0053 15.8118 11.964 15.9496L18.0678 16.7778L20.8709 17.0252C21.8145 17.1276 22.7511 17.0898 23.6991 17.0907L26.7528 17.0722C26.9415 17.0634 27.1236 17.0232 27.3102 17.0096L32.6765 16.4325C33.0752 16.3824 33.4866 16.3513 33.8809 16.2761L36.0915 15.9559C35.9012 15.5189 35.651 15.1056 35.439 14.6785C35.0206 13.8355 34.7769 13.028 34.6146 12.1101C34.5177 12.0749 34.3634 12.0938 34.2589 12.0932L13.429 12.0926ZM36.2696 17.2572L32.6344 17.743C32.3735 18.4026 32.487 19.6213 32.7195 20.2849L35.35 27.5438C35.3614 27.5847 35.376 27.6169 35.3919 27.656L36.3932 30.363C36.4174 30.4382 36.4544 30.5079 36.4767 30.5838L38.0742 34.9704L39.1739 34.4733C40.4372 34.004 41.0892 33.7076 42.4852 33.5068L43.4262 33.3987L42.1378 29.0903C40.91 25.4296 39.3904 22.2437 37.4096 18.9371C37.0754 18.3793 36.783 17.7887 36.41 17.2553C36.3576 17.2428 36.3222 17.2479 36.2696 17.2572ZM11.6787 17.3083L9.10283 21.6181C8.32733 23.0145 7.63986 24.4552 6.99481 25.915L6.2098 27.762L4.21646 33.3881C5.74939 33.5038 7.17612 33.816 8.60736 34.3961L9.97334 34.9919L11.8633 29.1405L13.5148 24.4849C13.7692 23.8012 14.0495 23.1204 14.3671 22.4636L14.8379 21.581C15.4295 20.3956 15.6066 19.0211 15.3695 17.7206L11.6787 17.3083ZM16.6461 17.8788C16.775 19.2608 16.6346 20.5788 16.0639 21.8521L15.5619 22.8396C15.3182 23.3205 15.085 23.8327 14.8932 24.3359L13.4074 28.4177L11.0841 35.593C11.304 35.7288 11.5417 35.8368 11.7682 35.9621L12.9062 36.6264C14.1309 37.36 15.3637 38.2409 16.717 38.7273C17.6776 39.0939 18.7264 39.4108 19.754 39.4973L19.7798 37.5819L20.0464 33.7505C20.066 33.3901 20.0578 33.0063 20.126 32.6521L21.537 18.3412C21.3423 18.3482 21.1383 18.3221 20.9443 18.3066L16.6461 17.8788ZM31.1949 17.9157L27.3588 18.2699C27.07 18.2808 26.6427 18.2472 26.3718 18.3467C26.4005 18.5491 26.4542 18.7422 26.4955 18.9421L26.6731 19.8747C26.6987 20.0121 26.7032 20.1532 26.7277 20.2901L27.0429 22.5048L27.9128 32.3578L28.283 37.9062C28.3184 38.4353 28.288 38.9699 28.3427 39.4971C29.1218 39.4348 29.9244 39.2833 30.6658 39.0321L31.5139 38.6993L36.9792 35.569L31.5478 20.6833C31.3502 20.086 31.2757 19.4711 31.279 18.8435L31.3026 18.2355C31.31 18.1467 31.3548 17.979 31.3229 17.9052L31.1949 17.9157ZM22.8148 18.4213L22.2195 22.0896L21.6568 28.0076L21.6123 28.9048C21.6014 29.0401 21.5722 29.1729 21.5624 29.3078L21.4274 31.7836L21.0845 36.3241L20.984 38.317C20.9729 38.7277 20.9953 39.1445 20.964 39.5538C21.6393 39.5088 22.2762 39.2283 22.9328 39.0937C23.4219 38.9935 24.6186 39.0477 25.0874 39.1296C25.7521 39.2881 26.4313 39.4695 27.114 39.5205L26.564 31.2817L26.1417 25.6404L25.6785 21.5006L25.2487 18.9559C25.1339 18.3214 25.2571 18.4219 24.612 18.4211L23.4682 18.4197C23.2796 18.4192 22.9913 18.3738 22.8148 18.4213Z" fill="black"/>
</svg>
