<svg width="48" height="48" viewBox="0 0 48 48" fill="none" xmlns="http://www.w3.org/2000/svg">
<path d="M29.8578 41.13C29.4667 41.1309 29.101 41.2115 28.7162 41.2357L25.7677 41.3622L21.35 41.3599L19.1295 41.2286C18.9746 41.2168 18.823 41.1807 18.668 41.1679L14.5899 40.7023C13.2811 40.5054 11.9873 40.2803 10.7076 39.9382L9.00863 39.4529C8.51715 39.3048 7.84576 39.2161 7.6891 38.6413L7.64167 38.4688C7.31607 37.2317 7.14713 35.9263 7.02413 34.6558L6.87643 32.7672C6.67192 27.573 7.85181 21.6205 11.0056 17.4456C12.4896 15.4812 13.4616 14.244 13.513 11.6353C13.5267 10.9393 13.4101 10.2976 14.3165 10.297L16.5218 10.3036C17.0386 10.3041 17.5582 10.3366 18.065 10.2242C18.2141 10.2109 18.6184 10.3001 18.879 10.3003L29.3446 10.2993C29.4534 10.2958 29.5198 10.2719 29.6188 10.2331C29.7951 10.1638 29.9497 10.2857 30.1237 10.2966C30.3307 10.3097 30.5453 10.2996 30.7529 10.2998L33.7968 10.3047C34.2419 10.3078 34.4675 10.6118 34.4695 11.0568L34.4737 11.6381C34.4925 12.1021 34.5666 12.5806 34.6476 13.0372C35.0687 15.4135 36.3482 16.4309 37.6429 18.3318C38.3331 19.3451 38.8778 20.4615 39.336 21.5964L40.0487 23.7237C40.1855 24.0586 40.2064 24.4501 40.3292 24.7946C40.5003 25.2749 40.5965 26.1089 40.6931 26.6249L40.9727 28.6054C41.1407 30.107 41.2133 32.1514 41.1198 33.6793L40.7496 36.6466L40.4106 38.2968C40.2024 39.2796 39.8919 39.1821 38.9766 39.4699C36.6505 40.2013 34.2485 40.644 31.83 40.9338L29.8578 41.13ZM19.7988 11.5205L19.1853 11.5233C19.079 11.5238 18.9536 11.5115 18.8506 11.5348L18.8117 12.5978C18.8004 12.7847 18.7659 12.9671 18.7464 13.1531L18.6153 14.2801C18.3942 15.6966 18.0447 17.0948 17.7339 18.4932L17.1716 21.4258L16.6897 24.9023L16.4939 27.5742L16.477 31.2765C16.4785 31.929 16.5346 32.5516 16.5762 33.2017L16.6958 34.7482C16.7564 35.6259 16.8959 36.4957 17.0112 37.3662C17.1204 38.1906 17.1823 39.0449 17.3637 39.8574C18.1587 39.8658 18.9385 39.9721 19.7301 40.0307C20.1059 40.0585 20.4857 40.0406 20.8622 40.0561L21.8064 40.1343L25.8261 40.1355L27.7758 40.0325C27.8882 40.0258 28.0427 40.0273 28.1471 39.9898L30.6834 39.8219C30.813 39.2152 30.8905 38.603 30.9712 37.9886L31.4997 32.7467L31.5589 28.7137C31.5557 28.552 31.5278 28.3924 31.5242 28.2308L31.4882 26.9469C31.3965 25.32 31.1951 23.6758 30.9382 22.0663L29.3679 14.3203L29.1999 12.9851C29.1333 12.5224 29.2484 11.9481 29.1567 11.5287L19.7988 11.5205ZM30.5257 11.5205L30.3701 11.5332C30.2069 12.2888 30.4911 13.9106 30.6698 14.7483L31.043 16.5646C31.5293 18.7348 32.0011 20.9118 32.3028 23.1186L32.7293 27.7265L32.7335 31.957C32.7289 32.1302 32.6917 32.2997 32.686 32.4726L32.6744 33.4218C32.6704 33.5275 32.6433 33.6293 32.6339 33.7341L32.2185 37.8398C32.1356 38.4493 31.9904 39.0644 31.9464 39.6764L37.8927 38.5164L39.2393 38.1073L39.4542 37.0333C39.801 35.1879 39.9505 33.8691 39.9525 32.0234L39.9398 30.4442L39.7737 28.6288C39.4329 25.3868 38.4978 21.6735 36.5977 18.9623L35.1072 17.0058C33.9116 15.359 33.3241 13.569 33.2836 11.5289L30.5257 11.5205ZM14.7281 11.5205C14.5913 14.275 13.9187 15.6365 12.2386 17.8493C11.7445 18.5001 11.2194 19.1399 10.8265 19.8595C9.38387 22.5023 8.67287 25.1687 8.29857 28.1197C8.23538 28.618 8.14642 29.1298 8.11374 29.6306L8.08056 31.7407C8.08145 33.4867 8.25934 36.4721 8.81242 38.1269L10.9688 38.744C11.4688 38.8793 11.9923 39.0404 12.5055 39.1108L16.1437 39.7126C16.075 38.8948 15.8762 38.0916 15.7736 37.2773L15.3058 32.0454L15.305 27.4914L15.5983 23.871L16.0665 20.8122L17.5275 13.5351C17.5917 13.0932 17.7126 11.9776 17.6292 11.5286L14.7281 11.5205Z" fill="black"/>
</svg>
