<svg width="48" height="48" viewBox="0 0 48 48" fill="none" xmlns="http://www.w3.org/2000/svg">
<path d="M34.6318 8.10209C34.707 8.99787 35.0349 10.0071 35.3572 10.8528L35.6011 11.531C35.7695 12.0631 35.975 12.6154 36.1991 13.1268L39.1052 19.2295L43.2853 27.5857L44.4513 30.514C44.6891 31.2308 45.0996 31.9286 45.2668 32.6631C45.3954 33.2278 45.9721 35.4236 45.7367 35.9411C45.4947 36.4733 43.8989 37.4785 43.3944 37.7607L42.1639 38.3893C41.2969 38.8726 40.4512 39.4856 39.4493 39.6441C38.6509 39.7704 38.9206 39.5981 38.2685 40.0767C38.0641 40.2268 37.8499 40.3582 37.6318 40.4875C34.7543 42.1927 31.9691 43.2152 28.6169 43.2048C28.2794 43.2037 27.9165 43.2262 27.5823 43.1808L23.5725 42.6291C22.1563 42.5344 22.0796 42.714 20.7288 43.0094C18.3882 43.5213 16.6524 43.4275 14.3375 42.7682C12.9176 42.3637 11.144 41.5464 10.2274 40.3338C9.92627 39.9354 9.94024 39.7955 9.43005 39.714L8.03894 39.4468C6.92754 39.1622 5.7581 38.6598 4.76632 38.0734C4.10281 37.6812 2.45966 36.5419 2.20415 35.8084L2.19299 35.7744C1.87624 34.8253 3.08637 31.5902 3.41745 30.6671L4.0851 28.973L10.331 16.2463C11.2935 14.318 12.678 11.9266 13.0927 9.7909C13.1365 9.56515 13.1194 9.3319 13.1627 9.10859C13.2002 8.91462 13.315 8.74184 13.3294 8.54337C13.349 8.27468 13.3332 7.99592 13.3335 7.72592L13.3338 6.13648C13.3339 5.8451 13.2818 5.42726 13.3808 5.15154L13.4122 5.05526C13.6046 4.477 14.6922 4.80734 15.1318 4.86242C15.5826 4.9189 16.0415 4.9459 16.4954 4.94796L18.3746 4.94318L22.8356 4.6491L25.3108 4.64453L28.3497 4.82749C28.6542 4.85417 28.9594 4.9167 29.2638 4.9346C30.5934 5.01288 31.9751 4.94595 33.2923 4.77443C33.7559 4.71406 34.3208 4.5265 34.5665 5.05498C34.6927 5.40818 34.6382 5.81937 34.6361 6.19067L34.6354 7.30324L34.6318 8.10209ZM14.4584 9.7316L13.3804 13.0076L10.8998 18.2301L7.19172 25.5823C5.91293 28.126 4.65575 30.6997 3.88158 33.4495L3.49109 35.3154C4.04889 36.005 4.89349 36.6164 5.66397 37.0522L11.3314 20.2834C11.4248 20.0036 11.5092 19.7124 11.6238 19.4408C11.8916 18.8059 12.6303 18.6979 12.8711 19.2577L12.8993 19.3201C13.1448 19.8588 12.3264 21.5939 12.1341 22.1265L7.56372 35.6296C7.49116 35.8524 6.8936 37.5267 6.90846 37.5797C6.96068 37.766 9.35126 38.3671 9.68449 38.4198C9.76394 37.8739 9.91413 37.3339 10.0445 36.7985L10.8086 33.8933L16.5314 14.1608C16.6582 13.7373 16.7727 13.3035 16.9335 12.8916C17.2828 11.9963 18.404 12.431 18.2208 13.2825C18.1715 13.5111 18.0718 13.7555 18.0003 13.9802L13.3136 29.4255L11.0239 38.3928C10.8845 39.0598 10.8974 39.0044 11.3685 39.4745C13.4797 41.5818 16.4416 42.2684 19.3358 41.851C20.0328 41.7505 20.6646 41.6531 21.3299 41.4101L21.3307 15.1866C21.3309 14.614 21.2236 13.5725 22.1052 13.619C22.7794 13.6546 22.6884 14.3403 22.6886 14.7788L22.6868 20.2146L22.689 41.2476L23.8944 41.2724C25.9837 41.3398 27.7598 42.0594 29.9259 41.8035L30.7592 41.6637C32.6772 41.3312 34.4594 40.6727 36.1614 39.7366L36.9433 39.2951C37.083 39.2143 37.2353 39.1049 37.3868 39.0502L30.1464 15.0466C30.0511 14.7195 29.8751 14.3433 30.0778 14.0212C30.4445 13.4388 31.1305 13.6413 31.3367 14.2849L31.7894 15.9122C31.7973 15.9481 31.8087 15.9804 31.8207 16.0149L32.7542 19.2856C32.9406 19.817 33.0177 20.3863 33.2246 20.9135L34.4164 25.0654L37.7875 35.8867C37.8416 36.1158 37.9326 36.3775 38.016 36.5974L38.5369 38.1765C38.5546 38.2347 38.5972 38.2909 38.6293 38.3424L39.2667 38.2518C39.9619 38.166 40.5187 37.7307 41.1327 37.4416C41.0264 37.0501 40.8686 36.6691 40.7344 36.2861L35.9859 22.9997C35.8583 22.6485 35.5645 22.0699 35.7632 21.7053C35.9197 21.418 36.2115 21.286 36.5246 21.3644L36.557 21.3714C36.6972 21.403 36.8332 21.5118 36.9064 21.6345L39.3163 28.4051C39.4167 28.6459 39.5104 28.929 39.5817 29.1794L41.7725 35.2253C41.8686 35.4657 42.2389 36.6428 42.3718 36.7473L44.4401 35.398C44.2699 32.7035 42.8589 29.7827 41.6892 27.4079L36.0172 15.9482L34.4399 12.2358L33.8788 10.6575C33.4869 9.46765 33.784 9.7047 32.4725 9.79915L26.7992 10.1254C26.6373 10.1331 26.4804 10.1689 26.3173 10.174L21.4531 10.1756C21.2914 10.1686 21.1361 10.1298 20.9764 10.1179L17.7655 10.0048L16.1203 9.85334C15.5835 9.80149 14.9799 9.87907 14.4584 9.7316ZM22.8426 6.00996L18.3962 6.29885C17.1521 6.3521 15.9181 6.29548 14.6818 6.1572L14.6893 8.40298L25.2069 8.77029C25.7522 8.7709 26.342 8.81909 26.8797 8.72581L27.1111 8.69852C27.8944 8.57098 28.9021 8.63852 29.7643 8.57384L33.3161 8.38648L33.3255 6.16821C31.371 6.4452 29.3648 6.29426 27.4054 6.15129L26.562 6.0679C26.0951 6.03762 25.6222 6.0597 25.1542 6.0492L22.8426 6.00996ZM34.6298 6.34329L34.6318 8.10209L34.6469 7.30324C34.623 7.19313 34.6316 7.07496 34.631 6.96242L34.6298 6.34329Z" fill="black"/>
<path d="M34.6299 6.34375L34.6311 6.96288C34.6317 7.07542 34.6231 7.19359 34.6469 7.3037L34.6319 8.10255L34.6299 6.34375Z" fill="black"/>
</svg>
