<svg width="48" height="48" viewBox="0 0 48 48" fill="none" xmlns="http://www.w3.org/2000/svg">
<path d="M33.4161 39.4793C32.6132 39.8187 31.9442 40.3385 31.1721 40.7229C29.8796 41.3665 28.3469 41.4723 26.9571 41.1172L25.8867 40.8052C24.6413 40.4843 23.1966 40.5034 21.9649 40.8516C21.5562 40.9671 21.1651 41.1254 20.748 41.2128C19.3255 41.5108 17.4002 41.2436 16.1346 40.4552C15.9759 40.3563 15.837 40.2221 15.6849 40.1127C13.5617 38.5857 12.0088 39.6798 10.0497 38.7977C9.58701 38.5893 9.16167 38.3085 8.72742 38.0489L7.68895 37.4283C7.00288 36.971 6.27131 36.1901 6.11156 35.3523L6.07874 35.1717C6.04513 34.9208 6.07312 34.6606 6.13846 34.4173L9.81656 21.7268L11.3087 16.3347C11.6163 15.1962 11.8866 14.0294 12.2896 12.9208C12.4015 12.613 12.3758 12.2581 12.3776 11.9345L12.3823 10.8196C12.3854 10.3354 12.4627 9.86511 12.4782 9.38206C12.511 8.36056 12.1051 6.83234 13.3908 6.6875C13.8766 6.69955 14.3894 6.88344 14.858 7.01056C15.7058 7.24053 16.5438 7.49066 17.4188 7.59702L20.097 7.82328C20.3014 7.83627 20.5023 7.87512 20.7075 7.88281L22.8187 7.93873L27.3425 7.86992L29.754 7.68608C30.2969 7.64281 30.8789 7.59242 31.4115 7.47927L32.4472 7.21855C33.0245 7.05097 34.4615 6.48903 35.0389 6.78519L35.0626 6.79803C35.232 6.88714 35.3601 7.01905 35.4279 7.20083L35.4388 7.23069C35.5044 7.39461 35.4887 7.54986 35.4959 7.7232L35.5318 8.546C35.5396 8.69487 35.5678 8.83789 35.5793 8.98559L35.6357 9.81898C35.6537 9.98698 35.6898 10.1438 35.6971 10.315L35.7117 12.7296C35.7124 12.8315 35.6982 12.9507 35.7416 13.0443C35.9411 13.4747 36.2504 14.6371 36.3579 15.176L36.7331 16.5702C36.7767 16.7986 36.8742 17.0208 36.9208 17.2482L37.1073 17.9299C37.1664 18.2324 37.3154 18.7857 37.4222 19.0859L38.3273 22.3479C38.4011 22.6751 38.5284 23.1268 38.6414 23.4473L39.0764 24.9612C39.1272 25.2082 39.2104 25.4911 39.296 25.7276L41.7992 34.3155C41.8062 34.3472 41.8123 34.3776 41.824 34.4081L41.8461 34.4657C42.4663 36.2475 39.8986 37.8587 38.6238 38.4845C37.2096 39.1788 36.5669 39.1569 35.0978 39.13C34.5096 39.1192 33.9624 39.2822 33.4161 39.4793ZM34.0904 8.26194C31.8485 8.97584 30.2564 9.146 27.9468 9.28466C27.6023 9.30537 27.2538 9.3568 26.9099 9.36669L21.2579 9.36509L17.8282 9.10297C16.6248 8.9772 14.9434 8.67612 13.7851 8.25364L13.6756 11.3039C13.6608 11.4611 13.6398 11.7318 13.6779 11.8862C14.0802 11.9532 14.5105 11.9215 14.9181 11.9374L19.3358 12.2021L27.9457 12.2049C28.1785 12.1995 28.4055 12.1646 28.6368 12.1532L30.5177 12.0972C30.721 12.0882 30.9209 12.0507 31.1236 12.0387L32.0456 12.0155C32.2411 12.0132 32.4452 12.0193 32.6369 11.9788C33.1715 11.8659 33.7799 12.0162 34.2864 11.8825L34.2436 10.0782C34.2333 9.48172 34.2529 8.86639 34.1735 8.27366L34.0904 8.26194ZM32.6679 13.4409L15.1207 13.4517C15.3601 13.5663 15.5697 13.7378 15.7947 13.8806L17.0647 14.6494C18.515 15.4287 20.0622 16.0368 21.6915 16.3116L22.3829 16.4078C26.557 16.8256 29.4692 15.6247 32.9733 13.4235C32.8729 13.4335 32.7686 13.4504 32.6679 13.4409ZM13.4685 14.0132C13.3879 14.2347 12.873 16.0352 12.8971 16.1093C15.6009 17.9972 19.3792 19.5341 22.6239 19.7974C25.0889 19.9974 27.7247 19.5944 30.0508 18.7358C31.7741 18.0997 33.3605 17.139 34.9572 16.2453L35.1604 16.1247L34.8033 14.9299C34.7253 14.6412 34.6751 14.2996 34.5441 14.0313C33.8217 14.4778 33.1668 15.0284 32.4309 15.4611C31.1923 16.1893 29.8535 16.8473 28.4756 17.2657L27.4103 17.5359C22.8705 18.6506 18.7829 17.5197 14.8712 15.0005C14.3898 14.6905 13.9534 14.3172 13.4685 14.0132ZM12.4747 17.5901C12.4077 17.7409 12.3833 17.8905 12.3371 18.0466L11.3063 21.9116L7.60612 34.6451C7.58188 34.7216 7.49924 34.9389 7.52306 35.0006L7.58137 35.1505C7.9394 36.0751 9.62873 36.9982 10.5758 37.4015L10.7954 37.4896C11.5694 37.7836 12.3763 37.7617 13.1912 37.7567L15.4127 19.8729C15.4383 19.6648 15.4735 19.4588 15.4723 19.2484L12.4747 17.5901ZM35.4843 17.6135L32.7223 19.1301C32.6337 19.1771 32.5279 19.2151 32.4502 19.277C32.481 19.6015 32.4989 19.9565 32.569 20.2736L34.8592 37.6576C35.7971 37.7149 36.3673 37.7399 37.2664 37.4872C38.4764 37.0082 39.8388 36.2484 40.5164 35.1147L35.6564 18.0185C35.6193 17.8848 35.6009 17.7282 35.5265 17.6101L35.4843 17.6135ZM16.8611 19.8523L14.6187 37.927C15.6867 38.3263 15.9674 38.5919 16.8831 39.1708C17.6871 39.6792 19.1967 40.0287 20.1645 39.7977L20.9351 39.6353C21.7457 39.4036 22.5102 39.2221 23.3568 39.1782L23.349 21.2777L21.8974 21.1586C20.1702 20.9632 18.4621 20.5326 16.8611 19.8523ZM31.0482 19.8635C29.2693 20.6905 26.6801 21.2062 24.7535 21.2654L24.7435 39.2026C25.0275 39.2076 25.2935 39.2063 25.5717 39.2714L27.2758 39.6815C28.4964 39.9891 29.8328 39.8618 30.9271 39.2048C31.2481 39.0121 31.5378 38.7701 31.8634 38.5857C32.3694 38.2991 32.9099 38.1192 33.4399 37.8874L32.6531 32.1268L31.1443 20.4432C31.1294 20.3049 31.1384 19.9867 31.0704 19.8748L31.0482 19.8635Z" fill="black"/>
</svg>
