<svg width="48" height="48" viewBox="0 0 48 48" fill="none" xmlns="http://www.w3.org/2000/svg">
<path d="M33.7446 37.7477C33.3572 37.849 32.98 38.0164 32.5996 38.1432C31.7085 38.4401 30.8096 38.5962 29.8702 38.6257L29.8686 39.5898C29.8419 40.1218 29.8998 40.7298 29.4105 41.0076L29.281 41.0764C29.0883 41.1573 28.7082 41.1098 28.4903 41.11L24.5626 41.1023C23.2918 41.0529 21.9963 40.8857 20.7834 40.4918C19.8084 40.1752 18.9772 39.5753 18.0612 39.1304C15.5037 37.888 12.589 37.1479 9.75578 36.8955L7.68958 36.812C7.48525 36.8111 7.20649 36.8452 7.01786 36.7657L6.98449 36.7504C6.13882 36.3698 6.54171 34.8483 6.63222 34.0817L7.06924 29.6902C7.45652 26.1234 7.8648 22.5349 8.82414 19.0671C9.32482 17.2573 10.067 15.6372 10.992 14.0154L11.0961 13.8326C11.1394 13.7567 11.0863 13.7622 11.0223 13.7051C10.5629 13.2947 10.6882 12.7217 10.6877 12.1639L10.6863 8.50653C10.6864 7.87559 10.5168 7.04609 11.4296 6.96832L36.0532 6.96195C37.2272 6.95932 37.3326 7.11138 37.3493 8.1837L37.3604 12.9484C37.3593 13.296 37.263 13.4843 37.0158 13.7272L37.4021 14.6014C37.5784 14.9826 37.8102 15.3625 37.9473 15.7586L39.2971 19.3642L40.1139 22.1518L40.508 23.8946C40.6505 24.3417 40.682 24.843 40.782 25.3006L40.8838 25.7987C41.0675 26.5447 40.9209 27.7077 40.5381 28.3966L40.5145 28.4378C40.6472 28.999 40.7511 29.5493 40.8754 30.1053C41.1472 31.3204 41.2348 32.5999 41.3549 33.8384L41.4838 35.5942C41.4888 35.7912 41.5188 36.0244 41.4502 36.2114L41.3996 36.3405C41.1557 36.8522 40.7096 36.816 40.2344 36.8156L38.8863 36.8247C38.64 36.8387 38.401 36.8794 38.1564 36.9057L36.961 37.0321C35.8929 37.1694 34.7697 37.4101 33.7446 37.7477ZM12.1476 8.45993L12.1448 12.2828L35.9015 12.2868L35.9024 9.77984C35.9022 9.35328 35.933 8.90023 35.8873 8.47671L12.1476 8.45993ZM12.621 13.7703C12.534 13.9271 12.4385 14.4129 12.2977 14.7002L11.5389 16.1065C10.3939 18.3132 9.85047 20.7617 9.41917 23.1929L8.80882 27.229L7.95907 35.2783C8.30153 35.3076 8.64428 35.2795 8.98577 35.3029C12.3259 35.5313 15.9943 36.384 19.0097 37.9159L20.3907 38.694C21.5063 39.2824 22.7353 39.4182 23.971 39.5539L28.3799 39.5941C28.4432 39.1193 28.4053 38.595 28.406 38.1148L28.3988 30.4629L28.2226 24.8755C28.1961 24.2608 28.1661 23.2605 28.081 22.709C28.0068 22.228 28.0631 21.7186 28.0283 21.2319L27.9165 19.461C27.8996 19.2246 27.8584 18.9896 27.8498 18.7529L27.834 16.4907C27.8279 16.2432 27.7811 16.0014 27.773 15.7554L27.7688 13.7701L12.621 13.7703ZM29.2928 13.7693C29.2343 13.9056 29.2459 14.0486 29.2455 14.1919L29.2541 16.3329C29.2622 16.5031 29.3071 16.6667 29.3131 16.8381L29.4453 20.7537L29.6792 24.5191L29.7361 26.3835C29.746 26.5928 29.8001 26.794 29.8055 27.0051L29.813 29.3962C29.8166 29.6449 29.8708 29.8838 29.8739 30.1329L29.8727 37.1011C31.2943 37.1151 32.5491 36.5588 33.8763 36.1433C35.1426 35.7469 36.4771 35.5568 37.7931 35.4215L38.7574 35.3186C39.0952 35.2939 39.4443 35.3319 39.7779 35.2973L39.988 35.2909L39.6867 31.9008C39.6109 31.2901 39.5536 30.6305 39.3616 30.0442L39.3349 30.0832C38.7336 30.9337 37.248 31.4774 36.2821 31.6191C34.7341 31.8462 34.8208 31.3389 34.5803 30.1801L33.0131 23.5139C32.933 23.1359 32.6407 23.4533 32.2032 23.302L32.17 23.2909C32.0346 23.2429 31.9404 23.1495 31.8535 23.0389L31.8266 23.0053C31.6988 22.8383 31.6628 21.9581 31.6184 21.6209L31.4904 20.6781C31.1868 18.6913 30.6579 16.7547 29.8793 14.9013C29.731 14.5484 29.5785 14.0692 29.3437 13.7721L29.2928 13.7693ZM31.024 13.7845L31.0814 13.9652C31.1035 14.0286 31.1432 14.0831 31.1701 14.1443L31.9103 16.0974C31.9448 16.2016 31.9653 16.3109 32.0034 16.4139L32.1966 17.0697C32.5365 18.0995 32.7841 19.5413 32.9461 20.6051L33.0509 21.3417C33.067 21.4822 33.0695 21.6232 33.0953 21.7626L34.3331 21.7769C34.3327 19.3183 33.696 16.895 32.8099 14.6147L32.59 14.0297C32.5603 13.9408 32.5571 13.7751 32.4411 13.7749L31.024 13.7845ZM34.8782 13.7707L34.1087 13.8418C34.1706 13.9661 34.2176 14.1287 34.2668 14.2615L34.9765 16.4323C35.0136 16.5954 35.0755 16.7575 35.1143 16.9217L35.672 19.7714C35.7725 20.6125 35.7896 21.2875 35.7888 22.1391C35.7882 22.6451 35.8706 23.0204 35.3204 23.2711L35.2969 23.282C34.7317 23.533 34.2137 22.8704 34.6283 24.0086L35.4468 27.3337C35.6164 28.1953 35.8423 29.2855 36.0711 30.1276C36.4346 30.0705 36.7996 29.9954 37.1338 29.836C38.2985 29.3237 39.5213 27.8539 39.5132 26.5076C39.5117 26.2605 39.4482 26.0098 39.3968 25.7693L38.8946 23.2836L38.3056 21.088C37.8238 19.4344 37.2426 17.8152 36.5455 16.2396L35.671 14.3932C35.1894 13.3295 35.702 13.9946 34.8782 13.7707Z" fill="black"/>
</svg>
