<svg width="48" height="48" viewBox="0 0 48 48" fill="none" xmlns="http://www.w3.org/2000/svg">
<path d="M31.2182 42.2418C30.3972 42.3678 29.542 42.4097 28.7132 42.4592L27.4907 42.5544L20.4561 42.5582C19.7876 42.5548 19.1331 42.4776 18.4665 42.4398L17.2555 42.3389C15.8714 42.1979 14.4908 41.9606 13.1251 41.6981L11.9773 41.4532C11.2121 41.2878 10.9039 41.233 11.0042 40.3341L11.9302 31.2893C11.9954 30.6456 11.9911 30.4995 11.9359 29.8597L11.653 26.4239L11.7025 22.9456C11.9221 19.0306 12.7678 14.8285 14.8404 11.4355L15.2628 10.7554C15.3135 10.6717 15.7065 10.119 15.7069 10.1089L15.7275 6.29323C15.7332 6.04643 15.7268 5.91326 15.8895 5.71901L15.9131 5.69037C16.0642 5.5098 16.237 5.44343 16.4634 5.42285L31.4528 5.43949C31.7826 5.43996 32.0106 5.49607 32.1793 5.8219L32.2042 5.87135C32.4176 6.22559 32.295 7.45371 32.2953 7.90704L32.2973 10.1203C33.6154 11.7888 34.3727 13.8958 35.077 15.8832L35.4262 17.1338C35.4906 17.5371 35.6786 18.0951 35.766 18.5276L35.9537 19.594C36.1669 20.848 36.3086 22.1495 36.3479 23.4216L36.3316 26.8181L36.0476 30.1878C35.9736 30.8594 35.9712 30.7984 36.0707 31.4406L36.8096 39.2016C36.8456 39.5945 36.8843 39.9869 36.9161 40.38C37.0076 41.5111 36.443 41.3492 35.4996 41.5399L31.2182 42.2418ZM16.9446 6.6859C16.9142 6.9852 16.9431 7.29668 16.9431 7.59298L16.9341 9.86177L20.0153 9.86018C20.0642 9.0671 20.106 7.48034 20.016 6.68618L16.9446 6.6859ZM21.2613 6.68201L21.2536 9.58132C21.2536 9.66776 21.2408 9.77885 21.2629 9.86149L26.7218 9.86023C26.7714 9.13212 26.8176 7.41457 26.7276 6.68927L21.2613 6.68201ZM27.9656 6.68201L27.9516 8.45595C27.9517 8.9044 27.9053 9.42345 27.99 9.86168L31.0781 9.86018L31.068 6.68641L27.9656 6.68201ZM16.4859 11.1288L15.6107 12.6096C13.9476 15.6398 13.2265 19.1813 12.9859 22.6022L12.9221 26.7947C12.9301 27.0521 12.9675 27.2972 12.9882 27.5512L13.1346 29.3186C13.2326 30.1993 13.2418 30.6506 13.1559 31.5681L19.9511 32.3755L22.4028 32.4474C22.7581 32.4471 23.1374 32.4709 23.49 32.4316L23.4669 11.1336L16.4859 11.1288ZM24.7085 11.1318L24.7061 32.0812L26.0392 32.0633C26.1711 32.0556 26.2948 32.0256 26.4232 32.0143L31.4884 31.4969L34.1193 31.0392L34.7622 30.9273L34.9346 28.7575C34.9952 28.2611 35.0481 27.5516 35.0721 27.0381L35.0794 23.0957L34.7176 19.7815C34.2135 16.6004 33.2994 14.1771 31.6794 11.4577C31.5097 11.1728 31.5905 11.1309 31.2252 11.131L24.7085 11.1318ZM34.842 32.1682C34.2042 32.3498 33.5586 32.4457 32.9074 32.5631L27.2669 33.2526L24.6894 33.3807L24.7027 36.6613L25.0572 36.6448L35.2344 35.4047L34.9962 32.9158C34.9689 32.6651 34.9729 32.4107 34.9157 32.1636L34.842 32.1682ZM13.0147 32.8479L12.6628 35.9627C13.168 36.0808 13.6858 36.1421 14.1976 36.2207L16.6095 36.5583L20.0206 36.7751C20.9208 36.7802 21.1526 37.6857 20.5179 38.0229C20.3351 38.1201 18.9986 37.9958 18.7583 37.9767L16.608 37.8392L12.5751 37.254L12.2821 40.2172L14.5894 40.6576L17.4718 41.059L19.3502 41.1923C19.728 41.2172 20.105 41.2751 20.4845 41.2874L23.4746 41.2963L23.473 33.6791L20.7171 33.7241L17.4139 33.4235L13.0147 32.8479ZM35.2443 36.7143L24.701 37.9343L24.6855 41.3202L25.0958 41.2962L27.15 41.2859L30.2697 41.0534L32.6061 40.7273C33.6174 40.5737 34.6396 40.4402 35.6376 40.213L35.3713 37.2544C35.3531 37.0726 35.3501 36.8898 35.3139 36.71L35.2443 36.7143Z" fill="black"/>
</svg>
