<svg width="48" height="48" viewBox="0 0 48 48" fill="none" xmlns="http://www.w3.org/2000/svg">
<path d="M32.6861 39.2787L30.4761 39.6963C29.8265 39.8133 29.1606 39.8735 28.5049 39.9476L27.4384 40.053C27.2756 40.0692 27.1175 40.0994 26.9531 40.1087L24.5934 40.1717L21.468 40.1046L15.7443 39.3931C15.1862 39.3029 15.0026 39.1704 14.4698 39.0439L13.6964 38.8416C12.4276 38.4705 11.2497 37.907 10.2007 37.0935C9.71472 36.7167 9.55961 36.4715 8.96181 36.2621L7.95466 35.9362C6.48653 35.4172 4.69576 34.5176 3.79205 33.1758L3.74253 33.1022C3.64678 32.9513 3.62731 32.7563 3.67295 32.5836L3.68125 32.5547C3.73933 32.3473 3.8751 32.1444 3.97864 31.9558L6.03526 28.278L9.59659 22.5469L12.9153 17.5706C13.2407 17.0926 14.2197 15.4939 14.6494 15.1972L14.6977 15.1611C14.8433 15.005 14.7674 14.7426 14.7682 14.5498L14.7767 12.8759C14.7325 12.7886 14.7011 12.7727 14.6279 12.7146C14.3296 12.4779 14.4319 11.9438 14.4317 11.6134L14.432 8.8999C14.4309 8.38929 14.3612 7.81587 15.066 7.76825L18.2519 8.14793L21.1207 8.35437L24.765 8.43406C25.0964 8.43148 25.4389 8.4349 25.7678 8.39018C26.2618 8.32292 26.7864 8.37429 27.2867 8.34237L32.1594 7.86879C32.5903 7.81278 33.1746 7.58599 33.4735 8.02756L33.4951 8.0606C33.6533 8.2991 33.5661 8.72675 33.5657 9.00003L33.5645 11.8019C33.5636 12.2822 33.6098 12.3425 33.3691 12.7622C33.2374 12.9915 33.3377 13.2831 33.346 13.5374L33.3502 14.8001C33.4254 14.9231 33.536 14.9774 33.6162 15.0908C33.805 15.3579 33.9652 15.6531 34.1342 15.9332L36.1435 19.1836L41.2466 27.0235L43.9979 31.8696C44.4338 32.6569 44.6066 32.773 43.9432 33.5487C42.9041 34.7635 40.3235 36.3859 38.7587 36.8313C38.5628 36.887 38.3573 36.9101 38.1646 36.973L38.1329 36.9836C37.8239 37.0807 37.5347 37.3822 37.2612 37.5592C36.2246 38.23 35.0751 38.6363 33.8884 38.9586C33.4807 39.0694 33.0898 39.1411 32.6861 39.2787ZM15.6641 9.11515L15.6516 10.9614C15.6516 11.1995 15.6178 11.5025 15.6612 11.7327L19.1715 11.727L19.1946 9.44909L15.6641 9.11515ZM32.2316 9.12659L29.2551 9.41942C29.1256 9.42607 28.9329 9.40582 28.8141 9.44525L28.8981 11.7429L32.3453 11.7222L32.3451 9.12893C32.3025 9.1182 32.2749 9.11984 32.2316 9.12659ZM20.4678 9.57331C20.4325 9.72907 20.3855 11.6072 20.4519 11.7353L25.2285 11.7267C25.4559 11.7266 27.5509 11.7423 27.5845 11.71L27.584 9.5772C27.4759 9.55048 27.323 9.5697 27.2096 9.57232L25.9042 9.65131L21.4695 9.60401C21.1379 9.58967 20.7971 9.59993 20.4678 9.57331ZM16.0097 12.9952L16.008 14.2514C16.0073 14.4978 15.9802 14.7738 16.0106 15.0163L31.0693 15.0158C31.3819 15.014 31.7239 15.0162 32.0274 14.9342L32.0908 12.992L16.0097 12.9952ZM32.7207 16.0899C31.8999 16.2298 31.0969 16.2705 30.2661 16.266C30.4219 16.9848 30.5507 17.6781 30.7993 18.375L31.1255 19.2087C31.1943 19.419 31.3136 19.6361 31.4045 19.8399L34.9966 27.185L36.8464 31.3048L38.5051 35.5438C38.8271 35.4585 39.1288 35.3748 39.4306 35.2314C39.5978 35.152 39.8003 35.0052 39.9712 34.9545C41.0618 34.2809 42.1278 33.6214 43.0336 32.701L32.7207 16.0899ZM15.3306 16.2644L5.00162 32.7023C5.70039 33.5224 6.9392 34.2544 7.97462 34.6083L9.69376 35.2018C9.77026 34.9379 9.87512 34.683 9.96775 34.4244L12.3889 28.5533L16.5291 19.9602C17.0653 18.7676 17.5753 17.5669 17.7283 16.254L15.8569 16.2604C15.7434 16.2601 15.4277 16.2235 15.3306 16.2644ZM28.2303 16.2644L19.0332 16.2676C18.8584 17.0108 18.7064 17.7402 18.4666 18.4688C17.7654 20.599 16.6504 22.5757 15.6681 24.5835C14.2554 27.4712 12.8637 30.3756 11.6995 33.3739C11.3663 34.2318 11.0119 35.0787 10.7419 35.9606C11.7917 36.8849 13.5316 37.5954 14.872 37.8251L15.2755 35.0689C15.4196 34.2351 16.2655 29.7821 16.8634 29.2716C17.3442 28.8612 17.9448 29.3662 17.767 30.0476L16.9707 32.836L16.1663 37.4062C16.1322 37.6474 16.0759 37.9185 16.0863 38.1629C16.6327 38.3385 17.2453 38.3874 17.8113 38.4694L20.9064 38.8163L23.4137 38.9002L23.4205 24.4641L23.4179 21.7065C23.4179 20.9793 24.1184 20.7236 24.4583 21.1467L24.5332 21.2578C24.56 21.2997 24.5697 21.3342 24.5868 21.3789L24.6025 21.4114C24.6303 21.4856 24.6217 21.5803 24.6229 21.6586L24.6253 37.2653C24.6253 37.8017 24.5923 38.365 24.6342 38.8983C26.5661 38.881 28.489 38.7304 30.3985 38.4346L31.9308 38.1354C32.0468 37.9141 31.2344 33.5697 31.1057 32.9797L30.4233 30.5456C30.3107 30.2404 30.0802 29.7904 30.2353 29.4716C30.3734 29.1874 30.7525 29.0381 31.0361 29.2046C31.3285 29.3762 31.431 29.7502 31.5493 30.0469L32.2867 32.5567C32.417 32.9975 32.4602 33.4746 32.5448 33.9258L33.166 37.838C34.6785 37.4776 36.0747 36.9273 37.3226 35.9808L35.2562 30.7358L31.8634 23.6546C30.925 21.8171 29.9724 19.9557 29.374 17.9747C29.2019 17.4048 29.1164 16.8339 28.9923 16.2551L28.2303 16.2644Z" fill="black"/>
</svg>
