<svg width="48" height="48" viewBox="0 0 48 48" fill="none" xmlns="http://www.w3.org/2000/svg">
<path d="M30.3758 40.821C30.1639 41.1069 29.8921 41.0789 29.5723 41.074L18.1332 41.0801C17.4377 41.0552 17.5389 40.2967 17.4258 39.7981L14.4621 27.5387L14.0972 25.0002C14.0353 24.5425 13.9751 24.07 13.9699 23.6087L13.9624 21.192C13.9723 19.1201 14.5521 16.3705 15.3762 14.5158L16.335 12.4838C17.0341 11.0343 17.454 10.0352 17.4837 8.40695L17.4846 7.79627C17.4821 7.36666 17.5058 7.07505 17.9344 6.86969L17.9594 6.87011C18.2417 6.85858 18.4677 6.95256 18.7382 7.01275C20.6023 7.42769 22.5578 7.52181 24.462 7.49256L25.3661 7.44353C26.1142 7.41991 26.8542 7.40711 27.5975 7.30684L29.159 7.03731C29.5972 6.94164 30.2082 6.63386 30.4521 7.22139L30.4697 7.26527C30.574 7.46641 30.5361 7.74212 30.5363 7.96633L30.5376 8.81486C30.5399 9.22942 30.5858 9.67403 30.685 10.0778C30.8948 10.9312 31.3087 11.7453 31.7042 12.5269L32.194 13.5719C32.3484 13.9032 32.5266 14.253 32.6387 14.6005L33.4837 17.2505C33.6215 17.6908 33.6657 18.1685 33.7507 18.6207L33.9874 20.2496C34.0365 20.7073 34.0254 21.1839 34.0257 21.6438L33.9905 23.5778L33.4233 28.0309L30.5859 39.7715C30.5142 40.0948 30.5275 40.5297 30.3758 40.821ZM18.6126 8.18927C18.6102 8.94428 18.5746 9.70103 18.4123 10.4414C20.2622 11.1167 23.5547 11.3353 25.5213 11.1663L26.1444 11.086C27.1612 10.9795 28.1604 10.8555 29.1384 10.5392L29.584 10.3903C29.4699 9.6573 29.4009 8.96917 29.3866 8.22278C28.1716 8.44427 26.9674 8.59 25.7342 8.65295L22.8279 8.65389C21.4103 8.61367 19.9963 8.52808 18.6126 8.18927ZM29.9659 11.5589L27.3396 12.1572C26.0307 12.3879 24.6859 12.4854 23.3578 12.4396L20.6128 12.1711C20.0385 12.0908 19.4681 11.9661 18.905 11.828L18.2847 11.669C18.1968 11.6447 18.088 11.5966 17.9978 11.5945C17.8235 11.9503 17.7155 12.3615 17.4945 12.6907C17.6753 12.7815 17.8496 12.8421 18.0409 12.9047C18.751 13.112 19.4793 13.2747 20.2083 13.3972L22.0311 13.624C23.3761 13.7896 24.7601 13.76 26.102 13.6051L26.9647 13.4964C27.8792 13.3682 29.6233 13.0591 30.4538 12.6372L29.9659 11.5589ZM30.9404 13.7692C28.8087 14.5878 26.3641 14.9092 24.0852 14.9074C21.9567 14.9058 18.8277 14.6392 16.9644 13.8193L16.2299 15.5575C16.1162 15.8352 15.8307 16.2379 15.9491 16.5448L16.069 16.7889C16.5759 17.7241 17.9097 18.093 18.9022 18.2801C19.1044 18.3182 19.372 18.3132 19.5585 18.3985C20.0932 18.6433 19.9538 19.2953 19.5233 19.5485L19.4826 19.5735C19.2811 19.6829 17.7927 19.2502 17.5484 19.1703C16.9705 18.9813 16.413 18.7023 15.9072 18.367C15.819 18.3086 15.6184 18.1355 15.5221 18.1301C15.2448 19.06 15.2845 19.8478 15.1177 20.7063C15.0402 21.1053 15.1057 21.5508 15.0711 21.9595L18.3431 23.164C18.6229 23.2574 18.9681 23.3024 19.1314 23.5765L19.1465 23.6015C19.3353 23.9228 19.1741 24.3408 18.8138 24.4465C18.445 24.5545 16.3247 23.7058 15.8456 23.5343L15.4515 23.3985C15.3684 23.3723 15.2647 23.3589 15.1917 23.3126L15.1787 24.2146C15.2575 25.4388 15.4842 26.6448 15.7002 27.8488C15.773 28.2553 15.8331 28.7733 15.9746 29.1617L16.79 32.5366C16.7971 32.5751 16.8081 32.608 16.8205 32.6448L18.5018 39.2719C18.5437 39.411 18.5602 39.8279 18.6512 39.9123L29.3749 39.9137C29.425 39.776 29.4256 39.6494 29.4554 39.5101L31.8174 29.9337L32.437 26.9762L32.828 23.5737L32.8391 22.0105C32.8383 21.107 32.8253 20.4108 32.7287 19.5176L32.5978 18.6363C32.3656 17.3282 31.7247 14.9193 30.9932 13.7666L30.9404 13.7692Z" fill="black"/>
</svg>
