<svg width="48" height="48" viewBox="0 0 48 48" fill="none" xmlns="http://www.w3.org/2000/svg">
<path d="M32.2865 35.9983C31.2186 36.8372 30.2592 36.6332 30.1756 35.2027C28.5981 35.1747 28.6668 35.1269 27.2487 35.8219C25.5771 36.6411 23.1394 36.7925 21.5647 35.7284C21.2955 35.5465 21.1168 35.2449 20.8504 35.0638C20.0563 34.5242 18.8728 35.3141 18.2461 35.8C17.6602 36.2544 17.5587 36.4702 16.653 36.3611L16.6054 36.3552C15.0938 36.1743 14.8177 34.8998 14.1382 34.5967L14.1146 34.5866C13.4797 34.309 13.521 34.662 13.1543 34.7804L13.1249 34.7893C12.3439 35.0451 10.6852 34.4518 10.0977 33.9381L9.60969 33.4686C8.5333 32.5113 7.43956 32.6404 6.21223 32.3843C4.50349 32.0278 3.94266 30.5607 4.27723 28.9387C5.00853 25.3936 6.97873 21.4813 8.87642 18.4545L9.81284 16.9843L11.5021 14.6665C11.6742 14.4471 12.0954 14.056 12.0892 13.7979L12.086 11.0546C12.0868 10.4989 12.2844 10.1895 12.8813 10.1583L18.5948 10.16C18.7716 10.1672 18.9412 10.2037 19.1159 10.216L21.682 10.3404L23.2183 10.4944C24.062 10.5497 24.9308 10.4879 25.7696 10.4011L30.0071 10.1532L33.3953 10.1492C34.0333 10.1495 34.6966 10.1123 35.3319 10.1524C36.0248 10.1961 35.9213 11.0928 35.9222 11.5251L35.9203 13.1721C35.9181 13.3719 35.8547 13.8868 35.9813 14.0312C36.6201 14.7598 37.1854 15.5672 37.7384 16.3618L39.6913 19.362L40.5857 20.9522L41.9192 23.6571C42.6596 25.2179 43.5302 27.5849 43.7761 29.2311C43.9892 30.6576 43.565 31.9248 41.9882 32.3176C40.778 32.6191 39.4075 32.5516 38.42 33.4528C38.2815 33.5791 38.1649 33.7288 38.0275 33.8565C37.3665 34.4711 35.2281 35.3469 34.4738 34.4915L34.4596 34.4751C34.3276 34.4861 34.1955 34.4938 34.0678 34.5314L34.0311 34.5426C33.4428 34.7174 32.8536 35.6114 32.2865 35.9983ZM14.1405 11.5934L13.458 11.5878L13.4526 13.2441L14.8647 13.246C15.6529 13.2478 16.4259 13.3783 17.208 13.4119C18.1415 13.4519 18.9973 13.5395 19.9305 13.5407L21.9816 13.545C22.1877 13.5463 22.3906 13.6007 22.5936 13.6064L28.3227 13.5373C28.6816 13.5338 29.0731 13.5447 29.4257 13.4799C29.9564 13.3823 30.5146 13.4406 31.0515 13.4107C32.0023 13.3577 32.8173 13.2077 33.8261 13.2448L34.5223 13.2221L34.5225 11.5987L14.1405 11.5934ZM13.2892 14.6286C13.1107 14.8208 12.958 15.0315 12.7948 15.2368L11.691 16.709C10.4642 18.425 9.35089 20.2099 8.37144 22.0782L7.62702 23.5423C7.18545 24.4884 5.15455 29.3442 5.54548 30.2697L5.56292 30.3116C5.80391 30.8818 6.23412 31.0027 6.79086 31.0594L7.55244 31.1511C8.20527 31.2493 8.80212 31.4576 9.4062 31.7188C10.7064 32.347 11.0339 33.4333 12.5587 33.3996L14.339 19.3712C14.5954 17.7836 14.8842 16.1346 15.5202 14.6488L13.2892 14.6286ZM33.3186 14.63L32.493 14.6815C32.7226 15.0023 32.9213 15.7645 33.0042 16.1373L33.1309 16.6193C33.2022 16.8583 33.2412 17.1084 33.2945 17.3513L33.9849 21.6329L35.2976 32.2736C35.3519 32.6528 35.3649 33.0612 35.4411 33.4341C36.9478 33.3271 36.8805 32.8261 37.8725 32.1372C38.4055 31.767 39.0591 31.5239 39.674 31.3279C41.0993 30.8874 42.7693 31.3912 42.4057 29.3322C41.6573 25.0928 38.3112 19.3149 35.7279 15.9313L35.0877 15.1019C34.9707 14.9467 34.8652 14.7793 34.7358 14.6343L33.3186 14.63ZM30.0904 14.7813C30.071 15.1786 30.1467 15.553 30.1677 15.9487L30.296 18.7907C30.3106 18.9918 30.347 19.1902 30.357 19.3923L30.4586 22.5063C30.4813 23.2577 30.5755 24.0057 30.6154 24.7536L30.6677 26.0054C30.6748 26.1147 30.6997 26.2206 30.7074 26.3295L30.8492 28.6759L31.4709 34.8878C31.9543 34.5068 32.3477 33.9915 32.8463 33.6368L32.8588 33.6277C33.3801 33.2709 33.5345 33.2733 34.0521 33.0879L32.5618 21.3963C32.3032 19.4097 32.0503 17.3972 31.3627 15.5034L31.1938 15.0704C31.1585 14.9703 31.1401 14.8869 31.0855 14.7934C30.9475 14.7605 30.2546 14.7392 30.0904 14.7813ZM16.9305 14.7812C16.4394 16.0865 16.1973 16.9025 15.9297 18.2819L15.4736 20.9718L14.9078 25.6173L14.0446 32.6461C14.0225 32.7885 14.0094 32.9512 13.9628 33.0872C14.8877 33.3219 15.092 33.5602 15.7347 34.2637C16.0365 34.5691 16.303 34.8151 16.7078 34.9777L16.7926 33.9668C16.8148 33.5733 16.8557 33.1844 16.8733 32.7922L17.178 28.0055L17.2759 26.1875C17.2837 26.0528 17.314 25.9227 17.3231 25.7903L17.6486 19.5814L17.7395 17.8678C17.7556 17.5813 17.8106 17.3044 17.8184 17.0146L17.8376 15.9403C17.8509 15.6625 17.8813 15.0158 17.9251 14.7848L16.9305 14.7812ZM19.2938 14.9234L19.0423 19.1866L18.9888 20.7375C18.9809 20.8873 18.9456 21.0341 18.9347 21.1836L18.8177 23.5783C18.8054 23.7862 18.7634 23.994 18.7563 24.2024C18.716 25.3772 18.6479 26.5476 18.5649 27.719L18.1299 34.218C19.396 33.4586 20.776 33.1245 21.9608 34.211C22.1068 34.3448 22.2364 34.5041 22.401 34.6153C23.2889 35.2149 24.9485 35.1291 25.9569 34.8485C26.4555 34.7098 26.8984 34.4236 27.3635 34.2081C28.1929 33.7618 29.0338 33.7711 29.9473 33.7724L29.6496 30.7033L29.18 24.0045L28.9766 18.9522C28.9534 18.5003 28.9069 18.0509 28.8793 17.5846L28.7105 14.9324L19.2938 14.9234Z" fill="black"/>
</svg>
