<svg width="48" height="48" viewBox="0 0 48 48" fill="none" xmlns="http://www.w3.org/2000/svg">
<path d="M31.8104 39.9461L26.9299 40.4786C26.3423 40.5214 25.5155 40.5509 24.9106 40.5622L21.2335 40.4734L16.57 40.0036L14.7708 39.7068C13.5743 39.4954 11.8237 39.0742 10.7659 38.4185C9.82718 37.8366 9.3597 36.8101 9.39874 35.7305C9.41393 35.311 9.61929 34.9147 9.74215 34.5212C10.1643 33.1691 10.6876 31.8381 11.0427 30.4667C11.2808 29.5471 11.4142 28.6055 11.6117 27.6769L13.2191 20.277C13.8042 17.8258 14.4569 16.1192 15.5539 13.8908L16.2262 12.6311C16.4706 12.2179 16.6193 12.243 16.62 11.7347L16.5964 10.8352C16.5758 10.5161 16.5219 10.216 16.5203 9.89449L16.5189 9.06532C16.5191 8.41404 16.2935 7.48873 17.1551 7.31543C17.4619 7.34163 17.7777 7.55674 18.0609 7.67566C21.1618 8.97846 24.8032 9.2599 28.0549 8.34166C28.9059 8.10134 29.7082 7.7202 30.5257 7.39095C31.3015 7.07843 31.4641 7.82248 31.4708 8.42806L31.4576 9.73648C31.4497 9.89093 31.4195 10.0421 31.4108 10.1953L31.3829 11.8842C31.3815 12.0839 31.4479 12.1111 31.555 12.2797L31.998 13.0269C32.5918 14.146 33.3649 15.641 33.7643 16.8509L34.3291 18.5443C34.3555 18.6107 34.3728 18.6804 34.3886 18.75L34.7441 20.052L35.5842 23.9883C35.6327 24.2199 35.6619 24.4626 35.7191 24.6914L36.4253 27.9531C36.5419 28.5007 36.633 29.0552 36.7508 29.6016L36.8441 30.1172C36.9339 30.5106 37.0203 30.9113 37.1249 31.3008L37.2958 31.9102C37.3481 32.1369 37.4294 32.3924 37.5172 32.6085L38.4362 34.875C38.4876 34.9975 38.5009 35.1205 38.5408 35.2435L38.5512 35.2748C38.6014 35.4365 38.5978 35.6138 38.5992 35.7817C38.6108 37.2202 37.967 38.1 36.7044 38.6575C35.1784 39.3311 33.4583 39.7503 31.8104 39.9461ZM30.3119 8.70705C26.4697 10.3324 22.1408 10.5459 18.2389 8.96623C18.0531 8.89099 17.8446 8.76049 17.6509 8.7192C17.6161 9.08116 17.6687 10.5239 17.7137 10.9364C17.7107 11.2276 17.6706 11.5984 17.7507 11.8759C18.5122 12.2776 20.5055 12.2982 21.3965 12.2986L26.7619 12.2985C27.9219 12.2978 28.8328 12.2831 29.9696 11.9599C30.0732 11.9305 30.1966 11.9285 30.2899 11.8738L30.3119 8.70705ZM30.6049 12.9258C29.2237 13.4123 27.8882 13.4794 26.4351 13.4804L24.2936 13.4812C22.5104 13.4813 20.665 13.6129 18.9026 13.3029L17.82 13.0839C17.6581 13.0461 17.4808 12.9719 17.318 12.9574L16.5879 14.3045L18.0415 14.6448L22.4701 15.6404C22.6406 15.6945 22.8526 15.6854 23.0314 15.7091C24.4985 15.9032 25.9371 15.5815 27.3549 15.2426L29.7072 14.6947C30.2634 14.5577 30.8296 14.4124 31.3946 14.3201C31.2197 13.8854 30.9345 13.314 30.6587 12.9272L30.6049 12.9258ZM16.0787 15.3164C15.7446 16.0699 15.4037 16.8121 15.1326 17.5915L14.5465 19.5894C14.2197 20.7483 14.0149 21.9454 13.7584 23.1211L12.3189 29.9546L11.5525 32.6375L10.7244 35.1724C10.3804 36.2398 10.5385 37.1107 11.6988 37.6149C12.6709 38.0372 13.5822 38.3292 14.6269 38.5235L16.223 38.7853L18.9879 39.1219L20.2412 28.7563L21.4112 17.5188C21.4359 17.2134 21.4723 16.9109 21.4706 16.604L16.4651 15.4122C16.3438 15.3816 16.2027 15.3204 16.0787 15.3164ZM31.8602 15.3399L27.05 16.4958C26.8751 16.5334 26.6853 16.5571 26.5172 16.6164C26.5366 17.2457 26.6203 17.8613 26.6869 18.4855L27.2009 23.5811L28.1745 31.9688C28.2016 32.2016 28.2046 32.4451 28.2537 32.6741L28.9743 39.1217C29.7621 39.0815 30.9859 38.9595 31.7676 38.7836L34.1487 38.326C35.4089 38.0268 37.778 37.4447 37.4561 35.7041L37.4279 35.5671C37.3307 35.0899 37.0327 34.66 36.8625 34.2051L35.9371 31.1941L33.7876 20.8572L33.3971 19.2798C33.01 17.9196 32.5097 16.6263 31.9267 15.3399H31.8602ZM25.357 16.7902C24.4472 16.9363 23.5089 16.9363 22.5972 16.8264L22.5607 17.9209L21.6528 26.1276L20.9056 32.6519L20.2905 38.1211C20.2416 38.4881 20.1518 38.8763 20.1531 39.2451C20.5531 39.3111 21.2305 39.34 21.6792 39.3728L22.721 39.3968L27.8771 39.2389L25.4187 16.7928C25.4022 16.791 25.3718 16.7831 25.357 16.7902Z" fill="black"/>
</svg>
