<svg width="48" height="48" viewBox="0 0 48 48" fill="none" xmlns="http://www.w3.org/2000/svg">
<path d="M17.1405 40.3311C16.2018 39.9501 15.6051 39.9315 14.6485 39.7249C13.3791 39.4508 12.218 38.9202 11.1094 38.2532L10.3359 37.7611C8.26317 36.5296 5.4052 36.7827 3.06711 35.7002C2.55165 35.4616 1.80452 35.164 2.1069 34.4333L8.79051 20.2045C10.0806 17.3234 11.0221 15.3039 13.7692 13.3972C13.9748 13.2545 13.9949 13.3332 13.9942 13.0661L14.0009 11.0691C14.0074 10.9041 14.0393 10.7441 14.0515 10.5803L14.1433 9.24761C14.247 8.15195 14.1633 7.3772 15.3633 7.12609C16.0336 6.9858 16.1731 6.94684 16.8246 7.02597L18.0779 7.19561C18.5645 7.27754 19.0608 7.30881 19.5515 7.35404L20.7188 7.4447C20.8732 7.45778 21.0186 7.49654 21.1758 7.50376L26.2603 7.51647C26.5596 7.51581 26.8684 7.52865 27.1664 7.50283L30.6584 7.1109C30.9566 7.05315 31.2657 6.97051 31.5674 6.94755C32.6579 6.81072 33.5857 7.16711 33.7521 8.35581L33.9584 10.3795L33.9862 12.1718C33.9902 12.6572 33.8299 13.0873 34.1649 13.3562L35.3715 14.3414C36.6878 15.5311 37.8646 17.0355 38.6429 18.627L43.2318 28.9826L45.9383 34.4183C46.4893 35.6044 42.8575 36.4537 42.1983 36.5988L40.7431 36.9094C39.3385 37.1808 38.628 37.3649 37.3424 38.0746C36.1024 38.759 35.2126 39.3157 33.7969 39.6281C32.8707 39.8325 31.862 39.883 30.9784 40.2483C30.7474 40.3438 30.5336 40.4685 30.3063 40.5681C29.3389 40.9923 27.5105 41.2151 26.426 41.0399C25.8233 40.9425 25.2634 40.7046 24.6646 40.6118C23.837 40.4834 23.1175 40.747 22.3232 40.924C20.4876 41.3328 18.8183 41.0846 17.1405 40.3311ZM32.0072 8.37761L27.5407 8.95454C27.3363 8.98703 27.1222 8.9747 26.9155 8.98365L24.9532 9.02369C23.5373 9.02748 22.1064 9.06536 20.6937 8.96706L16.2272 8.43226C15.5932 8.3582 15.6581 8.60744 15.623 9.11861L15.5602 9.65795C15.5229 10.202 15.4576 10.7411 15.4525 11.2853C15.4477 11.8031 15.4774 12.3455 15.4365 12.8599L16.0515 12.9687C16.428 13.0535 16.811 13.0999 17.1915 13.1608L19.6912 13.4456C19.953 13.4671 20.2042 13.519 20.4696 13.5299L27.3861 13.5185C27.5767 13.51 27.7514 13.4691 27.9375 13.4518L30.7222 13.1448C31.3248 13.0628 31.9405 12.9953 32.5363 12.8755L32.5283 10.9257C32.52 10.7419 32.4869 10.5628 32.4699 10.38L32.3677 9.223C32.3414 8.95033 32.4324 8.338 32.0072 8.37761ZM32.9113 14.307L31.2206 14.5836C31.2075 14.6685 31.2291 14.7503 31.2567 14.8298L31.3972 15.3737C31.4479 15.6637 31.6915 16.4409 31.8192 16.7566L32.4862 18.8089L35.1112 26.1214C35.2423 26.4536 35.3636 26.7903 35.4854 27.1256L38.4693 35.65C38.4879 35.7196 38.5228 35.7872 38.5519 35.853L41.9005 35.1168C42.727 34.9498 43.4968 34.7536 44.2541 34.3671C44.2253 34.2318 44.1216 34.0778 44.0589 33.9516L42.0645 29.8952L37.3495 19.3232C36.3398 17.3486 34.8018 15.5482 32.9538 14.3028L32.9113 14.307ZM15.0537 14.3324C11.7669 16.5378 11.3622 18.225 9.76622 21.5632L3.89818 34.0373C3.84814 34.1407 3.77847 34.2554 3.75121 34.3666C4.24288 34.5546 4.72551 34.7278 5.23354 34.8672L6.05254 35.0527L9.51272 35.7563C9.56934 35.6872 9.59493 35.562 9.62423 35.4772L12.329 27.612L16.0428 17.3065C16.3298 16.4195 16.5254 15.5022 16.6949 14.5866C16.4715 14.5357 15.2566 14.2857 15.0537 14.3324ZM18.1189 14.8011L18.0399 15.355C17.6991 17.1572 17.0379 18.8237 16.4261 20.5433L11.1742 35.3633C11.0636 35.6822 10.9697 36.0051 10.838 36.317C11.5008 36.7522 12.1409 37.2085 12.8534 37.5631C14.1372 38.2021 15.5233 38.2856 16.8805 38.671C18.2437 39.0818 18.5067 39.5023 20.1603 39.5861L20.256 36.5153L20.373 34.9266C20.5259 33.1451 20.7248 31.3494 21.0423 29.5888L22.3736 23.3607L22.8705 20.4261C22.9921 19.6106 23.0316 18.7639 23.0923 17.9417L23.2392 15.0345C22.1166 14.9911 21.0027 15.0399 19.8798 14.9503L18.7911 14.8729C18.6031 14.8561 18.2945 14.7611 18.1189 14.8011ZM29.6801 14.8011L25.6925 15.0242C25.3561 15.0266 24.9947 15.0614 24.6617 15.0284C24.6618 15.3442 24.703 15.6517 24.7197 15.9662L24.9413 18.6227L25.3477 21.2821C25.4306 21.7717 25.5042 22.2682 25.6055 22.7543L25.9795 24.6229C26.5455 27.3181 27.0644 30.0038 27.3829 32.7425L27.6688 36.0824C27.6876 36.364 27.735 36.637 27.7384 36.9208L27.7439 38.7329C27.7442 39.01 27.7174 39.3207 27.7561 39.5927C29.0425 39.5641 29.9957 39.033 31.171 38.6365C32.5091 38.3354 33.8911 38.1716 35.1494 37.5938C35.8537 37.2703 36.4853 36.8156 37.1819 36.4834L29.6801 14.8011ZM24.0049 22.348C23.9933 22.5452 23.9343 22.7237 23.9033 22.918L22.6055 29.1024L22.0335 32.8597L21.7159 36.7528C21.7064 36.9305 21.673 37.105 21.6656 37.283L21.6525 38.6511C21.6432 38.9487 21.5948 39.2535 21.6083 39.551C22.3687 39.4074 23.1377 39.1044 23.9142 39.0922C24.3423 39.0975 24.7475 39.1173 25.1652 39.223C25.3089 39.2594 26.247 39.559 26.3153 39.4938L26.2538 36.3043L26.1847 35.463C26.01 32.975 25.6703 30.4953 25.1992 28.0462L24.1787 22.9979C24.1345 22.7808 24.0742 22.5722 24.0396 22.3524L24.0049 22.348Z" fill="black"/>
</svg>
