<svg width="48" height="48" viewBox="0 0 48 48" fill="none" xmlns="http://www.w3.org/2000/svg">
<path d="M30.5992 42.3098C30.1257 42.3137 29.658 42.2194 29.2181 42.0434L29.1799 42.0279C27.0946 41.1958 26.9038 39.0618 25.2905 38.2282C24.0528 37.5886 22.6253 37.9502 21.7562 39.0249C20.7936 40.2151 20.2978 41.5751 18.633 42.0936C16.8549 42.6473 15.3656 41.9799 14.3634 40.4312C13.3292 38.8334 11.6355 38.0108 9.79302 38.8853C9.3335 39.1034 8.93394 39.4075 8.44794 39.5736L8.36141 39.6034C6.1617 40.3354 3.77725 38.2826 4.39227 35.9733C4.46573 35.6975 4.57394 35.4322 4.66999 35.1637L9.42866 20.86L12.4814 10.6814C12.7521 9.80041 12.7675 10.0323 12.7683 9.02177L12.7686 7.10064C12.7697 6.32172 12.8673 5.77572 13.7787 5.55977C13.9773 5.54134 14.1671 5.569 14.3637 5.58874L18.1941 5.99481C18.8025 6.04384 19.4049 6.09953 20.0141 6.13741L22.6908 6.26144L27.0751 6.21264L33.5862 5.6028C33.7797 5.58306 34.0235 5.52949 34.2133 5.56689L34.2424 5.57327C34.6557 5.65928 35.0261 5.94536 35.1716 6.34984L35.1837 6.3872C35.274 6.61563 35.2265 6.98702 35.2265 7.23353L35.2287 9.77074C35.2341 9.94994 35.297 10.1073 35.3593 10.2752L36.5457 14.248C36.5779 14.3832 36.62 14.543 36.6709 14.6734L39.5786 24.0426L43.6029 36.0371C43.6243 36.1008 43.6399 36.1613 43.6512 36.2277L43.6582 36.27C43.9037 37.6926 42.9852 39.1079 41.6271 39.5594L41.5866 39.5726C39.7916 40.1811 39.2362 39.2206 37.8976 38.7521C36.3498 38.2103 34.7433 38.8168 33.8144 40.1522C32.9485 41.3969 32.3656 42.28 30.5992 42.3098ZM14.1312 6.97469L14.122 9.35791L33.8646 9.32903L33.8652 9.13675L33.8416 6.98449C33.6225 7.03145 33.3884 7.01758 33.1649 7.04163L27.8235 7.57202L23.6707 7.65081L20.0034 7.56555L16.396 7.21122C15.6443 7.12338 14.8773 7.10177 14.1312 6.97469ZM13.8863 10.7204L12.9938 13.8364L9.94513 23.7311L6.31381 34.656C6.05202 35.403 5.54895 36.2479 5.70725 37.0611L5.7117 37.0876C5.86578 37.9349 6.95417 38.4896 7.78728 38.331L8.05602 38.2506C8.26836 38.1825 8.47002 38.0501 8.62456 37.8901C12.3782 32.9953 13.8298 28.0033 15.0786 21.9862L16.2741 15.0741C16.452 14.1174 16.6382 13.1652 16.8966 12.2263L17.3168 10.8904C16.8706 10.8474 16.4203 10.8526 15.9729 10.8333L15.1132 10.7702C14.7187 10.7587 14.2735 10.7937 13.8863 10.7204ZM33.3664 10.7147L30.6706 10.8789L31.1607 12.4712L33.6645 25.3466L33.9489 26.4021L35.205 30.3286L35.6464 31.4653C35.8607 32.0189 36.1248 32.5789 36.3925 33.1087L37.2481 34.7421C37.6297 35.4107 39.0991 37.8681 39.7654 38.1753L39.8651 38.2195C40.6729 38.5014 41.6188 38.2535 42.0871 37.5122C42.561 36.762 42.1966 36.0977 41.9371 35.3636L37.9787 23.4837L34.135 10.8522C34.1191 10.7999 34.1069 10.7465 34.0653 10.7106L33.3664 10.7147ZM28.7172 11.0004L24.7814 11.1243C24.7319 11.2346 24.7505 11.4237 24.7493 11.546L24.6233 14.0086C24.6072 14.2585 24.5599 14.5038 24.5513 14.7561L24.5496 21.727C24.5586 21.9512 24.6089 22.1711 24.6201 22.395L24.6496 23.5269C24.6586 23.6916 24.6853 23.8493 24.7038 24.0122L24.8007 25.0834C24.8498 25.5558 24.8755 26.0354 24.9469 26.5055L25.5147 29.8647C25.6274 30.3295 25.9292 31.2109 25.1771 31.4017C24.4614 31.5832 24.2679 30.5927 24.1724 30.139C24.0786 29.6938 23.9748 29.2418 23.9125 28.7913L23.555 26.4263L23.164 21.4692L23.1575 15.9885C23.1606 15.209 23.2156 14.3888 23.2627 13.6066L23.3778 11.7745C23.3904 11.5837 23.4644 11.3073 23.4212 11.1268L18.7106 10.9989C18.638 11.0981 18.6161 11.2165 18.5826 11.3325L17.9075 13.8403L16.9379 19.5474L15.9777 24.2583C15.1776 27.4967 14.3057 30.7789 12.797 33.772L10.9545 37.0399C10.928 37.0954 10.8875 37.1442 10.8513 37.1937C15.5748 37.191 14.8438 40.2561 16.8401 40.8051C18.1316 41.1604 19.1524 40.3878 19.8472 39.3685C20.0865 39.0175 20.2831 38.6412 20.5432 38.3038C22.4665 35.8092 25.8356 36.0259 27.6028 38.5033L28.1238 39.3038C28.5319 39.8988 29.0046 40.4122 29.6628 40.7286C30.6087 41.1834 31.6903 40.7957 32.2932 39.9848C32.4925 39.7169 32.6435 39.4205 32.8366 39.149C33.935 37.6043 35.3771 37.1529 37.1592 37.1812L37.124 37.1535C37.0935 37.1277 36.6894 36.4812 36.6508 36.4192C34.4145 32.8198 33.0826 28.7809 32.1021 24.6757L30.874 18.5864L30.4525 15.8131C30.3916 15.456 29.4818 11.1079 29.3048 10.9799C29.2479 10.9388 28.8256 10.9845 28.7172 11.0004Z" fill="black"/>
<path d="M25.9681 32.4899L25.8129 32.4414C25.6174 32.3571 25.202 31.7826 25.3005 31.5397C25.4603 31.4265 25.6796 31.3794 25.8694 31.342C26.6571 31.2245 26.81 32.2904 25.9681 32.4899Z" fill="black"/>
</svg>
