<svg width="48" height="48" viewBox="0 0 48 48" fill="none" xmlns="http://www.w3.org/2000/svg">
<path d="M32.1545 43.5268C30.7928 44.5279 29.4699 44.5581 27.8879 44.558L24.8413 44.5374C24.6065 44.5269 24.3823 44.4757 24.1494 44.4543L22.6451 44.385C22.1346 44.3805 21.6395 44.4036 21.1313 44.45L20.5109 44.524C18.8844 44.6449 17.2745 44.5388 15.8895 43.5665C15.7168 43.4454 15.5712 43.2862 15.4054 43.1554C14.2278 42.2265 12.7413 42.3337 11.3452 42.1614C10.5995 42.0693 8.64971 41.3525 8.52915 40.433L8.52465 40.3941C8.48551 40.0967 8.56702 39.91 8.70962 39.6588L8.64244 39.5649C7.8413 38.3965 6.60151 38.3942 5.39705 38.0606C4.32824 37.7647 3.40655 37.1714 2.57832 36.4472C1.97851 35.9227 1.8199 35.6916 2.1916 34.9005L9.64407 16.2669L11.4232 12.3706C11.9846 11.1934 12.5498 10.0342 13.2572 8.93579L13.2133 4.62422C13.2155 3.48595 13.4986 3.43548 14.6023 3.42308L33.3991 3.42046C33.9386 3.42108 34.3322 3.3677 34.6916 3.84334L34.7169 3.87393C34.8773 4.10409 34.7912 4.62668 34.7916 4.89282L34.7929 7.93604C34.7926 8.92627 34.6179 8.68543 35.0939 9.50232C35.7546 10.6362 36.2944 11.838 36.8871 13.0074L41.3503 23.4141L43.7467 29.5399C43.9433 30.0824 44.139 30.6252 44.3573 31.1595L45.9622 35.2798C46.1933 35.8432 45.6075 36.269 45.2506 36.5836C44.3744 37.3561 43.4518 37.8679 42.3073 38.1262C40.5184 38.5299 40.7334 38.4624 39.3255 39.6292L39.4072 39.8352C39.9585 41.2204 37.492 42.059 36.5235 42.1709L35.0979 42.2847C33.6159 42.4677 33.3172 42.6816 32.1545 43.5268ZM15.7403 4.92554L14.6523 4.93623C14.6032 5.51532 14.5853 7.15126 14.6535 7.72871L18.1174 8.24804C18.3759 8.28568 18.6554 8.32309 18.9153 8.34671L19.4299 8.3806C20.4368 8.46981 21.4453 8.63115 22.4577 8.63762L25.8445 8.63007C26.0092 8.6214 26.1689 8.59121 26.3322 8.57659L29.0966 8.33335L31.6824 7.96895L33.3511 7.69515L33.3504 4.93023L15.7403 4.92554ZM33.1919 9.19881L30.8098 9.5972C30.8319 9.69549 30.8482 9.79374 30.8842 9.8881L31.2293 11.0196C31.2372 11.0548 31.2473 11.0849 31.259 11.1186L31.5972 12.2915C31.6057 12.333 31.6179 12.3664 31.6328 12.4056L33.2915 18.1862C33.2992 18.219 33.3097 18.2476 33.321 18.2791L33.666 19.487C33.6733 19.5201 33.6839 19.5476 33.6953 19.5791L35.0093 24.1385C35.1506 24.5427 35.2266 24.9829 35.3825 25.3805L35.6297 26.2152C35.6385 26.2555 35.6503 26.2888 35.6642 26.3272L37.6973 33.6134C37.705 33.6517 37.7159 33.6858 37.7278 33.7229L38.4486 36.4376C38.4847 36.6017 38.8291 38.0201 38.8661 38.0645C39.3651 37.6152 40.1711 37.036 40.8573 36.9205C42.3174 36.4836 43.0701 36.5683 44.3735 35.3498L44.3518 35.307C44.2806 35.162 44.2371 34.9944 44.1827 34.8417L39.2928 22.204L35.3032 13.1319L33.8051 10.2115C33.6153 9.88037 33.446 9.51774 33.2382 9.19988L33.1919 9.19881ZM14.7256 9.20795C14.435 9.83734 14.0498 10.4216 13.7274 11.0358L11.9688 14.6461L5.53196 30.2691L4.19116 33.8199C4.00621 34.3233 3.76451 34.8198 3.61762 35.3358C4.84772 36.5647 5.7294 36.5166 7.17882 36.9309L7.21055 36.9369C7.92066 37.0765 8.60569 37.5139 9.15624 37.9661L17.2029 9.58782L15.7201 9.37529C15.3931 9.33071 15.0448 9.28923 14.7256 9.20795ZM18.6637 9.80818L10.108 40.0481C11.4149 41.2338 14.1565 40.2989 16.09 41.8047C16.2961 41.9652 16.482 42.151 16.6903 42.3066C17.9604 43.2556 19.2145 43.0532 20.676 42.9603L24.5195 42.9829C24.7149 42.9972 24.9039 43.0313 25.1018 43.0402L27.7765 43.0614C29.3152 43.0617 30.3649 43.0383 31.6248 42.0579C34.1512 40.092 36.071 41.3755 37.9459 40.0208L35.0468 29.3928L29.3508 9.81709L27.5534 9.96334C27.5697 10.1776 27.6172 10.3865 27.6415 10.6006L27.892 12.8082L28.2335 17.5714C28.2437 17.7807 28.2947 17.9824 28.3029 18.1933L28.3169 20.621C28.3254 21.0778 28.3711 21.6347 27.7971 21.7534L27.765 21.7604C27.4353 21.8274 27.1688 21.671 26.9848 21.4096L26.9684 21.388C26.8759 21.263 26.8758 21.0833 26.871 20.9348L26.8321 18.9947C26.8282 18.1107 26.7753 17.3409 26.7285 16.4719L26.1404 10.5699C26.1208 10.428 26.1162 10.2637 26.0655 10.1305L21.9295 10.1343C21.8573 10.2264 21.8702 10.3388 21.8602 10.4522L21.4314 14.9308C21.4209 15.0541 21.3836 15.1715 21.3729 15.2936L21.2465 17.2778C21.2275 17.5427 21.1833 17.8046 21.1752 18.0702L21.1655 20.8374C21.1643 21.2961 20.9954 21.6999 20.4729 21.7802L20.4449 21.7848C20.1363 21.8289 19.8988 21.6069 19.7574 21.3629L19.742 21.3376C19.6761 21.2253 19.6891 21.0856 19.6889 20.9599L19.6986 18.5213C19.7063 18.329 19.7509 18.142 19.7631 17.9507L19.999 14.0738L20.4575 9.95926L19.5437 9.89424C19.2583 9.86579 18.9492 9.80349 18.6637 9.80818Z" fill="black"/>
</svg>
