<svg width="48" height="48" viewBox="0 0 48 48" fill="none" xmlns="http://www.w3.org/2000/svg">
<path d="M16.4006 40.9825L15.4835 40.7675C15.1943 40.7026 14.8983 40.6565 14.6255 40.5347C13.4344 40.0027 12.9142 38.5442 13.4209 37.3638L12.9431 37.4159C11.5641 37.555 10.0779 37.3943 8.84168 36.7251C7.88018 36.2046 6.54339 35.1178 6.44772 33.9782C6.42325 33.6866 6.59027 33.4495 6.71308 33.1968L6.94446 32.666C7.34758 31.7089 7.5325 30.7072 7.88571 29.7383C8.09791 29.1562 8.39018 28.6046 8.58175 28.017C8.88363 27.091 9.08411 26.1175 9.32688 25.1734L12.676 13.0548C12.7801 12.6427 12.8544 12.3916 12.8556 11.9649L12.8554 7.63103C12.8561 7.49706 12.8441 7.34247 12.8735 7.21263C13.1316 6.07338 14.021 5.91935 14.9736 6.0813L20.6251 6.70038C20.8803 6.72203 21.1283 6.77716 21.3843 6.7915L24.3881 6.82024C25.1527 6.82056 25.9346 6.83744 26.6968 6.7787L32.854 6.09761C33.098 6.06199 33.3302 6.00578 33.5778 5.98783C34.1503 5.82906 34.946 6.56224 35.1057 7.12727C35.1734 7.3668 35.1556 7.61697 35.1558 7.86339L35.156 12.2076C35.154 12.5643 35.2337 12.9709 35.3585 13.305L35.7064 14.5129C35.749 14.732 35.8273 14.9616 35.8875 15.1778L36.9377 18.9258C37.0593 19.3715 37.1824 19.8184 37.3128 20.2618L37.8647 22.2404C37.8713 22.2781 37.8776 22.3072 37.8908 22.3437L38.0503 22.9147C38.0575 22.951 38.0642 22.9835 38.0763 23.0187L38.7021 25.3574C38.7107 25.4029 38.7185 25.4418 38.7333 25.4859L39.2972 27.5245L40.0321 29.6251C40.0589 29.7004 40.0876 29.7692 40.1064 29.8477L40.2014 30.1876C40.2793 30.6185 40.4674 31.0343 40.5923 31.4532L41.3402 33.1641C41.401 33.2881 41.4756 33.4023 41.5213 33.5333L41.561 33.6446C41.7169 34.064 41.2827 34.7041 41.0618 35.0274C39.6366 37.1132 36.9689 37.8821 34.5623 37.3176C34.7518 37.78 34.8293 38.2318 34.7672 38.7326C34.5659 40.3552 33.1982 40.6176 31.9638 41.0088L30.1233 41.5793C27.8869 42.2562 25.6381 42.4567 24.0554 40.3803C23.2069 41.546 21.8258 42.2035 20.3907 41.9641C19.8665 41.8767 19.3365 41.6916 18.8178 41.5665L16.4006 40.9825ZM14.3926 7.32428C14.0933 7.43472 14.1559 7.60802 14.1568 7.8918L14.1651 8.66725C14.169 8.79372 14.161 8.91245 14.1897 9.03681C14.4805 9.1435 14.8363 9.1668 15.1441 9.2132L18.3832 9.65702L19.058 9.6887C19.3876 9.71983 19.7162 9.77683 20.0471 9.79356L26.7657 9.80294C27.1258 9.78935 27.4864 9.7157 27.8456 9.69124L33.7618 9.08659L33.8391 9.06916C33.8658 8.82789 33.9069 7.64322 33.8252 7.47766C33.6203 7.28805 33.5469 7.32649 33.2931 7.37411L27.8045 8.03491C27.3491 8.07461 26.8227 8.1416 26.3752 8.14816L23.0152 8.19855L19.0025 7.93192L15.1263 7.46777C14.9048 7.43195 14.6095 7.3097 14.3926 7.32428ZM33.8161 10.2071C32.4491 10.5375 31.0568 10.7322 29.6692 10.8882L27.6635 11.0702C27.4553 11.0848 27.2546 11.1291 27.0449 11.1408L25.4232 11.1659C25.212 11.1714 25.0059 11.2128 24.7943 11.2189L21.4923 11.217C21.299 11.2117 21.1091 11.1765 20.9159 11.1687L16.8416 10.8324L14.1584 10.3848L14.1571 11.5916C14.1578 11.7138 14.1053 11.8903 14.1971 11.9854L14.2022 11.9883L16.9053 12.4591L20.9076 12.8074L27.7618 12.7758C28.0796 12.7644 28.3993 12.7717 28.7163 12.7458L33.8631 12.1594C33.8624 11.8917 33.8974 10.3289 33.8361 10.209L33.8161 10.2071ZM13.9751 13.3049L10.7931 24.755L9.90602 28.1602C9.70783 28.8452 9.33677 29.4474 9.11393 30.1173L8.60233 31.8751L7.89288 33.7702C7.82425 33.9437 7.8108 33.9493 7.89808 34.12C8.35033 35.0039 9.32777 35.6038 10.2538 35.8856L10.5873 35.9716C11.8628 36.2365 13.2044 36.1295 14.4285 35.6824L16.5196 13.7673L14.8009 13.4778C14.5339 13.4278 14.2317 13.3917 13.9751 13.3049ZM33.9491 13.4883L31.1875 13.9103C31.2688 14.3081 31.3425 14.7027 31.4181 15.1019L32.3917 21.3868L33.062 27.5459L33.5296 33.7133L33.5658 34.8442C33.5729 35.7472 33.5633 35.7306 34.4298 35.9288C35.4004 36.1508 36.378 36.2232 37.3646 36.0236C38.5053 35.8014 39.7294 34.9343 40.22 33.8583C39.8404 32.9893 39.3991 32.149 39.125 31.2371L38.8009 30.0323C38.6212 29.4598 38.3614 28.9187 38.1847 28.3453L34.5306 15.1803C34.4591 14.9178 34.1547 13.4424 33.9491 13.4883ZM17.8693 13.9289L17.7203 14.9649L16.9705 21.9376L16.2069 29.61L15.7529 35.0405C15.6843 36.1237 15.6276 36.1225 15.1143 36.9501C14.6671 37.6714 14.0237 38.9462 15.2551 39.3441L20.1976 40.5614C21.5805 40.9406 23.2412 40.1293 23.3493 38.6531C23.3864 38.1457 23.3478 37.6107 23.3478 37.1L23.3471 15.0707C23.3467 14.7994 23.3767 14.487 23.3356 14.22L21.3165 14.2159L19.2474 14.0769C18.7931 14.0384 18.3156 14.0237 17.8693 13.9289ZM29.7068 14.0531L24.6577 14.2237L24.6546 38.1346C24.6542 38.3409 24.621 38.597 24.6841 38.7924C25.2069 40.4109 26.736 40.8981 28.295 40.6984C28.7801 40.6302 29.2414 40.457 29.7074 40.3135L31.5379 39.7478C32.2966 39.5051 33.6296 39.3524 33.4642 38.2309C33.3686 37.5825 32.9093 37.061 32.6008 36.5078C32.1397 35.6808 32.2961 35.2586 32.2515 34.3594L32.05 30.6786C32.0413 30.5544 32.0109 30.4374 32.003 30.3145L31.6958 26.2518L30.648 17.9063L29.9624 14.0508C29.8853 14.0275 29.7872 14.0464 29.7068 14.0531Z" fill="black"/>
</svg>
