<svg width="48" height="48" viewBox="0 0 48 48" fill="none" xmlns="http://www.w3.org/2000/svg">
<path d="M34.046 45.3335C33.4065 45.4806 32.7471 45.5685 32.0976 45.6563L28.9356 46.0007L25.489 46.1798L22.5805 46.1847C22.3675 46.1771 22.1579 46.1397 21.9452 46.1335L18.4332 45.9474L15.904 45.6964L11.3549 44.7691C10.4467 44.4985 10.6433 43.8741 10.4906 42.9893L10.0327 40.5816C9.76536 39.0731 9.55081 37.2571 9.482 35.7183L9.4738 33.5976C9.47347 33.006 9.44769 32.4008 9.48514 31.8112L9.61255 30.3042L10.5901 24.0113C11.071 21.5198 11.5743 18.85 13.0387 16.7175L13.6813 15.8465C15.0203 13.9549 15.3103 12.6836 15.3046 10.4862C15.2433 10.4481 15.1786 10.425 15.108 10.4109L14.9368 10.3694C14.3081 10.1713 12.6182 9.54431 12.3079 8.89406C12.1033 8.46525 12.5249 7.14919 12.628 6.69094L13.4614 2.65776C13.5743 2.19348 13.5523 1.83797 14.0438 1.61861C14.198 1.61 14.2967 1.64181 14.4435 1.67531L17.8945 2.15103L21.5121 2.40565L26.3467 2.40718L30.4057 2.0903L33.4698 1.67173C33.7929 1.61482 34.1074 1.53314 34.3077 1.88286L34.3231 1.91102C34.35 1.95946 34.3745 2.00493 34.3933 2.05737L34.4067 2.09719C34.458 2.2275 34.4712 2.34862 34.5001 2.48391L34.7818 3.93703C34.864 4.35028 34.988 4.76185 35.0514 5.17706L35.3331 6.49711C35.3457 6.59292 35.3821 6.67824 35.4005 6.77255L35.6192 7.83806C35.6803 8.10708 35.8716 8.5576 35.7437 8.81719C35.3286 9.65991 33.5265 10.1838 32.7182 10.4565L32.7093 11.512C32.715 11.9805 32.7708 12.545 32.9209 12.9953L33.1106 13.6417C33.5295 14.8532 34.3065 15.7548 35.0012 16.7829C35.7013 17.819 35.9775 18.6802 36.3889 19.806L36.5795 20.4419C36.647 20.6086 36.7073 20.8443 36.7395 21.0213L37.2266 23.0977C37.3112 23.3648 37.3488 23.6696 37.4025 23.9448L38.2964 29.2818L38.4448 30.9524C38.6038 32.693 38.6006 34.5177 38.4477 36.2573L37.7352 41.7183L37.5043 42.957C37.272 44.377 37.6005 44.5427 36.0686 44.9025L34.046 45.3335ZM14.5383 2.85439C14.437 3.51053 14.3205 4.15455 14.1355 4.79419C15.3432 5.04849 16.5732 5.23458 17.8024 5.34774L20.567 5.54049L27.5207 5.53753C27.7517 5.52966 27.9724 5.48897 28.2005 5.47411L32.5314 5.0475C32.8478 4.99505 33.1733 4.90978 33.4917 4.88081L33.8731 4.7798C33.7732 4.55088 33.7271 4.29777 33.6757 4.05422L33.4479 2.8575L28.12 3.45104L26.0179 3.5381L22.0786 3.54222L19.8849 3.44894L14.5383 2.85439ZM13.9633 5.90264L13.3893 8.41303C14.4504 9.1988 17.3182 9.87052 18.7265 10.1242C20.9285 10.5207 23.1762 10.6455 25.4112 10.5228L26.1431 10.5111C26.6163 10.4894 27.1191 10.4349 27.5881 10.3649L29.3789 10.0988L31.7421 9.52688C32.2919 9.38016 32.8377 9.24024 33.369 9.03305C33.8015 8.85699 34.2088 8.68247 34.6069 8.43291L34.0609 5.9018C32.8095 6.30014 31.2149 6.38372 29.9155 6.50002C29.5084 6.53644 29.0624 6.52275 28.6655 6.61078C28.2952 6.69291 27.8633 6.63441 27.4829 6.65395L26.6676 6.71827L21.4114 6.70421L19.7492 6.63408C19.5429 6.62344 19.3463 6.57877 19.1401 6.56667L15.5289 6.22313C15.005 6.1426 14.4702 6.06263 13.9633 5.90264ZM31.5327 10.8159L28.4765 11.4125C27.7141 11.5252 26.951 11.5744 26.1837 11.6282L24.0559 11.7003C22.5189 11.7005 20.9991 11.6145 19.475 11.4053C18.4475 11.2642 17.4553 10.9785 16.4346 10.8165C16.5148 12.5113 16.0199 14.2291 15.1312 15.6697L13.9598 17.3792C12.4148 19.7384 11.9673 22.7039 11.4759 25.4273L10.974 28.3915L10.6382 31.5655C10.5612 32.5062 10.5628 33.4271 10.5642 34.3724L10.5847 35.4722C10.6005 35.9339 10.6407 36.4991 10.6872 36.9605L10.8386 38.2941C10.8832 38.7251 10.9056 39.1966 11.0054 39.6173L11.0345 39.7462C11.434 39.89 11.8584 39.9774 12.2695 40.0823L15.7124 40.8112C15.8656 40.8338 16.0109 40.8725 16.1662 40.8871L19.0863 41.2489L21.1189 41.3726L25.6856 41.3757C25.8594 41.3678 26.0302 41.3354 26.2031 41.3183L27.8372 41.2482C28.0072 41.2367 28.1743 41.1948 28.344 41.1788L29.77 41.0489L33.2578 40.4817L35.5595 39.9526C36.0122 39.8505 36.4877 39.7651 36.9279 39.6191L37.355 35.6055C37.3692 35.4128 37.4086 35.2273 37.4162 35.0314L37.429 33.1644C37.4288 32.6287 37.4435 32.0871 37.4091 31.5523L37.2428 30.0347C37.0089 27.7751 36.6103 25.5342 36.1255 23.3152C35.6362 21.0755 35.1763 19.0485 33.8661 17.1323L33.2621 16.3003C31.9497 14.4343 31.6125 12.9862 31.5747 10.8092C31.5419 10.8095 31.5556 10.8057 31.5327 10.8159ZM36.6689 40.8628C34.741 41.4225 32.1418 41.9033 30.1696 42.1517L27.4465 42.3826C27.1796 42.4001 26.9137 42.4467 26.6467 42.4568L22.5 42.5168L20.4137 42.4527L17.6753 42.2482C15.4931 41.9917 13.3629 41.5428 11.2439 40.9711C11.2558 41.0681 11.2643 41.1644 11.2922 41.2583L11.3487 41.5506C11.3693 41.7025 11.4096 41.8595 11.4377 42.0113L11.6588 43.2132L11.7163 43.6792C13.4301 44.3185 16.4573 44.6583 18.2461 44.8101L19.5279 44.9069C20.0876 44.9411 20.5842 45.0137 21.1384 45.0173L26.7233 45.0061C26.8711 45.0001 27.0096 44.9662 27.155 44.9546L28.0898 44.9051C28.2169 44.8965 28.3413 44.869 28.4682 44.8587L31.2539 44.6209C32.3352 44.5013 33.3984 44.2913 34.4648 44.0857L35.8174 43.7992C35.9518 43.7644 36.1228 43.7379 36.2445 43.6715L36.7418 40.8544L36.6689 40.8628Z" fill="black"/>
</svg>
