<svg width="48" height="48" viewBox="0 0 48 48" fill="none" xmlns="http://www.w3.org/2000/svg">
<path d="M34.1368 40.0173L33.6849 40.2407C32.344 40.8945 30.799 41.3505 29.3318 41.574L28.5397 41.6718C27.8435 41.7598 27.1748 41.7631 26.4718 41.764L24.0335 41.7661C20.3105 41.7674 17.3443 41.863 13.9355 40.0376L11.4503 38.5785C10.8854 38.2215 10.3449 37.8267 9.76152 37.4989C8.68527 36.8942 7.50008 36.5054 6.3748 36.0055C4.84002 35.3238 2.28859 33.4945 1.53028 31.8927L1.43693 31.6846C1.21387 31.0187 1.47048 30.6955 1.79757 30.1694L3.36721 27.4007L5.78258 22.5725L8.47475 16.4883L10.24 11.8387C10.5499 11.0088 10.5181 11.1542 10.5184 10.2219L10.5188 8.22812C10.5191 8.00144 10.4829 7.69497 10.5378 7.47705C10.7201 6.7533 11.4068 6.2658 12.1325 6.22211L35.4446 6.21925C35.7024 6.21906 36.0019 6.18597 36.2492 6.26191C37.4511 6.63091 37.4682 7.42652 37.4688 8.41305L37.4698 10.4958C37.4706 11.4441 37.5933 11.244 37.8513 12.0708L38.9066 14.9653L40.982 19.9357L46.5066 30.7015C46.7944 31.3072 46.4439 31.9464 46.0958 32.4312C44.5864 34.5332 42.8946 35.4685 40.601 36.3846C39.1716 36.9555 38.135 37.5827 36.8555 38.3949L34.1368 40.0173ZM19.8676 7.70903L13.2069 7.70945C12.896 7.70955 12.5796 7.69802 12.2695 7.71606C11.8738 7.73913 11.9729 7.97195 11.9727 8.29094L11.9734 10.2626C11.9737 10.4719 11.9607 10.6911 11.9826 10.899L28.227 10.899L36.0194 10.8988L36.0187 8.74961C36.0184 8.44206 36.1676 7.72436 35.8358 7.71189L19.8676 7.70903ZM11.5914 12.3785L10.1191 16.3391L5.97739 25.5239C5.01838 27.4482 4.03496 29.3963 2.87964 31.2109C3.47411 32.5332 5.40219 33.8618 6.64874 34.4364L6.90477 33.9966L9.34513 30.0885L12.5158 24.0942C13.741 21.5195 16.0533 16.5189 16.0561 13.6471L16.0545 12.3818L11.5914 12.3785ZM19.5009 12.3799L17.5152 12.3912C17.6816 14.592 17.1579 16.4062 16.4378 18.4761L16.1392 19.367C15.3531 21.4842 14.4171 23.5311 13.4241 25.5571L10.8714 30.3853L8.49106 34.2728C8.33305 34.5189 8.12506 34.7799 8.01252 35.0486C8.9391 35.5157 9.79297 35.811 10.7342 36.3511L12.107 37.2271C13.0947 37.8666 14.3106 38.6633 15.4281 39.065C15.5295 38.1022 15.695 37.1402 15.8869 36.1914L17.6682 29.091C17.736 28.834 17.7829 28.5516 17.8843 28.3067C18.1345 27.7028 18.947 27.69 19.2179 28.2661L19.2311 28.2934C19.3021 28.4447 19.3023 28.6381 19.2662 28.8001L17.7282 34.6023L17.1134 37.6465C17.0038 38.296 16.8583 38.9585 16.8503 39.6196C18.4655 40.0905 19.8158 40.2577 21.5138 40.2603L27.4467 40.255C27.8708 40.2516 28.0828 40.1843 28.4503 40.1545C29.328 40.0852 30.316 39.9164 31.1541 39.6245L30.7782 37.0786L29.6098 31.9184L28.9813 29.7005C28.8868 29.3728 28.7402 29.0166 28.6934 28.6812C28.6021 28.0253 29.3787 27.5513 29.8962 28.0194C30.0957 28.1998 30.1424 28.467 30.2238 28.7083L31.0412 31.6755C31.0491 31.708 31.0598 31.737 31.0711 31.7683L31.7213 34.3618C31.8013 34.6117 31.8322 34.8888 31.8953 35.145L32.4797 38.497C32.4989 38.6962 32.5085 38.8915 32.5655 39.0845C33.7091 38.6473 34.8171 37.9529 35.8377 37.2811L37.2185 36.375C38.0893 35.847 39.0583 35.3993 40.004 35.0236C39.6791 34.4222 39.2466 33.8689 38.8721 33.2973L37.4068 30.8911C34.9067 26.6147 30.1037 17.479 30.4362 12.3907L19.5009 12.3799ZM32.821 12.3799L32.1869 12.3841C32.0939 12.3848 31.978 12.372 31.8905 12.3985C31.748 13.6998 32.0534 15.4126 32.4858 16.6177L33.329 19.1255L34.6313 22.2902L37.2406 27.6058L39.2693 31.1325L40.8999 33.6663C41.0687 33.9105 41.2168 34.1773 41.4045 34.4067C42.0112 34.1337 42.609 33.7559 43.1332 33.3461C43.886 32.7811 44.6417 32.0665 45.095 31.2328L43.4373 28.2999L39.6887 20.6537L37.4965 15.3804L36.5461 12.7233C36.5135 12.6126 36.4966 12.4744 36.4306 12.3783L32.821 12.3799Z" fill="black"/>
</svg>
