<svg width="48" height="48" viewBox="0 0 48 48" fill="none" xmlns="http://www.w3.org/2000/svg">
<path d="M14.784 47.9997C14.0727 47.6692 14.0947 46.7824 13.8631 46.059L11.9552 39.7912C11.8996 39.632 11.8124 39.4844 11.7606 39.3254C11.696 39.1267 11.6789 38.9139 11.6093 38.7144L11.1754 37.5934C10.6326 36.1392 10.2218 34.625 9.9673 33.0934L9.8623 32.3448C9.82339 31.9481 9.75847 31.5861 9.75448 31.1848L9.74488 30.1388C9.6777 26.0198 10.874 22.9252 12.8412 19.4294C13.8307 17.6708 14.3753 16.5352 14.3597 14.5263L14.3516 13.9305C14.348 13.799 14.3618 13.6547 14.2905 13.5385C14.054 13.153 13.8845 12.6589 13.7305 12.234L13.3019 10.8483C13.0206 9.86432 12.7685 8.85904 12.5937 7.85015L12.1178 4.32389C12.068 3.57326 11.8745 1.00524 12.0475 0.681109L12.0936 0.609076C12.3494 0.222176 12.832 0.300176 13.1131 0.598178L13.1326 0.618105C13.3094 0.804334 13.2035 2.12457 13.2192 2.44497C13.2286 2.63944 13.2682 2.82998 13.281 3.02311L13.646 6.59747C13.8044 7.64812 13.9926 8.71701 14.2863 9.73931L14.7497 11.4072L15.2769 12.861C15.4289 12.883 15.5987 12.8693 15.7531 12.8694L32.6974 12.8896L33.5045 10.5409C33.9492 9.0269 34.2336 7.46718 34.4437 5.90592L34.7247 3.31977C34.747 3.06713 34.7844 2.82039 34.7874 2.56607L34.7926 1.40912C34.7933 1.2179 34.778 1.01309 34.803 0.824373C34.8858 0.197919 35.9954 -0.0508629 35.9956 1.18482L35.9824 2.95296L35.8576 4.57473L35.3617 7.98014C35.0593 9.53925 34.7263 11.0976 34.1365 12.5788L33.8064 13.3386C33.5778 13.826 33.6503 13.6016 33.6485 14.1996C33.6459 14.9909 33.5897 15.942 33.8824 16.6965L34.1287 17.3962C34.2105 17.6489 34.3553 17.9021 34.4747 18.1403L35.9076 20.859C36.2896 21.5571 36.7076 22.4162 36.9597 23.1794L37.3436 24.2504C37.4791 24.6304 37.6232 25.0625 37.6963 25.4579C37.9229 26.6844 38.1942 27.7061 38.2581 29.0036L38.2695 30.1814C38.2667 32.1928 37.925 34.1346 37.3186 36.0561L36.62 38.0739C36.4883 38.4529 36.3409 38.82 36.274 39.2184C36.2399 39.4216 36.0531 39.5349 36.0007 39.7379L33.8886 46.9708C33.7845 47.3364 33.7724 47.6584 33.4347 47.8928L33.2764 47.9997H14.784ZM15.567 14.1356C15.4577 15.1496 15.6142 15.776 15.3472 16.8556C15.3276 16.9349 15.2367 17.1445 15.2506 17.2104C15.8798 17.3486 16.503 17.3502 17.1428 17.3479L30.7721 17.3452C31.3012 17.3451 31.7812 17.3275 32.3044 17.2644C32.4527 17.2447 32.5893 17.2197 32.7287 17.1615L32.4819 15.989C32.4449 15.8286 32.4541 15.649 32.4534 15.4852L32.4509 14.592C32.4507 14.4431 32.4643 14.2829 32.443 14.1362L15.567 14.1356ZM14.7934 18.3689L12.5473 22.7223C10.7718 26.6204 10.4781 30.9097 11.6411 35.0154L11.8157 35.6135C11.8245 35.6539 11.8365 35.6873 11.8505 35.7258L12.4742 37.5987C12.5729 37.9372 12.7491 38.3121 12.914 38.6276C13.6893 38.805 14.4881 38.909 15.273 39.0348L17.3419 39.3697C17.5087 39.3916 17.6784 39.3882 17.8456 39.4075L19.3472 39.5648L21.6805 39.6537L27.8458 39.6007C28.1871 39.5865 28.535 39.599 28.8748 39.5643L30.7732 39.3662L32.8792 38.9903L33.9063 38.7257C34.322 38.6156 34.7678 38.4464 35.1984 38.4292L35.5774 37.3167C36.2641 35.2853 36.8994 33.2927 37.0334 31.1359L37.0528 29.9158C37.0523 28.094 36.7661 26.3333 36.1876 24.5986L35.7485 23.4581C35.4384 22.6803 35.0907 21.9039 34.6846 21.1708L33.7183 19.389C33.5439 19.0579 33.3908 18.6765 33.1735 18.3729L33.135 18.3847C32.4736 18.5811 31.6654 18.6269 30.98 18.6269L16.3223 18.6251C16.0472 18.6128 15.0766 18.4536 14.7934 18.3689ZM34.6656 39.8083L32.4215 40.3677C30.4791 40.767 28.9594 40.8707 27.0184 40.8721L19.86 40.864C19.6687 40.8562 19.485 40.8111 19.2947 40.7962L17.5994 40.6593L14.5241 40.1886C14.1223 40.1226 13.7191 40.0273 13.3131 39.9944L14.7133 44.6422L14.9168 45.3241C14.9853 45.5803 15.2642 46.6881 15.3949 46.7814L32.6334 46.7907C32.7039 46.6837 32.7331 46.4886 32.7713 46.3614L34.7267 39.8183C34.689 39.7959 34.7093 39.7995 34.6656 39.8083Z" fill="black"/>
</svg>
