<svg width="48" height="48" viewBox="0 0 48 48" fill="none" xmlns="http://www.w3.org/2000/svg">
<path d="M35.7146 44.3487C35.5812 44.337 35.387 44.3953 35.2487 44.4104C34.2863 44.5158 33.4738 44.7927 32.5706 45.1203L30.8583 45.6721C29.6303 46.009 28.3593 46.2026 27.0937 46.324L25.2923 46.4762L22.1743 46.4155C20.5074 46.3047 18.8755 46.1011 17.2499 45.7002C16.1418 45.4269 15.1136 44.9154 14.0099 44.6408C13.2817 44.4596 12.5544 44.3858 11.81 44.312L10.9202 44.2142C9.89198 44.1446 9.1492 44.4945 9.33937 42.9965L10.7643 30.392L10.9017 28.5942L12.2759 18.9965L13.1148 12.2451L13.1678 11.2181C13.262 9.91436 13.3495 8.65075 12.8634 7.39839L12.6562 7.36361C11.9079 7.17892 12.0397 6.35959 12.0389 5.77347L12.0344 2.80899C12.0338 2.58968 12.0018 2.30168 12.0575 2.09167L12.0657 2.06294C12.1484 1.75352 12.3314 1.60172 12.6407 1.50618C13.0754 1.47268 13.3394 1.76472 13.6624 2.00245C14.9298 2.93537 17.2766 3.37276 18.842 3.59498L22.5501 3.95202L25.9398 3.9394C26.0639 3.93249 26.1831 3.90577 26.3066 3.89721L29.1119 3.59557C30.8664 3.35082 32.9573 2.98118 34.4467 1.94285C34.6139 1.82632 34.7482 1.66687 34.9286 1.56953C35.3827 1.3245 35.9284 1.67295 35.9644 2.17468C36.0146 2.8725 35.9763 3.60055 35.9767 4.30138L35.9763 5.87612C35.9759 6.16956 36.0273 6.57897 35.9236 6.84995L35.9116 6.87934C35.7859 7.2084 35.4686 7.33328 35.1422 7.39431C34.718 8.61512 34.7521 9.76834 34.8351 11.026L35.0465 13.527L36.3212 22.8873L36.7286 25.6022L37.4062 31.9926L38.5366 41.9887L38.7067 43.2575C38.8447 44.4485 37.8322 44.1671 37.0729 44.2051C36.6135 44.2281 36.1702 44.3057 35.7146 44.3487ZM13.4509 3.47116L13.4571 6.15048L17.6302 6.92898L21.0715 7.31336L24.2719 7.4019L26.5218 7.31519C26.6996 7.30487 26.8709 7.27065 27.0469 7.25772L30.6949 6.84601L34.5615 6.12559L34.5364 5.50239L34.4872 3.50569C34.2776 3.65188 34.0102 3.753 33.7734 3.84652L32.7422 4.22337C30.8319 4.86151 28.2645 5.19761 26.2722 5.31986L23.5851 5.38905L20.7002 5.22259C18.2579 5.0207 15.6452 4.60736 13.4509 3.47116ZM14.4118 7.73814C14.5131 8.6184 14.5915 9.12465 14.5811 10.009L14.5312 11.602L13.4606 20.2933C13.4318 20.4737 13.3874 20.6463 13.3712 20.8291C14.8754 20.6158 16.014 19.971 17.3242 19.2491C19.308 18.1561 21.9876 16.5606 23.7246 15.059C25.8249 13.3753 27.807 11.5368 29.4782 9.41828C29.7432 9.08237 30.0823 8.72823 30.2781 8.35009L28.125 8.60415L25.0719 8.78481L20.9448 8.69055L17.8354 8.35365L15.3803 7.95119C15.0581 7.8864 14.7257 7.83644 14.4118 7.73814ZM33.5626 7.74653L32.4755 7.93642C32.0954 7.99553 32.2076 7.95733 31.9843 8.30008L31.3475 9.26706C29.3646 12.0375 26.5306 14.6863 23.8445 16.7234L22.8281 17.4427C20.8337 18.856 16.6438 21.5722 14.2851 22.0805L13.1368 22.2651L12.6085 25.9665C14.3851 26.3291 14.9079 26.9968 16.3974 27.6338L18.4459 28.3136C22.9231 29.8228 25.0898 29.8127 29.4023 28.3469C30.2313 28.0652 31.0983 27.8504 31.8978 27.4926C32.6489 27.1565 33.2957 26.6248 34.085 26.3568L35.3976 25.9017L34.0618 16.8652L33.5354 11.8982C33.5233 11.7901 33.4954 11.6925 33.4887 11.5803L33.4213 9.81925C33.4034 9.13708 33.4428 8.42481 33.6017 7.75933L33.5626 7.74653ZM12.4152 27.3168L11.3899 37.173C12.9654 37.1726 14.083 37.1409 15.6281 37.6386C16.2137 37.8272 16.7741 38.0858 17.3512 38.2982C18.5524 38.7406 19.8378 38.9818 21.0976 39.1807C24.0899 39.6532 27.79 39.2452 30.6248 38.335C31.5826 38.0275 32.4762 37.5336 33.4687 37.3359C34.3393 37.1624 35.2086 37.1712 36.0922 37.1756C36.2246 37.1763 36.4919 37.2159 36.6038 37.1723L36.5904 37.014L35.6197 27.5771C35.608 27.4956 35.6037 27.3795 35.5634 27.3087C34.9951 27.4862 34.4223 27.6902 33.8927 27.9639C33.2309 28.3059 32.6286 28.71 31.9271 28.9782C31.2898 29.2219 30.6291 29.3866 29.9835 29.6044L28.8474 30.0085C24.942 31.1859 22.0973 31.0135 18.1912 29.6897C17.1562 29.339 16.108 29.0659 15.1364 28.5536L14.2802 28.0512C14.0475 27.9217 12.6653 27.2525 12.4152 27.3168ZM11.2542 38.5825L11.1885 38.6137L10.7613 42.5734C10.7534 42.6462 10.7271 42.7482 10.7427 42.819C11.0168 42.8523 11.2915 42.8528 11.5664 42.8761L12.0703 42.9372C12.6643 42.9885 13.2724 43.0443 13.8571 43.1657C15.0869 43.4212 16.2073 43.9916 17.4179 44.3129C19.8418 44.9563 21.7373 45.0311 24.1728 45.0289L26.0088 45.0164C26.2546 45.0054 26.4876 44.9668 26.7311 44.942L27.3293 44.891C28.5024 44.7444 29.6876 44.5656 30.8272 44.2399C31.5748 44.0262 32.2776 43.7087 33.0155 43.4742C33.9221 43.186 34.8557 43.0282 35.8008 42.9366L36.6974 42.8476L37.2639 42.8134L36.8091 38.5783L35.389 38.5771C33.4022 38.5736 32.8739 39.0583 31.051 39.6459C28.6544 40.4185 26.2453 40.7552 23.7334 40.7458L20.9323 40.561C19.5704 40.3955 18.0179 40.0422 16.7256 39.5403L15.5408 39.0573C14.4908 38.6856 13.53 38.5775 12.4305 38.5779L11.2542 38.5825Z" fill="black"/>
</svg>
