<svg width="48" height="48" viewBox="0 0 48 48" fill="none" xmlns="http://www.w3.org/2000/svg">
<path d="M31.1276 42.8135C29.1335 43.135 26.8271 42.9637 25.1523 41.7613C24.8744 41.5617 24.6178 41.3226 24.3588 41.0987C23.0055 42.5458 21.1412 43.2381 19.1528 42.9481C16.6998 42.5903 13.875 41.1887 12.6646 38.9509C12.6157 38.9379 12.5235 38.9886 12.4734 39.0076L11.9516 39.1795C9.34162 39.9058 7.16405 38.9288 5.06953 37.5315C4.17679 36.9359 3.55444 36.857 3.98262 35.6242L8.96151 19.7638C9.53255 18.0725 10.1773 16.4365 10.9748 14.8384L12.6589 11.9434C12.963 11.483 13.5695 10.5827 13.9805 10.2075C14.1155 10.0843 14.1039 10.0215 14.1041 9.84753L14.1053 6.03059C14.1058 5.38259 14.2809 4.9812 14.9831 4.90761L32.4339 4.90039C33.6707 4.90105 33.9137 5.05377 33.9134 6.24519L33.9112 10.0288C33.9235 10.1166 34.5243 10.8306 34.6218 10.9571C36.08 12.8482 37.328 15.1302 38.1701 17.3725L40.107 23.1095C40.1254 23.1922 40.1599 23.2593 40.1828 23.3396L44.096 35.7775C44.1704 35.9929 44.2126 36.3052 44.1224 36.5218L44.0683 36.6348C43.9473 36.8267 43.5717 37.0083 43.3793 37.1432L41.2536 38.6005C40.2099 39.2463 39.3013 39.4565 38.1153 39.4616C37.0878 39.4661 36.3562 39.4764 35.4546 38.8747C34.7822 40.8078 33.1961 42.4565 31.1276 42.8135ZM15.5641 6.39012L15.5536 9.09078C15.5534 9.55995 15.6811 10.2364 15.4339 10.6569C15.7125 10.7711 16.0172 10.8236 16.3125 10.8777L17.4683 11.1044C18.9259 11.4082 20.6773 11.6487 22.1765 11.7239L25.7685 11.7178C25.8927 11.7102 26.0097 11.6809 26.1318 11.6703L28.1508 11.4653C29.2785 11.3275 30.4173 11.1602 31.5258 10.9062L32.5501 10.652C32.3452 10.2671 32.452 9.70738 32.4518 9.28639L32.4383 6.39767L15.5641 6.39012ZM14.4245 11.9353L14.4147 11.9528C14.2865 12.1773 14.1236 12.3818 13.9777 12.5948L13.2635 13.6877C12.0955 15.6223 11.1463 17.7561 10.4362 19.9011L5.8477 34.4973C5.69901 34.9834 5.51691 35.4823 5.41045 35.9784C7.00964 37.1773 8.86912 38.1521 10.9388 37.8623L12.1538 37.5773C12.0948 36.9937 12.3167 36.3261 12.437 35.7627L16.92 15.1562C17.0285 14.6433 17.0129 13.6869 17.6016 13.4714L17.6332 13.4596C18.266 13.2366 18.6119 13.8559 18.5211 14.4513L16.7295 23.0685L13.7911 36.339L13.6493 37.1046C13.5743 37.4673 13.571 37.3972 13.7227 37.7543C14.3628 39.2606 15.7465 40.2163 17.203 40.8539C19.3808 41.8073 21.9403 41.8341 23.494 39.8222C23.7933 39.4346 24.0358 38.9547 24.6446 39.2128C24.9254 39.3319 25.0305 39.5939 25.2233 39.8082C26.4069 41.123 27.7008 41.4662 29.4631 41.4597C30.3232 41.4566 31.3192 41.3561 32.0632 40.8746C33.4186 40.1173 33.9928 38.9457 34.4171 37.4893C34.4682 37.314 34.404 37.0998 34.3693 36.926L29.7066 15.6447C29.6272 15.2465 29.31 14.2605 29.464 13.8752L29.4745 13.8482C29.7526 13.1893 30.608 13.3451 30.8207 13.955L32.9485 23.8672C33.1392 24.548 33.1936 25.2664 33.4096 25.9474L35.5855 35.6375C35.7087 36.1845 35.7785 36.7549 35.965 37.2867C36.265 38.1427 38.3666 38.0151 39.172 37.8648L39.5305 37.7723C40.1485 37.6243 40.6668 37.2159 41.1764 36.8597L42.5803 35.9125C42.4449 35.3015 42.2057 34.7052 42.0209 34.1075L38.5644 23.0774C37.4459 19.5763 36.4672 16.4465 34.4846 13.3276L33.5438 11.951L29.6714 12.7653C27.7033 13.0659 26.2255 13.226 24.2529 13.2289L21.9342 13.2097L18.4276 12.8088L15.1132 12.1301C14.8833 12.0709 14.6439 12.0285 14.4245 11.9353Z" fill="black"/>
<path d="M24.1753 9.69887C24.0859 9.7134 23.9996 9.73032 23.9094 9.71335L23.883 9.70782C23.0559 9.53912 23.0974 8.4482 23.8523 8.22901C24.7883 8.17965 25.1048 9.38818 24.1753 9.69887Z" fill="black"/>
<path d="M21.1964 28.6352C20.3074 28.7624 20.2934 27.706 20.3933 27.0986C20.4513 26.7456 20.4433 26.3728 20.4677 26.0155L20.8967 20.0511L21.1847 14.8415C21.1907 14.3978 21.3344 14.1522 21.7828 13.9948C22.3738 13.9622 22.7371 14.4123 22.625 15.0116C22.5418 15.4572 22.5798 15.9545 22.5694 16.4072L22.2216 21.2752L21.9478 25.6786C21.9203 26.0227 21.8501 28.0262 21.7243 28.2205L21.702 28.2538C21.5652 28.4607 21.427 28.5538 21.1964 28.6352Z" fill="black"/>
<path d="M26.9042 28.6576C25.8613 28.5153 26.1062 27.2683 26.0542 26.5077L25.7116 21.8902L25.4783 17.5793C25.4656 17.41 25.4327 17.2433 25.424 17.0731L25.4055 15.9465C25.3892 15.2434 25.0292 14.1587 26.0398 14.001C26.6974 14.0522 26.8101 14.5122 26.8136 15.0518L26.8205 15.8609C26.8253 16.0747 26.8696 16.2833 26.8798 16.4961L26.9156 17.7078L27.1842 22.226L27.5116 26.6976C27.587 27.3387 27.7991 28.5721 26.9042 28.6576Z" fill="black"/>
</svg>
