<svg width="48" height="48" viewBox="0 0 48 48" fill="none" xmlns="http://www.w3.org/2000/svg">
<path d="M30.2046 42.8454C28.9105 43.576 27.5914 43.8216 26.1087 43.7304L24.7 43.5975C24.1367 43.5541 23.5264 43.5492 22.9625 43.5963L21.6916 43.7289C20.5211 43.7995 19.2579 43.651 18.196 43.1288C17.7411 42.9051 17.3168 42.6467 16.8328 42.4837C15.0275 41.8753 13.4858 42.1462 12.853 39.8549C11.3227 39.7334 9.80491 39.2319 8.61995 38.2292C8.48158 38.1121 8.32731 38.0087 8.25297 37.8357L8.24242 37.8097C8.15894 37.6079 8.22259 37.4031 8.31583 37.2159L10.9363 31.4676L12.6184 26.8655L14.0095 22.351L15.0624 17.6555L15.5648 14.61L15.7864 12.3746C15.8895 11.1785 15.9792 9.98564 15.9826 8.78442L15.9838 5.20847C15.9844 4.56611 16.0748 4.32145 16.7966 4.27539L31.3725 4.29262C31.4566 4.29627 31.5513 4.29823 31.6274 4.33828L31.6642 4.36084C32.0938 4.62018 32.0329 4.98572 32.0337 5.41889L32.0557 10.503C32.062 10.6437 32.0942 10.7779 32.1038 10.9128L32.2119 12.3981C32.3534 14.0381 32.5332 15.6594 32.8587 17.273L33.1404 18.773C33.1618 18.8734 33.1648 18.978 33.1882 19.0777L33.7505 21.4566C33.8265 21.7364 33.8941 22.0169 33.9728 22.2963L34.5007 24.1987C34.5766 24.4248 34.6233 24.6635 34.7031 24.8857L36.8729 30.9981L37.8164 33.2573C37.9377 33.5232 38.0375 33.8076 38.166 34.0685L39.6854 37.1916C39.7319 37.2837 39.8093 37.384 39.8198 37.4878C39.9239 38.5229 37.2033 39.4807 36.4569 39.6527C36.0315 39.7507 35.6164 39.834 35.179 39.8547L35.0988 40.1737C34.8645 40.9201 34.203 41.6363 33.4572 41.8784C32.9277 42.0502 32.3569 42.0726 31.8165 42.2056C31.2343 42.3489 30.7345 42.5743 30.2046 42.8454ZM17.1499 5.41889L17.0747 5.43689C17.0357 5.77795 17.0228 7.21317 17.0811 7.54022L30.8115 7.54472L30.9298 7.55386C30.9653 7.18669 30.9837 5.79099 30.9286 5.42339L17.1499 5.41889ZM18.0116 8.63241C17.706 8.63311 17.3762 8.61117 17.074 8.64834C17.0329 9.26986 17.0338 9.94833 17.0028 10.5919L16.8173 13.4201L15.9804 18.6965L15.0969 22.4409C14.5868 24.5365 13.893 26.6041 13.1834 28.6401L11.0554 33.9923C10.9405 34.2316 10.815 34.4734 10.7356 34.7271C11.6403 35.3135 12.5852 35.5566 13.63 35.6982L15.6655 27.5273C15.7572 27.1521 15.8283 26.7472 15.9686 26.3872C16.2507 25.6631 17.107 26.0222 16.9593 26.9006C16.8818 27.3612 16.7252 27.8334 16.6023 28.2848L14.6268 36.3721C14.6045 36.4691 14.4238 37.303 14.4385 37.3239C14.6787 37.6663 16.7573 37.939 17.2876 38.0972C17.9316 38.2893 18.5127 38.6791 19.1486 38.9022C20.6932 39.4441 21.9432 39.0646 23.4344 39.0121L23.4364 18.9789C23.4364 18.744 23.4232 18.5033 23.4375 18.2691C23.4646 17.8267 24.1828 17.4945 24.4879 18.1994L24.507 18.2371C24.5415 18.31 24.5345 18.418 24.5367 18.4972L24.5418 19.1304L24.5412 39.0674C24.8081 39.1074 25.079 39.1052 25.3478 39.126L25.8701 39.1842C26.8254 39.2505 27.9508 39.2321 28.8416 38.8897C29.4847 38.6425 30.0712 38.2837 30.719 38.0527C31.6292 37.728 32.6064 37.5628 33.5402 37.322L32.0534 31.1181C31.9632 30.7555 31.8344 30.3737 31.7857 30.0042C31.682 29.2176 32.5917 29.0533 32.8354 29.8003L33.2876 31.558C33.419 32.225 34.3331 35.6708 34.3395 35.6777C35.4183 35.5333 36.2958 35.2572 37.2484 34.7305L35.2536 29.878L33.4067 24.3923L32.626 21.4247C32.1447 19.4742 31.7323 17.5029 31.436 15.5152L31.0187 10.9579C31.0044 10.7376 30.9611 10.5201 30.949 10.3003L30.9377 9.13022C30.9365 8.97342 30.9501 8.79891 30.921 8.64516L18.0116 8.63241ZM10.3003 35.8003L10.1881 35.9747C11.1272 36.7061 12.1554 37.0277 13.3243 37.156L13.4199 36.7826C12.643 36.6896 11.8692 36.4686 11.1513 36.1596L10.3749 35.7944C10.3387 35.7795 10.3358 35.7885 10.3003 35.8003ZM37.6259 35.8472C36.4901 36.2955 35.7678 36.5458 34.5404 36.7398C34.572 36.8764 34.5952 37.0102 34.6586 37.1364L34.7228 37.1485C35.8008 36.9731 36.9564 36.7624 37.7825 35.9878C37.7917 35.883 37.7285 35.8117 37.6259 35.8472ZM9.71158 36.9416C9.59603 37.0994 9.51128 37.2667 9.42944 37.4437C10.3772 38.315 11.6788 38.6154 12.9195 38.7429L13.1319 38.1874C11.9191 37.9872 10.6821 37.7636 9.71158 36.9416ZM38.3283 36.9494C37.3474 37.6392 36.3643 38.0115 35.1564 38.1339C35.07 38.1427 34.9002 38.1338 34.8293 38.1768L34.9749 38.7347L35.1022 38.7407C36.0463 38.6169 37.9395 38.2765 38.5668 37.4699L38.5853 37.4449C38.5092 37.2829 38.4417 37.0879 38.3283 36.9494ZM14.1969 38.3827L14.0974 38.8624C14.5017 38.982 14.8826 39.1636 15.289 39.2841C15.9483 39.4795 16.6293 39.6059 17.2743 39.8443C17.9863 40.1074 18.6739 40.5185 19.413 40.6991C20.2607 40.9063 21.1507 40.9363 22.0189 40.8735L23.5701 40.7369C24.1797 40.7101 24.8039 40.8258 25.4093 40.8771C26.7481 40.9904 28.3083 40.8799 29.5244 40.3161C29.9678 40.1105 30.4041 39.8657 30.8673 39.7084C31.7974 39.3927 32.745 39.2108 33.6855 38.9416L33.8394 38.9175C33.8758 38.8168 33.7801 38.5108 33.7583 38.3916L31.7228 38.904C30.9047 39.1368 30.6413 39.2717 29.887 39.6441C28.6984 40.2308 27.1412 40.3899 25.8258 40.2874C24.8653 40.2125 23.9376 40.0325 22.9623 40.1136C21.1777 40.262 19.866 40.4648 18.1238 39.631C17.2306 39.2035 17.1899 39.1804 16.2328 39.0015C15.582 38.88 14.7894 38.6953 14.1969 38.3827ZM14.0329 39.9096L14.1592 40.2228C14.2514 40.4021 14.4146 40.5509 14.5783 40.662L14.615 40.6874C15.215 41.0915 16.4375 41.1541 17.1586 41.4052C17.6046 41.5605 18.004 41.8069 18.421 42.0239C20.6093 43.1624 22.4154 42.3146 24.6618 42.4814L25.3498 42.5642C26.4863 42.6724 27.8131 42.7149 28.8939 42.2779C29.6245 41.9824 30.2702 41.5171 31.0229 41.2612C31.8645 40.9752 33.0836 41.0325 33.7246 40.4093C33.8449 40.2605 33.9108 40.1229 33.9684 39.9405L33.94 39.9519C33.7457 40.0285 33.5424 40.078 33.3424 40.1374L31.8641 40.5354C30.6619 40.8377 29.6167 41.5277 28.5513 41.737C27.3012 41.9826 26.5202 42.0336 25.2758 41.9115L24.715 41.8834C24.0546 41.8419 23.4581 41.7885 22.8018 41.8724L21.9404 41.9662C21.7028 41.9873 21.4586 41.9786 21.2201 41.9788L20.4509 41.9738C18.9784 41.8915 18.0631 41.2422 16.7814 40.8002C15.8606 40.4828 14.9118 40.3788 14.0329 39.9096Z" fill="black"/>
</svg>
