<svg width="48" height="48" viewBox="0 0 48 48" fill="none" xmlns="http://www.w3.org/2000/svg">
<path d="M32.1421 44.8708C30.5194 45.3299 28.771 45.5976 27.0949 45.7331L25.6325 45.8216L22.3572 45.8185C18.6323 45.6587 14.7987 44.8997 11.4742 43.1827C9.63159 42.231 8.84474 41.2953 8.70023 39.1026L8.05621 29.4491L8.00488 23.0036L8.09662 21.4943C8.10735 21.3719 8.13459 21.2528 8.14443 21.13L8.57193 17.1462L9.77413 10.195L10.4151 7.45514C10.4754 7.23538 10.6964 6.7762 10.7174 6.67429C10.7663 6.43584 10.7326 6.12942 10.7326 5.88426L10.7335 2.97021C10.7348 2.2409 11.1313 2.2527 11.7569 2.25208L14.4785 2.25168C14.7074 2.2516 14.8697 2.20274 15.0867 2.16201C15.2707 2.14506 15.3775 2.25015 15.5396 2.25224L32.153 2.25157C32.3918 2.25126 32.6007 2.20699 32.8339 2.18787C32.9765 2.17618 33.0987 2.24722 33.2375 2.25059L35.7727 2.25197C36.056 2.25211 36.8011 2.15061 37.0163 2.34215L37.0363 2.36041C37.1014 2.41883 37.1568 2.4711 37.1996 2.54862L37.215 2.57784C37.339 2.8018 37.2708 3.15671 37.2689 3.40341L37.2665 5.68692C37.2661 5.92185 37.2033 6.44446 37.2899 6.63642L37.3194 6.70603C37.4454 7.06495 37.6116 7.43071 37.6766 7.80735L39.0083 14.5518C39.0549 14.732 39.0622 14.9116 39.0934 15.0935L39.7031 19.406L39.9123 21.5483L39.9847 26.7703C39.9808 26.9513 39.9443 27.1285 39.9399 27.3095L39.9235 29.4358C39.9132 29.6713 39.8631 29.902 39.8505 30.1382L39.5211 35.6786C39.4778 36.2482 39.4621 36.7116 39.4412 37.2874L39.3712 38.2516C39.3006 40.7 38.9574 41.8153 36.8381 43.0056C35.9754 43.4902 35.0791 43.9105 34.1483 44.2485L32.1421 44.8708ZM11.8618 3.40061L11.8654 6.32793C11.9849 6.42468 12.1618 6.45459 12.3059 6.51407L13.622 7.04287C13.9254 7.16001 14.2482 7.26543 14.5364 7.41581L14.5469 3.39988L11.8618 3.40061ZM19.834 3.40061L15.7318 3.4105L15.7309 6.23742C15.7309 6.7447 15.7634 7.27378 15.7111 7.77778C15.8474 7.85315 16.0406 7.86773 16.1919 7.90659L17.0381 8.14021C18.8711 8.63057 21.0139 9.01307 22.9199 9.10645L24.3145 9.11807C24.8262 9.11807 25.3408 9.12651 25.8515 9.09037L27.3947 8.93329C27.5845 8.91271 27.7754 8.90456 27.9628 8.86574L29.0038 8.70506C29.9921 8.53307 31.3166 8.24217 32.2645 7.86946L32.2683 3.39972L19.834 3.40061ZM33.4436 3.4031C33.4163 3.57 33.4447 3.72921 33.4473 3.89034L33.449 6.59756C33.4486 6.87234 33.425 7.15837 33.4448 7.43156L35.3497 6.64467L36.1432 6.28635L36.1582 3.39831L33.4436 3.4031ZM11.6282 7.51626L10.9705 10.3005L9.65821 17.8122L9.23756 21.8083C9.14765 22.7407 9.16715 23.6521 9.16654 24.5891L9.1829 27.9941C9.18932 28.1253 9.21993 28.2544 9.22813 28.3857L9.27285 29.9439C9.29005 30.327 9.32723 30.7064 9.35151 31.0896L9.75201 36.8984C9.87473 36.9321 9.99829 36.9404 10.1207 36.97L13.7836 37.679L19.3745 38.2592L21.5594 38.3735L27.6796 38.3707C27.8842 38.3595 28.0816 38.3098 28.2846 38.2962L31.457 38.049L35.4386 37.493L37.8589 37.0152C37.9747 36.9896 38.1745 36.9803 38.2699 36.9132L38.3767 34.8295C38.3871 34.7003 38.4167 34.5741 38.4243 34.4455L38.6243 31.0732L38.6557 30.0719C38.6675 29.8483 38.7148 29.634 38.7244 29.4082L38.8136 27.1052L38.8147 22.6794C38.8086 22.4645 38.7804 22.2561 38.7619 22.0427L38.723 21.2971L37.8143 14.627L37.4174 12.1862L36.3854 7.5127C35.8851 7.70334 35.4027 7.95979 34.9068 8.16585L33.843 8.57198C31.3758 9.50784 28.7136 10.1632 26.068 10.3073L22.462 10.2863C19.0356 10.0761 14.9888 9.02399 11.8122 7.60345L11.6282 7.51626ZM9.84135 38.173C9.83104 40.0239 10.0376 41.0721 11.8111 42.0057L12.7245 42.4659C15.3787 43.6926 18.3064 44.3151 21.2106 44.5341L22.7999 44.6331L26.3885 44.5625C27.3895 44.4964 28.3898 44.4076 29.3788 44.237L30.9608 43.8978C32.9665 43.436 34.9451 42.7748 36.7089 41.6937C37.485 41.1573 37.9475 40.482 38.1203 39.5495L38.1466 39.4086C38.2218 39.0332 38.1764 38.5747 38.1747 38.1886L38.1546 38.1954C37.8988 38.279 37.601 38.3192 37.3358 38.3723L35.4095 38.7407L29.9106 39.4399L29.0863 39.4773C28.9093 39.49 28.7391 39.5342 28.5615 39.5441L27.3397 39.5658C27.1476 39.5712 26.9589 39.609 26.7668 39.6135L22.5515 39.6161C22.3424 39.6118 22.1363 39.5756 21.9266 39.5698L20.2459 39.5476L16.0638 39.1984L10.6997 38.3826C10.4178 38.324 10.1111 38.2724 9.84135 38.173Z" fill="black"/>
<path d="M23.9847 7.51454C22.2007 7.38568 22.2365 5.07029 23.9655 4.95605C25.4627 5.03176 25.7491 6.87577 24.4397 7.42398L24.4059 7.43771C24.264 7.49682 24.1366 7.50526 23.9847 7.51454ZM23.8508 5.67437C23.0275 5.93743 23.2779 6.94857 24.05 6.86659C24.8597 6.59743 24.6393 5.54738 23.8508 5.67437Z" fill="black"/>
</svg>
