<svg width="48" height="48" viewBox="0 0 48 48" fill="none" xmlns="http://www.w3.org/2000/svg">
<path d="M32.6192 43.0392C30.9311 43.4994 29.0442 43.5146 27.3057 43.4655C26.9319 43.4549 26.5702 43.3902 26.1903 43.3892L22.6516 43.3952C22.4344 43.4027 22.2218 43.4512 22.0047 43.4667L20.4556 43.5606C20.0381 43.5871 19.6146 43.5734 19.1962 43.5737L17.9885 43.5669C17.1135 43.5193 13.3089 43.0387 13.2365 41.808C12.6957 41.7857 12.1499 41.8366 11.61 41.7909C10.4858 41.6955 8.45977 40.7547 8.3872 39.4943C8.37333 39.2531 8.46113 39.0043 8.52755 38.775L10.9222 31.4427L13.572 22.1924L14.3969 18.8179L14.7066 17.0034L15.0997 13.3015L15.1114 10.8929L15.0276 10.0752C14.9674 9.50348 14.9017 8.92279 14.7092 8.37843L14.6803 8.2957C14.6357 8.15493 14.6379 8.00268 14.6204 7.85695L14.3378 6.0359C14.227 5.36592 14.0524 4.76925 14.8534 4.52495L33.0588 4.52051C33.3497 4.52817 33.6326 4.74548 33.7381 5.01L33.7492 5.03859C33.8685 5.32978 33.7361 5.69601 33.6794 5.98973L33.4711 7.12453C33.4019 7.52756 33.3767 7.94456 33.2902 8.34356C33.2406 8.57282 33.1399 8.78896 33.0962 9.02296C32.9212 9.96023 32.8771 10.897 32.8766 11.848L33.0469 14.9644C33.2144 16.5692 33.4185 18.1755 33.7984 19.7456L34.0763 20.9058C34.1853 21.2844 34.2966 21.6831 34.3882 22.0659L34.6878 23.1792C34.8725 23.7132 34.9874 24.409 35.1735 24.8984L35.612 26.4644C35.6377 26.5968 35.6796 26.7423 35.7195 26.8706L38.3591 35.4415L39.4699 38.812C39.5034 38.9061 39.5385 38.9886 39.5555 39.0888L39.5628 39.1401C39.6937 39.817 39.3009 40.3743 38.7893 40.7847C37.7025 41.6568 36.1606 41.9347 34.7904 41.7754L34.7166 41.8274C34.3185 42.5108 33.3426 42.849 32.6192 43.0392ZM15.5764 5.96437L15.9418 7.5337L32.0715 7.53642L32.1462 7.23098L32.379 5.9616L15.5764 5.96437ZM16.2061 8.97356C16.2555 9.6705 16.3735 10.3338 16.3835 11.088L16.3857 13.7097C16.2515 16.1897 15.697 19.1898 15.0709 21.5894L13.2854 28.0191L12.0225 32.2456L9.95363 38.5984C9.66159 39.4313 9.45314 39.3684 10.3002 39.9452C11.1536 40.5263 12.359 40.5561 13.3512 40.4315L14.6751 33.2093C15.1483 30.9392 15.6605 28.5127 17.1668 26.6729C17.3351 26.4674 17.5588 26.289 17.8455 26.3856L17.9686 26.4419C18.3547 26.6407 18.3678 27.8676 18.4226 28.3003L20.0154 41.2612C20.0589 41.5692 20.0328 41.9106 20.1123 42.2086L22.9388 42.0338L25.215 42.0211C25.7335 42.0219 26.094 42.0827 26.5549 42.1029L27.7011 42.1133C27.9247 42.1148 28.1705 42.1417 28.3913 42.1122L28.5641 39.1454L29.5969 27.5691C29.6465 27.0982 29.6564 26.3369 30.3518 26.4125C31.1096 26.495 32.1697 29.0863 32.4079 29.7603L33.0103 31.8438L34.6681 40.4498C35.922 40.488 37.4966 40.5242 38.3251 39.3767L35.3754 30.2986L32.5571 20.1483C31.9555 17.5068 31.5999 14.814 31.5941 12.1055C31.593 11.5701 31.5729 11.0216 31.6166 10.4878L31.7262 9.49143C31.7482 9.32339 31.7878 9.14362 31.7868 8.97445L16.2061 8.97356ZM17.2315 29.0503C16.6932 29.8488 16.3197 31.6878 16.1131 32.6253L14.5239 41.3142C15.0049 41.6935 15.7678 41.9139 16.3655 42.0078C17.1699 42.14 17.9811 42.2602 18.7995 42.2408L17.2315 29.0503ZM30.7432 29.1319L29.6633 42.0978C30.4871 42.0798 31.2851 41.9533 32.0909 41.794C32.5934 41.6519 33.0358 41.4951 33.4922 41.236L32.2801 34.6401C31.9174 32.7884 31.5536 30.8525 30.7432 29.1319Z" fill="black"/>
</svg>
