<svg width="48" height="48" viewBox="0 0 48 48" fill="none" xmlns="http://www.w3.org/2000/svg">
<path d="M28.1879 41.647C28.124 41.911 28.0574 42.2009 28.0232 42.4695C27.9416 43.1115 28.1918 43.8993 27.2221 43.904L20.5689 43.9121C20.4976 43.9093 20.4283 43.9008 20.3656 43.8648L20.3438 43.8518C19.7971 43.5408 20.0564 42.79 19.9748 42.2722C19.8104 41.2291 19.4251 40.258 19.0938 39.2614C18.3901 37.1447 18.3967 34.7801 19.4072 32.7643L19.1133 32.6484C18.8792 32.529 18.8769 32.3433 18.8377 32.1159L18.7011 31.1085C18.5213 29.7501 17.9471 27.5773 17.447 26.2618L15.8121 22.059C14.8357 19.02 14.5371 15.8535 15.5524 12.8037L16.4887 10.5631C16.7135 10.0675 17.4829 7.86574 17.3078 7.36333L17.228 7.14766C17.102 6.86416 17.1929 6.48072 17.1646 6.17613L17.0625 5.36753C16.9823 4.87202 16.7497 4.15515 17.4845 4.04027L29.2578 4.04781C30.4331 4.04727 31.2566 3.72386 30.9669 5.359L30.8628 6.0295C30.8045 6.40141 30.7877 6.83439 30.7344 7.24075C30.6389 7.96919 30.8798 9.00808 31.1393 9.6835L31.9991 11.5568C33.6858 15.5113 33.1703 19.629 31.6466 23.5716L30.4992 26.473C29.9514 28.02 29.4064 30.1419 29.2143 31.8044C29.1607 32.2688 29.1732 32.5697 28.6689 32.7653L28.6358 32.7777C28.7041 32.903 28.7634 33.0511 28.8148 33.1838L29.0757 33.9373C29.1499 34.1651 29.1852 34.4092 29.2601 34.6347C29.7141 36.0011 29.1815 38.4595 28.7702 39.7553C28.5732 40.3761 28.3006 41.0049 28.1879 41.647ZM18.5438 5.23403L18.3164 5.24852C18.2906 5.32999 18.4436 6.0123 18.4561 6.21082C18.8153 6.25694 19.2218 6.21292 19.586 6.21227L29.4763 6.21232L29.5933 6.20317L29.7257 5.23221L18.5438 5.23403ZM29.2344 7.41733L18.5473 7.43838C18.506 8.13836 18.412 8.85911 18.1973 9.52919L17.6982 10.9439C17.9362 10.986 18.1763 10.9775 18.4155 11.0047C18.9688 11.0677 20.2897 11.2789 20.8123 11.5132C22.0598 11.8345 23.1362 12.5986 24.0114 13.5227L24.0228 13.5068C24.9767 12.2005 27.0034 11.4242 28.5234 11.1798C29.1086 11.0857 29.7233 11.0782 30.2969 10.9293C29.9847 10.0851 29.6807 9.31333 29.5552 8.41441C29.5092 8.08525 29.5261 7.74789 29.4796 7.42071C29.403 7.4186 29.3091 7.405 29.2344 7.41733ZM17.1036 12.1588C16.4381 14.08 16.0544 15.379 16.1866 17.4183C16.2533 18.4483 16.4627 20.1119 16.8206 21.1029L19.0699 27.0308L19.7227 29.4865C19.7638 29.6187 19.7697 29.7698 19.7967 29.9066L20.0466 31.5194L27.9969 31.5265C28.1192 29.9262 28.6077 28.2701 29.1192 26.7603C30.2997 23.0388 31.8318 20.8294 31.83 16.5985C31.8293 14.9296 31.4286 13.7653 30.9046 12.1811C29.0396 12.2191 26.4607 12.701 25.1812 14.0944L24.4125 15.059C23.8648 15.7381 23.4036 14.8105 23.1256 14.4515C21.8384 12.789 19.1407 12.2067 17.1036 12.1588ZM20.993 32.7165C19.8709 34.1032 19.5938 35.5146 19.872 37.2884L20.0365 38.0994C20.081 38.3025 20.1195 38.5355 20.1948 38.728L20.9542 41.1566C21.124 41.6372 21.2031 42.224 21.2456 42.7276L22.2176 42.7279L23.3923 42.7274L23.393 32.7249L20.993 32.7165ZM24.6111 32.7147L24.5894 42.7252L26.782 42.7421C26.8019 42.443 26.8174 42.1439 26.8932 41.8525L26.9563 41.5439C27.6395 38.7291 29.1702 36.0381 27.4294 33.1696L27.1486 32.7402C26.9177 32.7006 26.6745 32.7147 26.4406 32.7144L25.2212 32.7146C25.0204 32.7148 24.8111 32.7277 24.6111 32.7147Z" fill="black"/>
</svg>
