<svg width="48" height="48" viewBox="0 0 48 48" fill="none" xmlns="http://www.w3.org/2000/svg">
<path d="M15.5936 48C15.0335 47.6977 15.0525 47.3606 14.9961 46.775L14.8758 45.8438L12.3059 29.8594L11.4715 23.5436L11.3718 22.2854L11.2035 19.2188C11.1784 18.6022 11.2075 17.9846 11.2311 17.3694L11.2907 16.043C11.5974 12.7487 12.2094 10.1666 13.6742 7.21739C14.3259 5.90498 15.0631 4.41696 15.1218 2.91935L15.1268 1.28862C15.128 0.661364 15.0572 0.326222 15.6759 0H32.4209C32.7587 0.246992 32.86 0.479466 32.8686 0.885966L32.8693 1.46225C32.8597 2.32664 32.8179 3.54556 33.1312 4.3678L33.5179 5.48438L35.3633 9.61809C35.4436 9.79552 35.4893 9.99825 35.55 10.1836L36.1284 12.0949C36.6913 13.8446 36.7471 16.7487 36.7177 18.5709C36.7137 18.8173 36.6624 19.0567 36.6595 19.3047L36.6255 20.7208C36.6175 21.4358 36.6144 22.6373 36.4753 23.2968L32.8374 47.25C32.794 47.5069 32.7896 47.6606 32.5578 47.8341L32.2993 48H15.5936ZM16.6063 1.22903L16.4126 1.24164C16.3615 1.31826 16.3682 3.02999 16.3725 3.25537L31.4353 3.27797L31.6434 3.2758L31.5996 1.2243L16.6063 1.22903ZM16.2977 4.53295L16.1131 4.54277C16.0405 4.66111 16.0388 4.83187 15.9998 4.96556L15.7522 5.69414C15.531 6.30834 15.2559 6.92522 14.9588 7.50581C15.0647 7.55316 30.3107 7.5172 31.8924 7.5172L33.0453 7.48809C32.7546 7.00167 32.3297 5.96728 32.1553 5.44237C32.0557 5.14252 31.9893 4.83066 31.8818 4.53449L16.2977 4.53295ZM14.2835 8.7998C13.9792 9.65545 13.5881 10.4813 13.3831 11.369L14.255 10.6237C14.8554 10.0962 15.5068 9.50939 15.9064 8.80739L14.2835 8.7998ZM17.5672 8.79891C17.4961 8.80209 17.4194 8.79741 17.3514 8.81991C17.1341 9.19327 16.9391 9.59775 16.6832 9.94589C16.0736 10.7753 14.3514 12.5124 13.2876 12.7869L13.0311 12.8377L12.6042 15.6436C12.3745 17.3301 12.4256 18.4994 12.5373 20.1485L12.6369 22.2022L13.4157 28.8688L15.0487 38.9062C15.0711 39.0453 15.0692 39.1908 15.0953 39.3281L15.7978 43.6406C15.8243 43.7776 15.8271 43.9193 15.8526 44.0563L15.9861 44.8125C16.0922 45.4463 16.1243 46.1491 16.2325 46.7459L19.1234 46.7552L19.1077 46.3887C19.0964 45.6767 19.0165 44.9716 18.9699 44.2617L18.5889 40.4565L16.0048 22.7537L15.4818 19.9643L15.0452 18.2812C14.6475 16.4737 14.9543 14.5721 16.2868 13.2054C17.6542 11.8027 19.1634 11.1588 20.2283 9.25092C20.3078 9.10847 20.3488 8.94141 20.4419 8.81133L17.5672 8.79891ZM22.2015 8.79867L21.8259 8.81367C21.0108 10.675 20.3663 11.4854 18.7415 12.8259C17.0549 14.2173 15.8899 14.8955 16.1737 17.3669C16.2229 17.7955 16.2953 18.2821 16.444 18.6863L17.2133 22.321L18.2317 29.001C18.2516 29.1448 18.2571 29.2954 18.2828 29.4375L19.083 34.6222L20.0369 42.0117L20.4021 46.7368C20.6821 46.7715 20.9962 46.7407 21.28 46.7405L29.4773 46.7405L31.5865 46.7546C31.7079 46.2827 31.7561 45.7842 31.8476 45.3048L33.8813 33.4453L34.7704 27.5273L35.447 20.2244L35.3742 15.3621C35.3025 14.5106 35.2056 13.6851 35.0293 12.8481C34.9522 12.8137 34.8583 12.8113 34.776 12.7886C33.3778 12.4036 31.4701 10.4076 30.831 9.16228C30.5907 8.69395 30.7014 8.79853 30.1635 8.7982L22.2015 8.79867ZM32.2391 8.79853L32.1092 8.81259C32.0257 9.09759 33.9941 10.9187 34.5584 11.2743L34.6287 11.3225C34.636 11.2533 34.5976 11.2083 34.5722 11.1445L33.7939 9.09375C33.7568 8.99358 33.7472 8.87714 33.6789 8.7922L32.2391 8.79853Z" fill="black"/>
</svg>
