<svg width="48" height="48" viewBox="0 0 48 48" fill="none" xmlns="http://www.w3.org/2000/svg">
<path d="M32.0097 40.5071C31.5888 40.6258 31.1486 40.7086 30.7198 40.7946L28.6171 41.1563L24.8115 41.4948C23.6664 41.5264 22.5379 41.4548 21.3972 41.3621L20.6147 41.3165C19.4512 41.2018 18.2994 41.0091 17.1561 40.7663L15.8412 40.4771L12.5033 39.3936C12.0153 39.2059 11.5295 39.1176 11.5402 38.5169L11.5531 37.0642C11.5625 36.8764 11.5985 36.6938 11.6104 36.5065L12.2127 30.2579L12.6497 27.4454C13.0907 24.769 13.6788 22.0501 14.7742 19.5545L15.3342 18.4248C16.0621 16.8636 16.3882 15.5814 16.5239 13.8985L16.5855 13.2046C16.6395 11.916 16.5428 10.6189 16.4202 9.33776L16.2024 7.57043C16.1375 7.02331 16.0899 6.62421 16.6675 6.37775C17.0896 6.36326 17.256 6.54978 17.6156 6.73418C19.1608 7.52646 20.9634 7.86931 22.682 7.96442L23.9382 7.9715C26.0998 7.96878 28.253 7.7621 30.2184 6.80473C30.6288 6.60476 31.5271 5.96543 31.7728 6.81898L31.782 6.85554C31.8676 7.11523 31.82 7.37009 31.7907 7.637L31.5097 9.94929C31.3698 11.4067 31.3231 12.9855 31.5117 14.441L31.6461 15.2853C31.6876 15.5325 31.7135 15.7764 31.7959 16.016L32.4535 17.9329L33.1033 19.3212C33.5125 20.2433 34.1894 21.8697 34.3899 22.8711L34.484 23.2227C34.522 23.4227 34.5933 23.6174 34.639 23.8158L35.0161 25.5001L35.8588 30.9727L36.3403 35.8151C36.3882 36.4785 36.4419 37.1336 36.4775 37.7986C36.5521 39.1939 36.5103 39.0215 35.2515 39.4893C34.192 39.8831 33.1022 40.2165 32.0097 40.5071ZM30.4704 8.00398C27.1906 9.51082 21.8512 9.65923 18.4067 8.3921L17.4727 8.00159L17.7175 10.6754L17.7476 11.7039L19.7199 11.9012C20.3724 11.9538 21.0593 12.0284 21.7082 12.0325L27.1757 12.0132C27.3189 12.0051 27.4462 11.9652 27.5828 11.9511L28.7868 11.8405C29.2737 11.7875 29.7585 11.7462 30.2409 11.6551L30.4704 8.00398ZM30.1823 12.9259L27.5263 13.1982L25.9073 13.2798L21.2639 13.2204C20.0917 13.1629 18.9234 13.1124 17.7592 12.9497C17.7057 13.4948 17.7291 14.0451 17.6694 14.5899C17.5 16.1377 17.1063 17.2867 16.5114 18.7376C17.0174 18.9417 17.7057 19.1567 18.2287 19.2449C20.1101 19.7627 21.7916 19.9167 23.7107 19.9183L25.626 19.908C25.8809 19.8965 26.1331 19.8446 26.3868 19.82C28.1154 19.6529 29.8834 19.3921 31.5017 18.73C30.8812 17.2513 30.4706 15.9602 30.3071 14.3428L30.1823 12.9259ZM32.0511 19.8634L29.5284 20.5647L29.7668 21.7618C29.8328 22.071 29.8627 22.3906 29.9169 22.7019L31.3596 31.336C31.3822 31.4715 31.3866 31.6102 31.4062 31.7462L32.3966 37.7995C32.4608 38.2274 32.506 38.6548 32.6076 39.0759L32.8059 39.0193L35.3587 38.1461L34.8047 32.1915C34.3498 28.0488 33.7884 23.7169 32.112 19.8649L32.0511 19.8634ZM15.8333 19.8691C15.2099 21.2349 14.8302 22.6937 14.4987 24.1524L14.1713 25.5921L13.3085 31.1365L12.7461 36.6397L12.653 38.1599L15.3163 39.0556L15.3983 39.0759C15.4749 38.9471 15.467 38.6926 15.4921 38.5365L18.3299 21.2495C18.3675 21.022 18.4217 20.792 18.4313 20.5609L15.8333 19.8691ZM19.6157 20.8009L16.5619 39.3846C18.2809 39.7483 20.0221 40.0518 21.7793 40.1474L23.9717 40.1592C24.7252 40.1585 25.4942 40.1889 26.2459 40.1464L29.0155 39.841L31.4728 39.3676L29.0319 24.4985L28.3806 20.8025C27.2174 20.9816 26.0343 21.1654 24.8545 21.1654L25.2558 23.7349C25.2951 23.897 25.2911 24.0696 25.3143 24.2344L26.105 29.5889C26.1922 30.3246 26.2016 31.0621 26.3733 31.7879C26.4856 32.2627 26.4258 32.781 26.5614 33.3471C26.6197 33.5905 26.6069 33.8665 26.6366 34.1166L26.867 35.9484C26.9122 36.3688 27.3438 39.0296 27.2066 39.2744C26.9408 39.7482 26.4515 39.5444 26.371 39.0833C26.269 38.4989 26.311 38.0092 26.2361 37.5092C26.1875 37.1852 26.0462 36.883 26.0014 36.5556C25.9464 36.1527 25.9697 35.7289 25.9331 35.3229C25.8767 34.6956 25.6993 34.1555 25.6646 33.4337C25.636 32.8356 25.4894 32.584 25.4248 32.0665C25.371 31.6362 25.4438 31.1917 25.3919 30.7649C25.3644 30.5384 25.2815 30.3264 25.2451 30.1036C25.166 29.6185 25.1457 29.1336 25.0834 28.6481L24.7763 26.5981C24.7601 26.3791 24.7839 26.1371 24.7412 25.9231C24.6956 25.6948 24.5655 25.4991 24.5199 25.2653C24.4078 24.689 24.5153 24.071 24.3303 23.5091C24.2811 23.3596 24.2816 23.1844 24.2613 23.0281L24.1333 21.9715C24.1039 21.7036 24.0949 21.434 24.0154 21.1743L19.6157 20.8009Z" fill="black"/>
</svg>
