<svg width="48" height="48" viewBox="0 0 48 48" fill="none" xmlns="http://www.w3.org/2000/svg">
<path d="M32.2147 46.8512L14.5384 46.8515C13.5863 46.8513 13.4076 46.9587 13.2094 45.8733L12.0954 41.8043C11.6143 40.1097 11.1238 38.4138 10.8244 36.6751L10.4765 33.8412C10.462 33.6859 10.4252 33.5357 10.4156 33.3766L10.398 31.8438C10.3935 29.9713 10.572 28.9138 10.9357 27.0588L11.4067 24.6682C11.5437 24.0147 11.5968 23.3444 11.7192 22.6877C12.0023 21.1687 12.4884 19.7639 13.1628 18.3765C13.7618 17.1442 14.7111 16.1126 15.3528 14.8999C16.2284 13.2452 16.89 11.4455 16.8928 9.56099L16.8808 8.46144C16.008 8.21394 15.8603 7.85286 15.7394 7.06663L14.8045 2.8596C14.664 2.23989 14.2461 1.31784 15.1506 1.08283L32.1768 1.07812C32.251 1.08146 32.3223 1.09261 32.3873 1.13006L32.414 1.14623C32.5526 1.22909 32.6474 1.30547 32.7086 1.45873L32.7501 1.56314C32.8881 1.93147 32.6544 2.62588 32.5815 3.00022L31.6991 7.40338C31.628 7.72916 31.5894 8.3517 31.2472 8.5182C31.0305 8.62367 31.1077 9.99561 31.1305 10.2541C31.1932 10.9646 31.3686 11.7124 31.6087 12.3838L32.3048 14.1737C32.7618 15.1716 33.2247 15.8536 33.8449 16.7433L35.0617 18.8791C35.2294 19.2523 35.4227 19.6449 35.5423 20.0361L35.7518 20.6369C36.0043 21.4129 36.2176 22.2532 36.3484 23.0591L36.5238 24.2166C36.5636 24.497 36.5923 24.7915 36.6569 25.0666L37.2705 27.8792L37.5002 29.5783C37.6023 30.4679 37.5951 31.3457 37.5937 32.2415L37.5795 33.1921C37.5696 33.6024 37.5035 33.9966 37.4665 34.4046L36.7881 38.4564L34.7954 45.7688C34.7135 46.1226 34.7547 46.5184 34.411 46.745L34.3829 46.763C34.1454 46.9197 33.815 46.8521 33.5439 46.8523L32.2147 46.8512ZM15.9687 2.35569C15.989 2.54632 16.0408 2.69926 16.0865 2.88354L16.2681 3.64475C16.4513 4.42403 16.6093 5.20972 16.7958 5.9885L16.9318 6.54824C16.9701 6.74347 16.9714 7.02533 17.0572 7.19919L23.576 7.21733C24.0796 7.21794 24.4614 7.32463 24.9497 7.33892L30.433 7.35266L30.6027 6.47619L31.3652 2.74441C31.3851 2.6374 31.4403 2.46037 31.4224 2.35597L15.9687 2.35569ZM19.5408 8.6383L18.1469 8.64941C18.1386 9.22597 18.168 9.81088 18.1354 10.3858L18.0907 10.958C18.0883 11.0173 18.0628 11.0842 18.1003 11.1345L21.6174 11.1305L22.943 11.1302C22.9648 10.3118 22.8853 9.46138 22.978 8.64922C22.8923 8.62222 22.7824 8.63609 22.6926 8.63624L19.5408 8.6383ZM26.9993 8.6383L25.1346 8.63914C24.8337 8.63938 24.5068 8.61374 24.2089 8.64983C24.1516 9.13438 24.1371 10.6528 24.2169 11.1308L27.2083 11.1305L29.0666 11.1277C29.3543 11.1283 29.6788 11.1591 29.9626 11.1229L29.8553 10.1239C29.8273 9.63781 29.8411 9.13545 29.8541 8.64861L26.9993 8.6383ZM18.0877 12.3794C17.9531 12.3884 17.7971 12.3768 17.6661 12.4023C17.279 13.7886 16.6976 15.2149 15.9098 16.4237C15.3225 17.3248 14.6598 18.1433 14.1942 19.1233C13.5591 20.4598 13.0571 21.9536 12.8469 23.426C12.7686 23.9747 12.7256 24.5292 12.6193 25.075L11.8741 28.8726C11.6982 29.9294 11.6263 30.6288 11.6265 31.732L11.6904 33.4338C11.7443 34.169 11.7971 34.9153 11.9153 35.6442L12.6664 39.2206C12.7524 39.5624 12.8705 39.9002 12.9448 40.2452L14.3219 45.0932C14.364 45.2489 14.3832 45.4299 14.4413 45.5771L17.0334 45.5727L23.3641 45.5729L22.9383 12.3848L18.0877 12.3794ZM24.1848 12.3797L24.1805 17.1666C24.1811 17.399 24.1656 17.6434 24.2138 17.8713L24.2929 18.3212C24.516 19.3984 24.6231 19.9374 24.6237 21.0231L24.6254 45.1162C24.626 45.7887 24.6598 45.5727 25.4452 45.5727L33.5588 45.5706L34.1217 43.4418C35.2315 39.5073 36.3728 35.8 36.3696 31.6657L36.3086 30.0318C36.2968 29.8696 36.2988 29.7075 36.2795 29.5457L35.3801 24.998L35.1265 23.2619C34.8358 21.6406 34.2881 19.9333 33.4734 18.488C33.0773 17.7853 32.5801 17.145 32.1314 16.4768C31.4117 15.4048 30.7273 13.9249 30.4095 12.6579C30.3881 12.5724 30.3815 12.4513 30.3293 12.3812L24.1848 12.3797Z" fill="black"/>
</svg>
