<svg width="48" height="48" viewBox="0 0 48 48" fill="none" xmlns="http://www.w3.org/2000/svg">
<path d="M36.3637 40.9943C36.1202 41.1265 35.8951 41.2839 35.6595 41.4288L34.6522 42.0193C31.9314 43.5863 30.0045 44.1159 26.9355 43.876L25.127 43.7805L22.1933 43.7961C21.0911 43.8568 20.0121 44.0127 18.9035 43.9416C16.5762 43.7922 14.3732 42.7013 12.4312 41.4836L11.5428 40.9436C11.0157 40.6208 10.8875 40.532 10.896 39.8671L9.92565 39.5952C8.71262 39.3169 7.68034 39.2826 6.45456 39.28C6.20612 39.2794 5.89937 39.2992 5.66335 39.2193C4.63253 38.87 3.88936 38.2379 3.67034 37.1057L3.63895 36.9142C3.54166 35.7715 3.79431 33.8843 3.92787 32.7431C4.46618 28.1441 5.52418 23.5772 6.99596 19.1867L7.5302 17.5726L10.4796 10.1211C10.7077 9.59431 10.6946 9.58508 10.6951 9.01508L10.6906 2.78628C10.6904 2.2314 10.6939 1.76402 11.4189 1.69434C11.7032 1.71675 11.7978 1.856 12.007 2.03032C14.414 4.03555 17.8696 4.41348 20.8923 4.59342L22.5728 4.65706L27.058 4.58648C27.1895 4.57818 27.3145 4.54623 27.4471 4.5368L29.5166 4.34783C31.6501 4.07022 33.7361 3.56187 35.504 2.26593C35.8723 1.99594 36.3511 1.49164 36.8458 1.83689L36.8671 1.85246C37.2062 2.09125 37.188 2.35469 37.1892 2.72537L37.1958 9.13091C37.1963 9.22583 37.1749 9.38633 37.2137 9.47098L37.2949 9.59783C37.4853 9.82958 37.5995 10.2074 37.7077 10.4885L40.6089 18.03L41.8271 21.9216C42.0682 22.6073 42.2221 23.3528 42.41 24.0553L43.646 29.7803L44.1953 33.8996C44.2548 34.8295 44.4646 36.1033 44.3321 37.0182C44.1694 38.1426 43.1798 39.1322 42.0484 39.2677C41.6131 39.3199 41.1375 39.2782 40.6975 39.2817C39.3584 39.2921 38.4385 39.5851 37.152 39.843C37.0699 40.474 36.9752 40.6763 36.3637 40.9943ZM35.8162 3.73845C33.7868 5.075 31.3481 5.56831 29.0038 5.82584L25.5406 6.06894L22.2909 6.06523L19.2189 5.87169L17.0739 5.57065C14.8936 5.14419 13.9457 4.77875 12.0546 3.75436L12.0728 9.419C12.5185 9.56375 12.9442 9.75636 13.3801 9.92281L15.4335 10.5933C16.2536 10.81 17.0976 10.954 17.9326 11.0978L19.3657 11.3343L22.4691 11.6284L25.4799 11.63L27.2518 11.4684C29.0813 11.2951 31.3653 10.9427 33.1405 10.4042L35.451 9.55292C35.594 9.49789 35.7265 9.48026 35.8517 9.38651L35.8162 3.73845ZM36.3154 10.6894C35.8842 10.8994 35.446 11.0975 34.995 11.262L34.121 11.5481C33.3215 11.8213 32.5355 12.0888 31.7042 12.2522L32.7542 15.5054L33.4775 18.5392L34.5294 23.8812C34.5691 24.0165 34.5707 24.1654 34.593 24.3049L35.6648 31.591L35.7989 32.9179C35.8435 33.3856 35.8943 33.7915 36.0375 34.2399L36.9233 38.4907L38.1505 38.1609C38.7857 38.0083 39.4667 37.8847 40.1213 37.8769L41.3974 37.8756C41.5714 37.8755 41.7928 37.9008 41.959 37.8624C43.06 37.6081 43.0284 36.6947 42.9757 35.8478L42.5663 31.6452L41.6105 26.5484L40.4995 22.2072L39.264 18.3046L36.7811 11.8303C36.6357 11.4593 36.5031 11.0394 36.3154 10.6894ZM11.6879 10.7355L8.17346 19.9239C8.05534 20.2395 7.97593 20.5735 7.87318 20.8947L7.16003 23.3426C6.3601 26.279 5.75832 29.2582 5.34601 32.2736L5.02482 35.7775C4.99853 36.1734 4.91448 36.6837 5.0777 37.057L5.09753 37.0993C5.48331 37.9471 6.05232 37.8801 6.83935 37.8778L8.22934 37.8956C8.74074 37.926 9.30737 38.0272 9.80181 38.1489L11.1213 38.472L11.9547 34.2391C12.1462 33.4846 12.1396 33.322 12.2147 32.5842L12.5978 29.2619L13.6455 22.6056L14.1137 20.2932C14.4753 18.5001 14.8542 16.7098 15.3629 14.9516L16.2727 12.264C15.4916 12.0818 14.7249 11.8805 13.9649 11.6217L11.6879 10.7355ZM30.2527 12.5275C29.1693 12.7287 28.079 12.8589 26.9809 12.9471L24.5691 13.0865L21.5157 13.0103C21.3571 12.9995 21.2019 12.9684 21.0439 12.9535L19.8983 12.8446C19.1536 12.7618 18.3892 12.6867 17.6559 12.5313C16.5275 15.3196 15.9114 18.2202 15.3274 21.1642L14.0586 28.7239L13.5987 32.4196C13.537 32.9411 13.5571 33.4868 13.4172 33.9972L13.0463 35.5281L12.3294 39.1717C12.1923 39.7636 12.1729 39.7188 12.7224 40.0276L13.2459 40.3296C14.6214 41.1312 16.0366 41.9896 17.6131 42.33C19.1354 42.7439 20.3742 42.4546 21.8945 42.3877L24.142 42.3749C25.0076 42.3756 25.6539 42.3987 26.4996 42.4599C28.2368 42.5856 29.662 42.6443 31.3577 42.0353C32.681 41.5601 34.5768 40.5519 35.7749 39.7158C35.678 39.053 35.5172 38.3948 35.3803 37.7389L34.8782 35.2542C34.7692 34.7612 34.5999 34.2744 34.518 33.776C34.4486 33.3542 34.4374 32.9359 34.3953 32.5124L34.1161 30.1525L32.9418 22.8121C32.4154 19.9673 31.8581 17.1085 30.9901 14.3439L30.5975 13.1736C30.5325 12.9873 30.4376 12.6747 30.3048 12.5287L30.2527 12.5275Z" fill="black"/>
</svg>
