<svg width="48" height="48" viewBox="0 0 48 48" fill="none" xmlns="http://www.w3.org/2000/svg">
<g clip-path="url(#clip0_6_786)">
<path d="M12.5776 48L8.36654 34.043C7.91166 32.3443 7.5609 30.6426 7.31331 28.9029L7.05765 26.8892L6.95996 24.1292C6.96005 19.2297 8.20304 15.5412 10.618 11.2839C11.0628 10.5 11.5723 9.7283 11.9636 8.91774C12.704 7.38385 12.9405 5.54513 13.0086 3.86748L12.9309 1.54911C12.9055 1.29035 12.8642 1.04516 12.8635 0.783696C12.8611 0.0201309 13.8913 -0.130792 14.0312 0.597663C14.3937 2.48596 14.2728 4.55272 13.9694 6.4336L13.876 6.97266C13.86 7.05844 13.8564 7.15102 13.8267 7.2331L34.3604 7.23624L34.0623 5.94151C33.8013 4.4869 33.7669 3.09771 33.8416 1.62909L33.911 0.900021C33.9602 0.462542 34.0655 0.210308 34.5344 0.105469C35.3897 0.331745 35.0821 1.01502 35.0496 1.66362L35.0393 3.25575C35.0602 4.67539 35.2068 6.18113 35.7539 7.50165L36.0971 8.34221C36.2784 8.8741 36.5858 9.31112 36.8934 9.77073L37.6289 10.9486L39.5819 14.843C39.7233 15.1534 39.8504 15.4848 39.9566 15.8086L40.4557 17.3203C40.9376 18.7921 41.1744 20.3273 41.3919 21.8555C41.4678 22.3891 41.4814 22.9429 41.5069 23.4814L41.5291 27.0826C41.5256 27.6504 41.4507 28.1573 41.4058 28.7233L41.2914 29.8262C40.8457 33.4652 39.8951 36.8791 38.6264 40.317L36.1251 47.0213C36.0109 47.3438 35.9211 47.6827 35.7964 48H34.473C34.5549 47.6775 34.6805 47.3695 34.7932 47.0569L36.456 42.5336C35.8017 42.5856 35.1495 42.7224 34.4992 42.8118L29.2098 43.3246C29.0813 43.3334 28.9569 43.3617 28.8281 43.3716L27.2709 43.4513L20.9767 43.449L17.2382 43.1943L12.2546 42.5241C12.2324 42.6437 12.3463 42.9663 12.3891 43.0824L13.5151 46.739C13.6157 47.0091 13.8557 47.7113 13.8794 47.9733L13.8815 48H12.5776ZM13.4937 8.52301L13.1568 9.36324L16.5468 10.1252C17.1352 10.2286 17.7292 10.2705 18.3209 10.3419L19.5897 10.4975L23.1392 10.6868L27.375 10.5834L32.3906 9.96151C32.8816 9.87469 33.3908 9.81141 33.8723 9.68054C34.2826 9.60446 34.7884 9.51362 35.1748 9.34609L34.8349 8.53299L13.4937 8.52301ZM12.5089 10.4806C11.4911 12.2912 10.4493 14.0931 9.66952 16.0239L9.00812 17.959C8.68768 19.0388 8.48237 20.1995 8.34563 21.3164L8.2944 21.9985C8.1864 23.0973 8.1624 24.1646 8.20266 25.2685L8.3057 26.7313C8.40915 27.8909 8.55212 29.045 8.7766 30.1876C8.97057 31.1747 9.16295 32.4972 9.50804 33.4435L11.8094 41.1737L14.8891 41.6201L19.1446 42.0342C19.3161 42.0461 19.4811 42.0843 19.6519 42.0943L23.4538 42.1532L23.4571 20.7729C23.4572 20.1928 23.3227 19.7169 24.0223 19.5332C24.1892 19.5789 24.3333 19.6198 24.4257 19.7813L24.4877 19.9244C24.6024 20.1924 24.5001 20.5952 24.4969 20.8779L24.4914 32.4492L24.5168 42.1652L28.5451 42.1006C28.8201 42.092 29.082 42.0443 29.3559 42.0295L29.987 41.9947C30.1868 41.9837 30.386 41.947 30.5859 41.9303L33.7092 41.617L36.9906 41.1364C38.0394 38.3067 39.0403 35.4647 39.6137 32.494L40.1267 28.9567C40.1577 28.5966 40.2146 28.2414 40.226 27.881L40.2441 27.0766C40.251 26.8779 40.2831 26.6821 40.2944 26.4844L40.3119 25.3815C40.316 19.9357 38.9949 15.3108 35.9798 10.6875C35.9391 10.6252 35.9018 10.5646 35.8454 10.5154L32.3421 11.3019L29.8242 11.6386L25.4487 11.9729C21.1609 12.0899 16.6296 11.6585 12.5089 10.4806Z" fill="black"/>
</g>
<defs>
<clipPath id="clip0_6_786">
<rect width="48" height="48" fill="white"/>
</clipPath>
</defs>
</svg>
