<svg width="48" height="48" viewBox="0 0 48 48" fill="none" xmlns="http://www.w3.org/2000/svg">
<path d="M33.4534 38.2143C33.1583 38.3959 33.2164 38.538 33.1191 38.8257L33.0929 38.9108C32.8918 39.7747 31.9973 40.4596 31.1763 40.6581C30.8164 40.7452 30.4348 40.7512 30.0672 40.7778L25.8484 41.139L20.8998 41.1443L17.8626 40.8754C16.0562 40.6381 15.1587 40.1105 14.7391 38.3181L13.8445 38.0195C12.5765 37.603 11.6873 38.3939 10.6703 38.3003C9.53376 38.1957 9.23549 37.4524 8.71363 36.6254C7.6484 34.9375 6.19762 35.0567 4.52923 35.058C4.29082 35.0582 4.04341 35.091 3.82552 34.979C3.26891 34.6932 3.60307 34.3075 3.47189 33.9123C3.32656 33.4745 3.55366 32.9214 3.66741 32.4948L8.15877 17.8639L11.2716 9.71483C11.3444 9.53197 11.3179 9.3163 11.3164 9.12223L11.3157 8.222C11.3161 7.58853 11.2923 7.15062 12.017 6.93945L13.9483 6.9748C14.141 6.98614 14.3299 7.0302 14.5233 7.03742L16.8596 7.13455L19.0242 7.15653C19.3704 7.16984 19.7152 7.22741 20.0625 7.23247L27.8344 7.23087L30.6585 7.14251C31.1207 7.14008 31.5632 7.08402 32.0215 7.06527L35.3714 6.9478C35.8632 6.93884 36.5038 6.89408 36.6598 7.55187L36.6671 7.59373C36.8005 8.23325 36.577 9.368 36.7773 9.85203L39.2949 16.3163L40.7635 20.8359C40.8546 21.3104 41.0468 21.7468 41.1395 22.2171L41.3324 22.9496C41.4191 23.4541 41.6281 23.935 41.707 24.4379L42.1954 26.5063C42.2309 26.6116 42.2522 26.7204 42.2701 26.83L43.0165 29.7539C43.0573 29.9331 43.1283 30.1156 43.1846 30.2921L44.1575 33.0234L44.6476 34.1308C44.6986 34.2359 44.6739 34.3922 44.6378 34.4979L44.6245 34.5351C44.4446 35.0506 44.0646 35.0616 43.6152 35.0601L42.4713 35.0573C38.9616 35.0554 39.5358 37.4945 37.9336 38.1555L37.8937 38.1717C36.6515 38.6856 35.4174 37.3856 33.4745 38.2051L33.4534 38.2143ZM12.6336 8.34284L12.6327 8.97631C12.6327 9.07723 12.6164 9.20708 12.6444 9.3035L35.2324 9.30809L35.3632 9.29295L35.3186 8.33469C34.9764 8.36431 34.6168 8.34162 34.2725 8.34655L32.9786 8.41531C31.9292 8.44981 30.8891 8.49809 29.8399 8.53836L29.1481 8.57534C29.015 8.5872 28.8888 8.61612 28.7534 8.62109L20.7282 8.62334C20.3687 8.61467 20.0135 8.54966 19.654 8.54075L17.7299 8.51661L13.2037 8.34064C13.0194 8.33989 12.816 8.32194 12.6336 8.34284ZM35.5225 10.6043L28.7391 11.0406L26.5609 11.151L19.9195 11.1538C19.63 11.145 19.3423 11.0875 19.0517 11.0728L13.979 10.7541C13.4369 10.7214 12.8766 10.6256 12.3351 10.6329C11.9996 11.3507 11.3923 12.8212 11.1809 13.5904C11.7598 13.8692 12.8609 14.2252 13.5095 14.374C15.1166 14.9034 17.4562 15.3077 19.1133 15.493L21.1502 15.6945C21.2898 15.7097 21.4179 15.7446 21.5596 15.7531L25.7703 15.7605L26.5597 15.6825C28.1991 15.5558 29.8338 15.363 31.4535 15.0792L36.9927 13.9026L36.0546 11.6435C35.9563 11.4002 35.7667 10.5678 35.5225 10.6043ZM10.6581 14.8481L8.36488 21.3017L4.98388 32.6936L4.77848 33.688C4.92552 33.724 5.13121 33.6987 5.28468 33.6987C6.4738 33.6991 7.62848 33.8824 8.62138 34.5975L8.65476 34.6221C8.92321 34.8219 9.24135 35.1009 9.45969 35.3601L9.95404 33.0007L13.643 16.5737C13.691 16.3382 13.7653 16.0973 13.7939 15.8594L12.4495 15.4581C11.8593 15.2803 11.2172 15.1095 10.6581 14.8481ZM37.4155 15.1758L34.1233 15.8971L35.8491 23.7332C35.8906 23.8775 35.9008 24.029 35.9459 24.1722L38.1973 34.1803C38.2395 34.3221 38.427 35.3799 38.467 35.411C38.6515 35.1807 38.8507 34.965 39.0867 34.7862C40.3101 33.7973 41.5198 33.6753 43.0192 33.702L37.4155 15.1758ZM15.0777 16.1532L10.5608 36.4584C10.53 36.6079 10.4955 36.7364 10.498 36.8906C10.6935 37.1023 11.718 36.7505 11.9751 36.6957C12.5056 36.5825 13.1009 36.5854 13.6374 36.6478C14.0818 36.6903 14.4725 36.8169 14.8995 36.9333L18.2803 16.7332C17.2138 16.6234 16.1089 16.4487 15.0777 16.1532ZM32.7163 16.2029L29.6283 16.724L30.9899 24.7297C31.0077 24.8445 31.0109 24.9648 31.0329 25.0781L32.9525 36.2839C32.9865 36.485 32.9958 36.6848 33.0509 36.882C33.5577 36.7564 34.0479 36.6474 34.5693 36.6012C34.8588 36.5782 35.1677 36.5681 35.4565 36.6028L35.9996 36.6872C36.2385 36.7365 37.284 37.0421 37.4438 36.9364L32.8477 16.2745C32.8369 16.229 32.8338 16.2214 32.8008 16.1854L32.7163 16.2029ZM28.2904 16.9101C27.435 17.0303 26.2927 17.1088 25.4043 17.1458L22.2632 17.1398C22.0219 17.1287 21.7894 17.0882 21.5495 17.0705L19.6037 16.9432L19.0017 20.5563L16.0932 37.6971C16.0415 38.0258 15.9985 38.0709 16.1398 38.4184C16.5854 39.5146 17.5502 39.4851 18.5742 39.5872C18.9262 39.6224 19.2686 39.668 19.623 39.6817L20.6601 39.7809L25.9805 39.7728C26.1834 39.762 26.3751 39.7122 26.5744 39.6968L30.0739 39.4028C30.5661 39.3582 30.9935 39.4102 31.3989 39.0635C32.0849 38.4768 31.9059 38.2111 31.8049 37.5469L28.3939 17.3129C28.3747 17.1898 28.3682 17.0301 28.3191 16.9167L28.2904 16.9101Z" fill="black"/>
</svg>
