<svg width="48" height="48" viewBox="0 0 48 48" fill="none" xmlns="http://www.w3.org/2000/svg">
<path d="M31.7167 39.2014C31.5553 39.3832 31.3725 39.488 31.1413 39.561L30.4769 39.7389C28.335 40.2855 26.1617 40.4809 23.9558 40.4815L22.5567 40.4763L20.4007 40.2812C19.5829 40.1794 16.4574 39.7112 16.3153 38.9158L16.3124 38.8827C13.7805 37.0039 9.99558 37.035 7.05858 36.1995C6.49519 36.0391 6.30178 35.5052 6.47109 34.9835L6.49008 34.9224C6.49298 34.883 6.49204 34.8908 6.46303 34.8795L5.28473 34.3777C4.51481 34.0053 3.79917 33.5119 3.15903 32.9476C2.25414 32.1499 1.8226 31.9335 2.54953 30.949L7.10287 24.5878C10.105 20.3528 11.8637 18.0399 13.2306 12.8568L13.6492 10.9569C13.7655 10.3366 13.8575 9.71794 13.9539 9.09398L14.119 6.82538C14.1286 6.18244 13.9215 5.58328 14.653 5.2785L32.9635 5.26758C33.3305 5.26875 33.6449 5.30948 33.8197 5.7L33.8323 5.72967C33.9771 6.06122 33.8777 7.34405 33.9126 7.80338L34.1719 9.89053C34.2781 10.5198 34.405 11.553 34.6092 12.1495L35.1371 14.1562C35.1477 14.1997 35.1566 14.239 35.1715 14.2814L35.2299 14.4726C35.3188 14.8217 35.4527 15.1769 35.5758 15.5155L36.3874 17.5896C36.8608 18.7689 37.5516 19.9348 38.2513 20.9882L44.8582 30.6983C45.0367 30.9675 45.2318 31.2304 45.3914 31.5109L45.4068 31.5382C45.596 31.8654 45.3268 32.233 45.1451 32.5002L44.6999 33.1046C43.8764 34.1312 42.8092 34.6495 41.4982 34.7926C41.4689 35.1671 41.7153 35.5516 41.4644 35.8993C41.1964 36.2706 40.7532 36.2723 40.3451 36.3653L36.7937 37.0286C36.1808 37.1385 35.5552 37.344 34.9659 37.5431L32.4391 38.4726C31.2799 38.9201 32.0437 38.7312 31.7167 39.2014ZM15.4978 6.72994L15.3724 9.01856L16.8401 9.01561L16.9338 9.02963C16.9495 8.96222 16.9164 8.89852 16.8962 8.83284L16.7335 8.32022C16.59 7.79728 16.5425 7.26994 16.5458 6.729L15.4978 6.72994ZM17.9588 6.735C17.9526 7.26877 17.9409 7.73198 18.1321 8.23477L18.2079 8.44763C18.2527 8.54775 18.3521 8.96362 18.4298 9.01434L28.4647 9.01491C28.833 9.01477 29.2398 9.04847 29.6038 9.00328L29.7189 8.64563C29.9956 7.90988 30.0613 7.52302 30.0382 6.73167L17.9588 6.735ZM31.4625 6.72994C31.446 7.43278 31.3774 8.10591 31.1625 8.77866C31.14 8.8493 31.0989 8.93798 31.0936 9.01041L32.2773 9.01467L32.6438 9.0232C32.6276 8.52272 32.5549 8.03517 32.5504 7.5367L32.5362 6.72966L31.4625 6.72994ZM15.1247 10.4813C14.8161 13.4987 13.3874 17.4006 11.9049 20.0155C10.5782 22.3558 8.90226 24.481 7.33659 26.6601L3.78674 31.6167C4.74089 32.4705 5.6497 33.0953 6.88383 33.5244C6.97992 33.1006 7.11736 32.7 7.25494 32.2884L7.83056 30.6322C8.43618 28.9577 9.16218 26.8979 9.25551 25.0988C9.26648 24.8881 9.20611 24.532 9.33506 24.3621C9.5437 24.0871 9.89953 23.8675 10.2499 24.0383L10.276 24.0506C10.4493 24.136 10.5808 24.288 10.6452 24.4687L10.6557 24.4976C10.7055 24.6446 10.6897 24.8341 10.6771 24.9859L10.6031 25.6401C10.3397 27.4877 9.81965 29.1506 9.21914 30.9137L8.89575 31.8303C8.85768 31.9358 8.75939 32.1346 8.76473 32.2409L13.5823 33.2366L16.5738 34.1655L16.7211 32.6044C16.8517 31.5653 17.5717 26.8019 18.1804 26.2703C18.5852 25.9166 19.103 26.1517 19.2706 26.6015L19.2827 26.6321C19.4192 26.9996 19.1588 27.4403 19.0545 27.7843L18.6688 29.2714C18.5592 29.7362 18.5063 30.221 18.4266 30.6917L17.9696 34.0592C17.8784 34.8817 17.6536 34.8374 18.3213 35.0038L20.3476 35.4321C20.9311 35.526 21.5435 35.601 22.1319 35.6345L25.4786 35.6362C26.7615 35.5691 28.4276 35.3511 29.6355 35.0252C29.8132 34.9773 29.9894 34.909 30.1672 34.8657L30.0866 34.0043L28.5274 25.742C28.2596 24.692 29.593 24.2174 29.8979 25.547L30.57 28.1298L31.1506 31.338C31.2037 31.5414 31.2061 31.7778 31.2353 31.9872L31.4609 33.8223C31.4823 34.0065 31.4713 34.1925 31.5046 34.3748L34.6188 33.2412C35.4292 32.94 36.2671 32.6694 37.126 32.5498C37.8696 32.4461 38.5886 32.5128 39.2388 32.417L37.6843 27.8096C37.6081 27.5681 37.5171 27.302 37.4815 27.0506C37.3533 26.1451 38.5234 25.8776 38.8376 26.8476L40.9757 33.2276C40.9927 33.2966 41.0294 33.3638 41.0599 33.4279C42.0316 33.3776 42.8095 33.0704 43.4535 32.3512L43.9217 31.7764L38.3675 23.5546C37.8196 22.7766 37.2465 22.0134 36.7488 21.2017C34.8461 18.099 33.4473 14.1121 32.8972 10.4809L15.1247 10.4813ZM8.33695 33.6255L7.94189 34.9636C10.4057 35.5355 14.0439 35.7706 16.1557 37.1833C16.2299 37.2185 16.3036 37.251 16.371 37.2982L16.3909 36.348C16.3965 36.1311 16.4495 35.85 16.4194 35.6424C14.6254 34.9239 12.8279 34.4393 10.929 34.081L9.03618 33.7647C8.80472 33.7226 8.56036 33.7004 8.33695 33.6255ZM39.2925 33.8407C36.7214 33.8357 36.0147 34.2645 33.6548 35.1021L32.1779 35.6208C32.0107 35.6835 31.8233 35.7359 31.6665 35.8196L31.7399 36.5858C31.7519 36.797 31.7286 37.0079 31.7829 37.2131L32.2818 37.0358C33.3607 36.5678 34.6412 36.1084 35.7893 35.8131L39.0822 35.1871C39.2424 35.1546 39.402 35.142 39.5602 35.0979L40.0942 34.9803L39.7219 33.8268C39.6401 33.829 39.3497 33.8088 39.2925 33.8407ZM30.2834 36.2929C27.8785 36.8782 25.394 37.1972 22.9148 37.0968L22.1141 37.0311C20.4805 36.9204 19.383 36.6866 17.799 36.3231L17.7397 38.2851C17.762 38.3064 17.7667 38.3163 17.7975 38.3239C19.0043 38.6639 20.6263 38.9382 21.8983 39.0072L23.9714 39.0267C24.93 39.026 25.719 39.029 26.6702 38.9413L27.3199 38.891L29.8773 38.4419C30.0454 38.4017 30.273 38.3531 30.4219 38.2708L30.2834 36.2929Z" fill="black"/>
</svg>
