<svg width="48" height="48" viewBox="0 0 48 48" fill="none" xmlns="http://www.w3.org/2000/svg">
<path d="M21.3458 42.2778L21.2971 42.2893C19.3073 42.7532 16.87 42.6213 14.9705 41.9397C14.5193 41.7777 14.1078 41.5312 13.6734 41.3305C11.4097 40.2844 10.1073 39.2933 9.34353 36.6995C9.04414 35.6828 8.98348 34.4659 9.12012 33.4095C9.58433 29.8211 12.3681 27.1285 15.7078 26C16.2146 25.8289 16.7253 25.7142 17.2424 25.5828C17.2568 25.3614 17.3176 25.1464 17.3447 24.9265L17.5276 23.0576C17.557 22.5781 17.5397 22.0888 17.5393 21.6082L17.4745 19.4424C17.4066 18.3871 17.2838 17.3274 17.0606 16.2927L16.5789 14.4722L15.8934 14.4649C15.7865 14.46 15.6673 14.4607 15.5657 14.4245L15.539 14.4142C14.9033 14.1762 15.0211 13.4645 15.021 12.9294L15.0233 6.58058C15.0249 5.57717 15.1996 5.43102 16.0714 5.43036L20.9825 5.42914L32.2429 5.42806C32.3448 5.42919 32.4646 5.42098 32.5635 5.44822L32.5898 5.45628C33.0273 5.58683 33.1497 6.01297 33.1637 6.42102L33.1642 13.5103C33.1641 13.616 33.1721 13.7547 33.1359 13.8541L33.1182 13.8981C32.9357 14.38 32.6212 14.4364 32.1386 14.4609L32.0661 15.2216C31.9774 16.1984 31.944 16.9861 31.9425 17.9801L31.9561 19.0146C31.9693 19.4765 32.0202 20.0097 32.0629 20.4723C32.1473 21.3866 32.4372 21.7962 32.6982 22.6045C32.8121 22.9573 33.0818 23.2408 33.2011 23.5983L33.6689 24.856C33.8985 25.322 34.0535 25.8308 34.2349 26.3172L34.4832 27.138C34.5157 27.3027 34.5568 27.4684 34.5939 27.6325C35.1603 30.1392 34.6223 32.3561 33.4475 34.6082C32.1147 37.1632 31.209 37.9263 28.546 39.3035C28.0564 39.5568 27.5684 39.8197 27.0626 40.0393L25.2427 40.7857C23.9653 41.3467 22.7199 41.986 21.3458 42.2778ZM16.6204 6.84064L16.4908 6.86352C16.4641 6.96584 16.4757 7.09203 16.475 7.19844L16.4749 12.081C16.4751 12.377 16.4544 12.6899 16.4848 12.9839L31.2683 12.9913C31.3797 12.9918 31.5109 13.0102 31.6187 12.9834L31.6955 12.9958C31.7324 12.619 31.7047 12.2163 31.7048 11.8371L31.7046 7.71228C31.7044 7.4308 31.7309 7.11992 31.6934 6.84163L16.6204 6.84064ZM18.0774 14.477L18.4234 15.6325C18.7373 16.924 18.9327 18.7647 18.9897 20.0689L19.0007 21.6264C18.9999 22.38 18.9357 26.5551 18.1523 26.9084L18.1265 26.9203C17.9715 26.9887 17.789 26.9883 17.6232 27.0143C16.27 27.227 14.9508 27.8519 13.8004 28.5714C15.6479 29.8272 16.9527 30.9741 17.6459 33.2575L17.8471 34.0541C17.8987 34.2418 17.8948 34.4432 17.9208 34.6351C18.1708 36.483 17.6793 38.3239 16.7561 39.9204L16.2312 40.7387C17.1445 40.9998 18.9127 41.2092 19.8893 41.0165C20.3865 40.9184 20.8935 40.8912 21.3867 40.7566C22.6145 40.4215 23.7627 39.8094 24.9315 39.3147C25.7217 38.9853 26.5259 38.6858 27.2967 38.3113L29.836 36.8666C26.8741 32.7468 26.9263 27.4473 30.3755 23.6675L30.9383 23.0894C31.3343 22.7121 31.1892 22.8714 31.0101 22.3473C30.2774 20.2022 30.4026 16.6622 30.6985 14.4695L18.4317 14.4752C18.3198 14.4751 18.1871 14.4616 18.0774 14.477ZM31.8804 24.2723C31.6467 24.4511 31.4478 24.6841 31.2526 24.9033C29.3855 26.9992 28.7376 29.8577 29.4176 32.5579C29.4641 32.7425 29.5008 32.9492 29.5694 33.1254L29.8808 33.9855C30.1229 34.5701 30.4648 35.1475 30.7994 35.6839L30.9315 35.8375C31.3322 35.4168 31.6398 34.8723 31.9248 34.3691C33.611 31.3922 33.8126 29.0623 32.496 25.8258C32.2885 25.3157 32.0468 24.7963 31.8804 24.2723ZM12.5622 29.5638C11.8561 30.2466 10.9528 31.7105 10.7591 32.7253L10.6054 33.4238C10.4334 34.4191 10.471 35.6051 10.8315 36.5622L11.0641 37.1458C11.7128 38.6555 13.0293 39.5254 14.51 40.0936L14.5387 40.1041C14.6122 40.1345 14.6901 40.1763 14.7689 40.187C16.1123 38.608 16.64 36.8032 16.4923 34.7715C16.3307 32.5483 14.4745 30.5269 12.5622 29.5638Z" fill="black"/>
<path d="M18.4928 12.354C17.792 12.3684 17.6497 11.878 17.6519 11.3204L17.6491 9.42792C17.649 8.9002 17.6033 8.39015 18.2752 8.25558C18.8799 8.2184 19.1002 8.57658 19.1015 9.09881L19.1046 11.0182C19.1055 11.5859 19.2034 12.1786 18.4928 12.354Z" fill="black"/>
<path d="M21.5834 12.33C20.8458 12.4429 20.7306 11.8491 20.7299 11.2721L20.7297 10.2693C20.73 9.53465 20.4405 8.41429 21.3747 8.25684C22.2001 8.29748 22.1669 8.92096 22.1682 9.59732L22.1707 10.9184C22.173 11.5034 22.2936 12.0897 21.5834 12.33Z" fill="black"/>
<path d="M24.6895 12.3177C24.5733 12.3375 24.4728 12.3494 24.3582 12.3142L24.3283 12.3046C23.6943 12.1035 23.8026 11.5008 23.8033 10.9805L23.8071 9.05404C23.8094 8.64707 23.921 8.45816 24.3136 8.27826C24.6343 8.23466 24.9215 8.29663 25.1194 8.57859L25.1406 8.60915C25.2363 8.73684 25.2352 8.81849 25.236 8.97946L25.2382 11.5636C25.2369 11.9578 25.065 12.167 24.6895 12.3177Z" fill="black"/>
<path d="M27.7903 12.324C27.4186 12.379 27.1001 12.19 26.9485 11.8434C26.8842 11.6961 26.8942 8.84418 26.9519 8.71991C27.0643 8.47795 27.2072 8.36545 27.4538 8.27591C28.4516 8.18343 28.3483 8.98124 28.3449 9.62095L28.3455 11.0568C28.3465 11.2747 28.4063 11.6324 28.3141 11.8276L28.2966 11.8618C28.1773 12.1068 28.0385 12.2246 27.7903 12.324Z" fill="black"/>
<path d="M30.9263 12.2863C30.5353 12.3654 30.055 12.134 30.0212 11.6957C29.9981 11.3972 29.988 8.89082 30.0459 8.75563C30.1566 8.49693 30.3229 8.38171 30.5723 8.27774C30.9116 8.23982 31.165 8.31318 31.3603 8.61369L31.3895 8.65475C31.5193 8.86555 31.4594 9.25729 31.4593 9.49232L31.4575 11.3466C31.4551 11.8027 31.3633 12.0532 30.9263 12.2863Z" fill="black"/>
</svg>
