<svg width="48" height="48" viewBox="0 0 48 48" fill="none" xmlns="http://www.w3.org/2000/svg">
<path d="M37.7004 41.8745L36.9471 42.4332C35.4902 43.4237 33.7726 43.8519 32.0246 43.8506C31.6858 43.8503 31.3163 43.8703 30.9839 43.8044L30.1051 43.6697C27.2336 43.0891 25.9757 41.7271 24.0535 39.7978L21.7476 37.5265C21.3496 37.1322 21.1518 36.9506 20.654 36.6861L16.9194 34.6289C16.1613 34.2223 15.3535 33.8382 14.6407 33.3567C12.9852 32.2385 11.7955 30.529 11.3785 28.5671C11.1775 27.6218 11.2057 26.6601 11.2064 25.6995L11.2045 12.5349C10.9214 12.5373 10.6116 12.5564 10.3319 12.5166C5.92698 11.8895 5.96167 5.52055 10.1145 4.90879C10.5818 4.83997 11.0561 4.84902 11.5272 4.84789L25.3004 4.84766C27.6059 4.84714 29.4448 4.89477 30.3752 7.42972C31.1067 9.42285 29.8819 11.9878 27.7056 12.4385C27.0345 12.5774 27.1023 12.2597 27.1026 13.0351L27.1046 21.4348C27.1046 22.2904 27.0712 23.1666 27.1224 24.0197C27.1601 24.6479 27.79 24.8049 28.2692 24.9769L34.0845 27.1602C35.044 27.5294 36.0032 27.8133 36.8858 28.3593C38.7347 29.5033 40.2039 31.5469 40.5815 33.7082L40.7322 34.5118C41.1126 37.1847 39.7492 40.1965 37.7004 41.8745ZM12.895 6.36885L12.4613 6.37485C12.3963 6.44732 12.3478 6.50905 12.3064 6.59708L12.0434 7.09714C11.2937 8.68485 11.7516 9.72613 12.4886 11.0869L12.8585 11.0848L13.6845 11.0592C13.5978 10.9253 13.5614 10.6808 13.5181 10.5242C13.2042 9.38915 13.102 8.14649 13.4018 6.99538L13.5953 6.37747L12.895 6.36885ZM15.6703 6.36885L15.2729 6.37555C15.0879 6.75271 14.9484 7.10699 14.8344 7.51161L14.7424 7.98983C14.6364 8.531 14.7384 9.52466 14.944 10.0621L15.2941 10.9552C15.3107 11.0034 15.3356 11.0423 15.363 11.0848L15.9992 11.0825L16.5572 11.0585C16.2142 9.90088 16.1181 8.20433 16.3728 7.043C16.4234 6.81238 16.5071 6.59268 16.559 6.36388L15.6703 6.36885ZM21.1677 6.3673L20.941 6.37424C20.941 6.46677 20.97 6.54627 20.9988 6.63285L21.0369 6.77099C21.3142 7.63963 21.31 8.99211 21.1539 9.90505L20.9975 10.6993C20.9683 10.8255 20.9251 10.9528 20.9072 11.0811L21.8263 11.0825C21.9306 11.0826 22.0984 11.108 22.1837 11.0516C22.7576 9.70658 23.0099 8.30075 22.4672 6.92188L22.3188 6.57341C22.2916 6.50319 22.2453 6.44014 22.2038 6.37771L21.1677 6.3673ZM26.8132 6.36332C26.957 6.83999 27.1455 7.17847 27.2326 7.71407L27.2463 7.78377C27.4932 8.94514 27.1647 9.99491 26.7838 11.072C27.2817 11.0328 27.7003 10.9229 28.1127 10.6335C29.8 9.3328 29.1592 6.59577 27.0264 6.37147C26.9593 6.36444 26.8794 6.35268 26.8132 6.36332ZM10.6697 6.38675L10.095 6.47122C9.53322 6.57974 9.08467 7.01389 8.78369 7.47383C8.07498 8.55674 8.53619 9.87486 9.48255 10.6431C9.83186 10.887 10.3445 11.0724 10.7744 11.0596C10.1441 9.61611 9.89781 8.17058 10.5959 6.65699C10.6346 6.57294 10.6936 6.48318 10.7038 6.39116L10.6697 6.38675ZM18.1892 6.36824C17.697 7.47796 17.5845 8.7201 17.8596 9.90238C17.9143 10.1374 18.0649 10.9435 18.2021 11.0802L19.3018 11.0825L19.3071 11.0585C19.3731 10.7707 19.4897 10.4953 19.5584 10.2061C19.8937 8.7951 19.7657 7.71032 19.3025 6.377L18.1892 6.36824ZM23.8916 6.3763C23.9537 6.77174 24.1533 7.22258 24.2246 7.69597C24.3885 8.78319 24.2004 9.52241 23.9925 10.5396C23.9561 10.7175 23.8493 10.9041 23.8357 11.0817L25.0081 11.0839C25.0727 10.9996 25.1208 10.9106 25.1711 10.8176C26.0056 9.47985 26.1048 7.65735 25.0503 6.39304C24.9261 6.32516 24.0362 6.36135 23.8916 6.3763ZM12.7015 12.5844L12.704 23.4778C12.7126 24.2635 12.5241 24.1354 13.2576 24.3333C15.3836 24.9069 17.1955 26.6451 18.0367 28.6496L18.5045 30.2612C18.7355 31.0735 18.6565 32.9868 18.5109 33.7798L21.0758 35.1822C22.3154 35.8778 22.2782 35.9344 23.25 36.8888L26.5086 40.1193C28.3024 41.7675 31.0549 42.826 33.4932 42.1781L32.1172 37.8853C32.0494 37.6848 31.9582 37.4866 31.9212 37.2774C31.7777 36.4639 33.1166 35.8368 33.5628 37.4297L34.9766 41.7894C35.1403 41.7614 35.3345 41.6355 35.4839 41.56C36.6787 40.9559 37.8336 39.8491 38.4178 38.6219L35.6827 37.6085L34.7163 37.2614C34.1088 37.0457 33.0644 36.8429 33.4186 35.9644C33.6942 35.2806 34.3035 35.4922 34.7853 35.6646L39.017 37.2163C39.3755 35.3939 39.2932 34.9497 38.893 33.2545C38.4323 33.3364 37.9832 33.4898 37.531 33.6075L33.948 34.5799C32.5636 35.0008 32.4343 33.5622 33.1269 33.2512C33.3015 33.1729 33.5204 33.1221 33.7059 33.0719L38.2415 31.8393C37.5363 30.5706 36.3226 29.6421 34.9917 29.1091L27.6854 26.3699C25.8098 25.655 25.6188 25.0482 25.6174 23.0173L25.6179 12.588L12.7015 12.5844ZM12.7311 25.76C12.5777 28.4859 13.3041 30.7996 15.8039 32.3003C15.9982 32.417 17.0501 33.0467 17.0812 32.8946L17.1291 32.3754C17.1954 31.9223 17.1555 31.4172 17.0897 30.9671C16.6961 28.2784 15.2067 26.6194 12.7311 25.76Z" fill="black"/>
</svg>
