<svg width="48" height="48" viewBox="0 0 48 48" fill="none" xmlns="http://www.w3.org/2000/svg">
<path d="M25.1308 41.2348C23.0656 42.0282 22.4983 42.6718 20.1639 42.6699C19.83 42.6696 19.4846 42.6783 19.1529 42.6445C13.299 42.0477 9.47859 35.1263 13.2778 30.1593C14.7535 28.23 17.3304 27.1331 19.7497 27.3313L19.7973 27.3355C20.0907 26.9023 20.426 26.5049 20.7625 26.105L21.0085 25.8268C21.1245 25.7004 21.1234 25.6976 21.148 25.526L21.6027 21.9399C21.6493 21.6257 21.7306 21.3093 21.7611 20.9938L22.6743 10.6792L23.0165 6.31677C23.0685 5.85458 23.221 5.5745 23.6959 5.44095L37.045 5.43945C37.1313 5.44166 37.2094 5.4492 37.2884 5.486L37.3127 5.498C37.5128 5.59517 37.7109 5.77564 37.7986 5.98353L37.8107 6.01883C37.947 6.38642 37.7871 7.04825 37.7578 7.43525L35.8668 26.6022C35.7911 27.5138 35.6849 27.1264 36.0004 27.9965L36.228 28.7831C36.5487 30.2427 36.6119 31.9337 36.0614 33.3471C35.1471 35.6944 34.0565 36.9305 31.89 38.0606L25.1308 41.2348ZM24.6108 6.99852L24.5148 7.01323C24.4513 7.16848 24.4684 7.42784 24.4621 7.59823L24.3242 9.45739C24.2888 9.83408 24.2182 10.2264 24.2508 10.606L35.8185 10.6046L35.9181 10.6174L36.2503 7.00677L24.6108 6.99852ZM24.0966 12.0996C24.028 12.5005 24.0251 12.9099 23.9842 13.3077L23.8656 14.5316C23.8451 14.7539 23.8087 14.9726 23.8102 15.1963L35.5114 15.1884L35.7939 12.1172C35.0781 12.0441 34.3207 12.089 33.5999 12.0889L24.7508 12.0895C24.5341 12.0897 24.312 12.0784 24.0966 12.0996ZM34.7706 16.701L23.6681 16.7115C23.6112 17.0015 23.6335 17.3125 23.6014 17.6082L23.2421 21.1823C23.4095 21.3288 23.6112 21.4174 23.8088 21.5157L24.9241 22.0128C26.3858 22.5555 27.8841 22.918 29.4394 23.0556L30.3586 23.0932C31.8816 23.1827 33.1733 23.1654 34.7063 23.0071L35.3232 16.697L34.7706 16.701ZM23.0224 22.8014L22.6098 25.8477L25.2273 27.4885C25.5455 27.6912 25.9103 27.8681 26.1968 28.1136C26.8275 28.654 26.1901 29.6608 25.3852 29.3359C24.6872 29.0541 22.01 27.1721 21.8545 27.1865C21.8483 27.1871 21.7432 27.3114 21.7293 27.3285L21.0673 28.1955C22.2973 29.6273 23.3334 31.3273 24.0343 33.0758C24.1086 33.2613 24.143 33.4721 24.0281 33.6449L24.0073 33.6776C23.7775 34.028 23.255 34.1465 22.9161 33.8741C22.6626 33.6704 22.5518 33.325 22.4199 33.0385L22.0586 32.3154C21.4701 31.2428 20.7885 30.2364 20.0135 29.2914C19.8109 29.0444 19.8376 28.8513 19.4919 28.8562L18.8172 28.8757C18.1095 28.9314 17.317 29.141 16.676 29.441C16.8156 29.6071 16.9855 29.7304 17.1437 29.8764L17.8082 30.5231C18.9135 31.6573 19.9963 32.9523 20.7649 34.348L21.5902 35.9047C21.7488 36.2676 21.9182 36.6219 22.0478 36.9965L22.5368 38.5805C22.7551 39.332 22.6713 39.9511 22.8218 40.5937L28.1399 38.156C28.2532 38.1066 28.4015 38.0638 28.4991 37.9904C28.284 37.4691 28.1822 36.9302 28.1042 36.3747C27.5927 32.7326 28.8769 29.0641 32.4515 27.5783C33.0684 27.3219 33.6264 27.1912 34.2855 27.1389L34.5267 24.6165C33.1903 24.713 31.8492 24.7301 30.5121 24.6556L28.2189 24.443C26.3708 24.1627 24.7174 23.5628 23.0224 22.8014ZM34.4163 28.6267C31.2734 29.0721 29.4174 31.856 29.4169 34.893C29.4168 35.1442 29.4048 35.408 29.4386 35.6569L29.7197 37.1368C29.7323 37.2237 29.7726 37.3145 29.815 37.3912L29.9858 37.3175C30.5096 37.0559 31.0406 36.8037 31.5404 36.4979C33.3993 35.3603 34.9585 33.3435 35.0155 31.0902C35.0346 30.3376 34.8567 29.3514 34.6096 28.6254C34.5438 28.6206 34.4821 28.622 34.4163 28.6267ZM15.2606 30.2916C13.7525 31.7292 12.8528 34.1227 13.5402 36.173L13.6428 36.516C14.5765 39.0644 16.7673 40.9404 19.5528 41.0893C20.1548 41.1376 20.743 41.123 21.342 41.0441C21.3794 37.208 18.6987 33.2865 15.8705 30.8316C15.6751 30.662 15.4248 30.4886 15.2606 30.2916Z" fill="black"/>
</svg>
