<svg width="48" height="48" viewBox="0 0 48 48" fill="none" xmlns="http://www.w3.org/2000/svg">
<path d="M25.1181 30.8819L24.31 26.0444C24.1935 25.3869 24.1497 24.6561 23.9256 24.028L23.9111 24.0923C23.7731 24.5807 23.7468 25.1262 23.6723 25.6286L22.9389 30.371L21.4915 39.0935C21.2362 40.2896 21.1473 40.4247 20.0416 40.3191L13.114 39.3849C11.9144 39.2533 12.0661 38.8061 12.1724 37.8396L13.0595 27.6783L14.182 17.1911L14.5562 14.0739L15.2509 9.14034C15.3172 8.79563 15.3358 8.37483 15.4726 8.05252L15.489 8.01534C15.6224 7.70728 15.851 7.64391 16.1731 7.62952L31.9688 7.62891C32.5173 7.64602 32.5391 8.15119 32.6255 8.55441L32.8126 9.57394C32.9433 10.2023 33.0099 10.8345 33.0981 11.4697L33.6341 16.098C33.65 16.2383 33.6438 16.3802 33.6596 16.5203L33.897 18.1117L34.6468 24.8471L35.8236 37.8335C35.8547 38.1718 35.9947 38.6807 35.8267 38.9989L35.7661 39.1009C35.5437 39.3915 35.2628 39.3357 34.9448 39.3771L28.7178 40.2729C28.4326 40.3163 27.5874 40.4326 27.3158 40.3479L27.2813 40.3365C26.5711 40.1094 26.5491 39.1304 26.4273 38.5166L25.1181 30.8819ZM16.9798 8.81058L16.5029 8.80917C16.4248 9.01411 16.4118 9.20714 16.381 9.42159L16.297 9.92255C16.2755 10.0896 16.2642 10.2684 16.2066 10.4268L18.463 10.4535C18.5832 10.489 18.7744 10.4683 18.9073 10.4693C18.9333 10.2736 18.957 10.0774 18.9988 9.88425L19.1703 9.15309C19.1942 9.05503 19.2506 8.91113 19.2462 8.81264L16.9798 8.81058ZM25.5108 8.81058C24.7536 8.87466 23.613 9.30342 23.2791 10.0198C23.171 10.2519 23.284 10.3172 23.4845 10.3831L23.5103 10.392C23.7294 10.4627 24.0456 10.4254 24.2793 10.4258L25.7462 10.4264L27.9598 10.4276L27.6585 8.81123L25.5108 8.81058ZM28.8468 8.81512C28.8669 9.02259 29.0628 10.2462 29.1669 10.4235L31.8124 10.4264L31.5096 8.82384L28.8468 8.81512ZM20.4772 8.81409C20.3104 9.31631 20.1777 9.90834 20.1477 10.425L21.8826 10.4299L21.9277 10.0913C22.0674 9.60028 22.3027 9.2272 22.6175 8.83087L20.4772 8.81409ZM24.2166 11.6028L24.3159 17.7942C24.5134 17.6139 24.5791 17.5994 24.7941 17.3555C25.0247 17.0582 25.1577 16.7214 25.2083 16.3474L25.2135 16.3113C25.2821 15.7926 25.2385 15.2173 25.2389 14.6918L25.2394 11.6003L24.5665 11.5987C24.4542 11.5985 24.3271 11.5865 24.2166 11.6028ZM29.429 11.591C29.3961 13.1076 30.3746 14.8192 31.8013 15.4115C31.9769 15.4845 32.1911 15.5791 32.3818 15.5974C32.378 14.5815 32.2035 13.5506 32.0925 12.5415L32.0278 11.8612C32.0183 11.7768 32.0183 11.6596 31.9805 11.585L29.429 11.591ZM16.0224 11.6028L15.5991 15.621C16.2064 15.4819 16.8399 15.1668 17.2894 14.731C18.0781 13.9335 18.4886 12.7182 18.6027 11.6105L16.0224 11.6028ZM19.8237 11.6027L19.5968 12.5505C19.3298 13.8777 18.7786 15.1921 17.6127 15.9777C16.9705 16.4104 16.2021 16.776 15.4236 16.8653L13.2838 38.2453L17.1618 38.7473L20.3174 39.1546L20.5218 38.0945L22.679 24.281L23.0832 21.2161C23.1504 20.6856 23.1548 20.4718 23.152 19.9248L23.1018 11.61L19.8237 11.6027ZM26.3923 11.6028L26.3481 15.9218C26.3466 17.053 26.0649 18.1323 24.9962 18.7507L24.5218 19.002L24.6113 20.0002C24.6446 20.4681 24.6986 20.9222 24.7497 21.3875L26.1099 29.7771L27.5166 38.0153C27.5939 38.3774 27.602 38.7864 27.7319 39.1322L32.252 38.5379L34.7326 38.2276L33.5421 25.401L32.7493 18.3227C32.6822 17.824 32.6649 17.3067 32.5524 16.8163C30.0321 16.4538 28.7844 14.645 28.3427 12.2918C28.2999 12.0637 28.2873 11.8294 28.2342 11.603L26.3923 11.6028Z" fill="black"/>
</svg>
