<svg width="48" height="48" viewBox="0 0 48 48" fill="none" xmlns="http://www.w3.org/2000/svg">
<path d="M25.7535 36.6719L24.1828 28.7984C24.1352 28.5232 24.0673 28.2514 24.0428 27.9726L24.012 27.9632C23.9902 28.0963 23.9316 28.2243 23.9061 28.3594L23.6728 29.7187L21.5034 40.1594C21.1014 42.025 20.918 43.2343 18.7587 43.2382L15.7755 43.2393C15.4646 43.239 15.1073 43.2666 14.801 43.2109C13.1897 42.9176 12.3011 41.4655 12.4507 39.9023L12.8268 36.1177L13.0437 32.1678L13.0497 26.5556C13.0467 25.4189 12.9638 24.2837 12.88 23.1512L12.5296 19.0571L12.3775 17.9414C12.3079 17.4558 12.2892 17.2419 12.2883 16.7316L12.2842 6.47444C12.2839 5.46785 12.5055 4.78985 13.6561 4.72123L33.5879 4.70548C33.948 4.70576 34.4262 4.65028 34.7626 4.77443L34.9104 4.82833C35.2539 4.96985 35.4746 5.2099 35.6242 5.54294L35.6358 5.56662C35.7026 5.70823 35.704 5.93646 35.7096 6.0948L35.7071 17.2751C35.7041 17.5849 35.631 17.8821 35.5785 18.1875C35.4483 18.9459 35.3772 19.7127 35.31 20.4785L34.9386 26.1562L34.9791 32.8125C34.9872 32.9867 35.0222 33.1581 35.0323 33.3318L35.0779 34.6526L35.455 39.0703C35.7461 41.0011 35.3444 42.7559 33.1937 43.2026C32.9113 43.2612 32.5911 43.2371 32.3031 43.2377L29.4745 43.2403C27.6409 43.2394 27.0237 42.7501 26.6271 40.8224L25.7535 36.6719ZM21.2617 6.04858L19.6167 6.04774C19.3249 6.04802 19.0163 6.02988 18.727 6.06349C18.7256 6.45926 18.7695 6.85324 18.8437 7.24216L18.9851 7.86326C19.0431 8.11315 19.0582 8.39107 19.1288 8.63519L20.6807 8.6403L22.4349 8.6118C21.896 7.85969 21.9798 6.61469 22.816 6.10891L22.816 6.09251C22.6318 6.05271 21.4753 5.9921 21.2617 6.04858ZM25.799 6.0446L25.0272 6.05623C25.8949 6.36883 25.9834 7.77246 25.5353 8.50047L25.4558 8.63369L28.0725 8.6403L28.8305 8.63749C28.8811 8.53408 28.873 8.37377 28.8926 8.25874L29.1496 6.77341C29.1809 6.53951 29.1757 6.3003 29.2043 6.06588L25.799 6.0446ZM14.0988 6.05168L14.0797 6.05759C13.5286 6.17843 13.6376 5.89123 13.637 6.62946L13.6349 7.85707C13.6336 8.02629 13.6004 8.22068 13.6187 8.38615L17.2561 8.3839C17.3504 8.38549 17.5755 8.41418 17.6528 8.36515C17.6422 8.14957 17.384 6.26196 17.2779 6.08121C16.8996 6.03823 16.5141 6.05233 16.1339 6.05257L14.0988 6.05168ZM31.0222 6.04858L30.9923 6.06762C30.8873 6.10362 30.7274 6.08641 30.6153 6.08819L30.227 8.36908L33.6499 8.3839L34.3548 8.38465L34.3561 6.08149C34.0173 6.02993 33.6559 6.05224 33.3135 6.05224L31.7019 6.05299C31.4842 6.05318 31.2368 6.07723 31.0222 6.04858ZM23.8555 6.98749C23.5301 7.07721 23.2868 7.4419 23.4585 7.76951L23.4772 7.80598C23.593 8.01968 23.8269 8.13452 24.0624 8.06566C24.6566 7.77312 24.6245 6.94859 23.8555 6.98749ZM13.6216 9.68402L13.6452 16.6396C16.9088 15.8185 16.3406 13.0197 17.0734 12.6414C17.4582 12.4427 17.775 12.6164 17.952 12.9844L17.9675 13.0157C18.0419 13.1807 18.0014 13.4729 17.9751 13.6523L17.9164 13.9805C17.3748 16.2202 15.9536 17.5409 13.7528 17.9716C13.7669 18.2332 13.8078 18.4835 13.8355 18.7423L14.2239 23.0001L14.3498 26.707C14.3565 26.8912 14.4004 27.0713 14.4052 27.2578L14.4096 30.924C14.4038 31.1269 14.3545 31.3225 14.3494 31.5268L14.3287 33.6251L14.1162 36.8106L13.8227 39.6326C13.7839 39.942 13.7171 40.2676 13.7701 40.58C14.0376 42.1556 15.7031 41.8671 16.8401 41.8652L18.4484 41.8649C19.541 41.8639 19.8233 41.8456 20.0452 40.6119L22.2686 29.707L22.9727 25.9133L23.2852 22.8867C23.3219 22.541 23.3245 22.2124 23.694 22.0467C24.0531 21.8858 24.4502 22.0173 24.5788 22.4046L27.1941 37.0337C27.2464 37.1925 27.2627 37.3494 27.2957 37.5117L27.8962 40.3359C27.9504 40.6258 27.9717 40.9398 28.0794 41.2148L28.0945 41.2542C28.1988 41.517 28.4668 41.8026 28.7581 41.8473L28.79 41.8526C28.966 41.8789 29.1553 41.8656 29.3335 41.8655L30.2635 41.8649C31.6357 41.8648 34.3032 42.3173 34.2299 40.2081C34.2114 39.6764 34.1078 39.1429 34.0553 38.6133L33.6673 33.5965L33.6515 31.5451C33.6479 31.3259 33.5972 31.1131 33.5934 30.892L33.5955 27.0117L33.6666 24.5306C33.679 24.3143 33.725 24.1019 33.7391 23.8858L34.162 18.6041C34.1864 18.4245 34.2689 18.1401 34.2413 17.9658C32.102 17.6074 30.2701 15.8546 30.0052 13.6575C29.8537 12.4007 30.8779 12.3651 31.181 12.8828L31.2354 13.0015C31.3873 13.3712 31.3794 13.9124 31.5989 14.3672C32.175 15.5607 33.0643 16.3291 34.3497 16.6197L34.3549 9.69799C33.985 9.65576 33.5845 9.68383 33.2108 9.68388L30.1724 9.68969C29.6399 9.69555 29.938 9.94526 29.3744 9.94896L28.5527 9.9468C28.1735 9.94601 28.3595 10.005 28.2662 10.3835L27.6637 12.8784C27.2141 14.6401 26.6681 16.6044 24.762 17.3445C23.9532 17.6584 23.7364 17.5959 23.0771 17.1274C20.8143 15.5195 20.085 12.5786 20.0821 9.94413L18.8469 9.9409C18.1541 9.93729 18.3572 9.70535 18.1204 9.69298L13.6216 9.68402ZM21.5149 9.94572C21.4276 10.0373 21.4593 11.089 21.4833 11.255L21.6163 12.0595C21.6408 12.192 21.6506 12.3259 21.6951 12.4537L22.0598 13.5684C22.4221 14.4117 22.7289 14.8669 23.3183 15.5728L23.3209 10.5348C23.3207 9.80102 23.4248 9.94202 22.69 9.94244L21.5149 9.94572ZM24.661 9.94273C24.6232 10.4196 24.6373 10.8843 24.6375 11.3432L24.6414 14.9424C24.642 15.2367 24.6147 15.5585 24.6804 15.846C25.1327 15.5718 25.4388 15.085 25.676 14.623C26.0839 13.8538 26.2881 12.9132 26.4849 12.0703L26.9041 9.95669L25.2848 9.94633C25.0891 9.94648 24.8501 9.97544 24.661 9.94273Z" fill="black"/>
</svg>
