<svg width="48" height="48" viewBox="0 0 48 48" fill="none" xmlns="http://www.w3.org/2000/svg">
<path d="M26.1653 37.0485L25.1047 33.7987L24.1762 29.8507C24.129 29.62 24.0663 29.3979 24.0344 29.1635C23.9265 29.3932 23.9024 29.6049 23.8503 29.8483L22.8593 33.9594L20.9572 39.5578C20.5072 40.7925 20.4824 40.8182 19.2821 40.6966L13.3591 40.0111C12.5437 39.8997 11.9183 39.3287 11.6731 38.5446L11.6635 38.5132C11.5078 38.0209 11.6505 37.4374 11.7006 36.9381L12.6455 24.6338L13.1482 17.6022L13.8936 9.19983L13.9492 7.85508C13.9693 7.45041 14.2137 7.23319 14.6149 7.20703L17.4607 7.35131C18.0164 7.39655 18.5763 7.49259 19.1333 7.51294C19.3957 7.5225 19.6699 7.46123 19.9362 7.45636L22.5225 7.45425C22.9279 7.45528 23.2966 7.58278 23.7018 7.60636C24.3192 7.64231 24.8894 7.48495 25.4942 7.40044C25.8855 7.34583 27.674 7.32052 28.0837 7.39612C28.4291 7.45987 28.0702 7.59741 28.819 7.54781L29.8629 7.49095C30.0293 7.47759 30.192 7.44244 30.3577 7.43142L32.4353 7.30936C32.7117 7.28723 32.9902 7.24514 33.2672 7.24116C34.4145 7.22475 34.0652 8.54841 34.0996 9.30056C34.1115 9.56184 34.1581 9.81848 34.1751 10.0792L34.5538 14.8918C34.5927 15.4472 34.6426 16.0007 34.6931 16.5553L35.205 21.8745L35.2532 23.0762L36.0049 33.5325L36.3689 37.7452C36.3834 38.0257 36.378 38.2825 36.311 38.5566L36.2766 38.6842C35.8483 39.9053 34.8476 39.9779 33.7561 40.1355L28.8821 40.7028C27.4167 40.8061 27.5129 40.8455 26.9796 39.3468L26.1653 37.0485ZM15.2207 8.54423C15.1542 8.88277 15.1845 9.2573 15.1858 9.60089C16.3268 9.75778 18.2224 9.804 19.2568 10.1252L19.2649 8.81695L15.2207 8.54423ZM32.3477 8.63564L28.7235 8.85862L28.7193 10.132L29.1072 10.0857L32.8031 9.4875C32.8 9.21548 32.8318 8.88764 32.7843 8.62317C32.6428 8.62556 32.487 8.61525 32.3477 8.63564ZM26.2552 8.70455L25.6447 8.74823C26.5676 9.73448 26.3987 11.6807 25.0862 12.2519C24.7235 12.4097 24.6401 12.2056 24.6293 12.5887L24.6068 13.1312C24.5936 13.2935 24.5549 13.4486 24.5452 13.6322L24.5223 19.402C24.5235 19.7198 24.4916 20.0819 24.5494 20.3933L24.5986 20.7837C24.6458 21.0219 24.6185 21.3119 24.6239 21.557L24.6658 22.7819C24.6733 22.9986 24.7127 23.2123 24.7208 23.4282L24.7381 24.4086C24.7523 24.6272 24.7905 24.8499 24.7982 25.0671C24.8081 25.3477 24.6909 25.595 24.738 25.8712L25.4175 29.5229L26.0341 32.2205C26.0905 32.4398 26.1334 32.6685 26.2041 32.8834L26.5386 34.1057C26.5478 34.1461 26.5638 34.1809 26.5786 34.2194L27.7475 37.527L32.0099 36.8478L34.488 36.5869C34.6327 36.5751 34.8367 36.5884 34.9695 36.5304C34.9638 36.2236 34.923 35.9303 34.8986 35.6256L34.057 23.9697L33.9914 23.3051C33.9613 22.8859 34.0041 22.4211 33.9186 22.0124L33.5227 18.7993C32.0254 18.5713 30.8561 17.4471 30.0114 16.2645C29.0861 14.9688 28.6737 13.1394 28.83 11.5503C28.2605 11.5968 27.4842 11.7227 27.4413 10.8759L27.4436 8.70689L26.2552 8.70455ZM20.5708 8.78255L20.58 10.2416C20.58 10.5817 20.6493 10.979 20.4489 11.2781L20.4301 11.3071C20.1442 11.7328 19.4777 11.58 19.0546 11.4476C19.0992 11.7645 19.1456 12.0814 19.1465 12.402C19.1532 14.8353 17.1532 18.0443 14.7078 18.6924C14.6694 18.7026 14.4082 18.7392 14.401 18.7481C14.3464 18.8158 14.3122 19.561 14.2999 19.695L14.1097 21.8011C14.099 21.926 14.0693 22.0469 14.06 22.1721L13.7274 27.4518L13.602 28.803C13.5476 29.4723 13.5241 30.152 13.4616 30.8297L13.0825 35.7313C13.044 36.3028 12.8238 36.5584 13.3878 36.5847L16.8337 36.9701L20.2721 37.5271L21.5872 33.6569C22.139 31.773 22.5041 29.8583 22.8966 27.9383L23.2698 25.8873C23.3173 25.641 23.4156 25.372 23.4277 25.1234L23.4227 23.3795C23.4142 23.2213 23.3839 23.0655 23.3776 22.9063L23.2378 19.9824L23.2324 14.3125L23.3087 12.7393C23.3291 12.1357 23.3322 12.4297 22.8396 12.0945C21.6457 11.2821 21.6441 9.88059 22.3608 8.77533L20.5708 8.78255ZM23.9857 9.35831C23.5193 9.43509 23.0781 9.80559 23.16 10.3248L23.2136 10.523C23.3087 10.8852 23.7315 11.2456 24.1244 11.1951C24.4897 11.1521 24.76 11.0005 24.889 10.653L24.9022 10.6179C24.9812 10.399 24.9658 10.1666 24.8754 9.95433L24.8596 9.91636C24.7102 9.56686 24.3624 9.35044 23.9857 9.35831ZM32.9011 10.7467L30.1701 11.2103C30.11 12.0602 30.0324 13.1019 30.3285 13.9225L30.5036 14.4363C30.8166 15.1388 31.2468 15.826 31.8086 16.3597C32.2344 16.8434 32.8301 17.2356 33.4453 17.4187L32.9011 10.7467ZM15.0773 10.9108C15.007 11.27 14.999 11.6402 14.9737 12.0045L14.5774 16.643C14.5612 16.8776 14.4854 17.1374 14.5382 17.3704C15.2074 17.103 15.6902 16.7151 16.172 16.1877C17.3453 14.8389 18.244 12.9893 17.6578 11.1907L15.0773 10.9108ZM12.9171 37.8663C12.8918 37.9909 12.8873 38.061 12.9277 38.187L12.9819 38.3233C13.1334 38.6499 13.376 38.7047 13.6885 38.7467L19.5777 39.4813L19.6472 39.3211L19.8558 38.7975L13.8228 37.9249C13.5304 37.8879 13.2107 37.8367 12.9171 37.8663ZM34.9698 37.862L32.447 38.1293L29.1949 38.6022C28.8493 38.6582 28.4984 38.7147 28.1641 38.8211C28.2104 38.9538 28.2702 39.0866 28.3061 39.2217L28.3877 39.4576C28.5085 39.5502 29.4059 39.3891 29.613 39.3632L30.7695 39.2185C30.9284 39.2003 31.0898 39.1975 31.2477 39.1749L34.0793 38.769C34.6038 38.6895 35.1752 38.5256 35.1023 37.8595L34.9698 37.862Z" fill="black"/>
</svg>
