<svg width="48" height="48" viewBox="0 0 48 48" fill="none" xmlns="http://www.w3.org/2000/svg">
<path d="M24.9885 27.4043C24.9526 27.1056 24.9504 26.8008 24.9325 26.5003L24.4984 20.4508C24.468 19.9933 24.5608 18.885 24.3498 18.4924C24.0577 17.9491 23.6748 18.3216 23.5698 18.7464C23.4734 19.1361 23.5185 19.5677 23.4931 19.9684L23.1165 25.0636L22.4095 33.9829C22.353 34.5986 22.329 35.218 22.2689 35.8349L21.8032 41.7209L21.6679 42.955C21.6107 43.5059 21.6417 44.1234 21.3261 44.6057C20.4029 46.0162 16.9352 45.8883 15.4257 45.4789C14.1123 45.1227 14.1096 44.7114 14.0487 43.5657L13.9027 41.4846L13.881 40.3074C13.8719 40.0514 13.8227 39.8056 13.8089 39.5513L13.777 38.3814C13.7652 38.1659 13.7178 37.9557 13.706 37.7394L13.6787 36.5928L13.2892 30.3578C13.2798 30.2371 13.2545 30.119 13.2476 29.9969L13.0323 26.1373L12.5957 20.0123C12.5761 19.6548 12.5653 19.3031 12.5104 18.9494C12.4376 18.4798 12.4954 17.9673 12.4655 17.4905C12.4485 17.2215 12.3935 16.9575 12.3796 16.6871L12.3691 10.8869L12.7743 7.71114C13.0123 6.43642 13.74 4.70767 13.7921 3.57612C13.8154 3.06882 13.7165 2.44164 14.3655 2.32544C14.8385 2.29835 15.3655 2.45762 15.8319 2.52465L16.9796 2.66393C17.5678 2.74087 18.1641 2.82386 18.7577 2.82747L29.6967 2.81758C29.8762 2.80754 30.0506 2.75849 30.2289 2.73934L32.0214 2.51984C32.5641 2.44162 33.9015 2.01883 34.1145 2.69405L34.1252 2.73067C34.2444 3.05952 34.1986 3.8057 34.3129 4.27755L34.7821 6.2463C34.8592 6.58267 34.9517 6.92027 35.0096 7.26077L35.3993 10.1663L35.534 12.0236C35.5538 12.2725 35.5978 12.5206 35.6081 12.7703L35.6198 14.6815C35.6209 15.498 35.6329 16.3096 35.5366 17.1213C35.4567 17.7948 35.4956 18.5904 35.4457 19.3127L35.2095 23.1283C35.1982 23.2673 35.166 23.4033 35.1555 23.5432L34.9276 27.7077C34.9192 27.848 34.8909 27.9856 34.8774 28.1252L34.7422 30.3979C34.7348 30.5521 34.7008 30.7013 34.6893 30.8544L34.1782 39.5943L33.9864 42.6916C33.9777 42.8249 33.9506 42.956 33.9441 43.09L33.8956 44.1349C33.8729 44.3765 33.8535 44.6968 33.7009 44.8947C33.0969 45.6783 31.2692 45.7305 30.2857 45.7314C29.3368 45.7322 28.4773 45.7105 27.5892 45.3031C26.7739 44.9291 26.5209 44.5003 26.4248 43.6628L24.9885 27.4043ZM15.0127 3.58156C14.849 4.18835 14.8397 4.81989 14.6507 5.42927C15.3888 5.61555 16.1383 5.6822 16.8262 5.85494C17.0431 5.90941 17.2685 6.08781 17.4792 6.10722C17.7115 6.1286 17.9649 6.21728 18.1939 6.27217L19.3533 6.50116C19.4358 6.36095 19.539 6.21616 19.6465 6.09424L20.3858 5.0771L19.6522 4.07158L17.9341 4.01238C17.1079 3.96541 15.8008 3.79822 15.0127 3.58156ZM32.9327 3.59786C31.9784 3.76095 31.0203 3.94174 30.0533 4.01318L28.9275 4.06132C28.6745 4.06506 28.3488 3.96358 28.1964 4.20987L28.1738 4.26238C28.0624 4.54706 27.7436 4.75286 27.5978 5.0177L28.3748 6.13019L28.6494 6.52938L33.3348 5.335L33.0116 3.59025L32.9327 3.59786ZM21.064 4.01345C21.2827 4.29486 21.5493 4.54749 21.6758 4.88692L21.6906 4.91767C21.8265 5.25367 21.4587 5.64822 21.2783 5.89474L20.6816 6.72241C20.9091 6.76131 21.1485 6.75874 21.3791 6.77664L23.1699 6.86974C23.4255 6.8771 23.6899 6.92425 23.9424 6.91994C24.1616 6.91624 24.382 6.85938 24.6069 6.85427L25.8489 6.84958C26.1266 6.83608 26.3955 6.77716 26.6773 6.76792L27.291 6.69681L26.7142 5.87885C26.4999 5.57247 26.1518 5.25072 26.3121 4.84506L26.3264 4.80785C26.4433 4.51331 26.6773 4.29999 26.8734 4.05753L21.064 4.01345ZM33.6343 6.48067L32.114 6.92092C32.2116 8.51496 32.6564 10.0517 33.6138 11.3562C33.7704 11.5522 34.1363 12.0606 34.3672 12.1651L33.6343 6.48067ZM14.2795 6.54344C14.0022 7.47325 13.8566 8.40766 13.7327 9.36827L13.5843 10.463C13.5413 10.9443 13.5323 11.7422 13.5504 12.2415C13.801 11.9609 14.1363 11.6575 14.3319 11.3389C15.0886 10.3768 15.5087 9.20795 15.7417 8.02028C15.8116 7.66375 15.8295 7.29377 15.9143 6.93981C15.3537 6.86856 14.8152 6.72086 14.2795 6.54344ZM30.8161 7.27755C29.8991 7.47667 28.9775 7.75858 28.0451 7.87914L26.3033 8.05361C25.9014 8.07517 25.4809 8.04527 25.0846 8.10803C24.828 8.5361 24.0442 9.94638 23.9823 10.4107C23.9341 10.7724 24.0253 11.2978 24.1054 11.6648L24.218 12.124C24.2669 12.2843 24.2681 12.4579 24.2924 12.6228L24.3524 13.1238C24.4001 13.5128 24.4122 13.867 23.9647 14C23.1659 14.2375 23.179 13.0667 23.1153 12.6594C22.9999 11.9215 22.7062 11.1618 22.8236 10.4065C22.9171 9.80542 23.3287 8.65595 23.6936 8.14206L20.1534 7.92442C19.5823 7.84619 19.0311 7.71888 18.4687 7.59555L17.0719 7.2723L16.8397 8.70203C16.5049 10.3751 15.54 12.178 14.203 13.2605C13.8693 13.5307 13.5592 13.5528 13.5615 13.9274L13.5675 15.9814C13.5689 16.3736 13.5562 16.8091 13.6255 17.195C13.7372 17.8175 13.6135 18.4672 13.7278 19.0858C13.8043 19.4995 13.7603 19.9571 13.7897 20.3791L13.9818 23.1657C13.9935 23.3424 14.0291 23.5177 14.0393 23.6955L14.068 24.5744L14.3521 28.491C14.3641 28.6904 14.4022 28.8865 14.4107 29.0861L14.4432 30.0119C14.4537 30.1651 14.4872 30.3132 14.4958 30.4663L14.5382 31.5855C14.5496 31.7427 14.586 31.8939 14.5941 32.0517L14.634 33.3502C14.6404 33.458 14.6651 33.5611 14.6727 33.6677L15.0634 40.4167L15.088 41.5666C15.0982 41.7425 15.1407 41.911 15.1523 42.0831L15.2643 44.1153C16.3637 44.6657 19.4391 44.8153 20.3567 43.8849C20.4314 43.614 20.4388 43.362 20.4654 43.0839L21.5819 29.5373L22.3127 19.8166C22.354 19.3292 22.3383 18.806 22.447 18.3283C22.8463 16.5745 25.5849 16.3775 25.6658 19.224C25.6844 19.8805 25.7363 20.4839 25.7577 21.1219L25.7874 22.0197L26.9156 36.5009L27.5356 42.9612C27.5546 43.1941 27.5532 43.4285 27.6033 43.6577L27.6191 43.7523C27.7193 44.4293 29.1817 44.5205 29.7281 44.525L31.07 44.4721C31.6417 44.4319 32.1313 44.3874 32.6802 44.1901C32.7274 43.7729 32.7219 43.3515 32.7516 42.9332L32.986 39.4425C33.0344 38.7131 33.0653 37.9826 33.111 37.2531L33.1914 36.1324C33.2063 35.6332 33.2637 35.2025 33.2841 34.7259L33.5452 30.6246C33.5981 29.873 33.6539 29.0936 33.6743 28.3426L33.744 27.4202C33.7644 27.0771 33.7525 26.7228 33.8176 26.385L34.4245 13.656C34.3697 13.6183 34.3223 13.5917 34.2607 13.5663C33.7192 13.3425 33.1429 12.716 32.7755 12.2585C31.764 10.9993 31.2 9.36236 30.9615 7.78146L30.9081 7.27141C30.877 7.27235 30.8468 7.27206 30.8161 7.27755Z" fill="black"/>
<path d="M24.0505 5.86007L23.938 5.86255C23.265 5.84975 23.15 4.96569 23.8606 4.73619C24.2498 4.70446 24.6757 5.09375 24.4825 5.49439L24.449 5.56705C24.3645 5.74171 24.2244 5.80424 24.0505 5.86007Z" fill="black"/>
</svg>
