<svg width="48" height="48" viewBox="0 0 48 48" fill="none" xmlns="http://www.w3.org/2000/svg">
<path d="M23.8921 24.8966L23.6898 26.6774L22.9301 32.1929C22.843 32.9999 22.9055 33.3738 22.9421 34.1176C22.9911 35.1117 22.8773 36.116 22.7918 37.1052C22.7673 37.3885 22.7742 37.6857 22.7265 37.9656L22.5456 39.4531C22.4515 40.1254 22.2812 40.8071 22.0525 41.4455C22.0096 41.5654 22.0277 41.7198 21.9691 41.8296L21.9307 41.8888C21.7998 42.0834 21.4992 42.2008 21.2776 42.2392C19.5452 42.5402 17.5816 42.29 15.9722 41.6227C14.7087 41.0988 14.9671 41.122 14.7934 39.8115L14.3762 36.2459C14.3295 35.4588 14.2833 34.7011 14.2454 33.9112L14.1967 33.01C14.1833 32.8563 14.1555 32.7016 14.1482 32.5477L14.1318 25.4425C14.2139 22.6518 14.7447 20.1622 15.2525 17.4261L15.8385 13.5956C15.9286 12.7612 15.9334 11.9166 16.0547 11.0863C16.2898 9.47797 16.6965 8.60647 16.6629 6.88292C16.655 6.473 16.4921 5.90647 16.6095 5.51042L16.6178 5.48473C16.8434 4.77308 17.5736 4.97206 18.1614 4.97183L21.6894 4.98805C22.2575 4.96948 22.8257 4.86711 23.391 4.81405L24.7938 4.72133L25.6792 4.70703C26.3169 4.71238 26.1624 5.0225 26.4763 5.07997C27.1538 5.20405 27.3812 4.9783 28.0136 4.97694L30.1758 4.97661C31.6092 4.97886 31.5656 5.47545 31.5692 6.64077L31.5756 8.96502C31.5906 9.44422 31.6727 9.93003 31.7408 10.4037L32.0257 12.4494C32.0584 12.7177 32.0442 12.9958 32.0698 13.266L32.2976 14.9886C32.3494 15.2875 32.3853 15.5923 32.4325 15.8926L33.5101 21.8666L33.8115 24.768C33.8409 25.0677 33.8332 25.3775 33.8544 25.6792L33.9986 27.9508L33.9974 31.1335L33.8111 35.0082L33.295 39.3935C33.2427 39.7538 33.2227 40.1366 33.1978 40.5004C33.1404 41.3413 32.8961 41.3654 32.1188 41.6505C30.7132 42.1659 29.2722 42.349 27.7818 42.3455C27.3001 42.3443 26.3565 42.4476 26.0652 41.9619L26.0452 41.9271C26.0309 41.9028 25.8203 40.5134 25.8089 40.4203L25.2052 34.9718C25.1215 34.0475 25.2027 33.2001 25.13 32.3213C25.0645 31.528 24.9112 30.7303 24.7998 29.9418L24.0574 24.6631C23.9284 23.9703 23.9396 24.4099 23.8921 24.8966ZM24.1106 6.00153L21.8547 6.21008C21.8736 6.37611 22.0836 7.35144 22.147 7.42002L23.2328 7.42203L24.9828 7.45981C25.0193 7.26814 25.3783 6.09673 25.3544 6.0005L24.1106 6.00153ZM17.8083 6.18823L17.8294 7.34975C17.89 8.7492 17.4185 9.68572 17.2708 11.0226L18.0989 10.2366L18.7781 9.59539C19.1353 9.24463 19.4729 8.888 19.4969 8.35583C19.5131 7.99723 19.4572 6.50816 19.2936 6.19273L17.8083 6.18823ZM28.7028 6.1918L28.6232 6.21645C28.4226 6.66477 28.7083 8.26653 28.8945 8.73097L29.0195 9.09411C29.3333 9.84739 29.9032 10.6477 30.6215 11.0623L30.6918 11.0894C30.7016 10.9406 30.6252 10.7458 30.603 10.5943C30.5235 10.0537 30.441 9.49827 30.4054 8.95348C30.3833 8.61444 30.4404 6.29633 30.4058 6.20305L28.7028 6.1918ZM20.5151 6.22302C20.5067 6.29305 20.5064 6.3365 20.5231 6.40447L20.657 7.15569C20.6903 7.29688 20.6804 7.45892 20.683 7.604C20.7193 9.55864 20.1017 9.93781 18.8241 11.1313C18.5005 11.4336 18.1962 11.7685 17.848 12.0426L17.2633 12.4655C16.9046 12.7254 17.0808 12.9681 17.0462 13.4593L16.7498 15.8793L15.8465 20.5668L15.4181 23.7925C15.3702 24.2787 15.3052 24.7756 15.2871 25.264L15.2954 32.5382C15.3003 32.7086 15.3414 32.8753 15.3489 33.0455L15.3787 34.3832C15.3878 34.5544 15.4275 34.7208 15.4369 34.8917L15.7044 37.9105C15.7336 38.1296 15.7388 38.3545 15.7812 38.5709L16.0157 40.3158C16.9981 40.9523 19.8375 41.3131 21.0102 41.0752C21.1491 40.2806 21.3911 39.5159 21.4692 38.7074L21.587 37.2425C21.643 36.6058 21.7246 35.9733 21.7414 35.3328C21.7679 34.3302 21.6913 33.3191 21.7692 32.3187L22.97 23.1449L23.1543 22.0902C23.2401 21.5131 23.2992 20.8605 23.4852 20.307C23.6719 19.7514 24.3762 19.8494 24.5626 20.3558L24.5723 20.3806C24.6912 20.6952 24.6834 21.0692 24.7509 21.3988L25.0681 23.353C25.1262 23.6576 25.1627 23.968 25.2135 24.2737L26.2033 31.2777C26.2511 31.6135 26.3273 32.0977 26.3155 32.4347C26.4355 33.4687 26.2946 34.4929 26.4422 35.6043L26.7791 38.325C26.8565 39.2576 26.8988 40.1806 27.1209 41.0938C29.2131 41.2568 30.035 40.91 31.9994 40.4809L32.6087 34.6989C32.6381 34.3877 32.6327 34.074 32.65 33.7621L32.7241 32.9973C32.7563 32.3356 32.8245 31.6845 32.8354 31.0225L32.8311 26.9026L32.5407 23.1993L31.0598 15.1431C30.9231 14.2323 30.9374 13.3957 30.8444 12.5197C30.5028 12.2915 30.1058 12.1607 29.7609 11.9354C27.8717 10.7011 27.3374 8.37045 27.4231 6.25236L26.5192 6.23647C26.4519 6.37358 26.4499 6.5187 26.413 6.6635C26.3051 7.08786 26.1773 7.49778 26.0119 7.90339C25.6424 8.80972 25.3869 8.55172 24.5596 8.57553L24.5623 16.1975C24.5624 16.6327 24.698 17.7093 23.8803 17.5168L23.8526 17.5104C23.3477 17.383 23.4333 16.8161 23.4328 16.4264L23.4302 9.9027C23.4301 9.72828 23.4607 8.71386 23.4109 8.64758L21.8136 8.60417C21.0454 8.55594 21.1006 8.24769 20.9512 7.48592L20.7955 6.7738C20.757 6.60228 20.7184 6.30448 20.568 6.20389L20.5151 6.22302Z" fill="black"/>
</svg>
