<svg width="48" height="48" viewBox="0 0 48 48" fill="none" xmlns="http://www.w3.org/2000/svg">
<path d="M24.5326 24.4474L24.0195 20.9389L20.322 42.1755C20.2423 42.7749 20.1008 43.3733 19.9844 43.9665C19.8104 44.8533 19.9472 45.4897 18.7758 45.2959L13.9177 44.4033C13.1353 44.2426 13.3368 43.62 13.4068 43.0121L15.2161 24.548L15.8651 16.6872C15.8954 16.2786 15.9281 16.1294 15.868 15.7146L15.6802 14.0739C15.6193 12.9696 15.6299 11.7599 15.7907 10.6641C15.9262 9.74054 16.2722 8.82611 16.689 7.99675L18.045 5.51748L17.0627 5.48823C16.8139 5.46873 16.4991 5.35309 16.3391 5.155L16.3184 5.1287C16.1873 4.96614 16.1827 4.78093 16.1765 4.57909L16.1716 3.97818C16.17 2.54645 16.892 2.62279 18.0962 2.62228L20.2512 2.61969L30.3125 2.6224C30.6304 2.62236 31.018 2.56556 31.325 2.63969C31.6738 2.7239 32.0666 3.10534 31.9514 3.49545C31.6895 4.38254 32.4184 5.48406 30.88 5.48945L29.9819 5.50159C30.1933 6.18053 30.6511 6.77982 30.9814 7.40598C31.2937 7.99811 31.6064 8.60153 31.8279 9.23411C32.3601 10.7541 32.4769 13.0661 32.2807 14.609L32.1221 15.6577C32.0433 16.1484 32.0745 16.3062 32.1145 16.8078L32.5313 22.1247L32.9416 26.5834C33.0099 27.1721 33.0372 27.7694 33.0983 28.3591L34.4961 42.2641C34.509 42.3979 34.5422 42.5293 34.5559 42.6637L34.5949 43.195C34.7098 44.1294 34.7448 44.2834 33.8234 44.435L29.2546 45.2973C28.8807 45.3715 28.3506 45.4631 28.2167 44.9706L24.5326 24.4474ZM22.5646 3.74596L20.7663 3.76223L20.7907 4.40743L25.5088 4.40914L27.1767 4.4128L27.1634 3.75199L23.0486 3.745C22.8929 3.74502 22.7179 3.7294 22.5646 3.74596ZM18.455 3.74868L17.3266 3.77138C17.3253 3.9798 17.3132 4.19469 17.3405 4.40154L18.5979 4.40914C18.9413 4.41147 19.3129 4.44372 19.6531 4.41049L19.6567 3.75865L18.455 3.74868ZM28.5765 3.7495L28.278 3.77413L28.2932 4.40755L30.5686 4.40914L30.8267 4.38278L30.8233 3.74872L28.5765 3.7495ZM19.1877 5.55803C18.4723 7.55884 17.289 8.66298 16.8836 10.9341C16.6872 12.0339 16.7182 13.1187 16.8311 14.2205L16.8671 14.8526C16.969 15.8904 17.086 16.9301 16.9042 17.9716L14.4768 43.3468L18.8264 44.17C18.8694 43.703 18.9997 43.2247 19.0901 42.7636L22.7697 21.8021L23.0149 20.1518C23.0502 19.9236 23.1192 19.7006 23.1515 19.471L23.3479 18.0736C23.3857 17.8077 23.4151 17.5247 23.473 17.2635C23.6034 16.6754 24.3902 16.6983 24.5194 17.2966C24.6754 18.0187 24.7291 18.7663 24.8557 19.4942L25.5492 23.6833C25.5819 23.8779 25.5886 24.0717 25.6361 24.2646L26.4289 28.863L29.1522 44.149L32.5315 43.5236C32.8396 43.4681 33.1821 43.4304 33.4702 43.3052C33.4433 42.4343 33.3043 41.554 33.2114 40.6872L31.2428 20.0857L31.1112 18.2459C31.0509 17.5026 30.9563 16.7437 30.9794 15.9977C30.9919 15.595 31.0784 15.1795 31.1184 14.7771C31.2424 13.5286 31.3454 12.1116 31.1107 10.8885C30.8893 9.73492 30.4299 8.70709 29.851 7.69262C29.4658 7.01767 29.0127 6.31797 28.7987 5.56586C28.6393 5.5674 28.4402 5.53084 28.2894 5.57879L28.2894 6.29692C28.2859 7.10757 27.6036 7.29756 27.2592 6.73801L27.2427 6.71228C27.1336 6.53012 27.1869 5.81397 27.1878 5.56825L24.5451 5.56947L24.5408 11.0886C24.5405 11.5132 24.6459 12.0664 24.094 12.1892L24.0631 12.1963C23.4985 12.3123 23.4555 11.7663 23.4556 11.3589L23.4553 6.13909C23.4553 5.94676 23.4678 5.74497 23.4444 5.55418L20.7661 5.56473L20.7681 6.12901C20.7699 7.36543 19.8032 7.17737 19.662 6.57395L19.6558 6.54967C19.5869 6.25886 19.6451 5.87636 19.6537 5.57495L19.1877 5.55803Z" fill="black"/>
</svg>
