<svg width="48" height="48" viewBox="0 0 48 48" fill="none" xmlns="http://www.w3.org/2000/svg">
<path d="M25.1488 41.2216L24.0146 33.3827C23.9947 33.6852 23.8809 34.214 23.8381 34.5551L22.9804 39.9492C22.8757 40.5505 22.9181 41.2698 22.6686 41.8223C22.2644 42.7173 21.5266 43.0727 20.6122 43.0773L15.2456 43.0788C14.231 43.078 13.4679 42.8711 13.1006 41.7424C13.0146 41.4782 13.0341 41.1887 13.0344 40.914L13.0277 36.7662L12.8406 32.556L12.6698 30.1701L12.5786 27.615V21.8775C12.5854 21.6885 12.623 21.504 12.6351 21.3159L12.6732 20.3674L13.7338 9.12333C13.8232 7.73161 12.6666 5.15798 15.0978 4.90772L32.574 4.89844C34.8639 4.90195 34.4142 6.89194 34.2761 8.50275C34.2627 8.65964 34.212 8.83261 34.226 8.98852L34.5025 12.1291L35.2529 19.6222C35.3005 20.2373 35.2957 20.9325 35.3638 21.5013C35.4913 22.5654 35.4306 23.6772 35.4314 24.7519L35.4224 27.5393C35.4146 27.829 35.3646 28.1182 35.3529 28.4085L35.1648 31.9017L35.0439 35.1841C35.031 35.477 34.9687 35.7667 34.9595 36.0588L34.9527 41.0543C34.9519 41.2234 34.9733 41.439 34.9186 41.5987C34.3742 43.1893 33.407 43.0769 32.0376 43.0784L27.7392 43.0793C26.4826 43.0785 25.3858 42.7043 25.153 41.2492L25.1488 41.2216ZM15.0074 6.07392C14.4122 6.28275 14.7553 8.04595 14.8633 8.47364L14.8818 8.54686L19.1425 8.78564L19.4683 8.78555L19.4573 8.24714C18.5598 7.85194 17.9117 7.28653 17.5663 6.34791C17.5304 6.25017 17.5191 6.14273 17.4365 6.07139L15.0074 6.07392ZM21.7109 6.07336C20.6053 6.33773 20.599 7.86 20.6974 8.79975L26.2798 8.79291L27.222 8.80073C27.2749 8.66995 27.2493 8.43919 27.2489 8.29477C27.2474 7.77867 27.2689 6.1403 26.4726 6.08044L21.7109 6.07336ZM30.4922 6.07012C30.0072 7.03453 29.6191 7.85189 28.5074 8.21452L28.4729 8.22558C28.4703 8.3715 28.43 8.66302 28.4882 8.78695L31.2245 8.71805L33.1023 8.51869L33.2228 7.18383C33.2495 6.87792 33.4133 6.09727 32.9179 6.07153L30.4922 6.07012ZM18.9083 6.07758L18.7547 6.12253C18.8069 6.44208 19.3453 6.86719 19.582 7.05703C19.6166 6.99895 19.6254 6.94308 19.6375 6.87778L19.9005 6.11691C19.57 6.07083 19.2412 6.07331 18.9083 6.07758ZM28.1051 6.10341C28.1395 6.363 28.2836 6.79528 28.3498 7.07358L28.7648 6.66464C28.9185 6.49556 29.0615 6.34153 29.1789 6.144C28.8262 6.1155 28.4587 6.07491 28.1051 6.10341ZM14.8437 9.6682C14.7904 9.86545 14.7929 10.0671 14.7773 10.2692L14.209 16.0212C14.1892 16.2322 14.152 16.416 14.1548 16.6326C14.758 16.545 15.4848 16.0519 15.8802 15.594C17.069 14.3169 17.3211 12.9646 17.4583 11.3001C17.4965 10.8378 17.5563 10.3843 17.56 9.9188C16.7671 9.8317 15.9177 9.92302 15.1406 9.75145C15.0493 9.7313 14.9328 9.67059 14.8437 9.6682ZM33.0817 9.71508C32.1806 9.88748 31.2427 9.91894 30.3268 9.91645C30.3258 10.6378 30.4699 12.4465 30.6938 13.0725L30.8734 13.6596C31.172 14.4217 31.5314 15.0564 32.0974 15.6531C32.5842 16.0945 33.1724 16.4941 33.8197 16.6505L33.0817 9.71508ZM19.1958 9.9578L18.7039 9.96314C18.5536 10.9236 18.6444 11.8955 18.4324 12.9126C18.0059 14.9577 16.6518 17.1971 14.5078 17.7672C14.3492 17.8094 14.1731 17.8028 14.0216 17.85L13.6911 22.7024L13.6895 27.0888C13.694 27.2966 13.7365 27.502 13.7417 27.7102L13.7913 29.8479C13.7986 30.0367 13.8333 30.224 13.8465 30.4125L13.8815 31.3453C13.8911 31.51 13.9242 31.6714 13.9356 31.8356L13.9837 33.1763C14.0196 33.8209 14.0432 34.4121 14.0673 35.0606C14.0748 35.2604 14.113 35.4562 14.1199 35.6569L14.13 36.7502C14.1375 36.9007 14.1763 37.0468 14.1838 37.1972L14.1974 40.2555C14.198 40.7781 13.9919 41.885 14.7773 41.9123L19.9465 41.9118C21.5062 41.9108 21.6034 41.7795 21.7813 40.3333L22.6387 34.8681L23.0608 31.2541L23.2586 27.3807L23.3434 26.4175L23.4276 22.7714C23.4331 21.6227 24.5079 21.929 24.5582 22.4788C24.5872 22.7958 24.5638 23.131 24.5704 23.4502L24.6651 26.7758C24.6742 26.963 24.7212 27.1452 24.7288 27.3295L24.7533 28.6873C24.7587 28.8315 24.7997 28.9659 24.808 29.1068L24.9374 31.219L25.3181 34.5929C25.369 34.8153 25.3821 35.0481 25.4119 35.2744L26.2164 40.5729C26.4014 41.8481 26.5753 41.9186 27.7298 41.9153L32.2807 41.9111C32.503 41.9108 32.7338 41.9198 32.9503 41.8624L33.2929 41.7626C33.3063 41.8132 33.3087 41.789 33.2873 41.8353C33.6209 41.7615 33.7778 41.7557 33.7838 41.3975L33.8448 35.621L33.9604 33.2426C33.9695 33.0639 34.0091 32.8928 34.0204 32.7156L34.1254 30.7529C34.1569 30.2267 34.0856 29.6524 34.1973 29.138C34.2467 28.9103 34.231 28.6326 34.2352 28.3984L34.2972 25.6212L34.2303 21.1385L33.9594 17.8833C33.8936 17.8369 33.4027 17.7457 33.2695 17.7042C30.6321 16.8812 29.6382 14.2535 29.3018 11.7541C29.2229 11.1685 29.1762 10.5679 29.1766 9.978L28.4562 9.96159C28.436 11.388 28.3678 12.8442 27.991 14.2268C27.5628 15.7984 26.7487 18.2775 25.0151 18.6278C23.5392 18.9261 23.7409 18.2356 23.7395 17.2519L23.9263 10.3069C23.9228 10.198 24.0754 10.0987 24.0733 10.0307C24.0703 9.92953 23.3598 9.95991 23.2361 9.95948L19.1958 9.9578ZM27.1153 9.94842L25.8464 9.9593C25.6101 9.95963 25.3594 9.94214 25.1253 9.97472L25.0314 13.6643C24.9728 14.6072 24.844 15.334 24.8482 16.2884L24.8523 16.9554C24.854 17.1183 24.7956 17.5021 25.0066 17.4084C25.8696 16.9028 26.0886 16.1773 26.4147 15.2828C27.1358 13.3048 27.2971 12.1153 27.3066 9.95414L27.1153 9.94842Z" fill="black"/>
<path d="M23.8432 7.97188C22.9418 7.99209 22.8144 7.09762 23.5561 6.75257C23.6549 6.74957 23.7762 6.73453 23.8712 6.76415L23.8944 6.77212C24.2124 6.87763 24.3936 7.28128 24.2514 7.59112L24.2385 7.6169C24.1518 7.8021 24.0251 7.88803 23.8432 7.97188Z" fill="black"/>
</svg>
