<svg width="48" height="48" viewBox="0 0 48 48" fill="none" xmlns="http://www.w3.org/2000/svg">
<path d="M24.0632 24.8675C24.0539 24.8258 24.0407 24.2711 24.0115 24.4421L20.6716 42.6566C20.3205 44.4433 18.7545 45.4968 16.9922 45.423C16.053 45.3837 15.06 44.9102 14.1298 44.7133C13.6457 44.6108 13.1507 44.5661 12.6623 44.4912L9.84577 43.9789C9.10941 43.8253 8.37699 43.6207 7.66411 43.382C6.62719 43.0348 6.7148 42.8939 6.74949 41.9431L7.44193 35.0419C8.05468 30.2298 8.82638 25.4324 9.89865 20.6985L13.0965 8.1683C13.2048 7.64508 13.2923 7.06617 13.3092 6.53203L13.3146 3.44037C13.3204 2.70273 13.8137 2.64859 14.391 2.6478L20.7959 2.64744C21.0413 2.64726 21.4545 2.71646 21.6754 2.59455C22.2443 2.28059 22.9031 2.15749 23.5427 2.09556C24.0231 1.99825 24.9417 2.22611 25.3804 2.40488C25.5651 2.48013 25.7715 2.64834 25.969 2.65648L33.5415 2.64847C34.8749 2.64919 34.6872 3.12259 34.6878 4.15587L34.6868 6.21549C34.6866 6.45577 34.6502 6.7651 34.7076 6.99661L35.516 10.8692C35.5245 10.9165 35.5305 10.9547 35.5469 11.0002L36.0781 12.9325C36.0866 12.9794 36.0928 13.0176 36.1089 13.0627L36.9214 15.8863C37.0161 16.3659 37.2273 16.8344 37.3013 17.3191C37.3534 17.6603 37.4709 18.2403 37.6102 18.5649C37.7023 18.7797 37.7204 19.0509 37.7816 19.2777L37.9638 20.0863C38.0372 20.4233 38.1166 20.7604 38.2046 21.0941L38.5789 22.8753C38.6315 23.0992 38.6695 23.3307 38.7121 23.557L38.8594 24.305C38.9436 24.752 38.9883 25.2088 39.0945 25.6527L39.8921 30.3643C39.9338 30.6667 39.9782 30.9686 40.0257 31.2703L40.2133 32.5515C40.2258 32.6508 40.2582 32.7464 40.2706 32.8459L41.0095 39.1686C41.081 39.8752 41.1228 40.577 41.1683 41.2855L41.2429 42.4211C41.2768 43.1508 40.7717 43.2485 40.196 43.4457C38.5316 44.0159 36.8029 44.1803 35.0913 44.5516L32.5782 45.1169C32.0455 45.2443 31.5023 45.4567 30.952 45.4746C29.2673 45.5293 27.8263 44.4905 27.3157 42.903C27.1511 42.3911 27.0872 41.8462 26.9855 41.3202L24.0632 24.8675ZM23.6624 3.45393C22.0861 3.58033 20.8936 4.61417 20.8826 6.22439L20.8793 7.07883L22.7927 7.21402C23.0704 7.23713 23.3547 7.21627 23.6271 7.27945L23.8698 7.32788L24.372 7.37845C24.5961 7.42027 24.8297 7.41863 25.0571 7.42214L26.0889 7.42697C26.1633 7.36153 26.1968 7.2661 26.2369 7.17736C27.0884 5.29791 25.6526 3.53423 23.7331 3.45503L23.6624 3.45393ZM14.7611 4.02638L14.6517 4.02497C14.6025 4.29076 14.6269 4.58654 14.6266 4.85775L14.6274 6.24999C14.8744 6.33938 15.1855 6.3608 15.446 6.41049C16.7904 6.66689 18.1486 6.90333 19.5168 6.99197L19.516 6.54216C19.5352 5.54114 19.6998 4.90777 20.1435 4.04095L14.7611 4.02638ZM27.2303 4.02327C27.246 4.1825 27.4154 4.42195 27.4867 4.57593C27.8246 5.30513 27.9544 6.40435 27.6436 7.14844L32.4748 6.38269C32.7376 6.33895 33.1225 6.30155 33.3586 6.18216L33.3486 4.04897C33.0962 4.01652 32.839 4.02645 32.585 4.02594L27.2303 4.02327ZM33.3653 7.59853L28.9753 8.3558C28.5413 8.41341 28.1045 8.51016 27.6671 8.53402L27.4778 9.41049C27.2954 10.3416 27.1466 11.2336 26.7686 12.1141C25.7469 14.4942 23.6364 15.737 21.1666 16.0542C19.6052 16.2548 19.6195 15.9251 19.6186 14.6562L19.6176 8.37699C18.6134 8.32195 17.5902 8.21044 16.5983 8.04038L14.5185 7.61874C14.4015 8.53913 14.2111 9.44963 13.9802 10.348L11.3549 20.308L9.65682 28.9339L8.71529 35.5488L8.04807 41.8592C8.04277 41.9403 8.02018 42.0478 8.04741 42.1242C8.38796 42.2611 8.74182 42.3314 9.09779 42.4141L10.9911 42.7855C11.1655 42.8149 11.3669 42.8871 11.5426 42.8759L11.9434 39.9128L13.5352 29.4936L14.8068 22.3644C14.8969 21.9085 14.9529 21.4342 15.0897 20.9892C15.304 20.2913 16.6809 20.222 16.2419 21.852C16.2065 21.9834 16.2027 22.1184 16.1805 22.252L15.426 26.6525L13.7902 36.5815L12.8184 43.1706C13.0503 43.2067 13.2866 43.2118 13.52 43.2355C14.6482 43.3504 15.7351 43.766 16.8291 44.0407C17.8311 44.2924 19.0679 43.5285 19.3019 42.5295L21.2318 33.2635L21.6939 30.7732L22.6798 23.9093L23.2353 19.2248C23.2918 18.7294 23.4631 18.0498 24.1396 18.2259C24.2862 18.264 24.4458 18.3678 24.524 18.5012L24.575 18.6095C24.6477 18.7489 24.6505 18.9183 24.668 19.0709L25.5421 25.641C25.5758 25.8421 25.5761 26.0502 25.6064 26.2525L27.4276 36.4695C27.5119 36.9263 27.5768 37.3892 27.668 37.8442L28.4536 42.0706C28.724 43.2285 29.6028 44.2003 30.8907 44.1045C31.415 44.0655 31.9056 43.8453 32.4159 43.7285L34.2188 43.3362C34.531 43.2703 34.8471 43.2203 35.1526 43.1262L33.3655 30.8501L31.7652 22.0541C31.7017 21.7476 31.5932 21.4068 31.613 21.0941C31.6615 20.325 32.7827 20.3628 32.9225 21.1494L34.8227 31.649L36.4503 42.8762C37.0673 42.808 39.4131 42.471 39.9073 42.0781C39.895 41.4484 39.8251 40.8225 39.7739 40.1956L39.475 37.1695L38.1304 27.6955L36.3821 19.0617L34.2975 11.4553L33.515 7.93416C33.4934 7.82456 33.4874 7.70053 33.4451 7.59764L33.3653 7.59853ZM20.9287 8.4728C20.93 8.62889 20.95 8.78977 20.9504 8.9468L20.9519 14.4316C20.9522 14.5003 20.9357 14.646 20.9664 14.7016C22.3812 14.5024 23.7016 14.0907 24.6563 12.9333C25.7527 11.6997 25.9466 10.2323 26.2883 8.68552L26.2607 8.69217C25.577 8.85155 23.2112 8.68481 22.4356 8.55844C21.9452 8.47856 21.4265 8.53524 20.9287 8.4728Z" fill="black"/>
</svg>
