<svg width="48" height="48" viewBox="0 0 48 48" fill="none" xmlns="http://www.w3.org/2000/svg">
<path d="M24.3144 22.9565L23.8797 19.1012L23.4894 23.3586L22.8724 29.3838L22.3666 37.5145L21.9466 43.0423C21.9218 43.3201 21.9373 43.6303 21.8561 43.8974L21.8447 43.9331C21.808 44.0514 21.7435 44.1627 21.6484 44.2434L21.6239 44.2634C21.4218 44.4298 21.0651 44.3481 20.8231 44.3482L14.7657 44.3579C14.0882 44.3476 14.1791 43.3556 14.1507 42.902L13.2969 30.7864C13.2874 30.6549 13.258 30.5283 13.25 30.3958L12.6798 20.7609L12.6526 19.1817L12.4984 16.153L12.4902 12.5935C12.5008 12.0508 12.5774 11.4957 12.6406 10.9566L13.4332 4.90468L13.5724 4.21829C13.6959 3.72414 13.9355 3.70246 14.4197 3.70331L18.9391 3.70512C19.2925 3.70522 19.5674 3.68513 19.9121 3.61719L20.0275 3.64909C20.2225 3.70223 20.4211 3.6955 20.6215 3.69847L33.263 3.7038C33.5105 3.70384 33.8377 3.66461 34.0739 3.73026L34.1018 3.73877C34.4314 3.83482 34.4516 4.31328 34.5006 4.59329L34.635 5.36377C34.764 6.20349 34.9223 7.11638 35.0223 7.9569L35.4452 12.1854C35.4649 12.4451 35.5055 12.6991 35.5155 12.9606L35.5243 15.4661C35.5203 16.2346 35.5066 16.7808 35.4413 17.533L35.2125 20.9064C35.1985 21.1304 35.1552 21.3471 35.1468 21.5738L35.1187 22.7349L34.9364 25.9683L34.5726 32.0377C34.5535 32.5591 34.5124 33.0866 34.4751 33.6074L33.754 43.4875C33.6779 44.2389 33.5889 44.3461 32.8774 44.3467L26.6106 44.3503C26.3731 44.34 26.2209 44.1774 26.1537 43.9531L26.1447 43.9219C26.0451 43.5935 26.081 43.1932 26.0513 42.848L25.9002 41.2144L25.3536 33.8138L25.121 30.2822L24.3981 23.7066C24.3742 23.4553 24.3605 23.2051 24.3144 22.9565ZM14.5338 4.76654L14.2004 6.93549L18.9084 6.9362L19.2639 6.9376L19.2415 4.77498L14.5338 4.76654ZM20.3256 4.76818L20.3118 6.91932L27.0557 6.93418C27.2827 6.93357 27.5256 6.91098 27.7504 6.9362L27.7681 5.37934C27.7679 5.1932 27.7949 4.95446 27.7572 4.7746L20.3256 4.76818ZM28.8162 4.76663C28.7642 4.94902 28.7797 5.14946 28.7792 5.33288L28.7778 6.32143C28.7777 6.48891 28.7406 6.7734 28.7896 6.92766L33.8389 6.92813L33.4711 4.77174L28.8162 4.76663ZM14.0897 7.99754C14.0462 8.10915 14.0425 8.21968 14.0259 8.33157L13.7388 10.4264C13.6304 11.342 13.5382 12.2476 13.5221 13.1714L13.5464 16.2328L13.6602 18.097L13.6789 20.2024C13.6908 20.4286 13.7524 20.6361 13.7625 20.8646L13.7853 22.0569C13.7927 22.2183 13.8317 22.3698 13.8401 22.5306L13.9543 24.9098C13.9709 25.1449 14.0197 25.3768 14.0338 25.6096L14.165 28.3461C14.1787 28.5364 14.2135 28.722 14.2233 28.9132L14.2531 29.8941C14.2622 30.0234 14.299 30.1479 14.3084 30.276L14.4113 31.9386L15.1563 42.2039C15.1907 42.5558 15.1489 42.9358 15.2157 43.2824L20.8847 43.2846L21.0272 41.4078L21.5024 34.7C21.5144 34.5336 21.5534 34.3746 21.5631 34.2065L21.6835 31.2025L22.4032 23.8706C22.6399 21.4385 22.7148 18.9749 23.4497 16.6233C21.6108 16.4881 19.8164 15.6367 19.3456 13.684C19.2419 13.2537 19.2416 12.861 19.2413 12.4221L19.2422 8.00729L14.0897 7.99754ZM20.3188 7.9951L20.3222 13.0077C20.3237 14.5401 21.6668 15.2132 22.9863 15.5071L22.9567 7.99473L20.3188 7.9951ZM23.9955 7.9951L23.9942 14.6181C23.9943 14.9417 23.953 15.3248 24.0469 15.6357C24.9509 15.6023 26.1655 15.3765 26.8293 14.7091C27.3029 14.2612 27.7383 13.5264 27.7614 12.8512L27.77 8.0057L23.9955 7.9951ZM28.8018 7.99801C28.7575 8.42495 28.7815 8.86491 28.7815 9.28904L28.7807 12.5858C28.7786 15.0534 26.8556 16.5561 24.4807 16.649C24.4507 16.756 24.4974 16.8638 24.5168 16.9683L24.6101 17.5659C24.632 17.6897 24.6338 17.8169 24.6558 17.9409L25.1732 21.3159C25.206 21.5451 25.209 21.7782 25.2566 22.0059L26.0984 29.5159C26.1579 29.8334 26.1361 30.1852 26.1671 30.5086L26.5369 35.9644C26.5452 36.1136 26.5778 36.2588 26.5898 36.4076L26.634 37.3003C26.6449 37.4604 26.6784 37.6202 26.6915 37.7808L27.0694 42.5386C27.0837 42.777 27.0601 43.0528 27.1234 43.2833L30.2095 43.2799L32.7356 43.283L33.282 36.1342L33.5111 32.1841C33.5189 32.0718 33.5438 31.964 33.5501 31.8514L34.0322 23.6595L34.2155 20.2027C34.2581 19.48 34.2893 18.6972 34.3542 17.9806C34.4801 16.5904 34.5333 15.2054 34.4966 13.809L34.3214 10.8565L34.0365 8.43427C34.0235 8.31662 34.0289 8.09452 33.9727 7.99899L28.8018 7.99801Z" fill="black"/>
</svg>
