<svg width="48" height="48" viewBox="0 0 48 48" fill="none" xmlns="http://www.w3.org/2000/svg">
<path d="M11.9319 31.6756L12.2771 27.2715C12.2997 26.9505 12.2766 26.5161 12.4091 26.2216C12.6483 25.6895 13.4383 25.8471 13.4497 26.4684C13.4538 26.6932 13.4161 26.9181 13.4016 27.1421L12.8466 34.4792L12.6176 37.9596C12.6087 38.1066 12.5757 38.2498 12.5678 38.3967L12.53 39.4332C12.5188 39.5747 12.4551 39.7473 12.4724 39.8851C13.0904 40.1455 13.7742 40.3095 14.4181 40.4993L15.5507 40.8467C16.8396 41.1949 21.8262 42.6636 22.2356 40.8344C22.3558 40.2973 22.3723 39.7173 22.4416 39.1704L23.3687 31.0778C23.4059 30.7504 23.3938 30.5044 23.3732 30.1795L22.7686 22.0138C22.7593 21.8684 22.7256 21.7313 22.7141 21.5865L22.6656 20.1028C22.663 19.7917 22.9853 19.5949 23.1452 19.3453C23.5693 18.6835 23.6256 18.1696 23.6263 17.4284L23.6243 10.2192C23.4729 10.1792 23.2787 10.2022 23.12 10.2019L18.4479 10.2053L18.1992 11.405C17.8517 13.1081 16.5534 14.3862 14.8024 14.6002C13.6787 14.7375 13.8966 14.2346 13.8768 15.6689L13.8437 17.3862C13.8361 17.6935 13.7821 17.9916 13.7689 18.2962L13.7495 20.2965C13.7444 20.5514 13.7011 20.8009 13.6952 21.0537L13.6882 22.2836C13.6867 22.679 13.6838 23.6278 12.974 23.3678C12.622 23.2388 12.5541 22.9194 12.555 22.5961L12.6653 18.6494L12.6911 16.0336C12.6975 15.87 12.7339 15.7104 12.7421 15.546L12.7849 14.35C12.7933 14.2338 12.8277 14.1257 12.8345 14.0071L13.0075 9.85777C13.0159 9.76655 13.0551 9.65363 13.0134 9.56945C12.4613 8.45429 11.8215 6.79009 12.6729 5.72466C13.0131 5.29895 13.5137 5.04104 14.0508 4.97673C14.4937 4.90112 15.0275 5.00659 15.4687 5.05145L20.1629 5.42532C20.6787 5.4617 21.1854 5.5397 21.7042 5.55685L26.4519 5.5539C26.6469 5.55099 26.8763 5.56355 27.0654 5.51424L27.3446 5.45471C27.7632 5.3484 28.2271 5.37076 28.6572 5.3507L33.2421 4.97152C34.0942 4.92905 34.835 5.14679 35.3062 5.93785C35.9553 7.02751 35.1617 8.39485 34.8877 9.50827C34.6894 10.3139 34.9445 11.4975 34.9568 12.3644L34.9967 13.9235C35.01 14.0507 35.0427 14.1667 35.0474 14.2969L35.1241 16.608L35.4092 21.6712L35.5299 24.4162C35.5387 24.5685 35.5693 24.7162 35.5814 24.868L36.009 31.4176C36.0231 31.5552 36.0505 31.6899 36.0606 31.8286L36.3844 36.6392C36.3965 36.7819 36.4266 36.9225 36.4359 37.066L36.471 37.8395C36.4839 37.9914 36.5192 38.14 36.5292 38.2933L36.6602 40.1404C36.664 40.2273 36.6854 40.4359 36.6372 40.5104L36.5525 40.63C36.4329 40.7718 36.1711 40.8515 35.9999 40.9223L34.3162 41.5426C33.8694 41.7024 33.433 41.8903 32.9785 42.0287L30.4527 42.7135C28.6077 43.1306 26.1847 43.3532 24.9257 41.6278C24.2546 40.7081 24.2826 39.5311 24.1614 38.4481L23.8888 36.1321C23.837 37.2531 23.6911 38.3854 23.5406 39.4964C23.357 40.8519 23.4175 42.0584 21.914 42.6558C20.8085 43.0951 19.5204 42.9264 18.3796 42.727L16.8199 42.3771L12.0937 40.971C11.4134 40.7243 11.3311 40.6507 11.3529 39.9657L11.4256 38.8473C11.4463 38.5235 11.4224 38.1509 11.4909 37.8368C11.5914 37.3762 11.5312 36.8581 11.5679 36.3865L11.9319 31.6756ZM14.1846 6.12329L14.0622 6.14879C13.8064 6.20523 13.6308 6.32513 13.478 6.5387L13.4603 6.56288C13.2814 6.81915 13.3248 7.29038 13.444 7.56901L13.6288 8.05866C13.768 8.35918 13.8374 8.74107 14.0038 9.01998C14.1904 9.05054 14.3864 9.02926 14.5749 9.02584L18.7382 9.0234L19.5294 9.02457L19.5278 6.53837L14.6322 6.15671C14.4785 6.14321 14.3416 6.10838 14.1846 6.12329ZM33.5349 6.12568L28.3187 6.51479L28.3168 8.16765C28.3176 8.44477 28.2878 8.75391 28.3381 9.02523L29.2382 9.0234L33.4569 9.02476C33.5705 9.02513 33.7051 9.04299 33.8156 9.01726C33.9795 8.5052 34.1752 8.00391 34.3122 7.48332C34.4737 6.86987 34.3599 5.96649 33.5349 6.12568ZM20.6546 6.6676L20.6645 8.03898C20.6631 8.35951 20.6192 8.70666 20.6518 9.02279L27.1862 9.02077L27.1817 6.6796L22.2854 6.73351C22.1212 6.73323 20.6626 6.66512 20.6546 6.6676ZM14.6626 10.2017L14.1391 10.2188L13.9986 13.4779C14.7535 13.4732 15.4496 13.3572 16.0574 12.8757C16.876 12.1213 17.1018 11.2962 17.3033 10.2131C17.0279 10.1741 16.7127 10.2014 16.4334 10.2014L14.6626 10.2017ZM24.7756 10.2042C24.6983 10.8177 24.7433 11.4839 24.7426 12.1013L24.7394 16.2746C24.7389 17.1373 24.7961 18.0256 24.6718 18.8806C25.0205 18.7411 25.3491 18.5086 25.5741 18.203C26.0088 17.6511 26.1586 16.9443 26.1707 16.2596L26.1811 14.9176C26.1917 14.4979 26.2622 14.0741 26.287 13.6539L26.3093 11.5733C26.3101 11.1246 26.3424 10.6498 26.3028 10.2039L24.7756 10.2042ZM27.5717 10.2017L27.4519 10.2117L27.4413 13.6276C27.4339 14.0569 27.3594 14.4843 27.346 14.9162L27.2854 16.1903C27.2065 17.7411 27.0913 18.8742 25.4983 19.7458C24.9504 20.0455 24.4216 20.1139 23.8146 20.188L23.9295 22.734C23.9416 22.8823 23.9788 23.0272 23.989 23.1759L24.0055 23.9874C24.0131 24.1176 24.0488 24.2413 24.0589 24.3714L24.4508 30.3346L24.6645 32.9528L25.3509 38.9535C25.4093 39.3507 25.402 39.7672 25.4942 40.1601C25.8138 41.5217 26.9021 41.8386 28.0995 41.8342C28.4221 41.833 28.7255 41.8288 29.044 41.7676L31.2867 41.3296L35.5344 39.8344L34.209 20.9604L33.9409 14.6195C32.3843 14.6107 30.9733 14.1367 30.1408 12.7262C29.7655 12.0904 29.6451 11.396 29.4928 10.6839C29.4657 10.5574 29.4604 10.3194 29.3949 10.2151L27.5717 10.2017ZM31.0873 10.2017L30.5403 10.2373C30.5862 10.4889 30.6194 10.7571 30.6968 11.0009L30.9498 11.7943C31.2647 12.6049 32.0832 13.2056 32.9135 13.3937L33.4131 13.467L33.8612 13.4785L33.736 10.2099L31.0873 10.2017Z" fill="black"/>
<path d="M24.0982 8.59651C23.159 8.73188 22.9511 7.56141 23.8047 7.2924C24.666 7.22452 24.964 8.21133 24.0982 8.59651Z" fill="black"/>
</svg>
