<svg width="48" height="48" viewBox="0 0 48 48" fill="none" xmlns="http://www.w3.org/2000/svg">
<path d="M24.2174 20.7217L23.9141 19.1721C23.8728 19.3348 23.8681 19.5017 23.8452 19.6676L22.4216 29.3688L21.6636 36.1291L21.2355 40.8986L20.9061 44.082C20.8451 44.9143 20.9137 45.3938 19.9618 45.3582C19.3278 45.3344 18.6948 45.2423 18.0634 45.1834C17.4935 45.1302 15.5926 45.2303 15.4601 44.5606L15.4545 44.528C15.4185 44.325 15.4787 44.0909 15.4829 43.8827L15.4894 42.3868C15.4909 42.1056 15.4813 41.8129 15.5202 41.5343L15.5404 41.3674C15.5794 41.0345 15.563 40.692 15.564 40.3567L15.5713 38.2712C15.5773 38.0771 15.6335 37.8888 15.6393 37.6994L15.6541 31.9708C15.6465 31.5962 15.5831 31.2309 15.5724 30.8614L15.5608 29.4091L15.3607 25.4321C15.3528 25.2932 15.3227 25.1586 15.3148 25.0178L15.1296 21.8114C15.0878 21.0913 15.0166 20.3198 15.009 19.6076L15.082 14.733C15.2562 12.238 15.6494 9.77405 16.3567 7.37199C16.4879 6.92612 16.9011 5.88905 16.8811 5.49544L16.8762 4.45072C16.8759 3.8529 16.8442 3.20113 17.0061 2.61947C17.2243 1.8353 17.7126 1.87672 18.361 1.87753L22.5819 1.82031L26.279 1.82412C26.5536 1.82825 26.8222 1.87384 27.0969 1.875L30.5857 1.88011C30.9411 1.88293 31.2463 1.92088 31.4233 2.28822L31.4415 2.33143C31.6145 2.72971 31.4136 4.03154 31.3032 4.52954L31.1747 5.06269C31.124 5.24358 31.037 5.43118 31.0719 5.62041L31.0846 5.69879C31.112 5.93133 31.1556 6.22918 31.233 6.45127L31.9831 9.14433C32.1695 9.66249 32.216 10.2148 32.3444 10.7463L32.8513 13.8986L32.9168 14.9393C32.9293 15.1149 32.9632 15.2858 32.9705 15.4631L32.9723 19.3077C32.9624 19.5965 32.9079 19.8822 32.8973 20.1679L32.8645 21.7311C32.858 21.8876 32.8322 22.0403 32.8205 22.1955L32.6818 25.07C32.6654 25.4095 32.6209 26.2769 32.5665 26.5171C32.5227 26.7111 32.5264 26.919 32.5219 27.1169L32.4153 30.0626C32.3972 30.3239 32.3364 30.5784 32.3285 30.8407L32.3273 37.9524C32.334 38.3055 32.4119 38.6452 32.4256 38.9965L32.5082 43.5368C32.5363 44.5311 32.8769 44.9219 31.6524 44.9934C31.2442 45.0173 30.8255 45.0788 30.4171 45.1181L28.5235 45.2808C27.0715 45.3848 27.2212 45.2344 27.0822 43.9718L25.4883 28.9858L24.2174 20.7217ZM23.1839 2.92569L18.0721 3.013C17.9177 3.22244 17.9606 4.72093 18.0024 5.05913C18.6132 5.09785 19.2086 5.22033 19.8083 5.33565L21.8204 5.65665C22.2302 5.71688 22.6045 5.74257 23.0224 5.74374L25.1457 5.62712C25.6115 5.59904 26.0802 5.5224 26.5436 5.46873L28.5025 5.23369C28.996 5.16123 29.506 5.04502 30.0048 5.03518C30.2745 4.42506 30.3778 3.61138 30.3877 2.94299C29.8747 2.88316 29.3103 2.92578 28.7905 2.92513L23.8526 2.91925C23.6458 2.9191 23.383 2.88971 23.1839 2.92569ZM29.9709 6.15254L25.2417 6.75605C25.1901 6.88918 25.2237 7.15716 25.2236 7.30641C25.2225 8.60176 25.2194 8.88516 24.5722 10.0409C24.1204 10.8478 23.8227 12.4032 24.0236 13.3371C24.1177 13.7749 24.1685 14.2211 24.2964 14.6529C24.3465 14.8219 24.483 14.9806 24.5097 15.1525C24.5412 15.356 24.5429 15.5689 24.5705 15.7736L24.7988 17.4846C24.8763 17.9937 24.9616 18.4993 25.0416 19.0074L25.3603 20.7893C25.3843 20.9086 25.3843 21.0329 25.4064 21.1525L26.2988 26.7072C26.3216 26.8583 26.3193 27.0137 26.3442 27.1643L27.0519 32.6421L28.0089 42.3575L28.2001 44.1971L31.4222 43.8631C31.3786 43.3966 31.4097 42.9225 31.395 42.4544L31.3149 39.3211L31.2392 30.5158C31.246 30.2012 31.306 29.8877 31.3148 29.5723L31.3254 28.0314C31.3303 27.8396 31.3736 27.6548 31.3853 27.464L31.6751 23.0158L31.7165 21.8701C31.7312 21.637 31.7702 21.4076 31.7776 21.1732L31.8822 19.0053L31.8978 17.0976C31.8977 16.4918 31.9171 15.8764 31.8759 15.2718L31.7145 13.7883C31.5515 12.4028 31.3236 11.0336 30.9815 9.67988C30.6834 8.50013 30.2921 7.33927 30.0385 6.14944L29.9709 6.15254ZM18.3616 6.19248L17.7668 6.47087C17.8207 6.92302 17.6542 6.97824 17.5141 7.37583C16.9051 9.10369 16.5076 11.569 16.3135 13.3596L16.2011 14.5775C16.1758 15.1532 16.1269 15.7231 16.1099 16.2912L16.1057 17.8581C16.1076 18.6758 16.1787 19.4025 16.1926 20.2077L16.2275 21.2484C16.2426 21.6789 16.2757 22.9718 16.3496 23.2572C16.3801 23.3753 16.3755 23.5197 16.3827 23.6422L16.6008 27.9406C16.6157 28.1685 16.6633 28.3922 16.672 28.6207L16.691 30.5694C16.6989 30.8805 16.7454 31.1923 16.7522 31.5077L16.7543 37.4374L16.5968 41.6694L16.581 43.9351C16.9212 43.9964 17.266 43.9749 17.6088 44.0058L19.4765 44.187C19.5878 44.1947 19.7075 44.2168 19.8184 44.2081L19.9951 42.0649L20.567 35.965L21.5056 27.8172L22.4029 21.8908L23.2773 15.6073C23.3192 15.3272 23.3386 15.2128 23.2663 14.9322L23.1175 14.3251C22.774 12.8152 22.7266 11.0935 23.4995 9.69521C23.9678 8.84808 24.1206 8.73732 24.1251 7.7799L24.1207 6.84526C23.5086 6.89358 22.3686 6.93005 21.778 6.80752L18.3616 6.19248Z" fill="black"/>
<path d="M24.3112 5.06405C24.013 5.07394 23.7043 5.00213 23.6248 4.66706L23.6191 4.64068C23.5276 4.27349 23.686 3.93536 24.0611 3.84604C24.8889 3.82565 24.9649 4.74104 24.3112 5.06405Z" fill="black"/>
</svg>
