<svg width="48" height="48" viewBox="0 0 48 48" fill="none" xmlns="http://www.w3.org/2000/svg">
<path d="M32.1585 42.3159C32.1744 42.951 31.4411 42.9856 30.956 43.0446C29.5764 43.2125 27.5055 43.189 26.1686 42.9036L24.8654 42.5622C24.4253 42.47 23.6353 42.4319 23.1888 42.5742C21.2225 43.2008 19.1748 43.2895 17.1636 42.8681C16.3866 42.7053 15.7622 42.4959 15.6614 41.6054C15.1675 41.2343 14.2987 40.7861 13.6526 40.7623C13.3791 40.7523 13.0176 40.81 12.7633 40.7035L12.6117 40.6371C12.4389 40.5484 12.2693 40.3729 12.2105 40.1848L12.2019 40.1557C12.0352 39.6019 12.3413 38.1966 12.4597 37.6442L13.301 34.5515L13.7463 32.7093L14.2524 29.6118C14.3615 28.7592 14.4117 27.9003 14.5701 27.0537C14.8656 25.4744 15.9442 22.661 16.8687 21.2992C17.0626 21.0137 17.0512 21.115 17.0762 20.759L17.1491 20.0067L17.1484 17.2272L16.8585 14.1638C16.7318 13.2308 16.5822 12.2617 16.3368 11.3517C16.147 10.6479 15.8633 9.95493 15.7349 9.23872C15.6741 8.89996 15.6284 6.84824 15.7346 6.50774L15.7476 6.46902C15.8325 6.19588 16.007 5.98879 16.2928 5.90633L19.1298 5.35279C19.4477 5.27887 19.7843 5.47251 19.9473 5.73918L19.9633 5.7659C20.1407 6.04518 20.1486 6.56146 20.2484 6.8909C20.9024 9.04972 23.5127 10.201 25.5965 9.26802C26.8002 8.72905 27.7554 7.55587 27.9804 6.24726C28.2217 4.84387 29.4098 5.43754 30.3634 5.61365C31.4882 5.82144 32.2929 5.60854 32.2979 6.99669L32.299 7.62782C32.2995 9.1334 32.1306 9.63482 31.7839 11.0862L31.4311 12.7142C31.1386 14.2378 30.909 16.1502 30.844 17.719L30.8342 19.414C30.8329 20.0103 30.7072 20.7113 31.0666 21.1875C31.4556 21.7027 32.0041 22.8513 32.2628 23.5017L32.9835 25.4748C33.0316 25.6961 33.1365 25.9109 33.1757 26.1339L34.4875 32.6488C34.5258 32.8696 34.6252 33.0808 34.6693 33.305L34.8584 33.9818C34.9023 34.203 35.0023 34.4167 35.0463 34.6369L35.5154 36.4898L36.1057 39.6182C36.1431 39.7756 36.17 39.9529 36.1072 40.1075L36.0944 40.137C35.9721 40.4277 35.7337 40.6843 35.4106 40.7394L35.3791 40.7444C35.088 40.7921 34.7685 40.7226 34.4673 40.7483C33.5511 40.8266 32.8267 41.3095 32.0598 41.7641C32.1098 41.9496 32.1489 42.1233 32.1585 42.3159ZM29.3228 6.93337C29.2145 7.25774 29.1309 7.58385 28.9908 7.89772C27.8789 10.389 24.9523 11.72 22.3537 10.8401C20.6256 10.255 19.1054 8.79051 18.7285 6.96505L17.8043 7.14365C17.6234 7.17313 17.3385 7.16366 17.1781 7.2344C16.9904 8.9736 17.3914 9.33786 17.7291 10.8569L18.1551 12.7729C18.3584 13.9126 18.5682 15.5974 18.5636 16.7747L18.6248 18.7144C18.6255 19.3591 18.627 19.9914 18.5673 20.6341C18.6382 20.677 28.3943 20.6392 29.4124 20.6467L29.4092 20.6265C29.3568 20.2808 29.3653 19.9266 29.3647 19.5779L29.3713 18.2759L29.691 14.3596C29.7606 13.7554 29.827 13.143 29.9475 12.5463L30.3154 10.9198C30.6362 9.71141 31.0087 8.49172 30.8344 7.22399L29.3228 6.93337ZM18.0817 22.1526L17.2122 23.9155C16.4407 25.5149 15.9468 27.1886 15.8083 28.9568L15.2229 32.9199L14.1684 36.8583C13.9454 37.6108 13.751 38.4701 13.6983 39.2498L14.4793 39.392C14.6973 39.4423 14.9112 39.5231 15.1239 39.5923C15.35 39.6723 15.5572 39.7607 15.7674 39.8758L17.2246 32.68L18.2383 26.4026L18.8122 23.6443C18.9359 23.1565 19.06 22.6254 19.2632 22.165L18.0817 22.1526ZM20.7766 22.1525C20.6818 22.6668 20.4983 23.16 20.3595 23.6623L19.9712 25.3714L18.2437 35.4433L17.6952 37.9807C17.3972 39.2614 17.142 39.9922 17.1362 41.3132C17.3627 41.4301 17.6012 41.4365 17.8475 41.4701C19.1216 41.6443 20.9541 41.6892 22.1731 41.3085C23.0686 41.0289 24.033 40.9317 24.9652 41.0574C25.4729 41.1259 25.9266 41.3427 26.426 41.4362C27.498 41.6369 29.359 41.7111 30.5023 41.6166L30.0239 37.7346C29.8006 35.3633 29.62 32.9331 28.9718 30.6321C28.8798 30.3609 28.7317 30.0235 28.8457 29.7425L28.8623 29.7008C29.0167 29.3166 29.4126 29.0952 29.8095 29.2581C30.3561 29.4824 30.5601 30.612 30.6675 31.1604L30.8998 32.2704L31.3494 35.7901L31.731 39.8557C31.7434 39.9785 31.7427 40.0871 31.7732 40.2098C32.6732 39.6618 33.5125 39.3493 34.5542 39.2492L33.7306 35.3923L32.7575 31.8235L32.0498 27.8973C31.7198 26.2014 31.1821 24.6243 30.4053 23.0816L30.0823 22.4738C30.0263 22.3655 30.0045 22.2273 29.9074 22.1503L20.7766 22.1525Z" fill="black"/>
</svg>
