<svg width="48" height="48" viewBox="0 0 48 48" fill="none" xmlns="http://www.w3.org/2000/svg">
<path d="M32.7457 42.5316C32.3402 42.4323 31.987 42.1766 31.5827 42.0882C30.8047 41.9182 30.4944 42.4707 29.9803 42.8876C29.3064 43.4342 28.1507 43.6268 27.422 43.0996C27.182 42.926 26.9707 42.6881 26.6993 42.5618C25.6622 42.0793 24.6952 44.3335 22.5002 42.8962C22.2797 42.7519 22.0728 42.5853 21.8113 42.5204C20.8946 42.2933 20.5116 43.7858 18.9551 43.3493L18.9142 43.3373C18.1816 43.1297 17.9752 42.766 17.4621 42.3339L17.4259 42.3036C16.707 41.6957 15.9184 42.3266 15.2015 42.5291C14.3386 42.7729 13.0781 42.3098 12.8418 41.3668L12.8353 41.3395C11.6364 41.2207 10.2498 40.8948 9.87231 39.571C9.6288 38.717 10.0319 37.997 10.3221 37.2044L13.7576 28.3264C15.0513 25.2109 15.812 23.6938 17.965 21.0994L18.8946 19.9637C20.0804 18.463 20.3864 16.7871 19.1226 15.1478C18.9562 14.9319 18.7385 14.7503 18.5509 14.5526C17.2188 13.1482 17.2978 11.0139 18.5319 9.57941L17.3934 5.41489C17.2774 5.00895 17.5098 4.68433 17.8988 4.57396C18.0447 4.55413 18.2128 4.562 18.3467 4.62953C18.8855 4.90124 19.3231 7.75433 19.609 8.53738C19.8039 9.07109 19.5776 8.90689 20.1564 8.95245C21.3941 9.05 23.0527 9.97011 23.9841 10.8082C25.1495 9.90064 26.7185 8.92419 28.2577 8.93014C28.2686 8.93019 28.2827 8.93797 28.2905 8.93028C28.3028 8.91824 29.1644 5.38433 29.3799 4.90245C29.4966 4.6414 29.7869 4.53839 30.0581 4.58581L30.0939 4.59241C30.3032 4.62654 30.4684 4.73999 30.5512 4.94445L30.5639 4.98036C30.6125 5.08986 30.6391 5.1823 30.6186 5.30445L30.6135 5.33192C30.5842 5.50081 30.5274 5.65981 30.4835 5.82495L29.4927 9.41806C29.4441 9.61002 29.5446 9.64245 29.6523 9.79475C30.0643 10.3775 30.283 10.8789 30.3815 11.578C30.7497 14.1936 28.781 14.5578 28.2396 16.2754C27.8065 17.6495 28.1855 18.7389 29.0221 19.8249L30.5191 21.6794C31.4809 22.865 32.5742 24.4675 33.199 25.8857L34.0433 27.8142L38.165 38.603C38.1838 38.662 38.1982 38.7167 38.2063 38.7782L38.2105 38.8124C38.3845 40.1397 37.1225 41.0771 35.9276 41.2408L35.3785 41.29C35.0301 41.3111 35.166 41.3793 34.9871 41.6782C34.5164 42.4652 33.6077 42.6811 32.7457 42.5316ZM28.0138 10.2489C26.9428 10.4496 25.8605 11.0271 25.0113 11.6993C23.8641 12.6073 24.2356 12.6538 22.9524 11.6687C22.1187 11.0287 20.961 10.3211 19.913 10.2566C19.5382 10.3961 19.205 10.8566 19.0491 11.214L19.0257 11.2733C18.8283 11.7724 18.8403 12.3795 19.0442 12.8789L19.0595 12.9133C19.5455 14.0613 20.6054 14.3205 21.0631 16.078C21.1742 16.5048 21.2377 17.0366 21.2389 17.4808C21.2271 18.5025 20.9188 18.8447 20.7375 19.6512L27.2965 19.6495C26.5262 17.9086 26.5145 15.9538 27.7598 14.3999C28.3067 13.7175 28.9847 13.272 29.0879 12.328C29.1741 11.5397 28.8462 10.661 28.1369 10.2454L28.0138 10.2489ZM19.888 20.9045C17.8618 23.3943 16.7708 24.5709 15.4694 27.6327L11.4517 37.9943C10.96 39.3088 10.8276 39.5452 12.4636 39.9136L12.8783 39.973C12.9597 39.9862 13.0602 40.0222 13.141 40.0144L16.4536 30.3453C17.3773 27.4767 18.2238 25.0828 19.9276 22.5803C20.3048 22.0265 20.7377 21.5 21.0961 20.9352C20.7195 20.8875 20.2667 20.8699 19.888 20.9045ZM27.0378 20.9036C27.174 21.1734 27.3787 21.4178 27.544 21.6763C28.5661 23.2747 29.5258 24.9691 30.2245 26.7353L34.6332 39.4488C34.7132 39.6227 34.7541 39.8297 34.8634 39.9842C35.3284 40.0011 36.1073 39.8295 36.5182 39.6351C37.1936 39.1287 36.7141 38.467 36.4828 37.851L32.7632 28.1892L31.811 26.1252C31.3098 25.1037 30.693 24.0832 29.9962 23.1829L28.1196 20.9001L27.0378 20.9036ZM22.9468 21.0116C21.6373 22.1747 20.1046 24.6719 19.359 26.2681C18.7317 27.6111 18.2913 29.0189 17.8274 30.4222L14.2039 40.9921C14.251 41.4795 15.1683 41.1095 15.3926 41.0038C16.4652 40.5503 17.598 40.6358 18.4786 41.4191C18.9338 41.824 18.9824 42.1077 19.6578 42.0196C19.7201 41.2745 19.6546 40.5204 19.7097 39.7733L20.5057 32.1077L21.4719 26.2968L22.2928 23.162L22.9468 21.0116ZM25.3698 21.0116L25.3217 21.0585C25.3242 21.2552 25.429 21.4905 25.4714 21.6861L26.2994 26.1444C26.3227 26.2721 26.3268 26.4044 26.3511 26.5308L27.0487 30.4569C27.0759 30.5966 27.0789 30.7409 27.105 30.8803L27.3338 32.1858L28.188 38.7212L28.234 39.4067C28.2953 40.0577 28.261 41.7304 28.3947 42.0393C29.1463 42.4446 29.9552 39.836 32.6379 41.0385L32.7773 41.1045C33.0904 41.2506 33.2619 41.2885 33.5969 41.1631L33.791 41.0846C33.6337 40.4998 33.3875 39.9381 33.1784 39.3707L29.4917 28.6834C28.8649 26.8541 28.2755 25.5655 27.2907 23.8617L25.8955 21.618C25.7613 21.4067 25.6488 21.2043 25.465 21.0304L25.3698 21.0116ZM24.1639 21.7737C23.2556 24.0744 22.6157 26.9415 22.2247 29.3598L21.2828 36.7147L21.0629 39.6504C21.051 39.8533 21.0099 40.0516 20.995 40.2538L20.9643 41.2692L21.2283 41.2006C22.6347 40.8375 22.8804 41.9476 23.9005 42.0119C24.5472 41.9975 24.8377 41.543 25.383 41.342L25.6055 41.259C26.0002 41.1107 26.6167 41.1231 26.9985 41.2947L27.0203 41.3049C26.9916 40.9432 27.0057 40.5778 26.9914 40.2152L26.3474 34.6185L24.6447 24.2926C24.493 23.453 24.2722 22.6211 24.1639 21.7737Z" fill="black"/>
</svg>
