<svg width="48" height="48" viewBox="0 0 48 48" fill="none" xmlns="http://www.w3.org/2000/svg">
<path d="M12.8433 44.3494L12.088 44.0038C11.7541 43.8461 11.3166 43.6722 11.2508 43.2532L11.2459 43.2187C11.1947 42.9192 11.2838 42.5956 11.3291 42.2985L11.4329 41.496C12.1064 36.2868 13.7731 30.586 15.6418 25.726L17.5274 21.0299C17.601 20.8652 17.7257 20.6615 17.7488 20.4843C17.9591 18.8739 17.9055 15.9827 17.2518 14.5881C17.0801 14.2219 16.8582 13.8885 16.6638 13.5351C16.1517 12.6038 15.8669 11.5553 15.866 10.4952L15.7798 7.00882C15.7612 6.43836 15.7911 5.85931 15.7115 5.2924C15.6665 4.97122 15.6218 3.5764 15.694 3.23431C16.1332 1.15248 19.1811 1.15711 19.494 2.79649C19.5318 2.99427 19.5615 3.13864 19.5619 3.34908L19.5667 7.07632C20.6729 7.30386 21.5933 7.63732 22.3057 8.60122C22.5604 8.94575 22.7896 9.29201 23.1836 9.48997C23.767 9.78317 24.5158 9.75471 25.0457 9.35773C25.3497 9.13006 25.5315 8.77667 25.7689 8.48773C26.4702 7.63428 27.3671 7.25628 28.4169 7.08036C28.4641 6.75092 28.4243 6.35937 28.4245 6.02412L28.425 3.64868C28.4262 2.69232 28.4475 1.68306 29.7101 1.48208C30.0598 1.44328 30.4165 1.48431 30.7499 1.59408L30.9112 1.65073C32.6527 2.36565 32.332 3.99769 32.258 5.48056L32.228 6.51556C32.2123 6.74567 32.171 6.97634 32.1627 7.20697L32.1207 9.52686C32.1213 10.8325 32.1197 11.1706 31.798 12.4632C31.5994 13.2612 31.0307 13.9358 30.6991 14.6777C30.1077 16.0011 30.1629 17.5138 30.1648 18.9319L30.1757 19.7889C30.1862 20.0458 30.2048 20.3067 30.2802 20.5546L32.6 26.4726L34.4834 32.0358C34.5061 32.1458 34.55 32.2459 34.5742 32.3554L34.9515 33.6779C35.0007 33.9162 35.0909 34.1464 35.1427 34.3877L35.3483 35.1492C35.5806 36.3079 35.8838 37.4397 36.0879 38.6066L36.6407 42.6679C36.6631 42.9568 36.7344 43.3604 36.6692 43.6379L36.6598 43.6757C36.4988 44.3554 34.1359 44.7809 33.5059 44.8754C32.7514 44.9885 32.0147 45.0293 31.2648 44.8732C29.8917 44.5874 29.2222 44.9046 28.1027 45.5648C26.0242 46.7905 22.0977 46.7761 20.0741 45.6487C19.8959 45.5494 19.7809 45.4002 19.6338 45.2646C19.1224 44.7932 18.0689 44.5995 17.4217 44.7357C15.8721 45.0617 14.3187 44.998 12.8433 44.3494ZM29.8518 2.96478L29.8254 6.65253C29.81 7.43 29.8044 7.10187 30.4354 7.45315C30.4966 7.48728 30.6871 7.62645 30.7439 7.61614L30.7498 7.51165L30.8707 4.88534C30.8942 4.3503 31.0819 3.67967 30.6756 3.2427C30.4861 3.03888 30.1314 2.90626 29.8518 2.96478ZM17.6388 3.07568C16.9558 3.24345 17.1045 3.73084 17.1183 4.25351L17.2221 6.61386C17.2426 6.94597 17.2068 7.28557 17.2467 7.61534L17.5062 7.47533C17.7232 7.3452 17.915 7.27737 18.1612 7.22595L18.1638 4.53248C18.1637 4.06504 18.1993 3.56457 18.1448 3.1026C17.9706 3.06901 17.8157 3.06615 17.6388 3.07568ZM19.0719 8.54112C17.2812 8.69492 17.0941 10.1973 17.4476 11.6586L17.5828 12.0937C17.8411 12.7511 18.2064 13.2067 18.5058 13.8039C19.0995 14.9881 19.2823 16.4177 19.286 17.7338L19.2856 19.343C19.2844 19.5244 19.2552 19.7037 19.2635 19.8847L28.7283 19.8859L28.7109 17.1854C28.8057 15.8577 29.0305 14.6073 29.6994 13.4479C30.3459 12.3274 31.3188 10.3429 30.3163 9.21462C29.5661 8.37022 28.2936 8.37711 27.3948 8.99243C26.9954 9.26581 26.7695 9.65234 26.4667 10.013C25.3641 11.3262 23.2273 11.6152 21.9259 10.4296C21.0596 9.64039 20.6474 8.40022 19.0719 8.54112ZM18.9856 21.3089L16.3449 27.9987L15.0299 32.0475L13.9335 36.1154L13.3161 38.9741C13.5686 39.1658 13.9226 39.2793 14.2211 39.3817C15.8751 39.9494 15.9779 39.6994 17.4645 39.4796C17.8025 39.4296 18.1759 39.4326 18.5155 39.4685L18.7024 39.4868C19.7487 39.5827 20.228 40.0551 21.0315 40.5415C22.7133 41.5594 25.346 41.6044 27.0953 40.6677L27.9363 40.1932L28.6535 39.8522C29.9351 39.3689 30.2881 39.4822 31.6158 39.6575C32.6014 39.7877 33.8471 39.5686 34.7342 39.1185C33.9705 35.0012 32.7379 30.964 31.2662 27.046L29.7602 23.1417C29.5489 22.6011 29.2382 22.0382 29.1102 21.4751C29.0543 21.2294 28.8622 21.3164 28.6528 21.3182L19.9561 21.3224C19.6392 21.3221 19.2993 21.3428 18.9856 21.3089ZM13.0066 40.4882L12.7106 42.6572C13.8622 43.2934 15.1636 43.5728 16.4735 43.4027L17.4375 43.2384C18.4057 43.1086 19.529 43.3912 20.3225 43.9563C20.5446 44.1145 20.7412 44.2949 20.9773 44.4344C22.2157 45.1666 25.5134 45.1379 26.8947 44.5295C27.2952 44.3532 27.6319 44.068 28.0205 43.8698C28.7207 43.5129 29.9686 43.1677 30.785 43.2477C31.0052 43.2692 31.2148 43.3597 31.4296 43.4058C32.5422 43.6445 34.101 43.3647 35.1461 42.9583L35.2231 42.9257L34.9722 40.6094C33.9461 41.0451 32.6548 41.2782 31.5553 41.1379C31.0221 41.0698 30.4864 40.9001 29.9412 40.985C29.1455 41.1089 28.4351 41.648 27.7264 42.0043C25.6211 43.0629 22.2372 43.1453 20.2236 41.789L19.6128 41.3421C18.9948 40.9342 18.0128 40.816 17.2913 41.0098C15.9732 41.3639 14.7263 41.1832 13.4877 40.6712C13.3878 40.6299 13.0999 40.4681 13.0066 40.4882Z" fill="black"/>
</svg>
