<svg width="48" height="48" viewBox="0 0 48 48" fill="none" xmlns="http://www.w3.org/2000/svg">
<path d="M35.162 43.2477C34.2231 43.1305 33.264 43.2801 32.3762 43.5819C30.9891 44.0535 30.2819 44.1701 28.7814 44.3189C26.276 44.5673 23.9817 43.09 21.434 43.8054C21.0686 43.908 20.7082 44.0528 20.3368 44.1308C19.0128 44.4089 17.4893 44.4263 16.1492 44.2141C15.4473 44.103 14.8682 43.8283 14.2135 43.5708C13.7275 43.3796 11.9033 43.0212 11.4339 43.2898C11.2977 43.3677 10.7922 44.3011 10.2032 43.6582C9.81901 43.2389 10.1375 42.0599 10.2127 41.5482L10.5911 38.883C11.2557 34.2182 12.1233 30.4586 13.8104 26.085L14.3193 24.8439C14.5082 24.4077 14.6574 23.9575 15.0276 23.64L15.0353 21.9358C15.0415 20.173 14.8101 18.9856 13.8767 17.4037C13.0035 15.9237 12.3202 14.6447 12.5683 12.8908C12.7072 11.9087 12.5693 11.6752 12.4843 10.717C12.2274 7.82031 14.0048 4.89489 16.841 4.03255C17.1026 3.95302 17.3058 3.94408 17.4809 3.72347C17.6004 3.57292 17.7203 3.51142 17.9059 3.47288C18.1867 3.46801 18.4052 3.54309 18.5465 3.80896L18.5634 3.84391C18.7649 4.20565 18.4668 4.96848 18.6706 5.54228L18.6837 5.57828C19.005 6.57283 19.8025 7.06741 20.7423 7.36516C21.4239 7.58111 21.4222 8.93725 23.1203 9.43544C24.4858 9.83612 25.8943 9.28722 26.6199 8.06439C27.0736 7.30005 26.9532 7.55931 27.7149 7.21492C28.4282 6.89251 29.0168 6.42794 29.2909 5.67016L29.305 5.63036C29.5644 4.90891 29.2574 4.23299 29.416 3.86488C29.6136 3.40658 30.1847 3.38361 30.521 3.70642C30.8402 4.01286 31.5692 4.13246 32.0422 4.37368C35.7734 6.27611 36.7473 10.2017 35.2153 13.852C34.8451 14.7339 34.3808 15.5717 34.0396 16.4642C33.3746 18.2042 33.0822 20.1146 32.9746 21.9677C32.9436 22.5017 32.9851 23.0418 32.9374 23.5739C32.9306 23.6504 33.0002 23.6839 33.0523 23.7377C33.3219 24.0154 33.7963 25.129 33.9502 25.5117L35.3533 29.0995L36.1714 31.7302C36.197 31.8428 36.242 31.9471 36.2649 32.0597L36.7576 34.1717C36.945 34.7551 37.0311 35.645 37.1603 36.2666C37.2714 36.8016 37.3265 37.3469 37.407 37.8869L37.9279 41.0507C37.9451 41.1471 37.9482 41.2494 37.9697 41.3439L38.2463 42.9225C38.2699 43.0729 38.3427 43.2409 38.3079 43.3943L38.3019 43.4181C38.1025 44.2468 37.2455 43.7519 36.8272 43.6141C36.2792 43.4335 35.7334 43.321 35.162 43.2477ZM17.2419 5.4025C16.5095 5.95394 16.4207 7.29503 16.6878 8.13297C16.9678 9.01103 17.658 9.60067 18.2769 10.2475C19.8581 11.9 21.0357 12.9703 23.5325 13.0601C26.4347 13.1645 27.812 12.2725 29.7972 10.1819C30.351 9.5987 31.1162 8.99045 31.3289 8.17417C31.5676 7.40851 31.536 5.91555 30.7853 5.38755L30.749 5.4025C30.3173 6.86622 29.6919 7.85936 28.1517 8.42912C27.8712 8.53291 27.9219 8.49203 27.7705 8.7408C26.1321 11.4325 22.2175 11.5957 20.4157 9.0258L20.1698 8.6612C20.054 8.48139 20.0518 8.51701 19.848 8.44806C18.7198 8.06622 17.8019 7.05892 17.4245 5.94606C17.381 5.81758 17.3704 5.44722 17.2419 5.4025ZM32.7143 6.39067C32.9267 8.80989 32.2687 9.41022 30.666 11.1456C29.266 12.6615 28.1816 13.5837 26.0626 14.1108C23.3769 14.779 20.3165 14.0914 18.3096 12.1513L17.1446 10.909C15.7404 9.44003 15.0638 8.69453 15.3119 6.43937C14.3624 7.41198 13.6956 8.70526 13.7133 10.0893C13.7217 10.7455 13.9398 11.3744 13.9422 12.0337C13.9455 12.9158 13.5949 13.7969 13.9138 14.6705L14.0706 15.1175C14.1949 15.4859 14.4498 15.8723 14.6452 16.2066C15.2632 17.2781 15.5921 17.9949 15.9721 19.1381L16.1581 19.9334C16.2455 20.2323 16.3034 20.9709 16.3058 21.2961L16.3103 22.6146C16.3109 22.8669 16.2904 23.1388 16.3315 23.388L31.6159 23.3742L31.7772 20.6198C31.9518 18.9302 32.2776 17.2942 32.9257 15.7168C33.4094 14.5395 34.1124 13.4896 34.4058 12.2345L34.5474 11.5176C34.9317 9.83458 34.1855 7.504 32.8148 6.48058C32.7785 6.45348 32.7469 6.42198 32.7143 6.39067ZM22.5176 24.7255L15.7486 24.7273C15.6696 24.8307 15.6558 24.9257 15.6073 25.0415L13.5947 30.5861L12.9962 32.8353C12.7642 33.7592 12.5196 34.7141 12.4017 35.6602C12.9498 35.7064 13.4775 35.7178 14.0156 35.8478C15.6316 36.2381 16.9939 37.04 18.7044 37.2137C19.4031 37.2847 20.3506 37.2875 21.0489 37.2262C22.5252 37.0966 23.1965 36.5595 24.8546 36.8783C25.1301 36.9312 25.4059 37.0127 25.6819 37.0561C27.3432 37.4627 29.7227 37.2359 31.2892 36.657C31.6911 36.5085 32.0791 36.2973 32.4863 36.1687C33.2525 35.9267 34.3998 35.6613 35.2067 35.885L35.8252 36.0351L34.9188 31.9689C34.3538 29.885 33.5818 27.828 32.7421 25.84L32.3975 25.0524C32.3571 24.9518 32.3489 24.8125 32.2572 24.7426C32.1957 24.6956 23.4956 24.7232 22.5176 24.7255ZM12.1963 36.9635C12.0168 37.7448 11.9593 38.559 11.8185 39.3494C11.7876 39.5225 11.7926 39.7242 11.7403 39.8902C13.501 39.881 13.9161 40.0254 15.504 40.4993C16.9907 40.9429 18.8274 40.9202 20.3486 40.667C21.5534 40.4665 22.8194 40.0884 24.0489 40.3075L26.5771 40.7818C26.7837 40.8321 27.0576 40.8157 27.2717 40.8206L28.4622 40.8222C31.5548 40.777 33.0139 39.097 36.2858 40.0516L36.4223 40.0783L36.0024 37.37L35.6326 37.2656C33.7942 36.7921 32.9233 37.2995 31.3063 37.8992C29.6457 38.5151 27.6944 38.6864 25.9419 38.3929C25.2386 38.2751 24.5173 38.0657 23.8019 38.0676C23.057 38.0695 22.3677 38.3186 21.6438 38.4451C19.5844 38.8049 17.5181 38.4326 15.5779 37.7205C14.2824 37.2449 13.5782 36.9584 12.1963 36.9635ZM34.2109 41.0058C33.5682 41.0445 32.9799 41.1462 32.3673 41.3485C30.5606 41.9451 29.7338 42.0801 27.9041 42.08C27.0223 42.0799 26.3206 42.0716 25.4532 41.8812C24.9426 41.7692 24.4244 41.5922 23.9024 41.5424C22.7262 41.4302 21.6855 41.675 20.538 41.8804L19.3775 42.0493C18.1985 42.238 16.4218 42.0586 15.2506 41.7281L14.0696 41.3641C13.2783 41.147 12.3558 41.0612 11.5339 41.1586L11.4918 42.0835C12.468 42.0468 13.3879 42.0461 14.3327 42.363C15.9011 42.7978 16.1419 43.0588 17.8873 43.0673C18.6153 43.0709 19.2766 43.0632 19.9923 42.9216L21.4053 42.5789C22.1252 42.4277 23.2733 42.2823 24.0093 42.442L26.4259 42.9901C27.3047 43.2271 29.7468 43.017 30.5978 42.8204C31.222 42.6763 31.8077 42.4031 32.4204 42.2199C33.787 41.811 35.4534 41.854 36.7945 42.2917C36.9292 42.3356 36.7231 41.5574 36.6864 41.4687C35.9256 41.2063 35.0217 40.9717 34.2109 41.0058Z" fill="black"/>
</svg>
