<svg width="48" height="48" viewBox="0 0 48 48" fill="none" xmlns="http://www.w3.org/2000/svg">
<path d="M32.5109 42.7205C31.9896 43.2215 31.1433 43.3343 30.4971 43.0247C29.7974 42.6894 29.9128 42.6499 29.4547 43.2221C28.8068 44.0314 27.5017 44.1708 26.6487 43.6198C26.4891 43.5167 26.3191 43.3084 26.1352 43.2634L26.1097 43.2579C25.5432 43.1253 25.2362 43.8657 24.6796 43.9615C24.512 43.9903 24.391 43.9162 24.2343 43.9192L23.1805 43.9285C22.3212 43.9447 22.4251 43.9511 21.886 43.2324C21.521 43.1153 21.3954 43.1706 21.1035 43.3907C20.2438 44.0391 18.9112 44.1664 18.2127 43.2085C17.7793 42.6141 17.896 42.7554 17.2475 43.0405C16.4902 43.3733 15.4899 43.1816 14.9986 42.4863C14.8754 42.3119 14.7604 41.9855 14.5821 41.872L14.4937 41.8202C14.1451 41.641 13.8032 41.9254 13.471 42.0187L13.3071 42.0599C12.3531 42.2285 11.5148 41.477 11.38 40.5624L11.3763 40.535C11.2851 39.8039 12.1583 38.0564 12.4335 37.3329L13.746 33.3953L14.6167 29.7996L15.0289 27.2773C15.4497 24.9003 15.9206 22.6493 16.8725 20.4275L17.3245 19.4623C17.3789 19.3556 17.4301 19.2177 17.503 19.1238L17.5784 19.0202C17.7898 18.6668 17.4218 16.7141 17.3353 16.3145L16.7436 13.5672C16.6866 13.3036 16.7657 13.0516 16.6206 12.8144L16.3662 12.3766C15.4345 10.6659 15.4915 8.23348 17.1064 6.95244C17.1564 6.91273 17.1164 6.88442 17.0943 6.82569L16.9264 6.3612C16.7823 5.89648 16.7206 5.31739 16.8586 4.84503L16.8707 4.80453C17.0834 4.0768 17.7086 3.63956 18.4368 3.49682C18.6362 3.48167 18.8609 3.47501 19.0559 3.52292L19.2773 3.58325C20.1204 3.87276 20.4136 4.63756 20.4159 5.45633L20.4173 6.50375C20.4175 6.60978 20.3931 6.79704 20.4439 6.88723C21.1701 8.17944 22.5938 9.47904 24.0566 9.90608C25.2174 9.5929 26.4474 8.47517 27.1538 7.55984C27.4932 7.12015 27.5691 6.98126 27.5757 6.44511L27.5796 5.53442C27.5825 4.55556 27.8698 3.71954 28.966 3.51616L29.0039 3.50937C29.7612 3.36586 30.5559 3.7904 30.9372 4.44125C31.394 5.22092 31.1759 6.05347 30.8996 6.85409C30.8863 6.89244 30.8819 6.89431 30.9096 6.92187C31.7384 7.74504 32.2181 8.74123 32.2227 9.92694C32.2277 11.2131 31.9286 11.9199 31.2312 13.0212C31.2741 14.6787 30.421 16.5114 30.3779 18.3191C30.3585 19.129 30.7057 19.419 31.0028 20.1678L31.6507 21.8566L32.4636 24.8319L34.0142 32.6229L34.7586 35.1092C34.9163 35.6891 35.163 36.2856 35.3879 36.8436L36.5919 40.0227C37.0032 41.3564 35.2894 42.5152 34.0316 41.9386C32.8803 41.4108 33.2611 42.0105 32.5109 42.7205ZM18.5924 4.85361C17.9449 5.05161 18.0892 5.82945 18.3687 6.28634C18.4352 6.3147 18.5015 6.29056 18.5722 6.2802C18.7088 6.25447 18.934 6.24519 19.0521 6.18153L19.0507 5.39839C19.0502 5.09576 19.0514 4.8448 18.657 4.85084L18.5924 4.85361ZM29.1705 4.85661C28.8968 5.00281 28.9476 5.07781 28.9474 5.37101L28.9486 6.20637C29.1513 6.21842 29.4072 6.20253 29.5942 6.28104L29.6132 6.2884C29.9556 5.97814 29.9195 4.859 29.343 4.85094L29.1705 4.85661ZM28.8056 7.48072C28.0826 9.03823 26.1778 10.6328 24.6196 11.204C24.0238 11.4224 23.6352 11.2671 23.075 11.006C21.5052 10.2744 20.4714 9.41394 19.4837 7.94576C19.1887 7.5073 19.2755 7.41537 18.6914 7.61919L18.3207 7.78887C17.7752 8.0645 17.3781 8.75225 17.2012 9.31742C16.9544 10.1065 17.1483 10.999 17.5577 11.6965C18.072 12.5993 19.0852 13.3612 20.1328 13.506C20.489 13.5552 20.8894 13.5215 21.2511 13.5216L23.5099 13.5217C23.8871 13.5219 24.2934 13.4867 24.6608 13.5763C26.2631 13.9675 26.5226 13.9903 28.0664 13.568C29.8453 13.0814 31.3104 11.219 30.8039 9.33336C30.4867 8.15258 29.9102 7.70417 28.8056 7.48072ZM18.2209 14.2147L18.4087 14.9541C18.5798 15.4678 18.6582 16.0962 18.7622 16.6287L18.9386 18.0229L29.0499 18.0174L29.1824 16.6906L29.6653 14.336C28.9537 14.7872 28.0981 14.9052 27.2702 14.9553L22.5417 14.9781C22.3289 14.9785 22.1518 14.9648 21.9497 15.0417C21.5708 15.186 21.3676 15.0222 21.0128 14.9818C20.2692 14.8969 19.5676 14.8851 18.8645 14.5602C18.7537 14.509 18.2865 14.2124 18.2209 14.2147ZM24.6255 19.4412L22.9573 19.4751C22.6193 20.2716 22.6499 21.9351 22.6659 22.8162C22.675 23.3124 22.844 23.823 22.2304 24.0468C21.2279 24.4125 21.3029 22.9065 21.3021 22.3802C21.3014 21.9091 21.2826 21.4354 21.3466 20.9679L21.5229 19.7108C21.5346 19.6542 21.5841 19.5147 21.5707 19.4643L21.0942 19.4664C20.7479 19.4682 20.84 19.5501 20.7337 19.8627L20.3653 21.0122C20.2095 21.4762 19.9497 22.0166 19.358 21.7479C19.2084 21.68 19.0824 21.5309 19.0323 21.3748L18.9961 21.2067C18.9226 20.8677 19.288 19.8361 19.4149 19.4827L18.7862 19.482C18.2763 20.6479 17.7033 21.793 17.3521 23.0216C16.9613 24.3886 16.6491 25.7854 16.4078 27.1873L15.5976 31.6874C15.2293 33.3115 14.7178 34.8921 14.1713 36.4633L12.8832 39.9442C12.7757 40.2487 12.6462 40.4641 12.978 40.6816C13.8404 40.4344 14.3115 40.1222 15.246 40.6412L15.4373 40.7732C16.307 41.4136 15.7604 42.1779 16.9444 41.5999C17.7975 41.1836 18.7651 41.5467 19.267 42.3154C19.4513 42.5979 19.7998 42.6061 20.0737 42.4474L20.101 42.4304C21.0133 41.6975 22.0703 41.4978 22.8317 42.4844C22.946 42.6325 22.9083 42.6059 23.0999 42.5905L23.8569 42.5643C24.437 42.5677 24.2402 42.6176 24.6845 42.308C25.4746 41.7574 26.3578 41.6852 27.1704 42.2368L27.5146 42.4893C27.9557 42.8137 28.2841 42.4481 28.505 42.1204C28.9712 41.4286 30.1146 41.2571 30.848 41.6131C31.3416 41.8527 31.4721 41.9275 31.736 41.4164C32.1901 40.5367 33.2523 40.145 34.1835 40.4563C34.4846 40.5569 34.6941 40.778 35.019 40.6282C35.5491 40.3839 35.0253 39.6836 34.8352 39.218L32.6157 32.6479L31.9049 29.4631L31.5863 27.2342L30.924 24.1522C30.6442 23.0296 30.2418 21.9273 29.8047 20.8572L29.4169 19.9336C29.3542 19.7889 29.2792 19.6544 29.2264 19.505C29.1244 19.4305 26.684 19.4752 26.3589 19.4755L26.3746 19.4938C26.4244 19.5648 26.4376 19.6687 26.4693 19.7498L26.7309 20.3672C26.8448 20.6639 27.0909 21.0778 26.9587 21.4002C26.7707 21.8586 26.0778 22.023 25.7773 21.5797C25.6211 21.3492 25.5312 21.0236 25.4201 20.7672L24.9403 19.7216C24.8197 19.4541 24.8935 19.4696 24.6255 19.4412Z" fill="black"/>
</svg>
