<svg width="48" height="48" viewBox="0 0 48 48" fill="none" xmlns="http://www.w3.org/2000/svg">
<path d="M34.9947 44.5906C34.2856 44.3873 33.2768 44.2925 32.5678 44.5571C31.4946 44.9578 30.9691 46.3796 29.331 46.0179C28.9887 45.9423 28.6859 45.7688 28.3539 45.6657C26.8679 45.2045 26.1586 46.1022 24.8996 46.1881C24.4126 46.2213 23.889 46.2295 23.4142 46.1099C22.3565 45.8434 21.9891 45.5063 20.7541 45.7528C20.4649 45.8105 20.1822 45.9287 19.8983 46.0089C18.5987 46.376 17.347 46.3001 16.3572 45.3454C15.6019 44.6169 14.9778 44.4951 13.9807 44.6007L12.8973 44.7291C11.5119 44.8929 10.2029 44.4907 9.64751 43.0627C9.45185 42.5595 9.49287 42.103 9.55985 41.5782L10.2492 36.7421L10.7644 33.9721C10.8142 33.6476 10.7899 33.3135 10.826 32.9865C11.1757 29.8178 12.006 26.8934 13.3323 23.9841L13.8557 22.9688L16.3103 18.9141C16.369 18.8282 16.5323 18.6624 16.5601 18.5758C16.6224 18.3821 14.5972 14.3925 14.3569 13.7505C13.8286 12.3385 13.5046 10.8293 13.5095 9.32016C13.5142 7.86357 13.8057 7.3898 14.5409 6.27901C15.6862 4.54838 13.5639 1.9159 15.1636 1.45689C15.8316 1.41508 16.5195 1.44767 17.1897 1.4472L18.0324 1.44743C18.453 1.44847 18.8046 1.45005 19.0129 1.89123L19.0314 1.93365C19.1031 2.09264 19.1019 2.22229 19.1248 2.39068C19.8005 7.34701 27.1399 7.95816 28.6835 3.16718L28.8649 2.50416C29.0861 1.5085 29.1344 1.44975 30.2385 1.44737L32.4401 1.4473C33.5982 1.45085 33.5629 2.10879 33.3818 3.01039L33.1763 4.1263C33.1137 4.49455 33.0361 4.88312 33.1181 5.2553L33.1901 5.60804C33.2767 6.0953 33.664 6.4944 33.9151 6.9024C34.3886 7.67208 34.4734 8.64704 34.4732 9.52749C34.4721 12.3406 33.2811 14.6172 32.0839 17.0797L31.5322 18.2653C31.5137 18.3068 31.4375 18.4322 31.437 18.4696C31.4369 18.4745 32.2308 19.6749 32.3269 19.8353C33.3635 21.5659 34.7683 23.8251 35.4154 25.7371L36.0944 27.7383C36.2516 28.2457 36.4141 28.7575 36.526 29.2757L37.0803 32.4038L37.3129 34.6172L38.2442 40.3932C38.3667 41.1725 38.5612 41.9124 38.4529 42.7078C38.2745 44.0168 36.8035 44.8653 35.5654 44.704L34.9947 44.5906ZM15.9914 2.81532C16.1161 3.89149 16.4444 4.98793 16.1444 6.07126C15.9597 6.73843 15.5049 7.26657 15.1853 7.86882C14.7788 8.63485 14.7873 9.58074 14.9344 10.4177L15.1708 11.6833C15.2138 11.8735 15.2498 12.0837 15.319 12.2656L15.5979 13.1013L17.7797 17.8321C17.8085 17.9115 17.8186 17.997 17.8818 18.0562C18.2389 18.1031 18.6443 18.0655 19.0077 18.0646L30.0817 18.0671L32.3134 13.3188C32.8174 12.0872 33.1206 10.8377 33.1199 9.50874C33.1191 8.16559 32.8924 8.04704 32.23 6.87896C31.6941 5.93401 31.6054 4.78904 31.8376 3.74019L32.0237 2.82418L30.203 2.81536C30.1456 2.9606 30.1332 3.10563 30.0979 3.25624C29.6629 5.11309 28.2496 6.58796 26.5353 7.34574C23.2119 8.81476 19.0672 7.05268 17.9951 3.51563L17.8611 3.05105C17.7728 2.68028 17.8205 2.81479 17.2865 2.81494L15.9914 2.81532ZM17.6501 19.4104L15.8151 22.31C14.3559 24.8112 13.1002 27.9008 12.5589 30.777L12.1906 33.3751C12.1493 33.7828 12.141 34.173 12.0672 34.5802L11.4788 37.9091C11.1266 40.0457 11.167 38.8775 12.7526 39.5508C13.4309 39.8389 13.9327 40.4102 14.6915 40.5282C15.7489 40.6927 16.8401 40.4373 17.8788 40.7294C18.5332 40.9134 18.9896 41.3986 19.6057 41.6485L19.6477 41.666C20.278 41.9242 21.1824 41.8449 21.7965 41.5772C22.0613 41.4617 22.2803 41.2611 22.5471 41.1544C23.8161 40.6469 24.3449 40.9281 25.3594 41.5351C26.9393 42.4804 27.8833 40.6712 29.4084 40.6872C30.7211 40.6982 31.0712 41.3249 32.5274 40.377C32.8205 40.1862 33.0792 39.9525 33.3799 39.7732C34.3975 39.1667 35.5419 39.354 36.4931 39.9575C36.5966 40.0232 36.7079 40.1104 36.8209 40.1557L35.8483 34.1664C35.8121 33.9014 35.8066 33.6256 35.7832 33.3582L35.6197 31.9219C34.9944 27.4421 33.4712 24.5727 31.2664 20.7945L30.7574 19.9724C30.6588 19.8147 30.5303 19.5249 30.3768 19.4216L19.1214 19.429C18.6372 19.4293 18.13 19.464 17.6501 19.4104ZM11.1034 40.6993C11.0517 40.8351 11.0491 40.9714 11.0302 41.1136L10.934 41.8294C10.9148 41.9899 10.8571 42.163 10.8869 42.3231L10.938 42.5589C11.1897 43.5663 12.3437 43.3663 13.0783 43.2635C14.6226 43.0472 15.8615 43.0801 17.0979 44.0876C17.7122 44.5883 17.8213 44.9007 18.7285 44.8221L18.7717 44.8188C18.9959 44.7996 19.229 44.7113 19.4418 44.6411L20.0837 44.46C20.8374 44.2791 21.7332 44.2879 22.4885 44.4624L23.6674 44.795C24.5945 45.0495 25.4656 44.5731 26.3322 44.3435C27.3274 44.0799 28.2159 44.1817 29.1914 44.4773C29.4921 44.5684 29.6857 44.7015 30.0057 44.6342L30.0384 44.628C30.4256 44.5482 30.779 44.0745 31.0802 43.8315C31.9752 43.1091 33.2964 42.9058 34.4229 43.0463C35.2841 43.1538 36.1587 43.6946 36.8586 42.8913C36.9354 42.7718 37.0031 42.6598 37.0561 42.5274L37.0736 42.4842C37.1441 42.3064 37.133 42.108 37.1253 41.9199C36.7914 41.7746 36.4903 41.6101 36.181 41.4174C34.7131 40.5031 34.6339 40.625 33.3641 41.5263C32.5185 42.1265 31.5086 42.3624 30.4829 42.2673C29.1404 42.1428 29.5187 41.7946 28.2281 42.6114C27.3037 43.1964 25.8544 43.3472 24.8585 42.824C24.3644 42.5643 23.9646 42.1482 23.3557 42.3518L23.3226 42.3626C22.9903 42.4767 22.6891 42.7123 22.3603 42.8487C21.3112 43.2838 19.8955 43.3131 18.8496 42.8162C17.7106 42.2752 17.8773 41.9811 16.5052 41.9804L15.4085 41.9801C14.7828 41.9797 14.2624 41.9152 13.6706 41.6753C12.8207 41.3308 12.1242 40.4584 11.1034 40.6993Z" fill="black"/>
</svg>
