<svg width="48" height="48" viewBox="0 0 48 48" fill="none" xmlns="http://www.w3.org/2000/svg">
<path d="M33.9135 42.3534C33.3678 42.3636 32.7274 42.4817 32.2427 42.7377C30.9692 43.4104 30.0502 43.8717 28.6269 43.0074C28.5605 42.967 28.4424 43.0818 28.3798 43.1183C27.5382 43.609 26.5461 43.5559 25.6757 43.1447C24.8492 42.7541 24.5689 42.5805 23.6339 42.6409C23.0683 42.6774 22.584 43.0216 22.0772 43.2361C21.0828 43.657 20.1349 43.4944 19.1962 42.9887C18.2412 43.5306 17.4578 43.65 16.4108 43.1132C15.969 42.8866 15.5605 42.5913 15.0699 42.4724C14.6092 42.3608 13.5894 42.4077 13.3463 42.2941L13.1616 42.1995C13.0204 42.107 12.8693 41.8961 12.8426 41.7288L12.838 41.6956C12.8072 41.4874 12.8345 41.268 12.8381 41.0578L12.8622 39.7777C13.074 36.3479 13.8232 32.5975 14.763 29.2981L16.3774 24.2914L17.55 21.1552C17.6369 20.8975 17.7306 20.6372 17.7374 20.3627L17.7398 18.7227C17.7297 16.9936 17.1353 16.7558 16.2452 15.6351C15.215 14.3381 14.9561 12.5039 15.3818 10.9281L15.513 10.4768C15.5928 10.2366 15.6135 10.2483 15.5073 10.0247C14.9849 8.92469 14.8536 7.89466 15.0008 6.70984C15.1282 5.68506 15.2161 5.41412 16.1953 5.1573L17.0046 4.94355C17.5702 4.79697 18.1245 4.61572 18.6998 4.50776C19.4889 4.38803 19.6836 4.8647 19.6852 5.49325L19.6855 6.48067C19.6853 6.84316 19.7192 7.16762 19.7851 7.52303C20.1385 9.42855 21.2785 9.9205 22.6234 10.8987L23.9974 11.9818L25.4922 10.8199C25.9823 10.4742 26.5179 10.1801 26.9673 9.78077C28.1366 8.74169 28.3328 7.30952 28.3041 5.85733C28.2712 4.19209 28.8701 4.38807 30.295 4.77456L31.6773 5.13766C32.3271 5.31077 32.7114 5.36462 32.8899 6.09681L32.914 6.18648C33.33 7.3743 33.0946 8.65295 32.6845 9.80378L32.5079 10.2424C32.44 10.3956 32.4524 10.3766 32.5003 10.5433L32.6727 11.1448C33.0573 12.7095 32.6659 14.6882 31.5625 15.8848C30.2419 17.317 30.2495 17.5716 30.2523 19.6061C30.2533 20.2975 30.2701 20.5272 30.4676 21.176L32.1315 25.8167L32.9832 28.5214C33.126 29.2071 33.424 29.866 33.5454 30.551L33.8319 31.6915C33.8517 31.8096 33.8991 31.92 33.9202 32.0393L34.1324 32.954C34.2267 33.2511 34.2565 33.5797 34.3219 33.8841L34.7187 36.176L35.1185 39.7948L35.158 41.3125C35.163 42.2438 34.7982 42.3475 33.9135 42.3534ZM18.2936 6.03541L16.4681 6.51006C16.3731 6.54044 16.3766 6.76413 16.3634 6.84728C16.1705 8.06106 16.4016 8.6313 16.8881 9.69639C17.1831 10.3421 16.7146 11.1124 16.592 11.7471C16.5417 12.0078 16.569 12.3205 16.57 12.5879C16.5761 14.3464 17.6235 14.7842 18.4288 16.0929C18.8397 16.7607 19.0131 17.5403 19.0872 18.3117C19.1101 18.5496 19.079 18.8 19.1223 19.0337L20.8571 19.0294C21.1868 19.0187 21.789 18.9694 22.1126 18.9364C22.2251 18.9249 22.3253 18.8697 22.4414 18.8641L25.1774 18.8629C25.3524 18.8632 25.558 18.8344 25.7156 18.9161C25.8802 19.0015 28.4961 18.9535 28.8931 18.9536C28.9033 17.7259 29.0924 16.4668 29.972 15.5338C30.6293 14.8367 31.0884 14.3459 31.3355 13.3545C31.7186 11.8597 30.8971 10.8402 31.0686 9.97291L31.0732 9.94886C31.1202 9.72691 31.2602 9.52609 31.3577 9.32434C31.7622 8.48734 31.8837 7.45347 31.6049 6.56027C31.4245 6.50406 29.769 6.03902 29.6985 6.06091C29.7057 7.80756 29.3356 9.38753 28.0433 10.6813C27.5664 11.1589 26.9549 11.4963 26.4179 11.9009C25.8071 12.3612 25.1017 13.123 24.3632 13.3615L24.328 13.3732C23.6368 13.5879 23.116 13.0899 22.6278 12.6849L21.8651 12.082C21.5262 11.8243 21.1559 11.6136 20.8118 11.3641C19.2872 10.2585 18.4051 8.6845 18.3255 6.80884C18.3145 6.55164 18.3345 6.29317 18.3177 6.03592L18.2936 6.03541ZM22.5542 20.2352C22.3024 20.8493 22.1191 21.4896 21.9362 22.1252L20.9247 26.3095L20.1305 32.262C20.1147 32.4853 20.0765 32.7065 20.0663 32.9306L20.05 41.7935C20.6705 42.4935 21.7142 41.8145 22.3204 41.5532C23.1544 41.1936 24.3668 41.12 25.2378 41.4162C26.1374 41.6913 27.0139 42.5348 27.9139 41.702L27.9093 33.3583C27.7218 29.2926 26.8375 24.0591 25.5805 20.2366L22.5542 20.2352ZM27.0632 20.3608L27.1024 20.5005C27.1261 20.599 27.179 20.6912 27.2071 20.7899L27.4894 21.8323C27.5569 22.049 27.6248 22.2819 27.6652 22.5054L28.1625 24.7303C28.1962 24.8561 28.209 24.9864 28.2358 25.1135L28.5936 27.1174C28.8279 28.3128 28.9533 29.5361 29.0816 30.7472L29.2255 32.3867C29.2412 32.5825 29.2711 32.7729 29.2788 32.9707L29.2921 41.1603C29.2933 41.5435 29.2458 41.7096 29.6132 41.9286C30.2874 42.3303 31.0125 41.7689 31.5889 41.4782C31.9806 41.2806 32.4016 41.1527 32.8305 41.0663L33.3623 40.9885C33.5023 40.9749 33.6541 40.975 33.7886 40.9343L33.6497 38.6763C33.3009 35.3005 32.5909 32.0126 31.6147 28.7644L29.972 23.7985C29.562 22.6691 29.0548 21.5461 28.8882 20.3502L27.0632 20.3608ZM19.1054 20.3673C19.0261 21.0722 18.9258 21.505 18.662 22.1684L17.157 26.2502L15.6567 31.2542L14.7204 35.6956L14.3023 39.2671C14.2581 39.831 14.1937 40.3982 14.1831 40.9651C15.0484 40.9995 15.7929 41.1605 16.5597 41.6051C16.8106 41.7471 17.0927 41.9497 17.3789 42.0031L17.4115 42.0094C17.7785 42.0767 18.1604 42.0029 18.4645 41.7863L18.6608 41.6245C18.6938 41.2896 18.6792 40.9471 18.6795 40.6105L18.6841 33.4801C18.6858 33.2644 18.7223 33.0594 18.7343 32.846L19.2568 27.7979C19.54 26.0031 19.9332 24.2268 20.4057 22.4725C20.5949 21.7702 20.7573 21.0527 21.0218 20.3737L19.1054 20.3673Z" fill="black"/>
</svg>
