<svg width="48" height="48" viewBox="0 0 48 48" fill="none" xmlns="http://www.w3.org/2000/svg">
<path d="M16.6672 41.9602C16.1004 42.0624 15.7019 42.491 15.1566 42.6133L15.118 42.6215C14.3963 42.7837 13.3875 42.5173 12.9352 41.9264C12.9139 41.8986 12.8977 41.9096 12.8626 41.9105C11.4727 41.9453 10.3001 41.7718 9.56381 40.3663C8.97797 39.2481 9.21412 38.4047 9.64162 37.3088L13.4952 27.3812C14.1739 25.7424 14.7647 24.4899 15.9405 23.1465C16.2185 22.8289 16.5339 22.5421 16.7982 22.2127C17.9905 20.7264 17.7236 19.6718 17.2047 18.1115L14.9046 10.6715C14.29 8.67008 14.0886 8.55322 14.6036 6.40029C14.7277 5.88106 14.8228 4.88436 15.3493 4.61402L15.3865 4.59528C15.6976 4.43278 16.1226 4.51682 16.4617 4.51703L17.208 4.51712C18.286 4.51177 19.2 4.93854 19.9078 5.75572C20.7062 6.67761 21.2915 6.80694 22.526 7.0234C24.1402 7.30644 26.2402 7.13858 27.6937 6.33219C28.456 5.90923 28.9775 5.16828 29.7986 4.82797C30.5858 4.50166 31.1687 4.51682 32.0054 4.51556C33.1307 4.46583 33.1484 5.25748 33.3752 6.17623C34.015 8.7679 33.5644 9.22334 32.8042 11.7266L30.9741 17.6633C30.6107 18.8942 30.023 19.6656 30.5764 21.0026L30.6769 21.2263C31.0342 21.8701 31.3579 22.2925 31.8 22.8847L32.7066 24.1997C33.5278 25.4616 34.1733 26.8215 34.8122 28.1798L35.3563 29.4506C35.5434 29.8204 35.6651 30.2345 35.8129 30.6215L38.1567 36.9614C38.4621 37.7464 38.8054 38.6054 38.7031 39.4626L38.6978 39.5044C38.5844 40.4846 37.7892 41.4376 36.8723 41.762C36.2313 41.9889 35.6385 41.9748 34.9722 41.9757C34.8335 41.9759 34.6348 41.949 34.5187 42.0336C33.5174 42.763 32.1195 43.5861 30.9878 42.5332C30.6108 42.1824 30.5133 41.919 29.9157 41.9931C29.4755 42.0477 29.4136 42.2676 29.1681 42.5763C28.2655 43.711 26.3497 43.811 25.3536 42.7378C25.009 42.3665 24.8952 42.001 24.3151 41.9791C23.6993 41.9558 23.4474 42.2419 23.01 42.5998C21.6469 43.7153 19.7749 43.7253 18.3656 42.711C17.8165 42.3158 17.4836 41.8611 16.7133 41.9544L16.6672 41.9602ZM17.0061 5.99947C17.6307 6.79836 17.9634 7.67726 18.227 8.65081C18.317 8.98334 18.3816 9.3597 18.5071 9.67831L18.5975 9.94226C19.7115 12.7832 22.6606 14.2557 25.5701 13.4742C28.0665 12.8036 29.0313 11.184 29.85 8.96942L30.4756 7.27194L30.9049 6.00969C30.4566 6.11375 29.8124 6.39055 29.562 6.79765L29.5113 6.90279C29.3622 7.25398 29.4153 7.65833 29.3179 8.02695C28.8128 9.93781 27.356 11.7287 25.301 11.9705C24.8375 12.0251 23.115 12.0263 22.6728 11.9633C21.2959 11.7669 20.1376 10.9718 19.6307 9.6305C19.0651 8.13387 19.5168 5.9787 17.0061 5.99947ZM15.9512 7.07056C15.4889 8.48258 15.8729 8.66562 16.23 9.95919L17.7273 14.9337C17.7351 14.9649 17.746 14.9926 17.7575 15.0225L18.9548 18.7258C19.0029 18.8559 19.0124 19.0008 19.03 19.1372C19.2416 20.7762 18.811 22.1849 17.7384 23.4242C17.3915 23.8249 17.0054 24.1915 16.6776 24.6094C15.8379 25.6801 15.324 27.0662 14.824 28.3156L10.8138 38.7071C10.5585 39.4422 11.2476 40.2253 11.9128 40.4209L12.0443 40.4446C12.3693 40.4985 12.7306 40.4797 13.06 40.4745C13.1829 40.128 13.3114 39.6299 13.4162 39.266L16.6557 29.2208C16.9076 28.4996 17.1124 27.7393 17.4133 27.0378C17.6296 26.5334 18.3567 26.3972 18.6718 26.899L18.7211 26.9984C18.8304 27.242 18.8 27.4666 18.7206 27.7161L17.1574 32.2153L14.7631 39.8048C14.7253 39.9275 14.3777 41.0744 14.3957 41.1215C14.5009 41.3961 15.0652 40.9961 15.1876 40.9305C16.2416 40.3664 17.5499 40.3473 18.5902 40.9597C19.443 41.4617 19.8608 42.2779 21.1884 41.8943C21.9125 41.685 22.3387 41.0473 23.0154 40.754C23.46 40.5614 24.4654 40.3859 24.9503 40.5783L24.9711 40.5872C25.3425 40.7406 25.6649 40.8525 25.985 41.1143C26.5119 41.5452 26.617 42.2538 27.5506 41.94L27.5856 41.9285C27.9542 41.8009 28.1281 41.3563 28.4011 41.1017C29.1683 40.3862 30.7968 40.2402 31.5933 41.0014C31.7685 41.1689 31.8956 41.4064 32.1326 41.486L32.1771 41.502C32.3683 41.5617 32.7112 41.425 32.869 41.3219L33.0552 41.1801L33.2952 40.9821C33.1387 40.4908 33.036 39.9725 32.9166 39.4706L30.6556 31.0083C30.5331 30.4918 30.3872 29.9746 30.3053 29.4497C30.1194 28.2584 31.5352 27.9752 31.7411 28.8526C31.7678 28.9662 31.7747 29.0778 31.7932 29.1919L31.9328 29.9067C31.9835 30.1721 32.0235 30.4467 32.0986 30.7065L32.3519 31.7868C32.359 31.8259 32.3702 31.8588 32.3829 31.8961L32.9145 33.9482C32.922 33.9842 32.9335 34.0155 32.9455 34.0501L33.1972 34.9853C33.2047 35.0212 33.2149 35.0497 33.2269 35.0838L33.4768 35.9639C33.484 35.9981 33.4948 36.0244 33.5071 36.0566L34.6046 40.1848C34.6211 40.2673 34.6511 40.4129 34.7031 40.4755C35.598 40.4867 37.0327 40.5811 37.2205 39.352L37.2265 39.3157C37.3217 38.7044 36.8799 37.9047 36.6762 37.3401L34.3846 31.1606C33.4353 28.6592 32.3529 26.247 30.8176 24.0465C29.6945 22.4368 28.8845 21.9201 28.8912 19.6474C28.8923 19.2554 28.9433 18.929 29.074 18.5595L31.8086 10.0026C32.2694 8.49101 32.2781 8.58073 32.0966 7.03348C31.9799 7.26509 31.9155 7.50505 31.8315 7.74851L31.3523 9.13901C31.0479 10.0108 30.7317 10.8812 30.269 11.6845C27.3426 16.7646 19.0666 16.1818 17.2002 10.4646C16.7369 9.04522 16.7323 8.39651 15.9512 7.07056ZM27.7287 7.95748C25.8801 8.78365 22.8398 8.88608 20.9416 8.16514L20.7783 8.15736C20.9826 8.74283 20.8909 8.96975 21.3085 9.59033L21.4867 9.80989C22.0792 10.5378 22.867 10.5188 23.6868 10.519C24.4946 10.5192 25.2749 10.5927 26.0106 10.1892C26.9283 9.6859 27.4444 8.91884 27.7817 7.95172L27.7287 7.95748Z" fill="black"/>
</svg>
