<svg width="48" height="48" viewBox="0 0 48 48" fill="none" xmlns="http://www.w3.org/2000/svg">
<path d="M33.9196 41.2722C32.6042 42.013 30.7661 42.216 29.3076 41.7656C28.393 41.4831 27.4041 41.0206 26.4258 41.2718C25.9273 41.3998 25.4842 41.6858 24.9844 41.8297C24.0823 42.0894 23.5732 41.9197 22.7565 41.9309C22.0051 41.9413 21.2563 42.0683 20.5062 42.0707C19.6686 42.0734 18.8397 41.951 18.0012 41.949L16.4783 41.98C15.6716 41.9785 14.8979 41.7899 14.1974 41.3718C13.7879 41.1274 13.1278 40.7411 13.0083 40.2511L13.0007 40.2188C12.9436 39.9947 12.9807 39.8107 13.0171 39.5878L15.3063 27.4454C15.363 27.1029 15.4561 26.7465 15.4853 26.4018C15.605 24.9927 15.1757 23.6815 14.746 22.3594L13.7872 19.3563C13.3681 18.0182 12.4559 14.4426 12.9598 13.0782C13.1814 12.4782 13.6101 12.0708 13.9964 11.5804C15.0841 10.1995 15.0241 9.36346 15.022 7.76367C15.0208 6.87028 15.2576 6.15285 16.3016 5.98321C17.2509 5.90334 17.7055 6.28153 18.2546 6.95334C19.4936 8.46946 21.1508 9.39257 23.0925 9.74067C25.2084 10.12 28.2401 8.87451 29.5923 7.15321C29.8002 6.88851 30.0147 6.4934 30.2951 6.31134C31.2191 5.71129 32.6693 5.89575 32.9494 7.11918C33.0042 7.35796 32.9706 7.65398 32.9596 7.89848C32.9032 9.1529 32.9565 10.0846 33.6864 11.1398C34.2277 11.9224 34.763 12.3442 35.071 13.279C35.4655 14.4762 34.6804 17.5186 34.332 18.6801L33.2514 22.1453C32.8032 23.5812 32.2844 25.1415 32.5186 26.6703C32.5892 27.1312 32.6786 27.5964 32.766 28.0547L33.614 32.4935C33.6826 32.8903 33.758 33.2866 33.8437 33.6797L34.1779 35.416C34.2821 36.0123 34.3647 36.6311 34.5056 37.2188L34.7984 38.7582C35.037 40.1031 35.2831 40.5026 33.9196 41.2722ZM16.5953 7.39556L16.4123 7.4144C16.3286 7.55015 16.4034 7.71267 16.4078 7.86332L16.404 9.28954C16.3551 10.4244 15.7382 11.6532 15.0447 12.5157C14.4029 13.3139 14.1605 13.3748 14.2136 14.4167C14.2617 15.3594 14.3983 16.2646 14.6471 17.1797L15.11 18.9374C15.3284 19.0421 15.5697 19.0928 15.8006 19.1649C17.6206 19.7329 19.2186 19.9128 21.0919 19.9155L28.2038 19.901L29.3407 19.7826C30.5433 19.6387 31.6722 19.3038 32.8276 18.9554L32.8319 18.9241C32.8872 18.5503 33.0464 18.186 33.1366 17.8177C33.456 16.6529 33.7702 15.4408 33.7774 14.2286C33.7831 13.2828 33.5176 13.2197 32.9448 12.4964C31.8824 11.155 31.4799 9.82856 31.5494 8.14978C31.5582 7.93828 31.5967 7.73451 31.5944 7.52212C31.5903 7.14028 31.0268 7.57917 30.8813 7.76643C30.1057 8.76492 29.2289 9.48801 28.115 10.0872C24.7993 11.8706 21.3645 11.4472 18.4053 9.14034C17.9283 8.76848 16.9676 7.4541 16.5953 7.39556ZM15.6378 20.5881L16.2261 22.4332C16.2351 22.474 16.2511 22.5081 16.2663 22.5469L16.421 23.0353C16.4608 23.1546 16.4711 23.2695 16.5247 23.386L31.4255 23.3871C31.4954 23.2552 31.4935 23.1199 31.5351 22.9798L31.8027 22.1225L32.266 20.5976C31.0992 21.0779 29.1039 21.2787 27.8607 21.3423L21.1821 21.3484C20.8024 21.3481 20.413 21.3645 20.0345 21.3384L18.1412 21.155C17.3073 21.0446 16.4369 20.8505 15.6378 20.5881ZM18.6943 24.738L16.7936 24.7498C16.7862 24.8185 16.8733 25.9449 16.8749 25.9519L22.0761 26.437C23.0666 26.4997 25.1862 26.5478 26.1497 26.398L29.0889 26.1271L30.5802 25.9769C30.7401 25.9628 30.9855 25.9838 31.1295 25.9241L31.1722 24.7477C31.067 24.7283 30.9478 24.7379 30.8404 24.7376L18.6943 24.738ZM16.7301 27.2742L16.2676 29.8645C16.1986 30.2201 16.1122 30.5911 16.0949 30.9533C17.2238 31.0885 17.2703 31.3868 18.1718 31.983C19.2091 32.6689 21.2205 32.6253 22.4159 32.6234L24.1228 32.6104L26.8945 32.4298L29.8403 32.0954C30.2391 32.0427 30.6511 32.0227 31.0468 31.9512L31.3304 31.9049L32.0496 31.7969L31.3463 27.9939C31.3103 27.7627 31.2918 27.5375 31.2242 27.3126L26.5165 27.8135L23.3541 27.9071L21.3922 27.8114L17.4675 27.3868C17.2234 27.3546 16.9681 27.34 16.7301 27.2742ZM15.8067 32.3765C15.6069 33.0155 15.3888 34.3521 15.3154 35.0047C15.6954 35.107 16.0787 35.0701 16.4602 35.2134C16.9394 35.3935 17.2045 35.7421 17.6133 36.0177C18.9996 36.9522 21.8696 36.6239 23.4689 36.4844L26.5901 36.1758L30.8906 35.4603C31.132 35.4081 31.4072 35.3741 31.6383 35.2913L32.6749 35.0467L32.3509 33.187L26.1657 33.9164L25.007 33.962C24.8348 33.9715 24.665 34.0025 24.4922 34.0093L22.518 34.0142C20.7466 34.0141 18.6733 34.0814 17.1517 33.0156C16.495 32.5556 16.8752 32.3417 15.8067 32.3765ZM15.0225 36.4213L14.4026 39.7924C14.913 40.4091 16.3416 40.6759 17.0719 40.5781C18.0328 40.4494 17.9242 40.4641 18.8809 40.5776C19.5552 40.6576 20.2267 40.6642 20.903 40.6273L21.7002 40.5851C22.5037 40.5037 22.8032 40.533 23.5987 40.5663C24.3413 40.5973 24.8135 40.4053 25.4871 40.1215C28.2431 38.9605 29.9321 41.5992 33.0761 40.1282L33.5791 39.8091L32.9867 36.4222L28.9102 37.2768L26.5664 37.6064L22.1102 38.0388L20.6953 38.0436C20.3648 38.0432 20.0265 38.0609 19.6992 38.0133L18.9428 37.9304C18.2067 37.8235 17.3509 37.6248 16.7621 37.1368C15.9126 36.4326 16.1902 36.4124 15.0225 36.4213Z" fill="black"/>
</svg>
