<svg width="48" height="48" viewBox="0 0 48 48" fill="none" xmlns="http://www.w3.org/2000/svg">
<path d="M32.8418 43.4742C31.2773 43.5864 30.5322 43.7184 29.2995 44.6143C28.408 45.2622 27.2355 45.592 26.1329 45.4306C24.7467 45.2277 24.3843 45.0156 22.8399 45.295L22.2304 45.4087C21.2902 45.6022 19.8838 45.3449 19.0857 44.8709C18.9178 44.7712 18.7751 44.6316 18.616 44.5184C16.8997 43.2972 15.0254 43.689 13.2205 43.2788C11.866 42.9709 11.0669 41.8352 11.3332 40.4919C11.5391 39.4532 11.8634 38.4418 12.1503 37.4237L16.0289 23.5309C16.1484 23.1269 16.1191 22.9746 16.0649 22.5577L15.2669 16.2317C15.2354 15.8446 15.1636 15.9323 14.8903 15.6779C13.697 14.5669 13.5333 13.5263 13.5318 12.0032L13.5332 9.41689C13.5418 7.90737 14.428 6.58859 15.9407 6.19845C16.243 6.12045 16.5522 6.10718 16.8523 6.02792C17.3037 5.99164 17.7746 6.01732 18.2278 6.01704L18.9245 6.01821C19.9 6.02304 19.7535 6.56834 20.0793 7.30456C20.625 8.53761 21.4894 9.37967 22.8182 9.7744C24.7489 10.348 27.0316 9.36584 27.835 7.49248C28.0413 7.0114 28.0718 6.33453 28.5821 6.06673C28.7661 5.97012 30.6059 5.98371 31.0313 6.02243C31.1442 6.0327 31.5248 6.13882 31.7087 6.16728C33.0577 6.37596 34.2082 7.4044 34.4001 8.79059C34.504 9.5404 34.4525 10.3459 34.4518 11.1019L34.4491 12.3543C34.4415 13.8334 34.0129 15.0019 32.7755 15.9276C32.7071 17.0441 32.5106 18.1487 32.3459 19.2536L31.8753 23.0153C31.8441 23.1984 31.9223 23.4537 31.9831 23.6307L32.3274 24.8633C32.3737 25.1049 32.4614 25.3681 32.5316 25.6052L32.7125 26.2822C32.7623 26.4908 32.8434 26.6957 32.8881 26.9059L33.1077 27.6735C33.2186 28.0043 33.2718 28.3617 33.3894 28.691L34.0144 30.8411C34.0428 30.9857 34.091 31.1564 34.1401 31.2975L34.9536 34.165C34.9784 34.3099 35.0282 34.4843 35.0776 34.6254L35.7022 36.7935C35.7707 37.1544 35.9961 37.9902 36.1083 38.3011L36.2688 38.8988C36.2882 39.0051 36.3365 39.1014 36.3586 39.2078L36.5506 39.9186C36.6085 40.2143 36.6862 40.5012 36.7098 40.8044C36.7932 41.8766 36.1177 42.8455 35.1054 43.1872C34.3914 43.4282 33.5861 43.3934 32.8418 43.4742ZM17.9565 7.3385L17.9263 10.0462C17.9248 10.9257 17.8984 11.6419 17.6341 12.4932C16.788 15.2184 16.4115 14.8187 16.8322 17.8501L17.3969 22.0256C17.4158 22.1607 17.4095 22.4038 17.469 22.5155L30.5595 22.52L30.9437 19.4284L31.2559 17.1752C31.5661 14.7143 30.7749 14.4073 30.2343 12.2341C30.0039 11.3075 30.022 10.4017 30.0213 9.45546L30.0207 7.34698L29.39 7.33976C28.9703 8.52753 28.2848 9.55254 27.2462 10.2864C24.4893 12.2341 20.3377 11.1883 18.9133 8.09473C18.8056 7.86096 18.7045 7.61178 18.6436 7.36123L17.9565 7.3385ZM31.4384 7.49023L31.4183 9.37264C31.4176 10.4165 31.3972 11.3663 31.7363 12.363L32.1807 13.6286C32.2668 13.8813 32.3496 14.1451 32.4604 14.3877C32.5384 14.292 32.634 14.1937 32.6934 14.0858C32.9257 13.694 33.023 13.331 33.0241 12.8818L33.0232 9.45448C33.0204 8.3997 32.5589 7.80725 31.5161 7.51025L31.4384 7.49023ZM16.478 7.53486C15.96 7.64754 15.4666 7.87376 15.1989 8.3105L15.1489 8.3974C14.9456 8.75515 14.9249 9.12223 14.9254 9.52132L14.9656 12.7665C15.0031 13.3719 15.0033 13.5145 15.3067 14.0917L15.3605 14.1773C15.4075 14.245 15.4677 14.3039 15.5247 14.363L15.5315 14.3312C15.7201 13.4714 16.1564 12.6803 16.3818 11.8267C16.5699 11.1144 16.5241 10.4024 16.5245 9.67236L16.478 7.53486ZM17.333 23.993L14.3275 34.6169C14.3035 34.7022 14.2625 34.7971 14.256 34.8847C14.986 35.0865 15.7738 35.2347 16.5235 35.3369C17.1113 35.4172 17.7066 35.4442 18.2883 35.5662C19.8013 35.8834 20.3245 36.5597 22.1043 36.329L23.168 36.1621C23.5629 36.0868 23.9215 36.0003 24.3278 36.0026C25.825 36.0112 26.4719 36.5861 28.1837 36.161C28.6766 36.0386 29.1439 35.8322 29.6313 35.692C30.6895 35.3561 31.8154 35.2887 32.9037 35.0903L33.4593 34.9841C33.5539 34.9641 33.6643 34.953 33.7521 34.9122L30.7803 24.3967C30.7472 24.2641 30.747 24.1059 30.6649 23.9931L17.333 23.993ZM13.8744 36.2462L13.6517 37.04L16.5543 37.4751C16.8884 37.5189 17.2322 37.4956 17.5685 37.5191C18.6927 37.5977 19.1591 38.0713 20.0791 38.4041C21.2912 38.8425 22.5734 38.458 23.8246 38.4312L25.7167 38.4582C26.7556 38.5145 27.3224 38.6752 28.4063 38.2437C29.2571 37.9049 29.9112 37.6125 30.8361 37.5273L31.721 37.486C32.5038 37.4202 33.3456 37.3035 34.0931 37.0571L34.3554 36.9895L34.1597 36.2571L31.9279 36.6288C31.3375 36.7156 30.7411 36.7548 30.1578 36.8885C28.5062 37.2673 27.8556 37.799 25.9201 37.5531C24.4874 37.3711 24.3646 37.3801 23.004 37.5695C22.3393 37.662 21.5765 37.7301 20.9031 37.655C20.0095 37.5554 19.2087 37.1138 18.3399 36.9154C17.6688 36.762 17.0152 36.7897 16.3456 36.696C15.5158 36.5799 14.7024 36.3522 13.8744 36.2462ZM34.6969 38.3786C34.0021 38.5288 33.296 38.6957 32.5899 38.7822C31.8338 38.8748 31.0474 38.8537 30.3023 39.0205C29.764 39.1409 29.3311 39.3748 28.8265 39.5779C27.8152 39.9849 26.8738 39.9668 25.8068 39.8467C24.904 39.7451 23.9892 39.7623 23.0858 39.8472C21.8184 39.9663 20.3663 40.1827 19.1937 39.5337C18.5113 39.156 18.3495 39.0819 17.5725 38.9204L13.2833 38.3759L12.9918 39.4919C12.7764 40.2879 12.1712 41.5753 13.3829 41.9024L13.9869 41.9946L15.6361 42.1768C16.735 42.3176 17.7528 42.4284 18.7383 42.9834C19.2905 43.2943 19.8126 43.8 20.4207 43.9699C21.6229 44.3057 22.039 43.9271 23.096 43.8124C23.3545 43.7844 23.6235 43.794 23.8835 43.7938L24.9024 43.8019C25.6918 43.8322 26.3775 44.2242 27.3056 44.0627C28.1015 43.9241 28.6884 43.2792 29.3799 42.9108C30.5819 42.2703 32.0548 42.1422 33.388 42.0304C34.2525 41.9579 35.642 41.9944 35.3247 40.6638L34.6969 38.3786Z" fill="black"/>
</svg>
