<svg width="48" height="48" viewBox="0 0 48 48" fill="none" xmlns="http://www.w3.org/2000/svg">
<path d="M39.5611 43.9375C39.6017 45.2598 37.1089 46.5315 36.0017 46.6584C35.3686 46.7309 34.6334 46.6565 34.0302 46.4751C32.2307 45.9343 31.9963 45.651 30.0061 46.5483C29.5234 46.766 29.0482 47.1649 28.5927 47.3135C27.1374 47.7878 26.6552 47.1639 25.5059 46.5999C24.5848 46.1476 23.4837 46.1555 22.5856 46.6656C22.2099 46.8789 21.8729 47.1597 21.4572 47.2975C20.0221 47.7728 19.1629 47.2427 18.222 46.2797C17.4511 45.4906 15.5049 46.3312 14.6912 46.5465C14.0559 46.7147 13.2247 46.7373 12.5722 46.6497C11.4543 46.4996 8.7556 45.1777 9.00718 43.8523C9.06803 43.5318 9.32429 43.2012 9.49103 42.9249L11.0124 40.2348L13.7747 34.3799L16.5547 28.061C17.6417 25.7884 17.9481 24.689 17.9492 22.2416C17.926 22.206 17.9079 22.1745 17.8706 22.1522C17.5055 21.9327 17.2157 21.4533 16.9635 21.1126C14.9697 18.4195 14.2781 14.7312 14.9392 11.4541L15.1674 10.4824C15.2702 10.0883 15.2854 10.2371 15.0722 9.91883C14.0901 8.45314 13.3391 6.21322 13.0363 4.50557C12.8026 3.18708 12.9323 1.87653 14.4429 1.3708C14.5986 1.31869 14.7576 1.29771 14.9194 1.27325C15.0087 1.24294 15.203 1.26202 15.2955 1.27785C16.1405 1.42254 16.851 1.94132 17.1794 2.75361L17.4448 3.66829C17.532 3.95805 17.5699 4.28555 17.6192 4.58498L17.7653 5.36689C17.9208 6.26501 18.0489 7.53008 18.0852 8.42548C18.0962 8.69708 17.9924 8.94078 18.2236 8.98166C19.4627 9.20089 20.401 10.1662 21.3274 10.9538C21.898 11.4388 22.4648 11.9218 22.9915 12.4555L24.1439 13.7175L24.722 13.0156C25.5359 12.1156 28.3756 9.51181 29.5806 9.0912L29.6114 9.0807C29.7578 9.02998 29.9054 9.01409 30.0581 8.9923C30.1178 8.64317 30.0931 8.26123 30.1243 7.90475L30.6294 3.84868C30.7012 3.38181 30.7689 2.91927 31.002 2.50051C32.2086 0.332932 35.3091 1.1052 35.0767 3.99026C34.9695 5.32184 34.4543 7.00198 33.9183 8.25228L33.4059 9.356C33.3143 9.56722 33.2962 9.56731 33.358 9.78819L33.7587 11.3455C33.9791 12.0168 34.0316 13.3164 34.031 14.0119C34.0291 16.3565 33.2699 18.8656 31.9486 20.82C31.6239 21.3002 31.2241 21.686 30.8552 22.1257L30.8581 24.1755C30.8755 24.5893 30.9249 25.0696 31.032 25.4645L31.3093 26.32C31.5359 26.9875 31.9052 27.6207 32.1682 28.277L35.45 36.1516L38.3037 41.7719L39.1136 43.113C39.284 43.3873 39.4604 43.6284 39.5611 43.9375ZM15.0257 2.74595C14.1297 3.00649 14.3434 3.99577 14.552 4.70455L14.9552 6.11689L15.5836 7.71795C15.7742 8.11034 15.9428 8.49903 16.178 8.87023C16.2704 9.06739 16.414 9.08778 16.6195 9.00467C16.618 8.726 16.6253 8.44105 16.6053 8.16327L16.5247 7.41767C16.4579 6.51655 16.3258 5.63211 16.1621 4.74317C16.0427 4.09466 15.9699 2.7334 15.0468 2.74445L15.0257 2.74595ZM32.8802 2.74341C32.2977 2.92203 32.1767 3.3494 32.0847 3.89293L31.652 7.34736C31.5989 7.87236 31.5325 8.40106 31.5212 8.9292L31.9792 8.93014C32.0123 8.8663 32.0655 8.78759 32.0695 8.71601C32.3795 8.07359 34.8758 2.58168 32.8802 2.74341ZM16.6491 10.3849C16.2592 12.7786 15.8555 13.8283 16.4178 16.4156C16.4671 16.6424 16.5456 16.8643 16.6023 17.0892L16.8289 17.7653C17.7159 19.9588 19.196 22.3229 21.8248 22.3275L26.4186 22.3269C26.6983 22.3265 27.0049 22.3471 27.281 22.3059C29.9167 21.9122 31.3779 19.3492 32.1287 17.0456C32.6726 15.1442 32.6969 13.3723 32.3003 11.4616L32.1301 10.751C32.1041 10.6437 32.0902 10.5023 32.0426 10.4045L30.7911 10.3859C30.6154 10.3867 30.3909 10.3595 30.2225 10.4068C29.819 10.5204 28.475 11.6329 28.1244 11.9144L26.2872 13.5365C25.9863 13.838 25.6865 14.1571 25.4251 14.4938C24.1746 16.1044 24.1376 16.0765 22.9803 14.6757L22.2685 13.8703C21.4319 12.9466 20.4587 12.1365 19.4914 11.3545C18.7417 10.7485 18.5807 10.3867 17.6271 10.3847L16.6491 10.3849ZM29.3883 23.0739C28.3238 23.721 27.446 23.8079 26.2991 23.8089L22.1796 23.809C20.8232 23.8078 20.7042 23.7824 19.4192 23.2291C19.3484 23.4583 19.3825 23.724 19.3532 23.9637C19.1052 25.9976 18.7584 26.8129 17.8904 28.6391L13.7004 38.099L10.8989 43.4506C10.8036 43.6116 10.6329 43.814 10.5778 43.9821C13.6048 46.8135 15.1526 43.7728 18.2212 44.6473L19.1958 37.6221C19.5411 34.9019 19.9018 32.1809 20.4988 29.5019L20.8529 27.9779C20.9692 27.5082 21.023 26.9416 21.5624 26.7907L21.5918 26.7818C21.9878 26.669 22.2824 26.9431 22.4053 27.2927L22.4187 27.3294C22.5489 27.7001 22.3052 28.2179 22.2216 28.5817L21.1143 34.2643L19.838 43.6191C19.7991 43.8466 19.5259 45.467 19.57 45.5565C19.7467 45.9146 20.6898 46.048 21.0803 45.8126L21.7277 45.3861C22.3367 45.0212 22.8349 44.9606 23.4966 44.8258L23.5106 32.035L23.5134 27.8399C23.5139 27.4932 23.4741 27.2372 23.7418 26.9733C24.1316 26.589 24.6485 26.7008 24.8893 27.152L24.9054 27.1813C24.9481 27.2641 24.9507 27.3584 24.9537 27.4496L24.952 43.6882C24.952 44.0764 24.9324 44.4784 24.9695 44.8644C25.4101 44.9973 25.8423 45.0794 26.2646 45.2777C27.0895 45.6651 27.1672 46.1858 28.2456 45.7966C28.3384 45.7631 28.4406 45.7167 28.5084 45.6431L28.3775 43.1366C28.3269 42.1241 28.403 40.9684 28.2593 40.0178C28.2294 39.8202 28.2389 39.6105 28.237 39.4108L28.2063 38.487C28.0972 36.9523 27.9825 35.3998 27.7378 33.8789L26.4948 28.0703C26.4506 27.8799 26.3834 27.6746 26.3675 27.4802C26.322 26.922 27.4284 26.0349 27.8568 27.5739L28.1606 28.736C28.2288 28.9605 28.2671 29.1984 28.3253 29.4255L29.0252 32.6974L29.3536 35.0271L29.6444 38.1935C29.6597 38.3799 29.6924 38.5623 29.7019 38.75L29.7165 39.692C29.725 40.0834 29.6787 40.5141 29.7355 40.899L29.9203 44.9476C30.9714 44.4976 32.207 44.3644 33.3153 44.6696C34.5692 45.0149 35.2184 45.5346 36.6347 44.9613C37.0933 44.7756 37.6249 44.401 37.9569 44.0368L35.4543 39.5931C33.8509 36.4132 32.5522 33.0853 31.22 29.7857L30.375 27.8447C29.5182 25.9263 29.4076 25.0887 29.4137 23.0739H29.3883Z" fill="black"/>
</svg>
