<svg width="48" height="48" viewBox="0 0 48 48" fill="none" xmlns="http://www.w3.org/2000/svg">
<path d="M36.4746 43.0241C36.0616 43.064 35.6002 43.0698 35.1906 43.003C34.009 42.8102 33.4449 42.571 32.2777 43.4101C31.9377 43.6545 31.6371 43.946 31.2916 44.1837C29.7431 45.2489 27.5848 45.1883 26.0015 44.2433C25.0401 43.6695 24.5276 42.955 23.1651 43.4402L23.133 43.4519C22.7186 43.5991 22.4387 43.8577 22.09 44.1088C20.5061 45.2492 18.1273 45.2954 16.5442 44.1375C16.1636 43.8592 15.8508 43.5012 15.4474 43.252C14.5152 42.6762 13.913 42.7887 12.9494 43.0038C12.0528 43.2039 11.1747 43.0764 10.3275 42.7364C9.40481 42.3661 9.33347 42.2075 9.45693 41.2976L10.6525 35.2156L11.6941 31.2322C12.4253 28.6223 13.2765 25.9983 14.4608 23.5545L15.1529 22.2245C15.5901 21.4436 15.602 21.3564 15.496 20.3608C15.3152 18.6615 14.3475 17.3426 13.6645 15.8419C13.1625 14.7389 12.4123 12.2831 13.1727 11.1326C13.7292 10.2906 13.9848 9.62616 13.9948 8.56932L13.9937 5.27209C13.9924 4.11095 14.0081 3.3873 15.4342 3.02595C15.7512 3.05395 16.1192 3.01825 16.441 3.01798L18.6599 3.01705C19.5654 3.017 20.4732 2.9956 20.6402 4.23029C20.6874 4.57875 20.6454 4.93295 20.6947 5.27987L20.699 5.30842C20.9607 7.15163 22.4128 7.38559 22.97 8.70685L23.0459 8.90298C23.0998 9.11434 23.159 9.26495 23.1637 9.49618C23.1749 10.046 23.0684 10.7552 23.7142 10.987C24.1274 11.1353 24.6485 10.9371 24.7767 10.4964L24.7887 10.4522C24.8385 10.2723 24.8219 10.08 24.8215 9.89476C24.8165 7.45182 27.107 7.45688 27.2962 5.18823C27.3292 4.7926 27.2691 4.34722 27.406 3.96988L27.4302 3.90142C27.8592 2.64531 29.503 3.01726 30.5867 3.01732C32.0821 3.01742 33.9958 2.69276 33.9996 4.77676L34.0024 8.0574C34.0027 9.24484 33.9697 9.73074 34.5656 10.762C34.7039 11.0014 34.8601 11.2013 34.9688 11.4608C35.5014 12.7313 34.7223 15.1491 34.1364 16.2697C33.5233 17.4423 32.7836 18.6707 32.5378 19.9896C32.4119 20.6648 32.2777 21.3006 32.6552 21.8854C32.7885 22.0918 32.9019 22.3075 33.0119 22.527L34.3804 25.4654L34.8031 26.6131C34.9401 26.989 35.1073 27.356 35.2265 27.7381L36.2643 31.0758C36.2872 31.1891 36.3347 31.2917 36.358 31.405L36.5522 32.1306C36.5957 32.3813 36.681 32.6602 36.7506 32.9061L36.8504 33.3279C36.8825 33.4482 36.9118 33.581 36.9523 33.6982L37.2965 35.037L38.568 41.5849C38.672 42.5495 37.2032 42.9515 36.4746 43.0241ZM28.6872 4.45481C28.6852 5.85254 28.2442 7.21979 27.2173 8.23374C26.9555 8.49231 26.6429 8.67971 26.4192 8.97816L26.4007 9.00188C26.0147 9.50879 26.2456 10.1083 26.1235 10.6712L26.1174 10.7014C25.677 12.8146 22.631 13.1254 21.8813 10.7667C21.7835 10.4589 21.8058 10.0814 21.7988 9.76084C21.7827 9.02204 21.334 8.7302 20.8254 8.25348C19.695 7.19377 19.3789 5.92937 19.3041 4.45923L15.3201 4.47261L15.349 6.68945C15.3555 8.21954 15.445 9.80724 14.7153 11.2101C14.3772 11.8602 14.0995 12.047 14.2011 12.8334C14.2332 13.0815 14.4167 14.3335 14.5561 14.5037L14.7316 14.9953C15.2553 16.4247 16.4653 17.5626 18.0299 17.6448C18.8398 17.6874 19.674 17.6491 20.4863 17.6492L28.3902 17.6489C29.8441 17.6485 30.514 17.7104 31.8426 16.9127C32.9903 16.2234 34.0475 13.5704 33.7846 12.2274C33.708 11.8358 33.4358 11.4942 33.2475 11.1515C32.955 10.6195 32.7316 9.97829 32.6494 9.37482L32.5927 8.7737C32.5217 7.98948 32.7472 7.56277 32.6922 6.87001L32.6504 5.00279C32.6493 4.84149 32.6694 4.63835 32.6366 4.48179C32.2828 4.44335 31.9142 4.4672 31.5585 4.46944L29.7827 4.47137C29.4199 4.47075 29.0487 4.48292 28.6872 4.45481ZM31.4627 18.5975C30.3374 19.0454 29.9115 19.0181 28.758 19.0156L17.6778 19.0131C17.5628 19.0101 17.4646 18.9917 17.3549 18.9572L16.4798 18.6598L16.6253 19.2182C16.7454 19.5718 16.767 20.0017 16.7899 20.3727L16.8395 20.921L31.1403 20.9191C31.153 20.1785 31.2502 19.455 31.4577 18.7428C31.4731 18.6901 31.5075 18.6422 31.4664 18.5999L31.4627 18.5975ZM16.746 22.1049L16.032 23.4354C14.2822 26.8144 13.246 30.4742 12.2908 34.141L11.7089 36.5455C11.6377 36.8644 11.6093 37.211 11.5181 37.5203L13.197 37.5192C14.4403 37.5192 14.8372 37.5609 15.9798 38.1521C16.2474 38.2906 16.509 38.4531 16.7893 38.5652C18.3501 39.1897 20.2885 39.0365 21.8619 38.5851C23.8715 38.0086 23.8523 37.991 25.8478 38.5743C27.2311 38.9786 28.7558 39.1205 30.1704 38.7825C30.4744 38.7127 30.788 38.6435 31.0783 38.5273C32.911 37.7937 32.8333 37.5198 34.8449 37.5185L36.4545 37.4965C36.404 37.284 36.386 37.0643 36.3426 36.8498L35.9706 35.1926C35.0405 31.2978 33.9166 27.3851 32.1396 23.7846C31.8644 23.2269 31.5975 22.6506 31.2749 22.1188C31.1774 22.0931 31.0583 22.1067 30.9569 22.1063L16.746 22.1049ZM11.2481 38.9256C11.1857 39.1174 11.1644 39.3061 11.1241 39.5083L10.8146 41.4078C11.4758 41.9757 12.3324 41.7258 13.0731 41.5398C14.1415 41.2715 15.369 41.5813 16.272 42.1921C17.5726 43.0718 17.6655 43.5673 19.446 43.5508C20.5101 43.541 20.9124 43.2085 21.7493 42.6549C23.5696 41.4505 24.9348 41.8474 26.6072 42.9824C27.6964 43.7215 29.4271 43.7775 30.538 43.0302C30.8703 42.8066 31.1618 42.5272 31.4907 42.2982C32.3347 41.7106 33.525 41.2872 34.5657 41.4701L34.9517 41.5609C35.4526 41.7082 36.82 41.8614 37.1787 41.3995C37.1602 41.153 36.8828 39.0908 36.7638 38.9207L34.6065 38.9297C33.0116 38.9334 33.2705 38.9498 31.8326 39.6039C30.1775 40.3567 27.7687 40.4378 26.0144 39.9513C25.3088 39.7557 24.6733 39.4237 23.9236 39.4182C23.1565 39.4127 22.5093 39.7495 21.7888 39.947C20.0984 40.4104 17.6167 40.4097 16.0683 39.6495C14.7496 39.0021 14.9418 38.9308 13.4852 38.9296L11.2481 38.9256Z" fill="black"/>
</svg>
