<svg width="48" height="48" viewBox="0 0 48 48" fill="none" xmlns="http://www.w3.org/2000/svg">
<path d="M14.4719 43.3578L14.4782 43.3626C15.334 43.7878 15.8416 43.3642 16.5856 43.057C17.4836 42.6862 18.6486 42.9559 19.2661 43.713C19.5361 44.044 19.7142 44.4072 20.06 44.6735C20.8687 45.2961 21.8541 45.052 22.5533 44.4187C23.2922 43.7495 24.4342 43.7048 25.2347 44.2925C25.3905 44.4069 25.5251 44.544 25.6772 44.6619C26.4072 45.2274 27.558 45.1074 28.1689 44.4215C28.3016 44.2726 28.4071 44.0973 28.5282 43.9386C29.306 42.919 30.6219 42.6151 31.7544 43.1897C32.4477 43.5414 33.0893 43.7181 33.7892 43.2165C34.4952 42.7104 34.545 42.1105 34.5153 41.3316C34.509 41.1659 34.4757 40.9941 34.5112 40.8291C34.6404 40.2285 35.4461 39.9784 35.7737 40.5449C36.0147 40.9616 36.0476 41.99 35.9161 42.4773L35.5892 43.35C34.9038 44.6486 33.1479 45.3697 31.7619 44.801C31.3241 44.6214 30.7637 44.2188 30.2709 44.3767L30.2342 44.3891C29.71 44.5606 29.2396 45.8334 27.9836 46.2633L27.8333 46.3157C26.7278 46.6862 25.3701 46.4385 24.5174 45.6196C23.9866 45.1099 23.8033 45.3222 23.3488 45.694C21.8676 46.9055 19.3327 46.7125 18.3334 44.9623C17.8909 44.1874 17.504 44.1922 16.7098 44.6205C15.1126 45.4817 13.0081 44.7792 12.2895 43.0798C11.7405 41.7814 12.167 40.3774 12.4367 39.0621L12.994 36.2726C13.7667 32.574 14.5298 28.338 16.0283 24.8511L17.005 22.5505C17.1734 22.1229 17.0676 21.5316 17.068 21.0792L17.0677 19.9202C17.0652 18.1552 16.4395 17.1174 15.7154 15.5964C14.6889 13.4404 13.702 11.0038 14.1819 8.57744C14.5629 6.65107 15.4191 6.65125 15.1258 4.18919C15.0013 3.14404 14.6216 2.61751 14.3449 1.74865L14.3154 1.65702C14.1823 1.19485 14.6044 0.886567 14.9947 0.778454C15.5119 0.743312 16.0425 0.765498 16.561 0.765695L17.062 0.767528C17.7273 0.773214 17.7982 1.26496 18.0354 1.78502C18.7502 3.35166 20.312 4.72174 21.8864 5.34391C25.0266 6.58479 28.6969 4.64483 29.9907 1.63994C30.1266 1.32421 30.1499 1.04713 30.4704 0.861376L30.5037 0.842481C30.7033 0.72745 30.9302 0.767031 31.1519 0.766347L32.1676 0.766C32.6475 0.766543 33.2192 0.628342 33.4575 1.1798L33.4689 1.2071C33.666 1.66376 33.3973 1.74572 33.2951 2.12147C33.2497 2.28858 33.2258 2.46719 33.1838 2.63679L32.9132 3.81813C32.5996 5.52386 32.8988 6.11275 33.5225 7.59799C34.5465 10.0366 33.5569 12.6869 32.5706 14.9548C31.7668 16.8032 30.9408 17.891 30.9376 19.9816L30.9392 21.9193C30.9422 22.4373 31.0524 22.8071 31.2646 23.2852L31.8296 24.533C32.2146 25.4044 32.5198 26.2938 32.8125 27.1993L33.0867 28.1238C33.1127 28.2179 33.1517 28.3069 33.1708 28.4033L33.3586 29.1051C33.3958 29.3042 33.4615 29.5112 33.5165 29.7071L34.3121 33.293C34.3674 33.5381 34.433 33.7967 34.4463 34.0489C34.474 34.5734 33.9563 34.9624 33.4526 34.7705C33.0038 34.5994 32.98 33.9869 32.8973 33.5906L32.7338 32.8069C32.5933 31.9626 32.3809 31.1201 32.177 30.2885L31.8526 28.9688C31.51 27.7336 31.1027 26.5198 30.6136 25.3348L29.7401 23.4612L25.9334 23.61L19.5115 23.5291C19.0781 23.515 18.682 23.5034 18.2529 23.4304C17.8621 24.3359 17.3875 25.2065 17.046 26.1337C16.3552 28.0089 15.8555 29.9464 15.4126 31.8927L13.6883 40.1251C13.4154 41.4041 13.1211 42.6176 14.4719 43.3578ZM16.3294 2.23667L16.16 2.25343L16.1746 2.349C16.2172 2.64566 16.3479 2.97467 16.4211 3.2696C16.792 4.7629 16.7028 6.24602 16.0445 7.63122C15.901 7.93324 15.7534 8.23286 15.6577 8.55475C15.4057 9.40207 15.3746 10.6235 15.6684 11.4682L15.7974 11.9063C15.8333 12.006 15.8437 12.1109 15.8823 12.2098L16.4093 13.6355C16.4763 13.8453 16.596 14.0589 16.6854 14.2618L17.5705 16.0832C17.7578 16.4715 17.9313 16.8872 18.0656 17.2969L18.2266 17.8302C18.3195 18.1008 18.3349 18.4017 18.4039 18.6776C18.5325 19.1918 18.3289 19.0654 18.9842 19.15L19.7285 19.2506C20.8735 19.4051 21.7897 19.5149 22.9397 19.5169L24.8476 19.5172C25.6946 19.5163 26.3439 19.5034 27.1785 19.4072L28.9803 19.1559C29.1794 19.1216 29.3771 19.1044 29.5702 19.0415C29.7062 17.2159 30.6131 15.8399 31.3406 14.2098C32.1483 12.3206 33.014 10.1639 32.1935 8.12458C32.0089 7.66591 31.7669 7.23443 31.6157 6.76179C31.1583 5.33266 31.363 3.66512 31.7912 2.2534L31.3459 2.25297C30.6478 4.23145 28.6392 5.76358 26.8006 6.60897L26.7039 6.64905C23.0149 8.10461 19.355 6.4631 17.1912 3.25089C16.9778 2.93402 16.7978 2.59217 16.6694 2.232L16.3294 2.23667ZM18.4773 20.524L18.4693 21.5C18.4697 21.678 18.4584 21.8652 18.4846 22.0414L20.1167 22.0628C20.332 22.0693 20.5434 22.1156 20.7614 22.122L26.7879 22.1244C27.0027 22.1176 27.2105 22.071 27.4256 22.0628C28.1256 22.0358 28.8546 22.1124 29.5493 22.034L29.5492 21.7559L29.543 20.5453C29.2763 20.5716 29.0191 20.6376 28.7554 20.6809L27.2657 20.8761C26.2114 20.9762 25.164 20.9801 24.1065 20.9802L22.3215 20.9752C21.3496 20.9443 19.424 20.8224 18.4773 20.524Z" fill="black"/>
<path d="M34.6485 37.7423C34.0884 37.7564 33.5999 37.2648 33.765 36.6812L33.7727 36.6561C33.8669 36.3379 34.1115 36.1059 34.4502 36.0791C34.7407 36.105 35.0126 36.1945 35.1567 36.4762L35.2497 36.6679C35.3005 36.7903 35.3309 36.9865 35.2869 37.1173L35.2208 37.2888C35.099 37.5349 34.8981 37.6533 34.6485 37.7423Z" fill="black"/>
</svg>
