<svg width="48" height="48" viewBox="0 0 48 48" fill="none" xmlns="http://www.w3.org/2000/svg">
<path d="M36.5419 44.2098C35.9285 44.845 35.1539 44.9779 34.3221 44.979L33.3237 44.9677C32.2938 44.933 31.4109 45.0219 30.4672 45.4918L29.6535 45.9214C28.6048 46.4123 27.5694 46.5984 26.4285 46.5968L25.5803 46.5723C25.0216 46.5421 24.6071 46.4816 24.0061 46.4807L20.4424 46.4801C19.0527 46.4771 18.2889 45.8096 17.096 45.3004C15.6812 44.6963 14.5236 45.1275 13.1992 44.9702C11.769 44.8005 10.386 43.6971 10.8364 42.1421L12.8683 34.6988L13.3331 33.1077L15.1137 26.0866C15.4617 24.9796 15.886 23.8794 16.3638 22.8219L17.1538 21.1635C17.2604 20.9073 17.1911 20.8166 17.1274 20.5557C16.7853 19.1536 16.2651 17.7937 15.8685 16.4058C15.4528 14.9512 14.666 11.4534 15.2634 9.96052C15.4135 9.58542 15.7746 9.129 15.7907 8.71908L15.7918 2.77839C15.7924 2.22531 15.7361 1.74876 16.3436 1.52566C16.6936 1.50663 19.6466 1.47941 19.7688 1.54096C20.3593 1.8383 20.2213 2.7117 20.2218 3.2562L20.2233 4.77347C20.2272 6.78244 21.3033 8.1315 23.254 8.68913L23.407 8.72128C25.5055 8.99414 27.5261 7.52105 27.7621 5.3821C27.7927 5.10455 27.7779 4.81214 27.7779 4.53293L27.7776 3.1665C27.7776 2.03692 27.5727 1.51884 28.9923 1.51677L31.227 1.51678C31.5758 1.51667 31.8599 1.47969 32.0735 1.82292L32.09 1.8501C32.3175 2.21445 32.1952 3.41394 32.1945 3.87684L32.2014 8.19099C32.2282 9.16397 32.624 9.35161 32.9286 10.1715L32.9552 10.2418C33.4315 11.2076 32.5957 14.6847 32.3224 15.691L31.5723 18.234C31.4169 18.7373 30.6709 20.6636 30.7984 21.0699L32.6953 25.6168L33.7339 28.9636C33.7428 29.0104 33.7495 29.049 33.7655 29.0941L33.9263 29.6949C33.9836 30.0599 34.1374 30.4186 34.2019 30.7847L35.3257 35.3316C35.4787 36.177 35.8216 36.9825 35.9835 37.8236L36.4518 39.6207C36.6382 40.6793 37.3871 42.298 37.0838 43.2936L37.0708 43.335C36.9708 43.6612 36.7776 43.9657 36.5419 44.2098ZM17.2079 2.97704L17.1829 7.00608C17.1825 7.63688 17.2267 8.30255 17.1673 8.92852C17.127 9.35386 16.7987 9.72539 16.6051 10.0894C16.3129 10.6387 16.3166 11.6461 16.4474 12.2752L17.0714 15.532L18.2214 19.4137C18.3168 19.6736 18.3562 20.0918 18.4739 20.3153L29.4233 20.3167L31.402 13.6285C31.6527 12.1922 32.0659 11.0099 31.2429 9.70514C30.7063 8.85469 30.7932 7.96791 30.7927 7.01025L30.7811 2.97686L29.1921 2.97882C29.2345 3.58313 29.246 4.5575 29.1966 5.15953C29.0045 7.50263 27.4901 9.48788 25.1618 10.0277C22.212 10.7117 19.3941 8.724 18.8854 5.78185C18.8196 5.40099 18.8035 4.97686 18.7878 4.58998L18.7777 2.99315C18.7255 2.95048 17.3893 2.97695 17.2079 2.97704ZM18.3749 21.694L17.4363 23.8355C16.9103 25.0799 16.4373 26.3353 16.0612 27.6335L15.0636 31.5058C15.0087 31.7603 14.9639 32.0221 14.8893 32.2715L15.8936 32.2605C16.4174 32.2635 16.9357 32.3868 17.4193 32.5944C17.9609 32.827 18.4482 33.1372 19.0139 33.3199C19.6622 33.5294 20.3207 33.5709 20.9853 33.6884L22.2889 33.9774C23.1726 34.1918 24.0492 34.2486 24.9556 34.1094L27.0702 33.6799C27.6776 33.5731 28.2713 33.5355 28.8687 33.3643C30.6778 32.7355 30.7377 32.1161 33.0873 32.2813L32.7755 30.8845C32.0747 28.1187 31.1925 25.4292 30.0304 22.8212L29.6956 22.0585C29.6471 21.9418 29.6132 21.8171 29.5574 21.7044L18.3749 21.694ZM15.5467 33.6418C15.2013 33.678 14.8647 33.7608 14.5298 33.851L12.7919 40.1134C14.4212 41.5556 16.6233 39.6913 18.5741 41.1365C18.8269 41.3237 19.0312 41.5771 19.2911 41.7529C20.6046 42.6412 22.9205 41.9775 24.5387 42.0653C26.0451 42.147 27.552 42.5916 28.8672 41.6013C29.0726 41.4467 29.2569 41.2649 29.4639 41.1126C30.4193 40.4101 31.3126 40.4666 32.3889 40.623C33.334 40.8345 34.315 40.5941 35.1355 40.1083L33.6299 34.2848C33.5973 34.1558 33.577 33.9853 33.5138 33.8701C32.6142 33.5913 31.7364 33.5254 30.8699 33.9835C29.8986 34.4972 29.2628 34.7954 28.1154 34.937C27.7253 34.9852 27.3337 34.9991 26.9447 35.0633C26.3461 35.1622 25.7655 35.3841 25.1653 35.4926C23.3786 35.8157 22.5836 35.3657 21.0151 35.0759C19.7092 34.8346 18.9188 34.9298 17.606 34.2463C16.8726 33.8645 16.4063 33.6157 15.5467 33.6418ZM35.5158 41.5191C34.7047 41.99 33.3936 42.1959 32.4457 42.0498L31.7413 41.9545C30.6899 41.8221 30.4089 42.2588 29.5904 42.8235C27.6299 44.1762 25.7869 43.425 23.6812 43.4305C23.1694 43.4318 22.6926 43.5148 22.1877 43.5743C20.807 43.7369 19.331 43.5836 18.2114 42.6866C18.0477 42.5555 17.903 42.3958 17.7324 42.2746C16.8423 41.6422 15.7642 42.0714 14.7632 42.0746C13.8131 42.0777 13.2752 41.9755 12.3836 41.5537L12.2528 42.1636C12.1961 42.4122 12.0759 42.7183 12.2154 42.9579C12.3881 43.2441 12.6603 43.4293 12.9848 43.5077L13.3654 43.5802C13.7186 43.6435 14.1166 43.5451 14.4728 43.5262C15.5527 43.4691 16.7451 43.5705 17.7339 44.0453C18.3715 44.3516 18.9535 44.7813 19.6405 44.9782C20.6476 45.267 21.7682 45.1137 22.7985 45.075L24.0586 45.0691C25.8971 45.0899 27.1148 45.5565 29.0121 44.6955C29.35 44.5422 29.6687 44.3491 29.9999 44.1825C31.2411 43.558 32.6245 43.4513 33.9851 43.5721C34.5879 43.6256 35.3343 43.5703 35.6903 43.0056C35.9142 42.6503 35.6997 42.032 35.6088 41.6476L35.5158 41.5191Z" fill="black"/>
</svg>
