<svg width="48" height="48" viewBox="0 0 48 48" fill="none" xmlns="http://www.w3.org/2000/svg">
<path d="M36.7182 41.5214L36.7307 41.6485C36.7894 42.1961 36.3201 42.621 35.9416 42.9378C35.1129 43.6314 34.0135 44.0493 32.938 44.1379C32.4537 44.1778 31.9583 44.1155 31.4774 44.163C30.4744 44.2621 28.8121 44.6713 28.0568 45.4018C26.5686 46.841 22.1274 46.7219 20.3996 45.7487C19.9527 45.4969 19.9635 45.2544 19.4434 45.0183C18.4727 44.5779 17.4119 44.2015 16.3361 44.16L15.4154 44.1497C14.2805 44.0966 13.2085 43.7669 12.2814 43.1015C11.3295 42.4183 11.2852 42.1655 11.4997 41.1708L12.9358 33.5157C13.1651 32.2648 13.2453 30.9959 13.5127 29.75C13.9363 27.7756 14.6075 25.8267 15.406 23.9737C15.907 22.8112 16.8965 21.1242 16.6379 19.8258L15.5072 15.7547C15.0664 14.0389 14.8641 12.0986 15.442 10.3978C15.9113 9.01684 16.0051 9.0602 16.0064 7.58387L16.0073 3.94213C16.0075 3.35666 15.9605 2.86527 16.3563 2.37969C16.6765 1.98687 17.0853 1.73298 17.5918 1.6722C17.8517 1.60177 18.2598 1.72299 18.4927 1.84065C19.5957 2.39796 19.5704 3.50163 19.5716 4.55609L19.572 7.03993C19.5712 7.96853 19.4762 8.84087 19.7822 9.73834C20.5649 12.0348 23.2017 13.3344 25.4785 12.503C27.0798 11.9183 28.1612 10.5574 28.4735 8.89459C28.5722 8.36898 28.5233 7.77395 28.5235 7.2384L28.5243 4.44403C28.5246 3.41599 28.4801 2.17391 29.7271 1.7659L29.7658 1.75344C30.6349 1.4586 31.5817 1.90731 31.9122 2.7665C32.1028 3.26191 32.0407 3.81657 32.0406 4.33973L32.0404 7.27927C32.0407 8.92623 32.0198 8.87274 32.6262 10.4649C32.7518 10.7948 32.7487 11.1627 32.8371 11.4974C32.989 12.0726 32.7789 13.7446 32.6724 14.3962L32.2967 16.2041L31.2972 20.2107C31.1025 20.9226 31.6629 21.9829 31.9822 22.6066L33.134 25.2977L34.0487 27.9928C34.2697 28.5551 34.3128 29.1666 34.5077 29.7289C34.6461 30.128 34.6993 30.6315 34.7808 31.0547L35.012 32.519C35.0616 32.802 35.1047 33.0862 35.1514 33.3698L35.5856 35.6731C35.6551 36.0758 35.7414 36.4729 35.8085 36.8774L36.2351 38.9883C36.3143 39.3191 36.4155 39.7952 36.4579 40.1367L36.5712 40.7146C36.6455 40.9611 36.6845 41.2646 36.7182 41.5214ZM30.25 2.90782C29.7945 3.05016 29.7924 3.25688 29.7918 3.66806L29.7927 7.75876L30.3788 7.77109C30.5049 7.76682 30.6474 7.78112 30.7703 7.75271L30.773 3.73472C30.7723 3.303 30.827 2.9417 30.25 2.90782ZM17.6783 2.93331C17.308 3.0713 17.2311 3.2696 17.2305 3.63356L17.23 7.19617C17.2302 7.39492 17.2166 7.6044 17.2432 7.80104L17.9123 7.80226L18.301 7.80156L18.3011 3.84852C18.3007 3.44686 18.2631 2.9067 17.7265 2.93L17.6783 2.93331ZM29.7679 8.83834L29.7513 8.86309C29.6867 9.02265 29.6974 9.25342 29.6569 9.42774L29.3425 10.4063C27.3366 15.2043 20.6658 15.1731 18.6877 10.4116L18.3233 8.88357L17.5072 8.8846C17.4319 8.8847 17.2555 8.8637 17.2033 8.9109C17.1302 9.27648 17.0785 9.62532 16.9621 9.98228C16.7693 10.5736 16.4925 11.1168 16.4006 11.7422C16.3387 12.1633 16.3262 13.6101 16.4354 14.0234L16.791 15.7693L17.3522 17.5583C17.3761 17.6589 17.8491 19.4053 17.8577 19.4139L30.2267 19.4128C30.7136 17.1032 31.4933 14.8425 31.5543 12.4634C31.5842 11.2972 31.4393 10.9964 31.0863 9.90999L30.7939 8.85765L30.1554 8.83337C30.0325 8.82896 29.8872 8.81017 29.7679 8.83834ZM18.7114 20.6776L17.9321 20.6837C17.8704 20.9192 17.89 21.1574 17.8123 21.3985C17.4385 22.5579 16.91 23.6335 16.4362 24.7529L15.9681 25.979C15.3579 27.6149 14.8049 29.3375 14.532 31.0665C14.4311 31.7057 14.4026 32.3573 14.2897 32.9944L13.7297 36.3089L12.6561 41.751C13.3662 42.4387 14.5135 42.8379 15.4938 42.8731C16.9825 42.9267 17.5202 42.885 18.9588 43.4151C19.9603 43.7842 19.8794 44.1263 19.8811 43.021L19.8872 36.9585C19.8974 36.5923 19.9583 36.224 19.9762 35.856L20.0885 33.566L20.5626 28.6055L21.193 23.5095C21.2203 23.291 21.238 23.0488 21.308 22.8399C21.5618 22.0823 22.5932 22.4568 22.5487 23.168C22.531 23.4518 22.4479 23.747 22.4117 24.0312L21.6552 30.0998L21.1847 36.1871C21.1637 36.5656 21.124 36.9778 21.1089 37.3445L21.0976 42.9307C21.0975 43.141 21.0677 44.6196 21.0932 44.671C21.1468 44.7791 21.5331 44.9102 21.6547 44.9462L21.8493 44.9969C23.2411 45.2857 25.7548 45.4739 27.016 44.6842C27.0432 44.6671 27.0561 44.6484 27.0702 44.6202L27.0723 42.7075L27.0718 37.5196L26.8962 34.3136L26.2845 28.7258L25.5609 23.5928C25.4977 23.2685 25.4465 22.8737 25.6994 22.6196C25.9414 22.3764 26.3606 22.3378 26.5989 22.6055C26.773 22.8011 26.796 23.116 26.8227 23.3629L27.6691 29.7014L28.1285 34.2081C28.1723 34.7313 28.1638 35.6622 28.2668 36.0694C28.3156 36.2621 28.3092 36.4946 28.3139 36.6937L28.3227 43.0356C28.3225 43.2704 28.3095 43.5138 28.3332 43.7471C29.2021 43.4357 30.0161 43.0792 30.9422 42.9552C32.6606 42.7252 34.0092 43.1602 35.467 41.6813C35.4033 41.1472 35.2796 40.6136 35.1741 40.0859L34.4367 36.4688L33.4007 30.505L32.6956 27.8405C32.3445 26.6804 31.8901 25.5384 31.4163 24.4234L30.772 22.9518C30.433 22.1965 30.1346 21.5087 30.0539 20.6822L18.7114 20.6776Z" fill="black"/>
</svg>
