<svg width="48" height="48" viewBox="0 0 48 48" fill="none" xmlns="http://www.w3.org/2000/svg">
<path d="M32.8273 37.4281L32.8249 37.5854C32.7949 37.8958 32.554 38.2085 32.2229 38.2257L16.1661 38.2282C15.7579 38.2281 15.4929 38.2705 15.2467 37.8729L15.224 37.8358C15.1814 37.7672 15.1665 37.7043 15.1625 37.624L15.1154 33.3823C15.1094 32.9199 15.1549 32.3962 15.0716 31.9427L14.274 24.5053L12.4967 32.0742C12.2371 33.1559 11.988 34.1815 11.5012 35.1898C11.3487 35.5055 11.1553 35.8239 11.0363 36.1529C10.95 36.3917 11.1192 36.6208 10.9479 36.8742C10.6099 37.3743 9.87567 36.9908 9.4282 36.867L6.35372 35.973C5.76942 35.7907 5.57611 35.5915 5.73286 34.9392L6.61504 30.6976L7.20459 26.9882L7.77511 21.2256L7.91479 18.5661C7.92356 18.4274 7.95576 18.287 7.96518 18.1441L8.15104 15.3033C8.2935 13.514 8.56204 11.8618 9.75801 10.4179C11.2057 8.67024 13.3545 8.35707 15.4367 7.86868L16.6027 7.60032C16.8645 7.53418 17.1089 7.43973 17.3798 7.41451C17.9168 7.44024 18.0386 7.85326 18.3522 8.19235C19.5475 9.48484 21.106 10.0324 22.8168 10.2123C25.1604 10.4589 28.2712 10.0204 29.7723 8.04526C30.3121 7.33501 30.2311 7.29732 31.2453 7.56259L32.1096 7.76401C35.3191 8.49235 38.0587 8.87617 39.3386 12.3632C39.5751 13.0074 39.6791 13.689 39.7525 14.3672L40.0878 18.6992C40.1116 19.1146 40.0782 19.5773 40.1508 19.9824L40.6167 25.2378C40.6635 25.485 40.6648 25.7419 40.688 25.9922L41.8605 33.0586L42.2228 34.7182C42.5767 36.0433 41.6894 35.9781 40.6408 36.2829L38.5157 36.8999C38.1279 37.0101 37.6069 37.3132 37.235 37.0184C36.9037 36.7558 37.0858 36.43 36.956 36.1021C36.8625 35.866 36.724 35.6338 36.6089 35.4068C35.9729 34.1529 35.7668 33.1959 35.447 31.8362L34.1194 26.2007C33.9716 25.6262 33.7908 25.0185 33.7298 24.4292C33.5728 25.2109 33.5276 26.0159 33.4258 26.8058L33.0934 29.7114L32.9512 31.6769C32.9408 31.8078 32.9076 31.9381 32.9 32.0742L32.8703 33.877C32.8664 34.0512 32.8321 34.2217 32.8266 34.3945L32.8273 37.4281ZM17.2108 8.63668L14.8503 9.20434C10.5499 10.1657 9.57173 11.4698 9.25003 15.701L9.10607 17.2714L8.86809 21.7138L8.40131 26.6099L7.56511 31.8398L6.89315 34.9153L9.97026 35.8181C10.1192 35.3471 10.3555 34.9422 10.5656 34.4997C11.207 33.1486 11.4446 31.6164 11.7775 30.1707L13.4959 22.9914C13.6474 22.3741 13.856 21.8171 13.8043 21.1757L13.7291 20.4677C13.5813 19.3056 13.474 17.8913 12.6859 16.9508C12.5756 16.8193 12.4274 16.709 12.3277 16.571C12.0281 16.1563 12.4101 15.3294 12.9837 15.5619C13.1932 15.6468 13.3207 15.868 13.4482 16.044C14.2655 17.1708 14.6203 18.2527 14.7706 19.6131L14.8761 20.7127C14.9201 21.2426 15.0088 21.7682 15.1083 22.2897L15.3854 24.1562C15.7091 26.0782 15.8788 28.0293 16.0432 29.9703L16.1374 31.2925C16.1543 31.4887 16.1894 31.6783 16.1995 31.8764L16.2855 33.884C16.2914 34.1876 16.254 34.5068 16.2779 34.8061L31.7114 34.8229L31.8893 30.7096L32.0577 28.805L32.9507 21.822C33.2979 19.7329 33.1999 17.8723 34.5461 16.0429C34.6566 15.8928 34.7481 15.7384 34.9103 15.6391L34.9444 15.618C35.521 15.28 35.9183 16.0744 35.6879 16.5414C35.6163 16.6864 35.4704 16.8147 35.3638 16.9352C34.3972 18.0268 33.9937 20.7986 34.3244 22.258L36.6204 31.9165C36.9174 33.2657 37.1517 33.9057 37.7355 35.1093L38.0838 35.8425L41.1165 34.8986L40.1568 30.2335L39.4987 25.549L39.2117 22.582L38.6574 14.7275C38.2705 11.1667 36.8834 10.0814 33.4032 9.23767L30.7536 8.63213C30.3217 9.41134 29.9082 10.2078 29.3873 10.9336C27.4672 13.6091 24.017 14.7834 21.0396 13.1095C19.4756 12.2302 18.3048 10.7318 17.5094 9.14537C17.4553 9.03732 17.3263 8.63982 17.2108 8.63668ZM19.8819 10.6265C21.9365 13.1283 24.9833 13.4746 27.4066 11.3812L28.0422 10.6859C27.7171 10.8381 27.3465 10.9247 27.0002 11.0197C24.886 11.5998 22.4067 11.5922 20.3322 10.8159L19.8819 10.6265ZM23.5958 35.9485L16.2645 35.9506L16.2876 36.6711C16.2884 36.7913 16.2691 36.9315 16.2917 37.0487L24.4572 37.0509L31.7009 37.061L31.7089 36.2401C31.7087 36.1559 31.7253 36.03 31.6983 35.9514L23.5958 35.9485Z" fill="black"/>
</svg>
