<svg width="48" height="48" viewBox="0 0 48 48" fill="none" xmlns="http://www.w3.org/2000/svg">
<path d="M25.1432 11.3515C22.5501 11.913 19.6003 10.5754 18.6848 8.01168C17.6275 9.35011 16.113 9.7829 14.5035 10.1506L13.3408 10.4318C12.905 10.5321 12.4146 10.5935 12.0021 10.7646L11.9652 10.7802C11.5318 10.9608 11.2152 11.4232 11.1518 11.8805L9.01869 23.3511C8.94805 23.675 8.91496 24.0027 8.86002 24.3283L7.97797 30.0279L7.40929 34.5705L7.22901 36.714C7.19104 37.2458 6.99782 38.8999 7.1789 39.1516C7.31104 39.3354 7.73286 39.3497 7.93396 39.3962L10.4249 39.9548C10.7417 40.0175 11.0817 40.0476 11.2454 40.3675L11.2621 40.401C11.3211 40.5152 11.3365 40.6159 11.3064 40.7429L11.2806 40.8393C11.045 41.4613 10.0654 41.0791 9.61236 40.9773L7.45044 40.5081C5.90394 40.2496 5.95433 39.3099 5.99193 37.9236C6.00646 37.3885 6.07513 36.8724 6.11071 36.3393L6.59849 31.6447L7.81986 23.5188L8.74349 18.2697L9.93904 12.2588C10.2138 10.0282 11.0796 9.68962 12.995 9.28706L14.5068 8.94543C16.0401 8.57939 17.0269 8.19722 18.06 7.01001C18.3573 6.66848 18.4096 6.38822 18.5943 6.16781C19.2731 5.35758 21.6878 5.10768 22.7816 5.02584C24.0718 5.00882 25.3613 4.97901 26.6404 5.18353C27.2181 5.27592 28.9639 5.66273 29.3395 6.14287C29.4763 6.31767 29.5654 6.54829 29.6903 6.73626C30.9081 8.56837 32.7839 8.87864 34.8125 9.27206C36.3183 9.56409 37.3042 9.73176 37.8756 11.4142C38.0082 11.8046 38.013 12.2384 38.0746 12.6433L39.507 20.1152L40.7718 27.5179C40.8179 27.8349 40.8864 28.1503 40.9321 28.4668L41.5691 33.0054L41.9208 37.0943C41.9265 37.1666 41.9488 37.2351 41.954 37.3072L42.0014 38.4074C42.0686 40.3561 41.2476 40.3778 39.7972 40.6881L37.8764 41.0978C37.6705 41.1405 37.3907 41.2392 37.184 41.2257C36.576 41.1861 36.5074 40.3454 37.0433 40.0816C37.1947 40.0071 37.415 39.9793 37.5823 39.9507L39.1984 39.5978C41.1686 39.1669 40.9171 39.5745 40.8144 37.4472L40.3126 32.2502L39.1782 24.7806L36.88 12.3996C36.6287 10.7464 36.2275 10.7534 34.5944 10.4155C32.3884 9.95911 30.8666 9.759 29.2365 8.02687C28.5262 9.81586 27.0948 11.0539 25.1432 11.3515ZM23.0635 6.18937C22.4203 6.21722 20.0831 6.48464 19.623 6.91823C19.9063 9.42909 22.5216 10.5153 24.8099 10.2063C26.9672 9.71461 27.8045 8.95186 28.3208 6.90984C27.2702 6.46729 26.1638 6.24909 25.0273 6.19448L23.0635 6.18937Z" fill="black"/>
<path d="M34.8789 27.8959L35.0726 30.0283C35.1865 31.3869 35.1708 32.1332 34.9714 33.4926L34.5401 36.1681L33.7496 39.7973C33.2439 41.9876 32.1333 41.9516 30.1185 42.1963L25.9918 42.5442L21.8029 42.5445L16.8577 42.0994C15.7664 41.9921 14.7241 41.5637 14.3579 40.4141C14.2591 40.1041 14.2182 39.7679 14.1546 39.4488L13.0214 33.5278C12.7945 31.9727 12.8206 31.289 12.9257 29.7498L13.3998 23.9866C13.4364 23.4815 13.371 22.9789 13.9722 22.8307C14.6434 22.8839 14.5828 23.4357 14.5334 23.9709L14.025 30.3674C13.9731 31.142 13.946 31.5571 14.0274 32.32L14.4849 35.4145C14.5064 35.5188 14.5086 35.6273 14.5315 35.7309L14.8013 37.0131C14.8288 37.1827 14.8637 37.4715 14.9364 37.6145L33.0629 37.6133L33.8796 33.0434C34.065 31.5819 34.0206 31.0308 33.8772 29.5529L33.372 23.9777C33.3553 23.7739 33.2895 23.4635 33.353 23.2739C33.4325 23.0363 33.7233 22.7468 34.0004 22.8403L34.0313 22.8514C34.1884 22.902 34.3151 22.9659 34.393 23.1221L34.4077 23.1567C34.4978 23.3352 34.5377 24.0715 34.5637 24.3406L34.8789 27.8959ZM15.1945 38.7963C15.1724 38.8505 15.1828 38.9186 15.1993 38.9691L15.225 39.0305C15.3509 39.3566 15.3274 39.7354 15.4691 40.0668C15.7411 40.7028 16.3421 40.8372 16.9471 40.9162L20.9496 41.2867C23.7084 41.4837 26.464 41.3845 29.2153 41.095L30.8685 40.9113C31.2573 40.86 31.6218 40.8406 31.9719 40.6497L32.1303 40.5309C32.2844 40.4082 32.4059 40.2344 32.4847 40.0551L32.4967 40.0287C32.6673 39.6429 32.6411 39.1906 32.7715 38.796L15.1945 38.7963Z" fill="black"/>
</svg>
