<svg width="48" height="48" viewBox="0 0 48 48" fill="none" xmlns="http://www.w3.org/2000/svg">
<path d="M31.6989 38.9806L15.8583 38.9782C15.5083 38.9661 15.2217 38.7256 15.0919 38.407L15.0778 38.3718C14.9592 38.0951 15.0183 37.629 15.018 37.3266L15.0175 35.7548C15.0174 35.5085 15.1228 35.2756 14.8807 35.1446C13.5537 34.4261 12.8539 33.0871 12.4931 31.6868C12.4305 31.4439 12.3859 31.1782 12.2979 30.9443L12.2363 30.7494L8.51198 36.2055C7.45218 37.8456 5.31046 37.9191 3.80794 36.8932C3.56058 36.7243 3.33974 36.5207 3.09308 36.3496C2.50608 35.9425 1.86293 35.7667 1.70854 34.9533L1.67079 34.7219C1.59311 33.8385 2.3214 32.7247 2.6941 31.947L11.6988 13.593C12.501 12.0724 14.19 10.9202 15.8617 10.6218C17.1081 10.3994 16.9159 10.5562 17.9337 9.5234C18.1857 9.26775 18.3225 9.04823 18.7081 9.00811C19.1831 9.02934 19.3816 9.2925 19.7387 9.56296C20.2789 9.97204 20.8195 10.3785 21.4198 10.6964C23.5784 11.8395 25.7992 11.3786 27.7139 9.96693L28.4048 9.44109C29.281 8.74298 29.4055 8.90536 30.1198 9.58696C30.3008 9.75979 30.9731 10.4343 31.1995 10.5091C31.2977 10.5416 31.4724 10.5329 31.5817 10.5459C33.3781 10.7593 35.2734 11.7632 36.1802 13.3867L43.8749 29.0501L46.0308 33.6438C46.2187 34.0729 46.2901 34.5748 46.1661 35.0313L46.1561 35.0673C45.9598 35.7905 45.4153 35.9922 44.8591 36.3759L44.0884 36.955C43.4403 37.429 42.4768 37.8583 41.6459 37.7183L41.4613 37.6844C40.4009 37.4557 39.7678 36.6182 39.1936 35.7768L35.9804 31.0071C35.9175 30.9225 35.8491 30.8488 35.7921 30.7589L35.3681 32.3093C35.024 33.4852 34.0802 34.6507 33.0071 35.2338C32.8152 35.3381 33.1623 38.104 32.8785 38.5211L32.8556 38.554C32.5454 39.0075 32.2024 38.9813 31.6989 38.9806ZM29.1359 10.6654C28.7207 11.0052 28.3178 11.3437 27.8638 11.6323C25.1857 13.3345 21.9456 13.1394 19.4712 11.161C18.9839 10.7715 19.0332 10.5362 18.4864 10.9777L18.4046 11.0468C18.5911 11.7543 18.8269 12.3636 19.2465 12.9772C22.1319 16.8489 28.225 15.8819 29.5918 11.1049L29.1359 10.6654ZM17.1655 11.8717C15.5045 12.1072 14.3126 12.4208 13.2215 13.8682C12.7896 14.4411 12.525 15.1547 12.2054 15.795L8.55079 23.1188L4.88704 30.6901L8.98757 32.9519L11.6378 29.1566C11.7849 28.9552 11.7848 28.99 11.7337 28.748L10.5807 24.1076C10.5135 23.7589 10.6828 23.4913 10.9802 23.3249L11.0169 23.304C11.33 23.1364 11.7079 23.3009 11.8665 23.5961L11.8865 23.6319C12.0427 23.9336 12.3422 25.3096 12.432 25.6891L12.7097 26.858C12.7631 27.0809 12.8083 27.3204 12.883 27.5361L13.534 30.0242C13.5684 30.1318 13.5782 30.2407 13.6052 30.3484L13.8468 31.2966C14.2476 32.8944 15.4286 34.3211 17.1519 34.5047C17.5184 34.5437 17.9256 34.5194 18.2936 34.4965L17.1239 32.1869C17.0207 32.0187 16.8903 31.8334 16.8445 31.6399L16.8379 31.6137C16.6918 30.9914 17.4402 30.5511 17.9581 30.8835C18.1447 31.0033 18.3014 31.3659 18.4089 31.5574L19.7637 34.2202C19.7951 34.2911 19.8501 34.4813 19.9198 34.5135C19.9779 34.5404 22.3311 34.5156 22.6532 34.5156L22.6904 34.2189C22.7142 33.9632 22.8168 33.6847 22.8989 33.4425L23.5644 31.7481C23.6601 31.5199 23.7946 31.0578 23.984 30.8993C24.3966 30.5541 24.9348 30.825 25.1247 31.2649L25.1421 31.3027C25.2124 31.463 25.2072 31.6322 25.1438 31.7923L24.2812 33.8984C24.204 34.0976 24.0985 34.2957 24.041 34.5007L28.0372 34.5165C28.1516 34.3735 28.3006 34.0002 28.3928 33.8201L29.0409 32.5753L29.6976 31.3709C29.942 30.9314 30.2146 30.5065 30.8448 30.86C30.9842 30.9382 31.0668 31.074 31.1263 31.218L31.1386 31.2469C31.1939 31.3781 31.2217 31.5452 31.1689 31.6823L31.1314 31.7665C31.0042 32.0452 30.8194 32.3064 30.6666 32.5725L30.2726 33.3381C30.0704 33.7207 29.8378 34.1 29.6821 34.504C31.5077 34.6244 33.1433 33.9299 33.9231 32.1485C34.2127 31.4866 34.3035 30.7277 34.4764 30.0285L35.9353 24.1706C35.9846 23.9768 36.0217 23.7333 36.1303 23.5642C36.5265 22.9475 37.7262 23.2375 37.3125 24.4446C37.2721 24.5624 37.2423 24.691 37.2111 24.8118L36.2601 28.7966C36.2392 28.9238 36.2735 28.9199 36.3451 29.0266L38.7329 32.5078C38.8196 32.6341 38.8945 32.8243 38.9972 32.931L43.1363 30.68L35.7784 15.7052C34.7087 13.5413 33.8672 12.2671 31.3474 11.9605L30.8564 11.8972C30.7444 12.3079 30.5529 12.7182 30.3474 13.0912C27.4296 18.3869 19.4099 17.92 17.2833 12.2669C17.2415 12.1557 17.2222 11.9614 17.1655 11.8717ZM43.7564 31.9777L39.8363 34.108C40.1904 34.8271 40.5711 35.4143 41.3117 35.7642C42.0316 36.1323 42.5345 36.2488 43.2578 35.7847L44.9252 34.6777C44.8156 34.347 43.9607 32.229 43.7564 31.9777ZM4.23179 31.9975L3.0528 34.6049C3.3162 34.818 3.6151 34.991 3.89277 35.1854C4.48453 35.5999 4.99879 36.1454 5.77973 36.0567L5.82393 36.0513C6.16246 36.0122 6.40804 35.9473 6.71235 35.7963C7.39274 35.4166 7.79399 34.8023 8.16337 34.1344L4.23179 31.9975ZM16.4856 35.8526L16.4789 37.5145L31.5194 37.4581L31.5176 36.4342C31.5174 36.2463 31.5297 36.0505 31.5093 35.8644L31.4707 35.8734C31.0041 35.9785 30.5595 35.98 30.0849 35.9804L18.1131 35.9804C17.3879 35.9801 17.1791 35.9678 16.4856 35.8526Z" fill="black"/>
</svg>
