<svg width="48" height="48" viewBox="0 0 48 48" fill="none" xmlns="http://www.w3.org/2000/svg">
<path d="M31.8571 38.9463C31.6113 38.9976 31.3477 38.9803 31.0984 38.9804L17.3707 38.9808C15.6561 38.9802 14.4592 38.8486 13.3836 37.2815C12.9543 37.9673 12.3202 38.7932 11.531 39.0888C11.2905 39.1789 11.3423 39.0795 11.2947 39.3286C11.1442 40.1165 10.6163 41.2378 9.74812 41.3495L9.70809 41.3544C9.09304 41.436 7.23482 40.8099 6.56465 40.6334C5.8717 40.4509 5.1982 40.4467 4.76868 39.7887C4.33183 39.1195 4.48249 38.2623 4.81884 37.5814C4.91207 37.3926 5.11893 37.307 5.00831 37.1028C4.04594 35.3258 4.66587 33.7866 5.32227 32.0044L7.76962 25.3564L9.04663 21.0809L10.8096 14.498C10.9375 14.0455 10.9879 14.2447 10.9901 13.6669C10.9918 13.2222 10.9506 12.7179 11.0278 12.2817C11.3701 10.3468 13.3757 9.13184 15.2617 9.12312C16.1907 9.11881 17.1184 9.18195 17.9265 8.64542C18.1975 8.46547 18.326 8.26123 18.6687 8.21094C19.3006 8.25402 19.2053 8.63178 19.4285 9.07522L19.4959 9.21144C20.1341 10.5605 21.5156 10.6531 22.778 10.6542L25.5968 10.6527C26.787 10.65 28.084 10.2832 28.5726 9.06387C28.7027 8.73922 28.682 8.47606 29.0585 8.29198C29.5304 8.06122 29.724 8.45609 30.051 8.68644C30.933 9.30767 32.1657 9.05516 33.1688 9.13072C34.9444 9.26441 36.9862 10.7499 37.0114 12.6708L37.0207 13.6187C37.0253 14.225 37.0773 14.0303 37.1975 14.5159C37.2726 14.8195 37.3194 15.1332 37.4067 15.4341L37.7816 16.8403C37.8062 16.9304 37.8405 17.014 37.8582 17.1067L38.3275 18.7923C38.3979 19.1475 38.532 19.4962 38.6076 19.8509L39.2642 22.1932C39.2729 22.2356 39.2789 22.2723 39.2943 22.3128L39.8259 24.0708C39.8799 24.3073 39.9567 24.5749 40.0452 24.7985L43.3131 33.8091C43.6521 34.8061 43.5134 36.1177 43.0341 37.0317C42.9103 37.268 42.9303 37.1982 43.0768 37.4224C43.2227 37.6456 43.3391 37.9701 43.3927 38.2304L43.4068 38.2974C43.6265 39.0215 43.4799 39.8197 42.7959 40.2355C42.5339 40.3947 42.2278 40.4378 41.9349 40.5095L39.0627 41.2447C38.7365 41.3242 38.5068 41.4432 38.1661 41.357C36.9518 41.0497 36.7663 39.2622 36.7176 39.2361C35.6988 38.6892 35.2443 38.2612 34.6362 37.2542L34.3795 37.6167C33.7723 38.421 32.8254 38.8078 31.8571 38.9463ZM18.3864 9.91976C17.4433 10.3565 16.5766 10.4448 15.5496 10.4529C14.2918 10.4628 13.2652 10.7593 12.5401 11.9302L12.5204 11.9615C12.2509 12.4002 12.2768 12.881 12.2744 13.3734L12.2609 14.3517L12.5422 14.4534C13.5722 14.7581 14.5489 15.8227 15.0457 16.7232L15.0844 16.8029C15.5341 17.7589 15.8091 18.7153 16.0427 19.7485L16.5474 22.2778C16.6178 22.6815 16.6473 23.1008 16.6989 23.5077L16.9584 27.406C16.9603 27.9588 17.0135 28.5815 16.8851 29.1194L16.3382 31.1525C16.1885 31.6086 15.9987 32.0527 15.8198 32.4979L31.6225 32.4966L32.1715 32.489C31.7628 31.3702 31.19 30.0363 31.0601 28.8435C31.015 28.4296 31.0499 27.9769 31.05 27.5594C31.0507 24.8408 31.3678 22.0671 32.031 19.4287C32.5493 17.3667 33.2202 15.5603 35.2459 14.5142L35.531 14.3688C35.598 14.3374 35.7601 14.3151 35.7519 14.2257C35.7166 13.8408 35.7397 13.4398 35.7387 13.0529C35.7343 11.4275 34.2441 10.4641 32.7528 10.457C31.6535 10.4517 30.6096 10.4131 29.5962 9.95384C28.6122 11.5792 27.2034 11.9794 25.4579 11.981L22.5377 11.9811C21.0241 11.9803 19.4621 11.5901 18.5852 10.2273L18.3864 9.91976ZM36.061 15.5747C34.848 16.2179 34.0774 17.0386 33.6602 18.3956C33.1226 20.1442 32.7901 21.9487 32.5788 23.7629L32.4075 25.7067C32.3906 25.9228 32.3513 26.136 32.3402 26.354L32.3311 27.4478C32.3278 28.2545 32.3264 28.8417 32.5456 29.6298L33.1036 31.3353C33.1323 31.4189 33.1758 31.4945 33.2033 31.5794L33.292 31.8053C33.4609 32.2712 33.7105 32.7322 33.9303 33.1763L35.3881 35.9382C36.0566 37.1202 36.8182 38.4839 38.4051 38.0657L39.6126 37.6777C40.5677 37.4156 41.4691 37.262 41.9557 36.2817L42.0447 36.0786C42.5173 34.9291 41.9011 33.6347 41.4981 32.5579L38.8282 25.2385L36.318 16.3214C36.2594 16.09 36.2252 15.8157 36.1365 15.5965L36.061 15.5747ZM11.8567 15.5707C11.7835 15.8109 11.7421 16.0621 11.6856 16.3063L9.03927 25.6366L6.21871 33.3346C5.91463 34.1802 5.62213 35.0397 5.90578 35.9419C6.32488 37.275 7.28704 37.3512 8.41377 37.6902C8.8431 37.8194 9.28251 38.0167 9.72084 38.1002C11.3349 38.525 12.3261 36.4831 12.9273 35.397C13.9317 33.5822 15.4121 30.7275 15.6605 28.6177C15.7041 28.2473 15.6748 27.8502 15.6739 27.476L15.662 26.2453C15.6523 26.0727 15.6199 25.9053 15.6054 25.734L15.4924 24.3989C15.4068 23.3987 15.2716 22.3971 15.0817 21.4104L14.6552 19.5225C14.1681 17.5651 13.7062 16.443 11.8567 15.5707ZM15.2608 33.795C15.0609 34.097 14.1638 35.8163 14.1867 35.9224C14.2187 36.0713 14.2606 36.2139 14.3249 36.3521L14.3375 36.3797C14.7149 37.1975 15.6413 37.6334 16.5056 37.6587L29.9839 37.6612C30.7915 37.6611 31.7081 37.7894 32.4664 37.4443L32.8623 37.2342C33.2683 36.9738 33.9452 36.2778 33.7684 35.7286C33.6449 35.3449 33.3675 34.9652 33.1875 34.6019C33.0605 34.3457 32.9682 34.045 32.8235 33.8042L15.2608 33.795ZM41.994 38.1919C41.2979 38.5942 40.5628 38.764 39.8009 38.9888L38.1162 39.4767C38.1951 39.65 38.2888 39.8881 38.4021 40.0377C38.5221 40.0851 38.6575 40.0032 38.7738 39.9709L41.343 39.2974C41.6267 39.219 41.9283 39.1554 42.1976 39.0364L42.2363 39.019C42.1949 38.7365 42.1328 38.4711 42.022 38.2067L41.994 38.1919ZM5.97684 38.2153C5.66573 39.0609 5.66104 39.0318 6.44217 39.2466L8.82163 39.881C9.05601 39.938 9.28799 40.02 9.52706 40.0551L9.57243 39.9977C9.68343 39.8235 9.77835 39.6533 9.86338 39.465L6.98985 38.6607C6.79035 38.5942 6.03613 38.2221 5.97684 38.2153Z" fill="black"/>
</svg>
