<svg width="48" height="48" viewBox="0 0 48 48" fill="none" xmlns="http://www.w3.org/2000/svg">
<path d="M18.9081 37.441L17.0386 37.1998C15.3809 36.9423 14.2804 36.5454 13.7905 34.8557L13.2498 36.1592C12.772 37.2958 12.5612 37.0224 11.5415 36.7689L6.87847 35.5996C6.30336 35.4539 6.22264 35.0608 6.26563 34.5353L6.37808 33.5794C6.61049 31.5891 7.00686 29.6198 7.40375 27.6564L9.14014 20.3609C9.99074 17.4256 11.1191 14.1074 14.1084 12.7155C15.1863 12.2136 16.5376 12.2156 17.4184 11.3242C18.2555 10.4769 18.1451 10.1164 19.4067 10.3045L20.8712 10.4378C21.1032 10.4513 21.3255 10.4913 21.5582 10.5079L22.7545 10.5405C23.8483 10.5439 24.9614 10.5849 26.0524 10.5235L29.0467 10.204C29.6058 10.0963 30.0464 10.7624 30.3681 11.1111C31.2418 12.0583 32.157 12.1204 33.3254 12.5026C35.1525 13.1002 36.4312 14.5302 37.2931 16.1855L37.6062 16.841C37.7976 17.2096 37.9315 17.6297 38.0738 18.0194L38.7963 20.2384C38.9103 20.7197 39.0599 21.2005 39.1873 21.6798L39.3748 22.4298C39.4564 22.7936 39.5736 23.1592 39.6404 23.5256L40.1129 25.6239C40.1715 26.0391 40.3146 26.53 40.3996 26.9593L41.2963 31.4988L41.7251 34.7626C41.7768 35.5278 41.2142 35.5778 40.5949 35.7213L35.9275 36.9148C35.0506 37.1361 34.9668 36.7229 34.6798 36.0285C34.5288 35.6632 34.3263 35.2918 34.2355 34.9056L34.2252 34.8599C33.4046 37.0129 32.0477 37.0615 29.9095 37.319L26.6832 37.6051L24.8418 37.6651L20.7688 37.5997L19.6933 37.5064C19.43 37.4835 19.1706 37.4787 18.9081 37.441ZM28.873 11.47C28.1266 11.5817 27.338 11.6554 26.5841 11.6879L23.0054 11.7572C22.7914 11.7526 22.58 11.7164 22.3657 11.7087L21.231 11.6948C21.0781 11.6861 20.9296 11.6571 20.7777 11.6443L19.583 11.542C19.4859 11.532 18.964 11.4559 18.9136 11.4766C18.7409 11.5477 18.1847 12.2513 18.0697 12.4108L18.0268 12.4746C18.123 12.6641 18.1983 12.8565 18.4174 12.9307L19.2687 13.0595C19.9523 13.1858 20.9032 13.2808 21.6188 13.3196L26.3785 13.3201C26.5312 13.3116 26.683 13.2786 26.8355 13.2651L29.2613 12.9619C29.6496 12.8987 29.8023 12.8699 30.0009 12.5121C29.7401 12.1441 29.399 11.7586 29.0621 11.4593L28.873 11.47ZM17.053 12.9838C16.2936 13.2988 15.6177 13.4218 14.9058 13.6926C12.5332 14.5952 11.4712 16.9971 10.7325 19.2354L9.77731 22.532L7.96986 30.9376L7.60072 33.3323C7.54846 33.7149 7.52994 34.1208 7.44763 34.497L12.1561 35.714L13.0433 33.6455C13.5132 32.5957 13.6482 32.3929 13.8178 31.254L14.7052 25.7075L12.432 25.2625C12.1979 25.2135 11.9279 25.1953 11.7035 25.1155C11.2164 24.9423 11.1807 24.3035 11.6 24.0418L11.7447 23.9686C11.8628 23.9106 12.0246 23.963 12.1468 23.9915L14.5509 24.4798C14.6498 24.4998 14.828 24.5642 14.9221 24.5438L15.7214 19.3578C15.7597 19.0903 15.7487 18.7042 15.9795 18.5172C16.2668 18.2843 16.703 18.354 16.8761 18.6915L16.8895 18.7167C17.0554 19.0383 16.8307 19.8492 16.7851 20.1984L14.7673 32.817C14.8994 32.8389 15.0444 32.8272 15.1784 32.8273L32.8359 32.8264C32.9561 32.8264 33.1376 32.8465 33.2479 32.8055L33.0146 31.4471L31.0365 19.0295C30.9983 18.516 31.6205 18.1178 32.0134 18.5267C32.1403 18.6588 32.1443 18.824 32.1917 18.9879L32.9658 24.0587C33.0607 24.7247 33.0142 24.5177 33.6558 24.3993L35.867 23.9721C36.7348 23.7502 36.923 24.8944 36.2692 25.1025L33.2654 25.7094C33.2952 26.036 33.3794 26.3645 33.4278 26.69L34.2627 31.8138C34.3575 32.4506 34.6544 32.9718 34.9014 33.562L35.8359 35.6988C36.0194 35.6849 36.2233 35.5954 36.4047 35.551L38.4377 35.0227C39.128 34.8378 39.8495 34.7156 40.5252 34.4886C40.4958 33.9873 40.4109 33.4911 40.3405 32.9946L38.7061 24.6447L37.2391 19.2073C36.5241 17.0668 35.4992 14.6633 33.2659 13.7538C32.8733 13.5939 32.4446 13.4977 32.0367 13.3838L30.9507 13.0332C30.777 13.5063 30.6218 13.9986 30.3951 14.4493C29.6467 15.9373 28.216 16.5581 26.6655 16.8161C24.9238 17.1058 21.6816 17.137 19.9475 16.4909L19.2917 16.1863C18.0861 15.5222 17.4383 14.3084 17.0645 13.0314L17.053 12.9838ZM18.8544 14.1915C18.9241 14.3218 19.0577 14.4484 19.1602 14.5551C20.4339 15.881 22.9012 15.8241 24.6324 15.7765C25.9269 15.7409 27.4933 15.7005 28.5359 14.8509C28.7713 14.6619 28.9883 14.442 29.1586 14.1917L26.9908 14.4878C26.7809 14.5348 26.5412 14.5226 26.3266 14.5249L23.9325 14.5852L22.3479 14.5318C21.6611 14.5144 20.9773 14.4665 20.2926 14.4134L19.5435 14.3229C19.3137 14.2919 19.0834 14.2099 18.8544 14.1915ZM16.9269 34.0237L14.8849 34.0365C14.8044 36.0225 17.3203 36.0691 18.7494 36.2197L20.2496 36.3778L25.0256 36.4639L25.9947 36.4054C26.4883 36.386 27.0096 36.4296 27.4955 36.3408L30.6106 36.0066C32.0469 35.8486 32.9625 35.5653 33.1395 34.03L16.9269 34.0237Z" fill="black"/>
</svg>
