<svg width="48" height="48" viewBox="0 0 48 48" fill="none" xmlns="http://www.w3.org/2000/svg">
<path d="M29.735 43.7172L26.6699 43.8437L23.0939 43.8381C22.8288 43.8299 22.5659 43.7882 22.3009 43.7837L19.1251 43.6919C16.8051 43.5944 16.1594 43.5633 14.0392 42.5854C13.0215 42.1161 12.7836 42.1088 12.784 40.9814L12.7854 37.3198C12.7864 35.6958 12.8673 35.0463 13.2318 33.4893C13.6722 31.6077 13.8438 30.5383 13.7212 28.6171L13.6641 27.5504C13.6415 27.2616 13.5931 26.9808 13.5898 26.6903C13.328 27.1819 13.1597 27.739 12.9725 28.2623L12.1928 30.4273L10.6233 34.1512C10.4499 34.5479 10.2294 34.9338 10.032 35.32L8.11767 38.9816C7.66805 39.8941 7.61386 41.1706 6.40537 41.3818C5.71392 41.5026 3.94876 41.0922 3.39924 40.6853C2.52773 40.0399 2.97054 39.1238 3.3257 38.3454C3.53861 37.8788 3.37328 37.8778 3.29306 37.4222L3.26044 37.1832C3.23342 36.7187 3.30307 36.2701 3.37217 35.8136L3.74111 33.8044C4.31026 30.9437 5.04506 28.1051 5.90105 25.3165L7.00748 21.9502L11.6795 8.91944C13.0371 5.66088 15.4485 4.43609 18.9615 4.25355C19.4906 4.22086 19.6936 4.32963 20.1821 4.51052C21.0559 4.83415 22.0692 5.00922 23.004 5.06036L24.3943 5.06749C24.9082 5.06636 25.3342 5.02029 25.8399 4.96811C26.9003 4.85866 27.5259 4.56881 28.4646 4.28669L28.4977 4.27714C28.7452 4.20387 29.0761 4.2409 29.3321 4.25837C32.3771 4.4662 35.0578 5.78139 36.2943 8.76143L38.9196 15.761L40.678 20.8346C40.7032 20.9403 40.7496 21.0362 40.7796 21.1403L41.4203 23.0856C41.453 23.2173 41.4991 23.3671 41.5487 23.493L41.9237 24.6597C42.0043 24.8597 42.0382 25.082 42.1083 25.2859L42.3923 26.2467C42.4559 26.4118 42.5053 26.6194 42.5472 26.7923L43.3904 29.9006C43.4383 30.1619 43.5292 30.4191 43.5841 30.6821L44.2959 33.9606C44.5467 35.0638 44.9413 37.0116 44.5081 37.9974L44.9515 39.0348C45.67 40.7294 43.5867 41.1985 42.4027 41.3583C40.6111 41.6001 40.5727 40.3448 39.8965 39.0506L37.691 34.8295C37.3515 34.1562 36.9979 33.4872 36.7061 32.7915L34.4071 26.6462C34.3097 27.287 34.2488 28.2643 34.2247 28.9429C34.1802 30.1941 34.2725 31.4907 34.5943 32.7067L34.8762 33.902C35.1624 35.1615 35.2275 35.7886 35.2288 37.0532L35.2294 40.7809C35.2286 42.0065 35.2371 41.9709 34.0416 42.5476C32.4239 43.3279 31.6018 43.6215 29.735 43.7172ZM29.3094 5.65521C29.5346 7.07829 29.2978 8.15397 28.7172 9.49324C27.8971 11.3849 26.3906 13.2558 24.4652 14.1128C23.8736 14.3761 23.5336 14.1605 23.0115 13.8393C20.5615 12.3317 18.5802 9.42096 18.5817 6.48761C18.5818 6.23243 18.5727 5.97635 18.6291 5.72571L18.6377 5.68966C16.05 5.78875 14.0393 6.91165 13.0064 9.28221L10.6432 15.4908L7.9958 23.2731L6.67059 27.5088L5.41983 32.4733L4.74619 35.8766C4.68853 36.2527 4.48011 36.7833 4.64401 37.1481L4.65931 37.1848C4.78139 37.4708 5.02275 37.6342 5.3204 37.6896L7.06809 38.0006C8.31801 35.722 9.54998 33.3949 10.5255 30.984C11.3614 28.9183 11.9503 26.7565 12.9481 24.7549C13.2553 24.1386 13.4253 23.9734 13.4267 23.2968L13.4308 18.96C13.4325 18.3947 13.8344 17.871 14.4024 18.1348L14.4347 18.1496C14.7426 18.2973 14.7908 18.5979 14.7912 18.8974L14.7888 23.0865C14.7828 23.5198 14.8542 23.9283 14.8618 24.3572L15.1084 28.5934C15.1839 29.5674 15.1949 30.5055 15.042 31.4789L14.5691 33.7673L14.3957 34.5781C14.1901 35.5221 14.2168 36.0841 14.2033 37.0493L17.1095 37.3105L20.7918 37.5016L25.6479 37.514C26.4559 37.5128 27.2511 37.4325 28.0596 37.4241C28.3548 37.421 28.6751 37.4288 28.9638 37.363C29.301 37.2864 29.7081 37.337 30.0548 37.3197L33.1911 37.0623C33.3556 37.047 33.6557 37.071 33.7974 37.0002C33.7987 36.4595 33.8407 35.8734 33.7707 35.339C33.5986 34.0274 33.1202 32.7007 32.9363 31.3356C32.691 29.5146 32.9494 27.7076 33.0855 25.8909L33.1222 24.8535C33.1265 24.2501 33.2254 23.8215 33.2279 23.2702L33.2296 18.8767C33.2304 17.9544 34.1731 17.824 34.5297 18.4801L34.5459 18.5084C34.6049 18.638 34.5788 18.8503 34.5782 18.9926L34.5699 23.4262C34.5617 24.0209 35.2339 25.0419 35.4653 25.652L36.4889 28.2887C36.6475 28.7242 36.8271 29.1566 36.9587 29.6012L38.1626 32.6709L40.9492 38.078L42.0508 37.8122C43.0184 37.5947 43.5301 37.53 43.3451 36.4332L43.1557 35.32C42.7726 33.0031 42.2322 30.678 41.583 28.4203L40.4405 24.4915L36.9057 14.2474L36.1708 12.395C35.6591 11.0752 35.3063 9.62472 34.5653 8.40949C33.3482 6.41365 31.4506 5.85518 29.3094 5.65521ZM27.9015 5.91761C25.6869 6.73699 22.1785 6.54475 19.9999 5.92179C19.6911 7.69525 20.6249 9.37413 21.6001 10.7726C22.2137 11.4988 23.0884 12.4092 23.9859 12.7957C24.2529 12.6901 24.4989 12.5189 24.7329 12.3546C26.4465 11.1513 28.1504 8.60988 28.026 6.4136C28.0163 6.24396 28.0124 6.07535 27.9572 5.91321L27.9015 5.91761ZM33.6366 38.4228L32.0156 38.5954L25.39 38.9719L21.1176 38.9206L14.2105 38.4532L14.209 41.1425C14.4196 41.2679 14.6816 41.3499 14.9074 41.4566C15.6728 41.8159 16.4214 42.0918 17.2654 42.1828L17.8175 42.2221C17.9908 42.2389 18.1564 42.275 18.3314 42.2846L19.4825 42.3073C19.7619 42.3178 20.0366 42.3764 20.3152 42.3853L23.4012 42.4264L28.6857 42.3806L29.4778 42.3175C30.9746 42.2428 31.7371 42.14 33.1086 41.4542C33.3434 41.3367 33.573 41.1995 33.8187 41.1064L33.8046 38.4254C33.7452 38.4055 33.6978 38.4164 33.6366 38.4228ZM43.377 38.8942L41.5622 39.3429C41.6501 39.588 41.7404 39.8172 41.8944 40.0287C42.4867 39.9236 43.1496 39.8402 43.6937 39.5743L43.377 38.8942ZM4.57526 38.8984L4.28366 39.5876C4.87139 39.7923 5.52806 39.9917 6.15023 40.0488L6.18745 40.0192L6.50297 39.3176L5.19698 39.0721C5.00076 39.0277 4.75936 38.9794 4.57526 38.8984Z" fill="black"/>
</svg>
