<svg width="48" height="48" viewBox="0 0 48 48" fill="none" xmlns="http://www.w3.org/2000/svg">
<path d="M29.0102 38.7952L27.6055 38.9275C27.429 38.9408 27.254 38.9689 27.0771 38.9762L20.8398 38.975L19.4103 38.8667C17.9029 38.6944 15.3908 38.032 14.5659 36.6C14.3736 36.2662 14.3027 35.8809 14.2165 35.5105L13.8142 33.3155C13.5126 34.2727 13.2385 35.2558 13.1605 36.26C13.1475 36.4275 13.1457 36.6018 13.0864 36.7607L13.0721 36.7974C12.6772 37.8341 11.7528 37.8945 10.7636 37.8872C10.0095 37.8818 8.22892 37.8596 7.75891 37.1537L7.73256 37.1138C7.49397 36.7592 7.52294 36.449 7.52228 36.0368L7.52641 32.574C7.53948 32.2014 7.58416 31.8011 7.63408 31.4312L9.30705 23.0161L10.9464 15.9482C11.3167 14.5806 12.1279 13.2632 13.2527 12.3949C13.8556 11.9295 14.5934 11.6447 15.274 11.3126L18.8758 9.54166C19.3527 9.29055 19.4078 8.83858 19.9615 8.65047C20.3002 8.63181 20.4891 8.74305 20.7706 8.92867C21.9095 9.67956 22.5715 9.77003 23.8466 9.77097C25.0944 9.77191 25.9238 9.74134 27.04 9.03981C27.2192 8.92717 27.4027 8.78303 27.6051 8.7152L27.6384 8.70447C28.2874 8.48725 28.4761 8.99762 28.896 9.35402C29.0905 9.51906 29.3472 9.64736 29.5733 9.76722L32.7183 11.3046C33.2788 11.5787 33.8428 11.8073 34.3755 12.1385C35.5229 12.8519 36.7445 14.4966 37.0149 15.8641L38.4259 21.8616L39.9457 28.8928C39.9866 29.0407 39.9984 29.1898 40.0258 29.3401L40.1779 30.16C40.4736 32.068 40.4775 33.6104 40.4758 35.5429L40.4747 36.3505C40.4718 37.9203 38.6011 37.8834 37.4331 37.8843C36.4961 37.8851 35.2635 37.9254 34.8706 36.8771C34.7513 36.5587 34.7525 36.1758 34.6871 35.8394L34.3375 34.0122C34.2959 33.7885 34.2361 33.5693 34.2039 33.3439C33.8432 34.2839 33.844 35.5849 33.4881 36.3722L33.4704 36.4106C32.822 37.8492 30.3981 38.566 29.0102 38.7952ZM20.3932 10.3481C20.0633 11.7876 21.2852 13.3181 22.7105 13.5134C23.0346 13.5579 23.411 13.5186 23.741 13.519L24.7257 13.5194C25.7123 13.5176 26.643 13.1398 27.2055 12.2857C27.5825 11.6832 27.7346 11.075 27.5998 10.3697C26.2645 11.0164 24.3993 11.482 22.9558 11.1846L22.4931 11.1099C21.9474 11.0029 21.4187 10.8287 20.916 10.5917C20.8031 10.5385 20.5034 10.3376 20.3932 10.3481ZM18.9771 11.0267L16.7728 12.1345C16.7177 12.1605 16.6277 12.1888 16.5922 12.2369C16.6943 12.5696 16.7504 12.948 16.9338 13.2476L19.2359 12.1318L18.9771 11.0267ZM29.0593 11.0513C28.9875 11.4205 28.9225 11.7756 28.7843 12.1271C29.5332 12.5102 30.3203 12.8395 31.0197 13.3121C31.0697 13.2959 31.069 13.2757 31.0959 13.2325C31.2409 12.9321 31.4153 12.6006 31.49 12.2747C30.9944 11.976 30.4438 11.741 29.9261 11.4805C29.7727 11.4033 29.1979 11.0206 29.0593 11.0513ZM15.3115 12.8325C15.0252 12.9716 14.7265 13.0967 14.4571 13.2676C12.7639 14.3416 12.3437 15.8905 11.9625 17.6795L9.51527 28.7349L9.21902 30.3638C9.02608 31.4 8.97962 31.9028 8.97887 32.9451L8.98356 34.4652C9.38106 34.5487 9.82722 34.5076 10.233 34.528C10.8553 34.5592 11.4485 34.6645 12.0809 34.6102C12.1625 33.983 12.3457 33.3576 12.4834 32.7403L13.4665 28.4678C13.6317 27.7231 13.7156 26.9789 13.8328 26.227L14.7039 21.1427C14.7444 20.908 14.7493 20.6485 14.8358 20.4247C15.0363 19.9053 15.7786 19.8347 16.0319 20.3442L16.0924 20.4604C16.287 20.8527 15.9214 22.0635 15.8459 22.5005L15.2229 26.3493C15.0658 27.4375 14.9507 28.3997 14.9545 29.4969L15.1528 32.5982C15.2736 33.6219 15.414 34.6393 15.6508 35.6424C15.9619 36.9604 19.2926 37.6295 20.6354 37.5064C20.3964 37.0493 19.554 36.117 20.4135 35.6835C21.0591 35.3579 21.3991 36.1287 21.6588 36.563C21.7861 36.7756 21.9448 36.9972 22.0454 37.2228L22.1544 37.5014C22.2443 37.5366 25.705 37.5442 25.8346 37.5028L25.9104 37.2952C25.9923 37.0239 26.2253 36.7232 26.3707 36.4788C26.6199 36.0598 26.8897 35.4386 27.5123 35.6541C27.8541 35.7724 28.0774 36.2284 27.92 36.5658C27.7671 36.8937 27.5202 37.189 27.3547 37.5191C28.668 37.511 30.9467 37.1684 31.9415 36.1707L32.0851 36.0067C32.262 35.7366 32.3133 35.4764 32.3778 35.167L32.5747 34.1057C32.9152 32.3094 33.2026 30.4063 33.0722 28.5708C33.0284 27.9557 32.9061 27.3433 32.836 26.731L31.864 20.8012C31.8297 20.5083 31.9751 20.1911 32.2502 20.0632L32.2881 20.0453C33.0782 19.6912 33.2118 20.6871 33.2841 21.1802L34.1678 26.3192L34.4008 28.1071C34.4952 28.6329 34.6633 29.1361 34.7931 29.6533L35.2804 31.4613C35.317 31.5751 35.3324 31.6989 35.3512 31.8168L35.7845 34.1832C35.803 34.3186 35.7971 34.4885 35.8568 34.6109L39.0225 34.5041L39.0225 32.7785C39.0204 30.7996 38.5736 29.0521 38.1873 27.1174L36.05 17.7505C35.5807 15.6692 35.0274 13.6781 32.7284 12.8603C32.2178 14.7855 30.5338 16.6667 28.8565 17.6351C26.4341 19.0337 22.2228 19.0907 19.6893 17.9177C17.782 17.0346 15.7746 14.9872 15.3635 12.8392L15.3115 12.8325ZM19.8229 13.395C19.5324 13.5205 17.7706 14.3331 17.6686 14.4863C17.8835 14.8605 18.3118 15.2607 18.636 15.532L19.0644 15.9063C19.4494 15.2105 19.8797 14.5282 20.4642 13.9806L19.8229 13.395ZM28.1674 13.3833L27.517 13.9663C28.1078 14.5444 28.4666 15.2167 28.9467 15.8669L29.3334 15.5578C29.6863 15.2544 30.0691 14.8748 30.3299 14.4868C30.2097 14.3609 29.983 14.2714 29.8289 14.19L28.1674 13.3833ZM26.3455 14.6841L26.215 14.7362C26.1714 14.846 26.3189 15.1821 26.3536 15.3081L26.8208 16.7589C26.8395 16.8256 26.8798 16.8931 26.9111 16.9552L27.4127 16.7818L27.7659 16.6487C27.6912 16.2743 26.4658 14.6961 26.3455 14.6841ZM21.6073 14.7094C21.292 15.0094 20.3171 16.1922 20.2787 16.6547L20.7136 16.8015L21.1 16.933L21.8515 14.7876C21.7724 14.7594 21.6902 14.7235 21.6073 14.7094ZM23.1408 14.9888C23.0758 15.1095 23.0635 15.2417 23.0312 15.3723L22.4209 17.248L22.635 17.2702L23.2688 17.305C23.2872 17.0594 23.3524 15.2219 23.2909 15.0071C23.239 14.9872 23.1956 14.9891 23.1408 14.9888ZM24.7547 14.9888L24.7083 17.3174L25.4416 17.2739L25.5373 17.2622C25.4942 17.0397 25.4131 16.8292 25.3433 16.6142L25.0446 15.6557C24.9949 15.489 24.985 14.9571 24.7547 14.9888ZM8.95656 35.8547C8.95516 36.016 8.94592 36.1836 8.96434 36.3452L9.58009 36.4238C10.0303 36.511 11.2039 36.6251 11.6135 36.4755L11.6355 36.4393L11.7825 36.0435L8.95656 35.8547ZM38.9934 35.8716L36.1109 36.046C36.14 36.1652 36.1623 36.3405 36.2716 36.4141L36.2932 36.4257C36.7057 36.5745 38.5851 36.5478 39.0189 36.3429L38.9934 35.8716Z" fill="black"/>
</svg>
