<svg width="48" height="48" viewBox="0 0 48 48" fill="none" xmlns="http://www.w3.org/2000/svg">
<path d="M31.7697 43.4804L12.4115 43.4801C11.6002 43.4782 11.0844 43.1667 11.0821 42.3251L11.0757 39.7384C10.7217 39.6994 10.3303 39.7309 9.97279 39.7307L7.67554 39.7302C6.84932 39.7298 6.18871 39.8384 5.75071 38.9382C5.57053 38.5678 5.59589 38.1433 5.48292 37.7508L4.68834 35.334C4.29076 34.0332 4.06481 32.6669 3.95468 31.3121L3.79688 26.4117C3.79983 26.1812 3.8383 25.9546 3.84026 25.7234L3.85605 23.8896C3.93547 22.2799 4.15567 20.419 4.45069 18.8433L4.87523 16.8653C5.73079 13.1502 7.18682 9.34911 10.6674 7.35359C11.9543 6.61578 12.9841 6.62506 14.1946 6.07203C14.5946 5.88926 14.9605 5.65728 15.342 5.44128L16.5292 4.81222C16.7463 4.70215 16.9143 4.5747 17.1528 4.50398C17.519 4.48619 17.9824 4.7 18.3517 4.77922L19.3167 4.95983C20.5218 5.15408 21.7687 5.29165 22.9891 5.33783L24.9393 5.34223C26.2519 5.32114 28.8707 5.08554 30.1624 4.67737C31.1107 4.37768 30.9186 4.50493 31.8228 5.00347C32.5136 5.38428 33.2057 5.81525 33.9253 6.13531C34.5404 6.40892 35.1972 6.49442 35.8331 6.69598C38.5443 7.55525 40.1436 9.52306 41.4365 11.9058L42.168 13.5831L42.4783 14.4745C42.6398 14.895 42.9225 15.8798 43.0145 16.356L43.2024 17.1441C43.2426 17.3924 43.3209 17.6411 43.369 17.8888L43.8287 20.5191L44.1688 24.1287C44.1797 24.3281 44.2146 24.5253 44.2216 24.7261L44.1665 29.2146C44.0818 31.197 43.988 33.1549 43.4066 35.0621L42.6775 37.1578C42.5981 37.3909 42.5152 37.6613 42.4709 37.9023C42.2119 39.3124 42.1101 39.728 40.6097 39.7296L36.9342 39.7299C36.8863 39.9171 36.9129 40.1554 36.9129 40.3494L36.9133 41.932C36.9133 42.1595 36.9729 42.6057 36.8544 42.8019C36.5197 43.3563 36.2815 43.479 35.6733 43.48L31.7697 43.4804ZM17.9311 6.1519C17.8567 6.97376 18.2824 8.59953 18.8051 9.2615C19.6341 9.55826 20.5343 9.79461 21.4039 9.9283L22.8897 10.1153C23.913 10.267 25.849 10.0613 26.8328 9.87847C27.2 9.81022 28.943 9.4467 29.1882 9.26914C29.2592 9.21762 29.3407 9.04273 29.3891 8.96473C29.7505 8.32184 29.9069 7.67408 29.9191 6.93097L29.8867 6.14445C29.7915 6.17703 29.6882 6.18256 29.59 6.2029L29.0172 6.32183C27.9526 6.53051 26.8033 6.67508 25.7186 6.72603L23.8459 6.73194C22.8814 6.73189 21.9338 6.72575 20.9742 6.61222L18.3547 6.23169C18.2241 6.20548 18.062 6.15205 17.9311 6.1519ZM16.5431 6.37672C15.7426 6.80755 14.9457 7.31365 14.0878 7.61815C13.3688 7.87334 12.602 7.98261 11.9019 8.29226C7.86759 10.0771 6.52157 15.2135 5.8125 19.1481L5.23603 24.3655L5.22932 29.0681C5.23045 29.7772 5.277 30.7115 5.35846 31.4234C5.50874 32.736 5.6745 34.0398 6.14217 35.2847L6.27946 35.6832C6.31462 35.7971 6.32329 35.9145 6.38709 36.0198L11.0658 36.0242L11.0876 34.7222C11.096 34.5178 11.133 34.3147 11.1459 34.1101L11.5624 29.2451C11.6395 28.3833 11.6455 27.7091 11.6455 26.836L11.5595 23.3595C11.43 21.5553 11.2391 19.5933 10.219 18.0398C10.0771 17.8238 9.80962 17.6178 9.72478 17.3785L9.71235 17.344C9.54782 16.8606 10.0431 16.2996 10.547 16.4701L10.5762 16.4797C11.57 16.8315 12.2698 19.1218 12.5067 20.0297L12.6736 20.9246C12.7188 21.1072 12.7321 21.2992 12.7555 21.4857L12.9469 23.4488C12.9596 23.6227 12.9878 23.7926 12.9952 23.9681L13.0059 28.2782C13.0044 28.5707 13.0141 28.87 12.9928 29.1616L12.5267 34.4547C12.5101 34.6913 12.4679 34.9207 12.4607 35.1597L12.4472 39.016L35.5476 39.0159L35.4843 34.009L34.9978 28.4012L35.0519 23.8253C35.0885 23.1034 35.0798 22.3856 35.2103 21.6694L35.4025 20.4088C35.6329 19.2776 36.0006 18.1445 36.6725 17.1953C37.0629 16.6439 37.9424 15.9433 38.2796 16.8935L38.2879 16.9145C38.3269 17.0195 38.3408 17.2439 38.293 17.3464L38.2675 17.4016C38.1714 17.6134 37.9703 17.7933 37.8329 17.9825C36.6624 19.5942 36.4554 22.122 36.3637 24.0862L36.3527 26.1655C36.3518 26.9302 36.331 27.7003 36.3778 28.4637L36.8652 34.0448C36.8768 34.2232 36.9122 34.408 36.9135 34.5853V35.5415C36.9134 35.6952 36.8975 35.8652 36.9247 36.0165L41.5945 36.0337C42.4472 34.212 42.6731 31.7194 42.7741 29.7514L42.8449 25.1218C42.8424 24.5279 42.7982 23.93 42.7514 23.3378L42.5648 21.4912C41.9793 16.7506 40.4221 9.42167 35.2398 7.98889C33.7845 7.58651 33.3186 7.41547 31.9846 6.70615L31.5543 6.47614C31.4909 6.44084 31.4149 6.38501 31.345 6.37006C31.3059 6.68726 31.3187 7.00962 31.304 7.32856C31.2429 8.64322 30.6922 9.4985 30.0137 10.5914L29.6061 11.288C28.3604 13.2896 27.0727 14.9961 24.6195 15.3018C23.9566 15.3844 23.238 15.3377 22.5903 15.1687C20.4167 14.6019 19.1411 12.4775 18.054 10.6814C17.2797 9.40208 16.7872 8.81844 16.6204 7.2072C16.592 6.93251 16.5964 6.64747 16.5431 6.37672ZM19.8974 11.03C20.6109 12.1667 21.7766 13.5484 23.1108 13.8652C24.7319 14.2502 25.9267 13.6234 26.9714 12.4776C27.3696 12.0264 27.6891 11.5806 28.0135 11.0775C25.542 11.6439 22.3574 11.8255 19.8974 11.03ZM6.95259 37.4809L6.87904 37.4893C6.85054 37.5735 7.02187 38.1982 7.06701 38.299C7.36621 38.3143 7.66907 38.2942 7.96912 38.2937L9.95639 38.2932C10.2872 38.2935 10.6322 38.2752 10.9608 38.3091L11.0756 37.7333C11.0752 37.6611 11.09 37.5495 11.0623 37.4837L6.95259 37.4809ZM36.9448 37.4837C36.8921 37.7339 36.8998 38.0508 36.9334 38.2985L40.9021 38.3054C40.9439 38.3077 40.9271 38.3078 40.9728 38.3003L40.9919 38.2613L41.1404 37.493L36.9448 37.4837ZM12.4722 40.482C12.4414 40.6084 12.4307 41.932 12.4649 42.0194L35.5343 42.0166L35.5446 40.4877L12.4722 40.482Z" fill="black"/>
</svg>
