<svg width="48" height="48" viewBox="0 0 48 48" fill="none" xmlns="http://www.w3.org/2000/svg">
<path d="M19.2629 38.9053L18.3074 38.8948C17.1149 38.8134 15.6961 38.2872 14.9162 37.352C13.9709 36.2183 13.77 34.4517 13.6928 32.9952L13.6982 29.6371L13.8039 27.5748C13.8124 27.4316 13.8442 27.2945 13.8558 27.1518L13.9547 25.7906L9.67438 33.8224C9.40259 34.2897 8.99881 35.1721 8.3158 35.0026L8.28486 34.9945C8.1088 34.9505 7.97305 34.8578 7.80772 34.7905L6.54472 34.2874C6.167 34.1401 5.621 34.037 5.58172 33.5323C5.37664 30.895 6.46681 27.651 7.48348 25.2881L8.75895 22.5522L12.6432 14.6914C12.977 14.0526 13.1028 13.6447 13.5978 13.0867C14.7112 11.8318 16.2501 11.0826 17.923 10.9853C17.9271 10.8642 17.965 10.7482 17.9857 10.6293L18.0646 10.1605C18.3128 8.78482 18.3471 9.0169 19.6284 9.01648L28.7881 9.01662L29.2775 9.0071C29.6235 9.00157 29.8212 9.23346 29.9195 9.56103L29.9299 9.59801C30.0656 10.0086 29.9992 10.5064 30.0258 10.9375C31.7566 11.2141 33.1621 11.6879 34.3765 13.07C34.8943 13.6594 35.2156 14.3934 35.5515 15.0941L40.5127 25.2781C40.7021 25.6394 40.8425 26.0454 40.9901 26.4261L41.402 27.5235C41.8028 28.7104 42.103 29.9202 42.2823 31.1605L42.375 31.8114C42.4222 32.2806 42.4109 32.7925 42.402 33.2648C42.3839 34.2179 42.0113 34.0922 41.1749 34.422L40.1822 34.8226C40.0533 34.873 39.9232 34.9419 39.7885 34.9737L39.7601 34.9801C39.5898 35.023 39.4456 35.0099 39.2784 34.9583L39.1412 34.9125C38.66 34.7063 38.2574 33.7566 38.0045 33.3316L35.6387 28.9312C35.132 27.9308 34.5442 26.9402 34.1127 25.906C34.147 26.2894 34.15 26.7322 34.178 27.1369L34.2033 27.8558C34.2185 28.2834 34.2879 28.6926 34.2996 29.0863L34.2928 32.7817C34.2215 34.0481 34.001 34.9427 33.6554 36.1227C33.5144 36.6038 33.6258 36.9164 33.139 37.4183C30.9975 39.6263 28.03 38.7149 25.3942 38.6997L22.3932 38.714L20.6855 38.8352C20.5243 38.848 20.3664 38.8843 20.204 38.8927L19.2629 38.9053ZM21.0721 10.4842L20.8088 10.4982C21.7016 11.27 22.7265 11.367 23.8668 11.3671C24.5558 11.3672 25.9134 11.3316 26.5147 11.0095C26.7599 10.8964 26.9669 10.7393 27.1076 10.5044C26.9047 10.464 26.6709 10.4831 26.464 10.4829L21.0721 10.4842ZM28.6398 10.7933L28.6223 10.805C28.1793 11.1166 27.9618 11.7032 27.5289 12.0515C26.6315 12.7736 24.8006 12.733 23.6604 12.7324C22.6497 12.732 21.7113 12.6696 20.792 12.1717C20.2552 11.8811 19.8271 11.4623 19.3309 11.1203C19.1112 12.0219 19.1958 12.2811 19.6593 13.0643C19.7974 13.323 19.9362 13.5559 20.0063 13.8428C20.1282 14.3409 19.6243 14.1532 20.5006 14.4788C22.5133 15.2268 25.4979 15.2332 27.5095 14.4486C27.6122 14.4086 27.7301 14.3974 27.828 14.349L28.0947 13.7525C28.1638 13.5927 28.1105 13.4511 28.1388 13.2852L28.1455 13.2442C28.2863 12.4419 28.7337 11.6257 28.6853 10.7977L28.6398 10.7933ZM29.8523 12.2932C29.7181 12.7802 29.6368 13.2672 29.4894 13.7892L32.373 17.7211L32.5535 17.1046L32.9574 15.764C33.1221 15.2309 33.2605 14.7739 33.5483 14.292C32.5973 13.0484 31.3196 12.5657 29.8523 12.2932ZM17.8276 12.3871C16.7529 12.4891 15.0302 13.2732 14.4805 14.2366L14.6396 14.5639C14.756 14.8139 14.8348 15.1036 14.9136 15.3676L15.4498 17.3206C15.4563 17.3477 15.4684 17.4488 15.4807 17.4663L15.6009 17.8459L16.9351 15.9631C17.3282 15.4047 17.6908 14.7377 18.2163 14.2896C18.3166 14.2041 18.4472 14.123 18.5292 14.0216C18.2905 13.567 18.0165 13.0905 17.9398 12.5753C17.9311 12.5169 17.9349 12.3929 17.8678 12.3837L17.8276 12.3871ZM28.831 15.1996L28.8068 15.2308C28.6448 15.4314 28.1838 15.6759 27.9548 15.7825C25.8797 16.7481 22.0678 16.7197 19.8846 15.7521L19.0115 15.3193L18.4169 16.266C18.142 16.6711 16.0283 19.5694 16.0536 19.7269C16.235 20.8538 15.7878 21.8671 15.6546 22.9543L15.1565 29.0043C15.145 29.2651 15.0856 29.5248 15.0765 29.7878L15.0628 32.282C15.0627 33.4091 17.0007 34.5449 17.9617 34.8072L18.212 34.8709C18.8624 34.9716 19.3247 34.9749 19.9907 34.9236L20.8708 34.8642C21.1051 34.8448 21.3333 34.7969 21.569 34.7902L26.5917 34.7862C26.9192 34.7884 27.2288 34.8319 27.5536 34.8616L28.3092 34.9127C29.9337 35.0451 31.4465 34.5778 32.5129 33.2611C33.0575 32.5887 32.9273 32.2771 32.9275 31.4579L32.9162 29.3618C32.9065 29.0863 32.8558 28.8124 32.8412 28.5377L32.5551 24.6214C32.4802 23.9437 32.4604 23.2542 32.3387 22.582L32.0469 21.2554C32.0248 21.1343 31.9881 21.0132 31.9783 20.8905L31.9529 20.3441C31.953 20.1388 32.0216 19.6692 31.9161 19.518L29.2261 15.7382C29.1259 15.5964 28.9689 15.2963 28.831 15.1996ZM13.6145 15.8117L10.3946 22.3207C9.12528 24.9348 7.90677 27.5819 7.22473 30.4186L8.65775 31.0087L9.44895 31.3893L13.6991 23.3087C14.5895 21.6203 14.8917 20.7011 14.401 18.7304L13.8673 16.7742C13.7773 16.4588 13.6656 16.1355 13.6145 15.8117ZM34.4132 15.8424C34.1828 16.3917 34.0383 16.9626 33.8704 17.5324C33.5324 18.6794 33.0738 20.2646 33.5077 21.4542L33.7069 22.055C34.3895 23.6231 35.2763 25.0991 36.0396 26.629L38.2375 30.9199C38.3209 31.0781 38.3809 31.2316 38.483 31.3804L39.3502 30.9969L40.7785 30.4083C40.0587 27.7011 39.2811 25.8567 38.0425 23.3117L34.6022 16.297C34.5365 16.1533 34.4525 15.9949 34.4132 15.8424ZM6.99134 31.8167L6.95136 32.8917L8.22734 33.4963L8.41559 33.1814C8.53756 32.9767 8.67655 32.7688 8.76664 32.5481L6.99134 31.8167ZM40.9601 31.8636L39.2052 32.5664C39.3035 32.8066 39.4509 33.0431 39.5834 33.2681C39.6319 33.3396 39.6725 33.4099 39.7096 33.4879C40.0077 33.429 40.7487 33.1338 41.0177 33.0048C41.0812 32.7817 41.0306 32.0846 41.0051 31.8554L40.9601 31.8636ZM15.3055 34.9596C15.7884 37.1744 17.6988 37.6098 19.6588 37.4948L20.5609 37.416C21.1795 37.3701 21.7534 37.3471 22.3708 37.319L25.1953 37.2708L26.8942 37.3366C27.0831 37.3466 27.268 37.3851 27.456 37.4015L28.0427 37.4311C29.3023 37.5229 30.6518 37.5595 31.7272 36.7722C32.1435 36.4674 32.0785 36.538 32.2356 36.1353L32.5005 35.1459C30.1956 36.7384 28.9781 36.2975 26.4916 36.1931L22.2601 36.1902C21.7991 36.1922 21.3416 36.2053 20.8825 36.2536L20.0583 36.3434C19.5966 36.3727 18.7865 36.4074 18.3395 36.3254C17.3321 36.1405 16.0522 35.7062 15.3055 34.9596Z" fill="black"/>
<path d="M25.7294 23.78C25.433 24.0808 25.0653 24.498 24.6749 24.674L24.5928 24.7097C24.1565 24.8599 23.8278 24.5266 23.5272 24.2764C22.5507 23.4633 20.9432 21.5793 21.1761 20.1652L21.1819 20.1326C21.3054 19.3919 21.8716 18.9097 22.5897 18.7556L22.7226 18.7472C23.3618 18.7289 23.8353 18.878 24.3019 19.3253C24.582 19.028 24.9592 18.8305 25.3649 18.7691L25.3945 18.7649C26.284 18.6302 26.9984 18.99 27.3755 19.8162C27.9196 21.0087 26.4954 22.9396 25.7294 23.78ZM22.858 20.1601C22.6299 20.2441 22.6016 20.2935 22.5001 20.5085C22.7531 21.3207 23.6714 22.6099 24.3402 23.1504C24.7852 22.7645 25.156 22.3105 25.4803 21.8199C25.7375 21.4178 26.0522 20.937 26.1198 20.458C25.9349 20.063 25.4509 20.0583 25.2463 20.4216C25.0783 20.7201 25.0194 20.9685 24.6562 21.0953L24.62 21.1082C24.4802 21.1551 24.2955 21.1628 24.1523 21.1237L24.1159 21.1141C23.5274 20.9536 23.5083 20.1747 22.858 20.1601Z" fill="black"/>
</svg>
