<svg width="48" height="48" viewBox="0 0 48 48" fill="none" xmlns="http://www.w3.org/2000/svg">
<path d="M30.521 38.9461C29.2427 38.5384 27.9747 38.5158 26.6521 38.5149L21.4711 38.5145C20.0624 38.5151 18.7728 38.5432 17.4339 39.0184C16.927 39.1984 16.5332 39.4921 16.0319 39.1059C15.2181 38.4788 15.7296 37.5702 15.5244 36.8855C15.4168 36.5265 15.1552 36.2076 14.9787 35.8799C14.5718 35.1248 14.0105 33.7929 13.9135 32.9127L13.4153 34.2296C13.2163 34.7846 13.0147 35.3467 12.8625 35.9165L12.6688 36.8155C12.4513 38.1402 12.42 38.5566 10.7561 38.242C10.117 38.1211 9.50971 37.9632 8.88908 37.7679C8.13603 37.531 7.07422 37.2898 7.24799 36.2557C7.38392 35.4467 7.77664 35.5389 7.34839 34.749C6.54964 33.2758 7.08819 31.6566 7.45935 30.1543L8.64482 25.963C9.28002 23.8999 9.96824 21.8388 10.1241 19.6721L10.1437 18.914C10.1512 18.5805 10.1948 18.2231 10.2672 17.8974C10.503 16.8362 10.8461 15.87 11.4498 14.9556C11.7628 14.4814 12.152 14.0543 12.448 13.572C12.5997 13.325 12.6948 13.0668 12.8218 12.8094C13.3813 11.6746 14.3213 11.4689 15.4237 11.1775C17.2093 10.7056 17.8705 8.77749 18.7615 8.72794C19.0816 8.7369 19.2502 8.85179 19.5133 9.03272C21.8564 10.6441 25.6648 10.6699 28.1258 9.26391C29.6092 8.41641 29.3848 8.48958 30.3872 9.6414C30.7716 10.083 31.2376 10.5286 31.7386 10.8349C32.5215 11.3135 33.4858 11.2879 34.2698 11.7769C34.9876 12.2246 35.1607 12.9211 35.5836 13.5821C35.7579 13.8545 35.9725 14.1068 36.1667 14.3654C37.0589 15.5539 37.7296 17.1121 37.8628 18.6105C37.9113 19.1552 37.9077 19.7051 37.9743 20.2496L38.2445 22.004C38.2918 22.2586 38.3621 22.568 38.453 22.8123L40.3897 29.0743C40.4118 29.1974 40.4609 29.3091 40.4839 29.4322L40.5819 29.8178C40.8879 31.5422 41.6174 33.1435 40.6013 34.8767C40.435 35.1603 40.4518 35.2306 40.55 35.5447C40.885 36.6146 41.0334 37.0622 39.8521 37.6107C39.0762 37.9709 38.2117 38.1392 37.3708 38.268C35.7467 38.5167 35.5821 38.2984 35.3441 36.8907L35.1636 36.0117C35.0364 35.5026 34.8737 35.0011 34.6974 34.5072L34.2122 33.0991C34.1885 33.0159 34.1897 32.9114 34.1364 32.8454C34.0632 33.625 33.4482 35.1835 33.0721 35.8294L32.7379 36.362C32.1742 37.1773 32.6267 37.5684 32.4365 38.4466L32.4124 38.543C32.0426 39.6234 31.3149 39.2456 30.521 38.9461ZM19.5568 10.6313C21.1028 13.8612 25.4077 14.2489 27.72 11.7106C27.9983 11.3645 28.2019 11.033 28.4064 10.6403C27.03 11.2774 25.6226 11.6064 24.1106 11.6072C22.7607 11.6079 21.7751 11.5036 20.4691 11.0149L19.5568 10.6313ZM18.2477 10.9201C17.9912 11.1715 17.7421 11.4023 17.4581 11.6226C17.4847 11.7293 17.5361 11.8195 17.5779 11.9204C19.5779 16.743 26.6212 17.5239 29.6971 13.128C29.8206 12.9516 29.9503 12.771 30.046 12.5775L30.5128 11.5863L29.7438 10.9992C27.7701 15.6869 20.6461 15.9678 18.4536 11.3738C18.3817 11.2232 18.3292 11.0662 18.2477 10.9201ZM31.6818 12.2863C31.4715 12.7035 31.2777 13.136 31.0282 13.5315C27.4614 19.1852 18.7591 18.3975 16.2865 12.293L15.062 12.6736C13.8131 13.0714 14.061 13.5031 13.4019 14.5348C13.2336 14.7983 13.0273 15.0197 12.8401 15.2669C12.1954 16.1179 11.7091 17.1686 11.5335 18.2227L11.47 18.753C11.4018 19.159 11.4363 19.5922 11.3955 20.0046C11.3006 20.9635 11.1373 21.8933 10.9213 22.8325L9.28996 28.4353L8.4695 31.5769C8.34819 32.1024 8.18361 32.7386 8.23794 33.2785L8.24211 33.324C8.27244 33.6349 8.44382 34.1537 8.68325 34.3576C9.04682 34.6673 11.1897 35.0355 11.7402 35.0954L13.3559 30.5004C13.5826 29.7398 13.695 28.9292 13.8347 28.1485C14.2116 26.0429 14.7908 23.2187 14.4873 21.0923L14.4191 20.6212C14.3346 20.1852 14.1816 19.6179 14.6693 19.3669C15.5897 18.8931 15.6826 20.2317 15.7614 20.75C15.9398 21.9239 15.8824 23.0897 15.755 24.2649L15.0006 29.1563C14.8546 30.3029 14.9226 31.6062 15.1992 32.7305L15.5656 33.9987C15.7562 34.4781 15.9571 34.9526 16.22 35.398C16.575 35.9993 16.8494 36.4305 16.8549 37.1564L16.8566 37.7562C18.3813 37.2143 19.674 37.1553 21.2718 37.1542L26.6503 37.1532C28.3686 37.155 29.5464 37.2017 31.1912 37.7702C31.2256 37.3043 31.1374 36.8212 31.2608 36.3633C31.3975 35.8565 31.7444 35.489 31.9948 35.0391C32.6414 33.8777 33.003 32.4669 33.0247 31.1362L33.0298 30.1174C33.0261 29.7219 33.052 29.2977 32.9823 28.908L32.1568 23.1889C32.0785 22.513 32.0865 20.1236 32.5447 19.537C32.8554 19.1393 33.4046 19.2372 33.6097 19.6641L33.6236 19.6914C33.7565 19.975 33.6121 20.4114 33.5596 20.6985C33.379 21.6857 33.405 22.536 33.52 23.5127L34.3603 29.2618C34.3744 29.3761 34.3774 29.5021 34.4058 29.6133L36.2717 35.0962L38.0695 34.7999C39.0736 34.6276 39.3606 34.6292 39.7282 33.5988C39.8807 33.1714 39.7255 32.0113 39.6435 31.5821L38.5857 27.5828C37.8808 25.2519 36.8825 22.9516 36.6777 20.5001C36.4935 18.2947 36.5255 17.0513 35.1055 15.1893C34.9387 14.9707 34.7616 14.7713 34.6125 14.5373C33.8281 13.3058 34.252 13.0348 32.7179 12.614C32.3734 12.5195 32.014 12.4167 31.6818 12.2863ZM8.72211 35.8195L8.5843 36.1943C9.15824 36.4778 10.6515 36.9546 11.34 37.0009L11.4246 36.3883L8.72211 35.8195ZM39.3047 35.9415L36.5731 36.3844L36.7145 36.9789C37.5787 36.9144 38.6711 36.7341 39.4307 36.2815L39.3839 35.9474C39.3294 35.9324 39.3559 35.9333 39.3047 35.9415Z" fill="black"/>
</svg>
