<svg width="48" height="48" viewBox="0 0 48 48" fill="none" xmlns="http://www.w3.org/2000/svg">
<path d="M31.2699 45.6023C30.4009 45.4525 29.5743 45.1951 28.7694 44.8347L27.8906 44.397C25.5408 43.253 23.0101 43.1559 20.578 44.1559C19.7664 44.4896 19.0316 44.9527 18.192 45.2398C17.5709 45.4522 14.6254 45.9665 14.0452 45.6704L14.0155 45.6546C13.5963 45.443 13.5491 45.1579 13.549 44.7418L13.567 41.53L10.786 41.5285C10.4234 41.5286 9.78035 41.6589 9.47374 41.4367L9.33967 41.335C8.97536 40.9801 9.04216 40.5898 9.04155 40.1129L9.04019 15.3474C9.04145 13.088 9.67619 11.2665 11.7826 10.0559C12.3832 9.71064 13.0394 9.51029 13.6764 9.2491C14.221 9.02579 14.7544 8.74187 15.3246 8.5884C16.0103 8.40381 15.8021 8.85995 16.0857 8.06692L17.4753 4.34566C17.6973 3.76925 17.7053 3.18902 18.3874 3.05112C18.9078 3.00772 19.0272 3.40433 19.2655 3.768L19.8721 4.68417C20.038 4.94359 20.1955 5.21748 20.3757 5.46681C21.5921 7.14873 25.894 7.18749 27.3383 5.80042C27.5628 5.58488 27.733 5.32538 27.9022 5.06631L28.9124 3.49073C29.1141 3.18526 29.3056 2.99888 29.71 3.08572L29.829 3.11037C30.0085 3.16635 30.1315 3.33628 30.2006 3.50283L31.5742 7.20845C31.6639 7.5099 31.8603 7.94621 31.9785 8.26501C32.0862 8.55545 32.0667 8.52324 32.367 8.55456C32.5734 8.57612 32.7696 8.64995 32.9638 8.71937L34.3179 9.26256C36.1997 9.99531 37.7624 10.632 38.5432 12.7627L38.626 12.9957C38.9197 13.8012 38.9152 14.5158 38.9155 15.3563L38.9117 40.8576C38.8976 41.3373 38.4484 41.5222 38.047 41.5238L35.6991 41.5283C35.2839 41.5288 34.8672 41.5211 34.4532 41.5555C34.4401 41.736 34.4713 41.9141 34.4744 42.0947L34.4737 44.8104C34.4663 45.1481 34.3601 45.4443 34.0465 45.6219L34.0068 45.6442C33.6281 45.8625 31.6936 45.6701 31.2699 45.6023ZM18.6152 5.30556L17.2534 8.83707C17.547 9.0526 17.8656 9.22937 18.1596 9.45076C19.6541 10.5764 21.6381 12.4539 21.9325 14.42L22.03 14.9996C22.2476 15.8434 22.8688 16.5527 23.6089 16.9973L23.9777 17.1728C24.6843 16.948 25.4187 16.2424 25.7531 15.5936C25.9664 15.1798 25.9894 14.7751 26.0897 14.3308C26.2496 13.6219 26.6395 12.6555 27.1211 12.0811C27.9263 10.9713 29.5071 9.49163 30.7458 8.84265L29.7036 6.10974C29.6019 5.84579 29.518 5.58662 29.3806 5.33757L29.3714 5.35585C27.7752 8.46067 23.3634 8.87457 20.5447 7.40045C19.6469 6.93085 19.1368 6.13459 18.6152 5.30556ZM31.7594 9.89471C31.2479 10.0257 30.7596 10.4691 30.3574 10.8005C29.1836 11.7679 27.8412 12.9173 27.4693 14.4692C27.3873 14.8112 27.3623 15.1637 27.2809 15.5035C27.0578 16.4351 26.3688 17.2157 25.6403 17.7982C24.2722 18.8921 23.3194 18.7116 22.0242 17.4834C20.98 16.4934 20.8877 16.113 20.6062 14.802C20.2293 13.0468 18.9413 11.8632 17.6064 10.7794C15.9991 9.47457 15.8966 9.84362 14.1451 10.5463L13.2369 10.9134C11.4372 11.6092 10.4132 12.9895 10.4089 14.9282L10.409 39.4573C10.409 39.6519 10.3711 39.9424 10.4298 40.1264L13.1233 40.1269C13.0806 39.4937 13.1883 38.9179 13.2975 38.2986L15.0004 28.5287C15.0591 28.0662 15.0286 27.5727 15.0285 27.1059L15.0258 24.6165C15.0235 23.552 14.8377 23.0379 14.5615 22.0052L13.4278 17.9528C13.3143 17.5594 13.1639 17.166 13.4647 16.8111C13.7743 16.4458 14.3275 16.5357 14.5296 16.9449L14.5482 16.9804C14.5939 17.0774 14.6136 17.183 14.644 17.2848L16.3368 23.4359C16.673 24.4797 16.4173 28.2766 16.2383 29.3864L15.0906 35.9576L14.5897 38.7851C14.4453 39.6663 14.3639 40.2762 14.8639 41.0465C15.3303 41.7652 16.0842 42.0174 16.8886 42.0178L31.3901 42.0151C32.1329 41.9924 32.9032 41.44 33.2535 40.8112C33.7088 39.9937 33.4675 39.1016 33.3065 38.2411L31.7114 29.3903C31.4113 27.5874 31.4097 24.3286 31.846 22.6244L33.2027 17.7722C33.2902 17.4872 33.3534 17.0844 33.5283 16.8421C33.9663 16.2355 34.9165 16.6955 34.7072 17.5037L33.1143 23.1614C33.0115 23.5224 32.9626 23.8179 32.9606 24.1944L32.9553 27.2511C32.9548 27.7832 32.9413 28.3188 33.0023 28.8484C33.051 29.2713 33.1733 29.6967 33.2399 30.1185L34.6519 37.9379C34.8011 38.7454 34.8756 39.3032 34.8712 40.1362L37.5489 40.1425L37.5647 15.443C37.5625 13.7984 37.2586 12.2851 35.6852 11.3498C35.1255 11.0171 34.5157 10.8296 33.9139 10.591L32.7715 10.1371C32.4705 10.0233 32.1419 9.89776 31.8162 9.89181L31.7594 9.89471ZM14.9333 42.911L14.9545 44.2738C16.1058 44.2697 17.0328 44.2625 18.1235 43.7804L18.7068 43.5006L17.3433 43.4807C16.4937 43.4801 15.6708 43.3917 14.9333 42.911ZM33.0117 42.9489C32.6157 43.1314 32.235 43.2913 31.81 43.396C30.9742 43.6017 30.1302 43.3969 29.2853 43.5061C29.4895 43.6257 29.7008 43.7117 29.9178 43.8046C30.6145 44.1063 31.3937 44.2568 32.1505 44.2713L33.0228 44.2905L33.0259 43.441C33.0311 43.2833 33.0764 43.1059 33.0409 42.9533L33.0117 42.9489Z" fill="black"/>
</svg>
