<svg width="48" height="48" viewBox="0 0 48 48" fill="none" xmlns="http://www.w3.org/2000/svg">
<path d="M30.4975 39.14L16.1459 39.1364C14.64 39.119 14.8813 37.7458 14.726 36.6912C14.6864 36.4228 14.6034 36.1811 14.6014 35.9044C14.5955 35.0929 14.7367 34.2909 14.803 33.485L14.9867 31.2988C15.0711 30.4414 15.1207 29.7499 15.1211 28.8727L15.1067 26.4986L14.9425 24.3358L13.6328 28.0746C13.1671 29.3214 13.0299 30.1473 12.7247 31.4297L11.627 35.1277C11.2759 36.1775 10.9666 36.0808 10.0725 35.9496L7.28367 35.5596C6.41714 35.4385 6.11315 35.247 6.11231 34.3771C6.11198 34.021 6.14385 33.6916 6.17362 33.3385L6.50535 29.4817L7.43174 22.7578L8.52651 17.1094C8.63128 16.5451 8.70984 15.9815 8.87428 15.4299C9.61846 12.9334 11.6262 10.8151 14.0811 9.94588C15.2435 9.53432 17.3223 9.01958 18.5024 8.84376C18.8005 8.84244 19.1326 9.08446 19.3947 9.20272C20.8192 9.8458 22.7894 9.82527 24.3394 9.82246L25.3511 9.79443C25.8605 9.7724 26.1849 9.72754 26.6806 9.66154L27.3875 9.53849C28.1769 9.38099 28.4804 9.17643 29.1413 8.90957L29.1794 8.89452C29.6488 8.70172 33.3599 9.74666 34.2066 10.0962C37.2505 11.3527 38.8897 13.9401 39.4634 17.0471C39.5032 17.2626 39.575 17.4803 39.6134 17.6966L39.7962 18.7266C39.8179 18.8344 39.8181 18.9481 39.8432 19.0547L40.2693 21.0258L41.0651 26.0391L41.7259 32.1138C41.7797 32.8582 41.86 33.5975 41.8758 34.3467C41.9001 35.5004 41.3724 35.492 40.3333 35.6294L37.6174 35.9962C36.676 36.104 36.6227 35.8661 36.3172 34.9342L35.9871 33.9021C35.742 33.1051 35.47 32.309 35.2847 31.4955C35.1326 30.828 35.0615 30.117 34.8527 29.4667L33.0832 24.3917C32.99 24.8744 32.9247 25.7776 32.8937 26.3183L32.8822 29.4703L33.3598 35.296C33.3981 35.7885 33.4448 36.0638 33.3192 36.5531C32.9456 38.0074 33.5962 39.1304 31.4928 39.1377L30.4975 39.14ZM18.0579 10.0664C17.7784 10.1145 17.4472 10.1552 17.1823 10.2539C17.1348 10.582 17.2715 11.2487 17.3822 11.5402L17.6256 12.1961C18.2948 13.9958 20.387 15.2962 22.1948 15.6559C23.0812 15.8323 24.0005 15.8248 24.8993 15.7609C27.0636 15.607 29.0895 14.515 30.1117 12.5482C30.3241 12.1371 30.857 10.7311 30.7697 10.2515L29.8713 10.0836C29.3288 12.0491 27.143 13.3804 25.1714 13.4023L24.4479 13.4066C23.8799 13.4091 23.2858 13.4468 22.7205 13.4047C20.9018 13.2694 18.8908 12.1876 18.2555 10.3945C18.2155 10.2817 18.2245 10.1187 18.1171 10.0522L18.0579 10.0664ZM28.5057 10.3711C27.4604 10.8917 25.4624 10.9481 24.2221 10.9495L22.8214 10.9452C21.8047 10.9048 20.6561 10.7863 19.6881 10.4596L19.4597 10.3675C19.6335 10.6663 19.8568 10.9002 20.0958 11.1456C21.0988 12.0691 22.4143 12.3277 23.7358 12.2739C25.6576 12.1957 27.3013 12.3151 28.5206 10.3963L28.5057 10.3711ZM16.0325 10.582C13.3252 11.1973 11.0097 12.6303 10.0544 15.4101C9.83845 16.0385 9.73031 16.6801 9.60562 17.3296L8.50509 23.1797L7.97038 26.6484L7.36026 32.3502L10.6987 32.8429C10.8223 32.8592 11.0233 32.9346 11.1415 32.9042L14.5267 21.9471C13.9089 21.1506 13.2817 20.3479 12.8184 19.4488C12.1535 18.1585 13.2926 18.0532 13.5692 18.5047C13.8576 18.9754 14.1029 19.4672 14.4226 19.9204L15.3083 21.0826C15.7365 21.5723 15.7333 22.6102 15.8497 23.25C15.9911 24.0269 16.0702 24.807 16.1332 25.5937L16.2245 26.5566L16.2241 29.9307L15.7554 35.0361C15.7478 35.1079 15.7213 35.4076 15.755 35.4538L32.2745 35.4425L31.9988 32.8826C31.98 32.6736 31.9871 32.4617 31.9739 32.2521L31.8843 31.0214C31.8677 30.7108 31.7992 30.3827 31.8034 30.0762C31.7608 29.5059 31.7799 28.9274 31.7804 28.356L31.7908 26.4356C31.8009 26.2269 31.8362 26.0202 31.8523 25.812L32.3411 21.9726C32.3607 21.8143 32.3473 21.6381 32.4068 21.4895L32.418 21.461C32.4856 21.2996 32.63 21.1466 32.738 21.0102L33.3859 20.1899C33.6238 19.8789 34.4787 18.3771 34.6549 18.3044C34.9603 18.1784 35.255 18.2612 35.3904 18.5625L35.4057 18.5946C35.4621 18.7207 35.4446 18.894 35.3918 19.0179L35.3738 19.0585C35.1734 19.5188 34.9224 19.9579 34.6413 20.374L33.5808 21.7974C33.4854 21.9316 33.4292 21.9538 33.4983 22.1239L36.0359 29.5676C36.073 29.6935 36.0794 29.8216 36.105 29.9491L36.2925 30.9893C36.4407 31.6468 36.6404 32.3023 36.8591 32.9394L40.6231 32.3721L40.2453 28.3402L39.6467 23.9328L38.4637 17.7073C38.3212 16.9745 38.2041 16.2223 37.9362 15.5223C37.119 13.3865 35.4092 11.6398 33.2105 10.948C32.7692 10.8092 32.3001 10.7154 31.8677 10.5566C31.813 10.9061 31.7712 11.2582 31.6848 11.6016C30.5011 16.3058 25.1446 17.8342 20.96 16.5133C18.5362 15.7481 16.4497 13.5253 16.1224 10.9596C16.1097 10.8599 16.1353 10.6125 16.0325 10.582ZM7.25259 33.4618L7.21321 34.3966L10.5241 34.8824L10.5952 34.7144L10.8357 33.9683L7.25259 33.4618ZM40.6067 33.5007L37.1778 34.043C37.2725 34.3188 37.3492 34.6058 37.4494 34.8786C37.6011 34.8651 37.7474 34.8316 37.898 34.8114L40.2173 34.5182C40.4056 34.4971 40.597 34.4877 40.781 34.4402C40.7768 34.1324 40.7983 33.8003 40.7551 33.4963C40.7026 33.4913 40.6589 33.4934 40.6067 33.5007ZM18.0104 36.5471L15.8028 36.5568L15.9029 37.3602C15.9231 37.5376 15.8996 37.8658 15.9999 38.0122L29.875 38.0077L31.3615 38.0053C32.1184 38.0038 31.9969 38.1671 32.0846 37.436C32.1199 37.1413 32.1712 36.852 32.1866 36.5546L18.0104 36.5471Z" fill="black"/>
</svg>
