<svg width="48" height="48" viewBox="0 0 48 48" fill="none" xmlns="http://www.w3.org/2000/svg">
<path d="M33.8499 37.3021C33.3954 37.4922 32.9879 37.4812 32.5054 37.4814L15.3045 37.4821C14.3476 37.4817 13.6753 37.5674 12.8426 36.9675C11.8733 36.269 11.8475 35.3046 11.8467 34.2403L11.839 20.8879C11.8029 20.2326 9.63586 21.5444 9.02264 21.647C9.01402 21.6485 8.74683 22.0837 8.70389 22.143C8.22296 22.8072 7.58466 23.3752 6.74578 23.4818C5.92139 23.5866 5.01075 23.0905 4.79972 22.258C4.73349 21.9968 4.71896 21.7271 4.66699 21.4637L4.39285 20.3249C4.2453 19.8216 4.01802 19.3388 3.76748 18.8793L3.25802 18.0329C2.26831 16.5132 2.37418 15.9328 4.06631 15.0895L11.3693 11.6671C12.799 10.9939 13.4115 10.6406 15.0607 10.5339L18.4165 10.5264C18.9248 10.5266 19.3952 10.5998 19.8046 10.9426C20.252 11.3173 20.308 11.3296 20.9062 11.4611C22.8248 11.8826 24.7735 11.7593 26.6928 11.4676L27.4231 11.3238C27.7073 11.2566 27.6675 11.1869 27.8881 11.0239C28.4717 10.5927 29.1466 10.5278 29.8488 10.5266L32.3893 10.5282C34.2058 10.5356 35.419 11.1313 37.0492 11.8753L44.1093 15.1406C44.3395 15.2459 44.5747 15.3424 44.7781 15.4963L44.8097 15.5207C45.8017 16.2749 45.1892 17.3096 44.6867 18.1171C43.8895 19.3984 43.4952 20.4263 43.2738 21.9482C43.1327 22.9178 42.2983 23.6534 41.292 23.4717L41.0038 23.4138C40.154 23.1962 39.4044 22.3989 38.9744 21.6678C38.2285 21.3401 36.2693 20.385 35.4722 20.876C35.4087 20.9151 35.4338 21.4394 35.4338 21.5527L35.4346 34.0182C35.4338 35.5621 35.5247 36.5506 33.8499 37.3021ZM14.6611 11.8886C13.4521 11.9716 12.7618 12.4446 11.6952 12.9382L6.94538 15.1875C7.20436 15.5043 7.42557 15.9042 7.62136 16.2632L7.9493 16.8754C8.09208 17.1919 8.24874 17.4945 8.35983 17.8246L8.39349 17.9066C8.70591 18.6757 8.72311 19.4789 8.9641 20.2571C9.93938 20.048 11.4042 18.959 12.4941 19.6565L12.6393 19.7654C12.9807 20.0386 13.1013 20.4952 13.1032 20.9127L13.105 34.9768C13.1248 35.6004 13.6078 36.1441 14.2499 36.159L32.4726 36.1694C33.6557 36.1705 34.1752 35.9322 34.1826 34.5798L34.1851 30.3578L34.184 21.9282C34.183 21.5137 34.1359 21.0519 34.2355 20.6488L34.2436 20.6154C34.6399 19.0539 36.8273 19.4273 37.9322 19.8426C38.2773 19.9723 38.6066 20.1639 38.9516 20.282C39.4513 18.3806 39.8354 16.8305 41.0417 15.2265C41.0646 15.1961 41.0871 15.1863 41.0773 15.1492C40.6803 14.9363 40.2501 14.7727 39.8415 14.5815L36.72 13.1428C36.0306 12.8311 35.3506 12.4227 34.6245 12.2084C33.8397 11.9767 32.0704 11.7595 31.2238 11.9013C30.45 16.6269 25.3188 20.1491 20.7514 17.7794C19.5465 17.1543 17.9909 15.7216 17.2452 14.6493C16.6506 13.7944 16.3626 12.8597 16.026 11.8897L14.6611 11.8886ZM17.3683 11.8873C17.4159 12.0641 17.4882 12.2245 17.5399 12.3978L17.7274 12.8737C18.3723 14.5549 20.6446 16.5599 22.365 17.0435C25.5091 17.9272 28.3918 15.8527 29.5553 13.0148L29.579 12.9568L29.9246 11.8925C29.8043 11.8718 29.6674 11.8844 29.5448 11.8849L28.8499 11.8878C28.7538 12.0234 28.7257 12.2016 28.6647 12.356C28.0822 13.8307 27.0597 14.9834 25.524 15.5198C24.1555 15.9979 22.4407 15.784 21.2192 15.0352L20.9601 14.8681C20.0492 14.2607 19.2306 13.266 18.8788 12.213C18.7667 11.8774 18.8593 11.8852 18.5031 11.8857L17.3683 11.8873ZM20.5729 12.7152C21.211 13.484 22.1543 14.3487 23.2022 14.4447C24.3883 14.5535 25.3714 14.3951 26.3136 13.6026L26.3805 13.5419C26.6282 13.2821 26.8661 13.0303 27.0738 12.7367C26.0708 12.8934 25.1237 13.0092 24.1108 13.0111L22.7645 13.0069C22.1968 12.9863 21.5677 12.9398 21.0114 12.8121C20.8697 12.7796 20.7173 12.7247 20.5729 12.7152ZM5.70638 15.7621L4.48931 16.3021C4.30084 16.3963 4.09816 16.4848 3.92821 16.6102C4.76452 18.2932 5.54982 19.0133 5.88061 21.1158L5.94474 21.5395C5.9821 21.7671 5.97005 22.0284 6.21361 22.1468C6.90914 22.4679 7.65366 21.5544 7.89947 21.0132C7.70485 20.4399 7.62605 19.8597 7.47961 19.2761C7.22039 18.243 6.51061 16.5663 5.75283 15.7544L5.70638 15.7621ZM42.2416 15.7493C41.1482 17.0975 40.7609 18.551 40.3099 20.2035L40.0602 20.9987C40.2794 21.5001 41.1363 22.4411 41.7681 22.1503L41.8236 22.1212C42.1127 21.8393 42.0647 21.4726 42.1217 21.0933C42.3094 19.844 42.8258 18.7099 43.4715 17.6319C43.674 17.2937 43.9374 16.9405 44.0915 16.5802C43.519 16.232 42.8531 16.0175 42.2416 15.7493Z" fill="black"/>
</svg>
