<svg width="48" height="48" viewBox="0 0 48 48" fill="none" xmlns="http://www.w3.org/2000/svg">
<path d="M31.2942 38.4128L26.911 38.6999L20.9138 38.6911L19.1461 38.6066L13.4743 37.9948C12.0202 37.7421 12.0153 37.2692 12.4231 35.9484C12.6069 35.3531 12.9373 34.2095 13.0305 33.6434C13.1985 32.6238 13.2587 31.592 13.3345 30.5629L13.5116 27.7387L13.5211 23.5526C13.3913 23.7001 13.1489 23.8214 12.9849 23.9365L11.8628 24.7282C9.8429 26.0767 7.29524 25.6389 6.31673 23.2948C6.17676 22.9594 6.11052 22.589 5.94749 22.2647C5.76028 21.8923 5.45648 21.5771 5.23068 21.2279C4.7849 20.5387 4.58274 19.7183 4.59107 18.9047C4.61022 17.0317 6.01893 15.8406 7.28826 14.6852L8.77602 13.3012C9.80432 12.3394 10.8815 11.3212 11.6131 10.108C11.9978 9.4701 12.243 9.66749 12.8124 9.45913C13.3303 9.26961 13.8116 8.98705 14.3356 8.81146C14.7163 8.68391 15.1129 8.61866 15.5037 8.53171L18.221 7.80763L18.2338 7.80725C18.6303 7.78232 18.8383 8.05569 19.1329 8.27029C21.5411 10.0241 26.3166 9.9374 28.7904 8.30155C29.4723 7.85061 29.3754 7.68571 30.2576 7.9685L30.8787 8.14358C31.7509 8.35344 32.6559 8.49407 33.5115 8.76182C34.0809 8.94004 34.5904 9.23652 35.1466 9.44525C35.3633 9.52658 35.6057 9.52049 35.8191 9.59657C36.2264 9.74174 37.0143 11.0711 37.4716 11.559L41.0217 14.9722C41.7983 15.6976 42.5313 16.3639 43.03 17.3207C43.6465 18.5034 43.441 20.1962 42.7195 21.2736L42.2363 21.9763C41.7846 22.6459 41.7453 23.3038 41.2449 24.0707L41.1708 24.1803C40.0666 25.6866 37.8847 25.7909 36.3705 24.8924C36.0665 24.712 35.8074 24.4887 35.5239 24.2824L34.4402 23.4956C34.4206 23.6809 34.4439 23.8508 34.445 24.0349L34.4494 25.2345C34.4547 25.4038 34.4872 25.5702 34.4907 25.7398L34.5018 28.394C34.5088 28.6135 34.5501 28.8289 34.5601 29.0476L34.8284 32.5551C34.8824 33.0379 34.9128 33.7191 35.0762 34.1765L35.7002 36.3192C35.7321 36.4363 35.7943 36.5387 35.811 36.6611L35.8195 36.727C35.8495 36.8986 35.8469 37.05 35.7805 37.2145L35.7686 37.2426C35.5007 37.886 35.1059 37.8728 34.5318 37.9773L31.2942 38.4128ZM17.3149 9.56455C15.8037 9.94986 14.5312 10.1833 13.1414 10.9139C13.3648 11.3391 13.6149 11.7573 13.802 12.1996L14.3946 13.5707C14.9106 14.7605 14.9041 16.2575 14.904 17.5177L14.894 28.3948C14.8847 28.6494 14.8342 28.8931 14.82 29.1449L14.7808 30.1671C14.7462 30.7933 14.5664 33.7307 14.3647 34.2114L33.6235 34.2381L33.3569 32.0684L33.169 29.4259C33.1571 29.2105 33.094 29.0088 33.0841 28.7934L33.066 17.4101C33.0664 16.7991 33.0246 16.1553 33.111 15.5512C33.3346 13.9891 34.0084 12.2603 34.8682 10.9215C34.5193 10.7587 34.1969 10.5625 33.8376 10.4146C32.8793 10.0204 31.7098 9.74788 30.6912 9.56465C30.6151 9.75496 30.6415 10.0368 30.609 10.2476C30.332 12.0465 28.9044 13.5961 27.2671 14.297C26.0126 14.8341 24.5141 14.9772 23.1524 14.8773C20.515 14.6838 17.7691 12.9651 17.371 10.1738L17.3149 9.56455ZM29.1817 9.73869C27.9977 10.4774 26.6056 10.8722 25.2123 10.9448L23.8625 10.9496C21.7643 10.9479 20.562 10.6744 18.7392 9.75852C18.7582 10.0588 18.8598 10.3234 18.9552 10.6059L18.9878 10.6879C19.124 11.0264 19.3012 11.2738 19.4894 11.5775C20.7316 13.0408 22.2075 13.4319 24.0339 13.4312C26.3052 13.4302 28.961 12.4363 29.1994 9.84585C29.2027 9.80966 29.2009 9.78365 29.1913 9.74882L29.1817 9.73869ZM12.1769 11.7878C11.7084 12.383 11.2233 12.9021 10.6857 13.4384L7.15363 16.7796C6.20099 17.7235 5.6242 18.9644 6.3164 20.2419C6.56981 20.7095 6.93473 21.0997 7.19638 21.5639C7.46076 22.0329 7.6926 23.147 8.11148 23.4397C8.94862 24.2451 10.125 24.1951 11.066 23.5533L13.171 22.0326C13.7189 21.6605 13.6864 21.8812 13.6868 21.2404L13.6877 17.321C13.6868 15.499 13.6352 14.7954 12.8086 13.0327C12.6121 12.6137 12.4345 12.1741 12.1769 11.7878ZM35.7614 11.8012C35.2805 12.6233 34.5914 14.1813 34.4178 15.0921C34.2356 16.048 34.29 17.0265 34.2899 17.9961L34.2904 21.6629C34.3347 21.7153 34.8799 22.0229 34.9949 22.1057L36.0292 22.8679C37.0343 23.6428 38.4922 24.6553 39.7231 23.602L39.9314 23.4049C40.365 22.8681 40.4733 22.2547 40.7746 21.6544C40.9999 21.2056 41.3198 20.8281 41.5747 20.4007C42.4866 18.8724 41.7537 17.6855 40.6711 16.6124L36.5531 12.6788L35.7614 11.8012ZM14.041 35.4731L13.7245 36.5751C13.9828 36.6368 14.2379 36.6509 14.4992 36.6869L18.7381 37.126L19.8739 37.1563C20.1066 37.1692 20.3347 37.2167 20.5662 37.2294L22.6438 37.2726L27.4391 37.2274C27.6805 37.2177 27.9187 37.1724 28.16 37.1581L30.7449 36.9742C31.6419 36.8852 32.5531 36.8349 33.4434 36.6885L34.2651 36.5576L33.9933 35.4887L14.041 35.4731Z" fill="black"/>
</svg>
