<svg width="48" height="48" viewBox="0 0 48 48" fill="none" xmlns="http://www.w3.org/2000/svg">
<path d="M29.15 42.728L15.2302 42.7283C14.0113 42.7281 14.2906 41.8968 14.2899 40.9588L14.2914 39.5108C14.2945 38.7753 14.3678 38.1075 14.3694 37.3584L14.36 29.0938C14.3526 28.888 14.3146 28.6877 14.2986 28.4831L14.1507 26.2499L13.6761 22.2156C13.4626 22.4926 13.2931 22.81 13.1003 23.1024L12.409 24.1141C12.2961 24.2845 12.1543 24.466 12.1017 24.666C11.7481 26.0094 9.80213 25.1421 9.05115 24.7785C7.8473 24.1957 5.58634 22.9403 6.23616 21.2769C6.40304 20.8498 6.97848 20.1914 7.25715 19.6753L9.90212 14.4437C10.6681 12.9193 11.6782 11.7261 13.242 11.017C13.6996 10.8094 14.1688 10.6421 14.6131 10.4038L18.6041 8.07929C18.9468 7.87365 19.2562 7.63018 19.6386 7.50338C19.993 7.4941 20.2073 7.62971 20.534 7.74596L21.2224 7.95352C23.2048 8.47276 25.2571 8.39518 27.2054 7.79593C28.0259 7.5436 28.0814 7.33923 28.919 7.81173L33.2621 10.3457C33.9693 10.7317 34.7461 10.9532 35.4373 11.369C36.5853 12.0597 37.3567 13.0884 37.9802 14.2545L40.6132 19.4413C40.7807 19.7436 40.9473 20.0585 41.1383 20.3459C41.464 20.8363 41.9183 21.3427 41.8811 21.9773C41.8156 23.0964 40.4436 23.9191 39.5751 24.4272C38.7892 24.887 36.967 25.9176 36.1804 25.0596C35.9596 24.8188 35.8587 24.4762 35.6904 24.1983L35.026 23.2139C34.8 22.8772 34.5942 22.5184 34.3327 22.2082C34.1913 22.7746 34.1037 23.7158 34.0392 24.309L33.7204 28.1419C33.702 28.3741 33.6639 28.6024 33.6544 28.8361L33.6008 35.3297L33.6437 39.6092C33.6464 39.9292 33.7043 40.2369 33.7056 40.5585L33.7042 41.6407C33.7044 42.4447 33.5872 42.7266 32.78 42.728H29.15ZM27.6009 9.05846C24.9385 9.70777 22.9563 9.8168 20.2786 9.05977L20.3254 9.80555L20.5288 9.90263C22.6118 10.8689 25.5834 10.8928 27.609 9.84432L27.6778 9.05846H27.6009ZM28.9525 9.30535C28.9169 9.62405 28.9102 9.93446 28.8195 10.2456L28.7961 10.3455C27.8679 14.7222 22.192 15.6015 19.8853 11.9288C19.3837 11.1301 19.1649 10.2442 19.0232 9.32532C18.8934 9.39216 17.9258 9.9166 17.8794 9.99015C17.9482 10.3478 18.0096 10.7656 18.1332 11.1069L18.2638 11.5258C19.749 16.368 26.8966 17.0155 29.3318 12.4462C29.7545 11.653 29.9265 10.8314 30.1325 9.96816L28.9525 9.30535ZM16.6649 10.746L14.7811 11.7551C14.2144 12.0255 13.609 12.2074 13.0858 12.5627C12.0877 13.2406 11.4951 14.1346 10.9645 15.1874L8.36762 20.3919L11.0172 21.6244C11.3816 21.7975 11.7924 21.9517 12.129 22.171L13.2643 20.5146C13.5528 20.0996 13.8921 19.4641 14.4748 19.93C14.6545 20.0738 14.7055 20.2868 14.7269 20.5046L15.5101 26.9739C15.5982 27.4009 15.549 27.8866 15.5706 28.3241L15.6328 28.9803L15.6374 41.2673L32.3786 41.2688L32.3674 38.0975C32.3625 37.8889 32.3255 37.6831 32.3223 37.4725L32.3208 36.5287C32.321 36.4024 32.3414 36.2372 32.3173 36.1151L32.3229 30.3514C32.3281 30.1886 32.3604 30.0285 32.3651 29.8657L32.5577 26.1204L33.1914 20.9968C33.2294 20.6637 33.2261 20.1833 33.4791 19.9381C33.674 19.7492 34.1275 19.7298 34.3153 19.9435L35.9608 22.2955L39.6742 20.3683C39.4085 19.9421 39.2067 19.4772 38.9752 19.0322L37.4218 15.9815C36.7232 14.5813 36.0571 13.2453 34.6797 12.4078L31.3139 10.7256C31.1737 11.1977 31.0636 11.6629 30.8871 12.1249C28.633 18.0252 20.3568 18.4411 17.4892 12.9541C17.1203 12.2483 16.9024 11.5155 16.7261 10.7421L16.6649 10.746ZM21.1768 11.5151C21.6992 12.2288 22.4116 12.7246 23.2994 12.8629L23.7017 12.922C24.4704 13.0396 25.5124 12.7422 26.1162 12.2889L26.3103 12.1336C26.5068 11.9635 26.6692 11.7759 26.8254 11.5689C25.0165 11.9716 22.9445 12.1746 21.1768 11.5151ZM7.69299 21.4834C7.54787 21.5919 7.46424 21.6837 7.36524 21.8379C7.73757 22.732 9.28712 23.5174 10.1313 23.8661C10.3153 23.9422 10.701 24.1168 10.8982 24.0916L11.0031 23.9406L11.4195 23.2595L7.69299 21.4834ZM40.2643 21.5038C40.0944 21.56 39.9456 21.6553 39.7904 21.7423L37.4315 22.967C37.1791 23.0956 36.8895 23.213 36.6538 23.3666L37.0681 24.035L37.1365 24.0841C38.1893 23.897 39.9845 22.8414 40.5736 22.0235C40.7185 21.8223 40.4671 21.6113 40.3215 21.4995L40.2643 21.5038Z" fill="black"/>
<path d="M30.5067 23.3045C30.2678 23.4742 30.0315 23.633 29.7672 23.7621C27.5026 24.868 24.7845 23.3775 24.4064 20.8594C24.3781 20.6707 24.3944 20.4591 24.3938 20.2674V19.1874C24.3951 18.6143 24.3897 18.287 25.0097 18.0275L30.9517 18.0186C31.9024 18.0226 31.8833 18.8805 31.8877 19.6278C31.8967 21.1772 31.8509 22.1777 30.5067 23.3045ZM25.6701 19.3518C25.6617 20.6361 25.6421 21.9083 27.0472 22.5687L27.5402 22.7561C28.3367 23.0537 29.3361 22.6609 29.9161 22.0905C30.5769 21.3843 30.6754 20.5529 30.6474 19.6218L30.6311 19.3457L25.6701 19.3518Z" fill="black"/>
</svg>
