<svg width="48" height="48" viewBox="0 0 48 48" fill="none" xmlns="http://www.w3.org/2000/svg">
<path d="M17.2713 6.03733C18.2894 6.03747 18.2534 5.99542 19.2083 6.3236C22.023 7.291 25.5707 7.20789 28.4549 6.49122C29.31 6.27874 29.6013 6.03728 30.5243 6.03583L33.1445 6.03738C34.6353 6.03958 35.8969 6.22146 37.1861 7.06258C38.1173 7.67013 38.7571 8.59553 39.586 9.31642C40.2764 9.91689 41.0324 10.445 41.7599 10.9994C42.4878 11.5542 43.701 12.2629 43.4397 13.3707L43.3736 13.6408C43.2347 14.091 42.972 14.5155 42.7537 14.9298L41.1202 18.1193C40.5048 19.3551 39.8602 21.0631 38.1238 20.3216L37.2066 19.9008C37.025 19.8169 36.8384 19.741 36.659 19.654C36.6217 20.2341 36.6505 20.8323 36.6504 21.4141L36.6506 39.4251C36.6488 40.5336 36.2922 41.505 35.1011 41.8635C34.5704 42.0233 33.9515 41.9734 33.4029 41.9736L31.7168 41.9725L13.8128 41.9734C13.3038 41.9731 12.8139 41.9338 12.3839 41.6226L12.3516 41.5989C11.6048 41.0548 11.2993 40.3126 11.2995 39.4249L11.3048 20.2411C11.3057 20.0488 11.3185 19.8528 11.3029 19.6614C10.5888 19.9574 9.65452 20.6866 8.86702 20.4741L8.82427 20.462C8.65106 20.415 8.48911 20.3531 8.34089 20.2499L8.30864 20.227C7.52063 19.6722 7.02211 18.3897 6.60253 17.56L5.04267 14.5337C4.13872 12.7211 4.39187 12.3921 6.07603 11.18C6.78394 10.6706 7.50445 10.1746 8.17256 9.61291C10.1329 7.96483 11.0024 6.27316 13.9035 6.04821C14.3097 6.01671 14.7309 6.03883 15.1393 6.03841L17.2713 6.03733ZM13.7603 7.486C12.4954 7.62199 11.4571 8.23849 10.5828 9.13736L9.67936 10.1112C9.22828 10.5573 8.71884 10.9481 8.20289 11.3154L11.1952 17.8184C11.5457 18.6157 11.6987 17.7104 12.4156 18.0979L12.5111 18.1623C12.7379 18.3349 12.6634 18.7379 12.6637 18.9839L12.6628 39.3003C12.6625 39.4789 12.6496 39.6651 12.684 39.8411L12.6902 39.8742C12.75 40.172 12.9261 40.3315 13.1836 40.4539L13.215 40.4698C13.3111 40.517 13.4068 40.522 13.5118 40.5229L34.362 40.5233C34.5468 40.523 34.7633 40.5699 34.925 40.4615L34.9543 40.443C35.4163 40.1445 35.2966 39.4943 35.2969 39.0292L35.2957 37.1368L35.2958 19.056C35.2958 18.8438 35.2652 18.5875 35.3353 18.3868L35.3449 18.357C35.5655 17.6904 36.5239 18.2195 36.6232 18.1643C36.6362 18.1571 39.5108 11.8775 39.7975 11.2841C39.7222 11.1418 38.2685 9.99194 37.9814 9.69456C36.9307 8.60636 36.6059 8.11867 35.1015 7.65349C34.6461 7.51267 34.317 7.47592 33.8443 7.4756L32.7831 7.47541C32.0866 7.4756 31.3637 7.43669 30.6702 7.48385C30.4904 7.94121 30.2973 8.37813 30.0342 8.7956C27.1781 13.327 19.5253 12.8885 17.6269 7.83991C17.592 7.74714 17.5759 7.56152 17.5015 7.49557C17.4693 7.46707 14.1084 7.4651 13.7603 7.486ZM19.1005 7.73847C20.418 10.7073 24.7626 11.2629 27.3008 9.60344L28.0042 9.05313C28.4043 8.6756 28.7114 8.31222 28.9506 7.81296L26.3321 8.2585C24.2076 8.50572 21.1805 8.44816 19.1005 7.73847ZM7.07236 12.1434C6.68588 12.4014 6.33727 12.717 5.9512 12.9804C5.79038 13.0901 6.23611 13.8772 6.31842 14.0274L6.48024 14.3547C6.68138 14.7999 6.93708 15.2319 7.15861 15.668L8.47833 18.1758C8.63902 18.4706 8.79033 18.8328 8.99184 19.0969C9.27469 19.2621 9.89836 18.8764 10.0913 18.6207L7.36538 12.7907C7.2787 12.5925 7.1926 12.3179 7.07236 12.1434ZM40.9207 12.129L38.104 18.3444C38.0726 18.4245 37.9565 18.6316 37.9734 18.7043C38.1953 18.8748 38.7788 19.3385 39.0381 19.0425C39.332 18.6725 39.5316 18.2136 39.7417 17.793L41.3326 14.6925C41.6262 14.1334 41.9114 13.6074 42.1016 13.0016L41.3736 12.4346C41.2353 12.329 41.1048 12.2108 40.9538 12.1233L40.9207 12.129Z" fill="black"/>
<path d="M25.5254 16.1976C25.7979 16.1805 26.0705 16.3356 26.1454 16.6084L26.1569 16.6522C26.3013 17.0849 26.1352 17.3804 25.9986 17.7904L25.312 20.3084C25.2535 20.5895 25.2164 20.8923 25.1359 21.1663L25.1258 21.1991C25.6259 21.2206 26.1199 21.1677 26.6176 21.1486L29.6218 21.0393C29.7623 21.0387 29.9288 21.0244 30.0649 21.0628L30.2065 21.1077C30.7115 21.3224 30.7512 22.0421 30.2825 22.3297L30.2531 22.3475C30.0065 22.5066 29.5888 22.4352 29.3084 22.4451L26.835 22.5717C26.1428 22.5894 25.4468 22.5469 24.7574 22.6215L24.5562 23.8314C25.4436 23.7599 26.3349 23.7487 27.2243 23.7419C27.5138 23.7397 27.8463 23.7015 28.1293 23.7434C28.676 23.8244 29.0675 25.1608 27.6781 25.1664L24.2332 25.1825C24.0688 25.6148 23.9924 26.5279 23.8323 27.0722L23.1899 29.2123C23.1015 29.4746 23.0703 29.8153 22.8444 30.0023C22.5319 30.2611 22.1189 30.1837 21.8627 29.8875C21.5723 29.3534 21.929 28.7577 22.0911 28.2319L22.5165 26.6419C22.6254 26.205 22.7496 25.7438 22.7895 25.2951C21.6881 25.3014 20.64 25.3736 19.5442 25.4263L18.3344 25.4873C18.1588 25.4905 17.9744 25.5027 17.8003 25.474C17.4339 25.4136 17.2708 24.8946 17.3528 24.5806C17.4868 24.0687 18.0595 24.1083 18.4622 24.0873L20.2162 24.0068C20.5182 23.9937 20.8171 23.9288 21.1208 23.9186L23.1415 23.8841L23.3311 22.6763C23.2016 22.5962 20.0891 22.6353 19.7144 22.6344C19.1631 22.6332 18.2118 22.7799 18.1876 21.9771C18.1688 21.3516 18.5967 21.2468 19.102 21.2474L23.7127 21.2492C23.9454 19.9929 24.2127 18.7312 24.6197 17.5182C24.7842 17.0283 24.9412 16.3268 25.5254 16.1976Z" fill="black"/>
</svg>
