<svg width="48" height="48" viewBox="0 0 48 48" fill="none" xmlns="http://www.w3.org/2000/svg">
<path d="M32.5894 41.9812H12.2318C11.3024 41.9803 10.424 41.8895 9.96697 40.8777L9.94967 40.8385C9.57552 40.0081 9.95347 39.4707 10.2095 38.7151C10.889 36.7098 11.1382 34.5185 11.3283 32.4223L11.4789 29.9422C11.4929 29.6738 11.5369 29.4083 11.5451 29.1395L11.5438 23.1286C11.4935 22.068 11.2869 21.0138 11.2436 19.9546C9.22086 19.862 9.46986 22.2818 7.81175 21.9943C5.1695 21.5363 3.30809 18.9185 1.77831 16.9334C1.43204 16.484 0.92864 15.98 0.784673 15.4207C0.32562 13.6374 2.79601 12.712 4.00676 12.0412L8.13809 9.71224C8.6082 9.43525 9.07827 9.16089 9.52686 8.84946C10.5791 8.11891 11.5957 7.25875 12.927 7.14044L13.7573 7.10655C15.255 6.99044 16.6423 6.42967 18.0818 6.05083C18.6583 5.99505 18.9269 6.54175 19.2718 6.90508C20.5876 8.29127 22.2906 8.65356 24.1229 8.64283C25.9008 8.63238 27.8 8.19208 28.9716 6.75663C29.6863 5.88105 29.4636 5.94377 30.6301 6.27414L33.0581 6.92524C33.4586 7.01247 33.8553 7.07317 34.2651 7.10125C35.853 7.2101 36.4692 7.40927 37.842 8.39027L39.125 9.25708L45.4384 12.8368C46.0444 13.1912 47.1305 13.7534 47.2425 14.5516L47.2603 14.6496C47.4394 15.3698 46.9317 15.9498 46.5134 16.4606L44.9036 18.5623C43.8075 19.9259 42.0232 21.8012 40.2482 21.9885L40.2065 21.9927C39.4198 22.0762 39.1632 21.8225 38.7942 21.2212C38.341 20.4827 37.6409 19.6242 36.71 20.129C36.6543 20.3867 36.6555 20.6584 36.6348 20.9208L36.4944 22.3123C36.448 22.6531 36.4554 23.0058 36.4505 23.3494L36.4578 29.4632C36.4667 29.7263 36.5255 29.975 36.5355 30.2364L36.5647 31.5362C36.5712 31.6265 36.6025 31.7076 36.6093 31.7958L36.6571 32.5779L37.1772 36.2147C37.2759 36.7998 37.3663 37.4034 37.5469 37.9685C37.6908 38.4186 38.084 39.343 38.1447 39.694C38.1503 39.7263 38.1543 39.7563 38.1654 39.7876C38.5007 40.7285 37.5651 41.7612 36.6814 41.9361L36.641 41.9439C36.2045 42.0311 35.6843 41.9809 35.2362 41.9811L32.5894 41.9812ZM18.0135 7.53667C18.8714 9.96906 20.7338 11.6533 23.3145 11.9159C25.5573 12.144 28.3614 11.155 29.4515 9.09091L29.4545 9.08233C29.7328 8.59853 29.9211 8.13878 30.047 7.59555C28.7164 8.94049 27.0054 9.91127 25.0776 9.92064L23.0208 9.91492C21.0554 9.81044 19.3542 8.95633 18.0135 7.53667ZM16.5641 7.8865C15.3077 8.24317 14.6801 8.40175 13.4012 8.44342C12.1766 8.48327 11.5233 9.04858 10.6167 9.7015L8.99595 10.7555L4.73464 13.1599C3.91162 13.6123 2.53563 14.1649 1.97818 14.9483C2.24733 15.5276 2.73386 16.052 3.13041 16.5485C4.21312 17.904 5.7583 19.9626 7.46 20.577L7.9798 20.7323C8.98213 19.5094 9.47127 18.4121 11.444 18.6464C12.5682 18.7799 12.4421 19.4178 12.5719 20.3838L12.7603 22.1416C12.7779 22.3163 12.8105 22.4885 12.8195 22.6645L12.8978 24.2225L12.9081 27.6397C12.9016 27.845 12.8548 28.0474 12.8481 28.2548L12.7143 31.4444L12.2381 35.6334L11.6924 38.262C11.5992 38.6668 11.4584 39.0773 11.3185 39.4685C11.0567 40.2006 10.9365 40.517 11.8227 40.5172L35.7374 40.5155C35.9941 40.5154 36.4381 40.5919 36.6644 40.4641L36.7022 40.4435C36.8173 40.3284 36.8855 40.2532 36.904 40.0843C36.3858 38.6597 36.0414 37.3158 35.8062 35.824L35.4638 33.52L35.1696 30.0625L35.0964 26.0261C35.1019 25.8628 35.1367 25.702 35.1437 25.5385L35.1605 22.8752L35.3422 20.6365C35.3798 20.2722 35.4268 19.8804 35.585 19.5459C36.0699 18.5198 37.4763 18.47 38.3696 18.9305C39.0787 19.296 39.4987 19.9924 39.9722 20.599C40.1185 20.7865 40.1918 20.6833 40.4082 20.6206C42.1772 20.1083 43.9567 17.6067 45.0374 16.2422L45.6875 15.4336C45.8014 15.2922 45.9428 15.1466 46.0285 14.9864L46.0382 14.9675C45.7205 14.3208 43.7715 13.3948 43.1038 13.021L37.6176 9.82699C36.5282 9.08908 35.7489 8.46921 34.3867 8.43485C34.1526 8.42894 33.8979 8.44192 33.6675 8.39927L32.062 8.03753C31.8603 7.99019 31.5746 7.88369 31.3706 7.8835C31.2358 8.29005 31.1442 8.69791 30.9722 9.09438C29.4556 12.5881 24.9834 14.0335 21.497 12.8651C19.6731 12.2538 18.0666 10.849 17.2036 9.12869C17.1183 8.95853 16.7402 7.91969 16.6288 7.86752L16.5641 7.8865Z" fill="black"/>
<path d="M33.8309 27.727L27.5544 27.7312C26.9208 27.7303 26.3265 27.7771 26.2873 26.912L26.2933 19.9964C26.2929 19.2822 26.0556 18.3435 26.8879 18.028L33.8704 18.0215C34.0216 18.0349 34.1838 18.1595 34.2766 18.272L34.2992 18.3C34.511 18.5511 34.4225 18.9717 34.4227 19.2761L34.4251 25.1561C34.4298 25.6435 34.5851 26.7752 34.4227 27.1807L34.3518 27.3475C34.2365 27.5544 34.0568 27.6711 33.8309 27.727ZM27.7894 19.4824L27.7033 19.5034C27.6711 19.8204 27.7019 20.1731 27.7028 20.4932L27.7022 25.903C27.7021 26.0171 27.6879 26.1514 27.712 26.2626L32.9645 26.2673L33.0285 19.4833L27.7894 19.4824Z" fill="black"/>
</svg>
