<svg width="48" height="48" viewBox="0 0 48 48" fill="none" xmlns="http://www.w3.org/2000/svg">
<path d="M33.3867 42.5622L13.4386 42.5634C12.9069 42.5631 12.2521 42.5646 12.1726 41.8245C12.1597 41.704 12.1922 41.5662 12.1936 41.4432L12.1997 40.3549C12.2028 39.8268 12.2544 39.2918 12.3065 38.7659L12.5062 37.2297L13.2124 33.7043C13.2804 33.299 13.3024 32.8819 13.3363 32.4729L13.4845 30.5438C13.53 29.6237 13.4255 28.8562 13.4161 27.9915L13.4035 25.055C13.3991 24.8408 13.3471 24.6335 13.3416 24.4221L13.2414 20.8035C13.1962 20.8351 13.1479 20.8741 13.0951 20.8911L13.0195 20.9147C12.3864 21.1999 11.7216 22.1806 11.4541 22.778C11.2978 23.1271 11.242 23.5715 10.8465 23.74L10.8164 23.7521C10.4507 23.9025 10.0697 23.6384 9.75461 23.4782C7.68357 22.4255 4.33064 19.9488 3.83875 17.5097C3.75773 17.108 3.88547 16.9479 4.13042 16.6685L5.68436 14.5768C7.08779 12.4215 8.04236 9.67541 10.3166 8.25341C11.1683 7.72086 12.1273 7.46839 13.0763 7.17355L17.1547 5.83916C17.584 5.69178 18.0364 5.50859 18.4808 5.41944C18.9984 5.37706 19.1874 5.89447 19.415 6.26033C21.6433 9.84284 25.5754 10.3453 28.2018 6.78791L28.5818 6.22339C29.2413 5.147 29.1641 5.34884 30.3984 5.72098L34.0781 6.86225C37.2778 7.81939 38.411 8.09295 40.3315 11.2214L41.9242 13.9015C42.4567 14.7683 43.0156 15.6801 43.6972 16.4417C44.0471 16.8325 44.2919 17.0289 44.1244 17.6086C43.5456 19.6121 41.626 21.3324 39.9367 22.493C39.4767 22.809 37.7646 23.8848 37.2518 23.7758C36.436 23.6025 36.4812 21.6656 34.6771 20.8602L34.6078 22.4325C34.5543 22.8338 34.5936 23.2846 34.5933 23.6911L34.5783 26.1542C34.5743 26.46 34.502 26.7456 34.4881 27.0471L34.4735 29.3582C34.4744 29.9978 34.4496 30.6554 34.5025 31.2926L34.6333 32.455C34.6566 32.6628 34.6585 32.8761 34.6883 33.0823C34.865 34.3074 35.2747 35.4971 35.4899 36.7171L35.812 39.0262C35.8812 39.6624 35.8614 40.3199 35.862 40.9595L35.8622 41.569C35.8622 41.6998 35.8738 41.8169 35.8268 41.9427L35.8133 41.9768C35.5919 42.5622 35.208 42.5631 34.6927 42.5638L33.3867 42.5622ZM18.1397 6.97292L12.5625 8.80625C10.3163 9.58002 9.74561 10.4444 8.56168 12.4377L7.55401 14.2092C7.0232 15.113 6.45184 15.991 5.81172 16.8214C8.11665 17.7259 9.47608 19.0957 10.753 21.1242C11.5007 20.0922 12.6001 19.3539 13.8692 19.1389C14.8047 18.9804 14.6929 19.9961 14.6942 20.539L14.697 22.2789C14.6978 22.7574 14.6735 23.2477 14.7637 23.7192L15.5328 23.2454C17.3451 22.1517 19.735 22.0256 21.7514 22.54C22.2055 22.6558 22.6391 22.7966 23.1051 22.8681C24.1282 23.0253 25.5916 22.8121 26.4646 22.3056L29.8064 20.6338L30.9903 20.1688C33.6769 19.0855 35.062 18.5982 37.2419 21.2249C37.9647 19.5321 40.0697 17.708 41.7072 17.0479L42.2234 16.838C41.1572 15.4399 40.2914 13.8968 39.4077 12.3808C38.1093 10.1532 37.4325 9.36463 35.039 8.62264L29.7773 6.98183C29.7302 7.00184 29.6831 7.12006 29.6553 7.16834C28.7993 8.65138 26.8888 10.0449 25.2656 10.5016C22.9637 11.1492 20.4994 9.78322 19.0216 8.0788C18.8597 7.89205 18.2533 6.96219 18.1397 6.97292ZM5.67306 18.2723C6.28257 19.336 7.35939 20.1951 8.32459 20.9118L9.48836 21.7388C8.82034 20.5165 7.63318 19.3489 6.45212 18.6516C6.19614 18.5006 5.9357 18.4029 5.67306 18.2723ZM42.2188 18.3167C40.8822 18.9059 39.2339 20.3306 38.6367 21.6345L38.6601 21.659C39.8568 20.9202 41.5396 19.5359 42.2513 18.3401L42.2188 18.3167ZM33.2186 20.8479L29.1365 22.4653C28.1242 22.9245 27.2128 23.6159 26.1707 23.9904C24.9497 24.4292 23.3915 24.463 22.1517 24.1407C20.8516 23.8026 19.6394 23.434 18.2578 23.7912L17.6367 23.9365C17.0534 24.1022 15.1922 24.935 14.8141 25.4433L14.8304 27.4138C14.8304 27.7423 14.7874 28.1223 14.8564 28.4417C14.9588 28.445 15.6497 27.9957 15.7929 27.9209C16.364 27.6222 16.9876 27.3684 17.6178 27.2229L18.5856 27.0475C18.8096 26.9977 19.0751 27.0191 19.304 27.0187C20.4987 27.0168 21.0662 27.1532 22.2435 27.4748C22.7363 27.6094 23.0808 27.6738 23.5992 27.6771C24.7842 27.6847 25.9722 27.5727 27.0703 27.092C27.5713 26.8726 28.0437 26.599 28.555 26.4012C30.2903 25.7303 31.2664 25.7561 32.765 24.4814C33.307 24.0204 33.1873 24.201 33.1896 23.4854L33.1932 22.1556C33.1937 22.0098 33.2695 20.9082 33.2302 20.8529L33.2186 20.8479ZM33.0859 26.0042C32.1287 26.8971 30.2392 27.2881 29.039 27.756L27.165 28.5707C25.6955 29.1322 23.7162 29.3382 22.1658 28.9216L21.0285 28.5853C19.5157 28.2136 17.7122 28.4754 16.365 29.2217C16.1795 29.3244 14.9557 30.075 14.8707 30.1788L14.7131 32.6604L14.7436 32.6903C16.7888 31.8454 18.6368 31.4267 20.8886 31.8146C21.6509 31.9459 22.3918 32.1879 23.1665 32.2473C26.5262 32.5051 30.1865 30.8227 32.8202 28.8161C32.9155 28.7434 33.0317 28.6915 33.1017 28.5946L33.0859 26.0042ZM33.073 30.3746C32.2581 31.0278 31.3311 31.5126 30.3984 31.97L29.0522 32.5678C26.9124 33.4748 24.7641 33.8943 22.4217 33.6316C22.0398 33.5888 21.6626 33.479 21.2884 33.3956C19.2031 32.9313 17.1259 33.1372 15.1907 34.054L14.7879 34.2488C14.4693 34.4008 14.5552 34.3739 14.4818 34.706L14.03 36.762C14 36.9238 13.9436 37.0982 13.9551 37.2647L14.2033 37.1765C14.6432 36.979 15.0974 36.8069 15.5625 36.6785L16.2861 36.5138C17.0564 36.3205 18.9123 36.3209 19.7863 36.3986C20.7929 36.488 21.7425 36.7854 22.7343 36.9371C26.3874 37.4955 30.6156 35.3648 33.2827 33.0492L33.073 30.3746ZM33.5513 34.5979L33.0722 35.0143C30.5931 37.0163 27.1039 38.4219 23.8899 38.4199C22.5379 38.419 21.8385 38.1551 20.6082 37.9529C18.6934 37.6382 16.4482 37.7487 14.6623 38.4955L13.6975 38.9489L13.5716 40.7409C13.5642 41.1062 13.4574 41.3479 13.9746 41.2224L34.4861 41.2239L34.4117 39.1381C34.2854 37.667 33.9977 36.0184 33.5513 34.5979Z" fill="black"/>
</svg>
