<svg width="48" height="48" viewBox="0 0 48 48" fill="none" xmlns="http://www.w3.org/2000/svg">
<path d="M30.9663 40.8891C30.0112 41.0265 29.0531 41.0473 28.0911 41.0745L20.9639 41.1208C20.7846 41.1157 20.6089 41.0822 20.4297 41.0761L19.163 41.0393C18.9461 41.0234 18.7323 40.9801 18.5158 40.967L16.3713 40.7944C14.6984 40.6092 13.4504 40.1711 12.9679 38.2818C12.8069 37.6516 12.8696 36.964 12.8697 36.3158L12.8702 24.7398C12.8699 24.5063 12.9042 24.1828 12.8378 23.9586L12.6687 23.1749C12.0159 23.7395 11.7396 23.7953 10.9068 23.6263C8.59701 23.1577 5.48442 21.3416 4.56085 19.1103C4.05566 17.8899 4.35766 17.1835 5.11176 16.2317L7.8179 13.1162C8.89162 11.9237 9.67734 10.9385 11.1916 10.2905C12.0565 9.92033 12.9555 9.67906 13.8077 9.26909L16.4501 7.94243C17.5862 7.35129 17.9959 7.02481 19.2932 6.87607C19.4059 6.85325 19.602 6.85086 19.7074 6.89623L19.7346 6.90875C20.1782 7.09372 20.2736 7.60414 20.5382 7.96493C22.0897 10.0796 26.3994 9.97072 27.6463 7.66367C27.8103 7.36015 27.8601 7.05945 28.2222 6.91747L28.257 6.90439C29.1603 6.55658 30.7039 7.59153 31.4541 7.95818L34.7075 9.52372L36.307 10.1197C38.0741 10.7761 38.8919 11.6428 40.0932 13.0331L42.9227 16.4345C43.0891 16.6296 43.3086 16.8558 43.4143 17.0904L43.424 17.1124C43.8338 17.9404 43.3806 19.0502 42.9266 19.7578C41.8176 21.4865 40.0425 22.6817 38.133 23.3615C37.0192 23.758 36.3277 24.0361 35.3975 23.2546L35.2302 23.7537C35.015 24.3142 35.1298 25.1326 35.1297 25.7274L35.1295 36.9305C35.1291 38.0527 35.1562 38.7537 34.3573 39.6955C33.504 40.7016 32.1874 40.7911 30.9663 40.8891ZM28.7764 8.19931C27.141 11.5557 21.3597 11.5853 19.3882 8.59887L19.1696 8.21815C19.0008 8.23259 18.8458 8.24454 18.6867 8.30839C18.5973 8.48187 18.7958 9.19025 18.8825 9.40714L19.0606 9.93317C19.2373 10.3965 19.4052 10.8774 19.6665 11.3018C20.3455 12.5404 21.3905 13.5941 22.7692 14.0029C25.9206 14.9373 28.2922 12.254 29.0941 9.47239L29.3743 8.30722L28.7764 8.19931ZM17.4526 8.91392L13.9455 10.6413C11.988 11.5132 10.4981 11.5859 9.16987 13.5387C12.6136 14.5276 14.8021 17.573 13.9949 21.1264C13.9091 21.5038 13.8012 21.9418 13.6525 22.3012L13.668 22.3176C14.2655 23.0613 14.1554 25.384 14.1556 26.2864L14.1534 36.3148L15.8984 36.5577L20.8596 36.8629C21.037 36.87 21.2109 36.903 21.3891 36.9068L26.919 36.908C27.0867 36.9035 27.2506 36.8681 27.4182 36.8635L28.6921 36.8504L33.8662 36.4925L33.8665 33.7615L33.8698 24.1637C33.8934 23.6137 34.0517 23.0368 34.2682 22.5294C34.3536 22.3294 34.4088 22.3344 34.3321 22.1328L34.1834 21.7347C33.9172 20.9683 33.8647 20.4844 33.8647 19.6952C33.8643 16.5452 35.9797 14.5789 38.686 13.4145C37.4435 11.6725 35.9035 11.469 34.0867 10.6669L30.5314 8.92864C30.4538 9.46475 30.3059 9.95004 30.1255 10.4592C28.9636 13.7375 25.892 16.3628 22.3342 15.2347C19.6386 14.38 17.9245 11.578 17.4526 8.91392ZM39.6864 14.6362C39.0209 14.687 38.4664 14.9639 37.8965 15.2907C36.4806 16.1028 35.5031 17.1628 35.1927 18.8157C35.0208 19.7316 35.1058 21.4115 35.891 22.0779L35.8959 22.0509C35.9509 21.7587 36.0934 21.4739 36.2459 21.2208C37.2493 19.6073 39.7797 17.6995 41.5499 16.7963L40.0606 14.9311C39.9869 14.8326 39.9201 14.7207 39.8285 14.6381L39.6864 14.6362ZM8.11542 14.6887L6.3344 16.7719C7.84846 17.6822 11.0107 19.6665 11.8668 21.2713C11.9898 21.5023 12.0884 21.7553 12.2324 21.9731L12.2419 21.9531C12.3696 21.6895 12.5401 21.4639 12.6467 21.1855C13.1879 19.772 12.7385 17.8465 11.8511 16.689C11.0209 15.6063 9.48675 14.77 8.11542 14.6887ZM5.55618 17.8709C5.5492 18.0184 5.5845 18.1412 5.62537 18.281L5.67309 18.4217C6.37809 20.2198 9.01307 21.861 10.9162 22.3031C10.5081 21.2005 8.98771 20.0558 8.06268 19.4299L5.92036 18.0536C5.83743 18.0042 5.65776 17.8412 5.55618 17.8709ZM42.2226 17.8709C41.864 18.0656 41.5255 18.3453 41.1803 18.5682C39.8691 19.4149 37.7477 20.7018 37.1881 22.2654L37.2541 22.2689C38.9298 21.8053 41.0249 20.4884 41.9098 18.9213C41.9899 18.7795 42.4319 17.8752 42.2226 17.8709ZM14.1914 37.6053C14.1497 37.6697 14.1583 37.7165 14.1712 37.7928L14.3083 38.227C14.649 39.2158 15.4058 39.4024 16.3244 39.493L20.5919 39.8166L27.3448 39.8169L29.1254 39.7473C29.5019 39.7239 29.8806 39.6768 30.2595 39.6516L30.8074 39.5884C31.6534 39.5157 32.7142 39.5721 33.3398 38.9042C33.6156 38.5766 33.7908 38.21 33.8543 37.7853C33.2991 37.7808 32.7525 37.8878 32.2 37.9298L28.8518 38.142C28.0854 38.1863 27.3082 38.1373 26.5402 38.1583C26.3181 38.1644 26.1012 38.2161 25.8763 38.2204L22.0904 38.2167L17.919 38.036C17.7694 38.0271 17.6246 37.9987 17.4762 37.9872L15.2864 37.7694C14.9246 37.7205 14.5481 37.6809 14.1914 37.6053Z" fill="black"/>
</svg>
