<svg width="48" height="48" viewBox="0 0 48 48" fill="none" xmlns="http://www.w3.org/2000/svg">
<path d="M33.9731 41.0922L14.1564 41.0974C13.6689 41.0975 13.075 41.1304 13.0764 40.4439C13.0774 39.9634 13.1688 39.4654 13.2069 38.9861L13.2663 38.0621C13.281 37.903 13.3096 37.7491 13.3179 37.5881L13.3442 34.261C13.3529 34.0403 13.3975 33.8256 13.4025 33.6035L13.4161 32.7664C13.4245 32.3061 13.485 31.8212 13.5242 31.359L14.3033 25.4449L13.7317 25.8407C13.2687 26.1202 12.6809 26.2985 12.144 26.3515C11.4518 26.42 11.2633 26.1959 10.9156 25.6777C10.1811 24.583 9.1518 23.6155 8.05122 22.8993L6.51607 21.9359C6.29866 21.7947 6.03621 21.6233 5.91452 21.3858L5.85489 21.2514C5.61391 20.5047 6.33096 20.0021 6.78086 19.5542L7.64214 18.6287L9.56116 16.086C10.4368 14.918 11.4494 13.8711 12.8208 13.3152C14.8896 12.4766 14.8898 12.2268 16.3342 10.5216C16.4503 10.3846 16.6445 10.2573 16.7319 10.1095C16.9433 9.75161 17.2433 9.06171 17.387 8.68296C17.6855 7.89592 17.594 7.16313 18.5107 6.86983C19.1359 6.83158 19.2676 7.07683 19.7817 7.38316C22.2695 8.86567 25.339 8.9245 27.7659 7.32733C27.9595 7.19992 28.1583 7.02541 28.3752 6.94342L28.4067 6.93213C29.9617 6.35022 29.8713 9.68946 30.8347 10.1195C31.3733 10.3599 31.6698 10.9134 32.0283 11.356C32.7002 12.1857 33.5468 12.8833 34.509 13.3507C34.8687 13.5254 35.2502 13.663 35.5932 13.8702C36.6289 14.4958 37.396 15.4625 38.1607 16.3769C38.6976 17.019 41.4206 20.352 42.1972 20.5415C42.5503 20.6277 43.3634 21.531 43.408 21.8504C43.515 22.616 43.0835 23.2941 42.6558 23.8825L39.7286 27.8404C39.1288 28.6343 37.1823 27.4356 36.648 27.0114C35.8298 26.3617 36.297 26.5976 35.2973 26.317C34.7514 26.1638 34.1219 25.8453 33.674 25.4985L34.6376 33.6676C34.6943 34.0657 34.6663 34.4913 34.6661 34.8938L34.6659 37.081C34.6682 37.4249 34.649 37.8121 34.7135 38.1488L34.9398 40.2673C34.9787 41.0067 34.6245 41.0863 33.9731 41.0922ZM18.8461 8.33167C18.5391 8.98216 18.5114 9.63311 18.0573 10.363L20.6859 11.6598C24.0211 13.1638 25.6893 12.3379 28.627 10.9061C28.7557 10.8401 29.4039 10.5651 29.4507 10.4917C29.158 10.0311 28.9666 9.54785 28.7933 9.0325C28.7179 8.80853 28.6716 8.51406 28.544 8.31813L28.5268 8.33233C27.468 9.19474 26.1933 9.53256 24.8852 9.7983C24.5571 9.86495 24.1616 9.82731 23.8258 9.82731C22.3197 9.82731 21.1544 9.52497 19.7801 8.84472L18.8461 8.33167ZM17.2555 11.3979L16.2487 12.6383C15.6376 13.3254 14.8345 13.9155 13.986 14.2734C13.598 14.437 13.1742 14.5379 12.7978 14.7193C11.6657 15.265 10.8157 16.5484 10.0955 17.5523L9.0671 18.9242C8.65938 19.444 8.20816 19.9416 7.75502 20.4221L7.2986 20.8846L8.99299 21.9922C10.4637 23.0208 11.0518 23.6957 12.0674 25.0888C13.1182 24.8741 13.7054 24.251 14.5614 23.724C14.7112 22.7968 14.6276 21.2096 14.3946 20.3329L14.185 19.6201C13.7514 18.2192 14.8631 18.1473 15.1787 18.6915L15.3001 18.9458C15.4913 19.3782 15.5606 19.8606 15.6932 20.311L15.7585 20.6055C16.0099 22.0168 15.9493 22.8749 15.751 24.234L14.9174 30.105L14.6079 33.5835L14.6044 36.5621C14.6032 36.653 14.57 36.8093 14.5949 36.8911C15.0135 36.854 15.4363 36.8619 15.8563 36.8468L17.9662 36.752C18.7456 36.715 19.8682 36.3205 20.2658 37.1364L20.2855 37.1714C20.4214 37.4626 20.1216 37.8258 19.8603 37.9191C19.627 38.0024 19.2724 37.9656 19.0218 37.9716L17.014 38.0539C16.6433 38.0638 16.2961 38.1318 15.9238 38.1408C15.46 38.1519 14.9692 38.13 14.5103 38.1842L14.4108 39.8183L33.5899 39.8277L33.4749 38.4897L33.4416 38.1602L29.5758 37.9392C29.3407 37.9269 29.1106 37.8806 28.8743 37.8704L27.8827 37.8445C27.6378 37.8306 27.3969 37.7888 27.1512 37.7827C26.6178 37.7696 25.6531 37.9628 25.7834 37.0426C25.8961 36.2476 27.1857 36.5553 27.7066 36.5719L29.2064 36.5858L32.7279 36.8409C32.9515 36.855 33.1765 36.855 33.3987 36.8888L33.3885 33.906L32.9026 28.8746L32.1516 23.7638C31.9526 22.1204 32.0179 20.8362 32.5559 19.2211C32.6282 19.0041 32.6911 18.7301 32.8548 18.562C33.3138 18.0906 33.9876 18.5947 33.9066 19.1715L33.4927 20.6298C33.3644 21.0699 33.1157 23.4381 33.4928 23.7798C34.1569 24.3816 35.0484 24.934 35.9153 25.1399L35.9251 25.1154C36.5561 23.6036 39.209 21.6634 40.5622 20.9262C39.2623 19.8586 38.2603 18.5265 37.2003 17.2359C36.4876 16.3681 35.745 15.3883 34.7218 14.868C33.3187 14.1544 32.4805 13.8375 31.3653 12.5402C31.0569 12.1813 30.7836 11.7889 30.4664 11.4386C25.3892 14.0111 24.0959 14.7491 18.6482 12.1256C18.1818 11.901 17.6821 11.6923 17.2555 11.3979ZM41.7311 21.7625C39.9208 22.6741 38.1478 23.9441 37.0563 25.6859C37.3166 25.928 37.6125 26.1318 37.9077 26.3285C38.2406 26.5268 38.5713 26.6869 38.9513 26.7734L41.8125 22.8746C42.1874 22.3018 42.2968 22.1718 41.7311 21.7625Z" fill="black"/>
<path d="M24.1233 37.8537L22.9524 37.8549C22.7194 37.8549 22.3441 37.9049 22.1443 37.7903C21.5226 37.434 21.8052 36.734 22.409 36.5884C22.6954 36.5731 24.078 36.5316 24.2552 36.6216L24.2815 36.6363C24.4064 36.7048 24.4996 36.7734 24.5727 36.8985L24.5918 36.9324C24.809 37.3126 24.5737 37.7901 24.1455 37.8509L24.1233 37.8537Z" fill="black"/>
</svg>
