<svg width="48" height="48" viewBox="0 0 48 48" fill="none" xmlns="http://www.w3.org/2000/svg">
<path d="M30.3258 40.8517C30.0162 40.8929 29.6855 40.9444 29.375 40.9604L18.8573 40.9603C17.3849 40.8944 15.9391 40.5423 14.6485 39.8191C13.1649 38.9877 12.6427 37.9926 12.8264 36.3635L12.9581 35.2934C13.0706 34.5372 13.0663 34.2259 13.0576 33.4659L13.0627 31.5423C13.0746 30.9827 13.1408 30.433 13.1425 29.8745L13.1298 25.6085C13.1213 25.416 13.0846 25.2337 13.0664 25.0431L13.0223 24.3782L12.0724 24.2747C10.2622 23.9918 8.68215 22.9341 7.3472 21.7253L6.60793 20.9895C5.51138 19.8879 5.71754 19.9627 6.46473 18.778L7.74282 16.6533L9.48052 13.1972C10.2359 11.6348 10.759 10.4175 12.3294 9.46166C12.8629 9.137 13.4745 8.966 14.0601 8.76097L17.754 7.40656C18.1628 7.25445 18.5672 7.06011 18.9937 6.96509C19.413 6.93383 19.8624 7.32219 20.2203 7.50725C22.3846 8.6263 25.9457 8.60431 28.0508 7.36199C28.389 7.16244 28.7504 6.82194 29.1791 6.99275L34.2071 8.85988C35.5204 9.30894 36.4765 9.84477 37.3387 10.9838C37.9197 11.7514 38.2144 12.6387 38.6578 13.4743L40.3442 16.748L41.7443 19.1167C42.2379 19.8783 42.337 20.0164 41.6423 20.7565L40.7526 21.6153C39.075 23.2023 37.326 24.2854 34.9939 24.3652C34.9136 24.7836 34.9423 25.2175 34.9259 25.6408L34.8756 26.426L34.9126 32.9417C34.9351 33.841 34.9218 34.3844 35.033 35.2805L35.1772 36.4889C35.6337 39.2709 32.6157 40.5612 30.3258 40.8517ZM28.8047 8.49627L28.7815 8.50433C28.6227 8.56227 28.4798 8.65372 28.3308 8.73247C25.8656 10.0355 22.3485 9.97953 19.8502 8.84356L19.1203 8.48366C19.1239 8.8107 19.2155 9.22283 19.3394 9.52227L19.569 10.0737C19.6833 10.3298 19.8576 10.571 20.0211 10.7978C20.6905 11.5995 21.4983 12.1365 22.4805 12.4932C25.3536 13.5368 28.5623 11.6617 28.8718 8.53142C28.8421 8.50166 28.8496 8.4965 28.8047 8.49627ZM17.6787 8.87127C17.1556 9.09922 16.6148 9.28156 16.0782 9.47403L14.9102 9.90777C12.7894 10.6417 12.0628 10.9581 11.0189 13.1476L9.42179 16.3604C8.81401 17.5451 8.17262 18.758 7.39112 19.8381L8.41262 20.8319C9.61899 21.9083 11.1647 22.9137 12.828 22.9752C12.7172 22.3486 12.6223 21.7294 12.4468 21.1161L12.1214 20.0879C12.0703 19.9293 11.9972 19.7728 11.9776 19.6056C11.9243 19.1504 12.2917 18.7572 12.7572 18.8344L12.7848 18.8388C13.5605 18.9749 14.0302 21.8508 14.1616 22.7585L14.393 24.4235C14.4533 24.9337 14.4933 25.4475 14.4965 25.9608L14.4976 29.3721C14.4973 29.9907 14.4734 30.4169 14.4326 31.0145L14.4117 33.8889C14.4114 34.2683 14.4407 34.6703 14.3673 35.0441C14.2568 35.6069 14.0253 37.0459 14.2037 37.5353L14.2994 37.7678C14.3516 37.8798 14.4474 37.9707 14.5313 38.0597C15.8005 39.4073 17.8822 39.5041 19.6055 39.5854L26.9673 39.6276L29.3436 39.5727C30.6979 39.5111 32.9181 38.9722 33.7343 37.7464C34.1305 36.9044 33.6539 35.763 33.5734 34.9208L33.5694 34.8827C33.5133 34.3318 33.5412 33.7569 33.5406 33.2027L33.5381 26.8919C33.5386 26.2683 33.5106 25.6289 33.5565 25.0076L33.6549 24.1896C33.8029 22.8258 34.0048 21.507 34.3965 20.1887C34.5702 19.6041 34.7062 18.9417 35.3784 18.7875C35.572 18.8377 35.7738 18.8824 35.8846 19.0682L35.9716 19.2416C36.0944 19.517 35.9246 19.8552 35.8443 20.1158L35.5618 21.0965C35.39 21.7295 35.285 22.3633 35.1478 23.0025C37.2013 22.913 39.1782 21.3976 40.5237 19.9241L40.5975 19.8394L39.3629 17.8107L37.1552 13.4971C36.0668 11.187 35.7142 10.8934 33.508 10.0666L30.2273 8.84417C30.1403 9.23853 30.0834 9.62291 29.9609 10.0114C29.1956 12.4388 26.9276 14.0015 24.432 14.1562C24.0269 14.1813 23.5976 14.1768 23.199 14.0888C20.4279 13.4766 18.4693 12.0185 17.7916 9.13011C17.7723 9.04799 17.7602 8.94031 17.7141 8.86995L17.6787 8.87127Z" fill="black"/>
<path d="M24.1422 16.7291C23.3107 16.8899 23.0051 15.6848 23.8882 15.3329C24.6946 15.1957 25.0024 16.4282 24.1422 16.7291Z" fill="black"/>
<path d="M26.7252 29.388L25.9134 29.9646C25.5572 30.2072 24.2789 31.0039 23.8945 30.9128C23.7281 30.8734 23.5796 30.7702 23.437 30.6807L22.8032 30.2668C20.4565 28.6273 17.6928 25.8616 17.1867 23.0136C16.754 20.5794 18.3552 18.3206 20.857 18.0329C21.8958 17.9744 23.0719 18.1825 23.9366 18.7955C24.0391 18.8682 24.0249 18.91 24.1316 18.8422C26.6139 17.2656 29.6539 18.0388 30.7494 20.8245L30.9474 21.4985C30.9871 21.6244 30.9902 21.7419 31.0045 21.8715C31.3442 24.9535 29.0179 27.6279 26.7252 29.388ZM21.1993 19.3929C20.3706 19.4564 19.6562 19.751 19.1019 20.3864C16.867 22.9483 21.0414 27.2557 23.0812 28.7634C23.3901 28.9917 23.6927 29.251 24.0217 29.4482C24.8613 29.0617 25.6748 28.4647 26.3992 27.8997C28.0314 26.5766 29.6578 24.49 29.6482 22.2986C29.6379 19.9777 27.0734 18.7434 25.1133 19.8585C24.7564 20.0615 24.4281 20.4149 23.9973 20.4216C23.4859 20.4296 22.8546 19.3183 21.1993 19.3929Z" fill="black"/>
<path d="M25.9378 27.0251C25.4878 27.4044 24.9681 27.7782 24.4455 28.0494C23.7056 28.4335 23.14 27.7534 22.6441 27.294C21.3406 26.0862 19.0819 23.9581 20.3431 22.0427C20.6832 21.5263 21.1827 21.2478 21.7739 21.1233C22.6569 21.0544 23.3027 21.3116 24.0193 21.8415L24.4634 21.5323C25.8605 20.6773 27.5842 21.1578 28.0582 22.7784C28.5787 24.5584 27.2278 25.9765 25.9378 27.0251ZM22.0596 22.484C21.5763 22.5566 21.2516 22.9557 21.3511 23.4521L21.3757 23.5619C21.5403 24.2422 23.3037 26.1467 24.0204 26.7223C24.6494 26.3189 25.2529 25.855 25.7836 25.3283C26.2816 24.8286 26.8874 24.1172 26.7701 23.3557L26.7643 23.313C26.5835 22.0654 25.2689 22.448 24.6547 23.0979C24.5243 23.236 24.4171 23.3686 24.2347 23.4412L24.2053 23.4531C23.6345 23.6737 23.3172 22.9505 22.8753 22.6903L22.8357 22.6666C22.6045 22.5294 22.3247 22.485 22.0596 22.484Z" fill="black"/>
</svg>
