<svg width="48" height="48" viewBox="0 0 48 48" fill="none" xmlns="http://www.w3.org/2000/svg">
<path d="M30.9839 38.7387L14.1673 38.7404C13.06 38.7405 12.9493 38.6978 12.9484 37.6677L12.9264 21.906C12.8128 21.9759 12.6848 22.0002 12.5617 22.0495L11.6762 22.4082C11.303 22.5585 10.9321 22.7679 10.5474 22.8846C9.91886 23.0751 9.71987 22.551 9.39845 22.1256L5.00889 16.6503C4.94195 16.5641 4.82448 16.4201 4.80264 16.3135L4.79537 16.2685C4.75768 16.0416 4.82326 15.8624 5.00912 15.7286L9.73459 12.5574C11.7255 11.17 11.9252 11.1765 14.3294 10.6714L16.4983 10.1129C16.9122 9.98897 17.2817 9.84951 17.6597 9.63562C17.9799 9.4544 18.286 9.16186 18.6457 9.07476C18.7304 9.07017 18.8079 9.07097 18.8917 9.08526L18.9254 9.09126C19.2027 9.13833 19.4984 9.47822 19.7284 9.64711C22.0173 11.3278 26.2809 11.1322 28.5113 9.46322C28.95 9.13495 29.1719 8.89706 29.7361 9.24656C30.7839 9.89578 30.9771 9.96534 32.2006 10.2366L34.4102 10.7172C36.204 11.1244 37.3916 11.9378 38.8622 12.9814L42.9981 15.7051C43.0539 15.7436 43.1012 15.7808 43.1366 15.8395L43.1518 15.8661C43.3664 16.2279 43.0824 16.522 42.863 16.7884L39.1008 21.4679L38.2672 22.6061C37.8097 23.1864 37.3282 22.8082 36.7877 22.5833L35.0547 21.9057C35.0081 22.2845 35.0397 22.6982 35.0399 23.0805V36.9442C35.0398 37.3684 35.0775 37.8239 35.032 38.2434L35.0282 38.274C34.9768 38.7041 34.5153 38.7376 34.1895 38.7382L30.9839 38.7387ZM18.1818 10.6405C17.6061 10.9473 17.0811 11.135 16.4554 11.3082L14.1558 11.8605C12.2903 12.2812 12.1785 12.3151 10.6749 13.3306L6.66306 16.0368C6.55 16.1138 6.3392 16.2092 6.25754 16.3123L10.4922 21.6465L12.2808 20.9054C12.799 20.6825 13.5961 20.0676 14.0139 20.7311L14.0306 20.7572C14.0942 20.8656 14.0709 21.0588 14.0703 21.1831L14.0659 36.4205C14.0661 36.7894 14.028 37.2062 14.0905 37.5681L33.9013 37.5749L33.9123 37.3421L33.9047 21.6419C33.9041 21.1897 33.7887 20.6329 34.3238 20.4377L34.354 20.4256C34.6026 20.3358 35.0397 20.6274 35.2623 20.7194L37.0286 21.4277C37.0706 21.4446 37.4791 21.6246 37.4873 21.6212C37.5253 21.6055 38.2738 20.5859 38.3924 20.4441L41.7547 16.2789L38.6713 14.2389C36.6114 12.8608 36.0739 12.2573 33.6414 11.7425L32.1729 11.397C31.3553 11.2022 30.5904 11.0464 29.8455 10.6378C29.3981 12.1312 28.5393 13.4661 27.1319 14.2305C23.8818 15.9955 19.5805 14.6699 18.3144 11.0828C18.2632 10.9379 18.2386 10.7835 18.1818 10.6405ZM28.5276 10.7936C28.2005 11.015 27.824 11.1772 27.4575 11.3223C25.1965 12.2171 22.1911 12.2682 19.9994 11.1272C19.8155 11.0315 19.6484 10.9057 19.4663 10.8065L19.5116 10.9653C19.6055 11.327 19.9152 11.7769 20.1435 12.0576C20.7281 12.8098 21.4647 13.3251 22.3824 13.5934C24.8386 14.3115 27.6332 13.372 28.5635 10.8064L28.5276 10.7936Z" fill="black"/>
<path d="M28.2761 25.2444C27.9779 25.444 27.6741 25.6629 27.334 25.7855L27.1832 25.8372C26.6639 25.9761 25.6483 25.1786 25.2313 24.8556C23.8588 23.7928 22.79 22.1568 23.8546 20.4846C24.2407 19.8782 24.8453 19.5889 25.5259 19.4352C26.0836 19.3768 26.5144 19.4944 26.9716 19.8137L27.2634 19.6244C28.5129 18.9611 30.1752 19.9708 30.4405 21.2931C30.7974 23.072 29.6325 24.2631 28.2761 25.2444ZM25.7565 20.5873C25.2821 20.6481 24.9338 20.8935 24.727 21.3166L24.71 21.35C24.5462 21.6792 24.5352 22.0868 24.659 22.4299L24.7624 22.6511C25.1773 23.5355 26.1784 24.2066 27.0049 24.6496C27.3416 24.4711 27.7125 24.2502 27.997 23.9949C28.5895 23.5195 29.261 22.9244 29.353 22.1178C29.4602 21.1784 28.5115 20.1467 27.5749 20.7615C26.9032 21.2025 26.9675 21.2012 26.3248 20.7397C26.1745 20.6317 25.9431 20.5699 25.7565 20.5873Z" fill="black"/>
</svg>
