<svg width="48" height="48" viewBox="0 0 48 48" fill="none" xmlns="http://www.w3.org/2000/svg">
<path d="M32.0339 38.9251L29.7722 39.4791C28.2947 39.836 26.7671 40.1218 25.2446 40.1932L22.1471 40.131C20.3362 39.9992 19.0967 39.6942 17.3391 39.2669L15.1684 38.7099C14.5024 38.5416 13.5144 38.5283 13.3268 37.7048C13.2798 37.4986 13.3271 37.2099 13.3307 36.9971L13.4325 33.4666C13.4467 33.1931 13.4924 32.9233 13.5007 32.6485L13.5981 30.0518L13.71 25.4835C13.7179 25.1016 13.7724 24.7228 13.7913 24.3417L13.7246 21.4779C13.642 20.4306 13.5311 19.4579 13.0729 18.4901C12.9579 18.5555 12.854 18.6411 12.7419 18.7117C12.0788 19.1296 11.2758 19.307 10.584 19.6776C9.91721 20.0348 9.37473 20.6791 8.58906 20.7702L8.5546 20.774C7.66028 20.8809 6.88899 19.9883 6.39137 19.3659C5.37639 18.0963 3.96725 15.5419 5.0364 13.9408C5.38585 13.4175 6.0872 13.1125 6.61281 12.7951L8.74979 11.5144L10.4968 10.2911C12.2065 8.98205 12.6946 8.60194 14.9765 8.24602L17.8393 7.82884C18.0937 7.78852 18.3439 7.76893 18.5975 7.71676C19.5966 7.60519 20.1962 8.30719 20.4361 9.21099C20.8687 10.8405 22.8774 11.6631 24.4692 11.5404C25.7737 11.4398 26.9804 10.5441 27.518 9.36127C27.6157 9.14654 27.6459 8.91671 27.7293 8.69963C28.0868 7.76973 28.8539 7.64874 29.6904 7.7768L32.9824 8.24073C35.2117 8.59402 35.8337 8.98834 37.6648 10.4072L41.0542 12.5977C41.8112 13.0383 42.7519 13.4147 43.1393 14.2623C43.7701 15.6426 42.8513 17.625 42.0739 18.7453C41.5202 19.5433 40.7265 20.5908 39.7101 20.764C39.0726 20.8727 38.5408 20.4078 38.0631 20.0615C37.0764 19.3461 35.8521 19.1645 34.8975 18.4891C34.515 19.2643 34.2818 20.7613 34.2238 21.6005C34.1852 22.1608 34.193 22.7241 34.1924 23.2854L34.2098 24.9624L34.3133 27.5626C34.3172 27.7783 34.3557 27.9923 34.3624 28.208L34.5075 33.3633L34.6002 35.1094C34.6078 35.3226 34.6505 35.531 34.6617 35.7422L34.6693 36.7076C34.681 37.3788 34.8546 38.188 34.0001 38.4366L32.0339 38.9251ZM18.7963 9.1524C18.7655 9.29063 18.8023 9.44176 18.8305 9.57844L18.9457 10.0943C18.9549 10.14 18.9693 10.1752 18.985 10.2188L19.0403 10.3989C19.0978 10.5987 19.2212 10.8394 19.3108 11.0274C20.408 13.3293 22.5422 15.2635 25.2726 14.4336C26.737 13.9886 27.7831 12.7157 28.4704 11.4099L28.8565 10.5409C28.9465 10.2832 29.2364 9.44565 29.1609 9.17584L29.1178 9.15005C29.0048 9.25182 28.9621 9.55337 28.9051 9.70229C27.1905 14.1767 20.6192 14.0281 18.9824 9.43712C18.9496 9.34505 18.9235 9.22248 18.8573 9.15033L18.7963 9.1524ZM30.5999 9.32321C30.5182 9.7501 30.4642 10.1744 30.3398 10.593C29.4181 13.6938 26.4994 16.641 23.0533 15.9614L22.9212 15.9321C22.6674 15.8716 22.4148 15.8278 22.1672 15.7404C19.5245 14.8083 17.7238 12.0587 17.3898 9.35199L15.4199 9.62438C13.3202 9.92635 13.0043 10.1443 11.2702 11.4725L10.0464 12.3544L6.52149 14.5011C6.32978 14.6145 6.2139 14.6462 6.13585 14.8594L6.12442 14.8893C5.66223 16.1416 7.4986 18.7503 8.4437 19.3993C8.87926 19.0978 9.28051 18.772 9.74992 18.5186C10.4932 18.1172 11.2925 17.8588 12.0465 17.4865C12.3288 17.3471 12.574 17.1583 12.8438 16.9987L13.4295 13.8794C13.5109 13.3175 13.6245 12.5564 14.3791 12.6779C14.6108 12.7152 14.7896 12.92 14.8744 13.1281L14.8852 13.1534C15.0177 13.4976 14.8007 14.2164 14.7412 14.5705L14.2095 17.2382C14.1658 17.4172 14.2064 17.4395 14.2693 17.6133L14.9408 19.7488C15.1334 20.3721 15.1798 21.9248 15.1867 22.6366L15.167 25.6797C15.1586 25.9315 15.1045 26.1757 15.0977 26.4291L15.058 28.5855L14.9206 31.9922C14.8705 32.9444 14.8672 33.9435 14.7879 34.8737L14.7153 37.1455C14.8335 37.2247 14.9522 37.2249 15.0858 37.254L16.6757 37.6453C18.3523 38.0704 19.9986 38.4902 21.7206 38.6677L22.2326 38.7337C24.1079 38.9004 26.2866 38.7742 28.1132 38.4159L32.9508 37.2395C33.0663 37.211 33.1852 37.1985 33.2931 37.1469L33.1222 33.4961L33.1021 32.2543L32.9175 28.6055L32.904 26.564C32.8964 26.1733 32.8389 25.7928 32.8215 25.4056L32.809 23.1585C32.8115 21.2692 32.8755 19.734 33.6032 17.9194L33.7556 17.5647C33.8237 17.4144 33.8273 17.4029 33.7944 17.2445L33.1667 14.144C32.7882 12.2301 34.1882 12.4236 34.4314 13.2188L34.4434 13.2544C34.5409 13.5529 34.5379 13.8961 34.6008 14.2024L35.1178 16.727C35.2428 17.4382 36.6206 17.7635 37.2387 18.0306C38.0724 18.3907 38.8173 18.8398 39.5409 19.3868C40.6169 18.5238 42.4649 16.1626 41.789 14.6782C41.4852 14.4637 41.1398 14.2936 40.8186 14.1041L36.5927 11.3787C36.4084 11.2453 36.2429 11.0851 36.0623 10.9464C34.9889 10.1219 34.1848 9.85215 32.886 9.66259L31.6874 9.46824C31.329 9.41996 30.954 9.3938 30.5999 9.32321Z" fill="black"/>
<path d="M24.2285 22.9444L22.944 23.2086C22.869 23.3894 22.8293 23.5992 22.7774 23.7884L22.1407 26.6243L21.7064 29.9008C21.5926 30.6623 20.2319 31.1221 20.3371 29.3316L20.7604 26.0853L21.2796 23.6975L20.6306 23.8205C19.9814 23.9578 19.3238 23.7728 19.5771 22.9483L19.5894 22.9095C19.7544 22.3766 20.459 22.3413 20.9228 22.2257L25.8981 21.1837C26.3475 21.1017 26.7925 20.9892 27.2471 20.9375C27.5621 20.9526 27.782 21.0913 27.9189 21.3838L27.9639 21.4827C28.0031 21.5861 27.9975 21.742 27.9513 21.8406L27.9386 21.8665C27.7488 22.2862 27.4106 22.6866 27.1449 23.0647L26.4974 24.0363C26.34 24.2758 26.1504 24.5407 26.051 24.8106C26.5491 24.7248 27.1277 25.2256 26.9193 25.7369L26.9055 25.7689C26.6704 26.3329 25.9785 26.3314 25.4608 26.3863C25.347 26.6804 25.2662 26.9892 25.1815 27.2927L24.7451 29.1473C24.6959 29.3996 24.6937 29.6812 24.6335 29.9232C24.4012 30.858 23.2934 30.6394 23.2407 30.0378L23.2389 30.011C23.1902 29.5649 23.2611 29.102 23.3383 28.6634L23.7749 26.7242C23.5064 26.7866 23.0512 26.9043 22.7977 26.7635C22.3901 26.5372 22.4034 26.0191 22.6304 25.6625C22.8008 25.3947 23.1859 25.3659 23.4683 25.2972L24.2214 25.1135L25.6339 22.648L24.2285 22.9444Z" fill="black"/>
</svg>
