<svg width="48" height="48" viewBox="0 0 48 48" fill="none" xmlns="http://www.w3.org/2000/svg">
<path d="M35.5016 35.101C34.415 35.4046 33.3488 35.7437 32.3254 36.2244C30.2362 37.2056 27.7429 39.2453 26.4901 41.2538C26.3676 41.4503 26.2639 41.6591 26.1358 41.8518C25.1413 43.348 23.0583 43.492 22.0089 42.0348C21.7883 41.7284 21.6066 41.4014 21.3987 41.0863C20.9214 40.3628 20.3493 39.7724 19.7357 39.1666C16.6818 36.1515 13.1526 35.0547 9.00322 34.3057L5.98677 33.9495C4.96766 33.8557 4.91952 33.3716 4.91797 32.3727L4.92186 31.4416C4.96011 30.338 5.00797 29.2155 5.1845 28.1252L5.6735 25.7159C6.02384 24.1727 6.41923 22.6775 7.12663 21.2524L8.48909 18.8047C9.96214 16.0886 10.6115 13.5612 10.8916 10.5209L11.0012 8.25489C11.0067 8.08755 11.0407 7.92424 11.0486 7.75797L11.0567 6.21902C11.0576 5.64649 10.9755 5.25372 11.582 4.99553C11.885 4.96455 12.2126 4.99919 12.3783 5.29755L12.3924 5.32408C12.6435 5.78266 12.5406 6.31806 12.5406 6.82267L12.535 8.27931L12.4213 10.6291C12.4049 10.8056 12.3787 10.9681 12.378 11.147L15.4805 10.7692C16.4504 10.687 17.222 10.6908 18.2003 10.6906L32.0677 10.7011C32.2513 10.7112 32.4338 10.751 32.6173 10.7687L35.6114 11.0862L35.5058 9.85563C35.4879 9.68491 35.4511 9.51808 35.4415 9.34567L35.4293 7.26981C35.4269 6.6228 35.1697 5.30242 35.9107 5.04236L35.9457 5.03059C36.0855 4.98077 36.2486 4.97149 36.3898 5.02295L36.4219 5.03524C37.0241 5.25306 36.9358 5.82939 36.9369 6.34178C36.9381 6.96503 36.9085 7.60539 36.947 8.22672L37.1287 10.8632L37.4017 12.8593C37.4343 13.0731 37.4957 13.2902 37.5457 13.5002L37.7749 14.5646C37.857 14.9216 37.9563 15.307 38.0774 15.6512L38.137 15.8439C38.3854 16.8386 39.2291 18.5592 39.7542 19.4884L40.8087 21.3517C41.2956 22.3019 41.9811 24.0292 42.177 25.1192L42.3618 25.8634C42.4455 26.4013 42.6001 27.0095 42.7028 27.5627L43.045 30.8355C43.0545 30.9787 43.0864 31.1199 43.0922 31.2665L43.0971 32.1923C43.1016 32.5351 43.1366 32.8932 43.1081 33.2345L43.1047 33.2697C43.0336 34.0797 42.0809 33.9948 41.5027 34.0259L40.2897 34.1422L35.5016 35.101ZM20.24 12.2239L16.2766 12.2321L12.5262 12.6243C12.4046 12.6387 12.2665 12.638 12.1498 12.6718L11.7102 14.8935C12.7919 14.6944 14.2136 14.4941 15.3281 14.4421L27.8555 14.413L30.4836 14.411C31.2836 14.4107 32.0822 14.4072 32.8807 14.4661L34.8588 14.6603C35.3518 14.7243 35.8511 14.834 36.3458 14.869C36.2035 14.2474 36.0358 13.6449 35.9414 13.0114C35.9267 12.9129 35.93 12.7749 35.8883 12.6861C34.9938 12.5178 34.0814 12.433 33.1758 12.3513L31.6843 12.232L20.24 12.2239ZM17.6893 15.9274L16.5837 15.9334C16.4161 15.9416 16.2532 15.9737 16.0866 15.9869L13.489 16.2293L11.2774 16.5822C11.2261 16.6877 11.1994 16.7921 11.1388 16.9L10.0984 18.8641C9.56098 19.9176 8.95091 20.9398 8.46045 22.0153C7.562 23.9855 6.77117 27.1049 6.60772 29.3225L11.673 30.8198L13.6731 31.3556C15.3605 31.8272 17.0667 32.2865 18.7874 32.6181L20.2438 32.8458C21.0393 32.9665 21.843 33.0731 22.6477 33.1178L24.2622 33.1341C27.9037 33.121 31.1989 32.2708 34.7027 31.3444L40.1247 29.8994C40.5558 29.7655 41.0026 29.6477 41.4245 29.4893C41.4086 29.3417 41.3769 29.1938 41.3654 29.0465L41.2972 28.2621C41.2891 28.1896 41.2923 28.0631 41.2577 28.0007C40.4045 28.2136 39.6055 28.6666 38.7945 29C37.1121 29.6918 34.7073 29.9746 32.9232 30.2043L29.1746 30.6234L27.3625 30.7253L22.4121 30.7335C18.493 30.7285 13.7241 29.9787 9.97105 28.8505L9.16808 28.6054C8.70434 28.4596 8.08728 28.2169 8.10978 27.6164C8.14372 26.7117 8.93323 26.9028 9.46527 27.0806L10.6875 27.4692C11.869 27.8185 13.1061 28.1033 14.3203 28.3126L17.2148 28.782L21.8437 29.1793C22.0269 29.1914 22.2067 29.2215 22.3918 29.2279L27.3865 29.1522C27.5382 29.142 27.6854 29.1055 27.8372 29.0951L32.069 28.7344L37.0881 27.8999C37.5775 27.7723 38.0739 27.6325 38.5395 27.4338C38.9252 27.2692 39.3108 27.0486 39.7079 26.917L40.9196 26.4832C40.3876 23.6453 39.5701 22.209 38.2761 19.7747L36.7384 16.5992C35.6283 16.3625 34.5055 16.2067 33.3766 16.0897L31.6388 15.9381L17.6893 15.9274ZM6.42777 30.8568L6.42144 31.8705C6.41619 32.7236 6.37508 32.4075 7.12991 32.4884L9.07325 32.7443C9.83422 32.846 10.595 33.0176 11.3437 33.187C15.652 34.1617 20.2041 36.4462 22.675 40.2592C22.9033 40.6116 23.0976 41.0766 23.4293 41.3415C23.8087 41.6444 24.4108 41.5512 24.722 41.1916C24.9 40.9859 25.0081 40.7097 25.1472 40.4766C25.9748 39.0887 27.3579 37.7381 28.6055 36.751L29.6282 36.0151C31.4985 34.7198 33.1942 34.118 35.3789 33.5348C35.8538 33.408 36.3424 33.2618 36.8262 33.175C37.9903 32.8467 39.673 32.6134 40.8545 32.5193L41.6163 32.4551L41.6005 31.6719C41.5978 31.4852 41.6064 31.2914 41.5782 31.1066C40.8882 31.2664 40.2281 31.4849 39.5508 31.6873L31.3995 33.787L26.8359 34.5723C26.3457 34.6199 25.8566 34.6798 25.3645 34.684L22.2213 34.6158C19.0321 34.3861 16.1153 33.6108 13.0417 32.7757L10.7507 32.1619L6.42777 30.8568Z" fill="black"/>
<path d="M24.0632 21.0458C23.7585 21.0683 23.4994 20.8885 23.3444 20.6363L23.3281 20.6093C23.1622 20.3387 23.2557 19.8983 23.2562 19.5951C23.2571 18.9604 23.1271 18.2025 23.9376 18.0538C24.2094 18.0493 24.5197 18.1889 24.639 18.4423L24.6564 18.4809C24.7916 18.7329 24.7238 19.0365 24.7244 19.3123L24.7259 20.0618C24.7254 20.6028 24.6627 20.9025 24.0632 21.0458Z" fill="black"/>
<path d="M24.0436 24.9043C22.8581 25.114 21.8682 23.0258 23.3763 22.4017L23.4136 22.3867C23.599 22.3091 23.7635 22.2725 23.9614 22.25C25.8126 22.3706 25.8826 24.7301 24.0436 24.9043Z" fill="black"/>
</svg>
