<svg width="48" height="48" viewBox="0 0 48 48" fill="none" xmlns="http://www.w3.org/2000/svg">
<path d="M11.5736 21.2657C10.2517 19.9396 7.47879 18.3179 5.83428 17.5461L4.57623 16.9694C2.73234 16.1893 2.81189 15.9162 2.81077 14.1315L2.81146 6.31898C2.81211 6.1161 2.79003 5.8701 2.845 5.67492L2.85294 5.64838C3.01355 5.08387 3.77653 4.45868 4.23031 4.89792C4.36927 5.03245 4.48418 5.19248 4.62207 5.32973C7.58946 8.28412 12.7709 10.7483 16.6378 12.0526L19.0662 12.8307C19.7224 13.0261 20.3836 13.2024 21.0255 13.4425L23.3594 14.505C23.7555 14.7044 24.0191 14.4277 24.4326 14.2383C25.7765 13.6228 27.1893 13.276 28.6117 12.8985L30.7408 12.2733L33.0116 11.4381C36.475 10.0617 40.0579 8.1606 42.876 5.67595L43.3642 5.21231C43.5981 4.96935 43.6985 4.79507 44.0525 4.7684C44.6265 4.78781 44.9881 5.27938 45.0977 5.81245L45.1056 5.84817C45.1694 6.1529 45.1603 6.48365 45.161 6.79378L45.1606 14.3556C45.1603 15.8117 45.193 16.2717 43.6182 16.8998L42.7323 17.2703C41.2199 17.9242 39.8152 18.7521 38.4608 19.6851L36.4625 21.2237C33.9154 23.4325 31.9442 26.1199 30.8109 29.3199C30.5322 30.107 30.2979 30.93 30.2586 31.7694L30.2556 33.409C30.256 35.2737 29.421 35.4873 27.7928 35.9532C27.3231 36.0876 26.8514 36.242 26.3723 36.3391C26.3313 36.5407 26.338 36.7315 26.285 36.9363C25.6326 39.4597 21.7323 39.1274 21.5841 36.3898L20.1567 35.9459C19.0655 35.6616 18.1503 35.4306 17.808 34.1825L17.7965 34.1396C17.7085 33.8154 17.7736 33.3711 17.7759 33.034L17.7528 31.9058C17.5965 29.0469 15.7606 25.8211 13.9149 23.6236C13.1955 22.7671 12.4057 22.0109 11.5736 21.2657ZM43.8271 6.55556C42.0342 8.31196 39.216 9.99224 36.9615 11.1235L34.2544 12.3479C33.2565 12.7747 32.2399 13.1975 31.2062 13.5299L27.266 14.6177C26.4755 14.8452 25.6914 15.1307 24.9237 15.4259L27.6755 17.5348C28.2579 18.0635 28.7987 18.6349 29.2958 19.2442L29.6861 19.7478C29.7741 19.8725 29.8511 20.033 29.9667 20.1327C30.6004 19.5865 32.1461 18.1192 32.9392 17.8955C33.7377 17.6702 35.104 15.8561 35.7803 16.1864L35.7956 16.1574C36.1849 15.455 37.7545 14.5673 38.4265 14.1831L42.1199 12.245C42.6058 12.0023 43.1327 11.6594 43.6582 11.5198C43.7421 11.4975 43.7879 11.4836 43.8591 11.4319L43.8585 7.34226C43.8578 7.08084 43.8721 6.81374 43.8271 6.55556ZM4.08795 6.62104L4.11613 11.4475C4.9954 11.7465 5.79495 12.1987 6.61793 12.6237L10.8238 14.9875L15.5407 18.1435C18.2048 20.1081 20.9739 22.4559 22.1475 25.6523L23.069 28.702C23.5198 31.522 23.3615 33.4341 22.9013 36.1877C22.8143 36.7081 23.3283 37.2576 23.8123 37.3386L23.8462 37.3449C24.4329 37.4501 24.9426 37.0053 25.0384 36.44C25.0826 36.1799 24.9983 35.8952 24.9648 35.6374L24.8161 34.3061C24.7995 34.1176 24.7685 33.934 24.7695 33.7441L24.6711 31.3075C24.6721 30.3888 24.7558 29.4292 24.9444 28.5294C25.5017 25.8706 26.8634 23.1895 28.7873 21.2407C28.8286 21.1989 28.9939 21.0983 28.957 21.0443L28.6011 20.5491C26.6464 17.9066 23.7848 15.9079 20.726 14.7455C19.3165 14.2099 17.8433 13.8387 16.415 13.3544L14.3021 12.605L11.0299 11.1616L9.00809 10.0811C7.96564 9.4941 6.9176 8.86804 5.95821 8.15067L4.50898 7.01976C4.37099 6.90515 4.23527 6.7124 4.08795 6.62104ZM4.12858 12.8452L4.12077 15.3525L7.13871 16.7215C12.014 19.2653 16.4974 23.265 18.3533 28.5783L18.7732 29.8971C19.0808 30.931 19.0779 32.0341 19.0797 33.1022C19.0814 34.1864 18.9195 34.183 20.0389 34.5236L21.4152 34.9139C21.5161 34.9398 21.6501 35.0128 21.7514 35.0039L21.7814 34.7869C22.5903 30.1194 21.4998 25.4032 18.0768 21.985C15.0657 18.9781 9.81364 15.7408 6.09359 13.8308L4.12858 12.8452ZM43.8114 12.8789C43.3952 13.1088 42.9662 13.2946 42.5564 13.502L39.7737 14.9319L37.7034 16.1441C37.4524 16.2959 36.5648 16.8905 36.2694 16.8255C36.1235 16.7934 36.1512 16.6792 36.0116 16.813L35.9764 16.8792L36.035 16.8432C35.9863 16.9748 34.6421 18.1612 34.4647 18.2968L33.6547 18.8729C33.4969 18.9744 33.3253 19.0638 33.1756 19.177L31.213 20.7795L30.01 21.9353C27.0879 24.8841 25.9981 27.9879 26.0162 32.0986L26.0512 33.2812C26.082 33.733 26.1289 34.3445 26.1941 34.776C26.2023 34.862 26.2009 34.9632 26.2316 35.0436L27.2389 34.7357C27.6354 34.6221 28.6415 34.4592 28.903 34.1271C29.0413 33.1543 28.8185 32.0888 29.012 30.9889C30.2131 24.1626 35.8975 18.9919 41.9424 16.162L43.8364 15.3503C43.8857 15.0134 43.9071 13.2516 43.8427 12.8824L43.8114 12.8789Z" fill="black"/>
</svg>
