<svg width="48" height="48" viewBox="0 0 48 48" fill="none" xmlns="http://www.w3.org/2000/svg">
<path d="M41.6683 20.2786L42.7788 14.0507C43.1339 12.1823 42.8739 10.8704 41.3678 9.48044C41.1979 9.32359 40.8951 9.13393 40.8111 8.90931C40.6076 8.36462 41.0715 7.57323 41.7054 7.84234C42.4757 8.16934 43.6762 9.82759 43.9814 10.558L44.2325 11.2617C44.4835 12.414 44.4966 12.9519 44.2802 14.159L42.503 23.995L42.9111 24.0345C43.7223 24.1965 43.4732 25.3918 43.4735 25.9852L43.4735 30.0822C43.4729 31.0554 43.3619 31.0576 42.304 31.222L39.2914 31.9242C38.357 32.1937 37.4409 32.5428 36.5394 32.905L35.4665 33.3359C32.0395 34.8566 27.9942 36.9069 27.2085 40.9341C27.1279 41.3475 27.0491 41.9574 26.4559 41.9802L21.9323 41.9827C20.8972 41.9817 21.0099 41.6227 20.8125 40.6981C20.1372 37.5352 17.4024 35.7777 14.7007 34.3753L12.6986 33.3846C10.6499 32.4591 8.49609 31.7575 6.28335 31.3555C5.71068 31.2515 4.90288 31.2872 4.59476 30.6932L4.57696 30.6578C4.41886 30.3469 4.51956 29.6653 4.5193 29.3134L4.51886 25.2992C4.52013 24.1241 4.60112 24.038 5.80106 23.9992L3.75124 14.7773C3.62731 14.1449 3.50217 13.5424 3.50293 12.893C3.50557 10.6373 4.81546 9.02378 6.68006 7.97181C6.97893 7.80315 7.2854 7.6352 7.6109 7.52575C7.94629 7.50784 8.29743 7.67054 8.4247 7.9952L8.47349 8.11961C8.51948 8.28883 8.46398 8.5075 8.36938 8.65117L8.3511 8.67779C8.19806 8.90683 7.8839 9.02481 7.64587 9.14828C5.9946 10.0048 4.82587 11.323 5.0196 13.3311C5.0691 13.8444 5.18685 14.3307 5.29087 14.8329L6.00027 18.1523C6.14306 18.7392 6.26573 19.3287 6.41052 19.9146L6.61021 20.8007C6.66477 21.0391 6.69187 21.2899 6.75107 21.5273L7.08838 22.9486C7.16587 23.3033 7.23581 23.6616 7.31976 24.0141L40.9802 24.0042L41.0878 23.2538L34.6034 21.1934L31.3476 20.3125C30.167 20.0494 28.9532 19.8169 27.7504 19.6885L25.9766 19.5612C25.7707 19.5482 25.5694 19.5046 25.363 19.4942L22.5994 19.4931C21.1132 19.5548 19.3364 19.7638 17.9048 20.0855L12.4019 21.4776C11.7433 21.6273 8.93057 22.3532 9.10771 20.9463L9.11338 20.9062C9.22851 20.0504 10.4219 20.3305 11.0277 20.2433C11.8377 20.1266 12.6336 19.8827 13.421 19.6657C16.3778 18.8504 19.0198 18.1731 22.1132 18.0245L25.8469 18.0252L29.5551 18.4062C31.0624 18.6332 32.5277 19.0583 33.9929 19.4667L38.4385 20.7592L41.4281 21.7824C41.4512 21.2817 41.5819 20.7726 41.6683 20.2786ZM6.09637 25.483L5.99615 25.5044C5.93516 26.1234 5.97848 26.7856 5.97881 27.4097C5.97909 27.9904 5.93334 28.6182 6.00056 29.1924C6.25659 29.0557 6.49752 28.8722 6.73424 28.7045L7.04268 28.4923C7.15645 28.4214 7.24415 28.4188 7.32773 28.3013L7.3319 26.4271C7.33176 26.1259 7.36443 25.7833 7.32341 25.4865L6.09637 25.483ZM8.91445 25.4834L8.81273 25.4917C8.76745 25.6514 8.78737 25.858 8.78713 26.0237L8.78718 27.9652C8.78741 28.1452 8.77499 28.3356 8.79815 28.514L39.0939 28.5143L39.1975 28.5117C39.2177 28.3557 39.2073 28.1905 39.2075 28.0331L39.2081 26.1061C39.2079 25.9062 39.22 25.6981 39.1973 25.4994C38.8269 25.4559 38.4298 25.4823 38.0556 25.4821L8.91445 25.4834ZM41.0307 25.482L40.7001 25.4981L40.6905 28.3452L41.8334 29.1623C41.8797 29.2025 41.917 29.2315 41.9727 29.2589C42.046 29.1541 42.0153 28.4634 42.0156 28.2931L42.0081 25.4914L41.0307 25.482ZM12.4518 29.9842L8.15451 30.0073C7.93734 30.0135 7.75471 29.9989 7.53956 30.0495C7.78902 30.1261 8.0421 30.163 8.29532 30.2226L9.79649 30.6467C11.5635 31.2063 13.2527 31.9305 14.9024 32.7726L16.9827 33.9027L18.3713 34.7669C19.846 33.8255 20.8552 31.6922 20.9298 29.9946L12.4518 29.9842ZM22.9367 29.9842L22.4617 29.9977C22.2387 32.0122 21.7366 33.5313 20.304 35.0753C20.0668 35.331 19.7921 35.5471 19.5527 35.7999C20.6948 36.9183 21.5452 37.9487 22.0495 39.5273L22.2658 40.3359C22.2786 40.3976 22.2792 40.4582 22.3118 40.5138L25.2728 40.5136C25.4388 40.5118 25.61 40.5185 25.7747 40.4983C26.0727 38.8035 27.0055 37.2357 28.2166 36.0314C28.31 35.9385 28.4331 35.8462 28.5037 35.7364C26.9314 34.4308 25.7844 32.7019 25.6079 30.6123L25.5533 29.9869L22.9367 29.9842ZM27.4866 29.985L27.09 29.9992C27.1029 31.5492 27.8277 33.0341 28.9224 34.1135C29.0542 34.2435 29.5625 34.7517 29.749 34.7551L31.8174 33.461L32.7686 32.9676C33.9821 32.3337 35.2201 31.768 36.5002 31.2816L40.3981 30.0644C39.7275 29.9656 39.0182 29.9915 38.3411 29.9917L27.4866 29.985Z" fill="black"/>
</svg>
