<svg width="48" height="48" viewBox="0 0 48 48" fill="none" xmlns="http://www.w3.org/2000/svg">
<path d="M24.2821 39.8107L24.0065 39.3078C23.332 40.6728 22.3401 41.38 20.8893 41.7359C20.3315 41.8727 19.729 41.7888 19.1722 41.7011C16.5139 41.2823 13.7215 39.7063 13.0724 36.9096C12.8011 35.7403 13.1111 34.834 13.3701 33.6994L16.2908 21.0784C16.427 20.5674 16.7744 19.9832 17.3877 20.4223L17.4133 20.4412C17.4994 20.5031 17.5783 20.6082 17.6153 20.7086L17.6486 20.7806C17.6924 20.8616 17.6824 21.03 17.6582 21.1166L14.5068 34.5933C14.4112 34.9884 14.2659 35.4196 14.231 35.8238C14.0457 37.9733 16.4125 39.6726 18.2318 40.1774C18.8842 40.3584 19.8095 40.5763 20.4623 40.4885C22.1283 40.2645 23.2552 38.7592 23.2557 37.1241L23.2562 20.3608C23.2544 19.9381 21.6679 18.6464 21.3112 18.3236C20.6728 17.7458 20.0958 17.1157 19.52 16.4778C18.3857 15.2211 16.8172 13.433 17.2008 11.648C15.2388 11.5801 14.8178 13.0582 14.2724 14.6385L12.574 19.3519L8.52509 31.108C8.47255 31.3085 8.43758 31.5331 8.35039 31.7214C7.95219 32.581 6.72964 32.0812 7.12128 30.8596L11.6931 18.3258L13.506 13.0411C14.0312 11.534 15.347 10.3569 16.9795 10.328L17.7806 10.336C19.1878 7.88558 19.5927 6.15186 22.9483 6.06055L24.7813 6.07578C26.2746 6.11759 27.4809 6.497 28.6332 7.51091C29.4534 8.23269 29.8677 9.35094 30.2977 10.325C30.4744 10.3627 30.7008 10.334 30.8847 10.334C32.6563 10.3337 34.4682 11.8136 34.7651 13.5816C34.827 13.9506 34.9667 14.3463 35.105 14.6949L38.8829 25.0191C39.0072 25.4283 39.1836 25.8339 39.329 26.2378L40.7811 30.4332C40.9436 30.9105 41.1222 31.8189 40.5808 32.0817L40.5546 32.0938C39.7746 32.459 39.7736 31.4539 39.6476 30.99C39.449 30.2584 39.1572 29.5228 38.8989 28.8093L33.6766 14.4931C33.0532 12.6943 32.8893 11.8598 30.8405 11.6263C30.859 12.019 30.9647 12.3411 30.8549 12.7375C30.2555 14.9015 27.1934 17.8736 25.6332 19.3691L24.9552 19.9843C24.7914 20.1253 24.7283 20.0967 24.7277 20.3276L24.728 37.5746C24.7407 37.8454 24.8424 38.1153 24.9355 38.3668L24.9617 38.4371C26.2418 41.5875 29.7991 40.5929 31.9936 38.9712C33.6288 37.7628 34.2063 36.538 33.7034 34.604L30.9283 22.5308C30.8434 22.14 30.7366 21.7419 30.6737 21.3479C30.5138 20.3463 31.674 20.2183 31.8671 21.0063L31.8763 21.0464C32.1321 21.8664 32.2223 22.7357 32.4383 23.566L33.7934 29.4073C33.9917 30.3016 34.1989 31.2168 34.407 32.1089L34.8755 34.1011C35.0737 34.9211 35.364 35.8755 35.1054 36.7149L34.906 37.4058C34.2674 39.2918 32.0753 40.7893 30.2251 41.4137C27.8921 42.201 25.7734 41.9633 24.2821 39.8107ZM24.0343 7.56594L21.7493 7.66695C21.4514 8.25852 21.658 9.22513 21.7308 9.88025C22.433 9.58461 23.2608 9.36444 24.0297 9.41389C24.7248 9.44005 25.7244 9.61222 26.3425 9.97377L26.2667 7.76014C25.5205 7.64863 24.7898 7.56509 24.0343 7.56594ZM20.3764 8.33159C19.9868 8.72867 19.7701 9.22034 19.5061 9.70152L18.8018 10.9992C18.63 11.3317 18.4509 11.6653 18.3743 12.0347L18.3677 12.0656C18.1262 13.2981 20.5926 15.9338 21.6455 16.8683L22.7234 17.8335L20.6248 10.9566C20.5424 10.6622 20.5408 10.3798 20.518 10.077L20.4581 9.57509C20.4441 9.37714 20.4928 8.41034 20.3764 8.33159ZM27.4954 8.35503C27.4918 8.44939 27.4883 8.53189 27.5098 8.62447C27.5847 8.9473 27.6431 10.5168 27.5768 10.9207C27.5585 11.0318 27.4778 11.1413 27.4379 11.2483L25.3347 17.522C25.2875 17.6609 25.2121 17.8313 25.2015 17.9766L26.2531 16.9539L27.2858 15.8722C27.9394 15.1457 28.552 14.3593 29.0797 13.537C29.8856 12.2813 29.7962 12.1845 29.167 10.8364C28.9558 10.3841 28.101 8.32156 27.4954 8.35503ZM23.6608 10.6734C23.2409 10.7055 22.3117 10.9113 22.0004 11.2464C22.0503 11.5304 22.1577 11.8364 22.2501 12.1106L23.5407 16.3391C23.5487 16.37 23.5596 16.3981 23.5707 16.4278L23.892 17.4182C23.9171 17.4899 23.9533 17.5406 24.0004 17.5996L24.1082 17.2767L26.0825 11.3375C25.3984 10.8758 24.4974 10.5636 23.6608 10.6734Z" fill="black"/>
</svg>
