<svg width="48" height="48" viewBox="0 0 48 48" fill="none" xmlns="http://www.w3.org/2000/svg">
<path d="M27.9734 45.9831L27.2635 46.0623C25.8487 46.1623 24.8443 45.9251 24.0755 44.7034C23.1415 46.2185 21.7069 46.1446 20.1807 45.9389C18.1956 45.6712 16.3391 45.0879 14.7792 43.7636C14.2405 43.3063 13.7782 42.6732 13.7224 41.9475L13.7192 41.9017C13.6746 41.3427 13.7655 40.7982 13.7947 40.2448L13.9201 37.8623L12.5572 37.859C12.1466 37.8606 11.6426 37.9334 11.263 37.7522C10.6392 37.4542 10.375 36.817 10.4513 36.158L11.9049 26.5536L13.4761 15.1246C13.9168 12.2943 15.5897 11.5915 17.7556 10.4036L18.5709 9.93447C18.7478 9.83014 18.9371 9.70679 19.1329 9.64281L19.1733 9.63037C19.1009 9.51336 19.0138 9.43212 18.9253 9.33045L16.8597 7.15754C16.4364 6.72024 15.923 6.28894 15.5941 5.7795C14.2082 3.63333 16.4117 1.0698 18.7807 0.948494L29.2976 0.947527C29.5268 0.948353 29.7539 0.937276 29.9763 1.00125L30.6151 1.18082C32.0092 1.68941 33.5539 3.44253 33.101 5.04016L33.089 5.08024C32.9245 5.65446 32.5566 6.02431 32.1466 6.42998L29.0663 9.49238C29.329 9.73378 29.6658 9.93588 29.9661 10.1309L31.2121 10.893C32.4453 11.5803 33.4185 12.1383 34.0881 13.4798L34.4589 14.4935C34.6568 15.1319 34.6434 15.8301 34.7342 16.4857L36.0488 25.65L37.6378 35.99C37.6783 36.3051 37.7259 36.5391 37.6084 36.8613L37.597 36.8912C37.2223 37.8942 36.4286 37.9495 35.4775 37.9468L34.2574 37.946C34.2338 38.0427 34.2551 38.1703 34.2581 38.2715L34.2653 40.6711C34.2658 40.9795 34.2342 41.3318 34.2879 41.6344L34.3102 41.7921C34.421 43.0703 33.7191 43.7923 32.7141 44.4158C31.306 45.2893 29.6269 45.8469 27.9734 45.9831ZM23.575 2.29691L19.2466 2.29688C18.9664 2.29718 18.6585 2.27102 18.3868 2.34898C17.4372 2.62141 16.2085 3.57636 16.5408 4.714L16.5823 4.83486C16.7203 5.24677 17.14 5.57481 17.4311 5.87769L19.867 8.38924C20.047 8.58393 20.1972 8.79355 20.3993 8.96862C21.3922 7.64145 22.8482 6.76703 24.5653 7.02926C25.8344 7.13783 26.9357 7.77841 27.7526 8.7391L27.8114 8.81012L31.2431 5.42649C32.0337 4.63956 32.0245 3.94641 31.1693 3.09331C30.4676 2.39328 29.82 2.29844 28.8937 2.29712L23.575 2.29691ZM23.7363 8.33766C22.9774 8.41125 21.6743 9.00401 21.4211 9.80052L24.153 16.8356L24.2534 16.4801L26.6339 10.3339C26.7004 10.1669 26.8617 9.96498 26.7768 9.78991C26.2538 8.71179 24.8871 8.19446 23.7363 8.33766ZM20.3033 10.5483C19.9963 10.8351 19.5398 11.91 19.6071 12.3444L19.6105 12.3714C19.6929 12.9425 20.3316 13.1619 20.586 13.6512L20.6184 13.7155C20.787 14.0642 20.5347 14.4963 20.2949 14.7396C20.8598 16.0531 21.6455 17.3524 22.5077 18.4942L23.2146 19.3641C23.3792 19.5489 23.5262 19.7134 23.7212 19.8681C23.5116 18.4475 23.3282 18.0415 22.8019 16.73L20.4487 10.703C20.4249 10.6443 20.392 10.5967 20.3505 10.5492L20.3033 10.5483ZM27.8568 10.5202C27.6856 10.8825 27.5638 11.2698 27.4224 11.6443L24.9325 18.2846C24.845 18.5499 24.77 18.751 24.7776 19.0331L25.3215 18.4776L26.1425 17.4974C26.7357 16.7933 27.647 15.8264 27.6219 14.8289C27.6178 14.6665 27.4545 14.5567 27.3743 14.4246C26.8227 13.5158 28.6 13.0695 28.5747 12.2028C28.5592 11.6721 28.1481 10.9384 27.8568 10.5202ZM18.4952 11.3604L17.4972 11.8643C15.9086 12.6424 14.9548 13.4992 14.6834 15.3591L13.4321 24.2177L11.9361 34.4901L11.8769 35.0582C11.8386 35.3364 11.5029 36.5382 11.8018 36.6989C11.8945 36.7487 13.7468 36.7184 14.0031 36.7129L14.0721 34.6277C14.0972 33.8202 14.1432 33.0341 14.2021 32.2294L14.9137 26.7178L15.6659 22.5886C15.7025 22.3979 15.7227 22.2094 15.7901 22.0252C16.0174 21.4042 16.9826 21.6795 16.922 22.3405C16.8904 22.6851 16.8065 23.0345 16.7374 23.3736L15.9975 27.5219C15.8216 28.6251 15.6441 29.7281 15.552 30.8419L15.2932 33.8629L15.1855 37.3958L14.9259 41.3971C14.8621 42.2562 15.1158 42.4809 15.8033 43.0018C17.0822 43.9707 18.7482 44.5325 20.3464 44.6821L20.8013 44.7188C21.1943 44.7675 21.6054 44.843 22.0015 44.7839C22.8794 44.6526 23.5776 43.7731 23.6537 42.9153L23.6725 21.6848C21.8641 20.0226 20.5191 18.0654 19.4433 15.8542C19.0956 15.1392 18.7383 14.718 19.2781 14.0001L19.254 13.9841C18.6067 13.5478 18.1775 12.6644 18.3648 11.8886L18.4952 11.3604ZM29.6043 11.3697C30.025 12.4604 29.7746 13.4093 28.8362 14.124C28.8913 14.2328 28.9722 14.3587 29.0019 14.4766C29.2272 15.3715 28.1395 17.0523 27.6278 17.6947L25.2807 20.4797C24.8638 20.9362 24.9705 20.8148 24.9688 21.3854L24.9707 42.9246C24.9726 43.6927 25.0343 44.2983 25.8582 44.6667L26.0633 44.7428C26.4252 44.8596 27.6733 44.7431 28.1245 44.6497L29.1 44.4668C30.6318 44.1152 32.1201 43.4836 33.0556 42.1782C32.9847 41.6948 33.0057 41.2058 32.9965 40.7186L32.9612 37.9509C32.9573 37.5353 32.9022 37.1304 32.8845 36.7177L32.7633 34.062L32.4576 30.5682C32.4455 30.4664 32.3962 30.279 32.4134 30.1849L31.9464 26.8352L31.3412 23.4536C31.2564 23.0271 30.99 22.3559 31.308 21.9743C31.7289 21.4695 32.2444 21.7548 32.4077 22.3293L32.4207 22.3656C32.4582 22.4815 32.4649 22.6147 32.4848 22.735L33.4667 28.5718L33.9827 33.8404C34.0521 34.8067 34.1501 35.7783 34.1498 36.7477C34.2843 36.7749 34.45 36.7473 34.5872 36.7418L35.2354 36.7355C36.2472 36.7394 36.644 37.0516 36.4522 35.7765L34.1963 21.2199L33.6329 17.0109C33.2235 13.794 33.1412 13.3584 30.3907 11.8295L29.6043 11.3697Z" fill="black"/>
</svg>
