<svg width="48" height="48" viewBox="0 0 48 48" fill="none" xmlns="http://www.w3.org/2000/svg">
<path d="M26.0034 43.8091C25.3099 43.3746 24.7651 42.8023 24.3597 42.0884C24.2148 42.271 24.1035 42.4779 23.9682 42.6677C23.0452 43.9621 21.3526 44.632 19.7962 44.4692C17.6249 44.2421 13.9108 42.7863 13.6224 40.2597C13.5572 39.6884 13.6915 39.1484 13.7693 38.5896L14.5743 32.566L15.0153 29.6186L12.1921 28.9566C11.7749 28.8553 11.3395 28.7849 10.9416 28.6209C9.8752 28.1814 9.27299 27.0718 9.52476 25.9536L13.7766 9.67499C14.0465 8.38597 14.26 7.6356 15.6139 7.12846C15.8738 7.0311 16.1436 6.95788 16.395 6.83825C18.2272 5.96629 18.2161 3.786 20.4989 3.40472L27.0352 3.39245C27.2719 3.39213 27.5688 3.35883 27.7948 3.41791L27.9423 3.45692C28.9266 3.73957 29.365 4.44142 29.926 5.22861L30.3571 5.79514C30.9227 6.54182 31.3849 6.75608 32.2593 7.08505C32.8573 7.3101 33.4184 7.68093 33.7322 8.25186L33.75 8.28486C33.8549 8.47344 34.1391 9.659 34.2029 9.98038L34.392 10.7224C34.4531 11.0993 34.604 11.4702 34.6705 11.8474L35.2354 14.0555C35.3815 14.9047 35.7269 15.7047 35.8897 16.5442L36.7344 19.7224C36.8601 20.4396 37.1623 21.1326 37.3003 21.8478L37.3946 22.2117C37.5179 22.8838 37.8272 23.8436 38.0119 24.5255C38.1303 24.9625 38.209 25.4293 38.3541 25.8569L38.3895 25.9685C38.6601 26.9759 38.1284 28.1084 37.2021 28.5703C36.9332 28.7044 36.6388 28.7705 36.3482 28.8379L32.9157 29.652C32.9177 30.0346 32.9877 30.4206 33.0415 30.7982L33.5127 33.9494C33.7038 35.2361 33.8882 36.5573 34.2189 37.8161L34.6527 39.5842C35.2601 41.6538 31.8842 43.5132 30.3529 43.9784C28.9015 44.4194 27.3703 44.5376 26.0034 43.8091ZM20.3002 4.72236C19.6695 4.95955 19.4466 5.38794 19.0981 5.92939C18.7722 6.43574 18.3944 6.85841 17.9756 7.28816C17.4866 7.79 17.7837 7.80083 17.6495 8.49018C17.6231 8.62541 17.4416 9.67785 17.6117 9.57393C18.1206 9.22864 18.9106 8.9375 19.539 8.94275C19.6879 7.82094 19.9551 6.71043 20.1806 5.60127L20.3015 5.02386C20.3235 4.92805 20.3633 4.81705 20.3601 4.71866L20.3002 4.72236ZM21.7797 4.75607L21.6822 4.76164C21.62 4.88244 21.6236 5.07107 21.5945 5.20672L20.9714 8.17939C20.9055 8.48216 20.792 8.83349 20.7719 9.14061C21.4349 9.6471 22.1151 10.0835 22.4186 10.8984L23.7692 14.3903C23.8725 14.6321 23.9658 14.8622 24.0869 15.0968L24.6656 13.6084L25.9044 10.3851C26.1967 9.69636 26.3285 9.36613 27.0723 9.02066L27.1085 9.00388C27.106 8.88636 27.0679 8.76416 27.0471 8.64814L26.6137 6.28443C26.5222 5.78108 26.3877 5.25819 26.3623 4.74735L21.7797 4.75607ZM27.6611 4.76924C27.6954 5.39343 27.8766 6.01893 27.9909 6.632L28.4118 8.92264C29.148 9.07363 29.6738 9.22063 30.3039 9.61616C30.3188 9.24346 30.3357 7.60653 30.1137 7.38768L30.0566 7.33518C29.3659 6.69936 28.3668 4.8043 27.6809 4.7668L27.6611 4.76924ZM16.3801 8.26143C16.0835 8.3833 15.3866 8.57118 15.2632 8.88355L15.2224 9.00936C15.1431 9.25597 15.1175 9.55171 15.0685 9.80821L10.9355 25.6314C10.7526 26.421 10.5521 27.1161 11.5786 27.4437C11.9125 27.5503 12.27 27.6178 12.6121 27.6951L14.3191 28.1162C14.5714 28.1811 14.845 28.2242 15.0899 28.3118L15.7162 24.6522C15.8324 24.0613 15.9265 23.9856 15.7813 23.4114C15.7188 23.1642 15.6722 22.9132 15.6755 22.658C15.674 21.9597 15.8367 20.7752 16.3427 20.2296L16.4004 20.1776C16.8128 19.8097 16.2035 18.8201 16.801 18.2692C17.1051 17.9889 17.5638 18.0597 17.7659 18.4099L17.7797 18.4328C17.8427 18.5484 17.8057 18.8018 17.8044 18.9372L17.7926 20.1231C18.4092 20.1136 23.6697 20.1469 23.7309 20.1196C23.7362 19.7313 23.7857 17.1705 23.7166 17.012C23.6974 16.9679 23.639 16.9106 23.6091 16.8681L23.4262 16.5805C23.1454 16.0895 22.8785 15.5964 22.6536 15.0768L21.6873 12.5814C21.2894 11.5232 21.1144 10.6308 19.8943 10.2547C19.4768 10.126 18.4394 10.5817 18.0881 10.7721C17.6301 11.0203 17.0936 11.5542 16.5611 11.1893L16.5375 11.1734C16.0145 10.803 16.2844 8.80527 16.4189 8.28219L16.3801 8.26143ZM31.5458 8.23077L31.5943 10.1558C31.5939 10.4673 31.6502 10.7379 31.4611 11.0036L31.4391 11.0351C31.0153 11.6257 30.4901 11.2405 30.0404 10.9643C29.4486 10.601 28.8867 10.3995 28.2105 10.2786C28.0547 10.2508 27.7474 10.1323 27.7304 10.1541C27.6846 10.2132 27.6078 10.2493 27.5455 10.2891C27.1923 10.5139 27.1282 10.7315 26.9873 11.11L24.9759 16.5124C25.0312 16.8295 25.0042 17.1837 25.0042 17.5063L25.0026 19.1386C25.002 19.4677 24.9879 19.7999 25.0113 20.1282L30.3258 20.1274L30.3245 19.4103C30.3249 19.051 30.2931 18.7368 30.5756 18.4607C31.0359 18.0108 31.5384 18.4461 31.6105 19.0358C31.6499 19.3581 31.6427 19.6815 31.6449 20.0056C31.6472 20.3562 31.6872 20.2773 31.8425 20.5563C32.361 21.4878 32.5126 22.4196 32.2113 23.4659C32.0398 23.9285 32.0833 23.9966 32.1636 24.4758L32.4854 26.3317C32.5422 26.6247 32.5858 26.9202 32.6372 27.2139L32.7986 28.3338L35.52 27.6802C36.9622 27.3064 37.4327 27.2752 36.9811 25.6403L33.031 10.5687L32.7416 9.23235C32.6796 8.96572 32.6782 8.76805 32.4235 8.62724L31.5458 8.23077ZM17.2161 21.4086C16.7676 22.3948 16.9086 23.8167 18.0239 24.2576L18.1395 24.2961C18.4845 24.3999 18.761 24.3886 19.1235 24.3901L20.1626 24.3916L20.3706 24.3917L20.3668 21.4445L18.3467 21.4423C17.9969 21.4417 17.5565 21.4858 17.2161 21.4086ZM30.0687 21.4406L21.656 21.4439C21.604 21.6735 21.632 21.95 21.6316 22.1856L21.6287 24.0335C21.6261 24.1538 21.6115 24.2749 21.6342 24.3937L22.6318 24.3916L28.9164 24.3913C29.1293 24.3912 29.3816 24.4152 29.5903 24.3727C30.6701 24.1527 31.2385 23.0234 31.0294 22.0007C31.01 21.9054 30.9113 21.49 30.8463 21.4367L30.0687 21.4406ZM16.9662 25.1599L16.8858 25.6207C17.0333 25.7639 17.215 25.8615 17.3824 25.9789L18.5512 26.7671C18.8473 26.965 19.206 27.1409 19.3786 27.4644L19.3794 28.7556C19.3786 30.9933 18.0588 31.7973 15.9728 31.656L15.0658 38.4903C14.9798 39.1261 14.7773 39.7657 14.9761 40.3929C15.4098 41.7609 17.8605 42.8715 19.2248 43.0612L19.5159 43.1188C20.1227 43.2685 21.0001 43.1668 21.5939 42.9233C22.6392 42.4948 23.2772 41.536 23.6469 40.51C23.7632 40.1873 23.7391 39.9261 23.7394 39.5841L23.7359 25.7105C23.3128 25.6621 22.847 25.7061 22.4183 25.7065L19.7492 25.7067C18.9541 25.7063 18.1881 25.8067 17.4554 25.4401C17.3374 25.381 17.0742 25.1673 16.9662 25.1599ZM30.8986 25.2067L30.8703 25.2301C30.3672 25.632 29.7258 25.7002 29.1094 25.7036L25.0098 25.708L25.0065 38.2002C25.0071 39.1977 24.9142 40.2008 25.3506 41.1329L25.5261 41.4868C25.808 42.0761 26.3661 42.5833 26.9746 42.8127L27.0825 42.8456C27.8084 43.0518 28.9974 43.0671 29.7253 42.7902C30.6363 42.5648 31.5074 42.0775 32.2607 41.5255C32.9245 41.0392 33.5462 40.5186 33.3246 39.6243L31.8883 31.6638C31.6145 31.6648 31.3321 31.6776 31.0592 31.6593C29.4665 31.5525 28.5945 30.4666 28.5908 28.9485L28.604 27.5066C28.6176 27.379 28.7566 27.2389 28.8545 27.1653L31.0332 25.7148C31.026 25.5478 30.9625 25.3801 30.9456 25.2111L30.8986 25.2067ZM16.7297 27.1521L16.1873 30.3776C16.6274 30.3725 17.0428 30.3829 17.4496 30.1876C18.2295 29.7752 18.1918 28.8115 18.0934 28.0222L17.2018 27.4465C17.0968 27.3758 16.8487 27.1451 16.7297 27.1521ZM31.2136 27.1521L30.1687 27.8587C30.0595 27.9342 29.9676 27.9488 29.8793 28.0583L29.8805 28.9778C29.881 29.5395 29.9932 29.8782 30.5399 30.1739C30.9821 30.3561 31.2119 30.3732 31.7061 30.3525L31.4303 28.2419C31.4074 28.0707 31.3515 27.1446 31.2136 27.1521Z" fill="black"/>
</svg>
