<svg width="48" height="48" viewBox="0 0 48 48" fill="none" xmlns="http://www.w3.org/2000/svg">
<path d="M27.4867 44.136C25.0759 44.4168 21.7681 44.3291 19.4151 44.0391C16.3355 43.6595 13.9436 42.5366 13.1724 39.2596C12.9107 38.1476 13.0644 36.8532 13.16 35.7181L13.2728 34.5668C13.5727 31.9216 14.2944 28.6265 15.989 26.5758C17.1309 25.194 17.3906 25.0879 16.7123 23.1469L16.1274 21.5391C16.0677 21.3764 15.9853 21.2224 15.945 21.0531L15.94 21.0305C15.8391 21.2375 15.7807 21.4585 15.6997 21.6729L13.4121 27.9369C13.0996 28.8099 12.8505 29.8142 12.3399 30.5927C10.3169 33.6778 4.69759 31.8146 5.75788 27.2743C5.8479 26.8888 6.00791 26.5148 6.12553 26.1365L10.5794 12.1714C11.4283 9.59564 11.7113 8.07707 14.4284 6.72681C14.8289 6.52775 14.8197 6.5936 15.0727 6.23093C15.821 5.15834 17.1519 4.30929 18.4202 4.07252C18.839 3.99432 19.2639 4.02978 19.6858 3.9866C20.0125 3.95316 20.3188 3.8432 20.6414 3.78441L26.868 3.77051C27.5908 3.77175 27.9628 3.85787 28.665 3.97899C30.7138 4.33241 31.9032 5.05236 33.5658 6.31879C35.081 7.47276 35.9729 8.36774 36.7985 10.0797C36.8392 10.164 36.8752 10.2451 36.9034 10.3346L37.2814 11.5725L42.2239 27.0589C42.8506 29.3539 41.7132 31.7644 39.1967 32.0678C37.6632 32.2528 36.1799 31.542 35.4349 30.1812C35.1664 29.6909 35.0338 29.1476 34.8549 28.622L32.1217 21.0161C31.966 21.3584 31.873 21.7393 31.7391 22.0912L31.2281 23.4637C30.8778 24.5403 30.8259 25.0899 31.5491 25.9332C32.8667 27.4696 33.8539 30.2137 34.3181 32.1273L34.4918 32.916C34.741 34.1599 34.9048 35.4403 35.003 36.7037L35.0511 37.7312C35.2319 40.0554 33.6903 42.482 31.5491 43.3791C30.3035 43.9009 28.8215 44.046 27.4867 44.136ZM34.4983 8.89704C34.5812 9.43061 34.7679 10.1021 34.5609 10.6305L34.537 10.7067C34.2259 11.6946 33.4034 12.3088 32.3986 12.4271C31.8837 12.4877 29.914 11.9703 29.3736 11.8123L29.4137 12.0131C29.8265 13.647 28.1829 14.6877 27.1293 15.5478L25.4942 16.9137C25.07 17.253 24.7338 17.2622 24.7333 17.7365L24.7264 42.7868C25.2542 42.7997 25.7722 42.7671 26.2984 42.7419L27.2933 42.7112C27.4398 42.7018 27.5858 42.6689 27.7323 42.6541L28.7582 42.5519C31.9028 42.1863 33.823 40.6489 33.6451 37.4119L33.5435 36.0752C33.1956 33.3059 32.6782 30.942 31.3927 28.4656L30.6412 27.2309C30.4294 26.916 30.1917 26.6171 30.0052 26.2854C29.1444 24.7546 29.8041 23.2193 30.3705 21.7392C30.9536 20.2154 31.3849 19.1348 31.5838 17.5201L31.6781 15.993C31.7124 14.987 32.6672 14.7994 32.9655 15.4132L33.0129 15.5161C33.1464 15.793 32.9691 17.5526 32.9287 17.8844C32.8893 18.2069 32.7404 18.5993 32.8365 18.9154L32.8456 18.9463C32.9249 19.209 33.0615 19.4645 33.1535 19.7251L33.1885 19.8072C33.3138 20.1018 33.4252 20.4194 33.5032 20.7297L36.2831 28.5139C36.3967 28.8132 36.4863 29.1297 36.6314 29.4159C37.1435 30.4256 38.4381 30.8815 39.4868 30.4919L39.6024 30.4451C40.5659 30.0431 41.2134 29.0162 41.016 27.965C40.9403 27.562 40.794 27.1849 40.6701 26.7956L35.9482 11.9794C35.7579 11.342 34.9955 9.29168 34.4983 8.89704ZM20.6863 5.23832C20.649 5.69937 20.6236 6.15738 20.7964 6.59468L22.2512 10.2702C22.3359 10.5025 22.4512 10.7288 22.5433 10.9585L23.3762 13.0953C23.5506 13.5587 23.813 14.3389 24.0502 14.7495L24.9906 12.3212L26.8237 7.47525C27.1125 6.7285 27.376 6.0475 27.4228 5.24193L20.6863 5.23832ZM28.873 5.44226C28.7685 6.37695 28.6845 6.50963 28.351 7.40433L27.9007 8.64162C27.7385 9.07207 27.5662 9.49295 27.4399 9.9363L31.3549 10.8169C31.5176 10.8511 31.7204 10.8738 31.8749 10.929C32.8617 11.178 33.4382 10.3678 33.2144 9.42259C32.6679 7.11333 31.0391 5.99643 28.873 5.44226ZM19.1041 5.47765C17.8062 5.6201 16.8757 6.21027 16.0752 7.211C15.798 7.55758 15.7177 7.66351 15.3122 7.86384L14.712 8.1784C13.0404 9.11971 12.569 10.3594 12.0705 12.0673L7.85001 25.2743C7.58473 26.1351 7.23407 26.9927 7.0398 27.8716C6.5036 30.2971 10.1085 31.8238 11.3824 29.4463C11.5701 29.096 11.6718 28.6841 11.8061 28.3091L15.2427 18.8829C15.3018 18.6949 15.168 18.3181 15.1374 18.1175L15.0399 17.4135C14.9936 17.0327 14.9279 15.976 15.0091 15.6207L15.0163 15.5869C15.1403 15.0414 15.9404 14.8601 16.2352 15.3693L16.3059 15.5157C16.4053 15.7339 16.3853 16.0083 16.3879 16.2429C16.4018 17.4533 16.5768 18.7918 17.0286 19.9224L18.2453 23.3208C18.531 24.1379 18.5602 25.0053 18.2267 25.8186C17.9519 26.4889 17.4541 26.9951 17.0845 27.6053C15.9681 29.1803 15.6494 30.405 15.2574 32.2115L14.9269 33.7707L14.4854 37.2461C14.452 37.679 14.3965 38.1749 14.4653 38.6036L14.4874 38.6935C14.9244 40.3051 15.647 41.4322 17.2744 42.0917C17.8195 42.3126 18.3963 42.3864 18.9739 42.4631L20.7186 42.6468C20.9685 42.667 21.2104 42.7164 21.4615 42.7229L22.6701 42.738C23.5233 42.7546 23.3417 42.9396 23.3439 42.1171L23.3468 19.115C23.3466 18.5726 23.3774 18.0085 23.3345 17.4687C23.2216 17.3333 23.0231 17.238 22.8827 17.1232L20.2177 14.9322C19.1239 14.0367 18.44 13.4905 18.7315 11.8209L17.3898 12.0768C16.841 12.18 16.0136 12.4063 15.8961 11.5817C15.7718 10.7093 16.9987 10.6957 17.5541 10.5903L19.1499 10.2558C19.6071 10.1654 20.0896 10.1023 20.5327 9.9586C20.0699 8.63007 19.2479 6.90216 19.2708 5.4737L19.1041 5.47765ZM26.895 11.2531L25.4069 15.1603L26.0829 14.5538L26.8769 13.9034C27.7581 13.2023 28.475 12.791 27.7914 11.4636L27.1525 11.3044C27.0739 11.2853 26.9752 11.2457 26.895 11.2531ZM21.1134 11.2766C20.8484 11.3631 20.5666 11.4059 20.2925 11.4557C19.8147 12.7072 20.0693 13.0212 21.0617 13.7874L21.6727 14.2922C21.8078 14.4006 21.9529 14.4945 22.0772 14.616L22.7243 15.1316C22.3742 14.5516 22.1451 13.8714 21.9186 13.2347L21.4968 12.1453C21.3869 11.8609 21.2857 11.5576 21.1605 11.281L21.1134 11.2766Z" fill="black"/>
</svg>
