<svg width="48" height="48" viewBox="0 0 48 48" fill="none" xmlns="http://www.w3.org/2000/svg">
<path d="M25.4108 40.3718C24.6067 40.048 24.6118 39.9345 24.0519 39.4387L23.8723 39.6416C23.2775 40.2833 22.4194 40.599 21.5551 40.619L17.5646 40.6217C17.0816 40.6212 16.6425 40.6232 16.1692 40.5029C14.2832 40.0234 13.6584 38.2954 13.9277 36.5564C14.089 35.5157 14.5149 34.5173 14.7079 33.4777C15.061 31.5755 15.2366 29.6544 15.2117 27.7202C14.4437 29.0845 13.4861 30.3502 12.6058 31.6431L11.8131 32.8205C11.1756 33.7833 10.557 34.7337 9.19088 34.0315L8.45877 33.6476C6.74471 32.8116 6.22508 32.303 7.01464 30.4855L8.98535 25.9117C9.49587 24.7337 9.76641 24.1502 10.1113 22.9106L10.9552 19.8365C11.5158 17.875 12.2405 15.952 13.0019 14.0607L13.3598 13.1583C14.0768 11.3057 14.7395 11.2345 16.4227 11.0195C16.6152 10.2266 17.1539 9.55226 17.958 9.30955L19.3522 8.938C19.6905 8.85023 19.693 8.93289 19.8745 8.63559C20.3172 7.91052 21.0618 7.46961 21.9104 7.40286C22.3404 7.37212 22.7962 7.40474 23.2289 7.40413L26.1413 7.40662C27.0099 7.43727 27.8443 7.94901 28.2824 8.70281C28.382 8.87412 28.4226 8.82099 28.6161 8.86117L29.6153 9.09651C29.8288 9.14687 30.0504 9.16973 30.255 9.25468L30.3697 9.30298C31.0967 9.61797 31.5147 10.3711 31.6411 11.1241C31.8751 11.1723 32.1209 11.1718 32.3582 11.198C33.4991 11.3238 34.4063 11.9432 34.8413 13.0421L36.4024 17.2964C36.438 17.4224 36.484 17.5574 36.5336 17.6786L37.9073 22.435C37.9539 22.6962 38.0371 23.0339 38.1405 23.2821L39.2158 26.2173L41.3131 31.475C41.4898 32.0548 41.1449 32.8665 40.682 33.2158C40.3559 33.4619 39.9416 33.5934 39.5695 33.7546C37.7905 34.5253 37.2383 34.2437 36.3208 32.6939L32.8534 27.5172C32.7861 28.1643 32.8595 28.8634 32.9121 29.509L33.0824 31.4589L34.1785 36.7814C34.2844 37.1399 34.3358 37.8321 34.2133 38.201L34.0681 38.5927C34.0107 38.7503 33.9355 38.9036 33.8529 39.0496C33.0662 40.4408 31.7612 40.6152 30.3512 40.617L27.4417 40.6178C26.7332 40.6174 26.0959 40.5941 25.4108 40.3718ZM21.928 8.91773C21.7966 8.93458 21.639 8.92383 21.5203 8.9848L21.4907 8.99958C21.2456 9.13021 20.9445 9.49401 20.8382 9.74986L21.735 12.2977L23.7849 17.6028C23.8781 17.8295 23.9137 18.1617 24.0548 18.3588C24.1429 18.2451 24.1898 18.0152 24.243 17.8762L24.642 16.8704L27.1455 9.58779C26.5921 8.66648 26.0626 8.91679 25.1398 8.91763L22.6178 8.91792C22.4005 8.91796 22.1381 8.95054 21.928 8.91773ZM28.4228 10.2766L28.0126 11.7068C27.9262 11.9996 27.8075 12.3289 27.7754 12.6306L29.1931 12.2183C29.55 12.1 29.9645 12.0278 30.1491 11.6619L30.1939 11.5641C30.6185 10.6018 28.8786 10.4399 28.4228 10.2766ZM19.5353 10.385C19.1544 10.4445 18.7304 10.5381 18.3749 10.6901L18.3343 10.7071C18.1186 10.799 17.9005 10.928 17.8164 11.161L17.7865 11.2651C17.5892 11.9506 18.4561 12.048 18.8976 12.1479L20.3005 12.5481C20.2624 12.3423 20.1365 12.1183 20.0675 11.9163L19.5913 10.3968C19.5729 10.392 19.5544 10.3844 19.5353 10.385ZM16.6562 12.4518C15.4528 12.5752 15.2629 12.3862 14.7973 13.4555L13.236 17.3785L12.2042 20.5467C11.7671 22.008 11.5384 23.5198 10.9961 24.9521L8.25047 31.2199C7.92074 32.0354 8.36392 32.0036 9.08251 32.3661L10.0038 32.8386C10.1769 32.6679 10.2962 32.446 10.435 32.2472L11.4035 30.8327C12.7107 28.9023 14.1509 27.0306 15.1705 24.9248L14.9864 23.2848C14.9389 22.755 14.853 22.0836 15.5242 21.9413L15.5553 21.9343C15.9237 21.8584 16.2666 22.1689 16.3269 22.5187L16.6845 26.8088L16.6831 28.4314L16.5722 30.6145C16.5466 30.8492 16.4881 31.1188 16.5138 31.3539L20.1839 31.3473C21.1843 31.307 21.3177 31.5109 21.3173 32.4023L21.3148 37.0932C21.3027 37.565 21.2297 38.0872 21.0978 38.5404C21.0419 38.7327 20.9117 38.9709 20.894 39.1605C21.7702 39.163 22.6232 39.1586 23.1229 38.2935C23.1921 38.1736 23.27 38.0282 23.2825 37.8897L23.2868 37.846C23.3096 37.595 23.2911 37.337 23.2881 37.0852L23.2858 20.4294C23.2844 20.3282 23.2668 20.2642 23.2289 20.1712L20.9651 14.1895L18.488 13.5296C17.8775 13.372 17.2349 13.229 16.8367 12.6991C16.7839 12.6289 16.7241 12.5006 16.6562 12.4518ZM31.3564 12.5536C30.7597 13.2689 30.3856 13.3383 29.4994 13.6159C28.8882 13.8074 28.2699 13.9962 27.644 14.1352L27.2512 14.2112C27.1007 14.2383 27.1258 14.3075 27.0706 14.4469L24.9116 20.0743C24.7086 20.5308 24.758 20.6796 24.7576 21.1815L24.7564 36.6602C24.7568 37.1394 24.6603 37.7201 24.8959 38.1606C25.402 39.107 26.3797 39.15 27.3306 39.1272L27.3117 39.0992C26.8679 38.4059 26.7527 36.7553 26.7514 35.9085L26.7468 32.4099C26.7408 31.0713 27.2396 31.3466 28.2834 31.3511L30.4546 31.3527C30.8199 31.3525 31.2016 31.3751 31.5652 31.3447L31.4476 27.0063L31.6751 22.9298C31.6861 22.7669 31.6867 22.5813 31.7268 22.4226C31.8797 21.8176 32.681 21.79 32.9844 22.3213L33.0009 22.3483C33.1521 22.6182 32.9616 24.2364 32.9395 24.589C32.9079 25.0901 33.1296 25.2672 33.3983 25.6788L38.0236 32.6275C38.0555 32.6814 38.1046 32.7255 38.1486 32.7696L38.9101 32.4355C39.244 32.2966 39.6303 32.2056 39.9224 31.9875C39.8437 31.2704 39.4832 30.5398 39.227 29.8682L36.9409 24.1165C36.5521 22.984 36.3053 21.803 35.9737 20.6523C35.5031 19.0195 34.9521 17.3788 34.3249 15.7994L33.8934 14.6475C33.7197 14.1539 33.5835 13.4582 33.2191 13.0663L33.1888 13.0334C32.7805 12.5952 31.9844 12.5757 31.4121 12.5543L31.3564 12.5536ZM28.3344 32.7847L28.1554 32.7776C28.1025 32.8728 28.1391 33.5129 28.1394 33.6819L28.1412 36.4583C28.1565 36.9939 28.5722 38.9084 29.0058 39.1064C29.1835 39.1876 31.2176 39.1046 31.4285 39.0768C31.7525 39.0342 32.0337 38.8819 32.2832 38.6764C32.3853 38.5713 32.4897 38.4699 32.5709 38.3473L32.5931 38.3142C32.7557 38.068 32.8891 37.6814 32.8375 37.3851L31.9054 32.793L28.3344 32.7847ZM16.2805 32.7847C16.1954 33.3467 16.122 33.889 15.9907 34.4347L15.6349 35.7423C15.4541 36.3967 15.1361 37.2641 15.3491 37.9366L15.3637 37.9903C15.662 39.0792 16.5171 39.1078 17.4083 39.1161L18.8625 39.1261C18.9974 39.1368 19.1361 39.1452 19.2683 39.1157C19.9287 38.2526 19.9208 36.9008 19.9214 35.8631L19.9216 33.2214C19.9215 33.103 19.9439 32.9348 19.9199 32.8242L16.2805 32.7847Z" fill="black"/>
</svg>
