<svg width="48" height="48" viewBox="0 0 48 48" fill="none" xmlns="http://www.w3.org/2000/svg">
<path d="M11.2578 21.1417L9.27673 34.9954L13.2112 35.2144L15.4087 28.4348C15.7373 27.4129 15.6951 27.3094 15.5156 26.2693L15.1021 23.7148C14.8317 21.9791 16.3333 22.4143 16.4026 23.0777C16.4251 23.2932 16.4689 23.5134 16.4962 23.7311L16.9111 26.1663C17.1865 27.5221 16.9219 28.3305 16.5026 29.6254L13.9964 37.2778L13.6314 38.6114C13.3388 39.6096 13.0094 40.9539 13.5321 41.8971C14.126 42.969 15.0965 43.0391 16.1694 43.1462L18.0973 43.3393C18.2531 43.3548 18.407 43.3905 18.5625 43.4041L19.0956 43.44C19.3991 43.4735 19.7574 43.5779 20.0617 43.5097L20.0859 43.504C20.5521 43.4092 20.6624 42.937 20.7515 42.5409L20.9008 41.8438C21.1937 40.3854 21.4268 38.9032 21.5549 37.4207L21.8716 33.0436C22.1329 30.5071 22.6273 28.4187 23.5367 26.0348L23.9049 25.1058C24.2686 24.2295 24.4461 23.703 23.6224 22.9245C23.07 22.4024 22.2908 22.0461 21.634 21.6682L17.2013 18.9733C16.972 18.8276 16.7247 18.691 16.5177 18.5145C15.1338 17.3349 16.2355 15.6963 16.9179 14.5371C17.1619 14.1224 17.1224 14.2762 16.9279 13.8377L16.3171 12.4507C15.5319 10.6747 15.0726 9.13658 16.5563 7.50505C18.2554 5.63656 20.6636 4.635 23.1668 4.51342C26.2865 4.37356 30.5903 5.39483 32.084 8.48478C32.7175 9.79536 32.5367 10.8544 32.0276 12.1624L31.2988 13.9695C31.1688 14.2885 31.2071 14.217 31.3996 14.5318C32.0116 15.5328 31.8364 16.798 30.9931 17.5967C30.7107 17.8641 30.3539 18.0271 30.0418 18.2566L25.4795 21.5011C25.2504 21.6789 25.0094 21.8582 24.8061 22.0653C25.6025 23.177 25.8419 23.8827 25.3512 25.2665L24.6425 27.0946C23.9355 29.0239 23.5447 30.9569 23.3082 32.9917L23.1645 34.2192L22.9247 37.9926L22.7943 39.0415C22.7703 39.2522 22.7608 39.465 22.7247 39.6744L22.3873 41.6013C22.3542 41.8349 22.2882 42.0619 22.2442 42.2934C21.8744 44.2396 21.3029 45.0687 19.2187 44.8921L17.5771 44.7159C15.7351 44.529 13.7543 44.6552 12.5508 42.9628C11.7403 41.8231 11.8049 40.5679 12.024 39.2685L10.2656 39.1092C10.0045 39.0888 9.71614 39.0993 9.4616 39.0387L9.29182 38.9986C8.73495 38.8587 8.21857 38.5105 7.92682 38.0055L7.90423 37.9658C7.54643 37.3444 7.56335 36.8164 7.67656 36.13L9.54668 23.4613L10.6293 15.3009C10.9143 13.6873 12.0422 11.8207 13.6622 11.261C14.4733 11.378 14.7376 12.281 13.9765 12.6932C12.2487 13.6292 12.1013 14.8405 11.8666 16.5605L11.5404 18.929C11.455 19.6636 11.3919 20.4147 11.2578 21.1417ZM23.3371 5.91261C21.138 6.12711 18.9809 6.7303 17.5036 8.5122C16.7427 9.43011 16.8659 10.37 17.3793 11.4028L18.5185 14.0232C18.5644 14.1302 18.5858 14.2721 18.5393 14.384L18.5133 14.4379C18.2848 14.9217 18.0108 15.3918 17.7429 15.8554C17.0371 17.0771 16.8556 17.117 18.1528 17.9384L22.524 20.5562C22.7805 20.7024 23.0365 20.881 23.3049 21.0016L19.7167 12.2001C19.5341 11.7474 19.3067 11.2692 19.2224 10.7869C18.9915 9.46452 19.7865 8.09956 21.0405 7.62439L21.1039 7.60339C21.7811 7.38378 22.4005 7.26552 23.1087 7.17842L23.1557 7.16497C25.0166 6.97583 27.7383 7.29472 28.5238 9.25311C28.8841 10.1513 28.6351 10.9078 28.3011 11.7464L25.0774 19.4251C24.952 19.7215 24.8117 20.0022 24.7152 20.3108C25.1277 20.0481 25.5126 19.7383 25.9094 19.4524L29.0413 17.2605C29.8661 16.6882 30.8737 16.1974 30.0942 15.096C29.4811 14.2299 29.903 13.5199 30.305 12.6234L30.7921 11.3853C30.9182 11.0316 31.0549 10.6582 31.0978 10.2835C31.2419 9.0252 30.0956 7.91984 29.1325 7.30798C27.6094 6.34039 25.1742 5.77119 23.3371 5.91261ZM23.7515 8.54211C22.6265 8.57722 20.8737 8.69755 20.5783 10.0551C20.5124 10.3579 20.5362 10.5609 20.6536 10.8502L23.8851 18.7153C23.9286 18.6949 23.956 18.5822 23.9742 18.5337L23.984 18.505C24.1433 18.0432 24.3698 17.6023 24.5534 17.1491L27.0088 11.2226C28.0271 8.7283 25.5332 8.49561 23.7515 8.54211ZM9.07343 36.4318C8.8226 36.7959 9.06223 37.3568 9.4032 37.5665C9.6139 37.696 10.421 37.6978 10.6841 37.7253L12.3678 37.9052L12.4406 37.6234L12.7706 36.5632L10.0144 36.4614C9.71351 36.4538 9.37118 36.3833 9.07343 36.4318Z" fill="black"/>
<path d="M26.3194 38.4133C26.309 38.9934 26.4394 39.8965 26.5329 40.5117L26.6685 41.3351C26.7271 41.7309 26.7721 42.1317 26.8551 42.5236C27.1014 43.6867 27.4244 43.5424 28.3852 43.4394L32.3923 43.0659C34.8347 42.8185 34.9694 41.1924 34.5437 39.2741C34.2246 37.8365 33.7568 36.439 33.3059 35.0391L31.4249 29.2732C31.0332 28.0342 30.8911 27.3769 31.1041 26.1094L31.4845 23.7189C31.5196 23.4796 31.5309 23.2421 31.5958 23.0077C31.8185 22.2035 33.0254 22.4425 32.9371 23.255L32.418 26.7232C32.3494 27.2215 32.3755 27.6855 32.5448 28.1656L32.701 28.6869C32.761 28.9792 32.8935 29.2861 32.9996 29.5664L33.4513 30.9604C33.5298 31.2692 33.6524 31.6018 33.7642 31.9021L34.8056 35.1286L38.7298 35.008L37.8982 29.3906L36.0452 15.9528C35.8913 14.7484 35.5238 13.647 34.4645 12.9154C34.266 12.7782 34.022 12.6779 33.8764 12.4795C33.8348 11.8835 33.812 11.5748 34.4969 11.3701C35.3742 11.3683 36.6675 13.2038 36.9718 13.9197C37.0824 14.1798 37.137 14.443 37.2267 14.706L37.2439 14.756C37.2867 14.8957 37.2949 15.0417 37.3207 15.1843L39.8384 33.0807C39.8486 33.1644 39.8763 33.2453 39.8915 33.3281L40.2136 35.5799C40.3953 36.905 40.7031 38.1036 39.0879 38.8517C38.6386 39.0598 38.2317 39.0761 37.7441 39.1039L37.0332 39.167C36.6872 39.1823 36.3355 39.1675 35.9921 39.2133C36.0045 40.1467 36.3136 40.6129 36.0322 41.7493L35.9978 41.8711C35.5511 43.1961 34.5371 44.1621 33.1617 44.4268C32.8003 44.4964 32.4383 44.5058 32.0739 44.5425L28.9325 44.8347C27.6277 44.988 26.4249 45.1726 25.7109 43.6737C25.4956 43.2218 25.4733 42.7216 25.3974 42.2344L25.2133 41.1233C24.4653 36.249 24.5066 31.9879 26.1437 27.3407C26.3828 26.6623 26.93 26.4535 27.2051 27.1727L27.2163 27.2072C27.3389 27.5594 26.7428 29.1055 26.6272 29.5547C26.2083 31.1819 26.1299 32.4761 26.1303 34.1177L26.1433 36.6026C26.151 36.7532 26.1929 36.889 26.2057 37.0372L26.3194 38.4133ZM38.4096 36.4351L36.6602 36.4732C36.2525 36.4744 35.6378 36.4107 35.2471 36.5389L35.5121 37.4437C35.5877 37.7008 35.5237 37.8587 35.8178 37.8224L38.0553 37.6595C38.1916 37.6498 38.3544 37.6497 38.4851 37.6086C38.9345 37.4674 39.1531 36.811 38.8978 36.4259L38.4096 36.4351Z" fill="black"/>
</svg>
