<svg width="48" height="48" viewBox="0 0 48 48" fill="none" xmlns="http://www.w3.org/2000/svg">
<path d="M28.5255 43.8033L24.6605 44.1451C23.9735 44.1846 23.8365 44.2274 23.1226 44.1525L18.8239 43.7L15.742 43.2755C15.2476 43.1901 14.7498 43.1245 14.2616 43.0064C12.8931 42.6754 11.7099 41.4645 11.5591 40.0359C11.4926 39.4067 11.5906 38.744 11.664 38.1207L12.1854 33.2105C12.1953 33.1083 12.2211 32.9888 12.2059 32.8872L8.60144 32.5641C7.7988 32.4434 8.11404 31.2484 8.13959 30.7086L8.16766 28.9181C8.17821 28.6925 8.22921 28.4734 8.24182 28.2478L9.26604 13.502C9.29669 13.1134 9.25877 12.7012 9.33293 12.3193C9.82052 9.80784 11.1941 8.28693 13.4519 7.15968C14.6205 6.57623 14.7529 6.54018 15.7286 5.65077C16.7131 4.75345 17.7544 3.93657 19.1184 3.78192L27.8393 3.76562C29.4765 3.76607 29.9801 3.81595 31.385 4.91366L32.285 5.64796C32.8553 6.14723 33.3098 6.59751 34.0077 6.91124C36.214 7.90316 37.4181 8.91135 38.3438 11.0855C38.6178 11.7289 38.6768 12.5512 38.7317 13.2374L38.8226 14.8934L39.5373 24.3276L39.7174 27.1357C39.7397 27.5448 39.7058 27.983 39.7717 28.3857C39.9153 29.2618 39.8822 30.4626 39.9159 31.399C39.943 32.1524 39.9971 32.5178 39.1523 32.5856L35.8131 32.9025C35.8052 33.1415 35.855 33.3701 35.8766 33.6075L36.3321 37.8914C36.4034 38.4542 36.4761 39.0108 36.4762 39.5786C36.4764 41.0041 35.5928 42.2606 34.2932 42.8294C33.6156 43.126 32.837 43.2035 32.1128 43.3213L28.5255 43.8033ZM18.9778 5.21798C18.7973 5.22351 18.6256 5.23223 18.4511 5.2821C18.6723 5.54971 18.839 5.85309 19.0381 6.13616L19.9231 7.32374C20.448 8.00376 21.0367 8.60854 21.6255 9.23095L23.0969 10.7837C23.4088 11.101 23.6927 11.4674 24.0275 11.7575L26.4725 9.13063L27.2421 8.2927C27.3506 8.17977 27.4805 8.08724 27.5812 7.96701L29.5609 5.29391C29.4631 5.25712 29.3759 5.2342 29.271 5.22946L18.9778 5.21798ZM17.261 6.03468L15.9957 7.16404L16.2235 7.6858C16.2484 7.75734 16.2918 7.81991 16.3218 7.88952L16.7199 8.71063C17.003 9.27501 17.2701 9.87618 17.6211 10.4014L17.8738 10.1659L19.4013 8.8544C19.2685 8.65865 19.1126 8.48423 18.9679 8.29762L17.6413 6.46026C17.5474 6.31471 17.4429 6.12529 17.2962 6.02821L17.261 6.03468ZM30.7461 6.06163C30.3938 6.39627 30.136 6.80995 29.8531 7.20135L28.6444 8.8191C28.6466 8.87235 28.7586 8.96516 28.8014 9.0043L30.1361 10.1892L30.3455 10.3734L32.0946 7.27106C31.6603 6.83671 31.2233 6.44366 30.7461 6.06163ZM14.8366 7.92749C14.3656 8.22163 12.3514 9.25349 12.1289 9.6472C13.1082 10.6274 13.7045 11.3653 14.2107 12.7174L14.5665 13.8171C14.7104 14.2673 14.8099 14.8777 14.8231 15.352L14.8178 16.6788L14.1087 26.721L13.3759 34.7301L12.9785 38.3626C12.9168 38.9762 12.7619 39.5402 12.9376 40.148C13.3059 41.422 14.2666 41.6551 15.3881 41.8472L19.9349 42.4735C19.9896 42.4794 20.1686 42.4788 20.2085 42.5031L21.0929 42.5997C21.7262 42.6775 22.359 42.7773 22.9733 42.5524C23.7777 42.2579 24.3746 41.4054 24.4162 40.552L24.4197 19.0355C24.4073 18.3332 23.9174 18.1105 23.3663 17.7798L18.1752 14.6509C17.6947 14.3526 17.0851 14.0953 16.7203 13.6519C16.2866 13.1245 16.1707 12.2992 16.4317 11.6672L16.6002 11.3433L14.8366 7.92749ZM33.1959 8.00343L31.3411 11.2814C31.8979 12.2194 31.8715 13.2472 30.9789 13.9273C30.6049 14.2123 30.1879 14.4487 29.7948 14.7075L27.8929 15.9441C27.6938 16.0703 27.3969 16.3212 27.1681 16.3519C26.597 16.4284 26.2222 15.6048 26.6132 15.1964C26.7849 15.017 27.0736 14.8759 27.2846 14.7369L29.3599 13.3805C29.7279 13.1383 30.7476 12.6892 30.2694 12.1111L30.2464 12.0828C30.0275 11.8229 29.7022 11.5998 29.446 11.373L27.6803 9.76298L25.7978 11.7954C25.034 12.6448 24.1161 13.8449 22.9706 12.6302L20.3174 9.79982L18.5309 11.4118C18.2595 11.6536 17.8786 11.8813 17.6739 12.1753L17.658 12.1958C17.4467 12.489 17.7034 12.7746 17.9402 12.9234L24.1558 16.7031C24.9921 17.229 25.2111 17.3883 25.6654 18.2909C25.8339 18.6255 25.7508 19.195 25.7509 19.5568L25.7517 25.9097L25.7524 39.3152C25.7526 40.4696 25.846 41.3793 25.1682 42.3801C25.097 42.4854 24.9234 42.6556 24.8848 42.767C25.3609 42.7722 25.8139 42.7126 26.2851 42.6762L32.222 41.9332C33.4705 41.737 35.0252 41.3835 35.1583 39.8046C35.1904 39.4228 35.1232 39.0494 35.086 38.6714L34.3372 31.5698L33.4905 21.1674C33.4478 20.5516 33.4092 19.9362 33.3679 19.3204L33.2966 18.4772C33.2828 18.151 33.316 17.7468 33.2275 17.437C32.9787 16.5659 33.2361 14.4184 33.5391 13.4212C33.9242 12.154 34.7766 10.4845 35.8773 9.65835C35.4303 9.26418 33.7951 8.15198 33.1959 8.00343ZM36.6899 10.7103C35.469 11.7206 34.6457 13.7626 34.4959 15.2772C34.4149 16.0965 34.5319 16.6787 34.5648 17.437L35.2599 27.1753L35.5872 30.7043C35.6091 30.9877 35.5995 31.3002 35.6703 31.5747L36.3763 31.4925L38.5871 31.2756C38.5392 30.7568 38.5608 30.2388 38.5387 29.719L38.3495 26.1096L37.4489 14.1476C37.3661 13.0223 37.4233 11.7198 36.723 10.7573L36.6899 10.7103ZM11.2752 10.7155C10.6215 11.753 10.6242 12.9613 10.5446 14.1403L10.3759 16.5775L9.85048 23.3411L9.47276 30.0387C9.46062 30.4551 9.42316 30.8584 9.44416 31.2779L11.7366 31.4935L12.3671 31.5527L12.9804 23.8905C13.0417 23.4693 13.0305 23.0357 13.0592 22.6114L13.1613 21.2366C13.1724 21.11 13.1987 20.9871 13.2073 20.8608L13.4321 17.3402C13.5903 15.137 13.4252 13.3551 12.0266 11.5061C11.815 11.2262 11.5634 10.9192 11.2752 10.7155Z" fill="black"/>
</svg>
