<svg width="48" height="48" viewBox="0 0 48 48" fill="none" xmlns="http://www.w3.org/2000/svg">
<path d="M26.2659 29.9695L25.4874 25.8651C25.1324 24.1492 24.7844 22.4391 24.1537 20.8005C24.1063 20.6771 24.0412 20.566 24.0007 20.439L23.064 23.3675L21.6592 30.305L20.9084 35.0745L20.3534 39.4251L20.0192 43.9113C20.0189 44.1755 20.0666 44.5578 19.9805 44.804L19.9573 44.8672C19.7065 45.5355 17.8563 45.7685 17.2554 45.8557L16.0928 46.0031C15.491 46.0505 14.4936 46.0396 13.8919 46.0066L13.2107 45.9413C12.2561 45.8691 10.3247 45.7052 9.89264 44.6504C9.71447 44.2155 9.92095 42.5011 9.94425 41.8498L9.95475 39.7339C9.96201 39.4177 10.0162 39.1049 10.0251 38.7893L10.0382 36.293C10.0437 35.8851 10.1122 35.4815 10.1204 35.0745L10.2226 31.212L10.3043 27.68L10.3186 24.0025C10.3292 23.6418 10.3984 23.2835 10.4078 22.9227L10.4245 20.1573C10.4401 19.7114 10.5052 19.2646 10.5103 18.821L10.5198 13.4035C10.5203 13.0225 10.4524 12.3483 10.606 11.9928L10.7895 11.5551C10.9063 11.3142 10.8499 10.9668 10.8501 10.7065L10.8457 8.3113C10.8418 7.71219 10.857 7.77509 10.6988 7.23162C10.6283 6.98956 10.6629 6.66687 10.6624 6.41666L10.6614 4.89027C10.6618 4.50794 10.6221 4.08265 10.6721 3.70769C10.7853 2.85857 11.5831 2.29743 12.351 2.09014L34.3767 2.07751C34.9499 2.07753 35.5705 1.98712 36.1065 2.23613L36.1726 2.26781C36.6111 2.48074 37.063 2.92464 37.2142 3.3977L37.2514 3.51322C37.3419 3.7914 37.3121 4.142 37.3126 4.43288L37.3137 5.6427C37.3136 6.11262 37.3425 6.59914 37.3072 7.06625C37.2885 7.31337 37.1561 7.52197 37.1503 7.77659L37.1229 11.5619C37.3105 11.7822 37.32 12.026 37.4174 12.272L37.4503 12.3593C37.5097 12.5821 37.4779 12.89 37.478 13.1205L37.4851 20.3213C37.4876 20.5837 37.5548 20.8291 37.5626 21.0831L37.5749 23.7271C37.5869 24.147 37.6649 24.5629 37.674 24.983L37.6833 28.7398C37.6875 28.9657 37.7471 29.1819 37.7507 29.4046L37.7644 32.1832C37.7749 32.4283 37.8377 32.6608 37.8447 32.9072L37.8807 35.303C37.8878 35.5679 37.9338 35.8281 37.9377 36.0935L37.9771 39.012C37.9857 39.3248 38.0419 39.6345 38.0493 39.9484L38.0629 41.8862C38.0712 42.0826 38.1103 42.2743 38.1232 42.4692C38.153 42.9193 38.2105 44.5013 38.0692 44.7922L38.0306 44.8679C36.9588 46.4742 31.0833 46.0837 29.2713 45.5536C28.0112 45.185 28.0107 45.0842 28.0043 43.9488L27.6489 39.4456L26.9214 33.9816L26.2659 29.9695ZM21.6502 3.18597L17.062 3.19708C16.9984 3.79297 17.0376 4.42877 17.0374 5.02864C17.0372 5.61092 17.0037 6.21481 17.0438 6.79484L26.3964 6.79897L30.938 6.79831L30.9397 3.18719L21.6502 3.18597ZM12.9429 3.18745C12.7446 3.20795 12.5567 3.20511 12.3632 3.25892L12.3344 3.26658C12.1523 3.31755 12.0034 3.46978 11.8882 3.61192L11.8644 3.64039C11.6816 3.86579 11.7846 4.52149 11.7848 4.80823L11.7887 6.80337L14.8841 6.79897L15.9419 6.81191L15.9527 3.60225C15.9526 3.46976 15.9661 3.32225 15.9425 3.19184L12.9429 3.18745ZM32.0453 3.19449L32.0397 5.6593C32.0398 6.02553 31.9998 6.43995 32.0489 6.79808L36.2177 6.79625L36.2064 4.72311C36.206 3.79177 36.2953 3.19138 34.9877 3.18741L32.0453 3.19449ZM12.0491 7.95205L11.9396 7.96414C11.9095 8.15647 11.9221 8.36023 11.9221 8.55472L11.9243 10.4581C11.9253 10.6486 11.9106 10.8643 11.9525 11.0503C12.8303 10.8079 13.647 10.4826 14.343 9.87505C14.9811 9.29919 15.3704 8.75483 15.6808 7.96592L12.0491 7.95205ZM16.9072 7.95331L16.7677 8.36595C16.1683 10.0911 14.5454 11.454 12.8404 11.9897C12.6424 12.0519 11.7535 12.2034 11.671 12.3054C11.6144 13.1528 11.631 14.0018 11.6301 14.8508L11.6232 18.2464C11.6232 18.581 11.5534 18.9477 11.5444 19.297L11.498 22.9573C11.491 23.1513 11.4451 23.3402 11.4394 23.5363L11.4294 26.2881C11.4217 26.5412 11.371 26.7969 11.3629 27.0549L11.2222 33.3347L11.1251 36.8369C11.1231 37.094 11.0857 37.3375 11.0728 37.5912L11.0613 38.9678C11.0607 39.2396 11.0393 39.5256 11.06 39.7953L17.6324 39.7881L19.2123 39.7975L19.7775 35.2737L21.2657 26.3675C21.5936 24.6687 22.4466 20.5684 23.4211 19.1135C23.5637 18.9006 23.4658 17.5496 23.4658 17.217L23.4651 9.87453C23.4649 9.24355 23.4966 8.59358 23.458 7.96452L16.9072 7.95331ZM24.6408 7.95448L24.5703 13.8499C24.5672 14.5548 24.503 14.7873 25.1188 14.0277C25.5588 13.4101 25.6187 13.1653 25.6207 12.4434L25.6198 7.9633L24.6408 7.95448ZM27.2001 7.95205L26.7722 7.9692C26.707 8.38564 26.7406 8.84403 26.7392 9.26581L26.7373 11.7314C26.7375 12.1975 26.7776 12.7113 26.7123 13.1721C26.5515 14.3061 25.7751 15.2786 24.722 15.7092C24.6646 15.7327 24.6203 15.7672 24.5715 15.8044L24.5594 18.864C24.5541 18.9545 24.5182 19.0275 24.5725 19.1041C25.2876 20.1123 25.5382 21.5349 25.9103 22.689L26.0977 23.4404C26.1654 23.6541 26.1981 23.8877 26.2504 24.1057L26.9588 27.5631L27.6995 31.8105C27.7503 32.1622 27.7899 32.5245 27.8546 32.873L28.5631 37.7791C28.5925 38.004 28.7669 39.7401 28.8165 39.7939L34.3476 39.7881L36.9469 39.793L36.9322 37.3647C36.9257 37.1517 36.8786 36.9433 36.8738 36.7283L36.8601 34.8513L36.7418 31.6949C36.7353 31.4804 36.689 31.2715 36.6856 31.055L36.4883 24.0686L36.4757 21.1168C36.4661 20.7194 36.3918 20.3166 36.3815 19.9164L36.3671 12.7475C36.358 12.2892 36.2908 12.2397 35.8436 12.1367L35.3492 12.0168C33.4776 11.519 32.0284 10.2821 31.3095 8.46823C31.2809 8.39619 31.1681 7.96794 31.1398 7.96625L27.2001 7.95205ZM32.9069 7.95205L32.3638 7.96733C32.8796 9.56605 34.0067 10.4409 35.6073 10.9077L36.0298 10.9942C36.0461 10.8958 36.0313 10.7804 36.0292 10.6799L36.0247 7.96555L32.9069 7.95205ZM11.0188 40.9553C10.9353 41.565 10.875 43.6465 10.9599 44.3199C11.3583 44.4959 11.7828 44.6149 12.2099 44.6991C13.8871 45.0301 16.926 45.0281 18.6276 44.4563L18.8492 44.4035C18.8847 44.3909 18.8865 44.3889 18.9149 44.3738L18.9502 42.4818C18.9667 42.0922 19.0194 41.3211 19.0761 40.9583L11.0188 40.9553ZM28.9371 40.9564L29.1312 44.3529C30.7142 45.1283 35.1824 44.9825 36.6894 44.47L36.7444 44.4509L37.1021 44.3007L37.0752 44.0433C37.0269 43.7425 37.0497 43.4147 37.0491 43.1102L37.0463 41.5796C37.0459 41.4317 37.0822 41.0779 37.0208 40.9575L28.9371 40.9564Z" fill="black"/>
</svg>
