<svg width="48" height="48" viewBox="0 0 48 48" fill="none" xmlns="http://www.w3.org/2000/svg">
<path d="M25.5862 32.7404L24.0109 23.0626C23.8477 23.5177 23.7899 23.9954 23.6858 24.4655C23.2605 26.3844 22.9869 28.3153 22.7362 30.2626L22.4076 32.6716L21.1956 43.9856C21.067 45.1939 21.4372 45.7275 19.8709 45.7294L15.3994 45.7306C13.8499 45.7299 13.4457 46.0928 13.0966 44.389L11.5547 33.7028L11.0038 28.8646L10.7846 25.4174C10.7661 25.0662 10.7067 24.7156 10.6974 24.3635L10.6871 22.7024C10.6833 22.5325 10.6546 22.3648 10.6494 22.195L10.7249 16.9128C10.7351 16.7726 10.7677 16.6373 10.7757 16.4953L10.9599 14.11C11.1512 11.9876 11.337 10.3322 11.9021 8.28977C12.1522 7.3856 12.0967 7.41259 12.0965 6.469L12.0942 3.8919C12.0935 3.21081 11.8793 2.45151 12.7699 2.27832L35.3127 2.28415C35.7695 2.30321 35.9076 2.71821 35.9098 3.09248L35.9095 7.0983C35.9121 7.62944 35.9801 7.70575 36.0757 8.15594L36.3824 9.33925C36.5459 9.83594 36.5809 10.3962 36.6569 10.9098L37.2322 16.2696C37.3433 17.6044 37.3202 18.9205 37.3203 20.2601L37.2997 24.1714L37.0816 27.7565L36.4234 33.8931L34.9812 44.1171C34.738 45.8229 34.5558 45.7284 33.0945 45.7293L28.7824 45.729C27.026 45.7279 27.1144 45.9112 26.8764 44.0153L25.5862 32.7404ZM23.1492 3.67551L13.3851 3.69998L13.3758 5.73091C13.3759 6.06789 13.3392 6.45152 13.3879 6.78339L24.9665 6.77702L34.6161 6.7885L34.6117 3.67993L23.1492 3.67551ZM24.0925 8.16086L24.095 13.1962C24.0959 13.4747 24.0832 13.7658 24.1171 14.0422L24.9741 14.0623L24.9565 8.78734C24.9563 8.5818 24.9705 8.36528 24.9439 8.16147L24.0925 8.16086ZM13.1695 8.16836C12.6519 9.98917 12.3557 11.5553 12.2256 13.449C13.2012 13.4667 14.0797 13.184 14.8725 12.6198C16.0669 11.7198 16.6145 10.4603 16.6238 9.00391L16.6176 8.17966L13.1695 8.16836ZM31.389 8.17136L31.3794 9.08294C31.3868 10.9245 32.4059 12.4867 34.1378 13.1852C34.6661 13.3983 35.2286 13.4413 35.7907 13.4712L35.6599 12.2405C35.5355 11.1854 35.3663 10.1374 35.1226 9.10211L34.8624 8.17717L31.389 8.17136ZM17.8925 8.17811C17.8649 8.96847 17.8846 9.73656 17.6802 10.5027C17.1259 12.5801 15.4197 14.3016 13.2538 14.6233C13.0965 14.6467 12.0616 14.6897 12.0544 14.6946C12.054 14.6949 12.0416 14.82 12.0407 14.8306L11.9806 15.6192C11.9426 16.0069 11.8922 16.3909 11.8804 16.7809L11.8702 18.1979C11.8646 18.3797 11.8226 18.5578 11.817 18.7409L11.8163 22.5147L11.9182 25.277C11.9251 25.4469 11.9607 25.6142 11.9701 25.784L12.1568 28.5466C12.1982 29.0945 12.224 29.6549 12.3017 30.1989L12.8924 34.8161C12.9846 35.4512 13.0412 36.0926 13.1651 36.7234L13.881 42.0211L17.3378 42.0248L20.2369 42.0231C20.2946 41.9204 20.2734 41.6773 20.2838 41.5544L20.3768 40.5017L22.0613 26.6143L22.5545 24.0485L23.3334 20.8251C23.5076 19.9842 23.4646 19.0455 23.2759 18.2124C23.2255 17.9895 23.0216 17.7873 22.9984 17.5707C22.9731 17.3355 23.0222 17.0775 23.0276 16.8395L23.0266 8.61733C23.0247 8.48402 23.0368 8.30496 22.9987 8.17891L17.8925 8.17811ZM26.1812 8.1806C26.1448 8.44595 26.155 8.70606 26.1548 8.96191L26.15 15.2734C26.1382 16.599 25.6989 17.4286 24.4632 18.0408L24.4718 18.0651C24.7278 18.8222 24.5489 19.8812 24.6951 20.5892C24.753 20.8694 24.6838 21.1494 24.7888 21.432C24.8949 21.7173 24.9799 22.0553 25.0412 22.3525L25.6475 25.0076L26.6667 31.8687L27.7926 41.8143C27.8005 41.883 27.7894 41.9585 27.8252 42.0197L34.12 42.0378L34.1543 41.7598L35.1409 34.6405L35.811 28.7692L36.1223 24.377L36.1631 18.7731L36.1203 16.7341C36.1106 16.4236 36.0659 16.1155 36.0362 15.8069L35.9745 14.6873C35.6672 14.6782 35.3492 14.6896 35.0438 14.6599C32.2135 14.3845 30.3214 11.9827 30.1243 9.24897C30.0989 8.896 30.1136 8.53333 30.1137 8.17919L26.1812 8.1806ZM24.0954 15.5421C24.0873 15.988 24.0669 16.4363 24.1545 16.8764C24.3514 16.7759 24.4754 16.6509 24.6251 16.4921C24.8951 16.1932 24.8412 15.9057 24.9305 15.5441L24.0954 15.5421ZM17.3106 43.261L14.4737 43.2636C14.3572 43.264 14.216 43.2552 14.1047 43.2896C14.1371 43.5743 14.2194 44.1977 14.3057 44.4496L16.9511 44.4494L20.0117 44.4553L20.0693 43.6941C20.0803 43.5526 20.0765 43.3881 20.1124 43.2513L17.3106 43.261ZM28.9534 43.2598L27.983 43.2691C27.992 43.4825 28.0539 44.2351 28.1153 44.4437L32.9533 44.4494L33.7502 44.4489L33.8396 43.7102C33.8578 43.5675 33.864 43.4168 33.9056 43.2788C33.3793 43.2221 32.8078 43.2638 32.2756 43.2628L28.9534 43.2598Z" fill="black"/>
<path d="M24.169 5.82673C23.237 5.91729 23.0545 4.84034 23.8766 4.55057C24.0497 4.52628 24.229 4.53855 24.3743 4.64566L24.3984 4.66407C24.8927 5.03243 24.6955 5.64931 24.169 5.82673Z" fill="black"/>
</svg>
