<svg width="48" height="48" viewBox="0 0 48 48" fill="none" xmlns="http://www.w3.org/2000/svg">
<path d="M24.7566 33.9427L24.0791 27.4711C24.0489 27.1719 24.0024 26.9748 23.9638 26.7033C23.886 26.8655 23.9024 27.1286 23.8973 27.3068L23.5827 31.1101L22.926 36.6965C22.8831 37.0542 22.8568 37.3947 22.8399 37.7567L22.7999 38.3877C22.7623 39.5696 22.5244 40.447 21.5544 41.2647C21.2455 41.5252 21.281 41.3536 21.2803 41.7915L21.2774 42.9872C21.2738 43.9474 21.217 44.2917 20.1564 44.5314C18.5467 44.8951 16.9014 44.9567 15.2697 44.7316C14.3774 44.6084 14.3642 44.4263 14.3632 43.5501L14.3558 41.8882C14.3253 41.8574 14.3372 41.8625 14.3031 41.8488C13.236 41.4203 12.5379 40.3538 12.2815 39.2692C12.1762 38.824 12.2065 38.4008 12.2071 37.9448L12.3017 33.9162C12.3117 33.4982 12.3726 33.0842 12.3749 32.6659L12.3818 25.5347C12.3844 25.2474 12.4399 24.9657 12.4436 24.682L12.5015 20.0103L12.5838 17.9177L12.9685 14.3087C13.1042 13.3259 13.3107 12.3287 13.5795 11.3736L14.7332 7.94096C14.8264 7.68339 14.9235 7.7094 15.141 7.59896C15.5763 7.378 15.5883 6.22543 15.5871 5.82981L15.587 4.17975C15.5874 4.00221 15.5557 3.72119 15.6163 3.55836L15.6338 3.51531C15.7272 3.26654 15.8721 3.13544 16.1415 3.07491C16.7834 3.03155 17.4484 3.06515 18.093 3.06511L31.6291 3.06712C32.5149 3.08068 32.4153 3.82301 32.4153 4.45771L32.4148 5.71703C32.4144 7.86057 33.1472 7.43317 33.2726 7.98737L34.0326 10.2184C34.1292 10.4842 34.2357 10.765 34.2977 11.0406L34.7148 12.738C34.7966 13.0599 34.8373 13.401 34.8878 13.7297L35.0769 15.3631C35.0848 15.4446 35.1086 15.5207 35.1146 15.6054L35.3437 19.3178C35.3511 19.7975 35.416 20.2613 35.4253 20.7419L35.446 22.3502C35.4507 22.5026 35.4793 22.6523 35.4848 22.8044L35.5386 25.4931C35.5478 25.7454 35.5939 25.9936 35.5988 26.2468L35.7216 33.87C35.7282 34.1638 35.78 34.4511 35.7872 34.7453L35.789 37.8348C35.789 38.2608 35.8601 38.7512 35.7562 39.1667C35.4968 40.205 34.9821 41.1382 34.0292 41.6896C33.6658 41.8999 33.6274 41.7432 33.6276 42.163L33.6281 43.547C33.6279 43.7618 33.6703 44.1003 33.586 44.2932L33.5736 44.32C33.2624 45.0017 32.657 44.8862 32.0406 44.887L30.4491 44.8801C29.617 44.8401 27.5521 44.67 27.0637 44.2322C26.6896 43.8968 26.7392 43.4838 26.7385 43.0343L26.7315 41.5599L26.5001 41.3656C24.7686 39.8904 25.3015 38.3227 25.0547 36.4098L24.7566 33.9427ZM21.5098 4.33244L16.8374 4.33668L16.8538 5.61292C16.854 6.32851 16.8461 6.96212 16.5768 7.63806L26.4963 7.64434L31.4442 7.65582C31.2273 7.11385 31.1934 6.62087 31.1932 6.04684L31.1933 4.8385C31.1934 4.71803 31.2263 4.43844 31.1794 4.33658L21.5098 4.33244ZM16.5155 8.90861L15.7286 8.91611C15.6637 9.03639 15.6493 9.1456 15.6041 9.26978L15.3669 9.90784C14.6514 11.909 14.0992 14.0576 14.0106 16.1929C15.4838 16.3246 17.7251 15.9974 18.1849 14.3434C18.2839 13.9872 18.2599 13.6161 18.7267 13.5481C19.0802 13.4965 19.3316 13.679 19.4342 14.0036L19.4466 14.0365C19.5041 14.2109 19.4561 14.3746 19.4078 14.5427C19.0336 15.8458 18.0977 16.7921 16.777 17.1764L15.5678 17.4027C15.0733 17.4778 14.3701 17.475 13.8706 17.4222C13.8261 17.6958 13.8243 18.0144 13.8045 18.2958L13.7779 19.146C13.7738 19.2721 13.7509 19.396 13.7485 19.5227L13.7405 20.8741C13.7325 21.0752 13.6966 21.2719 13.6926 21.4743L13.6608 26.8892C13.6558 27.1575 13.5956 27.4189 13.593 27.6911L13.5854 33.6861C13.5818 34.1647 13.5068 34.6416 13.4901 35.1191L13.4781 38.5794C13.4807 39.7513 14.2339 40.6769 15.4001 40.9124L15.5238 40.9365C15.7537 40.9808 16.0235 40.9569 16.2578 40.9571L18.8193 40.9568C20.0372 40.9559 20.944 40.6127 21.4276 39.3508C21.5446 39.0452 21.5915 38.774 21.5941 38.4474L21.6046 37.4762C21.617 37.2266 21.6575 36.9632 21.6858 36.7139L22.7732 26.8547L23.3797 19.2339C23.4042 18.917 23.4051 18.5223 23.7541 18.3769C24.3708 18.12 24.5319 18.6688 24.5961 19.1079L25.6824 31.1424L26.3661 37.0795C26.4921 37.8068 26.3086 38.5677 26.5235 39.2801C26.902 40.5352 27.9846 40.9501 29.1601 40.9528L31.6126 40.9522C32.1362 40.951 32.649 40.9624 33.1413 40.7472C34.6184 40.1014 34.5824 38.8501 34.5778 37.5423L34.5629 35.8476C34.5528 35.6572 34.5108 35.4745 34.5069 35.2821L34.4974 32.2399C34.4916 32.0376 34.434 31.8445 34.4279 31.6393L34.4187 27.9707C34.4163 27.5314 34.3523 27.0966 34.343 26.6589L34.3251 23.965C34.3157 23.6602 34.2554 23.3669 34.2486 23.0606L34.2282 20.7653C34.2183 20.5863 34.1693 20.4137 34.1582 20.2397L34.0433 17.4845C31.4552 17.4765 29.234 17.2 28.558 14.3536C28.4276 13.8044 29.018 13.3581 29.4963 13.6537L29.5224 13.6696C30.1594 14.081 29.4034 16.2063 33.2589 16.2134C33.4822 16.2138 33.7146 16.226 33.9358 16.1979L33.7444 14.2614C33.6142 13.3146 33.4065 12.3918 33.1466 11.4724L32.7704 10.2971C32.7067 10.1237 32.3328 8.97671 32.2714 8.90579L24.6342 8.90607C24.6121 9.10145 24.6285 9.29865 24.6287 9.49487L24.6257 14.9165C24.6254 15.3683 24.5766 16.0091 23.8987 15.9109C23.7333 15.8869 23.633 15.7939 23.5352 15.6677L23.5096 15.635C23.3387 15.4119 23.4046 15.0556 23.4043 14.7898L23.3932 8.91423L16.5155 8.90861ZM28.0024 42.1131L28.0098 43.3041C28.8809 43.502 29.7989 43.605 30.6915 43.6085L32.4146 43.6125L32.4139 42.2048C32.0661 42.1639 31.6906 42.1884 31.3401 42.1878L29.2825 42.1869C28.874 42.1865 28.4472 42.2152 28.0477 42.1188C28.0142 42.1107 28.0282 42.1114 28.0024 42.1131ZM20.0074 42.1286C19.401 42.2424 18.7664 42.1922 18.1662 42.1907L15.5756 42.1869L15.5807 42.9779C15.5785 43.1638 15.5529 43.3553 15.5978 43.5364L15.6805 43.5674C16.2602 43.6358 17.7892 43.6656 18.3213 43.5555L20.0683 43.289C20.0862 42.9123 20.112 42.4954 20.0659 42.1224L20.0074 42.1286Z" fill="black"/>
</svg>
