<svg width="48" height="48" viewBox="0 0 48 48" fill="none" xmlns="http://www.w3.org/2000/svg">
<path d="M25.2731 35.1907C25.1888 34.8953 25.1698 34.5501 25.1176 34.2447L24.1796 28.4105C24.1261 28.0398 24.0488 27.6763 24.0219 27.3023C23.9776 27.4449 23.9321 27.5851 23.9104 27.7331L21.9799 39.0331C21.8563 39.6166 22.0694 41.1303 21.9534 41.3663L21.9411 41.3907C21.5636 42.2055 20.6022 41.9819 19.8779 41.9823L15.2006 41.9821C14.0642 41.9822 13.4043 42.0789 13.403 40.5873C13.4026 40.2379 13.3942 39.877 13.4421 39.5307L13.5278 38.7581C13.5724 38.4232 13.5801 38.4022 13.5233 38.0732L13.3493 37.1098C13.0734 35.4933 13.0506 34.3158 13.05 32.7071L13.133 27.8815C13.2011 27.0007 13.4737 26.1477 13.4916 25.3441L13.4963 16.0378C13.4974 14.6882 13.608 13.8885 14.1968 12.6238C14.582 11.7967 14.7973 11.2766 14.9341 10.3518C14.5917 10.1808 14.3316 9.91582 14.1721 9.56721C13.83 8.81899 13.9199 7.114 14.4655 6.48307C14.7735 6.12691 15.1754 5.92643 15.6419 5.8938C15.8241 5.85658 16.1167 5.95863 16.3009 5.98952L20.9309 6.52502C21.0809 6.53655 21.2279 6.56468 21.3787 6.57063L24.1965 6.57916C25.0035 6.5801 25.8263 6.61268 26.6314 6.56196L31.263 6.03274C31.8994 5.93491 32.4976 5.74985 33.0929 6.12035C33.6848 6.48878 33.997 7.05466 33.9996 7.73861L34.0004 8.59849C33.9986 9.40629 33.8317 9.91478 33.0826 10.3701C33.0653 10.632 33.3778 11.7206 33.4688 11.965C33.6779 12.5265 34.0847 13.0435 34.2055 13.6326L34.2993 13.9835C34.4724 14.9281 34.5027 15.2817 34.5032 16.246L34.5042 23.3473C34.5041 24.22 34.4287 25.907 34.704 26.7336C34.8433 27.1518 34.8455 27.5737 34.8808 28.0079L34.9408 31.948C34.9403 33.7044 35.0355 35.5006 34.6624 37.2306L34.5278 37.8673C34.3393 38.6249 34.5142 38.9946 34.5673 39.7384L34.5968 40.6685C34.5977 40.837 34.6319 41.0943 34.5623 41.2466L34.5491 41.2735C34.1782 42.1096 33.5993 41.9814 32.8358 41.9819L28.0634 41.9823C26.7996 41.982 25.8941 42.2306 26.0205 40.4917C26.1256 39.0438 25.9859 38.8672 25.6792 37.4897L25.2731 35.1907ZM15.6525 7.30089C15.3106 7.42628 15.3794 7.72361 15.3868 8.01269C15.3962 8.37953 15.3862 8.73199 15.4404 9.09668L16.7528 9.37024C16.8454 9.37671 16.9 9.38102 16.9528 9.39302L16.9605 8.00735C16.9604 7.85074 16.9883 7.62747 16.9454 7.48277L15.6525 7.30089ZM32.2872 7.29907L31.0276 7.48446L31.0109 9.43155L31.3548 9.37802C31.721 9.29725 32.2242 9.2846 32.5447 9.09293C32.5958 8.79532 32.786 7.33277 32.3212 7.2963L32.2872 7.29907ZM29.619 7.69933L26.7092 7.96118C27.0037 8.34944 27.2308 8.73738 27.3978 9.196L27.4088 9.21644C27.4654 9.41861 27.489 9.68711 27.5673 9.87485L29.3438 9.71172C29.4368 9.70122 29.5388 9.70333 29.6273 9.67314L29.6362 8.37114C29.6357 8.15327 29.6533 7.91983 29.6251 7.70421L29.619 7.69933ZM18.3535 7.70468L18.3542 9.6813L21.4226 9.81335L21.44 7.90483L18.3535 7.70468ZM22.8565 7.98157L22.8551 9.793C23.2394 9.78836 23.8522 9.68411 24.1522 9.97872C24.4844 10.305 24.3638 11.1178 23.866 11.2155C23.3538 11.3161 21.2459 11.2433 20.7247 11.2036L19.8868 11.1489C19.3104 11.1307 18.7365 11.0801 18.1642 11.0073L17.2349 10.8652C16.9295 10.8278 16.5692 10.8108 16.2799 10.7C16.194 11.0918 16.149 11.4726 16.0301 11.8595C15.7109 12.8985 14.8927 13.9789 14.8717 15.0842L14.8725 23.8173C14.8736 23.9875 14.8375 24.2138 14.8689 24.3762L18.0193 24.3776C18.3685 24.3783 18.5735 24.4038 18.7544 24.7501L18.7768 24.7875C18.9468 25.0861 18.7208 26.0024 18.624 26.3151L18.5554 26.5133C18.0075 28.3612 16.4005 29.2614 14.5415 28.9372C14.3424 28.9025 14.4316 29.3503 14.4311 29.5142L14.4371 34.6601C14.4579 35.1552 14.5326 35.6555 14.5924 36.1462L14.7666 37.2306C14.7824 37.3162 14.7723 37.416 14.8098 37.4954L14.8243 37.5193C15.3435 37.5493 15.8794 37.5203 16.4006 37.5201L20.4631 37.5276C20.5577 37.5298 20.7656 37.5609 20.8434 37.5135C21.0476 37.105 21.0668 36.6406 21.1451 36.1993L22.7725 26.1095C22.7961 25.9517 22.7991 25.7905 22.8173 25.632L23.247 21.3751C23.2618 21.1896 23.2584 21.0002 23.3199 20.8217C23.3742 20.6643 23.4012 19.7451 23.4228 19.4358L23.5141 18.0676C23.5283 17.8938 23.5221 17.6749 23.582 17.5106C23.8581 16.7527 24.6823 16.9643 24.8621 17.6603L24.8772 17.7057C24.9663 17.986 24.8825 18.317 24.8878 18.6061C25.333 18.5112 25.8995 17.9826 25.9795 17.5079C26.0052 17.356 25.9928 17.1876 25.993 17.0332L26.0604 12.8591C26.1191 11.9818 26.301 10.754 26.1478 9.94605C25.8463 8.35516 24.3108 7.91913 22.8565 7.98157ZM31.6818 10.7446L27.5479 11.2294L27.4641 13.4466C27.4548 13.6998 27.4167 13.9464 27.4136 14.2016L27.402 16.1758C27.3995 16.7545 27.4478 17.3717 27.2995 17.9355C26.9859 19.1279 25.943 19.9976 24.7053 20.0218C24.7833 20.8098 24.695 21.5918 24.7983 22.3829L25.7358 29.4142C25.7633 29.5578 25.768 29.7061 25.7931 29.8503L26.9548 36.9063C26.9702 37.0297 27.0055 37.1498 27.0497 37.2657L27.063 37.3018C27.0927 37.381 27.1304 37.4908 27.2134 37.5279C27.2485 37.5435 30.4118 37.5202 30.7618 37.5204L33.2224 37.5225C33.4108 36.6136 33.5326 35.6475 33.5704 34.7228L33.5515 28.9218C33.436 28.9102 33.2383 28.9713 33.1181 28.9893C31.25 29.2688 29.773 27.867 29.3055 26.1396L29.2397 25.8502C29.0509 25.0702 29.0923 24.3764 30.0846 24.3758L33.1527 24.3845L33.1446 16.206C33.1425 14.7143 33.0231 14.2705 32.4138 12.9911C31.9993 12.1208 31.9036 11.6373 31.7462 10.7426L31.6818 10.7446ZM14.9327 25.7866L14.8595 25.8033C14.8368 25.8453 14.5733 27.3276 14.5577 27.443C15.268 27.732 15.853 27.6673 16.4903 27.2141C16.9729 26.7607 17.1108 26.3628 17.3378 25.7868L14.9327 25.7866ZM31.001 25.7867L30.6869 25.8129C30.9954 27.0202 31.8143 27.7638 33.0654 27.5643L33.432 27.411L33.1614 25.9294C33.1564 25.884 33.1603 25.8154 33.1314 25.7816L31.001 25.7867ZM14.9155 38.9818C14.8353 39.3683 14.7658 40.1435 14.7628 40.5182L20.5309 40.5171L20.6134 40.5014L20.5739 38.9813L14.9155 38.9818ZM27.447 38.9801L27.4012 40.5208L33.2509 40.5157L33.1092 38.9808L27.447 38.9801Z" fill="black"/>
</svg>
