<svg width="48" height="48" viewBox="0 0 48 48" fill="none" xmlns="http://www.w3.org/2000/svg">
<path d="M25.204 31.6926L23.7866 23.8284C23.7311 23.9407 23.7272 24.1511 23.7114 24.2802L22.4197 32.4089L21.91 36.5617L21.4823 39.3767C21.2788 40.6517 19.8795 40.983 18.792 40.976L16.8733 40.9683C16.2686 40.9643 15.6734 40.8726 15.0692 40.8333C13.8329 40.7528 11.4736 40.4914 11.4775 38.8003C11.4779 38.6575 11.5226 38.5196 11.5408 38.3785L11.7429 35.2462C11.7543 35.0367 11.7974 34.8367 11.8062 34.6285L11.9879 31.995L12.2873 27.025L12.413 24.3087C12.4221 24.1796 12.4495 24.0549 12.4572 23.924L12.5035 22.7409C12.5138 22.5817 12.5488 22.4265 12.5593 22.2661L12.5868 20.8062C12.6003 20.4317 12.6607 20.062 12.6678 19.687C12.6766 19.2273 12.643 18.749 12.6905 18.2925L13.0948 15.4709L13.8462 12.1753C13.9378 11.7401 14.0059 11.157 14.0761 10.6913L14.3213 8.66106C14.3764 8.07686 14.2494 7.23484 14.9524 7.01402L32.9298 7.00586C33.7313 7.03853 33.5867 7.79477 33.6425 8.35666L34.0825 11.8625C34.099 11.9721 34.1053 12.091 34.1392 12.1961L34.2073 12.4771C34.3211 13.1882 34.5148 13.9144 34.6876 14.6128C35.1593 16.5191 35.1827 18.5113 35.3111 20.4605L35.4527 23.0369C35.4611 23.1167 35.4858 23.1923 35.49 23.273L35.5375 24.6812C35.5457 24.8099 35.5752 24.9322 35.5837 25.0625L36.0054 31.8504L36.3283 36.5035C36.394 37.1661 36.4131 37.7973 36.4581 38.4515C36.4912 38.9329 36.5885 39.1546 36.275 39.6284C35.5846 40.6717 33.9188 40.7559 32.7944 40.8489C32.2835 40.8911 31.7777 40.9621 31.2655 40.9673L29.2229 40.9753C28.3131 40.9772 27.0027 40.7975 26.6603 39.7758C26.5449 39.4315 26.5449 39.0363 26.5019 38.6776L26.3374 37.6463C26.276 37.3182 26.1627 36.9982 26.0991 36.6675L25.204 31.6926ZM28.0254 8.34016L16.746 8.34048C16.3954 8.34067 15.9823 8.29891 15.6377 8.35117L15.342 10.9838L20.0631 10.9773L32.6547 10.9706L32.3541 8.34452L28.0254 8.34016ZM15.1393 12.2974L15.0353 12.8569C14.7553 14.1097 14.1048 16.3164 14.1089 17.5633C14.6208 17.3829 15.1292 16.9696 15.5082 16.5898C16.6154 15.465 17.3523 13.8636 17.5172 12.2933L15.1393 12.2974ZM18.8331 12.3027C18.3477 15.4083 17.0292 17.998 13.9527 19.0259L13.9442 20.4253C13.9378 20.6825 13.8997 20.9431 13.8858 21.201L13.7626 23.2971C13.7064 23.9818 13.6946 24.7591 13.6594 25.4527L13.5641 26.8238C13.5435 27.5154 13.5185 28.2067 13.4678 28.8975L13.2287 32.4601C13.1841 32.99 13.1292 33.5868 13.114 34.1166C13.0913 34.9083 13.0347 35.6909 12.9829 36.4811C12.9732 36.6299 12.9328 36.7731 12.939 36.9228C13.204 37.0583 13.5254 37.1101 13.8165 37.1613L16.1794 37.4432C16.3565 37.462 16.5335 37.4949 16.711 37.5065L17.7576 37.5314C18.4598 37.5444 20.5346 37.5011 20.6134 36.5176L21.1282 32.191L22.3807 24.4817C22.4924 23.8764 22.9756 20.8452 23.5369 20.5758C24.1589 20.2774 24.4893 20.9836 24.5722 21.48L24.8784 22.7828C24.9146 22.8968 24.9228 23.0124 24.9493 23.1274L26.0614 29.221L26.6732 32.5777C26.6989 32.7005 26.6995 32.8291 26.7261 32.9514L27.048 34.6402C27.0747 34.765 27.0792 34.8948 27.1056 35.0197L27.3333 36.257C27.3777 36.5174 27.3534 36.8481 27.5808 37.012C28.3332 37.5541 29.1862 37.5452 30.0688 37.5298L31.9459 37.4266C32.3903 37.3893 32.8501 37.3559 33.2891 37.279L34.7277 37.0649C34.8391 37.0428 34.9512 37.033 35.0601 36.9995L34.2503 24.6188C34.2024 23.8078 34.175 22.9795 34.1275 22.1705L33.9414 19.2253C33.9374 19.1458 33.9453 19.0433 33.9154 18.9711C31.7587 18.4068 30.2113 16.1041 29.6698 14.0335L29.3793 12.5539C29.3699 12.4822 29.3717 12.3614 29.3363 12.3017L26.4232 12.3026C26.6419 13.4281 26.8943 14.4145 26.5297 15.562C26.1888 16.6348 25.3039 17.287 24.2418 17.5401C23.9558 17.6082 22.546 17.6335 22.3291 17.5179L22.2997 17.504C21.9516 17.3368 21.932 17.0351 21.9311 16.7018L21.9179 12.3015L18.8331 12.3027ZM30.6599 12.3029C30.7176 14.1935 31.9904 16.66 33.7136 17.4824L33.8227 17.5324L33.7436 16.6158C33.6014 15.5254 33.3441 14.4506 33.0938 13.381L32.8605 12.3176C32.7546 12.2621 30.932 12.3 30.6599 12.3029ZM24.627 12.3385L23.2281 12.3504C23.1964 12.7535 23.204 13.1635 23.2035 13.5678L23.203 15.9705C23.203 16.0592 23.1878 16.1835 23.2165 16.2661L24.0291 16.213C24.5739 16.124 25.0745 15.7983 25.2654 15.2691L25.2794 15.2308C25.5577 14.4516 25.3809 13.1352 25.0823 12.3406L24.627 12.3385ZM12.8244 38.3031L12.8224 38.9105C13.5043 39.5215 15.4536 39.5273 16.3619 39.5786L18.2616 39.6557C18.7001 39.6562 19.9095 39.7262 20.1502 39.3129L20.191 39.2045C20.2556 38.9659 20.2774 38.7301 20.3049 38.4852C19.5196 38.864 18.7747 38.8842 17.9297 38.8839L14.9455 38.6858L12.8244 38.3031ZM35.1536 38.3081L32.9564 38.6934C31.689 38.8697 29.4773 38.974 28.3027 38.7475C28.1626 38.7205 27.998 38.6592 27.8575 38.6605C27.8433 38.9066 27.8844 39.1992 27.9304 39.4424C28.442 39.7415 29.1595 39.6565 29.7274 39.6549L32.4866 39.5058C33.13 39.4525 34.8086 39.461 35.2108 38.8393L35.1536 38.3081Z" fill="black"/>
</svg>
