<svg width="48" height="48" viewBox="0 0 48 48" fill="none" xmlns="http://www.w3.org/2000/svg">
<path d="M25.4952 27.7856L24.3661 21.2223C24.0961 20.9373 23.6725 20.9592 23.6031 21.3799L19.6421 43.1371C19.3715 44.1858 17.852 44.5424 16.9488 44.7309C15.7173 44.9879 14.3192 45.03 13.1021 44.6548C12.6502 44.5155 12.2224 44.3088 11.7791 44.1457L10.4292 43.6374C9.63547 43.3467 9.15022 43.3649 9.27106 42.3364L10.6281 33.0904L12.939 16.5078L13.1488 13.3363L13.5581 10.6365C13.8234 9.29702 14.2726 8.03431 13.8749 6.65665C13.7536 6.23646 13.5865 5.85851 13.5427 5.41568C13.4146 4.11983 14.4625 3.25936 15.6708 3.15091C16.023 3.12802 16.3937 3.15047 16.7478 3.15061L31.793 3.15161C32.9756 3.15377 33.8394 3.33489 34.3136 4.55899C34.4949 5.02727 34.4519 5.61256 34.3296 6.08904L34.0665 6.97127C33.8225 7.6766 34.1603 9.4647 34.3405 10.1488C34.4243 10.4668 34.4417 10.8088 34.5078 11.1311C34.7343 12.2357 34.8469 13.3841 34.9191 14.5101L35.3965 19.0751L37.8643 36.71C37.8771 36.8433 37.9121 36.9708 37.9317 37.1029L38.714 42.2764C38.8556 43.1762 38.6688 43.2663 37.7287 43.5861L35.3116 44.4155C33.6973 44.9713 30.8701 44.94 29.3351 44.1821C28.9647 43.9992 28.5446 43.6937 28.4104 43.2836L28.3987 43.2465C28.2568 42.8038 28.2064 42.3029 28.1152 41.8444L25.4952 27.7856ZM15.8998 4.60133C14.6312 4.6669 14.9656 5.31706 15.2362 6.18068C15.3614 6.58015 15.4156 6.96241 15.4513 7.3781L32.1571 7.36207L32.5834 7.36774C32.6164 7.05916 32.6394 6.76554 32.7156 6.4632C32.8449 5.95001 33.4707 4.70951 32.4095 4.60786L15.8998 4.60133ZM18.3556 8.79898L15.4207 8.81163C15.3614 9.00073 15.0878 10.1839 15.092 10.3606C15.4726 10.3984 15.8745 10.3641 16.2581 10.3624L18.5038 10.3601L21.7715 10.369L21.7715 9.31015C21.7714 9.14843 21.7919 8.96149 21.7589 8.80512L18.3556 8.79898ZM26.722 8.79898C26.6139 8.80188 26.313 8.77741 26.2329 8.82752L26.2318 10.377L32.4265 10.3601L32.9264 10.3603L32.6619 9.10606C32.6426 9.00991 32.6502 8.90187 32.6087 8.81393L26.722 8.79898ZM23.2372 8.80695L23.229 14.4184C23.2291 14.6963 23.2101 14.9905 23.232 15.2664C23.2771 15.8368 23.951 16.799 24.4458 16.0012C24.8291 15.3856 24.7701 14.7044 24.7704 14.015L24.77 9.92116C24.7698 9.55676 24.7947 9.17257 24.7612 8.81023L23.2372 8.80695ZM14.9745 11.7952L14.836 11.8136C14.7705 11.9265 14.7569 12.1412 14.7354 12.2699L14.5842 13.4224C14.5653 13.5839 14.5335 13.741 14.5224 13.904L14.4976 14.7639C14.4455 15.5973 14.2447 15.8658 15.141 15.0456C16.032 14.067 16.1514 13.0453 16.1487 11.8064L14.9745 11.7952ZM17.7633 11.7952L17.6301 11.8183C17.6112 12.0786 17.6181 12.3381 17.5899 12.5989C17.3986 14.3666 16.5731 16.3556 14.7922 17.053C14.707 17.0864 14.3054 17.1784 14.2787 17.2139C14.2312 17.2769 13.8007 20.7441 13.7472 21.1137L11.7241 35.3717L10.9732 40.5437C10.9008 41.0776 10.8628 41.6543 10.7287 42.1757C10.983 42.334 13.5184 43.2582 13.7696 43.312C14.7402 43.5197 16.1392 43.4561 17.0791 43.1788C17.4867 43.0586 17.8713 42.8874 18.2714 42.7479L21.9332 22.8988L22.1159 21.7504C22.16 21.4605 22.1863 21.1593 22.2724 20.8774C22.8493 18.9883 25.4599 19.1975 25.7971 21.1736L27.0856 28.6318L29.6735 42.4223C29.7557 42.795 29.7104 42.7493 30.0874 42.8907C31.589 43.4539 33.4565 43.4438 34.9678 42.9641C35.4193 42.8208 35.8527 42.6227 36.3064 42.4859L36.9528 42.3001C37.0534 42.2726 37.1782 42.2613 37.2704 42.2148L33.6753 17.1896C32.8079 17.0426 31.9201 16.2779 31.4156 15.5623C30.6316 14.4501 30.404 13.1324 30.3938 11.7992L26.2289 11.8075L26.2281 13.4663C26.2272 14.6688 26.2579 16.2255 25.3359 17.1438C24.6195 17.8572 23.3634 17.9099 22.645 17.1766C21.4985 16.0062 21.7723 14.2086 21.7716 12.7158C21.7715 12.4234 21.8049 12.0866 21.7612 11.799L17.7633 11.7952ZM31.9811 11.7952L31.8617 11.8136C31.6715 13.2235 32.2866 14.7056 33.4571 15.5237L33.5272 15.5512C33.5588 15.2951 33.4816 13.9281 33.4538 13.6801C33.3839 13.0578 33.2419 12.4304 33.1989 11.8078L31.9811 11.7952Z" fill="black"/>
</svg>
