<svg width="48" height="48" viewBox="0 0 48 48" fill="none" xmlns="http://www.w3.org/2000/svg">
<path d="M24.932 27.5806L23.9602 18.8317C23.8743 19.1719 23.8566 19.5496 23.8075 19.8987L22.9708 26.4963L22.5504 32.5667C22.5422 32.6913 22.5146 32.8137 22.5059 32.9378L22.3784 34.8049C22.3668 34.9938 22.3287 35.1768 22.3106 35.364L21.9458 38.5226C21.7038 40.335 21.4287 42.1474 20.9841 43.9228C20.792 44.6898 20.6856 45.5403 20.0429 46.0832C19.6707 46.3975 19.2865 46.3106 18.8343 46.3104L15.4495 46.3072C14.3386 46.3046 14.1167 46.2492 13.7747 44.9889L13.5438 44.1543C13.4196 43.6987 13.2598 43.2407 13.1602 42.7803L12.6915 39.837L12.3709 35.4279L12.3074 33.3346L12.3113 27.2406C12.317 27.0495 12.3546 26.8611 12.3611 26.6721L12.3997 24.2072C12.4061 23.3911 12.4869 22.6442 12.4899 21.8494L12.4885 15.5613C12.469 14.6268 12.347 13.8446 12.4056 12.8644L12.6814 9.26275C12.7533 7.83114 12.8419 6.30958 13.3269 4.94608C13.564 4.2795 13.8255 3.63241 13.8665 2.91586C13.8804 2.67249 13.7717 2.38207 13.851 2.15142L13.8874 2.05182C13.9814 1.82361 14.1527 1.70907 14.3704 1.62196L33.1048 1.62012C33.4469 1.63409 33.6659 1.92665 33.7364 2.24125L34.0135 3.2815C34.0806 3.62939 34.2162 3.95408 34.2938 4.30103L34.5082 5.0966C34.6009 5.3568 34.6346 5.66261 34.6818 5.93472L34.8288 6.66822C34.941 7.23372 34.9864 7.80963 35.0677 8.37916C35.2026 9.32439 35.275 10.2856 35.3199 11.2385L35.362 14.4001C35.315 15.3518 35.1463 16.2948 35.1485 17.2469L35.1586 18.5156C35.1732 19.053 35.2069 19.837 35.2551 20.3557L35.4727 22.2296C35.5144 22.5777 35.5216 22.927 35.5424 23.2763L35.6339 24.9981C35.641 25.159 35.6715 25.3169 35.6781 25.4768L35.6925 26.4591C35.6997 26.5893 35.7282 26.7171 35.7326 26.8479L35.7291 33.302C35.7231 33.4325 35.6995 33.5614 35.6914 33.6917L35.6249 35.321C35.6064 35.95 35.5771 36.9981 35.4743 37.5837C35.388 38.0748 35.3685 38.5968 35.3207 39.094L35.1129 40.9629C35.0359 41.591 34.8747 42.4865 34.7344 43.0901L34.1722 45.2815C34.039 45.7066 33.7741 46.0975 33.3579 46.2885C33.2491 46.3385 28.6205 46.3891 28.2999 46.255L28.2657 46.2399C27.4663 45.9051 27.2791 45.0266 27.1269 44.2523L26.2892 39.6625L25.4067 31.2073L24.932 27.5806ZM15.072 2.79163L14.6891 4.60697L32.8184 4.61015L33.2112 4.60908L32.8312 3.14522C32.8041 3.03044 32.8167 2.88568 32.7437 2.78967L15.072 2.79163ZM14.2965 5.75533C14.1126 6.35927 14.0173 6.98416 13.9276 7.61796L13.5941 10.9221L13.5595 12.1226C13.5485 12.4113 13.4974 12.6938 13.4826 12.9824L13.4794 14.3526C13.4857 14.8288 13.5774 15.3843 13.5883 15.923C13.9 15.7596 14.1828 15.5167 14.421 15.2581C15.7387 13.8276 16.0259 11.2967 15.9345 9.38205L15.5771 5.75444L14.2965 5.75533ZM32.2841 5.76368C32.2264 6.10905 32.2311 6.48283 32.198 6.84635L32.0392 8.79335L32.034 10.5695C32.0336 11.5482 32.0376 12.6179 32.3912 13.5471L32.4655 13.7579C32.8017 14.5847 33.3258 15.3607 34.043 15.9032L34.0953 15.8792C34.3618 13.9826 34.3247 12.7957 34.1498 10.9104L33.6875 6.89088C33.6231 6.51428 33.5705 6.12518 33.4779 5.75449L32.2841 5.76368ZM16.7297 5.76536L16.9798 8.36233C16.9952 8.56033 17.0293 8.75646 17.0379 8.95507L17.0425 9.99953C17.042 12.6363 16.5703 15.7961 13.9457 17.1147C13.8248 17.1755 13.6808 17.1935 13.5715 17.2698L13.5677 22.9104C13.5625 23.1631 13.5263 23.4172 13.5103 23.6697L13.471 26.5845C13.4621 26.7908 13.4128 26.9902 13.4091 27.1995L13.4083 33.0319L13.5092 35.9977C13.525 36.348 13.5543 36.7525 13.5764 37.1077L13.651 37.8039C13.6801 38.2067 13.6408 38.6472 13.7362 39.0416L13.7532 39.1139L20.7587 39.1377L21.2771 34.3697L21.4058 32.1267L21.9597 25.0657L22.4018 22.1239C22.603 20.5717 22.7907 19.015 23.1266 17.4846C23.2008 17.1466 23.25 16.7863 23.3676 16.461C23.5382 15.9888 24.2493 15.8148 24.5274 16.2778L24.5924 16.4047C24.6438 16.5028 24.6507 16.6179 24.6793 16.7229L24.985 18.0588C25.0149 18.2212 25.0319 18.3824 25.0697 18.5443L25.5101 21.6967C25.571 21.9358 25.5771 22.1841 25.5997 22.4289L26.1674 29.262L26.6745 33.1668L27.2447 38.5557C27.2613 38.7175 27.2526 38.9718 27.3118 39.1145L34.2148 39.1152C34.2574 38.8593 34.2861 38.563 34.3061 38.3034L34.5264 34.4534C34.5323 34.2841 34.5683 34.1298 34.5844 33.9648L34.6148 26.1213L34.4079 22.2146L34.1526 18.5796C34.0194 16.5646 34.2649 17.6613 32.8497 16.3936C31.0847 14.8124 30.8622 12.4525 30.863 10.2486C30.8631 9.89988 30.85 9.54438 30.8704 9.19642L31.0599 6.49132C31.0722 6.25066 31.102 6.00503 31.1033 5.7648L16.7297 5.76536ZM13.8716 40.2929C13.872 40.4863 13.9065 40.6436 13.9267 40.8241L14.0216 41.6102C14.0454 41.7737 14.0458 41.955 14.0964 42.1116L20.26 42.1358L20.3029 41.8619L20.4473 41.0193C20.4783 40.79 20.4889 40.5095 20.5587 40.292L13.8716 40.2929ZM27.5072 40.2915L27.7555 42.1111L33.8087 42.1141C33.8228 42.0641 33.8332 42.0206 33.8357 41.9687L34.0289 40.2898L27.5072 40.2915ZM33.2821 43.2764L28.4434 43.2899C28.3227 43.2899 28.1555 43.2697 28.0416 43.2984L28.1732 43.9453C28.2491 44.3003 28.3319 44.7696 28.4649 45.0918L33.0807 45.1582L33.5452 43.2841C33.4908 43.2536 33.3488 43.2752 33.2821 43.2764ZM14.5083 43.2941C14.5337 43.4863 14.5905 43.677 14.639 43.8581L14.9289 45.1506L19.4558 45.1709C19.5132 45.0505 19.548 44.9237 19.5944 44.799L19.8842 43.8501C19.9294 43.6778 19.9514 43.444 20.0299 43.2893L14.5083 43.2941Z" fill="black"/>
</svg>
