<svg width="48" height="48" viewBox="0 0 48 48" fill="none" xmlns="http://www.w3.org/2000/svg">
<path d="M25.1014 34.5051L24.0236 25.0231C23.8701 25.3566 23.8883 25.7922 23.8541 26.1561L22.7341 36.3022L21.9416 42.564C21.8104 43.7721 21.7255 43.7231 20.4765 43.7244L16.4644 43.7249C15.0803 43.7278 14.8654 44.0163 14.7146 42.4392L14.4382 38.5685C14.4168 38.0334 14.368 37.5034 14.344 36.9531L14.2574 36.008C14.2067 35.2147 14.2498 34.464 14.3396 33.6795L14.6213 31.3299C14.6537 30.8622 14.7209 30.4061 14.7253 29.9369L14.7276 28.9292C14.7267 28.0824 14.6974 27.3541 14.6298 26.5154L14.4388 25.0545C14.2819 24.1872 14.0262 23.3509 13.8127 22.4976L12.926 18.2458C12.8333 17.6879 12.7353 17.1218 12.6845 16.5584C12.4884 14.3856 12.6348 12.2675 13.056 10.1248L14.1753 5.44592C14.334 4.91023 14.3767 4.45292 14.9655 4.24398C15.8026 4.22769 17.8996 4.50766 18.6936 4.71406L19.9274 5.09815C21.0546 5.4289 22.325 5.45506 23.4909 5.40533C23.6995 5.39647 23.9088 5.34861 24.1152 5.34575L26.7226 5.34144C27.668 5.29737 28.5291 4.93798 29.4409 4.73754C29.7735 4.66446 30.124 4.63405 30.4614 4.58798L32.7027 4.31374C33.2167 4.26446 33.9677 4.05231 34.2324 4.65447L34.2447 4.68631C34.3672 4.97619 34.308 5.43884 34.3077 5.75764L34.3059 7.20331C34.3056 7.73937 34.3005 7.51517 34.4964 7.95715L34.6038 8.20161C34.8911 8.79528 35.0436 9.63969 35.1675 10.2965L35.3549 11.6508C35.4114 12.2102 35.4328 12.7456 35.4338 13.311L35.3451 15.4452C35.2924 16.1285 35.2252 16.8199 35.1086 17.4959L34.172 21.6561L33.3814 24.93C33.3104 25.4852 33.2741 26.023 33.2737 26.5834L33.2754 28.8954C33.2772 29.2735 33.3319 29.6489 33.3615 30.0274L33.8571 33.6057C33.8715 33.7254 33.9014 33.8387 33.9092 33.9608L33.9453 35.7988C33.9451 36.5561 33.9073 37.0236 33.8398 37.7609L33.285 42.2108C33.2595 42.384 33.2583 42.5616 33.2257 42.7337L33.15 43.2034C32.9818 43.9245 32.0811 43.725 31.5285 43.7247L27.7085 43.7253C27.4196 43.7252 27.0416 43.7693 26.7659 43.6994L26.7417 43.6929C26.2185 43.5656 26.2131 43.059 26.1467 42.6112L25.1014 34.5051ZM15.4176 5.54379L15.0581 7.04778C14.9403 7.5732 14.8993 7.44223 15.4515 7.51747L16.6016 7.64961C17.0244 7.69212 17.731 7.71495 18.0816 7.78114L19.3941 8.06094C20.5948 8.28561 21.8439 8.39431 23.0663 8.35193L23.4667 8.366L23.4601 7.13867C23.4609 7.02233 23.4939 6.7872 23.4522 6.68487C22.6278 6.58681 21.7842 6.71529 20.9589 6.60959C20.3598 6.53281 19.791 6.41365 19.2134 6.23422C18.8545 6.1227 18.4897 5.96464 18.1219 5.89175C17.2338 5.71573 16.308 5.7049 15.4176 5.54379ZM32.9826 5.58969L29.6907 6.01442C28.7119 6.22344 27.7785 6.57748 26.7692 6.63837C26.0909 6.67934 25.404 6.62642 24.7242 6.659C24.5916 7.24114 24.7254 7.76797 24.7558 8.33811C24.7926 8.35076 24.8154 8.35681 24.855 8.35962C25.7135 8.35287 26.4067 8.36492 27.2624 8.29142L27.9974 8.23873C29.0971 8.12576 30.1883 7.89992 31.2769 7.71129L32.5095 7.53172C32.685 7.50898 32.8817 7.51292 33.0511 7.4712L32.9826 5.58969ZM33.357 8.68264L31.3784 9.00504C31.1183 9.70428 31.2862 11.868 31.6329 12.6123L31.6926 12.765C31.8695 13.2488 32.2628 13.7229 32.6637 14.0362C33.1274 14.3638 33.5971 14.5941 34.1795 14.5774C34.2271 12.873 34.1597 10.2718 33.4331 8.67495L33.357 8.68264ZM14.7121 8.69117C14.1849 10.3001 13.847 12.4176 13.8501 14.0812C13.8504 14.2803 13.8325 14.501 13.8634 14.696C14.3932 14.6345 14.7764 14.4013 15.1706 14.0574C16.1572 13.0565 17.0441 10.3168 16.5003 8.93708C15.9142 8.86601 15.2857 8.83147 14.7121 8.69117ZM17.8371 9.05844C17.8274 9.25686 17.865 9.42903 17.8766 9.62403C18.0292 12.2001 16.825 15.6402 13.8901 15.989C14.0534 17.6538 14.3722 19.8196 14.8483 21.4472L15.5692 24.4947L15.856 26.4659C15.9309 27.1375 15.9398 27.7785 15.9406 28.4567L15.9359 30.4723C15.8967 31.8953 15.5756 33.278 15.4826 34.6929C15.419 35.6609 15.5683 36.6193 15.6175 37.5828C15.6349 37.9235 15.569 38.5746 15.6889 38.8835L19.1355 38.8816L21.1588 38.8822L23.3752 18.3454C23.4225 18.023 23.2816 17.6084 23.2595 17.2803L23.2251 15.4935C23.2268 15.3329 23.2316 15.1943 23.3294 15.0584C23.5231 14.7893 23.4557 14.6756 23.4565 14.3466L23.4558 10.8266C23.4556 10.4414 23.4811 10.0363 23.4407 9.65361C22.9922 9.61639 22.5397 9.63275 22.09 9.62469L20.4907 9.52475L18.951 9.28461C18.5821 9.2097 18.2094 9.11042 17.8371 9.05844ZM29.9455 9.26937L27.6077 9.54519L27.5831 12.3073C27.5813 13.4902 27.2201 14.5062 26.1219 15.1348L25.9769 15.2143C25.8059 15.3069 25.6162 15.3729 25.4292 15.4246L25.3905 15.4355C25.0883 15.5188 24.7767 15.5227 24.4699 15.5737C24.4673 15.9424 24.4303 16.3544 24.5069 16.7139L26.8838 38.8814L29.355 38.8816L31.5073 38.8814C31.8119 38.8812 32.1598 38.9179 32.4564 38.8711L32.6194 37.4766C32.7826 35.8986 32.7733 34.3431 32.521 32.7715L32.1834 30.6373C32.0468 29.4477 31.9888 28.2583 31.9891 27.0613L31.9953 25.9322C32.0324 25.071 32.1674 24.1347 32.3777 23.2993L33.8068 17.4693C33.9015 16.9463 34.0042 16.4227 34.0599 15.8937C32.6982 15.8214 31.4472 14.9322 30.7726 13.7621C30.0442 12.4985 29.9482 10.8074 30.0287 9.36383L30.0357 9.26412L29.9455 9.26937ZM25.675 9.62731L24.6846 9.6319C24.6465 9.84495 24.6692 10.0717 24.6716 10.2875L24.672 13.8332C24.6712 14.3076 24.684 14.2989 25.1768 14.1386C25.5375 14.0121 25.809 13.8258 26.0287 13.5116L26.0552 13.4746C26.4258 12.9477 26.345 12.3846 26.3445 11.779L26.3426 9.61573L25.675 9.62731ZM18.017 40.1645L15.7934 40.1665C15.8296 40.7266 15.9189 41.3544 15.9222 41.8911L15.9465 42.4509L18.8385 42.4662L20.087 42.4622C20.2689 42.4609 20.5179 42.482 20.6924 42.4347L20.9701 40.1766C20.9209 40.1409 18.3397 40.1643 18.017 40.1645ZM31.1866 40.1645L27.532 40.166C27.3836 40.1662 27.2264 40.1546 27.0798 40.1746L27.379 42.4662L28.1831 42.4662L31.9988 42.4653L32.2974 40.1566L31.1866 40.1645Z" fill="black"/>
</svg>
