<svg width="48" height="48" viewBox="0 0 48 48" fill="none" xmlns="http://www.w3.org/2000/svg">
<path d="M22.8263 28.3641C22.7075 28.8011 22.6392 29.2627 22.5485 29.7067L20.4986 39.6887L19.9954 41.941C19.8913 42.463 19.8302 42.9723 19.1249 42.8822C18.1188 42.7537 17.1122 42.5146 16.1141 42.3297L15.3326 42.1892C14.3564 42.0506 13.6779 42.19 13.7763 40.8959L14.1486 36.8095L14.5594 30.978C14.5666 30.83 14.5941 30.6872 14.6031 30.5411L14.846 26.6094C14.8536 26.4844 14.8797 26.3645 14.8885 26.2395L15.0803 23.486L15.399 17.5572C15.4971 16.1998 15.4463 16.164 15.1336 14.8127C14.8055 13.3952 14.9617 11.7932 15.673 10.5135C15.8208 10.2477 16.0043 10.0113 16.1629 9.75367C17.1726 8.11337 16.5026 5.50051 16.8651 4.94987L16.8871 4.91823C17.2746 4.39054 18.2909 4.63519 18.8043 4.79312C18.9845 4.84853 19.2003 4.95765 19.3874 4.96623L27.4577 4.96811C28.0587 4.96778 28.6741 5.00532 29.2656 4.89404C29.6625 4.81942 30.0372 4.64547 30.4398 4.60225C31.2619 4.53742 31.2632 5.17904 31.2623 5.83375C31.2607 6.96128 31.1001 8.31057 31.6138 9.35851C31.8875 9.91665 32.2819 10.3835 32.5313 10.9567L32.7193 11.4723C33.134 12.6544 33.016 13.7883 32.8193 14.9844C32.7395 15.47 32.5624 15.9407 32.551 16.4392C32.5442 16.7403 32.6001 17.0295 32.6076 17.3284L32.822 21.6879C32.8296 21.801 32.8563 21.9101 32.8636 22.0239L33.0111 24.7569C33.0223 24.9035 33.0511 25.0471 33.0599 25.1952L33.2635 28.634L33.8128 35.8228L33.8436 36.622C33.8534 36.7487 33.8841 36.8733 33.8968 37.0002L34.1779 40.0215C34.3174 41.3669 34.636 41.7995 33.0644 42.0009L29.7808 42.4757C29.4456 42.5281 29.0846 42.6122 28.746 42.6292C28.0079 42.6662 28.0539 41.9868 27.9271 41.4702L24.2997 23.9936C24.1999 23.4806 24.1294 22.9647 24.0021 22.4568L22.8263 28.3641ZM18.0036 5.99612L17.9908 7.12801L29.9773 7.13139C30.0022 7.08925 29.9983 7.09018 29.9989 7.04514C30.0037 6.71776 30.0306 6.37928 29.9995 6.0624L29.0968 6.23139C28.9447 6.27104 28.7808 6.26176 28.6249 6.26228L19.7859 6.2612C19.3445 6.23851 18.3785 6.10618 18.0036 5.99612ZM17.9387 8.3687C17.6552 9.83031 17.4188 9.91539 16.7729 11.1712C16.2074 12.2706 16.0658 13.7027 16.4407 14.8837L16.6228 15.6777C16.7019 15.9622 16.6924 16.2838 16.6918 16.5768L16.556 19.734C16.5461 19.9142 16.5051 20.0914 16.4934 20.2718L16.3678 22.6826L16.0298 27.7539C16.0016 28.2038 15.9653 28.6556 15.9398 29.1047L15.8323 30.7035C15.7969 31.2949 15.755 31.8828 15.7147 32.474L15.2788 38.33C15.2737 38.4023 15.2534 38.503 15.276 38.5715L19.3346 38.9983L19.7699 36.9982L22.3034 24.5141L23.2702 19.2174C23.3151 18.9751 23.426 18.6287 23.3762 18.3929C23.2636 17.8592 23.1978 17.3221 23.1334 16.781C23.0388 15.9865 22.8681 15.8782 23.5951 15.4098C24.2604 14.9811 24.5806 14.0906 24.5818 13.3236L24.5828 8.87912C24.5827 8.72406 24.6045 8.52826 24.5742 8.37803L17.9387 8.3687ZM25.98 8.3687L25.8632 8.38253C25.8265 8.53164 25.8344 8.69509 25.8344 8.84795L25.8329 12.1914C25.8365 13.4597 25.9088 14.7487 25.0544 15.7931C24.3852 16.6112 24.3274 15.9905 24.427 16.927L25.7357 24.691C25.7566 24.7914 25.7593 24.8962 25.7821 24.9957L26.022 26.1092C26.1127 26.5701 26.1721 27.0399 26.2886 27.4953L27.9728 35.6859C28.0515 35.9521 28.0814 36.2489 28.1387 36.5213L28.472 38.0818C28.5238 38.3247 28.565 38.5947 28.6519 38.8267L31.3066 38.5389L32.744 38.3829L31.6443 22.8746C31.5864 22.4267 31.6146 21.9639 31.5787 21.5128L31.4416 19.7692L31.3235 17.0929C31.2836 16.0423 31.3528 15.7633 31.5757 14.7137L31.7519 13.7072C31.8754 12.9607 31.5716 11.832 31.2226 11.1876C30.9619 10.706 30.6461 10.2864 30.43 9.77551C30.2347 9.31407 30.1833 8.85564 30.0616 8.38276L25.98 8.3687ZM32.6878 39.6656L28.876 40.1309L29.1614 41.2215L29.2382 41.2268L33.0053 40.7136L32.936 40.0613C32.9257 39.9359 32.967 39.4855 32.6878 39.6656ZM15.1196 39.8776L15.0727 40.7717L18.8323 41.4495L18.8734 41.2836L19.0956 40.2209L16.5688 40.0051C16.4083 39.9906 16.2501 39.9542 16.0897 39.937L15.4941 39.8895C15.3819 39.8797 15.2276 39.8438 15.1196 39.8776Z" fill="black"/>
</svg>
