<svg width="48" height="48" viewBox="0 0 48 48" fill="none" xmlns="http://www.w3.org/2000/svg">
<path d="M25.1475 28.5607L25.0644 26.2854C24.9699 24.7475 24.7403 23.037 24.0137 21.6482C23.4705 22.4315 23.0538 24.683 22.9644 25.5976L22.9184 26.4734C22.9004 26.7427 22.8585 27.0098 22.8517 27.28L22.8477 29.5503L22.7102 32.4955C22.687 32.7963 22.6678 33.097 22.6427 33.3978L22.3596 36.2229L21.9799 38.8158C21.7085 40.3419 21.3833 41.857 21.3712 43.4146L21.3655 44.3846C21.3638 44.7024 21.3833 44.9264 21.2474 45.2144C20.5703 46.6496 18.9717 46.7163 17.6317 46.7155C14.9353 46.7139 12.7623 46.6518 10.543 44.8413C9.71152 44.1631 9.49965 44.0946 9.73149 43.1081L12.906 28.2073L13.5808 24.0556L14.3339 16.2359L14.4249 14.262C14.4442 13.8997 14.491 12.6281 14.5634 12.3752C14.7103 11.8628 14.9968 11.432 15.0797 10.8841C15.1254 10.582 15.0711 10.2508 15.0981 9.94407C15.1208 9.68673 15.205 9.44602 15.2217 9.1868L15.2573 2.3915C15.2577 1.72256 15.2438 1.30404 16.0128 1.15258L31.4361 1.14746C32.6573 1.14754 32.7651 1.36976 32.7305 2.46848L32.7271 6.98321C32.7324 7.24252 32.7903 7.49452 32.7952 7.7528L32.8095 9.0503C32.812 9.60952 32.8634 10.8701 33.0151 11.3223L33.4116 12.3401C33.4794 12.5108 33.4689 12.6645 33.4849 12.844L33.6289 15.3111C33.6477 15.7113 33.6285 16.1265 33.6684 16.5237L34.4574 24.389L34.7691 26.3361C34.8096 26.5528 34.8252 26.8086 34.8836 27.0182L38.3332 43.423C38.3662 43.627 38.4304 43.7487 38.3421 43.9573C38.074 44.5903 36.5519 45.5232 35.9215 45.8381C35.2184 46.1895 34.4913 46.4195 33.7198 46.5588C32.9368 46.7003 30.7888 46.8459 30.2287 46.6373C30.0249 46.5613 29.7938 46.5317 29.5832 46.4656C28.0115 45.972 26.8725 44.672 26.6196 43.0589L25.5328 35.6838L25.2904 32.6076C25.2795 32.4722 25.2532 32.3393 25.2455 32.2032L25.1475 28.5607ZM16.7139 2.62751C16.6817 3.08458 16.6378 4.53862 16.7061 4.98259L31.2304 4.9883C31.3269 4.91649 31.2938 4.59372 31.2936 4.47542L31.2896 2.65512C31.1012 2.58012 17.8915 2.62661 16.7139 2.62751ZM27.8764 6.46285C27.8445 6.82182 27.9261 7.24407 28.0308 7.59399L28.0412 7.6299C28.1154 7.87731 28.2134 8.14407 28.3284 8.37601L31.4222 8.43338L31.4078 8.38688C31.2773 7.80741 31.4372 7.1072 31.2846 6.45545L27.8764 6.46285ZM16.8642 6.47087L16.7157 6.49834C16.6538 6.89462 16.6984 7.34982 16.6968 7.75201L16.6948 8.23182C16.6943 8.31929 16.6828 8.41754 16.7069 8.50173C16.9985 8.55324 17.3223 8.5283 17.6193 8.52905L19.2925 8.51448C19.3297 8.46001 19.3674 8.41365 19.3858 8.34971C19.5732 7.75196 19.7619 7.10738 19.7623 6.49562C19.3876 6.44804 18.9988 6.46726 18.6215 6.46745L16.8642 6.47087ZM21.2625 6.46895L20.8416 8.5374L26.4601 8.5336C26.5902 8.5464 26.7179 8.55465 26.848 8.54162C26.5167 7.65141 26.5336 7.3111 26.3917 6.47213L21.2625 6.46895ZM29.568 9.98645C29.9226 11.0212 30.6659 12.0309 31.7931 12.2836L31.7781 12.2391C31.5378 11.5144 31.426 10.7804 31.407 10.0183C31.3029 9.9669 29.8383 10.0196 29.568 9.98645ZM16.6681 10.0046C16.628 10.2851 16.6092 10.6009 16.5518 10.8909L16.2136 12.3574L16.4037 12.2966C16.739 12.1971 17.0895 11.9549 17.3499 11.7252C17.7722 11.3524 18.1151 10.8374 18.3579 10.3301C18.4084 10.2246 18.4075 10.1129 18.4813 10.0164L16.6681 10.0046ZM20.0233 10.0164C19.4544 11.9784 18.0019 13.7058 15.8631 13.9119C15.7925 14.4661 15.8023 15.2142 15.7603 15.8188L15.2828 21.926L15.1089 23.3674C15.0786 23.5724 15.0769 23.7845 15.0414 23.9885L13.9307 30.3568L11.1285 43.3543C12.2877 44.6258 14.0588 45.1815 15.7333 45.2562L17.1577 45.2635C18.0008 45.2611 19.1744 45.3605 19.8856 44.8044C19.9131 44.7215 19.9041 44.6238 19.9062 44.537L20.0935 41.2884C20.1913 40.4322 20.3817 39.5793 20.5296 38.7307C20.8653 36.8057 21.1097 35.0296 21.1998 33.084L21.1944 33.1076C21.1195 33.4134 20.5697 34.6881 20.424 34.9104C20.1107 35.3886 19.4862 35.3596 19.1902 34.8987L19.1732 34.8728C19.124 34.796 19.1032 34.7159 19.0781 34.6292L19.0681 34.5978C18.9936 34.3281 19.8215 32.7113 19.9574 32.4147L20.4216 31.3616C20.7334 30.614 21.0133 29.8359 21.171 29.04L21.2701 28.4164C21.2964 28.2061 21.2567 27.9878 21.3717 27.7965L21.3931 27.7641C21.4991 27.5811 21.4595 27.2033 21.4621 26.9904C21.4893 24.7775 21.8229 22.4305 23.0021 20.5189C23.5276 19.6671 24.0903 19.0847 24.8277 20.1803C25.199 20.7319 25.506 21.3401 25.7133 21.9729L25.9136 22.6003C26.2183 23.4612 26.3496 24.4174 26.4409 25.3197L26.6191 27.3113C26.6388 27.5899 26.6152 27.8712 26.6414 28.1492C26.7098 28.495 26.8254 28.8087 26.9552 29.1331L27.5199 30.7034L28.9797 34.2425C29.1302 34.6455 29.3446 35.0515 29.535 35.4377C29.7412 35.8563 30.0567 36.4806 29.3735 36.742L29.3122 36.7654C29.1801 36.8151 29.0222 36.8155 28.8867 36.7796L28.8555 36.7716C28.29 36.6189 27.9512 35.4467 27.7388 34.9769C27.4049 34.2384 27.0468 33.5214 26.8036 32.7452C26.7302 33.6247 26.8691 34.5334 26.9574 35.4103L27.0674 36.4573C27.0819 36.6006 27.0794 36.7476 27.1019 36.8901L27.6111 40.3479C27.6307 40.4678 27.6334 40.5926 27.6573 40.7112L27.8957 41.9532C27.9666 42.3553 28.001 42.7638 28.093 43.1615C28.3127 44.111 29.356 44.9484 30.3043 45.1223C30.7639 45.2065 30.8489 45.2038 31.3239 45.2047C33.5193 45.2087 34.7194 45.04 36.5926 43.676C36.686 43.6081 36.8163 43.5345 36.8884 43.4453C36.6492 42.6782 36.531 41.8726 36.3632 41.0881L33.7824 28.9868L32.7433 22.2893L32.279 16.728C32.2334 15.7656 32.1634 14.8532 32.1412 13.8856C31.9099 13.846 31.6851 13.8303 31.4553 13.7732C29.8393 13.3718 28.5883 11.9346 28.1516 10.3532C28.1281 10.2679 28.1112 10.0734 28.0594 10.0141L25.8623 10.0133C24.5209 10.0133 24.7236 9.7397 24.7242 11.0319L24.7252 12.8996C24.7253 13.4451 24.7793 14.5324 23.9244 14.4012L23.7739 14.3609C23.2894 14.2075 23.2704 13.6988 23.2706 13.2858L23.2786 10.0171L20.0233 10.0164Z" fill="black"/>
</svg>
