<svg width="48" height="48" viewBox="0 0 48 48" fill="none" xmlns="http://www.w3.org/2000/svg">
<path d="M24.8033 29.1114L24.0115 22.3582C23.9064 22.7878 23.9034 23.2005 23.856 23.6364L22.9291 31.6406L21.8515 39.8399C21.67 41.1687 21.4675 41.3194 20.0157 41.2451L15.1704 41.0003C14.1551 40.9301 14.1572 40.5367 14.1537 39.6948L14.138 38.5749C14.1313 38.2805 14.0787 37.9898 14.0678 37.6989L13.9747 34.1625L13.9651 31.032C13.9588 30.7088 13.9021 30.393 13.896 30.0687L13.8864 27.3543C13.8802 27.1368 13.8166 26.9318 13.8122 26.7154L13.8049 18.795C13.8073 16.5146 13.8442 14.5398 14.8975 12.483C15.5195 11.2685 16.0163 10.3827 16.0731 8.98903C16.1063 8.1757 15.9017 7.19311 16.8102 6.77672L30.9507 6.76758C31.3871 6.76969 31.6167 6.94195 31.7705 7.38398L31.782 7.41769C32.0305 7.99219 31.9237 9.44348 32.1691 10.2956L32.3816 10.9504L33.6367 13.5948C33.7276 13.908 33.8702 14.2102 33.9263 14.5353C34.0832 15.445 34.3362 16.6705 34.375 17.5805L34.3789 24.7365C34.3746 24.8869 34.3398 25.0254 34.3232 25.1731L34.2452 26.321L34.1028 30.1126L33.9969 35.0582C33.9922 35.3657 33.9409 35.6657 33.939 35.9762L33.9298 38.4717C33.9216 38.6831 33.877 38.8885 33.8665 39.1005C33.8453 39.531 33.8838 39.9726 33.8447 40.4006C33.7932 40.9662 33.1671 41.0099 32.7627 41.0159L28.8281 41.213C28.4412 41.2384 28.0302 41.2141 27.6485 41.277L27.59 41.2865C26.2165 41.4603 26.2016 40.1712 26.0668 39.1873L24.8033 29.1114ZM22.4426 7.9845L21.0657 8.00503L20.9906 10.2863C20.9825 10.644 20.9291 10.9901 20.8814 11.3435L20.7585 12.031C20.4507 13.457 19.8322 14.9232 18.6041 15.7938C17.6617 16.462 16.794 16.6073 15.6957 16.8242L15.2989 16.8863C15.2177 16.8952 15.1308 16.8937 15.0557 16.9267C15.066 17.2909 15.0117 17.6258 15.0034 17.9836L15.001 23.2082C15.0074 23.5048 15.0575 23.7957 15.0625 24.0907L15.0684 29.7831C15.0691 30.7619 15.1814 31.6353 15.1793 32.577L15.1861 34.0022C15.1917 34.2046 15.2404 34.4014 15.2461 34.6048L15.2917 37.7919C15.3023 37.9771 15.3425 38.1587 15.3497 38.3435L15.3564 39.772L19.9755 39.9841C20.179 40.001 20.4063 40.0424 20.6086 40.0133L22.0245 28.9802L23.034 19.7933C23.0925 19.2948 23.1097 18.7058 23.5419 18.3683C23.951 18.0488 24.4132 18.2239 24.6821 18.6295L24.7704 18.7751C24.9296 19.0639 24.9133 19.3845 24.9491 19.7006L25.9371 28.292L26.1708 30.4289L27.3242 39.4734C27.4091 40.0205 27.3038 40.0827 27.8841 39.9835C28.2862 39.9148 28.7336 39.9538 29.1428 39.9362L31.2885 39.7996C31.7426 39.7748 32.196 39.7899 32.6489 39.7381L32.6647 38.695C32.678 38.4425 32.7189 38.1949 32.7243 37.9381L32.8085 34.7857L32.8234 32.156L32.9162 29.1212L33.007 28.0193L33.1198 24.3747C33.1447 23.7321 33.0934 23.0825 33.1298 22.4411C33.1389 22.2784 33.1801 22.1191 33.188 21.9535L33.201 18.1054L33.1044 16.8806C32.4299 16.8065 31.7297 16.7234 31.076 16.5336C28.5924 15.8126 27.6099 13.8953 27.2788 11.5472L26.8989 8.89425C26.8576 8.5943 26.7974 8.29514 26.7766 7.99233L25.3831 7.99345C25.0568 7.99369 24.6931 7.96317 24.3718 8.00517L24.3791 15.0696C24.8167 14.9352 25.4394 14.4564 25.7853 15.0817L25.8004 15.1084C26.3293 16.0651 24.0959 16.5922 23.5174 16.3239C23.1052 16.1328 23.1728 15.9076 23.1728 15.5203V7.99327C22.9301 7.96744 22.6861 7.97883 22.4426 7.9845ZM17.3267 7.99434C17.3117 9.58486 17.2624 10.5602 16.5054 12.0754C15.947 13.1931 15.2255 14.3256 15.1816 15.6151C15.9111 15.5802 16.5052 15.3887 17.1884 15.1692C19.8804 13.9373 19.8038 10.5198 19.8019 8.00691L17.3267 7.99434ZM28.0423 7.99725C28.0217 8.17884 28.0652 8.31019 28.0824 8.48034L28.2671 9.83175C28.46 11.0137 28.4544 12.19 28.9684 13.3067C29.7447 14.9932 31.2956 15.3896 32.9398 15.6187C32.6707 14.2428 32.4233 13.6973 31.7919 12.5219C31.2333 11.482 30.8412 10.3487 30.774 9.16378L30.7271 8.33175C30.7207 8.22633 30.7292 8.10698 30.7003 8.00536L28.0423 7.99725Z" fill="black"/>
</svg>
