<svg width="48" height="48" viewBox="0 0 48 48" fill="none" xmlns="http://www.w3.org/2000/svg">
<path d="M25.2372 30.2992L24.5027 25.7636C24.3503 24.795 24.311 23.7492 24.0034 22.8159C23.7642 23.3779 23.7612 24.077 23.6721 24.6795L21.9847 35.0975L20.534 42.9021C20.3444 43.8225 20.349 44.2006 19.3397 44.2062L15.242 44.2068C13.8832 44.2052 13.86 44.1238 13.7891 42.9521L13.4385 39.1521L12.9623 32.6011C12.9474 32.2857 12.9595 31.9378 12.901 31.6287C12.7689 30.9307 12.7943 29.661 12.7503 28.8748L12.6469 25.566C12.6437 25.3151 12.6002 25.0709 12.5959 24.8205L12.6805 19.9186C12.689 19.7779 12.7169 19.6431 12.7298 19.5031L13.3207 15.8059C13.4683 15.172 13.6763 14.5336 13.7751 13.8909C13.833 13.5147 13.7889 13.0997 13.8019 12.7177C13.8467 11.4021 14.0692 9.55896 14.5678 8.38343C14.8612 7.69184 14.7859 7.55356 14.7852 6.78575L14.7841 5.13373C14.7847 4.46509 14.6716 3.90029 15.4821 3.77832L32.4443 3.78536C32.5563 3.78954 32.6696 3.79961 32.7728 3.84619L32.8124 3.86575C33.3202 4.10563 33.198 4.58511 33.1979 5.05132L33.1978 6.99134C33.198 7.30081 33.172 7.63854 33.2077 7.9451C33.231 8.14423 33.3913 8.27623 33.4579 8.46743L33.7587 9.49217C33.926 9.97451 33.9658 10.5728 34.0344 11.074L34.2036 12.9342C34.2504 13.9484 34.3554 14.559 34.5937 15.5389L34.9128 17.0435C35.1707 18.2721 35.2898 19.6899 35.3575 20.9412L35.415 23.7358C35.4117 23.95 35.368 24.1572 35.3642 24.3715L35.3162 27.465L35.2321 29.1092C35.2202 29.3356 35.1734 29.5584 35.1634 29.7852L34.95 33.9356C34.9372 34.3866 34.8801 34.834 34.8459 35.2845L34.2796 43.0292C34.1596 44.4503 33.7831 44.2055 32.5269 44.2063L29.1835 44.2093C27.9417 44.2207 27.7296 44.3104 27.4603 42.8918L26.2797 36.5714L25.2372 30.2992ZM21.458 5.17976L17.1724 5.18398C17.0176 5.18407 16.1156 5.15215 16.0313 5.20559C15.9433 6.18575 16.165 7.88276 15.8458 8.70968L22.3316 8.70434L22.3307 6.97165C22.331 6.24692 22.2867 5.72234 23.135 5.71915L23.7161 5.71789C24.0984 5.71746 25.138 5.60234 25.4413 5.8114L25.4674 5.828C25.7888 6.03514 25.721 6.19465 25.7984 6.48612L25.8305 8.70035L32.2045 8.66239C31.9056 8.23001 31.9891 7.76843 31.9883 7.27095C31.9872 6.57345 31.9923 5.88162 31.938 5.18567L21.458 5.17976ZM23.7256 7.01346L23.6046 14.6301C23.6094 14.9864 23.5892 15.4133 23.6815 15.7579C23.8411 15.613 23.9832 15.4747 24.1142 15.3031C24.6675 14.4349 24.6061 13.8642 24.6003 12.8867L24.5915 8.25696C24.5913 7.84775 24.6128 7.42582 24.5842 7.01801L23.7256 7.01346ZM15.4476 10.0145C15.3276 10.368 15.2967 10.7639 15.2509 11.128L15.094 12.342C15.0602 12.7488 15.0611 13.1626 15.0698 13.5704C15.4112 13.3573 15.6772 13.1398 15.9373 12.8322C16.6007 12.016 16.8861 11.0542 17.0046 10.0206L15.4476 10.0145ZM18.3489 10.015C18.2974 10.2062 18.2826 10.3977 18.2483 10.5877L18.0626 11.4353C17.7472 12.7521 16.9184 14.0446 15.7264 14.7149C15.5029 14.8406 15.1754 15.0508 14.9185 15.0747C14.8888 15.0774 14.8692 15.0855 14.8436 15.1002L14.5222 16.3214C14.2727 17.4835 14.1094 18.6681 13.9747 19.8483C13.8891 20.5973 13.8798 21.6638 13.8786 22.4349L13.8816 24.7029C13.8868 24.9148 13.9285 25.1257 13.9356 25.3393L13.9749 27.7174C13.9845 27.9442 14.0374 28.1622 14.0468 28.3881L14.071 29.608C14.0812 29.8113 14.1199 30.0117 14.1274 30.2151L14.1553 31.2714C14.1653 31.4368 14.2007 31.5959 14.212 31.7584L14.3498 34.0511C14.3591 34.1817 14.3913 34.3107 14.4032 34.4419L14.6809 38.28C14.7368 38.9014 14.7681 39.5062 14.8112 40.1248L15.0514 42.8157L19.2442 42.8172C19.3609 42.535 19.4026 42.1834 19.4603 41.8827L22.2869 25.1232C22.4075 24.3437 22.5088 23.5597 22.681 22.7893L23.1109 21.1404C23.2572 20.6323 23.4678 19.5752 24.2831 19.985C24.5742 20.1314 24.7582 20.7368 24.8462 21.0363L25.438 23.3142L26.5609 30.5108C26.6372 30.7935 26.6707 31.0982 26.7134 31.3877L27.0527 33.3398C27.0702 33.4439 27.0731 33.5537 27.095 33.656L27.2355 34.3826C27.2845 34.7036 27.3087 35.0375 27.3757 35.3553L27.798 37.6639C27.8231 37.7942 27.8239 37.9312 27.8511 38.06L28.5476 41.8123C28.6011 42.0699 28.6189 42.3595 28.7175 42.6049L28.787 42.8058L33.0269 42.7994L33.3119 38.3072L33.4512 36.7201L33.8342 31.1356L33.8668 29.956C33.879 29.7346 33.9297 29.5241 33.9412 29.3019L34.1186 24.6139L34.0536 20.7303C34.0368 20.4411 34.0428 20.1538 34.0153 19.8644L33.6871 17.5779C33.5476 16.757 33.4078 15.9169 33.1835 15.1143L33.1407 15.1008C31.1623 14.4619 30.1905 12.6973 29.7904 10.7884C29.7378 10.5369 29.7259 10.2578 29.6452 10.0153L25.8366 10.026L25.8511 12.159C25.8553 14.2973 25.9788 16.2492 23.6396 17.2823C23.0647 17.5362 22.4067 17.4849 22.4001 16.7342L22.361 10.0314C22.2378 9.99603 22.0722 10.0131 21.9436 10.013L18.3489 10.015ZM31.0984 10.0129L31.0194 10.0232C30.9775 10.1955 31.0476 10.3896 31.0792 10.5584C31.2879 11.6727 31.8138 13.0031 32.8922 13.5349L32.9406 13.5584C33.0422 13.1808 32.678 10.5134 32.5941 10.0272L31.0984 10.0129Z" fill="black"/>
</svg>
