<svg width="48" height="48" viewBox="0 0 48 48" fill="none" xmlns="http://www.w3.org/2000/svg">
<path d="M22.7833 28.1078L21.9771 38.4796C21.8701 39.1915 21.7818 39.8732 21.5798 40.5683L21.2979 41.4299C20.9726 42.2814 20.8616 42.7601 20.9143 43.7249C20.9393 44.1832 21.1004 44.5665 20.6386 44.873L20.602 44.8968C20.3998 45.0316 20.1528 44.981 19.9219 44.9815L15.6499 44.9788C15.5767 44.976 15.5133 44.9651 15.4494 44.9282L15.422 44.9118C14.9509 44.6388 15.023 44.2487 15.0224 43.7758L15.0257 42.3962C15.0278 42.1568 15.0862 41.9706 14.9315 41.7711L14.9093 41.744C14.3549 41.0343 14.2304 39.2716 14.3992 38.4402L14.6918 37.2066C14.8324 36.5163 14.9385 35.8084 14.9915 35.106L15.1307 33.1771C15.1468 32.9647 15.1866 32.7568 15.1978 32.5432L15.2077 27.7412L15.0866 26.2381L13.6735 16.4233C13.5404 15.1776 13.513 13.8845 13.6278 12.634L14.2087 8.46052C14.3279 7.80094 14.6456 6.37196 14.9506 5.75621C15.0795 5.49577 15.0219 5.06115 15.0223 4.77099L15.0236 3.49231C15.0239 3.27267 14.9922 2.99022 15.0787 2.78554L15.0931 2.75349C15.3282 2.21191 15.87 2.31217 16.3429 2.41368C16.8997 2.53323 17.4754 2.58487 18.0387 2.66219L20.7816 2.9458C20.9445 2.95811 21.1016 3.0028 21.2696 3.01122L26.5356 3.00912C26.7474 2.99906 26.9514 2.95947 27.1617 2.93838L28.2657 2.83662C29.5791 2.70633 30.8992 2.56387 32.1937 2.30255C32.4981 2.27625 32.7841 2.38747 32.8953 2.69508L32.9075 2.73005C33.0293 2.97488 32.9706 3.44439 32.971 3.72383L32.9717 5.15574C32.9714 6.1388 33.3135 7.05263 33.525 8.00461L33.7962 9.21052C34.2816 11.3033 34.519 13.1957 34.4109 15.3345L34.2213 17.3785L33.0934 24.6123C32.8014 26.675 32.6923 28.7872 32.729 30.8696L32.8625 33.3629C32.9296 34.5556 33.0297 35.7173 33.2403 36.8923L33.3381 37.3675C33.4269 37.7999 33.5693 38.2495 33.626 38.6832C33.707 39.3018 33.6802 41.2718 33.0038 41.6394C32.9223 41.6837 32.9742 43.5222 32.9741 43.7891C32.9737 44.5128 32.9942 44.9789 32.0733 44.9805L27.8458 44.9813C27.7419 44.981 27.5992 44.9969 27.5043 44.9519L27.45 44.9241C27.2836 44.8362 27.1451 44.6805 27.0936 44.4978L27.0852 44.4665C27.0018 44.1785 27.0785 43.8286 27.0854 43.5286C27.1232 41.8829 26.5149 41.2304 26.2047 39.7386C26.094 39.2063 26.0744 38.6814 26.028 38.1421L25.6283 34.9358L24.8711 26.7113C24.8205 25.8604 24.9365 24.9886 24.848 24.1436C24.7157 22.8806 24.2451 21.701 24.0324 20.4621L24.0283 20.4368C23.9027 20.6934 23.8618 20.9813 23.8114 21.2609L23.6747 21.9254C23.4051 23.1931 23.1486 24.4529 22.9839 25.7392C22.9264 26.1884 22.9169 26.7065 22.8673 27.186L22.7833 28.1078ZM31.4449 3.85145L26.7657 4.38066L25.9563 4.41829C25.7257 4.43229 25.4961 4.46817 25.2657 4.47544L22.555 4.47166L19.6876 4.27413L16.4676 3.85728L16.4708 5.30818L16.4884 5.38496C16.7857 5.43718 17.0935 5.44046 17.3946 5.4624L20.0409 5.67061C20.1937 5.6814 20.3368 5.72494 20.4936 5.73122L26.4747 5.72963C26.6817 5.7218 26.8829 5.67938 27.0883 5.66621L31.1908 5.28057C31.2961 5.2696 31.4388 5.28174 31.5358 5.24372L31.5263 3.85505C31.4737 3.8444 31.5008 3.84597 31.4449 3.85145ZM31.7264 6.61974L30.279 6.7793C30.5904 7.98905 30.7446 8.58019 31.7777 9.50883C32.0434 9.72104 32.3091 9.90704 32.621 10.0457L31.7976 6.61557C31.7626 6.60929 31.7587 6.6016 31.7264 6.61974ZM15.9959 6.69915C15.7602 7.4371 15.5886 8.19652 15.4698 8.96443L15.3081 10.0969C15.7609 9.8633 16.1498 9.59747 16.5089 9.23569C17.1148 8.57133 17.6826 7.70068 17.9824 6.84854L16.6591 6.75249C16.4388 6.73655 16.2134 6.73913 15.9959 6.69915ZM28.8132 6.92354L26.8872 7.04832C26.7182 7.05929 26.553 7.0898 26.383 7.09538L20.5467 7.04401C20.1223 7.02605 19.7046 7.03154 19.2814 6.98227C18.6898 9.00502 17.2155 11.0687 15.0763 11.5949C14.7644 13.8444 14.8412 15.6487 15.0987 17.8574C15.1731 18.4955 15.252 19.1621 15.3756 19.7926L15.9858 23.2261C16.3886 25.4269 16.4977 27.6384 16.4969 29.873L16.4861 32.6012C16.4758 32.7983 16.4343 32.9946 16.4205 33.1925C16.3633 34.0163 16.3583 34.7893 16.265 35.6273L16.0268 37.2691C15.8273 38.4108 15.3474 39.4393 15.7963 40.5961C16.3001 40.546 16.8045 40.5531 17.3101 40.5533L19.8487 40.5636C19.9653 40.5682 20.1296 40.6161 20.2336 40.5498C20.7261 38.9349 20.6747 37.5259 20.7944 35.8909L20.8446 34.9435L21.6921 25.4904C21.9125 23.8053 22.2659 22.1483 22.6359 20.4907L23.1958 18.2901C23.2753 17.9935 23.3417 17.6135 23.4946 17.3483C23.7206 16.9565 24.2802 16.9186 24.5008 17.3247L24.5795 17.4997C24.6206 17.5949 24.6457 17.7066 24.6695 17.8075L25.8844 22.5288C26.0022 23.1051 26.129 23.6579 26.1705 24.2485C26.2506 25.3879 26.1635 26.5341 26.2514 27.6771L26.3134 28.1818C26.3351 28.4115 26.3274 28.6443 26.3526 28.8746L26.9224 34.7221L27.3394 38.1347C27.3796 38.7811 27.4296 40.1573 27.8556 40.5776C27.937 40.5769 28.0129 40.5509 28.0953 40.55L30.2571 40.5526C30.902 40.5531 31.5515 40.5373 32.1943 40.5954C32.4426 39.7623 32.3811 39.0881 32.1886 38.2671L31.9046 36.9138L31.6213 34.5841L31.4426 31.8391L31.433 29.9464C31.435 29.2147 31.4631 28.6964 31.5111 27.9901L31.5316 26.9528C31.5819 26.0879 31.6891 25.2053 31.8183 24.3482L32.8009 18.5111L33.0313 16.4879C33.1823 15.0452 33.2201 13.0775 32.9425 11.6292C30.9851 11.0365 29.605 9.52918 29.0824 7.58016C29.0235 7.36069 28.9955 7.13208 28.9337 6.9151L28.8132 6.92354ZM16.4116 41.9794C16.407 42.4801 16.3657 43.0248 16.4189 43.5195L19.5938 43.5341C19.62 43.4939 19.6113 43.5177 19.6131 43.4607L19.7115 41.985L16.4116 41.9794ZM28.2824 41.9847C28.3246 42.5362 28.3919 42.9276 28.4044 43.5196L31.7042 43.5389L31.705 42.5486C31.7043 42.3781 31.7255 42.145 31.6676 41.9852L28.2824 41.9847Z" fill="black"/>
</svg>
