<svg width="48" height="48" viewBox="0 0 48 48" fill="none" xmlns="http://www.w3.org/2000/svg">
<path d="M23.3886 27.9556C23.3474 28.1647 23.331 28.3722 23.2984 28.582L21.6674 39.69C21.502 40.6661 21.6382 40.56 20.4958 40.7177C20.072 40.7762 19.6471 40.7634 19.2202 40.7635C17.5189 40.7639 15.8431 40.6654 14.2386 40.0204C13.8412 39.8607 13.3892 39.7152 13.3099 39.2329L13.3045 39.1992C13.2872 39.0935 13.2822 38.9125 13.3458 38.8212C13.5454 38.5344 13.5912 36.494 13.6284 36.0424L14.1869 27.873L14.4485 23.5656C14.4646 23.2692 14.5271 22.9827 14.5415 22.6897L14.5903 19.5232C14.6615 17.0742 14.8935 14.7112 15.8901 12.4449C16.3928 11.3016 17.0303 10.2141 16.9931 8.92812C16.978 8.40439 16.8114 7.94337 17.0816 7.44275C17.5991 6.48392 18.5554 6.57626 19.4782 6.57603L28.7246 6.57607C29.0303 6.57209 29.3989 6.53234 29.6976 6.58793C30.4331 6.72481 31.0576 7.35096 31.0752 8.11414C31.0975 9.08726 30.8647 9.27265 31.22 10.3827L31.3837 10.8282C31.4706 11.0951 31.6192 11.3446 31.7306 11.6015L32.1682 12.5749C32.4261 13.1017 32.5435 13.6932 32.733 14.2447L32.821 14.5674C33.194 15.6901 33.299 16.9955 33.3494 18.1779L33.4213 20.785C33.4302 20.9434 33.4643 21.0976 33.4695 21.255L33.4779 22.9573C33.4855 23.1286 33.5239 23.2952 33.5359 23.4657L33.5717 24.4966C33.5817 24.6795 33.6189 24.8584 33.6282 25.0429L33.7618 27.5915C33.7744 27.7241 33.8023 27.8533 33.8111 27.9873L34.0142 31.2775L34.5419 38.2734C34.5609 38.4397 34.5294 38.5885 34.6186 38.7392L34.7133 38.9164C34.7883 39.0721 34.7105 39.3913 34.6128 39.536C34.4586 39.7643 34.1334 39.8392 33.8907 39.9378C31.8388 40.7715 29.5682 40.9369 27.3793 40.6823C26.5521 40.5861 26.4614 40.584 26.3461 39.7499L23.9993 23.8187C23.9166 24.0831 23.8957 24.3518 23.8599 24.6251L23.3886 27.9556ZM21.166 7.84667L19.394 7.8492C18.9949 7.85 18.5752 7.82295 18.1818 7.89556C18.1644 8.05142 18.139 8.24286 18.1723 8.39661C18.6049 8.57075 19.1191 8.744 19.5821 8.80559C19.7678 8.83029 19.9493 8.77132 20.131 8.78722C20.7142 8.83822 21.2913 8.82973 21.8777 8.82992L26.8352 8.82978L27.8736 8.82537C28.5171 8.82087 29.1937 8.74812 29.7709 8.43631C29.9121 7.62031 29.2683 7.85042 28.5985 7.84873L21.166 7.84667ZM18.1551 9.76076C17.914 11.3887 17.1163 12.4114 16.6508 13.8882C16.9227 13.7997 17.1524 13.6632 17.3916 13.5095C18.0855 13.0145 18.4323 12.413 18.7151 11.6278L19.2345 9.96964C18.8766 9.91011 18.5027 9.86778 18.1551 9.76076ZM29.7914 9.8037L29.223 9.91418C28.8577 9.97657 28.6893 9.88507 28.81 10.2389L29.1585 11.3986C29.3516 12.1689 29.9511 13.1531 30.6204 13.5532C30.8599 13.6857 31.0689 13.7983 31.334 13.8685C30.8965 12.519 29.9886 11.2502 29.8712 9.8067C29.8148 9.7864 29.8415 9.78518 29.7914 9.8037ZM20.4325 10.1059L20.0712 11.4441C19.5755 13.2006 18.469 14.9433 16.5149 15.1879C16.4885 15.1912 16.3145 15.2012 16.3041 15.2099C16.2115 15.2878 15.9578 17.125 15.9379 17.3257L15.8981 17.9506C15.8698 18.2751 15.8243 18.5998 15.8126 18.9257L15.7995 21.7287C15.8004 22.4948 15.6584 23.1024 15.6483 23.8217L15.6327 24.7851C15.6236 25.0746 15.5762 25.3579 15.5545 25.6462L15.4773 26.8969L14.9028 35.0958L14.7154 37.6405C14.6888 38.0299 14.6919 38.4183 14.6487 38.8068C15.1001 39.1066 16.2779 39.3107 16.8048 39.3738L17.4666 39.4264C17.9792 39.507 19.9121 39.5524 20.4709 39.4556L22.814 23.4859C23.0085 22.1314 23.1568 21.1232 23.1583 19.7611L23.1705 10.1087L20.4325 10.1059ZM24.4052 10.1059C24.3319 10.6332 24.3642 11.1638 24.3641 11.6712L24.3664 16.597C24.3666 17.0095 24.3326 17.4596 24.3982 17.8666C24.5857 17.7183 24.7497 17.5508 24.8927 17.3591C25.3478 16.7627 25.3845 16.2877 25.3854 15.5733L25.3723 10.1363L24.4052 10.1059ZM26.7029 10.1135L26.6158 10.149C26.5856 10.3081 26.6029 10.4943 26.6027 10.6572L26.6007 16.0834C26.5985 17.3022 25.9199 18.4084 24.8907 19.051L24.6026 19.2586C24.639 19.4359 24.6471 19.615 24.6728 19.7933L25.2676 23.9531C25.3801 24.5742 25.4068 25.2207 25.5431 25.8366L27.5742 39.4231C27.9036 39.4238 28.222 39.4692 28.5501 39.4801C29.329 39.5061 30.3866 39.4765 31.1691 39.3451C31.9778 39.2001 32.616 39.0985 33.3782 38.79L32.7114 29.7477L32.3466 24.0479C32.3315 23.7497 32.2712 23.4574 32.2527 23.1576L32.2277 21.4731C32.2241 21.2916 32.1898 21.1133 32.1863 20.9313L32.1771 19.2503C32.1758 18.9633 32.1849 18.6701 32.162 18.384L32.1027 17.915C32.0485 17.3096 31.9451 15.7537 31.6916 15.2195C28.8346 14.7569 28.1045 12.5645 27.5565 10.1127L26.7029 10.1135Z" fill="black"/>
</svg>
