<svg width="48" height="48" viewBox="0 0 48 48" fill="none" xmlns="http://www.w3.org/2000/svg">
<path d="M26.1392 31.8793C25.9694 29.6117 25.3752 27.3571 24.4253 25.2894C24.2945 25.0047 24.1784 24.6294 23.9769 24.3897C22.7542 26.6472 21.7869 28.7779 21.6513 31.3947L21.3757 36.2517L20.9162 40.3117C20.8594 40.7135 20.8822 41.4111 20.4575 41.6306C19.7124 42.0156 18.3006 42.1028 17.4498 42.0637C17.1131 42.0482 16.7868 41.9864 16.4466 41.9795L14.1619 41.9685C12.9465 41.9081 10.4936 41.5585 9.90001 40.3042C9.6047 39.6801 9.72475 38.9204 9.72231 38.2488L9.73633 35.2787L9.87367 32.5491L10.0547 28.8224L10.1473 26.8843C10.1595 26.6739 10.2023 26.4684 10.2152 26.2579L10.2506 25.4091C10.2586 25.2864 10.2858 25.1697 10.2951 25.0474L10.681 20.1605C10.7957 19.0098 10.8216 17.8368 10.9969 16.6941C11.3247 14.5579 11.8802 12.5048 12.6251 10.4772C12.1373 10.0888 12.1776 8.89343 12.3285 8.35564C12.6992 7.03395 13.4197 6.05314 14.8739 5.84403C15.003 5.82111 15.1678 5.83296 15.2947 5.86325L16.1953 6.11407C16.9483 6.30462 17.7526 6.20468 18.5248 6.20478L30.5612 6.20445C30.8972 6.20431 31.3372 6.25681 31.6566 6.15518C32.0723 6.0229 32.5476 5.85654 32.9843 5.83896C34.1823 5.79073 35.1449 6.81809 35.5315 7.86359C35.6874 8.2849 35.9637 10.1697 35.4613 10.4233L35.4213 10.4417C35.414 10.6304 35.5824 11.114 35.6539 11.2955L36.3646 13.616C36.3715 13.6538 36.3778 13.6847 36.39 13.7216C36.7656 14.858 37.0622 16.7691 37.1674 17.9264L37.2773 19.4546C37.3282 20.0846 37.3351 20.7844 37.376 21.437L37.5724 24.795C37.5877 25.125 37.5498 25.5247 37.6249 25.8405C37.6907 26.1179 37.7061 26.8042 37.7336 27.1698L37.9164 29.8454C37.9733 30.3632 37.996 30.9858 38.0331 31.527C38.0793 32.2001 38.0905 32.9434 38.1259 33.6352L38.3097 36.9027C38.344 37.7 38.3289 38.5133 38.2674 39.3084C38.1967 40.2235 38.1691 40.5612 37.2948 41.1056C36.3287 41.7072 35.1134 41.8002 34.0078 41.9144L32.919 42.0154C32.4714 42.0604 32.0538 42.0796 31.6005 42.0816L30.2227 42.0718C29.7848 42.047 28.0433 41.8735 27.7493 41.6136C27.4767 41.3726 27.5013 41.0093 27.4522 40.6808L26.2873 33.606L26.1392 31.8793ZM14.9419 7.06189C13.751 7.25876 13.3725 8.41676 13.4523 9.49957L15.8262 9.49287C16.2545 9.49236 16.7263 9.53253 17.1488 9.4722L17.1324 9.44318C16.8575 8.94317 16.7756 8.00229 16.9701 7.4539C16.6861 7.42606 16.3895 7.41776 16.111 7.35753C15.742 7.27775 15.3176 7.06043 14.9419 7.06189ZM32.9699 7.06367C32.2319 7.163 31.955 7.4029 31.0592 7.43806L31.0498 7.48807C31.238 8.04429 31.1267 8.99557 30.8746 9.50323L32.458 9.49287L34.5707 9.53201C34.4716 8.56446 34.3435 7.00268 32.9699 7.06367ZM18.2052 7.43351C18.0862 7.9054 17.9614 8.48407 18.1907 8.95123L18.2327 9.03396C18.4847 9.52306 18.8621 9.49221 19.3262 9.49235L23.8228 9.51078C23.8838 9.40836 23.9272 9.30575 23.9702 9.19526C24.2168 8.61814 24.2197 8.04064 24.3273 7.44326L18.2052 7.43351ZM25.583 7.43661L25.5042 7.47851C25.4762 8.15571 25.3221 8.84867 25.0943 9.48532C25.3885 9.51209 25.6941 9.49428 25.9902 9.49428L28.7788 9.49235C28.972 9.49198 29.1864 9.51021 29.3758 9.48026C29.6419 9.29754 29.8335 9.10423 29.8989 8.78426L29.9153 8.68268C29.9683 8.31204 29.95 7.80101 29.8274 7.44739C29.7223 7.41518 29.57 7.43365 29.4574 7.43384L25.583 7.43661ZM24.9372 10.6786L24.876 10.6995L24.8915 15.6207C24.8933 17.3988 24.6299 18.5317 22.8138 19.0868C22.5564 19.1655 22.2543 19.1376 21.9864 19.1383L20.8084 19.1405C20.3161 19.1412 19.4101 19.331 19.2144 18.7034L19.1634 18.5299C19.1441 18.453 19.219 18.2704 19.2628 18.2085C19.5388 17.8181 19.9876 17.9148 20.4024 17.9142L21.8382 17.9135C22.5645 17.9128 23.1724 17.8497 23.5519 17.1154L23.6801 16.8132C23.7145 16.7269 23.7256 16.6432 23.7288 16.5512L23.7334 11.427C23.7327 11.1934 23.7502 10.943 23.7119 10.7127L13.8187 10.6904C13.7122 10.8196 13.6636 11.1129 13.6072 11.2759L13.1892 12.4404L12.4772 15.0516L12.2385 16.346C12.1903 16.6122 12.1295 16.8754 12.0953 17.1448L11.6296 22.5704L11.2289 29.0026C11.2159 29.3616 11.1537 29.706 11.143 30.0647L11.1234 31.1136L10.8778 35.3413L10.8722 39.0122C10.8725 39.231 10.8576 39.4696 10.9031 39.684C12.1063 41.0503 15.2203 40.7471 16.9303 40.7868C17.7877 40.8067 18.867 41.0627 19.683 40.6255L20.3708 32.9358C20.6177 29.5811 20.5907 28.3979 22.195 25.2251L23.3402 23.123C23.5322 22.8028 23.8096 22.4153 24.2461 22.6459L24.2697 22.658C24.5139 22.7913 24.6701 23.1563 24.7989 23.3967L25.4791 24.7843L26.0757 26.2906C26.2492 26.7938 26.4002 27.3371 26.5711 27.8185L26.8467 28.8772C26.9326 29.1433 26.9565 29.4558 27.0116 29.7311C27.3042 31.1936 27.371 32.9218 27.5671 34.4528L28.5449 40.2415C28.6306 40.819 28.5619 40.6509 29.1619 40.7352C30.0957 40.8664 31.107 40.909 32.0526 40.8497L33.1344 40.7736C34.2366 40.6722 35.443 40.6466 36.4606 40.1806C36.9535 39.9548 37.0445 39.9073 37.0998 39.4059C37.1384 39.0561 37.1351 38.7071 37.1357 38.3558L37.126 36.1995C37.1158 35.9997 37.0703 35.8024 37.0544 35.6019L36.8311 31.7777L36.3649 24.6723C36.3517 24.4729 36.3088 24.2827 36.2972 24.0823L36.1088 19.7708C36.096 19.5484 36.0447 19.3306 36.031 19.1095L36.005 18.2616C35.8511 15.6731 35.0769 13.1165 34.2018 10.693L24.9372 10.6786Z" fill="black"/>
</svg>
