<svg width="48" height="48" viewBox="0 0 48 48" fill="none" xmlns="http://www.w3.org/2000/svg">
<path d="M23.3542 34.6587L22.7231 36.8591C22.6464 37.1033 22.6685 37.3727 22.6681 37.626L22.6681 38.8945C22.668 39.5421 22.6975 39.8439 22.1108 40.282C20.8837 41.1979 18.6192 41.2471 17.1709 41.2457C16.7183 41.2453 16.2379 41.2716 15.7905 41.2045L13.2902 40.8155C12.5572 40.6496 11.8448 40.4486 11.6902 39.6057L11.6847 39.5749C11.6527 39.3986 11.6691 39.2094 11.6703 39.0303L11.6752 36.4099C11.6731 35.3679 11.7555 35.0193 11.9041 34.0319L12.081 32.4872L12.3089 28.7548C12.3197 28.5637 12.3645 28.3793 12.3758 28.1883L12.5029 24.9352C12.5181 24.7291 12.5591 24.5267 12.5693 24.3193L12.5882 23.0785L12.7542 20.2193L12.9277 16.5864C13.0095 15.1287 13.0358 13.6046 13.499 12.2055L13.9229 11.161C14.0493 10.8735 13.9583 10.8327 13.9145 10.5279L13.6897 8.76837C13.5445 7.87695 13.4061 7.53326 14.5773 7.19862C16.1211 6.75748 17.6921 6.75692 19.2791 6.75922L27.7965 6.75786C27.9734 6.75205 28.149 6.72833 28.3261 6.73583L30.8529 6.78022C31.4889 6.82048 32.1151 6.90715 32.7413 7.02022C33.3594 7.13183 34.1784 7.18812 34.3945 7.90423L34.436 8.05147C34.5017 8.28715 34.3501 8.63806 34.3081 8.8834L34.1752 9.93162C34.1415 10.2301 34.0307 10.6395 34.139 10.9261L34.199 11.1007C34.269 11.3518 34.3827 11.5879 34.45 11.8446C34.7327 12.9233 34.8817 14.0701 34.9791 15.1774L35.1163 16.8332L35.2606 20.7926C35.2711 20.988 35.3127 21.1796 35.3204 21.3757L35.445 24.7155C35.4564 24.9038 35.4934 25.0899 35.5034 25.278L35.6378 27.9924C35.6481 28.1229 35.6745 28.2501 35.682 28.3826L35.7249 29.3873C35.7383 29.5722 35.7714 29.7547 35.7804 29.94L35.9749 32.7351C36.073 34.0529 36.2855 35.3365 36.2867 36.6641L36.2939 38.6166C36.2858 39.6698 36.4608 40.1823 35.3012 40.6962C34.0065 41.2699 32.7046 41.2573 31.3121 41.247L29.3239 41.2342C28.3134 41.1775 25.7292 40.7569 25.3822 39.625C25.3025 39.3651 25.3618 39.081 25.3673 38.813L25.3711 37.6296C25.3658 37.4077 25.3648 37.1678 25.327 36.9497L24.1144 30.7507L23.3542 34.6587ZM18.4348 8.0922L16.1313 8.32109C15.7523 8.37561 15.361 8.41634 14.988 8.50212C15.0417 8.79397 15.1183 9.09912 15.1475 9.39425C15.1951 9.87701 15.1421 9.79855 15.6531 9.8689L17.9176 10.1316L19.8571 10.2213L21.7629 10.2071C21.8949 9.49376 22.9515 9.31226 23.1965 10.0282L23.2732 10.2291L24.2816 10.2237C24.4676 10.2234 24.6729 10.2395 24.8551 10.2044L24.8616 10.1624C24.9789 9.42584 25.8183 9.36504 26.2186 9.95562C26.2822 10.0496 26.2922 10.1568 26.3851 10.232L28.2828 10.2255L29.9347 10.1679C30.945 10.1092 31.8511 9.93195 32.8314 9.8555C32.8431 9.55114 33.0132 8.57998 32.9756 8.46992C32.1119 8.31472 31.2743 8.18675 30.4002 8.13397L27.7329 8.09304L22.4279 8.19987C21.8638 8.19865 21.3012 8.13387 20.7376 8.1049L19.1877 8.08967C18.9414 8.09005 18.6789 8.07242 18.4348 8.0922ZM32.7764 11.2155C31.9677 11.3781 31.1586 11.4772 30.3361 11.541L26.7942 11.6392C26.8855 12.1067 26.9297 12.6285 26.9641 13.107L27.0124 14.2347C27.0466 14.8652 27.3699 16.4599 26.5543 16.5945C26.2093 16.6514 25.9393 16.5272 25.783 16.2194L25.7615 16.1786C25.666 15.9772 25.7074 15.6169 25.7069 15.3938L25.6218 13.4571C25.569 12.8343 25.5228 12.1375 25.3198 11.5437L24.9347 11.5317L24.9256 19.4385C24.9267 19.6767 24.9574 19.9513 24.9232 20.1839C24.8584 20.6245 24.0959 20.7807 23.8252 20.4556L23.7245 20.3187C23.5606 20.0923 23.6414 19.6824 23.642 19.4198L23.6395 12.3303C23.6388 12.083 23.6505 11.8235 23.6169 11.5783C23.5127 11.5846 22.9353 11.5743 22.8835 11.622L22.5448 12.8679C22.3578 13.574 22.3721 14.2012 22.3856 14.9304C22.3903 15.1819 22.4683 15.5252 22.3419 15.7507L22.3282 15.7763C22.2342 15.9441 22.0448 16.0595 21.8629 16.1074C20.9915 16.3368 21.023 15.2013 21.0214 14.7107C21.018 13.6456 21.1238 12.6237 21.4416 11.6043L19.3226 11.5954L17.0055 11.4258C16.4339 11.3765 15.8286 11.35 15.2692 11.2268L15.2551 11.3098C14.9888 12.3113 14.6219 13.0336 14.4868 14.0932L14.3062 16.2449C14.2958 16.4062 14.2648 16.5628 14.2513 16.7233L14.0317 21.721C14.0228 21.9646 13.9803 22.2045 13.9748 22.4491L13.9495 23.7312C13.9317 24.1947 13.7966 24.9376 13.8672 25.3782C15.5678 25.771 17.6473 26.0835 19.4037 26.164L23.3095 26.202C23.3495 25.8219 23.2766 24.6628 23.4174 24.4343L23.4381 24.3994C23.6433 24.0606 24.1098 23.9581 24.4351 24.2015C24.7186 24.4136 24.7096 24.8102 24.7228 25.1287L24.7499 26.1787C24.9442 26.1965 25.1393 26.1814 25.3342 26.1809L28.6217 26.1688C28.7983 26.1599 28.9693 26.119 29.1444 26.1062L30.8551 25.9672C31.9528 25.8433 33.0347 25.6304 34.1184 25.4217C34.1088 25.1953 34.1145 24.9596 34.0922 24.7349C33.9973 23.7739 34.1112 22.805 33.9731 21.8503C33.9372 21.602 33.9389 21.3428 33.9346 21.0922L33.9231 19.6296C33.9175 19.4122 33.8738 19.196 33.8656 18.9771L33.5606 14.5917L33.3044 13.0738C33.1938 12.4687 33.0717 11.789 32.8239 11.2237L32.7764 11.2155ZM13.7653 26.7067L13.5997 29.841L13.5691 31.0252C13.5575 31.22 13.52 31.4065 13.5034 31.5999L13.3141 33.5749C13.2456 34.1456 13.2476 34.7828 13.046 35.3261C12.9425 35.6048 12.9919 36.8674 13.0126 37.2005C13.5696 37.2807 14.1145 37.4324 14.6756 37.5031C16.8272 37.7742 19.2037 37.7402 21.2937 37.1586L21.4041 36.5904C21.6037 35.6678 21.9262 34.7856 22.1536 33.8711C22.5084 32.444 22.6852 30.972 22.8929 29.5193C22.985 28.875 23.1405 28.215 23.1652 27.564L19.4625 27.5524C17.7302 27.4792 15.3792 27.1856 13.7653 26.7067ZM34.1505 26.8015C33.7455 26.8552 33.3469 26.9658 32.9506 27.0385L29.1198 27.4916C28.9118 27.5068 28.7095 27.5419 28.4996 27.5501L25.1018 27.5646L26.6868 36.9327L26.7003 37.1022C26.7395 37.3238 28.2177 37.573 28.4713 37.6009C29.0496 37.6644 29.6364 37.6455 30.2174 37.6446C31.7651 37.6422 32.7157 37.6154 34.2534 37.3304L34.6955 37.2394C34.7576 37.2282 34.8649 37.226 34.9198 37.2L34.9512 37.1794C34.9866 36.0093 34.8421 34.8964 34.7144 33.7352L34.4316 30.087C34.4018 29.4961 34.3512 28.9147 34.3252 28.3241L34.253 27.4523C34.2442 27.3319 34.2885 26.7806 34.1505 26.8015ZM13.0106 38.5905C12.9826 38.7983 12.9659 39.1609 13.0168 39.369C15.1497 39.9773 19.3482 40.2244 21.1775 39.2669C21.3786 39.1264 21.305 38.7999 21.2826 38.5937L18.8668 38.973C18.5243 39.0056 18.1791 39 17.8356 39.0076L17.1324 39.0361C16.3105 39.0315 15.4784 38.9798 14.6642 38.8678L13.0106 38.5905ZM34.9122 38.5905L32.9523 38.9215C32.5763 38.9749 32.2434 38.9969 31.8602 38.9984L30.679 39.0018C29.3652 39.0044 27.918 39.1305 26.6739 38.6102L26.6749 39.0192C26.6754 39.1729 26.7237 39.2442 26.8897 39.2895C28.0602 39.8979 29.4291 39.8601 30.7094 39.8622C32.2658 39.8646 33.2026 39.931 34.6989 39.4693C34.7909 39.441 34.9034 39.4361 34.9604 39.3464L34.9615 38.8355C34.9616 38.7536 34.973 38.664 34.9471 38.5861L34.9122 38.5905Z" fill="black"/>
</svg>
