<svg width="48" height="48" viewBox="0 0 48 48" fill="none" xmlns="http://www.w3.org/2000/svg">
<path d="M24.6207 27.591L24.3847 25.9841C24.3489 25.6721 24.2686 24.8621 23.7239 25.2338C23.6807 25.2634 23.6575 25.4516 23.6508 25.5066L23.1861 28.8345C23.1272 29.3235 23.1671 29.8233 23.1102 30.3162L22.9715 31.2537C22.9002 31.7881 22.8363 32.3278 22.7145 32.8541L22.2343 34.6913C21.9283 35.9539 21.9495 36.3484 21.2294 37.4881C20.9214 37.9758 20.8803 37.916 20.8783 38.5529L20.8762 39.9239C20.8762 40.1973 20.9344 40.618 20.8031 40.8568L20.7865 40.8865C20.4467 41.5226 19.6359 41.6326 18.985 41.7224C16.8727 42.0141 13.6248 41.8243 12.2229 39.9287L12.1291 39.7954C12.0273 39.6289 11.9366 39.4618 11.9288 39.2639L11.9258 15.6027C11.9265 15.1267 11.9704 14.6841 12.0538 14.2146L12.3373 12.949C12.6292 11.8262 13.2572 10.3199 13.2776 9.17976C13.2821 8.92851 13.2266 8.65907 13.2892 8.41227L13.2986 8.37871C13.3407 8.21615 13.4381 8.07679 13.5069 7.92468C14.0594 6.70307 14.331 6.10963 15.7159 6.10823L21.0485 6.10752L32.0014 6.10462C32.354 6.10406 32.7976 6.0554 33.1387 6.1267C34.0659 6.32048 34.4879 7.25231 34.6513 8.0954L34.6587 8.13463C34.7333 8.52196 34.6463 8.92546 34.707 9.30941C34.742 9.53062 34.8535 9.74732 34.9208 9.96074L35.4943 12.1753C35.5707 12.5109 35.639 12.8492 35.7194 13.1834L35.9621 14.4009C36.0186 14.7706 36.063 15.1317 36.0634 15.5061L36.0664 38.2101C36.071 39.8395 36.0324 40.3126 34.5002 41.1101C33.7805 41.4847 32.7348 41.7989 31.925 41.8908C30.7124 42.0284 27.7794 41.9237 27.2422 40.8462L27.2229 40.8061C27.1099 40.5768 27.1467 40.279 27.1459 40.028L27.143 38.662C27.1426 38.4495 27.2175 38.0563 27.0732 37.8802C26.3408 36.9871 25.9398 35.1475 25.6783 34.0193C25.4607 33.0805 25.2091 32.1376 25.0645 31.1841L24.6207 27.591ZM23.4726 7.60077L16.1639 7.60279C15.3067 7.60363 15.2467 7.47941 14.9296 8.44959L17.7959 8.75849C17.9977 8.77996 18.2013 8.81549 18.4045 8.81479C18.8327 8.83279 19.2275 8.89701 19.6238 8.91417L21.9393 9.00665L25.4052 9.00459C25.7964 8.98471 26.3343 8.97346 26.6931 8.9317C26.5087 8.3077 25.9654 7.88868 25.3713 7.66354C25.0415 7.53852 24.6466 7.59412 24.2977 7.59698L23.4726 7.60077ZM31.1457 7.60199L29.0211 7.60223C28.5785 7.6026 28.123 7.58099 27.6833 7.63002L27.6764 7.64938C27.9278 8.0759 28.0292 8.39863 28.1615 8.88196L29.5726 8.74579L32.7307 8.46079C32.8988 8.44663 33.0744 8.44968 33.2395 8.4156L33.2298 8.39465C32.8375 7.52873 33.1075 7.59834 32.0738 7.59942L31.1457 7.60199ZM14.6582 9.91738L14.436 11.074C14.2601 11.8052 13.9998 12.5231 13.7932 13.247L13.4075 14.9469C13.3494 15.2017 13.378 15.5089 13.3775 15.7712L13.3692 20.618C13.3713 20.6778 13.3832 20.7216 13.4044 20.7771L13.4396 20.8125C13.5399 20.7705 13.595 20.6556 13.6467 20.566C14.5094 18.905 14.7563 16.8226 14.8876 14.98L15.1254 11.2229C15.1331 11.0984 15.1599 10.9791 15.1704 10.8558L15.2203 9.9921L14.6582 9.91738ZM33.3274 9.92559L32.9081 9.95891C32.8886 10.2411 32.8999 10.5249 32.9036 10.8075L33.0613 14.0316C33.1497 15.4494 33.2696 17.5821 33.6554 18.9607L33.8549 19.6466C33.9695 20.0121 34.1609 20.4221 34.3896 20.7304L34.4664 20.8291C34.5186 20.8776 34.57 20.9511 34.6254 20.99L34.6312 17.2925C34.6312 16.6521 34.6758 15.9833 34.6198 15.3468C34.5512 14.567 34.3331 13.7941 34.1615 13.0315L33.6201 10.8396C33.5429 10.5429 33.4753 10.2268 33.3775 9.93674L33.3274 9.92559ZM30.9886 10.16L28.1073 10.3926C28.0908 11.7046 28.2076 13.0879 27.977 14.3867C27.8296 15.2173 27.5398 16.0124 27.2754 16.8102C26.796 18.2569 25.6685 18.7574 24.2747 18.7507C23.6682 18.7479 23.2553 18.5421 22.9807 17.9519L22.9416 17.8586C22.7919 17.4982 22.892 16.1666 22.8921 15.7071L22.8918 10.9728C22.8915 10.8176 22.9034 10.6513 22.8804 10.4983L16.7117 10.1858C16.6572 10.5492 16.6733 10.9161 16.6419 11.2814L16.0886 17.5303C15.8889 18.8667 15.2987 21.3943 14.2443 22.1777L13.7073 22.5226C13.5966 22.5831 13.4773 22.5935 13.3799 22.6772L13.3766 29.9674C13.3767 30.5436 13.4059 30.408 13.912 30.7381C14.6462 31.217 15.5638 31.5438 16.4356 31.6015C17.0285 31.6417 17.6382 31.7198 18.2292 31.6325C19.3777 31.4628 20.6236 30.8789 21.346 29.9453C21.6206 29.5904 21.6427 29.3971 21.6812 28.9629C21.7468 28.2233 21.9537 27.4974 22.0396 26.7595L22.121 25.9981C22.1792 25.2329 22.2267 24.5399 22.8884 24.0403C23.8745 23.296 25.0779 23.7435 25.62 24.7439L25.6986 24.9132C25.7816 25.0913 25.7733 25.3287 25.7904 25.5222L26.2055 28.4705C26.2304 28.7734 26.2272 29.0946 26.2854 29.3917L26.2914 29.4242C26.3709 29.8392 27.137 30.5505 27.4815 30.7844C29.4741 32.1379 32.2336 31.7619 34.2073 30.5609C34.3103 30.4982 34.622 30.3714 34.6354 30.2655L34.635 22.8423C34.5383 22.7491 34.4293 22.7378 34.3203 22.6707C32.3991 21.4881 32.1558 19.1869 31.8613 17.1516C31.8033 16.7503 31.7319 16.3263 31.7105 15.9218L31.6217 14.5459C31.5956 13.9763 31.5238 13.3883 31.5165 12.8391L31.4239 10.1456C31.2816 10.1479 31.1291 10.1405 30.9886 10.16ZM25.2092 10.4822L24.3398 10.4895L24.3545 17.2544C24.7666 17.2125 25.1238 17.1502 25.487 16.937C25.923 16.5628 26.5729 14.2594 26.6224 13.6435C26.6827 12.8939 26.6429 12.1149 26.6434 11.3622L26.6434 10.7681C26.6433 10.6756 26.6564 10.5675 26.6285 10.4802L25.2092 10.4822ZM21.2831 32.0506C20.7945 32.3015 20.3478 32.599 19.8306 32.7971C17.9063 33.5342 15.4536 33.1331 13.6319 32.3293C13.5514 32.2938 13.4519 32.2727 13.3839 32.2173L13.376 35.4582C13.376 35.6661 13.3544 35.7934 13.5024 35.9606L13.9202 36.4642C14.6699 37.1764 15.5721 37.71 16.6086 37.8655C18.0808 38.0863 19.7249 37.4419 20.3413 36.0197C20.54 35.5612 20.6193 35.0744 20.7426 34.5936L21.1836 32.7453C21.2274 32.5272 21.2929 32.2989 21.3063 32.0769L21.2831 32.0506ZM34.5933 32.1678C32.6401 33.1424 30.3112 33.5263 28.2335 32.8397C27.7155 32.6685 27.254 32.4172 26.773 32.166L27.2373 34.1717C27.3914 34.8248 27.4841 35.4379 27.7519 36.062C27.8713 36.3165 28.0016 36.5774 28.1717 36.8025C28.94 37.8188 30.5134 38.1014 31.7112 37.8057C32.7937 37.5384 33.6361 37.0926 34.4146 36.2764C34.5949 36.0873 34.6257 36.1392 34.6279 35.8693L34.6313 32.7692C34.6302 32.5755 34.6528 32.3496 34.615 32.1616L34.5933 32.1678ZM13.3934 38.0158L13.3776 38.788C13.3795 39.2198 13.551 39.2269 13.9332 39.4777C15.5398 40.532 17.6022 40.5097 19.4167 40.0942L19.4273 39.8624L19.4195 38.9222C17.3681 39.8315 15.1391 39.4353 13.3934 38.0158ZM34.594 38.1517C33.0937 39.099 31.4502 39.722 29.648 39.3194L28.6194 39.0042C28.5525 39.2173 28.5707 39.8017 28.6014 40.0193L28.6291 40.0971C28.978 40.2629 29.3817 40.2847 29.7541 40.3645C31.2862 40.6925 33.2517 40.1905 34.5554 39.3785C34.5795 39.3635 34.5965 39.3438 34.6153 39.3231L34.622 38.4664C34.6189 38.3723 34.6271 38.2385 34.594 38.1517Z" fill="black"/>
</svg>
