<svg width="48" height="48" viewBox="0 0 48 48" fill="none" xmlns="http://www.w3.org/2000/svg">
<path d="M26.7632 38.5098L26.7471 36.0213C26.6824 35.7621 25.7167 36.2684 25.714 34.7463L25.7119 32.8192C25.7111 32.4058 25.7049 32.3815 25.6165 32.005L24.9729 29.3196C24.8466 28.6449 24.7891 27.9597 24.7465 27.2756C24.3049 27.4098 23.8937 27.4222 23.4631 27.2492C23.3806 27.5462 23.3498 27.8456 23.2998 28.1484L23.1172 29.1743C22.9972 29.8207 22.8136 30.4571 22.651 31.0938L22.4782 31.7439C22.3187 32.3177 22.3013 32.3527 22.3001 32.9976L22.2971 34.5739C22.2951 35.4295 22.3549 35.7978 21.2768 35.8608L21.2675 37.8089C21.2666 38.0606 21.3171 38.4898 21.2187 38.7222C20.7775 39.7647 20.1949 39.7554 19.1662 39.8601L17.3149 39.9963L13.7355 39.9961C12.0877 39.9863 10.6598 39.1156 10.2722 37.4171C10.1935 37.0723 10.3152 36.0235 10.1157 35.968C8.13298 35.4158 8.47451 34.6465 8.59906 32.7801L8.83943 28.5337C8.84942 28.3683 8.88462 28.2091 8.89371 28.043L8.93834 26.8962C9.0192 25.8344 9.04203 24.778 9.12884 23.7255L9.45467 20.0462C9.66776 17.5095 9.82845 15.5338 10.9768 13.2C11.4513 12.2357 11.3412 12.732 11.3406 11.5834L11.3405 9.58754C11.3412 8.881 11.261 8.20436 12.1721 8.0199C12.4783 8.00205 12.6274 8.1647 12.8694 8.31245L13.6783 8.75369C15.3412 9.56106 17.1799 9.98312 19.013 10.1501L21.2487 10.3086L27.0904 10.2598C30.0635 10.1484 32.7706 9.78779 35.3249 8.19878C35.5444 8.06223 35.7378 7.97903 36.0019 8.04925C36.8023 8.26211 36.659 9.14584 36.6582 9.73881L36.6566 11.9091C36.6574 12.5939 36.5428 12.3469 36.8791 12.8726C37.1712 13.3292 37.5259 14.1219 37.668 14.6484L37.7637 14.952C37.7876 15.0615 37.8356 15.1589 37.8586 15.2695L38.1161 16.2893C38.2511 16.9435 38.3557 17.616 38.4229 18.2808L38.8583 23.4374L38.9981 26.8249C39.0031 26.9379 39.029 27.0411 39.0376 27.1515L39.1066 28.5908C39.1173 28.7718 39.1544 28.9506 39.1644 29.1315L39.3683 33.1479C39.4051 33.6525 39.5718 34.2998 39.4346 34.7986L39.4228 34.8398C39.1219 35.9428 37.8222 35.833 37.8099 36.0548L37.8004 36.8599C37.7798 38.4482 36.5607 39.6536 35.0308 39.9339C34.6326 40.0068 34.2397 39.9988 33.837 39.9973L29.2586 39.9427C28.2139 39.8793 26.9838 39.8262 26.7632 38.5098ZM12.6655 9.77987L12.6567 11.5359C12.6578 12.4918 12.476 12.2909 13.3686 12.6712C15.6171 13.6291 18.2211 13.9049 20.6334 14.0618L21.7674 14.0809L21.1338 12.0975C21.0872 11.9631 21.0532 11.7958 20.9726 11.6789C20.4104 11.5961 19.8322 11.639 19.2663 11.5874C17.1827 11.3974 14.4932 10.9006 12.6655 9.77987ZM35.286 9.83195C33.5323 10.9163 30.6013 11.4204 28.5885 11.599C28.3444 11.6207 27.069 11.5606 27.024 11.6976C26.9144 12.0316 26.7985 12.3718 26.7204 12.7148L26.437 14.0741C26.4752 14.1101 26.4713 14.102 26.5197 14.1053L27.7965 14.0663C30.0921 13.9337 33.139 13.4795 35.1384 12.4491C35.4881 12.2689 35.3434 12.2438 35.3457 11.8364C35.3492 11.2429 35.3837 10.6195 35.3421 10.0288L35.286 9.83195ZM22.4143 11.7044C22.4495 11.8718 22.5194 12.0167 22.5741 12.1747L23.1023 13.7795C23.4785 14.7871 23.6743 17.0303 23.4684 18.157L23.3698 18.7448C23.1688 19.6646 22.7237 21.0684 23.0387 21.9951C23.253 22.6255 24.2142 23.219 24.7251 22.3863C25.2168 21.4345 25.0899 18.5867 24.9836 17.4257L24.9424 16.6882C24.867 15.5385 24.9327 14.4087 25.1883 13.2801L25.5838 11.7131L22.4143 11.7044ZM12.2758 13.6564C11.149 15.4765 10.9911 17.6954 10.8395 19.7739L10.731 21.052C11.2828 20.8543 11.7553 20.5574 12.1701 20.1413C13.4221 18.8948 14.0503 17.3008 14.4182 15.6014L14.6128 14.53C14.1526 14.4285 13.6858 14.2758 13.2515 14.0935L12.2758 13.6564ZM35.6953 13.7226L33.4047 14.5839C33.4687 15.3047 33.6514 16.1206 33.8925 16.8046L34.0814 17.3905C34.4997 18.4583 35.0651 19.407 35.9144 20.193C36.3454 20.5647 36.7578 20.8652 37.2917 21.0761C37.2435 20.6985 37.244 20.3207 37.2115 19.9424C37.0782 18.394 36.7403 15.0141 35.7698 13.7226H35.6953ZM15.9594 14.8451C15.8309 15.4591 15.7382 16.0779 15.5721 16.6844C14.9352 19.0105 13.4691 21.69 10.9979 22.4365C10.8516 22.4807 10.7001 22.4974 10.5535 22.5396L10.1312 29.5764L10.1121 30.9843C10.1064 31.1474 10.0571 31.3109 10.0536 31.4685C11.3438 31.7637 12.7251 31.9923 14.051 32.0637L16.7464 32.0648L21.0936 31.6492L22.1153 26.8541L21.2132 26.6012C20.9125 26.518 20.408 26.459 20.2443 26.1568C19.8661 25.4586 20.4889 24.9228 21.2272 25.1875C21.4188 25.2563 21.6303 25.2995 21.8276 25.3511L22.8746 25.6356C23.1368 25.7094 23.4176 25.8422 23.6841 25.884C24.5051 26.0129 24.4295 25.8835 25.0397 25.6513C25.4577 25.4922 25.9108 25.3915 26.344 25.2823C26.8559 25.1532 27.4938 24.8691 27.7983 25.4999L27.8119 25.5276C27.9587 25.8448 27.8068 26.2806 27.4872 26.4257C27.2955 26.5127 27.0717 26.509 26.8677 26.553L26.0298 26.7575C26.0505 27.1569 26.108 27.55 26.1374 27.9491L26.2332 28.8187C26.265 29.0368 26.3352 29.2705 26.3934 29.4843L26.8313 31.2924C26.8561 31.3945 26.8603 31.5024 26.9157 31.5937C27.3492 31.5932 27.7857 31.5833 28.2174 31.6292L30.6532 31.9992L31.1149 32.0612C31.6813 32.1038 32.2571 32.0955 32.8241 32.0759L33.6519 32.0599C34.1929 32.0264 34.7479 31.9465 35.2854 31.8725L37.928 31.471C37.8833 31.0395 37.8972 30.609 37.8797 30.1765L37.4794 22.9237C37.4718 22.8028 37.4849 22.6676 37.4539 22.5512C34.0724 21.6544 32.5452 18.0677 32.0697 14.8875C30.6806 15.1734 29.231 15.3467 27.8155 15.4333C27.3038 15.4646 26.7763 15.4081 26.2695 15.463C26.1958 15.6315 26.2458 16.2446 26.2595 16.4296L26.3453 18.2695C26.3576 18.4813 26.4005 18.6914 26.4103 18.9023L26.416 19.9793C26.4141 21.0212 26.3827 22.0662 25.9016 23.0155C24.955 24.8831 22.4218 24.2603 21.8051 22.5497L21.7128 22.2329C21.5305 21.5302 21.5757 20.6701 21.699 19.9687L22.0836 18.2545C22.1314 18.026 22.1325 17.7978 22.1487 17.5663L22.1946 16.1634C22.1942 15.9378 22.2139 15.6898 22.1774 15.4674L18.8674 15.277C17.9052 15.1892 16.8962 15.0872 15.9594 14.8451ZM9.94573 32.8564L9.85578 34.496C10.178 34.6049 10.5119 34.6571 10.8446 34.7226L11.7552 34.9053C13.7831 35.2559 15.3292 35.4317 17.4226 35.1843L19.7229 34.8069C20.0447 34.743 20.3817 34.7087 20.6983 34.6243L20.9599 34.5842L20.9519 33.033C20.2452 33.1706 19.4991 33.2255 18.7823 33.2918L17.3361 33.4025C17.1702 33.4138 17.0067 33.4424 16.8401 33.4483L14.317 33.4468C13.1458 33.3887 11.1061 33.1733 9.94573 32.8564ZM37.9213 32.871C36.4388 32.9995 35.0182 33.3688 33.4829 33.4491L31.3244 33.4565C30.6751 33.4463 30.0343 33.2987 29.397 33.1855L28.4551 33.051C28.0147 32.9875 27.5101 32.9244 27.0664 32.9829L27.0735 34.6757C27.112 34.7046 27.1413 34.726 27.1857 34.7454L30.0002 35.1811C30.8195 35.2591 31.4798 35.2701 32.3106 35.2692C33.9339 35.2675 36.5047 35.0057 38.086 34.4944L37.9845 32.8895C37.9391 32.8681 37.9607 32.8721 37.9213 32.871ZM19.8476 36.1523C17.7825 36.6525 13.538 36.8532 11.5778 36.2199C11.5676 36.9115 11.5072 37.4057 12.0083 37.9453C12.8202 38.7512 13.5776 38.6249 14.6121 38.6257L17.1567 38.625C17.5271 38.6236 19.5385 38.5279 19.8725 38.3963C19.9292 38.2913 19.9359 36.3428 19.9027 36.1315L19.8476 36.1523ZM36.3852 36.2226C35.654 36.4084 34.837 36.5323 34.0798 36.5756L32.2901 36.5944C30.8939 36.5951 29.5029 36.5449 28.1245 36.2966L28.1121 38.3788C28.1765 38.4574 28.2553 38.4678 28.3479 38.4844L28.6619 38.5232C28.8822 38.5622 29.1256 38.5473 29.3499 38.5616L33.8978 38.6251C34.1845 38.6246 34.4833 38.6475 34.7616 38.5702L34.896 38.5425C35.4477 38.4445 36.1018 37.9982 36.3289 37.4765L36.3422 37.4468C36.4887 37.1124 36.4779 36.5947 36.437 36.2344L36.3852 36.2226Z" fill="black"/>
</svg>
