<svg width="48" height="48" viewBox="0 0 48 48" fill="none" xmlns="http://www.w3.org/2000/svg">
<path d="M25.436 35.717L24.0142 25.7367L21.9747 39.6764C21.793 40.751 21.015 41.5072 19.9377 41.6382C19.6189 41.6769 19.2739 41.6258 18.9519 41.6189L14.8244 41.5037C13.4307 41.4865 12.512 41.2616 11.9769 39.8437C11.8829 39.5949 11.9273 39.2537 11.9274 38.9883L11.9238 37.5512C11.9165 37.3573 11.8656 37.1755 11.8438 36.9848L11.7515 36.2539C11.6979 35.8231 11.6459 35.4082 11.6454 34.9728C11.6442 33.8962 11.6022 32.8791 11.4296 31.8117C11.2777 30.8719 11.0052 29.998 10.7221 29.0912C10.0894 27.0647 9.94962 25.5055 9.94873 23.444L9.95595 21.7739C10.0303 19.9751 10.3459 17.8399 10.8343 16.1255L11.9492 12.5058C12.3677 11.1956 12.6459 10.409 12.7799 9.04405L12.889 6.93575C12.8859 6.49728 13.0441 6.28077 13.4825 6.14441C13.6442 6.13288 13.7754 6.15941 13.9334 6.17797L18.9163 6.60378C19.6125 6.65291 20.4923 6.62572 21.1145 6.73025C21.4499 6.7866 21.8054 6.76771 22.1448 6.76822L26.4513 6.75824L28.4854 6.65361C28.6665 6.64424 28.8429 6.60622 29.025 6.59408L33.1688 6.2766C33.9812 6.19297 35.0979 5.78474 35.1021 7.03799L35.1563 8.84811C35.1948 10.0126 35.2432 10.551 35.6255 11.7192L35.9537 12.7856C36.0069 12.9592 36.0438 13.1487 36.109 13.3173L37.3009 17.2749C37.3365 17.4928 37.417 17.7154 37.4628 17.9331L37.7399 19.3407C37.8873 20.1946 37.9943 21.0935 38.0451 21.9608L38.0458 24.6351C38.0374 24.9061 37.9974 25.1724 37.9748 25.4419L37.9163 26.2856C37.7945 27.3742 37.5095 28.44 37.1932 29.4848L36.7501 30.7973C36.3954 31.9793 36.4626 33.2728 36.3286 34.4887L36.0155 37.4419C35.9765 38.113 36.134 39.5984 35.9549 40.0956L35.9412 40.133C35.7011 40.7975 34.9876 41.2759 34.3152 41.4088C33.9044 41.4899 33.4333 41.4364 33.0116 41.4585L30.7834 41.6055L29.17 41.6156C28.8463 41.6187 28.5104 41.6807 28.1883 41.636L28.1483 41.63C27.3822 41.5226 26.6315 41.0208 26.3497 40.2859L26.3357 40.2484C26.1774 39.834 26.1389 39.3247 26.0537 38.8858L25.436 35.717ZM14.3038 7.68467L14.2237 9.11581C14.2098 9.29961 14.1359 9.59975 14.1808 9.77085L15.4686 9.78538C15.6592 9.79002 15.8419 9.83858 16.0315 9.84786L17.2616 9.86863C17.6198 9.88006 18.0082 9.96238 18.3631 9.91494L18.3547 9.85592C18.2423 9.16972 18.3025 8.67181 18.505 8.02405L14.3038 7.68467ZM33.5234 7.6978L29.3303 8.07252C29.5143 8.66581 29.6878 9.12735 29.6289 9.75838L29.6224 9.94316L33.8118 9.77178L33.7726 8.53531C33.7705 8.2595 33.7934 7.95861 33.7593 7.68641L33.5234 7.6978ZM20.5009 8.32949C19.8875 8.46749 19.5041 9.068 19.735 9.68014L19.7824 9.81271C20.2049 10.8412 21.4784 11.0032 22.4412 11.0065L23.2229 8.42605L20.5009 8.32949ZM26.2425 8.38386L24.7775 8.40899L25.3409 10.5493C25.3869 10.6916 25.3994 10.8529 25.4252 11.0004L26.6899 10.872L27.0851 10.7851C27.4324 10.7127 27.8166 10.4563 28.0081 10.1573L28.051 10.0898C28.1117 9.99392 28.1415 9.90467 28.175 9.79733L28.1864 9.76358C28.2805 9.47591 28.2318 9.11136 28.0923 8.84577C27.7597 8.21272 26.82 8.38035 26.2425 8.38386ZM23.9823 11.0391C23.7294 11.6851 23.4073 13.5026 23.3485 14.2437C23.3088 14.7448 23.3351 15.2638 23.3376 15.7665L23.3521 17.3585C23.3956 18.1222 23.4019 19.0867 23.5017 19.7928C23.6367 19.7295 23.7759 19.6721 23.8968 19.5842C24.3744 19.1428 24.4109 18.9056 24.5144 18.2806C24.6955 17.1875 24.8254 16.0242 24.6842 14.9183L24.3078 12.4588C24.2163 11.9815 24.1297 11.5032 23.9823 11.0391ZM13.8225 11.2071L12.9634 14.027C12.2192 16.4386 11.7368 17.9023 11.4889 20.4377L11.3858 21.6553C11.3739 21.7823 11.3399 21.8996 11.3329 22.0303L11.3195 23.2387C11.3184 23.6531 11.3082 24.0725 11.3341 24.4862L11.411 25.2413C11.524 26.5111 11.7089 27.74 12.143 28.9458L12.3966 29.7544C12.4547 29.9494 12.5322 30.144 12.5712 30.344L12.7273 31.0548C12.849 31.7077 12.9631 32.4144 12.9963 33.0796L13.0302 34.4358C13.0304 34.723 12.997 35.0534 13.0476 35.3353C13.6915 35.3771 13.93 35.5028 14.5263 35.6193C15.2783 35.7663 15.9444 35.6844 16.6934 35.6505L19.3753 35.5535C20.1027 35.5535 20.513 35.581 21.2278 35.6713L22.6964 25.2208C22.7299 24.9844 22.7667 24.726 22.869 24.5083C22.3252 24.4317 21.9042 24.2429 21.3983 24.0462L19.242 23.4368C19.0462 23.3938 18.8203 23.3685 18.6355 23.2925C17.9205 22.9987 17.842 21.6314 19.3325 21.9764C19.9556 22.1207 20.5821 22.2475 21.1908 22.4476C21.9799 22.7069 22.6999 23.0868 23.5302 23.1894C25.3039 23.4087 25.7743 22.945 27.1996 22.3861C27.5324 22.2556 28.9141 21.8364 29.275 21.8949C29.9597 22.0059 30.0725 22.97 29.4705 23.2602C29.2545 23.3644 28.93 23.3821 28.6908 23.4335L27.9351 23.6336C26.8996 23.9506 26.482 24.4459 25.2216 24.574L25.3469 25.1479C25.3761 25.2805 25.378 25.4206 25.3936 25.5554L25.9226 29.5083C25.9538 29.707 25.9597 29.9032 26.0072 30.0998L26.7984 35.6517C27.7702 35.5243 28.8542 35.4963 29.8357 35.5766C30.6791 35.6455 31.5454 35.7905 32.3931 35.7654C33.2245 35.7407 33.9887 35.2955 34.804 35.2642L35.0566 32.7357C35.1127 32.0968 35.1428 31.4608 35.2852 30.8327C35.5341 29.7353 36.0392 28.7078 36.2868 27.6036L36.5547 26.0512C36.6083 25.6895 36.656 25.1839 36.6747 24.8137L36.6961 23.4561C36.7018 21.5324 36.4994 19.6061 36.0285 17.7379L34.0851 11.2193C33.9931 11.1793 33.7775 11.2166 33.6679 11.2178L29.7906 11.3768C28.9519 11.4073 29.0715 11.3088 28.3928 11.7344C27.9311 12.0239 27.4817 12.2071 26.9389 12.284C26.7774 12.3069 25.741 12.3526 25.7194 12.4003C26.1805 14.5104 26.2074 15.9657 25.9655 18.046C25.7922 19.5362 25.4507 20.7087 23.8346 21.1638C23.4174 21.2812 22.9744 21.3963 22.5735 21.1644C22.0017 20.8337 22.1511 20.318 22.1201 19.7604C22.1089 19.5585 22.0609 19.3615 22.0488 19.1605L21.9576 14.9627C21.9585 14.348 21.9666 13.709 22.0875 13.1046L22.1511 12.7147C22.1655 12.631 22.1946 12.5339 22.1857 12.4496C21.328 12.3762 20.5283 12.2993 19.7744 11.8436L19.3162 11.5348C19.1216 11.3953 19.0751 11.4133 18.8327 11.3943L13.8225 11.2071ZM34.4768 36.8052C33.8702 36.8943 33.2962 37.1663 32.7023 37.2081C31.8124 37.2708 30.9661 37.0968 30.0899 37.0299C29.613 36.9935 29.1268 37.0116 28.6485 37.0117L27.1572 37.0175C27.1712 37.1984 27.2133 37.358 27.2439 37.5349L27.4235 38.4848C27.506 38.9062 27.5384 39.3585 27.668 39.7677C27.741 39.9229 27.864 40.0679 28.0267 40.1346L28.137 40.1713C28.4134 40.2567 28.8011 40.1697 29.0917 40.1603L31.7669 40.0533C32.2597 40.0356 32.7596 40.0714 33.2508 40.037L33.7733 39.986C34.1396 39.9528 34.4967 39.9127 34.6396 39.5161L34.6483 39.4928C34.6846 39.3869 34.6683 39.2417 34.6633 39.131L34.6048 37.2799C34.6042 37.0032 34.7199 36.7769 34.4768 36.8052ZM13.3137 36.8086L13.3266 39.0281C13.3189 39.4465 13.307 39.8476 13.8397 39.9591C14.6555 40.13 15.538 40.0275 16.3692 40.0597C16.6323 40.0699 16.8876 40.123 17.15 40.1345L18.849 40.1553C19.3534 40.1698 19.9846 40.3297 20.3718 39.8977L20.5131 39.7213C20.6831 39.1933 20.9015 37.7072 20.9417 37.13C20.2758 37.0118 20.1338 37.0101 19.4314 37.0096L16.6612 37.112C15.5638 37.1855 14.3555 37.1671 13.3137 36.8086Z" fill="black"/>
</svg>
