<svg width="48" height="48" viewBox="0 0 48 48" fill="none" xmlns="http://www.w3.org/2000/svg">
<path d="M26.318 37.1161L23.9259 26.8923C23.8224 27.3254 23.7616 27.7682 23.683 28.2062L22.7354 32.8716L21.0133 40.8005C20.8374 41.5368 20.7105 41.6079 19.9118 41.7499C19.2524 41.8672 18.5467 41.9489 17.8753 41.9781L16.0944 41.985C14.4291 41.9852 13.2419 41.7814 11.5962 41.4126L6.92059 40.2018C5.47675 39.8223 4.9644 39.9621 5.33889 38.2741L5.78106 36.3483L8.3132 24.1177L10.8451 10.9692C10.9615 10.4079 10.9497 10.142 10.9553 9.58641L10.9646 6.85857C10.9653 6.4313 11.1187 6.19238 11.5365 6.0271L35.9514 6.01815C36.344 6.01913 36.7219 5.98121 36.9481 6.38316L36.9669 6.41794C37.0669 6.60132 37.0494 6.85416 37.061 7.05985L37.0798 9.57319C37.079 10.4462 37.1158 10.7408 37.2674 11.602L38.5169 18.244C38.5487 18.4116 38.5939 18.5813 38.6141 18.7503L40.1343 26.2893C40.2121 26.5339 40.2675 26.8668 40.3017 27.1239L42.1767 36.0629C42.1912 36.157 42.2257 36.2441 42.2448 36.3372L42.4228 37.1489C42.5439 37.6463 42.608 38.1673 42.7763 38.6529C43.1474 39.7243 42.0024 39.8756 41.2874 40.0654L35.4973 41.504L34.1306 41.7289C33.4142 41.8445 32.6754 41.9416 31.9495 41.9762L30.902 41.9824C30.5835 41.9823 30.2594 41.9933 29.9417 41.9748L28.5276 41.8743C27.361 41.821 27.3642 41.0511 27.1027 40.1186L26.318 37.1161ZM13.0495 7.48707L12.4647 7.4963C12.3811 7.6695 12.446 8.71955 12.4634 8.92111C12.8526 8.92135 13.2802 8.88675 13.6644 8.93883C14.2854 9.02297 16.1825 9.49665 16.8082 9.77002C17.4298 10.0416 17.4467 10.9012 16.8317 11.1647L16.805 11.1763C16.4575 11.3228 16.0542 11.121 15.7189 11.026C14.4092 10.6549 13.8581 10.3756 12.4845 10.44L10.1634 22.7264C10.1274 22.9507 10.1721 22.9845 10.269 23.1931C11.0631 24.9035 12.6244 26.8166 14.16 27.9761L15.3422 28.8316C15.4734 28.9249 15.6548 29.0113 15.7594 29.1303C16.1996 29.6309 15.7942 30.4693 15.102 30.3015C14.7838 30.2243 14.4729 29.9795 14.1995 29.8045C12.4708 28.6981 10.7486 26.959 9.70511 25.1599L9.62982 25.0339L7.86156 33.7936C7.64978 34.8207 7.46336 34.5806 8.3387 35.3012C10.165 36.8048 13.5619 37.9634 16.0038 37.7769C17.1275 37.6911 18.1361 37.2146 19.1177 36.698L19.872 36.3029C19.9851 36.2457 20.1092 36.205 20.2174 36.1395C20.3087 35.8984 20.391 35.6868 20.6206 35.5466L22.4381 26.7673C22.5122 26.4592 22.6164 26.4539 22.4789 26.1594L22.138 25.4685C21.923 25.0811 21.5685 24.4941 22.0667 24.1451C22.5383 23.8148 22.9504 24.1308 23.3127 24.437L24.8675 23.5093C25.0428 23.4158 25.2386 23.2922 25.4303 23.2416C26.1233 23.0588 26.5881 23.9877 26.114 24.4972C25.6899 24.953 24.998 25.0607 25.2587 25.8705L25.4901 26.8777L27.0092 33.5687C27.0856 33.9788 27.3034 34.8207 27.4358 35.2042C27.6505 35.8263 28.9165 36.6007 29.5028 36.8826C30.8599 37.5351 31.7153 37.5157 33.1436 37.5168L35.1674 37.5045C37.3188 37.4098 38.7069 37.0872 40.6266 36.05L38.6485 26.5552C38.5862 26.2403 38.5531 25.8904 38.4406 25.5899C37.8408 26.822 36.4055 28.3101 35.1712 28.9403C33.4827 29.8024 33.5424 28.3457 34.1395 28.2475C34.6698 28.1602 34.8945 28.5554 35.5024 27.9354L35.531 27.9071C35.7121 27.6696 35.5502 27.1545 35.7377 26.8448C35.9157 26.5505 36.1906 26.2908 36.4051 26.0206C37.095 25.1519 37.9987 23.8754 37.8283 22.7188L36.406 15.3755L35.5237 10.3645C34.2333 10.1751 33.671 10.5893 32.4667 10.956C32.3024 11.006 32.1556 11.0813 31.9808 11.0909C31.2547 11.1309 30.7921 10.1371 31.46 9.72197C31.9439 9.42127 33.6047 8.9506 34.1583 8.82797C34.6136 8.72715 35.0934 8.8103 35.5523 8.81096L35.5534 7.49363L13.0495 7.48707ZM7.32779 36.4166L6.82262 38.5511C7.14564 38.6779 7.49823 38.76 7.83367 38.8519L12.2132 39.9731C13.6974 40.2715 14.6738 40.4299 16.167 40.4309L17.9732 40.4085L19.6107 40.2374L19.788 39.2516L20.086 37.8162C18.7259 38.7094 17.0277 39.2891 15.3925 39.2862C12.8057 39.2816 9.86537 38.1916 7.76223 36.7431L7.32779 36.4166ZM40.8848 37.6059C39.1925 38.6961 37.1525 38.9855 35.18 38.9863L31.9674 38.9848C31.7188 38.9843 31.4427 39.0074 31.1994 38.9545L31.1632 38.9464C30.0784 38.7125 28.9688 38.4305 28.0595 37.7558L28.4231 39.2039L28.4362 39.2371C28.5422 39.5175 28.5587 40.0425 28.7299 40.2743L30.7503 40.4168C31.2792 40.4498 31.7708 40.3951 32.2936 40.3557L33.0701 40.3033C34.3187 40.1733 35.549 39.9124 36.7691 39.6264L41.1866 38.4968C41.1075 38.2023 41.0412 37.8903 40.9192 37.6103L40.8848 37.6059Z" fill="black"/>
<path d="M22.1553 11.8395C22.0817 11.8734 22.0153 11.8983 21.9349 11.9109L21.9022 11.9156C21.1732 12.0259 20.4673 11.2179 20.362 10.562C20.1983 9.54245 20.8494 7.97434 21.9294 7.69098C22.0754 7.67298 22.2547 7.68024 22.3967 7.71938L22.4295 7.72899C23.2291 7.9569 23.3042 8.85821 22.5198 9.16909C21.9299 9.40285 21.8061 9.7652 21.824 10.3983C22.6569 10.5714 22.8096 11.3606 22.1553 11.8395Z" fill="black"/>
<path d="M27.0528 11.9367C25.9833 11.9354 25.8916 10.8627 26.7348 10.435C26.6877 9.99154 26.4782 9.44114 26.025 9.27084C25.5497 9.09225 25.1239 8.81437 25.5064 8.20087C25.6466 7.97597 25.8383 7.89098 26.0839 7.83253C26.198 7.82479 26.288 7.82376 26.3994 7.85906L26.4378 7.87176C27.1703 8.10454 27.9164 8.89551 28.1134 9.62104L28.1665 9.7935C28.367 10.7027 28.0514 11.7432 27.0528 11.9367Z" fill="black"/>
<path d="M24.5472 19.4764C23.5416 19.4946 23.6354 18.7031 23.6347 17.9427L23.6313 11.8275C23.6311 11.1391 23.5953 10.4282 23.6385 9.74196C23.6608 9.38951 23.9279 9.14379 24.2613 9.07357C24.6925 9.04268 24.8691 9.33016 25.072 9.66171C25.2078 9.88371 25.1549 10.2209 25.1557 10.4695L25.163 17.7409C25.1644 18.3719 25.3604 19.2767 24.5472 19.4764Z" fill="black"/>
</svg>
