<svg width="48" height="48" viewBox="0 0 48 48" fill="none" xmlns="http://www.w3.org/2000/svg">
<path d="M25.9097 37.94C25.7083 37.0991 25.4796 36.2917 25.3555 35.4324C25.2778 34.8939 25.3201 34.3325 25.1879 33.8033C24.9165 32.7176 24.3715 31.7068 24.0755 30.6225L24.0699 30.6014C23.779 31.1284 23.5676 31.7164 23.3415 32.2736L22.9468 33.2938C22.7041 33.987 22.73 34.6416 22.6763 35.3668C22.5548 37.0064 22.1249 38.578 21.4039 40.053L20.9829 40.8557C20.8518 41.1162 20.7688 41.3902 20.5815 41.6185C19.5282 42.9028 16.8074 43.1157 15.176 43.0012C12.6506 42.8239 8.45325 41.6494 6.50335 39.8641C5.63714 39.071 5.06124 38.0012 6.11189 37.1117C6.24713 36.9972 6.2025 36.8683 6.2265 36.7012L6.36942 35.9195C6.50395 35.2642 6.68794 34.6111 6.87305 33.9686L7.47825 32.1564C7.97555 30.7008 8.47538 29.2606 8.84977 27.7671L9.27413 25.6642L9.49758 23.8245C9.60727 22.9756 9.81089 22.1557 10.0739 21.3424L11.0391 18.5247C11.3557 17.5427 11.6145 16.5366 12.0324 15.5907C12.744 13.9805 13.7038 13.2238 13.977 11.3128L14.0469 10.6982C14.0717 10.5396 14.1415 10.3935 14.1614 10.2357L14.3713 7.76849C14.43 7.19366 14.5355 6.62478 14.6588 6.06078C14.7605 5.59621 14.803 5.09539 15.3333 4.94994C15.6135 4.91108 15.9368 5.01552 16.2174 5.05077L21.4455 5.44982L26.7662 5.45272C27.0231 5.44935 27.3065 5.46238 27.559 5.41367C28.0244 5.32391 28.5278 5.37247 29.0008 5.33296L32.2853 4.96991C32.7118 4.90991 33.0926 5.03727 33.1788 5.49444L33.5823 7.67324C33.6504 8.04917 33.6723 8.47208 33.6999 8.85692L33.7542 9.99411C33.8247 11.102 34.0523 12.5588 34.6185 13.4909L35.2707 14.4863C35.8752 15.5147 36.3999 16.6828 36.729 17.8361L37.1049 18.9846C37.2151 19.3795 37.3728 19.7781 37.5154 20.1631L38.14 22.0507C38.2299 22.4882 38.368 22.8966 38.4383 23.3439L38.6377 24.8293C38.7196 25.5285 38.8813 26.9025 39.109 27.5721L39.639 29.5197C39.7395 30.0049 39.9557 30.4872 40.1014 30.9611L40.95 33.3652L41.7604 36.725C41.771 36.7883 41.7684 37.0496 41.7938 37.0875C41.9333 37.2957 42.182 37.3453 42.3611 37.7379L42.3753 37.7697C43.1696 39.5112 39.9361 40.99 38.7134 41.5014C36.5863 42.3911 34.2799 43.0048 31.9632 43.0118C30.4492 43.0164 28.3761 42.7402 27.3915 41.4788C27.2383 41.2825 27.1577 41.0181 27.0521 40.7947L26.5074 39.6515C26.2724 39.0894 26.1023 38.5159 25.9097 37.94ZM16.0455 6.58677C15.8872 7.4743 15.6817 9.27008 15.7016 10.1945C16.2316 10.2156 16.7834 10.1885 17.3088 10.2486L20.0572 10.6293C21.3263 10.7498 21.4793 10.701 22.5907 10.3514C22.3982 9.50464 21.4965 9.73382 21.3186 9.03003C21.1905 8.52271 21.678 8.07247 22.1725 8.14831C22.9965 8.27469 23.5675 8.85135 24.0759 9.46841L24.0884 9.43649C24.31 8.87778 24.9191 8.41944 25.4664 8.19627L25.6057 8.15507C26.3184 7.97755 26.9995 8.63469 26.5597 9.28142C26.2255 9.77282 25.5652 9.53192 25.4753 10.383L25.4586 10.547L25.9396 10.5891L32.2783 10.1923C32.2093 9.3335 32.1799 8.46303 32.0614 7.60972L31.8676 6.58677L28.4569 6.91752L26.5637 6.99055L21.7502 6.99266L19.676 6.92492C18.56 6.88344 17.1229 6.75449 16.0455 6.58677ZM15.4697 11.7286C15.1763 13.4239 14.8767 13.8071 14.0086 15.1432C13.5768 15.8079 13.2921 16.4612 13.0394 17.2088L12.2798 19.6174C11.607 21.5884 11.1572 22.7518 10.9255 24.8155L10.7381 26.1167C10.4962 27.6575 10.0762 29.1534 9.59719 30.6332C9.02944 32.3873 8.3266 34.1038 7.91995 35.9064C7.85147 36.21 7.74619 36.5469 7.73386 36.8579L8.64333 36.8613C10.1737 36.8716 11.3676 37.5046 12.7355 38.1168C14.0359 38.6989 15.3909 39.0144 16.8109 39.0928C18.0972 39.1637 18.5594 39.2884 19.82 39.7434C20.5724 38.4411 21.0334 36.8739 21.1845 35.3773C21.2416 34.8112 21.2095 34.2681 21.2994 33.6658C21.4343 32.762 23.0707 28.4177 23.8127 28.1696L23.8455 28.1582C24.405 27.9771 24.7455 28.3593 24.9548 28.8177L26.6622 33.5098C26.7945 33.9761 26.7805 34.4597 26.8184 34.9376C26.8744 35.6424 26.9987 36.4164 27.2273 37.0862L27.8518 38.9535C27.9422 39.2397 28.1062 39.5732 28.2598 39.8262C29.6507 39.1433 31.0826 39.2186 32.5361 38.8432C33.6786 38.5481 34.7357 38.0861 35.8269 37.6504L36.5447 37.3912C37.7413 36.9808 39.0017 36.8453 40.263 36.8687L39.6447 34.1978L37.8984 28.8691C37.6307 27.8554 37.4001 26.8066 37.243 25.7697C37.1204 24.9602 37.0945 24.1294 36.9282 23.3278C36.7245 22.3459 36.3599 21.4004 36.0312 20.4562L35.0257 17.4994C34.77 16.7728 34.4897 16.0407 34.0804 15.3846C33.7241 14.8135 33.2681 14.2742 32.9888 13.6614C32.7075 13.0443 32.6309 12.4149 32.4477 11.7786C31.4678 11.7661 30.4931 11.8927 29.5189 11.9794L28.6342 12.0215C28.4404 12.0349 28.2506 12.0762 28.056 12.0832L26.3836 12.0886C26.2042 12.0886 25.9288 12.0543 25.7628 12.1022L25.7709 12.1221C25.948 12.5989 26.0287 13.1998 26.1948 13.6165L26.2799 13.9045C26.5006 14.4881 26.2773 15.2514 26.1682 15.8335C26.0008 16.7256 26.0429 17.7516 26.2825 18.634C26.5079 19.4636 25.0944 19.7757 24.8192 18.9611L24.8085 18.9305C24.5953 18.3013 24.4782 16.6297 24.6016 15.9268L24.8025 14.967C24.9737 14.0604 24.4683 13.0416 24.1428 12.2193C24.0014 12.3477 23.8973 12.6209 23.8144 12.791C22.6073 15.2644 23.3717 14.7653 23.4244 16.993L23.428 18.9135C23.4212 19.3842 23.4142 19.9005 22.9455 20.1603C22.5333 20.3888 22.1241 20.2225 21.9212 19.8166L21.9052 19.7855C21.8035 19.5696 21.8839 19.1512 21.9034 18.9155L21.9225 18.4024C21.9302 17.6931 21.9263 16.9812 21.835 16.2766L21.6467 15.18C21.5087 14.0979 21.926 13.0734 22.4179 12.1379L20.2278 12.1875C19.9257 12.1788 19.6167 12.1781 19.3189 12.1213L18.8563 12.0513C17.6213 11.8247 16.7448 11.7101 15.4697 11.7286ZM8.06536 38.4314L7.30458 38.5018C8.19938 39.6255 10.7855 40.5115 12.0939 40.8729L13.116 41.1063C14.5633 41.432 16.4817 41.7028 17.9165 41.2894C18.2319 41.2323 18.5417 41.1139 18.8326 40.9806C17.9 40.5706 16.8451 40.6493 15.857 40.5687C14.6376 40.4692 13.3591 40.0444 12.2467 39.5633C11.3106 39.1585 10.3834 38.6128 9.36502 38.4521C8.95224 38.387 8.48433 38.4305 8.06536 38.4314ZM39.2512 38.4408C37.4682 38.6178 36.8485 38.8985 35.2122 39.5685C34.136 40.0091 33.0078 40.3793 31.8541 40.5499L30.2757 40.7709C29.9587 40.8256 29.6139 40.8937 29.3176 41.019C29.8593 41.2241 30.3617 41.345 30.9326 41.4346C34.1041 41.4298 36.5978 41.0772 39.4746 39.4813C39.9149 39.237 40.4656 38.9509 40.7528 38.5194C40.4071 38.429 39.6317 38.3862 39.2512 38.4408Z" fill="black"/>
</svg>
