<svg width="48" height="48" viewBox="0 0 48 48" fill="none" xmlns="http://www.w3.org/2000/svg">
<path d="M25.7982 22.5189L25.6155 18.6323C25.5781 17.9296 25.2868 18.205 24.785 18.2653C24.2838 18.3255 23.6891 18.3229 23.1928 18.2645C22.2876 18.1578 22.3271 17.8828 22.319 19.1434L22.3002 20.4202L22.1037 24.2691C22.0906 24.4555 22.0588 24.6403 22.0536 24.8274L22.0454 30.3419C22.0441 30.9549 22.0316 31.5661 21.9317 32.1726C21.7546 33.2489 21.403 34.289 21.2399 35.3701C21.2107 35.564 21.3845 35.5811 21.4587 35.7418L21.4694 35.7652C21.5166 35.847 21.5471 35.9068 21.5501 36.0046L21.5385 39.1649C21.5383 39.3901 21.6101 39.6837 21.4367 39.8589L21.4133 39.8822C21.1313 40.1704 20.9049 40.1592 20.5283 40.2253L19.1384 40.4563C17.9774 40.6234 16.8021 40.1115 15.7403 39.7138C14.6999 39.3241 14.8474 39.4352 14.8508 38.3472L14.854 36.1349C14.8528 35.6394 14.8821 35.3474 15.443 35.2992C15.4687 35.1887 15.4519 35.0445 15.4511 34.9295L15.2976 31.898L15.2819 30.172C15.284 29.7874 15.3343 29.4193 15.3737 29.0386L15.5597 26.9097L15.5645 18.9499C15.5619 16.814 14.6606 14.9306 15.6087 12.8122C15.839 12.2977 16.3742 11.6813 16.3753 11.1792C16.3769 10.5211 16.4549 9.84407 16.7114 9.2317L17.0517 8.49707C17.2288 8.06095 17.1247 7.72434 17.653 7.52713L29.6938 7.51855C30.938 7.51865 30.4966 7.53885 30.9584 8.49121C31.2673 9.12857 31.5452 9.82757 31.5984 10.541C31.6551 11.3009 31.5091 11.2593 31.9192 11.9292C32.1084 12.2382 32.3203 12.5671 32.4517 12.9049L32.6092 13.3611C32.9841 14.9189 32.8438 15.8091 32.5477 17.4019C32.4245 18.0652 32.437 18.7082 32.4375 19.3802L32.4374 25.4839C32.4376 26.1031 32.4038 26.7438 32.4484 27.3599L32.7096 29.8372C32.7713 30.6086 32.751 32.1138 32.6423 32.8355C32.5823 33.2335 32.6139 33.6556 32.5967 34.0585C32.5847 34.3402 32.3856 35.2975 32.6569 35.3337C32.7805 35.3501 32.9607 35.3841 33.0441 35.4889L33.0621 35.5182C33.2049 35.7351 33.1622 35.9185 33.1627 36.1708L33.1631 38.4636C33.1617 39.5529 33.1972 39.3855 32.3463 39.6746L30.8274 40.2262C30.4513 40.342 30.0761 40.4142 29.6856 40.4588C29.1899 40.5156 26.4948 40.368 26.4502 39.6372L26.4402 35.9348C26.4598 35.7487 26.6486 35.6024 26.7888 35.4994C26.6194 34.412 26.1881 33.1558 26.0798 32.1421L25.9479 30.1316L25.9413 25.3706L25.7982 22.5189ZM18.3394 8.67102L18.1197 8.6977C17.709 9.83549 17.5439 9.96426 17.5015 11.2964C17.4628 12.5127 16.311 13.143 16.2342 14.8719C16.1799 16.0919 16.6322 17.2412 16.638 18.4494L16.6397 27.1357C16.6344 27.3084 16.6034 27.4769 16.5924 27.6486L16.4652 29.038C16.4241 29.3899 16.3656 29.7271 16.3623 30.0832L16.4024 32.4722C16.4178 32.7169 16.4757 32.9482 16.4856 33.1946L16.5044 34.9097C16.5111 35.182 16.5538 35.4477 16.5494 35.7227C17.1514 35.8638 19.5364 36.1027 20.1149 35.8741C20.2134 34.7704 20.4376 33.7475 20.7021 32.6738L20.878 31.8672C20.9174 31.7032 20.9211 31.525 20.9313 31.3567L20.9523 25.1604L21.0335 23.4671C21.0422 23.3431 21.0762 23.2248 21.0837 23.1013L21.1965 19.7602L21.2646 18.9335C21.2887 18.3926 21.2065 17.8834 21.614 17.4596L21.5847 17.4342C21.0538 16.9642 20.0882 15.8061 19.989 15.187L19.9834 15.1538C19.9155 14.7115 20.3838 14.2028 20.7954 14.524C20.955 14.6485 21.0474 15.004 21.169 15.1919C21.3516 15.474 22.4442 16.8031 22.71 16.9851C22.9701 17.1632 24.1948 17.1706 24.4921 17.1482L24.9824 17.0936C25.2519 17.0682 25.2084 17.0487 25.3963 16.8484C25.9171 16.293 26.5592 15.7318 26.914 15.0473C26.9961 14.889 27.0396 14.7203 27.1319 14.5665C27.3715 14.3975 27.7255 14.3443 27.9143 14.6178L27.9637 14.7049C28.4411 15.5283 26.8315 16.8734 26.3631 17.4821C26.8386 18.1136 26.6739 18.9135 26.7357 19.6519C26.7484 19.8047 26.781 19.9551 26.7893 20.1089L26.8199 21.2222C26.8312 21.4344 26.8683 21.6443 26.876 21.8568L26.8996 23.2088C26.9082 23.3806 26.9464 23.5431 26.9623 23.7131L27.0167 27.6542C27.0206 27.8242 27.0552 27.9898 27.0612 28.1589C27.1068 29.4599 26.9995 30.7646 27.1791 32.0585C27.2221 32.3681 27.3255 32.6695 27.3849 32.9761L27.7985 34.9331C27.8635 35.2551 27.8479 35.5992 27.9175 35.9117L28.913 35.9782C29.7602 35.9937 30.6198 35.889 31.4467 35.7093C31.4334 35.219 31.4763 34.744 31.4892 34.2557L31.6116 31.9035L31.6256 30.0365C31.6217 29.7141 31.5581 29.4044 31.5231 29.0855L31.3617 27.3077L31.3571 19.5967C31.3575 18.7817 31.3003 17.9062 31.4876 17.1081C31.7767 15.8765 31.9318 14.5273 31.4276 13.3282C31.0143 12.3454 30.5975 12.4232 30.5287 11.2128C30.4512 9.84909 30.3035 9.8872 29.866 8.67079L18.3394 8.67102ZM32.0339 36.6909C30.767 37.0727 28.8103 37.3035 27.5201 36.9469C27.5363 37.1813 27.5098 39.091 27.5684 39.1401L27.6037 39.1575C27.9558 39.1817 28.2527 39.241 28.5585 39.2814C30.3339 39.5155 30.4273 38.9942 31.8157 38.6831C31.8856 38.6675 32.013 38.6588 32.0693 38.6194L32.0822 37.3441C32.0819 37.1372 32.1059 36.8931 32.067 36.6917L32.0339 36.6909ZM15.9451 36.7122C15.8897 37.1781 15.8629 38.1498 15.9346 38.6131L15.9556 38.6171C16.4074 38.7062 16.8386 38.9425 17.2733 39.0922C18.3789 39.4732 19.3616 39.2679 20.4888 39.117C20.5013 38.9452 20.4622 38.7103 20.4612 38.5318L20.4712 36.9406L19.659 37.0751C18.7732 37.2394 16.7499 36.9719 15.9451 36.7122Z" fill="black"/>
<path d="M24.3573 9.9937C23.8379 9.8962 23.1222 9.92442 22.9686 10.5233C22.6734 11.6741 21.348 10.4756 22.2667 9.4275C22.6326 9.01013 23.1302 8.90845 23.6599 8.86861C24.467 8.83847 25.444 8.83327 25.8819 9.66483L25.8954 9.69127C26.5486 10.9528 25.2135 11.2871 25.0454 10.6233C24.9279 10.159 24.8914 10.0406 24.3573 9.9937Z" fill="black"/>
<path d="M23.9915 14.5723C23.8046 14.5454 23.642 14.4623 23.559 14.2805L23.547 14.2525C23.416 13.9526 23.459 13.622 23.4585 13.3024L23.4585 11.1123C23.4594 10.5748 23.4123 10.2439 24.0357 10.181C24.5727 10.1536 24.5379 10.5477 24.5383 10.9316L24.5382 13.3466C24.5376 13.879 24.6837 14.4497 23.9915 14.5723Z" fill="black"/>
</svg>
