<svg width="48" height="48" viewBox="0 0 48 48" fill="none" xmlns="http://www.w3.org/2000/svg">
<path d="M24.2228 40.2485L19.1017 40.2507C17.8637 40.2646 17.0637 40.0015 17.0554 38.666L17.0541 37.6758C17.0531 37.4758 17.116 37.2256 16.9182 37.1018L16.8703 37.0697C16.7713 36.9879 16.6825 36.8339 16.6084 36.7275C15.9784 35.8225 15.6765 34.8375 15.681 33.7476L15.9559 29.9264L15.9828 28.4924C15.9747 27.5814 15.8693 26.9394 15.6041 26.0869C15.4488 26.4424 15.345 26.8137 15.2185 27.1793L14.5719 29.0391C13.9079 30.9889 13.01 33.4531 12.6667 35.4814L12.3332 38.6018C12.3034 38.9518 12.3233 39.8057 12.1806 39.968L12.1551 39.9962C12.0447 40.1228 11.91 40.2525 11.7329 40.2581L8.57665 40.255C7.80992 40.2761 7.2785 40.3413 7.31098 39.4219L7.32673 37.6867C7.32776 37.3647 7.31595 37.036 7.3354 36.7147L7.43243 35.1268C7.80945 29.525 9.60739 23.7528 11.8368 18.6329L12.7545 16.7445C13.7387 14.9083 14.8599 13.5974 16.9689 13.1532C17.1629 13.1123 17.3933 13.125 17.5762 13.053C18.0751 12.1291 19.1271 11.3664 19.2169 10.2501C19.2458 9.88901 19.1638 9.47 19.276 9.12284L19.2901 9.08211C19.7963 7.59476 22.4405 7.70487 23.6644 7.69203C23.9296 7.66058 24.1956 7.69433 24.4611 7.69718C25.7084 7.71054 28.1162 7.63259 28.6752 8.9359C28.9199 9.50647 28.6543 10.1479 28.8963 10.7288C29.2133 11.4898 29.6611 11.9427 30.1428 12.597C30.5637 13.1688 30.2768 13.0167 31.008 13.1459C32.9093 13.4818 34.1785 14.7935 35.0776 16.4196L36.2942 18.95C36.6309 19.6141 37.1777 20.9459 37.3835 21.6329L39.1749 27.1224C39.1826 27.1603 39.19 27.194 39.2023 27.2311L39.3619 27.8251C39.4442 28.2238 39.5549 28.6328 39.6575 29.0274L39.8021 29.6247C39.8197 29.7133 39.8224 29.8077 39.8442 29.8946L40.5136 34.4015C40.5731 35.0445 40.5769 35.5563 40.5975 36.201C40.6042 36.4135 40.6539 36.6221 40.6633 36.8321L40.6703 39.2093C40.7034 40.5535 40.2143 40.2555 39.1627 40.2522L36.5141 40.2594C35.7466 40.2688 35.7251 39.9146 35.6998 39.2185C35.6067 36.6583 35.2878 34.9178 34.5239 32.461L32.6927 27.0859C32.5789 26.7872 32.4365 26.4661 32.372 26.1528C32.1046 27.0126 32.0379 27.7034 32.038 28.5889L32.0482 29.8129C32.0604 30.0742 32.1084 30.3266 32.1291 30.586L32.2686 32.4024C32.4079 33.872 32.314 35.2205 31.5263 36.5226L31.2359 36.9598C30.971 37.3243 30.9526 37.2625 30.9505 37.7081L30.9452 38.5595C30.9419 38.7963 30.9407 39.0532 30.8491 39.275L30.8333 39.3119C30.6682 39.7052 30.4281 39.967 30.034 40.1378L30.0002 40.1521C29.6834 40.2878 29.3495 40.2484 29.0126 40.2484L24.2228 40.2485ZM23.1052 8.80034C22.413 8.80142 21.7313 8.79439 21.0598 8.98883C20.4853 9.15523 20.0685 9.27148 20.5782 9.76179C21.0851 10.2495 21.93 10.5393 22.6188 10.6077C23.1982 10.6651 24.3888 10.7864 24.9456 10.6467C25.7084 10.5758 27.4191 10.2477 27.7399 9.41023C27.5719 8.97917 26.5994 8.87595 26.22 8.8452L23.1052 8.80034ZM20.1732 10.8275C20.0873 11.0538 19.9666 11.3189 19.9114 11.5539C21.8167 13.144 25.7004 13.254 27.785 11.8018L28.1252 11.5505L27.824 10.8176C27.4808 11.0425 27.1392 11.2408 26.751 11.3793C24.9005 12.0394 21.8137 11.885 20.1732 10.8275ZM19.3592 12.4865C19.1917 12.6947 18.5151 13.3835 18.5556 13.6512C18.6341 14.1688 19.7134 15.0987 20.1436 15.3771C21.3757 16.1746 22.5768 16.3342 23.9866 16.334C25.7042 16.3339 27.2441 16.0048 28.5326 14.8189C28.8946 14.4762 29.2493 14.0944 29.4512 13.6327C29.2945 13.1689 29.0147 12.8136 28.6626 12.4806C27.4121 13.3472 26.327 13.7587 24.7606 13.8461L24.0002 13.8527C22.5192 13.8521 20.5174 13.5103 19.3592 12.4865ZM17.496 14.1446C15.1301 14.8897 14.7618 15.1823 13.5396 17.5767L12.4559 19.9258L11.4659 22.4386L10.3389 25.7683L9.35042 29.5135C9.27434 29.864 9.14459 30.2195 9.09711 30.5739L8.8145 32.2266L8.48389 35.4799C8.46837 35.7014 8.4327 35.9166 8.42567 36.1415L8.41278 37.2188C8.38554 37.8578 8.36778 38.5783 8.32287 39.1995L10.3319 39.1873C10.6276 39.1879 10.9534 39.1602 11.2446 39.1989C11.2639 38.4917 11.2944 37.6955 11.3764 36.9917C11.4764 36.1325 11.6202 35.2838 11.813 34.4403L12.6616 31.4033L14.9291 24.8204C15.0071 24.605 15.0722 24.3806 15.1674 24.1722C15.3447 23.784 15.8584 23.6555 16.1135 24.0645C16.419 24.5545 16.8901 26.6977 16.9786 27.2559C17.1772 28.5085 17.0269 29.7894 16.9242 31.0497C16.8607 31.8278 16.5849 34.065 16.8321 34.7813C17.0818 35.5049 17.6754 36.9393 18.5697 36.953L29.3205 36.9527C30.3091 36.9501 31.1595 35.2563 31.2344 34.3818C31.2575 33.4594 31.2524 32.5768 31.1601 31.661L31.0585 30.5823C30.9182 29.3057 30.8466 28.0988 31.0957 26.8364C31.2359 26.1255 31.4293 25.4316 31.6385 24.7384C31.7532 24.3578 31.8801 23.6785 32.4426 23.8216C32.8109 23.9154 32.8881 24.4398 33.0199 24.7344L35.0853 30.6446L36.0105 33.7545L36.4295 35.5581C36.6502 36.7476 36.7065 37.9874 36.7309 39.1947L38.7362 39.1876C39.027 39.1881 39.3647 39.2284 39.6482 39.1873L39.5701 35.8458L39.1812 32.1302C38.5511 27.9291 37.1565 23.7743 35.5253 19.8686L34.408 17.4376C33.3402 15.3668 32.6621 14.6049 30.4411 14.1682C30.3457 14.2695 30.2794 14.4257 30.1994 14.5423C29.048 16.2215 26.9555 17.3279 24.9259 17.4162L23.7911 17.4258C21.731 17.4175 20.1854 16.927 18.6877 15.5492C18.2809 15.175 17.783 14.6845 17.5777 14.1563C17.544 14.1448 17.5322 14.1393 17.496 14.1446ZM29.7557 37.9542C29.0321 38.0645 28.3187 38.0396 27.5889 38.0398L18.0927 37.9711C18.0708 38.1778 18.042 38.6709 18.1372 38.8594L18.1555 38.8971C18.1928 38.9701 18.2391 39.0255 18.2949 39.0841C18.3803 39.1496 18.4392 39.1722 18.5392 39.1765L29.2677 39.185C29.7369 39.1826 29.832 39.0769 29.8623 38.6324L29.8922 37.9571C29.8332 37.9383 29.8155 37.9452 29.7557 37.9542Z" fill="black"/>
</svg>
