<svg width="48" height="48" viewBox="0 0 48 48" fill="none" xmlns="http://www.w3.org/2000/svg">
<path d="M30.4074 36.8858C29.027 37.1874 27.2735 37.4185 25.843 37.4854L23.4878 37.4942C22.5629 37.4937 21.6419 37.4785 20.7217 37.3755L16.7787 36.7059C15.083 36.2842 15.0966 35.321 14.8006 33.7705L13.9104 27.7653L13.1187 29.6716C12.5844 30.8078 10.4496 34.7582 9.39714 35.4676C9.09826 35.669 9.16422 35.7021 9.06344 36.0525L8.53891 37.871C8.05197 39.3701 7.68583 38.97 6.56242 38.5476L5.47248 38.1564C4.45801 37.8092 4.08883 37.8123 4.362 36.7309L4.96811 34.7283C5.00669 34.6135 5.00266 34.6444 4.91823 34.5559C4.33113 33.9404 4.42652 33.3109 4.42562 32.5318C4.42458 31.6158 4.37462 30.8056 4.64166 29.9187C4.9338 28.9486 5.27027 27.9881 5.69997 27.0697L6.63348 25.2708L8.7895 21.4333L11.6834 15.3411C12.4443 13.7042 13.3443 11.772 15.2577 11.2787C15.8635 11.1225 17.1865 10.9481 17.846 10.8834C17.8992 10.8419 17.9253 10.7193 17.9489 10.6545L18.221 9.8118C18.3433 9.41308 18.397 9.14533 18.8439 9.02514C19.2452 9.00841 19.4902 9.28328 19.7827 9.51213C21.9721 11.2246 25.2214 11.4203 27.574 9.9348L28.2698 9.45058C28.7171 9.11205 29.3877 8.66121 29.7056 9.51414L29.7189 9.55047C29.7663 9.67811 29.7798 9.81466 29.8274 9.94042L30.1325 10.844C30.1486 10.8798 30.1971 10.8736 30.2342 10.8794L32.0267 11.1442C33.8243 11.4723 34.6238 12.1495 35.5549 13.8161L39.2893 21.5552L40.5155 23.8419C41.2196 25.1362 42.0365 26.3316 42.5745 27.7144L42.8443 28.3708C43.0057 28.7504 43.0956 29.1498 43.2332 29.5361L43.4138 30.175C43.5399 30.5513 43.5689 30.9745 43.5709 31.3668L43.5722 33.1624C43.5713 33.3273 43.5804 33.4975 43.5452 33.6594L43.535 33.7042C43.454 34.0801 43.2367 34.3519 42.9808 34.6286L43.2003 35.32C43.2102 35.362 43.217 35.3982 43.2327 35.4385L43.6736 36.9521C43.7088 37.1216 43.7759 37.2354 43.7007 37.4116L43.6759 37.4689C43.5392 37.7881 43.1387 37.8835 42.8427 37.991L40.8443 38.7085C39.6232 39.2417 39.66 38.5166 39.3661 37.5518L38.9412 36.2101C38.6831 35.3824 38.8733 35.8128 38.3557 35.2848C36.8834 33.7833 35.6588 31.3062 34.7916 29.4295C34.5406 28.8862 34.2493 28.311 34.088 27.7342L33.8003 30.1598L33.1094 34.1716C32.8735 35.5319 32.7781 36.2962 31.3136 36.6753L30.4074 36.8858ZM28.717 10.6755C27.9527 11.2369 27.0491 11.7235 26.1168 11.9361C24.3026 12.3498 22.1156 12.2947 20.432 11.4065C20.0356 11.1974 19.6605 10.8975 19.2563 10.715C18.9255 11.7613 18.8427 12.1616 19.3868 13.1197C20.3335 14.6004 22.4828 14.6565 24.0726 14.6534C25.9075 14.6499 28.5047 14.3725 28.9734 12.2147C29.0964 11.649 28.9702 11.2074 28.768 10.6639L28.717 10.6755ZM17.6639 12.1755L16.5721 12.3478C14.9822 12.5608 14.3932 12.8636 13.5451 14.4039C13.327 14.7999 11.7047 18.0871 11.7531 18.2498C11.7665 18.2947 11.8212 18.3561 11.8475 18.399L13.2209 20.9997C13.4368 21.4846 13.7125 21.9634 13.8795 22.4681L14.3716 23.7464C14.7491 24.6424 14.9138 25.213 14.987 26.1497L15.521 30.5444C15.5873 31.0181 15.6218 31.5159 15.7331 31.9811C16.5302 32.2822 17.841 32.5781 18.6606 32.7099L22.1154 33.0975L25.914 33.0988C26.0636 33.0906 26.2072 33.063 26.3553 33.0474L27.49 32.9344C29.0915 32.7341 30.7195 32.4633 32.2483 31.9288C32.2878 31.7352 32.3404 31.5383 32.3553 31.3412L32.9061 27.1872C32.9399 26.818 33.016 25.4417 33.085 25.284C33.1631 25.1057 33.2121 24.9069 33.2729 24.7218L34.9521 20.6361C35.3405 19.8297 35.7546 19.0058 36.254 18.262L34.5245 14.554C33.5045 12.7092 33.1458 12.6238 31.2848 12.3304C30.9564 12.2786 30.6201 12.1986 30.289 12.1717L30.1269 12.7225C29.1509 15.5172 26.6517 15.9425 23.9415 15.9375C21.4202 15.9328 18.6248 15.4286 17.8445 12.6765C17.8026 12.5289 17.786 12.3102 17.7159 12.1785L17.6639 12.1755ZM36.9024 19.5594L36.5373 20.2731C35.847 21.5973 35.2329 22.9336 34.7201 24.3363C34.6237 24.6001 34.4879 24.8959 34.441 25.1732L36.0043 29.0761C36.6304 30.4584 38.1891 33.5231 39.3995 34.5243L39.8612 34.3895L42.3524 33.5067C42.3827 33.4229 42.374 33.3115 42.3758 33.223L42.3788 32.5725C42.382 30.4826 42.0129 29.3795 41.1159 27.4886L36.9024 19.5594ZM11.0628 19.6052C10.7057 20.4795 10.241 21.3259 9.80205 22.1614L7.86662 25.6355C7.11761 26.9499 6.47181 28.2584 6.01262 29.7034C5.65005 30.8443 5.62998 31.1104 5.63598 32.3516L5.64255 33.0987C5.65361 33.6199 5.6905 33.5162 6.20434 33.712L8.24476 34.4285L8.5698 34.5401C10.5124 32.5084 12.2179 28.877 13.1576 26.3035L13.455 25.4768C13.5832 25.1024 13.4882 25.0102 13.3656 24.6374C13.0714 23.7437 12.7145 22.8873 12.327 22.0309L11.5013 20.3214C11.3711 20.0813 11.2632 19.8265 11.099 19.6074L11.0628 19.6052ZM31.9249 33.3395C31.3575 33.509 30.7955 33.6698 30.2154 33.7917L25.984 34.3568L22.7757 34.3782L19.7225 34.1385C18.474 33.9829 17.202 33.7497 16.0047 33.3557L16.1731 34.2302C16.219 34.4784 16.2488 34.7337 16.333 34.9736C16.4972 35.4641 17.0422 35.4724 17.4911 35.5687C18.2223 35.7254 18.9697 35.8974 19.7112 35.9915L21.8346 36.2167C22.1657 36.2386 22.5029 36.2298 22.8349 36.2315L25.7038 36.2268C26.2434 36.2229 26.7589 36.1461 27.2928 36.0912L29.5779 35.7426C29.8579 35.6899 31.4529 35.4529 31.5809 35.2145C31.6611 35.0651 31.6948 34.874 31.7351 34.7106L32.0037 33.332C31.9764 33.3332 31.9519 33.3345 31.9249 33.3395ZM6.15662 35.0509C6.00902 35.4514 5.63955 36.4347 5.61189 36.8575L7.34505 37.5078L7.8888 35.6418C7.74081 35.5006 6.44031 35.1674 6.15662 35.0509ZM41.7669 35.0739C41.6017 35.1298 40.0475 35.6213 40.0353 35.6371L40.6024 37.4206L40.6756 37.4184C41.1834 37.2726 41.9083 37.0317 42.3899 36.7934L41.7669 35.0739Z" fill="black"/>
</svg>
