<svg width="48" height="48" viewBox="0 0 48 48" fill="none" xmlns="http://www.w3.org/2000/svg">
<path d="M29.8006 40.4915L15.6348 40.4901C14.1163 40.4827 12.1707 39.6647 11.9247 37.9906L11.864 37.4201C11.8041 36.5508 12.3121 35.7363 12.8551 35.1072C12.838 34.8618 12.7465 34.5976 12.6793 34.361L12.3925 33.3207C12.0255 31.9135 11.6751 30.5062 11.563 29.0515C11.124 30.7896 10.4975 32.4708 9.88692 34.1542L9.2895 35.8107C9.11714 36.2812 9.01814 36.8215 8.39114 36.7592C7.92778 36.7131 7.45505 36.6118 6.99685 36.5251L4.97086 36.0698C4.30142 35.8925 3.39328 35.6646 2.8713 35.1801C1.81803 34.2023 2.04417 32.6782 2.33302 31.4305L3.23243 27.9403C4.33433 24.1482 5.5231 20.2421 7.8001 16.9676C9.70074 14.2343 11.5919 13.2281 14.913 12.596C15.5448 12.4759 16.28 12.5406 16.7549 12.0339C17.3806 11.3662 17.2245 10.4819 17.0913 9.66626L16.8758 8.47292C16.7429 7.80181 16.5349 7.01778 17.4678 7.01258L18.1115 7.01187L29.304 7.0063C29.7657 7.00634 30.244 6.97798 30.7031 7.01562C31.489 7.08003 31.2947 7.86767 31.2205 8.34402L30.9848 9.90261C30.9421 10.2129 30.8394 10.5778 30.8721 10.891L30.9375 11.3675C31.1298 12.1115 31.4706 12.2298 32.1331 12.4017L33.2264 12.6898C35.1238 13.1918 37.645 13.9672 39.0312 15.4718C39.3109 15.7753 39.5295 16.1315 39.7682 16.4664C41.3802 18.7288 42.2763 20.8953 43.2499 23.4551L43.6878 24.6682C43.7459 24.8451 43.8175 25.0285 43.8594 25.2092L44.8284 28.323L45.458 30.8008C45.6791 32.1192 46.2334 34.325 45.0646 35.2965C44.1162 36.0848 41.3315 36.6306 40.1483 36.7552C38.9723 36.879 38.9208 36.7494 38.4687 35.7369C37.8787 34.4155 37.5094 33.0526 37.1215 31.6643L36.41 29.2635C36.3848 29.1808 36.3715 29.08 36.3199 29.0104C36.2381 29.6482 36.1774 30.3084 36.0469 30.9378C35.7882 32.1848 35.4017 33.2147 35.1996 34.5158L35.1435 35.0124C35.1194 35.2884 35.2193 35.3132 35.3768 35.5403C35.8132 36.1699 36.0083 36.7789 36.0133 37.5471C36.0304 40.1963 33.4109 40.4871 31.3938 40.4901L29.8006 40.4915ZM18.1477 8.31931L18.4042 9.67878C18.4408 9.82184 18.4201 10.0993 18.5076 10.2103L28.4178 10.1992C28.8085 10.1985 29.2255 10.2201 29.6131 10.181C29.658 10.1021 29.6686 10.0089 29.686 9.92075L29.9368 8.32719L19.282 8.32667C18.9152 8.32728 18.5088 8.36502 18.1477 8.31931ZM18.3921 11.5382C18.1512 13.0106 17.0985 13.616 15.7684 13.8096L14.7068 13.983C13.3245 14.2577 11.8093 14.8128 10.6857 15.6992C8.17196 17.6823 6.50728 21.7887 5.56383 24.7151L3.52706 31.9684C3.25747 33.3003 3.13661 34.1206 4.52325 34.5949C5.68936 34.9937 6.9015 35.1395 8.09541 35.4198C8.16835 35.3073 8.19783 35.1369 8.24517 35.0092L11.2031 25.9567C11.3658 25.4278 11.596 24.9029 11.7185 24.3635L12.367 20.1729C12.3831 20.0096 12.377 19.8221 12.4216 19.665C12.5963 19.0499 13.3598 19.0237 13.6421 19.5471L13.6565 19.573C13.8048 19.8563 13.6312 20.3999 13.5921 20.6984L13.1276 23.8596C13.0152 24.5704 13.0142 25.1096 12.8513 25.8384C12.4808 27.4958 12.8933 30.4902 13.3492 32.0765L13.8955 34.042C14.6724 36.3037 12.4759 36.4549 13.2375 37.9521L13.2595 37.9925C13.7337 38.8793 14.7316 39.1917 15.6765 39.2015L29.7303 39.204L31.3998 39.2034C32.4195 39.2023 33.6533 39.2707 34.441 38.4877C35.1098 37.8229 34.6752 36.8513 34.2346 36.2134C33.6664 35.3906 33.9002 34.3331 34.0939 33.4279L34.5374 31.7328C34.9846 30.0087 35.2599 28.2337 35.1335 26.4495C35.0784 25.6717 34.9174 24.9217 34.8051 24.1526L34.2099 20.2228C34.1744 20.0064 34.0858 19.706 34.1877 19.4955L34.2017 19.4653C34.4428 18.9655 35.1354 18.9898 35.3448 19.4885L35.3563 19.5125C35.4643 19.7416 35.4745 20.1004 35.515 20.3537L36.0386 23.5811C36.0692 23.7599 36.0761 23.9371 36.1328 24.1108L36.6114 25.5003C36.8627 26.1909 37.0274 26.907 37.238 27.6096C37.3512 27.987 37.4989 28.5591 37.632 28.9064L39.0994 33.9268C39.1111 33.9732 39.1265 34.0108 39.1444 34.055L39.5828 35.1255C39.7502 35.5097 39.6681 35.4799 40.1014 35.4452C41.098 35.3654 42.1021 35.1215 43.0514 34.8123C43.6007 34.6334 44.2218 34.5192 44.4402 33.9104L44.4775 33.7854C44.5782 33.4185 44.5226 33.023 44.4742 32.6505L44.2786 31.4534C43.8908 29.4837 43.3052 27.5729 42.6746 25.6689L41.4117 22.1956C40.6769 20.4098 39.7871 18.742 38.6924 17.1552C38.4784 16.8451 38.2568 16.4931 37.9881 16.2282C37.0583 15.3119 34.9865 14.5304 33.7684 14.1932L32.3365 13.8089C31.0212 13.4818 29.9694 13.1737 29.7149 11.5435C29.3364 11.504 28.9277 11.5352 28.5465 11.5361L18.3921 11.5382Z" fill="black"/>
</svg>
