<svg width="48" height="48" viewBox="0 0 48 48" fill="none" xmlns="http://www.w3.org/2000/svg">
<path d="M24.4259 40.6712L22.0179 40.6666L18.567 40.4151C17.9925 40.3586 17.3574 40.3425 16.8046 40.1722C15.5836 39.7961 14.6813 38.7362 14.5512 37.4649C14.4965 36.9309 14.5342 36.3597 14.5348 35.8212L14.5492 25.1698L9.1806 35.762C8.77302 36.3721 7.44416 35.5864 6.90726 35.3793L5.8979 34.9938C5.51798 34.8575 5.0961 34.7647 4.76034 34.5348C4.15149 34.118 3.40064 33.1729 3.68517 32.3754C3.75654 32.1754 3.85827 31.9819 3.94753 31.7892L10.9489 17.1333C12.0672 14.9923 13.6716 13.1748 16.0884 12.5981C16.5893 12.4786 17.0929 12.422 17.5994 12.3378C17.6275 12.0596 17.6178 11.7776 17.6181 11.4983L17.6191 10.1756C17.6196 9.75198 17.5642 9.44514 17.8015 9.07928C18.2554 8.37948 19.6148 7.88767 20.414 7.71531L21.5289 7.52988C22.3329 7.42183 22.8971 7.40603 23.7186 7.4043L25.0122 7.40767C25.4935 7.41147 25.9567 7.45567 26.4323 7.531C27.4223 7.68789 29.7686 8.19597 30.2879 9.20566L30.3024 9.23481C30.326 9.28141 30.3457 9.32387 30.3616 9.37398L30.376 9.42231C30.4333 9.57733 30.434 9.7322 30.4402 9.89608L30.4459 12.3236C30.7295 12.3362 31.0324 12.4036 31.3109 12.4575C33.8452 12.9474 35.6434 14.5522 36.8687 16.77C37.1057 17.1988 37.2961 17.6461 37.5089 18.0859L41.4376 26.1918L43.8031 31.3046C44.2668 32.1257 44.6654 32.6605 44.1655 33.5306C43.653 34.4225 43.0673 34.6641 42.1522 35.0167L39.8887 35.8763C39.6246 35.9753 39.3177 36.1566 39.0446 35.9879L39.0233 35.9741C38.6642 35.7455 38.2982 34.6741 38.1077 34.2848L34.6949 27.4366C34.3172 26.6785 33.9183 25.9459 33.6129 25.1531L33.6089 36.1185C33.6087 36.6048 33.6462 37.1161 33.552 37.5945C33.2763 38.9954 32.3604 39.9239 30.996 40.287C30.6358 40.3828 30.2948 40.3846 29.9296 40.4285L26.9064 40.6648L24.4259 40.6712ZM23.0082 8.51317C21.6996 8.5788 20.2776 8.74342 19.1124 9.38678C19.4994 9.54906 19.9206 9.61014 20.3319 9.68064L21.0702 9.78048C21.4338 9.82755 21.7689 9.84939 22.1366 9.86805L25.1073 9.9122C26.3964 9.85005 27.6712 9.81377 28.9105 9.41467C27.8941 8.93955 26.9414 8.67283 25.8303 8.5803L23.0082 8.51317ZM18.7304 10.4522L18.7251 11.7078C18.7203 12.6645 18.7047 12.4675 18.1963 13.1771C19.0233 13.7725 20.7322 14.0155 21.7968 14.0722L25.6905 14.0798C26.9127 14.0719 28.0819 13.8786 29.2287 13.4635L29.7843 13.1572C29.6698 13.0167 29.5345 12.8927 29.4544 12.7281C29.2005 12.2064 29.3691 11.0884 29.3325 10.4708L29.2957 10.4843C28.8415 10.6487 28.3539 10.7339 27.8788 10.8128L26.4066 10.9858C25.7494 11.0442 25.1179 11.0452 24.4568 11.0453L22.442 11.0412C21.5192 11.0051 19.6202 10.8471 18.7506 10.4621L18.7304 10.4522ZM16.8367 13.6014C13.5065 14.1362 12.2496 16.9602 10.9057 19.717L5.94543 30.1143C5.83157 30.363 5.73712 30.6465 5.60517 30.8837L9.5242 32.5103L13.6104 24.6275L14.2199 23.602C14.4408 23.2388 14.5389 23.1795 14.5391 22.7388L14.5416 21.8603C14.5441 21.5006 14.5452 21.1976 14.9647 21.0772L14.997 21.0674C15.8389 20.8322 15.6544 22.0546 15.6539 22.4519L15.6523 36.4809C15.6522 36.8842 15.5981 37.3633 15.7236 37.7465L15.7346 37.7835C16.1207 38.9815 17.2868 39.164 18.3749 39.2796L22.088 39.5427L26.3002 39.5471L27.8496 39.4784C28.2813 39.4703 28.7309 39.4053 29.1824 39.38C30.0473 39.3316 31.3749 39.2132 31.9145 38.5089C32.4721 37.9257 32.5197 37.1724 32.5216 36.4152L32.5183 21.811C32.5099 21.4579 32.4716 21.1144 32.8944 21.0208L32.9203 21.0148C33.484 20.896 33.5576 21.4106 33.5575 21.7966L33.5571 22.4602C33.5572 22.7637 33.5912 22.8244 33.7323 23.0894L38.2828 32.1226C38.3553 32.2665 38.4013 32.3957 38.4925 32.5345L42.4232 30.8771C42.3942 30.7581 42.3152 30.6304 42.2606 30.5202L36.6091 18.7526C36.249 18.0141 35.9039 17.261 35.4479 16.5749C34.5634 15.2438 32.8149 13.6778 31.1174 13.603C30.882 13.7051 30.6819 13.9023 30.4639 14.0376C28.5335 15.236 26.2529 15.262 24.052 15.2624C22.1479 15.2627 19.0529 15.2113 17.4341 14.0118C17.291 13.9059 17.0054 13.6191 16.8367 13.6014ZM42.8575 31.8761L39.4448 33.341C39.2862 33.4044 39.1136 33.4877 38.9482 33.5278C38.9547 33.6452 39.4058 34.4478 39.4849 34.6846L39.5588 34.7874C39.688 34.7944 39.9225 34.6691 40.0521 34.6234L41.4843 34.0791C42.1777 33.8167 43.1579 33.5804 43.2611 32.7001C43.1555 32.444 43.0185 32.1043 42.8575 31.8761ZM5.12235 31.8914L4.85385 32.5023C4.59311 33.1271 5.17138 33.5435 5.71082 33.762L8.4261 34.81L8.49759 34.6587C8.6707 34.2805 8.90015 33.8767 9.02399 33.4822L5.12235 31.8914Z" fill="black"/>
</svg>
