<svg width="48" height="48" viewBox="0 0 48 48" fill="none" xmlns="http://www.w3.org/2000/svg">
<path d="M24.3023 39.6288L23.4572 39.6278C23.2751 39.6295 23.0666 39.6161 22.8903 39.6638L21.434 39.9953C19.9382 40.2789 16.5896 40.2576 16.2388 38.2143L16.2335 38.1822C16.1174 37.5211 16.2719 37.1176 16.3412 36.5108C14.5167 34.5794 14.2989 33.1117 14.1411 30.6447L13.9214 27.2494C13.9038 27.0485 13.9783 26.572 13.8331 26.4212C13.0251 26.3062 12.5095 27.7158 12.2337 28.2729L9.83243 33.171C9.59337 33.6707 9.33162 34.1507 9.15336 34.6784L9.14267 34.7107C8.87918 35.4796 9.39204 35.775 8.72018 36.8318L8.69707 36.8688C7.28895 39.0767 2.17885 36.4582 3.82955 33.5522C4.13907 33.0073 4.13829 33.1392 4.23439 32.4708C4.35152 31.6561 4.56836 30.8305 4.76895 30.0319L5.2752 28.1482C5.98878 25.8434 6.98965 23.646 8.21351 21.5689L9.75289 19.2097C10.1436 18.603 10.5871 18.05 11.0119 17.4688L11.3004 17.0523C11.8257 16.244 13.5604 15.4537 14.4379 15.0956L16.1146 14.4391C17.1687 13.9811 17.2073 13.5226 17.2026 12.521L17.2024 10.8682C17.2052 9.30461 17.371 9.39934 18.7774 9.62369C18.9007 9.50331 18.9834 9.33723 19.108 9.21058C20.1349 8.16662 22.3167 7.88908 23.7137 7.86597C25.2694 7.75745 28.3034 8.17361 29.1965 9.57245L29.6759 9.53134C30.8831 9.24995 30.8066 10.0911 30.8077 10.9967L30.8038 12.7146C30.799 12.9025 30.7495 13.1014 30.7902 13.2859L30.7989 13.324C30.928 13.9376 31.3317 14.199 31.8615 14.4227L34.5959 15.577C35.1355 15.8397 35.6323 16.1611 36.1284 16.4963C36.7308 16.9033 36.6227 16.958 37.047 17.5083L38.4384 19.4529C39.6097 21.1853 41.2287 23.8295 41.9055 25.8513L42.8297 28.527C42.9338 29.009 43.0897 29.4884 43.2193 29.9646L43.4418 30.8843C43.595 31.5083 43.6916 32.1557 43.8118 32.7869C43.8932 33.2145 44.2195 33.4815 44.3337 33.8853L44.3448 33.9256C44.909 35.6091 43.7431 36.7851 42.2638 37.4143C41.9669 37.5406 41.6627 37.6597 41.3397 37.6992C40.1756 37.8418 39.0311 37.1401 38.92 35.9043L38.916 35.857C38.8819 35.4963 38.9712 35.0615 38.8782 34.716C38.7576 34.2676 38.4784 33.8191 38.2714 33.4036L35.8278 28.4046C35.5315 27.8124 35.0068 26.2198 34.1229 26.4594C33.9738 26.6645 34.0445 27.391 34.0393 27.6475L33.9969 28.4955C33.9891 28.6417 33.9617 28.783 33.9494 28.9285L33.8403 30.5418C33.8204 30.9018 33.8497 31.2847 33.7929 31.6399C33.454 33.7608 33.282 34.7795 31.7248 36.4328L31.8007 36.9021C31.8624 37.1497 31.8525 37.3884 31.851 37.6422C31.8391 39.6004 30.2981 39.9369 28.6497 40.0508C28.1222 40.0872 27.5163 40.1561 26.9919 40.0575L26.0632 39.8902C25.4555 39.7634 24.9241 39.6343 24.3023 39.6288ZM22.97 9.16581C22.0881 9.24737 21.0588 9.39362 20.2724 9.83336C21.1274 10.0686 22.3666 10.141 23.2545 10.1429L25.0141 10.142C25.7023 10.1177 26.9878 9.98983 27.6765 9.83101C26.5621 9.34731 25.4614 9.16347 24.2641 9.16333L22.97 9.16581ZM29.4699 10.8373L25.7779 11.4109L23.6597 11.458C23.1583 11.4565 22.5965 11.4897 22.103 11.406L18.4495 10.839L18.4437 12.3227C18.4519 12.7085 18.525 13.1697 18.4124 13.5423L18.4034 13.5746C18.3729 13.6807 18.1939 14.0468 18.2239 14.1244L18.666 14.2968C20.1712 14.7924 21.9265 14.9724 23.5199 14.9985L26.0055 14.9157C27.2566 14.8308 28.5975 14.6127 29.7531 14.131L29.5759 13.5002C29.439 12.9402 29.5926 11.5259 29.5458 10.8345C29.4973 10.822 29.5227 10.8223 29.4699 10.8373ZM17.5775 15.2355C17.1503 15.363 16.7412 15.5854 16.3246 15.7491L15.3625 16.0907C14.5881 16.3847 13.4869 16.8347 12.8356 17.3594L12.8459 17.3792C12.9369 17.5564 13.0012 17.7741 13.0402 17.969L13.3418 19.3389C13.386 19.5287 13.3896 19.7281 13.4069 19.9217L13.5091 21.5363C13.5215 21.7618 13.5807 21.9856 13.5687 22.2126C13.5322 22.9014 12.3567 22.8992 12.3021 22.2185C12.2 20.9441 12.3119 19.679 11.8526 18.4168L11.8414 18.435C11.6528 18.737 11.4116 19.027 11.2019 19.3161L9.26196 22.2645C8.28931 23.9137 7.23261 26.0697 6.65801 27.9256L5.3561 33.1482C5.18309 33.8602 5.11836 33.7106 4.85454 34.3006L4.83584 34.3419C4.39192 35.3397 5.58846 35.9802 6.3274 36.2756C7.87507 36.8945 7.8035 35.8639 7.85506 34.875C7.89739 34.0623 8.40073 33.2462 8.73987 32.5301L11.5367 26.8656C11.6804 26.6016 11.8023 26.3135 11.9792 26.0702C12.6616 25.1317 14.3635 24.6088 14.9826 25.8784L15.0029 25.9217C15.0573 26.0325 15.0887 26.1385 15.1141 26.2594L15.1318 26.3227C15.1701 26.457 15.167 26.6138 15.1729 26.7529L15.1976 27.5614C15.2042 27.6731 15.2308 27.779 15.2391 27.8894L15.3755 30.6092C15.3823 30.7436 15.4136 30.8693 15.425 31.0005L15.4774 31.8329C15.6098 33.1071 16.0608 34.3574 16.9477 35.3016C17.2828 35.6584 17.295 35.6148 17.7495 35.6591L19.8787 35.8105L27.6895 35.8085C27.9274 35.8037 28.1627 35.7646 28.3995 35.7563L30.111 35.6591C30.2992 35.6461 30.5166 35.6663 30.6977 35.6168L30.7532 35.5654C31.9012 34.4873 32.3777 33.264 32.5248 31.6951L32.6539 29.1624C32.672 28.9325 32.717 28.7082 32.7275 28.4763L32.7976 27.0352C32.8651 25.945 33.2114 25.0638 34.426 25.1427C35.2716 25.1976 35.8626 25.7798 36.2455 26.4736L39.626 33.3313C39.8784 33.8691 40.2016 34.4192 40.1901 35.0344C40.1864 35.235 40.1154 35.502 40.1605 35.6917L40.1767 35.7924C40.2091 36.0242 40.2922 36.1583 40.4652 36.3059L40.4879 36.3259C41.0402 36.79 43.4322 35.8512 43.2083 34.5096C43.1494 34.1566 42.933 33.9708 42.7903 33.6684C42.6958 33.4682 42.654 33.2156 42.6028 33.0001L41.7021 29.0942C40.7958 25.9414 39.3645 23.1082 37.5533 20.3846C37.0942 19.6942 36.6356 18.9755 36.1032 18.3389C35.8038 19.1628 35.7307 20.1103 35.6274 20.9763C35.5968 21.2327 35.6327 21.5433 35.5414 21.7842C35.3554 22.2747 34.5799 22.2594 34.4022 21.7579L34.3654 21.6475C34.1901 21.1224 34.8133 18.0785 35.0094 17.5777C35.0448 17.4873 35.1793 17.3447 35.0806 17.2792C34.1026 16.6301 32.9739 16.2448 31.8988 15.7947L30.69 15.3145C30.2417 15.1608 29.0961 15.7322 28.5087 15.8631C26.7921 16.2456 24.9515 16.3183 23.2032 16.2573L21.6243 16.1997C20.6141 16.1388 19.44 15.8915 18.4926 15.5644C18.1879 15.4592 17.8855 15.3268 17.5775 15.2355ZM30.4379 36.9256C29.8327 37.0231 28.9799 37.0688 28.3403 37.0931L19.6557 37.0953C19.0024 37.0705 18.1868 37.0327 17.5586 36.9553L17.4465 37.3633C17.3571 37.7345 17.5149 38.3721 17.8949 38.5315L18.1404 38.6193C19.0034 38.7147 19.9111 38.8971 20.7815 38.7923C21.6051 38.6932 22.445 38.3701 23.2735 38.3618L24.2934 38.3599C24.6259 38.3605 24.8954 38.3833 25.2192 38.436L26.6488 38.7183C27.541 38.8838 28.5266 38.8253 29.4198 38.6875C30.0306 38.5932 30.4747 38.5119 30.5903 37.8045L30.5967 37.7681C30.6436 37.4838 30.5938 37.204 30.4794 36.9419L30.4379 36.9256Z" fill="black"/>
</svg>
