<svg width="48" height="48" viewBox="0 0 48 48" fill="none" xmlns="http://www.w3.org/2000/svg">
<path d="M17.738 39.0989L16.9163 39.0981C16.3599 39.096 15.8427 38.9074 15.6562 38.3037C15.5525 37.9681 15.6386 36.6471 15.5967 36.1805C15.4729 36.051 15.316 35.988 15.1843 35.8627C14.2936 35.0147 14.2267 33.9943 14.0671 32.8466L13.6064 27.3498L13.5356 24.4165C13.3855 24.6192 13.2791 24.8861 13.1643 25.1115L7.79918 36.2384C7.30713 37.4052 7.16337 37.3484 5.99487 36.962C5.0853 36.6612 4.17447 36.3599 3.37662 35.8096C2.67027 35.3224 2.79529 34.9101 2.98958 34.1681C3.05785 33.9073 3.56277 32.3872 3.53035 32.2379C3.46463 31.9351 3.47858 31.6201 3.5391 31.3165L3.89874 29.4163L4.78943 25.8659L5.90482 22.2137C7.07407 18.6667 8.52729 14.9721 10.626 11.8568C11.9828 9.84281 13.9131 8.92448 16.2826 8.92111L18.9236 8.92003C19.8835 8.91961 19.5877 8.97066 20.3203 9.4672C22.3466 10.8405 25.9308 10.9506 27.8759 9.37162C28.0273 9.24867 28.1747 9.10237 28.3458 9.00773L28.3826 8.98786C28.4991 8.92336 28.6003 8.92256 28.73 8.91797L31.6705 8.92219C32.0185 8.92373 32.3736 8.9715 32.7167 9.03178C35.1701 9.46284 36.3782 10.2929 37.6833 12.3043C38.4495 13.4852 39.0925 14.7667 39.6953 16.0368L40.3253 17.4545L42.5771 23.653L43.2963 26.1995L43.9769 29.2577C44.1302 29.8467 44.3667 31.5626 44.3355 32.0979C44.322 32.329 44.2954 32.3434 44.3911 32.5496L44.5875 32.9838C44.7301 33.3064 44.787 33.6573 44.9223 33.9734L45.0131 34.2352C45.0523 34.3354 45.0719 34.438 45.1043 34.5401L45.1516 34.6919C45.4305 36.0927 42.518 36.9809 41.4877 37.1803C40.6314 37.346 40.5465 36.9429 40.2082 36.257L38.3322 32.7339L36.7759 29.4967L34.4508 24.3968C34.4056 24.7034 34.4123 25.011 34.4101 25.3201L34.3818 26.5464C34.3701 26.767 34.3247 26.9784 34.3132 27.1992L34.1892 30.1899L34.0363 31.9433C33.9184 33.1968 33.9743 34.5487 33.1042 35.5627C32.9775 35.7104 32.3844 36.2354 32.363 36.3559L32.3592 36.3863C32.3076 36.7737 32.433 38.1413 32.2785 38.3791C31.6541 39.3402 31.0883 39.098 30.0776 39.0989H17.738ZM28.8557 10.207C26.5968 12.2662 22.3328 12.3283 19.7972 10.6402C19.6248 10.5254 19.3804 10.2902 19.217 10.2139L17.8383 10.2404C18.0787 11.2575 18.6613 12.2094 19.356 12.9765C20.3127 13.994 21.5463 14.5669 22.9221 14.7437C25.9893 15.138 28.8001 13.863 29.9245 10.8457C29.9933 10.6609 30.0928 10.437 30.108 10.2396L28.8557 10.207ZM15.5544 10.2243C13.4436 10.6814 12.5924 11.1478 11.3391 13.0839L10.8921 13.8437C10.2267 14.983 9.65388 16.1378 9.12311 17.345L7.88993 20.3918L5.92962 26.5235L5.31222 28.917C5.12397 29.6424 4.95682 30.3663 4.83757 31.107C4.69151 32.0143 4.83129 31.9009 5.73879 32.2276C6.45724 32.4863 7.22229 32.7186 7.9744 32.8541L13.3136 21.9854C13.5235 21.6007 13.8346 20.7303 14.4688 21.1449C14.6924 21.291 14.7577 21.537 14.769 21.784L14.8246 25.1008C14.837 25.3046 14.8756 25.503 14.8787 25.7075L14.8886 27.0582C14.891 27.3722 14.8735 27.7055 14.948 28.0125C15.0339 28.3663 15.0175 29.3395 15.0537 29.7678L15.3288 32.648C15.4344 33.3948 15.4102 34.1048 15.8832 34.7404L15.9103 34.7771C16.0796 35.0046 16.2903 35.1926 16.54 35.3275L30.921 35.3328C31.4756 35.3319 31.5803 35.3189 32.0077 34.8998C32.6996 34.2214 32.6773 33.1541 32.754 32.2551L32.905 30.5814L33.0953 26.8667L33.1208 25.4793L33.2597 22.5572C33.2655 22.2754 33.1738 21.5724 33.3495 21.3524L33.3748 21.32C33.4759 21.1935 33.5704 21.1172 33.7268 21.0701L33.7533 21.0618C34.4608 20.8551 35.052 22.6575 35.2998 23.1671L36.1805 25.0244L39.7291 32.647C39.7563 32.7077 39.7786 32.7882 39.8244 32.836L43.0578 31.8717C43.0267 31.377 42.9481 30.8874 42.8741 30.398L42.6487 29.0269L41.3907 24.1142L39.3839 18.5121L37.8992 15.3248C36.4111 12.3864 35.1844 10.1457 31.4764 10.2298C31.3708 10.5066 31.3273 10.8043 31.2171 11.0855C30.1796 13.7343 28.3649 15.5176 25.452 15.9927L24.6318 16.1027L24.6256 30.3837C24.6254 30.8035 24.7408 31.6818 24.543 32.0386L24.5225 32.076C24.1797 32.6866 23.3678 32.4877 23.3637 31.5879L23.3477 16.0841C21.3262 15.8978 19.4832 15.1242 18.1536 13.5305C17.3764 12.599 16.7373 11.4357 16.5497 10.228C16.2198 10.2386 15.8813 10.1854 15.5544 10.2243ZM43.207 33.1754C42.2967 33.3941 41.4063 33.8098 40.4832 33.9527L41.0035 34.9645C41.1263 35.198 41.2718 35.4368 41.3618 35.6844L41.4693 35.8543C42.2914 35.6057 43.2176 35.392 43.8726 34.8067C43.666 34.2621 43.5543 33.6855 43.2775 33.1655L43.207 33.1754ZM4.59539 33.1903L4.13228 34.7294C4.88824 35.2057 5.68352 35.5391 6.54616 35.771L6.70469 35.4747L7.40487 34.0332C6.4721 33.7737 5.48435 33.5824 4.59539 33.1903ZM25.7972 36.6084L16.8634 36.622C16.851 36.8609 16.8139 37.5772 16.8944 37.7997L22.3244 37.8053L31.133 37.8112L31.1422 36.9233C31.142 36.8297 31.1607 36.6899 31.1291 36.6029L25.7972 36.6084Z" fill="black"/>
</svg>
