<svg width="48" height="48" viewBox="0 0 48 48" fill="none" xmlns="http://www.w3.org/2000/svg">
<path d="M16.4887 42.4689C14.5152 41.0679 14.6019 39.2024 14.5998 37.0339L14.5952 26.9673C14.5949 26.5742 14.6155 26.162 14.5456 25.7741C14.0449 26.2688 13.3519 28.0659 13.2281 28.6992L12.4729 33.0241C12.4505 33.1562 12.4429 33.2912 12.4155 33.4225L12.0508 34.9694C11.9449 35.3425 11.8029 35.7206 11.7154 36.097C11.3965 37.4679 11.3343 39.0087 11.534 40.4069C11.7435 41.8741 12.0092 41.9393 10.3029 41.9344L7.15491 41.9353C6.42352 41.9394 5.73755 42.0257 5.9512 41.0556C6.17194 40.0532 6.01983 39.1718 5.83702 38.1803C5.59561 36.8712 5.53552 35.5276 5.63424 34.2L5.80725 32.6491C6.31805 27.9934 8.08481 20.9349 10.8053 17.369C11.3472 16.6585 12.0095 16.0378 12.7035 15.4781C14.2299 14.2472 16.8039 13.7275 17.3099 11.5532C17.3738 11.2785 17.3409 10.9612 17.3404 10.6785L17.3403 9.24123C17.3409 8.83646 17.2819 8.26384 17.8126 8.16015C17.9284 8.13756 18.1243 8.13475 18.2198 8.20834L18.2464 8.23075C18.3973 8.35243 18.4965 8.52728 18.609 8.68309C19.9793 10.5818 23.6571 10.7108 25.784 10.3983C27.1167 10.2026 28.3584 9.90924 29.2794 8.83735C29.5192 8.55831 29.6033 8.23534 29.9921 8.13742C30.2532 8.11764 30.4451 8.20754 30.5805 8.4406L30.5992 8.47328C30.7194 8.67887 30.6631 9.10918 30.6631 9.35218L30.6615 10.7235C30.6611 11.0995 30.6018 11.6394 30.7708 11.9867L30.8053 12.0624C31.385 13.5448 33.4358 14.2917 34.7315 15.1008C36.8083 16.3977 38.3384 18.7434 39.2005 21.018L39.8453 22.6412C39.9066 22.7953 39.9696 22.9518 40.0132 23.1125L40.4079 24.3287C40.7749 25.3906 41.0509 26.4919 41.3066 27.5849L41.6721 29.2272C41.7325 29.4806 41.7652 29.7563 41.8074 30.0143L42.3893 34.4069C42.5012 35.7212 42.382 37.0917 42.117 38.3806C41.9446 39.2194 41.8031 40.0279 42.0011 40.8756C42.0429 41.0546 42.1597 41.3914 42.0875 41.5747L42.0736 41.5993C41.8153 42.0649 41.3482 41.9331 40.8918 41.9335L37.6022 41.934C36.6593 41.9334 36.1736 42.1486 36.3684 40.9081L36.4497 40.3372C36.4836 40.091 36.4858 39.8366 36.5031 39.5884C36.6225 37.8675 36.5432 36.9436 36.0503 35.3473L35.7542 34.1868L35.08 30.1998C34.8116 28.6311 34.3946 27.0336 33.4313 25.7385L33.4259 37.7871C33.4242 38.3339 33.4363 38.9069 33.3518 39.448C33.0855 41.152 31.7991 42.7628 30.0589 43.0969C29.6354 43.1782 29.2296 43.1724 28.8011 43.1724L19.8418 43.1724C18.5368 43.1745 17.649 43.2377 16.4887 42.4689ZM18.4221 10.1139L18.4483 11.6123C18.6547 11.7227 18.8773 11.808 19.0887 11.9129L20.7743 12.8342C21.3405 13.1136 21.9925 13.3067 22.6175 13.3995C24.8464 13.7306 26.3867 13.2806 28.3282 12.1967L29.3532 11.6724L29.5897 11.5681L29.5952 10.0916C29.426 10.2608 29.2006 10.4093 28.9965 10.5331C26.5565 12.0114 21.0944 12.0624 18.8792 10.4623C18.7813 10.3915 18.5249 10.1245 18.4221 10.1139ZM29.8642 12.6417C28.9779 13.1294 28.0887 13.6753 27.1476 14.0521C25.3941 14.7541 23.2672 14.7886 21.4734 14.2702C20.6182 14.023 18.9437 13.1712 18.1064 12.6568C18.0205 12.8121 17.9353 12.9678 17.835 13.1144L17.5433 13.5243C17.5014 13.5834 17.4352 13.6597 17.4134 13.7283L17.971 14.0069L20.4173 15.0637C22.3675 15.7897 25.0346 15.9206 27.0432 15.2385L30.609 13.7318L29.8642 12.6417ZM16.4528 14.4733L13.5287 16.2568C13.6628 16.6527 13.8704 17.042 13.9732 17.4465L15.5988 22.2498C15.7184 22.6634 15.6675 23.1999 15.6676 23.6297L15.6694 36.7018C15.6691 38.6526 15.4989 41.207 17.8451 41.9225L17.9505 41.9622C18.0117 41.9877 18.0641 41.9989 18.1292 42.0082L18.1689 42.0142C18.6493 42.0819 19.1728 42.0433 19.6592 42.0432L28.43 42.0439C29.9205 42.0436 31.028 41.9552 31.8585 40.4636L31.9974 40.1814C32.3924 39.2394 32.3129 38.252 32.3138 37.2495L32.315 23.5891C32.3144 22.3473 32.4121 21.9302 32.8548 20.7178L34.4572 16.2183C34.3211 16.1322 34.1705 16.0685 34.0305 15.9876L32.8934 15.3195C32.4357 15.0555 31.9749 14.7994 31.5576 14.4731L31.5234 14.4969C31.2686 14.6701 30.9754 14.7931 30.6974 14.923L29.3957 15.5045C28.6909 15.8001 27.9795 16.1048 27.25 16.3346C23.5057 17.5145 20.788 16.5105 17.4344 14.9796L16.7967 14.6577C16.6937 14.6005 16.5662 14.491 16.4528 14.4733ZM35.3453 16.9577L33.9083 21.0552C33.4801 22.1984 33.4104 22.3096 33.4201 23.5436C33.4229 23.8947 33.3962 24.2476 33.4171 24.5983C33.5416 24.637 33.6647 24.6105 33.7912 24.6706C34.1973 24.8636 34.4594 25.2833 34.6881 25.653L35.0264 26.228C35.2591 26.6716 35.3927 27.1225 35.571 27.5852L36.0681 29.5231L36.4236 31.7936C36.5436 32.5354 36.7163 33.8713 36.9767 34.5696L37.4421 36.3087C37.6698 37.0896 37.6269 39.0652 37.5796 39.8815C37.5618 40.1889 37.5048 40.4885 37.4955 40.7944L39.3402 40.7942L40.9019 40.7837C40.8417 40.09 40.8063 39.3905 40.9552 38.7042C41.3666 36.807 41.3712 35.3119 41.1864 33.4225C40.7584 29.0469 39.191 22.3988 36.7386 18.6316C36.3599 18.0497 35.9237 17.4013 35.3832 16.9586L35.3453 16.9577ZM12.6301 16.9645C12.226 17.3939 11.7979 17.8501 11.4615 18.3351C9.72061 20.8454 8.33817 25.0879 7.68638 28.1608L6.9961 31.8927C6.75788 33.6705 6.46894 35.5989 6.79955 37.3834L6.99975 38.4503C7.09149 38.9798 7.1692 39.5208 7.16227 40.06L7.11905 40.7932L8.7601 40.7942L10.5173 40.7934C10.392 40.0138 10.3944 39.2597 10.3943 38.4733C10.3941 37.0799 10.5047 36.3782 10.8756 35.0914L11.3181 33.3517C11.7923 31.1559 11.7884 29.0915 12.6614 26.9332C12.8693 26.4192 13.7764 24.3999 14.5373 24.6452L14.5738 24.6534C14.6621 24.2265 14.6056 22.7572 14.5271 22.3758C14.4256 21.8827 14.223 21.4247 14.0621 20.9502L12.6301 16.9645Z" fill="black"/>
</svg>
