<svg width="48" height="48" viewBox="0 0 48 48" fill="none" xmlns="http://www.w3.org/2000/svg">
<path d="M28.1984 38.648L17.7025 38.6493C16.4828 38.6491 15.4776 38.6992 14.8533 37.3365C14.3573 36.254 14.0159 33.5467 13.9069 32.3461L13.7913 30.3966L13.7791 27.3371C13.7751 27.1316 13.7327 26.9334 13.7264 26.7304L13.6794 22.2111C12.2563 24.4182 12.0258 27.464 11.5002 29.9663L10.8831 32.7346L9.6949 36.6185C9.50834 37.1256 9.40127 37.5611 8.80798 37.7338L8.77315 37.7437C8.6089 37.7924 8.43705 37.7996 8.2684 37.7668L6.92121 37.4351C6.3371 37.2972 5.13438 37.2241 5.03224 36.4348C5.00688 36.2388 5.02423 36.0233 5.02582 35.8254L5.06154 34.5012C5.08244 33.7408 5.12609 33.0956 5.18041 32.3437L5.93041 27.0117C6.32384 24.2731 7.05401 21.5451 7.93802 18.9275C9.26252 15.0057 10.932 11.5612 15.4329 11.086C15.7255 11.0551 16.0178 11.0579 16.3113 11.0453L17.7697 10.9876C18.2283 10.0026 18.7465 9.50975 19.8862 9.40784L27.5924 9.39453C28.6848 9.39416 29.5393 9.58292 30.0696 10.7161C30.1903 10.9739 30.1606 10.9865 30.4446 10.9888L32.5083 11.1441C35.7384 11.4842 37.6617 13.2497 39.0117 16.1411C39.1436 16.4235 39.2881 16.7109 39.3871 17.0068L40.2953 19.585C40.3049 19.6212 40.3142 19.6547 40.328 19.6895L41.0782 22.3211C41.1065 22.4036 41.1265 22.4896 41.1438 22.5751L41.7711 25.5761L42.039 27.6679C42.1349 28.4913 42.1168 28.8635 42.3473 29.6685C42.633 30.6665 42.8587 32.1067 42.9191 33.164L42.9506 36.2525C42.949 37.2934 41.6645 37.3104 40.9022 37.4976L40.1085 37.6976C38.3383 38.1515 38.1926 36.5947 37.8021 35.3036C37.3761 33.8949 36.979 32.4422 36.6914 30.9983C36.2433 28.7478 35.9622 26.3783 35.1469 24.2194L34.2978 22.2402C34.2749 22.512 34.2866 22.7586 34.2892 23.0299L34.2796 24.6006C34.2705 24.861 34.2222 25.112 34.2213 25.3733L34.2104 28.9452C34.2047 29.1773 34.1624 29.4059 34.1547 29.6367L34.1317 31.2753L33.7454 34.9245C33.5275 36.3058 33.3072 38.255 31.6576 38.6106C31.2647 38.6953 30.8054 38.6486 30.4012 38.6489L28.1984 38.648ZM20.3327 10.6429C20.1475 10.6466 19.3236 10.541 19.4354 10.9195C19.5605 11.3429 20.18 11.7088 20.5547 11.8806C22.3408 12.6995 25.3918 12.5617 27.206 11.8993C27.7105 11.7032 29.4692 10.6934 27.9093 10.644L20.3327 10.6429ZM29.4095 11.8229C28.2087 13.312 25.6367 13.6713 23.8582 13.6647C22.0594 13.6579 20.1671 13.4037 18.8042 12.1303C18.5855 11.926 18.5344 11.7083 18.3775 12.1355C18.4927 12.4895 18.6468 12.7973 18.8387 13.1153C19.4489 14.102 20.5024 14.6342 21.5977 14.9058L21.9251 14.9806C22.0483 15.0142 22.1745 15.014 22.2995 15.0353C24.0355 15.3311 26.542 15.1494 28.0354 14.2789L28.2204 14.1663C28.8456 13.7959 29.3608 13.0268 29.542 12.334C29.5939 12.1357 29.4996 11.9915 29.4095 11.8229ZM16.421 12.286C15.7841 12.3083 15.1056 12.3358 14.4842 12.4846C11.81 13.1247 10.3847 15.662 9.51241 18.0703L8.63159 20.7262C8.3006 21.8088 7.98794 22.8808 7.75315 23.9882L7.40801 25.4648L6.33284 33.1548C6.31643 33.3465 6.2838 33.5337 6.27448 33.7265L6.24827 35.0303C6.20941 36.1989 5.92643 35.9686 7.08677 36.2246L8.45341 36.5393C8.98352 35.0647 9.45143 33.5536 9.80932 32.0278L11.0234 25.9944C11.4461 24.0911 12.1181 22.302 13.2088 20.6774L13.6684 20.037C13.9554 19.6584 14.3458 19.3861 14.7305 19.8643L14.7566 19.8958C15.0154 20.2181 14.8602 21.6857 14.8781 22.1601C14.8843 22.3228 14.9146 22.4833 14.9194 22.646L14.9309 26.5663C14.9341 26.7742 14.98 26.9787 14.9853 27.187L14.9943 30.082C15.0005 30.3082 15.0459 30.5322 15.0529 30.76L15.0702 31.8914L32.905 31.8917C32.9824 31.7662 32.9009 29.5487 32.9542 29.1675L33.0259 24.4144C33.0353 24.1178 33.1019 23.8312 33.1049 23.5161L33.1106 21.1172C33.1111 20.7894 33.0715 20.4057 33.1196 20.0842C33.1895 19.6179 33.8499 19.5039 34.1411 19.8455C34.9253 20.766 35.7706 22.5287 36.1772 23.6273L36.7597 25.5043C36.7675 25.5428 36.7784 25.5767 36.7904 25.6138L38.3848 32.9722L39.382 36.3131C39.4079 36.4095 39.4659 36.5038 39.5106 36.593L41.4375 36.1202C41.5408 36.0983 41.6469 36.0966 41.7452 36.0561L41.7369 33.3663C41.7235 33.0895 41.6824 32.8161 41.6526 32.541L41.464 31.1183C41.3245 30.3087 41.0272 29.5348 40.9088 28.724C40.8428 28.2723 40.8206 27.8035 40.7819 27.3487L40.5861 25.746C40.2413 23.6339 39.6952 21.554 39.0231 19.5234C37.4917 14.8965 36.0737 12.2567 30.9428 12.2803L30.8501 12.2809C30.7797 12.399 30.7739 12.5228 30.7304 12.6497C29.5787 16.0062 25.8916 16.6837 22.7344 16.3135C20.3529 16.0341 18.417 15.2621 17.3841 12.951C17.3034 12.7703 17.2009 12.5751 17.1558 12.3827L17.1357 12.2818L16.421 12.286ZM15.4371 33.1217L15.2344 33.1377C15.1646 33.2353 15.3056 34.213 15.3441 34.3202L32.5899 34.3135L32.6683 34.31C32.7194 34.0833 32.7612 33.3981 32.7514 33.1455L15.4371 33.1217ZM18.0643 35.5445L16.4305 35.5466C16.1799 35.5472 15.8437 35.5095 15.6035 35.5718C15.6176 35.8978 15.7427 36.518 15.8926 36.7968L15.984 36.9734C16.1621 37.3244 16.4011 37.4218 16.7581 37.4221L30.0762 37.4208L30.9972 37.4193C31.9907 37.4147 32.2238 36.7702 32.3668 35.8607C32.38 35.7775 32.4114 35.6589 32.406 35.5765L18.0643 35.5445Z" fill="black"/>
</svg>
