<svg width="48" height="48" viewBox="0 0 48 48" fill="none" xmlns="http://www.w3.org/2000/svg">
<path d="M29.6036 40.2631L15.7692 40.2866C15.1339 40.2567 15.0199 39.894 15.0192 39.3495L15.0187 38.6185C15.0187 38.0762 14.9828 37.5067 15.0261 36.9673C15.0426 36.7616 14.9465 36.769 14.8382 36.6094C14.6652 36.3546 14.5981 36.0813 14.4683 35.8122C14.2064 35.8141 13.8522 35.8525 13.6031 35.7769C10.9691 34.9777 9.59644 31.4794 9.30957 28.9945C9.23077 28.3116 9.33736 27.5549 9.40594 26.8766L9.59428 24.9882C9.88257 22.2738 10.2995 19.3841 11.5088 16.9003C12.3154 15.2439 13.7904 14.267 15.4718 13.672C15.7909 13.559 15.9798 13.6314 16.2198 13.3448C16.6911 12.7822 16.2829 11.9974 16.2437 11.3671C16.2088 10.8057 16.3036 10.2243 16.5459 9.7136C16.815 9.14646 17.7608 7.92537 18.3526 7.71738L29.5938 7.71387C29.9521 7.74785 30.1994 8.10087 30.4283 8.34471C31.2918 9.26454 31.902 10.1836 31.7631 11.5243L31.7584 11.5663C31.7167 11.9595 31.4278 12.6636 31.6122 13.0168L31.7646 13.3067C31.974 13.6309 32.5464 13.7048 32.896 13.8286C35.1011 14.6092 36.2105 16.0012 37.0316 18.1991C37.2976 18.9112 37.653 20.0713 37.7663 20.8007L38.2725 23.9042C38.306 24.0548 38.3108 24.2149 38.3293 24.3684L38.625 27.3046C38.6723 27.9628 38.7921 28.6465 38.6543 29.3034L38.4566 30.4231C37.8738 32.5697 36.7288 35.017 34.4297 35.747C34.1976 35.8207 33.9416 35.7971 33.7012 35.7883C33.5415 36.1884 33.3283 36.5749 33.0174 36.8785C32.7858 37.1046 33.1617 39.6412 32.8916 39.9694L32.7983 40.08C32.5135 40.3795 31.9702 40.2633 31.6022 40.2636L29.6036 40.2631ZM21.063 8.98338L20.1858 9.00504C20.8063 9.5974 22.97 10.8669 23.6719 10.9692L23.7128 10.9754C24.6367 11.1095 25.5473 10.6253 26.3119 10.1644L28.0256 9.03134L21.063 8.98338ZM18.3637 9.31081C17.7599 9.93326 17.494 10.4059 17.5079 11.2526L17.5205 11.4682C17.5382 11.6494 17.615 11.8426 17.6617 12.0197C17.8585 12.7646 17.6251 13.5259 17.2271 14.1614C18.8256 16.0215 20.8729 17.7251 22.9449 19.0553L23.5465 19.4246C23.688 19.5091 23.8338 19.6044 23.9908 19.6563C25.254 19.1815 28 16.8971 28.9721 16.0003L30.7906 14.1701C30.3949 13.5244 30.1525 12.8712 30.34 12.1057C30.5981 11.0517 30.7075 10.1659 29.6494 9.39626C28.6078 10.2483 26.2178 11.8912 24.9097 12.2186C23.8484 12.4841 22.7736 12.1099 21.8558 11.5966L19.2188 9.91291C18.9347 9.71693 18.6622 9.48293 18.3637 9.31081ZM16.0294 14.8241C15.6553 15.0081 15.2492 15.1171 14.8735 15.2985C13.628 15.8996 12.7352 16.9457 12.296 18.2538L11.7344 19.904C11.4366 20.9065 11.2728 21.9391 11.1175 22.9706L10.7429 26.1032C10.6924 26.6249 10.6004 27.1501 10.5736 27.6736L10.5678 28.4599C10.5701 29.1559 10.6838 29.9627 10.9146 30.6183L11.169 31.3892C11.5064 32.3411 12.9601 34.5045 14.1123 34.5401C13.9731 33.9961 13.8163 33.4587 13.711 32.9062L13.5452 31.7811C13.5018 31.485 13.5224 31.1657 13.5226 30.8659L13.5976 25.8501C13.6707 24.0868 13.6943 22.2671 14.4066 20.6194C14.5955 20.1825 15.0166 19.2421 15.6525 19.7474C16.1198 20.1188 15.6769 20.8336 15.5189 21.246C15.0979 22.345 14.9318 23.5417 14.8835 24.7126L14.8733 25.7294C14.8647 25.9741 14.8053 26.2062 14.7964 26.4498L14.7907 30.9298C14.792 31.7827 14.914 33.047 15.2262 33.8656C15.3681 34.2375 15.6483 34.6198 15.5084 35.0259C15.4126 35.3041 15.8916 35.9657 16.0743 36.142C16.4989 36.2019 16.9713 36.164 17.4008 36.1644L31.7344 36.1642C32.2195 36.1655 32.3843 35.6938 32.579 35.2982C32.3924 34.4862 32.4916 34.689 32.7298 33.8955C32.9509 33.1592 33.1596 32.398 33.2005 31.6271L33.1264 25.344C33.036 23.5519 32.9132 22.1971 32.2082 20.5406C31.9167 19.8555 33.0721 19.1406 33.5701 20.5544L33.7823 21.1022C33.8526 21.2754 33.9097 21.4895 33.9478 21.673L34.3262 24.2226C34.3416 24.3754 34.3761 24.5221 34.3851 24.676L34.4086 26.2082C34.4157 26.3875 34.4635 26.5605 34.4705 26.7411L34.4787 30.5926C34.4773 31.802 34.3393 32.927 33.9898 34.0956C33.8913 34.425 33.8235 34.6496 34.2501 34.445C36.691 33.2741 37.7188 29.8112 37.3881 27.2577L37.2201 25.565C36.9315 22.8577 36.3562 17.627 34.0763 15.8493C33.4094 15.3292 32.6556 15.0746 31.8531 14.8423C31.4751 15.3753 31.014 15.812 30.549 16.2675L29.5321 17.2426C28.4051 18.2445 25.9209 20.2358 24.4943 20.851C23.7236 21.1833 23.2076 20.7266 22.5559 20.3184C21.6569 19.7554 20.808 19.1291 19.9768 18.4711L19.4018 18.0263C18.4604 17.2433 17.5908 16.4221 16.7313 15.5494C16.5034 15.3181 16.3194 15.0334 16.089 14.8126L16.0294 14.8241ZM16.2473 37.4703L16.237 38.3643C16.2368 38.5776 16.2275 38.7946 16.2565 39.0063L31.6758 39.0147L31.7475 39.0058C31.7611 38.8501 31.8083 37.5812 31.7437 37.4629L16.2473 37.4703Z" fill="black"/>
</svg>
