<svg width="48" height="48" viewBox="0 0 48 48" fill="none" xmlns="http://www.w3.org/2000/svg">
<path d="M16.9856 41.4727C15.8589 41.0957 15.2084 40.0977 14.9674 38.9648C14.8889 38.5957 14.9445 38.155 14.9453 37.7761L14.954 31.449C14.9547 30.3024 14.9852 29.1572 14.8126 28.0195C14.6714 27.0893 14.3749 26.2103 14.1705 25.2968C14.1087 25.3983 14.0799 25.6028 14.0514 25.7201L13.1599 29.3383L10.8646 36.1826C10.7478 36.5191 10.6456 36.8708 10.566 37.2181C10.3697 38.0743 10.1904 38.6174 9.21114 38.4309C7.99529 38.1993 6.69535 37.6765 5.62923 37.0598C4.72234 36.5351 4.6384 36.2736 4.77629 35.2265L6.14814 27.8224L7.81328 21.0576C8.58282 18.1732 9.38148 15.2645 10.6174 12.539C10.8298 12.0707 11.0205 11.5693 11.2899 11.1302C12.5075 9.14523 13.9236 8.54537 16.0502 8.19137C17.0109 8.03144 17.9312 7.79964 18.1874 6.71556C18.2538 6.43436 18.3866 5.60664 18.9128 5.77108L18.9386 5.77965C19.1527 5.83975 19.3273 5.9568 19.3967 6.18376L19.4074 6.22262C19.5167 6.49033 19.4748 6.81437 19.4752 7.10256C19.4757 7.57286 19.7443 7.66305 20.185 7.90492C20.7979 8.2413 21.4834 8.42148 22.1717 8.52367L22.7738 8.59675C23.9821 8.80342 25.8267 8.56656 27.0104 8.24505L27.3733 8.11909C27.794 7.94495 28.4843 7.63309 28.496 7.10903L28.5079 6.44186C28.5189 6.05804 28.6541 5.86853 29.032 5.74515C29.8116 5.73892 29.714 6.5177 29.9256 7.03122C30.4999 8.42486 32.0712 8.0582 33.3507 8.48162L33.6677 8.58053C35.0627 9.07937 36.2584 10.1583 36.9373 11.4726L37.3236 12.2927L39.3893 18.1924L40.2348 21.1729C40.3395 21.4576 40.4306 21.8163 40.4844 22.1191L41.0514 24.3332L42.7588 32.561C42.89 33.0275 42.9307 33.6005 43.0311 34.0898L43.3014 35.644C43.433 36.5088 43.0099 36.8252 42.3162 37.2198C41.3509 37.7689 38.6911 38.9153 37.8675 38.2552C37.5369 37.9902 37.4047 36.9903 37.2327 36.4962L35.8204 32.5375L34.1183 26.3672C34.0213 26.0003 33.9176 25.6445 33.8722 25.2662C33.8107 25.6482 33.6896 26.0287 33.5903 26.4023C33.0715 28.354 33.113 29.4688 33.1122 31.4282L33.1162 37.4937C33.1151 40.0751 32.4554 41.2466 29.9632 41.7297L27.4659 42.1561C25.7042 42.369 23.8818 42.4289 22.1131 42.2889L21.3741 42.2517C20.1113 42.146 18.2183 41.8647 16.9856 41.4727ZM18.6887 8.31245C17.0906 10.1493 14.1214 8.59595 12.2393 11.885C13.3637 13.3905 14.9589 14.0784 16.7905 14.3487L18.4137 14.5603C18.5574 14.5772 18.6999 14.6107 18.8435 14.6235L21.2775 14.8238L26.5417 14.827C27.7511 14.7792 29.2534 14.6375 30.4274 14.4513L31.4998 14.2732C33.1334 13.9809 34.5514 13.3736 35.5964 12.0499L35.7506 11.8287C35.0864 10.731 33.9684 9.87587 32.721 9.57311C31.4329 9.26045 30.3019 9.42175 29.2731 8.35773C27.7295 9.78569 25.2743 9.94783 23.2732 9.86823C21.7305 9.80683 19.8191 9.48212 18.6887 8.31245ZM36.3189 13.0541C35.2664 14.4592 33.6851 15.0526 32.0422 15.4194L30.3631 15.7272L26.208 16.1054L21.6174 16.1004C21.4035 16.0923 21.1935 16.053 20.98 16.0399L17.9432 15.7611C15.623 15.4559 13.6382 15.0866 11.9334 13.3833C11.8485 13.2985 11.7615 13.189 11.6616 13.1245C10.7553 15.2687 10.0389 17.4847 9.43745 19.7316L8.92098 21.5515L7.60525 26.8617L6.69924 31.4729L10.6239 33.1666L11.3456 30.9961L13.0957 24.6194C13.3754 23.4904 13.472 23.3784 13.3443 22.2199C13.2966 21.7862 13.2662 21.1189 13.3467 20.6836L13.352 20.6536C13.3743 20.5526 13.5145 20.4055 13.605 20.3558C14.391 19.9236 14.5281 20.7146 14.5124 21.2725C14.4925 21.9757 14.5473 22.6126 14.7682 23.2851L14.9321 23.8186C15.0828 24.2047 15.1808 24.6235 15.3041 25.0195L15.7106 26.4368C15.828 26.9289 15.9489 27.462 15.99 27.9679L16.0263 28.7665L16.0349 34.2547C16.0414 35.0545 16.0437 34.8467 16.9235 35.1025L19.2549 35.6601C20.9212 35.9726 22.1393 36.1225 23.8114 36.1231L25.4385 36.1079C26.5488 36.0464 27.6593 35.8747 28.7459 35.649L31.4881 34.9919C31.597 34.9637 31.7177 34.9576 31.822 34.9179L31.8888 34.8872C31.9141 34.7258 31.8978 34.5418 31.8977 34.3779L31.8972 30.3352C31.8981 27.6396 32.2076 26.6527 32.9658 24.1523C33.3149 23.0012 33.4951 22.5207 33.4959 21.3032C33.496 21.1375 33.4719 20.9327 33.5073 20.7723C33.6411 20.1662 34.473 20.079 34.6959 20.6718L34.7079 20.7028C34.9473 21.3807 34.4948 22.7607 34.613 23.2382L34.9233 24.6328C34.9537 24.7498 34.967 24.8708 35.0034 24.9863L36.4771 30.6832C36.5557 31.004 36.6812 31.3392 36.7849 31.6538L37.1719 32.8007C37.2148 32.9215 37.2388 33.023 37.3028 33.1365L41.3186 31.5497L40.0508 25.3242L38.1912 18.4459L37.0507 14.8823C36.8298 14.267 36.6054 13.6422 36.3189 13.0541ZM6.41673 32.7024L5.89014 35.7871C6.52023 36.3111 8.51232 37.0907 9.3122 37.2347L9.39826 36.8928L10.2238 34.3056L6.41673 32.7024ZM41.5645 32.7773L37.7394 34.3314L38.6321 36.9553L38.711 37.2585C39.5436 37.0555 40.4012 36.8049 41.1797 36.4438L42.1242 35.9471C42.0984 35.7029 41.673 32.9062 41.5645 32.7773ZM16.1093 36.163L16.1046 37.8053C16.1048 38.0958 16.0841 38.4059 16.1209 38.6934C16.3374 40.3829 17.9297 40.4786 19.2648 40.7226C20.2327 40.8995 21.2484 41.0392 22.2334 41.0912L25.6588 41.087C26.6734 41.0305 27.6864 40.8792 28.6873 40.7117L29.7185 40.5231C30.4726 40.3773 31.1105 40.2299 31.5565 39.5457C31.8833 38.9474 31.8958 38.4505 31.8983 37.7859L31.8697 36.1884C31.7338 36.2464 31.5726 36.2693 31.4293 36.3082L29.8844 36.6811C28.8219 36.9304 27.7645 37.0907 26.6834 37.2275L25.2827 37.3663C22.4894 37.5128 18.8198 37.0663 16.1093 36.163Z" fill="black"/>
</svg>
