<svg width="48" height="48" viewBox="0 0 48 48" fill="none" xmlns="http://www.w3.org/2000/svg">
<path d="M17.9003 39.906L17.1522 39.8119C16.5018 39.7301 15.8479 39.6013 15.2088 39.4568C13.4971 39.07 12.6675 38.6791 11.7247 37.1183C11.6307 36.9627 11.5709 36.8138 11.4568 36.6674C10.8731 37.4438 10.3793 38.5885 10.3382 39.5625C10.3165 40.0766 10.2532 40.7806 9.49021 40.6153L4.74974 39.3916C4.50643 39.328 4.24505 39.2883 4.00752 39.2093C3.41897 39.0134 3.68022 38.3056 3.68338 37.875C3.6883 37.2035 3.60817 36.5922 3.50489 35.9295C3.27689 34.4662 3.43155 32.9688 3.78296 31.5372L4.2492 29.7777C5.3526 25.1297 6.79569 20.5387 8.4958 16.0743C8.88069 15.0637 9.14915 13.9695 9.80582 13.0904C10.9725 11.5285 12.5781 10.883 14.3994 10.5048L16.6964 10.1138C18.7011 9.82448 17.4079 8.40497 17.9645 7.68717C18.3037 7.24978 18.6741 7.51195 19.0781 7.64916L19.9053 7.90233C20.4801 8.06264 21.1065 8.18152 21.6999 8.24597L23.7679 8.36709C25.3565 8.36625 27.0195 8.20003 28.5172 7.63533C28.7423 7.55048 28.9208 7.42317 29.1656 7.38867C29.4473 7.41258 29.6684 7.49395 29.8014 7.77103L29.8117 7.79302C29.9971 8.14988 29.7942 8.64319 29.8384 9.02231L29.8451 9.06441C29.8949 9.43177 30.1318 9.84464 30.5009 9.96638L30.5388 9.97809C30.7536 10.0471 30.9641 10.0333 31.1844 10.0595L31.8272 10.1568C34.2033 10.5053 37.0326 11.2305 38.2124 13.533C38.5152 14.1237 38.7063 14.7899 38.9058 15.4219L41.3214 22.336L43.4893 29.5531C43.5463 29.8691 43.6547 30.2021 43.735 30.5157L44.063 32.0274C44.1874 32.5467 44.3229 33.0859 44.4015 33.6139C44.6297 35.1467 44.4041 36.0735 44.2147 37.5503C44.1698 37.9008 44.1439 37.8647 44.278 38.2149C44.5131 38.8286 43.919 39.0329 43.4678 39.1292L39.2698 40.0735C38.8933 40.1588 38.5101 40.2905 38.1325 40.3564C37.3299 40.4963 37.3753 39.7071 37.292 39.255C37.1218 38.3314 36.8856 37.5069 36.3613 36.7056C36.2476 36.8869 36.1618 37.0807 36.0572 37.2665C35.0638 39.0298 33.7528 39.2644 31.9516 39.5743L27.6549 40.1026L25.8762 40.2083L21.7093 40.2096L17.9003 39.906ZM28.5472 8.98833C26.1156 9.77963 21.6389 9.85406 19.1279 9.00966C19.0848 9.984 18.7994 10.5953 17.8709 11.0851C18.2179 11.7533 18.9525 12.2912 19.5809 12.6607C20.2765 13.0437 20.9162 13.2207 21.6958 13.3459C24.0863 13.73 27.5926 13.6435 29.4344 11.8775C29.6582 11.663 29.904 11.4157 30.0058 11.1148C29.1113 10.5379 28.6532 10.2301 28.6018 8.98744L28.5472 8.98833ZM31.2996 11.3511C30.8403 12.5491 29.5881 13.4939 28.4533 14.0049C26.3872 14.9354 22.2324 15.0992 20.0125 14.2524C18.7767 13.781 17.4724 12.9086 16.7858 11.7422C16.5446 11.3323 16.7513 11.3872 16.2989 11.4519C13.8758 11.7983 11.2193 12.31 10.2373 14.929L8.76177 18.9413L6.29268 26.7941L5.49069 29.9297C5.04936 31.774 4.66085 32.682 4.66523 34.6066C4.66745 35.5823 4.93766 36.5415 4.94408 37.5118C4.94549 37.7243 4.91563 37.9659 4.94722 38.1743L9.11235 39.2355C9.34293 38.1714 9.58565 37.2939 10.1707 36.375L10.7457 35.5483C11.096 35.0552 11.0468 34.8482 10.924 34.1978C10.7311 33.1772 10.9211 31.4329 11.2589 30.4053C11.3468 30.1381 11.4661 29.8827 11.5634 29.6188C11.8193 28.9249 11.9321 28.2157 12.0349 27.4865L12.643 22.4424C12.6928 22.0483 12.6602 21.4983 13.1599 21.3956L13.1889 21.3893C13.8451 21.2573 13.9061 21.8795 13.8773 22.3583L13.3092 27.2693C13.1898 28.2029 13.0654 29.127 12.7392 30.0147C12.2448 31.3601 11.9913 32.2755 12.109 33.7383C12.1906 34.7526 12.1509 35.3568 12.6941 36.2889C13.0257 36.8578 13.3359 37.3898 13.9271 37.7363C15.4059 38.4955 18.0758 38.6522 19.7216 38.8077C20.2999 38.8623 20.8972 38.9127 21.478 38.9221L24.0541 38.9737L27.8367 38.8019L32.4842 38.2032C34.5729 37.8173 35.0676 36.945 35.551 34.8868C35.8489 33.6185 35.8277 32.01 35.4021 30.7912C35.1819 30.1607 34.9149 29.5702 34.7822 28.9102C34.5636 27.8227 34.4244 26.7094 34.3206 25.6055L34.12 22.6302C34.1173 22.3818 34.0775 22.0988 34.1284 21.856C34.1932 21.5468 34.5643 21.3484 34.8596 21.4359L34.8992 21.4473C35.2501 21.5545 35.2993 21.8152 35.3186 22.1368L35.4123 23.5293C35.4299 23.8725 35.4151 24.2159 35.4466 24.5592L35.7661 27.0938C35.8801 27.8891 35.9505 28.727 36.2348 29.4844L36.6745 30.6524C36.9652 31.3607 36.9443 32.2457 36.946 32.9942L36.9444 34.6036C36.9425 34.8569 36.857 35.19 36.9974 35.4069L37.2 35.716C37.6689 36.4318 37.9773 37.1525 38.2678 37.9465L38.4873 38.9483L42.9342 37.9764C42.9561 37.4746 43.0546 36.9881 43.1241 36.4922C43.3401 34.9504 43.1957 33.8924 42.8737 32.3672C42.3371 29.8251 41.6093 27.3328 40.8126 24.861L39.7306 21.4739L37.6021 15.4782C37.4645 15.0777 37.3809 14.6523 37.193 14.2713C36.3118 12.4856 34.3142 11.8815 32.5041 11.5599C32.1102 11.4899 31.6802 11.4761 31.2996 11.3511Z" fill="black"/>
<path d="M22.25 21.8886C22.0048 22.0277 21.6666 22.038 21.448 21.8382C20.9177 21.3533 21.5071 20.8648 21.8309 20.5521L23.0048 19.4343C22.4894 18.8936 20.7983 17.8115 21.4371 17.0546C21.8637 16.5491 22.2996 17.0134 22.6246 17.3245L23.8869 18.5651L25.0085 17.4826C25.2779 17.2201 25.4579 16.956 25.8132 16.8065C26.0434 16.7956 26.3154 16.8877 26.4392 17.0933L26.4551 17.1213C26.7621 17.6512 26.2476 18.0376 25.9127 18.3653C25.5477 18.7224 25.1732 19.0878 24.7804 19.4141C24.9042 19.5561 25.0567 19.6794 25.1908 19.8131L26.1682 20.7916C26.3076 20.9302 26.5146 21.0911 26.6122 21.2604L26.6558 21.3443C26.744 21.5381 26.6896 21.792 26.5542 21.9494C26.0596 22.5247 25.6161 21.9918 25.2383 21.6208L23.9182 20.3054C23.7716 20.397 23.6344 20.5718 23.5079 20.693L22.25 21.8886Z" fill="black"/>
</svg>
