<svg width="48" height="48" viewBox="0 0 48 48" fill="none" xmlns="http://www.w3.org/2000/svg">
<path d="M28.98 38.9791L16.0961 38.9798C15.7543 38.9797 14.5244 39.0861 14.2932 38.8977L14.1792 38.8001C13.8604 38.4651 13.9842 37.9105 13.9845 37.4872L13.9792 25.7407L13.8956 24.5267C13.882 24.3634 13.856 24.2064 13.8584 24.0418L13.8591 24.0097C13.7702 24.1706 13.7164 24.3664 13.6532 24.5395L11.4335 31.7688L9.09888 38.9424C8.95966 39.3654 8.82621 39.7736 8.40124 39.9864C7.87342 40.2506 7.48769 39.9405 6.99578 39.7303C6.22366 39.4004 5.43719 39.1557 4.60974 39.0087C3.5404 38.8188 3.35531 39.028 3.64815 37.8383L5.41417 29.4219L7.18314 22.7785C7.76903 20.8358 8.40283 18.8991 9.19094 17.0279C10.1893 14.6577 11.8603 12.507 14.437 11.759C15.3603 11.491 16.9121 11.4373 17.4707 10.5566L17.4894 10.5261C17.5512 10.4306 17.6013 10.3594 17.6147 10.2416L17.6188 10.1987C17.683 9.59317 17.4399 8.27237 17.9441 7.97786L17.9728 7.96164C18.1293 7.8715 18.2845 7.89091 18.4584 7.89081L19.119 7.8925L29.7004 7.88931C29.7902 7.88973 29.9001 7.87937 29.9785 7.9285L29.9995 7.94228C30.3307 8.13226 30.3571 8.42181 30.3612 8.76925L30.3675 9.68828C30.3682 9.89598 30.339 10.1482 30.4222 10.3433C30.8471 11.3391 32.3056 11.4382 33.1965 11.65C35.6011 12.2216 37.7298 14.337 38.6358 16.6093L39.8589 19.7397L41.2935 24.3643L42.5508 29.2985L44.3322 37.6966C44.4646 38.5557 45.0077 39.1394 43.5886 39.162C42.7136 39.176 41.4606 39.6444 40.6402 39.9362C39.8682 40.2107 39.3127 40.1336 39.0035 39.211L34.1221 23.983C34.0624 24.2448 34.071 24.5401 34.056 24.8079L34.0127 37.2673C34.014 37.608 34.1238 38.3415 33.9478 38.6319L33.9303 38.6595C33.7004 39.0287 33.4754 38.9785 33.0904 38.979L28.98 38.9791ZM18.926 9.21053L18.9147 10.3281L29.0876 10.3188L29.0859 9.22328L18.926 9.21053ZM18.8112 11.6279C18.6284 11.6273 18.2906 11.583 18.1561 11.7214C17.6075 12.2855 16.7148 12.6266 15.9639 12.7922L15.0479 12.9585C14.5899 13.059 14.1746 13.2201 13.78 13.4753L13.8201 13.7145C13.8585 13.8925 13.8493 14.0875 13.8645 14.2692C13.9421 15.1939 14.2832 16.0637 14.4453 16.9717L14.7623 18.9542C14.7989 19.2401 14.8042 19.5287 14.8258 19.8157L15.1102 22.8732C15.1225 22.9889 15.1503 23.1025 15.1573 23.2185L15.193 24.4414C15.2037 24.6297 15.2495 24.8053 15.2558 24.9964L15.2723 35.3668C15.2727 35.5473 15.2558 35.7435 15.2816 35.9214L29.2144 35.9196L32.7195 35.9238L32.7316 24.7433C32.7406 24.5257 32.7787 24.3097 32.7952 24.0926L33.0564 20.9102C33.0921 20.6299 33.1463 20.3492 33.166 20.067C33.2081 19.4609 33.2388 18.9577 33.3119 18.3509L33.9993 15.1849C34.1222 14.6315 34.195 14.0394 34.2132 13.473C32.8728 12.5592 31.2444 13.0649 29.8679 11.686C29.716 11.5338 28.9489 11.6264 28.7183 11.6264L18.8112 11.6279ZM12.5735 14.3313C11.3197 15.168 10.2667 17.7744 9.77078 19.1142L8.54594 22.735L7.04313 28.1608L5.48744 35.3917C5.4573 35.5648 5.40541 35.7388 5.39303 35.9144L7.02513 36.3423L8.44427 36.8067L12.0011 25.3135C12.3029 24.432 12.6183 23.5383 13.0061 22.6907L13.5533 21.5525C13.8364 20.9628 13.2897 17.7586 13.146 17.0852L12.7412 15.4124C12.6751 15.0756 12.694 14.6386 12.6005 14.3409L12.5735 14.3313ZM35.4668 14.3288L34.792 17.3782C34.5836 18.4534 34.4671 19.5398 34.3959 20.6311C34.3648 21.1075 34.3144 21.2435 34.5158 21.6778L34.858 22.3792C35.1835 23.0731 35.4888 23.8043 35.7078 24.5387L36.4223 26.6712L37.6169 30.7812L39.3628 36.3337C39.4893 36.709 39.4047 36.8846 39.75 36.7654L41.048 36.3196L42.6342 35.9151L40.8936 27.9601L38.7855 20.6456C38.0375 18.4597 37.2779 15.8965 35.4668 14.3288ZM42.8815 37.2063L40.8706 37.7492C40.5844 37.8313 40.2507 37.8998 39.9818 38.0234C40.0046 38.1004 40.0269 38.1735 40.0588 38.2473L40.2223 38.7051C41.1703 38.3268 42.0938 38.135 43.0921 37.9338L42.9852 37.4993C42.9657 37.4111 42.9653 37.2844 42.9176 37.2092L42.8815 37.2063ZM5.10358 37.2059L5.00796 37.7924C5.56169 37.9517 6.13394 38.0364 6.68688 38.208L7.46561 38.4877C7.58369 38.5352 7.70196 38.6163 7.8258 38.6418L7.86063 38.5657L8.03294 38.0186L5.10358 37.2059ZM15.8373 37.2394C15.357 37.2613 15.2508 37.0901 15.2613 37.5902C15.4251 37.6248 15.6218 37.6119 15.7898 37.612L32.232 37.6118L32.7513 37.618L32.7346 37.2792C32.0935 37.1987 31.4161 37.2408 30.7693 37.2402L15.8373 37.2394Z" fill="black"/>
</svg>
