<svg width="48" height="48" viewBox="0 0 48 48" fill="none" xmlns="http://www.w3.org/2000/svg">
<path d="M29.2964 36.341L28.3529 36.2705C27.7731 36.25 27.213 36.1724 26.6297 36.1698L20.6015 36.183C20.3596 36.1919 20.126 36.2399 19.8872 36.2567L15.1252 36.6606C14.6482 36.7033 14.1871 36.8658 13.8793 36.366L13.8612 36.3326C13.7295 36.094 13.7922 35.6815 13.779 35.4093L13.7197 34.6193C13.6783 33.5801 13.5606 32.5246 13.5203 31.4981L13.2607 27.7429L12.1197 31.9924L11.3517 36.4869C11.2295 37.606 11.2452 38.7214 11.2454 39.8456C11.2456 41.4506 11.3704 44.0463 9.64196 44.9484C8.21002 45.6956 6.66994 44.1825 6.67482 42.7268L6.68278 34.0925C6.70735 33.6155 6.77635 33.1293 6.83368 32.6548L7.80802 25.8752C8.33246 22.7426 9.04463 19.6443 10.3653 16.7396L11.6402 14.261C11.7334 14.0988 11.8834 13.9816 11.9808 13.8208C13.4213 11.4415 14.491 9.41004 16.8901 7.89883C17.1474 7.73674 17.0851 7.79318 17.0912 7.51193C17.1042 6.9206 17.2725 6.41257 17.6807 5.97897C18.0305 5.60744 17.9199 5.80507 17.8482 5.27163C17.8192 5.05647 17.8253 4.83166 17.8104 4.61449C17.7469 3.68521 17.617 2.70247 18.7569 2.46484L28.3737 2.48367C29.2422 2.48252 29.7673 2.28704 30.1997 3.24595C30.3533 3.58654 30.1933 4.90441 30.1521 5.27969C30.092 5.82635 30.0204 5.59263 30.3477 5.98811C30.689 6.40061 30.9074 6.90011 30.9085 7.44161C30.9086 7.48713 30.879 7.69685 30.8931 7.72436C30.9149 7.76702 31.5519 8.158 31.6356 8.21758C33.6575 9.65641 34.8083 11.8905 36.0872 13.9496C36.1568 14.0616 36.2853 14.0994 36.348 14.2036C37.0606 15.3875 37.8799 17.0996 38.3218 18.3776L39.3768 21.8088C39.5515 22.4234 39.6799 23.0537 39.8036 23.6812L40.6351 29.0986C40.6597 29.2572 40.6655 29.421 40.6923 29.5783L41.2624 34.0974C41.2736 34.2523 41.3163 34.4043 41.325 34.5601L41.3437 42.8101C41.3423 44.3133 39.7162 45.7039 38.2776 44.9275C37.4037 44.4559 36.8774 42.9913 36.7687 42.014C36.7172 41.5517 36.7543 41.0547 36.7537 40.5873C36.7526 39.6 36.792 38.5949 36.7275 37.6105C36.5482 34.876 35.8785 31.729 35.1408 29.1081L34.8371 27.995C34.8008 27.856 34.7854 27.7124 34.7438 27.5751C34.6709 28.0119 34.6868 28.4599 34.6529 28.9008L34.3909 32.9139C34.3748 33.2343 34.3262 33.5433 34.3169 33.8645L34.2124 36.0006C34.1883 36.8636 33.3933 36.6882 32.8551 36.6484L29.2964 36.341ZM18.7721 3.52685C18.7468 3.81735 18.7962 4.69183 18.8286 5.03725C18.87 5.47933 19.1576 6.05074 18.7368 6.40408C18.5616 6.55122 18.374 6.64507 18.2625 6.85568L18.244 6.88957C18.1439 7.07824 18.052 7.42404 18.1164 7.63202L18.1514 7.75877C18.6091 9.7346 24.0918 9.61146 25.711 9.47904L26.3022 9.403C27.0979 9.31572 27.9154 9.21743 28.6589 8.90168C29.1017 8.71394 29.6255 8.3785 29.8089 7.91036L29.8719 7.69535C30.0859 6.87954 29.4447 6.65257 29.1526 6.2463L29.134 6.22122C28.9557 5.97433 29.0545 5.55007 29.1044 5.26793C29.2068 4.68879 29.2537 4.11431 29.2519 3.5263L18.7721 3.52685ZM30.5338 8.75411C29.4587 10.1031 27.1088 10.4996 25.4521 10.5708L23.7901 10.5764C21.8037 10.5774 18.8645 10.4355 17.5481 8.83183C17.4849 8.75482 17.5088 8.74511 17.4248 8.7941C15.2498 10.0641 14.1851 12.2552 12.8851 14.2999C13.9973 15.7311 13.6571 18.3629 13.5741 20.133C13.5517 20.6096 13.4798 21.0641 13.5094 21.545L14.4104 28.9453L14.491 30.2672C14.5165 30.5119 14.4919 31.7332 14.5959 31.8828C14.8786 31.8761 15.1671 31.8769 15.4458 31.8298L16.014 31.7964C16.595 31.7699 17.2221 31.734 17.8013 31.6948L19.161 31.6107L28.3833 31.6086L32.3652 31.8093C32.7083 31.8304 33.0793 31.8542 33.4191 31.8965L33.7804 27.176L34.3483 22.8767C34.3736 22.6849 34.4096 22.4984 34.4183 22.3043L34.4124 19.4635L34.3312 17.2295C34.3321 16.2724 34.4213 15.0591 35.13 14.3444C34.9381 13.9113 34.635 13.5085 34.3834 13.1067C33.5974 11.8516 31.9562 9.36199 30.5338 8.75411ZM35.7053 15.26C35.1957 16.3023 35.3671 17.8403 35.3971 18.9593C35.4039 19.2133 35.3668 19.4849 35.4222 19.7332C35.6333 20.6803 35.4406 22.6031 35.3091 23.5531C35.1697 24.5596 35.0346 24.5777 35.2986 25.6174L35.4858 26.3908C35.5866 26.7454 35.6424 27.1208 35.7668 27.469L36.5986 30.6115C36.8033 31.2795 36.9061 31.9951 37.0447 32.6803L37.7038 37.1369C37.7188 37.2808 37.7476 37.4219 37.7532 37.5671L37.7577 41.3571C37.7663 42.2103 38.25 44.5423 39.4795 44.0348L39.4951 44.0287C40.0552 43.6863 40.3288 43.1732 40.3294 42.5355L40.3106 34.8041C40.2045 32.8622 39.8699 30.9445 39.5904 29.0221L38.6138 22.9657C38.0741 20.4229 37.1589 17.8035 35.8872 15.5324L35.7053 15.26ZM12.2834 15.3019C12.0752 15.5795 11.9362 15.9005 11.7834 16.2101L11.0556 17.7776C9.86883 20.6168 9.20053 23.552 8.72719 26.5845L7.92807 32.2634C7.77699 33.3173 7.68099 34.3546 7.67579 35.4223L7.66829 42.7374C7.67114 42.8562 7.69041 42.9685 7.73541 43.0783L7.78046 43.2102C7.89868 43.5601 8.24663 43.8807 8.57049 44.0354C9.5686 44.4357 10.1413 42.7175 10.2256 42.0002C10.2741 41.5876 10.2397 41.136 10.2398 40.7194L10.2402 38.1634C10.2406 37.5678 10.2786 36.9948 10.3313 36.403L11.4028 30.5047C11.6618 29.4183 13.0359 25.2867 12.8665 24.5613L12.7681 24.0584C12.5784 22.8266 12.4236 21.604 12.4982 20.3558L12.5953 18.8564C12.6381 18.2442 12.7917 15.717 12.2834 15.3019ZM21.8804 32.6646L14.6393 32.9553L14.792 35.604L26.2414 35.0792L33.2043 35.6271L33.3275 32.963L21.8804 32.6646Z" fill="black"/>
</svg>
