<svg width="48" height="48" viewBox="0 0 48 48" fill="none" xmlns="http://www.w3.org/2000/svg">
<path d="M31.5304 37.7589C31.3715 37.7357 31.0997 37.7722 30.9309 37.7723L17.7919 37.7763C17.3906 37.7775 16.9385 37.8204 16.5446 37.7653C15.5084 37.6206 14.5835 36.7619 14.4549 35.7069C14.3564 34.8993 14.5303 34.2245 14.323 33.4046L14.1923 32.7762C14.0873 32.1696 14.1027 31.527 14.073 30.9139L14.0397 27.8902L11.9648 30.9182L9.70568 34.897C8.98516 36.2905 9.1137 36.6775 7.28379 35.8349L5.07415 34.8298C4.04783 34.3645 3.80258 34.03 4.15861 32.7872L4.39279 31.9623C4.89776 30.1517 5.53849 28.3977 6.23041 26.6512L9.35613 19.5335L12.3562 13.6948C13.0436 12.5858 14.2656 11.7938 15.5507 11.5665C16.1015 11.469 16.6695 11.4652 17.2141 11.3372C17.3478 10.7523 17.4038 10.3655 18.0393 10.1507C18.1316 10.148 18.2484 10.1337 18.3365 10.1633L18.3632 10.1732C18.5741 10.248 18.7244 10.3673 18.9023 10.4978C19.8876 11.2206 21.0338 11.5148 22.2291 11.6544C23.2396 11.7724 24.3745 11.8605 25.3785 11.7087L26.0976 11.6216C26.8718 11.5121 27.7526 11.3153 28.4275 10.9276L29.0088 10.5588C29.1698 10.4458 29.358 10.2786 29.5435 10.2174L29.6462 10.1806C30.4065 9.92036 30.6641 10.8079 30.8227 11.3098C31.6013 11.5411 32.4236 11.5311 33.1997 11.7933C35.1013 12.4356 35.763 13.7923 36.6219 15.4638L37.7761 17.7186L40.4191 23.4506C40.6357 23.8632 40.7953 24.3146 40.9804 24.7421L42.1512 27.5683L43.1339 30.3661L43.766 32.5246C43.7745 32.5723 43.7808 32.6124 43.7961 32.6587L43.9784 33.3703C44.2592 34.2778 43.5134 34.6248 42.8847 34.8991L40.2498 36.0424C38.8833 36.6245 38.8591 35.9806 38.3111 34.9773L36.7897 32.1858L33.9745 27.8815C33.9034 28.0245 33.9531 28.3733 33.9535 28.5369L33.9495 29.9721C33.9456 30.8489 33.9211 31.7321 33.7977 32.6014C33.736 33.0367 33.594 33.4775 33.558 33.9139C33.5189 34.3891 33.615 35.4931 33.5059 35.8702C33.2165 36.871 32.605 37.5603 31.5304 37.7589ZM29.697 11.6131L29.6326 11.6262C29.4805 11.6992 29.3576 11.8032 29.2165 11.8932C28.0793 12.6182 26.3285 12.9121 25.0188 12.9796L23.9467 12.9851C22.2414 12.9801 20.3951 12.7878 18.8756 11.9482C18.6753 11.8376 18.4933 11.7084 18.2883 11.6033C18.2444 11.8009 18.2355 12.0296 18.2786 12.2286C18.3122 12.778 20.5756 13.2506 21.0457 13.3166L21.8558 13.415C22.5023 13.4673 23.0493 13.5026 23.7042 13.503L25.5612 13.4376C26.7027 13.3654 28.7128 13.156 29.6331 12.477C29.8294 12.3321 29.7847 11.7438 29.7145 11.6159L29.697 11.6131ZM17.0602 12.6209C14.9741 12.7389 14.0311 13.2278 13.0429 14.955L11.9422 17.025L8.82415 23.6332C7.90399 25.7214 7.01201 27.8261 6.27926 29.9881L5.62427 32.0389C5.47605 32.5323 5.32034 33.029 5.21552 33.5337C5.68212 33.8629 7.78596 34.7323 8.33702 34.9369C9.27959 33.0175 10.3327 31.1841 11.5012 29.3938L12.5792 27.845C13.86 26.103 14.3022 25.4192 14.5635 23.2978L14.8255 20.7069C14.886 19.4204 15.8743 19.6136 16.0203 20.1681C16.0942 20.449 15.9419 22.0222 15.9069 22.3505L15.7078 23.8917C15.5201 25.0816 15.3052 25.7646 15.2791 26.9967L15.255 30.9608L15.3357 32.0053C15.3741 32.4685 15.4148 32.9475 15.5526 33.3944L32.432 33.3966L32.5231 32.8811C32.6195 32.1748 32.7073 31.4524 32.7369 30.7398L32.7378 26.5311C32.7321 25.5647 32.4083 24.6897 32.2737 23.742L32.0861 22.242C32.0378 21.7546 31.9982 21.2783 31.9833 20.789C31.9701 20.3533 31.8913 19.8328 32.4701 19.7565C33.3136 19.6453 33.1475 20.9356 33.2041 21.4975L33.3836 23.0121C33.4838 23.669 33.5836 24.3395 33.7607 24.9805L33.8288 25.1749C34.1224 26.0274 34.6938 26.7644 35.2059 27.4929L36.5814 29.5077L39.6644 34.9521L42.7896 33.6014L42.2559 31.57L41.2382 28.5639L39.0266 23.3131L36.7608 18.4111L35.3058 15.5629C33.9895 13.1359 33.5722 13.0243 30.9234 12.6038C30.5127 14.1468 28.1223 14.383 26.8195 14.5581C26.3943 14.6152 25.9599 14.6793 25.5314 14.7017L23.9182 14.7211C22.4816 14.7215 21.08 14.6456 19.6818 14.2707L18.6381 13.9534C17.5114 13.5659 17.5738 13.5283 17.1186 12.6157L17.0602 12.6209ZM15.6134 34.6684L15.6318 35.2733C15.634 35.3895 15.6102 35.5306 15.6442 35.6424C15.8048 36.1698 16.3374 36.566 16.8815 36.5654L29.7856 36.5615C30.5163 36.5613 31.3543 36.7375 31.9564 36.2373C32.1036 36.0911 32.2092 35.9561 32.2941 35.7655L32.3096 35.7325C32.3761 35.5857 32.3648 35.4287 32.3651 35.2713L32.3636 34.668L15.6134 34.6684Z" fill="black"/>
</svg>
