<svg width="48" height="48" viewBox="0 0 48 48" fill="none" xmlns="http://www.w3.org/2000/svg">
<path d="M27.7981 43.2271L26.7904 43.3067L20.9629 43.3086C20.6391 43.2967 20.3154 43.2346 19.9922 43.2176L18.2505 43.1327C16.7652 43.0338 15.9492 42.8457 14.5364 42.3746L14.0497 42.2181C13.2178 41.9717 13.2459 41.7343 13.5468 40.9523C14.3507 38.8626 13.9013 38.2125 13.6141 36.2544C13.4277 34.9833 13.2642 33.6984 13.2135 32.4136C13.1778 32.459 12.8953 33.3761 12.8487 33.5157L12.2966 35.078L10.8924 38.1683L9.65667 40.4181C9.11217 41.3856 9.16907 42.0459 7.92618 41.9121C7.11056 41.8242 6.31631 41.6659 5.51559 41.4929L4.89726 41.3564C3.81328 41.1119 4.13493 40.4517 4.20643 39.5988L5.56228 29.2384L6.65976 23.8096L8.09685 18.3288C9.36417 14.2019 10.2901 11.8053 14.2745 9.92231C14.7859 9.68057 15.3086 9.42093 15.867 9.30674C16.2036 9.23793 16.2669 9.30018 16.4926 9.04016L16.8643 8.59776C17.3835 7.95946 17.5128 7.85948 17.54 7.06616C17.5864 5.71649 18.8206 4.77215 20.1039 4.69748L27.2862 4.68645C27.5844 4.68666 27.8971 4.66526 28.193 4.69752C29.1495 4.80196 30.0462 5.57962 30.3757 6.45707C30.496 6.7776 30.5227 7.71923 30.5878 7.80806C31.1455 8.56963 31.2928 9.12056 32.2186 9.36135C33.1394 9.60088 35.0677 10.5674 35.8616 11.1314C37.3004 12.1536 38.2871 13.8229 38.9193 15.4392L40.1083 18.9344C40.1315 19.0481 40.1764 19.1522 40.2008 19.2657L40.2991 19.6213C40.3671 19.9621 40.5057 20.2836 40.5767 20.6238L41.1401 22.8709C41.2222 23.3233 41.3436 23.7851 41.4492 24.2334L41.6367 25.1281C41.7797 25.777 41.9312 26.4294 42.0524 27.0826L42.521 29.6433L43.4429 36.3585L43.8609 40.4414C43.869 40.5507 43.9233 40.6455 43.9225 40.7518C43.9184 41.3424 43.1476 41.3523 42.7383 41.4369L40.1367 41.9069C38.9214 42.0719 39.0905 41.9128 38.5059 40.9045C37.6001 39.3425 36.8506 37.7316 36.1665 36.061L34.8237 32.4271L34.7897 32.6808C34.7104 33.0043 34.7565 33.3537 34.732 33.684L34.5441 35.4911C34.3681 36.9457 33.6996 38.8939 34.2327 40.3164L34.4052 40.8282C34.7546 41.9996 34.8141 41.8892 33.5825 42.3067C32.13 42.7991 31.3568 42.9936 29.7802 43.13L27.7981 43.2271ZM20.5043 6.14498C19.9602 6.15623 19.3039 6.20568 19.0414 6.80662L18.9705 7.01901C18.9177 7.1676 18.9199 7.36054 18.9623 7.51176L18.998 7.63017C19.0761 7.87077 19.2258 8.03929 19.4028 8.21409C20.6693 9.46471 22.2427 9.6141 23.9198 9.61331C24.8647 9.61284 25.8431 9.61335 26.7467 9.29859L27.1309 9.1664C27.6677 8.94149 28.735 8.40112 28.9764 7.81204L29.0277 7.66166C29.0794 7.50266 29.0903 7.3252 29.0669 7.1602L29.0633 7.13188C28.9267 6.14563 27.9933 6.14315 27.2669 6.14268L20.5043 6.14498ZM18.288 9.09562L17.7884 9.66824L18.867 11.309C20.1873 13.1712 21.889 13.5049 24.0358 13.5027C24.3516 13.5024 24.6492 13.5075 24.9609 13.4535L25.4648 13.388C27.2542 13.0723 28.1482 12.6801 29.267 11.2401L29.3143 11.177L30.2698 9.70551L29.7421 9.13626C27.9745 10.6228 26.5393 11.0234 24.1837 11.0241C21.9583 11.0249 19.9516 10.859 18.288 9.09562ZM16.5973 10.5821C15.8729 10.7843 15.1267 11.1023 14.471 11.4704C15.2421 13.5506 17.6795 17.2434 19.7959 18.2086C20.8711 18.6989 22.4528 18.7642 23.6301 18.7663L25.2189 18.7499C25.9087 18.7139 26.9864 18.6284 27.6018 18.4574C29.2428 18.0014 30.8985 16.1935 31.7669 14.8283C32.4966 13.7674 32.9354 12.6006 33.4414 11.4295C32.8309 11.0672 32.1167 10.7976 31.4478 10.5651C29.6639 13.922 27.5952 14.9897 23.7573 14.9844C21.0833 14.9807 19.0026 14.1723 17.4465 11.8834L16.6805 10.5774C16.6526 10.5781 16.625 10.5778 16.5973 10.5821ZM34.7422 12.1312C34.4753 12.7509 34.2655 13.3925 33.9629 13.9984C32.9962 15.9344 30.9224 18.7356 28.7957 19.5751L28.767 19.5862C27.7457 19.9896 26.592 20.1773 25.4931 20.2365L22.4739 20.2255C20.3525 20.0969 18.8852 19.6963 17.3375 18.2376C15.8066 16.7948 14.1126 14.5147 13.3169 12.5186L13.1604 12.1746C11.1644 13.7782 10.4013 15.8575 9.65193 18.2344L8.92663 20.6322L7.45499 26.9769L7.0027 29.6039C6.95249 29.9369 6.86868 30.2665 6.83221 30.6014L5.6759 39.4588C5.65898 39.6479 5.62157 39.8228 5.62284 40.0143L7.97428 40.4468C8.13328 40.1039 8.33953 39.7861 8.52468 39.4573L9.48098 37.6696C11.0054 34.6356 12.9748 29.7595 13.0451 26.3212C13.0569 25.7427 12.9002 24.9113 13.5968 24.6731C13.8896 24.573 14.3565 24.7438 14.4563 25.057L14.4772 25.1246C14.5114 25.2173 14.4916 25.366 14.4915 25.4649L14.4906 29.4551L14.5305 31.0196C14.5388 31.1512 14.5691 31.2782 14.5815 31.4084L14.6317 32.3221C14.6423 32.4934 14.6809 32.6635 14.6916 32.836L14.7851 34.0784C14.8222 34.4727 14.854 34.8766 14.9162 35.2676L15.2347 37.3243C15.3805 38.0333 15.1708 37.8516 15.9456 38.0061L17.5301 38.2818C19.6251 38.6279 21.7242 38.7232 23.8457 38.7226L26.2835 38.7097C28.4098 38.6253 30.5576 38.3339 32.6376 37.8899C32.999 36.4731 33.1681 34.9195 33.28 33.4688L33.365 32.4019C33.4158 31.3645 33.4919 30.4257 33.4937 29.3723L33.4938 25.6266C33.4953 25.2042 33.539 24.7422 34.0664 24.6556L34.1007 24.6496C34.4913 24.5879 34.8603 24.8753 34.9129 25.2634L34.9172 25.2921C34.9787 25.7192 34.9221 26.1806 34.9617 26.6154C35.089 28.0149 35.3868 29.6849 35.8525 31.0296L37.0664 34.5469L39.8876 40.4416L42.3533 40.0013L42.0878 37.1384L41.356 31.545L40.0639 24.6731L38.7505 19.4702C38.0144 17.0189 37.2638 14.1515 35.19 12.4632C35.0471 12.3468 34.8785 12.2539 34.7422 12.1312ZM15.4108 39.4077C15.3407 39.9603 15.2356 40.4758 15.0571 41.0053C16.3379 41.4994 17.2119 41.5679 18.5085 41.6734L20.332 41.7698C20.5283 41.7806 20.7207 41.8175 20.9178 41.8232L26.4479 41.8251L29.3711 41.6651C30.4967 41.5913 31.6358 41.498 32.6901 41.057L32.9698 40.9626C32.8952 40.6761 32.7967 40.3956 32.7324 40.1062L32.6188 39.4424L30.4436 39.8163L26.9062 40.21C26.6167 40.2286 26.321 40.2184 26.0309 40.2196L21.8555 40.2113L18.5039 39.9367C17.4734 39.8277 16.4159 39.6645 15.4108 39.4077Z" fill="black"/>
</svg>
