<svg width="48" height="48" viewBox="0 0 48 48" fill="none" xmlns="http://www.w3.org/2000/svg">
<path d="M27.5956 37.5978L26.4841 37.6652L21.3126 37.609C20.1332 37.5511 18.964 37.5152 17.7893 37.3612L14.7858 36.8946C14.6703 36.8767 14.5191 36.8321 14.4039 36.8464C14.4528 37.5583 14.5709 38.2593 14.5997 38.9776L14.6209 45.3754C14.6159 45.9373 14.0312 45.848 13.6905 45.8479L7.23698 45.855C6.9523 45.8475 6.69224 45.7388 6.62488 45.4277L6.61949 45.4015C6.49448 44.8489 6.49382 43.4878 6.4716 42.8624L6.41699 40.1773L6.73949 35.2073C7.07113 31.1113 7.58127 27.0457 8.37107 23.0115L9.05099 19.8142L9.80882 17.2022C10.2963 15.6983 10.906 14.1823 11.8206 12.8825C12.7311 11.5887 14.5036 10.6997 16.0432 10.3446L18.3284 9.93342C19.2109 9.74719 18.9305 8.23725 20.1509 7.99805L27.0718 8.01652C27.3638 8.01647 27.6648 7.9995 27.9554 8.01848C28.9524 8.08359 28.7934 9.74827 29.8066 9.88444C30.2751 9.94739 30.7523 10.0691 31.1972 10.231C31.8856 10.4816 31.7521 10.4705 32.4941 10.5157C34.9485 10.6652 36.3843 12.6352 37.4027 14.6254L38.2648 16.8242C38.3855 17.1785 38.4983 17.5321 38.5869 17.8954L39.2352 20.9184C39.298 21.226 39.3219 21.5471 39.3769 21.8559L40.1776 26.7963L41.1002 33.7523L41.3591 36.758C41.3706 36.873 41.3997 36.9846 41.4088 37.1006L41.4519 38.3442C41.4616 38.5117 41.4979 38.6782 41.5031 38.8481L41.5398 40.5244C41.5495 40.7486 41.6037 40.9607 41.6045 41.1862C41.6055 41.5035 41.5532 41.8034 41.5386 42.1167L41.4439 44.6745C41.4321 44.9243 41.4818 45.2745 41.3769 45.5044L41.3609 45.5369C41.1167 46.0474 40.1647 45.8464 39.6292 45.8466L34.9133 45.8467C34.5163 45.8472 33.4204 46.0398 33.3946 45.4084L33.3972 38.2043C33.4041 38.0467 33.4333 37.8952 33.4496 37.7389L33.5443 36.8831C31.8115 37.294 29.3386 37.5345 27.5956 37.5978ZM21.1304 9.23747L20.761 9.25875C22.0934 11.1603 24.1529 11.653 26.116 10.4091C26.5078 10.1289 27.0225 9.72459 27.2282 9.27966C27.0891 9.23363 26.9133 9.24352 26.7678 9.24211L21.6297 9.23827C21.4698 9.23873 21.2881 9.25636 21.1304 9.23747ZM28.1377 10.1084C26.0565 12.872 22.5351 13.0588 20.1954 10.4748C20.0867 10.3547 20.0028 10.2273 19.8813 10.1173C19.5263 10.6665 19.184 10.9906 18.51 11.135L17.5348 11.3227C15.8231 11.5792 13.6813 12.2109 12.6842 13.7348C11.8771 14.9684 11.3551 16.361 10.9136 17.7585L9.65779 22.641L8.62715 28.7465L8.34276 30.917L7.74501 37.7057C7.73516 37.9285 7.68885 38.139 7.67938 38.3619L7.65313 39.9394C7.64694 40.1342 7.59641 40.3913 7.62144 40.5778L13.4183 40.6179C13.4233 39.9518 13.4361 39.3104 13.3604 38.6489L13.0655 35.9753C12.9275 34.6433 13.2082 32.9559 13.401 31.6427L13.9218 28.6879C14.3176 26.8052 15.4338 22.9246 14.8984 21.0702C14.8314 20.838 14.6534 20.5495 14.6452 20.3152C14.6338 19.9869 14.8961 19.7037 15.2296 19.7117C15.7606 19.7244 15.9414 20.4126 16.0676 20.8142L16.1584 21.1868C16.5155 22.3793 15.9322 25.0373 15.6593 26.2504L14.7209 30.8207L14.3046 34.3389C14.2739 34.7515 14.2236 35.1464 14.2228 35.5623C14.3942 35.6255 14.5731 35.6186 14.7508 35.6534L15.8849 35.846C16.5733 35.9603 17.2603 36.0763 17.9584 36.1217L20.0989 36.3293C20.2463 36.3398 20.3848 36.3746 20.5352 36.3817L25.1321 36.4619C25.3701 36.4576 25.6014 36.4084 25.8403 36.4037L27.5716 36.3817C27.7533 36.3703 27.9293 36.33 28.1096 36.309L30.5862 36.0919L33.6751 35.6405C33.663 34.972 33.6262 34.3287 33.564 33.6647L33.1744 30.978L32.7033 28.6762C32.2129 26.5018 31.2629 22.8593 32.0166 20.6575C32.1726 20.2015 32.6205 19.2886 33.2277 19.8339C33.3547 19.9478 33.383 20.1301 33.4199 20.2873L33.1166 21.2071C32.9264 21.7697 32.9407 22.439 32.9672 23.0258L32.9963 23.7483C33.1591 25.5984 33.6611 27.4272 34.0432 29.2418L34.7274 33.3754C34.7742 33.7268 34.7563 34.091 34.8154 34.4394C35.0096 35.5833 34.6526 37.0664 34.5886 38.227L34.5651 40.041C34.5652 40.1954 34.5305 40.4774 34.5808 40.6133L40.379 40.6175L40.3299 38.9398L40.0553 35.5434L38.2437 22.2192L37.9053 20.4379C37.6907 19.3222 37.4524 18.2176 37.1065 17.1332L36.677 15.9837C36.0344 14.3896 34.7505 12.0142 32.8127 11.7966C32.5027 11.7618 32.1715 11.7662 31.8679 11.6917C31.0037 11.4799 30.5027 11.141 29.5796 11.1341C28.9589 11.1295 28.5676 10.4715 28.1377 10.1084ZM7.88076 41.8118L7.62913 41.8094C7.57438 41.9518 7.60157 42.1227 7.61099 42.2716L7.66194 43.0015C7.68698 43.5288 7.65369 44.1218 7.76741 44.6395L13.2014 44.6422L13.4185 44.6414L13.4247 42.7014C13.4245 42.422 13.4595 42.0905 13.4142 41.8166L7.88076 41.8118ZM34.5788 41.8131L34.5707 44.6411L40.2435 44.576L40.3472 42.5072C40.3799 41.6797 40.5406 41.813 39.6862 41.8121L34.5788 41.8131Z" fill="black"/>
<path d="M19.8028 13.0742C19.7577 12.8964 19.6943 12.7742 19.59 12.6262C18.8486 11.5737 20.6224 11.167 20.9871 12.781L21.0013 12.844C21.1371 13.3639 20.8021 13.8855 20.9413 14.2735L20.9744 14.3658C21.046 14.5429 21.161 14.6624 21.2936 14.7941C22.3461 15.8393 24.1614 16.1506 25.5214 15.612C26.1015 15.3823 26.763 15.0134 27.0163 14.4045L27.0305 14.3688C27.2883 13.7324 26.7566 13.1287 27.3373 12.2375L27.3626 12.1995C27.5514 11.912 27.7756 11.7494 28.0994 11.6508C28.3587 11.6344 28.6404 11.7589 28.6878 12.0391C28.7823 12.5979 28.1137 12.7848 28.2499 13.4183L28.2554 13.4391C28.647 15.0351 27.1769 16.349 25.8051 16.8041C25.2258 16.9963 24.6423 17.0619 24.0344 17.0626C22.401 17.0644 19.6768 16.012 19.7133 14.0159C19.7191 13.7018 19.8001 13.3946 19.8028 13.0742Z" fill="black"/>
</svg>
