<svg width="48" height="48" viewBox="0 0 48 48" fill="none" xmlns="http://www.w3.org/2000/svg">
<path d="M30.2636 37.3486C29.8976 37.5317 29.7275 37.5171 29.3547 37.5623L26.4256 37.8849C26.1608 37.9067 25.8985 37.9481 25.6323 37.9584L22.3118 37.9516L19.2888 37.6103C18.4541 37.462 17.643 37.3051 16.9209 36.832C15.502 35.9024 15.1635 34.8197 15.1627 33.2617L15.169 31.1257C15.1731 30.8286 15.2838 30.4335 15.1556 30.1578C14.9448 29.7047 14.8134 29.1681 14.6733 28.6873L14.291 27.3354C13.9498 25.9251 13.719 24.4718 13.497 23.0389C13.4043 22.4404 13.246 21.8439 13.1675 21.244L13.1649 21.2232C12.4097 22.4401 11.9758 24.1443 11.8659 25.5867L11.7204 27.4803C11.6998 27.7444 11.6997 28.0123 11.6666 28.2753L10.2161 37.4757C10.1195 38.3228 10.136 38.5969 9.23336 38.5995L6.30007 38.5986C5.80038 38.5743 5.73757 38.1863 5.73682 37.803L5.73808 28.6507C5.73879 27.3856 5.98511 26.2504 6.27808 25.0193L7.97932 18.59C8.43471 17.0234 8.87261 16.1742 9.74477 14.763L10.6503 13.4004C11.6089 11.9909 12.7609 10.6204 14.3663 9.93154C14.9844 9.66632 16.812 9.41418 17.0619 9.23352C17.373 9.00862 17.6114 8.6436 17.822 8.32799L18.3968 7.50252C18.5722 7.2629 18.6773 7.05956 18.9824 6.98742C19.3586 6.95779 19.9818 7.56056 20.3529 7.77426C22.8929 9.23681 24.9712 9.28931 27.5473 7.81382L28.1013 7.46765C28.829 6.9621 28.9628 6.63318 29.6422 7.53281L30.1938 8.30474C30.805 9.21304 30.6785 9.21932 31.663 9.42102C34.9417 10.0926 36.0559 11.4243 37.7942 14.0483C38.6378 15.3219 39.566 16.7179 39.9216 18.2254L40.1069 18.867C40.1665 19.1756 40.3268 19.7841 40.4207 20.0714L41.237 23.1024C41.3531 23.7099 41.6262 24.3521 41.7074 24.9568L42.1678 27.1287C42.2246 27.3706 42.2238 27.6117 42.2273 27.8594L42.2344 38.0623C42.212 38.5841 41.6673 38.6002 41.2902 38.5995L39.0999 38.6004C37.9186 38.6008 37.9604 38.6541 37.7856 37.3887L36.3274 28.2311C36.2296 27.518 36.2429 26.8018 36.1753 26.1148C36.0271 24.6083 35.6057 22.5177 34.7988 21.1892C34.6646 21.6653 34.6294 22.1668 34.5465 22.6521L33.7441 27.2686C33.6101 27.9403 33.3227 29.6583 32.9758 30.1873C32.666 30.6599 32.7916 30.6501 32.7912 31.2524L32.7905 33.0271C32.7901 33.5712 32.8515 34.2001 32.6865 34.7244L32.5598 35.0871C32.1507 36.124 31.2364 36.8685 30.2636 37.3486ZM28.8281 8.58042L28.1512 8.99212C26.6526 9.75951 25.1148 10.3869 23.3853 10.2115C21.9309 10.0639 20.39 9.41062 19.1968 8.59654C18.9571 9.01209 18.6941 9.42374 18.3713 9.78065L17.9674 10.1872C17.7852 10.3654 17.8541 10.4992 17.9181 10.7459L17.9443 10.8225C18.3164 11.8471 19.1155 12.8084 19.8865 13.5678C20.8902 14.499 21.9248 15.2693 23.2615 15.6769C24.002 15.9027 24.1133 15.8661 24.8461 15.616C26.8343 14.9371 29.4173 12.871 30.0845 10.7676C30.1269 10.634 30.186 10.4892 30.2036 10.3503C29.6559 9.85002 29.1871 9.22734 28.8281 8.58042ZM16.5556 10.7459C13.511 11.1451 12.3012 13.1309 10.7693 15.5917C9.97586 16.8664 9.60438 17.5639 9.19535 18.9997L7.53307 25.324C7.42427 25.7683 7.29897 26.2211 7.22121 26.6717L7.08372 27.6142C6.96588 28.3998 7.00375 28.9189 7.003 29.7083L7.00122 36.8126C7.00146 36.9436 6.99016 37.087 7.00511 37.2167L8.97382 37.2828L10.2936 28.7191L10.5273 25.6813C10.6346 24.2427 10.9717 22.947 11.5466 21.6258L12.742 19.1522C12.8618 18.9189 12.9342 18.5924 13.1416 18.428C13.4768 18.1621 13.9239 18.3054 14.0633 18.7029L14.0743 18.7284C14.1264 18.8506 14.1218 18.9731 14.1417 19.1016L14.8605 23.3904C14.9638 23.897 15.0011 24.4228 15.1053 24.93L15.4419 26.5112C15.5743 27.0761 15.6854 27.6829 15.8825 28.2264L16.2485 29.3585C16.5245 29.4207 16.7916 29.5272 17.0662 29.5994L18.7157 29.9566C18.937 29.9988 19.1602 30.0598 19.3826 30.0917L22.301 30.3753L25.4465 30.3748L27.2672 30.231C28.4706 30.1173 29.6625 29.9648 30.8318 29.6488L31.6287 29.4372C31.7268 29.4078 31.8452 29.3859 31.9346 29.3361L32.7756 25.3645C32.8912 24.8407 32.9508 24.2943 33.0376 23.7643L33.8436 19.1717C33.9236 18.7117 34.0257 18.1802 34.632 18.3396C35.064 18.4533 35.4589 19.5638 35.6494 19.943C35.9086 20.4587 36.1998 20.9869 36.4031 21.5271L36.7045 22.3006C37.0272 23.2304 37.2662 24.2276 37.3659 25.2075L37.4952 27.1825L39.0606 37.2672L40.9692 37.2506L40.971 31.537C40.9708 30.1686 41.0015 28.8038 40.8881 27.4394C40.8269 26.7039 40.6299 25.9787 40.4606 25.2634L39.5 21.6055C39.1143 20.1958 38.8389 18.7099 38.2402 17.3711C37.8552 16.5104 37.342 15.7274 36.8276 14.9412C35.4305 12.8058 34.2153 11.0942 31.4674 10.7414C31.0749 12.0415 30.3978 13.0725 29.4635 14.061C28.1362 15.4654 25.6639 17.2926 23.7369 17.1305C23.5022 17.1107 23.2582 17.0413 23.0336 16.9731C20.3797 16.1673 17.3155 13.5449 16.5967 10.7582L16.5556 10.7459ZM16.4326 30.8318C16.3902 31.201 16.4505 31.5677 16.4532 31.9381C16.4648 33.5647 16.0883 34.7991 17.7302 35.7981L17.7354 31.129C17.606 31.0899 17.472 31.0725 17.3409 31.0395L16.7352 30.8795C16.6414 30.8551 16.5281 30.811 16.4326 30.8318ZM31.4807 30.8553L30.2302 31.1459L30.2394 35.8492L30.4663 35.7039C31.3725 35.1172 31.526 34.4319 31.5281 33.4777L31.531 31.1914C31.5316 31.0818 31.5464 30.9603 31.5316 30.8525L31.4807 30.8553ZM19.0143 31.3943L19.0051 36.2196C19.863 36.4892 21.6627 36.5782 22.5755 36.6337C22.8263 36.649 23.0898 36.6294 23.3378 36.6622L23.3639 32.9091C23.364 32.7259 23.4048 31.7965 23.3483 31.6832L21.8553 31.6653C21.6467 31.659 21.4399 31.6221 21.2315 31.609L19.4998 31.461C19.3481 31.4369 19.1673 31.3846 19.0143 31.3943ZM28.9067 31.3943L24.6481 31.6819C24.6005 31.9344 24.6236 32.218 24.6233 32.4747L24.6231 35.6568C24.6232 35.8308 24.5668 36.6956 24.6899 36.6583L28.9844 36.2957L28.9795 32.0498C28.978 31.8382 28.9853 31.6149 28.9569 31.4052L28.9067 31.3943Z" fill="black"/>
</svg>
