<svg width="48" height="48" viewBox="0 0 48 48" fill="none" xmlns="http://www.w3.org/2000/svg">
<path d="M32.9418 39.5442C32.4242 39.8826 32.1226 39.975 31.4981 40.0379L30.6783 40.1134C30.0697 40.1435 29.4697 40.1902 28.8558 40.2227C28.5924 40.2368 28.3328 40.2907 28.071 40.3024L19.6753 40.3041C19.4386 40.2967 19.209 40.2381 18.9717 40.2299L17.004 40.1363C16.5447 40.0945 15.9972 40.0929 15.5763 39.8876C14.5451 39.3844 13.9927 38.577 13.9897 37.4427L14.0081 23.4959C13.9422 23.6794 13.8394 23.8563 13.7593 24.035L12.6523 26.6159L11.0495 30.8065C10.1802 32.893 9.18713 34.932 8.11964 36.924L7.70307 37.6569C7.51852 37.9974 7.62858 38.448 7.33875 38.9162L7.29188 38.9937C6.59489 40.1746 4.75753 40.0168 3.74644 39.4098C2.43841 38.6245 2.6944 37.3012 3.04858 36.1032L3.7818 32.5387L4.39549 29.9644C4.66881 28.8002 4.93744 27.64 5.33353 26.5094C5.7961 25.1889 6.54633 23.9953 6.98335 22.6643C7.24514 21.8669 7.41657 21.0373 7.64883 20.2307C8.30785 17.9421 9.0405 15.6681 9.91322 13.4518L10.8611 11.2716C11.9046 9.12825 13.2301 7.82597 15.765 7.60332C17.3401 7.42514 17.7223 8.29482 18.9475 8.53561C19.4293 8.6303 19.9152 8.74111 20.4024 8.80482L21.9061 8.9468C22.5429 9.00385 23.071 9.01589 23.717 9.01693L25.4961 9.00624C26.6894 8.95313 28.3572 8.76516 29.4635 8.42363C29.8193 8.31375 30.1373 8.0566 30.4675 7.88653C31.6253 7.29033 33.2766 7.64302 34.3827 8.18888C36.2719 9.12127 37.1179 11.0937 37.8868 12.9316C38.0694 13.3681 38.2795 13.8199 38.4154 14.2733L39.0149 15.957L40.6749 21.4616C40.7271 21.7324 40.8219 22.0219 40.8972 22.2889C41.0559 22.8519 41.2501 23.3922 41.4921 23.9248L42.0949 25.2068C42.2581 25.5312 42.4323 25.9238 42.5395 26.2733L43.2965 28.6361C43.3456 28.8843 43.4419 29.1195 43.4882 29.3721L43.6762 30.1196C43.717 30.3706 43.8216 30.616 43.8642 30.8699L43.9771 31.3466C44.0714 31.6218 44.1015 31.9335 44.1643 32.218L44.767 35.2967C44.8547 35.7029 44.9367 36.1028 45.0944 36.492C45.9475 38.5977 43.9116 40.3626 41.8126 39.7538L41.735 39.7312C40.8795 39.4569 40.5048 38.7833 40.3549 37.9564C40.3365 37.8549 40.3325 37.7407 40.2837 37.6484L39.5933 36.4388L36.5283 29.8044L34.9703 25.7415L33.9854 23.5726C33.9604 23.9399 33.9959 24.307 33.9986 24.6754L34.0001 37.3013C34 37.5628 33.9824 37.761 33.933 38.013L33.9166 38.0975C33.7576 38.7741 33.5184 39.1882 32.9418 39.5442ZM16.0671 8.8928C13.2019 9.11639 12.4752 10.6657 11.4595 13.0537C10.5814 15.1182 9.88093 17.2488 9.24619 19.3982L8.21935 22.9946C8.00536 23.6544 7.73208 24.3162 7.43339 24.9424C6.72741 26.4223 6.31177 27.4606 5.90663 29.0858L4.73058 34.2719C4.65682 34.6548 4.55512 35.0419 4.51234 35.4291C4.7565 35.5616 5.02674 35.64 5.28633 35.7375L6.32175 36.1253C6.52978 36.1973 6.75924 36.2563 6.95639 36.3528C7.34339 35.7148 7.67021 35.0273 8.00307 34.3592L9.48961 31.2119L11.7588 25.3891C12.2944 24.0916 12.9495 22.8403 13.5691 21.5818L14.0252 20.6401C14.2623 20.1383 14.7226 19.422 15.1858 20.1912L15.2047 20.2213C15.3596 20.4901 15.2646 21.2953 15.2639 21.6174L15.261 32.8379C15.2608 33.1276 15.2306 33.458 15.2786 33.7422L18.5727 34.1202L21.3524 34.2938L26.3047 34.3011L28.0175 34.2206L32.7378 33.72L32.7395 30.949L32.7371 21.3271C32.7355 20.9381 32.5865 20.3631 32.8869 20.0664C33.3879 19.5716 33.7286 20.1208 33.9139 20.5266L36.1116 25.1502L37.9695 29.9295L40.1253 34.6522C40.417 35.2362 40.6918 35.8521 41.0362 36.4059L43.4785 35.4172L42.2654 29.7474C42.0653 28.974 41.8733 28.1853 41.6062 27.4321L40.993 25.8763C40.5685 24.9228 40.1025 24.0053 39.7852 23.0064L39.2193 20.9107L37.1924 14.654L36.3202 12.5319C35.4384 10.5766 34.6501 9.26799 32.3188 8.92613C31.6741 8.83158 30.8575 8.89013 30.486 9.52674C30.3183 9.81422 30.3948 10.2403 30.2811 10.5701C29.6202 12.4865 28.3275 12.7977 26.558 12.9507C26.3394 12.9696 26.1293 13.0103 25.9087 13.0234L22.0167 13.0224C21.4192 12.9823 20.2812 12.89 19.7931 12.7152C18.743 12.339 17.7624 11.3565 17.6301 10.2188C17.5793 9.78188 17.6512 9.56588 17.2737 9.25393C16.9302 8.97005 16.503 8.87377 16.0671 8.8928ZM18.8549 9.82946C18.9537 10.4539 19.3526 11.0734 19.922 11.3655L19.9601 11.3854C20.3932 11.6066 20.9536 11.6243 21.4316 11.6625L25.4884 11.7248C25.662 11.7158 25.8327 11.6778 26.0062 11.6669L27.2136 11.5586C27.8573 11.4746 28.2673 11.333 28.7088 10.8195C28.894 10.5593 29.0115 10.2945 29.0877 9.98419L29.1237 9.83991C27.3555 10.2151 25.8503 10.2988 24.029 10.2992L21.7699 10.2241C20.8022 10.1654 19.79 10.1106 18.8549 9.82946ZM15.26 35.0506L15.2597 37.4425C15.2601 37.7649 15.2715 37.8175 15.3975 38.1084C15.7137 38.8384 16.5155 38.7818 17.1681 38.8415C17.6522 38.8858 18.1261 38.9444 18.6142 38.9545L18.5864 35.4424L15.6698 35.0994C15.5504 35.0807 15.3788 35.0326 15.26 35.0506ZM32.524 35.0476L29.712 35.4058C29.5836 35.4187 29.4482 35.4147 29.3231 35.4463L29.3219 38.8811L29.5418 38.8725C29.6964 38.8813 29.9046 38.8421 30.0653 38.8333L31.0418 38.7484C32.0189 38.6609 32.7355 38.5777 32.7391 37.3288L32.7398 36.6051C32.7399 36.0881 32.7755 35.542 32.7264 35.0282L32.524 35.0476ZM19.8807 35.5136C19.8439 35.8169 19.8598 36.134 19.8615 36.4448L19.8655 38.6264C19.8655 38.7466 19.847 38.9049 19.8786 39.0181L23.3454 39.0166L23.3646 35.9778C23.3645 35.8568 23.3768 35.7232 23.355 35.6042L20.6849 35.5534C20.4224 35.5484 20.1402 35.4916 19.8807 35.5136ZM27.8962 35.542L24.6368 35.6152C24.593 36.4194 24.6335 37.2444 24.6323 38.0509L24.6302 38.6893C24.628 38.9157 24.5461 39.0227 24.8146 39.0207L28.0213 39.0141C28.0955 38.2009 28.0513 37.3519 28.0521 36.5348L28.0525 35.871C28.0525 35.7678 28.0655 35.6449 28.0438 35.5451L27.8962 35.542ZM43.8183 36.661C43.1089 37.0375 42.3436 37.2422 41.6134 37.5634C41.565 37.7838 41.6617 38.0369 41.7401 38.2418L42.0109 38.4377C43.1583 38.9843 44.437 38.1495 43.8383 36.7065L43.8183 36.661ZM4.16845 36.7147C4.0693 37.0263 3.94108 37.4183 4.01986 37.7459L4.02983 37.7885C4.23037 38.5329 5.43619 38.7435 6.03399 38.4249C6.30352 38.2373 6.43205 37.8328 6.39525 37.5079L4.43366 36.8163C4.35757 36.7827 4.24814 36.7123 4.16845 36.7147Z" fill="black"/>
</svg>
