<svg width="48" height="48" viewBox="0 0 48 48" fill="none" xmlns="http://www.w3.org/2000/svg">
<path d="M29.0741 41.2323L18.288 41.2323C17.5672 41.2323 16.8705 41.311 16.1753 41.083C15.25 40.7795 14.4299 40.0644 14.0613 39.1543L13.6941 40.2357C13.3322 41.1016 12.6413 41.7988 11.7854 42.1761C11.5068 42.2989 11.1226 42.4422 10.8148 42.4585L7.14355 42.4762C5.95977 42.4906 6.36163 41.623 6.29272 40.7111L6.12543 39.2582C5.9593 37.641 6.10339 36.1491 6.26905 34.5412L7.01975 26.0211C7.25619 23.4294 7.53435 20.84 8.05222 18.287C8.77907 14.7036 9.85007 12.37 13.3241 10.9699C13.8676 10.7508 14.0934 10.6713 14.6562 10.5175L16.2772 10.0295C16.5018 9.95144 16.9045 9.80552 17.0073 9.57812L17.0187 9.55112C17.1025 9.36339 17.0805 9.1135 17.0814 8.91081L17.0846 7.99759C17.1147 6.83008 17.8161 6.21358 18.9367 6.03114L28.183 6.01886C28.527 6.01886 28.9503 5.96912 29.2813 6.05106C30.4478 6.33981 30.8563 6.95748 30.9108 8.07545L30.915 9.02861C30.9154 9.86308 31.1106 9.8147 31.8385 10.0551L32.9015 10.392C36.5931 11.4275 38.6367 13.0101 39.6041 16.7456L39.9375 18.2933C40.1629 19.2733 40.2897 20.2626 40.4233 21.2583L41.0207 26.3886L41.9132 36.2933C41.9788 37.2295 42.0057 38.2361 41.8912 39.1719L41.7007 41.0223C41.6842 41.2746 41.7572 41.9687 41.6411 42.1501L41.6235 42.1761C41.425 42.4762 41.3025 42.4717 40.9739 42.4701L38.1833 42.4699C37.8332 42.4696 37.4591 42.4967 37.1133 42.4487C35.1795 42.1796 34.4406 40.759 33.9725 39.1143C33.7438 39.4732 33.6077 39.8403 33.2991 40.1501C32.4192 41.0337 31.6943 41.2308 30.5331 41.2324L29.0741 41.2323ZM19.7619 7.22106C19.3701 7.22331 19.0262 7.21656 18.6444 7.31008L18.8302 7.42816C19.7316 8.02009 21.9604 8.42111 23.014 8.56347C24.2279 8.72753 24.8516 8.66659 26.0858 8.42073L27.6739 8.00706C28.2388 7.83967 28.8901 7.64486 29.3888 7.33089C28.9234 7.12295 28.2479 7.21952 27.7516 7.21928L19.7619 7.22106ZM18.2642 8.50914L18.2563 9.24658C18.2526 11.0377 16.5708 11.2568 15.1563 11.6107C15.408 12.1629 15.7801 12.6913 16.1626 13.1605C19.5505 17.3161 24.9072 18.3026 29.3953 15.3929C30.7619 14.4337 32.1045 13.1467 32.8341 11.6143L32.0683 11.4074C30.3385 10.9329 29.7322 10.6831 29.7423 8.87411C29.7428 8.77131 29.7586 8.63955 29.7359 8.54116L29.7019 8.56848C29.628 8.62455 29.5312 8.63655 29.4466 8.67128L28.5765 8.98572C26.5987 9.63175 24.5702 10.0895 22.486 9.71823C21.5425 9.55019 19.0807 9.03414 18.2642 8.50914ZM33.9976 11.9627C33.8186 12.4213 33.5557 12.7998 33.2868 13.2074C31.8946 15.3169 29.5085 17.113 27.0702 17.8563C22.4375 19.2686 17.3521 17.1656 14.7025 13.1809C14.4452 12.794 14.1936 12.4092 14.01 11.9794C11.0847 13.2612 9.99782 14.6339 9.37836 17.8212L9.09543 19.1136L8.53293 22.8167L7.35866 35.5829C7.27522 36.5385 7.15555 37.4688 7.22713 38.4322L7.40305 40.1078C7.43568 40.4833 7.40178 40.8755 7.45452 41.2476L10.5359 41.2414C12.8825 41.2832 13.2295 37.4805 13.3545 35.8357L13.4137 35.1917L13.4193 26.8363L13.3249 24.4503L13.0207 20.906C12.9805 20.6185 12.8856 20.3176 12.9934 20.0347C13.342 19.495 13.9151 19.6655 14.0847 20.2621L14.0976 20.299C14.1865 20.5707 14.2177 20.8935 14.2494 21.1771L14.3533 22.2191C14.4057 22.8843 14.3914 24.0838 14.5123 24.623L33.4906 24.6209L33.6373 22.453C33.6729 21.9654 33.7262 20.2076 34.0981 19.8673C34.3822 19.6074 34.787 19.6813 34.9688 20.0042L34.9919 20.0438C35.0202 20.1008 35.0291 20.165 35.04 20.2269L35.0457 20.2582C35.0811 20.4828 34.9909 20.7552 34.9631 20.9797L34.7442 23.9728C34.7339 24.1377 34.7 24.2954 34.6888 24.4603L34.6537 25.8467C34.6454 26.0736 34.5876 26.2903 34.5808 26.5198L34.5789 34.8467C34.5917 35.0961 34.6323 35.3401 34.6549 35.5881L34.9276 37.7601C35.0049 38.1906 35.0676 38.6543 35.2042 39.0707L35.2896 39.3725C35.6116 40.2723 36.1123 41.0639 37.16 41.2443C37.4068 41.2868 37.7372 41.2383 37.992 41.2372C38.8294 41.2337 39.6853 41.2026 40.5205 41.2587L40.7713 38.4123C40.8295 37.3593 40.7185 36.3216 40.6213 35.2753L39.3985 22.5003L38.7481 18.4427C38.2093 15.7557 37.4891 13.5709 34.7664 12.3071C34.5154 12.1906 34.2373 12.0971 33.9976 11.9627ZM14.5554 25.8353C14.4986 26.3306 14.5855 26.7697 14.6122 27.2504L14.6188 28.1017C14.6176 28.2025 14.5928 28.3582 14.6288 28.449L33.3885 28.4502L33.4442 25.8286L14.5554 25.8353ZM15.521 29.6746C15.2298 29.6753 14.9013 29.6463 14.6148 29.6854L14.6194 35.5045L32.4745 35.4841L33.42 35.4703C33.3649 35.3255 33.3867 35.0915 33.385 34.9351L33.3757 29.6765L15.521 29.6746ZM14.5106 36.7292L14.5204 36.7796C14.8131 38.0318 15.333 39.9309 16.9115 40.0305C17.1881 40.048 17.4754 40.0329 17.7528 40.0331H30.1798C31.2406 40.0326 31.8986 39.9857 32.6077 39.0792C33.0461 38.4214 33.4144 37.5683 33.5041 36.7793C33.5076 36.7487 33.5055 36.7614 33.5164 36.7271L14.5106 36.7292Z" fill="black"/>
</svg>
