<svg width="48" height="48" viewBox="0 0 48 48" fill="none" xmlns="http://www.w3.org/2000/svg">
<path d="M25.1926 42.9807L21.0502 42.9671L18.8018 42.8229C18.6391 42.8104 18.4795 42.7699 18.3173 42.7525L16.9219 42.5774C15.6513 42.3796 14.2074 42.1906 13.4909 40.9752C13.1929 40.4699 13.2342 40.0174 13.2341 39.4489L13.2398 32.672L10.9455 43.1324C10.8284 43.647 10.3397 43.5264 9.92621 43.5229L8.65984 43.5001C7.93079 43.4523 7.19302 43.35 6.47129 43.2388C5.40793 43.0751 5.66546 42.8305 5.79751 42.0007L8.13948 26.2969L9.27774 17.7774C9.68724 14.9368 10.0266 11.5338 12.9152 10.0727C13.515 9.76929 14.1542 9.59069 14.8003 9.41688C15.7055 9.17341 17.3706 8.96383 17.6259 7.85065L17.6346 7.8109C17.7226 7.42122 17.5972 6.99288 17.7042 6.61563C18.2468 4.70369 21.3937 4.49227 22.999 4.36938C23.5791 4.34972 24.1751 4.32928 24.7538 4.36183L25.8076 4.44251C27.3469 4.60607 29.8887 4.71297 30.2586 6.60213C30.3424 7.03019 30.2202 7.44265 30.3391 7.87516L30.375 7.99226C30.7907 9.02791 32.3112 9.1774 33.2498 9.42035C33.7803 9.55769 34.3128 9.72194 34.8163 9.93902C36.395 10.6197 37.6853 12.3722 38.0476 14.0527L38.2579 14.8834C38.3572 15.1995 38.3825 15.5427 38.4421 15.8673L39.8001 25.7164L40.5009 30.9727L42.132 41.6224C42.1882 41.9259 42.2217 42.2364 42.2823 42.5391C42.4253 43.2537 42.0523 43.2385 41.4234 43.3404L40.4486 43.4837C40.1821 43.5103 39.912 43.5098 39.6444 43.5219L38.0873 43.5642C36.8945 43.5652 37.1014 43.4614 36.8495 42.3699L34.7236 32.4852C34.6989 32.6984 34.7227 32.9091 34.7329 33.1216L34.7544 39.6381C34.7548 40.1155 34.7696 40.438 34.5346 40.8731L34.5142 40.9102C33.9559 41.9396 32.9167 42.2009 31.8571 42.3868L29.7703 42.6645C28.2542 42.8234 26.7179 42.9574 25.1926 42.9807ZM23.0776 5.48744L21.0398 5.72191C20.6646 5.78365 20.257 5.86263 19.9088 6.01699L20.0954 6.12377C21.2641 6.9003 23.7132 7.1238 25.149 6.97919L25.805 6.91924C26.4197 6.82122 27.0452 6.67924 27.6084 6.40582L28.3519 6.0011C27.9825 5.87252 27.5898 5.81149 27.2041 5.75397L26.1852 5.61602C25.1435 5.51196 24.1304 5.41704 23.0776 5.48744ZM18.8642 6.69147C18.6261 6.85952 18.7772 7.73543 18.7163 8.05085L18.7094 8.08807C18.5634 8.85565 18.4878 8.58902 19.0395 9.4129C20.1861 11.1251 22.8422 11.2379 24.7301 11.1814L25.5536 11.1658C27.0521 11.0633 27.9962 10.718 28.8467 9.50979L29.4116 8.68647L29.1996 7.69301C29.1467 7.40135 29.1698 7.09155 29.1526 6.79544L29.136 6.81654C28.8488 7.16965 27.6057 7.63638 27.1745 7.76069C24.8139 8.44122 21.1327 8.35052 19.1567 6.85465C19.0554 6.77801 19.0019 6.66958 18.8642 6.69147ZM17.8206 9.52038C17.1976 9.88315 16.5675 10.1441 15.8697 10.3329C14.8117 10.6191 13.6673 10.7657 12.7786 11.4664C11.6521 12.3549 11.042 13.8958 10.7833 15.2579L9.42076 25.0545L8.48945 31.8997L6.98279 41.6873C6.95584 41.836 6.89335 42.0325 6.91567 42.1826L9.9902 42.4142L11.97 33.2272L12.8696 30.3513C13.0457 29.8704 13.1086 29.6655 13.1266 29.1642L13.1406 20.7431C13.1412 20.516 13.0843 20.2157 13.2219 20.0186L13.2433 19.9864C13.5128 19.593 13.9567 19.6644 14.1706 20.0391L14.1839 20.0604C14.3094 20.268 14.2311 20.7385 14.2315 20.9764L14.222 28.5641C14.2411 29.0214 14.3142 29.3072 14.3144 29.7841L14.3157 39.4866C14.3158 40.1769 14.3033 40.519 15.0058 40.9211C15.3699 41.1295 15.7786 41.1971 16.1835 41.2769L18.6373 41.6261L20.8765 41.7536C21.7031 41.8616 22.5507 41.8292 23.3826 41.8294L25.9259 41.8204L31.0837 41.3706C31.4461 41.3235 31.8151 41.2795 32.1693 41.1863C34.1142 40.7506 33.6767 39.6487 33.6761 38.0639L33.7254 20.5851C33.7273 20.4322 33.7129 20.2415 33.758 20.0957C33.886 19.6826 34.4264 19.5968 34.6933 19.9206L34.7184 19.9503C34.8626 20.1342 34.7986 20.4786 34.7992 20.6969L34.8018 26.3283C34.8149 26.6258 34.8774 26.9219 34.9283 27.2138L35.1101 28.3126C35.1346 28.4517 35.1339 28.5959 35.1586 28.7344L35.5036 30.879C35.6208 31.5749 35.8184 32.2585 35.9636 32.9484L36.2367 34.1485C36.2968 34.3973 36.3373 34.6553 36.4109 34.9005L37.9846 42.4271L41.1166 42.2823L39.7734 33.6446L37.4363 16.5001C37.1041 14.5321 36.673 12.5605 34.9562 11.2955C34.0054 10.5949 32.6957 10.5056 31.5929 10.1602C31.0847 10.001 30.6093 9.76432 30.1116 9.58001C28.7564 12.0105 27.1486 12.3095 24.4072 12.3098C21.846 12.31 19.1059 12.0371 17.8206 9.52038Z" fill="black"/>
</svg>
