<svg width="48" height="48" viewBox="0 0 48 48" fill="none" xmlns="http://www.w3.org/2000/svg">
<path d="M24.4571 44.8569L20.1578 44.7009L18.5779 44.5416C16.3654 44.2979 13.8233 43.9054 12.9916 41.4368C12.7834 40.8189 12.8193 40.2361 12.8194 39.5925L12.8167 29.7227C12.8136 28.0698 12.6591 28.8753 12.106 29.8675L11.6704 30.6318L9.37563 35.5547L8.0643 39C7.66164 40.243 7.47902 39.9553 6.55595 39.6321C5.68788 39.3281 4.82823 39.0292 3.91333 38.9118C3.80808 38.8983 3.67868 38.9012 3.58468 38.8493L3.56298 38.8363C3.05299 38.5406 2.72156 37.3848 2.67993 36.8596C2.6482 36.4591 2.74809 36.0024 2.79703 35.6016C2.96229 34.2483 3.22298 32.8946 3.53763 31.5678L4.0663 29.5077C4.39807 28.1576 4.84263 26.8116 5.30252 25.5L6.47772 22.3202L7.86859 19.2547C8.69617 17.5677 9.61117 15.6898 11.275 14.677C11.8496 14.3272 12.4639 14.1553 13.102 13.9683L14.731 13.5012C15.7707 13.2071 17.0018 12.7433 17.2772 11.5524L17.2866 11.5094C17.361 11.1828 17.3201 10.7928 17.3203 10.4581L17.3181 8.61668C17.3154 7.99732 17.2995 7.11752 18.2484 7.35565L18.8794 7.55079C18.9355 7.5543 18.9246 7.44044 18.9323 7.39816C19.3743 4.94805 21.4963 4.08446 23.7372 3.97121C24.0688 3.94688 24.4236 3.98761 24.7533 4.02637C26.4696 4.2282 27.809 4.67054 28.6861 6.28127C28.9015 6.67676 28.9848 7.13744 29.0962 7.5678C29.5902 7.37276 30.2188 7.0849 30.5666 7.67069L30.583 7.69924C30.7545 7.97782 30.6567 8.44394 30.6567 8.75796L30.6545 10.8069C30.654 11.0446 30.6086 11.3746 30.6774 11.5965L30.6942 11.6507C30.7199 11.7323 30.7413 11.8165 30.7825 11.8919L30.797 11.918C31.4246 13.0734 32.5758 13.3103 33.7306 13.6278L34.782 13.9638C35.3507 14.1371 35.9431 14.269 36.4733 14.5458C38.1817 15.4379 39.1251 17.2237 39.9459 18.8845L41.4466 22.1645C41.5389 22.3944 41.6585 22.6245 41.7301 22.8615L42.2022 24.1035L43.9527 29.5274C44.0279 29.9019 44.1758 30.2598 44.2393 30.6357L45.3017 36.4447C45.4249 37.2078 45.0631 38.4006 44.4415 38.8451C44.2833 38.9582 44.0089 38.9283 43.8169 38.9526C43.1181 39.0412 42.4187 39.2597 41.7661 39.5157C40.1393 40.154 40.309 40.1672 39.7024 38.3672L36.9966 31.9688C36.4462 30.807 35.8973 29.6535 35.2127 28.5629C35.1386 29.0185 35.1608 29.4881 35.1603 29.9485L35.161 40.0979C35.1607 40.3807 35.1977 40.724 35.1234 40.9962C34.3726 43.745 32.1849 44.2397 29.5851 44.5371L28.2968 44.6786L24.4571 44.8569ZM23.5824 5.28326C21.6453 5.44722 20.2834 6.06443 20.1185 8.13949L20.148 8.1454C20.5162 8.22438 20.8629 8.51313 21.188 8.69604C22.206 9.26861 23.2482 9.3071 24.3843 9.30391C25.8683 9.26552 26.551 8.81121 27.8468 8.12496C27.6935 6.11318 26.4381 5.45599 24.5616 5.30707C24.2399 5.28157 23.9167 5.25536 23.5938 5.28124L23.5824 5.28326ZM18.6429 8.89455L18.6539 10.7225C18.6528 11.5706 18.6033 11.9623 18.2185 12.7309C19.2798 13.7475 20.3187 13.9122 21.6764 14.0987L22.4975 14.1873C23.2595 14.2714 23.9887 14.2786 24.7579 14.262L25.2661 14.2338C27.1799 14.0085 28.178 14.0402 29.731 12.8418L29.7847 12.7852C29.4428 11.9559 29.3313 11.8202 29.3329 10.9111L29.3356 9.64333C29.336 9.39686 29.3505 9.14097 29.3224 8.89624C28.4195 9.27536 27.6351 9.79563 26.803 10.1387C25.3628 10.7324 22.8987 10.838 21.4345 10.2396C20.9683 10.0491 18.992 8.85063 18.6429 8.89455ZM17.347 13.6992C14.8198 15.6215 12.3717 14.3435 10.2993 17.4931C9.80781 18.2402 9.41167 19.0255 9.01792 19.8262L7.5257 23.1795C6.50158 25.7464 5.68492 28.3684 4.98649 31.0409L4.12626 35.25L3.99192 36.3479C3.97888 36.4827 3.94649 36.6349 3.95033 36.7692C3.97255 37.5461 4.16287 37.5963 4.74428 37.7318L6.91127 38.387L8.45852 34.4653L9.98191 31.1485C10.3435 30.4066 12.3573 26.3706 13.102 26.1389L13.1322 26.1286C13.7613 25.9311 13.8323 26.9032 13.8841 27.2987L14.0386 28.5117C14.0804 28.9646 14.1254 29.4004 14.1381 29.8549L14.1747 38.3304C14.6039 38.4574 15.0169 38.6277 15.4392 38.7746L17.3334 39.3399C18.9428 39.7419 20.8217 40.0369 22.4888 40.1211L25.4269 40.1231C25.5686 40.1165 25.7043 40.0852 25.8435 40.0754L26.7483 40.0196C28.3197 39.8628 29.9252 39.5663 31.4408 39.1163C31.8351 39.0173 33.4725 38.5447 33.8207 38.3471L33.8335 29.4971C33.8622 28.8638 33.9583 28.2233 34.0269 27.5926L34.0967 26.9487C34.1745 26.1958 34.7386 25.7638 35.2279 26.3561C36.6851 28.1201 37.8089 30.6212 38.7401 32.6836C39.0943 33.468 39.4767 34.2551 39.7781 35.0607L40.4259 36.6425C40.6727 37.2125 40.8214 37.823 41.0729 38.3925C41.8743 38.0681 42.7284 37.8411 43.5774 37.6813C44.1161 37.5799 44.0376 36.5658 43.994 36.1758L43.8123 34.9219C43.1145 30.1894 41.1069 24.015 38.9367 19.7064C37.9361 17.7198 37.2579 16.1154 35.0013 15.3676L33.5278 14.9072C32.6599 14.6695 31.8268 14.4947 31.0549 14.0021C30.93 13.9224 30.7923 13.7759 30.661 13.7202C29.1098 15.0821 27.2763 15.4548 25.2775 15.5383L24.1313 15.5432C23.8048 15.5426 23.4719 15.5559 23.1464 15.5351L22.4891 15.4759C20.8524 15.3683 19.3447 15.1936 17.9917 14.209C17.8895 14.1345 17.4031 13.7059 17.347 13.6992ZM14.1651 39.668C14.1332 39.8207 14.1455 39.9909 14.1441 40.1465C14.1285 41.9924 15.3994 42.6999 17.0981 43.0316C18.1316 43.2334 19.2025 43.3042 20.2505 43.3983L20.9719 43.4378C21.3188 43.4553 21.6492 43.5065 21.9993 43.5133L26.424 43.5066C26.6014 43.5003 26.7695 43.4621 26.9423 43.4493L28.2283 43.347C29.8472 43.1927 32.7839 43.1043 33.607 41.4246C33.7665 41.0878 33.9508 40.0718 33.8405 39.6848C31.9588 40.426 29.8069 40.9509 27.7988 41.2254L25.9115 41.4206C25.7045 41.4521 25.4777 41.4476 25.268 41.4522L24.1514 41.4633C20.7606 41.4656 17.3279 40.9136 14.1651 39.668Z" fill="black"/>
</svg>
