<svg width="48" height="48" viewBox="0 0 48 48" fill="none" xmlns="http://www.w3.org/2000/svg">
<path d="M29.6779 39.5675C29.585 39.5681 29.4701 39.6122 29.3768 39.6296L28.3896 39.7996C27.6548 39.9134 26.4245 40.0391 25.6733 40.0625L20.2665 39.9067C19.2379 39.8025 18.218 39.6168 17.2188 39.352C15.4222 38.8758 13.9779 38.0075 13.5352 36.0122C13.4782 35.7553 13.4952 35.4608 13.4949 35.199L13.4899 29.2678C13.4667 29.4308 13.3943 29.5839 13.3538 29.744L12.5037 33.339C12.3727 33.8398 12.1856 34.3477 12.1015 34.8583C11.9426 35.8234 11.8756 37.3993 12.0948 38.3553C12.1391 38.5482 12.2122 38.7504 12.2366 38.9462L12.2402 38.9764C12.3335 39.7061 11.7464 39.7999 11.2025 39.9112C9.78484 40.2011 8.161 40.2177 6.72939 39.9924C6.54212 39.9629 6.31586 39.958 6.14289 39.8821L6.11748 39.8704C5.73536 39.701 5.72631 39.3877 5.73625 39.0169L5.74529 37.0563C5.74281 36.6809 5.7362 36.303 5.69504 35.9295C5.59904 35.0584 5.63678 34.2162 5.71164 33.3497L6.35312 28.54L6.99639 25.5793C7.49069 23.4928 8.0919 21.4306 8.86131 19.4273C10.0705 16.279 11.855 13.9712 15.2698 13.3138C16.1669 13.1411 16.6861 13.1304 17.3494 12.4147C17.6739 12.0646 17.4507 11.8821 17.4175 11.4665C17.3748 10.9333 17.3518 9.57034 17.3985 9.03499C17.4581 8.35277 18.0009 7.71972 18.7004 7.67402C18.9376 7.65714 19.169 7.74447 19.3995 7.77906L20.7839 7.96633C22.2313 8.13423 23.7051 8.21744 25.1627 8.15256L25.8401 8.09402C26.5549 8.04119 27.2764 7.98527 27.9847 7.87094C28.9704 7.7118 29.8862 7.2985 30.4547 8.55944L30.468 8.58967C30.7489 9.20725 30.659 11.1009 30.4698 11.7712C30.4407 11.8741 30.3652 11.9919 30.424 12.092C30.8171 12.7611 31.5715 13.1254 32.3075 13.2558C34.8331 13.7034 36.7964 14.7614 38.041 17.1108L38.4936 17.9356C38.8577 18.6648 39.3088 19.706 39.5442 20.4986L40.2331 22.6712L41.3515 27.14C41.4468 27.4293 41.4687 27.7463 41.5316 28.0428L42.0415 31.0662C42.0657 31.2213 42.0727 31.379 42.0904 31.5348L42.1601 31.9597C42.3624 33.748 42.3792 34.8647 42.2532 36.6834L42.1899 38.0181C42.1886 39.311 42.6781 39.8441 40.9498 40.0295C40.754 40.0505 40.5617 40.092 40.3652 40.1079C39.3685 40.1883 36.7462 40.1429 36.058 39.7084C35.7392 39.5072 35.6919 39.1477 35.7576 38.808C36.0099 37.5026 36.2109 36.0568 35.9072 34.7459C35.7336 33.997 35.443 33.2752 35.259 32.5258L34.4784 28.9394L34.4769 34.9646C34.4762 35.8438 34.2677 36.5235 33.8106 37.2754C32.9948 38.6172 32.3015 38.9567 30.7882 39.3015L29.6779 39.5675ZM29.2473 8.84645C28.414 9.01103 27.592 9.16811 26.7452 9.25234L23.9241 9.36006C23.4471 9.36006 22.9508 9.3843 22.4757 9.34436L19.1275 8.97105C18.9643 8.94728 18.8034 8.91016 18.6385 8.89956C18.576 9.16905 18.5898 9.43216 18.5897 9.7067L18.5959 11.5079C18.599 11.63 18.5928 11.766 18.6266 11.8835L19.0024 12.0273C21.3852 12.7887 24.732 12.824 27.1334 12.41C27.8549 12.2856 28.9176 12.1468 29.3431 11.4608L29.3619 11.4325C29.5794 11.0448 29.4797 9.22792 29.2473 8.84645ZM29.5449 12.8951C28.5849 13.4061 27.6535 13.5781 26.5767 13.7057L25.3107 13.8385C24.8899 13.8662 24.4651 13.856 24.0437 13.8558L22.8551 13.8479C21.9454 13.8069 21.0148 13.6975 20.1195 13.5341L18.5784 13.1502C18.1687 13.0291 18.223 13.2595 17.8266 13.6024C17.0642 14.262 16.2618 14.3799 15.308 14.5516C11.7727 15.1882 10.256 18.6447 9.29143 21.7349C8.29351 24.9319 7.5039 28.2202 7.09286 31.5466L6.84283 33.6795C6.79928 34.2968 6.74589 35.6622 6.88492 36.2166C6.92575 36.3794 6.913 36.5666 6.92115 36.7338L6.93812 37.9769C6.93784 38.2579 6.94797 38.5425 6.9257 38.8225C7.94617 38.9282 8.94639 39.0084 9.97295 38.8588L10.9559 38.7035C10.7204 37.3151 10.7042 35.7154 11.0116 34.3358L11.512 32.3809C11.9961 30.2747 12.5913 27.455 13.767 25.6099C13.9277 25.3579 13.8243 24.846 13.8231 24.5561L13.8162 22.7225C13.8114 22.4875 13.746 22.1998 13.7924 21.9725C13.8873 21.5072 14.5734 21.3484 14.8149 21.785L14.8284 21.8086C15.0563 22.2184 15.0191 25.3082 14.9611 26.0267C14.9046 26.725 14.742 27.4232 14.7099 28.1222L14.6946 30.5364C14.6949 31.0683 14.6639 31.6224 14.7001 32.1518L18.4041 33.0391C20.425 33.5915 23.4146 33.7826 25.5513 33.6001L29.1917 33.0785L33.0097 32.2503C33.1068 32.2296 33.1833 32.2285 33.273 32.1782L33.2914 32.1673C33.3163 32.0296 33.3017 31.8747 33.3018 31.7343L33.3024 30.951C33.3029 29.9866 33.3359 29.0075 33.2759 28.0454C33.2335 27.3653 33.0742 26.6889 33.0207 26.009C32.9691 25.3522 32.9965 24.6835 32.9998 24.0248L33.0501 22.3944C33.0869 21.9254 33.1773 21.433 33.7841 21.5557C34.3669 21.6736 34.1994 22.4429 34.19 22.8581L34.1787 24.7641C34.178 25.0096 34.1011 25.3109 34.2341 25.5303C34.7709 26.4155 35.1802 27.436 35.484 28.4243L36.6592 33.1779C36.6673 33.2198 36.6792 33.2512 36.6955 33.2902C37.1832 34.4502 37.3784 36.3584 37.1537 37.5386L36.9876 38.7249C37.3018 38.974 39.7693 38.9796 40.4487 38.893L41.0589 38.7823C41.0249 38.1826 41.0128 37.5625 41.0415 36.9623L41.1454 35.8137C41.2097 34.8946 41.1827 34.0125 41.0914 33.101L40.9104 31.5434C40.49 28.4618 39.8445 25.4236 38.9305 22.4491C37.9589 19.2869 36.7606 15.5788 33.2169 14.6696C31.6446 14.2662 30.6986 14.3739 29.5449 12.8951ZM14.6959 33.395L14.6956 35.1005C14.696 35.5486 14.6606 35.7723 14.8096 36.1931C15.4992 38.1406 18.3684 38.4448 20.1603 38.6591L21.7783 38.8211L25.8444 38.8163C27.1794 38.7335 28.5536 38.553 29.8597 38.2737C31.1158 38.0051 31.9871 37.9781 32.7191 36.8095C33.2061 35.9941 33.3006 35.6608 33.3015 34.7531L33.2998 33.4342C32.9916 33.5323 32.6603 33.5919 32.344 33.6612L30.4755 34.0511C27.8139 34.6102 24.9079 35.0078 22.1762 34.8345L21.1622 34.7332C19.5999 34.5776 18.6674 34.3012 17.1527 33.9461L15.3315 33.529C15.1218 33.4807 14.9016 33.4543 14.6959 33.395Z" fill="black"/>
</svg>
