<svg width="48" height="48" viewBox="0 0 48 48" fill="none" xmlns="http://www.w3.org/2000/svg">
<path d="M28.2202 44.1732C27.6188 44.2337 27.0282 44.2293 26.4249 44.2295L20.3805 44.2127C18.6032 44.1235 13.9597 43.5705 13.1717 41.5929L13.1546 41.5497C13.0375 41.2688 13.0731 40.8887 13.0713 40.5861L13.0678 39.4091C13.0649 38.3872 12.8847 37.2124 13.7447 36.4541C13.3534 34.4422 14.7893 32.7341 14.9914 30.7915C15.1998 28.7873 14.867 26.3211 14.428 24.3594L14.1616 23.3227C14.1096 23.1448 14.0397 22.972 13.9999 22.7909L13.9944 22.7649C13.802 23.3126 13.696 23.8844 13.5494 24.4449L12.803 27.4563L10.4405 35.7773C9.97964 37.2098 9.63685 38.2725 7.93988 38.6627C6.63825 38.9619 5.15813 38.053 4.90627 36.725C4.72805 35.7855 5.01591 34.5664 5.14242 33.6328L6.03038 27.2582L7.58508 18.7355L8.52061 14.4931C8.71585 13.7054 8.90939 12.8882 9.19036 12.1268C9.83832 10.3711 11.5405 9.09462 13.3127 8.62784C15.0374 8.17353 16.7905 8.47348 17.8746 6.81659C18.1729 6.36069 18.1559 6.47783 18.1605 5.96783C18.1707 4.82623 18.8295 3.98357 19.972 3.77957C20.3184 3.73169 20.6732 3.82083 21.0172 3.84159L24.292 3.91855C25.1929 3.91764 26.1135 3.91095 27.0108 3.82302C27.5648 3.76874 28.1171 3.69586 28.6417 3.93858C30.1935 4.6566 29.6994 6.16179 29.8865 6.45509L29.904 6.48008C30.9287 7.98059 31.1008 7.92078 32.9533 8.27112C36.4642 8.93501 38.5448 10.1046 39.265 13.6837L39.363 14.0552C39.384 14.1673 39.4299 14.2726 39.4529 14.3859L40.5832 19.5194L41.3525 23.5837C41.4482 23.9252 41.4607 24.2965 41.5321 24.6441C41.8666 26.27 42.0348 27.9257 42.2825 29.566L42.7966 33.1851C42.8176 33.3486 42.8195 33.5171 42.8446 33.6793L43.1148 35.7224C43.1411 36.0142 43.1726 36.4302 43.0913 36.7088C42.3373 39.2913 39.1257 39.3019 38.0245 37.1461C37.8139 36.7338 37.7048 36.2582 37.5745 35.8158L36.0758 30.772L34.0421 22.7853C33.7576 23.5465 33.5887 24.3089 33.4364 25.1046L33.0461 27.8677C32.9442 28.8928 32.7874 30.5397 33.1221 31.5107L34.0138 34.0211C34.2154 34.8098 34.516 35.5636 34.2698 36.3948C34.2453 36.4773 34.3848 36.5488 34.4355 36.6101C34.5705 36.7729 34.7086 36.988 34.7678 37.192L34.8887 37.6695C34.9754 37.9658 34.9495 38.2851 34.9497 38.5925L34.9501 39.7441C34.9503 40.2083 34.9811 40.6975 34.9432 41.159C34.8304 42.533 33.3781 43.0064 32.2678 43.376C30.9357 43.8195 29.6211 44.0613 28.2202 44.1732ZM20.2474 4.90672C19.6442 4.9857 19.1153 5.42998 19.3478 6.10714C19.4443 6.21012 19.6163 6.27598 19.7418 6.33804C22.1198 7.51428 24.9204 7.50275 27.4114 6.70123C27.8819 6.56356 28.3073 6.32619 28.7124 6.056C28.7027 5.54436 28.4664 4.88886 27.8412 4.90672L25.6218 5.06665L21.2492 4.98645C20.925 4.95903 20.5711 4.89673 20.2474 4.90672ZM29.0867 7.2688C28.541 7.47565 28.0095 7.72203 27.4514 7.89837C24.6064 8.79739 21.7988 8.45267 19.0998 7.32415L18.9873 7.27709C18.8831 7.23345 18.7343 7.72512 18.7153 7.82548C18.8296 8.03173 18.9711 8.18136 19.1471 8.33614C20.6905 9.69622 23.112 9.74609 25.0643 9.59009C26.5283 9.47309 28.5496 9.26145 29.3066 7.79825L29.3155 7.78025C29.2523 7.62148 29.1866 7.40553 29.0867 7.2688ZM17.8318 8.58889C16.5908 9.36026 15.1992 9.35923 13.8486 9.72195L14.4103 15.49L14.5574 17.5309C14.5726 17.7083 14.6048 17.8827 14.6147 18.0612L14.637 21.059C14.6374 21.2339 14.6275 21.3957 14.684 21.5637L15.5705 24.3321C15.599 24.4975 15.6397 24.6659 15.6733 24.8311L15.8557 25.8785C16.1544 27.5171 16.4228 30.1322 15.9805 31.7809C15.8328 32.3313 15.6383 32.8885 15.4422 33.4242C15.1082 34.3368 14.4452 35.5213 14.9717 36.47C16.0855 38.477 18.8963 38.6835 20.9385 38.8465C21.1255 38.8615 21.3056 38.9081 21.4924 38.9185L26.0815 38.916C26.2772 38.9076 26.4632 38.8665 26.6564 38.8528L27.5439 38.8105C28.8328 38.7189 30.1879 38.4871 31.3678 37.954C34.0389 36.5405 33.2303 35.3557 32.4294 33.1009C31.8664 31.5157 31.7344 30.3423 31.8472 28.6535L32.0084 26.8452C32.1675 25.6172 32.379 24.3732 32.731 23.1845L33.0624 22.2121C33.3941 21.3463 33.354 21.48 33.3547 20.5515C33.3555 19.5052 33.3859 18.6522 33.4501 17.6246L34.1303 10.0204C34.1415 9.93115 34.1809 9.78608 34.1601 9.70067C32.7951 9.39865 31.4654 9.26473 30.2098 8.61214C28.9314 10.0166 27.665 10.5222 25.7449 10.6933C24.5519 10.7997 23.5628 10.8248 22.3473 10.706C20.3034 10.5063 19.1618 10.1045 17.8318 8.58889ZM12.7436 10.0827C10.7479 10.9348 10.2507 12.3493 9.75807 14.2274L8.85122 18.2643L7.21988 27.0348L6.04467 35.5322C5.96311 36.3379 5.91 37.0969 6.88224 37.4643C7.25175 37.591 7.80825 37.5432 8.15747 37.3719L8.28741 37.3031C9.07411 36.8848 9.25416 35.7103 9.49439 34.9449L10.3073 32.3171L12.7017 23.1155C12.8115 22.7051 12.9386 22.2986 13.0911 21.902L13.3913 21.1364C13.4939 20.8731 13.509 20.7461 13.509 20.4605V19.7604C13.5065 17.9793 13.3188 16.2195 13.1492 14.4488L12.7773 10.5229C12.7627 10.3756 12.7648 10.2297 12.7436 10.0827ZM35.2612 10.1129C35.1635 10.5994 35.1554 11.1107 35.107 11.6042L34.5861 17.0571L34.5441 18.152C34.535 18.3164 34.5008 18.4793 34.4912 18.6441L34.4799 19.7945C34.4777 20.1815 34.3571 20.6855 34.5473 21.0348L35.4724 23.743L37.0213 29.8817L38.8615 36.1168L39.0505 36.6202C39.349 37.3789 40.3588 37.7129 41.0917 37.4367C42.0452 37.0495 42.0333 36.3877 41.9368 35.5347L40.8109 27.3746L40.0234 22.523L38.2817 14.4089C37.8345 12.649 37.6471 11.5873 36.0937 10.5519C35.9339 10.4454 35.4543 10.0686 35.2612 10.1129ZM33.7085 37.6285L33.1102 38.1809C31.6621 39.4378 29.7818 39.7636 27.9292 39.9458L26.582 40.0432C26.3505 40.0595 26.1212 40.098 25.8891 40.1069L23.6768 40.1134C22.9535 40.1127 22.2132 40.1444 21.4924 40.0863L20.0789 39.945C18.0067 39.7449 16.3208 39.3748 14.7037 38.0358C14.5541 37.9119 14.4217 37.7517 14.2609 37.6459L14.2175 37.8326C14.1707 38.0406 14.2263 38.3046 14.2286 38.5191L14.2296 40.6405L14.2286 41.1029C14.2276 41.6878 15.3759 42.0297 15.8529 42.1988C17.8471 42.9059 19.5117 43.0313 21.565 43.0317L24.2767 43.0323C25.795 43.0323 27.3184 43.0733 28.8321 42.9417C30.0255 42.8381 32.8525 42.2738 33.7255 41.3316C33.8233 41.2261 33.7697 40.9987 33.7707 40.8667L33.7741 38.3976C33.7742 38.1592 33.8289 37.8711 33.7419 37.6441L33.7085 37.6285Z" fill="black"/>
</svg>
