<svg width="48" height="48" viewBox="0 0 48 48" fill="none" xmlns="http://www.w3.org/2000/svg">
<path d="M25.489 39.6321L20.5351 39.5503L16.9358 39.195C15.4437 39.0497 15.1122 38.7563 15.1182 37.1644C14.8519 37.0661 14.5881 37.0147 14.3266 36.8909C13.329 36.419 12.4899 35.3979 12.4629 34.2612L12.5114 30.8807C12.4357 31.1336 12.3143 31.3609 12.221 31.6054L9.78374 37.1633C9.62956 37.4841 9.51284 37.9889 9.17474 38.1709L9.14563 38.1859C8.74864 38.3962 8.46673 38.0086 8.15806 37.8042C6.72284 36.8536 5.23255 35.8621 3.54511 35.4282C2.49241 35.1574 2.61704 34.8998 3.02803 33.9352L6.61625 25.2228L11.2819 14.5952C11.3972 14.3226 11.4877 14.0419 11.621 13.7768C12.3216 12.3836 13.7565 11.5239 15.2555 11.2582L16.3938 11.0886C18.6077 10.7712 18.5555 9.93806 18.5608 7.92244C18.5613 7.73597 18.5417 7.51045 18.5811 7.3283C18.889 5.90428 21.8767 5.87714 23.0034 5.87109L25.7173 5.90527C26.1528 5.9213 26.4896 5.91052 26.9182 5.98753C28.3816 6.25045 29.4247 6.30398 29.4288 8.07581L29.4298 9.00094C29.4309 9.99919 29.8446 10.7798 30.8984 10.9642L31.993 11.1476C33.7874 11.4049 35.3518 11.9879 36.2758 13.7181L41.1925 24.8117L42.1985 27.3012L43.421 30.7961C43.5225 31.0376 43.6141 31.3399 43.6719 31.5959L43.7644 31.9176C43.7733 31.9635 43.7803 32.0017 43.7961 32.046C44.0355 32.7168 44.0854 33.4467 44.2673 34.1317C44.57 35.2718 44.2444 35.2353 43.3355 35.5328C42.1175 35.9315 40.9831 36.5574 39.8867 37.2122L39.3469 37.5519C38.2789 38.2685 38.1879 37.4028 37.8752 36.6044L37.1642 34.8414C36.3995 32.9838 35.5568 31.1397 34.9209 29.2336C34.8753 29.5769 34.9239 29.9345 34.9334 30.2807L34.9763 32.2886C34.984 32.5033 35.0256 32.7149 35.0354 32.9297L35.0387 33.7074C35.0841 35.211 34.6341 36.3798 33.0891 36.9721C32.9777 37.0148 32.8761 37.0302 32.7703 37.0937C32.7685 37.9942 32.7568 38.8933 31.6662 39.1047C31.212 39.1927 30.7626 39.2336 30.3043 39.2825L25.489 39.6321ZM23.0882 7.03364C22.0475 7.08427 20.8175 7.06687 19.8351 7.46231L19.8273 7.47492C21.0035 7.84036 21.8903 7.89638 23.1347 7.89802L24.9172 7.89778C25.8081 7.89488 26.6296 7.83684 27.5095 7.68441L28.1867 7.5322C27.8487 7.24678 27.3985 7.24373 26.9762 7.19292L25.1128 7.03683L23.0882 7.03364ZM19.7002 8.68542C19.6843 9.00905 19.6883 9.342 19.6481 9.66333C19.1578 13.5853 14.4401 11.0757 12.6845 14.2864L4.10867 34.3658C5.95855 35.0979 6.99744 35.6286 8.69258 36.7398C8.94725 36.3512 9.11759 35.8776 9.30617 35.453L10.8864 31.8618C11.6011 30.2225 12.6698 27.8722 12.8984 26.0848C12.9356 25.7946 12.9389 25.5074 12.9968 25.2185L13.9448 20.5185C14.0094 20.1884 14.0203 19.7995 14.4396 19.7157C15.4771 19.5084 14.9987 21.1897 14.9068 21.726L14.0633 25.933C13.9657 26.4489 13.9679 26.9689 13.9164 27.4882L13.7713 28.9039L13.6538 32.4173C13.6295 33.2696 13.3569 34.1451 13.8395 34.9145C14.5396 36.0309 15.3296 36.0946 16.462 36.0953L27.316 36.0954L31.4225 36.0951C32.695 36.0941 33.9218 35.4676 33.9126 34.0235L33.8332 31.4928C33.8228 31.3106 33.7848 31.1349 33.7763 30.951L33.5403 27.2241C33.4023 26.3481 33.4479 25.3837 33.32 24.4514L33.1254 23.4097C32.9703 22.5777 32.8168 21.7416 32.7259 20.9003C32.6774 20.452 32.5321 19.7056 33.2338 19.6999C33.7552 19.6957 33.7946 20.2795 33.8503 20.6607L34.2253 22.8271L35.3553 27.0075L35.7667 28.2182L37.7845 33.3276C37.9526 33.779 38.2084 34.2218 38.3458 34.6817C38.3918 34.8355 38.9266 36.1935 39.0353 36.3349C39.9277 35.79 40.8616 35.2545 41.8217 34.8384C42.2584 34.6492 42.7224 34.5276 43.1549 34.3321L42.4334 31.4671C41.9185 29.7645 41.2707 28.0991 40.6125 26.4479L35.983 15.9094C35.7156 15.3005 35.4843 14.6164 35.1207 14.059C34.3344 12.8534 32.9628 12.4312 31.602 12.2756C30.2189 12.1175 29.0059 11.8088 28.4615 10.299C28.2745 9.78014 28.3312 9.24136 28.2595 8.70741C27.4898 8.93573 26.6328 9.02555 25.8289 9.07284L22.148 9.08184C21.4347 9.04148 20.3371 8.90348 19.7002 8.68542ZM16.262 37.2678L16.2997 37.8599C16.7057 38.042 17.2119 38.0422 17.6474 38.1029L21.695 38.4275L26.1243 38.433L27.9492 38.3451L31.154 37.9834C31.6929 37.9118 31.5946 37.7593 31.6213 37.2614L16.262 37.2678Z" fill="black"/>
</svg>
