<svg width="48" height="48" viewBox="0 0 48 48" fill="none" xmlns="http://www.w3.org/2000/svg">
<path d="M30.0048 42.8265C29.3534 42.963 28.7194 42.9937 28.058 43.0431L25.9796 43.1704L21.7903 43.1633L19.0472 43.0074C17.5902 42.8913 16.2692 42.2379 15.2224 41.2214C14.7792 40.7911 14.8477 40.6718 14.8492 40.0991L14.8613 32.8058L11.7471 41.442C11.5009 42.2034 11.8103 43.2528 10.7624 43.4539L10.7341 43.4591C10.4343 43.5192 10.1289 43.4625 9.83179 43.4192L8.96517 43.285C8.3257 43.1566 7.68032 43.0005 7.09949 42.6935C6.26001 42.2499 6.47156 41.6949 6.61673 40.8756L8.4021 29.8874L9.86901 23.4848L10.3941 21.384C10.7223 20.1421 11.0496 18.9086 11.9035 17.906C12.8434 16.8023 14.1075 16.0185 15.542 15.7825C16.5661 15.6139 17.3456 15.5621 18.0287 14.7212C17.8848 14.2675 17.6653 13.8578 17.5662 13.3844C17.3796 12.4927 17.8771 10.262 18.8911 10.0356C19.2647 10.0317 19.4638 10.2008 19.7823 10.3735C22.0779 11.6185 25.8597 11.6617 28.1599 10.4049C28.5276 10.204 28.8947 9.88591 29.3436 10.0903C29.7104 10.2573 30.1594 11.2399 30.2941 11.6163L30.3761 11.8481C30.7325 12.7888 30.4385 13.8401 30.001 14.6953C30.552 15.7015 32.1111 15.6596 33.0717 15.9122C34.9708 16.4114 36.4361 17.9415 37.1254 19.7465C37.2887 20.174 37.3776 20.533 37.5148 20.9392L37.9521 22.6375C38.012 22.9431 38.0932 23.2482 38.1567 23.5551L38.7104 26.224C38.9 27.1352 39.1438 28.0331 39.3755 28.934L39.7033 30.352C39.8353 30.9954 39.9103 31.6528 40.0319 32.2973L40.8338 37.4033C40.8803 37.71 40.9086 38.0288 40.969 38.3325L41.4329 41.2094C41.4743 41.4925 41.6037 41.8388 41.4741 42.1127L41.4462 42.1749C41.087 42.9958 38.6145 43.4532 37.6433 43.4861C36.4522 43.5265 36.4963 42.8576 36.3956 42.0378C36.3577 41.7292 36.2657 41.4029 36.1626 41.1098L33.1346 32.8512C33.121 33.2595 33.1618 33.6757 33.1663 34.0851L33.1681 39.8176C33.1677 40.7099 33.2532 40.8091 32.5306 41.4622C31.806 42.1172 30.9471 42.5812 30.0048 42.8265ZM28.9186 11.2056C26.6296 12.4873 23.527 12.7125 21.0027 12.0027C20.3337 11.8146 19.7241 11.521 19.0934 11.2386C18.7897 11.7315 18.4236 12.4858 18.5663 13.0811L18.6013 13.1928C18.6423 13.3105 18.657 13.4303 18.7034 13.5473L18.7821 13.7842C18.8259 13.9013 18.8403 14.0214 18.9021 14.1317C19.0168 14.1818 19.1457 14.1967 19.2664 14.2294L19.8297 14.3985C22.0739 15.0701 24.3724 15.2727 26.6825 14.791C27.5089 14.6186 28.2959 14.3056 29.1169 14.1295C29.4569 12.9862 29.7432 12.6125 29.0361 11.3676L28.9186 11.2056ZM29.0262 15.27C26.3764 16.1305 23.5735 16.421 20.8391 15.7922L19.0616 15.3015C18.9198 15.2639 18.9576 15.2711 18.8716 15.3912C17.7975 16.8919 16.0305 16.5388 14.5586 17.1946C12.8986 17.9341 12.1704 19.1724 11.6516 20.7929C11.301 21.8883 11.0369 23.0155 10.7884 24.1382L9.99585 27.8886C9.73902 28.854 9.46799 29.8286 9.28888 30.8118L7.53632 41.7084C8.34248 42.1358 9.60337 42.3711 10.5224 42.3809C10.5539 41.8464 10.6768 41.3178 10.8396 40.8076L13.8082 32.6927C14.1855 31.6613 14.9924 29.9435 14.8364 28.8872L14.438 25.6381C14.4114 25.3662 14.3373 25.0424 14.3781 24.7739C14.4667 24.1896 15.2843 24.1744 15.3907 24.792L15.4091 24.8705C15.4673 25.0936 15.4452 25.3548 15.4792 25.5853C15.6306 26.6088 15.6263 27.6361 15.8719 28.6528C15.9669 29.0458 15.9162 29.4827 15.9158 29.8847L15.9146 39.9917C15.9074 40.4215 15.8194 40.3691 16.1781 40.6536C16.8673 41.2001 17.5646 41.7046 18.4629 41.8357C18.9012 41.9305 19.6032 41.9742 20.0794 41.9988L21.8152 42.0771L26.0325 42.0831L28.3987 41.9338C29.6745 41.8459 30.6982 41.604 31.7 40.753C31.8981 40.5846 32.1031 40.482 32.1033 40.1998L32.1009 29.997C32.0963 29.2221 32.1121 28.9343 32.2293 28.1706L32.5306 25.4653C32.5534 25.1861 32.5267 24.8519 32.6498 24.5949C32.858 24.1603 33.4994 24.2785 33.615 24.7156C33.6627 24.8956 33.5939 25.2153 33.574 25.3996L33.4753 26.4409C33.4497 26.7704 33.455 27.1013 33.4132 27.4302L33.1559 29.0552C33.092 29.5016 33.2577 30.0727 33.4231 30.4926L36.2676 38.3971C36.2788 38.4315 36.292 38.4607 36.3068 38.4933L36.4719 38.945C36.4849 38.9897 36.5019 39.0278 36.5195 39.0707L36.8476 39.9848C37.2055 40.9279 37.3612 41.4349 37.5034 42.4082C38.4973 42.2978 39.6045 42.1781 40.4955 41.691L38.8005 31.2887L36.7206 22.0485C36.0992 19.5957 35.2574 17.4318 32.4255 16.8764L31.5466 16.7282C30.5641 16.5258 29.6316 16.1525 29.0714 15.2686L29.0262 15.27Z" fill="black"/>
</svg>
