<svg width="48" height="48" viewBox="0 0 48 48" fill="none" xmlns="http://www.w3.org/2000/svg">
<path d="M26.2057 37.6346C25.9158 37.6208 25.5676 37.6636 25.2707 37.6642L21.668 37.615C20.7851 37.577 19.9065 37.5119 19.0313 37.3814L17.913 37.1719C17.7494 38.0572 17.7046 39.178 17.1805 39.9451C17.096 40.0688 17.0046 40.0798 17.0216 40.2375C17.0635 40.6257 16.9192 41.0705 16.4547 41.0986C15.7495 41.1412 15.0232 41.1105 14.3161 41.1108L13.6204 41.1102C12.9116 41.1082 12.9137 40.8245 12.8338 40.2488L12.2071 34.3708C12.1284 33.2254 12.1095 32.0832 12.1725 30.937L12.2078 30.187C12.2618 29.5959 12.3667 29.0025 12.4657 28.4175L13.4121 22.465C13.7928 20.6901 14.2092 18.6953 15.9627 17.7534C17.0137 17.189 19.3767 16.6397 19.709 15.4835L19.7191 15.447C19.8155 15.1154 19.7742 14.8978 19.7204 14.5659C19.5793 13.6965 19.9714 13.0171 20.7657 12.6359C21.0662 12.4917 21.3934 12.5283 21.7211 12.5253L26.2906 12.5252C26.5488 12.5259 26.9101 12.484 27.1482 12.5791L27.2498 12.6218C27.6866 12.8232 28.1166 13.2178 28.2326 13.7033L28.2423 13.7456C28.4157 14.3624 28.0953 14.9013 28.2416 15.3472L28.3005 15.5518C28.7207 16.6499 30.6866 17.1215 31.6876 17.5852C32.8106 18.1054 33.619 19.1416 34.0744 20.273L34.5006 21.5034C34.6166 21.8019 34.6367 22.1292 34.6887 22.4409L35.6202 28.9377C35.7895 30.136 35.83 30.8836 35.828 32.094L35.8198 33.778C35.8076 34.0937 35.7446 34.4087 35.7213 34.7235L35.18 40.2655C35.0783 41.1528 34.933 41.1091 34.0171 41.1104L31.8526 41.1096C31.5054 41.1103 31.1772 41.1051 31.0535 40.6959L31.0446 40.6519C30.9122 40.0172 31.1697 40.4565 30.7738 39.8784C30.2636 39.1336 30.2689 38.0555 30.1167 37.1983L26.2057 37.6346ZM26.3577 13.721L22.7796 13.7452C22.412 13.7453 21.3366 13.6292 21.0546 13.8125L21.0269 13.8301C20.9116 13.9089 20.8531 14.0543 20.8105 14.1835L20.912 14.7853C21.0799 16.1997 20.1229 17.1706 18.9376 17.719L17.6719 18.2797C15.924 19.0172 15.2844 19.4359 14.8615 21.5017C14.8845 21.557 15.089 21.6351 15.1516 21.6617C16.2032 22.1095 17.293 23.2783 17.6465 24.3511L17.6594 24.383C17.8703 24.9237 17.8253 25.513 17.8619 26.0781L21.7732 26.3437C22.4344 26.366 23.1121 26.3441 23.7756 26.3442L27.668 26.2448L29.2311 26.09C29.5238 26.0676 29.8052 26.0583 30.0958 26.0089C30.1917 24.2099 30.7878 22.9543 32.3907 21.9367L33.2086 21.5085C33.2391 21.4949 33.2285 21.5024 33.2486 21.4782C32.6727 19.3125 31.9015 18.891 30.0551 18.1786C28.1995 17.4628 26.7475 16.5176 27.1754 14.2385C27.2528 13.8259 26.6706 13.7071 26.3577 13.721ZM14.5385 22.695C14.3341 23.4516 14.2213 24.2458 14.1068 25.0199L13.7452 27.6675C13.7133 27.954 13.6453 28.2384 13.6011 28.5233L13.3139 30.6792C13.2466 31.4725 13.2486 32.795 13.2988 33.6011L13.9151 39.4914C13.9315 39.6199 13.9025 39.7939 13.9554 39.9101L15.8964 39.908L15.979 39.9077C16.1261 39.4745 16.3286 39.0712 16.4569 38.6293C16.5953 38.153 16.6474 37.647 16.7375 37.1597L16.9074 36.19C17.096 35.2408 17.1547 34.719 17.0697 33.7084L16.9928 33.0816C16.925 32.3189 16.9118 31.6282 16.8785 30.8704C16.8592 30.4335 16.7722 30.0095 16.7682 29.5718L16.7618 27.0106C16.7616 25.6559 16.8034 24.6203 15.8254 23.5939C15.4551 23.2052 15.0578 22.8612 14.5385 22.695ZM33.5117 22.7222C32.9671 22.9104 32.4696 23.3013 32.0977 23.7333L32.0687 23.7665C31.1668 24.8077 31.2296 25.7518 31.229 27.0449L31.2105 29.8268C31.1971 30.1753 31.1279 30.5157 31.1148 30.861C31.0963 31.3473 31.1297 31.841 31.0905 32.3256L30.9809 33.6528C30.9085 34.4741 30.8753 35.2345 31.0321 36.0581L31.36 37.8277C31.4845 38.6031 31.6616 39.1842 32.0522 39.8855L32.0977 39.9054L34.0931 39.912L34.6869 33.601L34.6913 30.7773C34.6568 30.1269 34.543 29.4732 34.4462 28.8293L33.7741 24.105C33.7184 23.6572 33.6831 23.1708 33.5743 22.7327L33.5117 22.7222ZM30.0714 27.2222C29.9656 27.2046 29.6667 27.2489 29.5709 27.2532L25.3726 27.5116L22.2622 27.5079L18.9046 27.3361C18.5635 27.3141 18.2311 27.2744 17.8875 27.269L17.9574 28.7921C18.3627 28.7998 18.7102 28.854 19.0782 28.8768L21.47 29.0116C21.6541 29.0222 21.8354 29.0575 22.0196 29.0647L25.7576 29.0643C25.9501 29.0556 26.1404 29.0229 26.3321 29.0074L27.9916 28.9005C28.6924 28.8583 29.4017 28.8736 30.1006 28.8023L30.1116 27.2381C30.0814 27.2185 30.0957 27.2202 30.0714 27.2222ZM17.9601 29.9462C17.9551 30.0748 17.9404 30.208 17.9686 30.3343C18.0486 30.3889 18.811 30.4492 18.9844 30.4684L20.8274 30.6073C21.0849 30.6312 21.3391 30.6747 21.5984 30.6862L26.0761 30.6857L28.1719 30.5134C28.7836 30.4618 29.4036 30.4518 30.0124 30.3667L30.0028 29.9774L25.5059 30.232L20.6055 30.1588L19.838 30.0863C19.2109 30.0558 18.5837 30.0298 17.9601 29.9462ZM18.0452 31.549C18.0837 32.8806 18.3724 34.1971 18.2363 35.5304C18.1768 36.1135 17.9905 36.0296 18.6328 36.1252L19.3069 36.2202C21.9194 36.5592 25.9687 36.6107 28.5821 36.2326C28.9946 36.173 29.403 36.1385 29.8008 36.003L29.7631 35.2305C29.6196 34.5279 29.7605 33.763 29.8336 33.0549L29.9103 32.3989C29.93 32.1186 29.9256 31.8375 29.9605 31.5582L25.5953 31.8406L21.9533 31.8383L18.0452 31.549Z" fill="black"/>
</svg>
