<svg width="48" height="48" viewBox="0 0 48 48" fill="none" xmlns="http://www.w3.org/2000/svg">
<path d="M28.2479 46.1497C28.0073 46.1627 27.7732 46.2125 27.534 46.2232L20.1973 46.2192L19.2329 46.1302C17.2589 45.9984 16.2602 46.0623 14.349 45.1884C13.1568 44.6433 13.4855 44.5392 13.4808 43.2317L13.2915 39.259C13.2825 39.1458 13.2523 39.0351 13.2448 38.9188L13.2051 37.6327C13.1958 37.4838 13.1581 37.3376 13.1506 37.1855L13.0302 33.3027C13.0135 32.8894 12.9436 32.4752 12.9315 32.0624L12.9083 25.2839L10.579 31.4832C9.7402 33.5597 8.79389 35.614 7.72753 37.5835L7.42425 38.1327C7.10353 38.7495 7.08122 38.8771 6.38789 38.7044C6.03618 38.6168 5.68983 38.5364 5.36048 38.3799C4.33409 37.892 3.59179 36.7612 3.81173 35.6031C3.91672 35.0503 4.19623 34.4867 4.39924 33.9597L6.79603 26.933L9.65367 15.4921C10.3812 12.4785 11.0575 9.42443 14.5664 8.6741C15.7073 8.43011 17.2035 8.44019 17.9541 7.36858C18.2268 6.97929 18.1494 6.64886 18.1437 6.1961L18.1422 4.97276C18.1516 3.53512 18.405 2.24978 20.1173 2.02418C20.3591 1.99882 20.603 2.04414 20.8442 2.05731L21.7812 2.10597C23.1646 2.22395 24.4475 2.26084 25.842 2.15789C26.5122 2.10841 27.2053 2.01217 27.8789 2.04023C29.5645 2.11043 29.857 3.75551 29.8608 5.08155L29.8552 6.08655C29.842 6.36438 29.758 6.73333 29.8479 6.99733L29.8821 7.09488C30.4086 8.50577 32.2444 8.40011 33.4036 8.65441C34.9656 8.99707 36.4032 10.0344 37.0898 11.4911C37.3382 12.018 37.5084 12.56 37.7019 13.1063L38.1439 14.653L40.1093 22.9164C40.1178 22.9629 40.124 23.0018 40.1395 23.0467L40.3018 23.6512C40.3849 24.1257 40.576 24.5868 40.6737 25.0595L41.1705 26.8321L42.39 30.6299L43.5997 33.9908C43.915 34.8503 44.3427 35.5285 44.1494 36.4613C43.8567 37.8735 42.8105 38.4236 41.5336 38.7134C40.7864 38.883 40.7804 38.6459 40.4557 37.9921L38.042 32.9999L36.1818 28.3638L35.2516 25.7532C35.1841 25.5566 35.0994 25.3714 35.0654 25.1658L35.0323 31.1358C35.0275 31.3227 34.9865 31.5031 34.9791 31.6874L34.9382 34.1484C34.9296 34.4087 34.8818 34.6686 34.8727 34.9251L34.8442 36.802L34.6656 40.525L34.5071 42.6236L34.4923 44.0907C34.4889 44.2907 34.5381 44.5901 34.3988 44.7519C34.0799 45.1222 32.2484 45.7376 31.7929 45.8419C30.6381 46.1064 29.4271 46.108 28.2479 46.1497ZM20.3825 3.23654C20.1805 3.23942 19.992 3.26088 19.8132 3.36321L19.7912 3.37516C19.612 3.47392 19.4422 3.65679 19.3925 3.8604C19.2912 4.27458 19.5236 4.30446 19.8494 4.412C20.7692 4.71569 21.4772 4.84582 22.4414 4.91036L22.9687 4.96629C24.3187 5.04841 26.2861 4.98541 27.5572 4.61198C27.9265 4.52524 28.3084 4.39804 28.6472 4.22676C28.582 3.48415 28.1692 3.21081 27.4534 3.23738L26.0894 3.34862C25.6038 3.4365 25.0577 3.41229 24.5648 3.41506L20.7427 3.24647C20.6672 3.24185 20.441 3.20467 20.3825 3.23654ZM19.3645 5.52391C19.5161 7.3218 19.1238 8.47136 17.3744 9.283C16.5584 9.66166 15.7092 9.66799 14.8476 9.8561C12.6786 10.3297 11.9681 11.6986 11.3789 13.6313L9.79893 20.0923L8.12104 26.6373L6.84351 30.6562L5.45929 34.51C5.30212 34.9159 5.0977 35.3278 4.97212 35.7421C4.74745 36.4833 5.538 37.218 6.17573 37.4035L6.45276 37.4725L9.15679 31.8465L10.8427 27.6218L12.4926 23.1041C12.8249 22.1222 12.8707 21.9886 12.966 20.9765L13.3115 18.0702C13.3397 17.7674 13.3145 17.3929 13.4445 17.1118C13.5915 16.7939 14.0131 16.6989 14.2989 16.8866C14.6649 17.1271 14.5283 17.6556 14.5019 18.0168L14.1149 21.2619C14.0266 21.9487 14.1124 22.3876 14.1265 23.0279L14.1601 32.9031C14.1666 33.1334 14.22 33.3577 14.226 33.5859L14.2372 35.4544C14.2499 35.7086 14.3022 35.9587 14.3202 36.2109L14.3525 37.4505C14.3715 37.8433 14.4001 38.2528 14.4215 38.6505L14.54 40.4999C14.5512 40.7073 14.6055 40.9064 14.6144 41.1145L14.6283 43.1374C14.6343 43.4884 14.5673 44.0551 14.9158 44.1384C15.138 44.1915 15.3777 44.3234 15.5985 44.4007C16.4448 44.6969 17.3728 44.8516 18.2695 44.9051L19.1601 44.9344C19.3632 44.9465 19.5476 45.002 19.7511 45.0106L27.1889 45.0106C27.4027 45.0031 27.6109 44.9604 27.8234 44.9454L29.1621 44.8799L30.4108 44.8178C31.3833 44.7334 32.5327 44.4763 33.3514 43.9507L33.3774 42.1824C33.3804 41.6162 33.4425 41.2602 33.4737 40.7393L33.5053 39.5081C33.5117 39.2937 33.5526 39.0835 33.5619 38.869L33.5928 37.8088C33.6151 37.521 33.6615 37.2388 33.6741 36.9481C33.696 36.4377 33.642 35.9075 33.7089 35.4016C33.7652 34.9762 33.7628 34.5382 33.7642 34.1099L33.8569 30.9837L33.9112 22.6966C33.9142 21.7737 33.9223 21.4584 33.7992 20.5312L33.5303 18.2626C33.4812 17.792 33.252 16.9287 33.9257 16.8008L33.9572 16.7944C34.7251 16.6565 34.6352 17.7227 34.6884 18.1874L35.0156 20.8372C35.0565 21.2142 35.0497 21.5882 35.1108 21.9628C35.1505 22.2062 35.2793 22.4282 35.3527 22.6621L38.1666 30.1828C38.2414 30.402 38.3482 30.6172 38.436 30.832L41.0721 36.5511C41.1525 36.711 41.4446 37.3818 41.5515 37.4529C42.0365 37.326 42.547 37.1313 42.8199 36.6811C43.2355 35.9955 42.9277 35.5393 42.675 34.8765L39.9311 26.8085L38.2815 20.4572L37.382 16.5186C36.6847 13.5155 36.276 10.2585 32.6308 9.75386C31.1121 9.54358 29.5321 9.24808 28.8072 7.63844L28.6594 7.19486C28.5469 6.79765 28.6029 5.97429 28.6483 5.56736L28.6241 5.57777C26.5808 6.44069 21.4959 6.38838 19.4484 5.56235L19.3645 5.52391Z" fill="black"/>
</svg>
