<svg width="48" height="48" viewBox="0 0 48 48" fill="none" xmlns="http://www.w3.org/2000/svg">
<path d="M18.9551 42.5832L17.789 42.1932C17.0924 41.948 17.0932 41.982 16.3464 41.9819L14.8245 41.9812C12.2969 41.9784 9.85989 40.6406 10.0331 37.7572L10.4626 32.6973C10.5153 32.251 10.6164 30.8555 10.4813 30.4262C10.3504 30.0105 10.1855 29.565 10.1462 29.1297L10.0815 28.6705C10.0111 28.2734 10.0154 27.7031 10.0793 27.3049L10.4998 23.5952L10.5108 18.7179C10.4499 17.7275 10.3021 16.7524 10.1499 15.7736L9.50856 12.6305L9.29223 11.8731C9.23368 11.6932 9.15793 11.513 9.11556 11.3288L9.09203 11.225C9.02603 10.8985 9.10421 10.5552 9.28529 10.2792L9.30981 10.2424C9.83556 9.43967 10.7045 9.6259 11.4826 9.35224C12.2485 9.08285 12.9257 8.7544 13.5527 8.22406C14.5419 7.38748 15.3 6.66218 16.6523 6.49315C16.9022 6.46188 16.8256 6.43849 16.918 6.19174L17.1659 5.5781C17.5549 4.63016 18.0513 4.89148 18.9362 4.8912L29.1042 4.89153C29.3423 4.89026 30.198 4.83528 30.3482 4.95012L30.375 4.97173C30.7419 5.23559 30.8737 5.73603 31.0322 6.14079C31.1674 6.48603 31.1414 6.44674 31.5117 6.49024C33.3613 6.70751 34.4958 8.99904 36.9268 9.45973C37.7204 9.6101 38.4834 9.6259 38.8344 10.5364L38.8443 10.5627C39.0219 11.0283 38.8489 11.2977 38.7316 11.7267L38.2983 13.4982C37.8527 15.4669 37.4956 18.1923 37.4793 20.2384L37.4758 31.6241L37.9816 37.7338C38.1718 40.0715 36.6125 41.3236 34.464 41.8129C34.1587 41.8824 33.8185 41.9669 33.5061 41.979L31.5575 41.9822C31.2728 41.9824 30.8343 41.9286 30.5707 42.0296C27.9143 43.0482 26.7769 43.0948 23.8819 43.0972L21.8088 43.0424C20.8284 42.9891 19.9048 42.8587 18.9551 42.5832ZM18.9994 6.3357L18.3934 6.35093L18.1791 6.99345C18.4012 7.12807 18.6413 7.22792 18.8707 7.35003L21.9129 9.01188C22.1504 9.14745 22.4102 9.35234 22.6714 9.43189L22.9094 9.33129C23.2372 9.19146 24.9124 9.16165 25.3375 9.42439L26.9383 8.5106C27.1652 8.38329 27.3938 8.23353 27.6315 8.12848L29.8185 6.9754C29.7161 6.75837 29.6519 6.56023 29.5821 6.33246L18.9994 6.3357ZM31.5805 7.98063L31.5835 8.01556C31.5972 8.16312 31.7649 8.72435 31.8116 8.87604C32.0293 9.58329 31.7889 10.3304 31.6015 11.0139L30.8443 13.758C30.7225 14.1505 30.6596 14.5952 30.189 14.7193C29.6241 14.8683 29.2804 14.4059 28.816 14.2141C28.763 14.4398 28.7552 14.6661 28.7223 14.8947L27.6154 21.6905C27.3993 22.9765 27.2062 23.8946 27.2062 25.1978L27.2065 27.9559C27.2056 28.1974 27.1922 28.4458 27.2171 28.6863L27.2449 28.7228C27.3022 28.6396 27.3315 28.5323 27.373 28.4397L28.772 24.7531L32.1415 14.9892C32.2101 14.8059 32.1726 14.6167 32.1796 14.4259C32.2157 13.44 33.8563 13.3856 33.6632 14.8361L33.6587 14.8729C33.6381 15.0289 33.5726 15.1806 33.5222 15.3293L29.524 26.8954C28.9594 28.4061 28.4204 29.9809 27.4819 31.31C27.1063 31.842 27.2027 31.5079 27.2017 32.2616L27.2048 38.0441C27.2417 39.0115 28.581 39.9595 29.3909 40.2594L30.1933 40.4878C30.347 40.529 30.5347 40.5162 30.6943 40.5167L31.4959 40.5181C33.1476 40.5193 36.2503 40.6641 36.573 38.4459C36.6179 38.1367 36.5809 37.7669 36.5519 37.4564L36.0243 31.0204L36.0336 20.603L36.3132 16.7492L36.8831 13.2587L37.2272 11.8147C37.2596 11.6924 37.4532 11.1361 37.4329 11.0325C35.862 10.77 34.6729 10.2973 33.391 9.28901C32.8881 8.89338 32.2225 8.12796 31.5805 7.98063ZM16.3157 8.02751C15.7781 8.18117 15.3131 8.63618 14.8945 8.98873C13.5224 10.1441 12.3106 10.8042 10.538 10.9992C10.5777 11.2453 10.6692 11.49 10.7362 11.7306L11.0975 13.174C11.134 13.2936 11.1419 13.4154 11.1679 13.5363L11.3554 14.4152C11.7105 16.0612 11.9073 17.954 11.974 19.6463L11.9072 23.4025C11.8532 24.2975 11.7771 25.1335 11.6814 26.0275L11.5292 27.1134C11.4673 27.6749 11.4564 28.2736 11.5316 28.8343C11.5952 29.3087 11.8283 29.7613 11.91 30.2321C12.0111 30.8143 11.957 31.3544 11.916 31.9383L11.856 33.1408C11.8472 33.2589 11.8201 33.3749 11.8122 33.4928L11.4818 37.5185C11.4528 37.8082 11.385 38.1194 11.4209 38.4102C11.6064 39.9125 13.3126 40.513 14.6266 40.5166L16.895 40.5161C18.4074 40.5128 19.8387 39.8698 20.6014 38.4948C20.8185 38.1035 20.7414 37.814 20.7403 37.3849L20.7393 32.892C20.7392 32.471 20.7745 32.0144 20.7214 31.5991L20.7067 31.5813C19.798 30.4607 18.9218 28.4726 18.4199 27.0765L14.6438 16.5002C14.3998 15.8318 13.9727 14.9018 14.3118 14.2036C14.5972 13.616 15.4355 13.5274 15.7051 14.1916L15.7178 14.2221C15.7822 14.3923 15.7666 14.6382 15.6892 14.8009L15.6211 14.9247L19.1732 24.9377L20.7141 28.7178C20.6561 28.2371 20.6889 27.7214 20.6895 27.237C20.6911 26.0796 20.7291 24.9204 20.6385 23.7657C20.5961 23.2255 20.4618 22.6824 20.3724 22.1486L19.1076 14.1322C18.1359 14.711 17.5978 15.262 17.1057 13.7814L16.2111 10.398C16.0257 9.54115 16.0324 9.16203 16.2998 8.30018L16.3157 8.02751ZM17.7632 8.42595L17.6338 8.90782C17.3857 9.76465 17.572 9.98698 17.7838 10.8475L18.1141 12.1525C18.1893 12.4195 18.2627 12.7018 18.3715 12.9568L20.4398 11.7687C20.5976 11.6749 21.8085 10.9773 21.8324 10.8841C21.8927 10.6489 21.6369 10.5438 21.4742 10.4493L18.2201 8.6599C18.0923 8.59315 17.922 8.46143 17.7868 8.42937L17.7632 8.42595ZM30.1477 8.42595L30.1147 8.44943C29.7623 8.6966 29.3419 8.87478 28.9626 9.07934L27.0833 10.1145C26.782 10.2762 26.0589 10.4448 26.1397 10.8927C26.2842 11.0208 26.4553 11.1177 26.6116 11.2307L27.6467 11.8756L29.5702 13.0218L30.3288 10.2189C30.4928 9.53224 30.469 9.08698 30.176 8.43701L30.1477 8.42595ZM23.6857 10.7184C23.6057 10.7304 23.4775 10.7233 23.4313 10.7968L23.4025 10.8739C23.514 10.9655 24.1325 10.9144 24.2988 10.9087C24.6848 10.9056 24.7537 10.7119 24.2561 10.7087C24.0657 10.7075 23.8758 10.705 23.6857 10.7184ZM22.6124 12.1861L20.4833 13.4141C20.4288 13.7017 20.5672 14.0985 20.6064 14.4025L20.8533 16.07C20.8992 16.4219 20.956 16.7687 20.9994 17.1203L21.521 20.2624C21.6044 20.7419 21.672 21.2273 21.7451 21.7083L21.8552 22.3522C22.0715 23.6082 22.1248 24.1029 22.1261 25.3798L22.1327 36.9726C22.1363 37.3568 22.2063 37.7398 22.1686 38.1251C22.0362 39.4737 20.8737 40.6464 19.7443 41.2627C20.6821 41.6009 21.7673 41.6343 22.7525 41.6364L25.4181 41.6369C26.4992 41.5804 27.1738 41.5242 28.2237 41.298L28.2032 41.2887C27.1555 40.8003 26.2268 39.7407 25.8501 38.6619C25.724 38.3005 25.8008 37.816 25.8006 37.4387L25.8013 25.886C25.8016 25.2334 25.7739 24.568 25.8114 23.9173C25.8392 23.433 25.9664 22.941 26.0493 22.4628L27.4223 13.9063C27.4629 13.6995 27.5924 13.5396 27.4094 13.4304L25.4439 12.2329C25.0025 12.45 24.6093 12.3711 24.1289 12.372L23.2806 12.376C22.9268 12.3763 22.9146 12.3439 22.6124 12.1861Z" fill="black"/>
<path d="M24.234 34.2794C23.5383 34.3455 23.1178 33.9353 23.2425 33.2447L23.2488 33.2113C23.3002 32.9173 23.5387 32.7639 23.7943 32.6525C24.1939 32.5912 24.568 32.7153 24.7338 33.1112L24.7503 33.1527C24.9601 33.6536 24.7025 34.0779 24.234 34.2794Z" fill="black"/>
<path d="M24.1658 37.949C23.7565 37.9593 23.3385 37.8129 23.2257 37.3683L23.2111 37.3078C23.0934 36.8051 23.4387 36.373 23.9259 36.2861C24.4968 36.2585 25.0175 36.8654 24.7837 37.4232L24.7207 37.559C24.6016 37.7718 24.3931 37.8874 24.1658 37.949Z" fill="black"/>
</svg>
