<svg width="48" height="48" viewBox="0 0 48 48" fill="none" xmlns="http://www.w3.org/2000/svg">
<path d="M25.3998 37.9506L22.5211 37.9596C22.1829 37.957 22.27 38.04 22.0817 38.3191C21.0166 39.8988 19.5788 39.7778 17.9358 39.6644L13.1588 39.0957C11.3269 38.8225 10.291 38.6715 10.29 36.5555L10.2922 24.352C10.3326 23.2305 11.115 23.3129 11.6721 22.9427C13.1494 21.9612 13.6975 19.3951 13.7207 17.7735C13.7398 16.4351 13.686 14.9133 13.1163 13.6713C12.5738 12.4887 12.7053 12.3797 13.9843 11.8499L17.7701 10.2415C17.9013 10.1845 18.6002 9.8963 18.614 9.82144C18.7298 9.19092 19.1159 9.07584 19.68 8.87395C20.812 8.46886 21.4964 8.36531 22.6648 8.28295L24.2188 8.26758C25.6317 8.26805 26.6163 8.33419 27.9674 8.74383C28.6304 8.94488 29.2406 9.08545 29.3785 9.85345L34.1289 11.8865C34.3385 11.9707 34.5939 12.0174 34.7818 12.1459L34.8051 12.1624C34.905 12.2325 34.9881 12.3263 35.0419 12.4368L35.0622 12.4801C35.3085 12.9548 34.9713 13.4277 34.8122 13.8709C34.132 15.7658 34.1667 17.772 34.505 19.7205L34.5767 20.0136C34.7825 21.0231 35.4215 22.3301 36.2638 22.9043C36.7974 23.2681 37.2977 23.1177 37.5785 23.8866L37.6293 24.0054C37.6959 24.1411 37.7084 24.2536 37.7137 24.4036L37.7244 35.4654C37.7246 36.072 37.7596 36.6984 37.6908 37.3004L37.6745 37.4117C37.4061 38.5598 36.4829 38.8832 35.4738 39.0034L34.8465 39.0999C33.3466 39.3377 31.8567 39.5538 30.3412 39.6631C28.2809 39.8117 26.8186 39.9048 25.6921 37.9683L25.3998 37.9506ZM23.0804 9.73327C22.2535 9.76927 20.7561 10.0029 19.9739 10.3357L19.9751 12.5354C19.9767 13.9099 20.0004 14.9783 21.1749 15.9696C22.2046 16.8386 22.4016 17.3223 22.6491 18.5585L24.9672 18.5597L25.3289 18.5641C25.5449 17.2424 25.9526 16.7164 26.9069 15.8952C28.0976 14.8705 28.0062 13.5564 28.01 12.1392L28.0087 10.3463C27.7145 10.2524 27.4254 10.1364 27.1262 10.0595C25.7765 9.71259 24.4602 9.7297 23.0804 9.73327ZM29.465 11.5426C29.3826 12.5623 29.5668 13.5695 29.3343 14.575C29.0878 15.6409 28.506 16.5077 27.6781 17.2094C27.1812 17.6305 26.8276 18.0676 26.8206 18.7659L26.8178 36.2684C26.818 36.517 26.8038 36.7641 26.8643 37.0074L26.8736 37.0459C27.1189 37.9933 28.0926 38.2599 28.9453 38.255C30.5499 38.2457 32.144 37.9789 33.732 37.7775L35.2354 37.5309C35.7687 37.4509 36.2247 37.5301 36.2526 36.8439L36.2554 26.117C36.2551 25.6008 36.2941 25.0439 36.2383 24.5317C36.015 24.4202 35.7903 24.3514 35.57 24.2194L35.5294 24.1954C32.5048 22.389 32.291 16.2563 33.4918 13.2054L29.5469 11.5515C29.508 11.536 29.5073 11.5299 29.465 11.5426ZM18.5106 11.566L14.505 13.2218C14.6066 13.4972 14.7131 13.7707 14.7919 14.0537L14.9396 14.6721C15.0347 15.0028 15.0508 15.3649 15.0976 15.7044C15.404 17.9289 15.1181 20.4913 14.0164 22.451C13.5254 23.3243 12.9119 24.0669 11.9743 24.4559C11.6167 24.6043 11.7865 24.6941 11.7882 25.1782L11.7869 36.5379C11.7892 37.5815 11.751 37.3686 12.8558 37.5307L14.3151 37.7736L19.2028 38.252C20.0659 38.2494 21.0813 37.7763 21.1243 36.7873L21.136 19.3214C21.1365 18.9772 21.1798 18.5871 21.0773 18.2564L21.0404 18.1409C20.833 17.4973 20.3169 17.2725 19.8811 16.8195C18.5417 15.4272 18.5574 14.1342 18.5543 12.336C18.5539 12.0985 18.5811 11.8077 18.5347 11.5767L18.5106 11.566ZM22.6226 19.9961C22.5775 20.4192 22.5957 20.8501 22.5957 21.2712L22.5955 35.7975C22.5956 36.0263 22.5779 36.2724 22.6073 36.4988L25.2777 36.4751L25.3621 19.9984L22.6226 19.9961Z" fill="black"/>
<path d="M18.7629 34.59C18.469 34.8077 18.1531 34.9624 17.806 35.074L17.7658 35.0875C15.9292 35.6843 14.0474 34.2862 13.9008 32.4021C13.8839 32.1853 13.8948 31.9592 13.8944 31.7413V30.5283C13.8945 30.1817 13.8371 28.4823 13.93 28.2909L13.9433 28.2654C14.1145 27.9152 14.38 27.8177 14.7604 27.7831L19.0117 27.7744C19.4457 27.7744 19.8537 27.7321 20.0763 28.2L20.0931 28.2364C20.2828 28.6336 20.1825 29.2825 20.0237 29.6923C19.8987 30.0147 19.962 30.3496 19.9679 30.6868L19.9745 32.1684C19.974 32.3872 19.9983 32.6474 19.9243 32.8546L19.8716 33.012C19.7224 33.6368 19.2551 34.2007 18.7629 34.59ZM15.3645 29.2992L15.3482 31.181C15.3486 31.5762 15.313 32.0108 15.3651 32.4017C15.5335 33.6654 17.0958 34.1311 18.0167 33.2924C18.5538 32.7279 18.5008 32.4693 18.5035 31.7412L18.508 29.2968L15.3645 29.2992Z" fill="black"/>
<path d="M33.7109 34.5681C31.8169 35.9773 29.2979 34.9671 28.8296 32.7094C28.7431 32.2926 28.7755 31.838 28.7751 31.4147L28.7743 29.5782C28.7737 28.8337 28.5395 27.9405 29.538 27.7792L33.8144 27.7782C34.0393 27.7788 34.3102 27.7528 34.5232 27.8293L34.5587 27.8429C35.1699 28.0613 35.0129 28.9524 35.0134 29.4593C35.0136 29.7253 35.0358 30.0155 34.9956 30.2788C34.9694 30.4509 34.8511 30.5731 34.8451 30.7501C34.7921 32.2988 35.1747 33.3685 33.7109 34.5681ZM30.2612 29.2801L30.2498 31.3647C30.25 31.689 30.2011 32.1123 30.2801 32.4255C30.5589 33.5307 31.774 34.1724 32.7641 33.4173L32.9781 33.2393C33.5364 32.607 33.4452 31.9943 33.4454 31.1981L33.4445 29.2967L30.2612 29.2801Z" fill="black"/>
</svg>
