<svg width="48" height="48" viewBox="0 0 48 48" fill="none" xmlns="http://www.w3.org/2000/svg">
<path d="M36.7098 42.9777L36.0122 43.3978C35.6571 43.568 35.2762 43.6799 34.9001 43.7933L30.7506 44.7728C29.7533 44.9338 28.7372 45.0231 27.7306 45.1028L24.8201 45.2489L20.9846 45.1621C18.5287 45.0167 16.0972 44.644 13.7342 43.9522L12.2932 43.515C11.0675 43.0775 10.1938 42.0374 9.96314 40.7693C9.89794 40.4107 9.94153 39.9904 9.94378 39.6248L9.95573 38.095L10.1115 35.7283L10.1238 31.0787L9.91392 27.5511L9.67364 25.5958C9.64378 25.2283 9.64903 24.8592 9.64969 24.4908C9.65278 22.7917 10.1552 22.2518 10.7729 20.8135C11.3538 19.4605 11.461 18.4206 11.462 16.9946L11.453 15.2482L10.957 8.43988C10.7008 6.06228 11.069 5.17855 13.6419 4.49134C14.6938 4.21039 15.5672 3.72478 16.5192 3.21161C16.8377 3.03989 17.2032 2.78357 17.5592 2.72479C17.8376 2.74412 18.0355 2.82898 18.171 3.09659L18.1873 3.12927C18.3034 3.34104 18.2611 3.55002 18.2906 3.77936L18.6091 6.185C18.6443 6.43419 18.6776 6.70536 18.7648 6.94278L18.9603 7.5238C19.9041 10.3085 22.7949 11.8864 25.6193 10.986C27.5269 10.378 28.8387 8.61941 29.3055 6.73147C29.4771 6.03763 29.5192 5.30572 29.601 4.59658L29.7041 3.70376C29.757 3.23021 29.8952 2.50355 30.6079 2.74977C30.7727 2.80674 30.931 2.92559 31.086 3.00748L32.8758 3.9772C33.8374 4.47694 34.9968 4.4454 35.9118 5.03595C37.2389 5.89255 37.1322 7.04928 37.0373 8.41756L36.6324 14.097C36.617 14.3429 36.5696 14.5851 36.5582 14.8318L36.5388 16.9288C36.5387 17.3675 36.5085 17.834 36.5612 18.269L36.7446 19.3341C36.7691 19.4581 36.8109 19.6166 36.8581 19.7358L37.0082 20.2035C37.1986 20.8655 37.563 21.4518 37.8397 22.0764C38.4271 23.4027 38.4433 24.579 38.2597 25.973L37.9458 28.7973L37.9203 29.7623C37.9117 29.9432 37.8828 30.1245 37.8784 30.305L37.882 35.4088L38.0771 39.8207C38.1123 41.106 37.7873 42.1501 36.7098 42.9777ZM30.876 4.30114L30.8697 4.32664C30.813 4.56881 30.8252 4.83481 30.8025 5.08264L30.6272 6.50427C29.64 12.8966 21.817 14.7555 18.3999 9.25841C17.494 7.80106 17.2471 5.98231 17.1261 4.3028C16.8543 4.43974 16.5503 4.55934 16.2971 4.72649L16.4916 7.23294C16.5124 7.54306 16.5594 7.85066 16.5688 8.16111L16.5885 9.35192C16.5997 9.55447 16.646 9.74661 16.6616 9.94728L16.7018 11.0394C16.711 11.2127 16.7478 11.3825 16.7592 11.555L16.7881 13.0433C16.7969 13.2584 16.8338 13.4733 16.849 13.6879L16.9767 16.3871C16.9888 16.5813 17.0327 16.7759 17.04 16.9691C17.0598 17.4966 16.9914 18.0794 17.0903 18.5969C17.2006 19.1747 17.1915 20.3535 17.2246 21.0452L17.2553 22.0969C17.3073 22.7621 17.2831 23.6163 17.3793 24.1999C17.4598 24.6882 17.4298 25.2091 17.4342 25.7031C17.4391 26.2505 17.496 26.7909 17.502 27.3402L17.6019 30.305C17.6101 30.4722 17.6418 30.6364 17.6461 30.8045L17.6543 35.3324L17.6563 42.6017C17.6564 42.9207 17.6346 43.261 17.6804 43.5761L20.6411 43.8747L22.6639 43.9674L25.2263 43.9679L27.3596 43.878C27.504 43.8701 27.6413 43.8383 27.7813 43.8265L30.3516 43.5867L30.3656 30.516C30.3751 30.2799 30.4314 30.0433 30.4414 29.8052L30.5813 25.0316C30.5901 24.8008 30.6455 24.575 30.6567 24.344L30.6849 23.0272L30.8448 20.5105L30.8763 19.1717L31.1159 14.5236C31.1567 13.625 31.191 12.6647 31.2501 11.7734L31.5225 6.53544C31.5299 6.39622 31.5608 6.26333 31.5712 6.1258L31.6189 5.30267C31.6374 5.12853 31.7002 4.92781 31.6871 4.75517L30.876 4.30114ZM15.1306 5.37927L14.1092 5.67453C13.3441 5.88547 12.3651 6.05431 12.1401 6.94958L12.1296 6.9898C12.0593 7.27077 12.1357 7.55797 12.1594 7.84077L12.4809 12.2308C12.4905 12.3591 12.5206 12.4833 12.5297 12.6122L12.5741 13.7779C12.5887 14.0111 12.6423 14.2373 12.6525 14.4738L12.6755 16.4722C12.6861 18.4806 12.6322 19.7784 11.7465 21.6886C11.0154 23.265 10.7496 23.559 10.9261 25.3867L11.3235 29.6254C11.3478 29.9488 11.3373 30.2843 11.3406 30.6091L11.3265 36.1655L11.2446 37.0926L11.1567 39.7602C11.15 40.9314 11.3436 41.6523 12.5319 42.2479C12.9596 42.4216 13.3982 42.5469 13.8397 42.6793L16.3983 43.3287C16.4242 43.2585 16.4104 43.1568 16.4104 43.0819L16.3814 30.3194C16.3692 30.1334 16.3384 29.9507 16.3335 29.7638L16.3142 27.7981C16.3065 27.5506 16.264 27.3082 16.254 27.0609L16.1524 24.4412L16.032 21.0148L15.7765 16.89L15.5888 13.4605L15.4717 10.7595C15.4628 10.5891 15.4287 10.4226 15.4153 10.2574L15.1647 5.37242L15.1306 5.37927ZM32.8941 5.37927L32.5928 10.188C32.5783 10.3755 32.5426 10.5643 32.534 10.751L32.5101 12.0937C32.5006 12.2668 32.4645 12.4351 32.452 12.6069L32.3017 15.4909C32.2602 16.1654 32.284 17.1202 32.1817 17.7007C32.07 18.3347 32.1718 19.0046 32.0822 19.6467C32.0194 20.0971 32.057 20.5696 32.0326 21.0238L31.7899 25.5783L31.7423 27.7387C31.7366 27.9414 31.7011 28.1424 31.6939 28.3457L31.6567 30.084C31.6464 30.3695 31.5823 30.6477 31.5765 30.936L31.5708 42.8284C31.5709 42.9961 31.5577 43.1738 31.59 43.3388C31.9613 43.2754 32.3294 43.1753 32.6951 43.0856L34.57 42.5579C34.8927 42.4552 35.2296 42.3612 35.5334 42.2096C36.506 41.6946 36.8437 40.9429 36.8385 39.8988L36.6664 36.3889C36.6446 36.0646 36.6582 35.7328 36.6569 35.4075L36.6536 31.3293C36.6557 30.3573 36.6604 29.5994 36.7386 28.6383L36.8822 26.9543C37.0517 25.647 37.3353 24.1788 36.835 22.9062C36.5843 22.2684 36.2046 21.6981 35.977 21.0465C35.7298 20.3387 35.5209 19.6287 35.3924 18.8893C35.2935 18.3208 35.2722 17.7419 35.2723 17.1671L35.2857 15.7168C35.2942 15.5445 35.3246 15.3739 35.3371 15.2013L35.3837 14.1793C35.4388 13.2634 35.5149 12.3581 35.5533 11.4466L35.6443 9.93088C35.6571 9.73334 35.6956 9.54031 35.7137 9.34353L35.8631 7.40314C35.8696 7.23852 35.86 7.07408 35.818 6.91442L35.8102 6.88377C35.5528 5.92658 34.4946 5.84122 33.6958 5.61627L33.1842 5.45853C33.0935 5.42731 32.9903 5.3758 32.8941 5.37927Z" fill="black"/>
<path d="M25.671 19.5441C25.359 19.542 25.2119 19.4128 24.9679 19.2411L20.66 16.0945C20.4103 15.8999 20.2863 15.6458 20.4196 15.3329L20.4587 15.2463C20.5517 15.067 20.7191 14.9907 20.9001 14.9328C21.2956 14.9097 21.5746 15.2301 21.8714 15.4456L24.668 17.4834C24.981 17.7062 25.9811 18.3118 26.1383 18.6262L26.18 18.7223C26.2233 18.8362 26.2199 19.0347 26.1701 19.1454L26.1574 19.172C26.0591 19.3982 25.9112 19.4879 25.671 19.5441Z" fill="black"/>
<path d="M26.9246 26.5592C26.5816 26.5449 26.4381 26.346 26.1749 26.1643L21.9454 23.0543C21.6172 22.8099 21.258 22.5985 20.9532 22.3229C20.5007 21.9138 20.8117 21.3386 21.3381 21.2387C21.6472 21.2276 21.8492 21.4595 22.0793 21.6273L27.2145 25.3836C27.2807 25.4348 27.3486 25.4863 27.3907 25.5603L27.4051 25.5874C27.6462 26.0234 27.3908 26.4767 26.9246 26.5592Z" fill="black"/>
</svg>
