<svg width="48" height="48" viewBox="0 0 48 48" fill="none" xmlns="http://www.w3.org/2000/svg">
<path d="M27.9174 36.4603C26.9942 38.3227 25.6841 39.7639 24.8966 41.7037C24.7046 42.1764 24.6805 42.5666 24.0875 42.7161C23.4917 42.8663 23.2471 42.2536 23.1089 41.8155L22.83 40.9329C22.5959 40.2269 22.2822 39.5175 21.9323 38.8618L19.8637 35.2819L13.166 25.3881L6.813 15.5457L5.74776 13.8117C5.36512 13.1541 4.70395 11.8202 5.81207 11.4368C5.95621 11.3869 6.10964 11.3726 6.25823 11.3419L13.7965 9.54312C14.0106 8.95727 14.4684 8.5361 14.7505 7.98382L15.489 6.40952C15.7275 5.85616 15.7447 5.4033 16.4295 5.28223C16.7614 5.31223 17.0237 5.60618 17.2814 5.79204L17.9546 6.2336C20.0992 7.49393 22.4774 8.02709 24.9414 7.82801L25.9279 7.7208C26.0469 7.70205 26.1701 7.69681 26.2867 7.66549L27.0559 7.49079C28.1617 7.18995 29.2276 6.73413 30.2046 6.13423L30.8896 5.66716C31.9788 4.8603 32.1258 5.53015 32.5473 6.49685C32.7382 6.93481 32.9345 7.38181 33.1607 7.80298C33.4882 8.41254 33.9443 8.9193 34.2259 9.55324L42.069 11.3989C42.2933 11.4505 42.4733 11.5507 42.5966 11.7493L42.6173 11.7832C43.0465 12.4774 42.6586 13.1522 42.2821 13.7696L36.8377 22.3571L31.0249 30.9259C30.2728 32.0066 29.2774 33.1849 28.7581 34.3986L27.9174 36.4603ZM16.7301 7.15441L16.0661 8.55377L22.1771 10.7009C22.2912 10.7382 22.413 10.8046 22.531 10.8206L22.5507 10.7973C23.2269 10.0063 24.5268 9.93241 25.3051 10.6149L25.5069 10.8187L30.9328 8.90538L31.9706 8.56249L31.2714 7.16585C27.019 9.93565 20.9333 10.1172 16.7301 7.15441ZM15.2747 9.90241C14.7927 10.2437 14.9774 10.5156 14.977 11.1263L14.9763 14.5126C14.9761 14.7737 14.8971 15.1405 15.059 15.3634L15.08 15.3934C15.4403 15.9016 15.944 15.4874 16.3949 15.3294L21.5394 13.5088L18.9086 13.4829L17.6032 13.4828C17.4177 13.4825 17.1856 13.5074 17.0065 13.4714C16.3436 13.3382 16.3335 12.1678 17.0329 12.0283C17.1684 12.0013 17.334 12.0173 17.4735 12.017L21.5028 12.0169L16.1093 10.12C15.9118 10.0537 15.4746 9.81813 15.2747 9.90241ZM32.5751 9.89468L27.2614 11.7444C27.0299 11.8241 26.7149 11.8968 26.5125 12.0298L26.5536 12.0266C26.9192 11.9993 27.2925 12.0148 27.659 12.0157L30.4478 12.0169C30.8977 12.0175 31.3732 12.0155 31.483 12.586L31.4889 12.6153C31.644 13.4541 30.9084 13.4823 30.3236 13.483L28.8871 13.4829L26.4847 13.4928C26.7126 13.5364 26.9262 13.6494 27.1432 13.7348L32.5163 15.6359C33.1211 15.4374 33.0189 15.1248 33.0192 14.5943L33.0185 11.1181C33.0182 10.8848 33.1302 9.72218 32.5751 9.89468ZM13.4951 11.0977L6.7701 12.7091L6.85598 12.8682C6.89381 12.9449 6.94982 13.0115 6.99182 13.0863L11.7402 20.6368L16.7313 28.0609L19.3409 31.8701L16.9807 16.7035L15.7049 17.0713C14.7484 17.2587 13.8456 16.3861 13.604 15.5298L13.5712 15.4329C13.5075 15.2593 13.52 15.0849 13.5194 14.9032L13.5193 14.2027C13.5194 12.9243 13.5148 11.115 13.4951 11.0977ZM34.4783 11.0977L34.4766 11.1261C34.4595 11.4473 34.4801 11.7776 34.4804 12.1L34.4801 14.2126C34.4797 14.5741 34.5272 15.0089 34.4399 15.3558C34.1823 16.3786 33.3273 17.3158 32.1816 17.0473L31.0188 16.7081L28.9365 31.3818L31.5575 27.6167L40.6225 13.7458C40.8242 13.4125 41.0748 13.0733 41.235 12.7207L34.7563 11.1577C34.6696 11.1349 34.5665 11.0841 34.4783 11.0977ZM23.9718 11.5577C23.1551 11.8193 23.2253 12.464 23.2272 13.1853C23.2276 13.3161 23.2073 13.4947 23.2555 13.616L23.331 13.7703C23.448 14.0227 23.7376 14.2125 24.0098 14.2551C24.8171 14.0418 24.7658 13.4916 24.7664 12.8204C24.7669 12.2737 24.7186 11.59 23.9718 11.5577ZM22.3068 14.733L18.3292 16.2049L18.5077 17.2955C18.5868 17.6858 18.6 18.1079 18.6573 18.504L20.6787 31.1976C20.772 31.7378 20.8635 32.3134 21.0401 32.8335L21.6746 35.004C21.7094 35.1158 21.761 35.2127 21.7817 35.3299L21.7702 23.5458C21.7703 23.1645 21.7251 22.7145 21.7864 22.3406C22.2055 19.7852 25.5041 19.6632 26.1238 22.0185C26.1575 22.1465 26.1658 22.2771 26.2014 22.4043C26.2219 22.8642 26.1952 23.3068 26.1904 23.7652L26.1817 32.6251C26.1797 32.8702 26.1393 33.1125 26.1305 33.3569L26.1121 36.0938C26.1116 36.2616 26.0457 36.6388 26.123 36.779C26.5705 36.1279 26.9135 35.3486 27.0345 34.5683L29.6457 16.1763L25.6807 14.7672C25.422 15.1997 25.0004 15.4847 24.516 15.6113L24.476 15.6221C23.5432 15.863 22.8596 15.4284 22.3068 14.733ZM23.9137 21.8016C23.7929 21.8284 23.6862 21.8486 23.5823 21.92L23.5547 21.9386C23.2293 22.166 23.2289 22.411 23.2289 22.7638L23.2288 37.8385C23.2293 37.9204 23.2321 37.9902 23.2587 38.0683L23.9054 39.7592C23.9319 39.8417 24.0008 40.0651 24.0732 39.9259L24.678 38.8238C24.7717 38.6414 24.7583 38.3534 24.7625 38.1501L24.768 22.8284C24.7677 22.2536 24.5462 21.7572 23.9137 21.8016Z" fill="black"/>
</svg>
