<svg width="48" height="48" viewBox="0 0 48 48" fill="none" xmlns="http://www.w3.org/2000/svg">
<path d="M37.6055 38.0505C37.5812 40.0003 36.374 40.7591 34.7554 41.6071C33.6291 42.1971 32.4133 42.7481 31.1302 42.852C28.4062 43.0725 26.0599 42.025 23.9931 40.2676L23.3318 40.796C19.991 43.3429 16.6852 43.5499 12.9808 41.4662C11.7995 40.8018 10.6928 40.0951 10.43 38.6723C10.3536 38.2586 10.3763 36.6034 10.4301 36.2009C10.4936 35.7261 10.6376 35.2534 10.7392 34.7854L11.1436 32.4731L11.3313 30.5108C11.3961 29.676 11.4447 28.9524 11.4626 28.1074L11.5081 25.8056C11.508 24.1866 11.4793 23.212 11.9466 21.6261L12.3617 20.2646L12.718 18.3557C12.7743 18.0226 12.8167 17.5341 12.8396 17.1834L12.8589 13.5473L12.5591 10.1521L11.8971 6.26365L11.4359 4.34855C11.2654 3.60949 11.7959 3.48344 12.2977 3.33711L15.0541 2.51795C15.274 2.44862 15.4992 2.36395 15.7265 2.3278C15.8748 2.31406 16.0033 2.32981 16.1379 2.39659L16.1717 2.41396C16.3337 2.49633 16.4555 2.62234 16.5521 2.77461C16.657 2.93979 17.9592 3.00982 18.6903 4.41463C19.1029 5.20746 18.9454 6.2066 19.2339 7.03971L19.3866 7.59415C19.6303 8.65212 20.2115 9.68116 20.7796 10.5932L23.7828 15.0675L25.214 13.2893C27.0314 11.014 28.4229 9.13038 28.9513 6.16446C29.298 4.21883 29.286 3.55077 31.4237 2.824C31.6026 2.55762 31.8807 2.29187 32.2292 2.33668L32.2615 2.34118C32.5693 2.37835 32.8775 2.51668 33.1778 2.60055L35.7889 3.30646C36.0602 3.36883 36.3219 3.46275 36.4736 3.71053L36.5142 3.77677C36.6832 4.05851 36.5041 4.52771 36.4385 4.82037L35.7408 8.14943L35.2138 12.3844C35.1949 12.6418 35.1557 12.8911 35.1408 13.1496L35.1146 14.1276C35.1097 14.4683 35.0551 14.809 35.0543 15.1456C35.0538 15.398 35.0965 15.6415 35.1065 15.891L35.1168 16.7289C35.1275 16.9954 35.1611 17.2583 35.1896 17.5228L35.5155 19.7758C35.5733 20.1085 35.7042 20.4384 35.7912 20.766L36.3939 23.2504C36.4328 23.4502 36.4218 23.6464 36.4339 23.8481L36.497 28.0106C36.505 28.14 36.5314 28.2683 36.5366 28.3975L36.7002 30.8794C36.8076 32.1818 37.0011 33.8223 37.3377 35.0981L37.4104 35.424C37.5953 36.5171 37.604 36.9239 37.6055 38.0505ZM15.1279 4.04337L12.9892 4.63951L13.3525 6.1256C13.6935 7.68706 13.9138 9.27312 14.0779 10.8622L14.2642 13.3715C14.2736 13.5441 14.3113 13.715 14.3169 13.8871L14.2575 16.9792C14.1562 18.5994 14.0099 19.7888 13.5584 21.3736C13.2517 22.4501 12.9341 23.3084 12.932 24.446L12.9265 28.7722C12.9226 29.0916 12.8681 29.403 12.8488 29.7211C12.7303 31.6718 12.4933 33.6129 12.057 35.5199C11.854 36.4071 11.564 38.1498 12.0739 38.9535C12.6153 39.8066 15.1273 41.0449 16.216 41.2614C17.203 41.4576 18.4158 41.5063 19.3892 41.1794C20.3539 40.9425 21.2664 40.4134 22.0849 39.8663C24.0249 38.5697 24.1551 37.4522 24.1462 35.3564L24.1458 21.5981C24.1486 21.1717 24.1749 20.6882 24.0764 20.2738L24.021 20.0395C23.8645 19.3631 23.4489 19.009 22.9211 18.6153L20.0394 16.2608C17.0826 13.8051 16.4612 12.8466 15.9282 9.16526L15.1794 4.05903C15.1631 4.05377 15.1447 4.046 15.1279 4.04337ZM32.8564 4.06681C32.6753 4.81291 32.6016 5.60454 32.4956 6.36443L31.9813 9.50993C31.8686 10.2002 31.8281 10.9169 31.6164 11.5876C30.7179 14.4346 28.0513 16.6375 25.3534 17.6826L24.8201 17.8643C24.7128 17.8972 24.5899 17.9218 24.4903 17.9732C24.7852 18.3346 25.0779 18.6642 25.2377 19.1137L25.3373 19.3627C25.4796 19.6938 25.5838 20.1471 25.5983 20.5L25.6064 36.1187C25.6056 37.2666 25.3609 38.0771 24.8646 39.1279C26.0108 39.9202 27.205 40.8614 28.5914 41.1762C30.8096 41.828 32.6658 41.1226 34.5699 40.035C35.7964 39.3344 36.1855 39.0112 36.1854 37.5249C36.1853 36.1577 35.7903 34.8767 35.5549 33.5395C35.3688 32.4817 35.2672 31.387 35.175 30.3168L35.1268 29.3469C35.1109 29.1464 35.0614 28.9547 35.0541 28.752L35.0423 26.2105C35.0411 25.338 35.0822 24.4561 34.9833 23.589C34.8615 22.5215 34.4844 21.4901 34.2027 20.4573C33.921 19.4242 33.8056 18.366 33.7424 17.3004L33.6816 16.4177L33.7346 13.0455C33.844 11.0244 34.0895 9.02468 34.4614 7.0346L34.9804 4.63014L33.4188 4.19566C33.2783 4.15726 32.9951 4.03735 32.8564 4.06681ZM31.2535 4.44181C30.7053 4.70116 30.5914 5.03037 30.5243 5.58166L30.4311 6.17248C29.751 9.61043 28.7262 11.2075 26.6549 13.8332L25.1801 15.6847C25.0056 15.8883 24.7782 16.0856 24.6366 16.3119L24.6912 16.3305C24.8527 16.2967 24.9828 16.2319 25.1329 16.1674L25.8747 15.8168C27.8394 14.7869 29.6036 13.2193 30.2463 11.0199C30.3904 10.5266 30.4326 10.0031 30.5065 9.49634L31.1638 5.26287C31.2044 5.00135 31.2776 4.70927 31.2835 4.4462L31.2535 4.44181ZM16.7072 4.43084C16.7126 4.69348 16.7801 4.95832 16.8287 5.21524L16.923 5.85977C17.0086 6.46385 17.0548 7.08063 17.1659 7.68054L17.4895 9.71843C17.8755 12.7908 19.3579 13.7045 21.4801 15.5421L22.5677 16.44C22.8386 16.665 23.0909 16.9132 23.3958 17.0928L21.0726 13.6659C19.2536 10.9874 18.1479 9.43699 17.5633 6.13704L17.4614 5.50821C17.3909 4.98607 17.21 4.67567 16.7072 4.43084Z" fill="black"/>
<path d="M22.392 26.5984C22.2345 26.612 22.0434 26.6193 21.8886 26.5872L21.8557 26.5799C21.5124 26.5063 21.1653 26.3616 20.9432 26.0757L20.9182 26.0424C20.5587 25.5708 20.5581 25.177 20.5564 24.611L20.5552 22.5854C20.5565 21.6982 20.9842 21.0322 21.9353 20.8913C22.6853 20.7904 23.6257 21.3169 23.7742 22.1008C23.8033 22.2543 23.7888 22.4283 23.7892 22.5842L23.7891 24.6176C23.787 25.6201 23.5426 26.3494 22.392 26.5984ZM22.0394 22.221C21.9428 22.2657 21.7968 22.3081 21.7632 22.4183C21.698 22.6325 21.747 24.5426 21.7645 24.7862C21.788 25.1158 21.8478 25.3269 22.2481 25.2844C22.7019 25.1856 22.5641 24.9363 22.5663 24.4888L22.5705 22.7593C22.5694 22.4016 22.4685 22.1838 22.0394 22.221Z" fill="black"/>
<path d="M22.4586 36.2283C21.5469 36.3861 20.5278 35.878 20.4264 34.8793C20.3861 34.4827 20.4097 34.0623 20.4099 33.6629L20.4112 33.0336C20.4151 32.1786 20.9618 31.6225 21.7852 31.4321C22.6118 31.3729 23.4859 31.6692 23.7444 32.5537L23.7545 32.5895C23.8064 32.766 23.7905 32.9685 23.7907 33.152L23.7883 34.6668C23.7876 34.802 23.7948 34.9516 23.7481 35.08L23.6681 35.32C23.5277 35.6921 23.2313 35.949 22.8712 36.1019L22.8399 36.1149C22.7145 36.168 22.5907 36.1982 22.4586 36.2283ZM22.0639 32.702C21.3771 32.8128 21.5781 33.2943 21.5772 33.8353C21.5763 34.3715 21.3965 34.9316 22.0836 35.0367C22.8227 34.9543 22.5743 34.3287 22.5736 33.6731C22.5731 33.197 22.7098 32.7492 22.0639 32.702Z" fill="black"/>
</svg>
