<svg width="48" height="48" viewBox="0 0 48 48" fill="none" xmlns="http://www.w3.org/2000/svg">
<path d="M24.2681 42.2401L24.0148 42.0878C23.502 42.3824 22.9387 42.6631 22.3662 42.8203C20.5712 43.3132 19.3754 42.8324 17.6065 42.4897L14.6662 42.0119C14.0399 41.9233 13.3929 41.8189 12.7632 41.7743C11.9587 41.7174 11.1518 41.8439 10.4884 41.2668C10.1301 40.955 9.79427 40.4562 9.76689 39.9682L9.76474 39.9259C9.72297 39.3465 9.85689 38.7272 9.92974 38.1513L10.8895 28.7515L10.894 26.178C10.8408 24.9473 10.5645 23.6626 10.2369 22.4827C10.1047 22.0063 9.889 21.5359 9.81288 21.047C9.67764 20.1788 10.4415 20.1359 10.9129 19.883C13.139 18.6888 14.1335 16.1001 14.2229 13.6876C14.276 12.2536 14.0095 10.791 13.6882 9.39857L13.2808 7.73564C12.9948 6.65751 13.3584 6.54037 14.3749 6.29634L19.3657 5.06826C19.4866 5.0406 19.641 5.00385 19.7632 5.02935L19.7931 5.03615C19.9481 5.06728 20.0343 5.10107 20.1503 5.21174L23.4858 4.86154C24.0351 4.84242 24.6044 4.84073 25.1514 4.89871L27.2498 5.18184C28.1832 5.29335 27.7232 5.13023 28.2702 5.02448C28.5767 4.96523 28.9669 5.15306 29.2601 5.22862L34.1545 6.41653C34.4208 6.49153 34.732 6.64771 34.781 6.95306L34.7892 7.00748C34.8388 7.21003 34.8011 7.42124 34.7478 7.62239C34.1144 10.011 33.3058 13.5324 34.1398 15.9812L34.5325 17.0382C35.1354 18.2887 35.974 19.4332 37.3202 19.9551C37.5759 20.0542 37.7891 20.098 37.9562 20.3399L38.0928 20.5491C38.2413 20.8166 38.1623 21.1444 38.0859 21.4179C37.6409 23.012 37.1654 24.5917 37.1178 26.2585L37.0987 27.0514C37.0971 27.5601 37.0743 28.0814 37.1021 28.5889L37.3128 31.1134L38.1698 38.9779C38.254 39.5947 38.3225 40.1661 37.99 40.7197L37.9667 40.7579C37.6971 41.2124 37.3053 41.4694 36.8167 41.6437L36.6494 41.7021C36.4023 41.7695 36.0956 41.7301 35.8388 41.7463C35.4748 41.7691 35.0884 41.8418 34.7331 41.9218L31.8448 42.6212C29.5128 43.1257 26.4249 43.4569 24.2681 42.2401ZM23.5395 6.2631L20.542 6.60923C20.5647 6.72239 20.6257 6.85471 20.6745 6.96107L22.4162 11.6488C22.4464 11.7442 22.4925 11.8332 22.5233 11.9298L24.0441 15.9835L24.165 15.6497L27.4635 6.61532C26.7005 6.46223 25.8186 6.47048 25.1123 6.31096C24.6297 6.20198 24.0353 6.25973 23.5395 6.2631ZM28.947 6.57726L24.7722 18.1524C24.591 18.7354 24.9654 18.2989 25.1655 18.0719C26.0019 17.1457 26.3804 16.0777 26.7943 14.9177L29.7849 6.81534L28.947 6.57726ZM18.9886 6.62123C18.7582 6.69632 18.5063 6.78492 18.2642 6.80873C18.2748 6.90431 18.2942 6.97767 18.3299 7.06654L20.755 13.6042C20.8993 13.9369 20.9749 14.3071 21.1309 14.6341L21.4781 15.5896C21.5289 15.778 21.6095 15.9923 21.6916 16.167L22.0078 16.9084C22.1859 17.3752 22.5627 17.7315 22.8874 18.0938C23.0129 18.2177 23.1161 18.333 23.2697 18.4225C23.2146 17.8797 23.0193 17.3264 22.8458 16.8117L19.2541 7.08548C19.2102 6.95714 19.158 6.57398 18.9886 6.62123ZM31.1539 7.11721L27.5908 16.7169C27.0723 18.0092 26.3515 19.2306 25.015 19.8292C24.9182 19.8726 24.817 19.8827 24.728 19.9446L24.7284 35.5717C24.7284 35.7269 24.6843 35.885 24.7945 36.0119L24.8448 36.0577C25.1093 36.2816 25.3306 36.5479 25.6056 36.7654C26.5626 37.5217 27.7938 37.9161 28.9923 38.0516L29.0355 38.0567C31.6691 38.3558 35.1155 36.9652 36.0967 34.3126C36.2209 33.977 36.2128 33.7971 36.171 33.4423L36.09 32.324C35.1476 33.0985 34.4918 33.1542 33.3426 33.4649C32.649 33.6525 31.8776 33.9731 31.1451 33.8984C29.5977 33.7406 28.524 32.6347 28.1381 31.1722C27.7529 29.7123 28.9656 29.8075 30.0907 29.5007L35.3324 28.0766C35.4564 28.0505 35.6022 28.0452 35.7191 27.9982L35.7328 25.9536C35.8087 24.6092 36.2397 22.4049 36.7167 21.2284L36.6953 21.222C35.4893 20.8464 34.1569 19.2689 33.5756 18.2195C32.3909 16.0811 32.178 13.5023 32.575 11.1228L33.3005 7.66064C33.2205 7.60748 33.0681 7.58507 32.9711 7.55873L31.734 7.25404C31.5436 7.20937 31.3375 7.18424 31.1539 7.11721ZM16.8332 7.16029L14.6873 7.64456L14.8214 8.17176C14.8802 8.4787 14.9774 8.78807 15.0478 9.09389L15.4338 11.1099C16.0086 14.8062 15.085 19.6212 11.2909 21.2385L11.6804 22.5126C12.0834 24.0354 12.2925 25.5897 12.2942 27.1646C12.2949 27.8168 12.1068 27.9281 12.6056 28.0703L19.0501 29.8071C19.4406 29.9057 19.7378 29.9605 19.9025 30.3725L19.9118 30.3948C20.0013 30.618 19.9453 30.8348 19.892 31.0563C19.4418 32.9272 17.8376 34.2888 15.8941 33.7954L14.5683 33.4295C13.3698 33.1222 12.9373 33.0949 11.9401 32.3498C11.8668 32.693 11.8705 33.0442 11.8223 33.3914C11.7989 33.615 11.7503 33.8849 11.8035 34.1054L11.8089 34.1302C11.8597 34.3492 11.998 34.5813 12.1101 34.7751C14.0086 38.0579 19.6785 39.1394 22.5882 36.6161C22.7998 36.4326 23.1228 36.1621 23.2661 35.9206L23.2602 20.1123C23.261 20.0495 23.2754 19.9763 23.2458 19.9208L23.2189 19.9116C22.1274 19.5266 21.195 18.4467 20.717 17.4376L16.8332 7.16029ZM12.2388 29.3762C12.211 30.8086 12.7795 31.5874 14.1619 31.9137L15.891 32.3798C16.6156 32.5913 17.2745 32.5949 17.8583 32.0167L17.8795 31.9953C18.0605 31.7867 18.3957 31.3673 18.406 31.0694L12.2388 29.3762ZM35.6891 29.4494L30.3869 30.8457C30.1206 30.9163 29.8376 31.0126 29.5644 31.0508C29.6657 31.4366 29.8932 31.7492 30.1522 32.0436C30.3067 32.1705 30.4503 32.2787 30.633 32.3645L30.6717 32.3831C31.3743 32.7108 32.0496 32.3627 32.7432 32.1872L33.8515 31.9068C35.2933 31.5274 35.7234 30.8643 35.7648 29.4494H35.6891ZM11.5386 36.4139L11.1377 39.6996C11.1226 39.9366 11.3054 40.3169 11.5783 40.3322L12.422 40.3579C13.2595 40.4209 14.0769 40.5644 14.9064 40.6814L17.0598 41.004L20.099 41.6098C20.4654 41.6902 20.957 41.6642 21.3283 41.6326L21.3671 41.6297C22.0203 41.5735 22.7259 41.2139 23.2783 40.8923L23.2572 40.5717L23.233 37.9004C23.1611 37.9809 23.0166 38.052 22.9266 38.1194C20.4032 40.0073 16.523 39.5816 13.8603 38.2444C13.338 37.9821 12.8085 37.6743 12.3832 37.2677L11.7798 36.6591C11.7018 36.576 11.608 36.504 11.5386 36.4139ZM36.4506 36.4245C36.1985 36.7014 35.9545 37.0065 35.6795 37.2595C33.1101 39.6223 28.9267 40.2175 25.8347 38.559C25.4466 38.3509 25.1156 38.0877 24.7476 37.8534C24.6876 38.1067 24.7281 38.4412 24.7282 38.7038L24.7291 40.5218L24.7227 40.9115C26.3475 41.7657 27.9712 41.773 29.7423 41.516L31.5002 41.2331C32.8211 40.9748 34.3178 40.4219 35.6369 40.3375C36.583 40.277 37.0008 40.5188 36.7962 39.15L36.4506 36.4245Z" fill="black"/>
</svg>
