<svg width="48" height="48" viewBox="0 0 48 48" fill="none" xmlns="http://www.w3.org/2000/svg">
<path d="M37.1073 41.8606C35.2244 42.5598 33.3123 42.9645 31.3124 43.1269L27.3631 43.3169C27.2104 43.3235 27.0593 43.3491 26.9061 43.3531L20.2401 43.358L18.0195 43.2256C15.0104 42.9934 12.5566 42.5039 9.77329 41.2689L8.80691 40.8167C7.39152 40.1722 7.84705 40.1096 7.98023 39.0142C8.04027 38.5204 8.00596 37.9933 8.00929 37.4957C8.01585 36.5089 7.98848 36.4767 7.60462 35.5833C6.35629 32.6779 6.10766 29.5888 6.88523 26.5278C7.07399 25.7848 7.38477 25.052 7.50234 24.2921C7.6604 23.2708 7.4376 21.8536 7.03893 20.9303C6.5653 19.8336 6.69285 19.9801 7.42954 19.3107C8.55037 18.2921 9.1191 17.0031 9.58284 15.5806C10.3442 13.2451 10.6266 10.8165 10.2085 8.37575C10.0006 7.16188 9.73766 6.88785 10.9994 6.40757C11.5603 6.19405 12.1552 6.06308 12.7264 5.87938L14.4994 5.33432C15.514 5.02227 16.3243 4.7713 17.3824 4.65035L17.3837 4.64915C17.4808 4.64286 17.5792 4.63274 17.6747 4.65615L17.7069 4.66471C18.0335 4.74951 18.2 4.98036 18.294 5.3009C19.0939 8.02869 21.7444 11.093 23.9911 12.6681C24.3358 12.4485 24.6463 12.1687 24.9573 11.9045C26.9802 10.1856 28.6085 8.06497 29.6131 5.60526C29.7591 5.24783 29.8037 4.84082 30.2255 4.69115L30.2917 4.66857C30.4866 4.60503 30.6961 4.65216 30.8937 4.67627L31.544 4.76497C33.6674 5.10852 35.4547 5.56626 37.4041 6.58326C38.272 7.03602 37.9206 7.6259 37.7997 8.40904C37.6521 9.36505 37.6465 10.3707 37.7371 11.3341L38.0209 13.5335C38.1257 14.28 38.2199 15.0523 38.4514 15.7717L38.6932 16.5238C39.0114 17.5059 39.705 18.5046 40.4444 19.2141C40.6499 19.4113 41.017 19.5896 41.1417 19.8405L41.1576 19.8753C41.4044 20.3224 41.0034 20.7817 40.8587 21.1866C40.492 22.213 40.2694 23.726 40.5947 24.8089L41.3011 27.3527C41.8089 29.8875 41.6033 32.3428 40.728 34.7808C40.5198 35.3607 40.0951 36.0119 40.0056 36.6171C39.9131 37.2434 39.9307 38.375 40.0318 39.0238C40.1906 40.0431 40.3824 40.2607 39.4305 40.8103C38.6903 41.2377 37.9046 41.5568 37.1073 41.8606ZM16.9471 6.12922C16.086 6.26961 15.259 6.58363 14.4256 6.83263L12.3743 7.45602C12.0878 7.54283 11.7915 7.60696 11.5094 7.70563L11.6548 8.50274C11.7203 8.78638 11.7092 9.09763 11.7374 9.38704C11.8847 10.8957 11.7663 12.8896 11.389 14.3675L10.7928 16.3491C10.4025 17.5116 9.8841 18.7161 9.06051 19.6468L8.57465 20.1666C8.19515 20.5496 8.36221 20.3628 8.54301 20.9732L8.75723 21.7297C8.8918 22.2446 8.87446 22.7571 8.96469 23.2735C9.01434 23.2766 9.01719 23.276 9.05844 23.2548C9.29263 23.2064 9.57159 23.0259 9.78346 22.9105C12.1971 21.5953 13.7477 19.3198 14.3769 16.6761L14.5225 16.0311C14.6704 15.2282 14.7359 15.0194 15.6619 15.0181L16.6938 15.0174C16.8845 15.0173 17.0896 15.0322 17.2781 15.0085L16.9372 13.8576C16.7721 13.2433 16.6453 12.6157 16.5362 11.9891C16.3099 10.6902 16.204 8.88519 16.5278 7.63972L16.9348 6.3636C16.9601 6.29165 17.0064 6.20127 17.0011 6.12576L16.9471 6.12922ZM31.0267 6.11029L31.3275 7.04329C31.9305 9.1273 31.6582 11.4142 31.16 13.4906C31.0371 14.0029 30.8442 14.503 30.7326 15.0156L32.2401 15.0186C32.6786 15.0193 33.1397 14.933 33.3757 15.4105L33.3878 15.4331C33.4494 15.5518 33.4664 15.6928 33.4771 15.8242C33.5242 16.4018 33.6906 16.9714 33.8549 17.5242L34.113 18.253C34.675 20.0608 36.6358 22.1119 38.2733 22.9457L38.9413 23.2568L39.0098 23.2612C39.0358 23.1695 39.0284 23.0629 39.0335 22.9678C39.0791 22.1192 39.2917 21.1685 39.6701 20.4129C37.5341 18.3258 37.0003 16.27 36.5861 13.4652L36.3985 12.1058C36.2481 10.7577 36.1906 9.02525 36.4952 7.72536C35.5718 7.18279 34.0507 6.69768 33.0203 6.4626L31.0267 6.11029ZM30.1094 7.82872L29.4911 8.87774C28.3747 10.5799 27.0239 12.0593 25.4316 13.3245L24.703 13.8778C24.3421 14.1284 24.0035 14.3481 23.5817 14.0796C21.355 12.6628 19.0852 10.1386 17.9036 7.83219L17.7412 8.84882C17.5565 10.0084 17.943 12.1949 18.2355 13.3011C18.3229 13.6313 18.3781 14.0028 18.5069 14.3199L18.6669 14.7948C19.8867 17.8796 21.225 19.9173 24.0001 21.9151C24.5161 21.5743 25.0057 21.1441 25.4617 20.7259C28.3394 18.0865 29.8775 14.4377 30.2147 10.568C30.3106 9.46682 30.2487 8.90136 30.1094 7.82872ZM17.0678 16.4642L15.8351 16.4738C15.0853 20.1287 13.0118 23.2176 9.41544 24.6234C9.29943 24.6687 9.1836 24.7084 9.05952 24.725C8.93535 24.7416 8.87873 24.6891 8.84104 24.8153L8.28712 26.7351C7.67751 28.9646 7.5682 31.5939 8.39301 33.7972L8.80251 34.8555C8.99104 35.3946 9.0764 35.6051 9.54426 35.8826L10.6874 36.4927C12.9529 37.5748 15.406 38.1673 17.8944 38.4265L19.242 38.5403C19.8966 38.5795 21.0542 38.3756 20.9129 39.4222L20.9101 39.4496C20.8347 40.1198 19.9746 39.962 19.5536 39.9413C18.4383 39.8868 17.3246 39.8084 16.2193 39.6401L12.7288 38.8145C11.6064 38.4208 10.4197 38.0175 9.40152 37.396C9.43138 38.0955 9.42604 38.7632 9.27477 39.4511C9.72079 39.7559 10.2651 39.944 10.7582 40.1605C12.46 40.9075 14.2562 41.3661 16.0949 41.6203L20.4506 41.9693L23.2961 41.9744C23.2462 41.3318 23.272 40.6777 23.2717 40.033L23.2723 23.3213C23.2721 22.9927 22.8731 22.8273 22.567 22.5956C20.5753 21.088 18.9505 19.0079 17.9367 16.7234C17.8437 16.5137 17.8963 16.4571 17.6747 16.4569L17.0678 16.4642ZM30.155 16.4585C29.1826 18.9963 27.228 21.1983 25.1186 22.8545C24.9062 23.0213 24.7264 22.9765 24.7264 23.2678L24.7156 41.668C24.7103 41.7598 24.6923 41.8751 24.7142 41.9634C25.0611 41.9916 25.4179 41.9745 25.7661 41.9728L28.8008 41.8484C30.1521 41.7739 32.3809 41.7375 33.6769 41.3788L36.4014 40.6237C37.2074 40.3478 37.9746 39.9681 38.7502 39.6186C38.6206 38.8702 38.5529 38.1949 38.5764 37.4361L38.5587 37.4509C37.8555 38.0271 35.596 38.9393 34.752 39.1982C32.746 39.7842 30.6913 39.9999 28.6067 40.0331C28.253 40.0387 27.7584 40.1308 27.4417 39.9578C27.0999 39.7712 26.9483 39.301 27.1695 38.9652C27.5192 38.4344 28.7396 38.6525 29.3788 38.6034L31.5098 38.4213C33.5486 38.1536 35.4314 37.6393 37.2239 36.6095C38.5576 35.8433 38.8765 35.729 39.4359 34.2176C40.4001 31.6125 40.3969 29.0054 39.6059 26.351C39.4502 25.8285 39.2738 25.319 39.1614 24.7843C38.8811 24.6894 38.5957 24.6432 38.3176 24.5272C35.409 23.314 33.1773 20.5453 32.3891 17.5081L32.1666 16.4591L30.155 16.4585Z" fill="black"/>
</svg>
