<svg width="48" height="48" viewBox="0 0 48 48" fill="none" xmlns="http://www.w3.org/2000/svg">
<path d="M27.1222 46.2897C26.0764 46.0805 24.8703 45.5242 24.1705 44.725L23.2264 45.3706C22.3341 45.9622 21.3831 46.2676 20.3403 46.4346L20.2472 46.449C19.8398 46.512 19.1853 46.5221 18.7751 46.4538L16.3126 45.9921C15.2543 45.7064 14.2156 45.3156 13.1773 44.964L12.3091 44.6688C11.9557 44.5533 11.5217 44.4673 11.3256 44.1146L11.3084 44.0828C11.1011 43.7065 11.1905 43.3751 11.2786 42.9788L11.7055 40.0279C11.8026 38.9262 11.6015 37.8039 11.8173 36.7185C11.9067 36.2693 12.0375 35.8139 12.0857 35.3587L12.2678 32.9196L12.2768 27.7176C12.273 27.1008 12.2051 26.4943 12.202 25.8797L11.9956 22.3802L11.8019 20.9392C11.6428 20.0033 11.1675 18.901 12.2203 18.2831C12.3607 18.2007 12.5215 18.1398 12.6508 18.0412C13.5148 17.382 13.6729 16.0148 13.8246 15.0238C14.2178 12.455 14.186 9.35958 13.231 6.93769C12.792 5.82436 12.4949 5.379 13.776 4.94981L18.1139 3.51499C18.6702 3.32384 18.6067 3.25844 18.8374 2.7391C19.1447 2.04746 19.729 1.61604 20.4933 1.53273C20.9693 1.49578 21.4569 1.68164 21.9188 1.77267C23.1515 2.01558 24.4219 1.98469 25.6675 1.86657L27.2566 1.63242C27.6326 1.55818 28.0398 1.4526 28.4209 1.55548L28.6994 1.63245C29.316 1.85686 29.7625 2.36123 29.9552 2.979C30.1229 3.5163 30.235 3.40567 30.7731 3.60213L35.2217 5.13952C35.464 5.2252 35.6266 5.34581 35.731 5.58923L35.7445 5.62491C35.8467 5.868 35.8556 6.1267 35.7712 6.37795L35.3516 7.65956C35.0672 8.67591 34.9966 9.36727 34.9261 10.3799L34.8667 12.4559C34.871 13.9321 34.9255 17.1063 36.2674 18.0114C36.489 18.1609 36.7429 18.2506 36.974 18.3821C37.7786 18.8398 37.7826 19.5597 37.6177 20.3474L37.1875 24.0838L37.1687 24.9366C37.1601 25.1158 37.1261 25.2924 37.1209 25.4712L37.111 27.598C37.1074 27.794 37.0606 27.9847 37.0564 28.1798L37.0554 32.3133C37.0587 32.5386 37.1021 32.7602 37.1055 32.9826L37.1145 34.2092C37.1187 34.7671 37.1827 35.8884 37.3307 36.4258C37.493 37.015 37.393 37.7073 37.3818 38.3119C37.3647 39.2351 37.3805 40.1282 37.4628 41.0452L37.6873 42.8675C37.7434 43.1714 37.8415 43.5318 37.789 43.8428L37.7828 43.8753C37.6938 44.3686 37.3144 44.4345 36.9142 44.5424L31.432 46.1755C30.5081 46.3985 28.9113 46.6141 27.9437 46.4351L27.1222 46.2897ZM20.5191 3.1058C20.1925 3.23128 20.2861 4.32844 19.0428 4.78767L19.009 4.80502C19.0414 5.02092 19.1489 5.21259 19.2094 5.42184L23.0492 15.6362L24.2368 18.6331C24.3075 18.7966 24.3788 18.9472 24.4689 19.1008L25.6413 15.9107L29.629 5.34408C29.6797 5.20973 29.7976 4.97916 29.7963 4.83811C28.4054 4.26953 28.419 3.19124 28.198 3.10378C28.0595 3.04898 26.8344 3.31246 26.578 3.35201C24.9989 3.59556 23.3762 3.59365 21.7975 3.34713C21.3703 3.28042 20.9467 3.1575 20.5191 3.1058ZM17.5095 5.3558L14.648 6.28542L15.1295 7.77117L15.4097 9.06455C15.5619 9.70359 15.5762 10.7778 15.5817 11.428C15.6006 13.6771 15.5875 18.1744 13.3042 19.4533C13.0673 19.586 13.0809 19.524 13.1422 19.7935L13.1601 19.8538C13.2939 20.2695 13.3536 20.7371 13.4019 21.1715L13.6074 23.3795C13.6232 23.5577 13.6559 23.7308 13.6655 23.9102L13.694 25.262C13.7012 25.4609 13.7376 25.6561 13.7485 25.8546L13.7557 34.1248C14.1154 34.2318 14.4876 34.296 14.8517 34.3872L17.1326 34.9692C17.396 35.034 17.7613 35.0637 18.0016 35.1821C18.722 35.5372 18.4041 36.8445 17.5335 36.6917L13.603 35.7325L13.344 37.1081C13.5545 37.2664 13.8274 37.3605 14.0623 37.4792L15.2961 38.1316L20.196 40.6174L23.5111 37.0198C22.9044 36.1143 22.7901 35.562 22.7902 34.5243L22.7944 23.6485C22.795 22.7364 23.0669 21.9674 23.5439 21.1825L20.7214 13.8642L17.703 5.79309C17.6537 5.65261 17.6136 5.49998 17.5424 5.3692L17.5095 5.3558ZM31.2665 5.39611L25.16 21.4109C24.7606 22.4002 24.3293 22.7268 24.3267 23.8457L24.3272 25.6274C24.3283 26.0531 24.2489 26.1051 24.671 25.938C25.8882 25.4562 26.5136 27.3403 25.1834 27.5658L25.1494 27.5718C24.9025 27.6116 24.5331 27.4793 24.3332 27.3338L24.3326 29.7989L24.6519 29.691C25.082 29.5191 25.697 29.7495 25.8619 30.1944L25.9157 30.3819C26.0154 30.7903 25.6105 31.2402 25.2303 31.3172L25.1993 31.3237C24.9839 31.3648 24.5559 31.2919 24.3647 31.1593L24.3317 33.5298C24.9008 33.3428 25.6045 33.2168 25.8693 33.9261L25.912 34.0996C26.0549 34.7586 25.2411 35.2327 24.5948 34.9822C24.5225 34.9542 24.4366 34.9029 24.3585 34.9057C24.1677 35.6659 25.5094 37.1129 25.9585 37.6642L28.4201 40.6789L29.8762 39.9465L35.8758 37.0037C35.8894 36.8085 35.7738 36.5379 35.7422 36.3402L35.6632 35.6205L31.9535 36.5199C31.3969 36.6609 30.7508 36.7755 30.5912 35.9653C30.415 35.0715 31.6393 34.9763 32.1912 34.8485C32.5163 34.7731 35.5196 34.0294 35.5365 34.0037C35.5433 33.9934 35.524 31.6265 35.5237 31.3833L35.5346 26.1952C35.5439 25.9363 35.5974 25.6793 35.6146 25.4203L35.6418 24.121C35.6554 23.8704 35.7108 23.6243 35.7278 23.373C35.7929 22.4075 35.8904 20.704 36.1915 19.7812C35.8955 19.6055 35.5976 19.4736 35.3163 19.2656C33.7634 18.1172 33.3945 15.2598 33.3157 13.3714L33.3087 12.0341C33.308 10.5758 33.3949 9.09956 33.7489 7.67906L34.1155 6.38705L31.2665 5.39611ZM24.4373 38.2874L21.6764 41.2927C21.3434 41.6456 20.978 42.2707 20.4725 42.38L20.4341 42.3887C19.9992 42.485 19.7021 42.2393 19.3365 42.0397L13.9606 39.2917C13.726 39.1657 13.4989 39.0262 13.2572 38.9142C13.2222 39.4884 13.2757 40.0791 13.2018 40.6495L12.8119 43.2166C13.4105 43.3575 14.0031 43.594 14.5858 43.7924C17.3857 44.7456 20.607 45.8174 23.1147 43.5233C23.606 43.0738 23.8656 42.5824 24.6177 42.9547L24.6388 42.9712C24.8791 43.1633 25.0387 43.4339 25.2639 43.6436C25.9139 44.2492 26.6801 44.5875 27.5406 44.7815L27.9937 44.8607C29.6959 45.2447 32.7833 44.1771 34.4016 43.6681C34.9838 43.485 35.6246 43.3457 36.1818 43.0994C36.0763 42.677 36.0371 42.2437 35.9886 41.8122L35.8414 40.124L35.8081 38.8405C35.7394 38.8978 35.6386 38.92 35.5576 38.9577L29.0562 42.1421C28.8639 42.2423 28.6615 42.3631 28.453 42.423L28.4238 42.4315C27.7983 42.6002 27.3986 41.8873 27.0712 41.4847L24.4373 38.2874Z" fill="black"/>
</svg>
