<svg width="48" height="48" viewBox="0 0 48 48" fill="none" xmlns="http://www.w3.org/2000/svg">
<path d="M20.619 43.4522L17.0014 43.1768C16.2593 43.1014 15.3739 43.0716 14.6083 43.0325C13.7602 42.9892 12.8944 43.0348 12.0521 42.9081C10.4496 42.6672 9.29862 41.4053 9.29248 39.7975L9.29637 36.3871C9.31465 35.9792 9.39889 35.5623 9.45171 35.1566L9.6544 33.2816L10.1582 26.4474L10.4366 21.5314L10.5162 19.9697C10.5183 19.6618 10.4706 19.4504 10.673 19.2043C12.006 17.5832 12.5937 15.5541 12.5878 13.4839L12.5763 12.4573C12.5425 11.9047 12.4539 11.3408 12.3445 10.7984L12.1751 10.0341C11.9618 9.15792 11.8497 8.65327 12.9301 8.44486L13.4999 8.31689C14.363 8.09808 15.2361 7.88714 16.0781 7.59797C17.6222 7.06758 18.3478 6.678 18.8352 5.11786C18.9663 4.69805 19.3399 4.40245 19.7894 4.55611C20.6575 4.85288 21.5006 5.04385 22.4062 5.1811C23.5504 5.35449 24.7451 5.30175 25.8889 5.15944C26.6993 5.05861 27.4818 4.79142 28.2416 4.50379C28.3778 4.49309 28.5533 4.48271 28.6803 4.53541L28.7109 4.54909C29.0445 4.692 29.1376 5.05655 29.2509 5.36756C29.9683 7.33706 32.413 7.81533 34.2401 8.23514L34.7011 8.3476C35.1222 8.43328 35.7426 8.49239 35.8939 8.9806L35.9066 9.02381C35.9504 9.15113 35.9764 9.27877 35.9442 9.41442C35.2823 12.212 35.0911 14.4624 36.0915 17.1801L36.2782 17.6019C36.4542 17.9769 36.668 18.3473 36.9166 18.6788C37.4227 19.3538 37.4712 19.2137 37.4724 20.0838L37.496 20.9832C37.5033 21.1364 37.5428 21.2794 37.5513 21.4282L37.5882 22.6336C37.5972 22.8212 37.6355 23.0005 37.6497 23.1852L37.8725 27.6449C37.8803 27.792 37.9088 27.9338 37.9208 28.0795L38.5421 35.1819C38.6082 35.7492 38.6925 36.3089 38.7074 36.8807L38.7123 38.9998C38.7128 39.4343 38.765 39.9521 38.6801 40.3761C38.4205 41.6719 37.4128 42.6094 36.1433 42.9027C35.6211 43.0233 35.0712 42.9893 34.5395 43.0108L27.3281 43.4594C26.6088 43.4739 25.9411 43.2991 25.3333 42.9094C25.0877 42.7518 24.11 41.8741 23.9759 41.8608C23.9307 41.8564 23.6018 42.1386 23.5463 42.1838C22.4687 43.0616 21.998 43.4144 20.619 43.4522ZM20.6479 6.38672L23.486 11.4848C23.6314 11.7536 23.7771 12.0728 23.9685 12.3089L25.3145 9.97927C25.4922 9.66005 27.2961 6.49706 27.2881 6.40917C26.6531 6.53171 26.0389 6.67716 25.3903 6.72324C24.0462 6.81881 21.8968 6.74353 20.6479 6.38672ZM28.6293 7.09022C28.5059 7.38399 28.3032 7.66688 28.1458 7.94583L25.6571 12.3565C25.3504 12.9038 25.0651 13.5264 24.6815 14.0238C24.6012 14.128 24.6562 14.2202 24.7055 14.3324L24.7592 14.4882C24.7817 14.5655 24.8192 14.6394 24.8523 14.7128L25.0911 14.5439C27.1739 12.9276 28.8694 10.8044 29.2409 8.12006L29.2686 7.73541C29.0653 7.55855 28.7855 7.3455 28.6665 7.10161L28.6293 7.09022ZM19.3269 7.14L18.6411 7.71338C18.973 10.5158 20.611 12.8086 22.8175 14.465C22.9185 14.5435 23.0108 14.6123 23.1276 14.6664C23.213 14.4036 23.3658 14.2662 23.229 14.0031C23.1088 13.7718 22.9444 13.5555 22.818 13.3263L19.5697 7.46944C19.505 7.36369 19.4268 7.21753 19.3269 7.14ZM17.2982 8.73085L17.2809 8.74027C16.9872 8.89594 16.6305 9.00071 16.3124 9.09797L13.6415 9.81577L13.9688 11.8246C14.27 14.3301 13.9046 17.067 12.5 19.2127C12.3786 19.3982 11.9472 19.8783 11.9399 20.0145L11.8591 22.6996C11.8482 22.8521 11.8196 23.0027 11.8118 23.1566L11.6799 26.1648C11.6713 26.3129 11.6362 26.4576 11.6268 26.6057L11.132 33.1791C11.1205 33.3712 11.0814 33.5551 11.0642 33.7448L10.8249 36.0207C10.7396 36.8939 10.7571 37.0933 11.3687 37.8568C12.2509 38.958 14.5654 39.5382 15.8906 39.4626C16.93 39.4033 17.9161 39.1114 18.8629 38.6888L19.2444 38.5061C20.291 37.9846 21.3433 37.4332 22.3327 36.8091C23.1551 36.2904 23.0067 36.5597 22.5741 36.0094C21.7991 35.0232 21.8475 33.2466 22.7978 32.3807L22.9403 32.2596C22.6143 31.9388 22.3469 31.6367 22.1915 31.1957L22.1805 31.165C21.9299 30.4521 21.9847 29.6413 22.3129 28.9629L22.7864 28.2653C21.8807 27.2036 21.7557 25.824 22.5842 24.6412C22.6455 24.5536 22.7491 24.4739 22.7953 24.3808C21.6955 23.214 21.8644 21.6656 22.7953 20.4663L22.7628 20.4391C21.7221 19.5395 21.8699 17.7038 22.7454 16.7545L23.0272 16.4774L21.9349 15.6759C19.7684 13.956 17.9667 11.8216 17.4112 9.0241C17.3921 8.928 17.4097 8.74102 17.2982 8.73085ZM30.6506 8.73085C29.9569 11.235 29.0679 13.1592 26.9974 14.9194L25.7506 15.9099C25.5088 16.0902 25.2268 16.2613 25.0092 16.4663C25.3168 16.8038 25.6294 17.1867 25.7712 17.6284L25.8021 17.7083C26.1649 18.5764 25.8525 19.7718 25.1678 20.412C25.863 21.4315 26.2567 22.2818 25.732 23.5672C25.6078 23.8713 25.3953 24.1088 25.2135 24.3768C25.7293 25.0576 26.1148 25.9931 25.9101 26.8632L25.9017 26.8999C25.7997 27.3326 25.5258 27.9468 25.1675 28.2262C26.2575 29.2903 26.2116 31.2689 24.9637 32.1796L24.9867 32.196C25.4097 32.5038 25.7929 33.1418 25.8725 33.6601L25.9051 33.8425C26.174 34.9423 25.6274 35.6089 25.0347 36.3689C25.5056 36.7414 26.0233 37.0379 26.5429 37.3358L28.7429 38.512C30.1448 39.1231 31.2104 39.4717 32.7531 39.4724C34.5806 39.4732 36.3745 39.0018 37.1744 37.1439C37.3171 36.8126 37.2143 36.5161 37.1684 36.1697L36.6949 31.4066C36.631 30.6218 36.6197 29.8177 36.5063 29.0394C36.4361 28.5573 36.5391 28.0343 36.4266 27.5569C36.3663 27.301 36.3963 26.993 36.3829 26.7269L36.2899 24.9827C36.2792 24.6778 36.232 24.3848 36.2115 24.0824L36.0285 21.2058C36.0022 20.7784 36.059 20.3338 36.0174 19.9107C36.0056 19.7904 35.7165 19.5404 35.6294 19.4183C34.2724 17.5155 33.7613 14.5826 33.9473 12.3082C34.0165 11.4621 34.183 10.6162 34.3455 9.7838L30.9726 8.8478C30.8993 8.8207 30.7218 8.72611 30.6506 8.73085ZM24.0125 17.6137C23.6382 17.8927 23.4087 18.3276 23.4869 18.7973L23.5224 19.0043C23.5542 19.1614 23.7306 19.435 23.8651 19.5161L23.9442 19.559C24.4838 19.559 24.759 17.9881 24.0786 17.6406L24.0125 17.6137ZM24.0163 21.4341C23.6365 21.7295 23.361 22.2425 23.4796 22.7312L23.4972 22.8342C23.5296 23.0478 23.7247 23.4729 23.9882 23.4653C24.6671 23.1923 24.6912 21.8899 24.1171 21.4911L24.0163 21.4341ZM24.041 25.3292C23.9258 25.3973 23.8396 25.4552 23.7538 25.5612L23.7268 25.5943C23.4851 25.8988 23.4482 26.2625 23.4976 26.6371L23.5269 26.8014C23.5646 26.982 23.7724 27.3145 23.9882 27.3038C24.7053 27.0293 24.638 25.6837 24.041 25.3292ZM23.9859 29.1918C23.3183 29.6471 23.3309 30.9766 23.929 31.1619L23.9882 31.1475C24.6143 30.7915 24.7167 29.4789 24.0364 29.1739L23.9859 29.1918ZM23.9998 33.3186C23.1257 34.0081 23.5418 35.3614 23.9787 35.2855C24.7194 34.9527 24.5931 33.7308 23.9998 33.3186ZM24.0381 37.4787L20.8365 39.3744C19.9895 39.8225 19.0946 40.2712 18.1795 40.5608C16.1099 41.2157 13.5581 41.1053 11.6787 39.9358C11.372 39.745 11.0866 39.521 10.766 39.3558C10.6756 40.2603 11.0343 41.1146 11.9882 41.3633L12.0278 41.3744C12.5081 41.4992 13.0427 41.447 13.5354 41.4601C13.8535 41.4686 14.1693 41.521 14.4871 41.5365L17.172 41.6512C17.3355 41.6592 17.4929 41.6949 17.6554 41.7097L19.4497 41.8478C20.6668 41.9713 21.1105 42.1733 22.1176 41.4284L23.0954 40.6535C23.3674 40.4254 23.5421 40.2156 23.9103 40.1642L23.9399 40.1669C24.3319 40.2053 24.4515 40.3635 24.7475 40.5936L25.2362 40.9504C26.1969 41.7113 26.3351 41.9771 27.6355 41.9268L32.0617 41.6094C32.2266 41.5988 32.3855 41.5643 32.5509 41.5552L33.7526 41.5347C34.0639 41.5223 34.3721 41.4683 34.6843 41.4584C35.0644 41.4463 35.4658 41.483 35.8415 41.4291C36.7976 41.2918 37.3061 40.3687 37.2583 39.475C35.6536 40.8702 33.9331 41.0828 31.9097 40.9392L31.6534 40.9073C31.4796 40.8751 31.2992 40.8715 31.1241 40.8434C29.6489 40.6063 28.2786 39.9726 26.9716 39.272L24.0381 37.4787Z" fill="black"/>
<path d="M32.7182 21.5046C32.3491 21.532 31.9694 21.5152 31.599 21.5154L28.3186 21.5174C28.1493 21.5173 27.948 21.5368 27.7815 21.5099C27.0014 21.3838 26.8538 20.118 27.9499 20.0259L32.8209 20.0205C33.5249 20.1078 33.7101 21.0567 33.0859 21.387L33.0329 21.4152C32.9361 21.4669 32.8248 21.4832 32.7182 21.5046Z" fill="black"/>
</svg>
