<svg width="48" height="48" viewBox="0 0 48 48" fill="none" xmlns="http://www.w3.org/2000/svg">
<path d="M18.046 42.7325C17.8418 42.6806 17.6571 42.5901 17.4643 42.5078L14.101 41.1074C12.7583 40.524 11.4722 39.9125 11.2273 38.2867C11.0786 37.2994 11.5009 36.3231 11.7771 35.3923L12.4777 32.9149C13.2676 29.5928 13.0215 26.3404 11.7263 23.1603L10.8787 21.2761C10.1715 19.6203 9.68061 17.8738 9.40995 16.0946L9.30439 15.3282C9.27036 14.9787 9.21495 14.627 9.20145 14.2776L9.18945 11.8108C9.22072 11.1131 9.33486 10.4003 9.46677 9.71494C9.78448 8.06419 10.2912 7.55465 11.9881 7.12364L17.6249 5.39747C18.9117 5.01304 18.6391 6.36614 18.8582 7.10967L18.9522 7.50178C19.0659 7.83445 19.1603 8.16018 19.3041 8.48381C21.3362 13.0568 28.7639 12.0014 29.2421 6.59268C29.2613 6.37547 29.198 5.94965 29.3227 5.76628L29.4256 5.61426C29.5822 5.42667 29.7885 5.34586 30.0248 5.33081C30.345 5.35331 30.6304 5.4637 30.9373 5.54901L35.0852 6.71044C35.7003 6.88012 36.3199 7.04072 36.9222 7.25311C38.1618 7.69017 38.4478 9.06919 38.6257 10.1954C38.7531 11.0021 38.8109 11.7849 38.8131 12.6019L38.8072 13.8943C38.6792 16.6437 38.0076 19.3115 36.8772 21.8141L36.2455 23.1812C35.5396 24.8758 35.0717 26.9314 35.0628 28.752L35.0619 29.6035C35.0632 30.0288 35.1116 30.4669 35.1552 30.8907L35.6089 33.3232C35.6548 33.5782 35.7353 33.8893 35.8296 34.1335L36.0766 34.9604C36.0858 34.9963 36.0946 35.029 36.1089 35.0634C36.3666 35.6879 36.5083 36.3907 36.6912 37.0394C37.0842 38.4338 36.4359 39.8714 35.1512 40.5541C34.4886 40.9062 33.7494 41.158 33.058 41.4513L30.1578 42.6607C29.2842 42.9684 28.8841 41.9911 28.3771 41.451L24.068 36.6549C23.615 37.0015 23.2336 37.5089 22.8405 37.9232L19.0679 42.0821C18.7628 42.4276 18.5356 42.7019 18.046 42.7325ZM17.267 7.13681L12.8898 8.50308C12.8371 8.517 12.7692 8.52576 12.7266 8.55923C13.2658 10.5946 14.8552 12.502 16.6341 13.5703C17.5466 14.0608 19.1769 14.6311 20.2552 14.525L18.8637 10.9952C18.6862 10.5679 18.4224 10.1657 18.2148 9.75051C17.792 8.90475 17.5318 8.06072 17.3295 7.14L17.267 7.13681ZM30.6902 7.10831C30.5182 7.84443 30.3418 8.54343 30.0301 9.23868L29.2016 10.9117L27.7338 14.5538C29.0565 14.5398 30.2568 14.1577 31.4138 13.5463C33.338 12.3871 34.6738 10.5378 35.2901 8.38622L30.6902 7.10831ZM11.2529 9.07786C11.0144 9.40265 10.9683 9.78103 10.901 10.1684L10.778 10.9652C10.7561 11.1708 10.7564 11.385 10.711 11.587C10.4403 12.7902 10.8373 15.9028 11.1568 17.2501L11.6628 19.0431C11.7251 19.2302 11.7734 19.4142 11.8475 19.599L13.2537 22.8738L13.8857 24.8607L14.0993 25.7489C14.1807 26.0462 14.2096 26.3737 14.2548 26.6796L14.399 27.7052C14.4973 28.7968 14.4634 29.9629 14.3408 31.0485L18.5329 31.0471C18.9742 31.048 19.3759 31.0244 19.6006 31.4999L19.6119 31.5228C19.9051 32.1291 19.403 32.6036 18.7805 32.607L15.3997 32.6087C14.9696 32.6089 14.5091 32.5755 14.0836 32.6178C13.9956 33.1475 13.8449 33.6731 13.699 34.1895L12.9266 36.8029C12.2218 39.0485 13.5667 39.2022 15.247 39.911L17.4899 40.8406C17.6201 40.8929 17.8 40.9928 17.9372 41.0041L17.9555 40.9784C18.0877 40.7955 18.2494 40.6424 18.4012 40.4768L23.0819 35.4307C21.51 33.4713 21.1828 32.2805 21.1837 29.897L21.1847 25.3907C21.1864 23.8753 21.3708 23.2486 22.0697 21.8635L22.5284 20.9702C23.1683 19.8435 23.3202 20.2657 22.7355 19.378L22.4615 18.9297C21.9231 18.0111 21.3925 17.0728 20.9934 16.0839C20.3372 16.0965 19.7018 16.0869 19.0518 15.9962C16.0381 15.5755 13.3115 13.4542 11.9831 10.7316L11.5523 9.75009C11.4654 9.53911 11.4065 9.24928 11.2529 9.07786ZM36.7175 9.07514C36.596 9.30258 36.5196 9.55279 36.424 9.79237C35.0182 13.3121 31.9529 15.8961 28.0998 16.0852L27.3035 16.1055C27.214 16.1078 27.0841 16.094 27.0057 16.1303L26.9886 16.1732C26.3273 17.8005 25.112 19.598 24.2139 21.1224L23.4527 22.4829C22.7293 23.8365 22.6624 24.251 22.6617 25.7182L22.662 29.712C22.6623 30.3058 22.6273 30.8957 22.7801 31.4767L22.9752 32.1833C22.984 32.2244 23.0005 32.2582 23.016 32.297L23.1114 32.5782C23.4785 33.4867 24.0247 34.1598 24.6357 34.9105L30.0655 41.0372L30.2358 40.9688L33.2345 39.6912C34.9254 38.9485 35.6826 38.7799 35.0251 36.5933L34.5481 35.1095C34.2782 34.3037 34.0487 33.456 33.9051 32.6182L29.3567 32.6119C29.2072 32.612 29.034 32.6305 28.8875 32.6031C28.1748 32.4698 28.1587 31.2238 28.938 31.0597C29.0678 31.0323 29.221 31.0438 29.3538 31.0438L32.6868 31.0482C33.0101 31.0491 33.3454 31.085 33.6662 31.0695C33.2736 28.2037 33.8355 25.0975 34.9133 22.4386C35.1388 21.8824 35.4273 21.366 35.671 20.8207C36.8645 18.1497 37.4802 14.7629 37.2974 11.811L37.2391 11.2804C37.1858 10.7012 37.0858 9.53165 36.7175 9.07514ZM27.0579 12.2051C25.3885 13.0862 22.6421 13.1594 20.9505 12.2338L22.6881 16.1432L23.5723 17.7892C23.6903 18.0046 23.8148 18.3132 23.9831 18.4893L25.023 16.7018L25.9989 14.6761C26.3602 13.8609 26.6588 13.0012 27.0579 12.2051Z" fill="black"/>
<path d="M24.004 25.4326C23.6864 25.4031 23.3944 25.3273 23.2496 25.0029L23.1935 24.8663C23.0429 24.338 23.4758 23.9408 23.9508 23.8408C24.2701 23.8641 24.5438 24.0404 24.6712 24.3426L24.6826 24.3735C24.8191 24.7185 24.6969 25.1335 24.3697 25.3219L24.3394 25.3389C24.2297 25.4028 24.1276 25.4149 24.004 25.4326Z" fill="black"/>
<path d="M24.1035 28.5925C23.7473 28.5998 23.4022 28.5146 23.2489 28.1424L23.1953 27.9961C23.0615 27.5341 23.4597 27.1495 23.8728 27.0496C24.1975 27.0283 24.4996 27.1286 24.6427 27.4436L24.7033 27.5737C24.8632 28.0629 24.5633 28.4637 24.1035 28.5925Z" fill="black"/>
<path d="M24.0139 31.813C22.9184 31.7598 22.9135 30.297 23.9234 30.1934C24.2314 30.2135 24.4971 30.321 24.637 30.6248L24.6557 30.6678C24.8949 31.2002 24.5538 31.715 24.0139 31.813Z" fill="black"/>
</svg>
