<svg width="48" height="48" viewBox="0 0 48 48" fill="none" xmlns="http://www.w3.org/2000/svg">
<path d="M21.4999 45.0776C20.6071 46.335 19.351 45.6002 18.2565 45.0745L12.2153 42.1681C11.1829 41.6522 10.1348 41.409 10.2146 39.8905C10.2286 39.623 10.3543 39.3737 10.4524 39.1289L11.4938 36.3597C11.9048 35.0802 12.1979 33.7767 12.436 32.4557L12.598 31.2286C13.0096 27.8377 12.7736 23.3684 11.1438 20.2732C10.9366 19.8798 10.7014 19.5123 10.5299 19.0993C9.99368 17.8086 9.96555 16.0569 10.5573 14.7857C10.6882 14.5045 10.9082 14.2689 11.0322 13.9877C11.7152 12.4383 11.6624 10.7814 11.5663 9.13251L11.4156 7.1137C11.3076 6.06994 11.0278 5.54747 12.2461 5.35247L16.167 4.53831C17.3857 4.27947 17.9482 3.90632 18.6881 2.8522C19.5537 1.61883 19.9257 2.54359 20.4236 3.31109C22.4433 6.42464 25.5178 6.4793 27.5741 3.29846L27.8643 2.81187C28.0228 2.52292 28.1076 2.4013 28.4186 2.27767C28.9204 2.21416 29.1032 2.56724 29.356 2.9235C30.3688 4.35098 31.1194 4.39208 32.7069 4.71019L35.8593 5.35917C36.9558 5.54259 36.6684 6.10922 36.5765 7.02759L36.4275 9.39886C36.3835 10.3318 36.3581 11.2284 36.4689 12.1645C36.6585 13.7671 37.1051 13.8919 37.5935 15.1762C37.6463 15.315 37.7045 15.4732 37.7315 15.6198L37.7915 15.9231C38.0348 16.9585 37.8196 18.3506 37.3826 19.2879C37.1864 19.7087 36.9292 20.0936 36.7204 20.5072C36.1234 21.6903 35.7446 23.2888 35.5271 24.5754L35.2484 27.0133L35.2262 28.6424C35.2264 29.3038 35.2389 29.8385 35.299 30.4907L35.5257 32.4177C35.6341 33.1758 35.859 34.3403 36.1081 35.0835L36.4833 36.3783L37.26 38.5146C37.561 39.194 37.9501 39.7733 37.747 40.5539L37.7063 40.6996C37.4699 41.4402 36.8663 41.6752 36.2114 41.9892L29.3107 45.2979C28.9692 45.4568 28.6063 45.6968 28.2294 45.7544L28.1952 45.7593C28.0155 45.7875 27.8153 45.7901 27.6351 45.7614L27.5975 45.7551C26.8418 45.6359 26.5085 45.1101 26.2154 44.4781L23.9964 39.8064L21.4999 45.0776ZM19.3658 4.3641C19.1883 4.54366 18.9829 4.64763 18.9845 4.91367C18.9867 5.28145 19.0339 5.71172 19.1632 6.05634L19.3167 6.47208C19.3922 6.68203 19.5179 6.88256 19.6371 7.07076C21.7014 10.3296 26.9069 10.155 28.6065 6.57169C28.8682 5.97061 29.3264 4.85845 28.6398 4.3758C28.2599 4.79231 27.9363 5.25623 27.5329 5.65598C25.7283 7.44417 22.6825 7.66641 20.7698 5.90644L19.3658 4.3641ZM30.373 5.63714C29.7694 8.24086 28.182 10.1491 25.4494 10.7237C24.4319 10.9377 23.2533 10.91 22.2521 10.644C19.9887 10.0428 17.8626 8.05453 17.6362 5.63255L17.5971 5.64909C17.1466 5.83598 16.7022 5.8785 16.2419 5.99808L16.3609 6.66839C16.4113 6.99511 16.4511 7.31808 16.5439 7.63725C16.5755 7.75772 16.6001 7.87537 16.6417 7.99261L16.7826 8.40117C17.1451 9.57164 18.3416 10.6441 19.4702 11.0302C20.0081 11.2142 20.5181 11.2506 21.081 11.2513L22.3849 11.2411C23.2425 11.2197 23.28 11.2513 24.0208 11.6749C24.6873 11.2115 24.9073 11.2255 25.6887 11.2422L26.8657 11.2515C29.4871 11.2507 31.1438 9.53948 31.591 6.97308C31.8304 5.59931 31.8688 6.16917 30.8055 5.78855C30.6958 5.74922 30.4804 5.62261 30.373 5.63714ZM14.7567 6.34026L13.5427 6.56808C13.2922 6.62184 13.0356 6.66675 12.7935 6.75061L12.9134 7.71136C12.9484 8.16755 12.9848 8.62223 13.0103 9.07842L13.004 11.5785C12.9935 11.736 12.9959 11.8936 12.9648 12.0488L12.8347 12.8935C12.6256 14.0308 12.2179 14.5627 11.7875 15.5758C11.3741 16.5487 11.4701 17.8601 11.9556 18.8024C12.4775 19.8154 12.7822 20.3299 13.1756 21.4692L13.4164 22.2822C13.4239 22.3178 13.4341 22.3466 13.4459 22.3806L13.7246 23.511C14.0615 24.7578 14.1438 26.5306 14.2226 27.813C14.3629 30.0928 13.7599 33.794 13.1445 35.907L12.3217 38.3648C12.0936 38.9549 11.7773 39.5393 11.6536 40.1613C11.6338 40.2607 11.7364 40.3102 11.8151 40.3606L19.2542 43.9477L20.2253 44.3802L22.9384 38.7374C23.0088 38.5888 23.1687 38.323 23.1675 38.1639C22.6747 37.6293 21.9208 36.607 21.7819 35.866C21.7465 35.6771 21.7639 35.4561 21.7635 35.2638L21.7651 17.2355C21.7755 16.9388 22.103 16.5603 22.2612 16.308L22.8917 15.2755C23.1876 14.7872 23.2902 14.8008 23.2234 14.2387L23.1859 13.7437C23.1754 13.5101 23.2146 13.2719 23.1708 13.0417C22.8594 12.6059 22.6819 12.7294 22.1844 12.7286L20.6483 12.726C17.6989 12.6691 15.628 10.3192 15.052 7.55395L14.7567 6.34026ZM33.1386 6.3637C33.0887 6.56475 33.083 6.76359 33.0522 6.96745L32.871 7.87326C32.3499 10.1953 30.582 12.1742 28.2038 12.6184C27.4218 12.7644 26.6262 12.7278 25.8349 12.7284C25.2889 12.7289 24.9862 12.5962 24.6372 13.1024L24.6178 13.1297C24.2175 13.7087 24.7246 14.5144 25.0125 15.0449C25.274 15.5268 26.2301 16.9346 26.2379 17.3182L26.2444 34.9725C26.2441 35.2503 26.2534 35.5306 26.2049 35.8053L26.1845 35.9025C26.0354 36.5806 25.597 37.1414 25.1919 37.6853C24.7836 38.2338 24.7009 38.0179 24.9459 38.4983L27.1745 43.1043C27.2693 43.298 27.6516 44.3071 27.8295 44.365L28.794 43.9484L34.41 41.223C34.8319 41.0153 36.1614 40.529 36.4036 40.1761C36.2906 39.7484 36.0761 39.3266 35.9263 38.9067C34.7945 35.7359 34.0828 33.3812 33.8414 29.9502L33.7753 29.1512L33.8784 26.3273C34.0562 24.2042 34.5055 21.4607 35.5897 19.5891C36.2508 18.4479 36.7216 17.4129 36.3691 16.0355C36.2539 15.585 35.9917 15.1822 35.7879 14.7682C35.1284 13.4284 34.9887 11.9257 34.9885 10.4515L34.9963 9.39914C35.0076 9.18905 35.0475 8.98476 35.0618 8.77556L35.2106 6.71255L33.6934 6.41348C33.5362 6.38611 33.2892 6.31542 33.1386 6.3637ZM24.0139 16.2427C23.7551 16.5904 23.537 17.0189 23.2479 17.3362C23.0109 17.5965 23.0943 18.8565 23.1294 19.1957L23.1336 19.2395C23.182 19.6944 23.5451 19.9587 23.9859 19.9952C24.8752 19.9631 24.8622 19.5589 24.8639 18.8014C24.8652 18.1931 25.0086 17.7722 24.6919 17.2832L24.23 16.5707C24.1581 16.4571 24.1019 16.3462 24.0139 16.2427ZM23.0944 21.234L23.1059 22.1036C23.1068 22.425 23.0869 22.7519 23.1037 23.0724C23.1471 23.8953 23.9353 24.3746 24.5507 23.9069L24.6733 23.7952C24.9717 23.3589 24.9225 21.8351 24.8507 21.3743L24.8195 21.3879C24.3736 21.5713 23.6002 21.4668 23.1876 21.2795L23.0944 21.234ZM23.0884 25.3381L23.1085 26.636C23.1121 26.9254 23.0854 27.2559 23.1376 27.5382C23.2684 28.2456 24.2077 28.4569 24.6842 27.9337C24.9395 27.5116 24.8951 25.9907 24.8522 25.4532L24.8058 25.4638C24.2236 25.5928 23.6283 25.6416 23.0884 25.3381ZM23.0868 29.4965C23.0803 29.7662 23.1045 30.036 23.106 30.3057L23.1011 31.0394C23.0912 31.6192 23.1679 32.1343 23.8241 32.3209L23.8518 32.3291C24.1739 32.4176 24.4938 32.28 24.7039 32.0396C24.9181 31.6291 24.9071 30.0812 24.8501 29.574L24.5121 29.6683C23.8464 29.8476 23.2177 29.4656 23.0868 29.4965ZM23.091 33.6215C23.0856 33.8559 23.1125 34.089 23.1135 34.3246L23.1159 35.1163C23.1187 35.8631 23.5611 36.3236 24.0167 36.8692C24.163 36.7398 24.2856 36.5233 24.4007 36.3627C24.5621 36.1355 24.7639 35.853 24.8396 35.5809C24.914 35.3128 24.8822 34.0279 24.8528 33.7508C24.2744 33.83 23.6662 33.9224 23.1311 33.6156L23.091 33.6215Z" fill="black"/>
</svg>
