<svg width="48" height="48" viewBox="0 0 48 48" fill="none" xmlns="http://www.w3.org/2000/svg">
<path d="M26.3607 41.7209C26.0359 41.3148 25.656 40.9355 25.3115 40.5435L24.3894 39.5076C24.2539 39.3614 24.1353 39.2179 23.9861 39.0835C23.6189 39.445 23.2893 39.8531 22.9495 40.2402L21.8433 41.492C21.5447 41.8458 21.2497 42.2844 20.8906 42.5778C20.4457 42.9416 20.058 42.6296 19.5969 42.4501L15.9556 41.0575C14.8723 40.6645 14.2635 40.4678 13.5224 39.5198C12.9831 38.8298 12.8546 37.9275 12.9235 37.0795L13.2962 31.9959C13.3494 31.2398 13.3988 30.4878 13.4333 29.7308L13.5216 26.9216C13.5274 26.7091 13.5659 26.5012 13.577 26.289L13.5928 25.059C13.5975 24.8641 13.635 24.6722 13.6398 24.4777L13.6353 18.5303C13.5775 18.4609 13.5161 18.4344 13.4413 18.3871C12.5053 17.7954 11.4852 16.0106 11.2105 14.9982C11.1258 14.6858 11.0832 14.3696 11.0096 14.0567L10.9989 14.0107C10.7557 12.7145 11.1718 10.8484 11.8924 9.7796L11.9675 9.67122C12.3665 9.11163 12.8904 8.93139 13.5119 8.71821L14.4698 8.37625C16.0209 7.80339 17.4942 7.03099 18.8153 6.03513L19.2943 5.66458C19.5327 5.46452 19.6483 5.29521 19.9725 5.23113C20.3918 5.206 20.4671 5.47516 20.7509 5.6921C21.5024 6.26664 22.947 6.21166 23.8317 6.21152C24.997 6.21133 26.0165 6.21602 27.1173 5.74197C27.3521 5.64086 27.4327 5.37855 27.6925 5.27529C28.242 5.05694 28.8989 5.85499 29.2908 6.14313C30.1601 6.78236 31.0878 7.3016 32.0616 7.76168L34.4055 8.70879C34.6175 8.77464 34.8389 8.79729 35.0432 8.89047C36.1716 9.40516 36.7247 10.7805 36.9383 11.93C37.344 14.1135 36.6231 16.3105 35.1022 17.9185C34.8693 18.1648 34.6088 18.3531 34.3696 18.5828L34.3716 26.545C34.3803 26.8176 34.4551 27.0717 34.4649 27.3433L34.5069 29.754L35.0263 36.2981C35.0783 36.9666 35.1811 37.8111 34.9922 38.44L34.9657 38.5354C34.6927 39.8777 33.4477 40.5796 32.2725 41.0018L28.2959 42.5285C27.5456 42.8305 27.3929 42.8928 26.8646 42.3011L26.3607 41.7209ZM19.9995 6.69893C19.5228 7.06436 19.0445 7.4816 18.524 7.77869L18.6698 8.63219C18.9815 10.0413 19.3586 11.4595 19.9103 12.7971L20.2757 13.6878C20.8497 15.1112 21.6909 16.4751 22.66 17.6575L23.3462 18.4241L23.347 15.3641C23.3519 14.794 23.0414 14.235 22.8371 13.7165L20.7673 8.48472C20.5382 7.88622 20.3497 7.24 19.9995 6.69893ZM27.9331 6.71519C27.7408 7.13688 27.5996 7.58739 27.4281 8.01883L24.7595 14.763C24.5918 15.1611 24.6321 15.3325 24.6319 15.7675L24.6298 17.9179C24.6252 18.1029 24.6 18.2778 24.6372 18.4615L25.3665 17.6014C27.4506 15.0612 29.005 11.0869 29.4759 7.8003C29.3808 7.69905 29.2113 7.61768 29.0938 7.5371L28.2423 6.93724C28.1735 6.88807 28.0065 6.72949 27.9331 6.71519ZM21.6427 7.32194L23.7388 12.5489C23.8424 12.7795 23.8684 13.0164 24.0089 13.2359L24.727 11.4577L26.3112 7.34627C25.5609 7.54629 24.6733 7.48689 23.9055 7.48689L23.033 7.48605C22.63 7.48408 22.0244 7.44072 21.6427 7.32194ZM17.3099 8.473C16.4981 8.90599 15.3752 9.48086 14.4762 9.71824L15.0537 12.3937C15.2833 14.0249 15.4859 16.1863 15.0428 17.7936C15.0037 17.9353 14.8943 18.0935 14.8897 18.2367L14.8806 21.8259C14.8798 22.4513 14.8191 23.0391 14.814 23.631L14.8031 27.3709C14.7953 27.6515 14.7441 27.9284 14.7315 28.2085L14.586 31.3612C14.5724 31.593 14.5486 31.812 14.5539 32.0458L17.5108 30.4045C17.8704 30.198 18.3352 29.9339 18.631 30.4125L18.6765 30.4902C18.7339 30.6003 18.7484 30.8081 18.7059 30.9261L18.6737 31.003C18.5684 31.2689 18.3323 31.3773 18.1023 31.5198L14.6805 33.4379C14.3599 33.6341 14.4202 33.5729 14.3934 33.9562L14.1992 36.722C14.1614 37.1616 14.0751 37.6424 14.2036 38.0746L14.2156 38.1251C14.3369 38.6523 14.765 39.1289 15.2139 39.4093L15.271 39.4438C15.8056 39.6938 16.3825 39.8764 16.937 40.0789L19.9245 41.2196C20.0283 41.265 20.1772 41.3696 20.2829 41.3825L22.8304 38.4733C22.9566 38.3349 23.3483 38.035 23.3485 37.8466L23.3489 20.2218C23.35 19.9815 23.0106 19.7996 22.84 19.6416L22.105 18.8988C19.8863 16.4851 18.5753 13.3255 17.7549 10.1854C17.7217 10.0583 17.3579 8.47544 17.35 8.46968L17.3099 8.473ZM30.6782 8.49471L30.2086 10.3888C29.3759 13.3506 28.1686 16.267 26.1606 18.6344L25.2698 19.5849C25.1399 19.7105 24.9978 19.8625 24.841 19.9515L24.7925 19.9728C24.5956 20.0515 24.6318 20.1607 24.6316 20.3408L24.6325 37.9372C24.7447 38.0743 24.8922 38.176 25.0121 38.3135L27.084 40.6236C27.3079 40.8716 27.5107 41.1616 27.7604 41.3815L32.7073 39.4494C33.2704 39.1036 33.6735 38.6769 33.8203 38.016L33.8448 37.8519C33.8948 37.3921 33.7994 36.9498 33.7692 36.4937L33.5692 33.5686L30.0637 31.5733C29.8057 31.4298 29.4486 31.2948 29.3184 31.0082L29.3056 30.981C29.1088 30.5365 29.6094 29.9795 30.0704 30.1692L33.4297 31.9841C33.3492 31.5595 33.3839 31.0839 33.3521 30.6508L33.2549 28.8583C33.2448 28.6725 33.2089 28.4896 33.2019 28.3037L33.1135 25.5947L33.1123 19.2355C33.1121 18.919 33.1804 18.4847 33.0595 18.185C32.962 17.9437 32.929 17.6307 32.8837 17.3743C32.5085 15.2486 32.8269 12.7404 33.2752 10.6633L33.4337 9.97544C33.4876 9.75274 33.5548 9.77519 33.3351 9.67778L31.5179 8.89516C31.2408 8.77108 30.9389 8.64921 30.6782 8.49471ZM34.699 10.1371C34.0831 11.7743 33.7732 15.3752 34.1117 17.1292L34.5987 16.5624C35.9208 15.0031 36.2291 12.3301 35.1202 10.5831C35.0514 10.4748 34.8556 10.1207 34.699 10.1371ZM13.2421 10.1605C12.2887 10.8654 11.9671 13.1548 12.3012 14.2832L12.4231 14.6957C12.5041 14.9313 12.5828 15.178 12.6983 15.3988L12.7642 15.5285C12.9711 15.9234 13.204 16.2879 13.4831 16.6374C13.6214 16.8182 13.7547 16.9654 13.927 17.1151C14.1772 15.1633 14.0033 13.4911 13.6259 11.5511C13.5371 11.0947 13.4547 10.5937 13.2786 10.163L13.2421 10.1605Z" fill="black"/>
</svg>
