<svg width="48" height="48" viewBox="0 0 48 48" fill="none" xmlns="http://www.w3.org/2000/svg">
<path d="M35.8223 33.3698L35.888 33.6446C35.9228 33.8437 35.998 34.0432 36.0456 34.2401L36.1497 34.6274C36.5521 36.1905 36.898 37.76 37.0451 39.3707C37.3084 42.2552 35.6832 43.1709 33.1096 42.923C32.3547 42.8503 31.6112 42.6589 30.8545 42.577C28.8344 42.3583 27.7697 42.9576 25.9219 43.5253C24.9391 43.8273 24.5497 42.5922 24.0235 41.9196C23.7668 42.2202 23.5675 42.5839 23.3478 42.9124C22.8365 43.6775 22.6153 43.6187 21.7635 43.3622L18.4908 42.5209C17.2659 42.158 15.036 43.0555 13.4513 42.8637C10.9556 42.5616 10.7182 40.9876 11.0337 38.7071C11.584 34.729 13.0918 31.0645 13.0726 26.9927L13.0625 25.8796C13.0426 25.5172 12.9831 25.1436 12.926 24.7852L12.1718 20.2568C12.1195 19.8457 12.0468 19.4199 12.0245 19.007L12.0197 17.9634C12.0198 17.6429 12.0039 17.3111 12.0327 16.9923L12.2819 14.7469C12.4106 13.0628 12.3299 10.6526 11.7945 9.10035C11.4232 8.02377 10.854 7.64689 12.1932 6.69786C13.2626 5.94013 14.5049 5.5633 15.7237 5.12586C16.2946 4.92097 16.89 4.6554 17.4824 4.52978C17.627 4.52101 17.763 4.54099 17.9063 4.54072L21.3186 4.53023C21.4362 4.5342 21.5862 4.52943 21.6958 4.57769C22.3377 4.86036 22.4809 5.97697 21.3427 5.98086L18.264 5.97889C18.281 6.19536 18.3701 6.42252 18.4217 6.63289L18.6486 7.53332C18.9498 8.54961 19.5581 9.95671 20.0099 10.8929L20.8122 12.422C21.4791 13.6554 22.1919 14.8386 22.9954 15.9893L23.68 16.9318C24.1236 17.5341 23.9457 17.5063 24.4716 16.7504L25.1366 15.7956C27.181 12.8249 28.8608 9.53854 29.6271 5.99619C29.3539 5.95958 29.0522 5.9818 28.7753 5.98157L27.1524 5.98105C26.9038 5.98072 26.5025 6.03191 26.281 5.92368L26.25 5.90788C25.6136 5.594 25.7934 4.59269 26.4721 4.52662C26.7827 4.49638 27.1206 4.52151 27.4336 4.52156L30.187 4.5223C30.5098 4.52285 30.6531 4.54866 30.9537 4.66232L31.5937 4.88741C32.6507 5.24483 35.8496 6.27247 36.41 7.26782L36.4304 7.30518C36.7732 7.92843 36.4906 8.27582 36.278 8.8603C35.7901 10.2017 35.6868 11.5694 35.6864 12.9855L35.9258 16.831C36.1671 18.591 35.7339 21.3013 35.4032 23.0173C35.1119 24.5291 34.9224 25.4544 34.9187 26.9821L34.9287 28.1542C34.9759 29.052 35.1264 30.3826 35.344 31.2774L35.8223 33.3698ZM31.0171 6.11966L30.6637 7.60822C29.9493 10.0672 28.8628 12.4001 27.5462 14.5926L27.2058 15.1848L25.0776 18.2401C24.7012 18.7153 24.7241 18.5448 24.723 19.211L24.724 40.2549C24.7263 40.6852 25.5581 41.758 25.8405 42.0799C26.8865 41.7107 27.8674 41.2639 28.9922 41.1759C29.5733 41.1305 30.1618 41.1771 30.7442 41.1605C31.1987 41.1875 31.6503 41.2681 32.0977 41.3436L32.9766 41.4893C33.2289 41.5441 33.487 41.5496 33.744 41.5502C35.9387 41.5555 35.8351 40.3475 35.5819 38.672C34.8954 34.1271 33.1439 30.4118 33.5972 25.616C33.6674 24.8733 33.809 24.148 33.9366 23.4141L34.4011 20.7586C34.5871 19.6179 34.6803 18.4218 34.6024 17.2668L34.4316 15.7384C34.3818 15.2586 34.3324 14.7715 34.3313 14.2894L34.3302 13.4099C34.3292 11.4724 34.3338 9.7798 35.1725 7.94947C33.9095 7.07043 32.4381 6.65657 31.0171 6.11966ZM16.8584 6.17586C15.6769 6.65971 13.7759 7.12808 12.813 7.96354C13.3393 9.044 13.6062 10.5475 13.6693 11.7639L13.6844 13.3072C13.6836 14.2089 13.6625 15.1001 13.5418 15.995C13.4507 16.6704 13.3764 17.1955 13.3756 17.8768L13.4055 19.1368C13.4494 19.7532 13.5461 20.3728 13.6374 20.983L14.1196 23.6345C14.2699 24.4765 14.3964 25.354 14.4355 26.2097L14.4395 27.3012C14.4392 28.8704 14.2567 30.4274 13.9156 31.9604L12.668 37.1847L12.4275 38.6965C12.3512 39.2318 12.2236 39.8423 12.2844 40.3829C12.4841 42.1594 15.1662 41.4068 16.3125 41.1802C16.7045 41.1028 17.1145 41.0662 17.5137 41.064C18.0707 41.0786 18.4861 41.109 19.0313 41.2284L22.2633 42.0374L23.2822 40.5268L23.2667 18.8994C23.2673 18.4715 22.9705 18.3092 22.6864 17.9338L20.8229 15.2208L19.5 12.9402L17.8791 9.37663C17.524 8.43468 17.2136 7.49483 16.9967 6.51064L16.9357 6.22541C16.9249 6.17404 16.9414 6.17244 16.8803 6.17244L16.8584 6.17586Z" fill="black"/>
<path d="M27.2314 8.98875C26.543 9.13988 25.8496 9.2955 25.145 9.35691C23.6397 9.48802 19.4912 9.22144 18.9888 7.82789C18.9363 7.68225 18.9282 7.4175 18.9998 7.27397L19.0151 7.24547C19.1285 7.02896 19.253 6.96375 19.4727 6.89307C19.9222 6.87858 20.2332 7.19058 20.6215 7.37297C22.0734 8.05514 24.6787 8.15981 26.2674 7.75336C26.4678 7.70208 26.6927 7.61358 26.8948 7.58808L26.9257 7.58457C27.7073 7.48885 28.0303 8.52338 27.4055 8.90138L27.2314 8.98875Z" fill="black"/>
<path d="M32.4083 35.0698C32.2134 35.0959 32.0228 35.0555 31.8397 34.9904C29.9027 34.3025 29.3 32.2876 29.2861 30.4285C29.2819 29.8703 29.2687 29.5087 29.8426 29.2528C31.1078 29.2112 30.519 30.8039 30.7803 31.697L30.9477 32.2608C31.145 32.8361 31.5875 33.3553 32.1443 33.6064C32.5298 33.7801 32.8351 33.7944 32.9097 34.3041L32.9141 34.3355C32.9701 34.7074 32.7605 34.9642 32.4083 35.0698Z" fill="black"/>
<path d="M15.9142 35.0822C15.2592 35.1582 14.8482 34.6056 15.1994 33.9904L15.2169 33.9609C15.3384 33.7529 15.5637 33.728 15.7641 33.6441C16.9076 33.1655 17.2772 31.8992 17.2955 30.7668C17.3057 30.1332 17.123 29.5582 17.8428 29.2774C18.9216 29.1675 18.7188 30.3959 18.6727 31.1379C18.5722 32.7564 17.6047 34.6608 15.9142 35.0822Z" fill="black"/>
</svg>
