<svg width="48" height="48" viewBox="0 0 48 48" fill="none" xmlns="http://www.w3.org/2000/svg">
<path d="M25.2744 37.6725C25.0422 36.7026 24.9498 35.7072 24.8175 34.7207L24.2343 30.0681C24.1884 29.6681 24.1508 29.2996 24.0422 28.9099L24.0117 28.9077C23.9939 28.991 23.947 29.0627 23.9237 29.1443C23.6745 30.0188 23.6859 31.1282 23.5857 32.0405L23.1626 35.2553C23.0758 35.8537 23.0348 36.4579 22.9222 37.0544C22.1385 41.2065 19.2045 45.1936 15.097 46.5197C14.1184 46.8357 13.1841 46.7437 12.2745 46.2716L8.08589 43.9483C7.78758 43.7851 7.34635 43.6173 7.24022 43.2579L7.23263 43.2302C7.11708 42.8169 7.33852 41.9729 7.3936 41.5427L8.23528 34.5467L10.3438 13.9126L10.5111 12.5001C10.6935 10.3269 10.4237 8.15101 9.80255 6.0647L9.45985 4.9996C9.11517 3.95883 9.2723 3.72222 10.2126 3.39485L16.6013 1.40072C16.9935 1.28685 17.364 1.13535 17.7721 1.08691C18.2692 1.12426 18.4359 1.43988 18.6459 1.85337L19.038 2.6507C19.7228 3.9876 21.0443 5.09673 22.6149 4.93731C23.0965 4.88842 23.3794 4.7784 23.8967 4.77779C26.2252 4.77512 27.8767 4.93356 29.0676 2.45592L29.3372 1.86121C29.7031 1.01888 30.0941 1.03088 30.9567 1.27376L38.1774 3.50703C38.9014 3.7596 38.7232 4.47937 38.5522 5.04704L38.1894 6.17396C37.651 7.89067 37.2656 10.7415 37.4965 12.5857L39.1988 29.4611L39.8472 35.2614L40.7727 42.7954C40.7852 42.9313 40.808 43.1555 40.7568 43.2823L40.746 43.3066C40.6082 43.6303 40.278 43.7251 39.9976 43.8922L36.1213 46.0192C34.8373 46.7075 34.4289 46.983 32.8359 46.4793C29.2695 45.3519 26.6412 42.1248 25.5327 38.6415L25.2744 37.6725ZM30.522 2.58957L30.5009 2.6242C30.3239 2.92302 30.2105 3.26878 30.0419 3.57516C29.2239 5.06124 27.7101 6.0722 26.0097 6.17926C25.0991 6.23659 24.2085 6.11842 23.2982 6.26298C21.2195 6.59307 19.6079 5.84171 18.3422 4.14817C18.0864 3.80577 17.473 2.62618 17.4594 2.6213C17.4088 2.60316 17.1864 2.66406 17.1325 2.68332L17.913 4.75763C18.0236 5.08149 18.196 5.39832 18.3296 5.71459L18.7544 6.72629L20.6279 10.3206L24.0281 17.2897L30.8816 2.71172L30.522 2.58957ZM15.7437 3.08176L11.3225 4.50238C11.1645 4.55165 10.9419 4.58896 10.8015 4.67185L11.5668 7.37354C11.8118 8.19502 11.9265 9.77101 11.9465 10.6052L11.9186 12.1702C11.8975 12.7424 11.7839 13.3281 11.7208 13.8982L10.7309 23.8823L9.234 37.8048L8.67516 42.4109C8.65299 42.7314 8.65078 42.6666 8.94038 42.8383L12.4955 44.8138C13.393 45.2882 13.7364 45.4741 14.7725 45.1526C15.3696 44.9673 15.9144 44.6872 16.4471 44.3639C19.372 42.5888 21.0718 39.6172 21.65 36.3161L22.3115 31.2185C22.5042 29.4742 22.557 28.5879 23.1842 26.9254C23.3537 26.4763 23.6195 25.6573 24.3045 26.0739C24.5521 26.2245 24.6545 26.558 24.7692 26.8086L25.4382 28.8928C25.5473 29.2917 25.5523 29.7316 25.6016 30.1404L26.1113 33.9724C26.207 34.6502 26.2361 35.346 26.3522 36.0198L26.7294 37.8739L27.1916 39.1809C27.8957 41.3329 30.1917 43.7585 32.1712 44.7234C32.7283 44.995 33.9743 45.4949 34.6057 45.2724C34.8331 45.1923 35.0613 45.0346 35.2754 44.9203L37.2211 43.8534L39.3564 42.6253C39.2919 41.7368 39.126 40.8466 39.0234 39.9607L37.6177 27.5036L36.3581 14.7159C36.2169 13.34 36.0106 11.9715 36.0488 10.5839C36.0989 8.75921 36.5312 6.41645 37.2151 4.6833L32.2218 3.10381C32.0299 3.55606 31.894 4.02767 31.7159 4.48522L30.2778 7.80442C28.5167 11.3919 26.211 14.757 25.0635 18.6168L24.8553 19.3436C24.7607 19.6897 24.712 20.0055 24.7108 20.3658L24.7037 23.5329L25.6657 23.5332C25.8 23.5336 25.9872 23.512 26.1162 23.5476C26.4893 23.6504 26.7001 24.1467 26.5604 24.4933L26.549 24.5223C26.3336 25.0399 25.881 24.9594 25.4286 24.9587L23.8193 24.9559C23.2398 24.9552 22.6442 24.9875 22.0664 24.9576C21.3184 24.9189 21.1913 23.9957 21.7617 23.6074L21.7826 23.5928C21.9261 23.4958 22.1874 23.5313 22.356 23.5314L23.2955 23.5443L23.2865 21.1482C23.2867 20.3871 23.3003 19.9425 23.1445 19.2001C22.7962 17.5399 21.996 15.9546 21.2372 14.4527L18.0178 8.38056L16.6127 5.2411L15.7437 3.08176Z" fill="black"/>
<path d="M29.3893 37.1012L29.1233 36.9373C28.64 36.6049 28.1895 35.9758 28.0662 35.4133C28.0305 35.2503 28.0371 35.0779 28.0012 34.9152L27.9902 34.8692C27.9162 34.512 27.9547 34.0912 27.9558 33.7271C27.958 32.9324 28.1183 32.8298 28.828 32.7145L32.5244 32.0222C32.7056 32.0085 32.892 32.0306 33.0431 32.1413L33.0685 32.1605C33.1598 32.226 33.23 32.3217 33.2705 32.4275L33.3136 32.5218C33.3792 32.6944 33.615 34.6643 33.6097 34.7859C33.518 36.9028 31.2473 37.9604 29.3893 37.1012ZM32.0168 33.527L30.2791 33.8584C29.9566 33.9146 29.6228 34.0091 29.2972 34.0355L29.3182 34.6066C29.3286 35.0112 29.4026 35.3097 29.7043 35.6153L29.8595 35.7468C30.6215 36.2892 31.7191 36.0594 32.1072 35.1793L32.1239 35.1423C32.3489 34.6245 32.2117 34.0551 32.0704 33.5319L32.0168 33.527Z" fill="black"/>
<path d="M18.745 37.0208C16.9218 38.062 14.7014 36.9998 14.4022 34.8683C14.3239 34.3108 14.5017 33.7112 14.5979 33.1643C14.6895 32.6442 14.6583 32.1601 15.2828 32.043C15.5382 32.0489 15.785 32.1002 16.0349 32.1447L19.4455 32.736C20.0384 32.8337 20.0385 33.3535 20.0399 33.8144C20.0441 35.1779 20.0028 36.1788 18.745 37.0208ZM15.9276 33.5215C15.776 34.0615 15.6176 34.7365 15.9092 35.2513C16.3088 35.9567 17.2759 36.2887 17.9926 35.8479L18.1935 35.7065C18.4536 35.4558 18.6162 35.1953 18.6588 34.8283L18.704 34.0263L15.9276 33.5215Z" fill="black"/>
</svg>
