<svg width="48" height="48" viewBox="0 0 48 48" fill="none" xmlns="http://www.w3.org/2000/svg">
<path d="M26.5945 38.4946C25.9718 38.1981 25.3627 37.7933 24.8124 37.3787C24.556 37.1856 24.302 36.9335 24.0227 36.7807L23.1622 37.4398C22.7655 37.7203 22.3477 37.9714 21.9285 38.2165C19.5107 39.6302 19.0597 38.9149 16.8585 37.8559C15.683 37.2904 14.4012 36.8987 13.104 36.7497L12.2463 36.6847C11.5248 36.6583 10.9498 36.7583 10.6192 35.9198L10.608 35.8905C10.507 35.6337 10.525 35.3908 10.526 35.121L10.6124 32.2412C10.7692 29.4807 11.179 26.4141 11.8775 23.745C11.9855 23.3326 12.0647 22.8993 12.1963 22.4953L12.2031 22.4751C11.3234 22.4057 10.5024 22.5523 9.67704 22.1368C8.56291 21.576 8.27261 20.5367 8.27149 19.3971C8.26872 16.6014 9.59336 13.8647 12.2713 12.7243C13.0292 12.4015 13.8224 12.1935 14.5978 11.9208C15.9331 11.4511 17.373 10.7706 18.5098 9.94569C18.9069 9.65755 19.2508 9.17498 19.7227 9.02746L27.516 9.01673C28.4646 9.01649 28.3045 8.95049 29.0584 9.58138C30.3826 10.6895 31.948 11.4178 33.5666 11.9896L34.8052 12.3876C38.1213 13.5188 39.6935 15.979 39.721 19.3558C39.7281 20.2243 39.5597 21.0236 38.9287 21.6568C38.0306 22.5579 36.9619 22.4542 35.7862 22.4532C35.8569 22.5641 35.8807 22.8041 35.9161 22.9375L36.4226 25.0191C36.5231 25.4238 36.5802 25.8413 36.6622 26.2496L36.8442 27.2926C36.9876 28.0263 37.0508 28.7659 37.1392 29.5074L37.3131 31.9566C37.3233 32.1562 37.382 32.3429 37.3928 32.5447L37.4076 35.2508C37.4072 35.5382 37.4251 35.7654 37.2963 36.0306C36.9035 36.8391 36.2814 36.5927 35.5962 36.6871C33.8181 36.9321 32.7411 37.1248 31.0416 37.938C29.2487 38.7959 28.6918 39.5104 26.5945 38.4946ZM21.6436 10.4823L21.4016 10.5348C22.6164 11.8736 24.1691 12.4194 25.8171 11.2921C26.1374 11.0543 26.3877 10.7916 26.6523 10.4956L21.6436 10.4823ZM19.8501 10.6485L18.8202 11.4554L19.261 12.5387C19.4988 13.0288 19.7398 13.5427 20.0495 13.9931C20.3561 14.439 20.7318 14.8541 21.0155 15.3119L21.1416 15.4885C21.4011 15.3808 21.6488 15.2823 21.8834 15.1244C22.3307 14.818 23.2718 13.7564 23.235 13.1766C21.9041 12.8661 20.8409 12.2904 20.1049 11.0997L19.8501 10.6485ZM28.157 10.6762C27.5269 11.8413 26.583 12.6858 25.2987 13.0609L24.7391 13.1943C24.9689 13.9694 25.4397 14.6462 26.104 15.1095C26.3187 15.2681 26.5809 15.4144 26.8368 15.4926C26.9355 15.4159 27.0245 15.2423 27.1083 15.1402C27.9943 14.0614 28.7465 12.6999 29.1051 11.3491L28.157 10.6762ZM30.3275 12.1219C29.628 14.3884 28.1506 16.2681 26.3965 17.8191L24.9603 18.9671C24.7491 19.1046 24.7249 19.0462 24.7207 19.2905L24.7118 35.4846C24.8114 35.6218 24.9617 35.725 25.09 35.8353C25.8856 36.5195 27.5988 37.7511 28.6879 37.5072L28.7185 37.5006C28.8973 37.4599 29.0667 37.3637 29.2292 37.2811L29.969 36.8972C31.9554 35.9173 33.8058 35.2927 36.0345 35.2715C35.9782 34.3883 36.0482 33.493 36.0128 32.6076L35.901 30.8551C35.7712 29.2544 35.5518 27.6316 35.2363 26.0559L34.1085 21.4915C33.5659 19.5391 33.4091 18.8027 33.4165 16.7802L33.4427 15.1077C33.4724 14.5584 33.5809 13.9941 33.5515 13.445L30.3275 12.1219ZM17.5592 12.1754L14.398 13.4675L14.5998 16.9612C14.5946 18.7289 14.4655 19.4253 14.0014 21.1014L13.2366 24.0224C12.7325 25.9586 12.411 27.9194 12.1896 29.9059L12.0655 31.2664C12.0031 32.2673 11.9582 33.2607 11.9551 34.2655C11.954 34.5936 11.9231 34.9524 11.9538 35.2774C12.4379 35.2814 12.9038 35.3066 13.3832 35.3632L14.0752 35.4761C15.4862 35.7646 16.8218 36.2582 18.1006 36.9217C18.8085 37.279 19.4427 37.7544 20.2753 37.4774C20.9275 37.2604 21.8651 36.6478 22.4238 36.2419L23.28 35.5553C23.3214 35.4292 23.2745 35.1811 23.2742 35.039L23.274 20.7991C23.2739 20.2341 23.2473 19.6525 23.2959 19.0898C20.8063 17.5404 18.6805 15.0396 17.6554 12.3011C17.6274 12.2263 17.6423 12.1773 17.5592 12.1754ZM13.0024 13.9098C11.3145 14.776 9.9926 16.1625 9.74018 18.1318C9.69574 18.4786 9.724 18.8599 9.72264 19.2104C9.72016 19.8557 9.63208 20.3144 10.171 20.7825C10.6078 21.0674 10.6209 21.0156 11.1439 21.0165L12.6146 21.0192C12.7438 20.3509 12.9979 19.7128 13.1106 19.0373C13.2107 18.437 13.2129 17.8182 13.2135 17.2112L13.2018 15.5385C13.1858 15.1671 13.1255 13.927 13.0024 13.9098ZM34.9022 13.9566C34.7858 14.6495 34.804 15.3734 34.8009 16.0761L34.8484 18.4332C34.8766 18.8112 34.8945 19.2204 35.0078 19.5854L35.0702 19.8496C35.113 20.0564 35.2995 20.8282 35.4003 21.0141L36.757 21.0163C37.0621 21.0152 37.3008 21.0548 37.5791 20.9153L37.6124 20.8993C37.7149 20.849 37.803 20.7749 37.8903 20.7021C38.284 20.2759 38.2935 19.9261 38.2915 19.3673L38.2786 18.4015C38.2172 16.9497 37.1915 15.3318 36.0521 14.51C35.8605 14.3719 35.1135 13.9252 34.9022 13.9566ZM23.9763 14.8473C23.5342 15.7249 23.0229 16.0744 22.2129 16.5172L24.022 17.9763L25.7415 16.5101C25.2609 16.2897 24.7941 15.9339 24.4725 15.5146C24.3899 15.407 24.0901 14.8566 23.9763 14.8473Z" fill="black"/>
</svg>
