<svg width="48" height="48" viewBox="0 0 48 48" fill="none" xmlns="http://www.w3.org/2000/svg">
<path d="M26.8613 41.88L26.7258 41.8491C25.7977 41.62 25.2966 40.9942 24.8484 40.2115L24.0198 38.7199C23.8832 38.8958 23.7863 39.1041 23.6784 39.2983L23.2383 40.0724C22.9251 40.6399 22.6671 41.1224 22.1103 41.4933C20.7063 42.4285 19.6827 41.7761 18.4243 41.0898L14.4376 38.8862C13.806 38.528 13.1464 38.3935 13.2131 37.5344L14.7221 23.771C14.752 23.3178 14.7287 22.8587 14.7416 22.4045L14.9161 19.418L14.9253 17.6638C14.928 15.5622 14.8364 14.2069 14.0528 12.2202L12.986 9.74732C12.5527 8.7975 12.7592 8.45058 13.6758 8.15484L17.3519 6.78853C17.9683 6.52697 17.7896 6.41578 18.5977 6.28111L20.1414 5.95983C20.784 5.81948 21.0561 6.61181 21.3977 6.98798C22.9148 8.65823 25.5782 8.4539 26.8843 6.6367C27.5823 5.66545 27.7371 5.9542 28.8283 6.17034C29.1793 6.23986 29.5456 6.26658 29.8895 6.37017C30.2023 6.46439 30.4058 6.67359 30.6932 6.80297C31.3467 7.09706 32.0459 7.32417 32.7151 7.58287L34.2185 8.08954C34.7234 8.25843 35.3396 8.46515 35.1954 9.1679L35.1854 9.21093C35.137 9.43162 35.0491 9.6337 34.9689 9.84375L34.3826 11.2189C33.266 13.7169 33.062 15.219 33.0688 17.8829L33.0787 19.2578C33.0912 19.5176 33.1635 19.7716 33.1733 20.0247L33.187 21.3309C33.1915 21.5672 33.2317 21.7975 33.2413 22.0312L33.2937 23.7656L34.7927 37.3762C34.8706 38.1033 34.7751 38.1861 34.1303 38.5814L30.0266 40.8535C28.8488 41.4794 28.2589 42.0803 26.8613 41.88ZM20.0167 7.29951C19.7199 7.35675 19.3949 7.39683 19.1087 7.49433C19.1803 8.08823 19.3351 8.76201 19.5309 9.32161L19.8648 10.3543C19.919 10.5608 20.0161 10.775 20.0977 10.9731L20.652 12.2331C21.4668 14.1104 22.567 15.3397 23.9974 16.7171C24.7139 16.2167 25.7736 14.8827 26.2439 14.1787L26.6232 13.582C26.6657 13.512 26.7196 13.3814 26.7755 13.3268C27.6653 11.7349 28.3528 10.0057 28.7461 8.22206C28.7979 7.98708 28.893 7.72664 28.9107 7.49067L28.0111 7.28297C26.3803 9.59718 23.4874 10.1787 21.1635 8.51761C20.6898 8.17898 20.3679 7.74994 20.0167 7.29951ZM17.8724 7.96758L14.1973 9.36422L14.7185 10.5C14.848 10.7663 14.9855 11.0436 15.082 11.3232L15.7861 13.4309C15.9573 13.9819 15.998 14.6031 16.0397 15.1769L16.0897 15.6284C16.166 16.8202 16.122 18.0337 16.1206 19.2288L16.1183 20.6427C16.1169 21.0163 16.1258 21.4202 16.0516 21.7874L14.4901 37.4379C14.7433 37.6115 15.0271 37.7374 15.2955 37.8867L19.1203 39.9937C19.7942 40.3527 20.3993 40.8514 21.1876 40.5061L21.2231 40.4907C21.3806 40.4209 21.5034 40.3207 21.626 40.2023C21.7103 40.1089 21.7788 40.0132 21.8452 39.9065L23.2755 37.4162C23.4477 37.1071 23.4219 37.1783 23.4221 36.7935L23.406 35.8243C23.1643 35.7463 22.8907 35.6388 22.7691 35.3988L22.7399 35.3396C22.4312 34.6872 23.403 34.4478 23.4373 34.407L23.4269 32.9001C22.6452 32.6182 22.411 31.8415 23.1588 31.5429C23.2515 31.5059 23.3848 31.5117 23.4832 31.5168C23.4524 31.218 23.5052 30.9395 23.4898 30.6473C23.4813 30.4864 23.4005 30.3413 23.3993 30.1758C23.3961 29.7396 23.4668 29.2757 23.403 28.844C22.333 28.6519 22.5058 27.5331 23.4408 27.5366L23.4313 26.7365C23.4309 26.5548 23.4413 26.3689 23.4108 26.1894C22.5412 25.8675 22.447 24.9058 23.4337 24.8655L23.439 23.2852C23.3997 23.2626 23.3693 23.2535 23.3261 23.2438C22.528 23.0662 22.4508 22.0344 23.4194 21.9529L23.4214 18.3659C23.4214 18.1972 23.4907 17.9529 23.3507 17.8265C23.0131 17.5215 22.6525 17.2382 22.3339 16.9102C20.3535 14.8708 19.1173 12.4127 18.3138 9.71906L17.8724 7.96758ZM30.1226 7.94723L29.6247 9.96815C28.8061 12.7515 27.2818 15.4837 25.1117 17.4442C25.0129 17.5334 24.8988 17.658 24.7845 17.7243L24.763 17.7352C24.5441 17.8567 24.6316 18.2176 24.6315 18.4266L24.6314 19.6558C24.7329 19.6926 24.8376 19.6973 24.9376 19.7304C25.4935 19.9144 25.4257 20.6862 24.9137 20.8744C24.8226 20.9079 24.7096 20.8979 24.6347 20.9586L24.6324 22.3418C24.8639 22.4347 25.099 22.5377 25.2211 22.7695L25.2355 22.7949C25.5133 23.2934 25.0636 23.6512 24.6112 23.6934L24.6345 25.0213C24.8391 25.1084 25.0873 25.1571 25.2043 25.3695L25.2207 25.4062C25.4751 25.9284 25.1887 26.3527 24.6142 26.4037L24.6285 27.5666C24.6949 27.6037 24.7561 27.6342 24.8279 27.6595C25.3774 27.8527 25.4693 28.6522 24.8907 28.8512L24.6279 28.9247L24.6387 29.8927C24.7047 29.9212 24.7681 29.9483 24.8371 29.9684C25.3735 30.1237 25.6664 31.0887 24.635 31.2297L24.6337 32.025C24.7261 32.0725 24.8216 32.0839 24.9161 32.1211C25.5001 32.3509 25.5006 33.2753 24.6178 33.334L24.6331 34.5885C24.8592 34.659 25.0918 34.7347 25.2085 34.9602L25.242 35.0253C25.3886 35.3136 25.2421 35.7381 24.9397 35.8658L24.6291 35.9493C24.6349 36.7631 24.4487 36.9876 24.8735 37.6582L26.0321 39.6931L26.2504 40.0436C26.4533 40.3084 26.7329 40.5353 27.0704 40.5958L27.0992 40.6012C27.696 40.7047 28.1099 40.407 28.6136 40.1419L33.5328 37.4227L32.0307 23.9935C31.9748 23.2987 31.9912 22.7139 31.9622 22.0312C31.9541 21.8422 31.9003 21.6583 31.8927 21.4668L31.8876 15.7522C31.8957 15.6003 31.9321 15.4546 31.9473 15.3047L32.072 14.1605C32.2773 12.8197 32.8503 11.5941 33.3652 10.3532L33.6583 9.66717C33.7038 9.56348 33.7783 9.44226 33.7954 9.33215L31.0547 8.34379C30.7475 8.21939 30.4125 8.10534 30.1226 7.94723Z" fill="black"/>
</svg>
