<svg width="48" height="48" viewBox="0 0 48 48" fill="none" xmlns="http://www.w3.org/2000/svg">
<path d="M31.2707 45.891C30.1561 46.1253 29.1022 46.1942 27.9688 45.9974C27.8417 45.9753 27.6247 45.8999 27.5041 45.9258C27.0928 46.014 26.1539 46.01 25.6322 46.0344L21.0822 46.0371C20.8554 46.027 20.6379 45.9782 20.4122 45.9609L18.2172 45.7624C16.1503 45.5026 13.2811 45.0468 12.2038 43.0129C12.0397 42.7032 12.0256 42.4981 12.0253 42.1602L12.035 40.2999C12.0404 40.1547 12.0686 40.0122 12.0743 39.867L12.2677 37.2306C12.439 35.5121 12.7365 34.6092 13.185 32.9708C13.3778 32.2668 13.5134 31.5409 13.5148 30.811L13.569 28.9014C13.5971 24.2025 12.3272 18.0749 7.94928 15.5098C7.32959 15.1467 6.69828 14.8572 6.04691 14.559C4.24002 13.7318 4.18586 13.6507 4.95734 12.0618C5.29072 11.3753 5.63853 10.6696 5.90384 9.95373C6.09814 9.42958 6.13977 8.87097 6.35839 8.35942C7.14209 6.52576 8.6713 5.32375 10.6126 5.00636C11.0894 4.92841 11.5806 4.92517 12.0586 4.85941C13.9288 4.6021 17.0814 4.168 18.2762 2.57453C18.5344 2.23015 18.6231 1.98542 19.0804 1.90249C19.4921 1.91429 19.6224 2.06251 19.8594 2.37061L20.1329 2.69917C22.3433 5.32975 25.9066 5.14291 28.0386 2.4793C28.2087 2.26674 28.3064 2.04386 28.5802 1.95146L28.6172 1.93941C28.8204 1.87179 29.0498 1.88725 29.2235 2.02373L29.2486 2.04408C29.4093 2.17034 29.5179 2.35294 29.6426 2.51318C31.0521 4.3255 34.7127 4.69825 36.8336 5.05037C37.5038 5.16166 38.2265 5.24608 38.8579 5.50651C39.9932 5.9748 41.0213 6.97539 41.4386 8.14464L41.5387 8.49494C41.6634 8.86666 41.6496 9.26941 41.8153 9.63292C41.9478 9.92378 42.1651 10.1918 42.3209 10.4744C42.5697 10.9255 42.7873 11.4037 42.9931 11.8756C43.2531 12.472 43.8458 13.4533 43.2305 14.0017C42.9965 14.2102 42.5394 14.3165 42.2461 14.4369L40.3456 15.385C36.4481 17.6402 34.5616 22.6004 34.4286 26.9558L34.4273 28.8985C34.4335 29.1047 34.4653 29.3074 34.4681 29.5147L34.4808 30.8891C34.511 31.4033 34.629 32.3279 34.8082 32.8135L35.2671 34.269C35.3024 34.3521 35.3141 34.4435 35.3371 34.5306L35.4841 35.1329C35.7266 36.2287 35.9263 37.6766 35.9737 38.8149L35.9847 42.4314C35.9856 43.1245 35.9743 43.4005 35.47 43.8774C34.3291 44.9566 32.7733 45.5277 31.2707 45.891ZM28.8541 3.9962C28.7368 4.17205 28.5275 4.33381 28.3681 4.47339C26.0512 6.50369 22.4273 6.79891 20.0224 4.77456C19.7222 4.52185 19.4498 4.19515 19.11 3.99691C18.7744 4.36776 18.7475 4.27268 18.9656 4.73387C19.373 5.59548 20.0833 6.35359 20.7752 7.003C21.8375 7.92039 22.9121 8.96219 23.6783 10.1502C23.7701 10.2925 23.8492 10.4399 23.9591 10.5701C24.5124 9.36114 25.2344 8.25465 26.2707 7.40561C27.5922 6.32289 28.3923 6.1938 29.3952 4.49982L29.0151 4.13615C28.9796 4.10026 28.9024 4.00166 28.8541 3.9962ZM17.431 5.28526L16.7818 5.49573C16.7825 5.91986 16.8508 6.73445 17.0074 7.14658L17.1026 7.48539C17.8304 9.63128 19.0883 11.2329 21.1644 12.2687L22.8063 12.9275L23.3316 13.0562C23.0467 11.6001 21.9948 10.3516 20.9624 9.32322L19.9587 8.40292C18.9667 7.48741 18.0368 6.53955 17.4913 5.28555C17.4714 5.28512 17.4509 5.28362 17.431 5.28526ZM30.763 5.26244C29.9794 6.65603 29.4158 7.10847 28.1082 8.01269C26.6002 9.05556 25.7059 10.1456 25.1526 11.8664C25.0568 12.1643 24.6943 13.2646 25.0078 13.4956L25.2359 13.3985C27.553 12.3843 29.6641 10.7512 30.6104 8.32033C31.0001 7.31926 31.1352 6.48034 31.1427 5.42973C31.0201 5.34601 30.8874 5.33294 30.763 5.26244ZM15.2356 5.89464L12.19 6.41912C11.7264 6.49356 11.2415 6.49431 10.7813 6.58037C9.28817 6.85966 8.01528 8.09397 7.60953 9.54058C7.56256 9.70797 7.54002 9.88122 7.49131 10.0498C7.20041 11.057 6.66617 11.9573 6.33252 12.944C6.67503 13.1374 7.05195 13.288 7.40905 13.4537L8.49524 14.0208C10.5668 15.23 12.0944 17.034 13.1417 19.1903L13.7069 20.4694L14.3823 22.543C14.5564 23.017 14.6333 23.6059 14.732 24.1013C15.0988 25.9443 15.0913 27.797 15.09 29.667L15.0873 31.053C15.0749 32.8407 14.4616 34.0438 14.0743 35.7359C13.8695 36.6306 13.8004 37.5783 13.7277 38.4918L13.6364 39.5368C13.569 40.2119 13.5753 40.8645 13.5732 41.5447L13.5735 42.0513C13.5794 43.2089 16.3371 43.8916 17.2174 44.0065C17.4326 44.0492 17.6432 44.0637 17.8594 44.0939L21.8895 44.4349L25.0742 44.416C24.971 44.3713 24.9153 44.2888 24.8299 44.2197L24.4147 43.907C22.7879 42.691 21.6957 41.4553 21.2713 39.3649C21.1608 38.8207 21.1946 38.2954 21.1944 37.741L21.1929 20.1724C21.1926 19.8316 21.1722 19.4782 21.2014 19.1389C21.379 17.077 22.3079 16.2565 23.3191 14.7365C22.8878 14.6182 22.4466 14.5202 22.0237 14.3747C18.3644 13.1151 15.8399 10.3378 15.3199 6.41275C15.3043 6.29486 15.354 5.92994 15.2356 5.89464ZM32.7279 5.89464C32.5113 8.65726 31.3195 10.9533 29.1883 12.772C28.3624 13.4769 27.4569 14.1453 26.4739 14.614L25.6103 14.9913C25.0633 15.22 25.1585 15.1963 24.7424 15.5947C23.0125 17.2508 22.751 18.5352 22.7513 20.7366L22.7514 37.8548C22.7515 38.1786 22.7306 38.5149 22.7657 38.836L22.7699 38.8764C23.0338 41.2633 25.2477 42.5926 27.0623 43.7588C27.3393 43.9368 27.572 44.0415 27.7295 44.3381C28.1479 44.3599 28.5553 44.4575 28.9754 44.489C29.7618 44.548 30.5639 44.4215 31.3243 44.2247L31.8977 44.0526C32.1463 43.9868 32.3938 43.8599 32.6297 43.7567C33.0648 43.5478 34.1099 43.0417 34.4249 42.6865L34.347 38.4498C34.2824 37.4963 34.1879 36.544 34.0229 35.6017C33.8617 34.6813 33.563 33.8062 33.3359 32.9038C32.8842 31.1093 32.767 28.7035 32.9749 26.836L33.2368 24.5584C33.5764 22.5115 34.1908 20.4517 35.1854 18.6218L35.6667 17.8319C36.7702 16.0575 38.1415 14.7509 39.9782 13.7442L40.6971 13.3869C40.8392 13.3213 41.7173 12.9711 41.761 12.9003C41.5878 12.4968 41.4164 12.1024 41.1996 11.7198C40.8542 11.1103 40.3364 10.4218 40.2459 9.70576C40.2192 9.49506 40.2283 9.28487 40.1863 9.07487C39.9843 8.0665 39.2405 7.28992 38.2954 6.91759C37.8102 6.72648 37.2846 6.7023 36.7735 6.63151L32.7279 5.89464Z" fill="black"/>
<path d="M33.167 18.8234L27.7395 18.8258C27.4939 18.8255 27.2321 18.8421 26.9884 18.8094C26.2343 18.7083 26.1902 17.3613 27.2405 17.2619L31.1992 17.2614C31.6239 17.2615 33.0276 17.1581 33.3431 17.3231L33.3749 17.341C34.0486 17.6968 33.9688 18.6528 33.167 18.8234Z" fill="black"/>
</svg>
