<svg width="48" height="48" viewBox="0 0 48 48" fill="none" xmlns="http://www.w3.org/2000/svg">
<path d="M21.101 44.0273C20.0401 44.5308 19.1188 43.8838 18.2021 43.3954L16.4166 42.4908C14.958 41.8258 13.511 41.6297 12.0903 40.7039C10.4853 39.6581 9.42196 37.7998 9.21487 35.9113C9.03079 34.2326 9.63642 32.9605 9.9179 31.3384C10.0005 30.862 10.0278 30.3636 10.0648 29.8814L10.14 29.1259L10.1442 25.8308L10.0676 24.8912C10.0507 24.6711 10.0491 24.4519 10.0231 24.232L9.89821 23.2335C9.73917 22.1129 9.73612 22.0088 10.6786 21.6473C11.6831 21.2619 12.0476 20.048 12.2027 19.0892C12.4698 17.4386 12.376 15.8151 11.8387 14.2171C11.6369 13.6172 11.2662 13.1216 11.0062 12.5531C10.529 11.5091 10.2153 10.3253 10.0178 9.19597C9.83161 8.13083 9.78248 7.68439 10.9011 7.58858L11.7604 7.50003C13.5412 7.27133 15.2555 6.61227 16.7743 5.66483C17.1738 5.41559 17.11 5.54577 17.3278 5.11405C17.7221 4.33236 18.7922 3.70098 19.6622 3.8357C20.3095 3.93594 20.944 4.17282 21.5902 4.30086C23.0935 4.59869 24.7975 4.62774 26.2989 4.30388C26.777 4.20077 27.235 4.03028 27.708 3.9218L28.2548 3.80426C29.3346 3.65814 30.2355 4.37014 30.7359 5.25978C30.8354 5.43664 30.8617 5.44677 31.0365 5.54727L31.4374 5.78553C32.9475 6.71253 34.4408 7.20303 36.1974 7.48962L36.8809 7.58258C37.3106 7.62087 37.7448 7.52187 37.9812 7.98523L37.9956 8.01434C38.3096 8.61528 37.329 11.8703 37.0402 12.4632C36.3524 13.875 35.9043 14.4644 35.7151 16.1006L35.6691 16.772C35.5613 18.3117 35.7494 21.0065 37.3465 21.6605C38.3339 22.0649 38.216 22.2691 38.0623 23.2974L37.9789 24.0277C37.9243 24.5103 37.887 25.0143 37.8663 25.5001L37.8524 29.097C37.8749 29.6647 37.9451 30.2337 38.0169 30.7969L38.1559 31.8856C38.2159 32.2443 38.3504 32.5777 38.4212 32.927L38.5397 33.3753C39.4637 36.1801 38.0251 39.5293 35.4641 40.951C34.0427 41.7401 32.4775 42.2196 30.9919 42.8622L29.99 43.3252C28.4369 44.1281 27.6092 44.7582 26.1072 43.5545L24.2896 41.9672L21.101 44.0273ZM28.3504 5.33089C28.2232 5.36084 28.1998 5.3915 28.1286 5.50611L25.6519 9.88016C25.8634 10.2952 26.0816 10.8181 26.4113 11.1494C26.5634 11.1958 26.731 11.197 26.8891 11.2055C26.9805 11.2035 27.094 11.2173 27.1696 11.1599L28.7346 8.04476C28.9874 7.55773 29.2588 7.07309 29.4721 6.56722C29.7645 5.87394 28.9938 5.30234 28.3504 5.33089ZM19.2601 5.34852C18.8042 5.50752 18.5307 5.84919 18.4217 6.30655C18.599 6.7985 18.8604 7.26912 19.0965 7.73553L20.6496 10.8092C20.8696 11.2868 20.8609 11.3 21.4745 11.1723C21.7916 11.0614 22.083 10.382 22.2289 10.081L22.3138 9.89802L20.0389 5.69169C19.8746 5.37378 19.6057 5.32845 19.2601 5.34852ZM21.9047 5.88205L22.4109 6.86075C22.8117 7.71209 23.5485 8.76533 23.8469 9.58672C23.9544 9.58517 24.0777 9.59534 24.1814 9.56628C24.3166 9.07001 24.6387 8.61247 24.9028 8.17447L26.1467 5.88791L25.3818 5.98977C24.5096 6.06622 22.7749 6.12252 21.9047 5.88205ZM17.1149 7.25398L15.3719 8.09164C14.2337 8.5722 12.7478 8.94767 11.535 9.05037C11.7918 10.0744 11.8328 10.8018 12.3215 11.8369C12.5296 12.2777 12.8486 12.6777 13.0214 13.1307C13.5555 14.5306 13.8383 15.906 13.8487 17.4131C13.8615 19.2781 13.3122 22.0347 11.5282 22.9234C11.5104 22.9323 11.3913 22.9827 11.385 22.9939C11.3644 23.0304 11.6529 24.7743 11.6647 26.3157L11.6658 28.2839C11.6644 28.752 11.6798 29.2316 11.6244 29.697L11.3509 31.7344C11.3305 31.8641 11.3257 31.9963 11.3003 32.1252L11.0599 33.1876C10.6867 34.5312 10.521 35.2512 10.8865 36.6672L11.1022 37.2442C11.7328 38.6349 12.7853 39.493 14.186 40.0534L16.8324 40.9928L19.5509 42.3743C20.3091 42.7807 20.5175 42.6767 21.246 42.1899L23.0202 41.0076C23.0858 40.967 23.2079 40.9088 23.2516 40.8471C22.6387 40.1001 22.6445 39.8584 22.6527 38.9559L22.6534 24.0899C22.6528 22.6252 22.7016 21.995 23.1967 20.5778L23.3922 20.0146C23.5013 19.7157 23.4142 19.7384 23.267 19.4474L17.6442 8.18637C17.5039 7.89106 17.366 7.50669 17.166 7.25014L17.1149 7.25398ZM30.8308 7.22436L26.0992 16.7784C25.6338 17.771 25.381 18.3934 25.1442 19.4884C24.9788 20.2533 24.9717 20.2141 24.6437 20.9347C24.1027 22.1232 24.1598 23.434 24.1603 24.7076L24.1604 39.6854C24.2833 39.9143 24.5276 40.1194 24.7191 40.2918L26.3343 41.7357C26.6567 42.0282 27.0901 42.5731 27.5395 42.659L27.5663 42.6644C27.9441 42.7324 28.3901 42.4345 28.7099 42.2688L31.5509 41.0164C32.1523 40.7912 32.7191 40.501 33.3051 40.2415C33.7727 40.0345 34.2629 39.8674 34.7163 39.6303C36.6737 38.6064 37.6133 36.3084 37.1996 34.1855L36.7935 32.5214C36.4203 30.7806 36.3487 29.3668 36.3491 27.6045L36.4632 24.4834C36.5035 23.9871 36.5373 23.4959 36.617 23.0032C34.9303 22.072 34.4163 20.4386 34.2228 18.601C34.0182 16.6591 34.2374 14.4261 35.1959 12.695C35.9352 11.3599 36.2141 10.664 36.4072 9.06144C34.9528 8.87773 33.5416 8.53119 32.2046 7.92083L30.8308 7.22436ZM24.7992 11.3675C24.7533 11.5389 24.7375 11.7102 24.73 11.886L24.7253 15.5179C24.7257 15.6941 24.7029 15.9097 24.7547 16.0792C24.9717 15.7855 25.0927 15.3487 25.2424 15.0126L26.3859 12.7384L26.3279 12.7175C25.5373 12.8318 25.1385 11.8833 24.7992 11.3675ZM23.2028 11.3966C22.8933 11.9213 22.6225 12.5029 21.9879 12.6697C21.8557 12.7044 21.7151 12.71 21.586 12.7484L22.6644 14.8258L22.9703 15.422C23.0123 15.5171 23.0452 15.5871 23.1081 15.668L23.1641 15.7714C23.1929 15.8178 23.2114 15.8623 23.2306 15.9133L23.2439 13.4743C23.2445 12.781 23.2666 12.0867 23.2028 11.3966Z" fill="black"/>
</svg>
