<svg width="48" height="48" viewBox="0 0 48 48" fill="none" xmlns="http://www.w3.org/2000/svg">
<path d="M28.3658 40.8563C27.416 41.2722 26.9703 41.7923 26.1496 40.8397L24.0229 38.4119C23.7265 38.674 23.4777 39.0171 23.2159 39.3151L22.3139 40.3123C21.9561 40.7312 21.4508 41.5387 20.7868 41.3768L20.7543 41.3682C20.2023 41.2275 19.6397 40.8791 19.1346 40.6163L16.9205 39.4508C15.0659 38.4566 13.2815 37.5751 12.8797 35.1912C12.7584 34.4718 12.7955 33.7333 12.7951 33.0063L12.7849 28.4437L12.664 25.3338C12.6519 25.0684 12.6024 24.8048 12.5864 24.5389C12.3794 21.0893 11.7667 16.2054 9.55587 13.4069C9.41956 13.2344 9.25803 13.078 9.12711 12.9023C8.57258 12.1584 8.60759 11.0199 9.11398 10.2676C9.86061 9.15863 10.9073 9.26171 12.0458 9.14396C13.7727 8.96541 16.2213 8.46615 17.4961 7.17676C17.7765 6.89312 17.8603 6.71368 18.2692 6.61252C18.3278 6.60709 19.3794 6.70454 19.3935 6.71148C19.6565 6.84104 19.8477 7.13345 20.0557 7.33651C22.0227 9.25627 26.0442 9.09371 27.987 7.26934C28.1785 7.08952 28.3291 6.84652 28.5662 6.72427C28.6758 6.66779 29.5852 6.58707 29.6945 6.62307L29.7191 6.6316C30.1553 6.76393 30.3845 7.26221 30.7589 7.51941C32.091 8.43456 33.7909 8.86098 35.3688 9.08551L36.7595 9.27099C37.1559 9.32987 37.5692 9.37627 37.9348 9.55323C38.9882 10.0629 39.5337 11.3221 39.125 12.4267C38.9063 13.0178 38.4417 13.4194 38.0954 13.9319C36.5225 16.2593 35.9633 19.1335 35.6365 21.8769L35.3427 25.24L35.2585 27.1522L35.2228 34.1373C35.2211 34.3538 35.2314 34.5829 35.1832 34.795L34.9616 35.7896C34.3548 37.8968 32.5308 38.6707 30.7653 39.5751L28.3658 40.8563ZM18.597 8.01554C17.2593 9.34445 15.2785 10.0374 13.4584 10.3495L11.7748 10.5556C11.2213 10.6156 10.3225 10.4838 10.1051 11.2728L10.0685 11.4299C9.98061 11.8362 10.3339 12.1228 10.5474 12.4123C11.3646 13.5203 12.2986 15.3115 12.6736 16.6639L12.9478 17.5955C13.0043 17.8628 13.0745 18.1375 13.1392 18.4041L13.4094 19.8045C13.4242 19.8826 13.4484 19.9574 13.458 20.0367L13.5518 20.7697C13.6011 21.2261 13.6661 21.6772 13.7135 22.1341L13.9812 25.6757C13.9938 25.8527 14.0359 26.0261 14.0443 26.2029L14.1162 29.7254C14.1196 29.9061 14.1656 30.0779 14.1698 30.2596L14.1838 33.2735C14.1874 33.5461 14.2118 33.495 14.4645 33.6027C14.6085 33.6641 14.754 33.7647 14.894 33.8385L16.881 34.9033L20.711 36.9424C21.5253 36.4699 22.471 35.6378 23.2918 35.0405L23.288 21.6094C23.2895 21.4631 23.3324 21.2837 23.2428 21.1585C21.588 18.8469 20.0468 14.967 19.4439 12.2781L19.062 10.16C19.0051 9.74438 18.9587 9.31993 18.9578 8.90077L18.958 8.12593C18.8361 8.06087 18.7172 8.06471 18.597 8.01554ZM29.2422 8.00715C29.1257 8.0753 29.0122 8.1414 28.9065 8.22601C29.4362 11.5479 27.2051 16.9614 25.6015 19.7602L25.0292 20.7484C24.9627 20.8538 24.8996 20.9762 24.8228 21.0729L24.7858 21.1133C24.7171 21.1879 24.7078 21.2393 24.7049 21.3403L24.6966 34.7618C24.6959 34.8762 24.6555 34.9981 24.7066 35.1057C25.5815 35.6045 26.4769 36.5944 27.2439 36.9645L31.1331 34.8269L32.8363 33.8658C33.175 33.6746 33.5448 33.501 33.8573 33.2696C33.8178 32.5584 33.8468 31.8337 33.8473 31.1204L33.8626 28.5055C33.8719 28.2807 33.9173 28.0589 33.9262 27.8319L33.9495 26.1335L34.3068 21.8436C34.6262 18.8464 35.2213 15.8135 36.9245 13.2666L37.4158 12.5868C37.7125 12.208 38.0332 11.9042 37.9067 11.3894L37.8981 11.3529C37.7143 10.6171 36.6858 10.6171 36.0979 10.5628L35.3179 10.4736C33.6735 10.2958 31.6164 9.69465 30.2436 8.80065C29.8829 8.56566 29.5728 8.2793 29.2422 8.00715ZM27.6354 9.12873C25.5907 10.1247 23.7445 10.4379 21.4926 9.66798L20.2958 9.15221C20.2984 9.45732 20.3555 9.75737 20.3976 10.0589L20.7749 12.1261C20.8241 12.3451 20.8655 12.5958 20.9443 12.8047L21.4251 14.367L22.4128 16.8104L23.9903 19.8428L25.1323 17.7606C25.7313 16.5515 26.2584 15.2605 26.6636 13.9731L27.278 11.6498C27.4671 10.8534 27.7013 9.95996 27.68 9.13313L27.6354 9.12873ZM33.7915 34.9137C33.4081 35.0987 33.0532 35.333 32.6798 35.5365L29.0783 37.532C28.5984 37.7928 28.1267 38.1238 27.6097 38.3034L27.579 38.3146C26.3457 38.7398 25.2857 36.901 24.2828 36.4319C23.6758 36.1479 23.0616 36.8709 22.6494 37.2356C21.975 37.8322 21.0388 38.6587 20.111 38.2025L14.9266 35.399C14.6954 35.2652 14.4603 35.1139 14.213 35.0131C14.3373 35.6724 14.7053 36.207 15.1239 36.7175C15.9296 37.6011 17.1878 38.0752 18.227 38.6153C19.0926 39.0651 19.9329 39.5568 20.8403 39.9229L21.4915 39.1808C21.9444 38.6463 23.4567 36.6238 24.2699 36.983L24.2971 36.9945C25.0972 37.3498 26.5709 39.236 27.1561 39.9106C27.8517 39.6479 28.5112 39.2288 29.1703 38.8867L31.2282 37.7969C32.5093 37.1014 33.4837 36.52 33.7915 34.9137Z" fill="black"/>
</svg>
