<svg width="48" height="48" viewBox="0 0 48 48" fill="none" xmlns="http://www.w3.org/2000/svg">
<path d="M30.5094 41.9369L29.3323 41.9793C27.5685 41.9815 25.9296 41.5796 24.6973 40.1983C24.4395 39.9093 24.245 39.6009 24.0219 39.2883L23.7572 39.6682C22.5214 41.3852 20.7765 41.9804 18.7639 41.9793C16.5479 41.9779 14.31 41.7236 12.218 40.9647C10.8465 40.4672 10.7712 40.4961 10.866 39.011L11.563 29.4384L11.5718 26.1219C11.5697 25.8577 11.5784 25.5828 11.5346 25.322L11.3332 23.6135C11.0909 22.1395 10.4952 20.7687 10.2126 19.3073C10.0322 18.374 10.4513 18.3073 11.1951 17.8812C12.807 16.9576 13.4624 15.643 13.6177 13.8518L13.6851 12.3236C13.6874 10.4186 13.5195 9.73329 12.9503 7.98148C12.7917 7.49346 12.9149 6.98721 13.4626 6.82343L13.497 6.8135C13.6443 6.7691 13.7872 6.76699 13.9373 6.7422L19.1275 6.0552C19.7897 5.90581 20.0037 6.77173 20.2334 7.2072C22.1838 10.9053 25.9959 10.884 27.9224 6.90115C28.446 5.81867 28.6177 6.05712 29.6469 6.1737L34.0177 6.72162C34.3991 6.7819 34.7684 6.78485 34.9503 7.20017L34.9679 7.2424C35.1352 7.61553 34.9773 7.96667 34.8669 8.32592L34.5964 9.31662C33.9875 12.0792 33.7985 17.0407 37.2298 18.0096C37.371 18.0495 37.5392 18.0668 37.6627 18.1491L37.687 18.1665C38.1974 18.5235 37.9421 18.8946 37.8704 19.2791C37.6853 20.2713 37.5993 21.2671 37.3374 22.246L36.657 24.3049C36.0748 26.0985 36.1219 27.2708 36.2681 29.1075L36.8418 36.124L37.2065 39.6409C37.2373 39.8963 37.2451 40.1787 37.0659 40.3841C36.5092 41.0223 33.4859 41.6002 32.6831 41.7234L30.5094 41.9369ZM17.8157 7.62912L14.4613 8.0546C14.9002 9.35768 15.0704 10.6434 15.0712 12.0194L15.0641 13.4216C14.9157 16.1354 14.0127 17.9896 11.623 19.2363L11.8472 20.1155C11.8839 20.2403 11.8966 20.3718 11.9436 20.4927L12.2264 21.406C12.6398 22.5508 12.8936 24.3587 12.9402 25.5474L12.9235 30.0708C12.9128 30.2488 12.8745 30.4234 12.8584 30.6007L12.7151 32.9383L12.2593 38.9772C12.2459 39.1182 12.2177 39.286 12.2402 39.4261C13.4473 39.949 14.6881 40.2964 16.0016 40.4232L18.3647 40.5207C20.5143 40.5199 21.4295 40.3795 22.8705 38.4455C22.9784 38.3007 23.2908 37.9472 23.3469 37.8285L23.354 16.0398C23.3535 15.759 23.448 15.5656 23.1728 15.4114C22.5077 15.039 20.9928 13.5041 20.5071 12.9271C19.4521 11.6739 18.0497 9.341 17.8706 7.64993L17.8157 7.62912ZM29.9487 7.63493C29.3257 10.4081 28.5133 12.0226 26.4019 14.0945C25.9507 14.5373 25.4597 15.0453 24.9243 15.3834L24.7505 15.4883L24.7475 37.5067C24.7471 37.8998 24.7353 37.8258 24.9592 38.1457C25.8673 39.4436 26.8172 40.5149 28.5263 40.5196L29.268 40.5203C29.9234 40.5202 30.6005 40.5517 31.2533 40.4949C31.6951 40.4564 32.1377 40.3634 32.5783 40.307C33.8096 40.1171 34.7164 39.8045 35.864 39.4734L35.1506 31.1838C34.9276 28.4113 34.5472 26.6757 35.3773 23.9486L35.9767 22.0755C36.1264 21.5148 36.4455 19.8082 36.4302 19.2018C34.2758 18.3007 33.2441 16.1812 33.0276 13.938C32.988 13.5272 33.0154 13.0913 33.0154 12.6768L33.0214 11.1455C33.0682 10.1177 33.2724 9.04376 33.5434 8.05587L29.9487 7.63493ZM19.902 9.25517L20.0645 9.6799C20.2167 10.0295 20.4452 10.3863 20.6511 10.7075L21.1153 11.4144C21.7187 12.2448 22.4309 12.9573 23.2111 13.6201L23.73 14.0349C23.8235 14.1141 23.9064 14.2107 24.0149 14.2692C25.14 13.4248 26.193 12.4166 26.9757 11.2411C27.3815 10.6417 27.7327 9.99593 27.9669 9.30978L27.9466 9.3349C26.0295 11.686 23.1221 12.05 20.7683 10.0966L19.902 9.25517Z" fill="black"/>
</svg>
