<svg width="48" height="48" viewBox="0 0 48 48" fill="none" xmlns="http://www.w3.org/2000/svg">
<path d="M19.8335 40.6367C19.3857 40.6908 19.0494 40.5748 18.6288 40.4381L13.771 39.0821C12.0801 38.5171 9.75372 37.4398 9.17556 35.6496C8.96547 34.9992 9.11983 34.3731 9.1907 33.7193L10.1848 25.6718C10.247 25.0218 10.0518 23.8965 10.1534 23.4615C10.2744 22.9438 10.7441 22.8324 11.1326 22.5722C12.121 21.9104 12.7557 20.7905 13.0193 19.6515L13.1347 19.0447C13.1932 18.635 13.229 18.2387 13.2323 17.8234L13.2346 16.6158C13.2314 16.1254 13.2067 15.6589 13.1058 15.1775C12.8991 14.1917 12.5806 13.2829 12.0765 12.4096C11.9318 12.159 11.7008 11.9233 11.623 11.6403C11.4188 10.8981 11.9691 10.5878 12.6065 10.5904C14.1998 10.5968 15.3069 10.3548 16.7522 9.76616C17.6624 9.39547 18.3265 8.47274 18.8336 7.6709C19.0854 7.27269 19.7251 7.13066 20.0482 7.52141C20.2392 7.75246 20.3355 8.11705 20.4571 8.39122C21.2356 10.1466 22.4773 10.7098 23.9968 11.6691C24.3669 11.4156 24.7628 11.2248 25.1447 10.9928C26.2805 10.3031 27.1569 9.3344 27.6591 8.10566C27.8335 7.67901 27.9039 7.40465 28.4048 7.26829C29.0525 7.2088 29.204 7.73568 29.5079 8.19219C30.6882 9.96519 32.6828 10.5938 34.7438 10.5952L35.3328 10.5882C35.8025 10.571 36.1772 10.6083 36.3895 11.0948L36.401 11.1217C36.607 11.5889 36.1743 11.9993 35.9558 12.366C34.9109 14.1198 34.6818 16.1826 34.7955 18.1886L34.8757 19.1046C34.9864 20.4502 35.7538 21.696 36.8084 22.5099C37.1671 22.7868 37.7193 23.0023 37.8348 23.4861L37.8411 23.5133C37.9256 23.8399 37.8081 25.4414 37.849 25.9693L38.8629 34.0117C38.8822 34.1869 38.8903 34.3812 38.9288 34.5522C39.2407 35.939 37.9048 37.162 36.9103 37.8646C34.986 39.2243 32.6709 40.0333 30.38 40.5167C29.0798 40.7911 27.9197 41.0602 26.8055 40.0625C26.1875 39.5091 25.927 38.8675 25.8863 38.0475L24.005 36.2594L22.3089 37.8953C22.0288 38.1576 22.1065 38.5231 21.9988 38.8708L21.9874 38.9068C21.7699 39.6097 21.1871 40.2686 20.484 40.4993L20.4433 40.5123C20.2406 40.5795 20.044 40.6069 19.8335 40.6367ZM19.3625 9.43419L19.3408 9.4723C19.2137 9.68812 18.9808 9.92671 18.7955 10.0971L18.4563 10.3861C18.3461 10.4799 18.3359 10.4647 18.375 10.6178L18.4103 10.7136C19.0985 12.4734 20.2401 13.3613 21.9026 14.2154L22.9119 12.7586L21.4981 11.8383C20.6472 11.2395 19.8544 10.3703 19.3957 9.43644L19.3625 9.43419ZM28.595 9.43419C28.2967 10.3446 27.1006 11.4598 26.352 11.9756L25.1065 12.7519L26.0114 14.256C26.0694 14.2622 26.1207 14.217 26.1711 14.1884L27.0182 13.7091C28.1228 13.0154 29.324 11.8625 29.6733 10.5488L29.689 10.4857C29.4812 10.3043 29.2553 10.1349 29.0591 9.94199C28.9767 9.8609 28.6846 9.43719 28.595 9.43419ZM17.04 11.192C16.4095 11.4824 15.7603 11.6718 15.0818 11.8128L14.3699 11.94C14.0813 12.0044 13.7801 11.9742 13.4906 12.0258C13.9809 12.8991 14.3191 13.9013 14.475 14.887C14.5247 15.2018 14.5933 15.7478 14.6027 16.072L14.6207 16.82C14.6275 17.8012 14.6545 18.7975 14.478 19.7662C14.1956 21.3148 13.2438 23.0223 11.8575 23.811C11.4175 24.0613 11.5015 23.9971 11.563 24.5311C11.6163 24.994 11.6282 25.4923 11.5981 25.9581L10.7267 32.8977C10.6551 33.4624 10.3428 34.6431 10.5213 35.1766C10.8411 36.1327 12.006 36.7453 12.8627 37.1595L14.4425 37.7801L18.977 39.0427C19.3877 39.1811 19.6813 39.3063 20.0955 39.0811C20.4874 38.8679 20.7227 38.4085 20.7302 37.9695L20.7345 15.9756C20.734 15.7205 20.7507 15.443 20.7013 15.1923L20.68 15.1849C20.4675 15.1068 20.2625 14.9467 20.0696 14.8269C18.8145 14.0471 17.4385 12.6905 17.1014 11.1869L17.04 11.192ZM30.9351 11.2898C30.3332 12.6904 29.4564 13.8785 28.1514 14.699C27.9417 14.8308 27.401 15.0847 27.2812 15.178L27.2817 37.4162C27.2822 38.202 27.346 38.7981 28.1482 39.2153L28.1828 39.2338C29.0408 39.6718 32.8122 38.3462 33.7201 37.9558L34.6048 37.55C35.4263 37.1393 37.1246 36.1942 37.4466 35.2913C37.6495 34.7225 37.4326 33.9937 37.3506 33.4188L36.4211 26.0686C36.3384 25.5783 36.5054 24.2304 36.4139 23.9978C34.9165 23.0204 33.9545 21.6494 33.5795 19.874L33.4336 18.9427C33.3878 18.7423 33.3934 18.537 33.3924 18.3329L33.3977 16.051C33.4683 14.693 33.8499 13.2324 34.5104 12.0474C33.1011 11.8629 32.3886 11.9353 30.9351 11.2898ZM23.9978 13.7701L23.5598 14.4982C23.1066 15.2809 23.0561 15.7849 22.1198 15.7487L22.1278 36.073C22.2046 35.9627 22.2882 35.9255 22.3795 35.8415L22.7493 35.4814C23.0116 35.2256 23.4941 34.563 23.8675 34.5028L23.9912 34.487C24.4569 34.5318 24.6192 34.8435 24.9289 35.1578L25.4504 35.6514C25.5951 35.7958 25.7225 35.9411 25.8803 36.0726L25.8887 16.1733C25.8873 16.04 25.9059 15.876 25.8742 15.7491C25.0091 15.7507 25.0367 15.5341 24.6084 14.7662L24.2652 14.1736C24.1946 14.0459 24.14 13.9228 24.052 13.8053L23.9978 13.7701Z" fill="black"/>
<path d="M24.1657 18.9758C24.0731 18.9824 23.9941 19.0088 23.8996 18.993L23.8712 18.9877C23.5936 18.9379 23.2914 18.7229 23.2429 18.428L23.2384 18.3962C23.2159 18.2525 23.21 18.1252 23.2417 17.9823L23.2484 17.9532C23.3071 17.6822 23.5549 17.5383 23.7942 17.441C24.2463 17.4263 24.5628 17.5132 24.7507 17.9649L24.7774 18.0304C24.9297 18.4799 24.5627 18.8483 24.1657 18.9758Z" fill="black"/>
<path d="M24.0983 22.9186C23.7435 22.9509 23.3151 22.7791 23.2426 22.3842L23.2381 22.3561C23.2107 22.2046 23.2103 22.0855 23.2413 21.9344L23.2481 21.9026C23.309 21.6071 23.6411 21.4302 23.9142 21.3826C24.3029 21.3705 24.5664 21.4978 24.7353 21.8709L24.7606 21.9268C24.826 22.0727 24.8227 22.228 24.7659 22.3757L24.7536 22.4065C24.6375 22.7014 24.3956 22.8379 24.0983 22.9186Z" fill="black"/>
<path d="M24.1425 27.2105L24.0863 27.216C23.0538 27.3379 22.8333 25.8033 23.9337 25.6709C24.2848 25.6967 24.6182 25.804 24.7414 26.1808L24.7518 26.2148C24.9475 26.6775 24.5941 27.0951 24.1425 27.2105Z" fill="black"/>
<path d="M24.2304 31.6844C23.8071 31.7749 23.3379 31.5962 23.2321 31.1375L23.2247 31.1023C23.1182 30.6348 23.3821 30.2869 23.8338 30.1673C24.0281 30.1479 24.2454 30.1638 24.4159 30.2671L24.4456 30.2859C24.5769 30.3677 24.6731 30.4889 24.7346 30.6303L24.7697 30.7061C24.971 31.1194 24.5892 31.5385 24.2304 31.6844Z" fill="black"/>
</svg>
