<svg width="48" height="48" viewBox="0 0 48 48" fill="none" xmlns="http://www.w3.org/2000/svg">
<path d="M28.107 44.6904C28.097 44.6937 28.0583 44.6994 28.0489 44.6999L24.888 44.9557C23.7762 45.07 22.6006 44.9263 21.4945 44.825L19.8924 44.6762C17.7876 44.4287 13.4377 43.7734 11.7597 42.4333L11.7264 42.4069C10.6422 41.5331 10.2707 40.568 10.2989 39.2341L10.3508 38.0614C10.358 37.9786 10.3855 37.907 10.3921 37.8217L10.4991 35.6895L10.5174 31.1716L10.6167 29.2348C10.6243 29.0979 10.6543 28.9682 10.6638 28.8345L10.8167 26.5838L11.2962 22.4397L11.8726 18.8245C11.91 18.6179 11.9155 18.4068 11.9325 18.1977L11.9843 16.7945C11.9799 16.2284 12.0227 15.643 11.9842 15.0801C11.9388 14.4161 11.81 13.7527 11.7452 13.0895C11.6319 11.9308 11.6884 10.6324 11.9288 9.50117C10.1069 9.68351 9.16956 11.062 8.47187 12.5493C8.07198 13.4018 7.70725 14.2386 7.50109 15.1638C6.97721 17.5146 7.44587 19.9913 9.5319 21.4348L10.0918 21.8234C10.9247 22.4285 10.2977 23.3659 9.62481 23.2172C9.4464 23.1777 9.2687 23.0482 9.11682 22.9503C6.48001 21.2498 5.40859 18.2279 5.99579 15.2259C6.25754 13.8879 6.73576 12.6661 7.36928 11.4654C8.27875 9.74168 9.3167 8.61786 11.3038 8.11081C11.8629 7.96812 12.5524 7.89931 13.1507 7.7675C14.069 7.56518 14.9474 7.23378 15.8112 6.86698C17.1167 6.31268 18.0638 5.81506 18.6658 4.44452C18.9244 3.85583 18.879 3.29571 19.5745 3.02833L26.9566 3.01537C27.7707 3.01548 28.7707 2.75825 29.0764 3.72394C29.5918 5.35165 30.247 5.9952 31.8248 6.6994C32.9207 7.18859 34.0784 7.6272 35.2573 7.86298L36.6012 8.0779C38.9383 8.56489 40.0606 10.1834 40.9807 12.1693C41.2944 12.8464 41.6368 13.5574 41.7965 14.2927C42.4308 17.2135 42.3756 19.7924 40.0754 22.0255C39.7549 22.3367 38.7022 23.2732 38.2594 23.2503C37.8065 23.227 37.5145 22.7663 37.5746 22.3422C37.6391 21.8881 38.2022 21.6424 38.538 21.4013C39.778 20.5104 40.4016 19.2116 40.6534 17.7536L40.6668 17.6761C40.9603 15.7393 39.9133 12.7368 38.726 11.0988C38.0967 10.2306 37.1147 9.66425 36.0654 9.49221L36.248 10.6907C36.3617 11.3949 36.3103 12.5391 36.2349 13.2419L36.0101 15.0582C35.9731 15.4605 36.0095 15.8865 36.0113 16.2909L36.0026 17.6599C36.0076 17.8293 36.0404 17.9954 36.0557 18.1638L36.2392 19.6216C36.3127 20.1072 36.3804 20.5996 36.4709 21.0817L36.9032 23.9381L37.4767 31.4059L37.4842 35.2364C37.4888 35.4524 37.5416 35.6571 37.548 35.8701C37.5676 36.5221 37.5281 37.1816 37.6376 37.8278C37.7136 38.2758 37.7358 39.5042 37.693 39.9632C37.5839 41.1327 36.649 42.2567 35.6684 42.8373C34.8684 43.311 33.9547 43.5507 33.0601 43.7727L28.107 44.6904ZM20.2381 4.48573L19.7612 5.5595C19.5906 5.91471 19.3001 6.2899 19.0276 6.57397L23.0912 14.7152C23.187 14.9344 23.8792 16.3845 24.0144 16.5416L25.2595 13.9672L29.0088 6.59379C28.7312 6.25868 28.4678 5.97106 28.2652 5.57815L27.9148 4.81254C27.8739 4.71462 27.8486 4.5614 27.7833 4.48208L20.2381 4.48573ZM17.8048 7.50359C17.1805 8.41592 17.182 11.2694 17.3157 12.5506C17.3322 12.7091 17.3259 12.871 17.3524 13.0285L17.8119 15.3513C17.8792 15.6302 17.9441 15.9266 18.0478 16.195L18.6332 17.6672C19.5153 19.5908 21.0584 20.9612 22.859 21.9938L22.9607 22.0464C23.0652 22.0969 23.1617 22.1101 23.2541 22.1858L23.2593 18.6392C23.2675 18.2671 23.0973 18.0769 22.9366 17.7518L18.1569 8.09567C18.0488 7.88496 17.9585 7.68575 17.8048 7.50359ZM30.1795 7.58173C29.9812 7.81039 29.8611 8.15464 29.7208 8.42309L24.7521 18.3819C24.704 18.4738 24.692 21.9579 24.74 22.1512L25.1349 21.97C25.5739 21.7804 26.001 21.4981 26.3902 21.2224C28.9971 19.3753 30.0096 16.6925 30.5202 13.6052L30.7275 12.1461C30.8511 11.3042 30.7147 8.21173 30.289 7.63371L30.1795 7.58173ZM32.0147 8.40204C32.0283 8.62517 32.0824 8.83775 32.1116 9.05829C32.3518 10.8717 32.1659 13.1419 31.7837 14.9059C30.8357 19.2808 28.9441 22.0636 24.7689 23.7721C24.758 23.7766 24.7424 23.7754 24.7364 23.7854C24.6964 23.8524 24.7229 26.4787 24.7228 26.7428L24.7269 43.4307L28.0432 43.1524C28.268 43.1222 28.4873 43.1167 28.7099 43.0638C30.1461 42.9002 31.5606 42.6019 32.9596 42.243C34.2 41.9248 35.8432 41.4243 36.1952 39.9904C36.3219 39.4743 36.1302 37.132 36.0948 36.541L36.0127 30.7962C36.0084 30.455 35.9562 30.1243 35.9351 29.7859L35.884 28.4402L35.2408 22.6212L34.5881 18.2389C34.5014 17.407 34.436 15.7914 34.5307 14.9505L34.776 13.113C34.8489 12.36 34.836 9.88353 34.4515 9.19756C33.8458 9.03171 33.2551 8.86395 32.6645 8.64757L32.2526 8.47826C32.1834 8.44681 32.0908 8.38765 32.0147 8.40204ZM15.9215 8.42548C15.1501 8.73668 14.3478 9.02553 13.5346 9.20234C13.2163 10.2728 13.1124 11.655 13.2039 12.7858L13.4659 15.2092C13.5182 15.8943 13.5335 17.4845 13.4304 18.1371L12.008 30.085C11.9703 30.3112 11.9821 30.5653 11.98 30.7949L11.9736 36.0906C11.9683 36.341 11.934 36.5908 11.9175 36.8407L11.783 39.077C11.7763 39.2724 11.7352 39.4827 11.7449 39.6752C11.8153 41.0756 13.2981 41.7913 14.4707 42.1096L19.4169 43.0938L23.2544 43.4408C23.2873 43.1499 23.2564 42.8277 23.2563 42.5333L23.2562 24.75C23.2562 24.4192 23.2854 24.0589 23.2482 23.7327C23.1099 23.6644 22.963 23.6453 22.8223 23.5855C21.9249 23.2043 21.1461 22.7115 20.3828 22.1094C16.9463 19.3982 15.6191 14.7881 15.7749 10.5491C15.8014 9.82934 15.9344 9.12973 15.9786 8.41681L15.9215 8.42548Z" fill="black"/>
<path d="M19.5438 34.2016C19.3144 34.199 19.0989 34.1503 18.8739 34.1099L15.8551 33.6298C15.6047 33.5863 15.2655 33.5695 15.045 33.4403C14.4769 33.1075 14.6957 32.2149 15.4705 32.0664C16.0544 32.0937 16.6548 32.2446 17.234 32.3334L19.0078 32.6221C19.3247 32.6719 19.6699 32.6724 19.9377 32.8725C20.3826 33.205 20.2125 34.0057 19.6914 34.1709L19.5438 34.2016Z" fill="black"/>
<path d="M28.716 34.1949C27.5724 34.2786 27.5888 32.9915 28.3227 32.7585C28.4557 32.7162 28.6105 32.7054 28.7482 32.683L31.4062 32.2434C31.7293 32.1904 32.0513 32.1105 32.3763 32.0704C32.7588 32.0231 33.0207 32.1423 33.193 32.5115L33.2072 32.5427C33.4689 33.0961 33.0502 33.4862 32.5195 33.5641L28.716 34.1949Z" fill="black"/>
</svg>
