<svg width="48" height="48" viewBox="0 0 48 48" fill="none" xmlns="http://www.w3.org/2000/svg">
<path d="M30.6163 39.4185C29.8889 39.6104 27.5421 40.5817 26.9463 40.5127L26.9061 40.5075C26.4221 40.4473 26.024 40.1625 25.6202 39.9119L24.2259 39.0104C23.3402 39.3698 22.2342 40.2556 21.3955 40.4559L21.3611 40.4638C21.1605 40.5115 20.9218 40.5203 20.7174 40.4891L20.6835 40.4834C20.4271 40.4448 20.1841 40.3293 19.941 40.2425L15.4829 38.9472L13.6071 38.6192C12.5308 38.484 12.017 38.4117 12.0181 37.0278C12.0199 34.6384 12.6197 31.4289 13.2521 29.1066L14.0312 26.5281C14.9614 23.3637 15.5115 19.5931 14.1308 16.5L13.6618 15.5497C13.078 14.3305 12.5851 13.0833 12.5773 11.7116L12.5765 10.6717C12.5775 10.4829 12.5594 10.2551 12.6206 10.0745L12.7922 9.61713C13.4905 8.14272 14.7084 8.19972 16.1014 7.96535L18.2017 7.59789C18.3691 7.57061 18.5305 7.52917 18.6998 7.50991C18.8111 7.4958 18.9239 7.5115 19.0272 7.55566L19.0546 7.56775C19.2148 7.63652 19.3295 7.72774 19.4121 7.8851L19.7125 8.57814C21.2533 12.207 26.2418 12.3665 28.1334 8.88822C28.6029 8.02483 28.4342 7.35025 29.7199 7.58589L33.0238 8.14455C34.2197 8.36655 35.2276 8.96894 35.4259 10.305C35.6147 11.5773 35.243 13.5411 34.774 14.6898C34.4154 15.5681 33.6702 16.6619 33.4781 17.5487L33.2903 18.2751C32.8699 20.1448 33.0144 22.7506 33.4688 24.5742L33.7391 25.7599C33.7908 25.9773 33.8752 26.1946 33.9205 26.4126L34.7649 29.2929C34.7736 29.3388 34.7808 29.3779 34.7961 29.4224L34.9836 30.148C35.1564 30.6494 35.2221 31.2066 35.3442 31.7227L35.5449 32.8015C35.7299 33.8699 35.8373 34.9225 35.9186 36.0033C35.9883 36.9296 36.2345 38.128 35.1197 38.5334C34.8771 38.6215 34.5764 38.5948 34.3205 38.6179L32.2449 38.9905C31.696 39.1158 31.1532 39.2471 30.6163 39.4185ZM30.4529 9.26955L30.4413 10.368C30.435 10.5397 30.3981 10.7052 30.3783 10.875L30.2511 11.9414C29.7931 14.701 28.416 17.7657 26.327 19.6245L25.1075 20.5402C26.4546 21.2895 26.499 22.1182 26.4998 23.4417L26.4996 35.9846C26.4991 36.716 26.428 37.3969 25.9642 38.0039L25.7982 38.1982C26.0548 38.3766 26.8313 39.0003 27.1387 38.951L27.1919 38.939C27.9691 38.785 28.7134 38.44 29.4652 38.1875C31.1062 37.6365 32.7607 37.2292 34.4912 37.0977L34.4916 36.8615C34.4622 36.0062 34.314 33.7213 34.0443 32.8946L29.2582 32.8955C28.7315 32.8952 28.0613 32.9153 28.0529 32.145C28.0469 31.5967 28.4517 31.4042 28.9136 31.4019L33.3359 31.4006C33.4701 31.4007 33.6318 31.4177 33.7617 31.3901L33.716 31.1916C33.6634 30.8825 33.576 30.5737 33.5002 30.2696L32.7501 27.6741C32.0649 25.4191 31.6129 23.3088 31.6108 20.9548C31.6103 20.3758 31.5607 19.7448 31.6451 19.1726C31.928 17.2516 32.2176 16.4829 33.0844 14.7883C33.5126 13.951 33.8366 13.0565 33.936 12.1172C33.9838 11.6655 34.0464 10.4262 33.7954 10.0872C33.5795 9.79553 33.2386 9.69236 32.8933 9.65121L30.7879 9.30082C30.6791 9.28057 30.5625 9.24335 30.4529 9.26955ZM17.3766 9.2883L15.417 9.62064C14.3595 9.80378 14.0366 9.75705 14.0385 11.0623C14.0394 11.6369 14.0424 12.1998 14.1818 12.7617L14.2046 12.8438C14.2563 13.027 14.2942 13.2186 14.3577 13.3983L15.7697 16.5558C15.9356 16.9266 16.0571 17.4067 16.1346 17.8052L16.1571 17.8943C16.2727 18.2759 16.3859 19.17 16.391 19.5984L16.4016 20.4233C16.405 21.7654 16.3623 22.5196 16.1782 23.8332L15.9851 24.8699C15.685 26.2359 15.2266 27.5564 14.8421 28.8985L14.2456 31.2888C14.6731 31.3267 15.1272 31.2946 15.5575 31.294L18.2407 31.2911C18.6366 31.2907 19.2551 31.1772 19.6147 31.3711L19.6498 31.3894C19.8375 31.4889 19.9322 31.6142 20.0224 31.8028L20.0351 31.8283C20.198 32.1874 19.8895 32.6591 19.5468 32.7729C19.4209 32.8147 19.2401 32.7935 19.1059 32.7938L13.9628 32.8049C13.7829 33.3736 13.6414 34.713 13.5954 35.2969L13.56 36.0435C13.5384 36.4001 13.4986 36.7348 13.5016 37.0968L14.7659 37.2483C16.1268 37.5474 17.4654 37.8476 18.7971 38.2677L20.8608 38.9469C21.1708 39.0515 21.7302 38.613 21.9918 38.4695L23.7122 37.5262C24.6243 37.0417 25.0495 37.1233 25.0502 35.9969L25.0494 22.8418C25.0463 22.6976 25.0171 22.5861 24.9678 22.4515L24.9558 22.4173C24.7803 21.9279 24.4049 21.842 23.9533 21.7839C22.9356 21.6529 22.1019 20.6585 21.4714 19.9204C19.1876 17.2462 17.998 13.9929 17.5742 10.5363C17.524 10.1265 17.5838 9.69105 17.5047 9.28755L17.3766 9.2883ZM19.1081 10.4142C19.0872 11.2512 19.318 12.1648 19.5101 12.9712L20.2798 15.1598C20.8983 16.7162 21.8517 18.1385 22.9826 19.3663C23.1206 19.5161 23.2802 19.7473 23.4402 19.8597C25.3083 18.503 26.1615 18.0386 27.3506 15.8747C28.2296 14.1981 28.845 12.3432 28.8997 10.4369C28.6481 10.8798 28.2666 11.2507 27.869 11.563C25.9409 13.0776 23.134 13.396 20.9835 12.1339C20.2792 11.7205 19.5106 11.138 19.1081 10.4142Z" fill="black"/>
<path d="M22.6561 24.5635C21.5957 24.5811 21.3759 23.2671 22.4705 22.9962C22.8248 22.9716 23.1095 23.1678 23.26 23.4857L23.3042 23.5829C23.3405 23.6899 23.3368 23.9281 23.2868 24.0292L23.2036 24.1827C23.0704 24.3967 22.8968 24.5036 22.6561 24.5635Z" fill="black"/>
<path d="M22.7144 29.6854C21.6422 29.8577 21.3425 28.5397 22.3921 28.1514C22.7795 28.1024 23.0717 28.2348 23.2527 28.5955L23.2965 28.6848C23.4901 29.1409 23.1001 29.52 22.7144 29.6854Z" fill="black"/>
<path d="M22.7192 34.9282C22.3743 34.9811 22.0261 34.8957 21.8525 34.5582L21.8069 34.4653C21.5985 33.9736 21.9179 33.5535 22.3659 33.3799C22.9513 33.3578 23.5058 33.7168 23.3066 34.346L23.259 34.4749C23.1536 34.7092 22.9518 34.8396 22.7192 34.9282Z" fill="black"/>
</svg>
