<svg width="48" height="48" viewBox="0 0 48 48" fill="none" xmlns="http://www.w3.org/2000/svg">
<path d="M28.2064 43.3153L28.1759 43.3064C26.4296 42.7918 24.8819 41.0337 24.019 39.4488C23.7786 39.7643 23.5903 40.1282 23.3579 40.4528C22.3273 41.892 20.8744 43.3743 18.9898 43.4773C18.5694 43.5003 18.1383 43.4813 17.717 43.4815L11.2204 43.4787C11.1444 43.4753 11.0837 43.4618 11.0179 43.4234L10.8753 43.3391C10.5409 43.0911 10.5307 42.7685 10.5272 42.389L10.5194 41.5705C10.4687 40.3583 9.92329 38.8665 9.38029 37.8069L8.811 36.7387C7.42954 33.8737 6.98883 30.7325 7.188 27.5744L7.23778 26.5721C7.36969 25.1068 7.65797 23.6211 8.01881 22.1964L9.07054 18.6342C9.38475 17.517 9.64837 16.3816 9.82636 15.2345L9.97172 13.8995C10.0904 12.6424 10.1148 11.3759 9.88776 10.1306C9.69469 9.07154 10.2787 7.90271 11.1678 7.32024C11.5782 7.05132 12.0308 6.86986 12.469 6.65311L14.6731 5.53585C15.0093 5.36391 16.3747 4.57301 16.6227 4.52855C16.9302 4.51055 17.1951 4.69889 17.4712 4.79897C18.0502 5.00893 18.7204 5.23332 19.3426 5.26008L28.5706 5.26144C29.3567 5.23313 30.1295 4.98549 30.8407 4.66136C31.3824 4.41446 31.5935 4.61573 32.0392 4.86221L35.5844 6.69104C36.5818 7.17825 37.4416 7.4979 37.8898 8.6206L37.9857 8.90635C38.2013 9.55219 38.0867 10.2005 38.0241 10.859C37.8864 12.3074 37.9373 14.6186 38.2868 16.0536L38.8886 18.6563C39.0416 19.4111 39.4399 20.2795 39.6374 21.0704C39.6478 21.1121 39.6557 21.1496 39.6709 21.1899L40.3479 23.8193L40.6347 25.6261C40.8519 27.1879 40.8951 28.7353 40.8005 30.3048L40.7634 31.1434C40.5596 33.6233 39.7457 35.5553 38.6493 37.706C38.0781 38.8264 37.6238 40.1561 37.4952 41.4188C37.422 42.1358 37.6492 43.0036 37.0038 43.4017L36.9727 43.4213C36.9054 43.4622 36.8371 43.4758 36.7589 43.4794L30.3392 43.4816C29.5913 43.4812 28.9345 43.5082 28.2064 43.3153ZM17.3736 6.31008C17.5033 7.83282 18.4983 10.186 19.2619 11.4782C20.4298 13.4544 22.1101 15.1176 24.0094 16.3939C25.2496 15.6131 26.7588 14.1011 27.6678 12.9983C29.185 11.0372 30.225 8.77585 30.6216 6.32129L30.6009 6.33C29.9606 6.59227 29.0327 6.72947 28.3251 6.73111L19.9371 6.73125C19.0188 6.7306 18.2625 6.55763 17.3736 6.31008ZM32.0501 6.51258L31.9419 7.18369C31.2287 10.6958 29.226 13.9812 26.5048 16.2916L24.8843 17.5439C24.6969 17.6675 24.731 17.6848 24.7258 17.9006L24.7263 37.2293C24.7304 37.4014 24.7908 37.6388 24.8435 37.8048C25.3562 39.4214 27.2295 41.7459 28.9505 41.994C29.3249 42.0479 29.7385 42.0164 30.1169 42.0165L32.2854 42.0158L35.998 42.0171L36.0339 41.4676C36.3104 39.0373 36.9498 38.0044 37.9693 35.8956C39.1297 33.4955 39.5632 30.7058 39.448 28.0476L39.3055 26.4728C39.1638 25.1067 38.9073 23.743 38.5374 22.4195L37.4461 18.7932C36.8805 16.7626 36.4227 13.9232 36.523 11.7774L36.5902 10.6846C36.7461 8.96293 36.7804 8.88422 35.0773 8.06443L32.9651 6.99525C32.6676 6.84052 32.3264 6.69952 32.0501 6.51258ZM15.9529 6.53246L13.1487 7.96018C11.6411 8.71697 11.1591 8.68257 11.3934 10.4541C11.432 10.7456 11.4578 11.0264 11.469 11.3204L11.4655 12.93C11.379 14.6034 11.1614 16.2769 10.7502 17.9034L9.33309 22.9216C9.08048 23.9455 8.86345 24.9572 8.72217 26.004L8.5365 28.9635C8.53659 29.5507 8.57475 30.368 8.63817 30.9493C8.84339 32.8304 9.35339 34.6086 10.2015 36.2965L10.7186 37.2648C11.0538 37.9724 11.3265 38.6996 11.5687 39.4424L11.7272 40.0715C11.805 40.4981 11.8995 40.9126 11.9533 41.3454C11.9808 41.5672 11.9604 41.7985 12.0015 42.0156L15.7386 42.0158L18.5286 42.015C20.6977 42.0091 22.7582 39.4318 23.2332 37.568C23.2715 37.4176 23.256 37.2432 23.2565 37.088L23.2625 17.6067C23.1575 17.5257 23.0377 17.4771 22.9284 17.4037C19.873 15.3525 17.4831 12.131 16.4325 8.61338L15.9529 6.53246Z" fill="black"/>
<path d="M28.998 34.8779C28.8914 35.0378 28.7322 35.2347 28.7556 35.437C28.8036 35.8526 29.2324 36.0727 29.6148 36.007L29.6488 36.0008C29.9128 35.9578 30.0317 35.6924 30.173 35.4929L34.1112 29.617C34.2611 29.3951 34.3879 29.1102 34.6572 29.0123C34.9988 28.8881 35.4338 29.0881 35.522 29.4492L35.5525 29.557C35.6098 29.7516 35.5626 29.9563 35.4652 30.1294L31.6022 36.0041C33.9804 36.2606 33.3843 35.0544 34.1831 34.7032C34.5328 34.5495 34.9372 34.7261 35.0759 35.0751L35.0891 35.1089C35.2788 35.5688 34.9165 36.1157 34.6516 36.4701C34.0145 37.3227 33.034 37.4799 32.0538 37.4812L29.6173 37.4802C28.5619 37.4774 27.5309 36.9286 27.3912 35.7845L27.3871 35.7474C27.2954 34.9658 27.5457 34.4866 27.9513 33.8661L28.5156 33.0212C28.9801 32.3476 28.9828 32.6511 28.3718 32.3393L28.1825 32.235C27.4446 31.7491 27.2205 30.7712 27.4973 29.9644C27.6377 29.5553 27.9574 29.1821 28.1975 28.828L28.9736 27.6739L28.4886 27.5336C27.6636 27.2045 27.2433 26.2895 27.4116 25.4371C27.5077 24.9509 27.7967 24.5529 28.0667 24.1492L28.8353 22.9853C27.517 22.7198 26.9601 21.174 27.6725 20.1456C27.8241 19.9269 28.0381 19.7385 28.2251 19.5493L30.6209 17.0957C30.9987 16.7187 31.2382 16.3958 31.7949 16.2938C32.5076 16.229 33.1795 16.5283 33.484 17.2159L33.5141 17.2869C33.8631 18.133 33.426 18.7875 32.9543 19.4516L29.5199 24.5992C29.2624 25.0094 28.9534 25.3869 28.7534 25.8295C29.1069 26.5313 29.739 26.3887 30.3532 26.0473C30.6048 25.9074 30.6588 25.7222 30.8045 25.4816L34.1434 20.4616C34.2471 20.2879 34.3676 20.1129 34.5778 20.0634L34.6058 20.0574C34.7431 20.0248 34.8981 20.0226 35.0326 20.0697L35.0629 20.081C36.0607 20.4467 34.9874 21.8364 34.6685 22.3003L32.6608 25.3024C32.3293 25.7958 32.0016 26.3062 31.6391 26.7769C31.3507 27.1514 31.0031 27.4813 30.6983 27.8421C30.2969 28.3172 28.9754 30.0403 28.8034 30.6484C28.8363 30.8272 28.8623 30.9328 28.997 31.0636L29.0196 31.0853C29.1461 31.211 29.6861 31.2018 29.8015 31.1178C29.889 31.0542 29.975 30.8796 30.0354 30.7859L33.5112 25.7162C33.6447 25.5149 33.8065 25.2029 34.0071 25.0659C34.3188 24.853 34.7738 24.9236 34.9725 25.259L35.0085 25.3166C35.2125 25.6316 35.0355 26.039 34.8549 26.3199L28.998 34.8779ZM32.0078 17.8003L29.8674 19.9543C29.5166 20.3052 28.3878 21.0806 28.94 21.5505L28.9657 21.5711C29.1148 21.6427 29.6751 21.653 29.8342 21.5601C29.8725 21.5377 30.3154 20.7925 30.3872 20.6844L31.9615 18.2892C32.0828 18.0994 32.2718 17.974 32.0517 17.8025L32.0078 17.8003Z" fill="black"/>
</svg>
