<svg width="48" height="48" viewBox="0 0 48 48" fill="none" xmlns="http://www.w3.org/2000/svg">
<path d="M25.5588 43.5503L16.5119 43.5204C16.2587 43.4984 16.006 43.4243 15.7652 43.3453C15.5197 44.2688 15.2672 45.1507 14.4782 45.7687C13.3322 46.6664 11.8443 46.6288 10.5207 46.2444C9.03364 45.8126 8.54905 45.527 8.5332 43.9766L8.54431 37.9979C8.55073 37.7697 8.6142 37.5521 8.62053 37.3286L8.63408 34.6664C8.64486 34.2772 8.71794 33.8895 8.73022 33.5006L8.74227 32.1537L8.891 29.3217C8.95873 28.1754 8.96323 26.9839 9.03059 25.8319L9.20778 21.9298C9.21805 21.7235 9.26188 21.5236 9.27275 21.3185L9.31311 20.0008L9.92872 11.5388C9.98108 10.7245 9.98347 9.94579 10.2607 9.16396C11.1941 6.53193 14.4847 6.04799 16.8769 5.56598C17.7844 5.38312 18.8154 5.27779 19.022 4.14352C19.0854 3.79528 19.0355 3.47444 19.2844 3.18269C20.0769 2.25343 22.4878 1.62849 23.6112 1.53283C25.1724 1.45191 28.1372 1.94698 28.9102 3.33208L28.93 3.3686C28.9957 3.48746 29.0376 3.59589 29.0557 3.73147L29.0981 3.95884C29.1053 4.00629 29.1148 4.04558 29.1316 4.09085L29.2223 4.35559C29.6256 5.37599 30.4831 5.38537 31.4261 5.56631L34.5175 6.17367C35.039 6.28326 35.5765 6.36201 36.0693 6.57328C37.1884 7.05299 38.2424 8.01065 38.7188 9.14052L38.8903 9.62099C39.0048 10.1603 39.0375 10.4361 39.0759 10.9854L39.736 19.0222C39.7746 19.5895 39.8128 20.1569 39.843 20.7251L40.0415 23.7316C40.0473 23.8097 40.0729 23.8819 40.078 23.9585L40.136 25.3372C40.1401 25.4082 40.1634 25.4707 40.1684 25.5397L40.2352 27.0536C40.2463 27.2045 40.2784 27.3538 40.2882 27.5038L40.3987 30.0702C40.4112 30.3217 40.4559 30.5705 40.4654 30.8227L40.5055 33.6687C40.5098 33.8932 40.5612 34.108 40.5658 34.3307L40.562 41.3682C40.5553 41.5571 40.5252 41.7388 40.5118 41.926L40.4147 43.3965C40.3787 43.8405 40.4185 44.5294 40.2796 44.9465C39.861 46.2038 38.3535 46.5003 37.1735 46.5009C35.2917 46.502 33.7819 45.5342 33.3146 43.6844C33.2928 43.598 33.278 43.4219 33.2265 43.3551C32.5453 43.5214 31.9285 43.5498 31.2275 43.5507L25.5588 43.5503ZM23.9909 2.75323C22.8253 2.81977 21.3901 3.13184 20.4206 3.83043C21.2885 4.48235 23.204 4.52429 24.2287 4.52088C25.0992 4.52236 27.0937 4.46038 27.7864 3.83639C26.7596 3.0571 25.2648 2.69587 23.9909 2.75323ZM19.9653 4.98515C19.4118 6.38362 18.3886 6.50076 17.0978 6.76598C15.6583 7.06176 14.4328 7.26253 13.0907 7.90424C11.946 8.45156 11.4307 9.06703 11.1789 10.3739C11.0828 10.8726 11.0769 11.8729 11.0296 12.4679L10.9685 13.0602L10.5862 18.8963L10.4208 21.7499L10.1861 26.5194L9.94428 32.5194L9.7955 37.0632C9.78655 37.2545 9.74609 37.4395 9.74014 37.6334L9.72964 43.5937C9.72941 43.8482 9.6357 44.3709 9.78931 44.5856L9.85714 44.6696C10.2328 45.0553 11.9032 45.3165 12.3899 45.2775C14.1691 45.135 14.2513 44.0343 14.6712 42.6919C14.4366 42.4302 14.2196 42.1562 14.0855 41.8278C13.9248 41.4044 13.8934 41.1245 13.8921 40.6751L13.8968 37.3455C13.9032 37.1957 13.9345 37.0505 13.946 36.9022L14.2373 33.5744C14.3153 32.8778 14.3737 32.1716 14.4964 31.4807C14.6269 30.7455 14.8835 30.0587 15.0589 29.3366C15.3835 27.9997 15.5018 26.3489 15.3574 24.963C15.0831 22.3316 13.9563 20.235 13.9506 17.4614L13.9467 14.6494C13.9467 14.4353 13.9287 14.1903 13.9752 13.9804C14.1943 12.9899 15.1007 12.4152 16.0934 12.5782C16.3003 12.6122 16.5064 12.7267 16.6963 12.8111L23.3158 15.5234C23.4076 15.5642 23.49 15.5746 23.5763 15.6319L23.5897 5.75634C22.4282 5.66357 20.9919 5.6167 19.9653 4.98515ZM28.1713 5.05068C27.4495 5.44246 26.4876 5.65593 25.664 5.71092L25.036 5.73103C24.9641 5.73229 24.8104 5.68612 24.7947 5.78015L24.78 15.777L31.69 13.0211C32.4395 12.7093 33.207 12.2751 34.0311 12.6343C34.8988 13.0124 35.2268 13.784 35.2288 14.6715L35.215 18.4452C35.2028 18.723 35.1536 19.0304 35.1049 19.3043L34.8166 20.6316C34.1287 23.3687 33.4985 24.8307 33.7995 27.7265L33.8509 28.3477C33.9523 29.1206 34.129 29.9374 34.3491 30.6816L34.4434 31.0925C34.656 31.8587 34.7135 32.6832 34.7931 33.4718L34.9862 36.1871C35.0036 36.4171 35.0463 36.6481 35.0548 36.8781L35.0641 40.4269C35.0629 40.9728 35.0405 41.3872 34.8039 41.8956C34.6491 42.1853 34.4911 42.4289 34.2874 42.6857L34.4545 43.2421C34.7097 43.9389 34.8754 44.5641 35.5953 44.9213C36.4689 45.3548 38.3228 45.5031 39.0527 44.6988L39.0853 44.6641C39.1908 44.513 39.1978 43.7738 39.2153 43.5736L39.299 42.6648L39.3487 34.3124L39.1792 28.9128L38.6211 20.2427L37.901 11.5022C37.8729 11.0515 37.87 10.6062 37.7799 10.1611C37.5646 9.09698 36.5321 8.08673 35.5607 7.70221C34.8626 7.42588 34.0679 7.33378 33.3341 7.18293L30.7298 6.67453C28.5968 6.34078 28.3774 5.11373 28.1713 5.05068ZM33.3336 13.7152C32.9637 13.8097 32.6272 13.9721 32.2736 14.1126L27.1388 16.147C26.5753 16.3776 24.7363 17.1853 24.1508 17.0424C23.0628 16.777 22.024 16.3025 20.9901 15.8804L16.3691 13.9817C15.7871 13.7286 15.1745 13.4966 15.1684 14.4648L15.1663 17.3752C15.1669 18.0478 15.1578 18.7326 15.3236 19.3914L16.2537 23.1339C16.8233 24.9017 16.7103 27.5976 16.2644 29.4491L15.9777 30.5619C15.605 31.857 15.5505 32.6375 15.4163 33.9782L15.2301 35.9629C15.2227 36.0538 15.1988 36.1409 15.1921 36.2343L15.1559 37.2187C15.1417 37.4178 15.1017 37.6158 15.0932 37.8152L15.0855 39.6854L15.0866 40.5224C15.0874 40.6809 15.0747 40.8532 15.1046 41.0095L15.156 41.1918C15.4225 42.1532 16.3136 42.3031 17.1394 42.304L31.1166 42.3042C31.5191 42.304 31.9414 42.3303 32.3408 42.2917C33.4302 42.1866 33.8669 41.4051 33.8705 40.4271L33.8704 37.6592C33.8682 36.983 33.7967 36.4903 33.765 35.8602L33.4618 32.4022C33.2699 31.0562 32.8382 29.7714 32.6588 28.4223C32.1969 24.9487 32.807 23.5737 33.6456 20.3639C33.8945 19.4114 34.0131 18.6503 34.013 17.6782L34.0136 14.8869C34.0147 14.3544 34.059 13.8159 33.3918 13.7222L33.3336 13.7152Z" fill="black"/>
</svg>
