<svg width="48" height="48" viewBox="0 0 48 48" fill="none" xmlns="http://www.w3.org/2000/svg">
<path d="M25.119 41.6489L25.0954 41.6447C24.6984 41.633 24.3173 41.5044 24.0311 41.2212L24.0107 41.2006C23.2998 41.8045 21.7802 41.7088 20.7887 41.7787L19.2228 41.8822C18.5979 41.9405 17.258 41.959 16.6605 41.8842C14.7293 41.6423 13.3933 39.8844 13.2394 38.0156C13.1777 37.2671 13.2233 36.516 13.1616 35.7637C13.0913 36.0757 12.9556 36.391 12.8432 36.6914C11.7376 39.6458 10.3015 42.8554 6.52352 40.7775C5.41681 40.1688 4.74926 39.4628 4.98157 38.097L4.98776 38.0625C5.05109 37.6896 5.17802 37.3253 5.29399 36.966L9.07338 25.0487L9.71023 22.3143C9.99729 21.2146 10.3523 20.1406 10.7457 19.0753C11.8303 16.1379 13.0628 14.3916 16.1281 13.5939C16.0665 12.9971 16.0832 12.4279 16.289 11.8602C16.6638 10.8263 16.4699 11.0797 16.4521 10.0454C16.4184 8.08605 18.6266 6.76188 20.2964 6.39142C20.8674 6.26477 21.4397 6.23092 22.0216 6.20149L23.877 6.14242C24.0961 6.14097 24.3094 6.10994 24.5269 6.10324L25.9821 6.09489C27.7406 6.07244 28.396 6.21161 29.9058 7.33745C30.806 8.00875 31.7644 9.06958 31.5384 10.2973L31.407 10.9922C31.3757 11.1039 31.3725 11.1719 31.4164 11.2823L31.4285 11.3086C31.734 12.008 31.9222 12.7142 31.9223 13.4862C31.971 13.519 32.0183 13.551 32.0731 13.5728L33.067 13.9883C35.111 14.8116 36.0583 16.2974 36.8769 18.1998L38.424 22.972L38.7018 24.0905C38.748 24.3318 38.8342 24.757 38.9201 24.9886L40.6074 29.7669L41.1706 31.5757C41.2451 31.7822 41.2813 32.0037 41.3568 32.2047L41.8932 34.0345C41.9126 34.138 41.9613 34.2302 41.9826 34.3342L42.0777 34.682C42.1054 34.8351 42.1525 35.0052 42.202 35.1516L42.8268 37.5205C42.8352 37.5644 42.8417 37.6014 42.8575 37.6435C43.5016 39.362 42.7514 40.4388 41.2063 41.0244C39.7788 41.5654 37.9137 41.7656 37.1714 40.1253C36.9518 39.6399 36.8587 39.0392 36.7308 38.5208L35.584 34.3117C35.3893 33.6193 35.1777 32.9322 35.0309 32.2276C34.9562 32.5093 34.9646 32.8048 34.9645 33.0939L34.9648 34.1139C34.9655 35.6566 35.0283 37.2435 34.7035 38.7588C34.3695 40.3172 33.0023 41.6002 31.441 41.8809C30.8265 41.9913 30.2625 41.9331 29.648 41.9056L27.2387 41.7719C26.5338 41.717 25.7911 41.7219 25.119 41.6489ZM26.3385 7.44138L21.6952 7.56297C21.1801 7.59902 20.6951 7.64627 20.1993 7.79894C19.1251 8.12974 17.5452 9.00283 17.8079 10.3394C17.9262 10.9411 18.547 11.4113 19.0105 11.7646C19.835 11.0733 21.1691 10.8135 22.2072 10.7593C22.7455 10.7676 23.3179 10.7703 23.7608 11.126C23.8395 11.1892 23.9413 11.3709 24.0297 11.2895C25.2132 10.2018 27.6587 10.9571 28.8963 11.6582C29.1212 11.7856 29.3733 11.4456 29.5348 11.3021C29.8684 11.006 30.141 10.6978 30.2128 10.2422L30.2192 10.2032C30.4465 8.76541 28.1484 7.65559 27.0281 7.44438C26.8163 7.40439 26.5539 7.42741 26.3385 7.44138ZM22.1869 12.0799C21.3901 12.1342 20.553 12.3323 19.8494 12.7185L22.3504 17.0735L22.946 17.9555C23.0625 18.1159 23.195 18.2772 23.2942 18.4482L23.3001 14.6403C23.2999 13.9663 23.3465 13.2538 23.2725 12.5859L23.2689 12.5501C23.2161 12.1056 22.5089 12.0654 22.1869 12.0799ZM25.5072 12.1023C24.4679 12.2481 24.6716 12.8241 24.6702 13.6981L24.6681 17.3381C24.6679 17.7109 24.6415 18.0961 24.6934 18.4652L25.7945 16.8141L27.8613 13.1857C27.9573 13.0384 28.0963 12.9031 28.1757 12.7499C27.492 12.3478 26.3281 11.9829 25.5072 12.1023ZM17.4846 12.2695C17.3951 12.5938 17.3376 13.2539 17.4743 13.5767C17.9557 14.7144 18.396 15.0549 19.5079 15.6627C19.7332 15.7859 19.9966 15.892 20.2034 16.0429L20.2445 16.0385C19.6468 14.638 18.7652 13.175 17.5163 12.2698L17.4846 12.2695ZM30.38 12.2929C29.7623 12.7512 29.3654 13.2875 28.9556 13.9332L28.2511 15.0934C28.0869 15.3834 27.9041 15.6784 27.772 15.9843L27.9526 15.9334C29.3069 15.3765 30.8422 14.2891 30.5492 12.6445L30.5427 12.6065C30.5224 12.4921 30.4862 12.389 30.431 12.287L30.38 12.2929ZM31.4618 14.7539C31.3405 14.8949 31.2453 15.0543 31.132 15.2014C29.9097 16.7882 28.7727 16.795 27.2456 17.7959C26.0524 18.578 24.9463 19.9317 24.7434 21.3767C24.667 21.921 24.672 22.4623 24.6717 23.0101L24.6688 38.7705C24.6682 39.0833 24.6457 39.4155 24.6743 39.7259C24.7428 40.4692 25.4332 40.3173 25.9092 40.3399C26.1208 40.3499 26.3279 40.3934 26.5383 40.4045L27.654 40.4324C27.8905 40.4435 28.1207 40.4913 28.3582 40.5039L29.5263 40.5401C31.02 40.6452 32.3454 40.6508 33.1655 39.1413C33.9356 37.7239 33.5858 34.5573 33.6777 32.9014L33.7825 31.7267C33.9631 30.3681 33.8948 29.9393 33.6873 28.5703L33.3566 26.1609C33.1688 24.7349 33.347 23.2771 33.8243 21.9238C33.9482 21.5726 34.0762 21.0431 34.4784 20.9174L34.5727 20.8929C34.9779 20.9087 35.141 21.022 35.2733 21.3984L35.287 21.4294C35.3288 21.5519 35.2901 21.715 35.2513 21.832L35.2346 21.8905C35.1086 22.3301 34.9229 22.7485 34.8043 23.1936C34.5015 24.3301 34.538 26.146 34.9145 27.2897L34.9764 27.5273C34.9834 27.5613 34.9939 27.5877 35.0065 27.6197L37.0396 34.7518C37.0473 34.7893 37.0586 34.8217 37.0706 34.8578L37.3695 35.915C37.3976 36.0138 37.4084 36.1151 37.445 36.2108L38.196 39.0078C38.3169 39.3965 38.3644 39.8016 38.7769 40.0082L39.0314 40.1085C39.463 40.2555 40.9491 39.7225 41.3075 39.5252C42.0641 39.1087 41.6493 38.1563 41.4832 37.5143L39.3505 30.0889L37.8289 25.949C37.7357 25.6562 37.6746 25.3554 37.605 25.0565L36.2862 20.326C35.5451 18.15 34.812 16.09 32.5236 15.207L31.7673 14.8958C31.6691 14.8511 31.5507 14.8135 31.4618 14.7539ZM16.6477 14.865C16.2106 15.0095 15.7617 15.109 15.3306 15.2748C11.686 16.6769 10.9956 23.2742 9.94535 26.7096L6.46695 37.582C6.35979 37.9671 6.14402 38.4267 6.2749 38.8337L6.29717 38.8862C6.54827 39.4379 7.39934 39.7762 7.93301 39.9817L8.30773 40.0975C9.76526 40.5124 10.5859 38.7234 11.0606 37.6728C11.6299 36.4125 12.1112 35.0867 12.4764 33.7527C12.7105 32.8978 12.6141 32.0617 12.6014 31.1848C12.5774 29.5202 12.7567 28.8233 13.1859 27.2277C13.6689 25.4318 13.5343 23.8716 12.8156 22.1582C12.5863 21.6115 12.5571 20.9886 13.2595 20.8867C14.0807 20.9868 14.393 22.5528 14.5164 23.2288C14.6699 24.0704 14.7954 25.0446 14.6517 25.8995L14.1116 29.5012C14.0555 29.9614 13.9882 30.4378 13.9893 30.9023C13.9908 31.5676 14.1565 32.2293 14.2091 32.8908L14.3138 34.1034C14.3524 34.6 14.4058 35.0847 14.4284 35.5821L14.449 36.3398C14.4592 36.5211 14.4964 36.7006 14.5045 36.8815C14.5843 38.6622 14.6673 39.9655 16.7788 40.5464L16.86 40.5679C17.0077 40.6049 17.1642 40.5951 17.3155 40.5948L18.5152 40.5334C19.3935 40.4935 20.2702 40.4548 21.1485 40.4103C21.4101 40.397 21.661 40.3445 21.9208 40.3355L22.5159 40.3289C22.9362 40.3252 23.3004 40.1939 23.3126 39.6886L23.2961 22.3437C23.2924 20.4486 22.5152 18.991 20.9059 17.9059C19.1759 16.7394 17.9514 16.741 16.6477 14.865Z" fill="black"/>
</svg>
