<svg width="48" height="48" viewBox="0 0 48 48" fill="none" xmlns="http://www.w3.org/2000/svg">
<path d="M24.3454 45.2648L20.1967 45.1597C18.6173 45.0574 17.0359 44.8537 15.4792 44.5661C13.9358 44.2809 13.1971 44.2579 12.6389 42.6951L10.9497 42.6814C10.4184 42.6785 10.1892 42.6767 9.70134 42.4817C7.70517 41.6838 8.13506 39.9242 8.24212 38.3068L8.37262 35.9272C8.38307 35.7543 8.4171 35.5862 8.42596 35.4142L8.46318 34.2319C8.47527 34.0186 8.51854 33.8116 8.52942 33.5965L8.63277 30.72C8.64515 30.4628 8.69774 30.2166 8.7134 29.9652L8.74438 28.4432L8.9031 25.2356C8.91581 24.8561 8.89082 24.4445 8.95481 24.07C9.06454 23.4277 8.9917 22.7593 9.02188 22.1107L9.12224 20.2497C9.18885 19.2391 9.14906 18.1457 9.25279 17.1903C9.55256 14.4292 11.2559 13.1523 13.3977 11.8707L16.4499 10.0615C17.0939 9.64517 17.2416 9.4009 17.2122 8.59235L17.2178 7.75985C17.2365 6.93326 17.3858 6.1865 18.0817 5.67275C18.4507 5.4004 18.3349 5.48698 18.5465 5.07387C19.476 3.25955 20.8591 2.73764 22.7317 2.68555C25.0354 2.69219 27.5215 3.3631 28.8294 5.43715C28.9157 5.57407 29.0152 5.63107 29.133 5.73368C30.5084 6.93134 29.6804 8.81023 30.0336 9.48696L30.0487 9.51528C30.2637 9.92951 30.7978 10.2074 31.1839 10.4405L33.6485 11.9305C35.5777 13.0977 36.5118 13.7682 37.3118 16.0426C37.5951 16.8481 37.5621 17.6458 37.6052 18.4832L37.8457 22.0731L37.9654 25.1295C37.9754 25.3129 38.0143 25.487 38.0276 25.6699L38.0586 26.7051C38.0669 26.8704 38.106 27.032 38.1152 27.1974L38.1519 28.5589C38.161 28.7341 38.2059 28.8991 38.2156 29.0733L38.2462 30.2569C38.2559 30.4194 38.2981 30.5717 38.3079 30.7339L38.3541 31.8694C38.3622 32.0045 38.3928 32.138 38.4021 32.2745L38.7261 37.4526C38.7347 37.5806 38.7637 37.7049 38.7741 37.8326L38.8781 39.3548C38.8951 39.5872 38.9421 39.8355 38.9452 40.0661C38.9613 41.3037 38.0926 42.4337 36.8552 42.6554C36.5797 42.7048 36.2768 42.6825 35.9965 42.683L34.4429 42.6956C34.369 43.2524 34.1671 43.7807 33.6273 44.0567L33.5958 44.0726C32.839 44.462 30.5693 44.7583 29.7185 44.8753C29.0019 44.9739 28.2835 45.0473 27.5645 45.1142L24.3454 45.2648ZM22.6366 4.08831C22.2449 4.10021 21.8988 4.10771 21.518 4.20629L21.2436 4.29894C20.7928 4.47863 20.437 4.79801 20.1348 5.17193C20.3624 5.22031 20.8106 5.15412 21.0429 5.10809C21.4176 5.03384 21.8525 5.07003 22.2343 5.06937L24.2935 5.06979C25.1066 5.07054 25.9403 5.06164 26.7401 5.23189C25.5744 4.36124 24.08 3.99797 22.6366 4.08831ZM22.2318 6.45185C21.7331 6.46489 19.2843 6.59201 18.8928 6.82554L18.8643 6.8419C18.5243 7.04103 18.565 7.32964 18.5654 7.66896L18.5657 8.79392C18.5641 10.1052 18.0803 10.7083 16.9685 11.3912L14.337 12.9295C12.5946 13.9482 11.2251 14.7444 10.701 16.8999C10.54 17.562 10.6102 18.2612 10.5907 18.9364C10.5806 19.2884 10.5263 19.6392 10.5067 19.9906L10.4852 21.2628C10.4747 21.608 10.4095 21.9453 10.3955 22.2887L10.3728 23.7608C10.3643 23.9606 10.3151 24.1614 10.3049 24.3629L10.1699 28.5348C10.1631 28.6983 10.1321 28.8587 10.1258 29.0226L10.1058 30.1637L9.95095 32.5693C9.89488 33.551 9.85982 34.5512 9.80193 35.5312C9.78093 35.8867 9.74315 36.2435 9.72093 36.6006L9.52242 39.569C9.50099 39.8273 9.45426 40.0924 9.5174 40.3473L9.55654 40.5035C9.62662 40.7671 9.85227 40.992 10.0778 41.1303L10.1147 41.1537C10.3964 41.3284 10.7589 41.2653 11.0755 41.266L12.5662 41.2928C12.6027 41.2952 12.591 41.2941 12.6334 41.2818L13.1599 35.3793L14.0033 28.7441C14.0173 28.6075 14.0523 28.4733 14.0567 28.3356L14.049 26.8591C14.0395 26.6236 14.0071 26.3942 14.0054 26.1572L14.002 24.5087C14.0008 23.8794 13.9557 23.534 13.8984 22.9332L13.5558 20.1726C13.4398 19.1784 14.75 19.0153 14.9194 20.0334L15.0393 20.6668C15.0734 20.8899 15.0889 21.1155 15.1363 21.3364L15.4173 23.9754C15.4572 24.2302 15.4453 24.509 15.4465 24.767L15.4497 26.0511C15.4505 26.8569 15.4825 27.6812 15.4331 28.4851L14.9595 32.7329L14.6301 34.8087L14.1124 39.7415C14.1004 39.8943 14.0714 40.0417 14.0651 40.1962L14.0437 41.2665C14.0223 41.6254 13.924 42.0397 13.999 42.3948L14.006 42.4307C14.1334 43.0668 14.9443 43.0692 15.4666 43.1564L19.3734 43.6827C20.1979 43.7559 20.9865 43.7839 21.8127 43.8019L24.8258 43.8509L28.7283 43.5842L31.905 43.0975C32.0984 43.0575 32.9113 42.8711 33.0234 42.7221L33.0194 41.5625C33.0063 41.2684 32.959 40.9795 32.9309 40.6872L32.3421 35.1018L32.087 33.5856L31.7138 29.7301C31.6958 29.4181 31.7068 29.1006 31.7065 28.7879L31.7103 27.5667C31.7158 27.3764 31.7484 27.1918 31.7639 27.0031L32.0373 23.8986C32.0639 23.6556 32.0721 23.4091 32.1158 23.1686L32.5098 20.5647C32.5713 20.2358 32.5604 19.7917 32.8563 19.5696C33.1723 19.3325 33.6279 19.4008 33.8313 19.7473L33.9037 19.888C33.9562 20.0055 33.9402 20.1794 33.9273 20.3056L33.2309 26.1836C33.1644 27.0347 32.9603 29.2633 33.1327 30.0754C33.1894 30.3424 33.1717 30.6492 33.1949 30.924L33.3737 32.6129C33.4121 32.9453 33.4247 33.3053 33.4956 33.6307L34.3433 41.2684L35.8486 41.2672C36.6051 41.2658 37.5137 41.2676 37.5487 40.1893C37.5658 39.6585 37.4695 39.1071 37.4306 38.5778L36.9585 31.9372L36.834 29.3114L36.6636 26.228L36.5851 25.2927L36.4626 22.1789L36.2162 18.0629C36.2046 17.8309 36.2173 17.5957 36.1937 17.3647C35.9369 14.8393 34.1969 13.8598 32.2634 12.7129L31.0708 11.9837C29.5681 11.1092 28.5702 10.6331 28.5699 8.77254L28.5696 7.73412C28.5681 6.82278 28.3532 6.83201 27.5495 6.71126C26.7338 6.58868 25.8904 6.49817 25.0661 6.46221L22.2318 6.45185Z" fill="black"/>
<path d="M30.1762 26.212C29.591 26.2714 28.9721 26.2318 28.3836 26.2318L27.4908 26.2324C27.1549 26.2323 26.9386 26.2319 26.6243 26.1033C25.564 25.6693 25.677 24.7964 25.6759 23.8914L25.6711 19.9158C25.6686 18.8792 25.6686 17.8397 27.0087 17.7049L28.8824 17.711C29.7805 17.712 30.93 17.5091 31.3017 18.6302L31.3578 18.788C31.3814 18.8616 31.3972 18.9426 31.401 19.0198L31.4008 23.9651C31.3987 25.0359 31.4555 25.8317 30.1762 26.212ZM27.3197 19.1101L27.0559 19.1252L27.0685 24.2C27.0684 24.3895 27.0514 24.5783 27.0735 24.7669L29.6662 24.7662L30.0205 24.7622L30.0197 19.7967C30.0196 19.5752 30.0331 19.3439 30.0096 19.1239L27.3197 19.1101Z" fill="black"/>
</svg>
