<svg width="48" height="48" viewBox="0 0 48 48" fill="none" xmlns="http://www.w3.org/2000/svg">
<path d="M25.1599 41.9816L17.2725 41.9813C15.7389 41.9809 14.4114 41.6821 13.2131 40.6179C11.3477 38.9613 11.2684 37.4881 11.2684 35.2398L11.2475 31.1095C10.891 32.2869 10.0872 34.0727 9.51523 35.1214C8.60028 36.7991 6.95689 37.6876 5.14432 36.7687L4.40133 36.3635C4.01524 36.174 3.5924 36.0196 3.22242 35.8047C1.95393 35.0678 1.52071 33.6497 2.02962 32.3006C2.17211 31.9228 2.39535 31.5662 2.57585 31.2049L7.80406 20.7774L10.0628 15.7096C10.8039 13.974 11.0232 12.4154 13.2836 12.0364C13.6084 11.982 13.9793 12.0171 14.3108 12.0169L17.0154 12.0163C17.1136 12.0162 17.2382 12.0294 17.3323 12.004L17.2873 11.5803C16.9089 8.11851 19.4651 6.35245 22.7073 6.03323C23.3041 5.98387 24.3075 5.98364 24.8932 6.02568C27.1914 6.1905 29.7891 7.08979 30.5633 9.48037C30.7861 10.1683 30.7697 11.2779 30.7044 12.0071C31.0075 12.0555 31.3755 12.016 31.6847 12.016L33.8637 12.0161C34.1458 12.0164 34.5051 11.9774 34.7756 12.0575L35.4699 12.2531C36.4334 12.6223 36.9439 13.2788 37.3201 14.1971L38.6559 17.4431L41.0472 22.577L45.4818 31.3454C45.675 31.7112 45.9092 32.1215 46.0137 32.5218L46.1341 32.9997C46.155 33.0807 46.1704 33.1553 46.1774 33.2389L46.1808 33.2812C46.339 35.1015 44.8321 35.7799 43.5184 36.4481C42.6653 36.8821 42.0615 37.2344 41.0627 37.1114L41.0154 37.1053C39.4937 36.9192 38.6827 35.5427 38.0818 34.2828L37.1995 32.304C37.0594 31.9777 36.9358 31.6388 36.7767 31.3217C36.7029 31.8073 36.7475 32.3515 36.748 32.8444L36.7475 35.3707C36.7469 36.0274 36.7928 36.658 36.6706 37.3042C36.2412 39.5737 34.5886 41.3691 32.3126 41.8693C31.8014 41.9817 31.3133 41.9809 30.7931 41.9812L25.1599 41.9816ZM23.0367 7.48298C21.4692 7.57786 19.0376 8.39709 18.7459 10.2142C18.7131 10.4187 18.7281 10.6424 18.7283 10.8493L18.754 12.277C18.7616 13.1414 18.5422 13.7931 18.209 14.5928C17.6362 15.9678 16.9968 16.6056 18.7573 17.2278L20.2649 17.7551C20.7903 17.9198 21.3714 18.0631 21.8543 18.33C22.7486 18.8243 23.24 19.8285 23.2491 20.8211L23.249 39.0663C23.2501 39.2754 23.2426 39.4905 23.2839 39.6964C23.4749 40.649 24.7624 40.7573 24.7773 39.7859L24.7649 20.4866C24.7102 19.4769 23.865 18.5882 23.199 17.9151L20.8576 15.5115C20.0085 14.6116 20.0274 14.8833 20.244 13.7694C20.471 12.6019 19.1278 10.2481 20.2615 9.86648L20.2848 9.85851C20.5924 9.76275 20.9501 9.87646 21.0936 10.1718L21.1058 10.1965C21.1618 10.3119 21.1878 10.4274 21.2238 10.5487L21.6001 12.1953C21.7361 12.7259 21.7709 13.4423 21.6858 13.9711C21.6193 14.3834 22.2559 14.8103 22.5148 15.0784L24.0843 16.6919L26.347 14.1609C26.3116 13.8141 26.259 13.4748 26.2761 13.1249C26.3028 12.5778 26.6443 10.5443 26.9979 10.0897C27.4135 9.55528 28.2072 9.91593 28.2223 10.5427C28.2284 10.7925 28.2067 11.0227 28.1355 11.2631L27.9959 11.8159C27.8552 12.3732 27.7131 12.9458 27.7521 13.5258C27.7733 13.8419 27.9198 14.2214 27.863 14.5312L27.8572 14.5665C27.8118 14.8183 27.5935 15.0023 27.4334 15.1853L25.2786 17.5955C25.095 17.7816 25.0838 17.7525 25.239 17.9783L25.6148 18.4462L29.2733 17.2147C29.8672 17.0315 30.5109 16.7297 30.3782 15.9608L30.3731 15.9301C30.3174 15.627 30.1222 15.3047 29.9993 15.022C29.3799 13.5961 29.1577 12.9343 29.2601 11.4124C29.437 8.78353 27.8541 7.94404 25.4348 7.61146C25.0027 7.55203 24.5654 7.4969 24.1296 7.48584L23.0367 7.48298ZM13.6634 13.4828C13.2694 13.5258 12.8914 13.6454 12.632 13.955L13.361 14.8564C14.4003 16.2184 14.5934 17.901 14.3481 19.5443L13.3501 24.2053C13.0021 25.6441 12.7279 26.442 12.7258 27.9268L12.7262 34.0812C12.7274 34.249 12.7551 34.4142 12.7563 34.5808L15.9708 27.779C16.3134 27.1543 17.0612 27.3181 17.2722 27.9374L17.2859 27.9684C17.4285 28.3482 17.0807 28.8546 16.927 29.1848L14.2595 34.9078C13.928 35.5546 13.4999 36.0063 12.7938 36.23L12.7395 36.2441C12.6984 36.9296 12.8404 37.5489 13.1411 38.1613C14.5119 40.953 17.3291 40.5169 19.9116 40.5161L21.2126 40.5151C21.4657 40.5149 21.7267 40.5276 21.9783 40.5009L21.8004 39.4657C21.7691 39.2655 21.778 39.0555 21.7779 38.8531L21.7777 21.6712C21.7772 20.9891 21.9143 20.1792 21.2696 19.7137L21.0369 19.5796C20.7809 19.448 20.481 19.3781 20.2079 19.2882L18.7446 18.788C18.3612 18.6612 17.9556 18.554 17.5915 18.3792C16.4907 17.8509 15.9371 16.5485 16.2616 15.3866C16.4426 14.7387 16.8002 14.1332 17.0157 13.4905L13.6634 13.4828ZM31.0806 13.4825L30.9959 13.4962C30.9959 13.7697 31.6152 14.8895 31.736 15.2929C32.2478 17.0031 31.3103 18.1257 29.7196 18.644L26.143 19.8129C26.1669 20.0366 26.2174 20.2347 26.2254 20.4644L26.2232 37.8185C26.2233 38.705 25.9294 40.0515 26.8683 40.4699L26.8937 40.4818C27.0254 40.5395 27.2425 40.5158 27.3864 40.516L30.3101 40.5157C32.2513 40.5132 33.8471 40.0846 34.8454 38.1922C35.1744 37.5686 35.2729 36.9462 35.2746 36.2501C34.3886 35.9343 33.9384 35.4121 33.5345 34.6036L31.2222 29.5271C31.0505 29.1687 30.8456 28.8076 30.7219 28.4296L30.7097 28.3936C30.4765 27.6751 31.554 26.8661 32.0879 27.8825L34.8086 33.7946C34.9326 34.0619 35.218 34.431 35.2713 34.584L35.2692 27.9474C35.268 26.4128 34.8884 25.2258 34.531 23.7385L34.1094 21.8635C33.4431 18.8784 32.9458 16.9387 34.9731 14.4296C35.1089 14.2614 35.4582 14.019 35.2347 13.8134C34.7722 13.3877 33.9877 13.4817 33.4177 13.4814L31.0806 13.4825ZM36.1519 15.3163C34.742 16.9902 34.8424 18.4071 35.2982 20.3905L35.6368 21.9953L37.0378 27.7292C37.0612 27.8405 37.1135 27.956 37.1464 28.0663L38.5476 31.7086L39.2634 33.3397C39.6661 34.4324 40.6146 36.0787 41.9822 35.5384L42.9398 35.042C44.2414 34.4444 45.1158 34.0438 44.4255 32.5145L38.9361 21.6285L36.469 16.0109C36.3893 15.8272 36.3047 15.4399 36.1519 15.3163ZM11.8414 15.322C11.5216 15.8665 11.3434 16.5186 11.0843 17.0976L8.63932 22.4486L4.03014 31.6054C3.67465 32.3174 3.04893 33.1025 3.39611 33.9257L3.41217 33.9646C3.57923 34.3453 3.99571 34.5417 4.34912 34.7024L5.1169 35.0636C5.62559 35.3256 6.12739 35.6997 6.72635 35.6324L6.76156 35.6288C7.68837 35.5254 8.1582 34.5764 8.50967 33.8345L9.3011 31.9882L11.2963 26.1444L12.8036 19.8515C12.9509 19.1288 13.0744 18.3532 12.9535 17.6167L12.942 17.5546C12.8022 16.7835 12.459 15.9831 11.9178 15.4048L11.8414 15.322Z" fill="black"/>
</svg>
