<svg width="48" height="48" viewBox="0 0 48 48" fill="none" xmlns="http://www.w3.org/2000/svg">
<path d="M24.3399 41.2296L13.6689 41.229C13.4983 41.2289 13.3231 41.24 13.1585 41.188L13.1257 41.1773C12.4202 40.9562 12.0231 40.3901 12.0206 39.6749L12.0184 37.4545C11.9547 37.3774 11.8404 37.3528 11.7548 37.3042C10.6052 36.6502 10.0523 33.7452 9.88119 32.4417L9.77638 31.6234C9.75665 31.4317 9.76415 31.192 9.71019 31.0092L9.69688 30.9612C9.65127 30.728 9.66182 30.4666 9.65905 30.2293L9.61124 28.4417C9.60533 28.1408 9.63051 27.8453 9.63899 27.5455L9.68263 26.2711L10.0165 23.4383C10.3293 21.2093 10.8568 18.9487 11.6818 16.8518C12.6713 14.3367 13.5398 13.2325 16.1968 12.6966C14.6601 9.17128 17.5008 7.17731 20.7289 6.93262C21.0947 6.90492 21.4719 6.92133 21.8388 6.92048L23.8434 6.91406L25.2047 6.9195C25.7393 6.92536 26.2864 6.89775 26.8192 6.93488C28.7788 7.07128 31.3698 7.53698 32.0017 9.69403C32.0313 9.79509 32.0405 9.90497 32.0725 10.0027L32.0835 10.0351C32.3169 10.7689 31.859 11.9137 31.5291 12.5469C32.2219 12.868 33.0053 12.9809 33.7032 13.3077C34.6958 13.7725 35.3653 14.6998 35.7295 15.715L37.0115 19.2659L37.2007 19.9456C37.2426 20.1651 37.3186 20.3844 37.3694 20.6028L37.7019 22.1026C37.8228 22.6771 37.9424 23.2699 38.0241 23.851L38.3624 26.8218C38.5492 29.4092 38.2603 35.8564 36.3697 37.2415C35.9934 37.5172 35.9757 37.2987 35.9755 37.8043L35.9752 39.2228C35.975 39.4805 36.0209 39.8595 35.9335 40.1002C35.5092 41.2693 34.7488 41.2292 33.6242 41.2296L24.3399 41.2296ZM23.3515 8.37586L21.6872 8.37759C20.2919 8.37994 18.8223 8.45362 17.77 9.50873C16.0496 11.2337 18.1423 13.6007 19.9571 14.0633C20.3662 14.1675 20.7722 14.257 21.1941 14.2658L24.4806 14.2678C26.3519 14.2717 28.1612 14.1116 29.5781 12.6941C30.5452 11.7266 31.3196 10.5203 30.1656 9.38156C29.7068 8.9287 29.0994 8.68181 28.4766 8.55347L27.7386 8.4375C27.5186 8.39972 27.2795 8.39845 27.0562 8.39095L23.3515 8.37586ZM30.5149 13.7532C28.9532 15.1321 27.5919 15.5674 25.5892 15.6436L25.6076 15.6657C25.9948 16.1416 27.1974 18.28 27.2315 18.6475C27.2776 19.1434 27.2377 19.6749 27.2384 20.175L27.2404 21.7325C27.2406 21.9629 27.2887 22.3436 27.2055 22.554C26.9489 23.2023 26.21 23.1961 25.898 22.6292L25.8824 22.6017C25.7759 22.4038 25.8306 21.957 25.8308 21.7329L25.8335 19.8006C25.8339 19.4716 25.9371 18.9168 25.7515 18.6315L24.4341 16.4385C24.2843 16.1988 24.1386 15.9324 23.9655 15.7104L22.8363 15.7377C22.92 15.8497 23.0053 16.0284 23.0706 16.1531L23.5722 17.0772C23.7331 17.3602 23.9208 17.6423 24.0186 17.9534L24.0344 17.9922C24.1576 18.311 24.1212 22.5135 24.0555 22.641C24.0324 22.686 24.0036 22.7159 23.9691 22.751L23.9405 22.7807C23.5776 23.1511 23.1116 23.1198 22.8102 22.6861L22.7915 22.6597C22.6133 22.4006 22.7058 22.0046 22.7061 21.7081L22.705 19.6055C22.7046 19.2555 22.8029 18.6171 22.63 18.3114L21.1292 15.6644C19.6843 15.5636 18.5045 15.1817 17.4268 14.2177C17.1609 13.9799 17.1779 13.8403 16.8612 13.9447L16.2657 14.1537C15.1752 14.5098 14.6016 14.5065 13.911 15.4868C12.9145 16.9014 12.1794 19.6072 11.8156 21.2897L11.3052 24.2896C11.2522 24.6752 11.1714 25.059 11.1473 25.4483L11.0463 26.6509L11.0612 30.6331C11.1259 31.7727 11.6542 35.4553 12.4236 36.013L14.8133 36.0207L14.242 21.1585C14.2292 20.4072 14.9952 20.2103 15.3765 20.6153C15.6579 20.9143 15.6278 21.3858 15.6675 21.7643L15.9209 25.2037L15.9388 26.6887C15.9433 26.8746 15.9749 27.0596 15.9885 27.2451L16.099 30.3307L16.1347 33.0003C16.1709 33.7491 16.1356 34.6129 16.2156 35.3103L19.4841 35.0783L21.2094 35.0677C21.3822 35.0643 21.5527 35.0347 21.726 35.0317L25.1576 35.0319L29.5819 35.1941L29.9625 35.2395C30.5229 35.2802 31.0794 35.2532 31.6407 35.3117C31.6488 34.5821 31.7342 33.858 31.7808 33.1311C31.8406 32.198 31.8681 31.2895 31.9051 30.3578L32.0372 27.1526L32.0378 25.0188C32.0381 24.539 32.0256 24.0546 32.0778 23.5768L32.2497 21.8089C32.2819 21.5229 32.2959 21.1593 32.4 20.8913C32.5888 20.4056 33.3116 20.2194 33.5807 20.7307L33.5993 20.7653C33.7397 21.0322 33.6966 21.3015 33.665 21.5889L33.5131 22.9222C33.4935 23.0953 33.4569 23.2621 33.4499 23.4373L33.4372 27.3017C33.4348 27.5852 33.3833 27.8584 33.3793 28.1416L33.3637 29.6591L33.0399 34.8987C33.006 35.2658 32.9674 35.6493 32.9802 36.0183C33.2649 36.0184 35.532 36.0492 35.5986 36.0168C35.6846 35.975 35.7324 35.8425 35.7787 35.7672C36.7441 34.1998 36.9013 31.5733 36.9627 29.6956L36.949 26.6253C36.8411 24.4422 36.2318 21.4716 35.6086 19.4279L34.6995 16.8984C33.8532 14.7671 33.7528 14.7438 31.6002 14.0743C31.2448 13.9637 30.8778 13.8323 30.5149 13.7532ZM20.9695 36.4782L16.2921 36.676L16.3005 37.688C16.3057 38.1034 16.3412 39.3678 16.4331 39.7654L26.8946 39.7661L31.3112 39.7665L31.5098 36.6794C31.2689 36.6386 31.0097 36.656 30.765 36.6551L29.1667 36.6474C28.9236 36.6383 28.6827 36.5923 28.4398 36.574L26.6893 36.4851L20.9695 36.4782ZM13.464 37.477C13.4607 37.6905 13.4576 39.7 13.4905 39.7647L15.0171 39.7656L14.8792 37.4798L13.464 37.477ZM32.8909 37.477L32.801 38.7614C32.7828 39.0916 32.7453 39.4299 32.7385 39.7583L34.4732 39.7661L34.5448 37.4767L32.8909 37.477Z" fill="black"/>
</svg>
