<svg width="48" height="48" viewBox="0 0 48 48" fill="none" xmlns="http://www.w3.org/2000/svg">
<path d="M25.7757 45.9676L16.4757 45.968C15.7582 45.9673 15.0329 46.0084 14.33 45.8399C12.7112 45.4517 11.5642 44.3865 10.7219 43.0109C9.75033 45.2606 9.48854 45.4284 7.17301 45.2676C6.54835 45.2242 5.86721 45.2264 5.24124 45.2658C4.88419 45.2883 4.49279 45.3732 4.13742 45.315C2.21197 44.9998 1.25399 43.0018 0.968336 41.2451C0.932668 41.0257 0.935064 40.8012 0.902818 40.5822L0.893556 40.5188C0.865712 40.2538 0.893265 39.9708 0.916295 39.7063L1.2596 36.6239L3.14318 26.5024L4.33879 20.9774L5.93326 14.848C7.12974 11.3805 9.29766 10.1151 12.6449 9.46673L15.7624 9.00632C17.071 8.84352 16.912 8.02298 16.7299 6.94767C16.5578 5.93127 16.9693 4.65185 17.5588 3.84352C18.3762 2.72266 19.9019 2.20578 21.2268 2.00058C21.5319 1.97074 21.8504 1.98887 22.1567 1.98871L25.9668 1.98803C26.8127 1.98872 27.5604 2.01078 28.3799 2.27248C29.2103 2.53766 30.2477 3.11565 30.6486 3.92036C31.0144 4.65469 31.704 6.38742 31.3565 7.22123C31.2485 7.48026 31.1081 7.9416 31.1495 8.21263L31.176 8.35584C31.3185 8.97712 31.9281 8.97552 32.4417 9.02563L35.3685 9.4574C37.61 9.86577 39.6157 10.7286 40.8367 12.7964C41.2411 13.4812 41.6156 14.2998 41.7979 15.0744C41.8066 15.1112 41.8148 15.1449 41.8278 15.1807L42.6403 18.4916C42.6879 18.7877 42.7666 19.093 42.8448 19.3832L43.4163 21.8324C43.4412 21.9359 43.4767 22.0333 43.491 22.14L45.5711 32.2668C45.6179 32.437 45.6245 32.6065 45.6571 32.7777L46.4102 37.7816C46.5918 39.2795 46.8268 40.9291 46.3411 42.3948C45.8963 43.7376 44.9915 45.1492 43.4618 45.298C43.2267 45.3209 42.9981 45.266 42.7635 45.2581L41.287 45.2555C40.1925 45.2662 39.131 45.5582 38.0801 45.0996C37.3743 44.7915 37.151 44.2231 36.7255 43.6612C36.5329 43.9142 36.377 44.1779 36.1501 44.4061C34.8477 45.7159 33.5714 45.9664 31.826 45.9682L25.7757 45.9676ZM21.2101 3.17104C20.4214 3.25296 19.6686 3.61697 19.0297 4.07173C18.926 4.14552 18.3323 4.57722 18.3534 4.71895C18.3968 5.01084 19.2859 5.76665 19.5436 5.94346C21.1906 7.07348 23.6021 7.66467 25.5478 7.29815L26.5008 7.02332C27.7737 6.53193 29.0232 5.80687 29.6745 4.56055C29.0247 3.29386 27.2339 3.16993 25.988 3.16958L21.2101 3.17104ZM30.176 5.92668C29.0227 7.33054 27.0111 8.34276 25.2086 8.52131L24.5822 8.57643C24.5243 9.03815 24.546 9.51782 24.5455 9.98296L24.5155 44.7688C24.9365 44.8036 25.3869 44.773 25.8111 44.774L31.3847 44.7731C31.9741 44.7731 32.6135 44.8207 33.1923 44.7109C34.3831 44.4848 35.7704 43.5485 36.0991 42.3194L36.1629 42.1108C36.4419 41.2443 35.8515 38.6796 35.6065 37.8051L34.7439 35.1559C33.8525 32.445 32.2471 27.8589 32.5268 24.9569C32.6225 23.9652 33.0817 23.0494 33.4712 22.1484L34.4183 19.9403C34.8582 18.8766 35.3727 17.6038 34.488 16.6004C34.3284 16.4195 34.1423 16.2668 33.9695 16.0997L30.8183 12.8804C30.5044 12.561 30.214 12.2087 29.8848 11.9061C29.3908 12.1772 27.3127 13.1858 26.7377 12.9935C26.4256 12.8891 26.2574 12.5116 26.3938 12.2104C26.5678 11.8263 27.0642 11.8165 27.415 11.7066C28.1108 11.4887 28.7603 11.192 29.4029 10.8492C29.974 10.5446 30.3489 10.2509 30.5332 9.58457C30.4178 9.37363 30.2551 9.21154 30.1586 8.98359C29.7212 7.94981 30.4096 6.97973 30.176 5.92668ZM17.897 6.0824C17.6784 7.21771 18.4873 7.96715 17.5974 9.39337L17.4153 9.66299C17.9436 10.6955 19.4892 11.3419 20.5558 11.684L21.2007 11.8574C21.3451 11.8934 21.5015 11.9203 21.6214 12.013L21.6444 12.0304C21.8606 12.2029 21.8932 12.59 21.7152 12.7994C21.3999 13.1706 20.9648 13.0058 20.5655 12.8955C19.7 12.6567 18.7643 12.2931 17.9886 11.8272L14.4528 15.65C14.0591 16.0759 13.564 16.3902 13.2492 16.8875C12.9006 17.4383 12.8601 18.2219 13.0698 18.8372L13.8093 20.8578L14.3341 22.126C14.9637 23.5896 15.2874 24.2072 15.2853 25.8509C15.283 27.583 14.8148 29.3324 14.3089 30.979L13.0667 34.6594C12.3951 36.5939 10.9634 40.0972 11.6669 42.1352C12.0778 43.4536 13.4704 44.5568 14.8412 44.7386C15.2286 44.7899 15.5958 44.7742 15.9847 44.7727L23.3605 44.7792L23.4295 8.53696C21.6698 8.24376 19.9241 7.77913 18.5072 6.6292C18.3809 6.52668 18.0369 6.10663 17.897 6.0824ZM16.2998 10.0902L12.7971 10.6097C8.16624 11.4817 7.34668 13.6708 6.28144 17.8363L5.16535 22.5223L2.72404 34.663L2.15594 38.6748C2.07516 39.5782 2.00377 40.4707 2.1683 41.3701L2.25566 41.7974C2.27033 41.8776 2.3118 41.9593 2.34293 42.0345L4.62908 41.574C4.88274 41.5075 5.21208 41.5373 5.47515 41.5339C6.36718 41.5345 7.19658 41.5091 8.07633 41.6676L9.12436 41.8859C9.5753 42.0003 10.0246 42.1916 10.4939 42.1881C10.0735 40.6371 10.5481 38.5234 11.0161 37.0461L12.7294 32.0774C13.4041 30.0951 14.0213 28.097 14.1494 25.9929C14.2305 24.6592 13.6635 23.5147 13.1617 22.3214L12.4077 20.4599C11.8668 19.0732 11.4612 17.6749 12.2684 16.2816C12.5896 15.727 13.128 15.3248 13.5613 14.8594L17.0324 11.172C16.765 10.8319 16.5325 10.488 16.357 10.0902H16.2998ZM31.6366 10.1045C31.3338 10.7108 31.158 10.8173 30.8464 11.277L34.8458 15.3072C36.6838 17.0572 36.2937 18.4806 35.3521 20.6789L34.1591 23.4965C33.9406 24.0344 33.6986 24.5368 33.6554 25.127C33.5551 26.4947 33.8955 28.1596 34.2339 29.4886L35.1754 32.7314L36.6795 37.3949C37.1201 38.8132 37.4463 40.9493 37.3357 42.3923C38.7114 41.8609 40.4779 41.5657 41.9538 41.6028C43.2945 41.5627 44.0107 41.7497 45.2201 42.1486C45.4708 41.4517 45.4986 40.6418 45.4598 39.9096L45.3053 38.2387C45.0955 36.0294 44.6825 33.8445 44.2787 31.6644L41.172 17.3461C40.3163 13.6655 39.5407 11.5341 35.5819 10.6873L32.2098 10.1885C32.0255 10.1669 31.8137 10.1569 31.6366 10.1045ZM6.2401 42.7019C5.11008 42.7012 3.97089 42.8239 2.87615 43.1123C3.40903 44.0055 4.12428 44.349 5.12138 44.1107C5.41421 44.0406 5.78396 44.0798 6.08466 44.0803C6.38537 44.0801 6.69746 44.0652 6.9968 44.0901C8.12372 44.1842 8.94127 44.4358 9.40069 43.1826C8.39044 42.7837 7.31363 42.7109 6.2401 42.7019ZM41.4303 42.7264C40.8255 42.8133 38.3674 43.0906 37.9347 43.4307C38.5799 44.5339 40.1423 44.1751 41.1972 44.0887L42.7243 44.0815C43.7041 44.0863 44.0513 44.1248 44.7166 43.2068C43.7442 42.7849 42.4856 42.6764 41.4303 42.7264Z" fill="black"/>
</svg>
