<svg width="48" height="48" viewBox="0 0 48 48" fill="none" xmlns="http://www.w3.org/2000/svg">
<path d="M24.1469 41.1693L22.7777 41.1528C22.2333 41.1424 21.694 41.079 21.1506 41.0321L19.2751 40.8807C17.1295 40.7551 15.7596 40.4659 14.4069 38.5033C13.4097 37.0563 13.5457 35.7345 13.6765 34.1387L13.9658 30.4971C14.004 29.6825 14.0802 28.9554 14.0821 28.1333C14.0863 26.343 13.9712 25.5678 13.3813 23.8138L13.0829 25.9413L10.9729 37.945C10.7224 39.1491 10.6756 39.0454 9.58084 39.0468L6.88431 39.0474C6.706 39.0473 6.50116 39.0669 6.32589 39.0395C5.75936 38.9511 5.96031 37.9523 5.99191 37.6284L7.01795 25.8188L7.25172 22.2176C7.27792 21.806 7.29962 20.8904 7.3668 20.5832C7.46172 20.149 7.44536 19.6499 7.44541 19.2074C7.44564 17.0263 7.67219 14.9726 9.39559 13.4102C10.7266 12.2035 14.589 10.927 16.2748 10.3473L16.7848 10.1848C17.0095 10.1167 16.942 10.1185 16.9645 9.8808C17.053 8.94794 17.5828 8.03013 18.2169 7.36404C19.5703 5.94237 21.5529 5.47155 23.4488 5.4198C26.2263 5.32502 29.2982 5.89427 30.5747 8.66857C30.6695 8.87472 30.7753 9.08468 30.8287 9.30649L30.8451 9.37469C31.0416 9.98782 30.7247 9.91291 31.3548 10.1332L35.5735 11.5758C37.853 12.3851 39.8452 13.5068 40.7011 15.9643L41.0167 17.1091C41.0993 17.5269 41.1262 17.9474 41.1283 18.3723L41.138 19.6435C41.1472 19.8738 41.1939 20.0961 41.2068 20.3253L41.3557 23.0378C41.3643 23.1824 41.3981 23.3229 41.4072 23.4678L42.0107 31.3678L42.6545 38.1285C42.6746 38.3057 42.7406 38.4361 42.6712 38.6164L42.6583 38.6481C42.449 39.175 41.8615 39.0463 41.4092 39.0468L38.6141 39.0486C38.1537 39.0513 37.6862 39.1483 37.5319 38.5736C37.3779 37.9998 37.3142 37.3788 37.2075 36.7936L35.3579 24.9916C35.3303 24.7883 35.2805 24.592 35.2622 24.387C34.751 25.5899 34.8371 26.8556 34.8354 28.1313L34.8336 35.1082C34.834 35.6347 34.8447 36.1651 34.7468 36.6847C34.4124 38.4597 33.0669 40.0289 31.3375 40.5776C30.4284 40.8661 29.8159 40.8113 28.911 40.8857L26.57 41.0768C26.3514 41.0943 26.1346 41.1363 25.9156 41.147L24.1469 41.1693ZM23.2662 6.82441C21.7315 6.91526 20.1223 7.26757 19.0611 8.46551C18.2612 9.36846 18.0123 10.7292 18.4905 11.8473C18.837 12.6574 19.4131 13.2607 20.0062 13.8951L22.1305 16.1081C22.5421 16.5697 22.9673 17.0405 23.328 17.5433C23.5261 17.8193 23.6729 18.1289 23.8677 18.4034L23.9856 18.1873C24.0392 18.0968 24.0816 18.0003 24.1488 17.9188C24.4889 17.3721 24.9346 16.8952 25.3708 16.4249L26.8703 14.8736C28.2302 13.5312 30.0415 11.951 29.5338 9.80472C28.9544 7.35452 26.3012 6.81785 24.1431 6.82038L23.2662 6.82441ZM30.8829 11.4483C30.3922 13.3584 29.3057 14.4278 27.9273 15.7785L26.413 17.3177C25.8662 17.9018 25.352 18.486 24.9997 19.2114C24.8552 19.5089 24.5054 20.1855 24.5638 20.5192C24.6108 20.7879 24.6527 20.9831 24.5827 21.2546C24.2397 22.5846 23.6744 23.8827 23.1664 25.157L22.6017 26.5361C22.5222 26.7219 22.4605 26.9311 22.3579 27.1052C21.9323 27.8271 20.9643 27.2731 21.2184 26.423C21.4159 25.7622 21.7141 25.1312 21.9721 24.4931L22.693 22.5729C22.8743 22.09 23.1481 21.5163 23.1764 21.0008C23.2565 19.5387 22.195 18.2778 21.2881 17.2515L19.2075 15.0345C18.371 14.1647 17.5239 13.2726 17.1335 12.1052C17.0735 11.9258 17.0435 11.7266 16.9692 11.5542L12.2698 13.2995C12.2841 13.4325 12.3213 13.5629 12.3338 13.694L12.662 16.625L12.9954 18.3945C13.154 19.2026 13.3361 20.0194 13.6047 20.7993L14.378 22.7054C14.6557 23.2982 15.0546 24.4125 15.1706 25.0255L15.2195 25.2356C15.3021 25.5155 15.4392 26.6553 15.4407 27.0278L15.4245 29.5091L15.0387 34.3003C14.9351 35.1603 14.807 36.0464 15.1414 36.8786C15.9725 38.9466 17.2893 39.4024 19.2746 39.509L20.7497 39.5862C21.3862 39.618 22.0209 39.7418 22.6592 39.764L25.6641 39.7557C25.8757 39.7449 26.0804 39.7053 26.2903 39.6903L29.8738 39.4648C31.6592 39.3138 33.2136 37.9793 33.4582 36.1821C33.5001 35.8748 33.4871 35.55 33.4874 35.2401V27.0532C33.49 25.1854 33.812 24.1173 34.5531 22.3656C35.3244 20.5428 35.6399 19.2071 35.9548 17.2197L36.407 13.3557L30.8829 11.4483ZM11.0035 13.9601C9.46417 14.7641 8.81247 16.6078 8.81008 18.2577L8.67583 21.7991L7.38119 37.6419L8.8142 37.6403L9.64787 37.6588L9.91431 36.2516L12.3223 21.9372C12.3739 21.6387 12.3757 21.5174 12.2913 21.2247L11.683 18.8552C11.3382 17.2429 11.1555 15.5997 11.0035 13.9601ZM37.7249 14.1677C37.6304 14.6827 37.6243 15.2272 37.5534 15.7484L36.9863 19.1836L36.3516 21.5985C36.2618 21.8683 36.2858 21.9798 36.3277 22.2658L36.5216 23.5145C36.6302 24.2931 36.7311 25.0707 36.8467 25.8486L37.9779 33.1609L38.6738 37.2536C38.6948 37.3857 38.6882 37.51 38.727 37.6406L39.7814 37.6403L41.2316 37.6618L40.7152 32.2167L39.9615 22.5196L39.7847 19.5231C39.75 18.7313 39.8369 17.9478 39.635 17.1706C39.3151 15.9392 38.734 14.9892 37.7646 14.1686L37.7249 14.1677Z" fill="black"/>
<path d="M25.6907 25.1114C24.885 25.2199 24.8201 24.4406 25.0268 23.8482C25.2844 23.1098 25.6292 22.4067 25.9218 21.6823L26.9177 19.2857C27.1153 18.8319 27.1802 18.4228 27.6557 18.1925C27.9979 18.1557 28.2528 18.1991 28.4191 18.5349L28.4738 18.6509C28.6588 19.1248 28.0126 20.1856 27.8321 20.6309L26.1441 24.6975C26.0505 24.9149 25.9075 25.0251 25.6907 25.1114Z" fill="black"/>
</svg>
