<svg width="48" height="48" viewBox="0 0 48 48" fill="none" xmlns="http://www.w3.org/2000/svg">
<path d="M24.67 31.94L24.0683 26.5407L21.8507 43.0688C21.2488 46.8433 16.1068 46.2888 13.4063 45.4455C13.0992 45.3496 12.8172 45.1979 12.503 45.1229L11.1965 44.8746C10.5161 44.7326 6.42443 43.8457 6.09152 43.3593C5.79705 42.929 5.97776 42.5211 6.09302 42.0659L11.4915 21.3723L12.3745 15.9491C12.4715 15.0054 12.4601 14.0033 12.4026 13.0604C12.3836 12.7498 12.3068 12.4443 12.3017 12.1341L12.2831 8.16603L12.1411 6.26628L12.128 2.94969C12.1264 2.53174 12.1582 2.20982 12.5598 1.97013L12.594 1.9502C12.8885 1.77586 14.1597 1.88575 14.5556 1.88559L18.2698 1.88555L35.245 1.89173C35.8491 1.96941 35.8615 2.51884 35.8621 2.95498L35.86 6.04321C35.8591 6.7138 35.7371 7.43014 35.9069 8.02747C36.0588 8.56138 36.0913 9.15819 36.0927 9.71267L35.8171 13.5587L35.8075 15.9591C35.8085 16.3898 35.769 16.8658 35.8276 17.2892L36.5519 21.2716C36.5581 21.3118 36.5642 21.345 36.5772 21.384L37.3887 24.6559C37.4115 24.7826 37.4618 24.899 37.4844 25.0258L37.9513 26.8587C37.9965 27.1087 38.0945 27.3538 38.1401 27.6047L38.6295 29.4774C38.6374 29.5162 38.6449 29.5506 38.6574 29.5885L38.9817 30.7853C38.9916 30.8281 38.9998 30.8668 39.0141 30.9085L39.1708 31.4503C39.2617 31.8908 39.4332 32.6031 39.5769 33.0046L40.2007 35.1564C40.2095 35.1981 40.2175 35.2358 40.2317 35.2761L40.9102 37.5956C41.0681 38.124 41.1794 38.6744 41.3442 39.1993C41.4937 39.6757 41.6314 40.2132 41.707 40.7086L42.0652 42.5392C42.0912 42.6848 42.1222 42.9092 42.0742 43.0512L42.0641 43.0783C41.8837 43.5699 41.5849 43.5833 41.1514 43.7973C39.2047 44.7581 37.0804 45.1881 34.9571 45.5625L33.586 45.8205C32.4173 46.0153 30.3575 46.1589 29.149 45.9995C27.6286 45.7989 26.1652 44.7085 25.747 43.2018C25.608 42.7012 25.6219 42.1208 25.5765 41.604L24.67 31.94ZM13.7054 3.35856L13.6222 3.36707C13.5559 3.63216 13.5925 3.97389 13.5924 4.24937L13.5935 5.83011L19.7111 5.82955L19.771 5.83963C19.7956 5.65082 19.783 5.44752 19.7837 5.2566L19.7844 3.67948C19.7843 3.58069 19.7975 3.46353 19.7734 3.3679L13.7054 3.35856ZM21.3427 3.35856L21.266 3.36752C21.199 3.69949 21.2285 5.50967 21.2603 5.85369L26.748 5.82955L26.8165 5.83016C26.8624 5.58828 26.8317 5.29442 26.8319 5.04707L26.8316 3.36714L21.3427 3.35856ZM28.4167 3.35977L28.3036 5.82866L34.2774 5.82992L34.3535 3.37044L28.4167 3.35977ZM13.8347 7.32842L13.6992 7.33236C13.6121 7.607 13.7471 8.04627 13.7536 8.3338L13.7519 10.127C13.7525 10.3908 13.7396 10.6625 13.7649 10.9252C14.7356 10.7786 16.366 10.6805 17.0994 9.93435C17.9168 9.23478 18.1771 8.40135 18.2685 7.34117L13.8347 7.32842ZM19.7179 7.33499C19.7037 7.58844 19.7049 7.86407 19.6692 8.13946C19.4185 10.0775 18 11.5806 16.1278 12.0603C15.4063 12.2452 14.415 12.2574 13.8132 12.4349C13.9638 14.6253 13.7799 16.7186 13.4133 18.8813L12.6235 22.8217L7.57498 42.316L11.6752 43.4964L13.7227 44.0623C14.9238 44.4036 16.1564 44.6466 17.4076 44.6482C19.1244 44.6503 20.1714 44.5382 20.4727 42.5222L21.9985 32.3158L22.6014 26.2434C22.6235 25.9138 22.6128 25.5793 22.6129 25.249L22.6023 7.35538L19.7179 7.33499ZM29.8172 7.33499L29.7209 7.34024C29.6811 7.73736 29.7834 8.33539 29.9414 8.69174C30.7691 10.5579 32.646 10.9039 34.5117 10.8697L34.5869 10.8507C34.6281 10.0626 34.6394 9.28035 34.5132 8.49927C34.4498 8.10697 34.3316 7.73432 34.2825 7.33771L29.8172 7.33499ZM24.095 7.33785C24.0457 7.70985 24.064 8.08991 24.0638 8.45933L24.0645 15.7127C24.0648 16.3301 23.9786 16.6623 24.7617 16.0668L25.0324 15.8292C25.5612 15.2523 25.5552 14.6991 25.5632 13.9715L25.5483 7.3393L24.095 7.33785ZM27.0475 7.33499C27.0047 7.60489 27.0215 7.88178 27.0229 8.15352L27.0258 13.3925C27.0289 14.1073 27.0461 14.7576 26.8952 15.4582C26.6347 16.6677 25.4111 17.6897 24.1918 17.8158L25.0733 23.0475L25.7264 27.9586L26.9102 40.0314L27.0899 41.7845C27.2231 43.0464 27.2211 43.6693 28.6063 44.2871C30.162 44.9807 34.0571 44.2168 35.6485 43.8978C36.0339 43.8205 36.4391 43.7612 36.8189 43.6632L36.8262 43.6598C38.1183 43.3481 39.3902 43.0431 40.5543 42.3742C40.3372 41.1092 39.9991 39.8721 39.6541 38.637L35.6123 23.6134C35.1744 21.8026 34.6369 19.9889 34.4366 18.1322C34.3294 17.1376 34.332 16.1453 34.3317 15.1468L34.4106 12.3725C33.6229 12.3234 32.9897 12.3251 32.195 12.1565C29.7834 11.6446 28.2536 9.85611 28.2364 7.33466L27.0475 7.33499Z" fill="black"/>
<path d="M24.0754 5.29502C23.2044 5.35872 23.1003 4.14121 23.9255 3.89269C24.7503 3.80071 24.9365 5.00617 24.0754 5.29502Z" fill="black"/>
</svg>
