<svg width="48" height="48" viewBox="0 0 48 48" fill="none" xmlns="http://www.w3.org/2000/svg">
<path d="M25.3767 28.3289L24.0219 21.2222C23.8384 21.6604 23.7693 22.1688 23.667 22.6329L21.4155 35.2265L20.157 41.1913L19.4085 44.4022C19.2302 45.3 18.9084 45.3478 17.9738 45.3517L15.6837 45.3475C14.5587 45.2937 11.4633 45.0171 11.0875 43.9694C11.0426 43.8441 11.0597 43.6505 11.0666 43.5186L11.7505 36.2737C11.8296 35.5462 11.9475 34.8129 11.9882 34.0822C12.031 33.3161 11.9975 32.53 11.9972 31.7622L11.9921 28.5224C11.9875 28.2982 11.9377 28.0813 11.9339 27.8581L11.8313 24.8686L11.8283 18.0929C11.8383 17.8104 11.8876 17.5309 11.9035 17.2499C12.064 14.4188 12.5375 11.7367 13.6145 9.10247L14.46 7.2097C14.5479 6.99801 14.6002 6.77831 14.6823 6.56606C14.7298 6.4432 14.8247 6.3382 14.8631 6.21487C15.005 5.75845 15.046 5.20092 15.0678 4.72893L15.073 3.77393C15.0722 3.20217 15.0887 2.84655 15.6961 2.65142L31.863 2.64335C32.1363 2.64316 32.4524 2.57471 32.6837 2.74825C33.1308 3.08367 32.9503 3.86698 32.9227 4.33644C32.872 5.1989 33.0269 5.88145 33.3363 6.66304L33.9734 8.13543C34.3247 8.92312 34.6414 9.71962 34.9058 10.5404L35.1569 11.4491C35.2786 11.857 35.4039 12.2732 35.4934 12.6895L35.849 14.5538C36.0007 15.5484 36.1301 16.8185 36.1719 17.8402L36.1795 25.6643C36.1676 26.1244 36.0783 26.5784 36.0634 27.0393L36.0493 28.5756C36.0447 28.7843 36.002 28.9898 35.9988 29.1979L35.996 33.6856C35.9972 34.17 36.0581 34.648 36.0935 35.1327L36.9455 43.5954C37.0127 44.4216 36.4517 44.5486 35.7645 44.7633C34.7884 45.0683 33.411 45.3133 32.366 45.3495L30.7037 45.3527C29.7068 45.3511 28.9134 45.5471 28.6585 44.3732L26.5566 34.8515L25.3767 28.3289ZM17.5592 4.01273L16.45 4.02896L16.2994 6.0075C16.3322 6.03623 16.5362 6.02006 16.5907 6.01987L30.5062 6.01739L31.7176 6.01907C31.6371 5.58857 31.5906 5.14978 31.5729 4.71229C31.5641 4.49447 31.6017 4.22583 31.5541 4.01616L17.5592 4.01273ZM20.8513 7.42758C20.5056 9.30464 19.5971 10.6073 17.6714 11.2579C16.625 11.6114 15.4918 11.5883 14.4009 11.5773C14.1567 11.5748 14.1562 11.5281 14.1065 11.7983L14.0995 11.847C14.062 12.1035 13.9645 12.3785 13.903 12.6327L13.6238 13.9583C13.4746 14.7368 13.378 15.5504 13.3117 16.3404L13.2841 17.0264C13.2301 17.6428 13.1994 18.0579 13.196 18.6948L13.2015 24.8554C13.213 25.2422 13.2913 25.6331 13.3047 26.0219L13.3166 29.5429C13.3189 29.7361 13.3543 29.9272 13.3574 30.1209L13.358 34.1249C13.3522 34.5662 13.2672 35.0213 13.2207 35.4608L13.0021 37.6965C12.9604 38.3197 12.8365 38.2252 13.5009 38.2233L15.2358 38.2225C15.4365 38.223 15.7688 38.181 15.9493 38.2517C16.6589 38.5295 16.4651 39.5871 15.5983 39.5901L12.8243 39.5941C12.802 39.734 12.8042 39.8681 12.7907 40.0077L12.4682 43.1269C12.4638 43.1871 12.4473 43.2664 12.4646 43.3241C12.7194 43.5077 13.1502 43.5721 13.4541 43.6288L15.6195 43.9106C16.4416 43.9843 17.3021 44.0703 18.1235 43.9517C18.237 43.5651 18.3089 43.1656 18.3999 42.7733L20.3341 33.4978L21.8855 24.5155L23.2277 18.7102C23.4811 17.8089 23.2997 17.0652 23.3786 16.1375C23.4051 15.826 23.536 15.5314 23.6206 15.232C23.8206 14.5239 23.8111 13.863 23.8115 13.1365L23.8114 8.60648C23.8112 8.2177 23.8396 7.80867 23.7977 7.42322L21.6998 7.42692C21.4287 7.42673 21.1161 7.38239 20.8513 7.42758ZM25.7504 7.42758L25.1514 7.42936C25.1007 8.02584 25.1425 8.65617 25.1426 9.25617L25.1428 12.8866C25.1426 13.779 25.1985 14.5995 24.976 15.4697C26.2434 15.3555 26.9221 14.9897 27.2492 13.776C27.4312 13.1004 28.2904 13.0681 28.5321 13.7256L28.5407 13.7478C28.632 14.0007 28.556 14.2388 28.485 14.4813C28.0457 15.9817 26.6653 16.6686 25.2237 16.8418C25.0692 16.8604 24.9033 16.843 24.7526 16.8769C24.6015 17.9704 24.7547 18.779 25.0583 19.8163L26.0268 23.9882L26.6735 27.7382C26.7008 27.8755 26.7046 28.0176 26.7306 28.155L27.0479 29.953C27.07 30.0608 27.0725 30.1728 27.0932 30.2812L27.4103 31.9831C27.4487 32.167 27.4601 32.3561 27.5097 32.5379L28.9126 39.2612C29.1226 40.0501 29.2778 40.9452 29.4518 41.7538L29.7767 43.1188C29.8323 43.366 29.8596 43.6608 29.9732 43.8877C30.8592 43.9972 31.7256 43.9888 32.6123 43.908C33.6435 43.8589 34.6008 43.6775 35.5857 43.3705L35.2073 39.8887C35.1996 39.8054 35.2078 39.6612 35.1651 39.5913L32.917 39.5915C32.6369 39.5918 32.2778 39.6369 32.0054 39.5817C31.3038 39.4394 31.3077 38.3797 31.9919 38.2365C32.25 38.1824 32.6021 38.2243 32.8686 38.2239L35.0522 38.1767C35.014 37.9282 35.0028 37.673 34.9764 37.4231L34.8454 36.2414C34.7832 35.6369 34.69 35.0254 34.67 34.4179L34.6727 28.043C34.6734 27.8078 34.6459 27.5284 34.6936 27.2997L34.7336 26.9921C34.8139 26.5413 34.8011 25.6085 34.8196 25.0678L34.82 18.076C34.7573 16.7801 34.6217 15.4489 34.3924 14.1722L33.8634 11.8593C33.8454 11.7882 33.8343 11.6522 33.7977 11.5921L32.3703 11.57C29.9392 11.5597 27.8146 10.4065 27.2862 7.84865C27.2567 7.70615 27.2519 7.56197 27.224 7.41956L25.7504 7.42758ZM28.7848 7.42251L28.6056 7.42814C28.5798 7.5037 28.6033 7.60101 28.6308 7.67297L28.9222 8.43454C29.6343 10.1212 31.7279 10.1872 33.2586 10.1767L33.3308 10.1835C33.3449 10.0584 33.1827 9.78417 33.1291 9.65784L32.609 8.45765C32.4533 8.11879 32.2797 7.782 32.1422 7.43559L28.7848 7.42251ZM15.8849 7.42762L14.6687 10.1868C15.7254 10.1853 16.8059 10.1988 17.7757 9.71807C18.5664 9.29137 19.0888 8.7329 19.3466 7.86637L19.4527 7.43025L15.8849 7.42762Z" fill="black"/>
</svg>
