<svg width="48" height="48" viewBox="0 0 48 48" fill="none" xmlns="http://www.w3.org/2000/svg">
<path d="M25.6841 36.238L24.5977 29.6103C24.4384 28.7337 24.3128 27.8261 24.075 26.9668L23.0582 31.7791L21.934 38.4246C21.8877 38.8205 21.9151 39.2411 21.9151 39.6398L21.9133 41.3462C21.8007 44.3358 20.3823 46.2189 17.2046 46.2215C15.5558 46.2229 12.7095 45.7408 11.9643 44.1832C11.7551 43.746 11.7413 43.3661 11.7389 42.8897L11.7045 42.0231C11.6377 41.2 11.5206 40.3532 11.3417 39.5465C11.1442 38.6564 10.7876 37.8186 10.5531 36.94L8.23953 27.5746C8.0998 27.0026 7.92397 26.438 7.81649 25.8585L7.59003 24.2572C7.4503 23.0357 7.42559 21.8145 7.42578 20.5846L7.43614 19.0778L7.81269 14.7254C8.08967 12.1589 8.74274 9.58384 9.80492 7.22528L10.5848 5.51912C11.1763 4.05799 11.4231 2.01251 13.3595 1.79063C13.9176 1.75064 14.5017 1.79303 15.0587 1.82724L18.1592 1.96988L21.143 2.02983C21.3407 2.03971 21.5335 2.07369 21.7319 2.07622L27.7224 2.01538C27.8611 2.01148 27.998 1.98575 28.1368 1.9808L30.4237 1.89883C30.9486 1.88595 31.4804 1.91363 32.004 1.88056L33.9244 1.78451C35.4187 1.77831 36.31 2.35226 36.8589 3.84028L38.3125 7.57445L39.3628 10.6215C39.431 10.9763 39.5745 11.3172 39.64 11.6682L40.4298 15.6982C40.4938 16.0433 40.4869 16.4189 40.5053 16.7694C40.573 18.0612 40.5719 19.3596 40.5069 20.6507L40.364 23.3676L40.172 25.3949C40.0423 26.4552 39.8059 27.4843 39.5688 28.5238L38.327 33.3754L36.8475 38.3207C36.7124 38.8674 36.5528 39.4236 36.4646 39.9801L36.3662 40.6915C36.3254 41.1082 36.2661 41.5132 36.2626 41.9331L36.2536 42.9673C36.2506 43.1526 36.257 43.3457 36.2135 43.527L36.1556 43.759C35.7977 44.9357 34.8637 45.286 33.7929 45.6018C31.9188 46.1546 29.518 46.6309 27.8234 45.3886C26.3959 44.3421 26.1337 43.2144 26.1327 41.6028L26.133 40.0179C26.1331 39.6468 26.162 39.2554 26.109 38.8886L25.6841 36.238ZM13.4458 3.35713C12.7953 3.50658 12.6268 4.4093 12.504 4.98315C12.5932 5.11192 13.1855 5.20993 13.3614 5.24181L16.2193 5.71098L20.4141 6.1232L26.4075 6.2019L29.4518 5.98867L33.1524 5.55493C33.4828 5.50782 33.836 5.47168 34.1589 5.38984L35.6046 5.03284L35.1678 3.96518C34.8225 3.28063 34.4557 3.36423 33.8087 3.38946L31.6453 3.47162C31.3661 3.49209 31.0888 3.53712 30.8087 3.54874L29.3564 3.5679C29.142 3.57831 28.9371 3.63515 28.7183 3.64144L21.0141 3.64928C20.5737 3.64479 20.1467 3.58344 19.711 3.56985L18.0907 3.5467L14.1455 3.39069C13.9165 3.38126 13.6735 3.33661 13.4458 3.35713ZM11.9178 6.55117C11.2178 7.85223 10.5823 9.38795 10.2267 10.832L9.75083 12.9613L9.27795 16.5012C9.24697 16.822 9.23347 17.1316 9.18055 17.4512C10.2626 17.1238 11.1291 16.7372 12.0669 16.0739C13.7755 14.8074 14.5619 13.3614 15.1201 11.391L15.6988 9.10703C15.834 8.52409 15.9331 7.91274 16.1173 7.34387L12.1523 6.60338C12.0829 6.58642 11.9886 6.55074 11.9178 6.55117ZM36.1835 6.55018C35.7397 6.68748 35.2947 6.78104 34.8399 6.87301L31.9692 7.34026C31.9556 7.41999 31.9809 7.48942 32.0071 7.56423L32.5231 9.74734C32.5778 10.1138 32.7367 10.4776 32.8227 10.8394L33.0713 11.6949C33.6052 13.6697 34.2401 14.9552 36.0091 16.1764C36.9143 16.7719 37.8746 17.1727 38.9269 17.4196C38.702 14.1233 38.0469 11.1548 36.8098 8.06406L36.4362 7.14128C36.3593 6.94857 36.2858 6.73032 36.1835 6.55018ZM17.6561 7.48867C17.4774 8.07845 17.3585 8.68754 17.2116 9.28642L16.5118 11.9618C16.3491 12.5377 16.1871 13.1228 15.9602 13.6777C14.7776 16.5699 12.0084 18.5349 8.99895 19.1291C8.94205 19.4981 8.97744 19.9104 8.97786 20.2852C8.9788 21.1038 8.97992 21.7614 9.04616 22.5733L9.1483 23.7318C9.20642 24.3271 9.26436 24.9526 9.41661 25.5322L10.3207 29.3967C10.369 29.6745 10.4522 29.9997 10.5399 30.2658L10.7913 31.2242C10.7987 31.2624 10.8093 31.2964 10.8212 31.3332L11.0717 32.3492C11.0789 32.388 11.09 32.4213 11.1023 32.4585L12.134 36.5242L12.7051 38.3207C13.0915 39.4233 13.2489 40.8074 13.3095 41.9774L13.3176 42.8282C13.3202 43.244 13.3063 43.5506 13.7148 43.7634C14.9493 44.4067 17.1664 44.8972 18.5519 44.4193L18.6099 44.3977C20.9992 43.5088 20.1461 40.1509 20.3767 38.1333L20.999 34.2074L23.0859 24.0598C23.2382 23.4827 23.4558 22.5953 24.3359 22.9601L24.3699 22.9739C24.8144 23.1633 24.8337 23.661 24.9853 24.0473L25.8843 27.5862L26.3067 29.7051L27.2989 35.7586C27.4808 37.0421 27.751 38.3269 27.6609 39.6319C27.743 39.763 27.6696 40.1184 27.6657 40.2777L27.6594 41.6588C27.6581 42.0759 27.6362 42.425 27.7613 42.8255L27.8475 43.043C28.6953 45.2402 31.3523 44.5985 33.0587 44.159C34.1579 43.8759 34.744 43.9445 34.7779 42.5932L34.7895 41.4982C34.7968 41.1003 34.8616 40.6849 34.9302 40.2924C35.0198 39.7799 35.1222 39.2662 35.2664 38.766L37.7431 29.83L38.4282 26.8636L38.6946 25.1417C38.7969 24.3627 38.8891 23.2793 38.9149 22.4752L38.9854 20.2646C39.0019 19.8679 38.9761 19.4584 39.011 19.0644C36.544 18.6369 34.2426 17.2302 32.7952 15.1762C32.2303 14.3745 31.9781 13.54 31.6984 12.6099L30.4219 7.55589L24.5911 7.84553L24.6212 11.5626C24.6305 11.7424 24.662 11.9173 24.6642 12.0985L24.672 14.6074C24.677 14.8163 24.7381 15.0138 24.7441 15.2233L24.7598 19.9405C24.7717 20.1529 24.8116 20.3532 24.7946 20.568C24.7289 21.396 23.6804 21.6256 23.3237 20.7894L23.3087 20.7564C23.136 20.3719 23.232 19.4192 23.2317 18.9798L23.2299 7.83226L17.6561 7.48867Z" fill="black"/>
</svg>
