<svg width="48" height="48" viewBox="0 0 48 48" fill="none" xmlns="http://www.w3.org/2000/svg">
<path d="M24.954 33.8147L24.065 26.7924L23.1681 33.5974L22.4141 41.0273C22.3741 41.3947 22.4675 42.3255 22.1809 42.5709C21.7263 42.9601 20.9616 43.0148 20.3912 43.0633C19.0413 43.1783 17.6302 43.0765 16.3579 42.5825C16.1639 42.5072 15.9011 42.415 15.7822 42.2345C15.6677 42.0605 15.8054 37.0741 15.7361 36.4101L15.5504 34.5226L14.1878 23.9414L13.9019 20.2465L13.8859 19.2289C13.8548 18.2312 13.7362 17.2343 13.8965 16.2377C13.9505 15.9023 14.0856 15.6068 14.1645 15.283L14.462 13.875C14.6083 13.1677 14.8124 12.3415 14.7409 11.6132C14.7145 11.3448 14.6815 11.2429 14.6679 10.9468L14.6456 9.91843C14.646 9.69161 14.6387 9.46361 14.691 9.24118C14.8556 8.54139 14.6117 8.90804 14.5509 8.51115L14.5473 8.48434C14.4924 8.11801 14.669 8.00242 14.7902 7.69609C15.0293 7.09145 15.2556 6.40267 15.3634 5.75673C15.4459 5.26318 15.4541 4.92484 16.0329 4.80803C16.3399 4.78825 16.7111 4.9854 17.0207 5.05075L17.8127 5.17965C17.9458 5.2015 18.0772 5.23534 18.2117 5.24842L20.7212 5.46259L25.7468 5.51612L28.411 5.44979C28.561 5.44065 28.7055 5.41323 28.8528 5.39936L30.4297 5.25198C30.7807 5.21509 31.143 5.12917 31.4888 5.05459C31.9171 4.96225 32.4025 4.70786 32.7067 5.19573L32.7256 5.22653C32.8743 5.45453 32.8237 5.818 32.8272 6.08547L32.872 6.8589C32.9317 7.83301 32.9709 7.35278 33.3312 7.96379L33.3475 7.99215C33.5107 8.27134 33.4542 8.57256 33.1701 8.746C33.1288 8.77122 33.2031 9.27995 33.2172 9.36311C33.3049 9.88009 33.3576 10.4176 33.422 10.9395L33.7535 14.6015C33.7645 14.7279 33.7942 14.8525 33.806 14.9794L33.9404 16.8364C33.9548 17.0423 33.9989 17.2417 34.008 17.449L34.0248 20.3169C34.0235 21.2579 34.0138 22.0259 33.943 22.957L33.8118 24.7906L32.1631 37.3707L32.0316 39.5004C32.0115 39.8349 31.9566 40.1659 31.9464 40.5023L31.9443 41.6318C31.944 41.8085 31.9651 42.0414 31.913 42.2094L31.8672 42.3432C31.8185 42.4677 31.6884 42.5992 31.5669 42.6543L26.6792 42.6547C25.4966 42.6567 25.7709 42.1691 25.6857 41.1477L24.954 33.8147ZM16.4911 6.18939C16.3582 6.64192 16.3174 7.14953 16.1243 7.58331C16.5803 7.62236 17.0338 7.60075 17.4898 7.62193C17.8858 7.64031 18.271 7.69675 18.6696 7.70354C19.6701 7.72061 20.6431 7.79275 21.6337 7.79593L28.1339 7.79134C28.3339 7.78581 28.5251 7.74587 28.7228 7.72858L31.6759 7.61139L31.7474 7.60543C31.781 7.52003 31.7193 7.31603 31.7104 7.21872L31.6583 6.26354L30.0588 6.48147C29.9186 6.4989 29.7775 6.53172 29.6369 6.54147L26.4547 6.69583L22.5211 6.70056C22.273 6.69634 22.031 6.65017 21.7826 6.64473L20.4238 6.63484C20.2223 6.62659 20.0294 6.57625 19.8283 6.56781C18.8201 6.52562 17.4393 6.4442 16.4911 6.18939ZM31.51 8.79906L15.9211 8.8337C15.8746 9.19192 15.7573 10.2968 15.8589 10.522L16.4313 10.5216L32.1369 10.5265L31.9077 8.79503L31.51 8.79906ZM16.0082 11.7042L15.4284 15.2025C16.7522 15.2185 18.006 15.0365 18.3567 13.4414C18.429 13.1126 18.4246 12.6097 19.0231 12.7276L19.1115 12.748C19.2381 12.7761 19.3803 12.8739 19.4493 12.9843L19.5147 13.1154C19.6508 13.3869 19.5304 13.7764 19.4398 14.0465C18.8142 15.9107 16.9369 16.6847 15.0807 16.4207L15.0311 16.9415C15.0086 17.1219 15.0215 17.3147 15.0222 17.4965L15.0944 19.9743C15.104 20.1668 15.1489 20.3483 15.1598 20.5397L15.1895 21.6445C15.1979 21.767 15.224 21.886 15.2354 22.0078L15.8423 27.7807L16.9264 36.0937C16.9743 36.6352 16.9474 37.1945 16.9466 37.7383L16.9444 40.5442L16.9455 41.4967C18.0355 41.8075 19.6463 41.9695 20.7929 41.7688C20.9224 41.7461 21.0525 41.7539 21.1757 41.7031L21.2103 40.9433L22.2547 31.1601L22.8704 26.7766L23.2498 22.8375L23.2549 12.0316C23.2549 11.9317 23.2703 11.8057 23.2444 11.7109L16.0082 11.7042ZM24.964 11.7054C24.803 11.708 24.555 11.6785 24.4062 11.7263C24.3745 12.1373 24.3945 12.5606 24.3947 12.9735L24.3958 17.5675C24.3962 17.9977 24.2959 18.8319 24.4964 19.2108C24.5743 19.3581 24.5518 19.6549 24.5655 19.827L24.9565 24.4566L26.2978 35.1012C26.3634 35.619 26.3992 36.1491 26.4448 36.6696L26.8556 41.2617C26.8643 41.3512 26.8578 41.4452 26.885 41.5314L30.7594 41.5409L31.3434 34.0156L32.3192 27.0683L32.567 24.6049C32.7135 23.167 32.8489 21.7356 32.8812 20.2892L32.8241 17.5271C32.8054 17.1868 32.7408 16.8535 32.7376 16.5127C31.8658 16.4575 30.9847 16.2635 30.2586 15.7525C29.6261 15.3074 28.7629 14.2847 28.6145 13.4765L28.6081 13.4444C28.4828 12.768 29.4403 12.4808 29.7185 13.0664L29.7391 13.1072C29.7671 13.1663 29.7837 13.2285 29.803 13.2908C30.1715 14.484 31.4223 15.1604 32.6008 15.2762L32.3614 12.3882C32.3435 12.1964 32.3683 11.8696 32.2874 11.7032L24.964 11.7054Z" fill="black"/>
</svg>
