<svg width="48" height="48" viewBox="0 0 48 48" fill="none" xmlns="http://www.w3.org/2000/svg">
<path d="M24.8437 23.2908L24.6403 19.9738L24.4134 18.1869C24.3775 17.9129 24.0954 15.6414 23.735 17.0619C23.5862 17.6484 23.5548 18.283 23.4886 18.8832L23.2272 21.678C23.2107 21.9263 23.1635 22.172 23.1544 22.422L23.1533 44.5719C23.1539 45.08 23.1919 45.6725 22.4538 45.7114L15.521 45.717C14.9461 45.7183 13.9819 45.8439 13.9698 45.0111L13.9623 42.0363C13.9575 41.8183 13.9075 41.6064 13.9037 41.3904L13.8862 39.1638L13.3987 31.4083L12.2633 18.9989C12.2527 18.8542 12.2218 18.7125 12.2124 18.5672L12.1164 16.6404L12.1147 10.9451C12.1159 10.7392 12.146 10.5416 12.1626 10.3373L12.2662 9.21069C12.336 8.58195 12.3834 7.94759 12.4942 7.32397L12.9329 5.31481C13.0589 4.86392 13.0578 4.83186 13.0559 4.35431L13.0567 2.92944C13.0717 2.16416 13.918 2.31615 14.4218 2.31573L16.4735 2.31558L34.1444 2.31852C34.7896 2.33954 34.7805 2.90443 34.8272 3.41741L34.9214 4.10082C35.1288 5.52556 35.4597 6.92384 35.6257 8.35522L35.8732 10.8051C35.9208 11.6577 35.8857 12.5311 35.8856 13.3856L35.8756 16.9774C35.8706 17.1732 35.8401 17.3608 35.827 17.5544L35.6756 19.9936L35.1618 24.8901L34.3816 33.8316L34.1709 38.4386C34.165 38.5833 34.1357 38.7258 34.1303 38.8708L34.1246 39.8552C34.1205 40.0204 34.0927 40.1835 34.0874 40.3484L34.0775 44.9539C34.0735 45.0418 34.055 45.1297 34.0166 45.2093L34.0042 45.2341C33.8879 45.4767 33.6795 45.7056 33.3942 45.7165L25.8854 45.7127C25.718 45.7124 25.4948 45.7376 25.3392 45.6734L25.3126 45.6618C24.7489 45.4349 24.8392 45.0331 24.8394 44.5352L24.8437 23.2908ZM14.3531 3.58367L14.3429 4.56593L16.5907 4.58259C16.5896 4.25851 16.6119 3.91186 16.574 3.58769L14.3531 3.58367ZM17.8897 3.58859C17.8558 3.75805 17.8762 3.91243 17.8811 4.07472L17.8801 4.54583L25.6126 4.57935L25.6135 3.59061L17.8897 3.58859ZM26.8855 3.58834L26.8801 4.30852C26.8807 4.38045 26.8662 4.49228 26.8978 4.554C27.294 4.60099 27.7187 4.57242 28.1181 4.57314L30.129 4.58748C30.1621 4.3022 30.1877 3.87249 30.1341 3.58745L26.8855 3.58834ZM31.4126 3.58893C31.4067 3.90434 31.381 4.23835 31.4156 4.54603L33.6915 4.56837L33.5724 3.58771L31.4126 3.58893ZM14.5554 5.81281L14.1288 5.83447L14.0794 6.01442C13.8658 6.65773 13.631 8.2077 13.5664 8.94514C14.0754 8.85575 14.5413 8.67031 14.9729 8.38719C15.7237 7.87677 16.2483 7.09048 16.4202 6.19667L16.4795 5.82683L14.5554 5.81281ZM17.8028 5.80986C17.7369 6.14661 17.7003 6.48317 17.6071 6.81758C17.0801 8.70852 15.4016 10.0932 13.4592 10.2798C13.4317 10.4766 13.4032 10.6534 13.3935 10.8549L13.3787 16.6375C13.384 17.0435 13.3624 17.4834 13.4287 17.883L15.1831 42.2118L19.0476 42.2125L21.9018 42.2246L21.9398 21.5828L22.2879 18.1427C22.4006 17.2739 22.4308 16.2355 23.0673 15.5599C23.1573 15.4644 23.2737 15.4154 23.3608 15.3124L23.3639 6.71164C23.3639 6.43377 23.3973 6.10541 23.3572 5.83423L17.8028 5.80986ZM24.6671 5.82097C24.5694 5.95587 24.6331 6.2218 24.6332 6.37662L24.6187 13.2852C24.82 13.1378 24.9667 12.9935 25.1234 12.7974C25.5561 12.1953 25.614 11.7747 25.615 11.0724L25.6141 5.83606C25.5491 5.79331 24.7859 5.81502 24.6671 5.82097ZM26.9413 5.81633C26.836 5.93966 26.8794 6.73273 26.8793 6.94086L26.8802 10.2625C26.8809 10.7926 26.9333 11.3459 26.8713 11.8717C26.7357 13.0211 26.0188 14.1519 24.9109 14.5691C24.8145 14.6053 24.7046 14.6165 24.6202 14.6774C24.6237 14.943 24.5073 15.2501 24.7602 15.407C25.2269 15.6965 25.4258 16.3577 25.5067 16.8802C25.792 18.722 26.0211 20.5798 26.1021 22.4451L26.0934 42.2286L32.1611 42.2125C32.3685 42.2187 32.6195 42.254 32.8219 42.2202L32.8329 39.7295L32.9315 37.4229L33.2089 32.6833L33.6839 27.0429L34.2141 21.8971L34.5873 17.4692L34.6138 11.8769C34.6131 11.3458 34.6172 10.8202 34.549 10.2923C32.44 9.95253 30.7495 8.65091 30.3197 6.46316C30.2777 6.24922 30.2659 6.02956 30.2217 5.81619L26.9413 5.81633ZM31.5428 5.81623C31.6143 7.26847 32.836 8.63253 34.2423 8.90722L34.43 8.9457L33.9276 5.82842L31.5428 5.81623ZM15.2129 43.4869C15.1949 43.667 15.158 44.2722 15.2268 44.4315L21.916 44.4309L21.9086 43.5131C21.8616 43.4716 15.7967 43.4698 15.2129 43.4869ZM26.3346 43.4821L26.1094 43.4994C26.0592 43.5974 26.0675 44.287 26.0949 44.42L32.6151 44.4243L32.8239 44.4205L32.8185 43.4932L26.3346 43.4821Z" fill="black"/>
</svg>
