<svg width="48" height="48" viewBox="0 0 48 48" fill="none" xmlns="http://www.w3.org/2000/svg">
<path d="M21.0693 37.7865L19.9753 41.7466C19.6311 43.3261 17.811 43.0206 16.6298 42.8713C13.733 42.5053 10.9731 41.8235 8.31894 40.6062C6.74164 39.8827 5.15835 39.1846 5.07097 37.1956C5.02564 36.1638 5.41081 35.0985 6.1715 34.3917C6.29347 34.2784 6.30411 34.2785 6.33866 34.1125L7.83655 25.5264C8.02583 24.5788 8.21708 23.66 8.27652 22.6952L8.36642 21.224C8.44344 20.1075 8.57919 18.9792 8.76777 17.876L9.44849 14.6637L11.4584 6.38192C11.5783 5.80316 11.6151 4.97197 12.3651 4.86936L12.3964 4.86552C12.723 4.82173 13.0607 4.9235 13.383 4.9662L16.1745 5.27994C16.8015 5.34439 17.4373 5.42722 18.0679 5.44564L25.1688 5.44784L33.3986 4.8365C33.8696 4.802 34.3575 4.81259 34.8245 4.75409L34.8712 4.74786C35.4064 4.71467 35.9225 4.70619 36.1734 5.27825L36.1863 5.30858C36.2226 5.39192 36.2506 5.47906 36.2681 5.56841L37.6744 11.1006C37.7126 11.3025 37.7886 11.5062 37.8381 11.7062L37.9694 12.2812C38.1435 12.9287 38.3153 13.5836 38.4425 14.2418L39.1013 17.4041C39.2015 17.738 39.2335 18.112 39.282 18.457L39.6015 21.1745C39.6649 21.8517 39.6555 22.5428 39.7495 23.2183C39.7813 23.4475 39.8591 23.6727 39.9021 23.8994L40.3125 26.2148C40.374 26.5579 40.4561 26.918 40.4895 27.2642L41.6343 33.8188C41.679 33.9841 41.6844 34.1529 41.7192 34.3203C42.6559 35.0669 43.2606 36.563 42.8908 37.7475L42.8632 37.8451C42.6641 38.8098 41.9709 39.4157 41.1631 39.8732L38.3338 41.2023C36.8014 41.7997 35.2154 42.2476 33.605 42.5742L32.3672 42.812L30.1737 43.0605C29.2328 43.1489 28.595 42.9573 28.0908 42.0499C27.9491 41.7948 27.9232 41.5135 27.8502 41.2371L26.4314 35.9586C25.9666 34.2942 25.1036 30.6892 24.009 29.3725C23.5222 29.9748 22.6411 32.169 22.4342 32.8828L21.0693 37.7865ZM34.8153 6.43358L25.8369 7.11172L23.3075 7.19642L19.6642 7.20022L13.0397 6.62445L12.6208 8.61247L14.2836 9.06772L19.879 10.398C22.4665 10.8604 26.9587 10.7325 29.4454 10.1316L35.4004 8.6068L34.8826 6.56248C34.8642 6.49452 34.8742 6.4693 34.8153 6.43358ZM12.2195 10.2875L11.109 14.9297C11.0942 15.0057 11.0615 15.1053 11.066 15.1813L12.4241 15.1813C13.3259 15.1765 13.9353 15.1681 14.7472 14.6671C15.6155 14.0534 15.778 13.4754 16.0782 12.476L16.4144 11.3778C16.0019 11.2424 15.5833 11.1487 15.1634 11.0415L12.647 10.4126C12.5095 10.3783 12.3476 10.3475 12.2195 10.2875ZM35.7591 10.3008L31.4737 11.4025L32.0634 13.1111C32.2376 13.7233 32.7279 14.287 33.2283 14.6533C34.0587 15.1943 34.9334 15.1843 35.8927 15.1842L36.9959 15.1788L35.8388 10.4925C35.8236 10.4197 35.8382 10.3506 35.7728 10.3042L35.7591 10.3008ZM18.0364 11.6968C17.8132 12.4165 17.6285 13.2624 17.3914 13.9317C16.6542 16.0134 14.7856 16.8888 12.7174 16.8906L10.7554 16.8954C10.7113 17.0589 10.692 17.2231 10.6558 17.3874L10.3541 19.1211L9.98038 22.8557C9.90444 24.1808 9.70489 25.1538 9.47075 26.4609L8.08902 34.1499C8.05583 34.3396 7.9565 34.5239 8.05972 34.7012C8.8393 36.0401 12.0771 37.154 13.5133 37.5223L14.5625 37.7773L18.5741 38.3959C18.7167 38.4103 18.9706 38.4796 19.1049 38.4383L19.7835 36.1736C20.2723 34.3373 20.678 32.4414 21.4159 30.6859C22.2287 28.7521 23.6128 27.2576 23.7329 25.0542L23.7328 16.9656C23.7319 16.8032 23.7506 16.5679 23.6937 16.4176C22.7437 16.1518 23.025 15.38 23.0403 14.6133C23.0525 13.9988 22.9626 12.9214 23.1222 12.3455L21.7619 12.3318C20.9609 12.2948 18.7898 12.0491 18.0364 11.6968ZM29.8096 11.7773C28.7509 12.0229 27.6918 12.2589 26.6028 12.3223L24.8797 12.3583C24.9568 12.6457 24.984 12.9388 25.0321 13.2305L25.1759 14.172C25.2323 14.5915 25.2809 14.9997 25.2967 15.4219L25.4002 18.393L25.4105 22.9507C25.4127 24.6336 25.5255 25.6257 25.0744 27.2719C25.0411 27.3933 24.8983 27.6544 24.9795 27.7566C26.2112 29.3063 27.1529 31.7893 27.5729 33.7668L28.9089 38.4639L31.2285 38.2361C32.1479 38.103 33.0475 37.8657 33.9551 37.6745C36.0681 37.0955 38.8035 36.2264 40.1822 34.4278L37.3254 16.8987L35.4964 16.8955C35.2003 16.8959 34.883 16.9182 34.589 16.8885C32.8442 16.7115 31.3512 15.723 30.6454 14.0787C30.5236 13.7949 29.8884 11.7969 29.8096 11.7773ZM7.00297 36.0961C6.86211 36.3513 6.76147 36.5884 6.72528 36.8789L6.71938 36.9216C6.59825 37.8409 7.34267 38.2971 8.06263 38.642L11.0869 39.9256C12.5456 40.4483 14.641 40.9861 16.2157 41.175L17.3037 41.3339C17.6085 41.3723 17.9794 41.3583 18.2697 41.4635C18.2891 41.4241 18.3003 41.3994 18.308 41.3555L18.6822 40.0392C15.8216 39.6344 8.93141 38.6617 7.04085 36.1523L7.00297 36.0961ZM40.9882 36.1781C38.9506 38.463 32.6792 39.8794 29.7986 40.0454C29.703 40.0509 29.3791 40.0401 29.3205 40.1015L29.3488 40.2436C29.3876 40.4432 29.6142 41.212 29.6838 41.3623L29.7306 41.4086L32.6262 41.0483C34.8993 40.678 37.154 39.9285 39.2345 38.9494L40.2444 38.4338C40.9865 38.0125 41.5951 37.2942 41.1135 36.3965L40.9882 36.1781Z" fill="black"/>
</svg>
