<svg width="48" height="48" viewBox="0 0 48 48" fill="none" xmlns="http://www.w3.org/2000/svg">
<path d="M26.3896 38.4456L24.0143 28.3166C23.827 28.7474 23.7798 29.2366 23.6657 29.6893L21.0807 40.7481C20.6907 42.2746 19.0202 42.1644 17.8331 42.1666C14.7347 42.1722 11.6391 41.7163 8.61159 41.082C8.18746 40.9931 7.73072 40.9418 7.31648 40.8215C6.15159 40.4832 5.48306 39.3133 5.628 38.1411C5.66573 37.836 5.74115 37.5282 5.80345 37.227L8.62293 22.4064L10.4805 11.4376C10.5326 11.1332 10.5594 10.792 10.6562 10.5001C10.7977 10.0737 10.734 9.51671 10.7343 9.06915L10.7352 7.30388C10.7354 7.04091 10.7042 6.72095 10.7717 6.4652L10.7805 6.43374C10.8858 6.04843 11.1874 5.82746 11.5859 5.79854L36.5624 5.78809C36.9041 5.80374 37.1995 6.13913 37.2285 6.47012C37.3356 7.69168 37.107 9.38959 37.3532 10.4859L37.4471 11.0077C37.4743 11.1528 37.4727 11.3061 37.5096 11.4486L40.1142 26.3398L42.2906 37.7311C42.6616 39.109 41.9797 40.4694 40.5702 40.8462C39.8929 41.0273 39.18 41.1228 38.4922 41.2601C35.7598 41.8056 32.9919 42.1612 30.2021 42.1659C28.9633 42.168 27.6263 42.248 27.0083 40.9384C26.8935 40.6952 26.8579 40.3954 26.7968 40.1334L26.3896 38.4456ZM12.146 7.12679C12.1983 7.88888 12.2271 9.45123 12.1295 10.1882L26.2616 10.1931L26.3194 7.13766C26.1521 7.11474 25.9727 7.12482 25.8037 7.12388L12.146 7.12679ZM27.8398 7.20071L27.7444 7.2158C27.7176 7.30355 27.7265 7.42093 27.7257 7.51295L27.7264 10.1779L35.7074 10.1704L35.8499 10.1659L35.8394 7.21445L27.8398 7.20071ZM11.8843 11.6202C11.7749 12.0457 11.7369 12.5137 11.669 12.9549L9.62526 24.7384L7.17698 37.5079C7.02342 38.2606 6.73495 39.1939 7.76995 39.4586L8.57939 39.6215C8.8957 39.6956 9.26362 39.7303 9.56315 39.8526L13.2259 11.625L11.8843 11.6202ZM25.9635 11.6132L20.6714 11.6246C20.6252 11.7377 20.6131 11.8495 20.5766 11.9639C19.7026 14.6972 16.8501 16.368 14.1154 16.6894C14.071 16.9878 14.0633 17.2945 14.03 17.595L12.4276 30.8671L11.0211 39.7529C11.005 39.857 10.9578 39.9775 10.9675 40.0817L11.8843 40.2255L16.3535 40.7146L19.3049 40.7018C19.5764 40.684 19.7042 40.4746 19.7671 40.2434L23.4079 24.3363C23.5568 23.7565 23.9337 23.7433 24.3972 23.4758C26.1086 22.4884 26.3253 21.2027 26.3177 19.4562L26.3193 11.6187L25.9635 11.6132ZM27.942 11.6241L27.7336 11.6189C27.707 11.8813 27.7241 12.1588 27.7244 12.423L27.722 20.1504C27.6869 21.9534 26.9708 23.5547 25.3851 24.5453L24.7548 24.907L25.6964 29.3775L28.3087 40.3653C28.4109 40.7381 28.9459 40.7235 29.248 40.7332L32.7279 40.6286C33.0329 40.6022 33.338 40.5818 33.6399 40.5294L37.0826 40.062L33.9226 16.7306C33.5358 16.6645 33.145 16.6059 32.7655 16.5039C30.6397 15.932 28.9005 14.118 28.6209 11.9081C28.6105 11.8259 28.623 11.6929 28.5836 11.6239L27.942 11.6241ZM30.4312 11.6227L30.0351 11.6274C29.9877 11.7933 30.084 12.1232 30.1411 12.2814L30.4357 13.0113C30.826 13.8885 31.9435 14.6867 32.8045 15.0054L33.4006 15.1816L33.7406 15.223L33.3987 11.6253L30.4312 11.6227ZM14.644 11.6236L14.2841 15.2372C15.4589 15.0279 16.5479 14.5726 17.5174 13.8769C18.2437 13.3092 18.8797 12.6229 19.1723 11.7273L19.2011 11.6444L14.644 11.6236ZM34.8028 11.6199L34.9295 12.7906C34.9717 13.2968 35.0245 13.7994 35.0648 14.3056L35.351 17.0861L36.9436 30.9065L38.3054 39.0227C38.3491 39.2962 38.3908 39.5765 38.4727 39.842C39.149 39.6614 39.89 39.6319 40.5257 39.3324C40.7426 39.1949 40.9289 39.0139 40.983 38.7511L41.0013 38.6484C41.0662 38.267 40.8762 37.7786 40.8039 37.4064L38.1856 23.6486L36.2112 12.1759C36.1909 12.0205 36.2027 11.7579 36.1307 11.6216L34.8028 11.6199Z" fill="black"/>
</svg>
