<svg width="48" height="48" viewBox="0 0 48 48" fill="none" xmlns="http://www.w3.org/2000/svg">
<path d="M25.5949 36.1692L23.9905 28.2491C23.8587 28.7106 23.7975 29.2234 23.7141 29.6981L20.7471 44.8008C20.5802 45.6544 20.7811 46.085 19.7756 46.0789L14.3082 46.078C13.4326 46.0848 13.1214 46.0069 13.2132 45.0996L13.7243 39.7269C13.7387 39.5093 13.7802 39.2942 13.7869 39.0761L13.782 34.5164L13.4798 29.8261C13.471 29.7052 13.4441 29.585 13.4354 29.4619L13.2155 25.3022C13.2004 25.0215 13.1471 24.7428 13.1344 24.4628L13.021 21.0995C13.0102 20.9024 12.9701 20.7085 12.9626 20.5117L12.8782 17.7235C12.8441 17.0905 12.9038 16.4539 12.8074 15.824C12.7312 15.3261 12.7511 14.7269 12.7812 14.2237L13.4202 8.30483C13.5155 7.67788 13.7383 7.09785 13.7886 6.46133L13.8466 3.34898C13.8474 2.77427 13.6753 1.9857 14.443 1.83682L32.2254 1.86572C33.6934 1.86336 34.1569 1.45578 34.154 3.18497L34.1536 5.1838C34.1567 6.04349 34.2056 6.49358 34.3581 7.31647L35.1411 12.4716C35.181 12.975 35.2111 13.6648 35.2278 14.1793L35.2262 19.3766C35.2196 19.5861 35.1683 19.7883 35.1624 19.9949L35.1428 21.5181C35.1314 21.736 35.091 21.9531 35.075 22.1714L34.7646 27.445C34.7546 27.5786 34.7171 27.7091 34.7071 27.8434L34.6687 28.7108C34.6607 28.8345 34.626 28.9523 34.615 29.0739L34.483 31.1485C34.4707 31.3061 34.4324 31.4587 34.4211 31.6138L34.298 33.5024L34.2831 34.8257C34.2768 35.0156 34.235 35.2024 34.2303 35.3916L34.2331 38.8604C34.238 39.0583 34.271 39.2513 34.2818 39.4479L34.3136 40.49C34.3263 40.669 34.3655 40.8438 34.3808 41.0222L34.8432 45.4098C34.8925 46.063 34.3394 46.0766 33.9059 46.0775L29.0591 46.0781C27.6401 46.0795 27.5761 46.4273 27.2963 44.8839L25.5949 36.1692ZM15.1196 3.17019L15.0725 6.83019C15.0598 7.05932 14.9443 7.28516 14.9367 7.50247L17.6952 7.71707C18.3654 7.78147 19.0363 7.85436 19.7071 7.91052L21.6165 8.07036C22.3408 8.11293 23.0816 8.08532 23.8075 8.08583L26.2549 8.07852C26.5473 8.06769 26.8406 8.0233 27.1325 8.00122L28.1132 7.94104L32.2888 7.44411L33.0403 7.30035C32.9324 6.91696 32.9339 6.52588 32.916 6.13251L32.868 3.42824C32.8678 3.34965 32.8804 3.24914 32.8546 3.17628L15.1196 3.17019ZM33.1984 8.65982L30.29 8.99821C30.5766 9.58579 30.9369 10.0893 31.5092 10.4305C32.1877 10.8303 32.9103 10.9534 33.6719 11.0956L33.2865 8.65982C33.2488 8.65227 33.2381 8.65185 33.1984 8.65982ZM14.7025 8.77654C14.637 9.03154 14.6269 9.29015 14.5978 9.55044L14.4555 11.0245C15.2834 10.9733 16.1129 10.8403 16.7649 10.2841C17.1384 9.92966 17.5307 9.52752 17.7276 9.04293L14.7025 8.77654ZM28.8893 9.17544L26.0556 9.37565L26.0415 11.7041C25.9959 12.9239 25.8496 14.2168 25.0536 15.1858C24.8947 15.3793 24.9736 15.3974 25.0091 15.6511C25.0535 15.9688 25.082 16.304 25.0949 16.6243L25.0983 19.2412C25.0804 19.8583 25.0894 20.9576 24.998 21.4667L24.9638 21.7466C24.9229 21.9608 24.9491 22.1977 24.9272 22.4165L24.8202 23.4894C24.6835 24.6499 24.7459 24.817 24.9586 25.9677L28.5485 44.5896L28.5823 44.7739L30.939 44.7681C30.8711 44.4948 30.8629 44.188 30.83 43.9071L30.3841 39.2283L30.3833 35.704C30.3894 35.5264 30.4239 35.3541 30.4375 35.1774L31.5654 22.1863L31.8602 18.3263C31.9282 17.43 31.9313 16.4636 31.9855 15.5622L32.0525 13.112C32.0535 12.7736 32.0794 12.4135 32.0486 12.0774C31.9425 12.0259 31.8435 12.0142 31.7326 11.9841C30.3806 11.616 29.4114 10.4539 28.9539 9.1709L28.8893 9.17544ZM19.0678 9.20122C18.5039 10.6527 17.3822 11.8291 15.8248 12.133L15.8437 14.8474C15.8542 15.049 15.9018 15.2478 15.9157 15.4506L15.9384 16.1198C15.95 16.2728 15.9846 16.4201 15.9972 16.5713L16.6124 23.4639L16.7958 25.568C16.8584 26.3731 16.9091 27.2022 16.9837 28.0004L17.0862 29.1793C17.0987 29.2971 17.1261 29.4127 17.1359 29.5309L17.1682 30.2416C17.1802 30.3908 17.222 30.5349 17.2336 30.6849L17.5505 34.9372C17.5627 35.1172 17.6109 35.2927 17.6201 35.4762L17.6221 39.0954L17.5189 40.8273L17.2463 43.147C17.1715 43.6898 17.113 44.2405 17.0031 44.7775L19.4697 44.7887L19.5291 44.3441L22.5752 28.7834L23.5108 23.32L23.7277 20.8675L23.8072 17.7494C23.8069 17.3874 23.8162 17.0197 23.7921 16.6587L23.7467 16.2536C23.6483 15.0974 23.484 14.9429 22.9012 13.9743C22.3071 12.9868 21.9984 11.7401 21.9689 10.585C21.9586 10.181 21.9906 9.76705 21.9573 9.3651L19.0678 9.20122ZM23.6878 9.37054L23.2792 9.4199L23.2731 10.5131C23.278 11.8188 23.7646 12.8048 24.4 13.9129C24.9409 12.2979 24.6755 11.0273 24.7825 9.38807L24.001 9.37522C23.9136 9.37522 23.7692 9.39529 23.6878 9.37054ZM14.291 12.3161C14.2077 12.657 14.1561 13.3399 14.1465 13.6971L14.1521 17.4606C14.1659 17.8477 14.2315 18.232 14.2406 18.621L14.2505 20.4264C14.2571 20.6854 14.3094 20.9389 14.3256 21.1964L14.3459 22.4437C14.3568 22.6807 14.4051 22.9139 14.4168 23.1515L14.4317 24.397C14.4417 24.6043 14.4866 24.8106 14.4996 25.0192L14.633 27.9304C14.6441 28.1286 14.6888 28.3236 14.7002 28.5227L14.7251 29.3196C14.7397 29.5183 14.7827 29.7093 14.7938 29.9102L14.8206 30.6383C14.8336 30.8182 14.876 30.9902 14.8873 31.1714L14.9237 32.2461C14.9343 32.4064 14.9756 32.5601 14.9872 32.7206L15.0736 34.377L15.076 38.9213L14.9816 40.5147C14.9697 40.6784 14.9358 40.8405 14.9205 41.0036L14.7323 42.8874C14.656 43.5152 14.6464 44.166 14.5337 44.7871L15.7175 44.7883L16.2384 40.3153C16.2614 40.0002 16.3173 39.6916 16.3293 39.3747L16.3228 35.6312L15.265 22.7261L14.7001 16.7688C14.6891 16.6198 14.6576 16.4737 14.6482 16.3239L14.533 12.3395C14.4754 12.2975 14.4011 12.302 14.3298 12.3089L14.291 12.3161ZM33.3761 12.3966L33.3519 14.321C33.3431 14.5805 33.292 14.8342 33.2845 15.0937L33.2672 16.5813C33.2574 16.7704 33.2084 16.9536 33.1988 17.1442L33.1735 18.0844C33.1503 18.4479 33.1132 19.2004 33.0585 19.4979L33.0333 19.6581C32.9936 19.9027 33.0022 20.1549 32.9891 20.402L32.9046 21.4535C32.89 21.6398 32.848 21.8227 32.8342 22.0075L32.7957 22.8043C32.7848 22.9527 32.754 23.0982 32.74 23.2459L32.611 24.968C32.5974 25.116 32.5629 25.2609 32.55 25.409L32.2725 28.5201L31.792 34.1244L31.7469 35.1185C31.73 35.3491 31.6856 35.5743 31.6733 35.8069L31.6664 39.3165C31.6762 39.5494 31.7219 39.7767 31.7406 40.0075L32.1411 43.9844C32.1693 44.2501 32.1744 44.5253 32.2218 44.7878L32.7549 44.7883L33.4507 44.7862L32.9875 39.5998C32.9781 39.4465 32.9424 39.2963 32.9359 39.1423L32.9351 35.0272C32.9419 34.8669 32.9793 34.7088 32.9885 34.5481L33.0034 33.6761C33.0116 32.9043 33.1256 32.1387 33.1728 31.3708L33.2089 30.4342C33.2163 30.3006 33.2445 30.1683 33.2543 30.0342L33.4414 27.6457C33.4747 27.2383 33.426 26.7474 33.5351 26.3552C33.5957 26.1375 33.5715 25.8402 33.579 25.6138L33.6439 24.5039C33.6593 24.211 33.6471 23.9147 33.7046 23.626C33.7957 23.169 33.7367 22.66 33.7694 22.1941L33.8749 19.9817C33.8833 19.7201 33.9291 19.4621 33.9367 19.1983L33.8701 13.5606C33.8475 13.1831 33.8447 12.8005 33.7929 12.4256L33.3761 12.3966Z" fill="black"/>
</svg>
