<svg width="48" height="48" viewBox="0 0 48 48" fill="none" xmlns="http://www.w3.org/2000/svg">
<path d="M17.7933 38.4923L16.5251 35.3202C15.0178 31.0341 14.7892 27.8707 16.6782 23.7459C17.4531 22.0539 18.0122 21.1488 17.2956 19.3358C15.8 19.9044 13.0634 19.1149 12.8009 17.2539C12.7118 16.6222 13.3567 15.7067 13.7358 15.1998C13.5848 15.0943 13.4051 15.0315 13.2515 14.9225C11.5603 13.7236 11.6 12.3928 11.6014 10.6012C11.6017 10.1383 11.5598 9.61806 11.6447 9.16393C11.9581 7.48867 13.4201 6.15873 15.1238 5.97657C16.7043 5.80759 16.319 6.43454 16.7205 6.58351L16.8583 6.63306C17.256 6.75648 17.7467 6.38213 18.0815 6.21765L19.7654 5.40221C20.8619 4.86474 21.0057 5.81092 21.3868 6.62818C21.627 7.1432 21.9159 7.64415 22.1363 8.16718L23.4259 10.8263C23.5252 11.0296 23.8403 11.9249 24.0103 12.0091L27.0777 5.6567C27.2219 5.40198 27.3728 5.28156 27.6542 5.20548C27.8937 5.17965 28.1015 5.30921 28.3051 5.41665L30.2874 6.3699C31.8487 7.0517 31.3017 6.18273 31.9937 6.00207C32.1476 5.96185 32.3474 5.97367 32.507 5.96992C34.1835 5.93045 35.4883 6.82735 36.1237 8.38468C36.2409 8.67184 36.344 8.99476 36.3695 9.3054L36.3798 9.40538C36.5093 10.2177 36.5033 12.0074 36.29 12.7504C36.0036 13.7476 35.309 14.6679 34.3959 15.1713L34.3748 15.1827C34.5527 15.6652 34.9407 16.1571 35.1561 16.6522L35.1771 16.6939C35.2668 16.8798 35.2328 17.2283 35.1667 17.4191L35.1239 17.5419C34.8549 18.2093 33.7574 18.9551 33.1386 19.2053C32.3804 19.5118 31.5195 19.6456 30.7531 19.3221C30.5623 19.6644 30.4021 20.1292 30.3698 20.5199L30.3662 20.5663C30.3349 20.9355 30.3492 21.4469 30.4832 21.8035L30.6806 22.3592C30.9543 23.0307 31.3322 23.6469 31.603 24.3196L32.2359 26.1006L32.389 26.7077C32.9699 29.3966 32.5667 32.2144 31.6042 34.7695L30.721 36.9079C30.2231 38.2715 29.8092 39.6894 29.5288 41.1133L29.5181 41.1683C29.3586 41.8688 28.7254 42.6566 27.9582 42.725C27.4544 42.77 26.9137 42.7315 26.4067 42.7317L20.2825 42.7307C18.7711 42.7258 18.6077 41.0339 18.2976 39.91C18.1642 39.4263 17.9738 38.9599 17.7933 38.4923ZM28.0662 6.90221L24.7399 13.7406C24.6874 13.8445 24.7094 13.9761 24.7134 14.0897L24.7188 16.0783C24.7185 16.3885 24.7284 16.7033 24.7055 17.0126L30.1946 17.0068C30.6462 17.0059 31.0648 16.9201 31.3379 17.3723L31.3557 17.3961C31.4545 17.5529 31.4059 17.8999 31.402 18.0827C31.8047 18.1944 32.6376 17.8363 32.9705 17.6496L33.7896 17.0377L32.9417 15.6915C32.8258 15.4883 32.6918 15.2913 32.6445 15.0585L32.6383 15.029C32.4965 14.3123 33.2225 14.1825 33.6839 13.91C35.0979 13.0752 35.0527 11.966 35.0494 10.5134C35.0487 10.2046 35.0842 9.83509 35.0112 9.53471L34.9923 9.46862C34.7441 8.43287 33.7751 7.2211 32.6016 7.4446C32.2416 7.51318 31.969 8.29482 30.6499 8.0267C30.2656 7.9486 29.893 7.76242 29.5403 7.59779L28.6173 7.16926C28.519 7.12121 28.1487 6.88627 28.0662 6.90221ZM19.9221 6.92565L18.6777 7.54018C18.3065 7.71456 17.921 7.93013 17.5195 8.02548C16.1664 8.34671 15.7637 7.46963 15.4337 7.45065L15.401 7.44859C14.2983 7.39412 13.2484 8.30467 13.0255 9.3751C12.9396 9.78784 12.9531 10.22 12.9531 10.6393C12.9537 14.5314 14.8516 13.5805 15.2547 14.5428L15.2835 14.6249C15.3559 14.8164 15.3766 14.975 15.3114 15.1756L15.2994 15.214C15.0783 15.9045 14.5867 16.5086 14.2732 17.1577C14.4736 17.4176 14.7806 17.6502 15.0794 17.7827C15.4347 17.9744 16.2394 18.1754 16.6331 18.0841C16.3965 17.15 16.8508 17.0112 17.7013 17.0106L23.3028 17.0139L23.3035 14.1337C23.302 13.6329 23.2087 13.6171 22.9813 13.1756L20.1739 7.36454C20.1065 7.21881 20.0582 7.05746 19.9783 6.91904L19.9221 6.92565ZM18.6998 18.4509L18.596 18.4598C18.5639 18.4619 18.5457 18.4657 18.5174 18.4803L18.5384 18.5214C18.5589 18.5627 18.5635 18.5945 18.573 18.639L18.8787 19.5947C19.1324 20.3809 19.0577 21.365 18.9377 22.1627L23.0332 22.1519L23.3126 22.1645L23.2985 18.8818C23.2974 18.7451 23.3094 18.5972 23.2797 18.4636L18.6998 18.4509ZM24.9431 18.4501C24.8765 18.4583 24.7797 18.4481 24.7195 18.4727L24.7082 22.1544L28.6934 22.1532C28.8232 22.1535 28.9704 22.1698 29.0977 22.1505L29.0709 22.0274C28.8965 21.0826 28.9211 20.1479 29.221 19.232L29.5072 18.4667L24.9431 18.4501ZM18.3146 23.6189C18.0578 24.0899 17.8588 24.6076 17.6577 25.1089C16.7494 27.3729 16.4878 29.0289 16.9273 31.455L17.1193 32.4076C17.1405 32.5059 17.148 32.6115 17.1762 32.7074L17.29 33.1382C17.3267 33.2503 17.343 33.3669 17.3834 33.4774L17.478 33.7951L19.2705 38.6483C19.3382 38.811 19.387 38.9788 19.454 39.1405L20.0855 41.2149C20.1943 41.313 20.3149 41.2648 20.4551 41.2655L21.7852 41.266L22.9627 41.2678C23.0468 41.2679 23.2515 41.294 23.3128 41.2554L23.3033 23.9184C23.3038 23.8254 23.3185 23.7125 23.2887 23.6246L18.3146 23.6189ZM24.7277 23.6263C24.6696 23.8946 24.7184 24.2354 24.7179 24.505L24.7162 40.8447C24.7181 41.436 24.7052 41.2672 25.4253 41.2675L27.4292 41.2666C27.5781 41.2663 27.7351 41.2774 27.8824 41.254C28.223 40.9196 28.2653 40.3903 28.3548 39.9489L28.6419 38.7601C28.8584 38.0129 29.0869 37.2594 29.3691 36.5339L30.4453 33.848C31.5598 30.6522 31.6266 27.9703 30.3005 24.8821L29.8865 23.99C29.8331 23.8783 29.7999 23.7635 29.7397 23.6552L29.7258 23.6306C29.4694 23.603 29.1985 23.6209 28.9398 23.6206L25.6583 23.6216C25.3506 23.6219 25.0336 23.6042 24.7277 23.6263Z" fill="black"/>
</svg>
