<svg width="48" height="48" viewBox="0 0 48 48" fill="none" xmlns="http://www.w3.org/2000/svg">
<path d="M37.8871 37.4665L32.0301 39.3342L29.4492 39.8126L26.0697 40.1371L22.0899 40.1322L19.3477 39.9133C17.0321 39.6438 14.7511 39.0949 12.5394 38.3673L10.2454 37.4912C8.9779 36.9824 8.73392 36.9207 8.97509 35.5566C9.09007 34.9063 9.2442 34.269 9.42922 33.6351L10.1724 31.1992C11.1911 28.2612 12.5531 25.4598 14.0595 22.7436L14.876 21.3153C15.1728 20.8006 15.4722 20.2792 15.8258 19.8012C15.7868 19.6448 15.7035 19.5038 15.67 19.3427C15.5194 18.6182 15.7137 18.1167 16.1127 17.4993C15.9676 17.1102 15.9604 16.9282 15.5787 16.7373L12.9141 15.4026C12.4848 15.1964 11.9929 15.033 11.6104 14.7459C10.3754 13.8191 10.5433 12.838 10.8599 11.5933L12.6336 4.08854C13.0346 2.52026 14.3746 1.52234 15.9656 1.51757L16.9008 1.51594C17.0619 1.49596 17.2855 1.49371 17.4449 1.51523L17.4727 1.5194C17.7363 1.5552 17.9943 1.77143 18.0805 2.01984L18.0947 2.0627C18.3483 2.73737 16.7778 4.56336 17.6445 6.30779L17.6775 6.38237C17.9095 7.01218 18.2762 7.51384 18.9669 7.57412C20.8192 7.73584 22.5767 8.52067 23.9788 9.73464C25.8368 8.25728 27.216 7.7761 29.4983 7.51754C30.8746 6.32734 30.7521 4.58341 30.0938 3.08223C29.9846 2.83314 29.7986 2.52062 29.8501 2.24101C30.0053 1.39936 30.7074 1.51493 31.3164 1.51435L32.1248 1.51495C33.5529 1.51815 34.708 2.38379 35.2152 3.71504C35.4909 4.43876 35.5938 5.4436 35.813 6.22285L35.9952 7.01851C36.0892 7.51154 36.2646 7.99121 36.3583 8.48218L36.4516 8.84785C36.4881 9.06381 36.5565 9.29078 36.6107 9.5041L36.8789 10.6197C37.0542 11.2614 37.4699 12.6421 37.3502 13.2684L37.3449 13.2951C37.1262 14.4291 36.2904 14.8352 35.3438 15.2822L32.9055 16.4956C32.5852 16.6547 32.1679 16.7768 31.9881 17.112C31.8267 17.4129 32.0635 18.3832 32.1697 18.7109L32.9031 20.508L35.9382 26.6955C36.2124 27.2327 36.4265 27.7992 36.6647 28.3523L37.9689 31.7463C38.333 32.7331 39.3887 36.0569 39.0747 36.7634C38.8869 37.1861 38.2795 37.3085 37.8871 37.4665ZM31.9191 3.13717L32.1108 3.96114C32.3299 5.09406 32.1254 6.3789 31.6084 7.39853C31.5578 7.49846 31.4934 7.59418 31.4525 7.69848C34.375 8.68182 35.2502 11.1639 33.7511 13.7373L33.4007 14.3809C33.5179 14.326 33.6499 14.2757 33.7602 14.2094L34.7407 13.7214C35.3603 13.4386 35.8969 13.3353 35.6772 12.5005L34.1563 6.3016C33.8894 5.1331 33.89 3.4678 32.4162 3.1816L31.9191 3.13717ZM15.7493 3.17325C15.1202 3.24414 14.5751 3.57183 14.3204 4.17207L14.3022 4.21427C14.1475 4.57621 14.0921 5.00073 14.0039 5.38449L12.283 12.5861C12.095 13.4243 12.9984 13.5681 13.5764 13.845C13.9007 14.0004 14.2042 14.1892 14.517 14.3656L14.62 14.4067C14.6267 14.2842 14.4372 14.0505 14.3735 13.9406C13.9233 13.1644 13.5215 12.3305 13.5196 11.4203C13.5156 9.59617 14.7614 8.16695 16.5251 7.71409C15.7357 6.31689 15.5877 4.92292 16.0188 3.38634L16.0841 3.16411C15.9754 3.16608 15.8563 3.15801 15.7493 3.17325ZM17.969 9.17457C16.901 9.25426 15.9181 9.51282 15.3496 10.5208C14.755 11.5751 15.4652 12.4726 15.9336 13.4034L17.3433 16.1955C17.4559 16.4182 17.4782 16.6674 17.7641 16.6648L18.1566 16.663C19.4112 16.6995 20.1991 17.9139 21.2813 18.2129L21.3219 18.2245C21.7402 18.3398 22.0755 18.0925 22.4532 17.9533C24.2598 17.287 25.0312 17.4668 26.8741 17.3473C28.0253 17.2726 29.1698 17.0555 30.3247 17.06C30.4215 16.8221 30.4701 16.5729 30.5765 16.3301L32.1085 13.3205C32.5069 12.5501 33.1108 11.7745 32.7938 10.8656C32.549 10.1636 31.9206 9.60273 31.2201 9.37703C29.0539 8.6791 26.4402 9.72775 24.7841 11.1692C24.0722 11.7889 23.9514 11.8064 23.1896 11.1721C21.7857 10.0036 19.8494 9.08059 17.9776 9.17298L17.969 9.17457ZM17.7775 18.286C17.2238 18.4645 17.1001 19.0735 17.7002 19.3077C17.9531 19.4064 18.5102 19.2455 18.7687 19.173L19.382 19.0117L18.6701 18.5909C18.3914 18.4369 18.1075 18.2647 17.7775 18.286ZM29.6732 18.7322L26.2758 18.8442C25.3834 18.8952 24.3012 19.0255 23.4998 19.3907L24.3947 19.7446C25.1553 19.9727 25.4339 19.9758 26.2032 19.9032C27.401 19.7901 30.4621 19.1657 30.293 18.7317L29.6732 18.7322ZM21.4984 20.1584C21.3004 20.5914 21.1811 21.0594 21.0099 21.5038L19.7352 24.563C19.5266 25.0321 19.2745 25.4394 18.668 25.3438L18.6272 25.3376C17.7602 25.1929 18.027 24.3532 18.2477 23.8355L19.5521 20.6571C18.7154 20.8337 18.0089 21.0923 17.1688 20.8043L16.4097 22.0197L13.3549 27.8674C12.7541 29.1602 12.1864 30.4828 11.7265 31.8332L10.5612 35.8124C10.7475 35.9296 10.968 36.007 11.1718 36.0893L13.8592 37.0689C15.201 37.4807 16.5872 37.7825 17.9727 37.9993L20.71 38.3506L22.185 38.4443L25.3327 38.4508C25.6092 38.4502 25.8996 38.4644 26.174 38.4329L29.1328 38.1523C31.5479 37.8428 33.9075 37.1874 36.1851 36.3369C36.3991 36.257 37.2724 35.9852 37.4032 35.851C37.2718 34.963 36.964 34.0594 36.6927 33.2053C35.7462 30.2263 34.4332 27.3763 33.0485 24.5795L31.0271 20.4341C30.7147 20.5641 30.3896 20.6545 30.0672 20.7549C28.0845 21.3724 25.5764 22.0166 23.5714 21.1996L24.1817 24.1949C24.2198 24.3828 24.2805 24.5552 24.2792 24.752C24.275 25.3496 23.4168 25.7159 22.9515 25.3713C22.6299 25.1331 22.5784 24.5796 22.5057 24.2182L21.6316 20.4254C21.6075 20.3256 21.5559 20.2424 21.4984 20.1584Z" fill="black"/>
</svg>
