<svg width="48" height="48" viewBox="0 0 48 48" fill="none" xmlns="http://www.w3.org/2000/svg">
<path d="M11.9637 44.132L11.4956 44.109C10.0023 43.9556 8.7772 42.5706 9.00932 41.0471C9.0524 40.7643 9.16021 40.4812 9.2542 40.2125L10.726 35.3914L11.0822 33.8167C11.7343 31.0859 12.5536 28.9027 13.8204 26.4064L16.5984 20.9962C17.4839 19.1352 17.6465 18.3652 16.9911 16.3828C16.3568 14.4637 14.8535 12.4582 14.8091 10.5663C14.7782 9.24824 14.8846 8.09695 15.8983 7.09992C16.1123 6.88935 16.1166 6.94368 16.0666 6.66796L15.6551 3.86718C15.5989 3.52026 15.541 3.14994 15.5919 2.79692C15.88 0.797652 18.9569 0.471486 19.4903 2.40979L19.5009 2.44921C19.521 2.50571 19.5418 2.54742 19.5522 2.60714L19.5581 2.64219C19.6179 2.97132 19.5874 3.31523 19.611 3.64914L19.849 6.09257C19.8664 6.21131 20.0704 6.26479 20.1757 6.31471C21.0003 6.70588 21.6722 7.28507 22.3073 7.92688L23.1416 8.78578C23.4154 9.07992 23.6877 9.41929 24.0153 9.65296C24.2335 9.44976 24.4275 9.21637 24.6321 8.99915L25.3094 8.31004C25.8655 7.72392 26.4305 7.12664 27.1202 6.69496C27.4256 6.50385 28.1541 6.29807 28.1774 6.04298L28.3388 4.13671C28.3521 3.98398 28.3762 3.83324 28.3827 3.67968L28.3928 2.95587C28.3943 2.81485 28.3835 2.63135 28.4423 2.50141L28.5943 2.15624C28.9396 1.50013 29.5406 1.17535 30.2493 1.08726C30.2873 1.06085 30.5437 1.08503 30.5919 1.09186L30.9011 1.13818C31.966 1.33758 32.579 2.56608 32.3851 3.56844C32.34 3.80153 32.3319 4.04031 32.3004 4.27528L31.9576 6.72346C31.935 6.94354 31.9175 6.89259 32.0801 7.04718C33.0211 7.9416 33.3351 9.65395 33.1724 10.9219C32.9665 12.5253 32.0469 13.8266 31.407 15.2695C30.9294 16.3466 30.3772 17.9536 30.6499 19.1582C30.8027 19.8331 31.1356 20.4664 31.433 21.0842L33.6912 25.2767L35.6595 29.205L36.5733 31.4197C36.6868 31.687 36.763 31.9784 36.8597 32.2528L37.5349 34.4589C37.6336 34.8227 37.6952 35.1994 37.7809 35.5664L38.3047 38.108C38.3734 38.4119 38.4375 38.7498 38.5464 39.0414L38.813 39.8789C38.9868 40.3578 39.1109 41.0583 39.0637 41.5668C38.9398 42.9039 37.7183 44.0561 36.3821 44.1273C35.997 44.1478 35.6049 44.1074 35.2209 44.1394C33.8857 44.2506 32.5895 44.8401 31.3603 45.3299L28.3943 46.4054C27.0168 46.8314 25.7663 46.8261 24.3361 46.8262C21.5154 46.8265 20.6759 46.8185 18.0935 45.8475L17.0835 45.5041C15.1559 44.8149 14.0815 44.1319 11.9637 44.132ZM30.3575 2.46491C30.1863 2.50664 30.0763 2.54213 29.933 2.65043L29.9121 2.66556C29.8525 2.71123 29.8025 2.7929 29.7918 2.86701L29.6283 6.01396C29.8942 6.03131 30.1631 6.0411 30.4225 6.1071L30.6401 6.15932L30.9656 3.85736C31.0314 3.3559 31.2241 2.41078 30.3575 2.46491ZM17.4577 2.48772C17.2577 2.53472 17.154 2.60831 17.0332 2.77734L17.0144 2.80279C16.8511 3.03218 17.127 4.68255 17.193 4.96068L17.3681 6.15173L17.8413 6.06088C18.0324 6.0299 18.2241 6.00384 18.4183 6.01078L18.3055 4.60546C18.2796 4.34651 18.2278 2.97392 18.15 2.83136L18.1307 2.79528C17.9848 2.52868 17.7465 2.44472 17.4577 2.48772ZM18.2175 7.41356C16.5887 7.65806 16.1929 8.87184 16.1945 10.2752C16.1964 11.872 16.9906 12.8551 17.6386 14.2434C17.9304 14.8684 18.1013 15.5195 18.3579 16.152C19.1721 15.9402 20.0382 16.007 20.8747 16.0068L23.5896 16.0076L25.6847 15.9744C25.6161 15.8997 25.5871 15.7966 25.5285 15.7143C24.8353 14.7405 24.2519 13.5498 23.855 12.4219L23.6012 11.6002C23.4555 11.0975 23.3463 11.1057 22.9934 10.7177L21.9584 9.6097C20.9897 8.56012 20.2042 7.53848 18.6931 7.41412L18.2175 7.41356ZM29.3092 7.4152C28.4127 7.53009 27.8245 7.84171 27.1681 8.44738L24.8198 10.7881C24.8462 10.9795 24.9187 11.1978 24.9848 11.3789L25.4065 12.5535C25.8134 13.6199 26.4841 14.6398 27.1322 15.5695C27.2337 15.7152 27.3157 15.8991 27.4334 16.0284L27.533 16.0319L28.557 16.0133C28.9748 16.016 29.2617 16.0385 29.6497 16.1839C29.7006 16.0614 29.7141 15.9069 29.7537 15.7766C30.3921 13.6706 32.1891 11.7119 31.7645 9.5039C31.6433 8.87395 31.3871 8.1599 30.8335 7.77815L30.6912 7.69415C30.2772 7.46432 29.7838 7.34953 29.3092 7.4152ZM26.1564 17.4339L19.8199 17.4347C19.4871 17.4349 18.7196 17.2657 18.7553 17.7831L18.7808 18.1913C18.799 18.5139 18.7896 18.8217 18.7755 19.1438L21.9021 19.1429L29.246 19.1171C29.1853 18.7371 29.2116 18.3384 29.226 17.9552C29.2549 17.193 28.938 17.4261 28.2164 17.4321L26.1564 17.4339ZM18.3776 20.5215C18.1499 21.0763 17.8623 21.604 17.6021 22.1484L16.4134 24.8944C15.501 27.3091 14.935 29.871 14.4887 32.4089L13.8708 36.6153C13.813 37.2101 13.0377 37.4486 12.6603 36.9605L12.6393 36.9337C12.3138 36.5019 12.9744 32.8222 13.0891 32.2556L13.3401 31.0681C13.3641 30.9438 13.4215 30.7641 13.3977 30.643L10.4276 40.9864C10.3787 41.1399 10.354 41.3368 10.372 41.4961L10.376 41.5333C10.534 42.9179 12.0674 42.6872 13.0067 42.7638C14.5274 42.8877 15.685 43.4668 17.0696 44.0278C17.5284 44.2136 18.0037 44.3312 18.4686 44.4961L19.9628 45.0699C20.7177 45.3189 21.4236 45.4045 22.2088 45.4066L25.1362 45.409C25.5797 45.4089 26.0345 45.4266 26.4762 45.3863C27.669 45.2776 28.7813 44.7302 29.9088 44.3731C31.7375 43.8649 33.0073 42.8693 35.1318 42.7591C35.6224 42.7337 36.1376 42.7975 36.6114 42.6391C37.4871 42.3464 37.8692 41.5365 37.6196 40.6596L36.8812 38.1532L36.2931 35.2409C36.0143 34.0051 35.6048 32.7863 35.1477 31.6062L34.8566 30.8074C34.7135 30.4532 34.5419 30.1141 34.3716 29.7727L35.3736 34.327C35.4582 34.6594 35.6437 36.2855 35.6015 36.6459C35.5158 37.3786 34.3522 37.4402 34.2195 36.6262L34.0203 34.8893L32.6839 28.6379C32.166 26.5225 31.5329 24.3486 30.5312 22.404L29.9454 21.2928C29.8162 21.0465 29.6746 20.8001 29.5892 20.5345L18.3776 20.5215Z" fill="black"/>
</svg>
