<svg width="48" height="48" viewBox="0 0 48 48" fill="none" xmlns="http://www.w3.org/2000/svg">
<path d="M26.5055 14.0364C26.3343 13.9303 26.192 13.8106 26.0503 13.6678C24.9545 14.4957 24.4623 15.7756 23.0797 14.6073L22.4624 14.0991C22.3016 13.9554 22.1584 13.7957 21.9883 13.662C21.687 13.8223 21.6385 14.022 21.1662 14.1647L21.1289 14.1758C19.1576 14.7733 17.2682 11.9945 16.8219 10.3264C16.038 10.7408 15.3196 10.8775 14.4683 11.0007C11.7739 11.3906 11.2154 13.775 10.7483 16.0171L10.4213 17.5768L9.27024 25.2341C9.23752 25.6208 9.1897 26.0099 9.17803 26.3972L9.15221 27.4782C9.14438 27.6466 9.14405 27.8249 9.10917 27.9898L9.10242 28.0194C9.08391 28.1068 9.06141 28.1413 8.99377 28.2015L8.9648 28.2266C8.67122 28.4872 8.29646 28.4955 8.09391 28.1292C7.81575 27.6263 8.45569 22.8261 8.55652 22.1132L9.23021 17.9179L9.66239 15.7923C9.93066 14.4784 10.1798 13.1835 10.9211 12.0351C11.5617 11.0427 12.6411 10.2003 13.8062 9.94969C14.1184 9.88252 14.4382 9.88215 14.7513 9.83199C15.7458 9.67271 16.9217 9.29949 17.5498 8.46919C17.8924 8.01629 18.1901 7.50235 18.4475 6.99605C18.8152 6.27291 19.0534 5.76591 19.8097 5.3694L27.1172 5.36129C27.4244 5.36115 28.0527 5.26294 28.307 5.4399L28.3359 5.4608C28.5057 5.58179 28.6024 5.82483 28.7198 5.9956L30.2521 8.22849C30.4613 8.52038 30.5571 8.73811 30.8606 8.95402C31.8144 9.63258 32.6904 9.75779 33.7869 9.87202C37.0665 10.2136 37.9628 13.8471 38.5312 16.5585L38.7691 17.7474L39.5271 23.2148L39.755 25.6288C39.7702 25.7632 39.8012 25.8949 39.8144 26.0307L39.9397 27.6948C39.9439 27.813 39.965 27.9956 39.9094 28.1028L39.8968 28.1249C39.6413 28.5912 39.0778 28.5082 38.9114 28.0312L38.9038 28.0077C38.8416 27.8202 38.8431 27.6388 38.8321 27.4447L37.9952 20.0167C37.7755 18.4529 37.5619 16.8782 37.146 15.3515L36.7747 14.1796C36.4019 13.0876 35.8351 11.7765 34.7098 11.2795C33.5755 10.7786 32.3789 11.0464 30.983 10.2471C31.002 10.7185 31.0574 10.9336 30.8892 11.3969C30.3105 12.9916 28.314 14.8714 26.5055 14.0364ZM20.5789 6.64299C21.3389 7.80783 22.62 9.08138 23.7127 9.90511C23.8463 10.0058 23.9949 10.1517 24.1447 10.2216L25.7179 8.64371C26.1156 8.23411 26.9569 7.28986 27.198 6.7561C27.217 6.714 27.2399 6.68513 27.2699 6.6504L20.5789 6.64299ZM19.5962 7.20694L18.9653 8.5261C19.078 8.6791 19.156 8.86036 19.2461 9.02761C19.9017 10.2458 20.8874 11.2489 21.8963 12.1775L22.233 11.8554L23.1966 10.9145L22.1326 10.0731C21.4645 9.49407 20.8691 8.84766 20.3323 8.14604C20.2427 8.02894 19.6358 7.21557 19.5962 7.20694ZM28.2192 7.23207C27.5731 8.24672 26.8581 9.11232 26.0175 9.97369L25.3593 10.6392C25.2306 10.7649 25.0889 10.8818 24.9697 11.0163L26.073 12.0389L26.1562 12.0936C26.6508 11.7041 27.5342 10.7326 27.9236 10.2572L29.0408 8.81475C29.0844 8.7669 29.1584 8.70783 29.1808 8.64882L28.2192 7.23207ZM18.2042 9.45694L18.1815 9.495C18.0799 9.66061 17.9139 9.79022 17.8226 9.95968C18.1117 10.9661 18.9815 12.3913 19.9077 12.9026L20.08 12.9938C20.2573 13.0852 20.4786 13.1601 20.6776 13.1155C20.807 13.101 20.9895 13.0751 21.1028 13.0081C20.573 12.3478 19.8639 11.8075 19.3093 11.0933C19.1871 10.9358 18.2266 9.47171 18.2042 9.45694ZM29.7307 9.73533C29.2811 10.3179 28.8563 10.9223 28.3681 11.4739C27.9055 11.9966 27.3875 12.465 26.9021 12.9642L27.1616 13.1141C27.6456 13.1553 28.041 13.002 28.4372 12.7341C29.4338 12.0602 30.1591 11.1332 29.7773 9.87858L29.7307 9.73533ZM24.0299 11.6933L22.8205 12.867L23.4682 13.499C23.6292 13.6549 23.8181 13.8408 24.0234 13.9351L24.082 13.8975L25.2926 12.8571L24.0299 11.6933Z" fill="black"/>
<path d="M33.9548 17.0197C33.2244 18.0066 33.2541 18.5361 33.3326 19.6602L33.7536 25.2069L34.2216 30.5037L35.0728 39.4034C35.0807 39.523 35.0954 39.6619 35.0404 39.7733C34.8839 40.0899 33.2725 40.9108 32.9182 41.0807C31.6305 41.6982 30.25 42.0535 28.8469 42.2885L25.3455 42.6301L22.8793 42.6223L20.9533 42.482C18.56 42.2738 16.4317 41.8444 14.3041 40.6795L13.7003 40.3253C12.6362 39.6917 12.917 39.5287 13.0186 38.3908L13.9545 29.2498L14.6298 19.2377C14.7049 18.1569 14.4973 17.4624 13.7164 16.6355C13.3895 16.2893 13.7184 15.8492 14.0671 15.7043C14.8237 15.6475 15.3547 17.074 15.5636 17.6248C15.9961 18.7656 15.6943 18.9879 15.645 20.0476L15.47 23.4256C15.4414 23.7872 15.4657 24.1632 15.4113 24.5215L14.0348 39.204C15.4424 40.0947 16.723 40.6357 18.3283 40.9903L19.7156 41.2407C20.1487 41.2976 20.6242 41.3371 21.0608 41.3577L26.1266 41.3665C26.8121 41.3654 27.4713 41.3182 28.1517 41.2524C30.1545 41.0589 32.2693 40.3315 33.9409 39.2246C33.9853 39.1952 33.9448 39.1064 33.9383 39.0585L32.3843 21.8572L32.3314 20.9065C32.1888 18.9864 31.9322 17.8384 33.1506 16.2391C33.6521 15.5808 34.1559 15.4387 34.4723 16.2852C34.3659 16.6252 34.1635 16.7455 33.9548 17.0197Z" fill="black"/>
</svg>
